<?xml version="1.0" encoding="UTF-8"?>
<svg xmlns="http://www.w3.org/2000/svg" width="1000" height="420" viewBox="0 0 1000 420">
  <rect width="100%" height="100%" fill="#ffffff"/>
  <text x="70" y="28" font-size="20" font-weight="600">개설 시점 기준 - 일별 신규 강의</text>
  <text x="70" y="402" font-size="12" fill="#555">강의 수</text>
  <line x1="70" y1="350.00" x2="980" y2="350.00" stroke="#e5e7eb" stroke-width="1"/>
  <text x="62" y="354.00" font-size="11" fill="#6b7280" text-anchor="end">0</text>
  <line x1="70" y1="290.00" x2="980" y2="290.00" stroke="#e5e7eb" stroke-width="1"/>
  <text x="62" y="294.00" font-size="11" fill="#6b7280" text-anchor="end">28</text>
  <line x1="70" y1="230.00" x2="980" y2="230.00" stroke="#e5e7eb" stroke-width="1"/>
  <text x="62" y="234.00" font-size="11" fill="#6b7280" text-anchor="end">57</text>
  <line x1="70" y1="170.00" x2="980" y2="170.00" stroke="#e5e7eb" stroke-width="1"/>
  <text x="62" y="174.00" font-size="11" fill="#6b7280" text-anchor="end">86</text>
  <line x1="70" y1="110.00" x2="980" y2="110.00" stroke="#e5e7eb" stroke-width="1"/>
  <text x="62" y="114.00" font-size="11" fill="#6b7280" text-anchor="end">115</text>
  <line x1="70" y1="50.00" x2="980" y2="50.00" stroke="#e5e7eb" stroke-width="1"/>
  <text x="62" y="54.00" font-size="11" fill="#6b7280" text-anchor="end">144</text>
  <line x1="70" y1="350" x2="980" y2="350" stroke="#111827" stroke-width="1.2"/>
  <line x1="70" y1="50" x2="70" y2="350" stroke="#111827" stroke-width="1.2"/>
  <line x1="70.00" y1="350" x2="70.00" y2="356" stroke="#9ca3af" stroke-width="1"/>
  <text x="70.00" y="372" font-size="10" fill="#6b7280" text-anchor="middle">2025-04-02</text>
  <line x1="143.70" y1="350" x2="143.70" y2="356" stroke="#9ca3af" stroke-width="1"/>
  <text x="143.70" y="372" font-size="10" fill="#6b7280" text-anchor="middle">2025-05-08</text>
  <line x1="217.39" y1="350" x2="217.39" y2="356" stroke="#9ca3af" stroke-width="1"/>
  <text x="217.39" y="372" font-size="10" fill="#6b7280" text-anchor="middle">2025-06-11</text>
  <line x1="291.09" y1="350" x2="291.09" y2="356" stroke="#9ca3af" stroke-width="1"/>
  <text x="291.09" y="372" font-size="10" fill="#6b7280" text-anchor="middle">2025-07-10</text>
  <line x1="364.79" y1="350" x2="364.79" y2="356" stroke="#9ca3af" stroke-width="1"/>
  <text x="364.79" y="372" font-size="10" fill="#6b7280" text-anchor="middle">2025-08-05</text>
  <line x1="438.49" y1="350" x2="438.49" y2="356" stroke="#9ca3af" stroke-width="1"/>
  <text x="438.49" y="372" font-size="10" fill="#6b7280" text-anchor="middle">2025-09-03</text>
  <line x1="512.18" y1="350" x2="512.18" y2="356" stroke="#9ca3af" stroke-width="1"/>
  <text x="512.18" y="372" font-size="10" fill="#6b7280" text-anchor="middle">2025-09-29</text>
  <line x1="585.88" y1="350" x2="585.88" y2="356" stroke="#9ca3af" stroke-width="1"/>
  <text x="585.88" y="372" font-size="10" fill="#6b7280" text-anchor="middle">2025-10-29</text>
  <line x1="659.58" y1="350" x2="659.58" y2="356" stroke="#9ca3af" stroke-width="1"/>
  <text x="659.58" y="372" font-size="10" fill="#6b7280" text-anchor="middle">2025-11-22</text>
  <line x1="733.27" y1="350" x2="733.27" y2="356" stroke="#9ca3af" stroke-width="1"/>
  <text x="733.27" y="372" font-size="10" fill="#6b7280" text-anchor="middle">2025-12-18</text>
  <line x1="806.97" y1="350" x2="806.97" y2="356" stroke="#9ca3af" stroke-width="1"/>
  <text x="806.97" y="372" font-size="10" fill="#6b7280" text-anchor="middle">2026-01-12</text>
  <line x1="880.67" y1="350" x2="880.67" y2="356" stroke="#9ca3af" stroke-width="1"/>
  <text x="880.67" y="372" font-size="10" fill="#6b7280" text-anchor="middle">2026-02-04</text>
  <line x1="954.37" y1="350" x2="954.37" y2="356" stroke="#9ca3af" stroke-width="1"/>
  <text x="954.37" y="372" font-size="10" fill="#6b7280" text-anchor="middle">2026-03-01</text>
  <line x1="980.00" y1="350" x2="980.00" y2="356" stroke="#9ca3af" stroke-width="1"/>
  <text x="980.00" y="372" font-size="10" fill="#6b7280" text-anchor="middle">2026-03-09</text>
  <polyline fill="none" stroke="#2563eb" stroke-width="2.5" points="70.00,341.67 73.20,312.50 76.41,345.83 79.61,327.08 82.82,308.33 86.02,329.17 89.23,345.83 92.43,325.00 95.63,341.67 98.84,320.83 102.04,335.42 105.25,341.67 108.45,341.67 111.65,329.17 114.86,339.58 118.06,337.50 121.27,345.83 124.47,316.67 127.68,341.67 130.88,341.67 134.08,285.42 137.29,329.17 140.49,312.50 143.70,343.75 146.90,339.58 150.11,337.50 153.31,325.00 156.51,345.83 159.72,345.83 162.92,341.67 166.13,341.67 169.33,320.83 172.54,345.83 175.74,337.50 178.94,329.17 182.15,320.83 185.35,329.17 188.56,333.33 191.76,308.33 194.96,333.33 198.17,316.67 201.37,50.00 204.58,304.17 207.78,325.00 210.99,304.17 214.19,327.08 217.39,341.67 220.60,325.00 223.80,329.17 227.01,272.92 230.21,325.00 233.42,329.17 236.62,325.00 239.82,345.83 243.03,320.83 246.23,333.33 249.44,337.50 252.64,325.00 255.85,337.50 259.05,329.17 262.25,320.83 265.46,316.67 268.66,322.92 271.87,293.75 275.07,341.67 278.27,345.83 281.48,304.17 284.68,345.83 287.89,310.42 291.09,304.17 294.30,337.50 297.50,333.33 300.70,325.00 303.91,345.83 307.11,345.83 310.32,341.67 313.52,337.50 316.73,337.50 319.93,316.67 323.13,335.42 326.34,302.08 329.54,341.67 332.75,341.67 335.95,333.33 339.15,308.33 342.36,325.00 345.56,329.17 348.77,325.00 351.97,314.58 355.18,345.83 358.38,316.67 361.58,295.83 364.79,335.42 367.99,345.83 371.20,337.50 374.40,337.50 377.61,341.67 380.81,337.50 384.01,333.33 387.22,300.00 390.42,325.00 393.63,341.67 396.83,337.50 400.04,345.83 403.24,333.33 406.44,333.33 409.65,329.17 412.85,337.50 416.06,337.50 419.26,333.33 422.46,341.67 425.67,337.50 428.87,341.67 432.08,325.00 435.28,300.00 438.49,329.17 441.69,345.83 444.89,316.67 448.10,345.83 451.30,345.83 454.51,337.50 457.71,339.58 460.92,345.83 464.12,331.25 467.32,337.50 470.53,345.83 473.73,331.25 476.94,341.67 480.14,337.50 483.35,333.33 486.55,345.83 489.75,341.67 492.96,333.33 496.16,333.33 499.37,337.50 502.57,345.83 505.77,337.50 508.98,345.83 512.18,341.67 515.39,341.67 518.59,300.00 521.80,329.17 525.00,331.25 528.20,345.83 531.41,337.50 534.61,341.67 537.82,302.08 541.02,341.67 544.23,327.08 547.43,333.33 550.63,320.83 553.84,345.83 557.04,310.42 560.25,306.25 563.45,333.33 566.65,345.83 569.86,279.17 573.06,341.67 576.27,345.83 579.47,337.50 582.68,337.50 585.88,320.83 589.08,341.67 592.29,341.67 595.49,341.67 598.70,345.83 601.90,337.50 605.11,341.67 608.31,345.83 611.51,337.50 614.72,337.50 617.92,341.67 621.13,339.58 624.33,312.50 627.54,325.00 630.74,339.58 633.94,320.83 637.15,335.42 640.35,337.50 643.56,333.33 646.76,320.83 649.96,318.75 653.17,329.17 656.37,308.33 659.58,341.67 662.78,341.67 665.99,314.58 669.19,312.50 672.39,283.33 675.60,308.33 678.80,329.17 682.01,345.83 685.21,337.50 688.42,304.17 691.62,306.25 694.82,329.17 698.03,308.33 701.23,341.67 704.44,345.83 707.64,333.33 710.85,333.33 714.05,341.67 717.25,333.33 720.46,337.50 723.66,341.67 726.87,345.83 730.07,341.67 733.27,345.83 736.48,331.25 739.68,331.25 742.89,337.50 746.09,335.42 749.30,318.75 752.50,345.83 755.70,333.33 758.91,341.67 762.11,300.00 765.32,325.00 768.52,337.50 771.73,329.17 774.93,329.17 778.13,341.67 781.34,345.83 784.54,337.50 787.75,333.33 790.95,345.83 794.15,341.67 797.36,329.17 800.56,333.33 803.77,337.50 806.97,337.50 810.18,331.25 813.38,316.67 816.58,337.50 819.79,337.50 822.99,345.83 826.20,333.33 829.40,329.17 832.61,335.42 835.81,327.08 839.01,320.83 842.22,327.08 845.42,333.33 848.63,341.67 851.83,325.00 855.04,325.00 858.24,314.58 861.44,341.67 864.65,341.67 867.85,333.33 871.06,341.67 874.26,283.33 877.46,308.33 880.67,329.17 883.87,329.17 887.08,337.50 890.28,341.67 893.49,325.00 896.69,331.25 899.89,310.42 903.10,341.67 906.30,325.00 909.51,337.50 912.71,345.83 915.92,341.67 919.12,329.17 922.32,316.67 925.53,325.00 928.73,333.33 931.94,341.67 935.14,329.17 938.35,316.67 941.55,300.00 944.75,314.58 947.96,322.92 951.16,329.17 954.37,335.42 957.57,325.00 960.77,320.83 963.98,335.42 967.18,329.17 970.39,310.42 973.59,341.67 976.80,337.50 980.00,345.83"/>
  <circle cx="70.00" cy="341.67" r="2.5" fill="#2563eb"/>
  <circle cx="73.20" cy="312.50" r="2.5" fill="#2563eb"/>
  <circle cx="76.41" cy="345.83" r="2.5" fill="#2563eb"/>
  <circle cx="79.61" cy="327.08" r="2.5" fill="#2563eb"/>
  <circle cx="82.82" cy="308.33" r="2.5" fill="#2563eb"/>
  <circle cx="86.02" cy="329.17" r="2.5" fill="#2563eb"/>
  <circle cx="89.23" cy="345.83" r="2.5" fill="#2563eb"/>
  <circle cx="92.43" cy="325.00" r="2.5" fill="#2563eb"/>
  <circle cx="95.63" cy="341.67" r="2.5" fill="#2563eb"/>
  <circle cx="98.84" cy="320.83" r="2.5" fill="#2563eb"/>
  <circle cx="102.04" cy="335.42" r="2.5" fill="#2563eb"/>
  <circle cx="105.25" cy="341.67" r="2.5" fill="#2563eb"/>
  <circle cx="108.45" cy="341.67" r="2.5" fill="#2563eb"/>
  <circle cx="111.65" cy="329.17" r="2.5" fill="#2563eb"/>
  <circle cx="114.86" cy="339.58" r="2.5" fill="#2563eb"/>
  <circle cx="118.06" cy="337.50" r="2.5" fill="#2563eb"/>
  <circle cx="121.27" cy="345.83" r="2.5" fill="#2563eb"/>
  <circle cx="124.47" cy="316.67" r="2.5" fill="#2563eb"/>
  <circle cx="127.68" cy="341.67" r="2.5" fill="#2563eb"/>
  <circle cx="130.88" cy="341.67" r="2.5" fill="#2563eb"/>
  <circle cx="134.08" cy="285.42" r="2.5" fill="#2563eb"/>
  <circle cx="137.29" cy="329.17" r="2.5" fill="#2563eb"/>
  <circle cx="140.49" cy="312.50" r="2.5" fill="#2563eb"/>
  <circle cx="143.70" cy="343.75" r="2.5" fill="#2563eb"/>
  <circle cx="146.90" cy="339.58" r="2.5" fill="#2563eb"/>
  <circle cx="150.11" cy="337.50" r="2.5" fill="#2563eb"/>
  <circle cx="153.31" cy="325.00" r="2.5" fill="#2563eb"/>
  <circle cx="156.51" cy="345.83" r="2.5" fill="#2563eb"/>
  <circle cx="159.72" cy="345.83" r="2.5" fill="#2563eb"/>
  <circle cx="162.92" cy="341.67" r="2.5" fill="#2563eb"/>
  <circle cx="166.13" cy="341.67" r="2.5" fill="#2563eb"/>
  <circle cx="169.33" cy="320.83" r="2.5" fill="#2563eb"/>
  <circle cx="172.54" cy="345.83" r="2.5" fill="#2563eb"/>
  <circle cx="175.74" cy="337.50" r="2.5" fill="#2563eb"/>
  <circle cx="178.94" cy="329.17" r="2.5" fill="#2563eb"/>
  <circle cx="182.15" cy="320.83" r="2.5" fill="#2563eb"/>
  <circle cx="185.35" cy="329.17" r="2.5" fill="#2563eb"/>
  <circle cx="188.56" cy="333.33" r="2.5" fill="#2563eb"/>
  <circle cx="191.76" cy="308.33" r="2.5" fill="#2563eb"/>
  <circle cx="194.96" cy="333.33" r="2.5" fill="#2563eb"/>
  <circle cx="198.17" cy="316.67" r="2.5" fill="#2563eb"/>
  <circle cx="201.37" cy="50.00" r="2.5" fill="#2563eb"/>
  <circle cx="204.58" cy="304.17" r="2.5" fill="#2563eb"/>
  <circle cx="207.78" cy="325.00" r="2.5" fill="#2563eb"/>
  <circle cx="210.99" cy="304.17" r="2.5" fill="#2563eb"/>
  <circle cx="214.19" cy="327.08" r="2.5" fill="#2563eb"/>
  <circle cx="217.39" cy="341.67" r="2.5" fill="#2563eb"/>
  <circle cx="220.60" cy="325.00" r="2.5" fill="#2563eb"/>
  <circle cx="223.80" cy="329.17" r="2.5" fill="#2563eb"/>
  <circle cx="227.01" cy="272.92" r="2.5" fill="#2563eb"/>
  <circle cx="230.21" cy="325.00" r="2.5" fill="#2563eb"/>
  <circle cx="233.42" cy="329.17" r="2.5" fill="#2563eb"/>
  <circle cx="236.62" cy="325.00" r="2.5" fill="#2563eb"/>
  <circle cx="239.82" cy="345.83" r="2.5" fill="#2563eb"/>
  <circle cx="243.03" cy="320.83" r="2.5" fill="#2563eb"/>
  <circle cx="246.23" cy="333.33" r="2.5" fill="#2563eb"/>
  <circle cx="249.44" cy="337.50" r="2.5" fill="#2563eb"/>
  <circle cx="252.64" cy="325.00" r="2.5" fill="#2563eb"/>
  <circle cx="255.85" cy="337.50" r="2.5" fill="#2563eb"/>
  <circle cx="259.05" cy="329.17" r="2.5" fill="#2563eb"/>
  <circle cx="262.25" cy="320.83" r="2.5" fill="#2563eb"/>
  <circle cx="265.46" cy="316.67" r="2.5" fill="#2563eb"/>
  <circle cx="268.66" cy="322.92" r="2.5" fill="#2563eb"/>
  <circle cx="271.87" cy="293.75" r="2.5" fill="#2563eb"/>
  <circle cx="275.07" cy="341.67" r="2.5" fill="#2563eb"/>
  <circle cx="278.27" cy="345.83" r="2.5" fill="#2563eb"/>
  <circle cx="281.48" cy="304.17" r="2.5" fill="#2563eb"/>
  <circle cx="284.68" cy="345.83" r="2.5" fill="#2563eb"/>
  <circle cx="287.89" cy="310.42" r="2.5" fill="#2563eb"/>
  <circle cx="291.09" cy="304.17" r="2.5" fill="#2563eb"/>
  <circle cx="294.30" cy="337.50" r="2.5" fill="#2563eb"/>
  <circle cx="297.50" cy="333.33" r="2.5" fill="#2563eb"/>
  <circle cx="300.70" cy="325.00" r="2.5" fill="#2563eb"/>
  <circle cx="303.91" cy="345.83" r="2.5" fill="#2563eb"/>
  <circle cx="307.11" cy="345.83" r="2.5" fill="#2563eb"/>
  <circle cx="310.32" cy="341.67" r="2.5" fill="#2563eb"/>
  <circle cx="313.52" cy="337.50" r="2.5" fill="#2563eb"/>
  <circle cx="316.73" cy="337.50" r="2.5" fill="#2563eb"/>
  <circle cx="319.93" cy="316.67" r="2.5" fill="#2563eb"/>
  <circle cx="323.13" cy="335.42" r="2.5" fill="#2563eb"/>
  <circle cx="326.34" cy="302.08" r="2.5" fill="#2563eb"/>
  <circle cx="329.54" cy="341.67" r="2.5" fill="#2563eb"/>
  <circle cx="332.75" cy="341.67" r="2.5" fill="#2563eb"/>
  <circle cx="335.95" cy="333.33" r="2.5" fill="#2563eb"/>
  <circle cx="339.15" cy="308.33" r="2.5" fill="#2563eb"/>
  <circle cx="342.36" cy="325.00" r="2.5" fill="#2563eb"/>
  <circle cx="345.56" cy="329.17" r="2.5" fill="#2563eb"/>
  <circle cx="348.77" cy="325.00" r="2.5" fill="#2563eb"/>
  <circle cx="351.97" cy="314.58" r="2.5" fill="#2563eb"/>
  <circle cx="355.18" cy="345.83" r="2.5" fill="#2563eb"/>
  <circle cx="358.38" cy="316.67" r="2.5" fill="#2563eb"/>
  <circle cx="361.58" cy="295.83" r="2.5" fill="#2563eb"/>
  <circle cx="364.79" cy="335.42" r="2.5" fill="#2563eb"/>
  <circle cx="367.99" cy="345.83" r="2.5" fill="#2563eb"/>
  <circle cx="371.20" cy="337.50" r="2.5" fill="#2563eb"/>
  <circle cx="374.40" cy="337.50" r="2.5" fill="#2563eb"/>
  <circle cx="377.61" cy="341.67" r="2.5" fill="#2563eb"/>
  <circle cx="380.81" cy="337.50" r="2.5" fill="#2563eb"/>
  <circle cx="384.01" cy="333.33" r="2.5" fill="#2563eb"/>
  <circle cx="387.22" cy="300.00" r="2.5" fill="#2563eb"/>
  <circle cx="390.42" cy="325.00" r="2.5" fill="#2563eb"/>
  <circle cx="393.63" cy="341.67" r="2.5" fill="#2563eb"/>
  <circle cx="396.83" cy="337.50" r="2.5" fill="#2563eb"/>
  <circle cx="400.04" cy="345.83" r="2.5" fill="#2563eb"/>
  <circle cx="403.24" cy="333.33" r="2.5" fill="#2563eb"/>
  <circle cx="406.44" cy="333.33" r="2.5" fill="#2563eb"/>
  <circle cx="409.65" cy="329.17" r="2.5" fill="#2563eb"/>
  <circle cx="412.85" cy="337.50" r="2.5" fill="#2563eb"/>
  <circle cx="416.06" cy="337.50" r="2.5" fill="#2563eb"/>
  <circle cx="419.26" cy="333.33" r="2.5" fill="#2563eb"/>
  <circle cx="422.46" cy="341.67" r="2.5" fill="#2563eb"/>
  <circle cx="425.67" cy="337.50" r="2.5" fill="#2563eb"/>
  <circle cx="428.87" cy="341.67" r="2.5" fill="#2563eb"/>
  <circle cx="432.08" cy="325.00" r="2.5" fill="#2563eb"/>
  <circle cx="435.28" cy="300.00" r="2.5" fill="#2563eb"/>
  <circle cx="438.49" cy="329.17" r="2.5" fill="#2563eb"/>
  <circle cx="441.69" cy="345.83" r="2.5" fill="#2563eb"/>
  <circle cx="444.89" cy="316.67" r="2.5" fill="#2563eb"/>
  <circle cx="448.10" cy="345.83" r="2.5" fill="#2563eb"/>
  <circle cx="451.30" cy="345.83" r="2.5" fill="#2563eb"/>
  <circle cx="454.51" cy="337.50" r="2.5" fill="#2563eb"/>
  <circle cx="457.71" cy="339.58" r="2.5" fill="#2563eb"/>
  <circle cx="460.92" cy="345.83" r="2.5" fill="#2563eb"/>
  <circle cx="464.12" cy="331.25" r="2.5" fill="#2563eb"/>
  <circle cx="467.32" cy="337.50" r="2.5" fill="#2563eb"/>
  <circle cx="470.53" cy="345.83" r="2.5" fill="#2563eb"/>
  <circle cx="473.73" cy="331.25" r="2.5" fill="#2563eb"/>
  <circle cx="476.94" cy="341.67" r="2.5" fill="#2563eb"/>
  <circle cx="480.14" cy="337.50" r="2.5" fill="#2563eb"/>
  <circle cx="483.35" cy="333.33" r="2.5" fill="#2563eb"/>
  <circle cx="486.55" cy="345.83" r="2.5" fill="#2563eb"/>
  <circle cx="489.75" cy="341.67" r="2.5" fill="#2563eb"/>
  <circle cx="492.96" cy="333.33" r="2.5" fill="#2563eb"/>
  <circle cx="496.16" cy="333.33" r="2.5" fill="#2563eb"/>
  <circle cx="499.37" cy="337.50" r="2.5" fill="#2563eb"/>
  <circle cx="502.57" cy="345.83" r="2.5" fill="#2563eb"/>
  <circle cx="505.77" cy="337.50" r="2.5" fill="#2563eb"/>
  <circle cx="508.98" cy="345.83" r="2.5" fill="#2563eb"/>
  <circle cx="512.18" cy="341.67" r="2.5" fill="#2563eb"/>
  <circle cx="515.39" cy="341.67" r="2.5" fill="#2563eb"/>
  <circle cx="518.59" cy="300.00" r="2.5" fill="#2563eb"/>
  <circle cx="521.80" cy="329.17" r="2.5" fill="#2563eb"/>
  <circle cx="525.00" cy="331.25" r="2.5" fill="#2563eb"/>
  <circle cx="528.20" cy="345.83" r="2.5" fill="#2563eb"/>
  <circle cx="531.41" cy="337.50" r="2.5" fill="#2563eb"/>
  <circle cx="534.61" cy="341.67" r="2.5" fill="#2563eb"/>
  <circle cx="537.82" cy="302.08" r="2.5" fill="#2563eb"/>
  <circle cx="541.02" cy="341.67" r="2.5" fill="#2563eb"/>
  <circle cx="544.23" cy="327.08" r="2.5" fill="#2563eb"/>
  <circle cx="547.43" cy="333.33" r="2.5" fill="#2563eb"/>
  <circle cx="550.63" cy="320.83" r="2.5" fill="#2563eb"/>
  <circle cx="553.84" cy="345.83" r="2.5" fill="#2563eb"/>
  <circle cx="557.04" cy="310.42" r="2.5" fill="#2563eb"/>
  <circle cx="560.25" cy="306.25" r="2.5" fill="#2563eb"/>
  <circle cx="563.45" cy="333.33" r="2.5" fill="#2563eb"/>
  <circle cx="566.65" cy="345.83" r="2.5" fill="#2563eb"/>
  <circle cx="569.86" cy="279.17" r="2.5" fill="#2563eb"/>
  <circle cx="573.06" cy="341.67" r="2.5" fill="#2563eb"/>
  <circle cx="576.27" cy="345.83" r="2.5" fill="#2563eb"/>
  <circle cx="579.47" cy="337.50" r="2.5" fill="#2563eb"/>
  <circle cx="582.68" cy="337.50" r="2.5" fill="#2563eb"/>
  <circle cx="585.88" cy="320.83" r="2.5" fill="#2563eb"/>
  <circle cx="589.08" cy="341.67" r="2.5" fill="#2563eb"/>
  <circle cx="592.29" cy="341.67" r="2.5" fill="#2563eb"/>
  <circle cx="595.49" cy="341.67" r="2.5" fill="#2563eb"/>
  <circle cx="598.70" cy="345.83" r="2.5" fill="#2563eb"/>
  <circle cx="601.90" cy="337.50" r="2.5" fill="#2563eb"/>
  <circle cx="605.11" cy="341.67" r="2.5" fill="#2563eb"/>
  <circle cx="608.31" cy="345.83" r="2.5" fill="#2563eb"/>
  <circle cx="611.51" cy="337.50" r="2.5" fill="#2563eb"/>
  <circle cx="614.72" cy="337.50" r="2.5" fill="#2563eb"/>
  <circle cx="617.92" cy="341.67" r="2.5" fill="#2563eb"/>
  <circle cx="621.13" cy="339.58" r="2.5" fill="#2563eb"/>
  <circle cx="624.33" cy="312.50" r="2.5" fill="#2563eb"/>
  <circle cx="627.54" cy="325.00" r="2.5" fill="#2563eb"/>
  <circle cx="630.74" cy="339.58" r="2.5" fill="#2563eb"/>
  <circle cx="633.94" cy="320.83" r="2.5" fill="#2563eb"/>
  <circle cx="637.15" cy="335.42" r="2.5" fill="#2563eb"/>
  <circle cx="640.35" cy="337.50" r="2.5" fill="#2563eb"/>
  <circle cx="643.56" cy="333.33" r="2.5" fill="#2563eb"/>
  <circle cx="646.76" cy="320.83" r="2.5" fill="#2563eb"/>
  <circle cx="649.96" cy="318.75" r="2.5" fill="#2563eb"/>
  <circle cx="653.17" cy="329.17" r="2.5" fill="#2563eb"/>
  <circle cx="656.37" cy="308.33" r="2.5" fill="#2563eb"/>
  <circle cx="659.58" cy="341.67" r="2.5" fill="#2563eb"/>
  <circle cx="662.78" cy="341.67" r="2.5" fill="#2563eb"/>
  <circle cx="665.99" cy="314.58" r="2.5" fill="#2563eb"/>
  <circle cx="669.19" cy="312.50" r="2.5" fill="#2563eb"/>
  <circle cx="672.39" cy="283.33" r="2.5" fill="#2563eb"/>
  <circle cx="675.60" cy="308.33" r="2.5" fill="#2563eb"/>
  <circle cx="678.80" cy="329.17" r="2.5" fill="#2563eb"/>
  <circle cx="682.01" cy="345.83" r="2.5" fill="#2563eb"/>
  <circle cx="685.21" cy="337.50" r="2.5" fill="#2563eb"/>
  <circle cx="688.42" cy="304.17" r="2.5" fill="#2563eb"/>
  <circle cx="691.62" cy="306.25" r="2.5" fill="#2563eb"/>
  <circle cx="694.82" cy="329.17" r="2.5" fill="#2563eb"/>
  <circle cx="698.03" cy="308.33" r="2.5" fill="#2563eb"/>
  <circle cx="701.23" cy="341.67" r="2.5" fill="#2563eb"/>
  <circle cx="704.44" cy="345.83" r="2.5" fill="#2563eb"/>
  <circle cx="707.64" cy="333.33" r="2.5" fill="#2563eb"/>
  <circle cx="710.85" cy="333.33" r="2.5" fill="#2563eb"/>
  <circle cx="714.05" cy="341.67" r="2.5" fill="#2563eb"/>
  <circle cx="717.25" cy="333.33" r="2.5" fill="#2563eb"/>
  <circle cx="720.46" cy="337.50" r="2.5" fill="#2563eb"/>
  <circle cx="723.66" cy="341.67" r="2.5" fill="#2563eb"/>
  <circle cx="726.87" cy="345.83" r="2.5" fill="#2563eb"/>
  <circle cx="730.07" cy="341.67" r="2.5" fill="#2563eb"/>
  <circle cx="733.27" cy="345.83" r="2.5" fill="#2563eb"/>
  <circle cx="736.48" cy="331.25" r="2.5" fill="#2563eb"/>
  <circle cx="739.68" cy="331.25" r="2.5" fill="#2563eb"/>
  <circle cx="742.89" cy="337.50" r="2.5" fill="#2563eb"/>
  <circle cx="746.09" cy="335.42" r="2.5" fill="#2563eb"/>
  <circle cx="749.30" cy="318.75" r="2.5" fill="#2563eb"/>
  <circle cx="752.50" cy="345.83" r="2.5" fill="#2563eb"/>
  <circle cx="755.70" cy="333.33" r="2.5" fill="#2563eb"/>
  <circle cx="758.91" cy="341.67" r="2.5" fill="#2563eb"/>
  <circle cx="762.11" cy="300.00" r="2.5" fill="#2563eb"/>
  <circle cx="765.32" cy="325.00" r="2.5" fill="#2563eb"/>
  <circle cx="768.52" cy="337.50" r="2.5" fill="#2563eb"/>
  <circle cx="771.73" cy="329.17" r="2.5" fill="#2563eb"/>
  <circle cx="774.93" cy="329.17" r="2.5" fill="#2563eb"/>
  <circle cx="778.13" cy="341.67" r="2.5" fill="#2563eb"/>
  <circle cx="781.34" cy="345.83" r="2.5" fill="#2563eb"/>
  <circle cx="784.54" cy="337.50" r="2.5" fill="#2563eb"/>
  <circle cx="787.75" cy="333.33" r="2.5" fill="#2563eb"/>
  <circle cx="790.95" cy="345.83" r="2.5" fill="#2563eb"/>
  <circle cx="794.15" cy="341.67" r="2.5" fill="#2563eb"/>
  <circle cx="797.36" cy="329.17" r="2.5" fill="#2563eb"/>
  <circle cx="800.56" cy="333.33" r="2.5" fill="#2563eb"/>
  <circle cx="803.77" cy="337.50" r="2.5" fill="#2563eb"/>
  <circle cx="806.97" cy="337.50" r="2.5" fill="#2563eb"/>
  <circle cx="810.18" cy="331.25" r="2.5" fill="#2563eb"/>
  <circle cx="813.38" cy="316.67" r="2.5" fill="#2563eb"/>
  <circle cx="816.58" cy="337.50" r="2.5" fill="#2563eb"/>
  <circle cx="819.79" cy="337.50" r="2.5" fill="#2563eb"/>
  <circle cx="822.99" cy="345.83" r="2.5" fill="#2563eb"/>
  <circle cx="826.20" cy="333.33" r="2.5" fill="#2563eb"/>
  <circle cx="829.40" cy="329.17" r="2.5" fill="#2563eb"/>
  <circle cx="832.61" cy="335.42" r="2.5" fill="#2563eb"/>
  <circle cx="835.81" cy="327.08" r="2.5" fill="#2563eb"/>
  <circle cx="839.01" cy="320.83" r="2.5" fill="#2563eb"/>
  <circle cx="842.22" cy="327.08" r="2.5" fill="#2563eb"/>
  <circle cx="845.42" cy="333.33" r="2.5" fill="#2563eb"/>
  <circle cx="848.63" cy="341.67" r="2.5" fill="#2563eb"/>
  <circle cx="851.83" cy="325.00" r="2.5" fill="#2563eb"/>
  <circle cx="855.04" cy="325.00" r="2.5" fill="#2563eb"/>
  <circle cx="858.24" cy="314.58" r="2.5" fill="#2563eb"/>
  <circle cx="861.44" cy="341.67" r="2.5" fill="#2563eb"/>
  <circle cx="864.65" cy="341.67" r="2.5" fill="#2563eb"/>
  <circle cx="867.85" cy="333.33" r="2.5" fill="#2563eb"/>
  <circle cx="871.06" cy="341.67" r="2.5" fill="#2563eb"/>
  <circle cx="874.26" cy="283.33" r="2.5" fill="#2563eb"/>
  <circle cx="877.46" cy="308.33" r="2.5" fill="#2563eb"/>
  <circle cx="880.67" cy="329.17" r="2.5" fill="#2563eb"/>
  <circle cx="883.87" cy="329.17" r="2.5" fill="#2563eb"/>
  <circle cx="887.08" cy="337.50" r="2.5" fill="#2563eb"/>
  <circle cx="890.28" cy="341.67" r="2.5" fill="#2563eb"/>
  <circle cx="893.49" cy="325.00" r="2.5" fill="#2563eb"/>
  <circle cx="896.69" cy="331.25" r="2.5" fill="#2563eb"/>
  <circle cx="899.89" cy="310.42" r="2.5" fill="#2563eb"/>
  <circle cx="903.10" cy="341.67" r="2.5" fill="#2563eb"/>
  <circle cx="906.30" cy="325.00" r="2.5" fill="#2563eb"/>
  <circle cx="909.51" cy="337.50" r="2.5" fill="#2563eb"/>
  <circle cx="912.71" cy="345.83" r="2.5" fill="#2563eb"/>
  <circle cx="915.92" cy="341.67" r="2.5" fill="#2563eb"/>
  <circle cx="919.12" cy="329.17" r="2.5" fill="#2563eb"/>
  <circle cx="922.32" cy="316.67" r="2.5" fill="#2563eb"/>
  <circle cx="925.53" cy="325.00" r="2.5" fill="#2563eb"/>
  <circle cx="928.73" cy="333.33" r="2.5" fill="#2563eb"/>
  <circle cx="931.94" cy="341.67" r="2.5" fill="#2563eb"/>
  <circle cx="935.14" cy="329.17" r="2.5" fill="#2563eb"/>
  <circle cx="938.35" cy="316.67" r="2.5" fill="#2563eb"/>
  <circle cx="941.55" cy="300.00" r="2.5" fill="#2563eb"/>
  <circle cx="944.75" cy="314.58" r="2.5" fill="#2563eb"/>
  <circle cx="947.96" cy="322.92" r="2.5" fill="#2563eb"/>
  <circle cx="951.16" cy="329.17" r="2.5" fill="#2563eb"/>
  <circle cx="954.37" cy="335.42" r="2.5" fill="#2563eb"/>
  <circle cx="957.57" cy="325.00" r="2.5" fill="#2563eb"/>
  <circle cx="960.77" cy="320.83" r="2.5" fill="#2563eb"/>
  <circle cx="963.98" cy="335.42" r="2.5" fill="#2563eb"/>
  <circle cx="967.18" cy="329.17" r="2.5" fill="#2563eb"/>
  <circle cx="970.39" cy="310.42" r="2.5" fill="#2563eb"/>
  <circle cx="973.59" cy="341.67" r="2.5" fill="#2563eb"/>
  <circle cx="976.80" cy="337.50" r="2.5" fill="#2563eb"/>
  <circle cx="980.00" cy="345.83" r="2.5" fill="#2563eb"/>
</svg>
