<?xml version="1.0" encoding="UTF-8"?>
<svg xmlns="http://www.w3.org/2000/svg" width="1000" height="420" viewBox="0 0 1000 420">
  <rect width="100%" height="100%" fill="#ffffff"/>
  <text x="70" y="28" font-size="20" font-weight="600">개설 시점 기준 - 일별 신규 강의</text>
  <text x="70" y="402" font-size="12" fill="#555">강의 수</text>
  <line x1="70" y1="350.00" x2="980" y2="350.00" stroke="#e5e7eb" stroke-width="1"/>
  <text x="62" y="354.00" font-size="11" fill="#6b7280" text-anchor="end">0</text>
  <line x1="70" y1="290.00" x2="980" y2="290.00" stroke="#e5e7eb" stroke-width="1"/>
  <text x="62" y="294.00" font-size="11" fill="#6b7280" text-anchor="end">32</text>
  <line x1="70" y1="230.00" x2="980" y2="230.00" stroke="#e5e7eb" stroke-width="1"/>
  <text x="62" y="234.00" font-size="11" fill="#6b7280" text-anchor="end">65</text>
  <line x1="70" y1="170.00" x2="980" y2="170.00" stroke="#e5e7eb" stroke-width="1"/>
  <text x="62" y="174.00" font-size="11" fill="#6b7280" text-anchor="end">97</text>
  <line x1="70" y1="110.00" x2="980" y2="110.00" stroke="#e5e7eb" stroke-width="1"/>
  <text x="62" y="114.00" font-size="11" fill="#6b7280" text-anchor="end">130</text>
  <line x1="70" y1="50.00" x2="980" y2="50.00" stroke="#e5e7eb" stroke-width="1"/>
  <text x="62" y="54.00" font-size="11" fill="#6b7280" text-anchor="end">163</text>
  <line x1="70" y1="350" x2="980" y2="350" stroke="#111827" stroke-width="1.2"/>
  <line x1="70" y1="50" x2="70" y2="350" stroke="#111827" stroke-width="1.2"/>
  <line x1="70.00" y1="350" x2="70.00" y2="356" stroke="#9ca3af" stroke-width="1"/>
  <text x="70.00" y="372" font-size="10" fill="#6b7280" text-anchor="middle">2025-04-10</text>
  <line x1="145.29" y1="350" x2="145.29" y2="356" stroke="#9ca3af" stroke-width="1"/>
  <text x="145.29" y="372" font-size="10" fill="#6b7280" text-anchor="middle">2025-05-15</text>
  <line x1="220.58" y1="350" x2="220.58" y2="356" stroke="#9ca3af" stroke-width="1"/>
  <text x="220.58" y="372" font-size="10" fill="#6b7280" text-anchor="middle">2025-06-20</text>
  <line x1="295.86" y1="350" x2="295.86" y2="356" stroke="#9ca3af" stroke-width="1"/>
  <text x="295.86" y="372" font-size="10" fill="#6b7280" text-anchor="middle">2025-07-17</text>
  <line x1="371.15" y1="350" x2="371.15" y2="356" stroke="#9ca3af" stroke-width="1"/>
  <text x="371.15" y="372" font-size="10" fill="#6b7280" text-anchor="middle">2025-08-12</text>
  <line x1="446.44" y1="350" x2="446.44" y2="356" stroke="#9ca3af" stroke-width="1"/>
  <text x="446.44" y="372" font-size="10" fill="#6b7280" text-anchor="middle">2025-09-09</text>
  <line x1="521.73" y1="350" x2="521.73" y2="356" stroke="#9ca3af" stroke-width="1"/>
  <text x="521.73" y="372" font-size="10" fill="#6b7280" text-anchor="middle">2025-10-06</text>
  <line x1="597.01" y1="350" x2="597.01" y2="356" stroke="#9ca3af" stroke-width="1"/>
  <text x="597.01" y="372" font-size="10" fill="#6b7280" text-anchor="middle">2025-11-04</text>
  <line x1="672.30" y1="350" x2="672.30" y2="356" stroke="#9ca3af" stroke-width="1"/>
  <text x="672.30" y="372" font-size="10" fill="#6b7280" text-anchor="middle">2025-11-28</text>
  <line x1="747.59" y1="350" x2="747.59" y2="356" stroke="#9ca3af" stroke-width="1"/>
  <text x="747.59" y="372" font-size="10" fill="#6b7280" text-anchor="middle">2025-12-25</text>
  <line x1="822.88" y1="350" x2="822.88" y2="356" stroke="#9ca3af" stroke-width="1"/>
  <text x="822.88" y="372" font-size="10" fill="#6b7280" text-anchor="middle">2026-01-18</text>
  <line x1="898.17" y1="350" x2="898.17" y2="356" stroke="#9ca3af" stroke-width="1"/>
  <text x="898.17" y="372" font-size="10" fill="#6b7280" text-anchor="middle">2026-02-12</text>
  <line x1="973.45" y1="350" x2="973.45" y2="356" stroke="#9ca3af" stroke-width="1"/>
  <text x="973.45" y="372" font-size="10" fill="#6b7280" text-anchor="middle">2026-03-07</text>
  <line x1="980.00" y1="350" x2="980.00" y2="356" stroke="#9ca3af" stroke-width="1"/>
  <text x="980.00" y="372" font-size="10" fill="#6b7280" text-anchor="middle">2026-03-09</text>
  <polyline fill="none" stroke="#2563eb" stroke-width="2.5" points="70.00,346.32 73.27,322.39 76.55,338.96 79.82,316.87 83.09,337.12 86.37,338.96 89.64,335.28 92.91,324.23 96.19,338.96 99.46,338.96 102.73,342.64 106.01,309.51 109.28,338.96 112.55,338.96 115.83,287.42 119.10,324.23 122.37,309.51 125.65,344.48 128.92,338.96 132.19,338.96 135.47,322.39 138.74,346.32 142.01,342.64 145.29,335.28 148.56,338.96 151.83,316.87 155.11,346.32 158.38,335.28 161.65,327.91 164.93,315.03 168.20,318.71 171.47,333.44 174.75,307.67 178.02,331.60 181.29,316.87 184.57,50.00 187.84,294.79 191.12,327.91 194.39,298.47 197.66,329.75 200.94,338.96 204.21,318.71 207.48,327.91 210.76,269.02 214.03,322.39 217.30,327.91 220.58,316.87 223.85,346.32 227.12,324.23 230.40,335.28 233.67,337.12 236.94,327.91 240.22,338.96 243.49,324.23 246.76,316.87 250.04,320.55 253.31,326.07 256.58,294.79 259.86,342.64 263.13,346.32 266.40,298.47 269.68,346.32 272.95,309.51 276.22,298.47 279.50,337.12 282.77,335.28 286.04,327.91 289.32,342.64 292.59,346.32 295.86,338.96 299.14,338.96 302.41,338.96 305.68,313.19 308.96,335.28 312.23,294.79 315.50,338.96 318.78,342.64 322.05,331.60 325.32,305.83 328.60,316.87 331.87,324.23 335.14,320.55 338.42,305.83 341.69,346.32 344.96,320.55 348.24,289.26 351.51,331.60 354.78,342.64 358.06,335.28 361.33,338.96 364.60,338.96 367.88,335.28 371.15,331.60 374.42,302.15 377.70,324.23 380.97,342.64 384.24,335.28 387.52,346.32 390.79,331.60 394.06,331.60 397.34,331.60 400.61,338.96 403.88,335.28 407.16,335.28 410.43,342.64 413.71,335.28 416.98,342.64 420.25,324.23 423.53,294.79 426.80,324.23 430.07,346.32 433.35,313.19 436.62,346.32 439.89,346.32 443.17,335.28 446.44,340.80 449.71,346.32 452.99,329.75 456.26,335.28 459.53,346.32 462.81,333.44 466.08,342.64 469.35,331.60 472.63,331.60 475.90,346.32 479.17,335.28 482.45,324.23 485.72,335.28 488.99,335.28 492.27,346.32 495.54,331.60 498.81,346.32 502.09,338.96 505.36,342.64 508.63,287.42 511.91,327.91 515.18,327.91 518.45,346.32 521.73,335.28 525.00,342.64 528.27,302.15 531.55,342.64 534.82,322.39 538.09,327.91 541.37,316.87 544.64,342.64 547.91,298.47 551.19,298.47 554.46,331.60 557.73,346.32 561.01,270.86 564.28,337.12 567.55,346.32 570.83,335.28 574.10,337.12 577.37,309.51 580.65,338.96 583.92,342.64 587.19,338.96 590.47,346.32 593.74,335.28 597.01,342.64 600.29,346.32 603.56,338.96 606.83,331.60 610.11,342.64 613.38,340.80 616.65,298.47 619.93,320.55 623.20,335.28 626.47,313.19 629.75,333.44 633.02,335.28 636.29,335.28 639.57,309.51 642.84,316.87 646.12,324.23 649.39,302.15 652.66,338.96 655.94,342.64 659.21,315.03 662.48,302.15 665.76,280.06 669.03,305.83 672.30,331.60 675.58,346.32 678.85,335.28 682.12,298.47 685.40,296.63 688.67,322.39 691.94,302.15 695.22,335.28 698.49,342.64 701.76,327.91 705.04,331.60 708.31,338.96 711.58,324.23 714.86,338.96 718.13,342.64 721.40,342.64 724.68,342.64 727.95,346.32 731.22,333.44 734.50,329.75 737.77,327.91 741.04,331.60 744.32,313.19 747.59,346.32 750.86,327.91 754.14,342.64 757.41,300.31 760.68,322.39 763.96,335.28 767.23,327.91 770.50,324.23 773.78,338.96 777.05,342.64 780.32,338.96 783.60,324.23 786.87,346.32 790.14,342.64 793.42,324.23 796.69,326.07 799.96,333.44 803.24,333.44 806.51,329.75 809.78,303.99 813.06,331.60 816.33,331.60 819.60,346.32 822.88,329.75 826.15,324.23 829.42,331.60 832.70,326.07 835.97,320.55 839.24,324.23 842.52,329.75 845.79,338.96 849.06,316.87 852.34,318.71 855.61,311.35 858.88,342.64 862.16,338.96 865.43,333.44 868.71,342.64 871.98,276.38 875.25,302.15 878.53,324.23 881.80,324.23 885.07,338.96 888.35,342.64 891.62,316.87 894.89,329.75 898.17,302.15 901.44,335.28 904.71,320.55 907.99,335.28 911.26,346.32 914.53,335.28 917.81,326.07 921.08,311.35 924.35,318.71 927.63,333.44 930.90,340.80 934.17,324.23 937.45,315.03 940.72,298.47 943.99,307.67 947.27,315.03 950.54,324.23 953.81,335.28 957.09,322.39 960.36,320.55 963.63,337.12 966.91,331.60 970.18,302.15 973.45,342.64 976.73,338.96 980.00,346.32"/>
  <circle cx="70.00" cy="346.32" r="2.5" fill="#2563eb"/>
  <circle cx="73.27" cy="322.39" r="2.5" fill="#2563eb"/>
  <circle cx="76.55" cy="338.96" r="2.5" fill="#2563eb"/>
  <circle cx="79.82" cy="316.87" r="2.5" fill="#2563eb"/>
  <circle cx="83.09" cy="337.12" r="2.5" fill="#2563eb"/>
  <circle cx="86.37" cy="338.96" r="2.5" fill="#2563eb"/>
  <circle cx="89.64" cy="335.28" r="2.5" fill="#2563eb"/>
  <circle cx="92.91" cy="324.23" r="2.5" fill="#2563eb"/>
  <circle cx="96.19" cy="338.96" r="2.5" fill="#2563eb"/>
  <circle cx="99.46" cy="338.96" r="2.5" fill="#2563eb"/>
  <circle cx="102.73" cy="342.64" r="2.5" fill="#2563eb"/>
  <circle cx="106.01" cy="309.51" r="2.5" fill="#2563eb"/>
  <circle cx="109.28" cy="338.96" r="2.5" fill="#2563eb"/>
  <circle cx="112.55" cy="338.96" r="2.5" fill="#2563eb"/>
  <circle cx="115.83" cy="287.42" r="2.5" fill="#2563eb"/>
  <circle cx="119.10" cy="324.23" r="2.5" fill="#2563eb"/>
  <circle cx="122.37" cy="309.51" r="2.5" fill="#2563eb"/>
  <circle cx="125.65" cy="344.48" r="2.5" fill="#2563eb"/>
  <circle cx="128.92" cy="338.96" r="2.5" fill="#2563eb"/>
  <circle cx="132.19" cy="338.96" r="2.5" fill="#2563eb"/>
  <circle cx="135.47" cy="322.39" r="2.5" fill="#2563eb"/>
  <circle cx="138.74" cy="346.32" r="2.5" fill="#2563eb"/>
  <circle cx="142.01" cy="342.64" r="2.5" fill="#2563eb"/>
  <circle cx="145.29" cy="335.28" r="2.5" fill="#2563eb"/>
  <circle cx="148.56" cy="338.96" r="2.5" fill="#2563eb"/>
  <circle cx="151.83" cy="316.87" r="2.5" fill="#2563eb"/>
  <circle cx="155.11" cy="346.32" r="2.5" fill="#2563eb"/>
  <circle cx="158.38" cy="335.28" r="2.5" fill="#2563eb"/>
  <circle cx="161.65" cy="327.91" r="2.5" fill="#2563eb"/>
  <circle cx="164.93" cy="315.03" r="2.5" fill="#2563eb"/>
  <circle cx="168.20" cy="318.71" r="2.5" fill="#2563eb"/>
  <circle cx="171.47" cy="333.44" r="2.5" fill="#2563eb"/>
  <circle cx="174.75" cy="307.67" r="2.5" fill="#2563eb"/>
  <circle cx="178.02" cy="331.60" r="2.5" fill="#2563eb"/>
  <circle cx="181.29" cy="316.87" r="2.5" fill="#2563eb"/>
  <circle cx="184.57" cy="50.00" r="2.5" fill="#2563eb"/>
  <circle cx="187.84" cy="294.79" r="2.5" fill="#2563eb"/>
  <circle cx="191.12" cy="327.91" r="2.5" fill="#2563eb"/>
  <circle cx="194.39" cy="298.47" r="2.5" fill="#2563eb"/>
  <circle cx="197.66" cy="329.75" r="2.5" fill="#2563eb"/>
  <circle cx="200.94" cy="338.96" r="2.5" fill="#2563eb"/>
  <circle cx="204.21" cy="318.71" r="2.5" fill="#2563eb"/>
  <circle cx="207.48" cy="327.91" r="2.5" fill="#2563eb"/>
  <circle cx="210.76" cy="269.02" r="2.5" fill="#2563eb"/>
  <circle cx="214.03" cy="322.39" r="2.5" fill="#2563eb"/>
  <circle cx="217.30" cy="327.91" r="2.5" fill="#2563eb"/>
  <circle cx="220.58" cy="316.87" r="2.5" fill="#2563eb"/>
  <circle cx="223.85" cy="346.32" r="2.5" fill="#2563eb"/>
  <circle cx="227.12" cy="324.23" r="2.5" fill="#2563eb"/>
  <circle cx="230.40" cy="335.28" r="2.5" fill="#2563eb"/>
  <circle cx="233.67" cy="337.12" r="2.5" fill="#2563eb"/>
  <circle cx="236.94" cy="327.91" r="2.5" fill="#2563eb"/>
  <circle cx="240.22" cy="338.96" r="2.5" fill="#2563eb"/>
  <circle cx="243.49" cy="324.23" r="2.5" fill="#2563eb"/>
  <circle cx="246.76" cy="316.87" r="2.5" fill="#2563eb"/>
  <circle cx="250.04" cy="320.55" r="2.5" fill="#2563eb"/>
  <circle cx="253.31" cy="326.07" r="2.5" fill="#2563eb"/>
  <circle cx="256.58" cy="294.79" r="2.5" fill="#2563eb"/>
  <circle cx="259.86" cy="342.64" r="2.5" fill="#2563eb"/>
  <circle cx="263.13" cy="346.32" r="2.5" fill="#2563eb"/>
  <circle cx="266.40" cy="298.47" r="2.5" fill="#2563eb"/>
  <circle cx="269.68" cy="346.32" r="2.5" fill="#2563eb"/>
  <circle cx="272.95" cy="309.51" r="2.5" fill="#2563eb"/>
  <circle cx="276.22" cy="298.47" r="2.5" fill="#2563eb"/>
  <circle cx="279.50" cy="337.12" r="2.5" fill="#2563eb"/>
  <circle cx="282.77" cy="335.28" r="2.5" fill="#2563eb"/>
  <circle cx="286.04" cy="327.91" r="2.5" fill="#2563eb"/>
  <circle cx="289.32" cy="342.64" r="2.5" fill="#2563eb"/>
  <circle cx="292.59" cy="346.32" r="2.5" fill="#2563eb"/>
  <circle cx="295.86" cy="338.96" r="2.5" fill="#2563eb"/>
  <circle cx="299.14" cy="338.96" r="2.5" fill="#2563eb"/>
  <circle cx="302.41" cy="338.96" r="2.5" fill="#2563eb"/>
  <circle cx="305.68" cy="313.19" r="2.5" fill="#2563eb"/>
  <circle cx="308.96" cy="335.28" r="2.5" fill="#2563eb"/>
  <circle cx="312.23" cy="294.79" r="2.5" fill="#2563eb"/>
  <circle cx="315.50" cy="338.96" r="2.5" fill="#2563eb"/>
  <circle cx="318.78" cy="342.64" r="2.5" fill="#2563eb"/>
  <circle cx="322.05" cy="331.60" r="2.5" fill="#2563eb"/>
  <circle cx="325.32" cy="305.83" r="2.5" fill="#2563eb"/>
  <circle cx="328.60" cy="316.87" r="2.5" fill="#2563eb"/>
  <circle cx="331.87" cy="324.23" r="2.5" fill="#2563eb"/>
  <circle cx="335.14" cy="320.55" r="2.5" fill="#2563eb"/>
  <circle cx="338.42" cy="305.83" r="2.5" fill="#2563eb"/>
  <circle cx="341.69" cy="346.32" r="2.5" fill="#2563eb"/>
  <circle cx="344.96" cy="320.55" r="2.5" fill="#2563eb"/>
  <circle cx="348.24" cy="289.26" r="2.5" fill="#2563eb"/>
  <circle cx="351.51" cy="331.60" r="2.5" fill="#2563eb"/>
  <circle cx="354.78" cy="342.64" r="2.5" fill="#2563eb"/>
  <circle cx="358.06" cy="335.28" r="2.5" fill="#2563eb"/>
  <circle cx="361.33" cy="338.96" r="2.5" fill="#2563eb"/>
  <circle cx="364.60" cy="338.96" r="2.5" fill="#2563eb"/>
  <circle cx="367.88" cy="335.28" r="2.5" fill="#2563eb"/>
  <circle cx="371.15" cy="331.60" r="2.5" fill="#2563eb"/>
  <circle cx="374.42" cy="302.15" r="2.5" fill="#2563eb"/>
  <circle cx="377.70" cy="324.23" r="2.5" fill="#2563eb"/>
  <circle cx="380.97" cy="342.64" r="2.5" fill="#2563eb"/>
  <circle cx="384.24" cy="335.28" r="2.5" fill="#2563eb"/>
  <circle cx="387.52" cy="346.32" r="2.5" fill="#2563eb"/>
  <circle cx="390.79" cy="331.60" r="2.5" fill="#2563eb"/>
  <circle cx="394.06" cy="331.60" r="2.5" fill="#2563eb"/>
  <circle cx="397.34" cy="331.60" r="2.5" fill="#2563eb"/>
  <circle cx="400.61" cy="338.96" r="2.5" fill="#2563eb"/>
  <circle cx="403.88" cy="335.28" r="2.5" fill="#2563eb"/>
  <circle cx="407.16" cy="335.28" r="2.5" fill="#2563eb"/>
  <circle cx="410.43" cy="342.64" r="2.5" fill="#2563eb"/>
  <circle cx="413.71" cy="335.28" r="2.5" fill="#2563eb"/>
  <circle cx="416.98" cy="342.64" r="2.5" fill="#2563eb"/>
  <circle cx="420.25" cy="324.23" r="2.5" fill="#2563eb"/>
  <circle cx="423.53" cy="294.79" r="2.5" fill="#2563eb"/>
  <circle cx="426.80" cy="324.23" r="2.5" fill="#2563eb"/>
  <circle cx="430.07" cy="346.32" r="2.5" fill="#2563eb"/>
  <circle cx="433.35" cy="313.19" r="2.5" fill="#2563eb"/>
  <circle cx="436.62" cy="346.32" r="2.5" fill="#2563eb"/>
  <circle cx="439.89" cy="346.32" r="2.5" fill="#2563eb"/>
  <circle cx="443.17" cy="335.28" r="2.5" fill="#2563eb"/>
  <circle cx="446.44" cy="340.80" r="2.5" fill="#2563eb"/>
  <circle cx="449.71" cy="346.32" r="2.5" fill="#2563eb"/>
  <circle cx="452.99" cy="329.75" r="2.5" fill="#2563eb"/>
  <circle cx="456.26" cy="335.28" r="2.5" fill="#2563eb"/>
  <circle cx="459.53" cy="346.32" r="2.5" fill="#2563eb"/>
  <circle cx="462.81" cy="333.44" r="2.5" fill="#2563eb"/>
  <circle cx="466.08" cy="342.64" r="2.5" fill="#2563eb"/>
  <circle cx="469.35" cy="331.60" r="2.5" fill="#2563eb"/>
  <circle cx="472.63" cy="331.60" r="2.5" fill="#2563eb"/>
  <circle cx="475.90" cy="346.32" r="2.5" fill="#2563eb"/>
  <circle cx="479.17" cy="335.28" r="2.5" fill="#2563eb"/>
  <circle cx="482.45" cy="324.23" r="2.5" fill="#2563eb"/>
  <circle cx="485.72" cy="335.28" r="2.5" fill="#2563eb"/>
  <circle cx="488.99" cy="335.28" r="2.5" fill="#2563eb"/>
  <circle cx="492.27" cy="346.32" r="2.5" fill="#2563eb"/>
  <circle cx="495.54" cy="331.60" r="2.5" fill="#2563eb"/>
  <circle cx="498.81" cy="346.32" r="2.5" fill="#2563eb"/>
  <circle cx="502.09" cy="338.96" r="2.5" fill="#2563eb"/>
  <circle cx="505.36" cy="342.64" r="2.5" fill="#2563eb"/>
  <circle cx="508.63" cy="287.42" r="2.5" fill="#2563eb"/>
  <circle cx="511.91" cy="327.91" r="2.5" fill="#2563eb"/>
  <circle cx="515.18" cy="327.91" r="2.5" fill="#2563eb"/>
  <circle cx="518.45" cy="346.32" r="2.5" fill="#2563eb"/>
  <circle cx="521.73" cy="335.28" r="2.5" fill="#2563eb"/>
  <circle cx="525.00" cy="342.64" r="2.5" fill="#2563eb"/>
  <circle cx="528.27" cy="302.15" r="2.5" fill="#2563eb"/>
  <circle cx="531.55" cy="342.64" r="2.5" fill="#2563eb"/>
  <circle cx="534.82" cy="322.39" r="2.5" fill="#2563eb"/>
  <circle cx="538.09" cy="327.91" r="2.5" fill="#2563eb"/>
  <circle cx="541.37" cy="316.87" r="2.5" fill="#2563eb"/>
  <circle cx="544.64" cy="342.64" r="2.5" fill="#2563eb"/>
  <circle cx="547.91" cy="298.47" r="2.5" fill="#2563eb"/>
  <circle cx="551.19" cy="298.47" r="2.5" fill="#2563eb"/>
  <circle cx="554.46" cy="331.60" r="2.5" fill="#2563eb"/>
  <circle cx="557.73" cy="346.32" r="2.5" fill="#2563eb"/>
  <circle cx="561.01" cy="270.86" r="2.5" fill="#2563eb"/>
  <circle cx="564.28" cy="337.12" r="2.5" fill="#2563eb"/>
  <circle cx="567.55" cy="346.32" r="2.5" fill="#2563eb"/>
  <circle cx="570.83" cy="335.28" r="2.5" fill="#2563eb"/>
  <circle cx="574.10" cy="337.12" r="2.5" fill="#2563eb"/>
  <circle cx="577.37" cy="309.51" r="2.5" fill="#2563eb"/>
  <circle cx="580.65" cy="338.96" r="2.5" fill="#2563eb"/>
  <circle cx="583.92" cy="342.64" r="2.5" fill="#2563eb"/>
  <circle cx="587.19" cy="338.96" r="2.5" fill="#2563eb"/>
  <circle cx="590.47" cy="346.32" r="2.5" fill="#2563eb"/>
  <circle cx="593.74" cy="335.28" r="2.5" fill="#2563eb"/>
  <circle cx="597.01" cy="342.64" r="2.5" fill="#2563eb"/>
  <circle cx="600.29" cy="346.32" r="2.5" fill="#2563eb"/>
  <circle cx="603.56" cy="338.96" r="2.5" fill="#2563eb"/>
  <circle cx="606.83" cy="331.60" r="2.5" fill="#2563eb"/>
  <circle cx="610.11" cy="342.64" r="2.5" fill="#2563eb"/>
  <circle cx="613.38" cy="340.80" r="2.5" fill="#2563eb"/>
  <circle cx="616.65" cy="298.47" r="2.5" fill="#2563eb"/>
  <circle cx="619.93" cy="320.55" r="2.5" fill="#2563eb"/>
  <circle cx="623.20" cy="335.28" r="2.5" fill="#2563eb"/>
  <circle cx="626.47" cy="313.19" r="2.5" fill="#2563eb"/>
  <circle cx="629.75" cy="333.44" r="2.5" fill="#2563eb"/>
  <circle cx="633.02" cy="335.28" r="2.5" fill="#2563eb"/>
  <circle cx="636.29" cy="335.28" r="2.5" fill="#2563eb"/>
  <circle cx="639.57" cy="309.51" r="2.5" fill="#2563eb"/>
  <circle cx="642.84" cy="316.87" r="2.5" fill="#2563eb"/>
  <circle cx="646.12" cy="324.23" r="2.5" fill="#2563eb"/>
  <circle cx="649.39" cy="302.15" r="2.5" fill="#2563eb"/>
  <circle cx="652.66" cy="338.96" r="2.5" fill="#2563eb"/>
  <circle cx="655.94" cy="342.64" r="2.5" fill="#2563eb"/>
  <circle cx="659.21" cy="315.03" r="2.5" fill="#2563eb"/>
  <circle cx="662.48" cy="302.15" r="2.5" fill="#2563eb"/>
  <circle cx="665.76" cy="280.06" r="2.5" fill="#2563eb"/>
  <circle cx="669.03" cy="305.83" r="2.5" fill="#2563eb"/>
  <circle cx="672.30" cy="331.60" r="2.5" fill="#2563eb"/>
  <circle cx="675.58" cy="346.32" r="2.5" fill="#2563eb"/>
  <circle cx="678.85" cy="335.28" r="2.5" fill="#2563eb"/>
  <circle cx="682.12" cy="298.47" r="2.5" fill="#2563eb"/>
  <circle cx="685.40" cy="296.63" r="2.5" fill="#2563eb"/>
  <circle cx="688.67" cy="322.39" r="2.5" fill="#2563eb"/>
  <circle cx="691.94" cy="302.15" r="2.5" fill="#2563eb"/>
  <circle cx="695.22" cy="335.28" r="2.5" fill="#2563eb"/>
  <circle cx="698.49" cy="342.64" r="2.5" fill="#2563eb"/>
  <circle cx="701.76" cy="327.91" r="2.5" fill="#2563eb"/>
  <circle cx="705.04" cy="331.60" r="2.5" fill="#2563eb"/>
  <circle cx="708.31" cy="338.96" r="2.5" fill="#2563eb"/>
  <circle cx="711.58" cy="324.23" r="2.5" fill="#2563eb"/>
  <circle cx="714.86" cy="338.96" r="2.5" fill="#2563eb"/>
  <circle cx="718.13" cy="342.64" r="2.5" fill="#2563eb"/>
  <circle cx="721.40" cy="342.64" r="2.5" fill="#2563eb"/>
  <circle cx="724.68" cy="342.64" r="2.5" fill="#2563eb"/>
  <circle cx="727.95" cy="346.32" r="2.5" fill="#2563eb"/>
  <circle cx="731.22" cy="333.44" r="2.5" fill="#2563eb"/>
  <circle cx="734.50" cy="329.75" r="2.5" fill="#2563eb"/>
  <circle cx="737.77" cy="327.91" r="2.5" fill="#2563eb"/>
  <circle cx="741.04" cy="331.60" r="2.5" fill="#2563eb"/>
  <circle cx="744.32" cy="313.19" r="2.5" fill="#2563eb"/>
  <circle cx="747.59" cy="346.32" r="2.5" fill="#2563eb"/>
  <circle cx="750.86" cy="327.91" r="2.5" fill="#2563eb"/>
  <circle cx="754.14" cy="342.64" r="2.5" fill="#2563eb"/>
  <circle cx="757.41" cy="300.31" r="2.5" fill="#2563eb"/>
  <circle cx="760.68" cy="322.39" r="2.5" fill="#2563eb"/>
  <circle cx="763.96" cy="335.28" r="2.5" fill="#2563eb"/>
  <circle cx="767.23" cy="327.91" r="2.5" fill="#2563eb"/>
  <circle cx="770.50" cy="324.23" r="2.5" fill="#2563eb"/>
  <circle cx="773.78" cy="338.96" r="2.5" fill="#2563eb"/>
  <circle cx="777.05" cy="342.64" r="2.5" fill="#2563eb"/>
  <circle cx="780.32" cy="338.96" r="2.5" fill="#2563eb"/>
  <circle cx="783.60" cy="324.23" r="2.5" fill="#2563eb"/>
  <circle cx="786.87" cy="346.32" r="2.5" fill="#2563eb"/>
  <circle cx="790.14" cy="342.64" r="2.5" fill="#2563eb"/>
  <circle cx="793.42" cy="324.23" r="2.5" fill="#2563eb"/>
  <circle cx="796.69" cy="326.07" r="2.5" fill="#2563eb"/>
  <circle cx="799.96" cy="333.44" r="2.5" fill="#2563eb"/>
  <circle cx="803.24" cy="333.44" r="2.5" fill="#2563eb"/>
  <circle cx="806.51" cy="329.75" r="2.5" fill="#2563eb"/>
  <circle cx="809.78" cy="303.99" r="2.5" fill="#2563eb"/>
  <circle cx="813.06" cy="331.60" r="2.5" fill="#2563eb"/>
  <circle cx="816.33" cy="331.60" r="2.5" fill="#2563eb"/>
  <circle cx="819.60" cy="346.32" r="2.5" fill="#2563eb"/>
  <circle cx="822.88" cy="329.75" r="2.5" fill="#2563eb"/>
  <circle cx="826.15" cy="324.23" r="2.5" fill="#2563eb"/>
  <circle cx="829.42" cy="331.60" r="2.5" fill="#2563eb"/>
  <circle cx="832.70" cy="326.07" r="2.5" fill="#2563eb"/>
  <circle cx="835.97" cy="320.55" r="2.5" fill="#2563eb"/>
  <circle cx="839.24" cy="324.23" r="2.5" fill="#2563eb"/>
  <circle cx="842.52" cy="329.75" r="2.5" fill="#2563eb"/>
  <circle cx="845.79" cy="338.96" r="2.5" fill="#2563eb"/>
  <circle cx="849.06" cy="316.87" r="2.5" fill="#2563eb"/>
  <circle cx="852.34" cy="318.71" r="2.5" fill="#2563eb"/>
  <circle cx="855.61" cy="311.35" r="2.5" fill="#2563eb"/>
  <circle cx="858.88" cy="342.64" r="2.5" fill="#2563eb"/>
  <circle cx="862.16" cy="338.96" r="2.5" fill="#2563eb"/>
  <circle cx="865.43" cy="333.44" r="2.5" fill="#2563eb"/>
  <circle cx="868.71" cy="342.64" r="2.5" fill="#2563eb"/>
  <circle cx="871.98" cy="276.38" r="2.5" fill="#2563eb"/>
  <circle cx="875.25" cy="302.15" r="2.5" fill="#2563eb"/>
  <circle cx="878.53" cy="324.23" r="2.5" fill="#2563eb"/>
  <circle cx="881.80" cy="324.23" r="2.5" fill="#2563eb"/>
  <circle cx="885.07" cy="338.96" r="2.5" fill="#2563eb"/>
  <circle cx="888.35" cy="342.64" r="2.5" fill="#2563eb"/>
  <circle cx="891.62" cy="316.87" r="2.5" fill="#2563eb"/>
  <circle cx="894.89" cy="329.75" r="2.5" fill="#2563eb"/>
  <circle cx="898.17" cy="302.15" r="2.5" fill="#2563eb"/>
  <circle cx="901.44" cy="335.28" r="2.5" fill="#2563eb"/>
  <circle cx="904.71" cy="320.55" r="2.5" fill="#2563eb"/>
  <circle cx="907.99" cy="335.28" r="2.5" fill="#2563eb"/>
  <circle cx="911.26" cy="346.32" r="2.5" fill="#2563eb"/>
  <circle cx="914.53" cy="335.28" r="2.5" fill="#2563eb"/>
  <circle cx="917.81" cy="326.07" r="2.5" fill="#2563eb"/>
  <circle cx="921.08" cy="311.35" r="2.5" fill="#2563eb"/>
  <circle cx="924.35" cy="318.71" r="2.5" fill="#2563eb"/>
  <circle cx="927.63" cy="333.44" r="2.5" fill="#2563eb"/>
  <circle cx="930.90" cy="340.80" r="2.5" fill="#2563eb"/>
  <circle cx="934.17" cy="324.23" r="2.5" fill="#2563eb"/>
  <circle cx="937.45" cy="315.03" r="2.5" fill="#2563eb"/>
  <circle cx="940.72" cy="298.47" r="2.5" fill="#2563eb"/>
  <circle cx="943.99" cy="307.67" r="2.5" fill="#2563eb"/>
  <circle cx="947.27" cy="315.03" r="2.5" fill="#2563eb"/>
  <circle cx="950.54" cy="324.23" r="2.5" fill="#2563eb"/>
  <circle cx="953.81" cy="335.28" r="2.5" fill="#2563eb"/>
  <circle cx="957.09" cy="322.39" r="2.5" fill="#2563eb"/>
  <circle cx="960.36" cy="320.55" r="2.5" fill="#2563eb"/>
  <circle cx="963.63" cy="337.12" r="2.5" fill="#2563eb"/>
  <circle cx="966.91" cy="331.60" r="2.5" fill="#2563eb"/>
  <circle cx="970.18" cy="302.15" r="2.5" fill="#2563eb"/>
  <circle cx="973.45" cy="342.64" r="2.5" fill="#2563eb"/>
  <circle cx="976.73" cy="338.96" r="2.5" fill="#2563eb"/>
  <circle cx="980.00" cy="346.32" r="2.5" fill="#2563eb"/>
</svg>
