<?xml version="1.0" encoding="UTF-8"?>
<svg xmlns="http://www.w3.org/2000/svg" width="1000" height="420" viewBox="0 0 1000 420">
  <rect width="100%" height="100%" fill="#ffffff"/>
  <text x="70" y="28" font-size="20" font-weight="600">개설 시점 기준 - 일별 신규 강의</text>
  <text x="70" y="402" font-size="12" fill="#555">강의 수</text>
  <line x1="70" y1="350.00" x2="980" y2="350.00" stroke="#e5e7eb" stroke-width="1"/>
  <text x="62" y="354.00" font-size="11" fill="#6b7280" text-anchor="end">0</text>
  <line x1="70" y1="290.00" x2="980" y2="290.00" stroke="#e5e7eb" stroke-width="1"/>
  <text x="62" y="294.00" font-size="11" fill="#6b7280" text-anchor="end">29</text>
  <line x1="70" y1="230.00" x2="980" y2="230.00" stroke="#e5e7eb" stroke-width="1"/>
  <text x="62" y="234.00" font-size="11" fill="#6b7280" text-anchor="end">59</text>
  <line x1="70" y1="170.00" x2="980" y2="170.00" stroke="#e5e7eb" stroke-width="1"/>
  <text x="62" y="174.00" font-size="11" fill="#6b7280" text-anchor="end">89</text>
  <line x1="70" y1="110.00" x2="980" y2="110.00" stroke="#e5e7eb" stroke-width="1"/>
  <text x="62" y="114.00" font-size="11" fill="#6b7280" text-anchor="end">119</text>
  <line x1="70" y1="50.00" x2="980" y2="50.00" stroke="#e5e7eb" stroke-width="1"/>
  <text x="62" y="54.00" font-size="11" fill="#6b7280" text-anchor="end">149</text>
  <line x1="70" y1="350" x2="980" y2="350" stroke="#111827" stroke-width="1.2"/>
  <line x1="70" y1="50" x2="70" y2="350" stroke="#111827" stroke-width="1.2"/>
  <line x1="70.00" y1="350" x2="70.00" y2="356" stroke="#9ca3af" stroke-width="1"/>
  <text x="70.00" y="372" font-size="10" fill="#6b7280" text-anchor="middle">2025-04-04</text>
  <line x1="144.22" y1="350" x2="144.22" y2="356" stroke="#9ca3af" stroke-width="1"/>
  <text x="144.22" y="372" font-size="10" fill="#6b7280" text-anchor="middle">2025-05-11</text>
  <line x1="218.44" y1="350" x2="218.44" y2="356" stroke="#9ca3af" stroke-width="1"/>
  <text x="218.44" y="372" font-size="10" fill="#6b7280" text-anchor="middle">2025-06-13</text>
  <line x1="292.66" y1="350" x2="292.66" y2="356" stroke="#9ca3af" stroke-width="1"/>
  <text x="292.66" y="372" font-size="10" fill="#6b7280" text-anchor="middle">2025-07-13</text>
  <line x1="366.88" y1="350" x2="366.88" y2="356" stroke="#9ca3af" stroke-width="1"/>
  <text x="366.88" y="372" font-size="10" fill="#6b7280" text-anchor="middle">2025-08-07</text>
  <line x1="441.10" y1="350" x2="441.10" y2="356" stroke="#9ca3af" stroke-width="1"/>
  <text x="441.10" y="372" font-size="10" fill="#6b7280" text-anchor="middle">2025-09-05</text>
  <line x1="515.32" y1="350" x2="515.32" y2="356" stroke="#9ca3af" stroke-width="1"/>
  <text x="515.32" y="372" font-size="10" fill="#6b7280" text-anchor="middle">2025-10-01</text>
  <line x1="589.54" y1="350" x2="589.54" y2="356" stroke="#9ca3af" stroke-width="1"/>
  <text x="589.54" y="372" font-size="10" fill="#6b7280" text-anchor="middle">2025-10-31</text>
  <line x1="663.76" y1="350" x2="663.76" y2="356" stroke="#9ca3af" stroke-width="1"/>
  <text x="663.76" y="372" font-size="10" fill="#6b7280" text-anchor="middle">2025-11-24</text>
  <line x1="737.98" y1="350" x2="737.98" y2="356" stroke="#9ca3af" stroke-width="1"/>
  <text x="737.98" y="372" font-size="10" fill="#6b7280" text-anchor="middle">2025-12-21</text>
  <line x1="812.20" y1="350" x2="812.20" y2="356" stroke="#9ca3af" stroke-width="1"/>
  <text x="812.20" y="372" font-size="10" fill="#6b7280" text-anchor="middle">2026-01-14</text>
  <line x1="886.42" y1="350" x2="886.42" y2="356" stroke="#9ca3af" stroke-width="1"/>
  <text x="886.42" y="372" font-size="10" fill="#6b7280" text-anchor="middle">2026-02-06</text>
  <line x1="960.64" y1="350" x2="960.64" y2="356" stroke="#9ca3af" stroke-width="1"/>
  <text x="960.64" y="372" font-size="10" fill="#6b7280" text-anchor="middle">2026-03-03</text>
  <line x1="980.00" y1="350" x2="980.00" y2="356" stroke="#9ca3af" stroke-width="1"/>
  <text x="980.00" y="372" font-size="10" fill="#6b7280" text-anchor="middle">2026-03-09</text>
  <polyline fill="none" stroke="#2563eb" stroke-width="2.5" points="70.00,343.96 73.23,327.85 76.45,309.73 79.68,329.87 82.91,345.97 86.13,325.84 89.36,341.95 92.59,321.81 95.82,335.91 99.04,339.93 102.27,341.95 105.50,329.87 108.72,337.92 111.95,337.92 115.18,343.96 118.40,313.76 121.63,341.95 124.86,341.95 128.09,281.54 131.31,329.87 134.54,309.73 137.77,343.96 140.99,337.92 144.22,337.92 147.45,325.84 150.67,345.97 153.90,345.97 157.13,341.95 160.35,341.95 163.58,313.76 166.81,345.97 170.04,337.92 173.26,329.87 176.49,321.81 179.72,323.83 182.94,333.89 186.17,309.73 189.40,333.89 192.62,317.79 195.85,50.00 199.08,297.65 202.30,325.84 205.53,301.68 208.76,327.85 211.99,337.92 215.21,323.83 218.44,325.84 221.67,275.50 224.89,319.80 228.12,325.84 231.35,325.84 234.57,345.97 237.80,321.81 241.03,333.89 244.26,337.92 247.48,325.84 250.71,337.92 253.94,329.87 257.16,321.81 260.39,317.79 263.62,323.83 266.84,293.62 270.07,341.95 273.30,345.97 276.52,301.68 279.75,345.97 282.98,311.74 286.21,305.70 289.43,335.91 292.66,333.89 295.89,325.84 299.11,341.95 302.34,345.97 305.57,341.95 308.79,337.92 312.02,337.92 315.25,317.79 318.48,333.89 321.70,297.65 324.93,341.95 328.16,341.95 331.38,333.89 334.61,309.73 337.84,321.81 341.06,329.87 344.29,325.84 347.52,311.74 350.74,345.97 353.97,317.79 357.20,291.61 360.43,335.91 363.65,345.97 366.88,333.89 370.11,337.92 373.33,341.95 376.56,337.92 379.79,333.89 383.01,301.68 386.24,325.84 389.47,341.95 392.70,337.92 395.92,345.97 399.15,333.89 402.38,329.87 405.60,329.87 408.83,337.92 412.06,333.89 415.28,333.89 418.51,341.95 421.74,337.92 424.96,341.95 428.19,325.84 431.42,299.66 434.65,329.87 437.87,345.97 441.10,313.76 444.33,345.97 447.55,345.97 450.78,333.89 454.01,339.93 457.23,345.97 460.46,331.88 463.69,337.92 466.91,345.97 470.14,331.88 473.37,341.95 476.60,333.89 479.82,333.89 483.05,345.97 486.28,337.92 489.50,329.87 492.73,333.89 495.96,333.89 499.18,345.97 502.41,337.92 505.64,345.97 508.87,337.92 512.09,341.95 515.32,293.62 518.55,329.87 521.77,325.84 525.00,345.97 528.23,337.92 531.45,341.95 534.68,297.65 537.91,341.95 541.13,323.83 544.36,329.87 547.59,317.79 550.82,343.96 554.04,301.68 557.27,297.65 560.50,329.87 563.72,345.97 566.95,263.42 570.18,339.93 573.40,345.97 576.63,333.89 579.86,337.92 583.09,321.81 586.31,341.95 589.54,341.95 592.77,337.92 595.99,345.97 599.22,337.92 602.45,341.95 605.67,345.97 608.90,337.92 612.13,333.89 615.35,341.95 618.58,339.93 621.81,305.70 625.04,317.79 628.26,333.89 631.49,309.73 634.72,331.88 637.94,333.89 641.17,333.89 644.40,305.70 647.62,319.80 650.85,321.81 654.08,307.72 657.30,337.92 660.53,341.95 663.76,311.74 666.99,305.70 670.21,275.50 673.44,305.70 676.67,329.87 679.89,345.97 683.12,333.89 686.35,301.68 689.57,295.64 692.80,319.80 696.03,299.66 699.26,333.89 702.48,343.96 705.71,329.87 708.94,329.87 712.16,341.95 715.39,321.81 718.62,337.92 721.84,341.95 725.07,341.95 728.30,341.95 731.52,345.97 734.75,331.88 737.98,327.85 741.21,333.89 744.43,329.87 747.66,313.76 750.89,345.97 754.11,325.84 757.34,341.95 760.57,295.64 763.79,321.81 767.02,335.91 770.25,325.84 773.48,323.83 776.70,341.95 779.93,341.95 783.16,337.92 786.38,327.85 789.61,345.97 792.84,341.95 796.06,323.83 799.29,329.87 802.52,337.92 805.74,337.92 808.97,331.88 812.20,315.77 815.43,331.88 818.65,335.91 821.88,345.97 825.11,329.87 828.33,327.85 831.56,333.89 834.79,323.83 838.01,321.81 841.24,325.84 844.47,331.88 847.70,341.95 850.92,317.79 854.15,325.84 857.38,313.76 860.60,341.95 863.83,341.95 867.06,333.89 870.28,341.95 873.51,279.53 876.74,305.70 879.96,327.85 883.19,329.87 886.42,337.92 889.65,341.95 892.87,323.83 896.10,329.87 899.33,309.73 902.55,337.92 905.78,323.83 909.01,337.92 912.23,345.97 915.46,333.89 918.69,327.85 921.91,313.76 925.14,325.84 928.37,333.89 931.60,341.95 934.82,329.87 938.05,313.76 941.28,301.68 944.50,309.73 947.73,323.83 950.96,325.84 954.18,333.89 957.41,323.83 960.64,317.79 963.87,335.91 967.09,329.87 970.32,301.68 973.55,341.95 976.77,337.92 980.00,345.97"/>
  <circle cx="70.00" cy="343.96" r="2.5" fill="#2563eb"/>
  <circle cx="73.23" cy="327.85" r="2.5" fill="#2563eb"/>
  <circle cx="76.45" cy="309.73" r="2.5" fill="#2563eb"/>
  <circle cx="79.68" cy="329.87" r="2.5" fill="#2563eb"/>
  <circle cx="82.91" cy="345.97" r="2.5" fill="#2563eb"/>
  <circle cx="86.13" cy="325.84" r="2.5" fill="#2563eb"/>
  <circle cx="89.36" cy="341.95" r="2.5" fill="#2563eb"/>
  <circle cx="92.59" cy="321.81" r="2.5" fill="#2563eb"/>
  <circle cx="95.82" cy="335.91" r="2.5" fill="#2563eb"/>
  <circle cx="99.04" cy="339.93" r="2.5" fill="#2563eb"/>
  <circle cx="102.27" cy="341.95" r="2.5" fill="#2563eb"/>
  <circle cx="105.50" cy="329.87" r="2.5" fill="#2563eb"/>
  <circle cx="108.72" cy="337.92" r="2.5" fill="#2563eb"/>
  <circle cx="111.95" cy="337.92" r="2.5" fill="#2563eb"/>
  <circle cx="115.18" cy="343.96" r="2.5" fill="#2563eb"/>
  <circle cx="118.40" cy="313.76" r="2.5" fill="#2563eb"/>
  <circle cx="121.63" cy="341.95" r="2.5" fill="#2563eb"/>
  <circle cx="124.86" cy="341.95" r="2.5" fill="#2563eb"/>
  <circle cx="128.09" cy="281.54" r="2.5" fill="#2563eb"/>
  <circle cx="131.31" cy="329.87" r="2.5" fill="#2563eb"/>
  <circle cx="134.54" cy="309.73" r="2.5" fill="#2563eb"/>
  <circle cx="137.77" cy="343.96" r="2.5" fill="#2563eb"/>
  <circle cx="140.99" cy="337.92" r="2.5" fill="#2563eb"/>
  <circle cx="144.22" cy="337.92" r="2.5" fill="#2563eb"/>
  <circle cx="147.45" cy="325.84" r="2.5" fill="#2563eb"/>
  <circle cx="150.67" cy="345.97" r="2.5" fill="#2563eb"/>
  <circle cx="153.90" cy="345.97" r="2.5" fill="#2563eb"/>
  <circle cx="157.13" cy="341.95" r="2.5" fill="#2563eb"/>
  <circle cx="160.35" cy="341.95" r="2.5" fill="#2563eb"/>
  <circle cx="163.58" cy="313.76" r="2.5" fill="#2563eb"/>
  <circle cx="166.81" cy="345.97" r="2.5" fill="#2563eb"/>
  <circle cx="170.04" cy="337.92" r="2.5" fill="#2563eb"/>
  <circle cx="173.26" cy="329.87" r="2.5" fill="#2563eb"/>
  <circle cx="176.49" cy="321.81" r="2.5" fill="#2563eb"/>
  <circle cx="179.72" cy="323.83" r="2.5" fill="#2563eb"/>
  <circle cx="182.94" cy="333.89" r="2.5" fill="#2563eb"/>
  <circle cx="186.17" cy="309.73" r="2.5" fill="#2563eb"/>
  <circle cx="189.40" cy="333.89" r="2.5" fill="#2563eb"/>
  <circle cx="192.62" cy="317.79" r="2.5" fill="#2563eb"/>
  <circle cx="195.85" cy="50.00" r="2.5" fill="#2563eb"/>
  <circle cx="199.08" cy="297.65" r="2.5" fill="#2563eb"/>
  <circle cx="202.30" cy="325.84" r="2.5" fill="#2563eb"/>
  <circle cx="205.53" cy="301.68" r="2.5" fill="#2563eb"/>
  <circle cx="208.76" cy="327.85" r="2.5" fill="#2563eb"/>
  <circle cx="211.99" cy="337.92" r="2.5" fill="#2563eb"/>
  <circle cx="215.21" cy="323.83" r="2.5" fill="#2563eb"/>
  <circle cx="218.44" cy="325.84" r="2.5" fill="#2563eb"/>
  <circle cx="221.67" cy="275.50" r="2.5" fill="#2563eb"/>
  <circle cx="224.89" cy="319.80" r="2.5" fill="#2563eb"/>
  <circle cx="228.12" cy="325.84" r="2.5" fill="#2563eb"/>
  <circle cx="231.35" cy="325.84" r="2.5" fill="#2563eb"/>
  <circle cx="234.57" cy="345.97" r="2.5" fill="#2563eb"/>
  <circle cx="237.80" cy="321.81" r="2.5" fill="#2563eb"/>
  <circle cx="241.03" cy="333.89" r="2.5" fill="#2563eb"/>
  <circle cx="244.26" cy="337.92" r="2.5" fill="#2563eb"/>
  <circle cx="247.48" cy="325.84" r="2.5" fill="#2563eb"/>
  <circle cx="250.71" cy="337.92" r="2.5" fill="#2563eb"/>
  <circle cx="253.94" cy="329.87" r="2.5" fill="#2563eb"/>
  <circle cx="257.16" cy="321.81" r="2.5" fill="#2563eb"/>
  <circle cx="260.39" cy="317.79" r="2.5" fill="#2563eb"/>
  <circle cx="263.62" cy="323.83" r="2.5" fill="#2563eb"/>
  <circle cx="266.84" cy="293.62" r="2.5" fill="#2563eb"/>
  <circle cx="270.07" cy="341.95" r="2.5" fill="#2563eb"/>
  <circle cx="273.30" cy="345.97" r="2.5" fill="#2563eb"/>
  <circle cx="276.52" cy="301.68" r="2.5" fill="#2563eb"/>
  <circle cx="279.75" cy="345.97" r="2.5" fill="#2563eb"/>
  <circle cx="282.98" cy="311.74" r="2.5" fill="#2563eb"/>
  <circle cx="286.21" cy="305.70" r="2.5" fill="#2563eb"/>
  <circle cx="289.43" cy="335.91" r="2.5" fill="#2563eb"/>
  <circle cx="292.66" cy="333.89" r="2.5" fill="#2563eb"/>
  <circle cx="295.89" cy="325.84" r="2.5" fill="#2563eb"/>
  <circle cx="299.11" cy="341.95" r="2.5" fill="#2563eb"/>
  <circle cx="302.34" cy="345.97" r="2.5" fill="#2563eb"/>
  <circle cx="305.57" cy="341.95" r="2.5" fill="#2563eb"/>
  <circle cx="308.79" cy="337.92" r="2.5" fill="#2563eb"/>
  <circle cx="312.02" cy="337.92" r="2.5" fill="#2563eb"/>
  <circle cx="315.25" cy="317.79" r="2.5" fill="#2563eb"/>
  <circle cx="318.48" cy="333.89" r="2.5" fill="#2563eb"/>
  <circle cx="321.70" cy="297.65" r="2.5" fill="#2563eb"/>
  <circle cx="324.93" cy="341.95" r="2.5" fill="#2563eb"/>
  <circle cx="328.16" cy="341.95" r="2.5" fill="#2563eb"/>
  <circle cx="331.38" cy="333.89" r="2.5" fill="#2563eb"/>
  <circle cx="334.61" cy="309.73" r="2.5" fill="#2563eb"/>
  <circle cx="337.84" cy="321.81" r="2.5" fill="#2563eb"/>
  <circle cx="341.06" cy="329.87" r="2.5" fill="#2563eb"/>
  <circle cx="344.29" cy="325.84" r="2.5" fill="#2563eb"/>
  <circle cx="347.52" cy="311.74" r="2.5" fill="#2563eb"/>
  <circle cx="350.74" cy="345.97" r="2.5" fill="#2563eb"/>
  <circle cx="353.97" cy="317.79" r="2.5" fill="#2563eb"/>
  <circle cx="357.20" cy="291.61" r="2.5" fill="#2563eb"/>
  <circle cx="360.43" cy="335.91" r="2.5" fill="#2563eb"/>
  <circle cx="363.65" cy="345.97" r="2.5" fill="#2563eb"/>
  <circle cx="366.88" cy="333.89" r="2.5" fill="#2563eb"/>
  <circle cx="370.11" cy="337.92" r="2.5" fill="#2563eb"/>
  <circle cx="373.33" cy="341.95" r="2.5" fill="#2563eb"/>
  <circle cx="376.56" cy="337.92" r="2.5" fill="#2563eb"/>
  <circle cx="379.79" cy="333.89" r="2.5" fill="#2563eb"/>
  <circle cx="383.01" cy="301.68" r="2.5" fill="#2563eb"/>
  <circle cx="386.24" cy="325.84" r="2.5" fill="#2563eb"/>
  <circle cx="389.47" cy="341.95" r="2.5" fill="#2563eb"/>
  <circle cx="392.70" cy="337.92" r="2.5" fill="#2563eb"/>
  <circle cx="395.92" cy="345.97" r="2.5" fill="#2563eb"/>
  <circle cx="399.15" cy="333.89" r="2.5" fill="#2563eb"/>
  <circle cx="402.38" cy="329.87" r="2.5" fill="#2563eb"/>
  <circle cx="405.60" cy="329.87" r="2.5" fill="#2563eb"/>
  <circle cx="408.83" cy="337.92" r="2.5" fill="#2563eb"/>
  <circle cx="412.06" cy="333.89" r="2.5" fill="#2563eb"/>
  <circle cx="415.28" cy="333.89" r="2.5" fill="#2563eb"/>
  <circle cx="418.51" cy="341.95" r="2.5" fill="#2563eb"/>
  <circle cx="421.74" cy="337.92" r="2.5" fill="#2563eb"/>
  <circle cx="424.96" cy="341.95" r="2.5" fill="#2563eb"/>
  <circle cx="428.19" cy="325.84" r="2.5" fill="#2563eb"/>
  <circle cx="431.42" cy="299.66" r="2.5" fill="#2563eb"/>
  <circle cx="434.65" cy="329.87" r="2.5" fill="#2563eb"/>
  <circle cx="437.87" cy="345.97" r="2.5" fill="#2563eb"/>
  <circle cx="441.10" cy="313.76" r="2.5" fill="#2563eb"/>
  <circle cx="444.33" cy="345.97" r="2.5" fill="#2563eb"/>
  <circle cx="447.55" cy="345.97" r="2.5" fill="#2563eb"/>
  <circle cx="450.78" cy="333.89" r="2.5" fill="#2563eb"/>
  <circle cx="454.01" cy="339.93" r="2.5" fill="#2563eb"/>
  <circle cx="457.23" cy="345.97" r="2.5" fill="#2563eb"/>
  <circle cx="460.46" cy="331.88" r="2.5" fill="#2563eb"/>
  <circle cx="463.69" cy="337.92" r="2.5" fill="#2563eb"/>
  <circle cx="466.91" cy="345.97" r="2.5" fill="#2563eb"/>
  <circle cx="470.14" cy="331.88" r="2.5" fill="#2563eb"/>
  <circle cx="473.37" cy="341.95" r="2.5" fill="#2563eb"/>
  <circle cx="476.60" cy="333.89" r="2.5" fill="#2563eb"/>
  <circle cx="479.82" cy="333.89" r="2.5" fill="#2563eb"/>
  <circle cx="483.05" cy="345.97" r="2.5" fill="#2563eb"/>
  <circle cx="486.28" cy="337.92" r="2.5" fill="#2563eb"/>
  <circle cx="489.50" cy="329.87" r="2.5" fill="#2563eb"/>
  <circle cx="492.73" cy="333.89" r="2.5" fill="#2563eb"/>
  <circle cx="495.96" cy="333.89" r="2.5" fill="#2563eb"/>
  <circle cx="499.18" cy="345.97" r="2.5" fill="#2563eb"/>
  <circle cx="502.41" cy="337.92" r="2.5" fill="#2563eb"/>
  <circle cx="505.64" cy="345.97" r="2.5" fill="#2563eb"/>
  <circle cx="508.87" cy="337.92" r="2.5" fill="#2563eb"/>
  <circle cx="512.09" cy="341.95" r="2.5" fill="#2563eb"/>
  <circle cx="515.32" cy="293.62" r="2.5" fill="#2563eb"/>
  <circle cx="518.55" cy="329.87" r="2.5" fill="#2563eb"/>
  <circle cx="521.77" cy="325.84" r="2.5" fill="#2563eb"/>
  <circle cx="525.00" cy="345.97" r="2.5" fill="#2563eb"/>
  <circle cx="528.23" cy="337.92" r="2.5" fill="#2563eb"/>
  <circle cx="531.45" cy="341.95" r="2.5" fill="#2563eb"/>
  <circle cx="534.68" cy="297.65" r="2.5" fill="#2563eb"/>
  <circle cx="537.91" cy="341.95" r="2.5" fill="#2563eb"/>
  <circle cx="541.13" cy="323.83" r="2.5" fill="#2563eb"/>
  <circle cx="544.36" cy="329.87" r="2.5" fill="#2563eb"/>
  <circle cx="547.59" cy="317.79" r="2.5" fill="#2563eb"/>
  <circle cx="550.82" cy="343.96" r="2.5" fill="#2563eb"/>
  <circle cx="554.04" cy="301.68" r="2.5" fill="#2563eb"/>
  <circle cx="557.27" cy="297.65" r="2.5" fill="#2563eb"/>
  <circle cx="560.50" cy="329.87" r="2.5" fill="#2563eb"/>
  <circle cx="563.72" cy="345.97" r="2.5" fill="#2563eb"/>
  <circle cx="566.95" cy="263.42" r="2.5" fill="#2563eb"/>
  <circle cx="570.18" cy="339.93" r="2.5" fill="#2563eb"/>
  <circle cx="573.40" cy="345.97" r="2.5" fill="#2563eb"/>
  <circle cx="576.63" cy="333.89" r="2.5" fill="#2563eb"/>
  <circle cx="579.86" cy="337.92" r="2.5" fill="#2563eb"/>
  <circle cx="583.09" cy="321.81" r="2.5" fill="#2563eb"/>
  <circle cx="586.31" cy="341.95" r="2.5" fill="#2563eb"/>
  <circle cx="589.54" cy="341.95" r="2.5" fill="#2563eb"/>
  <circle cx="592.77" cy="337.92" r="2.5" fill="#2563eb"/>
  <circle cx="595.99" cy="345.97" r="2.5" fill="#2563eb"/>
  <circle cx="599.22" cy="337.92" r="2.5" fill="#2563eb"/>
  <circle cx="602.45" cy="341.95" r="2.5" fill="#2563eb"/>
  <circle cx="605.67" cy="345.97" r="2.5" fill="#2563eb"/>
  <circle cx="608.90" cy="337.92" r="2.5" fill="#2563eb"/>
  <circle cx="612.13" cy="333.89" r="2.5" fill="#2563eb"/>
  <circle cx="615.35" cy="341.95" r="2.5" fill="#2563eb"/>
  <circle cx="618.58" cy="339.93" r="2.5" fill="#2563eb"/>
  <circle cx="621.81" cy="305.70" r="2.5" fill="#2563eb"/>
  <circle cx="625.04" cy="317.79" r="2.5" fill="#2563eb"/>
  <circle cx="628.26" cy="333.89" r="2.5" fill="#2563eb"/>
  <circle cx="631.49" cy="309.73" r="2.5" fill="#2563eb"/>
  <circle cx="634.72" cy="331.88" r="2.5" fill="#2563eb"/>
  <circle cx="637.94" cy="333.89" r="2.5" fill="#2563eb"/>
  <circle cx="641.17" cy="333.89" r="2.5" fill="#2563eb"/>
  <circle cx="644.40" cy="305.70" r="2.5" fill="#2563eb"/>
  <circle cx="647.62" cy="319.80" r="2.5" fill="#2563eb"/>
  <circle cx="650.85" cy="321.81" r="2.5" fill="#2563eb"/>
  <circle cx="654.08" cy="307.72" r="2.5" fill="#2563eb"/>
  <circle cx="657.30" cy="337.92" r="2.5" fill="#2563eb"/>
  <circle cx="660.53" cy="341.95" r="2.5" fill="#2563eb"/>
  <circle cx="663.76" cy="311.74" r="2.5" fill="#2563eb"/>
  <circle cx="666.99" cy="305.70" r="2.5" fill="#2563eb"/>
  <circle cx="670.21" cy="275.50" r="2.5" fill="#2563eb"/>
  <circle cx="673.44" cy="305.70" r="2.5" fill="#2563eb"/>
  <circle cx="676.67" cy="329.87" r="2.5" fill="#2563eb"/>
  <circle cx="679.89" cy="345.97" r="2.5" fill="#2563eb"/>
  <circle cx="683.12" cy="333.89" r="2.5" fill="#2563eb"/>
  <circle cx="686.35" cy="301.68" r="2.5" fill="#2563eb"/>
  <circle cx="689.57" cy="295.64" r="2.5" fill="#2563eb"/>
  <circle cx="692.80" cy="319.80" r="2.5" fill="#2563eb"/>
  <circle cx="696.03" cy="299.66" r="2.5" fill="#2563eb"/>
  <circle cx="699.26" cy="333.89" r="2.5" fill="#2563eb"/>
  <circle cx="702.48" cy="343.96" r="2.5" fill="#2563eb"/>
  <circle cx="705.71" cy="329.87" r="2.5" fill="#2563eb"/>
  <circle cx="708.94" cy="329.87" r="2.5" fill="#2563eb"/>
  <circle cx="712.16" cy="341.95" r="2.5" fill="#2563eb"/>
  <circle cx="715.39" cy="321.81" r="2.5" fill="#2563eb"/>
  <circle cx="718.62" cy="337.92" r="2.5" fill="#2563eb"/>
  <circle cx="721.84" cy="341.95" r="2.5" fill="#2563eb"/>
  <circle cx="725.07" cy="341.95" r="2.5" fill="#2563eb"/>
  <circle cx="728.30" cy="341.95" r="2.5" fill="#2563eb"/>
  <circle cx="731.52" cy="345.97" r="2.5" fill="#2563eb"/>
  <circle cx="734.75" cy="331.88" r="2.5" fill="#2563eb"/>
  <circle cx="737.98" cy="327.85" r="2.5" fill="#2563eb"/>
  <circle cx="741.21" cy="333.89" r="2.5" fill="#2563eb"/>
  <circle cx="744.43" cy="329.87" r="2.5" fill="#2563eb"/>
  <circle cx="747.66" cy="313.76" r="2.5" fill="#2563eb"/>
  <circle cx="750.89" cy="345.97" r="2.5" fill="#2563eb"/>
  <circle cx="754.11" cy="325.84" r="2.5" fill="#2563eb"/>
  <circle cx="757.34" cy="341.95" r="2.5" fill="#2563eb"/>
  <circle cx="760.57" cy="295.64" r="2.5" fill="#2563eb"/>
  <circle cx="763.79" cy="321.81" r="2.5" fill="#2563eb"/>
  <circle cx="767.02" cy="335.91" r="2.5" fill="#2563eb"/>
  <circle cx="770.25" cy="325.84" r="2.5" fill="#2563eb"/>
  <circle cx="773.48" cy="323.83" r="2.5" fill="#2563eb"/>
  <circle cx="776.70" cy="341.95" r="2.5" fill="#2563eb"/>
  <circle cx="779.93" cy="341.95" r="2.5" fill="#2563eb"/>
  <circle cx="783.16" cy="337.92" r="2.5" fill="#2563eb"/>
  <circle cx="786.38" cy="327.85" r="2.5" fill="#2563eb"/>
  <circle cx="789.61" cy="345.97" r="2.5" fill="#2563eb"/>
  <circle cx="792.84" cy="341.95" r="2.5" fill="#2563eb"/>
  <circle cx="796.06" cy="323.83" r="2.5" fill="#2563eb"/>
  <circle cx="799.29" cy="329.87" r="2.5" fill="#2563eb"/>
  <circle cx="802.52" cy="337.92" r="2.5" fill="#2563eb"/>
  <circle cx="805.74" cy="337.92" r="2.5" fill="#2563eb"/>
  <circle cx="808.97" cy="331.88" r="2.5" fill="#2563eb"/>
  <circle cx="812.20" cy="315.77" r="2.5" fill="#2563eb"/>
  <circle cx="815.43" cy="331.88" r="2.5" fill="#2563eb"/>
  <circle cx="818.65" cy="335.91" r="2.5" fill="#2563eb"/>
  <circle cx="821.88" cy="345.97" r="2.5" fill="#2563eb"/>
  <circle cx="825.11" cy="329.87" r="2.5" fill="#2563eb"/>
  <circle cx="828.33" cy="327.85" r="2.5" fill="#2563eb"/>
  <circle cx="831.56" cy="333.89" r="2.5" fill="#2563eb"/>
  <circle cx="834.79" cy="323.83" r="2.5" fill="#2563eb"/>
  <circle cx="838.01" cy="321.81" r="2.5" fill="#2563eb"/>
  <circle cx="841.24" cy="325.84" r="2.5" fill="#2563eb"/>
  <circle cx="844.47" cy="331.88" r="2.5" fill="#2563eb"/>
  <circle cx="847.70" cy="341.95" r="2.5" fill="#2563eb"/>
  <circle cx="850.92" cy="317.79" r="2.5" fill="#2563eb"/>
  <circle cx="854.15" cy="325.84" r="2.5" fill="#2563eb"/>
  <circle cx="857.38" cy="313.76" r="2.5" fill="#2563eb"/>
  <circle cx="860.60" cy="341.95" r="2.5" fill="#2563eb"/>
  <circle cx="863.83" cy="341.95" r="2.5" fill="#2563eb"/>
  <circle cx="867.06" cy="333.89" r="2.5" fill="#2563eb"/>
  <circle cx="870.28" cy="341.95" r="2.5" fill="#2563eb"/>
  <circle cx="873.51" cy="279.53" r="2.5" fill="#2563eb"/>
  <circle cx="876.74" cy="305.70" r="2.5" fill="#2563eb"/>
  <circle cx="879.96" cy="327.85" r="2.5" fill="#2563eb"/>
  <circle cx="883.19" cy="329.87" r="2.5" fill="#2563eb"/>
  <circle cx="886.42" cy="337.92" r="2.5" fill="#2563eb"/>
  <circle cx="889.65" cy="341.95" r="2.5" fill="#2563eb"/>
  <circle cx="892.87" cy="323.83" r="2.5" fill="#2563eb"/>
  <circle cx="896.10" cy="329.87" r="2.5" fill="#2563eb"/>
  <circle cx="899.33" cy="309.73" r="2.5" fill="#2563eb"/>
  <circle cx="902.55" cy="337.92" r="2.5" fill="#2563eb"/>
  <circle cx="905.78" cy="323.83" r="2.5" fill="#2563eb"/>
  <circle cx="909.01" cy="337.92" r="2.5" fill="#2563eb"/>
  <circle cx="912.23" cy="345.97" r="2.5" fill="#2563eb"/>
  <circle cx="915.46" cy="333.89" r="2.5" fill="#2563eb"/>
  <circle cx="918.69" cy="327.85" r="2.5" fill="#2563eb"/>
  <circle cx="921.91" cy="313.76" r="2.5" fill="#2563eb"/>
  <circle cx="925.14" cy="325.84" r="2.5" fill="#2563eb"/>
  <circle cx="928.37" cy="333.89" r="2.5" fill="#2563eb"/>
  <circle cx="931.60" cy="341.95" r="2.5" fill="#2563eb"/>
  <circle cx="934.82" cy="329.87" r="2.5" fill="#2563eb"/>
  <circle cx="938.05" cy="313.76" r="2.5" fill="#2563eb"/>
  <circle cx="941.28" cy="301.68" r="2.5" fill="#2563eb"/>
  <circle cx="944.50" cy="309.73" r="2.5" fill="#2563eb"/>
  <circle cx="947.73" cy="323.83" r="2.5" fill="#2563eb"/>
  <circle cx="950.96" cy="325.84" r="2.5" fill="#2563eb"/>
  <circle cx="954.18" cy="333.89" r="2.5" fill="#2563eb"/>
  <circle cx="957.41" cy="323.83" r="2.5" fill="#2563eb"/>
  <circle cx="960.64" cy="317.79" r="2.5" fill="#2563eb"/>
  <circle cx="963.87" cy="335.91" r="2.5" fill="#2563eb"/>
  <circle cx="967.09" cy="329.87" r="2.5" fill="#2563eb"/>
  <circle cx="970.32" cy="301.68" r="2.5" fill="#2563eb"/>
  <circle cx="973.55" cy="341.95" r="2.5" fill="#2563eb"/>
  <circle cx="976.77" cy="337.92" r="2.5" fill="#2563eb"/>
  <circle cx="980.00" cy="345.97" r="2.5" fill="#2563eb"/>
</svg>
