<?xml version="1.0" encoding="UTF-8"?>
<svg xmlns="http://www.w3.org/2000/svg" width="1000" height="420" viewBox="0 0 1000 420">
  <rect width="100%" height="100%" fill="#ffffff"/>
  <text x="70" y="28" font-size="20" font-weight="600">개설 시점 기준 - 일별 신규 강의</text>
  <text x="70" y="402" font-size="12" fill="#555">강의 수</text>
  <line x1="70" y1="350.00" x2="980" y2="350.00" stroke="#e5e7eb" stroke-width="1"/>
  <text x="62" y="354.00" font-size="11" fill="#6b7280" text-anchor="end">0</text>
  <line x1="70" y1="290.00" x2="980" y2="290.00" stroke="#e5e7eb" stroke-width="1"/>
  <text x="62" y="294.00" font-size="11" fill="#6b7280" text-anchor="end">34</text>
  <line x1="70" y1="230.00" x2="980" y2="230.00" stroke="#e5e7eb" stroke-width="1"/>
  <text x="62" y="234.00" font-size="11" fill="#6b7280" text-anchor="end">68</text>
  <line x1="70" y1="170.00" x2="980" y2="170.00" stroke="#e5e7eb" stroke-width="1"/>
  <text x="62" y="174.00" font-size="11" fill="#6b7280" text-anchor="end">102</text>
  <line x1="70" y1="110.00" x2="980" y2="110.00" stroke="#e5e7eb" stroke-width="1"/>
  <text x="62" y="114.00" font-size="11" fill="#6b7280" text-anchor="end">136</text>
  <line x1="70" y1="50.00" x2="980" y2="50.00" stroke="#e5e7eb" stroke-width="1"/>
  <text x="62" y="54.00" font-size="11" fill="#6b7280" text-anchor="end">170</text>
  <line x1="70" y1="350" x2="980" y2="350" stroke="#111827" stroke-width="1.2"/>
  <line x1="70" y1="50" x2="70" y2="350" stroke="#111827" stroke-width="1.2"/>
  <line x1="70.00" y1="350" x2="70.00" y2="356" stroke="#9ca3af" stroke-width="1"/>
  <text x="70.00" y="372" font-size="10" fill="#6b7280" text-anchor="middle">2025-04-18</text>
  <line x1="143.60" y1="350" x2="143.60" y2="356" stroke="#9ca3af" stroke-width="1"/>
  <text x="143.60" y="372" font-size="10" fill="#6b7280" text-anchor="middle">2025-05-22</text>
  <line x1="217.21" y1="350" x2="217.21" y2="356" stroke="#9ca3af" stroke-width="1"/>
  <text x="217.21" y="372" font-size="10" fill="#6b7280" text-anchor="middle">2025-06-26</text>
  <line x1="290.81" y1="350" x2="290.81" y2="356" stroke="#9ca3af" stroke-width="1"/>
  <text x="290.81" y="372" font-size="10" fill="#6b7280" text-anchor="middle">2025-07-21</text>
  <line x1="364.41" y1="350" x2="364.41" y2="356" stroke="#9ca3af" stroke-width="1"/>
  <text x="364.41" y="372" font-size="10" fill="#6b7280" text-anchor="middle">2025-08-14</text>
  <line x1="438.01" y1="350" x2="438.01" y2="356" stroke="#9ca3af" stroke-width="1"/>
  <text x="438.01" y="372" font-size="10" fill="#6b7280" text-anchor="middle">2025-09-11</text>
  <line x1="511.62" y1="350" x2="511.62" y2="356" stroke="#9ca3af" stroke-width="1"/>
  <text x="511.62" y="372" font-size="10" fill="#6b7280" text-anchor="middle">2025-10-06</text>
  <line x1="585.22" y1="350" x2="585.22" y2="356" stroke="#9ca3af" stroke-width="1"/>
  <text x="585.22" y="372" font-size="10" fill="#6b7280" text-anchor="middle">2025-11-03</text>
  <line x1="658.82" y1="350" x2="658.82" y2="356" stroke="#9ca3af" stroke-width="1"/>
  <text x="658.82" y="372" font-size="10" fill="#6b7280" text-anchor="middle">2025-11-26</text>
  <line x1="732.43" y1="350" x2="732.43" y2="356" stroke="#9ca3af" stroke-width="1"/>
  <text x="732.43" y="372" font-size="10" fill="#6b7280" text-anchor="middle">2025-12-22</text>
  <line x1="806.03" y1="350" x2="806.03" y2="356" stroke="#9ca3af" stroke-width="1"/>
  <text x="806.03" y="372" font-size="10" fill="#6b7280" text-anchor="middle">2026-01-14</text>
  <line x1="879.63" y1="350" x2="879.63" y2="356" stroke="#9ca3af" stroke-width="1"/>
  <text x="879.63" y="372" font-size="10" fill="#6b7280" text-anchor="middle">2026-02-05</text>
  <line x1="953.24" y1="350" x2="953.24" y2="356" stroke="#9ca3af" stroke-width="1"/>
  <text x="953.24" y="372" font-size="10" fill="#6b7280" text-anchor="middle">2026-03-01</text>
  <line x1="980.00" y1="350" x2="980.00" y2="356" stroke="#9ca3af" stroke-width="1"/>
  <text x="980.00" y="372" font-size="10" fill="#6b7280" text-anchor="middle">2026-03-09</text>
  <polyline fill="none" stroke="#2563eb" stroke-width="2.5" points="70.00,335.88 73.35,325.29 76.69,339.41 80.04,335.88 83.38,342.94 86.73,311.18 90.07,337.65 93.42,339.41 96.76,290.00 100.11,325.29 103.46,311.18 106.80,344.71 110.15,339.41 113.49,339.41 116.84,323.53 120.18,346.47 123.53,342.94 126.88,335.88 130.22,339.41 133.57,318.24 136.91,346.47 140.26,335.88 143.60,328.82 146.95,316.47 150.29,320.00 153.64,334.12 156.99,302.35 160.33,332.35 163.68,318.24 167.02,50.00 170.37,293.53 173.71,328.82 177.06,300.59 180.40,328.82 183.75,339.41 187.10,320.00 190.44,328.82 193.79,270.59 197.13,320.00 200.48,328.82 203.82,318.24 207.17,346.47 210.51,325.29 213.86,335.88 217.21,337.65 220.55,328.82 223.90,339.41 227.24,323.53 230.59,318.24 233.93,321.76 237.28,323.53 240.62,295.29 243.97,342.94 247.32,342.94 250.66,300.59 254.01,346.47 257.35,309.41 260.70,300.59 264.04,337.65 267.39,335.88 270.74,327.06 274.08,342.94 277.43,346.47 280.77,339.41 284.12,337.65 287.46,339.41 290.81,314.71 294.15,335.88 297.50,297.06 300.85,339.41 304.19,342.94 307.54,332.35 310.88,307.65 314.23,314.71 317.57,325.29 320.92,318.24 324.26,307.65 327.61,346.47 330.96,321.76 334.30,290.00 337.65,332.35 340.99,342.94 344.34,335.88 347.68,339.41 351.03,335.88 354.38,335.88 357.72,332.35 361.07,298.82 364.41,325.29 367.76,342.94 371.10,332.35 374.45,346.47 377.79,332.35 381.14,332.35 384.49,332.35 387.83,337.65 391.18,335.88 394.52,335.88 397.87,342.94 401.21,335.88 404.56,342.94 407.90,325.29 411.25,295.29 414.60,325.29 417.94,346.47 421.29,314.71 424.63,346.47 427.98,346.47 431.32,335.88 434.67,341.18 438.01,346.47 441.36,330.59 444.71,335.88 448.05,346.47 451.40,334.12 454.74,342.94 458.09,332.35 461.43,332.35 464.78,346.47 468.12,335.88 471.47,325.29 474.82,335.88 478.16,335.88 481.51,346.47 484.85,330.59 488.20,346.47 491.54,339.41 494.89,342.94 498.24,282.94 501.58,327.06 504.93,325.29 508.27,346.47 511.62,335.88 514.96,342.94 518.31,302.35 521.65,342.94 525.00,321.76 528.35,328.82 531.69,312.94 535.04,342.94 538.38,300.59 541.73,300.59 545.07,332.35 548.42,346.47 551.76,261.76 555.11,337.65 558.46,346.47 561.80,335.88 565.15,335.88 568.49,311.18 571.84,339.41 575.18,342.94 578.53,339.41 581.88,346.47 585.22,335.88 588.57,342.94 591.91,346.47 595.26,339.41 598.60,332.35 601.95,342.94 605.29,341.18 608.64,300.59 611.99,320.00 615.33,335.88 618.68,314.71 622.02,334.12 625.37,335.88 628.71,335.88 632.06,311.18 635.40,318.24 638.75,325.29 642.10,302.35 645.44,339.41 648.79,342.94 652.13,316.47 655.48,300.59 658.82,279.41 662.17,305.88 665.51,332.35 668.86,346.47 672.21,335.88 675.55,300.59 678.90,298.82 682.24,323.53 685.59,304.12 688.93,335.88 692.28,342.94 695.62,328.82 698.97,332.35 702.32,339.41 705.66,325.29 709.01,339.41 712.35,342.94 715.70,342.94 719.04,342.94 722.39,346.47 725.74,334.12 729.08,330.59 732.43,328.82 735.77,332.35 739.12,312.94 742.46,346.47 745.81,328.82 749.15,342.94 752.50,298.82 755.85,323.53 759.19,335.88 762.54,328.82 765.88,325.29 769.23,339.41 772.57,342.94 775.92,339.41 779.26,325.29 782.61,346.47 785.96,342.94 789.30,325.29 792.65,327.06 795.99,334.12 799.34,332.35 802.68,328.82 806.03,305.88 809.38,332.35 812.72,332.35 816.07,346.47 819.41,330.59 822.76,325.29 826.10,332.35 829.45,327.06 832.79,321.76 836.14,325.29 839.49,330.59 842.83,339.41 846.18,318.24 849.52,320.00 852.87,312.94 856.21,342.94 859.56,339.41 862.90,334.12 866.25,339.41 869.60,277.65 872.94,304.12 876.29,325.29 879.63,325.29 882.98,339.41 886.32,342.94 889.67,316.47 893.01,330.59 896.36,304.12 899.71,335.88 903.05,318.24 906.40,335.88 909.74,346.47 913.09,335.88 916.43,325.29 919.78,309.41 923.12,320.00 926.47,334.12 929.82,341.18 933.16,325.29 936.51,312.94 939.85,298.82 943.20,309.41 946.54,314.71 949.89,325.29 953.24,335.88 956.58,323.53 959.93,321.76 963.27,337.65 966.62,332.35 969.96,302.35 973.31,342.94 976.65,335.88 980.00,342.94"/>
  <circle cx="70.00" cy="335.88" r="2.5" fill="#2563eb"/>
  <circle cx="73.35" cy="325.29" r="2.5" fill="#2563eb"/>
  <circle cx="76.69" cy="339.41" r="2.5" fill="#2563eb"/>
  <circle cx="80.04" cy="335.88" r="2.5" fill="#2563eb"/>
  <circle cx="83.38" cy="342.94" r="2.5" fill="#2563eb"/>
  <circle cx="86.73" cy="311.18" r="2.5" fill="#2563eb"/>
  <circle cx="90.07" cy="337.65" r="2.5" fill="#2563eb"/>
  <circle cx="93.42" cy="339.41" r="2.5" fill="#2563eb"/>
  <circle cx="96.76" cy="290.00" r="2.5" fill="#2563eb"/>
  <circle cx="100.11" cy="325.29" r="2.5" fill="#2563eb"/>
  <circle cx="103.46" cy="311.18" r="2.5" fill="#2563eb"/>
  <circle cx="106.80" cy="344.71" r="2.5" fill="#2563eb"/>
  <circle cx="110.15" cy="339.41" r="2.5" fill="#2563eb"/>
  <circle cx="113.49" cy="339.41" r="2.5" fill="#2563eb"/>
  <circle cx="116.84" cy="323.53" r="2.5" fill="#2563eb"/>
  <circle cx="120.18" cy="346.47" r="2.5" fill="#2563eb"/>
  <circle cx="123.53" cy="342.94" r="2.5" fill="#2563eb"/>
  <circle cx="126.88" cy="335.88" r="2.5" fill="#2563eb"/>
  <circle cx="130.22" cy="339.41" r="2.5" fill="#2563eb"/>
  <circle cx="133.57" cy="318.24" r="2.5" fill="#2563eb"/>
  <circle cx="136.91" cy="346.47" r="2.5" fill="#2563eb"/>
  <circle cx="140.26" cy="335.88" r="2.5" fill="#2563eb"/>
  <circle cx="143.60" cy="328.82" r="2.5" fill="#2563eb"/>
  <circle cx="146.95" cy="316.47" r="2.5" fill="#2563eb"/>
  <circle cx="150.29" cy="320.00" r="2.5" fill="#2563eb"/>
  <circle cx="153.64" cy="334.12" r="2.5" fill="#2563eb"/>
  <circle cx="156.99" cy="302.35" r="2.5" fill="#2563eb"/>
  <circle cx="160.33" cy="332.35" r="2.5" fill="#2563eb"/>
  <circle cx="163.68" cy="318.24" r="2.5" fill="#2563eb"/>
  <circle cx="167.02" cy="50.00" r="2.5" fill="#2563eb"/>
  <circle cx="170.37" cy="293.53" r="2.5" fill="#2563eb"/>
  <circle cx="173.71" cy="328.82" r="2.5" fill="#2563eb"/>
  <circle cx="177.06" cy="300.59" r="2.5" fill="#2563eb"/>
  <circle cx="180.40" cy="328.82" r="2.5" fill="#2563eb"/>
  <circle cx="183.75" cy="339.41" r="2.5" fill="#2563eb"/>
  <circle cx="187.10" cy="320.00" r="2.5" fill="#2563eb"/>
  <circle cx="190.44" cy="328.82" r="2.5" fill="#2563eb"/>
  <circle cx="193.79" cy="270.59" r="2.5" fill="#2563eb"/>
  <circle cx="197.13" cy="320.00" r="2.5" fill="#2563eb"/>
  <circle cx="200.48" cy="328.82" r="2.5" fill="#2563eb"/>
  <circle cx="203.82" cy="318.24" r="2.5" fill="#2563eb"/>
  <circle cx="207.17" cy="346.47" r="2.5" fill="#2563eb"/>
  <circle cx="210.51" cy="325.29" r="2.5" fill="#2563eb"/>
  <circle cx="213.86" cy="335.88" r="2.5" fill="#2563eb"/>
  <circle cx="217.21" cy="337.65" r="2.5" fill="#2563eb"/>
  <circle cx="220.55" cy="328.82" r="2.5" fill="#2563eb"/>
  <circle cx="223.90" cy="339.41" r="2.5" fill="#2563eb"/>
  <circle cx="227.24" cy="323.53" r="2.5" fill="#2563eb"/>
  <circle cx="230.59" cy="318.24" r="2.5" fill="#2563eb"/>
  <circle cx="233.93" cy="321.76" r="2.5" fill="#2563eb"/>
  <circle cx="237.28" cy="323.53" r="2.5" fill="#2563eb"/>
  <circle cx="240.62" cy="295.29" r="2.5" fill="#2563eb"/>
  <circle cx="243.97" cy="342.94" r="2.5" fill="#2563eb"/>
  <circle cx="247.32" cy="342.94" r="2.5" fill="#2563eb"/>
  <circle cx="250.66" cy="300.59" r="2.5" fill="#2563eb"/>
  <circle cx="254.01" cy="346.47" r="2.5" fill="#2563eb"/>
  <circle cx="257.35" cy="309.41" r="2.5" fill="#2563eb"/>
  <circle cx="260.70" cy="300.59" r="2.5" fill="#2563eb"/>
  <circle cx="264.04" cy="337.65" r="2.5" fill="#2563eb"/>
  <circle cx="267.39" cy="335.88" r="2.5" fill="#2563eb"/>
  <circle cx="270.74" cy="327.06" r="2.5" fill="#2563eb"/>
  <circle cx="274.08" cy="342.94" r="2.5" fill="#2563eb"/>
  <circle cx="277.43" cy="346.47" r="2.5" fill="#2563eb"/>
  <circle cx="280.77" cy="339.41" r="2.5" fill="#2563eb"/>
  <circle cx="284.12" cy="337.65" r="2.5" fill="#2563eb"/>
  <circle cx="287.46" cy="339.41" r="2.5" fill="#2563eb"/>
  <circle cx="290.81" cy="314.71" r="2.5" fill="#2563eb"/>
  <circle cx="294.15" cy="335.88" r="2.5" fill="#2563eb"/>
  <circle cx="297.50" cy="297.06" r="2.5" fill="#2563eb"/>
  <circle cx="300.85" cy="339.41" r="2.5" fill="#2563eb"/>
  <circle cx="304.19" cy="342.94" r="2.5" fill="#2563eb"/>
  <circle cx="307.54" cy="332.35" r="2.5" fill="#2563eb"/>
  <circle cx="310.88" cy="307.65" r="2.5" fill="#2563eb"/>
  <circle cx="314.23" cy="314.71" r="2.5" fill="#2563eb"/>
  <circle cx="317.57" cy="325.29" r="2.5" fill="#2563eb"/>
  <circle cx="320.92" cy="318.24" r="2.5" fill="#2563eb"/>
  <circle cx="324.26" cy="307.65" r="2.5" fill="#2563eb"/>
  <circle cx="327.61" cy="346.47" r="2.5" fill="#2563eb"/>
  <circle cx="330.96" cy="321.76" r="2.5" fill="#2563eb"/>
  <circle cx="334.30" cy="290.00" r="2.5" fill="#2563eb"/>
  <circle cx="337.65" cy="332.35" r="2.5" fill="#2563eb"/>
  <circle cx="340.99" cy="342.94" r="2.5" fill="#2563eb"/>
  <circle cx="344.34" cy="335.88" r="2.5" fill="#2563eb"/>
  <circle cx="347.68" cy="339.41" r="2.5" fill="#2563eb"/>
  <circle cx="351.03" cy="335.88" r="2.5" fill="#2563eb"/>
  <circle cx="354.38" cy="335.88" r="2.5" fill="#2563eb"/>
  <circle cx="357.72" cy="332.35" r="2.5" fill="#2563eb"/>
  <circle cx="361.07" cy="298.82" r="2.5" fill="#2563eb"/>
  <circle cx="364.41" cy="325.29" r="2.5" fill="#2563eb"/>
  <circle cx="367.76" cy="342.94" r="2.5" fill="#2563eb"/>
  <circle cx="371.10" cy="332.35" r="2.5" fill="#2563eb"/>
  <circle cx="374.45" cy="346.47" r="2.5" fill="#2563eb"/>
  <circle cx="377.79" cy="332.35" r="2.5" fill="#2563eb"/>
  <circle cx="381.14" cy="332.35" r="2.5" fill="#2563eb"/>
  <circle cx="384.49" cy="332.35" r="2.5" fill="#2563eb"/>
  <circle cx="387.83" cy="337.65" r="2.5" fill="#2563eb"/>
  <circle cx="391.18" cy="335.88" r="2.5" fill="#2563eb"/>
  <circle cx="394.52" cy="335.88" r="2.5" fill="#2563eb"/>
  <circle cx="397.87" cy="342.94" r="2.5" fill="#2563eb"/>
  <circle cx="401.21" cy="335.88" r="2.5" fill="#2563eb"/>
  <circle cx="404.56" cy="342.94" r="2.5" fill="#2563eb"/>
  <circle cx="407.90" cy="325.29" r="2.5" fill="#2563eb"/>
  <circle cx="411.25" cy="295.29" r="2.5" fill="#2563eb"/>
  <circle cx="414.60" cy="325.29" r="2.5" fill="#2563eb"/>
  <circle cx="417.94" cy="346.47" r="2.5" fill="#2563eb"/>
  <circle cx="421.29" cy="314.71" r="2.5" fill="#2563eb"/>
  <circle cx="424.63" cy="346.47" r="2.5" fill="#2563eb"/>
  <circle cx="427.98" cy="346.47" r="2.5" fill="#2563eb"/>
  <circle cx="431.32" cy="335.88" r="2.5" fill="#2563eb"/>
  <circle cx="434.67" cy="341.18" r="2.5" fill="#2563eb"/>
  <circle cx="438.01" cy="346.47" r="2.5" fill="#2563eb"/>
  <circle cx="441.36" cy="330.59" r="2.5" fill="#2563eb"/>
  <circle cx="444.71" cy="335.88" r="2.5" fill="#2563eb"/>
  <circle cx="448.05" cy="346.47" r="2.5" fill="#2563eb"/>
  <circle cx="451.40" cy="334.12" r="2.5" fill="#2563eb"/>
  <circle cx="454.74" cy="342.94" r="2.5" fill="#2563eb"/>
  <circle cx="458.09" cy="332.35" r="2.5" fill="#2563eb"/>
  <circle cx="461.43" cy="332.35" r="2.5" fill="#2563eb"/>
  <circle cx="464.78" cy="346.47" r="2.5" fill="#2563eb"/>
  <circle cx="468.12" cy="335.88" r="2.5" fill="#2563eb"/>
  <circle cx="471.47" cy="325.29" r="2.5" fill="#2563eb"/>
  <circle cx="474.82" cy="335.88" r="2.5" fill="#2563eb"/>
  <circle cx="478.16" cy="335.88" r="2.5" fill="#2563eb"/>
  <circle cx="481.51" cy="346.47" r="2.5" fill="#2563eb"/>
  <circle cx="484.85" cy="330.59" r="2.5" fill="#2563eb"/>
  <circle cx="488.20" cy="346.47" r="2.5" fill="#2563eb"/>
  <circle cx="491.54" cy="339.41" r="2.5" fill="#2563eb"/>
  <circle cx="494.89" cy="342.94" r="2.5" fill="#2563eb"/>
  <circle cx="498.24" cy="282.94" r="2.5" fill="#2563eb"/>
  <circle cx="501.58" cy="327.06" r="2.5" fill="#2563eb"/>
  <circle cx="504.93" cy="325.29" r="2.5" fill="#2563eb"/>
  <circle cx="508.27" cy="346.47" r="2.5" fill="#2563eb"/>
  <circle cx="511.62" cy="335.88" r="2.5" fill="#2563eb"/>
  <circle cx="514.96" cy="342.94" r="2.5" fill="#2563eb"/>
  <circle cx="518.31" cy="302.35" r="2.5" fill="#2563eb"/>
  <circle cx="521.65" cy="342.94" r="2.5" fill="#2563eb"/>
  <circle cx="525.00" cy="321.76" r="2.5" fill="#2563eb"/>
  <circle cx="528.35" cy="328.82" r="2.5" fill="#2563eb"/>
  <circle cx="531.69" cy="312.94" r="2.5" fill="#2563eb"/>
  <circle cx="535.04" cy="342.94" r="2.5" fill="#2563eb"/>
  <circle cx="538.38" cy="300.59" r="2.5" fill="#2563eb"/>
  <circle cx="541.73" cy="300.59" r="2.5" fill="#2563eb"/>
  <circle cx="545.07" cy="332.35" r="2.5" fill="#2563eb"/>
  <circle cx="548.42" cy="346.47" r="2.5" fill="#2563eb"/>
  <circle cx="551.76" cy="261.76" r="2.5" fill="#2563eb"/>
  <circle cx="555.11" cy="337.65" r="2.5" fill="#2563eb"/>
  <circle cx="558.46" cy="346.47" r="2.5" fill="#2563eb"/>
  <circle cx="561.80" cy="335.88" r="2.5" fill="#2563eb"/>
  <circle cx="565.15" cy="335.88" r="2.5" fill="#2563eb"/>
  <circle cx="568.49" cy="311.18" r="2.5" fill="#2563eb"/>
  <circle cx="571.84" cy="339.41" r="2.5" fill="#2563eb"/>
  <circle cx="575.18" cy="342.94" r="2.5" fill="#2563eb"/>
  <circle cx="578.53" cy="339.41" r="2.5" fill="#2563eb"/>
  <circle cx="581.88" cy="346.47" r="2.5" fill="#2563eb"/>
  <circle cx="585.22" cy="335.88" r="2.5" fill="#2563eb"/>
  <circle cx="588.57" cy="342.94" r="2.5" fill="#2563eb"/>
  <circle cx="591.91" cy="346.47" r="2.5" fill="#2563eb"/>
  <circle cx="595.26" cy="339.41" r="2.5" fill="#2563eb"/>
  <circle cx="598.60" cy="332.35" r="2.5" fill="#2563eb"/>
  <circle cx="601.95" cy="342.94" r="2.5" fill="#2563eb"/>
  <circle cx="605.29" cy="341.18" r="2.5" fill="#2563eb"/>
  <circle cx="608.64" cy="300.59" r="2.5" fill="#2563eb"/>
  <circle cx="611.99" cy="320.00" r="2.5" fill="#2563eb"/>
  <circle cx="615.33" cy="335.88" r="2.5" fill="#2563eb"/>
  <circle cx="618.68" cy="314.71" r="2.5" fill="#2563eb"/>
  <circle cx="622.02" cy="334.12" r="2.5" fill="#2563eb"/>
  <circle cx="625.37" cy="335.88" r="2.5" fill="#2563eb"/>
  <circle cx="628.71" cy="335.88" r="2.5" fill="#2563eb"/>
  <circle cx="632.06" cy="311.18" r="2.5" fill="#2563eb"/>
  <circle cx="635.40" cy="318.24" r="2.5" fill="#2563eb"/>
  <circle cx="638.75" cy="325.29" r="2.5" fill="#2563eb"/>
  <circle cx="642.10" cy="302.35" r="2.5" fill="#2563eb"/>
  <circle cx="645.44" cy="339.41" r="2.5" fill="#2563eb"/>
  <circle cx="648.79" cy="342.94" r="2.5" fill="#2563eb"/>
  <circle cx="652.13" cy="316.47" r="2.5" fill="#2563eb"/>
  <circle cx="655.48" cy="300.59" r="2.5" fill="#2563eb"/>
  <circle cx="658.82" cy="279.41" r="2.5" fill="#2563eb"/>
  <circle cx="662.17" cy="305.88" r="2.5" fill="#2563eb"/>
  <circle cx="665.51" cy="332.35" r="2.5" fill="#2563eb"/>
  <circle cx="668.86" cy="346.47" r="2.5" fill="#2563eb"/>
  <circle cx="672.21" cy="335.88" r="2.5" fill="#2563eb"/>
  <circle cx="675.55" cy="300.59" r="2.5" fill="#2563eb"/>
  <circle cx="678.90" cy="298.82" r="2.5" fill="#2563eb"/>
  <circle cx="682.24" cy="323.53" r="2.5" fill="#2563eb"/>
  <circle cx="685.59" cy="304.12" r="2.5" fill="#2563eb"/>
  <circle cx="688.93" cy="335.88" r="2.5" fill="#2563eb"/>
  <circle cx="692.28" cy="342.94" r="2.5" fill="#2563eb"/>
  <circle cx="695.62" cy="328.82" r="2.5" fill="#2563eb"/>
  <circle cx="698.97" cy="332.35" r="2.5" fill="#2563eb"/>
  <circle cx="702.32" cy="339.41" r="2.5" fill="#2563eb"/>
  <circle cx="705.66" cy="325.29" r="2.5" fill="#2563eb"/>
  <circle cx="709.01" cy="339.41" r="2.5" fill="#2563eb"/>
  <circle cx="712.35" cy="342.94" r="2.5" fill="#2563eb"/>
  <circle cx="715.70" cy="342.94" r="2.5" fill="#2563eb"/>
  <circle cx="719.04" cy="342.94" r="2.5" fill="#2563eb"/>
  <circle cx="722.39" cy="346.47" r="2.5" fill="#2563eb"/>
  <circle cx="725.74" cy="334.12" r="2.5" fill="#2563eb"/>
  <circle cx="729.08" cy="330.59" r="2.5" fill="#2563eb"/>
  <circle cx="732.43" cy="328.82" r="2.5" fill="#2563eb"/>
  <circle cx="735.77" cy="332.35" r="2.5" fill="#2563eb"/>
  <circle cx="739.12" cy="312.94" r="2.5" fill="#2563eb"/>
  <circle cx="742.46" cy="346.47" r="2.5" fill="#2563eb"/>
  <circle cx="745.81" cy="328.82" r="2.5" fill="#2563eb"/>
  <circle cx="749.15" cy="342.94" r="2.5" fill="#2563eb"/>
  <circle cx="752.50" cy="298.82" r="2.5" fill="#2563eb"/>
  <circle cx="755.85" cy="323.53" r="2.5" fill="#2563eb"/>
  <circle cx="759.19" cy="335.88" r="2.5" fill="#2563eb"/>
  <circle cx="762.54" cy="328.82" r="2.5" fill="#2563eb"/>
  <circle cx="765.88" cy="325.29" r="2.5" fill="#2563eb"/>
  <circle cx="769.23" cy="339.41" r="2.5" fill="#2563eb"/>
  <circle cx="772.57" cy="342.94" r="2.5" fill="#2563eb"/>
  <circle cx="775.92" cy="339.41" r="2.5" fill="#2563eb"/>
  <circle cx="779.26" cy="325.29" r="2.5" fill="#2563eb"/>
  <circle cx="782.61" cy="346.47" r="2.5" fill="#2563eb"/>
  <circle cx="785.96" cy="342.94" r="2.5" fill="#2563eb"/>
  <circle cx="789.30" cy="325.29" r="2.5" fill="#2563eb"/>
  <circle cx="792.65" cy="327.06" r="2.5" fill="#2563eb"/>
  <circle cx="795.99" cy="334.12" r="2.5" fill="#2563eb"/>
  <circle cx="799.34" cy="332.35" r="2.5" fill="#2563eb"/>
  <circle cx="802.68" cy="328.82" r="2.5" fill="#2563eb"/>
  <circle cx="806.03" cy="305.88" r="2.5" fill="#2563eb"/>
  <circle cx="809.38" cy="332.35" r="2.5" fill="#2563eb"/>
  <circle cx="812.72" cy="332.35" r="2.5" fill="#2563eb"/>
  <circle cx="816.07" cy="346.47" r="2.5" fill="#2563eb"/>
  <circle cx="819.41" cy="330.59" r="2.5" fill="#2563eb"/>
  <circle cx="822.76" cy="325.29" r="2.5" fill="#2563eb"/>
  <circle cx="826.10" cy="332.35" r="2.5" fill="#2563eb"/>
  <circle cx="829.45" cy="327.06" r="2.5" fill="#2563eb"/>
  <circle cx="832.79" cy="321.76" r="2.5" fill="#2563eb"/>
  <circle cx="836.14" cy="325.29" r="2.5" fill="#2563eb"/>
  <circle cx="839.49" cy="330.59" r="2.5" fill="#2563eb"/>
  <circle cx="842.83" cy="339.41" r="2.5" fill="#2563eb"/>
  <circle cx="846.18" cy="318.24" r="2.5" fill="#2563eb"/>
  <circle cx="849.52" cy="320.00" r="2.5" fill="#2563eb"/>
  <circle cx="852.87" cy="312.94" r="2.5" fill="#2563eb"/>
  <circle cx="856.21" cy="342.94" r="2.5" fill="#2563eb"/>
  <circle cx="859.56" cy="339.41" r="2.5" fill="#2563eb"/>
  <circle cx="862.90" cy="334.12" r="2.5" fill="#2563eb"/>
  <circle cx="866.25" cy="339.41" r="2.5" fill="#2563eb"/>
  <circle cx="869.60" cy="277.65" r="2.5" fill="#2563eb"/>
  <circle cx="872.94" cy="304.12" r="2.5" fill="#2563eb"/>
  <circle cx="876.29" cy="325.29" r="2.5" fill="#2563eb"/>
  <circle cx="879.63" cy="325.29" r="2.5" fill="#2563eb"/>
  <circle cx="882.98" cy="339.41" r="2.5" fill="#2563eb"/>
  <circle cx="886.32" cy="342.94" r="2.5" fill="#2563eb"/>
  <circle cx="889.67" cy="316.47" r="2.5" fill="#2563eb"/>
  <circle cx="893.01" cy="330.59" r="2.5" fill="#2563eb"/>
  <circle cx="896.36" cy="304.12" r="2.5" fill="#2563eb"/>
  <circle cx="899.71" cy="335.88" r="2.5" fill="#2563eb"/>
  <circle cx="903.05" cy="318.24" r="2.5" fill="#2563eb"/>
  <circle cx="906.40" cy="335.88" r="2.5" fill="#2563eb"/>
  <circle cx="909.74" cy="346.47" r="2.5" fill="#2563eb"/>
  <circle cx="913.09" cy="335.88" r="2.5" fill="#2563eb"/>
  <circle cx="916.43" cy="325.29" r="2.5" fill="#2563eb"/>
  <circle cx="919.78" cy="309.41" r="2.5" fill="#2563eb"/>
  <circle cx="923.12" cy="320.00" r="2.5" fill="#2563eb"/>
  <circle cx="926.47" cy="334.12" r="2.5" fill="#2563eb"/>
  <circle cx="929.82" cy="341.18" r="2.5" fill="#2563eb"/>
  <circle cx="933.16" cy="325.29" r="2.5" fill="#2563eb"/>
  <circle cx="936.51" cy="312.94" r="2.5" fill="#2563eb"/>
  <circle cx="939.85" cy="298.82" r="2.5" fill="#2563eb"/>
  <circle cx="943.20" cy="309.41" r="2.5" fill="#2563eb"/>
  <circle cx="946.54" cy="314.71" r="2.5" fill="#2563eb"/>
  <circle cx="949.89" cy="325.29" r="2.5" fill="#2563eb"/>
  <circle cx="953.24" cy="335.88" r="2.5" fill="#2563eb"/>
  <circle cx="956.58" cy="323.53" r="2.5" fill="#2563eb"/>
  <circle cx="959.93" cy="321.76" r="2.5" fill="#2563eb"/>
  <circle cx="963.27" cy="337.65" r="2.5" fill="#2563eb"/>
  <circle cx="966.62" cy="332.35" r="2.5" fill="#2563eb"/>
  <circle cx="969.96" cy="302.35" r="2.5" fill="#2563eb"/>
  <circle cx="973.31" cy="342.94" r="2.5" fill="#2563eb"/>
  <circle cx="976.65" cy="335.88" r="2.5" fill="#2563eb"/>
  <circle cx="980.00" cy="342.94" r="2.5" fill="#2563eb"/>
</svg>
