<?xml version="1.0" encoding="UTF-8"?>
<svg xmlns="http://www.w3.org/2000/svg" width="1000" height="420" viewBox="0 0 1000 420">
  <rect width="100%" height="100%" fill="#ffffff"/>
  <text x="70" y="28" font-size="20" font-weight="600">개설 시점 기준 - 일별 신규 강의</text>
  <text x="70" y="402" font-size="12" fill="#555">강의 수</text>
  <line x1="70" y1="350.00" x2="980" y2="350.00" stroke="#e5e7eb" stroke-width="1"/>
  <text x="62" y="354.00" font-size="11" fill="#6b7280" text-anchor="end">0</text>
  <line x1="70" y1="290.00" x2="980" y2="290.00" stroke="#e5e7eb" stroke-width="1"/>
  <text x="62" y="294.00" font-size="11" fill="#6b7280" text-anchor="end">34</text>
  <line x1="70" y1="230.00" x2="980" y2="230.00" stroke="#e5e7eb" stroke-width="1"/>
  <text x="62" y="234.00" font-size="11" fill="#6b7280" text-anchor="end">68</text>
  <line x1="70" y1="170.00" x2="980" y2="170.00" stroke="#e5e7eb" stroke-width="1"/>
  <text x="62" y="174.00" font-size="11" fill="#6b7280" text-anchor="end">102</text>
  <line x1="70" y1="110.00" x2="980" y2="110.00" stroke="#e5e7eb" stroke-width="1"/>
  <text x="62" y="114.00" font-size="11" fill="#6b7280" text-anchor="end">136</text>
  <line x1="70" y1="50.00" x2="980" y2="50.00" stroke="#e5e7eb" stroke-width="1"/>
  <text x="62" y="54.00" font-size="11" fill="#6b7280" text-anchor="end">170</text>
  <line x1="70" y1="350" x2="980" y2="350" stroke="#111827" stroke-width="1.2"/>
  <line x1="70" y1="50" x2="70" y2="350" stroke="#111827" stroke-width="1.2"/>
  <line x1="70.00" y1="350" x2="70.00" y2="356" stroke="#9ca3af" stroke-width="1"/>
  <text x="70.00" y="372" font-size="10" fill="#6b7280" text-anchor="middle">2025-04-17</text>
  <line x1="143.33" y1="350" x2="143.33" y2="356" stroke="#9ca3af" stroke-width="1"/>
  <text x="143.33" y="372" font-size="10" fill="#6b7280" text-anchor="middle">2025-05-21</text>
  <line x1="216.67" y1="350" x2="216.67" y2="356" stroke="#9ca3af" stroke-width="1"/>
  <text x="216.67" y="372" font-size="10" fill="#6b7280" text-anchor="middle">2025-06-25</text>
  <line x1="290.00" y1="350" x2="290.00" y2="356" stroke="#9ca3af" stroke-width="1"/>
  <text x="290.00" y="372" font-size="10" fill="#6b7280" text-anchor="middle">2025-07-19</text>
  <line x1="363.33" y1="350" x2="363.33" y2="356" stroke="#9ca3af" stroke-width="1"/>
  <text x="363.33" y="372" font-size="10" fill="#6b7280" text-anchor="middle">2025-08-13</text>
  <line x1="436.67" y1="350" x2="436.67" y2="356" stroke="#9ca3af" stroke-width="1"/>
  <text x="436.67" y="372" font-size="10" fill="#6b7280" text-anchor="middle">2025-09-09</text>
  <line x1="510.00" y1="350" x2="510.00" y2="356" stroke="#9ca3af" stroke-width="1"/>
  <text x="510.00" y="372" font-size="10" fill="#6b7280" text-anchor="middle">2025-10-05</text>
  <line x1="583.33" y1="350" x2="583.33" y2="356" stroke="#9ca3af" stroke-width="1"/>
  <text x="583.33" y="372" font-size="10" fill="#6b7280" text-anchor="middle">2025-11-02</text>
  <line x1="656.67" y1="350" x2="656.67" y2="356" stroke="#9ca3af" stroke-width="1"/>
  <text x="656.67" y="372" font-size="10" fill="#6b7280" text-anchor="middle">2025-11-25</text>
  <line x1="730.00" y1="350" x2="730.00" y2="356" stroke="#9ca3af" stroke-width="1"/>
  <text x="730.00" y="372" font-size="10" fill="#6b7280" text-anchor="middle">2025-12-21</text>
  <line x1="803.33" y1="350" x2="803.33" y2="356" stroke="#9ca3af" stroke-width="1"/>
  <text x="803.33" y="372" font-size="10" fill="#6b7280" text-anchor="middle">2026-01-13</text>
  <line x1="876.67" y1="350" x2="876.67" y2="356" stroke="#9ca3af" stroke-width="1"/>
  <text x="876.67" y="372" font-size="10" fill="#6b7280" text-anchor="middle">2026-02-04</text>
  <line x1="950.00" y1="350" x2="950.00" y2="356" stroke="#9ca3af" stroke-width="1"/>
  <text x="950.00" y="372" font-size="10" fill="#6b7280" text-anchor="middle">2026-02-28</text>
  <line x1="980.00" y1="350" x2="980.00" y2="356" stroke="#9ca3af" stroke-width="1"/>
  <text x="980.00" y="372" font-size="10" fill="#6b7280" text-anchor="middle">2026-03-09</text>
  <polyline fill="none" stroke="#2563eb" stroke-width="2.5" points="70.00,339.41 73.33,335.88 76.67,325.29 80.00,339.41 83.33,335.88 86.67,342.94 90.00,311.18 93.33,337.65 96.67,339.41 100.00,290.00 103.33,325.29 106.67,311.18 110.00,344.71 113.33,339.41 116.67,339.41 120.00,323.53 123.33,346.47 126.67,342.94 130.00,335.88 133.33,339.41 136.67,318.24 140.00,346.47 143.33,335.88 146.67,328.82 150.00,316.47 153.33,320.00 156.67,334.12 160.00,302.35 163.33,332.35 166.67,318.24 170.00,50.00 173.33,293.53 176.67,328.82 180.00,300.59 183.33,328.82 186.67,339.41 190.00,320.00 193.33,328.82 196.67,270.59 200.00,320.00 203.33,328.82 206.67,318.24 210.00,346.47 213.33,325.29 216.67,335.88 220.00,337.65 223.33,328.82 226.67,339.41 230.00,323.53 233.33,318.24 236.67,321.76 240.00,323.53 243.33,295.29 246.67,342.94 250.00,342.94 253.33,300.59 256.67,346.47 260.00,309.41 263.33,300.59 266.67,337.65 270.00,335.88 273.33,327.06 276.67,342.94 280.00,346.47 283.33,339.41 286.67,337.65 290.00,339.41 293.33,314.71 296.67,335.88 300.00,297.06 303.33,339.41 306.67,342.94 310.00,332.35 313.33,307.65 316.67,314.71 320.00,325.29 323.33,318.24 326.67,307.65 330.00,346.47 333.33,321.76 336.67,290.00 340.00,332.35 343.33,342.94 346.67,335.88 350.00,339.41 353.33,335.88 356.67,335.88 360.00,332.35 363.33,298.82 366.67,325.29 370.00,342.94 373.33,332.35 376.67,346.47 380.00,332.35 383.33,332.35 386.67,332.35 390.00,337.65 393.33,335.88 396.67,335.88 400.00,342.94 403.33,335.88 406.67,342.94 410.00,325.29 413.33,295.29 416.67,325.29 420.00,346.47 423.33,314.71 426.67,346.47 430.00,346.47 433.33,335.88 436.67,341.18 440.00,346.47 443.33,330.59 446.67,335.88 450.00,346.47 453.33,334.12 456.67,342.94 460.00,332.35 463.33,332.35 466.67,346.47 470.00,335.88 473.33,325.29 476.67,335.88 480.00,335.88 483.33,346.47 486.67,330.59 490.00,346.47 493.33,339.41 496.67,342.94 500.00,282.94 503.33,327.06 506.67,325.29 510.00,346.47 513.33,335.88 516.67,342.94 520.00,302.35 523.33,342.94 526.67,321.76 530.00,328.82 533.33,312.94 536.67,342.94 540.00,300.59 543.33,300.59 546.67,332.35 550.00,346.47 553.33,261.76 556.67,337.65 560.00,346.47 563.33,335.88 566.67,335.88 570.00,311.18 573.33,339.41 576.67,342.94 580.00,339.41 583.33,346.47 586.67,335.88 590.00,342.94 593.33,346.47 596.67,339.41 600.00,332.35 603.33,342.94 606.67,341.18 610.00,300.59 613.33,320.00 616.67,335.88 620.00,314.71 623.33,334.12 626.67,335.88 630.00,335.88 633.33,311.18 636.67,318.24 640.00,325.29 643.33,302.35 646.67,339.41 650.00,342.94 653.33,316.47 656.67,300.59 660.00,279.41 663.33,305.88 666.67,332.35 670.00,346.47 673.33,335.88 676.67,300.59 680.00,298.82 683.33,323.53 686.67,304.12 690.00,335.88 693.33,342.94 696.67,328.82 700.00,332.35 703.33,339.41 706.67,325.29 710.00,339.41 713.33,342.94 716.67,342.94 720.00,342.94 723.33,346.47 726.67,334.12 730.00,330.59 733.33,328.82 736.67,332.35 740.00,312.94 743.33,346.47 746.67,328.82 750.00,342.94 753.33,298.82 756.67,323.53 760.00,335.88 763.33,328.82 766.67,325.29 770.00,339.41 773.33,342.94 776.67,339.41 780.00,325.29 783.33,346.47 786.67,342.94 790.00,325.29 793.33,327.06 796.67,334.12 800.00,332.35 803.33,328.82 806.67,305.88 810.00,332.35 813.33,332.35 816.67,346.47 820.00,330.59 823.33,325.29 826.67,332.35 830.00,327.06 833.33,321.76 836.67,325.29 840.00,330.59 843.33,339.41 846.67,318.24 850.00,320.00 853.33,312.94 856.67,342.94 860.00,339.41 863.33,334.12 866.67,339.41 870.00,277.65 873.33,304.12 876.67,325.29 880.00,325.29 883.33,339.41 886.67,342.94 890.00,316.47 893.33,330.59 896.67,304.12 900.00,335.88 903.33,318.24 906.67,335.88 910.00,346.47 913.33,335.88 916.67,325.29 920.00,309.41 923.33,320.00 926.67,334.12 930.00,341.18 933.33,325.29 936.67,312.94 940.00,298.82 943.33,309.41 946.67,314.71 950.00,325.29 953.33,335.88 956.67,323.53 960.00,321.76 963.33,337.65 966.67,332.35 970.00,302.35 973.33,342.94 976.67,335.88 980.00,342.94"/>
  <circle cx="70.00" cy="339.41" r="2.5" fill="#2563eb"/>
  <circle cx="73.33" cy="335.88" r="2.5" fill="#2563eb"/>
  <circle cx="76.67" cy="325.29" r="2.5" fill="#2563eb"/>
  <circle cx="80.00" cy="339.41" r="2.5" fill="#2563eb"/>
  <circle cx="83.33" cy="335.88" r="2.5" fill="#2563eb"/>
  <circle cx="86.67" cy="342.94" r="2.5" fill="#2563eb"/>
  <circle cx="90.00" cy="311.18" r="2.5" fill="#2563eb"/>
  <circle cx="93.33" cy="337.65" r="2.5" fill="#2563eb"/>
  <circle cx="96.67" cy="339.41" r="2.5" fill="#2563eb"/>
  <circle cx="100.00" cy="290.00" r="2.5" fill="#2563eb"/>
  <circle cx="103.33" cy="325.29" r="2.5" fill="#2563eb"/>
  <circle cx="106.67" cy="311.18" r="2.5" fill="#2563eb"/>
  <circle cx="110.00" cy="344.71" r="2.5" fill="#2563eb"/>
  <circle cx="113.33" cy="339.41" r="2.5" fill="#2563eb"/>
  <circle cx="116.67" cy="339.41" r="2.5" fill="#2563eb"/>
  <circle cx="120.00" cy="323.53" r="2.5" fill="#2563eb"/>
  <circle cx="123.33" cy="346.47" r="2.5" fill="#2563eb"/>
  <circle cx="126.67" cy="342.94" r="2.5" fill="#2563eb"/>
  <circle cx="130.00" cy="335.88" r="2.5" fill="#2563eb"/>
  <circle cx="133.33" cy="339.41" r="2.5" fill="#2563eb"/>
  <circle cx="136.67" cy="318.24" r="2.5" fill="#2563eb"/>
  <circle cx="140.00" cy="346.47" r="2.5" fill="#2563eb"/>
  <circle cx="143.33" cy="335.88" r="2.5" fill="#2563eb"/>
  <circle cx="146.67" cy="328.82" r="2.5" fill="#2563eb"/>
  <circle cx="150.00" cy="316.47" r="2.5" fill="#2563eb"/>
  <circle cx="153.33" cy="320.00" r="2.5" fill="#2563eb"/>
  <circle cx="156.67" cy="334.12" r="2.5" fill="#2563eb"/>
  <circle cx="160.00" cy="302.35" r="2.5" fill="#2563eb"/>
  <circle cx="163.33" cy="332.35" r="2.5" fill="#2563eb"/>
  <circle cx="166.67" cy="318.24" r="2.5" fill="#2563eb"/>
  <circle cx="170.00" cy="50.00" r="2.5" fill="#2563eb"/>
  <circle cx="173.33" cy="293.53" r="2.5" fill="#2563eb"/>
  <circle cx="176.67" cy="328.82" r="2.5" fill="#2563eb"/>
  <circle cx="180.00" cy="300.59" r="2.5" fill="#2563eb"/>
  <circle cx="183.33" cy="328.82" r="2.5" fill="#2563eb"/>
  <circle cx="186.67" cy="339.41" r="2.5" fill="#2563eb"/>
  <circle cx="190.00" cy="320.00" r="2.5" fill="#2563eb"/>
  <circle cx="193.33" cy="328.82" r="2.5" fill="#2563eb"/>
  <circle cx="196.67" cy="270.59" r="2.5" fill="#2563eb"/>
  <circle cx="200.00" cy="320.00" r="2.5" fill="#2563eb"/>
  <circle cx="203.33" cy="328.82" r="2.5" fill="#2563eb"/>
  <circle cx="206.67" cy="318.24" r="2.5" fill="#2563eb"/>
  <circle cx="210.00" cy="346.47" r="2.5" fill="#2563eb"/>
  <circle cx="213.33" cy="325.29" r="2.5" fill="#2563eb"/>
  <circle cx="216.67" cy="335.88" r="2.5" fill="#2563eb"/>
  <circle cx="220.00" cy="337.65" r="2.5" fill="#2563eb"/>
  <circle cx="223.33" cy="328.82" r="2.5" fill="#2563eb"/>
  <circle cx="226.67" cy="339.41" r="2.5" fill="#2563eb"/>
  <circle cx="230.00" cy="323.53" r="2.5" fill="#2563eb"/>
  <circle cx="233.33" cy="318.24" r="2.5" fill="#2563eb"/>
  <circle cx="236.67" cy="321.76" r="2.5" fill="#2563eb"/>
  <circle cx="240.00" cy="323.53" r="2.5" fill="#2563eb"/>
  <circle cx="243.33" cy="295.29" r="2.5" fill="#2563eb"/>
  <circle cx="246.67" cy="342.94" r="2.5" fill="#2563eb"/>
  <circle cx="250.00" cy="342.94" r="2.5" fill="#2563eb"/>
  <circle cx="253.33" cy="300.59" r="2.5" fill="#2563eb"/>
  <circle cx="256.67" cy="346.47" r="2.5" fill="#2563eb"/>
  <circle cx="260.00" cy="309.41" r="2.5" fill="#2563eb"/>
  <circle cx="263.33" cy="300.59" r="2.5" fill="#2563eb"/>
  <circle cx="266.67" cy="337.65" r="2.5" fill="#2563eb"/>
  <circle cx="270.00" cy="335.88" r="2.5" fill="#2563eb"/>
  <circle cx="273.33" cy="327.06" r="2.5" fill="#2563eb"/>
  <circle cx="276.67" cy="342.94" r="2.5" fill="#2563eb"/>
  <circle cx="280.00" cy="346.47" r="2.5" fill="#2563eb"/>
  <circle cx="283.33" cy="339.41" r="2.5" fill="#2563eb"/>
  <circle cx="286.67" cy="337.65" r="2.5" fill="#2563eb"/>
  <circle cx="290.00" cy="339.41" r="2.5" fill="#2563eb"/>
  <circle cx="293.33" cy="314.71" r="2.5" fill="#2563eb"/>
  <circle cx="296.67" cy="335.88" r="2.5" fill="#2563eb"/>
  <circle cx="300.00" cy="297.06" r="2.5" fill="#2563eb"/>
  <circle cx="303.33" cy="339.41" r="2.5" fill="#2563eb"/>
  <circle cx="306.67" cy="342.94" r="2.5" fill="#2563eb"/>
  <circle cx="310.00" cy="332.35" r="2.5" fill="#2563eb"/>
  <circle cx="313.33" cy="307.65" r="2.5" fill="#2563eb"/>
  <circle cx="316.67" cy="314.71" r="2.5" fill="#2563eb"/>
  <circle cx="320.00" cy="325.29" r="2.5" fill="#2563eb"/>
  <circle cx="323.33" cy="318.24" r="2.5" fill="#2563eb"/>
  <circle cx="326.67" cy="307.65" r="2.5" fill="#2563eb"/>
  <circle cx="330.00" cy="346.47" r="2.5" fill="#2563eb"/>
  <circle cx="333.33" cy="321.76" r="2.5" fill="#2563eb"/>
  <circle cx="336.67" cy="290.00" r="2.5" fill="#2563eb"/>
  <circle cx="340.00" cy="332.35" r="2.5" fill="#2563eb"/>
  <circle cx="343.33" cy="342.94" r="2.5" fill="#2563eb"/>
  <circle cx="346.67" cy="335.88" r="2.5" fill="#2563eb"/>
  <circle cx="350.00" cy="339.41" r="2.5" fill="#2563eb"/>
  <circle cx="353.33" cy="335.88" r="2.5" fill="#2563eb"/>
  <circle cx="356.67" cy="335.88" r="2.5" fill="#2563eb"/>
  <circle cx="360.00" cy="332.35" r="2.5" fill="#2563eb"/>
  <circle cx="363.33" cy="298.82" r="2.5" fill="#2563eb"/>
  <circle cx="366.67" cy="325.29" r="2.5" fill="#2563eb"/>
  <circle cx="370.00" cy="342.94" r="2.5" fill="#2563eb"/>
  <circle cx="373.33" cy="332.35" r="2.5" fill="#2563eb"/>
  <circle cx="376.67" cy="346.47" r="2.5" fill="#2563eb"/>
  <circle cx="380.00" cy="332.35" r="2.5" fill="#2563eb"/>
  <circle cx="383.33" cy="332.35" r="2.5" fill="#2563eb"/>
  <circle cx="386.67" cy="332.35" r="2.5" fill="#2563eb"/>
  <circle cx="390.00" cy="337.65" r="2.5" fill="#2563eb"/>
  <circle cx="393.33" cy="335.88" r="2.5" fill="#2563eb"/>
  <circle cx="396.67" cy="335.88" r="2.5" fill="#2563eb"/>
  <circle cx="400.00" cy="342.94" r="2.5" fill="#2563eb"/>
  <circle cx="403.33" cy="335.88" r="2.5" fill="#2563eb"/>
  <circle cx="406.67" cy="342.94" r="2.5" fill="#2563eb"/>
  <circle cx="410.00" cy="325.29" r="2.5" fill="#2563eb"/>
  <circle cx="413.33" cy="295.29" r="2.5" fill="#2563eb"/>
  <circle cx="416.67" cy="325.29" r="2.5" fill="#2563eb"/>
  <circle cx="420.00" cy="346.47" r="2.5" fill="#2563eb"/>
  <circle cx="423.33" cy="314.71" r="2.5" fill="#2563eb"/>
  <circle cx="426.67" cy="346.47" r="2.5" fill="#2563eb"/>
  <circle cx="430.00" cy="346.47" r="2.5" fill="#2563eb"/>
  <circle cx="433.33" cy="335.88" r="2.5" fill="#2563eb"/>
  <circle cx="436.67" cy="341.18" r="2.5" fill="#2563eb"/>
  <circle cx="440.00" cy="346.47" r="2.5" fill="#2563eb"/>
  <circle cx="443.33" cy="330.59" r="2.5" fill="#2563eb"/>
  <circle cx="446.67" cy="335.88" r="2.5" fill="#2563eb"/>
  <circle cx="450.00" cy="346.47" r="2.5" fill="#2563eb"/>
  <circle cx="453.33" cy="334.12" r="2.5" fill="#2563eb"/>
  <circle cx="456.67" cy="342.94" r="2.5" fill="#2563eb"/>
  <circle cx="460.00" cy="332.35" r="2.5" fill="#2563eb"/>
  <circle cx="463.33" cy="332.35" r="2.5" fill="#2563eb"/>
  <circle cx="466.67" cy="346.47" r="2.5" fill="#2563eb"/>
  <circle cx="470.00" cy="335.88" r="2.5" fill="#2563eb"/>
  <circle cx="473.33" cy="325.29" r="2.5" fill="#2563eb"/>
  <circle cx="476.67" cy="335.88" r="2.5" fill="#2563eb"/>
  <circle cx="480.00" cy="335.88" r="2.5" fill="#2563eb"/>
  <circle cx="483.33" cy="346.47" r="2.5" fill="#2563eb"/>
  <circle cx="486.67" cy="330.59" r="2.5" fill="#2563eb"/>
  <circle cx="490.00" cy="346.47" r="2.5" fill="#2563eb"/>
  <circle cx="493.33" cy="339.41" r="2.5" fill="#2563eb"/>
  <circle cx="496.67" cy="342.94" r="2.5" fill="#2563eb"/>
  <circle cx="500.00" cy="282.94" r="2.5" fill="#2563eb"/>
  <circle cx="503.33" cy="327.06" r="2.5" fill="#2563eb"/>
  <circle cx="506.67" cy="325.29" r="2.5" fill="#2563eb"/>
  <circle cx="510.00" cy="346.47" r="2.5" fill="#2563eb"/>
  <circle cx="513.33" cy="335.88" r="2.5" fill="#2563eb"/>
  <circle cx="516.67" cy="342.94" r="2.5" fill="#2563eb"/>
  <circle cx="520.00" cy="302.35" r="2.5" fill="#2563eb"/>
  <circle cx="523.33" cy="342.94" r="2.5" fill="#2563eb"/>
  <circle cx="526.67" cy="321.76" r="2.5" fill="#2563eb"/>
  <circle cx="530.00" cy="328.82" r="2.5" fill="#2563eb"/>
  <circle cx="533.33" cy="312.94" r="2.5" fill="#2563eb"/>
  <circle cx="536.67" cy="342.94" r="2.5" fill="#2563eb"/>
  <circle cx="540.00" cy="300.59" r="2.5" fill="#2563eb"/>
  <circle cx="543.33" cy="300.59" r="2.5" fill="#2563eb"/>
  <circle cx="546.67" cy="332.35" r="2.5" fill="#2563eb"/>
  <circle cx="550.00" cy="346.47" r="2.5" fill="#2563eb"/>
  <circle cx="553.33" cy="261.76" r="2.5" fill="#2563eb"/>
  <circle cx="556.67" cy="337.65" r="2.5" fill="#2563eb"/>
  <circle cx="560.00" cy="346.47" r="2.5" fill="#2563eb"/>
  <circle cx="563.33" cy="335.88" r="2.5" fill="#2563eb"/>
  <circle cx="566.67" cy="335.88" r="2.5" fill="#2563eb"/>
  <circle cx="570.00" cy="311.18" r="2.5" fill="#2563eb"/>
  <circle cx="573.33" cy="339.41" r="2.5" fill="#2563eb"/>
  <circle cx="576.67" cy="342.94" r="2.5" fill="#2563eb"/>
  <circle cx="580.00" cy="339.41" r="2.5" fill="#2563eb"/>
  <circle cx="583.33" cy="346.47" r="2.5" fill="#2563eb"/>
  <circle cx="586.67" cy="335.88" r="2.5" fill="#2563eb"/>
  <circle cx="590.00" cy="342.94" r="2.5" fill="#2563eb"/>
  <circle cx="593.33" cy="346.47" r="2.5" fill="#2563eb"/>
  <circle cx="596.67" cy="339.41" r="2.5" fill="#2563eb"/>
  <circle cx="600.00" cy="332.35" r="2.5" fill="#2563eb"/>
  <circle cx="603.33" cy="342.94" r="2.5" fill="#2563eb"/>
  <circle cx="606.67" cy="341.18" r="2.5" fill="#2563eb"/>
  <circle cx="610.00" cy="300.59" r="2.5" fill="#2563eb"/>
  <circle cx="613.33" cy="320.00" r="2.5" fill="#2563eb"/>
  <circle cx="616.67" cy="335.88" r="2.5" fill="#2563eb"/>
  <circle cx="620.00" cy="314.71" r="2.5" fill="#2563eb"/>
  <circle cx="623.33" cy="334.12" r="2.5" fill="#2563eb"/>
  <circle cx="626.67" cy="335.88" r="2.5" fill="#2563eb"/>
  <circle cx="630.00" cy="335.88" r="2.5" fill="#2563eb"/>
  <circle cx="633.33" cy="311.18" r="2.5" fill="#2563eb"/>
  <circle cx="636.67" cy="318.24" r="2.5" fill="#2563eb"/>
  <circle cx="640.00" cy="325.29" r="2.5" fill="#2563eb"/>
  <circle cx="643.33" cy="302.35" r="2.5" fill="#2563eb"/>
  <circle cx="646.67" cy="339.41" r="2.5" fill="#2563eb"/>
  <circle cx="650.00" cy="342.94" r="2.5" fill="#2563eb"/>
  <circle cx="653.33" cy="316.47" r="2.5" fill="#2563eb"/>
  <circle cx="656.67" cy="300.59" r="2.5" fill="#2563eb"/>
  <circle cx="660.00" cy="279.41" r="2.5" fill="#2563eb"/>
  <circle cx="663.33" cy="305.88" r="2.5" fill="#2563eb"/>
  <circle cx="666.67" cy="332.35" r="2.5" fill="#2563eb"/>
  <circle cx="670.00" cy="346.47" r="2.5" fill="#2563eb"/>
  <circle cx="673.33" cy="335.88" r="2.5" fill="#2563eb"/>
  <circle cx="676.67" cy="300.59" r="2.5" fill="#2563eb"/>
  <circle cx="680.00" cy="298.82" r="2.5" fill="#2563eb"/>
  <circle cx="683.33" cy="323.53" r="2.5" fill="#2563eb"/>
  <circle cx="686.67" cy="304.12" r="2.5" fill="#2563eb"/>
  <circle cx="690.00" cy="335.88" r="2.5" fill="#2563eb"/>
  <circle cx="693.33" cy="342.94" r="2.5" fill="#2563eb"/>
  <circle cx="696.67" cy="328.82" r="2.5" fill="#2563eb"/>
  <circle cx="700.00" cy="332.35" r="2.5" fill="#2563eb"/>
  <circle cx="703.33" cy="339.41" r="2.5" fill="#2563eb"/>
  <circle cx="706.67" cy="325.29" r="2.5" fill="#2563eb"/>
  <circle cx="710.00" cy="339.41" r="2.5" fill="#2563eb"/>
  <circle cx="713.33" cy="342.94" r="2.5" fill="#2563eb"/>
  <circle cx="716.67" cy="342.94" r="2.5" fill="#2563eb"/>
  <circle cx="720.00" cy="342.94" r="2.5" fill="#2563eb"/>
  <circle cx="723.33" cy="346.47" r="2.5" fill="#2563eb"/>
  <circle cx="726.67" cy="334.12" r="2.5" fill="#2563eb"/>
  <circle cx="730.00" cy="330.59" r="2.5" fill="#2563eb"/>
  <circle cx="733.33" cy="328.82" r="2.5" fill="#2563eb"/>
  <circle cx="736.67" cy="332.35" r="2.5" fill="#2563eb"/>
  <circle cx="740.00" cy="312.94" r="2.5" fill="#2563eb"/>
  <circle cx="743.33" cy="346.47" r="2.5" fill="#2563eb"/>
  <circle cx="746.67" cy="328.82" r="2.5" fill="#2563eb"/>
  <circle cx="750.00" cy="342.94" r="2.5" fill="#2563eb"/>
  <circle cx="753.33" cy="298.82" r="2.5" fill="#2563eb"/>
  <circle cx="756.67" cy="323.53" r="2.5" fill="#2563eb"/>
  <circle cx="760.00" cy="335.88" r="2.5" fill="#2563eb"/>
  <circle cx="763.33" cy="328.82" r="2.5" fill="#2563eb"/>
  <circle cx="766.67" cy="325.29" r="2.5" fill="#2563eb"/>
  <circle cx="770.00" cy="339.41" r="2.5" fill="#2563eb"/>
  <circle cx="773.33" cy="342.94" r="2.5" fill="#2563eb"/>
  <circle cx="776.67" cy="339.41" r="2.5" fill="#2563eb"/>
  <circle cx="780.00" cy="325.29" r="2.5" fill="#2563eb"/>
  <circle cx="783.33" cy="346.47" r="2.5" fill="#2563eb"/>
  <circle cx="786.67" cy="342.94" r="2.5" fill="#2563eb"/>
  <circle cx="790.00" cy="325.29" r="2.5" fill="#2563eb"/>
  <circle cx="793.33" cy="327.06" r="2.5" fill="#2563eb"/>
  <circle cx="796.67" cy="334.12" r="2.5" fill="#2563eb"/>
  <circle cx="800.00" cy="332.35" r="2.5" fill="#2563eb"/>
  <circle cx="803.33" cy="328.82" r="2.5" fill="#2563eb"/>
  <circle cx="806.67" cy="305.88" r="2.5" fill="#2563eb"/>
  <circle cx="810.00" cy="332.35" r="2.5" fill="#2563eb"/>
  <circle cx="813.33" cy="332.35" r="2.5" fill="#2563eb"/>
  <circle cx="816.67" cy="346.47" r="2.5" fill="#2563eb"/>
  <circle cx="820.00" cy="330.59" r="2.5" fill="#2563eb"/>
  <circle cx="823.33" cy="325.29" r="2.5" fill="#2563eb"/>
  <circle cx="826.67" cy="332.35" r="2.5" fill="#2563eb"/>
  <circle cx="830.00" cy="327.06" r="2.5" fill="#2563eb"/>
  <circle cx="833.33" cy="321.76" r="2.5" fill="#2563eb"/>
  <circle cx="836.67" cy="325.29" r="2.5" fill="#2563eb"/>
  <circle cx="840.00" cy="330.59" r="2.5" fill="#2563eb"/>
  <circle cx="843.33" cy="339.41" r="2.5" fill="#2563eb"/>
  <circle cx="846.67" cy="318.24" r="2.5" fill="#2563eb"/>
  <circle cx="850.00" cy="320.00" r="2.5" fill="#2563eb"/>
  <circle cx="853.33" cy="312.94" r="2.5" fill="#2563eb"/>
  <circle cx="856.67" cy="342.94" r="2.5" fill="#2563eb"/>
  <circle cx="860.00" cy="339.41" r="2.5" fill="#2563eb"/>
  <circle cx="863.33" cy="334.12" r="2.5" fill="#2563eb"/>
  <circle cx="866.67" cy="339.41" r="2.5" fill="#2563eb"/>
  <circle cx="870.00" cy="277.65" r="2.5" fill="#2563eb"/>
  <circle cx="873.33" cy="304.12" r="2.5" fill="#2563eb"/>
  <circle cx="876.67" cy="325.29" r="2.5" fill="#2563eb"/>
  <circle cx="880.00" cy="325.29" r="2.5" fill="#2563eb"/>
  <circle cx="883.33" cy="339.41" r="2.5" fill="#2563eb"/>
  <circle cx="886.67" cy="342.94" r="2.5" fill="#2563eb"/>
  <circle cx="890.00" cy="316.47" r="2.5" fill="#2563eb"/>
  <circle cx="893.33" cy="330.59" r="2.5" fill="#2563eb"/>
  <circle cx="896.67" cy="304.12" r="2.5" fill="#2563eb"/>
  <circle cx="900.00" cy="335.88" r="2.5" fill="#2563eb"/>
  <circle cx="903.33" cy="318.24" r="2.5" fill="#2563eb"/>
  <circle cx="906.67" cy="335.88" r="2.5" fill="#2563eb"/>
  <circle cx="910.00" cy="346.47" r="2.5" fill="#2563eb"/>
  <circle cx="913.33" cy="335.88" r="2.5" fill="#2563eb"/>
  <circle cx="916.67" cy="325.29" r="2.5" fill="#2563eb"/>
  <circle cx="920.00" cy="309.41" r="2.5" fill="#2563eb"/>
  <circle cx="923.33" cy="320.00" r="2.5" fill="#2563eb"/>
  <circle cx="926.67" cy="334.12" r="2.5" fill="#2563eb"/>
  <circle cx="930.00" cy="341.18" r="2.5" fill="#2563eb"/>
  <circle cx="933.33" cy="325.29" r="2.5" fill="#2563eb"/>
  <circle cx="936.67" cy="312.94" r="2.5" fill="#2563eb"/>
  <circle cx="940.00" cy="298.82" r="2.5" fill="#2563eb"/>
  <circle cx="943.33" cy="309.41" r="2.5" fill="#2563eb"/>
  <circle cx="946.67" cy="314.71" r="2.5" fill="#2563eb"/>
  <circle cx="950.00" cy="325.29" r="2.5" fill="#2563eb"/>
  <circle cx="953.33" cy="335.88" r="2.5" fill="#2563eb"/>
  <circle cx="956.67" cy="323.53" r="2.5" fill="#2563eb"/>
  <circle cx="960.00" cy="321.76" r="2.5" fill="#2563eb"/>
  <circle cx="963.33" cy="337.65" r="2.5" fill="#2563eb"/>
  <circle cx="966.67" cy="332.35" r="2.5" fill="#2563eb"/>
  <circle cx="970.00" cy="302.35" r="2.5" fill="#2563eb"/>
  <circle cx="973.33" cy="342.94" r="2.5" fill="#2563eb"/>
  <circle cx="976.67" cy="335.88" r="2.5" fill="#2563eb"/>
  <circle cx="980.00" cy="342.94" r="2.5" fill="#2563eb"/>
</svg>
