<?xml version="1.0" encoding="UTF-8"?>
<svg xmlns="http://www.w3.org/2000/svg" width="1000" height="420" viewBox="0 0 1000 420">
  <rect width="100%" height="100%" fill="#ffffff"/>
  <text x="70" y="28" font-size="20" font-weight="600">개설 시점 기준 - 일별 신규 강의</text>
  <text x="70" y="402" font-size="12" fill="#555">강의 수</text>
  <line x1="70" y1="350.00" x2="980" y2="350.00" stroke="#e5e7eb" stroke-width="1"/>
  <text x="62" y="354.00" font-size="11" fill="#6b7280" text-anchor="end">0</text>
  <line x1="70" y1="290.00" x2="980" y2="290.00" stroke="#e5e7eb" stroke-width="1"/>
  <text x="62" y="294.00" font-size="11" fill="#6b7280" text-anchor="end">27</text>
  <line x1="70" y1="230.00" x2="980" y2="230.00" stroke="#e5e7eb" stroke-width="1"/>
  <text x="62" y="234.00" font-size="11" fill="#6b7280" text-anchor="end">54</text>
  <line x1="70" y1="170.00" x2="980" y2="170.00" stroke="#e5e7eb" stroke-width="1"/>
  <text x="62" y="174.00" font-size="11" fill="#6b7280" text-anchor="end">81</text>
  <line x1="70" y1="110.00" x2="980" y2="110.00" stroke="#e5e7eb" stroke-width="1"/>
  <text x="62" y="114.00" font-size="11" fill="#6b7280" text-anchor="end">108</text>
  <line x1="70" y1="50.00" x2="980" y2="50.00" stroke="#e5e7eb" stroke-width="1"/>
  <text x="62" y="54.00" font-size="11" fill="#6b7280" text-anchor="end">136</text>
  <line x1="70" y1="350" x2="980" y2="350" stroke="#111827" stroke-width="1.2"/>
  <line x1="70" y1="50" x2="70" y2="350" stroke="#111827" stroke-width="1.2"/>
  <line x1="70.00" y1="350" x2="70.00" y2="356" stroke="#9ca3af" stroke-width="1"/>
  <text x="70.00" y="372" font-size="10" fill="#6b7280" text-anchor="middle">2025-03-31</text>
  <line x1="143.18" y1="350" x2="143.18" y2="356" stroke="#9ca3af" stroke-width="1"/>
  <text x="143.18" y="372" font-size="10" fill="#6b7280" text-anchor="middle">2025-05-03</text>
  <line x1="216.36" y1="350" x2="216.36" y2="356" stroke="#9ca3af" stroke-width="1"/>
  <text x="216.36" y="372" font-size="10" fill="#6b7280" text-anchor="middle">2025-06-09</text>
  <line x1="289.55" y1="350" x2="289.55" y2="356" stroke="#9ca3af" stroke-width="1"/>
  <text x="289.55" y="372" font-size="10" fill="#6b7280" text-anchor="middle">2025-07-08</text>
  <line x1="362.73" y1="350" x2="362.73" y2="356" stroke="#9ca3af" stroke-width="1"/>
  <text x="362.73" y="372" font-size="10" fill="#6b7280" text-anchor="middle">2025-08-03</text>
  <line x1="435.91" y1="350" x2="435.91" y2="356" stroke="#9ca3af" stroke-width="1"/>
  <text x="435.91" y="372" font-size="10" fill="#6b7280" text-anchor="middle">2025-09-01</text>
  <line x1="509.09" y1="350" x2="509.09" y2="356" stroke="#9ca3af" stroke-width="1"/>
  <text x="509.09" y="372" font-size="10" fill="#6b7280" text-anchor="middle">2025-09-26</text>
  <line x1="582.27" y1="350" x2="582.27" y2="356" stroke="#9ca3af" stroke-width="1"/>
  <text x="582.27" y="372" font-size="10" fill="#6b7280" text-anchor="middle">2025-10-26</text>
  <line x1="655.45" y1="350" x2="655.45" y2="356" stroke="#9ca3af" stroke-width="1"/>
  <text x="655.45" y="372" font-size="10" fill="#6b7280" text-anchor="middle">2025-11-20</text>
  <line x1="728.64" y1="350" x2="728.64" y2="356" stroke="#9ca3af" stroke-width="1"/>
  <text x="728.64" y="372" font-size="10" fill="#6b7280" text-anchor="middle">2025-12-15</text>
  <line x1="801.82" y1="350" x2="801.82" y2="356" stroke="#9ca3af" stroke-width="1"/>
  <text x="801.82" y="372" font-size="10" fill="#6b7280" text-anchor="middle">2026-01-10</text>
  <line x1="875.00" y1="350" x2="875.00" y2="356" stroke="#9ca3af" stroke-width="1"/>
  <text x="875.00" y="372" font-size="10" fill="#6b7280" text-anchor="middle">2026-02-02</text>
  <line x1="948.18" y1="350" x2="948.18" y2="356" stroke="#9ca3af" stroke-width="1"/>
  <text x="948.18" y="372" font-size="10" fill="#6b7280" text-anchor="middle">2026-02-27</text>
  <line x1="980.00" y1="350" x2="980.00" y2="356" stroke="#9ca3af" stroke-width="1"/>
  <text x="980.00" y="372" font-size="10" fill="#6b7280" text-anchor="middle">2026-03-09</text>
  <polyline fill="none" stroke="#2563eb" stroke-width="2.5" points="70.00,327.94 73.18,341.18 76.36,341.18 79.55,314.71 82.73,345.59 85.91,327.94 89.09,305.88 92.27,327.94 95.45,345.59 98.64,323.53 101.82,341.18 105.00,319.12 108.18,336.76 111.36,341.18 114.55,341.18 117.73,327.94 120.91,341.18 124.09,336.76 127.27,345.59 130.45,319.12 133.64,341.18 136.82,341.18 140.00,283.82 143.18,327.94 146.36,310.29 149.55,345.59 152.73,341.18 155.91,336.76 159.09,323.53 162.27,345.59 165.45,345.59 168.64,341.18 171.82,341.18 175.00,319.12 178.18,345.59 181.36,336.76 184.55,327.94 187.73,323.53 190.91,327.94 194.09,332.35 197.27,305.88 200.45,332.35 203.64,314.71 206.82,50.00 210.00,301.47 213.18,323.53 216.36,301.47 219.55,325.74 222.73,341.18 225.91,323.53 229.09,327.94 232.27,270.59 235.45,323.53 238.64,327.94 241.82,323.53 245.00,345.59 248.18,319.12 251.36,332.35 254.55,336.76 257.73,327.94 260.91,336.76 264.09,327.94 267.27,319.12 270.45,314.71 273.64,323.53 276.82,292.65 280.00,341.18 283.18,345.59 286.36,301.47 289.55,345.59 292.73,310.29 295.91,305.88 299.09,336.76 302.27,332.35 305.45,323.53 308.64,345.59 311.82,345.59 315.00,341.18 318.18,336.76 321.36,336.76 324.55,319.12 327.73,336.76 330.91,301.47 334.09,341.18 337.27,341.18 340.45,332.35 343.64,305.88 346.82,323.53 350.00,327.94 353.18,323.53 356.36,314.71 359.55,345.59 362.73,314.71 365.91,297.06 369.09,336.76 372.27,345.59 375.45,336.76 378.64,336.76 381.82,341.18 385.00,336.76 388.18,332.35 391.36,301.47 394.55,323.53 397.73,341.18 400.91,336.76 404.09,345.59 407.27,332.35 410.45,336.76 413.64,327.94 416.82,336.76 420.00,336.76 423.18,332.35 426.36,341.18 429.55,336.76 432.73,341.18 435.91,323.53 439.09,301.47 442.27,327.94 445.45,345.59 448.64,314.71 451.82,345.59 455.00,345.59 458.18,336.76 461.36,338.97 464.55,345.59 467.73,332.35 470.91,336.76 474.09,345.59 477.27,332.35 480.45,341.18 483.64,336.76 486.82,332.35 490.00,345.59 493.18,341.18 496.36,332.35 499.55,332.35 502.73,336.76 505.91,345.59 509.09,336.76 512.27,345.59 515.45,341.18 518.64,345.59 521.82,301.47 525.00,327.94 528.18,332.35 531.36,345.59 534.55,341.18 537.73,341.18 540.91,301.47 544.09,341.18 547.27,327.94 550.45,332.35 553.64,319.12 556.82,345.59 560.00,314.71 563.18,305.88 566.36,332.35 569.55,345.59 572.73,275.00 575.91,341.18 579.09,345.59 582.27,336.76 585.45,336.76 588.64,319.12 591.82,341.18 595.00,341.18 598.18,341.18 601.36,345.59 604.55,336.76 607.73,341.18 610.91,345.59 614.09,336.76 617.27,336.76 620.45,341.18 623.64,341.18 626.82,310.29 630.00,323.53 633.18,341.18 636.36,319.12 639.55,336.76 642.73,336.76 645.91,332.35 649.09,319.12 652.27,319.12 655.45,332.35 658.64,314.71 661.82,341.18 665.00,341.18 668.18,314.71 671.36,314.71 674.55,294.85 677.73,305.88 680.91,327.94 684.09,345.59 687.27,341.18 690.45,310.29 693.64,305.88 696.82,327.94 700.00,305.88 703.18,341.18 706.36,345.59 709.55,332.35 712.73,332.35 715.91,341.18 719.09,332.35 722.27,336.76 725.45,341.18 728.64,345.59 731.82,341.18 735.00,345.59 738.18,336.76 741.36,332.35 744.55,336.76 747.73,336.76 750.91,319.12 754.09,345.59 757.27,332.35 760.45,345.59 763.64,297.06 766.82,323.53 770.00,336.76 773.18,327.94 776.36,332.35 779.55,341.18 782.73,345.59 785.91,336.76 789.09,332.35 792.27,345.59 795.45,345.59 798.64,327.94 801.82,332.35 805.00,336.76 808.18,336.76 811.36,332.35 814.55,314.71 817.73,336.76 820.91,336.76 824.09,345.59 827.27,332.35 830.45,327.94 833.64,336.76 836.82,327.94 840.00,327.94 843.18,327.94 846.36,332.35 849.55,341.18 852.73,327.94 855.91,323.53 859.09,319.12 862.27,341.18 865.45,341.18 868.64,336.76 871.82,341.18 875.00,297.06 878.18,314.71 881.36,327.94 884.55,327.94 887.73,341.18 890.91,341.18 894.09,323.53 897.27,332.35 900.45,314.71 903.64,341.18 906.82,327.94 910.00,341.18 913.18,345.59 916.36,341.18 919.55,327.94 922.73,314.71 925.91,323.53 929.09,336.76 932.27,341.18 935.45,327.94 938.64,314.71 941.82,297.06 945.00,314.71 948.18,327.94 951.36,327.94 954.55,336.76 957.73,325.74 960.91,323.53 964.09,341.18 967.27,327.94 970.45,319.12 973.64,341.18 976.82,336.76 980.00,345.59"/>
  <circle cx="70.00" cy="327.94" r="2.5" fill="#2563eb"/>
  <circle cx="73.18" cy="341.18" r="2.5" fill="#2563eb"/>
  <circle cx="76.36" cy="341.18" r="2.5" fill="#2563eb"/>
  <circle cx="79.55" cy="314.71" r="2.5" fill="#2563eb"/>
  <circle cx="82.73" cy="345.59" r="2.5" fill="#2563eb"/>
  <circle cx="85.91" cy="327.94" r="2.5" fill="#2563eb"/>
  <circle cx="89.09" cy="305.88" r="2.5" fill="#2563eb"/>
  <circle cx="92.27" cy="327.94" r="2.5" fill="#2563eb"/>
  <circle cx="95.45" cy="345.59" r="2.5" fill="#2563eb"/>
  <circle cx="98.64" cy="323.53" r="2.5" fill="#2563eb"/>
  <circle cx="101.82" cy="341.18" r="2.5" fill="#2563eb"/>
  <circle cx="105.00" cy="319.12" r="2.5" fill="#2563eb"/>
  <circle cx="108.18" cy="336.76" r="2.5" fill="#2563eb"/>
  <circle cx="111.36" cy="341.18" r="2.5" fill="#2563eb"/>
  <circle cx="114.55" cy="341.18" r="2.5" fill="#2563eb"/>
  <circle cx="117.73" cy="327.94" r="2.5" fill="#2563eb"/>
  <circle cx="120.91" cy="341.18" r="2.5" fill="#2563eb"/>
  <circle cx="124.09" cy="336.76" r="2.5" fill="#2563eb"/>
  <circle cx="127.27" cy="345.59" r="2.5" fill="#2563eb"/>
  <circle cx="130.45" cy="319.12" r="2.5" fill="#2563eb"/>
  <circle cx="133.64" cy="341.18" r="2.5" fill="#2563eb"/>
  <circle cx="136.82" cy="341.18" r="2.5" fill="#2563eb"/>
  <circle cx="140.00" cy="283.82" r="2.5" fill="#2563eb"/>
  <circle cx="143.18" cy="327.94" r="2.5" fill="#2563eb"/>
  <circle cx="146.36" cy="310.29" r="2.5" fill="#2563eb"/>
  <circle cx="149.55" cy="345.59" r="2.5" fill="#2563eb"/>
  <circle cx="152.73" cy="341.18" r="2.5" fill="#2563eb"/>
  <circle cx="155.91" cy="336.76" r="2.5" fill="#2563eb"/>
  <circle cx="159.09" cy="323.53" r="2.5" fill="#2563eb"/>
  <circle cx="162.27" cy="345.59" r="2.5" fill="#2563eb"/>
  <circle cx="165.45" cy="345.59" r="2.5" fill="#2563eb"/>
  <circle cx="168.64" cy="341.18" r="2.5" fill="#2563eb"/>
  <circle cx="171.82" cy="341.18" r="2.5" fill="#2563eb"/>
  <circle cx="175.00" cy="319.12" r="2.5" fill="#2563eb"/>
  <circle cx="178.18" cy="345.59" r="2.5" fill="#2563eb"/>
  <circle cx="181.36" cy="336.76" r="2.5" fill="#2563eb"/>
  <circle cx="184.55" cy="327.94" r="2.5" fill="#2563eb"/>
  <circle cx="187.73" cy="323.53" r="2.5" fill="#2563eb"/>
  <circle cx="190.91" cy="327.94" r="2.5" fill="#2563eb"/>
  <circle cx="194.09" cy="332.35" r="2.5" fill="#2563eb"/>
  <circle cx="197.27" cy="305.88" r="2.5" fill="#2563eb"/>
  <circle cx="200.45" cy="332.35" r="2.5" fill="#2563eb"/>
  <circle cx="203.64" cy="314.71" r="2.5" fill="#2563eb"/>
  <circle cx="206.82" cy="50.00" r="2.5" fill="#2563eb"/>
  <circle cx="210.00" cy="301.47" r="2.5" fill="#2563eb"/>
  <circle cx="213.18" cy="323.53" r="2.5" fill="#2563eb"/>
  <circle cx="216.36" cy="301.47" r="2.5" fill="#2563eb"/>
  <circle cx="219.55" cy="325.74" r="2.5" fill="#2563eb"/>
  <circle cx="222.73" cy="341.18" r="2.5" fill="#2563eb"/>
  <circle cx="225.91" cy="323.53" r="2.5" fill="#2563eb"/>
  <circle cx="229.09" cy="327.94" r="2.5" fill="#2563eb"/>
  <circle cx="232.27" cy="270.59" r="2.5" fill="#2563eb"/>
  <circle cx="235.45" cy="323.53" r="2.5" fill="#2563eb"/>
  <circle cx="238.64" cy="327.94" r="2.5" fill="#2563eb"/>
  <circle cx="241.82" cy="323.53" r="2.5" fill="#2563eb"/>
  <circle cx="245.00" cy="345.59" r="2.5" fill="#2563eb"/>
  <circle cx="248.18" cy="319.12" r="2.5" fill="#2563eb"/>
  <circle cx="251.36" cy="332.35" r="2.5" fill="#2563eb"/>
  <circle cx="254.55" cy="336.76" r="2.5" fill="#2563eb"/>
  <circle cx="257.73" cy="327.94" r="2.5" fill="#2563eb"/>
  <circle cx="260.91" cy="336.76" r="2.5" fill="#2563eb"/>
  <circle cx="264.09" cy="327.94" r="2.5" fill="#2563eb"/>
  <circle cx="267.27" cy="319.12" r="2.5" fill="#2563eb"/>
  <circle cx="270.45" cy="314.71" r="2.5" fill="#2563eb"/>
  <circle cx="273.64" cy="323.53" r="2.5" fill="#2563eb"/>
  <circle cx="276.82" cy="292.65" r="2.5" fill="#2563eb"/>
  <circle cx="280.00" cy="341.18" r="2.5" fill="#2563eb"/>
  <circle cx="283.18" cy="345.59" r="2.5" fill="#2563eb"/>
  <circle cx="286.36" cy="301.47" r="2.5" fill="#2563eb"/>
  <circle cx="289.55" cy="345.59" r="2.5" fill="#2563eb"/>
  <circle cx="292.73" cy="310.29" r="2.5" fill="#2563eb"/>
  <circle cx="295.91" cy="305.88" r="2.5" fill="#2563eb"/>
  <circle cx="299.09" cy="336.76" r="2.5" fill="#2563eb"/>
  <circle cx="302.27" cy="332.35" r="2.5" fill="#2563eb"/>
  <circle cx="305.45" cy="323.53" r="2.5" fill="#2563eb"/>
  <circle cx="308.64" cy="345.59" r="2.5" fill="#2563eb"/>
  <circle cx="311.82" cy="345.59" r="2.5" fill="#2563eb"/>
  <circle cx="315.00" cy="341.18" r="2.5" fill="#2563eb"/>
  <circle cx="318.18" cy="336.76" r="2.5" fill="#2563eb"/>
  <circle cx="321.36" cy="336.76" r="2.5" fill="#2563eb"/>
  <circle cx="324.55" cy="319.12" r="2.5" fill="#2563eb"/>
  <circle cx="327.73" cy="336.76" r="2.5" fill="#2563eb"/>
  <circle cx="330.91" cy="301.47" r="2.5" fill="#2563eb"/>
  <circle cx="334.09" cy="341.18" r="2.5" fill="#2563eb"/>
  <circle cx="337.27" cy="341.18" r="2.5" fill="#2563eb"/>
  <circle cx="340.45" cy="332.35" r="2.5" fill="#2563eb"/>
  <circle cx="343.64" cy="305.88" r="2.5" fill="#2563eb"/>
  <circle cx="346.82" cy="323.53" r="2.5" fill="#2563eb"/>
  <circle cx="350.00" cy="327.94" r="2.5" fill="#2563eb"/>
  <circle cx="353.18" cy="323.53" r="2.5" fill="#2563eb"/>
  <circle cx="356.36" cy="314.71" r="2.5" fill="#2563eb"/>
  <circle cx="359.55" cy="345.59" r="2.5" fill="#2563eb"/>
  <circle cx="362.73" cy="314.71" r="2.5" fill="#2563eb"/>
  <circle cx="365.91" cy="297.06" r="2.5" fill="#2563eb"/>
  <circle cx="369.09" cy="336.76" r="2.5" fill="#2563eb"/>
  <circle cx="372.27" cy="345.59" r="2.5" fill="#2563eb"/>
  <circle cx="375.45" cy="336.76" r="2.5" fill="#2563eb"/>
  <circle cx="378.64" cy="336.76" r="2.5" fill="#2563eb"/>
  <circle cx="381.82" cy="341.18" r="2.5" fill="#2563eb"/>
  <circle cx="385.00" cy="336.76" r="2.5" fill="#2563eb"/>
  <circle cx="388.18" cy="332.35" r="2.5" fill="#2563eb"/>
  <circle cx="391.36" cy="301.47" r="2.5" fill="#2563eb"/>
  <circle cx="394.55" cy="323.53" r="2.5" fill="#2563eb"/>
  <circle cx="397.73" cy="341.18" r="2.5" fill="#2563eb"/>
  <circle cx="400.91" cy="336.76" r="2.5" fill="#2563eb"/>
  <circle cx="404.09" cy="345.59" r="2.5" fill="#2563eb"/>
  <circle cx="407.27" cy="332.35" r="2.5" fill="#2563eb"/>
  <circle cx="410.45" cy="336.76" r="2.5" fill="#2563eb"/>
  <circle cx="413.64" cy="327.94" r="2.5" fill="#2563eb"/>
  <circle cx="416.82" cy="336.76" r="2.5" fill="#2563eb"/>
  <circle cx="420.00" cy="336.76" r="2.5" fill="#2563eb"/>
  <circle cx="423.18" cy="332.35" r="2.5" fill="#2563eb"/>
  <circle cx="426.36" cy="341.18" r="2.5" fill="#2563eb"/>
  <circle cx="429.55" cy="336.76" r="2.5" fill="#2563eb"/>
  <circle cx="432.73" cy="341.18" r="2.5" fill="#2563eb"/>
  <circle cx="435.91" cy="323.53" r="2.5" fill="#2563eb"/>
  <circle cx="439.09" cy="301.47" r="2.5" fill="#2563eb"/>
  <circle cx="442.27" cy="327.94" r="2.5" fill="#2563eb"/>
  <circle cx="445.45" cy="345.59" r="2.5" fill="#2563eb"/>
  <circle cx="448.64" cy="314.71" r="2.5" fill="#2563eb"/>
  <circle cx="451.82" cy="345.59" r="2.5" fill="#2563eb"/>
  <circle cx="455.00" cy="345.59" r="2.5" fill="#2563eb"/>
  <circle cx="458.18" cy="336.76" r="2.5" fill="#2563eb"/>
  <circle cx="461.36" cy="338.97" r="2.5" fill="#2563eb"/>
  <circle cx="464.55" cy="345.59" r="2.5" fill="#2563eb"/>
  <circle cx="467.73" cy="332.35" r="2.5" fill="#2563eb"/>
  <circle cx="470.91" cy="336.76" r="2.5" fill="#2563eb"/>
  <circle cx="474.09" cy="345.59" r="2.5" fill="#2563eb"/>
  <circle cx="477.27" cy="332.35" r="2.5" fill="#2563eb"/>
  <circle cx="480.45" cy="341.18" r="2.5" fill="#2563eb"/>
  <circle cx="483.64" cy="336.76" r="2.5" fill="#2563eb"/>
  <circle cx="486.82" cy="332.35" r="2.5" fill="#2563eb"/>
  <circle cx="490.00" cy="345.59" r="2.5" fill="#2563eb"/>
  <circle cx="493.18" cy="341.18" r="2.5" fill="#2563eb"/>
  <circle cx="496.36" cy="332.35" r="2.5" fill="#2563eb"/>
  <circle cx="499.55" cy="332.35" r="2.5" fill="#2563eb"/>
  <circle cx="502.73" cy="336.76" r="2.5" fill="#2563eb"/>
  <circle cx="505.91" cy="345.59" r="2.5" fill="#2563eb"/>
  <circle cx="509.09" cy="336.76" r="2.5" fill="#2563eb"/>
  <circle cx="512.27" cy="345.59" r="2.5" fill="#2563eb"/>
  <circle cx="515.45" cy="341.18" r="2.5" fill="#2563eb"/>
  <circle cx="518.64" cy="345.59" r="2.5" fill="#2563eb"/>
  <circle cx="521.82" cy="301.47" r="2.5" fill="#2563eb"/>
  <circle cx="525.00" cy="327.94" r="2.5" fill="#2563eb"/>
  <circle cx="528.18" cy="332.35" r="2.5" fill="#2563eb"/>
  <circle cx="531.36" cy="345.59" r="2.5" fill="#2563eb"/>
  <circle cx="534.55" cy="341.18" r="2.5" fill="#2563eb"/>
  <circle cx="537.73" cy="341.18" r="2.5" fill="#2563eb"/>
  <circle cx="540.91" cy="301.47" r="2.5" fill="#2563eb"/>
  <circle cx="544.09" cy="341.18" r="2.5" fill="#2563eb"/>
  <circle cx="547.27" cy="327.94" r="2.5" fill="#2563eb"/>
  <circle cx="550.45" cy="332.35" r="2.5" fill="#2563eb"/>
  <circle cx="553.64" cy="319.12" r="2.5" fill="#2563eb"/>
  <circle cx="556.82" cy="345.59" r="2.5" fill="#2563eb"/>
  <circle cx="560.00" cy="314.71" r="2.5" fill="#2563eb"/>
  <circle cx="563.18" cy="305.88" r="2.5" fill="#2563eb"/>
  <circle cx="566.36" cy="332.35" r="2.5" fill="#2563eb"/>
  <circle cx="569.55" cy="345.59" r="2.5" fill="#2563eb"/>
  <circle cx="572.73" cy="275.00" r="2.5" fill="#2563eb"/>
  <circle cx="575.91" cy="341.18" r="2.5" fill="#2563eb"/>
  <circle cx="579.09" cy="345.59" r="2.5" fill="#2563eb"/>
  <circle cx="582.27" cy="336.76" r="2.5" fill="#2563eb"/>
  <circle cx="585.45" cy="336.76" r="2.5" fill="#2563eb"/>
  <circle cx="588.64" cy="319.12" r="2.5" fill="#2563eb"/>
  <circle cx="591.82" cy="341.18" r="2.5" fill="#2563eb"/>
  <circle cx="595.00" cy="341.18" r="2.5" fill="#2563eb"/>
  <circle cx="598.18" cy="341.18" r="2.5" fill="#2563eb"/>
  <circle cx="601.36" cy="345.59" r="2.5" fill="#2563eb"/>
  <circle cx="604.55" cy="336.76" r="2.5" fill="#2563eb"/>
  <circle cx="607.73" cy="341.18" r="2.5" fill="#2563eb"/>
  <circle cx="610.91" cy="345.59" r="2.5" fill="#2563eb"/>
  <circle cx="614.09" cy="336.76" r="2.5" fill="#2563eb"/>
  <circle cx="617.27" cy="336.76" r="2.5" fill="#2563eb"/>
  <circle cx="620.45" cy="341.18" r="2.5" fill="#2563eb"/>
  <circle cx="623.64" cy="341.18" r="2.5" fill="#2563eb"/>
  <circle cx="626.82" cy="310.29" r="2.5" fill="#2563eb"/>
  <circle cx="630.00" cy="323.53" r="2.5" fill="#2563eb"/>
  <circle cx="633.18" cy="341.18" r="2.5" fill="#2563eb"/>
  <circle cx="636.36" cy="319.12" r="2.5" fill="#2563eb"/>
  <circle cx="639.55" cy="336.76" r="2.5" fill="#2563eb"/>
  <circle cx="642.73" cy="336.76" r="2.5" fill="#2563eb"/>
  <circle cx="645.91" cy="332.35" r="2.5" fill="#2563eb"/>
  <circle cx="649.09" cy="319.12" r="2.5" fill="#2563eb"/>
  <circle cx="652.27" cy="319.12" r="2.5" fill="#2563eb"/>
  <circle cx="655.45" cy="332.35" r="2.5" fill="#2563eb"/>
  <circle cx="658.64" cy="314.71" r="2.5" fill="#2563eb"/>
  <circle cx="661.82" cy="341.18" r="2.5" fill="#2563eb"/>
  <circle cx="665.00" cy="341.18" r="2.5" fill="#2563eb"/>
  <circle cx="668.18" cy="314.71" r="2.5" fill="#2563eb"/>
  <circle cx="671.36" cy="314.71" r="2.5" fill="#2563eb"/>
  <circle cx="674.55" cy="294.85" r="2.5" fill="#2563eb"/>
  <circle cx="677.73" cy="305.88" r="2.5" fill="#2563eb"/>
  <circle cx="680.91" cy="327.94" r="2.5" fill="#2563eb"/>
  <circle cx="684.09" cy="345.59" r="2.5" fill="#2563eb"/>
  <circle cx="687.27" cy="341.18" r="2.5" fill="#2563eb"/>
  <circle cx="690.45" cy="310.29" r="2.5" fill="#2563eb"/>
  <circle cx="693.64" cy="305.88" r="2.5" fill="#2563eb"/>
  <circle cx="696.82" cy="327.94" r="2.5" fill="#2563eb"/>
  <circle cx="700.00" cy="305.88" r="2.5" fill="#2563eb"/>
  <circle cx="703.18" cy="341.18" r="2.5" fill="#2563eb"/>
  <circle cx="706.36" cy="345.59" r="2.5" fill="#2563eb"/>
  <circle cx="709.55" cy="332.35" r="2.5" fill="#2563eb"/>
  <circle cx="712.73" cy="332.35" r="2.5" fill="#2563eb"/>
  <circle cx="715.91" cy="341.18" r="2.5" fill="#2563eb"/>
  <circle cx="719.09" cy="332.35" r="2.5" fill="#2563eb"/>
  <circle cx="722.27" cy="336.76" r="2.5" fill="#2563eb"/>
  <circle cx="725.45" cy="341.18" r="2.5" fill="#2563eb"/>
  <circle cx="728.64" cy="345.59" r="2.5" fill="#2563eb"/>
  <circle cx="731.82" cy="341.18" r="2.5" fill="#2563eb"/>
  <circle cx="735.00" cy="345.59" r="2.5" fill="#2563eb"/>
  <circle cx="738.18" cy="336.76" r="2.5" fill="#2563eb"/>
  <circle cx="741.36" cy="332.35" r="2.5" fill="#2563eb"/>
  <circle cx="744.55" cy="336.76" r="2.5" fill="#2563eb"/>
  <circle cx="747.73" cy="336.76" r="2.5" fill="#2563eb"/>
  <circle cx="750.91" cy="319.12" r="2.5" fill="#2563eb"/>
  <circle cx="754.09" cy="345.59" r="2.5" fill="#2563eb"/>
  <circle cx="757.27" cy="332.35" r="2.5" fill="#2563eb"/>
  <circle cx="760.45" cy="345.59" r="2.5" fill="#2563eb"/>
  <circle cx="763.64" cy="297.06" r="2.5" fill="#2563eb"/>
  <circle cx="766.82" cy="323.53" r="2.5" fill="#2563eb"/>
  <circle cx="770.00" cy="336.76" r="2.5" fill="#2563eb"/>
  <circle cx="773.18" cy="327.94" r="2.5" fill="#2563eb"/>
  <circle cx="776.36" cy="332.35" r="2.5" fill="#2563eb"/>
  <circle cx="779.55" cy="341.18" r="2.5" fill="#2563eb"/>
  <circle cx="782.73" cy="345.59" r="2.5" fill="#2563eb"/>
  <circle cx="785.91" cy="336.76" r="2.5" fill="#2563eb"/>
  <circle cx="789.09" cy="332.35" r="2.5" fill="#2563eb"/>
  <circle cx="792.27" cy="345.59" r="2.5" fill="#2563eb"/>
  <circle cx="795.45" cy="345.59" r="2.5" fill="#2563eb"/>
  <circle cx="798.64" cy="327.94" r="2.5" fill="#2563eb"/>
  <circle cx="801.82" cy="332.35" r="2.5" fill="#2563eb"/>
  <circle cx="805.00" cy="336.76" r="2.5" fill="#2563eb"/>
  <circle cx="808.18" cy="336.76" r="2.5" fill="#2563eb"/>
  <circle cx="811.36" cy="332.35" r="2.5" fill="#2563eb"/>
  <circle cx="814.55" cy="314.71" r="2.5" fill="#2563eb"/>
  <circle cx="817.73" cy="336.76" r="2.5" fill="#2563eb"/>
  <circle cx="820.91" cy="336.76" r="2.5" fill="#2563eb"/>
  <circle cx="824.09" cy="345.59" r="2.5" fill="#2563eb"/>
  <circle cx="827.27" cy="332.35" r="2.5" fill="#2563eb"/>
  <circle cx="830.45" cy="327.94" r="2.5" fill="#2563eb"/>
  <circle cx="833.64" cy="336.76" r="2.5" fill="#2563eb"/>
  <circle cx="836.82" cy="327.94" r="2.5" fill="#2563eb"/>
  <circle cx="840.00" cy="327.94" r="2.5" fill="#2563eb"/>
  <circle cx="843.18" cy="327.94" r="2.5" fill="#2563eb"/>
  <circle cx="846.36" cy="332.35" r="2.5" fill="#2563eb"/>
  <circle cx="849.55" cy="341.18" r="2.5" fill="#2563eb"/>
  <circle cx="852.73" cy="327.94" r="2.5" fill="#2563eb"/>
  <circle cx="855.91" cy="323.53" r="2.5" fill="#2563eb"/>
  <circle cx="859.09" cy="319.12" r="2.5" fill="#2563eb"/>
  <circle cx="862.27" cy="341.18" r="2.5" fill="#2563eb"/>
  <circle cx="865.45" cy="341.18" r="2.5" fill="#2563eb"/>
  <circle cx="868.64" cy="336.76" r="2.5" fill="#2563eb"/>
  <circle cx="871.82" cy="341.18" r="2.5" fill="#2563eb"/>
  <circle cx="875.00" cy="297.06" r="2.5" fill="#2563eb"/>
  <circle cx="878.18" cy="314.71" r="2.5" fill="#2563eb"/>
  <circle cx="881.36" cy="327.94" r="2.5" fill="#2563eb"/>
  <circle cx="884.55" cy="327.94" r="2.5" fill="#2563eb"/>
  <circle cx="887.73" cy="341.18" r="2.5" fill="#2563eb"/>
  <circle cx="890.91" cy="341.18" r="2.5" fill="#2563eb"/>
  <circle cx="894.09" cy="323.53" r="2.5" fill="#2563eb"/>
  <circle cx="897.27" cy="332.35" r="2.5" fill="#2563eb"/>
  <circle cx="900.45" cy="314.71" r="2.5" fill="#2563eb"/>
  <circle cx="903.64" cy="341.18" r="2.5" fill="#2563eb"/>
  <circle cx="906.82" cy="327.94" r="2.5" fill="#2563eb"/>
  <circle cx="910.00" cy="341.18" r="2.5" fill="#2563eb"/>
  <circle cx="913.18" cy="345.59" r="2.5" fill="#2563eb"/>
  <circle cx="916.36" cy="341.18" r="2.5" fill="#2563eb"/>
  <circle cx="919.55" cy="327.94" r="2.5" fill="#2563eb"/>
  <circle cx="922.73" cy="314.71" r="2.5" fill="#2563eb"/>
  <circle cx="925.91" cy="323.53" r="2.5" fill="#2563eb"/>
  <circle cx="929.09" cy="336.76" r="2.5" fill="#2563eb"/>
  <circle cx="932.27" cy="341.18" r="2.5" fill="#2563eb"/>
  <circle cx="935.45" cy="327.94" r="2.5" fill="#2563eb"/>
  <circle cx="938.64" cy="314.71" r="2.5" fill="#2563eb"/>
  <circle cx="941.82" cy="297.06" r="2.5" fill="#2563eb"/>
  <circle cx="945.00" cy="314.71" r="2.5" fill="#2563eb"/>
  <circle cx="948.18" cy="327.94" r="2.5" fill="#2563eb"/>
  <circle cx="951.36" cy="327.94" r="2.5" fill="#2563eb"/>
  <circle cx="954.55" cy="336.76" r="2.5" fill="#2563eb"/>
  <circle cx="957.73" cy="325.74" r="2.5" fill="#2563eb"/>
  <circle cx="960.91" cy="323.53" r="2.5" fill="#2563eb"/>
  <circle cx="964.09" cy="341.18" r="2.5" fill="#2563eb"/>
  <circle cx="967.27" cy="327.94" r="2.5" fill="#2563eb"/>
  <circle cx="970.45" cy="319.12" r="2.5" fill="#2563eb"/>
  <circle cx="973.64" cy="341.18" r="2.5" fill="#2563eb"/>
  <circle cx="976.82" cy="336.76" r="2.5" fill="#2563eb"/>
  <circle cx="980.00" cy="345.59" r="2.5" fill="#2563eb"/>
</svg>
