<?xml version="1.0" encoding="UTF-8"?>
<svg xmlns="http://www.w3.org/2000/svg" width="1000" height="420" viewBox="0 0 1000 420">
  <rect width="100%" height="100%" fill="#ffffff"/>
  <text x="70" y="28" font-size="20" font-weight="600">개설 시점 기준 - 일별 신규 강의</text>
  <text x="70" y="402" font-size="12" fill="#555">강의 수</text>
  <line x1="70" y1="350.00" x2="980" y2="350.00" stroke="#e5e7eb" stroke-width="1"/>
  <text x="62" y="354.00" font-size="11" fill="#6b7280" text-anchor="end">0</text>
  <line x1="70" y1="290.00" x2="980" y2="290.00" stroke="#e5e7eb" stroke-width="1"/>
  <text x="62" y="294.00" font-size="11" fill="#6b7280" text-anchor="end">34</text>
  <line x1="70" y1="230.00" x2="980" y2="230.00" stroke="#e5e7eb" stroke-width="1"/>
  <text x="62" y="234.00" font-size="11" fill="#6b7280" text-anchor="end">68</text>
  <line x1="70" y1="170.00" x2="980" y2="170.00" stroke="#e5e7eb" stroke-width="1"/>
  <text x="62" y="174.00" font-size="11" fill="#6b7280" text-anchor="end">103</text>
  <line x1="70" y1="110.00" x2="980" y2="110.00" stroke="#e5e7eb" stroke-width="1"/>
  <text x="62" y="114.00" font-size="11" fill="#6b7280" text-anchor="end">137</text>
  <line x1="70" y1="50.00" x2="980" y2="50.00" stroke="#e5e7eb" stroke-width="1"/>
  <text x="62" y="54.00" font-size="11" fill="#6b7280" text-anchor="end">172</text>
  <line x1="70" y1="350" x2="980" y2="350" stroke="#111827" stroke-width="1.2"/>
  <line x1="70" y1="50" x2="70" y2="350" stroke="#111827" stroke-width="1.2"/>
  <line x1="70.00" y1="350" x2="70.00" y2="356" stroke="#9ca3af" stroke-width="1"/>
  <text x="70.00" y="372" font-size="10" fill="#6b7280" text-anchor="middle">2025-04-29</text>
  <line x1="145.26" y1="350" x2="145.26" y2="356" stroke="#9ca3af" stroke-width="1"/>
  <text x="145.26" y="372" font-size="10" fill="#6b7280" text-anchor="middle">2025-05-30</text>
  <line x1="220.53" y1="350" x2="220.53" y2="356" stroke="#9ca3af" stroke-width="1"/>
  <text x="220.53" y="372" font-size="10" fill="#6b7280" text-anchor="middle">2025-07-02</text>
  <line x1="295.79" y1="350" x2="295.79" y2="356" stroke="#9ca3af" stroke-width="1"/>
  <text x="295.79" y="372" font-size="10" fill="#6b7280" text-anchor="middle">2025-07-28</text>
  <line x1="371.05" y1="350" x2="371.05" y2="356" stroke="#9ca3af" stroke-width="1"/>
  <text x="371.05" y="372" font-size="10" fill="#6b7280" text-anchor="middle">2025-08-22</text>
  <line x1="446.32" y1="350" x2="446.32" y2="356" stroke="#9ca3af" stroke-width="1"/>
  <text x="446.32" y="372" font-size="10" fill="#6b7280" text-anchor="middle">2025-09-18</text>
  <line x1="521.58" y1="350" x2="521.58" y2="356" stroke="#9ca3af" stroke-width="1"/>
  <text x="521.58" y="372" font-size="10" fill="#6b7280" text-anchor="middle">2025-10-17</text>
  <line x1="596.84" y1="350" x2="596.84" y2="356" stroke="#9ca3af" stroke-width="1"/>
  <text x="596.84" y="372" font-size="10" fill="#6b7280" text-anchor="middle">2025-11-09</text>
  <line x1="672.11" y1="350" x2="672.11" y2="356" stroke="#9ca3af" stroke-width="1"/>
  <text x="672.11" y="372" font-size="10" fill="#6b7280" text-anchor="middle">2025-12-02</text>
  <line x1="747.37" y1="350" x2="747.37" y2="356" stroke="#9ca3af" stroke-width="1"/>
  <text x="747.37" y="372" font-size="10" fill="#6b7280" text-anchor="middle">2025-12-29</text>
  <line x1="822.63" y1="350" x2="822.63" y2="356" stroke="#9ca3af" stroke-width="1"/>
  <text x="822.63" y="372" font-size="10" fill="#6b7280" text-anchor="middle">2026-01-20</text>
  <line x1="897.89" y1="350" x2="897.89" y2="356" stroke="#9ca3af" stroke-width="1"/>
  <text x="897.89" y="372" font-size="10" fill="#6b7280" text-anchor="middle">2026-02-13</text>
  <line x1="973.16" y1="350" x2="973.16" y2="356" stroke="#9ca3af" stroke-width="1"/>
  <text x="973.16" y="372" font-size="10" fill="#6b7280" text-anchor="middle">2026-03-07</text>
  <line x1="980.00" y1="350" x2="980.00" y2="356" stroke="#9ca3af" stroke-width="1"/>
  <text x="980.00" y="372" font-size="10" fill="#6b7280" text-anchor="middle">2026-03-09</text>
  <polyline fill="none" stroke="#2563eb" stroke-width="2.5" points="70.00,337.79 73.42,339.53 76.84,290.70 80.26,325.58 83.68,311.63 87.11,344.77 90.53,337.79 93.95,339.53 97.37,323.84 100.79,346.51 104.21,343.02 107.63,336.05 111.05,339.53 114.47,318.60 117.89,346.51 121.32,336.05 124.74,329.07 128.16,316.86 131.58,320.35 135.00,334.30 138.42,302.91 141.84,332.56 145.26,318.60 148.68,50.00 152.11,294.19 155.53,329.07 158.95,301.16 162.37,329.07 165.79,339.53 169.21,320.35 172.63,329.07 176.05,271.51 179.47,320.35 182.89,329.07 186.32,318.60 189.74,346.51 193.16,325.58 196.58,336.05 200.00,337.79 203.42,329.07 206.84,339.53 210.26,323.84 213.68,318.60 217.11,322.09 220.53,323.84 223.95,295.93 227.37,343.02 230.79,343.02 234.21,301.16 237.63,346.51 241.05,309.88 244.47,301.16 247.89,337.79 251.32,336.05 254.74,327.33 258.16,343.02 261.58,346.51 265.00,339.53 268.42,337.79 271.84,339.53 275.26,315.12 278.68,336.05 282.11,297.67 285.53,339.53 288.95,343.02 292.37,332.56 295.79,308.14 299.21,315.12 302.63,325.58 306.05,318.60 309.47,308.14 312.89,346.51 316.32,322.09 319.74,290.70 323.16,332.56 326.58,343.02 330.00,336.05 333.42,339.53 336.84,336.05 340.26,336.05 343.68,332.56 347.11,299.42 350.53,323.84 353.95,343.02 357.37,332.56 360.79,346.51 364.21,332.56 367.63,332.56 371.05,332.56 374.47,337.79 377.89,336.05 381.32,336.05 384.74,343.02 388.16,336.05 391.58,343.02 395.00,325.58 398.42,295.93 401.84,325.58 405.26,346.51 408.68,315.12 412.11,346.51 415.53,346.51 418.95,336.05 422.37,341.28 425.79,346.51 429.21,330.81 432.63,336.05 436.05,346.51 439.47,334.30 442.89,343.02 446.32,332.56 449.74,332.56 453.16,346.51 456.58,336.05 460.00,325.58 463.42,336.05 466.84,336.05 470.26,346.51 473.68,330.81 477.11,346.51 480.53,339.53 483.95,343.02 487.37,283.72 490.79,327.33 494.21,325.58 497.63,346.51 501.05,336.05 504.47,343.02 507.89,302.91 511.32,343.02 514.74,322.09 518.16,329.07 521.58,311.63 525.00,343.02 528.42,301.16 531.84,301.16 535.26,332.56 538.68,346.51 542.11,262.79 545.53,337.79 548.95,346.51 552.37,336.05 555.79,336.05 559.21,311.63 562.63,339.53 566.05,343.02 569.47,339.53 572.89,346.51 576.32,336.05 579.74,343.02 583.16,346.51 586.58,339.53 590.00,332.56 593.42,343.02 596.84,341.28 600.26,301.16 603.68,320.35 607.11,336.05 610.53,315.12 613.95,334.30 617.37,336.05 620.79,336.05 624.21,311.63 627.63,318.60 631.05,325.58 634.47,302.91 637.89,339.53 641.32,343.02 644.74,316.86 648.16,301.16 651.58,280.23 655.00,306.40 658.42,332.56 661.84,346.51 665.26,336.05 668.68,301.16 672.11,299.42 675.53,323.84 678.95,304.65 682.37,336.05 685.79,343.02 689.21,329.07 692.63,332.56 696.05,339.53 699.47,325.58 702.89,339.53 706.32,343.02 709.74,343.02 713.16,343.02 716.58,346.51 720.00,334.30 723.42,330.81 726.84,329.07 730.26,332.56 733.68,313.37 737.11,346.51 740.53,329.07 743.95,343.02 747.37,299.42 750.79,323.84 754.21,336.05 757.63,329.07 761.05,325.58 764.47,339.53 767.89,343.02 771.32,339.53 774.74,325.58 778.16,346.51 781.58,343.02 785.00,325.58 788.42,327.33 791.84,334.30 795.26,332.56 798.68,329.07 802.11,306.40 805.53,332.56 808.95,332.56 812.37,346.51 815.79,330.81 819.21,325.58 822.63,332.56 826.05,327.33 829.47,322.09 832.89,325.58 836.32,330.81 839.74,339.53 843.16,318.60 846.58,320.35 850.00,313.37 853.42,343.02 856.84,339.53 860.26,334.30 863.68,339.53 867.11,276.74 870.53,304.65 873.95,325.58 877.37,325.58 880.79,339.53 884.21,343.02 887.63,316.86 891.05,330.81 894.47,304.65 897.89,336.05 901.32,318.60 904.74,336.05 908.16,346.51 911.58,336.05 915.00,323.84 918.42,309.88 921.84,320.35 925.26,334.30 928.68,341.28 932.11,325.58 935.53,313.37 938.95,299.42 942.37,309.88 945.79,315.12 949.21,325.58 952.63,336.05 956.05,323.84 959.47,322.09 962.89,337.79 966.32,332.56 969.74,302.91 973.16,343.02 976.58,336.05 980.00,343.02"/>
  <circle cx="70.00" cy="337.79" r="2.5" fill="#2563eb"/>
  <circle cx="73.42" cy="339.53" r="2.5" fill="#2563eb"/>
  <circle cx="76.84" cy="290.70" r="2.5" fill="#2563eb"/>
  <circle cx="80.26" cy="325.58" r="2.5" fill="#2563eb"/>
  <circle cx="83.68" cy="311.63" r="2.5" fill="#2563eb"/>
  <circle cx="87.11" cy="344.77" r="2.5" fill="#2563eb"/>
  <circle cx="90.53" cy="337.79" r="2.5" fill="#2563eb"/>
  <circle cx="93.95" cy="339.53" r="2.5" fill="#2563eb"/>
  <circle cx="97.37" cy="323.84" r="2.5" fill="#2563eb"/>
  <circle cx="100.79" cy="346.51" r="2.5" fill="#2563eb"/>
  <circle cx="104.21" cy="343.02" r="2.5" fill="#2563eb"/>
  <circle cx="107.63" cy="336.05" r="2.5" fill="#2563eb"/>
  <circle cx="111.05" cy="339.53" r="2.5" fill="#2563eb"/>
  <circle cx="114.47" cy="318.60" r="2.5" fill="#2563eb"/>
  <circle cx="117.89" cy="346.51" r="2.5" fill="#2563eb"/>
  <circle cx="121.32" cy="336.05" r="2.5" fill="#2563eb"/>
  <circle cx="124.74" cy="329.07" r="2.5" fill="#2563eb"/>
  <circle cx="128.16" cy="316.86" r="2.5" fill="#2563eb"/>
  <circle cx="131.58" cy="320.35" r="2.5" fill="#2563eb"/>
  <circle cx="135.00" cy="334.30" r="2.5" fill="#2563eb"/>
  <circle cx="138.42" cy="302.91" r="2.5" fill="#2563eb"/>
  <circle cx="141.84" cy="332.56" r="2.5" fill="#2563eb"/>
  <circle cx="145.26" cy="318.60" r="2.5" fill="#2563eb"/>
  <circle cx="148.68" cy="50.00" r="2.5" fill="#2563eb"/>
  <circle cx="152.11" cy="294.19" r="2.5" fill="#2563eb"/>
  <circle cx="155.53" cy="329.07" r="2.5" fill="#2563eb"/>
  <circle cx="158.95" cy="301.16" r="2.5" fill="#2563eb"/>
  <circle cx="162.37" cy="329.07" r="2.5" fill="#2563eb"/>
  <circle cx="165.79" cy="339.53" r="2.5" fill="#2563eb"/>
  <circle cx="169.21" cy="320.35" r="2.5" fill="#2563eb"/>
  <circle cx="172.63" cy="329.07" r="2.5" fill="#2563eb"/>
  <circle cx="176.05" cy="271.51" r="2.5" fill="#2563eb"/>
  <circle cx="179.47" cy="320.35" r="2.5" fill="#2563eb"/>
  <circle cx="182.89" cy="329.07" r="2.5" fill="#2563eb"/>
  <circle cx="186.32" cy="318.60" r="2.5" fill="#2563eb"/>
  <circle cx="189.74" cy="346.51" r="2.5" fill="#2563eb"/>
  <circle cx="193.16" cy="325.58" r="2.5" fill="#2563eb"/>
  <circle cx="196.58" cy="336.05" r="2.5" fill="#2563eb"/>
  <circle cx="200.00" cy="337.79" r="2.5" fill="#2563eb"/>
  <circle cx="203.42" cy="329.07" r="2.5" fill="#2563eb"/>
  <circle cx="206.84" cy="339.53" r="2.5" fill="#2563eb"/>
  <circle cx="210.26" cy="323.84" r="2.5" fill="#2563eb"/>
  <circle cx="213.68" cy="318.60" r="2.5" fill="#2563eb"/>
  <circle cx="217.11" cy="322.09" r="2.5" fill="#2563eb"/>
  <circle cx="220.53" cy="323.84" r="2.5" fill="#2563eb"/>
  <circle cx="223.95" cy="295.93" r="2.5" fill="#2563eb"/>
  <circle cx="227.37" cy="343.02" r="2.5" fill="#2563eb"/>
  <circle cx="230.79" cy="343.02" r="2.5" fill="#2563eb"/>
  <circle cx="234.21" cy="301.16" r="2.5" fill="#2563eb"/>
  <circle cx="237.63" cy="346.51" r="2.5" fill="#2563eb"/>
  <circle cx="241.05" cy="309.88" r="2.5" fill="#2563eb"/>
  <circle cx="244.47" cy="301.16" r="2.5" fill="#2563eb"/>
  <circle cx="247.89" cy="337.79" r="2.5" fill="#2563eb"/>
  <circle cx="251.32" cy="336.05" r="2.5" fill="#2563eb"/>
  <circle cx="254.74" cy="327.33" r="2.5" fill="#2563eb"/>
  <circle cx="258.16" cy="343.02" r="2.5" fill="#2563eb"/>
  <circle cx="261.58" cy="346.51" r="2.5" fill="#2563eb"/>
  <circle cx="265.00" cy="339.53" r="2.5" fill="#2563eb"/>
  <circle cx="268.42" cy="337.79" r="2.5" fill="#2563eb"/>
  <circle cx="271.84" cy="339.53" r="2.5" fill="#2563eb"/>
  <circle cx="275.26" cy="315.12" r="2.5" fill="#2563eb"/>
  <circle cx="278.68" cy="336.05" r="2.5" fill="#2563eb"/>
  <circle cx="282.11" cy="297.67" r="2.5" fill="#2563eb"/>
  <circle cx="285.53" cy="339.53" r="2.5" fill="#2563eb"/>
  <circle cx="288.95" cy="343.02" r="2.5" fill="#2563eb"/>
  <circle cx="292.37" cy="332.56" r="2.5" fill="#2563eb"/>
  <circle cx="295.79" cy="308.14" r="2.5" fill="#2563eb"/>
  <circle cx="299.21" cy="315.12" r="2.5" fill="#2563eb"/>
  <circle cx="302.63" cy="325.58" r="2.5" fill="#2563eb"/>
  <circle cx="306.05" cy="318.60" r="2.5" fill="#2563eb"/>
  <circle cx="309.47" cy="308.14" r="2.5" fill="#2563eb"/>
  <circle cx="312.89" cy="346.51" r="2.5" fill="#2563eb"/>
  <circle cx="316.32" cy="322.09" r="2.5" fill="#2563eb"/>
  <circle cx="319.74" cy="290.70" r="2.5" fill="#2563eb"/>
  <circle cx="323.16" cy="332.56" r="2.5" fill="#2563eb"/>
  <circle cx="326.58" cy="343.02" r="2.5" fill="#2563eb"/>
  <circle cx="330.00" cy="336.05" r="2.5" fill="#2563eb"/>
  <circle cx="333.42" cy="339.53" r="2.5" fill="#2563eb"/>
  <circle cx="336.84" cy="336.05" r="2.5" fill="#2563eb"/>
  <circle cx="340.26" cy="336.05" r="2.5" fill="#2563eb"/>
  <circle cx="343.68" cy="332.56" r="2.5" fill="#2563eb"/>
  <circle cx="347.11" cy="299.42" r="2.5" fill="#2563eb"/>
  <circle cx="350.53" cy="323.84" r="2.5" fill="#2563eb"/>
  <circle cx="353.95" cy="343.02" r="2.5" fill="#2563eb"/>
  <circle cx="357.37" cy="332.56" r="2.5" fill="#2563eb"/>
  <circle cx="360.79" cy="346.51" r="2.5" fill="#2563eb"/>
  <circle cx="364.21" cy="332.56" r="2.5" fill="#2563eb"/>
  <circle cx="367.63" cy="332.56" r="2.5" fill="#2563eb"/>
  <circle cx="371.05" cy="332.56" r="2.5" fill="#2563eb"/>
  <circle cx="374.47" cy="337.79" r="2.5" fill="#2563eb"/>
  <circle cx="377.89" cy="336.05" r="2.5" fill="#2563eb"/>
  <circle cx="381.32" cy="336.05" r="2.5" fill="#2563eb"/>
  <circle cx="384.74" cy="343.02" r="2.5" fill="#2563eb"/>
  <circle cx="388.16" cy="336.05" r="2.5" fill="#2563eb"/>
  <circle cx="391.58" cy="343.02" r="2.5" fill="#2563eb"/>
  <circle cx="395.00" cy="325.58" r="2.5" fill="#2563eb"/>
  <circle cx="398.42" cy="295.93" r="2.5" fill="#2563eb"/>
  <circle cx="401.84" cy="325.58" r="2.5" fill="#2563eb"/>
  <circle cx="405.26" cy="346.51" r="2.5" fill="#2563eb"/>
  <circle cx="408.68" cy="315.12" r="2.5" fill="#2563eb"/>
  <circle cx="412.11" cy="346.51" r="2.5" fill="#2563eb"/>
  <circle cx="415.53" cy="346.51" r="2.5" fill="#2563eb"/>
  <circle cx="418.95" cy="336.05" r="2.5" fill="#2563eb"/>
  <circle cx="422.37" cy="341.28" r="2.5" fill="#2563eb"/>
  <circle cx="425.79" cy="346.51" r="2.5" fill="#2563eb"/>
  <circle cx="429.21" cy="330.81" r="2.5" fill="#2563eb"/>
  <circle cx="432.63" cy="336.05" r="2.5" fill="#2563eb"/>
  <circle cx="436.05" cy="346.51" r="2.5" fill="#2563eb"/>
  <circle cx="439.47" cy="334.30" r="2.5" fill="#2563eb"/>
  <circle cx="442.89" cy="343.02" r="2.5" fill="#2563eb"/>
  <circle cx="446.32" cy="332.56" r="2.5" fill="#2563eb"/>
  <circle cx="449.74" cy="332.56" r="2.5" fill="#2563eb"/>
  <circle cx="453.16" cy="346.51" r="2.5" fill="#2563eb"/>
  <circle cx="456.58" cy="336.05" r="2.5" fill="#2563eb"/>
  <circle cx="460.00" cy="325.58" r="2.5" fill="#2563eb"/>
  <circle cx="463.42" cy="336.05" r="2.5" fill="#2563eb"/>
  <circle cx="466.84" cy="336.05" r="2.5" fill="#2563eb"/>
  <circle cx="470.26" cy="346.51" r="2.5" fill="#2563eb"/>
  <circle cx="473.68" cy="330.81" r="2.5" fill="#2563eb"/>
  <circle cx="477.11" cy="346.51" r="2.5" fill="#2563eb"/>
  <circle cx="480.53" cy="339.53" r="2.5" fill="#2563eb"/>
  <circle cx="483.95" cy="343.02" r="2.5" fill="#2563eb"/>
  <circle cx="487.37" cy="283.72" r="2.5" fill="#2563eb"/>
  <circle cx="490.79" cy="327.33" r="2.5" fill="#2563eb"/>
  <circle cx="494.21" cy="325.58" r="2.5" fill="#2563eb"/>
  <circle cx="497.63" cy="346.51" r="2.5" fill="#2563eb"/>
  <circle cx="501.05" cy="336.05" r="2.5" fill="#2563eb"/>
  <circle cx="504.47" cy="343.02" r="2.5" fill="#2563eb"/>
  <circle cx="507.89" cy="302.91" r="2.5" fill="#2563eb"/>
  <circle cx="511.32" cy="343.02" r="2.5" fill="#2563eb"/>
  <circle cx="514.74" cy="322.09" r="2.5" fill="#2563eb"/>
  <circle cx="518.16" cy="329.07" r="2.5" fill="#2563eb"/>
  <circle cx="521.58" cy="311.63" r="2.5" fill="#2563eb"/>
  <circle cx="525.00" cy="343.02" r="2.5" fill="#2563eb"/>
  <circle cx="528.42" cy="301.16" r="2.5" fill="#2563eb"/>
  <circle cx="531.84" cy="301.16" r="2.5" fill="#2563eb"/>
  <circle cx="535.26" cy="332.56" r="2.5" fill="#2563eb"/>
  <circle cx="538.68" cy="346.51" r="2.5" fill="#2563eb"/>
  <circle cx="542.11" cy="262.79" r="2.5" fill="#2563eb"/>
  <circle cx="545.53" cy="337.79" r="2.5" fill="#2563eb"/>
  <circle cx="548.95" cy="346.51" r="2.5" fill="#2563eb"/>
  <circle cx="552.37" cy="336.05" r="2.5" fill="#2563eb"/>
  <circle cx="555.79" cy="336.05" r="2.5" fill="#2563eb"/>
  <circle cx="559.21" cy="311.63" r="2.5" fill="#2563eb"/>
  <circle cx="562.63" cy="339.53" r="2.5" fill="#2563eb"/>
  <circle cx="566.05" cy="343.02" r="2.5" fill="#2563eb"/>
  <circle cx="569.47" cy="339.53" r="2.5" fill="#2563eb"/>
  <circle cx="572.89" cy="346.51" r="2.5" fill="#2563eb"/>
  <circle cx="576.32" cy="336.05" r="2.5" fill="#2563eb"/>
  <circle cx="579.74" cy="343.02" r="2.5" fill="#2563eb"/>
  <circle cx="583.16" cy="346.51" r="2.5" fill="#2563eb"/>
  <circle cx="586.58" cy="339.53" r="2.5" fill="#2563eb"/>
  <circle cx="590.00" cy="332.56" r="2.5" fill="#2563eb"/>
  <circle cx="593.42" cy="343.02" r="2.5" fill="#2563eb"/>
  <circle cx="596.84" cy="341.28" r="2.5" fill="#2563eb"/>
  <circle cx="600.26" cy="301.16" r="2.5" fill="#2563eb"/>
  <circle cx="603.68" cy="320.35" r="2.5" fill="#2563eb"/>
  <circle cx="607.11" cy="336.05" r="2.5" fill="#2563eb"/>
  <circle cx="610.53" cy="315.12" r="2.5" fill="#2563eb"/>
  <circle cx="613.95" cy="334.30" r="2.5" fill="#2563eb"/>
  <circle cx="617.37" cy="336.05" r="2.5" fill="#2563eb"/>
  <circle cx="620.79" cy="336.05" r="2.5" fill="#2563eb"/>
  <circle cx="624.21" cy="311.63" r="2.5" fill="#2563eb"/>
  <circle cx="627.63" cy="318.60" r="2.5" fill="#2563eb"/>
  <circle cx="631.05" cy="325.58" r="2.5" fill="#2563eb"/>
  <circle cx="634.47" cy="302.91" r="2.5" fill="#2563eb"/>
  <circle cx="637.89" cy="339.53" r="2.5" fill="#2563eb"/>
  <circle cx="641.32" cy="343.02" r="2.5" fill="#2563eb"/>
  <circle cx="644.74" cy="316.86" r="2.5" fill="#2563eb"/>
  <circle cx="648.16" cy="301.16" r="2.5" fill="#2563eb"/>
  <circle cx="651.58" cy="280.23" r="2.5" fill="#2563eb"/>
  <circle cx="655.00" cy="306.40" r="2.5" fill="#2563eb"/>
  <circle cx="658.42" cy="332.56" r="2.5" fill="#2563eb"/>
  <circle cx="661.84" cy="346.51" r="2.5" fill="#2563eb"/>
  <circle cx="665.26" cy="336.05" r="2.5" fill="#2563eb"/>
  <circle cx="668.68" cy="301.16" r="2.5" fill="#2563eb"/>
  <circle cx="672.11" cy="299.42" r="2.5" fill="#2563eb"/>
  <circle cx="675.53" cy="323.84" r="2.5" fill="#2563eb"/>
  <circle cx="678.95" cy="304.65" r="2.5" fill="#2563eb"/>
  <circle cx="682.37" cy="336.05" r="2.5" fill="#2563eb"/>
  <circle cx="685.79" cy="343.02" r="2.5" fill="#2563eb"/>
  <circle cx="689.21" cy="329.07" r="2.5" fill="#2563eb"/>
  <circle cx="692.63" cy="332.56" r="2.5" fill="#2563eb"/>
  <circle cx="696.05" cy="339.53" r="2.5" fill="#2563eb"/>
  <circle cx="699.47" cy="325.58" r="2.5" fill="#2563eb"/>
  <circle cx="702.89" cy="339.53" r="2.5" fill="#2563eb"/>
  <circle cx="706.32" cy="343.02" r="2.5" fill="#2563eb"/>
  <circle cx="709.74" cy="343.02" r="2.5" fill="#2563eb"/>
  <circle cx="713.16" cy="343.02" r="2.5" fill="#2563eb"/>
  <circle cx="716.58" cy="346.51" r="2.5" fill="#2563eb"/>
  <circle cx="720.00" cy="334.30" r="2.5" fill="#2563eb"/>
  <circle cx="723.42" cy="330.81" r="2.5" fill="#2563eb"/>
  <circle cx="726.84" cy="329.07" r="2.5" fill="#2563eb"/>
  <circle cx="730.26" cy="332.56" r="2.5" fill="#2563eb"/>
  <circle cx="733.68" cy="313.37" r="2.5" fill="#2563eb"/>
  <circle cx="737.11" cy="346.51" r="2.5" fill="#2563eb"/>
  <circle cx="740.53" cy="329.07" r="2.5" fill="#2563eb"/>
  <circle cx="743.95" cy="343.02" r="2.5" fill="#2563eb"/>
  <circle cx="747.37" cy="299.42" r="2.5" fill="#2563eb"/>
  <circle cx="750.79" cy="323.84" r="2.5" fill="#2563eb"/>
  <circle cx="754.21" cy="336.05" r="2.5" fill="#2563eb"/>
  <circle cx="757.63" cy="329.07" r="2.5" fill="#2563eb"/>
  <circle cx="761.05" cy="325.58" r="2.5" fill="#2563eb"/>
  <circle cx="764.47" cy="339.53" r="2.5" fill="#2563eb"/>
  <circle cx="767.89" cy="343.02" r="2.5" fill="#2563eb"/>
  <circle cx="771.32" cy="339.53" r="2.5" fill="#2563eb"/>
  <circle cx="774.74" cy="325.58" r="2.5" fill="#2563eb"/>
  <circle cx="778.16" cy="346.51" r="2.5" fill="#2563eb"/>
  <circle cx="781.58" cy="343.02" r="2.5" fill="#2563eb"/>
  <circle cx="785.00" cy="325.58" r="2.5" fill="#2563eb"/>
  <circle cx="788.42" cy="327.33" r="2.5" fill="#2563eb"/>
  <circle cx="791.84" cy="334.30" r="2.5" fill="#2563eb"/>
  <circle cx="795.26" cy="332.56" r="2.5" fill="#2563eb"/>
  <circle cx="798.68" cy="329.07" r="2.5" fill="#2563eb"/>
  <circle cx="802.11" cy="306.40" r="2.5" fill="#2563eb"/>
  <circle cx="805.53" cy="332.56" r="2.5" fill="#2563eb"/>
  <circle cx="808.95" cy="332.56" r="2.5" fill="#2563eb"/>
  <circle cx="812.37" cy="346.51" r="2.5" fill="#2563eb"/>
  <circle cx="815.79" cy="330.81" r="2.5" fill="#2563eb"/>
  <circle cx="819.21" cy="325.58" r="2.5" fill="#2563eb"/>
  <circle cx="822.63" cy="332.56" r="2.5" fill="#2563eb"/>
  <circle cx="826.05" cy="327.33" r="2.5" fill="#2563eb"/>
  <circle cx="829.47" cy="322.09" r="2.5" fill="#2563eb"/>
  <circle cx="832.89" cy="325.58" r="2.5" fill="#2563eb"/>
  <circle cx="836.32" cy="330.81" r="2.5" fill="#2563eb"/>
  <circle cx="839.74" cy="339.53" r="2.5" fill="#2563eb"/>
  <circle cx="843.16" cy="318.60" r="2.5" fill="#2563eb"/>
  <circle cx="846.58" cy="320.35" r="2.5" fill="#2563eb"/>
  <circle cx="850.00" cy="313.37" r="2.5" fill="#2563eb"/>
  <circle cx="853.42" cy="343.02" r="2.5" fill="#2563eb"/>
  <circle cx="856.84" cy="339.53" r="2.5" fill="#2563eb"/>
  <circle cx="860.26" cy="334.30" r="2.5" fill="#2563eb"/>
  <circle cx="863.68" cy="339.53" r="2.5" fill="#2563eb"/>
  <circle cx="867.11" cy="276.74" r="2.5" fill="#2563eb"/>
  <circle cx="870.53" cy="304.65" r="2.5" fill="#2563eb"/>
  <circle cx="873.95" cy="325.58" r="2.5" fill="#2563eb"/>
  <circle cx="877.37" cy="325.58" r="2.5" fill="#2563eb"/>
  <circle cx="880.79" cy="339.53" r="2.5" fill="#2563eb"/>
  <circle cx="884.21" cy="343.02" r="2.5" fill="#2563eb"/>
  <circle cx="887.63" cy="316.86" r="2.5" fill="#2563eb"/>
  <circle cx="891.05" cy="330.81" r="2.5" fill="#2563eb"/>
  <circle cx="894.47" cy="304.65" r="2.5" fill="#2563eb"/>
  <circle cx="897.89" cy="336.05" r="2.5" fill="#2563eb"/>
  <circle cx="901.32" cy="318.60" r="2.5" fill="#2563eb"/>
  <circle cx="904.74" cy="336.05" r="2.5" fill="#2563eb"/>
  <circle cx="908.16" cy="346.51" r="2.5" fill="#2563eb"/>
  <circle cx="911.58" cy="336.05" r="2.5" fill="#2563eb"/>
  <circle cx="915.00" cy="323.84" r="2.5" fill="#2563eb"/>
  <circle cx="918.42" cy="309.88" r="2.5" fill="#2563eb"/>
  <circle cx="921.84" cy="320.35" r="2.5" fill="#2563eb"/>
  <circle cx="925.26" cy="334.30" r="2.5" fill="#2563eb"/>
  <circle cx="928.68" cy="341.28" r="2.5" fill="#2563eb"/>
  <circle cx="932.11" cy="325.58" r="2.5" fill="#2563eb"/>
  <circle cx="935.53" cy="313.37" r="2.5" fill="#2563eb"/>
  <circle cx="938.95" cy="299.42" r="2.5" fill="#2563eb"/>
  <circle cx="942.37" cy="309.88" r="2.5" fill="#2563eb"/>
  <circle cx="945.79" cy="315.12" r="2.5" fill="#2563eb"/>
  <circle cx="949.21" cy="325.58" r="2.5" fill="#2563eb"/>
  <circle cx="952.63" cy="336.05" r="2.5" fill="#2563eb"/>
  <circle cx="956.05" cy="323.84" r="2.5" fill="#2563eb"/>
  <circle cx="959.47" cy="322.09" r="2.5" fill="#2563eb"/>
  <circle cx="962.89" cy="337.79" r="2.5" fill="#2563eb"/>
  <circle cx="966.32" cy="332.56" r="2.5" fill="#2563eb"/>
  <circle cx="969.74" cy="302.91" r="2.5" fill="#2563eb"/>
  <circle cx="973.16" cy="343.02" r="2.5" fill="#2563eb"/>
  <circle cx="976.58" cy="336.05" r="2.5" fill="#2563eb"/>
  <circle cx="980.00" cy="343.02" r="2.5" fill="#2563eb"/>
</svg>
