<?xml version="1.0" encoding="UTF-8"?>
<svg xmlns="http://www.w3.org/2000/svg" width="1000" height="420" viewBox="0 0 1000 420">
  <rect width="100%" height="100%" fill="#ffffff"/>
  <text x="70" y="28" font-size="20" font-weight="600">개설 시점 기준 - 일별 신규 강의</text>
  <text x="70" y="402" font-size="12" fill="#555">강의 수</text>
  <line x1="70" y1="350.00" x2="980" y2="350.00" stroke="#e5e7eb" stroke-width="1"/>
  <text x="62" y="354.00" font-size="11" fill="#6b7280" text-anchor="end">0</text>
  <line x1="70" y1="290.00" x2="980" y2="290.00" stroke="#e5e7eb" stroke-width="1"/>
  <text x="62" y="294.00" font-size="11" fill="#6b7280" text-anchor="end">30</text>
  <line x1="70" y1="230.00" x2="980" y2="230.00" stroke="#e5e7eb" stroke-width="1"/>
  <text x="62" y="234.00" font-size="11" fill="#6b7280" text-anchor="end">60</text>
  <line x1="70" y1="170.00" x2="980" y2="170.00" stroke="#e5e7eb" stroke-width="1"/>
  <text x="62" y="174.00" font-size="11" fill="#6b7280" text-anchor="end">91</text>
  <line x1="70" y1="110.00" x2="980" y2="110.00" stroke="#e5e7eb" stroke-width="1"/>
  <text x="62" y="114.00" font-size="11" fill="#6b7280" text-anchor="end">121</text>
  <line x1="70" y1="50.00" x2="980" y2="50.00" stroke="#e5e7eb" stroke-width="1"/>
  <text x="62" y="54.00" font-size="11" fill="#6b7280" text-anchor="end">152</text>
  <line x1="70" y1="350" x2="980" y2="350" stroke="#111827" stroke-width="1.2"/>
  <line x1="70" y1="50" x2="70" y2="350" stroke="#111827" stroke-width="1.2"/>
  <line x1="70.00" y1="350" x2="70.00" y2="356" stroke="#9ca3af" stroke-width="1"/>
  <text x="70.00" y="372" font-size="10" fill="#6b7280" text-anchor="middle">2025-04-07</text>
  <line x1="144.48" y1="350" x2="144.48" y2="356" stroke="#9ca3af" stroke-width="1"/>
  <text x="144.48" y="372" font-size="10" fill="#6b7280" text-anchor="middle">2025-05-12</text>
  <line x1="218.97" y1="350" x2="218.97" y2="356" stroke="#9ca3af" stroke-width="1"/>
  <text x="218.97" y="372" font-size="10" fill="#6b7280" text-anchor="middle">2025-06-16</text>
  <line x1="293.45" y1="350" x2="293.45" y2="356" stroke="#9ca3af" stroke-width="1"/>
  <text x="293.45" y="372" font-size="10" fill="#6b7280" text-anchor="middle">2025-07-14</text>
  <line x1="367.94" y1="350" x2="367.94" y2="356" stroke="#9ca3af" stroke-width="1"/>
  <text x="367.94" y="372" font-size="10" fill="#6b7280" text-anchor="middle">2025-08-08</text>
  <line x1="442.42" y1="350" x2="442.42" y2="356" stroke="#9ca3af" stroke-width="1"/>
  <text x="442.42" y="372" font-size="10" fill="#6b7280" text-anchor="middle">2025-09-06</text>
  <line x1="516.90" y1="350" x2="516.90" y2="356" stroke="#9ca3af" stroke-width="1"/>
  <text x="516.90" y="372" font-size="10" fill="#6b7280" text-anchor="middle">2025-10-02</text>
  <line x1="591.39" y1="350" x2="591.39" y2="356" stroke="#9ca3af" stroke-width="1"/>
  <text x="591.39" y="372" font-size="10" fill="#6b7280" text-anchor="middle">2025-11-01</text>
  <line x1="665.87" y1="350" x2="665.87" y2="356" stroke="#9ca3af" stroke-width="1"/>
  <text x="665.87" y="372" font-size="10" fill="#6b7280" text-anchor="middle">2025-11-25</text>
  <line x1="740.36" y1="350" x2="740.36" y2="356" stroke="#9ca3af" stroke-width="1"/>
  <text x="740.36" y="372" font-size="10" fill="#6b7280" text-anchor="middle">2025-12-22</text>
  <line x1="814.84" y1="350" x2="814.84" y2="356" stroke="#9ca3af" stroke-width="1"/>
  <text x="814.84" y="372" font-size="10" fill="#6b7280" text-anchor="middle">2026-01-15</text>
  <line x1="889.32" y1="350" x2="889.32" y2="356" stroke="#9ca3af" stroke-width="1"/>
  <text x="889.32" y="372" font-size="10" fill="#6b7280" text-anchor="middle">2026-02-07</text>
  <line x1="963.81" y1="350" x2="963.81" y2="356" stroke="#9ca3af" stroke-width="1"/>
  <text x="963.81" y="372" font-size="10" fill="#6b7280" text-anchor="middle">2026-03-04</text>
  <line x1="980.00" y1="350" x2="980.00" y2="356" stroke="#9ca3af" stroke-width="1"/>
  <text x="980.00" y="372" font-size="10" fill="#6b7280" text-anchor="middle">2026-03-09</text>
  <polyline fill="none" stroke="#2563eb" stroke-width="2.5" points="70.00,322.37 73.24,306.58 76.48,326.32 79.72,346.05 82.95,326.32 86.19,342.11 89.43,314.47 92.67,336.18 95.91,340.13 99.15,334.21 102.38,330.26 105.62,338.16 108.86,338.16 112.10,342.11 115.34,306.58 118.58,342.11 121.81,338.16 125.05,282.89 128.29,330.26 131.53,306.58 134.77,344.08 138.01,338.16 141.25,338.16 144.48,326.32 147.72,346.05 150.96,342.11 154.20,338.16 157.44,342.11 160.68,314.47 163.91,346.05 167.15,334.21 170.39,326.32 173.63,318.42 176.87,316.45 180.11,332.24 183.35,306.58 186.58,330.26 189.82,318.42 193.06,50.00 196.30,294.74 199.54,326.32 202.78,294.74 206.01,328.29 209.25,338.16 212.49,324.34 215.73,326.32 218.97,273.03 222.21,320.39 225.44,326.32 228.68,326.32 231.92,346.05 235.16,322.37 238.40,334.21 241.64,338.16 244.88,326.32 248.11,338.16 251.35,322.37 254.59,318.42 257.83,318.42 261.07,324.34 264.31,292.76 267.54,342.11 270.78,346.05 274.02,302.63 277.26,346.05 280.50,308.55 283.74,298.68 286.98,336.18 290.21,334.21 293.45,326.32 296.69,342.11 299.93,346.05 303.17,342.11 306.41,338.16 309.64,338.16 312.88,318.42 316.12,334.21 319.36,294.74 322.60,338.16 325.84,342.11 329.07,330.26 332.31,310.53 335.55,314.47 338.79,330.26 342.03,326.32 345.27,312.50 348.51,346.05 351.74,318.42 354.98,290.79 358.22,334.21 361.46,346.05 364.70,334.21 367.94,338.16 371.17,338.16 374.41,338.16 377.65,334.21 380.89,302.63 384.13,326.32 387.37,342.11 390.60,338.16 393.84,346.05 397.08,334.21 400.32,330.26 403.56,330.26 406.80,338.16 410.04,334.21 413.27,334.21 416.51,342.11 419.75,338.16 422.99,342.11 426.23,326.32 429.47,294.74 432.70,330.26 435.94,346.05 439.18,310.53 442.42,346.05 445.66,346.05 448.90,334.21 452.14,340.13 455.37,346.05 458.61,332.24 461.85,338.16 465.09,346.05 468.33,332.24 471.57,342.11 474.80,334.21 478.04,330.26 481.28,346.05 484.52,338.16 487.76,328.29 491.00,334.21 494.23,334.21 497.47,346.05 500.71,336.18 503.95,346.05 507.19,338.16 510.43,342.11 513.67,286.84 516.90,330.26 520.14,326.32 523.38,346.05 526.62,338.16 529.86,342.11 533.10,298.68 536.33,342.11 539.57,320.39 542.81,330.26 546.05,318.42 549.29,342.11 552.53,302.63 555.77,294.74 559.00,330.26 562.24,346.05 565.48,265.13 568.72,340.13 571.96,346.05 575.20,334.21 578.43,338.16 581.67,318.42 584.91,342.11 588.15,342.11 591.39,338.16 594.63,346.05 597.86,338.16 601.10,342.11 604.34,346.05 607.58,338.16 610.82,334.21 614.06,342.11 617.30,340.13 620.53,304.61 623.77,318.42 627.01,334.21 630.25,310.53 633.49,332.24 636.73,334.21 639.96,334.21 643.20,306.58 646.44,318.42 649.68,322.37 652.92,308.55 656.16,338.16 659.40,342.11 662.63,312.50 665.87,306.58 669.11,276.97 672.35,306.58 675.59,330.26 678.83,346.05 682.06,334.21 685.30,302.63 688.54,296.71 691.78,320.39 695.02,300.66 698.26,334.21 701.49,342.11 704.73,330.26 707.97,330.26 711.21,342.11 714.45,322.37 717.69,338.16 720.93,342.11 724.16,342.11 727.40,342.11 730.64,346.05 733.88,332.24 737.12,328.29 740.36,334.21 743.59,330.26 746.83,314.47 750.07,346.05 753.31,326.32 756.55,342.11 759.79,296.71 763.02,320.39 766.26,334.21 769.50,326.32 772.74,322.37 775.98,342.11 779.22,342.11 782.46,338.16 785.69,322.37 788.93,346.05 792.17,342.11 795.41,324.34 798.65,328.29 801.89,338.16 805.12,338.16 808.36,332.24 811.60,306.58 814.84,330.26 818.08,334.21 821.32,346.05 824.56,328.29 827.79,322.37 831.03,334.21 834.27,324.34 837.51,318.42 840.75,322.37 843.99,330.26 847.22,338.16 850.46,314.47 853.70,316.45 856.94,310.53 860.18,342.11 863.42,338.16 866.65,332.24 869.89,342.11 873.13,275.00 876.37,302.63 879.61,322.37 882.85,330.26 886.09,338.16 889.32,342.11 892.56,314.47 895.80,328.29 899.04,302.63 902.28,334.21 905.52,318.42 908.75,334.21 911.99,346.05 915.23,334.21 918.47,324.34 921.71,310.53 924.95,318.42 928.19,332.24 931.42,342.11 934.66,326.32 937.90,314.47 941.14,296.71 944.38,306.58 947.62,316.45 950.85,326.32 954.09,334.21 957.33,324.34 960.57,318.42 963.81,336.18 967.05,330.26 970.28,302.63 973.52,342.11 976.76,338.16 980.00,346.05"/>
  <circle cx="70.00" cy="322.37" r="2.5" fill="#2563eb"/>
  <circle cx="73.24" cy="306.58" r="2.5" fill="#2563eb"/>
  <circle cx="76.48" cy="326.32" r="2.5" fill="#2563eb"/>
  <circle cx="79.72" cy="346.05" r="2.5" fill="#2563eb"/>
  <circle cx="82.95" cy="326.32" r="2.5" fill="#2563eb"/>
  <circle cx="86.19" cy="342.11" r="2.5" fill="#2563eb"/>
  <circle cx="89.43" cy="314.47" r="2.5" fill="#2563eb"/>
  <circle cx="92.67" cy="336.18" r="2.5" fill="#2563eb"/>
  <circle cx="95.91" cy="340.13" r="2.5" fill="#2563eb"/>
  <circle cx="99.15" cy="334.21" r="2.5" fill="#2563eb"/>
  <circle cx="102.38" cy="330.26" r="2.5" fill="#2563eb"/>
  <circle cx="105.62" cy="338.16" r="2.5" fill="#2563eb"/>
  <circle cx="108.86" cy="338.16" r="2.5" fill="#2563eb"/>
  <circle cx="112.10" cy="342.11" r="2.5" fill="#2563eb"/>
  <circle cx="115.34" cy="306.58" r="2.5" fill="#2563eb"/>
  <circle cx="118.58" cy="342.11" r="2.5" fill="#2563eb"/>
  <circle cx="121.81" cy="338.16" r="2.5" fill="#2563eb"/>
  <circle cx="125.05" cy="282.89" r="2.5" fill="#2563eb"/>
  <circle cx="128.29" cy="330.26" r="2.5" fill="#2563eb"/>
  <circle cx="131.53" cy="306.58" r="2.5" fill="#2563eb"/>
  <circle cx="134.77" cy="344.08" r="2.5" fill="#2563eb"/>
  <circle cx="138.01" cy="338.16" r="2.5" fill="#2563eb"/>
  <circle cx="141.25" cy="338.16" r="2.5" fill="#2563eb"/>
  <circle cx="144.48" cy="326.32" r="2.5" fill="#2563eb"/>
  <circle cx="147.72" cy="346.05" r="2.5" fill="#2563eb"/>
  <circle cx="150.96" cy="342.11" r="2.5" fill="#2563eb"/>
  <circle cx="154.20" cy="338.16" r="2.5" fill="#2563eb"/>
  <circle cx="157.44" cy="342.11" r="2.5" fill="#2563eb"/>
  <circle cx="160.68" cy="314.47" r="2.5" fill="#2563eb"/>
  <circle cx="163.91" cy="346.05" r="2.5" fill="#2563eb"/>
  <circle cx="167.15" cy="334.21" r="2.5" fill="#2563eb"/>
  <circle cx="170.39" cy="326.32" r="2.5" fill="#2563eb"/>
  <circle cx="173.63" cy="318.42" r="2.5" fill="#2563eb"/>
  <circle cx="176.87" cy="316.45" r="2.5" fill="#2563eb"/>
  <circle cx="180.11" cy="332.24" r="2.5" fill="#2563eb"/>
  <circle cx="183.35" cy="306.58" r="2.5" fill="#2563eb"/>
  <circle cx="186.58" cy="330.26" r="2.5" fill="#2563eb"/>
  <circle cx="189.82" cy="318.42" r="2.5" fill="#2563eb"/>
  <circle cx="193.06" cy="50.00" r="2.5" fill="#2563eb"/>
  <circle cx="196.30" cy="294.74" r="2.5" fill="#2563eb"/>
  <circle cx="199.54" cy="326.32" r="2.5" fill="#2563eb"/>
  <circle cx="202.78" cy="294.74" r="2.5" fill="#2563eb"/>
  <circle cx="206.01" cy="328.29" r="2.5" fill="#2563eb"/>
  <circle cx="209.25" cy="338.16" r="2.5" fill="#2563eb"/>
  <circle cx="212.49" cy="324.34" r="2.5" fill="#2563eb"/>
  <circle cx="215.73" cy="326.32" r="2.5" fill="#2563eb"/>
  <circle cx="218.97" cy="273.03" r="2.5" fill="#2563eb"/>
  <circle cx="222.21" cy="320.39" r="2.5" fill="#2563eb"/>
  <circle cx="225.44" cy="326.32" r="2.5" fill="#2563eb"/>
  <circle cx="228.68" cy="326.32" r="2.5" fill="#2563eb"/>
  <circle cx="231.92" cy="346.05" r="2.5" fill="#2563eb"/>
  <circle cx="235.16" cy="322.37" r="2.5" fill="#2563eb"/>
  <circle cx="238.40" cy="334.21" r="2.5" fill="#2563eb"/>
  <circle cx="241.64" cy="338.16" r="2.5" fill="#2563eb"/>
  <circle cx="244.88" cy="326.32" r="2.5" fill="#2563eb"/>
  <circle cx="248.11" cy="338.16" r="2.5" fill="#2563eb"/>
  <circle cx="251.35" cy="322.37" r="2.5" fill="#2563eb"/>
  <circle cx="254.59" cy="318.42" r="2.5" fill="#2563eb"/>
  <circle cx="257.83" cy="318.42" r="2.5" fill="#2563eb"/>
  <circle cx="261.07" cy="324.34" r="2.5" fill="#2563eb"/>
  <circle cx="264.31" cy="292.76" r="2.5" fill="#2563eb"/>
  <circle cx="267.54" cy="342.11" r="2.5" fill="#2563eb"/>
  <circle cx="270.78" cy="346.05" r="2.5" fill="#2563eb"/>
  <circle cx="274.02" cy="302.63" r="2.5" fill="#2563eb"/>
  <circle cx="277.26" cy="346.05" r="2.5" fill="#2563eb"/>
  <circle cx="280.50" cy="308.55" r="2.5" fill="#2563eb"/>
  <circle cx="283.74" cy="298.68" r="2.5" fill="#2563eb"/>
  <circle cx="286.98" cy="336.18" r="2.5" fill="#2563eb"/>
  <circle cx="290.21" cy="334.21" r="2.5" fill="#2563eb"/>
  <circle cx="293.45" cy="326.32" r="2.5" fill="#2563eb"/>
  <circle cx="296.69" cy="342.11" r="2.5" fill="#2563eb"/>
  <circle cx="299.93" cy="346.05" r="2.5" fill="#2563eb"/>
  <circle cx="303.17" cy="342.11" r="2.5" fill="#2563eb"/>
  <circle cx="306.41" cy="338.16" r="2.5" fill="#2563eb"/>
  <circle cx="309.64" cy="338.16" r="2.5" fill="#2563eb"/>
  <circle cx="312.88" cy="318.42" r="2.5" fill="#2563eb"/>
  <circle cx="316.12" cy="334.21" r="2.5" fill="#2563eb"/>
  <circle cx="319.36" cy="294.74" r="2.5" fill="#2563eb"/>
  <circle cx="322.60" cy="338.16" r="2.5" fill="#2563eb"/>
  <circle cx="325.84" cy="342.11" r="2.5" fill="#2563eb"/>
  <circle cx="329.07" cy="330.26" r="2.5" fill="#2563eb"/>
  <circle cx="332.31" cy="310.53" r="2.5" fill="#2563eb"/>
  <circle cx="335.55" cy="314.47" r="2.5" fill="#2563eb"/>
  <circle cx="338.79" cy="330.26" r="2.5" fill="#2563eb"/>
  <circle cx="342.03" cy="326.32" r="2.5" fill="#2563eb"/>
  <circle cx="345.27" cy="312.50" r="2.5" fill="#2563eb"/>
  <circle cx="348.51" cy="346.05" r="2.5" fill="#2563eb"/>
  <circle cx="351.74" cy="318.42" r="2.5" fill="#2563eb"/>
  <circle cx="354.98" cy="290.79" r="2.5" fill="#2563eb"/>
  <circle cx="358.22" cy="334.21" r="2.5" fill="#2563eb"/>
  <circle cx="361.46" cy="346.05" r="2.5" fill="#2563eb"/>
  <circle cx="364.70" cy="334.21" r="2.5" fill="#2563eb"/>
  <circle cx="367.94" cy="338.16" r="2.5" fill="#2563eb"/>
  <circle cx="371.17" cy="338.16" r="2.5" fill="#2563eb"/>
  <circle cx="374.41" cy="338.16" r="2.5" fill="#2563eb"/>
  <circle cx="377.65" cy="334.21" r="2.5" fill="#2563eb"/>
  <circle cx="380.89" cy="302.63" r="2.5" fill="#2563eb"/>
  <circle cx="384.13" cy="326.32" r="2.5" fill="#2563eb"/>
  <circle cx="387.37" cy="342.11" r="2.5" fill="#2563eb"/>
  <circle cx="390.60" cy="338.16" r="2.5" fill="#2563eb"/>
  <circle cx="393.84" cy="346.05" r="2.5" fill="#2563eb"/>
  <circle cx="397.08" cy="334.21" r="2.5" fill="#2563eb"/>
  <circle cx="400.32" cy="330.26" r="2.5" fill="#2563eb"/>
  <circle cx="403.56" cy="330.26" r="2.5" fill="#2563eb"/>
  <circle cx="406.80" cy="338.16" r="2.5" fill="#2563eb"/>
  <circle cx="410.04" cy="334.21" r="2.5" fill="#2563eb"/>
  <circle cx="413.27" cy="334.21" r="2.5" fill="#2563eb"/>
  <circle cx="416.51" cy="342.11" r="2.5" fill="#2563eb"/>
  <circle cx="419.75" cy="338.16" r="2.5" fill="#2563eb"/>
  <circle cx="422.99" cy="342.11" r="2.5" fill="#2563eb"/>
  <circle cx="426.23" cy="326.32" r="2.5" fill="#2563eb"/>
  <circle cx="429.47" cy="294.74" r="2.5" fill="#2563eb"/>
  <circle cx="432.70" cy="330.26" r="2.5" fill="#2563eb"/>
  <circle cx="435.94" cy="346.05" r="2.5" fill="#2563eb"/>
  <circle cx="439.18" cy="310.53" r="2.5" fill="#2563eb"/>
  <circle cx="442.42" cy="346.05" r="2.5" fill="#2563eb"/>
  <circle cx="445.66" cy="346.05" r="2.5" fill="#2563eb"/>
  <circle cx="448.90" cy="334.21" r="2.5" fill="#2563eb"/>
  <circle cx="452.14" cy="340.13" r="2.5" fill="#2563eb"/>
  <circle cx="455.37" cy="346.05" r="2.5" fill="#2563eb"/>
  <circle cx="458.61" cy="332.24" r="2.5" fill="#2563eb"/>
  <circle cx="461.85" cy="338.16" r="2.5" fill="#2563eb"/>
  <circle cx="465.09" cy="346.05" r="2.5" fill="#2563eb"/>
  <circle cx="468.33" cy="332.24" r="2.5" fill="#2563eb"/>
  <circle cx="471.57" cy="342.11" r="2.5" fill="#2563eb"/>
  <circle cx="474.80" cy="334.21" r="2.5" fill="#2563eb"/>
  <circle cx="478.04" cy="330.26" r="2.5" fill="#2563eb"/>
  <circle cx="481.28" cy="346.05" r="2.5" fill="#2563eb"/>
  <circle cx="484.52" cy="338.16" r="2.5" fill="#2563eb"/>
  <circle cx="487.76" cy="328.29" r="2.5" fill="#2563eb"/>
  <circle cx="491.00" cy="334.21" r="2.5" fill="#2563eb"/>
  <circle cx="494.23" cy="334.21" r="2.5" fill="#2563eb"/>
  <circle cx="497.47" cy="346.05" r="2.5" fill="#2563eb"/>
  <circle cx="500.71" cy="336.18" r="2.5" fill="#2563eb"/>
  <circle cx="503.95" cy="346.05" r="2.5" fill="#2563eb"/>
  <circle cx="507.19" cy="338.16" r="2.5" fill="#2563eb"/>
  <circle cx="510.43" cy="342.11" r="2.5" fill="#2563eb"/>
  <circle cx="513.67" cy="286.84" r="2.5" fill="#2563eb"/>
  <circle cx="516.90" cy="330.26" r="2.5" fill="#2563eb"/>
  <circle cx="520.14" cy="326.32" r="2.5" fill="#2563eb"/>
  <circle cx="523.38" cy="346.05" r="2.5" fill="#2563eb"/>
  <circle cx="526.62" cy="338.16" r="2.5" fill="#2563eb"/>
  <circle cx="529.86" cy="342.11" r="2.5" fill="#2563eb"/>
  <circle cx="533.10" cy="298.68" r="2.5" fill="#2563eb"/>
  <circle cx="536.33" cy="342.11" r="2.5" fill="#2563eb"/>
  <circle cx="539.57" cy="320.39" r="2.5" fill="#2563eb"/>
  <circle cx="542.81" cy="330.26" r="2.5" fill="#2563eb"/>
  <circle cx="546.05" cy="318.42" r="2.5" fill="#2563eb"/>
  <circle cx="549.29" cy="342.11" r="2.5" fill="#2563eb"/>
  <circle cx="552.53" cy="302.63" r="2.5" fill="#2563eb"/>
  <circle cx="555.77" cy="294.74" r="2.5" fill="#2563eb"/>
  <circle cx="559.00" cy="330.26" r="2.5" fill="#2563eb"/>
  <circle cx="562.24" cy="346.05" r="2.5" fill="#2563eb"/>
  <circle cx="565.48" cy="265.13" r="2.5" fill="#2563eb"/>
  <circle cx="568.72" cy="340.13" r="2.5" fill="#2563eb"/>
  <circle cx="571.96" cy="346.05" r="2.5" fill="#2563eb"/>
  <circle cx="575.20" cy="334.21" r="2.5" fill="#2563eb"/>
  <circle cx="578.43" cy="338.16" r="2.5" fill="#2563eb"/>
  <circle cx="581.67" cy="318.42" r="2.5" fill="#2563eb"/>
  <circle cx="584.91" cy="342.11" r="2.5" fill="#2563eb"/>
  <circle cx="588.15" cy="342.11" r="2.5" fill="#2563eb"/>
  <circle cx="591.39" cy="338.16" r="2.5" fill="#2563eb"/>
  <circle cx="594.63" cy="346.05" r="2.5" fill="#2563eb"/>
  <circle cx="597.86" cy="338.16" r="2.5" fill="#2563eb"/>
  <circle cx="601.10" cy="342.11" r="2.5" fill="#2563eb"/>
  <circle cx="604.34" cy="346.05" r="2.5" fill="#2563eb"/>
  <circle cx="607.58" cy="338.16" r="2.5" fill="#2563eb"/>
  <circle cx="610.82" cy="334.21" r="2.5" fill="#2563eb"/>
  <circle cx="614.06" cy="342.11" r="2.5" fill="#2563eb"/>
  <circle cx="617.30" cy="340.13" r="2.5" fill="#2563eb"/>
  <circle cx="620.53" cy="304.61" r="2.5" fill="#2563eb"/>
  <circle cx="623.77" cy="318.42" r="2.5" fill="#2563eb"/>
  <circle cx="627.01" cy="334.21" r="2.5" fill="#2563eb"/>
  <circle cx="630.25" cy="310.53" r="2.5" fill="#2563eb"/>
  <circle cx="633.49" cy="332.24" r="2.5" fill="#2563eb"/>
  <circle cx="636.73" cy="334.21" r="2.5" fill="#2563eb"/>
  <circle cx="639.96" cy="334.21" r="2.5" fill="#2563eb"/>
  <circle cx="643.20" cy="306.58" r="2.5" fill="#2563eb"/>
  <circle cx="646.44" cy="318.42" r="2.5" fill="#2563eb"/>
  <circle cx="649.68" cy="322.37" r="2.5" fill="#2563eb"/>
  <circle cx="652.92" cy="308.55" r="2.5" fill="#2563eb"/>
  <circle cx="656.16" cy="338.16" r="2.5" fill="#2563eb"/>
  <circle cx="659.40" cy="342.11" r="2.5" fill="#2563eb"/>
  <circle cx="662.63" cy="312.50" r="2.5" fill="#2563eb"/>
  <circle cx="665.87" cy="306.58" r="2.5" fill="#2563eb"/>
  <circle cx="669.11" cy="276.97" r="2.5" fill="#2563eb"/>
  <circle cx="672.35" cy="306.58" r="2.5" fill="#2563eb"/>
  <circle cx="675.59" cy="330.26" r="2.5" fill="#2563eb"/>
  <circle cx="678.83" cy="346.05" r="2.5" fill="#2563eb"/>
  <circle cx="682.06" cy="334.21" r="2.5" fill="#2563eb"/>
  <circle cx="685.30" cy="302.63" r="2.5" fill="#2563eb"/>
  <circle cx="688.54" cy="296.71" r="2.5" fill="#2563eb"/>
  <circle cx="691.78" cy="320.39" r="2.5" fill="#2563eb"/>
  <circle cx="695.02" cy="300.66" r="2.5" fill="#2563eb"/>
  <circle cx="698.26" cy="334.21" r="2.5" fill="#2563eb"/>
  <circle cx="701.49" cy="342.11" r="2.5" fill="#2563eb"/>
  <circle cx="704.73" cy="330.26" r="2.5" fill="#2563eb"/>
  <circle cx="707.97" cy="330.26" r="2.5" fill="#2563eb"/>
  <circle cx="711.21" cy="342.11" r="2.5" fill="#2563eb"/>
  <circle cx="714.45" cy="322.37" r="2.5" fill="#2563eb"/>
  <circle cx="717.69" cy="338.16" r="2.5" fill="#2563eb"/>
  <circle cx="720.93" cy="342.11" r="2.5" fill="#2563eb"/>
  <circle cx="724.16" cy="342.11" r="2.5" fill="#2563eb"/>
  <circle cx="727.40" cy="342.11" r="2.5" fill="#2563eb"/>
  <circle cx="730.64" cy="346.05" r="2.5" fill="#2563eb"/>
  <circle cx="733.88" cy="332.24" r="2.5" fill="#2563eb"/>
  <circle cx="737.12" cy="328.29" r="2.5" fill="#2563eb"/>
  <circle cx="740.36" cy="334.21" r="2.5" fill="#2563eb"/>
  <circle cx="743.59" cy="330.26" r="2.5" fill="#2563eb"/>
  <circle cx="746.83" cy="314.47" r="2.5" fill="#2563eb"/>
  <circle cx="750.07" cy="346.05" r="2.5" fill="#2563eb"/>
  <circle cx="753.31" cy="326.32" r="2.5" fill="#2563eb"/>
  <circle cx="756.55" cy="342.11" r="2.5" fill="#2563eb"/>
  <circle cx="759.79" cy="296.71" r="2.5" fill="#2563eb"/>
  <circle cx="763.02" cy="320.39" r="2.5" fill="#2563eb"/>
  <circle cx="766.26" cy="334.21" r="2.5" fill="#2563eb"/>
  <circle cx="769.50" cy="326.32" r="2.5" fill="#2563eb"/>
  <circle cx="772.74" cy="322.37" r="2.5" fill="#2563eb"/>
  <circle cx="775.98" cy="342.11" r="2.5" fill="#2563eb"/>
  <circle cx="779.22" cy="342.11" r="2.5" fill="#2563eb"/>
  <circle cx="782.46" cy="338.16" r="2.5" fill="#2563eb"/>
  <circle cx="785.69" cy="322.37" r="2.5" fill="#2563eb"/>
  <circle cx="788.93" cy="346.05" r="2.5" fill="#2563eb"/>
  <circle cx="792.17" cy="342.11" r="2.5" fill="#2563eb"/>
  <circle cx="795.41" cy="324.34" r="2.5" fill="#2563eb"/>
  <circle cx="798.65" cy="328.29" r="2.5" fill="#2563eb"/>
  <circle cx="801.89" cy="338.16" r="2.5" fill="#2563eb"/>
  <circle cx="805.12" cy="338.16" r="2.5" fill="#2563eb"/>
  <circle cx="808.36" cy="332.24" r="2.5" fill="#2563eb"/>
  <circle cx="811.60" cy="306.58" r="2.5" fill="#2563eb"/>
  <circle cx="814.84" cy="330.26" r="2.5" fill="#2563eb"/>
  <circle cx="818.08" cy="334.21" r="2.5" fill="#2563eb"/>
  <circle cx="821.32" cy="346.05" r="2.5" fill="#2563eb"/>
  <circle cx="824.56" cy="328.29" r="2.5" fill="#2563eb"/>
  <circle cx="827.79" cy="322.37" r="2.5" fill="#2563eb"/>
  <circle cx="831.03" cy="334.21" r="2.5" fill="#2563eb"/>
  <circle cx="834.27" cy="324.34" r="2.5" fill="#2563eb"/>
  <circle cx="837.51" cy="318.42" r="2.5" fill="#2563eb"/>
  <circle cx="840.75" cy="322.37" r="2.5" fill="#2563eb"/>
  <circle cx="843.99" cy="330.26" r="2.5" fill="#2563eb"/>
  <circle cx="847.22" cy="338.16" r="2.5" fill="#2563eb"/>
  <circle cx="850.46" cy="314.47" r="2.5" fill="#2563eb"/>
  <circle cx="853.70" cy="316.45" r="2.5" fill="#2563eb"/>
  <circle cx="856.94" cy="310.53" r="2.5" fill="#2563eb"/>
  <circle cx="860.18" cy="342.11" r="2.5" fill="#2563eb"/>
  <circle cx="863.42" cy="338.16" r="2.5" fill="#2563eb"/>
  <circle cx="866.65" cy="332.24" r="2.5" fill="#2563eb"/>
  <circle cx="869.89" cy="342.11" r="2.5" fill="#2563eb"/>
  <circle cx="873.13" cy="275.00" r="2.5" fill="#2563eb"/>
  <circle cx="876.37" cy="302.63" r="2.5" fill="#2563eb"/>
  <circle cx="879.61" cy="322.37" r="2.5" fill="#2563eb"/>
  <circle cx="882.85" cy="330.26" r="2.5" fill="#2563eb"/>
  <circle cx="886.09" cy="338.16" r="2.5" fill="#2563eb"/>
  <circle cx="889.32" cy="342.11" r="2.5" fill="#2563eb"/>
  <circle cx="892.56" cy="314.47" r="2.5" fill="#2563eb"/>
  <circle cx="895.80" cy="328.29" r="2.5" fill="#2563eb"/>
  <circle cx="899.04" cy="302.63" r="2.5" fill="#2563eb"/>
  <circle cx="902.28" cy="334.21" r="2.5" fill="#2563eb"/>
  <circle cx="905.52" cy="318.42" r="2.5" fill="#2563eb"/>
  <circle cx="908.75" cy="334.21" r="2.5" fill="#2563eb"/>
  <circle cx="911.99" cy="346.05" r="2.5" fill="#2563eb"/>
  <circle cx="915.23" cy="334.21" r="2.5" fill="#2563eb"/>
  <circle cx="918.47" cy="324.34" r="2.5" fill="#2563eb"/>
  <circle cx="921.71" cy="310.53" r="2.5" fill="#2563eb"/>
  <circle cx="924.95" cy="318.42" r="2.5" fill="#2563eb"/>
  <circle cx="928.19" cy="332.24" r="2.5" fill="#2563eb"/>
  <circle cx="931.42" cy="342.11" r="2.5" fill="#2563eb"/>
  <circle cx="934.66" cy="326.32" r="2.5" fill="#2563eb"/>
  <circle cx="937.90" cy="314.47" r="2.5" fill="#2563eb"/>
  <circle cx="941.14" cy="296.71" r="2.5" fill="#2563eb"/>
  <circle cx="944.38" cy="306.58" r="2.5" fill="#2563eb"/>
  <circle cx="947.62" cy="316.45" r="2.5" fill="#2563eb"/>
  <circle cx="950.85" cy="326.32" r="2.5" fill="#2563eb"/>
  <circle cx="954.09" cy="334.21" r="2.5" fill="#2563eb"/>
  <circle cx="957.33" cy="324.34" r="2.5" fill="#2563eb"/>
  <circle cx="960.57" cy="318.42" r="2.5" fill="#2563eb"/>
  <circle cx="963.81" cy="336.18" r="2.5" fill="#2563eb"/>
  <circle cx="967.05" cy="330.26" r="2.5" fill="#2563eb"/>
  <circle cx="970.28" cy="302.63" r="2.5" fill="#2563eb"/>
  <circle cx="973.52" cy="342.11" r="2.5" fill="#2563eb"/>
  <circle cx="976.76" cy="338.16" r="2.5" fill="#2563eb"/>
  <circle cx="980.00" cy="346.05" r="2.5" fill="#2563eb"/>
</svg>
