<?xml version="1.0" encoding="UTF-8"?>
<svg xmlns="http://www.w3.org/2000/svg" width="1000" height="420" viewBox="0 0 1000 420">
  <rect width="100%" height="100%" fill="#ffffff"/>
  <text x="70" y="28" font-size="20" font-weight="600">개설 시점 기준 - 일별 신규 강의</text>
  <text x="70" y="402" font-size="12" fill="#555">강의 수</text>
  <line x1="70" y1="350.00" x2="980" y2="350.00" stroke="#e5e7eb" stroke-width="1"/>
  <text x="62" y="354.00" font-size="11" fill="#6b7280" text-anchor="end">0</text>
  <line x1="70" y1="290.00" x2="980" y2="290.00" stroke="#e5e7eb" stroke-width="1"/>
  <text x="62" y="294.00" font-size="11" fill="#6b7280" text-anchor="end">34</text>
  <line x1="70" y1="230.00" x2="980" y2="230.00" stroke="#e5e7eb" stroke-width="1"/>
  <text x="62" y="234.00" font-size="11" fill="#6b7280" text-anchor="end">68</text>
  <line x1="70" y1="170.00" x2="980" y2="170.00" stroke="#e5e7eb" stroke-width="1"/>
  <text x="62" y="174.00" font-size="11" fill="#6b7280" text-anchor="end">103</text>
  <line x1="70" y1="110.00" x2="980" y2="110.00" stroke="#e5e7eb" stroke-width="1"/>
  <text x="62" y="114.00" font-size="11" fill="#6b7280" text-anchor="end">137</text>
  <line x1="70" y1="50.00" x2="980" y2="50.00" stroke="#e5e7eb" stroke-width="1"/>
  <text x="62" y="54.00" font-size="11" fill="#6b7280" text-anchor="end">172</text>
  <line x1="70" y1="350" x2="980" y2="350" stroke="#111827" stroke-width="1.2"/>
  <line x1="70" y1="50" x2="70" y2="350" stroke="#111827" stroke-width="1.2"/>
  <line x1="70.00" y1="350" x2="70.00" y2="356" stroke="#9ca3af" stroke-width="1"/>
  <text x="70.00" y="372" font-size="10" fill="#6b7280" text-anchor="middle">2025-04-24</text>
  <line x1="144.70" y1="350" x2="144.70" y2="356" stroke="#9ca3af" stroke-width="1"/>
  <text x="144.70" y="372" font-size="10" fill="#6b7280" text-anchor="middle">2025-05-28</text>
  <line x1="219.40" y1="350" x2="219.40" y2="356" stroke="#9ca3af" stroke-width="1"/>
  <text x="219.40" y="372" font-size="10" fill="#6b7280" text-anchor="middle">2025-06-30</text>
  <line x1="294.10" y1="350" x2="294.10" y2="356" stroke="#9ca3af" stroke-width="1"/>
  <text x="294.10" y="372" font-size="10" fill="#6b7280" text-anchor="middle">2025-07-26</text>
  <line x1="368.81" y1="350" x2="368.81" y2="356" stroke="#9ca3af" stroke-width="1"/>
  <text x="368.81" y="372" font-size="10" fill="#6b7280" text-anchor="middle">2025-08-20</text>
  <line x1="443.51" y1="350" x2="443.51" y2="356" stroke="#9ca3af" stroke-width="1"/>
  <text x="443.51" y="372" font-size="10" fill="#6b7280" text-anchor="middle">2025-09-15</text>
  <line x1="518.21" y1="350" x2="518.21" y2="356" stroke="#9ca3af" stroke-width="1"/>
  <text x="518.21" y="372" font-size="10" fill="#6b7280" text-anchor="middle">2025-10-15</text>
  <line x1="592.91" y1="350" x2="592.91" y2="356" stroke="#9ca3af" stroke-width="1"/>
  <text x="592.91" y="372" font-size="10" fill="#6b7280" text-anchor="middle">2025-11-07</text>
  <line x1="667.61" y1="350" x2="667.61" y2="356" stroke="#9ca3af" stroke-width="1"/>
  <text x="667.61" y="372" font-size="10" fill="#6b7280" text-anchor="middle">2025-11-30</text>
  <line x1="742.31" y1="350" x2="742.31" y2="356" stroke="#9ca3af" stroke-width="1"/>
  <text x="742.31" y="372" font-size="10" fill="#6b7280" text-anchor="middle">2025-12-26</text>
  <line x1="817.01" y1="350" x2="817.01" y2="356" stroke="#9ca3af" stroke-width="1"/>
  <text x="817.01" y="372" font-size="10" fill="#6b7280" text-anchor="middle">2026-01-18</text>
  <line x1="891.72" y1="350" x2="891.72" y2="356" stroke="#9ca3af" stroke-width="1"/>
  <text x="891.72" y="372" font-size="10" fill="#6b7280" text-anchor="middle">2026-02-11</text>
  <line x1="966.42" y1="350" x2="966.42" y2="356" stroke="#9ca3af" stroke-width="1"/>
  <text x="966.42" y="372" font-size="10" fill="#6b7280" text-anchor="middle">2026-03-05</text>
  <line x1="980.00" y1="350" x2="980.00" y2="356" stroke="#9ca3af" stroke-width="1"/>
  <text x="980.00" y="372" font-size="10" fill="#6b7280" text-anchor="middle">2026-03-09</text>
  <polyline fill="none" stroke="#2563eb" stroke-width="2.5" points="70.00,343.02 73.40,311.63 76.79,337.79 80.19,339.53 83.58,290.70 86.98,325.58 90.37,311.63 93.77,344.77 97.16,337.79 100.56,339.53 103.96,323.84 107.35,346.51 110.75,343.02 114.14,336.05 117.54,339.53 120.93,318.60 124.33,346.51 127.72,336.05 131.12,329.07 134.51,316.86 137.91,320.35 141.31,334.30 144.70,302.91 148.10,332.56 151.49,318.60 154.89,50.00 158.28,294.19 161.68,329.07 165.07,301.16 168.47,329.07 171.87,339.53 175.26,320.35 178.66,329.07 182.05,271.51 185.45,320.35 188.84,329.07 192.24,318.60 195.63,346.51 199.03,325.58 202.43,336.05 205.82,337.79 209.22,329.07 212.61,339.53 216.01,323.84 219.40,318.60 222.80,322.09 226.19,323.84 229.59,295.93 232.99,343.02 236.38,343.02 239.78,301.16 243.17,346.51 246.57,309.88 249.96,301.16 253.36,337.79 256.75,336.05 260.15,327.33 263.54,343.02 266.94,346.51 270.34,339.53 273.73,337.79 277.13,339.53 280.52,315.12 283.92,336.05 287.31,297.67 290.71,339.53 294.10,343.02 297.50,332.56 300.90,308.14 304.29,315.12 307.69,325.58 311.08,318.60 314.48,308.14 317.87,346.51 321.27,322.09 324.66,290.70 328.06,332.56 331.46,343.02 334.85,336.05 338.25,339.53 341.64,336.05 345.04,336.05 348.43,332.56 351.83,299.42 355.22,323.84 358.62,343.02 362.01,332.56 365.41,346.51 368.81,332.56 372.20,332.56 375.60,332.56 378.99,337.79 382.39,336.05 385.78,336.05 389.18,343.02 392.57,336.05 395.97,343.02 399.37,325.58 402.76,295.93 406.16,325.58 409.55,346.51 412.95,315.12 416.34,346.51 419.74,346.51 423.13,336.05 426.53,341.28 429.93,346.51 433.32,330.81 436.72,336.05 440.11,346.51 443.51,334.30 446.90,343.02 450.30,332.56 453.69,332.56 457.09,346.51 460.49,336.05 463.88,325.58 467.28,336.05 470.67,336.05 474.07,346.51 477.46,330.81 480.86,346.51 484.25,339.53 487.65,343.02 491.04,283.72 494.44,327.33 497.84,325.58 501.23,346.51 504.63,336.05 508.02,343.02 511.42,302.91 514.81,343.02 518.21,322.09 521.60,329.07 525.00,311.63 528.40,343.02 531.79,301.16 535.19,301.16 538.58,332.56 541.98,346.51 545.37,262.79 548.77,337.79 552.16,346.51 555.56,336.05 558.96,336.05 562.35,311.63 565.75,339.53 569.14,343.02 572.54,339.53 575.93,346.51 579.33,336.05 582.72,343.02 586.12,346.51 589.51,339.53 592.91,332.56 596.31,343.02 599.70,341.28 603.10,301.16 606.49,320.35 609.89,336.05 613.28,315.12 616.68,334.30 620.07,336.05 623.47,336.05 626.87,311.63 630.26,318.60 633.66,325.58 637.05,302.91 640.45,339.53 643.84,343.02 647.24,316.86 650.63,301.16 654.03,280.23 657.43,306.40 660.82,332.56 664.22,346.51 667.61,336.05 671.01,301.16 674.40,299.42 677.80,323.84 681.19,304.65 684.59,336.05 687.99,343.02 691.38,329.07 694.78,332.56 698.17,339.53 701.57,325.58 704.96,339.53 708.36,343.02 711.75,343.02 715.15,343.02 718.54,346.51 721.94,334.30 725.34,330.81 728.73,329.07 732.13,332.56 735.52,313.37 738.92,346.51 742.31,329.07 745.71,343.02 749.10,299.42 752.50,323.84 755.90,336.05 759.29,329.07 762.69,325.58 766.08,339.53 769.48,343.02 772.87,339.53 776.27,325.58 779.66,346.51 783.06,343.02 786.46,325.58 789.85,327.33 793.25,334.30 796.64,332.56 800.04,329.07 803.43,306.40 806.83,332.56 810.22,332.56 813.62,346.51 817.01,330.81 820.41,325.58 823.81,332.56 827.20,327.33 830.60,322.09 833.99,325.58 837.39,330.81 840.78,339.53 844.18,318.60 847.57,320.35 850.97,313.37 854.37,343.02 857.76,339.53 861.16,334.30 864.55,339.53 867.95,276.74 871.34,304.65 874.74,325.58 878.13,325.58 881.53,339.53 884.93,343.02 888.32,316.86 891.72,330.81 895.11,304.65 898.51,336.05 901.90,318.60 905.30,336.05 908.69,346.51 912.09,336.05 915.49,323.84 918.88,309.88 922.28,320.35 925.67,334.30 929.07,341.28 932.46,325.58 935.86,313.37 939.25,299.42 942.65,309.88 946.04,315.12 949.44,325.58 952.84,336.05 956.23,323.84 959.63,322.09 963.02,337.79 966.42,332.56 969.81,302.91 973.21,343.02 976.60,336.05 980.00,343.02"/>
  <circle cx="70.00" cy="343.02" r="2.5" fill="#2563eb"/>
  <circle cx="73.40" cy="311.63" r="2.5" fill="#2563eb"/>
  <circle cx="76.79" cy="337.79" r="2.5" fill="#2563eb"/>
  <circle cx="80.19" cy="339.53" r="2.5" fill="#2563eb"/>
  <circle cx="83.58" cy="290.70" r="2.5" fill="#2563eb"/>
  <circle cx="86.98" cy="325.58" r="2.5" fill="#2563eb"/>
  <circle cx="90.37" cy="311.63" r="2.5" fill="#2563eb"/>
  <circle cx="93.77" cy="344.77" r="2.5" fill="#2563eb"/>
  <circle cx="97.16" cy="337.79" r="2.5" fill="#2563eb"/>
  <circle cx="100.56" cy="339.53" r="2.5" fill="#2563eb"/>
  <circle cx="103.96" cy="323.84" r="2.5" fill="#2563eb"/>
  <circle cx="107.35" cy="346.51" r="2.5" fill="#2563eb"/>
  <circle cx="110.75" cy="343.02" r="2.5" fill="#2563eb"/>
  <circle cx="114.14" cy="336.05" r="2.5" fill="#2563eb"/>
  <circle cx="117.54" cy="339.53" r="2.5" fill="#2563eb"/>
  <circle cx="120.93" cy="318.60" r="2.5" fill="#2563eb"/>
  <circle cx="124.33" cy="346.51" r="2.5" fill="#2563eb"/>
  <circle cx="127.72" cy="336.05" r="2.5" fill="#2563eb"/>
  <circle cx="131.12" cy="329.07" r="2.5" fill="#2563eb"/>
  <circle cx="134.51" cy="316.86" r="2.5" fill="#2563eb"/>
  <circle cx="137.91" cy="320.35" r="2.5" fill="#2563eb"/>
  <circle cx="141.31" cy="334.30" r="2.5" fill="#2563eb"/>
  <circle cx="144.70" cy="302.91" r="2.5" fill="#2563eb"/>
  <circle cx="148.10" cy="332.56" r="2.5" fill="#2563eb"/>
  <circle cx="151.49" cy="318.60" r="2.5" fill="#2563eb"/>
  <circle cx="154.89" cy="50.00" r="2.5" fill="#2563eb"/>
  <circle cx="158.28" cy="294.19" r="2.5" fill="#2563eb"/>
  <circle cx="161.68" cy="329.07" r="2.5" fill="#2563eb"/>
  <circle cx="165.07" cy="301.16" r="2.5" fill="#2563eb"/>
  <circle cx="168.47" cy="329.07" r="2.5" fill="#2563eb"/>
  <circle cx="171.87" cy="339.53" r="2.5" fill="#2563eb"/>
  <circle cx="175.26" cy="320.35" r="2.5" fill="#2563eb"/>
  <circle cx="178.66" cy="329.07" r="2.5" fill="#2563eb"/>
  <circle cx="182.05" cy="271.51" r="2.5" fill="#2563eb"/>
  <circle cx="185.45" cy="320.35" r="2.5" fill="#2563eb"/>
  <circle cx="188.84" cy="329.07" r="2.5" fill="#2563eb"/>
  <circle cx="192.24" cy="318.60" r="2.5" fill="#2563eb"/>
  <circle cx="195.63" cy="346.51" r="2.5" fill="#2563eb"/>
  <circle cx="199.03" cy="325.58" r="2.5" fill="#2563eb"/>
  <circle cx="202.43" cy="336.05" r="2.5" fill="#2563eb"/>
  <circle cx="205.82" cy="337.79" r="2.5" fill="#2563eb"/>
  <circle cx="209.22" cy="329.07" r="2.5" fill="#2563eb"/>
  <circle cx="212.61" cy="339.53" r="2.5" fill="#2563eb"/>
  <circle cx="216.01" cy="323.84" r="2.5" fill="#2563eb"/>
  <circle cx="219.40" cy="318.60" r="2.5" fill="#2563eb"/>
  <circle cx="222.80" cy="322.09" r="2.5" fill="#2563eb"/>
  <circle cx="226.19" cy="323.84" r="2.5" fill="#2563eb"/>
  <circle cx="229.59" cy="295.93" r="2.5" fill="#2563eb"/>
  <circle cx="232.99" cy="343.02" r="2.5" fill="#2563eb"/>
  <circle cx="236.38" cy="343.02" r="2.5" fill="#2563eb"/>
  <circle cx="239.78" cy="301.16" r="2.5" fill="#2563eb"/>
  <circle cx="243.17" cy="346.51" r="2.5" fill="#2563eb"/>
  <circle cx="246.57" cy="309.88" r="2.5" fill="#2563eb"/>
  <circle cx="249.96" cy="301.16" r="2.5" fill="#2563eb"/>
  <circle cx="253.36" cy="337.79" r="2.5" fill="#2563eb"/>
  <circle cx="256.75" cy="336.05" r="2.5" fill="#2563eb"/>
  <circle cx="260.15" cy="327.33" r="2.5" fill="#2563eb"/>
  <circle cx="263.54" cy="343.02" r="2.5" fill="#2563eb"/>
  <circle cx="266.94" cy="346.51" r="2.5" fill="#2563eb"/>
  <circle cx="270.34" cy="339.53" r="2.5" fill="#2563eb"/>
  <circle cx="273.73" cy="337.79" r="2.5" fill="#2563eb"/>
  <circle cx="277.13" cy="339.53" r="2.5" fill="#2563eb"/>
  <circle cx="280.52" cy="315.12" r="2.5" fill="#2563eb"/>
  <circle cx="283.92" cy="336.05" r="2.5" fill="#2563eb"/>
  <circle cx="287.31" cy="297.67" r="2.5" fill="#2563eb"/>
  <circle cx="290.71" cy="339.53" r="2.5" fill="#2563eb"/>
  <circle cx="294.10" cy="343.02" r="2.5" fill="#2563eb"/>
  <circle cx="297.50" cy="332.56" r="2.5" fill="#2563eb"/>
  <circle cx="300.90" cy="308.14" r="2.5" fill="#2563eb"/>
  <circle cx="304.29" cy="315.12" r="2.5" fill="#2563eb"/>
  <circle cx="307.69" cy="325.58" r="2.5" fill="#2563eb"/>
  <circle cx="311.08" cy="318.60" r="2.5" fill="#2563eb"/>
  <circle cx="314.48" cy="308.14" r="2.5" fill="#2563eb"/>
  <circle cx="317.87" cy="346.51" r="2.5" fill="#2563eb"/>
  <circle cx="321.27" cy="322.09" r="2.5" fill="#2563eb"/>
  <circle cx="324.66" cy="290.70" r="2.5" fill="#2563eb"/>
  <circle cx="328.06" cy="332.56" r="2.5" fill="#2563eb"/>
  <circle cx="331.46" cy="343.02" r="2.5" fill="#2563eb"/>
  <circle cx="334.85" cy="336.05" r="2.5" fill="#2563eb"/>
  <circle cx="338.25" cy="339.53" r="2.5" fill="#2563eb"/>
  <circle cx="341.64" cy="336.05" r="2.5" fill="#2563eb"/>
  <circle cx="345.04" cy="336.05" r="2.5" fill="#2563eb"/>
  <circle cx="348.43" cy="332.56" r="2.5" fill="#2563eb"/>
  <circle cx="351.83" cy="299.42" r="2.5" fill="#2563eb"/>
  <circle cx="355.22" cy="323.84" r="2.5" fill="#2563eb"/>
  <circle cx="358.62" cy="343.02" r="2.5" fill="#2563eb"/>
  <circle cx="362.01" cy="332.56" r="2.5" fill="#2563eb"/>
  <circle cx="365.41" cy="346.51" r="2.5" fill="#2563eb"/>
  <circle cx="368.81" cy="332.56" r="2.5" fill="#2563eb"/>
  <circle cx="372.20" cy="332.56" r="2.5" fill="#2563eb"/>
  <circle cx="375.60" cy="332.56" r="2.5" fill="#2563eb"/>
  <circle cx="378.99" cy="337.79" r="2.5" fill="#2563eb"/>
  <circle cx="382.39" cy="336.05" r="2.5" fill="#2563eb"/>
  <circle cx="385.78" cy="336.05" r="2.5" fill="#2563eb"/>
  <circle cx="389.18" cy="343.02" r="2.5" fill="#2563eb"/>
  <circle cx="392.57" cy="336.05" r="2.5" fill="#2563eb"/>
  <circle cx="395.97" cy="343.02" r="2.5" fill="#2563eb"/>
  <circle cx="399.37" cy="325.58" r="2.5" fill="#2563eb"/>
  <circle cx="402.76" cy="295.93" r="2.5" fill="#2563eb"/>
  <circle cx="406.16" cy="325.58" r="2.5" fill="#2563eb"/>
  <circle cx="409.55" cy="346.51" r="2.5" fill="#2563eb"/>
  <circle cx="412.95" cy="315.12" r="2.5" fill="#2563eb"/>
  <circle cx="416.34" cy="346.51" r="2.5" fill="#2563eb"/>
  <circle cx="419.74" cy="346.51" r="2.5" fill="#2563eb"/>
  <circle cx="423.13" cy="336.05" r="2.5" fill="#2563eb"/>
  <circle cx="426.53" cy="341.28" r="2.5" fill="#2563eb"/>
  <circle cx="429.93" cy="346.51" r="2.5" fill="#2563eb"/>
  <circle cx="433.32" cy="330.81" r="2.5" fill="#2563eb"/>
  <circle cx="436.72" cy="336.05" r="2.5" fill="#2563eb"/>
  <circle cx="440.11" cy="346.51" r="2.5" fill="#2563eb"/>
  <circle cx="443.51" cy="334.30" r="2.5" fill="#2563eb"/>
  <circle cx="446.90" cy="343.02" r="2.5" fill="#2563eb"/>
  <circle cx="450.30" cy="332.56" r="2.5" fill="#2563eb"/>
  <circle cx="453.69" cy="332.56" r="2.5" fill="#2563eb"/>
  <circle cx="457.09" cy="346.51" r="2.5" fill="#2563eb"/>
  <circle cx="460.49" cy="336.05" r="2.5" fill="#2563eb"/>
  <circle cx="463.88" cy="325.58" r="2.5" fill="#2563eb"/>
  <circle cx="467.28" cy="336.05" r="2.5" fill="#2563eb"/>
  <circle cx="470.67" cy="336.05" r="2.5" fill="#2563eb"/>
  <circle cx="474.07" cy="346.51" r="2.5" fill="#2563eb"/>
  <circle cx="477.46" cy="330.81" r="2.5" fill="#2563eb"/>
  <circle cx="480.86" cy="346.51" r="2.5" fill="#2563eb"/>
  <circle cx="484.25" cy="339.53" r="2.5" fill="#2563eb"/>
  <circle cx="487.65" cy="343.02" r="2.5" fill="#2563eb"/>
  <circle cx="491.04" cy="283.72" r="2.5" fill="#2563eb"/>
  <circle cx="494.44" cy="327.33" r="2.5" fill="#2563eb"/>
  <circle cx="497.84" cy="325.58" r="2.5" fill="#2563eb"/>
  <circle cx="501.23" cy="346.51" r="2.5" fill="#2563eb"/>
  <circle cx="504.63" cy="336.05" r="2.5" fill="#2563eb"/>
  <circle cx="508.02" cy="343.02" r="2.5" fill="#2563eb"/>
  <circle cx="511.42" cy="302.91" r="2.5" fill="#2563eb"/>
  <circle cx="514.81" cy="343.02" r="2.5" fill="#2563eb"/>
  <circle cx="518.21" cy="322.09" r="2.5" fill="#2563eb"/>
  <circle cx="521.60" cy="329.07" r="2.5" fill="#2563eb"/>
  <circle cx="525.00" cy="311.63" r="2.5" fill="#2563eb"/>
  <circle cx="528.40" cy="343.02" r="2.5" fill="#2563eb"/>
  <circle cx="531.79" cy="301.16" r="2.5" fill="#2563eb"/>
  <circle cx="535.19" cy="301.16" r="2.5" fill="#2563eb"/>
  <circle cx="538.58" cy="332.56" r="2.5" fill="#2563eb"/>
  <circle cx="541.98" cy="346.51" r="2.5" fill="#2563eb"/>
  <circle cx="545.37" cy="262.79" r="2.5" fill="#2563eb"/>
  <circle cx="548.77" cy="337.79" r="2.5" fill="#2563eb"/>
  <circle cx="552.16" cy="346.51" r="2.5" fill="#2563eb"/>
  <circle cx="555.56" cy="336.05" r="2.5" fill="#2563eb"/>
  <circle cx="558.96" cy="336.05" r="2.5" fill="#2563eb"/>
  <circle cx="562.35" cy="311.63" r="2.5" fill="#2563eb"/>
  <circle cx="565.75" cy="339.53" r="2.5" fill="#2563eb"/>
  <circle cx="569.14" cy="343.02" r="2.5" fill="#2563eb"/>
  <circle cx="572.54" cy="339.53" r="2.5" fill="#2563eb"/>
  <circle cx="575.93" cy="346.51" r="2.5" fill="#2563eb"/>
  <circle cx="579.33" cy="336.05" r="2.5" fill="#2563eb"/>
  <circle cx="582.72" cy="343.02" r="2.5" fill="#2563eb"/>
  <circle cx="586.12" cy="346.51" r="2.5" fill="#2563eb"/>
  <circle cx="589.51" cy="339.53" r="2.5" fill="#2563eb"/>
  <circle cx="592.91" cy="332.56" r="2.5" fill="#2563eb"/>
  <circle cx="596.31" cy="343.02" r="2.5" fill="#2563eb"/>
  <circle cx="599.70" cy="341.28" r="2.5" fill="#2563eb"/>
  <circle cx="603.10" cy="301.16" r="2.5" fill="#2563eb"/>
  <circle cx="606.49" cy="320.35" r="2.5" fill="#2563eb"/>
  <circle cx="609.89" cy="336.05" r="2.5" fill="#2563eb"/>
  <circle cx="613.28" cy="315.12" r="2.5" fill="#2563eb"/>
  <circle cx="616.68" cy="334.30" r="2.5" fill="#2563eb"/>
  <circle cx="620.07" cy="336.05" r="2.5" fill="#2563eb"/>
  <circle cx="623.47" cy="336.05" r="2.5" fill="#2563eb"/>
  <circle cx="626.87" cy="311.63" r="2.5" fill="#2563eb"/>
  <circle cx="630.26" cy="318.60" r="2.5" fill="#2563eb"/>
  <circle cx="633.66" cy="325.58" r="2.5" fill="#2563eb"/>
  <circle cx="637.05" cy="302.91" r="2.5" fill="#2563eb"/>
  <circle cx="640.45" cy="339.53" r="2.5" fill="#2563eb"/>
  <circle cx="643.84" cy="343.02" r="2.5" fill="#2563eb"/>
  <circle cx="647.24" cy="316.86" r="2.5" fill="#2563eb"/>
  <circle cx="650.63" cy="301.16" r="2.5" fill="#2563eb"/>
  <circle cx="654.03" cy="280.23" r="2.5" fill="#2563eb"/>
  <circle cx="657.43" cy="306.40" r="2.5" fill="#2563eb"/>
  <circle cx="660.82" cy="332.56" r="2.5" fill="#2563eb"/>
  <circle cx="664.22" cy="346.51" r="2.5" fill="#2563eb"/>
  <circle cx="667.61" cy="336.05" r="2.5" fill="#2563eb"/>
  <circle cx="671.01" cy="301.16" r="2.5" fill="#2563eb"/>
  <circle cx="674.40" cy="299.42" r="2.5" fill="#2563eb"/>
  <circle cx="677.80" cy="323.84" r="2.5" fill="#2563eb"/>
  <circle cx="681.19" cy="304.65" r="2.5" fill="#2563eb"/>
  <circle cx="684.59" cy="336.05" r="2.5" fill="#2563eb"/>
  <circle cx="687.99" cy="343.02" r="2.5" fill="#2563eb"/>
  <circle cx="691.38" cy="329.07" r="2.5" fill="#2563eb"/>
  <circle cx="694.78" cy="332.56" r="2.5" fill="#2563eb"/>
  <circle cx="698.17" cy="339.53" r="2.5" fill="#2563eb"/>
  <circle cx="701.57" cy="325.58" r="2.5" fill="#2563eb"/>
  <circle cx="704.96" cy="339.53" r="2.5" fill="#2563eb"/>
  <circle cx="708.36" cy="343.02" r="2.5" fill="#2563eb"/>
  <circle cx="711.75" cy="343.02" r="2.5" fill="#2563eb"/>
  <circle cx="715.15" cy="343.02" r="2.5" fill="#2563eb"/>
  <circle cx="718.54" cy="346.51" r="2.5" fill="#2563eb"/>
  <circle cx="721.94" cy="334.30" r="2.5" fill="#2563eb"/>
  <circle cx="725.34" cy="330.81" r="2.5" fill="#2563eb"/>
  <circle cx="728.73" cy="329.07" r="2.5" fill="#2563eb"/>
  <circle cx="732.13" cy="332.56" r="2.5" fill="#2563eb"/>
  <circle cx="735.52" cy="313.37" r="2.5" fill="#2563eb"/>
  <circle cx="738.92" cy="346.51" r="2.5" fill="#2563eb"/>
  <circle cx="742.31" cy="329.07" r="2.5" fill="#2563eb"/>
  <circle cx="745.71" cy="343.02" r="2.5" fill="#2563eb"/>
  <circle cx="749.10" cy="299.42" r="2.5" fill="#2563eb"/>
  <circle cx="752.50" cy="323.84" r="2.5" fill="#2563eb"/>
  <circle cx="755.90" cy="336.05" r="2.5" fill="#2563eb"/>
  <circle cx="759.29" cy="329.07" r="2.5" fill="#2563eb"/>
  <circle cx="762.69" cy="325.58" r="2.5" fill="#2563eb"/>
  <circle cx="766.08" cy="339.53" r="2.5" fill="#2563eb"/>
  <circle cx="769.48" cy="343.02" r="2.5" fill="#2563eb"/>
  <circle cx="772.87" cy="339.53" r="2.5" fill="#2563eb"/>
  <circle cx="776.27" cy="325.58" r="2.5" fill="#2563eb"/>
  <circle cx="779.66" cy="346.51" r="2.5" fill="#2563eb"/>
  <circle cx="783.06" cy="343.02" r="2.5" fill="#2563eb"/>
  <circle cx="786.46" cy="325.58" r="2.5" fill="#2563eb"/>
  <circle cx="789.85" cy="327.33" r="2.5" fill="#2563eb"/>
  <circle cx="793.25" cy="334.30" r="2.5" fill="#2563eb"/>
  <circle cx="796.64" cy="332.56" r="2.5" fill="#2563eb"/>
  <circle cx="800.04" cy="329.07" r="2.5" fill="#2563eb"/>
  <circle cx="803.43" cy="306.40" r="2.5" fill="#2563eb"/>
  <circle cx="806.83" cy="332.56" r="2.5" fill="#2563eb"/>
  <circle cx="810.22" cy="332.56" r="2.5" fill="#2563eb"/>
  <circle cx="813.62" cy="346.51" r="2.5" fill="#2563eb"/>
  <circle cx="817.01" cy="330.81" r="2.5" fill="#2563eb"/>
  <circle cx="820.41" cy="325.58" r="2.5" fill="#2563eb"/>
  <circle cx="823.81" cy="332.56" r="2.5" fill="#2563eb"/>
  <circle cx="827.20" cy="327.33" r="2.5" fill="#2563eb"/>
  <circle cx="830.60" cy="322.09" r="2.5" fill="#2563eb"/>
  <circle cx="833.99" cy="325.58" r="2.5" fill="#2563eb"/>
  <circle cx="837.39" cy="330.81" r="2.5" fill="#2563eb"/>
  <circle cx="840.78" cy="339.53" r="2.5" fill="#2563eb"/>
  <circle cx="844.18" cy="318.60" r="2.5" fill="#2563eb"/>
  <circle cx="847.57" cy="320.35" r="2.5" fill="#2563eb"/>
  <circle cx="850.97" cy="313.37" r="2.5" fill="#2563eb"/>
  <circle cx="854.37" cy="343.02" r="2.5" fill="#2563eb"/>
  <circle cx="857.76" cy="339.53" r="2.5" fill="#2563eb"/>
  <circle cx="861.16" cy="334.30" r="2.5" fill="#2563eb"/>
  <circle cx="864.55" cy="339.53" r="2.5" fill="#2563eb"/>
  <circle cx="867.95" cy="276.74" r="2.5" fill="#2563eb"/>
  <circle cx="871.34" cy="304.65" r="2.5" fill="#2563eb"/>
  <circle cx="874.74" cy="325.58" r="2.5" fill="#2563eb"/>
  <circle cx="878.13" cy="325.58" r="2.5" fill="#2563eb"/>
  <circle cx="881.53" cy="339.53" r="2.5" fill="#2563eb"/>
  <circle cx="884.93" cy="343.02" r="2.5" fill="#2563eb"/>
  <circle cx="888.32" cy="316.86" r="2.5" fill="#2563eb"/>
  <circle cx="891.72" cy="330.81" r="2.5" fill="#2563eb"/>
  <circle cx="895.11" cy="304.65" r="2.5" fill="#2563eb"/>
  <circle cx="898.51" cy="336.05" r="2.5" fill="#2563eb"/>
  <circle cx="901.90" cy="318.60" r="2.5" fill="#2563eb"/>
  <circle cx="905.30" cy="336.05" r="2.5" fill="#2563eb"/>
  <circle cx="908.69" cy="346.51" r="2.5" fill="#2563eb"/>
  <circle cx="912.09" cy="336.05" r="2.5" fill="#2563eb"/>
  <circle cx="915.49" cy="323.84" r="2.5" fill="#2563eb"/>
  <circle cx="918.88" cy="309.88" r="2.5" fill="#2563eb"/>
  <circle cx="922.28" cy="320.35" r="2.5" fill="#2563eb"/>
  <circle cx="925.67" cy="334.30" r="2.5" fill="#2563eb"/>
  <circle cx="929.07" cy="341.28" r="2.5" fill="#2563eb"/>
  <circle cx="932.46" cy="325.58" r="2.5" fill="#2563eb"/>
  <circle cx="935.86" cy="313.37" r="2.5" fill="#2563eb"/>
  <circle cx="939.25" cy="299.42" r="2.5" fill="#2563eb"/>
  <circle cx="942.65" cy="309.88" r="2.5" fill="#2563eb"/>
  <circle cx="946.04" cy="315.12" r="2.5" fill="#2563eb"/>
  <circle cx="949.44" cy="325.58" r="2.5" fill="#2563eb"/>
  <circle cx="952.84" cy="336.05" r="2.5" fill="#2563eb"/>
  <circle cx="956.23" cy="323.84" r="2.5" fill="#2563eb"/>
  <circle cx="959.63" cy="322.09" r="2.5" fill="#2563eb"/>
  <circle cx="963.02" cy="337.79" r="2.5" fill="#2563eb"/>
  <circle cx="966.42" cy="332.56" r="2.5" fill="#2563eb"/>
  <circle cx="969.81" cy="302.91" r="2.5" fill="#2563eb"/>
  <circle cx="973.21" cy="343.02" r="2.5" fill="#2563eb"/>
  <circle cx="976.60" cy="336.05" r="2.5" fill="#2563eb"/>
  <circle cx="980.00" cy="343.02" r="2.5" fill="#2563eb"/>
</svg>
