<?xml version="1.0" encoding="UTF-8"?>
<svg xmlns="http://www.w3.org/2000/svg" width="1000" height="420" viewBox="0 0 1000 420">
  <rect width="100%" height="100%" fill="#ffffff"/>
  <text x="70" y="28" font-size="20" font-weight="600">개설 시점 기준 - 월별 신규 강의</text>
  <text x="70" y="402" font-size="12" fill="#555">강의 수</text>
  <line x1="70" y1="350.00" x2="980" y2="350.00" stroke="#e5e7eb" stroke-width="1"/>
  <text x="62" y="354.00" font-size="11" fill="#6b7280" text-anchor="end">0</text>
  <line x1="70" y1="290.00" x2="980" y2="290.00" stroke="#e5e7eb" stroke-width="1"/>
  <text x="62" y="294.00" font-size="11" fill="#6b7280" text-anchor="end">93</text>
  <line x1="70" y1="230.00" x2="980" y2="230.00" stroke="#e5e7eb" stroke-width="1"/>
  <text x="62" y="234.00" font-size="11" fill="#6b7280" text-anchor="end">186</text>
  <line x1="70" y1="170.00" x2="980" y2="170.00" stroke="#e5e7eb" stroke-width="1"/>
  <text x="62" y="174.00" font-size="11" fill="#6b7280" text-anchor="end">279</text>
  <line x1="70" y1="110.00" x2="980" y2="110.00" stroke="#e5e7eb" stroke-width="1"/>
  <text x="62" y="114.00" font-size="11" fill="#6b7280" text-anchor="end">372</text>
  <line x1="70" y1="50.00" x2="980" y2="50.00" stroke="#e5e7eb" stroke-width="1"/>
  <text x="62" y="54.00" font-size="11" fill="#6b7280" text-anchor="end">465</text>
  <line x1="70" y1="350" x2="980" y2="350" stroke="#111827" stroke-width="1.2"/>
  <line x1="70" y1="50" x2="70" y2="350" stroke="#111827" stroke-width="1.2"/>
  <line x1="70.00" y1="350" x2="70.00" y2="356" stroke="#9ca3af" stroke-width="1"/>
  <text x="70.00" y="372" font-size="10" fill="#6b7280" text-anchor="middle">2025-05</text>
  <line x1="161.00" y1="350" x2="161.00" y2="356" stroke="#9ca3af" stroke-width="1"/>
  <text x="161.00" y="372" font-size="10" fill="#6b7280" text-anchor="middle">2025-06</text>
  <line x1="252.00" y1="350" x2="252.00" y2="356" stroke="#9ca3af" stroke-width="1"/>
  <text x="252.00" y="372" font-size="10" fill="#6b7280" text-anchor="middle">2025-07</text>
  <line x1="343.00" y1="350" x2="343.00" y2="356" stroke="#9ca3af" stroke-width="1"/>
  <text x="343.00" y="372" font-size="10" fill="#6b7280" text-anchor="middle">2025-08</text>
  <line x1="434.00" y1="350" x2="434.00" y2="356" stroke="#9ca3af" stroke-width="1"/>
  <text x="434.00" y="372" font-size="10" fill="#6b7280" text-anchor="middle">2025-09</text>
  <line x1="525.00" y1="350" x2="525.00" y2="356" stroke="#9ca3af" stroke-width="1"/>
  <text x="525.00" y="372" font-size="10" fill="#6b7280" text-anchor="middle">2025-10</text>
  <line x1="616.00" y1="350" x2="616.00" y2="356" stroke="#9ca3af" stroke-width="1"/>
  <text x="616.00" y="372" font-size="10" fill="#6b7280" text-anchor="middle">2025-11</text>
  <line x1="707.00" y1="350" x2="707.00" y2="356" stroke="#9ca3af" stroke-width="1"/>
  <text x="707.00" y="372" font-size="10" fill="#6b7280" text-anchor="middle">2025-12</text>
  <line x1="798.00" y1="350" x2="798.00" y2="356" stroke="#9ca3af" stroke-width="1"/>
  <text x="798.00" y="372" font-size="10" fill="#6b7280" text-anchor="middle">2026-01</text>
  <line x1="889.00" y1="350" x2="889.00" y2="356" stroke="#9ca3af" stroke-width="1"/>
  <text x="889.00" y="372" font-size="10" fill="#6b7280" text-anchor="middle">2026-02</text>
  <line x1="980.00" y1="350" x2="980.00" y2="356" stroke="#9ca3af" stroke-width="1"/>
  <text x="980.00" y="372" font-size="10" fill="#6b7280" text-anchor="middle">2026-03</text>
  <polyline fill="none" stroke="#2563eb" stroke-width="2.5" points="70.00,181.61 161.00,50.00 252.00,119.03 343.00,182.90 434.00,208.71 525.00,131.29 616.00,112.58 707.00,153.23 798.00,132.58 889.00,90.65 980.00,286.13"/>
  <circle cx="70.00" cy="181.61" r="2.5" fill="#2563eb"/>
  <circle cx="161.00" cy="50.00" r="2.5" fill="#2563eb"/>
  <circle cx="252.00" cy="119.03" r="2.5" fill="#2563eb"/>
  <circle cx="343.00" cy="182.90" r="2.5" fill="#2563eb"/>
  <circle cx="434.00" cy="208.71" r="2.5" fill="#2563eb"/>
  <circle cx="525.00" cy="131.29" r="2.5" fill="#2563eb"/>
  <circle cx="616.00" cy="112.58" r="2.5" fill="#2563eb"/>
  <circle cx="707.00" cy="153.23" r="2.5" fill="#2563eb"/>
  <circle cx="798.00" cy="132.58" r="2.5" fill="#2563eb"/>
  <circle cx="889.00" cy="90.65" r="2.5" fill="#2563eb"/>
  <circle cx="980.00" cy="286.13" r="2.5" fill="#2563eb"/>
</svg>
