<?xml version="1.0" encoding="UTF-8"?>
<svg xmlns="http://www.w3.org/2000/svg" width="1000" height="420" viewBox="0 0 1000 420">
  <rect width="100%" height="100%" fill="#ffffff"/>
  <text x="70" y="28" font-size="20" font-weight="600">개설 시점 기준 - 월별 신규 강의</text>
  <text x="70" y="402" font-size="12" fill="#555">강의 수</text>
  <line x1="70" y1="350.00" x2="980" y2="350.00" stroke="#e5e7eb" stroke-width="1"/>
  <text x="62" y="354.00" font-size="11" fill="#6b7280" text-anchor="end">0</text>
  <line x1="70" y1="290.00" x2="980" y2="290.00" stroke="#e5e7eb" stroke-width="1"/>
  <text x="62" y="294.00" font-size="11" fill="#6b7280" text-anchor="end">86</text>
  <line x1="70" y1="230.00" x2="980" y2="230.00" stroke="#e5e7eb" stroke-width="1"/>
  <text x="62" y="234.00" font-size="11" fill="#6b7280" text-anchor="end">173</text>
  <line x1="70" y1="170.00" x2="980" y2="170.00" stroke="#e5e7eb" stroke-width="1"/>
  <text x="62" y="174.00" font-size="11" fill="#6b7280" text-anchor="end">260</text>
  <line x1="70" y1="110.00" x2="980" y2="110.00" stroke="#e5e7eb" stroke-width="1"/>
  <text x="62" y="114.00" font-size="11" fill="#6b7280" text-anchor="end">347</text>
  <line x1="70" y1="50.00" x2="980" y2="50.00" stroke="#e5e7eb" stroke-width="1"/>
  <text x="62" y="54.00" font-size="11" fill="#6b7280" text-anchor="end">434</text>
  <line x1="70" y1="350" x2="980" y2="350" stroke="#111827" stroke-width="1.2"/>
  <line x1="70" y1="50" x2="70" y2="350" stroke="#111827" stroke-width="1.2"/>
  <line x1="70.00" y1="350" x2="70.00" y2="356" stroke="#9ca3af" stroke-width="1"/>
  <text x="70.00" y="372" font-size="10" fill="#6b7280" text-anchor="middle">2025-04</text>
  <line x1="152.73" y1="350" x2="152.73" y2="356" stroke="#9ca3af" stroke-width="1"/>
  <text x="152.73" y="372" font-size="10" fill="#6b7280" text-anchor="middle">2025-05</text>
  <line x1="235.45" y1="350" x2="235.45" y2="356" stroke="#9ca3af" stroke-width="1"/>
  <text x="235.45" y="372" font-size="10" fill="#6b7280" text-anchor="middle">2025-06</text>
  <line x1="318.18" y1="350" x2="318.18" y2="356" stroke="#9ca3af" stroke-width="1"/>
  <text x="318.18" y="372" font-size="10" fill="#6b7280" text-anchor="middle">2025-07</text>
  <line x1="400.91" y1="350" x2="400.91" y2="356" stroke="#9ca3af" stroke-width="1"/>
  <text x="400.91" y="372" font-size="10" fill="#6b7280" text-anchor="middle">2025-08</text>
  <line x1="483.64" y1="350" x2="483.64" y2="356" stroke="#9ca3af" stroke-width="1"/>
  <text x="483.64" y="372" font-size="10" fill="#6b7280" text-anchor="middle">2025-09</text>
  <line x1="566.36" y1="350" x2="566.36" y2="356" stroke="#9ca3af" stroke-width="1"/>
  <text x="566.36" y="372" font-size="10" fill="#6b7280" text-anchor="middle">2025-10</text>
  <line x1="649.09" y1="350" x2="649.09" y2="356" stroke="#9ca3af" stroke-width="1"/>
  <text x="649.09" y="372" font-size="10" fill="#6b7280" text-anchor="middle">2025-11</text>
  <line x1="731.82" y1="350" x2="731.82" y2="356" stroke="#9ca3af" stroke-width="1"/>
  <text x="731.82" y="372" font-size="10" fill="#6b7280" text-anchor="middle">2025-12</text>
  <line x1="814.55" y1="350" x2="814.55" y2="356" stroke="#9ca3af" stroke-width="1"/>
  <text x="814.55" y="372" font-size="10" fill="#6b7280" text-anchor="middle">2026-01</text>
  <line x1="897.27" y1="350" x2="897.27" y2="356" stroke="#9ca3af" stroke-width="1"/>
  <text x="897.27" y="372" font-size="10" fill="#6b7280" text-anchor="middle">2026-02</text>
  <line x1="980.00" y1="350" x2="980.00" y2="356" stroke="#9ca3af" stroke-width="1"/>
  <text x="980.00" y="372" font-size="10" fill="#6b7280" text-anchor="middle">2026-03</text>
  <polyline fill="none" stroke="#2563eb" stroke-width="2.5" points="70.00,233.18 152.73,179.26 235.45,50.00 318.18,125.35 400.91,188.25 483.64,210.37 566.36,142.63 649.09,110.14 731.82,149.54 814.55,128.80 897.27,95.62 980.00,287.79"/>
  <circle cx="70.00" cy="233.18" r="2.5" fill="#2563eb"/>
  <circle cx="152.73" cy="179.26" r="2.5" fill="#2563eb"/>
  <circle cx="235.45" cy="50.00" r="2.5" fill="#2563eb"/>
  <circle cx="318.18" cy="125.35" r="2.5" fill="#2563eb"/>
  <circle cx="400.91" cy="188.25" r="2.5" fill="#2563eb"/>
  <circle cx="483.64" cy="210.37" r="2.5" fill="#2563eb"/>
  <circle cx="566.36" cy="142.63" r="2.5" fill="#2563eb"/>
  <circle cx="649.09" cy="110.14" r="2.5" fill="#2563eb"/>
  <circle cx="731.82" cy="149.54" r="2.5" fill="#2563eb"/>
  <circle cx="814.55" cy="128.80" r="2.5" fill="#2563eb"/>
  <circle cx="897.27" cy="95.62" r="2.5" fill="#2563eb"/>
  <circle cx="980.00" cy="287.79" r="2.5" fill="#2563eb"/>
</svg>
