<?xml version="1.0" encoding="UTF-8"?>
<svg xmlns="http://www.w3.org/2000/svg" width="1000" height="420" viewBox="0 0 1000 420">
  <rect width="100%" height="100%" fill="#ffffff"/>
  <text x="70" y="28" font-size="20" font-weight="600">개설 시점 기준 - 일별 신규 강의</text>
  <text x="70" y="402" font-size="12" fill="#555">강의 수</text>
  <line x1="70" y1="350.00" x2="980" y2="350.00" stroke="#e5e7eb" stroke-width="1"/>
  <text x="62" y="354.00" font-size="11" fill="#6b7280" text-anchor="end">0</text>
  <line x1="70" y1="290.00" x2="980" y2="290.00" stroke="#e5e7eb" stroke-width="1"/>
  <text x="62" y="294.00" font-size="11" fill="#6b7280" text-anchor="end">33</text>
  <line x1="70" y1="230.00" x2="980" y2="230.00" stroke="#e5e7eb" stroke-width="1"/>
  <text x="62" y="234.00" font-size="11" fill="#6b7280" text-anchor="end">66</text>
  <line x1="70" y1="170.00" x2="980" y2="170.00" stroke="#e5e7eb" stroke-width="1"/>
  <text x="62" y="174.00" font-size="11" fill="#6b7280" text-anchor="end">99</text>
  <line x1="70" y1="110.00" x2="980" y2="110.00" stroke="#e5e7eb" stroke-width="1"/>
  <text x="62" y="114.00" font-size="11" fill="#6b7280" text-anchor="end">132</text>
  <line x1="70" y1="50.00" x2="980" y2="50.00" stroke="#e5e7eb" stroke-width="1"/>
  <text x="62" y="54.00" font-size="11" fill="#6b7280" text-anchor="end">166</text>
  <line x1="70" y1="350" x2="980" y2="350" stroke="#111827" stroke-width="1.2"/>
  <line x1="70" y1="50" x2="70" y2="350" stroke="#111827" stroke-width="1.2"/>
  <line x1="70.00" y1="350" x2="70.00" y2="356" stroke="#9ca3af" stroke-width="1"/>
  <text x="70.00" y="372" font-size="10" fill="#6b7280" text-anchor="middle">2025-04-14</text>
  <line x1="145.83" y1="350" x2="145.83" y2="356" stroke="#9ca3af" stroke-width="1"/>
  <text x="145.83" y="372" font-size="10" fill="#6b7280" text-anchor="middle">2025-05-19</text>
  <line x1="221.67" y1="350" x2="221.67" y2="356" stroke="#9ca3af" stroke-width="1"/>
  <text x="221.67" y="372" font-size="10" fill="#6b7280" text-anchor="middle">2025-06-23</text>
  <line x1="297.50" y1="350" x2="297.50" y2="356" stroke="#9ca3af" stroke-width="1"/>
  <text x="297.50" y="372" font-size="10" fill="#6b7280" text-anchor="middle">2025-07-19</text>
  <line x1="373.33" y1="350" x2="373.33" y2="356" stroke="#9ca3af" stroke-width="1"/>
  <text x="373.33" y="372" font-size="10" fill="#6b7280" text-anchor="middle">2025-08-14</text>
  <line x1="449.17" y1="350" x2="449.17" y2="356" stroke="#9ca3af" stroke-width="1"/>
  <text x="449.17" y="372" font-size="10" fill="#6b7280" text-anchor="middle">2025-09-12</text>
  <line x1="525.00" y1="350" x2="525.00" y2="356" stroke="#9ca3af" stroke-width="1"/>
  <text x="525.00" y="372" font-size="10" fill="#6b7280" text-anchor="middle">2025-10-13</text>
  <line x1="600.83" y1="350" x2="600.83" y2="356" stroke="#9ca3af" stroke-width="1"/>
  <text x="600.83" y="372" font-size="10" fill="#6b7280" text-anchor="middle">2025-11-06</text>
  <line x1="676.67" y1="350" x2="676.67" y2="356" stroke="#9ca3af" stroke-width="1"/>
  <text x="676.67" y="372" font-size="10" fill="#6b7280" text-anchor="middle">2025-11-30</text>
  <line x1="752.50" y1="350" x2="752.50" y2="356" stroke="#9ca3af" stroke-width="1"/>
  <text x="752.50" y="372" font-size="10" fill="#6b7280" text-anchor="middle">2025-12-28</text>
  <line x1="828.33" y1="350" x2="828.33" y2="356" stroke="#9ca3af" stroke-width="1"/>
  <text x="828.33" y="372" font-size="10" fill="#6b7280" text-anchor="middle">2026-01-20</text>
  <line x1="904.17" y1="350" x2="904.17" y2="356" stroke="#9ca3af" stroke-width="1"/>
  <text x="904.17" y="372" font-size="10" fill="#6b7280" text-anchor="middle">2026-02-14</text>
  <line x1="980.00" y1="350" x2="980.00" y2="356" stroke="#9ca3af" stroke-width="1"/>
  <text x="980.00" y="372" font-size="10" fill="#6b7280" text-anchor="middle">2026-03-09</text>
  <polyline fill="none" stroke="#2563eb" stroke-width="2.5" points="70.00,337.35 73.30,317.47 76.59,337.35 79.89,339.16 83.19,335.54 86.49,324.70 89.78,339.16 93.08,335.54 96.38,342.77 99.67,310.24 102.97,339.16 106.27,339.16 109.57,288.55 112.86,324.70 116.16,310.24 119.46,344.58 122.75,339.16 126.05,339.16 129.35,322.89 132.64,346.39 135.94,342.77 139.24,335.54 142.54,339.16 145.83,317.47 149.13,346.39 152.43,335.54 155.72,328.31 159.02,315.66 162.32,319.28 165.62,333.73 168.91,301.20 172.21,331.93 175.51,317.47 178.80,50.00 182.10,292.17 185.40,328.31 188.70,299.40 191.99,328.31 195.29,339.16 198.59,319.28 201.88,328.31 205.18,268.67 208.48,319.28 211.78,328.31 215.07,317.47 218.37,346.39 221.67,324.70 224.96,335.54 228.26,337.35 231.56,328.31 234.86,339.16 238.15,322.89 241.45,317.47 244.75,321.08 248.04,322.89 251.34,293.98 254.64,342.77 257.93,342.77 261.23,299.40 264.53,346.39 267.83,310.24 271.12,299.40 274.42,337.35 277.72,335.54 281.01,326.51 284.31,342.77 287.61,346.39 290.91,339.16 294.20,339.16 297.50,339.16 300.80,313.86 304.09,335.54 307.39,295.78 310.69,339.16 313.99,342.77 317.28,331.93 320.58,306.63 323.88,313.86 327.17,324.70 330.47,317.47 333.77,306.63 337.07,346.39 340.36,321.08 343.66,288.55 346.96,331.93 350.25,342.77 353.55,335.54 356.85,339.16 360.14,335.54 363.44,335.54 366.74,331.93 370.04,297.59 373.33,324.70 376.63,342.77 379.93,333.73 383.22,346.39 386.52,331.93 389.82,331.93 393.12,331.93 396.41,337.35 399.71,335.54 403.01,335.54 406.30,342.77 409.60,335.54 412.90,342.77 416.20,324.70 419.49,293.98 422.79,324.70 426.09,346.39 429.38,313.86 432.68,346.39 435.98,346.39 439.28,335.54 442.57,340.96 445.87,346.39 449.17,330.12 452.46,335.54 455.76,346.39 459.06,333.73 462.36,342.77 465.65,331.93 468.95,331.93 472.25,346.39 475.54,335.54 478.84,324.70 482.14,335.54 485.43,335.54 488.73,346.39 492.03,331.93 495.33,346.39 498.62,339.16 501.92,342.77 505.22,283.13 508.51,328.31 511.81,328.31 515.11,346.39 518.41,335.54 521.70,342.77 525.00,301.20 528.30,342.77 531.59,321.08 534.89,328.31 538.19,313.86 541.49,342.77 544.78,299.40 548.08,299.40 551.38,331.93 554.67,346.39 557.97,265.06 561.27,337.35 564.57,346.39 567.86,335.54 571.16,337.35 574.46,310.24 577.75,339.16 581.05,342.77 584.35,339.16 587.64,346.39 590.94,335.54 594.24,342.77 597.54,346.39 600.83,339.16 604.13,331.93 607.43,342.77 610.72,340.96 614.02,299.40 617.32,319.28 620.62,335.54 623.91,313.86 627.21,333.73 630.51,335.54 633.80,335.54 637.10,310.24 640.40,317.47 643.70,324.70 646.99,301.20 650.29,339.16 653.59,342.77 656.88,315.66 660.18,299.40 663.48,277.71 666.78,304.82 670.07,331.93 673.37,346.39 676.67,335.54 679.96,299.40 683.26,297.59 686.56,322.89 689.86,303.01 693.15,335.54 696.45,342.77 699.75,328.31 703.04,331.93 706.34,339.16 709.64,324.70 712.93,339.16 716.23,342.77 719.53,342.77 722.83,342.77 726.12,346.39 729.42,333.73 732.72,330.12 736.01,328.31 739.31,331.93 742.61,312.05 745.91,346.39 749.20,328.31 752.50,342.77 755.80,301.20 759.09,322.89 762.39,335.54 765.69,328.31 768.99,324.70 772.28,339.16 775.58,342.77 778.88,339.16 782.17,324.70 785.47,346.39 788.77,342.77 792.07,324.70 795.36,326.51 798.66,333.73 801.96,331.93 805.25,328.31 808.55,304.82 811.85,331.93 815.14,331.93 818.44,346.39 821.74,330.12 825.04,324.70 828.33,331.93 831.63,326.51 834.93,321.08 838.22,324.70 841.52,330.12 844.82,339.16 848.12,317.47 851.41,319.28 854.71,312.05 858.01,342.77 861.30,339.16 864.60,333.73 867.90,342.77 871.20,277.71 874.49,303.01 877.79,324.70 881.09,324.70 884.38,339.16 887.68,342.77 890.98,317.47 894.28,330.12 897.57,303.01 900.87,335.54 904.17,319.28 907.46,335.54 910.76,346.39 914.06,335.54 917.36,324.70 920.65,310.24 923.95,319.28 927.25,333.73 930.54,340.96 933.84,324.70 937.14,313.86 940.43,297.59 943.73,308.43 947.03,313.86 950.33,324.70 953.62,335.54 956.92,322.89 960.22,321.08 963.51,337.35 966.81,331.93 970.11,303.01 973.41,342.77 976.70,339.16 980.00,342.77"/>
  <circle cx="70.00" cy="337.35" r="2.5" fill="#2563eb"/>
  <circle cx="73.30" cy="317.47" r="2.5" fill="#2563eb"/>
  <circle cx="76.59" cy="337.35" r="2.5" fill="#2563eb"/>
  <circle cx="79.89" cy="339.16" r="2.5" fill="#2563eb"/>
  <circle cx="83.19" cy="335.54" r="2.5" fill="#2563eb"/>
  <circle cx="86.49" cy="324.70" r="2.5" fill="#2563eb"/>
  <circle cx="89.78" cy="339.16" r="2.5" fill="#2563eb"/>
  <circle cx="93.08" cy="335.54" r="2.5" fill="#2563eb"/>
  <circle cx="96.38" cy="342.77" r="2.5" fill="#2563eb"/>
  <circle cx="99.67" cy="310.24" r="2.5" fill="#2563eb"/>
  <circle cx="102.97" cy="339.16" r="2.5" fill="#2563eb"/>
  <circle cx="106.27" cy="339.16" r="2.5" fill="#2563eb"/>
  <circle cx="109.57" cy="288.55" r="2.5" fill="#2563eb"/>
  <circle cx="112.86" cy="324.70" r="2.5" fill="#2563eb"/>
  <circle cx="116.16" cy="310.24" r="2.5" fill="#2563eb"/>
  <circle cx="119.46" cy="344.58" r="2.5" fill="#2563eb"/>
  <circle cx="122.75" cy="339.16" r="2.5" fill="#2563eb"/>
  <circle cx="126.05" cy="339.16" r="2.5" fill="#2563eb"/>
  <circle cx="129.35" cy="322.89" r="2.5" fill="#2563eb"/>
  <circle cx="132.64" cy="346.39" r="2.5" fill="#2563eb"/>
  <circle cx="135.94" cy="342.77" r="2.5" fill="#2563eb"/>
  <circle cx="139.24" cy="335.54" r="2.5" fill="#2563eb"/>
  <circle cx="142.54" cy="339.16" r="2.5" fill="#2563eb"/>
  <circle cx="145.83" cy="317.47" r="2.5" fill="#2563eb"/>
  <circle cx="149.13" cy="346.39" r="2.5" fill="#2563eb"/>
  <circle cx="152.43" cy="335.54" r="2.5" fill="#2563eb"/>
  <circle cx="155.72" cy="328.31" r="2.5" fill="#2563eb"/>
  <circle cx="159.02" cy="315.66" r="2.5" fill="#2563eb"/>
  <circle cx="162.32" cy="319.28" r="2.5" fill="#2563eb"/>
  <circle cx="165.62" cy="333.73" r="2.5" fill="#2563eb"/>
  <circle cx="168.91" cy="301.20" r="2.5" fill="#2563eb"/>
  <circle cx="172.21" cy="331.93" r="2.5" fill="#2563eb"/>
  <circle cx="175.51" cy="317.47" r="2.5" fill="#2563eb"/>
  <circle cx="178.80" cy="50.00" r="2.5" fill="#2563eb"/>
  <circle cx="182.10" cy="292.17" r="2.5" fill="#2563eb"/>
  <circle cx="185.40" cy="328.31" r="2.5" fill="#2563eb"/>
  <circle cx="188.70" cy="299.40" r="2.5" fill="#2563eb"/>
  <circle cx="191.99" cy="328.31" r="2.5" fill="#2563eb"/>
  <circle cx="195.29" cy="339.16" r="2.5" fill="#2563eb"/>
  <circle cx="198.59" cy="319.28" r="2.5" fill="#2563eb"/>
  <circle cx="201.88" cy="328.31" r="2.5" fill="#2563eb"/>
  <circle cx="205.18" cy="268.67" r="2.5" fill="#2563eb"/>
  <circle cx="208.48" cy="319.28" r="2.5" fill="#2563eb"/>
  <circle cx="211.78" cy="328.31" r="2.5" fill="#2563eb"/>
  <circle cx="215.07" cy="317.47" r="2.5" fill="#2563eb"/>
  <circle cx="218.37" cy="346.39" r="2.5" fill="#2563eb"/>
  <circle cx="221.67" cy="324.70" r="2.5" fill="#2563eb"/>
  <circle cx="224.96" cy="335.54" r="2.5" fill="#2563eb"/>
  <circle cx="228.26" cy="337.35" r="2.5" fill="#2563eb"/>
  <circle cx="231.56" cy="328.31" r="2.5" fill="#2563eb"/>
  <circle cx="234.86" cy="339.16" r="2.5" fill="#2563eb"/>
  <circle cx="238.15" cy="322.89" r="2.5" fill="#2563eb"/>
  <circle cx="241.45" cy="317.47" r="2.5" fill="#2563eb"/>
  <circle cx="244.75" cy="321.08" r="2.5" fill="#2563eb"/>
  <circle cx="248.04" cy="322.89" r="2.5" fill="#2563eb"/>
  <circle cx="251.34" cy="293.98" r="2.5" fill="#2563eb"/>
  <circle cx="254.64" cy="342.77" r="2.5" fill="#2563eb"/>
  <circle cx="257.93" cy="342.77" r="2.5" fill="#2563eb"/>
  <circle cx="261.23" cy="299.40" r="2.5" fill="#2563eb"/>
  <circle cx="264.53" cy="346.39" r="2.5" fill="#2563eb"/>
  <circle cx="267.83" cy="310.24" r="2.5" fill="#2563eb"/>
  <circle cx="271.12" cy="299.40" r="2.5" fill="#2563eb"/>
  <circle cx="274.42" cy="337.35" r="2.5" fill="#2563eb"/>
  <circle cx="277.72" cy="335.54" r="2.5" fill="#2563eb"/>
  <circle cx="281.01" cy="326.51" r="2.5" fill="#2563eb"/>
  <circle cx="284.31" cy="342.77" r="2.5" fill="#2563eb"/>
  <circle cx="287.61" cy="346.39" r="2.5" fill="#2563eb"/>
  <circle cx="290.91" cy="339.16" r="2.5" fill="#2563eb"/>
  <circle cx="294.20" cy="339.16" r="2.5" fill="#2563eb"/>
  <circle cx="297.50" cy="339.16" r="2.5" fill="#2563eb"/>
  <circle cx="300.80" cy="313.86" r="2.5" fill="#2563eb"/>
  <circle cx="304.09" cy="335.54" r="2.5" fill="#2563eb"/>
  <circle cx="307.39" cy="295.78" r="2.5" fill="#2563eb"/>
  <circle cx="310.69" cy="339.16" r="2.5" fill="#2563eb"/>
  <circle cx="313.99" cy="342.77" r="2.5" fill="#2563eb"/>
  <circle cx="317.28" cy="331.93" r="2.5" fill="#2563eb"/>
  <circle cx="320.58" cy="306.63" r="2.5" fill="#2563eb"/>
  <circle cx="323.88" cy="313.86" r="2.5" fill="#2563eb"/>
  <circle cx="327.17" cy="324.70" r="2.5" fill="#2563eb"/>
  <circle cx="330.47" cy="317.47" r="2.5" fill="#2563eb"/>
  <circle cx="333.77" cy="306.63" r="2.5" fill="#2563eb"/>
  <circle cx="337.07" cy="346.39" r="2.5" fill="#2563eb"/>
  <circle cx="340.36" cy="321.08" r="2.5" fill="#2563eb"/>
  <circle cx="343.66" cy="288.55" r="2.5" fill="#2563eb"/>
  <circle cx="346.96" cy="331.93" r="2.5" fill="#2563eb"/>
  <circle cx="350.25" cy="342.77" r="2.5" fill="#2563eb"/>
  <circle cx="353.55" cy="335.54" r="2.5" fill="#2563eb"/>
  <circle cx="356.85" cy="339.16" r="2.5" fill="#2563eb"/>
  <circle cx="360.14" cy="335.54" r="2.5" fill="#2563eb"/>
  <circle cx="363.44" cy="335.54" r="2.5" fill="#2563eb"/>
  <circle cx="366.74" cy="331.93" r="2.5" fill="#2563eb"/>
  <circle cx="370.04" cy="297.59" r="2.5" fill="#2563eb"/>
  <circle cx="373.33" cy="324.70" r="2.5" fill="#2563eb"/>
  <circle cx="376.63" cy="342.77" r="2.5" fill="#2563eb"/>
  <circle cx="379.93" cy="333.73" r="2.5" fill="#2563eb"/>
  <circle cx="383.22" cy="346.39" r="2.5" fill="#2563eb"/>
  <circle cx="386.52" cy="331.93" r="2.5" fill="#2563eb"/>
  <circle cx="389.82" cy="331.93" r="2.5" fill="#2563eb"/>
  <circle cx="393.12" cy="331.93" r="2.5" fill="#2563eb"/>
  <circle cx="396.41" cy="337.35" r="2.5" fill="#2563eb"/>
  <circle cx="399.71" cy="335.54" r="2.5" fill="#2563eb"/>
  <circle cx="403.01" cy="335.54" r="2.5" fill="#2563eb"/>
  <circle cx="406.30" cy="342.77" r="2.5" fill="#2563eb"/>
  <circle cx="409.60" cy="335.54" r="2.5" fill="#2563eb"/>
  <circle cx="412.90" cy="342.77" r="2.5" fill="#2563eb"/>
  <circle cx="416.20" cy="324.70" r="2.5" fill="#2563eb"/>
  <circle cx="419.49" cy="293.98" r="2.5" fill="#2563eb"/>
  <circle cx="422.79" cy="324.70" r="2.5" fill="#2563eb"/>
  <circle cx="426.09" cy="346.39" r="2.5" fill="#2563eb"/>
  <circle cx="429.38" cy="313.86" r="2.5" fill="#2563eb"/>
  <circle cx="432.68" cy="346.39" r="2.5" fill="#2563eb"/>
  <circle cx="435.98" cy="346.39" r="2.5" fill="#2563eb"/>
  <circle cx="439.28" cy="335.54" r="2.5" fill="#2563eb"/>
  <circle cx="442.57" cy="340.96" r="2.5" fill="#2563eb"/>
  <circle cx="445.87" cy="346.39" r="2.5" fill="#2563eb"/>
  <circle cx="449.17" cy="330.12" r="2.5" fill="#2563eb"/>
  <circle cx="452.46" cy="335.54" r="2.5" fill="#2563eb"/>
  <circle cx="455.76" cy="346.39" r="2.5" fill="#2563eb"/>
  <circle cx="459.06" cy="333.73" r="2.5" fill="#2563eb"/>
  <circle cx="462.36" cy="342.77" r="2.5" fill="#2563eb"/>
  <circle cx="465.65" cy="331.93" r="2.5" fill="#2563eb"/>
  <circle cx="468.95" cy="331.93" r="2.5" fill="#2563eb"/>
  <circle cx="472.25" cy="346.39" r="2.5" fill="#2563eb"/>
  <circle cx="475.54" cy="335.54" r="2.5" fill="#2563eb"/>
  <circle cx="478.84" cy="324.70" r="2.5" fill="#2563eb"/>
  <circle cx="482.14" cy="335.54" r="2.5" fill="#2563eb"/>
  <circle cx="485.43" cy="335.54" r="2.5" fill="#2563eb"/>
  <circle cx="488.73" cy="346.39" r="2.5" fill="#2563eb"/>
  <circle cx="492.03" cy="331.93" r="2.5" fill="#2563eb"/>
  <circle cx="495.33" cy="346.39" r="2.5" fill="#2563eb"/>
  <circle cx="498.62" cy="339.16" r="2.5" fill="#2563eb"/>
  <circle cx="501.92" cy="342.77" r="2.5" fill="#2563eb"/>
  <circle cx="505.22" cy="283.13" r="2.5" fill="#2563eb"/>
  <circle cx="508.51" cy="328.31" r="2.5" fill="#2563eb"/>
  <circle cx="511.81" cy="328.31" r="2.5" fill="#2563eb"/>
  <circle cx="515.11" cy="346.39" r="2.5" fill="#2563eb"/>
  <circle cx="518.41" cy="335.54" r="2.5" fill="#2563eb"/>
  <circle cx="521.70" cy="342.77" r="2.5" fill="#2563eb"/>
  <circle cx="525.00" cy="301.20" r="2.5" fill="#2563eb"/>
  <circle cx="528.30" cy="342.77" r="2.5" fill="#2563eb"/>
  <circle cx="531.59" cy="321.08" r="2.5" fill="#2563eb"/>
  <circle cx="534.89" cy="328.31" r="2.5" fill="#2563eb"/>
  <circle cx="538.19" cy="313.86" r="2.5" fill="#2563eb"/>
  <circle cx="541.49" cy="342.77" r="2.5" fill="#2563eb"/>
  <circle cx="544.78" cy="299.40" r="2.5" fill="#2563eb"/>
  <circle cx="548.08" cy="299.40" r="2.5" fill="#2563eb"/>
  <circle cx="551.38" cy="331.93" r="2.5" fill="#2563eb"/>
  <circle cx="554.67" cy="346.39" r="2.5" fill="#2563eb"/>
  <circle cx="557.97" cy="265.06" r="2.5" fill="#2563eb"/>
  <circle cx="561.27" cy="337.35" r="2.5" fill="#2563eb"/>
  <circle cx="564.57" cy="346.39" r="2.5" fill="#2563eb"/>
  <circle cx="567.86" cy="335.54" r="2.5" fill="#2563eb"/>
  <circle cx="571.16" cy="337.35" r="2.5" fill="#2563eb"/>
  <circle cx="574.46" cy="310.24" r="2.5" fill="#2563eb"/>
  <circle cx="577.75" cy="339.16" r="2.5" fill="#2563eb"/>
  <circle cx="581.05" cy="342.77" r="2.5" fill="#2563eb"/>
  <circle cx="584.35" cy="339.16" r="2.5" fill="#2563eb"/>
  <circle cx="587.64" cy="346.39" r="2.5" fill="#2563eb"/>
  <circle cx="590.94" cy="335.54" r="2.5" fill="#2563eb"/>
  <circle cx="594.24" cy="342.77" r="2.5" fill="#2563eb"/>
  <circle cx="597.54" cy="346.39" r="2.5" fill="#2563eb"/>
  <circle cx="600.83" cy="339.16" r="2.5" fill="#2563eb"/>
  <circle cx="604.13" cy="331.93" r="2.5" fill="#2563eb"/>
  <circle cx="607.43" cy="342.77" r="2.5" fill="#2563eb"/>
  <circle cx="610.72" cy="340.96" r="2.5" fill="#2563eb"/>
  <circle cx="614.02" cy="299.40" r="2.5" fill="#2563eb"/>
  <circle cx="617.32" cy="319.28" r="2.5" fill="#2563eb"/>
  <circle cx="620.62" cy="335.54" r="2.5" fill="#2563eb"/>
  <circle cx="623.91" cy="313.86" r="2.5" fill="#2563eb"/>
  <circle cx="627.21" cy="333.73" r="2.5" fill="#2563eb"/>
  <circle cx="630.51" cy="335.54" r="2.5" fill="#2563eb"/>
  <circle cx="633.80" cy="335.54" r="2.5" fill="#2563eb"/>
  <circle cx="637.10" cy="310.24" r="2.5" fill="#2563eb"/>
  <circle cx="640.40" cy="317.47" r="2.5" fill="#2563eb"/>
  <circle cx="643.70" cy="324.70" r="2.5" fill="#2563eb"/>
  <circle cx="646.99" cy="301.20" r="2.5" fill="#2563eb"/>
  <circle cx="650.29" cy="339.16" r="2.5" fill="#2563eb"/>
  <circle cx="653.59" cy="342.77" r="2.5" fill="#2563eb"/>
  <circle cx="656.88" cy="315.66" r="2.5" fill="#2563eb"/>
  <circle cx="660.18" cy="299.40" r="2.5" fill="#2563eb"/>
  <circle cx="663.48" cy="277.71" r="2.5" fill="#2563eb"/>
  <circle cx="666.78" cy="304.82" r="2.5" fill="#2563eb"/>
  <circle cx="670.07" cy="331.93" r="2.5" fill="#2563eb"/>
  <circle cx="673.37" cy="346.39" r="2.5" fill="#2563eb"/>
  <circle cx="676.67" cy="335.54" r="2.5" fill="#2563eb"/>
  <circle cx="679.96" cy="299.40" r="2.5" fill="#2563eb"/>
  <circle cx="683.26" cy="297.59" r="2.5" fill="#2563eb"/>
  <circle cx="686.56" cy="322.89" r="2.5" fill="#2563eb"/>
  <circle cx="689.86" cy="303.01" r="2.5" fill="#2563eb"/>
  <circle cx="693.15" cy="335.54" r="2.5" fill="#2563eb"/>
  <circle cx="696.45" cy="342.77" r="2.5" fill="#2563eb"/>
  <circle cx="699.75" cy="328.31" r="2.5" fill="#2563eb"/>
  <circle cx="703.04" cy="331.93" r="2.5" fill="#2563eb"/>
  <circle cx="706.34" cy="339.16" r="2.5" fill="#2563eb"/>
  <circle cx="709.64" cy="324.70" r="2.5" fill="#2563eb"/>
  <circle cx="712.93" cy="339.16" r="2.5" fill="#2563eb"/>
  <circle cx="716.23" cy="342.77" r="2.5" fill="#2563eb"/>
  <circle cx="719.53" cy="342.77" r="2.5" fill="#2563eb"/>
  <circle cx="722.83" cy="342.77" r="2.5" fill="#2563eb"/>
  <circle cx="726.12" cy="346.39" r="2.5" fill="#2563eb"/>
  <circle cx="729.42" cy="333.73" r="2.5" fill="#2563eb"/>
  <circle cx="732.72" cy="330.12" r="2.5" fill="#2563eb"/>
  <circle cx="736.01" cy="328.31" r="2.5" fill="#2563eb"/>
  <circle cx="739.31" cy="331.93" r="2.5" fill="#2563eb"/>
  <circle cx="742.61" cy="312.05" r="2.5" fill="#2563eb"/>
  <circle cx="745.91" cy="346.39" r="2.5" fill="#2563eb"/>
  <circle cx="749.20" cy="328.31" r="2.5" fill="#2563eb"/>
  <circle cx="752.50" cy="342.77" r="2.5" fill="#2563eb"/>
  <circle cx="755.80" cy="301.20" r="2.5" fill="#2563eb"/>
  <circle cx="759.09" cy="322.89" r="2.5" fill="#2563eb"/>
  <circle cx="762.39" cy="335.54" r="2.5" fill="#2563eb"/>
  <circle cx="765.69" cy="328.31" r="2.5" fill="#2563eb"/>
  <circle cx="768.99" cy="324.70" r="2.5" fill="#2563eb"/>
  <circle cx="772.28" cy="339.16" r="2.5" fill="#2563eb"/>
  <circle cx="775.58" cy="342.77" r="2.5" fill="#2563eb"/>
  <circle cx="778.88" cy="339.16" r="2.5" fill="#2563eb"/>
  <circle cx="782.17" cy="324.70" r="2.5" fill="#2563eb"/>
  <circle cx="785.47" cy="346.39" r="2.5" fill="#2563eb"/>
  <circle cx="788.77" cy="342.77" r="2.5" fill="#2563eb"/>
  <circle cx="792.07" cy="324.70" r="2.5" fill="#2563eb"/>
  <circle cx="795.36" cy="326.51" r="2.5" fill="#2563eb"/>
  <circle cx="798.66" cy="333.73" r="2.5" fill="#2563eb"/>
  <circle cx="801.96" cy="331.93" r="2.5" fill="#2563eb"/>
  <circle cx="805.25" cy="328.31" r="2.5" fill="#2563eb"/>
  <circle cx="808.55" cy="304.82" r="2.5" fill="#2563eb"/>
  <circle cx="811.85" cy="331.93" r="2.5" fill="#2563eb"/>
  <circle cx="815.14" cy="331.93" r="2.5" fill="#2563eb"/>
  <circle cx="818.44" cy="346.39" r="2.5" fill="#2563eb"/>
  <circle cx="821.74" cy="330.12" r="2.5" fill="#2563eb"/>
  <circle cx="825.04" cy="324.70" r="2.5" fill="#2563eb"/>
  <circle cx="828.33" cy="331.93" r="2.5" fill="#2563eb"/>
  <circle cx="831.63" cy="326.51" r="2.5" fill="#2563eb"/>
  <circle cx="834.93" cy="321.08" r="2.5" fill="#2563eb"/>
  <circle cx="838.22" cy="324.70" r="2.5" fill="#2563eb"/>
  <circle cx="841.52" cy="330.12" r="2.5" fill="#2563eb"/>
  <circle cx="844.82" cy="339.16" r="2.5" fill="#2563eb"/>
  <circle cx="848.12" cy="317.47" r="2.5" fill="#2563eb"/>
  <circle cx="851.41" cy="319.28" r="2.5" fill="#2563eb"/>
  <circle cx="854.71" cy="312.05" r="2.5" fill="#2563eb"/>
  <circle cx="858.01" cy="342.77" r="2.5" fill="#2563eb"/>
  <circle cx="861.30" cy="339.16" r="2.5" fill="#2563eb"/>
  <circle cx="864.60" cy="333.73" r="2.5" fill="#2563eb"/>
  <circle cx="867.90" cy="342.77" r="2.5" fill="#2563eb"/>
  <circle cx="871.20" cy="277.71" r="2.5" fill="#2563eb"/>
  <circle cx="874.49" cy="303.01" r="2.5" fill="#2563eb"/>
  <circle cx="877.79" cy="324.70" r="2.5" fill="#2563eb"/>
  <circle cx="881.09" cy="324.70" r="2.5" fill="#2563eb"/>
  <circle cx="884.38" cy="339.16" r="2.5" fill="#2563eb"/>
  <circle cx="887.68" cy="342.77" r="2.5" fill="#2563eb"/>
  <circle cx="890.98" cy="317.47" r="2.5" fill="#2563eb"/>
  <circle cx="894.28" cy="330.12" r="2.5" fill="#2563eb"/>
  <circle cx="897.57" cy="303.01" r="2.5" fill="#2563eb"/>
  <circle cx="900.87" cy="335.54" r="2.5" fill="#2563eb"/>
  <circle cx="904.17" cy="319.28" r="2.5" fill="#2563eb"/>
  <circle cx="907.46" cy="335.54" r="2.5" fill="#2563eb"/>
  <circle cx="910.76" cy="346.39" r="2.5" fill="#2563eb"/>
  <circle cx="914.06" cy="335.54" r="2.5" fill="#2563eb"/>
  <circle cx="917.36" cy="324.70" r="2.5" fill="#2563eb"/>
  <circle cx="920.65" cy="310.24" r="2.5" fill="#2563eb"/>
  <circle cx="923.95" cy="319.28" r="2.5" fill="#2563eb"/>
  <circle cx="927.25" cy="333.73" r="2.5" fill="#2563eb"/>
  <circle cx="930.54" cy="340.96" r="2.5" fill="#2563eb"/>
  <circle cx="933.84" cy="324.70" r="2.5" fill="#2563eb"/>
  <circle cx="937.14" cy="313.86" r="2.5" fill="#2563eb"/>
  <circle cx="940.43" cy="297.59" r="2.5" fill="#2563eb"/>
  <circle cx="943.73" cy="308.43" r="2.5" fill="#2563eb"/>
  <circle cx="947.03" cy="313.86" r="2.5" fill="#2563eb"/>
  <circle cx="950.33" cy="324.70" r="2.5" fill="#2563eb"/>
  <circle cx="953.62" cy="335.54" r="2.5" fill="#2563eb"/>
  <circle cx="956.92" cy="322.89" r="2.5" fill="#2563eb"/>
  <circle cx="960.22" cy="321.08" r="2.5" fill="#2563eb"/>
  <circle cx="963.51" cy="337.35" r="2.5" fill="#2563eb"/>
  <circle cx="966.81" cy="331.93" r="2.5" fill="#2563eb"/>
  <circle cx="970.11" cy="303.01" r="2.5" fill="#2563eb"/>
  <circle cx="973.41" cy="342.77" r="2.5" fill="#2563eb"/>
  <circle cx="976.70" cy="339.16" r="2.5" fill="#2563eb"/>
  <circle cx="980.00" cy="342.77" r="2.5" fill="#2563eb"/>
</svg>
