<?xml version="1.0" encoding="UTF-8"?>
<svg xmlns="http://www.w3.org/2000/svg" width="1000" height="420" viewBox="0 0 1000 420">
  <rect width="100%" height="100%" fill="#ffffff"/>
  <text x="70" y="28" font-size="20" font-weight="600">개설 시점 기준 - 일별 신규 강의</text>
  <text x="70" y="402" font-size="12" fill="#555">강의 수</text>
  <line x1="70" y1="350.00" x2="980" y2="350.00" stroke="#e5e7eb" stroke-width="1"/>
  <text x="62" y="354.00" font-size="11" fill="#6b7280" text-anchor="end">0</text>
  <line x1="70" y1="290.00" x2="980" y2="290.00" stroke="#e5e7eb" stroke-width="1"/>
  <text x="62" y="294.00" font-size="11" fill="#6b7280" text-anchor="end">28</text>
  <line x1="70" y1="230.00" x2="980" y2="230.00" stroke="#e5e7eb" stroke-width="1"/>
  <text x="62" y="234.00" font-size="11" fill="#6b7280" text-anchor="end">56</text>
  <line x1="70" y1="170.00" x2="980" y2="170.00" stroke="#e5e7eb" stroke-width="1"/>
  <text x="62" y="174.00" font-size="11" fill="#6b7280" text-anchor="end">84</text>
  <line x1="70" y1="110.00" x2="980" y2="110.00" stroke="#e5e7eb" stroke-width="1"/>
  <text x="62" y="114.00" font-size="11" fill="#6b7280" text-anchor="end">112</text>
  <line x1="70" y1="50.00" x2="980" y2="50.00" stroke="#e5e7eb" stroke-width="1"/>
  <text x="62" y="54.00" font-size="11" fill="#6b7280" text-anchor="end">140</text>
  <line x1="70" y1="350" x2="980" y2="350" stroke="#111827" stroke-width="1.2"/>
  <line x1="70" y1="50" x2="70" y2="350" stroke="#111827" stroke-width="1.2"/>
  <line x1="70.00" y1="350" x2="70.00" y2="356" stroke="#9ca3af" stroke-width="1"/>
  <text x="70.00" y="372" font-size="10" fill="#6b7280" text-anchor="middle">2025-04-02</text>
  <line x1="143.70" y1="350" x2="143.70" y2="356" stroke="#9ca3af" stroke-width="1"/>
  <text x="143.70" y="372" font-size="10" fill="#6b7280" text-anchor="middle">2025-05-08</text>
  <line x1="217.39" y1="350" x2="217.39" y2="356" stroke="#9ca3af" stroke-width="1"/>
  <text x="217.39" y="372" font-size="10" fill="#6b7280" text-anchor="middle">2025-06-11</text>
  <line x1="291.09" y1="350" x2="291.09" y2="356" stroke="#9ca3af" stroke-width="1"/>
  <text x="291.09" y="372" font-size="10" fill="#6b7280" text-anchor="middle">2025-07-10</text>
  <line x1="364.79" y1="350" x2="364.79" y2="356" stroke="#9ca3af" stroke-width="1"/>
  <text x="364.79" y="372" font-size="10" fill="#6b7280" text-anchor="middle">2025-08-05</text>
  <line x1="438.49" y1="350" x2="438.49" y2="356" stroke="#9ca3af" stroke-width="1"/>
  <text x="438.49" y="372" font-size="10" fill="#6b7280" text-anchor="middle">2025-09-03</text>
  <line x1="512.18" y1="350" x2="512.18" y2="356" stroke="#9ca3af" stroke-width="1"/>
  <text x="512.18" y="372" font-size="10" fill="#6b7280" text-anchor="middle">2025-09-29</text>
  <line x1="585.88" y1="350" x2="585.88" y2="356" stroke="#9ca3af" stroke-width="1"/>
  <text x="585.88" y="372" font-size="10" fill="#6b7280" text-anchor="middle">2025-10-29</text>
  <line x1="659.58" y1="350" x2="659.58" y2="356" stroke="#9ca3af" stroke-width="1"/>
  <text x="659.58" y="372" font-size="10" fill="#6b7280" text-anchor="middle">2025-11-22</text>
  <line x1="733.27" y1="350" x2="733.27" y2="356" stroke="#9ca3af" stroke-width="1"/>
  <text x="733.27" y="372" font-size="10" fill="#6b7280" text-anchor="middle">2025-12-18</text>
  <line x1="806.97" y1="350" x2="806.97" y2="356" stroke="#9ca3af" stroke-width="1"/>
  <text x="806.97" y="372" font-size="10" fill="#6b7280" text-anchor="middle">2026-01-12</text>
  <line x1="880.67" y1="350" x2="880.67" y2="356" stroke="#9ca3af" stroke-width="1"/>
  <text x="880.67" y="372" font-size="10" fill="#6b7280" text-anchor="middle">2026-02-04</text>
  <line x1="954.37" y1="350" x2="954.37" y2="356" stroke="#9ca3af" stroke-width="1"/>
  <text x="954.37" y="372" font-size="10" fill="#6b7280" text-anchor="middle">2026-03-01</text>
  <line x1="980.00" y1="350" x2="980.00" y2="356" stroke="#9ca3af" stroke-width="1"/>
  <text x="980.00" y="372" font-size="10" fill="#6b7280" text-anchor="middle">2026-03-09</text>
  <polyline fill="none" stroke="#2563eb" stroke-width="2.5" points="70.00,341.43 73.20,311.43 76.41,345.71 79.61,328.57 82.82,307.14 86.02,328.57 89.23,345.71 92.43,324.29 95.63,341.43 98.84,320.00 102.04,335.00 105.25,341.43 108.45,341.43 111.65,328.57 114.86,339.29 118.06,337.14 121.27,345.71 124.47,317.86 127.68,341.43 130.88,341.43 134.08,285.71 137.29,328.57 140.49,311.43 143.70,343.57 146.90,341.43 150.11,337.14 153.31,324.29 156.51,345.71 159.72,345.71 162.92,341.43 166.13,341.43 169.33,320.00 172.54,345.71 175.74,337.14 178.94,328.57 182.15,322.14 185.35,328.57 188.56,332.86 191.76,307.14 194.96,332.86 198.17,315.71 201.37,50.00 204.58,302.86 207.78,324.29 210.99,302.86 214.19,326.43 217.39,341.43 220.60,324.29 223.80,328.57 227.01,270.71 230.21,324.29 233.42,328.57 236.62,324.29 239.82,345.71 243.03,320.00 246.23,332.86 249.44,337.14 252.64,326.43 255.85,337.14 259.05,328.57 262.25,320.00 265.46,315.71 268.66,322.14 271.87,292.14 275.07,341.43 278.27,345.71 281.48,302.86 284.68,345.71 287.89,309.29 291.09,302.86 294.30,337.14 297.50,332.86 300.70,324.29 303.91,345.71 307.11,345.71 310.32,341.43 313.52,337.14 316.73,337.14 319.93,317.86 323.13,337.14 326.34,302.86 329.54,341.43 332.75,341.43 335.95,332.86 339.15,307.14 342.36,324.29 345.56,328.57 348.77,324.29 351.97,313.57 355.18,345.71 358.38,315.71 361.58,296.43 364.79,335.00 367.99,345.71 371.20,337.14 374.40,337.14 377.61,341.43 380.81,337.14 384.01,332.86 387.22,300.71 390.42,324.29 393.63,341.43 396.83,337.14 400.04,345.71 403.24,332.86 406.44,332.86 409.65,328.57 412.85,337.14 416.06,337.14 419.26,332.86 422.46,341.43 425.67,337.14 428.87,341.43 432.08,324.29 435.28,298.57 438.49,328.57 441.69,345.71 444.89,315.71 448.10,345.71 451.30,345.71 454.51,337.14 457.71,339.29 460.92,345.71 464.12,330.71 467.32,337.14 470.53,345.71 473.73,330.71 476.94,341.43 480.14,337.14 483.35,332.86 486.55,345.71 489.75,341.43 492.96,332.86 496.16,332.86 499.37,337.14 502.57,345.71 505.77,337.14 508.98,345.71 512.18,341.43 515.39,343.57 518.59,298.57 521.80,328.57 525.00,332.86 528.20,345.71 531.41,337.14 534.61,341.43 537.82,302.86 541.02,341.43 544.23,326.43 547.43,332.86 550.63,320.00 553.84,345.71 557.04,311.43 560.25,307.14 563.45,332.86 566.65,345.71 569.86,277.14 573.06,341.43 576.27,345.71 579.47,337.14 582.68,337.14 585.88,320.00 589.08,341.43 592.29,341.43 595.49,341.43 598.70,345.71 601.90,337.14 605.11,341.43 608.31,345.71 611.51,337.14 614.72,337.14 617.92,341.43 621.13,339.29 624.33,311.43 627.54,324.29 630.74,339.29 633.94,320.00 637.15,335.00 640.35,337.14 643.56,332.86 646.76,320.00 649.96,317.86 653.17,328.57 656.37,307.14 659.58,341.43 662.78,341.43 665.99,313.57 669.19,311.43 672.39,281.43 675.60,307.14 678.80,328.57 682.01,345.71 685.21,339.29 688.42,305.00 691.62,305.00 694.82,328.57 698.03,307.14 701.23,341.43 704.44,345.71 707.64,332.86 710.85,332.86 714.05,341.43 717.25,332.86 720.46,337.14 723.66,341.43 726.87,345.71 730.07,341.43 733.27,345.71 736.48,330.71 739.68,330.71 742.89,337.14 746.09,335.00 749.30,317.86 752.50,345.71 755.70,332.86 758.91,341.43 762.11,298.57 765.32,324.29 768.52,337.14 771.73,328.57 774.93,328.57 778.13,341.43 781.34,345.71 784.54,337.14 787.75,332.86 790.95,345.71 794.15,345.71 797.36,328.57 800.56,332.86 803.77,337.14 806.97,337.14 810.18,330.71 813.38,315.71 816.58,337.14 819.79,337.14 822.99,345.71 826.20,332.86 829.40,328.57 832.61,337.14 835.81,326.43 839.01,322.14 842.22,328.57 845.42,332.86 848.63,341.43 851.83,328.57 855.04,324.29 858.24,313.57 861.44,341.43 864.65,341.43 867.85,332.86 871.06,341.43 874.26,285.71 877.46,313.57 880.67,328.57 883.87,328.57 887.08,337.14 890.28,341.43 893.49,324.29 896.69,330.71 899.89,309.29 903.10,341.43 906.30,328.57 909.51,339.29 912.71,345.71 915.92,341.43 919.12,328.57 922.32,315.71 925.53,324.29 928.73,332.86 931.94,341.43 935.14,328.57 938.35,315.71 941.55,298.57 944.75,313.57 947.96,326.43 951.16,328.57 954.37,337.14 957.57,326.43 960.77,324.29 963.98,335.00 967.18,328.57 970.39,320.00 973.59,341.43 976.80,337.14 980.00,345.71"/>
  <circle cx="70.00" cy="341.43" r="2.5" fill="#2563eb"/>
  <circle cx="73.20" cy="311.43" r="2.5" fill="#2563eb"/>
  <circle cx="76.41" cy="345.71" r="2.5" fill="#2563eb"/>
  <circle cx="79.61" cy="328.57" r="2.5" fill="#2563eb"/>
  <circle cx="82.82" cy="307.14" r="2.5" fill="#2563eb"/>
  <circle cx="86.02" cy="328.57" r="2.5" fill="#2563eb"/>
  <circle cx="89.23" cy="345.71" r="2.5" fill="#2563eb"/>
  <circle cx="92.43" cy="324.29" r="2.5" fill="#2563eb"/>
  <circle cx="95.63" cy="341.43" r="2.5" fill="#2563eb"/>
  <circle cx="98.84" cy="320.00" r="2.5" fill="#2563eb"/>
  <circle cx="102.04" cy="335.00" r="2.5" fill="#2563eb"/>
  <circle cx="105.25" cy="341.43" r="2.5" fill="#2563eb"/>
  <circle cx="108.45" cy="341.43" r="2.5" fill="#2563eb"/>
  <circle cx="111.65" cy="328.57" r="2.5" fill="#2563eb"/>
  <circle cx="114.86" cy="339.29" r="2.5" fill="#2563eb"/>
  <circle cx="118.06" cy="337.14" r="2.5" fill="#2563eb"/>
  <circle cx="121.27" cy="345.71" r="2.5" fill="#2563eb"/>
  <circle cx="124.47" cy="317.86" r="2.5" fill="#2563eb"/>
  <circle cx="127.68" cy="341.43" r="2.5" fill="#2563eb"/>
  <circle cx="130.88" cy="341.43" r="2.5" fill="#2563eb"/>
  <circle cx="134.08" cy="285.71" r="2.5" fill="#2563eb"/>
  <circle cx="137.29" cy="328.57" r="2.5" fill="#2563eb"/>
  <circle cx="140.49" cy="311.43" r="2.5" fill="#2563eb"/>
  <circle cx="143.70" cy="343.57" r="2.5" fill="#2563eb"/>
  <circle cx="146.90" cy="341.43" r="2.5" fill="#2563eb"/>
  <circle cx="150.11" cy="337.14" r="2.5" fill="#2563eb"/>
  <circle cx="153.31" cy="324.29" r="2.5" fill="#2563eb"/>
  <circle cx="156.51" cy="345.71" r="2.5" fill="#2563eb"/>
  <circle cx="159.72" cy="345.71" r="2.5" fill="#2563eb"/>
  <circle cx="162.92" cy="341.43" r="2.5" fill="#2563eb"/>
  <circle cx="166.13" cy="341.43" r="2.5" fill="#2563eb"/>
  <circle cx="169.33" cy="320.00" r="2.5" fill="#2563eb"/>
  <circle cx="172.54" cy="345.71" r="2.5" fill="#2563eb"/>
  <circle cx="175.74" cy="337.14" r="2.5" fill="#2563eb"/>
  <circle cx="178.94" cy="328.57" r="2.5" fill="#2563eb"/>
  <circle cx="182.15" cy="322.14" r="2.5" fill="#2563eb"/>
  <circle cx="185.35" cy="328.57" r="2.5" fill="#2563eb"/>
  <circle cx="188.56" cy="332.86" r="2.5" fill="#2563eb"/>
  <circle cx="191.76" cy="307.14" r="2.5" fill="#2563eb"/>
  <circle cx="194.96" cy="332.86" r="2.5" fill="#2563eb"/>
  <circle cx="198.17" cy="315.71" r="2.5" fill="#2563eb"/>
  <circle cx="201.37" cy="50.00" r="2.5" fill="#2563eb"/>
  <circle cx="204.58" cy="302.86" r="2.5" fill="#2563eb"/>
  <circle cx="207.78" cy="324.29" r="2.5" fill="#2563eb"/>
  <circle cx="210.99" cy="302.86" r="2.5" fill="#2563eb"/>
  <circle cx="214.19" cy="326.43" r="2.5" fill="#2563eb"/>
  <circle cx="217.39" cy="341.43" r="2.5" fill="#2563eb"/>
  <circle cx="220.60" cy="324.29" r="2.5" fill="#2563eb"/>
  <circle cx="223.80" cy="328.57" r="2.5" fill="#2563eb"/>
  <circle cx="227.01" cy="270.71" r="2.5" fill="#2563eb"/>
  <circle cx="230.21" cy="324.29" r="2.5" fill="#2563eb"/>
  <circle cx="233.42" cy="328.57" r="2.5" fill="#2563eb"/>
  <circle cx="236.62" cy="324.29" r="2.5" fill="#2563eb"/>
  <circle cx="239.82" cy="345.71" r="2.5" fill="#2563eb"/>
  <circle cx="243.03" cy="320.00" r="2.5" fill="#2563eb"/>
  <circle cx="246.23" cy="332.86" r="2.5" fill="#2563eb"/>
  <circle cx="249.44" cy="337.14" r="2.5" fill="#2563eb"/>
  <circle cx="252.64" cy="326.43" r="2.5" fill="#2563eb"/>
  <circle cx="255.85" cy="337.14" r="2.5" fill="#2563eb"/>
  <circle cx="259.05" cy="328.57" r="2.5" fill="#2563eb"/>
  <circle cx="262.25" cy="320.00" r="2.5" fill="#2563eb"/>
  <circle cx="265.46" cy="315.71" r="2.5" fill="#2563eb"/>
  <circle cx="268.66" cy="322.14" r="2.5" fill="#2563eb"/>
  <circle cx="271.87" cy="292.14" r="2.5" fill="#2563eb"/>
  <circle cx="275.07" cy="341.43" r="2.5" fill="#2563eb"/>
  <circle cx="278.27" cy="345.71" r="2.5" fill="#2563eb"/>
  <circle cx="281.48" cy="302.86" r="2.5" fill="#2563eb"/>
  <circle cx="284.68" cy="345.71" r="2.5" fill="#2563eb"/>
  <circle cx="287.89" cy="309.29" r="2.5" fill="#2563eb"/>
  <circle cx="291.09" cy="302.86" r="2.5" fill="#2563eb"/>
  <circle cx="294.30" cy="337.14" r="2.5" fill="#2563eb"/>
  <circle cx="297.50" cy="332.86" r="2.5" fill="#2563eb"/>
  <circle cx="300.70" cy="324.29" r="2.5" fill="#2563eb"/>
  <circle cx="303.91" cy="345.71" r="2.5" fill="#2563eb"/>
  <circle cx="307.11" cy="345.71" r="2.5" fill="#2563eb"/>
  <circle cx="310.32" cy="341.43" r="2.5" fill="#2563eb"/>
  <circle cx="313.52" cy="337.14" r="2.5" fill="#2563eb"/>
  <circle cx="316.73" cy="337.14" r="2.5" fill="#2563eb"/>
  <circle cx="319.93" cy="317.86" r="2.5" fill="#2563eb"/>
  <circle cx="323.13" cy="337.14" r="2.5" fill="#2563eb"/>
  <circle cx="326.34" cy="302.86" r="2.5" fill="#2563eb"/>
  <circle cx="329.54" cy="341.43" r="2.5" fill="#2563eb"/>
  <circle cx="332.75" cy="341.43" r="2.5" fill="#2563eb"/>
  <circle cx="335.95" cy="332.86" r="2.5" fill="#2563eb"/>
  <circle cx="339.15" cy="307.14" r="2.5" fill="#2563eb"/>
  <circle cx="342.36" cy="324.29" r="2.5" fill="#2563eb"/>
  <circle cx="345.56" cy="328.57" r="2.5" fill="#2563eb"/>
  <circle cx="348.77" cy="324.29" r="2.5" fill="#2563eb"/>
  <circle cx="351.97" cy="313.57" r="2.5" fill="#2563eb"/>
  <circle cx="355.18" cy="345.71" r="2.5" fill="#2563eb"/>
  <circle cx="358.38" cy="315.71" r="2.5" fill="#2563eb"/>
  <circle cx="361.58" cy="296.43" r="2.5" fill="#2563eb"/>
  <circle cx="364.79" cy="335.00" r="2.5" fill="#2563eb"/>
  <circle cx="367.99" cy="345.71" r="2.5" fill="#2563eb"/>
  <circle cx="371.20" cy="337.14" r="2.5" fill="#2563eb"/>
  <circle cx="374.40" cy="337.14" r="2.5" fill="#2563eb"/>
  <circle cx="377.61" cy="341.43" r="2.5" fill="#2563eb"/>
  <circle cx="380.81" cy="337.14" r="2.5" fill="#2563eb"/>
  <circle cx="384.01" cy="332.86" r="2.5" fill="#2563eb"/>
  <circle cx="387.22" cy="300.71" r="2.5" fill="#2563eb"/>
  <circle cx="390.42" cy="324.29" r="2.5" fill="#2563eb"/>
  <circle cx="393.63" cy="341.43" r="2.5" fill="#2563eb"/>
  <circle cx="396.83" cy="337.14" r="2.5" fill="#2563eb"/>
  <circle cx="400.04" cy="345.71" r="2.5" fill="#2563eb"/>
  <circle cx="403.24" cy="332.86" r="2.5" fill="#2563eb"/>
  <circle cx="406.44" cy="332.86" r="2.5" fill="#2563eb"/>
  <circle cx="409.65" cy="328.57" r="2.5" fill="#2563eb"/>
  <circle cx="412.85" cy="337.14" r="2.5" fill="#2563eb"/>
  <circle cx="416.06" cy="337.14" r="2.5" fill="#2563eb"/>
  <circle cx="419.26" cy="332.86" r="2.5" fill="#2563eb"/>
  <circle cx="422.46" cy="341.43" r="2.5" fill="#2563eb"/>
  <circle cx="425.67" cy="337.14" r="2.5" fill="#2563eb"/>
  <circle cx="428.87" cy="341.43" r="2.5" fill="#2563eb"/>
  <circle cx="432.08" cy="324.29" r="2.5" fill="#2563eb"/>
  <circle cx="435.28" cy="298.57" r="2.5" fill="#2563eb"/>
  <circle cx="438.49" cy="328.57" r="2.5" fill="#2563eb"/>
  <circle cx="441.69" cy="345.71" r="2.5" fill="#2563eb"/>
  <circle cx="444.89" cy="315.71" r="2.5" fill="#2563eb"/>
  <circle cx="448.10" cy="345.71" r="2.5" fill="#2563eb"/>
  <circle cx="451.30" cy="345.71" r="2.5" fill="#2563eb"/>
  <circle cx="454.51" cy="337.14" r="2.5" fill="#2563eb"/>
  <circle cx="457.71" cy="339.29" r="2.5" fill="#2563eb"/>
  <circle cx="460.92" cy="345.71" r="2.5" fill="#2563eb"/>
  <circle cx="464.12" cy="330.71" r="2.5" fill="#2563eb"/>
  <circle cx="467.32" cy="337.14" r="2.5" fill="#2563eb"/>
  <circle cx="470.53" cy="345.71" r="2.5" fill="#2563eb"/>
  <circle cx="473.73" cy="330.71" r="2.5" fill="#2563eb"/>
  <circle cx="476.94" cy="341.43" r="2.5" fill="#2563eb"/>
  <circle cx="480.14" cy="337.14" r="2.5" fill="#2563eb"/>
  <circle cx="483.35" cy="332.86" r="2.5" fill="#2563eb"/>
  <circle cx="486.55" cy="345.71" r="2.5" fill="#2563eb"/>
  <circle cx="489.75" cy="341.43" r="2.5" fill="#2563eb"/>
  <circle cx="492.96" cy="332.86" r="2.5" fill="#2563eb"/>
  <circle cx="496.16" cy="332.86" r="2.5" fill="#2563eb"/>
  <circle cx="499.37" cy="337.14" r="2.5" fill="#2563eb"/>
  <circle cx="502.57" cy="345.71" r="2.5" fill="#2563eb"/>
  <circle cx="505.77" cy="337.14" r="2.5" fill="#2563eb"/>
  <circle cx="508.98" cy="345.71" r="2.5" fill="#2563eb"/>
  <circle cx="512.18" cy="341.43" r="2.5" fill="#2563eb"/>
  <circle cx="515.39" cy="343.57" r="2.5" fill="#2563eb"/>
  <circle cx="518.59" cy="298.57" r="2.5" fill="#2563eb"/>
  <circle cx="521.80" cy="328.57" r="2.5" fill="#2563eb"/>
  <circle cx="525.00" cy="332.86" r="2.5" fill="#2563eb"/>
  <circle cx="528.20" cy="345.71" r="2.5" fill="#2563eb"/>
  <circle cx="531.41" cy="337.14" r="2.5" fill="#2563eb"/>
  <circle cx="534.61" cy="341.43" r="2.5" fill="#2563eb"/>
  <circle cx="537.82" cy="302.86" r="2.5" fill="#2563eb"/>
  <circle cx="541.02" cy="341.43" r="2.5" fill="#2563eb"/>
  <circle cx="544.23" cy="326.43" r="2.5" fill="#2563eb"/>
  <circle cx="547.43" cy="332.86" r="2.5" fill="#2563eb"/>
  <circle cx="550.63" cy="320.00" r="2.5" fill="#2563eb"/>
  <circle cx="553.84" cy="345.71" r="2.5" fill="#2563eb"/>
  <circle cx="557.04" cy="311.43" r="2.5" fill="#2563eb"/>
  <circle cx="560.25" cy="307.14" r="2.5" fill="#2563eb"/>
  <circle cx="563.45" cy="332.86" r="2.5" fill="#2563eb"/>
  <circle cx="566.65" cy="345.71" r="2.5" fill="#2563eb"/>
  <circle cx="569.86" cy="277.14" r="2.5" fill="#2563eb"/>
  <circle cx="573.06" cy="341.43" r="2.5" fill="#2563eb"/>
  <circle cx="576.27" cy="345.71" r="2.5" fill="#2563eb"/>
  <circle cx="579.47" cy="337.14" r="2.5" fill="#2563eb"/>
  <circle cx="582.68" cy="337.14" r="2.5" fill="#2563eb"/>
  <circle cx="585.88" cy="320.00" r="2.5" fill="#2563eb"/>
  <circle cx="589.08" cy="341.43" r="2.5" fill="#2563eb"/>
  <circle cx="592.29" cy="341.43" r="2.5" fill="#2563eb"/>
  <circle cx="595.49" cy="341.43" r="2.5" fill="#2563eb"/>
  <circle cx="598.70" cy="345.71" r="2.5" fill="#2563eb"/>
  <circle cx="601.90" cy="337.14" r="2.5" fill="#2563eb"/>
  <circle cx="605.11" cy="341.43" r="2.5" fill="#2563eb"/>
  <circle cx="608.31" cy="345.71" r="2.5" fill="#2563eb"/>
  <circle cx="611.51" cy="337.14" r="2.5" fill="#2563eb"/>
  <circle cx="614.72" cy="337.14" r="2.5" fill="#2563eb"/>
  <circle cx="617.92" cy="341.43" r="2.5" fill="#2563eb"/>
  <circle cx="621.13" cy="339.29" r="2.5" fill="#2563eb"/>
  <circle cx="624.33" cy="311.43" r="2.5" fill="#2563eb"/>
  <circle cx="627.54" cy="324.29" r="2.5" fill="#2563eb"/>
  <circle cx="630.74" cy="339.29" r="2.5" fill="#2563eb"/>
  <circle cx="633.94" cy="320.00" r="2.5" fill="#2563eb"/>
  <circle cx="637.15" cy="335.00" r="2.5" fill="#2563eb"/>
  <circle cx="640.35" cy="337.14" r="2.5" fill="#2563eb"/>
  <circle cx="643.56" cy="332.86" r="2.5" fill="#2563eb"/>
  <circle cx="646.76" cy="320.00" r="2.5" fill="#2563eb"/>
  <circle cx="649.96" cy="317.86" r="2.5" fill="#2563eb"/>
  <circle cx="653.17" cy="328.57" r="2.5" fill="#2563eb"/>
  <circle cx="656.37" cy="307.14" r="2.5" fill="#2563eb"/>
  <circle cx="659.58" cy="341.43" r="2.5" fill="#2563eb"/>
  <circle cx="662.78" cy="341.43" r="2.5" fill="#2563eb"/>
  <circle cx="665.99" cy="313.57" r="2.5" fill="#2563eb"/>
  <circle cx="669.19" cy="311.43" r="2.5" fill="#2563eb"/>
  <circle cx="672.39" cy="281.43" r="2.5" fill="#2563eb"/>
  <circle cx="675.60" cy="307.14" r="2.5" fill="#2563eb"/>
  <circle cx="678.80" cy="328.57" r="2.5" fill="#2563eb"/>
  <circle cx="682.01" cy="345.71" r="2.5" fill="#2563eb"/>
  <circle cx="685.21" cy="339.29" r="2.5" fill="#2563eb"/>
  <circle cx="688.42" cy="305.00" r="2.5" fill="#2563eb"/>
  <circle cx="691.62" cy="305.00" r="2.5" fill="#2563eb"/>
  <circle cx="694.82" cy="328.57" r="2.5" fill="#2563eb"/>
  <circle cx="698.03" cy="307.14" r="2.5" fill="#2563eb"/>
  <circle cx="701.23" cy="341.43" r="2.5" fill="#2563eb"/>
  <circle cx="704.44" cy="345.71" r="2.5" fill="#2563eb"/>
  <circle cx="707.64" cy="332.86" r="2.5" fill="#2563eb"/>
  <circle cx="710.85" cy="332.86" r="2.5" fill="#2563eb"/>
  <circle cx="714.05" cy="341.43" r="2.5" fill="#2563eb"/>
  <circle cx="717.25" cy="332.86" r="2.5" fill="#2563eb"/>
  <circle cx="720.46" cy="337.14" r="2.5" fill="#2563eb"/>
  <circle cx="723.66" cy="341.43" r="2.5" fill="#2563eb"/>
  <circle cx="726.87" cy="345.71" r="2.5" fill="#2563eb"/>
  <circle cx="730.07" cy="341.43" r="2.5" fill="#2563eb"/>
  <circle cx="733.27" cy="345.71" r="2.5" fill="#2563eb"/>
  <circle cx="736.48" cy="330.71" r="2.5" fill="#2563eb"/>
  <circle cx="739.68" cy="330.71" r="2.5" fill="#2563eb"/>
  <circle cx="742.89" cy="337.14" r="2.5" fill="#2563eb"/>
  <circle cx="746.09" cy="335.00" r="2.5" fill="#2563eb"/>
  <circle cx="749.30" cy="317.86" r="2.5" fill="#2563eb"/>
  <circle cx="752.50" cy="345.71" r="2.5" fill="#2563eb"/>
  <circle cx="755.70" cy="332.86" r="2.5" fill="#2563eb"/>
  <circle cx="758.91" cy="341.43" r="2.5" fill="#2563eb"/>
  <circle cx="762.11" cy="298.57" r="2.5" fill="#2563eb"/>
  <circle cx="765.32" cy="324.29" r="2.5" fill="#2563eb"/>
  <circle cx="768.52" cy="337.14" r="2.5" fill="#2563eb"/>
  <circle cx="771.73" cy="328.57" r="2.5" fill="#2563eb"/>
  <circle cx="774.93" cy="328.57" r="2.5" fill="#2563eb"/>
  <circle cx="778.13" cy="341.43" r="2.5" fill="#2563eb"/>
  <circle cx="781.34" cy="345.71" r="2.5" fill="#2563eb"/>
  <circle cx="784.54" cy="337.14" r="2.5" fill="#2563eb"/>
  <circle cx="787.75" cy="332.86" r="2.5" fill="#2563eb"/>
  <circle cx="790.95" cy="345.71" r="2.5" fill="#2563eb"/>
  <circle cx="794.15" cy="345.71" r="2.5" fill="#2563eb"/>
  <circle cx="797.36" cy="328.57" r="2.5" fill="#2563eb"/>
  <circle cx="800.56" cy="332.86" r="2.5" fill="#2563eb"/>
  <circle cx="803.77" cy="337.14" r="2.5" fill="#2563eb"/>
  <circle cx="806.97" cy="337.14" r="2.5" fill="#2563eb"/>
  <circle cx="810.18" cy="330.71" r="2.5" fill="#2563eb"/>
  <circle cx="813.38" cy="315.71" r="2.5" fill="#2563eb"/>
  <circle cx="816.58" cy="337.14" r="2.5" fill="#2563eb"/>
  <circle cx="819.79" cy="337.14" r="2.5" fill="#2563eb"/>
  <circle cx="822.99" cy="345.71" r="2.5" fill="#2563eb"/>
  <circle cx="826.20" cy="332.86" r="2.5" fill="#2563eb"/>
  <circle cx="829.40" cy="328.57" r="2.5" fill="#2563eb"/>
  <circle cx="832.61" cy="337.14" r="2.5" fill="#2563eb"/>
  <circle cx="835.81" cy="326.43" r="2.5" fill="#2563eb"/>
  <circle cx="839.01" cy="322.14" r="2.5" fill="#2563eb"/>
  <circle cx="842.22" cy="328.57" r="2.5" fill="#2563eb"/>
  <circle cx="845.42" cy="332.86" r="2.5" fill="#2563eb"/>
  <circle cx="848.63" cy="341.43" r="2.5" fill="#2563eb"/>
  <circle cx="851.83" cy="328.57" r="2.5" fill="#2563eb"/>
  <circle cx="855.04" cy="324.29" r="2.5" fill="#2563eb"/>
  <circle cx="858.24" cy="313.57" r="2.5" fill="#2563eb"/>
  <circle cx="861.44" cy="341.43" r="2.5" fill="#2563eb"/>
  <circle cx="864.65" cy="341.43" r="2.5" fill="#2563eb"/>
  <circle cx="867.85" cy="332.86" r="2.5" fill="#2563eb"/>
  <circle cx="871.06" cy="341.43" r="2.5" fill="#2563eb"/>
  <circle cx="874.26" cy="285.71" r="2.5" fill="#2563eb"/>
  <circle cx="877.46" cy="313.57" r="2.5" fill="#2563eb"/>
  <circle cx="880.67" cy="328.57" r="2.5" fill="#2563eb"/>
  <circle cx="883.87" cy="328.57" r="2.5" fill="#2563eb"/>
  <circle cx="887.08" cy="337.14" r="2.5" fill="#2563eb"/>
  <circle cx="890.28" cy="341.43" r="2.5" fill="#2563eb"/>
  <circle cx="893.49" cy="324.29" r="2.5" fill="#2563eb"/>
  <circle cx="896.69" cy="330.71" r="2.5" fill="#2563eb"/>
  <circle cx="899.89" cy="309.29" r="2.5" fill="#2563eb"/>
  <circle cx="903.10" cy="341.43" r="2.5" fill="#2563eb"/>
  <circle cx="906.30" cy="328.57" r="2.5" fill="#2563eb"/>
  <circle cx="909.51" cy="339.29" r="2.5" fill="#2563eb"/>
  <circle cx="912.71" cy="345.71" r="2.5" fill="#2563eb"/>
  <circle cx="915.92" cy="341.43" r="2.5" fill="#2563eb"/>
  <circle cx="919.12" cy="328.57" r="2.5" fill="#2563eb"/>
  <circle cx="922.32" cy="315.71" r="2.5" fill="#2563eb"/>
  <circle cx="925.53" cy="324.29" r="2.5" fill="#2563eb"/>
  <circle cx="928.73" cy="332.86" r="2.5" fill="#2563eb"/>
  <circle cx="931.94" cy="341.43" r="2.5" fill="#2563eb"/>
  <circle cx="935.14" cy="328.57" r="2.5" fill="#2563eb"/>
  <circle cx="938.35" cy="315.71" r="2.5" fill="#2563eb"/>
  <circle cx="941.55" cy="298.57" r="2.5" fill="#2563eb"/>
  <circle cx="944.75" cy="313.57" r="2.5" fill="#2563eb"/>
  <circle cx="947.96" cy="326.43" r="2.5" fill="#2563eb"/>
  <circle cx="951.16" cy="328.57" r="2.5" fill="#2563eb"/>
  <circle cx="954.37" cy="337.14" r="2.5" fill="#2563eb"/>
  <circle cx="957.57" cy="326.43" r="2.5" fill="#2563eb"/>
  <circle cx="960.77" cy="324.29" r="2.5" fill="#2563eb"/>
  <circle cx="963.98" cy="335.00" r="2.5" fill="#2563eb"/>
  <circle cx="967.18" cy="328.57" r="2.5" fill="#2563eb"/>
  <circle cx="970.39" cy="320.00" r="2.5" fill="#2563eb"/>
  <circle cx="973.59" cy="341.43" r="2.5" fill="#2563eb"/>
  <circle cx="976.80" cy="337.14" r="2.5" fill="#2563eb"/>
  <circle cx="980.00" cy="345.71" r="2.5" fill="#2563eb"/>
</svg>
