<?xml version="1.0" encoding="UTF-8"?>
<svg xmlns="http://www.w3.org/2000/svg" width="1000" height="420" viewBox="0 0 1000 420">
  <rect width="100%" height="100%" fill="#ffffff"/>
  <text x="70" y="28" font-size="20" font-weight="600">개설 시점 기준 - 일별 신규 강의</text>
  <text x="70" y="402" font-size="12" fill="#555">강의 수</text>
  <line x1="70" y1="350.00" x2="980" y2="350.00" stroke="#e5e7eb" stroke-width="1"/>
  <text x="62" y="354.00" font-size="11" fill="#6b7280" text-anchor="end">0</text>
  <line x1="70" y1="290.00" x2="980" y2="290.00" stroke="#e5e7eb" stroke-width="1"/>
  <text x="62" y="294.00" font-size="11" fill="#6b7280" text-anchor="end">34</text>
  <line x1="70" y1="230.00" x2="980" y2="230.00" stroke="#e5e7eb" stroke-width="1"/>
  <text x="62" y="234.00" font-size="11" fill="#6b7280" text-anchor="end">68</text>
  <line x1="70" y1="170.00" x2="980" y2="170.00" stroke="#e5e7eb" stroke-width="1"/>
  <text x="62" y="174.00" font-size="11" fill="#6b7280" text-anchor="end">102</text>
  <line x1="70" y1="110.00" x2="980" y2="110.00" stroke="#e5e7eb" stroke-width="1"/>
  <text x="62" y="114.00" font-size="11" fill="#6b7280" text-anchor="end">136</text>
  <line x1="70" y1="50.00" x2="980" y2="50.00" stroke="#e5e7eb" stroke-width="1"/>
  <text x="62" y="54.00" font-size="11" fill="#6b7280" text-anchor="end">170</text>
  <line x1="70" y1="350" x2="980" y2="350" stroke="#111827" stroke-width="1.2"/>
  <line x1="70" y1="50" x2="70" y2="350" stroke="#111827" stroke-width="1.2"/>
  <line x1="70.00" y1="350" x2="70.00" y2="356" stroke="#9ca3af" stroke-width="1"/>
  <text x="70.00" y="372" font-size="10" fill="#6b7280" text-anchor="middle">2025-04-21</text>
  <line x1="143.87" y1="350" x2="143.87" y2="356" stroke="#9ca3af" stroke-width="1"/>
  <text x="143.87" y="372" font-size="10" fill="#6b7280" text-anchor="middle">2025-05-23</text>
  <line x1="217.75" y1="350" x2="217.75" y2="356" stroke="#9ca3af" stroke-width="1"/>
  <text x="217.75" y="372" font-size="10" fill="#6b7280" text-anchor="middle">2025-06-27</text>
  <line x1="291.62" y1="350" x2="291.62" y2="356" stroke="#9ca3af" stroke-width="1"/>
  <text x="291.62" y="372" font-size="10" fill="#6b7280" text-anchor="middle">2025-07-23</text>
  <line x1="365.50" y1="350" x2="365.50" y2="356" stroke="#9ca3af" stroke-width="1"/>
  <text x="365.50" y="372" font-size="10" fill="#6b7280" text-anchor="middle">2025-08-15</text>
  <line x1="439.37" y1="350" x2="439.37" y2="356" stroke="#9ca3af" stroke-width="1"/>
  <text x="439.37" y="372" font-size="10" fill="#6b7280" text-anchor="middle">2025-09-12</text>
  <line x1="513.25" y1="350" x2="513.25" y2="356" stroke="#9ca3af" stroke-width="1"/>
  <text x="513.25" y="372" font-size="10" fill="#6b7280" text-anchor="middle">2025-10-10</text>
  <line x1="587.12" y1="350" x2="587.12" y2="356" stroke="#9ca3af" stroke-width="1"/>
  <text x="587.12" y="372" font-size="10" fill="#6b7280" text-anchor="middle">2025-11-04</text>
  <line x1="661.00" y1="350" x2="661.00" y2="356" stroke="#9ca3af" stroke-width="1"/>
  <text x="661.00" y="372" font-size="10" fill="#6b7280" text-anchor="middle">2025-11-27</text>
  <line x1="734.87" y1="350" x2="734.87" y2="356" stroke="#9ca3af" stroke-width="1"/>
  <text x="734.87" y="372" font-size="10" fill="#6b7280" text-anchor="middle">2025-12-23</text>
  <line x1="808.75" y1="350" x2="808.75" y2="356" stroke="#9ca3af" stroke-width="1"/>
  <text x="808.75" y="372" font-size="10" fill="#6b7280" text-anchor="middle">2026-01-15</text>
  <line x1="882.62" y1="350" x2="882.62" y2="356" stroke="#9ca3af" stroke-width="1"/>
  <text x="882.62" y="372" font-size="10" fill="#6b7280" text-anchor="middle">2026-02-06</text>
  <line x1="956.49" y1="350" x2="956.49" y2="356" stroke="#9ca3af" stroke-width="1"/>
  <text x="956.49" y="372" font-size="10" fill="#6b7280" text-anchor="middle">2026-03-02</text>
  <line x1="980.00" y1="350" x2="980.00" y2="356" stroke="#9ca3af" stroke-width="1"/>
  <text x="980.00" y="372" font-size="10" fill="#6b7280" text-anchor="middle">2026-03-09</text>
  <polyline fill="none" stroke="#2563eb" stroke-width="2.5" points="70.00,325.29 73.36,339.41 76.72,335.88 80.07,342.94 83.43,311.18 86.79,337.65 90.15,339.41 93.51,290.00 96.86,325.29 100.22,311.18 103.58,344.71 106.94,339.41 110.30,339.41 113.65,323.53 117.01,346.47 120.37,342.94 123.73,335.88 127.08,339.41 130.44,318.24 133.80,346.47 137.16,335.88 140.52,328.82 143.87,316.47 147.23,320.00 150.59,334.12 153.95,302.35 157.31,332.35 160.66,318.24 164.02,50.00 167.38,293.53 170.74,328.82 174.10,300.59 177.45,328.82 180.81,339.41 184.17,320.00 187.53,328.82 190.89,270.59 194.24,320.00 197.60,328.82 200.96,318.24 204.32,346.47 207.68,325.29 211.03,335.88 214.39,337.65 217.75,328.82 221.11,339.41 224.46,323.53 227.82,318.24 231.18,321.76 234.54,323.53 237.90,295.29 241.25,342.94 244.61,342.94 247.97,300.59 251.33,346.47 254.69,309.41 258.04,300.59 261.40,337.65 264.76,335.88 268.12,327.06 271.48,342.94 274.83,346.47 278.19,339.41 281.55,337.65 284.91,339.41 288.27,314.71 291.62,335.88 294.98,297.06 298.34,339.41 301.70,342.94 305.06,332.35 308.41,307.65 311.77,314.71 315.13,325.29 318.49,318.24 321.85,307.65 325.20,346.47 328.56,321.76 331.92,290.00 335.28,332.35 338.63,342.94 341.99,335.88 345.35,339.41 348.71,335.88 352.07,335.88 355.42,332.35 358.78,298.82 362.14,325.29 365.50,342.94 368.86,332.35 372.21,346.47 375.57,332.35 378.93,332.35 382.29,332.35 385.65,337.65 389.00,335.88 392.36,335.88 395.72,342.94 399.08,335.88 402.44,342.94 405.79,325.29 409.15,295.29 412.51,325.29 415.87,346.47 419.23,314.71 422.58,346.47 425.94,346.47 429.30,335.88 432.66,341.18 436.01,346.47 439.37,330.59 442.73,335.88 446.09,346.47 449.45,334.12 452.80,342.94 456.16,332.35 459.52,332.35 462.88,346.47 466.24,335.88 469.59,325.29 472.95,335.88 476.31,335.88 479.67,346.47 483.03,330.59 486.38,346.47 489.74,339.41 493.10,342.94 496.46,282.94 499.82,327.06 503.17,325.29 506.53,346.47 509.89,335.88 513.25,342.94 516.61,302.35 519.96,342.94 523.32,321.76 526.68,328.82 530.04,312.94 533.39,342.94 536.75,300.59 540.11,300.59 543.47,332.35 546.83,346.47 550.18,261.76 553.54,337.65 556.90,346.47 560.26,335.88 563.62,335.88 566.97,311.18 570.33,339.41 573.69,342.94 577.05,339.41 580.41,346.47 583.76,335.88 587.12,342.94 590.48,346.47 593.84,339.41 597.20,332.35 600.55,342.94 603.91,341.18 607.27,300.59 610.63,320.00 613.99,335.88 617.34,314.71 620.70,334.12 624.06,335.88 627.42,335.88 630.77,311.18 634.13,318.24 637.49,325.29 640.85,302.35 644.21,339.41 647.56,342.94 650.92,316.47 654.28,300.59 657.64,279.41 661.00,305.88 664.35,332.35 667.71,346.47 671.07,335.88 674.43,300.59 677.79,298.82 681.14,323.53 684.50,304.12 687.86,335.88 691.22,342.94 694.58,328.82 697.93,332.35 701.29,339.41 704.65,325.29 708.01,339.41 711.37,342.94 714.72,342.94 718.08,342.94 721.44,346.47 724.80,334.12 728.15,330.59 731.51,328.82 734.87,332.35 738.23,312.94 741.59,346.47 744.94,328.82 748.30,342.94 751.66,298.82 755.02,323.53 758.38,335.88 761.73,328.82 765.09,325.29 768.45,339.41 771.81,342.94 775.17,339.41 778.52,325.29 781.88,346.47 785.24,342.94 788.60,325.29 791.96,327.06 795.31,334.12 798.67,332.35 802.03,328.82 805.39,305.88 808.75,332.35 812.10,332.35 815.46,346.47 818.82,330.59 822.18,325.29 825.54,332.35 828.89,327.06 832.25,321.76 835.61,325.29 838.97,330.59 842.32,339.41 845.68,318.24 849.04,320.00 852.40,312.94 855.76,342.94 859.11,339.41 862.47,334.12 865.83,339.41 869.19,277.65 872.55,304.12 875.90,325.29 879.26,325.29 882.62,339.41 885.98,342.94 889.34,316.47 892.69,330.59 896.05,304.12 899.41,335.88 902.77,318.24 906.13,335.88 909.48,346.47 912.84,335.88 916.20,325.29 919.56,309.41 922.92,320.00 926.27,334.12 929.63,341.18 932.99,325.29 936.35,312.94 939.70,298.82 943.06,309.41 946.42,314.71 949.78,325.29 953.14,335.88 956.49,323.53 959.85,321.76 963.21,337.65 966.57,332.35 969.93,302.35 973.28,342.94 976.64,335.88 980.00,342.94"/>
  <circle cx="70.00" cy="325.29" r="2.5" fill="#2563eb"/>
  <circle cx="73.36" cy="339.41" r="2.5" fill="#2563eb"/>
  <circle cx="76.72" cy="335.88" r="2.5" fill="#2563eb"/>
  <circle cx="80.07" cy="342.94" r="2.5" fill="#2563eb"/>
  <circle cx="83.43" cy="311.18" r="2.5" fill="#2563eb"/>
  <circle cx="86.79" cy="337.65" r="2.5" fill="#2563eb"/>
  <circle cx="90.15" cy="339.41" r="2.5" fill="#2563eb"/>
  <circle cx="93.51" cy="290.00" r="2.5" fill="#2563eb"/>
  <circle cx="96.86" cy="325.29" r="2.5" fill="#2563eb"/>
  <circle cx="100.22" cy="311.18" r="2.5" fill="#2563eb"/>
  <circle cx="103.58" cy="344.71" r="2.5" fill="#2563eb"/>
  <circle cx="106.94" cy="339.41" r="2.5" fill="#2563eb"/>
  <circle cx="110.30" cy="339.41" r="2.5" fill="#2563eb"/>
  <circle cx="113.65" cy="323.53" r="2.5" fill="#2563eb"/>
  <circle cx="117.01" cy="346.47" r="2.5" fill="#2563eb"/>
  <circle cx="120.37" cy="342.94" r="2.5" fill="#2563eb"/>
  <circle cx="123.73" cy="335.88" r="2.5" fill="#2563eb"/>
  <circle cx="127.08" cy="339.41" r="2.5" fill="#2563eb"/>
  <circle cx="130.44" cy="318.24" r="2.5" fill="#2563eb"/>
  <circle cx="133.80" cy="346.47" r="2.5" fill="#2563eb"/>
  <circle cx="137.16" cy="335.88" r="2.5" fill="#2563eb"/>
  <circle cx="140.52" cy="328.82" r="2.5" fill="#2563eb"/>
  <circle cx="143.87" cy="316.47" r="2.5" fill="#2563eb"/>
  <circle cx="147.23" cy="320.00" r="2.5" fill="#2563eb"/>
  <circle cx="150.59" cy="334.12" r="2.5" fill="#2563eb"/>
  <circle cx="153.95" cy="302.35" r="2.5" fill="#2563eb"/>
  <circle cx="157.31" cy="332.35" r="2.5" fill="#2563eb"/>
  <circle cx="160.66" cy="318.24" r="2.5" fill="#2563eb"/>
  <circle cx="164.02" cy="50.00" r="2.5" fill="#2563eb"/>
  <circle cx="167.38" cy="293.53" r="2.5" fill="#2563eb"/>
  <circle cx="170.74" cy="328.82" r="2.5" fill="#2563eb"/>
  <circle cx="174.10" cy="300.59" r="2.5" fill="#2563eb"/>
  <circle cx="177.45" cy="328.82" r="2.5" fill="#2563eb"/>
  <circle cx="180.81" cy="339.41" r="2.5" fill="#2563eb"/>
  <circle cx="184.17" cy="320.00" r="2.5" fill="#2563eb"/>
  <circle cx="187.53" cy="328.82" r="2.5" fill="#2563eb"/>
  <circle cx="190.89" cy="270.59" r="2.5" fill="#2563eb"/>
  <circle cx="194.24" cy="320.00" r="2.5" fill="#2563eb"/>
  <circle cx="197.60" cy="328.82" r="2.5" fill="#2563eb"/>
  <circle cx="200.96" cy="318.24" r="2.5" fill="#2563eb"/>
  <circle cx="204.32" cy="346.47" r="2.5" fill="#2563eb"/>
  <circle cx="207.68" cy="325.29" r="2.5" fill="#2563eb"/>
  <circle cx="211.03" cy="335.88" r="2.5" fill="#2563eb"/>
  <circle cx="214.39" cy="337.65" r="2.5" fill="#2563eb"/>
  <circle cx="217.75" cy="328.82" r="2.5" fill="#2563eb"/>
  <circle cx="221.11" cy="339.41" r="2.5" fill="#2563eb"/>
  <circle cx="224.46" cy="323.53" r="2.5" fill="#2563eb"/>
  <circle cx="227.82" cy="318.24" r="2.5" fill="#2563eb"/>
  <circle cx="231.18" cy="321.76" r="2.5" fill="#2563eb"/>
  <circle cx="234.54" cy="323.53" r="2.5" fill="#2563eb"/>
  <circle cx="237.90" cy="295.29" r="2.5" fill="#2563eb"/>
  <circle cx="241.25" cy="342.94" r="2.5" fill="#2563eb"/>
  <circle cx="244.61" cy="342.94" r="2.5" fill="#2563eb"/>
  <circle cx="247.97" cy="300.59" r="2.5" fill="#2563eb"/>
  <circle cx="251.33" cy="346.47" r="2.5" fill="#2563eb"/>
  <circle cx="254.69" cy="309.41" r="2.5" fill="#2563eb"/>
  <circle cx="258.04" cy="300.59" r="2.5" fill="#2563eb"/>
  <circle cx="261.40" cy="337.65" r="2.5" fill="#2563eb"/>
  <circle cx="264.76" cy="335.88" r="2.5" fill="#2563eb"/>
  <circle cx="268.12" cy="327.06" r="2.5" fill="#2563eb"/>
  <circle cx="271.48" cy="342.94" r="2.5" fill="#2563eb"/>
  <circle cx="274.83" cy="346.47" r="2.5" fill="#2563eb"/>
  <circle cx="278.19" cy="339.41" r="2.5" fill="#2563eb"/>
  <circle cx="281.55" cy="337.65" r="2.5" fill="#2563eb"/>
  <circle cx="284.91" cy="339.41" r="2.5" fill="#2563eb"/>
  <circle cx="288.27" cy="314.71" r="2.5" fill="#2563eb"/>
  <circle cx="291.62" cy="335.88" r="2.5" fill="#2563eb"/>
  <circle cx="294.98" cy="297.06" r="2.5" fill="#2563eb"/>
  <circle cx="298.34" cy="339.41" r="2.5" fill="#2563eb"/>
  <circle cx="301.70" cy="342.94" r="2.5" fill="#2563eb"/>
  <circle cx="305.06" cy="332.35" r="2.5" fill="#2563eb"/>
  <circle cx="308.41" cy="307.65" r="2.5" fill="#2563eb"/>
  <circle cx="311.77" cy="314.71" r="2.5" fill="#2563eb"/>
  <circle cx="315.13" cy="325.29" r="2.5" fill="#2563eb"/>
  <circle cx="318.49" cy="318.24" r="2.5" fill="#2563eb"/>
  <circle cx="321.85" cy="307.65" r="2.5" fill="#2563eb"/>
  <circle cx="325.20" cy="346.47" r="2.5" fill="#2563eb"/>
  <circle cx="328.56" cy="321.76" r="2.5" fill="#2563eb"/>
  <circle cx="331.92" cy="290.00" r="2.5" fill="#2563eb"/>
  <circle cx="335.28" cy="332.35" r="2.5" fill="#2563eb"/>
  <circle cx="338.63" cy="342.94" r="2.5" fill="#2563eb"/>
  <circle cx="341.99" cy="335.88" r="2.5" fill="#2563eb"/>
  <circle cx="345.35" cy="339.41" r="2.5" fill="#2563eb"/>
  <circle cx="348.71" cy="335.88" r="2.5" fill="#2563eb"/>
  <circle cx="352.07" cy="335.88" r="2.5" fill="#2563eb"/>
  <circle cx="355.42" cy="332.35" r="2.5" fill="#2563eb"/>
  <circle cx="358.78" cy="298.82" r="2.5" fill="#2563eb"/>
  <circle cx="362.14" cy="325.29" r="2.5" fill="#2563eb"/>
  <circle cx="365.50" cy="342.94" r="2.5" fill="#2563eb"/>
  <circle cx="368.86" cy="332.35" r="2.5" fill="#2563eb"/>
  <circle cx="372.21" cy="346.47" r="2.5" fill="#2563eb"/>
  <circle cx="375.57" cy="332.35" r="2.5" fill="#2563eb"/>
  <circle cx="378.93" cy="332.35" r="2.5" fill="#2563eb"/>
  <circle cx="382.29" cy="332.35" r="2.5" fill="#2563eb"/>
  <circle cx="385.65" cy="337.65" r="2.5" fill="#2563eb"/>
  <circle cx="389.00" cy="335.88" r="2.5" fill="#2563eb"/>
  <circle cx="392.36" cy="335.88" r="2.5" fill="#2563eb"/>
  <circle cx="395.72" cy="342.94" r="2.5" fill="#2563eb"/>
  <circle cx="399.08" cy="335.88" r="2.5" fill="#2563eb"/>
  <circle cx="402.44" cy="342.94" r="2.5" fill="#2563eb"/>
  <circle cx="405.79" cy="325.29" r="2.5" fill="#2563eb"/>
  <circle cx="409.15" cy="295.29" r="2.5" fill="#2563eb"/>
  <circle cx="412.51" cy="325.29" r="2.5" fill="#2563eb"/>
  <circle cx="415.87" cy="346.47" r="2.5" fill="#2563eb"/>
  <circle cx="419.23" cy="314.71" r="2.5" fill="#2563eb"/>
  <circle cx="422.58" cy="346.47" r="2.5" fill="#2563eb"/>
  <circle cx="425.94" cy="346.47" r="2.5" fill="#2563eb"/>
  <circle cx="429.30" cy="335.88" r="2.5" fill="#2563eb"/>
  <circle cx="432.66" cy="341.18" r="2.5" fill="#2563eb"/>
  <circle cx="436.01" cy="346.47" r="2.5" fill="#2563eb"/>
  <circle cx="439.37" cy="330.59" r="2.5" fill="#2563eb"/>
  <circle cx="442.73" cy="335.88" r="2.5" fill="#2563eb"/>
  <circle cx="446.09" cy="346.47" r="2.5" fill="#2563eb"/>
  <circle cx="449.45" cy="334.12" r="2.5" fill="#2563eb"/>
  <circle cx="452.80" cy="342.94" r="2.5" fill="#2563eb"/>
  <circle cx="456.16" cy="332.35" r="2.5" fill="#2563eb"/>
  <circle cx="459.52" cy="332.35" r="2.5" fill="#2563eb"/>
  <circle cx="462.88" cy="346.47" r="2.5" fill="#2563eb"/>
  <circle cx="466.24" cy="335.88" r="2.5" fill="#2563eb"/>
  <circle cx="469.59" cy="325.29" r="2.5" fill="#2563eb"/>
  <circle cx="472.95" cy="335.88" r="2.5" fill="#2563eb"/>
  <circle cx="476.31" cy="335.88" r="2.5" fill="#2563eb"/>
  <circle cx="479.67" cy="346.47" r="2.5" fill="#2563eb"/>
  <circle cx="483.03" cy="330.59" r="2.5" fill="#2563eb"/>
  <circle cx="486.38" cy="346.47" r="2.5" fill="#2563eb"/>
  <circle cx="489.74" cy="339.41" r="2.5" fill="#2563eb"/>
  <circle cx="493.10" cy="342.94" r="2.5" fill="#2563eb"/>
  <circle cx="496.46" cy="282.94" r="2.5" fill="#2563eb"/>
  <circle cx="499.82" cy="327.06" r="2.5" fill="#2563eb"/>
  <circle cx="503.17" cy="325.29" r="2.5" fill="#2563eb"/>
  <circle cx="506.53" cy="346.47" r="2.5" fill="#2563eb"/>
  <circle cx="509.89" cy="335.88" r="2.5" fill="#2563eb"/>
  <circle cx="513.25" cy="342.94" r="2.5" fill="#2563eb"/>
  <circle cx="516.61" cy="302.35" r="2.5" fill="#2563eb"/>
  <circle cx="519.96" cy="342.94" r="2.5" fill="#2563eb"/>
  <circle cx="523.32" cy="321.76" r="2.5" fill="#2563eb"/>
  <circle cx="526.68" cy="328.82" r="2.5" fill="#2563eb"/>
  <circle cx="530.04" cy="312.94" r="2.5" fill="#2563eb"/>
  <circle cx="533.39" cy="342.94" r="2.5" fill="#2563eb"/>
  <circle cx="536.75" cy="300.59" r="2.5" fill="#2563eb"/>
  <circle cx="540.11" cy="300.59" r="2.5" fill="#2563eb"/>
  <circle cx="543.47" cy="332.35" r="2.5" fill="#2563eb"/>
  <circle cx="546.83" cy="346.47" r="2.5" fill="#2563eb"/>
  <circle cx="550.18" cy="261.76" r="2.5" fill="#2563eb"/>
  <circle cx="553.54" cy="337.65" r="2.5" fill="#2563eb"/>
  <circle cx="556.90" cy="346.47" r="2.5" fill="#2563eb"/>
  <circle cx="560.26" cy="335.88" r="2.5" fill="#2563eb"/>
  <circle cx="563.62" cy="335.88" r="2.5" fill="#2563eb"/>
  <circle cx="566.97" cy="311.18" r="2.5" fill="#2563eb"/>
  <circle cx="570.33" cy="339.41" r="2.5" fill="#2563eb"/>
  <circle cx="573.69" cy="342.94" r="2.5" fill="#2563eb"/>
  <circle cx="577.05" cy="339.41" r="2.5" fill="#2563eb"/>
  <circle cx="580.41" cy="346.47" r="2.5" fill="#2563eb"/>
  <circle cx="583.76" cy="335.88" r="2.5" fill="#2563eb"/>
  <circle cx="587.12" cy="342.94" r="2.5" fill="#2563eb"/>
  <circle cx="590.48" cy="346.47" r="2.5" fill="#2563eb"/>
  <circle cx="593.84" cy="339.41" r="2.5" fill="#2563eb"/>
  <circle cx="597.20" cy="332.35" r="2.5" fill="#2563eb"/>
  <circle cx="600.55" cy="342.94" r="2.5" fill="#2563eb"/>
  <circle cx="603.91" cy="341.18" r="2.5" fill="#2563eb"/>
  <circle cx="607.27" cy="300.59" r="2.5" fill="#2563eb"/>
  <circle cx="610.63" cy="320.00" r="2.5" fill="#2563eb"/>
  <circle cx="613.99" cy="335.88" r="2.5" fill="#2563eb"/>
  <circle cx="617.34" cy="314.71" r="2.5" fill="#2563eb"/>
  <circle cx="620.70" cy="334.12" r="2.5" fill="#2563eb"/>
  <circle cx="624.06" cy="335.88" r="2.5" fill="#2563eb"/>
  <circle cx="627.42" cy="335.88" r="2.5" fill="#2563eb"/>
  <circle cx="630.77" cy="311.18" r="2.5" fill="#2563eb"/>
  <circle cx="634.13" cy="318.24" r="2.5" fill="#2563eb"/>
  <circle cx="637.49" cy="325.29" r="2.5" fill="#2563eb"/>
  <circle cx="640.85" cy="302.35" r="2.5" fill="#2563eb"/>
  <circle cx="644.21" cy="339.41" r="2.5" fill="#2563eb"/>
  <circle cx="647.56" cy="342.94" r="2.5" fill="#2563eb"/>
  <circle cx="650.92" cy="316.47" r="2.5" fill="#2563eb"/>
  <circle cx="654.28" cy="300.59" r="2.5" fill="#2563eb"/>
  <circle cx="657.64" cy="279.41" r="2.5" fill="#2563eb"/>
  <circle cx="661.00" cy="305.88" r="2.5" fill="#2563eb"/>
  <circle cx="664.35" cy="332.35" r="2.5" fill="#2563eb"/>
  <circle cx="667.71" cy="346.47" r="2.5" fill="#2563eb"/>
  <circle cx="671.07" cy="335.88" r="2.5" fill="#2563eb"/>
  <circle cx="674.43" cy="300.59" r="2.5" fill="#2563eb"/>
  <circle cx="677.79" cy="298.82" r="2.5" fill="#2563eb"/>
  <circle cx="681.14" cy="323.53" r="2.5" fill="#2563eb"/>
  <circle cx="684.50" cy="304.12" r="2.5" fill="#2563eb"/>
  <circle cx="687.86" cy="335.88" r="2.5" fill="#2563eb"/>
  <circle cx="691.22" cy="342.94" r="2.5" fill="#2563eb"/>
  <circle cx="694.58" cy="328.82" r="2.5" fill="#2563eb"/>
  <circle cx="697.93" cy="332.35" r="2.5" fill="#2563eb"/>
  <circle cx="701.29" cy="339.41" r="2.5" fill="#2563eb"/>
  <circle cx="704.65" cy="325.29" r="2.5" fill="#2563eb"/>
  <circle cx="708.01" cy="339.41" r="2.5" fill="#2563eb"/>
  <circle cx="711.37" cy="342.94" r="2.5" fill="#2563eb"/>
  <circle cx="714.72" cy="342.94" r="2.5" fill="#2563eb"/>
  <circle cx="718.08" cy="342.94" r="2.5" fill="#2563eb"/>
  <circle cx="721.44" cy="346.47" r="2.5" fill="#2563eb"/>
  <circle cx="724.80" cy="334.12" r="2.5" fill="#2563eb"/>
  <circle cx="728.15" cy="330.59" r="2.5" fill="#2563eb"/>
  <circle cx="731.51" cy="328.82" r="2.5" fill="#2563eb"/>
  <circle cx="734.87" cy="332.35" r="2.5" fill="#2563eb"/>
  <circle cx="738.23" cy="312.94" r="2.5" fill="#2563eb"/>
  <circle cx="741.59" cy="346.47" r="2.5" fill="#2563eb"/>
  <circle cx="744.94" cy="328.82" r="2.5" fill="#2563eb"/>
  <circle cx="748.30" cy="342.94" r="2.5" fill="#2563eb"/>
  <circle cx="751.66" cy="298.82" r="2.5" fill="#2563eb"/>
  <circle cx="755.02" cy="323.53" r="2.5" fill="#2563eb"/>
  <circle cx="758.38" cy="335.88" r="2.5" fill="#2563eb"/>
  <circle cx="761.73" cy="328.82" r="2.5" fill="#2563eb"/>
  <circle cx="765.09" cy="325.29" r="2.5" fill="#2563eb"/>
  <circle cx="768.45" cy="339.41" r="2.5" fill="#2563eb"/>
  <circle cx="771.81" cy="342.94" r="2.5" fill="#2563eb"/>
  <circle cx="775.17" cy="339.41" r="2.5" fill="#2563eb"/>
  <circle cx="778.52" cy="325.29" r="2.5" fill="#2563eb"/>
  <circle cx="781.88" cy="346.47" r="2.5" fill="#2563eb"/>
  <circle cx="785.24" cy="342.94" r="2.5" fill="#2563eb"/>
  <circle cx="788.60" cy="325.29" r="2.5" fill="#2563eb"/>
  <circle cx="791.96" cy="327.06" r="2.5" fill="#2563eb"/>
  <circle cx="795.31" cy="334.12" r="2.5" fill="#2563eb"/>
  <circle cx="798.67" cy="332.35" r="2.5" fill="#2563eb"/>
  <circle cx="802.03" cy="328.82" r="2.5" fill="#2563eb"/>
  <circle cx="805.39" cy="305.88" r="2.5" fill="#2563eb"/>
  <circle cx="808.75" cy="332.35" r="2.5" fill="#2563eb"/>
  <circle cx="812.10" cy="332.35" r="2.5" fill="#2563eb"/>
  <circle cx="815.46" cy="346.47" r="2.5" fill="#2563eb"/>
  <circle cx="818.82" cy="330.59" r="2.5" fill="#2563eb"/>
  <circle cx="822.18" cy="325.29" r="2.5" fill="#2563eb"/>
  <circle cx="825.54" cy="332.35" r="2.5" fill="#2563eb"/>
  <circle cx="828.89" cy="327.06" r="2.5" fill="#2563eb"/>
  <circle cx="832.25" cy="321.76" r="2.5" fill="#2563eb"/>
  <circle cx="835.61" cy="325.29" r="2.5" fill="#2563eb"/>
  <circle cx="838.97" cy="330.59" r="2.5" fill="#2563eb"/>
  <circle cx="842.32" cy="339.41" r="2.5" fill="#2563eb"/>
  <circle cx="845.68" cy="318.24" r="2.5" fill="#2563eb"/>
  <circle cx="849.04" cy="320.00" r="2.5" fill="#2563eb"/>
  <circle cx="852.40" cy="312.94" r="2.5" fill="#2563eb"/>
  <circle cx="855.76" cy="342.94" r="2.5" fill="#2563eb"/>
  <circle cx="859.11" cy="339.41" r="2.5" fill="#2563eb"/>
  <circle cx="862.47" cy="334.12" r="2.5" fill="#2563eb"/>
  <circle cx="865.83" cy="339.41" r="2.5" fill="#2563eb"/>
  <circle cx="869.19" cy="277.65" r="2.5" fill="#2563eb"/>
  <circle cx="872.55" cy="304.12" r="2.5" fill="#2563eb"/>
  <circle cx="875.90" cy="325.29" r="2.5" fill="#2563eb"/>
  <circle cx="879.26" cy="325.29" r="2.5" fill="#2563eb"/>
  <circle cx="882.62" cy="339.41" r="2.5" fill="#2563eb"/>
  <circle cx="885.98" cy="342.94" r="2.5" fill="#2563eb"/>
  <circle cx="889.34" cy="316.47" r="2.5" fill="#2563eb"/>
  <circle cx="892.69" cy="330.59" r="2.5" fill="#2563eb"/>
  <circle cx="896.05" cy="304.12" r="2.5" fill="#2563eb"/>
  <circle cx="899.41" cy="335.88" r="2.5" fill="#2563eb"/>
  <circle cx="902.77" cy="318.24" r="2.5" fill="#2563eb"/>
  <circle cx="906.13" cy="335.88" r="2.5" fill="#2563eb"/>
  <circle cx="909.48" cy="346.47" r="2.5" fill="#2563eb"/>
  <circle cx="912.84" cy="335.88" r="2.5" fill="#2563eb"/>
  <circle cx="916.20" cy="325.29" r="2.5" fill="#2563eb"/>
  <circle cx="919.56" cy="309.41" r="2.5" fill="#2563eb"/>
  <circle cx="922.92" cy="320.00" r="2.5" fill="#2563eb"/>
  <circle cx="926.27" cy="334.12" r="2.5" fill="#2563eb"/>
  <circle cx="929.63" cy="341.18" r="2.5" fill="#2563eb"/>
  <circle cx="932.99" cy="325.29" r="2.5" fill="#2563eb"/>
  <circle cx="936.35" cy="312.94" r="2.5" fill="#2563eb"/>
  <circle cx="939.70" cy="298.82" r="2.5" fill="#2563eb"/>
  <circle cx="943.06" cy="309.41" r="2.5" fill="#2563eb"/>
  <circle cx="946.42" cy="314.71" r="2.5" fill="#2563eb"/>
  <circle cx="949.78" cy="325.29" r="2.5" fill="#2563eb"/>
  <circle cx="953.14" cy="335.88" r="2.5" fill="#2563eb"/>
  <circle cx="956.49" cy="323.53" r="2.5" fill="#2563eb"/>
  <circle cx="959.85" cy="321.76" r="2.5" fill="#2563eb"/>
  <circle cx="963.21" cy="337.65" r="2.5" fill="#2563eb"/>
  <circle cx="966.57" cy="332.35" r="2.5" fill="#2563eb"/>
  <circle cx="969.93" cy="302.35" r="2.5" fill="#2563eb"/>
  <circle cx="973.28" cy="342.94" r="2.5" fill="#2563eb"/>
  <circle cx="976.64" cy="335.88" r="2.5" fill="#2563eb"/>
  <circle cx="980.00" cy="342.94" r="2.5" fill="#2563eb"/>
</svg>
