<?xml version="1.0" encoding="UTF-8"?>
<svg xmlns="http://www.w3.org/2000/svg" width="1000" height="420" viewBox="0 0 1000 420">
  <rect width="100%" height="100%" fill="#ffffff"/>
  <text x="70" y="28" font-size="20" font-weight="600">개설 시점 기준 - 일별 신규 강의</text>
  <text x="70" y="402" font-size="12" fill="#555">강의 수</text>
  <line x1="70" y1="350.00" x2="980" y2="350.00" stroke="#e5e7eb" stroke-width="1"/>
  <text x="62" y="354.00" font-size="11" fill="#6b7280" text-anchor="end">0</text>
  <line x1="70" y1="290.00" x2="980" y2="290.00" stroke="#e5e7eb" stroke-width="1"/>
  <text x="62" y="294.00" font-size="11" fill="#6b7280" text-anchor="end">34</text>
  <line x1="70" y1="230.00" x2="980" y2="230.00" stroke="#e5e7eb" stroke-width="1"/>
  <text x="62" y="234.00" font-size="11" fill="#6b7280" text-anchor="end">68</text>
  <line x1="70" y1="170.00" x2="980" y2="170.00" stroke="#e5e7eb" stroke-width="1"/>
  <text x="62" y="174.00" font-size="11" fill="#6b7280" text-anchor="end">102</text>
  <line x1="70" y1="110.00" x2="980" y2="110.00" stroke="#e5e7eb" stroke-width="1"/>
  <text x="62" y="114.00" font-size="11" fill="#6b7280" text-anchor="end">136</text>
  <line x1="70" y1="50.00" x2="980" y2="50.00" stroke="#e5e7eb" stroke-width="1"/>
  <text x="62" y="54.00" font-size="11" fill="#6b7280" text-anchor="end">171</text>
  <line x1="70" y1="350" x2="980" y2="350" stroke="#111827" stroke-width="1.2"/>
  <line x1="70" y1="50" x2="70" y2="350" stroke="#111827" stroke-width="1.2"/>
  <line x1="70.00" y1="350" x2="70.00" y2="356" stroke="#9ca3af" stroke-width="1"/>
  <text x="70.00" y="372" font-size="10" fill="#6b7280" text-anchor="middle">2025-04-21</text>
  <line x1="143.87" y1="350" x2="143.87" y2="356" stroke="#9ca3af" stroke-width="1"/>
  <text x="143.87" y="372" font-size="10" fill="#6b7280" text-anchor="middle">2025-05-23</text>
  <line x1="217.75" y1="350" x2="217.75" y2="356" stroke="#9ca3af" stroke-width="1"/>
  <text x="217.75" y="372" font-size="10" fill="#6b7280" text-anchor="middle">2025-06-27</text>
  <line x1="291.62" y1="350" x2="291.62" y2="356" stroke="#9ca3af" stroke-width="1"/>
  <text x="291.62" y="372" font-size="10" fill="#6b7280" text-anchor="middle">2025-07-23</text>
  <line x1="365.50" y1="350" x2="365.50" y2="356" stroke="#9ca3af" stroke-width="1"/>
  <text x="365.50" y="372" font-size="10" fill="#6b7280" text-anchor="middle">2025-08-15</text>
  <line x1="439.37" y1="350" x2="439.37" y2="356" stroke="#9ca3af" stroke-width="1"/>
  <text x="439.37" y="372" font-size="10" fill="#6b7280" text-anchor="middle">2025-09-12</text>
  <line x1="513.25" y1="350" x2="513.25" y2="356" stroke="#9ca3af" stroke-width="1"/>
  <text x="513.25" y="372" font-size="10" fill="#6b7280" text-anchor="middle">2025-10-10</text>
  <line x1="587.12" y1="350" x2="587.12" y2="356" stroke="#9ca3af" stroke-width="1"/>
  <text x="587.12" y="372" font-size="10" fill="#6b7280" text-anchor="middle">2025-11-04</text>
  <line x1="661.00" y1="350" x2="661.00" y2="356" stroke="#9ca3af" stroke-width="1"/>
  <text x="661.00" y="372" font-size="10" fill="#6b7280" text-anchor="middle">2025-11-27</text>
  <line x1="734.87" y1="350" x2="734.87" y2="356" stroke="#9ca3af" stroke-width="1"/>
  <text x="734.87" y="372" font-size="10" fill="#6b7280" text-anchor="middle">2025-12-23</text>
  <line x1="808.75" y1="350" x2="808.75" y2="356" stroke="#9ca3af" stroke-width="1"/>
  <text x="808.75" y="372" font-size="10" fill="#6b7280" text-anchor="middle">2026-01-15</text>
  <line x1="882.62" y1="350" x2="882.62" y2="356" stroke="#9ca3af" stroke-width="1"/>
  <text x="882.62" y="372" font-size="10" fill="#6b7280" text-anchor="middle">2026-02-06</text>
  <line x1="956.49" y1="350" x2="956.49" y2="356" stroke="#9ca3af" stroke-width="1"/>
  <text x="956.49" y="372" font-size="10" fill="#6b7280" text-anchor="middle">2026-03-02</text>
  <line x1="980.00" y1="350" x2="980.00" y2="356" stroke="#9ca3af" stroke-width="1"/>
  <text x="980.00" y="372" font-size="10" fill="#6b7280" text-anchor="middle">2026-03-09</text>
  <polyline fill="none" stroke="#2563eb" stroke-width="2.5" points="70.00,325.44 73.36,339.47 76.72,335.96 80.07,342.98 83.43,311.40 86.79,337.72 90.15,339.47 93.51,290.35 96.86,325.44 100.22,311.40 103.58,344.74 106.94,339.47 110.30,339.47 113.65,323.68 117.01,346.49 120.37,342.98 123.73,335.96 127.08,339.47 130.44,318.42 133.80,346.49 137.16,335.96 140.52,328.95 143.87,316.67 147.23,320.18 150.59,334.21 153.95,302.63 157.31,332.46 160.66,318.42 164.02,50.00 167.38,293.86 170.74,328.95 174.10,300.88 177.45,328.95 180.81,339.47 184.17,320.18 187.53,328.95 190.89,271.05 194.24,320.18 197.60,328.95 200.96,318.42 204.32,346.49 207.68,325.44 211.03,335.96 214.39,337.72 217.75,328.95 221.11,339.47 224.46,323.68 227.82,318.42 231.18,321.93 234.54,323.68 237.90,295.61 241.25,342.98 244.61,342.98 247.97,300.88 251.33,346.49 254.69,309.65 258.04,300.88 261.40,337.72 264.76,335.96 268.12,327.19 271.48,342.98 274.83,346.49 278.19,339.47 281.55,337.72 284.91,339.47 288.27,314.91 291.62,335.96 294.98,297.37 298.34,339.47 301.70,342.98 305.06,332.46 308.41,307.89 311.77,314.91 315.13,325.44 318.49,318.42 321.85,307.89 325.20,346.49 328.56,321.93 331.92,290.35 335.28,332.46 338.63,342.98 341.99,335.96 345.35,339.47 348.71,335.96 352.07,335.96 355.42,332.46 358.78,299.12 362.14,323.68 365.50,342.98 368.86,332.46 372.21,346.49 375.57,332.46 378.93,332.46 382.29,332.46 385.65,337.72 389.00,335.96 392.36,335.96 395.72,342.98 399.08,335.96 402.44,342.98 405.79,325.44 409.15,295.61 412.51,325.44 415.87,346.49 419.23,314.91 422.58,346.49 425.94,346.49 429.30,335.96 432.66,341.23 436.01,346.49 439.37,330.70 442.73,335.96 446.09,346.49 449.45,334.21 452.80,342.98 456.16,332.46 459.52,332.46 462.88,346.49 466.24,335.96 469.59,325.44 472.95,335.96 476.31,335.96 479.67,346.49 483.03,330.70 486.38,346.49 489.74,339.47 493.10,342.98 496.46,283.33 499.82,327.19 503.17,325.44 506.53,346.49 509.89,335.96 513.25,342.98 516.61,302.63 519.96,342.98 523.32,321.93 526.68,328.95 530.04,313.16 533.39,342.98 536.75,300.88 540.11,300.88 543.47,332.46 546.83,346.49 550.18,262.28 553.54,337.72 556.90,346.49 560.26,335.96 563.62,335.96 566.97,311.40 570.33,339.47 573.69,342.98 577.05,339.47 580.41,346.49 583.76,335.96 587.12,342.98 590.48,346.49 593.84,339.47 597.20,332.46 600.55,342.98 603.91,341.23 607.27,300.88 610.63,320.18 613.99,335.96 617.34,314.91 620.70,334.21 624.06,335.96 627.42,335.96 630.77,311.40 634.13,318.42 637.49,325.44 640.85,302.63 644.21,339.47 647.56,342.98 650.92,316.67 654.28,300.88 657.64,279.82 661.00,306.14 664.35,332.46 667.71,346.49 671.07,335.96 674.43,300.88 677.79,299.12 681.14,323.68 684.50,304.39 687.86,335.96 691.22,342.98 694.58,328.95 697.93,332.46 701.29,339.47 704.65,325.44 708.01,339.47 711.37,342.98 714.72,342.98 718.08,342.98 721.44,346.49 724.80,334.21 728.15,330.70 731.51,328.95 734.87,332.46 738.23,313.16 741.59,346.49 744.94,328.95 748.30,342.98 751.66,299.12 755.02,323.68 758.38,335.96 761.73,328.95 765.09,325.44 768.45,339.47 771.81,342.98 775.17,339.47 778.52,325.44 781.88,346.49 785.24,342.98 788.60,325.44 791.96,327.19 795.31,334.21 798.67,332.46 802.03,328.95 805.39,306.14 808.75,332.46 812.10,332.46 815.46,346.49 818.82,330.70 822.18,325.44 825.54,332.46 828.89,327.19 832.25,321.93 835.61,325.44 838.97,330.70 842.32,339.47 845.68,318.42 849.04,320.18 852.40,313.16 855.76,342.98 859.11,339.47 862.47,334.21 865.83,339.47 869.19,278.07 872.55,304.39 875.90,325.44 879.26,325.44 882.62,339.47 885.98,342.98 889.34,316.67 892.69,330.70 896.05,304.39 899.41,335.96 902.77,318.42 906.13,335.96 909.48,346.49 912.84,335.96 916.20,325.44 919.56,309.65 922.92,320.18 926.27,334.21 929.63,341.23 932.99,325.44 936.35,313.16 939.70,299.12 943.06,309.65 946.42,314.91 949.78,325.44 953.14,335.96 956.49,323.68 959.85,321.93 963.21,337.72 966.57,332.46 969.93,302.63 973.28,342.98 976.64,335.96 980.00,342.98"/>
  <circle cx="70.00" cy="325.44" r="2.5" fill="#2563eb"/>
  <circle cx="73.36" cy="339.47" r="2.5" fill="#2563eb"/>
  <circle cx="76.72" cy="335.96" r="2.5" fill="#2563eb"/>
  <circle cx="80.07" cy="342.98" r="2.5" fill="#2563eb"/>
  <circle cx="83.43" cy="311.40" r="2.5" fill="#2563eb"/>
  <circle cx="86.79" cy="337.72" r="2.5" fill="#2563eb"/>
  <circle cx="90.15" cy="339.47" r="2.5" fill="#2563eb"/>
  <circle cx="93.51" cy="290.35" r="2.5" fill="#2563eb"/>
  <circle cx="96.86" cy="325.44" r="2.5" fill="#2563eb"/>
  <circle cx="100.22" cy="311.40" r="2.5" fill="#2563eb"/>
  <circle cx="103.58" cy="344.74" r="2.5" fill="#2563eb"/>
  <circle cx="106.94" cy="339.47" r="2.5" fill="#2563eb"/>
  <circle cx="110.30" cy="339.47" r="2.5" fill="#2563eb"/>
  <circle cx="113.65" cy="323.68" r="2.5" fill="#2563eb"/>
  <circle cx="117.01" cy="346.49" r="2.5" fill="#2563eb"/>
  <circle cx="120.37" cy="342.98" r="2.5" fill="#2563eb"/>
  <circle cx="123.73" cy="335.96" r="2.5" fill="#2563eb"/>
  <circle cx="127.08" cy="339.47" r="2.5" fill="#2563eb"/>
  <circle cx="130.44" cy="318.42" r="2.5" fill="#2563eb"/>
  <circle cx="133.80" cy="346.49" r="2.5" fill="#2563eb"/>
  <circle cx="137.16" cy="335.96" r="2.5" fill="#2563eb"/>
  <circle cx="140.52" cy="328.95" r="2.5" fill="#2563eb"/>
  <circle cx="143.87" cy="316.67" r="2.5" fill="#2563eb"/>
  <circle cx="147.23" cy="320.18" r="2.5" fill="#2563eb"/>
  <circle cx="150.59" cy="334.21" r="2.5" fill="#2563eb"/>
  <circle cx="153.95" cy="302.63" r="2.5" fill="#2563eb"/>
  <circle cx="157.31" cy="332.46" r="2.5" fill="#2563eb"/>
  <circle cx="160.66" cy="318.42" r="2.5" fill="#2563eb"/>
  <circle cx="164.02" cy="50.00" r="2.5" fill="#2563eb"/>
  <circle cx="167.38" cy="293.86" r="2.5" fill="#2563eb"/>
  <circle cx="170.74" cy="328.95" r="2.5" fill="#2563eb"/>
  <circle cx="174.10" cy="300.88" r="2.5" fill="#2563eb"/>
  <circle cx="177.45" cy="328.95" r="2.5" fill="#2563eb"/>
  <circle cx="180.81" cy="339.47" r="2.5" fill="#2563eb"/>
  <circle cx="184.17" cy="320.18" r="2.5" fill="#2563eb"/>
  <circle cx="187.53" cy="328.95" r="2.5" fill="#2563eb"/>
  <circle cx="190.89" cy="271.05" r="2.5" fill="#2563eb"/>
  <circle cx="194.24" cy="320.18" r="2.5" fill="#2563eb"/>
  <circle cx="197.60" cy="328.95" r="2.5" fill="#2563eb"/>
  <circle cx="200.96" cy="318.42" r="2.5" fill="#2563eb"/>
  <circle cx="204.32" cy="346.49" r="2.5" fill="#2563eb"/>
  <circle cx="207.68" cy="325.44" r="2.5" fill="#2563eb"/>
  <circle cx="211.03" cy="335.96" r="2.5" fill="#2563eb"/>
  <circle cx="214.39" cy="337.72" r="2.5" fill="#2563eb"/>
  <circle cx="217.75" cy="328.95" r="2.5" fill="#2563eb"/>
  <circle cx="221.11" cy="339.47" r="2.5" fill="#2563eb"/>
  <circle cx="224.46" cy="323.68" r="2.5" fill="#2563eb"/>
  <circle cx="227.82" cy="318.42" r="2.5" fill="#2563eb"/>
  <circle cx="231.18" cy="321.93" r="2.5" fill="#2563eb"/>
  <circle cx="234.54" cy="323.68" r="2.5" fill="#2563eb"/>
  <circle cx="237.90" cy="295.61" r="2.5" fill="#2563eb"/>
  <circle cx="241.25" cy="342.98" r="2.5" fill="#2563eb"/>
  <circle cx="244.61" cy="342.98" r="2.5" fill="#2563eb"/>
  <circle cx="247.97" cy="300.88" r="2.5" fill="#2563eb"/>
  <circle cx="251.33" cy="346.49" r="2.5" fill="#2563eb"/>
  <circle cx="254.69" cy="309.65" r="2.5" fill="#2563eb"/>
  <circle cx="258.04" cy="300.88" r="2.5" fill="#2563eb"/>
  <circle cx="261.40" cy="337.72" r="2.5" fill="#2563eb"/>
  <circle cx="264.76" cy="335.96" r="2.5" fill="#2563eb"/>
  <circle cx="268.12" cy="327.19" r="2.5" fill="#2563eb"/>
  <circle cx="271.48" cy="342.98" r="2.5" fill="#2563eb"/>
  <circle cx="274.83" cy="346.49" r="2.5" fill="#2563eb"/>
  <circle cx="278.19" cy="339.47" r="2.5" fill="#2563eb"/>
  <circle cx="281.55" cy="337.72" r="2.5" fill="#2563eb"/>
  <circle cx="284.91" cy="339.47" r="2.5" fill="#2563eb"/>
  <circle cx="288.27" cy="314.91" r="2.5" fill="#2563eb"/>
  <circle cx="291.62" cy="335.96" r="2.5" fill="#2563eb"/>
  <circle cx="294.98" cy="297.37" r="2.5" fill="#2563eb"/>
  <circle cx="298.34" cy="339.47" r="2.5" fill="#2563eb"/>
  <circle cx="301.70" cy="342.98" r="2.5" fill="#2563eb"/>
  <circle cx="305.06" cy="332.46" r="2.5" fill="#2563eb"/>
  <circle cx="308.41" cy="307.89" r="2.5" fill="#2563eb"/>
  <circle cx="311.77" cy="314.91" r="2.5" fill="#2563eb"/>
  <circle cx="315.13" cy="325.44" r="2.5" fill="#2563eb"/>
  <circle cx="318.49" cy="318.42" r="2.5" fill="#2563eb"/>
  <circle cx="321.85" cy="307.89" r="2.5" fill="#2563eb"/>
  <circle cx="325.20" cy="346.49" r="2.5" fill="#2563eb"/>
  <circle cx="328.56" cy="321.93" r="2.5" fill="#2563eb"/>
  <circle cx="331.92" cy="290.35" r="2.5" fill="#2563eb"/>
  <circle cx="335.28" cy="332.46" r="2.5" fill="#2563eb"/>
  <circle cx="338.63" cy="342.98" r="2.5" fill="#2563eb"/>
  <circle cx="341.99" cy="335.96" r="2.5" fill="#2563eb"/>
  <circle cx="345.35" cy="339.47" r="2.5" fill="#2563eb"/>
  <circle cx="348.71" cy="335.96" r="2.5" fill="#2563eb"/>
  <circle cx="352.07" cy="335.96" r="2.5" fill="#2563eb"/>
  <circle cx="355.42" cy="332.46" r="2.5" fill="#2563eb"/>
  <circle cx="358.78" cy="299.12" r="2.5" fill="#2563eb"/>
  <circle cx="362.14" cy="323.68" r="2.5" fill="#2563eb"/>
  <circle cx="365.50" cy="342.98" r="2.5" fill="#2563eb"/>
  <circle cx="368.86" cy="332.46" r="2.5" fill="#2563eb"/>
  <circle cx="372.21" cy="346.49" r="2.5" fill="#2563eb"/>
  <circle cx="375.57" cy="332.46" r="2.5" fill="#2563eb"/>
  <circle cx="378.93" cy="332.46" r="2.5" fill="#2563eb"/>
  <circle cx="382.29" cy="332.46" r="2.5" fill="#2563eb"/>
  <circle cx="385.65" cy="337.72" r="2.5" fill="#2563eb"/>
  <circle cx="389.00" cy="335.96" r="2.5" fill="#2563eb"/>
  <circle cx="392.36" cy="335.96" r="2.5" fill="#2563eb"/>
  <circle cx="395.72" cy="342.98" r="2.5" fill="#2563eb"/>
  <circle cx="399.08" cy="335.96" r="2.5" fill="#2563eb"/>
  <circle cx="402.44" cy="342.98" r="2.5" fill="#2563eb"/>
  <circle cx="405.79" cy="325.44" r="2.5" fill="#2563eb"/>
  <circle cx="409.15" cy="295.61" r="2.5" fill="#2563eb"/>
  <circle cx="412.51" cy="325.44" r="2.5" fill="#2563eb"/>
  <circle cx="415.87" cy="346.49" r="2.5" fill="#2563eb"/>
  <circle cx="419.23" cy="314.91" r="2.5" fill="#2563eb"/>
  <circle cx="422.58" cy="346.49" r="2.5" fill="#2563eb"/>
  <circle cx="425.94" cy="346.49" r="2.5" fill="#2563eb"/>
  <circle cx="429.30" cy="335.96" r="2.5" fill="#2563eb"/>
  <circle cx="432.66" cy="341.23" r="2.5" fill="#2563eb"/>
  <circle cx="436.01" cy="346.49" r="2.5" fill="#2563eb"/>
  <circle cx="439.37" cy="330.70" r="2.5" fill="#2563eb"/>
  <circle cx="442.73" cy="335.96" r="2.5" fill="#2563eb"/>
  <circle cx="446.09" cy="346.49" r="2.5" fill="#2563eb"/>
  <circle cx="449.45" cy="334.21" r="2.5" fill="#2563eb"/>
  <circle cx="452.80" cy="342.98" r="2.5" fill="#2563eb"/>
  <circle cx="456.16" cy="332.46" r="2.5" fill="#2563eb"/>
  <circle cx="459.52" cy="332.46" r="2.5" fill="#2563eb"/>
  <circle cx="462.88" cy="346.49" r="2.5" fill="#2563eb"/>
  <circle cx="466.24" cy="335.96" r="2.5" fill="#2563eb"/>
  <circle cx="469.59" cy="325.44" r="2.5" fill="#2563eb"/>
  <circle cx="472.95" cy="335.96" r="2.5" fill="#2563eb"/>
  <circle cx="476.31" cy="335.96" r="2.5" fill="#2563eb"/>
  <circle cx="479.67" cy="346.49" r="2.5" fill="#2563eb"/>
  <circle cx="483.03" cy="330.70" r="2.5" fill="#2563eb"/>
  <circle cx="486.38" cy="346.49" r="2.5" fill="#2563eb"/>
  <circle cx="489.74" cy="339.47" r="2.5" fill="#2563eb"/>
  <circle cx="493.10" cy="342.98" r="2.5" fill="#2563eb"/>
  <circle cx="496.46" cy="283.33" r="2.5" fill="#2563eb"/>
  <circle cx="499.82" cy="327.19" r="2.5" fill="#2563eb"/>
  <circle cx="503.17" cy="325.44" r="2.5" fill="#2563eb"/>
  <circle cx="506.53" cy="346.49" r="2.5" fill="#2563eb"/>
  <circle cx="509.89" cy="335.96" r="2.5" fill="#2563eb"/>
  <circle cx="513.25" cy="342.98" r="2.5" fill="#2563eb"/>
  <circle cx="516.61" cy="302.63" r="2.5" fill="#2563eb"/>
  <circle cx="519.96" cy="342.98" r="2.5" fill="#2563eb"/>
  <circle cx="523.32" cy="321.93" r="2.5" fill="#2563eb"/>
  <circle cx="526.68" cy="328.95" r="2.5" fill="#2563eb"/>
  <circle cx="530.04" cy="313.16" r="2.5" fill="#2563eb"/>
  <circle cx="533.39" cy="342.98" r="2.5" fill="#2563eb"/>
  <circle cx="536.75" cy="300.88" r="2.5" fill="#2563eb"/>
  <circle cx="540.11" cy="300.88" r="2.5" fill="#2563eb"/>
  <circle cx="543.47" cy="332.46" r="2.5" fill="#2563eb"/>
  <circle cx="546.83" cy="346.49" r="2.5" fill="#2563eb"/>
  <circle cx="550.18" cy="262.28" r="2.5" fill="#2563eb"/>
  <circle cx="553.54" cy="337.72" r="2.5" fill="#2563eb"/>
  <circle cx="556.90" cy="346.49" r="2.5" fill="#2563eb"/>
  <circle cx="560.26" cy="335.96" r="2.5" fill="#2563eb"/>
  <circle cx="563.62" cy="335.96" r="2.5" fill="#2563eb"/>
  <circle cx="566.97" cy="311.40" r="2.5" fill="#2563eb"/>
  <circle cx="570.33" cy="339.47" r="2.5" fill="#2563eb"/>
  <circle cx="573.69" cy="342.98" r="2.5" fill="#2563eb"/>
  <circle cx="577.05" cy="339.47" r="2.5" fill="#2563eb"/>
  <circle cx="580.41" cy="346.49" r="2.5" fill="#2563eb"/>
  <circle cx="583.76" cy="335.96" r="2.5" fill="#2563eb"/>
  <circle cx="587.12" cy="342.98" r="2.5" fill="#2563eb"/>
  <circle cx="590.48" cy="346.49" r="2.5" fill="#2563eb"/>
  <circle cx="593.84" cy="339.47" r="2.5" fill="#2563eb"/>
  <circle cx="597.20" cy="332.46" r="2.5" fill="#2563eb"/>
  <circle cx="600.55" cy="342.98" r="2.5" fill="#2563eb"/>
  <circle cx="603.91" cy="341.23" r="2.5" fill="#2563eb"/>
  <circle cx="607.27" cy="300.88" r="2.5" fill="#2563eb"/>
  <circle cx="610.63" cy="320.18" r="2.5" fill="#2563eb"/>
  <circle cx="613.99" cy="335.96" r="2.5" fill="#2563eb"/>
  <circle cx="617.34" cy="314.91" r="2.5" fill="#2563eb"/>
  <circle cx="620.70" cy="334.21" r="2.5" fill="#2563eb"/>
  <circle cx="624.06" cy="335.96" r="2.5" fill="#2563eb"/>
  <circle cx="627.42" cy="335.96" r="2.5" fill="#2563eb"/>
  <circle cx="630.77" cy="311.40" r="2.5" fill="#2563eb"/>
  <circle cx="634.13" cy="318.42" r="2.5" fill="#2563eb"/>
  <circle cx="637.49" cy="325.44" r="2.5" fill="#2563eb"/>
  <circle cx="640.85" cy="302.63" r="2.5" fill="#2563eb"/>
  <circle cx="644.21" cy="339.47" r="2.5" fill="#2563eb"/>
  <circle cx="647.56" cy="342.98" r="2.5" fill="#2563eb"/>
  <circle cx="650.92" cy="316.67" r="2.5" fill="#2563eb"/>
  <circle cx="654.28" cy="300.88" r="2.5" fill="#2563eb"/>
  <circle cx="657.64" cy="279.82" r="2.5" fill="#2563eb"/>
  <circle cx="661.00" cy="306.14" r="2.5" fill="#2563eb"/>
  <circle cx="664.35" cy="332.46" r="2.5" fill="#2563eb"/>
  <circle cx="667.71" cy="346.49" r="2.5" fill="#2563eb"/>
  <circle cx="671.07" cy="335.96" r="2.5" fill="#2563eb"/>
  <circle cx="674.43" cy="300.88" r="2.5" fill="#2563eb"/>
  <circle cx="677.79" cy="299.12" r="2.5" fill="#2563eb"/>
  <circle cx="681.14" cy="323.68" r="2.5" fill="#2563eb"/>
  <circle cx="684.50" cy="304.39" r="2.5" fill="#2563eb"/>
  <circle cx="687.86" cy="335.96" r="2.5" fill="#2563eb"/>
  <circle cx="691.22" cy="342.98" r="2.5" fill="#2563eb"/>
  <circle cx="694.58" cy="328.95" r="2.5" fill="#2563eb"/>
  <circle cx="697.93" cy="332.46" r="2.5" fill="#2563eb"/>
  <circle cx="701.29" cy="339.47" r="2.5" fill="#2563eb"/>
  <circle cx="704.65" cy="325.44" r="2.5" fill="#2563eb"/>
  <circle cx="708.01" cy="339.47" r="2.5" fill="#2563eb"/>
  <circle cx="711.37" cy="342.98" r="2.5" fill="#2563eb"/>
  <circle cx="714.72" cy="342.98" r="2.5" fill="#2563eb"/>
  <circle cx="718.08" cy="342.98" r="2.5" fill="#2563eb"/>
  <circle cx="721.44" cy="346.49" r="2.5" fill="#2563eb"/>
  <circle cx="724.80" cy="334.21" r="2.5" fill="#2563eb"/>
  <circle cx="728.15" cy="330.70" r="2.5" fill="#2563eb"/>
  <circle cx="731.51" cy="328.95" r="2.5" fill="#2563eb"/>
  <circle cx="734.87" cy="332.46" r="2.5" fill="#2563eb"/>
  <circle cx="738.23" cy="313.16" r="2.5" fill="#2563eb"/>
  <circle cx="741.59" cy="346.49" r="2.5" fill="#2563eb"/>
  <circle cx="744.94" cy="328.95" r="2.5" fill="#2563eb"/>
  <circle cx="748.30" cy="342.98" r="2.5" fill="#2563eb"/>
  <circle cx="751.66" cy="299.12" r="2.5" fill="#2563eb"/>
  <circle cx="755.02" cy="323.68" r="2.5" fill="#2563eb"/>
  <circle cx="758.38" cy="335.96" r="2.5" fill="#2563eb"/>
  <circle cx="761.73" cy="328.95" r="2.5" fill="#2563eb"/>
  <circle cx="765.09" cy="325.44" r="2.5" fill="#2563eb"/>
  <circle cx="768.45" cy="339.47" r="2.5" fill="#2563eb"/>
  <circle cx="771.81" cy="342.98" r="2.5" fill="#2563eb"/>
  <circle cx="775.17" cy="339.47" r="2.5" fill="#2563eb"/>
  <circle cx="778.52" cy="325.44" r="2.5" fill="#2563eb"/>
  <circle cx="781.88" cy="346.49" r="2.5" fill="#2563eb"/>
  <circle cx="785.24" cy="342.98" r="2.5" fill="#2563eb"/>
  <circle cx="788.60" cy="325.44" r="2.5" fill="#2563eb"/>
  <circle cx="791.96" cy="327.19" r="2.5" fill="#2563eb"/>
  <circle cx="795.31" cy="334.21" r="2.5" fill="#2563eb"/>
  <circle cx="798.67" cy="332.46" r="2.5" fill="#2563eb"/>
  <circle cx="802.03" cy="328.95" r="2.5" fill="#2563eb"/>
  <circle cx="805.39" cy="306.14" r="2.5" fill="#2563eb"/>
  <circle cx="808.75" cy="332.46" r="2.5" fill="#2563eb"/>
  <circle cx="812.10" cy="332.46" r="2.5" fill="#2563eb"/>
  <circle cx="815.46" cy="346.49" r="2.5" fill="#2563eb"/>
  <circle cx="818.82" cy="330.70" r="2.5" fill="#2563eb"/>
  <circle cx="822.18" cy="325.44" r="2.5" fill="#2563eb"/>
  <circle cx="825.54" cy="332.46" r="2.5" fill="#2563eb"/>
  <circle cx="828.89" cy="327.19" r="2.5" fill="#2563eb"/>
  <circle cx="832.25" cy="321.93" r="2.5" fill="#2563eb"/>
  <circle cx="835.61" cy="325.44" r="2.5" fill="#2563eb"/>
  <circle cx="838.97" cy="330.70" r="2.5" fill="#2563eb"/>
  <circle cx="842.32" cy="339.47" r="2.5" fill="#2563eb"/>
  <circle cx="845.68" cy="318.42" r="2.5" fill="#2563eb"/>
  <circle cx="849.04" cy="320.18" r="2.5" fill="#2563eb"/>
  <circle cx="852.40" cy="313.16" r="2.5" fill="#2563eb"/>
  <circle cx="855.76" cy="342.98" r="2.5" fill="#2563eb"/>
  <circle cx="859.11" cy="339.47" r="2.5" fill="#2563eb"/>
  <circle cx="862.47" cy="334.21" r="2.5" fill="#2563eb"/>
  <circle cx="865.83" cy="339.47" r="2.5" fill="#2563eb"/>
  <circle cx="869.19" cy="278.07" r="2.5" fill="#2563eb"/>
  <circle cx="872.55" cy="304.39" r="2.5" fill="#2563eb"/>
  <circle cx="875.90" cy="325.44" r="2.5" fill="#2563eb"/>
  <circle cx="879.26" cy="325.44" r="2.5" fill="#2563eb"/>
  <circle cx="882.62" cy="339.47" r="2.5" fill="#2563eb"/>
  <circle cx="885.98" cy="342.98" r="2.5" fill="#2563eb"/>
  <circle cx="889.34" cy="316.67" r="2.5" fill="#2563eb"/>
  <circle cx="892.69" cy="330.70" r="2.5" fill="#2563eb"/>
  <circle cx="896.05" cy="304.39" r="2.5" fill="#2563eb"/>
  <circle cx="899.41" cy="335.96" r="2.5" fill="#2563eb"/>
  <circle cx="902.77" cy="318.42" r="2.5" fill="#2563eb"/>
  <circle cx="906.13" cy="335.96" r="2.5" fill="#2563eb"/>
  <circle cx="909.48" cy="346.49" r="2.5" fill="#2563eb"/>
  <circle cx="912.84" cy="335.96" r="2.5" fill="#2563eb"/>
  <circle cx="916.20" cy="325.44" r="2.5" fill="#2563eb"/>
  <circle cx="919.56" cy="309.65" r="2.5" fill="#2563eb"/>
  <circle cx="922.92" cy="320.18" r="2.5" fill="#2563eb"/>
  <circle cx="926.27" cy="334.21" r="2.5" fill="#2563eb"/>
  <circle cx="929.63" cy="341.23" r="2.5" fill="#2563eb"/>
  <circle cx="932.99" cy="325.44" r="2.5" fill="#2563eb"/>
  <circle cx="936.35" cy="313.16" r="2.5" fill="#2563eb"/>
  <circle cx="939.70" cy="299.12" r="2.5" fill="#2563eb"/>
  <circle cx="943.06" cy="309.65" r="2.5" fill="#2563eb"/>
  <circle cx="946.42" cy="314.91" r="2.5" fill="#2563eb"/>
  <circle cx="949.78" cy="325.44" r="2.5" fill="#2563eb"/>
  <circle cx="953.14" cy="335.96" r="2.5" fill="#2563eb"/>
  <circle cx="956.49" cy="323.68" r="2.5" fill="#2563eb"/>
  <circle cx="959.85" cy="321.93" r="2.5" fill="#2563eb"/>
  <circle cx="963.21" cy="337.72" r="2.5" fill="#2563eb"/>
  <circle cx="966.57" cy="332.46" r="2.5" fill="#2563eb"/>
  <circle cx="969.93" cy="302.63" r="2.5" fill="#2563eb"/>
  <circle cx="973.28" cy="342.98" r="2.5" fill="#2563eb"/>
  <circle cx="976.64" cy="335.96" r="2.5" fill="#2563eb"/>
  <circle cx="980.00" cy="342.98" r="2.5" fill="#2563eb"/>
</svg>
