<?xml version="1.0" encoding="UTF-8"?>
<svg xmlns="http://www.w3.org/2000/svg" width="1000" height="420" viewBox="0 0 1000 420">
  <rect width="100%" height="100%" fill="#ffffff"/>
  <text x="70" y="28" font-size="20" font-weight="600">수집 시점 기준 - 시간별 스냅샷</text>
  <text x="70" y="402" font-size="12" fill="#555">스냅샷 수</text>
  <line x1="70" y1="350.00" x2="980" y2="350.00" stroke="#e5e7eb" stroke-width="1"/>
  <text x="62" y="354.00" font-size="11" fill="#6b7280" text-anchor="end">0</text>
  <line x1="70" y1="290.00" x2="980" y2="290.00" stroke="#e5e7eb" stroke-width="1"/>
  <text x="62" y="294.00" font-size="11" fill="#6b7280" text-anchor="end">1,440</text>
  <line x1="70" y1="230.00" x2="980" y2="230.00" stroke="#e5e7eb" stroke-width="1"/>
  <text x="62" y="234.00" font-size="11" fill="#6b7280" text-anchor="end">2,880</text>
  <line x1="70" y1="170.00" x2="980" y2="170.00" stroke="#e5e7eb" stroke-width="1"/>
  <text x="62" y="174.00" font-size="11" fill="#6b7280" text-anchor="end">4,321</text>
  <line x1="70" y1="110.00" x2="980" y2="110.00" stroke="#e5e7eb" stroke-width="1"/>
  <text x="62" y="114.00" font-size="11" fill="#6b7280" text-anchor="end">5,761</text>
  <line x1="70" y1="50.00" x2="980" y2="50.00" stroke="#e5e7eb" stroke-width="1"/>
  <text x="62" y="54.00" font-size="11" fill="#6b7280" text-anchor="end">7,202</text>
  <line x1="70" y1="350" x2="980" y2="350" stroke="#111827" stroke-width="1.2"/>
  <line x1="70" y1="50" x2="70" y2="350" stroke="#111827" stroke-width="1.2"/>
  <line x1="70.00" y1="350" x2="70.00" y2="356" stroke="#9ca3af" stroke-width="1"/>
  <text x="70.00" y="372" font-size="10" fill="#6b7280" text-anchor="middle">2026-02-28 18</text>
  <line x1="145.73" y1="350" x2="145.73" y2="356" stroke="#9ca3af" stroke-width="1"/>
  <text x="145.73" y="372" font-size="10" fill="#6b7280" text-anchor="middle">2026-03-09 20</text>
  <line x1="221.47" y1="350" x2="221.47" y2="356" stroke="#9ca3af" stroke-width="1"/>
  <text x="221.47" y="372" font-size="10" fill="#6b7280" text-anchor="middle">2026-03-12 17</text>
  <line x1="297.20" y1="350" x2="297.20" y2="356" stroke="#9ca3af" stroke-width="1"/>
  <text x="297.20" y="372" font-size="10" fill="#6b7280" text-anchor="middle">2026-03-15 23</text>
  <line x1="372.93" y1="350" x2="372.93" y2="356" stroke="#9ca3af" stroke-width="1"/>
  <text x="372.93" y="372" font-size="10" fill="#6b7280" text-anchor="middle">2026-03-20 04</text>
  <line x1="448.67" y1="350" x2="448.67" y2="356" stroke="#9ca3af" stroke-width="1"/>
  <text x="448.67" y="372" font-size="10" fill="#6b7280" text-anchor="middle">2026-03-23 20</text>
  <line x1="524.40" y1="350" x2="524.40" y2="356" stroke="#9ca3af" stroke-width="1"/>
  <text x="524.40" y="372" font-size="10" fill="#6b7280" text-anchor="middle">2026-03-28 02</text>
  <line x1="600.13" y1="350" x2="600.13" y2="356" stroke="#9ca3af" stroke-width="1"/>
  <text x="600.13" y="372" font-size="10" fill="#6b7280" text-anchor="middle">2026-04-01 09</text>
  <line x1="675.87" y1="350" x2="675.87" y2="356" stroke="#9ca3af" stroke-width="1"/>
  <text x="675.87" y="372" font-size="10" fill="#6b7280" text-anchor="middle">2026-04-05 16</text>
  <line x1="751.60" y1="350" x2="751.60" y2="356" stroke="#9ca3af" stroke-width="1"/>
  <text x="751.60" y="372" font-size="10" fill="#6b7280" text-anchor="middle">2026-04-10 06</text>
  <line x1="827.33" y1="350" x2="827.33" y2="356" stroke="#9ca3af" stroke-width="1"/>
  <text x="827.33" y="372" font-size="10" fill="#6b7280" text-anchor="middle">2026-04-14 17</text>
  <line x1="903.06" y1="350" x2="903.06" y2="356" stroke="#9ca3af" stroke-width="1"/>
  <text x="903.06" y="372" font-size="10" fill="#6b7280" text-anchor="middle">2026-04-19 05</text>
  <line x1="978.80" y1="350" x2="978.80" y2="356" stroke="#9ca3af" stroke-width="1"/>
  <text x="978.80" y="372" font-size="10" fill="#6b7280" text-anchor="middle">2026-04-23 19</text>
  <line x1="980.00" y1="350" x2="980.00" y2="356" stroke="#9ca3af" stroke-width="1"/>
  <text x="980.00" y="372" font-size="10" fill="#6b7280" text-anchor="middle">2026-04-23 20</text>
  <polyline fill="none" stroke="#2563eb" stroke-width="2.5" points="70.00,50.00 71.20,50.12 72.40,50.17 73.61,50.46 74.81,50.00 76.01,266.90 77.21,50.12 78.41,50.08 79.62,177.46 80.82,211.58 82.02,175.34 83.22,304.14 84.43,200.46 85.63,250.94 86.83,300.01 88.03,300.06 89.23,300.01 90.44,300.01 91.64,348.00 92.84,300.01 94.04,249.99 95.24,200.00 96.45,249.99 97.65,249.99 98.85,250.03 100.05,250.03 101.25,250.03 102.46,250.40 103.66,250.90 104.86,250.90 106.06,251.32 107.27,249.94 108.47,300.01 109.67,299.93 110.87,251.03 112.07,300.68 113.28,250.03 114.48,200.00 115.68,249.99 116.88,250.03 118.08,250.03 119.29,250.03 120.49,300.01 121.69,200.04 122.89,250.03 124.10,250.03 125.30,250.03 126.50,249.90 127.70,250.03 128.90,250.03 130.11,250.94 131.31,250.44 132.51,250.03 133.71,250.03 134.91,300.47 136.12,300.01 137.32,300.43 138.52,250.03 139.72,249.99 140.92,300.43 142.13,249.90 143.33,249.99 144.53,249.99 145.73,200.04 146.94,300.01 148.14,300.01 149.34,300.01 150.54,249.90 151.74,300.01 152.95,250.03 154.15,249.99 155.35,199.96 156.55,300.01 157.75,200.00 158.96,250.36 160.16,250.03 161.36,300.01 162.56,300.01 163.76,250.44 164.97,300.01 166.17,250.03 167.37,250.03 168.57,249.99 169.78,250.49 170.98,250.03 172.18,200.04 173.38,300.01 174.58,250.03 175.79,300.01 176.99,250.11 178.19,300.01 179.39,250.03 180.59,250.03 181.80,199.92 183.00,250.03 184.20,250.03 185.40,250.03 186.61,254.36 187.81,300.01 189.01,299.97 190.21,250.36 191.41,299.97 192.62,250.03 193.82,250.03 195.02,250.03 196.22,250.03 197.42,249.99 198.63,200.00 199.83,299.93 201.03,300.01 202.23,299.97 203.43,249.94 204.64,249.99 205.84,249.82 207.04,249.94 208.24,250.28 209.45,207.00 210.65,250.03 211.85,250.32 213.05,250.40 214.25,300.93 215.46,300.01 216.66,300.10 217.86,249.94 219.06,249.99 220.26,250.07 221.47,249.99 222.67,250.03 223.87,249.94 225.07,200.00 226.27,300.39 227.48,300.01 228.68,300.01 229.88,250.44 231.08,300.39 232.29,249.86 233.49,250.11 234.69,201.46 235.89,300.01 237.09,200.83 238.30,250.03 239.50,249.99 240.70,300.26 241.90,300.01 243.10,300.01 244.31,250.03 245.51,250.03 246.71,250.03 247.91,250.03 249.11,249.99 250.32,250.03 251.52,200.00 252.72,300.26 253.92,249.99 255.13,300.01 256.33,249.94 257.53,250.03 258.73,250.03 259.93,250.03 261.14,200.04 262.34,300.01 263.54,249.90 264.74,300.01 265.94,300.01 267.15,300.06 268.35,300.01 269.55,300.01 270.75,243.95 271.96,249.94 273.16,299.97 274.36,300.01 275.56,300.01 276.76,250.03 277.97,300.01 279.17,300.01 280.37,299.97 281.57,249.99 282.77,300.01 283.98,299.93 285.18,300.01 286.38,299.93 287.58,300.01 288.78,300.01 289.99,299.89 291.19,299.97 292.39,250.03 293.59,299.93 294.80,299.89 296.00,299.97 297.20,249.94 298.40,300.01 299.60,300.01 300.81,299.97 302.01,249.99 303.21,299.97 304.41,299.97 305.61,300.06 306.82,300.06 308.02,299.93 309.22,300.01 310.42,300.01 311.62,299.93 312.83,300.01 314.03,300.01 315.23,299.97 316.43,300.01 317.64,300.01 318.84,300.01 320.04,300.01 321.24,249.86 322.44,300.01 323.65,300.10 324.85,299.93 326.05,300.01 327.25,299.93 328.45,300.01 329.66,300.01 330.86,300.01 332.06,300.01 333.26,300.01 334.46,299.97 335.67,300.01 336.87,300.01 338.07,300.01 339.27,300.01 340.48,250.03 341.68,300.01 342.88,300.01 344.08,299.97 345.28,300.01 346.49,300.01 347.69,299.97 348.89,299.97 350.09,300.01 351.29,299.97 352.50,300.01 353.70,299.93 354.90,300.01 356.10,250.03 357.31,300.01 358.51,300.01 359.71,300.01 360.91,300.01 362.11,300.01 363.32,299.89 364.52,300.01 365.72,300.01 366.92,250.07 368.12,300.01 369.33,299.93 370.53,300.01 371.73,299.97 372.93,299.97 374.13,299.97 375.34,250.03 376.54,300.01 377.74,300.01 378.94,300.01 380.15,300.01 381.35,299.97 382.55,300.01 383.75,299.97 384.95,300.01 386.16,299.97 387.36,249.90 388.56,300.01 389.76,300.01 390.96,299.89 392.17,299.97 393.37,299.97 394.57,249.99 395.77,299.97 396.97,299.89 398.18,300.01 399.38,299.97 400.58,299.97 401.78,300.01 402.99,299.97 404.19,249.99 405.39,299.97 406.59,299.97 407.79,300.06 409.00,300.06 410.20,249.94 411.40,300.01 412.60,299.93 413.80,300.01 415.01,300.01 416.21,249.99 417.41,300.01 418.61,300.01 419.82,300.01 421.02,299.93 422.22,299.93 423.42,300.01 424.62,300.01 425.83,249.94 427.03,299.97 428.23,299.97 429.43,300.01 430.63,300.01 431.84,300.01 433.04,249.99 434.24,300.01 435.44,300.01 436.64,300.01 437.85,250.03 439.05,300.01 440.25,300.01 441.45,300.01 442.66,299.97 443.86,300.01 445.06,300.01 446.26,299.97 447.46,299.97 448.67,300.01 449.87,300.01 451.07,299.97 452.27,299.93 453.47,300.01 454.68,300.06 455.88,299.97 457.08,300.01 458.28,250.03 459.48,250.03 460.69,299.93 461.89,299.97 463.09,300.01 464.29,300.01 465.50,300.06 466.70,300.01 467.90,299.93 469.10,300.01 470.30,300.01 471.51,299.97 472.71,299.97 473.91,300.01 475.11,250.03 476.31,300.01 477.52,300.01 478.72,300.01 479.92,299.97 481.12,300.01 482.32,299.97 483.53,300.01 484.73,299.97 485.93,299.97 487.13,299.93 488.34,300.01 489.54,300.01 490.74,299.89 491.94,299.97 493.14,299.97 494.35,300.06 495.55,249.90 496.75,299.89 497.95,300.01 499.15,299.97 500.36,299.97 501.56,299.97 502.76,300.01 503.96,300.01 505.17,299.97 506.37,299.97 507.57,299.97 508.77,250.03 509.97,299.93 511.18,300.01 512.38,300.01 513.58,299.93 514.78,300.01 515.98,300.01 517.19,299.97 518.39,300.01 519.59,300.01 520.79,300.06 521.99,300.01 523.20,299.97 524.40,299.89 525.60,300.01 526.80,300.01 528.01,249.94 529.21,249.94 530.41,300.01 531.61,300.01 532.81,300.01 534.02,300.01 535.22,299.97 536.42,250.03 537.62,300.01 538.82,300.01 540.03,300.01 541.23,300.01 542.43,250.03 543.63,249.99 544.83,300.01 546.04,299.97 547.24,300.01 548.44,299.97 549.64,300.01 550.85,299.97 552.05,299.97 553.25,299.97 554.45,300.06 555.65,249.99 556.86,300.01 558.06,250.03 559.26,249.94 560.46,249.99 561.66,300.01 562.87,300.06 564.07,300.01 565.27,299.97 566.47,299.97 567.68,300.01 568.88,299.93 570.08,299.89 571.28,299.89 572.48,299.89 573.69,299.89 574.89,299.85 576.09,299.85 577.29,299.89 578.49,299.81 579.70,299.81 580.90,299.81 582.10,299.76 583.30,299.76 584.50,299.76 585.71,299.72 586.91,299.68 588.11,299.60 589.31,299.60 590.52,299.60 591.72,299.56 592.92,299.47 594.12,299.43 595.32,299.43 596.53,299.39 597.73,299.47 598.93,259.82 600.13,338.96 601.33,299.31 602.54,299.31 603.74,299.26 604.94,299.68 606.14,299.68 607.34,299.68 608.55,299.64 609.75,299.14 610.95,299.14 612.15,299.10 613.36,299.10 614.56,299.10 615.76,248.07 616.96,299.06 618.16,299.06 619.37,299.06 620.57,299.06 621.77,299.06 622.97,298.97 624.17,298.97 625.38,298.93 626.58,298.97 627.78,298.93 628.98,298.89 630.18,298.89 631.39,298.89 632.59,298.89 633.79,247.78 634.99,298.89 636.20,298.89 637.40,298.85 638.60,298.85 639.80,298.81 641.00,298.81 642.21,298.81 643.41,298.81 644.61,298.81 645.81,298.81 647.01,298.81 648.22,298.81 649.42,298.81 650.62,298.72 651.82,247.45 653.03,247.45 654.23,298.72 655.43,298.72 656.63,298.72 657.83,298.72 659.04,298.72 660.24,298.72 661.44,247.36 662.64,298.68 663.84,247.36 665.05,247.36 666.25,247.36 667.45,298.68 668.65,298.68 669.85,298.68 671.06,298.68 672.26,298.68 673.46,341.67 674.66,307.01 675.87,298.68 677.07,298.68 678.27,298.68 679.47,247.36 680.67,298.64 681.88,247.36 683.08,247.28 684.28,247.20 685.48,298.60 686.68,298.60 687.89,247.03 689.09,298.51 690.29,298.51 691.49,298.51 692.69,298.51 693.90,298.51 695.10,298.51 696.30,298.51 697.50,298.51 698.71,298.51 699.91,298.51 701.11,298.51 702.31,298.51 703.51,298.51 704.72,298.51 705.92,298.51 707.12,298.51 708.32,298.51 709.52,298.51 710.73,298.51 711.93,298.51 713.13,298.51 714.33,298.51 715.54,298.51 716.74,298.51 717.94,298.51 719.14,298.51 720.34,298.47 721.55,298.51 722.75,298.51 723.95,298.47 725.15,298.51 726.35,298.47 727.56,298.51 728.76,298.43 729.96,298.56 731.16,298.43 732.36,298.43 733.57,298.43 734.77,298.43 735.97,298.43 737.17,298.43 738.38,298.43 739.58,298.43 740.78,298.43 741.98,298.43 743.18,298.43 744.39,298.43 745.59,298.43 746.79,298.43 747.99,298.43 749.19,298.43 750.40,298.43 751.60,298.43 752.80,298.43 754.00,298.43 755.20,298.43 756.41,298.43 757.61,298.43 758.81,298.43 760.01,298.43 761.22,298.43 762.42,298.43 763.62,298.43 764.82,298.43 766.02,298.43 767.23,298.43 768.43,298.43 769.63,298.43 770.83,298.43 772.03,298.39 773.24,298.39 774.44,298.43 775.64,298.43 776.84,298.39 778.04,298.39 779.25,298.39 780.45,298.43 781.65,298.43 782.85,298.43 784.06,246.82 785.26,298.43 786.46,246.78 787.66,246.78 788.86,246.78 790.07,246.70 791.27,246.78 792.47,298.39 793.67,298.39 794.87,298.39 796.08,298.39 797.28,298.39 798.48,246.78 799.68,298.39 800.89,298.39 802.09,298.39 803.29,298.39 804.49,298.39 805.69,246.78 806.90,246.78 808.10,298.39 809.30,298.39 810.50,298.39 811.70,298.39 812.91,298.39 814.11,298.39 815.31,298.39 816.51,298.39 817.71,298.39 818.92,298.39 820.12,298.39 821.32,298.39 822.52,298.39 823.73,298.39 824.93,298.35 826.13,298.39 827.33,298.39 828.53,298.35 829.74,298.35 830.94,298.35 832.14,298.35 833.34,298.35 834.54,298.35 835.75,298.35 836.95,298.35 838.15,298.35 839.35,298.35 840.55,298.35 841.76,298.35 842.96,298.35 844.16,298.35 845.36,298.35 846.57,298.35 847.77,298.35 848.97,298.35 850.17,298.35 851.37,298.35 852.58,298.35 853.78,298.35 854.98,298.35 856.18,298.35 857.38,298.35 858.59,298.35 859.79,298.35 860.99,298.35 862.19,298.35 863.39,298.35 864.60,298.35 865.80,298.35 867.00,298.35 868.20,298.35 869.41,298.35 870.61,298.35 871.81,298.35 873.01,298.35 874.21,298.35 875.42,298.35 876.62,298.35 877.82,298.35 879.02,298.35 880.22,298.35 881.43,298.35 882.63,298.35 883.83,298.35 885.03,298.35 886.24,298.35 887.44,298.35 888.64,298.35 889.84,298.35 891.04,298.39 892.25,298.39 893.45,298.39 894.65,246.78 895.85,298.39 897.05,298.39 898.26,298.39 899.46,298.39 900.66,298.39 901.86,298.39 903.06,298.39 904.27,246.78 905.47,298.39 906.67,298.39 907.87,298.39 909.08,298.39 910.28,298.39 911.48,298.39 912.68,298.39 913.88,246.78 915.09,298.39 916.29,298.39 917.49,298.39 918.69,298.39 919.89,298.39 921.10,298.39 922.30,298.39 923.50,298.39 924.70,298.39 925.90,298.39 927.11,298.39 928.31,298.35 929.51,298.39 930.71,298.39 931.92,298.39 933.12,298.35 934.32,298.35 935.52,298.35 936.72,298.35 937.93,298.35 939.13,298.35 940.33,298.35 941.53,298.35 942.73,298.35 943.94,298.35 945.14,298.35 946.34,298.35 947.54,298.35 948.75,298.35 949.95,298.35 951.15,298.35 952.35,298.39 953.55,298.39 954.76,298.39 955.96,298.39 957.16,298.39 958.36,298.39 959.56,298.35 960.77,298.39 961.97,298.39 963.17,298.39 964.37,298.39 965.57,298.39 966.78,298.39 967.98,298.39 969.18,298.39 970.38,298.39 971.59,298.35 972.79,298.39 973.99,298.39 975.19,298.39 976.39,298.39 977.60,298.39 978.80,298.39 980.00,298.39"/>
  <circle cx="70.00" cy="50.00" r="2.5" fill="#2563eb"/>
  <circle cx="71.20" cy="50.12" r="2.5" fill="#2563eb"/>
  <circle cx="72.40" cy="50.17" r="2.5" fill="#2563eb"/>
  <circle cx="73.61" cy="50.46" r="2.5" fill="#2563eb"/>
  <circle cx="74.81" cy="50.00" r="2.5" fill="#2563eb"/>
  <circle cx="76.01" cy="266.90" r="2.5" fill="#2563eb"/>
  <circle cx="77.21" cy="50.12" r="2.5" fill="#2563eb"/>
  <circle cx="78.41" cy="50.08" r="2.5" fill="#2563eb"/>
  <circle cx="79.62" cy="177.46" r="2.5" fill="#2563eb"/>
  <circle cx="80.82" cy="211.58" r="2.5" fill="#2563eb"/>
  <circle cx="82.02" cy="175.34" r="2.5" fill="#2563eb"/>
  <circle cx="83.22" cy="304.14" r="2.5" fill="#2563eb"/>
  <circle cx="84.43" cy="200.46" r="2.5" fill="#2563eb"/>
  <circle cx="85.63" cy="250.94" r="2.5" fill="#2563eb"/>
  <circle cx="86.83" cy="300.01" r="2.5" fill="#2563eb"/>
  <circle cx="88.03" cy="300.06" r="2.5" fill="#2563eb"/>
  <circle cx="89.23" cy="300.01" r="2.5" fill="#2563eb"/>
  <circle cx="90.44" cy="300.01" r="2.5" fill="#2563eb"/>
  <circle cx="91.64" cy="348.00" r="2.5" fill="#2563eb"/>
  <circle cx="92.84" cy="300.01" r="2.5" fill="#2563eb"/>
  <circle cx="94.04" cy="249.99" r="2.5" fill="#2563eb"/>
  <circle cx="95.24" cy="200.00" r="2.5" fill="#2563eb"/>
  <circle cx="96.45" cy="249.99" r="2.5" fill="#2563eb"/>
  <circle cx="97.65" cy="249.99" r="2.5" fill="#2563eb"/>
  <circle cx="98.85" cy="250.03" r="2.5" fill="#2563eb"/>
  <circle cx="100.05" cy="250.03" r="2.5" fill="#2563eb"/>
  <circle cx="101.25" cy="250.03" r="2.5" fill="#2563eb"/>
  <circle cx="102.46" cy="250.40" r="2.5" fill="#2563eb"/>
  <circle cx="103.66" cy="250.90" r="2.5" fill="#2563eb"/>
  <circle cx="104.86" cy="250.90" r="2.5" fill="#2563eb"/>
  <circle cx="106.06" cy="251.32" r="2.5" fill="#2563eb"/>
  <circle cx="107.27" cy="249.94" r="2.5" fill="#2563eb"/>
  <circle cx="108.47" cy="300.01" r="2.5" fill="#2563eb"/>
  <circle cx="109.67" cy="299.93" r="2.5" fill="#2563eb"/>
  <circle cx="110.87" cy="251.03" r="2.5" fill="#2563eb"/>
  <circle cx="112.07" cy="300.68" r="2.5" fill="#2563eb"/>
  <circle cx="113.28" cy="250.03" r="2.5" fill="#2563eb"/>
  <circle cx="114.48" cy="200.00" r="2.5" fill="#2563eb"/>
  <circle cx="115.68" cy="249.99" r="2.5" fill="#2563eb"/>
  <circle cx="116.88" cy="250.03" r="2.5" fill="#2563eb"/>
  <circle cx="118.08" cy="250.03" r="2.5" fill="#2563eb"/>
  <circle cx="119.29" cy="250.03" r="2.5" fill="#2563eb"/>
  <circle cx="120.49" cy="300.01" r="2.5" fill="#2563eb"/>
  <circle cx="121.69" cy="200.04" r="2.5" fill="#2563eb"/>
  <circle cx="122.89" cy="250.03" r="2.5" fill="#2563eb"/>
  <circle cx="124.10" cy="250.03" r="2.5" fill="#2563eb"/>
  <circle cx="125.30" cy="250.03" r="2.5" fill="#2563eb"/>
  <circle cx="126.50" cy="249.90" r="2.5" fill="#2563eb"/>
  <circle cx="127.70" cy="250.03" r="2.5" fill="#2563eb"/>
  <circle cx="128.90" cy="250.03" r="2.5" fill="#2563eb"/>
  <circle cx="130.11" cy="250.94" r="2.5" fill="#2563eb"/>
  <circle cx="131.31" cy="250.44" r="2.5" fill="#2563eb"/>
  <circle cx="132.51" cy="250.03" r="2.5" fill="#2563eb"/>
  <circle cx="133.71" cy="250.03" r="2.5" fill="#2563eb"/>
  <circle cx="134.91" cy="300.47" r="2.5" fill="#2563eb"/>
  <circle cx="136.12" cy="300.01" r="2.5" fill="#2563eb"/>
  <circle cx="137.32" cy="300.43" r="2.5" fill="#2563eb"/>
  <circle cx="138.52" cy="250.03" r="2.5" fill="#2563eb"/>
  <circle cx="139.72" cy="249.99" r="2.5" fill="#2563eb"/>
  <circle cx="140.92" cy="300.43" r="2.5" fill="#2563eb"/>
  <circle cx="142.13" cy="249.90" r="2.5" fill="#2563eb"/>
  <circle cx="143.33" cy="249.99" r="2.5" fill="#2563eb"/>
  <circle cx="144.53" cy="249.99" r="2.5" fill="#2563eb"/>
  <circle cx="145.73" cy="200.04" r="2.5" fill="#2563eb"/>
  <circle cx="146.94" cy="300.01" r="2.5" fill="#2563eb"/>
  <circle cx="148.14" cy="300.01" r="2.5" fill="#2563eb"/>
  <circle cx="149.34" cy="300.01" r="2.5" fill="#2563eb"/>
  <circle cx="150.54" cy="249.90" r="2.5" fill="#2563eb"/>
  <circle cx="151.74" cy="300.01" r="2.5" fill="#2563eb"/>
  <circle cx="152.95" cy="250.03" r="2.5" fill="#2563eb"/>
  <circle cx="154.15" cy="249.99" r="2.5" fill="#2563eb"/>
  <circle cx="155.35" cy="199.96" r="2.5" fill="#2563eb"/>
  <circle cx="156.55" cy="300.01" r="2.5" fill="#2563eb"/>
  <circle cx="157.75" cy="200.00" r="2.5" fill="#2563eb"/>
  <circle cx="158.96" cy="250.36" r="2.5" fill="#2563eb"/>
  <circle cx="160.16" cy="250.03" r="2.5" fill="#2563eb"/>
  <circle cx="161.36" cy="300.01" r="2.5" fill="#2563eb"/>
  <circle cx="162.56" cy="300.01" r="2.5" fill="#2563eb"/>
  <circle cx="163.76" cy="250.44" r="2.5" fill="#2563eb"/>
  <circle cx="164.97" cy="300.01" r="2.5" fill="#2563eb"/>
  <circle cx="166.17" cy="250.03" r="2.5" fill="#2563eb"/>
  <circle cx="167.37" cy="250.03" r="2.5" fill="#2563eb"/>
  <circle cx="168.57" cy="249.99" r="2.5" fill="#2563eb"/>
  <circle cx="169.78" cy="250.49" r="2.5" fill="#2563eb"/>
  <circle cx="170.98" cy="250.03" r="2.5" fill="#2563eb"/>
  <circle cx="172.18" cy="200.04" r="2.5" fill="#2563eb"/>
  <circle cx="173.38" cy="300.01" r="2.5" fill="#2563eb"/>
  <circle cx="174.58" cy="250.03" r="2.5" fill="#2563eb"/>
  <circle cx="175.79" cy="300.01" r="2.5" fill="#2563eb"/>
  <circle cx="176.99" cy="250.11" r="2.5" fill="#2563eb"/>
  <circle cx="178.19" cy="300.01" r="2.5" fill="#2563eb"/>
  <circle cx="179.39" cy="250.03" r="2.5" fill="#2563eb"/>
  <circle cx="180.59" cy="250.03" r="2.5" fill="#2563eb"/>
  <circle cx="181.80" cy="199.92" r="2.5" fill="#2563eb"/>
  <circle cx="183.00" cy="250.03" r="2.5" fill="#2563eb"/>
  <circle cx="184.20" cy="250.03" r="2.5" fill="#2563eb"/>
  <circle cx="185.40" cy="250.03" r="2.5" fill="#2563eb"/>
  <circle cx="186.61" cy="254.36" r="2.5" fill="#2563eb"/>
  <circle cx="187.81" cy="300.01" r="2.5" fill="#2563eb"/>
  <circle cx="189.01" cy="299.97" r="2.5" fill="#2563eb"/>
  <circle cx="190.21" cy="250.36" r="2.5" fill="#2563eb"/>
  <circle cx="191.41" cy="299.97" r="2.5" fill="#2563eb"/>
  <circle cx="192.62" cy="250.03" r="2.5" fill="#2563eb"/>
  <circle cx="193.82" cy="250.03" r="2.5" fill="#2563eb"/>
  <circle cx="195.02" cy="250.03" r="2.5" fill="#2563eb"/>
  <circle cx="196.22" cy="250.03" r="2.5" fill="#2563eb"/>
  <circle cx="197.42" cy="249.99" r="2.5" fill="#2563eb"/>
  <circle cx="198.63" cy="200.00" r="2.5" fill="#2563eb"/>
  <circle cx="199.83" cy="299.93" r="2.5" fill="#2563eb"/>
  <circle cx="201.03" cy="300.01" r="2.5" fill="#2563eb"/>
  <circle cx="202.23" cy="299.97" r="2.5" fill="#2563eb"/>
  <circle cx="203.43" cy="249.94" r="2.5" fill="#2563eb"/>
  <circle cx="204.64" cy="249.99" r="2.5" fill="#2563eb"/>
  <circle cx="205.84" cy="249.82" r="2.5" fill="#2563eb"/>
  <circle cx="207.04" cy="249.94" r="2.5" fill="#2563eb"/>
  <circle cx="208.24" cy="250.28" r="2.5" fill="#2563eb"/>
  <circle cx="209.45" cy="207.00" r="2.5" fill="#2563eb"/>
  <circle cx="210.65" cy="250.03" r="2.5" fill="#2563eb"/>
  <circle cx="211.85" cy="250.32" r="2.5" fill="#2563eb"/>
  <circle cx="213.05" cy="250.40" r="2.5" fill="#2563eb"/>
  <circle cx="214.25" cy="300.93" r="2.5" fill="#2563eb"/>
  <circle cx="215.46" cy="300.01" r="2.5" fill="#2563eb"/>
  <circle cx="216.66" cy="300.10" r="2.5" fill="#2563eb"/>
  <circle cx="217.86" cy="249.94" r="2.5" fill="#2563eb"/>
  <circle cx="219.06" cy="249.99" r="2.5" fill="#2563eb"/>
  <circle cx="220.26" cy="250.07" r="2.5" fill="#2563eb"/>
  <circle cx="221.47" cy="249.99" r="2.5" fill="#2563eb"/>
  <circle cx="222.67" cy="250.03" r="2.5" fill="#2563eb"/>
  <circle cx="223.87" cy="249.94" r="2.5" fill="#2563eb"/>
  <circle cx="225.07" cy="200.00" r="2.5" fill="#2563eb"/>
  <circle cx="226.27" cy="300.39" r="2.5" fill="#2563eb"/>
  <circle cx="227.48" cy="300.01" r="2.5" fill="#2563eb"/>
  <circle cx="228.68" cy="300.01" r="2.5" fill="#2563eb"/>
  <circle cx="229.88" cy="250.44" r="2.5" fill="#2563eb"/>
  <circle cx="231.08" cy="300.39" r="2.5" fill="#2563eb"/>
  <circle cx="232.29" cy="249.86" r="2.5" fill="#2563eb"/>
  <circle cx="233.49" cy="250.11" r="2.5" fill="#2563eb"/>
  <circle cx="234.69" cy="201.46" r="2.5" fill="#2563eb"/>
  <circle cx="235.89" cy="300.01" r="2.5" fill="#2563eb"/>
  <circle cx="237.09" cy="200.83" r="2.5" fill="#2563eb"/>
  <circle cx="238.30" cy="250.03" r="2.5" fill="#2563eb"/>
  <circle cx="239.50" cy="249.99" r="2.5" fill="#2563eb"/>
  <circle cx="240.70" cy="300.26" r="2.5" fill="#2563eb"/>
  <circle cx="241.90" cy="300.01" r="2.5" fill="#2563eb"/>
  <circle cx="243.10" cy="300.01" r="2.5" fill="#2563eb"/>
  <circle cx="244.31" cy="250.03" r="2.5" fill="#2563eb"/>
  <circle cx="245.51" cy="250.03" r="2.5" fill="#2563eb"/>
  <circle cx="246.71" cy="250.03" r="2.5" fill="#2563eb"/>
  <circle cx="247.91" cy="250.03" r="2.5" fill="#2563eb"/>
  <circle cx="249.11" cy="249.99" r="2.5" fill="#2563eb"/>
  <circle cx="250.32" cy="250.03" r="2.5" fill="#2563eb"/>
  <circle cx="251.52" cy="200.00" r="2.5" fill="#2563eb"/>
  <circle cx="252.72" cy="300.26" r="2.5" fill="#2563eb"/>
  <circle cx="253.92" cy="249.99" r="2.5" fill="#2563eb"/>
  <circle cx="255.13" cy="300.01" r="2.5" fill="#2563eb"/>
  <circle cx="256.33" cy="249.94" r="2.5" fill="#2563eb"/>
  <circle cx="257.53" cy="250.03" r="2.5" fill="#2563eb"/>
  <circle cx="258.73" cy="250.03" r="2.5" fill="#2563eb"/>
  <circle cx="259.93" cy="250.03" r="2.5" fill="#2563eb"/>
  <circle cx="261.14" cy="200.04" r="2.5" fill="#2563eb"/>
  <circle cx="262.34" cy="300.01" r="2.5" fill="#2563eb"/>
  <circle cx="263.54" cy="249.90" r="2.5" fill="#2563eb"/>
  <circle cx="264.74" cy="300.01" r="2.5" fill="#2563eb"/>
  <circle cx="265.94" cy="300.01" r="2.5" fill="#2563eb"/>
  <circle cx="267.15" cy="300.06" r="2.5" fill="#2563eb"/>
  <circle cx="268.35" cy="300.01" r="2.5" fill="#2563eb"/>
  <circle cx="269.55" cy="300.01" r="2.5" fill="#2563eb"/>
  <circle cx="270.75" cy="243.95" r="2.5" fill="#2563eb"/>
  <circle cx="271.96" cy="249.94" r="2.5" fill="#2563eb"/>
  <circle cx="273.16" cy="299.97" r="2.5" fill="#2563eb"/>
  <circle cx="274.36" cy="300.01" r="2.5" fill="#2563eb"/>
  <circle cx="275.56" cy="300.01" r="2.5" fill="#2563eb"/>
  <circle cx="276.76" cy="250.03" r="2.5" fill="#2563eb"/>
  <circle cx="277.97" cy="300.01" r="2.5" fill="#2563eb"/>
  <circle cx="279.17" cy="300.01" r="2.5" fill="#2563eb"/>
  <circle cx="280.37" cy="299.97" r="2.5" fill="#2563eb"/>
  <circle cx="281.57" cy="249.99" r="2.5" fill="#2563eb"/>
  <circle cx="282.77" cy="300.01" r="2.5" fill="#2563eb"/>
  <circle cx="283.98" cy="299.93" r="2.5" fill="#2563eb"/>
  <circle cx="285.18" cy="300.01" r="2.5" fill="#2563eb"/>
  <circle cx="286.38" cy="299.93" r="2.5" fill="#2563eb"/>
  <circle cx="287.58" cy="300.01" r="2.5" fill="#2563eb"/>
  <circle cx="288.78" cy="300.01" r="2.5" fill="#2563eb"/>
  <circle cx="289.99" cy="299.89" r="2.5" fill="#2563eb"/>
  <circle cx="291.19" cy="299.97" r="2.5" fill="#2563eb"/>
  <circle cx="292.39" cy="250.03" r="2.5" fill="#2563eb"/>
  <circle cx="293.59" cy="299.93" r="2.5" fill="#2563eb"/>
  <circle cx="294.80" cy="299.89" r="2.5" fill="#2563eb"/>
  <circle cx="296.00" cy="299.97" r="2.5" fill="#2563eb"/>
  <circle cx="297.20" cy="249.94" r="2.5" fill="#2563eb"/>
  <circle cx="298.40" cy="300.01" r="2.5" fill="#2563eb"/>
  <circle cx="299.60" cy="300.01" r="2.5" fill="#2563eb"/>
  <circle cx="300.81" cy="299.97" r="2.5" fill="#2563eb"/>
  <circle cx="302.01" cy="249.99" r="2.5" fill="#2563eb"/>
  <circle cx="303.21" cy="299.97" r="2.5" fill="#2563eb"/>
  <circle cx="304.41" cy="299.97" r="2.5" fill="#2563eb"/>
  <circle cx="305.61" cy="300.06" r="2.5" fill="#2563eb"/>
  <circle cx="306.82" cy="300.06" r="2.5" fill="#2563eb"/>
  <circle cx="308.02" cy="299.93" r="2.5" fill="#2563eb"/>
  <circle cx="309.22" cy="300.01" r="2.5" fill="#2563eb"/>
  <circle cx="310.42" cy="300.01" r="2.5" fill="#2563eb"/>
  <circle cx="311.62" cy="299.93" r="2.5" fill="#2563eb"/>
  <circle cx="312.83" cy="300.01" r="2.5" fill="#2563eb"/>
  <circle cx="314.03" cy="300.01" r="2.5" fill="#2563eb"/>
  <circle cx="315.23" cy="299.97" r="2.5" fill="#2563eb"/>
  <circle cx="316.43" cy="300.01" r="2.5" fill="#2563eb"/>
  <circle cx="317.64" cy="300.01" r="2.5" fill="#2563eb"/>
  <circle cx="318.84" cy="300.01" r="2.5" fill="#2563eb"/>
  <circle cx="320.04" cy="300.01" r="2.5" fill="#2563eb"/>
  <circle cx="321.24" cy="249.86" r="2.5" fill="#2563eb"/>
  <circle cx="322.44" cy="300.01" r="2.5" fill="#2563eb"/>
  <circle cx="323.65" cy="300.10" r="2.5" fill="#2563eb"/>
  <circle cx="324.85" cy="299.93" r="2.5" fill="#2563eb"/>
  <circle cx="326.05" cy="300.01" r="2.5" fill="#2563eb"/>
  <circle cx="327.25" cy="299.93" r="2.5" fill="#2563eb"/>
  <circle cx="328.45" cy="300.01" r="2.5" fill="#2563eb"/>
  <circle cx="329.66" cy="300.01" r="2.5" fill="#2563eb"/>
  <circle cx="330.86" cy="300.01" r="2.5" fill="#2563eb"/>
  <circle cx="332.06" cy="300.01" r="2.5" fill="#2563eb"/>
  <circle cx="333.26" cy="300.01" r="2.5" fill="#2563eb"/>
  <circle cx="334.46" cy="299.97" r="2.5" fill="#2563eb"/>
  <circle cx="335.67" cy="300.01" r="2.5" fill="#2563eb"/>
  <circle cx="336.87" cy="300.01" r="2.5" fill="#2563eb"/>
  <circle cx="338.07" cy="300.01" r="2.5" fill="#2563eb"/>
  <circle cx="339.27" cy="300.01" r="2.5" fill="#2563eb"/>
  <circle cx="340.48" cy="250.03" r="2.5" fill="#2563eb"/>
  <circle cx="341.68" cy="300.01" r="2.5" fill="#2563eb"/>
  <circle cx="342.88" cy="300.01" r="2.5" fill="#2563eb"/>
  <circle cx="344.08" cy="299.97" r="2.5" fill="#2563eb"/>
  <circle cx="345.28" cy="300.01" r="2.5" fill="#2563eb"/>
  <circle cx="346.49" cy="300.01" r="2.5" fill="#2563eb"/>
  <circle cx="347.69" cy="299.97" r="2.5" fill="#2563eb"/>
  <circle cx="348.89" cy="299.97" r="2.5" fill="#2563eb"/>
  <circle cx="350.09" cy="300.01" r="2.5" fill="#2563eb"/>
  <circle cx="351.29" cy="299.97" r="2.5" fill="#2563eb"/>
  <circle cx="352.50" cy="300.01" r="2.5" fill="#2563eb"/>
  <circle cx="353.70" cy="299.93" r="2.5" fill="#2563eb"/>
  <circle cx="354.90" cy="300.01" r="2.5" fill="#2563eb"/>
  <circle cx="356.10" cy="250.03" r="2.5" fill="#2563eb"/>
  <circle cx="357.31" cy="300.01" r="2.5" fill="#2563eb"/>
  <circle cx="358.51" cy="300.01" r="2.5" fill="#2563eb"/>
  <circle cx="359.71" cy="300.01" r="2.5" fill="#2563eb"/>
  <circle cx="360.91" cy="300.01" r="2.5" fill="#2563eb"/>
  <circle cx="362.11" cy="300.01" r="2.5" fill="#2563eb"/>
  <circle cx="363.32" cy="299.89" r="2.5" fill="#2563eb"/>
  <circle cx="364.52" cy="300.01" r="2.5" fill="#2563eb"/>
  <circle cx="365.72" cy="300.01" r="2.5" fill="#2563eb"/>
  <circle cx="366.92" cy="250.07" r="2.5" fill="#2563eb"/>
  <circle cx="368.12" cy="300.01" r="2.5" fill="#2563eb"/>
  <circle cx="369.33" cy="299.93" r="2.5" fill="#2563eb"/>
  <circle cx="370.53" cy="300.01" r="2.5" fill="#2563eb"/>
  <circle cx="371.73" cy="299.97" r="2.5" fill="#2563eb"/>
  <circle cx="372.93" cy="299.97" r="2.5" fill="#2563eb"/>
  <circle cx="374.13" cy="299.97" r="2.5" fill="#2563eb"/>
  <circle cx="375.34" cy="250.03" r="2.5" fill="#2563eb"/>
  <circle cx="376.54" cy="300.01" r="2.5" fill="#2563eb"/>
  <circle cx="377.74" cy="300.01" r="2.5" fill="#2563eb"/>
  <circle cx="378.94" cy="300.01" r="2.5" fill="#2563eb"/>
  <circle cx="380.15" cy="300.01" r="2.5" fill="#2563eb"/>
  <circle cx="381.35" cy="299.97" r="2.5" fill="#2563eb"/>
  <circle cx="382.55" cy="300.01" r="2.5" fill="#2563eb"/>
  <circle cx="383.75" cy="299.97" r="2.5" fill="#2563eb"/>
  <circle cx="384.95" cy="300.01" r="2.5" fill="#2563eb"/>
  <circle cx="386.16" cy="299.97" r="2.5" fill="#2563eb"/>
  <circle cx="387.36" cy="249.90" r="2.5" fill="#2563eb"/>
  <circle cx="388.56" cy="300.01" r="2.5" fill="#2563eb"/>
  <circle cx="389.76" cy="300.01" r="2.5" fill="#2563eb"/>
  <circle cx="390.96" cy="299.89" r="2.5" fill="#2563eb"/>
  <circle cx="392.17" cy="299.97" r="2.5" fill="#2563eb"/>
  <circle cx="393.37" cy="299.97" r="2.5" fill="#2563eb"/>
  <circle cx="394.57" cy="249.99" r="2.5" fill="#2563eb"/>
  <circle cx="395.77" cy="299.97" r="2.5" fill="#2563eb"/>
  <circle cx="396.97" cy="299.89" r="2.5" fill="#2563eb"/>
  <circle cx="398.18" cy="300.01" r="2.5" fill="#2563eb"/>
  <circle cx="399.38" cy="299.97" r="2.5" fill="#2563eb"/>
  <circle cx="400.58" cy="299.97" r="2.5" fill="#2563eb"/>
  <circle cx="401.78" cy="300.01" r="2.5" fill="#2563eb"/>
  <circle cx="402.99" cy="299.97" r="2.5" fill="#2563eb"/>
  <circle cx="404.19" cy="249.99" r="2.5" fill="#2563eb"/>
  <circle cx="405.39" cy="299.97" r="2.5" fill="#2563eb"/>
  <circle cx="406.59" cy="299.97" r="2.5" fill="#2563eb"/>
  <circle cx="407.79" cy="300.06" r="2.5" fill="#2563eb"/>
  <circle cx="409.00" cy="300.06" r="2.5" fill="#2563eb"/>
  <circle cx="410.20" cy="249.94" r="2.5" fill="#2563eb"/>
  <circle cx="411.40" cy="300.01" r="2.5" fill="#2563eb"/>
  <circle cx="412.60" cy="299.93" r="2.5" fill="#2563eb"/>
  <circle cx="413.80" cy="300.01" r="2.5" fill="#2563eb"/>
  <circle cx="415.01" cy="300.01" r="2.5" fill="#2563eb"/>
  <circle cx="416.21" cy="249.99" r="2.5" fill="#2563eb"/>
  <circle cx="417.41" cy="300.01" r="2.5" fill="#2563eb"/>
  <circle cx="418.61" cy="300.01" r="2.5" fill="#2563eb"/>
  <circle cx="419.82" cy="300.01" r="2.5" fill="#2563eb"/>
  <circle cx="421.02" cy="299.93" r="2.5" fill="#2563eb"/>
  <circle cx="422.22" cy="299.93" r="2.5" fill="#2563eb"/>
  <circle cx="423.42" cy="300.01" r="2.5" fill="#2563eb"/>
  <circle cx="424.62" cy="300.01" r="2.5" fill="#2563eb"/>
  <circle cx="425.83" cy="249.94" r="2.5" fill="#2563eb"/>
  <circle cx="427.03" cy="299.97" r="2.5" fill="#2563eb"/>
  <circle cx="428.23" cy="299.97" r="2.5" fill="#2563eb"/>
  <circle cx="429.43" cy="300.01" r="2.5" fill="#2563eb"/>
  <circle cx="430.63" cy="300.01" r="2.5" fill="#2563eb"/>
  <circle cx="431.84" cy="300.01" r="2.5" fill="#2563eb"/>
  <circle cx="433.04" cy="249.99" r="2.5" fill="#2563eb"/>
  <circle cx="434.24" cy="300.01" r="2.5" fill="#2563eb"/>
  <circle cx="435.44" cy="300.01" r="2.5" fill="#2563eb"/>
  <circle cx="436.64" cy="300.01" r="2.5" fill="#2563eb"/>
  <circle cx="437.85" cy="250.03" r="2.5" fill="#2563eb"/>
  <circle cx="439.05" cy="300.01" r="2.5" fill="#2563eb"/>
  <circle cx="440.25" cy="300.01" r="2.5" fill="#2563eb"/>
  <circle cx="441.45" cy="300.01" r="2.5" fill="#2563eb"/>
  <circle cx="442.66" cy="299.97" r="2.5" fill="#2563eb"/>
  <circle cx="443.86" cy="300.01" r="2.5" fill="#2563eb"/>
  <circle cx="445.06" cy="300.01" r="2.5" fill="#2563eb"/>
  <circle cx="446.26" cy="299.97" r="2.5" fill="#2563eb"/>
  <circle cx="447.46" cy="299.97" r="2.5" fill="#2563eb"/>
  <circle cx="448.67" cy="300.01" r="2.5" fill="#2563eb"/>
  <circle cx="449.87" cy="300.01" r="2.5" fill="#2563eb"/>
  <circle cx="451.07" cy="299.97" r="2.5" fill="#2563eb"/>
  <circle cx="452.27" cy="299.93" r="2.5" fill="#2563eb"/>
  <circle cx="453.47" cy="300.01" r="2.5" fill="#2563eb"/>
  <circle cx="454.68" cy="300.06" r="2.5" fill="#2563eb"/>
  <circle cx="455.88" cy="299.97" r="2.5" fill="#2563eb"/>
  <circle cx="457.08" cy="300.01" r="2.5" fill="#2563eb"/>
  <circle cx="458.28" cy="250.03" r="2.5" fill="#2563eb"/>
  <circle cx="459.48" cy="250.03" r="2.5" fill="#2563eb"/>
  <circle cx="460.69" cy="299.93" r="2.5" fill="#2563eb"/>
  <circle cx="461.89" cy="299.97" r="2.5" fill="#2563eb"/>
  <circle cx="463.09" cy="300.01" r="2.5" fill="#2563eb"/>
  <circle cx="464.29" cy="300.01" r="2.5" fill="#2563eb"/>
  <circle cx="465.50" cy="300.06" r="2.5" fill="#2563eb"/>
  <circle cx="466.70" cy="300.01" r="2.5" fill="#2563eb"/>
  <circle cx="467.90" cy="299.93" r="2.5" fill="#2563eb"/>
  <circle cx="469.10" cy="300.01" r="2.5" fill="#2563eb"/>
  <circle cx="470.30" cy="300.01" r="2.5" fill="#2563eb"/>
  <circle cx="471.51" cy="299.97" r="2.5" fill="#2563eb"/>
  <circle cx="472.71" cy="299.97" r="2.5" fill="#2563eb"/>
  <circle cx="473.91" cy="300.01" r="2.5" fill="#2563eb"/>
  <circle cx="475.11" cy="250.03" r="2.5" fill="#2563eb"/>
  <circle cx="476.31" cy="300.01" r="2.5" fill="#2563eb"/>
  <circle cx="477.52" cy="300.01" r="2.5" fill="#2563eb"/>
  <circle cx="478.72" cy="300.01" r="2.5" fill="#2563eb"/>
  <circle cx="479.92" cy="299.97" r="2.5" fill="#2563eb"/>
  <circle cx="481.12" cy="300.01" r="2.5" fill="#2563eb"/>
  <circle cx="482.32" cy="299.97" r="2.5" fill="#2563eb"/>
  <circle cx="483.53" cy="300.01" r="2.5" fill="#2563eb"/>
  <circle cx="484.73" cy="299.97" r="2.5" fill="#2563eb"/>
  <circle cx="485.93" cy="299.97" r="2.5" fill="#2563eb"/>
  <circle cx="487.13" cy="299.93" r="2.5" fill="#2563eb"/>
  <circle cx="488.34" cy="300.01" r="2.5" fill="#2563eb"/>
  <circle cx="489.54" cy="300.01" r="2.5" fill="#2563eb"/>
  <circle cx="490.74" cy="299.89" r="2.5" fill="#2563eb"/>
  <circle cx="491.94" cy="299.97" r="2.5" fill="#2563eb"/>
  <circle cx="493.14" cy="299.97" r="2.5" fill="#2563eb"/>
  <circle cx="494.35" cy="300.06" r="2.5" fill="#2563eb"/>
  <circle cx="495.55" cy="249.90" r="2.5" fill="#2563eb"/>
  <circle cx="496.75" cy="299.89" r="2.5" fill="#2563eb"/>
  <circle cx="497.95" cy="300.01" r="2.5" fill="#2563eb"/>
  <circle cx="499.15" cy="299.97" r="2.5" fill="#2563eb"/>
  <circle cx="500.36" cy="299.97" r="2.5" fill="#2563eb"/>
  <circle cx="501.56" cy="299.97" r="2.5" fill="#2563eb"/>
  <circle cx="502.76" cy="300.01" r="2.5" fill="#2563eb"/>
  <circle cx="503.96" cy="300.01" r="2.5" fill="#2563eb"/>
  <circle cx="505.17" cy="299.97" r="2.5" fill="#2563eb"/>
  <circle cx="506.37" cy="299.97" r="2.5" fill="#2563eb"/>
  <circle cx="507.57" cy="299.97" r="2.5" fill="#2563eb"/>
  <circle cx="508.77" cy="250.03" r="2.5" fill="#2563eb"/>
  <circle cx="509.97" cy="299.93" r="2.5" fill="#2563eb"/>
  <circle cx="511.18" cy="300.01" r="2.5" fill="#2563eb"/>
  <circle cx="512.38" cy="300.01" r="2.5" fill="#2563eb"/>
  <circle cx="513.58" cy="299.93" r="2.5" fill="#2563eb"/>
  <circle cx="514.78" cy="300.01" r="2.5" fill="#2563eb"/>
  <circle cx="515.98" cy="300.01" r="2.5" fill="#2563eb"/>
  <circle cx="517.19" cy="299.97" r="2.5" fill="#2563eb"/>
  <circle cx="518.39" cy="300.01" r="2.5" fill="#2563eb"/>
  <circle cx="519.59" cy="300.01" r="2.5" fill="#2563eb"/>
  <circle cx="520.79" cy="300.06" r="2.5" fill="#2563eb"/>
  <circle cx="521.99" cy="300.01" r="2.5" fill="#2563eb"/>
  <circle cx="523.20" cy="299.97" r="2.5" fill="#2563eb"/>
  <circle cx="524.40" cy="299.89" r="2.5" fill="#2563eb"/>
  <circle cx="525.60" cy="300.01" r="2.5" fill="#2563eb"/>
  <circle cx="526.80" cy="300.01" r="2.5" fill="#2563eb"/>
  <circle cx="528.01" cy="249.94" r="2.5" fill="#2563eb"/>
  <circle cx="529.21" cy="249.94" r="2.5" fill="#2563eb"/>
  <circle cx="530.41" cy="300.01" r="2.5" fill="#2563eb"/>
  <circle cx="531.61" cy="300.01" r="2.5" fill="#2563eb"/>
  <circle cx="532.81" cy="300.01" r="2.5" fill="#2563eb"/>
  <circle cx="534.02" cy="300.01" r="2.5" fill="#2563eb"/>
  <circle cx="535.22" cy="299.97" r="2.5" fill="#2563eb"/>
  <circle cx="536.42" cy="250.03" r="2.5" fill="#2563eb"/>
  <circle cx="537.62" cy="300.01" r="2.5" fill="#2563eb"/>
  <circle cx="538.82" cy="300.01" r="2.5" fill="#2563eb"/>
  <circle cx="540.03" cy="300.01" r="2.5" fill="#2563eb"/>
  <circle cx="541.23" cy="300.01" r="2.5" fill="#2563eb"/>
  <circle cx="542.43" cy="250.03" r="2.5" fill="#2563eb"/>
  <circle cx="543.63" cy="249.99" r="2.5" fill="#2563eb"/>
  <circle cx="544.83" cy="300.01" r="2.5" fill="#2563eb"/>
  <circle cx="546.04" cy="299.97" r="2.5" fill="#2563eb"/>
  <circle cx="547.24" cy="300.01" r="2.5" fill="#2563eb"/>
  <circle cx="548.44" cy="299.97" r="2.5" fill="#2563eb"/>
  <circle cx="549.64" cy="300.01" r="2.5" fill="#2563eb"/>
  <circle cx="550.85" cy="299.97" r="2.5" fill="#2563eb"/>
  <circle cx="552.05" cy="299.97" r="2.5" fill="#2563eb"/>
  <circle cx="553.25" cy="299.97" r="2.5" fill="#2563eb"/>
  <circle cx="554.45" cy="300.06" r="2.5" fill="#2563eb"/>
  <circle cx="555.65" cy="249.99" r="2.5" fill="#2563eb"/>
  <circle cx="556.86" cy="300.01" r="2.5" fill="#2563eb"/>
  <circle cx="558.06" cy="250.03" r="2.5" fill="#2563eb"/>
  <circle cx="559.26" cy="249.94" r="2.5" fill="#2563eb"/>
  <circle cx="560.46" cy="249.99" r="2.5" fill="#2563eb"/>
  <circle cx="561.66" cy="300.01" r="2.5" fill="#2563eb"/>
  <circle cx="562.87" cy="300.06" r="2.5" fill="#2563eb"/>
  <circle cx="564.07" cy="300.01" r="2.5" fill="#2563eb"/>
  <circle cx="565.27" cy="299.97" r="2.5" fill="#2563eb"/>
  <circle cx="566.47" cy="299.97" r="2.5" fill="#2563eb"/>
  <circle cx="567.68" cy="300.01" r="2.5" fill="#2563eb"/>
  <circle cx="568.88" cy="299.93" r="2.5" fill="#2563eb"/>
  <circle cx="570.08" cy="299.89" r="2.5" fill="#2563eb"/>
  <circle cx="571.28" cy="299.89" r="2.5" fill="#2563eb"/>
  <circle cx="572.48" cy="299.89" r="2.5" fill="#2563eb"/>
  <circle cx="573.69" cy="299.89" r="2.5" fill="#2563eb"/>
  <circle cx="574.89" cy="299.85" r="2.5" fill="#2563eb"/>
  <circle cx="576.09" cy="299.85" r="2.5" fill="#2563eb"/>
  <circle cx="577.29" cy="299.89" r="2.5" fill="#2563eb"/>
  <circle cx="578.49" cy="299.81" r="2.5" fill="#2563eb"/>
  <circle cx="579.70" cy="299.81" r="2.5" fill="#2563eb"/>
  <circle cx="580.90" cy="299.81" r="2.5" fill="#2563eb"/>
  <circle cx="582.10" cy="299.76" r="2.5" fill="#2563eb"/>
  <circle cx="583.30" cy="299.76" r="2.5" fill="#2563eb"/>
  <circle cx="584.50" cy="299.76" r="2.5" fill="#2563eb"/>
  <circle cx="585.71" cy="299.72" r="2.5" fill="#2563eb"/>
  <circle cx="586.91" cy="299.68" r="2.5" fill="#2563eb"/>
  <circle cx="588.11" cy="299.60" r="2.5" fill="#2563eb"/>
  <circle cx="589.31" cy="299.60" r="2.5" fill="#2563eb"/>
  <circle cx="590.52" cy="299.60" r="2.5" fill="#2563eb"/>
  <circle cx="591.72" cy="299.56" r="2.5" fill="#2563eb"/>
  <circle cx="592.92" cy="299.47" r="2.5" fill="#2563eb"/>
  <circle cx="594.12" cy="299.43" r="2.5" fill="#2563eb"/>
  <circle cx="595.32" cy="299.43" r="2.5" fill="#2563eb"/>
  <circle cx="596.53" cy="299.39" r="2.5" fill="#2563eb"/>
  <circle cx="597.73" cy="299.47" r="2.5" fill="#2563eb"/>
  <circle cx="598.93" cy="259.82" r="2.5" fill="#2563eb"/>
  <circle cx="600.13" cy="338.96" r="2.5" fill="#2563eb"/>
  <circle cx="601.33" cy="299.31" r="2.5" fill="#2563eb"/>
  <circle cx="602.54" cy="299.31" r="2.5" fill="#2563eb"/>
  <circle cx="603.74" cy="299.26" r="2.5" fill="#2563eb"/>
  <circle cx="604.94" cy="299.68" r="2.5" fill="#2563eb"/>
  <circle cx="606.14" cy="299.68" r="2.5" fill="#2563eb"/>
  <circle cx="607.34" cy="299.68" r="2.5" fill="#2563eb"/>
  <circle cx="608.55" cy="299.64" r="2.5" fill="#2563eb"/>
  <circle cx="609.75" cy="299.14" r="2.5" fill="#2563eb"/>
  <circle cx="610.95" cy="299.14" r="2.5" fill="#2563eb"/>
  <circle cx="612.15" cy="299.10" r="2.5" fill="#2563eb"/>
  <circle cx="613.36" cy="299.10" r="2.5" fill="#2563eb"/>
  <circle cx="614.56" cy="299.10" r="2.5" fill="#2563eb"/>
  <circle cx="615.76" cy="248.07" r="2.5" fill="#2563eb"/>
  <circle cx="616.96" cy="299.06" r="2.5" fill="#2563eb"/>
  <circle cx="618.16" cy="299.06" r="2.5" fill="#2563eb"/>
  <circle cx="619.37" cy="299.06" r="2.5" fill="#2563eb"/>
  <circle cx="620.57" cy="299.06" r="2.5" fill="#2563eb"/>
  <circle cx="621.77" cy="299.06" r="2.5" fill="#2563eb"/>
  <circle cx="622.97" cy="298.97" r="2.5" fill="#2563eb"/>
  <circle cx="624.17" cy="298.97" r="2.5" fill="#2563eb"/>
  <circle cx="625.38" cy="298.93" r="2.5" fill="#2563eb"/>
  <circle cx="626.58" cy="298.97" r="2.5" fill="#2563eb"/>
  <circle cx="627.78" cy="298.93" r="2.5" fill="#2563eb"/>
  <circle cx="628.98" cy="298.89" r="2.5" fill="#2563eb"/>
  <circle cx="630.18" cy="298.89" r="2.5" fill="#2563eb"/>
  <circle cx="631.39" cy="298.89" r="2.5" fill="#2563eb"/>
  <circle cx="632.59" cy="298.89" r="2.5" fill="#2563eb"/>
  <circle cx="633.79" cy="247.78" r="2.5" fill="#2563eb"/>
  <circle cx="634.99" cy="298.89" r="2.5" fill="#2563eb"/>
  <circle cx="636.20" cy="298.89" r="2.5" fill="#2563eb"/>
  <circle cx="637.40" cy="298.85" r="2.5" fill="#2563eb"/>
  <circle cx="638.60" cy="298.85" r="2.5" fill="#2563eb"/>
  <circle cx="639.80" cy="298.81" r="2.5" fill="#2563eb"/>
  <circle cx="641.00" cy="298.81" r="2.5" fill="#2563eb"/>
  <circle cx="642.21" cy="298.81" r="2.5" fill="#2563eb"/>
  <circle cx="643.41" cy="298.81" r="2.5" fill="#2563eb"/>
  <circle cx="644.61" cy="298.81" r="2.5" fill="#2563eb"/>
  <circle cx="645.81" cy="298.81" r="2.5" fill="#2563eb"/>
  <circle cx="647.01" cy="298.81" r="2.5" fill="#2563eb"/>
  <circle cx="648.22" cy="298.81" r="2.5" fill="#2563eb"/>
  <circle cx="649.42" cy="298.81" r="2.5" fill="#2563eb"/>
  <circle cx="650.62" cy="298.72" r="2.5" fill="#2563eb"/>
  <circle cx="651.82" cy="247.45" r="2.5" fill="#2563eb"/>
  <circle cx="653.03" cy="247.45" r="2.5" fill="#2563eb"/>
  <circle cx="654.23" cy="298.72" r="2.5" fill="#2563eb"/>
  <circle cx="655.43" cy="298.72" r="2.5" fill="#2563eb"/>
  <circle cx="656.63" cy="298.72" r="2.5" fill="#2563eb"/>
  <circle cx="657.83" cy="298.72" r="2.5" fill="#2563eb"/>
  <circle cx="659.04" cy="298.72" r="2.5" fill="#2563eb"/>
  <circle cx="660.24" cy="298.72" r="2.5" fill="#2563eb"/>
  <circle cx="661.44" cy="247.36" r="2.5" fill="#2563eb"/>
  <circle cx="662.64" cy="298.68" r="2.5" fill="#2563eb"/>
  <circle cx="663.84" cy="247.36" r="2.5" fill="#2563eb"/>
  <circle cx="665.05" cy="247.36" r="2.5" fill="#2563eb"/>
  <circle cx="666.25" cy="247.36" r="2.5" fill="#2563eb"/>
  <circle cx="667.45" cy="298.68" r="2.5" fill="#2563eb"/>
  <circle cx="668.65" cy="298.68" r="2.5" fill="#2563eb"/>
  <circle cx="669.85" cy="298.68" r="2.5" fill="#2563eb"/>
  <circle cx="671.06" cy="298.68" r="2.5" fill="#2563eb"/>
  <circle cx="672.26" cy="298.68" r="2.5" fill="#2563eb"/>
  <circle cx="673.46" cy="341.67" r="2.5" fill="#2563eb"/>
  <circle cx="674.66" cy="307.01" r="2.5" fill="#2563eb"/>
  <circle cx="675.87" cy="298.68" r="2.5" fill="#2563eb"/>
  <circle cx="677.07" cy="298.68" r="2.5" fill="#2563eb"/>
  <circle cx="678.27" cy="298.68" r="2.5" fill="#2563eb"/>
  <circle cx="679.47" cy="247.36" r="2.5" fill="#2563eb"/>
  <circle cx="680.67" cy="298.64" r="2.5" fill="#2563eb"/>
  <circle cx="681.88" cy="247.36" r="2.5" fill="#2563eb"/>
  <circle cx="683.08" cy="247.28" r="2.5" fill="#2563eb"/>
  <circle cx="684.28" cy="247.20" r="2.5" fill="#2563eb"/>
  <circle cx="685.48" cy="298.60" r="2.5" fill="#2563eb"/>
  <circle cx="686.68" cy="298.60" r="2.5" fill="#2563eb"/>
  <circle cx="687.89" cy="247.03" r="2.5" fill="#2563eb"/>
  <circle cx="689.09" cy="298.51" r="2.5" fill="#2563eb"/>
  <circle cx="690.29" cy="298.51" r="2.5" fill="#2563eb"/>
  <circle cx="691.49" cy="298.51" r="2.5" fill="#2563eb"/>
  <circle cx="692.69" cy="298.51" r="2.5" fill="#2563eb"/>
  <circle cx="693.90" cy="298.51" r="2.5" fill="#2563eb"/>
  <circle cx="695.10" cy="298.51" r="2.5" fill="#2563eb"/>
  <circle cx="696.30" cy="298.51" r="2.5" fill="#2563eb"/>
  <circle cx="697.50" cy="298.51" r="2.5" fill="#2563eb"/>
  <circle cx="698.71" cy="298.51" r="2.5" fill="#2563eb"/>
  <circle cx="699.91" cy="298.51" r="2.5" fill="#2563eb"/>
  <circle cx="701.11" cy="298.51" r="2.5" fill="#2563eb"/>
  <circle cx="702.31" cy="298.51" r="2.5" fill="#2563eb"/>
  <circle cx="703.51" cy="298.51" r="2.5" fill="#2563eb"/>
  <circle cx="704.72" cy="298.51" r="2.5" fill="#2563eb"/>
  <circle cx="705.92" cy="298.51" r="2.5" fill="#2563eb"/>
  <circle cx="707.12" cy="298.51" r="2.5" fill="#2563eb"/>
  <circle cx="708.32" cy="298.51" r="2.5" fill="#2563eb"/>
  <circle cx="709.52" cy="298.51" r="2.5" fill="#2563eb"/>
  <circle cx="710.73" cy="298.51" r="2.5" fill="#2563eb"/>
  <circle cx="711.93" cy="298.51" r="2.5" fill="#2563eb"/>
  <circle cx="713.13" cy="298.51" r="2.5" fill="#2563eb"/>
  <circle cx="714.33" cy="298.51" r="2.5" fill="#2563eb"/>
  <circle cx="715.54" cy="298.51" r="2.5" fill="#2563eb"/>
  <circle cx="716.74" cy="298.51" r="2.5" fill="#2563eb"/>
  <circle cx="717.94" cy="298.51" r="2.5" fill="#2563eb"/>
  <circle cx="719.14" cy="298.51" r="2.5" fill="#2563eb"/>
  <circle cx="720.34" cy="298.47" r="2.5" fill="#2563eb"/>
  <circle cx="721.55" cy="298.51" r="2.5" fill="#2563eb"/>
  <circle cx="722.75" cy="298.51" r="2.5" fill="#2563eb"/>
  <circle cx="723.95" cy="298.47" r="2.5" fill="#2563eb"/>
  <circle cx="725.15" cy="298.51" r="2.5" fill="#2563eb"/>
  <circle cx="726.35" cy="298.47" r="2.5" fill="#2563eb"/>
  <circle cx="727.56" cy="298.51" r="2.5" fill="#2563eb"/>
  <circle cx="728.76" cy="298.43" r="2.5" fill="#2563eb"/>
  <circle cx="729.96" cy="298.56" r="2.5" fill="#2563eb"/>
  <circle cx="731.16" cy="298.43" r="2.5" fill="#2563eb"/>
  <circle cx="732.36" cy="298.43" r="2.5" fill="#2563eb"/>
  <circle cx="733.57" cy="298.43" r="2.5" fill="#2563eb"/>
  <circle cx="734.77" cy="298.43" r="2.5" fill="#2563eb"/>
  <circle cx="735.97" cy="298.43" r="2.5" fill="#2563eb"/>
  <circle cx="737.17" cy="298.43" r="2.5" fill="#2563eb"/>
  <circle cx="738.38" cy="298.43" r="2.5" fill="#2563eb"/>
  <circle cx="739.58" cy="298.43" r="2.5" fill="#2563eb"/>
  <circle cx="740.78" cy="298.43" r="2.5" fill="#2563eb"/>
  <circle cx="741.98" cy="298.43" r="2.5" fill="#2563eb"/>
  <circle cx="743.18" cy="298.43" r="2.5" fill="#2563eb"/>
  <circle cx="744.39" cy="298.43" r="2.5" fill="#2563eb"/>
  <circle cx="745.59" cy="298.43" r="2.5" fill="#2563eb"/>
  <circle cx="746.79" cy="298.43" r="2.5" fill="#2563eb"/>
  <circle cx="747.99" cy="298.43" r="2.5" fill="#2563eb"/>
  <circle cx="749.19" cy="298.43" r="2.5" fill="#2563eb"/>
  <circle cx="750.40" cy="298.43" r="2.5" fill="#2563eb"/>
  <circle cx="751.60" cy="298.43" r="2.5" fill="#2563eb"/>
  <circle cx="752.80" cy="298.43" r="2.5" fill="#2563eb"/>
  <circle cx="754.00" cy="298.43" r="2.5" fill="#2563eb"/>
  <circle cx="755.20" cy="298.43" r="2.5" fill="#2563eb"/>
  <circle cx="756.41" cy="298.43" r="2.5" fill="#2563eb"/>
  <circle cx="757.61" cy="298.43" r="2.5" fill="#2563eb"/>
  <circle cx="758.81" cy="298.43" r="2.5" fill="#2563eb"/>
  <circle cx="760.01" cy="298.43" r="2.5" fill="#2563eb"/>
  <circle cx="761.22" cy="298.43" r="2.5" fill="#2563eb"/>
  <circle cx="762.42" cy="298.43" r="2.5" fill="#2563eb"/>
  <circle cx="763.62" cy="298.43" r="2.5" fill="#2563eb"/>
  <circle cx="764.82" cy="298.43" r="2.5" fill="#2563eb"/>
  <circle cx="766.02" cy="298.43" r="2.5" fill="#2563eb"/>
  <circle cx="767.23" cy="298.43" r="2.5" fill="#2563eb"/>
  <circle cx="768.43" cy="298.43" r="2.5" fill="#2563eb"/>
  <circle cx="769.63" cy="298.43" r="2.5" fill="#2563eb"/>
  <circle cx="770.83" cy="298.43" r="2.5" fill="#2563eb"/>
  <circle cx="772.03" cy="298.39" r="2.5" fill="#2563eb"/>
  <circle cx="773.24" cy="298.39" r="2.5" fill="#2563eb"/>
  <circle cx="774.44" cy="298.43" r="2.5" fill="#2563eb"/>
  <circle cx="775.64" cy="298.43" r="2.5" fill="#2563eb"/>
  <circle cx="776.84" cy="298.39" r="2.5" fill="#2563eb"/>
  <circle cx="778.04" cy="298.39" r="2.5" fill="#2563eb"/>
  <circle cx="779.25" cy="298.39" r="2.5" fill="#2563eb"/>
  <circle cx="780.45" cy="298.43" r="2.5" fill="#2563eb"/>
  <circle cx="781.65" cy="298.43" r="2.5" fill="#2563eb"/>
  <circle cx="782.85" cy="298.43" r="2.5" fill="#2563eb"/>
  <circle cx="784.06" cy="246.82" r="2.5" fill="#2563eb"/>
  <circle cx="785.26" cy="298.43" r="2.5" fill="#2563eb"/>
  <circle cx="786.46" cy="246.78" r="2.5" fill="#2563eb"/>
  <circle cx="787.66" cy="246.78" r="2.5" fill="#2563eb"/>
  <circle cx="788.86" cy="246.78" r="2.5" fill="#2563eb"/>
  <circle cx="790.07" cy="246.70" r="2.5" fill="#2563eb"/>
  <circle cx="791.27" cy="246.78" r="2.5" fill="#2563eb"/>
  <circle cx="792.47" cy="298.39" r="2.5" fill="#2563eb"/>
  <circle cx="793.67" cy="298.39" r="2.5" fill="#2563eb"/>
  <circle cx="794.87" cy="298.39" r="2.5" fill="#2563eb"/>
  <circle cx="796.08" cy="298.39" r="2.5" fill="#2563eb"/>
  <circle cx="797.28" cy="298.39" r="2.5" fill="#2563eb"/>
  <circle cx="798.48" cy="246.78" r="2.5" fill="#2563eb"/>
  <circle cx="799.68" cy="298.39" r="2.5" fill="#2563eb"/>
  <circle cx="800.89" cy="298.39" r="2.5" fill="#2563eb"/>
  <circle cx="802.09" cy="298.39" r="2.5" fill="#2563eb"/>
  <circle cx="803.29" cy="298.39" r="2.5" fill="#2563eb"/>
  <circle cx="804.49" cy="298.39" r="2.5" fill="#2563eb"/>
  <circle cx="805.69" cy="246.78" r="2.5" fill="#2563eb"/>
  <circle cx="806.90" cy="246.78" r="2.5" fill="#2563eb"/>
  <circle cx="808.10" cy="298.39" r="2.5" fill="#2563eb"/>
  <circle cx="809.30" cy="298.39" r="2.5" fill="#2563eb"/>
  <circle cx="810.50" cy="298.39" r="2.5" fill="#2563eb"/>
  <circle cx="811.70" cy="298.39" r="2.5" fill="#2563eb"/>
  <circle cx="812.91" cy="298.39" r="2.5" fill="#2563eb"/>
  <circle cx="814.11" cy="298.39" r="2.5" fill="#2563eb"/>
  <circle cx="815.31" cy="298.39" r="2.5" fill="#2563eb"/>
  <circle cx="816.51" cy="298.39" r="2.5" fill="#2563eb"/>
  <circle cx="817.71" cy="298.39" r="2.5" fill="#2563eb"/>
  <circle cx="818.92" cy="298.39" r="2.5" fill="#2563eb"/>
  <circle cx="820.12" cy="298.39" r="2.5" fill="#2563eb"/>
  <circle cx="821.32" cy="298.39" r="2.5" fill="#2563eb"/>
  <circle cx="822.52" cy="298.39" r="2.5" fill="#2563eb"/>
  <circle cx="823.73" cy="298.39" r="2.5" fill="#2563eb"/>
  <circle cx="824.93" cy="298.35" r="2.5" fill="#2563eb"/>
  <circle cx="826.13" cy="298.39" r="2.5" fill="#2563eb"/>
  <circle cx="827.33" cy="298.39" r="2.5" fill="#2563eb"/>
  <circle cx="828.53" cy="298.35" r="2.5" fill="#2563eb"/>
  <circle cx="829.74" cy="298.35" r="2.5" fill="#2563eb"/>
  <circle cx="830.94" cy="298.35" r="2.5" fill="#2563eb"/>
  <circle cx="832.14" cy="298.35" r="2.5" fill="#2563eb"/>
  <circle cx="833.34" cy="298.35" r="2.5" fill="#2563eb"/>
  <circle cx="834.54" cy="298.35" r="2.5" fill="#2563eb"/>
  <circle cx="835.75" cy="298.35" r="2.5" fill="#2563eb"/>
  <circle cx="836.95" cy="298.35" r="2.5" fill="#2563eb"/>
  <circle cx="838.15" cy="298.35" r="2.5" fill="#2563eb"/>
  <circle cx="839.35" cy="298.35" r="2.5" fill="#2563eb"/>
  <circle cx="840.55" cy="298.35" r="2.5" fill="#2563eb"/>
  <circle cx="841.76" cy="298.35" r="2.5" fill="#2563eb"/>
  <circle cx="842.96" cy="298.35" r="2.5" fill="#2563eb"/>
  <circle cx="844.16" cy="298.35" r="2.5" fill="#2563eb"/>
  <circle cx="845.36" cy="298.35" r="2.5" fill="#2563eb"/>
  <circle cx="846.57" cy="298.35" r="2.5" fill="#2563eb"/>
  <circle cx="847.77" cy="298.35" r="2.5" fill="#2563eb"/>
  <circle cx="848.97" cy="298.35" r="2.5" fill="#2563eb"/>
  <circle cx="850.17" cy="298.35" r="2.5" fill="#2563eb"/>
  <circle cx="851.37" cy="298.35" r="2.5" fill="#2563eb"/>
  <circle cx="852.58" cy="298.35" r="2.5" fill="#2563eb"/>
  <circle cx="853.78" cy="298.35" r="2.5" fill="#2563eb"/>
  <circle cx="854.98" cy="298.35" r="2.5" fill="#2563eb"/>
  <circle cx="856.18" cy="298.35" r="2.5" fill="#2563eb"/>
  <circle cx="857.38" cy="298.35" r="2.5" fill="#2563eb"/>
  <circle cx="858.59" cy="298.35" r="2.5" fill="#2563eb"/>
  <circle cx="859.79" cy="298.35" r="2.5" fill="#2563eb"/>
  <circle cx="860.99" cy="298.35" r="2.5" fill="#2563eb"/>
  <circle cx="862.19" cy="298.35" r="2.5" fill="#2563eb"/>
  <circle cx="863.39" cy="298.35" r="2.5" fill="#2563eb"/>
  <circle cx="864.60" cy="298.35" r="2.5" fill="#2563eb"/>
  <circle cx="865.80" cy="298.35" r="2.5" fill="#2563eb"/>
  <circle cx="867.00" cy="298.35" r="2.5" fill="#2563eb"/>
  <circle cx="868.20" cy="298.35" r="2.5" fill="#2563eb"/>
  <circle cx="869.41" cy="298.35" r="2.5" fill="#2563eb"/>
  <circle cx="870.61" cy="298.35" r="2.5" fill="#2563eb"/>
  <circle cx="871.81" cy="298.35" r="2.5" fill="#2563eb"/>
  <circle cx="873.01" cy="298.35" r="2.5" fill="#2563eb"/>
  <circle cx="874.21" cy="298.35" r="2.5" fill="#2563eb"/>
  <circle cx="875.42" cy="298.35" r="2.5" fill="#2563eb"/>
  <circle cx="876.62" cy="298.35" r="2.5" fill="#2563eb"/>
  <circle cx="877.82" cy="298.35" r="2.5" fill="#2563eb"/>
  <circle cx="879.02" cy="298.35" r="2.5" fill="#2563eb"/>
  <circle cx="880.22" cy="298.35" r="2.5" fill="#2563eb"/>
  <circle cx="881.43" cy="298.35" r="2.5" fill="#2563eb"/>
  <circle cx="882.63" cy="298.35" r="2.5" fill="#2563eb"/>
  <circle cx="883.83" cy="298.35" r="2.5" fill="#2563eb"/>
  <circle cx="885.03" cy="298.35" r="2.5" fill="#2563eb"/>
  <circle cx="886.24" cy="298.35" r="2.5" fill="#2563eb"/>
  <circle cx="887.44" cy="298.35" r="2.5" fill="#2563eb"/>
  <circle cx="888.64" cy="298.35" r="2.5" fill="#2563eb"/>
  <circle cx="889.84" cy="298.35" r="2.5" fill="#2563eb"/>
  <circle cx="891.04" cy="298.39" r="2.5" fill="#2563eb"/>
  <circle cx="892.25" cy="298.39" r="2.5" fill="#2563eb"/>
  <circle cx="893.45" cy="298.39" r="2.5" fill="#2563eb"/>
  <circle cx="894.65" cy="246.78" r="2.5" fill="#2563eb"/>
  <circle cx="895.85" cy="298.39" r="2.5" fill="#2563eb"/>
  <circle cx="897.05" cy="298.39" r="2.5" fill="#2563eb"/>
  <circle cx="898.26" cy="298.39" r="2.5" fill="#2563eb"/>
  <circle cx="899.46" cy="298.39" r="2.5" fill="#2563eb"/>
  <circle cx="900.66" cy="298.39" r="2.5" fill="#2563eb"/>
  <circle cx="901.86" cy="298.39" r="2.5" fill="#2563eb"/>
  <circle cx="903.06" cy="298.39" r="2.5" fill="#2563eb"/>
  <circle cx="904.27" cy="246.78" r="2.5" fill="#2563eb"/>
  <circle cx="905.47" cy="298.39" r="2.5" fill="#2563eb"/>
  <circle cx="906.67" cy="298.39" r="2.5" fill="#2563eb"/>
  <circle cx="907.87" cy="298.39" r="2.5" fill="#2563eb"/>
  <circle cx="909.08" cy="298.39" r="2.5" fill="#2563eb"/>
  <circle cx="910.28" cy="298.39" r="2.5" fill="#2563eb"/>
  <circle cx="911.48" cy="298.39" r="2.5" fill="#2563eb"/>
  <circle cx="912.68" cy="298.39" r="2.5" fill="#2563eb"/>
  <circle cx="913.88" cy="246.78" r="2.5" fill="#2563eb"/>
  <circle cx="915.09" cy="298.39" r="2.5" fill="#2563eb"/>
  <circle cx="916.29" cy="298.39" r="2.5" fill="#2563eb"/>
  <circle cx="917.49" cy="298.39" r="2.5" fill="#2563eb"/>
  <circle cx="918.69" cy="298.39" r="2.5" fill="#2563eb"/>
  <circle cx="919.89" cy="298.39" r="2.5" fill="#2563eb"/>
  <circle cx="921.10" cy="298.39" r="2.5" fill="#2563eb"/>
  <circle cx="922.30" cy="298.39" r="2.5" fill="#2563eb"/>
  <circle cx="923.50" cy="298.39" r="2.5" fill="#2563eb"/>
  <circle cx="924.70" cy="298.39" r="2.5" fill="#2563eb"/>
  <circle cx="925.90" cy="298.39" r="2.5" fill="#2563eb"/>
  <circle cx="927.11" cy="298.39" r="2.5" fill="#2563eb"/>
  <circle cx="928.31" cy="298.35" r="2.5" fill="#2563eb"/>
  <circle cx="929.51" cy="298.39" r="2.5" fill="#2563eb"/>
  <circle cx="930.71" cy="298.39" r="2.5" fill="#2563eb"/>
  <circle cx="931.92" cy="298.39" r="2.5" fill="#2563eb"/>
  <circle cx="933.12" cy="298.35" r="2.5" fill="#2563eb"/>
  <circle cx="934.32" cy="298.35" r="2.5" fill="#2563eb"/>
  <circle cx="935.52" cy="298.35" r="2.5" fill="#2563eb"/>
  <circle cx="936.72" cy="298.35" r="2.5" fill="#2563eb"/>
  <circle cx="937.93" cy="298.35" r="2.5" fill="#2563eb"/>
  <circle cx="939.13" cy="298.35" r="2.5" fill="#2563eb"/>
  <circle cx="940.33" cy="298.35" r="2.5" fill="#2563eb"/>
  <circle cx="941.53" cy="298.35" r="2.5" fill="#2563eb"/>
  <circle cx="942.73" cy="298.35" r="2.5" fill="#2563eb"/>
  <circle cx="943.94" cy="298.35" r="2.5" fill="#2563eb"/>
  <circle cx="945.14" cy="298.35" r="2.5" fill="#2563eb"/>
  <circle cx="946.34" cy="298.35" r="2.5" fill="#2563eb"/>
  <circle cx="947.54" cy="298.35" r="2.5" fill="#2563eb"/>
  <circle cx="948.75" cy="298.35" r="2.5" fill="#2563eb"/>
  <circle cx="949.95" cy="298.35" r="2.5" fill="#2563eb"/>
  <circle cx="951.15" cy="298.35" r="2.5" fill="#2563eb"/>
  <circle cx="952.35" cy="298.39" r="2.5" fill="#2563eb"/>
  <circle cx="953.55" cy="298.39" r="2.5" fill="#2563eb"/>
  <circle cx="954.76" cy="298.39" r="2.5" fill="#2563eb"/>
  <circle cx="955.96" cy="298.39" r="2.5" fill="#2563eb"/>
  <circle cx="957.16" cy="298.39" r="2.5" fill="#2563eb"/>
  <circle cx="958.36" cy="298.39" r="2.5" fill="#2563eb"/>
  <circle cx="959.56" cy="298.35" r="2.5" fill="#2563eb"/>
  <circle cx="960.77" cy="298.39" r="2.5" fill="#2563eb"/>
  <circle cx="961.97" cy="298.39" r="2.5" fill="#2563eb"/>
  <circle cx="963.17" cy="298.39" r="2.5" fill="#2563eb"/>
  <circle cx="964.37" cy="298.39" r="2.5" fill="#2563eb"/>
  <circle cx="965.57" cy="298.39" r="2.5" fill="#2563eb"/>
  <circle cx="966.78" cy="298.39" r="2.5" fill="#2563eb"/>
  <circle cx="967.98" cy="298.39" r="2.5" fill="#2563eb"/>
  <circle cx="969.18" cy="298.39" r="2.5" fill="#2563eb"/>
  <circle cx="970.38" cy="298.39" r="2.5" fill="#2563eb"/>
  <circle cx="971.59" cy="298.35" r="2.5" fill="#2563eb"/>
  <circle cx="972.79" cy="298.39" r="2.5" fill="#2563eb"/>
  <circle cx="973.99" cy="298.39" r="2.5" fill="#2563eb"/>
  <circle cx="975.19" cy="298.39" r="2.5" fill="#2563eb"/>
  <circle cx="976.39" cy="298.39" r="2.5" fill="#2563eb"/>
  <circle cx="977.60" cy="298.39" r="2.5" fill="#2563eb"/>
  <circle cx="978.80" cy="298.39" r="2.5" fill="#2563eb"/>
  <circle cx="980.00" cy="298.39" r="2.5" fill="#2563eb"/>
</svg>
