<?xml version="1.0" encoding="UTF-8"?>
<svg xmlns="http://www.w3.org/2000/svg" width="1000" height="420" viewBox="0 0 1000 420">
  <rect width="100%" height="100%" fill="#ffffff"/>
  <text x="70" y="28" font-size="20" font-weight="600">수집 시점 기준 - 시간별 스냅샷</text>
  <text x="70" y="402" font-size="12" fill="#555">스냅샷 수</text>
  <line x1="70" y1="350.00" x2="980" y2="350.00" stroke="#e5e7eb" stroke-width="1"/>
  <text x="62" y="354.00" font-size="11" fill="#6b7280" text-anchor="end">0</text>
  <line x1="70" y1="290.00" x2="980" y2="290.00" stroke="#e5e7eb" stroke-width="1"/>
  <text x="62" y="294.00" font-size="11" fill="#6b7280" text-anchor="end">1,440</text>
  <line x1="70" y1="230.00" x2="980" y2="230.00" stroke="#e5e7eb" stroke-width="1"/>
  <text x="62" y="234.00" font-size="11" fill="#6b7280" text-anchor="end">2,880</text>
  <line x1="70" y1="170.00" x2="980" y2="170.00" stroke="#e5e7eb" stroke-width="1"/>
  <text x="62" y="174.00" font-size="11" fill="#6b7280" text-anchor="end">4,321</text>
  <line x1="70" y1="110.00" x2="980" y2="110.00" stroke="#e5e7eb" stroke-width="1"/>
  <text x="62" y="114.00" font-size="11" fill="#6b7280" text-anchor="end">5,761</text>
  <line x1="70" y1="50.00" x2="980" y2="50.00" stroke="#e5e7eb" stroke-width="1"/>
  <text x="62" y="54.00" font-size="11" fill="#6b7280" text-anchor="end">7,202</text>
  <line x1="70" y1="350" x2="980" y2="350" stroke="#111827" stroke-width="1.2"/>
  <line x1="70" y1="50" x2="70" y2="350" stroke="#111827" stroke-width="1.2"/>
  <line x1="70.00" y1="350" x2="70.00" y2="356" stroke="#9ca3af" stroke-width="1"/>
  <text x="70.00" y="372" font-size="10" fill="#6b7280" text-anchor="middle">2026-02-28 18</text>
  <line x1="145.53" y1="350" x2="145.53" y2="356" stroke="#9ca3af" stroke-width="1"/>
  <text x="145.53" y="372" font-size="10" fill="#6b7280" text-anchor="middle">2026-03-08 20</text>
  <line x1="221.05" y1="350" x2="221.05" y2="356" stroke="#9ca3af" stroke-width="1"/>
  <text x="221.05" y="372" font-size="10" fill="#6b7280" text-anchor="middle">2026-03-10 17</text>
  <line x1="296.58" y1="350" x2="296.58" y2="356" stroke="#9ca3af" stroke-width="1"/>
  <text x="296.58" y="372" font-size="10" fill="#6b7280" text-anchor="middle">2026-03-12 14</text>
  <line x1="372.11" y1="350" x2="372.11" y2="356" stroke="#9ca3af" stroke-width="1"/>
  <text x="372.11" y="372" font-size="10" fill="#6b7280" text-anchor="middle">2026-03-14 12</text>
  <line x1="447.63" y1="350" x2="447.63" y2="356" stroke="#9ca3af" stroke-width="1"/>
  <text x="447.63" y="372" font-size="10" fill="#6b7280" text-anchor="middle">2026-03-17 00</text>
  <line x1="523.16" y1="350" x2="523.16" y2="356" stroke="#9ca3af" stroke-width="1"/>
  <text x="523.16" y="372" font-size="10" fill="#6b7280" text-anchor="middle">2026-03-19 19</text>
  <line x1="598.68" y1="350" x2="598.68" y2="356" stroke="#9ca3af" stroke-width="1"/>
  <text x="598.68" y="372" font-size="10" fill="#6b7280" text-anchor="middle">2026-03-22 02</text>
  <line x1="674.21" y1="350" x2="674.21" y2="356" stroke="#9ca3af" stroke-width="1"/>
  <text x="674.21" y="372" font-size="10" fill="#6b7280" text-anchor="middle">2026-03-24 17</text>
  <line x1="749.74" y1="350" x2="749.74" y2="356" stroke="#9ca3af" stroke-width="1"/>
  <text x="749.74" y="372" font-size="10" fill="#6b7280" text-anchor="middle">2026-03-27 14</text>
  <line x1="825.26" y1="350" x2="825.26" y2="356" stroke="#9ca3af" stroke-width="1"/>
  <text x="825.26" y="372" font-size="10" fill="#6b7280" text-anchor="middle">2026-03-30 06</text>
  <line x1="900.79" y1="350" x2="900.79" y2="356" stroke="#9ca3af" stroke-width="1"/>
  <text x="900.79" y="372" font-size="10" fill="#6b7280" text-anchor="middle">2026-04-02 05</text>
  <line x1="976.32" y1="350" x2="976.32" y2="356" stroke="#9ca3af" stroke-width="1"/>
  <text x="976.32" y="372" font-size="10" fill="#6b7280" text-anchor="middle">2026-04-04 20</text>
  <line x1="980.00" y1="350" x2="980.00" y2="356" stroke="#9ca3af" stroke-width="1"/>
  <text x="980.00" y="372" font-size="10" fill="#6b7280" text-anchor="middle">2026-04-05 00</text>
  <polyline fill="none" stroke="#2563eb" stroke-width="2.5" points="70.00,50.00 71.84,50.12 73.68,50.17 75.53,50.46 77.37,50.00 79.21,266.90 81.05,50.12 82.89,50.08 84.74,177.46 86.58,211.58 88.42,175.34 90.26,304.14 92.11,200.46 93.95,250.94 95.79,300.01 97.63,300.06 99.47,300.01 101.32,300.01 103.16,348.00 105.00,300.01 106.84,249.99 108.68,200.00 110.53,249.99 112.37,249.99 114.21,250.03 116.05,250.03 117.89,250.03 119.74,250.40 121.58,250.90 123.42,250.90 125.26,251.32 127.11,249.94 128.95,300.01 130.79,299.93 132.63,251.03 134.47,300.68 136.32,250.03 138.16,200.00 140.00,249.99 141.84,250.03 143.68,250.03 145.53,250.03 147.37,300.01 149.21,200.04 151.05,250.03 152.89,250.03 154.74,250.03 156.58,249.90 158.42,250.03 160.26,250.03 162.11,250.94 163.95,250.44 165.79,250.03 167.63,250.03 169.47,300.47 171.32,300.01 173.16,300.43 175.00,250.03 176.84,249.99 178.68,300.43 180.53,249.90 182.37,249.99 184.21,249.99 186.05,200.04 187.89,300.01 189.74,300.01 191.58,300.01 193.42,249.90 195.26,300.01 197.11,250.03 198.95,249.99 200.79,199.96 202.63,300.01 204.47,200.00 206.32,250.36 208.16,250.03 210.00,300.01 211.84,300.01 213.68,250.44 215.53,300.01 217.37,250.03 219.21,250.03 221.05,249.99 222.89,250.49 224.74,250.03 226.58,200.04 228.42,300.01 230.26,250.03 232.11,300.01 233.95,250.11 235.79,300.01 237.63,250.03 239.47,250.03 241.32,199.92 243.16,250.03 245.00,250.03 246.84,250.03 248.68,254.36 250.53,300.01 252.37,299.97 254.21,250.36 256.05,299.97 257.89,250.03 259.74,250.03 261.58,250.03 263.42,250.03 265.26,249.99 267.11,200.00 268.95,299.93 270.79,300.01 272.63,299.97 274.47,249.94 276.32,249.99 278.16,249.82 280.00,249.94 281.84,250.28 283.68,207.00 285.53,250.03 287.37,250.32 289.21,250.40 291.05,300.93 292.89,300.01 294.74,300.10 296.58,249.94 298.42,249.99 300.26,250.07 302.11,249.99 303.95,250.03 305.79,249.94 307.63,200.00 309.47,300.39 311.32,300.01 313.16,300.01 315.00,250.44 316.84,300.39 318.68,249.86 320.53,250.11 322.37,201.46 324.21,300.01 326.05,200.83 327.89,250.03 329.74,249.99 331.58,300.26 333.42,300.01 335.26,300.01 337.11,250.03 338.95,250.03 340.79,250.03 342.63,250.03 344.47,249.99 346.32,250.03 348.16,200.00 350.00,300.26 351.84,249.99 353.68,300.01 355.53,249.94 357.37,250.03 359.21,250.03 361.05,250.03 362.89,200.04 364.74,300.01 366.58,249.90 368.42,300.01 370.26,300.01 372.11,300.06 373.95,300.01 375.79,300.01 377.63,243.95 379.47,249.94 381.32,299.97 383.16,300.01 385.00,300.01 386.84,250.03 388.68,300.01 390.53,300.01 392.37,299.97 394.21,249.99 396.05,300.01 397.89,299.93 399.74,300.01 401.58,299.93 403.42,300.01 405.26,300.01 407.11,299.89 408.95,299.97 410.79,250.03 412.63,299.93 414.47,299.89 416.32,299.97 418.16,249.94 420.00,300.01 421.84,300.01 423.68,299.97 425.53,249.99 427.37,299.97 429.21,299.97 431.05,300.06 432.89,300.06 434.74,299.93 436.58,300.01 438.42,300.01 440.26,299.93 442.11,300.01 443.95,300.01 445.79,299.97 447.63,300.01 449.47,300.01 451.32,300.01 453.16,300.01 455.00,249.86 456.84,300.01 458.68,300.10 460.53,299.93 462.37,300.01 464.21,299.93 466.05,300.01 467.89,300.01 469.74,300.01 471.58,300.01 473.42,300.01 475.26,299.97 477.11,300.01 478.95,300.01 480.79,300.01 482.63,300.01 484.47,250.03 486.32,300.01 488.16,300.01 490.00,299.97 491.84,300.01 493.68,300.01 495.53,299.97 497.37,299.97 499.21,300.01 501.05,299.97 502.89,300.01 504.74,299.93 506.58,300.01 508.42,250.03 510.26,300.01 512.11,300.01 513.95,300.01 515.79,300.01 517.63,300.01 519.47,299.89 521.32,300.01 523.16,300.01 525.00,250.07 526.84,300.01 528.68,299.93 530.53,300.01 532.37,299.97 534.21,299.97 536.05,299.97 537.89,250.03 539.74,300.01 541.58,300.01 543.42,300.01 545.26,300.01 547.11,299.97 548.95,300.01 550.79,299.97 552.63,300.01 554.47,299.97 556.32,249.90 558.16,300.01 560.00,300.01 561.84,299.89 563.68,299.97 565.53,299.97 567.37,249.99 569.21,299.97 571.05,299.89 572.89,300.01 574.74,299.97 576.58,299.97 578.42,300.01 580.26,299.97 582.11,249.99 583.95,299.97 585.79,299.97 587.63,300.06 589.47,300.06 591.32,249.94 593.16,300.01 595.00,299.93 596.84,300.01 598.68,300.01 600.53,249.99 602.37,300.01 604.21,300.01 606.05,300.01 607.89,299.93 609.74,299.93 611.58,300.01 613.42,300.01 615.26,249.94 617.11,299.97 618.95,299.97 620.79,300.01 622.63,300.01 624.47,300.01 626.32,249.99 628.16,300.01 630.00,300.01 631.84,300.01 633.68,250.03 635.53,300.01 637.37,300.01 639.21,300.01 641.05,299.97 642.89,300.01 644.74,300.01 646.58,299.97 648.42,299.97 650.26,300.01 652.11,300.01 653.95,299.97 655.79,299.93 657.63,300.01 659.47,300.06 661.32,299.97 663.16,300.01 665.00,250.03 666.84,250.03 668.68,299.93 670.53,299.97 672.37,300.01 674.21,300.01 676.05,300.06 677.89,300.01 679.74,299.93 681.58,300.01 683.42,300.01 685.26,299.97 687.11,299.97 688.95,300.01 690.79,250.03 692.63,300.01 694.47,300.01 696.32,300.01 698.16,299.97 700.00,300.01 701.84,299.97 703.68,300.01 705.53,299.97 707.37,299.97 709.21,299.93 711.05,300.01 712.89,300.01 714.74,299.89 716.58,299.97 718.42,299.97 720.26,300.06 722.11,249.90 723.95,299.89 725.79,300.01 727.63,299.97 729.47,299.97 731.32,299.97 733.16,300.01 735.00,300.01 736.84,299.97 738.68,299.97 740.53,299.97 742.37,250.03 744.21,299.93 746.05,300.01 747.89,300.01 749.74,299.93 751.58,300.01 753.42,300.01 755.26,299.97 757.11,300.01 758.95,300.01 760.79,300.06 762.63,300.01 764.47,299.97 766.32,299.89 768.16,300.01 770.00,300.01 771.84,249.94 773.68,249.94 775.53,300.01 777.37,300.01 779.21,300.01 781.05,300.01 782.89,299.97 784.74,250.03 786.58,300.01 788.42,300.01 790.26,300.01 792.11,300.01 793.95,250.03 795.79,249.99 797.63,300.01 799.47,299.97 801.32,300.01 803.16,299.97 805.00,300.01 806.84,299.97 808.68,299.97 810.53,299.97 812.37,300.06 814.21,249.99 816.05,300.01 817.89,250.03 819.74,249.94 821.58,249.99 823.42,300.01 825.26,300.06 827.11,300.01 828.95,299.97 830.79,299.97 832.63,300.01 834.47,299.93 836.32,299.89 838.16,299.89 840.00,299.89 841.84,299.89 843.68,299.85 845.53,299.85 847.37,299.89 849.21,299.81 851.05,299.81 852.89,299.81 854.74,299.76 856.58,299.76 858.42,299.76 860.26,299.72 862.11,299.68 863.95,299.60 865.79,299.60 867.63,299.60 869.47,299.56 871.32,299.47 873.16,299.43 875.00,299.43 876.84,299.39 878.68,299.47 880.53,259.82 882.37,338.96 884.21,299.31 886.05,299.31 887.89,299.26 889.74,299.68 891.58,299.68 893.42,299.68 895.26,299.64 897.11,299.14 898.95,299.14 900.79,299.10 902.63,299.10 904.47,299.10 906.32,248.07 908.16,299.06 910.00,299.06 911.84,299.06 913.68,299.06 915.53,299.06 917.37,298.97 919.21,298.97 921.05,298.93 922.89,298.97 924.74,298.93 926.58,298.89 928.42,298.89 930.26,298.89 932.11,298.89 933.95,247.78 935.79,298.89 937.63,298.89 939.47,298.85 941.32,298.85 943.16,298.81 945.00,298.81 946.84,298.81 948.68,298.81 950.53,298.81 952.37,298.81 954.21,298.81 956.05,298.81 957.89,298.81 959.74,298.72 961.58,247.45 963.42,247.45 965.26,298.72 967.11,298.72 968.95,298.72 970.79,298.72 972.63,298.72 974.47,298.72 976.32,247.36 978.16,298.68 980.00,247.36"/>
  <circle cx="70.00" cy="50.00" r="2.5" fill="#2563eb"/>
  <circle cx="71.84" cy="50.12" r="2.5" fill="#2563eb"/>
  <circle cx="73.68" cy="50.17" r="2.5" fill="#2563eb"/>
  <circle cx="75.53" cy="50.46" r="2.5" fill="#2563eb"/>
  <circle cx="77.37" cy="50.00" r="2.5" fill="#2563eb"/>
  <circle cx="79.21" cy="266.90" r="2.5" fill="#2563eb"/>
  <circle cx="81.05" cy="50.12" r="2.5" fill="#2563eb"/>
  <circle cx="82.89" cy="50.08" r="2.5" fill="#2563eb"/>
  <circle cx="84.74" cy="177.46" r="2.5" fill="#2563eb"/>
  <circle cx="86.58" cy="211.58" r="2.5" fill="#2563eb"/>
  <circle cx="88.42" cy="175.34" r="2.5" fill="#2563eb"/>
  <circle cx="90.26" cy="304.14" r="2.5" fill="#2563eb"/>
  <circle cx="92.11" cy="200.46" r="2.5" fill="#2563eb"/>
  <circle cx="93.95" cy="250.94" r="2.5" fill="#2563eb"/>
  <circle cx="95.79" cy="300.01" r="2.5" fill="#2563eb"/>
  <circle cx="97.63" cy="300.06" r="2.5" fill="#2563eb"/>
  <circle cx="99.47" cy="300.01" r="2.5" fill="#2563eb"/>
  <circle cx="101.32" cy="300.01" r="2.5" fill="#2563eb"/>
  <circle cx="103.16" cy="348.00" r="2.5" fill="#2563eb"/>
  <circle cx="105.00" cy="300.01" r="2.5" fill="#2563eb"/>
  <circle cx="106.84" cy="249.99" r="2.5" fill="#2563eb"/>
  <circle cx="108.68" cy="200.00" r="2.5" fill="#2563eb"/>
  <circle cx="110.53" cy="249.99" r="2.5" fill="#2563eb"/>
  <circle cx="112.37" cy="249.99" r="2.5" fill="#2563eb"/>
  <circle cx="114.21" cy="250.03" r="2.5" fill="#2563eb"/>
  <circle cx="116.05" cy="250.03" r="2.5" fill="#2563eb"/>
  <circle cx="117.89" cy="250.03" r="2.5" fill="#2563eb"/>
  <circle cx="119.74" cy="250.40" r="2.5" fill="#2563eb"/>
  <circle cx="121.58" cy="250.90" r="2.5" fill="#2563eb"/>
  <circle cx="123.42" cy="250.90" r="2.5" fill="#2563eb"/>
  <circle cx="125.26" cy="251.32" r="2.5" fill="#2563eb"/>
  <circle cx="127.11" cy="249.94" r="2.5" fill="#2563eb"/>
  <circle cx="128.95" cy="300.01" r="2.5" fill="#2563eb"/>
  <circle cx="130.79" cy="299.93" r="2.5" fill="#2563eb"/>
  <circle cx="132.63" cy="251.03" r="2.5" fill="#2563eb"/>
  <circle cx="134.47" cy="300.68" r="2.5" fill="#2563eb"/>
  <circle cx="136.32" cy="250.03" r="2.5" fill="#2563eb"/>
  <circle cx="138.16" cy="200.00" r="2.5" fill="#2563eb"/>
  <circle cx="140.00" cy="249.99" r="2.5" fill="#2563eb"/>
  <circle cx="141.84" cy="250.03" r="2.5" fill="#2563eb"/>
  <circle cx="143.68" cy="250.03" r="2.5" fill="#2563eb"/>
  <circle cx="145.53" cy="250.03" r="2.5" fill="#2563eb"/>
  <circle cx="147.37" cy="300.01" r="2.5" fill="#2563eb"/>
  <circle cx="149.21" cy="200.04" r="2.5" fill="#2563eb"/>
  <circle cx="151.05" cy="250.03" r="2.5" fill="#2563eb"/>
  <circle cx="152.89" cy="250.03" r="2.5" fill="#2563eb"/>
  <circle cx="154.74" cy="250.03" r="2.5" fill="#2563eb"/>
  <circle cx="156.58" cy="249.90" r="2.5" fill="#2563eb"/>
  <circle cx="158.42" cy="250.03" r="2.5" fill="#2563eb"/>
  <circle cx="160.26" cy="250.03" r="2.5" fill="#2563eb"/>
  <circle cx="162.11" cy="250.94" r="2.5" fill="#2563eb"/>
  <circle cx="163.95" cy="250.44" r="2.5" fill="#2563eb"/>
  <circle cx="165.79" cy="250.03" r="2.5" fill="#2563eb"/>
  <circle cx="167.63" cy="250.03" r="2.5" fill="#2563eb"/>
  <circle cx="169.47" cy="300.47" r="2.5" fill="#2563eb"/>
  <circle cx="171.32" cy="300.01" r="2.5" fill="#2563eb"/>
  <circle cx="173.16" cy="300.43" r="2.5" fill="#2563eb"/>
  <circle cx="175.00" cy="250.03" r="2.5" fill="#2563eb"/>
  <circle cx="176.84" cy="249.99" r="2.5" fill="#2563eb"/>
  <circle cx="178.68" cy="300.43" r="2.5" fill="#2563eb"/>
  <circle cx="180.53" cy="249.90" r="2.5" fill="#2563eb"/>
  <circle cx="182.37" cy="249.99" r="2.5" fill="#2563eb"/>
  <circle cx="184.21" cy="249.99" r="2.5" fill="#2563eb"/>
  <circle cx="186.05" cy="200.04" r="2.5" fill="#2563eb"/>
  <circle cx="187.89" cy="300.01" r="2.5" fill="#2563eb"/>
  <circle cx="189.74" cy="300.01" r="2.5" fill="#2563eb"/>
  <circle cx="191.58" cy="300.01" r="2.5" fill="#2563eb"/>
  <circle cx="193.42" cy="249.90" r="2.5" fill="#2563eb"/>
  <circle cx="195.26" cy="300.01" r="2.5" fill="#2563eb"/>
  <circle cx="197.11" cy="250.03" r="2.5" fill="#2563eb"/>
  <circle cx="198.95" cy="249.99" r="2.5" fill="#2563eb"/>
  <circle cx="200.79" cy="199.96" r="2.5" fill="#2563eb"/>
  <circle cx="202.63" cy="300.01" r="2.5" fill="#2563eb"/>
  <circle cx="204.47" cy="200.00" r="2.5" fill="#2563eb"/>
  <circle cx="206.32" cy="250.36" r="2.5" fill="#2563eb"/>
  <circle cx="208.16" cy="250.03" r="2.5" fill="#2563eb"/>
  <circle cx="210.00" cy="300.01" r="2.5" fill="#2563eb"/>
  <circle cx="211.84" cy="300.01" r="2.5" fill="#2563eb"/>
  <circle cx="213.68" cy="250.44" r="2.5" fill="#2563eb"/>
  <circle cx="215.53" cy="300.01" r="2.5" fill="#2563eb"/>
  <circle cx="217.37" cy="250.03" r="2.5" fill="#2563eb"/>
  <circle cx="219.21" cy="250.03" r="2.5" fill="#2563eb"/>
  <circle cx="221.05" cy="249.99" r="2.5" fill="#2563eb"/>
  <circle cx="222.89" cy="250.49" r="2.5" fill="#2563eb"/>
  <circle cx="224.74" cy="250.03" r="2.5" fill="#2563eb"/>
  <circle cx="226.58" cy="200.04" r="2.5" fill="#2563eb"/>
  <circle cx="228.42" cy="300.01" r="2.5" fill="#2563eb"/>
  <circle cx="230.26" cy="250.03" r="2.5" fill="#2563eb"/>
  <circle cx="232.11" cy="300.01" r="2.5" fill="#2563eb"/>
  <circle cx="233.95" cy="250.11" r="2.5" fill="#2563eb"/>
  <circle cx="235.79" cy="300.01" r="2.5" fill="#2563eb"/>
  <circle cx="237.63" cy="250.03" r="2.5" fill="#2563eb"/>
  <circle cx="239.47" cy="250.03" r="2.5" fill="#2563eb"/>
  <circle cx="241.32" cy="199.92" r="2.5" fill="#2563eb"/>
  <circle cx="243.16" cy="250.03" r="2.5" fill="#2563eb"/>
  <circle cx="245.00" cy="250.03" r="2.5" fill="#2563eb"/>
  <circle cx="246.84" cy="250.03" r="2.5" fill="#2563eb"/>
  <circle cx="248.68" cy="254.36" r="2.5" fill="#2563eb"/>
  <circle cx="250.53" cy="300.01" r="2.5" fill="#2563eb"/>
  <circle cx="252.37" cy="299.97" r="2.5" fill="#2563eb"/>
  <circle cx="254.21" cy="250.36" r="2.5" fill="#2563eb"/>
  <circle cx="256.05" cy="299.97" r="2.5" fill="#2563eb"/>
  <circle cx="257.89" cy="250.03" r="2.5" fill="#2563eb"/>
  <circle cx="259.74" cy="250.03" r="2.5" fill="#2563eb"/>
  <circle cx="261.58" cy="250.03" r="2.5" fill="#2563eb"/>
  <circle cx="263.42" cy="250.03" r="2.5" fill="#2563eb"/>
  <circle cx="265.26" cy="249.99" r="2.5" fill="#2563eb"/>
  <circle cx="267.11" cy="200.00" r="2.5" fill="#2563eb"/>
  <circle cx="268.95" cy="299.93" r="2.5" fill="#2563eb"/>
  <circle cx="270.79" cy="300.01" r="2.5" fill="#2563eb"/>
  <circle cx="272.63" cy="299.97" r="2.5" fill="#2563eb"/>
  <circle cx="274.47" cy="249.94" r="2.5" fill="#2563eb"/>
  <circle cx="276.32" cy="249.99" r="2.5" fill="#2563eb"/>
  <circle cx="278.16" cy="249.82" r="2.5" fill="#2563eb"/>
  <circle cx="280.00" cy="249.94" r="2.5" fill="#2563eb"/>
  <circle cx="281.84" cy="250.28" r="2.5" fill="#2563eb"/>
  <circle cx="283.68" cy="207.00" r="2.5" fill="#2563eb"/>
  <circle cx="285.53" cy="250.03" r="2.5" fill="#2563eb"/>
  <circle cx="287.37" cy="250.32" r="2.5" fill="#2563eb"/>
  <circle cx="289.21" cy="250.40" r="2.5" fill="#2563eb"/>
  <circle cx="291.05" cy="300.93" r="2.5" fill="#2563eb"/>
  <circle cx="292.89" cy="300.01" r="2.5" fill="#2563eb"/>
  <circle cx="294.74" cy="300.10" r="2.5" fill="#2563eb"/>
  <circle cx="296.58" cy="249.94" r="2.5" fill="#2563eb"/>
  <circle cx="298.42" cy="249.99" r="2.5" fill="#2563eb"/>
  <circle cx="300.26" cy="250.07" r="2.5" fill="#2563eb"/>
  <circle cx="302.11" cy="249.99" r="2.5" fill="#2563eb"/>
  <circle cx="303.95" cy="250.03" r="2.5" fill="#2563eb"/>
  <circle cx="305.79" cy="249.94" r="2.5" fill="#2563eb"/>
  <circle cx="307.63" cy="200.00" r="2.5" fill="#2563eb"/>
  <circle cx="309.47" cy="300.39" r="2.5" fill="#2563eb"/>
  <circle cx="311.32" cy="300.01" r="2.5" fill="#2563eb"/>
  <circle cx="313.16" cy="300.01" r="2.5" fill="#2563eb"/>
  <circle cx="315.00" cy="250.44" r="2.5" fill="#2563eb"/>
  <circle cx="316.84" cy="300.39" r="2.5" fill="#2563eb"/>
  <circle cx="318.68" cy="249.86" r="2.5" fill="#2563eb"/>
  <circle cx="320.53" cy="250.11" r="2.5" fill="#2563eb"/>
  <circle cx="322.37" cy="201.46" r="2.5" fill="#2563eb"/>
  <circle cx="324.21" cy="300.01" r="2.5" fill="#2563eb"/>
  <circle cx="326.05" cy="200.83" r="2.5" fill="#2563eb"/>
  <circle cx="327.89" cy="250.03" r="2.5" fill="#2563eb"/>
  <circle cx="329.74" cy="249.99" r="2.5" fill="#2563eb"/>
  <circle cx="331.58" cy="300.26" r="2.5" fill="#2563eb"/>
  <circle cx="333.42" cy="300.01" r="2.5" fill="#2563eb"/>
  <circle cx="335.26" cy="300.01" r="2.5" fill="#2563eb"/>
  <circle cx="337.11" cy="250.03" r="2.5" fill="#2563eb"/>
  <circle cx="338.95" cy="250.03" r="2.5" fill="#2563eb"/>
  <circle cx="340.79" cy="250.03" r="2.5" fill="#2563eb"/>
  <circle cx="342.63" cy="250.03" r="2.5" fill="#2563eb"/>
  <circle cx="344.47" cy="249.99" r="2.5" fill="#2563eb"/>
  <circle cx="346.32" cy="250.03" r="2.5" fill="#2563eb"/>
  <circle cx="348.16" cy="200.00" r="2.5" fill="#2563eb"/>
  <circle cx="350.00" cy="300.26" r="2.5" fill="#2563eb"/>
  <circle cx="351.84" cy="249.99" r="2.5" fill="#2563eb"/>
  <circle cx="353.68" cy="300.01" r="2.5" fill="#2563eb"/>
  <circle cx="355.53" cy="249.94" r="2.5" fill="#2563eb"/>
  <circle cx="357.37" cy="250.03" r="2.5" fill="#2563eb"/>
  <circle cx="359.21" cy="250.03" r="2.5" fill="#2563eb"/>
  <circle cx="361.05" cy="250.03" r="2.5" fill="#2563eb"/>
  <circle cx="362.89" cy="200.04" r="2.5" fill="#2563eb"/>
  <circle cx="364.74" cy="300.01" r="2.5" fill="#2563eb"/>
  <circle cx="366.58" cy="249.90" r="2.5" fill="#2563eb"/>
  <circle cx="368.42" cy="300.01" r="2.5" fill="#2563eb"/>
  <circle cx="370.26" cy="300.01" r="2.5" fill="#2563eb"/>
  <circle cx="372.11" cy="300.06" r="2.5" fill="#2563eb"/>
  <circle cx="373.95" cy="300.01" r="2.5" fill="#2563eb"/>
  <circle cx="375.79" cy="300.01" r="2.5" fill="#2563eb"/>
  <circle cx="377.63" cy="243.95" r="2.5" fill="#2563eb"/>
  <circle cx="379.47" cy="249.94" r="2.5" fill="#2563eb"/>
  <circle cx="381.32" cy="299.97" r="2.5" fill="#2563eb"/>
  <circle cx="383.16" cy="300.01" r="2.5" fill="#2563eb"/>
  <circle cx="385.00" cy="300.01" r="2.5" fill="#2563eb"/>
  <circle cx="386.84" cy="250.03" r="2.5" fill="#2563eb"/>
  <circle cx="388.68" cy="300.01" r="2.5" fill="#2563eb"/>
  <circle cx="390.53" cy="300.01" r="2.5" fill="#2563eb"/>
  <circle cx="392.37" cy="299.97" r="2.5" fill="#2563eb"/>
  <circle cx="394.21" cy="249.99" r="2.5" fill="#2563eb"/>
  <circle cx="396.05" cy="300.01" r="2.5" fill="#2563eb"/>
  <circle cx="397.89" cy="299.93" r="2.5" fill="#2563eb"/>
  <circle cx="399.74" cy="300.01" r="2.5" fill="#2563eb"/>
  <circle cx="401.58" cy="299.93" r="2.5" fill="#2563eb"/>
  <circle cx="403.42" cy="300.01" r="2.5" fill="#2563eb"/>
  <circle cx="405.26" cy="300.01" r="2.5" fill="#2563eb"/>
  <circle cx="407.11" cy="299.89" r="2.5" fill="#2563eb"/>
  <circle cx="408.95" cy="299.97" r="2.5" fill="#2563eb"/>
  <circle cx="410.79" cy="250.03" r="2.5" fill="#2563eb"/>
  <circle cx="412.63" cy="299.93" r="2.5" fill="#2563eb"/>
  <circle cx="414.47" cy="299.89" r="2.5" fill="#2563eb"/>
  <circle cx="416.32" cy="299.97" r="2.5" fill="#2563eb"/>
  <circle cx="418.16" cy="249.94" r="2.5" fill="#2563eb"/>
  <circle cx="420.00" cy="300.01" r="2.5" fill="#2563eb"/>
  <circle cx="421.84" cy="300.01" r="2.5" fill="#2563eb"/>
  <circle cx="423.68" cy="299.97" r="2.5" fill="#2563eb"/>
  <circle cx="425.53" cy="249.99" r="2.5" fill="#2563eb"/>
  <circle cx="427.37" cy="299.97" r="2.5" fill="#2563eb"/>
  <circle cx="429.21" cy="299.97" r="2.5" fill="#2563eb"/>
  <circle cx="431.05" cy="300.06" r="2.5" fill="#2563eb"/>
  <circle cx="432.89" cy="300.06" r="2.5" fill="#2563eb"/>
  <circle cx="434.74" cy="299.93" r="2.5" fill="#2563eb"/>
  <circle cx="436.58" cy="300.01" r="2.5" fill="#2563eb"/>
  <circle cx="438.42" cy="300.01" r="2.5" fill="#2563eb"/>
  <circle cx="440.26" cy="299.93" r="2.5" fill="#2563eb"/>
  <circle cx="442.11" cy="300.01" r="2.5" fill="#2563eb"/>
  <circle cx="443.95" cy="300.01" r="2.5" fill="#2563eb"/>
  <circle cx="445.79" cy="299.97" r="2.5" fill="#2563eb"/>
  <circle cx="447.63" cy="300.01" r="2.5" fill="#2563eb"/>
  <circle cx="449.47" cy="300.01" r="2.5" fill="#2563eb"/>
  <circle cx="451.32" cy="300.01" r="2.5" fill="#2563eb"/>
  <circle cx="453.16" cy="300.01" r="2.5" fill="#2563eb"/>
  <circle cx="455.00" cy="249.86" r="2.5" fill="#2563eb"/>
  <circle cx="456.84" cy="300.01" r="2.5" fill="#2563eb"/>
  <circle cx="458.68" cy="300.10" r="2.5" fill="#2563eb"/>
  <circle cx="460.53" cy="299.93" r="2.5" fill="#2563eb"/>
  <circle cx="462.37" cy="300.01" r="2.5" fill="#2563eb"/>
  <circle cx="464.21" cy="299.93" r="2.5" fill="#2563eb"/>
  <circle cx="466.05" cy="300.01" r="2.5" fill="#2563eb"/>
  <circle cx="467.89" cy="300.01" r="2.5" fill="#2563eb"/>
  <circle cx="469.74" cy="300.01" r="2.5" fill="#2563eb"/>
  <circle cx="471.58" cy="300.01" r="2.5" fill="#2563eb"/>
  <circle cx="473.42" cy="300.01" r="2.5" fill="#2563eb"/>
  <circle cx="475.26" cy="299.97" r="2.5" fill="#2563eb"/>
  <circle cx="477.11" cy="300.01" r="2.5" fill="#2563eb"/>
  <circle cx="478.95" cy="300.01" r="2.5" fill="#2563eb"/>
  <circle cx="480.79" cy="300.01" r="2.5" fill="#2563eb"/>
  <circle cx="482.63" cy="300.01" r="2.5" fill="#2563eb"/>
  <circle cx="484.47" cy="250.03" r="2.5" fill="#2563eb"/>
  <circle cx="486.32" cy="300.01" r="2.5" fill="#2563eb"/>
  <circle cx="488.16" cy="300.01" r="2.5" fill="#2563eb"/>
  <circle cx="490.00" cy="299.97" r="2.5" fill="#2563eb"/>
  <circle cx="491.84" cy="300.01" r="2.5" fill="#2563eb"/>
  <circle cx="493.68" cy="300.01" r="2.5" fill="#2563eb"/>
  <circle cx="495.53" cy="299.97" r="2.5" fill="#2563eb"/>
  <circle cx="497.37" cy="299.97" r="2.5" fill="#2563eb"/>
  <circle cx="499.21" cy="300.01" r="2.5" fill="#2563eb"/>
  <circle cx="501.05" cy="299.97" r="2.5" fill="#2563eb"/>
  <circle cx="502.89" cy="300.01" r="2.5" fill="#2563eb"/>
  <circle cx="504.74" cy="299.93" r="2.5" fill="#2563eb"/>
  <circle cx="506.58" cy="300.01" r="2.5" fill="#2563eb"/>
  <circle cx="508.42" cy="250.03" r="2.5" fill="#2563eb"/>
  <circle cx="510.26" cy="300.01" r="2.5" fill="#2563eb"/>
  <circle cx="512.11" cy="300.01" r="2.5" fill="#2563eb"/>
  <circle cx="513.95" cy="300.01" r="2.5" fill="#2563eb"/>
  <circle cx="515.79" cy="300.01" r="2.5" fill="#2563eb"/>
  <circle cx="517.63" cy="300.01" r="2.5" fill="#2563eb"/>
  <circle cx="519.47" cy="299.89" r="2.5" fill="#2563eb"/>
  <circle cx="521.32" cy="300.01" r="2.5" fill="#2563eb"/>
  <circle cx="523.16" cy="300.01" r="2.5" fill="#2563eb"/>
  <circle cx="525.00" cy="250.07" r="2.5" fill="#2563eb"/>
  <circle cx="526.84" cy="300.01" r="2.5" fill="#2563eb"/>
  <circle cx="528.68" cy="299.93" r="2.5" fill="#2563eb"/>
  <circle cx="530.53" cy="300.01" r="2.5" fill="#2563eb"/>
  <circle cx="532.37" cy="299.97" r="2.5" fill="#2563eb"/>
  <circle cx="534.21" cy="299.97" r="2.5" fill="#2563eb"/>
  <circle cx="536.05" cy="299.97" r="2.5" fill="#2563eb"/>
  <circle cx="537.89" cy="250.03" r="2.5" fill="#2563eb"/>
  <circle cx="539.74" cy="300.01" r="2.5" fill="#2563eb"/>
  <circle cx="541.58" cy="300.01" r="2.5" fill="#2563eb"/>
  <circle cx="543.42" cy="300.01" r="2.5" fill="#2563eb"/>
  <circle cx="545.26" cy="300.01" r="2.5" fill="#2563eb"/>
  <circle cx="547.11" cy="299.97" r="2.5" fill="#2563eb"/>
  <circle cx="548.95" cy="300.01" r="2.5" fill="#2563eb"/>
  <circle cx="550.79" cy="299.97" r="2.5" fill="#2563eb"/>
  <circle cx="552.63" cy="300.01" r="2.5" fill="#2563eb"/>
  <circle cx="554.47" cy="299.97" r="2.5" fill="#2563eb"/>
  <circle cx="556.32" cy="249.90" r="2.5" fill="#2563eb"/>
  <circle cx="558.16" cy="300.01" r="2.5" fill="#2563eb"/>
  <circle cx="560.00" cy="300.01" r="2.5" fill="#2563eb"/>
  <circle cx="561.84" cy="299.89" r="2.5" fill="#2563eb"/>
  <circle cx="563.68" cy="299.97" r="2.5" fill="#2563eb"/>
  <circle cx="565.53" cy="299.97" r="2.5" fill="#2563eb"/>
  <circle cx="567.37" cy="249.99" r="2.5" fill="#2563eb"/>
  <circle cx="569.21" cy="299.97" r="2.5" fill="#2563eb"/>
  <circle cx="571.05" cy="299.89" r="2.5" fill="#2563eb"/>
  <circle cx="572.89" cy="300.01" r="2.5" fill="#2563eb"/>
  <circle cx="574.74" cy="299.97" r="2.5" fill="#2563eb"/>
  <circle cx="576.58" cy="299.97" r="2.5" fill="#2563eb"/>
  <circle cx="578.42" cy="300.01" r="2.5" fill="#2563eb"/>
  <circle cx="580.26" cy="299.97" r="2.5" fill="#2563eb"/>
  <circle cx="582.11" cy="249.99" r="2.5" fill="#2563eb"/>
  <circle cx="583.95" cy="299.97" r="2.5" fill="#2563eb"/>
  <circle cx="585.79" cy="299.97" r="2.5" fill="#2563eb"/>
  <circle cx="587.63" cy="300.06" r="2.5" fill="#2563eb"/>
  <circle cx="589.47" cy="300.06" r="2.5" fill="#2563eb"/>
  <circle cx="591.32" cy="249.94" r="2.5" fill="#2563eb"/>
  <circle cx="593.16" cy="300.01" r="2.5" fill="#2563eb"/>
  <circle cx="595.00" cy="299.93" r="2.5" fill="#2563eb"/>
  <circle cx="596.84" cy="300.01" r="2.5" fill="#2563eb"/>
  <circle cx="598.68" cy="300.01" r="2.5" fill="#2563eb"/>
  <circle cx="600.53" cy="249.99" r="2.5" fill="#2563eb"/>
  <circle cx="602.37" cy="300.01" r="2.5" fill="#2563eb"/>
  <circle cx="604.21" cy="300.01" r="2.5" fill="#2563eb"/>
  <circle cx="606.05" cy="300.01" r="2.5" fill="#2563eb"/>
  <circle cx="607.89" cy="299.93" r="2.5" fill="#2563eb"/>
  <circle cx="609.74" cy="299.93" r="2.5" fill="#2563eb"/>
  <circle cx="611.58" cy="300.01" r="2.5" fill="#2563eb"/>
  <circle cx="613.42" cy="300.01" r="2.5" fill="#2563eb"/>
  <circle cx="615.26" cy="249.94" r="2.5" fill="#2563eb"/>
  <circle cx="617.11" cy="299.97" r="2.5" fill="#2563eb"/>
  <circle cx="618.95" cy="299.97" r="2.5" fill="#2563eb"/>
  <circle cx="620.79" cy="300.01" r="2.5" fill="#2563eb"/>
  <circle cx="622.63" cy="300.01" r="2.5" fill="#2563eb"/>
  <circle cx="624.47" cy="300.01" r="2.5" fill="#2563eb"/>
  <circle cx="626.32" cy="249.99" r="2.5" fill="#2563eb"/>
  <circle cx="628.16" cy="300.01" r="2.5" fill="#2563eb"/>
  <circle cx="630.00" cy="300.01" r="2.5" fill="#2563eb"/>
  <circle cx="631.84" cy="300.01" r="2.5" fill="#2563eb"/>
  <circle cx="633.68" cy="250.03" r="2.5" fill="#2563eb"/>
  <circle cx="635.53" cy="300.01" r="2.5" fill="#2563eb"/>
  <circle cx="637.37" cy="300.01" r="2.5" fill="#2563eb"/>
  <circle cx="639.21" cy="300.01" r="2.5" fill="#2563eb"/>
  <circle cx="641.05" cy="299.97" r="2.5" fill="#2563eb"/>
  <circle cx="642.89" cy="300.01" r="2.5" fill="#2563eb"/>
  <circle cx="644.74" cy="300.01" r="2.5" fill="#2563eb"/>
  <circle cx="646.58" cy="299.97" r="2.5" fill="#2563eb"/>
  <circle cx="648.42" cy="299.97" r="2.5" fill="#2563eb"/>
  <circle cx="650.26" cy="300.01" r="2.5" fill="#2563eb"/>
  <circle cx="652.11" cy="300.01" r="2.5" fill="#2563eb"/>
  <circle cx="653.95" cy="299.97" r="2.5" fill="#2563eb"/>
  <circle cx="655.79" cy="299.93" r="2.5" fill="#2563eb"/>
  <circle cx="657.63" cy="300.01" r="2.5" fill="#2563eb"/>
  <circle cx="659.47" cy="300.06" r="2.5" fill="#2563eb"/>
  <circle cx="661.32" cy="299.97" r="2.5" fill="#2563eb"/>
  <circle cx="663.16" cy="300.01" r="2.5" fill="#2563eb"/>
  <circle cx="665.00" cy="250.03" r="2.5" fill="#2563eb"/>
  <circle cx="666.84" cy="250.03" r="2.5" fill="#2563eb"/>
  <circle cx="668.68" cy="299.93" r="2.5" fill="#2563eb"/>
  <circle cx="670.53" cy="299.97" r="2.5" fill="#2563eb"/>
  <circle cx="672.37" cy="300.01" r="2.5" fill="#2563eb"/>
  <circle cx="674.21" cy="300.01" r="2.5" fill="#2563eb"/>
  <circle cx="676.05" cy="300.06" r="2.5" fill="#2563eb"/>
  <circle cx="677.89" cy="300.01" r="2.5" fill="#2563eb"/>
  <circle cx="679.74" cy="299.93" r="2.5" fill="#2563eb"/>
  <circle cx="681.58" cy="300.01" r="2.5" fill="#2563eb"/>
  <circle cx="683.42" cy="300.01" r="2.5" fill="#2563eb"/>
  <circle cx="685.26" cy="299.97" r="2.5" fill="#2563eb"/>
  <circle cx="687.11" cy="299.97" r="2.5" fill="#2563eb"/>
  <circle cx="688.95" cy="300.01" r="2.5" fill="#2563eb"/>
  <circle cx="690.79" cy="250.03" r="2.5" fill="#2563eb"/>
  <circle cx="692.63" cy="300.01" r="2.5" fill="#2563eb"/>
  <circle cx="694.47" cy="300.01" r="2.5" fill="#2563eb"/>
  <circle cx="696.32" cy="300.01" r="2.5" fill="#2563eb"/>
  <circle cx="698.16" cy="299.97" r="2.5" fill="#2563eb"/>
  <circle cx="700.00" cy="300.01" r="2.5" fill="#2563eb"/>
  <circle cx="701.84" cy="299.97" r="2.5" fill="#2563eb"/>
  <circle cx="703.68" cy="300.01" r="2.5" fill="#2563eb"/>
  <circle cx="705.53" cy="299.97" r="2.5" fill="#2563eb"/>
  <circle cx="707.37" cy="299.97" r="2.5" fill="#2563eb"/>
  <circle cx="709.21" cy="299.93" r="2.5" fill="#2563eb"/>
  <circle cx="711.05" cy="300.01" r="2.5" fill="#2563eb"/>
  <circle cx="712.89" cy="300.01" r="2.5" fill="#2563eb"/>
  <circle cx="714.74" cy="299.89" r="2.5" fill="#2563eb"/>
  <circle cx="716.58" cy="299.97" r="2.5" fill="#2563eb"/>
  <circle cx="718.42" cy="299.97" r="2.5" fill="#2563eb"/>
  <circle cx="720.26" cy="300.06" r="2.5" fill="#2563eb"/>
  <circle cx="722.11" cy="249.90" r="2.5" fill="#2563eb"/>
  <circle cx="723.95" cy="299.89" r="2.5" fill="#2563eb"/>
  <circle cx="725.79" cy="300.01" r="2.5" fill="#2563eb"/>
  <circle cx="727.63" cy="299.97" r="2.5" fill="#2563eb"/>
  <circle cx="729.47" cy="299.97" r="2.5" fill="#2563eb"/>
  <circle cx="731.32" cy="299.97" r="2.5" fill="#2563eb"/>
  <circle cx="733.16" cy="300.01" r="2.5" fill="#2563eb"/>
  <circle cx="735.00" cy="300.01" r="2.5" fill="#2563eb"/>
  <circle cx="736.84" cy="299.97" r="2.5" fill="#2563eb"/>
  <circle cx="738.68" cy="299.97" r="2.5" fill="#2563eb"/>
  <circle cx="740.53" cy="299.97" r="2.5" fill="#2563eb"/>
  <circle cx="742.37" cy="250.03" r="2.5" fill="#2563eb"/>
  <circle cx="744.21" cy="299.93" r="2.5" fill="#2563eb"/>
  <circle cx="746.05" cy="300.01" r="2.5" fill="#2563eb"/>
  <circle cx="747.89" cy="300.01" r="2.5" fill="#2563eb"/>
  <circle cx="749.74" cy="299.93" r="2.5" fill="#2563eb"/>
  <circle cx="751.58" cy="300.01" r="2.5" fill="#2563eb"/>
  <circle cx="753.42" cy="300.01" r="2.5" fill="#2563eb"/>
  <circle cx="755.26" cy="299.97" r="2.5" fill="#2563eb"/>
  <circle cx="757.11" cy="300.01" r="2.5" fill="#2563eb"/>
  <circle cx="758.95" cy="300.01" r="2.5" fill="#2563eb"/>
  <circle cx="760.79" cy="300.06" r="2.5" fill="#2563eb"/>
  <circle cx="762.63" cy="300.01" r="2.5" fill="#2563eb"/>
  <circle cx="764.47" cy="299.97" r="2.5" fill="#2563eb"/>
  <circle cx="766.32" cy="299.89" r="2.5" fill="#2563eb"/>
  <circle cx="768.16" cy="300.01" r="2.5" fill="#2563eb"/>
  <circle cx="770.00" cy="300.01" r="2.5" fill="#2563eb"/>
  <circle cx="771.84" cy="249.94" r="2.5" fill="#2563eb"/>
  <circle cx="773.68" cy="249.94" r="2.5" fill="#2563eb"/>
  <circle cx="775.53" cy="300.01" r="2.5" fill="#2563eb"/>
  <circle cx="777.37" cy="300.01" r="2.5" fill="#2563eb"/>
  <circle cx="779.21" cy="300.01" r="2.5" fill="#2563eb"/>
  <circle cx="781.05" cy="300.01" r="2.5" fill="#2563eb"/>
  <circle cx="782.89" cy="299.97" r="2.5" fill="#2563eb"/>
  <circle cx="784.74" cy="250.03" r="2.5" fill="#2563eb"/>
  <circle cx="786.58" cy="300.01" r="2.5" fill="#2563eb"/>
  <circle cx="788.42" cy="300.01" r="2.5" fill="#2563eb"/>
  <circle cx="790.26" cy="300.01" r="2.5" fill="#2563eb"/>
  <circle cx="792.11" cy="300.01" r="2.5" fill="#2563eb"/>
  <circle cx="793.95" cy="250.03" r="2.5" fill="#2563eb"/>
  <circle cx="795.79" cy="249.99" r="2.5" fill="#2563eb"/>
  <circle cx="797.63" cy="300.01" r="2.5" fill="#2563eb"/>
  <circle cx="799.47" cy="299.97" r="2.5" fill="#2563eb"/>
  <circle cx="801.32" cy="300.01" r="2.5" fill="#2563eb"/>
  <circle cx="803.16" cy="299.97" r="2.5" fill="#2563eb"/>
  <circle cx="805.00" cy="300.01" r="2.5" fill="#2563eb"/>
  <circle cx="806.84" cy="299.97" r="2.5" fill="#2563eb"/>
  <circle cx="808.68" cy="299.97" r="2.5" fill="#2563eb"/>
  <circle cx="810.53" cy="299.97" r="2.5" fill="#2563eb"/>
  <circle cx="812.37" cy="300.06" r="2.5" fill="#2563eb"/>
  <circle cx="814.21" cy="249.99" r="2.5" fill="#2563eb"/>
  <circle cx="816.05" cy="300.01" r="2.5" fill="#2563eb"/>
  <circle cx="817.89" cy="250.03" r="2.5" fill="#2563eb"/>
  <circle cx="819.74" cy="249.94" r="2.5" fill="#2563eb"/>
  <circle cx="821.58" cy="249.99" r="2.5" fill="#2563eb"/>
  <circle cx="823.42" cy="300.01" r="2.5" fill="#2563eb"/>
  <circle cx="825.26" cy="300.06" r="2.5" fill="#2563eb"/>
  <circle cx="827.11" cy="300.01" r="2.5" fill="#2563eb"/>
  <circle cx="828.95" cy="299.97" r="2.5" fill="#2563eb"/>
  <circle cx="830.79" cy="299.97" r="2.5" fill="#2563eb"/>
  <circle cx="832.63" cy="300.01" r="2.5" fill="#2563eb"/>
  <circle cx="834.47" cy="299.93" r="2.5" fill="#2563eb"/>
  <circle cx="836.32" cy="299.89" r="2.5" fill="#2563eb"/>
  <circle cx="838.16" cy="299.89" r="2.5" fill="#2563eb"/>
  <circle cx="840.00" cy="299.89" r="2.5" fill="#2563eb"/>
  <circle cx="841.84" cy="299.89" r="2.5" fill="#2563eb"/>
  <circle cx="843.68" cy="299.85" r="2.5" fill="#2563eb"/>
  <circle cx="845.53" cy="299.85" r="2.5" fill="#2563eb"/>
  <circle cx="847.37" cy="299.89" r="2.5" fill="#2563eb"/>
  <circle cx="849.21" cy="299.81" r="2.5" fill="#2563eb"/>
  <circle cx="851.05" cy="299.81" r="2.5" fill="#2563eb"/>
  <circle cx="852.89" cy="299.81" r="2.5" fill="#2563eb"/>
  <circle cx="854.74" cy="299.76" r="2.5" fill="#2563eb"/>
  <circle cx="856.58" cy="299.76" r="2.5" fill="#2563eb"/>
  <circle cx="858.42" cy="299.76" r="2.5" fill="#2563eb"/>
  <circle cx="860.26" cy="299.72" r="2.5" fill="#2563eb"/>
  <circle cx="862.11" cy="299.68" r="2.5" fill="#2563eb"/>
  <circle cx="863.95" cy="299.60" r="2.5" fill="#2563eb"/>
  <circle cx="865.79" cy="299.60" r="2.5" fill="#2563eb"/>
  <circle cx="867.63" cy="299.60" r="2.5" fill="#2563eb"/>
  <circle cx="869.47" cy="299.56" r="2.5" fill="#2563eb"/>
  <circle cx="871.32" cy="299.47" r="2.5" fill="#2563eb"/>
  <circle cx="873.16" cy="299.43" r="2.5" fill="#2563eb"/>
  <circle cx="875.00" cy="299.43" r="2.5" fill="#2563eb"/>
  <circle cx="876.84" cy="299.39" r="2.5" fill="#2563eb"/>
  <circle cx="878.68" cy="299.47" r="2.5" fill="#2563eb"/>
  <circle cx="880.53" cy="259.82" r="2.5" fill="#2563eb"/>
  <circle cx="882.37" cy="338.96" r="2.5" fill="#2563eb"/>
  <circle cx="884.21" cy="299.31" r="2.5" fill="#2563eb"/>
  <circle cx="886.05" cy="299.31" r="2.5" fill="#2563eb"/>
  <circle cx="887.89" cy="299.26" r="2.5" fill="#2563eb"/>
  <circle cx="889.74" cy="299.68" r="2.5" fill="#2563eb"/>
  <circle cx="891.58" cy="299.68" r="2.5" fill="#2563eb"/>
  <circle cx="893.42" cy="299.68" r="2.5" fill="#2563eb"/>
  <circle cx="895.26" cy="299.64" r="2.5" fill="#2563eb"/>
  <circle cx="897.11" cy="299.14" r="2.5" fill="#2563eb"/>
  <circle cx="898.95" cy="299.14" r="2.5" fill="#2563eb"/>
  <circle cx="900.79" cy="299.10" r="2.5" fill="#2563eb"/>
  <circle cx="902.63" cy="299.10" r="2.5" fill="#2563eb"/>
  <circle cx="904.47" cy="299.10" r="2.5" fill="#2563eb"/>
  <circle cx="906.32" cy="248.07" r="2.5" fill="#2563eb"/>
  <circle cx="908.16" cy="299.06" r="2.5" fill="#2563eb"/>
  <circle cx="910.00" cy="299.06" r="2.5" fill="#2563eb"/>
  <circle cx="911.84" cy="299.06" r="2.5" fill="#2563eb"/>
  <circle cx="913.68" cy="299.06" r="2.5" fill="#2563eb"/>
  <circle cx="915.53" cy="299.06" r="2.5" fill="#2563eb"/>
  <circle cx="917.37" cy="298.97" r="2.5" fill="#2563eb"/>
  <circle cx="919.21" cy="298.97" r="2.5" fill="#2563eb"/>
  <circle cx="921.05" cy="298.93" r="2.5" fill="#2563eb"/>
  <circle cx="922.89" cy="298.97" r="2.5" fill="#2563eb"/>
  <circle cx="924.74" cy="298.93" r="2.5" fill="#2563eb"/>
  <circle cx="926.58" cy="298.89" r="2.5" fill="#2563eb"/>
  <circle cx="928.42" cy="298.89" r="2.5" fill="#2563eb"/>
  <circle cx="930.26" cy="298.89" r="2.5" fill="#2563eb"/>
  <circle cx="932.11" cy="298.89" r="2.5" fill="#2563eb"/>
  <circle cx="933.95" cy="247.78" r="2.5" fill="#2563eb"/>
  <circle cx="935.79" cy="298.89" r="2.5" fill="#2563eb"/>
  <circle cx="937.63" cy="298.89" r="2.5" fill="#2563eb"/>
  <circle cx="939.47" cy="298.85" r="2.5" fill="#2563eb"/>
  <circle cx="941.32" cy="298.85" r="2.5" fill="#2563eb"/>
  <circle cx="943.16" cy="298.81" r="2.5" fill="#2563eb"/>
  <circle cx="945.00" cy="298.81" r="2.5" fill="#2563eb"/>
  <circle cx="946.84" cy="298.81" r="2.5" fill="#2563eb"/>
  <circle cx="948.68" cy="298.81" r="2.5" fill="#2563eb"/>
  <circle cx="950.53" cy="298.81" r="2.5" fill="#2563eb"/>
  <circle cx="952.37" cy="298.81" r="2.5" fill="#2563eb"/>
  <circle cx="954.21" cy="298.81" r="2.5" fill="#2563eb"/>
  <circle cx="956.05" cy="298.81" r="2.5" fill="#2563eb"/>
  <circle cx="957.89" cy="298.81" r="2.5" fill="#2563eb"/>
  <circle cx="959.74" cy="298.72" r="2.5" fill="#2563eb"/>
  <circle cx="961.58" cy="247.45" r="2.5" fill="#2563eb"/>
  <circle cx="963.42" cy="247.45" r="2.5" fill="#2563eb"/>
  <circle cx="965.26" cy="298.72" r="2.5" fill="#2563eb"/>
  <circle cx="967.11" cy="298.72" r="2.5" fill="#2563eb"/>
  <circle cx="968.95" cy="298.72" r="2.5" fill="#2563eb"/>
  <circle cx="970.79" cy="298.72" r="2.5" fill="#2563eb"/>
  <circle cx="972.63" cy="298.72" r="2.5" fill="#2563eb"/>
  <circle cx="974.47" cy="298.72" r="2.5" fill="#2563eb"/>
  <circle cx="976.32" cy="247.36" r="2.5" fill="#2563eb"/>
  <circle cx="978.16" cy="298.68" r="2.5" fill="#2563eb"/>
  <circle cx="980.00" cy="247.36" r="2.5" fill="#2563eb"/>
</svg>
