<?xml version="1.0" encoding="UTF-8"?>
<svg xmlns="http://www.w3.org/2000/svg" width="1000" height="420" viewBox="0 0 1000 420">
  <rect width="100%" height="100%" fill="#ffffff"/>
  <text x="70" y="28" font-size="20" font-weight="600">수집 시점 기준 - 시간별 스냅샷</text>
  <text x="70" y="402" font-size="12" fill="#555">스냅샷 수</text>
  <line x1="70" y1="350.00" x2="980" y2="350.00" stroke="#e5e7eb" stroke-width="1"/>
  <text x="62" y="354.00" font-size="11" fill="#6b7280" text-anchor="end">0</text>
  <line x1="70" y1="290.00" x2="980" y2="290.00" stroke="#e5e7eb" stroke-width="1"/>
  <text x="62" y="294.00" font-size="11" fill="#6b7280" text-anchor="end">1,440</text>
  <line x1="70" y1="230.00" x2="980" y2="230.00" stroke="#e5e7eb" stroke-width="1"/>
  <text x="62" y="234.00" font-size="11" fill="#6b7280" text-anchor="end">2,880</text>
  <line x1="70" y1="170.00" x2="980" y2="170.00" stroke="#e5e7eb" stroke-width="1"/>
  <text x="62" y="174.00" font-size="11" fill="#6b7280" text-anchor="end">4,321</text>
  <line x1="70" y1="110.00" x2="980" y2="110.00" stroke="#e5e7eb" stroke-width="1"/>
  <text x="62" y="114.00" font-size="11" fill="#6b7280" text-anchor="end">5,761</text>
  <line x1="70" y1="50.00" x2="980" y2="50.00" stroke="#e5e7eb" stroke-width="1"/>
  <text x="62" y="54.00" font-size="11" fill="#6b7280" text-anchor="end">7,202</text>
  <line x1="70" y1="350" x2="980" y2="350" stroke="#111827" stroke-width="1.2"/>
  <line x1="70" y1="50" x2="70" y2="350" stroke="#111827" stroke-width="1.2"/>
  <line x1="70.00" y1="350" x2="70.00" y2="356" stroke="#9ca3af" stroke-width="1"/>
  <text x="70.00" y="372" font-size="10" fill="#6b7280" text-anchor="middle">2026-02-28 18</text>
  <line x1="144.82" y1="350" x2="144.82" y2="356" stroke="#9ca3af" stroke-width="1"/>
  <text x="144.82" y="372" font-size="10" fill="#6b7280" text-anchor="middle">2026-03-09 04</text>
  <line x1="219.63" y1="350" x2="219.63" y2="356" stroke="#9ca3af" stroke-width="1"/>
  <text x="219.63" y="372" font-size="10" fill="#6b7280" text-anchor="middle">2026-03-11 10</text>
  <line x1="294.45" y1="350" x2="294.45" y2="356" stroke="#9ca3af" stroke-width="1"/>
  <text x="294.45" y="372" font-size="10" fill="#6b7280" text-anchor="middle">2026-03-13 16</text>
  <line x1="369.26" y1="350" x2="369.26" y2="356" stroke="#9ca3af" stroke-width="1"/>
  <text x="369.26" y="372" font-size="10" fill="#6b7280" text-anchor="middle">2026-03-16 07</text>
  <line x1="444.08" y1="350" x2="444.08" y2="356" stroke="#9ca3af" stroke-width="1"/>
  <text x="444.08" y="372" font-size="10" fill="#6b7280" text-anchor="middle">2026-03-19 18</text>
  <line x1="518.89" y1="350" x2="518.89" y2="356" stroke="#9ca3af" stroke-width="1"/>
  <text x="518.89" y="372" font-size="10" fill="#6b7280" text-anchor="middle">2026-03-22 14</text>
  <line x1="593.71" y1="350" x2="593.71" y2="356" stroke="#9ca3af" stroke-width="1"/>
  <text x="593.71" y="372" font-size="10" fill="#6b7280" text-anchor="middle">2026-03-25 18</text>
  <line x1="668.52" y1="350" x2="668.52" y2="356" stroke="#9ca3af" stroke-width="1"/>
  <text x="668.52" y="372" font-size="10" fill="#6b7280" text-anchor="middle">2026-03-29 00</text>
  <line x1="743.34" y1="350" x2="743.34" y2="356" stroke="#9ca3af" stroke-width="1"/>
  <text x="743.34" y="372" font-size="10" fill="#6b7280" text-anchor="middle">2026-04-01 09</text>
  <line x1="818.15" y1="350" x2="818.15" y2="356" stroke="#9ca3af" stroke-width="1"/>
  <text x="818.15" y="372" font-size="10" fill="#6b7280" text-anchor="middle">2026-04-04 18</text>
  <line x1="892.97" y1="350" x2="892.97" y2="356" stroke="#9ca3af" stroke-width="1"/>
  <text x="892.97" y="372" font-size="10" fill="#6b7280" text-anchor="middle">2026-04-08 03</text>
  <line x1="967.79" y1="350" x2="967.79" y2="356" stroke="#9ca3af" stroke-width="1"/>
  <text x="967.79" y="372" font-size="10" fill="#6b7280" text-anchor="middle">2026-04-11 12</text>
  <line x1="980.00" y1="350" x2="980.00" y2="356" stroke="#9ca3af" stroke-width="1"/>
  <text x="980.00" y="372" font-size="10" fill="#6b7280" text-anchor="middle">2026-04-12 00</text>
  <polyline fill="none" stroke="#2563eb" stroke-width="2.5" points="70.00,50.00 71.53,50.12 73.05,50.17 74.58,50.46 76.11,50.00 77.63,266.90 79.16,50.12 80.69,50.08 82.21,177.46 83.74,211.58 85.27,175.34 86.80,304.14 88.32,200.46 89.85,250.94 91.38,300.01 92.90,300.06 94.43,300.01 95.96,300.01 97.48,348.00 99.01,300.01 100.54,249.99 102.06,200.00 103.59,249.99 105.12,249.99 106.64,250.03 108.17,250.03 109.70,250.03 111.22,250.40 112.75,250.90 114.28,250.90 115.81,251.32 117.33,249.94 118.86,300.01 120.39,299.93 121.91,251.03 123.44,300.68 124.97,250.03 126.49,200.00 128.02,249.99 129.55,250.03 131.07,250.03 132.60,250.03 134.13,300.01 135.65,200.04 137.18,250.03 138.71,250.03 140.23,250.03 141.76,249.90 143.29,250.03 144.82,250.03 146.34,250.94 147.87,250.44 149.40,250.03 150.92,250.03 152.45,300.47 153.98,300.01 155.50,300.43 157.03,250.03 158.56,249.99 160.08,300.43 161.61,249.90 163.14,249.99 164.66,249.99 166.19,200.04 167.72,300.01 169.24,300.01 170.77,300.01 172.30,249.90 173.83,300.01 175.35,250.03 176.88,249.99 178.41,199.96 179.93,300.01 181.46,200.00 182.99,250.36 184.51,250.03 186.04,300.01 187.57,300.01 189.09,250.44 190.62,300.01 192.15,250.03 193.67,250.03 195.20,249.99 196.73,250.49 198.26,250.03 199.78,200.04 201.31,300.01 202.84,250.03 204.36,300.01 205.89,250.11 207.42,300.01 208.94,250.03 210.47,250.03 212.00,199.92 213.52,250.03 215.05,250.03 216.58,250.03 218.10,254.36 219.63,300.01 221.16,299.97 222.68,250.36 224.21,299.97 225.74,250.03 227.27,250.03 228.79,250.03 230.32,250.03 231.85,249.99 233.37,200.00 234.90,299.93 236.43,300.01 237.95,299.97 239.48,249.94 241.01,249.99 242.53,249.82 244.06,249.94 245.59,250.28 247.11,207.00 248.64,250.03 250.17,250.32 251.69,250.40 253.22,300.93 254.75,300.01 256.28,300.10 257.80,249.94 259.33,249.99 260.86,250.07 262.38,249.99 263.91,250.03 265.44,249.94 266.96,200.00 268.49,300.39 270.02,300.01 271.54,300.01 273.07,250.44 274.60,300.39 276.12,249.86 277.65,250.11 279.18,201.46 280.70,300.01 282.23,200.83 283.76,250.03 285.29,249.99 286.81,300.26 288.34,300.01 289.87,300.01 291.39,250.03 292.92,250.03 294.45,250.03 295.97,250.03 297.50,249.99 299.03,250.03 300.55,200.00 302.08,300.26 303.61,249.99 305.13,300.01 306.66,249.94 308.19,250.03 309.71,250.03 311.24,250.03 312.77,200.04 314.30,300.01 315.82,249.90 317.35,300.01 318.88,300.01 320.40,300.06 321.93,300.01 323.46,300.01 324.98,243.95 326.51,249.94 328.04,299.97 329.56,300.01 331.09,300.01 332.62,250.03 334.14,300.01 335.67,300.01 337.20,299.97 338.72,249.99 340.25,300.01 341.78,299.93 343.31,300.01 344.83,299.93 346.36,300.01 347.89,300.01 349.41,299.89 350.94,299.97 352.47,250.03 353.99,299.93 355.52,299.89 357.05,299.97 358.57,249.94 360.10,300.01 361.63,300.01 363.15,299.97 364.68,249.99 366.21,299.97 367.73,299.97 369.26,300.06 370.79,300.06 372.32,299.93 373.84,300.01 375.37,300.01 376.90,299.93 378.42,300.01 379.95,300.01 381.48,299.97 383.00,300.01 384.53,300.01 386.06,300.01 387.58,300.01 389.11,249.86 390.64,300.01 392.16,300.10 393.69,299.93 395.22,300.01 396.74,299.93 398.27,300.01 399.80,300.01 401.33,300.01 402.85,300.01 404.38,300.01 405.91,299.97 407.43,300.01 408.96,300.01 410.49,300.01 412.01,300.01 413.54,250.03 415.07,300.01 416.59,300.01 418.12,299.97 419.65,300.01 421.17,300.01 422.70,299.97 424.23,299.97 425.76,300.01 427.28,299.97 428.81,300.01 430.34,299.93 431.86,300.01 433.39,250.03 434.92,300.01 436.44,300.01 437.97,300.01 439.50,300.01 441.02,300.01 442.55,299.89 444.08,300.01 445.60,300.01 447.13,250.07 448.66,300.01 450.18,299.93 451.71,300.01 453.24,299.97 454.77,299.97 456.29,299.97 457.82,250.03 459.35,300.01 460.87,300.01 462.40,300.01 463.93,300.01 465.45,299.97 466.98,300.01 468.51,299.97 470.03,300.01 471.56,299.97 473.09,249.90 474.61,300.01 476.14,300.01 477.67,299.89 479.19,299.97 480.72,299.97 482.25,249.99 483.78,299.97 485.30,299.89 486.83,300.01 488.36,299.97 489.88,299.97 491.41,300.01 492.94,299.97 494.46,249.99 495.99,299.97 497.52,299.97 499.04,300.06 500.57,300.06 502.10,249.94 503.62,300.01 505.15,299.93 506.68,300.01 508.20,300.01 509.73,249.99 511.26,300.01 512.79,300.01 514.31,300.01 515.84,299.93 517.37,299.93 518.89,300.01 520.42,300.01 521.95,249.94 523.47,299.97 525.00,299.97 526.53,300.01 528.05,300.01 529.58,300.01 531.11,249.99 532.63,300.01 534.16,300.01 535.69,300.01 537.21,250.03 538.74,300.01 540.27,300.01 541.80,300.01 543.32,299.97 544.85,300.01 546.38,300.01 547.90,299.97 549.43,299.97 550.96,300.01 552.48,300.01 554.01,299.97 555.54,299.93 557.06,300.01 558.59,300.06 560.12,299.97 561.64,300.01 563.17,250.03 564.70,250.03 566.22,299.93 567.75,299.97 569.28,300.01 570.81,300.01 572.33,300.06 573.86,300.01 575.39,299.93 576.91,300.01 578.44,300.01 579.97,299.97 581.49,299.97 583.02,300.01 584.55,250.03 586.07,300.01 587.60,300.01 589.13,300.01 590.65,299.97 592.18,300.01 593.71,299.97 595.23,300.01 596.76,299.97 598.29,299.97 599.82,299.93 601.34,300.01 602.87,300.01 604.40,299.89 605.92,299.97 607.45,299.97 608.98,300.06 610.50,249.90 612.03,299.89 613.56,300.01 615.08,299.97 616.61,299.97 618.14,299.97 619.66,300.01 621.19,300.01 622.72,299.97 624.24,299.97 625.77,299.97 627.30,250.03 628.83,299.93 630.35,300.01 631.88,300.01 633.41,299.93 634.93,300.01 636.46,300.01 637.99,299.97 639.51,300.01 641.04,300.01 642.57,300.06 644.09,300.01 645.62,299.97 647.15,299.89 648.67,300.01 650.20,300.01 651.73,249.94 653.26,249.94 654.78,300.01 656.31,300.01 657.84,300.01 659.36,300.01 660.89,299.97 662.42,250.03 663.94,300.01 665.47,300.01 667.00,300.01 668.52,300.01 670.05,250.03 671.58,249.99 673.10,300.01 674.63,299.97 676.16,300.01 677.68,299.97 679.21,300.01 680.74,299.97 682.27,299.97 683.79,299.97 685.32,300.06 686.85,249.99 688.37,300.01 689.90,250.03 691.43,249.94 692.95,249.99 694.48,300.01 696.01,300.06 697.53,300.01 699.06,299.97 700.59,299.97 702.11,300.01 703.64,299.93 705.17,299.89 706.69,299.89 708.22,299.89 709.75,299.89 711.28,299.85 712.80,299.85 714.33,299.89 715.86,299.81 717.38,299.81 718.91,299.81 720.44,299.76 721.96,299.76 723.49,299.76 725.02,299.72 726.54,299.68 728.07,299.60 729.60,299.60 731.12,299.60 732.65,299.56 734.18,299.47 735.70,299.43 737.23,299.43 738.76,299.39 740.29,299.47 741.81,259.82 743.34,338.96 744.87,299.31 746.39,299.31 747.92,299.26 749.45,299.68 750.97,299.68 752.50,299.68 754.03,299.64 755.55,299.14 757.08,299.14 758.61,299.10 760.13,299.10 761.66,299.10 763.19,248.07 764.71,299.06 766.24,299.06 767.77,299.06 769.30,299.06 770.82,299.06 772.35,298.97 773.88,298.97 775.40,298.93 776.93,298.97 778.46,298.93 779.98,298.89 781.51,298.89 783.04,298.89 784.56,298.89 786.09,247.78 787.62,298.89 789.14,298.89 790.67,298.85 792.20,298.85 793.72,298.81 795.25,298.81 796.78,298.81 798.31,298.81 799.83,298.81 801.36,298.81 802.89,298.81 804.41,298.81 805.94,298.81 807.47,298.72 808.99,247.45 810.52,247.45 812.05,298.72 813.57,298.72 815.10,298.72 816.63,298.72 818.15,298.72 819.68,298.72 821.21,247.36 822.73,298.68 824.26,247.36 825.79,247.36 827.32,247.36 828.84,298.68 830.37,298.68 831.90,298.68 833.42,298.68 834.95,298.68 836.48,341.67 838.00,307.01 839.53,298.68 841.06,298.68 842.58,298.68 844.11,247.36 845.64,298.64 847.16,247.36 848.69,247.28 850.22,247.20 851.74,298.60 853.27,298.60 854.80,247.03 856.33,298.51 857.85,298.51 859.38,298.51 860.91,298.51 862.43,298.51 863.96,298.51 865.49,298.51 867.01,298.51 868.54,298.51 870.07,298.51 871.59,298.51 873.12,298.51 874.65,298.51 876.17,298.51 877.70,298.51 879.23,298.51 880.76,298.51 882.28,298.51 883.81,298.51 885.34,298.51 886.86,298.51 888.39,298.51 889.92,298.51 891.44,298.51 892.97,298.51 894.50,298.51 896.02,298.47 897.55,298.51 899.08,298.51 900.60,298.47 902.13,298.51 903.66,298.47 905.18,298.51 906.71,298.43 908.24,298.56 909.77,298.43 911.29,298.43 912.82,298.43 914.35,298.43 915.87,298.43 917.40,298.43 918.93,298.43 920.45,298.43 921.98,298.43 923.51,298.43 925.03,298.43 926.56,298.43 928.09,298.43 929.61,298.43 931.14,298.43 932.67,298.43 934.19,298.43 935.72,298.43 937.25,298.43 938.78,298.43 940.30,298.43 941.83,298.43 943.36,298.43 944.88,298.43 946.41,298.43 947.94,298.43 949.46,298.43 950.99,298.43 952.52,298.43 954.04,298.43 955.57,298.43 957.10,298.43 958.62,298.43 960.15,298.43 961.68,298.39 963.20,298.39 964.73,298.43 966.26,298.43 967.79,298.39 969.31,298.39 970.84,298.39 972.37,298.43 973.89,298.43 975.42,298.43 976.95,246.82 978.47,298.43 980.00,298.39"/>
  <circle cx="70.00" cy="50.00" r="2.5" fill="#2563eb"/>
  <circle cx="71.53" cy="50.12" r="2.5" fill="#2563eb"/>
  <circle cx="73.05" cy="50.17" r="2.5" fill="#2563eb"/>
  <circle cx="74.58" cy="50.46" r="2.5" fill="#2563eb"/>
  <circle cx="76.11" cy="50.00" r="2.5" fill="#2563eb"/>
  <circle cx="77.63" cy="266.90" r="2.5" fill="#2563eb"/>
  <circle cx="79.16" cy="50.12" r="2.5" fill="#2563eb"/>
  <circle cx="80.69" cy="50.08" r="2.5" fill="#2563eb"/>
  <circle cx="82.21" cy="177.46" r="2.5" fill="#2563eb"/>
  <circle cx="83.74" cy="211.58" r="2.5" fill="#2563eb"/>
  <circle cx="85.27" cy="175.34" r="2.5" fill="#2563eb"/>
  <circle cx="86.80" cy="304.14" r="2.5" fill="#2563eb"/>
  <circle cx="88.32" cy="200.46" r="2.5" fill="#2563eb"/>
  <circle cx="89.85" cy="250.94" r="2.5" fill="#2563eb"/>
  <circle cx="91.38" cy="300.01" r="2.5" fill="#2563eb"/>
  <circle cx="92.90" cy="300.06" r="2.5" fill="#2563eb"/>
  <circle cx="94.43" cy="300.01" r="2.5" fill="#2563eb"/>
  <circle cx="95.96" cy="300.01" r="2.5" fill="#2563eb"/>
  <circle cx="97.48" cy="348.00" r="2.5" fill="#2563eb"/>
  <circle cx="99.01" cy="300.01" r="2.5" fill="#2563eb"/>
  <circle cx="100.54" cy="249.99" r="2.5" fill="#2563eb"/>
  <circle cx="102.06" cy="200.00" r="2.5" fill="#2563eb"/>
  <circle cx="103.59" cy="249.99" r="2.5" fill="#2563eb"/>
  <circle cx="105.12" cy="249.99" r="2.5" fill="#2563eb"/>
  <circle cx="106.64" cy="250.03" r="2.5" fill="#2563eb"/>
  <circle cx="108.17" cy="250.03" r="2.5" fill="#2563eb"/>
  <circle cx="109.70" cy="250.03" r="2.5" fill="#2563eb"/>
  <circle cx="111.22" cy="250.40" r="2.5" fill="#2563eb"/>
  <circle cx="112.75" cy="250.90" r="2.5" fill="#2563eb"/>
  <circle cx="114.28" cy="250.90" r="2.5" fill="#2563eb"/>
  <circle cx="115.81" cy="251.32" r="2.5" fill="#2563eb"/>
  <circle cx="117.33" cy="249.94" r="2.5" fill="#2563eb"/>
  <circle cx="118.86" cy="300.01" r="2.5" fill="#2563eb"/>
  <circle cx="120.39" cy="299.93" r="2.5" fill="#2563eb"/>
  <circle cx="121.91" cy="251.03" r="2.5" fill="#2563eb"/>
  <circle cx="123.44" cy="300.68" r="2.5" fill="#2563eb"/>
  <circle cx="124.97" cy="250.03" r="2.5" fill="#2563eb"/>
  <circle cx="126.49" cy="200.00" r="2.5" fill="#2563eb"/>
  <circle cx="128.02" cy="249.99" r="2.5" fill="#2563eb"/>
  <circle cx="129.55" cy="250.03" r="2.5" fill="#2563eb"/>
  <circle cx="131.07" cy="250.03" r="2.5" fill="#2563eb"/>
  <circle cx="132.60" cy="250.03" r="2.5" fill="#2563eb"/>
  <circle cx="134.13" cy="300.01" r="2.5" fill="#2563eb"/>
  <circle cx="135.65" cy="200.04" r="2.5" fill="#2563eb"/>
  <circle cx="137.18" cy="250.03" r="2.5" fill="#2563eb"/>
  <circle cx="138.71" cy="250.03" r="2.5" fill="#2563eb"/>
  <circle cx="140.23" cy="250.03" r="2.5" fill="#2563eb"/>
  <circle cx="141.76" cy="249.90" r="2.5" fill="#2563eb"/>
  <circle cx="143.29" cy="250.03" r="2.5" fill="#2563eb"/>
  <circle cx="144.82" cy="250.03" r="2.5" fill="#2563eb"/>
  <circle cx="146.34" cy="250.94" r="2.5" fill="#2563eb"/>
  <circle cx="147.87" cy="250.44" r="2.5" fill="#2563eb"/>
  <circle cx="149.40" cy="250.03" r="2.5" fill="#2563eb"/>
  <circle cx="150.92" cy="250.03" r="2.5" fill="#2563eb"/>
  <circle cx="152.45" cy="300.47" r="2.5" fill="#2563eb"/>
  <circle cx="153.98" cy="300.01" r="2.5" fill="#2563eb"/>
  <circle cx="155.50" cy="300.43" r="2.5" fill="#2563eb"/>
  <circle cx="157.03" cy="250.03" r="2.5" fill="#2563eb"/>
  <circle cx="158.56" cy="249.99" r="2.5" fill="#2563eb"/>
  <circle cx="160.08" cy="300.43" r="2.5" fill="#2563eb"/>
  <circle cx="161.61" cy="249.90" r="2.5" fill="#2563eb"/>
  <circle cx="163.14" cy="249.99" r="2.5" fill="#2563eb"/>
  <circle cx="164.66" cy="249.99" r="2.5" fill="#2563eb"/>
  <circle cx="166.19" cy="200.04" r="2.5" fill="#2563eb"/>
  <circle cx="167.72" cy="300.01" r="2.5" fill="#2563eb"/>
  <circle cx="169.24" cy="300.01" r="2.5" fill="#2563eb"/>
  <circle cx="170.77" cy="300.01" r="2.5" fill="#2563eb"/>
  <circle cx="172.30" cy="249.90" r="2.5" fill="#2563eb"/>
  <circle cx="173.83" cy="300.01" r="2.5" fill="#2563eb"/>
  <circle cx="175.35" cy="250.03" r="2.5" fill="#2563eb"/>
  <circle cx="176.88" cy="249.99" r="2.5" fill="#2563eb"/>
  <circle cx="178.41" cy="199.96" r="2.5" fill="#2563eb"/>
  <circle cx="179.93" cy="300.01" r="2.5" fill="#2563eb"/>
  <circle cx="181.46" cy="200.00" r="2.5" fill="#2563eb"/>
  <circle cx="182.99" cy="250.36" r="2.5" fill="#2563eb"/>
  <circle cx="184.51" cy="250.03" r="2.5" fill="#2563eb"/>
  <circle cx="186.04" cy="300.01" r="2.5" fill="#2563eb"/>
  <circle cx="187.57" cy="300.01" r="2.5" fill="#2563eb"/>
  <circle cx="189.09" cy="250.44" r="2.5" fill="#2563eb"/>
  <circle cx="190.62" cy="300.01" r="2.5" fill="#2563eb"/>
  <circle cx="192.15" cy="250.03" r="2.5" fill="#2563eb"/>
  <circle cx="193.67" cy="250.03" r="2.5" fill="#2563eb"/>
  <circle cx="195.20" cy="249.99" r="2.5" fill="#2563eb"/>
  <circle cx="196.73" cy="250.49" r="2.5" fill="#2563eb"/>
  <circle cx="198.26" cy="250.03" r="2.5" fill="#2563eb"/>
  <circle cx="199.78" cy="200.04" r="2.5" fill="#2563eb"/>
  <circle cx="201.31" cy="300.01" r="2.5" fill="#2563eb"/>
  <circle cx="202.84" cy="250.03" r="2.5" fill="#2563eb"/>
  <circle cx="204.36" cy="300.01" r="2.5" fill="#2563eb"/>
  <circle cx="205.89" cy="250.11" r="2.5" fill="#2563eb"/>
  <circle cx="207.42" cy="300.01" r="2.5" fill="#2563eb"/>
  <circle cx="208.94" cy="250.03" r="2.5" fill="#2563eb"/>
  <circle cx="210.47" cy="250.03" r="2.5" fill="#2563eb"/>
  <circle cx="212.00" cy="199.92" r="2.5" fill="#2563eb"/>
  <circle cx="213.52" cy="250.03" r="2.5" fill="#2563eb"/>
  <circle cx="215.05" cy="250.03" r="2.5" fill="#2563eb"/>
  <circle cx="216.58" cy="250.03" r="2.5" fill="#2563eb"/>
  <circle cx="218.10" cy="254.36" r="2.5" fill="#2563eb"/>
  <circle cx="219.63" cy="300.01" r="2.5" fill="#2563eb"/>
  <circle cx="221.16" cy="299.97" r="2.5" fill="#2563eb"/>
  <circle cx="222.68" cy="250.36" r="2.5" fill="#2563eb"/>
  <circle cx="224.21" cy="299.97" r="2.5" fill="#2563eb"/>
  <circle cx="225.74" cy="250.03" r="2.5" fill="#2563eb"/>
  <circle cx="227.27" cy="250.03" r="2.5" fill="#2563eb"/>
  <circle cx="228.79" cy="250.03" r="2.5" fill="#2563eb"/>
  <circle cx="230.32" cy="250.03" r="2.5" fill="#2563eb"/>
  <circle cx="231.85" cy="249.99" r="2.5" fill="#2563eb"/>
  <circle cx="233.37" cy="200.00" r="2.5" fill="#2563eb"/>
  <circle cx="234.90" cy="299.93" r="2.5" fill="#2563eb"/>
  <circle cx="236.43" cy="300.01" r="2.5" fill="#2563eb"/>
  <circle cx="237.95" cy="299.97" r="2.5" fill="#2563eb"/>
  <circle cx="239.48" cy="249.94" r="2.5" fill="#2563eb"/>
  <circle cx="241.01" cy="249.99" r="2.5" fill="#2563eb"/>
  <circle cx="242.53" cy="249.82" r="2.5" fill="#2563eb"/>
  <circle cx="244.06" cy="249.94" r="2.5" fill="#2563eb"/>
  <circle cx="245.59" cy="250.28" r="2.5" fill="#2563eb"/>
  <circle cx="247.11" cy="207.00" r="2.5" fill="#2563eb"/>
  <circle cx="248.64" cy="250.03" r="2.5" fill="#2563eb"/>
  <circle cx="250.17" cy="250.32" r="2.5" fill="#2563eb"/>
  <circle cx="251.69" cy="250.40" r="2.5" fill="#2563eb"/>
  <circle cx="253.22" cy="300.93" r="2.5" fill="#2563eb"/>
  <circle cx="254.75" cy="300.01" r="2.5" fill="#2563eb"/>
  <circle cx="256.28" cy="300.10" r="2.5" fill="#2563eb"/>
  <circle cx="257.80" cy="249.94" r="2.5" fill="#2563eb"/>
  <circle cx="259.33" cy="249.99" r="2.5" fill="#2563eb"/>
  <circle cx="260.86" cy="250.07" r="2.5" fill="#2563eb"/>
  <circle cx="262.38" cy="249.99" r="2.5" fill="#2563eb"/>
  <circle cx="263.91" cy="250.03" r="2.5" fill="#2563eb"/>
  <circle cx="265.44" cy="249.94" r="2.5" fill="#2563eb"/>
  <circle cx="266.96" cy="200.00" r="2.5" fill="#2563eb"/>
  <circle cx="268.49" cy="300.39" r="2.5" fill="#2563eb"/>
  <circle cx="270.02" cy="300.01" r="2.5" fill="#2563eb"/>
  <circle cx="271.54" cy="300.01" r="2.5" fill="#2563eb"/>
  <circle cx="273.07" cy="250.44" r="2.5" fill="#2563eb"/>
  <circle cx="274.60" cy="300.39" r="2.5" fill="#2563eb"/>
  <circle cx="276.12" cy="249.86" r="2.5" fill="#2563eb"/>
  <circle cx="277.65" cy="250.11" r="2.5" fill="#2563eb"/>
  <circle cx="279.18" cy="201.46" r="2.5" fill="#2563eb"/>
  <circle cx="280.70" cy="300.01" r="2.5" fill="#2563eb"/>
  <circle cx="282.23" cy="200.83" r="2.5" fill="#2563eb"/>
  <circle cx="283.76" cy="250.03" r="2.5" fill="#2563eb"/>
  <circle cx="285.29" cy="249.99" r="2.5" fill="#2563eb"/>
  <circle cx="286.81" cy="300.26" r="2.5" fill="#2563eb"/>
  <circle cx="288.34" cy="300.01" r="2.5" fill="#2563eb"/>
  <circle cx="289.87" cy="300.01" r="2.5" fill="#2563eb"/>
  <circle cx="291.39" cy="250.03" r="2.5" fill="#2563eb"/>
  <circle cx="292.92" cy="250.03" r="2.5" fill="#2563eb"/>
  <circle cx="294.45" cy="250.03" r="2.5" fill="#2563eb"/>
  <circle cx="295.97" cy="250.03" r="2.5" fill="#2563eb"/>
  <circle cx="297.50" cy="249.99" r="2.5" fill="#2563eb"/>
  <circle cx="299.03" cy="250.03" r="2.5" fill="#2563eb"/>
  <circle cx="300.55" cy="200.00" r="2.5" fill="#2563eb"/>
  <circle cx="302.08" cy="300.26" r="2.5" fill="#2563eb"/>
  <circle cx="303.61" cy="249.99" r="2.5" fill="#2563eb"/>
  <circle cx="305.13" cy="300.01" r="2.5" fill="#2563eb"/>
  <circle cx="306.66" cy="249.94" r="2.5" fill="#2563eb"/>
  <circle cx="308.19" cy="250.03" r="2.5" fill="#2563eb"/>
  <circle cx="309.71" cy="250.03" r="2.5" fill="#2563eb"/>
  <circle cx="311.24" cy="250.03" r="2.5" fill="#2563eb"/>
  <circle cx="312.77" cy="200.04" r="2.5" fill="#2563eb"/>
  <circle cx="314.30" cy="300.01" r="2.5" fill="#2563eb"/>
  <circle cx="315.82" cy="249.90" r="2.5" fill="#2563eb"/>
  <circle cx="317.35" cy="300.01" r="2.5" fill="#2563eb"/>
  <circle cx="318.88" cy="300.01" r="2.5" fill="#2563eb"/>
  <circle cx="320.40" cy="300.06" r="2.5" fill="#2563eb"/>
  <circle cx="321.93" cy="300.01" r="2.5" fill="#2563eb"/>
  <circle cx="323.46" cy="300.01" r="2.5" fill="#2563eb"/>
  <circle cx="324.98" cy="243.95" r="2.5" fill="#2563eb"/>
  <circle cx="326.51" cy="249.94" r="2.5" fill="#2563eb"/>
  <circle cx="328.04" cy="299.97" r="2.5" fill="#2563eb"/>
  <circle cx="329.56" cy="300.01" r="2.5" fill="#2563eb"/>
  <circle cx="331.09" cy="300.01" r="2.5" fill="#2563eb"/>
  <circle cx="332.62" cy="250.03" r="2.5" fill="#2563eb"/>
  <circle cx="334.14" cy="300.01" r="2.5" fill="#2563eb"/>
  <circle cx="335.67" cy="300.01" r="2.5" fill="#2563eb"/>
  <circle cx="337.20" cy="299.97" r="2.5" fill="#2563eb"/>
  <circle cx="338.72" cy="249.99" r="2.5" fill="#2563eb"/>
  <circle cx="340.25" cy="300.01" r="2.5" fill="#2563eb"/>
  <circle cx="341.78" cy="299.93" r="2.5" fill="#2563eb"/>
  <circle cx="343.31" cy="300.01" r="2.5" fill="#2563eb"/>
  <circle cx="344.83" cy="299.93" r="2.5" fill="#2563eb"/>
  <circle cx="346.36" cy="300.01" r="2.5" fill="#2563eb"/>
  <circle cx="347.89" cy="300.01" r="2.5" fill="#2563eb"/>
  <circle cx="349.41" cy="299.89" r="2.5" fill="#2563eb"/>
  <circle cx="350.94" cy="299.97" r="2.5" fill="#2563eb"/>
  <circle cx="352.47" cy="250.03" r="2.5" fill="#2563eb"/>
  <circle cx="353.99" cy="299.93" r="2.5" fill="#2563eb"/>
  <circle cx="355.52" cy="299.89" r="2.5" fill="#2563eb"/>
  <circle cx="357.05" cy="299.97" r="2.5" fill="#2563eb"/>
  <circle cx="358.57" cy="249.94" r="2.5" fill="#2563eb"/>
  <circle cx="360.10" cy="300.01" r="2.5" fill="#2563eb"/>
  <circle cx="361.63" cy="300.01" r="2.5" fill="#2563eb"/>
  <circle cx="363.15" cy="299.97" r="2.5" fill="#2563eb"/>
  <circle cx="364.68" cy="249.99" r="2.5" fill="#2563eb"/>
  <circle cx="366.21" cy="299.97" r="2.5" fill="#2563eb"/>
  <circle cx="367.73" cy="299.97" r="2.5" fill="#2563eb"/>
  <circle cx="369.26" cy="300.06" r="2.5" fill="#2563eb"/>
  <circle cx="370.79" cy="300.06" r="2.5" fill="#2563eb"/>
  <circle cx="372.32" cy="299.93" r="2.5" fill="#2563eb"/>
  <circle cx="373.84" cy="300.01" r="2.5" fill="#2563eb"/>
  <circle cx="375.37" cy="300.01" r="2.5" fill="#2563eb"/>
  <circle cx="376.90" cy="299.93" r="2.5" fill="#2563eb"/>
  <circle cx="378.42" cy="300.01" r="2.5" fill="#2563eb"/>
  <circle cx="379.95" cy="300.01" r="2.5" fill="#2563eb"/>
  <circle cx="381.48" cy="299.97" r="2.5" fill="#2563eb"/>
  <circle cx="383.00" cy="300.01" r="2.5" fill="#2563eb"/>
  <circle cx="384.53" cy="300.01" r="2.5" fill="#2563eb"/>
  <circle cx="386.06" cy="300.01" r="2.5" fill="#2563eb"/>
  <circle cx="387.58" cy="300.01" r="2.5" fill="#2563eb"/>
  <circle cx="389.11" cy="249.86" r="2.5" fill="#2563eb"/>
  <circle cx="390.64" cy="300.01" r="2.5" fill="#2563eb"/>
  <circle cx="392.16" cy="300.10" r="2.5" fill="#2563eb"/>
  <circle cx="393.69" cy="299.93" r="2.5" fill="#2563eb"/>
  <circle cx="395.22" cy="300.01" r="2.5" fill="#2563eb"/>
  <circle cx="396.74" cy="299.93" r="2.5" fill="#2563eb"/>
  <circle cx="398.27" cy="300.01" r="2.5" fill="#2563eb"/>
  <circle cx="399.80" cy="300.01" r="2.5" fill="#2563eb"/>
  <circle cx="401.33" cy="300.01" r="2.5" fill="#2563eb"/>
  <circle cx="402.85" cy="300.01" r="2.5" fill="#2563eb"/>
  <circle cx="404.38" cy="300.01" r="2.5" fill="#2563eb"/>
  <circle cx="405.91" cy="299.97" r="2.5" fill="#2563eb"/>
  <circle cx="407.43" cy="300.01" r="2.5" fill="#2563eb"/>
  <circle cx="408.96" cy="300.01" r="2.5" fill="#2563eb"/>
  <circle cx="410.49" cy="300.01" r="2.5" fill="#2563eb"/>
  <circle cx="412.01" cy="300.01" r="2.5" fill="#2563eb"/>
  <circle cx="413.54" cy="250.03" r="2.5" fill="#2563eb"/>
  <circle cx="415.07" cy="300.01" r="2.5" fill="#2563eb"/>
  <circle cx="416.59" cy="300.01" r="2.5" fill="#2563eb"/>
  <circle cx="418.12" cy="299.97" r="2.5" fill="#2563eb"/>
  <circle cx="419.65" cy="300.01" r="2.5" fill="#2563eb"/>
  <circle cx="421.17" cy="300.01" r="2.5" fill="#2563eb"/>
  <circle cx="422.70" cy="299.97" r="2.5" fill="#2563eb"/>
  <circle cx="424.23" cy="299.97" r="2.5" fill="#2563eb"/>
  <circle cx="425.76" cy="300.01" r="2.5" fill="#2563eb"/>
  <circle cx="427.28" cy="299.97" r="2.5" fill="#2563eb"/>
  <circle cx="428.81" cy="300.01" r="2.5" fill="#2563eb"/>
  <circle cx="430.34" cy="299.93" r="2.5" fill="#2563eb"/>
  <circle cx="431.86" cy="300.01" r="2.5" fill="#2563eb"/>
  <circle cx="433.39" cy="250.03" r="2.5" fill="#2563eb"/>
  <circle cx="434.92" cy="300.01" r="2.5" fill="#2563eb"/>
  <circle cx="436.44" cy="300.01" r="2.5" fill="#2563eb"/>
  <circle cx="437.97" cy="300.01" r="2.5" fill="#2563eb"/>
  <circle cx="439.50" cy="300.01" r="2.5" fill="#2563eb"/>
  <circle cx="441.02" cy="300.01" r="2.5" fill="#2563eb"/>
  <circle cx="442.55" cy="299.89" r="2.5" fill="#2563eb"/>
  <circle cx="444.08" cy="300.01" r="2.5" fill="#2563eb"/>
  <circle cx="445.60" cy="300.01" r="2.5" fill="#2563eb"/>
  <circle cx="447.13" cy="250.07" r="2.5" fill="#2563eb"/>
  <circle cx="448.66" cy="300.01" r="2.5" fill="#2563eb"/>
  <circle cx="450.18" cy="299.93" r="2.5" fill="#2563eb"/>
  <circle cx="451.71" cy="300.01" r="2.5" fill="#2563eb"/>
  <circle cx="453.24" cy="299.97" r="2.5" fill="#2563eb"/>
  <circle cx="454.77" cy="299.97" r="2.5" fill="#2563eb"/>
  <circle cx="456.29" cy="299.97" r="2.5" fill="#2563eb"/>
  <circle cx="457.82" cy="250.03" r="2.5" fill="#2563eb"/>
  <circle cx="459.35" cy="300.01" r="2.5" fill="#2563eb"/>
  <circle cx="460.87" cy="300.01" r="2.5" fill="#2563eb"/>
  <circle cx="462.40" cy="300.01" r="2.5" fill="#2563eb"/>
  <circle cx="463.93" cy="300.01" r="2.5" fill="#2563eb"/>
  <circle cx="465.45" cy="299.97" r="2.5" fill="#2563eb"/>
  <circle cx="466.98" cy="300.01" r="2.5" fill="#2563eb"/>
  <circle cx="468.51" cy="299.97" r="2.5" fill="#2563eb"/>
  <circle cx="470.03" cy="300.01" r="2.5" fill="#2563eb"/>
  <circle cx="471.56" cy="299.97" r="2.5" fill="#2563eb"/>
  <circle cx="473.09" cy="249.90" r="2.5" fill="#2563eb"/>
  <circle cx="474.61" cy="300.01" r="2.5" fill="#2563eb"/>
  <circle cx="476.14" cy="300.01" r="2.5" fill="#2563eb"/>
  <circle cx="477.67" cy="299.89" r="2.5" fill="#2563eb"/>
  <circle cx="479.19" cy="299.97" r="2.5" fill="#2563eb"/>
  <circle cx="480.72" cy="299.97" r="2.5" fill="#2563eb"/>
  <circle cx="482.25" cy="249.99" r="2.5" fill="#2563eb"/>
  <circle cx="483.78" cy="299.97" r="2.5" fill="#2563eb"/>
  <circle cx="485.30" cy="299.89" r="2.5" fill="#2563eb"/>
  <circle cx="486.83" cy="300.01" r="2.5" fill="#2563eb"/>
  <circle cx="488.36" cy="299.97" r="2.5" fill="#2563eb"/>
  <circle cx="489.88" cy="299.97" r="2.5" fill="#2563eb"/>
  <circle cx="491.41" cy="300.01" r="2.5" fill="#2563eb"/>
  <circle cx="492.94" cy="299.97" r="2.5" fill="#2563eb"/>
  <circle cx="494.46" cy="249.99" r="2.5" fill="#2563eb"/>
  <circle cx="495.99" cy="299.97" r="2.5" fill="#2563eb"/>
  <circle cx="497.52" cy="299.97" r="2.5" fill="#2563eb"/>
  <circle cx="499.04" cy="300.06" r="2.5" fill="#2563eb"/>
  <circle cx="500.57" cy="300.06" r="2.5" fill="#2563eb"/>
  <circle cx="502.10" cy="249.94" r="2.5" fill="#2563eb"/>
  <circle cx="503.62" cy="300.01" r="2.5" fill="#2563eb"/>
  <circle cx="505.15" cy="299.93" r="2.5" fill="#2563eb"/>
  <circle cx="506.68" cy="300.01" r="2.5" fill="#2563eb"/>
  <circle cx="508.20" cy="300.01" r="2.5" fill="#2563eb"/>
  <circle cx="509.73" cy="249.99" r="2.5" fill="#2563eb"/>
  <circle cx="511.26" cy="300.01" r="2.5" fill="#2563eb"/>
  <circle cx="512.79" cy="300.01" r="2.5" fill="#2563eb"/>
  <circle cx="514.31" cy="300.01" r="2.5" fill="#2563eb"/>
  <circle cx="515.84" cy="299.93" r="2.5" fill="#2563eb"/>
  <circle cx="517.37" cy="299.93" r="2.5" fill="#2563eb"/>
  <circle cx="518.89" cy="300.01" r="2.5" fill="#2563eb"/>
  <circle cx="520.42" cy="300.01" r="2.5" fill="#2563eb"/>
  <circle cx="521.95" cy="249.94" r="2.5" fill="#2563eb"/>
  <circle cx="523.47" cy="299.97" r="2.5" fill="#2563eb"/>
  <circle cx="525.00" cy="299.97" r="2.5" fill="#2563eb"/>
  <circle cx="526.53" cy="300.01" r="2.5" fill="#2563eb"/>
  <circle cx="528.05" cy="300.01" r="2.5" fill="#2563eb"/>
  <circle cx="529.58" cy="300.01" r="2.5" fill="#2563eb"/>
  <circle cx="531.11" cy="249.99" r="2.5" fill="#2563eb"/>
  <circle cx="532.63" cy="300.01" r="2.5" fill="#2563eb"/>
  <circle cx="534.16" cy="300.01" r="2.5" fill="#2563eb"/>
  <circle cx="535.69" cy="300.01" r="2.5" fill="#2563eb"/>
  <circle cx="537.21" cy="250.03" r="2.5" fill="#2563eb"/>
  <circle cx="538.74" cy="300.01" r="2.5" fill="#2563eb"/>
  <circle cx="540.27" cy="300.01" r="2.5" fill="#2563eb"/>
  <circle cx="541.80" cy="300.01" r="2.5" fill="#2563eb"/>
  <circle cx="543.32" cy="299.97" r="2.5" fill="#2563eb"/>
  <circle cx="544.85" cy="300.01" r="2.5" fill="#2563eb"/>
  <circle cx="546.38" cy="300.01" r="2.5" fill="#2563eb"/>
  <circle cx="547.90" cy="299.97" r="2.5" fill="#2563eb"/>
  <circle cx="549.43" cy="299.97" r="2.5" fill="#2563eb"/>
  <circle cx="550.96" cy="300.01" r="2.5" fill="#2563eb"/>
  <circle cx="552.48" cy="300.01" r="2.5" fill="#2563eb"/>
  <circle cx="554.01" cy="299.97" r="2.5" fill="#2563eb"/>
  <circle cx="555.54" cy="299.93" r="2.5" fill="#2563eb"/>
  <circle cx="557.06" cy="300.01" r="2.5" fill="#2563eb"/>
  <circle cx="558.59" cy="300.06" r="2.5" fill="#2563eb"/>
  <circle cx="560.12" cy="299.97" r="2.5" fill="#2563eb"/>
  <circle cx="561.64" cy="300.01" r="2.5" fill="#2563eb"/>
  <circle cx="563.17" cy="250.03" r="2.5" fill="#2563eb"/>
  <circle cx="564.70" cy="250.03" r="2.5" fill="#2563eb"/>
  <circle cx="566.22" cy="299.93" r="2.5" fill="#2563eb"/>
  <circle cx="567.75" cy="299.97" r="2.5" fill="#2563eb"/>
  <circle cx="569.28" cy="300.01" r="2.5" fill="#2563eb"/>
  <circle cx="570.81" cy="300.01" r="2.5" fill="#2563eb"/>
  <circle cx="572.33" cy="300.06" r="2.5" fill="#2563eb"/>
  <circle cx="573.86" cy="300.01" r="2.5" fill="#2563eb"/>
  <circle cx="575.39" cy="299.93" r="2.5" fill="#2563eb"/>
  <circle cx="576.91" cy="300.01" r="2.5" fill="#2563eb"/>
  <circle cx="578.44" cy="300.01" r="2.5" fill="#2563eb"/>
  <circle cx="579.97" cy="299.97" r="2.5" fill="#2563eb"/>
  <circle cx="581.49" cy="299.97" r="2.5" fill="#2563eb"/>
  <circle cx="583.02" cy="300.01" r="2.5" fill="#2563eb"/>
  <circle cx="584.55" cy="250.03" r="2.5" fill="#2563eb"/>
  <circle cx="586.07" cy="300.01" r="2.5" fill="#2563eb"/>
  <circle cx="587.60" cy="300.01" r="2.5" fill="#2563eb"/>
  <circle cx="589.13" cy="300.01" r="2.5" fill="#2563eb"/>
  <circle cx="590.65" cy="299.97" r="2.5" fill="#2563eb"/>
  <circle cx="592.18" cy="300.01" r="2.5" fill="#2563eb"/>
  <circle cx="593.71" cy="299.97" r="2.5" fill="#2563eb"/>
  <circle cx="595.23" cy="300.01" r="2.5" fill="#2563eb"/>
  <circle cx="596.76" cy="299.97" r="2.5" fill="#2563eb"/>
  <circle cx="598.29" cy="299.97" r="2.5" fill="#2563eb"/>
  <circle cx="599.82" cy="299.93" r="2.5" fill="#2563eb"/>
  <circle cx="601.34" cy="300.01" r="2.5" fill="#2563eb"/>
  <circle cx="602.87" cy="300.01" r="2.5" fill="#2563eb"/>
  <circle cx="604.40" cy="299.89" r="2.5" fill="#2563eb"/>
  <circle cx="605.92" cy="299.97" r="2.5" fill="#2563eb"/>
  <circle cx="607.45" cy="299.97" r="2.5" fill="#2563eb"/>
  <circle cx="608.98" cy="300.06" r="2.5" fill="#2563eb"/>
  <circle cx="610.50" cy="249.90" r="2.5" fill="#2563eb"/>
  <circle cx="612.03" cy="299.89" r="2.5" fill="#2563eb"/>
  <circle cx="613.56" cy="300.01" r="2.5" fill="#2563eb"/>
  <circle cx="615.08" cy="299.97" r="2.5" fill="#2563eb"/>
  <circle cx="616.61" cy="299.97" r="2.5" fill="#2563eb"/>
  <circle cx="618.14" cy="299.97" r="2.5" fill="#2563eb"/>
  <circle cx="619.66" cy="300.01" r="2.5" fill="#2563eb"/>
  <circle cx="621.19" cy="300.01" r="2.5" fill="#2563eb"/>
  <circle cx="622.72" cy="299.97" r="2.5" fill="#2563eb"/>
  <circle cx="624.24" cy="299.97" r="2.5" fill="#2563eb"/>
  <circle cx="625.77" cy="299.97" r="2.5" fill="#2563eb"/>
  <circle cx="627.30" cy="250.03" r="2.5" fill="#2563eb"/>
  <circle cx="628.83" cy="299.93" r="2.5" fill="#2563eb"/>
  <circle cx="630.35" cy="300.01" r="2.5" fill="#2563eb"/>
  <circle cx="631.88" cy="300.01" r="2.5" fill="#2563eb"/>
  <circle cx="633.41" cy="299.93" r="2.5" fill="#2563eb"/>
  <circle cx="634.93" cy="300.01" r="2.5" fill="#2563eb"/>
  <circle cx="636.46" cy="300.01" r="2.5" fill="#2563eb"/>
  <circle cx="637.99" cy="299.97" r="2.5" fill="#2563eb"/>
  <circle cx="639.51" cy="300.01" r="2.5" fill="#2563eb"/>
  <circle cx="641.04" cy="300.01" r="2.5" fill="#2563eb"/>
  <circle cx="642.57" cy="300.06" r="2.5" fill="#2563eb"/>
  <circle cx="644.09" cy="300.01" r="2.5" fill="#2563eb"/>
  <circle cx="645.62" cy="299.97" r="2.5" fill="#2563eb"/>
  <circle cx="647.15" cy="299.89" r="2.5" fill="#2563eb"/>
  <circle cx="648.67" cy="300.01" r="2.5" fill="#2563eb"/>
  <circle cx="650.20" cy="300.01" r="2.5" fill="#2563eb"/>
  <circle cx="651.73" cy="249.94" r="2.5" fill="#2563eb"/>
  <circle cx="653.26" cy="249.94" r="2.5" fill="#2563eb"/>
  <circle cx="654.78" cy="300.01" r="2.5" fill="#2563eb"/>
  <circle cx="656.31" cy="300.01" r="2.5" fill="#2563eb"/>
  <circle cx="657.84" cy="300.01" r="2.5" fill="#2563eb"/>
  <circle cx="659.36" cy="300.01" r="2.5" fill="#2563eb"/>
  <circle cx="660.89" cy="299.97" r="2.5" fill="#2563eb"/>
  <circle cx="662.42" cy="250.03" r="2.5" fill="#2563eb"/>
  <circle cx="663.94" cy="300.01" r="2.5" fill="#2563eb"/>
  <circle cx="665.47" cy="300.01" r="2.5" fill="#2563eb"/>
  <circle cx="667.00" cy="300.01" r="2.5" fill="#2563eb"/>
  <circle cx="668.52" cy="300.01" r="2.5" fill="#2563eb"/>
  <circle cx="670.05" cy="250.03" r="2.5" fill="#2563eb"/>
  <circle cx="671.58" cy="249.99" r="2.5" fill="#2563eb"/>
  <circle cx="673.10" cy="300.01" r="2.5" fill="#2563eb"/>
  <circle cx="674.63" cy="299.97" r="2.5" fill="#2563eb"/>
  <circle cx="676.16" cy="300.01" r="2.5" fill="#2563eb"/>
  <circle cx="677.68" cy="299.97" r="2.5" fill="#2563eb"/>
  <circle cx="679.21" cy="300.01" r="2.5" fill="#2563eb"/>
  <circle cx="680.74" cy="299.97" r="2.5" fill="#2563eb"/>
  <circle cx="682.27" cy="299.97" r="2.5" fill="#2563eb"/>
  <circle cx="683.79" cy="299.97" r="2.5" fill="#2563eb"/>
  <circle cx="685.32" cy="300.06" r="2.5" fill="#2563eb"/>
  <circle cx="686.85" cy="249.99" r="2.5" fill="#2563eb"/>
  <circle cx="688.37" cy="300.01" r="2.5" fill="#2563eb"/>
  <circle cx="689.90" cy="250.03" r="2.5" fill="#2563eb"/>
  <circle cx="691.43" cy="249.94" r="2.5" fill="#2563eb"/>
  <circle cx="692.95" cy="249.99" r="2.5" fill="#2563eb"/>
  <circle cx="694.48" cy="300.01" r="2.5" fill="#2563eb"/>
  <circle cx="696.01" cy="300.06" r="2.5" fill="#2563eb"/>
  <circle cx="697.53" cy="300.01" r="2.5" fill="#2563eb"/>
  <circle cx="699.06" cy="299.97" r="2.5" fill="#2563eb"/>
  <circle cx="700.59" cy="299.97" r="2.5" fill="#2563eb"/>
  <circle cx="702.11" cy="300.01" r="2.5" fill="#2563eb"/>
  <circle cx="703.64" cy="299.93" r="2.5" fill="#2563eb"/>
  <circle cx="705.17" cy="299.89" r="2.5" fill="#2563eb"/>
  <circle cx="706.69" cy="299.89" r="2.5" fill="#2563eb"/>
  <circle cx="708.22" cy="299.89" r="2.5" fill="#2563eb"/>
  <circle cx="709.75" cy="299.89" r="2.5" fill="#2563eb"/>
  <circle cx="711.28" cy="299.85" r="2.5" fill="#2563eb"/>
  <circle cx="712.80" cy="299.85" r="2.5" fill="#2563eb"/>
  <circle cx="714.33" cy="299.89" r="2.5" fill="#2563eb"/>
  <circle cx="715.86" cy="299.81" r="2.5" fill="#2563eb"/>
  <circle cx="717.38" cy="299.81" r="2.5" fill="#2563eb"/>
  <circle cx="718.91" cy="299.81" r="2.5" fill="#2563eb"/>
  <circle cx="720.44" cy="299.76" r="2.5" fill="#2563eb"/>
  <circle cx="721.96" cy="299.76" r="2.5" fill="#2563eb"/>
  <circle cx="723.49" cy="299.76" r="2.5" fill="#2563eb"/>
  <circle cx="725.02" cy="299.72" r="2.5" fill="#2563eb"/>
  <circle cx="726.54" cy="299.68" r="2.5" fill="#2563eb"/>
  <circle cx="728.07" cy="299.60" r="2.5" fill="#2563eb"/>
  <circle cx="729.60" cy="299.60" r="2.5" fill="#2563eb"/>
  <circle cx="731.12" cy="299.60" r="2.5" fill="#2563eb"/>
  <circle cx="732.65" cy="299.56" r="2.5" fill="#2563eb"/>
  <circle cx="734.18" cy="299.47" r="2.5" fill="#2563eb"/>
  <circle cx="735.70" cy="299.43" r="2.5" fill="#2563eb"/>
  <circle cx="737.23" cy="299.43" r="2.5" fill="#2563eb"/>
  <circle cx="738.76" cy="299.39" r="2.5" fill="#2563eb"/>
  <circle cx="740.29" cy="299.47" r="2.5" fill="#2563eb"/>
  <circle cx="741.81" cy="259.82" r="2.5" fill="#2563eb"/>
  <circle cx="743.34" cy="338.96" r="2.5" fill="#2563eb"/>
  <circle cx="744.87" cy="299.31" r="2.5" fill="#2563eb"/>
  <circle cx="746.39" cy="299.31" r="2.5" fill="#2563eb"/>
  <circle cx="747.92" cy="299.26" r="2.5" fill="#2563eb"/>
  <circle cx="749.45" cy="299.68" r="2.5" fill="#2563eb"/>
  <circle cx="750.97" cy="299.68" r="2.5" fill="#2563eb"/>
  <circle cx="752.50" cy="299.68" r="2.5" fill="#2563eb"/>
  <circle cx="754.03" cy="299.64" r="2.5" fill="#2563eb"/>
  <circle cx="755.55" cy="299.14" r="2.5" fill="#2563eb"/>
  <circle cx="757.08" cy="299.14" r="2.5" fill="#2563eb"/>
  <circle cx="758.61" cy="299.10" r="2.5" fill="#2563eb"/>
  <circle cx="760.13" cy="299.10" r="2.5" fill="#2563eb"/>
  <circle cx="761.66" cy="299.10" r="2.5" fill="#2563eb"/>
  <circle cx="763.19" cy="248.07" r="2.5" fill="#2563eb"/>
  <circle cx="764.71" cy="299.06" r="2.5" fill="#2563eb"/>
  <circle cx="766.24" cy="299.06" r="2.5" fill="#2563eb"/>
  <circle cx="767.77" cy="299.06" r="2.5" fill="#2563eb"/>
  <circle cx="769.30" cy="299.06" r="2.5" fill="#2563eb"/>
  <circle cx="770.82" cy="299.06" r="2.5" fill="#2563eb"/>
  <circle cx="772.35" cy="298.97" r="2.5" fill="#2563eb"/>
  <circle cx="773.88" cy="298.97" r="2.5" fill="#2563eb"/>
  <circle cx="775.40" cy="298.93" r="2.5" fill="#2563eb"/>
  <circle cx="776.93" cy="298.97" r="2.5" fill="#2563eb"/>
  <circle cx="778.46" cy="298.93" r="2.5" fill="#2563eb"/>
  <circle cx="779.98" cy="298.89" r="2.5" fill="#2563eb"/>
  <circle cx="781.51" cy="298.89" r="2.5" fill="#2563eb"/>
  <circle cx="783.04" cy="298.89" r="2.5" fill="#2563eb"/>
  <circle cx="784.56" cy="298.89" r="2.5" fill="#2563eb"/>
  <circle cx="786.09" cy="247.78" r="2.5" fill="#2563eb"/>
  <circle cx="787.62" cy="298.89" r="2.5" fill="#2563eb"/>
  <circle cx="789.14" cy="298.89" r="2.5" fill="#2563eb"/>
  <circle cx="790.67" cy="298.85" r="2.5" fill="#2563eb"/>
  <circle cx="792.20" cy="298.85" r="2.5" fill="#2563eb"/>
  <circle cx="793.72" cy="298.81" r="2.5" fill="#2563eb"/>
  <circle cx="795.25" cy="298.81" r="2.5" fill="#2563eb"/>
  <circle cx="796.78" cy="298.81" r="2.5" fill="#2563eb"/>
  <circle cx="798.31" cy="298.81" r="2.5" fill="#2563eb"/>
  <circle cx="799.83" cy="298.81" r="2.5" fill="#2563eb"/>
  <circle cx="801.36" cy="298.81" r="2.5" fill="#2563eb"/>
  <circle cx="802.89" cy="298.81" r="2.5" fill="#2563eb"/>
  <circle cx="804.41" cy="298.81" r="2.5" fill="#2563eb"/>
  <circle cx="805.94" cy="298.81" r="2.5" fill="#2563eb"/>
  <circle cx="807.47" cy="298.72" r="2.5" fill="#2563eb"/>
  <circle cx="808.99" cy="247.45" r="2.5" fill="#2563eb"/>
  <circle cx="810.52" cy="247.45" r="2.5" fill="#2563eb"/>
  <circle cx="812.05" cy="298.72" r="2.5" fill="#2563eb"/>
  <circle cx="813.57" cy="298.72" r="2.5" fill="#2563eb"/>
  <circle cx="815.10" cy="298.72" r="2.5" fill="#2563eb"/>
  <circle cx="816.63" cy="298.72" r="2.5" fill="#2563eb"/>
  <circle cx="818.15" cy="298.72" r="2.5" fill="#2563eb"/>
  <circle cx="819.68" cy="298.72" r="2.5" fill="#2563eb"/>
  <circle cx="821.21" cy="247.36" r="2.5" fill="#2563eb"/>
  <circle cx="822.73" cy="298.68" r="2.5" fill="#2563eb"/>
  <circle cx="824.26" cy="247.36" r="2.5" fill="#2563eb"/>
  <circle cx="825.79" cy="247.36" r="2.5" fill="#2563eb"/>
  <circle cx="827.32" cy="247.36" r="2.5" fill="#2563eb"/>
  <circle cx="828.84" cy="298.68" r="2.5" fill="#2563eb"/>
  <circle cx="830.37" cy="298.68" r="2.5" fill="#2563eb"/>
  <circle cx="831.90" cy="298.68" r="2.5" fill="#2563eb"/>
  <circle cx="833.42" cy="298.68" r="2.5" fill="#2563eb"/>
  <circle cx="834.95" cy="298.68" r="2.5" fill="#2563eb"/>
  <circle cx="836.48" cy="341.67" r="2.5" fill="#2563eb"/>
  <circle cx="838.00" cy="307.01" r="2.5" fill="#2563eb"/>
  <circle cx="839.53" cy="298.68" r="2.5" fill="#2563eb"/>
  <circle cx="841.06" cy="298.68" r="2.5" fill="#2563eb"/>
  <circle cx="842.58" cy="298.68" r="2.5" fill="#2563eb"/>
  <circle cx="844.11" cy="247.36" r="2.5" fill="#2563eb"/>
  <circle cx="845.64" cy="298.64" r="2.5" fill="#2563eb"/>
  <circle cx="847.16" cy="247.36" r="2.5" fill="#2563eb"/>
  <circle cx="848.69" cy="247.28" r="2.5" fill="#2563eb"/>
  <circle cx="850.22" cy="247.20" r="2.5" fill="#2563eb"/>
  <circle cx="851.74" cy="298.60" r="2.5" fill="#2563eb"/>
  <circle cx="853.27" cy="298.60" r="2.5" fill="#2563eb"/>
  <circle cx="854.80" cy="247.03" r="2.5" fill="#2563eb"/>
  <circle cx="856.33" cy="298.51" r="2.5" fill="#2563eb"/>
  <circle cx="857.85" cy="298.51" r="2.5" fill="#2563eb"/>
  <circle cx="859.38" cy="298.51" r="2.5" fill="#2563eb"/>
  <circle cx="860.91" cy="298.51" r="2.5" fill="#2563eb"/>
  <circle cx="862.43" cy="298.51" r="2.5" fill="#2563eb"/>
  <circle cx="863.96" cy="298.51" r="2.5" fill="#2563eb"/>
  <circle cx="865.49" cy="298.51" r="2.5" fill="#2563eb"/>
  <circle cx="867.01" cy="298.51" r="2.5" fill="#2563eb"/>
  <circle cx="868.54" cy="298.51" r="2.5" fill="#2563eb"/>
  <circle cx="870.07" cy="298.51" r="2.5" fill="#2563eb"/>
  <circle cx="871.59" cy="298.51" r="2.5" fill="#2563eb"/>
  <circle cx="873.12" cy="298.51" r="2.5" fill="#2563eb"/>
  <circle cx="874.65" cy="298.51" r="2.5" fill="#2563eb"/>
  <circle cx="876.17" cy="298.51" r="2.5" fill="#2563eb"/>
  <circle cx="877.70" cy="298.51" r="2.5" fill="#2563eb"/>
  <circle cx="879.23" cy="298.51" r="2.5" fill="#2563eb"/>
  <circle cx="880.76" cy="298.51" r="2.5" fill="#2563eb"/>
  <circle cx="882.28" cy="298.51" r="2.5" fill="#2563eb"/>
  <circle cx="883.81" cy="298.51" r="2.5" fill="#2563eb"/>
  <circle cx="885.34" cy="298.51" r="2.5" fill="#2563eb"/>
  <circle cx="886.86" cy="298.51" r="2.5" fill="#2563eb"/>
  <circle cx="888.39" cy="298.51" r="2.5" fill="#2563eb"/>
  <circle cx="889.92" cy="298.51" r="2.5" fill="#2563eb"/>
  <circle cx="891.44" cy="298.51" r="2.5" fill="#2563eb"/>
  <circle cx="892.97" cy="298.51" r="2.5" fill="#2563eb"/>
  <circle cx="894.50" cy="298.51" r="2.5" fill="#2563eb"/>
  <circle cx="896.02" cy="298.47" r="2.5" fill="#2563eb"/>
  <circle cx="897.55" cy="298.51" r="2.5" fill="#2563eb"/>
  <circle cx="899.08" cy="298.51" r="2.5" fill="#2563eb"/>
  <circle cx="900.60" cy="298.47" r="2.5" fill="#2563eb"/>
  <circle cx="902.13" cy="298.51" r="2.5" fill="#2563eb"/>
  <circle cx="903.66" cy="298.47" r="2.5" fill="#2563eb"/>
  <circle cx="905.18" cy="298.51" r="2.5" fill="#2563eb"/>
  <circle cx="906.71" cy="298.43" r="2.5" fill="#2563eb"/>
  <circle cx="908.24" cy="298.56" r="2.5" fill="#2563eb"/>
  <circle cx="909.77" cy="298.43" r="2.5" fill="#2563eb"/>
  <circle cx="911.29" cy="298.43" r="2.5" fill="#2563eb"/>
  <circle cx="912.82" cy="298.43" r="2.5" fill="#2563eb"/>
  <circle cx="914.35" cy="298.43" r="2.5" fill="#2563eb"/>
  <circle cx="915.87" cy="298.43" r="2.5" fill="#2563eb"/>
  <circle cx="917.40" cy="298.43" r="2.5" fill="#2563eb"/>
  <circle cx="918.93" cy="298.43" r="2.5" fill="#2563eb"/>
  <circle cx="920.45" cy="298.43" r="2.5" fill="#2563eb"/>
  <circle cx="921.98" cy="298.43" r="2.5" fill="#2563eb"/>
  <circle cx="923.51" cy="298.43" r="2.5" fill="#2563eb"/>
  <circle cx="925.03" cy="298.43" r="2.5" fill="#2563eb"/>
  <circle cx="926.56" cy="298.43" r="2.5" fill="#2563eb"/>
  <circle cx="928.09" cy="298.43" r="2.5" fill="#2563eb"/>
  <circle cx="929.61" cy="298.43" r="2.5" fill="#2563eb"/>
  <circle cx="931.14" cy="298.43" r="2.5" fill="#2563eb"/>
  <circle cx="932.67" cy="298.43" r="2.5" fill="#2563eb"/>
  <circle cx="934.19" cy="298.43" r="2.5" fill="#2563eb"/>
  <circle cx="935.72" cy="298.43" r="2.5" fill="#2563eb"/>
  <circle cx="937.25" cy="298.43" r="2.5" fill="#2563eb"/>
  <circle cx="938.78" cy="298.43" r="2.5" fill="#2563eb"/>
  <circle cx="940.30" cy="298.43" r="2.5" fill="#2563eb"/>
  <circle cx="941.83" cy="298.43" r="2.5" fill="#2563eb"/>
  <circle cx="943.36" cy="298.43" r="2.5" fill="#2563eb"/>
  <circle cx="944.88" cy="298.43" r="2.5" fill="#2563eb"/>
  <circle cx="946.41" cy="298.43" r="2.5" fill="#2563eb"/>
  <circle cx="947.94" cy="298.43" r="2.5" fill="#2563eb"/>
  <circle cx="949.46" cy="298.43" r="2.5" fill="#2563eb"/>
  <circle cx="950.99" cy="298.43" r="2.5" fill="#2563eb"/>
  <circle cx="952.52" cy="298.43" r="2.5" fill="#2563eb"/>
  <circle cx="954.04" cy="298.43" r="2.5" fill="#2563eb"/>
  <circle cx="955.57" cy="298.43" r="2.5" fill="#2563eb"/>
  <circle cx="957.10" cy="298.43" r="2.5" fill="#2563eb"/>
  <circle cx="958.62" cy="298.43" r="2.5" fill="#2563eb"/>
  <circle cx="960.15" cy="298.43" r="2.5" fill="#2563eb"/>
  <circle cx="961.68" cy="298.39" r="2.5" fill="#2563eb"/>
  <circle cx="963.20" cy="298.39" r="2.5" fill="#2563eb"/>
  <circle cx="964.73" cy="298.43" r="2.5" fill="#2563eb"/>
  <circle cx="966.26" cy="298.43" r="2.5" fill="#2563eb"/>
  <circle cx="967.79" cy="298.39" r="2.5" fill="#2563eb"/>
  <circle cx="969.31" cy="298.39" r="2.5" fill="#2563eb"/>
  <circle cx="970.84" cy="298.39" r="2.5" fill="#2563eb"/>
  <circle cx="972.37" cy="298.43" r="2.5" fill="#2563eb"/>
  <circle cx="973.89" cy="298.43" r="2.5" fill="#2563eb"/>
  <circle cx="975.42" cy="298.43" r="2.5" fill="#2563eb"/>
  <circle cx="976.95" cy="246.82" r="2.5" fill="#2563eb"/>
  <circle cx="978.47" cy="298.43" r="2.5" fill="#2563eb"/>
  <circle cx="980.00" cy="298.39" r="2.5" fill="#2563eb"/>
</svg>
