<?xml version="1.0" encoding="UTF-8"?>
<svg xmlns="http://www.w3.org/2000/svg" width="1000" height="420" viewBox="0 0 1000 420">
  <rect width="100%" height="100%" fill="#ffffff"/>
  <text x="70" y="28" font-size="20" font-weight="600">수집 시점 기준 - 시간별 스냅샷</text>
  <text x="70" y="402" font-size="12" fill="#555">스냅샷 수</text>
  <line x1="70" y1="350.00" x2="980" y2="350.00" stroke="#e5e7eb" stroke-width="1"/>
  <text x="62" y="354.00" font-size="11" fill="#6b7280" text-anchor="end">0</text>
  <line x1="70" y1="290.00" x2="980" y2="290.00" stroke="#e5e7eb" stroke-width="1"/>
  <text x="62" y="294.00" font-size="11" fill="#6b7280" text-anchor="end">1,440</text>
  <line x1="70" y1="230.00" x2="980" y2="230.00" stroke="#e5e7eb" stroke-width="1"/>
  <text x="62" y="234.00" font-size="11" fill="#6b7280" text-anchor="end">2,880</text>
  <line x1="70" y1="170.00" x2="980" y2="170.00" stroke="#e5e7eb" stroke-width="1"/>
  <text x="62" y="174.00" font-size="11" fill="#6b7280" text-anchor="end">4,321</text>
  <line x1="70" y1="110.00" x2="980" y2="110.00" stroke="#e5e7eb" stroke-width="1"/>
  <text x="62" y="114.00" font-size="11" fill="#6b7280" text-anchor="end">5,761</text>
  <line x1="70" y1="50.00" x2="980" y2="50.00" stroke="#e5e7eb" stroke-width="1"/>
  <text x="62" y="54.00" font-size="11" fill="#6b7280" text-anchor="end">7,202</text>
  <line x1="70" y1="350" x2="980" y2="350" stroke="#111827" stroke-width="1.2"/>
  <line x1="70" y1="50" x2="70" y2="350" stroke="#111827" stroke-width="1.2"/>
  <line x1="70.00" y1="350" x2="70.00" y2="356" stroke="#9ca3af" stroke-width="1"/>
  <text x="70.00" y="372" font-size="10" fill="#6b7280" text-anchor="middle">2026-02-28 18</text>
  <line x1="144.86" y1="350" x2="144.86" y2="356" stroke="#9ca3af" stroke-width="1"/>
  <text x="144.86" y="372" font-size="10" fill="#6b7280" text-anchor="middle">2026-03-09 00</text>
  <line x1="219.73" y1="350" x2="219.73" y2="356" stroke="#9ca3af" stroke-width="1"/>
  <text x="219.73" y="372" font-size="10" fill="#6b7280" text-anchor="middle">2026-03-11 01</text>
  <line x1="294.59" y1="350" x2="294.59" y2="356" stroke="#9ca3af" stroke-width="1"/>
  <text x="294.59" y="372" font-size="10" fill="#6b7280" text-anchor="middle">2026-03-13 02</text>
  <line x1="369.45" y1="350" x2="369.45" y2="356" stroke="#9ca3af" stroke-width="1"/>
  <text x="369.45" y="372" font-size="10" fill="#6b7280" text-anchor="middle">2026-03-15 08</text>
  <line x1="444.31" y1="350" x2="444.31" y2="356" stroke="#9ca3af" stroke-width="1"/>
  <text x="444.31" y="372" font-size="10" fill="#6b7280" text-anchor="middle">2026-03-18 08</text>
  <line x1="519.18" y1="350" x2="519.18" y2="356" stroke="#9ca3af" stroke-width="1"/>
  <text x="519.18" y="372" font-size="10" fill="#6b7280" text-anchor="middle">2026-03-21 04</text>
  <line x1="594.04" y1="350" x2="594.04" y2="356" stroke="#9ca3af" stroke-width="1"/>
  <text x="594.04" y="372" font-size="10" fill="#6b7280" text-anchor="middle">2026-03-23 20</text>
  <line x1="668.90" y1="350" x2="668.90" y2="356" stroke="#9ca3af" stroke-width="1"/>
  <text x="668.90" y="372" font-size="10" fill="#6b7280" text-anchor="middle">2026-03-26 21</text>
  <line x1="743.77" y1="350" x2="743.77" y2="356" stroke="#9ca3af" stroke-width="1"/>
  <text x="743.77" y="372" font-size="10" fill="#6b7280" text-anchor="middle">2026-03-29 22</text>
  <line x1="818.63" y1="350" x2="818.63" y2="356" stroke="#9ca3af" stroke-width="1"/>
  <text x="818.63" y="372" font-size="10" fill="#6b7280" text-anchor="middle">2026-04-02 03</text>
  <line x1="893.49" y1="350" x2="893.49" y2="356" stroke="#9ca3af" stroke-width="1"/>
  <text x="893.49" y="372" font-size="10" fill="#6b7280" text-anchor="middle">2026-04-05 02</text>
  <line x1="968.35" y1="350" x2="968.35" y2="356" stroke="#9ca3af" stroke-width="1"/>
  <text x="968.35" y="372" font-size="10" fill="#6b7280" text-anchor="middle">2026-04-08 05</text>
  <line x1="980.00" y1="350" x2="980.00" y2="356" stroke="#9ca3af" stroke-width="1"/>
  <text x="980.00" y="372" font-size="10" fill="#6b7280" text-anchor="middle">2026-04-08 16</text>
  <polyline fill="none" stroke="#2563eb" stroke-width="2.5" points="70.00,50.00 71.66,50.12 73.33,50.17 74.99,50.46 76.65,50.00 78.32,266.90 79.98,50.12 81.65,50.08 83.31,177.46 84.97,211.58 86.64,175.34 88.30,304.14 89.96,200.46 91.63,250.94 93.29,300.01 94.95,300.06 96.62,300.01 98.28,300.01 99.95,348.00 101.61,300.01 103.27,249.99 104.94,200.00 106.60,249.99 108.26,249.99 109.93,250.03 111.59,250.03 113.25,250.03 114.92,250.40 116.58,250.90 118.24,250.90 119.91,251.32 121.57,249.94 123.24,300.01 124.90,299.93 126.56,251.03 128.23,300.68 129.89,250.03 131.55,200.00 133.22,249.99 134.88,250.03 136.54,250.03 138.21,250.03 139.87,300.01 141.54,200.04 143.20,250.03 144.86,250.03 146.53,250.03 148.19,249.90 149.85,250.03 151.52,250.03 153.18,250.94 154.84,250.44 156.51,250.03 158.17,250.03 159.84,300.47 161.50,300.01 163.16,300.43 164.83,250.03 166.49,249.99 168.15,300.43 169.82,249.90 171.48,249.99 173.14,249.99 174.81,200.04 176.47,300.01 178.14,300.01 179.80,300.01 181.46,249.90 183.13,300.01 184.79,250.03 186.45,249.99 188.12,199.96 189.78,300.01 191.44,200.00 193.11,250.36 194.77,250.03 196.44,300.01 198.10,300.01 199.76,250.44 201.43,300.01 203.09,250.03 204.75,250.03 206.42,249.99 208.08,250.49 209.74,250.03 211.41,200.04 213.07,300.01 214.73,250.03 216.40,300.01 218.06,250.11 219.73,300.01 221.39,250.03 223.05,250.03 224.72,199.92 226.38,250.03 228.04,250.03 229.71,250.03 231.37,254.36 233.03,300.01 234.70,299.97 236.36,250.36 238.03,299.97 239.69,250.03 241.35,250.03 243.02,250.03 244.68,250.03 246.34,249.99 248.01,200.00 249.67,299.93 251.33,300.01 253.00,299.97 254.66,249.94 256.33,249.99 257.99,249.82 259.65,249.94 261.32,250.28 262.98,207.00 264.64,250.03 266.31,250.32 267.97,250.40 269.63,300.93 271.30,300.01 272.96,300.10 274.63,249.94 276.29,249.99 277.95,250.07 279.62,249.99 281.28,250.03 282.94,249.94 284.61,200.00 286.27,300.39 287.93,300.01 289.60,300.01 291.26,250.44 292.93,300.39 294.59,249.86 296.25,250.11 297.92,201.46 299.58,300.01 301.24,200.83 302.91,250.03 304.57,249.99 306.23,300.26 307.90,300.01 309.56,300.01 311.22,250.03 312.89,250.03 314.55,250.03 316.22,250.03 317.88,249.99 319.54,250.03 321.21,200.00 322.87,300.26 324.53,249.99 326.20,300.01 327.86,249.94 329.52,250.03 331.19,250.03 332.85,250.03 334.52,200.04 336.18,300.01 337.84,249.90 339.51,300.01 341.17,300.01 342.83,300.06 344.50,300.01 346.16,300.01 347.82,243.95 349.49,249.94 351.15,299.97 352.82,300.01 354.48,300.01 356.14,250.03 357.81,300.01 359.47,300.01 361.13,299.97 362.80,249.99 364.46,300.01 366.12,299.93 367.79,300.01 369.45,299.93 371.12,300.01 372.78,300.01 374.44,299.89 376.11,299.97 377.77,250.03 379.43,299.93 381.10,299.89 382.76,299.97 384.42,249.94 386.09,300.01 387.75,300.01 389.41,299.97 391.08,249.99 392.74,299.97 394.41,299.97 396.07,300.06 397.73,300.06 399.40,299.93 401.06,300.01 402.72,300.01 404.39,299.93 406.05,300.01 407.71,300.01 409.38,299.97 411.04,300.01 412.71,300.01 414.37,300.01 416.03,300.01 417.70,249.86 419.36,300.01 421.02,300.10 422.69,299.93 424.35,300.01 426.01,299.93 427.68,300.01 429.34,300.01 431.01,300.01 432.67,300.01 434.33,300.01 436.00,299.97 437.66,300.01 439.32,300.01 440.99,300.01 442.65,300.01 444.31,250.03 445.98,300.01 447.64,300.01 449.31,299.97 450.97,300.01 452.63,300.01 454.30,299.97 455.96,299.97 457.62,300.01 459.29,299.97 460.95,300.01 462.61,299.93 464.28,300.01 465.94,250.03 467.61,300.01 469.27,300.01 470.93,300.01 472.60,300.01 474.26,300.01 475.92,299.89 477.59,300.01 479.25,300.01 480.91,250.07 482.58,300.01 484.24,299.93 485.90,300.01 487.57,299.97 489.23,299.97 490.90,299.97 492.56,250.03 494.22,300.01 495.89,300.01 497.55,300.01 499.21,300.01 500.88,299.97 502.54,300.01 504.20,299.97 505.87,300.01 507.53,299.97 509.20,249.90 510.86,300.01 512.52,300.01 514.19,299.89 515.85,299.97 517.51,299.97 519.18,249.99 520.84,299.97 522.50,299.89 524.17,300.01 525.83,299.97 527.50,299.97 529.16,300.01 530.82,299.97 532.49,249.99 534.15,299.97 535.81,299.97 537.48,300.06 539.14,300.06 540.80,249.94 542.47,300.01 544.13,299.93 545.80,300.01 547.46,300.01 549.12,249.99 550.79,300.01 552.45,300.01 554.11,300.01 555.78,299.93 557.44,299.93 559.10,300.01 560.77,300.01 562.43,249.94 564.10,299.97 565.76,299.97 567.42,300.01 569.09,300.01 570.75,300.01 572.41,249.99 574.08,300.01 575.74,300.01 577.40,300.01 579.07,250.03 580.73,300.01 582.39,300.01 584.06,300.01 585.72,299.97 587.39,300.01 589.05,300.01 590.71,299.97 592.38,299.97 594.04,300.01 595.70,300.01 597.37,299.97 599.03,299.93 600.69,300.01 602.36,300.06 604.02,299.97 605.69,300.01 607.35,250.03 609.01,250.03 610.68,299.93 612.34,299.97 614.00,300.01 615.67,300.01 617.33,300.06 618.99,300.01 620.66,299.93 622.32,300.01 623.99,300.01 625.65,299.97 627.31,299.97 628.98,300.01 630.64,250.03 632.30,300.01 633.97,300.01 635.63,300.01 637.29,299.97 638.96,300.01 640.62,299.97 642.29,300.01 643.95,299.97 645.61,299.97 647.28,299.93 648.94,300.01 650.60,300.01 652.27,299.89 653.93,299.97 655.59,299.97 657.26,300.06 658.92,249.90 660.59,299.89 662.25,300.01 663.91,299.97 665.58,299.97 667.24,299.97 668.90,300.01 670.57,300.01 672.23,299.97 673.89,299.97 675.56,299.97 677.22,250.03 678.88,299.93 680.55,300.01 682.21,300.01 683.88,299.93 685.54,300.01 687.20,300.01 688.87,299.97 690.53,300.01 692.19,300.01 693.86,300.06 695.52,300.01 697.18,299.97 698.85,299.89 700.51,300.01 702.18,300.01 703.84,249.94 705.50,249.94 707.17,300.01 708.83,300.01 710.49,300.01 712.16,300.01 713.82,299.97 715.48,250.03 717.15,300.01 718.81,300.01 720.48,300.01 722.14,300.01 723.80,250.03 725.47,249.99 727.13,300.01 728.79,299.97 730.46,300.01 732.12,299.97 733.78,300.01 735.45,299.97 737.11,299.97 738.78,299.97 740.44,300.06 742.10,249.99 743.77,300.01 745.43,250.03 747.09,249.94 748.76,249.99 750.42,300.01 752.08,300.06 753.75,300.01 755.41,299.97 757.07,299.97 758.74,300.01 760.40,299.93 762.07,299.89 763.73,299.89 765.39,299.89 767.06,299.89 768.72,299.85 770.38,299.85 772.05,299.89 773.71,299.81 775.37,299.81 777.04,299.81 778.70,299.76 780.37,299.76 782.03,299.76 783.69,299.72 785.36,299.68 787.02,299.60 788.68,299.60 790.35,299.60 792.01,299.56 793.67,299.47 795.34,299.43 797.00,299.43 798.67,299.39 800.33,299.47 801.99,259.82 803.66,338.96 805.32,299.31 806.98,299.31 808.65,299.26 810.31,299.68 811.97,299.68 813.64,299.68 815.30,299.64 816.97,299.14 818.63,299.14 820.29,299.10 821.96,299.10 823.62,299.10 825.28,248.07 826.95,299.06 828.61,299.06 830.27,299.06 831.94,299.06 833.60,299.06 835.27,298.97 836.93,298.97 838.59,298.93 840.26,298.97 841.92,298.93 843.58,298.89 845.25,298.89 846.91,298.89 848.57,298.89 850.24,247.78 851.90,298.89 853.56,298.89 855.23,298.85 856.89,298.85 858.56,298.81 860.22,298.81 861.88,298.81 863.55,298.81 865.21,298.81 866.87,298.81 868.54,298.81 870.20,298.81 871.86,298.81 873.53,298.72 875.19,247.45 876.86,247.45 878.52,298.72 880.18,298.72 881.85,298.72 883.51,298.72 885.17,298.72 886.84,298.72 888.50,247.36 890.16,298.68 891.83,247.36 893.49,247.36 895.16,247.36 896.82,298.68 898.48,298.68 900.15,298.68 901.81,298.68 903.47,298.68 905.14,341.67 906.80,307.01 908.46,298.68 910.13,298.68 911.79,298.68 913.46,247.36 915.12,298.64 916.78,247.36 918.45,247.28 920.11,247.20 921.77,298.60 923.44,298.60 925.10,247.03 926.76,298.51 928.43,298.51 930.09,298.51 931.76,298.51 933.42,298.51 935.08,298.51 936.75,298.51 938.41,298.51 940.07,298.51 941.74,298.51 943.40,298.51 945.06,298.51 946.73,298.51 948.39,298.51 950.05,298.51 951.72,298.51 953.38,298.51 955.05,298.51 956.71,298.51 958.37,298.51 960.04,298.51 961.70,298.51 963.36,298.51 965.03,298.51 966.69,298.51 968.35,298.51 970.02,298.47 971.68,298.51 973.35,298.51 975.01,298.47 976.67,298.51 978.34,298.47 980.00,298.51"/>
  <circle cx="70.00" cy="50.00" r="2.5" fill="#2563eb"/>
  <circle cx="71.66" cy="50.12" r="2.5" fill="#2563eb"/>
  <circle cx="73.33" cy="50.17" r="2.5" fill="#2563eb"/>
  <circle cx="74.99" cy="50.46" r="2.5" fill="#2563eb"/>
  <circle cx="76.65" cy="50.00" r="2.5" fill="#2563eb"/>
  <circle cx="78.32" cy="266.90" r="2.5" fill="#2563eb"/>
  <circle cx="79.98" cy="50.12" r="2.5" fill="#2563eb"/>
  <circle cx="81.65" cy="50.08" r="2.5" fill="#2563eb"/>
  <circle cx="83.31" cy="177.46" r="2.5" fill="#2563eb"/>
  <circle cx="84.97" cy="211.58" r="2.5" fill="#2563eb"/>
  <circle cx="86.64" cy="175.34" r="2.5" fill="#2563eb"/>
  <circle cx="88.30" cy="304.14" r="2.5" fill="#2563eb"/>
  <circle cx="89.96" cy="200.46" r="2.5" fill="#2563eb"/>
  <circle cx="91.63" cy="250.94" r="2.5" fill="#2563eb"/>
  <circle cx="93.29" cy="300.01" r="2.5" fill="#2563eb"/>
  <circle cx="94.95" cy="300.06" r="2.5" fill="#2563eb"/>
  <circle cx="96.62" cy="300.01" r="2.5" fill="#2563eb"/>
  <circle cx="98.28" cy="300.01" r="2.5" fill="#2563eb"/>
  <circle cx="99.95" cy="348.00" r="2.5" fill="#2563eb"/>
  <circle cx="101.61" cy="300.01" r="2.5" fill="#2563eb"/>
  <circle cx="103.27" cy="249.99" r="2.5" fill="#2563eb"/>
  <circle cx="104.94" cy="200.00" r="2.5" fill="#2563eb"/>
  <circle cx="106.60" cy="249.99" r="2.5" fill="#2563eb"/>
  <circle cx="108.26" cy="249.99" r="2.5" fill="#2563eb"/>
  <circle cx="109.93" cy="250.03" r="2.5" fill="#2563eb"/>
  <circle cx="111.59" cy="250.03" r="2.5" fill="#2563eb"/>
  <circle cx="113.25" cy="250.03" r="2.5" fill="#2563eb"/>
  <circle cx="114.92" cy="250.40" r="2.5" fill="#2563eb"/>
  <circle cx="116.58" cy="250.90" r="2.5" fill="#2563eb"/>
  <circle cx="118.24" cy="250.90" r="2.5" fill="#2563eb"/>
  <circle cx="119.91" cy="251.32" r="2.5" fill="#2563eb"/>
  <circle cx="121.57" cy="249.94" r="2.5" fill="#2563eb"/>
  <circle cx="123.24" cy="300.01" r="2.5" fill="#2563eb"/>
  <circle cx="124.90" cy="299.93" r="2.5" fill="#2563eb"/>
  <circle cx="126.56" cy="251.03" r="2.5" fill="#2563eb"/>
  <circle cx="128.23" cy="300.68" r="2.5" fill="#2563eb"/>
  <circle cx="129.89" cy="250.03" r="2.5" fill="#2563eb"/>
  <circle cx="131.55" cy="200.00" r="2.5" fill="#2563eb"/>
  <circle cx="133.22" cy="249.99" r="2.5" fill="#2563eb"/>
  <circle cx="134.88" cy="250.03" r="2.5" fill="#2563eb"/>
  <circle cx="136.54" cy="250.03" r="2.5" fill="#2563eb"/>
  <circle cx="138.21" cy="250.03" r="2.5" fill="#2563eb"/>
  <circle cx="139.87" cy="300.01" r="2.5" fill="#2563eb"/>
  <circle cx="141.54" cy="200.04" r="2.5" fill="#2563eb"/>
  <circle cx="143.20" cy="250.03" r="2.5" fill="#2563eb"/>
  <circle cx="144.86" cy="250.03" r="2.5" fill="#2563eb"/>
  <circle cx="146.53" cy="250.03" r="2.5" fill="#2563eb"/>
  <circle cx="148.19" cy="249.90" r="2.5" fill="#2563eb"/>
  <circle cx="149.85" cy="250.03" r="2.5" fill="#2563eb"/>
  <circle cx="151.52" cy="250.03" r="2.5" fill="#2563eb"/>
  <circle cx="153.18" cy="250.94" r="2.5" fill="#2563eb"/>
  <circle cx="154.84" cy="250.44" r="2.5" fill="#2563eb"/>
  <circle cx="156.51" cy="250.03" r="2.5" fill="#2563eb"/>
  <circle cx="158.17" cy="250.03" r="2.5" fill="#2563eb"/>
  <circle cx="159.84" cy="300.47" r="2.5" fill="#2563eb"/>
  <circle cx="161.50" cy="300.01" r="2.5" fill="#2563eb"/>
  <circle cx="163.16" cy="300.43" r="2.5" fill="#2563eb"/>
  <circle cx="164.83" cy="250.03" r="2.5" fill="#2563eb"/>
  <circle cx="166.49" cy="249.99" r="2.5" fill="#2563eb"/>
  <circle cx="168.15" cy="300.43" r="2.5" fill="#2563eb"/>
  <circle cx="169.82" cy="249.90" r="2.5" fill="#2563eb"/>
  <circle cx="171.48" cy="249.99" r="2.5" fill="#2563eb"/>
  <circle cx="173.14" cy="249.99" r="2.5" fill="#2563eb"/>
  <circle cx="174.81" cy="200.04" r="2.5" fill="#2563eb"/>
  <circle cx="176.47" cy="300.01" r="2.5" fill="#2563eb"/>
  <circle cx="178.14" cy="300.01" r="2.5" fill="#2563eb"/>
  <circle cx="179.80" cy="300.01" r="2.5" fill="#2563eb"/>
  <circle cx="181.46" cy="249.90" r="2.5" fill="#2563eb"/>
  <circle cx="183.13" cy="300.01" r="2.5" fill="#2563eb"/>
  <circle cx="184.79" cy="250.03" r="2.5" fill="#2563eb"/>
  <circle cx="186.45" cy="249.99" r="2.5" fill="#2563eb"/>
  <circle cx="188.12" cy="199.96" r="2.5" fill="#2563eb"/>
  <circle cx="189.78" cy="300.01" r="2.5" fill="#2563eb"/>
  <circle cx="191.44" cy="200.00" r="2.5" fill="#2563eb"/>
  <circle cx="193.11" cy="250.36" r="2.5" fill="#2563eb"/>
  <circle cx="194.77" cy="250.03" r="2.5" fill="#2563eb"/>
  <circle cx="196.44" cy="300.01" r="2.5" fill="#2563eb"/>
  <circle cx="198.10" cy="300.01" r="2.5" fill="#2563eb"/>
  <circle cx="199.76" cy="250.44" r="2.5" fill="#2563eb"/>
  <circle cx="201.43" cy="300.01" r="2.5" fill="#2563eb"/>
  <circle cx="203.09" cy="250.03" r="2.5" fill="#2563eb"/>
  <circle cx="204.75" cy="250.03" r="2.5" fill="#2563eb"/>
  <circle cx="206.42" cy="249.99" r="2.5" fill="#2563eb"/>
  <circle cx="208.08" cy="250.49" r="2.5" fill="#2563eb"/>
  <circle cx="209.74" cy="250.03" r="2.5" fill="#2563eb"/>
  <circle cx="211.41" cy="200.04" r="2.5" fill="#2563eb"/>
  <circle cx="213.07" cy="300.01" r="2.5" fill="#2563eb"/>
  <circle cx="214.73" cy="250.03" r="2.5" fill="#2563eb"/>
  <circle cx="216.40" cy="300.01" r="2.5" fill="#2563eb"/>
  <circle cx="218.06" cy="250.11" r="2.5" fill="#2563eb"/>
  <circle cx="219.73" cy="300.01" r="2.5" fill="#2563eb"/>
  <circle cx="221.39" cy="250.03" r="2.5" fill="#2563eb"/>
  <circle cx="223.05" cy="250.03" r="2.5" fill="#2563eb"/>
  <circle cx="224.72" cy="199.92" r="2.5" fill="#2563eb"/>
  <circle cx="226.38" cy="250.03" r="2.5" fill="#2563eb"/>
  <circle cx="228.04" cy="250.03" r="2.5" fill="#2563eb"/>
  <circle cx="229.71" cy="250.03" r="2.5" fill="#2563eb"/>
  <circle cx="231.37" cy="254.36" r="2.5" fill="#2563eb"/>
  <circle cx="233.03" cy="300.01" r="2.5" fill="#2563eb"/>
  <circle cx="234.70" cy="299.97" r="2.5" fill="#2563eb"/>
  <circle cx="236.36" cy="250.36" r="2.5" fill="#2563eb"/>
  <circle cx="238.03" cy="299.97" r="2.5" fill="#2563eb"/>
  <circle cx="239.69" cy="250.03" r="2.5" fill="#2563eb"/>
  <circle cx="241.35" cy="250.03" r="2.5" fill="#2563eb"/>
  <circle cx="243.02" cy="250.03" r="2.5" fill="#2563eb"/>
  <circle cx="244.68" cy="250.03" r="2.5" fill="#2563eb"/>
  <circle cx="246.34" cy="249.99" r="2.5" fill="#2563eb"/>
  <circle cx="248.01" cy="200.00" r="2.5" fill="#2563eb"/>
  <circle cx="249.67" cy="299.93" r="2.5" fill="#2563eb"/>
  <circle cx="251.33" cy="300.01" r="2.5" fill="#2563eb"/>
  <circle cx="253.00" cy="299.97" r="2.5" fill="#2563eb"/>
  <circle cx="254.66" cy="249.94" r="2.5" fill="#2563eb"/>
  <circle cx="256.33" cy="249.99" r="2.5" fill="#2563eb"/>
  <circle cx="257.99" cy="249.82" r="2.5" fill="#2563eb"/>
  <circle cx="259.65" cy="249.94" r="2.5" fill="#2563eb"/>
  <circle cx="261.32" cy="250.28" r="2.5" fill="#2563eb"/>
  <circle cx="262.98" cy="207.00" r="2.5" fill="#2563eb"/>
  <circle cx="264.64" cy="250.03" r="2.5" fill="#2563eb"/>
  <circle cx="266.31" cy="250.32" r="2.5" fill="#2563eb"/>
  <circle cx="267.97" cy="250.40" r="2.5" fill="#2563eb"/>
  <circle cx="269.63" cy="300.93" r="2.5" fill="#2563eb"/>
  <circle cx="271.30" cy="300.01" r="2.5" fill="#2563eb"/>
  <circle cx="272.96" cy="300.10" r="2.5" fill="#2563eb"/>
  <circle cx="274.63" cy="249.94" r="2.5" fill="#2563eb"/>
  <circle cx="276.29" cy="249.99" r="2.5" fill="#2563eb"/>
  <circle cx="277.95" cy="250.07" r="2.5" fill="#2563eb"/>
  <circle cx="279.62" cy="249.99" r="2.5" fill="#2563eb"/>
  <circle cx="281.28" cy="250.03" r="2.5" fill="#2563eb"/>
  <circle cx="282.94" cy="249.94" r="2.5" fill="#2563eb"/>
  <circle cx="284.61" cy="200.00" r="2.5" fill="#2563eb"/>
  <circle cx="286.27" cy="300.39" r="2.5" fill="#2563eb"/>
  <circle cx="287.93" cy="300.01" r="2.5" fill="#2563eb"/>
  <circle cx="289.60" cy="300.01" r="2.5" fill="#2563eb"/>
  <circle cx="291.26" cy="250.44" r="2.5" fill="#2563eb"/>
  <circle cx="292.93" cy="300.39" r="2.5" fill="#2563eb"/>
  <circle cx="294.59" cy="249.86" r="2.5" fill="#2563eb"/>
  <circle cx="296.25" cy="250.11" r="2.5" fill="#2563eb"/>
  <circle cx="297.92" cy="201.46" r="2.5" fill="#2563eb"/>
  <circle cx="299.58" cy="300.01" r="2.5" fill="#2563eb"/>
  <circle cx="301.24" cy="200.83" r="2.5" fill="#2563eb"/>
  <circle cx="302.91" cy="250.03" r="2.5" fill="#2563eb"/>
  <circle cx="304.57" cy="249.99" r="2.5" fill="#2563eb"/>
  <circle cx="306.23" cy="300.26" r="2.5" fill="#2563eb"/>
  <circle cx="307.90" cy="300.01" r="2.5" fill="#2563eb"/>
  <circle cx="309.56" cy="300.01" r="2.5" fill="#2563eb"/>
  <circle cx="311.22" cy="250.03" r="2.5" fill="#2563eb"/>
  <circle cx="312.89" cy="250.03" r="2.5" fill="#2563eb"/>
  <circle cx="314.55" cy="250.03" r="2.5" fill="#2563eb"/>
  <circle cx="316.22" cy="250.03" r="2.5" fill="#2563eb"/>
  <circle cx="317.88" cy="249.99" r="2.5" fill="#2563eb"/>
  <circle cx="319.54" cy="250.03" r="2.5" fill="#2563eb"/>
  <circle cx="321.21" cy="200.00" r="2.5" fill="#2563eb"/>
  <circle cx="322.87" cy="300.26" r="2.5" fill="#2563eb"/>
  <circle cx="324.53" cy="249.99" r="2.5" fill="#2563eb"/>
  <circle cx="326.20" cy="300.01" r="2.5" fill="#2563eb"/>
  <circle cx="327.86" cy="249.94" r="2.5" fill="#2563eb"/>
  <circle cx="329.52" cy="250.03" r="2.5" fill="#2563eb"/>
  <circle cx="331.19" cy="250.03" r="2.5" fill="#2563eb"/>
  <circle cx="332.85" cy="250.03" r="2.5" fill="#2563eb"/>
  <circle cx="334.52" cy="200.04" r="2.5" fill="#2563eb"/>
  <circle cx="336.18" cy="300.01" r="2.5" fill="#2563eb"/>
  <circle cx="337.84" cy="249.90" r="2.5" fill="#2563eb"/>
  <circle cx="339.51" cy="300.01" r="2.5" fill="#2563eb"/>
  <circle cx="341.17" cy="300.01" r="2.5" fill="#2563eb"/>
  <circle cx="342.83" cy="300.06" r="2.5" fill="#2563eb"/>
  <circle cx="344.50" cy="300.01" r="2.5" fill="#2563eb"/>
  <circle cx="346.16" cy="300.01" r="2.5" fill="#2563eb"/>
  <circle cx="347.82" cy="243.95" r="2.5" fill="#2563eb"/>
  <circle cx="349.49" cy="249.94" r="2.5" fill="#2563eb"/>
  <circle cx="351.15" cy="299.97" r="2.5" fill="#2563eb"/>
  <circle cx="352.82" cy="300.01" r="2.5" fill="#2563eb"/>
  <circle cx="354.48" cy="300.01" r="2.5" fill="#2563eb"/>
  <circle cx="356.14" cy="250.03" r="2.5" fill="#2563eb"/>
  <circle cx="357.81" cy="300.01" r="2.5" fill="#2563eb"/>
  <circle cx="359.47" cy="300.01" r="2.5" fill="#2563eb"/>
  <circle cx="361.13" cy="299.97" r="2.5" fill="#2563eb"/>
  <circle cx="362.80" cy="249.99" r="2.5" fill="#2563eb"/>
  <circle cx="364.46" cy="300.01" r="2.5" fill="#2563eb"/>
  <circle cx="366.12" cy="299.93" r="2.5" fill="#2563eb"/>
  <circle cx="367.79" cy="300.01" r="2.5" fill="#2563eb"/>
  <circle cx="369.45" cy="299.93" r="2.5" fill="#2563eb"/>
  <circle cx="371.12" cy="300.01" r="2.5" fill="#2563eb"/>
  <circle cx="372.78" cy="300.01" r="2.5" fill="#2563eb"/>
  <circle cx="374.44" cy="299.89" r="2.5" fill="#2563eb"/>
  <circle cx="376.11" cy="299.97" r="2.5" fill="#2563eb"/>
  <circle cx="377.77" cy="250.03" r="2.5" fill="#2563eb"/>
  <circle cx="379.43" cy="299.93" r="2.5" fill="#2563eb"/>
  <circle cx="381.10" cy="299.89" r="2.5" fill="#2563eb"/>
  <circle cx="382.76" cy="299.97" r="2.5" fill="#2563eb"/>
  <circle cx="384.42" cy="249.94" r="2.5" fill="#2563eb"/>
  <circle cx="386.09" cy="300.01" r="2.5" fill="#2563eb"/>
  <circle cx="387.75" cy="300.01" r="2.5" fill="#2563eb"/>
  <circle cx="389.41" cy="299.97" r="2.5" fill="#2563eb"/>
  <circle cx="391.08" cy="249.99" r="2.5" fill="#2563eb"/>
  <circle cx="392.74" cy="299.97" r="2.5" fill="#2563eb"/>
  <circle cx="394.41" cy="299.97" r="2.5" fill="#2563eb"/>
  <circle cx="396.07" cy="300.06" r="2.5" fill="#2563eb"/>
  <circle cx="397.73" cy="300.06" r="2.5" fill="#2563eb"/>
  <circle cx="399.40" cy="299.93" r="2.5" fill="#2563eb"/>
  <circle cx="401.06" cy="300.01" r="2.5" fill="#2563eb"/>
  <circle cx="402.72" cy="300.01" r="2.5" fill="#2563eb"/>
  <circle cx="404.39" cy="299.93" r="2.5" fill="#2563eb"/>
  <circle cx="406.05" cy="300.01" r="2.5" fill="#2563eb"/>
  <circle cx="407.71" cy="300.01" r="2.5" fill="#2563eb"/>
  <circle cx="409.38" cy="299.97" r="2.5" fill="#2563eb"/>
  <circle cx="411.04" cy="300.01" r="2.5" fill="#2563eb"/>
  <circle cx="412.71" cy="300.01" r="2.5" fill="#2563eb"/>
  <circle cx="414.37" cy="300.01" r="2.5" fill="#2563eb"/>
  <circle cx="416.03" cy="300.01" r="2.5" fill="#2563eb"/>
  <circle cx="417.70" cy="249.86" r="2.5" fill="#2563eb"/>
  <circle cx="419.36" cy="300.01" r="2.5" fill="#2563eb"/>
  <circle cx="421.02" cy="300.10" r="2.5" fill="#2563eb"/>
  <circle cx="422.69" cy="299.93" r="2.5" fill="#2563eb"/>
  <circle cx="424.35" cy="300.01" r="2.5" fill="#2563eb"/>
  <circle cx="426.01" cy="299.93" r="2.5" fill="#2563eb"/>
  <circle cx="427.68" cy="300.01" r="2.5" fill="#2563eb"/>
  <circle cx="429.34" cy="300.01" r="2.5" fill="#2563eb"/>
  <circle cx="431.01" cy="300.01" r="2.5" fill="#2563eb"/>
  <circle cx="432.67" cy="300.01" r="2.5" fill="#2563eb"/>
  <circle cx="434.33" cy="300.01" r="2.5" fill="#2563eb"/>
  <circle cx="436.00" cy="299.97" r="2.5" fill="#2563eb"/>
  <circle cx="437.66" cy="300.01" r="2.5" fill="#2563eb"/>
  <circle cx="439.32" cy="300.01" r="2.5" fill="#2563eb"/>
  <circle cx="440.99" cy="300.01" r="2.5" fill="#2563eb"/>
  <circle cx="442.65" cy="300.01" r="2.5" fill="#2563eb"/>
  <circle cx="444.31" cy="250.03" r="2.5" fill="#2563eb"/>
  <circle cx="445.98" cy="300.01" r="2.5" fill="#2563eb"/>
  <circle cx="447.64" cy="300.01" r="2.5" fill="#2563eb"/>
  <circle cx="449.31" cy="299.97" r="2.5" fill="#2563eb"/>
  <circle cx="450.97" cy="300.01" r="2.5" fill="#2563eb"/>
  <circle cx="452.63" cy="300.01" r="2.5" fill="#2563eb"/>
  <circle cx="454.30" cy="299.97" r="2.5" fill="#2563eb"/>
  <circle cx="455.96" cy="299.97" r="2.5" fill="#2563eb"/>
  <circle cx="457.62" cy="300.01" r="2.5" fill="#2563eb"/>
  <circle cx="459.29" cy="299.97" r="2.5" fill="#2563eb"/>
  <circle cx="460.95" cy="300.01" r="2.5" fill="#2563eb"/>
  <circle cx="462.61" cy="299.93" r="2.5" fill="#2563eb"/>
  <circle cx="464.28" cy="300.01" r="2.5" fill="#2563eb"/>
  <circle cx="465.94" cy="250.03" r="2.5" fill="#2563eb"/>
  <circle cx="467.61" cy="300.01" r="2.5" fill="#2563eb"/>
  <circle cx="469.27" cy="300.01" r="2.5" fill="#2563eb"/>
  <circle cx="470.93" cy="300.01" r="2.5" fill="#2563eb"/>
  <circle cx="472.60" cy="300.01" r="2.5" fill="#2563eb"/>
  <circle cx="474.26" cy="300.01" r="2.5" fill="#2563eb"/>
  <circle cx="475.92" cy="299.89" r="2.5" fill="#2563eb"/>
  <circle cx="477.59" cy="300.01" r="2.5" fill="#2563eb"/>
  <circle cx="479.25" cy="300.01" r="2.5" fill="#2563eb"/>
  <circle cx="480.91" cy="250.07" r="2.5" fill="#2563eb"/>
  <circle cx="482.58" cy="300.01" r="2.5" fill="#2563eb"/>
  <circle cx="484.24" cy="299.93" r="2.5" fill="#2563eb"/>
  <circle cx="485.90" cy="300.01" r="2.5" fill="#2563eb"/>
  <circle cx="487.57" cy="299.97" r="2.5" fill="#2563eb"/>
  <circle cx="489.23" cy="299.97" r="2.5" fill="#2563eb"/>
  <circle cx="490.90" cy="299.97" r="2.5" fill="#2563eb"/>
  <circle cx="492.56" cy="250.03" r="2.5" fill="#2563eb"/>
  <circle cx="494.22" cy="300.01" r="2.5" fill="#2563eb"/>
  <circle cx="495.89" cy="300.01" r="2.5" fill="#2563eb"/>
  <circle cx="497.55" cy="300.01" r="2.5" fill="#2563eb"/>
  <circle cx="499.21" cy="300.01" r="2.5" fill="#2563eb"/>
  <circle cx="500.88" cy="299.97" r="2.5" fill="#2563eb"/>
  <circle cx="502.54" cy="300.01" r="2.5" fill="#2563eb"/>
  <circle cx="504.20" cy="299.97" r="2.5" fill="#2563eb"/>
  <circle cx="505.87" cy="300.01" r="2.5" fill="#2563eb"/>
  <circle cx="507.53" cy="299.97" r="2.5" fill="#2563eb"/>
  <circle cx="509.20" cy="249.90" r="2.5" fill="#2563eb"/>
  <circle cx="510.86" cy="300.01" r="2.5" fill="#2563eb"/>
  <circle cx="512.52" cy="300.01" r="2.5" fill="#2563eb"/>
  <circle cx="514.19" cy="299.89" r="2.5" fill="#2563eb"/>
  <circle cx="515.85" cy="299.97" r="2.5" fill="#2563eb"/>
  <circle cx="517.51" cy="299.97" r="2.5" fill="#2563eb"/>
  <circle cx="519.18" cy="249.99" r="2.5" fill="#2563eb"/>
  <circle cx="520.84" cy="299.97" r="2.5" fill="#2563eb"/>
  <circle cx="522.50" cy="299.89" r="2.5" fill="#2563eb"/>
  <circle cx="524.17" cy="300.01" r="2.5" fill="#2563eb"/>
  <circle cx="525.83" cy="299.97" r="2.5" fill="#2563eb"/>
  <circle cx="527.50" cy="299.97" r="2.5" fill="#2563eb"/>
  <circle cx="529.16" cy="300.01" r="2.5" fill="#2563eb"/>
  <circle cx="530.82" cy="299.97" r="2.5" fill="#2563eb"/>
  <circle cx="532.49" cy="249.99" r="2.5" fill="#2563eb"/>
  <circle cx="534.15" cy="299.97" r="2.5" fill="#2563eb"/>
  <circle cx="535.81" cy="299.97" r="2.5" fill="#2563eb"/>
  <circle cx="537.48" cy="300.06" r="2.5" fill="#2563eb"/>
  <circle cx="539.14" cy="300.06" r="2.5" fill="#2563eb"/>
  <circle cx="540.80" cy="249.94" r="2.5" fill="#2563eb"/>
  <circle cx="542.47" cy="300.01" r="2.5" fill="#2563eb"/>
  <circle cx="544.13" cy="299.93" r="2.5" fill="#2563eb"/>
  <circle cx="545.80" cy="300.01" r="2.5" fill="#2563eb"/>
  <circle cx="547.46" cy="300.01" r="2.5" fill="#2563eb"/>
  <circle cx="549.12" cy="249.99" r="2.5" fill="#2563eb"/>
  <circle cx="550.79" cy="300.01" r="2.5" fill="#2563eb"/>
  <circle cx="552.45" cy="300.01" r="2.5" fill="#2563eb"/>
  <circle cx="554.11" cy="300.01" r="2.5" fill="#2563eb"/>
  <circle cx="555.78" cy="299.93" r="2.5" fill="#2563eb"/>
  <circle cx="557.44" cy="299.93" r="2.5" fill="#2563eb"/>
  <circle cx="559.10" cy="300.01" r="2.5" fill="#2563eb"/>
  <circle cx="560.77" cy="300.01" r="2.5" fill="#2563eb"/>
  <circle cx="562.43" cy="249.94" r="2.5" fill="#2563eb"/>
  <circle cx="564.10" cy="299.97" r="2.5" fill="#2563eb"/>
  <circle cx="565.76" cy="299.97" r="2.5" fill="#2563eb"/>
  <circle cx="567.42" cy="300.01" r="2.5" fill="#2563eb"/>
  <circle cx="569.09" cy="300.01" r="2.5" fill="#2563eb"/>
  <circle cx="570.75" cy="300.01" r="2.5" fill="#2563eb"/>
  <circle cx="572.41" cy="249.99" r="2.5" fill="#2563eb"/>
  <circle cx="574.08" cy="300.01" r="2.5" fill="#2563eb"/>
  <circle cx="575.74" cy="300.01" r="2.5" fill="#2563eb"/>
  <circle cx="577.40" cy="300.01" r="2.5" fill="#2563eb"/>
  <circle cx="579.07" cy="250.03" r="2.5" fill="#2563eb"/>
  <circle cx="580.73" cy="300.01" r="2.5" fill="#2563eb"/>
  <circle cx="582.39" cy="300.01" r="2.5" fill="#2563eb"/>
  <circle cx="584.06" cy="300.01" r="2.5" fill="#2563eb"/>
  <circle cx="585.72" cy="299.97" r="2.5" fill="#2563eb"/>
  <circle cx="587.39" cy="300.01" r="2.5" fill="#2563eb"/>
  <circle cx="589.05" cy="300.01" r="2.5" fill="#2563eb"/>
  <circle cx="590.71" cy="299.97" r="2.5" fill="#2563eb"/>
  <circle cx="592.38" cy="299.97" r="2.5" fill="#2563eb"/>
  <circle cx="594.04" cy="300.01" r="2.5" fill="#2563eb"/>
  <circle cx="595.70" cy="300.01" r="2.5" fill="#2563eb"/>
  <circle cx="597.37" cy="299.97" r="2.5" fill="#2563eb"/>
  <circle cx="599.03" cy="299.93" r="2.5" fill="#2563eb"/>
  <circle cx="600.69" cy="300.01" r="2.5" fill="#2563eb"/>
  <circle cx="602.36" cy="300.06" r="2.5" fill="#2563eb"/>
  <circle cx="604.02" cy="299.97" r="2.5" fill="#2563eb"/>
  <circle cx="605.69" cy="300.01" r="2.5" fill="#2563eb"/>
  <circle cx="607.35" cy="250.03" r="2.5" fill="#2563eb"/>
  <circle cx="609.01" cy="250.03" r="2.5" fill="#2563eb"/>
  <circle cx="610.68" cy="299.93" r="2.5" fill="#2563eb"/>
  <circle cx="612.34" cy="299.97" r="2.5" fill="#2563eb"/>
  <circle cx="614.00" cy="300.01" r="2.5" fill="#2563eb"/>
  <circle cx="615.67" cy="300.01" r="2.5" fill="#2563eb"/>
  <circle cx="617.33" cy="300.06" r="2.5" fill="#2563eb"/>
  <circle cx="618.99" cy="300.01" r="2.5" fill="#2563eb"/>
  <circle cx="620.66" cy="299.93" r="2.5" fill="#2563eb"/>
  <circle cx="622.32" cy="300.01" r="2.5" fill="#2563eb"/>
  <circle cx="623.99" cy="300.01" r="2.5" fill="#2563eb"/>
  <circle cx="625.65" cy="299.97" r="2.5" fill="#2563eb"/>
  <circle cx="627.31" cy="299.97" r="2.5" fill="#2563eb"/>
  <circle cx="628.98" cy="300.01" r="2.5" fill="#2563eb"/>
  <circle cx="630.64" cy="250.03" r="2.5" fill="#2563eb"/>
  <circle cx="632.30" cy="300.01" r="2.5" fill="#2563eb"/>
  <circle cx="633.97" cy="300.01" r="2.5" fill="#2563eb"/>
  <circle cx="635.63" cy="300.01" r="2.5" fill="#2563eb"/>
  <circle cx="637.29" cy="299.97" r="2.5" fill="#2563eb"/>
  <circle cx="638.96" cy="300.01" r="2.5" fill="#2563eb"/>
  <circle cx="640.62" cy="299.97" r="2.5" fill="#2563eb"/>
  <circle cx="642.29" cy="300.01" r="2.5" fill="#2563eb"/>
  <circle cx="643.95" cy="299.97" r="2.5" fill="#2563eb"/>
  <circle cx="645.61" cy="299.97" r="2.5" fill="#2563eb"/>
  <circle cx="647.28" cy="299.93" r="2.5" fill="#2563eb"/>
  <circle cx="648.94" cy="300.01" r="2.5" fill="#2563eb"/>
  <circle cx="650.60" cy="300.01" r="2.5" fill="#2563eb"/>
  <circle cx="652.27" cy="299.89" r="2.5" fill="#2563eb"/>
  <circle cx="653.93" cy="299.97" r="2.5" fill="#2563eb"/>
  <circle cx="655.59" cy="299.97" r="2.5" fill="#2563eb"/>
  <circle cx="657.26" cy="300.06" r="2.5" fill="#2563eb"/>
  <circle cx="658.92" cy="249.90" r="2.5" fill="#2563eb"/>
  <circle cx="660.59" cy="299.89" r="2.5" fill="#2563eb"/>
  <circle cx="662.25" cy="300.01" r="2.5" fill="#2563eb"/>
  <circle cx="663.91" cy="299.97" r="2.5" fill="#2563eb"/>
  <circle cx="665.58" cy="299.97" r="2.5" fill="#2563eb"/>
  <circle cx="667.24" cy="299.97" r="2.5" fill="#2563eb"/>
  <circle cx="668.90" cy="300.01" r="2.5" fill="#2563eb"/>
  <circle cx="670.57" cy="300.01" r="2.5" fill="#2563eb"/>
  <circle cx="672.23" cy="299.97" r="2.5" fill="#2563eb"/>
  <circle cx="673.89" cy="299.97" r="2.5" fill="#2563eb"/>
  <circle cx="675.56" cy="299.97" r="2.5" fill="#2563eb"/>
  <circle cx="677.22" cy="250.03" r="2.5" fill="#2563eb"/>
  <circle cx="678.88" cy="299.93" r="2.5" fill="#2563eb"/>
  <circle cx="680.55" cy="300.01" r="2.5" fill="#2563eb"/>
  <circle cx="682.21" cy="300.01" r="2.5" fill="#2563eb"/>
  <circle cx="683.88" cy="299.93" r="2.5" fill="#2563eb"/>
  <circle cx="685.54" cy="300.01" r="2.5" fill="#2563eb"/>
  <circle cx="687.20" cy="300.01" r="2.5" fill="#2563eb"/>
  <circle cx="688.87" cy="299.97" r="2.5" fill="#2563eb"/>
  <circle cx="690.53" cy="300.01" r="2.5" fill="#2563eb"/>
  <circle cx="692.19" cy="300.01" r="2.5" fill="#2563eb"/>
  <circle cx="693.86" cy="300.06" r="2.5" fill="#2563eb"/>
  <circle cx="695.52" cy="300.01" r="2.5" fill="#2563eb"/>
  <circle cx="697.18" cy="299.97" r="2.5" fill="#2563eb"/>
  <circle cx="698.85" cy="299.89" r="2.5" fill="#2563eb"/>
  <circle cx="700.51" cy="300.01" r="2.5" fill="#2563eb"/>
  <circle cx="702.18" cy="300.01" r="2.5" fill="#2563eb"/>
  <circle cx="703.84" cy="249.94" r="2.5" fill="#2563eb"/>
  <circle cx="705.50" cy="249.94" r="2.5" fill="#2563eb"/>
  <circle cx="707.17" cy="300.01" r="2.5" fill="#2563eb"/>
  <circle cx="708.83" cy="300.01" r="2.5" fill="#2563eb"/>
  <circle cx="710.49" cy="300.01" r="2.5" fill="#2563eb"/>
  <circle cx="712.16" cy="300.01" r="2.5" fill="#2563eb"/>
  <circle cx="713.82" cy="299.97" r="2.5" fill="#2563eb"/>
  <circle cx="715.48" cy="250.03" r="2.5" fill="#2563eb"/>
  <circle cx="717.15" cy="300.01" r="2.5" fill="#2563eb"/>
  <circle cx="718.81" cy="300.01" r="2.5" fill="#2563eb"/>
  <circle cx="720.48" cy="300.01" r="2.5" fill="#2563eb"/>
  <circle cx="722.14" cy="300.01" r="2.5" fill="#2563eb"/>
  <circle cx="723.80" cy="250.03" r="2.5" fill="#2563eb"/>
  <circle cx="725.47" cy="249.99" r="2.5" fill="#2563eb"/>
  <circle cx="727.13" cy="300.01" r="2.5" fill="#2563eb"/>
  <circle cx="728.79" cy="299.97" r="2.5" fill="#2563eb"/>
  <circle cx="730.46" cy="300.01" r="2.5" fill="#2563eb"/>
  <circle cx="732.12" cy="299.97" r="2.5" fill="#2563eb"/>
  <circle cx="733.78" cy="300.01" r="2.5" fill="#2563eb"/>
  <circle cx="735.45" cy="299.97" r="2.5" fill="#2563eb"/>
  <circle cx="737.11" cy="299.97" r="2.5" fill="#2563eb"/>
  <circle cx="738.78" cy="299.97" r="2.5" fill="#2563eb"/>
  <circle cx="740.44" cy="300.06" r="2.5" fill="#2563eb"/>
  <circle cx="742.10" cy="249.99" r="2.5" fill="#2563eb"/>
  <circle cx="743.77" cy="300.01" r="2.5" fill="#2563eb"/>
  <circle cx="745.43" cy="250.03" r="2.5" fill="#2563eb"/>
  <circle cx="747.09" cy="249.94" r="2.5" fill="#2563eb"/>
  <circle cx="748.76" cy="249.99" r="2.5" fill="#2563eb"/>
  <circle cx="750.42" cy="300.01" r="2.5" fill="#2563eb"/>
  <circle cx="752.08" cy="300.06" r="2.5" fill="#2563eb"/>
  <circle cx="753.75" cy="300.01" r="2.5" fill="#2563eb"/>
  <circle cx="755.41" cy="299.97" r="2.5" fill="#2563eb"/>
  <circle cx="757.07" cy="299.97" r="2.5" fill="#2563eb"/>
  <circle cx="758.74" cy="300.01" r="2.5" fill="#2563eb"/>
  <circle cx="760.40" cy="299.93" r="2.5" fill="#2563eb"/>
  <circle cx="762.07" cy="299.89" r="2.5" fill="#2563eb"/>
  <circle cx="763.73" cy="299.89" r="2.5" fill="#2563eb"/>
  <circle cx="765.39" cy="299.89" r="2.5" fill="#2563eb"/>
  <circle cx="767.06" cy="299.89" r="2.5" fill="#2563eb"/>
  <circle cx="768.72" cy="299.85" r="2.5" fill="#2563eb"/>
  <circle cx="770.38" cy="299.85" r="2.5" fill="#2563eb"/>
  <circle cx="772.05" cy="299.89" r="2.5" fill="#2563eb"/>
  <circle cx="773.71" cy="299.81" r="2.5" fill="#2563eb"/>
  <circle cx="775.37" cy="299.81" r="2.5" fill="#2563eb"/>
  <circle cx="777.04" cy="299.81" r="2.5" fill="#2563eb"/>
  <circle cx="778.70" cy="299.76" r="2.5" fill="#2563eb"/>
  <circle cx="780.37" cy="299.76" r="2.5" fill="#2563eb"/>
  <circle cx="782.03" cy="299.76" r="2.5" fill="#2563eb"/>
  <circle cx="783.69" cy="299.72" r="2.5" fill="#2563eb"/>
  <circle cx="785.36" cy="299.68" r="2.5" fill="#2563eb"/>
  <circle cx="787.02" cy="299.60" r="2.5" fill="#2563eb"/>
  <circle cx="788.68" cy="299.60" r="2.5" fill="#2563eb"/>
  <circle cx="790.35" cy="299.60" r="2.5" fill="#2563eb"/>
  <circle cx="792.01" cy="299.56" r="2.5" fill="#2563eb"/>
  <circle cx="793.67" cy="299.47" r="2.5" fill="#2563eb"/>
  <circle cx="795.34" cy="299.43" r="2.5" fill="#2563eb"/>
  <circle cx="797.00" cy="299.43" r="2.5" fill="#2563eb"/>
  <circle cx="798.67" cy="299.39" r="2.5" fill="#2563eb"/>
  <circle cx="800.33" cy="299.47" r="2.5" fill="#2563eb"/>
  <circle cx="801.99" cy="259.82" r="2.5" fill="#2563eb"/>
  <circle cx="803.66" cy="338.96" r="2.5" fill="#2563eb"/>
  <circle cx="805.32" cy="299.31" r="2.5" fill="#2563eb"/>
  <circle cx="806.98" cy="299.31" r="2.5" fill="#2563eb"/>
  <circle cx="808.65" cy="299.26" r="2.5" fill="#2563eb"/>
  <circle cx="810.31" cy="299.68" r="2.5" fill="#2563eb"/>
  <circle cx="811.97" cy="299.68" r="2.5" fill="#2563eb"/>
  <circle cx="813.64" cy="299.68" r="2.5" fill="#2563eb"/>
  <circle cx="815.30" cy="299.64" r="2.5" fill="#2563eb"/>
  <circle cx="816.97" cy="299.14" r="2.5" fill="#2563eb"/>
  <circle cx="818.63" cy="299.14" r="2.5" fill="#2563eb"/>
  <circle cx="820.29" cy="299.10" r="2.5" fill="#2563eb"/>
  <circle cx="821.96" cy="299.10" r="2.5" fill="#2563eb"/>
  <circle cx="823.62" cy="299.10" r="2.5" fill="#2563eb"/>
  <circle cx="825.28" cy="248.07" r="2.5" fill="#2563eb"/>
  <circle cx="826.95" cy="299.06" r="2.5" fill="#2563eb"/>
  <circle cx="828.61" cy="299.06" r="2.5" fill="#2563eb"/>
  <circle cx="830.27" cy="299.06" r="2.5" fill="#2563eb"/>
  <circle cx="831.94" cy="299.06" r="2.5" fill="#2563eb"/>
  <circle cx="833.60" cy="299.06" r="2.5" fill="#2563eb"/>
  <circle cx="835.27" cy="298.97" r="2.5" fill="#2563eb"/>
  <circle cx="836.93" cy="298.97" r="2.5" fill="#2563eb"/>
  <circle cx="838.59" cy="298.93" r="2.5" fill="#2563eb"/>
  <circle cx="840.26" cy="298.97" r="2.5" fill="#2563eb"/>
  <circle cx="841.92" cy="298.93" r="2.5" fill="#2563eb"/>
  <circle cx="843.58" cy="298.89" r="2.5" fill="#2563eb"/>
  <circle cx="845.25" cy="298.89" r="2.5" fill="#2563eb"/>
  <circle cx="846.91" cy="298.89" r="2.5" fill="#2563eb"/>
  <circle cx="848.57" cy="298.89" r="2.5" fill="#2563eb"/>
  <circle cx="850.24" cy="247.78" r="2.5" fill="#2563eb"/>
  <circle cx="851.90" cy="298.89" r="2.5" fill="#2563eb"/>
  <circle cx="853.56" cy="298.89" r="2.5" fill="#2563eb"/>
  <circle cx="855.23" cy="298.85" r="2.5" fill="#2563eb"/>
  <circle cx="856.89" cy="298.85" r="2.5" fill="#2563eb"/>
  <circle cx="858.56" cy="298.81" r="2.5" fill="#2563eb"/>
  <circle cx="860.22" cy="298.81" r="2.5" fill="#2563eb"/>
  <circle cx="861.88" cy="298.81" r="2.5" fill="#2563eb"/>
  <circle cx="863.55" cy="298.81" r="2.5" fill="#2563eb"/>
  <circle cx="865.21" cy="298.81" r="2.5" fill="#2563eb"/>
  <circle cx="866.87" cy="298.81" r="2.5" fill="#2563eb"/>
  <circle cx="868.54" cy="298.81" r="2.5" fill="#2563eb"/>
  <circle cx="870.20" cy="298.81" r="2.5" fill="#2563eb"/>
  <circle cx="871.86" cy="298.81" r="2.5" fill="#2563eb"/>
  <circle cx="873.53" cy="298.72" r="2.5" fill="#2563eb"/>
  <circle cx="875.19" cy="247.45" r="2.5" fill="#2563eb"/>
  <circle cx="876.86" cy="247.45" r="2.5" fill="#2563eb"/>
  <circle cx="878.52" cy="298.72" r="2.5" fill="#2563eb"/>
  <circle cx="880.18" cy="298.72" r="2.5" fill="#2563eb"/>
  <circle cx="881.85" cy="298.72" r="2.5" fill="#2563eb"/>
  <circle cx="883.51" cy="298.72" r="2.5" fill="#2563eb"/>
  <circle cx="885.17" cy="298.72" r="2.5" fill="#2563eb"/>
  <circle cx="886.84" cy="298.72" r="2.5" fill="#2563eb"/>
  <circle cx="888.50" cy="247.36" r="2.5" fill="#2563eb"/>
  <circle cx="890.16" cy="298.68" r="2.5" fill="#2563eb"/>
  <circle cx="891.83" cy="247.36" r="2.5" fill="#2563eb"/>
  <circle cx="893.49" cy="247.36" r="2.5" fill="#2563eb"/>
  <circle cx="895.16" cy="247.36" r="2.5" fill="#2563eb"/>
  <circle cx="896.82" cy="298.68" r="2.5" fill="#2563eb"/>
  <circle cx="898.48" cy="298.68" r="2.5" fill="#2563eb"/>
  <circle cx="900.15" cy="298.68" r="2.5" fill="#2563eb"/>
  <circle cx="901.81" cy="298.68" r="2.5" fill="#2563eb"/>
  <circle cx="903.47" cy="298.68" r="2.5" fill="#2563eb"/>
  <circle cx="905.14" cy="341.67" r="2.5" fill="#2563eb"/>
  <circle cx="906.80" cy="307.01" r="2.5" fill="#2563eb"/>
  <circle cx="908.46" cy="298.68" r="2.5" fill="#2563eb"/>
  <circle cx="910.13" cy="298.68" r="2.5" fill="#2563eb"/>
  <circle cx="911.79" cy="298.68" r="2.5" fill="#2563eb"/>
  <circle cx="913.46" cy="247.36" r="2.5" fill="#2563eb"/>
  <circle cx="915.12" cy="298.64" r="2.5" fill="#2563eb"/>
  <circle cx="916.78" cy="247.36" r="2.5" fill="#2563eb"/>
  <circle cx="918.45" cy="247.28" r="2.5" fill="#2563eb"/>
  <circle cx="920.11" cy="247.20" r="2.5" fill="#2563eb"/>
  <circle cx="921.77" cy="298.60" r="2.5" fill="#2563eb"/>
  <circle cx="923.44" cy="298.60" r="2.5" fill="#2563eb"/>
  <circle cx="925.10" cy="247.03" r="2.5" fill="#2563eb"/>
  <circle cx="926.76" cy="298.51" r="2.5" fill="#2563eb"/>
  <circle cx="928.43" cy="298.51" r="2.5" fill="#2563eb"/>
  <circle cx="930.09" cy="298.51" r="2.5" fill="#2563eb"/>
  <circle cx="931.76" cy="298.51" r="2.5" fill="#2563eb"/>
  <circle cx="933.42" cy="298.51" r="2.5" fill="#2563eb"/>
  <circle cx="935.08" cy="298.51" r="2.5" fill="#2563eb"/>
  <circle cx="936.75" cy="298.51" r="2.5" fill="#2563eb"/>
  <circle cx="938.41" cy="298.51" r="2.5" fill="#2563eb"/>
  <circle cx="940.07" cy="298.51" r="2.5" fill="#2563eb"/>
  <circle cx="941.74" cy="298.51" r="2.5" fill="#2563eb"/>
  <circle cx="943.40" cy="298.51" r="2.5" fill="#2563eb"/>
  <circle cx="945.06" cy="298.51" r="2.5" fill="#2563eb"/>
  <circle cx="946.73" cy="298.51" r="2.5" fill="#2563eb"/>
  <circle cx="948.39" cy="298.51" r="2.5" fill="#2563eb"/>
  <circle cx="950.05" cy="298.51" r="2.5" fill="#2563eb"/>
  <circle cx="951.72" cy="298.51" r="2.5" fill="#2563eb"/>
  <circle cx="953.38" cy="298.51" r="2.5" fill="#2563eb"/>
  <circle cx="955.05" cy="298.51" r="2.5" fill="#2563eb"/>
  <circle cx="956.71" cy="298.51" r="2.5" fill="#2563eb"/>
  <circle cx="958.37" cy="298.51" r="2.5" fill="#2563eb"/>
  <circle cx="960.04" cy="298.51" r="2.5" fill="#2563eb"/>
  <circle cx="961.70" cy="298.51" r="2.5" fill="#2563eb"/>
  <circle cx="963.36" cy="298.51" r="2.5" fill="#2563eb"/>
  <circle cx="965.03" cy="298.51" r="2.5" fill="#2563eb"/>
  <circle cx="966.69" cy="298.51" r="2.5" fill="#2563eb"/>
  <circle cx="968.35" cy="298.51" r="2.5" fill="#2563eb"/>
  <circle cx="970.02" cy="298.47" r="2.5" fill="#2563eb"/>
  <circle cx="971.68" cy="298.51" r="2.5" fill="#2563eb"/>
  <circle cx="973.35" cy="298.51" r="2.5" fill="#2563eb"/>
  <circle cx="975.01" cy="298.47" r="2.5" fill="#2563eb"/>
  <circle cx="976.67" cy="298.51" r="2.5" fill="#2563eb"/>
  <circle cx="978.34" cy="298.47" r="2.5" fill="#2563eb"/>
  <circle cx="980.00" cy="298.51" r="2.5" fill="#2563eb"/>
</svg>
