<?xml version="1.0" encoding="UTF-8"?>
<svg xmlns="http://www.w3.org/2000/svg" width="1000" height="420" viewBox="0 0 1000 420">
  <rect width="100%" height="100%" fill="#ffffff"/>
  <text x="70" y="28" font-size="20" font-weight="600">수집 시점 기준 - 시간별 스냅샷</text>
  <text x="70" y="402" font-size="12" fill="#555">스냅샷 수</text>
  <line x1="70" y1="350.00" x2="980" y2="350.00" stroke="#e5e7eb" stroke-width="1"/>
  <text x="62" y="354.00" font-size="11" fill="#6b7280" text-anchor="end">0</text>
  <line x1="70" y1="290.00" x2="980" y2="290.00" stroke="#e5e7eb" stroke-width="1"/>
  <text x="62" y="294.00" font-size="11" fill="#6b7280" text-anchor="end">1,440</text>
  <line x1="70" y1="230.00" x2="980" y2="230.00" stroke="#e5e7eb" stroke-width="1"/>
  <text x="62" y="234.00" font-size="11" fill="#6b7280" text-anchor="end">2,880</text>
  <line x1="70" y1="170.00" x2="980" y2="170.00" stroke="#e5e7eb" stroke-width="1"/>
  <text x="62" y="174.00" font-size="11" fill="#6b7280" text-anchor="end">4,321</text>
  <line x1="70" y1="110.00" x2="980" y2="110.00" stroke="#e5e7eb" stroke-width="1"/>
  <text x="62" y="114.00" font-size="11" fill="#6b7280" text-anchor="end">5,761</text>
  <line x1="70" y1="50.00" x2="980" y2="50.00" stroke="#e5e7eb" stroke-width="1"/>
  <text x="62" y="54.00" font-size="11" fill="#6b7280" text-anchor="end">7,202</text>
  <line x1="70" y1="350" x2="980" y2="350" stroke="#111827" stroke-width="1.2"/>
  <line x1="70" y1="50" x2="70" y2="350" stroke="#111827" stroke-width="1.2"/>
  <line x1="70.00" y1="350" x2="70.00" y2="356" stroke="#9ca3af" stroke-width="1"/>
  <text x="70.00" y="372" font-size="10" fill="#6b7280" text-anchor="middle">2026-02-28 18</text>
  <line x1="144.62" y1="350" x2="144.62" y2="356" stroke="#9ca3af" stroke-width="1"/>
  <text x="144.62" y="372" font-size="10" fill="#6b7280" text-anchor="middle">2026-03-08 15</text>
  <line x1="219.25" y1="350" x2="219.25" y2="356" stroke="#9ca3af" stroke-width="1"/>
  <text x="219.25" y="372" font-size="10" fill="#6b7280" text-anchor="middle">2026-03-10 05</text>
  <line x1="293.87" y1="350" x2="293.87" y2="356" stroke="#9ca3af" stroke-width="1"/>
  <text x="293.87" y="372" font-size="10" fill="#6b7280" text-anchor="middle">2026-03-11 21</text>
  <line x1="368.50" y1="350" x2="368.50" y2="356" stroke="#9ca3af" stroke-width="1"/>
  <text x="368.50" y="372" font-size="10" fill="#6b7280" text-anchor="middle">2026-03-13 13</text>
  <line x1="443.12" y1="350" x2="443.12" y2="356" stroke="#9ca3af" stroke-width="1"/>
  <text x="443.12" y="372" font-size="10" fill="#6b7280" text-anchor="middle">2026-03-15 08</text>
  <line x1="517.74" y1="350" x2="517.74" y2="356" stroke="#9ca3af" stroke-width="1"/>
  <text x="517.74" y="372" font-size="10" fill="#6b7280" text-anchor="middle">2026-03-17 19</text>
  <line x1="592.37" y1="350" x2="592.37" y2="356" stroke="#9ca3af" stroke-width="1"/>
  <text x="592.37" y="372" font-size="10" fill="#6b7280" text-anchor="middle">2026-03-20 04</text>
  <line x1="666.99" y1="350" x2="666.99" y2="356" stroke="#9ca3af" stroke-width="1"/>
  <text x="666.99" y="372" font-size="10" fill="#6b7280" text-anchor="middle">2026-03-22 04</text>
  <line x1="741.62" y1="350" x2="741.62" y2="356" stroke="#9ca3af" stroke-width="1"/>
  <text x="741.62" y="372" font-size="10" fill="#6b7280" text-anchor="middle">2026-03-24 08</text>
  <line x1="816.24" y1="350" x2="816.24" y2="356" stroke="#9ca3af" stroke-width="1"/>
  <text x="816.24" y="372" font-size="10" fill="#6b7280" text-anchor="middle">2026-03-26 21</text>
  <line x1="890.87" y1="350" x2="890.87" y2="356" stroke="#9ca3af" stroke-width="1"/>
  <text x="890.87" y="372" font-size="10" fill="#6b7280" text-anchor="middle">2026-03-29 06</text>
  <line x1="965.49" y1="350" x2="965.49" y2="356" stroke="#9ca3af" stroke-width="1"/>
  <text x="965.49" y="372" font-size="10" fill="#6b7280" text-anchor="middle">2026-03-31 20</text>
  <line x1="980.00" y1="350" x2="980.00" y2="356" stroke="#9ca3af" stroke-width="1"/>
  <text x="980.00" y="372" font-size="10" fill="#6b7280" text-anchor="middle">2026-04-01 07</text>
  <polyline fill="none" stroke="#2563eb" stroke-width="2.5" points="70.00,50.00 72.07,50.12 74.15,50.17 76.22,50.46 78.29,50.00 80.36,266.90 82.44,50.12 84.51,50.08 86.58,177.46 88.66,211.58 90.73,175.34 92.80,304.14 94.87,200.46 96.95,250.94 99.02,300.01 101.09,300.06 103.17,300.01 105.24,300.01 107.31,348.00 109.38,300.01 111.46,249.99 113.53,200.00 115.60,249.99 117.68,249.99 119.75,250.03 121.82,250.03 123.90,250.03 125.97,250.40 128.04,250.90 130.11,250.90 132.19,251.32 134.26,249.94 136.33,300.01 138.41,299.93 140.48,251.03 142.55,300.68 144.62,250.03 146.70,200.00 148.77,249.99 150.84,250.03 152.92,250.03 154.99,250.03 157.06,300.01 159.13,200.04 161.21,250.03 163.28,250.03 165.35,250.03 167.43,249.90 169.50,250.03 171.57,250.03 173.64,250.94 175.72,250.44 177.79,250.03 179.86,250.03 181.94,300.47 184.01,300.01 186.08,300.43 188.15,250.03 190.23,249.99 192.30,300.43 194.37,249.90 196.45,249.99 198.52,249.99 200.59,200.04 202.67,300.01 204.74,300.01 206.81,300.01 208.88,249.90 210.96,300.01 213.03,250.03 215.10,249.99 217.18,199.96 219.25,300.01 221.32,200.00 223.39,250.36 225.47,250.03 227.54,300.01 229.61,300.01 231.69,250.44 233.76,300.01 235.83,250.03 237.90,250.03 239.98,249.99 242.05,250.49 244.12,250.03 246.20,200.04 248.27,300.01 250.34,250.03 252.41,300.01 254.49,250.11 256.56,300.01 258.63,250.03 260.71,250.03 262.78,199.92 264.85,250.03 266.92,250.03 269.00,250.03 271.07,254.36 273.14,300.01 275.22,299.97 277.29,250.36 279.36,299.97 281.44,250.03 283.51,250.03 285.58,250.03 287.65,250.03 289.73,249.99 291.80,200.00 293.87,299.93 295.95,300.01 298.02,299.97 300.09,249.94 302.16,249.99 304.24,249.82 306.31,249.94 308.38,250.28 310.46,207.00 312.53,250.03 314.60,250.32 316.67,250.40 318.75,300.93 320.82,300.01 322.89,300.10 324.97,249.94 327.04,249.99 329.11,250.07 331.18,249.99 333.26,250.03 335.33,249.94 337.40,200.00 339.48,300.39 341.55,300.01 343.62,300.01 345.69,250.44 347.77,300.39 349.84,249.86 351.91,250.11 353.99,201.46 356.06,300.01 358.13,200.83 360.21,250.03 362.28,249.99 364.35,300.26 366.42,300.01 368.50,300.01 370.57,250.03 372.64,250.03 374.72,250.03 376.79,250.03 378.86,249.99 380.93,250.03 383.01,200.00 385.08,300.26 387.15,249.99 389.23,300.01 391.30,249.94 393.37,250.03 395.44,250.03 397.52,250.03 399.59,200.04 401.66,300.01 403.74,249.90 405.81,300.01 407.88,300.01 409.95,300.06 412.03,300.01 414.10,300.01 416.17,243.95 418.25,249.94 420.32,299.97 422.39,300.01 424.46,300.01 426.54,250.03 428.61,300.01 430.68,300.01 432.76,299.97 434.83,249.99 436.90,300.01 438.97,299.93 441.05,300.01 443.12,299.93 445.19,300.01 447.27,300.01 449.34,299.89 451.41,299.97 453.49,250.03 455.56,299.93 457.63,299.89 459.70,299.97 461.78,249.94 463.85,300.01 465.92,300.01 468.00,299.97 470.07,249.99 472.14,299.97 474.21,299.97 476.29,300.06 478.36,300.06 480.43,299.93 482.51,300.01 484.58,300.01 486.65,299.93 488.72,300.01 490.80,300.01 492.87,299.97 494.94,300.01 497.02,300.01 499.09,300.01 501.16,300.01 503.23,249.86 505.31,300.01 507.38,300.10 509.45,299.93 511.53,300.01 513.60,299.93 515.67,300.01 517.74,300.01 519.82,300.01 521.89,300.01 523.96,300.01 526.04,299.97 528.11,300.01 530.18,300.01 532.26,300.01 534.33,300.01 536.40,250.03 538.47,300.01 540.55,300.01 542.62,299.97 544.69,300.01 546.77,300.01 548.84,299.97 550.91,299.97 552.98,300.01 555.06,299.97 557.13,300.01 559.20,299.93 561.28,300.01 563.35,250.03 565.42,300.01 567.49,300.01 569.57,300.01 571.64,300.01 573.71,300.01 575.79,299.89 577.86,300.01 579.93,300.01 582.00,250.07 584.08,300.01 586.15,299.93 588.22,300.01 590.30,299.97 592.37,299.97 594.44,299.97 596.51,250.03 598.59,300.01 600.66,300.01 602.73,300.01 604.81,300.01 606.88,299.97 608.95,300.01 611.03,299.97 613.10,300.01 615.17,299.97 617.24,249.90 619.32,300.01 621.39,300.01 623.46,299.89 625.54,299.97 627.61,299.97 629.68,249.99 631.75,299.97 633.83,299.89 635.90,300.01 637.97,299.97 640.05,299.97 642.12,300.01 644.19,299.97 646.26,249.99 648.34,299.97 650.41,299.97 652.48,300.06 654.56,300.06 656.63,249.94 658.70,300.01 660.77,299.93 662.85,300.01 664.92,300.01 666.99,249.99 669.07,300.01 671.14,300.01 673.21,300.01 675.28,299.93 677.36,299.93 679.43,300.01 681.50,300.01 683.58,249.94 685.65,299.97 687.72,299.97 689.79,300.01 691.87,300.01 693.94,300.01 696.01,249.99 698.09,300.01 700.16,300.01 702.23,300.01 704.31,250.03 706.38,300.01 708.45,300.01 710.52,300.01 712.60,299.97 714.67,300.01 716.74,300.01 718.82,299.97 720.89,299.97 722.96,300.01 725.03,300.01 727.11,299.97 729.18,299.93 731.25,300.01 733.33,300.06 735.40,299.97 737.47,300.01 739.54,250.03 741.62,250.03 743.69,299.93 745.76,299.97 747.84,300.01 749.91,300.01 751.98,300.06 754.05,300.01 756.13,299.93 758.20,300.01 760.27,300.01 762.35,299.97 764.42,299.97 766.49,300.01 768.56,250.03 770.64,300.01 772.71,300.01 774.78,300.01 776.86,299.97 778.93,300.01 781.00,299.97 783.08,300.01 785.15,299.97 787.22,299.97 789.29,299.93 791.37,300.01 793.44,300.01 795.51,299.89 797.59,299.97 799.66,299.97 801.73,300.06 803.80,249.90 805.88,299.89 807.95,300.01 810.02,299.97 812.10,299.97 814.17,299.97 816.24,300.01 818.31,300.01 820.39,299.97 822.46,299.97 824.53,299.97 826.61,250.03 828.68,299.93 830.75,300.01 832.82,300.01 834.90,299.93 836.97,300.01 839.04,300.01 841.12,299.97 843.19,300.01 845.26,300.01 847.33,300.06 849.41,300.01 851.48,299.97 853.55,299.89 855.63,300.01 857.70,300.01 859.77,249.94 861.85,249.94 863.92,300.01 865.99,300.01 868.06,300.01 870.14,300.01 872.21,299.97 874.28,250.03 876.36,300.01 878.43,300.01 880.50,300.01 882.57,300.01 884.65,250.03 886.72,249.99 888.79,300.01 890.87,299.97 892.94,300.01 895.01,299.97 897.08,300.01 899.16,299.97 901.23,299.97 903.30,299.97 905.38,300.06 907.45,249.99 909.52,300.01 911.59,250.03 913.67,249.94 915.74,249.99 917.81,300.01 919.89,300.06 921.96,300.01 924.03,299.97 926.10,299.97 928.18,300.01 930.25,299.93 932.32,299.89 934.40,299.89 936.47,299.89 938.54,299.89 940.62,299.85 942.69,299.85 944.76,299.89 946.83,299.81 948.91,299.81 950.98,299.81 953.05,299.76 955.13,299.76 957.20,299.76 959.27,299.72 961.34,299.68 963.42,299.60 965.49,299.60 967.56,299.60 969.64,299.56 971.71,299.47 973.78,299.43 975.85,299.43 977.93,299.39 980.00,299.47"/>
  <circle cx="70.00" cy="50.00" r="2.5" fill="#2563eb"/>
  <circle cx="72.07" cy="50.12" r="2.5" fill="#2563eb"/>
  <circle cx="74.15" cy="50.17" r="2.5" fill="#2563eb"/>
  <circle cx="76.22" cy="50.46" r="2.5" fill="#2563eb"/>
  <circle cx="78.29" cy="50.00" r="2.5" fill="#2563eb"/>
  <circle cx="80.36" cy="266.90" r="2.5" fill="#2563eb"/>
  <circle cx="82.44" cy="50.12" r="2.5" fill="#2563eb"/>
  <circle cx="84.51" cy="50.08" r="2.5" fill="#2563eb"/>
  <circle cx="86.58" cy="177.46" r="2.5" fill="#2563eb"/>
  <circle cx="88.66" cy="211.58" r="2.5" fill="#2563eb"/>
  <circle cx="90.73" cy="175.34" r="2.5" fill="#2563eb"/>
  <circle cx="92.80" cy="304.14" r="2.5" fill="#2563eb"/>
  <circle cx="94.87" cy="200.46" r="2.5" fill="#2563eb"/>
  <circle cx="96.95" cy="250.94" r="2.5" fill="#2563eb"/>
  <circle cx="99.02" cy="300.01" r="2.5" fill="#2563eb"/>
  <circle cx="101.09" cy="300.06" r="2.5" fill="#2563eb"/>
  <circle cx="103.17" cy="300.01" r="2.5" fill="#2563eb"/>
  <circle cx="105.24" cy="300.01" r="2.5" fill="#2563eb"/>
  <circle cx="107.31" cy="348.00" r="2.5" fill="#2563eb"/>
  <circle cx="109.38" cy="300.01" r="2.5" fill="#2563eb"/>
  <circle cx="111.46" cy="249.99" r="2.5" fill="#2563eb"/>
  <circle cx="113.53" cy="200.00" r="2.5" fill="#2563eb"/>
  <circle cx="115.60" cy="249.99" r="2.5" fill="#2563eb"/>
  <circle cx="117.68" cy="249.99" r="2.5" fill="#2563eb"/>
  <circle cx="119.75" cy="250.03" r="2.5" fill="#2563eb"/>
  <circle cx="121.82" cy="250.03" r="2.5" fill="#2563eb"/>
  <circle cx="123.90" cy="250.03" r="2.5" fill="#2563eb"/>
  <circle cx="125.97" cy="250.40" r="2.5" fill="#2563eb"/>
  <circle cx="128.04" cy="250.90" r="2.5" fill="#2563eb"/>
  <circle cx="130.11" cy="250.90" r="2.5" fill="#2563eb"/>
  <circle cx="132.19" cy="251.32" r="2.5" fill="#2563eb"/>
  <circle cx="134.26" cy="249.94" r="2.5" fill="#2563eb"/>
  <circle cx="136.33" cy="300.01" r="2.5" fill="#2563eb"/>
  <circle cx="138.41" cy="299.93" r="2.5" fill="#2563eb"/>
  <circle cx="140.48" cy="251.03" r="2.5" fill="#2563eb"/>
  <circle cx="142.55" cy="300.68" r="2.5" fill="#2563eb"/>
  <circle cx="144.62" cy="250.03" r="2.5" fill="#2563eb"/>
  <circle cx="146.70" cy="200.00" r="2.5" fill="#2563eb"/>
  <circle cx="148.77" cy="249.99" r="2.5" fill="#2563eb"/>
  <circle cx="150.84" cy="250.03" r="2.5" fill="#2563eb"/>
  <circle cx="152.92" cy="250.03" r="2.5" fill="#2563eb"/>
  <circle cx="154.99" cy="250.03" r="2.5" fill="#2563eb"/>
  <circle cx="157.06" cy="300.01" r="2.5" fill="#2563eb"/>
  <circle cx="159.13" cy="200.04" r="2.5" fill="#2563eb"/>
  <circle cx="161.21" cy="250.03" r="2.5" fill="#2563eb"/>
  <circle cx="163.28" cy="250.03" r="2.5" fill="#2563eb"/>
  <circle cx="165.35" cy="250.03" r="2.5" fill="#2563eb"/>
  <circle cx="167.43" cy="249.90" r="2.5" fill="#2563eb"/>
  <circle cx="169.50" cy="250.03" r="2.5" fill="#2563eb"/>
  <circle cx="171.57" cy="250.03" r="2.5" fill="#2563eb"/>
  <circle cx="173.64" cy="250.94" r="2.5" fill="#2563eb"/>
  <circle cx="175.72" cy="250.44" r="2.5" fill="#2563eb"/>
  <circle cx="177.79" cy="250.03" r="2.5" fill="#2563eb"/>
  <circle cx="179.86" cy="250.03" r="2.5" fill="#2563eb"/>
  <circle cx="181.94" cy="300.47" r="2.5" fill="#2563eb"/>
  <circle cx="184.01" cy="300.01" r="2.5" fill="#2563eb"/>
  <circle cx="186.08" cy="300.43" r="2.5" fill="#2563eb"/>
  <circle cx="188.15" cy="250.03" r="2.5" fill="#2563eb"/>
  <circle cx="190.23" cy="249.99" r="2.5" fill="#2563eb"/>
  <circle cx="192.30" cy="300.43" r="2.5" fill="#2563eb"/>
  <circle cx="194.37" cy="249.90" r="2.5" fill="#2563eb"/>
  <circle cx="196.45" cy="249.99" r="2.5" fill="#2563eb"/>
  <circle cx="198.52" cy="249.99" r="2.5" fill="#2563eb"/>
  <circle cx="200.59" cy="200.04" r="2.5" fill="#2563eb"/>
  <circle cx="202.67" cy="300.01" r="2.5" fill="#2563eb"/>
  <circle cx="204.74" cy="300.01" r="2.5" fill="#2563eb"/>
  <circle cx="206.81" cy="300.01" r="2.5" fill="#2563eb"/>
  <circle cx="208.88" cy="249.90" r="2.5" fill="#2563eb"/>
  <circle cx="210.96" cy="300.01" r="2.5" fill="#2563eb"/>
  <circle cx="213.03" cy="250.03" r="2.5" fill="#2563eb"/>
  <circle cx="215.10" cy="249.99" r="2.5" fill="#2563eb"/>
  <circle cx="217.18" cy="199.96" r="2.5" fill="#2563eb"/>
  <circle cx="219.25" cy="300.01" r="2.5" fill="#2563eb"/>
  <circle cx="221.32" cy="200.00" r="2.5" fill="#2563eb"/>
  <circle cx="223.39" cy="250.36" r="2.5" fill="#2563eb"/>
  <circle cx="225.47" cy="250.03" r="2.5" fill="#2563eb"/>
  <circle cx="227.54" cy="300.01" r="2.5" fill="#2563eb"/>
  <circle cx="229.61" cy="300.01" r="2.5" fill="#2563eb"/>
  <circle cx="231.69" cy="250.44" r="2.5" fill="#2563eb"/>
  <circle cx="233.76" cy="300.01" r="2.5" fill="#2563eb"/>
  <circle cx="235.83" cy="250.03" r="2.5" fill="#2563eb"/>
  <circle cx="237.90" cy="250.03" r="2.5" fill="#2563eb"/>
  <circle cx="239.98" cy="249.99" r="2.5" fill="#2563eb"/>
  <circle cx="242.05" cy="250.49" r="2.5" fill="#2563eb"/>
  <circle cx="244.12" cy="250.03" r="2.5" fill="#2563eb"/>
  <circle cx="246.20" cy="200.04" r="2.5" fill="#2563eb"/>
  <circle cx="248.27" cy="300.01" r="2.5" fill="#2563eb"/>
  <circle cx="250.34" cy="250.03" r="2.5" fill="#2563eb"/>
  <circle cx="252.41" cy="300.01" r="2.5" fill="#2563eb"/>
  <circle cx="254.49" cy="250.11" r="2.5" fill="#2563eb"/>
  <circle cx="256.56" cy="300.01" r="2.5" fill="#2563eb"/>
  <circle cx="258.63" cy="250.03" r="2.5" fill="#2563eb"/>
  <circle cx="260.71" cy="250.03" r="2.5" fill="#2563eb"/>
  <circle cx="262.78" cy="199.92" r="2.5" fill="#2563eb"/>
  <circle cx="264.85" cy="250.03" r="2.5" fill="#2563eb"/>
  <circle cx="266.92" cy="250.03" r="2.5" fill="#2563eb"/>
  <circle cx="269.00" cy="250.03" r="2.5" fill="#2563eb"/>
  <circle cx="271.07" cy="254.36" r="2.5" fill="#2563eb"/>
  <circle cx="273.14" cy="300.01" r="2.5" fill="#2563eb"/>
  <circle cx="275.22" cy="299.97" r="2.5" fill="#2563eb"/>
  <circle cx="277.29" cy="250.36" r="2.5" fill="#2563eb"/>
  <circle cx="279.36" cy="299.97" r="2.5" fill="#2563eb"/>
  <circle cx="281.44" cy="250.03" r="2.5" fill="#2563eb"/>
  <circle cx="283.51" cy="250.03" r="2.5" fill="#2563eb"/>
  <circle cx="285.58" cy="250.03" r="2.5" fill="#2563eb"/>
  <circle cx="287.65" cy="250.03" r="2.5" fill="#2563eb"/>
  <circle cx="289.73" cy="249.99" r="2.5" fill="#2563eb"/>
  <circle cx="291.80" cy="200.00" r="2.5" fill="#2563eb"/>
  <circle cx="293.87" cy="299.93" r="2.5" fill="#2563eb"/>
  <circle cx="295.95" cy="300.01" r="2.5" fill="#2563eb"/>
  <circle cx="298.02" cy="299.97" r="2.5" fill="#2563eb"/>
  <circle cx="300.09" cy="249.94" r="2.5" fill="#2563eb"/>
  <circle cx="302.16" cy="249.99" r="2.5" fill="#2563eb"/>
  <circle cx="304.24" cy="249.82" r="2.5" fill="#2563eb"/>
  <circle cx="306.31" cy="249.94" r="2.5" fill="#2563eb"/>
  <circle cx="308.38" cy="250.28" r="2.5" fill="#2563eb"/>
  <circle cx="310.46" cy="207.00" r="2.5" fill="#2563eb"/>
  <circle cx="312.53" cy="250.03" r="2.5" fill="#2563eb"/>
  <circle cx="314.60" cy="250.32" r="2.5" fill="#2563eb"/>
  <circle cx="316.67" cy="250.40" r="2.5" fill="#2563eb"/>
  <circle cx="318.75" cy="300.93" r="2.5" fill="#2563eb"/>
  <circle cx="320.82" cy="300.01" r="2.5" fill="#2563eb"/>
  <circle cx="322.89" cy="300.10" r="2.5" fill="#2563eb"/>
  <circle cx="324.97" cy="249.94" r="2.5" fill="#2563eb"/>
  <circle cx="327.04" cy="249.99" r="2.5" fill="#2563eb"/>
  <circle cx="329.11" cy="250.07" r="2.5" fill="#2563eb"/>
  <circle cx="331.18" cy="249.99" r="2.5" fill="#2563eb"/>
  <circle cx="333.26" cy="250.03" r="2.5" fill="#2563eb"/>
  <circle cx="335.33" cy="249.94" r="2.5" fill="#2563eb"/>
  <circle cx="337.40" cy="200.00" r="2.5" fill="#2563eb"/>
  <circle cx="339.48" cy="300.39" r="2.5" fill="#2563eb"/>
  <circle cx="341.55" cy="300.01" r="2.5" fill="#2563eb"/>
  <circle cx="343.62" cy="300.01" r="2.5" fill="#2563eb"/>
  <circle cx="345.69" cy="250.44" r="2.5" fill="#2563eb"/>
  <circle cx="347.77" cy="300.39" r="2.5" fill="#2563eb"/>
  <circle cx="349.84" cy="249.86" r="2.5" fill="#2563eb"/>
  <circle cx="351.91" cy="250.11" r="2.5" fill="#2563eb"/>
  <circle cx="353.99" cy="201.46" r="2.5" fill="#2563eb"/>
  <circle cx="356.06" cy="300.01" r="2.5" fill="#2563eb"/>
  <circle cx="358.13" cy="200.83" r="2.5" fill="#2563eb"/>
  <circle cx="360.21" cy="250.03" r="2.5" fill="#2563eb"/>
  <circle cx="362.28" cy="249.99" r="2.5" fill="#2563eb"/>
  <circle cx="364.35" cy="300.26" r="2.5" fill="#2563eb"/>
  <circle cx="366.42" cy="300.01" r="2.5" fill="#2563eb"/>
  <circle cx="368.50" cy="300.01" r="2.5" fill="#2563eb"/>
  <circle cx="370.57" cy="250.03" r="2.5" fill="#2563eb"/>
  <circle cx="372.64" cy="250.03" r="2.5" fill="#2563eb"/>
  <circle cx="374.72" cy="250.03" r="2.5" fill="#2563eb"/>
  <circle cx="376.79" cy="250.03" r="2.5" fill="#2563eb"/>
  <circle cx="378.86" cy="249.99" r="2.5" fill="#2563eb"/>
  <circle cx="380.93" cy="250.03" r="2.5" fill="#2563eb"/>
  <circle cx="383.01" cy="200.00" r="2.5" fill="#2563eb"/>
  <circle cx="385.08" cy="300.26" r="2.5" fill="#2563eb"/>
  <circle cx="387.15" cy="249.99" r="2.5" fill="#2563eb"/>
  <circle cx="389.23" cy="300.01" r="2.5" fill="#2563eb"/>
  <circle cx="391.30" cy="249.94" r="2.5" fill="#2563eb"/>
  <circle cx="393.37" cy="250.03" r="2.5" fill="#2563eb"/>
  <circle cx="395.44" cy="250.03" r="2.5" fill="#2563eb"/>
  <circle cx="397.52" cy="250.03" r="2.5" fill="#2563eb"/>
  <circle cx="399.59" cy="200.04" r="2.5" fill="#2563eb"/>
  <circle cx="401.66" cy="300.01" r="2.5" fill="#2563eb"/>
  <circle cx="403.74" cy="249.90" r="2.5" fill="#2563eb"/>
  <circle cx="405.81" cy="300.01" r="2.5" fill="#2563eb"/>
  <circle cx="407.88" cy="300.01" r="2.5" fill="#2563eb"/>
  <circle cx="409.95" cy="300.06" r="2.5" fill="#2563eb"/>
  <circle cx="412.03" cy="300.01" r="2.5" fill="#2563eb"/>
  <circle cx="414.10" cy="300.01" r="2.5" fill="#2563eb"/>
  <circle cx="416.17" cy="243.95" r="2.5" fill="#2563eb"/>
  <circle cx="418.25" cy="249.94" r="2.5" fill="#2563eb"/>
  <circle cx="420.32" cy="299.97" r="2.5" fill="#2563eb"/>
  <circle cx="422.39" cy="300.01" r="2.5" fill="#2563eb"/>
  <circle cx="424.46" cy="300.01" r="2.5" fill="#2563eb"/>
  <circle cx="426.54" cy="250.03" r="2.5" fill="#2563eb"/>
  <circle cx="428.61" cy="300.01" r="2.5" fill="#2563eb"/>
  <circle cx="430.68" cy="300.01" r="2.5" fill="#2563eb"/>
  <circle cx="432.76" cy="299.97" r="2.5" fill="#2563eb"/>
  <circle cx="434.83" cy="249.99" r="2.5" fill="#2563eb"/>
  <circle cx="436.90" cy="300.01" r="2.5" fill="#2563eb"/>
  <circle cx="438.97" cy="299.93" r="2.5" fill="#2563eb"/>
  <circle cx="441.05" cy="300.01" r="2.5" fill="#2563eb"/>
  <circle cx="443.12" cy="299.93" r="2.5" fill="#2563eb"/>
  <circle cx="445.19" cy="300.01" r="2.5" fill="#2563eb"/>
  <circle cx="447.27" cy="300.01" r="2.5" fill="#2563eb"/>
  <circle cx="449.34" cy="299.89" r="2.5" fill="#2563eb"/>
  <circle cx="451.41" cy="299.97" r="2.5" fill="#2563eb"/>
  <circle cx="453.49" cy="250.03" r="2.5" fill="#2563eb"/>
  <circle cx="455.56" cy="299.93" r="2.5" fill="#2563eb"/>
  <circle cx="457.63" cy="299.89" r="2.5" fill="#2563eb"/>
  <circle cx="459.70" cy="299.97" r="2.5" fill="#2563eb"/>
  <circle cx="461.78" cy="249.94" r="2.5" fill="#2563eb"/>
  <circle cx="463.85" cy="300.01" r="2.5" fill="#2563eb"/>
  <circle cx="465.92" cy="300.01" r="2.5" fill="#2563eb"/>
  <circle cx="468.00" cy="299.97" r="2.5" fill="#2563eb"/>
  <circle cx="470.07" cy="249.99" r="2.5" fill="#2563eb"/>
  <circle cx="472.14" cy="299.97" r="2.5" fill="#2563eb"/>
  <circle cx="474.21" cy="299.97" r="2.5" fill="#2563eb"/>
  <circle cx="476.29" cy="300.06" r="2.5" fill="#2563eb"/>
  <circle cx="478.36" cy="300.06" r="2.5" fill="#2563eb"/>
  <circle cx="480.43" cy="299.93" r="2.5" fill="#2563eb"/>
  <circle cx="482.51" cy="300.01" r="2.5" fill="#2563eb"/>
  <circle cx="484.58" cy="300.01" r="2.5" fill="#2563eb"/>
  <circle cx="486.65" cy="299.93" r="2.5" fill="#2563eb"/>
  <circle cx="488.72" cy="300.01" r="2.5" fill="#2563eb"/>
  <circle cx="490.80" cy="300.01" r="2.5" fill="#2563eb"/>
  <circle cx="492.87" cy="299.97" r="2.5" fill="#2563eb"/>
  <circle cx="494.94" cy="300.01" r="2.5" fill="#2563eb"/>
  <circle cx="497.02" cy="300.01" r="2.5" fill="#2563eb"/>
  <circle cx="499.09" cy="300.01" r="2.5" fill="#2563eb"/>
  <circle cx="501.16" cy="300.01" r="2.5" fill="#2563eb"/>
  <circle cx="503.23" cy="249.86" r="2.5" fill="#2563eb"/>
  <circle cx="505.31" cy="300.01" r="2.5" fill="#2563eb"/>
  <circle cx="507.38" cy="300.10" r="2.5" fill="#2563eb"/>
  <circle cx="509.45" cy="299.93" r="2.5" fill="#2563eb"/>
  <circle cx="511.53" cy="300.01" r="2.5" fill="#2563eb"/>
  <circle cx="513.60" cy="299.93" r="2.5" fill="#2563eb"/>
  <circle cx="515.67" cy="300.01" r="2.5" fill="#2563eb"/>
  <circle cx="517.74" cy="300.01" r="2.5" fill="#2563eb"/>
  <circle cx="519.82" cy="300.01" r="2.5" fill="#2563eb"/>
  <circle cx="521.89" cy="300.01" r="2.5" fill="#2563eb"/>
  <circle cx="523.96" cy="300.01" r="2.5" fill="#2563eb"/>
  <circle cx="526.04" cy="299.97" r="2.5" fill="#2563eb"/>
  <circle cx="528.11" cy="300.01" r="2.5" fill="#2563eb"/>
  <circle cx="530.18" cy="300.01" r="2.5" fill="#2563eb"/>
  <circle cx="532.26" cy="300.01" r="2.5" fill="#2563eb"/>
  <circle cx="534.33" cy="300.01" r="2.5" fill="#2563eb"/>
  <circle cx="536.40" cy="250.03" r="2.5" fill="#2563eb"/>
  <circle cx="538.47" cy="300.01" r="2.5" fill="#2563eb"/>
  <circle cx="540.55" cy="300.01" r="2.5" fill="#2563eb"/>
  <circle cx="542.62" cy="299.97" r="2.5" fill="#2563eb"/>
  <circle cx="544.69" cy="300.01" r="2.5" fill="#2563eb"/>
  <circle cx="546.77" cy="300.01" r="2.5" fill="#2563eb"/>
  <circle cx="548.84" cy="299.97" r="2.5" fill="#2563eb"/>
  <circle cx="550.91" cy="299.97" r="2.5" fill="#2563eb"/>
  <circle cx="552.98" cy="300.01" r="2.5" fill="#2563eb"/>
  <circle cx="555.06" cy="299.97" r="2.5" fill="#2563eb"/>
  <circle cx="557.13" cy="300.01" r="2.5" fill="#2563eb"/>
  <circle cx="559.20" cy="299.93" r="2.5" fill="#2563eb"/>
  <circle cx="561.28" cy="300.01" r="2.5" fill="#2563eb"/>
  <circle cx="563.35" cy="250.03" r="2.5" fill="#2563eb"/>
  <circle cx="565.42" cy="300.01" r="2.5" fill="#2563eb"/>
  <circle cx="567.49" cy="300.01" r="2.5" fill="#2563eb"/>
  <circle cx="569.57" cy="300.01" r="2.5" fill="#2563eb"/>
  <circle cx="571.64" cy="300.01" r="2.5" fill="#2563eb"/>
  <circle cx="573.71" cy="300.01" r="2.5" fill="#2563eb"/>
  <circle cx="575.79" cy="299.89" r="2.5" fill="#2563eb"/>
  <circle cx="577.86" cy="300.01" r="2.5" fill="#2563eb"/>
  <circle cx="579.93" cy="300.01" r="2.5" fill="#2563eb"/>
  <circle cx="582.00" cy="250.07" r="2.5" fill="#2563eb"/>
  <circle cx="584.08" cy="300.01" r="2.5" fill="#2563eb"/>
  <circle cx="586.15" cy="299.93" r="2.5" fill="#2563eb"/>
  <circle cx="588.22" cy="300.01" r="2.5" fill="#2563eb"/>
  <circle cx="590.30" cy="299.97" r="2.5" fill="#2563eb"/>
  <circle cx="592.37" cy="299.97" r="2.5" fill="#2563eb"/>
  <circle cx="594.44" cy="299.97" r="2.5" fill="#2563eb"/>
  <circle cx="596.51" cy="250.03" r="2.5" fill="#2563eb"/>
  <circle cx="598.59" cy="300.01" r="2.5" fill="#2563eb"/>
  <circle cx="600.66" cy="300.01" r="2.5" fill="#2563eb"/>
  <circle cx="602.73" cy="300.01" r="2.5" fill="#2563eb"/>
  <circle cx="604.81" cy="300.01" r="2.5" fill="#2563eb"/>
  <circle cx="606.88" cy="299.97" r="2.5" fill="#2563eb"/>
  <circle cx="608.95" cy="300.01" r="2.5" fill="#2563eb"/>
  <circle cx="611.03" cy="299.97" r="2.5" fill="#2563eb"/>
  <circle cx="613.10" cy="300.01" r="2.5" fill="#2563eb"/>
  <circle cx="615.17" cy="299.97" r="2.5" fill="#2563eb"/>
  <circle cx="617.24" cy="249.90" r="2.5" fill="#2563eb"/>
  <circle cx="619.32" cy="300.01" r="2.5" fill="#2563eb"/>
  <circle cx="621.39" cy="300.01" r="2.5" fill="#2563eb"/>
  <circle cx="623.46" cy="299.89" r="2.5" fill="#2563eb"/>
  <circle cx="625.54" cy="299.97" r="2.5" fill="#2563eb"/>
  <circle cx="627.61" cy="299.97" r="2.5" fill="#2563eb"/>
  <circle cx="629.68" cy="249.99" r="2.5" fill="#2563eb"/>
  <circle cx="631.75" cy="299.97" r="2.5" fill="#2563eb"/>
  <circle cx="633.83" cy="299.89" r="2.5" fill="#2563eb"/>
  <circle cx="635.90" cy="300.01" r="2.5" fill="#2563eb"/>
  <circle cx="637.97" cy="299.97" r="2.5" fill="#2563eb"/>
  <circle cx="640.05" cy="299.97" r="2.5" fill="#2563eb"/>
  <circle cx="642.12" cy="300.01" r="2.5" fill="#2563eb"/>
  <circle cx="644.19" cy="299.97" r="2.5" fill="#2563eb"/>
  <circle cx="646.26" cy="249.99" r="2.5" fill="#2563eb"/>
  <circle cx="648.34" cy="299.97" r="2.5" fill="#2563eb"/>
  <circle cx="650.41" cy="299.97" r="2.5" fill="#2563eb"/>
  <circle cx="652.48" cy="300.06" r="2.5" fill="#2563eb"/>
  <circle cx="654.56" cy="300.06" r="2.5" fill="#2563eb"/>
  <circle cx="656.63" cy="249.94" r="2.5" fill="#2563eb"/>
  <circle cx="658.70" cy="300.01" r="2.5" fill="#2563eb"/>
  <circle cx="660.77" cy="299.93" r="2.5" fill="#2563eb"/>
  <circle cx="662.85" cy="300.01" r="2.5" fill="#2563eb"/>
  <circle cx="664.92" cy="300.01" r="2.5" fill="#2563eb"/>
  <circle cx="666.99" cy="249.99" r="2.5" fill="#2563eb"/>
  <circle cx="669.07" cy="300.01" r="2.5" fill="#2563eb"/>
  <circle cx="671.14" cy="300.01" r="2.5" fill="#2563eb"/>
  <circle cx="673.21" cy="300.01" r="2.5" fill="#2563eb"/>
  <circle cx="675.28" cy="299.93" r="2.5" fill="#2563eb"/>
  <circle cx="677.36" cy="299.93" r="2.5" fill="#2563eb"/>
  <circle cx="679.43" cy="300.01" r="2.5" fill="#2563eb"/>
  <circle cx="681.50" cy="300.01" r="2.5" fill="#2563eb"/>
  <circle cx="683.58" cy="249.94" r="2.5" fill="#2563eb"/>
  <circle cx="685.65" cy="299.97" r="2.5" fill="#2563eb"/>
  <circle cx="687.72" cy="299.97" r="2.5" fill="#2563eb"/>
  <circle cx="689.79" cy="300.01" r="2.5" fill="#2563eb"/>
  <circle cx="691.87" cy="300.01" r="2.5" fill="#2563eb"/>
  <circle cx="693.94" cy="300.01" r="2.5" fill="#2563eb"/>
  <circle cx="696.01" cy="249.99" r="2.5" fill="#2563eb"/>
  <circle cx="698.09" cy="300.01" r="2.5" fill="#2563eb"/>
  <circle cx="700.16" cy="300.01" r="2.5" fill="#2563eb"/>
  <circle cx="702.23" cy="300.01" r="2.5" fill="#2563eb"/>
  <circle cx="704.31" cy="250.03" r="2.5" fill="#2563eb"/>
  <circle cx="706.38" cy="300.01" r="2.5" fill="#2563eb"/>
  <circle cx="708.45" cy="300.01" r="2.5" fill="#2563eb"/>
  <circle cx="710.52" cy="300.01" r="2.5" fill="#2563eb"/>
  <circle cx="712.60" cy="299.97" r="2.5" fill="#2563eb"/>
  <circle cx="714.67" cy="300.01" r="2.5" fill="#2563eb"/>
  <circle cx="716.74" cy="300.01" r="2.5" fill="#2563eb"/>
  <circle cx="718.82" cy="299.97" r="2.5" fill="#2563eb"/>
  <circle cx="720.89" cy="299.97" r="2.5" fill="#2563eb"/>
  <circle cx="722.96" cy="300.01" r="2.5" fill="#2563eb"/>
  <circle cx="725.03" cy="300.01" r="2.5" fill="#2563eb"/>
  <circle cx="727.11" cy="299.97" r="2.5" fill="#2563eb"/>
  <circle cx="729.18" cy="299.93" r="2.5" fill="#2563eb"/>
  <circle cx="731.25" cy="300.01" r="2.5" fill="#2563eb"/>
  <circle cx="733.33" cy="300.06" r="2.5" fill="#2563eb"/>
  <circle cx="735.40" cy="299.97" r="2.5" fill="#2563eb"/>
  <circle cx="737.47" cy="300.01" r="2.5" fill="#2563eb"/>
  <circle cx="739.54" cy="250.03" r="2.5" fill="#2563eb"/>
  <circle cx="741.62" cy="250.03" r="2.5" fill="#2563eb"/>
  <circle cx="743.69" cy="299.93" r="2.5" fill="#2563eb"/>
  <circle cx="745.76" cy="299.97" r="2.5" fill="#2563eb"/>
  <circle cx="747.84" cy="300.01" r="2.5" fill="#2563eb"/>
  <circle cx="749.91" cy="300.01" r="2.5" fill="#2563eb"/>
  <circle cx="751.98" cy="300.06" r="2.5" fill="#2563eb"/>
  <circle cx="754.05" cy="300.01" r="2.5" fill="#2563eb"/>
  <circle cx="756.13" cy="299.93" r="2.5" fill="#2563eb"/>
  <circle cx="758.20" cy="300.01" r="2.5" fill="#2563eb"/>
  <circle cx="760.27" cy="300.01" r="2.5" fill="#2563eb"/>
  <circle cx="762.35" cy="299.97" r="2.5" fill="#2563eb"/>
  <circle cx="764.42" cy="299.97" r="2.5" fill="#2563eb"/>
  <circle cx="766.49" cy="300.01" r="2.5" fill="#2563eb"/>
  <circle cx="768.56" cy="250.03" r="2.5" fill="#2563eb"/>
  <circle cx="770.64" cy="300.01" r="2.5" fill="#2563eb"/>
  <circle cx="772.71" cy="300.01" r="2.5" fill="#2563eb"/>
  <circle cx="774.78" cy="300.01" r="2.5" fill="#2563eb"/>
  <circle cx="776.86" cy="299.97" r="2.5" fill="#2563eb"/>
  <circle cx="778.93" cy="300.01" r="2.5" fill="#2563eb"/>
  <circle cx="781.00" cy="299.97" r="2.5" fill="#2563eb"/>
  <circle cx="783.08" cy="300.01" r="2.5" fill="#2563eb"/>
  <circle cx="785.15" cy="299.97" r="2.5" fill="#2563eb"/>
  <circle cx="787.22" cy="299.97" r="2.5" fill="#2563eb"/>
  <circle cx="789.29" cy="299.93" r="2.5" fill="#2563eb"/>
  <circle cx="791.37" cy="300.01" r="2.5" fill="#2563eb"/>
  <circle cx="793.44" cy="300.01" r="2.5" fill="#2563eb"/>
  <circle cx="795.51" cy="299.89" r="2.5" fill="#2563eb"/>
  <circle cx="797.59" cy="299.97" r="2.5" fill="#2563eb"/>
  <circle cx="799.66" cy="299.97" r="2.5" fill="#2563eb"/>
  <circle cx="801.73" cy="300.06" r="2.5" fill="#2563eb"/>
  <circle cx="803.80" cy="249.90" r="2.5" fill="#2563eb"/>
  <circle cx="805.88" cy="299.89" r="2.5" fill="#2563eb"/>
  <circle cx="807.95" cy="300.01" r="2.5" fill="#2563eb"/>
  <circle cx="810.02" cy="299.97" r="2.5" fill="#2563eb"/>
  <circle cx="812.10" cy="299.97" r="2.5" fill="#2563eb"/>
  <circle cx="814.17" cy="299.97" r="2.5" fill="#2563eb"/>
  <circle cx="816.24" cy="300.01" r="2.5" fill="#2563eb"/>
  <circle cx="818.31" cy="300.01" r="2.5" fill="#2563eb"/>
  <circle cx="820.39" cy="299.97" r="2.5" fill="#2563eb"/>
  <circle cx="822.46" cy="299.97" r="2.5" fill="#2563eb"/>
  <circle cx="824.53" cy="299.97" r="2.5" fill="#2563eb"/>
  <circle cx="826.61" cy="250.03" r="2.5" fill="#2563eb"/>
  <circle cx="828.68" cy="299.93" r="2.5" fill="#2563eb"/>
  <circle cx="830.75" cy="300.01" r="2.5" fill="#2563eb"/>
  <circle cx="832.82" cy="300.01" r="2.5" fill="#2563eb"/>
  <circle cx="834.90" cy="299.93" r="2.5" fill="#2563eb"/>
  <circle cx="836.97" cy="300.01" r="2.5" fill="#2563eb"/>
  <circle cx="839.04" cy="300.01" r="2.5" fill="#2563eb"/>
  <circle cx="841.12" cy="299.97" r="2.5" fill="#2563eb"/>
  <circle cx="843.19" cy="300.01" r="2.5" fill="#2563eb"/>
  <circle cx="845.26" cy="300.01" r="2.5" fill="#2563eb"/>
  <circle cx="847.33" cy="300.06" r="2.5" fill="#2563eb"/>
  <circle cx="849.41" cy="300.01" r="2.5" fill="#2563eb"/>
  <circle cx="851.48" cy="299.97" r="2.5" fill="#2563eb"/>
  <circle cx="853.55" cy="299.89" r="2.5" fill="#2563eb"/>
  <circle cx="855.63" cy="300.01" r="2.5" fill="#2563eb"/>
  <circle cx="857.70" cy="300.01" r="2.5" fill="#2563eb"/>
  <circle cx="859.77" cy="249.94" r="2.5" fill="#2563eb"/>
  <circle cx="861.85" cy="249.94" r="2.5" fill="#2563eb"/>
  <circle cx="863.92" cy="300.01" r="2.5" fill="#2563eb"/>
  <circle cx="865.99" cy="300.01" r="2.5" fill="#2563eb"/>
  <circle cx="868.06" cy="300.01" r="2.5" fill="#2563eb"/>
  <circle cx="870.14" cy="300.01" r="2.5" fill="#2563eb"/>
  <circle cx="872.21" cy="299.97" r="2.5" fill="#2563eb"/>
  <circle cx="874.28" cy="250.03" r="2.5" fill="#2563eb"/>
  <circle cx="876.36" cy="300.01" r="2.5" fill="#2563eb"/>
  <circle cx="878.43" cy="300.01" r="2.5" fill="#2563eb"/>
  <circle cx="880.50" cy="300.01" r="2.5" fill="#2563eb"/>
  <circle cx="882.57" cy="300.01" r="2.5" fill="#2563eb"/>
  <circle cx="884.65" cy="250.03" r="2.5" fill="#2563eb"/>
  <circle cx="886.72" cy="249.99" r="2.5" fill="#2563eb"/>
  <circle cx="888.79" cy="300.01" r="2.5" fill="#2563eb"/>
  <circle cx="890.87" cy="299.97" r="2.5" fill="#2563eb"/>
  <circle cx="892.94" cy="300.01" r="2.5" fill="#2563eb"/>
  <circle cx="895.01" cy="299.97" r="2.5" fill="#2563eb"/>
  <circle cx="897.08" cy="300.01" r="2.5" fill="#2563eb"/>
  <circle cx="899.16" cy="299.97" r="2.5" fill="#2563eb"/>
  <circle cx="901.23" cy="299.97" r="2.5" fill="#2563eb"/>
  <circle cx="903.30" cy="299.97" r="2.5" fill="#2563eb"/>
  <circle cx="905.38" cy="300.06" r="2.5" fill="#2563eb"/>
  <circle cx="907.45" cy="249.99" r="2.5" fill="#2563eb"/>
  <circle cx="909.52" cy="300.01" r="2.5" fill="#2563eb"/>
  <circle cx="911.59" cy="250.03" r="2.5" fill="#2563eb"/>
  <circle cx="913.67" cy="249.94" r="2.5" fill="#2563eb"/>
  <circle cx="915.74" cy="249.99" r="2.5" fill="#2563eb"/>
  <circle cx="917.81" cy="300.01" r="2.5" fill="#2563eb"/>
  <circle cx="919.89" cy="300.06" r="2.5" fill="#2563eb"/>
  <circle cx="921.96" cy="300.01" r="2.5" fill="#2563eb"/>
  <circle cx="924.03" cy="299.97" r="2.5" fill="#2563eb"/>
  <circle cx="926.10" cy="299.97" r="2.5" fill="#2563eb"/>
  <circle cx="928.18" cy="300.01" r="2.5" fill="#2563eb"/>
  <circle cx="930.25" cy="299.93" r="2.5" fill="#2563eb"/>
  <circle cx="932.32" cy="299.89" r="2.5" fill="#2563eb"/>
  <circle cx="934.40" cy="299.89" r="2.5" fill="#2563eb"/>
  <circle cx="936.47" cy="299.89" r="2.5" fill="#2563eb"/>
  <circle cx="938.54" cy="299.89" r="2.5" fill="#2563eb"/>
  <circle cx="940.62" cy="299.85" r="2.5" fill="#2563eb"/>
  <circle cx="942.69" cy="299.85" r="2.5" fill="#2563eb"/>
  <circle cx="944.76" cy="299.89" r="2.5" fill="#2563eb"/>
  <circle cx="946.83" cy="299.81" r="2.5" fill="#2563eb"/>
  <circle cx="948.91" cy="299.81" r="2.5" fill="#2563eb"/>
  <circle cx="950.98" cy="299.81" r="2.5" fill="#2563eb"/>
  <circle cx="953.05" cy="299.76" r="2.5" fill="#2563eb"/>
  <circle cx="955.13" cy="299.76" r="2.5" fill="#2563eb"/>
  <circle cx="957.20" cy="299.76" r="2.5" fill="#2563eb"/>
  <circle cx="959.27" cy="299.72" r="2.5" fill="#2563eb"/>
  <circle cx="961.34" cy="299.68" r="2.5" fill="#2563eb"/>
  <circle cx="963.42" cy="299.60" r="2.5" fill="#2563eb"/>
  <circle cx="965.49" cy="299.60" r="2.5" fill="#2563eb"/>
  <circle cx="967.56" cy="299.60" r="2.5" fill="#2563eb"/>
  <circle cx="969.64" cy="299.56" r="2.5" fill="#2563eb"/>
  <circle cx="971.71" cy="299.47" r="2.5" fill="#2563eb"/>
  <circle cx="973.78" cy="299.43" r="2.5" fill="#2563eb"/>
  <circle cx="975.85" cy="299.43" r="2.5" fill="#2563eb"/>
  <circle cx="977.93" cy="299.39" r="2.5" fill="#2563eb"/>
  <circle cx="980.00" cy="299.47" r="2.5" fill="#2563eb"/>
</svg>
