<?xml version="1.0" encoding="UTF-8"?>
<svg xmlns="http://www.w3.org/2000/svg" width="1000" height="420" viewBox="0 0 1000 420">
  <rect width="100%" height="100%" fill="#ffffff"/>
  <text x="70" y="28" font-size="20" font-weight="600">수집 시점 기준 - 시간별 스냅샷</text>
  <text x="70" y="402" font-size="12" fill="#555">스냅샷 수</text>
  <line x1="70" y1="350.00" x2="980" y2="350.00" stroke="#e5e7eb" stroke-width="1"/>
  <text x="62" y="354.00" font-size="11" fill="#6b7280" text-anchor="end">0</text>
  <line x1="70" y1="290.00" x2="980" y2="290.00" stroke="#e5e7eb" stroke-width="1"/>
  <text x="62" y="294.00" font-size="11" fill="#6b7280" text-anchor="end">1,440</text>
  <line x1="70" y1="230.00" x2="980" y2="230.00" stroke="#e5e7eb" stroke-width="1"/>
  <text x="62" y="234.00" font-size="11" fill="#6b7280" text-anchor="end">2,880</text>
  <line x1="70" y1="170.00" x2="980" y2="170.00" stroke="#e5e7eb" stroke-width="1"/>
  <text x="62" y="174.00" font-size="11" fill="#6b7280" text-anchor="end">4,321</text>
  <line x1="70" y1="110.00" x2="980" y2="110.00" stroke="#e5e7eb" stroke-width="1"/>
  <text x="62" y="114.00" font-size="11" fill="#6b7280" text-anchor="end">5,761</text>
  <line x1="70" y1="50.00" x2="980" y2="50.00" stroke="#e5e7eb" stroke-width="1"/>
  <text x="62" y="54.00" font-size="11" fill="#6b7280" text-anchor="end">7,202</text>
  <line x1="70" y1="350" x2="980" y2="350" stroke="#111827" stroke-width="1.2"/>
  <line x1="70" y1="50" x2="70" y2="350" stroke="#111827" stroke-width="1.2"/>
  <line x1="70.00" y1="350" x2="70.00" y2="356" stroke="#9ca3af" stroke-width="1"/>
  <text x="70.00" y="372" font-size="10" fill="#6b7280" text-anchor="middle">2026-02-28 18</text>
  <line x1="144.76" y1="350" x2="144.76" y2="356" stroke="#9ca3af" stroke-width="1"/>
  <text x="144.76" y="372" font-size="10" fill="#6b7280" text-anchor="middle">2026-03-09 15</text>
  <line x1="219.52" y1="350" x2="219.52" y2="356" stroke="#9ca3af" stroke-width="1"/>
  <text x="219.52" y="372" font-size="10" fill="#6b7280" text-anchor="middle">2026-03-12 05</text>
  <line x1="294.28" y1="350" x2="294.28" y2="356" stroke="#9ca3af" stroke-width="1"/>
  <text x="294.28" y="372" font-size="10" fill="#6b7280" text-anchor="middle">2026-03-15 01</text>
  <line x1="369.04" y1="350" x2="369.04" y2="356" stroke="#9ca3af" stroke-width="1"/>
  <text x="369.04" y="372" font-size="10" fill="#6b7280" text-anchor="middle">2026-03-18 21</text>
  <line x1="443.80" y1="350" x2="443.80" y2="356" stroke="#9ca3af" stroke-width="1"/>
  <text x="443.80" y="372" font-size="10" fill="#6b7280" text-anchor="middle">2026-03-22 06</text>
  <line x1="518.56" y1="350" x2="518.56" y2="356" stroke="#9ca3af" stroke-width="1"/>
  <text x="518.56" y="372" font-size="10" fill="#6b7280" text-anchor="middle">2026-03-26 00</text>
  <line x1="593.31" y1="350" x2="593.31" y2="356" stroke="#9ca3af" stroke-width="1"/>
  <text x="593.31" y="372" font-size="10" fill="#6b7280" text-anchor="middle">2026-03-30 00</text>
  <line x1="668.07" y1="350" x2="668.07" y2="356" stroke="#9ca3af" stroke-width="1"/>
  <text x="668.07" y="372" font-size="10" fill="#6b7280" text-anchor="middle">2026-04-03 03</text>
  <line x1="742.83" y1="350" x2="742.83" y2="356" stroke="#9ca3af" stroke-width="1"/>
  <text x="742.83" y="372" font-size="10" fill="#6b7280" text-anchor="middle">2026-04-07 00</text>
  <line x1="817.59" y1="350" x2="817.59" y2="356" stroke="#9ca3af" stroke-width="1"/>
  <text x="817.59" y="372" font-size="10" fill="#6b7280" text-anchor="middle">2026-04-11 02</text>
  <line x1="892.35" y1="350" x2="892.35" y2="356" stroke="#9ca3af" stroke-width="1"/>
  <text x="892.35" y="372" font-size="10" fill="#6b7280" text-anchor="middle">2026-04-15 07</text>
  <line x1="967.11" y1="350" x2="967.11" y2="356" stroke="#9ca3af" stroke-width="1"/>
  <text x="967.11" y="372" font-size="10" fill="#6b7280" text-anchor="middle">2026-04-19 09</text>
  <line x1="980.00" y1="350" x2="980.00" y2="356" stroke="#9ca3af" stroke-width="1"/>
  <text x="980.00" y="372" font-size="10" fill="#6b7280" text-anchor="middle">2026-04-20 02</text>
  <polyline fill="none" stroke="#2563eb" stroke-width="2.5" points="70.00,50.00 71.29,50.12 72.58,50.17 73.87,50.46 75.16,50.00 76.44,266.90 77.73,50.12 79.02,50.08 80.31,177.46 81.60,211.58 82.89,175.34 84.18,304.14 85.47,200.46 86.76,250.94 88.05,300.01 89.33,300.06 90.62,300.01 91.91,300.01 93.20,348.00 94.49,300.01 95.78,249.99 97.07,200.00 98.36,249.99 99.65,249.99 100.93,250.03 102.22,250.03 103.51,250.03 104.80,250.40 106.09,250.90 107.38,250.90 108.67,251.32 109.96,249.94 111.25,300.01 112.54,299.93 113.82,251.03 115.11,300.68 116.40,250.03 117.69,200.00 118.98,249.99 120.27,250.03 121.56,250.03 122.85,250.03 124.14,300.01 125.42,200.04 126.71,250.03 128.00,250.03 129.29,250.03 130.58,249.90 131.87,250.03 133.16,250.03 134.45,250.94 135.74,250.44 137.03,250.03 138.31,250.03 139.60,300.47 140.89,300.01 142.18,300.43 143.47,250.03 144.76,249.99 146.05,300.43 147.34,249.90 148.63,249.99 149.92,249.99 151.20,200.04 152.49,300.01 153.78,300.01 155.07,300.01 156.36,249.90 157.65,300.01 158.94,250.03 160.23,249.99 161.52,199.96 162.80,300.01 164.09,200.00 165.38,250.36 166.67,250.03 167.96,300.01 169.25,300.01 170.54,250.44 171.83,300.01 173.12,250.03 174.41,250.03 175.69,249.99 176.98,250.49 178.27,250.03 179.56,200.04 180.85,300.01 182.14,250.03 183.43,300.01 184.72,250.11 186.01,300.01 187.29,250.03 188.58,250.03 189.87,199.92 191.16,250.03 192.45,250.03 193.74,250.03 195.03,254.36 196.32,300.01 197.61,299.97 198.90,250.36 200.18,299.97 201.47,250.03 202.76,250.03 204.05,250.03 205.34,250.03 206.63,249.99 207.92,200.00 209.21,299.93 210.50,300.01 211.78,299.97 213.07,249.94 214.36,249.99 215.65,249.82 216.94,249.94 218.23,250.28 219.52,207.00 220.81,250.03 222.10,250.32 223.39,250.40 224.67,300.93 225.96,300.01 227.25,300.10 228.54,249.94 229.83,249.99 231.12,250.07 232.41,249.99 233.70,250.03 234.99,249.94 236.27,200.00 237.56,300.39 238.85,300.01 240.14,300.01 241.43,250.44 242.72,300.39 244.01,249.86 245.30,250.11 246.59,201.46 247.88,300.01 249.16,200.83 250.45,250.03 251.74,249.99 253.03,300.26 254.32,300.01 255.61,300.01 256.90,250.03 258.19,250.03 259.48,250.03 260.76,250.03 262.05,249.99 263.34,250.03 264.63,200.00 265.92,300.26 267.21,249.99 268.50,300.01 269.79,249.94 271.08,250.03 272.37,250.03 273.65,250.03 274.94,200.04 276.23,300.01 277.52,249.90 278.81,300.01 280.10,300.01 281.39,300.06 282.68,300.01 283.97,300.01 285.25,243.95 286.54,249.94 287.83,299.97 289.12,300.01 290.41,300.01 291.70,250.03 292.99,300.01 294.28,300.01 295.57,299.97 296.86,249.99 298.14,300.01 299.43,299.93 300.72,300.01 302.01,299.93 303.30,300.01 304.59,300.01 305.88,299.89 307.17,299.97 308.46,250.03 309.75,299.93 311.03,299.89 312.32,299.97 313.61,249.94 314.90,300.01 316.19,300.01 317.48,299.97 318.77,249.99 320.06,299.97 321.35,299.97 322.63,300.06 323.92,300.06 325.21,299.93 326.50,300.01 327.79,300.01 329.08,299.93 330.37,300.01 331.66,300.01 332.95,299.97 334.24,300.01 335.52,300.01 336.81,300.01 338.10,300.01 339.39,249.86 340.68,300.01 341.97,300.10 343.26,299.93 344.55,300.01 345.84,299.93 347.12,300.01 348.41,300.01 349.70,300.01 350.99,300.01 352.28,300.01 353.57,299.97 354.86,300.01 356.15,300.01 357.44,300.01 358.73,300.01 360.01,250.03 361.30,300.01 362.59,300.01 363.88,299.97 365.17,300.01 366.46,300.01 367.75,299.97 369.04,299.97 370.33,300.01 371.61,299.97 372.90,300.01 374.19,299.93 375.48,300.01 376.77,250.03 378.06,300.01 379.35,300.01 380.64,300.01 381.93,300.01 383.22,300.01 384.50,299.89 385.79,300.01 387.08,300.01 388.37,250.07 389.66,300.01 390.95,299.93 392.24,300.01 393.53,299.97 394.82,299.97 396.10,299.97 397.39,250.03 398.68,300.01 399.97,300.01 401.26,300.01 402.55,300.01 403.84,299.97 405.13,300.01 406.42,299.97 407.71,300.01 408.99,299.97 410.28,249.90 411.57,300.01 412.86,300.01 414.15,299.89 415.44,299.97 416.73,299.97 418.02,249.99 419.31,299.97 420.59,299.89 421.88,300.01 423.17,299.97 424.46,299.97 425.75,300.01 427.04,299.97 428.33,249.99 429.62,299.97 430.91,299.97 432.20,300.06 433.48,300.06 434.77,249.94 436.06,300.01 437.35,299.93 438.64,300.01 439.93,300.01 441.22,249.99 442.51,300.01 443.80,300.01 445.08,300.01 446.37,299.93 447.66,299.93 448.95,300.01 450.24,300.01 451.53,249.94 452.82,299.97 454.11,299.97 455.40,300.01 456.69,300.01 457.97,300.01 459.26,249.99 460.55,300.01 461.84,300.01 463.13,300.01 464.42,250.03 465.71,300.01 467.00,300.01 468.29,300.01 469.58,299.97 470.86,300.01 472.15,300.01 473.44,299.97 474.73,299.97 476.02,300.01 477.31,300.01 478.60,299.97 479.89,299.93 481.18,300.01 482.46,300.06 483.75,299.97 485.04,300.01 486.33,250.03 487.62,250.03 488.91,299.93 490.20,299.97 491.49,300.01 492.78,300.01 494.07,300.06 495.35,300.01 496.64,299.93 497.93,300.01 499.22,300.01 500.51,299.97 501.80,299.97 503.09,300.01 504.38,250.03 505.67,300.01 506.95,300.01 508.24,300.01 509.53,299.97 510.82,300.01 512.11,299.97 513.40,300.01 514.69,299.97 515.98,299.97 517.27,299.93 518.56,300.01 519.84,300.01 521.13,299.89 522.42,299.97 523.71,299.97 525.00,300.06 526.29,249.90 527.58,299.89 528.87,300.01 530.16,299.97 531.44,299.97 532.73,299.97 534.02,300.01 535.31,300.01 536.60,299.97 537.89,299.97 539.18,299.97 540.47,250.03 541.76,299.93 543.05,300.01 544.33,300.01 545.62,299.93 546.91,300.01 548.20,300.01 549.49,299.97 550.78,300.01 552.07,300.01 553.36,300.06 554.65,300.01 555.93,299.97 557.22,299.89 558.51,300.01 559.80,300.01 561.09,249.94 562.38,249.94 563.67,300.01 564.96,300.01 566.25,300.01 567.54,300.01 568.82,299.97 570.11,250.03 571.40,300.01 572.69,300.01 573.98,300.01 575.27,300.01 576.56,250.03 577.85,249.99 579.14,300.01 580.42,299.97 581.71,300.01 583.00,299.97 584.29,300.01 585.58,299.97 586.87,299.97 588.16,299.97 589.45,300.06 590.74,249.99 592.03,300.01 593.31,250.03 594.60,249.94 595.89,249.99 597.18,300.01 598.47,300.06 599.76,300.01 601.05,299.97 602.34,299.97 603.63,300.01 604.92,299.93 606.20,299.89 607.49,299.89 608.78,299.89 610.07,299.89 611.36,299.85 612.65,299.85 613.94,299.89 615.23,299.81 616.52,299.81 617.80,299.81 619.09,299.76 620.38,299.76 621.67,299.76 622.96,299.72 624.25,299.68 625.54,299.60 626.83,299.60 628.12,299.60 629.41,299.56 630.69,299.47 631.98,299.43 633.27,299.43 634.56,299.39 635.85,299.47 637.14,259.82 638.43,338.96 639.72,299.31 641.01,299.31 642.29,299.26 643.58,299.68 644.87,299.68 646.16,299.68 647.45,299.64 648.74,299.14 650.03,299.14 651.32,299.10 652.61,299.10 653.90,299.10 655.18,248.07 656.47,299.06 657.76,299.06 659.05,299.06 660.34,299.06 661.63,299.06 662.92,298.97 664.21,298.97 665.50,298.93 666.78,298.97 668.07,298.93 669.36,298.89 670.65,298.89 671.94,298.89 673.23,298.89 674.52,247.78 675.81,298.89 677.10,298.89 678.39,298.85 679.67,298.85 680.96,298.81 682.25,298.81 683.54,298.81 684.83,298.81 686.12,298.81 687.41,298.81 688.70,298.81 689.99,298.81 691.27,298.81 692.56,298.72 693.85,247.45 695.14,247.45 696.43,298.72 697.72,298.72 699.01,298.72 700.30,298.72 701.59,298.72 702.88,298.72 704.16,247.36 705.45,298.68 706.74,247.36 708.03,247.36 709.32,247.36 710.61,298.68 711.90,298.68 713.19,298.68 714.48,298.68 715.76,298.68 717.05,341.67 718.34,307.01 719.63,298.68 720.92,298.68 722.21,298.68 723.50,247.36 724.79,298.64 726.08,247.36 727.37,247.28 728.65,247.20 729.94,298.60 731.23,298.60 732.52,247.03 733.81,298.51 735.10,298.51 736.39,298.51 737.68,298.51 738.97,298.51 740.25,298.51 741.54,298.51 742.83,298.51 744.12,298.51 745.41,298.51 746.70,298.51 747.99,298.51 749.28,298.51 750.57,298.51 751.86,298.51 753.14,298.51 754.43,298.51 755.72,298.51 757.01,298.51 758.30,298.51 759.59,298.51 760.88,298.51 762.17,298.51 763.46,298.51 764.75,298.51 766.03,298.51 767.32,298.47 768.61,298.51 769.90,298.51 771.19,298.47 772.48,298.51 773.77,298.47 775.06,298.51 776.35,298.43 777.63,298.56 778.92,298.43 780.21,298.43 781.50,298.43 782.79,298.43 784.08,298.43 785.37,298.43 786.66,298.43 787.95,298.43 789.24,298.43 790.52,298.43 791.81,298.43 793.10,298.43 794.39,298.43 795.68,298.43 796.97,298.43 798.26,298.43 799.55,298.43 800.84,298.43 802.12,298.43 803.41,298.43 804.70,298.43 805.99,298.43 807.28,298.43 808.57,298.43 809.86,298.43 811.15,298.43 812.44,298.43 813.73,298.43 815.01,298.43 816.30,298.43 817.59,298.43 818.88,298.43 820.17,298.43 821.46,298.43 822.75,298.39 824.04,298.39 825.33,298.43 826.61,298.43 827.90,298.39 829.19,298.39 830.48,298.39 831.77,298.43 833.06,298.43 834.35,298.43 835.64,246.82 836.93,298.43 838.22,246.78 839.50,246.78 840.79,246.78 842.08,246.70 843.37,246.78 844.66,298.39 845.95,298.39 847.24,298.39 848.53,298.39 849.82,298.39 851.10,246.78 852.39,298.39 853.68,298.39 854.97,298.39 856.26,298.39 857.55,298.39 858.84,246.78 860.13,246.78 861.42,298.39 862.71,298.39 863.99,298.39 865.28,298.39 866.57,298.39 867.86,298.39 869.15,298.39 870.44,298.39 871.73,298.39 873.02,298.39 874.31,298.39 875.59,298.39 876.88,298.39 878.17,298.39 879.46,298.35 880.75,298.39 882.04,298.39 883.33,298.35 884.62,298.35 885.91,298.35 887.20,298.35 888.48,298.35 889.77,298.35 891.06,298.35 892.35,298.35 893.64,298.35 894.93,298.35 896.22,298.35 897.51,298.35 898.80,298.35 900.08,298.35 901.37,298.35 902.66,298.35 903.95,298.35 905.24,298.35 906.53,298.35 907.82,298.35 909.11,298.35 910.40,298.35 911.69,298.35 912.97,298.35 914.26,298.35 915.55,298.35 916.84,298.35 918.13,298.35 919.42,298.35 920.71,298.35 922.00,298.35 923.29,298.35 924.58,298.35 925.86,298.35 927.15,298.35 928.44,298.35 929.73,298.35 931.02,298.35 932.31,298.35 933.60,298.35 934.89,298.35 936.18,298.35 937.46,298.35 938.75,298.35 940.04,298.35 941.33,298.35 942.62,298.35 943.91,298.35 945.20,298.35 946.49,298.35 947.78,298.35 949.07,298.35 950.35,298.39 951.64,298.39 952.93,298.39 954.22,246.78 955.51,298.39 956.80,298.39 958.09,298.39 959.38,298.39 960.67,298.39 961.95,298.39 963.24,298.39 964.53,246.78 965.82,298.39 967.11,298.39 968.40,298.39 969.69,298.39 970.98,298.39 972.27,298.39 973.56,298.39 974.84,246.78 976.13,298.39 977.42,298.39 978.71,298.39 980.00,298.39"/>
  <circle cx="70.00" cy="50.00" r="2.5" fill="#2563eb"/>
  <circle cx="71.29" cy="50.12" r="2.5" fill="#2563eb"/>
  <circle cx="72.58" cy="50.17" r="2.5" fill="#2563eb"/>
  <circle cx="73.87" cy="50.46" r="2.5" fill="#2563eb"/>
  <circle cx="75.16" cy="50.00" r="2.5" fill="#2563eb"/>
  <circle cx="76.44" cy="266.90" r="2.5" fill="#2563eb"/>
  <circle cx="77.73" cy="50.12" r="2.5" fill="#2563eb"/>
  <circle cx="79.02" cy="50.08" r="2.5" fill="#2563eb"/>
  <circle cx="80.31" cy="177.46" r="2.5" fill="#2563eb"/>
  <circle cx="81.60" cy="211.58" r="2.5" fill="#2563eb"/>
  <circle cx="82.89" cy="175.34" r="2.5" fill="#2563eb"/>
  <circle cx="84.18" cy="304.14" r="2.5" fill="#2563eb"/>
  <circle cx="85.47" cy="200.46" r="2.5" fill="#2563eb"/>
  <circle cx="86.76" cy="250.94" r="2.5" fill="#2563eb"/>
  <circle cx="88.05" cy="300.01" r="2.5" fill="#2563eb"/>
  <circle cx="89.33" cy="300.06" r="2.5" fill="#2563eb"/>
  <circle cx="90.62" cy="300.01" r="2.5" fill="#2563eb"/>
  <circle cx="91.91" cy="300.01" r="2.5" fill="#2563eb"/>
  <circle cx="93.20" cy="348.00" r="2.5" fill="#2563eb"/>
  <circle cx="94.49" cy="300.01" r="2.5" fill="#2563eb"/>
  <circle cx="95.78" cy="249.99" r="2.5" fill="#2563eb"/>
  <circle cx="97.07" cy="200.00" r="2.5" fill="#2563eb"/>
  <circle cx="98.36" cy="249.99" r="2.5" fill="#2563eb"/>
  <circle cx="99.65" cy="249.99" r="2.5" fill="#2563eb"/>
  <circle cx="100.93" cy="250.03" r="2.5" fill="#2563eb"/>
  <circle cx="102.22" cy="250.03" r="2.5" fill="#2563eb"/>
  <circle cx="103.51" cy="250.03" r="2.5" fill="#2563eb"/>
  <circle cx="104.80" cy="250.40" r="2.5" fill="#2563eb"/>
  <circle cx="106.09" cy="250.90" r="2.5" fill="#2563eb"/>
  <circle cx="107.38" cy="250.90" r="2.5" fill="#2563eb"/>
  <circle cx="108.67" cy="251.32" r="2.5" fill="#2563eb"/>
  <circle cx="109.96" cy="249.94" r="2.5" fill="#2563eb"/>
  <circle cx="111.25" cy="300.01" r="2.5" fill="#2563eb"/>
  <circle cx="112.54" cy="299.93" r="2.5" fill="#2563eb"/>
  <circle cx="113.82" cy="251.03" r="2.5" fill="#2563eb"/>
  <circle cx="115.11" cy="300.68" r="2.5" fill="#2563eb"/>
  <circle cx="116.40" cy="250.03" r="2.5" fill="#2563eb"/>
  <circle cx="117.69" cy="200.00" r="2.5" fill="#2563eb"/>
  <circle cx="118.98" cy="249.99" r="2.5" fill="#2563eb"/>
  <circle cx="120.27" cy="250.03" r="2.5" fill="#2563eb"/>
  <circle cx="121.56" cy="250.03" r="2.5" fill="#2563eb"/>
  <circle cx="122.85" cy="250.03" r="2.5" fill="#2563eb"/>
  <circle cx="124.14" cy="300.01" r="2.5" fill="#2563eb"/>
  <circle cx="125.42" cy="200.04" r="2.5" fill="#2563eb"/>
  <circle cx="126.71" cy="250.03" r="2.5" fill="#2563eb"/>
  <circle cx="128.00" cy="250.03" r="2.5" fill="#2563eb"/>
  <circle cx="129.29" cy="250.03" r="2.5" fill="#2563eb"/>
  <circle cx="130.58" cy="249.90" r="2.5" fill="#2563eb"/>
  <circle cx="131.87" cy="250.03" r="2.5" fill="#2563eb"/>
  <circle cx="133.16" cy="250.03" r="2.5" fill="#2563eb"/>
  <circle cx="134.45" cy="250.94" r="2.5" fill="#2563eb"/>
  <circle cx="135.74" cy="250.44" r="2.5" fill="#2563eb"/>
  <circle cx="137.03" cy="250.03" r="2.5" fill="#2563eb"/>
  <circle cx="138.31" cy="250.03" r="2.5" fill="#2563eb"/>
  <circle cx="139.60" cy="300.47" r="2.5" fill="#2563eb"/>
  <circle cx="140.89" cy="300.01" r="2.5" fill="#2563eb"/>
  <circle cx="142.18" cy="300.43" r="2.5" fill="#2563eb"/>
  <circle cx="143.47" cy="250.03" r="2.5" fill="#2563eb"/>
  <circle cx="144.76" cy="249.99" r="2.5" fill="#2563eb"/>
  <circle cx="146.05" cy="300.43" r="2.5" fill="#2563eb"/>
  <circle cx="147.34" cy="249.90" r="2.5" fill="#2563eb"/>
  <circle cx="148.63" cy="249.99" r="2.5" fill="#2563eb"/>
  <circle cx="149.92" cy="249.99" r="2.5" fill="#2563eb"/>
  <circle cx="151.20" cy="200.04" r="2.5" fill="#2563eb"/>
  <circle cx="152.49" cy="300.01" r="2.5" fill="#2563eb"/>
  <circle cx="153.78" cy="300.01" r="2.5" fill="#2563eb"/>
  <circle cx="155.07" cy="300.01" r="2.5" fill="#2563eb"/>
  <circle cx="156.36" cy="249.90" r="2.5" fill="#2563eb"/>
  <circle cx="157.65" cy="300.01" r="2.5" fill="#2563eb"/>
  <circle cx="158.94" cy="250.03" r="2.5" fill="#2563eb"/>
  <circle cx="160.23" cy="249.99" r="2.5" fill="#2563eb"/>
  <circle cx="161.52" cy="199.96" r="2.5" fill="#2563eb"/>
  <circle cx="162.80" cy="300.01" r="2.5" fill="#2563eb"/>
  <circle cx="164.09" cy="200.00" r="2.5" fill="#2563eb"/>
  <circle cx="165.38" cy="250.36" r="2.5" fill="#2563eb"/>
  <circle cx="166.67" cy="250.03" r="2.5" fill="#2563eb"/>
  <circle cx="167.96" cy="300.01" r="2.5" fill="#2563eb"/>
  <circle cx="169.25" cy="300.01" r="2.5" fill="#2563eb"/>
  <circle cx="170.54" cy="250.44" r="2.5" fill="#2563eb"/>
  <circle cx="171.83" cy="300.01" r="2.5" fill="#2563eb"/>
  <circle cx="173.12" cy="250.03" r="2.5" fill="#2563eb"/>
  <circle cx="174.41" cy="250.03" r="2.5" fill="#2563eb"/>
  <circle cx="175.69" cy="249.99" r="2.5" fill="#2563eb"/>
  <circle cx="176.98" cy="250.49" r="2.5" fill="#2563eb"/>
  <circle cx="178.27" cy="250.03" r="2.5" fill="#2563eb"/>
  <circle cx="179.56" cy="200.04" r="2.5" fill="#2563eb"/>
  <circle cx="180.85" cy="300.01" r="2.5" fill="#2563eb"/>
  <circle cx="182.14" cy="250.03" r="2.5" fill="#2563eb"/>
  <circle cx="183.43" cy="300.01" r="2.5" fill="#2563eb"/>
  <circle cx="184.72" cy="250.11" r="2.5" fill="#2563eb"/>
  <circle cx="186.01" cy="300.01" r="2.5" fill="#2563eb"/>
  <circle cx="187.29" cy="250.03" r="2.5" fill="#2563eb"/>
  <circle cx="188.58" cy="250.03" r="2.5" fill="#2563eb"/>
  <circle cx="189.87" cy="199.92" r="2.5" fill="#2563eb"/>
  <circle cx="191.16" cy="250.03" r="2.5" fill="#2563eb"/>
  <circle cx="192.45" cy="250.03" r="2.5" fill="#2563eb"/>
  <circle cx="193.74" cy="250.03" r="2.5" fill="#2563eb"/>
  <circle cx="195.03" cy="254.36" r="2.5" fill="#2563eb"/>
  <circle cx="196.32" cy="300.01" r="2.5" fill="#2563eb"/>
  <circle cx="197.61" cy="299.97" r="2.5" fill="#2563eb"/>
  <circle cx="198.90" cy="250.36" r="2.5" fill="#2563eb"/>
  <circle cx="200.18" cy="299.97" r="2.5" fill="#2563eb"/>
  <circle cx="201.47" cy="250.03" r="2.5" fill="#2563eb"/>
  <circle cx="202.76" cy="250.03" r="2.5" fill="#2563eb"/>
  <circle cx="204.05" cy="250.03" r="2.5" fill="#2563eb"/>
  <circle cx="205.34" cy="250.03" r="2.5" fill="#2563eb"/>
  <circle cx="206.63" cy="249.99" r="2.5" fill="#2563eb"/>
  <circle cx="207.92" cy="200.00" r="2.5" fill="#2563eb"/>
  <circle cx="209.21" cy="299.93" r="2.5" fill="#2563eb"/>
  <circle cx="210.50" cy="300.01" r="2.5" fill="#2563eb"/>
  <circle cx="211.78" cy="299.97" r="2.5" fill="#2563eb"/>
  <circle cx="213.07" cy="249.94" r="2.5" fill="#2563eb"/>
  <circle cx="214.36" cy="249.99" r="2.5" fill="#2563eb"/>
  <circle cx="215.65" cy="249.82" r="2.5" fill="#2563eb"/>
  <circle cx="216.94" cy="249.94" r="2.5" fill="#2563eb"/>
  <circle cx="218.23" cy="250.28" r="2.5" fill="#2563eb"/>
  <circle cx="219.52" cy="207.00" r="2.5" fill="#2563eb"/>
  <circle cx="220.81" cy="250.03" r="2.5" fill="#2563eb"/>
  <circle cx="222.10" cy="250.32" r="2.5" fill="#2563eb"/>
  <circle cx="223.39" cy="250.40" r="2.5" fill="#2563eb"/>
  <circle cx="224.67" cy="300.93" r="2.5" fill="#2563eb"/>
  <circle cx="225.96" cy="300.01" r="2.5" fill="#2563eb"/>
  <circle cx="227.25" cy="300.10" r="2.5" fill="#2563eb"/>
  <circle cx="228.54" cy="249.94" r="2.5" fill="#2563eb"/>
  <circle cx="229.83" cy="249.99" r="2.5" fill="#2563eb"/>
  <circle cx="231.12" cy="250.07" r="2.5" fill="#2563eb"/>
  <circle cx="232.41" cy="249.99" r="2.5" fill="#2563eb"/>
  <circle cx="233.70" cy="250.03" r="2.5" fill="#2563eb"/>
  <circle cx="234.99" cy="249.94" r="2.5" fill="#2563eb"/>
  <circle cx="236.27" cy="200.00" r="2.5" fill="#2563eb"/>
  <circle cx="237.56" cy="300.39" r="2.5" fill="#2563eb"/>
  <circle cx="238.85" cy="300.01" r="2.5" fill="#2563eb"/>
  <circle cx="240.14" cy="300.01" r="2.5" fill="#2563eb"/>
  <circle cx="241.43" cy="250.44" r="2.5" fill="#2563eb"/>
  <circle cx="242.72" cy="300.39" r="2.5" fill="#2563eb"/>
  <circle cx="244.01" cy="249.86" r="2.5" fill="#2563eb"/>
  <circle cx="245.30" cy="250.11" r="2.5" fill="#2563eb"/>
  <circle cx="246.59" cy="201.46" r="2.5" fill="#2563eb"/>
  <circle cx="247.88" cy="300.01" r="2.5" fill="#2563eb"/>
  <circle cx="249.16" cy="200.83" r="2.5" fill="#2563eb"/>
  <circle cx="250.45" cy="250.03" r="2.5" fill="#2563eb"/>
  <circle cx="251.74" cy="249.99" r="2.5" fill="#2563eb"/>
  <circle cx="253.03" cy="300.26" r="2.5" fill="#2563eb"/>
  <circle cx="254.32" cy="300.01" r="2.5" fill="#2563eb"/>
  <circle cx="255.61" cy="300.01" r="2.5" fill="#2563eb"/>
  <circle cx="256.90" cy="250.03" r="2.5" fill="#2563eb"/>
  <circle cx="258.19" cy="250.03" r="2.5" fill="#2563eb"/>
  <circle cx="259.48" cy="250.03" r="2.5" fill="#2563eb"/>
  <circle cx="260.76" cy="250.03" r="2.5" fill="#2563eb"/>
  <circle cx="262.05" cy="249.99" r="2.5" fill="#2563eb"/>
  <circle cx="263.34" cy="250.03" r="2.5" fill="#2563eb"/>
  <circle cx="264.63" cy="200.00" r="2.5" fill="#2563eb"/>
  <circle cx="265.92" cy="300.26" r="2.5" fill="#2563eb"/>
  <circle cx="267.21" cy="249.99" r="2.5" fill="#2563eb"/>
  <circle cx="268.50" cy="300.01" r="2.5" fill="#2563eb"/>
  <circle cx="269.79" cy="249.94" r="2.5" fill="#2563eb"/>
  <circle cx="271.08" cy="250.03" r="2.5" fill="#2563eb"/>
  <circle cx="272.37" cy="250.03" r="2.5" fill="#2563eb"/>
  <circle cx="273.65" cy="250.03" r="2.5" fill="#2563eb"/>
  <circle cx="274.94" cy="200.04" r="2.5" fill="#2563eb"/>
  <circle cx="276.23" cy="300.01" r="2.5" fill="#2563eb"/>
  <circle cx="277.52" cy="249.90" r="2.5" fill="#2563eb"/>
  <circle cx="278.81" cy="300.01" r="2.5" fill="#2563eb"/>
  <circle cx="280.10" cy="300.01" r="2.5" fill="#2563eb"/>
  <circle cx="281.39" cy="300.06" r="2.5" fill="#2563eb"/>
  <circle cx="282.68" cy="300.01" r="2.5" fill="#2563eb"/>
  <circle cx="283.97" cy="300.01" r="2.5" fill="#2563eb"/>
  <circle cx="285.25" cy="243.95" r="2.5" fill="#2563eb"/>
  <circle cx="286.54" cy="249.94" r="2.5" fill="#2563eb"/>
  <circle cx="287.83" cy="299.97" r="2.5" fill="#2563eb"/>
  <circle cx="289.12" cy="300.01" r="2.5" fill="#2563eb"/>
  <circle cx="290.41" cy="300.01" r="2.5" fill="#2563eb"/>
  <circle cx="291.70" cy="250.03" r="2.5" fill="#2563eb"/>
  <circle cx="292.99" cy="300.01" r="2.5" fill="#2563eb"/>
  <circle cx="294.28" cy="300.01" r="2.5" fill="#2563eb"/>
  <circle cx="295.57" cy="299.97" r="2.5" fill="#2563eb"/>
  <circle cx="296.86" cy="249.99" r="2.5" fill="#2563eb"/>
  <circle cx="298.14" cy="300.01" r="2.5" fill="#2563eb"/>
  <circle cx="299.43" cy="299.93" r="2.5" fill="#2563eb"/>
  <circle cx="300.72" cy="300.01" r="2.5" fill="#2563eb"/>
  <circle cx="302.01" cy="299.93" r="2.5" fill="#2563eb"/>
  <circle cx="303.30" cy="300.01" r="2.5" fill="#2563eb"/>
  <circle cx="304.59" cy="300.01" r="2.5" fill="#2563eb"/>
  <circle cx="305.88" cy="299.89" r="2.5" fill="#2563eb"/>
  <circle cx="307.17" cy="299.97" r="2.5" fill="#2563eb"/>
  <circle cx="308.46" cy="250.03" r="2.5" fill="#2563eb"/>
  <circle cx="309.75" cy="299.93" r="2.5" fill="#2563eb"/>
  <circle cx="311.03" cy="299.89" r="2.5" fill="#2563eb"/>
  <circle cx="312.32" cy="299.97" r="2.5" fill="#2563eb"/>
  <circle cx="313.61" cy="249.94" r="2.5" fill="#2563eb"/>
  <circle cx="314.90" cy="300.01" r="2.5" fill="#2563eb"/>
  <circle cx="316.19" cy="300.01" r="2.5" fill="#2563eb"/>
  <circle cx="317.48" cy="299.97" r="2.5" fill="#2563eb"/>
  <circle cx="318.77" cy="249.99" r="2.5" fill="#2563eb"/>
  <circle cx="320.06" cy="299.97" r="2.5" fill="#2563eb"/>
  <circle cx="321.35" cy="299.97" r="2.5" fill="#2563eb"/>
  <circle cx="322.63" cy="300.06" r="2.5" fill="#2563eb"/>
  <circle cx="323.92" cy="300.06" r="2.5" fill="#2563eb"/>
  <circle cx="325.21" cy="299.93" r="2.5" fill="#2563eb"/>
  <circle cx="326.50" cy="300.01" r="2.5" fill="#2563eb"/>
  <circle cx="327.79" cy="300.01" r="2.5" fill="#2563eb"/>
  <circle cx="329.08" cy="299.93" r="2.5" fill="#2563eb"/>
  <circle cx="330.37" cy="300.01" r="2.5" fill="#2563eb"/>
  <circle cx="331.66" cy="300.01" r="2.5" fill="#2563eb"/>
  <circle cx="332.95" cy="299.97" r="2.5" fill="#2563eb"/>
  <circle cx="334.24" cy="300.01" r="2.5" fill="#2563eb"/>
  <circle cx="335.52" cy="300.01" r="2.5" fill="#2563eb"/>
  <circle cx="336.81" cy="300.01" r="2.5" fill="#2563eb"/>
  <circle cx="338.10" cy="300.01" r="2.5" fill="#2563eb"/>
  <circle cx="339.39" cy="249.86" r="2.5" fill="#2563eb"/>
  <circle cx="340.68" cy="300.01" r="2.5" fill="#2563eb"/>
  <circle cx="341.97" cy="300.10" r="2.5" fill="#2563eb"/>
  <circle cx="343.26" cy="299.93" r="2.5" fill="#2563eb"/>
  <circle cx="344.55" cy="300.01" r="2.5" fill="#2563eb"/>
  <circle cx="345.84" cy="299.93" r="2.5" fill="#2563eb"/>
  <circle cx="347.12" cy="300.01" r="2.5" fill="#2563eb"/>
  <circle cx="348.41" cy="300.01" r="2.5" fill="#2563eb"/>
  <circle cx="349.70" cy="300.01" r="2.5" fill="#2563eb"/>
  <circle cx="350.99" cy="300.01" r="2.5" fill="#2563eb"/>
  <circle cx="352.28" cy="300.01" r="2.5" fill="#2563eb"/>
  <circle cx="353.57" cy="299.97" r="2.5" fill="#2563eb"/>
  <circle cx="354.86" cy="300.01" r="2.5" fill="#2563eb"/>
  <circle cx="356.15" cy="300.01" r="2.5" fill="#2563eb"/>
  <circle cx="357.44" cy="300.01" r="2.5" fill="#2563eb"/>
  <circle cx="358.73" cy="300.01" r="2.5" fill="#2563eb"/>
  <circle cx="360.01" cy="250.03" r="2.5" fill="#2563eb"/>
  <circle cx="361.30" cy="300.01" r="2.5" fill="#2563eb"/>
  <circle cx="362.59" cy="300.01" r="2.5" fill="#2563eb"/>
  <circle cx="363.88" cy="299.97" r="2.5" fill="#2563eb"/>
  <circle cx="365.17" cy="300.01" r="2.5" fill="#2563eb"/>
  <circle cx="366.46" cy="300.01" r="2.5" fill="#2563eb"/>
  <circle cx="367.75" cy="299.97" r="2.5" fill="#2563eb"/>
  <circle cx="369.04" cy="299.97" r="2.5" fill="#2563eb"/>
  <circle cx="370.33" cy="300.01" r="2.5" fill="#2563eb"/>
  <circle cx="371.61" cy="299.97" r="2.5" fill="#2563eb"/>
  <circle cx="372.90" cy="300.01" r="2.5" fill="#2563eb"/>
  <circle cx="374.19" cy="299.93" r="2.5" fill="#2563eb"/>
  <circle cx="375.48" cy="300.01" r="2.5" fill="#2563eb"/>
  <circle cx="376.77" cy="250.03" r="2.5" fill="#2563eb"/>
  <circle cx="378.06" cy="300.01" r="2.5" fill="#2563eb"/>
  <circle cx="379.35" cy="300.01" r="2.5" fill="#2563eb"/>
  <circle cx="380.64" cy="300.01" r="2.5" fill="#2563eb"/>
  <circle cx="381.93" cy="300.01" r="2.5" fill="#2563eb"/>
  <circle cx="383.22" cy="300.01" r="2.5" fill="#2563eb"/>
  <circle cx="384.50" cy="299.89" r="2.5" fill="#2563eb"/>
  <circle cx="385.79" cy="300.01" r="2.5" fill="#2563eb"/>
  <circle cx="387.08" cy="300.01" r="2.5" fill="#2563eb"/>
  <circle cx="388.37" cy="250.07" r="2.5" fill="#2563eb"/>
  <circle cx="389.66" cy="300.01" r="2.5" fill="#2563eb"/>
  <circle cx="390.95" cy="299.93" r="2.5" fill="#2563eb"/>
  <circle cx="392.24" cy="300.01" r="2.5" fill="#2563eb"/>
  <circle cx="393.53" cy="299.97" r="2.5" fill="#2563eb"/>
  <circle cx="394.82" cy="299.97" r="2.5" fill="#2563eb"/>
  <circle cx="396.10" cy="299.97" r="2.5" fill="#2563eb"/>
  <circle cx="397.39" cy="250.03" r="2.5" fill="#2563eb"/>
  <circle cx="398.68" cy="300.01" r="2.5" fill="#2563eb"/>
  <circle cx="399.97" cy="300.01" r="2.5" fill="#2563eb"/>
  <circle cx="401.26" cy="300.01" r="2.5" fill="#2563eb"/>
  <circle cx="402.55" cy="300.01" r="2.5" fill="#2563eb"/>
  <circle cx="403.84" cy="299.97" r="2.5" fill="#2563eb"/>
  <circle cx="405.13" cy="300.01" r="2.5" fill="#2563eb"/>
  <circle cx="406.42" cy="299.97" r="2.5" fill="#2563eb"/>
  <circle cx="407.71" cy="300.01" r="2.5" fill="#2563eb"/>
  <circle cx="408.99" cy="299.97" r="2.5" fill="#2563eb"/>
  <circle cx="410.28" cy="249.90" r="2.5" fill="#2563eb"/>
  <circle cx="411.57" cy="300.01" r="2.5" fill="#2563eb"/>
  <circle cx="412.86" cy="300.01" r="2.5" fill="#2563eb"/>
  <circle cx="414.15" cy="299.89" r="2.5" fill="#2563eb"/>
  <circle cx="415.44" cy="299.97" r="2.5" fill="#2563eb"/>
  <circle cx="416.73" cy="299.97" r="2.5" fill="#2563eb"/>
  <circle cx="418.02" cy="249.99" r="2.5" fill="#2563eb"/>
  <circle cx="419.31" cy="299.97" r="2.5" fill="#2563eb"/>
  <circle cx="420.59" cy="299.89" r="2.5" fill="#2563eb"/>
  <circle cx="421.88" cy="300.01" r="2.5" fill="#2563eb"/>
  <circle cx="423.17" cy="299.97" r="2.5" fill="#2563eb"/>
  <circle cx="424.46" cy="299.97" r="2.5" fill="#2563eb"/>
  <circle cx="425.75" cy="300.01" r="2.5" fill="#2563eb"/>
  <circle cx="427.04" cy="299.97" r="2.5" fill="#2563eb"/>
  <circle cx="428.33" cy="249.99" r="2.5" fill="#2563eb"/>
  <circle cx="429.62" cy="299.97" r="2.5" fill="#2563eb"/>
  <circle cx="430.91" cy="299.97" r="2.5" fill="#2563eb"/>
  <circle cx="432.20" cy="300.06" r="2.5" fill="#2563eb"/>
  <circle cx="433.48" cy="300.06" r="2.5" fill="#2563eb"/>
  <circle cx="434.77" cy="249.94" r="2.5" fill="#2563eb"/>
  <circle cx="436.06" cy="300.01" r="2.5" fill="#2563eb"/>
  <circle cx="437.35" cy="299.93" r="2.5" fill="#2563eb"/>
  <circle cx="438.64" cy="300.01" r="2.5" fill="#2563eb"/>
  <circle cx="439.93" cy="300.01" r="2.5" fill="#2563eb"/>
  <circle cx="441.22" cy="249.99" r="2.5" fill="#2563eb"/>
  <circle cx="442.51" cy="300.01" r="2.5" fill="#2563eb"/>
  <circle cx="443.80" cy="300.01" r="2.5" fill="#2563eb"/>
  <circle cx="445.08" cy="300.01" r="2.5" fill="#2563eb"/>
  <circle cx="446.37" cy="299.93" r="2.5" fill="#2563eb"/>
  <circle cx="447.66" cy="299.93" r="2.5" fill="#2563eb"/>
  <circle cx="448.95" cy="300.01" r="2.5" fill="#2563eb"/>
  <circle cx="450.24" cy="300.01" r="2.5" fill="#2563eb"/>
  <circle cx="451.53" cy="249.94" r="2.5" fill="#2563eb"/>
  <circle cx="452.82" cy="299.97" r="2.5" fill="#2563eb"/>
  <circle cx="454.11" cy="299.97" r="2.5" fill="#2563eb"/>
  <circle cx="455.40" cy="300.01" r="2.5" fill="#2563eb"/>
  <circle cx="456.69" cy="300.01" r="2.5" fill="#2563eb"/>
  <circle cx="457.97" cy="300.01" r="2.5" fill="#2563eb"/>
  <circle cx="459.26" cy="249.99" r="2.5" fill="#2563eb"/>
  <circle cx="460.55" cy="300.01" r="2.5" fill="#2563eb"/>
  <circle cx="461.84" cy="300.01" r="2.5" fill="#2563eb"/>
  <circle cx="463.13" cy="300.01" r="2.5" fill="#2563eb"/>
  <circle cx="464.42" cy="250.03" r="2.5" fill="#2563eb"/>
  <circle cx="465.71" cy="300.01" r="2.5" fill="#2563eb"/>
  <circle cx="467.00" cy="300.01" r="2.5" fill="#2563eb"/>
  <circle cx="468.29" cy="300.01" r="2.5" fill="#2563eb"/>
  <circle cx="469.58" cy="299.97" r="2.5" fill="#2563eb"/>
  <circle cx="470.86" cy="300.01" r="2.5" fill="#2563eb"/>
  <circle cx="472.15" cy="300.01" r="2.5" fill="#2563eb"/>
  <circle cx="473.44" cy="299.97" r="2.5" fill="#2563eb"/>
  <circle cx="474.73" cy="299.97" r="2.5" fill="#2563eb"/>
  <circle cx="476.02" cy="300.01" r="2.5" fill="#2563eb"/>
  <circle cx="477.31" cy="300.01" r="2.5" fill="#2563eb"/>
  <circle cx="478.60" cy="299.97" r="2.5" fill="#2563eb"/>
  <circle cx="479.89" cy="299.93" r="2.5" fill="#2563eb"/>
  <circle cx="481.18" cy="300.01" r="2.5" fill="#2563eb"/>
  <circle cx="482.46" cy="300.06" r="2.5" fill="#2563eb"/>
  <circle cx="483.75" cy="299.97" r="2.5" fill="#2563eb"/>
  <circle cx="485.04" cy="300.01" r="2.5" fill="#2563eb"/>
  <circle cx="486.33" cy="250.03" r="2.5" fill="#2563eb"/>
  <circle cx="487.62" cy="250.03" r="2.5" fill="#2563eb"/>
  <circle cx="488.91" cy="299.93" r="2.5" fill="#2563eb"/>
  <circle cx="490.20" cy="299.97" r="2.5" fill="#2563eb"/>
  <circle cx="491.49" cy="300.01" r="2.5" fill="#2563eb"/>
  <circle cx="492.78" cy="300.01" r="2.5" fill="#2563eb"/>
  <circle cx="494.07" cy="300.06" r="2.5" fill="#2563eb"/>
  <circle cx="495.35" cy="300.01" r="2.5" fill="#2563eb"/>
  <circle cx="496.64" cy="299.93" r="2.5" fill="#2563eb"/>
  <circle cx="497.93" cy="300.01" r="2.5" fill="#2563eb"/>
  <circle cx="499.22" cy="300.01" r="2.5" fill="#2563eb"/>
  <circle cx="500.51" cy="299.97" r="2.5" fill="#2563eb"/>
  <circle cx="501.80" cy="299.97" r="2.5" fill="#2563eb"/>
  <circle cx="503.09" cy="300.01" r="2.5" fill="#2563eb"/>
  <circle cx="504.38" cy="250.03" r="2.5" fill="#2563eb"/>
  <circle cx="505.67" cy="300.01" r="2.5" fill="#2563eb"/>
  <circle cx="506.95" cy="300.01" r="2.5" fill="#2563eb"/>
  <circle cx="508.24" cy="300.01" r="2.5" fill="#2563eb"/>
  <circle cx="509.53" cy="299.97" r="2.5" fill="#2563eb"/>
  <circle cx="510.82" cy="300.01" r="2.5" fill="#2563eb"/>
  <circle cx="512.11" cy="299.97" r="2.5" fill="#2563eb"/>
  <circle cx="513.40" cy="300.01" r="2.5" fill="#2563eb"/>
  <circle cx="514.69" cy="299.97" r="2.5" fill="#2563eb"/>
  <circle cx="515.98" cy="299.97" r="2.5" fill="#2563eb"/>
  <circle cx="517.27" cy="299.93" r="2.5" fill="#2563eb"/>
  <circle cx="518.56" cy="300.01" r="2.5" fill="#2563eb"/>
  <circle cx="519.84" cy="300.01" r="2.5" fill="#2563eb"/>
  <circle cx="521.13" cy="299.89" r="2.5" fill="#2563eb"/>
  <circle cx="522.42" cy="299.97" r="2.5" fill="#2563eb"/>
  <circle cx="523.71" cy="299.97" r="2.5" fill="#2563eb"/>
  <circle cx="525.00" cy="300.06" r="2.5" fill="#2563eb"/>
  <circle cx="526.29" cy="249.90" r="2.5" fill="#2563eb"/>
  <circle cx="527.58" cy="299.89" r="2.5" fill="#2563eb"/>
  <circle cx="528.87" cy="300.01" r="2.5" fill="#2563eb"/>
  <circle cx="530.16" cy="299.97" r="2.5" fill="#2563eb"/>
  <circle cx="531.44" cy="299.97" r="2.5" fill="#2563eb"/>
  <circle cx="532.73" cy="299.97" r="2.5" fill="#2563eb"/>
  <circle cx="534.02" cy="300.01" r="2.5" fill="#2563eb"/>
  <circle cx="535.31" cy="300.01" r="2.5" fill="#2563eb"/>
  <circle cx="536.60" cy="299.97" r="2.5" fill="#2563eb"/>
  <circle cx="537.89" cy="299.97" r="2.5" fill="#2563eb"/>
  <circle cx="539.18" cy="299.97" r="2.5" fill="#2563eb"/>
  <circle cx="540.47" cy="250.03" r="2.5" fill="#2563eb"/>
  <circle cx="541.76" cy="299.93" r="2.5" fill="#2563eb"/>
  <circle cx="543.05" cy="300.01" r="2.5" fill="#2563eb"/>
  <circle cx="544.33" cy="300.01" r="2.5" fill="#2563eb"/>
  <circle cx="545.62" cy="299.93" r="2.5" fill="#2563eb"/>
  <circle cx="546.91" cy="300.01" r="2.5" fill="#2563eb"/>
  <circle cx="548.20" cy="300.01" r="2.5" fill="#2563eb"/>
  <circle cx="549.49" cy="299.97" r="2.5" fill="#2563eb"/>
  <circle cx="550.78" cy="300.01" r="2.5" fill="#2563eb"/>
  <circle cx="552.07" cy="300.01" r="2.5" fill="#2563eb"/>
  <circle cx="553.36" cy="300.06" r="2.5" fill="#2563eb"/>
  <circle cx="554.65" cy="300.01" r="2.5" fill="#2563eb"/>
  <circle cx="555.93" cy="299.97" r="2.5" fill="#2563eb"/>
  <circle cx="557.22" cy="299.89" r="2.5" fill="#2563eb"/>
  <circle cx="558.51" cy="300.01" r="2.5" fill="#2563eb"/>
  <circle cx="559.80" cy="300.01" r="2.5" fill="#2563eb"/>
  <circle cx="561.09" cy="249.94" r="2.5" fill="#2563eb"/>
  <circle cx="562.38" cy="249.94" r="2.5" fill="#2563eb"/>
  <circle cx="563.67" cy="300.01" r="2.5" fill="#2563eb"/>
  <circle cx="564.96" cy="300.01" r="2.5" fill="#2563eb"/>
  <circle cx="566.25" cy="300.01" r="2.5" fill="#2563eb"/>
  <circle cx="567.54" cy="300.01" r="2.5" fill="#2563eb"/>
  <circle cx="568.82" cy="299.97" r="2.5" fill="#2563eb"/>
  <circle cx="570.11" cy="250.03" r="2.5" fill="#2563eb"/>
  <circle cx="571.40" cy="300.01" r="2.5" fill="#2563eb"/>
  <circle cx="572.69" cy="300.01" r="2.5" fill="#2563eb"/>
  <circle cx="573.98" cy="300.01" r="2.5" fill="#2563eb"/>
  <circle cx="575.27" cy="300.01" r="2.5" fill="#2563eb"/>
  <circle cx="576.56" cy="250.03" r="2.5" fill="#2563eb"/>
  <circle cx="577.85" cy="249.99" r="2.5" fill="#2563eb"/>
  <circle cx="579.14" cy="300.01" r="2.5" fill="#2563eb"/>
  <circle cx="580.42" cy="299.97" r="2.5" fill="#2563eb"/>
  <circle cx="581.71" cy="300.01" r="2.5" fill="#2563eb"/>
  <circle cx="583.00" cy="299.97" r="2.5" fill="#2563eb"/>
  <circle cx="584.29" cy="300.01" r="2.5" fill="#2563eb"/>
  <circle cx="585.58" cy="299.97" r="2.5" fill="#2563eb"/>
  <circle cx="586.87" cy="299.97" r="2.5" fill="#2563eb"/>
  <circle cx="588.16" cy="299.97" r="2.5" fill="#2563eb"/>
  <circle cx="589.45" cy="300.06" r="2.5" fill="#2563eb"/>
  <circle cx="590.74" cy="249.99" r="2.5" fill="#2563eb"/>
  <circle cx="592.03" cy="300.01" r="2.5" fill="#2563eb"/>
  <circle cx="593.31" cy="250.03" r="2.5" fill="#2563eb"/>
  <circle cx="594.60" cy="249.94" r="2.5" fill="#2563eb"/>
  <circle cx="595.89" cy="249.99" r="2.5" fill="#2563eb"/>
  <circle cx="597.18" cy="300.01" r="2.5" fill="#2563eb"/>
  <circle cx="598.47" cy="300.06" r="2.5" fill="#2563eb"/>
  <circle cx="599.76" cy="300.01" r="2.5" fill="#2563eb"/>
  <circle cx="601.05" cy="299.97" r="2.5" fill="#2563eb"/>
  <circle cx="602.34" cy="299.97" r="2.5" fill="#2563eb"/>
  <circle cx="603.63" cy="300.01" r="2.5" fill="#2563eb"/>
  <circle cx="604.92" cy="299.93" r="2.5" fill="#2563eb"/>
  <circle cx="606.20" cy="299.89" r="2.5" fill="#2563eb"/>
  <circle cx="607.49" cy="299.89" r="2.5" fill="#2563eb"/>
  <circle cx="608.78" cy="299.89" r="2.5" fill="#2563eb"/>
  <circle cx="610.07" cy="299.89" r="2.5" fill="#2563eb"/>
  <circle cx="611.36" cy="299.85" r="2.5" fill="#2563eb"/>
  <circle cx="612.65" cy="299.85" r="2.5" fill="#2563eb"/>
  <circle cx="613.94" cy="299.89" r="2.5" fill="#2563eb"/>
  <circle cx="615.23" cy="299.81" r="2.5" fill="#2563eb"/>
  <circle cx="616.52" cy="299.81" r="2.5" fill="#2563eb"/>
  <circle cx="617.80" cy="299.81" r="2.5" fill="#2563eb"/>
  <circle cx="619.09" cy="299.76" r="2.5" fill="#2563eb"/>
  <circle cx="620.38" cy="299.76" r="2.5" fill="#2563eb"/>
  <circle cx="621.67" cy="299.76" r="2.5" fill="#2563eb"/>
  <circle cx="622.96" cy="299.72" r="2.5" fill="#2563eb"/>
  <circle cx="624.25" cy="299.68" r="2.5" fill="#2563eb"/>
  <circle cx="625.54" cy="299.60" r="2.5" fill="#2563eb"/>
  <circle cx="626.83" cy="299.60" r="2.5" fill="#2563eb"/>
  <circle cx="628.12" cy="299.60" r="2.5" fill="#2563eb"/>
  <circle cx="629.41" cy="299.56" r="2.5" fill="#2563eb"/>
  <circle cx="630.69" cy="299.47" r="2.5" fill="#2563eb"/>
  <circle cx="631.98" cy="299.43" r="2.5" fill="#2563eb"/>
  <circle cx="633.27" cy="299.43" r="2.5" fill="#2563eb"/>
  <circle cx="634.56" cy="299.39" r="2.5" fill="#2563eb"/>
  <circle cx="635.85" cy="299.47" r="2.5" fill="#2563eb"/>
  <circle cx="637.14" cy="259.82" r="2.5" fill="#2563eb"/>
  <circle cx="638.43" cy="338.96" r="2.5" fill="#2563eb"/>
  <circle cx="639.72" cy="299.31" r="2.5" fill="#2563eb"/>
  <circle cx="641.01" cy="299.31" r="2.5" fill="#2563eb"/>
  <circle cx="642.29" cy="299.26" r="2.5" fill="#2563eb"/>
  <circle cx="643.58" cy="299.68" r="2.5" fill="#2563eb"/>
  <circle cx="644.87" cy="299.68" r="2.5" fill="#2563eb"/>
  <circle cx="646.16" cy="299.68" r="2.5" fill="#2563eb"/>
  <circle cx="647.45" cy="299.64" r="2.5" fill="#2563eb"/>
  <circle cx="648.74" cy="299.14" r="2.5" fill="#2563eb"/>
  <circle cx="650.03" cy="299.14" r="2.5" fill="#2563eb"/>
  <circle cx="651.32" cy="299.10" r="2.5" fill="#2563eb"/>
  <circle cx="652.61" cy="299.10" r="2.5" fill="#2563eb"/>
  <circle cx="653.90" cy="299.10" r="2.5" fill="#2563eb"/>
  <circle cx="655.18" cy="248.07" r="2.5" fill="#2563eb"/>
  <circle cx="656.47" cy="299.06" r="2.5" fill="#2563eb"/>
  <circle cx="657.76" cy="299.06" r="2.5" fill="#2563eb"/>
  <circle cx="659.05" cy="299.06" r="2.5" fill="#2563eb"/>
  <circle cx="660.34" cy="299.06" r="2.5" fill="#2563eb"/>
  <circle cx="661.63" cy="299.06" r="2.5" fill="#2563eb"/>
  <circle cx="662.92" cy="298.97" r="2.5" fill="#2563eb"/>
  <circle cx="664.21" cy="298.97" r="2.5" fill="#2563eb"/>
  <circle cx="665.50" cy="298.93" r="2.5" fill="#2563eb"/>
  <circle cx="666.78" cy="298.97" r="2.5" fill="#2563eb"/>
  <circle cx="668.07" cy="298.93" r="2.5" fill="#2563eb"/>
  <circle cx="669.36" cy="298.89" r="2.5" fill="#2563eb"/>
  <circle cx="670.65" cy="298.89" r="2.5" fill="#2563eb"/>
  <circle cx="671.94" cy="298.89" r="2.5" fill="#2563eb"/>
  <circle cx="673.23" cy="298.89" r="2.5" fill="#2563eb"/>
  <circle cx="674.52" cy="247.78" r="2.5" fill="#2563eb"/>
  <circle cx="675.81" cy="298.89" r="2.5" fill="#2563eb"/>
  <circle cx="677.10" cy="298.89" r="2.5" fill="#2563eb"/>
  <circle cx="678.39" cy="298.85" r="2.5" fill="#2563eb"/>
  <circle cx="679.67" cy="298.85" r="2.5" fill="#2563eb"/>
  <circle cx="680.96" cy="298.81" r="2.5" fill="#2563eb"/>
  <circle cx="682.25" cy="298.81" r="2.5" fill="#2563eb"/>
  <circle cx="683.54" cy="298.81" r="2.5" fill="#2563eb"/>
  <circle cx="684.83" cy="298.81" r="2.5" fill="#2563eb"/>
  <circle cx="686.12" cy="298.81" r="2.5" fill="#2563eb"/>
  <circle cx="687.41" cy="298.81" r="2.5" fill="#2563eb"/>
  <circle cx="688.70" cy="298.81" r="2.5" fill="#2563eb"/>
  <circle cx="689.99" cy="298.81" r="2.5" fill="#2563eb"/>
  <circle cx="691.27" cy="298.81" r="2.5" fill="#2563eb"/>
  <circle cx="692.56" cy="298.72" r="2.5" fill="#2563eb"/>
  <circle cx="693.85" cy="247.45" r="2.5" fill="#2563eb"/>
  <circle cx="695.14" cy="247.45" r="2.5" fill="#2563eb"/>
  <circle cx="696.43" cy="298.72" r="2.5" fill="#2563eb"/>
  <circle cx="697.72" cy="298.72" r="2.5" fill="#2563eb"/>
  <circle cx="699.01" cy="298.72" r="2.5" fill="#2563eb"/>
  <circle cx="700.30" cy="298.72" r="2.5" fill="#2563eb"/>
  <circle cx="701.59" cy="298.72" r="2.5" fill="#2563eb"/>
  <circle cx="702.88" cy="298.72" r="2.5" fill="#2563eb"/>
  <circle cx="704.16" cy="247.36" r="2.5" fill="#2563eb"/>
  <circle cx="705.45" cy="298.68" r="2.5" fill="#2563eb"/>
  <circle cx="706.74" cy="247.36" r="2.5" fill="#2563eb"/>
  <circle cx="708.03" cy="247.36" r="2.5" fill="#2563eb"/>
  <circle cx="709.32" cy="247.36" r="2.5" fill="#2563eb"/>
  <circle cx="710.61" cy="298.68" r="2.5" fill="#2563eb"/>
  <circle cx="711.90" cy="298.68" r="2.5" fill="#2563eb"/>
  <circle cx="713.19" cy="298.68" r="2.5" fill="#2563eb"/>
  <circle cx="714.48" cy="298.68" r="2.5" fill="#2563eb"/>
  <circle cx="715.76" cy="298.68" r="2.5" fill="#2563eb"/>
  <circle cx="717.05" cy="341.67" r="2.5" fill="#2563eb"/>
  <circle cx="718.34" cy="307.01" r="2.5" fill="#2563eb"/>
  <circle cx="719.63" cy="298.68" r="2.5" fill="#2563eb"/>
  <circle cx="720.92" cy="298.68" r="2.5" fill="#2563eb"/>
  <circle cx="722.21" cy="298.68" r="2.5" fill="#2563eb"/>
  <circle cx="723.50" cy="247.36" r="2.5" fill="#2563eb"/>
  <circle cx="724.79" cy="298.64" r="2.5" fill="#2563eb"/>
  <circle cx="726.08" cy="247.36" r="2.5" fill="#2563eb"/>
  <circle cx="727.37" cy="247.28" r="2.5" fill="#2563eb"/>
  <circle cx="728.65" cy="247.20" r="2.5" fill="#2563eb"/>
  <circle cx="729.94" cy="298.60" r="2.5" fill="#2563eb"/>
  <circle cx="731.23" cy="298.60" r="2.5" fill="#2563eb"/>
  <circle cx="732.52" cy="247.03" r="2.5" fill="#2563eb"/>
  <circle cx="733.81" cy="298.51" r="2.5" fill="#2563eb"/>
  <circle cx="735.10" cy="298.51" r="2.5" fill="#2563eb"/>
  <circle cx="736.39" cy="298.51" r="2.5" fill="#2563eb"/>
  <circle cx="737.68" cy="298.51" r="2.5" fill="#2563eb"/>
  <circle cx="738.97" cy="298.51" r="2.5" fill="#2563eb"/>
  <circle cx="740.25" cy="298.51" r="2.5" fill="#2563eb"/>
  <circle cx="741.54" cy="298.51" r="2.5" fill="#2563eb"/>
  <circle cx="742.83" cy="298.51" r="2.5" fill="#2563eb"/>
  <circle cx="744.12" cy="298.51" r="2.5" fill="#2563eb"/>
  <circle cx="745.41" cy="298.51" r="2.5" fill="#2563eb"/>
  <circle cx="746.70" cy="298.51" r="2.5" fill="#2563eb"/>
  <circle cx="747.99" cy="298.51" r="2.5" fill="#2563eb"/>
  <circle cx="749.28" cy="298.51" r="2.5" fill="#2563eb"/>
  <circle cx="750.57" cy="298.51" r="2.5" fill="#2563eb"/>
  <circle cx="751.86" cy="298.51" r="2.5" fill="#2563eb"/>
  <circle cx="753.14" cy="298.51" r="2.5" fill="#2563eb"/>
  <circle cx="754.43" cy="298.51" r="2.5" fill="#2563eb"/>
  <circle cx="755.72" cy="298.51" r="2.5" fill="#2563eb"/>
  <circle cx="757.01" cy="298.51" r="2.5" fill="#2563eb"/>
  <circle cx="758.30" cy="298.51" r="2.5" fill="#2563eb"/>
  <circle cx="759.59" cy="298.51" r="2.5" fill="#2563eb"/>
  <circle cx="760.88" cy="298.51" r="2.5" fill="#2563eb"/>
  <circle cx="762.17" cy="298.51" r="2.5" fill="#2563eb"/>
  <circle cx="763.46" cy="298.51" r="2.5" fill="#2563eb"/>
  <circle cx="764.75" cy="298.51" r="2.5" fill="#2563eb"/>
  <circle cx="766.03" cy="298.51" r="2.5" fill="#2563eb"/>
  <circle cx="767.32" cy="298.47" r="2.5" fill="#2563eb"/>
  <circle cx="768.61" cy="298.51" r="2.5" fill="#2563eb"/>
  <circle cx="769.90" cy="298.51" r="2.5" fill="#2563eb"/>
  <circle cx="771.19" cy="298.47" r="2.5" fill="#2563eb"/>
  <circle cx="772.48" cy="298.51" r="2.5" fill="#2563eb"/>
  <circle cx="773.77" cy="298.47" r="2.5" fill="#2563eb"/>
  <circle cx="775.06" cy="298.51" r="2.5" fill="#2563eb"/>
  <circle cx="776.35" cy="298.43" r="2.5" fill="#2563eb"/>
  <circle cx="777.63" cy="298.56" r="2.5" fill="#2563eb"/>
  <circle cx="778.92" cy="298.43" r="2.5" fill="#2563eb"/>
  <circle cx="780.21" cy="298.43" r="2.5" fill="#2563eb"/>
  <circle cx="781.50" cy="298.43" r="2.5" fill="#2563eb"/>
  <circle cx="782.79" cy="298.43" r="2.5" fill="#2563eb"/>
  <circle cx="784.08" cy="298.43" r="2.5" fill="#2563eb"/>
  <circle cx="785.37" cy="298.43" r="2.5" fill="#2563eb"/>
  <circle cx="786.66" cy="298.43" r="2.5" fill="#2563eb"/>
  <circle cx="787.95" cy="298.43" r="2.5" fill="#2563eb"/>
  <circle cx="789.24" cy="298.43" r="2.5" fill="#2563eb"/>
  <circle cx="790.52" cy="298.43" r="2.5" fill="#2563eb"/>
  <circle cx="791.81" cy="298.43" r="2.5" fill="#2563eb"/>
  <circle cx="793.10" cy="298.43" r="2.5" fill="#2563eb"/>
  <circle cx="794.39" cy="298.43" r="2.5" fill="#2563eb"/>
  <circle cx="795.68" cy="298.43" r="2.5" fill="#2563eb"/>
  <circle cx="796.97" cy="298.43" r="2.5" fill="#2563eb"/>
  <circle cx="798.26" cy="298.43" r="2.5" fill="#2563eb"/>
  <circle cx="799.55" cy="298.43" r="2.5" fill="#2563eb"/>
  <circle cx="800.84" cy="298.43" r="2.5" fill="#2563eb"/>
  <circle cx="802.12" cy="298.43" r="2.5" fill="#2563eb"/>
  <circle cx="803.41" cy="298.43" r="2.5" fill="#2563eb"/>
  <circle cx="804.70" cy="298.43" r="2.5" fill="#2563eb"/>
  <circle cx="805.99" cy="298.43" r="2.5" fill="#2563eb"/>
  <circle cx="807.28" cy="298.43" r="2.5" fill="#2563eb"/>
  <circle cx="808.57" cy="298.43" r="2.5" fill="#2563eb"/>
  <circle cx="809.86" cy="298.43" r="2.5" fill="#2563eb"/>
  <circle cx="811.15" cy="298.43" r="2.5" fill="#2563eb"/>
  <circle cx="812.44" cy="298.43" r="2.5" fill="#2563eb"/>
  <circle cx="813.73" cy="298.43" r="2.5" fill="#2563eb"/>
  <circle cx="815.01" cy="298.43" r="2.5" fill="#2563eb"/>
  <circle cx="816.30" cy="298.43" r="2.5" fill="#2563eb"/>
  <circle cx="817.59" cy="298.43" r="2.5" fill="#2563eb"/>
  <circle cx="818.88" cy="298.43" r="2.5" fill="#2563eb"/>
  <circle cx="820.17" cy="298.43" r="2.5" fill="#2563eb"/>
  <circle cx="821.46" cy="298.43" r="2.5" fill="#2563eb"/>
  <circle cx="822.75" cy="298.39" r="2.5" fill="#2563eb"/>
  <circle cx="824.04" cy="298.39" r="2.5" fill="#2563eb"/>
  <circle cx="825.33" cy="298.43" r="2.5" fill="#2563eb"/>
  <circle cx="826.61" cy="298.43" r="2.5" fill="#2563eb"/>
  <circle cx="827.90" cy="298.39" r="2.5" fill="#2563eb"/>
  <circle cx="829.19" cy="298.39" r="2.5" fill="#2563eb"/>
  <circle cx="830.48" cy="298.39" r="2.5" fill="#2563eb"/>
  <circle cx="831.77" cy="298.43" r="2.5" fill="#2563eb"/>
  <circle cx="833.06" cy="298.43" r="2.5" fill="#2563eb"/>
  <circle cx="834.35" cy="298.43" r="2.5" fill="#2563eb"/>
  <circle cx="835.64" cy="246.82" r="2.5" fill="#2563eb"/>
  <circle cx="836.93" cy="298.43" r="2.5" fill="#2563eb"/>
  <circle cx="838.22" cy="246.78" r="2.5" fill="#2563eb"/>
  <circle cx="839.50" cy="246.78" r="2.5" fill="#2563eb"/>
  <circle cx="840.79" cy="246.78" r="2.5" fill="#2563eb"/>
  <circle cx="842.08" cy="246.70" r="2.5" fill="#2563eb"/>
  <circle cx="843.37" cy="246.78" r="2.5" fill="#2563eb"/>
  <circle cx="844.66" cy="298.39" r="2.5" fill="#2563eb"/>
  <circle cx="845.95" cy="298.39" r="2.5" fill="#2563eb"/>
  <circle cx="847.24" cy="298.39" r="2.5" fill="#2563eb"/>
  <circle cx="848.53" cy="298.39" r="2.5" fill="#2563eb"/>
  <circle cx="849.82" cy="298.39" r="2.5" fill="#2563eb"/>
  <circle cx="851.10" cy="246.78" r="2.5" fill="#2563eb"/>
  <circle cx="852.39" cy="298.39" r="2.5" fill="#2563eb"/>
  <circle cx="853.68" cy="298.39" r="2.5" fill="#2563eb"/>
  <circle cx="854.97" cy="298.39" r="2.5" fill="#2563eb"/>
  <circle cx="856.26" cy="298.39" r="2.5" fill="#2563eb"/>
  <circle cx="857.55" cy="298.39" r="2.5" fill="#2563eb"/>
  <circle cx="858.84" cy="246.78" r="2.5" fill="#2563eb"/>
  <circle cx="860.13" cy="246.78" r="2.5" fill="#2563eb"/>
  <circle cx="861.42" cy="298.39" r="2.5" fill="#2563eb"/>
  <circle cx="862.71" cy="298.39" r="2.5" fill="#2563eb"/>
  <circle cx="863.99" cy="298.39" r="2.5" fill="#2563eb"/>
  <circle cx="865.28" cy="298.39" r="2.5" fill="#2563eb"/>
  <circle cx="866.57" cy="298.39" r="2.5" fill="#2563eb"/>
  <circle cx="867.86" cy="298.39" r="2.5" fill="#2563eb"/>
  <circle cx="869.15" cy="298.39" r="2.5" fill="#2563eb"/>
  <circle cx="870.44" cy="298.39" r="2.5" fill="#2563eb"/>
  <circle cx="871.73" cy="298.39" r="2.5" fill="#2563eb"/>
  <circle cx="873.02" cy="298.39" r="2.5" fill="#2563eb"/>
  <circle cx="874.31" cy="298.39" r="2.5" fill="#2563eb"/>
  <circle cx="875.59" cy="298.39" r="2.5" fill="#2563eb"/>
  <circle cx="876.88" cy="298.39" r="2.5" fill="#2563eb"/>
  <circle cx="878.17" cy="298.39" r="2.5" fill="#2563eb"/>
  <circle cx="879.46" cy="298.35" r="2.5" fill="#2563eb"/>
  <circle cx="880.75" cy="298.39" r="2.5" fill="#2563eb"/>
  <circle cx="882.04" cy="298.39" r="2.5" fill="#2563eb"/>
  <circle cx="883.33" cy="298.35" r="2.5" fill="#2563eb"/>
  <circle cx="884.62" cy="298.35" r="2.5" fill="#2563eb"/>
  <circle cx="885.91" cy="298.35" r="2.5" fill="#2563eb"/>
  <circle cx="887.20" cy="298.35" r="2.5" fill="#2563eb"/>
  <circle cx="888.48" cy="298.35" r="2.5" fill="#2563eb"/>
  <circle cx="889.77" cy="298.35" r="2.5" fill="#2563eb"/>
  <circle cx="891.06" cy="298.35" r="2.5" fill="#2563eb"/>
  <circle cx="892.35" cy="298.35" r="2.5" fill="#2563eb"/>
  <circle cx="893.64" cy="298.35" r="2.5" fill="#2563eb"/>
  <circle cx="894.93" cy="298.35" r="2.5" fill="#2563eb"/>
  <circle cx="896.22" cy="298.35" r="2.5" fill="#2563eb"/>
  <circle cx="897.51" cy="298.35" r="2.5" fill="#2563eb"/>
  <circle cx="898.80" cy="298.35" r="2.5" fill="#2563eb"/>
  <circle cx="900.08" cy="298.35" r="2.5" fill="#2563eb"/>
  <circle cx="901.37" cy="298.35" r="2.5" fill="#2563eb"/>
  <circle cx="902.66" cy="298.35" r="2.5" fill="#2563eb"/>
  <circle cx="903.95" cy="298.35" r="2.5" fill="#2563eb"/>
  <circle cx="905.24" cy="298.35" r="2.5" fill="#2563eb"/>
  <circle cx="906.53" cy="298.35" r="2.5" fill="#2563eb"/>
  <circle cx="907.82" cy="298.35" r="2.5" fill="#2563eb"/>
  <circle cx="909.11" cy="298.35" r="2.5" fill="#2563eb"/>
  <circle cx="910.40" cy="298.35" r="2.5" fill="#2563eb"/>
  <circle cx="911.69" cy="298.35" r="2.5" fill="#2563eb"/>
  <circle cx="912.97" cy="298.35" r="2.5" fill="#2563eb"/>
  <circle cx="914.26" cy="298.35" r="2.5" fill="#2563eb"/>
  <circle cx="915.55" cy="298.35" r="2.5" fill="#2563eb"/>
  <circle cx="916.84" cy="298.35" r="2.5" fill="#2563eb"/>
  <circle cx="918.13" cy="298.35" r="2.5" fill="#2563eb"/>
  <circle cx="919.42" cy="298.35" r="2.5" fill="#2563eb"/>
  <circle cx="920.71" cy="298.35" r="2.5" fill="#2563eb"/>
  <circle cx="922.00" cy="298.35" r="2.5" fill="#2563eb"/>
  <circle cx="923.29" cy="298.35" r="2.5" fill="#2563eb"/>
  <circle cx="924.58" cy="298.35" r="2.5" fill="#2563eb"/>
  <circle cx="925.86" cy="298.35" r="2.5" fill="#2563eb"/>
  <circle cx="927.15" cy="298.35" r="2.5" fill="#2563eb"/>
  <circle cx="928.44" cy="298.35" r="2.5" fill="#2563eb"/>
  <circle cx="929.73" cy="298.35" r="2.5" fill="#2563eb"/>
  <circle cx="931.02" cy="298.35" r="2.5" fill="#2563eb"/>
  <circle cx="932.31" cy="298.35" r="2.5" fill="#2563eb"/>
  <circle cx="933.60" cy="298.35" r="2.5" fill="#2563eb"/>
  <circle cx="934.89" cy="298.35" r="2.5" fill="#2563eb"/>
  <circle cx="936.18" cy="298.35" r="2.5" fill="#2563eb"/>
  <circle cx="937.46" cy="298.35" r="2.5" fill="#2563eb"/>
  <circle cx="938.75" cy="298.35" r="2.5" fill="#2563eb"/>
  <circle cx="940.04" cy="298.35" r="2.5" fill="#2563eb"/>
  <circle cx="941.33" cy="298.35" r="2.5" fill="#2563eb"/>
  <circle cx="942.62" cy="298.35" r="2.5" fill="#2563eb"/>
  <circle cx="943.91" cy="298.35" r="2.5" fill="#2563eb"/>
  <circle cx="945.20" cy="298.35" r="2.5" fill="#2563eb"/>
  <circle cx="946.49" cy="298.35" r="2.5" fill="#2563eb"/>
  <circle cx="947.78" cy="298.35" r="2.5" fill="#2563eb"/>
  <circle cx="949.07" cy="298.35" r="2.5" fill="#2563eb"/>
  <circle cx="950.35" cy="298.39" r="2.5" fill="#2563eb"/>
  <circle cx="951.64" cy="298.39" r="2.5" fill="#2563eb"/>
  <circle cx="952.93" cy="298.39" r="2.5" fill="#2563eb"/>
  <circle cx="954.22" cy="246.78" r="2.5" fill="#2563eb"/>
  <circle cx="955.51" cy="298.39" r="2.5" fill="#2563eb"/>
  <circle cx="956.80" cy="298.39" r="2.5" fill="#2563eb"/>
  <circle cx="958.09" cy="298.39" r="2.5" fill="#2563eb"/>
  <circle cx="959.38" cy="298.39" r="2.5" fill="#2563eb"/>
  <circle cx="960.67" cy="298.39" r="2.5" fill="#2563eb"/>
  <circle cx="961.95" cy="298.39" r="2.5" fill="#2563eb"/>
  <circle cx="963.24" cy="298.39" r="2.5" fill="#2563eb"/>
  <circle cx="964.53" cy="246.78" r="2.5" fill="#2563eb"/>
  <circle cx="965.82" cy="298.39" r="2.5" fill="#2563eb"/>
  <circle cx="967.11" cy="298.39" r="2.5" fill="#2563eb"/>
  <circle cx="968.40" cy="298.39" r="2.5" fill="#2563eb"/>
  <circle cx="969.69" cy="298.39" r="2.5" fill="#2563eb"/>
  <circle cx="970.98" cy="298.39" r="2.5" fill="#2563eb"/>
  <circle cx="972.27" cy="298.39" r="2.5" fill="#2563eb"/>
  <circle cx="973.56" cy="298.39" r="2.5" fill="#2563eb"/>
  <circle cx="974.84" cy="246.78" r="2.5" fill="#2563eb"/>
  <circle cx="976.13" cy="298.39" r="2.5" fill="#2563eb"/>
  <circle cx="977.42" cy="298.39" r="2.5" fill="#2563eb"/>
  <circle cx="978.71" cy="298.39" r="2.5" fill="#2563eb"/>
  <circle cx="980.00" cy="298.39" r="2.5" fill="#2563eb"/>
</svg>
