<?xml version="1.0" encoding="UTF-8"?>
<svg xmlns="http://www.w3.org/2000/svg" width="1000" height="420" viewBox="0 0 1000 420">
  <rect width="100%" height="100%" fill="#ffffff"/>
  <text x="70" y="28" font-size="20" font-weight="600">수집 시점 기준 - 시간별 스냅샷</text>
  <text x="70" y="402" font-size="12" fill="#555">스냅샷 수</text>
  <line x1="70" y1="350.00" x2="980" y2="350.00" stroke="#e5e7eb" stroke-width="1"/>
  <text x="62" y="354.00" font-size="11" fill="#6b7280" text-anchor="end">0</text>
  <line x1="70" y1="290.00" x2="980" y2="290.00" stroke="#e5e7eb" stroke-width="1"/>
  <text x="62" y="294.00" font-size="11" fill="#6b7280" text-anchor="end">1,440</text>
  <line x1="70" y1="230.00" x2="980" y2="230.00" stroke="#e5e7eb" stroke-width="1"/>
  <text x="62" y="234.00" font-size="11" fill="#6b7280" text-anchor="end">2,880</text>
  <line x1="70" y1="170.00" x2="980" y2="170.00" stroke="#e5e7eb" stroke-width="1"/>
  <text x="62" y="174.00" font-size="11" fill="#6b7280" text-anchor="end">4,321</text>
  <line x1="70" y1="110.00" x2="980" y2="110.00" stroke="#e5e7eb" stroke-width="1"/>
  <text x="62" y="114.00" font-size="11" fill="#6b7280" text-anchor="end">5,761</text>
  <line x1="70" y1="50.00" x2="980" y2="50.00" stroke="#e5e7eb" stroke-width="1"/>
  <text x="62" y="54.00" font-size="11" fill="#6b7280" text-anchor="end">7,202</text>
  <line x1="70" y1="350" x2="980" y2="350" stroke="#111827" stroke-width="1.2"/>
  <line x1="70" y1="50" x2="70" y2="350" stroke="#111827" stroke-width="1.2"/>
  <line x1="70.00" y1="350" x2="70.00" y2="356" stroke="#9ca3af" stroke-width="1"/>
  <text x="70.00" y="372" font-size="10" fill="#6b7280" text-anchor="middle">2026-02-28 18</text>
  <line x1="145.15" y1="350" x2="145.15" y2="356" stroke="#9ca3af" stroke-width="1"/>
  <text x="145.15" y="372" font-size="10" fill="#6b7280" text-anchor="middle">2026-03-09 01</text>
  <line x1="220.31" y1="350" x2="220.31" y2="356" stroke="#9ca3af" stroke-width="1"/>
  <text x="220.31" y="372" font-size="10" fill="#6b7280" text-anchor="middle">2026-03-11 03</text>
  <line x1="295.46" y1="350" x2="295.46" y2="356" stroke="#9ca3af" stroke-width="1"/>
  <text x="295.46" y="372" font-size="10" fill="#6b7280" text-anchor="middle">2026-03-13 05</text>
  <line x1="370.61" y1="350" x2="370.61" y2="356" stroke="#9ca3af" stroke-width="1"/>
  <text x="370.61" y="372" font-size="10" fill="#6b7280" text-anchor="middle">2026-03-15 17</text>
  <line x1="445.76" y1="350" x2="445.76" y2="356" stroke="#9ca3af" stroke-width="1"/>
  <text x="445.76" y="372" font-size="10" fill="#6b7280" text-anchor="middle">2026-03-18 18</text>
  <line x1="520.92" y1="350" x2="520.92" y2="356" stroke="#9ca3af" stroke-width="1"/>
  <text x="520.92" y="372" font-size="10" fill="#6b7280" text-anchor="middle">2026-03-21 13</text>
  <line x1="596.07" y1="350" x2="596.07" y2="356" stroke="#9ca3af" stroke-width="1"/>
  <text x="596.07" y="372" font-size="10" fill="#6b7280" text-anchor="middle">2026-03-24 05</text>
  <line x1="671.22" y1="350" x2="671.22" y2="356" stroke="#9ca3af" stroke-width="1"/>
  <text x="671.22" y="372" font-size="10" fill="#6b7280" text-anchor="middle">2026-03-27 12</text>
  <line x1="746.37" y1="350" x2="746.37" y2="356" stroke="#9ca3af" stroke-width="1"/>
  <text x="746.37" y="372" font-size="10" fill="#6b7280" text-anchor="middle">2026-03-30 14</text>
  <line x1="821.53" y1="350" x2="821.53" y2="356" stroke="#9ca3af" stroke-width="1"/>
  <text x="821.53" y="372" font-size="10" fill="#6b7280" text-anchor="middle">2026-04-02 21</text>
  <line x1="896.68" y1="350" x2="896.68" y2="356" stroke="#9ca3af" stroke-width="1"/>
  <text x="896.68" y="372" font-size="10" fill="#6b7280" text-anchor="middle">2026-04-05 19</text>
  <line x1="971.83" y1="350" x2="971.83" y2="356" stroke="#9ca3af" stroke-width="1"/>
  <text x="971.83" y="372" font-size="10" fill="#6b7280" text-anchor="middle">2026-04-09 02</text>
  <line x1="980.00" y1="350" x2="980.00" y2="356" stroke="#9ca3af" stroke-width="1"/>
  <text x="980.00" y="372" font-size="10" fill="#6b7280" text-anchor="middle">2026-04-09 09</text>
  <polyline fill="none" stroke="#2563eb" stroke-width="2.5" points="70.00,50.00 71.63,50.12 73.27,50.17 74.90,50.46 76.54,50.00 78.17,266.90 79.80,50.12 81.44,50.08 83.07,177.46 84.70,211.58 86.34,175.34 87.97,304.14 89.61,200.46 91.24,250.94 92.87,300.01 94.51,300.06 96.14,300.01 97.77,300.01 99.41,348.00 101.04,300.01 102.68,249.99 104.31,200.00 105.94,249.99 107.58,249.99 109.21,250.03 110.84,250.03 112.48,250.03 114.11,250.40 115.75,250.90 117.38,250.90 119.01,251.32 120.65,249.94 122.28,300.01 123.91,299.93 125.55,251.03 127.18,300.68 128.82,250.03 130.45,200.00 132.08,249.99 133.72,250.03 135.35,250.03 136.98,250.03 138.62,300.01 140.25,200.04 141.89,250.03 143.52,250.03 145.15,250.03 146.79,249.90 148.42,250.03 150.05,250.03 151.69,250.94 153.32,250.44 154.96,250.03 156.59,250.03 158.22,300.47 159.86,300.01 161.49,300.43 163.12,250.03 164.76,249.99 166.39,300.43 168.03,249.90 169.66,249.99 171.29,249.99 172.93,200.04 174.56,300.01 176.19,300.01 177.83,300.01 179.46,249.90 181.10,300.01 182.73,250.03 184.36,249.99 186.00,199.96 187.63,300.01 189.26,200.00 190.90,250.36 192.53,250.03 194.17,300.01 195.80,300.01 197.43,250.44 199.07,300.01 200.70,250.03 202.33,250.03 203.97,249.99 205.60,250.49 207.24,250.03 208.87,200.04 210.50,300.01 212.14,250.03 213.77,300.01 215.40,250.11 217.04,300.01 218.67,250.03 220.31,250.03 221.94,199.92 223.57,250.03 225.21,250.03 226.84,250.03 228.47,254.36 230.11,300.01 231.74,299.97 233.38,250.36 235.01,299.97 236.64,250.03 238.28,250.03 239.91,250.03 241.54,250.03 243.18,249.99 244.81,200.00 246.45,299.93 248.08,300.01 249.71,299.97 251.35,249.94 252.98,249.99 254.61,249.82 256.25,249.94 257.88,250.28 259.52,207.00 261.15,250.03 262.78,250.32 264.42,250.40 266.05,300.93 267.68,300.01 269.32,300.10 270.95,249.94 272.59,249.99 274.22,250.07 275.85,249.99 277.49,250.03 279.12,249.94 280.75,200.00 282.39,300.39 284.02,300.01 285.66,300.01 287.29,250.44 288.92,300.39 290.56,249.86 292.19,250.11 293.82,201.46 295.46,300.01 297.09,200.83 298.73,250.03 300.36,249.99 301.99,300.26 303.63,300.01 305.26,300.01 306.89,250.03 308.53,250.03 310.16,250.03 311.80,250.03 313.43,249.99 315.06,250.03 316.70,200.00 318.33,300.26 319.96,249.99 321.60,300.01 323.23,249.94 324.87,250.03 326.50,250.03 328.13,250.03 329.77,200.04 331.40,300.01 333.03,249.90 334.67,300.01 336.30,300.01 337.94,300.06 339.57,300.01 341.20,300.01 342.84,243.95 344.47,249.94 346.10,299.97 347.74,300.01 349.37,300.01 351.01,250.03 352.64,300.01 354.27,300.01 355.91,299.97 357.54,249.99 359.17,300.01 360.81,299.93 362.44,300.01 364.08,299.93 365.71,300.01 367.34,300.01 368.98,299.89 370.61,299.97 372.24,250.03 373.88,299.93 375.51,299.89 377.15,299.97 378.78,249.94 380.41,300.01 382.05,300.01 383.68,299.97 385.31,249.99 386.95,299.97 388.58,299.97 390.22,300.06 391.85,300.06 393.48,299.93 395.12,300.01 396.75,300.01 398.38,299.93 400.02,300.01 401.65,300.01 403.29,299.97 404.92,300.01 406.55,300.01 408.19,300.01 409.82,300.01 411.45,249.86 413.09,300.01 414.72,300.10 416.36,299.93 417.99,300.01 419.62,299.93 421.26,300.01 422.89,300.01 424.52,300.01 426.16,300.01 427.79,300.01 429.43,299.97 431.06,300.01 432.69,300.01 434.33,300.01 435.96,300.01 437.59,250.03 439.23,300.01 440.86,300.01 442.50,299.97 444.13,300.01 445.76,300.01 447.40,299.97 449.03,299.97 450.66,300.01 452.30,299.97 453.93,300.01 455.57,299.93 457.20,300.01 458.83,250.03 460.47,300.01 462.10,300.01 463.73,300.01 465.37,300.01 467.00,300.01 468.64,299.89 470.27,300.01 471.90,300.01 473.54,250.07 475.17,300.01 476.80,299.93 478.44,300.01 480.07,299.97 481.71,299.97 483.34,299.97 484.97,250.03 486.61,300.01 488.24,300.01 489.87,300.01 491.51,300.01 493.14,299.97 494.78,300.01 496.41,299.97 498.04,300.01 499.68,299.97 501.31,249.90 502.94,300.01 504.58,300.01 506.21,299.89 507.85,299.97 509.48,299.97 511.11,249.99 512.75,299.97 514.38,299.89 516.01,300.01 517.65,299.97 519.28,299.97 520.92,300.01 522.55,299.97 524.18,249.99 525.82,299.97 527.45,299.97 529.08,300.06 530.72,300.06 532.35,249.94 533.99,300.01 535.62,299.93 537.25,300.01 538.89,300.01 540.52,249.99 542.15,300.01 543.79,300.01 545.42,300.01 547.06,299.93 548.69,299.93 550.32,300.01 551.96,300.01 553.59,249.94 555.22,299.97 556.86,299.97 558.49,300.01 560.13,300.01 561.76,300.01 563.39,249.99 565.03,300.01 566.66,300.01 568.29,300.01 569.93,250.03 571.56,300.01 573.20,300.01 574.83,300.01 576.46,299.97 578.10,300.01 579.73,300.01 581.36,299.97 583.00,299.97 584.63,300.01 586.27,300.01 587.90,299.97 589.53,299.93 591.17,300.01 592.80,300.06 594.43,299.97 596.07,300.01 597.70,250.03 599.34,250.03 600.97,299.93 602.60,299.97 604.24,300.01 605.87,300.01 607.50,300.06 609.14,300.01 610.77,299.93 612.41,300.01 614.04,300.01 615.67,299.97 617.31,299.97 618.94,300.01 620.57,250.03 622.21,300.01 623.84,300.01 625.48,300.01 627.11,299.97 628.74,300.01 630.38,299.97 632.01,300.01 633.64,299.97 635.28,299.97 636.91,299.93 638.55,300.01 640.18,300.01 641.81,299.89 643.45,299.97 645.08,299.97 646.71,300.06 648.35,249.90 649.98,299.89 651.62,300.01 653.25,299.97 654.88,299.97 656.52,299.97 658.15,300.01 659.78,300.01 661.42,299.97 663.05,299.97 664.69,299.97 666.32,250.03 667.95,299.93 669.59,300.01 671.22,300.01 672.85,299.93 674.49,300.01 676.12,300.01 677.76,299.97 679.39,300.01 681.02,300.01 682.66,300.06 684.29,300.01 685.92,299.97 687.56,299.89 689.19,300.01 690.83,300.01 692.46,249.94 694.09,249.94 695.73,300.01 697.36,300.01 698.99,300.01 700.63,300.01 702.26,299.97 703.90,250.03 705.53,300.01 707.16,300.01 708.80,300.01 710.43,300.01 712.06,250.03 713.70,249.99 715.33,300.01 716.97,299.97 718.60,300.01 720.23,299.97 721.87,300.01 723.50,299.97 725.13,299.97 726.77,299.97 728.40,300.06 730.04,249.99 731.67,300.01 733.30,250.03 734.94,249.94 736.57,249.99 738.20,300.01 739.84,300.06 741.47,300.01 743.11,299.97 744.74,299.97 746.37,300.01 748.01,299.93 749.64,299.89 751.27,299.89 752.91,299.89 754.54,299.89 756.18,299.85 757.81,299.85 759.44,299.89 761.08,299.81 762.71,299.81 764.34,299.81 765.98,299.76 767.61,299.76 769.25,299.76 770.88,299.72 772.51,299.68 774.15,299.60 775.78,299.60 777.41,299.60 779.05,299.56 780.68,299.47 782.32,299.43 783.95,299.43 785.58,299.39 787.22,299.47 788.85,259.82 790.48,338.96 792.12,299.31 793.75,299.31 795.39,299.26 797.02,299.68 798.65,299.68 800.29,299.68 801.92,299.64 803.55,299.14 805.19,299.14 806.82,299.10 808.46,299.10 810.09,299.10 811.72,248.07 813.36,299.06 814.99,299.06 816.62,299.06 818.26,299.06 819.89,299.06 821.53,298.97 823.16,298.97 824.79,298.93 826.43,298.97 828.06,298.93 829.69,298.89 831.33,298.89 832.96,298.89 834.60,298.89 836.23,247.78 837.86,298.89 839.50,298.89 841.13,298.85 842.76,298.85 844.40,298.81 846.03,298.81 847.67,298.81 849.30,298.81 850.93,298.81 852.57,298.81 854.20,298.81 855.83,298.81 857.47,298.81 859.10,298.72 860.74,247.45 862.37,247.45 864.00,298.72 865.64,298.72 867.27,298.72 868.90,298.72 870.54,298.72 872.17,298.72 873.81,247.36 875.44,298.68 877.07,247.36 878.71,247.36 880.34,247.36 881.97,298.68 883.61,298.68 885.24,298.68 886.88,298.68 888.51,298.68 890.14,341.67 891.78,307.01 893.41,298.68 895.04,298.68 896.68,298.68 898.31,247.36 899.95,298.64 901.58,247.36 903.21,247.28 904.85,247.20 906.48,298.60 908.11,298.60 909.75,247.03 911.38,298.51 913.02,298.51 914.65,298.51 916.28,298.51 917.92,298.51 919.55,298.51 921.18,298.51 922.82,298.51 924.45,298.51 926.09,298.51 927.72,298.51 929.35,298.51 930.99,298.51 932.62,298.51 934.25,298.51 935.89,298.51 937.52,298.51 939.16,298.51 940.79,298.51 942.42,298.51 944.06,298.51 945.69,298.51 947.32,298.51 948.96,298.51 950.59,298.51 952.23,298.51 953.86,298.47 955.49,298.51 957.13,298.51 958.76,298.47 960.39,298.51 962.03,298.47 963.66,298.51 965.30,298.43 966.93,298.56 968.56,298.43 970.20,298.43 971.83,298.43 973.46,298.43 975.10,298.43 976.73,298.43 978.37,298.43 980.00,298.43"/>
  <circle cx="70.00" cy="50.00" r="2.5" fill="#2563eb"/>
  <circle cx="71.63" cy="50.12" r="2.5" fill="#2563eb"/>
  <circle cx="73.27" cy="50.17" r="2.5" fill="#2563eb"/>
  <circle cx="74.90" cy="50.46" r="2.5" fill="#2563eb"/>
  <circle cx="76.54" cy="50.00" r="2.5" fill="#2563eb"/>
  <circle cx="78.17" cy="266.90" r="2.5" fill="#2563eb"/>
  <circle cx="79.80" cy="50.12" r="2.5" fill="#2563eb"/>
  <circle cx="81.44" cy="50.08" r="2.5" fill="#2563eb"/>
  <circle cx="83.07" cy="177.46" r="2.5" fill="#2563eb"/>
  <circle cx="84.70" cy="211.58" r="2.5" fill="#2563eb"/>
  <circle cx="86.34" cy="175.34" r="2.5" fill="#2563eb"/>
  <circle cx="87.97" cy="304.14" r="2.5" fill="#2563eb"/>
  <circle cx="89.61" cy="200.46" r="2.5" fill="#2563eb"/>
  <circle cx="91.24" cy="250.94" r="2.5" fill="#2563eb"/>
  <circle cx="92.87" cy="300.01" r="2.5" fill="#2563eb"/>
  <circle cx="94.51" cy="300.06" r="2.5" fill="#2563eb"/>
  <circle cx="96.14" cy="300.01" r="2.5" fill="#2563eb"/>
  <circle cx="97.77" cy="300.01" r="2.5" fill="#2563eb"/>
  <circle cx="99.41" cy="348.00" r="2.5" fill="#2563eb"/>
  <circle cx="101.04" cy="300.01" r="2.5" fill="#2563eb"/>
  <circle cx="102.68" cy="249.99" r="2.5" fill="#2563eb"/>
  <circle cx="104.31" cy="200.00" r="2.5" fill="#2563eb"/>
  <circle cx="105.94" cy="249.99" r="2.5" fill="#2563eb"/>
  <circle cx="107.58" cy="249.99" r="2.5" fill="#2563eb"/>
  <circle cx="109.21" cy="250.03" r="2.5" fill="#2563eb"/>
  <circle cx="110.84" cy="250.03" r="2.5" fill="#2563eb"/>
  <circle cx="112.48" cy="250.03" r="2.5" fill="#2563eb"/>
  <circle cx="114.11" cy="250.40" r="2.5" fill="#2563eb"/>
  <circle cx="115.75" cy="250.90" r="2.5" fill="#2563eb"/>
  <circle cx="117.38" cy="250.90" r="2.5" fill="#2563eb"/>
  <circle cx="119.01" cy="251.32" r="2.5" fill="#2563eb"/>
  <circle cx="120.65" cy="249.94" r="2.5" fill="#2563eb"/>
  <circle cx="122.28" cy="300.01" r="2.5" fill="#2563eb"/>
  <circle cx="123.91" cy="299.93" r="2.5" fill="#2563eb"/>
  <circle cx="125.55" cy="251.03" r="2.5" fill="#2563eb"/>
  <circle cx="127.18" cy="300.68" r="2.5" fill="#2563eb"/>
  <circle cx="128.82" cy="250.03" r="2.5" fill="#2563eb"/>
  <circle cx="130.45" cy="200.00" r="2.5" fill="#2563eb"/>
  <circle cx="132.08" cy="249.99" r="2.5" fill="#2563eb"/>
  <circle cx="133.72" cy="250.03" r="2.5" fill="#2563eb"/>
  <circle cx="135.35" cy="250.03" r="2.5" fill="#2563eb"/>
  <circle cx="136.98" cy="250.03" r="2.5" fill="#2563eb"/>
  <circle cx="138.62" cy="300.01" r="2.5" fill="#2563eb"/>
  <circle cx="140.25" cy="200.04" r="2.5" fill="#2563eb"/>
  <circle cx="141.89" cy="250.03" r="2.5" fill="#2563eb"/>
  <circle cx="143.52" cy="250.03" r="2.5" fill="#2563eb"/>
  <circle cx="145.15" cy="250.03" r="2.5" fill="#2563eb"/>
  <circle cx="146.79" cy="249.90" r="2.5" fill="#2563eb"/>
  <circle cx="148.42" cy="250.03" r="2.5" fill="#2563eb"/>
  <circle cx="150.05" cy="250.03" r="2.5" fill="#2563eb"/>
  <circle cx="151.69" cy="250.94" r="2.5" fill="#2563eb"/>
  <circle cx="153.32" cy="250.44" r="2.5" fill="#2563eb"/>
  <circle cx="154.96" cy="250.03" r="2.5" fill="#2563eb"/>
  <circle cx="156.59" cy="250.03" r="2.5" fill="#2563eb"/>
  <circle cx="158.22" cy="300.47" r="2.5" fill="#2563eb"/>
  <circle cx="159.86" cy="300.01" r="2.5" fill="#2563eb"/>
  <circle cx="161.49" cy="300.43" r="2.5" fill="#2563eb"/>
  <circle cx="163.12" cy="250.03" r="2.5" fill="#2563eb"/>
  <circle cx="164.76" cy="249.99" r="2.5" fill="#2563eb"/>
  <circle cx="166.39" cy="300.43" r="2.5" fill="#2563eb"/>
  <circle cx="168.03" cy="249.90" r="2.5" fill="#2563eb"/>
  <circle cx="169.66" cy="249.99" r="2.5" fill="#2563eb"/>
  <circle cx="171.29" cy="249.99" r="2.5" fill="#2563eb"/>
  <circle cx="172.93" cy="200.04" r="2.5" fill="#2563eb"/>
  <circle cx="174.56" cy="300.01" r="2.5" fill="#2563eb"/>
  <circle cx="176.19" cy="300.01" r="2.5" fill="#2563eb"/>
  <circle cx="177.83" cy="300.01" r="2.5" fill="#2563eb"/>
  <circle cx="179.46" cy="249.90" r="2.5" fill="#2563eb"/>
  <circle cx="181.10" cy="300.01" r="2.5" fill="#2563eb"/>
  <circle cx="182.73" cy="250.03" r="2.5" fill="#2563eb"/>
  <circle cx="184.36" cy="249.99" r="2.5" fill="#2563eb"/>
  <circle cx="186.00" cy="199.96" r="2.5" fill="#2563eb"/>
  <circle cx="187.63" cy="300.01" r="2.5" fill="#2563eb"/>
  <circle cx="189.26" cy="200.00" r="2.5" fill="#2563eb"/>
  <circle cx="190.90" cy="250.36" r="2.5" fill="#2563eb"/>
  <circle cx="192.53" cy="250.03" r="2.5" fill="#2563eb"/>
  <circle cx="194.17" cy="300.01" r="2.5" fill="#2563eb"/>
  <circle cx="195.80" cy="300.01" r="2.5" fill="#2563eb"/>
  <circle cx="197.43" cy="250.44" r="2.5" fill="#2563eb"/>
  <circle cx="199.07" cy="300.01" r="2.5" fill="#2563eb"/>
  <circle cx="200.70" cy="250.03" r="2.5" fill="#2563eb"/>
  <circle cx="202.33" cy="250.03" r="2.5" fill="#2563eb"/>
  <circle cx="203.97" cy="249.99" r="2.5" fill="#2563eb"/>
  <circle cx="205.60" cy="250.49" r="2.5" fill="#2563eb"/>
  <circle cx="207.24" cy="250.03" r="2.5" fill="#2563eb"/>
  <circle cx="208.87" cy="200.04" r="2.5" fill="#2563eb"/>
  <circle cx="210.50" cy="300.01" r="2.5" fill="#2563eb"/>
  <circle cx="212.14" cy="250.03" r="2.5" fill="#2563eb"/>
  <circle cx="213.77" cy="300.01" r="2.5" fill="#2563eb"/>
  <circle cx="215.40" cy="250.11" r="2.5" fill="#2563eb"/>
  <circle cx="217.04" cy="300.01" r="2.5" fill="#2563eb"/>
  <circle cx="218.67" cy="250.03" r="2.5" fill="#2563eb"/>
  <circle cx="220.31" cy="250.03" r="2.5" fill="#2563eb"/>
  <circle cx="221.94" cy="199.92" r="2.5" fill="#2563eb"/>
  <circle cx="223.57" cy="250.03" r="2.5" fill="#2563eb"/>
  <circle cx="225.21" cy="250.03" r="2.5" fill="#2563eb"/>
  <circle cx="226.84" cy="250.03" r="2.5" fill="#2563eb"/>
  <circle cx="228.47" cy="254.36" r="2.5" fill="#2563eb"/>
  <circle cx="230.11" cy="300.01" r="2.5" fill="#2563eb"/>
  <circle cx="231.74" cy="299.97" r="2.5" fill="#2563eb"/>
  <circle cx="233.38" cy="250.36" r="2.5" fill="#2563eb"/>
  <circle cx="235.01" cy="299.97" r="2.5" fill="#2563eb"/>
  <circle cx="236.64" cy="250.03" r="2.5" fill="#2563eb"/>
  <circle cx="238.28" cy="250.03" r="2.5" fill="#2563eb"/>
  <circle cx="239.91" cy="250.03" r="2.5" fill="#2563eb"/>
  <circle cx="241.54" cy="250.03" r="2.5" fill="#2563eb"/>
  <circle cx="243.18" cy="249.99" r="2.5" fill="#2563eb"/>
  <circle cx="244.81" cy="200.00" r="2.5" fill="#2563eb"/>
  <circle cx="246.45" cy="299.93" r="2.5" fill="#2563eb"/>
  <circle cx="248.08" cy="300.01" r="2.5" fill="#2563eb"/>
  <circle cx="249.71" cy="299.97" r="2.5" fill="#2563eb"/>
  <circle cx="251.35" cy="249.94" r="2.5" fill="#2563eb"/>
  <circle cx="252.98" cy="249.99" r="2.5" fill="#2563eb"/>
  <circle cx="254.61" cy="249.82" r="2.5" fill="#2563eb"/>
  <circle cx="256.25" cy="249.94" r="2.5" fill="#2563eb"/>
  <circle cx="257.88" cy="250.28" r="2.5" fill="#2563eb"/>
  <circle cx="259.52" cy="207.00" r="2.5" fill="#2563eb"/>
  <circle cx="261.15" cy="250.03" r="2.5" fill="#2563eb"/>
  <circle cx="262.78" cy="250.32" r="2.5" fill="#2563eb"/>
  <circle cx="264.42" cy="250.40" r="2.5" fill="#2563eb"/>
  <circle cx="266.05" cy="300.93" r="2.5" fill="#2563eb"/>
  <circle cx="267.68" cy="300.01" r="2.5" fill="#2563eb"/>
  <circle cx="269.32" cy="300.10" r="2.5" fill="#2563eb"/>
  <circle cx="270.95" cy="249.94" r="2.5" fill="#2563eb"/>
  <circle cx="272.59" cy="249.99" r="2.5" fill="#2563eb"/>
  <circle cx="274.22" cy="250.07" r="2.5" fill="#2563eb"/>
  <circle cx="275.85" cy="249.99" r="2.5" fill="#2563eb"/>
  <circle cx="277.49" cy="250.03" r="2.5" fill="#2563eb"/>
  <circle cx="279.12" cy="249.94" r="2.5" fill="#2563eb"/>
  <circle cx="280.75" cy="200.00" r="2.5" fill="#2563eb"/>
  <circle cx="282.39" cy="300.39" r="2.5" fill="#2563eb"/>
  <circle cx="284.02" cy="300.01" r="2.5" fill="#2563eb"/>
  <circle cx="285.66" cy="300.01" r="2.5" fill="#2563eb"/>
  <circle cx="287.29" cy="250.44" r="2.5" fill="#2563eb"/>
  <circle cx="288.92" cy="300.39" r="2.5" fill="#2563eb"/>
  <circle cx="290.56" cy="249.86" r="2.5" fill="#2563eb"/>
  <circle cx="292.19" cy="250.11" r="2.5" fill="#2563eb"/>
  <circle cx="293.82" cy="201.46" r="2.5" fill="#2563eb"/>
  <circle cx="295.46" cy="300.01" r="2.5" fill="#2563eb"/>
  <circle cx="297.09" cy="200.83" r="2.5" fill="#2563eb"/>
  <circle cx="298.73" cy="250.03" r="2.5" fill="#2563eb"/>
  <circle cx="300.36" cy="249.99" r="2.5" fill="#2563eb"/>
  <circle cx="301.99" cy="300.26" r="2.5" fill="#2563eb"/>
  <circle cx="303.63" cy="300.01" r="2.5" fill="#2563eb"/>
  <circle cx="305.26" cy="300.01" r="2.5" fill="#2563eb"/>
  <circle cx="306.89" cy="250.03" r="2.5" fill="#2563eb"/>
  <circle cx="308.53" cy="250.03" r="2.5" fill="#2563eb"/>
  <circle cx="310.16" cy="250.03" r="2.5" fill="#2563eb"/>
  <circle cx="311.80" cy="250.03" r="2.5" fill="#2563eb"/>
  <circle cx="313.43" cy="249.99" r="2.5" fill="#2563eb"/>
  <circle cx="315.06" cy="250.03" r="2.5" fill="#2563eb"/>
  <circle cx="316.70" cy="200.00" r="2.5" fill="#2563eb"/>
  <circle cx="318.33" cy="300.26" r="2.5" fill="#2563eb"/>
  <circle cx="319.96" cy="249.99" r="2.5" fill="#2563eb"/>
  <circle cx="321.60" cy="300.01" r="2.5" fill="#2563eb"/>
  <circle cx="323.23" cy="249.94" r="2.5" fill="#2563eb"/>
  <circle cx="324.87" cy="250.03" r="2.5" fill="#2563eb"/>
  <circle cx="326.50" cy="250.03" r="2.5" fill="#2563eb"/>
  <circle cx="328.13" cy="250.03" r="2.5" fill="#2563eb"/>
  <circle cx="329.77" cy="200.04" r="2.5" fill="#2563eb"/>
  <circle cx="331.40" cy="300.01" r="2.5" fill="#2563eb"/>
  <circle cx="333.03" cy="249.90" r="2.5" fill="#2563eb"/>
  <circle cx="334.67" cy="300.01" r="2.5" fill="#2563eb"/>
  <circle cx="336.30" cy="300.01" r="2.5" fill="#2563eb"/>
  <circle cx="337.94" cy="300.06" r="2.5" fill="#2563eb"/>
  <circle cx="339.57" cy="300.01" r="2.5" fill="#2563eb"/>
  <circle cx="341.20" cy="300.01" r="2.5" fill="#2563eb"/>
  <circle cx="342.84" cy="243.95" r="2.5" fill="#2563eb"/>
  <circle cx="344.47" cy="249.94" r="2.5" fill="#2563eb"/>
  <circle cx="346.10" cy="299.97" r="2.5" fill="#2563eb"/>
  <circle cx="347.74" cy="300.01" r="2.5" fill="#2563eb"/>
  <circle cx="349.37" cy="300.01" r="2.5" fill="#2563eb"/>
  <circle cx="351.01" cy="250.03" r="2.5" fill="#2563eb"/>
  <circle cx="352.64" cy="300.01" r="2.5" fill="#2563eb"/>
  <circle cx="354.27" cy="300.01" r="2.5" fill="#2563eb"/>
  <circle cx="355.91" cy="299.97" r="2.5" fill="#2563eb"/>
  <circle cx="357.54" cy="249.99" r="2.5" fill="#2563eb"/>
  <circle cx="359.17" cy="300.01" r="2.5" fill="#2563eb"/>
  <circle cx="360.81" cy="299.93" r="2.5" fill="#2563eb"/>
  <circle cx="362.44" cy="300.01" r="2.5" fill="#2563eb"/>
  <circle cx="364.08" cy="299.93" r="2.5" fill="#2563eb"/>
  <circle cx="365.71" cy="300.01" r="2.5" fill="#2563eb"/>
  <circle cx="367.34" cy="300.01" r="2.5" fill="#2563eb"/>
  <circle cx="368.98" cy="299.89" r="2.5" fill="#2563eb"/>
  <circle cx="370.61" cy="299.97" r="2.5" fill="#2563eb"/>
  <circle cx="372.24" cy="250.03" r="2.5" fill="#2563eb"/>
  <circle cx="373.88" cy="299.93" r="2.5" fill="#2563eb"/>
  <circle cx="375.51" cy="299.89" r="2.5" fill="#2563eb"/>
  <circle cx="377.15" cy="299.97" r="2.5" fill="#2563eb"/>
  <circle cx="378.78" cy="249.94" r="2.5" fill="#2563eb"/>
  <circle cx="380.41" cy="300.01" r="2.5" fill="#2563eb"/>
  <circle cx="382.05" cy="300.01" r="2.5" fill="#2563eb"/>
  <circle cx="383.68" cy="299.97" r="2.5" fill="#2563eb"/>
  <circle cx="385.31" cy="249.99" r="2.5" fill="#2563eb"/>
  <circle cx="386.95" cy="299.97" r="2.5" fill="#2563eb"/>
  <circle cx="388.58" cy="299.97" r="2.5" fill="#2563eb"/>
  <circle cx="390.22" cy="300.06" r="2.5" fill="#2563eb"/>
  <circle cx="391.85" cy="300.06" r="2.5" fill="#2563eb"/>
  <circle cx="393.48" cy="299.93" r="2.5" fill="#2563eb"/>
  <circle cx="395.12" cy="300.01" r="2.5" fill="#2563eb"/>
  <circle cx="396.75" cy="300.01" r="2.5" fill="#2563eb"/>
  <circle cx="398.38" cy="299.93" r="2.5" fill="#2563eb"/>
  <circle cx="400.02" cy="300.01" r="2.5" fill="#2563eb"/>
  <circle cx="401.65" cy="300.01" r="2.5" fill="#2563eb"/>
  <circle cx="403.29" cy="299.97" r="2.5" fill="#2563eb"/>
  <circle cx="404.92" cy="300.01" r="2.5" fill="#2563eb"/>
  <circle cx="406.55" cy="300.01" r="2.5" fill="#2563eb"/>
  <circle cx="408.19" cy="300.01" r="2.5" fill="#2563eb"/>
  <circle cx="409.82" cy="300.01" r="2.5" fill="#2563eb"/>
  <circle cx="411.45" cy="249.86" r="2.5" fill="#2563eb"/>
  <circle cx="413.09" cy="300.01" r="2.5" fill="#2563eb"/>
  <circle cx="414.72" cy="300.10" r="2.5" fill="#2563eb"/>
  <circle cx="416.36" cy="299.93" r="2.5" fill="#2563eb"/>
  <circle cx="417.99" cy="300.01" r="2.5" fill="#2563eb"/>
  <circle cx="419.62" cy="299.93" r="2.5" fill="#2563eb"/>
  <circle cx="421.26" cy="300.01" r="2.5" fill="#2563eb"/>
  <circle cx="422.89" cy="300.01" r="2.5" fill="#2563eb"/>
  <circle cx="424.52" cy="300.01" r="2.5" fill="#2563eb"/>
  <circle cx="426.16" cy="300.01" r="2.5" fill="#2563eb"/>
  <circle cx="427.79" cy="300.01" r="2.5" fill="#2563eb"/>
  <circle cx="429.43" cy="299.97" r="2.5" fill="#2563eb"/>
  <circle cx="431.06" cy="300.01" r="2.5" fill="#2563eb"/>
  <circle cx="432.69" cy="300.01" r="2.5" fill="#2563eb"/>
  <circle cx="434.33" cy="300.01" r="2.5" fill="#2563eb"/>
  <circle cx="435.96" cy="300.01" r="2.5" fill="#2563eb"/>
  <circle cx="437.59" cy="250.03" r="2.5" fill="#2563eb"/>
  <circle cx="439.23" cy="300.01" r="2.5" fill="#2563eb"/>
  <circle cx="440.86" cy="300.01" r="2.5" fill="#2563eb"/>
  <circle cx="442.50" cy="299.97" r="2.5" fill="#2563eb"/>
  <circle cx="444.13" cy="300.01" r="2.5" fill="#2563eb"/>
  <circle cx="445.76" cy="300.01" r="2.5" fill="#2563eb"/>
  <circle cx="447.40" cy="299.97" r="2.5" fill="#2563eb"/>
  <circle cx="449.03" cy="299.97" r="2.5" fill="#2563eb"/>
  <circle cx="450.66" cy="300.01" r="2.5" fill="#2563eb"/>
  <circle cx="452.30" cy="299.97" r="2.5" fill="#2563eb"/>
  <circle cx="453.93" cy="300.01" r="2.5" fill="#2563eb"/>
  <circle cx="455.57" cy="299.93" r="2.5" fill="#2563eb"/>
  <circle cx="457.20" cy="300.01" r="2.5" fill="#2563eb"/>
  <circle cx="458.83" cy="250.03" r="2.5" fill="#2563eb"/>
  <circle cx="460.47" cy="300.01" r="2.5" fill="#2563eb"/>
  <circle cx="462.10" cy="300.01" r="2.5" fill="#2563eb"/>
  <circle cx="463.73" cy="300.01" r="2.5" fill="#2563eb"/>
  <circle cx="465.37" cy="300.01" r="2.5" fill="#2563eb"/>
  <circle cx="467.00" cy="300.01" r="2.5" fill="#2563eb"/>
  <circle cx="468.64" cy="299.89" r="2.5" fill="#2563eb"/>
  <circle cx="470.27" cy="300.01" r="2.5" fill="#2563eb"/>
  <circle cx="471.90" cy="300.01" r="2.5" fill="#2563eb"/>
  <circle cx="473.54" cy="250.07" r="2.5" fill="#2563eb"/>
  <circle cx="475.17" cy="300.01" r="2.5" fill="#2563eb"/>
  <circle cx="476.80" cy="299.93" r="2.5" fill="#2563eb"/>
  <circle cx="478.44" cy="300.01" r="2.5" fill="#2563eb"/>
  <circle cx="480.07" cy="299.97" r="2.5" fill="#2563eb"/>
  <circle cx="481.71" cy="299.97" r="2.5" fill="#2563eb"/>
  <circle cx="483.34" cy="299.97" r="2.5" fill="#2563eb"/>
  <circle cx="484.97" cy="250.03" r="2.5" fill="#2563eb"/>
  <circle cx="486.61" cy="300.01" r="2.5" fill="#2563eb"/>
  <circle cx="488.24" cy="300.01" r="2.5" fill="#2563eb"/>
  <circle cx="489.87" cy="300.01" r="2.5" fill="#2563eb"/>
  <circle cx="491.51" cy="300.01" r="2.5" fill="#2563eb"/>
  <circle cx="493.14" cy="299.97" r="2.5" fill="#2563eb"/>
  <circle cx="494.78" cy="300.01" r="2.5" fill="#2563eb"/>
  <circle cx="496.41" cy="299.97" r="2.5" fill="#2563eb"/>
  <circle cx="498.04" cy="300.01" r="2.5" fill="#2563eb"/>
  <circle cx="499.68" cy="299.97" r="2.5" fill="#2563eb"/>
  <circle cx="501.31" cy="249.90" r="2.5" fill="#2563eb"/>
  <circle cx="502.94" cy="300.01" r="2.5" fill="#2563eb"/>
  <circle cx="504.58" cy="300.01" r="2.5" fill="#2563eb"/>
  <circle cx="506.21" cy="299.89" r="2.5" fill="#2563eb"/>
  <circle cx="507.85" cy="299.97" r="2.5" fill="#2563eb"/>
  <circle cx="509.48" cy="299.97" r="2.5" fill="#2563eb"/>
  <circle cx="511.11" cy="249.99" r="2.5" fill="#2563eb"/>
  <circle cx="512.75" cy="299.97" r="2.5" fill="#2563eb"/>
  <circle cx="514.38" cy="299.89" r="2.5" fill="#2563eb"/>
  <circle cx="516.01" cy="300.01" r="2.5" fill="#2563eb"/>
  <circle cx="517.65" cy="299.97" r="2.5" fill="#2563eb"/>
  <circle cx="519.28" cy="299.97" r="2.5" fill="#2563eb"/>
  <circle cx="520.92" cy="300.01" r="2.5" fill="#2563eb"/>
  <circle cx="522.55" cy="299.97" r="2.5" fill="#2563eb"/>
  <circle cx="524.18" cy="249.99" r="2.5" fill="#2563eb"/>
  <circle cx="525.82" cy="299.97" r="2.5" fill="#2563eb"/>
  <circle cx="527.45" cy="299.97" r="2.5" fill="#2563eb"/>
  <circle cx="529.08" cy="300.06" r="2.5" fill="#2563eb"/>
  <circle cx="530.72" cy="300.06" r="2.5" fill="#2563eb"/>
  <circle cx="532.35" cy="249.94" r="2.5" fill="#2563eb"/>
  <circle cx="533.99" cy="300.01" r="2.5" fill="#2563eb"/>
  <circle cx="535.62" cy="299.93" r="2.5" fill="#2563eb"/>
  <circle cx="537.25" cy="300.01" r="2.5" fill="#2563eb"/>
  <circle cx="538.89" cy="300.01" r="2.5" fill="#2563eb"/>
  <circle cx="540.52" cy="249.99" r="2.5" fill="#2563eb"/>
  <circle cx="542.15" cy="300.01" r="2.5" fill="#2563eb"/>
  <circle cx="543.79" cy="300.01" r="2.5" fill="#2563eb"/>
  <circle cx="545.42" cy="300.01" r="2.5" fill="#2563eb"/>
  <circle cx="547.06" cy="299.93" r="2.5" fill="#2563eb"/>
  <circle cx="548.69" cy="299.93" r="2.5" fill="#2563eb"/>
  <circle cx="550.32" cy="300.01" r="2.5" fill="#2563eb"/>
  <circle cx="551.96" cy="300.01" r="2.5" fill="#2563eb"/>
  <circle cx="553.59" cy="249.94" r="2.5" fill="#2563eb"/>
  <circle cx="555.22" cy="299.97" r="2.5" fill="#2563eb"/>
  <circle cx="556.86" cy="299.97" r="2.5" fill="#2563eb"/>
  <circle cx="558.49" cy="300.01" r="2.5" fill="#2563eb"/>
  <circle cx="560.13" cy="300.01" r="2.5" fill="#2563eb"/>
  <circle cx="561.76" cy="300.01" r="2.5" fill="#2563eb"/>
  <circle cx="563.39" cy="249.99" r="2.5" fill="#2563eb"/>
  <circle cx="565.03" cy="300.01" r="2.5" fill="#2563eb"/>
  <circle cx="566.66" cy="300.01" r="2.5" fill="#2563eb"/>
  <circle cx="568.29" cy="300.01" r="2.5" fill="#2563eb"/>
  <circle cx="569.93" cy="250.03" r="2.5" fill="#2563eb"/>
  <circle cx="571.56" cy="300.01" r="2.5" fill="#2563eb"/>
  <circle cx="573.20" cy="300.01" r="2.5" fill="#2563eb"/>
  <circle cx="574.83" cy="300.01" r="2.5" fill="#2563eb"/>
  <circle cx="576.46" cy="299.97" r="2.5" fill="#2563eb"/>
  <circle cx="578.10" cy="300.01" r="2.5" fill="#2563eb"/>
  <circle cx="579.73" cy="300.01" r="2.5" fill="#2563eb"/>
  <circle cx="581.36" cy="299.97" r="2.5" fill="#2563eb"/>
  <circle cx="583.00" cy="299.97" r="2.5" fill="#2563eb"/>
  <circle cx="584.63" cy="300.01" r="2.5" fill="#2563eb"/>
  <circle cx="586.27" cy="300.01" r="2.5" fill="#2563eb"/>
  <circle cx="587.90" cy="299.97" r="2.5" fill="#2563eb"/>
  <circle cx="589.53" cy="299.93" r="2.5" fill="#2563eb"/>
  <circle cx="591.17" cy="300.01" r="2.5" fill="#2563eb"/>
  <circle cx="592.80" cy="300.06" r="2.5" fill="#2563eb"/>
  <circle cx="594.43" cy="299.97" r="2.5" fill="#2563eb"/>
  <circle cx="596.07" cy="300.01" r="2.5" fill="#2563eb"/>
  <circle cx="597.70" cy="250.03" r="2.5" fill="#2563eb"/>
  <circle cx="599.34" cy="250.03" r="2.5" fill="#2563eb"/>
  <circle cx="600.97" cy="299.93" r="2.5" fill="#2563eb"/>
  <circle cx="602.60" cy="299.97" r="2.5" fill="#2563eb"/>
  <circle cx="604.24" cy="300.01" r="2.5" fill="#2563eb"/>
  <circle cx="605.87" cy="300.01" r="2.5" fill="#2563eb"/>
  <circle cx="607.50" cy="300.06" r="2.5" fill="#2563eb"/>
  <circle cx="609.14" cy="300.01" r="2.5" fill="#2563eb"/>
  <circle cx="610.77" cy="299.93" r="2.5" fill="#2563eb"/>
  <circle cx="612.41" cy="300.01" r="2.5" fill="#2563eb"/>
  <circle cx="614.04" cy="300.01" r="2.5" fill="#2563eb"/>
  <circle cx="615.67" cy="299.97" r="2.5" fill="#2563eb"/>
  <circle cx="617.31" cy="299.97" r="2.5" fill="#2563eb"/>
  <circle cx="618.94" cy="300.01" r="2.5" fill="#2563eb"/>
  <circle cx="620.57" cy="250.03" r="2.5" fill="#2563eb"/>
  <circle cx="622.21" cy="300.01" r="2.5" fill="#2563eb"/>
  <circle cx="623.84" cy="300.01" r="2.5" fill="#2563eb"/>
  <circle cx="625.48" cy="300.01" r="2.5" fill="#2563eb"/>
  <circle cx="627.11" cy="299.97" r="2.5" fill="#2563eb"/>
  <circle cx="628.74" cy="300.01" r="2.5" fill="#2563eb"/>
  <circle cx="630.38" cy="299.97" r="2.5" fill="#2563eb"/>
  <circle cx="632.01" cy="300.01" r="2.5" fill="#2563eb"/>
  <circle cx="633.64" cy="299.97" r="2.5" fill="#2563eb"/>
  <circle cx="635.28" cy="299.97" r="2.5" fill="#2563eb"/>
  <circle cx="636.91" cy="299.93" r="2.5" fill="#2563eb"/>
  <circle cx="638.55" cy="300.01" r="2.5" fill="#2563eb"/>
  <circle cx="640.18" cy="300.01" r="2.5" fill="#2563eb"/>
  <circle cx="641.81" cy="299.89" r="2.5" fill="#2563eb"/>
  <circle cx="643.45" cy="299.97" r="2.5" fill="#2563eb"/>
  <circle cx="645.08" cy="299.97" r="2.5" fill="#2563eb"/>
  <circle cx="646.71" cy="300.06" r="2.5" fill="#2563eb"/>
  <circle cx="648.35" cy="249.90" r="2.5" fill="#2563eb"/>
  <circle cx="649.98" cy="299.89" r="2.5" fill="#2563eb"/>
  <circle cx="651.62" cy="300.01" r="2.5" fill="#2563eb"/>
  <circle cx="653.25" cy="299.97" r="2.5" fill="#2563eb"/>
  <circle cx="654.88" cy="299.97" r="2.5" fill="#2563eb"/>
  <circle cx="656.52" cy="299.97" r="2.5" fill="#2563eb"/>
  <circle cx="658.15" cy="300.01" r="2.5" fill="#2563eb"/>
  <circle cx="659.78" cy="300.01" r="2.5" fill="#2563eb"/>
  <circle cx="661.42" cy="299.97" r="2.5" fill="#2563eb"/>
  <circle cx="663.05" cy="299.97" r="2.5" fill="#2563eb"/>
  <circle cx="664.69" cy="299.97" r="2.5" fill="#2563eb"/>
  <circle cx="666.32" cy="250.03" r="2.5" fill="#2563eb"/>
  <circle cx="667.95" cy="299.93" r="2.5" fill="#2563eb"/>
  <circle cx="669.59" cy="300.01" r="2.5" fill="#2563eb"/>
  <circle cx="671.22" cy="300.01" r="2.5" fill="#2563eb"/>
  <circle cx="672.85" cy="299.93" r="2.5" fill="#2563eb"/>
  <circle cx="674.49" cy="300.01" r="2.5" fill="#2563eb"/>
  <circle cx="676.12" cy="300.01" r="2.5" fill="#2563eb"/>
  <circle cx="677.76" cy="299.97" r="2.5" fill="#2563eb"/>
  <circle cx="679.39" cy="300.01" r="2.5" fill="#2563eb"/>
  <circle cx="681.02" cy="300.01" r="2.5" fill="#2563eb"/>
  <circle cx="682.66" cy="300.06" r="2.5" fill="#2563eb"/>
  <circle cx="684.29" cy="300.01" r="2.5" fill="#2563eb"/>
  <circle cx="685.92" cy="299.97" r="2.5" fill="#2563eb"/>
  <circle cx="687.56" cy="299.89" r="2.5" fill="#2563eb"/>
  <circle cx="689.19" cy="300.01" r="2.5" fill="#2563eb"/>
  <circle cx="690.83" cy="300.01" r="2.5" fill="#2563eb"/>
  <circle cx="692.46" cy="249.94" r="2.5" fill="#2563eb"/>
  <circle cx="694.09" cy="249.94" r="2.5" fill="#2563eb"/>
  <circle cx="695.73" cy="300.01" r="2.5" fill="#2563eb"/>
  <circle cx="697.36" cy="300.01" r="2.5" fill="#2563eb"/>
  <circle cx="698.99" cy="300.01" r="2.5" fill="#2563eb"/>
  <circle cx="700.63" cy="300.01" r="2.5" fill="#2563eb"/>
  <circle cx="702.26" cy="299.97" r="2.5" fill="#2563eb"/>
  <circle cx="703.90" cy="250.03" r="2.5" fill="#2563eb"/>
  <circle cx="705.53" cy="300.01" r="2.5" fill="#2563eb"/>
  <circle cx="707.16" cy="300.01" r="2.5" fill="#2563eb"/>
  <circle cx="708.80" cy="300.01" r="2.5" fill="#2563eb"/>
  <circle cx="710.43" cy="300.01" r="2.5" fill="#2563eb"/>
  <circle cx="712.06" cy="250.03" r="2.5" fill="#2563eb"/>
  <circle cx="713.70" cy="249.99" r="2.5" fill="#2563eb"/>
  <circle cx="715.33" cy="300.01" r="2.5" fill="#2563eb"/>
  <circle cx="716.97" cy="299.97" r="2.5" fill="#2563eb"/>
  <circle cx="718.60" cy="300.01" r="2.5" fill="#2563eb"/>
  <circle cx="720.23" cy="299.97" r="2.5" fill="#2563eb"/>
  <circle cx="721.87" cy="300.01" r="2.5" fill="#2563eb"/>
  <circle cx="723.50" cy="299.97" r="2.5" fill="#2563eb"/>
  <circle cx="725.13" cy="299.97" r="2.5" fill="#2563eb"/>
  <circle cx="726.77" cy="299.97" r="2.5" fill="#2563eb"/>
  <circle cx="728.40" cy="300.06" r="2.5" fill="#2563eb"/>
  <circle cx="730.04" cy="249.99" r="2.5" fill="#2563eb"/>
  <circle cx="731.67" cy="300.01" r="2.5" fill="#2563eb"/>
  <circle cx="733.30" cy="250.03" r="2.5" fill="#2563eb"/>
  <circle cx="734.94" cy="249.94" r="2.5" fill="#2563eb"/>
  <circle cx="736.57" cy="249.99" r="2.5" fill="#2563eb"/>
  <circle cx="738.20" cy="300.01" r="2.5" fill="#2563eb"/>
  <circle cx="739.84" cy="300.06" r="2.5" fill="#2563eb"/>
  <circle cx="741.47" cy="300.01" r="2.5" fill="#2563eb"/>
  <circle cx="743.11" cy="299.97" r="2.5" fill="#2563eb"/>
  <circle cx="744.74" cy="299.97" r="2.5" fill="#2563eb"/>
  <circle cx="746.37" cy="300.01" r="2.5" fill="#2563eb"/>
  <circle cx="748.01" cy="299.93" r="2.5" fill="#2563eb"/>
  <circle cx="749.64" cy="299.89" r="2.5" fill="#2563eb"/>
  <circle cx="751.27" cy="299.89" r="2.5" fill="#2563eb"/>
  <circle cx="752.91" cy="299.89" r="2.5" fill="#2563eb"/>
  <circle cx="754.54" cy="299.89" r="2.5" fill="#2563eb"/>
  <circle cx="756.18" cy="299.85" r="2.5" fill="#2563eb"/>
  <circle cx="757.81" cy="299.85" r="2.5" fill="#2563eb"/>
  <circle cx="759.44" cy="299.89" r="2.5" fill="#2563eb"/>
  <circle cx="761.08" cy="299.81" r="2.5" fill="#2563eb"/>
  <circle cx="762.71" cy="299.81" r="2.5" fill="#2563eb"/>
  <circle cx="764.34" cy="299.81" r="2.5" fill="#2563eb"/>
  <circle cx="765.98" cy="299.76" r="2.5" fill="#2563eb"/>
  <circle cx="767.61" cy="299.76" r="2.5" fill="#2563eb"/>
  <circle cx="769.25" cy="299.76" r="2.5" fill="#2563eb"/>
  <circle cx="770.88" cy="299.72" r="2.5" fill="#2563eb"/>
  <circle cx="772.51" cy="299.68" r="2.5" fill="#2563eb"/>
  <circle cx="774.15" cy="299.60" r="2.5" fill="#2563eb"/>
  <circle cx="775.78" cy="299.60" r="2.5" fill="#2563eb"/>
  <circle cx="777.41" cy="299.60" r="2.5" fill="#2563eb"/>
  <circle cx="779.05" cy="299.56" r="2.5" fill="#2563eb"/>
  <circle cx="780.68" cy="299.47" r="2.5" fill="#2563eb"/>
  <circle cx="782.32" cy="299.43" r="2.5" fill="#2563eb"/>
  <circle cx="783.95" cy="299.43" r="2.5" fill="#2563eb"/>
  <circle cx="785.58" cy="299.39" r="2.5" fill="#2563eb"/>
  <circle cx="787.22" cy="299.47" r="2.5" fill="#2563eb"/>
  <circle cx="788.85" cy="259.82" r="2.5" fill="#2563eb"/>
  <circle cx="790.48" cy="338.96" r="2.5" fill="#2563eb"/>
  <circle cx="792.12" cy="299.31" r="2.5" fill="#2563eb"/>
  <circle cx="793.75" cy="299.31" r="2.5" fill="#2563eb"/>
  <circle cx="795.39" cy="299.26" r="2.5" fill="#2563eb"/>
  <circle cx="797.02" cy="299.68" r="2.5" fill="#2563eb"/>
  <circle cx="798.65" cy="299.68" r="2.5" fill="#2563eb"/>
  <circle cx="800.29" cy="299.68" r="2.5" fill="#2563eb"/>
  <circle cx="801.92" cy="299.64" r="2.5" fill="#2563eb"/>
  <circle cx="803.55" cy="299.14" r="2.5" fill="#2563eb"/>
  <circle cx="805.19" cy="299.14" r="2.5" fill="#2563eb"/>
  <circle cx="806.82" cy="299.10" r="2.5" fill="#2563eb"/>
  <circle cx="808.46" cy="299.10" r="2.5" fill="#2563eb"/>
  <circle cx="810.09" cy="299.10" r="2.5" fill="#2563eb"/>
  <circle cx="811.72" cy="248.07" r="2.5" fill="#2563eb"/>
  <circle cx="813.36" cy="299.06" r="2.5" fill="#2563eb"/>
  <circle cx="814.99" cy="299.06" r="2.5" fill="#2563eb"/>
  <circle cx="816.62" cy="299.06" r="2.5" fill="#2563eb"/>
  <circle cx="818.26" cy="299.06" r="2.5" fill="#2563eb"/>
  <circle cx="819.89" cy="299.06" r="2.5" fill="#2563eb"/>
  <circle cx="821.53" cy="298.97" r="2.5" fill="#2563eb"/>
  <circle cx="823.16" cy="298.97" r="2.5" fill="#2563eb"/>
  <circle cx="824.79" cy="298.93" r="2.5" fill="#2563eb"/>
  <circle cx="826.43" cy="298.97" r="2.5" fill="#2563eb"/>
  <circle cx="828.06" cy="298.93" r="2.5" fill="#2563eb"/>
  <circle cx="829.69" cy="298.89" r="2.5" fill="#2563eb"/>
  <circle cx="831.33" cy="298.89" r="2.5" fill="#2563eb"/>
  <circle cx="832.96" cy="298.89" r="2.5" fill="#2563eb"/>
  <circle cx="834.60" cy="298.89" r="2.5" fill="#2563eb"/>
  <circle cx="836.23" cy="247.78" r="2.5" fill="#2563eb"/>
  <circle cx="837.86" cy="298.89" r="2.5" fill="#2563eb"/>
  <circle cx="839.50" cy="298.89" r="2.5" fill="#2563eb"/>
  <circle cx="841.13" cy="298.85" r="2.5" fill="#2563eb"/>
  <circle cx="842.76" cy="298.85" r="2.5" fill="#2563eb"/>
  <circle cx="844.40" cy="298.81" r="2.5" fill="#2563eb"/>
  <circle cx="846.03" cy="298.81" r="2.5" fill="#2563eb"/>
  <circle cx="847.67" cy="298.81" r="2.5" fill="#2563eb"/>
  <circle cx="849.30" cy="298.81" r="2.5" fill="#2563eb"/>
  <circle cx="850.93" cy="298.81" r="2.5" fill="#2563eb"/>
  <circle cx="852.57" cy="298.81" r="2.5" fill="#2563eb"/>
  <circle cx="854.20" cy="298.81" r="2.5" fill="#2563eb"/>
  <circle cx="855.83" cy="298.81" r="2.5" fill="#2563eb"/>
  <circle cx="857.47" cy="298.81" r="2.5" fill="#2563eb"/>
  <circle cx="859.10" cy="298.72" r="2.5" fill="#2563eb"/>
  <circle cx="860.74" cy="247.45" r="2.5" fill="#2563eb"/>
  <circle cx="862.37" cy="247.45" r="2.5" fill="#2563eb"/>
  <circle cx="864.00" cy="298.72" r="2.5" fill="#2563eb"/>
  <circle cx="865.64" cy="298.72" r="2.5" fill="#2563eb"/>
  <circle cx="867.27" cy="298.72" r="2.5" fill="#2563eb"/>
  <circle cx="868.90" cy="298.72" r="2.5" fill="#2563eb"/>
  <circle cx="870.54" cy="298.72" r="2.5" fill="#2563eb"/>
  <circle cx="872.17" cy="298.72" r="2.5" fill="#2563eb"/>
  <circle cx="873.81" cy="247.36" r="2.5" fill="#2563eb"/>
  <circle cx="875.44" cy="298.68" r="2.5" fill="#2563eb"/>
  <circle cx="877.07" cy="247.36" r="2.5" fill="#2563eb"/>
  <circle cx="878.71" cy="247.36" r="2.5" fill="#2563eb"/>
  <circle cx="880.34" cy="247.36" r="2.5" fill="#2563eb"/>
  <circle cx="881.97" cy="298.68" r="2.5" fill="#2563eb"/>
  <circle cx="883.61" cy="298.68" r="2.5" fill="#2563eb"/>
  <circle cx="885.24" cy="298.68" r="2.5" fill="#2563eb"/>
  <circle cx="886.88" cy="298.68" r="2.5" fill="#2563eb"/>
  <circle cx="888.51" cy="298.68" r="2.5" fill="#2563eb"/>
  <circle cx="890.14" cy="341.67" r="2.5" fill="#2563eb"/>
  <circle cx="891.78" cy="307.01" r="2.5" fill="#2563eb"/>
  <circle cx="893.41" cy="298.68" r="2.5" fill="#2563eb"/>
  <circle cx="895.04" cy="298.68" r="2.5" fill="#2563eb"/>
  <circle cx="896.68" cy="298.68" r="2.5" fill="#2563eb"/>
  <circle cx="898.31" cy="247.36" r="2.5" fill="#2563eb"/>
  <circle cx="899.95" cy="298.64" r="2.5" fill="#2563eb"/>
  <circle cx="901.58" cy="247.36" r="2.5" fill="#2563eb"/>
  <circle cx="903.21" cy="247.28" r="2.5" fill="#2563eb"/>
  <circle cx="904.85" cy="247.20" r="2.5" fill="#2563eb"/>
  <circle cx="906.48" cy="298.60" r="2.5" fill="#2563eb"/>
  <circle cx="908.11" cy="298.60" r="2.5" fill="#2563eb"/>
  <circle cx="909.75" cy="247.03" r="2.5" fill="#2563eb"/>
  <circle cx="911.38" cy="298.51" r="2.5" fill="#2563eb"/>
  <circle cx="913.02" cy="298.51" r="2.5" fill="#2563eb"/>
  <circle cx="914.65" cy="298.51" r="2.5" fill="#2563eb"/>
  <circle cx="916.28" cy="298.51" r="2.5" fill="#2563eb"/>
  <circle cx="917.92" cy="298.51" r="2.5" fill="#2563eb"/>
  <circle cx="919.55" cy="298.51" r="2.5" fill="#2563eb"/>
  <circle cx="921.18" cy="298.51" r="2.5" fill="#2563eb"/>
  <circle cx="922.82" cy="298.51" r="2.5" fill="#2563eb"/>
  <circle cx="924.45" cy="298.51" r="2.5" fill="#2563eb"/>
  <circle cx="926.09" cy="298.51" r="2.5" fill="#2563eb"/>
  <circle cx="927.72" cy="298.51" r="2.5" fill="#2563eb"/>
  <circle cx="929.35" cy="298.51" r="2.5" fill="#2563eb"/>
  <circle cx="930.99" cy="298.51" r="2.5" fill="#2563eb"/>
  <circle cx="932.62" cy="298.51" r="2.5" fill="#2563eb"/>
  <circle cx="934.25" cy="298.51" r="2.5" fill="#2563eb"/>
  <circle cx="935.89" cy="298.51" r="2.5" fill="#2563eb"/>
  <circle cx="937.52" cy="298.51" r="2.5" fill="#2563eb"/>
  <circle cx="939.16" cy="298.51" r="2.5" fill="#2563eb"/>
  <circle cx="940.79" cy="298.51" r="2.5" fill="#2563eb"/>
  <circle cx="942.42" cy="298.51" r="2.5" fill="#2563eb"/>
  <circle cx="944.06" cy="298.51" r="2.5" fill="#2563eb"/>
  <circle cx="945.69" cy="298.51" r="2.5" fill="#2563eb"/>
  <circle cx="947.32" cy="298.51" r="2.5" fill="#2563eb"/>
  <circle cx="948.96" cy="298.51" r="2.5" fill="#2563eb"/>
  <circle cx="950.59" cy="298.51" r="2.5" fill="#2563eb"/>
  <circle cx="952.23" cy="298.51" r="2.5" fill="#2563eb"/>
  <circle cx="953.86" cy="298.47" r="2.5" fill="#2563eb"/>
  <circle cx="955.49" cy="298.51" r="2.5" fill="#2563eb"/>
  <circle cx="957.13" cy="298.51" r="2.5" fill="#2563eb"/>
  <circle cx="958.76" cy="298.47" r="2.5" fill="#2563eb"/>
  <circle cx="960.39" cy="298.51" r="2.5" fill="#2563eb"/>
  <circle cx="962.03" cy="298.47" r="2.5" fill="#2563eb"/>
  <circle cx="963.66" cy="298.51" r="2.5" fill="#2563eb"/>
  <circle cx="965.30" cy="298.43" r="2.5" fill="#2563eb"/>
  <circle cx="966.93" cy="298.56" r="2.5" fill="#2563eb"/>
  <circle cx="968.56" cy="298.43" r="2.5" fill="#2563eb"/>
  <circle cx="970.20" cy="298.43" r="2.5" fill="#2563eb"/>
  <circle cx="971.83" cy="298.43" r="2.5" fill="#2563eb"/>
  <circle cx="973.46" cy="298.43" r="2.5" fill="#2563eb"/>
  <circle cx="975.10" cy="298.43" r="2.5" fill="#2563eb"/>
  <circle cx="976.73" cy="298.43" r="2.5" fill="#2563eb"/>
  <circle cx="978.37" cy="298.43" r="2.5" fill="#2563eb"/>
  <circle cx="980.00" cy="298.43" r="2.5" fill="#2563eb"/>
</svg>
