<?xml version="1.0" encoding="UTF-8"?>
<svg xmlns="http://www.w3.org/2000/svg" width="1000" height="420" viewBox="0 0 1000 420">
  <rect width="100%" height="100%" fill="#ffffff"/>
  <text x="70" y="28" font-size="20" font-weight="600">수집 시점 기준 - 시간별 스냅샷</text>
  <text x="70" y="402" font-size="12" fill="#555">스냅샷 수</text>
  <line x1="70" y1="350.00" x2="980" y2="350.00" stroke="#e5e7eb" stroke-width="1"/>
  <text x="62" y="354.00" font-size="11" fill="#6b7280" text-anchor="end">0</text>
  <line x1="70" y1="290.00" x2="980" y2="290.00" stroke="#e5e7eb" stroke-width="1"/>
  <text x="62" y="294.00" font-size="11" fill="#6b7280" text-anchor="end">1,440</text>
  <line x1="70" y1="230.00" x2="980" y2="230.00" stroke="#e5e7eb" stroke-width="1"/>
  <text x="62" y="234.00" font-size="11" fill="#6b7280" text-anchor="end">2,880</text>
  <line x1="70" y1="170.00" x2="980" y2="170.00" stroke="#e5e7eb" stroke-width="1"/>
  <text x="62" y="174.00" font-size="11" fill="#6b7280" text-anchor="end">4,321</text>
  <line x1="70" y1="110.00" x2="980" y2="110.00" stroke="#e5e7eb" stroke-width="1"/>
  <text x="62" y="114.00" font-size="11" fill="#6b7280" text-anchor="end">5,761</text>
  <line x1="70" y1="50.00" x2="980" y2="50.00" stroke="#e5e7eb" stroke-width="1"/>
  <text x="62" y="54.00" font-size="11" fill="#6b7280" text-anchor="end">7,202</text>
  <line x1="70" y1="350" x2="980" y2="350" stroke="#111827" stroke-width="1.2"/>
  <line x1="70" y1="50" x2="70" y2="350" stroke="#111827" stroke-width="1.2"/>
  <line x1="70.00" y1="350" x2="70.00" y2="356" stroke="#9ca3af" stroke-width="1"/>
  <text x="70.00" y="372" font-size="10" fill="#6b7280" text-anchor="middle">2026-02-28 18</text>
  <line x1="145.83" y1="350" x2="145.83" y2="356" stroke="#9ca3af" stroke-width="1"/>
  <text x="145.83" y="372" font-size="10" fill="#6b7280" text-anchor="middle">2026-03-08 14</text>
  <line x1="221.67" y1="350" x2="221.67" y2="356" stroke="#9ca3af" stroke-width="1"/>
  <text x="221.67" y="372" font-size="10" fill="#6b7280" text-anchor="middle">2026-03-10 03</text>
  <line x1="297.50" y1="350" x2="297.50" y2="356" stroke="#9ca3af" stroke-width="1"/>
  <text x="297.50" y="372" font-size="10" fill="#6b7280" text-anchor="middle">2026-03-11 18</text>
  <line x1="373.33" y1="350" x2="373.33" y2="356" stroke="#9ca3af" stroke-width="1"/>
  <text x="373.33" y="372" font-size="10" fill="#6b7280" text-anchor="middle">2026-03-13 07</text>
  <line x1="449.17" y1="350" x2="449.17" y2="356" stroke="#9ca3af" stroke-width="1"/>
  <text x="449.17" y="372" font-size="10" fill="#6b7280" text-anchor="middle">2026-03-15 02</text>
  <line x1="525.00" y1="350" x2="525.00" y2="356" stroke="#9ca3af" stroke-width="1"/>
  <text x="525.00" y="372" font-size="10" fill="#6b7280" text-anchor="middle">2026-03-17 08</text>
  <line x1="600.83" y1="350" x2="600.83" y2="356" stroke="#9ca3af" stroke-width="1"/>
  <text x="600.83" y="372" font-size="10" fill="#6b7280" text-anchor="middle">2026-03-19 18</text>
  <line x1="676.67" y1="350" x2="676.67" y2="356" stroke="#9ca3af" stroke-width="1"/>
  <text x="676.67" y="372" font-size="10" fill="#6b7280" text-anchor="middle">2026-03-21 18</text>
  <line x1="752.50" y1="350" x2="752.50" y2="356" stroke="#9ca3af" stroke-width="1"/>
  <text x="752.50" y="372" font-size="10" fill="#6b7280" text-anchor="middle">2026-03-23 20</text>
  <line x1="828.33" y1="350" x2="828.33" y2="356" stroke="#9ca3af" stroke-width="1"/>
  <text x="828.33" y="372" font-size="10" fill="#6b7280" text-anchor="middle">2026-03-26 04</text>
  <line x1="904.17" y1="350" x2="904.17" y2="356" stroke="#9ca3af" stroke-width="1"/>
  <text x="904.17" y="372" font-size="10" fill="#6b7280" text-anchor="middle">2026-03-28 15</text>
  <line x1="980.00" y1="350" x2="980.00" y2="356" stroke="#9ca3af" stroke-width="1"/>
  <text x="980.00" y="372" font-size="10" fill="#6b7280" text-anchor="middle">2026-03-31 00</text>
  <polyline fill="none" stroke="#2563eb" stroke-width="2.5" points="70.00,50.00 72.17,50.12 74.33,50.17 76.50,50.46 78.67,50.00 80.83,266.90 83.00,50.12 85.17,50.08 87.33,177.46 89.50,211.58 91.67,175.34 93.83,304.14 96.00,200.46 98.17,250.94 100.33,300.01 102.50,300.06 104.67,300.01 106.83,300.01 109.00,348.00 111.17,300.01 113.33,249.99 115.50,200.00 117.67,249.99 119.83,249.99 122.00,250.03 124.17,250.03 126.33,250.03 128.50,250.40 130.67,250.90 132.83,250.90 135.00,251.32 137.17,249.94 139.33,300.01 141.50,299.93 143.67,251.03 145.83,300.68 148.00,250.03 150.17,200.00 152.33,249.99 154.50,250.03 156.67,250.03 158.83,250.03 161.00,300.01 163.17,200.04 165.33,250.03 167.50,250.03 169.67,250.03 171.83,249.90 174.00,250.03 176.17,250.03 178.33,250.94 180.50,250.44 182.67,250.03 184.83,250.03 187.00,300.47 189.17,300.01 191.33,300.43 193.50,250.03 195.67,249.99 197.83,300.43 200.00,249.90 202.17,249.99 204.33,249.99 206.50,200.04 208.67,300.01 210.83,300.01 213.00,300.01 215.17,249.90 217.33,300.01 219.50,250.03 221.67,249.99 223.83,199.96 226.00,300.01 228.17,200.00 230.33,250.36 232.50,250.03 234.67,300.01 236.83,300.01 239.00,250.44 241.17,300.01 243.33,250.03 245.50,250.03 247.67,249.99 249.83,250.49 252.00,250.03 254.17,200.04 256.33,300.01 258.50,250.03 260.67,300.01 262.83,250.11 265.00,300.01 267.17,250.03 269.33,250.03 271.50,199.92 273.67,250.03 275.83,250.03 278.00,250.03 280.17,254.36 282.33,300.01 284.50,299.97 286.67,250.36 288.83,299.97 291.00,250.03 293.17,250.03 295.33,250.03 297.50,250.03 299.67,249.99 301.83,200.00 304.00,299.93 306.17,300.01 308.33,299.97 310.50,249.94 312.67,249.99 314.83,249.82 317.00,249.94 319.17,250.28 321.33,207.00 323.50,250.03 325.67,250.32 327.83,250.40 330.00,300.93 332.17,300.01 334.33,300.10 336.50,249.94 338.67,249.99 340.83,250.07 343.00,249.99 345.17,250.03 347.33,249.94 349.50,200.00 351.67,300.39 353.83,300.01 356.00,300.01 358.17,250.44 360.33,300.39 362.50,249.86 364.67,250.11 366.83,201.46 369.00,300.01 371.17,200.83 373.33,250.03 375.50,249.99 377.67,300.26 379.83,300.01 382.00,300.01 384.17,250.03 386.33,250.03 388.50,250.03 390.67,250.03 392.83,249.99 395.00,250.03 397.17,200.00 399.33,300.26 401.50,249.99 403.67,300.01 405.83,249.94 408.00,250.03 410.17,250.03 412.33,250.03 414.50,200.04 416.67,300.01 418.83,249.90 421.00,300.01 423.17,300.01 425.33,300.06 427.50,300.01 429.67,300.01 431.83,243.95 434.00,249.94 436.17,299.97 438.33,300.01 440.50,300.01 442.67,250.03 444.83,300.01 447.00,300.01 449.17,299.97 451.33,249.99 453.50,300.01 455.67,299.93 457.83,300.01 460.00,299.93 462.17,300.01 464.33,300.01 466.50,299.89 468.67,299.97 470.83,250.03 473.00,299.93 475.17,299.89 477.33,299.97 479.50,249.94 481.67,300.01 483.83,300.01 486.00,299.97 488.17,249.99 490.33,299.97 492.50,299.97 494.67,300.06 496.83,300.06 499.00,299.93 501.17,300.01 503.33,300.01 505.50,299.93 507.67,300.01 509.83,300.01 512.00,299.97 514.17,300.01 516.33,300.01 518.50,300.01 520.67,300.01 522.83,249.86 525.00,300.01 527.17,300.10 529.33,299.93 531.50,300.01 533.67,299.93 535.83,300.01 538.00,300.01 540.17,300.01 542.33,300.01 544.50,300.01 546.67,299.97 548.83,300.01 551.00,300.01 553.17,300.01 555.33,300.01 557.50,250.03 559.67,300.01 561.83,300.01 564.00,299.97 566.17,300.01 568.33,300.01 570.50,299.97 572.67,299.97 574.83,300.01 577.00,299.97 579.17,300.01 581.33,299.93 583.50,300.01 585.67,250.03 587.83,300.01 590.00,300.01 592.17,300.01 594.33,300.01 596.50,300.01 598.67,299.89 600.83,300.01 603.00,300.01 605.17,250.07 607.33,300.01 609.50,299.93 611.67,300.01 613.83,299.97 616.00,299.97 618.17,299.97 620.33,250.03 622.50,300.01 624.67,300.01 626.83,300.01 629.00,300.01 631.17,299.97 633.33,300.01 635.50,299.97 637.67,300.01 639.83,299.97 642.00,249.90 644.17,300.01 646.33,300.01 648.50,299.89 650.67,299.97 652.83,299.97 655.00,249.99 657.17,299.97 659.33,299.89 661.50,300.01 663.67,299.97 665.83,299.97 668.00,300.01 670.17,299.97 672.33,249.99 674.50,299.97 676.67,299.97 678.83,300.06 681.00,300.06 683.17,249.94 685.33,300.01 687.50,299.93 689.67,300.01 691.83,300.01 694.00,249.99 696.17,300.01 698.33,300.01 700.50,300.01 702.67,299.93 704.83,299.93 707.00,300.01 709.17,300.01 711.33,249.94 713.50,299.97 715.67,299.97 717.83,300.01 720.00,300.01 722.17,300.01 724.33,249.99 726.50,300.01 728.67,300.01 730.83,300.01 733.00,250.03 735.17,300.01 737.33,300.01 739.50,300.01 741.67,299.97 743.83,300.01 746.00,300.01 748.17,299.97 750.33,299.97 752.50,300.01 754.67,300.01 756.83,299.97 759.00,299.93 761.17,300.01 763.33,300.06 765.50,299.97 767.67,300.01 769.83,250.03 772.00,250.03 774.17,299.93 776.33,299.97 778.50,300.01 780.67,300.01 782.83,300.06 785.00,300.01 787.17,299.93 789.33,300.01 791.50,300.01 793.67,299.97 795.83,299.97 798.00,300.01 800.17,250.03 802.33,300.01 804.50,300.01 806.67,300.01 808.83,299.97 811.00,300.01 813.17,299.97 815.33,300.01 817.50,299.97 819.67,299.97 821.83,299.93 824.00,300.01 826.17,300.01 828.33,299.89 830.50,299.97 832.67,299.97 834.83,300.06 837.00,249.90 839.17,299.89 841.33,300.01 843.50,299.97 845.67,299.97 847.83,299.97 850.00,300.01 852.17,300.01 854.33,299.97 856.50,299.97 858.67,299.97 860.83,250.03 863.00,299.93 865.17,300.01 867.33,300.01 869.50,299.93 871.67,300.01 873.83,300.01 876.00,299.97 878.17,300.01 880.33,300.01 882.50,300.06 884.67,300.01 886.83,299.97 889.00,299.89 891.17,300.01 893.33,300.01 895.50,249.94 897.67,249.94 899.83,300.01 902.00,300.01 904.17,300.01 906.33,300.01 908.50,299.97 910.67,250.03 912.83,300.01 915.00,300.01 917.17,300.01 919.33,300.01 921.50,250.03 923.67,249.99 925.83,300.01 928.00,299.97 930.17,300.01 932.33,299.97 934.50,300.01 936.67,299.97 938.83,299.97 941.00,299.97 943.17,300.06 945.33,249.99 947.50,300.01 949.67,250.03 951.83,249.94 954.00,249.99 956.17,300.01 958.33,300.06 960.50,300.01 962.67,299.97 964.83,299.97 967.00,300.01 969.17,299.93 971.33,299.89 973.50,299.89 975.67,299.89 977.83,299.89 980.00,299.85"/>
  <circle cx="70.00" cy="50.00" r="2.5" fill="#2563eb"/>
  <circle cx="72.17" cy="50.12" r="2.5" fill="#2563eb"/>
  <circle cx="74.33" cy="50.17" r="2.5" fill="#2563eb"/>
  <circle cx="76.50" cy="50.46" r="2.5" fill="#2563eb"/>
  <circle cx="78.67" cy="50.00" r="2.5" fill="#2563eb"/>
  <circle cx="80.83" cy="266.90" r="2.5" fill="#2563eb"/>
  <circle cx="83.00" cy="50.12" r="2.5" fill="#2563eb"/>
  <circle cx="85.17" cy="50.08" r="2.5" fill="#2563eb"/>
  <circle cx="87.33" cy="177.46" r="2.5" fill="#2563eb"/>
  <circle cx="89.50" cy="211.58" r="2.5" fill="#2563eb"/>
  <circle cx="91.67" cy="175.34" r="2.5" fill="#2563eb"/>
  <circle cx="93.83" cy="304.14" r="2.5" fill="#2563eb"/>
  <circle cx="96.00" cy="200.46" r="2.5" fill="#2563eb"/>
  <circle cx="98.17" cy="250.94" r="2.5" fill="#2563eb"/>
  <circle cx="100.33" cy="300.01" r="2.5" fill="#2563eb"/>
  <circle cx="102.50" cy="300.06" r="2.5" fill="#2563eb"/>
  <circle cx="104.67" cy="300.01" r="2.5" fill="#2563eb"/>
  <circle cx="106.83" cy="300.01" r="2.5" fill="#2563eb"/>
  <circle cx="109.00" cy="348.00" r="2.5" fill="#2563eb"/>
  <circle cx="111.17" cy="300.01" r="2.5" fill="#2563eb"/>
  <circle cx="113.33" cy="249.99" r="2.5" fill="#2563eb"/>
  <circle cx="115.50" cy="200.00" r="2.5" fill="#2563eb"/>
  <circle cx="117.67" cy="249.99" r="2.5" fill="#2563eb"/>
  <circle cx="119.83" cy="249.99" r="2.5" fill="#2563eb"/>
  <circle cx="122.00" cy="250.03" r="2.5" fill="#2563eb"/>
  <circle cx="124.17" cy="250.03" r="2.5" fill="#2563eb"/>
  <circle cx="126.33" cy="250.03" r="2.5" fill="#2563eb"/>
  <circle cx="128.50" cy="250.40" r="2.5" fill="#2563eb"/>
  <circle cx="130.67" cy="250.90" r="2.5" fill="#2563eb"/>
  <circle cx="132.83" cy="250.90" r="2.5" fill="#2563eb"/>
  <circle cx="135.00" cy="251.32" r="2.5" fill="#2563eb"/>
  <circle cx="137.17" cy="249.94" r="2.5" fill="#2563eb"/>
  <circle cx="139.33" cy="300.01" r="2.5" fill="#2563eb"/>
  <circle cx="141.50" cy="299.93" r="2.5" fill="#2563eb"/>
  <circle cx="143.67" cy="251.03" r="2.5" fill="#2563eb"/>
  <circle cx="145.83" cy="300.68" r="2.5" fill="#2563eb"/>
  <circle cx="148.00" cy="250.03" r="2.5" fill="#2563eb"/>
  <circle cx="150.17" cy="200.00" r="2.5" fill="#2563eb"/>
  <circle cx="152.33" cy="249.99" r="2.5" fill="#2563eb"/>
  <circle cx="154.50" cy="250.03" r="2.5" fill="#2563eb"/>
  <circle cx="156.67" cy="250.03" r="2.5" fill="#2563eb"/>
  <circle cx="158.83" cy="250.03" r="2.5" fill="#2563eb"/>
  <circle cx="161.00" cy="300.01" r="2.5" fill="#2563eb"/>
  <circle cx="163.17" cy="200.04" r="2.5" fill="#2563eb"/>
  <circle cx="165.33" cy="250.03" r="2.5" fill="#2563eb"/>
  <circle cx="167.50" cy="250.03" r="2.5" fill="#2563eb"/>
  <circle cx="169.67" cy="250.03" r="2.5" fill="#2563eb"/>
  <circle cx="171.83" cy="249.90" r="2.5" fill="#2563eb"/>
  <circle cx="174.00" cy="250.03" r="2.5" fill="#2563eb"/>
  <circle cx="176.17" cy="250.03" r="2.5" fill="#2563eb"/>
  <circle cx="178.33" cy="250.94" r="2.5" fill="#2563eb"/>
  <circle cx="180.50" cy="250.44" r="2.5" fill="#2563eb"/>
  <circle cx="182.67" cy="250.03" r="2.5" fill="#2563eb"/>
  <circle cx="184.83" cy="250.03" r="2.5" fill="#2563eb"/>
  <circle cx="187.00" cy="300.47" r="2.5" fill="#2563eb"/>
  <circle cx="189.17" cy="300.01" r="2.5" fill="#2563eb"/>
  <circle cx="191.33" cy="300.43" r="2.5" fill="#2563eb"/>
  <circle cx="193.50" cy="250.03" r="2.5" fill="#2563eb"/>
  <circle cx="195.67" cy="249.99" r="2.5" fill="#2563eb"/>
  <circle cx="197.83" cy="300.43" r="2.5" fill="#2563eb"/>
  <circle cx="200.00" cy="249.90" r="2.5" fill="#2563eb"/>
  <circle cx="202.17" cy="249.99" r="2.5" fill="#2563eb"/>
  <circle cx="204.33" cy="249.99" r="2.5" fill="#2563eb"/>
  <circle cx="206.50" cy="200.04" r="2.5" fill="#2563eb"/>
  <circle cx="208.67" cy="300.01" r="2.5" fill="#2563eb"/>
  <circle cx="210.83" cy="300.01" r="2.5" fill="#2563eb"/>
  <circle cx="213.00" cy="300.01" r="2.5" fill="#2563eb"/>
  <circle cx="215.17" cy="249.90" r="2.5" fill="#2563eb"/>
  <circle cx="217.33" cy="300.01" r="2.5" fill="#2563eb"/>
  <circle cx="219.50" cy="250.03" r="2.5" fill="#2563eb"/>
  <circle cx="221.67" cy="249.99" r="2.5" fill="#2563eb"/>
  <circle cx="223.83" cy="199.96" r="2.5" fill="#2563eb"/>
  <circle cx="226.00" cy="300.01" r="2.5" fill="#2563eb"/>
  <circle cx="228.17" cy="200.00" r="2.5" fill="#2563eb"/>
  <circle cx="230.33" cy="250.36" r="2.5" fill="#2563eb"/>
  <circle cx="232.50" cy="250.03" r="2.5" fill="#2563eb"/>
  <circle cx="234.67" cy="300.01" r="2.5" fill="#2563eb"/>
  <circle cx="236.83" cy="300.01" r="2.5" fill="#2563eb"/>
  <circle cx="239.00" cy="250.44" r="2.5" fill="#2563eb"/>
  <circle cx="241.17" cy="300.01" r="2.5" fill="#2563eb"/>
  <circle cx="243.33" cy="250.03" r="2.5" fill="#2563eb"/>
  <circle cx="245.50" cy="250.03" r="2.5" fill="#2563eb"/>
  <circle cx="247.67" cy="249.99" r="2.5" fill="#2563eb"/>
  <circle cx="249.83" cy="250.49" r="2.5" fill="#2563eb"/>
  <circle cx="252.00" cy="250.03" r="2.5" fill="#2563eb"/>
  <circle cx="254.17" cy="200.04" r="2.5" fill="#2563eb"/>
  <circle cx="256.33" cy="300.01" r="2.5" fill="#2563eb"/>
  <circle cx="258.50" cy="250.03" r="2.5" fill="#2563eb"/>
  <circle cx="260.67" cy="300.01" r="2.5" fill="#2563eb"/>
  <circle cx="262.83" cy="250.11" r="2.5" fill="#2563eb"/>
  <circle cx="265.00" cy="300.01" r="2.5" fill="#2563eb"/>
  <circle cx="267.17" cy="250.03" r="2.5" fill="#2563eb"/>
  <circle cx="269.33" cy="250.03" r="2.5" fill="#2563eb"/>
  <circle cx="271.50" cy="199.92" r="2.5" fill="#2563eb"/>
  <circle cx="273.67" cy="250.03" r="2.5" fill="#2563eb"/>
  <circle cx="275.83" cy="250.03" r="2.5" fill="#2563eb"/>
  <circle cx="278.00" cy="250.03" r="2.5" fill="#2563eb"/>
  <circle cx="280.17" cy="254.36" r="2.5" fill="#2563eb"/>
  <circle cx="282.33" cy="300.01" r="2.5" fill="#2563eb"/>
  <circle cx="284.50" cy="299.97" r="2.5" fill="#2563eb"/>
  <circle cx="286.67" cy="250.36" r="2.5" fill="#2563eb"/>
  <circle cx="288.83" cy="299.97" r="2.5" fill="#2563eb"/>
  <circle cx="291.00" cy="250.03" r="2.5" fill="#2563eb"/>
  <circle cx="293.17" cy="250.03" r="2.5" fill="#2563eb"/>
  <circle cx="295.33" cy="250.03" r="2.5" fill="#2563eb"/>
  <circle cx="297.50" cy="250.03" r="2.5" fill="#2563eb"/>
  <circle cx="299.67" cy="249.99" r="2.5" fill="#2563eb"/>
  <circle cx="301.83" cy="200.00" r="2.5" fill="#2563eb"/>
  <circle cx="304.00" cy="299.93" r="2.5" fill="#2563eb"/>
  <circle cx="306.17" cy="300.01" r="2.5" fill="#2563eb"/>
  <circle cx="308.33" cy="299.97" r="2.5" fill="#2563eb"/>
  <circle cx="310.50" cy="249.94" r="2.5" fill="#2563eb"/>
  <circle cx="312.67" cy="249.99" r="2.5" fill="#2563eb"/>
  <circle cx="314.83" cy="249.82" r="2.5" fill="#2563eb"/>
  <circle cx="317.00" cy="249.94" r="2.5" fill="#2563eb"/>
  <circle cx="319.17" cy="250.28" r="2.5" fill="#2563eb"/>
  <circle cx="321.33" cy="207.00" r="2.5" fill="#2563eb"/>
  <circle cx="323.50" cy="250.03" r="2.5" fill="#2563eb"/>
  <circle cx="325.67" cy="250.32" r="2.5" fill="#2563eb"/>
  <circle cx="327.83" cy="250.40" r="2.5" fill="#2563eb"/>
  <circle cx="330.00" cy="300.93" r="2.5" fill="#2563eb"/>
  <circle cx="332.17" cy="300.01" r="2.5" fill="#2563eb"/>
  <circle cx="334.33" cy="300.10" r="2.5" fill="#2563eb"/>
  <circle cx="336.50" cy="249.94" r="2.5" fill="#2563eb"/>
  <circle cx="338.67" cy="249.99" r="2.5" fill="#2563eb"/>
  <circle cx="340.83" cy="250.07" r="2.5" fill="#2563eb"/>
  <circle cx="343.00" cy="249.99" r="2.5" fill="#2563eb"/>
  <circle cx="345.17" cy="250.03" r="2.5" fill="#2563eb"/>
  <circle cx="347.33" cy="249.94" r="2.5" fill="#2563eb"/>
  <circle cx="349.50" cy="200.00" r="2.5" fill="#2563eb"/>
  <circle cx="351.67" cy="300.39" r="2.5" fill="#2563eb"/>
  <circle cx="353.83" cy="300.01" r="2.5" fill="#2563eb"/>
  <circle cx="356.00" cy="300.01" r="2.5" fill="#2563eb"/>
  <circle cx="358.17" cy="250.44" r="2.5" fill="#2563eb"/>
  <circle cx="360.33" cy="300.39" r="2.5" fill="#2563eb"/>
  <circle cx="362.50" cy="249.86" r="2.5" fill="#2563eb"/>
  <circle cx="364.67" cy="250.11" r="2.5" fill="#2563eb"/>
  <circle cx="366.83" cy="201.46" r="2.5" fill="#2563eb"/>
  <circle cx="369.00" cy="300.01" r="2.5" fill="#2563eb"/>
  <circle cx="371.17" cy="200.83" r="2.5" fill="#2563eb"/>
  <circle cx="373.33" cy="250.03" r="2.5" fill="#2563eb"/>
  <circle cx="375.50" cy="249.99" r="2.5" fill="#2563eb"/>
  <circle cx="377.67" cy="300.26" r="2.5" fill="#2563eb"/>
  <circle cx="379.83" cy="300.01" r="2.5" fill="#2563eb"/>
  <circle cx="382.00" cy="300.01" r="2.5" fill="#2563eb"/>
  <circle cx="384.17" cy="250.03" r="2.5" fill="#2563eb"/>
  <circle cx="386.33" cy="250.03" r="2.5" fill="#2563eb"/>
  <circle cx="388.50" cy="250.03" r="2.5" fill="#2563eb"/>
  <circle cx="390.67" cy="250.03" r="2.5" fill="#2563eb"/>
  <circle cx="392.83" cy="249.99" r="2.5" fill="#2563eb"/>
  <circle cx="395.00" cy="250.03" r="2.5" fill="#2563eb"/>
  <circle cx="397.17" cy="200.00" r="2.5" fill="#2563eb"/>
  <circle cx="399.33" cy="300.26" r="2.5" fill="#2563eb"/>
  <circle cx="401.50" cy="249.99" r="2.5" fill="#2563eb"/>
  <circle cx="403.67" cy="300.01" r="2.5" fill="#2563eb"/>
  <circle cx="405.83" cy="249.94" r="2.5" fill="#2563eb"/>
  <circle cx="408.00" cy="250.03" r="2.5" fill="#2563eb"/>
  <circle cx="410.17" cy="250.03" r="2.5" fill="#2563eb"/>
  <circle cx="412.33" cy="250.03" r="2.5" fill="#2563eb"/>
  <circle cx="414.50" cy="200.04" r="2.5" fill="#2563eb"/>
  <circle cx="416.67" cy="300.01" r="2.5" fill="#2563eb"/>
  <circle cx="418.83" cy="249.90" r="2.5" fill="#2563eb"/>
  <circle cx="421.00" cy="300.01" r="2.5" fill="#2563eb"/>
  <circle cx="423.17" cy="300.01" r="2.5" fill="#2563eb"/>
  <circle cx="425.33" cy="300.06" r="2.5" fill="#2563eb"/>
  <circle cx="427.50" cy="300.01" r="2.5" fill="#2563eb"/>
  <circle cx="429.67" cy="300.01" r="2.5" fill="#2563eb"/>
  <circle cx="431.83" cy="243.95" r="2.5" fill="#2563eb"/>
  <circle cx="434.00" cy="249.94" r="2.5" fill="#2563eb"/>
  <circle cx="436.17" cy="299.97" r="2.5" fill="#2563eb"/>
  <circle cx="438.33" cy="300.01" r="2.5" fill="#2563eb"/>
  <circle cx="440.50" cy="300.01" r="2.5" fill="#2563eb"/>
  <circle cx="442.67" cy="250.03" r="2.5" fill="#2563eb"/>
  <circle cx="444.83" cy="300.01" r="2.5" fill="#2563eb"/>
  <circle cx="447.00" cy="300.01" r="2.5" fill="#2563eb"/>
  <circle cx="449.17" cy="299.97" r="2.5" fill="#2563eb"/>
  <circle cx="451.33" cy="249.99" r="2.5" fill="#2563eb"/>
  <circle cx="453.50" cy="300.01" r="2.5" fill="#2563eb"/>
  <circle cx="455.67" cy="299.93" r="2.5" fill="#2563eb"/>
  <circle cx="457.83" cy="300.01" r="2.5" fill="#2563eb"/>
  <circle cx="460.00" cy="299.93" r="2.5" fill="#2563eb"/>
  <circle cx="462.17" cy="300.01" r="2.5" fill="#2563eb"/>
  <circle cx="464.33" cy="300.01" r="2.5" fill="#2563eb"/>
  <circle cx="466.50" cy="299.89" r="2.5" fill="#2563eb"/>
  <circle cx="468.67" cy="299.97" r="2.5" fill="#2563eb"/>
  <circle cx="470.83" cy="250.03" r="2.5" fill="#2563eb"/>
  <circle cx="473.00" cy="299.93" r="2.5" fill="#2563eb"/>
  <circle cx="475.17" cy="299.89" r="2.5" fill="#2563eb"/>
  <circle cx="477.33" cy="299.97" r="2.5" fill="#2563eb"/>
  <circle cx="479.50" cy="249.94" r="2.5" fill="#2563eb"/>
  <circle cx="481.67" cy="300.01" r="2.5" fill="#2563eb"/>
  <circle cx="483.83" cy="300.01" r="2.5" fill="#2563eb"/>
  <circle cx="486.00" cy="299.97" r="2.5" fill="#2563eb"/>
  <circle cx="488.17" cy="249.99" r="2.5" fill="#2563eb"/>
  <circle cx="490.33" cy="299.97" r="2.5" fill="#2563eb"/>
  <circle cx="492.50" cy="299.97" r="2.5" fill="#2563eb"/>
  <circle cx="494.67" cy="300.06" r="2.5" fill="#2563eb"/>
  <circle cx="496.83" cy="300.06" r="2.5" fill="#2563eb"/>
  <circle cx="499.00" cy="299.93" r="2.5" fill="#2563eb"/>
  <circle cx="501.17" cy="300.01" r="2.5" fill="#2563eb"/>
  <circle cx="503.33" cy="300.01" r="2.5" fill="#2563eb"/>
  <circle cx="505.50" cy="299.93" r="2.5" fill="#2563eb"/>
  <circle cx="507.67" cy="300.01" r="2.5" fill="#2563eb"/>
  <circle cx="509.83" cy="300.01" r="2.5" fill="#2563eb"/>
  <circle cx="512.00" cy="299.97" r="2.5" fill="#2563eb"/>
  <circle cx="514.17" cy="300.01" r="2.5" fill="#2563eb"/>
  <circle cx="516.33" cy="300.01" r="2.5" fill="#2563eb"/>
  <circle cx="518.50" cy="300.01" r="2.5" fill="#2563eb"/>
  <circle cx="520.67" cy="300.01" r="2.5" fill="#2563eb"/>
  <circle cx="522.83" cy="249.86" r="2.5" fill="#2563eb"/>
  <circle cx="525.00" cy="300.01" r="2.5" fill="#2563eb"/>
  <circle cx="527.17" cy="300.10" r="2.5" fill="#2563eb"/>
  <circle cx="529.33" cy="299.93" r="2.5" fill="#2563eb"/>
  <circle cx="531.50" cy="300.01" r="2.5" fill="#2563eb"/>
  <circle cx="533.67" cy="299.93" r="2.5" fill="#2563eb"/>
  <circle cx="535.83" cy="300.01" r="2.5" fill="#2563eb"/>
  <circle cx="538.00" cy="300.01" r="2.5" fill="#2563eb"/>
  <circle cx="540.17" cy="300.01" r="2.5" fill="#2563eb"/>
  <circle cx="542.33" cy="300.01" r="2.5" fill="#2563eb"/>
  <circle cx="544.50" cy="300.01" r="2.5" fill="#2563eb"/>
  <circle cx="546.67" cy="299.97" r="2.5" fill="#2563eb"/>
  <circle cx="548.83" cy="300.01" r="2.5" fill="#2563eb"/>
  <circle cx="551.00" cy="300.01" r="2.5" fill="#2563eb"/>
  <circle cx="553.17" cy="300.01" r="2.5" fill="#2563eb"/>
  <circle cx="555.33" cy="300.01" r="2.5" fill="#2563eb"/>
  <circle cx="557.50" cy="250.03" r="2.5" fill="#2563eb"/>
  <circle cx="559.67" cy="300.01" r="2.5" fill="#2563eb"/>
  <circle cx="561.83" cy="300.01" r="2.5" fill="#2563eb"/>
  <circle cx="564.00" cy="299.97" r="2.5" fill="#2563eb"/>
  <circle cx="566.17" cy="300.01" r="2.5" fill="#2563eb"/>
  <circle cx="568.33" cy="300.01" r="2.5" fill="#2563eb"/>
  <circle cx="570.50" cy="299.97" r="2.5" fill="#2563eb"/>
  <circle cx="572.67" cy="299.97" r="2.5" fill="#2563eb"/>
  <circle cx="574.83" cy="300.01" r="2.5" fill="#2563eb"/>
  <circle cx="577.00" cy="299.97" r="2.5" fill="#2563eb"/>
  <circle cx="579.17" cy="300.01" r="2.5" fill="#2563eb"/>
  <circle cx="581.33" cy="299.93" r="2.5" fill="#2563eb"/>
  <circle cx="583.50" cy="300.01" r="2.5" fill="#2563eb"/>
  <circle cx="585.67" cy="250.03" r="2.5" fill="#2563eb"/>
  <circle cx="587.83" cy="300.01" r="2.5" fill="#2563eb"/>
  <circle cx="590.00" cy="300.01" r="2.5" fill="#2563eb"/>
  <circle cx="592.17" cy="300.01" r="2.5" fill="#2563eb"/>
  <circle cx="594.33" cy="300.01" r="2.5" fill="#2563eb"/>
  <circle cx="596.50" cy="300.01" r="2.5" fill="#2563eb"/>
  <circle cx="598.67" cy="299.89" r="2.5" fill="#2563eb"/>
  <circle cx="600.83" cy="300.01" r="2.5" fill="#2563eb"/>
  <circle cx="603.00" cy="300.01" r="2.5" fill="#2563eb"/>
  <circle cx="605.17" cy="250.07" r="2.5" fill="#2563eb"/>
  <circle cx="607.33" cy="300.01" r="2.5" fill="#2563eb"/>
  <circle cx="609.50" cy="299.93" r="2.5" fill="#2563eb"/>
  <circle cx="611.67" cy="300.01" r="2.5" fill="#2563eb"/>
  <circle cx="613.83" cy="299.97" r="2.5" fill="#2563eb"/>
  <circle cx="616.00" cy="299.97" r="2.5" fill="#2563eb"/>
  <circle cx="618.17" cy="299.97" r="2.5" fill="#2563eb"/>
  <circle cx="620.33" cy="250.03" r="2.5" fill="#2563eb"/>
  <circle cx="622.50" cy="300.01" r="2.5" fill="#2563eb"/>
  <circle cx="624.67" cy="300.01" r="2.5" fill="#2563eb"/>
  <circle cx="626.83" cy="300.01" r="2.5" fill="#2563eb"/>
  <circle cx="629.00" cy="300.01" r="2.5" fill="#2563eb"/>
  <circle cx="631.17" cy="299.97" r="2.5" fill="#2563eb"/>
  <circle cx="633.33" cy="300.01" r="2.5" fill="#2563eb"/>
  <circle cx="635.50" cy="299.97" r="2.5" fill="#2563eb"/>
  <circle cx="637.67" cy="300.01" r="2.5" fill="#2563eb"/>
  <circle cx="639.83" cy="299.97" r="2.5" fill="#2563eb"/>
  <circle cx="642.00" cy="249.90" r="2.5" fill="#2563eb"/>
  <circle cx="644.17" cy="300.01" r="2.5" fill="#2563eb"/>
  <circle cx="646.33" cy="300.01" r="2.5" fill="#2563eb"/>
  <circle cx="648.50" cy="299.89" r="2.5" fill="#2563eb"/>
  <circle cx="650.67" cy="299.97" r="2.5" fill="#2563eb"/>
  <circle cx="652.83" cy="299.97" r="2.5" fill="#2563eb"/>
  <circle cx="655.00" cy="249.99" r="2.5" fill="#2563eb"/>
  <circle cx="657.17" cy="299.97" r="2.5" fill="#2563eb"/>
  <circle cx="659.33" cy="299.89" r="2.5" fill="#2563eb"/>
  <circle cx="661.50" cy="300.01" r="2.5" fill="#2563eb"/>
  <circle cx="663.67" cy="299.97" r="2.5" fill="#2563eb"/>
  <circle cx="665.83" cy="299.97" r="2.5" fill="#2563eb"/>
  <circle cx="668.00" cy="300.01" r="2.5" fill="#2563eb"/>
  <circle cx="670.17" cy="299.97" r="2.5" fill="#2563eb"/>
  <circle cx="672.33" cy="249.99" r="2.5" fill="#2563eb"/>
  <circle cx="674.50" cy="299.97" r="2.5" fill="#2563eb"/>
  <circle cx="676.67" cy="299.97" r="2.5" fill="#2563eb"/>
  <circle cx="678.83" cy="300.06" r="2.5" fill="#2563eb"/>
  <circle cx="681.00" cy="300.06" r="2.5" fill="#2563eb"/>
  <circle cx="683.17" cy="249.94" r="2.5" fill="#2563eb"/>
  <circle cx="685.33" cy="300.01" r="2.5" fill="#2563eb"/>
  <circle cx="687.50" cy="299.93" r="2.5" fill="#2563eb"/>
  <circle cx="689.67" cy="300.01" r="2.5" fill="#2563eb"/>
  <circle cx="691.83" cy="300.01" r="2.5" fill="#2563eb"/>
  <circle cx="694.00" cy="249.99" r="2.5" fill="#2563eb"/>
  <circle cx="696.17" cy="300.01" r="2.5" fill="#2563eb"/>
  <circle cx="698.33" cy="300.01" r="2.5" fill="#2563eb"/>
  <circle cx="700.50" cy="300.01" r="2.5" fill="#2563eb"/>
  <circle cx="702.67" cy="299.93" r="2.5" fill="#2563eb"/>
  <circle cx="704.83" cy="299.93" r="2.5" fill="#2563eb"/>
  <circle cx="707.00" cy="300.01" r="2.5" fill="#2563eb"/>
  <circle cx="709.17" cy="300.01" r="2.5" fill="#2563eb"/>
  <circle cx="711.33" cy="249.94" r="2.5" fill="#2563eb"/>
  <circle cx="713.50" cy="299.97" r="2.5" fill="#2563eb"/>
  <circle cx="715.67" cy="299.97" r="2.5" fill="#2563eb"/>
  <circle cx="717.83" cy="300.01" r="2.5" fill="#2563eb"/>
  <circle cx="720.00" cy="300.01" r="2.5" fill="#2563eb"/>
  <circle cx="722.17" cy="300.01" r="2.5" fill="#2563eb"/>
  <circle cx="724.33" cy="249.99" r="2.5" fill="#2563eb"/>
  <circle cx="726.50" cy="300.01" r="2.5" fill="#2563eb"/>
  <circle cx="728.67" cy="300.01" r="2.5" fill="#2563eb"/>
  <circle cx="730.83" cy="300.01" r="2.5" fill="#2563eb"/>
  <circle cx="733.00" cy="250.03" r="2.5" fill="#2563eb"/>
  <circle cx="735.17" cy="300.01" r="2.5" fill="#2563eb"/>
  <circle cx="737.33" cy="300.01" r="2.5" fill="#2563eb"/>
  <circle cx="739.50" cy="300.01" r="2.5" fill="#2563eb"/>
  <circle cx="741.67" cy="299.97" r="2.5" fill="#2563eb"/>
  <circle cx="743.83" cy="300.01" r="2.5" fill="#2563eb"/>
  <circle cx="746.00" cy="300.01" r="2.5" fill="#2563eb"/>
  <circle cx="748.17" cy="299.97" r="2.5" fill="#2563eb"/>
  <circle cx="750.33" cy="299.97" r="2.5" fill="#2563eb"/>
  <circle cx="752.50" cy="300.01" r="2.5" fill="#2563eb"/>
  <circle cx="754.67" cy="300.01" r="2.5" fill="#2563eb"/>
  <circle cx="756.83" cy="299.97" r="2.5" fill="#2563eb"/>
  <circle cx="759.00" cy="299.93" r="2.5" fill="#2563eb"/>
  <circle cx="761.17" cy="300.01" r="2.5" fill="#2563eb"/>
  <circle cx="763.33" cy="300.06" r="2.5" fill="#2563eb"/>
  <circle cx="765.50" cy="299.97" r="2.5" fill="#2563eb"/>
  <circle cx="767.67" cy="300.01" r="2.5" fill="#2563eb"/>
  <circle cx="769.83" cy="250.03" r="2.5" fill="#2563eb"/>
  <circle cx="772.00" cy="250.03" r="2.5" fill="#2563eb"/>
  <circle cx="774.17" cy="299.93" r="2.5" fill="#2563eb"/>
  <circle cx="776.33" cy="299.97" r="2.5" fill="#2563eb"/>
  <circle cx="778.50" cy="300.01" r="2.5" fill="#2563eb"/>
  <circle cx="780.67" cy="300.01" r="2.5" fill="#2563eb"/>
  <circle cx="782.83" cy="300.06" r="2.5" fill="#2563eb"/>
  <circle cx="785.00" cy="300.01" r="2.5" fill="#2563eb"/>
  <circle cx="787.17" cy="299.93" r="2.5" fill="#2563eb"/>
  <circle cx="789.33" cy="300.01" r="2.5" fill="#2563eb"/>
  <circle cx="791.50" cy="300.01" r="2.5" fill="#2563eb"/>
  <circle cx="793.67" cy="299.97" r="2.5" fill="#2563eb"/>
  <circle cx="795.83" cy="299.97" r="2.5" fill="#2563eb"/>
  <circle cx="798.00" cy="300.01" r="2.5" fill="#2563eb"/>
  <circle cx="800.17" cy="250.03" r="2.5" fill="#2563eb"/>
  <circle cx="802.33" cy="300.01" r="2.5" fill="#2563eb"/>
  <circle cx="804.50" cy="300.01" r="2.5" fill="#2563eb"/>
  <circle cx="806.67" cy="300.01" r="2.5" fill="#2563eb"/>
  <circle cx="808.83" cy="299.97" r="2.5" fill="#2563eb"/>
  <circle cx="811.00" cy="300.01" r="2.5" fill="#2563eb"/>
  <circle cx="813.17" cy="299.97" r="2.5" fill="#2563eb"/>
  <circle cx="815.33" cy="300.01" r="2.5" fill="#2563eb"/>
  <circle cx="817.50" cy="299.97" r="2.5" fill="#2563eb"/>
  <circle cx="819.67" cy="299.97" r="2.5" fill="#2563eb"/>
  <circle cx="821.83" cy="299.93" r="2.5" fill="#2563eb"/>
  <circle cx="824.00" cy="300.01" r="2.5" fill="#2563eb"/>
  <circle cx="826.17" cy="300.01" r="2.5" fill="#2563eb"/>
  <circle cx="828.33" cy="299.89" r="2.5" fill="#2563eb"/>
  <circle cx="830.50" cy="299.97" r="2.5" fill="#2563eb"/>
  <circle cx="832.67" cy="299.97" r="2.5" fill="#2563eb"/>
  <circle cx="834.83" cy="300.06" r="2.5" fill="#2563eb"/>
  <circle cx="837.00" cy="249.90" r="2.5" fill="#2563eb"/>
  <circle cx="839.17" cy="299.89" r="2.5" fill="#2563eb"/>
  <circle cx="841.33" cy="300.01" r="2.5" fill="#2563eb"/>
  <circle cx="843.50" cy="299.97" r="2.5" fill="#2563eb"/>
  <circle cx="845.67" cy="299.97" r="2.5" fill="#2563eb"/>
  <circle cx="847.83" cy="299.97" r="2.5" fill="#2563eb"/>
  <circle cx="850.00" cy="300.01" r="2.5" fill="#2563eb"/>
  <circle cx="852.17" cy="300.01" r="2.5" fill="#2563eb"/>
  <circle cx="854.33" cy="299.97" r="2.5" fill="#2563eb"/>
  <circle cx="856.50" cy="299.97" r="2.5" fill="#2563eb"/>
  <circle cx="858.67" cy="299.97" r="2.5" fill="#2563eb"/>
  <circle cx="860.83" cy="250.03" r="2.5" fill="#2563eb"/>
  <circle cx="863.00" cy="299.93" r="2.5" fill="#2563eb"/>
  <circle cx="865.17" cy="300.01" r="2.5" fill="#2563eb"/>
  <circle cx="867.33" cy="300.01" r="2.5" fill="#2563eb"/>
  <circle cx="869.50" cy="299.93" r="2.5" fill="#2563eb"/>
  <circle cx="871.67" cy="300.01" r="2.5" fill="#2563eb"/>
  <circle cx="873.83" cy="300.01" r="2.5" fill="#2563eb"/>
  <circle cx="876.00" cy="299.97" r="2.5" fill="#2563eb"/>
  <circle cx="878.17" cy="300.01" r="2.5" fill="#2563eb"/>
  <circle cx="880.33" cy="300.01" r="2.5" fill="#2563eb"/>
  <circle cx="882.50" cy="300.06" r="2.5" fill="#2563eb"/>
  <circle cx="884.67" cy="300.01" r="2.5" fill="#2563eb"/>
  <circle cx="886.83" cy="299.97" r="2.5" fill="#2563eb"/>
  <circle cx="889.00" cy="299.89" r="2.5" fill="#2563eb"/>
  <circle cx="891.17" cy="300.01" r="2.5" fill="#2563eb"/>
  <circle cx="893.33" cy="300.01" r="2.5" fill="#2563eb"/>
  <circle cx="895.50" cy="249.94" r="2.5" fill="#2563eb"/>
  <circle cx="897.67" cy="249.94" r="2.5" fill="#2563eb"/>
  <circle cx="899.83" cy="300.01" r="2.5" fill="#2563eb"/>
  <circle cx="902.00" cy="300.01" r="2.5" fill="#2563eb"/>
  <circle cx="904.17" cy="300.01" r="2.5" fill="#2563eb"/>
  <circle cx="906.33" cy="300.01" r="2.5" fill="#2563eb"/>
  <circle cx="908.50" cy="299.97" r="2.5" fill="#2563eb"/>
  <circle cx="910.67" cy="250.03" r="2.5" fill="#2563eb"/>
  <circle cx="912.83" cy="300.01" r="2.5" fill="#2563eb"/>
  <circle cx="915.00" cy="300.01" r="2.5" fill="#2563eb"/>
  <circle cx="917.17" cy="300.01" r="2.5" fill="#2563eb"/>
  <circle cx="919.33" cy="300.01" r="2.5" fill="#2563eb"/>
  <circle cx="921.50" cy="250.03" r="2.5" fill="#2563eb"/>
  <circle cx="923.67" cy="249.99" r="2.5" fill="#2563eb"/>
  <circle cx="925.83" cy="300.01" r="2.5" fill="#2563eb"/>
  <circle cx="928.00" cy="299.97" r="2.5" fill="#2563eb"/>
  <circle cx="930.17" cy="300.01" r="2.5" fill="#2563eb"/>
  <circle cx="932.33" cy="299.97" r="2.5" fill="#2563eb"/>
  <circle cx="934.50" cy="300.01" r="2.5" fill="#2563eb"/>
  <circle cx="936.67" cy="299.97" r="2.5" fill="#2563eb"/>
  <circle cx="938.83" cy="299.97" r="2.5" fill="#2563eb"/>
  <circle cx="941.00" cy="299.97" r="2.5" fill="#2563eb"/>
  <circle cx="943.17" cy="300.06" r="2.5" fill="#2563eb"/>
  <circle cx="945.33" cy="249.99" r="2.5" fill="#2563eb"/>
  <circle cx="947.50" cy="300.01" r="2.5" fill="#2563eb"/>
  <circle cx="949.67" cy="250.03" r="2.5" fill="#2563eb"/>
  <circle cx="951.83" cy="249.94" r="2.5" fill="#2563eb"/>
  <circle cx="954.00" cy="249.99" r="2.5" fill="#2563eb"/>
  <circle cx="956.17" cy="300.01" r="2.5" fill="#2563eb"/>
  <circle cx="958.33" cy="300.06" r="2.5" fill="#2563eb"/>
  <circle cx="960.50" cy="300.01" r="2.5" fill="#2563eb"/>
  <circle cx="962.67" cy="299.97" r="2.5" fill="#2563eb"/>
  <circle cx="964.83" cy="299.97" r="2.5" fill="#2563eb"/>
  <circle cx="967.00" cy="300.01" r="2.5" fill="#2563eb"/>
  <circle cx="969.17" cy="299.93" r="2.5" fill="#2563eb"/>
  <circle cx="971.33" cy="299.89" r="2.5" fill="#2563eb"/>
  <circle cx="973.50" cy="299.89" r="2.5" fill="#2563eb"/>
  <circle cx="975.67" cy="299.89" r="2.5" fill="#2563eb"/>
  <circle cx="977.83" cy="299.89" r="2.5" fill="#2563eb"/>
  <circle cx="980.00" cy="299.85" r="2.5" fill="#2563eb"/>
</svg>
