<?xml version="1.0" encoding="UTF-8"?>
<svg xmlns="http://www.w3.org/2000/svg" width="1000" height="420" viewBox="0 0 1000 420">
  <rect width="100%" height="100%" fill="#ffffff"/>
  <text x="70" y="28" font-size="20" font-weight="600">수집 시점 기준 - 시간별 스냅샷</text>
  <text x="70" y="402" font-size="12" fill="#555">스냅샷 수</text>
  <line x1="70" y1="350.00" x2="980" y2="350.00" stroke="#e5e7eb" stroke-width="1"/>
  <text x="62" y="354.00" font-size="11" fill="#6b7280" text-anchor="end">0</text>
  <line x1="70" y1="290.00" x2="980" y2="290.00" stroke="#e5e7eb" stroke-width="1"/>
  <text x="62" y="294.00" font-size="11" fill="#6b7280" text-anchor="end">1,440</text>
  <line x1="70" y1="230.00" x2="980" y2="230.00" stroke="#e5e7eb" stroke-width="1"/>
  <text x="62" y="234.00" font-size="11" fill="#6b7280" text-anchor="end">2,880</text>
  <line x1="70" y1="170.00" x2="980" y2="170.00" stroke="#e5e7eb" stroke-width="1"/>
  <text x="62" y="174.00" font-size="11" fill="#6b7280" text-anchor="end">4,321</text>
  <line x1="70" y1="110.00" x2="980" y2="110.00" stroke="#e5e7eb" stroke-width="1"/>
  <text x="62" y="114.00" font-size="11" fill="#6b7280" text-anchor="end">5,761</text>
  <line x1="70" y1="50.00" x2="980" y2="50.00" stroke="#e5e7eb" stroke-width="1"/>
  <text x="62" y="54.00" font-size="11" fill="#6b7280" text-anchor="end">7,202</text>
  <line x1="70" y1="350" x2="980" y2="350" stroke="#111827" stroke-width="1.2"/>
  <line x1="70" y1="50" x2="70" y2="350" stroke="#111827" stroke-width="1.2"/>
  <line x1="70.00" y1="350" x2="70.00" y2="356" stroke="#9ca3af" stroke-width="1"/>
  <text x="70.00" y="372" font-size="10" fill="#6b7280" text-anchor="middle">2026-02-28 18</text>
  <line x1="145.83" y1="350" x2="145.83" y2="356" stroke="#9ca3af" stroke-width="1"/>
  <text x="145.83" y="372" font-size="10" fill="#6b7280" text-anchor="middle">2026-03-09 02</text>
  <line x1="221.67" y1="350" x2="221.67" y2="356" stroke="#9ca3af" stroke-width="1"/>
  <text x="221.67" y="372" font-size="10" fill="#6b7280" text-anchor="middle">2026-03-11 05</text>
  <line x1="297.50" y1="350" x2="297.50" y2="356" stroke="#9ca3af" stroke-width="1"/>
  <text x="297.50" y="372" font-size="10" fill="#6b7280" text-anchor="middle">2026-03-13 08</text>
  <line x1="373.33" y1="350" x2="373.33" y2="356" stroke="#9ca3af" stroke-width="1"/>
  <text x="373.33" y="372" font-size="10" fill="#6b7280" text-anchor="middle">2026-03-15 22</text>
  <line x1="449.17" y1="350" x2="449.17" y2="356" stroke="#9ca3af" stroke-width="1"/>
  <text x="449.17" y="372" font-size="10" fill="#6b7280" text-anchor="middle">2026-03-19 02</text>
  <line x1="525.00" y1="350" x2="525.00" y2="356" stroke="#9ca3af" stroke-width="1"/>
  <text x="525.00" y="372" font-size="10" fill="#6b7280" text-anchor="middle">2026-03-21 20</text>
  <line x1="600.83" y1="350" x2="600.83" y2="356" stroke="#9ca3af" stroke-width="1"/>
  <text x="600.83" y="372" font-size="10" fill="#6b7280" text-anchor="middle">2026-03-24 18</text>
  <line x1="676.67" y1="350" x2="676.67" y2="356" stroke="#9ca3af" stroke-width="1"/>
  <text x="676.67" y="372" font-size="10" fill="#6b7280" text-anchor="middle">2026-03-28 00</text>
  <line x1="752.50" y1="350" x2="752.50" y2="356" stroke="#9ca3af" stroke-width="1"/>
  <text x="752.50" y="372" font-size="10" fill="#6b7280" text-anchor="middle">2026-03-31 05</text>
  <line x1="828.33" y1="350" x2="828.33" y2="356" stroke="#9ca3af" stroke-width="1"/>
  <text x="828.33" y="372" font-size="10" fill="#6b7280" text-anchor="middle">2026-04-03 12</text>
  <line x1="904.17" y1="350" x2="904.17" y2="356" stroke="#9ca3af" stroke-width="1"/>
  <text x="904.17" y="372" font-size="10" fill="#6b7280" text-anchor="middle">2026-04-06 17</text>
  <line x1="980.00" y1="350" x2="980.00" y2="356" stroke="#9ca3af" stroke-width="1"/>
  <text x="980.00" y="372" font-size="10" fill="#6b7280" text-anchor="middle">2026-04-10 01</text>
  <polyline fill="none" stroke="#2563eb" stroke-width="2.5" points="70.00,50.00 71.61,50.12 73.23,50.17 74.84,50.46 76.45,50.00 78.07,266.90 79.68,50.12 81.29,50.08 82.91,177.46 84.52,211.58 86.13,175.34 87.75,304.14 89.36,200.46 90.98,250.94 92.59,300.01 94.20,300.06 95.82,300.01 97.43,300.01 99.04,348.00 100.66,300.01 102.27,249.99 103.88,200.00 105.50,249.99 107.11,249.99 108.72,250.03 110.34,250.03 111.95,250.03 113.56,250.40 115.18,250.90 116.79,250.90 118.40,251.32 120.02,249.94 121.63,300.01 123.24,299.93 124.86,251.03 126.47,300.68 128.09,250.03 129.70,200.00 131.31,249.99 132.93,250.03 134.54,250.03 136.15,250.03 137.77,300.01 139.38,200.04 140.99,250.03 142.61,250.03 144.22,250.03 145.83,249.90 147.45,250.03 149.06,250.03 150.67,250.94 152.29,250.44 153.90,250.03 155.51,250.03 157.13,300.47 158.74,300.01 160.35,300.43 161.97,250.03 163.58,249.99 165.20,300.43 166.81,249.90 168.42,249.99 170.04,249.99 171.65,200.04 173.26,300.01 174.88,300.01 176.49,300.01 178.10,249.90 179.72,300.01 181.33,250.03 182.94,249.99 184.56,199.96 186.17,300.01 187.78,200.00 189.40,250.36 191.01,250.03 192.62,300.01 194.24,300.01 195.85,250.44 197.46,300.01 199.08,250.03 200.69,250.03 202.30,249.99 203.92,250.49 205.53,250.03 207.15,200.04 208.76,300.01 210.37,250.03 211.99,300.01 213.60,250.11 215.21,300.01 216.83,250.03 218.44,250.03 220.05,199.92 221.67,250.03 223.28,250.03 224.89,250.03 226.51,254.36 228.12,300.01 229.73,299.97 231.35,250.36 232.96,299.97 234.57,250.03 236.19,250.03 237.80,250.03 239.41,250.03 241.03,249.99 242.64,200.00 244.26,299.93 245.87,300.01 247.48,299.97 249.10,249.94 250.71,249.99 252.32,249.82 253.94,249.94 255.55,250.28 257.16,207.00 258.78,250.03 260.39,250.32 262.00,250.40 263.62,300.93 265.23,300.01 266.84,300.10 268.46,249.94 270.07,249.99 271.68,250.07 273.30,249.99 274.91,250.03 276.52,249.94 278.14,200.00 279.75,300.39 281.37,300.01 282.98,300.01 284.59,250.44 286.21,300.39 287.82,249.86 289.43,250.11 291.05,201.46 292.66,300.01 294.27,200.83 295.89,250.03 297.50,249.99 299.11,300.26 300.73,300.01 302.34,300.01 303.95,250.03 305.57,250.03 307.18,250.03 308.79,250.03 310.41,249.99 312.02,250.03 313.63,200.00 315.25,300.26 316.86,249.99 318.48,300.01 320.09,249.94 321.70,250.03 323.32,250.03 324.93,250.03 326.54,200.04 328.16,300.01 329.77,249.90 331.38,300.01 333.00,300.01 334.61,300.06 336.22,300.01 337.84,300.01 339.45,243.95 341.06,249.94 342.68,299.97 344.29,300.01 345.90,300.01 347.52,250.03 349.13,300.01 350.74,300.01 352.36,299.97 353.97,249.99 355.59,300.01 357.20,299.93 358.81,300.01 360.43,299.93 362.04,300.01 363.65,300.01 365.27,299.89 366.88,299.97 368.49,250.03 370.11,299.93 371.72,299.89 373.33,299.97 374.95,249.94 376.56,300.01 378.17,300.01 379.79,299.97 381.40,249.99 383.01,299.97 384.63,299.97 386.24,300.06 387.85,300.06 389.47,299.93 391.08,300.01 392.70,300.01 394.31,299.93 395.92,300.01 397.54,300.01 399.15,299.97 400.76,300.01 402.38,300.01 403.99,300.01 405.60,300.01 407.22,249.86 408.83,300.01 410.44,300.10 412.06,299.93 413.67,300.01 415.28,299.93 416.90,300.01 418.51,300.01 420.12,300.01 421.74,300.01 423.35,300.01 424.96,299.97 426.58,300.01 428.19,300.01 429.80,300.01 431.42,300.01 433.03,250.03 434.65,300.01 436.26,300.01 437.87,299.97 439.49,300.01 441.10,300.01 442.71,299.97 444.33,299.97 445.94,300.01 447.55,299.97 449.17,300.01 450.78,299.93 452.39,300.01 454.01,250.03 455.62,300.01 457.23,300.01 458.85,300.01 460.46,300.01 462.07,300.01 463.69,299.89 465.30,300.01 466.91,300.01 468.53,250.07 470.14,300.01 471.76,299.93 473.37,300.01 474.98,299.97 476.60,299.97 478.21,299.97 479.82,250.03 481.44,300.01 483.05,300.01 484.66,300.01 486.28,300.01 487.89,299.97 489.50,300.01 491.12,299.97 492.73,300.01 494.34,299.97 495.96,249.90 497.57,300.01 499.18,300.01 500.80,299.89 502.41,299.97 504.02,299.97 505.64,249.99 507.25,299.97 508.87,299.89 510.48,300.01 512.09,299.97 513.71,299.97 515.32,300.01 516.93,299.97 518.55,249.99 520.16,299.97 521.77,299.97 523.39,300.06 525.00,300.06 526.61,249.94 528.23,300.01 529.84,299.93 531.45,300.01 533.07,300.01 534.68,249.99 536.29,300.01 537.91,300.01 539.52,300.01 541.13,299.93 542.75,299.93 544.36,300.01 545.98,300.01 547.59,249.94 549.20,299.97 550.82,299.97 552.43,300.01 554.04,300.01 555.66,300.01 557.27,249.99 558.88,300.01 560.50,300.01 562.11,300.01 563.72,250.03 565.34,300.01 566.95,300.01 568.56,300.01 570.18,299.97 571.79,300.01 573.40,300.01 575.02,299.97 576.63,299.97 578.24,300.01 579.86,300.01 581.47,299.97 583.09,299.93 584.70,300.01 586.31,300.06 587.93,299.97 589.54,300.01 591.15,250.03 592.77,250.03 594.38,299.93 595.99,299.97 597.61,300.01 599.22,300.01 600.83,300.06 602.45,300.01 604.06,299.93 605.67,300.01 607.29,300.01 608.90,299.97 610.51,299.97 612.13,300.01 613.74,250.03 615.35,300.01 616.97,300.01 618.58,300.01 620.20,299.97 621.81,300.01 623.42,299.97 625.04,300.01 626.65,299.97 628.26,299.97 629.88,299.93 631.49,300.01 633.10,300.01 634.72,299.89 636.33,299.97 637.94,299.97 639.56,300.06 641.17,249.90 642.78,299.89 644.40,300.01 646.01,299.97 647.62,299.97 649.24,299.97 650.85,300.01 652.46,300.01 654.08,299.97 655.69,299.97 657.30,299.97 658.92,250.03 660.53,299.93 662.15,300.01 663.76,300.01 665.37,299.93 666.99,300.01 668.60,300.01 670.21,299.97 671.83,300.01 673.44,300.01 675.05,300.06 676.67,300.01 678.28,299.97 679.89,299.89 681.51,300.01 683.12,300.01 684.73,249.94 686.35,249.94 687.96,300.01 689.57,300.01 691.19,300.01 692.80,300.01 694.41,299.97 696.03,250.03 697.64,300.01 699.26,300.01 700.87,300.01 702.48,300.01 704.10,250.03 705.71,249.99 707.32,300.01 708.94,299.97 710.55,300.01 712.16,299.97 713.78,300.01 715.39,299.97 717.00,299.97 718.62,299.97 720.23,300.06 721.84,249.99 723.46,300.01 725.07,250.03 726.68,249.94 728.30,249.99 729.91,300.01 731.52,300.06 733.14,300.01 734.75,299.97 736.37,299.97 737.98,300.01 739.59,299.93 741.21,299.89 742.82,299.89 744.43,299.89 746.05,299.89 747.66,299.85 749.27,299.85 750.89,299.89 752.50,299.81 754.11,299.81 755.73,299.81 757.34,299.76 758.95,299.76 760.57,299.76 762.18,299.72 763.79,299.68 765.41,299.60 767.02,299.60 768.63,299.60 770.25,299.56 771.86,299.47 773.48,299.43 775.09,299.43 776.70,299.39 778.32,299.47 779.93,259.82 781.54,338.96 783.16,299.31 784.77,299.31 786.38,299.26 788.00,299.68 789.61,299.68 791.22,299.68 792.84,299.64 794.45,299.14 796.06,299.14 797.68,299.10 799.29,299.10 800.90,299.10 802.52,248.07 804.13,299.06 805.74,299.06 807.36,299.06 808.97,299.06 810.59,299.06 812.20,298.97 813.81,298.97 815.43,298.93 817.04,298.97 818.65,298.93 820.27,298.89 821.88,298.89 823.49,298.89 825.11,298.89 826.72,247.78 828.33,298.89 829.95,298.89 831.56,298.85 833.17,298.85 834.79,298.81 836.40,298.81 838.01,298.81 839.63,298.81 841.24,298.81 842.85,298.81 844.47,298.81 846.08,298.81 847.70,298.81 849.31,298.72 850.92,247.45 852.54,247.45 854.15,298.72 855.76,298.72 857.38,298.72 858.99,298.72 860.60,298.72 862.22,298.72 863.83,247.36 865.44,298.68 867.06,247.36 868.67,247.36 870.28,247.36 871.90,298.68 873.51,298.68 875.12,298.68 876.74,298.68 878.35,298.68 879.96,341.67 881.58,307.01 883.19,298.68 884.80,298.68 886.42,298.68 888.03,247.36 889.65,298.64 891.26,247.36 892.87,247.28 894.49,247.20 896.10,298.60 897.71,298.60 899.33,247.03 900.94,298.51 902.55,298.51 904.17,298.51 905.78,298.51 907.39,298.51 909.01,298.51 910.62,298.51 912.23,298.51 913.85,298.51 915.46,298.51 917.07,298.51 918.69,298.51 920.30,298.51 921.91,298.51 923.53,298.51 925.14,298.51 926.76,298.51 928.37,298.51 929.98,298.51 931.60,298.51 933.21,298.51 934.82,298.51 936.44,298.51 938.05,298.51 939.66,298.51 941.28,298.51 942.89,298.47 944.50,298.51 946.12,298.51 947.73,298.47 949.34,298.51 950.96,298.47 952.57,298.51 954.18,298.43 955.80,298.56 957.41,298.43 959.02,298.43 960.64,298.43 962.25,298.43 963.87,298.43 965.48,298.43 967.09,298.43 968.71,298.43 970.32,298.43 971.93,298.43 973.55,298.43 975.16,298.43 976.77,298.43 978.39,298.43 980.00,298.43"/>
  <circle cx="70.00" cy="50.00" r="2.5" fill="#2563eb"/>
  <circle cx="71.61" cy="50.12" r="2.5" fill="#2563eb"/>
  <circle cx="73.23" cy="50.17" r="2.5" fill="#2563eb"/>
  <circle cx="74.84" cy="50.46" r="2.5" fill="#2563eb"/>
  <circle cx="76.45" cy="50.00" r="2.5" fill="#2563eb"/>
  <circle cx="78.07" cy="266.90" r="2.5" fill="#2563eb"/>
  <circle cx="79.68" cy="50.12" r="2.5" fill="#2563eb"/>
  <circle cx="81.29" cy="50.08" r="2.5" fill="#2563eb"/>
  <circle cx="82.91" cy="177.46" r="2.5" fill="#2563eb"/>
  <circle cx="84.52" cy="211.58" r="2.5" fill="#2563eb"/>
  <circle cx="86.13" cy="175.34" r="2.5" fill="#2563eb"/>
  <circle cx="87.75" cy="304.14" r="2.5" fill="#2563eb"/>
  <circle cx="89.36" cy="200.46" r="2.5" fill="#2563eb"/>
  <circle cx="90.98" cy="250.94" r="2.5" fill="#2563eb"/>
  <circle cx="92.59" cy="300.01" r="2.5" fill="#2563eb"/>
  <circle cx="94.20" cy="300.06" r="2.5" fill="#2563eb"/>
  <circle cx="95.82" cy="300.01" r="2.5" fill="#2563eb"/>
  <circle cx="97.43" cy="300.01" r="2.5" fill="#2563eb"/>
  <circle cx="99.04" cy="348.00" r="2.5" fill="#2563eb"/>
  <circle cx="100.66" cy="300.01" r="2.5" fill="#2563eb"/>
  <circle cx="102.27" cy="249.99" r="2.5" fill="#2563eb"/>
  <circle cx="103.88" cy="200.00" r="2.5" fill="#2563eb"/>
  <circle cx="105.50" cy="249.99" r="2.5" fill="#2563eb"/>
  <circle cx="107.11" cy="249.99" r="2.5" fill="#2563eb"/>
  <circle cx="108.72" cy="250.03" r="2.5" fill="#2563eb"/>
  <circle cx="110.34" cy="250.03" r="2.5" fill="#2563eb"/>
  <circle cx="111.95" cy="250.03" r="2.5" fill="#2563eb"/>
  <circle cx="113.56" cy="250.40" r="2.5" fill="#2563eb"/>
  <circle cx="115.18" cy="250.90" r="2.5" fill="#2563eb"/>
  <circle cx="116.79" cy="250.90" r="2.5" fill="#2563eb"/>
  <circle cx="118.40" cy="251.32" r="2.5" fill="#2563eb"/>
  <circle cx="120.02" cy="249.94" r="2.5" fill="#2563eb"/>
  <circle cx="121.63" cy="300.01" r="2.5" fill="#2563eb"/>
  <circle cx="123.24" cy="299.93" r="2.5" fill="#2563eb"/>
  <circle cx="124.86" cy="251.03" r="2.5" fill="#2563eb"/>
  <circle cx="126.47" cy="300.68" r="2.5" fill="#2563eb"/>
  <circle cx="128.09" cy="250.03" r="2.5" fill="#2563eb"/>
  <circle cx="129.70" cy="200.00" r="2.5" fill="#2563eb"/>
  <circle cx="131.31" cy="249.99" r="2.5" fill="#2563eb"/>
  <circle cx="132.93" cy="250.03" r="2.5" fill="#2563eb"/>
  <circle cx="134.54" cy="250.03" r="2.5" fill="#2563eb"/>
  <circle cx="136.15" cy="250.03" r="2.5" fill="#2563eb"/>
  <circle cx="137.77" cy="300.01" r="2.5" fill="#2563eb"/>
  <circle cx="139.38" cy="200.04" r="2.5" fill="#2563eb"/>
  <circle cx="140.99" cy="250.03" r="2.5" fill="#2563eb"/>
  <circle cx="142.61" cy="250.03" r="2.5" fill="#2563eb"/>
  <circle cx="144.22" cy="250.03" r="2.5" fill="#2563eb"/>
  <circle cx="145.83" cy="249.90" r="2.5" fill="#2563eb"/>
  <circle cx="147.45" cy="250.03" r="2.5" fill="#2563eb"/>
  <circle cx="149.06" cy="250.03" r="2.5" fill="#2563eb"/>
  <circle cx="150.67" cy="250.94" r="2.5" fill="#2563eb"/>
  <circle cx="152.29" cy="250.44" r="2.5" fill="#2563eb"/>
  <circle cx="153.90" cy="250.03" r="2.5" fill="#2563eb"/>
  <circle cx="155.51" cy="250.03" r="2.5" fill="#2563eb"/>
  <circle cx="157.13" cy="300.47" r="2.5" fill="#2563eb"/>
  <circle cx="158.74" cy="300.01" r="2.5" fill="#2563eb"/>
  <circle cx="160.35" cy="300.43" r="2.5" fill="#2563eb"/>
  <circle cx="161.97" cy="250.03" r="2.5" fill="#2563eb"/>
  <circle cx="163.58" cy="249.99" r="2.5" fill="#2563eb"/>
  <circle cx="165.20" cy="300.43" r="2.5" fill="#2563eb"/>
  <circle cx="166.81" cy="249.90" r="2.5" fill="#2563eb"/>
  <circle cx="168.42" cy="249.99" r="2.5" fill="#2563eb"/>
  <circle cx="170.04" cy="249.99" r="2.5" fill="#2563eb"/>
  <circle cx="171.65" cy="200.04" r="2.5" fill="#2563eb"/>
  <circle cx="173.26" cy="300.01" r="2.5" fill="#2563eb"/>
  <circle cx="174.88" cy="300.01" r="2.5" fill="#2563eb"/>
  <circle cx="176.49" cy="300.01" r="2.5" fill="#2563eb"/>
  <circle cx="178.10" cy="249.90" r="2.5" fill="#2563eb"/>
  <circle cx="179.72" cy="300.01" r="2.5" fill="#2563eb"/>
  <circle cx="181.33" cy="250.03" r="2.5" fill="#2563eb"/>
  <circle cx="182.94" cy="249.99" r="2.5" fill="#2563eb"/>
  <circle cx="184.56" cy="199.96" r="2.5" fill="#2563eb"/>
  <circle cx="186.17" cy="300.01" r="2.5" fill="#2563eb"/>
  <circle cx="187.78" cy="200.00" r="2.5" fill="#2563eb"/>
  <circle cx="189.40" cy="250.36" r="2.5" fill="#2563eb"/>
  <circle cx="191.01" cy="250.03" r="2.5" fill="#2563eb"/>
  <circle cx="192.62" cy="300.01" r="2.5" fill="#2563eb"/>
  <circle cx="194.24" cy="300.01" r="2.5" fill="#2563eb"/>
  <circle cx="195.85" cy="250.44" r="2.5" fill="#2563eb"/>
  <circle cx="197.46" cy="300.01" r="2.5" fill="#2563eb"/>
  <circle cx="199.08" cy="250.03" r="2.5" fill="#2563eb"/>
  <circle cx="200.69" cy="250.03" r="2.5" fill="#2563eb"/>
  <circle cx="202.30" cy="249.99" r="2.5" fill="#2563eb"/>
  <circle cx="203.92" cy="250.49" r="2.5" fill="#2563eb"/>
  <circle cx="205.53" cy="250.03" r="2.5" fill="#2563eb"/>
  <circle cx="207.15" cy="200.04" r="2.5" fill="#2563eb"/>
  <circle cx="208.76" cy="300.01" r="2.5" fill="#2563eb"/>
  <circle cx="210.37" cy="250.03" r="2.5" fill="#2563eb"/>
  <circle cx="211.99" cy="300.01" r="2.5" fill="#2563eb"/>
  <circle cx="213.60" cy="250.11" r="2.5" fill="#2563eb"/>
  <circle cx="215.21" cy="300.01" r="2.5" fill="#2563eb"/>
  <circle cx="216.83" cy="250.03" r="2.5" fill="#2563eb"/>
  <circle cx="218.44" cy="250.03" r="2.5" fill="#2563eb"/>
  <circle cx="220.05" cy="199.92" r="2.5" fill="#2563eb"/>
  <circle cx="221.67" cy="250.03" r="2.5" fill="#2563eb"/>
  <circle cx="223.28" cy="250.03" r="2.5" fill="#2563eb"/>
  <circle cx="224.89" cy="250.03" r="2.5" fill="#2563eb"/>
  <circle cx="226.51" cy="254.36" r="2.5" fill="#2563eb"/>
  <circle cx="228.12" cy="300.01" r="2.5" fill="#2563eb"/>
  <circle cx="229.73" cy="299.97" r="2.5" fill="#2563eb"/>
  <circle cx="231.35" cy="250.36" r="2.5" fill="#2563eb"/>
  <circle cx="232.96" cy="299.97" r="2.5" fill="#2563eb"/>
  <circle cx="234.57" cy="250.03" r="2.5" fill="#2563eb"/>
  <circle cx="236.19" cy="250.03" r="2.5" fill="#2563eb"/>
  <circle cx="237.80" cy="250.03" r="2.5" fill="#2563eb"/>
  <circle cx="239.41" cy="250.03" r="2.5" fill="#2563eb"/>
  <circle cx="241.03" cy="249.99" r="2.5" fill="#2563eb"/>
  <circle cx="242.64" cy="200.00" r="2.5" fill="#2563eb"/>
  <circle cx="244.26" cy="299.93" r="2.5" fill="#2563eb"/>
  <circle cx="245.87" cy="300.01" r="2.5" fill="#2563eb"/>
  <circle cx="247.48" cy="299.97" r="2.5" fill="#2563eb"/>
  <circle cx="249.10" cy="249.94" r="2.5" fill="#2563eb"/>
  <circle cx="250.71" cy="249.99" r="2.5" fill="#2563eb"/>
  <circle cx="252.32" cy="249.82" r="2.5" fill="#2563eb"/>
  <circle cx="253.94" cy="249.94" r="2.5" fill="#2563eb"/>
  <circle cx="255.55" cy="250.28" r="2.5" fill="#2563eb"/>
  <circle cx="257.16" cy="207.00" r="2.5" fill="#2563eb"/>
  <circle cx="258.78" cy="250.03" r="2.5" fill="#2563eb"/>
  <circle cx="260.39" cy="250.32" r="2.5" fill="#2563eb"/>
  <circle cx="262.00" cy="250.40" r="2.5" fill="#2563eb"/>
  <circle cx="263.62" cy="300.93" r="2.5" fill="#2563eb"/>
  <circle cx="265.23" cy="300.01" r="2.5" fill="#2563eb"/>
  <circle cx="266.84" cy="300.10" r="2.5" fill="#2563eb"/>
  <circle cx="268.46" cy="249.94" r="2.5" fill="#2563eb"/>
  <circle cx="270.07" cy="249.99" r="2.5" fill="#2563eb"/>
  <circle cx="271.68" cy="250.07" r="2.5" fill="#2563eb"/>
  <circle cx="273.30" cy="249.99" r="2.5" fill="#2563eb"/>
  <circle cx="274.91" cy="250.03" r="2.5" fill="#2563eb"/>
  <circle cx="276.52" cy="249.94" r="2.5" fill="#2563eb"/>
  <circle cx="278.14" cy="200.00" r="2.5" fill="#2563eb"/>
  <circle cx="279.75" cy="300.39" r="2.5" fill="#2563eb"/>
  <circle cx="281.37" cy="300.01" r="2.5" fill="#2563eb"/>
  <circle cx="282.98" cy="300.01" r="2.5" fill="#2563eb"/>
  <circle cx="284.59" cy="250.44" r="2.5" fill="#2563eb"/>
  <circle cx="286.21" cy="300.39" r="2.5" fill="#2563eb"/>
  <circle cx="287.82" cy="249.86" r="2.5" fill="#2563eb"/>
  <circle cx="289.43" cy="250.11" r="2.5" fill="#2563eb"/>
  <circle cx="291.05" cy="201.46" r="2.5" fill="#2563eb"/>
  <circle cx="292.66" cy="300.01" r="2.5" fill="#2563eb"/>
  <circle cx="294.27" cy="200.83" r="2.5" fill="#2563eb"/>
  <circle cx="295.89" cy="250.03" r="2.5" fill="#2563eb"/>
  <circle cx="297.50" cy="249.99" r="2.5" fill="#2563eb"/>
  <circle cx="299.11" cy="300.26" r="2.5" fill="#2563eb"/>
  <circle cx="300.73" cy="300.01" r="2.5" fill="#2563eb"/>
  <circle cx="302.34" cy="300.01" r="2.5" fill="#2563eb"/>
  <circle cx="303.95" cy="250.03" r="2.5" fill="#2563eb"/>
  <circle cx="305.57" cy="250.03" r="2.5" fill="#2563eb"/>
  <circle cx="307.18" cy="250.03" r="2.5" fill="#2563eb"/>
  <circle cx="308.79" cy="250.03" r="2.5" fill="#2563eb"/>
  <circle cx="310.41" cy="249.99" r="2.5" fill="#2563eb"/>
  <circle cx="312.02" cy="250.03" r="2.5" fill="#2563eb"/>
  <circle cx="313.63" cy="200.00" r="2.5" fill="#2563eb"/>
  <circle cx="315.25" cy="300.26" r="2.5" fill="#2563eb"/>
  <circle cx="316.86" cy="249.99" r="2.5" fill="#2563eb"/>
  <circle cx="318.48" cy="300.01" r="2.5" fill="#2563eb"/>
  <circle cx="320.09" cy="249.94" r="2.5" fill="#2563eb"/>
  <circle cx="321.70" cy="250.03" r="2.5" fill="#2563eb"/>
  <circle cx="323.32" cy="250.03" r="2.5" fill="#2563eb"/>
  <circle cx="324.93" cy="250.03" r="2.5" fill="#2563eb"/>
  <circle cx="326.54" cy="200.04" r="2.5" fill="#2563eb"/>
  <circle cx="328.16" cy="300.01" r="2.5" fill="#2563eb"/>
  <circle cx="329.77" cy="249.90" r="2.5" fill="#2563eb"/>
  <circle cx="331.38" cy="300.01" r="2.5" fill="#2563eb"/>
  <circle cx="333.00" cy="300.01" r="2.5" fill="#2563eb"/>
  <circle cx="334.61" cy="300.06" r="2.5" fill="#2563eb"/>
  <circle cx="336.22" cy="300.01" r="2.5" fill="#2563eb"/>
  <circle cx="337.84" cy="300.01" r="2.5" fill="#2563eb"/>
  <circle cx="339.45" cy="243.95" r="2.5" fill="#2563eb"/>
  <circle cx="341.06" cy="249.94" r="2.5" fill="#2563eb"/>
  <circle cx="342.68" cy="299.97" r="2.5" fill="#2563eb"/>
  <circle cx="344.29" cy="300.01" r="2.5" fill="#2563eb"/>
  <circle cx="345.90" cy="300.01" r="2.5" fill="#2563eb"/>
  <circle cx="347.52" cy="250.03" r="2.5" fill="#2563eb"/>
  <circle cx="349.13" cy="300.01" r="2.5" fill="#2563eb"/>
  <circle cx="350.74" cy="300.01" r="2.5" fill="#2563eb"/>
  <circle cx="352.36" cy="299.97" r="2.5" fill="#2563eb"/>
  <circle cx="353.97" cy="249.99" r="2.5" fill="#2563eb"/>
  <circle cx="355.59" cy="300.01" r="2.5" fill="#2563eb"/>
  <circle cx="357.20" cy="299.93" r="2.5" fill="#2563eb"/>
  <circle cx="358.81" cy="300.01" r="2.5" fill="#2563eb"/>
  <circle cx="360.43" cy="299.93" r="2.5" fill="#2563eb"/>
  <circle cx="362.04" cy="300.01" r="2.5" fill="#2563eb"/>
  <circle cx="363.65" cy="300.01" r="2.5" fill="#2563eb"/>
  <circle cx="365.27" cy="299.89" r="2.5" fill="#2563eb"/>
  <circle cx="366.88" cy="299.97" r="2.5" fill="#2563eb"/>
  <circle cx="368.49" cy="250.03" r="2.5" fill="#2563eb"/>
  <circle cx="370.11" cy="299.93" r="2.5" fill="#2563eb"/>
  <circle cx="371.72" cy="299.89" r="2.5" fill="#2563eb"/>
  <circle cx="373.33" cy="299.97" r="2.5" fill="#2563eb"/>
  <circle cx="374.95" cy="249.94" r="2.5" fill="#2563eb"/>
  <circle cx="376.56" cy="300.01" r="2.5" fill="#2563eb"/>
  <circle cx="378.17" cy="300.01" r="2.5" fill="#2563eb"/>
  <circle cx="379.79" cy="299.97" r="2.5" fill="#2563eb"/>
  <circle cx="381.40" cy="249.99" r="2.5" fill="#2563eb"/>
  <circle cx="383.01" cy="299.97" r="2.5" fill="#2563eb"/>
  <circle cx="384.63" cy="299.97" r="2.5" fill="#2563eb"/>
  <circle cx="386.24" cy="300.06" r="2.5" fill="#2563eb"/>
  <circle cx="387.85" cy="300.06" r="2.5" fill="#2563eb"/>
  <circle cx="389.47" cy="299.93" r="2.5" fill="#2563eb"/>
  <circle cx="391.08" cy="300.01" r="2.5" fill="#2563eb"/>
  <circle cx="392.70" cy="300.01" r="2.5" fill="#2563eb"/>
  <circle cx="394.31" cy="299.93" r="2.5" fill="#2563eb"/>
  <circle cx="395.92" cy="300.01" r="2.5" fill="#2563eb"/>
  <circle cx="397.54" cy="300.01" r="2.5" fill="#2563eb"/>
  <circle cx="399.15" cy="299.97" r="2.5" fill="#2563eb"/>
  <circle cx="400.76" cy="300.01" r="2.5" fill="#2563eb"/>
  <circle cx="402.38" cy="300.01" r="2.5" fill="#2563eb"/>
  <circle cx="403.99" cy="300.01" r="2.5" fill="#2563eb"/>
  <circle cx="405.60" cy="300.01" r="2.5" fill="#2563eb"/>
  <circle cx="407.22" cy="249.86" r="2.5" fill="#2563eb"/>
  <circle cx="408.83" cy="300.01" r="2.5" fill="#2563eb"/>
  <circle cx="410.44" cy="300.10" r="2.5" fill="#2563eb"/>
  <circle cx="412.06" cy="299.93" r="2.5" fill="#2563eb"/>
  <circle cx="413.67" cy="300.01" r="2.5" fill="#2563eb"/>
  <circle cx="415.28" cy="299.93" r="2.5" fill="#2563eb"/>
  <circle cx="416.90" cy="300.01" r="2.5" fill="#2563eb"/>
  <circle cx="418.51" cy="300.01" r="2.5" fill="#2563eb"/>
  <circle cx="420.12" cy="300.01" r="2.5" fill="#2563eb"/>
  <circle cx="421.74" cy="300.01" r="2.5" fill="#2563eb"/>
  <circle cx="423.35" cy="300.01" r="2.5" fill="#2563eb"/>
  <circle cx="424.96" cy="299.97" r="2.5" fill="#2563eb"/>
  <circle cx="426.58" cy="300.01" r="2.5" fill="#2563eb"/>
  <circle cx="428.19" cy="300.01" r="2.5" fill="#2563eb"/>
  <circle cx="429.80" cy="300.01" r="2.5" fill="#2563eb"/>
  <circle cx="431.42" cy="300.01" r="2.5" fill="#2563eb"/>
  <circle cx="433.03" cy="250.03" r="2.5" fill="#2563eb"/>
  <circle cx="434.65" cy="300.01" r="2.5" fill="#2563eb"/>
  <circle cx="436.26" cy="300.01" r="2.5" fill="#2563eb"/>
  <circle cx="437.87" cy="299.97" r="2.5" fill="#2563eb"/>
  <circle cx="439.49" cy="300.01" r="2.5" fill="#2563eb"/>
  <circle cx="441.10" cy="300.01" r="2.5" fill="#2563eb"/>
  <circle cx="442.71" cy="299.97" r="2.5" fill="#2563eb"/>
  <circle cx="444.33" cy="299.97" r="2.5" fill="#2563eb"/>
  <circle cx="445.94" cy="300.01" r="2.5" fill="#2563eb"/>
  <circle cx="447.55" cy="299.97" r="2.5" fill="#2563eb"/>
  <circle cx="449.17" cy="300.01" r="2.5" fill="#2563eb"/>
  <circle cx="450.78" cy="299.93" r="2.5" fill="#2563eb"/>
  <circle cx="452.39" cy="300.01" r="2.5" fill="#2563eb"/>
  <circle cx="454.01" cy="250.03" r="2.5" fill="#2563eb"/>
  <circle cx="455.62" cy="300.01" r="2.5" fill="#2563eb"/>
  <circle cx="457.23" cy="300.01" r="2.5" fill="#2563eb"/>
  <circle cx="458.85" cy="300.01" r="2.5" fill="#2563eb"/>
  <circle cx="460.46" cy="300.01" r="2.5" fill="#2563eb"/>
  <circle cx="462.07" cy="300.01" r="2.5" fill="#2563eb"/>
  <circle cx="463.69" cy="299.89" r="2.5" fill="#2563eb"/>
  <circle cx="465.30" cy="300.01" r="2.5" fill="#2563eb"/>
  <circle cx="466.91" cy="300.01" r="2.5" fill="#2563eb"/>
  <circle cx="468.53" cy="250.07" r="2.5" fill="#2563eb"/>
  <circle cx="470.14" cy="300.01" r="2.5" fill="#2563eb"/>
  <circle cx="471.76" cy="299.93" r="2.5" fill="#2563eb"/>
  <circle cx="473.37" cy="300.01" r="2.5" fill="#2563eb"/>
  <circle cx="474.98" cy="299.97" r="2.5" fill="#2563eb"/>
  <circle cx="476.60" cy="299.97" r="2.5" fill="#2563eb"/>
  <circle cx="478.21" cy="299.97" r="2.5" fill="#2563eb"/>
  <circle cx="479.82" cy="250.03" r="2.5" fill="#2563eb"/>
  <circle cx="481.44" cy="300.01" r="2.5" fill="#2563eb"/>
  <circle cx="483.05" cy="300.01" r="2.5" fill="#2563eb"/>
  <circle cx="484.66" cy="300.01" r="2.5" fill="#2563eb"/>
  <circle cx="486.28" cy="300.01" r="2.5" fill="#2563eb"/>
  <circle cx="487.89" cy="299.97" r="2.5" fill="#2563eb"/>
  <circle cx="489.50" cy="300.01" r="2.5" fill="#2563eb"/>
  <circle cx="491.12" cy="299.97" r="2.5" fill="#2563eb"/>
  <circle cx="492.73" cy="300.01" r="2.5" fill="#2563eb"/>
  <circle cx="494.34" cy="299.97" r="2.5" fill="#2563eb"/>
  <circle cx="495.96" cy="249.90" r="2.5" fill="#2563eb"/>
  <circle cx="497.57" cy="300.01" r="2.5" fill="#2563eb"/>
  <circle cx="499.18" cy="300.01" r="2.5" fill="#2563eb"/>
  <circle cx="500.80" cy="299.89" r="2.5" fill="#2563eb"/>
  <circle cx="502.41" cy="299.97" r="2.5" fill="#2563eb"/>
  <circle cx="504.02" cy="299.97" r="2.5" fill="#2563eb"/>
  <circle cx="505.64" cy="249.99" r="2.5" fill="#2563eb"/>
  <circle cx="507.25" cy="299.97" r="2.5" fill="#2563eb"/>
  <circle cx="508.87" cy="299.89" r="2.5" fill="#2563eb"/>
  <circle cx="510.48" cy="300.01" r="2.5" fill="#2563eb"/>
  <circle cx="512.09" cy="299.97" r="2.5" fill="#2563eb"/>
  <circle cx="513.71" cy="299.97" r="2.5" fill="#2563eb"/>
  <circle cx="515.32" cy="300.01" r="2.5" fill="#2563eb"/>
  <circle cx="516.93" cy="299.97" r="2.5" fill="#2563eb"/>
  <circle cx="518.55" cy="249.99" r="2.5" fill="#2563eb"/>
  <circle cx="520.16" cy="299.97" r="2.5" fill="#2563eb"/>
  <circle cx="521.77" cy="299.97" r="2.5" fill="#2563eb"/>
  <circle cx="523.39" cy="300.06" r="2.5" fill="#2563eb"/>
  <circle cx="525.00" cy="300.06" r="2.5" fill="#2563eb"/>
  <circle cx="526.61" cy="249.94" r="2.5" fill="#2563eb"/>
  <circle cx="528.23" cy="300.01" r="2.5" fill="#2563eb"/>
  <circle cx="529.84" cy="299.93" r="2.5" fill="#2563eb"/>
  <circle cx="531.45" cy="300.01" r="2.5" fill="#2563eb"/>
  <circle cx="533.07" cy="300.01" r="2.5" fill="#2563eb"/>
  <circle cx="534.68" cy="249.99" r="2.5" fill="#2563eb"/>
  <circle cx="536.29" cy="300.01" r="2.5" fill="#2563eb"/>
  <circle cx="537.91" cy="300.01" r="2.5" fill="#2563eb"/>
  <circle cx="539.52" cy="300.01" r="2.5" fill="#2563eb"/>
  <circle cx="541.13" cy="299.93" r="2.5" fill="#2563eb"/>
  <circle cx="542.75" cy="299.93" r="2.5" fill="#2563eb"/>
  <circle cx="544.36" cy="300.01" r="2.5" fill="#2563eb"/>
  <circle cx="545.98" cy="300.01" r="2.5" fill="#2563eb"/>
  <circle cx="547.59" cy="249.94" r="2.5" fill="#2563eb"/>
  <circle cx="549.20" cy="299.97" r="2.5" fill="#2563eb"/>
  <circle cx="550.82" cy="299.97" r="2.5" fill="#2563eb"/>
  <circle cx="552.43" cy="300.01" r="2.5" fill="#2563eb"/>
  <circle cx="554.04" cy="300.01" r="2.5" fill="#2563eb"/>
  <circle cx="555.66" cy="300.01" r="2.5" fill="#2563eb"/>
  <circle cx="557.27" cy="249.99" r="2.5" fill="#2563eb"/>
  <circle cx="558.88" cy="300.01" r="2.5" fill="#2563eb"/>
  <circle cx="560.50" cy="300.01" r="2.5" fill="#2563eb"/>
  <circle cx="562.11" cy="300.01" r="2.5" fill="#2563eb"/>
  <circle cx="563.72" cy="250.03" r="2.5" fill="#2563eb"/>
  <circle cx="565.34" cy="300.01" r="2.5" fill="#2563eb"/>
  <circle cx="566.95" cy="300.01" r="2.5" fill="#2563eb"/>
  <circle cx="568.56" cy="300.01" r="2.5" fill="#2563eb"/>
  <circle cx="570.18" cy="299.97" r="2.5" fill="#2563eb"/>
  <circle cx="571.79" cy="300.01" r="2.5" fill="#2563eb"/>
  <circle cx="573.40" cy="300.01" r="2.5" fill="#2563eb"/>
  <circle cx="575.02" cy="299.97" r="2.5" fill="#2563eb"/>
  <circle cx="576.63" cy="299.97" r="2.5" fill="#2563eb"/>
  <circle cx="578.24" cy="300.01" r="2.5" fill="#2563eb"/>
  <circle cx="579.86" cy="300.01" r="2.5" fill="#2563eb"/>
  <circle cx="581.47" cy="299.97" r="2.5" fill="#2563eb"/>
  <circle cx="583.09" cy="299.93" r="2.5" fill="#2563eb"/>
  <circle cx="584.70" cy="300.01" r="2.5" fill="#2563eb"/>
  <circle cx="586.31" cy="300.06" r="2.5" fill="#2563eb"/>
  <circle cx="587.93" cy="299.97" r="2.5" fill="#2563eb"/>
  <circle cx="589.54" cy="300.01" r="2.5" fill="#2563eb"/>
  <circle cx="591.15" cy="250.03" r="2.5" fill="#2563eb"/>
  <circle cx="592.77" cy="250.03" r="2.5" fill="#2563eb"/>
  <circle cx="594.38" cy="299.93" r="2.5" fill="#2563eb"/>
  <circle cx="595.99" cy="299.97" r="2.5" fill="#2563eb"/>
  <circle cx="597.61" cy="300.01" r="2.5" fill="#2563eb"/>
  <circle cx="599.22" cy="300.01" r="2.5" fill="#2563eb"/>
  <circle cx="600.83" cy="300.06" r="2.5" fill="#2563eb"/>
  <circle cx="602.45" cy="300.01" r="2.5" fill="#2563eb"/>
  <circle cx="604.06" cy="299.93" r="2.5" fill="#2563eb"/>
  <circle cx="605.67" cy="300.01" r="2.5" fill="#2563eb"/>
  <circle cx="607.29" cy="300.01" r="2.5" fill="#2563eb"/>
  <circle cx="608.90" cy="299.97" r="2.5" fill="#2563eb"/>
  <circle cx="610.51" cy="299.97" r="2.5" fill="#2563eb"/>
  <circle cx="612.13" cy="300.01" r="2.5" fill="#2563eb"/>
  <circle cx="613.74" cy="250.03" r="2.5" fill="#2563eb"/>
  <circle cx="615.35" cy="300.01" r="2.5" fill="#2563eb"/>
  <circle cx="616.97" cy="300.01" r="2.5" fill="#2563eb"/>
  <circle cx="618.58" cy="300.01" r="2.5" fill="#2563eb"/>
  <circle cx="620.20" cy="299.97" r="2.5" fill="#2563eb"/>
  <circle cx="621.81" cy="300.01" r="2.5" fill="#2563eb"/>
  <circle cx="623.42" cy="299.97" r="2.5" fill="#2563eb"/>
  <circle cx="625.04" cy="300.01" r="2.5" fill="#2563eb"/>
  <circle cx="626.65" cy="299.97" r="2.5" fill="#2563eb"/>
  <circle cx="628.26" cy="299.97" r="2.5" fill="#2563eb"/>
  <circle cx="629.88" cy="299.93" r="2.5" fill="#2563eb"/>
  <circle cx="631.49" cy="300.01" r="2.5" fill="#2563eb"/>
  <circle cx="633.10" cy="300.01" r="2.5" fill="#2563eb"/>
  <circle cx="634.72" cy="299.89" r="2.5" fill="#2563eb"/>
  <circle cx="636.33" cy="299.97" r="2.5" fill="#2563eb"/>
  <circle cx="637.94" cy="299.97" r="2.5" fill="#2563eb"/>
  <circle cx="639.56" cy="300.06" r="2.5" fill="#2563eb"/>
  <circle cx="641.17" cy="249.90" r="2.5" fill="#2563eb"/>
  <circle cx="642.78" cy="299.89" r="2.5" fill="#2563eb"/>
  <circle cx="644.40" cy="300.01" r="2.5" fill="#2563eb"/>
  <circle cx="646.01" cy="299.97" r="2.5" fill="#2563eb"/>
  <circle cx="647.62" cy="299.97" r="2.5" fill="#2563eb"/>
  <circle cx="649.24" cy="299.97" r="2.5" fill="#2563eb"/>
  <circle cx="650.85" cy="300.01" r="2.5" fill="#2563eb"/>
  <circle cx="652.46" cy="300.01" r="2.5" fill="#2563eb"/>
  <circle cx="654.08" cy="299.97" r="2.5" fill="#2563eb"/>
  <circle cx="655.69" cy="299.97" r="2.5" fill="#2563eb"/>
  <circle cx="657.30" cy="299.97" r="2.5" fill="#2563eb"/>
  <circle cx="658.92" cy="250.03" r="2.5" fill="#2563eb"/>
  <circle cx="660.53" cy="299.93" r="2.5" fill="#2563eb"/>
  <circle cx="662.15" cy="300.01" r="2.5" fill="#2563eb"/>
  <circle cx="663.76" cy="300.01" r="2.5" fill="#2563eb"/>
  <circle cx="665.37" cy="299.93" r="2.5" fill="#2563eb"/>
  <circle cx="666.99" cy="300.01" r="2.5" fill="#2563eb"/>
  <circle cx="668.60" cy="300.01" r="2.5" fill="#2563eb"/>
  <circle cx="670.21" cy="299.97" r="2.5" fill="#2563eb"/>
  <circle cx="671.83" cy="300.01" r="2.5" fill="#2563eb"/>
  <circle cx="673.44" cy="300.01" r="2.5" fill="#2563eb"/>
  <circle cx="675.05" cy="300.06" r="2.5" fill="#2563eb"/>
  <circle cx="676.67" cy="300.01" r="2.5" fill="#2563eb"/>
  <circle cx="678.28" cy="299.97" r="2.5" fill="#2563eb"/>
  <circle cx="679.89" cy="299.89" r="2.5" fill="#2563eb"/>
  <circle cx="681.51" cy="300.01" r="2.5" fill="#2563eb"/>
  <circle cx="683.12" cy="300.01" r="2.5" fill="#2563eb"/>
  <circle cx="684.73" cy="249.94" r="2.5" fill="#2563eb"/>
  <circle cx="686.35" cy="249.94" r="2.5" fill="#2563eb"/>
  <circle cx="687.96" cy="300.01" r="2.5" fill="#2563eb"/>
  <circle cx="689.57" cy="300.01" r="2.5" fill="#2563eb"/>
  <circle cx="691.19" cy="300.01" r="2.5" fill="#2563eb"/>
  <circle cx="692.80" cy="300.01" r="2.5" fill="#2563eb"/>
  <circle cx="694.41" cy="299.97" r="2.5" fill="#2563eb"/>
  <circle cx="696.03" cy="250.03" r="2.5" fill="#2563eb"/>
  <circle cx="697.64" cy="300.01" r="2.5" fill="#2563eb"/>
  <circle cx="699.26" cy="300.01" r="2.5" fill="#2563eb"/>
  <circle cx="700.87" cy="300.01" r="2.5" fill="#2563eb"/>
  <circle cx="702.48" cy="300.01" r="2.5" fill="#2563eb"/>
  <circle cx="704.10" cy="250.03" r="2.5" fill="#2563eb"/>
  <circle cx="705.71" cy="249.99" r="2.5" fill="#2563eb"/>
  <circle cx="707.32" cy="300.01" r="2.5" fill="#2563eb"/>
  <circle cx="708.94" cy="299.97" r="2.5" fill="#2563eb"/>
  <circle cx="710.55" cy="300.01" r="2.5" fill="#2563eb"/>
  <circle cx="712.16" cy="299.97" r="2.5" fill="#2563eb"/>
  <circle cx="713.78" cy="300.01" r="2.5" fill="#2563eb"/>
  <circle cx="715.39" cy="299.97" r="2.5" fill="#2563eb"/>
  <circle cx="717.00" cy="299.97" r="2.5" fill="#2563eb"/>
  <circle cx="718.62" cy="299.97" r="2.5" fill="#2563eb"/>
  <circle cx="720.23" cy="300.06" r="2.5" fill="#2563eb"/>
  <circle cx="721.84" cy="249.99" r="2.5" fill="#2563eb"/>
  <circle cx="723.46" cy="300.01" r="2.5" fill="#2563eb"/>
  <circle cx="725.07" cy="250.03" r="2.5" fill="#2563eb"/>
  <circle cx="726.68" cy="249.94" r="2.5" fill="#2563eb"/>
  <circle cx="728.30" cy="249.99" r="2.5" fill="#2563eb"/>
  <circle cx="729.91" cy="300.01" r="2.5" fill="#2563eb"/>
  <circle cx="731.52" cy="300.06" r="2.5" fill="#2563eb"/>
  <circle cx="733.14" cy="300.01" r="2.5" fill="#2563eb"/>
  <circle cx="734.75" cy="299.97" r="2.5" fill="#2563eb"/>
  <circle cx="736.37" cy="299.97" r="2.5" fill="#2563eb"/>
  <circle cx="737.98" cy="300.01" r="2.5" fill="#2563eb"/>
  <circle cx="739.59" cy="299.93" r="2.5" fill="#2563eb"/>
  <circle cx="741.21" cy="299.89" r="2.5" fill="#2563eb"/>
  <circle cx="742.82" cy="299.89" r="2.5" fill="#2563eb"/>
  <circle cx="744.43" cy="299.89" r="2.5" fill="#2563eb"/>
  <circle cx="746.05" cy="299.89" r="2.5" fill="#2563eb"/>
  <circle cx="747.66" cy="299.85" r="2.5" fill="#2563eb"/>
  <circle cx="749.27" cy="299.85" r="2.5" fill="#2563eb"/>
  <circle cx="750.89" cy="299.89" r="2.5" fill="#2563eb"/>
  <circle cx="752.50" cy="299.81" r="2.5" fill="#2563eb"/>
  <circle cx="754.11" cy="299.81" r="2.5" fill="#2563eb"/>
  <circle cx="755.73" cy="299.81" r="2.5" fill="#2563eb"/>
  <circle cx="757.34" cy="299.76" r="2.5" fill="#2563eb"/>
  <circle cx="758.95" cy="299.76" r="2.5" fill="#2563eb"/>
  <circle cx="760.57" cy="299.76" r="2.5" fill="#2563eb"/>
  <circle cx="762.18" cy="299.72" r="2.5" fill="#2563eb"/>
  <circle cx="763.79" cy="299.68" r="2.5" fill="#2563eb"/>
  <circle cx="765.41" cy="299.60" r="2.5" fill="#2563eb"/>
  <circle cx="767.02" cy="299.60" r="2.5" fill="#2563eb"/>
  <circle cx="768.63" cy="299.60" r="2.5" fill="#2563eb"/>
  <circle cx="770.25" cy="299.56" r="2.5" fill="#2563eb"/>
  <circle cx="771.86" cy="299.47" r="2.5" fill="#2563eb"/>
  <circle cx="773.48" cy="299.43" r="2.5" fill="#2563eb"/>
  <circle cx="775.09" cy="299.43" r="2.5" fill="#2563eb"/>
  <circle cx="776.70" cy="299.39" r="2.5" fill="#2563eb"/>
  <circle cx="778.32" cy="299.47" r="2.5" fill="#2563eb"/>
  <circle cx="779.93" cy="259.82" r="2.5" fill="#2563eb"/>
  <circle cx="781.54" cy="338.96" r="2.5" fill="#2563eb"/>
  <circle cx="783.16" cy="299.31" r="2.5" fill="#2563eb"/>
  <circle cx="784.77" cy="299.31" r="2.5" fill="#2563eb"/>
  <circle cx="786.38" cy="299.26" r="2.5" fill="#2563eb"/>
  <circle cx="788.00" cy="299.68" r="2.5" fill="#2563eb"/>
  <circle cx="789.61" cy="299.68" r="2.5" fill="#2563eb"/>
  <circle cx="791.22" cy="299.68" r="2.5" fill="#2563eb"/>
  <circle cx="792.84" cy="299.64" r="2.5" fill="#2563eb"/>
  <circle cx="794.45" cy="299.14" r="2.5" fill="#2563eb"/>
  <circle cx="796.06" cy="299.14" r="2.5" fill="#2563eb"/>
  <circle cx="797.68" cy="299.10" r="2.5" fill="#2563eb"/>
  <circle cx="799.29" cy="299.10" r="2.5" fill="#2563eb"/>
  <circle cx="800.90" cy="299.10" r="2.5" fill="#2563eb"/>
  <circle cx="802.52" cy="248.07" r="2.5" fill="#2563eb"/>
  <circle cx="804.13" cy="299.06" r="2.5" fill="#2563eb"/>
  <circle cx="805.74" cy="299.06" r="2.5" fill="#2563eb"/>
  <circle cx="807.36" cy="299.06" r="2.5" fill="#2563eb"/>
  <circle cx="808.97" cy="299.06" r="2.5" fill="#2563eb"/>
  <circle cx="810.59" cy="299.06" r="2.5" fill="#2563eb"/>
  <circle cx="812.20" cy="298.97" r="2.5" fill="#2563eb"/>
  <circle cx="813.81" cy="298.97" r="2.5" fill="#2563eb"/>
  <circle cx="815.43" cy="298.93" r="2.5" fill="#2563eb"/>
  <circle cx="817.04" cy="298.97" r="2.5" fill="#2563eb"/>
  <circle cx="818.65" cy="298.93" r="2.5" fill="#2563eb"/>
  <circle cx="820.27" cy="298.89" r="2.5" fill="#2563eb"/>
  <circle cx="821.88" cy="298.89" r="2.5" fill="#2563eb"/>
  <circle cx="823.49" cy="298.89" r="2.5" fill="#2563eb"/>
  <circle cx="825.11" cy="298.89" r="2.5" fill="#2563eb"/>
  <circle cx="826.72" cy="247.78" r="2.5" fill="#2563eb"/>
  <circle cx="828.33" cy="298.89" r="2.5" fill="#2563eb"/>
  <circle cx="829.95" cy="298.89" r="2.5" fill="#2563eb"/>
  <circle cx="831.56" cy="298.85" r="2.5" fill="#2563eb"/>
  <circle cx="833.17" cy="298.85" r="2.5" fill="#2563eb"/>
  <circle cx="834.79" cy="298.81" r="2.5" fill="#2563eb"/>
  <circle cx="836.40" cy="298.81" r="2.5" fill="#2563eb"/>
  <circle cx="838.01" cy="298.81" r="2.5" fill="#2563eb"/>
  <circle cx="839.63" cy="298.81" r="2.5" fill="#2563eb"/>
  <circle cx="841.24" cy="298.81" r="2.5" fill="#2563eb"/>
  <circle cx="842.85" cy="298.81" r="2.5" fill="#2563eb"/>
  <circle cx="844.47" cy="298.81" r="2.5" fill="#2563eb"/>
  <circle cx="846.08" cy="298.81" r="2.5" fill="#2563eb"/>
  <circle cx="847.70" cy="298.81" r="2.5" fill="#2563eb"/>
  <circle cx="849.31" cy="298.72" r="2.5" fill="#2563eb"/>
  <circle cx="850.92" cy="247.45" r="2.5" fill="#2563eb"/>
  <circle cx="852.54" cy="247.45" r="2.5" fill="#2563eb"/>
  <circle cx="854.15" cy="298.72" r="2.5" fill="#2563eb"/>
  <circle cx="855.76" cy="298.72" r="2.5" fill="#2563eb"/>
  <circle cx="857.38" cy="298.72" r="2.5" fill="#2563eb"/>
  <circle cx="858.99" cy="298.72" r="2.5" fill="#2563eb"/>
  <circle cx="860.60" cy="298.72" r="2.5" fill="#2563eb"/>
  <circle cx="862.22" cy="298.72" r="2.5" fill="#2563eb"/>
  <circle cx="863.83" cy="247.36" r="2.5" fill="#2563eb"/>
  <circle cx="865.44" cy="298.68" r="2.5" fill="#2563eb"/>
  <circle cx="867.06" cy="247.36" r="2.5" fill="#2563eb"/>
  <circle cx="868.67" cy="247.36" r="2.5" fill="#2563eb"/>
  <circle cx="870.28" cy="247.36" r="2.5" fill="#2563eb"/>
  <circle cx="871.90" cy="298.68" r="2.5" fill="#2563eb"/>
  <circle cx="873.51" cy="298.68" r="2.5" fill="#2563eb"/>
  <circle cx="875.12" cy="298.68" r="2.5" fill="#2563eb"/>
  <circle cx="876.74" cy="298.68" r="2.5" fill="#2563eb"/>
  <circle cx="878.35" cy="298.68" r="2.5" fill="#2563eb"/>
  <circle cx="879.96" cy="341.67" r="2.5" fill="#2563eb"/>
  <circle cx="881.58" cy="307.01" r="2.5" fill="#2563eb"/>
  <circle cx="883.19" cy="298.68" r="2.5" fill="#2563eb"/>
  <circle cx="884.80" cy="298.68" r="2.5" fill="#2563eb"/>
  <circle cx="886.42" cy="298.68" r="2.5" fill="#2563eb"/>
  <circle cx="888.03" cy="247.36" r="2.5" fill="#2563eb"/>
  <circle cx="889.65" cy="298.64" r="2.5" fill="#2563eb"/>
  <circle cx="891.26" cy="247.36" r="2.5" fill="#2563eb"/>
  <circle cx="892.87" cy="247.28" r="2.5" fill="#2563eb"/>
  <circle cx="894.49" cy="247.20" r="2.5" fill="#2563eb"/>
  <circle cx="896.10" cy="298.60" r="2.5" fill="#2563eb"/>
  <circle cx="897.71" cy="298.60" r="2.5" fill="#2563eb"/>
  <circle cx="899.33" cy="247.03" r="2.5" fill="#2563eb"/>
  <circle cx="900.94" cy="298.51" r="2.5" fill="#2563eb"/>
  <circle cx="902.55" cy="298.51" r="2.5" fill="#2563eb"/>
  <circle cx="904.17" cy="298.51" r="2.5" fill="#2563eb"/>
  <circle cx="905.78" cy="298.51" r="2.5" fill="#2563eb"/>
  <circle cx="907.39" cy="298.51" r="2.5" fill="#2563eb"/>
  <circle cx="909.01" cy="298.51" r="2.5" fill="#2563eb"/>
  <circle cx="910.62" cy="298.51" r="2.5" fill="#2563eb"/>
  <circle cx="912.23" cy="298.51" r="2.5" fill="#2563eb"/>
  <circle cx="913.85" cy="298.51" r="2.5" fill="#2563eb"/>
  <circle cx="915.46" cy="298.51" r="2.5" fill="#2563eb"/>
  <circle cx="917.07" cy="298.51" r="2.5" fill="#2563eb"/>
  <circle cx="918.69" cy="298.51" r="2.5" fill="#2563eb"/>
  <circle cx="920.30" cy="298.51" r="2.5" fill="#2563eb"/>
  <circle cx="921.91" cy="298.51" r="2.5" fill="#2563eb"/>
  <circle cx="923.53" cy="298.51" r="2.5" fill="#2563eb"/>
  <circle cx="925.14" cy="298.51" r="2.5" fill="#2563eb"/>
  <circle cx="926.76" cy="298.51" r="2.5" fill="#2563eb"/>
  <circle cx="928.37" cy="298.51" r="2.5" fill="#2563eb"/>
  <circle cx="929.98" cy="298.51" r="2.5" fill="#2563eb"/>
  <circle cx="931.60" cy="298.51" r="2.5" fill="#2563eb"/>
  <circle cx="933.21" cy="298.51" r="2.5" fill="#2563eb"/>
  <circle cx="934.82" cy="298.51" r="2.5" fill="#2563eb"/>
  <circle cx="936.44" cy="298.51" r="2.5" fill="#2563eb"/>
  <circle cx="938.05" cy="298.51" r="2.5" fill="#2563eb"/>
  <circle cx="939.66" cy="298.51" r="2.5" fill="#2563eb"/>
  <circle cx="941.28" cy="298.51" r="2.5" fill="#2563eb"/>
  <circle cx="942.89" cy="298.47" r="2.5" fill="#2563eb"/>
  <circle cx="944.50" cy="298.51" r="2.5" fill="#2563eb"/>
  <circle cx="946.12" cy="298.51" r="2.5" fill="#2563eb"/>
  <circle cx="947.73" cy="298.47" r="2.5" fill="#2563eb"/>
  <circle cx="949.34" cy="298.51" r="2.5" fill="#2563eb"/>
  <circle cx="950.96" cy="298.47" r="2.5" fill="#2563eb"/>
  <circle cx="952.57" cy="298.51" r="2.5" fill="#2563eb"/>
  <circle cx="954.18" cy="298.43" r="2.5" fill="#2563eb"/>
  <circle cx="955.80" cy="298.56" r="2.5" fill="#2563eb"/>
  <circle cx="957.41" cy="298.43" r="2.5" fill="#2563eb"/>
  <circle cx="959.02" cy="298.43" r="2.5" fill="#2563eb"/>
  <circle cx="960.64" cy="298.43" r="2.5" fill="#2563eb"/>
  <circle cx="962.25" cy="298.43" r="2.5" fill="#2563eb"/>
  <circle cx="963.87" cy="298.43" r="2.5" fill="#2563eb"/>
  <circle cx="965.48" cy="298.43" r="2.5" fill="#2563eb"/>
  <circle cx="967.09" cy="298.43" r="2.5" fill="#2563eb"/>
  <circle cx="968.71" cy="298.43" r="2.5" fill="#2563eb"/>
  <circle cx="970.32" cy="298.43" r="2.5" fill="#2563eb"/>
  <circle cx="971.93" cy="298.43" r="2.5" fill="#2563eb"/>
  <circle cx="973.55" cy="298.43" r="2.5" fill="#2563eb"/>
  <circle cx="975.16" cy="298.43" r="2.5" fill="#2563eb"/>
  <circle cx="976.77" cy="298.43" r="2.5" fill="#2563eb"/>
  <circle cx="978.39" cy="298.43" r="2.5" fill="#2563eb"/>
  <circle cx="980.00" cy="298.43" r="2.5" fill="#2563eb"/>
</svg>
