<?xml version="1.0" encoding="UTF-8"?>
<svg xmlns="http://www.w3.org/2000/svg" width="1000" height="420" viewBox="0 0 1000 420">
  <rect width="100%" height="100%" fill="#ffffff"/>
  <text x="70" y="28" font-size="20" font-weight="600">수집 시점 기준 - 시간별 스냅샷</text>
  <text x="70" y="402" font-size="12" fill="#555">스냅샷 수</text>
  <line x1="70" y1="350.00" x2="980" y2="350.00" stroke="#e5e7eb" stroke-width="1"/>
  <text x="62" y="354.00" font-size="11" fill="#6b7280" text-anchor="end">0</text>
  <line x1="70" y1="290.00" x2="980" y2="290.00" stroke="#e5e7eb" stroke-width="1"/>
  <text x="62" y="294.00" font-size="11" fill="#6b7280" text-anchor="end">1,440</text>
  <line x1="70" y1="230.00" x2="980" y2="230.00" stroke="#e5e7eb" stroke-width="1"/>
  <text x="62" y="234.00" font-size="11" fill="#6b7280" text-anchor="end">2,880</text>
  <line x1="70" y1="170.00" x2="980" y2="170.00" stroke="#e5e7eb" stroke-width="1"/>
  <text x="62" y="174.00" font-size="11" fill="#6b7280" text-anchor="end">4,321</text>
  <line x1="70" y1="110.00" x2="980" y2="110.00" stroke="#e5e7eb" stroke-width="1"/>
  <text x="62" y="114.00" font-size="11" fill="#6b7280" text-anchor="end">5,761</text>
  <line x1="70" y1="50.00" x2="980" y2="50.00" stroke="#e5e7eb" stroke-width="1"/>
  <text x="62" y="54.00" font-size="11" fill="#6b7280" text-anchor="end">7,202</text>
  <line x1="70" y1="350" x2="980" y2="350" stroke="#111827" stroke-width="1.2"/>
  <line x1="70" y1="50" x2="70" y2="350" stroke="#111827" stroke-width="1.2"/>
  <line x1="70.00" y1="350" x2="70.00" y2="356" stroke="#9ca3af" stroke-width="1"/>
  <text x="70.00" y="372" font-size="10" fill="#6b7280" text-anchor="middle">2026-02-28 18</text>
  <line x1="145.58" y1="350" x2="145.58" y2="356" stroke="#9ca3af" stroke-width="1"/>
  <text x="145.58" y="372" font-size="10" fill="#6b7280" text-anchor="middle">2026-03-09 05</text>
  <line x1="221.16" y1="350" x2="221.16" y2="356" stroke="#9ca3af" stroke-width="1"/>
  <text x="221.16" y="372" font-size="10" fill="#6b7280" text-anchor="middle">2026-03-11 13</text>
  <line x1="296.74" y1="350" x2="296.74" y2="356" stroke="#9ca3af" stroke-width="1"/>
  <text x="296.74" y="372" font-size="10" fill="#6b7280" text-anchor="middle">2026-03-13 19</text>
  <line x1="372.33" y1="350" x2="372.33" y2="356" stroke="#9ca3af" stroke-width="1"/>
  <text x="372.33" y="372" font-size="10" fill="#6b7280" text-anchor="middle">2026-03-16 16</text>
  <line x1="447.91" y1="350" x2="447.91" y2="356" stroke="#9ca3af" stroke-width="1"/>
  <text x="447.91" y="372" font-size="10" fill="#6b7280" text-anchor="middle">2026-03-20 01</text>
  <line x1="523.49" y1="350" x2="523.49" y2="356" stroke="#9ca3af" stroke-width="1"/>
  <text x="523.49" y="372" font-size="10" fill="#6b7280" text-anchor="middle">2026-03-22 20</text>
  <line x1="599.07" y1="350" x2="599.07" y2="356" stroke="#9ca3af" stroke-width="1"/>
  <text x="599.07" y="372" font-size="10" fill="#6b7280" text-anchor="middle">2026-03-26 04</text>
  <line x1="674.65" y1="350" x2="674.65" y2="356" stroke="#9ca3af" stroke-width="1"/>
  <text x="674.65" y="372" font-size="10" fill="#6b7280" text-anchor="middle">2026-03-29 14</text>
  <line x1="750.23" y1="350" x2="750.23" y2="356" stroke="#9ca3af" stroke-width="1"/>
  <text x="750.23" y="372" font-size="10" fill="#6b7280" text-anchor="middle">2026-04-02 03</text>
  <line x1="825.81" y1="350" x2="825.81" y2="356" stroke="#9ca3af" stroke-width="1"/>
  <text x="825.81" y="372" font-size="10" fill="#6b7280" text-anchor="middle">2026-04-05 08</text>
  <line x1="901.40" y1="350" x2="901.40" y2="356" stroke="#9ca3af" stroke-width="1"/>
  <text x="901.40" y="372" font-size="10" fill="#6b7280" text-anchor="middle">2026-04-08 23</text>
  <line x1="976.98" y1="350" x2="976.98" y2="356" stroke="#9ca3af" stroke-width="1"/>
  <text x="976.98" y="372" font-size="10" fill="#6b7280" text-anchor="middle">2026-04-12 08</text>
  <line x1="980.00" y1="350" x2="980.00" y2="356" stroke="#9ca3af" stroke-width="1"/>
  <text x="980.00" y="372" font-size="10" fill="#6b7280" text-anchor="middle">2026-04-12 15</text>
  <polyline fill="none" stroke="#2563eb" stroke-width="2.5" points="70.00,50.00 71.51,50.12 73.02,50.17 74.53,50.46 76.05,50.00 77.56,266.90 79.07,50.12 80.58,50.08 82.09,177.46 83.60,211.58 85.12,175.34 86.63,304.14 88.14,200.46 89.65,250.94 91.16,300.01 92.67,300.06 94.19,300.01 95.70,300.01 97.21,348.00 98.72,300.01 100.23,249.99 101.74,200.00 103.26,249.99 104.77,249.99 106.28,250.03 107.79,250.03 109.30,250.03 110.81,250.40 112.33,250.90 113.84,250.90 115.35,251.32 116.86,249.94 118.37,300.01 119.88,299.93 121.40,251.03 122.91,300.68 124.42,250.03 125.93,200.00 127.44,249.99 128.95,250.03 130.47,250.03 131.98,250.03 133.49,300.01 135.00,200.04 136.51,250.03 138.02,250.03 139.53,250.03 141.05,249.90 142.56,250.03 144.07,250.03 145.58,250.94 147.09,250.44 148.60,250.03 150.12,250.03 151.63,300.47 153.14,300.01 154.65,300.43 156.16,250.03 157.67,249.99 159.19,300.43 160.70,249.90 162.21,249.99 163.72,249.99 165.23,200.04 166.74,300.01 168.26,300.01 169.77,300.01 171.28,249.90 172.79,300.01 174.30,250.03 175.81,249.99 177.33,199.96 178.84,300.01 180.35,200.00 181.86,250.36 183.37,250.03 184.88,300.01 186.40,300.01 187.91,250.44 189.42,300.01 190.93,250.03 192.44,250.03 193.95,249.99 195.47,250.49 196.98,250.03 198.49,200.04 200.00,300.01 201.51,250.03 203.02,300.01 204.53,250.11 206.05,300.01 207.56,250.03 209.07,250.03 210.58,199.92 212.09,250.03 213.60,250.03 215.12,250.03 216.63,254.36 218.14,300.01 219.65,299.97 221.16,250.36 222.67,299.97 224.19,250.03 225.70,250.03 227.21,250.03 228.72,250.03 230.23,249.99 231.74,200.00 233.26,299.93 234.77,300.01 236.28,299.97 237.79,249.94 239.30,249.99 240.81,249.82 242.33,249.94 243.84,250.28 245.35,207.00 246.86,250.03 248.37,250.32 249.88,250.40 251.40,300.93 252.91,300.01 254.42,300.10 255.93,249.94 257.44,249.99 258.95,250.07 260.47,249.99 261.98,250.03 263.49,249.94 265.00,200.00 266.51,300.39 268.02,300.01 269.53,300.01 271.05,250.44 272.56,300.39 274.07,249.86 275.58,250.11 277.09,201.46 278.60,300.01 280.12,200.83 281.63,250.03 283.14,249.99 284.65,300.26 286.16,300.01 287.67,300.01 289.19,250.03 290.70,250.03 292.21,250.03 293.72,250.03 295.23,249.99 296.74,250.03 298.26,200.00 299.77,300.26 301.28,249.99 302.79,300.01 304.30,249.94 305.81,250.03 307.33,250.03 308.84,250.03 310.35,200.04 311.86,300.01 313.37,249.90 314.88,300.01 316.40,300.01 317.91,300.06 319.42,300.01 320.93,300.01 322.44,243.95 323.95,249.94 325.47,299.97 326.98,300.01 328.49,300.01 330.00,250.03 331.51,300.01 333.02,300.01 334.53,299.97 336.05,249.99 337.56,300.01 339.07,299.93 340.58,300.01 342.09,299.93 343.60,300.01 345.12,300.01 346.63,299.89 348.14,299.97 349.65,250.03 351.16,299.93 352.67,299.89 354.19,299.97 355.70,249.94 357.21,300.01 358.72,300.01 360.23,299.97 361.74,249.99 363.26,299.97 364.77,299.97 366.28,300.06 367.79,300.06 369.30,299.93 370.81,300.01 372.33,300.01 373.84,299.93 375.35,300.01 376.86,300.01 378.37,299.97 379.88,300.01 381.40,300.01 382.91,300.01 384.42,300.01 385.93,249.86 387.44,300.01 388.95,300.10 390.47,299.93 391.98,300.01 393.49,299.93 395.00,300.01 396.51,300.01 398.02,300.01 399.53,300.01 401.05,300.01 402.56,299.97 404.07,300.01 405.58,300.01 407.09,300.01 408.60,300.01 410.12,250.03 411.63,300.01 413.14,300.01 414.65,299.97 416.16,300.01 417.67,300.01 419.19,299.97 420.70,299.97 422.21,300.01 423.72,299.97 425.23,300.01 426.74,299.93 428.26,300.01 429.77,250.03 431.28,300.01 432.79,300.01 434.30,300.01 435.81,300.01 437.33,300.01 438.84,299.89 440.35,300.01 441.86,300.01 443.37,250.07 444.88,300.01 446.40,299.93 447.91,300.01 449.42,299.97 450.93,299.97 452.44,299.97 453.95,250.03 455.47,300.01 456.98,300.01 458.49,300.01 460.00,300.01 461.51,299.97 463.02,300.01 464.53,299.97 466.05,300.01 467.56,299.97 469.07,249.90 470.58,300.01 472.09,300.01 473.60,299.89 475.12,299.97 476.63,299.97 478.14,249.99 479.65,299.97 481.16,299.89 482.67,300.01 484.19,299.97 485.70,299.97 487.21,300.01 488.72,299.97 490.23,249.99 491.74,299.97 493.26,299.97 494.77,300.06 496.28,300.06 497.79,249.94 499.30,300.01 500.81,299.93 502.33,300.01 503.84,300.01 505.35,249.99 506.86,300.01 508.37,300.01 509.88,300.01 511.40,299.93 512.91,299.93 514.42,300.01 515.93,300.01 517.44,249.94 518.95,299.97 520.47,299.97 521.98,300.01 523.49,300.01 525.00,300.01 526.51,249.99 528.02,300.01 529.53,300.01 531.05,300.01 532.56,250.03 534.07,300.01 535.58,300.01 537.09,300.01 538.60,299.97 540.12,300.01 541.63,300.01 543.14,299.97 544.65,299.97 546.16,300.01 547.67,300.01 549.19,299.97 550.70,299.93 552.21,300.01 553.72,300.06 555.23,299.97 556.74,300.01 558.26,250.03 559.77,250.03 561.28,299.93 562.79,299.97 564.30,300.01 565.81,300.01 567.33,300.06 568.84,300.01 570.35,299.93 571.86,300.01 573.37,300.01 574.88,299.97 576.40,299.97 577.91,300.01 579.42,250.03 580.93,300.01 582.44,300.01 583.95,300.01 585.47,299.97 586.98,300.01 588.49,299.97 590.00,300.01 591.51,299.97 593.02,299.97 594.53,299.93 596.05,300.01 597.56,300.01 599.07,299.89 600.58,299.97 602.09,299.97 603.60,300.06 605.12,249.90 606.63,299.89 608.14,300.01 609.65,299.97 611.16,299.97 612.67,299.97 614.19,300.01 615.70,300.01 617.21,299.97 618.72,299.97 620.23,299.97 621.74,250.03 623.26,299.93 624.77,300.01 626.28,300.01 627.79,299.93 629.30,300.01 630.81,300.01 632.33,299.97 633.84,300.01 635.35,300.01 636.86,300.06 638.37,300.01 639.88,299.97 641.40,299.89 642.91,300.01 644.42,300.01 645.93,249.94 647.44,249.94 648.95,300.01 650.47,300.01 651.98,300.01 653.49,300.01 655.00,299.97 656.51,250.03 658.02,300.01 659.53,300.01 661.05,300.01 662.56,300.01 664.07,250.03 665.58,249.99 667.09,300.01 668.60,299.97 670.12,300.01 671.63,299.97 673.14,300.01 674.65,299.97 676.16,299.97 677.67,299.97 679.19,300.06 680.70,249.99 682.21,300.01 683.72,250.03 685.23,249.94 686.74,249.99 688.26,300.01 689.77,300.06 691.28,300.01 692.79,299.97 694.30,299.97 695.81,300.01 697.33,299.93 698.84,299.89 700.35,299.89 701.86,299.89 703.37,299.89 704.88,299.85 706.40,299.85 707.91,299.89 709.42,299.81 710.93,299.81 712.44,299.81 713.95,299.76 715.47,299.76 716.98,299.76 718.49,299.72 720.00,299.68 721.51,299.60 723.02,299.60 724.53,299.60 726.05,299.56 727.56,299.47 729.07,299.43 730.58,299.43 732.09,299.39 733.60,299.47 735.12,259.82 736.63,338.96 738.14,299.31 739.65,299.31 741.16,299.26 742.67,299.68 744.19,299.68 745.70,299.68 747.21,299.64 748.72,299.14 750.23,299.14 751.74,299.10 753.26,299.10 754.77,299.10 756.28,248.07 757.79,299.06 759.30,299.06 760.81,299.06 762.33,299.06 763.84,299.06 765.35,298.97 766.86,298.97 768.37,298.93 769.88,298.97 771.40,298.93 772.91,298.89 774.42,298.89 775.93,298.89 777.44,298.89 778.95,247.78 780.47,298.89 781.98,298.89 783.49,298.85 785.00,298.85 786.51,298.81 788.02,298.81 789.53,298.81 791.05,298.81 792.56,298.81 794.07,298.81 795.58,298.81 797.09,298.81 798.60,298.81 800.12,298.72 801.63,247.45 803.14,247.45 804.65,298.72 806.16,298.72 807.67,298.72 809.19,298.72 810.70,298.72 812.21,298.72 813.72,247.36 815.23,298.68 816.74,247.36 818.26,247.36 819.77,247.36 821.28,298.68 822.79,298.68 824.30,298.68 825.81,298.68 827.33,298.68 828.84,341.67 830.35,307.01 831.86,298.68 833.37,298.68 834.88,298.68 836.40,247.36 837.91,298.64 839.42,247.36 840.93,247.28 842.44,247.20 843.95,298.60 845.47,298.60 846.98,247.03 848.49,298.51 850.00,298.51 851.51,298.51 853.02,298.51 854.53,298.51 856.05,298.51 857.56,298.51 859.07,298.51 860.58,298.51 862.09,298.51 863.60,298.51 865.12,298.51 866.63,298.51 868.14,298.51 869.65,298.51 871.16,298.51 872.67,298.51 874.19,298.51 875.70,298.51 877.21,298.51 878.72,298.51 880.23,298.51 881.74,298.51 883.26,298.51 884.77,298.51 886.28,298.51 887.79,298.47 889.30,298.51 890.81,298.51 892.33,298.47 893.84,298.51 895.35,298.47 896.86,298.51 898.37,298.43 899.88,298.56 901.40,298.43 902.91,298.43 904.42,298.43 905.93,298.43 907.44,298.43 908.95,298.43 910.47,298.43 911.98,298.43 913.49,298.43 915.00,298.43 916.51,298.43 918.02,298.43 919.53,298.43 921.05,298.43 922.56,298.43 924.07,298.43 925.58,298.43 927.09,298.43 928.60,298.43 930.12,298.43 931.63,298.43 933.14,298.43 934.65,298.43 936.16,298.43 937.67,298.43 939.19,298.43 940.70,298.43 942.21,298.43 943.72,298.43 945.23,298.43 946.74,298.43 948.26,298.43 949.77,298.43 951.28,298.43 952.79,298.39 954.30,298.39 955.81,298.43 957.33,298.43 958.84,298.39 960.35,298.39 961.86,298.39 963.37,298.43 964.88,298.43 966.40,298.43 967.91,246.82 969.42,298.43 970.93,246.78 972.44,246.78 973.95,246.78 975.47,246.70 976.98,246.78 978.49,298.39 980.00,298.39"/>
  <circle cx="70.00" cy="50.00" r="2.5" fill="#2563eb"/>
  <circle cx="71.51" cy="50.12" r="2.5" fill="#2563eb"/>
  <circle cx="73.02" cy="50.17" r="2.5" fill="#2563eb"/>
  <circle cx="74.53" cy="50.46" r="2.5" fill="#2563eb"/>
  <circle cx="76.05" cy="50.00" r="2.5" fill="#2563eb"/>
  <circle cx="77.56" cy="266.90" r="2.5" fill="#2563eb"/>
  <circle cx="79.07" cy="50.12" r="2.5" fill="#2563eb"/>
  <circle cx="80.58" cy="50.08" r="2.5" fill="#2563eb"/>
  <circle cx="82.09" cy="177.46" r="2.5" fill="#2563eb"/>
  <circle cx="83.60" cy="211.58" r="2.5" fill="#2563eb"/>
  <circle cx="85.12" cy="175.34" r="2.5" fill="#2563eb"/>
  <circle cx="86.63" cy="304.14" r="2.5" fill="#2563eb"/>
  <circle cx="88.14" cy="200.46" r="2.5" fill="#2563eb"/>
  <circle cx="89.65" cy="250.94" r="2.5" fill="#2563eb"/>
  <circle cx="91.16" cy="300.01" r="2.5" fill="#2563eb"/>
  <circle cx="92.67" cy="300.06" r="2.5" fill="#2563eb"/>
  <circle cx="94.19" cy="300.01" r="2.5" fill="#2563eb"/>
  <circle cx="95.70" cy="300.01" r="2.5" fill="#2563eb"/>
  <circle cx="97.21" cy="348.00" r="2.5" fill="#2563eb"/>
  <circle cx="98.72" cy="300.01" r="2.5" fill="#2563eb"/>
  <circle cx="100.23" cy="249.99" r="2.5" fill="#2563eb"/>
  <circle cx="101.74" cy="200.00" r="2.5" fill="#2563eb"/>
  <circle cx="103.26" cy="249.99" r="2.5" fill="#2563eb"/>
  <circle cx="104.77" cy="249.99" r="2.5" fill="#2563eb"/>
  <circle cx="106.28" cy="250.03" r="2.5" fill="#2563eb"/>
  <circle cx="107.79" cy="250.03" r="2.5" fill="#2563eb"/>
  <circle cx="109.30" cy="250.03" r="2.5" fill="#2563eb"/>
  <circle cx="110.81" cy="250.40" r="2.5" fill="#2563eb"/>
  <circle cx="112.33" cy="250.90" r="2.5" fill="#2563eb"/>
  <circle cx="113.84" cy="250.90" r="2.5" fill="#2563eb"/>
  <circle cx="115.35" cy="251.32" r="2.5" fill="#2563eb"/>
  <circle cx="116.86" cy="249.94" r="2.5" fill="#2563eb"/>
  <circle cx="118.37" cy="300.01" r="2.5" fill="#2563eb"/>
  <circle cx="119.88" cy="299.93" r="2.5" fill="#2563eb"/>
  <circle cx="121.40" cy="251.03" r="2.5" fill="#2563eb"/>
  <circle cx="122.91" cy="300.68" r="2.5" fill="#2563eb"/>
  <circle cx="124.42" cy="250.03" r="2.5" fill="#2563eb"/>
  <circle cx="125.93" cy="200.00" r="2.5" fill="#2563eb"/>
  <circle cx="127.44" cy="249.99" r="2.5" fill="#2563eb"/>
  <circle cx="128.95" cy="250.03" r="2.5" fill="#2563eb"/>
  <circle cx="130.47" cy="250.03" r="2.5" fill="#2563eb"/>
  <circle cx="131.98" cy="250.03" r="2.5" fill="#2563eb"/>
  <circle cx="133.49" cy="300.01" r="2.5" fill="#2563eb"/>
  <circle cx="135.00" cy="200.04" r="2.5" fill="#2563eb"/>
  <circle cx="136.51" cy="250.03" r="2.5" fill="#2563eb"/>
  <circle cx="138.02" cy="250.03" r="2.5" fill="#2563eb"/>
  <circle cx="139.53" cy="250.03" r="2.5" fill="#2563eb"/>
  <circle cx="141.05" cy="249.90" r="2.5" fill="#2563eb"/>
  <circle cx="142.56" cy="250.03" r="2.5" fill="#2563eb"/>
  <circle cx="144.07" cy="250.03" r="2.5" fill="#2563eb"/>
  <circle cx="145.58" cy="250.94" r="2.5" fill="#2563eb"/>
  <circle cx="147.09" cy="250.44" r="2.5" fill="#2563eb"/>
  <circle cx="148.60" cy="250.03" r="2.5" fill="#2563eb"/>
  <circle cx="150.12" cy="250.03" r="2.5" fill="#2563eb"/>
  <circle cx="151.63" cy="300.47" r="2.5" fill="#2563eb"/>
  <circle cx="153.14" cy="300.01" r="2.5" fill="#2563eb"/>
  <circle cx="154.65" cy="300.43" r="2.5" fill="#2563eb"/>
  <circle cx="156.16" cy="250.03" r="2.5" fill="#2563eb"/>
  <circle cx="157.67" cy="249.99" r="2.5" fill="#2563eb"/>
  <circle cx="159.19" cy="300.43" r="2.5" fill="#2563eb"/>
  <circle cx="160.70" cy="249.90" r="2.5" fill="#2563eb"/>
  <circle cx="162.21" cy="249.99" r="2.5" fill="#2563eb"/>
  <circle cx="163.72" cy="249.99" r="2.5" fill="#2563eb"/>
  <circle cx="165.23" cy="200.04" r="2.5" fill="#2563eb"/>
  <circle cx="166.74" cy="300.01" r="2.5" fill="#2563eb"/>
  <circle cx="168.26" cy="300.01" r="2.5" fill="#2563eb"/>
  <circle cx="169.77" cy="300.01" r="2.5" fill="#2563eb"/>
  <circle cx="171.28" cy="249.90" r="2.5" fill="#2563eb"/>
  <circle cx="172.79" cy="300.01" r="2.5" fill="#2563eb"/>
  <circle cx="174.30" cy="250.03" r="2.5" fill="#2563eb"/>
  <circle cx="175.81" cy="249.99" r="2.5" fill="#2563eb"/>
  <circle cx="177.33" cy="199.96" r="2.5" fill="#2563eb"/>
  <circle cx="178.84" cy="300.01" r="2.5" fill="#2563eb"/>
  <circle cx="180.35" cy="200.00" r="2.5" fill="#2563eb"/>
  <circle cx="181.86" cy="250.36" r="2.5" fill="#2563eb"/>
  <circle cx="183.37" cy="250.03" r="2.5" fill="#2563eb"/>
  <circle cx="184.88" cy="300.01" r="2.5" fill="#2563eb"/>
  <circle cx="186.40" cy="300.01" r="2.5" fill="#2563eb"/>
  <circle cx="187.91" cy="250.44" r="2.5" fill="#2563eb"/>
  <circle cx="189.42" cy="300.01" r="2.5" fill="#2563eb"/>
  <circle cx="190.93" cy="250.03" r="2.5" fill="#2563eb"/>
  <circle cx="192.44" cy="250.03" r="2.5" fill="#2563eb"/>
  <circle cx="193.95" cy="249.99" r="2.5" fill="#2563eb"/>
  <circle cx="195.47" cy="250.49" r="2.5" fill="#2563eb"/>
  <circle cx="196.98" cy="250.03" r="2.5" fill="#2563eb"/>
  <circle cx="198.49" cy="200.04" r="2.5" fill="#2563eb"/>
  <circle cx="200.00" cy="300.01" r="2.5" fill="#2563eb"/>
  <circle cx="201.51" cy="250.03" r="2.5" fill="#2563eb"/>
  <circle cx="203.02" cy="300.01" r="2.5" fill="#2563eb"/>
  <circle cx="204.53" cy="250.11" r="2.5" fill="#2563eb"/>
  <circle cx="206.05" cy="300.01" r="2.5" fill="#2563eb"/>
  <circle cx="207.56" cy="250.03" r="2.5" fill="#2563eb"/>
  <circle cx="209.07" cy="250.03" r="2.5" fill="#2563eb"/>
  <circle cx="210.58" cy="199.92" r="2.5" fill="#2563eb"/>
  <circle cx="212.09" cy="250.03" r="2.5" fill="#2563eb"/>
  <circle cx="213.60" cy="250.03" r="2.5" fill="#2563eb"/>
  <circle cx="215.12" cy="250.03" r="2.5" fill="#2563eb"/>
  <circle cx="216.63" cy="254.36" r="2.5" fill="#2563eb"/>
  <circle cx="218.14" cy="300.01" r="2.5" fill="#2563eb"/>
  <circle cx="219.65" cy="299.97" r="2.5" fill="#2563eb"/>
  <circle cx="221.16" cy="250.36" r="2.5" fill="#2563eb"/>
  <circle cx="222.67" cy="299.97" r="2.5" fill="#2563eb"/>
  <circle cx="224.19" cy="250.03" r="2.5" fill="#2563eb"/>
  <circle cx="225.70" cy="250.03" r="2.5" fill="#2563eb"/>
  <circle cx="227.21" cy="250.03" r="2.5" fill="#2563eb"/>
  <circle cx="228.72" cy="250.03" r="2.5" fill="#2563eb"/>
  <circle cx="230.23" cy="249.99" r="2.5" fill="#2563eb"/>
  <circle cx="231.74" cy="200.00" r="2.5" fill="#2563eb"/>
  <circle cx="233.26" cy="299.93" r="2.5" fill="#2563eb"/>
  <circle cx="234.77" cy="300.01" r="2.5" fill="#2563eb"/>
  <circle cx="236.28" cy="299.97" r="2.5" fill="#2563eb"/>
  <circle cx="237.79" cy="249.94" r="2.5" fill="#2563eb"/>
  <circle cx="239.30" cy="249.99" r="2.5" fill="#2563eb"/>
  <circle cx="240.81" cy="249.82" r="2.5" fill="#2563eb"/>
  <circle cx="242.33" cy="249.94" r="2.5" fill="#2563eb"/>
  <circle cx="243.84" cy="250.28" r="2.5" fill="#2563eb"/>
  <circle cx="245.35" cy="207.00" r="2.5" fill="#2563eb"/>
  <circle cx="246.86" cy="250.03" r="2.5" fill="#2563eb"/>
  <circle cx="248.37" cy="250.32" r="2.5" fill="#2563eb"/>
  <circle cx="249.88" cy="250.40" r="2.5" fill="#2563eb"/>
  <circle cx="251.40" cy="300.93" r="2.5" fill="#2563eb"/>
  <circle cx="252.91" cy="300.01" r="2.5" fill="#2563eb"/>
  <circle cx="254.42" cy="300.10" r="2.5" fill="#2563eb"/>
  <circle cx="255.93" cy="249.94" r="2.5" fill="#2563eb"/>
  <circle cx="257.44" cy="249.99" r="2.5" fill="#2563eb"/>
  <circle cx="258.95" cy="250.07" r="2.5" fill="#2563eb"/>
  <circle cx="260.47" cy="249.99" r="2.5" fill="#2563eb"/>
  <circle cx="261.98" cy="250.03" r="2.5" fill="#2563eb"/>
  <circle cx="263.49" cy="249.94" r="2.5" fill="#2563eb"/>
  <circle cx="265.00" cy="200.00" r="2.5" fill="#2563eb"/>
  <circle cx="266.51" cy="300.39" r="2.5" fill="#2563eb"/>
  <circle cx="268.02" cy="300.01" r="2.5" fill="#2563eb"/>
  <circle cx="269.53" cy="300.01" r="2.5" fill="#2563eb"/>
  <circle cx="271.05" cy="250.44" r="2.5" fill="#2563eb"/>
  <circle cx="272.56" cy="300.39" r="2.5" fill="#2563eb"/>
  <circle cx="274.07" cy="249.86" r="2.5" fill="#2563eb"/>
  <circle cx="275.58" cy="250.11" r="2.5" fill="#2563eb"/>
  <circle cx="277.09" cy="201.46" r="2.5" fill="#2563eb"/>
  <circle cx="278.60" cy="300.01" r="2.5" fill="#2563eb"/>
  <circle cx="280.12" cy="200.83" r="2.5" fill="#2563eb"/>
  <circle cx="281.63" cy="250.03" r="2.5" fill="#2563eb"/>
  <circle cx="283.14" cy="249.99" r="2.5" fill="#2563eb"/>
  <circle cx="284.65" cy="300.26" r="2.5" fill="#2563eb"/>
  <circle cx="286.16" cy="300.01" r="2.5" fill="#2563eb"/>
  <circle cx="287.67" cy="300.01" r="2.5" fill="#2563eb"/>
  <circle cx="289.19" cy="250.03" r="2.5" fill="#2563eb"/>
  <circle cx="290.70" cy="250.03" r="2.5" fill="#2563eb"/>
  <circle cx="292.21" cy="250.03" r="2.5" fill="#2563eb"/>
  <circle cx="293.72" cy="250.03" r="2.5" fill="#2563eb"/>
  <circle cx="295.23" cy="249.99" r="2.5" fill="#2563eb"/>
  <circle cx="296.74" cy="250.03" r="2.5" fill="#2563eb"/>
  <circle cx="298.26" cy="200.00" r="2.5" fill="#2563eb"/>
  <circle cx="299.77" cy="300.26" r="2.5" fill="#2563eb"/>
  <circle cx="301.28" cy="249.99" r="2.5" fill="#2563eb"/>
  <circle cx="302.79" cy="300.01" r="2.5" fill="#2563eb"/>
  <circle cx="304.30" cy="249.94" r="2.5" fill="#2563eb"/>
  <circle cx="305.81" cy="250.03" r="2.5" fill="#2563eb"/>
  <circle cx="307.33" cy="250.03" r="2.5" fill="#2563eb"/>
  <circle cx="308.84" cy="250.03" r="2.5" fill="#2563eb"/>
  <circle cx="310.35" cy="200.04" r="2.5" fill="#2563eb"/>
  <circle cx="311.86" cy="300.01" r="2.5" fill="#2563eb"/>
  <circle cx="313.37" cy="249.90" r="2.5" fill="#2563eb"/>
  <circle cx="314.88" cy="300.01" r="2.5" fill="#2563eb"/>
  <circle cx="316.40" cy="300.01" r="2.5" fill="#2563eb"/>
  <circle cx="317.91" cy="300.06" r="2.5" fill="#2563eb"/>
  <circle cx="319.42" cy="300.01" r="2.5" fill="#2563eb"/>
  <circle cx="320.93" cy="300.01" r="2.5" fill="#2563eb"/>
  <circle cx="322.44" cy="243.95" r="2.5" fill="#2563eb"/>
  <circle cx="323.95" cy="249.94" r="2.5" fill="#2563eb"/>
  <circle cx="325.47" cy="299.97" r="2.5" fill="#2563eb"/>
  <circle cx="326.98" cy="300.01" r="2.5" fill="#2563eb"/>
  <circle cx="328.49" cy="300.01" r="2.5" fill="#2563eb"/>
  <circle cx="330.00" cy="250.03" r="2.5" fill="#2563eb"/>
  <circle cx="331.51" cy="300.01" r="2.5" fill="#2563eb"/>
  <circle cx="333.02" cy="300.01" r="2.5" fill="#2563eb"/>
  <circle cx="334.53" cy="299.97" r="2.5" fill="#2563eb"/>
  <circle cx="336.05" cy="249.99" r="2.5" fill="#2563eb"/>
  <circle cx="337.56" cy="300.01" r="2.5" fill="#2563eb"/>
  <circle cx="339.07" cy="299.93" r="2.5" fill="#2563eb"/>
  <circle cx="340.58" cy="300.01" r="2.5" fill="#2563eb"/>
  <circle cx="342.09" cy="299.93" r="2.5" fill="#2563eb"/>
  <circle cx="343.60" cy="300.01" r="2.5" fill="#2563eb"/>
  <circle cx="345.12" cy="300.01" r="2.5" fill="#2563eb"/>
  <circle cx="346.63" cy="299.89" r="2.5" fill="#2563eb"/>
  <circle cx="348.14" cy="299.97" r="2.5" fill="#2563eb"/>
  <circle cx="349.65" cy="250.03" r="2.5" fill="#2563eb"/>
  <circle cx="351.16" cy="299.93" r="2.5" fill="#2563eb"/>
  <circle cx="352.67" cy="299.89" r="2.5" fill="#2563eb"/>
  <circle cx="354.19" cy="299.97" r="2.5" fill="#2563eb"/>
  <circle cx="355.70" cy="249.94" r="2.5" fill="#2563eb"/>
  <circle cx="357.21" cy="300.01" r="2.5" fill="#2563eb"/>
  <circle cx="358.72" cy="300.01" r="2.5" fill="#2563eb"/>
  <circle cx="360.23" cy="299.97" r="2.5" fill="#2563eb"/>
  <circle cx="361.74" cy="249.99" r="2.5" fill="#2563eb"/>
  <circle cx="363.26" cy="299.97" r="2.5" fill="#2563eb"/>
  <circle cx="364.77" cy="299.97" r="2.5" fill="#2563eb"/>
  <circle cx="366.28" cy="300.06" r="2.5" fill="#2563eb"/>
  <circle cx="367.79" cy="300.06" r="2.5" fill="#2563eb"/>
  <circle cx="369.30" cy="299.93" r="2.5" fill="#2563eb"/>
  <circle cx="370.81" cy="300.01" r="2.5" fill="#2563eb"/>
  <circle cx="372.33" cy="300.01" r="2.5" fill="#2563eb"/>
  <circle cx="373.84" cy="299.93" r="2.5" fill="#2563eb"/>
  <circle cx="375.35" cy="300.01" r="2.5" fill="#2563eb"/>
  <circle cx="376.86" cy="300.01" r="2.5" fill="#2563eb"/>
  <circle cx="378.37" cy="299.97" r="2.5" fill="#2563eb"/>
  <circle cx="379.88" cy="300.01" r="2.5" fill="#2563eb"/>
  <circle cx="381.40" cy="300.01" r="2.5" fill="#2563eb"/>
  <circle cx="382.91" cy="300.01" r="2.5" fill="#2563eb"/>
  <circle cx="384.42" cy="300.01" r="2.5" fill="#2563eb"/>
  <circle cx="385.93" cy="249.86" r="2.5" fill="#2563eb"/>
  <circle cx="387.44" cy="300.01" r="2.5" fill="#2563eb"/>
  <circle cx="388.95" cy="300.10" r="2.5" fill="#2563eb"/>
  <circle cx="390.47" cy="299.93" r="2.5" fill="#2563eb"/>
  <circle cx="391.98" cy="300.01" r="2.5" fill="#2563eb"/>
  <circle cx="393.49" cy="299.93" r="2.5" fill="#2563eb"/>
  <circle cx="395.00" cy="300.01" r="2.5" fill="#2563eb"/>
  <circle cx="396.51" cy="300.01" r="2.5" fill="#2563eb"/>
  <circle cx="398.02" cy="300.01" r="2.5" fill="#2563eb"/>
  <circle cx="399.53" cy="300.01" r="2.5" fill="#2563eb"/>
  <circle cx="401.05" cy="300.01" r="2.5" fill="#2563eb"/>
  <circle cx="402.56" cy="299.97" r="2.5" fill="#2563eb"/>
  <circle cx="404.07" cy="300.01" r="2.5" fill="#2563eb"/>
  <circle cx="405.58" cy="300.01" r="2.5" fill="#2563eb"/>
  <circle cx="407.09" cy="300.01" r="2.5" fill="#2563eb"/>
  <circle cx="408.60" cy="300.01" r="2.5" fill="#2563eb"/>
  <circle cx="410.12" cy="250.03" r="2.5" fill="#2563eb"/>
  <circle cx="411.63" cy="300.01" r="2.5" fill="#2563eb"/>
  <circle cx="413.14" cy="300.01" r="2.5" fill="#2563eb"/>
  <circle cx="414.65" cy="299.97" r="2.5" fill="#2563eb"/>
  <circle cx="416.16" cy="300.01" r="2.5" fill="#2563eb"/>
  <circle cx="417.67" cy="300.01" r="2.5" fill="#2563eb"/>
  <circle cx="419.19" cy="299.97" r="2.5" fill="#2563eb"/>
  <circle cx="420.70" cy="299.97" r="2.5" fill="#2563eb"/>
  <circle cx="422.21" cy="300.01" r="2.5" fill="#2563eb"/>
  <circle cx="423.72" cy="299.97" r="2.5" fill="#2563eb"/>
  <circle cx="425.23" cy="300.01" r="2.5" fill="#2563eb"/>
  <circle cx="426.74" cy="299.93" r="2.5" fill="#2563eb"/>
  <circle cx="428.26" cy="300.01" r="2.5" fill="#2563eb"/>
  <circle cx="429.77" cy="250.03" r="2.5" fill="#2563eb"/>
  <circle cx="431.28" cy="300.01" r="2.5" fill="#2563eb"/>
  <circle cx="432.79" cy="300.01" r="2.5" fill="#2563eb"/>
  <circle cx="434.30" cy="300.01" r="2.5" fill="#2563eb"/>
  <circle cx="435.81" cy="300.01" r="2.5" fill="#2563eb"/>
  <circle cx="437.33" cy="300.01" r="2.5" fill="#2563eb"/>
  <circle cx="438.84" cy="299.89" r="2.5" fill="#2563eb"/>
  <circle cx="440.35" cy="300.01" r="2.5" fill="#2563eb"/>
  <circle cx="441.86" cy="300.01" r="2.5" fill="#2563eb"/>
  <circle cx="443.37" cy="250.07" r="2.5" fill="#2563eb"/>
  <circle cx="444.88" cy="300.01" r="2.5" fill="#2563eb"/>
  <circle cx="446.40" cy="299.93" r="2.5" fill="#2563eb"/>
  <circle cx="447.91" cy="300.01" r="2.5" fill="#2563eb"/>
  <circle cx="449.42" cy="299.97" r="2.5" fill="#2563eb"/>
  <circle cx="450.93" cy="299.97" r="2.5" fill="#2563eb"/>
  <circle cx="452.44" cy="299.97" r="2.5" fill="#2563eb"/>
  <circle cx="453.95" cy="250.03" r="2.5" fill="#2563eb"/>
  <circle cx="455.47" cy="300.01" r="2.5" fill="#2563eb"/>
  <circle cx="456.98" cy="300.01" r="2.5" fill="#2563eb"/>
  <circle cx="458.49" cy="300.01" r="2.5" fill="#2563eb"/>
  <circle cx="460.00" cy="300.01" r="2.5" fill="#2563eb"/>
  <circle cx="461.51" cy="299.97" r="2.5" fill="#2563eb"/>
  <circle cx="463.02" cy="300.01" r="2.5" fill="#2563eb"/>
  <circle cx="464.53" cy="299.97" r="2.5" fill="#2563eb"/>
  <circle cx="466.05" cy="300.01" r="2.5" fill="#2563eb"/>
  <circle cx="467.56" cy="299.97" r="2.5" fill="#2563eb"/>
  <circle cx="469.07" cy="249.90" r="2.5" fill="#2563eb"/>
  <circle cx="470.58" cy="300.01" r="2.5" fill="#2563eb"/>
  <circle cx="472.09" cy="300.01" r="2.5" fill="#2563eb"/>
  <circle cx="473.60" cy="299.89" r="2.5" fill="#2563eb"/>
  <circle cx="475.12" cy="299.97" r="2.5" fill="#2563eb"/>
  <circle cx="476.63" cy="299.97" r="2.5" fill="#2563eb"/>
  <circle cx="478.14" cy="249.99" r="2.5" fill="#2563eb"/>
  <circle cx="479.65" cy="299.97" r="2.5" fill="#2563eb"/>
  <circle cx="481.16" cy="299.89" r="2.5" fill="#2563eb"/>
  <circle cx="482.67" cy="300.01" r="2.5" fill="#2563eb"/>
  <circle cx="484.19" cy="299.97" r="2.5" fill="#2563eb"/>
  <circle cx="485.70" cy="299.97" r="2.5" fill="#2563eb"/>
  <circle cx="487.21" cy="300.01" r="2.5" fill="#2563eb"/>
  <circle cx="488.72" cy="299.97" r="2.5" fill="#2563eb"/>
  <circle cx="490.23" cy="249.99" r="2.5" fill="#2563eb"/>
  <circle cx="491.74" cy="299.97" r="2.5" fill="#2563eb"/>
  <circle cx="493.26" cy="299.97" r="2.5" fill="#2563eb"/>
  <circle cx="494.77" cy="300.06" r="2.5" fill="#2563eb"/>
  <circle cx="496.28" cy="300.06" r="2.5" fill="#2563eb"/>
  <circle cx="497.79" cy="249.94" r="2.5" fill="#2563eb"/>
  <circle cx="499.30" cy="300.01" r="2.5" fill="#2563eb"/>
  <circle cx="500.81" cy="299.93" r="2.5" fill="#2563eb"/>
  <circle cx="502.33" cy="300.01" r="2.5" fill="#2563eb"/>
  <circle cx="503.84" cy="300.01" r="2.5" fill="#2563eb"/>
  <circle cx="505.35" cy="249.99" r="2.5" fill="#2563eb"/>
  <circle cx="506.86" cy="300.01" r="2.5" fill="#2563eb"/>
  <circle cx="508.37" cy="300.01" r="2.5" fill="#2563eb"/>
  <circle cx="509.88" cy="300.01" r="2.5" fill="#2563eb"/>
  <circle cx="511.40" cy="299.93" r="2.5" fill="#2563eb"/>
  <circle cx="512.91" cy="299.93" r="2.5" fill="#2563eb"/>
  <circle cx="514.42" cy="300.01" r="2.5" fill="#2563eb"/>
  <circle cx="515.93" cy="300.01" r="2.5" fill="#2563eb"/>
  <circle cx="517.44" cy="249.94" r="2.5" fill="#2563eb"/>
  <circle cx="518.95" cy="299.97" r="2.5" fill="#2563eb"/>
  <circle cx="520.47" cy="299.97" r="2.5" fill="#2563eb"/>
  <circle cx="521.98" cy="300.01" r="2.5" fill="#2563eb"/>
  <circle cx="523.49" cy="300.01" r="2.5" fill="#2563eb"/>
  <circle cx="525.00" cy="300.01" r="2.5" fill="#2563eb"/>
  <circle cx="526.51" cy="249.99" r="2.5" fill="#2563eb"/>
  <circle cx="528.02" cy="300.01" r="2.5" fill="#2563eb"/>
  <circle cx="529.53" cy="300.01" r="2.5" fill="#2563eb"/>
  <circle cx="531.05" cy="300.01" r="2.5" fill="#2563eb"/>
  <circle cx="532.56" cy="250.03" r="2.5" fill="#2563eb"/>
  <circle cx="534.07" cy="300.01" r="2.5" fill="#2563eb"/>
  <circle cx="535.58" cy="300.01" r="2.5" fill="#2563eb"/>
  <circle cx="537.09" cy="300.01" r="2.5" fill="#2563eb"/>
  <circle cx="538.60" cy="299.97" r="2.5" fill="#2563eb"/>
  <circle cx="540.12" cy="300.01" r="2.5" fill="#2563eb"/>
  <circle cx="541.63" cy="300.01" r="2.5" fill="#2563eb"/>
  <circle cx="543.14" cy="299.97" r="2.5" fill="#2563eb"/>
  <circle cx="544.65" cy="299.97" r="2.5" fill="#2563eb"/>
  <circle cx="546.16" cy="300.01" r="2.5" fill="#2563eb"/>
  <circle cx="547.67" cy="300.01" r="2.5" fill="#2563eb"/>
  <circle cx="549.19" cy="299.97" r="2.5" fill="#2563eb"/>
  <circle cx="550.70" cy="299.93" r="2.5" fill="#2563eb"/>
  <circle cx="552.21" cy="300.01" r="2.5" fill="#2563eb"/>
  <circle cx="553.72" cy="300.06" r="2.5" fill="#2563eb"/>
  <circle cx="555.23" cy="299.97" r="2.5" fill="#2563eb"/>
  <circle cx="556.74" cy="300.01" r="2.5" fill="#2563eb"/>
  <circle cx="558.26" cy="250.03" r="2.5" fill="#2563eb"/>
  <circle cx="559.77" cy="250.03" r="2.5" fill="#2563eb"/>
  <circle cx="561.28" cy="299.93" r="2.5" fill="#2563eb"/>
  <circle cx="562.79" cy="299.97" r="2.5" fill="#2563eb"/>
  <circle cx="564.30" cy="300.01" r="2.5" fill="#2563eb"/>
  <circle cx="565.81" cy="300.01" r="2.5" fill="#2563eb"/>
  <circle cx="567.33" cy="300.06" r="2.5" fill="#2563eb"/>
  <circle cx="568.84" cy="300.01" r="2.5" fill="#2563eb"/>
  <circle cx="570.35" cy="299.93" r="2.5" fill="#2563eb"/>
  <circle cx="571.86" cy="300.01" r="2.5" fill="#2563eb"/>
  <circle cx="573.37" cy="300.01" r="2.5" fill="#2563eb"/>
  <circle cx="574.88" cy="299.97" r="2.5" fill="#2563eb"/>
  <circle cx="576.40" cy="299.97" r="2.5" fill="#2563eb"/>
  <circle cx="577.91" cy="300.01" r="2.5" fill="#2563eb"/>
  <circle cx="579.42" cy="250.03" r="2.5" fill="#2563eb"/>
  <circle cx="580.93" cy="300.01" r="2.5" fill="#2563eb"/>
  <circle cx="582.44" cy="300.01" r="2.5" fill="#2563eb"/>
  <circle cx="583.95" cy="300.01" r="2.5" fill="#2563eb"/>
  <circle cx="585.47" cy="299.97" r="2.5" fill="#2563eb"/>
  <circle cx="586.98" cy="300.01" r="2.5" fill="#2563eb"/>
  <circle cx="588.49" cy="299.97" r="2.5" fill="#2563eb"/>
  <circle cx="590.00" cy="300.01" r="2.5" fill="#2563eb"/>
  <circle cx="591.51" cy="299.97" r="2.5" fill="#2563eb"/>
  <circle cx="593.02" cy="299.97" r="2.5" fill="#2563eb"/>
  <circle cx="594.53" cy="299.93" r="2.5" fill="#2563eb"/>
  <circle cx="596.05" cy="300.01" r="2.5" fill="#2563eb"/>
  <circle cx="597.56" cy="300.01" r="2.5" fill="#2563eb"/>
  <circle cx="599.07" cy="299.89" r="2.5" fill="#2563eb"/>
  <circle cx="600.58" cy="299.97" r="2.5" fill="#2563eb"/>
  <circle cx="602.09" cy="299.97" r="2.5" fill="#2563eb"/>
  <circle cx="603.60" cy="300.06" r="2.5" fill="#2563eb"/>
  <circle cx="605.12" cy="249.90" r="2.5" fill="#2563eb"/>
  <circle cx="606.63" cy="299.89" r="2.5" fill="#2563eb"/>
  <circle cx="608.14" cy="300.01" r="2.5" fill="#2563eb"/>
  <circle cx="609.65" cy="299.97" r="2.5" fill="#2563eb"/>
  <circle cx="611.16" cy="299.97" r="2.5" fill="#2563eb"/>
  <circle cx="612.67" cy="299.97" r="2.5" fill="#2563eb"/>
  <circle cx="614.19" cy="300.01" r="2.5" fill="#2563eb"/>
  <circle cx="615.70" cy="300.01" r="2.5" fill="#2563eb"/>
  <circle cx="617.21" cy="299.97" r="2.5" fill="#2563eb"/>
  <circle cx="618.72" cy="299.97" r="2.5" fill="#2563eb"/>
  <circle cx="620.23" cy="299.97" r="2.5" fill="#2563eb"/>
  <circle cx="621.74" cy="250.03" r="2.5" fill="#2563eb"/>
  <circle cx="623.26" cy="299.93" r="2.5" fill="#2563eb"/>
  <circle cx="624.77" cy="300.01" r="2.5" fill="#2563eb"/>
  <circle cx="626.28" cy="300.01" r="2.5" fill="#2563eb"/>
  <circle cx="627.79" cy="299.93" r="2.5" fill="#2563eb"/>
  <circle cx="629.30" cy="300.01" r="2.5" fill="#2563eb"/>
  <circle cx="630.81" cy="300.01" r="2.5" fill="#2563eb"/>
  <circle cx="632.33" cy="299.97" r="2.5" fill="#2563eb"/>
  <circle cx="633.84" cy="300.01" r="2.5" fill="#2563eb"/>
  <circle cx="635.35" cy="300.01" r="2.5" fill="#2563eb"/>
  <circle cx="636.86" cy="300.06" r="2.5" fill="#2563eb"/>
  <circle cx="638.37" cy="300.01" r="2.5" fill="#2563eb"/>
  <circle cx="639.88" cy="299.97" r="2.5" fill="#2563eb"/>
  <circle cx="641.40" cy="299.89" r="2.5" fill="#2563eb"/>
  <circle cx="642.91" cy="300.01" r="2.5" fill="#2563eb"/>
  <circle cx="644.42" cy="300.01" r="2.5" fill="#2563eb"/>
  <circle cx="645.93" cy="249.94" r="2.5" fill="#2563eb"/>
  <circle cx="647.44" cy="249.94" r="2.5" fill="#2563eb"/>
  <circle cx="648.95" cy="300.01" r="2.5" fill="#2563eb"/>
  <circle cx="650.47" cy="300.01" r="2.5" fill="#2563eb"/>
  <circle cx="651.98" cy="300.01" r="2.5" fill="#2563eb"/>
  <circle cx="653.49" cy="300.01" r="2.5" fill="#2563eb"/>
  <circle cx="655.00" cy="299.97" r="2.5" fill="#2563eb"/>
  <circle cx="656.51" cy="250.03" r="2.5" fill="#2563eb"/>
  <circle cx="658.02" cy="300.01" r="2.5" fill="#2563eb"/>
  <circle cx="659.53" cy="300.01" r="2.5" fill="#2563eb"/>
  <circle cx="661.05" cy="300.01" r="2.5" fill="#2563eb"/>
  <circle cx="662.56" cy="300.01" r="2.5" fill="#2563eb"/>
  <circle cx="664.07" cy="250.03" r="2.5" fill="#2563eb"/>
  <circle cx="665.58" cy="249.99" r="2.5" fill="#2563eb"/>
  <circle cx="667.09" cy="300.01" r="2.5" fill="#2563eb"/>
  <circle cx="668.60" cy="299.97" r="2.5" fill="#2563eb"/>
  <circle cx="670.12" cy="300.01" r="2.5" fill="#2563eb"/>
  <circle cx="671.63" cy="299.97" r="2.5" fill="#2563eb"/>
  <circle cx="673.14" cy="300.01" r="2.5" fill="#2563eb"/>
  <circle cx="674.65" cy="299.97" r="2.5" fill="#2563eb"/>
  <circle cx="676.16" cy="299.97" r="2.5" fill="#2563eb"/>
  <circle cx="677.67" cy="299.97" r="2.5" fill="#2563eb"/>
  <circle cx="679.19" cy="300.06" r="2.5" fill="#2563eb"/>
  <circle cx="680.70" cy="249.99" r="2.5" fill="#2563eb"/>
  <circle cx="682.21" cy="300.01" r="2.5" fill="#2563eb"/>
  <circle cx="683.72" cy="250.03" r="2.5" fill="#2563eb"/>
  <circle cx="685.23" cy="249.94" r="2.5" fill="#2563eb"/>
  <circle cx="686.74" cy="249.99" r="2.5" fill="#2563eb"/>
  <circle cx="688.26" cy="300.01" r="2.5" fill="#2563eb"/>
  <circle cx="689.77" cy="300.06" r="2.5" fill="#2563eb"/>
  <circle cx="691.28" cy="300.01" r="2.5" fill="#2563eb"/>
  <circle cx="692.79" cy="299.97" r="2.5" fill="#2563eb"/>
  <circle cx="694.30" cy="299.97" r="2.5" fill="#2563eb"/>
  <circle cx="695.81" cy="300.01" r="2.5" fill="#2563eb"/>
  <circle cx="697.33" cy="299.93" r="2.5" fill="#2563eb"/>
  <circle cx="698.84" cy="299.89" r="2.5" fill="#2563eb"/>
  <circle cx="700.35" cy="299.89" r="2.5" fill="#2563eb"/>
  <circle cx="701.86" cy="299.89" r="2.5" fill="#2563eb"/>
  <circle cx="703.37" cy="299.89" r="2.5" fill="#2563eb"/>
  <circle cx="704.88" cy="299.85" r="2.5" fill="#2563eb"/>
  <circle cx="706.40" cy="299.85" r="2.5" fill="#2563eb"/>
  <circle cx="707.91" cy="299.89" r="2.5" fill="#2563eb"/>
  <circle cx="709.42" cy="299.81" r="2.5" fill="#2563eb"/>
  <circle cx="710.93" cy="299.81" r="2.5" fill="#2563eb"/>
  <circle cx="712.44" cy="299.81" r="2.5" fill="#2563eb"/>
  <circle cx="713.95" cy="299.76" r="2.5" fill="#2563eb"/>
  <circle cx="715.47" cy="299.76" r="2.5" fill="#2563eb"/>
  <circle cx="716.98" cy="299.76" r="2.5" fill="#2563eb"/>
  <circle cx="718.49" cy="299.72" r="2.5" fill="#2563eb"/>
  <circle cx="720.00" cy="299.68" r="2.5" fill="#2563eb"/>
  <circle cx="721.51" cy="299.60" r="2.5" fill="#2563eb"/>
  <circle cx="723.02" cy="299.60" r="2.5" fill="#2563eb"/>
  <circle cx="724.53" cy="299.60" r="2.5" fill="#2563eb"/>
  <circle cx="726.05" cy="299.56" r="2.5" fill="#2563eb"/>
  <circle cx="727.56" cy="299.47" r="2.5" fill="#2563eb"/>
  <circle cx="729.07" cy="299.43" r="2.5" fill="#2563eb"/>
  <circle cx="730.58" cy="299.43" r="2.5" fill="#2563eb"/>
  <circle cx="732.09" cy="299.39" r="2.5" fill="#2563eb"/>
  <circle cx="733.60" cy="299.47" r="2.5" fill="#2563eb"/>
  <circle cx="735.12" cy="259.82" r="2.5" fill="#2563eb"/>
  <circle cx="736.63" cy="338.96" r="2.5" fill="#2563eb"/>
  <circle cx="738.14" cy="299.31" r="2.5" fill="#2563eb"/>
  <circle cx="739.65" cy="299.31" r="2.5" fill="#2563eb"/>
  <circle cx="741.16" cy="299.26" r="2.5" fill="#2563eb"/>
  <circle cx="742.67" cy="299.68" r="2.5" fill="#2563eb"/>
  <circle cx="744.19" cy="299.68" r="2.5" fill="#2563eb"/>
  <circle cx="745.70" cy="299.68" r="2.5" fill="#2563eb"/>
  <circle cx="747.21" cy="299.64" r="2.5" fill="#2563eb"/>
  <circle cx="748.72" cy="299.14" r="2.5" fill="#2563eb"/>
  <circle cx="750.23" cy="299.14" r="2.5" fill="#2563eb"/>
  <circle cx="751.74" cy="299.10" r="2.5" fill="#2563eb"/>
  <circle cx="753.26" cy="299.10" r="2.5" fill="#2563eb"/>
  <circle cx="754.77" cy="299.10" r="2.5" fill="#2563eb"/>
  <circle cx="756.28" cy="248.07" r="2.5" fill="#2563eb"/>
  <circle cx="757.79" cy="299.06" r="2.5" fill="#2563eb"/>
  <circle cx="759.30" cy="299.06" r="2.5" fill="#2563eb"/>
  <circle cx="760.81" cy="299.06" r="2.5" fill="#2563eb"/>
  <circle cx="762.33" cy="299.06" r="2.5" fill="#2563eb"/>
  <circle cx="763.84" cy="299.06" r="2.5" fill="#2563eb"/>
  <circle cx="765.35" cy="298.97" r="2.5" fill="#2563eb"/>
  <circle cx="766.86" cy="298.97" r="2.5" fill="#2563eb"/>
  <circle cx="768.37" cy="298.93" r="2.5" fill="#2563eb"/>
  <circle cx="769.88" cy="298.97" r="2.5" fill="#2563eb"/>
  <circle cx="771.40" cy="298.93" r="2.5" fill="#2563eb"/>
  <circle cx="772.91" cy="298.89" r="2.5" fill="#2563eb"/>
  <circle cx="774.42" cy="298.89" r="2.5" fill="#2563eb"/>
  <circle cx="775.93" cy="298.89" r="2.5" fill="#2563eb"/>
  <circle cx="777.44" cy="298.89" r="2.5" fill="#2563eb"/>
  <circle cx="778.95" cy="247.78" r="2.5" fill="#2563eb"/>
  <circle cx="780.47" cy="298.89" r="2.5" fill="#2563eb"/>
  <circle cx="781.98" cy="298.89" r="2.5" fill="#2563eb"/>
  <circle cx="783.49" cy="298.85" r="2.5" fill="#2563eb"/>
  <circle cx="785.00" cy="298.85" r="2.5" fill="#2563eb"/>
  <circle cx="786.51" cy="298.81" r="2.5" fill="#2563eb"/>
  <circle cx="788.02" cy="298.81" r="2.5" fill="#2563eb"/>
  <circle cx="789.53" cy="298.81" r="2.5" fill="#2563eb"/>
  <circle cx="791.05" cy="298.81" r="2.5" fill="#2563eb"/>
  <circle cx="792.56" cy="298.81" r="2.5" fill="#2563eb"/>
  <circle cx="794.07" cy="298.81" r="2.5" fill="#2563eb"/>
  <circle cx="795.58" cy="298.81" r="2.5" fill="#2563eb"/>
  <circle cx="797.09" cy="298.81" r="2.5" fill="#2563eb"/>
  <circle cx="798.60" cy="298.81" r="2.5" fill="#2563eb"/>
  <circle cx="800.12" cy="298.72" r="2.5" fill="#2563eb"/>
  <circle cx="801.63" cy="247.45" r="2.5" fill="#2563eb"/>
  <circle cx="803.14" cy="247.45" r="2.5" fill="#2563eb"/>
  <circle cx="804.65" cy="298.72" r="2.5" fill="#2563eb"/>
  <circle cx="806.16" cy="298.72" r="2.5" fill="#2563eb"/>
  <circle cx="807.67" cy="298.72" r="2.5" fill="#2563eb"/>
  <circle cx="809.19" cy="298.72" r="2.5" fill="#2563eb"/>
  <circle cx="810.70" cy="298.72" r="2.5" fill="#2563eb"/>
  <circle cx="812.21" cy="298.72" r="2.5" fill="#2563eb"/>
  <circle cx="813.72" cy="247.36" r="2.5" fill="#2563eb"/>
  <circle cx="815.23" cy="298.68" r="2.5" fill="#2563eb"/>
  <circle cx="816.74" cy="247.36" r="2.5" fill="#2563eb"/>
  <circle cx="818.26" cy="247.36" r="2.5" fill="#2563eb"/>
  <circle cx="819.77" cy="247.36" r="2.5" fill="#2563eb"/>
  <circle cx="821.28" cy="298.68" r="2.5" fill="#2563eb"/>
  <circle cx="822.79" cy="298.68" r="2.5" fill="#2563eb"/>
  <circle cx="824.30" cy="298.68" r="2.5" fill="#2563eb"/>
  <circle cx="825.81" cy="298.68" r="2.5" fill="#2563eb"/>
  <circle cx="827.33" cy="298.68" r="2.5" fill="#2563eb"/>
  <circle cx="828.84" cy="341.67" r="2.5" fill="#2563eb"/>
  <circle cx="830.35" cy="307.01" r="2.5" fill="#2563eb"/>
  <circle cx="831.86" cy="298.68" r="2.5" fill="#2563eb"/>
  <circle cx="833.37" cy="298.68" r="2.5" fill="#2563eb"/>
  <circle cx="834.88" cy="298.68" r="2.5" fill="#2563eb"/>
  <circle cx="836.40" cy="247.36" r="2.5" fill="#2563eb"/>
  <circle cx="837.91" cy="298.64" r="2.5" fill="#2563eb"/>
  <circle cx="839.42" cy="247.36" r="2.5" fill="#2563eb"/>
  <circle cx="840.93" cy="247.28" r="2.5" fill="#2563eb"/>
  <circle cx="842.44" cy="247.20" r="2.5" fill="#2563eb"/>
  <circle cx="843.95" cy="298.60" r="2.5" fill="#2563eb"/>
  <circle cx="845.47" cy="298.60" r="2.5" fill="#2563eb"/>
  <circle cx="846.98" cy="247.03" r="2.5" fill="#2563eb"/>
  <circle cx="848.49" cy="298.51" r="2.5" fill="#2563eb"/>
  <circle cx="850.00" cy="298.51" r="2.5" fill="#2563eb"/>
  <circle cx="851.51" cy="298.51" r="2.5" fill="#2563eb"/>
  <circle cx="853.02" cy="298.51" r="2.5" fill="#2563eb"/>
  <circle cx="854.53" cy="298.51" r="2.5" fill="#2563eb"/>
  <circle cx="856.05" cy="298.51" r="2.5" fill="#2563eb"/>
  <circle cx="857.56" cy="298.51" r="2.5" fill="#2563eb"/>
  <circle cx="859.07" cy="298.51" r="2.5" fill="#2563eb"/>
  <circle cx="860.58" cy="298.51" r="2.5" fill="#2563eb"/>
  <circle cx="862.09" cy="298.51" r="2.5" fill="#2563eb"/>
  <circle cx="863.60" cy="298.51" r="2.5" fill="#2563eb"/>
  <circle cx="865.12" cy="298.51" r="2.5" fill="#2563eb"/>
  <circle cx="866.63" cy="298.51" r="2.5" fill="#2563eb"/>
  <circle cx="868.14" cy="298.51" r="2.5" fill="#2563eb"/>
  <circle cx="869.65" cy="298.51" r="2.5" fill="#2563eb"/>
  <circle cx="871.16" cy="298.51" r="2.5" fill="#2563eb"/>
  <circle cx="872.67" cy="298.51" r="2.5" fill="#2563eb"/>
  <circle cx="874.19" cy="298.51" r="2.5" fill="#2563eb"/>
  <circle cx="875.70" cy="298.51" r="2.5" fill="#2563eb"/>
  <circle cx="877.21" cy="298.51" r="2.5" fill="#2563eb"/>
  <circle cx="878.72" cy="298.51" r="2.5" fill="#2563eb"/>
  <circle cx="880.23" cy="298.51" r="2.5" fill="#2563eb"/>
  <circle cx="881.74" cy="298.51" r="2.5" fill="#2563eb"/>
  <circle cx="883.26" cy="298.51" r="2.5" fill="#2563eb"/>
  <circle cx="884.77" cy="298.51" r="2.5" fill="#2563eb"/>
  <circle cx="886.28" cy="298.51" r="2.5" fill="#2563eb"/>
  <circle cx="887.79" cy="298.47" r="2.5" fill="#2563eb"/>
  <circle cx="889.30" cy="298.51" r="2.5" fill="#2563eb"/>
  <circle cx="890.81" cy="298.51" r="2.5" fill="#2563eb"/>
  <circle cx="892.33" cy="298.47" r="2.5" fill="#2563eb"/>
  <circle cx="893.84" cy="298.51" r="2.5" fill="#2563eb"/>
  <circle cx="895.35" cy="298.47" r="2.5" fill="#2563eb"/>
  <circle cx="896.86" cy="298.51" r="2.5" fill="#2563eb"/>
  <circle cx="898.37" cy="298.43" r="2.5" fill="#2563eb"/>
  <circle cx="899.88" cy="298.56" r="2.5" fill="#2563eb"/>
  <circle cx="901.40" cy="298.43" r="2.5" fill="#2563eb"/>
  <circle cx="902.91" cy="298.43" r="2.5" fill="#2563eb"/>
  <circle cx="904.42" cy="298.43" r="2.5" fill="#2563eb"/>
  <circle cx="905.93" cy="298.43" r="2.5" fill="#2563eb"/>
  <circle cx="907.44" cy="298.43" r="2.5" fill="#2563eb"/>
  <circle cx="908.95" cy="298.43" r="2.5" fill="#2563eb"/>
  <circle cx="910.47" cy="298.43" r="2.5" fill="#2563eb"/>
  <circle cx="911.98" cy="298.43" r="2.5" fill="#2563eb"/>
  <circle cx="913.49" cy="298.43" r="2.5" fill="#2563eb"/>
  <circle cx="915.00" cy="298.43" r="2.5" fill="#2563eb"/>
  <circle cx="916.51" cy="298.43" r="2.5" fill="#2563eb"/>
  <circle cx="918.02" cy="298.43" r="2.5" fill="#2563eb"/>
  <circle cx="919.53" cy="298.43" r="2.5" fill="#2563eb"/>
  <circle cx="921.05" cy="298.43" r="2.5" fill="#2563eb"/>
  <circle cx="922.56" cy="298.43" r="2.5" fill="#2563eb"/>
  <circle cx="924.07" cy="298.43" r="2.5" fill="#2563eb"/>
  <circle cx="925.58" cy="298.43" r="2.5" fill="#2563eb"/>
  <circle cx="927.09" cy="298.43" r="2.5" fill="#2563eb"/>
  <circle cx="928.60" cy="298.43" r="2.5" fill="#2563eb"/>
  <circle cx="930.12" cy="298.43" r="2.5" fill="#2563eb"/>
  <circle cx="931.63" cy="298.43" r="2.5" fill="#2563eb"/>
  <circle cx="933.14" cy="298.43" r="2.5" fill="#2563eb"/>
  <circle cx="934.65" cy="298.43" r="2.5" fill="#2563eb"/>
  <circle cx="936.16" cy="298.43" r="2.5" fill="#2563eb"/>
  <circle cx="937.67" cy="298.43" r="2.5" fill="#2563eb"/>
  <circle cx="939.19" cy="298.43" r="2.5" fill="#2563eb"/>
  <circle cx="940.70" cy="298.43" r="2.5" fill="#2563eb"/>
  <circle cx="942.21" cy="298.43" r="2.5" fill="#2563eb"/>
  <circle cx="943.72" cy="298.43" r="2.5" fill="#2563eb"/>
  <circle cx="945.23" cy="298.43" r="2.5" fill="#2563eb"/>
  <circle cx="946.74" cy="298.43" r="2.5" fill="#2563eb"/>
  <circle cx="948.26" cy="298.43" r="2.5" fill="#2563eb"/>
  <circle cx="949.77" cy="298.43" r="2.5" fill="#2563eb"/>
  <circle cx="951.28" cy="298.43" r="2.5" fill="#2563eb"/>
  <circle cx="952.79" cy="298.39" r="2.5" fill="#2563eb"/>
  <circle cx="954.30" cy="298.39" r="2.5" fill="#2563eb"/>
  <circle cx="955.81" cy="298.43" r="2.5" fill="#2563eb"/>
  <circle cx="957.33" cy="298.43" r="2.5" fill="#2563eb"/>
  <circle cx="958.84" cy="298.39" r="2.5" fill="#2563eb"/>
  <circle cx="960.35" cy="298.39" r="2.5" fill="#2563eb"/>
  <circle cx="961.86" cy="298.39" r="2.5" fill="#2563eb"/>
  <circle cx="963.37" cy="298.43" r="2.5" fill="#2563eb"/>
  <circle cx="964.88" cy="298.43" r="2.5" fill="#2563eb"/>
  <circle cx="966.40" cy="298.43" r="2.5" fill="#2563eb"/>
  <circle cx="967.91" cy="246.82" r="2.5" fill="#2563eb"/>
  <circle cx="969.42" cy="298.43" r="2.5" fill="#2563eb"/>
  <circle cx="970.93" cy="246.78" r="2.5" fill="#2563eb"/>
  <circle cx="972.44" cy="246.78" r="2.5" fill="#2563eb"/>
  <circle cx="973.95" cy="246.78" r="2.5" fill="#2563eb"/>
  <circle cx="975.47" cy="246.70" r="2.5" fill="#2563eb"/>
  <circle cx="976.98" cy="246.78" r="2.5" fill="#2563eb"/>
  <circle cx="978.49" cy="298.39" r="2.5" fill="#2563eb"/>
  <circle cx="980.00" cy="298.39" r="2.5" fill="#2563eb"/>
</svg>
