<?xml version="1.0" encoding="UTF-8"?>
<svg xmlns="http://www.w3.org/2000/svg" width="1000" height="420" viewBox="0 0 1000 420">
  <rect width="100%" height="100%" fill="#ffffff"/>
  <text x="70" y="28" font-size="20" font-weight="600">수집 시점 기준 - 시간별 스냅샷</text>
  <text x="70" y="402" font-size="12" fill="#555">스냅샷 수</text>
  <line x1="70" y1="350.00" x2="980" y2="350.00" stroke="#e5e7eb" stroke-width="1"/>
  <text x="62" y="354.00" font-size="11" fill="#6b7280" text-anchor="end">0</text>
  <line x1="70" y1="290.00" x2="980" y2="290.00" stroke="#e5e7eb" stroke-width="1"/>
  <text x="62" y="294.00" font-size="11" fill="#6b7280" text-anchor="end">1,440</text>
  <line x1="70" y1="230.00" x2="980" y2="230.00" stroke="#e5e7eb" stroke-width="1"/>
  <text x="62" y="234.00" font-size="11" fill="#6b7280" text-anchor="end">2,880</text>
  <line x1="70" y1="170.00" x2="980" y2="170.00" stroke="#e5e7eb" stroke-width="1"/>
  <text x="62" y="174.00" font-size="11" fill="#6b7280" text-anchor="end">4,321</text>
  <line x1="70" y1="110.00" x2="980" y2="110.00" stroke="#e5e7eb" stroke-width="1"/>
  <text x="62" y="114.00" font-size="11" fill="#6b7280" text-anchor="end">5,761</text>
  <line x1="70" y1="50.00" x2="980" y2="50.00" stroke="#e5e7eb" stroke-width="1"/>
  <text x="62" y="54.00" font-size="11" fill="#6b7280" text-anchor="end">7,202</text>
  <line x1="70" y1="350" x2="980" y2="350" stroke="#111827" stroke-width="1.2"/>
  <line x1="70" y1="50" x2="70" y2="350" stroke="#111827" stroke-width="1.2"/>
  <line x1="70.00" y1="350" x2="70.00" y2="356" stroke="#9ca3af" stroke-width="1"/>
  <text x="70.00" y="372" font-size="10" fill="#6b7280" text-anchor="middle">2026-02-28 18</text>
  <line x1="145.83" y1="350" x2="145.83" y2="356" stroke="#9ca3af" stroke-width="1"/>
  <text x="145.83" y="372" font-size="10" fill="#6b7280" text-anchor="middle">2026-03-09 13</text>
  <line x1="221.67" y1="350" x2="221.67" y2="356" stroke="#9ca3af" stroke-width="1"/>
  <text x="221.67" y="372" font-size="10" fill="#6b7280" text-anchor="middle">2026-03-12 01</text>
  <line x1="297.50" y1="350" x2="297.50" y2="356" stroke="#9ca3af" stroke-width="1"/>
  <text x="297.50" y="372" font-size="10" fill="#6b7280" text-anchor="middle">2026-03-14 18</text>
  <line x1="373.33" y1="350" x2="373.33" y2="356" stroke="#9ca3af" stroke-width="1"/>
  <text x="373.33" y="372" font-size="10" fill="#6b7280" text-anchor="middle">2026-03-18 07</text>
  <line x1="449.17" y1="350" x2="449.17" y2="356" stroke="#9ca3af" stroke-width="1"/>
  <text x="449.17" y="372" font-size="10" fill="#6b7280" text-anchor="middle">2026-03-21 18</text>
  <line x1="525.00" y1="350" x2="525.00" y2="356" stroke="#9ca3af" stroke-width="1"/>
  <text x="525.00" y="372" font-size="10" fill="#6b7280" text-anchor="middle">2026-03-25 06</text>
  <line x1="600.83" y1="350" x2="600.83" y2="356" stroke="#9ca3af" stroke-width="1"/>
  <text x="600.83" y="372" font-size="10" fill="#6b7280" text-anchor="middle">2026-03-29 00</text>
  <line x1="676.67" y1="350" x2="676.67" y2="356" stroke="#9ca3af" stroke-width="1"/>
  <text x="676.67" y="372" font-size="10" fill="#6b7280" text-anchor="middle">2026-04-02 00</text>
  <line x1="752.50" y1="350" x2="752.50" y2="356" stroke="#9ca3af" stroke-width="1"/>
  <text x="752.50" y="372" font-size="10" fill="#6b7280" text-anchor="middle">2026-04-05 16</text>
  <line x1="828.33" y1="350" x2="828.33" y2="356" stroke="#9ca3af" stroke-width="1"/>
  <text x="828.33" y="372" font-size="10" fill="#6b7280" text-anchor="middle">2026-04-09 17</text>
  <line x1="904.17" y1="350" x2="904.17" y2="356" stroke="#9ca3af" stroke-width="1"/>
  <text x="904.17" y="372" font-size="10" fill="#6b7280" text-anchor="middle">2026-04-13 12</text>
  <line x1="980.00" y1="350" x2="980.00" y2="356" stroke="#9ca3af" stroke-width="1"/>
  <text x="980.00" y="372" font-size="10" fill="#6b7280" text-anchor="middle">2026-04-17 23</text>
  <polyline fill="none" stroke="#2563eb" stroke-width="2.5" points="70.00,50.00 71.35,50.12 72.71,50.17 74.06,50.46 75.42,50.00 76.77,266.90 78.12,50.12 79.48,50.08 80.83,177.46 82.19,211.58 83.54,175.34 84.90,304.14 86.25,200.46 87.60,250.94 88.96,300.01 90.31,300.06 91.67,300.01 93.02,300.01 94.38,348.00 95.73,300.01 97.08,249.99 98.44,200.00 99.79,249.99 101.15,249.99 102.50,250.03 103.85,250.03 105.21,250.03 106.56,250.40 107.92,250.90 109.27,250.90 110.62,251.32 111.98,249.94 113.33,300.01 114.69,299.93 116.04,251.03 117.40,300.68 118.75,250.03 120.10,200.00 121.46,249.99 122.81,250.03 124.17,250.03 125.52,250.03 126.88,300.01 128.23,200.04 129.58,250.03 130.94,250.03 132.29,250.03 133.65,249.90 135.00,250.03 136.35,250.03 137.71,250.94 139.06,250.44 140.42,250.03 141.77,250.03 143.12,300.47 144.48,300.01 145.83,300.43 147.19,250.03 148.54,249.99 149.90,300.43 151.25,249.90 152.60,249.99 153.96,249.99 155.31,200.04 156.67,300.01 158.02,300.01 159.38,300.01 160.73,249.90 162.08,300.01 163.44,250.03 164.79,249.99 166.15,199.96 167.50,300.01 168.85,200.00 170.21,250.36 171.56,250.03 172.92,300.01 174.27,300.01 175.62,250.44 176.98,300.01 178.33,250.03 179.69,250.03 181.04,249.99 182.40,250.49 183.75,250.03 185.10,200.04 186.46,300.01 187.81,250.03 189.17,300.01 190.52,250.11 191.88,300.01 193.23,250.03 194.58,250.03 195.94,199.92 197.29,250.03 198.65,250.03 200.00,250.03 201.35,254.36 202.71,300.01 204.06,299.97 205.42,250.36 206.77,299.97 208.12,250.03 209.48,250.03 210.83,250.03 212.19,250.03 213.54,249.99 214.90,200.00 216.25,299.93 217.60,300.01 218.96,299.97 220.31,249.94 221.67,249.99 223.02,249.82 224.38,249.94 225.73,250.28 227.08,207.00 228.44,250.03 229.79,250.32 231.15,250.40 232.50,300.93 233.85,300.01 235.21,300.10 236.56,249.94 237.92,249.99 239.27,250.07 240.62,249.99 241.98,250.03 243.33,249.94 244.69,200.00 246.04,300.39 247.40,300.01 248.75,300.01 250.10,250.44 251.46,300.39 252.81,249.86 254.17,250.11 255.52,201.46 256.88,300.01 258.23,200.83 259.58,250.03 260.94,249.99 262.29,300.26 263.65,300.01 265.00,300.01 266.35,250.03 267.71,250.03 269.06,250.03 270.42,250.03 271.77,249.99 273.12,250.03 274.48,200.00 275.83,300.26 277.19,249.99 278.54,300.01 279.90,249.94 281.25,250.03 282.60,250.03 283.96,250.03 285.31,200.04 286.67,300.01 288.02,249.90 289.38,300.01 290.73,300.01 292.08,300.06 293.44,300.01 294.79,300.01 296.15,243.95 297.50,249.94 298.85,299.97 300.21,300.01 301.56,300.01 302.92,250.03 304.27,300.01 305.62,300.01 306.98,299.97 308.33,249.99 309.69,300.01 311.04,299.93 312.40,300.01 313.75,299.93 315.10,300.01 316.46,300.01 317.81,299.89 319.17,299.97 320.52,250.03 321.88,299.93 323.23,299.89 324.58,299.97 325.94,249.94 327.29,300.01 328.65,300.01 330.00,299.97 331.35,249.99 332.71,299.97 334.06,299.97 335.42,300.06 336.77,300.06 338.12,299.93 339.48,300.01 340.83,300.01 342.19,299.93 343.54,300.01 344.90,300.01 346.25,299.97 347.60,300.01 348.96,300.01 350.31,300.01 351.67,300.01 353.02,249.86 354.38,300.01 355.73,300.10 357.08,299.93 358.44,300.01 359.79,299.93 361.15,300.01 362.50,300.01 363.85,300.01 365.21,300.01 366.56,300.01 367.92,299.97 369.27,300.01 370.62,300.01 371.98,300.01 373.33,300.01 374.69,250.03 376.04,300.01 377.40,300.01 378.75,299.97 380.10,300.01 381.46,300.01 382.81,299.97 384.17,299.97 385.52,300.01 386.88,299.97 388.23,300.01 389.58,299.93 390.94,300.01 392.29,250.03 393.65,300.01 395.00,300.01 396.35,300.01 397.71,300.01 399.06,300.01 400.42,299.89 401.77,300.01 403.12,300.01 404.48,250.07 405.83,300.01 407.19,299.93 408.54,300.01 409.90,299.97 411.25,299.97 412.60,299.97 413.96,250.03 415.31,300.01 416.67,300.01 418.02,300.01 419.38,300.01 420.73,299.97 422.08,300.01 423.44,299.97 424.79,300.01 426.15,299.97 427.50,249.90 428.85,300.01 430.21,300.01 431.56,299.89 432.92,299.97 434.27,299.97 435.62,249.99 436.98,299.97 438.33,299.89 439.69,300.01 441.04,299.97 442.40,299.97 443.75,300.01 445.10,299.97 446.46,249.99 447.81,299.97 449.17,299.97 450.52,300.06 451.88,300.06 453.23,249.94 454.58,300.01 455.94,299.93 457.29,300.01 458.65,300.01 460.00,249.99 461.35,300.01 462.71,300.01 464.06,300.01 465.42,299.93 466.77,299.93 468.12,300.01 469.48,300.01 470.83,249.94 472.19,299.97 473.54,299.97 474.90,300.01 476.25,300.01 477.60,300.01 478.96,249.99 480.31,300.01 481.67,300.01 483.02,300.01 484.38,250.03 485.73,300.01 487.08,300.01 488.44,300.01 489.79,299.97 491.15,300.01 492.50,300.01 493.85,299.97 495.21,299.97 496.56,300.01 497.92,300.01 499.27,299.97 500.62,299.93 501.98,300.01 503.33,300.06 504.69,299.97 506.04,300.01 507.40,250.03 508.75,250.03 510.10,299.93 511.46,299.97 512.81,300.01 514.17,300.01 515.52,300.06 516.88,300.01 518.23,299.93 519.58,300.01 520.94,300.01 522.29,299.97 523.65,299.97 525.00,300.01 526.35,250.03 527.71,300.01 529.06,300.01 530.42,300.01 531.77,299.97 533.12,300.01 534.48,299.97 535.83,300.01 537.19,299.97 538.54,299.97 539.90,299.93 541.25,300.01 542.60,300.01 543.96,299.89 545.31,299.97 546.67,299.97 548.02,300.06 549.38,249.90 550.73,299.89 552.08,300.01 553.44,299.97 554.79,299.97 556.15,299.97 557.50,300.01 558.85,300.01 560.21,299.97 561.56,299.97 562.92,299.97 564.27,250.03 565.62,299.93 566.98,300.01 568.33,300.01 569.69,299.93 571.04,300.01 572.40,300.01 573.75,299.97 575.10,300.01 576.46,300.01 577.81,300.06 579.17,300.01 580.52,299.97 581.88,299.89 583.23,300.01 584.58,300.01 585.94,249.94 587.29,249.94 588.65,300.01 590.00,300.01 591.35,300.01 592.71,300.01 594.06,299.97 595.42,250.03 596.77,300.01 598.12,300.01 599.48,300.01 600.83,300.01 602.19,250.03 603.54,249.99 604.90,300.01 606.25,299.97 607.60,300.01 608.96,299.97 610.31,300.01 611.67,299.97 613.02,299.97 614.38,299.97 615.73,300.06 617.08,249.99 618.44,300.01 619.79,250.03 621.15,249.94 622.50,249.99 623.85,300.01 625.21,300.06 626.56,300.01 627.92,299.97 629.27,299.97 630.62,300.01 631.98,299.93 633.33,299.89 634.69,299.89 636.04,299.89 637.40,299.89 638.75,299.85 640.10,299.85 641.46,299.89 642.81,299.81 644.17,299.81 645.52,299.81 646.88,299.76 648.23,299.76 649.58,299.76 650.94,299.72 652.29,299.68 653.65,299.60 655.00,299.60 656.35,299.60 657.71,299.56 659.06,299.47 660.42,299.43 661.77,299.43 663.12,299.39 664.48,299.47 665.83,259.82 667.19,338.96 668.54,299.31 669.90,299.31 671.25,299.26 672.60,299.68 673.96,299.68 675.31,299.68 676.67,299.64 678.02,299.14 679.38,299.14 680.73,299.10 682.08,299.10 683.44,299.10 684.79,248.07 686.15,299.06 687.50,299.06 688.85,299.06 690.21,299.06 691.56,299.06 692.92,298.97 694.27,298.97 695.62,298.93 696.98,298.97 698.33,298.93 699.69,298.89 701.04,298.89 702.40,298.89 703.75,298.89 705.10,247.78 706.46,298.89 707.81,298.89 709.17,298.85 710.52,298.85 711.88,298.81 713.23,298.81 714.58,298.81 715.94,298.81 717.29,298.81 718.65,298.81 720.00,298.81 721.35,298.81 722.71,298.81 724.06,298.72 725.42,247.45 726.77,247.45 728.12,298.72 729.48,298.72 730.83,298.72 732.19,298.72 733.54,298.72 734.90,298.72 736.25,247.36 737.60,298.68 738.96,247.36 740.31,247.36 741.67,247.36 743.02,298.68 744.38,298.68 745.73,298.68 747.08,298.68 748.44,298.68 749.79,341.67 751.15,307.01 752.50,298.68 753.85,298.68 755.21,298.68 756.56,247.36 757.92,298.64 759.27,247.36 760.62,247.28 761.98,247.20 763.33,298.60 764.69,298.60 766.04,247.03 767.40,298.51 768.75,298.51 770.10,298.51 771.46,298.51 772.81,298.51 774.17,298.51 775.52,298.51 776.88,298.51 778.23,298.51 779.58,298.51 780.94,298.51 782.29,298.51 783.65,298.51 785.00,298.51 786.35,298.51 787.71,298.51 789.06,298.51 790.42,298.51 791.77,298.51 793.12,298.51 794.48,298.51 795.83,298.51 797.19,298.51 798.54,298.51 799.90,298.51 801.25,298.51 802.60,298.47 803.96,298.51 805.31,298.51 806.67,298.47 808.02,298.51 809.38,298.47 810.73,298.51 812.08,298.43 813.44,298.56 814.79,298.43 816.15,298.43 817.50,298.43 818.85,298.43 820.21,298.43 821.56,298.43 822.92,298.43 824.27,298.43 825.62,298.43 826.98,298.43 828.33,298.43 829.69,298.43 831.04,298.43 832.40,298.43 833.75,298.43 835.10,298.43 836.46,298.43 837.81,298.43 839.17,298.43 840.52,298.43 841.88,298.43 843.23,298.43 844.58,298.43 845.94,298.43 847.29,298.43 848.65,298.43 850.00,298.43 851.35,298.43 852.71,298.43 854.06,298.43 855.42,298.43 856.77,298.43 858.12,298.43 859.48,298.43 860.83,298.39 862.19,298.39 863.54,298.43 864.90,298.43 866.25,298.39 867.60,298.39 868.96,298.39 870.31,298.43 871.67,298.43 873.02,298.43 874.38,246.82 875.73,298.43 877.08,246.78 878.44,246.78 879.79,246.78 881.15,246.70 882.50,246.78 883.85,298.39 885.21,298.39 886.56,298.39 887.92,298.39 889.27,298.39 890.62,246.78 891.98,298.39 893.33,298.39 894.69,298.39 896.04,298.39 897.40,298.39 898.75,246.78 900.10,246.78 901.46,298.39 902.81,298.39 904.17,298.39 905.52,298.39 906.88,298.39 908.23,298.39 909.58,298.39 910.94,298.39 912.29,298.39 913.65,298.39 915.00,298.39 916.35,298.39 917.71,298.39 919.06,298.39 920.42,298.35 921.77,298.39 923.12,298.39 924.48,298.35 925.83,298.35 927.19,298.35 928.54,298.35 929.90,298.35 931.25,298.35 932.60,298.35 933.96,298.35 935.31,298.35 936.67,298.35 938.02,298.35 939.38,298.35 940.73,298.35 942.08,298.35 943.44,298.35 944.79,298.35 946.15,298.35 947.50,298.35 948.85,298.35 950.21,298.35 951.56,298.35 952.92,298.35 954.27,298.35 955.62,298.35 956.98,298.35 958.33,298.35 959.69,298.35 961.04,298.35 962.40,298.35 963.75,298.35 965.10,298.35 966.46,298.35 967.81,298.35 969.17,298.35 970.52,298.35 971.88,298.35 973.23,298.35 974.58,298.35 975.94,298.35 977.29,298.35 978.65,298.35 980.00,298.35"/>
  <circle cx="70.00" cy="50.00" r="2.5" fill="#2563eb"/>
  <circle cx="71.35" cy="50.12" r="2.5" fill="#2563eb"/>
  <circle cx="72.71" cy="50.17" r="2.5" fill="#2563eb"/>
  <circle cx="74.06" cy="50.46" r="2.5" fill="#2563eb"/>
  <circle cx="75.42" cy="50.00" r="2.5" fill="#2563eb"/>
  <circle cx="76.77" cy="266.90" r="2.5" fill="#2563eb"/>
  <circle cx="78.12" cy="50.12" r="2.5" fill="#2563eb"/>
  <circle cx="79.48" cy="50.08" r="2.5" fill="#2563eb"/>
  <circle cx="80.83" cy="177.46" r="2.5" fill="#2563eb"/>
  <circle cx="82.19" cy="211.58" r="2.5" fill="#2563eb"/>
  <circle cx="83.54" cy="175.34" r="2.5" fill="#2563eb"/>
  <circle cx="84.90" cy="304.14" r="2.5" fill="#2563eb"/>
  <circle cx="86.25" cy="200.46" r="2.5" fill="#2563eb"/>
  <circle cx="87.60" cy="250.94" r="2.5" fill="#2563eb"/>
  <circle cx="88.96" cy="300.01" r="2.5" fill="#2563eb"/>
  <circle cx="90.31" cy="300.06" r="2.5" fill="#2563eb"/>
  <circle cx="91.67" cy="300.01" r="2.5" fill="#2563eb"/>
  <circle cx="93.02" cy="300.01" r="2.5" fill="#2563eb"/>
  <circle cx="94.38" cy="348.00" r="2.5" fill="#2563eb"/>
  <circle cx="95.73" cy="300.01" r="2.5" fill="#2563eb"/>
  <circle cx="97.08" cy="249.99" r="2.5" fill="#2563eb"/>
  <circle cx="98.44" cy="200.00" r="2.5" fill="#2563eb"/>
  <circle cx="99.79" cy="249.99" r="2.5" fill="#2563eb"/>
  <circle cx="101.15" cy="249.99" r="2.5" fill="#2563eb"/>
  <circle cx="102.50" cy="250.03" r="2.5" fill="#2563eb"/>
  <circle cx="103.85" cy="250.03" r="2.5" fill="#2563eb"/>
  <circle cx="105.21" cy="250.03" r="2.5" fill="#2563eb"/>
  <circle cx="106.56" cy="250.40" r="2.5" fill="#2563eb"/>
  <circle cx="107.92" cy="250.90" r="2.5" fill="#2563eb"/>
  <circle cx="109.27" cy="250.90" r="2.5" fill="#2563eb"/>
  <circle cx="110.62" cy="251.32" r="2.5" fill="#2563eb"/>
  <circle cx="111.98" cy="249.94" r="2.5" fill="#2563eb"/>
  <circle cx="113.33" cy="300.01" r="2.5" fill="#2563eb"/>
  <circle cx="114.69" cy="299.93" r="2.5" fill="#2563eb"/>
  <circle cx="116.04" cy="251.03" r="2.5" fill="#2563eb"/>
  <circle cx="117.40" cy="300.68" r="2.5" fill="#2563eb"/>
  <circle cx="118.75" cy="250.03" r="2.5" fill="#2563eb"/>
  <circle cx="120.10" cy="200.00" r="2.5" fill="#2563eb"/>
  <circle cx="121.46" cy="249.99" r="2.5" fill="#2563eb"/>
  <circle cx="122.81" cy="250.03" r="2.5" fill="#2563eb"/>
  <circle cx="124.17" cy="250.03" r="2.5" fill="#2563eb"/>
  <circle cx="125.52" cy="250.03" r="2.5" fill="#2563eb"/>
  <circle cx="126.88" cy="300.01" r="2.5" fill="#2563eb"/>
  <circle cx="128.23" cy="200.04" r="2.5" fill="#2563eb"/>
  <circle cx="129.58" cy="250.03" r="2.5" fill="#2563eb"/>
  <circle cx="130.94" cy="250.03" r="2.5" fill="#2563eb"/>
  <circle cx="132.29" cy="250.03" r="2.5" fill="#2563eb"/>
  <circle cx="133.65" cy="249.90" r="2.5" fill="#2563eb"/>
  <circle cx="135.00" cy="250.03" r="2.5" fill="#2563eb"/>
  <circle cx="136.35" cy="250.03" r="2.5" fill="#2563eb"/>
  <circle cx="137.71" cy="250.94" r="2.5" fill="#2563eb"/>
  <circle cx="139.06" cy="250.44" r="2.5" fill="#2563eb"/>
  <circle cx="140.42" cy="250.03" r="2.5" fill="#2563eb"/>
  <circle cx="141.77" cy="250.03" r="2.5" fill="#2563eb"/>
  <circle cx="143.12" cy="300.47" r="2.5" fill="#2563eb"/>
  <circle cx="144.48" cy="300.01" r="2.5" fill="#2563eb"/>
  <circle cx="145.83" cy="300.43" r="2.5" fill="#2563eb"/>
  <circle cx="147.19" cy="250.03" r="2.5" fill="#2563eb"/>
  <circle cx="148.54" cy="249.99" r="2.5" fill="#2563eb"/>
  <circle cx="149.90" cy="300.43" r="2.5" fill="#2563eb"/>
  <circle cx="151.25" cy="249.90" r="2.5" fill="#2563eb"/>
  <circle cx="152.60" cy="249.99" r="2.5" fill="#2563eb"/>
  <circle cx="153.96" cy="249.99" r="2.5" fill="#2563eb"/>
  <circle cx="155.31" cy="200.04" r="2.5" fill="#2563eb"/>
  <circle cx="156.67" cy="300.01" r="2.5" fill="#2563eb"/>
  <circle cx="158.02" cy="300.01" r="2.5" fill="#2563eb"/>
  <circle cx="159.38" cy="300.01" r="2.5" fill="#2563eb"/>
  <circle cx="160.73" cy="249.90" r="2.5" fill="#2563eb"/>
  <circle cx="162.08" cy="300.01" r="2.5" fill="#2563eb"/>
  <circle cx="163.44" cy="250.03" r="2.5" fill="#2563eb"/>
  <circle cx="164.79" cy="249.99" r="2.5" fill="#2563eb"/>
  <circle cx="166.15" cy="199.96" r="2.5" fill="#2563eb"/>
  <circle cx="167.50" cy="300.01" r="2.5" fill="#2563eb"/>
  <circle cx="168.85" cy="200.00" r="2.5" fill="#2563eb"/>
  <circle cx="170.21" cy="250.36" r="2.5" fill="#2563eb"/>
  <circle cx="171.56" cy="250.03" r="2.5" fill="#2563eb"/>
  <circle cx="172.92" cy="300.01" r="2.5" fill="#2563eb"/>
  <circle cx="174.27" cy="300.01" r="2.5" fill="#2563eb"/>
  <circle cx="175.62" cy="250.44" r="2.5" fill="#2563eb"/>
  <circle cx="176.98" cy="300.01" r="2.5" fill="#2563eb"/>
  <circle cx="178.33" cy="250.03" r="2.5" fill="#2563eb"/>
  <circle cx="179.69" cy="250.03" r="2.5" fill="#2563eb"/>
  <circle cx="181.04" cy="249.99" r="2.5" fill="#2563eb"/>
  <circle cx="182.40" cy="250.49" r="2.5" fill="#2563eb"/>
  <circle cx="183.75" cy="250.03" r="2.5" fill="#2563eb"/>
  <circle cx="185.10" cy="200.04" r="2.5" fill="#2563eb"/>
  <circle cx="186.46" cy="300.01" r="2.5" fill="#2563eb"/>
  <circle cx="187.81" cy="250.03" r="2.5" fill="#2563eb"/>
  <circle cx="189.17" cy="300.01" r="2.5" fill="#2563eb"/>
  <circle cx="190.52" cy="250.11" r="2.5" fill="#2563eb"/>
  <circle cx="191.88" cy="300.01" r="2.5" fill="#2563eb"/>
  <circle cx="193.23" cy="250.03" r="2.5" fill="#2563eb"/>
  <circle cx="194.58" cy="250.03" r="2.5" fill="#2563eb"/>
  <circle cx="195.94" cy="199.92" r="2.5" fill="#2563eb"/>
  <circle cx="197.29" cy="250.03" r="2.5" fill="#2563eb"/>
  <circle cx="198.65" cy="250.03" r="2.5" fill="#2563eb"/>
  <circle cx="200.00" cy="250.03" r="2.5" fill="#2563eb"/>
  <circle cx="201.35" cy="254.36" r="2.5" fill="#2563eb"/>
  <circle cx="202.71" cy="300.01" r="2.5" fill="#2563eb"/>
  <circle cx="204.06" cy="299.97" r="2.5" fill="#2563eb"/>
  <circle cx="205.42" cy="250.36" r="2.5" fill="#2563eb"/>
  <circle cx="206.77" cy="299.97" r="2.5" fill="#2563eb"/>
  <circle cx="208.12" cy="250.03" r="2.5" fill="#2563eb"/>
  <circle cx="209.48" cy="250.03" r="2.5" fill="#2563eb"/>
  <circle cx="210.83" cy="250.03" r="2.5" fill="#2563eb"/>
  <circle cx="212.19" cy="250.03" r="2.5" fill="#2563eb"/>
  <circle cx="213.54" cy="249.99" r="2.5" fill="#2563eb"/>
  <circle cx="214.90" cy="200.00" r="2.5" fill="#2563eb"/>
  <circle cx="216.25" cy="299.93" r="2.5" fill="#2563eb"/>
  <circle cx="217.60" cy="300.01" r="2.5" fill="#2563eb"/>
  <circle cx="218.96" cy="299.97" r="2.5" fill="#2563eb"/>
  <circle cx="220.31" cy="249.94" r="2.5" fill="#2563eb"/>
  <circle cx="221.67" cy="249.99" r="2.5" fill="#2563eb"/>
  <circle cx="223.02" cy="249.82" r="2.5" fill="#2563eb"/>
  <circle cx="224.38" cy="249.94" r="2.5" fill="#2563eb"/>
  <circle cx="225.73" cy="250.28" r="2.5" fill="#2563eb"/>
  <circle cx="227.08" cy="207.00" r="2.5" fill="#2563eb"/>
  <circle cx="228.44" cy="250.03" r="2.5" fill="#2563eb"/>
  <circle cx="229.79" cy="250.32" r="2.5" fill="#2563eb"/>
  <circle cx="231.15" cy="250.40" r="2.5" fill="#2563eb"/>
  <circle cx="232.50" cy="300.93" r="2.5" fill="#2563eb"/>
  <circle cx="233.85" cy="300.01" r="2.5" fill="#2563eb"/>
  <circle cx="235.21" cy="300.10" r="2.5" fill="#2563eb"/>
  <circle cx="236.56" cy="249.94" r="2.5" fill="#2563eb"/>
  <circle cx="237.92" cy="249.99" r="2.5" fill="#2563eb"/>
  <circle cx="239.27" cy="250.07" r="2.5" fill="#2563eb"/>
  <circle cx="240.62" cy="249.99" r="2.5" fill="#2563eb"/>
  <circle cx="241.98" cy="250.03" r="2.5" fill="#2563eb"/>
  <circle cx="243.33" cy="249.94" r="2.5" fill="#2563eb"/>
  <circle cx="244.69" cy="200.00" r="2.5" fill="#2563eb"/>
  <circle cx="246.04" cy="300.39" r="2.5" fill="#2563eb"/>
  <circle cx="247.40" cy="300.01" r="2.5" fill="#2563eb"/>
  <circle cx="248.75" cy="300.01" r="2.5" fill="#2563eb"/>
  <circle cx="250.10" cy="250.44" r="2.5" fill="#2563eb"/>
  <circle cx="251.46" cy="300.39" r="2.5" fill="#2563eb"/>
  <circle cx="252.81" cy="249.86" r="2.5" fill="#2563eb"/>
  <circle cx="254.17" cy="250.11" r="2.5" fill="#2563eb"/>
  <circle cx="255.52" cy="201.46" r="2.5" fill="#2563eb"/>
  <circle cx="256.88" cy="300.01" r="2.5" fill="#2563eb"/>
  <circle cx="258.23" cy="200.83" r="2.5" fill="#2563eb"/>
  <circle cx="259.58" cy="250.03" r="2.5" fill="#2563eb"/>
  <circle cx="260.94" cy="249.99" r="2.5" fill="#2563eb"/>
  <circle cx="262.29" cy="300.26" r="2.5" fill="#2563eb"/>
  <circle cx="263.65" cy="300.01" r="2.5" fill="#2563eb"/>
  <circle cx="265.00" cy="300.01" r="2.5" fill="#2563eb"/>
  <circle cx="266.35" cy="250.03" r="2.5" fill="#2563eb"/>
  <circle cx="267.71" cy="250.03" r="2.5" fill="#2563eb"/>
  <circle cx="269.06" cy="250.03" r="2.5" fill="#2563eb"/>
  <circle cx="270.42" cy="250.03" r="2.5" fill="#2563eb"/>
  <circle cx="271.77" cy="249.99" r="2.5" fill="#2563eb"/>
  <circle cx="273.12" cy="250.03" r="2.5" fill="#2563eb"/>
  <circle cx="274.48" cy="200.00" r="2.5" fill="#2563eb"/>
  <circle cx="275.83" cy="300.26" r="2.5" fill="#2563eb"/>
  <circle cx="277.19" cy="249.99" r="2.5" fill="#2563eb"/>
  <circle cx="278.54" cy="300.01" r="2.5" fill="#2563eb"/>
  <circle cx="279.90" cy="249.94" r="2.5" fill="#2563eb"/>
  <circle cx="281.25" cy="250.03" r="2.5" fill="#2563eb"/>
  <circle cx="282.60" cy="250.03" r="2.5" fill="#2563eb"/>
  <circle cx="283.96" cy="250.03" r="2.5" fill="#2563eb"/>
  <circle cx="285.31" cy="200.04" r="2.5" fill="#2563eb"/>
  <circle cx="286.67" cy="300.01" r="2.5" fill="#2563eb"/>
  <circle cx="288.02" cy="249.90" r="2.5" fill="#2563eb"/>
  <circle cx="289.38" cy="300.01" r="2.5" fill="#2563eb"/>
  <circle cx="290.73" cy="300.01" r="2.5" fill="#2563eb"/>
  <circle cx="292.08" cy="300.06" r="2.5" fill="#2563eb"/>
  <circle cx="293.44" cy="300.01" r="2.5" fill="#2563eb"/>
  <circle cx="294.79" cy="300.01" r="2.5" fill="#2563eb"/>
  <circle cx="296.15" cy="243.95" r="2.5" fill="#2563eb"/>
  <circle cx="297.50" cy="249.94" r="2.5" fill="#2563eb"/>
  <circle cx="298.85" cy="299.97" r="2.5" fill="#2563eb"/>
  <circle cx="300.21" cy="300.01" r="2.5" fill="#2563eb"/>
  <circle cx="301.56" cy="300.01" r="2.5" fill="#2563eb"/>
  <circle cx="302.92" cy="250.03" r="2.5" fill="#2563eb"/>
  <circle cx="304.27" cy="300.01" r="2.5" fill="#2563eb"/>
  <circle cx="305.62" cy="300.01" r="2.5" fill="#2563eb"/>
  <circle cx="306.98" cy="299.97" r="2.5" fill="#2563eb"/>
  <circle cx="308.33" cy="249.99" r="2.5" fill="#2563eb"/>
  <circle cx="309.69" cy="300.01" r="2.5" fill="#2563eb"/>
  <circle cx="311.04" cy="299.93" r="2.5" fill="#2563eb"/>
  <circle cx="312.40" cy="300.01" r="2.5" fill="#2563eb"/>
  <circle cx="313.75" cy="299.93" r="2.5" fill="#2563eb"/>
  <circle cx="315.10" cy="300.01" r="2.5" fill="#2563eb"/>
  <circle cx="316.46" cy="300.01" r="2.5" fill="#2563eb"/>
  <circle cx="317.81" cy="299.89" r="2.5" fill="#2563eb"/>
  <circle cx="319.17" cy="299.97" r="2.5" fill="#2563eb"/>
  <circle cx="320.52" cy="250.03" r="2.5" fill="#2563eb"/>
  <circle cx="321.88" cy="299.93" r="2.5" fill="#2563eb"/>
  <circle cx="323.23" cy="299.89" r="2.5" fill="#2563eb"/>
  <circle cx="324.58" cy="299.97" r="2.5" fill="#2563eb"/>
  <circle cx="325.94" cy="249.94" r="2.5" fill="#2563eb"/>
  <circle cx="327.29" cy="300.01" r="2.5" fill="#2563eb"/>
  <circle cx="328.65" cy="300.01" r="2.5" fill="#2563eb"/>
  <circle cx="330.00" cy="299.97" r="2.5" fill="#2563eb"/>
  <circle cx="331.35" cy="249.99" r="2.5" fill="#2563eb"/>
  <circle cx="332.71" cy="299.97" r="2.5" fill="#2563eb"/>
  <circle cx="334.06" cy="299.97" r="2.5" fill="#2563eb"/>
  <circle cx="335.42" cy="300.06" r="2.5" fill="#2563eb"/>
  <circle cx="336.77" cy="300.06" r="2.5" fill="#2563eb"/>
  <circle cx="338.12" cy="299.93" r="2.5" fill="#2563eb"/>
  <circle cx="339.48" cy="300.01" r="2.5" fill="#2563eb"/>
  <circle cx="340.83" cy="300.01" r="2.5" fill="#2563eb"/>
  <circle cx="342.19" cy="299.93" r="2.5" fill="#2563eb"/>
  <circle cx="343.54" cy="300.01" r="2.5" fill="#2563eb"/>
  <circle cx="344.90" cy="300.01" r="2.5" fill="#2563eb"/>
  <circle cx="346.25" cy="299.97" r="2.5" fill="#2563eb"/>
  <circle cx="347.60" cy="300.01" r="2.5" fill="#2563eb"/>
  <circle cx="348.96" cy="300.01" r="2.5" fill="#2563eb"/>
  <circle cx="350.31" cy="300.01" r="2.5" fill="#2563eb"/>
  <circle cx="351.67" cy="300.01" r="2.5" fill="#2563eb"/>
  <circle cx="353.02" cy="249.86" r="2.5" fill="#2563eb"/>
  <circle cx="354.38" cy="300.01" r="2.5" fill="#2563eb"/>
  <circle cx="355.73" cy="300.10" r="2.5" fill="#2563eb"/>
  <circle cx="357.08" cy="299.93" r="2.5" fill="#2563eb"/>
  <circle cx="358.44" cy="300.01" r="2.5" fill="#2563eb"/>
  <circle cx="359.79" cy="299.93" r="2.5" fill="#2563eb"/>
  <circle cx="361.15" cy="300.01" r="2.5" fill="#2563eb"/>
  <circle cx="362.50" cy="300.01" r="2.5" fill="#2563eb"/>
  <circle cx="363.85" cy="300.01" r="2.5" fill="#2563eb"/>
  <circle cx="365.21" cy="300.01" r="2.5" fill="#2563eb"/>
  <circle cx="366.56" cy="300.01" r="2.5" fill="#2563eb"/>
  <circle cx="367.92" cy="299.97" r="2.5" fill="#2563eb"/>
  <circle cx="369.27" cy="300.01" r="2.5" fill="#2563eb"/>
  <circle cx="370.62" cy="300.01" r="2.5" fill="#2563eb"/>
  <circle cx="371.98" cy="300.01" r="2.5" fill="#2563eb"/>
  <circle cx="373.33" cy="300.01" r="2.5" fill="#2563eb"/>
  <circle cx="374.69" cy="250.03" r="2.5" fill="#2563eb"/>
  <circle cx="376.04" cy="300.01" r="2.5" fill="#2563eb"/>
  <circle cx="377.40" cy="300.01" r="2.5" fill="#2563eb"/>
  <circle cx="378.75" cy="299.97" r="2.5" fill="#2563eb"/>
  <circle cx="380.10" cy="300.01" r="2.5" fill="#2563eb"/>
  <circle cx="381.46" cy="300.01" r="2.5" fill="#2563eb"/>
  <circle cx="382.81" cy="299.97" r="2.5" fill="#2563eb"/>
  <circle cx="384.17" cy="299.97" r="2.5" fill="#2563eb"/>
  <circle cx="385.52" cy="300.01" r="2.5" fill="#2563eb"/>
  <circle cx="386.88" cy="299.97" r="2.5" fill="#2563eb"/>
  <circle cx="388.23" cy="300.01" r="2.5" fill="#2563eb"/>
  <circle cx="389.58" cy="299.93" r="2.5" fill="#2563eb"/>
  <circle cx="390.94" cy="300.01" r="2.5" fill="#2563eb"/>
  <circle cx="392.29" cy="250.03" r="2.5" fill="#2563eb"/>
  <circle cx="393.65" cy="300.01" r="2.5" fill="#2563eb"/>
  <circle cx="395.00" cy="300.01" r="2.5" fill="#2563eb"/>
  <circle cx="396.35" cy="300.01" r="2.5" fill="#2563eb"/>
  <circle cx="397.71" cy="300.01" r="2.5" fill="#2563eb"/>
  <circle cx="399.06" cy="300.01" r="2.5" fill="#2563eb"/>
  <circle cx="400.42" cy="299.89" r="2.5" fill="#2563eb"/>
  <circle cx="401.77" cy="300.01" r="2.5" fill="#2563eb"/>
  <circle cx="403.12" cy="300.01" r="2.5" fill="#2563eb"/>
  <circle cx="404.48" cy="250.07" r="2.5" fill="#2563eb"/>
  <circle cx="405.83" cy="300.01" r="2.5" fill="#2563eb"/>
  <circle cx="407.19" cy="299.93" r="2.5" fill="#2563eb"/>
  <circle cx="408.54" cy="300.01" r="2.5" fill="#2563eb"/>
  <circle cx="409.90" cy="299.97" r="2.5" fill="#2563eb"/>
  <circle cx="411.25" cy="299.97" r="2.5" fill="#2563eb"/>
  <circle cx="412.60" cy="299.97" r="2.5" fill="#2563eb"/>
  <circle cx="413.96" cy="250.03" r="2.5" fill="#2563eb"/>
  <circle cx="415.31" cy="300.01" r="2.5" fill="#2563eb"/>
  <circle cx="416.67" cy="300.01" r="2.5" fill="#2563eb"/>
  <circle cx="418.02" cy="300.01" r="2.5" fill="#2563eb"/>
  <circle cx="419.38" cy="300.01" r="2.5" fill="#2563eb"/>
  <circle cx="420.73" cy="299.97" r="2.5" fill="#2563eb"/>
  <circle cx="422.08" cy="300.01" r="2.5" fill="#2563eb"/>
  <circle cx="423.44" cy="299.97" r="2.5" fill="#2563eb"/>
  <circle cx="424.79" cy="300.01" r="2.5" fill="#2563eb"/>
  <circle cx="426.15" cy="299.97" r="2.5" fill="#2563eb"/>
  <circle cx="427.50" cy="249.90" r="2.5" fill="#2563eb"/>
  <circle cx="428.85" cy="300.01" r="2.5" fill="#2563eb"/>
  <circle cx="430.21" cy="300.01" r="2.5" fill="#2563eb"/>
  <circle cx="431.56" cy="299.89" r="2.5" fill="#2563eb"/>
  <circle cx="432.92" cy="299.97" r="2.5" fill="#2563eb"/>
  <circle cx="434.27" cy="299.97" r="2.5" fill="#2563eb"/>
  <circle cx="435.62" cy="249.99" r="2.5" fill="#2563eb"/>
  <circle cx="436.98" cy="299.97" r="2.5" fill="#2563eb"/>
  <circle cx="438.33" cy="299.89" r="2.5" fill="#2563eb"/>
  <circle cx="439.69" cy="300.01" r="2.5" fill="#2563eb"/>
  <circle cx="441.04" cy="299.97" r="2.5" fill="#2563eb"/>
  <circle cx="442.40" cy="299.97" r="2.5" fill="#2563eb"/>
  <circle cx="443.75" cy="300.01" r="2.5" fill="#2563eb"/>
  <circle cx="445.10" cy="299.97" r="2.5" fill="#2563eb"/>
  <circle cx="446.46" cy="249.99" r="2.5" fill="#2563eb"/>
  <circle cx="447.81" cy="299.97" r="2.5" fill="#2563eb"/>
  <circle cx="449.17" cy="299.97" r="2.5" fill="#2563eb"/>
  <circle cx="450.52" cy="300.06" r="2.5" fill="#2563eb"/>
  <circle cx="451.88" cy="300.06" r="2.5" fill="#2563eb"/>
  <circle cx="453.23" cy="249.94" r="2.5" fill="#2563eb"/>
  <circle cx="454.58" cy="300.01" r="2.5" fill="#2563eb"/>
  <circle cx="455.94" cy="299.93" r="2.5" fill="#2563eb"/>
  <circle cx="457.29" cy="300.01" r="2.5" fill="#2563eb"/>
  <circle cx="458.65" cy="300.01" r="2.5" fill="#2563eb"/>
  <circle cx="460.00" cy="249.99" r="2.5" fill="#2563eb"/>
  <circle cx="461.35" cy="300.01" r="2.5" fill="#2563eb"/>
  <circle cx="462.71" cy="300.01" r="2.5" fill="#2563eb"/>
  <circle cx="464.06" cy="300.01" r="2.5" fill="#2563eb"/>
  <circle cx="465.42" cy="299.93" r="2.5" fill="#2563eb"/>
  <circle cx="466.77" cy="299.93" r="2.5" fill="#2563eb"/>
  <circle cx="468.12" cy="300.01" r="2.5" fill="#2563eb"/>
  <circle cx="469.48" cy="300.01" r="2.5" fill="#2563eb"/>
  <circle cx="470.83" cy="249.94" r="2.5" fill="#2563eb"/>
  <circle cx="472.19" cy="299.97" r="2.5" fill="#2563eb"/>
  <circle cx="473.54" cy="299.97" r="2.5" fill="#2563eb"/>
  <circle cx="474.90" cy="300.01" r="2.5" fill="#2563eb"/>
  <circle cx="476.25" cy="300.01" r="2.5" fill="#2563eb"/>
  <circle cx="477.60" cy="300.01" r="2.5" fill="#2563eb"/>
  <circle cx="478.96" cy="249.99" r="2.5" fill="#2563eb"/>
  <circle cx="480.31" cy="300.01" r="2.5" fill="#2563eb"/>
  <circle cx="481.67" cy="300.01" r="2.5" fill="#2563eb"/>
  <circle cx="483.02" cy="300.01" r="2.5" fill="#2563eb"/>
  <circle cx="484.38" cy="250.03" r="2.5" fill="#2563eb"/>
  <circle cx="485.73" cy="300.01" r="2.5" fill="#2563eb"/>
  <circle cx="487.08" cy="300.01" r="2.5" fill="#2563eb"/>
  <circle cx="488.44" cy="300.01" r="2.5" fill="#2563eb"/>
  <circle cx="489.79" cy="299.97" r="2.5" fill="#2563eb"/>
  <circle cx="491.15" cy="300.01" r="2.5" fill="#2563eb"/>
  <circle cx="492.50" cy="300.01" r="2.5" fill="#2563eb"/>
  <circle cx="493.85" cy="299.97" r="2.5" fill="#2563eb"/>
  <circle cx="495.21" cy="299.97" r="2.5" fill="#2563eb"/>
  <circle cx="496.56" cy="300.01" r="2.5" fill="#2563eb"/>
  <circle cx="497.92" cy="300.01" r="2.5" fill="#2563eb"/>
  <circle cx="499.27" cy="299.97" r="2.5" fill="#2563eb"/>
  <circle cx="500.62" cy="299.93" r="2.5" fill="#2563eb"/>
  <circle cx="501.98" cy="300.01" r="2.5" fill="#2563eb"/>
  <circle cx="503.33" cy="300.06" r="2.5" fill="#2563eb"/>
  <circle cx="504.69" cy="299.97" r="2.5" fill="#2563eb"/>
  <circle cx="506.04" cy="300.01" r="2.5" fill="#2563eb"/>
  <circle cx="507.40" cy="250.03" r="2.5" fill="#2563eb"/>
  <circle cx="508.75" cy="250.03" r="2.5" fill="#2563eb"/>
  <circle cx="510.10" cy="299.93" r="2.5" fill="#2563eb"/>
  <circle cx="511.46" cy="299.97" r="2.5" fill="#2563eb"/>
  <circle cx="512.81" cy="300.01" r="2.5" fill="#2563eb"/>
  <circle cx="514.17" cy="300.01" r="2.5" fill="#2563eb"/>
  <circle cx="515.52" cy="300.06" r="2.5" fill="#2563eb"/>
  <circle cx="516.88" cy="300.01" r="2.5" fill="#2563eb"/>
  <circle cx="518.23" cy="299.93" r="2.5" fill="#2563eb"/>
  <circle cx="519.58" cy="300.01" r="2.5" fill="#2563eb"/>
  <circle cx="520.94" cy="300.01" r="2.5" fill="#2563eb"/>
  <circle cx="522.29" cy="299.97" r="2.5" fill="#2563eb"/>
  <circle cx="523.65" cy="299.97" r="2.5" fill="#2563eb"/>
  <circle cx="525.00" cy="300.01" r="2.5" fill="#2563eb"/>
  <circle cx="526.35" cy="250.03" r="2.5" fill="#2563eb"/>
  <circle cx="527.71" cy="300.01" r="2.5" fill="#2563eb"/>
  <circle cx="529.06" cy="300.01" r="2.5" fill="#2563eb"/>
  <circle cx="530.42" cy="300.01" r="2.5" fill="#2563eb"/>
  <circle cx="531.77" cy="299.97" r="2.5" fill="#2563eb"/>
  <circle cx="533.12" cy="300.01" r="2.5" fill="#2563eb"/>
  <circle cx="534.48" cy="299.97" r="2.5" fill="#2563eb"/>
  <circle cx="535.83" cy="300.01" r="2.5" fill="#2563eb"/>
  <circle cx="537.19" cy="299.97" r="2.5" fill="#2563eb"/>
  <circle cx="538.54" cy="299.97" r="2.5" fill="#2563eb"/>
  <circle cx="539.90" cy="299.93" r="2.5" fill="#2563eb"/>
  <circle cx="541.25" cy="300.01" r="2.5" fill="#2563eb"/>
  <circle cx="542.60" cy="300.01" r="2.5" fill="#2563eb"/>
  <circle cx="543.96" cy="299.89" r="2.5" fill="#2563eb"/>
  <circle cx="545.31" cy="299.97" r="2.5" fill="#2563eb"/>
  <circle cx="546.67" cy="299.97" r="2.5" fill="#2563eb"/>
  <circle cx="548.02" cy="300.06" r="2.5" fill="#2563eb"/>
  <circle cx="549.38" cy="249.90" r="2.5" fill="#2563eb"/>
  <circle cx="550.73" cy="299.89" r="2.5" fill="#2563eb"/>
  <circle cx="552.08" cy="300.01" r="2.5" fill="#2563eb"/>
  <circle cx="553.44" cy="299.97" r="2.5" fill="#2563eb"/>
  <circle cx="554.79" cy="299.97" r="2.5" fill="#2563eb"/>
  <circle cx="556.15" cy="299.97" r="2.5" fill="#2563eb"/>
  <circle cx="557.50" cy="300.01" r="2.5" fill="#2563eb"/>
  <circle cx="558.85" cy="300.01" r="2.5" fill="#2563eb"/>
  <circle cx="560.21" cy="299.97" r="2.5" fill="#2563eb"/>
  <circle cx="561.56" cy="299.97" r="2.5" fill="#2563eb"/>
  <circle cx="562.92" cy="299.97" r="2.5" fill="#2563eb"/>
  <circle cx="564.27" cy="250.03" r="2.5" fill="#2563eb"/>
  <circle cx="565.62" cy="299.93" r="2.5" fill="#2563eb"/>
  <circle cx="566.98" cy="300.01" r="2.5" fill="#2563eb"/>
  <circle cx="568.33" cy="300.01" r="2.5" fill="#2563eb"/>
  <circle cx="569.69" cy="299.93" r="2.5" fill="#2563eb"/>
  <circle cx="571.04" cy="300.01" r="2.5" fill="#2563eb"/>
  <circle cx="572.40" cy="300.01" r="2.5" fill="#2563eb"/>
  <circle cx="573.75" cy="299.97" r="2.5" fill="#2563eb"/>
  <circle cx="575.10" cy="300.01" r="2.5" fill="#2563eb"/>
  <circle cx="576.46" cy="300.01" r="2.5" fill="#2563eb"/>
  <circle cx="577.81" cy="300.06" r="2.5" fill="#2563eb"/>
  <circle cx="579.17" cy="300.01" r="2.5" fill="#2563eb"/>
  <circle cx="580.52" cy="299.97" r="2.5" fill="#2563eb"/>
  <circle cx="581.88" cy="299.89" r="2.5" fill="#2563eb"/>
  <circle cx="583.23" cy="300.01" r="2.5" fill="#2563eb"/>
  <circle cx="584.58" cy="300.01" r="2.5" fill="#2563eb"/>
  <circle cx="585.94" cy="249.94" r="2.5" fill="#2563eb"/>
  <circle cx="587.29" cy="249.94" r="2.5" fill="#2563eb"/>
  <circle cx="588.65" cy="300.01" r="2.5" fill="#2563eb"/>
  <circle cx="590.00" cy="300.01" r="2.5" fill="#2563eb"/>
  <circle cx="591.35" cy="300.01" r="2.5" fill="#2563eb"/>
  <circle cx="592.71" cy="300.01" r="2.5" fill="#2563eb"/>
  <circle cx="594.06" cy="299.97" r="2.5" fill="#2563eb"/>
  <circle cx="595.42" cy="250.03" r="2.5" fill="#2563eb"/>
  <circle cx="596.77" cy="300.01" r="2.5" fill="#2563eb"/>
  <circle cx="598.12" cy="300.01" r="2.5" fill="#2563eb"/>
  <circle cx="599.48" cy="300.01" r="2.5" fill="#2563eb"/>
  <circle cx="600.83" cy="300.01" r="2.5" fill="#2563eb"/>
  <circle cx="602.19" cy="250.03" r="2.5" fill="#2563eb"/>
  <circle cx="603.54" cy="249.99" r="2.5" fill="#2563eb"/>
  <circle cx="604.90" cy="300.01" r="2.5" fill="#2563eb"/>
  <circle cx="606.25" cy="299.97" r="2.5" fill="#2563eb"/>
  <circle cx="607.60" cy="300.01" r="2.5" fill="#2563eb"/>
  <circle cx="608.96" cy="299.97" r="2.5" fill="#2563eb"/>
  <circle cx="610.31" cy="300.01" r="2.5" fill="#2563eb"/>
  <circle cx="611.67" cy="299.97" r="2.5" fill="#2563eb"/>
  <circle cx="613.02" cy="299.97" r="2.5" fill="#2563eb"/>
  <circle cx="614.38" cy="299.97" r="2.5" fill="#2563eb"/>
  <circle cx="615.73" cy="300.06" r="2.5" fill="#2563eb"/>
  <circle cx="617.08" cy="249.99" r="2.5" fill="#2563eb"/>
  <circle cx="618.44" cy="300.01" r="2.5" fill="#2563eb"/>
  <circle cx="619.79" cy="250.03" r="2.5" fill="#2563eb"/>
  <circle cx="621.15" cy="249.94" r="2.5" fill="#2563eb"/>
  <circle cx="622.50" cy="249.99" r="2.5" fill="#2563eb"/>
  <circle cx="623.85" cy="300.01" r="2.5" fill="#2563eb"/>
  <circle cx="625.21" cy="300.06" r="2.5" fill="#2563eb"/>
  <circle cx="626.56" cy="300.01" r="2.5" fill="#2563eb"/>
  <circle cx="627.92" cy="299.97" r="2.5" fill="#2563eb"/>
  <circle cx="629.27" cy="299.97" r="2.5" fill="#2563eb"/>
  <circle cx="630.62" cy="300.01" r="2.5" fill="#2563eb"/>
  <circle cx="631.98" cy="299.93" r="2.5" fill="#2563eb"/>
  <circle cx="633.33" cy="299.89" r="2.5" fill="#2563eb"/>
  <circle cx="634.69" cy="299.89" r="2.5" fill="#2563eb"/>
  <circle cx="636.04" cy="299.89" r="2.5" fill="#2563eb"/>
  <circle cx="637.40" cy="299.89" r="2.5" fill="#2563eb"/>
  <circle cx="638.75" cy="299.85" r="2.5" fill="#2563eb"/>
  <circle cx="640.10" cy="299.85" r="2.5" fill="#2563eb"/>
  <circle cx="641.46" cy="299.89" r="2.5" fill="#2563eb"/>
  <circle cx="642.81" cy="299.81" r="2.5" fill="#2563eb"/>
  <circle cx="644.17" cy="299.81" r="2.5" fill="#2563eb"/>
  <circle cx="645.52" cy="299.81" r="2.5" fill="#2563eb"/>
  <circle cx="646.88" cy="299.76" r="2.5" fill="#2563eb"/>
  <circle cx="648.23" cy="299.76" r="2.5" fill="#2563eb"/>
  <circle cx="649.58" cy="299.76" r="2.5" fill="#2563eb"/>
  <circle cx="650.94" cy="299.72" r="2.5" fill="#2563eb"/>
  <circle cx="652.29" cy="299.68" r="2.5" fill="#2563eb"/>
  <circle cx="653.65" cy="299.60" r="2.5" fill="#2563eb"/>
  <circle cx="655.00" cy="299.60" r="2.5" fill="#2563eb"/>
  <circle cx="656.35" cy="299.60" r="2.5" fill="#2563eb"/>
  <circle cx="657.71" cy="299.56" r="2.5" fill="#2563eb"/>
  <circle cx="659.06" cy="299.47" r="2.5" fill="#2563eb"/>
  <circle cx="660.42" cy="299.43" r="2.5" fill="#2563eb"/>
  <circle cx="661.77" cy="299.43" r="2.5" fill="#2563eb"/>
  <circle cx="663.12" cy="299.39" r="2.5" fill="#2563eb"/>
  <circle cx="664.48" cy="299.47" r="2.5" fill="#2563eb"/>
  <circle cx="665.83" cy="259.82" r="2.5" fill="#2563eb"/>
  <circle cx="667.19" cy="338.96" r="2.5" fill="#2563eb"/>
  <circle cx="668.54" cy="299.31" r="2.5" fill="#2563eb"/>
  <circle cx="669.90" cy="299.31" r="2.5" fill="#2563eb"/>
  <circle cx="671.25" cy="299.26" r="2.5" fill="#2563eb"/>
  <circle cx="672.60" cy="299.68" r="2.5" fill="#2563eb"/>
  <circle cx="673.96" cy="299.68" r="2.5" fill="#2563eb"/>
  <circle cx="675.31" cy="299.68" r="2.5" fill="#2563eb"/>
  <circle cx="676.67" cy="299.64" r="2.5" fill="#2563eb"/>
  <circle cx="678.02" cy="299.14" r="2.5" fill="#2563eb"/>
  <circle cx="679.38" cy="299.14" r="2.5" fill="#2563eb"/>
  <circle cx="680.73" cy="299.10" r="2.5" fill="#2563eb"/>
  <circle cx="682.08" cy="299.10" r="2.5" fill="#2563eb"/>
  <circle cx="683.44" cy="299.10" r="2.5" fill="#2563eb"/>
  <circle cx="684.79" cy="248.07" r="2.5" fill="#2563eb"/>
  <circle cx="686.15" cy="299.06" r="2.5" fill="#2563eb"/>
  <circle cx="687.50" cy="299.06" r="2.5" fill="#2563eb"/>
  <circle cx="688.85" cy="299.06" r="2.5" fill="#2563eb"/>
  <circle cx="690.21" cy="299.06" r="2.5" fill="#2563eb"/>
  <circle cx="691.56" cy="299.06" r="2.5" fill="#2563eb"/>
  <circle cx="692.92" cy="298.97" r="2.5" fill="#2563eb"/>
  <circle cx="694.27" cy="298.97" r="2.5" fill="#2563eb"/>
  <circle cx="695.62" cy="298.93" r="2.5" fill="#2563eb"/>
  <circle cx="696.98" cy="298.97" r="2.5" fill="#2563eb"/>
  <circle cx="698.33" cy="298.93" r="2.5" fill="#2563eb"/>
  <circle cx="699.69" cy="298.89" r="2.5" fill="#2563eb"/>
  <circle cx="701.04" cy="298.89" r="2.5" fill="#2563eb"/>
  <circle cx="702.40" cy="298.89" r="2.5" fill="#2563eb"/>
  <circle cx="703.75" cy="298.89" r="2.5" fill="#2563eb"/>
  <circle cx="705.10" cy="247.78" r="2.5" fill="#2563eb"/>
  <circle cx="706.46" cy="298.89" r="2.5" fill="#2563eb"/>
  <circle cx="707.81" cy="298.89" r="2.5" fill="#2563eb"/>
  <circle cx="709.17" cy="298.85" r="2.5" fill="#2563eb"/>
  <circle cx="710.52" cy="298.85" r="2.5" fill="#2563eb"/>
  <circle cx="711.88" cy="298.81" r="2.5" fill="#2563eb"/>
  <circle cx="713.23" cy="298.81" r="2.5" fill="#2563eb"/>
  <circle cx="714.58" cy="298.81" r="2.5" fill="#2563eb"/>
  <circle cx="715.94" cy="298.81" r="2.5" fill="#2563eb"/>
  <circle cx="717.29" cy="298.81" r="2.5" fill="#2563eb"/>
  <circle cx="718.65" cy="298.81" r="2.5" fill="#2563eb"/>
  <circle cx="720.00" cy="298.81" r="2.5" fill="#2563eb"/>
  <circle cx="721.35" cy="298.81" r="2.5" fill="#2563eb"/>
  <circle cx="722.71" cy="298.81" r="2.5" fill="#2563eb"/>
  <circle cx="724.06" cy="298.72" r="2.5" fill="#2563eb"/>
  <circle cx="725.42" cy="247.45" r="2.5" fill="#2563eb"/>
  <circle cx="726.77" cy="247.45" r="2.5" fill="#2563eb"/>
  <circle cx="728.12" cy="298.72" r="2.5" fill="#2563eb"/>
  <circle cx="729.48" cy="298.72" r="2.5" fill="#2563eb"/>
  <circle cx="730.83" cy="298.72" r="2.5" fill="#2563eb"/>
  <circle cx="732.19" cy="298.72" r="2.5" fill="#2563eb"/>
  <circle cx="733.54" cy="298.72" r="2.5" fill="#2563eb"/>
  <circle cx="734.90" cy="298.72" r="2.5" fill="#2563eb"/>
  <circle cx="736.25" cy="247.36" r="2.5" fill="#2563eb"/>
  <circle cx="737.60" cy="298.68" r="2.5" fill="#2563eb"/>
  <circle cx="738.96" cy="247.36" r="2.5" fill="#2563eb"/>
  <circle cx="740.31" cy="247.36" r="2.5" fill="#2563eb"/>
  <circle cx="741.67" cy="247.36" r="2.5" fill="#2563eb"/>
  <circle cx="743.02" cy="298.68" r="2.5" fill="#2563eb"/>
  <circle cx="744.38" cy="298.68" r="2.5" fill="#2563eb"/>
  <circle cx="745.73" cy="298.68" r="2.5" fill="#2563eb"/>
  <circle cx="747.08" cy="298.68" r="2.5" fill="#2563eb"/>
  <circle cx="748.44" cy="298.68" r="2.5" fill="#2563eb"/>
  <circle cx="749.79" cy="341.67" r="2.5" fill="#2563eb"/>
  <circle cx="751.15" cy="307.01" r="2.5" fill="#2563eb"/>
  <circle cx="752.50" cy="298.68" r="2.5" fill="#2563eb"/>
  <circle cx="753.85" cy="298.68" r="2.5" fill="#2563eb"/>
  <circle cx="755.21" cy="298.68" r="2.5" fill="#2563eb"/>
  <circle cx="756.56" cy="247.36" r="2.5" fill="#2563eb"/>
  <circle cx="757.92" cy="298.64" r="2.5" fill="#2563eb"/>
  <circle cx="759.27" cy="247.36" r="2.5" fill="#2563eb"/>
  <circle cx="760.62" cy="247.28" r="2.5" fill="#2563eb"/>
  <circle cx="761.98" cy="247.20" r="2.5" fill="#2563eb"/>
  <circle cx="763.33" cy="298.60" r="2.5" fill="#2563eb"/>
  <circle cx="764.69" cy="298.60" r="2.5" fill="#2563eb"/>
  <circle cx="766.04" cy="247.03" r="2.5" fill="#2563eb"/>
  <circle cx="767.40" cy="298.51" r="2.5" fill="#2563eb"/>
  <circle cx="768.75" cy="298.51" r="2.5" fill="#2563eb"/>
  <circle cx="770.10" cy="298.51" r="2.5" fill="#2563eb"/>
  <circle cx="771.46" cy="298.51" r="2.5" fill="#2563eb"/>
  <circle cx="772.81" cy="298.51" r="2.5" fill="#2563eb"/>
  <circle cx="774.17" cy="298.51" r="2.5" fill="#2563eb"/>
  <circle cx="775.52" cy="298.51" r="2.5" fill="#2563eb"/>
  <circle cx="776.88" cy="298.51" r="2.5" fill="#2563eb"/>
  <circle cx="778.23" cy="298.51" r="2.5" fill="#2563eb"/>
  <circle cx="779.58" cy="298.51" r="2.5" fill="#2563eb"/>
  <circle cx="780.94" cy="298.51" r="2.5" fill="#2563eb"/>
  <circle cx="782.29" cy="298.51" r="2.5" fill="#2563eb"/>
  <circle cx="783.65" cy="298.51" r="2.5" fill="#2563eb"/>
  <circle cx="785.00" cy="298.51" r="2.5" fill="#2563eb"/>
  <circle cx="786.35" cy="298.51" r="2.5" fill="#2563eb"/>
  <circle cx="787.71" cy="298.51" r="2.5" fill="#2563eb"/>
  <circle cx="789.06" cy="298.51" r="2.5" fill="#2563eb"/>
  <circle cx="790.42" cy="298.51" r="2.5" fill="#2563eb"/>
  <circle cx="791.77" cy="298.51" r="2.5" fill="#2563eb"/>
  <circle cx="793.12" cy="298.51" r="2.5" fill="#2563eb"/>
  <circle cx="794.48" cy="298.51" r="2.5" fill="#2563eb"/>
  <circle cx="795.83" cy="298.51" r="2.5" fill="#2563eb"/>
  <circle cx="797.19" cy="298.51" r="2.5" fill="#2563eb"/>
  <circle cx="798.54" cy="298.51" r="2.5" fill="#2563eb"/>
  <circle cx="799.90" cy="298.51" r="2.5" fill="#2563eb"/>
  <circle cx="801.25" cy="298.51" r="2.5" fill="#2563eb"/>
  <circle cx="802.60" cy="298.47" r="2.5" fill="#2563eb"/>
  <circle cx="803.96" cy="298.51" r="2.5" fill="#2563eb"/>
  <circle cx="805.31" cy="298.51" r="2.5" fill="#2563eb"/>
  <circle cx="806.67" cy="298.47" r="2.5" fill="#2563eb"/>
  <circle cx="808.02" cy="298.51" r="2.5" fill="#2563eb"/>
  <circle cx="809.38" cy="298.47" r="2.5" fill="#2563eb"/>
  <circle cx="810.73" cy="298.51" r="2.5" fill="#2563eb"/>
  <circle cx="812.08" cy="298.43" r="2.5" fill="#2563eb"/>
  <circle cx="813.44" cy="298.56" r="2.5" fill="#2563eb"/>
  <circle cx="814.79" cy="298.43" r="2.5" fill="#2563eb"/>
  <circle cx="816.15" cy="298.43" r="2.5" fill="#2563eb"/>
  <circle cx="817.50" cy="298.43" r="2.5" fill="#2563eb"/>
  <circle cx="818.85" cy="298.43" r="2.5" fill="#2563eb"/>
  <circle cx="820.21" cy="298.43" r="2.5" fill="#2563eb"/>
  <circle cx="821.56" cy="298.43" r="2.5" fill="#2563eb"/>
  <circle cx="822.92" cy="298.43" r="2.5" fill="#2563eb"/>
  <circle cx="824.27" cy="298.43" r="2.5" fill="#2563eb"/>
  <circle cx="825.62" cy="298.43" r="2.5" fill="#2563eb"/>
  <circle cx="826.98" cy="298.43" r="2.5" fill="#2563eb"/>
  <circle cx="828.33" cy="298.43" r="2.5" fill="#2563eb"/>
  <circle cx="829.69" cy="298.43" r="2.5" fill="#2563eb"/>
  <circle cx="831.04" cy="298.43" r="2.5" fill="#2563eb"/>
  <circle cx="832.40" cy="298.43" r="2.5" fill="#2563eb"/>
  <circle cx="833.75" cy="298.43" r="2.5" fill="#2563eb"/>
  <circle cx="835.10" cy="298.43" r="2.5" fill="#2563eb"/>
  <circle cx="836.46" cy="298.43" r="2.5" fill="#2563eb"/>
  <circle cx="837.81" cy="298.43" r="2.5" fill="#2563eb"/>
  <circle cx="839.17" cy="298.43" r="2.5" fill="#2563eb"/>
  <circle cx="840.52" cy="298.43" r="2.5" fill="#2563eb"/>
  <circle cx="841.88" cy="298.43" r="2.5" fill="#2563eb"/>
  <circle cx="843.23" cy="298.43" r="2.5" fill="#2563eb"/>
  <circle cx="844.58" cy="298.43" r="2.5" fill="#2563eb"/>
  <circle cx="845.94" cy="298.43" r="2.5" fill="#2563eb"/>
  <circle cx="847.29" cy="298.43" r="2.5" fill="#2563eb"/>
  <circle cx="848.65" cy="298.43" r="2.5" fill="#2563eb"/>
  <circle cx="850.00" cy="298.43" r="2.5" fill="#2563eb"/>
  <circle cx="851.35" cy="298.43" r="2.5" fill="#2563eb"/>
  <circle cx="852.71" cy="298.43" r="2.5" fill="#2563eb"/>
  <circle cx="854.06" cy="298.43" r="2.5" fill="#2563eb"/>
  <circle cx="855.42" cy="298.43" r="2.5" fill="#2563eb"/>
  <circle cx="856.77" cy="298.43" r="2.5" fill="#2563eb"/>
  <circle cx="858.12" cy="298.43" r="2.5" fill="#2563eb"/>
  <circle cx="859.48" cy="298.43" r="2.5" fill="#2563eb"/>
  <circle cx="860.83" cy="298.39" r="2.5" fill="#2563eb"/>
  <circle cx="862.19" cy="298.39" r="2.5" fill="#2563eb"/>
  <circle cx="863.54" cy="298.43" r="2.5" fill="#2563eb"/>
  <circle cx="864.90" cy="298.43" r="2.5" fill="#2563eb"/>
  <circle cx="866.25" cy="298.39" r="2.5" fill="#2563eb"/>
  <circle cx="867.60" cy="298.39" r="2.5" fill="#2563eb"/>
  <circle cx="868.96" cy="298.39" r="2.5" fill="#2563eb"/>
  <circle cx="870.31" cy="298.43" r="2.5" fill="#2563eb"/>
  <circle cx="871.67" cy="298.43" r="2.5" fill="#2563eb"/>
  <circle cx="873.02" cy="298.43" r="2.5" fill="#2563eb"/>
  <circle cx="874.38" cy="246.82" r="2.5" fill="#2563eb"/>
  <circle cx="875.73" cy="298.43" r="2.5" fill="#2563eb"/>
  <circle cx="877.08" cy="246.78" r="2.5" fill="#2563eb"/>
  <circle cx="878.44" cy="246.78" r="2.5" fill="#2563eb"/>
  <circle cx="879.79" cy="246.78" r="2.5" fill="#2563eb"/>
  <circle cx="881.15" cy="246.70" r="2.5" fill="#2563eb"/>
  <circle cx="882.50" cy="246.78" r="2.5" fill="#2563eb"/>
  <circle cx="883.85" cy="298.39" r="2.5" fill="#2563eb"/>
  <circle cx="885.21" cy="298.39" r="2.5" fill="#2563eb"/>
  <circle cx="886.56" cy="298.39" r="2.5" fill="#2563eb"/>
  <circle cx="887.92" cy="298.39" r="2.5" fill="#2563eb"/>
  <circle cx="889.27" cy="298.39" r="2.5" fill="#2563eb"/>
  <circle cx="890.62" cy="246.78" r="2.5" fill="#2563eb"/>
  <circle cx="891.98" cy="298.39" r="2.5" fill="#2563eb"/>
  <circle cx="893.33" cy="298.39" r="2.5" fill="#2563eb"/>
  <circle cx="894.69" cy="298.39" r="2.5" fill="#2563eb"/>
  <circle cx="896.04" cy="298.39" r="2.5" fill="#2563eb"/>
  <circle cx="897.40" cy="298.39" r="2.5" fill="#2563eb"/>
  <circle cx="898.75" cy="246.78" r="2.5" fill="#2563eb"/>
  <circle cx="900.10" cy="246.78" r="2.5" fill="#2563eb"/>
  <circle cx="901.46" cy="298.39" r="2.5" fill="#2563eb"/>
  <circle cx="902.81" cy="298.39" r="2.5" fill="#2563eb"/>
  <circle cx="904.17" cy="298.39" r="2.5" fill="#2563eb"/>
  <circle cx="905.52" cy="298.39" r="2.5" fill="#2563eb"/>
  <circle cx="906.88" cy="298.39" r="2.5" fill="#2563eb"/>
  <circle cx="908.23" cy="298.39" r="2.5" fill="#2563eb"/>
  <circle cx="909.58" cy="298.39" r="2.5" fill="#2563eb"/>
  <circle cx="910.94" cy="298.39" r="2.5" fill="#2563eb"/>
  <circle cx="912.29" cy="298.39" r="2.5" fill="#2563eb"/>
  <circle cx="913.65" cy="298.39" r="2.5" fill="#2563eb"/>
  <circle cx="915.00" cy="298.39" r="2.5" fill="#2563eb"/>
  <circle cx="916.35" cy="298.39" r="2.5" fill="#2563eb"/>
  <circle cx="917.71" cy="298.39" r="2.5" fill="#2563eb"/>
  <circle cx="919.06" cy="298.39" r="2.5" fill="#2563eb"/>
  <circle cx="920.42" cy="298.35" r="2.5" fill="#2563eb"/>
  <circle cx="921.77" cy="298.39" r="2.5" fill="#2563eb"/>
  <circle cx="923.12" cy="298.39" r="2.5" fill="#2563eb"/>
  <circle cx="924.48" cy="298.35" r="2.5" fill="#2563eb"/>
  <circle cx="925.83" cy="298.35" r="2.5" fill="#2563eb"/>
  <circle cx="927.19" cy="298.35" r="2.5" fill="#2563eb"/>
  <circle cx="928.54" cy="298.35" r="2.5" fill="#2563eb"/>
  <circle cx="929.90" cy="298.35" r="2.5" fill="#2563eb"/>
  <circle cx="931.25" cy="298.35" r="2.5" fill="#2563eb"/>
  <circle cx="932.60" cy="298.35" r="2.5" fill="#2563eb"/>
  <circle cx="933.96" cy="298.35" r="2.5" fill="#2563eb"/>
  <circle cx="935.31" cy="298.35" r="2.5" fill="#2563eb"/>
  <circle cx="936.67" cy="298.35" r="2.5" fill="#2563eb"/>
  <circle cx="938.02" cy="298.35" r="2.5" fill="#2563eb"/>
  <circle cx="939.38" cy="298.35" r="2.5" fill="#2563eb"/>
  <circle cx="940.73" cy="298.35" r="2.5" fill="#2563eb"/>
  <circle cx="942.08" cy="298.35" r="2.5" fill="#2563eb"/>
  <circle cx="943.44" cy="298.35" r="2.5" fill="#2563eb"/>
  <circle cx="944.79" cy="298.35" r="2.5" fill="#2563eb"/>
  <circle cx="946.15" cy="298.35" r="2.5" fill="#2563eb"/>
  <circle cx="947.50" cy="298.35" r="2.5" fill="#2563eb"/>
  <circle cx="948.85" cy="298.35" r="2.5" fill="#2563eb"/>
  <circle cx="950.21" cy="298.35" r="2.5" fill="#2563eb"/>
  <circle cx="951.56" cy="298.35" r="2.5" fill="#2563eb"/>
  <circle cx="952.92" cy="298.35" r="2.5" fill="#2563eb"/>
  <circle cx="954.27" cy="298.35" r="2.5" fill="#2563eb"/>
  <circle cx="955.62" cy="298.35" r="2.5" fill="#2563eb"/>
  <circle cx="956.98" cy="298.35" r="2.5" fill="#2563eb"/>
  <circle cx="958.33" cy="298.35" r="2.5" fill="#2563eb"/>
  <circle cx="959.69" cy="298.35" r="2.5" fill="#2563eb"/>
  <circle cx="961.04" cy="298.35" r="2.5" fill="#2563eb"/>
  <circle cx="962.40" cy="298.35" r="2.5" fill="#2563eb"/>
  <circle cx="963.75" cy="298.35" r="2.5" fill="#2563eb"/>
  <circle cx="965.10" cy="298.35" r="2.5" fill="#2563eb"/>
  <circle cx="966.46" cy="298.35" r="2.5" fill="#2563eb"/>
  <circle cx="967.81" cy="298.35" r="2.5" fill="#2563eb"/>
  <circle cx="969.17" cy="298.35" r="2.5" fill="#2563eb"/>
  <circle cx="970.52" cy="298.35" r="2.5" fill="#2563eb"/>
  <circle cx="971.88" cy="298.35" r="2.5" fill="#2563eb"/>
  <circle cx="973.23" cy="298.35" r="2.5" fill="#2563eb"/>
  <circle cx="974.58" cy="298.35" r="2.5" fill="#2563eb"/>
  <circle cx="975.94" cy="298.35" r="2.5" fill="#2563eb"/>
  <circle cx="977.29" cy="298.35" r="2.5" fill="#2563eb"/>
  <circle cx="978.65" cy="298.35" r="2.5" fill="#2563eb"/>
  <circle cx="980.00" cy="298.35" r="2.5" fill="#2563eb"/>
</svg>
