<?xml version="1.0" encoding="UTF-8"?>
<svg xmlns="http://www.w3.org/2000/svg" width="1000" height="420" viewBox="0 0 1000 420">
  <rect width="100%" height="100%" fill="#ffffff"/>
  <text x="70" y="28" font-size="20" font-weight="600">수집 시점 기준 - 시간별 스냅샷</text>
  <text x="70" y="402" font-size="12" fill="#555">스냅샷 수</text>
  <line x1="70" y1="350.00" x2="980" y2="350.00" stroke="#e5e7eb" stroke-width="1"/>
  <text x="62" y="354.00" font-size="11" fill="#6b7280" text-anchor="end">0</text>
  <line x1="70" y1="290.00" x2="980" y2="290.00" stroke="#e5e7eb" stroke-width="1"/>
  <text x="62" y="294.00" font-size="11" fill="#6b7280" text-anchor="end">1,440</text>
  <line x1="70" y1="230.00" x2="980" y2="230.00" stroke="#e5e7eb" stroke-width="1"/>
  <text x="62" y="234.00" font-size="11" fill="#6b7280" text-anchor="end">2,880</text>
  <line x1="70" y1="170.00" x2="980" y2="170.00" stroke="#e5e7eb" stroke-width="1"/>
  <text x="62" y="174.00" font-size="11" fill="#6b7280" text-anchor="end">4,321</text>
  <line x1="70" y1="110.00" x2="980" y2="110.00" stroke="#e5e7eb" stroke-width="1"/>
  <text x="62" y="114.00" font-size="11" fill="#6b7280" text-anchor="end">5,761</text>
  <line x1="70" y1="50.00" x2="980" y2="50.00" stroke="#e5e7eb" stroke-width="1"/>
  <text x="62" y="54.00" font-size="11" fill="#6b7280" text-anchor="end">7,202</text>
  <line x1="70" y1="350" x2="980" y2="350" stroke="#111827" stroke-width="1.2"/>
  <line x1="70" y1="50" x2="70" y2="350" stroke="#111827" stroke-width="1.2"/>
  <line x1="70.00" y1="350" x2="70.00" y2="356" stroke="#9ca3af" stroke-width="1"/>
  <text x="70.00" y="372" font-size="10" fill="#6b7280" text-anchor="middle">2026-02-28 18</text>
  <line x1="145.51" y1="350" x2="145.51" y2="356" stroke="#9ca3af" stroke-width="1"/>
  <text x="145.51" y="372" font-size="10" fill="#6b7280" text-anchor="middle">2026-03-09 16</text>
  <line x1="221.03" y1="350" x2="221.03" y2="356" stroke="#9ca3af" stroke-width="1"/>
  <text x="221.03" y="372" font-size="10" fill="#6b7280" text-anchor="middle">2026-03-12 07</text>
  <line x1="296.54" y1="350" x2="296.54" y2="356" stroke="#9ca3af" stroke-width="1"/>
  <text x="296.54" y="372" font-size="10" fill="#6b7280" text-anchor="middle">2026-03-15 05</text>
  <line x1="372.05" y1="350" x2="372.05" y2="356" stroke="#9ca3af" stroke-width="1"/>
  <text x="372.05" y="372" font-size="10" fill="#6b7280" text-anchor="middle">2026-03-19 04</text>
  <line x1="447.57" y1="350" x2="447.57" y2="356" stroke="#9ca3af" stroke-width="1"/>
  <text x="447.57" y="372" font-size="10" fill="#6b7280" text-anchor="middle">2026-03-22 15</text>
  <line x1="523.08" y1="350" x2="523.08" y2="356" stroke="#9ca3af" stroke-width="1"/>
  <text x="523.08" y="372" font-size="10" fill="#6b7280" text-anchor="middle">2026-03-26 08</text>
  <line x1="598.59" y1="350" x2="598.59" y2="356" stroke="#9ca3af" stroke-width="1"/>
  <text x="598.59" y="372" font-size="10" fill="#6b7280" text-anchor="middle">2026-03-30 12</text>
  <line x1="674.11" y1="350" x2="674.11" y2="356" stroke="#9ca3af" stroke-width="1"/>
  <text x="674.11" y="372" font-size="10" fill="#6b7280" text-anchor="middle">2026-04-03 16</text>
  <line x1="749.62" y1="350" x2="749.62" y2="356" stroke="#9ca3af" stroke-width="1"/>
  <text x="749.62" y="372" font-size="10" fill="#6b7280" text-anchor="middle">2026-04-07 12</text>
  <line x1="825.13" y1="350" x2="825.13" y2="356" stroke="#9ca3af" stroke-width="1"/>
  <text x="825.13" y="372" font-size="10" fill="#6b7280" text-anchor="middle">2026-04-11 15</text>
  <line x1="900.65" y1="350" x2="900.65" y2="356" stroke="#9ca3af" stroke-width="1"/>
  <text x="900.65" y="372" font-size="10" fill="#6b7280" text-anchor="middle">2026-04-16 04</text>
  <line x1="976.16" y1="350" x2="976.16" y2="356" stroke="#9ca3af" stroke-width="1"/>
  <text x="976.16" y="372" font-size="10" fill="#6b7280" text-anchor="middle">2026-04-20 04</text>
  <line x1="980.00" y1="350" x2="980.00" y2="356" stroke="#9ca3af" stroke-width="1"/>
  <text x="980.00" y="372" font-size="10" fill="#6b7280" text-anchor="middle">2026-04-20 07</text>
  <polyline fill="none" stroke="#2563eb" stroke-width="2.5" points="70.00,50.00 71.28,50.12 72.56,50.17 73.84,50.46 75.12,50.00 76.40,266.90 77.68,50.12 78.96,50.08 80.24,177.46 81.52,211.58 82.80,175.34 84.08,304.14 85.36,200.46 86.64,250.94 87.92,300.01 89.20,300.06 90.48,300.01 91.76,300.01 93.04,348.00 94.32,300.01 95.60,249.99 96.88,200.00 98.16,249.99 99.44,249.99 100.72,250.03 102.00,250.03 103.28,250.03 104.56,250.40 105.84,250.90 107.12,250.90 108.40,251.32 109.68,249.94 110.96,300.01 112.24,299.93 113.52,251.03 114.80,300.68 116.08,250.03 117.36,200.00 118.64,249.99 119.92,250.03 121.20,250.03 122.48,250.03 123.76,300.01 125.04,200.04 126.32,250.03 127.59,250.03 128.87,250.03 130.15,249.90 131.43,250.03 132.71,250.03 133.99,250.94 135.27,250.44 136.55,250.03 137.83,250.03 139.11,300.47 140.39,300.01 141.67,300.43 142.95,250.03 144.23,249.99 145.51,300.43 146.79,249.90 148.07,249.99 149.35,249.99 150.63,200.04 151.91,300.01 153.19,300.01 154.47,300.01 155.75,249.90 157.03,300.01 158.31,250.03 159.59,249.99 160.87,199.96 162.15,300.01 163.43,200.00 164.71,250.36 165.99,250.03 167.27,300.01 168.55,300.01 169.83,250.44 171.11,300.01 172.39,250.03 173.67,250.03 174.95,249.99 176.23,250.49 177.51,250.03 178.79,200.04 180.07,300.01 181.35,250.03 182.63,300.01 183.91,250.11 185.19,300.01 186.47,250.03 187.75,250.03 189.03,199.92 190.31,250.03 191.59,250.03 192.87,250.03 194.15,254.36 195.43,300.01 196.71,299.97 197.99,250.36 199.27,299.97 200.55,250.03 201.83,250.03 203.11,250.03 204.39,250.03 205.67,249.99 206.95,200.00 208.23,299.93 209.51,300.01 210.79,299.97 212.07,249.94 213.35,249.99 214.63,249.82 215.91,249.94 217.19,250.28 218.47,207.00 219.75,250.03 221.03,250.32 222.31,250.40 223.59,300.93 224.87,300.01 226.15,300.10 227.43,249.94 228.71,249.99 229.99,250.07 231.27,249.99 232.55,250.03 233.83,249.94 235.11,200.00 236.39,300.39 237.67,300.01 238.95,300.01 240.23,250.44 241.50,300.39 242.78,249.86 244.06,250.11 245.34,201.46 246.62,300.01 247.90,200.83 249.18,250.03 250.46,249.99 251.74,300.26 253.02,300.01 254.30,300.01 255.58,250.03 256.86,250.03 258.14,250.03 259.42,250.03 260.70,249.99 261.98,250.03 263.26,200.00 264.54,300.26 265.82,249.99 267.10,300.01 268.38,249.94 269.66,250.03 270.94,250.03 272.22,250.03 273.50,200.04 274.78,300.01 276.06,249.90 277.34,300.01 278.62,300.01 279.90,300.06 281.18,300.01 282.46,300.01 283.74,243.95 285.02,249.94 286.30,299.97 287.58,300.01 288.86,300.01 290.14,250.03 291.42,300.01 292.70,300.01 293.98,299.97 295.26,249.99 296.54,300.01 297.82,299.93 299.10,300.01 300.38,299.93 301.66,300.01 302.94,300.01 304.22,299.89 305.50,299.97 306.78,250.03 308.06,299.93 309.34,299.89 310.62,299.97 311.90,249.94 313.18,300.01 314.46,300.01 315.74,299.97 317.02,249.99 318.30,299.97 319.58,299.97 320.86,300.06 322.14,300.06 323.42,299.93 324.70,300.01 325.98,300.01 327.26,299.93 328.54,300.01 329.82,300.01 331.10,299.97 332.38,300.01 333.66,300.01 334.94,300.01 336.22,300.01 337.50,249.86 338.78,300.01 340.06,300.10 341.34,299.93 342.62,300.01 343.90,299.93 345.18,300.01 346.46,300.01 347.74,300.01 349.02,300.01 350.30,300.01 351.58,299.97 352.86,300.01 354.14,300.01 355.41,300.01 356.69,300.01 357.97,250.03 359.25,300.01 360.53,300.01 361.81,299.97 363.09,300.01 364.37,300.01 365.65,299.97 366.93,299.97 368.21,300.01 369.49,299.97 370.77,300.01 372.05,299.93 373.33,300.01 374.61,250.03 375.89,300.01 377.17,300.01 378.45,300.01 379.73,300.01 381.01,300.01 382.29,299.89 383.57,300.01 384.85,300.01 386.13,250.07 387.41,300.01 388.69,299.93 389.97,300.01 391.25,299.97 392.53,299.97 393.81,299.97 395.09,250.03 396.37,300.01 397.65,300.01 398.93,300.01 400.21,300.01 401.49,299.97 402.77,300.01 404.05,299.97 405.33,300.01 406.61,299.97 407.89,249.90 409.17,300.01 410.45,300.01 411.73,299.89 413.01,299.97 414.29,299.97 415.57,249.99 416.85,299.97 418.13,299.89 419.41,300.01 420.69,299.97 421.97,299.97 423.25,300.01 424.53,299.97 425.81,249.99 427.09,299.97 428.37,299.97 429.65,300.06 430.93,300.06 432.21,249.94 433.49,300.01 434.77,299.93 436.05,300.01 437.33,300.01 438.61,249.99 439.89,300.01 441.17,300.01 442.45,300.01 443.73,299.93 445.01,299.93 446.29,300.01 447.57,300.01 448.85,249.94 450.13,299.97 451.41,299.97 452.69,300.01 453.97,300.01 455.25,300.01 456.53,249.99 457.81,300.01 459.09,300.01 460.37,300.01 461.65,250.03 462.93,300.01 464.21,300.01 465.49,300.01 466.77,299.97 468.05,300.01 469.32,300.01 470.60,299.97 471.88,299.97 473.16,300.01 474.44,300.01 475.72,299.97 477.00,299.93 478.28,300.01 479.56,300.06 480.84,299.97 482.12,300.01 483.40,250.03 484.68,250.03 485.96,299.93 487.24,299.97 488.52,300.01 489.80,300.01 491.08,300.06 492.36,300.01 493.64,299.93 494.92,300.01 496.20,300.01 497.48,299.97 498.76,299.97 500.04,300.01 501.32,250.03 502.60,300.01 503.88,300.01 505.16,300.01 506.44,299.97 507.72,300.01 509.00,299.97 510.28,300.01 511.56,299.97 512.84,299.97 514.12,299.93 515.40,300.01 516.68,300.01 517.96,299.89 519.24,299.97 520.52,299.97 521.80,300.06 523.08,249.90 524.36,299.89 525.64,300.01 526.92,299.97 528.20,299.97 529.48,299.97 530.76,300.01 532.04,300.01 533.32,299.97 534.60,299.97 535.88,299.97 537.16,250.03 538.44,299.93 539.72,300.01 541.00,300.01 542.28,299.93 543.56,300.01 544.84,300.01 546.12,299.97 547.40,300.01 548.68,300.01 549.96,300.06 551.24,300.01 552.52,299.97 553.80,299.89 555.08,300.01 556.36,300.01 557.64,249.94 558.92,249.94 560.20,300.01 561.48,300.01 562.76,300.01 564.04,300.01 565.32,299.97 566.60,250.03 567.88,300.01 569.16,300.01 570.44,300.01 571.72,300.01 573.00,250.03 574.28,249.99 575.56,300.01 576.84,299.97 578.12,300.01 579.40,299.97 580.68,300.01 581.95,299.97 583.23,299.97 584.51,299.97 585.79,300.06 587.07,249.99 588.35,300.01 589.63,250.03 590.91,249.94 592.19,249.99 593.47,300.01 594.75,300.06 596.03,300.01 597.31,299.97 598.59,299.97 599.87,300.01 601.15,299.93 602.43,299.89 603.71,299.89 604.99,299.89 606.27,299.89 607.55,299.85 608.83,299.85 610.11,299.89 611.39,299.81 612.67,299.81 613.95,299.81 615.23,299.76 616.51,299.76 617.79,299.76 619.07,299.72 620.35,299.68 621.63,299.60 622.91,299.60 624.19,299.60 625.47,299.56 626.75,299.47 628.03,299.43 629.31,299.43 630.59,299.39 631.87,299.47 633.15,259.82 634.43,338.96 635.71,299.31 636.99,299.31 638.27,299.26 639.55,299.68 640.83,299.68 642.11,299.68 643.39,299.64 644.67,299.14 645.95,299.14 647.23,299.10 648.51,299.10 649.79,299.10 651.07,248.07 652.35,299.06 653.63,299.06 654.91,299.06 656.19,299.06 657.47,299.06 658.75,298.97 660.03,298.97 661.31,298.93 662.59,298.97 663.87,298.93 665.15,298.89 666.43,298.89 667.71,298.89 668.99,298.89 670.27,247.78 671.55,298.89 672.83,298.89 674.11,298.85 675.39,298.85 676.67,298.81 677.95,298.81 679.23,298.81 680.51,298.81 681.79,298.81 683.07,298.81 684.35,298.81 685.63,298.81 686.91,298.81 688.19,298.72 689.47,247.45 690.75,247.45 692.03,298.72 693.31,298.72 694.59,298.72 695.86,298.72 697.14,298.72 698.42,298.72 699.70,247.36 700.98,298.68 702.26,247.36 703.54,247.36 704.82,247.36 706.10,298.68 707.38,298.68 708.66,298.68 709.94,298.68 711.22,298.68 712.50,341.67 713.78,307.01 715.06,298.68 716.34,298.68 717.62,298.68 718.90,247.36 720.18,298.64 721.46,247.36 722.74,247.28 724.02,247.20 725.30,298.60 726.58,298.60 727.86,247.03 729.14,298.51 730.42,298.51 731.70,298.51 732.98,298.51 734.26,298.51 735.54,298.51 736.82,298.51 738.10,298.51 739.38,298.51 740.66,298.51 741.94,298.51 743.22,298.51 744.50,298.51 745.78,298.51 747.06,298.51 748.34,298.51 749.62,298.51 750.90,298.51 752.18,298.51 753.46,298.51 754.74,298.51 756.02,298.51 757.30,298.51 758.58,298.51 759.86,298.51 761.14,298.51 762.42,298.47 763.70,298.51 764.98,298.51 766.26,298.47 767.54,298.51 768.82,298.47 770.10,298.51 771.38,298.43 772.66,298.56 773.94,298.43 775.22,298.43 776.50,298.43 777.78,298.43 779.06,298.43 780.34,298.43 781.62,298.43 782.90,298.43 784.18,298.43 785.46,298.43 786.74,298.43 788.02,298.43 789.30,298.43 790.58,298.43 791.86,298.43 793.14,298.43 794.42,298.43 795.70,298.43 796.98,298.43 798.26,298.43 799.54,298.43 800.82,298.43 802.10,298.43 803.38,298.43 804.66,298.43 805.94,298.43 807.22,298.43 808.50,298.43 809.77,298.43 811.05,298.43 812.33,298.43 813.61,298.43 814.89,298.43 816.17,298.43 817.45,298.39 818.73,298.39 820.01,298.43 821.29,298.43 822.57,298.39 823.85,298.39 825.13,298.39 826.41,298.43 827.69,298.43 828.97,298.43 830.25,246.82 831.53,298.43 832.81,246.78 834.09,246.78 835.37,246.78 836.65,246.70 837.93,246.78 839.21,298.39 840.49,298.39 841.77,298.39 843.05,298.39 844.33,298.39 845.61,246.78 846.89,298.39 848.17,298.39 849.45,298.39 850.73,298.39 852.01,298.39 853.29,246.78 854.57,246.78 855.85,298.39 857.13,298.39 858.41,298.39 859.69,298.39 860.97,298.39 862.25,298.39 863.53,298.39 864.81,298.39 866.09,298.39 867.37,298.39 868.65,298.39 869.93,298.39 871.21,298.39 872.49,298.39 873.77,298.35 875.05,298.39 876.33,298.39 877.61,298.35 878.89,298.35 880.17,298.35 881.45,298.35 882.73,298.35 884.01,298.35 885.29,298.35 886.57,298.35 887.85,298.35 889.13,298.35 890.41,298.35 891.69,298.35 892.97,298.35 894.25,298.35 895.53,298.35 896.81,298.35 898.09,298.35 899.37,298.35 900.65,298.35 901.93,298.35 903.21,298.35 904.49,298.35 905.77,298.35 907.05,298.35 908.33,298.35 909.61,298.35 910.89,298.35 912.17,298.35 913.45,298.35 914.73,298.35 916.01,298.35 917.29,298.35 918.57,298.35 919.85,298.35 921.13,298.35 922.41,298.35 923.68,298.35 924.96,298.35 926.24,298.35 927.52,298.35 928.80,298.35 930.08,298.35 931.36,298.35 932.64,298.35 933.92,298.35 935.20,298.35 936.48,298.35 937.76,298.35 939.04,298.35 940.32,298.35 941.60,298.35 942.88,298.35 944.16,298.39 945.44,298.39 946.72,298.39 948.00,246.78 949.28,298.39 950.56,298.39 951.84,298.39 953.12,298.39 954.40,298.39 955.68,298.39 956.96,298.39 958.24,246.78 959.52,298.39 960.80,298.39 962.08,298.39 963.36,298.39 964.64,298.39 965.92,298.39 967.20,298.39 968.48,246.78 969.76,298.39 971.04,298.39 972.32,298.39 973.60,298.39 974.88,298.39 976.16,298.39 977.44,298.39 978.72,298.39 980.00,298.39"/>
  <circle cx="70.00" cy="50.00" r="2.5" fill="#2563eb"/>
  <circle cx="71.28" cy="50.12" r="2.5" fill="#2563eb"/>
  <circle cx="72.56" cy="50.17" r="2.5" fill="#2563eb"/>
  <circle cx="73.84" cy="50.46" r="2.5" fill="#2563eb"/>
  <circle cx="75.12" cy="50.00" r="2.5" fill="#2563eb"/>
  <circle cx="76.40" cy="266.90" r="2.5" fill="#2563eb"/>
  <circle cx="77.68" cy="50.12" r="2.5" fill="#2563eb"/>
  <circle cx="78.96" cy="50.08" r="2.5" fill="#2563eb"/>
  <circle cx="80.24" cy="177.46" r="2.5" fill="#2563eb"/>
  <circle cx="81.52" cy="211.58" r="2.5" fill="#2563eb"/>
  <circle cx="82.80" cy="175.34" r="2.5" fill="#2563eb"/>
  <circle cx="84.08" cy="304.14" r="2.5" fill="#2563eb"/>
  <circle cx="85.36" cy="200.46" r="2.5" fill="#2563eb"/>
  <circle cx="86.64" cy="250.94" r="2.5" fill="#2563eb"/>
  <circle cx="87.92" cy="300.01" r="2.5" fill="#2563eb"/>
  <circle cx="89.20" cy="300.06" r="2.5" fill="#2563eb"/>
  <circle cx="90.48" cy="300.01" r="2.5" fill="#2563eb"/>
  <circle cx="91.76" cy="300.01" r="2.5" fill="#2563eb"/>
  <circle cx="93.04" cy="348.00" r="2.5" fill="#2563eb"/>
  <circle cx="94.32" cy="300.01" r="2.5" fill="#2563eb"/>
  <circle cx="95.60" cy="249.99" r="2.5" fill="#2563eb"/>
  <circle cx="96.88" cy="200.00" r="2.5" fill="#2563eb"/>
  <circle cx="98.16" cy="249.99" r="2.5" fill="#2563eb"/>
  <circle cx="99.44" cy="249.99" r="2.5" fill="#2563eb"/>
  <circle cx="100.72" cy="250.03" r="2.5" fill="#2563eb"/>
  <circle cx="102.00" cy="250.03" r="2.5" fill="#2563eb"/>
  <circle cx="103.28" cy="250.03" r="2.5" fill="#2563eb"/>
  <circle cx="104.56" cy="250.40" r="2.5" fill="#2563eb"/>
  <circle cx="105.84" cy="250.90" r="2.5" fill="#2563eb"/>
  <circle cx="107.12" cy="250.90" r="2.5" fill="#2563eb"/>
  <circle cx="108.40" cy="251.32" r="2.5" fill="#2563eb"/>
  <circle cx="109.68" cy="249.94" r="2.5" fill="#2563eb"/>
  <circle cx="110.96" cy="300.01" r="2.5" fill="#2563eb"/>
  <circle cx="112.24" cy="299.93" r="2.5" fill="#2563eb"/>
  <circle cx="113.52" cy="251.03" r="2.5" fill="#2563eb"/>
  <circle cx="114.80" cy="300.68" r="2.5" fill="#2563eb"/>
  <circle cx="116.08" cy="250.03" r="2.5" fill="#2563eb"/>
  <circle cx="117.36" cy="200.00" r="2.5" fill="#2563eb"/>
  <circle cx="118.64" cy="249.99" r="2.5" fill="#2563eb"/>
  <circle cx="119.92" cy="250.03" r="2.5" fill="#2563eb"/>
  <circle cx="121.20" cy="250.03" r="2.5" fill="#2563eb"/>
  <circle cx="122.48" cy="250.03" r="2.5" fill="#2563eb"/>
  <circle cx="123.76" cy="300.01" r="2.5" fill="#2563eb"/>
  <circle cx="125.04" cy="200.04" r="2.5" fill="#2563eb"/>
  <circle cx="126.32" cy="250.03" r="2.5" fill="#2563eb"/>
  <circle cx="127.59" cy="250.03" r="2.5" fill="#2563eb"/>
  <circle cx="128.87" cy="250.03" r="2.5" fill="#2563eb"/>
  <circle cx="130.15" cy="249.90" r="2.5" fill="#2563eb"/>
  <circle cx="131.43" cy="250.03" r="2.5" fill="#2563eb"/>
  <circle cx="132.71" cy="250.03" r="2.5" fill="#2563eb"/>
  <circle cx="133.99" cy="250.94" r="2.5" fill="#2563eb"/>
  <circle cx="135.27" cy="250.44" r="2.5" fill="#2563eb"/>
  <circle cx="136.55" cy="250.03" r="2.5" fill="#2563eb"/>
  <circle cx="137.83" cy="250.03" r="2.5" fill="#2563eb"/>
  <circle cx="139.11" cy="300.47" r="2.5" fill="#2563eb"/>
  <circle cx="140.39" cy="300.01" r="2.5" fill="#2563eb"/>
  <circle cx="141.67" cy="300.43" r="2.5" fill="#2563eb"/>
  <circle cx="142.95" cy="250.03" r="2.5" fill="#2563eb"/>
  <circle cx="144.23" cy="249.99" r="2.5" fill="#2563eb"/>
  <circle cx="145.51" cy="300.43" r="2.5" fill="#2563eb"/>
  <circle cx="146.79" cy="249.90" r="2.5" fill="#2563eb"/>
  <circle cx="148.07" cy="249.99" r="2.5" fill="#2563eb"/>
  <circle cx="149.35" cy="249.99" r="2.5" fill="#2563eb"/>
  <circle cx="150.63" cy="200.04" r="2.5" fill="#2563eb"/>
  <circle cx="151.91" cy="300.01" r="2.5" fill="#2563eb"/>
  <circle cx="153.19" cy="300.01" r="2.5" fill="#2563eb"/>
  <circle cx="154.47" cy="300.01" r="2.5" fill="#2563eb"/>
  <circle cx="155.75" cy="249.90" r="2.5" fill="#2563eb"/>
  <circle cx="157.03" cy="300.01" r="2.5" fill="#2563eb"/>
  <circle cx="158.31" cy="250.03" r="2.5" fill="#2563eb"/>
  <circle cx="159.59" cy="249.99" r="2.5" fill="#2563eb"/>
  <circle cx="160.87" cy="199.96" r="2.5" fill="#2563eb"/>
  <circle cx="162.15" cy="300.01" r="2.5" fill="#2563eb"/>
  <circle cx="163.43" cy="200.00" r="2.5" fill="#2563eb"/>
  <circle cx="164.71" cy="250.36" r="2.5" fill="#2563eb"/>
  <circle cx="165.99" cy="250.03" r="2.5" fill="#2563eb"/>
  <circle cx="167.27" cy="300.01" r="2.5" fill="#2563eb"/>
  <circle cx="168.55" cy="300.01" r="2.5" fill="#2563eb"/>
  <circle cx="169.83" cy="250.44" r="2.5" fill="#2563eb"/>
  <circle cx="171.11" cy="300.01" r="2.5" fill="#2563eb"/>
  <circle cx="172.39" cy="250.03" r="2.5" fill="#2563eb"/>
  <circle cx="173.67" cy="250.03" r="2.5" fill="#2563eb"/>
  <circle cx="174.95" cy="249.99" r="2.5" fill="#2563eb"/>
  <circle cx="176.23" cy="250.49" r="2.5" fill="#2563eb"/>
  <circle cx="177.51" cy="250.03" r="2.5" fill="#2563eb"/>
  <circle cx="178.79" cy="200.04" r="2.5" fill="#2563eb"/>
  <circle cx="180.07" cy="300.01" r="2.5" fill="#2563eb"/>
  <circle cx="181.35" cy="250.03" r="2.5" fill="#2563eb"/>
  <circle cx="182.63" cy="300.01" r="2.5" fill="#2563eb"/>
  <circle cx="183.91" cy="250.11" r="2.5" fill="#2563eb"/>
  <circle cx="185.19" cy="300.01" r="2.5" fill="#2563eb"/>
  <circle cx="186.47" cy="250.03" r="2.5" fill="#2563eb"/>
  <circle cx="187.75" cy="250.03" r="2.5" fill="#2563eb"/>
  <circle cx="189.03" cy="199.92" r="2.5" fill="#2563eb"/>
  <circle cx="190.31" cy="250.03" r="2.5" fill="#2563eb"/>
  <circle cx="191.59" cy="250.03" r="2.5" fill="#2563eb"/>
  <circle cx="192.87" cy="250.03" r="2.5" fill="#2563eb"/>
  <circle cx="194.15" cy="254.36" r="2.5" fill="#2563eb"/>
  <circle cx="195.43" cy="300.01" r="2.5" fill="#2563eb"/>
  <circle cx="196.71" cy="299.97" r="2.5" fill="#2563eb"/>
  <circle cx="197.99" cy="250.36" r="2.5" fill="#2563eb"/>
  <circle cx="199.27" cy="299.97" r="2.5" fill="#2563eb"/>
  <circle cx="200.55" cy="250.03" r="2.5" fill="#2563eb"/>
  <circle cx="201.83" cy="250.03" r="2.5" fill="#2563eb"/>
  <circle cx="203.11" cy="250.03" r="2.5" fill="#2563eb"/>
  <circle cx="204.39" cy="250.03" r="2.5" fill="#2563eb"/>
  <circle cx="205.67" cy="249.99" r="2.5" fill="#2563eb"/>
  <circle cx="206.95" cy="200.00" r="2.5" fill="#2563eb"/>
  <circle cx="208.23" cy="299.93" r="2.5" fill="#2563eb"/>
  <circle cx="209.51" cy="300.01" r="2.5" fill="#2563eb"/>
  <circle cx="210.79" cy="299.97" r="2.5" fill="#2563eb"/>
  <circle cx="212.07" cy="249.94" r="2.5" fill="#2563eb"/>
  <circle cx="213.35" cy="249.99" r="2.5" fill="#2563eb"/>
  <circle cx="214.63" cy="249.82" r="2.5" fill="#2563eb"/>
  <circle cx="215.91" cy="249.94" r="2.5" fill="#2563eb"/>
  <circle cx="217.19" cy="250.28" r="2.5" fill="#2563eb"/>
  <circle cx="218.47" cy="207.00" r="2.5" fill="#2563eb"/>
  <circle cx="219.75" cy="250.03" r="2.5" fill="#2563eb"/>
  <circle cx="221.03" cy="250.32" r="2.5" fill="#2563eb"/>
  <circle cx="222.31" cy="250.40" r="2.5" fill="#2563eb"/>
  <circle cx="223.59" cy="300.93" r="2.5" fill="#2563eb"/>
  <circle cx="224.87" cy="300.01" r="2.5" fill="#2563eb"/>
  <circle cx="226.15" cy="300.10" r="2.5" fill="#2563eb"/>
  <circle cx="227.43" cy="249.94" r="2.5" fill="#2563eb"/>
  <circle cx="228.71" cy="249.99" r="2.5" fill="#2563eb"/>
  <circle cx="229.99" cy="250.07" r="2.5" fill="#2563eb"/>
  <circle cx="231.27" cy="249.99" r="2.5" fill="#2563eb"/>
  <circle cx="232.55" cy="250.03" r="2.5" fill="#2563eb"/>
  <circle cx="233.83" cy="249.94" r="2.5" fill="#2563eb"/>
  <circle cx="235.11" cy="200.00" r="2.5" fill="#2563eb"/>
  <circle cx="236.39" cy="300.39" r="2.5" fill="#2563eb"/>
  <circle cx="237.67" cy="300.01" r="2.5" fill="#2563eb"/>
  <circle cx="238.95" cy="300.01" r="2.5" fill="#2563eb"/>
  <circle cx="240.23" cy="250.44" r="2.5" fill="#2563eb"/>
  <circle cx="241.50" cy="300.39" r="2.5" fill="#2563eb"/>
  <circle cx="242.78" cy="249.86" r="2.5" fill="#2563eb"/>
  <circle cx="244.06" cy="250.11" r="2.5" fill="#2563eb"/>
  <circle cx="245.34" cy="201.46" r="2.5" fill="#2563eb"/>
  <circle cx="246.62" cy="300.01" r="2.5" fill="#2563eb"/>
  <circle cx="247.90" cy="200.83" r="2.5" fill="#2563eb"/>
  <circle cx="249.18" cy="250.03" r="2.5" fill="#2563eb"/>
  <circle cx="250.46" cy="249.99" r="2.5" fill="#2563eb"/>
  <circle cx="251.74" cy="300.26" r="2.5" fill="#2563eb"/>
  <circle cx="253.02" cy="300.01" r="2.5" fill="#2563eb"/>
  <circle cx="254.30" cy="300.01" r="2.5" fill="#2563eb"/>
  <circle cx="255.58" cy="250.03" r="2.5" fill="#2563eb"/>
  <circle cx="256.86" cy="250.03" r="2.5" fill="#2563eb"/>
  <circle cx="258.14" cy="250.03" r="2.5" fill="#2563eb"/>
  <circle cx="259.42" cy="250.03" r="2.5" fill="#2563eb"/>
  <circle cx="260.70" cy="249.99" r="2.5" fill="#2563eb"/>
  <circle cx="261.98" cy="250.03" r="2.5" fill="#2563eb"/>
  <circle cx="263.26" cy="200.00" r="2.5" fill="#2563eb"/>
  <circle cx="264.54" cy="300.26" r="2.5" fill="#2563eb"/>
  <circle cx="265.82" cy="249.99" r="2.5" fill="#2563eb"/>
  <circle cx="267.10" cy="300.01" r="2.5" fill="#2563eb"/>
  <circle cx="268.38" cy="249.94" r="2.5" fill="#2563eb"/>
  <circle cx="269.66" cy="250.03" r="2.5" fill="#2563eb"/>
  <circle cx="270.94" cy="250.03" r="2.5" fill="#2563eb"/>
  <circle cx="272.22" cy="250.03" r="2.5" fill="#2563eb"/>
  <circle cx="273.50" cy="200.04" r="2.5" fill="#2563eb"/>
  <circle cx="274.78" cy="300.01" r="2.5" fill="#2563eb"/>
  <circle cx="276.06" cy="249.90" r="2.5" fill="#2563eb"/>
  <circle cx="277.34" cy="300.01" r="2.5" fill="#2563eb"/>
  <circle cx="278.62" cy="300.01" r="2.5" fill="#2563eb"/>
  <circle cx="279.90" cy="300.06" r="2.5" fill="#2563eb"/>
  <circle cx="281.18" cy="300.01" r="2.5" fill="#2563eb"/>
  <circle cx="282.46" cy="300.01" r="2.5" fill="#2563eb"/>
  <circle cx="283.74" cy="243.95" r="2.5" fill="#2563eb"/>
  <circle cx="285.02" cy="249.94" r="2.5" fill="#2563eb"/>
  <circle cx="286.30" cy="299.97" r="2.5" fill="#2563eb"/>
  <circle cx="287.58" cy="300.01" r="2.5" fill="#2563eb"/>
  <circle cx="288.86" cy="300.01" r="2.5" fill="#2563eb"/>
  <circle cx="290.14" cy="250.03" r="2.5" fill="#2563eb"/>
  <circle cx="291.42" cy="300.01" r="2.5" fill="#2563eb"/>
  <circle cx="292.70" cy="300.01" r="2.5" fill="#2563eb"/>
  <circle cx="293.98" cy="299.97" r="2.5" fill="#2563eb"/>
  <circle cx="295.26" cy="249.99" r="2.5" fill="#2563eb"/>
  <circle cx="296.54" cy="300.01" r="2.5" fill="#2563eb"/>
  <circle cx="297.82" cy="299.93" r="2.5" fill="#2563eb"/>
  <circle cx="299.10" cy="300.01" r="2.5" fill="#2563eb"/>
  <circle cx="300.38" cy="299.93" r="2.5" fill="#2563eb"/>
  <circle cx="301.66" cy="300.01" r="2.5" fill="#2563eb"/>
  <circle cx="302.94" cy="300.01" r="2.5" fill="#2563eb"/>
  <circle cx="304.22" cy="299.89" r="2.5" fill="#2563eb"/>
  <circle cx="305.50" cy="299.97" r="2.5" fill="#2563eb"/>
  <circle cx="306.78" cy="250.03" r="2.5" fill="#2563eb"/>
  <circle cx="308.06" cy="299.93" r="2.5" fill="#2563eb"/>
  <circle cx="309.34" cy="299.89" r="2.5" fill="#2563eb"/>
  <circle cx="310.62" cy="299.97" r="2.5" fill="#2563eb"/>
  <circle cx="311.90" cy="249.94" r="2.5" fill="#2563eb"/>
  <circle cx="313.18" cy="300.01" r="2.5" fill="#2563eb"/>
  <circle cx="314.46" cy="300.01" r="2.5" fill="#2563eb"/>
  <circle cx="315.74" cy="299.97" r="2.5" fill="#2563eb"/>
  <circle cx="317.02" cy="249.99" r="2.5" fill="#2563eb"/>
  <circle cx="318.30" cy="299.97" r="2.5" fill="#2563eb"/>
  <circle cx="319.58" cy="299.97" r="2.5" fill="#2563eb"/>
  <circle cx="320.86" cy="300.06" r="2.5" fill="#2563eb"/>
  <circle cx="322.14" cy="300.06" r="2.5" fill="#2563eb"/>
  <circle cx="323.42" cy="299.93" r="2.5" fill="#2563eb"/>
  <circle cx="324.70" cy="300.01" r="2.5" fill="#2563eb"/>
  <circle cx="325.98" cy="300.01" r="2.5" fill="#2563eb"/>
  <circle cx="327.26" cy="299.93" r="2.5" fill="#2563eb"/>
  <circle cx="328.54" cy="300.01" r="2.5" fill="#2563eb"/>
  <circle cx="329.82" cy="300.01" r="2.5" fill="#2563eb"/>
  <circle cx="331.10" cy="299.97" r="2.5" fill="#2563eb"/>
  <circle cx="332.38" cy="300.01" r="2.5" fill="#2563eb"/>
  <circle cx="333.66" cy="300.01" r="2.5" fill="#2563eb"/>
  <circle cx="334.94" cy="300.01" r="2.5" fill="#2563eb"/>
  <circle cx="336.22" cy="300.01" r="2.5" fill="#2563eb"/>
  <circle cx="337.50" cy="249.86" r="2.5" fill="#2563eb"/>
  <circle cx="338.78" cy="300.01" r="2.5" fill="#2563eb"/>
  <circle cx="340.06" cy="300.10" r="2.5" fill="#2563eb"/>
  <circle cx="341.34" cy="299.93" r="2.5" fill="#2563eb"/>
  <circle cx="342.62" cy="300.01" r="2.5" fill="#2563eb"/>
  <circle cx="343.90" cy="299.93" r="2.5" fill="#2563eb"/>
  <circle cx="345.18" cy="300.01" r="2.5" fill="#2563eb"/>
  <circle cx="346.46" cy="300.01" r="2.5" fill="#2563eb"/>
  <circle cx="347.74" cy="300.01" r="2.5" fill="#2563eb"/>
  <circle cx="349.02" cy="300.01" r="2.5" fill="#2563eb"/>
  <circle cx="350.30" cy="300.01" r="2.5" fill="#2563eb"/>
  <circle cx="351.58" cy="299.97" r="2.5" fill="#2563eb"/>
  <circle cx="352.86" cy="300.01" r="2.5" fill="#2563eb"/>
  <circle cx="354.14" cy="300.01" r="2.5" fill="#2563eb"/>
  <circle cx="355.41" cy="300.01" r="2.5" fill="#2563eb"/>
  <circle cx="356.69" cy="300.01" r="2.5" fill="#2563eb"/>
  <circle cx="357.97" cy="250.03" r="2.5" fill="#2563eb"/>
  <circle cx="359.25" cy="300.01" r="2.5" fill="#2563eb"/>
  <circle cx="360.53" cy="300.01" r="2.5" fill="#2563eb"/>
  <circle cx="361.81" cy="299.97" r="2.5" fill="#2563eb"/>
  <circle cx="363.09" cy="300.01" r="2.5" fill="#2563eb"/>
  <circle cx="364.37" cy="300.01" r="2.5" fill="#2563eb"/>
  <circle cx="365.65" cy="299.97" r="2.5" fill="#2563eb"/>
  <circle cx="366.93" cy="299.97" r="2.5" fill="#2563eb"/>
  <circle cx="368.21" cy="300.01" r="2.5" fill="#2563eb"/>
  <circle cx="369.49" cy="299.97" r="2.5" fill="#2563eb"/>
  <circle cx="370.77" cy="300.01" r="2.5" fill="#2563eb"/>
  <circle cx="372.05" cy="299.93" r="2.5" fill="#2563eb"/>
  <circle cx="373.33" cy="300.01" r="2.5" fill="#2563eb"/>
  <circle cx="374.61" cy="250.03" r="2.5" fill="#2563eb"/>
  <circle cx="375.89" cy="300.01" r="2.5" fill="#2563eb"/>
  <circle cx="377.17" cy="300.01" r="2.5" fill="#2563eb"/>
  <circle cx="378.45" cy="300.01" r="2.5" fill="#2563eb"/>
  <circle cx="379.73" cy="300.01" r="2.5" fill="#2563eb"/>
  <circle cx="381.01" cy="300.01" r="2.5" fill="#2563eb"/>
  <circle cx="382.29" cy="299.89" r="2.5" fill="#2563eb"/>
  <circle cx="383.57" cy="300.01" r="2.5" fill="#2563eb"/>
  <circle cx="384.85" cy="300.01" r="2.5" fill="#2563eb"/>
  <circle cx="386.13" cy="250.07" r="2.5" fill="#2563eb"/>
  <circle cx="387.41" cy="300.01" r="2.5" fill="#2563eb"/>
  <circle cx="388.69" cy="299.93" r="2.5" fill="#2563eb"/>
  <circle cx="389.97" cy="300.01" r="2.5" fill="#2563eb"/>
  <circle cx="391.25" cy="299.97" r="2.5" fill="#2563eb"/>
  <circle cx="392.53" cy="299.97" r="2.5" fill="#2563eb"/>
  <circle cx="393.81" cy="299.97" r="2.5" fill="#2563eb"/>
  <circle cx="395.09" cy="250.03" r="2.5" fill="#2563eb"/>
  <circle cx="396.37" cy="300.01" r="2.5" fill="#2563eb"/>
  <circle cx="397.65" cy="300.01" r="2.5" fill="#2563eb"/>
  <circle cx="398.93" cy="300.01" r="2.5" fill="#2563eb"/>
  <circle cx="400.21" cy="300.01" r="2.5" fill="#2563eb"/>
  <circle cx="401.49" cy="299.97" r="2.5" fill="#2563eb"/>
  <circle cx="402.77" cy="300.01" r="2.5" fill="#2563eb"/>
  <circle cx="404.05" cy="299.97" r="2.5" fill="#2563eb"/>
  <circle cx="405.33" cy="300.01" r="2.5" fill="#2563eb"/>
  <circle cx="406.61" cy="299.97" r="2.5" fill="#2563eb"/>
  <circle cx="407.89" cy="249.90" r="2.5" fill="#2563eb"/>
  <circle cx="409.17" cy="300.01" r="2.5" fill="#2563eb"/>
  <circle cx="410.45" cy="300.01" r="2.5" fill="#2563eb"/>
  <circle cx="411.73" cy="299.89" r="2.5" fill="#2563eb"/>
  <circle cx="413.01" cy="299.97" r="2.5" fill="#2563eb"/>
  <circle cx="414.29" cy="299.97" r="2.5" fill="#2563eb"/>
  <circle cx="415.57" cy="249.99" r="2.5" fill="#2563eb"/>
  <circle cx="416.85" cy="299.97" r="2.5" fill="#2563eb"/>
  <circle cx="418.13" cy="299.89" r="2.5" fill="#2563eb"/>
  <circle cx="419.41" cy="300.01" r="2.5" fill="#2563eb"/>
  <circle cx="420.69" cy="299.97" r="2.5" fill="#2563eb"/>
  <circle cx="421.97" cy="299.97" r="2.5" fill="#2563eb"/>
  <circle cx="423.25" cy="300.01" r="2.5" fill="#2563eb"/>
  <circle cx="424.53" cy="299.97" r="2.5" fill="#2563eb"/>
  <circle cx="425.81" cy="249.99" r="2.5" fill="#2563eb"/>
  <circle cx="427.09" cy="299.97" r="2.5" fill="#2563eb"/>
  <circle cx="428.37" cy="299.97" r="2.5" fill="#2563eb"/>
  <circle cx="429.65" cy="300.06" r="2.5" fill="#2563eb"/>
  <circle cx="430.93" cy="300.06" r="2.5" fill="#2563eb"/>
  <circle cx="432.21" cy="249.94" r="2.5" fill="#2563eb"/>
  <circle cx="433.49" cy="300.01" r="2.5" fill="#2563eb"/>
  <circle cx="434.77" cy="299.93" r="2.5" fill="#2563eb"/>
  <circle cx="436.05" cy="300.01" r="2.5" fill="#2563eb"/>
  <circle cx="437.33" cy="300.01" r="2.5" fill="#2563eb"/>
  <circle cx="438.61" cy="249.99" r="2.5" fill="#2563eb"/>
  <circle cx="439.89" cy="300.01" r="2.5" fill="#2563eb"/>
  <circle cx="441.17" cy="300.01" r="2.5" fill="#2563eb"/>
  <circle cx="442.45" cy="300.01" r="2.5" fill="#2563eb"/>
  <circle cx="443.73" cy="299.93" r="2.5" fill="#2563eb"/>
  <circle cx="445.01" cy="299.93" r="2.5" fill="#2563eb"/>
  <circle cx="446.29" cy="300.01" r="2.5" fill="#2563eb"/>
  <circle cx="447.57" cy="300.01" r="2.5" fill="#2563eb"/>
  <circle cx="448.85" cy="249.94" r="2.5" fill="#2563eb"/>
  <circle cx="450.13" cy="299.97" r="2.5" fill="#2563eb"/>
  <circle cx="451.41" cy="299.97" r="2.5" fill="#2563eb"/>
  <circle cx="452.69" cy="300.01" r="2.5" fill="#2563eb"/>
  <circle cx="453.97" cy="300.01" r="2.5" fill="#2563eb"/>
  <circle cx="455.25" cy="300.01" r="2.5" fill="#2563eb"/>
  <circle cx="456.53" cy="249.99" r="2.5" fill="#2563eb"/>
  <circle cx="457.81" cy="300.01" r="2.5" fill="#2563eb"/>
  <circle cx="459.09" cy="300.01" r="2.5" fill="#2563eb"/>
  <circle cx="460.37" cy="300.01" r="2.5" fill="#2563eb"/>
  <circle cx="461.65" cy="250.03" r="2.5" fill="#2563eb"/>
  <circle cx="462.93" cy="300.01" r="2.5" fill="#2563eb"/>
  <circle cx="464.21" cy="300.01" r="2.5" fill="#2563eb"/>
  <circle cx="465.49" cy="300.01" r="2.5" fill="#2563eb"/>
  <circle cx="466.77" cy="299.97" r="2.5" fill="#2563eb"/>
  <circle cx="468.05" cy="300.01" r="2.5" fill="#2563eb"/>
  <circle cx="469.32" cy="300.01" r="2.5" fill="#2563eb"/>
  <circle cx="470.60" cy="299.97" r="2.5" fill="#2563eb"/>
  <circle cx="471.88" cy="299.97" r="2.5" fill="#2563eb"/>
  <circle cx="473.16" cy="300.01" r="2.5" fill="#2563eb"/>
  <circle cx="474.44" cy="300.01" r="2.5" fill="#2563eb"/>
  <circle cx="475.72" cy="299.97" r="2.5" fill="#2563eb"/>
  <circle cx="477.00" cy="299.93" r="2.5" fill="#2563eb"/>
  <circle cx="478.28" cy="300.01" r="2.5" fill="#2563eb"/>
  <circle cx="479.56" cy="300.06" r="2.5" fill="#2563eb"/>
  <circle cx="480.84" cy="299.97" r="2.5" fill="#2563eb"/>
  <circle cx="482.12" cy="300.01" r="2.5" fill="#2563eb"/>
  <circle cx="483.40" cy="250.03" r="2.5" fill="#2563eb"/>
  <circle cx="484.68" cy="250.03" r="2.5" fill="#2563eb"/>
  <circle cx="485.96" cy="299.93" r="2.5" fill="#2563eb"/>
  <circle cx="487.24" cy="299.97" r="2.5" fill="#2563eb"/>
  <circle cx="488.52" cy="300.01" r="2.5" fill="#2563eb"/>
  <circle cx="489.80" cy="300.01" r="2.5" fill="#2563eb"/>
  <circle cx="491.08" cy="300.06" r="2.5" fill="#2563eb"/>
  <circle cx="492.36" cy="300.01" r="2.5" fill="#2563eb"/>
  <circle cx="493.64" cy="299.93" r="2.5" fill="#2563eb"/>
  <circle cx="494.92" cy="300.01" r="2.5" fill="#2563eb"/>
  <circle cx="496.20" cy="300.01" r="2.5" fill="#2563eb"/>
  <circle cx="497.48" cy="299.97" r="2.5" fill="#2563eb"/>
  <circle cx="498.76" cy="299.97" r="2.5" fill="#2563eb"/>
  <circle cx="500.04" cy="300.01" r="2.5" fill="#2563eb"/>
  <circle cx="501.32" cy="250.03" r="2.5" fill="#2563eb"/>
  <circle cx="502.60" cy="300.01" r="2.5" fill="#2563eb"/>
  <circle cx="503.88" cy="300.01" r="2.5" fill="#2563eb"/>
  <circle cx="505.16" cy="300.01" r="2.5" fill="#2563eb"/>
  <circle cx="506.44" cy="299.97" r="2.5" fill="#2563eb"/>
  <circle cx="507.72" cy="300.01" r="2.5" fill="#2563eb"/>
  <circle cx="509.00" cy="299.97" r="2.5" fill="#2563eb"/>
  <circle cx="510.28" cy="300.01" r="2.5" fill="#2563eb"/>
  <circle cx="511.56" cy="299.97" r="2.5" fill="#2563eb"/>
  <circle cx="512.84" cy="299.97" r="2.5" fill="#2563eb"/>
  <circle cx="514.12" cy="299.93" r="2.5" fill="#2563eb"/>
  <circle cx="515.40" cy="300.01" r="2.5" fill="#2563eb"/>
  <circle cx="516.68" cy="300.01" r="2.5" fill="#2563eb"/>
  <circle cx="517.96" cy="299.89" r="2.5" fill="#2563eb"/>
  <circle cx="519.24" cy="299.97" r="2.5" fill="#2563eb"/>
  <circle cx="520.52" cy="299.97" r="2.5" fill="#2563eb"/>
  <circle cx="521.80" cy="300.06" r="2.5" fill="#2563eb"/>
  <circle cx="523.08" cy="249.90" r="2.5" fill="#2563eb"/>
  <circle cx="524.36" cy="299.89" r="2.5" fill="#2563eb"/>
  <circle cx="525.64" cy="300.01" r="2.5" fill="#2563eb"/>
  <circle cx="526.92" cy="299.97" r="2.5" fill="#2563eb"/>
  <circle cx="528.20" cy="299.97" r="2.5" fill="#2563eb"/>
  <circle cx="529.48" cy="299.97" r="2.5" fill="#2563eb"/>
  <circle cx="530.76" cy="300.01" r="2.5" fill="#2563eb"/>
  <circle cx="532.04" cy="300.01" r="2.5" fill="#2563eb"/>
  <circle cx="533.32" cy="299.97" r="2.5" fill="#2563eb"/>
  <circle cx="534.60" cy="299.97" r="2.5" fill="#2563eb"/>
  <circle cx="535.88" cy="299.97" r="2.5" fill="#2563eb"/>
  <circle cx="537.16" cy="250.03" r="2.5" fill="#2563eb"/>
  <circle cx="538.44" cy="299.93" r="2.5" fill="#2563eb"/>
  <circle cx="539.72" cy="300.01" r="2.5" fill="#2563eb"/>
  <circle cx="541.00" cy="300.01" r="2.5" fill="#2563eb"/>
  <circle cx="542.28" cy="299.93" r="2.5" fill="#2563eb"/>
  <circle cx="543.56" cy="300.01" r="2.5" fill="#2563eb"/>
  <circle cx="544.84" cy="300.01" r="2.5" fill="#2563eb"/>
  <circle cx="546.12" cy="299.97" r="2.5" fill="#2563eb"/>
  <circle cx="547.40" cy="300.01" r="2.5" fill="#2563eb"/>
  <circle cx="548.68" cy="300.01" r="2.5" fill="#2563eb"/>
  <circle cx="549.96" cy="300.06" r="2.5" fill="#2563eb"/>
  <circle cx="551.24" cy="300.01" r="2.5" fill="#2563eb"/>
  <circle cx="552.52" cy="299.97" r="2.5" fill="#2563eb"/>
  <circle cx="553.80" cy="299.89" r="2.5" fill="#2563eb"/>
  <circle cx="555.08" cy="300.01" r="2.5" fill="#2563eb"/>
  <circle cx="556.36" cy="300.01" r="2.5" fill="#2563eb"/>
  <circle cx="557.64" cy="249.94" r="2.5" fill="#2563eb"/>
  <circle cx="558.92" cy="249.94" r="2.5" fill="#2563eb"/>
  <circle cx="560.20" cy="300.01" r="2.5" fill="#2563eb"/>
  <circle cx="561.48" cy="300.01" r="2.5" fill="#2563eb"/>
  <circle cx="562.76" cy="300.01" r="2.5" fill="#2563eb"/>
  <circle cx="564.04" cy="300.01" r="2.5" fill="#2563eb"/>
  <circle cx="565.32" cy="299.97" r="2.5" fill="#2563eb"/>
  <circle cx="566.60" cy="250.03" r="2.5" fill="#2563eb"/>
  <circle cx="567.88" cy="300.01" r="2.5" fill="#2563eb"/>
  <circle cx="569.16" cy="300.01" r="2.5" fill="#2563eb"/>
  <circle cx="570.44" cy="300.01" r="2.5" fill="#2563eb"/>
  <circle cx="571.72" cy="300.01" r="2.5" fill="#2563eb"/>
  <circle cx="573.00" cy="250.03" r="2.5" fill="#2563eb"/>
  <circle cx="574.28" cy="249.99" r="2.5" fill="#2563eb"/>
  <circle cx="575.56" cy="300.01" r="2.5" fill="#2563eb"/>
  <circle cx="576.84" cy="299.97" r="2.5" fill="#2563eb"/>
  <circle cx="578.12" cy="300.01" r="2.5" fill="#2563eb"/>
  <circle cx="579.40" cy="299.97" r="2.5" fill="#2563eb"/>
  <circle cx="580.68" cy="300.01" r="2.5" fill="#2563eb"/>
  <circle cx="581.95" cy="299.97" r="2.5" fill="#2563eb"/>
  <circle cx="583.23" cy="299.97" r="2.5" fill="#2563eb"/>
  <circle cx="584.51" cy="299.97" r="2.5" fill="#2563eb"/>
  <circle cx="585.79" cy="300.06" r="2.5" fill="#2563eb"/>
  <circle cx="587.07" cy="249.99" r="2.5" fill="#2563eb"/>
  <circle cx="588.35" cy="300.01" r="2.5" fill="#2563eb"/>
  <circle cx="589.63" cy="250.03" r="2.5" fill="#2563eb"/>
  <circle cx="590.91" cy="249.94" r="2.5" fill="#2563eb"/>
  <circle cx="592.19" cy="249.99" r="2.5" fill="#2563eb"/>
  <circle cx="593.47" cy="300.01" r="2.5" fill="#2563eb"/>
  <circle cx="594.75" cy="300.06" r="2.5" fill="#2563eb"/>
  <circle cx="596.03" cy="300.01" r="2.5" fill="#2563eb"/>
  <circle cx="597.31" cy="299.97" r="2.5" fill="#2563eb"/>
  <circle cx="598.59" cy="299.97" r="2.5" fill="#2563eb"/>
  <circle cx="599.87" cy="300.01" r="2.5" fill="#2563eb"/>
  <circle cx="601.15" cy="299.93" r="2.5" fill="#2563eb"/>
  <circle cx="602.43" cy="299.89" r="2.5" fill="#2563eb"/>
  <circle cx="603.71" cy="299.89" r="2.5" fill="#2563eb"/>
  <circle cx="604.99" cy="299.89" r="2.5" fill="#2563eb"/>
  <circle cx="606.27" cy="299.89" r="2.5" fill="#2563eb"/>
  <circle cx="607.55" cy="299.85" r="2.5" fill="#2563eb"/>
  <circle cx="608.83" cy="299.85" r="2.5" fill="#2563eb"/>
  <circle cx="610.11" cy="299.89" r="2.5" fill="#2563eb"/>
  <circle cx="611.39" cy="299.81" r="2.5" fill="#2563eb"/>
  <circle cx="612.67" cy="299.81" r="2.5" fill="#2563eb"/>
  <circle cx="613.95" cy="299.81" r="2.5" fill="#2563eb"/>
  <circle cx="615.23" cy="299.76" r="2.5" fill="#2563eb"/>
  <circle cx="616.51" cy="299.76" r="2.5" fill="#2563eb"/>
  <circle cx="617.79" cy="299.76" r="2.5" fill="#2563eb"/>
  <circle cx="619.07" cy="299.72" r="2.5" fill="#2563eb"/>
  <circle cx="620.35" cy="299.68" r="2.5" fill="#2563eb"/>
  <circle cx="621.63" cy="299.60" r="2.5" fill="#2563eb"/>
  <circle cx="622.91" cy="299.60" r="2.5" fill="#2563eb"/>
  <circle cx="624.19" cy="299.60" r="2.5" fill="#2563eb"/>
  <circle cx="625.47" cy="299.56" r="2.5" fill="#2563eb"/>
  <circle cx="626.75" cy="299.47" r="2.5" fill="#2563eb"/>
  <circle cx="628.03" cy="299.43" r="2.5" fill="#2563eb"/>
  <circle cx="629.31" cy="299.43" r="2.5" fill="#2563eb"/>
  <circle cx="630.59" cy="299.39" r="2.5" fill="#2563eb"/>
  <circle cx="631.87" cy="299.47" r="2.5" fill="#2563eb"/>
  <circle cx="633.15" cy="259.82" r="2.5" fill="#2563eb"/>
  <circle cx="634.43" cy="338.96" r="2.5" fill="#2563eb"/>
  <circle cx="635.71" cy="299.31" r="2.5" fill="#2563eb"/>
  <circle cx="636.99" cy="299.31" r="2.5" fill="#2563eb"/>
  <circle cx="638.27" cy="299.26" r="2.5" fill="#2563eb"/>
  <circle cx="639.55" cy="299.68" r="2.5" fill="#2563eb"/>
  <circle cx="640.83" cy="299.68" r="2.5" fill="#2563eb"/>
  <circle cx="642.11" cy="299.68" r="2.5" fill="#2563eb"/>
  <circle cx="643.39" cy="299.64" r="2.5" fill="#2563eb"/>
  <circle cx="644.67" cy="299.14" r="2.5" fill="#2563eb"/>
  <circle cx="645.95" cy="299.14" r="2.5" fill="#2563eb"/>
  <circle cx="647.23" cy="299.10" r="2.5" fill="#2563eb"/>
  <circle cx="648.51" cy="299.10" r="2.5" fill="#2563eb"/>
  <circle cx="649.79" cy="299.10" r="2.5" fill="#2563eb"/>
  <circle cx="651.07" cy="248.07" r="2.5" fill="#2563eb"/>
  <circle cx="652.35" cy="299.06" r="2.5" fill="#2563eb"/>
  <circle cx="653.63" cy="299.06" r="2.5" fill="#2563eb"/>
  <circle cx="654.91" cy="299.06" r="2.5" fill="#2563eb"/>
  <circle cx="656.19" cy="299.06" r="2.5" fill="#2563eb"/>
  <circle cx="657.47" cy="299.06" r="2.5" fill="#2563eb"/>
  <circle cx="658.75" cy="298.97" r="2.5" fill="#2563eb"/>
  <circle cx="660.03" cy="298.97" r="2.5" fill="#2563eb"/>
  <circle cx="661.31" cy="298.93" r="2.5" fill="#2563eb"/>
  <circle cx="662.59" cy="298.97" r="2.5" fill="#2563eb"/>
  <circle cx="663.87" cy="298.93" r="2.5" fill="#2563eb"/>
  <circle cx="665.15" cy="298.89" r="2.5" fill="#2563eb"/>
  <circle cx="666.43" cy="298.89" r="2.5" fill="#2563eb"/>
  <circle cx="667.71" cy="298.89" r="2.5" fill="#2563eb"/>
  <circle cx="668.99" cy="298.89" r="2.5" fill="#2563eb"/>
  <circle cx="670.27" cy="247.78" r="2.5" fill="#2563eb"/>
  <circle cx="671.55" cy="298.89" r="2.5" fill="#2563eb"/>
  <circle cx="672.83" cy="298.89" r="2.5" fill="#2563eb"/>
  <circle cx="674.11" cy="298.85" r="2.5" fill="#2563eb"/>
  <circle cx="675.39" cy="298.85" r="2.5" fill="#2563eb"/>
  <circle cx="676.67" cy="298.81" r="2.5" fill="#2563eb"/>
  <circle cx="677.95" cy="298.81" r="2.5" fill="#2563eb"/>
  <circle cx="679.23" cy="298.81" r="2.5" fill="#2563eb"/>
  <circle cx="680.51" cy="298.81" r="2.5" fill="#2563eb"/>
  <circle cx="681.79" cy="298.81" r="2.5" fill="#2563eb"/>
  <circle cx="683.07" cy="298.81" r="2.5" fill="#2563eb"/>
  <circle cx="684.35" cy="298.81" r="2.5" fill="#2563eb"/>
  <circle cx="685.63" cy="298.81" r="2.5" fill="#2563eb"/>
  <circle cx="686.91" cy="298.81" r="2.5" fill="#2563eb"/>
  <circle cx="688.19" cy="298.72" r="2.5" fill="#2563eb"/>
  <circle cx="689.47" cy="247.45" r="2.5" fill="#2563eb"/>
  <circle cx="690.75" cy="247.45" r="2.5" fill="#2563eb"/>
  <circle cx="692.03" cy="298.72" r="2.5" fill="#2563eb"/>
  <circle cx="693.31" cy="298.72" r="2.5" fill="#2563eb"/>
  <circle cx="694.59" cy="298.72" r="2.5" fill="#2563eb"/>
  <circle cx="695.86" cy="298.72" r="2.5" fill="#2563eb"/>
  <circle cx="697.14" cy="298.72" r="2.5" fill="#2563eb"/>
  <circle cx="698.42" cy="298.72" r="2.5" fill="#2563eb"/>
  <circle cx="699.70" cy="247.36" r="2.5" fill="#2563eb"/>
  <circle cx="700.98" cy="298.68" r="2.5" fill="#2563eb"/>
  <circle cx="702.26" cy="247.36" r="2.5" fill="#2563eb"/>
  <circle cx="703.54" cy="247.36" r="2.5" fill="#2563eb"/>
  <circle cx="704.82" cy="247.36" r="2.5" fill="#2563eb"/>
  <circle cx="706.10" cy="298.68" r="2.5" fill="#2563eb"/>
  <circle cx="707.38" cy="298.68" r="2.5" fill="#2563eb"/>
  <circle cx="708.66" cy="298.68" r="2.5" fill="#2563eb"/>
  <circle cx="709.94" cy="298.68" r="2.5" fill="#2563eb"/>
  <circle cx="711.22" cy="298.68" r="2.5" fill="#2563eb"/>
  <circle cx="712.50" cy="341.67" r="2.5" fill="#2563eb"/>
  <circle cx="713.78" cy="307.01" r="2.5" fill="#2563eb"/>
  <circle cx="715.06" cy="298.68" r="2.5" fill="#2563eb"/>
  <circle cx="716.34" cy="298.68" r="2.5" fill="#2563eb"/>
  <circle cx="717.62" cy="298.68" r="2.5" fill="#2563eb"/>
  <circle cx="718.90" cy="247.36" r="2.5" fill="#2563eb"/>
  <circle cx="720.18" cy="298.64" r="2.5" fill="#2563eb"/>
  <circle cx="721.46" cy="247.36" r="2.5" fill="#2563eb"/>
  <circle cx="722.74" cy="247.28" r="2.5" fill="#2563eb"/>
  <circle cx="724.02" cy="247.20" r="2.5" fill="#2563eb"/>
  <circle cx="725.30" cy="298.60" r="2.5" fill="#2563eb"/>
  <circle cx="726.58" cy="298.60" r="2.5" fill="#2563eb"/>
  <circle cx="727.86" cy="247.03" r="2.5" fill="#2563eb"/>
  <circle cx="729.14" cy="298.51" r="2.5" fill="#2563eb"/>
  <circle cx="730.42" cy="298.51" r="2.5" fill="#2563eb"/>
  <circle cx="731.70" cy="298.51" r="2.5" fill="#2563eb"/>
  <circle cx="732.98" cy="298.51" r="2.5" fill="#2563eb"/>
  <circle cx="734.26" cy="298.51" r="2.5" fill="#2563eb"/>
  <circle cx="735.54" cy="298.51" r="2.5" fill="#2563eb"/>
  <circle cx="736.82" cy="298.51" r="2.5" fill="#2563eb"/>
  <circle cx="738.10" cy="298.51" r="2.5" fill="#2563eb"/>
  <circle cx="739.38" cy="298.51" r="2.5" fill="#2563eb"/>
  <circle cx="740.66" cy="298.51" r="2.5" fill="#2563eb"/>
  <circle cx="741.94" cy="298.51" r="2.5" fill="#2563eb"/>
  <circle cx="743.22" cy="298.51" r="2.5" fill="#2563eb"/>
  <circle cx="744.50" cy="298.51" r="2.5" fill="#2563eb"/>
  <circle cx="745.78" cy="298.51" r="2.5" fill="#2563eb"/>
  <circle cx="747.06" cy="298.51" r="2.5" fill="#2563eb"/>
  <circle cx="748.34" cy="298.51" r="2.5" fill="#2563eb"/>
  <circle cx="749.62" cy="298.51" r="2.5" fill="#2563eb"/>
  <circle cx="750.90" cy="298.51" r="2.5" fill="#2563eb"/>
  <circle cx="752.18" cy="298.51" r="2.5" fill="#2563eb"/>
  <circle cx="753.46" cy="298.51" r="2.5" fill="#2563eb"/>
  <circle cx="754.74" cy="298.51" r="2.5" fill="#2563eb"/>
  <circle cx="756.02" cy="298.51" r="2.5" fill="#2563eb"/>
  <circle cx="757.30" cy="298.51" r="2.5" fill="#2563eb"/>
  <circle cx="758.58" cy="298.51" r="2.5" fill="#2563eb"/>
  <circle cx="759.86" cy="298.51" r="2.5" fill="#2563eb"/>
  <circle cx="761.14" cy="298.51" r="2.5" fill="#2563eb"/>
  <circle cx="762.42" cy="298.47" r="2.5" fill="#2563eb"/>
  <circle cx="763.70" cy="298.51" r="2.5" fill="#2563eb"/>
  <circle cx="764.98" cy="298.51" r="2.5" fill="#2563eb"/>
  <circle cx="766.26" cy="298.47" r="2.5" fill="#2563eb"/>
  <circle cx="767.54" cy="298.51" r="2.5" fill="#2563eb"/>
  <circle cx="768.82" cy="298.47" r="2.5" fill="#2563eb"/>
  <circle cx="770.10" cy="298.51" r="2.5" fill="#2563eb"/>
  <circle cx="771.38" cy="298.43" r="2.5" fill="#2563eb"/>
  <circle cx="772.66" cy="298.56" r="2.5" fill="#2563eb"/>
  <circle cx="773.94" cy="298.43" r="2.5" fill="#2563eb"/>
  <circle cx="775.22" cy="298.43" r="2.5" fill="#2563eb"/>
  <circle cx="776.50" cy="298.43" r="2.5" fill="#2563eb"/>
  <circle cx="777.78" cy="298.43" r="2.5" fill="#2563eb"/>
  <circle cx="779.06" cy="298.43" r="2.5" fill="#2563eb"/>
  <circle cx="780.34" cy="298.43" r="2.5" fill="#2563eb"/>
  <circle cx="781.62" cy="298.43" r="2.5" fill="#2563eb"/>
  <circle cx="782.90" cy="298.43" r="2.5" fill="#2563eb"/>
  <circle cx="784.18" cy="298.43" r="2.5" fill="#2563eb"/>
  <circle cx="785.46" cy="298.43" r="2.5" fill="#2563eb"/>
  <circle cx="786.74" cy="298.43" r="2.5" fill="#2563eb"/>
  <circle cx="788.02" cy="298.43" r="2.5" fill="#2563eb"/>
  <circle cx="789.30" cy="298.43" r="2.5" fill="#2563eb"/>
  <circle cx="790.58" cy="298.43" r="2.5" fill="#2563eb"/>
  <circle cx="791.86" cy="298.43" r="2.5" fill="#2563eb"/>
  <circle cx="793.14" cy="298.43" r="2.5" fill="#2563eb"/>
  <circle cx="794.42" cy="298.43" r="2.5" fill="#2563eb"/>
  <circle cx="795.70" cy="298.43" r="2.5" fill="#2563eb"/>
  <circle cx="796.98" cy="298.43" r="2.5" fill="#2563eb"/>
  <circle cx="798.26" cy="298.43" r="2.5" fill="#2563eb"/>
  <circle cx="799.54" cy="298.43" r="2.5" fill="#2563eb"/>
  <circle cx="800.82" cy="298.43" r="2.5" fill="#2563eb"/>
  <circle cx="802.10" cy="298.43" r="2.5" fill="#2563eb"/>
  <circle cx="803.38" cy="298.43" r="2.5" fill="#2563eb"/>
  <circle cx="804.66" cy="298.43" r="2.5" fill="#2563eb"/>
  <circle cx="805.94" cy="298.43" r="2.5" fill="#2563eb"/>
  <circle cx="807.22" cy="298.43" r="2.5" fill="#2563eb"/>
  <circle cx="808.50" cy="298.43" r="2.5" fill="#2563eb"/>
  <circle cx="809.77" cy="298.43" r="2.5" fill="#2563eb"/>
  <circle cx="811.05" cy="298.43" r="2.5" fill="#2563eb"/>
  <circle cx="812.33" cy="298.43" r="2.5" fill="#2563eb"/>
  <circle cx="813.61" cy="298.43" r="2.5" fill="#2563eb"/>
  <circle cx="814.89" cy="298.43" r="2.5" fill="#2563eb"/>
  <circle cx="816.17" cy="298.43" r="2.5" fill="#2563eb"/>
  <circle cx="817.45" cy="298.39" r="2.5" fill="#2563eb"/>
  <circle cx="818.73" cy="298.39" r="2.5" fill="#2563eb"/>
  <circle cx="820.01" cy="298.43" r="2.5" fill="#2563eb"/>
  <circle cx="821.29" cy="298.43" r="2.5" fill="#2563eb"/>
  <circle cx="822.57" cy="298.39" r="2.5" fill="#2563eb"/>
  <circle cx="823.85" cy="298.39" r="2.5" fill="#2563eb"/>
  <circle cx="825.13" cy="298.39" r="2.5" fill="#2563eb"/>
  <circle cx="826.41" cy="298.43" r="2.5" fill="#2563eb"/>
  <circle cx="827.69" cy="298.43" r="2.5" fill="#2563eb"/>
  <circle cx="828.97" cy="298.43" r="2.5" fill="#2563eb"/>
  <circle cx="830.25" cy="246.82" r="2.5" fill="#2563eb"/>
  <circle cx="831.53" cy="298.43" r="2.5" fill="#2563eb"/>
  <circle cx="832.81" cy="246.78" r="2.5" fill="#2563eb"/>
  <circle cx="834.09" cy="246.78" r="2.5" fill="#2563eb"/>
  <circle cx="835.37" cy="246.78" r="2.5" fill="#2563eb"/>
  <circle cx="836.65" cy="246.70" r="2.5" fill="#2563eb"/>
  <circle cx="837.93" cy="246.78" r="2.5" fill="#2563eb"/>
  <circle cx="839.21" cy="298.39" r="2.5" fill="#2563eb"/>
  <circle cx="840.49" cy="298.39" r="2.5" fill="#2563eb"/>
  <circle cx="841.77" cy="298.39" r="2.5" fill="#2563eb"/>
  <circle cx="843.05" cy="298.39" r="2.5" fill="#2563eb"/>
  <circle cx="844.33" cy="298.39" r="2.5" fill="#2563eb"/>
  <circle cx="845.61" cy="246.78" r="2.5" fill="#2563eb"/>
  <circle cx="846.89" cy="298.39" r="2.5" fill="#2563eb"/>
  <circle cx="848.17" cy="298.39" r="2.5" fill="#2563eb"/>
  <circle cx="849.45" cy="298.39" r="2.5" fill="#2563eb"/>
  <circle cx="850.73" cy="298.39" r="2.5" fill="#2563eb"/>
  <circle cx="852.01" cy="298.39" r="2.5" fill="#2563eb"/>
  <circle cx="853.29" cy="246.78" r="2.5" fill="#2563eb"/>
  <circle cx="854.57" cy="246.78" r="2.5" fill="#2563eb"/>
  <circle cx="855.85" cy="298.39" r="2.5" fill="#2563eb"/>
  <circle cx="857.13" cy="298.39" r="2.5" fill="#2563eb"/>
  <circle cx="858.41" cy="298.39" r="2.5" fill="#2563eb"/>
  <circle cx="859.69" cy="298.39" r="2.5" fill="#2563eb"/>
  <circle cx="860.97" cy="298.39" r="2.5" fill="#2563eb"/>
  <circle cx="862.25" cy="298.39" r="2.5" fill="#2563eb"/>
  <circle cx="863.53" cy="298.39" r="2.5" fill="#2563eb"/>
  <circle cx="864.81" cy="298.39" r="2.5" fill="#2563eb"/>
  <circle cx="866.09" cy="298.39" r="2.5" fill="#2563eb"/>
  <circle cx="867.37" cy="298.39" r="2.5" fill="#2563eb"/>
  <circle cx="868.65" cy="298.39" r="2.5" fill="#2563eb"/>
  <circle cx="869.93" cy="298.39" r="2.5" fill="#2563eb"/>
  <circle cx="871.21" cy="298.39" r="2.5" fill="#2563eb"/>
  <circle cx="872.49" cy="298.39" r="2.5" fill="#2563eb"/>
  <circle cx="873.77" cy="298.35" r="2.5" fill="#2563eb"/>
  <circle cx="875.05" cy="298.39" r="2.5" fill="#2563eb"/>
  <circle cx="876.33" cy="298.39" r="2.5" fill="#2563eb"/>
  <circle cx="877.61" cy="298.35" r="2.5" fill="#2563eb"/>
  <circle cx="878.89" cy="298.35" r="2.5" fill="#2563eb"/>
  <circle cx="880.17" cy="298.35" r="2.5" fill="#2563eb"/>
  <circle cx="881.45" cy="298.35" r="2.5" fill="#2563eb"/>
  <circle cx="882.73" cy="298.35" r="2.5" fill="#2563eb"/>
  <circle cx="884.01" cy="298.35" r="2.5" fill="#2563eb"/>
  <circle cx="885.29" cy="298.35" r="2.5" fill="#2563eb"/>
  <circle cx="886.57" cy="298.35" r="2.5" fill="#2563eb"/>
  <circle cx="887.85" cy="298.35" r="2.5" fill="#2563eb"/>
  <circle cx="889.13" cy="298.35" r="2.5" fill="#2563eb"/>
  <circle cx="890.41" cy="298.35" r="2.5" fill="#2563eb"/>
  <circle cx="891.69" cy="298.35" r="2.5" fill="#2563eb"/>
  <circle cx="892.97" cy="298.35" r="2.5" fill="#2563eb"/>
  <circle cx="894.25" cy="298.35" r="2.5" fill="#2563eb"/>
  <circle cx="895.53" cy="298.35" r="2.5" fill="#2563eb"/>
  <circle cx="896.81" cy="298.35" r="2.5" fill="#2563eb"/>
  <circle cx="898.09" cy="298.35" r="2.5" fill="#2563eb"/>
  <circle cx="899.37" cy="298.35" r="2.5" fill="#2563eb"/>
  <circle cx="900.65" cy="298.35" r="2.5" fill="#2563eb"/>
  <circle cx="901.93" cy="298.35" r="2.5" fill="#2563eb"/>
  <circle cx="903.21" cy="298.35" r="2.5" fill="#2563eb"/>
  <circle cx="904.49" cy="298.35" r="2.5" fill="#2563eb"/>
  <circle cx="905.77" cy="298.35" r="2.5" fill="#2563eb"/>
  <circle cx="907.05" cy="298.35" r="2.5" fill="#2563eb"/>
  <circle cx="908.33" cy="298.35" r="2.5" fill="#2563eb"/>
  <circle cx="909.61" cy="298.35" r="2.5" fill="#2563eb"/>
  <circle cx="910.89" cy="298.35" r="2.5" fill="#2563eb"/>
  <circle cx="912.17" cy="298.35" r="2.5" fill="#2563eb"/>
  <circle cx="913.45" cy="298.35" r="2.5" fill="#2563eb"/>
  <circle cx="914.73" cy="298.35" r="2.5" fill="#2563eb"/>
  <circle cx="916.01" cy="298.35" r="2.5" fill="#2563eb"/>
  <circle cx="917.29" cy="298.35" r="2.5" fill="#2563eb"/>
  <circle cx="918.57" cy="298.35" r="2.5" fill="#2563eb"/>
  <circle cx="919.85" cy="298.35" r="2.5" fill="#2563eb"/>
  <circle cx="921.13" cy="298.35" r="2.5" fill="#2563eb"/>
  <circle cx="922.41" cy="298.35" r="2.5" fill="#2563eb"/>
  <circle cx="923.68" cy="298.35" r="2.5" fill="#2563eb"/>
  <circle cx="924.96" cy="298.35" r="2.5" fill="#2563eb"/>
  <circle cx="926.24" cy="298.35" r="2.5" fill="#2563eb"/>
  <circle cx="927.52" cy="298.35" r="2.5" fill="#2563eb"/>
  <circle cx="928.80" cy="298.35" r="2.5" fill="#2563eb"/>
  <circle cx="930.08" cy="298.35" r="2.5" fill="#2563eb"/>
  <circle cx="931.36" cy="298.35" r="2.5" fill="#2563eb"/>
  <circle cx="932.64" cy="298.35" r="2.5" fill="#2563eb"/>
  <circle cx="933.92" cy="298.35" r="2.5" fill="#2563eb"/>
  <circle cx="935.20" cy="298.35" r="2.5" fill="#2563eb"/>
  <circle cx="936.48" cy="298.35" r="2.5" fill="#2563eb"/>
  <circle cx="937.76" cy="298.35" r="2.5" fill="#2563eb"/>
  <circle cx="939.04" cy="298.35" r="2.5" fill="#2563eb"/>
  <circle cx="940.32" cy="298.35" r="2.5" fill="#2563eb"/>
  <circle cx="941.60" cy="298.35" r="2.5" fill="#2563eb"/>
  <circle cx="942.88" cy="298.35" r="2.5" fill="#2563eb"/>
  <circle cx="944.16" cy="298.39" r="2.5" fill="#2563eb"/>
  <circle cx="945.44" cy="298.39" r="2.5" fill="#2563eb"/>
  <circle cx="946.72" cy="298.39" r="2.5" fill="#2563eb"/>
  <circle cx="948.00" cy="246.78" r="2.5" fill="#2563eb"/>
  <circle cx="949.28" cy="298.39" r="2.5" fill="#2563eb"/>
  <circle cx="950.56" cy="298.39" r="2.5" fill="#2563eb"/>
  <circle cx="951.84" cy="298.39" r="2.5" fill="#2563eb"/>
  <circle cx="953.12" cy="298.39" r="2.5" fill="#2563eb"/>
  <circle cx="954.40" cy="298.39" r="2.5" fill="#2563eb"/>
  <circle cx="955.68" cy="298.39" r="2.5" fill="#2563eb"/>
  <circle cx="956.96" cy="298.39" r="2.5" fill="#2563eb"/>
  <circle cx="958.24" cy="246.78" r="2.5" fill="#2563eb"/>
  <circle cx="959.52" cy="298.39" r="2.5" fill="#2563eb"/>
  <circle cx="960.80" cy="298.39" r="2.5" fill="#2563eb"/>
  <circle cx="962.08" cy="298.39" r="2.5" fill="#2563eb"/>
  <circle cx="963.36" cy="298.39" r="2.5" fill="#2563eb"/>
  <circle cx="964.64" cy="298.39" r="2.5" fill="#2563eb"/>
  <circle cx="965.92" cy="298.39" r="2.5" fill="#2563eb"/>
  <circle cx="967.20" cy="298.39" r="2.5" fill="#2563eb"/>
  <circle cx="968.48" cy="246.78" r="2.5" fill="#2563eb"/>
  <circle cx="969.76" cy="298.39" r="2.5" fill="#2563eb"/>
  <circle cx="971.04" cy="298.39" r="2.5" fill="#2563eb"/>
  <circle cx="972.32" cy="298.39" r="2.5" fill="#2563eb"/>
  <circle cx="973.60" cy="298.39" r="2.5" fill="#2563eb"/>
  <circle cx="974.88" cy="298.39" r="2.5" fill="#2563eb"/>
  <circle cx="976.16" cy="298.39" r="2.5" fill="#2563eb"/>
  <circle cx="977.44" cy="298.39" r="2.5" fill="#2563eb"/>
  <circle cx="978.72" cy="298.39" r="2.5" fill="#2563eb"/>
  <circle cx="980.00" cy="298.39" r="2.5" fill="#2563eb"/>
</svg>
