<?xml version="1.0" encoding="UTF-8"?>
<svg xmlns="http://www.w3.org/2000/svg" width="1000" height="420" viewBox="0 0 1000 420">
  <rect width="100%" height="100%" fill="#ffffff"/>
  <text x="70" y="28" font-size="20" font-weight="600">수집 시점 기준 - 일별 스냅샷</text>
  <text x="70" y="402" font-size="12" fill="#555">스냅샷 수</text>
  <line x1="70" y1="350.00" x2="980" y2="350.00" stroke="#e5e7eb" stroke-width="1"/>
  <text x="62" y="354.00" font-size="11" fill="#6b7280" text-anchor="end">0</text>
  <line x1="70" y1="290.00" x2="980" y2="290.00" stroke="#e5e7eb" stroke-width="1"/>
  <text x="62" y="294.00" font-size="11" fill="#6b7280" text-anchor="end">10,057</text>
  <line x1="70" y1="230.00" x2="980" y2="230.00" stroke="#e5e7eb" stroke-width="1"/>
  <text x="62" y="234.00" font-size="11" fill="#6b7280" text-anchor="end">20,114</text>
  <line x1="70" y1="170.00" x2="980" y2="170.00" stroke="#e5e7eb" stroke-width="1"/>
  <text x="62" y="174.00" font-size="11" fill="#6b7280" text-anchor="end">30,171</text>
  <line x1="70" y1="110.00" x2="980" y2="110.00" stroke="#e5e7eb" stroke-width="1"/>
  <text x="62" y="114.00" font-size="11" fill="#6b7280" text-anchor="end">40,228</text>
  <line x1="70" y1="50.00" x2="980" y2="50.00" stroke="#e5e7eb" stroke-width="1"/>
  <text x="62" y="54.00" font-size="11" fill="#6b7280" text-anchor="end">50,285</text>
  <line x1="70" y1="350" x2="980" y2="350" stroke="#111827" stroke-width="1.2"/>
  <line x1="70" y1="50" x2="70" y2="350" stroke="#111827" stroke-width="1.2"/>
  <line x1="70.00" y1="350" x2="70.00" y2="356" stroke="#9ca3af" stroke-width="1"/>
  <text x="70.00" y="372" font-size="10" fill="#6b7280" text-anchor="middle">2026-02-28</text>
  <line x1="142.80" y1="350" x2="142.80" y2="356" stroke="#9ca3af" stroke-width="1"/>
  <text x="142.80" y="372" font-size="10" fill="#6b7280" text-anchor="middle">2026-03-08</text>
  <line x1="215.60" y1="350" x2="215.60" y2="356" stroke="#9ca3af" stroke-width="1"/>
  <text x="215.60" y="372" font-size="10" fill="#6b7280" text-anchor="middle">2026-03-12</text>
  <line x1="288.40" y1="350" x2="288.40" y2="356" stroke="#9ca3af" stroke-width="1"/>
  <text x="288.40" y="372" font-size="10" fill="#6b7280" text-anchor="middle">2026-03-16</text>
  <line x1="361.20" y1="350" x2="361.20" y2="356" stroke="#9ca3af" stroke-width="1"/>
  <text x="361.20" y="372" font-size="10" fill="#6b7280" text-anchor="middle">2026-03-20</text>
  <line x1="434.00" y1="350" x2="434.00" y2="356" stroke="#9ca3af" stroke-width="1"/>
  <text x="434.00" y="372" font-size="10" fill="#6b7280" text-anchor="middle">2026-03-24</text>
  <line x1="506.80" y1="350" x2="506.80" y2="356" stroke="#9ca3af" stroke-width="1"/>
  <text x="506.80" y="372" font-size="10" fill="#6b7280" text-anchor="middle">2026-03-28</text>
  <line x1="579.60" y1="350" x2="579.60" y2="356" stroke="#9ca3af" stroke-width="1"/>
  <text x="579.60" y="372" font-size="10" fill="#6b7280" text-anchor="middle">2026-04-01</text>
  <line x1="652.40" y1="350" x2="652.40" y2="356" stroke="#9ca3af" stroke-width="1"/>
  <text x="652.40" y="372" font-size="10" fill="#6b7280" text-anchor="middle">2026-04-05</text>
  <line x1="725.20" y1="350" x2="725.20" y2="356" stroke="#9ca3af" stroke-width="1"/>
  <text x="725.20" y="372" font-size="10" fill="#6b7280" text-anchor="middle">2026-04-09</text>
  <line x1="798.00" y1="350" x2="798.00" y2="356" stroke="#9ca3af" stroke-width="1"/>
  <text x="798.00" y="372" font-size="10" fill="#6b7280" text-anchor="middle">2026-04-13</text>
  <line x1="870.80" y1="350" x2="870.80" y2="356" stroke="#9ca3af" stroke-width="1"/>
  <text x="870.80" y="372" font-size="10" fill="#6b7280" text-anchor="middle">2026-04-17</text>
  <line x1="943.60" y1="350" x2="943.60" y2="356" stroke="#9ca3af" stroke-width="1"/>
  <text x="943.60" y="372" font-size="10" fill="#6b7280" text-anchor="middle">2026-04-21</text>
  <line x1="980.00" y1="350" x2="980.00" y2="356" stroke="#9ca3af" stroke-width="1"/>
  <text x="980.00" y="372" font-size="10" fill="#6b7280" text-anchor="middle">2026-04-23</text>
  <polyline fill="none" stroke="#2563eb" stroke-width="2.5" points="70.00,264.08 88.20,78.85 106.40,253.89 124.60,292.71 142.80,50.00 161.00,78.27 179.20,63.76 197.40,71.41 215.60,64.86 233.80,64.10 252.00,148.63 270.20,206.71 288.40,235.41 306.60,235.42 324.80,242.59 343.00,228.26 361.20,213.91 379.40,192.40 397.60,199.59 415.80,235.43 434.00,228.26 452.20,235.41 470.40,242.53 488.60,242.57 506.80,213.92 525.00,228.26 543.20,228.19 561.40,242.02 579.60,255.89 597.80,240.65 616.00,225.52 634.20,210.50 652.40,217.69 670.60,224.77 688.80,232.02 707.00,254.10 725.20,253.98 743.40,246.60 761.60,209.63 779.80,216.93 798.00,239.12 816.20,253.88 834.40,253.83 852.60,253.83 870.80,253.83 889.00,231.67 907.20,216.95 925.40,239.11 943.60,246.43 961.80,253.89 980.00,283.47"/>
  <circle cx="70.00" cy="264.08" r="2.5" fill="#2563eb"/>
  <circle cx="88.20" cy="78.85" r="2.5" fill="#2563eb"/>
  <circle cx="106.40" cy="253.89" r="2.5" fill="#2563eb"/>
  <circle cx="124.60" cy="292.71" r="2.5" fill="#2563eb"/>
  <circle cx="142.80" cy="50.00" r="2.5" fill="#2563eb"/>
  <circle cx="161.00" cy="78.27" r="2.5" fill="#2563eb"/>
  <circle cx="179.20" cy="63.76" r="2.5" fill="#2563eb"/>
  <circle cx="197.40" cy="71.41" r="2.5" fill="#2563eb"/>
  <circle cx="215.60" cy="64.86" r="2.5" fill="#2563eb"/>
  <circle cx="233.80" cy="64.10" r="2.5" fill="#2563eb"/>
  <circle cx="252.00" cy="148.63" r="2.5" fill="#2563eb"/>
  <circle cx="270.20" cy="206.71" r="2.5" fill="#2563eb"/>
  <circle cx="288.40" cy="235.41" r="2.5" fill="#2563eb"/>
  <circle cx="306.60" cy="235.42" r="2.5" fill="#2563eb"/>
  <circle cx="324.80" cy="242.59" r="2.5" fill="#2563eb"/>
  <circle cx="343.00" cy="228.26" r="2.5" fill="#2563eb"/>
  <circle cx="361.20" cy="213.91" r="2.5" fill="#2563eb"/>
  <circle cx="379.40" cy="192.40" r="2.5" fill="#2563eb"/>
  <circle cx="397.60" cy="199.59" r="2.5" fill="#2563eb"/>
  <circle cx="415.80" cy="235.43" r="2.5" fill="#2563eb"/>
  <circle cx="434.00" cy="228.26" r="2.5" fill="#2563eb"/>
  <circle cx="452.20" cy="235.41" r="2.5" fill="#2563eb"/>
  <circle cx="470.40" cy="242.53" r="2.5" fill="#2563eb"/>
  <circle cx="488.60" cy="242.57" r="2.5" fill="#2563eb"/>
  <circle cx="506.80" cy="213.92" r="2.5" fill="#2563eb"/>
  <circle cx="525.00" cy="228.26" r="2.5" fill="#2563eb"/>
  <circle cx="543.20" cy="228.19" r="2.5" fill="#2563eb"/>
  <circle cx="561.40" cy="242.02" r="2.5" fill="#2563eb"/>
  <circle cx="579.60" cy="255.89" r="2.5" fill="#2563eb"/>
  <circle cx="597.80" cy="240.65" r="2.5" fill="#2563eb"/>
  <circle cx="616.00" cy="225.52" r="2.5" fill="#2563eb"/>
  <circle cx="634.20" cy="210.50" r="2.5" fill="#2563eb"/>
  <circle cx="652.40" cy="217.69" r="2.5" fill="#2563eb"/>
  <circle cx="670.60" cy="224.77" r="2.5" fill="#2563eb"/>
  <circle cx="688.80" cy="232.02" r="2.5" fill="#2563eb"/>
  <circle cx="707.00" cy="254.10" r="2.5" fill="#2563eb"/>
  <circle cx="725.20" cy="253.98" r="2.5" fill="#2563eb"/>
  <circle cx="743.40" cy="246.60" r="2.5" fill="#2563eb"/>
  <circle cx="761.60" cy="209.63" r="2.5" fill="#2563eb"/>
  <circle cx="779.80" cy="216.93" r="2.5" fill="#2563eb"/>
  <circle cx="798.00" cy="239.12" r="2.5" fill="#2563eb"/>
  <circle cx="816.20" cy="253.88" r="2.5" fill="#2563eb"/>
  <circle cx="834.40" cy="253.83" r="2.5" fill="#2563eb"/>
  <circle cx="852.60" cy="253.83" r="2.5" fill="#2563eb"/>
  <circle cx="870.80" cy="253.83" r="2.5" fill="#2563eb"/>
  <circle cx="889.00" cy="231.67" r="2.5" fill="#2563eb"/>
  <circle cx="907.20" cy="216.95" r="2.5" fill="#2563eb"/>
  <circle cx="925.40" cy="239.11" r="2.5" fill="#2563eb"/>
  <circle cx="943.60" cy="246.43" r="2.5" fill="#2563eb"/>
  <circle cx="961.80" cy="253.89" r="2.5" fill="#2563eb"/>
  <circle cx="980.00" cy="283.47" r="2.5" fill="#2563eb"/>
</svg>
