<?xml version="1.0" encoding="UTF-8"?>
<svg xmlns="http://www.w3.org/2000/svg" width="1000" height="420" viewBox="0 0 1000 420">
  <rect width="100%" height="100%" fill="#ffffff"/>
  <text x="70" y="28" font-size="20" font-weight="600">수집 시점 기준 - 시간별 스냅샷</text>
  <text x="70" y="402" font-size="12" fill="#555">스냅샷 수</text>
  <line x1="70" y1="350.00" x2="980" y2="350.00" stroke="#e5e7eb" stroke-width="1"/>
  <text x="62" y="354.00" font-size="11" fill="#6b7280" text-anchor="end">0</text>
  <line x1="70" y1="290.00" x2="980" y2="290.00" stroke="#e5e7eb" stroke-width="1"/>
  <text x="62" y="294.00" font-size="11" fill="#6b7280" text-anchor="end">1,440</text>
  <line x1="70" y1="230.00" x2="980" y2="230.00" stroke="#e5e7eb" stroke-width="1"/>
  <text x="62" y="234.00" font-size="11" fill="#6b7280" text-anchor="end">2,880</text>
  <line x1="70" y1="170.00" x2="980" y2="170.00" stroke="#e5e7eb" stroke-width="1"/>
  <text x="62" y="174.00" font-size="11" fill="#6b7280" text-anchor="end">4,321</text>
  <line x1="70" y1="110.00" x2="980" y2="110.00" stroke="#e5e7eb" stroke-width="1"/>
  <text x="62" y="114.00" font-size="11" fill="#6b7280" text-anchor="end">5,761</text>
  <line x1="70" y1="50.00" x2="980" y2="50.00" stroke="#e5e7eb" stroke-width="1"/>
  <text x="62" y="54.00" font-size="11" fill="#6b7280" text-anchor="end">7,202</text>
  <line x1="70" y1="350" x2="980" y2="350" stroke="#111827" stroke-width="1.2"/>
  <line x1="70" y1="50" x2="70" y2="350" stroke="#111827" stroke-width="1.2"/>
  <line x1="70.00" y1="350" x2="70.00" y2="356" stroke="#9ca3af" stroke-width="1"/>
  <text x="70.00" y="372" font-size="10" fill="#6b7280" text-anchor="middle">2026-02-28 18</text>
  <line x1="145.73" y1="350" x2="145.73" y2="356" stroke="#9ca3af" stroke-width="1"/>
  <text x="145.73" y="372" font-size="10" fill="#6b7280" text-anchor="middle">2026-03-09 16</text>
  <line x1="221.45" y1="350" x2="221.45" y2="356" stroke="#9ca3af" stroke-width="1"/>
  <text x="221.45" y="372" font-size="10" fill="#6b7280" text-anchor="middle">2026-03-12 07</text>
  <line x1="297.18" y1="350" x2="297.18" y2="356" stroke="#9ca3af" stroke-width="1"/>
  <text x="297.18" y="372" font-size="10" fill="#6b7280" text-anchor="middle">2026-03-15 05</text>
  <line x1="372.91" y1="350" x2="372.91" y2="356" stroke="#9ca3af" stroke-width="1"/>
  <text x="372.91" y="372" font-size="10" fill="#6b7280" text-anchor="middle">2026-03-19 04</text>
  <line x1="448.63" y1="350" x2="448.63" y2="356" stroke="#9ca3af" stroke-width="1"/>
  <text x="448.63" y="372" font-size="10" fill="#6b7280" text-anchor="middle">2026-03-22 15</text>
  <line x1="524.36" y1="350" x2="524.36" y2="356" stroke="#9ca3af" stroke-width="1"/>
  <text x="524.36" y="372" font-size="10" fill="#6b7280" text-anchor="middle">2026-03-26 08</text>
  <line x1="600.08" y1="350" x2="600.08" y2="356" stroke="#9ca3af" stroke-width="1"/>
  <text x="600.08" y="372" font-size="10" fill="#6b7280" text-anchor="middle">2026-03-30 12</text>
  <line x1="675.81" y1="350" x2="675.81" y2="356" stroke="#9ca3af" stroke-width="1"/>
  <text x="675.81" y="372" font-size="10" fill="#6b7280" text-anchor="middle">2026-04-03 16</text>
  <line x1="751.54" y1="350" x2="751.54" y2="356" stroke="#9ca3af" stroke-width="1"/>
  <text x="751.54" y="372" font-size="10" fill="#6b7280" text-anchor="middle">2026-04-07 12</text>
  <line x1="827.26" y1="350" x2="827.26" y2="356" stroke="#9ca3af" stroke-width="1"/>
  <text x="827.26" y="372" font-size="10" fill="#6b7280" text-anchor="middle">2026-04-11 15</text>
  <line x1="902.99" y1="350" x2="902.99" y2="356" stroke="#9ca3af" stroke-width="1"/>
  <text x="902.99" y="372" font-size="10" fill="#6b7280" text-anchor="middle">2026-04-16 04</text>
  <line x1="978.72" y1="350" x2="978.72" y2="356" stroke="#9ca3af" stroke-width="1"/>
  <text x="978.72" y="372" font-size="10" fill="#6b7280" text-anchor="middle">2026-04-20 04</text>
  <line x1="980.00" y1="350" x2="980.00" y2="356" stroke="#9ca3af" stroke-width="1"/>
  <text x="980.00" y="372" font-size="10" fill="#6b7280" text-anchor="middle">2026-04-20 05</text>
  <polyline fill="none" stroke="#2563eb" stroke-width="2.5" points="70.00,50.00 71.28,50.12 72.57,50.17 73.85,50.46 75.13,50.00 76.42,266.90 77.70,50.12 78.98,50.08 80.27,177.46 81.55,211.58 82.83,175.34 84.12,304.14 85.40,200.46 86.69,250.94 87.97,300.01 89.25,300.06 90.54,300.01 91.82,300.01 93.10,348.00 94.39,300.01 95.67,249.99 96.95,200.00 98.24,249.99 99.52,249.99 100.80,250.03 102.09,250.03 103.37,250.03 104.65,250.40 105.94,250.90 107.22,250.90 108.50,251.32 109.79,249.94 111.07,300.01 112.36,299.93 113.64,251.03 114.92,300.68 116.21,250.03 117.49,200.00 118.77,249.99 120.06,250.03 121.34,250.03 122.62,250.03 123.91,300.01 125.19,200.04 126.47,250.03 127.76,250.03 129.04,250.03 130.32,249.90 131.61,250.03 132.89,250.03 134.17,250.94 135.46,250.44 136.74,250.03 138.03,250.03 139.31,300.47 140.59,300.01 141.88,300.43 143.16,250.03 144.44,249.99 145.73,300.43 147.01,249.90 148.29,249.99 149.58,249.99 150.86,200.04 152.14,300.01 153.43,300.01 154.71,300.01 155.99,249.90 157.28,300.01 158.56,250.03 159.84,249.99 161.13,199.96 162.41,300.01 163.70,200.00 164.98,250.36 166.26,250.03 167.55,300.01 168.83,300.01 170.11,250.44 171.40,300.01 172.68,250.03 173.96,250.03 175.25,249.99 176.53,250.49 177.81,250.03 179.10,200.04 180.38,300.01 181.66,250.03 182.95,300.01 184.23,250.11 185.51,300.01 186.80,250.03 188.08,250.03 189.37,199.92 190.65,250.03 191.93,250.03 193.22,250.03 194.50,254.36 195.78,300.01 197.07,299.97 198.35,250.36 199.63,299.97 200.92,250.03 202.20,250.03 203.48,250.03 204.77,250.03 206.05,249.99 207.33,200.00 208.62,299.93 209.90,300.01 211.18,299.97 212.47,249.94 213.75,249.99 215.04,249.82 216.32,249.94 217.60,250.28 218.89,207.00 220.17,250.03 221.45,250.32 222.74,250.40 224.02,300.93 225.30,300.01 226.59,300.10 227.87,249.94 229.15,249.99 230.44,250.07 231.72,249.99 233.00,250.03 234.29,249.94 235.57,200.00 236.85,300.39 238.14,300.01 239.42,300.01 240.71,250.44 241.99,300.39 243.27,249.86 244.56,250.11 245.84,201.46 247.12,300.01 248.41,200.83 249.69,250.03 250.97,249.99 252.26,300.26 253.54,300.01 254.82,300.01 256.11,250.03 257.39,250.03 258.67,250.03 259.96,250.03 261.24,249.99 262.52,250.03 263.81,200.00 265.09,300.26 266.38,249.99 267.66,300.01 268.94,249.94 270.23,250.03 271.51,250.03 272.79,250.03 274.08,200.04 275.36,300.01 276.64,249.90 277.93,300.01 279.21,300.01 280.49,300.06 281.78,300.01 283.06,300.01 284.34,243.95 285.63,249.94 286.91,299.97 288.19,300.01 289.48,300.01 290.76,250.03 292.05,300.01 293.33,300.01 294.61,299.97 295.90,249.99 297.18,300.01 298.46,299.93 299.75,300.01 301.03,299.93 302.31,300.01 303.60,300.01 304.88,299.89 306.16,299.97 307.45,250.03 308.73,299.93 310.01,299.89 311.30,299.97 312.58,249.94 313.86,300.01 315.15,300.01 316.43,299.97 317.72,249.99 319.00,299.97 320.28,299.97 321.57,300.06 322.85,300.06 324.13,299.93 325.42,300.01 326.70,300.01 327.98,299.93 329.27,300.01 330.55,300.01 331.83,299.97 333.12,300.01 334.40,300.01 335.68,300.01 336.97,300.01 338.25,249.86 339.53,300.01 340.82,300.10 342.10,299.93 343.39,300.01 344.67,299.93 345.95,300.01 347.24,300.01 348.52,300.01 349.80,300.01 351.09,300.01 352.37,299.97 353.65,300.01 354.94,300.01 356.22,300.01 357.50,300.01 358.79,250.03 360.07,300.01 361.35,300.01 362.64,299.97 363.92,300.01 365.20,300.01 366.49,299.97 367.77,299.97 369.06,300.01 370.34,299.97 371.62,300.01 372.91,299.93 374.19,300.01 375.47,250.03 376.76,300.01 378.04,300.01 379.32,300.01 380.61,300.01 381.89,300.01 383.17,299.89 384.46,300.01 385.74,300.01 387.02,250.07 388.31,300.01 389.59,299.93 390.87,300.01 392.16,299.97 393.44,299.97 394.72,299.97 396.01,250.03 397.29,300.01 398.58,300.01 399.86,300.01 401.14,300.01 402.43,299.97 403.71,300.01 404.99,299.97 406.28,300.01 407.56,299.97 408.84,249.90 410.13,300.01 411.41,300.01 412.69,299.89 413.98,299.97 415.26,299.97 416.54,249.99 417.83,299.97 419.11,299.89 420.39,300.01 421.68,299.97 422.96,299.97 424.25,300.01 425.53,299.97 426.81,249.99 428.10,299.97 429.38,299.97 430.66,300.06 431.95,300.06 433.23,249.94 434.51,300.01 435.80,299.93 437.08,300.01 438.36,300.01 439.65,249.99 440.93,300.01 442.21,300.01 443.50,300.01 444.78,299.93 446.06,299.93 447.35,300.01 448.63,300.01 449.92,249.94 451.20,299.97 452.48,299.97 453.77,300.01 455.05,300.01 456.33,300.01 457.62,249.99 458.90,300.01 460.18,300.01 461.47,300.01 462.75,250.03 464.03,300.01 465.32,300.01 466.60,300.01 467.88,299.97 469.17,300.01 470.45,300.01 471.73,299.97 473.02,299.97 474.30,300.01 475.59,300.01 476.87,299.97 478.15,299.93 479.44,300.01 480.72,300.06 482.00,299.97 483.29,300.01 484.57,250.03 485.85,250.03 487.14,299.93 488.42,299.97 489.70,300.01 490.99,300.01 492.27,300.06 493.55,300.01 494.84,299.93 496.12,300.01 497.40,300.01 498.69,299.97 499.97,299.97 501.26,300.01 502.54,250.03 503.82,300.01 505.11,300.01 506.39,300.01 507.67,299.97 508.96,300.01 510.24,299.97 511.52,300.01 512.81,299.97 514.09,299.97 515.37,299.93 516.66,300.01 517.94,300.01 519.22,299.89 520.51,299.97 521.79,299.97 523.07,300.06 524.36,249.90 525.64,299.89 526.93,300.01 528.21,299.97 529.49,299.97 530.78,299.97 532.06,300.01 533.34,300.01 534.63,299.97 535.91,299.97 537.19,299.97 538.48,250.03 539.76,299.93 541.04,300.01 542.33,300.01 543.61,299.93 544.89,300.01 546.18,300.01 547.46,299.97 548.74,300.01 550.03,300.01 551.31,300.06 552.60,300.01 553.88,299.97 555.16,299.89 556.45,300.01 557.73,300.01 559.01,249.94 560.30,249.94 561.58,300.01 562.86,300.01 564.15,300.01 565.43,300.01 566.71,299.97 568.00,250.03 569.28,300.01 570.56,300.01 571.85,300.01 573.13,300.01 574.41,250.03 575.70,249.99 576.98,300.01 578.27,299.97 579.55,300.01 580.83,299.97 582.12,300.01 583.40,299.97 584.68,299.97 585.97,299.97 587.25,300.06 588.53,249.99 589.82,300.01 591.10,250.03 592.38,249.94 593.67,249.99 594.95,300.01 596.23,300.06 597.52,300.01 598.80,299.97 600.08,299.97 601.37,300.01 602.65,299.93 603.94,299.89 605.22,299.89 606.50,299.89 607.79,299.89 609.07,299.85 610.35,299.85 611.64,299.89 612.92,299.81 614.20,299.81 615.49,299.81 616.77,299.76 618.05,299.76 619.34,299.76 620.62,299.72 621.90,299.68 623.19,299.60 624.47,299.60 625.75,299.60 627.04,299.56 628.32,299.47 629.61,299.43 630.89,299.43 632.17,299.39 633.46,299.47 634.74,259.82 636.02,338.96 637.31,299.31 638.59,299.31 639.87,299.26 641.16,299.68 642.44,299.68 643.72,299.68 645.01,299.64 646.29,299.14 647.57,299.14 648.86,299.10 650.14,299.10 651.42,299.10 652.71,248.07 653.99,299.06 655.28,299.06 656.56,299.06 657.84,299.06 659.13,299.06 660.41,298.97 661.69,298.97 662.98,298.93 664.26,298.97 665.54,298.93 666.83,298.89 668.11,298.89 669.39,298.89 670.68,298.89 671.96,247.78 673.24,298.89 674.53,298.89 675.81,298.85 677.09,298.85 678.38,298.81 679.66,298.81 680.94,298.81 682.23,298.81 683.51,298.81 684.80,298.81 686.08,298.81 687.36,298.81 688.65,298.81 689.93,298.72 691.21,247.45 692.50,247.45 693.78,298.72 695.06,298.72 696.35,298.72 697.63,298.72 698.91,298.72 700.20,298.72 701.48,247.36 702.76,298.68 704.05,247.36 705.33,247.36 706.61,247.36 707.90,298.68 709.18,298.68 710.47,298.68 711.75,298.68 713.03,298.68 714.32,341.67 715.60,307.01 716.88,298.68 718.17,298.68 719.45,298.68 720.73,247.36 722.02,298.64 723.30,247.36 724.58,247.28 725.87,247.20 727.15,298.60 728.43,298.60 729.72,247.03 731.00,298.51 732.28,298.51 733.57,298.51 734.85,298.51 736.14,298.51 737.42,298.51 738.70,298.51 739.99,298.51 741.27,298.51 742.55,298.51 743.84,298.51 745.12,298.51 746.40,298.51 747.69,298.51 748.97,298.51 750.25,298.51 751.54,298.51 752.82,298.51 754.10,298.51 755.39,298.51 756.67,298.51 757.95,298.51 759.24,298.51 760.52,298.51 761.81,298.51 763.09,298.51 764.37,298.47 765.66,298.51 766.94,298.51 768.22,298.47 769.51,298.51 770.79,298.47 772.07,298.51 773.36,298.43 774.64,298.56 775.92,298.43 777.21,298.43 778.49,298.43 779.77,298.43 781.06,298.43 782.34,298.43 783.62,298.43 784.91,298.43 786.19,298.43 787.48,298.43 788.76,298.43 790.04,298.43 791.33,298.43 792.61,298.43 793.89,298.43 795.18,298.43 796.46,298.43 797.74,298.43 799.03,298.43 800.31,298.43 801.59,298.43 802.88,298.43 804.16,298.43 805.44,298.43 806.73,298.43 808.01,298.43 809.29,298.43 810.58,298.43 811.86,298.43 813.15,298.43 814.43,298.43 815.71,298.43 817.00,298.43 818.28,298.43 819.56,298.39 820.85,298.39 822.13,298.43 823.41,298.43 824.70,298.39 825.98,298.39 827.26,298.39 828.55,298.43 829.83,298.43 831.11,298.43 832.40,246.82 833.68,298.43 834.96,246.78 836.25,246.78 837.53,246.78 838.82,246.70 840.10,246.78 841.38,298.39 842.67,298.39 843.95,298.39 845.23,298.39 846.52,298.39 847.80,246.78 849.08,298.39 850.37,298.39 851.65,298.39 852.93,298.39 854.22,298.39 855.50,246.78 856.78,246.78 858.07,298.39 859.35,298.39 860.63,298.39 861.92,298.39 863.20,298.39 864.49,298.39 865.77,298.39 867.05,298.39 868.34,298.39 869.62,298.39 870.90,298.39 872.19,298.39 873.47,298.39 874.75,298.39 876.04,298.35 877.32,298.39 878.60,298.39 879.89,298.35 881.17,298.35 882.45,298.35 883.74,298.35 885.02,298.35 886.30,298.35 887.59,298.35 888.87,298.35 890.16,298.35 891.44,298.35 892.72,298.35 894.01,298.35 895.29,298.35 896.57,298.35 897.86,298.35 899.14,298.35 900.42,298.35 901.71,298.35 902.99,298.35 904.27,298.35 905.56,298.35 906.84,298.35 908.12,298.35 909.41,298.35 910.69,298.35 911.97,298.35 913.26,298.35 914.54,298.35 915.83,298.35 917.11,298.35 918.39,298.35 919.68,298.35 920.96,298.35 922.24,298.35 923.53,298.35 924.81,298.35 926.09,298.35 927.38,298.35 928.66,298.35 929.94,298.35 931.23,298.35 932.51,298.35 933.79,298.35 935.08,298.35 936.36,298.35 937.64,298.35 938.93,298.35 940.21,298.35 941.50,298.35 942.78,298.35 944.06,298.35 945.35,298.35 946.63,298.39 947.91,298.39 949.20,298.39 950.48,246.78 951.76,298.39 953.05,298.39 954.33,298.39 955.61,298.39 956.90,298.39 958.18,298.39 959.46,298.39 960.75,246.78 962.03,298.39 963.31,298.39 964.60,298.39 965.88,298.39 967.17,298.39 968.45,298.39 969.73,298.39 971.02,246.78 972.30,298.39 973.58,298.39 974.87,298.39 976.15,298.39 977.43,298.39 978.72,298.39 980.00,298.39"/>
  <circle cx="70.00" cy="50.00" r="2.5" fill="#2563eb"/>
  <circle cx="71.28" cy="50.12" r="2.5" fill="#2563eb"/>
  <circle cx="72.57" cy="50.17" r="2.5" fill="#2563eb"/>
  <circle cx="73.85" cy="50.46" r="2.5" fill="#2563eb"/>
  <circle cx="75.13" cy="50.00" r="2.5" fill="#2563eb"/>
  <circle cx="76.42" cy="266.90" r="2.5" fill="#2563eb"/>
  <circle cx="77.70" cy="50.12" r="2.5" fill="#2563eb"/>
  <circle cx="78.98" cy="50.08" r="2.5" fill="#2563eb"/>
  <circle cx="80.27" cy="177.46" r="2.5" fill="#2563eb"/>
  <circle cx="81.55" cy="211.58" r="2.5" fill="#2563eb"/>
  <circle cx="82.83" cy="175.34" r="2.5" fill="#2563eb"/>
  <circle cx="84.12" cy="304.14" r="2.5" fill="#2563eb"/>
  <circle cx="85.40" cy="200.46" r="2.5" fill="#2563eb"/>
  <circle cx="86.69" cy="250.94" r="2.5" fill="#2563eb"/>
  <circle cx="87.97" cy="300.01" r="2.5" fill="#2563eb"/>
  <circle cx="89.25" cy="300.06" r="2.5" fill="#2563eb"/>
  <circle cx="90.54" cy="300.01" r="2.5" fill="#2563eb"/>
  <circle cx="91.82" cy="300.01" r="2.5" fill="#2563eb"/>
  <circle cx="93.10" cy="348.00" r="2.5" fill="#2563eb"/>
  <circle cx="94.39" cy="300.01" r="2.5" fill="#2563eb"/>
  <circle cx="95.67" cy="249.99" r="2.5" fill="#2563eb"/>
  <circle cx="96.95" cy="200.00" r="2.5" fill="#2563eb"/>
  <circle cx="98.24" cy="249.99" r="2.5" fill="#2563eb"/>
  <circle cx="99.52" cy="249.99" r="2.5" fill="#2563eb"/>
  <circle cx="100.80" cy="250.03" r="2.5" fill="#2563eb"/>
  <circle cx="102.09" cy="250.03" r="2.5" fill="#2563eb"/>
  <circle cx="103.37" cy="250.03" r="2.5" fill="#2563eb"/>
  <circle cx="104.65" cy="250.40" r="2.5" fill="#2563eb"/>
  <circle cx="105.94" cy="250.90" r="2.5" fill="#2563eb"/>
  <circle cx="107.22" cy="250.90" r="2.5" fill="#2563eb"/>
  <circle cx="108.50" cy="251.32" r="2.5" fill="#2563eb"/>
  <circle cx="109.79" cy="249.94" r="2.5" fill="#2563eb"/>
  <circle cx="111.07" cy="300.01" r="2.5" fill="#2563eb"/>
  <circle cx="112.36" cy="299.93" r="2.5" fill="#2563eb"/>
  <circle cx="113.64" cy="251.03" r="2.5" fill="#2563eb"/>
  <circle cx="114.92" cy="300.68" r="2.5" fill="#2563eb"/>
  <circle cx="116.21" cy="250.03" r="2.5" fill="#2563eb"/>
  <circle cx="117.49" cy="200.00" r="2.5" fill="#2563eb"/>
  <circle cx="118.77" cy="249.99" r="2.5" fill="#2563eb"/>
  <circle cx="120.06" cy="250.03" r="2.5" fill="#2563eb"/>
  <circle cx="121.34" cy="250.03" r="2.5" fill="#2563eb"/>
  <circle cx="122.62" cy="250.03" r="2.5" fill="#2563eb"/>
  <circle cx="123.91" cy="300.01" r="2.5" fill="#2563eb"/>
  <circle cx="125.19" cy="200.04" r="2.5" fill="#2563eb"/>
  <circle cx="126.47" cy="250.03" r="2.5" fill="#2563eb"/>
  <circle cx="127.76" cy="250.03" r="2.5" fill="#2563eb"/>
  <circle cx="129.04" cy="250.03" r="2.5" fill="#2563eb"/>
  <circle cx="130.32" cy="249.90" r="2.5" fill="#2563eb"/>
  <circle cx="131.61" cy="250.03" r="2.5" fill="#2563eb"/>
  <circle cx="132.89" cy="250.03" r="2.5" fill="#2563eb"/>
  <circle cx="134.17" cy="250.94" r="2.5" fill="#2563eb"/>
  <circle cx="135.46" cy="250.44" r="2.5" fill="#2563eb"/>
  <circle cx="136.74" cy="250.03" r="2.5" fill="#2563eb"/>
  <circle cx="138.03" cy="250.03" r="2.5" fill="#2563eb"/>
  <circle cx="139.31" cy="300.47" r="2.5" fill="#2563eb"/>
  <circle cx="140.59" cy="300.01" r="2.5" fill="#2563eb"/>
  <circle cx="141.88" cy="300.43" r="2.5" fill="#2563eb"/>
  <circle cx="143.16" cy="250.03" r="2.5" fill="#2563eb"/>
  <circle cx="144.44" cy="249.99" r="2.5" fill="#2563eb"/>
  <circle cx="145.73" cy="300.43" r="2.5" fill="#2563eb"/>
  <circle cx="147.01" cy="249.90" r="2.5" fill="#2563eb"/>
  <circle cx="148.29" cy="249.99" r="2.5" fill="#2563eb"/>
  <circle cx="149.58" cy="249.99" r="2.5" fill="#2563eb"/>
  <circle cx="150.86" cy="200.04" r="2.5" fill="#2563eb"/>
  <circle cx="152.14" cy="300.01" r="2.5" fill="#2563eb"/>
  <circle cx="153.43" cy="300.01" r="2.5" fill="#2563eb"/>
  <circle cx="154.71" cy="300.01" r="2.5" fill="#2563eb"/>
  <circle cx="155.99" cy="249.90" r="2.5" fill="#2563eb"/>
  <circle cx="157.28" cy="300.01" r="2.5" fill="#2563eb"/>
  <circle cx="158.56" cy="250.03" r="2.5" fill="#2563eb"/>
  <circle cx="159.84" cy="249.99" r="2.5" fill="#2563eb"/>
  <circle cx="161.13" cy="199.96" r="2.5" fill="#2563eb"/>
  <circle cx="162.41" cy="300.01" r="2.5" fill="#2563eb"/>
  <circle cx="163.70" cy="200.00" r="2.5" fill="#2563eb"/>
  <circle cx="164.98" cy="250.36" r="2.5" fill="#2563eb"/>
  <circle cx="166.26" cy="250.03" r="2.5" fill="#2563eb"/>
  <circle cx="167.55" cy="300.01" r="2.5" fill="#2563eb"/>
  <circle cx="168.83" cy="300.01" r="2.5" fill="#2563eb"/>
  <circle cx="170.11" cy="250.44" r="2.5" fill="#2563eb"/>
  <circle cx="171.40" cy="300.01" r="2.5" fill="#2563eb"/>
  <circle cx="172.68" cy="250.03" r="2.5" fill="#2563eb"/>
  <circle cx="173.96" cy="250.03" r="2.5" fill="#2563eb"/>
  <circle cx="175.25" cy="249.99" r="2.5" fill="#2563eb"/>
  <circle cx="176.53" cy="250.49" r="2.5" fill="#2563eb"/>
  <circle cx="177.81" cy="250.03" r="2.5" fill="#2563eb"/>
  <circle cx="179.10" cy="200.04" r="2.5" fill="#2563eb"/>
  <circle cx="180.38" cy="300.01" r="2.5" fill="#2563eb"/>
  <circle cx="181.66" cy="250.03" r="2.5" fill="#2563eb"/>
  <circle cx="182.95" cy="300.01" r="2.5" fill="#2563eb"/>
  <circle cx="184.23" cy="250.11" r="2.5" fill="#2563eb"/>
  <circle cx="185.51" cy="300.01" r="2.5" fill="#2563eb"/>
  <circle cx="186.80" cy="250.03" r="2.5" fill="#2563eb"/>
  <circle cx="188.08" cy="250.03" r="2.5" fill="#2563eb"/>
  <circle cx="189.37" cy="199.92" r="2.5" fill="#2563eb"/>
  <circle cx="190.65" cy="250.03" r="2.5" fill="#2563eb"/>
  <circle cx="191.93" cy="250.03" r="2.5" fill="#2563eb"/>
  <circle cx="193.22" cy="250.03" r="2.5" fill="#2563eb"/>
  <circle cx="194.50" cy="254.36" r="2.5" fill="#2563eb"/>
  <circle cx="195.78" cy="300.01" r="2.5" fill="#2563eb"/>
  <circle cx="197.07" cy="299.97" r="2.5" fill="#2563eb"/>
  <circle cx="198.35" cy="250.36" r="2.5" fill="#2563eb"/>
  <circle cx="199.63" cy="299.97" r="2.5" fill="#2563eb"/>
  <circle cx="200.92" cy="250.03" r="2.5" fill="#2563eb"/>
  <circle cx="202.20" cy="250.03" r="2.5" fill="#2563eb"/>
  <circle cx="203.48" cy="250.03" r="2.5" fill="#2563eb"/>
  <circle cx="204.77" cy="250.03" r="2.5" fill="#2563eb"/>
  <circle cx="206.05" cy="249.99" r="2.5" fill="#2563eb"/>
  <circle cx="207.33" cy="200.00" r="2.5" fill="#2563eb"/>
  <circle cx="208.62" cy="299.93" r="2.5" fill="#2563eb"/>
  <circle cx="209.90" cy="300.01" r="2.5" fill="#2563eb"/>
  <circle cx="211.18" cy="299.97" r="2.5" fill="#2563eb"/>
  <circle cx="212.47" cy="249.94" r="2.5" fill="#2563eb"/>
  <circle cx="213.75" cy="249.99" r="2.5" fill="#2563eb"/>
  <circle cx="215.04" cy="249.82" r="2.5" fill="#2563eb"/>
  <circle cx="216.32" cy="249.94" r="2.5" fill="#2563eb"/>
  <circle cx="217.60" cy="250.28" r="2.5" fill="#2563eb"/>
  <circle cx="218.89" cy="207.00" r="2.5" fill="#2563eb"/>
  <circle cx="220.17" cy="250.03" r="2.5" fill="#2563eb"/>
  <circle cx="221.45" cy="250.32" r="2.5" fill="#2563eb"/>
  <circle cx="222.74" cy="250.40" r="2.5" fill="#2563eb"/>
  <circle cx="224.02" cy="300.93" r="2.5" fill="#2563eb"/>
  <circle cx="225.30" cy="300.01" r="2.5" fill="#2563eb"/>
  <circle cx="226.59" cy="300.10" r="2.5" fill="#2563eb"/>
  <circle cx="227.87" cy="249.94" r="2.5" fill="#2563eb"/>
  <circle cx="229.15" cy="249.99" r="2.5" fill="#2563eb"/>
  <circle cx="230.44" cy="250.07" r="2.5" fill="#2563eb"/>
  <circle cx="231.72" cy="249.99" r="2.5" fill="#2563eb"/>
  <circle cx="233.00" cy="250.03" r="2.5" fill="#2563eb"/>
  <circle cx="234.29" cy="249.94" r="2.5" fill="#2563eb"/>
  <circle cx="235.57" cy="200.00" r="2.5" fill="#2563eb"/>
  <circle cx="236.85" cy="300.39" r="2.5" fill="#2563eb"/>
  <circle cx="238.14" cy="300.01" r="2.5" fill="#2563eb"/>
  <circle cx="239.42" cy="300.01" r="2.5" fill="#2563eb"/>
  <circle cx="240.71" cy="250.44" r="2.5" fill="#2563eb"/>
  <circle cx="241.99" cy="300.39" r="2.5" fill="#2563eb"/>
  <circle cx="243.27" cy="249.86" r="2.5" fill="#2563eb"/>
  <circle cx="244.56" cy="250.11" r="2.5" fill="#2563eb"/>
  <circle cx="245.84" cy="201.46" r="2.5" fill="#2563eb"/>
  <circle cx="247.12" cy="300.01" r="2.5" fill="#2563eb"/>
  <circle cx="248.41" cy="200.83" r="2.5" fill="#2563eb"/>
  <circle cx="249.69" cy="250.03" r="2.5" fill="#2563eb"/>
  <circle cx="250.97" cy="249.99" r="2.5" fill="#2563eb"/>
  <circle cx="252.26" cy="300.26" r="2.5" fill="#2563eb"/>
  <circle cx="253.54" cy="300.01" r="2.5" fill="#2563eb"/>
  <circle cx="254.82" cy="300.01" r="2.5" fill="#2563eb"/>
  <circle cx="256.11" cy="250.03" r="2.5" fill="#2563eb"/>
  <circle cx="257.39" cy="250.03" r="2.5" fill="#2563eb"/>
  <circle cx="258.67" cy="250.03" r="2.5" fill="#2563eb"/>
  <circle cx="259.96" cy="250.03" r="2.5" fill="#2563eb"/>
  <circle cx="261.24" cy="249.99" r="2.5" fill="#2563eb"/>
  <circle cx="262.52" cy="250.03" r="2.5" fill="#2563eb"/>
  <circle cx="263.81" cy="200.00" r="2.5" fill="#2563eb"/>
  <circle cx="265.09" cy="300.26" r="2.5" fill="#2563eb"/>
  <circle cx="266.38" cy="249.99" r="2.5" fill="#2563eb"/>
  <circle cx="267.66" cy="300.01" r="2.5" fill="#2563eb"/>
  <circle cx="268.94" cy="249.94" r="2.5" fill="#2563eb"/>
  <circle cx="270.23" cy="250.03" r="2.5" fill="#2563eb"/>
  <circle cx="271.51" cy="250.03" r="2.5" fill="#2563eb"/>
  <circle cx="272.79" cy="250.03" r="2.5" fill="#2563eb"/>
  <circle cx="274.08" cy="200.04" r="2.5" fill="#2563eb"/>
  <circle cx="275.36" cy="300.01" r="2.5" fill="#2563eb"/>
  <circle cx="276.64" cy="249.90" r="2.5" fill="#2563eb"/>
  <circle cx="277.93" cy="300.01" r="2.5" fill="#2563eb"/>
  <circle cx="279.21" cy="300.01" r="2.5" fill="#2563eb"/>
  <circle cx="280.49" cy="300.06" r="2.5" fill="#2563eb"/>
  <circle cx="281.78" cy="300.01" r="2.5" fill="#2563eb"/>
  <circle cx="283.06" cy="300.01" r="2.5" fill="#2563eb"/>
  <circle cx="284.34" cy="243.95" r="2.5" fill="#2563eb"/>
  <circle cx="285.63" cy="249.94" r="2.5" fill="#2563eb"/>
  <circle cx="286.91" cy="299.97" r="2.5" fill="#2563eb"/>
  <circle cx="288.19" cy="300.01" r="2.5" fill="#2563eb"/>
  <circle cx="289.48" cy="300.01" r="2.5" fill="#2563eb"/>
  <circle cx="290.76" cy="250.03" r="2.5" fill="#2563eb"/>
  <circle cx="292.05" cy="300.01" r="2.5" fill="#2563eb"/>
  <circle cx="293.33" cy="300.01" r="2.5" fill="#2563eb"/>
  <circle cx="294.61" cy="299.97" r="2.5" fill="#2563eb"/>
  <circle cx="295.90" cy="249.99" r="2.5" fill="#2563eb"/>
  <circle cx="297.18" cy="300.01" r="2.5" fill="#2563eb"/>
  <circle cx="298.46" cy="299.93" r="2.5" fill="#2563eb"/>
  <circle cx="299.75" cy="300.01" r="2.5" fill="#2563eb"/>
  <circle cx="301.03" cy="299.93" r="2.5" fill="#2563eb"/>
  <circle cx="302.31" cy="300.01" r="2.5" fill="#2563eb"/>
  <circle cx="303.60" cy="300.01" r="2.5" fill="#2563eb"/>
  <circle cx="304.88" cy="299.89" r="2.5" fill="#2563eb"/>
  <circle cx="306.16" cy="299.97" r="2.5" fill="#2563eb"/>
  <circle cx="307.45" cy="250.03" r="2.5" fill="#2563eb"/>
  <circle cx="308.73" cy="299.93" r="2.5" fill="#2563eb"/>
  <circle cx="310.01" cy="299.89" r="2.5" fill="#2563eb"/>
  <circle cx="311.30" cy="299.97" r="2.5" fill="#2563eb"/>
  <circle cx="312.58" cy="249.94" r="2.5" fill="#2563eb"/>
  <circle cx="313.86" cy="300.01" r="2.5" fill="#2563eb"/>
  <circle cx="315.15" cy="300.01" r="2.5" fill="#2563eb"/>
  <circle cx="316.43" cy="299.97" r="2.5" fill="#2563eb"/>
  <circle cx="317.72" cy="249.99" r="2.5" fill="#2563eb"/>
  <circle cx="319.00" cy="299.97" r="2.5" fill="#2563eb"/>
  <circle cx="320.28" cy="299.97" r="2.5" fill="#2563eb"/>
  <circle cx="321.57" cy="300.06" r="2.5" fill="#2563eb"/>
  <circle cx="322.85" cy="300.06" r="2.5" fill="#2563eb"/>
  <circle cx="324.13" cy="299.93" r="2.5" fill="#2563eb"/>
  <circle cx="325.42" cy="300.01" r="2.5" fill="#2563eb"/>
  <circle cx="326.70" cy="300.01" r="2.5" fill="#2563eb"/>
  <circle cx="327.98" cy="299.93" r="2.5" fill="#2563eb"/>
  <circle cx="329.27" cy="300.01" r="2.5" fill="#2563eb"/>
  <circle cx="330.55" cy="300.01" r="2.5" fill="#2563eb"/>
  <circle cx="331.83" cy="299.97" r="2.5" fill="#2563eb"/>
  <circle cx="333.12" cy="300.01" r="2.5" fill="#2563eb"/>
  <circle cx="334.40" cy="300.01" r="2.5" fill="#2563eb"/>
  <circle cx="335.68" cy="300.01" r="2.5" fill="#2563eb"/>
  <circle cx="336.97" cy="300.01" r="2.5" fill="#2563eb"/>
  <circle cx="338.25" cy="249.86" r="2.5" fill="#2563eb"/>
  <circle cx="339.53" cy="300.01" r="2.5" fill="#2563eb"/>
  <circle cx="340.82" cy="300.10" r="2.5" fill="#2563eb"/>
  <circle cx="342.10" cy="299.93" r="2.5" fill="#2563eb"/>
  <circle cx="343.39" cy="300.01" r="2.5" fill="#2563eb"/>
  <circle cx="344.67" cy="299.93" r="2.5" fill="#2563eb"/>
  <circle cx="345.95" cy="300.01" r="2.5" fill="#2563eb"/>
  <circle cx="347.24" cy="300.01" r="2.5" fill="#2563eb"/>
  <circle cx="348.52" cy="300.01" r="2.5" fill="#2563eb"/>
  <circle cx="349.80" cy="300.01" r="2.5" fill="#2563eb"/>
  <circle cx="351.09" cy="300.01" r="2.5" fill="#2563eb"/>
  <circle cx="352.37" cy="299.97" r="2.5" fill="#2563eb"/>
  <circle cx="353.65" cy="300.01" r="2.5" fill="#2563eb"/>
  <circle cx="354.94" cy="300.01" r="2.5" fill="#2563eb"/>
  <circle cx="356.22" cy="300.01" r="2.5" fill="#2563eb"/>
  <circle cx="357.50" cy="300.01" r="2.5" fill="#2563eb"/>
  <circle cx="358.79" cy="250.03" r="2.5" fill="#2563eb"/>
  <circle cx="360.07" cy="300.01" r="2.5" fill="#2563eb"/>
  <circle cx="361.35" cy="300.01" r="2.5" fill="#2563eb"/>
  <circle cx="362.64" cy="299.97" r="2.5" fill="#2563eb"/>
  <circle cx="363.92" cy="300.01" r="2.5" fill="#2563eb"/>
  <circle cx="365.20" cy="300.01" r="2.5" fill="#2563eb"/>
  <circle cx="366.49" cy="299.97" r="2.5" fill="#2563eb"/>
  <circle cx="367.77" cy="299.97" r="2.5" fill="#2563eb"/>
  <circle cx="369.06" cy="300.01" r="2.5" fill="#2563eb"/>
  <circle cx="370.34" cy="299.97" r="2.5" fill="#2563eb"/>
  <circle cx="371.62" cy="300.01" r="2.5" fill="#2563eb"/>
  <circle cx="372.91" cy="299.93" r="2.5" fill="#2563eb"/>
  <circle cx="374.19" cy="300.01" r="2.5" fill="#2563eb"/>
  <circle cx="375.47" cy="250.03" r="2.5" fill="#2563eb"/>
  <circle cx="376.76" cy="300.01" r="2.5" fill="#2563eb"/>
  <circle cx="378.04" cy="300.01" r="2.5" fill="#2563eb"/>
  <circle cx="379.32" cy="300.01" r="2.5" fill="#2563eb"/>
  <circle cx="380.61" cy="300.01" r="2.5" fill="#2563eb"/>
  <circle cx="381.89" cy="300.01" r="2.5" fill="#2563eb"/>
  <circle cx="383.17" cy="299.89" r="2.5" fill="#2563eb"/>
  <circle cx="384.46" cy="300.01" r="2.5" fill="#2563eb"/>
  <circle cx="385.74" cy="300.01" r="2.5" fill="#2563eb"/>
  <circle cx="387.02" cy="250.07" r="2.5" fill="#2563eb"/>
  <circle cx="388.31" cy="300.01" r="2.5" fill="#2563eb"/>
  <circle cx="389.59" cy="299.93" r="2.5" fill="#2563eb"/>
  <circle cx="390.87" cy="300.01" r="2.5" fill="#2563eb"/>
  <circle cx="392.16" cy="299.97" r="2.5" fill="#2563eb"/>
  <circle cx="393.44" cy="299.97" r="2.5" fill="#2563eb"/>
  <circle cx="394.72" cy="299.97" r="2.5" fill="#2563eb"/>
  <circle cx="396.01" cy="250.03" r="2.5" fill="#2563eb"/>
  <circle cx="397.29" cy="300.01" r="2.5" fill="#2563eb"/>
  <circle cx="398.58" cy="300.01" r="2.5" fill="#2563eb"/>
  <circle cx="399.86" cy="300.01" r="2.5" fill="#2563eb"/>
  <circle cx="401.14" cy="300.01" r="2.5" fill="#2563eb"/>
  <circle cx="402.43" cy="299.97" r="2.5" fill="#2563eb"/>
  <circle cx="403.71" cy="300.01" r="2.5" fill="#2563eb"/>
  <circle cx="404.99" cy="299.97" r="2.5" fill="#2563eb"/>
  <circle cx="406.28" cy="300.01" r="2.5" fill="#2563eb"/>
  <circle cx="407.56" cy="299.97" r="2.5" fill="#2563eb"/>
  <circle cx="408.84" cy="249.90" r="2.5" fill="#2563eb"/>
  <circle cx="410.13" cy="300.01" r="2.5" fill="#2563eb"/>
  <circle cx="411.41" cy="300.01" r="2.5" fill="#2563eb"/>
  <circle cx="412.69" cy="299.89" r="2.5" fill="#2563eb"/>
  <circle cx="413.98" cy="299.97" r="2.5" fill="#2563eb"/>
  <circle cx="415.26" cy="299.97" r="2.5" fill="#2563eb"/>
  <circle cx="416.54" cy="249.99" r="2.5" fill="#2563eb"/>
  <circle cx="417.83" cy="299.97" r="2.5" fill="#2563eb"/>
  <circle cx="419.11" cy="299.89" r="2.5" fill="#2563eb"/>
  <circle cx="420.39" cy="300.01" r="2.5" fill="#2563eb"/>
  <circle cx="421.68" cy="299.97" r="2.5" fill="#2563eb"/>
  <circle cx="422.96" cy="299.97" r="2.5" fill="#2563eb"/>
  <circle cx="424.25" cy="300.01" r="2.5" fill="#2563eb"/>
  <circle cx="425.53" cy="299.97" r="2.5" fill="#2563eb"/>
  <circle cx="426.81" cy="249.99" r="2.5" fill="#2563eb"/>
  <circle cx="428.10" cy="299.97" r="2.5" fill="#2563eb"/>
  <circle cx="429.38" cy="299.97" r="2.5" fill="#2563eb"/>
  <circle cx="430.66" cy="300.06" r="2.5" fill="#2563eb"/>
  <circle cx="431.95" cy="300.06" r="2.5" fill="#2563eb"/>
  <circle cx="433.23" cy="249.94" r="2.5" fill="#2563eb"/>
  <circle cx="434.51" cy="300.01" r="2.5" fill="#2563eb"/>
  <circle cx="435.80" cy="299.93" r="2.5" fill="#2563eb"/>
  <circle cx="437.08" cy="300.01" r="2.5" fill="#2563eb"/>
  <circle cx="438.36" cy="300.01" r="2.5" fill="#2563eb"/>
  <circle cx="439.65" cy="249.99" r="2.5" fill="#2563eb"/>
  <circle cx="440.93" cy="300.01" r="2.5" fill="#2563eb"/>
  <circle cx="442.21" cy="300.01" r="2.5" fill="#2563eb"/>
  <circle cx="443.50" cy="300.01" r="2.5" fill="#2563eb"/>
  <circle cx="444.78" cy="299.93" r="2.5" fill="#2563eb"/>
  <circle cx="446.06" cy="299.93" r="2.5" fill="#2563eb"/>
  <circle cx="447.35" cy="300.01" r="2.5" fill="#2563eb"/>
  <circle cx="448.63" cy="300.01" r="2.5" fill="#2563eb"/>
  <circle cx="449.92" cy="249.94" r="2.5" fill="#2563eb"/>
  <circle cx="451.20" cy="299.97" r="2.5" fill="#2563eb"/>
  <circle cx="452.48" cy="299.97" r="2.5" fill="#2563eb"/>
  <circle cx="453.77" cy="300.01" r="2.5" fill="#2563eb"/>
  <circle cx="455.05" cy="300.01" r="2.5" fill="#2563eb"/>
  <circle cx="456.33" cy="300.01" r="2.5" fill="#2563eb"/>
  <circle cx="457.62" cy="249.99" r="2.5" fill="#2563eb"/>
  <circle cx="458.90" cy="300.01" r="2.5" fill="#2563eb"/>
  <circle cx="460.18" cy="300.01" r="2.5" fill="#2563eb"/>
  <circle cx="461.47" cy="300.01" r="2.5" fill="#2563eb"/>
  <circle cx="462.75" cy="250.03" r="2.5" fill="#2563eb"/>
  <circle cx="464.03" cy="300.01" r="2.5" fill="#2563eb"/>
  <circle cx="465.32" cy="300.01" r="2.5" fill="#2563eb"/>
  <circle cx="466.60" cy="300.01" r="2.5" fill="#2563eb"/>
  <circle cx="467.88" cy="299.97" r="2.5" fill="#2563eb"/>
  <circle cx="469.17" cy="300.01" r="2.5" fill="#2563eb"/>
  <circle cx="470.45" cy="300.01" r="2.5" fill="#2563eb"/>
  <circle cx="471.73" cy="299.97" r="2.5" fill="#2563eb"/>
  <circle cx="473.02" cy="299.97" r="2.5" fill="#2563eb"/>
  <circle cx="474.30" cy="300.01" r="2.5" fill="#2563eb"/>
  <circle cx="475.59" cy="300.01" r="2.5" fill="#2563eb"/>
  <circle cx="476.87" cy="299.97" r="2.5" fill="#2563eb"/>
  <circle cx="478.15" cy="299.93" r="2.5" fill="#2563eb"/>
  <circle cx="479.44" cy="300.01" r="2.5" fill="#2563eb"/>
  <circle cx="480.72" cy="300.06" r="2.5" fill="#2563eb"/>
  <circle cx="482.00" cy="299.97" r="2.5" fill="#2563eb"/>
  <circle cx="483.29" cy="300.01" r="2.5" fill="#2563eb"/>
  <circle cx="484.57" cy="250.03" r="2.5" fill="#2563eb"/>
  <circle cx="485.85" cy="250.03" r="2.5" fill="#2563eb"/>
  <circle cx="487.14" cy="299.93" r="2.5" fill="#2563eb"/>
  <circle cx="488.42" cy="299.97" r="2.5" fill="#2563eb"/>
  <circle cx="489.70" cy="300.01" r="2.5" fill="#2563eb"/>
  <circle cx="490.99" cy="300.01" r="2.5" fill="#2563eb"/>
  <circle cx="492.27" cy="300.06" r="2.5" fill="#2563eb"/>
  <circle cx="493.55" cy="300.01" r="2.5" fill="#2563eb"/>
  <circle cx="494.84" cy="299.93" r="2.5" fill="#2563eb"/>
  <circle cx="496.12" cy="300.01" r="2.5" fill="#2563eb"/>
  <circle cx="497.40" cy="300.01" r="2.5" fill="#2563eb"/>
  <circle cx="498.69" cy="299.97" r="2.5" fill="#2563eb"/>
  <circle cx="499.97" cy="299.97" r="2.5" fill="#2563eb"/>
  <circle cx="501.26" cy="300.01" r="2.5" fill="#2563eb"/>
  <circle cx="502.54" cy="250.03" r="2.5" fill="#2563eb"/>
  <circle cx="503.82" cy="300.01" r="2.5" fill="#2563eb"/>
  <circle cx="505.11" cy="300.01" r="2.5" fill="#2563eb"/>
  <circle cx="506.39" cy="300.01" r="2.5" fill="#2563eb"/>
  <circle cx="507.67" cy="299.97" r="2.5" fill="#2563eb"/>
  <circle cx="508.96" cy="300.01" r="2.5" fill="#2563eb"/>
  <circle cx="510.24" cy="299.97" r="2.5" fill="#2563eb"/>
  <circle cx="511.52" cy="300.01" r="2.5" fill="#2563eb"/>
  <circle cx="512.81" cy="299.97" r="2.5" fill="#2563eb"/>
  <circle cx="514.09" cy="299.97" r="2.5" fill="#2563eb"/>
  <circle cx="515.37" cy="299.93" r="2.5" fill="#2563eb"/>
  <circle cx="516.66" cy="300.01" r="2.5" fill="#2563eb"/>
  <circle cx="517.94" cy="300.01" r="2.5" fill="#2563eb"/>
  <circle cx="519.22" cy="299.89" r="2.5" fill="#2563eb"/>
  <circle cx="520.51" cy="299.97" r="2.5" fill="#2563eb"/>
  <circle cx="521.79" cy="299.97" r="2.5" fill="#2563eb"/>
  <circle cx="523.07" cy="300.06" r="2.5" fill="#2563eb"/>
  <circle cx="524.36" cy="249.90" r="2.5" fill="#2563eb"/>
  <circle cx="525.64" cy="299.89" r="2.5" fill="#2563eb"/>
  <circle cx="526.93" cy="300.01" r="2.5" fill="#2563eb"/>
  <circle cx="528.21" cy="299.97" r="2.5" fill="#2563eb"/>
  <circle cx="529.49" cy="299.97" r="2.5" fill="#2563eb"/>
  <circle cx="530.78" cy="299.97" r="2.5" fill="#2563eb"/>
  <circle cx="532.06" cy="300.01" r="2.5" fill="#2563eb"/>
  <circle cx="533.34" cy="300.01" r="2.5" fill="#2563eb"/>
  <circle cx="534.63" cy="299.97" r="2.5" fill="#2563eb"/>
  <circle cx="535.91" cy="299.97" r="2.5" fill="#2563eb"/>
  <circle cx="537.19" cy="299.97" r="2.5" fill="#2563eb"/>
  <circle cx="538.48" cy="250.03" r="2.5" fill="#2563eb"/>
  <circle cx="539.76" cy="299.93" r="2.5" fill="#2563eb"/>
  <circle cx="541.04" cy="300.01" r="2.5" fill="#2563eb"/>
  <circle cx="542.33" cy="300.01" r="2.5" fill="#2563eb"/>
  <circle cx="543.61" cy="299.93" r="2.5" fill="#2563eb"/>
  <circle cx="544.89" cy="300.01" r="2.5" fill="#2563eb"/>
  <circle cx="546.18" cy="300.01" r="2.5" fill="#2563eb"/>
  <circle cx="547.46" cy="299.97" r="2.5" fill="#2563eb"/>
  <circle cx="548.74" cy="300.01" r="2.5" fill="#2563eb"/>
  <circle cx="550.03" cy="300.01" r="2.5" fill="#2563eb"/>
  <circle cx="551.31" cy="300.06" r="2.5" fill="#2563eb"/>
  <circle cx="552.60" cy="300.01" r="2.5" fill="#2563eb"/>
  <circle cx="553.88" cy="299.97" r="2.5" fill="#2563eb"/>
  <circle cx="555.16" cy="299.89" r="2.5" fill="#2563eb"/>
  <circle cx="556.45" cy="300.01" r="2.5" fill="#2563eb"/>
  <circle cx="557.73" cy="300.01" r="2.5" fill="#2563eb"/>
  <circle cx="559.01" cy="249.94" r="2.5" fill="#2563eb"/>
  <circle cx="560.30" cy="249.94" r="2.5" fill="#2563eb"/>
  <circle cx="561.58" cy="300.01" r="2.5" fill="#2563eb"/>
  <circle cx="562.86" cy="300.01" r="2.5" fill="#2563eb"/>
  <circle cx="564.15" cy="300.01" r="2.5" fill="#2563eb"/>
  <circle cx="565.43" cy="300.01" r="2.5" fill="#2563eb"/>
  <circle cx="566.71" cy="299.97" r="2.5" fill="#2563eb"/>
  <circle cx="568.00" cy="250.03" r="2.5" fill="#2563eb"/>
  <circle cx="569.28" cy="300.01" r="2.5" fill="#2563eb"/>
  <circle cx="570.56" cy="300.01" r="2.5" fill="#2563eb"/>
  <circle cx="571.85" cy="300.01" r="2.5" fill="#2563eb"/>
  <circle cx="573.13" cy="300.01" r="2.5" fill="#2563eb"/>
  <circle cx="574.41" cy="250.03" r="2.5" fill="#2563eb"/>
  <circle cx="575.70" cy="249.99" r="2.5" fill="#2563eb"/>
  <circle cx="576.98" cy="300.01" r="2.5" fill="#2563eb"/>
  <circle cx="578.27" cy="299.97" r="2.5" fill="#2563eb"/>
  <circle cx="579.55" cy="300.01" r="2.5" fill="#2563eb"/>
  <circle cx="580.83" cy="299.97" r="2.5" fill="#2563eb"/>
  <circle cx="582.12" cy="300.01" r="2.5" fill="#2563eb"/>
  <circle cx="583.40" cy="299.97" r="2.5" fill="#2563eb"/>
  <circle cx="584.68" cy="299.97" r="2.5" fill="#2563eb"/>
  <circle cx="585.97" cy="299.97" r="2.5" fill="#2563eb"/>
  <circle cx="587.25" cy="300.06" r="2.5" fill="#2563eb"/>
  <circle cx="588.53" cy="249.99" r="2.5" fill="#2563eb"/>
  <circle cx="589.82" cy="300.01" r="2.5" fill="#2563eb"/>
  <circle cx="591.10" cy="250.03" r="2.5" fill="#2563eb"/>
  <circle cx="592.38" cy="249.94" r="2.5" fill="#2563eb"/>
  <circle cx="593.67" cy="249.99" r="2.5" fill="#2563eb"/>
  <circle cx="594.95" cy="300.01" r="2.5" fill="#2563eb"/>
  <circle cx="596.23" cy="300.06" r="2.5" fill="#2563eb"/>
  <circle cx="597.52" cy="300.01" r="2.5" fill="#2563eb"/>
  <circle cx="598.80" cy="299.97" r="2.5" fill="#2563eb"/>
  <circle cx="600.08" cy="299.97" r="2.5" fill="#2563eb"/>
  <circle cx="601.37" cy="300.01" r="2.5" fill="#2563eb"/>
  <circle cx="602.65" cy="299.93" r="2.5" fill="#2563eb"/>
  <circle cx="603.94" cy="299.89" r="2.5" fill="#2563eb"/>
  <circle cx="605.22" cy="299.89" r="2.5" fill="#2563eb"/>
  <circle cx="606.50" cy="299.89" r="2.5" fill="#2563eb"/>
  <circle cx="607.79" cy="299.89" r="2.5" fill="#2563eb"/>
  <circle cx="609.07" cy="299.85" r="2.5" fill="#2563eb"/>
  <circle cx="610.35" cy="299.85" r="2.5" fill="#2563eb"/>
  <circle cx="611.64" cy="299.89" r="2.5" fill="#2563eb"/>
  <circle cx="612.92" cy="299.81" r="2.5" fill="#2563eb"/>
  <circle cx="614.20" cy="299.81" r="2.5" fill="#2563eb"/>
  <circle cx="615.49" cy="299.81" r="2.5" fill="#2563eb"/>
  <circle cx="616.77" cy="299.76" r="2.5" fill="#2563eb"/>
  <circle cx="618.05" cy="299.76" r="2.5" fill="#2563eb"/>
  <circle cx="619.34" cy="299.76" r="2.5" fill="#2563eb"/>
  <circle cx="620.62" cy="299.72" r="2.5" fill="#2563eb"/>
  <circle cx="621.90" cy="299.68" r="2.5" fill="#2563eb"/>
  <circle cx="623.19" cy="299.60" r="2.5" fill="#2563eb"/>
  <circle cx="624.47" cy="299.60" r="2.5" fill="#2563eb"/>
  <circle cx="625.75" cy="299.60" r="2.5" fill="#2563eb"/>
  <circle cx="627.04" cy="299.56" r="2.5" fill="#2563eb"/>
  <circle cx="628.32" cy="299.47" r="2.5" fill="#2563eb"/>
  <circle cx="629.61" cy="299.43" r="2.5" fill="#2563eb"/>
  <circle cx="630.89" cy="299.43" r="2.5" fill="#2563eb"/>
  <circle cx="632.17" cy="299.39" r="2.5" fill="#2563eb"/>
  <circle cx="633.46" cy="299.47" r="2.5" fill="#2563eb"/>
  <circle cx="634.74" cy="259.82" r="2.5" fill="#2563eb"/>
  <circle cx="636.02" cy="338.96" r="2.5" fill="#2563eb"/>
  <circle cx="637.31" cy="299.31" r="2.5" fill="#2563eb"/>
  <circle cx="638.59" cy="299.31" r="2.5" fill="#2563eb"/>
  <circle cx="639.87" cy="299.26" r="2.5" fill="#2563eb"/>
  <circle cx="641.16" cy="299.68" r="2.5" fill="#2563eb"/>
  <circle cx="642.44" cy="299.68" r="2.5" fill="#2563eb"/>
  <circle cx="643.72" cy="299.68" r="2.5" fill="#2563eb"/>
  <circle cx="645.01" cy="299.64" r="2.5" fill="#2563eb"/>
  <circle cx="646.29" cy="299.14" r="2.5" fill="#2563eb"/>
  <circle cx="647.57" cy="299.14" r="2.5" fill="#2563eb"/>
  <circle cx="648.86" cy="299.10" r="2.5" fill="#2563eb"/>
  <circle cx="650.14" cy="299.10" r="2.5" fill="#2563eb"/>
  <circle cx="651.42" cy="299.10" r="2.5" fill="#2563eb"/>
  <circle cx="652.71" cy="248.07" r="2.5" fill="#2563eb"/>
  <circle cx="653.99" cy="299.06" r="2.5" fill="#2563eb"/>
  <circle cx="655.28" cy="299.06" r="2.5" fill="#2563eb"/>
  <circle cx="656.56" cy="299.06" r="2.5" fill="#2563eb"/>
  <circle cx="657.84" cy="299.06" r="2.5" fill="#2563eb"/>
  <circle cx="659.13" cy="299.06" r="2.5" fill="#2563eb"/>
  <circle cx="660.41" cy="298.97" r="2.5" fill="#2563eb"/>
  <circle cx="661.69" cy="298.97" r="2.5" fill="#2563eb"/>
  <circle cx="662.98" cy="298.93" r="2.5" fill="#2563eb"/>
  <circle cx="664.26" cy="298.97" r="2.5" fill="#2563eb"/>
  <circle cx="665.54" cy="298.93" r="2.5" fill="#2563eb"/>
  <circle cx="666.83" cy="298.89" r="2.5" fill="#2563eb"/>
  <circle cx="668.11" cy="298.89" r="2.5" fill="#2563eb"/>
  <circle cx="669.39" cy="298.89" r="2.5" fill="#2563eb"/>
  <circle cx="670.68" cy="298.89" r="2.5" fill="#2563eb"/>
  <circle cx="671.96" cy="247.78" r="2.5" fill="#2563eb"/>
  <circle cx="673.24" cy="298.89" r="2.5" fill="#2563eb"/>
  <circle cx="674.53" cy="298.89" r="2.5" fill="#2563eb"/>
  <circle cx="675.81" cy="298.85" r="2.5" fill="#2563eb"/>
  <circle cx="677.09" cy="298.85" r="2.5" fill="#2563eb"/>
  <circle cx="678.38" cy="298.81" r="2.5" fill="#2563eb"/>
  <circle cx="679.66" cy="298.81" r="2.5" fill="#2563eb"/>
  <circle cx="680.94" cy="298.81" r="2.5" fill="#2563eb"/>
  <circle cx="682.23" cy="298.81" r="2.5" fill="#2563eb"/>
  <circle cx="683.51" cy="298.81" r="2.5" fill="#2563eb"/>
  <circle cx="684.80" cy="298.81" r="2.5" fill="#2563eb"/>
  <circle cx="686.08" cy="298.81" r="2.5" fill="#2563eb"/>
  <circle cx="687.36" cy="298.81" r="2.5" fill="#2563eb"/>
  <circle cx="688.65" cy="298.81" r="2.5" fill="#2563eb"/>
  <circle cx="689.93" cy="298.72" r="2.5" fill="#2563eb"/>
  <circle cx="691.21" cy="247.45" r="2.5" fill="#2563eb"/>
  <circle cx="692.50" cy="247.45" r="2.5" fill="#2563eb"/>
  <circle cx="693.78" cy="298.72" r="2.5" fill="#2563eb"/>
  <circle cx="695.06" cy="298.72" r="2.5" fill="#2563eb"/>
  <circle cx="696.35" cy="298.72" r="2.5" fill="#2563eb"/>
  <circle cx="697.63" cy="298.72" r="2.5" fill="#2563eb"/>
  <circle cx="698.91" cy="298.72" r="2.5" fill="#2563eb"/>
  <circle cx="700.20" cy="298.72" r="2.5" fill="#2563eb"/>
  <circle cx="701.48" cy="247.36" r="2.5" fill="#2563eb"/>
  <circle cx="702.76" cy="298.68" r="2.5" fill="#2563eb"/>
  <circle cx="704.05" cy="247.36" r="2.5" fill="#2563eb"/>
  <circle cx="705.33" cy="247.36" r="2.5" fill="#2563eb"/>
  <circle cx="706.61" cy="247.36" r="2.5" fill="#2563eb"/>
  <circle cx="707.90" cy="298.68" r="2.5" fill="#2563eb"/>
  <circle cx="709.18" cy="298.68" r="2.5" fill="#2563eb"/>
  <circle cx="710.47" cy="298.68" r="2.5" fill="#2563eb"/>
  <circle cx="711.75" cy="298.68" r="2.5" fill="#2563eb"/>
  <circle cx="713.03" cy="298.68" r="2.5" fill="#2563eb"/>
  <circle cx="714.32" cy="341.67" r="2.5" fill="#2563eb"/>
  <circle cx="715.60" cy="307.01" r="2.5" fill="#2563eb"/>
  <circle cx="716.88" cy="298.68" r="2.5" fill="#2563eb"/>
  <circle cx="718.17" cy="298.68" r="2.5" fill="#2563eb"/>
  <circle cx="719.45" cy="298.68" r="2.5" fill="#2563eb"/>
  <circle cx="720.73" cy="247.36" r="2.5" fill="#2563eb"/>
  <circle cx="722.02" cy="298.64" r="2.5" fill="#2563eb"/>
  <circle cx="723.30" cy="247.36" r="2.5" fill="#2563eb"/>
  <circle cx="724.58" cy="247.28" r="2.5" fill="#2563eb"/>
  <circle cx="725.87" cy="247.20" r="2.5" fill="#2563eb"/>
  <circle cx="727.15" cy="298.60" r="2.5" fill="#2563eb"/>
  <circle cx="728.43" cy="298.60" r="2.5" fill="#2563eb"/>
  <circle cx="729.72" cy="247.03" r="2.5" fill="#2563eb"/>
  <circle cx="731.00" cy="298.51" r="2.5" fill="#2563eb"/>
  <circle cx="732.28" cy="298.51" r="2.5" fill="#2563eb"/>
  <circle cx="733.57" cy="298.51" r="2.5" fill="#2563eb"/>
  <circle cx="734.85" cy="298.51" r="2.5" fill="#2563eb"/>
  <circle cx="736.14" cy="298.51" r="2.5" fill="#2563eb"/>
  <circle cx="737.42" cy="298.51" r="2.5" fill="#2563eb"/>
  <circle cx="738.70" cy="298.51" r="2.5" fill="#2563eb"/>
  <circle cx="739.99" cy="298.51" r="2.5" fill="#2563eb"/>
  <circle cx="741.27" cy="298.51" r="2.5" fill="#2563eb"/>
  <circle cx="742.55" cy="298.51" r="2.5" fill="#2563eb"/>
  <circle cx="743.84" cy="298.51" r="2.5" fill="#2563eb"/>
  <circle cx="745.12" cy="298.51" r="2.5" fill="#2563eb"/>
  <circle cx="746.40" cy="298.51" r="2.5" fill="#2563eb"/>
  <circle cx="747.69" cy="298.51" r="2.5" fill="#2563eb"/>
  <circle cx="748.97" cy="298.51" r="2.5" fill="#2563eb"/>
  <circle cx="750.25" cy="298.51" r="2.5" fill="#2563eb"/>
  <circle cx="751.54" cy="298.51" r="2.5" fill="#2563eb"/>
  <circle cx="752.82" cy="298.51" r="2.5" fill="#2563eb"/>
  <circle cx="754.10" cy="298.51" r="2.5" fill="#2563eb"/>
  <circle cx="755.39" cy="298.51" r="2.5" fill="#2563eb"/>
  <circle cx="756.67" cy="298.51" r="2.5" fill="#2563eb"/>
  <circle cx="757.95" cy="298.51" r="2.5" fill="#2563eb"/>
  <circle cx="759.24" cy="298.51" r="2.5" fill="#2563eb"/>
  <circle cx="760.52" cy="298.51" r="2.5" fill="#2563eb"/>
  <circle cx="761.81" cy="298.51" r="2.5" fill="#2563eb"/>
  <circle cx="763.09" cy="298.51" r="2.5" fill="#2563eb"/>
  <circle cx="764.37" cy="298.47" r="2.5" fill="#2563eb"/>
  <circle cx="765.66" cy="298.51" r="2.5" fill="#2563eb"/>
  <circle cx="766.94" cy="298.51" r="2.5" fill="#2563eb"/>
  <circle cx="768.22" cy="298.47" r="2.5" fill="#2563eb"/>
  <circle cx="769.51" cy="298.51" r="2.5" fill="#2563eb"/>
  <circle cx="770.79" cy="298.47" r="2.5" fill="#2563eb"/>
  <circle cx="772.07" cy="298.51" r="2.5" fill="#2563eb"/>
  <circle cx="773.36" cy="298.43" r="2.5" fill="#2563eb"/>
  <circle cx="774.64" cy="298.56" r="2.5" fill="#2563eb"/>
  <circle cx="775.92" cy="298.43" r="2.5" fill="#2563eb"/>
  <circle cx="777.21" cy="298.43" r="2.5" fill="#2563eb"/>
  <circle cx="778.49" cy="298.43" r="2.5" fill="#2563eb"/>
  <circle cx="779.77" cy="298.43" r="2.5" fill="#2563eb"/>
  <circle cx="781.06" cy="298.43" r="2.5" fill="#2563eb"/>
  <circle cx="782.34" cy="298.43" r="2.5" fill="#2563eb"/>
  <circle cx="783.62" cy="298.43" r="2.5" fill="#2563eb"/>
  <circle cx="784.91" cy="298.43" r="2.5" fill="#2563eb"/>
  <circle cx="786.19" cy="298.43" r="2.5" fill="#2563eb"/>
  <circle cx="787.48" cy="298.43" r="2.5" fill="#2563eb"/>
  <circle cx="788.76" cy="298.43" r="2.5" fill="#2563eb"/>
  <circle cx="790.04" cy="298.43" r="2.5" fill="#2563eb"/>
  <circle cx="791.33" cy="298.43" r="2.5" fill="#2563eb"/>
  <circle cx="792.61" cy="298.43" r="2.5" fill="#2563eb"/>
  <circle cx="793.89" cy="298.43" r="2.5" fill="#2563eb"/>
  <circle cx="795.18" cy="298.43" r="2.5" fill="#2563eb"/>
  <circle cx="796.46" cy="298.43" r="2.5" fill="#2563eb"/>
  <circle cx="797.74" cy="298.43" r="2.5" fill="#2563eb"/>
  <circle cx="799.03" cy="298.43" r="2.5" fill="#2563eb"/>
  <circle cx="800.31" cy="298.43" r="2.5" fill="#2563eb"/>
  <circle cx="801.59" cy="298.43" r="2.5" fill="#2563eb"/>
  <circle cx="802.88" cy="298.43" r="2.5" fill="#2563eb"/>
  <circle cx="804.16" cy="298.43" r="2.5" fill="#2563eb"/>
  <circle cx="805.44" cy="298.43" r="2.5" fill="#2563eb"/>
  <circle cx="806.73" cy="298.43" r="2.5" fill="#2563eb"/>
  <circle cx="808.01" cy="298.43" r="2.5" fill="#2563eb"/>
  <circle cx="809.29" cy="298.43" r="2.5" fill="#2563eb"/>
  <circle cx="810.58" cy="298.43" r="2.5" fill="#2563eb"/>
  <circle cx="811.86" cy="298.43" r="2.5" fill="#2563eb"/>
  <circle cx="813.15" cy="298.43" r="2.5" fill="#2563eb"/>
  <circle cx="814.43" cy="298.43" r="2.5" fill="#2563eb"/>
  <circle cx="815.71" cy="298.43" r="2.5" fill="#2563eb"/>
  <circle cx="817.00" cy="298.43" r="2.5" fill="#2563eb"/>
  <circle cx="818.28" cy="298.43" r="2.5" fill="#2563eb"/>
  <circle cx="819.56" cy="298.39" r="2.5" fill="#2563eb"/>
  <circle cx="820.85" cy="298.39" r="2.5" fill="#2563eb"/>
  <circle cx="822.13" cy="298.43" r="2.5" fill="#2563eb"/>
  <circle cx="823.41" cy="298.43" r="2.5" fill="#2563eb"/>
  <circle cx="824.70" cy="298.39" r="2.5" fill="#2563eb"/>
  <circle cx="825.98" cy="298.39" r="2.5" fill="#2563eb"/>
  <circle cx="827.26" cy="298.39" r="2.5" fill="#2563eb"/>
  <circle cx="828.55" cy="298.43" r="2.5" fill="#2563eb"/>
  <circle cx="829.83" cy="298.43" r="2.5" fill="#2563eb"/>
  <circle cx="831.11" cy="298.43" r="2.5" fill="#2563eb"/>
  <circle cx="832.40" cy="246.82" r="2.5" fill="#2563eb"/>
  <circle cx="833.68" cy="298.43" r="2.5" fill="#2563eb"/>
  <circle cx="834.96" cy="246.78" r="2.5" fill="#2563eb"/>
  <circle cx="836.25" cy="246.78" r="2.5" fill="#2563eb"/>
  <circle cx="837.53" cy="246.78" r="2.5" fill="#2563eb"/>
  <circle cx="838.82" cy="246.70" r="2.5" fill="#2563eb"/>
  <circle cx="840.10" cy="246.78" r="2.5" fill="#2563eb"/>
  <circle cx="841.38" cy="298.39" r="2.5" fill="#2563eb"/>
  <circle cx="842.67" cy="298.39" r="2.5" fill="#2563eb"/>
  <circle cx="843.95" cy="298.39" r="2.5" fill="#2563eb"/>
  <circle cx="845.23" cy="298.39" r="2.5" fill="#2563eb"/>
  <circle cx="846.52" cy="298.39" r="2.5" fill="#2563eb"/>
  <circle cx="847.80" cy="246.78" r="2.5" fill="#2563eb"/>
  <circle cx="849.08" cy="298.39" r="2.5" fill="#2563eb"/>
  <circle cx="850.37" cy="298.39" r="2.5" fill="#2563eb"/>
  <circle cx="851.65" cy="298.39" r="2.5" fill="#2563eb"/>
  <circle cx="852.93" cy="298.39" r="2.5" fill="#2563eb"/>
  <circle cx="854.22" cy="298.39" r="2.5" fill="#2563eb"/>
  <circle cx="855.50" cy="246.78" r="2.5" fill="#2563eb"/>
  <circle cx="856.78" cy="246.78" r="2.5" fill="#2563eb"/>
  <circle cx="858.07" cy="298.39" r="2.5" fill="#2563eb"/>
  <circle cx="859.35" cy="298.39" r="2.5" fill="#2563eb"/>
  <circle cx="860.63" cy="298.39" r="2.5" fill="#2563eb"/>
  <circle cx="861.92" cy="298.39" r="2.5" fill="#2563eb"/>
  <circle cx="863.20" cy="298.39" r="2.5" fill="#2563eb"/>
  <circle cx="864.49" cy="298.39" r="2.5" fill="#2563eb"/>
  <circle cx="865.77" cy="298.39" r="2.5" fill="#2563eb"/>
  <circle cx="867.05" cy="298.39" r="2.5" fill="#2563eb"/>
  <circle cx="868.34" cy="298.39" r="2.5" fill="#2563eb"/>
  <circle cx="869.62" cy="298.39" r="2.5" fill="#2563eb"/>
  <circle cx="870.90" cy="298.39" r="2.5" fill="#2563eb"/>
  <circle cx="872.19" cy="298.39" r="2.5" fill="#2563eb"/>
  <circle cx="873.47" cy="298.39" r="2.5" fill="#2563eb"/>
  <circle cx="874.75" cy="298.39" r="2.5" fill="#2563eb"/>
  <circle cx="876.04" cy="298.35" r="2.5" fill="#2563eb"/>
  <circle cx="877.32" cy="298.39" r="2.5" fill="#2563eb"/>
  <circle cx="878.60" cy="298.39" r="2.5" fill="#2563eb"/>
  <circle cx="879.89" cy="298.35" r="2.5" fill="#2563eb"/>
  <circle cx="881.17" cy="298.35" r="2.5" fill="#2563eb"/>
  <circle cx="882.45" cy="298.35" r="2.5" fill="#2563eb"/>
  <circle cx="883.74" cy="298.35" r="2.5" fill="#2563eb"/>
  <circle cx="885.02" cy="298.35" r="2.5" fill="#2563eb"/>
  <circle cx="886.30" cy="298.35" r="2.5" fill="#2563eb"/>
  <circle cx="887.59" cy="298.35" r="2.5" fill="#2563eb"/>
  <circle cx="888.87" cy="298.35" r="2.5" fill="#2563eb"/>
  <circle cx="890.16" cy="298.35" r="2.5" fill="#2563eb"/>
  <circle cx="891.44" cy="298.35" r="2.5" fill="#2563eb"/>
  <circle cx="892.72" cy="298.35" r="2.5" fill="#2563eb"/>
  <circle cx="894.01" cy="298.35" r="2.5" fill="#2563eb"/>
  <circle cx="895.29" cy="298.35" r="2.5" fill="#2563eb"/>
  <circle cx="896.57" cy="298.35" r="2.5" fill="#2563eb"/>
  <circle cx="897.86" cy="298.35" r="2.5" fill="#2563eb"/>
  <circle cx="899.14" cy="298.35" r="2.5" fill="#2563eb"/>
  <circle cx="900.42" cy="298.35" r="2.5" fill="#2563eb"/>
  <circle cx="901.71" cy="298.35" r="2.5" fill="#2563eb"/>
  <circle cx="902.99" cy="298.35" r="2.5" fill="#2563eb"/>
  <circle cx="904.27" cy="298.35" r="2.5" fill="#2563eb"/>
  <circle cx="905.56" cy="298.35" r="2.5" fill="#2563eb"/>
  <circle cx="906.84" cy="298.35" r="2.5" fill="#2563eb"/>
  <circle cx="908.12" cy="298.35" r="2.5" fill="#2563eb"/>
  <circle cx="909.41" cy="298.35" r="2.5" fill="#2563eb"/>
  <circle cx="910.69" cy="298.35" r="2.5" fill="#2563eb"/>
  <circle cx="911.97" cy="298.35" r="2.5" fill="#2563eb"/>
  <circle cx="913.26" cy="298.35" r="2.5" fill="#2563eb"/>
  <circle cx="914.54" cy="298.35" r="2.5" fill="#2563eb"/>
  <circle cx="915.83" cy="298.35" r="2.5" fill="#2563eb"/>
  <circle cx="917.11" cy="298.35" r="2.5" fill="#2563eb"/>
  <circle cx="918.39" cy="298.35" r="2.5" fill="#2563eb"/>
  <circle cx="919.68" cy="298.35" r="2.5" fill="#2563eb"/>
  <circle cx="920.96" cy="298.35" r="2.5" fill="#2563eb"/>
  <circle cx="922.24" cy="298.35" r="2.5" fill="#2563eb"/>
  <circle cx="923.53" cy="298.35" r="2.5" fill="#2563eb"/>
  <circle cx="924.81" cy="298.35" r="2.5" fill="#2563eb"/>
  <circle cx="926.09" cy="298.35" r="2.5" fill="#2563eb"/>
  <circle cx="927.38" cy="298.35" r="2.5" fill="#2563eb"/>
  <circle cx="928.66" cy="298.35" r="2.5" fill="#2563eb"/>
  <circle cx="929.94" cy="298.35" r="2.5" fill="#2563eb"/>
  <circle cx="931.23" cy="298.35" r="2.5" fill="#2563eb"/>
  <circle cx="932.51" cy="298.35" r="2.5" fill="#2563eb"/>
  <circle cx="933.79" cy="298.35" r="2.5" fill="#2563eb"/>
  <circle cx="935.08" cy="298.35" r="2.5" fill="#2563eb"/>
  <circle cx="936.36" cy="298.35" r="2.5" fill="#2563eb"/>
  <circle cx="937.64" cy="298.35" r="2.5" fill="#2563eb"/>
  <circle cx="938.93" cy="298.35" r="2.5" fill="#2563eb"/>
  <circle cx="940.21" cy="298.35" r="2.5" fill="#2563eb"/>
  <circle cx="941.50" cy="298.35" r="2.5" fill="#2563eb"/>
  <circle cx="942.78" cy="298.35" r="2.5" fill="#2563eb"/>
  <circle cx="944.06" cy="298.35" r="2.5" fill="#2563eb"/>
  <circle cx="945.35" cy="298.35" r="2.5" fill="#2563eb"/>
  <circle cx="946.63" cy="298.39" r="2.5" fill="#2563eb"/>
  <circle cx="947.91" cy="298.39" r="2.5" fill="#2563eb"/>
  <circle cx="949.20" cy="298.39" r="2.5" fill="#2563eb"/>
  <circle cx="950.48" cy="246.78" r="2.5" fill="#2563eb"/>
  <circle cx="951.76" cy="298.39" r="2.5" fill="#2563eb"/>
  <circle cx="953.05" cy="298.39" r="2.5" fill="#2563eb"/>
  <circle cx="954.33" cy="298.39" r="2.5" fill="#2563eb"/>
  <circle cx="955.61" cy="298.39" r="2.5" fill="#2563eb"/>
  <circle cx="956.90" cy="298.39" r="2.5" fill="#2563eb"/>
  <circle cx="958.18" cy="298.39" r="2.5" fill="#2563eb"/>
  <circle cx="959.46" cy="298.39" r="2.5" fill="#2563eb"/>
  <circle cx="960.75" cy="246.78" r="2.5" fill="#2563eb"/>
  <circle cx="962.03" cy="298.39" r="2.5" fill="#2563eb"/>
  <circle cx="963.31" cy="298.39" r="2.5" fill="#2563eb"/>
  <circle cx="964.60" cy="298.39" r="2.5" fill="#2563eb"/>
  <circle cx="965.88" cy="298.39" r="2.5" fill="#2563eb"/>
  <circle cx="967.17" cy="298.39" r="2.5" fill="#2563eb"/>
  <circle cx="968.45" cy="298.39" r="2.5" fill="#2563eb"/>
  <circle cx="969.73" cy="298.39" r="2.5" fill="#2563eb"/>
  <circle cx="971.02" cy="246.78" r="2.5" fill="#2563eb"/>
  <circle cx="972.30" cy="298.39" r="2.5" fill="#2563eb"/>
  <circle cx="973.58" cy="298.39" r="2.5" fill="#2563eb"/>
  <circle cx="974.87" cy="298.39" r="2.5" fill="#2563eb"/>
  <circle cx="976.15" cy="298.39" r="2.5" fill="#2563eb"/>
  <circle cx="977.43" cy="298.39" r="2.5" fill="#2563eb"/>
  <circle cx="978.72" cy="298.39" r="2.5" fill="#2563eb"/>
  <circle cx="980.00" cy="298.39" r="2.5" fill="#2563eb"/>
</svg>
