<?xml version="1.0" encoding="UTF-8"?>
<svg xmlns="http://www.w3.org/2000/svg" width="1000" height="420" viewBox="0 0 1000 420">
  <rect width="100%" height="100%" fill="#ffffff"/>
  <text x="70" y="28" font-size="20" font-weight="600">수집 시점 기준 - 시간별 스냅샷</text>
  <text x="70" y="402" font-size="12" fill="#555">스냅샷 수</text>
  <line x1="70" y1="350.00" x2="980" y2="350.00" stroke="#e5e7eb" stroke-width="1"/>
  <text x="62" y="354.00" font-size="11" fill="#6b7280" text-anchor="end">0</text>
  <line x1="70" y1="290.00" x2="980" y2="290.00" stroke="#e5e7eb" stroke-width="1"/>
  <text x="62" y="294.00" font-size="11" fill="#6b7280" text-anchor="end">1,440</text>
  <line x1="70" y1="230.00" x2="980" y2="230.00" stroke="#e5e7eb" stroke-width="1"/>
  <text x="62" y="234.00" font-size="11" fill="#6b7280" text-anchor="end">2,880</text>
  <line x1="70" y1="170.00" x2="980" y2="170.00" stroke="#e5e7eb" stroke-width="1"/>
  <text x="62" y="174.00" font-size="11" fill="#6b7280" text-anchor="end">4,321</text>
  <line x1="70" y1="110.00" x2="980" y2="110.00" stroke="#e5e7eb" stroke-width="1"/>
  <text x="62" y="114.00" font-size="11" fill="#6b7280" text-anchor="end">5,761</text>
  <line x1="70" y1="50.00" x2="980" y2="50.00" stroke="#e5e7eb" stroke-width="1"/>
  <text x="62" y="54.00" font-size="11" fill="#6b7280" text-anchor="end">7,202</text>
  <line x1="70" y1="350" x2="980" y2="350" stroke="#111827" stroke-width="1.2"/>
  <line x1="70" y1="50" x2="70" y2="350" stroke="#111827" stroke-width="1.2"/>
  <line x1="70.00" y1="350" x2="70.00" y2="356" stroke="#9ca3af" stroke-width="1"/>
  <text x="70.00" y="372" font-size="10" fill="#6b7280" text-anchor="middle">2026-02-28 18</text>
  <line x1="145.00" y1="350" x2="145.00" y2="356" stroke="#9ca3af" stroke-width="1"/>
  <text x="145.00" y="372" font-size="10" fill="#6b7280" text-anchor="middle">2026-03-09 00</text>
  <line x1="220.00" y1="350" x2="220.00" y2="356" stroke="#9ca3af" stroke-width="1"/>
  <text x="220.00" y="372" font-size="10" fill="#6b7280" text-anchor="middle">2026-03-11 01</text>
  <line x1="295.00" y1="350" x2="295.00" y2="356" stroke="#9ca3af" stroke-width="1"/>
  <text x="295.00" y="372" font-size="10" fill="#6b7280" text-anchor="middle">2026-03-13 02</text>
  <line x1="370.00" y1="350" x2="370.00" y2="356" stroke="#9ca3af" stroke-width="1"/>
  <text x="370.00" y="372" font-size="10" fill="#6b7280" text-anchor="middle">2026-03-15 08</text>
  <line x1="445.00" y1="350" x2="445.00" y2="356" stroke="#9ca3af" stroke-width="1"/>
  <text x="445.00" y="372" font-size="10" fill="#6b7280" text-anchor="middle">2026-03-18 08</text>
  <line x1="520.00" y1="350" x2="520.00" y2="356" stroke="#9ca3af" stroke-width="1"/>
  <text x="520.00" y="372" font-size="10" fill="#6b7280" text-anchor="middle">2026-03-21 04</text>
  <line x1="595.00" y1="350" x2="595.00" y2="356" stroke="#9ca3af" stroke-width="1"/>
  <text x="595.00" y="372" font-size="10" fill="#6b7280" text-anchor="middle">2026-03-23 20</text>
  <line x1="670.00" y1="350" x2="670.00" y2="356" stroke="#9ca3af" stroke-width="1"/>
  <text x="670.00" y="372" font-size="10" fill="#6b7280" text-anchor="middle">2026-03-26 21</text>
  <line x1="745.00" y1="350" x2="745.00" y2="356" stroke="#9ca3af" stroke-width="1"/>
  <text x="745.00" y="372" font-size="10" fill="#6b7280" text-anchor="middle">2026-03-29 22</text>
  <line x1="820.00" y1="350" x2="820.00" y2="356" stroke="#9ca3af" stroke-width="1"/>
  <text x="820.00" y="372" font-size="10" fill="#6b7280" text-anchor="middle">2026-04-02 03</text>
  <line x1="895.00" y1="350" x2="895.00" y2="356" stroke="#9ca3af" stroke-width="1"/>
  <text x="895.00" y="372" font-size="10" fill="#6b7280" text-anchor="middle">2026-04-05 02</text>
  <line x1="970.00" y1="350" x2="970.00" y2="356" stroke="#9ca3af" stroke-width="1"/>
  <text x="970.00" y="372" font-size="10" fill="#6b7280" text-anchor="middle">2026-04-08 05</text>
  <line x1="980.00" y1="350" x2="980.00" y2="356" stroke="#9ca3af" stroke-width="1"/>
  <text x="980.00" y="372" font-size="10" fill="#6b7280" text-anchor="middle">2026-04-08 15</text>
  <polyline fill="none" stroke="#2563eb" stroke-width="2.5" points="70.00,50.00 71.67,50.12 73.33,50.17 75.00,50.46 76.67,50.00 78.33,266.90 80.00,50.12 81.67,50.08 83.33,177.46 85.00,211.58 86.67,175.34 88.33,304.14 90.00,200.46 91.67,250.94 93.33,300.01 95.00,300.06 96.67,300.01 98.33,300.01 100.00,348.00 101.67,300.01 103.33,249.99 105.00,200.00 106.67,249.99 108.33,249.99 110.00,250.03 111.67,250.03 113.33,250.03 115.00,250.40 116.67,250.90 118.33,250.90 120.00,251.32 121.67,249.94 123.33,300.01 125.00,299.93 126.67,251.03 128.33,300.68 130.00,250.03 131.67,200.00 133.33,249.99 135.00,250.03 136.67,250.03 138.33,250.03 140.00,300.01 141.67,200.04 143.33,250.03 145.00,250.03 146.67,250.03 148.33,249.90 150.00,250.03 151.67,250.03 153.33,250.94 155.00,250.44 156.67,250.03 158.33,250.03 160.00,300.47 161.67,300.01 163.33,300.43 165.00,250.03 166.67,249.99 168.33,300.43 170.00,249.90 171.67,249.99 173.33,249.99 175.00,200.04 176.67,300.01 178.33,300.01 180.00,300.01 181.67,249.90 183.33,300.01 185.00,250.03 186.67,249.99 188.33,199.96 190.00,300.01 191.67,200.00 193.33,250.36 195.00,250.03 196.67,300.01 198.33,300.01 200.00,250.44 201.67,300.01 203.33,250.03 205.00,250.03 206.67,249.99 208.33,250.49 210.00,250.03 211.67,200.04 213.33,300.01 215.00,250.03 216.67,300.01 218.33,250.11 220.00,300.01 221.67,250.03 223.33,250.03 225.00,199.92 226.67,250.03 228.33,250.03 230.00,250.03 231.67,254.36 233.33,300.01 235.00,299.97 236.67,250.36 238.33,299.97 240.00,250.03 241.67,250.03 243.33,250.03 245.00,250.03 246.67,249.99 248.33,200.00 250.00,299.93 251.67,300.01 253.33,299.97 255.00,249.94 256.67,249.99 258.33,249.82 260.00,249.94 261.67,250.28 263.33,207.00 265.00,250.03 266.67,250.32 268.33,250.40 270.00,300.93 271.67,300.01 273.33,300.10 275.00,249.94 276.67,249.99 278.33,250.07 280.00,249.99 281.67,250.03 283.33,249.94 285.00,200.00 286.67,300.39 288.33,300.01 290.00,300.01 291.67,250.44 293.33,300.39 295.00,249.86 296.67,250.11 298.33,201.46 300.00,300.01 301.67,200.83 303.33,250.03 305.00,249.99 306.67,300.26 308.33,300.01 310.00,300.01 311.67,250.03 313.33,250.03 315.00,250.03 316.67,250.03 318.33,249.99 320.00,250.03 321.67,200.00 323.33,300.26 325.00,249.99 326.67,300.01 328.33,249.94 330.00,250.03 331.67,250.03 333.33,250.03 335.00,200.04 336.67,300.01 338.33,249.90 340.00,300.01 341.67,300.01 343.33,300.06 345.00,300.01 346.67,300.01 348.33,243.95 350.00,249.94 351.67,299.97 353.33,300.01 355.00,300.01 356.67,250.03 358.33,300.01 360.00,300.01 361.67,299.97 363.33,249.99 365.00,300.01 366.67,299.93 368.33,300.01 370.00,299.93 371.67,300.01 373.33,300.01 375.00,299.89 376.67,299.97 378.33,250.03 380.00,299.93 381.67,299.89 383.33,299.97 385.00,249.94 386.67,300.01 388.33,300.01 390.00,299.97 391.67,249.99 393.33,299.97 395.00,299.97 396.67,300.06 398.33,300.06 400.00,299.93 401.67,300.01 403.33,300.01 405.00,299.93 406.67,300.01 408.33,300.01 410.00,299.97 411.67,300.01 413.33,300.01 415.00,300.01 416.67,300.01 418.33,249.86 420.00,300.01 421.67,300.10 423.33,299.93 425.00,300.01 426.67,299.93 428.33,300.01 430.00,300.01 431.67,300.01 433.33,300.01 435.00,300.01 436.67,299.97 438.33,300.01 440.00,300.01 441.67,300.01 443.33,300.01 445.00,250.03 446.67,300.01 448.33,300.01 450.00,299.97 451.67,300.01 453.33,300.01 455.00,299.97 456.67,299.97 458.33,300.01 460.00,299.97 461.67,300.01 463.33,299.93 465.00,300.01 466.67,250.03 468.33,300.01 470.00,300.01 471.67,300.01 473.33,300.01 475.00,300.01 476.67,299.89 478.33,300.01 480.00,300.01 481.67,250.07 483.33,300.01 485.00,299.93 486.67,300.01 488.33,299.97 490.00,299.97 491.67,299.97 493.33,250.03 495.00,300.01 496.67,300.01 498.33,300.01 500.00,300.01 501.67,299.97 503.33,300.01 505.00,299.97 506.67,300.01 508.33,299.97 510.00,249.90 511.67,300.01 513.33,300.01 515.00,299.89 516.67,299.97 518.33,299.97 520.00,249.99 521.67,299.97 523.33,299.89 525.00,300.01 526.67,299.97 528.33,299.97 530.00,300.01 531.67,299.97 533.33,249.99 535.00,299.97 536.67,299.97 538.33,300.06 540.00,300.06 541.67,249.94 543.33,300.01 545.00,299.93 546.67,300.01 548.33,300.01 550.00,249.99 551.67,300.01 553.33,300.01 555.00,300.01 556.67,299.93 558.33,299.93 560.00,300.01 561.67,300.01 563.33,249.94 565.00,299.97 566.67,299.97 568.33,300.01 570.00,300.01 571.67,300.01 573.33,249.99 575.00,300.01 576.67,300.01 578.33,300.01 580.00,250.03 581.67,300.01 583.33,300.01 585.00,300.01 586.67,299.97 588.33,300.01 590.00,300.01 591.67,299.97 593.33,299.97 595.00,300.01 596.67,300.01 598.33,299.97 600.00,299.93 601.67,300.01 603.33,300.06 605.00,299.97 606.67,300.01 608.33,250.03 610.00,250.03 611.67,299.93 613.33,299.97 615.00,300.01 616.67,300.01 618.33,300.06 620.00,300.01 621.67,299.93 623.33,300.01 625.00,300.01 626.67,299.97 628.33,299.97 630.00,300.01 631.67,250.03 633.33,300.01 635.00,300.01 636.67,300.01 638.33,299.97 640.00,300.01 641.67,299.97 643.33,300.01 645.00,299.97 646.67,299.97 648.33,299.93 650.00,300.01 651.67,300.01 653.33,299.89 655.00,299.97 656.67,299.97 658.33,300.06 660.00,249.90 661.67,299.89 663.33,300.01 665.00,299.97 666.67,299.97 668.33,299.97 670.00,300.01 671.67,300.01 673.33,299.97 675.00,299.97 676.67,299.97 678.33,250.03 680.00,299.93 681.67,300.01 683.33,300.01 685.00,299.93 686.67,300.01 688.33,300.01 690.00,299.97 691.67,300.01 693.33,300.01 695.00,300.06 696.67,300.01 698.33,299.97 700.00,299.89 701.67,300.01 703.33,300.01 705.00,249.94 706.67,249.94 708.33,300.01 710.00,300.01 711.67,300.01 713.33,300.01 715.00,299.97 716.67,250.03 718.33,300.01 720.00,300.01 721.67,300.01 723.33,300.01 725.00,250.03 726.67,249.99 728.33,300.01 730.00,299.97 731.67,300.01 733.33,299.97 735.00,300.01 736.67,299.97 738.33,299.97 740.00,299.97 741.67,300.06 743.33,249.99 745.00,300.01 746.67,250.03 748.33,249.94 750.00,249.99 751.67,300.01 753.33,300.06 755.00,300.01 756.67,299.97 758.33,299.97 760.00,300.01 761.67,299.93 763.33,299.89 765.00,299.89 766.67,299.89 768.33,299.89 770.00,299.85 771.67,299.85 773.33,299.89 775.00,299.81 776.67,299.81 778.33,299.81 780.00,299.76 781.67,299.76 783.33,299.76 785.00,299.72 786.67,299.68 788.33,299.60 790.00,299.60 791.67,299.60 793.33,299.56 795.00,299.47 796.67,299.43 798.33,299.43 800.00,299.39 801.67,299.47 803.33,259.82 805.00,338.96 806.67,299.31 808.33,299.31 810.00,299.26 811.67,299.68 813.33,299.68 815.00,299.68 816.67,299.64 818.33,299.14 820.00,299.14 821.67,299.10 823.33,299.10 825.00,299.10 826.67,248.07 828.33,299.06 830.00,299.06 831.67,299.06 833.33,299.06 835.00,299.06 836.67,298.97 838.33,298.97 840.00,298.93 841.67,298.97 843.33,298.93 845.00,298.89 846.67,298.89 848.33,298.89 850.00,298.89 851.67,247.78 853.33,298.89 855.00,298.89 856.67,298.85 858.33,298.85 860.00,298.81 861.67,298.81 863.33,298.81 865.00,298.81 866.67,298.81 868.33,298.81 870.00,298.81 871.67,298.81 873.33,298.81 875.00,298.72 876.67,247.45 878.33,247.45 880.00,298.72 881.67,298.72 883.33,298.72 885.00,298.72 886.67,298.72 888.33,298.72 890.00,247.36 891.67,298.68 893.33,247.36 895.00,247.36 896.67,247.36 898.33,298.68 900.00,298.68 901.67,298.68 903.33,298.68 905.00,298.68 906.67,341.67 908.33,307.01 910.00,298.68 911.67,298.68 913.33,298.68 915.00,247.36 916.67,298.64 918.33,247.36 920.00,247.28 921.67,247.20 923.33,298.60 925.00,298.60 926.67,247.03 928.33,298.51 930.00,298.51 931.67,298.51 933.33,298.51 935.00,298.51 936.67,298.51 938.33,298.51 940.00,298.51 941.67,298.51 943.33,298.51 945.00,298.51 946.67,298.51 948.33,298.51 950.00,298.51 951.67,298.51 953.33,298.51 955.00,298.51 956.67,298.51 958.33,298.51 960.00,298.51 961.67,298.51 963.33,298.51 965.00,298.51 966.67,298.51 968.33,298.51 970.00,298.51 971.67,298.47 973.33,298.51 975.00,298.51 976.67,298.47 978.33,298.51 980.00,298.47"/>
  <circle cx="70.00" cy="50.00" r="2.5" fill="#2563eb"/>
  <circle cx="71.67" cy="50.12" r="2.5" fill="#2563eb"/>
  <circle cx="73.33" cy="50.17" r="2.5" fill="#2563eb"/>
  <circle cx="75.00" cy="50.46" r="2.5" fill="#2563eb"/>
  <circle cx="76.67" cy="50.00" r="2.5" fill="#2563eb"/>
  <circle cx="78.33" cy="266.90" r="2.5" fill="#2563eb"/>
  <circle cx="80.00" cy="50.12" r="2.5" fill="#2563eb"/>
  <circle cx="81.67" cy="50.08" r="2.5" fill="#2563eb"/>
  <circle cx="83.33" cy="177.46" r="2.5" fill="#2563eb"/>
  <circle cx="85.00" cy="211.58" r="2.5" fill="#2563eb"/>
  <circle cx="86.67" cy="175.34" r="2.5" fill="#2563eb"/>
  <circle cx="88.33" cy="304.14" r="2.5" fill="#2563eb"/>
  <circle cx="90.00" cy="200.46" r="2.5" fill="#2563eb"/>
  <circle cx="91.67" cy="250.94" r="2.5" fill="#2563eb"/>
  <circle cx="93.33" cy="300.01" r="2.5" fill="#2563eb"/>
  <circle cx="95.00" cy="300.06" r="2.5" fill="#2563eb"/>
  <circle cx="96.67" cy="300.01" r="2.5" fill="#2563eb"/>
  <circle cx="98.33" cy="300.01" r="2.5" fill="#2563eb"/>
  <circle cx="100.00" cy="348.00" r="2.5" fill="#2563eb"/>
  <circle cx="101.67" cy="300.01" r="2.5" fill="#2563eb"/>
  <circle cx="103.33" cy="249.99" r="2.5" fill="#2563eb"/>
  <circle cx="105.00" cy="200.00" r="2.5" fill="#2563eb"/>
  <circle cx="106.67" cy="249.99" r="2.5" fill="#2563eb"/>
  <circle cx="108.33" cy="249.99" r="2.5" fill="#2563eb"/>
  <circle cx="110.00" cy="250.03" r="2.5" fill="#2563eb"/>
  <circle cx="111.67" cy="250.03" r="2.5" fill="#2563eb"/>
  <circle cx="113.33" cy="250.03" r="2.5" fill="#2563eb"/>
  <circle cx="115.00" cy="250.40" r="2.5" fill="#2563eb"/>
  <circle cx="116.67" cy="250.90" r="2.5" fill="#2563eb"/>
  <circle cx="118.33" cy="250.90" r="2.5" fill="#2563eb"/>
  <circle cx="120.00" cy="251.32" r="2.5" fill="#2563eb"/>
  <circle cx="121.67" cy="249.94" r="2.5" fill="#2563eb"/>
  <circle cx="123.33" cy="300.01" r="2.5" fill="#2563eb"/>
  <circle cx="125.00" cy="299.93" r="2.5" fill="#2563eb"/>
  <circle cx="126.67" cy="251.03" r="2.5" fill="#2563eb"/>
  <circle cx="128.33" cy="300.68" r="2.5" fill="#2563eb"/>
  <circle cx="130.00" cy="250.03" r="2.5" fill="#2563eb"/>
  <circle cx="131.67" cy="200.00" r="2.5" fill="#2563eb"/>
  <circle cx="133.33" cy="249.99" r="2.5" fill="#2563eb"/>
  <circle cx="135.00" cy="250.03" r="2.5" fill="#2563eb"/>
  <circle cx="136.67" cy="250.03" r="2.5" fill="#2563eb"/>
  <circle cx="138.33" cy="250.03" r="2.5" fill="#2563eb"/>
  <circle cx="140.00" cy="300.01" r="2.5" fill="#2563eb"/>
  <circle cx="141.67" cy="200.04" r="2.5" fill="#2563eb"/>
  <circle cx="143.33" cy="250.03" r="2.5" fill="#2563eb"/>
  <circle cx="145.00" cy="250.03" r="2.5" fill="#2563eb"/>
  <circle cx="146.67" cy="250.03" r="2.5" fill="#2563eb"/>
  <circle cx="148.33" cy="249.90" r="2.5" fill="#2563eb"/>
  <circle cx="150.00" cy="250.03" r="2.5" fill="#2563eb"/>
  <circle cx="151.67" cy="250.03" r="2.5" fill="#2563eb"/>
  <circle cx="153.33" cy="250.94" r="2.5" fill="#2563eb"/>
  <circle cx="155.00" cy="250.44" r="2.5" fill="#2563eb"/>
  <circle cx="156.67" cy="250.03" r="2.5" fill="#2563eb"/>
  <circle cx="158.33" cy="250.03" r="2.5" fill="#2563eb"/>
  <circle cx="160.00" cy="300.47" r="2.5" fill="#2563eb"/>
  <circle cx="161.67" cy="300.01" r="2.5" fill="#2563eb"/>
  <circle cx="163.33" cy="300.43" r="2.5" fill="#2563eb"/>
  <circle cx="165.00" cy="250.03" r="2.5" fill="#2563eb"/>
  <circle cx="166.67" cy="249.99" r="2.5" fill="#2563eb"/>
  <circle cx="168.33" cy="300.43" r="2.5" fill="#2563eb"/>
  <circle cx="170.00" cy="249.90" r="2.5" fill="#2563eb"/>
  <circle cx="171.67" cy="249.99" r="2.5" fill="#2563eb"/>
  <circle cx="173.33" cy="249.99" r="2.5" fill="#2563eb"/>
  <circle cx="175.00" cy="200.04" r="2.5" fill="#2563eb"/>
  <circle cx="176.67" cy="300.01" r="2.5" fill="#2563eb"/>
  <circle cx="178.33" cy="300.01" r="2.5" fill="#2563eb"/>
  <circle cx="180.00" cy="300.01" r="2.5" fill="#2563eb"/>
  <circle cx="181.67" cy="249.90" r="2.5" fill="#2563eb"/>
  <circle cx="183.33" cy="300.01" r="2.5" fill="#2563eb"/>
  <circle cx="185.00" cy="250.03" r="2.5" fill="#2563eb"/>
  <circle cx="186.67" cy="249.99" r="2.5" fill="#2563eb"/>
  <circle cx="188.33" cy="199.96" r="2.5" fill="#2563eb"/>
  <circle cx="190.00" cy="300.01" r="2.5" fill="#2563eb"/>
  <circle cx="191.67" cy="200.00" r="2.5" fill="#2563eb"/>
  <circle cx="193.33" cy="250.36" r="2.5" fill="#2563eb"/>
  <circle cx="195.00" cy="250.03" r="2.5" fill="#2563eb"/>
  <circle cx="196.67" cy="300.01" r="2.5" fill="#2563eb"/>
  <circle cx="198.33" cy="300.01" r="2.5" fill="#2563eb"/>
  <circle cx="200.00" cy="250.44" r="2.5" fill="#2563eb"/>
  <circle cx="201.67" cy="300.01" r="2.5" fill="#2563eb"/>
  <circle cx="203.33" cy="250.03" r="2.5" fill="#2563eb"/>
  <circle cx="205.00" cy="250.03" r="2.5" fill="#2563eb"/>
  <circle cx="206.67" cy="249.99" r="2.5" fill="#2563eb"/>
  <circle cx="208.33" cy="250.49" r="2.5" fill="#2563eb"/>
  <circle cx="210.00" cy="250.03" r="2.5" fill="#2563eb"/>
  <circle cx="211.67" cy="200.04" r="2.5" fill="#2563eb"/>
  <circle cx="213.33" cy="300.01" r="2.5" fill="#2563eb"/>
  <circle cx="215.00" cy="250.03" r="2.5" fill="#2563eb"/>
  <circle cx="216.67" cy="300.01" r="2.5" fill="#2563eb"/>
  <circle cx="218.33" cy="250.11" r="2.5" fill="#2563eb"/>
  <circle cx="220.00" cy="300.01" r="2.5" fill="#2563eb"/>
  <circle cx="221.67" cy="250.03" r="2.5" fill="#2563eb"/>
  <circle cx="223.33" cy="250.03" r="2.5" fill="#2563eb"/>
  <circle cx="225.00" cy="199.92" r="2.5" fill="#2563eb"/>
  <circle cx="226.67" cy="250.03" r="2.5" fill="#2563eb"/>
  <circle cx="228.33" cy="250.03" r="2.5" fill="#2563eb"/>
  <circle cx="230.00" cy="250.03" r="2.5" fill="#2563eb"/>
  <circle cx="231.67" cy="254.36" r="2.5" fill="#2563eb"/>
  <circle cx="233.33" cy="300.01" r="2.5" fill="#2563eb"/>
  <circle cx="235.00" cy="299.97" r="2.5" fill="#2563eb"/>
  <circle cx="236.67" cy="250.36" r="2.5" fill="#2563eb"/>
  <circle cx="238.33" cy="299.97" r="2.5" fill="#2563eb"/>
  <circle cx="240.00" cy="250.03" r="2.5" fill="#2563eb"/>
  <circle cx="241.67" cy="250.03" r="2.5" fill="#2563eb"/>
  <circle cx="243.33" cy="250.03" r="2.5" fill="#2563eb"/>
  <circle cx="245.00" cy="250.03" r="2.5" fill="#2563eb"/>
  <circle cx="246.67" cy="249.99" r="2.5" fill="#2563eb"/>
  <circle cx="248.33" cy="200.00" r="2.5" fill="#2563eb"/>
  <circle cx="250.00" cy="299.93" r="2.5" fill="#2563eb"/>
  <circle cx="251.67" cy="300.01" r="2.5" fill="#2563eb"/>
  <circle cx="253.33" cy="299.97" r="2.5" fill="#2563eb"/>
  <circle cx="255.00" cy="249.94" r="2.5" fill="#2563eb"/>
  <circle cx="256.67" cy="249.99" r="2.5" fill="#2563eb"/>
  <circle cx="258.33" cy="249.82" r="2.5" fill="#2563eb"/>
  <circle cx="260.00" cy="249.94" r="2.5" fill="#2563eb"/>
  <circle cx="261.67" cy="250.28" r="2.5" fill="#2563eb"/>
  <circle cx="263.33" cy="207.00" r="2.5" fill="#2563eb"/>
  <circle cx="265.00" cy="250.03" r="2.5" fill="#2563eb"/>
  <circle cx="266.67" cy="250.32" r="2.5" fill="#2563eb"/>
  <circle cx="268.33" cy="250.40" r="2.5" fill="#2563eb"/>
  <circle cx="270.00" cy="300.93" r="2.5" fill="#2563eb"/>
  <circle cx="271.67" cy="300.01" r="2.5" fill="#2563eb"/>
  <circle cx="273.33" cy="300.10" r="2.5" fill="#2563eb"/>
  <circle cx="275.00" cy="249.94" r="2.5" fill="#2563eb"/>
  <circle cx="276.67" cy="249.99" r="2.5" fill="#2563eb"/>
  <circle cx="278.33" cy="250.07" r="2.5" fill="#2563eb"/>
  <circle cx="280.00" cy="249.99" r="2.5" fill="#2563eb"/>
  <circle cx="281.67" cy="250.03" r="2.5" fill="#2563eb"/>
  <circle cx="283.33" cy="249.94" r="2.5" fill="#2563eb"/>
  <circle cx="285.00" cy="200.00" r="2.5" fill="#2563eb"/>
  <circle cx="286.67" cy="300.39" r="2.5" fill="#2563eb"/>
  <circle cx="288.33" cy="300.01" r="2.5" fill="#2563eb"/>
  <circle cx="290.00" cy="300.01" r="2.5" fill="#2563eb"/>
  <circle cx="291.67" cy="250.44" r="2.5" fill="#2563eb"/>
  <circle cx="293.33" cy="300.39" r="2.5" fill="#2563eb"/>
  <circle cx="295.00" cy="249.86" r="2.5" fill="#2563eb"/>
  <circle cx="296.67" cy="250.11" r="2.5" fill="#2563eb"/>
  <circle cx="298.33" cy="201.46" r="2.5" fill="#2563eb"/>
  <circle cx="300.00" cy="300.01" r="2.5" fill="#2563eb"/>
  <circle cx="301.67" cy="200.83" r="2.5" fill="#2563eb"/>
  <circle cx="303.33" cy="250.03" r="2.5" fill="#2563eb"/>
  <circle cx="305.00" cy="249.99" r="2.5" fill="#2563eb"/>
  <circle cx="306.67" cy="300.26" r="2.5" fill="#2563eb"/>
  <circle cx="308.33" cy="300.01" r="2.5" fill="#2563eb"/>
  <circle cx="310.00" cy="300.01" r="2.5" fill="#2563eb"/>
  <circle cx="311.67" cy="250.03" r="2.5" fill="#2563eb"/>
  <circle cx="313.33" cy="250.03" r="2.5" fill="#2563eb"/>
  <circle cx="315.00" cy="250.03" r="2.5" fill="#2563eb"/>
  <circle cx="316.67" cy="250.03" r="2.5" fill="#2563eb"/>
  <circle cx="318.33" cy="249.99" r="2.5" fill="#2563eb"/>
  <circle cx="320.00" cy="250.03" r="2.5" fill="#2563eb"/>
  <circle cx="321.67" cy="200.00" r="2.5" fill="#2563eb"/>
  <circle cx="323.33" cy="300.26" r="2.5" fill="#2563eb"/>
  <circle cx="325.00" cy="249.99" r="2.5" fill="#2563eb"/>
  <circle cx="326.67" cy="300.01" r="2.5" fill="#2563eb"/>
  <circle cx="328.33" cy="249.94" r="2.5" fill="#2563eb"/>
  <circle cx="330.00" cy="250.03" r="2.5" fill="#2563eb"/>
  <circle cx="331.67" cy="250.03" r="2.5" fill="#2563eb"/>
  <circle cx="333.33" cy="250.03" r="2.5" fill="#2563eb"/>
  <circle cx="335.00" cy="200.04" r="2.5" fill="#2563eb"/>
  <circle cx="336.67" cy="300.01" r="2.5" fill="#2563eb"/>
  <circle cx="338.33" cy="249.90" r="2.5" fill="#2563eb"/>
  <circle cx="340.00" cy="300.01" r="2.5" fill="#2563eb"/>
  <circle cx="341.67" cy="300.01" r="2.5" fill="#2563eb"/>
  <circle cx="343.33" cy="300.06" r="2.5" fill="#2563eb"/>
  <circle cx="345.00" cy="300.01" r="2.5" fill="#2563eb"/>
  <circle cx="346.67" cy="300.01" r="2.5" fill="#2563eb"/>
  <circle cx="348.33" cy="243.95" r="2.5" fill="#2563eb"/>
  <circle cx="350.00" cy="249.94" r="2.5" fill="#2563eb"/>
  <circle cx="351.67" cy="299.97" r="2.5" fill="#2563eb"/>
  <circle cx="353.33" cy="300.01" r="2.5" fill="#2563eb"/>
  <circle cx="355.00" cy="300.01" r="2.5" fill="#2563eb"/>
  <circle cx="356.67" cy="250.03" r="2.5" fill="#2563eb"/>
  <circle cx="358.33" cy="300.01" r="2.5" fill="#2563eb"/>
  <circle cx="360.00" cy="300.01" r="2.5" fill="#2563eb"/>
  <circle cx="361.67" cy="299.97" r="2.5" fill="#2563eb"/>
  <circle cx="363.33" cy="249.99" r="2.5" fill="#2563eb"/>
  <circle cx="365.00" cy="300.01" r="2.5" fill="#2563eb"/>
  <circle cx="366.67" cy="299.93" r="2.5" fill="#2563eb"/>
  <circle cx="368.33" cy="300.01" r="2.5" fill="#2563eb"/>
  <circle cx="370.00" cy="299.93" r="2.5" fill="#2563eb"/>
  <circle cx="371.67" cy="300.01" r="2.5" fill="#2563eb"/>
  <circle cx="373.33" cy="300.01" r="2.5" fill="#2563eb"/>
  <circle cx="375.00" cy="299.89" r="2.5" fill="#2563eb"/>
  <circle cx="376.67" cy="299.97" r="2.5" fill="#2563eb"/>
  <circle cx="378.33" cy="250.03" r="2.5" fill="#2563eb"/>
  <circle cx="380.00" cy="299.93" r="2.5" fill="#2563eb"/>
  <circle cx="381.67" cy="299.89" r="2.5" fill="#2563eb"/>
  <circle cx="383.33" cy="299.97" r="2.5" fill="#2563eb"/>
  <circle cx="385.00" cy="249.94" r="2.5" fill="#2563eb"/>
  <circle cx="386.67" cy="300.01" r="2.5" fill="#2563eb"/>
  <circle cx="388.33" cy="300.01" r="2.5" fill="#2563eb"/>
  <circle cx="390.00" cy="299.97" r="2.5" fill="#2563eb"/>
  <circle cx="391.67" cy="249.99" r="2.5" fill="#2563eb"/>
  <circle cx="393.33" cy="299.97" r="2.5" fill="#2563eb"/>
  <circle cx="395.00" cy="299.97" r="2.5" fill="#2563eb"/>
  <circle cx="396.67" cy="300.06" r="2.5" fill="#2563eb"/>
  <circle cx="398.33" cy="300.06" r="2.5" fill="#2563eb"/>
  <circle cx="400.00" cy="299.93" r="2.5" fill="#2563eb"/>
  <circle cx="401.67" cy="300.01" r="2.5" fill="#2563eb"/>
  <circle cx="403.33" cy="300.01" r="2.5" fill="#2563eb"/>
  <circle cx="405.00" cy="299.93" r="2.5" fill="#2563eb"/>
  <circle cx="406.67" cy="300.01" r="2.5" fill="#2563eb"/>
  <circle cx="408.33" cy="300.01" r="2.5" fill="#2563eb"/>
  <circle cx="410.00" cy="299.97" r="2.5" fill="#2563eb"/>
  <circle cx="411.67" cy="300.01" r="2.5" fill="#2563eb"/>
  <circle cx="413.33" cy="300.01" r="2.5" fill="#2563eb"/>
  <circle cx="415.00" cy="300.01" r="2.5" fill="#2563eb"/>
  <circle cx="416.67" cy="300.01" r="2.5" fill="#2563eb"/>
  <circle cx="418.33" cy="249.86" r="2.5" fill="#2563eb"/>
  <circle cx="420.00" cy="300.01" r="2.5" fill="#2563eb"/>
  <circle cx="421.67" cy="300.10" r="2.5" fill="#2563eb"/>
  <circle cx="423.33" cy="299.93" r="2.5" fill="#2563eb"/>
  <circle cx="425.00" cy="300.01" r="2.5" fill="#2563eb"/>
  <circle cx="426.67" cy="299.93" r="2.5" fill="#2563eb"/>
  <circle cx="428.33" cy="300.01" r="2.5" fill="#2563eb"/>
  <circle cx="430.00" cy="300.01" r="2.5" fill="#2563eb"/>
  <circle cx="431.67" cy="300.01" r="2.5" fill="#2563eb"/>
  <circle cx="433.33" cy="300.01" r="2.5" fill="#2563eb"/>
  <circle cx="435.00" cy="300.01" r="2.5" fill="#2563eb"/>
  <circle cx="436.67" cy="299.97" r="2.5" fill="#2563eb"/>
  <circle cx="438.33" cy="300.01" r="2.5" fill="#2563eb"/>
  <circle cx="440.00" cy="300.01" r="2.5" fill="#2563eb"/>
  <circle cx="441.67" cy="300.01" r="2.5" fill="#2563eb"/>
  <circle cx="443.33" cy="300.01" r="2.5" fill="#2563eb"/>
  <circle cx="445.00" cy="250.03" r="2.5" fill="#2563eb"/>
  <circle cx="446.67" cy="300.01" r="2.5" fill="#2563eb"/>
  <circle cx="448.33" cy="300.01" r="2.5" fill="#2563eb"/>
  <circle cx="450.00" cy="299.97" r="2.5" fill="#2563eb"/>
  <circle cx="451.67" cy="300.01" r="2.5" fill="#2563eb"/>
  <circle cx="453.33" cy="300.01" r="2.5" fill="#2563eb"/>
  <circle cx="455.00" cy="299.97" r="2.5" fill="#2563eb"/>
  <circle cx="456.67" cy="299.97" r="2.5" fill="#2563eb"/>
  <circle cx="458.33" cy="300.01" r="2.5" fill="#2563eb"/>
  <circle cx="460.00" cy="299.97" r="2.5" fill="#2563eb"/>
  <circle cx="461.67" cy="300.01" r="2.5" fill="#2563eb"/>
  <circle cx="463.33" cy="299.93" r="2.5" fill="#2563eb"/>
  <circle cx="465.00" cy="300.01" r="2.5" fill="#2563eb"/>
  <circle cx="466.67" cy="250.03" r="2.5" fill="#2563eb"/>
  <circle cx="468.33" cy="300.01" r="2.5" fill="#2563eb"/>
  <circle cx="470.00" cy="300.01" r="2.5" fill="#2563eb"/>
  <circle cx="471.67" cy="300.01" r="2.5" fill="#2563eb"/>
  <circle cx="473.33" cy="300.01" r="2.5" fill="#2563eb"/>
  <circle cx="475.00" cy="300.01" r="2.5" fill="#2563eb"/>
  <circle cx="476.67" cy="299.89" r="2.5" fill="#2563eb"/>
  <circle cx="478.33" cy="300.01" r="2.5" fill="#2563eb"/>
  <circle cx="480.00" cy="300.01" r="2.5" fill="#2563eb"/>
  <circle cx="481.67" cy="250.07" r="2.5" fill="#2563eb"/>
  <circle cx="483.33" cy="300.01" r="2.5" fill="#2563eb"/>
  <circle cx="485.00" cy="299.93" r="2.5" fill="#2563eb"/>
  <circle cx="486.67" cy="300.01" r="2.5" fill="#2563eb"/>
  <circle cx="488.33" cy="299.97" r="2.5" fill="#2563eb"/>
  <circle cx="490.00" cy="299.97" r="2.5" fill="#2563eb"/>
  <circle cx="491.67" cy="299.97" r="2.5" fill="#2563eb"/>
  <circle cx="493.33" cy="250.03" r="2.5" fill="#2563eb"/>
  <circle cx="495.00" cy="300.01" r="2.5" fill="#2563eb"/>
  <circle cx="496.67" cy="300.01" r="2.5" fill="#2563eb"/>
  <circle cx="498.33" cy="300.01" r="2.5" fill="#2563eb"/>
  <circle cx="500.00" cy="300.01" r="2.5" fill="#2563eb"/>
  <circle cx="501.67" cy="299.97" r="2.5" fill="#2563eb"/>
  <circle cx="503.33" cy="300.01" r="2.5" fill="#2563eb"/>
  <circle cx="505.00" cy="299.97" r="2.5" fill="#2563eb"/>
  <circle cx="506.67" cy="300.01" r="2.5" fill="#2563eb"/>
  <circle cx="508.33" cy="299.97" r="2.5" fill="#2563eb"/>
  <circle cx="510.00" cy="249.90" r="2.5" fill="#2563eb"/>
  <circle cx="511.67" cy="300.01" r="2.5" fill="#2563eb"/>
  <circle cx="513.33" cy="300.01" r="2.5" fill="#2563eb"/>
  <circle cx="515.00" cy="299.89" r="2.5" fill="#2563eb"/>
  <circle cx="516.67" cy="299.97" r="2.5" fill="#2563eb"/>
  <circle cx="518.33" cy="299.97" r="2.5" fill="#2563eb"/>
  <circle cx="520.00" cy="249.99" r="2.5" fill="#2563eb"/>
  <circle cx="521.67" cy="299.97" r="2.5" fill="#2563eb"/>
  <circle cx="523.33" cy="299.89" r="2.5" fill="#2563eb"/>
  <circle cx="525.00" cy="300.01" r="2.5" fill="#2563eb"/>
  <circle cx="526.67" cy="299.97" r="2.5" fill="#2563eb"/>
  <circle cx="528.33" cy="299.97" r="2.5" fill="#2563eb"/>
  <circle cx="530.00" cy="300.01" r="2.5" fill="#2563eb"/>
  <circle cx="531.67" cy="299.97" r="2.5" fill="#2563eb"/>
  <circle cx="533.33" cy="249.99" r="2.5" fill="#2563eb"/>
  <circle cx="535.00" cy="299.97" r="2.5" fill="#2563eb"/>
  <circle cx="536.67" cy="299.97" r="2.5" fill="#2563eb"/>
  <circle cx="538.33" cy="300.06" r="2.5" fill="#2563eb"/>
  <circle cx="540.00" cy="300.06" r="2.5" fill="#2563eb"/>
  <circle cx="541.67" cy="249.94" r="2.5" fill="#2563eb"/>
  <circle cx="543.33" cy="300.01" r="2.5" fill="#2563eb"/>
  <circle cx="545.00" cy="299.93" r="2.5" fill="#2563eb"/>
  <circle cx="546.67" cy="300.01" r="2.5" fill="#2563eb"/>
  <circle cx="548.33" cy="300.01" r="2.5" fill="#2563eb"/>
  <circle cx="550.00" cy="249.99" r="2.5" fill="#2563eb"/>
  <circle cx="551.67" cy="300.01" r="2.5" fill="#2563eb"/>
  <circle cx="553.33" cy="300.01" r="2.5" fill="#2563eb"/>
  <circle cx="555.00" cy="300.01" r="2.5" fill="#2563eb"/>
  <circle cx="556.67" cy="299.93" r="2.5" fill="#2563eb"/>
  <circle cx="558.33" cy="299.93" r="2.5" fill="#2563eb"/>
  <circle cx="560.00" cy="300.01" r="2.5" fill="#2563eb"/>
  <circle cx="561.67" cy="300.01" r="2.5" fill="#2563eb"/>
  <circle cx="563.33" cy="249.94" r="2.5" fill="#2563eb"/>
  <circle cx="565.00" cy="299.97" r="2.5" fill="#2563eb"/>
  <circle cx="566.67" cy="299.97" r="2.5" fill="#2563eb"/>
  <circle cx="568.33" cy="300.01" r="2.5" fill="#2563eb"/>
  <circle cx="570.00" cy="300.01" r="2.5" fill="#2563eb"/>
  <circle cx="571.67" cy="300.01" r="2.5" fill="#2563eb"/>
  <circle cx="573.33" cy="249.99" r="2.5" fill="#2563eb"/>
  <circle cx="575.00" cy="300.01" r="2.5" fill="#2563eb"/>
  <circle cx="576.67" cy="300.01" r="2.5" fill="#2563eb"/>
  <circle cx="578.33" cy="300.01" r="2.5" fill="#2563eb"/>
  <circle cx="580.00" cy="250.03" r="2.5" fill="#2563eb"/>
  <circle cx="581.67" cy="300.01" r="2.5" fill="#2563eb"/>
  <circle cx="583.33" cy="300.01" r="2.5" fill="#2563eb"/>
  <circle cx="585.00" cy="300.01" r="2.5" fill="#2563eb"/>
  <circle cx="586.67" cy="299.97" r="2.5" fill="#2563eb"/>
  <circle cx="588.33" cy="300.01" r="2.5" fill="#2563eb"/>
  <circle cx="590.00" cy="300.01" r="2.5" fill="#2563eb"/>
  <circle cx="591.67" cy="299.97" r="2.5" fill="#2563eb"/>
  <circle cx="593.33" cy="299.97" r="2.5" fill="#2563eb"/>
  <circle cx="595.00" cy="300.01" r="2.5" fill="#2563eb"/>
  <circle cx="596.67" cy="300.01" r="2.5" fill="#2563eb"/>
  <circle cx="598.33" cy="299.97" r="2.5" fill="#2563eb"/>
  <circle cx="600.00" cy="299.93" r="2.5" fill="#2563eb"/>
  <circle cx="601.67" cy="300.01" r="2.5" fill="#2563eb"/>
  <circle cx="603.33" cy="300.06" r="2.5" fill="#2563eb"/>
  <circle cx="605.00" cy="299.97" r="2.5" fill="#2563eb"/>
  <circle cx="606.67" cy="300.01" r="2.5" fill="#2563eb"/>
  <circle cx="608.33" cy="250.03" r="2.5" fill="#2563eb"/>
  <circle cx="610.00" cy="250.03" r="2.5" fill="#2563eb"/>
  <circle cx="611.67" cy="299.93" r="2.5" fill="#2563eb"/>
  <circle cx="613.33" cy="299.97" r="2.5" fill="#2563eb"/>
  <circle cx="615.00" cy="300.01" r="2.5" fill="#2563eb"/>
  <circle cx="616.67" cy="300.01" r="2.5" fill="#2563eb"/>
  <circle cx="618.33" cy="300.06" r="2.5" fill="#2563eb"/>
  <circle cx="620.00" cy="300.01" r="2.5" fill="#2563eb"/>
  <circle cx="621.67" cy="299.93" r="2.5" fill="#2563eb"/>
  <circle cx="623.33" cy="300.01" r="2.5" fill="#2563eb"/>
  <circle cx="625.00" cy="300.01" r="2.5" fill="#2563eb"/>
  <circle cx="626.67" cy="299.97" r="2.5" fill="#2563eb"/>
  <circle cx="628.33" cy="299.97" r="2.5" fill="#2563eb"/>
  <circle cx="630.00" cy="300.01" r="2.5" fill="#2563eb"/>
  <circle cx="631.67" cy="250.03" r="2.5" fill="#2563eb"/>
  <circle cx="633.33" cy="300.01" r="2.5" fill="#2563eb"/>
  <circle cx="635.00" cy="300.01" r="2.5" fill="#2563eb"/>
  <circle cx="636.67" cy="300.01" r="2.5" fill="#2563eb"/>
  <circle cx="638.33" cy="299.97" r="2.5" fill="#2563eb"/>
  <circle cx="640.00" cy="300.01" r="2.5" fill="#2563eb"/>
  <circle cx="641.67" cy="299.97" r="2.5" fill="#2563eb"/>
  <circle cx="643.33" cy="300.01" r="2.5" fill="#2563eb"/>
  <circle cx="645.00" cy="299.97" r="2.5" fill="#2563eb"/>
  <circle cx="646.67" cy="299.97" r="2.5" fill="#2563eb"/>
  <circle cx="648.33" cy="299.93" r="2.5" fill="#2563eb"/>
  <circle cx="650.00" cy="300.01" r="2.5" fill="#2563eb"/>
  <circle cx="651.67" cy="300.01" r="2.5" fill="#2563eb"/>
  <circle cx="653.33" cy="299.89" r="2.5" fill="#2563eb"/>
  <circle cx="655.00" cy="299.97" r="2.5" fill="#2563eb"/>
  <circle cx="656.67" cy="299.97" r="2.5" fill="#2563eb"/>
  <circle cx="658.33" cy="300.06" r="2.5" fill="#2563eb"/>
  <circle cx="660.00" cy="249.90" r="2.5" fill="#2563eb"/>
  <circle cx="661.67" cy="299.89" r="2.5" fill="#2563eb"/>
  <circle cx="663.33" cy="300.01" r="2.5" fill="#2563eb"/>
  <circle cx="665.00" cy="299.97" r="2.5" fill="#2563eb"/>
  <circle cx="666.67" cy="299.97" r="2.5" fill="#2563eb"/>
  <circle cx="668.33" cy="299.97" r="2.5" fill="#2563eb"/>
  <circle cx="670.00" cy="300.01" r="2.5" fill="#2563eb"/>
  <circle cx="671.67" cy="300.01" r="2.5" fill="#2563eb"/>
  <circle cx="673.33" cy="299.97" r="2.5" fill="#2563eb"/>
  <circle cx="675.00" cy="299.97" r="2.5" fill="#2563eb"/>
  <circle cx="676.67" cy="299.97" r="2.5" fill="#2563eb"/>
  <circle cx="678.33" cy="250.03" r="2.5" fill="#2563eb"/>
  <circle cx="680.00" cy="299.93" r="2.5" fill="#2563eb"/>
  <circle cx="681.67" cy="300.01" r="2.5" fill="#2563eb"/>
  <circle cx="683.33" cy="300.01" r="2.5" fill="#2563eb"/>
  <circle cx="685.00" cy="299.93" r="2.5" fill="#2563eb"/>
  <circle cx="686.67" cy="300.01" r="2.5" fill="#2563eb"/>
  <circle cx="688.33" cy="300.01" r="2.5" fill="#2563eb"/>
  <circle cx="690.00" cy="299.97" r="2.5" fill="#2563eb"/>
  <circle cx="691.67" cy="300.01" r="2.5" fill="#2563eb"/>
  <circle cx="693.33" cy="300.01" r="2.5" fill="#2563eb"/>
  <circle cx="695.00" cy="300.06" r="2.5" fill="#2563eb"/>
  <circle cx="696.67" cy="300.01" r="2.5" fill="#2563eb"/>
  <circle cx="698.33" cy="299.97" r="2.5" fill="#2563eb"/>
  <circle cx="700.00" cy="299.89" r="2.5" fill="#2563eb"/>
  <circle cx="701.67" cy="300.01" r="2.5" fill="#2563eb"/>
  <circle cx="703.33" cy="300.01" r="2.5" fill="#2563eb"/>
  <circle cx="705.00" cy="249.94" r="2.5" fill="#2563eb"/>
  <circle cx="706.67" cy="249.94" r="2.5" fill="#2563eb"/>
  <circle cx="708.33" cy="300.01" r="2.5" fill="#2563eb"/>
  <circle cx="710.00" cy="300.01" r="2.5" fill="#2563eb"/>
  <circle cx="711.67" cy="300.01" r="2.5" fill="#2563eb"/>
  <circle cx="713.33" cy="300.01" r="2.5" fill="#2563eb"/>
  <circle cx="715.00" cy="299.97" r="2.5" fill="#2563eb"/>
  <circle cx="716.67" cy="250.03" r="2.5" fill="#2563eb"/>
  <circle cx="718.33" cy="300.01" r="2.5" fill="#2563eb"/>
  <circle cx="720.00" cy="300.01" r="2.5" fill="#2563eb"/>
  <circle cx="721.67" cy="300.01" r="2.5" fill="#2563eb"/>
  <circle cx="723.33" cy="300.01" r="2.5" fill="#2563eb"/>
  <circle cx="725.00" cy="250.03" r="2.5" fill="#2563eb"/>
  <circle cx="726.67" cy="249.99" r="2.5" fill="#2563eb"/>
  <circle cx="728.33" cy="300.01" r="2.5" fill="#2563eb"/>
  <circle cx="730.00" cy="299.97" r="2.5" fill="#2563eb"/>
  <circle cx="731.67" cy="300.01" r="2.5" fill="#2563eb"/>
  <circle cx="733.33" cy="299.97" r="2.5" fill="#2563eb"/>
  <circle cx="735.00" cy="300.01" r="2.5" fill="#2563eb"/>
  <circle cx="736.67" cy="299.97" r="2.5" fill="#2563eb"/>
  <circle cx="738.33" cy="299.97" r="2.5" fill="#2563eb"/>
  <circle cx="740.00" cy="299.97" r="2.5" fill="#2563eb"/>
  <circle cx="741.67" cy="300.06" r="2.5" fill="#2563eb"/>
  <circle cx="743.33" cy="249.99" r="2.5" fill="#2563eb"/>
  <circle cx="745.00" cy="300.01" r="2.5" fill="#2563eb"/>
  <circle cx="746.67" cy="250.03" r="2.5" fill="#2563eb"/>
  <circle cx="748.33" cy="249.94" r="2.5" fill="#2563eb"/>
  <circle cx="750.00" cy="249.99" r="2.5" fill="#2563eb"/>
  <circle cx="751.67" cy="300.01" r="2.5" fill="#2563eb"/>
  <circle cx="753.33" cy="300.06" r="2.5" fill="#2563eb"/>
  <circle cx="755.00" cy="300.01" r="2.5" fill="#2563eb"/>
  <circle cx="756.67" cy="299.97" r="2.5" fill="#2563eb"/>
  <circle cx="758.33" cy="299.97" r="2.5" fill="#2563eb"/>
  <circle cx="760.00" cy="300.01" r="2.5" fill="#2563eb"/>
  <circle cx="761.67" cy="299.93" r="2.5" fill="#2563eb"/>
  <circle cx="763.33" cy="299.89" r="2.5" fill="#2563eb"/>
  <circle cx="765.00" cy="299.89" r="2.5" fill="#2563eb"/>
  <circle cx="766.67" cy="299.89" r="2.5" fill="#2563eb"/>
  <circle cx="768.33" cy="299.89" r="2.5" fill="#2563eb"/>
  <circle cx="770.00" cy="299.85" r="2.5" fill="#2563eb"/>
  <circle cx="771.67" cy="299.85" r="2.5" fill="#2563eb"/>
  <circle cx="773.33" cy="299.89" r="2.5" fill="#2563eb"/>
  <circle cx="775.00" cy="299.81" r="2.5" fill="#2563eb"/>
  <circle cx="776.67" cy="299.81" r="2.5" fill="#2563eb"/>
  <circle cx="778.33" cy="299.81" r="2.5" fill="#2563eb"/>
  <circle cx="780.00" cy="299.76" r="2.5" fill="#2563eb"/>
  <circle cx="781.67" cy="299.76" r="2.5" fill="#2563eb"/>
  <circle cx="783.33" cy="299.76" r="2.5" fill="#2563eb"/>
  <circle cx="785.00" cy="299.72" r="2.5" fill="#2563eb"/>
  <circle cx="786.67" cy="299.68" r="2.5" fill="#2563eb"/>
  <circle cx="788.33" cy="299.60" r="2.5" fill="#2563eb"/>
  <circle cx="790.00" cy="299.60" r="2.5" fill="#2563eb"/>
  <circle cx="791.67" cy="299.60" r="2.5" fill="#2563eb"/>
  <circle cx="793.33" cy="299.56" r="2.5" fill="#2563eb"/>
  <circle cx="795.00" cy="299.47" r="2.5" fill="#2563eb"/>
  <circle cx="796.67" cy="299.43" r="2.5" fill="#2563eb"/>
  <circle cx="798.33" cy="299.43" r="2.5" fill="#2563eb"/>
  <circle cx="800.00" cy="299.39" r="2.5" fill="#2563eb"/>
  <circle cx="801.67" cy="299.47" r="2.5" fill="#2563eb"/>
  <circle cx="803.33" cy="259.82" r="2.5" fill="#2563eb"/>
  <circle cx="805.00" cy="338.96" r="2.5" fill="#2563eb"/>
  <circle cx="806.67" cy="299.31" r="2.5" fill="#2563eb"/>
  <circle cx="808.33" cy="299.31" r="2.5" fill="#2563eb"/>
  <circle cx="810.00" cy="299.26" r="2.5" fill="#2563eb"/>
  <circle cx="811.67" cy="299.68" r="2.5" fill="#2563eb"/>
  <circle cx="813.33" cy="299.68" r="2.5" fill="#2563eb"/>
  <circle cx="815.00" cy="299.68" r="2.5" fill="#2563eb"/>
  <circle cx="816.67" cy="299.64" r="2.5" fill="#2563eb"/>
  <circle cx="818.33" cy="299.14" r="2.5" fill="#2563eb"/>
  <circle cx="820.00" cy="299.14" r="2.5" fill="#2563eb"/>
  <circle cx="821.67" cy="299.10" r="2.5" fill="#2563eb"/>
  <circle cx="823.33" cy="299.10" r="2.5" fill="#2563eb"/>
  <circle cx="825.00" cy="299.10" r="2.5" fill="#2563eb"/>
  <circle cx="826.67" cy="248.07" r="2.5" fill="#2563eb"/>
  <circle cx="828.33" cy="299.06" r="2.5" fill="#2563eb"/>
  <circle cx="830.00" cy="299.06" r="2.5" fill="#2563eb"/>
  <circle cx="831.67" cy="299.06" r="2.5" fill="#2563eb"/>
  <circle cx="833.33" cy="299.06" r="2.5" fill="#2563eb"/>
  <circle cx="835.00" cy="299.06" r="2.5" fill="#2563eb"/>
  <circle cx="836.67" cy="298.97" r="2.5" fill="#2563eb"/>
  <circle cx="838.33" cy="298.97" r="2.5" fill="#2563eb"/>
  <circle cx="840.00" cy="298.93" r="2.5" fill="#2563eb"/>
  <circle cx="841.67" cy="298.97" r="2.5" fill="#2563eb"/>
  <circle cx="843.33" cy="298.93" r="2.5" fill="#2563eb"/>
  <circle cx="845.00" cy="298.89" r="2.5" fill="#2563eb"/>
  <circle cx="846.67" cy="298.89" r="2.5" fill="#2563eb"/>
  <circle cx="848.33" cy="298.89" r="2.5" fill="#2563eb"/>
  <circle cx="850.00" cy="298.89" r="2.5" fill="#2563eb"/>
  <circle cx="851.67" cy="247.78" r="2.5" fill="#2563eb"/>
  <circle cx="853.33" cy="298.89" r="2.5" fill="#2563eb"/>
  <circle cx="855.00" cy="298.89" r="2.5" fill="#2563eb"/>
  <circle cx="856.67" cy="298.85" r="2.5" fill="#2563eb"/>
  <circle cx="858.33" cy="298.85" r="2.5" fill="#2563eb"/>
  <circle cx="860.00" cy="298.81" r="2.5" fill="#2563eb"/>
  <circle cx="861.67" cy="298.81" r="2.5" fill="#2563eb"/>
  <circle cx="863.33" cy="298.81" r="2.5" fill="#2563eb"/>
  <circle cx="865.00" cy="298.81" r="2.5" fill="#2563eb"/>
  <circle cx="866.67" cy="298.81" r="2.5" fill="#2563eb"/>
  <circle cx="868.33" cy="298.81" r="2.5" fill="#2563eb"/>
  <circle cx="870.00" cy="298.81" r="2.5" fill="#2563eb"/>
  <circle cx="871.67" cy="298.81" r="2.5" fill="#2563eb"/>
  <circle cx="873.33" cy="298.81" r="2.5" fill="#2563eb"/>
  <circle cx="875.00" cy="298.72" r="2.5" fill="#2563eb"/>
  <circle cx="876.67" cy="247.45" r="2.5" fill="#2563eb"/>
  <circle cx="878.33" cy="247.45" r="2.5" fill="#2563eb"/>
  <circle cx="880.00" cy="298.72" r="2.5" fill="#2563eb"/>
  <circle cx="881.67" cy="298.72" r="2.5" fill="#2563eb"/>
  <circle cx="883.33" cy="298.72" r="2.5" fill="#2563eb"/>
  <circle cx="885.00" cy="298.72" r="2.5" fill="#2563eb"/>
  <circle cx="886.67" cy="298.72" r="2.5" fill="#2563eb"/>
  <circle cx="888.33" cy="298.72" r="2.5" fill="#2563eb"/>
  <circle cx="890.00" cy="247.36" r="2.5" fill="#2563eb"/>
  <circle cx="891.67" cy="298.68" r="2.5" fill="#2563eb"/>
  <circle cx="893.33" cy="247.36" r="2.5" fill="#2563eb"/>
  <circle cx="895.00" cy="247.36" r="2.5" fill="#2563eb"/>
  <circle cx="896.67" cy="247.36" r="2.5" fill="#2563eb"/>
  <circle cx="898.33" cy="298.68" r="2.5" fill="#2563eb"/>
  <circle cx="900.00" cy="298.68" r="2.5" fill="#2563eb"/>
  <circle cx="901.67" cy="298.68" r="2.5" fill="#2563eb"/>
  <circle cx="903.33" cy="298.68" r="2.5" fill="#2563eb"/>
  <circle cx="905.00" cy="298.68" r="2.5" fill="#2563eb"/>
  <circle cx="906.67" cy="341.67" r="2.5" fill="#2563eb"/>
  <circle cx="908.33" cy="307.01" r="2.5" fill="#2563eb"/>
  <circle cx="910.00" cy="298.68" r="2.5" fill="#2563eb"/>
  <circle cx="911.67" cy="298.68" r="2.5" fill="#2563eb"/>
  <circle cx="913.33" cy="298.68" r="2.5" fill="#2563eb"/>
  <circle cx="915.00" cy="247.36" r="2.5" fill="#2563eb"/>
  <circle cx="916.67" cy="298.64" r="2.5" fill="#2563eb"/>
  <circle cx="918.33" cy="247.36" r="2.5" fill="#2563eb"/>
  <circle cx="920.00" cy="247.28" r="2.5" fill="#2563eb"/>
  <circle cx="921.67" cy="247.20" r="2.5" fill="#2563eb"/>
  <circle cx="923.33" cy="298.60" r="2.5" fill="#2563eb"/>
  <circle cx="925.00" cy="298.60" r="2.5" fill="#2563eb"/>
  <circle cx="926.67" cy="247.03" r="2.5" fill="#2563eb"/>
  <circle cx="928.33" cy="298.51" r="2.5" fill="#2563eb"/>
  <circle cx="930.00" cy="298.51" r="2.5" fill="#2563eb"/>
  <circle cx="931.67" cy="298.51" r="2.5" fill="#2563eb"/>
  <circle cx="933.33" cy="298.51" r="2.5" fill="#2563eb"/>
  <circle cx="935.00" cy="298.51" r="2.5" fill="#2563eb"/>
  <circle cx="936.67" cy="298.51" r="2.5" fill="#2563eb"/>
  <circle cx="938.33" cy="298.51" r="2.5" fill="#2563eb"/>
  <circle cx="940.00" cy="298.51" r="2.5" fill="#2563eb"/>
  <circle cx="941.67" cy="298.51" r="2.5" fill="#2563eb"/>
  <circle cx="943.33" cy="298.51" r="2.5" fill="#2563eb"/>
  <circle cx="945.00" cy="298.51" r="2.5" fill="#2563eb"/>
  <circle cx="946.67" cy="298.51" r="2.5" fill="#2563eb"/>
  <circle cx="948.33" cy="298.51" r="2.5" fill="#2563eb"/>
  <circle cx="950.00" cy="298.51" r="2.5" fill="#2563eb"/>
  <circle cx="951.67" cy="298.51" r="2.5" fill="#2563eb"/>
  <circle cx="953.33" cy="298.51" r="2.5" fill="#2563eb"/>
  <circle cx="955.00" cy="298.51" r="2.5" fill="#2563eb"/>
  <circle cx="956.67" cy="298.51" r="2.5" fill="#2563eb"/>
  <circle cx="958.33" cy="298.51" r="2.5" fill="#2563eb"/>
  <circle cx="960.00" cy="298.51" r="2.5" fill="#2563eb"/>
  <circle cx="961.67" cy="298.51" r="2.5" fill="#2563eb"/>
  <circle cx="963.33" cy="298.51" r="2.5" fill="#2563eb"/>
  <circle cx="965.00" cy="298.51" r="2.5" fill="#2563eb"/>
  <circle cx="966.67" cy="298.51" r="2.5" fill="#2563eb"/>
  <circle cx="968.33" cy="298.51" r="2.5" fill="#2563eb"/>
  <circle cx="970.00" cy="298.51" r="2.5" fill="#2563eb"/>
  <circle cx="971.67" cy="298.47" r="2.5" fill="#2563eb"/>
  <circle cx="973.33" cy="298.51" r="2.5" fill="#2563eb"/>
  <circle cx="975.00" cy="298.51" r="2.5" fill="#2563eb"/>
  <circle cx="976.67" cy="298.47" r="2.5" fill="#2563eb"/>
  <circle cx="978.33" cy="298.51" r="2.5" fill="#2563eb"/>
  <circle cx="980.00" cy="298.47" r="2.5" fill="#2563eb"/>
</svg>
