<?xml version="1.0" encoding="UTF-8"?>
<svg xmlns="http://www.w3.org/2000/svg" width="1000" height="420" viewBox="0 0 1000 420">
  <rect width="100%" height="100%" fill="#ffffff"/>
  <text x="70" y="28" font-size="20" font-weight="600">수집 시점 기준 - 일별 스냅샷</text>
  <text x="70" y="402" font-size="12" fill="#555">스냅샷 수</text>
  <line x1="70" y1="350.00" x2="980" y2="350.00" stroke="#e5e7eb" stroke-width="1"/>
  <text x="62" y="354.00" font-size="11" fill="#6b7280" text-anchor="end">0</text>
  <line x1="70" y1="290.00" x2="980" y2="290.00" stroke="#e5e7eb" stroke-width="1"/>
  <text x="62" y="294.00" font-size="11" fill="#6b7280" text-anchor="end">10,057</text>
  <line x1="70" y1="230.00" x2="980" y2="230.00" stroke="#e5e7eb" stroke-width="1"/>
  <text x="62" y="234.00" font-size="11" fill="#6b7280" text-anchor="end">20,114</text>
  <line x1="70" y1="170.00" x2="980" y2="170.00" stroke="#e5e7eb" stroke-width="1"/>
  <text x="62" y="174.00" font-size="11" fill="#6b7280" text-anchor="end">30,171</text>
  <line x1="70" y1="110.00" x2="980" y2="110.00" stroke="#e5e7eb" stroke-width="1"/>
  <text x="62" y="114.00" font-size="11" fill="#6b7280" text-anchor="end">40,228</text>
  <line x1="70" y1="50.00" x2="980" y2="50.00" stroke="#e5e7eb" stroke-width="1"/>
  <text x="62" y="54.00" font-size="11" fill="#6b7280" text-anchor="end">50,285</text>
  <line x1="70" y1="350" x2="980" y2="350" stroke="#111827" stroke-width="1.2"/>
  <line x1="70" y1="50" x2="70" y2="350" stroke="#111827" stroke-width="1.2"/>
  <line x1="70.00" y1="350" x2="70.00" y2="356" stroke="#9ca3af" stroke-width="1"/>
  <text x="70.00" y="372" font-size="10" fill="#6b7280" text-anchor="middle">2026-02-28</text>
  <line x1="140.00" y1="350" x2="140.00" y2="356" stroke="#9ca3af" stroke-width="1"/>
  <text x="140.00" y="372" font-size="10" fill="#6b7280" text-anchor="middle">2026-03-08</text>
  <line x1="210.00" y1="350" x2="210.00" y2="356" stroke="#9ca3af" stroke-width="1"/>
  <text x="210.00" y="372" font-size="10" fill="#6b7280" text-anchor="middle">2026-03-12</text>
  <line x1="280.00" y1="350" x2="280.00" y2="356" stroke="#9ca3af" stroke-width="1"/>
  <text x="280.00" y="372" font-size="10" fill="#6b7280" text-anchor="middle">2026-03-16</text>
  <line x1="350.00" y1="350" x2="350.00" y2="356" stroke="#9ca3af" stroke-width="1"/>
  <text x="350.00" y="372" font-size="10" fill="#6b7280" text-anchor="middle">2026-03-20</text>
  <line x1="420.00" y1="350" x2="420.00" y2="356" stroke="#9ca3af" stroke-width="1"/>
  <text x="420.00" y="372" font-size="10" fill="#6b7280" text-anchor="middle">2026-03-24</text>
  <line x1="490.00" y1="350" x2="490.00" y2="356" stroke="#9ca3af" stroke-width="1"/>
  <text x="490.00" y="372" font-size="10" fill="#6b7280" text-anchor="middle">2026-03-28</text>
  <line x1="560.00" y1="350" x2="560.00" y2="356" stroke="#9ca3af" stroke-width="1"/>
  <text x="560.00" y="372" font-size="10" fill="#6b7280" text-anchor="middle">2026-04-01</text>
  <line x1="630.00" y1="350" x2="630.00" y2="356" stroke="#9ca3af" stroke-width="1"/>
  <text x="630.00" y="372" font-size="10" fill="#6b7280" text-anchor="middle">2026-04-05</text>
  <line x1="700.00" y1="350" x2="700.00" y2="356" stroke="#9ca3af" stroke-width="1"/>
  <text x="700.00" y="372" font-size="10" fill="#6b7280" text-anchor="middle">2026-04-09</text>
  <line x1="770.00" y1="350" x2="770.00" y2="356" stroke="#9ca3af" stroke-width="1"/>
  <text x="770.00" y="372" font-size="10" fill="#6b7280" text-anchor="middle">2026-04-13</text>
  <line x1="840.00" y1="350" x2="840.00" y2="356" stroke="#9ca3af" stroke-width="1"/>
  <text x="840.00" y="372" font-size="10" fill="#6b7280" text-anchor="middle">2026-04-17</text>
  <line x1="910.00" y1="350" x2="910.00" y2="356" stroke="#9ca3af" stroke-width="1"/>
  <text x="910.00" y="372" font-size="10" fill="#6b7280" text-anchor="middle">2026-04-21</text>
  <line x1="980.00" y1="350" x2="980.00" y2="356" stroke="#9ca3af" stroke-width="1"/>
  <text x="980.00" y="372" font-size="10" fill="#6b7280" text-anchor="middle">2026-04-25</text>
  <polyline fill="none" stroke="#2563eb" stroke-width="2.5" points="70.00,264.08 87.50,78.85 105.00,253.89 122.50,292.71 140.00,50.00 157.50,78.27 175.00,63.76 192.50,71.41 210.00,64.86 227.50,64.10 245.00,148.63 262.50,206.71 280.00,235.41 297.50,235.42 315.00,242.59 332.50,228.26 350.00,213.91 367.50,192.40 385.00,199.59 402.50,235.43 420.00,228.26 437.50,235.41 455.00,242.53 472.50,242.57 490.00,213.92 507.50,228.26 525.00,228.19 542.50,242.02 560.00,255.89 577.50,240.65 595.00,225.52 612.50,210.50 630.00,217.69 647.50,224.77 665.00,232.02 682.50,254.10 700.00,253.98 717.50,246.60 735.00,209.63 752.50,216.93 770.00,239.12 787.50,253.88 805.00,253.83 822.50,253.83 840.00,253.83 857.50,231.67 875.00,216.95 892.50,239.11 910.00,246.43 927.50,253.89 945.00,253.90 962.50,253.89 980.00,290.86"/>
  <circle cx="70.00" cy="264.08" r="2.5" fill="#2563eb"/>
  <circle cx="87.50" cy="78.85" r="2.5" fill="#2563eb"/>
  <circle cx="105.00" cy="253.89" r="2.5" fill="#2563eb"/>
  <circle cx="122.50" cy="292.71" r="2.5" fill="#2563eb"/>
  <circle cx="140.00" cy="50.00" r="2.5" fill="#2563eb"/>
  <circle cx="157.50" cy="78.27" r="2.5" fill="#2563eb"/>
  <circle cx="175.00" cy="63.76" r="2.5" fill="#2563eb"/>
  <circle cx="192.50" cy="71.41" r="2.5" fill="#2563eb"/>
  <circle cx="210.00" cy="64.86" r="2.5" fill="#2563eb"/>
  <circle cx="227.50" cy="64.10" r="2.5" fill="#2563eb"/>
  <circle cx="245.00" cy="148.63" r="2.5" fill="#2563eb"/>
  <circle cx="262.50" cy="206.71" r="2.5" fill="#2563eb"/>
  <circle cx="280.00" cy="235.41" r="2.5" fill="#2563eb"/>
  <circle cx="297.50" cy="235.42" r="2.5" fill="#2563eb"/>
  <circle cx="315.00" cy="242.59" r="2.5" fill="#2563eb"/>
  <circle cx="332.50" cy="228.26" r="2.5" fill="#2563eb"/>
  <circle cx="350.00" cy="213.91" r="2.5" fill="#2563eb"/>
  <circle cx="367.50" cy="192.40" r="2.5" fill="#2563eb"/>
  <circle cx="385.00" cy="199.59" r="2.5" fill="#2563eb"/>
  <circle cx="402.50" cy="235.43" r="2.5" fill="#2563eb"/>
  <circle cx="420.00" cy="228.26" r="2.5" fill="#2563eb"/>
  <circle cx="437.50" cy="235.41" r="2.5" fill="#2563eb"/>
  <circle cx="455.00" cy="242.53" r="2.5" fill="#2563eb"/>
  <circle cx="472.50" cy="242.57" r="2.5" fill="#2563eb"/>
  <circle cx="490.00" cy="213.92" r="2.5" fill="#2563eb"/>
  <circle cx="507.50" cy="228.26" r="2.5" fill="#2563eb"/>
  <circle cx="525.00" cy="228.19" r="2.5" fill="#2563eb"/>
  <circle cx="542.50" cy="242.02" r="2.5" fill="#2563eb"/>
  <circle cx="560.00" cy="255.89" r="2.5" fill="#2563eb"/>
  <circle cx="577.50" cy="240.65" r="2.5" fill="#2563eb"/>
  <circle cx="595.00" cy="225.52" r="2.5" fill="#2563eb"/>
  <circle cx="612.50" cy="210.50" r="2.5" fill="#2563eb"/>
  <circle cx="630.00" cy="217.69" r="2.5" fill="#2563eb"/>
  <circle cx="647.50" cy="224.77" r="2.5" fill="#2563eb"/>
  <circle cx="665.00" cy="232.02" r="2.5" fill="#2563eb"/>
  <circle cx="682.50" cy="254.10" r="2.5" fill="#2563eb"/>
  <circle cx="700.00" cy="253.98" r="2.5" fill="#2563eb"/>
  <circle cx="717.50" cy="246.60" r="2.5" fill="#2563eb"/>
  <circle cx="735.00" cy="209.63" r="2.5" fill="#2563eb"/>
  <circle cx="752.50" cy="216.93" r="2.5" fill="#2563eb"/>
  <circle cx="770.00" cy="239.12" r="2.5" fill="#2563eb"/>
  <circle cx="787.50" cy="253.88" r="2.5" fill="#2563eb"/>
  <circle cx="805.00" cy="253.83" r="2.5" fill="#2563eb"/>
  <circle cx="822.50" cy="253.83" r="2.5" fill="#2563eb"/>
  <circle cx="840.00" cy="253.83" r="2.5" fill="#2563eb"/>
  <circle cx="857.50" cy="231.67" r="2.5" fill="#2563eb"/>
  <circle cx="875.00" cy="216.95" r="2.5" fill="#2563eb"/>
  <circle cx="892.50" cy="239.11" r="2.5" fill="#2563eb"/>
  <circle cx="910.00" cy="246.43" r="2.5" fill="#2563eb"/>
  <circle cx="927.50" cy="253.89" r="2.5" fill="#2563eb"/>
  <circle cx="945.00" cy="253.90" r="2.5" fill="#2563eb"/>
  <circle cx="962.50" cy="253.89" r="2.5" fill="#2563eb"/>
  <circle cx="980.00" cy="290.86" r="2.5" fill="#2563eb"/>
</svg>
