<?xml version="1.0" encoding="UTF-8"?>
<svg xmlns="http://www.w3.org/2000/svg" width="1000" height="420" viewBox="0 0 1000 420">
  <rect width="100%" height="100%" fill="#ffffff"/>
  <text x="70" y="28" font-size="20" font-weight="600">수집 시점 기준 - 시간별 스냅샷</text>
  <text x="70" y="402" font-size="12" fill="#555">스냅샷 수</text>
  <line x1="70" y1="350.00" x2="980" y2="350.00" stroke="#e5e7eb" stroke-width="1"/>
  <text x="62" y="354.00" font-size="11" fill="#6b7280" text-anchor="end">0</text>
  <line x1="70" y1="290.00" x2="980" y2="290.00" stroke="#e5e7eb" stroke-width="1"/>
  <text x="62" y="294.00" font-size="11" fill="#6b7280" text-anchor="end">1,440</text>
  <line x1="70" y1="230.00" x2="980" y2="230.00" stroke="#e5e7eb" stroke-width="1"/>
  <text x="62" y="234.00" font-size="11" fill="#6b7280" text-anchor="end">2,880</text>
  <line x1="70" y1="170.00" x2="980" y2="170.00" stroke="#e5e7eb" stroke-width="1"/>
  <text x="62" y="174.00" font-size="11" fill="#6b7280" text-anchor="end">4,321</text>
  <line x1="70" y1="110.00" x2="980" y2="110.00" stroke="#e5e7eb" stroke-width="1"/>
  <text x="62" y="114.00" font-size="11" fill="#6b7280" text-anchor="end">5,761</text>
  <line x1="70" y1="50.00" x2="980" y2="50.00" stroke="#e5e7eb" stroke-width="1"/>
  <text x="62" y="54.00" font-size="11" fill="#6b7280" text-anchor="end">7,202</text>
  <line x1="70" y1="350" x2="980" y2="350" stroke="#111827" stroke-width="1.2"/>
  <line x1="70" y1="50" x2="70" y2="350" stroke="#111827" stroke-width="1.2"/>
  <line x1="70.00" y1="350" x2="70.00" y2="356" stroke="#9ca3af" stroke-width="1"/>
  <text x="70.00" y="372" font-size="10" fill="#6b7280" text-anchor="middle">2026-02-28 18</text>
  <line x1="145.65" y1="350" x2="145.65" y2="356" stroke="#9ca3af" stroke-width="1"/>
  <text x="145.65" y="372" font-size="10" fill="#6b7280" text-anchor="middle">2026-03-10 02</text>
  <line x1="221.30" y1="350" x2="221.30" y2="356" stroke="#9ca3af" stroke-width="1"/>
  <text x="221.30" y="372" font-size="10" fill="#6b7280" text-anchor="middle">2026-03-13 05</text>
  <line x1="296.95" y1="350" x2="296.95" y2="356" stroke="#9ca3af" stroke-width="1"/>
  <text x="296.95" y="372" font-size="10" fill="#6b7280" text-anchor="middle">2026-03-17 04</text>
  <line x1="372.60" y1="350" x2="372.60" y2="356" stroke="#9ca3af" stroke-width="1"/>
  <text x="372.60" y="372" font-size="10" fill="#6b7280" text-anchor="middle">2026-03-21 13</text>
  <line x1="448.25" y1="350" x2="448.25" y2="356" stroke="#9ca3af" stroke-width="1"/>
  <text x="448.25" y="372" font-size="10" fill="#6b7280" text-anchor="middle">2026-03-25 20</text>
  <line x1="523.90" y1="350" x2="523.90" y2="356" stroke="#9ca3af" stroke-width="1"/>
  <text x="523.90" y="372" font-size="10" fill="#6b7280" text-anchor="middle">2026-03-30 14</text>
  <line x1="599.55" y1="350" x2="599.55" y2="356" stroke="#9ca3af" stroke-width="1"/>
  <text x="599.55" y="372" font-size="10" fill="#6b7280" text-anchor="middle">2026-04-04 05</text>
  <line x1="675.20" y1="350" x2="675.20" y2="356" stroke="#9ca3af" stroke-width="1"/>
  <text x="675.20" y="372" font-size="10" fill="#6b7280" text-anchor="middle">2026-04-09 02</text>
  <line x1="750.86" y1="350" x2="750.86" y2="356" stroke="#9ca3af" stroke-width="1"/>
  <text x="750.86" y="372" font-size="10" fill="#6b7280" text-anchor="middle">2026-04-14 00</text>
  <line x1="826.51" y1="350" x2="826.51" y2="356" stroke="#9ca3af" stroke-width="1"/>
  <text x="826.51" y="372" font-size="10" fill="#6b7280" text-anchor="middle">2026-04-19 02</text>
  <line x1="902.16" y1="350" x2="902.16" y2="356" stroke="#9ca3af" stroke-width="1"/>
  <text x="902.16" y="372" font-size="10" fill="#6b7280" text-anchor="middle">2026-04-24 01</text>
  <line x1="977.81" y1="350" x2="977.81" y2="356" stroke="#9ca3af" stroke-width="1"/>
  <text x="977.81" y="372" font-size="10" fill="#6b7280" text-anchor="middle">2026-04-28 22</text>
  <line x1="980.00" y1="350" x2="980.00" y2="356" stroke="#9ca3af" stroke-width="1"/>
  <text x="980.00" y="372" font-size="10" fill="#6b7280" text-anchor="middle">2026-04-29 03</text>
  <polyline fill="none" stroke="#2563eb" stroke-width="2.5" points="70.00,50.00 71.10,50.12 72.19,50.17 73.29,50.46 74.39,50.00 75.48,266.90 76.58,50.12 77.67,50.08 78.77,177.46 79.87,211.58 80.96,175.34 82.06,304.14 83.16,200.46 84.25,250.94 85.35,300.01 86.45,300.06 87.54,300.01 88.64,300.01 89.73,348.00 90.83,300.01 91.93,249.99 93.02,200.00 94.12,249.99 95.22,249.99 96.31,250.03 97.41,250.03 98.51,250.03 99.60,250.40 100.70,250.90 101.80,250.90 102.89,251.32 103.99,249.94 105.08,300.01 106.18,299.93 107.28,251.03 108.37,300.68 109.47,250.03 110.57,200.00 111.66,249.99 112.76,250.03 113.86,250.03 114.95,250.03 116.05,300.01 117.14,200.04 118.24,250.03 119.34,250.03 120.43,250.03 121.53,249.90 122.63,250.03 123.72,250.03 124.82,250.94 125.92,250.44 127.01,250.03 128.11,250.03 129.20,300.47 130.30,300.01 131.40,300.43 132.49,250.03 133.59,249.99 134.69,300.43 135.78,249.90 136.88,249.99 137.98,249.99 139.07,200.04 140.17,300.01 141.27,300.01 142.36,300.01 143.46,249.90 144.55,300.01 145.65,250.03 146.75,249.99 147.84,199.96 148.94,300.01 150.04,200.00 151.13,250.36 152.23,250.03 153.33,300.01 154.42,300.01 155.52,250.44 156.61,300.01 157.71,250.03 158.81,250.03 159.90,249.99 161.00,250.49 162.10,250.03 163.19,200.04 164.29,300.01 165.39,250.03 166.48,300.01 167.58,250.11 168.67,300.01 169.77,250.03 170.87,250.03 171.96,199.92 173.06,250.03 174.16,250.03 175.25,250.03 176.35,254.36 177.45,300.01 178.54,299.97 179.64,250.36 180.73,299.97 181.83,250.03 182.93,250.03 184.02,250.03 185.12,250.03 186.22,249.99 187.31,200.00 188.41,299.93 189.51,300.01 190.60,299.97 191.70,249.94 192.80,249.99 193.89,249.82 194.99,249.94 196.08,250.28 197.18,207.00 198.28,250.03 199.37,250.32 200.47,250.40 201.57,300.93 202.66,300.01 203.76,300.10 204.86,249.94 205.95,249.99 207.05,250.07 208.14,249.99 209.24,250.03 210.34,249.94 211.43,200.00 212.53,300.39 213.63,300.01 214.72,300.01 215.82,250.44 216.92,300.39 218.01,249.86 219.11,250.11 220.20,201.46 221.30,300.01 222.40,200.83 223.49,250.03 224.59,249.99 225.69,300.26 226.78,300.01 227.88,300.01 228.98,250.03 230.07,250.03 231.17,250.03 232.27,250.03 233.36,249.99 234.46,250.03 235.55,200.00 236.65,300.26 237.75,249.99 238.84,300.01 239.94,249.94 241.04,250.03 242.13,250.03 243.23,250.03 244.33,200.04 245.42,300.01 246.52,249.90 247.61,300.01 248.71,300.01 249.81,300.06 250.90,300.01 252.00,300.01 253.10,243.95 254.19,249.94 255.29,299.97 256.39,300.01 257.48,300.01 258.58,250.03 259.67,300.01 260.77,300.01 261.87,299.97 262.96,249.99 264.06,300.01 265.16,299.93 266.25,300.01 267.35,299.93 268.45,300.01 269.54,300.01 270.64,299.89 271.73,299.97 272.83,250.03 273.93,299.93 275.02,299.89 276.12,299.97 277.22,249.94 278.31,300.01 279.41,300.01 280.51,299.97 281.60,249.99 282.70,299.97 283.80,299.97 284.89,300.06 285.99,300.06 287.08,299.93 288.18,300.01 289.28,300.01 290.37,299.93 291.47,300.01 292.57,300.01 293.66,299.97 294.76,300.01 295.86,300.01 296.95,300.01 298.05,300.01 299.14,249.86 300.24,300.01 301.34,300.10 302.43,299.93 303.53,300.01 304.63,299.93 305.72,300.01 306.82,300.01 307.92,300.01 309.01,300.01 310.11,300.01 311.20,299.97 312.30,300.01 313.40,300.01 314.49,300.01 315.59,300.01 316.69,250.03 317.78,300.01 318.88,300.01 319.98,299.97 321.07,300.01 322.17,300.01 323.27,299.97 324.36,299.97 325.46,300.01 326.55,299.97 327.65,300.01 328.75,299.93 329.84,300.01 330.94,250.03 332.04,300.01 333.13,300.01 334.23,300.01 335.33,300.01 336.42,300.01 337.52,299.89 338.61,300.01 339.71,300.01 340.81,250.07 341.90,300.01 343.00,299.93 344.10,300.01 345.19,299.97 346.29,299.97 347.39,299.97 348.48,250.03 349.58,300.01 350.67,300.01 351.77,300.01 352.87,300.01 353.96,299.97 355.06,300.01 356.16,299.97 357.25,300.01 358.35,299.97 359.45,249.90 360.54,300.01 361.64,300.01 362.73,299.89 363.83,299.97 364.93,299.97 366.02,249.99 367.12,299.97 368.22,299.89 369.31,300.01 370.41,299.97 371.51,299.97 372.60,300.01 373.70,299.97 374.80,249.99 375.89,299.97 376.99,299.97 378.08,300.06 379.18,300.06 380.28,249.94 381.37,300.01 382.47,299.93 383.57,300.01 384.66,300.01 385.76,249.99 386.86,300.01 387.95,300.01 389.05,300.01 390.14,299.93 391.24,299.93 392.34,300.01 393.43,300.01 394.53,249.94 395.63,299.97 396.72,299.97 397.82,300.01 398.92,300.01 400.01,300.01 401.11,249.99 402.20,300.01 403.30,300.01 404.40,300.01 405.49,250.03 406.59,300.01 407.69,300.01 408.78,300.01 409.88,299.97 410.98,300.01 412.07,300.01 413.17,299.97 414.27,299.97 415.36,300.01 416.46,300.01 417.55,299.97 418.65,299.93 419.75,300.01 420.84,300.06 421.94,299.97 423.04,300.01 424.13,250.03 425.23,250.03 426.33,299.93 427.42,299.97 428.52,300.01 429.61,300.01 430.71,300.06 431.81,300.01 432.90,299.93 434.00,300.01 435.10,300.01 436.19,299.97 437.29,299.97 438.39,300.01 439.48,250.03 440.58,300.01 441.67,300.01 442.77,300.01 443.87,299.97 444.96,300.01 446.06,299.97 447.16,300.01 448.25,299.97 449.35,299.97 450.45,299.93 451.54,300.01 452.64,300.01 453.73,299.89 454.83,299.97 455.93,299.97 457.02,300.06 458.12,249.90 459.22,299.89 460.31,300.01 461.41,299.97 462.51,299.97 463.60,299.97 464.70,300.01 465.80,300.01 466.89,299.97 467.99,299.97 469.08,299.97 470.18,250.03 471.28,299.93 472.37,300.01 473.47,300.01 474.57,299.93 475.66,300.01 476.76,300.01 477.86,299.97 478.95,300.01 480.05,300.01 481.14,300.06 482.24,300.01 483.34,299.97 484.43,299.89 485.53,300.01 486.63,300.01 487.72,249.94 488.82,249.94 489.92,300.01 491.01,300.01 492.11,300.01 493.20,300.01 494.30,299.97 495.40,250.03 496.49,300.01 497.59,300.01 498.69,300.01 499.78,300.01 500.88,250.03 501.98,249.99 503.07,300.01 504.17,299.97 505.27,300.01 506.36,299.97 507.46,300.01 508.55,299.97 509.65,299.97 510.75,299.97 511.84,300.06 512.94,249.99 514.04,300.01 515.13,250.03 516.23,249.94 517.33,249.99 518.42,300.01 519.52,300.06 520.61,300.01 521.71,299.97 522.81,299.97 523.90,300.01 525.00,299.93 526.10,299.89 527.19,299.89 528.29,299.89 529.39,299.89 530.48,299.85 531.58,299.85 532.67,299.89 533.77,299.81 534.87,299.81 535.96,299.81 537.06,299.76 538.16,299.76 539.25,299.76 540.35,299.72 541.45,299.68 542.54,299.60 543.64,299.60 544.73,299.60 545.83,299.56 546.93,299.47 548.02,299.43 549.12,299.43 550.22,299.39 551.31,299.47 552.41,259.82 553.51,338.96 554.60,299.31 555.70,299.31 556.80,299.26 557.89,299.68 558.99,299.68 560.08,299.68 561.18,299.64 562.28,299.14 563.37,299.14 564.47,299.10 565.57,299.10 566.66,299.10 567.76,248.07 568.86,299.06 569.95,299.06 571.05,299.06 572.14,299.06 573.24,299.06 574.34,298.97 575.43,298.97 576.53,298.93 577.63,298.97 578.72,298.93 579.82,298.89 580.92,298.89 582.01,298.89 583.11,298.89 584.20,247.78 585.30,298.89 586.40,298.89 587.49,298.85 588.59,298.85 589.69,298.81 590.78,298.81 591.88,298.81 592.98,298.81 594.07,298.81 595.17,298.81 596.27,298.81 597.36,298.81 598.46,298.81 599.55,298.72 600.65,247.45 601.75,247.45 602.84,298.72 603.94,298.72 605.04,298.72 606.13,298.72 607.23,298.72 608.33,298.72 609.42,247.36 610.52,298.68 611.61,247.36 612.71,247.36 613.81,247.36 614.90,298.68 616.00,298.68 617.10,298.68 618.19,298.68 619.29,298.68 620.39,341.67 621.48,307.01 622.58,298.68 623.67,298.68 624.77,298.68 625.87,247.36 626.96,298.64 628.06,247.36 629.16,247.28 630.25,247.20 631.35,298.60 632.45,298.60 633.54,247.03 634.64,298.51 635.73,298.51 636.83,298.51 637.93,298.51 639.02,298.51 640.12,298.51 641.22,298.51 642.31,298.51 643.41,298.51 644.51,298.51 645.60,298.51 646.70,298.51 647.80,298.51 648.89,298.51 649.99,298.51 651.08,298.51 652.18,298.51 653.28,298.51 654.37,298.51 655.47,298.51 656.57,298.51 657.66,298.51 658.76,298.51 659.86,298.51 660.95,298.51 662.05,298.51 663.14,298.47 664.24,298.51 665.34,298.51 666.43,298.47 667.53,298.51 668.63,298.47 669.72,298.51 670.82,298.43 671.92,298.56 673.01,298.43 674.11,298.43 675.20,298.43 676.30,298.43 677.40,298.43 678.49,298.43 679.59,298.43 680.69,298.43 681.78,298.43 682.88,298.43 683.98,298.43 685.07,298.43 686.17,298.43 687.27,298.43 688.36,298.43 689.46,298.43 690.55,298.43 691.65,298.43 692.75,298.43 693.84,298.43 694.94,298.43 696.04,298.43 697.13,298.43 698.23,298.43 699.33,298.43 700.42,298.43 701.52,298.43 702.61,298.43 703.71,298.43 704.81,298.43 705.90,298.43 707.00,298.43 708.10,298.43 709.19,298.43 710.29,298.39 711.39,298.39 712.48,298.43 713.58,298.43 714.67,298.39 715.77,298.39 716.87,298.39 717.96,298.43 719.06,298.43 720.16,298.43 721.25,246.82 722.35,298.43 723.45,246.78 724.54,246.78 725.64,246.78 726.73,246.70 727.83,246.78 728.93,298.39 730.02,298.39 731.12,298.39 732.22,298.39 733.31,298.39 734.41,246.78 735.51,298.39 736.60,298.39 737.70,298.39 738.80,298.39 739.89,298.39 740.99,246.78 742.08,246.78 743.18,298.39 744.28,298.39 745.37,298.39 746.47,298.39 747.57,298.39 748.66,298.39 749.76,298.39 750.86,298.39 751.95,298.39 753.05,298.39 754.14,298.39 755.24,298.39 756.34,298.39 757.43,298.39 758.53,298.35 759.63,298.39 760.72,298.39 761.82,298.35 762.92,298.35 764.01,298.35 765.11,298.35 766.20,298.35 767.30,298.35 768.40,298.35 769.49,298.35 770.59,298.35 771.69,298.35 772.78,298.35 773.88,298.35 774.98,298.35 776.07,298.35 777.17,298.35 778.27,298.35 779.36,298.35 780.46,298.35 781.55,298.35 782.65,298.35 783.75,298.35 784.84,298.35 785.94,298.35 787.04,298.35 788.13,298.35 789.23,298.35 790.33,298.35 791.42,298.35 792.52,298.35 793.61,298.35 794.71,298.35 795.81,298.35 796.90,298.35 798.00,298.35 799.10,298.35 800.19,298.35 801.29,298.35 802.39,298.35 803.48,298.35 804.58,298.35 805.67,298.35 806.77,298.35 807.87,298.35 808.96,298.35 810.06,298.35 811.16,298.35 812.25,298.35 813.35,298.35 814.45,298.35 815.54,298.35 816.64,298.35 817.73,298.35 818.83,298.39 819.93,298.39 821.02,298.39 822.12,246.78 823.22,298.39 824.31,298.39 825.41,298.39 826.51,298.39 827.60,298.39 828.70,298.39 829.80,298.39 830.89,246.78 831.99,298.39 833.08,298.39 834.18,298.39 835.28,298.39 836.37,298.39 837.47,298.39 838.57,298.39 839.66,246.78 840.76,298.39 841.86,298.39 842.95,298.39 844.05,298.39 845.14,298.39 846.24,298.39 847.34,298.39 848.43,298.39 849.53,298.39 850.63,298.39 851.72,298.39 852.82,298.35 853.92,298.39 855.01,298.39 856.11,298.39 857.20,298.35 858.30,298.35 859.40,298.35 860.49,298.35 861.59,298.35 862.69,298.35 863.78,298.35 864.88,298.35 865.98,298.35 867.07,298.35 868.17,298.35 869.27,298.35 870.36,298.35 871.46,298.35 872.55,298.35 873.65,298.35 874.75,298.39 875.84,298.39 876.94,298.39 878.04,298.39 879.13,298.39 880.23,298.39 881.33,298.35 882.42,298.39 883.52,298.39 884.61,298.39 885.71,298.39 886.81,298.39 887.90,298.39 889.00,298.39 890.10,298.39 891.19,298.39 892.29,298.35 893.39,298.39 894.48,298.39 895.58,298.39 896.67,298.39 897.77,298.39 898.87,298.39 899.96,298.39 901.06,298.39 902.16,298.39 903.25,298.39 904.35,298.39 905.45,298.39 906.54,298.39 907.64,298.39 908.73,298.39 909.83,298.39 910.93,298.35 912.02,298.35 913.12,298.39 914.22,298.39 915.31,298.39 916.41,298.39 917.51,298.39 918.60,298.39 919.70,298.39 920.80,298.39 921.89,298.39 922.99,298.39 924.08,298.35 925.18,298.35 926.28,298.39 927.37,298.39 928.47,298.39 929.57,298.39 930.66,298.39 931.76,298.39 932.86,298.39 933.95,298.39 935.05,298.39 936.14,298.39 937.24,298.39 938.34,298.39 939.43,298.39 940.53,298.39 941.63,298.35 942.72,298.39 943.82,298.39 944.92,298.39 946.01,298.39 947.11,298.39 948.20,298.39 949.30,298.39 950.40,298.39 951.49,298.35 952.59,298.35 953.69,298.39 954.78,298.35 955.88,298.39 956.98,298.39 958.07,298.39 959.17,298.39 960.27,298.39 961.36,298.35 962.46,298.39 963.55,298.39 964.65,298.35 965.75,298.39 966.84,298.35 967.94,298.39 969.04,298.39 970.13,298.35 971.23,298.39 972.33,298.35 973.42,298.39 974.52,298.39 975.61,298.35 976.71,298.39 977.81,298.39 978.90,298.39 980.00,298.39"/>
  <circle cx="70.00" cy="50.00" r="2.5" fill="#2563eb"/>
  <circle cx="71.10" cy="50.12" r="2.5" fill="#2563eb"/>
  <circle cx="72.19" cy="50.17" r="2.5" fill="#2563eb"/>
  <circle cx="73.29" cy="50.46" r="2.5" fill="#2563eb"/>
  <circle cx="74.39" cy="50.00" r="2.5" fill="#2563eb"/>
  <circle cx="75.48" cy="266.90" r="2.5" fill="#2563eb"/>
  <circle cx="76.58" cy="50.12" r="2.5" fill="#2563eb"/>
  <circle cx="77.67" cy="50.08" r="2.5" fill="#2563eb"/>
  <circle cx="78.77" cy="177.46" r="2.5" fill="#2563eb"/>
  <circle cx="79.87" cy="211.58" r="2.5" fill="#2563eb"/>
  <circle cx="80.96" cy="175.34" r="2.5" fill="#2563eb"/>
  <circle cx="82.06" cy="304.14" r="2.5" fill="#2563eb"/>
  <circle cx="83.16" cy="200.46" r="2.5" fill="#2563eb"/>
  <circle cx="84.25" cy="250.94" r="2.5" fill="#2563eb"/>
  <circle cx="85.35" cy="300.01" r="2.5" fill="#2563eb"/>
  <circle cx="86.45" cy="300.06" r="2.5" fill="#2563eb"/>
  <circle cx="87.54" cy="300.01" r="2.5" fill="#2563eb"/>
  <circle cx="88.64" cy="300.01" r="2.5" fill="#2563eb"/>
  <circle cx="89.73" cy="348.00" r="2.5" fill="#2563eb"/>
  <circle cx="90.83" cy="300.01" r="2.5" fill="#2563eb"/>
  <circle cx="91.93" cy="249.99" r="2.5" fill="#2563eb"/>
  <circle cx="93.02" cy="200.00" r="2.5" fill="#2563eb"/>
  <circle cx="94.12" cy="249.99" r="2.5" fill="#2563eb"/>
  <circle cx="95.22" cy="249.99" r="2.5" fill="#2563eb"/>
  <circle cx="96.31" cy="250.03" r="2.5" fill="#2563eb"/>
  <circle cx="97.41" cy="250.03" r="2.5" fill="#2563eb"/>
  <circle cx="98.51" cy="250.03" r="2.5" fill="#2563eb"/>
  <circle cx="99.60" cy="250.40" r="2.5" fill="#2563eb"/>
  <circle cx="100.70" cy="250.90" r="2.5" fill="#2563eb"/>
  <circle cx="101.80" cy="250.90" r="2.5" fill="#2563eb"/>
  <circle cx="102.89" cy="251.32" r="2.5" fill="#2563eb"/>
  <circle cx="103.99" cy="249.94" r="2.5" fill="#2563eb"/>
  <circle cx="105.08" cy="300.01" r="2.5" fill="#2563eb"/>
  <circle cx="106.18" cy="299.93" r="2.5" fill="#2563eb"/>
  <circle cx="107.28" cy="251.03" r="2.5" fill="#2563eb"/>
  <circle cx="108.37" cy="300.68" r="2.5" fill="#2563eb"/>
  <circle cx="109.47" cy="250.03" r="2.5" fill="#2563eb"/>
  <circle cx="110.57" cy="200.00" r="2.5" fill="#2563eb"/>
  <circle cx="111.66" cy="249.99" r="2.5" fill="#2563eb"/>
  <circle cx="112.76" cy="250.03" r="2.5" fill="#2563eb"/>
  <circle cx="113.86" cy="250.03" r="2.5" fill="#2563eb"/>
  <circle cx="114.95" cy="250.03" r="2.5" fill="#2563eb"/>
  <circle cx="116.05" cy="300.01" r="2.5" fill="#2563eb"/>
  <circle cx="117.14" cy="200.04" r="2.5" fill="#2563eb"/>
  <circle cx="118.24" cy="250.03" r="2.5" fill="#2563eb"/>
  <circle cx="119.34" cy="250.03" r="2.5" fill="#2563eb"/>
  <circle cx="120.43" cy="250.03" r="2.5" fill="#2563eb"/>
  <circle cx="121.53" cy="249.90" r="2.5" fill="#2563eb"/>
  <circle cx="122.63" cy="250.03" r="2.5" fill="#2563eb"/>
  <circle cx="123.72" cy="250.03" r="2.5" fill="#2563eb"/>
  <circle cx="124.82" cy="250.94" r="2.5" fill="#2563eb"/>
  <circle cx="125.92" cy="250.44" r="2.5" fill="#2563eb"/>
  <circle cx="127.01" cy="250.03" r="2.5" fill="#2563eb"/>
  <circle cx="128.11" cy="250.03" r="2.5" fill="#2563eb"/>
  <circle cx="129.20" cy="300.47" r="2.5" fill="#2563eb"/>
  <circle cx="130.30" cy="300.01" r="2.5" fill="#2563eb"/>
  <circle cx="131.40" cy="300.43" r="2.5" fill="#2563eb"/>
  <circle cx="132.49" cy="250.03" r="2.5" fill="#2563eb"/>
  <circle cx="133.59" cy="249.99" r="2.5" fill="#2563eb"/>
  <circle cx="134.69" cy="300.43" r="2.5" fill="#2563eb"/>
  <circle cx="135.78" cy="249.90" r="2.5" fill="#2563eb"/>
  <circle cx="136.88" cy="249.99" r="2.5" fill="#2563eb"/>
  <circle cx="137.98" cy="249.99" r="2.5" fill="#2563eb"/>
  <circle cx="139.07" cy="200.04" r="2.5" fill="#2563eb"/>
  <circle cx="140.17" cy="300.01" r="2.5" fill="#2563eb"/>
  <circle cx="141.27" cy="300.01" r="2.5" fill="#2563eb"/>
  <circle cx="142.36" cy="300.01" r="2.5" fill="#2563eb"/>
  <circle cx="143.46" cy="249.90" r="2.5" fill="#2563eb"/>
  <circle cx="144.55" cy="300.01" r="2.5" fill="#2563eb"/>
  <circle cx="145.65" cy="250.03" r="2.5" fill="#2563eb"/>
  <circle cx="146.75" cy="249.99" r="2.5" fill="#2563eb"/>
  <circle cx="147.84" cy="199.96" r="2.5" fill="#2563eb"/>
  <circle cx="148.94" cy="300.01" r="2.5" fill="#2563eb"/>
  <circle cx="150.04" cy="200.00" r="2.5" fill="#2563eb"/>
  <circle cx="151.13" cy="250.36" r="2.5" fill="#2563eb"/>
  <circle cx="152.23" cy="250.03" r="2.5" fill="#2563eb"/>
  <circle cx="153.33" cy="300.01" r="2.5" fill="#2563eb"/>
  <circle cx="154.42" cy="300.01" r="2.5" fill="#2563eb"/>
  <circle cx="155.52" cy="250.44" r="2.5" fill="#2563eb"/>
  <circle cx="156.61" cy="300.01" r="2.5" fill="#2563eb"/>
  <circle cx="157.71" cy="250.03" r="2.5" fill="#2563eb"/>
  <circle cx="158.81" cy="250.03" r="2.5" fill="#2563eb"/>
  <circle cx="159.90" cy="249.99" r="2.5" fill="#2563eb"/>
  <circle cx="161.00" cy="250.49" r="2.5" fill="#2563eb"/>
  <circle cx="162.10" cy="250.03" r="2.5" fill="#2563eb"/>
  <circle cx="163.19" cy="200.04" r="2.5" fill="#2563eb"/>
  <circle cx="164.29" cy="300.01" r="2.5" fill="#2563eb"/>
  <circle cx="165.39" cy="250.03" r="2.5" fill="#2563eb"/>
  <circle cx="166.48" cy="300.01" r="2.5" fill="#2563eb"/>
  <circle cx="167.58" cy="250.11" r="2.5" fill="#2563eb"/>
  <circle cx="168.67" cy="300.01" r="2.5" fill="#2563eb"/>
  <circle cx="169.77" cy="250.03" r="2.5" fill="#2563eb"/>
  <circle cx="170.87" cy="250.03" r="2.5" fill="#2563eb"/>
  <circle cx="171.96" cy="199.92" r="2.5" fill="#2563eb"/>
  <circle cx="173.06" cy="250.03" r="2.5" fill="#2563eb"/>
  <circle cx="174.16" cy="250.03" r="2.5" fill="#2563eb"/>
  <circle cx="175.25" cy="250.03" r="2.5" fill="#2563eb"/>
  <circle cx="176.35" cy="254.36" r="2.5" fill="#2563eb"/>
  <circle cx="177.45" cy="300.01" r="2.5" fill="#2563eb"/>
  <circle cx="178.54" cy="299.97" r="2.5" fill="#2563eb"/>
  <circle cx="179.64" cy="250.36" r="2.5" fill="#2563eb"/>
  <circle cx="180.73" cy="299.97" r="2.5" fill="#2563eb"/>
  <circle cx="181.83" cy="250.03" r="2.5" fill="#2563eb"/>
  <circle cx="182.93" cy="250.03" r="2.5" fill="#2563eb"/>
  <circle cx="184.02" cy="250.03" r="2.5" fill="#2563eb"/>
  <circle cx="185.12" cy="250.03" r="2.5" fill="#2563eb"/>
  <circle cx="186.22" cy="249.99" r="2.5" fill="#2563eb"/>
  <circle cx="187.31" cy="200.00" r="2.5" fill="#2563eb"/>
  <circle cx="188.41" cy="299.93" r="2.5" fill="#2563eb"/>
  <circle cx="189.51" cy="300.01" r="2.5" fill="#2563eb"/>
  <circle cx="190.60" cy="299.97" r="2.5" fill="#2563eb"/>
  <circle cx="191.70" cy="249.94" r="2.5" fill="#2563eb"/>
  <circle cx="192.80" cy="249.99" r="2.5" fill="#2563eb"/>
  <circle cx="193.89" cy="249.82" r="2.5" fill="#2563eb"/>
  <circle cx="194.99" cy="249.94" r="2.5" fill="#2563eb"/>
  <circle cx="196.08" cy="250.28" r="2.5" fill="#2563eb"/>
  <circle cx="197.18" cy="207.00" r="2.5" fill="#2563eb"/>
  <circle cx="198.28" cy="250.03" r="2.5" fill="#2563eb"/>
  <circle cx="199.37" cy="250.32" r="2.5" fill="#2563eb"/>
  <circle cx="200.47" cy="250.40" r="2.5" fill="#2563eb"/>
  <circle cx="201.57" cy="300.93" r="2.5" fill="#2563eb"/>
  <circle cx="202.66" cy="300.01" r="2.5" fill="#2563eb"/>
  <circle cx="203.76" cy="300.10" r="2.5" fill="#2563eb"/>
  <circle cx="204.86" cy="249.94" r="2.5" fill="#2563eb"/>
  <circle cx="205.95" cy="249.99" r="2.5" fill="#2563eb"/>
  <circle cx="207.05" cy="250.07" r="2.5" fill="#2563eb"/>
  <circle cx="208.14" cy="249.99" r="2.5" fill="#2563eb"/>
  <circle cx="209.24" cy="250.03" r="2.5" fill="#2563eb"/>
  <circle cx="210.34" cy="249.94" r="2.5" fill="#2563eb"/>
  <circle cx="211.43" cy="200.00" r="2.5" fill="#2563eb"/>
  <circle cx="212.53" cy="300.39" r="2.5" fill="#2563eb"/>
  <circle cx="213.63" cy="300.01" r="2.5" fill="#2563eb"/>
  <circle cx="214.72" cy="300.01" r="2.5" fill="#2563eb"/>
  <circle cx="215.82" cy="250.44" r="2.5" fill="#2563eb"/>
  <circle cx="216.92" cy="300.39" r="2.5" fill="#2563eb"/>
  <circle cx="218.01" cy="249.86" r="2.5" fill="#2563eb"/>
  <circle cx="219.11" cy="250.11" r="2.5" fill="#2563eb"/>
  <circle cx="220.20" cy="201.46" r="2.5" fill="#2563eb"/>
  <circle cx="221.30" cy="300.01" r="2.5" fill="#2563eb"/>
  <circle cx="222.40" cy="200.83" r="2.5" fill="#2563eb"/>
  <circle cx="223.49" cy="250.03" r="2.5" fill="#2563eb"/>
  <circle cx="224.59" cy="249.99" r="2.5" fill="#2563eb"/>
  <circle cx="225.69" cy="300.26" r="2.5" fill="#2563eb"/>
  <circle cx="226.78" cy="300.01" r="2.5" fill="#2563eb"/>
  <circle cx="227.88" cy="300.01" r="2.5" fill="#2563eb"/>
  <circle cx="228.98" cy="250.03" r="2.5" fill="#2563eb"/>
  <circle cx="230.07" cy="250.03" r="2.5" fill="#2563eb"/>
  <circle cx="231.17" cy="250.03" r="2.5" fill="#2563eb"/>
  <circle cx="232.27" cy="250.03" r="2.5" fill="#2563eb"/>
  <circle cx="233.36" cy="249.99" r="2.5" fill="#2563eb"/>
  <circle cx="234.46" cy="250.03" r="2.5" fill="#2563eb"/>
  <circle cx="235.55" cy="200.00" r="2.5" fill="#2563eb"/>
  <circle cx="236.65" cy="300.26" r="2.5" fill="#2563eb"/>
  <circle cx="237.75" cy="249.99" r="2.5" fill="#2563eb"/>
  <circle cx="238.84" cy="300.01" r="2.5" fill="#2563eb"/>
  <circle cx="239.94" cy="249.94" r="2.5" fill="#2563eb"/>
  <circle cx="241.04" cy="250.03" r="2.5" fill="#2563eb"/>
  <circle cx="242.13" cy="250.03" r="2.5" fill="#2563eb"/>
  <circle cx="243.23" cy="250.03" r="2.5" fill="#2563eb"/>
  <circle cx="244.33" cy="200.04" r="2.5" fill="#2563eb"/>
  <circle cx="245.42" cy="300.01" r="2.5" fill="#2563eb"/>
  <circle cx="246.52" cy="249.90" r="2.5" fill="#2563eb"/>
  <circle cx="247.61" cy="300.01" r="2.5" fill="#2563eb"/>
  <circle cx="248.71" cy="300.01" r="2.5" fill="#2563eb"/>
  <circle cx="249.81" cy="300.06" r="2.5" fill="#2563eb"/>
  <circle cx="250.90" cy="300.01" r="2.5" fill="#2563eb"/>
  <circle cx="252.00" cy="300.01" r="2.5" fill="#2563eb"/>
  <circle cx="253.10" cy="243.95" r="2.5" fill="#2563eb"/>
  <circle cx="254.19" cy="249.94" r="2.5" fill="#2563eb"/>
  <circle cx="255.29" cy="299.97" r="2.5" fill="#2563eb"/>
  <circle cx="256.39" cy="300.01" r="2.5" fill="#2563eb"/>
  <circle cx="257.48" cy="300.01" r="2.5" fill="#2563eb"/>
  <circle cx="258.58" cy="250.03" r="2.5" fill="#2563eb"/>
  <circle cx="259.67" cy="300.01" r="2.5" fill="#2563eb"/>
  <circle cx="260.77" cy="300.01" r="2.5" fill="#2563eb"/>
  <circle cx="261.87" cy="299.97" r="2.5" fill="#2563eb"/>
  <circle cx="262.96" cy="249.99" r="2.5" fill="#2563eb"/>
  <circle cx="264.06" cy="300.01" r="2.5" fill="#2563eb"/>
  <circle cx="265.16" cy="299.93" r="2.5" fill="#2563eb"/>
  <circle cx="266.25" cy="300.01" r="2.5" fill="#2563eb"/>
  <circle cx="267.35" cy="299.93" r="2.5" fill="#2563eb"/>
  <circle cx="268.45" cy="300.01" r="2.5" fill="#2563eb"/>
  <circle cx="269.54" cy="300.01" r="2.5" fill="#2563eb"/>
  <circle cx="270.64" cy="299.89" r="2.5" fill="#2563eb"/>
  <circle cx="271.73" cy="299.97" r="2.5" fill="#2563eb"/>
  <circle cx="272.83" cy="250.03" r="2.5" fill="#2563eb"/>
  <circle cx="273.93" cy="299.93" r="2.5" fill="#2563eb"/>
  <circle cx="275.02" cy="299.89" r="2.5" fill="#2563eb"/>
  <circle cx="276.12" cy="299.97" r="2.5" fill="#2563eb"/>
  <circle cx="277.22" cy="249.94" r="2.5" fill="#2563eb"/>
  <circle cx="278.31" cy="300.01" r="2.5" fill="#2563eb"/>
  <circle cx="279.41" cy="300.01" r="2.5" fill="#2563eb"/>
  <circle cx="280.51" cy="299.97" r="2.5" fill="#2563eb"/>
  <circle cx="281.60" cy="249.99" r="2.5" fill="#2563eb"/>
  <circle cx="282.70" cy="299.97" r="2.5" fill="#2563eb"/>
  <circle cx="283.80" cy="299.97" r="2.5" fill="#2563eb"/>
  <circle cx="284.89" cy="300.06" r="2.5" fill="#2563eb"/>
  <circle cx="285.99" cy="300.06" r="2.5" fill="#2563eb"/>
  <circle cx="287.08" cy="299.93" r="2.5" fill="#2563eb"/>
  <circle cx="288.18" cy="300.01" r="2.5" fill="#2563eb"/>
  <circle cx="289.28" cy="300.01" r="2.5" fill="#2563eb"/>
  <circle cx="290.37" cy="299.93" r="2.5" fill="#2563eb"/>
  <circle cx="291.47" cy="300.01" r="2.5" fill="#2563eb"/>
  <circle cx="292.57" cy="300.01" r="2.5" fill="#2563eb"/>
  <circle cx="293.66" cy="299.97" r="2.5" fill="#2563eb"/>
  <circle cx="294.76" cy="300.01" r="2.5" fill="#2563eb"/>
  <circle cx="295.86" cy="300.01" r="2.5" fill="#2563eb"/>
  <circle cx="296.95" cy="300.01" r="2.5" fill="#2563eb"/>
  <circle cx="298.05" cy="300.01" r="2.5" fill="#2563eb"/>
  <circle cx="299.14" cy="249.86" r="2.5" fill="#2563eb"/>
  <circle cx="300.24" cy="300.01" r="2.5" fill="#2563eb"/>
  <circle cx="301.34" cy="300.10" r="2.5" fill="#2563eb"/>
  <circle cx="302.43" cy="299.93" r="2.5" fill="#2563eb"/>
  <circle cx="303.53" cy="300.01" r="2.5" fill="#2563eb"/>
  <circle cx="304.63" cy="299.93" r="2.5" fill="#2563eb"/>
  <circle cx="305.72" cy="300.01" r="2.5" fill="#2563eb"/>
  <circle cx="306.82" cy="300.01" r="2.5" fill="#2563eb"/>
  <circle cx="307.92" cy="300.01" r="2.5" fill="#2563eb"/>
  <circle cx="309.01" cy="300.01" r="2.5" fill="#2563eb"/>
  <circle cx="310.11" cy="300.01" r="2.5" fill="#2563eb"/>
  <circle cx="311.20" cy="299.97" r="2.5" fill="#2563eb"/>
  <circle cx="312.30" cy="300.01" r="2.5" fill="#2563eb"/>
  <circle cx="313.40" cy="300.01" r="2.5" fill="#2563eb"/>
  <circle cx="314.49" cy="300.01" r="2.5" fill="#2563eb"/>
  <circle cx="315.59" cy="300.01" r="2.5" fill="#2563eb"/>
  <circle cx="316.69" cy="250.03" r="2.5" fill="#2563eb"/>
  <circle cx="317.78" cy="300.01" r="2.5" fill="#2563eb"/>
  <circle cx="318.88" cy="300.01" r="2.5" fill="#2563eb"/>
  <circle cx="319.98" cy="299.97" r="2.5" fill="#2563eb"/>
  <circle cx="321.07" cy="300.01" r="2.5" fill="#2563eb"/>
  <circle cx="322.17" cy="300.01" r="2.5" fill="#2563eb"/>
  <circle cx="323.27" cy="299.97" r="2.5" fill="#2563eb"/>
  <circle cx="324.36" cy="299.97" r="2.5" fill="#2563eb"/>
  <circle cx="325.46" cy="300.01" r="2.5" fill="#2563eb"/>
  <circle cx="326.55" cy="299.97" r="2.5" fill="#2563eb"/>
  <circle cx="327.65" cy="300.01" r="2.5" fill="#2563eb"/>
  <circle cx="328.75" cy="299.93" r="2.5" fill="#2563eb"/>
  <circle cx="329.84" cy="300.01" r="2.5" fill="#2563eb"/>
  <circle cx="330.94" cy="250.03" r="2.5" fill="#2563eb"/>
  <circle cx="332.04" cy="300.01" r="2.5" fill="#2563eb"/>
  <circle cx="333.13" cy="300.01" r="2.5" fill="#2563eb"/>
  <circle cx="334.23" cy="300.01" r="2.5" fill="#2563eb"/>
  <circle cx="335.33" cy="300.01" r="2.5" fill="#2563eb"/>
  <circle cx="336.42" cy="300.01" r="2.5" fill="#2563eb"/>
  <circle cx="337.52" cy="299.89" r="2.5" fill="#2563eb"/>
  <circle cx="338.61" cy="300.01" r="2.5" fill="#2563eb"/>
  <circle cx="339.71" cy="300.01" r="2.5" fill="#2563eb"/>
  <circle cx="340.81" cy="250.07" r="2.5" fill="#2563eb"/>
  <circle cx="341.90" cy="300.01" r="2.5" fill="#2563eb"/>
  <circle cx="343.00" cy="299.93" r="2.5" fill="#2563eb"/>
  <circle cx="344.10" cy="300.01" r="2.5" fill="#2563eb"/>
  <circle cx="345.19" cy="299.97" r="2.5" fill="#2563eb"/>
  <circle cx="346.29" cy="299.97" r="2.5" fill="#2563eb"/>
  <circle cx="347.39" cy="299.97" r="2.5" fill="#2563eb"/>
  <circle cx="348.48" cy="250.03" r="2.5" fill="#2563eb"/>
  <circle cx="349.58" cy="300.01" r="2.5" fill="#2563eb"/>
  <circle cx="350.67" cy="300.01" r="2.5" fill="#2563eb"/>
  <circle cx="351.77" cy="300.01" r="2.5" fill="#2563eb"/>
  <circle cx="352.87" cy="300.01" r="2.5" fill="#2563eb"/>
  <circle cx="353.96" cy="299.97" r="2.5" fill="#2563eb"/>
  <circle cx="355.06" cy="300.01" r="2.5" fill="#2563eb"/>
  <circle cx="356.16" cy="299.97" r="2.5" fill="#2563eb"/>
  <circle cx="357.25" cy="300.01" r="2.5" fill="#2563eb"/>
  <circle cx="358.35" cy="299.97" r="2.5" fill="#2563eb"/>
  <circle cx="359.45" cy="249.90" r="2.5" fill="#2563eb"/>
  <circle cx="360.54" cy="300.01" r="2.5" fill="#2563eb"/>
  <circle cx="361.64" cy="300.01" r="2.5" fill="#2563eb"/>
  <circle cx="362.73" cy="299.89" r="2.5" fill="#2563eb"/>
  <circle cx="363.83" cy="299.97" r="2.5" fill="#2563eb"/>
  <circle cx="364.93" cy="299.97" r="2.5" fill="#2563eb"/>
  <circle cx="366.02" cy="249.99" r="2.5" fill="#2563eb"/>
  <circle cx="367.12" cy="299.97" r="2.5" fill="#2563eb"/>
  <circle cx="368.22" cy="299.89" r="2.5" fill="#2563eb"/>
  <circle cx="369.31" cy="300.01" r="2.5" fill="#2563eb"/>
  <circle cx="370.41" cy="299.97" r="2.5" fill="#2563eb"/>
  <circle cx="371.51" cy="299.97" r="2.5" fill="#2563eb"/>
  <circle cx="372.60" cy="300.01" r="2.5" fill="#2563eb"/>
  <circle cx="373.70" cy="299.97" r="2.5" fill="#2563eb"/>
  <circle cx="374.80" cy="249.99" r="2.5" fill="#2563eb"/>
  <circle cx="375.89" cy="299.97" r="2.5" fill="#2563eb"/>
  <circle cx="376.99" cy="299.97" r="2.5" fill="#2563eb"/>
  <circle cx="378.08" cy="300.06" r="2.5" fill="#2563eb"/>
  <circle cx="379.18" cy="300.06" r="2.5" fill="#2563eb"/>
  <circle cx="380.28" cy="249.94" r="2.5" fill="#2563eb"/>
  <circle cx="381.37" cy="300.01" r="2.5" fill="#2563eb"/>
  <circle cx="382.47" cy="299.93" r="2.5" fill="#2563eb"/>
  <circle cx="383.57" cy="300.01" r="2.5" fill="#2563eb"/>
  <circle cx="384.66" cy="300.01" r="2.5" fill="#2563eb"/>
  <circle cx="385.76" cy="249.99" r="2.5" fill="#2563eb"/>
  <circle cx="386.86" cy="300.01" r="2.5" fill="#2563eb"/>
  <circle cx="387.95" cy="300.01" r="2.5" fill="#2563eb"/>
  <circle cx="389.05" cy="300.01" r="2.5" fill="#2563eb"/>
  <circle cx="390.14" cy="299.93" r="2.5" fill="#2563eb"/>
  <circle cx="391.24" cy="299.93" r="2.5" fill="#2563eb"/>
  <circle cx="392.34" cy="300.01" r="2.5" fill="#2563eb"/>
  <circle cx="393.43" cy="300.01" r="2.5" fill="#2563eb"/>
  <circle cx="394.53" cy="249.94" r="2.5" fill="#2563eb"/>
  <circle cx="395.63" cy="299.97" r="2.5" fill="#2563eb"/>
  <circle cx="396.72" cy="299.97" r="2.5" fill="#2563eb"/>
  <circle cx="397.82" cy="300.01" r="2.5" fill="#2563eb"/>
  <circle cx="398.92" cy="300.01" r="2.5" fill="#2563eb"/>
  <circle cx="400.01" cy="300.01" r="2.5" fill="#2563eb"/>
  <circle cx="401.11" cy="249.99" r="2.5" fill="#2563eb"/>
  <circle cx="402.20" cy="300.01" r="2.5" fill="#2563eb"/>
  <circle cx="403.30" cy="300.01" r="2.5" fill="#2563eb"/>
  <circle cx="404.40" cy="300.01" r="2.5" fill="#2563eb"/>
  <circle cx="405.49" cy="250.03" r="2.5" fill="#2563eb"/>
  <circle cx="406.59" cy="300.01" r="2.5" fill="#2563eb"/>
  <circle cx="407.69" cy="300.01" r="2.5" fill="#2563eb"/>
  <circle cx="408.78" cy="300.01" r="2.5" fill="#2563eb"/>
  <circle cx="409.88" cy="299.97" r="2.5" fill="#2563eb"/>
  <circle cx="410.98" cy="300.01" r="2.5" fill="#2563eb"/>
  <circle cx="412.07" cy="300.01" r="2.5" fill="#2563eb"/>
  <circle cx="413.17" cy="299.97" r="2.5" fill="#2563eb"/>
  <circle cx="414.27" cy="299.97" r="2.5" fill="#2563eb"/>
  <circle cx="415.36" cy="300.01" r="2.5" fill="#2563eb"/>
  <circle cx="416.46" cy="300.01" r="2.5" fill="#2563eb"/>
  <circle cx="417.55" cy="299.97" r="2.5" fill="#2563eb"/>
  <circle cx="418.65" cy="299.93" r="2.5" fill="#2563eb"/>
  <circle cx="419.75" cy="300.01" r="2.5" fill="#2563eb"/>
  <circle cx="420.84" cy="300.06" r="2.5" fill="#2563eb"/>
  <circle cx="421.94" cy="299.97" r="2.5" fill="#2563eb"/>
  <circle cx="423.04" cy="300.01" r="2.5" fill="#2563eb"/>
  <circle cx="424.13" cy="250.03" r="2.5" fill="#2563eb"/>
  <circle cx="425.23" cy="250.03" r="2.5" fill="#2563eb"/>
  <circle cx="426.33" cy="299.93" r="2.5" fill="#2563eb"/>
  <circle cx="427.42" cy="299.97" r="2.5" fill="#2563eb"/>
  <circle cx="428.52" cy="300.01" r="2.5" fill="#2563eb"/>
  <circle cx="429.61" cy="300.01" r="2.5" fill="#2563eb"/>
  <circle cx="430.71" cy="300.06" r="2.5" fill="#2563eb"/>
  <circle cx="431.81" cy="300.01" r="2.5" fill="#2563eb"/>
  <circle cx="432.90" cy="299.93" r="2.5" fill="#2563eb"/>
  <circle cx="434.00" cy="300.01" r="2.5" fill="#2563eb"/>
  <circle cx="435.10" cy="300.01" r="2.5" fill="#2563eb"/>
  <circle cx="436.19" cy="299.97" r="2.5" fill="#2563eb"/>
  <circle cx="437.29" cy="299.97" r="2.5" fill="#2563eb"/>
  <circle cx="438.39" cy="300.01" r="2.5" fill="#2563eb"/>
  <circle cx="439.48" cy="250.03" r="2.5" fill="#2563eb"/>
  <circle cx="440.58" cy="300.01" r="2.5" fill="#2563eb"/>
  <circle cx="441.67" cy="300.01" r="2.5" fill="#2563eb"/>
  <circle cx="442.77" cy="300.01" r="2.5" fill="#2563eb"/>
  <circle cx="443.87" cy="299.97" r="2.5" fill="#2563eb"/>
  <circle cx="444.96" cy="300.01" r="2.5" fill="#2563eb"/>
  <circle cx="446.06" cy="299.97" r="2.5" fill="#2563eb"/>
  <circle cx="447.16" cy="300.01" r="2.5" fill="#2563eb"/>
  <circle cx="448.25" cy="299.97" r="2.5" fill="#2563eb"/>
  <circle cx="449.35" cy="299.97" r="2.5" fill="#2563eb"/>
  <circle cx="450.45" cy="299.93" r="2.5" fill="#2563eb"/>
  <circle cx="451.54" cy="300.01" r="2.5" fill="#2563eb"/>
  <circle cx="452.64" cy="300.01" r="2.5" fill="#2563eb"/>
  <circle cx="453.73" cy="299.89" r="2.5" fill="#2563eb"/>
  <circle cx="454.83" cy="299.97" r="2.5" fill="#2563eb"/>
  <circle cx="455.93" cy="299.97" r="2.5" fill="#2563eb"/>
  <circle cx="457.02" cy="300.06" r="2.5" fill="#2563eb"/>
  <circle cx="458.12" cy="249.90" r="2.5" fill="#2563eb"/>
  <circle cx="459.22" cy="299.89" r="2.5" fill="#2563eb"/>
  <circle cx="460.31" cy="300.01" r="2.5" fill="#2563eb"/>
  <circle cx="461.41" cy="299.97" r="2.5" fill="#2563eb"/>
  <circle cx="462.51" cy="299.97" r="2.5" fill="#2563eb"/>
  <circle cx="463.60" cy="299.97" r="2.5" fill="#2563eb"/>
  <circle cx="464.70" cy="300.01" r="2.5" fill="#2563eb"/>
  <circle cx="465.80" cy="300.01" r="2.5" fill="#2563eb"/>
  <circle cx="466.89" cy="299.97" r="2.5" fill="#2563eb"/>
  <circle cx="467.99" cy="299.97" r="2.5" fill="#2563eb"/>
  <circle cx="469.08" cy="299.97" r="2.5" fill="#2563eb"/>
  <circle cx="470.18" cy="250.03" r="2.5" fill="#2563eb"/>
  <circle cx="471.28" cy="299.93" r="2.5" fill="#2563eb"/>
  <circle cx="472.37" cy="300.01" r="2.5" fill="#2563eb"/>
  <circle cx="473.47" cy="300.01" r="2.5" fill="#2563eb"/>
  <circle cx="474.57" cy="299.93" r="2.5" fill="#2563eb"/>
  <circle cx="475.66" cy="300.01" r="2.5" fill="#2563eb"/>
  <circle cx="476.76" cy="300.01" r="2.5" fill="#2563eb"/>
  <circle cx="477.86" cy="299.97" r="2.5" fill="#2563eb"/>
  <circle cx="478.95" cy="300.01" r="2.5" fill="#2563eb"/>
  <circle cx="480.05" cy="300.01" r="2.5" fill="#2563eb"/>
  <circle cx="481.14" cy="300.06" r="2.5" fill="#2563eb"/>
  <circle cx="482.24" cy="300.01" r="2.5" fill="#2563eb"/>
  <circle cx="483.34" cy="299.97" r="2.5" fill="#2563eb"/>
  <circle cx="484.43" cy="299.89" r="2.5" fill="#2563eb"/>
  <circle cx="485.53" cy="300.01" r="2.5" fill="#2563eb"/>
  <circle cx="486.63" cy="300.01" r="2.5" fill="#2563eb"/>
  <circle cx="487.72" cy="249.94" r="2.5" fill="#2563eb"/>
  <circle cx="488.82" cy="249.94" r="2.5" fill="#2563eb"/>
  <circle cx="489.92" cy="300.01" r="2.5" fill="#2563eb"/>
  <circle cx="491.01" cy="300.01" r="2.5" fill="#2563eb"/>
  <circle cx="492.11" cy="300.01" r="2.5" fill="#2563eb"/>
  <circle cx="493.20" cy="300.01" r="2.5" fill="#2563eb"/>
  <circle cx="494.30" cy="299.97" r="2.5" fill="#2563eb"/>
  <circle cx="495.40" cy="250.03" r="2.5" fill="#2563eb"/>
  <circle cx="496.49" cy="300.01" r="2.5" fill="#2563eb"/>
  <circle cx="497.59" cy="300.01" r="2.5" fill="#2563eb"/>
  <circle cx="498.69" cy="300.01" r="2.5" fill="#2563eb"/>
  <circle cx="499.78" cy="300.01" r="2.5" fill="#2563eb"/>
  <circle cx="500.88" cy="250.03" r="2.5" fill="#2563eb"/>
  <circle cx="501.98" cy="249.99" r="2.5" fill="#2563eb"/>
  <circle cx="503.07" cy="300.01" r="2.5" fill="#2563eb"/>
  <circle cx="504.17" cy="299.97" r="2.5" fill="#2563eb"/>
  <circle cx="505.27" cy="300.01" r="2.5" fill="#2563eb"/>
  <circle cx="506.36" cy="299.97" r="2.5" fill="#2563eb"/>
  <circle cx="507.46" cy="300.01" r="2.5" fill="#2563eb"/>
  <circle cx="508.55" cy="299.97" r="2.5" fill="#2563eb"/>
  <circle cx="509.65" cy="299.97" r="2.5" fill="#2563eb"/>
  <circle cx="510.75" cy="299.97" r="2.5" fill="#2563eb"/>
  <circle cx="511.84" cy="300.06" r="2.5" fill="#2563eb"/>
  <circle cx="512.94" cy="249.99" r="2.5" fill="#2563eb"/>
  <circle cx="514.04" cy="300.01" r="2.5" fill="#2563eb"/>
  <circle cx="515.13" cy="250.03" r="2.5" fill="#2563eb"/>
  <circle cx="516.23" cy="249.94" r="2.5" fill="#2563eb"/>
  <circle cx="517.33" cy="249.99" r="2.5" fill="#2563eb"/>
  <circle cx="518.42" cy="300.01" r="2.5" fill="#2563eb"/>
  <circle cx="519.52" cy="300.06" r="2.5" fill="#2563eb"/>
  <circle cx="520.61" cy="300.01" r="2.5" fill="#2563eb"/>
  <circle cx="521.71" cy="299.97" r="2.5" fill="#2563eb"/>
  <circle cx="522.81" cy="299.97" r="2.5" fill="#2563eb"/>
  <circle cx="523.90" cy="300.01" r="2.5" fill="#2563eb"/>
  <circle cx="525.00" cy="299.93" r="2.5" fill="#2563eb"/>
  <circle cx="526.10" cy="299.89" r="2.5" fill="#2563eb"/>
  <circle cx="527.19" cy="299.89" r="2.5" fill="#2563eb"/>
  <circle cx="528.29" cy="299.89" r="2.5" fill="#2563eb"/>
  <circle cx="529.39" cy="299.89" r="2.5" fill="#2563eb"/>
  <circle cx="530.48" cy="299.85" r="2.5" fill="#2563eb"/>
  <circle cx="531.58" cy="299.85" r="2.5" fill="#2563eb"/>
  <circle cx="532.67" cy="299.89" r="2.5" fill="#2563eb"/>
  <circle cx="533.77" cy="299.81" r="2.5" fill="#2563eb"/>
  <circle cx="534.87" cy="299.81" r="2.5" fill="#2563eb"/>
  <circle cx="535.96" cy="299.81" r="2.5" fill="#2563eb"/>
  <circle cx="537.06" cy="299.76" r="2.5" fill="#2563eb"/>
  <circle cx="538.16" cy="299.76" r="2.5" fill="#2563eb"/>
  <circle cx="539.25" cy="299.76" r="2.5" fill="#2563eb"/>
  <circle cx="540.35" cy="299.72" r="2.5" fill="#2563eb"/>
  <circle cx="541.45" cy="299.68" r="2.5" fill="#2563eb"/>
  <circle cx="542.54" cy="299.60" r="2.5" fill="#2563eb"/>
  <circle cx="543.64" cy="299.60" r="2.5" fill="#2563eb"/>
  <circle cx="544.73" cy="299.60" r="2.5" fill="#2563eb"/>
  <circle cx="545.83" cy="299.56" r="2.5" fill="#2563eb"/>
  <circle cx="546.93" cy="299.47" r="2.5" fill="#2563eb"/>
  <circle cx="548.02" cy="299.43" r="2.5" fill="#2563eb"/>
  <circle cx="549.12" cy="299.43" r="2.5" fill="#2563eb"/>
  <circle cx="550.22" cy="299.39" r="2.5" fill="#2563eb"/>
  <circle cx="551.31" cy="299.47" r="2.5" fill="#2563eb"/>
  <circle cx="552.41" cy="259.82" r="2.5" fill="#2563eb"/>
  <circle cx="553.51" cy="338.96" r="2.5" fill="#2563eb"/>
  <circle cx="554.60" cy="299.31" r="2.5" fill="#2563eb"/>
  <circle cx="555.70" cy="299.31" r="2.5" fill="#2563eb"/>
  <circle cx="556.80" cy="299.26" r="2.5" fill="#2563eb"/>
  <circle cx="557.89" cy="299.68" r="2.5" fill="#2563eb"/>
  <circle cx="558.99" cy="299.68" r="2.5" fill="#2563eb"/>
  <circle cx="560.08" cy="299.68" r="2.5" fill="#2563eb"/>
  <circle cx="561.18" cy="299.64" r="2.5" fill="#2563eb"/>
  <circle cx="562.28" cy="299.14" r="2.5" fill="#2563eb"/>
  <circle cx="563.37" cy="299.14" r="2.5" fill="#2563eb"/>
  <circle cx="564.47" cy="299.10" r="2.5" fill="#2563eb"/>
  <circle cx="565.57" cy="299.10" r="2.5" fill="#2563eb"/>
  <circle cx="566.66" cy="299.10" r="2.5" fill="#2563eb"/>
  <circle cx="567.76" cy="248.07" r="2.5" fill="#2563eb"/>
  <circle cx="568.86" cy="299.06" r="2.5" fill="#2563eb"/>
  <circle cx="569.95" cy="299.06" r="2.5" fill="#2563eb"/>
  <circle cx="571.05" cy="299.06" r="2.5" fill="#2563eb"/>
  <circle cx="572.14" cy="299.06" r="2.5" fill="#2563eb"/>
  <circle cx="573.24" cy="299.06" r="2.5" fill="#2563eb"/>
  <circle cx="574.34" cy="298.97" r="2.5" fill="#2563eb"/>
  <circle cx="575.43" cy="298.97" r="2.5" fill="#2563eb"/>
  <circle cx="576.53" cy="298.93" r="2.5" fill="#2563eb"/>
  <circle cx="577.63" cy="298.97" r="2.5" fill="#2563eb"/>
  <circle cx="578.72" cy="298.93" r="2.5" fill="#2563eb"/>
  <circle cx="579.82" cy="298.89" r="2.5" fill="#2563eb"/>
  <circle cx="580.92" cy="298.89" r="2.5" fill="#2563eb"/>
  <circle cx="582.01" cy="298.89" r="2.5" fill="#2563eb"/>
  <circle cx="583.11" cy="298.89" r="2.5" fill="#2563eb"/>
  <circle cx="584.20" cy="247.78" r="2.5" fill="#2563eb"/>
  <circle cx="585.30" cy="298.89" r="2.5" fill="#2563eb"/>
  <circle cx="586.40" cy="298.89" r="2.5" fill="#2563eb"/>
  <circle cx="587.49" cy="298.85" r="2.5" fill="#2563eb"/>
  <circle cx="588.59" cy="298.85" r="2.5" fill="#2563eb"/>
  <circle cx="589.69" cy="298.81" r="2.5" fill="#2563eb"/>
  <circle cx="590.78" cy="298.81" r="2.5" fill="#2563eb"/>
  <circle cx="591.88" cy="298.81" r="2.5" fill="#2563eb"/>
  <circle cx="592.98" cy="298.81" r="2.5" fill="#2563eb"/>
  <circle cx="594.07" cy="298.81" r="2.5" fill="#2563eb"/>
  <circle cx="595.17" cy="298.81" r="2.5" fill="#2563eb"/>
  <circle cx="596.27" cy="298.81" r="2.5" fill="#2563eb"/>
  <circle cx="597.36" cy="298.81" r="2.5" fill="#2563eb"/>
  <circle cx="598.46" cy="298.81" r="2.5" fill="#2563eb"/>
  <circle cx="599.55" cy="298.72" r="2.5" fill="#2563eb"/>
  <circle cx="600.65" cy="247.45" r="2.5" fill="#2563eb"/>
  <circle cx="601.75" cy="247.45" r="2.5" fill="#2563eb"/>
  <circle cx="602.84" cy="298.72" r="2.5" fill="#2563eb"/>
  <circle cx="603.94" cy="298.72" r="2.5" fill="#2563eb"/>
  <circle cx="605.04" cy="298.72" r="2.5" fill="#2563eb"/>
  <circle cx="606.13" cy="298.72" r="2.5" fill="#2563eb"/>
  <circle cx="607.23" cy="298.72" r="2.5" fill="#2563eb"/>
  <circle cx="608.33" cy="298.72" r="2.5" fill="#2563eb"/>
  <circle cx="609.42" cy="247.36" r="2.5" fill="#2563eb"/>
  <circle cx="610.52" cy="298.68" r="2.5" fill="#2563eb"/>
  <circle cx="611.61" cy="247.36" r="2.5" fill="#2563eb"/>
  <circle cx="612.71" cy="247.36" r="2.5" fill="#2563eb"/>
  <circle cx="613.81" cy="247.36" r="2.5" fill="#2563eb"/>
  <circle cx="614.90" cy="298.68" r="2.5" fill="#2563eb"/>
  <circle cx="616.00" cy="298.68" r="2.5" fill="#2563eb"/>
  <circle cx="617.10" cy="298.68" r="2.5" fill="#2563eb"/>
  <circle cx="618.19" cy="298.68" r="2.5" fill="#2563eb"/>
  <circle cx="619.29" cy="298.68" r="2.5" fill="#2563eb"/>
  <circle cx="620.39" cy="341.67" r="2.5" fill="#2563eb"/>
  <circle cx="621.48" cy="307.01" r="2.5" fill="#2563eb"/>
  <circle cx="622.58" cy="298.68" r="2.5" fill="#2563eb"/>
  <circle cx="623.67" cy="298.68" r="2.5" fill="#2563eb"/>
  <circle cx="624.77" cy="298.68" r="2.5" fill="#2563eb"/>
  <circle cx="625.87" cy="247.36" r="2.5" fill="#2563eb"/>
  <circle cx="626.96" cy="298.64" r="2.5" fill="#2563eb"/>
  <circle cx="628.06" cy="247.36" r="2.5" fill="#2563eb"/>
  <circle cx="629.16" cy="247.28" r="2.5" fill="#2563eb"/>
  <circle cx="630.25" cy="247.20" r="2.5" fill="#2563eb"/>
  <circle cx="631.35" cy="298.60" r="2.5" fill="#2563eb"/>
  <circle cx="632.45" cy="298.60" r="2.5" fill="#2563eb"/>
  <circle cx="633.54" cy="247.03" r="2.5" fill="#2563eb"/>
  <circle cx="634.64" cy="298.51" r="2.5" fill="#2563eb"/>
  <circle cx="635.73" cy="298.51" r="2.5" fill="#2563eb"/>
  <circle cx="636.83" cy="298.51" r="2.5" fill="#2563eb"/>
  <circle cx="637.93" cy="298.51" r="2.5" fill="#2563eb"/>
  <circle cx="639.02" cy="298.51" r="2.5" fill="#2563eb"/>
  <circle cx="640.12" cy="298.51" r="2.5" fill="#2563eb"/>
  <circle cx="641.22" cy="298.51" r="2.5" fill="#2563eb"/>
  <circle cx="642.31" cy="298.51" r="2.5" fill="#2563eb"/>
  <circle cx="643.41" cy="298.51" r="2.5" fill="#2563eb"/>
  <circle cx="644.51" cy="298.51" r="2.5" fill="#2563eb"/>
  <circle cx="645.60" cy="298.51" r="2.5" fill="#2563eb"/>
  <circle cx="646.70" cy="298.51" r="2.5" fill="#2563eb"/>
  <circle cx="647.80" cy="298.51" r="2.5" fill="#2563eb"/>
  <circle cx="648.89" cy="298.51" r="2.5" fill="#2563eb"/>
  <circle cx="649.99" cy="298.51" r="2.5" fill="#2563eb"/>
  <circle cx="651.08" cy="298.51" r="2.5" fill="#2563eb"/>
  <circle cx="652.18" cy="298.51" r="2.5" fill="#2563eb"/>
  <circle cx="653.28" cy="298.51" r="2.5" fill="#2563eb"/>
  <circle cx="654.37" cy="298.51" r="2.5" fill="#2563eb"/>
  <circle cx="655.47" cy="298.51" r="2.5" fill="#2563eb"/>
  <circle cx="656.57" cy="298.51" r="2.5" fill="#2563eb"/>
  <circle cx="657.66" cy="298.51" r="2.5" fill="#2563eb"/>
  <circle cx="658.76" cy="298.51" r="2.5" fill="#2563eb"/>
  <circle cx="659.86" cy="298.51" r="2.5" fill="#2563eb"/>
  <circle cx="660.95" cy="298.51" r="2.5" fill="#2563eb"/>
  <circle cx="662.05" cy="298.51" r="2.5" fill="#2563eb"/>
  <circle cx="663.14" cy="298.47" r="2.5" fill="#2563eb"/>
  <circle cx="664.24" cy="298.51" r="2.5" fill="#2563eb"/>
  <circle cx="665.34" cy="298.51" r="2.5" fill="#2563eb"/>
  <circle cx="666.43" cy="298.47" r="2.5" fill="#2563eb"/>
  <circle cx="667.53" cy="298.51" r="2.5" fill="#2563eb"/>
  <circle cx="668.63" cy="298.47" r="2.5" fill="#2563eb"/>
  <circle cx="669.72" cy="298.51" r="2.5" fill="#2563eb"/>
  <circle cx="670.82" cy="298.43" r="2.5" fill="#2563eb"/>
  <circle cx="671.92" cy="298.56" r="2.5" fill="#2563eb"/>
  <circle cx="673.01" cy="298.43" r="2.5" fill="#2563eb"/>
  <circle cx="674.11" cy="298.43" r="2.5" fill="#2563eb"/>
  <circle cx="675.20" cy="298.43" r="2.5" fill="#2563eb"/>
  <circle cx="676.30" cy="298.43" r="2.5" fill="#2563eb"/>
  <circle cx="677.40" cy="298.43" r="2.5" fill="#2563eb"/>
  <circle cx="678.49" cy="298.43" r="2.5" fill="#2563eb"/>
  <circle cx="679.59" cy="298.43" r="2.5" fill="#2563eb"/>
  <circle cx="680.69" cy="298.43" r="2.5" fill="#2563eb"/>
  <circle cx="681.78" cy="298.43" r="2.5" fill="#2563eb"/>
  <circle cx="682.88" cy="298.43" r="2.5" fill="#2563eb"/>
  <circle cx="683.98" cy="298.43" r="2.5" fill="#2563eb"/>
  <circle cx="685.07" cy="298.43" r="2.5" fill="#2563eb"/>
  <circle cx="686.17" cy="298.43" r="2.5" fill="#2563eb"/>
  <circle cx="687.27" cy="298.43" r="2.5" fill="#2563eb"/>
  <circle cx="688.36" cy="298.43" r="2.5" fill="#2563eb"/>
  <circle cx="689.46" cy="298.43" r="2.5" fill="#2563eb"/>
  <circle cx="690.55" cy="298.43" r="2.5" fill="#2563eb"/>
  <circle cx="691.65" cy="298.43" r="2.5" fill="#2563eb"/>
  <circle cx="692.75" cy="298.43" r="2.5" fill="#2563eb"/>
  <circle cx="693.84" cy="298.43" r="2.5" fill="#2563eb"/>
  <circle cx="694.94" cy="298.43" r="2.5" fill="#2563eb"/>
  <circle cx="696.04" cy="298.43" r="2.5" fill="#2563eb"/>
  <circle cx="697.13" cy="298.43" r="2.5" fill="#2563eb"/>
  <circle cx="698.23" cy="298.43" r="2.5" fill="#2563eb"/>
  <circle cx="699.33" cy="298.43" r="2.5" fill="#2563eb"/>
  <circle cx="700.42" cy="298.43" r="2.5" fill="#2563eb"/>
  <circle cx="701.52" cy="298.43" r="2.5" fill="#2563eb"/>
  <circle cx="702.61" cy="298.43" r="2.5" fill="#2563eb"/>
  <circle cx="703.71" cy="298.43" r="2.5" fill="#2563eb"/>
  <circle cx="704.81" cy="298.43" r="2.5" fill="#2563eb"/>
  <circle cx="705.90" cy="298.43" r="2.5" fill="#2563eb"/>
  <circle cx="707.00" cy="298.43" r="2.5" fill="#2563eb"/>
  <circle cx="708.10" cy="298.43" r="2.5" fill="#2563eb"/>
  <circle cx="709.19" cy="298.43" r="2.5" fill="#2563eb"/>
  <circle cx="710.29" cy="298.39" r="2.5" fill="#2563eb"/>
  <circle cx="711.39" cy="298.39" r="2.5" fill="#2563eb"/>
  <circle cx="712.48" cy="298.43" r="2.5" fill="#2563eb"/>
  <circle cx="713.58" cy="298.43" r="2.5" fill="#2563eb"/>
  <circle cx="714.67" cy="298.39" r="2.5" fill="#2563eb"/>
  <circle cx="715.77" cy="298.39" r="2.5" fill="#2563eb"/>
  <circle cx="716.87" cy="298.39" r="2.5" fill="#2563eb"/>
  <circle cx="717.96" cy="298.43" r="2.5" fill="#2563eb"/>
  <circle cx="719.06" cy="298.43" r="2.5" fill="#2563eb"/>
  <circle cx="720.16" cy="298.43" r="2.5" fill="#2563eb"/>
  <circle cx="721.25" cy="246.82" r="2.5" fill="#2563eb"/>
  <circle cx="722.35" cy="298.43" r="2.5" fill="#2563eb"/>
  <circle cx="723.45" cy="246.78" r="2.5" fill="#2563eb"/>
  <circle cx="724.54" cy="246.78" r="2.5" fill="#2563eb"/>
  <circle cx="725.64" cy="246.78" r="2.5" fill="#2563eb"/>
  <circle cx="726.73" cy="246.70" r="2.5" fill="#2563eb"/>
  <circle cx="727.83" cy="246.78" r="2.5" fill="#2563eb"/>
  <circle cx="728.93" cy="298.39" r="2.5" fill="#2563eb"/>
  <circle cx="730.02" cy="298.39" r="2.5" fill="#2563eb"/>
  <circle cx="731.12" cy="298.39" r="2.5" fill="#2563eb"/>
  <circle cx="732.22" cy="298.39" r="2.5" fill="#2563eb"/>
  <circle cx="733.31" cy="298.39" r="2.5" fill="#2563eb"/>
  <circle cx="734.41" cy="246.78" r="2.5" fill="#2563eb"/>
  <circle cx="735.51" cy="298.39" r="2.5" fill="#2563eb"/>
  <circle cx="736.60" cy="298.39" r="2.5" fill="#2563eb"/>
  <circle cx="737.70" cy="298.39" r="2.5" fill="#2563eb"/>
  <circle cx="738.80" cy="298.39" r="2.5" fill="#2563eb"/>
  <circle cx="739.89" cy="298.39" r="2.5" fill="#2563eb"/>
  <circle cx="740.99" cy="246.78" r="2.5" fill="#2563eb"/>
  <circle cx="742.08" cy="246.78" r="2.5" fill="#2563eb"/>
  <circle cx="743.18" cy="298.39" r="2.5" fill="#2563eb"/>
  <circle cx="744.28" cy="298.39" r="2.5" fill="#2563eb"/>
  <circle cx="745.37" cy="298.39" r="2.5" fill="#2563eb"/>
  <circle cx="746.47" cy="298.39" r="2.5" fill="#2563eb"/>
  <circle cx="747.57" cy="298.39" r="2.5" fill="#2563eb"/>
  <circle cx="748.66" cy="298.39" r="2.5" fill="#2563eb"/>
  <circle cx="749.76" cy="298.39" r="2.5" fill="#2563eb"/>
  <circle cx="750.86" cy="298.39" r="2.5" fill="#2563eb"/>
  <circle cx="751.95" cy="298.39" r="2.5" fill="#2563eb"/>
  <circle cx="753.05" cy="298.39" r="2.5" fill="#2563eb"/>
  <circle cx="754.14" cy="298.39" r="2.5" fill="#2563eb"/>
  <circle cx="755.24" cy="298.39" r="2.5" fill="#2563eb"/>
  <circle cx="756.34" cy="298.39" r="2.5" fill="#2563eb"/>
  <circle cx="757.43" cy="298.39" r="2.5" fill="#2563eb"/>
  <circle cx="758.53" cy="298.35" r="2.5" fill="#2563eb"/>
  <circle cx="759.63" cy="298.39" r="2.5" fill="#2563eb"/>
  <circle cx="760.72" cy="298.39" r="2.5" fill="#2563eb"/>
  <circle cx="761.82" cy="298.35" r="2.5" fill="#2563eb"/>
  <circle cx="762.92" cy="298.35" r="2.5" fill="#2563eb"/>
  <circle cx="764.01" cy="298.35" r="2.5" fill="#2563eb"/>
  <circle cx="765.11" cy="298.35" r="2.5" fill="#2563eb"/>
  <circle cx="766.20" cy="298.35" r="2.5" fill="#2563eb"/>
  <circle cx="767.30" cy="298.35" r="2.5" fill="#2563eb"/>
  <circle cx="768.40" cy="298.35" r="2.5" fill="#2563eb"/>
  <circle cx="769.49" cy="298.35" r="2.5" fill="#2563eb"/>
  <circle cx="770.59" cy="298.35" r="2.5" fill="#2563eb"/>
  <circle cx="771.69" cy="298.35" r="2.5" fill="#2563eb"/>
  <circle cx="772.78" cy="298.35" r="2.5" fill="#2563eb"/>
  <circle cx="773.88" cy="298.35" r="2.5" fill="#2563eb"/>
  <circle cx="774.98" cy="298.35" r="2.5" fill="#2563eb"/>
  <circle cx="776.07" cy="298.35" r="2.5" fill="#2563eb"/>
  <circle cx="777.17" cy="298.35" r="2.5" fill="#2563eb"/>
  <circle cx="778.27" cy="298.35" r="2.5" fill="#2563eb"/>
  <circle cx="779.36" cy="298.35" r="2.5" fill="#2563eb"/>
  <circle cx="780.46" cy="298.35" r="2.5" fill="#2563eb"/>
  <circle cx="781.55" cy="298.35" r="2.5" fill="#2563eb"/>
  <circle cx="782.65" cy="298.35" r="2.5" fill="#2563eb"/>
  <circle cx="783.75" cy="298.35" r="2.5" fill="#2563eb"/>
  <circle cx="784.84" cy="298.35" r="2.5" fill="#2563eb"/>
  <circle cx="785.94" cy="298.35" r="2.5" fill="#2563eb"/>
  <circle cx="787.04" cy="298.35" r="2.5" fill="#2563eb"/>
  <circle cx="788.13" cy="298.35" r="2.5" fill="#2563eb"/>
  <circle cx="789.23" cy="298.35" r="2.5" fill="#2563eb"/>
  <circle cx="790.33" cy="298.35" r="2.5" fill="#2563eb"/>
  <circle cx="791.42" cy="298.35" r="2.5" fill="#2563eb"/>
  <circle cx="792.52" cy="298.35" r="2.5" fill="#2563eb"/>
  <circle cx="793.61" cy="298.35" r="2.5" fill="#2563eb"/>
  <circle cx="794.71" cy="298.35" r="2.5" fill="#2563eb"/>
  <circle cx="795.81" cy="298.35" r="2.5" fill="#2563eb"/>
  <circle cx="796.90" cy="298.35" r="2.5" fill="#2563eb"/>
  <circle cx="798.00" cy="298.35" r="2.5" fill="#2563eb"/>
  <circle cx="799.10" cy="298.35" r="2.5" fill="#2563eb"/>
  <circle cx="800.19" cy="298.35" r="2.5" fill="#2563eb"/>
  <circle cx="801.29" cy="298.35" r="2.5" fill="#2563eb"/>
  <circle cx="802.39" cy="298.35" r="2.5" fill="#2563eb"/>
  <circle cx="803.48" cy="298.35" r="2.5" fill="#2563eb"/>
  <circle cx="804.58" cy="298.35" r="2.5" fill="#2563eb"/>
  <circle cx="805.67" cy="298.35" r="2.5" fill="#2563eb"/>
  <circle cx="806.77" cy="298.35" r="2.5" fill="#2563eb"/>
  <circle cx="807.87" cy="298.35" r="2.5" fill="#2563eb"/>
  <circle cx="808.96" cy="298.35" r="2.5" fill="#2563eb"/>
  <circle cx="810.06" cy="298.35" r="2.5" fill="#2563eb"/>
  <circle cx="811.16" cy="298.35" r="2.5" fill="#2563eb"/>
  <circle cx="812.25" cy="298.35" r="2.5" fill="#2563eb"/>
  <circle cx="813.35" cy="298.35" r="2.5" fill="#2563eb"/>
  <circle cx="814.45" cy="298.35" r="2.5" fill="#2563eb"/>
  <circle cx="815.54" cy="298.35" r="2.5" fill="#2563eb"/>
  <circle cx="816.64" cy="298.35" r="2.5" fill="#2563eb"/>
  <circle cx="817.73" cy="298.35" r="2.5" fill="#2563eb"/>
  <circle cx="818.83" cy="298.39" r="2.5" fill="#2563eb"/>
  <circle cx="819.93" cy="298.39" r="2.5" fill="#2563eb"/>
  <circle cx="821.02" cy="298.39" r="2.5" fill="#2563eb"/>
  <circle cx="822.12" cy="246.78" r="2.5" fill="#2563eb"/>
  <circle cx="823.22" cy="298.39" r="2.5" fill="#2563eb"/>
  <circle cx="824.31" cy="298.39" r="2.5" fill="#2563eb"/>
  <circle cx="825.41" cy="298.39" r="2.5" fill="#2563eb"/>
  <circle cx="826.51" cy="298.39" r="2.5" fill="#2563eb"/>
  <circle cx="827.60" cy="298.39" r="2.5" fill="#2563eb"/>
  <circle cx="828.70" cy="298.39" r="2.5" fill="#2563eb"/>
  <circle cx="829.80" cy="298.39" r="2.5" fill="#2563eb"/>
  <circle cx="830.89" cy="246.78" r="2.5" fill="#2563eb"/>
  <circle cx="831.99" cy="298.39" r="2.5" fill="#2563eb"/>
  <circle cx="833.08" cy="298.39" r="2.5" fill="#2563eb"/>
  <circle cx="834.18" cy="298.39" r="2.5" fill="#2563eb"/>
  <circle cx="835.28" cy="298.39" r="2.5" fill="#2563eb"/>
  <circle cx="836.37" cy="298.39" r="2.5" fill="#2563eb"/>
  <circle cx="837.47" cy="298.39" r="2.5" fill="#2563eb"/>
  <circle cx="838.57" cy="298.39" r="2.5" fill="#2563eb"/>
  <circle cx="839.66" cy="246.78" r="2.5" fill="#2563eb"/>
  <circle cx="840.76" cy="298.39" r="2.5" fill="#2563eb"/>
  <circle cx="841.86" cy="298.39" r="2.5" fill="#2563eb"/>
  <circle cx="842.95" cy="298.39" r="2.5" fill="#2563eb"/>
  <circle cx="844.05" cy="298.39" r="2.5" fill="#2563eb"/>
  <circle cx="845.14" cy="298.39" r="2.5" fill="#2563eb"/>
  <circle cx="846.24" cy="298.39" r="2.5" fill="#2563eb"/>
  <circle cx="847.34" cy="298.39" r="2.5" fill="#2563eb"/>
  <circle cx="848.43" cy="298.39" r="2.5" fill="#2563eb"/>
  <circle cx="849.53" cy="298.39" r="2.5" fill="#2563eb"/>
  <circle cx="850.63" cy="298.39" r="2.5" fill="#2563eb"/>
  <circle cx="851.72" cy="298.39" r="2.5" fill="#2563eb"/>
  <circle cx="852.82" cy="298.35" r="2.5" fill="#2563eb"/>
  <circle cx="853.92" cy="298.39" r="2.5" fill="#2563eb"/>
  <circle cx="855.01" cy="298.39" r="2.5" fill="#2563eb"/>
  <circle cx="856.11" cy="298.39" r="2.5" fill="#2563eb"/>
  <circle cx="857.20" cy="298.35" r="2.5" fill="#2563eb"/>
  <circle cx="858.30" cy="298.35" r="2.5" fill="#2563eb"/>
  <circle cx="859.40" cy="298.35" r="2.5" fill="#2563eb"/>
  <circle cx="860.49" cy="298.35" r="2.5" fill="#2563eb"/>
  <circle cx="861.59" cy="298.35" r="2.5" fill="#2563eb"/>
  <circle cx="862.69" cy="298.35" r="2.5" fill="#2563eb"/>
  <circle cx="863.78" cy="298.35" r="2.5" fill="#2563eb"/>
  <circle cx="864.88" cy="298.35" r="2.5" fill="#2563eb"/>
  <circle cx="865.98" cy="298.35" r="2.5" fill="#2563eb"/>
  <circle cx="867.07" cy="298.35" r="2.5" fill="#2563eb"/>
  <circle cx="868.17" cy="298.35" r="2.5" fill="#2563eb"/>
  <circle cx="869.27" cy="298.35" r="2.5" fill="#2563eb"/>
  <circle cx="870.36" cy="298.35" r="2.5" fill="#2563eb"/>
  <circle cx="871.46" cy="298.35" r="2.5" fill="#2563eb"/>
  <circle cx="872.55" cy="298.35" r="2.5" fill="#2563eb"/>
  <circle cx="873.65" cy="298.35" r="2.5" fill="#2563eb"/>
  <circle cx="874.75" cy="298.39" r="2.5" fill="#2563eb"/>
  <circle cx="875.84" cy="298.39" r="2.5" fill="#2563eb"/>
  <circle cx="876.94" cy="298.39" r="2.5" fill="#2563eb"/>
  <circle cx="878.04" cy="298.39" r="2.5" fill="#2563eb"/>
  <circle cx="879.13" cy="298.39" r="2.5" fill="#2563eb"/>
  <circle cx="880.23" cy="298.39" r="2.5" fill="#2563eb"/>
  <circle cx="881.33" cy="298.35" r="2.5" fill="#2563eb"/>
  <circle cx="882.42" cy="298.39" r="2.5" fill="#2563eb"/>
  <circle cx="883.52" cy="298.39" r="2.5" fill="#2563eb"/>
  <circle cx="884.61" cy="298.39" r="2.5" fill="#2563eb"/>
  <circle cx="885.71" cy="298.39" r="2.5" fill="#2563eb"/>
  <circle cx="886.81" cy="298.39" r="2.5" fill="#2563eb"/>
  <circle cx="887.90" cy="298.39" r="2.5" fill="#2563eb"/>
  <circle cx="889.00" cy="298.39" r="2.5" fill="#2563eb"/>
  <circle cx="890.10" cy="298.39" r="2.5" fill="#2563eb"/>
  <circle cx="891.19" cy="298.39" r="2.5" fill="#2563eb"/>
  <circle cx="892.29" cy="298.35" r="2.5" fill="#2563eb"/>
  <circle cx="893.39" cy="298.39" r="2.5" fill="#2563eb"/>
  <circle cx="894.48" cy="298.39" r="2.5" fill="#2563eb"/>
  <circle cx="895.58" cy="298.39" r="2.5" fill="#2563eb"/>
  <circle cx="896.67" cy="298.39" r="2.5" fill="#2563eb"/>
  <circle cx="897.77" cy="298.39" r="2.5" fill="#2563eb"/>
  <circle cx="898.87" cy="298.39" r="2.5" fill="#2563eb"/>
  <circle cx="899.96" cy="298.39" r="2.5" fill="#2563eb"/>
  <circle cx="901.06" cy="298.39" r="2.5" fill="#2563eb"/>
  <circle cx="902.16" cy="298.39" r="2.5" fill="#2563eb"/>
  <circle cx="903.25" cy="298.39" r="2.5" fill="#2563eb"/>
  <circle cx="904.35" cy="298.39" r="2.5" fill="#2563eb"/>
  <circle cx="905.45" cy="298.39" r="2.5" fill="#2563eb"/>
  <circle cx="906.54" cy="298.39" r="2.5" fill="#2563eb"/>
  <circle cx="907.64" cy="298.39" r="2.5" fill="#2563eb"/>
  <circle cx="908.73" cy="298.39" r="2.5" fill="#2563eb"/>
  <circle cx="909.83" cy="298.39" r="2.5" fill="#2563eb"/>
  <circle cx="910.93" cy="298.35" r="2.5" fill="#2563eb"/>
  <circle cx="912.02" cy="298.35" r="2.5" fill="#2563eb"/>
  <circle cx="913.12" cy="298.39" r="2.5" fill="#2563eb"/>
  <circle cx="914.22" cy="298.39" r="2.5" fill="#2563eb"/>
  <circle cx="915.31" cy="298.39" r="2.5" fill="#2563eb"/>
  <circle cx="916.41" cy="298.39" r="2.5" fill="#2563eb"/>
  <circle cx="917.51" cy="298.39" r="2.5" fill="#2563eb"/>
  <circle cx="918.60" cy="298.39" r="2.5" fill="#2563eb"/>
  <circle cx="919.70" cy="298.39" r="2.5" fill="#2563eb"/>
  <circle cx="920.80" cy="298.39" r="2.5" fill="#2563eb"/>
  <circle cx="921.89" cy="298.39" r="2.5" fill="#2563eb"/>
  <circle cx="922.99" cy="298.39" r="2.5" fill="#2563eb"/>
  <circle cx="924.08" cy="298.35" r="2.5" fill="#2563eb"/>
  <circle cx="925.18" cy="298.35" r="2.5" fill="#2563eb"/>
  <circle cx="926.28" cy="298.39" r="2.5" fill="#2563eb"/>
  <circle cx="927.37" cy="298.39" r="2.5" fill="#2563eb"/>
  <circle cx="928.47" cy="298.39" r="2.5" fill="#2563eb"/>
  <circle cx="929.57" cy="298.39" r="2.5" fill="#2563eb"/>
  <circle cx="930.66" cy="298.39" r="2.5" fill="#2563eb"/>
  <circle cx="931.76" cy="298.39" r="2.5" fill="#2563eb"/>
  <circle cx="932.86" cy="298.39" r="2.5" fill="#2563eb"/>
  <circle cx="933.95" cy="298.39" r="2.5" fill="#2563eb"/>
  <circle cx="935.05" cy="298.39" r="2.5" fill="#2563eb"/>
  <circle cx="936.14" cy="298.39" r="2.5" fill="#2563eb"/>
  <circle cx="937.24" cy="298.39" r="2.5" fill="#2563eb"/>
  <circle cx="938.34" cy="298.39" r="2.5" fill="#2563eb"/>
  <circle cx="939.43" cy="298.39" r="2.5" fill="#2563eb"/>
  <circle cx="940.53" cy="298.39" r="2.5" fill="#2563eb"/>
  <circle cx="941.63" cy="298.35" r="2.5" fill="#2563eb"/>
  <circle cx="942.72" cy="298.39" r="2.5" fill="#2563eb"/>
  <circle cx="943.82" cy="298.39" r="2.5" fill="#2563eb"/>
  <circle cx="944.92" cy="298.39" r="2.5" fill="#2563eb"/>
  <circle cx="946.01" cy="298.39" r="2.5" fill="#2563eb"/>
  <circle cx="947.11" cy="298.39" r="2.5" fill="#2563eb"/>
  <circle cx="948.20" cy="298.39" r="2.5" fill="#2563eb"/>
  <circle cx="949.30" cy="298.39" r="2.5" fill="#2563eb"/>
  <circle cx="950.40" cy="298.39" r="2.5" fill="#2563eb"/>
  <circle cx="951.49" cy="298.35" r="2.5" fill="#2563eb"/>
  <circle cx="952.59" cy="298.35" r="2.5" fill="#2563eb"/>
  <circle cx="953.69" cy="298.39" r="2.5" fill="#2563eb"/>
  <circle cx="954.78" cy="298.35" r="2.5" fill="#2563eb"/>
  <circle cx="955.88" cy="298.39" r="2.5" fill="#2563eb"/>
  <circle cx="956.98" cy="298.39" r="2.5" fill="#2563eb"/>
  <circle cx="958.07" cy="298.39" r="2.5" fill="#2563eb"/>
  <circle cx="959.17" cy="298.39" r="2.5" fill="#2563eb"/>
  <circle cx="960.27" cy="298.39" r="2.5" fill="#2563eb"/>
  <circle cx="961.36" cy="298.35" r="2.5" fill="#2563eb"/>
  <circle cx="962.46" cy="298.39" r="2.5" fill="#2563eb"/>
  <circle cx="963.55" cy="298.39" r="2.5" fill="#2563eb"/>
  <circle cx="964.65" cy="298.35" r="2.5" fill="#2563eb"/>
  <circle cx="965.75" cy="298.39" r="2.5" fill="#2563eb"/>
  <circle cx="966.84" cy="298.35" r="2.5" fill="#2563eb"/>
  <circle cx="967.94" cy="298.39" r="2.5" fill="#2563eb"/>
  <circle cx="969.04" cy="298.39" r="2.5" fill="#2563eb"/>
  <circle cx="970.13" cy="298.35" r="2.5" fill="#2563eb"/>
  <circle cx="971.23" cy="298.39" r="2.5" fill="#2563eb"/>
  <circle cx="972.33" cy="298.35" r="2.5" fill="#2563eb"/>
  <circle cx="973.42" cy="298.39" r="2.5" fill="#2563eb"/>
  <circle cx="974.52" cy="298.39" r="2.5" fill="#2563eb"/>
  <circle cx="975.61" cy="298.35" r="2.5" fill="#2563eb"/>
  <circle cx="976.71" cy="298.39" r="2.5" fill="#2563eb"/>
  <circle cx="977.81" cy="298.39" r="2.5" fill="#2563eb"/>
  <circle cx="978.90" cy="298.39" r="2.5" fill="#2563eb"/>
  <circle cx="980.00" cy="298.39" r="2.5" fill="#2563eb"/>
</svg>
