<?xml version="1.0" encoding="UTF-8"?>
<svg xmlns="http://www.w3.org/2000/svg" width="1000" height="420" viewBox="0 0 1000 420">
  <rect width="100%" height="100%" fill="#ffffff"/>
  <text x="70" y="28" font-size="20" font-weight="600">수집 시점 기준 - 시간별 스냅샷</text>
  <text x="70" y="402" font-size="12" fill="#555">스냅샷 수</text>
  <line x1="70" y1="350.00" x2="980" y2="350.00" stroke="#e5e7eb" stroke-width="1"/>
  <text x="62" y="354.00" font-size="11" fill="#6b7280" text-anchor="end">0</text>
  <line x1="70" y1="290.00" x2="980" y2="290.00" stroke="#e5e7eb" stroke-width="1"/>
  <text x="62" y="294.00" font-size="11" fill="#6b7280" text-anchor="end">1,440</text>
  <line x1="70" y1="230.00" x2="980" y2="230.00" stroke="#e5e7eb" stroke-width="1"/>
  <text x="62" y="234.00" font-size="11" fill="#6b7280" text-anchor="end">2,880</text>
  <line x1="70" y1="170.00" x2="980" y2="170.00" stroke="#e5e7eb" stroke-width="1"/>
  <text x="62" y="174.00" font-size="11" fill="#6b7280" text-anchor="end">4,321</text>
  <line x1="70" y1="110.00" x2="980" y2="110.00" stroke="#e5e7eb" stroke-width="1"/>
  <text x="62" y="114.00" font-size="11" fill="#6b7280" text-anchor="end">5,761</text>
  <line x1="70" y1="50.00" x2="980" y2="50.00" stroke="#e5e7eb" stroke-width="1"/>
  <text x="62" y="54.00" font-size="11" fill="#6b7280" text-anchor="end">7,202</text>
  <line x1="70" y1="350" x2="980" y2="350" stroke="#111827" stroke-width="1.2"/>
  <line x1="70" y1="50" x2="70" y2="350" stroke="#111827" stroke-width="1.2"/>
  <line x1="70.00" y1="350" x2="70.00" y2="356" stroke="#9ca3af" stroke-width="1"/>
  <text x="70.00" y="372" font-size="10" fill="#6b7280" text-anchor="middle">2026-02-28 18</text>
  <line x1="145.07" y1="350" x2="145.07" y2="356" stroke="#9ca3af" stroke-width="1"/>
  <text x="145.07" y="372" font-size="10" fill="#6b7280" text-anchor="middle">2026-03-09 23</text>
  <line x1="220.15" y1="350" x2="220.15" y2="356" stroke="#9ca3af" stroke-width="1"/>
  <text x="220.15" y="372" font-size="10" fill="#6b7280" text-anchor="middle">2026-03-12 23</text>
  <line x1="295.23" y1="350" x2="295.23" y2="356" stroke="#9ca3af" stroke-width="1"/>
  <text x="295.23" y="372" font-size="10" fill="#6b7280" text-anchor="middle">2026-03-16 12</text>
  <line x1="370.30" y1="350" x2="370.30" y2="356" stroke="#9ca3af" stroke-width="1"/>
  <text x="370.30" y="372" font-size="10" fill="#6b7280" text-anchor="middle">2026-03-20 20</text>
  <line x1="445.38" y1="350" x2="445.38" y2="356" stroke="#9ca3af" stroke-width="1"/>
  <text x="445.38" y="372" font-size="10" fill="#6b7280" text-anchor="middle">2026-03-24 20</text>
  <line x1="520.45" y1="350" x2="520.45" y2="356" stroke="#9ca3af" stroke-width="1"/>
  <text x="520.45" y="372" font-size="10" fill="#6b7280" text-anchor="middle">2026-03-29 06</text>
  <line x1="595.52" y1="350" x2="595.52" y2="356" stroke="#9ca3af" stroke-width="1"/>
  <text x="595.52" y="372" font-size="10" fill="#6b7280" text-anchor="middle">2026-04-03 00</text>
  <line x1="670.60" y1="350" x2="670.60" y2="356" stroke="#9ca3af" stroke-width="1"/>
  <text x="670.60" y="372" font-size="10" fill="#6b7280" text-anchor="middle">2026-04-07 07</text>
  <line x1="745.68" y1="350" x2="745.68" y2="356" stroke="#9ca3af" stroke-width="1"/>
  <text x="745.68" y="372" font-size="10" fill="#6b7280" text-anchor="middle">2026-04-11 20</text>
  <line x1="820.75" y1="350" x2="820.75" y2="356" stroke="#9ca3af" stroke-width="1"/>
  <text x="820.75" y="372" font-size="10" fill="#6b7280" text-anchor="middle">2026-04-17 01</text>
  <line x1="895.82" y1="350" x2="895.82" y2="356" stroke="#9ca3af" stroke-width="1"/>
  <text x="895.82" y="372" font-size="10" fill="#6b7280" text-anchor="middle">2026-04-21 09</text>
  <line x1="970.90" y1="350" x2="970.90" y2="356" stroke="#9ca3af" stroke-width="1"/>
  <text x="970.90" y="372" font-size="10" fill="#6b7280" text-anchor="middle">2026-04-26 05</text>
  <line x1="980.00" y1="350" x2="980.00" y2="356" stroke="#9ca3af" stroke-width="1"/>
  <text x="980.00" y="372" font-size="10" fill="#6b7280" text-anchor="middle">2026-04-26 18</text>
  <polyline fill="none" stroke="#2563eb" stroke-width="2.5" points="70.00,50.00 71.14,50.12 72.28,50.17 73.41,50.46 74.55,50.00 75.69,266.90 76.83,50.12 77.96,50.08 79.10,177.46 80.24,211.58 81.38,175.34 82.51,304.14 83.65,200.46 84.79,250.94 85.92,300.01 87.06,300.06 88.20,300.01 89.34,300.01 90.47,348.00 91.61,300.01 92.75,249.99 93.89,200.00 95.03,249.99 96.16,249.99 97.30,250.03 98.44,250.03 99.58,250.03 100.71,250.40 101.85,250.90 102.99,250.90 104.12,251.32 105.26,249.94 106.40,300.01 107.54,299.93 108.68,251.03 109.81,300.68 110.95,250.03 112.09,200.00 113.22,249.99 114.36,250.03 115.50,250.03 116.64,250.03 117.78,300.01 118.91,200.04 120.05,250.03 121.19,250.03 122.33,250.03 123.46,249.90 124.60,250.03 125.74,250.03 126.88,250.94 128.01,250.44 129.15,250.03 130.29,250.03 131.43,300.47 132.56,300.01 133.70,300.43 134.84,250.03 135.97,249.99 137.11,300.43 138.25,249.90 139.39,249.99 140.53,249.99 141.66,200.04 142.80,300.01 143.94,300.01 145.07,300.01 146.21,249.90 147.35,300.01 148.49,250.03 149.62,249.99 150.76,199.96 151.90,300.01 153.04,200.00 154.18,250.36 155.31,250.03 156.45,300.01 157.59,300.01 158.73,250.44 159.86,300.01 161.00,250.03 162.14,250.03 163.27,249.99 164.41,250.49 165.55,250.03 166.69,200.04 167.82,300.01 168.96,250.03 170.10,300.01 171.24,250.11 172.38,300.01 173.51,250.03 174.65,250.03 175.79,199.92 176.93,250.03 178.06,250.03 179.20,250.03 180.34,254.36 181.47,300.01 182.61,299.97 183.75,250.36 184.89,299.97 186.03,250.03 187.16,250.03 188.30,250.03 189.44,250.03 190.57,249.99 191.71,200.00 192.85,299.93 193.99,300.01 195.12,299.97 196.26,249.94 197.40,249.99 198.54,249.82 199.67,249.94 200.81,250.28 201.95,207.00 203.09,250.03 204.22,250.32 205.36,250.40 206.50,300.93 207.64,300.01 208.78,300.10 209.91,249.94 211.05,249.99 212.19,250.07 213.32,249.99 214.46,250.03 215.60,249.94 216.74,200.00 217.88,300.39 219.01,300.01 220.15,300.01 221.29,250.44 222.43,300.39 223.56,249.86 224.70,250.11 225.84,201.46 226.97,300.01 228.11,200.83 229.25,250.03 230.39,249.99 231.53,300.26 232.66,300.01 233.80,300.01 234.94,250.03 236.07,250.03 237.21,250.03 238.35,250.03 239.49,249.99 240.62,250.03 241.76,200.00 242.90,300.26 244.04,249.99 245.18,300.01 246.31,249.94 247.45,250.03 248.59,250.03 249.72,250.03 250.86,200.04 252.00,300.01 253.14,249.90 254.28,300.01 255.41,300.01 256.55,300.06 257.69,300.01 258.82,300.01 259.96,243.95 261.10,249.94 262.24,299.97 263.38,300.01 264.51,300.01 265.65,250.03 266.79,300.01 267.93,300.01 269.06,299.97 270.20,249.99 271.34,300.01 272.48,299.93 273.61,300.01 274.75,299.93 275.89,300.01 277.02,300.01 278.16,299.89 279.30,299.97 280.44,250.03 281.58,299.93 282.71,299.89 283.85,299.97 284.99,249.94 286.12,300.01 287.26,300.01 288.40,299.97 289.54,249.99 290.67,299.97 291.81,299.97 292.95,300.06 294.09,300.06 295.23,299.93 296.36,300.01 297.50,300.01 298.64,299.93 299.77,300.01 300.91,300.01 302.05,299.97 303.19,300.01 304.33,300.01 305.46,300.01 306.60,300.01 307.74,249.86 308.88,300.01 310.01,300.10 311.15,299.93 312.29,300.01 313.43,299.93 314.56,300.01 315.70,300.01 316.84,300.01 317.98,300.01 319.11,300.01 320.25,299.97 321.39,300.01 322.53,300.01 323.66,300.01 324.80,300.01 325.94,250.03 327.07,300.01 328.21,300.01 329.35,299.97 330.49,300.01 331.62,300.01 332.76,299.97 333.90,299.97 335.04,300.01 336.18,299.97 337.31,300.01 338.45,299.93 339.59,300.01 340.72,250.03 341.86,300.01 343.00,300.01 344.14,300.01 345.27,300.01 346.41,300.01 347.55,299.89 348.69,300.01 349.82,300.01 350.96,250.07 352.10,300.01 353.24,299.93 354.38,300.01 355.51,299.97 356.65,299.97 357.79,299.97 358.93,250.03 360.06,300.01 361.20,300.01 362.34,300.01 363.48,300.01 364.61,299.97 365.75,300.01 366.89,299.97 368.03,300.01 369.16,299.97 370.30,249.90 371.44,300.01 372.57,300.01 373.71,299.89 374.85,299.97 375.99,299.97 377.12,249.99 378.26,299.97 379.40,299.89 380.54,300.01 381.68,299.97 382.81,299.97 383.95,300.01 385.09,299.97 386.22,249.99 387.36,299.97 388.50,299.97 389.64,300.06 390.77,300.06 391.91,249.94 393.05,300.01 394.19,299.93 395.32,300.01 396.46,300.01 397.60,249.99 398.74,300.01 399.88,300.01 401.01,300.01 402.15,299.93 403.29,299.93 404.43,300.01 405.56,300.01 406.70,249.94 407.84,299.97 408.98,299.97 410.11,300.01 411.25,300.01 412.39,300.01 413.52,249.99 414.66,300.01 415.80,300.01 416.94,300.01 418.07,250.03 419.21,300.01 420.35,300.01 421.49,300.01 422.62,299.97 423.76,300.01 424.90,300.01 426.04,299.97 427.18,299.97 428.31,300.01 429.45,300.01 430.59,299.97 431.73,299.93 432.86,300.01 434.00,300.06 435.14,299.97 436.28,300.01 437.41,250.03 438.55,250.03 439.69,299.93 440.82,299.97 441.96,300.01 443.10,300.01 444.24,300.06 445.38,300.01 446.51,299.93 447.65,300.01 448.79,300.01 449.93,299.97 451.06,299.97 452.20,300.01 453.34,250.03 454.47,300.01 455.61,300.01 456.75,300.01 457.89,299.97 459.02,300.01 460.16,299.97 461.30,300.01 462.44,299.97 463.57,299.97 464.71,299.93 465.85,300.01 466.99,300.01 468.12,299.89 469.26,299.97 470.40,299.97 471.54,300.06 472.68,249.90 473.81,299.89 474.95,300.01 476.09,299.97 477.23,299.97 478.36,299.97 479.50,300.01 480.64,300.01 481.78,299.97 482.91,299.97 484.05,299.97 485.19,250.03 486.32,299.93 487.46,300.01 488.60,300.01 489.74,299.93 490.88,300.01 492.01,300.01 493.15,299.97 494.29,300.01 495.43,300.01 496.56,300.06 497.70,300.01 498.84,299.97 499.97,299.89 501.11,300.01 502.25,300.01 503.39,249.94 504.52,249.94 505.66,300.01 506.80,300.01 507.94,300.01 509.07,300.01 510.21,299.97 511.35,250.03 512.49,300.01 513.62,300.01 514.76,300.01 515.90,300.01 517.04,250.03 518.17,249.99 519.31,300.01 520.45,299.97 521.59,300.01 522.73,299.97 523.86,300.01 525.00,299.97 526.14,299.97 527.27,299.97 528.41,300.06 529.55,249.99 530.69,300.01 531.82,250.03 532.96,249.94 534.10,249.99 535.24,300.01 536.38,300.06 537.51,300.01 538.65,299.97 539.79,299.97 540.92,300.01 542.06,299.93 543.20,299.89 544.34,299.89 545.47,299.89 546.61,299.89 547.75,299.85 548.89,299.85 550.02,299.89 551.16,299.81 552.30,299.81 553.44,299.81 554.58,299.76 555.71,299.76 556.85,299.76 557.99,299.72 559.12,299.68 560.26,299.60 561.40,299.60 562.54,299.60 563.67,299.56 564.81,299.47 565.95,299.43 567.09,299.43 568.22,299.39 569.36,299.47 570.50,259.82 571.64,338.96 572.77,299.31 573.91,299.31 575.05,299.26 576.19,299.68 577.33,299.68 578.46,299.68 579.60,299.64 580.74,299.14 581.88,299.14 583.01,299.10 584.15,299.10 585.29,299.10 586.42,248.07 587.56,299.06 588.70,299.06 589.84,299.06 590.98,299.06 592.11,299.06 593.25,298.97 594.39,298.97 595.52,298.93 596.66,298.97 597.80,298.93 598.94,298.89 600.08,298.89 601.21,298.89 602.35,298.89 603.49,247.78 604.62,298.89 605.76,298.89 606.90,298.85 608.04,298.85 609.18,298.81 610.31,298.81 611.45,298.81 612.59,298.81 613.73,298.81 614.86,298.81 616.00,298.81 617.14,298.81 618.27,298.81 619.41,298.72 620.55,247.45 621.69,247.45 622.83,298.72 623.96,298.72 625.10,298.72 626.24,298.72 627.38,298.72 628.51,298.72 629.65,247.36 630.79,298.68 631.93,247.36 633.06,247.36 634.20,247.36 635.34,298.68 636.48,298.68 637.61,298.68 638.75,298.68 639.89,298.68 641.02,341.67 642.16,307.01 643.30,298.68 644.44,298.68 645.57,298.68 646.71,247.36 647.85,298.64 648.99,247.36 650.12,247.28 651.26,247.20 652.40,298.60 653.54,298.60 654.67,247.03 655.81,298.51 656.95,298.51 658.09,298.51 659.23,298.51 660.36,298.51 661.50,298.51 662.64,298.51 663.77,298.51 664.91,298.51 666.05,298.51 667.19,298.51 668.32,298.51 669.46,298.51 670.60,298.51 671.74,298.51 672.88,298.51 674.01,298.51 675.15,298.51 676.29,298.51 677.42,298.51 678.56,298.51 679.70,298.51 680.84,298.51 681.98,298.51 683.11,298.51 684.25,298.51 685.39,298.47 686.52,298.51 687.66,298.51 688.80,298.47 689.94,298.51 691.08,298.47 692.21,298.51 693.35,298.43 694.49,298.56 695.62,298.43 696.76,298.43 697.90,298.43 699.04,298.43 700.17,298.43 701.31,298.43 702.45,298.43 703.59,298.43 704.73,298.43 705.86,298.43 707.00,298.43 708.14,298.43 709.27,298.43 710.41,298.43 711.55,298.43 712.69,298.43 713.83,298.43 714.96,298.43 716.10,298.43 717.24,298.43 718.38,298.43 719.51,298.43 720.65,298.43 721.79,298.43 722.93,298.43 724.06,298.43 725.20,298.43 726.34,298.43 727.48,298.43 728.61,298.43 729.75,298.43 730.89,298.43 732.02,298.43 733.16,298.43 734.30,298.39 735.44,298.39 736.58,298.43 737.71,298.43 738.85,298.39 739.99,298.39 741.12,298.39 742.26,298.43 743.40,298.43 744.54,298.43 745.68,246.82 746.81,298.43 747.95,246.78 749.09,246.78 750.23,246.78 751.36,246.70 752.50,246.78 753.64,298.39 754.77,298.39 755.91,298.39 757.05,298.39 758.19,298.39 759.32,246.78 760.46,298.39 761.60,298.39 762.74,298.39 763.88,298.39 765.01,298.39 766.15,246.78 767.29,246.78 768.42,298.39 769.56,298.39 770.70,298.39 771.84,298.39 772.98,298.39 774.11,298.39 775.25,298.39 776.39,298.39 777.52,298.39 778.66,298.39 779.80,298.39 780.94,298.39 782.07,298.39 783.21,298.39 784.35,298.35 785.49,298.39 786.62,298.39 787.76,298.35 788.90,298.35 790.04,298.35 791.17,298.35 792.31,298.35 793.45,298.35 794.59,298.35 795.73,298.35 796.86,298.35 798.00,298.35 799.14,298.35 800.27,298.35 801.41,298.35 802.55,298.35 803.69,298.35 804.83,298.35 805.96,298.35 807.10,298.35 808.24,298.35 809.38,298.35 810.51,298.35 811.65,298.35 812.79,298.35 813.92,298.35 815.06,298.35 816.20,298.35 817.34,298.35 818.48,298.35 819.61,298.35 820.75,298.35 821.89,298.35 823.02,298.35 824.16,298.35 825.30,298.35 826.44,298.35 827.58,298.35 828.71,298.35 829.85,298.35 830.99,298.35 832.12,298.35 833.26,298.35 834.40,298.35 835.54,298.35 836.68,298.35 837.81,298.35 838.95,298.35 840.09,298.35 841.23,298.35 842.36,298.35 843.50,298.35 844.64,298.35 845.77,298.35 846.91,298.39 848.05,298.39 849.19,298.39 850.33,246.78 851.46,298.39 852.60,298.39 853.74,298.39 854.88,298.39 856.01,298.39 857.15,298.39 858.29,298.39 859.43,246.78 860.56,298.39 861.70,298.39 862.84,298.39 863.98,298.39 865.11,298.39 866.25,298.39 867.39,298.39 868.52,246.78 869.66,298.39 870.80,298.39 871.94,298.39 873.07,298.39 874.21,298.39 875.35,298.39 876.49,298.39 877.62,298.39 878.76,298.39 879.90,298.39 881.04,298.39 882.17,298.35 883.31,298.39 884.45,298.39 885.59,298.39 886.73,298.35 887.86,298.35 889.00,298.35 890.14,298.35 891.27,298.35 892.41,298.35 893.55,298.35 894.69,298.35 895.82,298.35 896.96,298.35 898.10,298.35 899.24,298.35 900.38,298.35 901.51,298.35 902.65,298.35 903.79,298.35 904.92,298.39 906.06,298.39 907.20,298.39 908.34,298.39 909.48,298.39 910.61,298.39 911.75,298.35 912.89,298.39 914.02,298.39 915.16,298.39 916.30,298.39 917.44,298.39 918.58,298.39 919.71,298.39 920.85,298.39 921.99,298.39 923.12,298.35 924.26,298.39 925.40,298.39 926.54,298.39 927.67,298.39 928.81,298.39 929.95,298.39 931.09,298.39 932.23,298.39 933.36,298.39 934.50,298.39 935.64,298.39 936.77,298.39 937.91,298.39 939.05,298.39 940.19,298.39 941.33,298.39 942.46,298.35 943.60,298.35 944.74,298.39 945.88,298.39 947.01,298.39 948.15,298.39 949.29,298.39 950.43,298.39 951.56,298.39 952.70,298.39 953.84,298.39 954.98,298.39 956.11,298.35 957.25,298.35 958.39,298.39 959.52,298.39 960.66,298.39 961.80,298.39 962.94,298.39 964.08,298.39 965.21,298.39 966.35,298.39 967.49,298.39 968.62,298.39 969.76,298.39 970.90,298.39 972.04,298.39 973.18,298.39 974.31,298.35 975.45,298.39 976.59,298.39 977.73,298.39 978.86,298.39 980.00,298.39"/>
  <circle cx="70.00" cy="50.00" r="2.5" fill="#2563eb"/>
  <circle cx="71.14" cy="50.12" r="2.5" fill="#2563eb"/>
  <circle cx="72.28" cy="50.17" r="2.5" fill="#2563eb"/>
  <circle cx="73.41" cy="50.46" r="2.5" fill="#2563eb"/>
  <circle cx="74.55" cy="50.00" r="2.5" fill="#2563eb"/>
  <circle cx="75.69" cy="266.90" r="2.5" fill="#2563eb"/>
  <circle cx="76.83" cy="50.12" r="2.5" fill="#2563eb"/>
  <circle cx="77.96" cy="50.08" r="2.5" fill="#2563eb"/>
  <circle cx="79.10" cy="177.46" r="2.5" fill="#2563eb"/>
  <circle cx="80.24" cy="211.58" r="2.5" fill="#2563eb"/>
  <circle cx="81.38" cy="175.34" r="2.5" fill="#2563eb"/>
  <circle cx="82.51" cy="304.14" r="2.5" fill="#2563eb"/>
  <circle cx="83.65" cy="200.46" r="2.5" fill="#2563eb"/>
  <circle cx="84.79" cy="250.94" r="2.5" fill="#2563eb"/>
  <circle cx="85.92" cy="300.01" r="2.5" fill="#2563eb"/>
  <circle cx="87.06" cy="300.06" r="2.5" fill="#2563eb"/>
  <circle cx="88.20" cy="300.01" r="2.5" fill="#2563eb"/>
  <circle cx="89.34" cy="300.01" r="2.5" fill="#2563eb"/>
  <circle cx="90.47" cy="348.00" r="2.5" fill="#2563eb"/>
  <circle cx="91.61" cy="300.01" r="2.5" fill="#2563eb"/>
  <circle cx="92.75" cy="249.99" r="2.5" fill="#2563eb"/>
  <circle cx="93.89" cy="200.00" r="2.5" fill="#2563eb"/>
  <circle cx="95.03" cy="249.99" r="2.5" fill="#2563eb"/>
  <circle cx="96.16" cy="249.99" r="2.5" fill="#2563eb"/>
  <circle cx="97.30" cy="250.03" r="2.5" fill="#2563eb"/>
  <circle cx="98.44" cy="250.03" r="2.5" fill="#2563eb"/>
  <circle cx="99.58" cy="250.03" r="2.5" fill="#2563eb"/>
  <circle cx="100.71" cy="250.40" r="2.5" fill="#2563eb"/>
  <circle cx="101.85" cy="250.90" r="2.5" fill="#2563eb"/>
  <circle cx="102.99" cy="250.90" r="2.5" fill="#2563eb"/>
  <circle cx="104.12" cy="251.32" r="2.5" fill="#2563eb"/>
  <circle cx="105.26" cy="249.94" r="2.5" fill="#2563eb"/>
  <circle cx="106.40" cy="300.01" r="2.5" fill="#2563eb"/>
  <circle cx="107.54" cy="299.93" r="2.5" fill="#2563eb"/>
  <circle cx="108.68" cy="251.03" r="2.5" fill="#2563eb"/>
  <circle cx="109.81" cy="300.68" r="2.5" fill="#2563eb"/>
  <circle cx="110.95" cy="250.03" r="2.5" fill="#2563eb"/>
  <circle cx="112.09" cy="200.00" r="2.5" fill="#2563eb"/>
  <circle cx="113.22" cy="249.99" r="2.5" fill="#2563eb"/>
  <circle cx="114.36" cy="250.03" r="2.5" fill="#2563eb"/>
  <circle cx="115.50" cy="250.03" r="2.5" fill="#2563eb"/>
  <circle cx="116.64" cy="250.03" r="2.5" fill="#2563eb"/>
  <circle cx="117.78" cy="300.01" r="2.5" fill="#2563eb"/>
  <circle cx="118.91" cy="200.04" r="2.5" fill="#2563eb"/>
  <circle cx="120.05" cy="250.03" r="2.5" fill="#2563eb"/>
  <circle cx="121.19" cy="250.03" r="2.5" fill="#2563eb"/>
  <circle cx="122.33" cy="250.03" r="2.5" fill="#2563eb"/>
  <circle cx="123.46" cy="249.90" r="2.5" fill="#2563eb"/>
  <circle cx="124.60" cy="250.03" r="2.5" fill="#2563eb"/>
  <circle cx="125.74" cy="250.03" r="2.5" fill="#2563eb"/>
  <circle cx="126.88" cy="250.94" r="2.5" fill="#2563eb"/>
  <circle cx="128.01" cy="250.44" r="2.5" fill="#2563eb"/>
  <circle cx="129.15" cy="250.03" r="2.5" fill="#2563eb"/>
  <circle cx="130.29" cy="250.03" r="2.5" fill="#2563eb"/>
  <circle cx="131.43" cy="300.47" r="2.5" fill="#2563eb"/>
  <circle cx="132.56" cy="300.01" r="2.5" fill="#2563eb"/>
  <circle cx="133.70" cy="300.43" r="2.5" fill="#2563eb"/>
  <circle cx="134.84" cy="250.03" r="2.5" fill="#2563eb"/>
  <circle cx="135.97" cy="249.99" r="2.5" fill="#2563eb"/>
  <circle cx="137.11" cy="300.43" r="2.5" fill="#2563eb"/>
  <circle cx="138.25" cy="249.90" r="2.5" fill="#2563eb"/>
  <circle cx="139.39" cy="249.99" r="2.5" fill="#2563eb"/>
  <circle cx="140.53" cy="249.99" r="2.5" fill="#2563eb"/>
  <circle cx="141.66" cy="200.04" r="2.5" fill="#2563eb"/>
  <circle cx="142.80" cy="300.01" r="2.5" fill="#2563eb"/>
  <circle cx="143.94" cy="300.01" r="2.5" fill="#2563eb"/>
  <circle cx="145.07" cy="300.01" r="2.5" fill="#2563eb"/>
  <circle cx="146.21" cy="249.90" r="2.5" fill="#2563eb"/>
  <circle cx="147.35" cy="300.01" r="2.5" fill="#2563eb"/>
  <circle cx="148.49" cy="250.03" r="2.5" fill="#2563eb"/>
  <circle cx="149.62" cy="249.99" r="2.5" fill="#2563eb"/>
  <circle cx="150.76" cy="199.96" r="2.5" fill="#2563eb"/>
  <circle cx="151.90" cy="300.01" r="2.5" fill="#2563eb"/>
  <circle cx="153.04" cy="200.00" r="2.5" fill="#2563eb"/>
  <circle cx="154.18" cy="250.36" r="2.5" fill="#2563eb"/>
  <circle cx="155.31" cy="250.03" r="2.5" fill="#2563eb"/>
  <circle cx="156.45" cy="300.01" r="2.5" fill="#2563eb"/>
  <circle cx="157.59" cy="300.01" r="2.5" fill="#2563eb"/>
  <circle cx="158.73" cy="250.44" r="2.5" fill="#2563eb"/>
  <circle cx="159.86" cy="300.01" r="2.5" fill="#2563eb"/>
  <circle cx="161.00" cy="250.03" r="2.5" fill="#2563eb"/>
  <circle cx="162.14" cy="250.03" r="2.5" fill="#2563eb"/>
  <circle cx="163.27" cy="249.99" r="2.5" fill="#2563eb"/>
  <circle cx="164.41" cy="250.49" r="2.5" fill="#2563eb"/>
  <circle cx="165.55" cy="250.03" r="2.5" fill="#2563eb"/>
  <circle cx="166.69" cy="200.04" r="2.5" fill="#2563eb"/>
  <circle cx="167.82" cy="300.01" r="2.5" fill="#2563eb"/>
  <circle cx="168.96" cy="250.03" r="2.5" fill="#2563eb"/>
  <circle cx="170.10" cy="300.01" r="2.5" fill="#2563eb"/>
  <circle cx="171.24" cy="250.11" r="2.5" fill="#2563eb"/>
  <circle cx="172.38" cy="300.01" r="2.5" fill="#2563eb"/>
  <circle cx="173.51" cy="250.03" r="2.5" fill="#2563eb"/>
  <circle cx="174.65" cy="250.03" r="2.5" fill="#2563eb"/>
  <circle cx="175.79" cy="199.92" r="2.5" fill="#2563eb"/>
  <circle cx="176.93" cy="250.03" r="2.5" fill="#2563eb"/>
  <circle cx="178.06" cy="250.03" r="2.5" fill="#2563eb"/>
  <circle cx="179.20" cy="250.03" r="2.5" fill="#2563eb"/>
  <circle cx="180.34" cy="254.36" r="2.5" fill="#2563eb"/>
  <circle cx="181.47" cy="300.01" r="2.5" fill="#2563eb"/>
  <circle cx="182.61" cy="299.97" r="2.5" fill="#2563eb"/>
  <circle cx="183.75" cy="250.36" r="2.5" fill="#2563eb"/>
  <circle cx="184.89" cy="299.97" r="2.5" fill="#2563eb"/>
  <circle cx="186.03" cy="250.03" r="2.5" fill="#2563eb"/>
  <circle cx="187.16" cy="250.03" r="2.5" fill="#2563eb"/>
  <circle cx="188.30" cy="250.03" r="2.5" fill="#2563eb"/>
  <circle cx="189.44" cy="250.03" r="2.5" fill="#2563eb"/>
  <circle cx="190.57" cy="249.99" r="2.5" fill="#2563eb"/>
  <circle cx="191.71" cy="200.00" r="2.5" fill="#2563eb"/>
  <circle cx="192.85" cy="299.93" r="2.5" fill="#2563eb"/>
  <circle cx="193.99" cy="300.01" r="2.5" fill="#2563eb"/>
  <circle cx="195.12" cy="299.97" r="2.5" fill="#2563eb"/>
  <circle cx="196.26" cy="249.94" r="2.5" fill="#2563eb"/>
  <circle cx="197.40" cy="249.99" r="2.5" fill="#2563eb"/>
  <circle cx="198.54" cy="249.82" r="2.5" fill="#2563eb"/>
  <circle cx="199.67" cy="249.94" r="2.5" fill="#2563eb"/>
  <circle cx="200.81" cy="250.28" r="2.5" fill="#2563eb"/>
  <circle cx="201.95" cy="207.00" r="2.5" fill="#2563eb"/>
  <circle cx="203.09" cy="250.03" r="2.5" fill="#2563eb"/>
  <circle cx="204.22" cy="250.32" r="2.5" fill="#2563eb"/>
  <circle cx="205.36" cy="250.40" r="2.5" fill="#2563eb"/>
  <circle cx="206.50" cy="300.93" r="2.5" fill="#2563eb"/>
  <circle cx="207.64" cy="300.01" r="2.5" fill="#2563eb"/>
  <circle cx="208.78" cy="300.10" r="2.5" fill="#2563eb"/>
  <circle cx="209.91" cy="249.94" r="2.5" fill="#2563eb"/>
  <circle cx="211.05" cy="249.99" r="2.5" fill="#2563eb"/>
  <circle cx="212.19" cy="250.07" r="2.5" fill="#2563eb"/>
  <circle cx="213.32" cy="249.99" r="2.5" fill="#2563eb"/>
  <circle cx="214.46" cy="250.03" r="2.5" fill="#2563eb"/>
  <circle cx="215.60" cy="249.94" r="2.5" fill="#2563eb"/>
  <circle cx="216.74" cy="200.00" r="2.5" fill="#2563eb"/>
  <circle cx="217.88" cy="300.39" r="2.5" fill="#2563eb"/>
  <circle cx="219.01" cy="300.01" r="2.5" fill="#2563eb"/>
  <circle cx="220.15" cy="300.01" r="2.5" fill="#2563eb"/>
  <circle cx="221.29" cy="250.44" r="2.5" fill="#2563eb"/>
  <circle cx="222.43" cy="300.39" r="2.5" fill="#2563eb"/>
  <circle cx="223.56" cy="249.86" r="2.5" fill="#2563eb"/>
  <circle cx="224.70" cy="250.11" r="2.5" fill="#2563eb"/>
  <circle cx="225.84" cy="201.46" r="2.5" fill="#2563eb"/>
  <circle cx="226.97" cy="300.01" r="2.5" fill="#2563eb"/>
  <circle cx="228.11" cy="200.83" r="2.5" fill="#2563eb"/>
  <circle cx="229.25" cy="250.03" r="2.5" fill="#2563eb"/>
  <circle cx="230.39" cy="249.99" r="2.5" fill="#2563eb"/>
  <circle cx="231.53" cy="300.26" r="2.5" fill="#2563eb"/>
  <circle cx="232.66" cy="300.01" r="2.5" fill="#2563eb"/>
  <circle cx="233.80" cy="300.01" r="2.5" fill="#2563eb"/>
  <circle cx="234.94" cy="250.03" r="2.5" fill="#2563eb"/>
  <circle cx="236.07" cy="250.03" r="2.5" fill="#2563eb"/>
  <circle cx="237.21" cy="250.03" r="2.5" fill="#2563eb"/>
  <circle cx="238.35" cy="250.03" r="2.5" fill="#2563eb"/>
  <circle cx="239.49" cy="249.99" r="2.5" fill="#2563eb"/>
  <circle cx="240.62" cy="250.03" r="2.5" fill="#2563eb"/>
  <circle cx="241.76" cy="200.00" r="2.5" fill="#2563eb"/>
  <circle cx="242.90" cy="300.26" r="2.5" fill="#2563eb"/>
  <circle cx="244.04" cy="249.99" r="2.5" fill="#2563eb"/>
  <circle cx="245.18" cy="300.01" r="2.5" fill="#2563eb"/>
  <circle cx="246.31" cy="249.94" r="2.5" fill="#2563eb"/>
  <circle cx="247.45" cy="250.03" r="2.5" fill="#2563eb"/>
  <circle cx="248.59" cy="250.03" r="2.5" fill="#2563eb"/>
  <circle cx="249.72" cy="250.03" r="2.5" fill="#2563eb"/>
  <circle cx="250.86" cy="200.04" r="2.5" fill="#2563eb"/>
  <circle cx="252.00" cy="300.01" r="2.5" fill="#2563eb"/>
  <circle cx="253.14" cy="249.90" r="2.5" fill="#2563eb"/>
  <circle cx="254.28" cy="300.01" r="2.5" fill="#2563eb"/>
  <circle cx="255.41" cy="300.01" r="2.5" fill="#2563eb"/>
  <circle cx="256.55" cy="300.06" r="2.5" fill="#2563eb"/>
  <circle cx="257.69" cy="300.01" r="2.5" fill="#2563eb"/>
  <circle cx="258.82" cy="300.01" r="2.5" fill="#2563eb"/>
  <circle cx="259.96" cy="243.95" r="2.5" fill="#2563eb"/>
  <circle cx="261.10" cy="249.94" r="2.5" fill="#2563eb"/>
  <circle cx="262.24" cy="299.97" r="2.5" fill="#2563eb"/>
  <circle cx="263.38" cy="300.01" r="2.5" fill="#2563eb"/>
  <circle cx="264.51" cy="300.01" r="2.5" fill="#2563eb"/>
  <circle cx="265.65" cy="250.03" r="2.5" fill="#2563eb"/>
  <circle cx="266.79" cy="300.01" r="2.5" fill="#2563eb"/>
  <circle cx="267.93" cy="300.01" r="2.5" fill="#2563eb"/>
  <circle cx="269.06" cy="299.97" r="2.5" fill="#2563eb"/>
  <circle cx="270.20" cy="249.99" r="2.5" fill="#2563eb"/>
  <circle cx="271.34" cy="300.01" r="2.5" fill="#2563eb"/>
  <circle cx="272.48" cy="299.93" r="2.5" fill="#2563eb"/>
  <circle cx="273.61" cy="300.01" r="2.5" fill="#2563eb"/>
  <circle cx="274.75" cy="299.93" r="2.5" fill="#2563eb"/>
  <circle cx="275.89" cy="300.01" r="2.5" fill="#2563eb"/>
  <circle cx="277.02" cy="300.01" r="2.5" fill="#2563eb"/>
  <circle cx="278.16" cy="299.89" r="2.5" fill="#2563eb"/>
  <circle cx="279.30" cy="299.97" r="2.5" fill="#2563eb"/>
  <circle cx="280.44" cy="250.03" r="2.5" fill="#2563eb"/>
  <circle cx="281.58" cy="299.93" r="2.5" fill="#2563eb"/>
  <circle cx="282.71" cy="299.89" r="2.5" fill="#2563eb"/>
  <circle cx="283.85" cy="299.97" r="2.5" fill="#2563eb"/>
  <circle cx="284.99" cy="249.94" r="2.5" fill="#2563eb"/>
  <circle cx="286.12" cy="300.01" r="2.5" fill="#2563eb"/>
  <circle cx="287.26" cy="300.01" r="2.5" fill="#2563eb"/>
  <circle cx="288.40" cy="299.97" r="2.5" fill="#2563eb"/>
  <circle cx="289.54" cy="249.99" r="2.5" fill="#2563eb"/>
  <circle cx="290.67" cy="299.97" r="2.5" fill="#2563eb"/>
  <circle cx="291.81" cy="299.97" r="2.5" fill="#2563eb"/>
  <circle cx="292.95" cy="300.06" r="2.5" fill="#2563eb"/>
  <circle cx="294.09" cy="300.06" r="2.5" fill="#2563eb"/>
  <circle cx="295.23" cy="299.93" r="2.5" fill="#2563eb"/>
  <circle cx="296.36" cy="300.01" r="2.5" fill="#2563eb"/>
  <circle cx="297.50" cy="300.01" r="2.5" fill="#2563eb"/>
  <circle cx="298.64" cy="299.93" r="2.5" fill="#2563eb"/>
  <circle cx="299.77" cy="300.01" r="2.5" fill="#2563eb"/>
  <circle cx="300.91" cy="300.01" r="2.5" fill="#2563eb"/>
  <circle cx="302.05" cy="299.97" r="2.5" fill="#2563eb"/>
  <circle cx="303.19" cy="300.01" r="2.5" fill="#2563eb"/>
  <circle cx="304.33" cy="300.01" r="2.5" fill="#2563eb"/>
  <circle cx="305.46" cy="300.01" r="2.5" fill="#2563eb"/>
  <circle cx="306.60" cy="300.01" r="2.5" fill="#2563eb"/>
  <circle cx="307.74" cy="249.86" r="2.5" fill="#2563eb"/>
  <circle cx="308.88" cy="300.01" r="2.5" fill="#2563eb"/>
  <circle cx="310.01" cy="300.10" r="2.5" fill="#2563eb"/>
  <circle cx="311.15" cy="299.93" r="2.5" fill="#2563eb"/>
  <circle cx="312.29" cy="300.01" r="2.5" fill="#2563eb"/>
  <circle cx="313.43" cy="299.93" r="2.5" fill="#2563eb"/>
  <circle cx="314.56" cy="300.01" r="2.5" fill="#2563eb"/>
  <circle cx="315.70" cy="300.01" r="2.5" fill="#2563eb"/>
  <circle cx="316.84" cy="300.01" r="2.5" fill="#2563eb"/>
  <circle cx="317.98" cy="300.01" r="2.5" fill="#2563eb"/>
  <circle cx="319.11" cy="300.01" r="2.5" fill="#2563eb"/>
  <circle cx="320.25" cy="299.97" r="2.5" fill="#2563eb"/>
  <circle cx="321.39" cy="300.01" r="2.5" fill="#2563eb"/>
  <circle cx="322.53" cy="300.01" r="2.5" fill="#2563eb"/>
  <circle cx="323.66" cy="300.01" r="2.5" fill="#2563eb"/>
  <circle cx="324.80" cy="300.01" r="2.5" fill="#2563eb"/>
  <circle cx="325.94" cy="250.03" r="2.5" fill="#2563eb"/>
  <circle cx="327.07" cy="300.01" r="2.5" fill="#2563eb"/>
  <circle cx="328.21" cy="300.01" r="2.5" fill="#2563eb"/>
  <circle cx="329.35" cy="299.97" r="2.5" fill="#2563eb"/>
  <circle cx="330.49" cy="300.01" r="2.5" fill="#2563eb"/>
  <circle cx="331.62" cy="300.01" r="2.5" fill="#2563eb"/>
  <circle cx="332.76" cy="299.97" r="2.5" fill="#2563eb"/>
  <circle cx="333.90" cy="299.97" r="2.5" fill="#2563eb"/>
  <circle cx="335.04" cy="300.01" r="2.5" fill="#2563eb"/>
  <circle cx="336.18" cy="299.97" r="2.5" fill="#2563eb"/>
  <circle cx="337.31" cy="300.01" r="2.5" fill="#2563eb"/>
  <circle cx="338.45" cy="299.93" r="2.5" fill="#2563eb"/>
  <circle cx="339.59" cy="300.01" r="2.5" fill="#2563eb"/>
  <circle cx="340.72" cy="250.03" r="2.5" fill="#2563eb"/>
  <circle cx="341.86" cy="300.01" r="2.5" fill="#2563eb"/>
  <circle cx="343.00" cy="300.01" r="2.5" fill="#2563eb"/>
  <circle cx="344.14" cy="300.01" r="2.5" fill="#2563eb"/>
  <circle cx="345.27" cy="300.01" r="2.5" fill="#2563eb"/>
  <circle cx="346.41" cy="300.01" r="2.5" fill="#2563eb"/>
  <circle cx="347.55" cy="299.89" r="2.5" fill="#2563eb"/>
  <circle cx="348.69" cy="300.01" r="2.5" fill="#2563eb"/>
  <circle cx="349.82" cy="300.01" r="2.5" fill="#2563eb"/>
  <circle cx="350.96" cy="250.07" r="2.5" fill="#2563eb"/>
  <circle cx="352.10" cy="300.01" r="2.5" fill="#2563eb"/>
  <circle cx="353.24" cy="299.93" r="2.5" fill="#2563eb"/>
  <circle cx="354.38" cy="300.01" r="2.5" fill="#2563eb"/>
  <circle cx="355.51" cy="299.97" r="2.5" fill="#2563eb"/>
  <circle cx="356.65" cy="299.97" r="2.5" fill="#2563eb"/>
  <circle cx="357.79" cy="299.97" r="2.5" fill="#2563eb"/>
  <circle cx="358.93" cy="250.03" r="2.5" fill="#2563eb"/>
  <circle cx="360.06" cy="300.01" r="2.5" fill="#2563eb"/>
  <circle cx="361.20" cy="300.01" r="2.5" fill="#2563eb"/>
  <circle cx="362.34" cy="300.01" r="2.5" fill="#2563eb"/>
  <circle cx="363.48" cy="300.01" r="2.5" fill="#2563eb"/>
  <circle cx="364.61" cy="299.97" r="2.5" fill="#2563eb"/>
  <circle cx="365.75" cy="300.01" r="2.5" fill="#2563eb"/>
  <circle cx="366.89" cy="299.97" r="2.5" fill="#2563eb"/>
  <circle cx="368.03" cy="300.01" r="2.5" fill="#2563eb"/>
  <circle cx="369.16" cy="299.97" r="2.5" fill="#2563eb"/>
  <circle cx="370.30" cy="249.90" r="2.5" fill="#2563eb"/>
  <circle cx="371.44" cy="300.01" r="2.5" fill="#2563eb"/>
  <circle cx="372.57" cy="300.01" r="2.5" fill="#2563eb"/>
  <circle cx="373.71" cy="299.89" r="2.5" fill="#2563eb"/>
  <circle cx="374.85" cy="299.97" r="2.5" fill="#2563eb"/>
  <circle cx="375.99" cy="299.97" r="2.5" fill="#2563eb"/>
  <circle cx="377.12" cy="249.99" r="2.5" fill="#2563eb"/>
  <circle cx="378.26" cy="299.97" r="2.5" fill="#2563eb"/>
  <circle cx="379.40" cy="299.89" r="2.5" fill="#2563eb"/>
  <circle cx="380.54" cy="300.01" r="2.5" fill="#2563eb"/>
  <circle cx="381.68" cy="299.97" r="2.5" fill="#2563eb"/>
  <circle cx="382.81" cy="299.97" r="2.5" fill="#2563eb"/>
  <circle cx="383.95" cy="300.01" r="2.5" fill="#2563eb"/>
  <circle cx="385.09" cy="299.97" r="2.5" fill="#2563eb"/>
  <circle cx="386.22" cy="249.99" r="2.5" fill="#2563eb"/>
  <circle cx="387.36" cy="299.97" r="2.5" fill="#2563eb"/>
  <circle cx="388.50" cy="299.97" r="2.5" fill="#2563eb"/>
  <circle cx="389.64" cy="300.06" r="2.5" fill="#2563eb"/>
  <circle cx="390.77" cy="300.06" r="2.5" fill="#2563eb"/>
  <circle cx="391.91" cy="249.94" r="2.5" fill="#2563eb"/>
  <circle cx="393.05" cy="300.01" r="2.5" fill="#2563eb"/>
  <circle cx="394.19" cy="299.93" r="2.5" fill="#2563eb"/>
  <circle cx="395.32" cy="300.01" r="2.5" fill="#2563eb"/>
  <circle cx="396.46" cy="300.01" r="2.5" fill="#2563eb"/>
  <circle cx="397.60" cy="249.99" r="2.5" fill="#2563eb"/>
  <circle cx="398.74" cy="300.01" r="2.5" fill="#2563eb"/>
  <circle cx="399.88" cy="300.01" r="2.5" fill="#2563eb"/>
  <circle cx="401.01" cy="300.01" r="2.5" fill="#2563eb"/>
  <circle cx="402.15" cy="299.93" r="2.5" fill="#2563eb"/>
  <circle cx="403.29" cy="299.93" r="2.5" fill="#2563eb"/>
  <circle cx="404.43" cy="300.01" r="2.5" fill="#2563eb"/>
  <circle cx="405.56" cy="300.01" r="2.5" fill="#2563eb"/>
  <circle cx="406.70" cy="249.94" r="2.5" fill="#2563eb"/>
  <circle cx="407.84" cy="299.97" r="2.5" fill="#2563eb"/>
  <circle cx="408.98" cy="299.97" r="2.5" fill="#2563eb"/>
  <circle cx="410.11" cy="300.01" r="2.5" fill="#2563eb"/>
  <circle cx="411.25" cy="300.01" r="2.5" fill="#2563eb"/>
  <circle cx="412.39" cy="300.01" r="2.5" fill="#2563eb"/>
  <circle cx="413.52" cy="249.99" r="2.5" fill="#2563eb"/>
  <circle cx="414.66" cy="300.01" r="2.5" fill="#2563eb"/>
  <circle cx="415.80" cy="300.01" r="2.5" fill="#2563eb"/>
  <circle cx="416.94" cy="300.01" r="2.5" fill="#2563eb"/>
  <circle cx="418.07" cy="250.03" r="2.5" fill="#2563eb"/>
  <circle cx="419.21" cy="300.01" r="2.5" fill="#2563eb"/>
  <circle cx="420.35" cy="300.01" r="2.5" fill="#2563eb"/>
  <circle cx="421.49" cy="300.01" r="2.5" fill="#2563eb"/>
  <circle cx="422.62" cy="299.97" r="2.5" fill="#2563eb"/>
  <circle cx="423.76" cy="300.01" r="2.5" fill="#2563eb"/>
  <circle cx="424.90" cy="300.01" r="2.5" fill="#2563eb"/>
  <circle cx="426.04" cy="299.97" r="2.5" fill="#2563eb"/>
  <circle cx="427.18" cy="299.97" r="2.5" fill="#2563eb"/>
  <circle cx="428.31" cy="300.01" r="2.5" fill="#2563eb"/>
  <circle cx="429.45" cy="300.01" r="2.5" fill="#2563eb"/>
  <circle cx="430.59" cy="299.97" r="2.5" fill="#2563eb"/>
  <circle cx="431.73" cy="299.93" r="2.5" fill="#2563eb"/>
  <circle cx="432.86" cy="300.01" r="2.5" fill="#2563eb"/>
  <circle cx="434.00" cy="300.06" r="2.5" fill="#2563eb"/>
  <circle cx="435.14" cy="299.97" r="2.5" fill="#2563eb"/>
  <circle cx="436.28" cy="300.01" r="2.5" fill="#2563eb"/>
  <circle cx="437.41" cy="250.03" r="2.5" fill="#2563eb"/>
  <circle cx="438.55" cy="250.03" r="2.5" fill="#2563eb"/>
  <circle cx="439.69" cy="299.93" r="2.5" fill="#2563eb"/>
  <circle cx="440.82" cy="299.97" r="2.5" fill="#2563eb"/>
  <circle cx="441.96" cy="300.01" r="2.5" fill="#2563eb"/>
  <circle cx="443.10" cy="300.01" r="2.5" fill="#2563eb"/>
  <circle cx="444.24" cy="300.06" r="2.5" fill="#2563eb"/>
  <circle cx="445.38" cy="300.01" r="2.5" fill="#2563eb"/>
  <circle cx="446.51" cy="299.93" r="2.5" fill="#2563eb"/>
  <circle cx="447.65" cy="300.01" r="2.5" fill="#2563eb"/>
  <circle cx="448.79" cy="300.01" r="2.5" fill="#2563eb"/>
  <circle cx="449.93" cy="299.97" r="2.5" fill="#2563eb"/>
  <circle cx="451.06" cy="299.97" r="2.5" fill="#2563eb"/>
  <circle cx="452.20" cy="300.01" r="2.5" fill="#2563eb"/>
  <circle cx="453.34" cy="250.03" r="2.5" fill="#2563eb"/>
  <circle cx="454.47" cy="300.01" r="2.5" fill="#2563eb"/>
  <circle cx="455.61" cy="300.01" r="2.5" fill="#2563eb"/>
  <circle cx="456.75" cy="300.01" r="2.5" fill="#2563eb"/>
  <circle cx="457.89" cy="299.97" r="2.5" fill="#2563eb"/>
  <circle cx="459.02" cy="300.01" r="2.5" fill="#2563eb"/>
  <circle cx="460.16" cy="299.97" r="2.5" fill="#2563eb"/>
  <circle cx="461.30" cy="300.01" r="2.5" fill="#2563eb"/>
  <circle cx="462.44" cy="299.97" r="2.5" fill="#2563eb"/>
  <circle cx="463.57" cy="299.97" r="2.5" fill="#2563eb"/>
  <circle cx="464.71" cy="299.93" r="2.5" fill="#2563eb"/>
  <circle cx="465.85" cy="300.01" r="2.5" fill="#2563eb"/>
  <circle cx="466.99" cy="300.01" r="2.5" fill="#2563eb"/>
  <circle cx="468.12" cy="299.89" r="2.5" fill="#2563eb"/>
  <circle cx="469.26" cy="299.97" r="2.5" fill="#2563eb"/>
  <circle cx="470.40" cy="299.97" r="2.5" fill="#2563eb"/>
  <circle cx="471.54" cy="300.06" r="2.5" fill="#2563eb"/>
  <circle cx="472.68" cy="249.90" r="2.5" fill="#2563eb"/>
  <circle cx="473.81" cy="299.89" r="2.5" fill="#2563eb"/>
  <circle cx="474.95" cy="300.01" r="2.5" fill="#2563eb"/>
  <circle cx="476.09" cy="299.97" r="2.5" fill="#2563eb"/>
  <circle cx="477.23" cy="299.97" r="2.5" fill="#2563eb"/>
  <circle cx="478.36" cy="299.97" r="2.5" fill="#2563eb"/>
  <circle cx="479.50" cy="300.01" r="2.5" fill="#2563eb"/>
  <circle cx="480.64" cy="300.01" r="2.5" fill="#2563eb"/>
  <circle cx="481.78" cy="299.97" r="2.5" fill="#2563eb"/>
  <circle cx="482.91" cy="299.97" r="2.5" fill="#2563eb"/>
  <circle cx="484.05" cy="299.97" r="2.5" fill="#2563eb"/>
  <circle cx="485.19" cy="250.03" r="2.5" fill="#2563eb"/>
  <circle cx="486.32" cy="299.93" r="2.5" fill="#2563eb"/>
  <circle cx="487.46" cy="300.01" r="2.5" fill="#2563eb"/>
  <circle cx="488.60" cy="300.01" r="2.5" fill="#2563eb"/>
  <circle cx="489.74" cy="299.93" r="2.5" fill="#2563eb"/>
  <circle cx="490.88" cy="300.01" r="2.5" fill="#2563eb"/>
  <circle cx="492.01" cy="300.01" r="2.5" fill="#2563eb"/>
  <circle cx="493.15" cy="299.97" r="2.5" fill="#2563eb"/>
  <circle cx="494.29" cy="300.01" r="2.5" fill="#2563eb"/>
  <circle cx="495.43" cy="300.01" r="2.5" fill="#2563eb"/>
  <circle cx="496.56" cy="300.06" r="2.5" fill="#2563eb"/>
  <circle cx="497.70" cy="300.01" r="2.5" fill="#2563eb"/>
  <circle cx="498.84" cy="299.97" r="2.5" fill="#2563eb"/>
  <circle cx="499.97" cy="299.89" r="2.5" fill="#2563eb"/>
  <circle cx="501.11" cy="300.01" r="2.5" fill="#2563eb"/>
  <circle cx="502.25" cy="300.01" r="2.5" fill="#2563eb"/>
  <circle cx="503.39" cy="249.94" r="2.5" fill="#2563eb"/>
  <circle cx="504.52" cy="249.94" r="2.5" fill="#2563eb"/>
  <circle cx="505.66" cy="300.01" r="2.5" fill="#2563eb"/>
  <circle cx="506.80" cy="300.01" r="2.5" fill="#2563eb"/>
  <circle cx="507.94" cy="300.01" r="2.5" fill="#2563eb"/>
  <circle cx="509.07" cy="300.01" r="2.5" fill="#2563eb"/>
  <circle cx="510.21" cy="299.97" r="2.5" fill="#2563eb"/>
  <circle cx="511.35" cy="250.03" r="2.5" fill="#2563eb"/>
  <circle cx="512.49" cy="300.01" r="2.5" fill="#2563eb"/>
  <circle cx="513.62" cy="300.01" r="2.5" fill="#2563eb"/>
  <circle cx="514.76" cy="300.01" r="2.5" fill="#2563eb"/>
  <circle cx="515.90" cy="300.01" r="2.5" fill="#2563eb"/>
  <circle cx="517.04" cy="250.03" r="2.5" fill="#2563eb"/>
  <circle cx="518.17" cy="249.99" r="2.5" fill="#2563eb"/>
  <circle cx="519.31" cy="300.01" r="2.5" fill="#2563eb"/>
  <circle cx="520.45" cy="299.97" r="2.5" fill="#2563eb"/>
  <circle cx="521.59" cy="300.01" r="2.5" fill="#2563eb"/>
  <circle cx="522.73" cy="299.97" r="2.5" fill="#2563eb"/>
  <circle cx="523.86" cy="300.01" r="2.5" fill="#2563eb"/>
  <circle cx="525.00" cy="299.97" r="2.5" fill="#2563eb"/>
  <circle cx="526.14" cy="299.97" r="2.5" fill="#2563eb"/>
  <circle cx="527.27" cy="299.97" r="2.5" fill="#2563eb"/>
  <circle cx="528.41" cy="300.06" r="2.5" fill="#2563eb"/>
  <circle cx="529.55" cy="249.99" r="2.5" fill="#2563eb"/>
  <circle cx="530.69" cy="300.01" r="2.5" fill="#2563eb"/>
  <circle cx="531.82" cy="250.03" r="2.5" fill="#2563eb"/>
  <circle cx="532.96" cy="249.94" r="2.5" fill="#2563eb"/>
  <circle cx="534.10" cy="249.99" r="2.5" fill="#2563eb"/>
  <circle cx="535.24" cy="300.01" r="2.5" fill="#2563eb"/>
  <circle cx="536.38" cy="300.06" r="2.5" fill="#2563eb"/>
  <circle cx="537.51" cy="300.01" r="2.5" fill="#2563eb"/>
  <circle cx="538.65" cy="299.97" r="2.5" fill="#2563eb"/>
  <circle cx="539.79" cy="299.97" r="2.5" fill="#2563eb"/>
  <circle cx="540.92" cy="300.01" r="2.5" fill="#2563eb"/>
  <circle cx="542.06" cy="299.93" r="2.5" fill="#2563eb"/>
  <circle cx="543.20" cy="299.89" r="2.5" fill="#2563eb"/>
  <circle cx="544.34" cy="299.89" r="2.5" fill="#2563eb"/>
  <circle cx="545.47" cy="299.89" r="2.5" fill="#2563eb"/>
  <circle cx="546.61" cy="299.89" r="2.5" fill="#2563eb"/>
  <circle cx="547.75" cy="299.85" r="2.5" fill="#2563eb"/>
  <circle cx="548.89" cy="299.85" r="2.5" fill="#2563eb"/>
  <circle cx="550.02" cy="299.89" r="2.5" fill="#2563eb"/>
  <circle cx="551.16" cy="299.81" r="2.5" fill="#2563eb"/>
  <circle cx="552.30" cy="299.81" r="2.5" fill="#2563eb"/>
  <circle cx="553.44" cy="299.81" r="2.5" fill="#2563eb"/>
  <circle cx="554.58" cy="299.76" r="2.5" fill="#2563eb"/>
  <circle cx="555.71" cy="299.76" r="2.5" fill="#2563eb"/>
  <circle cx="556.85" cy="299.76" r="2.5" fill="#2563eb"/>
  <circle cx="557.99" cy="299.72" r="2.5" fill="#2563eb"/>
  <circle cx="559.12" cy="299.68" r="2.5" fill="#2563eb"/>
  <circle cx="560.26" cy="299.60" r="2.5" fill="#2563eb"/>
  <circle cx="561.40" cy="299.60" r="2.5" fill="#2563eb"/>
  <circle cx="562.54" cy="299.60" r="2.5" fill="#2563eb"/>
  <circle cx="563.67" cy="299.56" r="2.5" fill="#2563eb"/>
  <circle cx="564.81" cy="299.47" r="2.5" fill="#2563eb"/>
  <circle cx="565.95" cy="299.43" r="2.5" fill="#2563eb"/>
  <circle cx="567.09" cy="299.43" r="2.5" fill="#2563eb"/>
  <circle cx="568.22" cy="299.39" r="2.5" fill="#2563eb"/>
  <circle cx="569.36" cy="299.47" r="2.5" fill="#2563eb"/>
  <circle cx="570.50" cy="259.82" r="2.5" fill="#2563eb"/>
  <circle cx="571.64" cy="338.96" r="2.5" fill="#2563eb"/>
  <circle cx="572.77" cy="299.31" r="2.5" fill="#2563eb"/>
  <circle cx="573.91" cy="299.31" r="2.5" fill="#2563eb"/>
  <circle cx="575.05" cy="299.26" r="2.5" fill="#2563eb"/>
  <circle cx="576.19" cy="299.68" r="2.5" fill="#2563eb"/>
  <circle cx="577.33" cy="299.68" r="2.5" fill="#2563eb"/>
  <circle cx="578.46" cy="299.68" r="2.5" fill="#2563eb"/>
  <circle cx="579.60" cy="299.64" r="2.5" fill="#2563eb"/>
  <circle cx="580.74" cy="299.14" r="2.5" fill="#2563eb"/>
  <circle cx="581.88" cy="299.14" r="2.5" fill="#2563eb"/>
  <circle cx="583.01" cy="299.10" r="2.5" fill="#2563eb"/>
  <circle cx="584.15" cy="299.10" r="2.5" fill="#2563eb"/>
  <circle cx="585.29" cy="299.10" r="2.5" fill="#2563eb"/>
  <circle cx="586.42" cy="248.07" r="2.5" fill="#2563eb"/>
  <circle cx="587.56" cy="299.06" r="2.5" fill="#2563eb"/>
  <circle cx="588.70" cy="299.06" r="2.5" fill="#2563eb"/>
  <circle cx="589.84" cy="299.06" r="2.5" fill="#2563eb"/>
  <circle cx="590.98" cy="299.06" r="2.5" fill="#2563eb"/>
  <circle cx="592.11" cy="299.06" r="2.5" fill="#2563eb"/>
  <circle cx="593.25" cy="298.97" r="2.5" fill="#2563eb"/>
  <circle cx="594.39" cy="298.97" r="2.5" fill="#2563eb"/>
  <circle cx="595.52" cy="298.93" r="2.5" fill="#2563eb"/>
  <circle cx="596.66" cy="298.97" r="2.5" fill="#2563eb"/>
  <circle cx="597.80" cy="298.93" r="2.5" fill="#2563eb"/>
  <circle cx="598.94" cy="298.89" r="2.5" fill="#2563eb"/>
  <circle cx="600.08" cy="298.89" r="2.5" fill="#2563eb"/>
  <circle cx="601.21" cy="298.89" r="2.5" fill="#2563eb"/>
  <circle cx="602.35" cy="298.89" r="2.5" fill="#2563eb"/>
  <circle cx="603.49" cy="247.78" r="2.5" fill="#2563eb"/>
  <circle cx="604.62" cy="298.89" r="2.5" fill="#2563eb"/>
  <circle cx="605.76" cy="298.89" r="2.5" fill="#2563eb"/>
  <circle cx="606.90" cy="298.85" r="2.5" fill="#2563eb"/>
  <circle cx="608.04" cy="298.85" r="2.5" fill="#2563eb"/>
  <circle cx="609.18" cy="298.81" r="2.5" fill="#2563eb"/>
  <circle cx="610.31" cy="298.81" r="2.5" fill="#2563eb"/>
  <circle cx="611.45" cy="298.81" r="2.5" fill="#2563eb"/>
  <circle cx="612.59" cy="298.81" r="2.5" fill="#2563eb"/>
  <circle cx="613.73" cy="298.81" r="2.5" fill="#2563eb"/>
  <circle cx="614.86" cy="298.81" r="2.5" fill="#2563eb"/>
  <circle cx="616.00" cy="298.81" r="2.5" fill="#2563eb"/>
  <circle cx="617.14" cy="298.81" r="2.5" fill="#2563eb"/>
  <circle cx="618.27" cy="298.81" r="2.5" fill="#2563eb"/>
  <circle cx="619.41" cy="298.72" r="2.5" fill="#2563eb"/>
  <circle cx="620.55" cy="247.45" r="2.5" fill="#2563eb"/>
  <circle cx="621.69" cy="247.45" r="2.5" fill="#2563eb"/>
  <circle cx="622.83" cy="298.72" r="2.5" fill="#2563eb"/>
  <circle cx="623.96" cy="298.72" r="2.5" fill="#2563eb"/>
  <circle cx="625.10" cy="298.72" r="2.5" fill="#2563eb"/>
  <circle cx="626.24" cy="298.72" r="2.5" fill="#2563eb"/>
  <circle cx="627.38" cy="298.72" r="2.5" fill="#2563eb"/>
  <circle cx="628.51" cy="298.72" r="2.5" fill="#2563eb"/>
  <circle cx="629.65" cy="247.36" r="2.5" fill="#2563eb"/>
  <circle cx="630.79" cy="298.68" r="2.5" fill="#2563eb"/>
  <circle cx="631.93" cy="247.36" r="2.5" fill="#2563eb"/>
  <circle cx="633.06" cy="247.36" r="2.5" fill="#2563eb"/>
  <circle cx="634.20" cy="247.36" r="2.5" fill="#2563eb"/>
  <circle cx="635.34" cy="298.68" r="2.5" fill="#2563eb"/>
  <circle cx="636.48" cy="298.68" r="2.5" fill="#2563eb"/>
  <circle cx="637.61" cy="298.68" r="2.5" fill="#2563eb"/>
  <circle cx="638.75" cy="298.68" r="2.5" fill="#2563eb"/>
  <circle cx="639.89" cy="298.68" r="2.5" fill="#2563eb"/>
  <circle cx="641.02" cy="341.67" r="2.5" fill="#2563eb"/>
  <circle cx="642.16" cy="307.01" r="2.5" fill="#2563eb"/>
  <circle cx="643.30" cy="298.68" r="2.5" fill="#2563eb"/>
  <circle cx="644.44" cy="298.68" r="2.5" fill="#2563eb"/>
  <circle cx="645.57" cy="298.68" r="2.5" fill="#2563eb"/>
  <circle cx="646.71" cy="247.36" r="2.5" fill="#2563eb"/>
  <circle cx="647.85" cy="298.64" r="2.5" fill="#2563eb"/>
  <circle cx="648.99" cy="247.36" r="2.5" fill="#2563eb"/>
  <circle cx="650.12" cy="247.28" r="2.5" fill="#2563eb"/>
  <circle cx="651.26" cy="247.20" r="2.5" fill="#2563eb"/>
  <circle cx="652.40" cy="298.60" r="2.5" fill="#2563eb"/>
  <circle cx="653.54" cy="298.60" r="2.5" fill="#2563eb"/>
  <circle cx="654.67" cy="247.03" r="2.5" fill="#2563eb"/>
  <circle cx="655.81" cy="298.51" r="2.5" fill="#2563eb"/>
  <circle cx="656.95" cy="298.51" r="2.5" fill="#2563eb"/>
  <circle cx="658.09" cy="298.51" r="2.5" fill="#2563eb"/>
  <circle cx="659.23" cy="298.51" r="2.5" fill="#2563eb"/>
  <circle cx="660.36" cy="298.51" r="2.5" fill="#2563eb"/>
  <circle cx="661.50" cy="298.51" r="2.5" fill="#2563eb"/>
  <circle cx="662.64" cy="298.51" r="2.5" fill="#2563eb"/>
  <circle cx="663.77" cy="298.51" r="2.5" fill="#2563eb"/>
  <circle cx="664.91" cy="298.51" r="2.5" fill="#2563eb"/>
  <circle cx="666.05" cy="298.51" r="2.5" fill="#2563eb"/>
  <circle cx="667.19" cy="298.51" r="2.5" fill="#2563eb"/>
  <circle cx="668.32" cy="298.51" r="2.5" fill="#2563eb"/>
  <circle cx="669.46" cy="298.51" r="2.5" fill="#2563eb"/>
  <circle cx="670.60" cy="298.51" r="2.5" fill="#2563eb"/>
  <circle cx="671.74" cy="298.51" r="2.5" fill="#2563eb"/>
  <circle cx="672.88" cy="298.51" r="2.5" fill="#2563eb"/>
  <circle cx="674.01" cy="298.51" r="2.5" fill="#2563eb"/>
  <circle cx="675.15" cy="298.51" r="2.5" fill="#2563eb"/>
  <circle cx="676.29" cy="298.51" r="2.5" fill="#2563eb"/>
  <circle cx="677.42" cy="298.51" r="2.5" fill="#2563eb"/>
  <circle cx="678.56" cy="298.51" r="2.5" fill="#2563eb"/>
  <circle cx="679.70" cy="298.51" r="2.5" fill="#2563eb"/>
  <circle cx="680.84" cy="298.51" r="2.5" fill="#2563eb"/>
  <circle cx="681.98" cy="298.51" r="2.5" fill="#2563eb"/>
  <circle cx="683.11" cy="298.51" r="2.5" fill="#2563eb"/>
  <circle cx="684.25" cy="298.51" r="2.5" fill="#2563eb"/>
  <circle cx="685.39" cy="298.47" r="2.5" fill="#2563eb"/>
  <circle cx="686.52" cy="298.51" r="2.5" fill="#2563eb"/>
  <circle cx="687.66" cy="298.51" r="2.5" fill="#2563eb"/>
  <circle cx="688.80" cy="298.47" r="2.5" fill="#2563eb"/>
  <circle cx="689.94" cy="298.51" r="2.5" fill="#2563eb"/>
  <circle cx="691.08" cy="298.47" r="2.5" fill="#2563eb"/>
  <circle cx="692.21" cy="298.51" r="2.5" fill="#2563eb"/>
  <circle cx="693.35" cy="298.43" r="2.5" fill="#2563eb"/>
  <circle cx="694.49" cy="298.56" r="2.5" fill="#2563eb"/>
  <circle cx="695.62" cy="298.43" r="2.5" fill="#2563eb"/>
  <circle cx="696.76" cy="298.43" r="2.5" fill="#2563eb"/>
  <circle cx="697.90" cy="298.43" r="2.5" fill="#2563eb"/>
  <circle cx="699.04" cy="298.43" r="2.5" fill="#2563eb"/>
  <circle cx="700.17" cy="298.43" r="2.5" fill="#2563eb"/>
  <circle cx="701.31" cy="298.43" r="2.5" fill="#2563eb"/>
  <circle cx="702.45" cy="298.43" r="2.5" fill="#2563eb"/>
  <circle cx="703.59" cy="298.43" r="2.5" fill="#2563eb"/>
  <circle cx="704.73" cy="298.43" r="2.5" fill="#2563eb"/>
  <circle cx="705.86" cy="298.43" r="2.5" fill="#2563eb"/>
  <circle cx="707.00" cy="298.43" r="2.5" fill="#2563eb"/>
  <circle cx="708.14" cy="298.43" r="2.5" fill="#2563eb"/>
  <circle cx="709.27" cy="298.43" r="2.5" fill="#2563eb"/>
  <circle cx="710.41" cy="298.43" r="2.5" fill="#2563eb"/>
  <circle cx="711.55" cy="298.43" r="2.5" fill="#2563eb"/>
  <circle cx="712.69" cy="298.43" r="2.5" fill="#2563eb"/>
  <circle cx="713.83" cy="298.43" r="2.5" fill="#2563eb"/>
  <circle cx="714.96" cy="298.43" r="2.5" fill="#2563eb"/>
  <circle cx="716.10" cy="298.43" r="2.5" fill="#2563eb"/>
  <circle cx="717.24" cy="298.43" r="2.5" fill="#2563eb"/>
  <circle cx="718.38" cy="298.43" r="2.5" fill="#2563eb"/>
  <circle cx="719.51" cy="298.43" r="2.5" fill="#2563eb"/>
  <circle cx="720.65" cy="298.43" r="2.5" fill="#2563eb"/>
  <circle cx="721.79" cy="298.43" r="2.5" fill="#2563eb"/>
  <circle cx="722.93" cy="298.43" r="2.5" fill="#2563eb"/>
  <circle cx="724.06" cy="298.43" r="2.5" fill="#2563eb"/>
  <circle cx="725.20" cy="298.43" r="2.5" fill="#2563eb"/>
  <circle cx="726.34" cy="298.43" r="2.5" fill="#2563eb"/>
  <circle cx="727.48" cy="298.43" r="2.5" fill="#2563eb"/>
  <circle cx="728.61" cy="298.43" r="2.5" fill="#2563eb"/>
  <circle cx="729.75" cy="298.43" r="2.5" fill="#2563eb"/>
  <circle cx="730.89" cy="298.43" r="2.5" fill="#2563eb"/>
  <circle cx="732.02" cy="298.43" r="2.5" fill="#2563eb"/>
  <circle cx="733.16" cy="298.43" r="2.5" fill="#2563eb"/>
  <circle cx="734.30" cy="298.39" r="2.5" fill="#2563eb"/>
  <circle cx="735.44" cy="298.39" r="2.5" fill="#2563eb"/>
  <circle cx="736.58" cy="298.43" r="2.5" fill="#2563eb"/>
  <circle cx="737.71" cy="298.43" r="2.5" fill="#2563eb"/>
  <circle cx="738.85" cy="298.39" r="2.5" fill="#2563eb"/>
  <circle cx="739.99" cy="298.39" r="2.5" fill="#2563eb"/>
  <circle cx="741.12" cy="298.39" r="2.5" fill="#2563eb"/>
  <circle cx="742.26" cy="298.43" r="2.5" fill="#2563eb"/>
  <circle cx="743.40" cy="298.43" r="2.5" fill="#2563eb"/>
  <circle cx="744.54" cy="298.43" r="2.5" fill="#2563eb"/>
  <circle cx="745.68" cy="246.82" r="2.5" fill="#2563eb"/>
  <circle cx="746.81" cy="298.43" r="2.5" fill="#2563eb"/>
  <circle cx="747.95" cy="246.78" r="2.5" fill="#2563eb"/>
  <circle cx="749.09" cy="246.78" r="2.5" fill="#2563eb"/>
  <circle cx="750.23" cy="246.78" r="2.5" fill="#2563eb"/>
  <circle cx="751.36" cy="246.70" r="2.5" fill="#2563eb"/>
  <circle cx="752.50" cy="246.78" r="2.5" fill="#2563eb"/>
  <circle cx="753.64" cy="298.39" r="2.5" fill="#2563eb"/>
  <circle cx="754.77" cy="298.39" r="2.5" fill="#2563eb"/>
  <circle cx="755.91" cy="298.39" r="2.5" fill="#2563eb"/>
  <circle cx="757.05" cy="298.39" r="2.5" fill="#2563eb"/>
  <circle cx="758.19" cy="298.39" r="2.5" fill="#2563eb"/>
  <circle cx="759.32" cy="246.78" r="2.5" fill="#2563eb"/>
  <circle cx="760.46" cy="298.39" r="2.5" fill="#2563eb"/>
  <circle cx="761.60" cy="298.39" r="2.5" fill="#2563eb"/>
  <circle cx="762.74" cy="298.39" r="2.5" fill="#2563eb"/>
  <circle cx="763.88" cy="298.39" r="2.5" fill="#2563eb"/>
  <circle cx="765.01" cy="298.39" r="2.5" fill="#2563eb"/>
  <circle cx="766.15" cy="246.78" r="2.5" fill="#2563eb"/>
  <circle cx="767.29" cy="246.78" r="2.5" fill="#2563eb"/>
  <circle cx="768.42" cy="298.39" r="2.5" fill="#2563eb"/>
  <circle cx="769.56" cy="298.39" r="2.5" fill="#2563eb"/>
  <circle cx="770.70" cy="298.39" r="2.5" fill="#2563eb"/>
  <circle cx="771.84" cy="298.39" r="2.5" fill="#2563eb"/>
  <circle cx="772.98" cy="298.39" r="2.5" fill="#2563eb"/>
  <circle cx="774.11" cy="298.39" r="2.5" fill="#2563eb"/>
  <circle cx="775.25" cy="298.39" r="2.5" fill="#2563eb"/>
  <circle cx="776.39" cy="298.39" r="2.5" fill="#2563eb"/>
  <circle cx="777.52" cy="298.39" r="2.5" fill="#2563eb"/>
  <circle cx="778.66" cy="298.39" r="2.5" fill="#2563eb"/>
  <circle cx="779.80" cy="298.39" r="2.5" fill="#2563eb"/>
  <circle cx="780.94" cy="298.39" r="2.5" fill="#2563eb"/>
  <circle cx="782.07" cy="298.39" r="2.5" fill="#2563eb"/>
  <circle cx="783.21" cy="298.39" r="2.5" fill="#2563eb"/>
  <circle cx="784.35" cy="298.35" r="2.5" fill="#2563eb"/>
  <circle cx="785.49" cy="298.39" r="2.5" fill="#2563eb"/>
  <circle cx="786.62" cy="298.39" r="2.5" fill="#2563eb"/>
  <circle cx="787.76" cy="298.35" r="2.5" fill="#2563eb"/>
  <circle cx="788.90" cy="298.35" r="2.5" fill="#2563eb"/>
  <circle cx="790.04" cy="298.35" r="2.5" fill="#2563eb"/>
  <circle cx="791.17" cy="298.35" r="2.5" fill="#2563eb"/>
  <circle cx="792.31" cy="298.35" r="2.5" fill="#2563eb"/>
  <circle cx="793.45" cy="298.35" r="2.5" fill="#2563eb"/>
  <circle cx="794.59" cy="298.35" r="2.5" fill="#2563eb"/>
  <circle cx="795.73" cy="298.35" r="2.5" fill="#2563eb"/>
  <circle cx="796.86" cy="298.35" r="2.5" fill="#2563eb"/>
  <circle cx="798.00" cy="298.35" r="2.5" fill="#2563eb"/>
  <circle cx="799.14" cy="298.35" r="2.5" fill="#2563eb"/>
  <circle cx="800.27" cy="298.35" r="2.5" fill="#2563eb"/>
  <circle cx="801.41" cy="298.35" r="2.5" fill="#2563eb"/>
  <circle cx="802.55" cy="298.35" r="2.5" fill="#2563eb"/>
  <circle cx="803.69" cy="298.35" r="2.5" fill="#2563eb"/>
  <circle cx="804.83" cy="298.35" r="2.5" fill="#2563eb"/>
  <circle cx="805.96" cy="298.35" r="2.5" fill="#2563eb"/>
  <circle cx="807.10" cy="298.35" r="2.5" fill="#2563eb"/>
  <circle cx="808.24" cy="298.35" r="2.5" fill="#2563eb"/>
  <circle cx="809.38" cy="298.35" r="2.5" fill="#2563eb"/>
  <circle cx="810.51" cy="298.35" r="2.5" fill="#2563eb"/>
  <circle cx="811.65" cy="298.35" r="2.5" fill="#2563eb"/>
  <circle cx="812.79" cy="298.35" r="2.5" fill="#2563eb"/>
  <circle cx="813.92" cy="298.35" r="2.5" fill="#2563eb"/>
  <circle cx="815.06" cy="298.35" r="2.5" fill="#2563eb"/>
  <circle cx="816.20" cy="298.35" r="2.5" fill="#2563eb"/>
  <circle cx="817.34" cy="298.35" r="2.5" fill="#2563eb"/>
  <circle cx="818.48" cy="298.35" r="2.5" fill="#2563eb"/>
  <circle cx="819.61" cy="298.35" r="2.5" fill="#2563eb"/>
  <circle cx="820.75" cy="298.35" r="2.5" fill="#2563eb"/>
  <circle cx="821.89" cy="298.35" r="2.5" fill="#2563eb"/>
  <circle cx="823.02" cy="298.35" r="2.5" fill="#2563eb"/>
  <circle cx="824.16" cy="298.35" r="2.5" fill="#2563eb"/>
  <circle cx="825.30" cy="298.35" r="2.5" fill="#2563eb"/>
  <circle cx="826.44" cy="298.35" r="2.5" fill="#2563eb"/>
  <circle cx="827.58" cy="298.35" r="2.5" fill="#2563eb"/>
  <circle cx="828.71" cy="298.35" r="2.5" fill="#2563eb"/>
  <circle cx="829.85" cy="298.35" r="2.5" fill="#2563eb"/>
  <circle cx="830.99" cy="298.35" r="2.5" fill="#2563eb"/>
  <circle cx="832.12" cy="298.35" r="2.5" fill="#2563eb"/>
  <circle cx="833.26" cy="298.35" r="2.5" fill="#2563eb"/>
  <circle cx="834.40" cy="298.35" r="2.5" fill="#2563eb"/>
  <circle cx="835.54" cy="298.35" r="2.5" fill="#2563eb"/>
  <circle cx="836.68" cy="298.35" r="2.5" fill="#2563eb"/>
  <circle cx="837.81" cy="298.35" r="2.5" fill="#2563eb"/>
  <circle cx="838.95" cy="298.35" r="2.5" fill="#2563eb"/>
  <circle cx="840.09" cy="298.35" r="2.5" fill="#2563eb"/>
  <circle cx="841.23" cy="298.35" r="2.5" fill="#2563eb"/>
  <circle cx="842.36" cy="298.35" r="2.5" fill="#2563eb"/>
  <circle cx="843.50" cy="298.35" r="2.5" fill="#2563eb"/>
  <circle cx="844.64" cy="298.35" r="2.5" fill="#2563eb"/>
  <circle cx="845.77" cy="298.35" r="2.5" fill="#2563eb"/>
  <circle cx="846.91" cy="298.39" r="2.5" fill="#2563eb"/>
  <circle cx="848.05" cy="298.39" r="2.5" fill="#2563eb"/>
  <circle cx="849.19" cy="298.39" r="2.5" fill="#2563eb"/>
  <circle cx="850.33" cy="246.78" r="2.5" fill="#2563eb"/>
  <circle cx="851.46" cy="298.39" r="2.5" fill="#2563eb"/>
  <circle cx="852.60" cy="298.39" r="2.5" fill="#2563eb"/>
  <circle cx="853.74" cy="298.39" r="2.5" fill="#2563eb"/>
  <circle cx="854.88" cy="298.39" r="2.5" fill="#2563eb"/>
  <circle cx="856.01" cy="298.39" r="2.5" fill="#2563eb"/>
  <circle cx="857.15" cy="298.39" r="2.5" fill="#2563eb"/>
  <circle cx="858.29" cy="298.39" r="2.5" fill="#2563eb"/>
  <circle cx="859.43" cy="246.78" r="2.5" fill="#2563eb"/>
  <circle cx="860.56" cy="298.39" r="2.5" fill="#2563eb"/>
  <circle cx="861.70" cy="298.39" r="2.5" fill="#2563eb"/>
  <circle cx="862.84" cy="298.39" r="2.5" fill="#2563eb"/>
  <circle cx="863.98" cy="298.39" r="2.5" fill="#2563eb"/>
  <circle cx="865.11" cy="298.39" r="2.5" fill="#2563eb"/>
  <circle cx="866.25" cy="298.39" r="2.5" fill="#2563eb"/>
  <circle cx="867.39" cy="298.39" r="2.5" fill="#2563eb"/>
  <circle cx="868.52" cy="246.78" r="2.5" fill="#2563eb"/>
  <circle cx="869.66" cy="298.39" r="2.5" fill="#2563eb"/>
  <circle cx="870.80" cy="298.39" r="2.5" fill="#2563eb"/>
  <circle cx="871.94" cy="298.39" r="2.5" fill="#2563eb"/>
  <circle cx="873.07" cy="298.39" r="2.5" fill="#2563eb"/>
  <circle cx="874.21" cy="298.39" r="2.5" fill="#2563eb"/>
  <circle cx="875.35" cy="298.39" r="2.5" fill="#2563eb"/>
  <circle cx="876.49" cy="298.39" r="2.5" fill="#2563eb"/>
  <circle cx="877.62" cy="298.39" r="2.5" fill="#2563eb"/>
  <circle cx="878.76" cy="298.39" r="2.5" fill="#2563eb"/>
  <circle cx="879.90" cy="298.39" r="2.5" fill="#2563eb"/>
  <circle cx="881.04" cy="298.39" r="2.5" fill="#2563eb"/>
  <circle cx="882.17" cy="298.35" r="2.5" fill="#2563eb"/>
  <circle cx="883.31" cy="298.39" r="2.5" fill="#2563eb"/>
  <circle cx="884.45" cy="298.39" r="2.5" fill="#2563eb"/>
  <circle cx="885.59" cy="298.39" r="2.5" fill="#2563eb"/>
  <circle cx="886.73" cy="298.35" r="2.5" fill="#2563eb"/>
  <circle cx="887.86" cy="298.35" r="2.5" fill="#2563eb"/>
  <circle cx="889.00" cy="298.35" r="2.5" fill="#2563eb"/>
  <circle cx="890.14" cy="298.35" r="2.5" fill="#2563eb"/>
  <circle cx="891.27" cy="298.35" r="2.5" fill="#2563eb"/>
  <circle cx="892.41" cy="298.35" r="2.5" fill="#2563eb"/>
  <circle cx="893.55" cy="298.35" r="2.5" fill="#2563eb"/>
  <circle cx="894.69" cy="298.35" r="2.5" fill="#2563eb"/>
  <circle cx="895.82" cy="298.35" r="2.5" fill="#2563eb"/>
  <circle cx="896.96" cy="298.35" r="2.5" fill="#2563eb"/>
  <circle cx="898.10" cy="298.35" r="2.5" fill="#2563eb"/>
  <circle cx="899.24" cy="298.35" r="2.5" fill="#2563eb"/>
  <circle cx="900.38" cy="298.35" r="2.5" fill="#2563eb"/>
  <circle cx="901.51" cy="298.35" r="2.5" fill="#2563eb"/>
  <circle cx="902.65" cy="298.35" r="2.5" fill="#2563eb"/>
  <circle cx="903.79" cy="298.35" r="2.5" fill="#2563eb"/>
  <circle cx="904.92" cy="298.39" r="2.5" fill="#2563eb"/>
  <circle cx="906.06" cy="298.39" r="2.5" fill="#2563eb"/>
  <circle cx="907.20" cy="298.39" r="2.5" fill="#2563eb"/>
  <circle cx="908.34" cy="298.39" r="2.5" fill="#2563eb"/>
  <circle cx="909.48" cy="298.39" r="2.5" fill="#2563eb"/>
  <circle cx="910.61" cy="298.39" r="2.5" fill="#2563eb"/>
  <circle cx="911.75" cy="298.35" r="2.5" fill="#2563eb"/>
  <circle cx="912.89" cy="298.39" r="2.5" fill="#2563eb"/>
  <circle cx="914.02" cy="298.39" r="2.5" fill="#2563eb"/>
  <circle cx="915.16" cy="298.39" r="2.5" fill="#2563eb"/>
  <circle cx="916.30" cy="298.39" r="2.5" fill="#2563eb"/>
  <circle cx="917.44" cy="298.39" r="2.5" fill="#2563eb"/>
  <circle cx="918.58" cy="298.39" r="2.5" fill="#2563eb"/>
  <circle cx="919.71" cy="298.39" r="2.5" fill="#2563eb"/>
  <circle cx="920.85" cy="298.39" r="2.5" fill="#2563eb"/>
  <circle cx="921.99" cy="298.39" r="2.5" fill="#2563eb"/>
  <circle cx="923.12" cy="298.35" r="2.5" fill="#2563eb"/>
  <circle cx="924.26" cy="298.39" r="2.5" fill="#2563eb"/>
  <circle cx="925.40" cy="298.39" r="2.5" fill="#2563eb"/>
  <circle cx="926.54" cy="298.39" r="2.5" fill="#2563eb"/>
  <circle cx="927.67" cy="298.39" r="2.5" fill="#2563eb"/>
  <circle cx="928.81" cy="298.39" r="2.5" fill="#2563eb"/>
  <circle cx="929.95" cy="298.39" r="2.5" fill="#2563eb"/>
  <circle cx="931.09" cy="298.39" r="2.5" fill="#2563eb"/>
  <circle cx="932.23" cy="298.39" r="2.5" fill="#2563eb"/>
  <circle cx="933.36" cy="298.39" r="2.5" fill="#2563eb"/>
  <circle cx="934.50" cy="298.39" r="2.5" fill="#2563eb"/>
  <circle cx="935.64" cy="298.39" r="2.5" fill="#2563eb"/>
  <circle cx="936.77" cy="298.39" r="2.5" fill="#2563eb"/>
  <circle cx="937.91" cy="298.39" r="2.5" fill="#2563eb"/>
  <circle cx="939.05" cy="298.39" r="2.5" fill="#2563eb"/>
  <circle cx="940.19" cy="298.39" r="2.5" fill="#2563eb"/>
  <circle cx="941.33" cy="298.39" r="2.5" fill="#2563eb"/>
  <circle cx="942.46" cy="298.35" r="2.5" fill="#2563eb"/>
  <circle cx="943.60" cy="298.35" r="2.5" fill="#2563eb"/>
  <circle cx="944.74" cy="298.39" r="2.5" fill="#2563eb"/>
  <circle cx="945.88" cy="298.39" r="2.5" fill="#2563eb"/>
  <circle cx="947.01" cy="298.39" r="2.5" fill="#2563eb"/>
  <circle cx="948.15" cy="298.39" r="2.5" fill="#2563eb"/>
  <circle cx="949.29" cy="298.39" r="2.5" fill="#2563eb"/>
  <circle cx="950.43" cy="298.39" r="2.5" fill="#2563eb"/>
  <circle cx="951.56" cy="298.39" r="2.5" fill="#2563eb"/>
  <circle cx="952.70" cy="298.39" r="2.5" fill="#2563eb"/>
  <circle cx="953.84" cy="298.39" r="2.5" fill="#2563eb"/>
  <circle cx="954.98" cy="298.39" r="2.5" fill="#2563eb"/>
  <circle cx="956.11" cy="298.35" r="2.5" fill="#2563eb"/>
  <circle cx="957.25" cy="298.35" r="2.5" fill="#2563eb"/>
  <circle cx="958.39" cy="298.39" r="2.5" fill="#2563eb"/>
  <circle cx="959.52" cy="298.39" r="2.5" fill="#2563eb"/>
  <circle cx="960.66" cy="298.39" r="2.5" fill="#2563eb"/>
  <circle cx="961.80" cy="298.39" r="2.5" fill="#2563eb"/>
  <circle cx="962.94" cy="298.39" r="2.5" fill="#2563eb"/>
  <circle cx="964.08" cy="298.39" r="2.5" fill="#2563eb"/>
  <circle cx="965.21" cy="298.39" r="2.5" fill="#2563eb"/>
  <circle cx="966.35" cy="298.39" r="2.5" fill="#2563eb"/>
  <circle cx="967.49" cy="298.39" r="2.5" fill="#2563eb"/>
  <circle cx="968.62" cy="298.39" r="2.5" fill="#2563eb"/>
  <circle cx="969.76" cy="298.39" r="2.5" fill="#2563eb"/>
  <circle cx="970.90" cy="298.39" r="2.5" fill="#2563eb"/>
  <circle cx="972.04" cy="298.39" r="2.5" fill="#2563eb"/>
  <circle cx="973.18" cy="298.39" r="2.5" fill="#2563eb"/>
  <circle cx="974.31" cy="298.35" r="2.5" fill="#2563eb"/>
  <circle cx="975.45" cy="298.39" r="2.5" fill="#2563eb"/>
  <circle cx="976.59" cy="298.39" r="2.5" fill="#2563eb"/>
  <circle cx="977.73" cy="298.39" r="2.5" fill="#2563eb"/>
  <circle cx="978.86" cy="298.39" r="2.5" fill="#2563eb"/>
  <circle cx="980.00" cy="298.39" r="2.5" fill="#2563eb"/>
</svg>
