<?xml version="1.0" encoding="UTF-8"?>
<svg xmlns="http://www.w3.org/2000/svg" width="1000" height="420" viewBox="0 0 1000 420">
  <rect width="100%" height="100%" fill="#ffffff"/>
  <text x="70" y="28" font-size="20" font-weight="600">수집 시점 기준 - 시간별 스냅샷</text>
  <text x="70" y="402" font-size="12" fill="#555">스냅샷 수</text>
  <line x1="70" y1="350.00" x2="980" y2="350.00" stroke="#e5e7eb" stroke-width="1"/>
  <text x="62" y="354.00" font-size="11" fill="#6b7280" text-anchor="end">0</text>
  <line x1="70" y1="290.00" x2="980" y2="290.00" stroke="#e5e7eb" stroke-width="1"/>
  <text x="62" y="294.00" font-size="11" fill="#6b7280" text-anchor="end">1,440</text>
  <line x1="70" y1="230.00" x2="980" y2="230.00" stroke="#e5e7eb" stroke-width="1"/>
  <text x="62" y="234.00" font-size="11" fill="#6b7280" text-anchor="end">2,880</text>
  <line x1="70" y1="170.00" x2="980" y2="170.00" stroke="#e5e7eb" stroke-width="1"/>
  <text x="62" y="174.00" font-size="11" fill="#6b7280" text-anchor="end">4,321</text>
  <line x1="70" y1="110.00" x2="980" y2="110.00" stroke="#e5e7eb" stroke-width="1"/>
  <text x="62" y="114.00" font-size="11" fill="#6b7280" text-anchor="end">5,761</text>
  <line x1="70" y1="50.00" x2="980" y2="50.00" stroke="#e5e7eb" stroke-width="1"/>
  <text x="62" y="54.00" font-size="11" fill="#6b7280" text-anchor="end">7,202</text>
  <line x1="70" y1="350" x2="980" y2="350" stroke="#111827" stroke-width="1.2"/>
  <line x1="70" y1="50" x2="70" y2="350" stroke="#111827" stroke-width="1.2"/>
  <line x1="70.00" y1="350" x2="70.00" y2="356" stroke="#9ca3af" stroke-width="1"/>
  <text x="70.00" y="372" font-size="10" fill="#6b7280" text-anchor="middle">2026-02-28 18</text>
  <line x1="144.83" y1="350" x2="144.83" y2="356" stroke="#9ca3af" stroke-width="1"/>
  <text x="144.83" y="372" font-size="10" fill="#6b7280" text-anchor="middle">2026-03-09 13</text>
  <line x1="219.66" y1="350" x2="219.66" y2="356" stroke="#9ca3af" stroke-width="1"/>
  <text x="219.66" y="372" font-size="10" fill="#6b7280" text-anchor="middle">2026-03-12 01</text>
  <line x1="294.49" y1="350" x2="294.49" y2="356" stroke="#9ca3af" stroke-width="1"/>
  <text x="294.49" y="372" font-size="10" fill="#6b7280" text-anchor="middle">2026-03-14 18</text>
  <line x1="369.32" y1="350" x2="369.32" y2="356" stroke="#9ca3af" stroke-width="1"/>
  <text x="369.32" y="372" font-size="10" fill="#6b7280" text-anchor="middle">2026-03-18 07</text>
  <line x1="444.16" y1="350" x2="444.16" y2="356" stroke="#9ca3af" stroke-width="1"/>
  <text x="444.16" y="372" font-size="10" fill="#6b7280" text-anchor="middle">2026-03-21 18</text>
  <line x1="518.99" y1="350" x2="518.99" y2="356" stroke="#9ca3af" stroke-width="1"/>
  <text x="518.99" y="372" font-size="10" fill="#6b7280" text-anchor="middle">2026-03-25 06</text>
  <line x1="593.82" y1="350" x2="593.82" y2="356" stroke="#9ca3af" stroke-width="1"/>
  <text x="593.82" y="372" font-size="10" fill="#6b7280" text-anchor="middle">2026-03-29 00</text>
  <line x1="668.65" y1="350" x2="668.65" y2="356" stroke="#9ca3af" stroke-width="1"/>
  <text x="668.65" y="372" font-size="10" fill="#6b7280" text-anchor="middle">2026-04-02 00</text>
  <line x1="743.48" y1="350" x2="743.48" y2="356" stroke="#9ca3af" stroke-width="1"/>
  <text x="743.48" y="372" font-size="10" fill="#6b7280" text-anchor="middle">2026-04-05 16</text>
  <line x1="818.31" y1="350" x2="818.31" y2="356" stroke="#9ca3af" stroke-width="1"/>
  <text x="818.31" y="372" font-size="10" fill="#6b7280" text-anchor="middle">2026-04-09 17</text>
  <line x1="893.14" y1="350" x2="893.14" y2="356" stroke="#9ca3af" stroke-width="1"/>
  <text x="893.14" y="372" font-size="10" fill="#6b7280" text-anchor="middle">2026-04-13 12</text>
  <line x1="967.97" y1="350" x2="967.97" y2="356" stroke="#9ca3af" stroke-width="1"/>
  <text x="967.97" y="372" font-size="10" fill="#6b7280" text-anchor="middle">2026-04-17 23</text>
  <line x1="980.00" y1="350" x2="980.00" y2="356" stroke="#9ca3af" stroke-width="1"/>
  <text x="980.00" y="372" font-size="10" fill="#6b7280" text-anchor="middle">2026-04-18 12</text>
  <polyline fill="none" stroke="#2563eb" stroke-width="2.5" points="70.00,50.00 71.34,50.12 72.67,50.17 74.01,50.46 75.35,50.00 76.68,266.90 78.02,50.12 79.35,50.08 80.69,177.46 82.03,211.58 83.36,175.34 84.70,304.14 86.04,200.46 87.37,250.94 88.71,300.01 90.04,300.06 91.38,300.01 92.72,300.01 94.05,348.00 95.39,300.01 96.73,249.99 98.06,200.00 99.40,249.99 100.73,249.99 102.07,250.03 103.41,250.03 104.74,250.03 106.08,250.40 107.42,250.90 108.75,250.90 110.09,251.32 111.42,249.94 112.76,300.01 114.10,299.93 115.43,251.03 116.77,300.68 118.11,250.03 119.44,200.00 120.78,249.99 122.11,250.03 123.45,250.03 124.79,250.03 126.12,300.01 127.46,200.04 128.80,250.03 130.13,250.03 131.47,250.03 132.80,249.90 134.14,250.03 135.48,250.03 136.81,250.94 138.15,250.44 139.49,250.03 140.82,250.03 142.16,300.47 143.49,300.01 144.83,300.43 146.17,250.03 147.50,249.99 148.84,300.43 150.18,249.90 151.51,249.99 152.85,249.99 154.19,200.04 155.52,300.01 156.86,300.01 158.19,300.01 159.53,249.90 160.87,300.01 162.20,250.03 163.54,249.99 164.88,199.96 166.21,300.01 167.55,200.00 168.88,250.36 170.22,250.03 171.56,300.01 172.89,300.01 174.23,250.44 175.57,300.01 176.90,250.03 178.24,250.03 179.57,249.99 180.91,250.49 182.25,250.03 183.58,200.04 184.92,300.01 186.26,250.03 187.59,300.01 188.93,250.11 190.26,300.01 191.60,250.03 192.94,250.03 194.27,199.92 195.61,250.03 196.95,250.03 198.28,250.03 199.62,254.36 200.95,300.01 202.29,299.97 203.63,250.36 204.96,299.97 206.30,250.03 207.64,250.03 208.97,250.03 210.31,250.03 211.64,249.99 212.98,200.00 214.32,299.93 215.65,300.01 216.99,299.97 218.33,249.94 219.66,249.99 221.00,249.82 222.33,249.94 223.67,250.28 225.01,207.00 226.34,250.03 227.68,250.32 229.02,250.40 230.35,300.93 231.69,300.01 233.02,300.10 234.36,249.94 235.70,249.99 237.03,250.07 238.37,249.99 239.71,250.03 241.04,249.94 242.38,200.00 243.72,300.39 245.05,300.01 246.39,300.01 247.72,250.44 249.06,300.39 250.40,249.86 251.73,250.11 253.07,201.46 254.41,300.01 255.74,200.83 257.08,250.03 258.41,249.99 259.75,300.26 261.09,300.01 262.42,300.01 263.76,250.03 265.10,250.03 266.43,250.03 267.77,250.03 269.10,249.99 270.44,250.03 271.78,200.00 273.11,300.26 274.45,249.99 275.79,300.01 277.12,249.94 278.46,250.03 279.79,250.03 281.13,250.03 282.47,200.04 283.80,300.01 285.14,249.90 286.48,300.01 287.81,300.01 289.15,300.06 290.48,300.01 291.82,300.01 293.16,243.95 294.49,249.94 295.83,299.97 297.17,300.01 298.50,300.01 299.84,250.03 301.17,300.01 302.51,300.01 303.85,299.97 305.18,249.99 306.52,300.01 307.86,299.93 309.19,300.01 310.53,299.93 311.86,300.01 313.20,300.01 314.54,299.89 315.87,299.97 317.21,250.03 318.55,299.93 319.88,299.89 321.22,299.97 322.56,249.94 323.89,300.01 325.23,300.01 326.56,299.97 327.90,249.99 329.24,299.97 330.57,299.97 331.91,300.06 333.25,300.06 334.58,299.93 335.92,300.01 337.25,300.01 338.59,299.93 339.93,300.01 341.26,300.01 342.60,299.97 343.94,300.01 345.27,300.01 346.61,300.01 347.94,300.01 349.28,249.86 350.62,300.01 351.95,300.10 353.29,299.93 354.63,300.01 355.96,299.93 357.30,300.01 358.63,300.01 359.97,300.01 361.31,300.01 362.64,300.01 363.98,299.97 365.32,300.01 366.65,300.01 367.99,300.01 369.32,300.01 370.66,250.03 372.00,300.01 373.33,300.01 374.67,299.97 376.01,300.01 377.34,300.01 378.68,299.97 380.01,299.97 381.35,300.01 382.69,299.97 384.02,300.01 385.36,299.93 386.70,300.01 388.03,250.03 389.37,300.01 390.70,300.01 392.04,300.01 393.38,300.01 394.71,300.01 396.05,299.89 397.39,300.01 398.72,300.01 400.06,250.07 401.40,300.01 402.73,299.93 404.07,300.01 405.40,299.97 406.74,299.97 408.08,299.97 409.41,250.03 410.75,300.01 412.09,300.01 413.42,300.01 414.76,300.01 416.09,299.97 417.43,300.01 418.77,299.97 420.10,300.01 421.44,299.97 422.78,249.90 424.11,300.01 425.45,300.01 426.78,299.89 428.12,299.97 429.46,299.97 430.79,249.99 432.13,299.97 433.47,299.89 434.80,300.01 436.14,299.97 437.47,299.97 438.81,300.01 440.15,299.97 441.48,249.99 442.82,299.97 444.16,299.97 445.49,300.06 446.83,300.06 448.16,249.94 449.50,300.01 450.84,299.93 452.17,300.01 453.51,300.01 454.85,249.99 456.18,300.01 457.52,300.01 458.85,300.01 460.19,299.93 461.53,299.93 462.86,300.01 464.20,300.01 465.54,249.94 466.87,299.97 468.21,299.97 469.54,300.01 470.88,300.01 472.22,300.01 473.55,249.99 474.89,300.01 476.23,300.01 477.56,300.01 478.90,250.03 480.23,300.01 481.57,300.01 482.91,300.01 484.24,299.97 485.58,300.01 486.92,300.01 488.25,299.97 489.59,299.97 490.93,300.01 492.26,300.01 493.60,299.97 494.93,299.93 496.27,300.01 497.61,300.06 498.94,299.97 500.28,300.01 501.62,250.03 502.95,250.03 504.29,299.93 505.62,299.97 506.96,300.01 508.30,300.01 509.63,300.06 510.97,300.01 512.31,299.93 513.64,300.01 514.98,300.01 516.31,299.97 517.65,299.97 518.99,300.01 520.32,250.03 521.66,300.01 523.00,300.01 524.33,300.01 525.67,299.97 527.00,300.01 528.34,299.97 529.68,300.01 531.01,299.97 532.35,299.97 533.69,299.93 535.02,300.01 536.36,300.01 537.69,299.89 539.03,299.97 540.37,299.97 541.70,300.06 543.04,249.90 544.38,299.89 545.71,300.01 547.05,299.97 548.38,299.97 549.72,299.97 551.06,300.01 552.39,300.01 553.73,299.97 555.07,299.97 556.40,299.97 557.74,250.03 559.07,299.93 560.41,300.01 561.75,300.01 563.08,299.93 564.42,300.01 565.76,300.01 567.09,299.97 568.43,300.01 569.77,300.01 571.10,300.06 572.44,300.01 573.77,299.97 575.11,299.89 576.45,300.01 577.78,300.01 579.12,249.94 580.46,249.94 581.79,300.01 583.13,300.01 584.46,300.01 585.80,300.01 587.14,299.97 588.47,250.03 589.81,300.01 591.15,300.01 592.48,300.01 593.82,300.01 595.15,250.03 596.49,249.99 597.83,300.01 599.16,299.97 600.50,300.01 601.84,299.97 603.17,300.01 604.51,299.97 605.84,299.97 607.18,299.97 608.52,300.06 609.85,249.99 611.19,300.01 612.53,250.03 613.86,249.94 615.20,249.99 616.53,300.01 617.87,300.06 619.21,300.01 620.54,299.97 621.88,299.97 623.22,300.01 624.55,299.93 625.89,299.89 627.22,299.89 628.56,299.89 629.90,299.89 631.23,299.85 632.57,299.85 633.91,299.89 635.24,299.81 636.58,299.81 637.91,299.81 639.25,299.76 640.59,299.76 641.92,299.76 643.26,299.72 644.60,299.68 645.93,299.60 647.27,299.60 648.60,299.60 649.94,299.56 651.28,299.47 652.61,299.43 653.95,299.43 655.29,299.39 656.62,299.47 657.96,259.82 659.30,338.96 660.63,299.31 661.97,299.31 663.30,299.26 664.64,299.68 665.98,299.68 667.31,299.68 668.65,299.64 669.99,299.14 671.32,299.14 672.66,299.10 673.99,299.10 675.33,299.10 676.67,248.07 678.00,299.06 679.34,299.06 680.68,299.06 682.01,299.06 683.35,299.06 684.68,298.97 686.02,298.97 687.36,298.93 688.69,298.97 690.03,298.93 691.37,298.89 692.70,298.89 694.04,298.89 695.37,298.89 696.71,247.78 698.05,298.89 699.38,298.89 700.72,298.85 702.06,298.85 703.39,298.81 704.73,298.81 706.06,298.81 707.40,298.81 708.74,298.81 710.07,298.81 711.41,298.81 712.75,298.81 714.08,298.81 715.42,298.72 716.75,247.45 718.09,247.45 719.43,298.72 720.76,298.72 722.10,298.72 723.44,298.72 724.77,298.72 726.11,298.72 727.44,247.36 728.78,298.68 730.12,247.36 731.45,247.36 732.79,247.36 734.13,298.68 735.46,298.68 736.80,298.68 738.14,298.68 739.47,298.68 740.81,341.67 742.14,307.01 743.48,298.68 744.82,298.68 746.15,298.68 747.49,247.36 748.83,298.64 750.16,247.36 751.50,247.28 752.83,247.20 754.17,298.60 755.51,298.60 756.84,247.03 758.18,298.51 759.52,298.51 760.85,298.51 762.19,298.51 763.52,298.51 764.86,298.51 766.20,298.51 767.53,298.51 768.87,298.51 770.21,298.51 771.54,298.51 772.88,298.51 774.21,298.51 775.55,298.51 776.89,298.51 778.22,298.51 779.56,298.51 780.90,298.51 782.23,298.51 783.57,298.51 784.90,298.51 786.24,298.51 787.58,298.51 788.91,298.51 790.25,298.51 791.59,298.51 792.92,298.47 794.26,298.51 795.59,298.51 796.93,298.47 798.27,298.51 799.60,298.47 800.94,298.51 802.28,298.43 803.61,298.56 804.95,298.43 806.28,298.43 807.62,298.43 808.96,298.43 810.29,298.43 811.63,298.43 812.97,298.43 814.30,298.43 815.64,298.43 816.98,298.43 818.31,298.43 819.65,298.43 820.98,298.43 822.32,298.43 823.66,298.43 824.99,298.43 826.33,298.43 827.67,298.43 829.00,298.43 830.34,298.43 831.67,298.43 833.01,298.43 834.35,298.43 835.68,298.43 837.02,298.43 838.36,298.43 839.69,298.43 841.03,298.43 842.36,298.43 843.70,298.43 845.04,298.43 846.37,298.43 847.71,298.43 849.05,298.43 850.38,298.39 851.72,298.39 853.05,298.43 854.39,298.43 855.73,298.39 857.06,298.39 858.40,298.39 859.74,298.43 861.07,298.43 862.41,298.43 863.74,246.82 865.08,298.43 866.42,246.78 867.75,246.78 869.09,246.78 870.43,246.70 871.76,246.78 873.10,298.39 874.43,298.39 875.77,298.39 877.11,298.39 878.44,298.39 879.78,246.78 881.12,298.39 882.45,298.39 883.79,298.39 885.12,298.39 886.46,298.39 887.80,246.78 889.13,246.78 890.47,298.39 891.81,298.39 893.14,298.39 894.48,298.39 895.81,298.39 897.15,298.39 898.49,298.39 899.82,298.39 901.16,298.39 902.50,298.39 903.83,298.39 905.17,298.39 906.51,298.39 907.84,298.39 909.18,298.35 910.51,298.39 911.85,298.39 913.19,298.35 914.52,298.35 915.86,298.35 917.20,298.35 918.53,298.35 919.87,298.35 921.20,298.35 922.54,298.35 923.88,298.35 925.21,298.35 926.55,298.35 927.89,298.35 929.22,298.35 930.56,298.35 931.89,298.35 933.23,298.35 934.57,298.35 935.90,298.35 937.24,298.35 938.58,298.35 939.91,298.35 941.25,298.35 942.58,298.35 943.92,298.35 945.26,298.35 946.59,298.35 947.93,298.35 949.27,298.35 950.60,298.35 951.94,298.35 953.27,298.35 954.61,298.35 955.95,298.35 957.28,298.35 958.62,298.35 959.96,298.35 961.29,298.35 962.63,298.35 963.96,298.35 965.30,298.35 966.64,298.35 967.97,298.35 969.31,298.35 970.65,298.35 971.98,298.35 973.32,298.35 974.65,298.35 975.99,298.35 977.33,298.35 978.66,298.35 980.00,298.35"/>
  <circle cx="70.00" cy="50.00" r="2.5" fill="#2563eb"/>
  <circle cx="71.34" cy="50.12" r="2.5" fill="#2563eb"/>
  <circle cx="72.67" cy="50.17" r="2.5" fill="#2563eb"/>
  <circle cx="74.01" cy="50.46" r="2.5" fill="#2563eb"/>
  <circle cx="75.35" cy="50.00" r="2.5" fill="#2563eb"/>
  <circle cx="76.68" cy="266.90" r="2.5" fill="#2563eb"/>
  <circle cx="78.02" cy="50.12" r="2.5" fill="#2563eb"/>
  <circle cx="79.35" cy="50.08" r="2.5" fill="#2563eb"/>
  <circle cx="80.69" cy="177.46" r="2.5" fill="#2563eb"/>
  <circle cx="82.03" cy="211.58" r="2.5" fill="#2563eb"/>
  <circle cx="83.36" cy="175.34" r="2.5" fill="#2563eb"/>
  <circle cx="84.70" cy="304.14" r="2.5" fill="#2563eb"/>
  <circle cx="86.04" cy="200.46" r="2.5" fill="#2563eb"/>
  <circle cx="87.37" cy="250.94" r="2.5" fill="#2563eb"/>
  <circle cx="88.71" cy="300.01" r="2.5" fill="#2563eb"/>
  <circle cx="90.04" cy="300.06" r="2.5" fill="#2563eb"/>
  <circle cx="91.38" cy="300.01" r="2.5" fill="#2563eb"/>
  <circle cx="92.72" cy="300.01" r="2.5" fill="#2563eb"/>
  <circle cx="94.05" cy="348.00" r="2.5" fill="#2563eb"/>
  <circle cx="95.39" cy="300.01" r="2.5" fill="#2563eb"/>
  <circle cx="96.73" cy="249.99" r="2.5" fill="#2563eb"/>
  <circle cx="98.06" cy="200.00" r="2.5" fill="#2563eb"/>
  <circle cx="99.40" cy="249.99" r="2.5" fill="#2563eb"/>
  <circle cx="100.73" cy="249.99" r="2.5" fill="#2563eb"/>
  <circle cx="102.07" cy="250.03" r="2.5" fill="#2563eb"/>
  <circle cx="103.41" cy="250.03" r="2.5" fill="#2563eb"/>
  <circle cx="104.74" cy="250.03" r="2.5" fill="#2563eb"/>
  <circle cx="106.08" cy="250.40" r="2.5" fill="#2563eb"/>
  <circle cx="107.42" cy="250.90" r="2.5" fill="#2563eb"/>
  <circle cx="108.75" cy="250.90" r="2.5" fill="#2563eb"/>
  <circle cx="110.09" cy="251.32" r="2.5" fill="#2563eb"/>
  <circle cx="111.42" cy="249.94" r="2.5" fill="#2563eb"/>
  <circle cx="112.76" cy="300.01" r="2.5" fill="#2563eb"/>
  <circle cx="114.10" cy="299.93" r="2.5" fill="#2563eb"/>
  <circle cx="115.43" cy="251.03" r="2.5" fill="#2563eb"/>
  <circle cx="116.77" cy="300.68" r="2.5" fill="#2563eb"/>
  <circle cx="118.11" cy="250.03" r="2.5" fill="#2563eb"/>
  <circle cx="119.44" cy="200.00" r="2.5" fill="#2563eb"/>
  <circle cx="120.78" cy="249.99" r="2.5" fill="#2563eb"/>
  <circle cx="122.11" cy="250.03" r="2.5" fill="#2563eb"/>
  <circle cx="123.45" cy="250.03" r="2.5" fill="#2563eb"/>
  <circle cx="124.79" cy="250.03" r="2.5" fill="#2563eb"/>
  <circle cx="126.12" cy="300.01" r="2.5" fill="#2563eb"/>
  <circle cx="127.46" cy="200.04" r="2.5" fill="#2563eb"/>
  <circle cx="128.80" cy="250.03" r="2.5" fill="#2563eb"/>
  <circle cx="130.13" cy="250.03" r="2.5" fill="#2563eb"/>
  <circle cx="131.47" cy="250.03" r="2.5" fill="#2563eb"/>
  <circle cx="132.80" cy="249.90" r="2.5" fill="#2563eb"/>
  <circle cx="134.14" cy="250.03" r="2.5" fill="#2563eb"/>
  <circle cx="135.48" cy="250.03" r="2.5" fill="#2563eb"/>
  <circle cx="136.81" cy="250.94" r="2.5" fill="#2563eb"/>
  <circle cx="138.15" cy="250.44" r="2.5" fill="#2563eb"/>
  <circle cx="139.49" cy="250.03" r="2.5" fill="#2563eb"/>
  <circle cx="140.82" cy="250.03" r="2.5" fill="#2563eb"/>
  <circle cx="142.16" cy="300.47" r="2.5" fill="#2563eb"/>
  <circle cx="143.49" cy="300.01" r="2.5" fill="#2563eb"/>
  <circle cx="144.83" cy="300.43" r="2.5" fill="#2563eb"/>
  <circle cx="146.17" cy="250.03" r="2.5" fill="#2563eb"/>
  <circle cx="147.50" cy="249.99" r="2.5" fill="#2563eb"/>
  <circle cx="148.84" cy="300.43" r="2.5" fill="#2563eb"/>
  <circle cx="150.18" cy="249.90" r="2.5" fill="#2563eb"/>
  <circle cx="151.51" cy="249.99" r="2.5" fill="#2563eb"/>
  <circle cx="152.85" cy="249.99" r="2.5" fill="#2563eb"/>
  <circle cx="154.19" cy="200.04" r="2.5" fill="#2563eb"/>
  <circle cx="155.52" cy="300.01" r="2.5" fill="#2563eb"/>
  <circle cx="156.86" cy="300.01" r="2.5" fill="#2563eb"/>
  <circle cx="158.19" cy="300.01" r="2.5" fill="#2563eb"/>
  <circle cx="159.53" cy="249.90" r="2.5" fill="#2563eb"/>
  <circle cx="160.87" cy="300.01" r="2.5" fill="#2563eb"/>
  <circle cx="162.20" cy="250.03" r="2.5" fill="#2563eb"/>
  <circle cx="163.54" cy="249.99" r="2.5" fill="#2563eb"/>
  <circle cx="164.88" cy="199.96" r="2.5" fill="#2563eb"/>
  <circle cx="166.21" cy="300.01" r="2.5" fill="#2563eb"/>
  <circle cx="167.55" cy="200.00" r="2.5" fill="#2563eb"/>
  <circle cx="168.88" cy="250.36" r="2.5" fill="#2563eb"/>
  <circle cx="170.22" cy="250.03" r="2.5" fill="#2563eb"/>
  <circle cx="171.56" cy="300.01" r="2.5" fill="#2563eb"/>
  <circle cx="172.89" cy="300.01" r="2.5" fill="#2563eb"/>
  <circle cx="174.23" cy="250.44" r="2.5" fill="#2563eb"/>
  <circle cx="175.57" cy="300.01" r="2.5" fill="#2563eb"/>
  <circle cx="176.90" cy="250.03" r="2.5" fill="#2563eb"/>
  <circle cx="178.24" cy="250.03" r="2.5" fill="#2563eb"/>
  <circle cx="179.57" cy="249.99" r="2.5" fill="#2563eb"/>
  <circle cx="180.91" cy="250.49" r="2.5" fill="#2563eb"/>
  <circle cx="182.25" cy="250.03" r="2.5" fill="#2563eb"/>
  <circle cx="183.58" cy="200.04" r="2.5" fill="#2563eb"/>
  <circle cx="184.92" cy="300.01" r="2.5" fill="#2563eb"/>
  <circle cx="186.26" cy="250.03" r="2.5" fill="#2563eb"/>
  <circle cx="187.59" cy="300.01" r="2.5" fill="#2563eb"/>
  <circle cx="188.93" cy="250.11" r="2.5" fill="#2563eb"/>
  <circle cx="190.26" cy="300.01" r="2.5" fill="#2563eb"/>
  <circle cx="191.60" cy="250.03" r="2.5" fill="#2563eb"/>
  <circle cx="192.94" cy="250.03" r="2.5" fill="#2563eb"/>
  <circle cx="194.27" cy="199.92" r="2.5" fill="#2563eb"/>
  <circle cx="195.61" cy="250.03" r="2.5" fill="#2563eb"/>
  <circle cx="196.95" cy="250.03" r="2.5" fill="#2563eb"/>
  <circle cx="198.28" cy="250.03" r="2.5" fill="#2563eb"/>
  <circle cx="199.62" cy="254.36" r="2.5" fill="#2563eb"/>
  <circle cx="200.95" cy="300.01" r="2.5" fill="#2563eb"/>
  <circle cx="202.29" cy="299.97" r="2.5" fill="#2563eb"/>
  <circle cx="203.63" cy="250.36" r="2.5" fill="#2563eb"/>
  <circle cx="204.96" cy="299.97" r="2.5" fill="#2563eb"/>
  <circle cx="206.30" cy="250.03" r="2.5" fill="#2563eb"/>
  <circle cx="207.64" cy="250.03" r="2.5" fill="#2563eb"/>
  <circle cx="208.97" cy="250.03" r="2.5" fill="#2563eb"/>
  <circle cx="210.31" cy="250.03" r="2.5" fill="#2563eb"/>
  <circle cx="211.64" cy="249.99" r="2.5" fill="#2563eb"/>
  <circle cx="212.98" cy="200.00" r="2.5" fill="#2563eb"/>
  <circle cx="214.32" cy="299.93" r="2.5" fill="#2563eb"/>
  <circle cx="215.65" cy="300.01" r="2.5" fill="#2563eb"/>
  <circle cx="216.99" cy="299.97" r="2.5" fill="#2563eb"/>
  <circle cx="218.33" cy="249.94" r="2.5" fill="#2563eb"/>
  <circle cx="219.66" cy="249.99" r="2.5" fill="#2563eb"/>
  <circle cx="221.00" cy="249.82" r="2.5" fill="#2563eb"/>
  <circle cx="222.33" cy="249.94" r="2.5" fill="#2563eb"/>
  <circle cx="223.67" cy="250.28" r="2.5" fill="#2563eb"/>
  <circle cx="225.01" cy="207.00" r="2.5" fill="#2563eb"/>
  <circle cx="226.34" cy="250.03" r="2.5" fill="#2563eb"/>
  <circle cx="227.68" cy="250.32" r="2.5" fill="#2563eb"/>
  <circle cx="229.02" cy="250.40" r="2.5" fill="#2563eb"/>
  <circle cx="230.35" cy="300.93" r="2.5" fill="#2563eb"/>
  <circle cx="231.69" cy="300.01" r="2.5" fill="#2563eb"/>
  <circle cx="233.02" cy="300.10" r="2.5" fill="#2563eb"/>
  <circle cx="234.36" cy="249.94" r="2.5" fill="#2563eb"/>
  <circle cx="235.70" cy="249.99" r="2.5" fill="#2563eb"/>
  <circle cx="237.03" cy="250.07" r="2.5" fill="#2563eb"/>
  <circle cx="238.37" cy="249.99" r="2.5" fill="#2563eb"/>
  <circle cx="239.71" cy="250.03" r="2.5" fill="#2563eb"/>
  <circle cx="241.04" cy="249.94" r="2.5" fill="#2563eb"/>
  <circle cx="242.38" cy="200.00" r="2.5" fill="#2563eb"/>
  <circle cx="243.72" cy="300.39" r="2.5" fill="#2563eb"/>
  <circle cx="245.05" cy="300.01" r="2.5" fill="#2563eb"/>
  <circle cx="246.39" cy="300.01" r="2.5" fill="#2563eb"/>
  <circle cx="247.72" cy="250.44" r="2.5" fill="#2563eb"/>
  <circle cx="249.06" cy="300.39" r="2.5" fill="#2563eb"/>
  <circle cx="250.40" cy="249.86" r="2.5" fill="#2563eb"/>
  <circle cx="251.73" cy="250.11" r="2.5" fill="#2563eb"/>
  <circle cx="253.07" cy="201.46" r="2.5" fill="#2563eb"/>
  <circle cx="254.41" cy="300.01" r="2.5" fill="#2563eb"/>
  <circle cx="255.74" cy="200.83" r="2.5" fill="#2563eb"/>
  <circle cx="257.08" cy="250.03" r="2.5" fill="#2563eb"/>
  <circle cx="258.41" cy="249.99" r="2.5" fill="#2563eb"/>
  <circle cx="259.75" cy="300.26" r="2.5" fill="#2563eb"/>
  <circle cx="261.09" cy="300.01" r="2.5" fill="#2563eb"/>
  <circle cx="262.42" cy="300.01" r="2.5" fill="#2563eb"/>
  <circle cx="263.76" cy="250.03" r="2.5" fill="#2563eb"/>
  <circle cx="265.10" cy="250.03" r="2.5" fill="#2563eb"/>
  <circle cx="266.43" cy="250.03" r="2.5" fill="#2563eb"/>
  <circle cx="267.77" cy="250.03" r="2.5" fill="#2563eb"/>
  <circle cx="269.10" cy="249.99" r="2.5" fill="#2563eb"/>
  <circle cx="270.44" cy="250.03" r="2.5" fill="#2563eb"/>
  <circle cx="271.78" cy="200.00" r="2.5" fill="#2563eb"/>
  <circle cx="273.11" cy="300.26" r="2.5" fill="#2563eb"/>
  <circle cx="274.45" cy="249.99" r="2.5" fill="#2563eb"/>
  <circle cx="275.79" cy="300.01" r="2.5" fill="#2563eb"/>
  <circle cx="277.12" cy="249.94" r="2.5" fill="#2563eb"/>
  <circle cx="278.46" cy="250.03" r="2.5" fill="#2563eb"/>
  <circle cx="279.79" cy="250.03" r="2.5" fill="#2563eb"/>
  <circle cx="281.13" cy="250.03" r="2.5" fill="#2563eb"/>
  <circle cx="282.47" cy="200.04" r="2.5" fill="#2563eb"/>
  <circle cx="283.80" cy="300.01" r="2.5" fill="#2563eb"/>
  <circle cx="285.14" cy="249.90" r="2.5" fill="#2563eb"/>
  <circle cx="286.48" cy="300.01" r="2.5" fill="#2563eb"/>
  <circle cx="287.81" cy="300.01" r="2.5" fill="#2563eb"/>
  <circle cx="289.15" cy="300.06" r="2.5" fill="#2563eb"/>
  <circle cx="290.48" cy="300.01" r="2.5" fill="#2563eb"/>
  <circle cx="291.82" cy="300.01" r="2.5" fill="#2563eb"/>
  <circle cx="293.16" cy="243.95" r="2.5" fill="#2563eb"/>
  <circle cx="294.49" cy="249.94" r="2.5" fill="#2563eb"/>
  <circle cx="295.83" cy="299.97" r="2.5" fill="#2563eb"/>
  <circle cx="297.17" cy="300.01" r="2.5" fill="#2563eb"/>
  <circle cx="298.50" cy="300.01" r="2.5" fill="#2563eb"/>
  <circle cx="299.84" cy="250.03" r="2.5" fill="#2563eb"/>
  <circle cx="301.17" cy="300.01" r="2.5" fill="#2563eb"/>
  <circle cx="302.51" cy="300.01" r="2.5" fill="#2563eb"/>
  <circle cx="303.85" cy="299.97" r="2.5" fill="#2563eb"/>
  <circle cx="305.18" cy="249.99" r="2.5" fill="#2563eb"/>
  <circle cx="306.52" cy="300.01" r="2.5" fill="#2563eb"/>
  <circle cx="307.86" cy="299.93" r="2.5" fill="#2563eb"/>
  <circle cx="309.19" cy="300.01" r="2.5" fill="#2563eb"/>
  <circle cx="310.53" cy="299.93" r="2.5" fill="#2563eb"/>
  <circle cx="311.86" cy="300.01" r="2.5" fill="#2563eb"/>
  <circle cx="313.20" cy="300.01" r="2.5" fill="#2563eb"/>
  <circle cx="314.54" cy="299.89" r="2.5" fill="#2563eb"/>
  <circle cx="315.87" cy="299.97" r="2.5" fill="#2563eb"/>
  <circle cx="317.21" cy="250.03" r="2.5" fill="#2563eb"/>
  <circle cx="318.55" cy="299.93" r="2.5" fill="#2563eb"/>
  <circle cx="319.88" cy="299.89" r="2.5" fill="#2563eb"/>
  <circle cx="321.22" cy="299.97" r="2.5" fill="#2563eb"/>
  <circle cx="322.56" cy="249.94" r="2.5" fill="#2563eb"/>
  <circle cx="323.89" cy="300.01" r="2.5" fill="#2563eb"/>
  <circle cx="325.23" cy="300.01" r="2.5" fill="#2563eb"/>
  <circle cx="326.56" cy="299.97" r="2.5" fill="#2563eb"/>
  <circle cx="327.90" cy="249.99" r="2.5" fill="#2563eb"/>
  <circle cx="329.24" cy="299.97" r="2.5" fill="#2563eb"/>
  <circle cx="330.57" cy="299.97" r="2.5" fill="#2563eb"/>
  <circle cx="331.91" cy="300.06" r="2.5" fill="#2563eb"/>
  <circle cx="333.25" cy="300.06" r="2.5" fill="#2563eb"/>
  <circle cx="334.58" cy="299.93" r="2.5" fill="#2563eb"/>
  <circle cx="335.92" cy="300.01" r="2.5" fill="#2563eb"/>
  <circle cx="337.25" cy="300.01" r="2.5" fill="#2563eb"/>
  <circle cx="338.59" cy="299.93" r="2.5" fill="#2563eb"/>
  <circle cx="339.93" cy="300.01" r="2.5" fill="#2563eb"/>
  <circle cx="341.26" cy="300.01" r="2.5" fill="#2563eb"/>
  <circle cx="342.60" cy="299.97" r="2.5" fill="#2563eb"/>
  <circle cx="343.94" cy="300.01" r="2.5" fill="#2563eb"/>
  <circle cx="345.27" cy="300.01" r="2.5" fill="#2563eb"/>
  <circle cx="346.61" cy="300.01" r="2.5" fill="#2563eb"/>
  <circle cx="347.94" cy="300.01" r="2.5" fill="#2563eb"/>
  <circle cx="349.28" cy="249.86" r="2.5" fill="#2563eb"/>
  <circle cx="350.62" cy="300.01" r="2.5" fill="#2563eb"/>
  <circle cx="351.95" cy="300.10" r="2.5" fill="#2563eb"/>
  <circle cx="353.29" cy="299.93" r="2.5" fill="#2563eb"/>
  <circle cx="354.63" cy="300.01" r="2.5" fill="#2563eb"/>
  <circle cx="355.96" cy="299.93" r="2.5" fill="#2563eb"/>
  <circle cx="357.30" cy="300.01" r="2.5" fill="#2563eb"/>
  <circle cx="358.63" cy="300.01" r="2.5" fill="#2563eb"/>
  <circle cx="359.97" cy="300.01" r="2.5" fill="#2563eb"/>
  <circle cx="361.31" cy="300.01" r="2.5" fill="#2563eb"/>
  <circle cx="362.64" cy="300.01" r="2.5" fill="#2563eb"/>
  <circle cx="363.98" cy="299.97" r="2.5" fill="#2563eb"/>
  <circle cx="365.32" cy="300.01" r="2.5" fill="#2563eb"/>
  <circle cx="366.65" cy="300.01" r="2.5" fill="#2563eb"/>
  <circle cx="367.99" cy="300.01" r="2.5" fill="#2563eb"/>
  <circle cx="369.32" cy="300.01" r="2.5" fill="#2563eb"/>
  <circle cx="370.66" cy="250.03" r="2.5" fill="#2563eb"/>
  <circle cx="372.00" cy="300.01" r="2.5" fill="#2563eb"/>
  <circle cx="373.33" cy="300.01" r="2.5" fill="#2563eb"/>
  <circle cx="374.67" cy="299.97" r="2.5" fill="#2563eb"/>
  <circle cx="376.01" cy="300.01" r="2.5" fill="#2563eb"/>
  <circle cx="377.34" cy="300.01" r="2.5" fill="#2563eb"/>
  <circle cx="378.68" cy="299.97" r="2.5" fill="#2563eb"/>
  <circle cx="380.01" cy="299.97" r="2.5" fill="#2563eb"/>
  <circle cx="381.35" cy="300.01" r="2.5" fill="#2563eb"/>
  <circle cx="382.69" cy="299.97" r="2.5" fill="#2563eb"/>
  <circle cx="384.02" cy="300.01" r="2.5" fill="#2563eb"/>
  <circle cx="385.36" cy="299.93" r="2.5" fill="#2563eb"/>
  <circle cx="386.70" cy="300.01" r="2.5" fill="#2563eb"/>
  <circle cx="388.03" cy="250.03" r="2.5" fill="#2563eb"/>
  <circle cx="389.37" cy="300.01" r="2.5" fill="#2563eb"/>
  <circle cx="390.70" cy="300.01" r="2.5" fill="#2563eb"/>
  <circle cx="392.04" cy="300.01" r="2.5" fill="#2563eb"/>
  <circle cx="393.38" cy="300.01" r="2.5" fill="#2563eb"/>
  <circle cx="394.71" cy="300.01" r="2.5" fill="#2563eb"/>
  <circle cx="396.05" cy="299.89" r="2.5" fill="#2563eb"/>
  <circle cx="397.39" cy="300.01" r="2.5" fill="#2563eb"/>
  <circle cx="398.72" cy="300.01" r="2.5" fill="#2563eb"/>
  <circle cx="400.06" cy="250.07" r="2.5" fill="#2563eb"/>
  <circle cx="401.40" cy="300.01" r="2.5" fill="#2563eb"/>
  <circle cx="402.73" cy="299.93" r="2.5" fill="#2563eb"/>
  <circle cx="404.07" cy="300.01" r="2.5" fill="#2563eb"/>
  <circle cx="405.40" cy="299.97" r="2.5" fill="#2563eb"/>
  <circle cx="406.74" cy="299.97" r="2.5" fill="#2563eb"/>
  <circle cx="408.08" cy="299.97" r="2.5" fill="#2563eb"/>
  <circle cx="409.41" cy="250.03" r="2.5" fill="#2563eb"/>
  <circle cx="410.75" cy="300.01" r="2.5" fill="#2563eb"/>
  <circle cx="412.09" cy="300.01" r="2.5" fill="#2563eb"/>
  <circle cx="413.42" cy="300.01" r="2.5" fill="#2563eb"/>
  <circle cx="414.76" cy="300.01" r="2.5" fill="#2563eb"/>
  <circle cx="416.09" cy="299.97" r="2.5" fill="#2563eb"/>
  <circle cx="417.43" cy="300.01" r="2.5" fill="#2563eb"/>
  <circle cx="418.77" cy="299.97" r="2.5" fill="#2563eb"/>
  <circle cx="420.10" cy="300.01" r="2.5" fill="#2563eb"/>
  <circle cx="421.44" cy="299.97" r="2.5" fill="#2563eb"/>
  <circle cx="422.78" cy="249.90" r="2.5" fill="#2563eb"/>
  <circle cx="424.11" cy="300.01" r="2.5" fill="#2563eb"/>
  <circle cx="425.45" cy="300.01" r="2.5" fill="#2563eb"/>
  <circle cx="426.78" cy="299.89" r="2.5" fill="#2563eb"/>
  <circle cx="428.12" cy="299.97" r="2.5" fill="#2563eb"/>
  <circle cx="429.46" cy="299.97" r="2.5" fill="#2563eb"/>
  <circle cx="430.79" cy="249.99" r="2.5" fill="#2563eb"/>
  <circle cx="432.13" cy="299.97" r="2.5" fill="#2563eb"/>
  <circle cx="433.47" cy="299.89" r="2.5" fill="#2563eb"/>
  <circle cx="434.80" cy="300.01" r="2.5" fill="#2563eb"/>
  <circle cx="436.14" cy="299.97" r="2.5" fill="#2563eb"/>
  <circle cx="437.47" cy="299.97" r="2.5" fill="#2563eb"/>
  <circle cx="438.81" cy="300.01" r="2.5" fill="#2563eb"/>
  <circle cx="440.15" cy="299.97" r="2.5" fill="#2563eb"/>
  <circle cx="441.48" cy="249.99" r="2.5" fill="#2563eb"/>
  <circle cx="442.82" cy="299.97" r="2.5" fill="#2563eb"/>
  <circle cx="444.16" cy="299.97" r="2.5" fill="#2563eb"/>
  <circle cx="445.49" cy="300.06" r="2.5" fill="#2563eb"/>
  <circle cx="446.83" cy="300.06" r="2.5" fill="#2563eb"/>
  <circle cx="448.16" cy="249.94" r="2.5" fill="#2563eb"/>
  <circle cx="449.50" cy="300.01" r="2.5" fill="#2563eb"/>
  <circle cx="450.84" cy="299.93" r="2.5" fill="#2563eb"/>
  <circle cx="452.17" cy="300.01" r="2.5" fill="#2563eb"/>
  <circle cx="453.51" cy="300.01" r="2.5" fill="#2563eb"/>
  <circle cx="454.85" cy="249.99" r="2.5" fill="#2563eb"/>
  <circle cx="456.18" cy="300.01" r="2.5" fill="#2563eb"/>
  <circle cx="457.52" cy="300.01" r="2.5" fill="#2563eb"/>
  <circle cx="458.85" cy="300.01" r="2.5" fill="#2563eb"/>
  <circle cx="460.19" cy="299.93" r="2.5" fill="#2563eb"/>
  <circle cx="461.53" cy="299.93" r="2.5" fill="#2563eb"/>
  <circle cx="462.86" cy="300.01" r="2.5" fill="#2563eb"/>
  <circle cx="464.20" cy="300.01" r="2.5" fill="#2563eb"/>
  <circle cx="465.54" cy="249.94" r="2.5" fill="#2563eb"/>
  <circle cx="466.87" cy="299.97" r="2.5" fill="#2563eb"/>
  <circle cx="468.21" cy="299.97" r="2.5" fill="#2563eb"/>
  <circle cx="469.54" cy="300.01" r="2.5" fill="#2563eb"/>
  <circle cx="470.88" cy="300.01" r="2.5" fill="#2563eb"/>
  <circle cx="472.22" cy="300.01" r="2.5" fill="#2563eb"/>
  <circle cx="473.55" cy="249.99" r="2.5" fill="#2563eb"/>
  <circle cx="474.89" cy="300.01" r="2.5" fill="#2563eb"/>
  <circle cx="476.23" cy="300.01" r="2.5" fill="#2563eb"/>
  <circle cx="477.56" cy="300.01" r="2.5" fill="#2563eb"/>
  <circle cx="478.90" cy="250.03" r="2.5" fill="#2563eb"/>
  <circle cx="480.23" cy="300.01" r="2.5" fill="#2563eb"/>
  <circle cx="481.57" cy="300.01" r="2.5" fill="#2563eb"/>
  <circle cx="482.91" cy="300.01" r="2.5" fill="#2563eb"/>
  <circle cx="484.24" cy="299.97" r="2.5" fill="#2563eb"/>
  <circle cx="485.58" cy="300.01" r="2.5" fill="#2563eb"/>
  <circle cx="486.92" cy="300.01" r="2.5" fill="#2563eb"/>
  <circle cx="488.25" cy="299.97" r="2.5" fill="#2563eb"/>
  <circle cx="489.59" cy="299.97" r="2.5" fill="#2563eb"/>
  <circle cx="490.93" cy="300.01" r="2.5" fill="#2563eb"/>
  <circle cx="492.26" cy="300.01" r="2.5" fill="#2563eb"/>
  <circle cx="493.60" cy="299.97" r="2.5" fill="#2563eb"/>
  <circle cx="494.93" cy="299.93" r="2.5" fill="#2563eb"/>
  <circle cx="496.27" cy="300.01" r="2.5" fill="#2563eb"/>
  <circle cx="497.61" cy="300.06" r="2.5" fill="#2563eb"/>
  <circle cx="498.94" cy="299.97" r="2.5" fill="#2563eb"/>
  <circle cx="500.28" cy="300.01" r="2.5" fill="#2563eb"/>
  <circle cx="501.62" cy="250.03" r="2.5" fill="#2563eb"/>
  <circle cx="502.95" cy="250.03" r="2.5" fill="#2563eb"/>
  <circle cx="504.29" cy="299.93" r="2.5" fill="#2563eb"/>
  <circle cx="505.62" cy="299.97" r="2.5" fill="#2563eb"/>
  <circle cx="506.96" cy="300.01" r="2.5" fill="#2563eb"/>
  <circle cx="508.30" cy="300.01" r="2.5" fill="#2563eb"/>
  <circle cx="509.63" cy="300.06" r="2.5" fill="#2563eb"/>
  <circle cx="510.97" cy="300.01" r="2.5" fill="#2563eb"/>
  <circle cx="512.31" cy="299.93" r="2.5" fill="#2563eb"/>
  <circle cx="513.64" cy="300.01" r="2.5" fill="#2563eb"/>
  <circle cx="514.98" cy="300.01" r="2.5" fill="#2563eb"/>
  <circle cx="516.31" cy="299.97" r="2.5" fill="#2563eb"/>
  <circle cx="517.65" cy="299.97" r="2.5" fill="#2563eb"/>
  <circle cx="518.99" cy="300.01" r="2.5" fill="#2563eb"/>
  <circle cx="520.32" cy="250.03" r="2.5" fill="#2563eb"/>
  <circle cx="521.66" cy="300.01" r="2.5" fill="#2563eb"/>
  <circle cx="523.00" cy="300.01" r="2.5" fill="#2563eb"/>
  <circle cx="524.33" cy="300.01" r="2.5" fill="#2563eb"/>
  <circle cx="525.67" cy="299.97" r="2.5" fill="#2563eb"/>
  <circle cx="527.00" cy="300.01" r="2.5" fill="#2563eb"/>
  <circle cx="528.34" cy="299.97" r="2.5" fill="#2563eb"/>
  <circle cx="529.68" cy="300.01" r="2.5" fill="#2563eb"/>
  <circle cx="531.01" cy="299.97" r="2.5" fill="#2563eb"/>
  <circle cx="532.35" cy="299.97" r="2.5" fill="#2563eb"/>
  <circle cx="533.69" cy="299.93" r="2.5" fill="#2563eb"/>
  <circle cx="535.02" cy="300.01" r="2.5" fill="#2563eb"/>
  <circle cx="536.36" cy="300.01" r="2.5" fill="#2563eb"/>
  <circle cx="537.69" cy="299.89" r="2.5" fill="#2563eb"/>
  <circle cx="539.03" cy="299.97" r="2.5" fill="#2563eb"/>
  <circle cx="540.37" cy="299.97" r="2.5" fill="#2563eb"/>
  <circle cx="541.70" cy="300.06" r="2.5" fill="#2563eb"/>
  <circle cx="543.04" cy="249.90" r="2.5" fill="#2563eb"/>
  <circle cx="544.38" cy="299.89" r="2.5" fill="#2563eb"/>
  <circle cx="545.71" cy="300.01" r="2.5" fill="#2563eb"/>
  <circle cx="547.05" cy="299.97" r="2.5" fill="#2563eb"/>
  <circle cx="548.38" cy="299.97" r="2.5" fill="#2563eb"/>
  <circle cx="549.72" cy="299.97" r="2.5" fill="#2563eb"/>
  <circle cx="551.06" cy="300.01" r="2.5" fill="#2563eb"/>
  <circle cx="552.39" cy="300.01" r="2.5" fill="#2563eb"/>
  <circle cx="553.73" cy="299.97" r="2.5" fill="#2563eb"/>
  <circle cx="555.07" cy="299.97" r="2.5" fill="#2563eb"/>
  <circle cx="556.40" cy="299.97" r="2.5" fill="#2563eb"/>
  <circle cx="557.74" cy="250.03" r="2.5" fill="#2563eb"/>
  <circle cx="559.07" cy="299.93" r="2.5" fill="#2563eb"/>
  <circle cx="560.41" cy="300.01" r="2.5" fill="#2563eb"/>
  <circle cx="561.75" cy="300.01" r="2.5" fill="#2563eb"/>
  <circle cx="563.08" cy="299.93" r="2.5" fill="#2563eb"/>
  <circle cx="564.42" cy="300.01" r="2.5" fill="#2563eb"/>
  <circle cx="565.76" cy="300.01" r="2.5" fill="#2563eb"/>
  <circle cx="567.09" cy="299.97" r="2.5" fill="#2563eb"/>
  <circle cx="568.43" cy="300.01" r="2.5" fill="#2563eb"/>
  <circle cx="569.77" cy="300.01" r="2.5" fill="#2563eb"/>
  <circle cx="571.10" cy="300.06" r="2.5" fill="#2563eb"/>
  <circle cx="572.44" cy="300.01" r="2.5" fill="#2563eb"/>
  <circle cx="573.77" cy="299.97" r="2.5" fill="#2563eb"/>
  <circle cx="575.11" cy="299.89" r="2.5" fill="#2563eb"/>
  <circle cx="576.45" cy="300.01" r="2.5" fill="#2563eb"/>
  <circle cx="577.78" cy="300.01" r="2.5" fill="#2563eb"/>
  <circle cx="579.12" cy="249.94" r="2.5" fill="#2563eb"/>
  <circle cx="580.46" cy="249.94" r="2.5" fill="#2563eb"/>
  <circle cx="581.79" cy="300.01" r="2.5" fill="#2563eb"/>
  <circle cx="583.13" cy="300.01" r="2.5" fill="#2563eb"/>
  <circle cx="584.46" cy="300.01" r="2.5" fill="#2563eb"/>
  <circle cx="585.80" cy="300.01" r="2.5" fill="#2563eb"/>
  <circle cx="587.14" cy="299.97" r="2.5" fill="#2563eb"/>
  <circle cx="588.47" cy="250.03" r="2.5" fill="#2563eb"/>
  <circle cx="589.81" cy="300.01" r="2.5" fill="#2563eb"/>
  <circle cx="591.15" cy="300.01" r="2.5" fill="#2563eb"/>
  <circle cx="592.48" cy="300.01" r="2.5" fill="#2563eb"/>
  <circle cx="593.82" cy="300.01" r="2.5" fill="#2563eb"/>
  <circle cx="595.15" cy="250.03" r="2.5" fill="#2563eb"/>
  <circle cx="596.49" cy="249.99" r="2.5" fill="#2563eb"/>
  <circle cx="597.83" cy="300.01" r="2.5" fill="#2563eb"/>
  <circle cx="599.16" cy="299.97" r="2.5" fill="#2563eb"/>
  <circle cx="600.50" cy="300.01" r="2.5" fill="#2563eb"/>
  <circle cx="601.84" cy="299.97" r="2.5" fill="#2563eb"/>
  <circle cx="603.17" cy="300.01" r="2.5" fill="#2563eb"/>
  <circle cx="604.51" cy="299.97" r="2.5" fill="#2563eb"/>
  <circle cx="605.84" cy="299.97" r="2.5" fill="#2563eb"/>
  <circle cx="607.18" cy="299.97" r="2.5" fill="#2563eb"/>
  <circle cx="608.52" cy="300.06" r="2.5" fill="#2563eb"/>
  <circle cx="609.85" cy="249.99" r="2.5" fill="#2563eb"/>
  <circle cx="611.19" cy="300.01" r="2.5" fill="#2563eb"/>
  <circle cx="612.53" cy="250.03" r="2.5" fill="#2563eb"/>
  <circle cx="613.86" cy="249.94" r="2.5" fill="#2563eb"/>
  <circle cx="615.20" cy="249.99" r="2.5" fill="#2563eb"/>
  <circle cx="616.53" cy="300.01" r="2.5" fill="#2563eb"/>
  <circle cx="617.87" cy="300.06" r="2.5" fill="#2563eb"/>
  <circle cx="619.21" cy="300.01" r="2.5" fill="#2563eb"/>
  <circle cx="620.54" cy="299.97" r="2.5" fill="#2563eb"/>
  <circle cx="621.88" cy="299.97" r="2.5" fill="#2563eb"/>
  <circle cx="623.22" cy="300.01" r="2.5" fill="#2563eb"/>
  <circle cx="624.55" cy="299.93" r="2.5" fill="#2563eb"/>
  <circle cx="625.89" cy="299.89" r="2.5" fill="#2563eb"/>
  <circle cx="627.22" cy="299.89" r="2.5" fill="#2563eb"/>
  <circle cx="628.56" cy="299.89" r="2.5" fill="#2563eb"/>
  <circle cx="629.90" cy="299.89" r="2.5" fill="#2563eb"/>
  <circle cx="631.23" cy="299.85" r="2.5" fill="#2563eb"/>
  <circle cx="632.57" cy="299.85" r="2.5" fill="#2563eb"/>
  <circle cx="633.91" cy="299.89" r="2.5" fill="#2563eb"/>
  <circle cx="635.24" cy="299.81" r="2.5" fill="#2563eb"/>
  <circle cx="636.58" cy="299.81" r="2.5" fill="#2563eb"/>
  <circle cx="637.91" cy="299.81" r="2.5" fill="#2563eb"/>
  <circle cx="639.25" cy="299.76" r="2.5" fill="#2563eb"/>
  <circle cx="640.59" cy="299.76" r="2.5" fill="#2563eb"/>
  <circle cx="641.92" cy="299.76" r="2.5" fill="#2563eb"/>
  <circle cx="643.26" cy="299.72" r="2.5" fill="#2563eb"/>
  <circle cx="644.60" cy="299.68" r="2.5" fill="#2563eb"/>
  <circle cx="645.93" cy="299.60" r="2.5" fill="#2563eb"/>
  <circle cx="647.27" cy="299.60" r="2.5" fill="#2563eb"/>
  <circle cx="648.60" cy="299.60" r="2.5" fill="#2563eb"/>
  <circle cx="649.94" cy="299.56" r="2.5" fill="#2563eb"/>
  <circle cx="651.28" cy="299.47" r="2.5" fill="#2563eb"/>
  <circle cx="652.61" cy="299.43" r="2.5" fill="#2563eb"/>
  <circle cx="653.95" cy="299.43" r="2.5" fill="#2563eb"/>
  <circle cx="655.29" cy="299.39" r="2.5" fill="#2563eb"/>
  <circle cx="656.62" cy="299.47" r="2.5" fill="#2563eb"/>
  <circle cx="657.96" cy="259.82" r="2.5" fill="#2563eb"/>
  <circle cx="659.30" cy="338.96" r="2.5" fill="#2563eb"/>
  <circle cx="660.63" cy="299.31" r="2.5" fill="#2563eb"/>
  <circle cx="661.97" cy="299.31" r="2.5" fill="#2563eb"/>
  <circle cx="663.30" cy="299.26" r="2.5" fill="#2563eb"/>
  <circle cx="664.64" cy="299.68" r="2.5" fill="#2563eb"/>
  <circle cx="665.98" cy="299.68" r="2.5" fill="#2563eb"/>
  <circle cx="667.31" cy="299.68" r="2.5" fill="#2563eb"/>
  <circle cx="668.65" cy="299.64" r="2.5" fill="#2563eb"/>
  <circle cx="669.99" cy="299.14" r="2.5" fill="#2563eb"/>
  <circle cx="671.32" cy="299.14" r="2.5" fill="#2563eb"/>
  <circle cx="672.66" cy="299.10" r="2.5" fill="#2563eb"/>
  <circle cx="673.99" cy="299.10" r="2.5" fill="#2563eb"/>
  <circle cx="675.33" cy="299.10" r="2.5" fill="#2563eb"/>
  <circle cx="676.67" cy="248.07" r="2.5" fill="#2563eb"/>
  <circle cx="678.00" cy="299.06" r="2.5" fill="#2563eb"/>
  <circle cx="679.34" cy="299.06" r="2.5" fill="#2563eb"/>
  <circle cx="680.68" cy="299.06" r="2.5" fill="#2563eb"/>
  <circle cx="682.01" cy="299.06" r="2.5" fill="#2563eb"/>
  <circle cx="683.35" cy="299.06" r="2.5" fill="#2563eb"/>
  <circle cx="684.68" cy="298.97" r="2.5" fill="#2563eb"/>
  <circle cx="686.02" cy="298.97" r="2.5" fill="#2563eb"/>
  <circle cx="687.36" cy="298.93" r="2.5" fill="#2563eb"/>
  <circle cx="688.69" cy="298.97" r="2.5" fill="#2563eb"/>
  <circle cx="690.03" cy="298.93" r="2.5" fill="#2563eb"/>
  <circle cx="691.37" cy="298.89" r="2.5" fill="#2563eb"/>
  <circle cx="692.70" cy="298.89" r="2.5" fill="#2563eb"/>
  <circle cx="694.04" cy="298.89" r="2.5" fill="#2563eb"/>
  <circle cx="695.37" cy="298.89" r="2.5" fill="#2563eb"/>
  <circle cx="696.71" cy="247.78" r="2.5" fill="#2563eb"/>
  <circle cx="698.05" cy="298.89" r="2.5" fill="#2563eb"/>
  <circle cx="699.38" cy="298.89" r="2.5" fill="#2563eb"/>
  <circle cx="700.72" cy="298.85" r="2.5" fill="#2563eb"/>
  <circle cx="702.06" cy="298.85" r="2.5" fill="#2563eb"/>
  <circle cx="703.39" cy="298.81" r="2.5" fill="#2563eb"/>
  <circle cx="704.73" cy="298.81" r="2.5" fill="#2563eb"/>
  <circle cx="706.06" cy="298.81" r="2.5" fill="#2563eb"/>
  <circle cx="707.40" cy="298.81" r="2.5" fill="#2563eb"/>
  <circle cx="708.74" cy="298.81" r="2.5" fill="#2563eb"/>
  <circle cx="710.07" cy="298.81" r="2.5" fill="#2563eb"/>
  <circle cx="711.41" cy="298.81" r="2.5" fill="#2563eb"/>
  <circle cx="712.75" cy="298.81" r="2.5" fill="#2563eb"/>
  <circle cx="714.08" cy="298.81" r="2.5" fill="#2563eb"/>
  <circle cx="715.42" cy="298.72" r="2.5" fill="#2563eb"/>
  <circle cx="716.75" cy="247.45" r="2.5" fill="#2563eb"/>
  <circle cx="718.09" cy="247.45" r="2.5" fill="#2563eb"/>
  <circle cx="719.43" cy="298.72" r="2.5" fill="#2563eb"/>
  <circle cx="720.76" cy="298.72" r="2.5" fill="#2563eb"/>
  <circle cx="722.10" cy="298.72" r="2.5" fill="#2563eb"/>
  <circle cx="723.44" cy="298.72" r="2.5" fill="#2563eb"/>
  <circle cx="724.77" cy="298.72" r="2.5" fill="#2563eb"/>
  <circle cx="726.11" cy="298.72" r="2.5" fill="#2563eb"/>
  <circle cx="727.44" cy="247.36" r="2.5" fill="#2563eb"/>
  <circle cx="728.78" cy="298.68" r="2.5" fill="#2563eb"/>
  <circle cx="730.12" cy="247.36" r="2.5" fill="#2563eb"/>
  <circle cx="731.45" cy="247.36" r="2.5" fill="#2563eb"/>
  <circle cx="732.79" cy="247.36" r="2.5" fill="#2563eb"/>
  <circle cx="734.13" cy="298.68" r="2.5" fill="#2563eb"/>
  <circle cx="735.46" cy="298.68" r="2.5" fill="#2563eb"/>
  <circle cx="736.80" cy="298.68" r="2.5" fill="#2563eb"/>
  <circle cx="738.14" cy="298.68" r="2.5" fill="#2563eb"/>
  <circle cx="739.47" cy="298.68" r="2.5" fill="#2563eb"/>
  <circle cx="740.81" cy="341.67" r="2.5" fill="#2563eb"/>
  <circle cx="742.14" cy="307.01" r="2.5" fill="#2563eb"/>
  <circle cx="743.48" cy="298.68" r="2.5" fill="#2563eb"/>
  <circle cx="744.82" cy="298.68" r="2.5" fill="#2563eb"/>
  <circle cx="746.15" cy="298.68" r="2.5" fill="#2563eb"/>
  <circle cx="747.49" cy="247.36" r="2.5" fill="#2563eb"/>
  <circle cx="748.83" cy="298.64" r="2.5" fill="#2563eb"/>
  <circle cx="750.16" cy="247.36" r="2.5" fill="#2563eb"/>
  <circle cx="751.50" cy="247.28" r="2.5" fill="#2563eb"/>
  <circle cx="752.83" cy="247.20" r="2.5" fill="#2563eb"/>
  <circle cx="754.17" cy="298.60" r="2.5" fill="#2563eb"/>
  <circle cx="755.51" cy="298.60" r="2.5" fill="#2563eb"/>
  <circle cx="756.84" cy="247.03" r="2.5" fill="#2563eb"/>
  <circle cx="758.18" cy="298.51" r="2.5" fill="#2563eb"/>
  <circle cx="759.52" cy="298.51" r="2.5" fill="#2563eb"/>
  <circle cx="760.85" cy="298.51" r="2.5" fill="#2563eb"/>
  <circle cx="762.19" cy="298.51" r="2.5" fill="#2563eb"/>
  <circle cx="763.52" cy="298.51" r="2.5" fill="#2563eb"/>
  <circle cx="764.86" cy="298.51" r="2.5" fill="#2563eb"/>
  <circle cx="766.20" cy="298.51" r="2.5" fill="#2563eb"/>
  <circle cx="767.53" cy="298.51" r="2.5" fill="#2563eb"/>
  <circle cx="768.87" cy="298.51" r="2.5" fill="#2563eb"/>
  <circle cx="770.21" cy="298.51" r="2.5" fill="#2563eb"/>
  <circle cx="771.54" cy="298.51" r="2.5" fill="#2563eb"/>
  <circle cx="772.88" cy="298.51" r="2.5" fill="#2563eb"/>
  <circle cx="774.21" cy="298.51" r="2.5" fill="#2563eb"/>
  <circle cx="775.55" cy="298.51" r="2.5" fill="#2563eb"/>
  <circle cx="776.89" cy="298.51" r="2.5" fill="#2563eb"/>
  <circle cx="778.22" cy="298.51" r="2.5" fill="#2563eb"/>
  <circle cx="779.56" cy="298.51" r="2.5" fill="#2563eb"/>
  <circle cx="780.90" cy="298.51" r="2.5" fill="#2563eb"/>
  <circle cx="782.23" cy="298.51" r="2.5" fill="#2563eb"/>
  <circle cx="783.57" cy="298.51" r="2.5" fill="#2563eb"/>
  <circle cx="784.90" cy="298.51" r="2.5" fill="#2563eb"/>
  <circle cx="786.24" cy="298.51" r="2.5" fill="#2563eb"/>
  <circle cx="787.58" cy="298.51" r="2.5" fill="#2563eb"/>
  <circle cx="788.91" cy="298.51" r="2.5" fill="#2563eb"/>
  <circle cx="790.25" cy="298.51" r="2.5" fill="#2563eb"/>
  <circle cx="791.59" cy="298.51" r="2.5" fill="#2563eb"/>
  <circle cx="792.92" cy="298.47" r="2.5" fill="#2563eb"/>
  <circle cx="794.26" cy="298.51" r="2.5" fill="#2563eb"/>
  <circle cx="795.59" cy="298.51" r="2.5" fill="#2563eb"/>
  <circle cx="796.93" cy="298.47" r="2.5" fill="#2563eb"/>
  <circle cx="798.27" cy="298.51" r="2.5" fill="#2563eb"/>
  <circle cx="799.60" cy="298.47" r="2.5" fill="#2563eb"/>
  <circle cx="800.94" cy="298.51" r="2.5" fill="#2563eb"/>
  <circle cx="802.28" cy="298.43" r="2.5" fill="#2563eb"/>
  <circle cx="803.61" cy="298.56" r="2.5" fill="#2563eb"/>
  <circle cx="804.95" cy="298.43" r="2.5" fill="#2563eb"/>
  <circle cx="806.28" cy="298.43" r="2.5" fill="#2563eb"/>
  <circle cx="807.62" cy="298.43" r="2.5" fill="#2563eb"/>
  <circle cx="808.96" cy="298.43" r="2.5" fill="#2563eb"/>
  <circle cx="810.29" cy="298.43" r="2.5" fill="#2563eb"/>
  <circle cx="811.63" cy="298.43" r="2.5" fill="#2563eb"/>
  <circle cx="812.97" cy="298.43" r="2.5" fill="#2563eb"/>
  <circle cx="814.30" cy="298.43" r="2.5" fill="#2563eb"/>
  <circle cx="815.64" cy="298.43" r="2.5" fill="#2563eb"/>
  <circle cx="816.98" cy="298.43" r="2.5" fill="#2563eb"/>
  <circle cx="818.31" cy="298.43" r="2.5" fill="#2563eb"/>
  <circle cx="819.65" cy="298.43" r="2.5" fill="#2563eb"/>
  <circle cx="820.98" cy="298.43" r="2.5" fill="#2563eb"/>
  <circle cx="822.32" cy="298.43" r="2.5" fill="#2563eb"/>
  <circle cx="823.66" cy="298.43" r="2.5" fill="#2563eb"/>
  <circle cx="824.99" cy="298.43" r="2.5" fill="#2563eb"/>
  <circle cx="826.33" cy="298.43" r="2.5" fill="#2563eb"/>
  <circle cx="827.67" cy="298.43" r="2.5" fill="#2563eb"/>
  <circle cx="829.00" cy="298.43" r="2.5" fill="#2563eb"/>
  <circle cx="830.34" cy="298.43" r="2.5" fill="#2563eb"/>
  <circle cx="831.67" cy="298.43" r="2.5" fill="#2563eb"/>
  <circle cx="833.01" cy="298.43" r="2.5" fill="#2563eb"/>
  <circle cx="834.35" cy="298.43" r="2.5" fill="#2563eb"/>
  <circle cx="835.68" cy="298.43" r="2.5" fill="#2563eb"/>
  <circle cx="837.02" cy="298.43" r="2.5" fill="#2563eb"/>
  <circle cx="838.36" cy="298.43" r="2.5" fill="#2563eb"/>
  <circle cx="839.69" cy="298.43" r="2.5" fill="#2563eb"/>
  <circle cx="841.03" cy="298.43" r="2.5" fill="#2563eb"/>
  <circle cx="842.36" cy="298.43" r="2.5" fill="#2563eb"/>
  <circle cx="843.70" cy="298.43" r="2.5" fill="#2563eb"/>
  <circle cx="845.04" cy="298.43" r="2.5" fill="#2563eb"/>
  <circle cx="846.37" cy="298.43" r="2.5" fill="#2563eb"/>
  <circle cx="847.71" cy="298.43" r="2.5" fill="#2563eb"/>
  <circle cx="849.05" cy="298.43" r="2.5" fill="#2563eb"/>
  <circle cx="850.38" cy="298.39" r="2.5" fill="#2563eb"/>
  <circle cx="851.72" cy="298.39" r="2.5" fill="#2563eb"/>
  <circle cx="853.05" cy="298.43" r="2.5" fill="#2563eb"/>
  <circle cx="854.39" cy="298.43" r="2.5" fill="#2563eb"/>
  <circle cx="855.73" cy="298.39" r="2.5" fill="#2563eb"/>
  <circle cx="857.06" cy="298.39" r="2.5" fill="#2563eb"/>
  <circle cx="858.40" cy="298.39" r="2.5" fill="#2563eb"/>
  <circle cx="859.74" cy="298.43" r="2.5" fill="#2563eb"/>
  <circle cx="861.07" cy="298.43" r="2.5" fill="#2563eb"/>
  <circle cx="862.41" cy="298.43" r="2.5" fill="#2563eb"/>
  <circle cx="863.74" cy="246.82" r="2.5" fill="#2563eb"/>
  <circle cx="865.08" cy="298.43" r="2.5" fill="#2563eb"/>
  <circle cx="866.42" cy="246.78" r="2.5" fill="#2563eb"/>
  <circle cx="867.75" cy="246.78" r="2.5" fill="#2563eb"/>
  <circle cx="869.09" cy="246.78" r="2.5" fill="#2563eb"/>
  <circle cx="870.43" cy="246.70" r="2.5" fill="#2563eb"/>
  <circle cx="871.76" cy="246.78" r="2.5" fill="#2563eb"/>
  <circle cx="873.10" cy="298.39" r="2.5" fill="#2563eb"/>
  <circle cx="874.43" cy="298.39" r="2.5" fill="#2563eb"/>
  <circle cx="875.77" cy="298.39" r="2.5" fill="#2563eb"/>
  <circle cx="877.11" cy="298.39" r="2.5" fill="#2563eb"/>
  <circle cx="878.44" cy="298.39" r="2.5" fill="#2563eb"/>
  <circle cx="879.78" cy="246.78" r="2.5" fill="#2563eb"/>
  <circle cx="881.12" cy="298.39" r="2.5" fill="#2563eb"/>
  <circle cx="882.45" cy="298.39" r="2.5" fill="#2563eb"/>
  <circle cx="883.79" cy="298.39" r="2.5" fill="#2563eb"/>
  <circle cx="885.12" cy="298.39" r="2.5" fill="#2563eb"/>
  <circle cx="886.46" cy="298.39" r="2.5" fill="#2563eb"/>
  <circle cx="887.80" cy="246.78" r="2.5" fill="#2563eb"/>
  <circle cx="889.13" cy="246.78" r="2.5" fill="#2563eb"/>
  <circle cx="890.47" cy="298.39" r="2.5" fill="#2563eb"/>
  <circle cx="891.81" cy="298.39" r="2.5" fill="#2563eb"/>
  <circle cx="893.14" cy="298.39" r="2.5" fill="#2563eb"/>
  <circle cx="894.48" cy="298.39" r="2.5" fill="#2563eb"/>
  <circle cx="895.81" cy="298.39" r="2.5" fill="#2563eb"/>
  <circle cx="897.15" cy="298.39" r="2.5" fill="#2563eb"/>
  <circle cx="898.49" cy="298.39" r="2.5" fill="#2563eb"/>
  <circle cx="899.82" cy="298.39" r="2.5" fill="#2563eb"/>
  <circle cx="901.16" cy="298.39" r="2.5" fill="#2563eb"/>
  <circle cx="902.50" cy="298.39" r="2.5" fill="#2563eb"/>
  <circle cx="903.83" cy="298.39" r="2.5" fill="#2563eb"/>
  <circle cx="905.17" cy="298.39" r="2.5" fill="#2563eb"/>
  <circle cx="906.51" cy="298.39" r="2.5" fill="#2563eb"/>
  <circle cx="907.84" cy="298.39" r="2.5" fill="#2563eb"/>
  <circle cx="909.18" cy="298.35" r="2.5" fill="#2563eb"/>
  <circle cx="910.51" cy="298.39" r="2.5" fill="#2563eb"/>
  <circle cx="911.85" cy="298.39" r="2.5" fill="#2563eb"/>
  <circle cx="913.19" cy="298.35" r="2.5" fill="#2563eb"/>
  <circle cx="914.52" cy="298.35" r="2.5" fill="#2563eb"/>
  <circle cx="915.86" cy="298.35" r="2.5" fill="#2563eb"/>
  <circle cx="917.20" cy="298.35" r="2.5" fill="#2563eb"/>
  <circle cx="918.53" cy="298.35" r="2.5" fill="#2563eb"/>
  <circle cx="919.87" cy="298.35" r="2.5" fill="#2563eb"/>
  <circle cx="921.20" cy="298.35" r="2.5" fill="#2563eb"/>
  <circle cx="922.54" cy="298.35" r="2.5" fill="#2563eb"/>
  <circle cx="923.88" cy="298.35" r="2.5" fill="#2563eb"/>
  <circle cx="925.21" cy="298.35" r="2.5" fill="#2563eb"/>
  <circle cx="926.55" cy="298.35" r="2.5" fill="#2563eb"/>
  <circle cx="927.89" cy="298.35" r="2.5" fill="#2563eb"/>
  <circle cx="929.22" cy="298.35" r="2.5" fill="#2563eb"/>
  <circle cx="930.56" cy="298.35" r="2.5" fill="#2563eb"/>
  <circle cx="931.89" cy="298.35" r="2.5" fill="#2563eb"/>
  <circle cx="933.23" cy="298.35" r="2.5" fill="#2563eb"/>
  <circle cx="934.57" cy="298.35" r="2.5" fill="#2563eb"/>
  <circle cx="935.90" cy="298.35" r="2.5" fill="#2563eb"/>
  <circle cx="937.24" cy="298.35" r="2.5" fill="#2563eb"/>
  <circle cx="938.58" cy="298.35" r="2.5" fill="#2563eb"/>
  <circle cx="939.91" cy="298.35" r="2.5" fill="#2563eb"/>
  <circle cx="941.25" cy="298.35" r="2.5" fill="#2563eb"/>
  <circle cx="942.58" cy="298.35" r="2.5" fill="#2563eb"/>
  <circle cx="943.92" cy="298.35" r="2.5" fill="#2563eb"/>
  <circle cx="945.26" cy="298.35" r="2.5" fill="#2563eb"/>
  <circle cx="946.59" cy="298.35" r="2.5" fill="#2563eb"/>
  <circle cx="947.93" cy="298.35" r="2.5" fill="#2563eb"/>
  <circle cx="949.27" cy="298.35" r="2.5" fill="#2563eb"/>
  <circle cx="950.60" cy="298.35" r="2.5" fill="#2563eb"/>
  <circle cx="951.94" cy="298.35" r="2.5" fill="#2563eb"/>
  <circle cx="953.27" cy="298.35" r="2.5" fill="#2563eb"/>
  <circle cx="954.61" cy="298.35" r="2.5" fill="#2563eb"/>
  <circle cx="955.95" cy="298.35" r="2.5" fill="#2563eb"/>
  <circle cx="957.28" cy="298.35" r="2.5" fill="#2563eb"/>
  <circle cx="958.62" cy="298.35" r="2.5" fill="#2563eb"/>
  <circle cx="959.96" cy="298.35" r="2.5" fill="#2563eb"/>
  <circle cx="961.29" cy="298.35" r="2.5" fill="#2563eb"/>
  <circle cx="962.63" cy="298.35" r="2.5" fill="#2563eb"/>
  <circle cx="963.96" cy="298.35" r="2.5" fill="#2563eb"/>
  <circle cx="965.30" cy="298.35" r="2.5" fill="#2563eb"/>
  <circle cx="966.64" cy="298.35" r="2.5" fill="#2563eb"/>
  <circle cx="967.97" cy="298.35" r="2.5" fill="#2563eb"/>
  <circle cx="969.31" cy="298.35" r="2.5" fill="#2563eb"/>
  <circle cx="970.65" cy="298.35" r="2.5" fill="#2563eb"/>
  <circle cx="971.98" cy="298.35" r="2.5" fill="#2563eb"/>
  <circle cx="973.32" cy="298.35" r="2.5" fill="#2563eb"/>
  <circle cx="974.65" cy="298.35" r="2.5" fill="#2563eb"/>
  <circle cx="975.99" cy="298.35" r="2.5" fill="#2563eb"/>
  <circle cx="977.33" cy="298.35" r="2.5" fill="#2563eb"/>
  <circle cx="978.66" cy="298.35" r="2.5" fill="#2563eb"/>
  <circle cx="980.00" cy="298.35" r="2.5" fill="#2563eb"/>
</svg>
