<?xml version="1.0" encoding="UTF-8"?>
<svg xmlns="http://www.w3.org/2000/svg" width="1000" height="420" viewBox="0 0 1000 420">
  <rect width="100%" height="100%" fill="#ffffff"/>
  <text x="70" y="28" font-size="20" font-weight="600">수집 시점 기준 - 시간별 스냅샷</text>
  <text x="70" y="402" font-size="12" fill="#555">스냅샷 수</text>
  <line x1="70" y1="350.00" x2="980" y2="350.00" stroke="#e5e7eb" stroke-width="1"/>
  <text x="62" y="354.00" font-size="11" fill="#6b7280" text-anchor="end">0</text>
  <line x1="70" y1="290.00" x2="980" y2="290.00" stroke="#e5e7eb" stroke-width="1"/>
  <text x="62" y="294.00" font-size="11" fill="#6b7280" text-anchor="end">1,440</text>
  <line x1="70" y1="230.00" x2="980" y2="230.00" stroke="#e5e7eb" stroke-width="1"/>
  <text x="62" y="234.00" font-size="11" fill="#6b7280" text-anchor="end">2,880</text>
  <line x1="70" y1="170.00" x2="980" y2="170.00" stroke="#e5e7eb" stroke-width="1"/>
  <text x="62" y="174.00" font-size="11" fill="#6b7280" text-anchor="end">4,321</text>
  <line x1="70" y1="110.00" x2="980" y2="110.00" stroke="#e5e7eb" stroke-width="1"/>
  <text x="62" y="114.00" font-size="11" fill="#6b7280" text-anchor="end">5,761</text>
  <line x1="70" y1="50.00" x2="980" y2="50.00" stroke="#e5e7eb" stroke-width="1"/>
  <text x="62" y="54.00" font-size="11" fill="#6b7280" text-anchor="end">7,202</text>
  <line x1="70" y1="350" x2="980" y2="350" stroke="#111827" stroke-width="1.2"/>
  <line x1="70" y1="50" x2="70" y2="350" stroke="#111827" stroke-width="1.2"/>
  <line x1="70.00" y1="350" x2="70.00" y2="356" stroke="#9ca3af" stroke-width="1"/>
  <text x="70.00" y="372" font-size="10" fill="#6b7280" text-anchor="middle">2026-02-28 18</text>
  <line x1="145.25" y1="350" x2="145.25" y2="356" stroke="#9ca3af" stroke-width="1"/>
  <text x="145.25" y="372" font-size="10" fill="#6b7280" text-anchor="middle">2026-03-09 21</text>
  <line x1="220.49" y1="350" x2="220.49" y2="356" stroke="#9ca3af" stroke-width="1"/>
  <text x="220.49" y="372" font-size="10" fill="#6b7280" text-anchor="middle">2026-03-12 19</text>
  <line x1="295.74" y1="350" x2="295.74" y2="356" stroke="#9ca3af" stroke-width="1"/>
  <text x="295.74" y="372" font-size="10" fill="#6b7280" text-anchor="middle">2026-03-16 02</text>
  <line x1="370.98" y1="350" x2="370.98" y2="356" stroke="#9ca3af" stroke-width="1"/>
  <text x="370.98" y="372" font-size="10" fill="#6b7280" text-anchor="middle">2026-03-20 08</text>
  <line x1="446.23" y1="350" x2="446.23" y2="356" stroke="#9ca3af" stroke-width="1"/>
  <text x="446.23" y="372" font-size="10" fill="#6b7280" text-anchor="middle">2026-03-24 03</text>
  <line x1="521.47" y1="350" x2="521.47" y2="356" stroke="#9ca3af" stroke-width="1"/>
  <text x="521.47" y="372" font-size="10" fill="#6b7280" text-anchor="middle">2026-03-28 14</text>
  <line x1="596.72" y1="350" x2="596.72" y2="356" stroke="#9ca3af" stroke-width="1"/>
  <text x="596.72" y="372" font-size="10" fill="#6b7280" text-anchor="middle">2026-04-02 00</text>
  <line x1="671.96" y1="350" x2="671.96" y2="356" stroke="#9ca3af" stroke-width="1"/>
  <text x="671.96" y="372" font-size="10" fill="#6b7280" text-anchor="middle">2026-04-06 05</text>
  <line x1="747.21" y1="350" x2="747.21" y2="356" stroke="#9ca3af" stroke-width="1"/>
  <text x="747.21" y="372" font-size="10" fill="#6b7280" text-anchor="middle">2026-04-10 21</text>
  <line x1="822.45" y1="350" x2="822.45" y2="356" stroke="#9ca3af" stroke-width="1"/>
  <text x="822.45" y="372" font-size="10" fill="#6b7280" text-anchor="middle">2026-04-15 09</text>
  <line x1="897.70" y1="350" x2="897.70" y2="356" stroke="#9ca3af" stroke-width="1"/>
  <text x="897.70" y="372" font-size="10" fill="#6b7280" text-anchor="middle">2026-04-20 00</text>
  <line x1="972.95" y1="350" x2="972.95" y2="356" stroke="#9ca3af" stroke-width="1"/>
  <text x="972.95" y="372" font-size="10" fill="#6b7280" text-anchor="middle">2026-04-24 17</text>
  <line x1="980.00" y1="350" x2="980.00" y2="356" stroke="#9ca3af" stroke-width="1"/>
  <text x="980.00" y="372" font-size="10" fill="#6b7280" text-anchor="middle">2026-04-25 04</text>
  <polyline fill="none" stroke="#2563eb" stroke-width="2.5" points="70.00,50.00 71.18,50.12 72.35,50.17 73.53,50.46 74.70,50.00 75.88,266.90 77.05,50.12 78.23,50.08 79.41,177.46 80.58,211.58 81.76,175.34 82.93,304.14 84.11,200.46 85.28,250.94 86.46,300.01 87.64,300.06 88.81,300.01 89.99,300.01 91.16,348.00 92.34,300.01 93.51,249.99 94.69,200.00 95.87,249.99 97.04,249.99 98.22,250.03 99.39,250.03 100.57,250.03 101.74,250.40 102.92,250.90 104.10,250.90 105.27,251.32 106.45,249.94 107.62,300.01 108.80,299.93 109.97,251.03 111.15,300.68 112.33,250.03 113.50,200.00 114.68,249.99 115.85,250.03 117.03,250.03 118.20,250.03 119.38,300.01 120.56,200.04 121.73,250.03 122.91,250.03 124.08,250.03 125.26,249.90 126.43,250.03 127.61,250.03 128.79,250.94 129.96,250.44 131.14,250.03 132.31,250.03 133.49,300.47 134.66,300.01 135.84,300.43 137.02,250.03 138.19,249.99 139.37,300.43 140.54,249.90 141.72,249.99 142.89,249.99 144.07,200.04 145.25,300.01 146.42,300.01 147.60,300.01 148.77,249.90 149.95,300.01 151.12,250.03 152.30,249.99 153.48,199.96 154.65,300.01 155.83,200.00 157.00,250.36 158.18,250.03 159.35,300.01 160.53,300.01 161.71,250.44 162.88,300.01 164.06,250.03 165.23,250.03 166.41,249.99 167.58,250.49 168.76,250.03 169.94,200.04 171.11,300.01 172.29,250.03 173.46,300.01 174.64,250.11 175.81,300.01 176.99,250.03 178.17,250.03 179.34,199.92 180.52,250.03 181.69,250.03 182.87,250.03 184.04,254.36 185.22,300.01 186.40,299.97 187.57,250.36 188.75,299.97 189.92,250.03 191.10,250.03 192.27,250.03 193.45,250.03 194.63,249.99 195.80,200.00 196.98,299.93 198.15,300.01 199.33,299.97 200.50,249.94 201.68,249.99 202.86,249.82 204.03,249.94 205.21,250.28 206.38,207.00 207.56,250.03 208.73,250.32 209.91,250.40 211.09,300.93 212.26,300.01 213.44,300.10 214.61,249.94 215.79,249.99 216.96,250.07 218.14,249.99 219.32,250.03 220.49,249.94 221.67,200.00 222.84,300.39 224.02,300.01 225.19,300.01 226.37,250.44 227.55,300.39 228.72,249.86 229.90,250.11 231.07,201.46 232.25,300.01 233.42,200.83 234.60,250.03 235.78,249.99 236.95,300.26 238.13,300.01 239.30,300.01 240.48,250.03 241.65,250.03 242.83,250.03 244.01,250.03 245.18,249.99 246.36,250.03 247.53,200.00 248.71,300.26 249.88,249.99 251.06,300.01 252.24,249.94 253.41,250.03 254.59,250.03 255.76,250.03 256.94,200.04 258.11,300.01 259.29,249.90 260.47,300.01 261.64,300.01 262.82,300.06 263.99,300.01 265.17,300.01 266.34,243.95 267.52,249.94 268.70,299.97 269.87,300.01 271.05,300.01 272.22,250.03 273.40,300.01 274.57,300.01 275.75,299.97 276.93,249.99 278.10,300.01 279.28,299.93 280.45,300.01 281.63,299.93 282.80,300.01 283.98,300.01 285.16,299.89 286.33,299.97 287.51,250.03 288.68,299.93 289.86,299.89 291.03,299.97 292.21,249.94 293.39,300.01 294.56,300.01 295.74,299.97 296.91,249.99 298.09,299.97 299.26,299.97 300.44,300.06 301.61,300.06 302.79,299.93 303.97,300.01 305.14,300.01 306.32,299.93 307.49,300.01 308.67,300.01 309.84,299.97 311.02,300.01 312.20,300.01 313.37,300.01 314.55,300.01 315.72,249.86 316.90,300.01 318.07,300.10 319.25,299.93 320.43,300.01 321.60,299.93 322.78,300.01 323.95,300.01 325.13,300.01 326.30,300.01 327.48,300.01 328.66,299.97 329.83,300.01 331.01,300.01 332.18,300.01 333.36,300.01 334.53,250.03 335.71,300.01 336.89,300.01 338.06,299.97 339.24,300.01 340.41,300.01 341.59,299.97 342.76,299.97 343.94,300.01 345.12,299.97 346.29,300.01 347.47,299.93 348.64,300.01 349.82,250.03 350.99,300.01 352.17,300.01 353.35,300.01 354.52,300.01 355.70,300.01 356.87,299.89 358.05,300.01 359.22,300.01 360.40,250.07 361.58,300.01 362.75,299.93 363.93,300.01 365.10,299.97 366.28,299.97 367.45,299.97 368.63,250.03 369.81,300.01 370.98,300.01 372.16,300.01 373.33,300.01 374.51,299.97 375.68,300.01 376.86,299.97 378.04,300.01 379.21,299.97 380.39,249.90 381.56,300.01 382.74,300.01 383.91,299.89 385.09,299.97 386.27,299.97 387.44,249.99 388.62,299.97 389.79,299.89 390.97,300.01 392.14,299.97 393.32,299.97 394.50,300.01 395.67,299.97 396.85,249.99 398.02,299.97 399.20,299.97 400.37,300.06 401.55,300.06 402.73,249.94 403.90,300.01 405.08,299.93 406.25,300.01 407.43,300.01 408.60,249.99 409.78,300.01 410.96,300.01 412.13,300.01 413.31,299.93 414.48,299.93 415.66,300.01 416.83,300.01 418.01,249.94 419.19,299.97 420.36,299.97 421.54,300.01 422.71,300.01 423.89,300.01 425.06,249.99 426.24,300.01 427.42,300.01 428.59,300.01 429.77,250.03 430.94,300.01 432.12,300.01 433.29,300.01 434.47,299.97 435.65,300.01 436.82,300.01 438.00,299.97 439.17,299.97 440.35,300.01 441.52,300.01 442.70,299.97 443.88,299.93 445.05,300.01 446.23,300.06 447.40,299.97 448.58,300.01 449.75,250.03 450.93,250.03 452.11,299.93 453.28,299.97 454.46,300.01 455.63,300.01 456.81,300.06 457.98,300.01 459.16,299.93 460.34,300.01 461.51,300.01 462.69,299.97 463.86,299.97 465.04,300.01 466.21,250.03 467.39,300.01 468.57,300.01 469.74,300.01 470.92,299.97 472.09,300.01 473.27,299.97 474.44,300.01 475.62,299.97 476.80,299.97 477.97,299.93 479.15,300.01 480.32,300.01 481.50,299.89 482.67,299.97 483.85,299.97 485.03,300.06 486.20,249.90 487.38,299.89 488.55,300.01 489.73,299.97 490.90,299.97 492.08,299.97 493.26,300.01 494.43,300.01 495.61,299.97 496.78,299.97 497.96,299.97 499.13,250.03 500.31,299.93 501.49,300.01 502.66,300.01 503.84,299.93 505.01,300.01 506.19,300.01 507.36,299.97 508.54,300.01 509.72,300.01 510.89,300.06 512.07,300.01 513.24,299.97 514.42,299.89 515.59,300.01 516.77,300.01 517.95,249.94 519.12,249.94 520.30,300.01 521.47,300.01 522.65,300.01 523.82,300.01 525.00,299.97 526.18,250.03 527.35,300.01 528.53,300.01 529.70,300.01 530.88,300.01 532.05,250.03 533.23,249.99 534.41,300.01 535.58,299.97 536.76,300.01 537.93,299.97 539.11,300.01 540.28,299.97 541.46,299.97 542.64,299.97 543.81,300.06 544.99,249.99 546.16,300.01 547.34,250.03 548.51,249.94 549.69,249.99 550.87,300.01 552.04,300.06 553.22,300.01 554.39,299.97 555.57,299.97 556.74,300.01 557.92,299.93 559.10,299.89 560.27,299.89 561.45,299.89 562.62,299.89 563.80,299.85 564.97,299.85 566.15,299.89 567.33,299.81 568.50,299.81 569.68,299.81 570.85,299.76 572.03,299.76 573.20,299.76 574.38,299.72 575.56,299.68 576.73,299.60 577.91,299.60 579.08,299.60 580.26,299.56 581.43,299.47 582.61,299.43 583.79,299.43 584.96,299.39 586.14,299.47 587.31,259.82 588.49,338.96 589.66,299.31 590.84,299.31 592.02,299.26 593.19,299.68 594.37,299.68 595.54,299.68 596.72,299.64 597.89,299.14 599.07,299.14 600.25,299.10 601.42,299.10 602.60,299.10 603.77,248.07 604.95,299.06 606.12,299.06 607.30,299.06 608.48,299.06 609.65,299.06 610.83,298.97 612.00,298.97 613.18,298.93 614.35,298.97 615.53,298.93 616.71,298.89 617.88,298.89 619.06,298.89 620.23,298.89 621.41,247.78 622.58,298.89 623.76,298.89 624.94,298.85 626.11,298.85 627.29,298.81 628.46,298.81 629.64,298.81 630.81,298.81 631.99,298.81 633.17,298.81 634.34,298.81 635.52,298.81 636.69,298.81 637.87,298.72 639.04,247.45 640.22,247.45 641.40,298.72 642.57,298.72 643.75,298.72 644.92,298.72 646.10,298.72 647.27,298.72 648.45,247.36 649.63,298.68 650.80,247.36 651.98,247.36 653.15,247.36 654.33,298.68 655.50,298.68 656.68,298.68 657.86,298.68 659.03,298.68 660.21,341.67 661.38,307.01 662.56,298.68 663.73,298.68 664.91,298.68 666.09,247.36 667.26,298.64 668.44,247.36 669.61,247.28 670.79,247.20 671.96,298.60 673.14,298.60 674.32,247.03 675.49,298.51 676.67,298.51 677.84,298.51 679.02,298.51 680.19,298.51 681.37,298.51 682.55,298.51 683.72,298.51 684.90,298.51 686.07,298.51 687.25,298.51 688.42,298.51 689.60,298.51 690.78,298.51 691.95,298.51 693.13,298.51 694.30,298.51 695.48,298.51 696.65,298.51 697.83,298.51 699.01,298.51 700.18,298.51 701.36,298.51 702.53,298.51 703.71,298.51 704.88,298.51 706.06,298.47 707.24,298.51 708.41,298.51 709.59,298.47 710.76,298.51 711.94,298.47 713.11,298.51 714.29,298.43 715.47,298.56 716.64,298.43 717.82,298.43 718.99,298.43 720.17,298.43 721.34,298.43 722.52,298.43 723.70,298.43 724.87,298.43 726.05,298.43 727.22,298.43 728.40,298.43 729.57,298.43 730.75,298.43 731.93,298.43 733.10,298.43 734.28,298.43 735.45,298.43 736.63,298.43 737.80,298.43 738.98,298.43 740.16,298.43 741.33,298.43 742.51,298.43 743.68,298.43 744.86,298.43 746.03,298.43 747.21,298.43 748.39,298.43 749.56,298.43 750.74,298.43 751.91,298.43 753.09,298.43 754.26,298.43 755.44,298.43 756.61,298.39 757.79,298.39 758.97,298.43 760.14,298.43 761.32,298.39 762.49,298.39 763.67,298.39 764.84,298.43 766.02,298.43 767.20,298.43 768.37,246.82 769.55,298.43 770.72,246.78 771.90,246.78 773.07,246.78 774.25,246.70 775.43,246.78 776.60,298.39 777.78,298.39 778.95,298.39 780.13,298.39 781.30,298.39 782.48,246.78 783.66,298.39 784.83,298.39 786.01,298.39 787.18,298.39 788.36,298.39 789.53,246.78 790.71,246.78 791.89,298.39 793.06,298.39 794.24,298.39 795.41,298.39 796.59,298.39 797.76,298.39 798.94,298.39 800.12,298.39 801.29,298.39 802.47,298.39 803.64,298.39 804.82,298.39 805.99,298.39 807.17,298.39 808.35,298.35 809.52,298.39 810.70,298.39 811.87,298.35 813.05,298.35 814.22,298.35 815.40,298.35 816.58,298.35 817.75,298.35 818.93,298.35 820.10,298.35 821.28,298.35 822.45,298.35 823.63,298.35 824.81,298.35 825.98,298.35 827.16,298.35 828.33,298.35 829.51,298.35 830.68,298.35 831.86,298.35 833.04,298.35 834.21,298.35 835.39,298.35 836.56,298.35 837.74,298.35 838.91,298.35 840.09,298.35 841.27,298.35 842.44,298.35 843.62,298.35 844.79,298.35 845.97,298.35 847.14,298.35 848.32,298.35 849.50,298.35 850.67,298.35 851.85,298.35 853.02,298.35 854.20,298.35 855.37,298.35 856.55,298.35 857.73,298.35 858.90,298.35 860.08,298.35 861.25,298.35 862.43,298.35 863.60,298.35 864.78,298.35 865.96,298.35 867.13,298.35 868.31,298.35 869.48,298.35 870.66,298.35 871.83,298.35 873.01,298.39 874.19,298.39 875.36,298.39 876.54,246.78 877.71,298.39 878.89,298.39 880.06,298.39 881.24,298.39 882.42,298.39 883.59,298.39 884.77,298.39 885.94,246.78 887.12,298.39 888.29,298.39 889.47,298.39 890.65,298.39 891.82,298.39 893.00,298.39 894.17,298.39 895.35,246.78 896.52,298.39 897.70,298.39 898.88,298.39 900.05,298.39 901.23,298.39 902.40,298.39 903.58,298.39 904.75,298.39 905.93,298.39 907.11,298.39 908.28,298.39 909.46,298.35 910.63,298.39 911.81,298.39 912.98,298.39 914.16,298.35 915.34,298.35 916.51,298.35 917.69,298.35 918.86,298.35 920.04,298.35 921.21,298.35 922.39,298.35 923.57,298.35 924.74,298.35 925.92,298.35 927.09,298.35 928.27,298.35 929.44,298.35 930.62,298.35 931.80,298.35 932.97,298.39 934.15,298.39 935.32,298.39 936.50,298.39 937.67,298.39 938.85,298.39 940.03,298.35 941.20,298.39 942.38,298.39 943.55,298.39 944.73,298.39 945.90,298.39 947.08,298.39 948.26,298.39 949.43,298.39 950.61,298.39 951.78,298.35 952.96,298.39 954.13,298.39 955.31,298.39 956.49,298.39 957.66,298.39 958.84,298.39 960.01,298.39 961.19,298.39 962.36,298.39 963.54,298.39 964.72,298.39 965.89,298.39 967.07,298.39 968.24,298.39 969.42,298.39 970.59,298.39 971.77,298.35 972.95,298.35 974.12,298.39 975.30,298.39 976.47,298.39 977.65,298.39 978.82,298.39 980.00,298.39"/>
  <circle cx="70.00" cy="50.00" r="2.5" fill="#2563eb"/>
  <circle cx="71.18" cy="50.12" r="2.5" fill="#2563eb"/>
  <circle cx="72.35" cy="50.17" r="2.5" fill="#2563eb"/>
  <circle cx="73.53" cy="50.46" r="2.5" fill="#2563eb"/>
  <circle cx="74.70" cy="50.00" r="2.5" fill="#2563eb"/>
  <circle cx="75.88" cy="266.90" r="2.5" fill="#2563eb"/>
  <circle cx="77.05" cy="50.12" r="2.5" fill="#2563eb"/>
  <circle cx="78.23" cy="50.08" r="2.5" fill="#2563eb"/>
  <circle cx="79.41" cy="177.46" r="2.5" fill="#2563eb"/>
  <circle cx="80.58" cy="211.58" r="2.5" fill="#2563eb"/>
  <circle cx="81.76" cy="175.34" r="2.5" fill="#2563eb"/>
  <circle cx="82.93" cy="304.14" r="2.5" fill="#2563eb"/>
  <circle cx="84.11" cy="200.46" r="2.5" fill="#2563eb"/>
  <circle cx="85.28" cy="250.94" r="2.5" fill="#2563eb"/>
  <circle cx="86.46" cy="300.01" r="2.5" fill="#2563eb"/>
  <circle cx="87.64" cy="300.06" r="2.5" fill="#2563eb"/>
  <circle cx="88.81" cy="300.01" r="2.5" fill="#2563eb"/>
  <circle cx="89.99" cy="300.01" r="2.5" fill="#2563eb"/>
  <circle cx="91.16" cy="348.00" r="2.5" fill="#2563eb"/>
  <circle cx="92.34" cy="300.01" r="2.5" fill="#2563eb"/>
  <circle cx="93.51" cy="249.99" r="2.5" fill="#2563eb"/>
  <circle cx="94.69" cy="200.00" r="2.5" fill="#2563eb"/>
  <circle cx="95.87" cy="249.99" r="2.5" fill="#2563eb"/>
  <circle cx="97.04" cy="249.99" r="2.5" fill="#2563eb"/>
  <circle cx="98.22" cy="250.03" r="2.5" fill="#2563eb"/>
  <circle cx="99.39" cy="250.03" r="2.5" fill="#2563eb"/>
  <circle cx="100.57" cy="250.03" r="2.5" fill="#2563eb"/>
  <circle cx="101.74" cy="250.40" r="2.5" fill="#2563eb"/>
  <circle cx="102.92" cy="250.90" r="2.5" fill="#2563eb"/>
  <circle cx="104.10" cy="250.90" r="2.5" fill="#2563eb"/>
  <circle cx="105.27" cy="251.32" r="2.5" fill="#2563eb"/>
  <circle cx="106.45" cy="249.94" r="2.5" fill="#2563eb"/>
  <circle cx="107.62" cy="300.01" r="2.5" fill="#2563eb"/>
  <circle cx="108.80" cy="299.93" r="2.5" fill="#2563eb"/>
  <circle cx="109.97" cy="251.03" r="2.5" fill="#2563eb"/>
  <circle cx="111.15" cy="300.68" r="2.5" fill="#2563eb"/>
  <circle cx="112.33" cy="250.03" r="2.5" fill="#2563eb"/>
  <circle cx="113.50" cy="200.00" r="2.5" fill="#2563eb"/>
  <circle cx="114.68" cy="249.99" r="2.5" fill="#2563eb"/>
  <circle cx="115.85" cy="250.03" r="2.5" fill="#2563eb"/>
  <circle cx="117.03" cy="250.03" r="2.5" fill="#2563eb"/>
  <circle cx="118.20" cy="250.03" r="2.5" fill="#2563eb"/>
  <circle cx="119.38" cy="300.01" r="2.5" fill="#2563eb"/>
  <circle cx="120.56" cy="200.04" r="2.5" fill="#2563eb"/>
  <circle cx="121.73" cy="250.03" r="2.5" fill="#2563eb"/>
  <circle cx="122.91" cy="250.03" r="2.5" fill="#2563eb"/>
  <circle cx="124.08" cy="250.03" r="2.5" fill="#2563eb"/>
  <circle cx="125.26" cy="249.90" r="2.5" fill="#2563eb"/>
  <circle cx="126.43" cy="250.03" r="2.5" fill="#2563eb"/>
  <circle cx="127.61" cy="250.03" r="2.5" fill="#2563eb"/>
  <circle cx="128.79" cy="250.94" r="2.5" fill="#2563eb"/>
  <circle cx="129.96" cy="250.44" r="2.5" fill="#2563eb"/>
  <circle cx="131.14" cy="250.03" r="2.5" fill="#2563eb"/>
  <circle cx="132.31" cy="250.03" r="2.5" fill="#2563eb"/>
  <circle cx="133.49" cy="300.47" r="2.5" fill="#2563eb"/>
  <circle cx="134.66" cy="300.01" r="2.5" fill="#2563eb"/>
  <circle cx="135.84" cy="300.43" r="2.5" fill="#2563eb"/>
  <circle cx="137.02" cy="250.03" r="2.5" fill="#2563eb"/>
  <circle cx="138.19" cy="249.99" r="2.5" fill="#2563eb"/>
  <circle cx="139.37" cy="300.43" r="2.5" fill="#2563eb"/>
  <circle cx="140.54" cy="249.90" r="2.5" fill="#2563eb"/>
  <circle cx="141.72" cy="249.99" r="2.5" fill="#2563eb"/>
  <circle cx="142.89" cy="249.99" r="2.5" fill="#2563eb"/>
  <circle cx="144.07" cy="200.04" r="2.5" fill="#2563eb"/>
  <circle cx="145.25" cy="300.01" r="2.5" fill="#2563eb"/>
  <circle cx="146.42" cy="300.01" r="2.5" fill="#2563eb"/>
  <circle cx="147.60" cy="300.01" r="2.5" fill="#2563eb"/>
  <circle cx="148.77" cy="249.90" r="2.5" fill="#2563eb"/>
  <circle cx="149.95" cy="300.01" r="2.5" fill="#2563eb"/>
  <circle cx="151.12" cy="250.03" r="2.5" fill="#2563eb"/>
  <circle cx="152.30" cy="249.99" r="2.5" fill="#2563eb"/>
  <circle cx="153.48" cy="199.96" r="2.5" fill="#2563eb"/>
  <circle cx="154.65" cy="300.01" r="2.5" fill="#2563eb"/>
  <circle cx="155.83" cy="200.00" r="2.5" fill="#2563eb"/>
  <circle cx="157.00" cy="250.36" r="2.5" fill="#2563eb"/>
  <circle cx="158.18" cy="250.03" r="2.5" fill="#2563eb"/>
  <circle cx="159.35" cy="300.01" r="2.5" fill="#2563eb"/>
  <circle cx="160.53" cy="300.01" r="2.5" fill="#2563eb"/>
  <circle cx="161.71" cy="250.44" r="2.5" fill="#2563eb"/>
  <circle cx="162.88" cy="300.01" r="2.5" fill="#2563eb"/>
  <circle cx="164.06" cy="250.03" r="2.5" fill="#2563eb"/>
  <circle cx="165.23" cy="250.03" r="2.5" fill="#2563eb"/>
  <circle cx="166.41" cy="249.99" r="2.5" fill="#2563eb"/>
  <circle cx="167.58" cy="250.49" r="2.5" fill="#2563eb"/>
  <circle cx="168.76" cy="250.03" r="2.5" fill="#2563eb"/>
  <circle cx="169.94" cy="200.04" r="2.5" fill="#2563eb"/>
  <circle cx="171.11" cy="300.01" r="2.5" fill="#2563eb"/>
  <circle cx="172.29" cy="250.03" r="2.5" fill="#2563eb"/>
  <circle cx="173.46" cy="300.01" r="2.5" fill="#2563eb"/>
  <circle cx="174.64" cy="250.11" r="2.5" fill="#2563eb"/>
  <circle cx="175.81" cy="300.01" r="2.5" fill="#2563eb"/>
  <circle cx="176.99" cy="250.03" r="2.5" fill="#2563eb"/>
  <circle cx="178.17" cy="250.03" r="2.5" fill="#2563eb"/>
  <circle cx="179.34" cy="199.92" r="2.5" fill="#2563eb"/>
  <circle cx="180.52" cy="250.03" r="2.5" fill="#2563eb"/>
  <circle cx="181.69" cy="250.03" r="2.5" fill="#2563eb"/>
  <circle cx="182.87" cy="250.03" r="2.5" fill="#2563eb"/>
  <circle cx="184.04" cy="254.36" r="2.5" fill="#2563eb"/>
  <circle cx="185.22" cy="300.01" r="2.5" fill="#2563eb"/>
  <circle cx="186.40" cy="299.97" r="2.5" fill="#2563eb"/>
  <circle cx="187.57" cy="250.36" r="2.5" fill="#2563eb"/>
  <circle cx="188.75" cy="299.97" r="2.5" fill="#2563eb"/>
  <circle cx="189.92" cy="250.03" r="2.5" fill="#2563eb"/>
  <circle cx="191.10" cy="250.03" r="2.5" fill="#2563eb"/>
  <circle cx="192.27" cy="250.03" r="2.5" fill="#2563eb"/>
  <circle cx="193.45" cy="250.03" r="2.5" fill="#2563eb"/>
  <circle cx="194.63" cy="249.99" r="2.5" fill="#2563eb"/>
  <circle cx="195.80" cy="200.00" r="2.5" fill="#2563eb"/>
  <circle cx="196.98" cy="299.93" r="2.5" fill="#2563eb"/>
  <circle cx="198.15" cy="300.01" r="2.5" fill="#2563eb"/>
  <circle cx="199.33" cy="299.97" r="2.5" fill="#2563eb"/>
  <circle cx="200.50" cy="249.94" r="2.5" fill="#2563eb"/>
  <circle cx="201.68" cy="249.99" r="2.5" fill="#2563eb"/>
  <circle cx="202.86" cy="249.82" r="2.5" fill="#2563eb"/>
  <circle cx="204.03" cy="249.94" r="2.5" fill="#2563eb"/>
  <circle cx="205.21" cy="250.28" r="2.5" fill="#2563eb"/>
  <circle cx="206.38" cy="207.00" r="2.5" fill="#2563eb"/>
  <circle cx="207.56" cy="250.03" r="2.5" fill="#2563eb"/>
  <circle cx="208.73" cy="250.32" r="2.5" fill="#2563eb"/>
  <circle cx="209.91" cy="250.40" r="2.5" fill="#2563eb"/>
  <circle cx="211.09" cy="300.93" r="2.5" fill="#2563eb"/>
  <circle cx="212.26" cy="300.01" r="2.5" fill="#2563eb"/>
  <circle cx="213.44" cy="300.10" r="2.5" fill="#2563eb"/>
  <circle cx="214.61" cy="249.94" r="2.5" fill="#2563eb"/>
  <circle cx="215.79" cy="249.99" r="2.5" fill="#2563eb"/>
  <circle cx="216.96" cy="250.07" r="2.5" fill="#2563eb"/>
  <circle cx="218.14" cy="249.99" r="2.5" fill="#2563eb"/>
  <circle cx="219.32" cy="250.03" r="2.5" fill="#2563eb"/>
  <circle cx="220.49" cy="249.94" r="2.5" fill="#2563eb"/>
  <circle cx="221.67" cy="200.00" r="2.5" fill="#2563eb"/>
  <circle cx="222.84" cy="300.39" r="2.5" fill="#2563eb"/>
  <circle cx="224.02" cy="300.01" r="2.5" fill="#2563eb"/>
  <circle cx="225.19" cy="300.01" r="2.5" fill="#2563eb"/>
  <circle cx="226.37" cy="250.44" r="2.5" fill="#2563eb"/>
  <circle cx="227.55" cy="300.39" r="2.5" fill="#2563eb"/>
  <circle cx="228.72" cy="249.86" r="2.5" fill="#2563eb"/>
  <circle cx="229.90" cy="250.11" r="2.5" fill="#2563eb"/>
  <circle cx="231.07" cy="201.46" r="2.5" fill="#2563eb"/>
  <circle cx="232.25" cy="300.01" r="2.5" fill="#2563eb"/>
  <circle cx="233.42" cy="200.83" r="2.5" fill="#2563eb"/>
  <circle cx="234.60" cy="250.03" r="2.5" fill="#2563eb"/>
  <circle cx="235.78" cy="249.99" r="2.5" fill="#2563eb"/>
  <circle cx="236.95" cy="300.26" r="2.5" fill="#2563eb"/>
  <circle cx="238.13" cy="300.01" r="2.5" fill="#2563eb"/>
  <circle cx="239.30" cy="300.01" r="2.5" fill="#2563eb"/>
  <circle cx="240.48" cy="250.03" r="2.5" fill="#2563eb"/>
  <circle cx="241.65" cy="250.03" r="2.5" fill="#2563eb"/>
  <circle cx="242.83" cy="250.03" r="2.5" fill="#2563eb"/>
  <circle cx="244.01" cy="250.03" r="2.5" fill="#2563eb"/>
  <circle cx="245.18" cy="249.99" r="2.5" fill="#2563eb"/>
  <circle cx="246.36" cy="250.03" r="2.5" fill="#2563eb"/>
  <circle cx="247.53" cy="200.00" r="2.5" fill="#2563eb"/>
  <circle cx="248.71" cy="300.26" r="2.5" fill="#2563eb"/>
  <circle cx="249.88" cy="249.99" r="2.5" fill="#2563eb"/>
  <circle cx="251.06" cy="300.01" r="2.5" fill="#2563eb"/>
  <circle cx="252.24" cy="249.94" r="2.5" fill="#2563eb"/>
  <circle cx="253.41" cy="250.03" r="2.5" fill="#2563eb"/>
  <circle cx="254.59" cy="250.03" r="2.5" fill="#2563eb"/>
  <circle cx="255.76" cy="250.03" r="2.5" fill="#2563eb"/>
  <circle cx="256.94" cy="200.04" r="2.5" fill="#2563eb"/>
  <circle cx="258.11" cy="300.01" r="2.5" fill="#2563eb"/>
  <circle cx="259.29" cy="249.90" r="2.5" fill="#2563eb"/>
  <circle cx="260.47" cy="300.01" r="2.5" fill="#2563eb"/>
  <circle cx="261.64" cy="300.01" r="2.5" fill="#2563eb"/>
  <circle cx="262.82" cy="300.06" r="2.5" fill="#2563eb"/>
  <circle cx="263.99" cy="300.01" r="2.5" fill="#2563eb"/>
  <circle cx="265.17" cy="300.01" r="2.5" fill="#2563eb"/>
  <circle cx="266.34" cy="243.95" r="2.5" fill="#2563eb"/>
  <circle cx="267.52" cy="249.94" r="2.5" fill="#2563eb"/>
  <circle cx="268.70" cy="299.97" r="2.5" fill="#2563eb"/>
  <circle cx="269.87" cy="300.01" r="2.5" fill="#2563eb"/>
  <circle cx="271.05" cy="300.01" r="2.5" fill="#2563eb"/>
  <circle cx="272.22" cy="250.03" r="2.5" fill="#2563eb"/>
  <circle cx="273.40" cy="300.01" r="2.5" fill="#2563eb"/>
  <circle cx="274.57" cy="300.01" r="2.5" fill="#2563eb"/>
  <circle cx="275.75" cy="299.97" r="2.5" fill="#2563eb"/>
  <circle cx="276.93" cy="249.99" r="2.5" fill="#2563eb"/>
  <circle cx="278.10" cy="300.01" r="2.5" fill="#2563eb"/>
  <circle cx="279.28" cy="299.93" r="2.5" fill="#2563eb"/>
  <circle cx="280.45" cy="300.01" r="2.5" fill="#2563eb"/>
  <circle cx="281.63" cy="299.93" r="2.5" fill="#2563eb"/>
  <circle cx="282.80" cy="300.01" r="2.5" fill="#2563eb"/>
  <circle cx="283.98" cy="300.01" r="2.5" fill="#2563eb"/>
  <circle cx="285.16" cy="299.89" r="2.5" fill="#2563eb"/>
  <circle cx="286.33" cy="299.97" r="2.5" fill="#2563eb"/>
  <circle cx="287.51" cy="250.03" r="2.5" fill="#2563eb"/>
  <circle cx="288.68" cy="299.93" r="2.5" fill="#2563eb"/>
  <circle cx="289.86" cy="299.89" r="2.5" fill="#2563eb"/>
  <circle cx="291.03" cy="299.97" r="2.5" fill="#2563eb"/>
  <circle cx="292.21" cy="249.94" r="2.5" fill="#2563eb"/>
  <circle cx="293.39" cy="300.01" r="2.5" fill="#2563eb"/>
  <circle cx="294.56" cy="300.01" r="2.5" fill="#2563eb"/>
  <circle cx="295.74" cy="299.97" r="2.5" fill="#2563eb"/>
  <circle cx="296.91" cy="249.99" r="2.5" fill="#2563eb"/>
  <circle cx="298.09" cy="299.97" r="2.5" fill="#2563eb"/>
  <circle cx="299.26" cy="299.97" r="2.5" fill="#2563eb"/>
  <circle cx="300.44" cy="300.06" r="2.5" fill="#2563eb"/>
  <circle cx="301.61" cy="300.06" r="2.5" fill="#2563eb"/>
  <circle cx="302.79" cy="299.93" r="2.5" fill="#2563eb"/>
  <circle cx="303.97" cy="300.01" r="2.5" fill="#2563eb"/>
  <circle cx="305.14" cy="300.01" r="2.5" fill="#2563eb"/>
  <circle cx="306.32" cy="299.93" r="2.5" fill="#2563eb"/>
  <circle cx="307.49" cy="300.01" r="2.5" fill="#2563eb"/>
  <circle cx="308.67" cy="300.01" r="2.5" fill="#2563eb"/>
  <circle cx="309.84" cy="299.97" r="2.5" fill="#2563eb"/>
  <circle cx="311.02" cy="300.01" r="2.5" fill="#2563eb"/>
  <circle cx="312.20" cy="300.01" r="2.5" fill="#2563eb"/>
  <circle cx="313.37" cy="300.01" r="2.5" fill="#2563eb"/>
  <circle cx="314.55" cy="300.01" r="2.5" fill="#2563eb"/>
  <circle cx="315.72" cy="249.86" r="2.5" fill="#2563eb"/>
  <circle cx="316.90" cy="300.01" r="2.5" fill="#2563eb"/>
  <circle cx="318.07" cy="300.10" r="2.5" fill="#2563eb"/>
  <circle cx="319.25" cy="299.93" r="2.5" fill="#2563eb"/>
  <circle cx="320.43" cy="300.01" r="2.5" fill="#2563eb"/>
  <circle cx="321.60" cy="299.93" r="2.5" fill="#2563eb"/>
  <circle cx="322.78" cy="300.01" r="2.5" fill="#2563eb"/>
  <circle cx="323.95" cy="300.01" r="2.5" fill="#2563eb"/>
  <circle cx="325.13" cy="300.01" r="2.5" fill="#2563eb"/>
  <circle cx="326.30" cy="300.01" r="2.5" fill="#2563eb"/>
  <circle cx="327.48" cy="300.01" r="2.5" fill="#2563eb"/>
  <circle cx="328.66" cy="299.97" r="2.5" fill="#2563eb"/>
  <circle cx="329.83" cy="300.01" r="2.5" fill="#2563eb"/>
  <circle cx="331.01" cy="300.01" r="2.5" fill="#2563eb"/>
  <circle cx="332.18" cy="300.01" r="2.5" fill="#2563eb"/>
  <circle cx="333.36" cy="300.01" r="2.5" fill="#2563eb"/>
  <circle cx="334.53" cy="250.03" r="2.5" fill="#2563eb"/>
  <circle cx="335.71" cy="300.01" r="2.5" fill="#2563eb"/>
  <circle cx="336.89" cy="300.01" r="2.5" fill="#2563eb"/>
  <circle cx="338.06" cy="299.97" r="2.5" fill="#2563eb"/>
  <circle cx="339.24" cy="300.01" r="2.5" fill="#2563eb"/>
  <circle cx="340.41" cy="300.01" r="2.5" fill="#2563eb"/>
  <circle cx="341.59" cy="299.97" r="2.5" fill="#2563eb"/>
  <circle cx="342.76" cy="299.97" r="2.5" fill="#2563eb"/>
  <circle cx="343.94" cy="300.01" r="2.5" fill="#2563eb"/>
  <circle cx="345.12" cy="299.97" r="2.5" fill="#2563eb"/>
  <circle cx="346.29" cy="300.01" r="2.5" fill="#2563eb"/>
  <circle cx="347.47" cy="299.93" r="2.5" fill="#2563eb"/>
  <circle cx="348.64" cy="300.01" r="2.5" fill="#2563eb"/>
  <circle cx="349.82" cy="250.03" r="2.5" fill="#2563eb"/>
  <circle cx="350.99" cy="300.01" r="2.5" fill="#2563eb"/>
  <circle cx="352.17" cy="300.01" r="2.5" fill="#2563eb"/>
  <circle cx="353.35" cy="300.01" r="2.5" fill="#2563eb"/>
  <circle cx="354.52" cy="300.01" r="2.5" fill="#2563eb"/>
  <circle cx="355.70" cy="300.01" r="2.5" fill="#2563eb"/>
  <circle cx="356.87" cy="299.89" r="2.5" fill="#2563eb"/>
  <circle cx="358.05" cy="300.01" r="2.5" fill="#2563eb"/>
  <circle cx="359.22" cy="300.01" r="2.5" fill="#2563eb"/>
  <circle cx="360.40" cy="250.07" r="2.5" fill="#2563eb"/>
  <circle cx="361.58" cy="300.01" r="2.5" fill="#2563eb"/>
  <circle cx="362.75" cy="299.93" r="2.5" fill="#2563eb"/>
  <circle cx="363.93" cy="300.01" r="2.5" fill="#2563eb"/>
  <circle cx="365.10" cy="299.97" r="2.5" fill="#2563eb"/>
  <circle cx="366.28" cy="299.97" r="2.5" fill="#2563eb"/>
  <circle cx="367.45" cy="299.97" r="2.5" fill="#2563eb"/>
  <circle cx="368.63" cy="250.03" r="2.5" fill="#2563eb"/>
  <circle cx="369.81" cy="300.01" r="2.5" fill="#2563eb"/>
  <circle cx="370.98" cy="300.01" r="2.5" fill="#2563eb"/>
  <circle cx="372.16" cy="300.01" r="2.5" fill="#2563eb"/>
  <circle cx="373.33" cy="300.01" r="2.5" fill="#2563eb"/>
  <circle cx="374.51" cy="299.97" r="2.5" fill="#2563eb"/>
  <circle cx="375.68" cy="300.01" r="2.5" fill="#2563eb"/>
  <circle cx="376.86" cy="299.97" r="2.5" fill="#2563eb"/>
  <circle cx="378.04" cy="300.01" r="2.5" fill="#2563eb"/>
  <circle cx="379.21" cy="299.97" r="2.5" fill="#2563eb"/>
  <circle cx="380.39" cy="249.90" r="2.5" fill="#2563eb"/>
  <circle cx="381.56" cy="300.01" r="2.5" fill="#2563eb"/>
  <circle cx="382.74" cy="300.01" r="2.5" fill="#2563eb"/>
  <circle cx="383.91" cy="299.89" r="2.5" fill="#2563eb"/>
  <circle cx="385.09" cy="299.97" r="2.5" fill="#2563eb"/>
  <circle cx="386.27" cy="299.97" r="2.5" fill="#2563eb"/>
  <circle cx="387.44" cy="249.99" r="2.5" fill="#2563eb"/>
  <circle cx="388.62" cy="299.97" r="2.5" fill="#2563eb"/>
  <circle cx="389.79" cy="299.89" r="2.5" fill="#2563eb"/>
  <circle cx="390.97" cy="300.01" r="2.5" fill="#2563eb"/>
  <circle cx="392.14" cy="299.97" r="2.5" fill="#2563eb"/>
  <circle cx="393.32" cy="299.97" r="2.5" fill="#2563eb"/>
  <circle cx="394.50" cy="300.01" r="2.5" fill="#2563eb"/>
  <circle cx="395.67" cy="299.97" r="2.5" fill="#2563eb"/>
  <circle cx="396.85" cy="249.99" r="2.5" fill="#2563eb"/>
  <circle cx="398.02" cy="299.97" r="2.5" fill="#2563eb"/>
  <circle cx="399.20" cy="299.97" r="2.5" fill="#2563eb"/>
  <circle cx="400.37" cy="300.06" r="2.5" fill="#2563eb"/>
  <circle cx="401.55" cy="300.06" r="2.5" fill="#2563eb"/>
  <circle cx="402.73" cy="249.94" r="2.5" fill="#2563eb"/>
  <circle cx="403.90" cy="300.01" r="2.5" fill="#2563eb"/>
  <circle cx="405.08" cy="299.93" r="2.5" fill="#2563eb"/>
  <circle cx="406.25" cy="300.01" r="2.5" fill="#2563eb"/>
  <circle cx="407.43" cy="300.01" r="2.5" fill="#2563eb"/>
  <circle cx="408.60" cy="249.99" r="2.5" fill="#2563eb"/>
  <circle cx="409.78" cy="300.01" r="2.5" fill="#2563eb"/>
  <circle cx="410.96" cy="300.01" r="2.5" fill="#2563eb"/>
  <circle cx="412.13" cy="300.01" r="2.5" fill="#2563eb"/>
  <circle cx="413.31" cy="299.93" r="2.5" fill="#2563eb"/>
  <circle cx="414.48" cy="299.93" r="2.5" fill="#2563eb"/>
  <circle cx="415.66" cy="300.01" r="2.5" fill="#2563eb"/>
  <circle cx="416.83" cy="300.01" r="2.5" fill="#2563eb"/>
  <circle cx="418.01" cy="249.94" r="2.5" fill="#2563eb"/>
  <circle cx="419.19" cy="299.97" r="2.5" fill="#2563eb"/>
  <circle cx="420.36" cy="299.97" r="2.5" fill="#2563eb"/>
  <circle cx="421.54" cy="300.01" r="2.5" fill="#2563eb"/>
  <circle cx="422.71" cy="300.01" r="2.5" fill="#2563eb"/>
  <circle cx="423.89" cy="300.01" r="2.5" fill="#2563eb"/>
  <circle cx="425.06" cy="249.99" r="2.5" fill="#2563eb"/>
  <circle cx="426.24" cy="300.01" r="2.5" fill="#2563eb"/>
  <circle cx="427.42" cy="300.01" r="2.5" fill="#2563eb"/>
  <circle cx="428.59" cy="300.01" r="2.5" fill="#2563eb"/>
  <circle cx="429.77" cy="250.03" r="2.5" fill="#2563eb"/>
  <circle cx="430.94" cy="300.01" r="2.5" fill="#2563eb"/>
  <circle cx="432.12" cy="300.01" r="2.5" fill="#2563eb"/>
  <circle cx="433.29" cy="300.01" r="2.5" fill="#2563eb"/>
  <circle cx="434.47" cy="299.97" r="2.5" fill="#2563eb"/>
  <circle cx="435.65" cy="300.01" r="2.5" fill="#2563eb"/>
  <circle cx="436.82" cy="300.01" r="2.5" fill="#2563eb"/>
  <circle cx="438.00" cy="299.97" r="2.5" fill="#2563eb"/>
  <circle cx="439.17" cy="299.97" r="2.5" fill="#2563eb"/>
  <circle cx="440.35" cy="300.01" r="2.5" fill="#2563eb"/>
  <circle cx="441.52" cy="300.01" r="2.5" fill="#2563eb"/>
  <circle cx="442.70" cy="299.97" r="2.5" fill="#2563eb"/>
  <circle cx="443.88" cy="299.93" r="2.5" fill="#2563eb"/>
  <circle cx="445.05" cy="300.01" r="2.5" fill="#2563eb"/>
  <circle cx="446.23" cy="300.06" r="2.5" fill="#2563eb"/>
  <circle cx="447.40" cy="299.97" r="2.5" fill="#2563eb"/>
  <circle cx="448.58" cy="300.01" r="2.5" fill="#2563eb"/>
  <circle cx="449.75" cy="250.03" r="2.5" fill="#2563eb"/>
  <circle cx="450.93" cy="250.03" r="2.5" fill="#2563eb"/>
  <circle cx="452.11" cy="299.93" r="2.5" fill="#2563eb"/>
  <circle cx="453.28" cy="299.97" r="2.5" fill="#2563eb"/>
  <circle cx="454.46" cy="300.01" r="2.5" fill="#2563eb"/>
  <circle cx="455.63" cy="300.01" r="2.5" fill="#2563eb"/>
  <circle cx="456.81" cy="300.06" r="2.5" fill="#2563eb"/>
  <circle cx="457.98" cy="300.01" r="2.5" fill="#2563eb"/>
  <circle cx="459.16" cy="299.93" r="2.5" fill="#2563eb"/>
  <circle cx="460.34" cy="300.01" r="2.5" fill="#2563eb"/>
  <circle cx="461.51" cy="300.01" r="2.5" fill="#2563eb"/>
  <circle cx="462.69" cy="299.97" r="2.5" fill="#2563eb"/>
  <circle cx="463.86" cy="299.97" r="2.5" fill="#2563eb"/>
  <circle cx="465.04" cy="300.01" r="2.5" fill="#2563eb"/>
  <circle cx="466.21" cy="250.03" r="2.5" fill="#2563eb"/>
  <circle cx="467.39" cy="300.01" r="2.5" fill="#2563eb"/>
  <circle cx="468.57" cy="300.01" r="2.5" fill="#2563eb"/>
  <circle cx="469.74" cy="300.01" r="2.5" fill="#2563eb"/>
  <circle cx="470.92" cy="299.97" r="2.5" fill="#2563eb"/>
  <circle cx="472.09" cy="300.01" r="2.5" fill="#2563eb"/>
  <circle cx="473.27" cy="299.97" r="2.5" fill="#2563eb"/>
  <circle cx="474.44" cy="300.01" r="2.5" fill="#2563eb"/>
  <circle cx="475.62" cy="299.97" r="2.5" fill="#2563eb"/>
  <circle cx="476.80" cy="299.97" r="2.5" fill="#2563eb"/>
  <circle cx="477.97" cy="299.93" r="2.5" fill="#2563eb"/>
  <circle cx="479.15" cy="300.01" r="2.5" fill="#2563eb"/>
  <circle cx="480.32" cy="300.01" r="2.5" fill="#2563eb"/>
  <circle cx="481.50" cy="299.89" r="2.5" fill="#2563eb"/>
  <circle cx="482.67" cy="299.97" r="2.5" fill="#2563eb"/>
  <circle cx="483.85" cy="299.97" r="2.5" fill="#2563eb"/>
  <circle cx="485.03" cy="300.06" r="2.5" fill="#2563eb"/>
  <circle cx="486.20" cy="249.90" r="2.5" fill="#2563eb"/>
  <circle cx="487.38" cy="299.89" r="2.5" fill="#2563eb"/>
  <circle cx="488.55" cy="300.01" r="2.5" fill="#2563eb"/>
  <circle cx="489.73" cy="299.97" r="2.5" fill="#2563eb"/>
  <circle cx="490.90" cy="299.97" r="2.5" fill="#2563eb"/>
  <circle cx="492.08" cy="299.97" r="2.5" fill="#2563eb"/>
  <circle cx="493.26" cy="300.01" r="2.5" fill="#2563eb"/>
  <circle cx="494.43" cy="300.01" r="2.5" fill="#2563eb"/>
  <circle cx="495.61" cy="299.97" r="2.5" fill="#2563eb"/>
  <circle cx="496.78" cy="299.97" r="2.5" fill="#2563eb"/>
  <circle cx="497.96" cy="299.97" r="2.5" fill="#2563eb"/>
  <circle cx="499.13" cy="250.03" r="2.5" fill="#2563eb"/>
  <circle cx="500.31" cy="299.93" r="2.5" fill="#2563eb"/>
  <circle cx="501.49" cy="300.01" r="2.5" fill="#2563eb"/>
  <circle cx="502.66" cy="300.01" r="2.5" fill="#2563eb"/>
  <circle cx="503.84" cy="299.93" r="2.5" fill="#2563eb"/>
  <circle cx="505.01" cy="300.01" r="2.5" fill="#2563eb"/>
  <circle cx="506.19" cy="300.01" r="2.5" fill="#2563eb"/>
  <circle cx="507.36" cy="299.97" r="2.5" fill="#2563eb"/>
  <circle cx="508.54" cy="300.01" r="2.5" fill="#2563eb"/>
  <circle cx="509.72" cy="300.01" r="2.5" fill="#2563eb"/>
  <circle cx="510.89" cy="300.06" r="2.5" fill="#2563eb"/>
  <circle cx="512.07" cy="300.01" r="2.5" fill="#2563eb"/>
  <circle cx="513.24" cy="299.97" r="2.5" fill="#2563eb"/>
  <circle cx="514.42" cy="299.89" r="2.5" fill="#2563eb"/>
  <circle cx="515.59" cy="300.01" r="2.5" fill="#2563eb"/>
  <circle cx="516.77" cy="300.01" r="2.5" fill="#2563eb"/>
  <circle cx="517.95" cy="249.94" r="2.5" fill="#2563eb"/>
  <circle cx="519.12" cy="249.94" r="2.5" fill="#2563eb"/>
  <circle cx="520.30" cy="300.01" r="2.5" fill="#2563eb"/>
  <circle cx="521.47" cy="300.01" r="2.5" fill="#2563eb"/>
  <circle cx="522.65" cy="300.01" r="2.5" fill="#2563eb"/>
  <circle cx="523.82" cy="300.01" r="2.5" fill="#2563eb"/>
  <circle cx="525.00" cy="299.97" r="2.5" fill="#2563eb"/>
  <circle cx="526.18" cy="250.03" r="2.5" fill="#2563eb"/>
  <circle cx="527.35" cy="300.01" r="2.5" fill="#2563eb"/>
  <circle cx="528.53" cy="300.01" r="2.5" fill="#2563eb"/>
  <circle cx="529.70" cy="300.01" r="2.5" fill="#2563eb"/>
  <circle cx="530.88" cy="300.01" r="2.5" fill="#2563eb"/>
  <circle cx="532.05" cy="250.03" r="2.5" fill="#2563eb"/>
  <circle cx="533.23" cy="249.99" r="2.5" fill="#2563eb"/>
  <circle cx="534.41" cy="300.01" r="2.5" fill="#2563eb"/>
  <circle cx="535.58" cy="299.97" r="2.5" fill="#2563eb"/>
  <circle cx="536.76" cy="300.01" r="2.5" fill="#2563eb"/>
  <circle cx="537.93" cy="299.97" r="2.5" fill="#2563eb"/>
  <circle cx="539.11" cy="300.01" r="2.5" fill="#2563eb"/>
  <circle cx="540.28" cy="299.97" r="2.5" fill="#2563eb"/>
  <circle cx="541.46" cy="299.97" r="2.5" fill="#2563eb"/>
  <circle cx="542.64" cy="299.97" r="2.5" fill="#2563eb"/>
  <circle cx="543.81" cy="300.06" r="2.5" fill="#2563eb"/>
  <circle cx="544.99" cy="249.99" r="2.5" fill="#2563eb"/>
  <circle cx="546.16" cy="300.01" r="2.5" fill="#2563eb"/>
  <circle cx="547.34" cy="250.03" r="2.5" fill="#2563eb"/>
  <circle cx="548.51" cy="249.94" r="2.5" fill="#2563eb"/>
  <circle cx="549.69" cy="249.99" r="2.5" fill="#2563eb"/>
  <circle cx="550.87" cy="300.01" r="2.5" fill="#2563eb"/>
  <circle cx="552.04" cy="300.06" r="2.5" fill="#2563eb"/>
  <circle cx="553.22" cy="300.01" r="2.5" fill="#2563eb"/>
  <circle cx="554.39" cy="299.97" r="2.5" fill="#2563eb"/>
  <circle cx="555.57" cy="299.97" r="2.5" fill="#2563eb"/>
  <circle cx="556.74" cy="300.01" r="2.5" fill="#2563eb"/>
  <circle cx="557.92" cy="299.93" r="2.5" fill="#2563eb"/>
  <circle cx="559.10" cy="299.89" r="2.5" fill="#2563eb"/>
  <circle cx="560.27" cy="299.89" r="2.5" fill="#2563eb"/>
  <circle cx="561.45" cy="299.89" r="2.5" fill="#2563eb"/>
  <circle cx="562.62" cy="299.89" r="2.5" fill="#2563eb"/>
  <circle cx="563.80" cy="299.85" r="2.5" fill="#2563eb"/>
  <circle cx="564.97" cy="299.85" r="2.5" fill="#2563eb"/>
  <circle cx="566.15" cy="299.89" r="2.5" fill="#2563eb"/>
  <circle cx="567.33" cy="299.81" r="2.5" fill="#2563eb"/>
  <circle cx="568.50" cy="299.81" r="2.5" fill="#2563eb"/>
  <circle cx="569.68" cy="299.81" r="2.5" fill="#2563eb"/>
  <circle cx="570.85" cy="299.76" r="2.5" fill="#2563eb"/>
  <circle cx="572.03" cy="299.76" r="2.5" fill="#2563eb"/>
  <circle cx="573.20" cy="299.76" r="2.5" fill="#2563eb"/>
  <circle cx="574.38" cy="299.72" r="2.5" fill="#2563eb"/>
  <circle cx="575.56" cy="299.68" r="2.5" fill="#2563eb"/>
  <circle cx="576.73" cy="299.60" r="2.5" fill="#2563eb"/>
  <circle cx="577.91" cy="299.60" r="2.5" fill="#2563eb"/>
  <circle cx="579.08" cy="299.60" r="2.5" fill="#2563eb"/>
  <circle cx="580.26" cy="299.56" r="2.5" fill="#2563eb"/>
  <circle cx="581.43" cy="299.47" r="2.5" fill="#2563eb"/>
  <circle cx="582.61" cy="299.43" r="2.5" fill="#2563eb"/>
  <circle cx="583.79" cy="299.43" r="2.5" fill="#2563eb"/>
  <circle cx="584.96" cy="299.39" r="2.5" fill="#2563eb"/>
  <circle cx="586.14" cy="299.47" r="2.5" fill="#2563eb"/>
  <circle cx="587.31" cy="259.82" r="2.5" fill="#2563eb"/>
  <circle cx="588.49" cy="338.96" r="2.5" fill="#2563eb"/>
  <circle cx="589.66" cy="299.31" r="2.5" fill="#2563eb"/>
  <circle cx="590.84" cy="299.31" r="2.5" fill="#2563eb"/>
  <circle cx="592.02" cy="299.26" r="2.5" fill="#2563eb"/>
  <circle cx="593.19" cy="299.68" r="2.5" fill="#2563eb"/>
  <circle cx="594.37" cy="299.68" r="2.5" fill="#2563eb"/>
  <circle cx="595.54" cy="299.68" r="2.5" fill="#2563eb"/>
  <circle cx="596.72" cy="299.64" r="2.5" fill="#2563eb"/>
  <circle cx="597.89" cy="299.14" r="2.5" fill="#2563eb"/>
  <circle cx="599.07" cy="299.14" r="2.5" fill="#2563eb"/>
  <circle cx="600.25" cy="299.10" r="2.5" fill="#2563eb"/>
  <circle cx="601.42" cy="299.10" r="2.5" fill="#2563eb"/>
  <circle cx="602.60" cy="299.10" r="2.5" fill="#2563eb"/>
  <circle cx="603.77" cy="248.07" r="2.5" fill="#2563eb"/>
  <circle cx="604.95" cy="299.06" r="2.5" fill="#2563eb"/>
  <circle cx="606.12" cy="299.06" r="2.5" fill="#2563eb"/>
  <circle cx="607.30" cy="299.06" r="2.5" fill="#2563eb"/>
  <circle cx="608.48" cy="299.06" r="2.5" fill="#2563eb"/>
  <circle cx="609.65" cy="299.06" r="2.5" fill="#2563eb"/>
  <circle cx="610.83" cy="298.97" r="2.5" fill="#2563eb"/>
  <circle cx="612.00" cy="298.97" r="2.5" fill="#2563eb"/>
  <circle cx="613.18" cy="298.93" r="2.5" fill="#2563eb"/>
  <circle cx="614.35" cy="298.97" r="2.5" fill="#2563eb"/>
  <circle cx="615.53" cy="298.93" r="2.5" fill="#2563eb"/>
  <circle cx="616.71" cy="298.89" r="2.5" fill="#2563eb"/>
  <circle cx="617.88" cy="298.89" r="2.5" fill="#2563eb"/>
  <circle cx="619.06" cy="298.89" r="2.5" fill="#2563eb"/>
  <circle cx="620.23" cy="298.89" r="2.5" fill="#2563eb"/>
  <circle cx="621.41" cy="247.78" r="2.5" fill="#2563eb"/>
  <circle cx="622.58" cy="298.89" r="2.5" fill="#2563eb"/>
  <circle cx="623.76" cy="298.89" r="2.5" fill="#2563eb"/>
  <circle cx="624.94" cy="298.85" r="2.5" fill="#2563eb"/>
  <circle cx="626.11" cy="298.85" r="2.5" fill="#2563eb"/>
  <circle cx="627.29" cy="298.81" r="2.5" fill="#2563eb"/>
  <circle cx="628.46" cy="298.81" r="2.5" fill="#2563eb"/>
  <circle cx="629.64" cy="298.81" r="2.5" fill="#2563eb"/>
  <circle cx="630.81" cy="298.81" r="2.5" fill="#2563eb"/>
  <circle cx="631.99" cy="298.81" r="2.5" fill="#2563eb"/>
  <circle cx="633.17" cy="298.81" r="2.5" fill="#2563eb"/>
  <circle cx="634.34" cy="298.81" r="2.5" fill="#2563eb"/>
  <circle cx="635.52" cy="298.81" r="2.5" fill="#2563eb"/>
  <circle cx="636.69" cy="298.81" r="2.5" fill="#2563eb"/>
  <circle cx="637.87" cy="298.72" r="2.5" fill="#2563eb"/>
  <circle cx="639.04" cy="247.45" r="2.5" fill="#2563eb"/>
  <circle cx="640.22" cy="247.45" r="2.5" fill="#2563eb"/>
  <circle cx="641.40" cy="298.72" r="2.5" fill="#2563eb"/>
  <circle cx="642.57" cy="298.72" r="2.5" fill="#2563eb"/>
  <circle cx="643.75" cy="298.72" r="2.5" fill="#2563eb"/>
  <circle cx="644.92" cy="298.72" r="2.5" fill="#2563eb"/>
  <circle cx="646.10" cy="298.72" r="2.5" fill="#2563eb"/>
  <circle cx="647.27" cy="298.72" r="2.5" fill="#2563eb"/>
  <circle cx="648.45" cy="247.36" r="2.5" fill="#2563eb"/>
  <circle cx="649.63" cy="298.68" r="2.5" fill="#2563eb"/>
  <circle cx="650.80" cy="247.36" r="2.5" fill="#2563eb"/>
  <circle cx="651.98" cy="247.36" r="2.5" fill="#2563eb"/>
  <circle cx="653.15" cy="247.36" r="2.5" fill="#2563eb"/>
  <circle cx="654.33" cy="298.68" r="2.5" fill="#2563eb"/>
  <circle cx="655.50" cy="298.68" r="2.5" fill="#2563eb"/>
  <circle cx="656.68" cy="298.68" r="2.5" fill="#2563eb"/>
  <circle cx="657.86" cy="298.68" r="2.5" fill="#2563eb"/>
  <circle cx="659.03" cy="298.68" r="2.5" fill="#2563eb"/>
  <circle cx="660.21" cy="341.67" r="2.5" fill="#2563eb"/>
  <circle cx="661.38" cy="307.01" r="2.5" fill="#2563eb"/>
  <circle cx="662.56" cy="298.68" r="2.5" fill="#2563eb"/>
  <circle cx="663.73" cy="298.68" r="2.5" fill="#2563eb"/>
  <circle cx="664.91" cy="298.68" r="2.5" fill="#2563eb"/>
  <circle cx="666.09" cy="247.36" r="2.5" fill="#2563eb"/>
  <circle cx="667.26" cy="298.64" r="2.5" fill="#2563eb"/>
  <circle cx="668.44" cy="247.36" r="2.5" fill="#2563eb"/>
  <circle cx="669.61" cy="247.28" r="2.5" fill="#2563eb"/>
  <circle cx="670.79" cy="247.20" r="2.5" fill="#2563eb"/>
  <circle cx="671.96" cy="298.60" r="2.5" fill="#2563eb"/>
  <circle cx="673.14" cy="298.60" r="2.5" fill="#2563eb"/>
  <circle cx="674.32" cy="247.03" r="2.5" fill="#2563eb"/>
  <circle cx="675.49" cy="298.51" r="2.5" fill="#2563eb"/>
  <circle cx="676.67" cy="298.51" r="2.5" fill="#2563eb"/>
  <circle cx="677.84" cy="298.51" r="2.5" fill="#2563eb"/>
  <circle cx="679.02" cy="298.51" r="2.5" fill="#2563eb"/>
  <circle cx="680.19" cy="298.51" r="2.5" fill="#2563eb"/>
  <circle cx="681.37" cy="298.51" r="2.5" fill="#2563eb"/>
  <circle cx="682.55" cy="298.51" r="2.5" fill="#2563eb"/>
  <circle cx="683.72" cy="298.51" r="2.5" fill="#2563eb"/>
  <circle cx="684.90" cy="298.51" r="2.5" fill="#2563eb"/>
  <circle cx="686.07" cy="298.51" r="2.5" fill="#2563eb"/>
  <circle cx="687.25" cy="298.51" r="2.5" fill="#2563eb"/>
  <circle cx="688.42" cy="298.51" r="2.5" fill="#2563eb"/>
  <circle cx="689.60" cy="298.51" r="2.5" fill="#2563eb"/>
  <circle cx="690.78" cy="298.51" r="2.5" fill="#2563eb"/>
  <circle cx="691.95" cy="298.51" r="2.5" fill="#2563eb"/>
  <circle cx="693.13" cy="298.51" r="2.5" fill="#2563eb"/>
  <circle cx="694.30" cy="298.51" r="2.5" fill="#2563eb"/>
  <circle cx="695.48" cy="298.51" r="2.5" fill="#2563eb"/>
  <circle cx="696.65" cy="298.51" r="2.5" fill="#2563eb"/>
  <circle cx="697.83" cy="298.51" r="2.5" fill="#2563eb"/>
  <circle cx="699.01" cy="298.51" r="2.5" fill="#2563eb"/>
  <circle cx="700.18" cy="298.51" r="2.5" fill="#2563eb"/>
  <circle cx="701.36" cy="298.51" r="2.5" fill="#2563eb"/>
  <circle cx="702.53" cy="298.51" r="2.5" fill="#2563eb"/>
  <circle cx="703.71" cy="298.51" r="2.5" fill="#2563eb"/>
  <circle cx="704.88" cy="298.51" r="2.5" fill="#2563eb"/>
  <circle cx="706.06" cy="298.47" r="2.5" fill="#2563eb"/>
  <circle cx="707.24" cy="298.51" r="2.5" fill="#2563eb"/>
  <circle cx="708.41" cy="298.51" r="2.5" fill="#2563eb"/>
  <circle cx="709.59" cy="298.47" r="2.5" fill="#2563eb"/>
  <circle cx="710.76" cy="298.51" r="2.5" fill="#2563eb"/>
  <circle cx="711.94" cy="298.47" r="2.5" fill="#2563eb"/>
  <circle cx="713.11" cy="298.51" r="2.5" fill="#2563eb"/>
  <circle cx="714.29" cy="298.43" r="2.5" fill="#2563eb"/>
  <circle cx="715.47" cy="298.56" r="2.5" fill="#2563eb"/>
  <circle cx="716.64" cy="298.43" r="2.5" fill="#2563eb"/>
  <circle cx="717.82" cy="298.43" r="2.5" fill="#2563eb"/>
  <circle cx="718.99" cy="298.43" r="2.5" fill="#2563eb"/>
  <circle cx="720.17" cy="298.43" r="2.5" fill="#2563eb"/>
  <circle cx="721.34" cy="298.43" r="2.5" fill="#2563eb"/>
  <circle cx="722.52" cy="298.43" r="2.5" fill="#2563eb"/>
  <circle cx="723.70" cy="298.43" r="2.5" fill="#2563eb"/>
  <circle cx="724.87" cy="298.43" r="2.5" fill="#2563eb"/>
  <circle cx="726.05" cy="298.43" r="2.5" fill="#2563eb"/>
  <circle cx="727.22" cy="298.43" r="2.5" fill="#2563eb"/>
  <circle cx="728.40" cy="298.43" r="2.5" fill="#2563eb"/>
  <circle cx="729.57" cy="298.43" r="2.5" fill="#2563eb"/>
  <circle cx="730.75" cy="298.43" r="2.5" fill="#2563eb"/>
  <circle cx="731.93" cy="298.43" r="2.5" fill="#2563eb"/>
  <circle cx="733.10" cy="298.43" r="2.5" fill="#2563eb"/>
  <circle cx="734.28" cy="298.43" r="2.5" fill="#2563eb"/>
  <circle cx="735.45" cy="298.43" r="2.5" fill="#2563eb"/>
  <circle cx="736.63" cy="298.43" r="2.5" fill="#2563eb"/>
  <circle cx="737.80" cy="298.43" r="2.5" fill="#2563eb"/>
  <circle cx="738.98" cy="298.43" r="2.5" fill="#2563eb"/>
  <circle cx="740.16" cy="298.43" r="2.5" fill="#2563eb"/>
  <circle cx="741.33" cy="298.43" r="2.5" fill="#2563eb"/>
  <circle cx="742.51" cy="298.43" r="2.5" fill="#2563eb"/>
  <circle cx="743.68" cy="298.43" r="2.5" fill="#2563eb"/>
  <circle cx="744.86" cy="298.43" r="2.5" fill="#2563eb"/>
  <circle cx="746.03" cy="298.43" r="2.5" fill="#2563eb"/>
  <circle cx="747.21" cy="298.43" r="2.5" fill="#2563eb"/>
  <circle cx="748.39" cy="298.43" r="2.5" fill="#2563eb"/>
  <circle cx="749.56" cy="298.43" r="2.5" fill="#2563eb"/>
  <circle cx="750.74" cy="298.43" r="2.5" fill="#2563eb"/>
  <circle cx="751.91" cy="298.43" r="2.5" fill="#2563eb"/>
  <circle cx="753.09" cy="298.43" r="2.5" fill="#2563eb"/>
  <circle cx="754.26" cy="298.43" r="2.5" fill="#2563eb"/>
  <circle cx="755.44" cy="298.43" r="2.5" fill="#2563eb"/>
  <circle cx="756.61" cy="298.39" r="2.5" fill="#2563eb"/>
  <circle cx="757.79" cy="298.39" r="2.5" fill="#2563eb"/>
  <circle cx="758.97" cy="298.43" r="2.5" fill="#2563eb"/>
  <circle cx="760.14" cy="298.43" r="2.5" fill="#2563eb"/>
  <circle cx="761.32" cy="298.39" r="2.5" fill="#2563eb"/>
  <circle cx="762.49" cy="298.39" r="2.5" fill="#2563eb"/>
  <circle cx="763.67" cy="298.39" r="2.5" fill="#2563eb"/>
  <circle cx="764.84" cy="298.43" r="2.5" fill="#2563eb"/>
  <circle cx="766.02" cy="298.43" r="2.5" fill="#2563eb"/>
  <circle cx="767.20" cy="298.43" r="2.5" fill="#2563eb"/>
  <circle cx="768.37" cy="246.82" r="2.5" fill="#2563eb"/>
  <circle cx="769.55" cy="298.43" r="2.5" fill="#2563eb"/>
  <circle cx="770.72" cy="246.78" r="2.5" fill="#2563eb"/>
  <circle cx="771.90" cy="246.78" r="2.5" fill="#2563eb"/>
  <circle cx="773.07" cy="246.78" r="2.5" fill="#2563eb"/>
  <circle cx="774.25" cy="246.70" r="2.5" fill="#2563eb"/>
  <circle cx="775.43" cy="246.78" r="2.5" fill="#2563eb"/>
  <circle cx="776.60" cy="298.39" r="2.5" fill="#2563eb"/>
  <circle cx="777.78" cy="298.39" r="2.5" fill="#2563eb"/>
  <circle cx="778.95" cy="298.39" r="2.5" fill="#2563eb"/>
  <circle cx="780.13" cy="298.39" r="2.5" fill="#2563eb"/>
  <circle cx="781.30" cy="298.39" r="2.5" fill="#2563eb"/>
  <circle cx="782.48" cy="246.78" r="2.5" fill="#2563eb"/>
  <circle cx="783.66" cy="298.39" r="2.5" fill="#2563eb"/>
  <circle cx="784.83" cy="298.39" r="2.5" fill="#2563eb"/>
  <circle cx="786.01" cy="298.39" r="2.5" fill="#2563eb"/>
  <circle cx="787.18" cy="298.39" r="2.5" fill="#2563eb"/>
  <circle cx="788.36" cy="298.39" r="2.5" fill="#2563eb"/>
  <circle cx="789.53" cy="246.78" r="2.5" fill="#2563eb"/>
  <circle cx="790.71" cy="246.78" r="2.5" fill="#2563eb"/>
  <circle cx="791.89" cy="298.39" r="2.5" fill="#2563eb"/>
  <circle cx="793.06" cy="298.39" r="2.5" fill="#2563eb"/>
  <circle cx="794.24" cy="298.39" r="2.5" fill="#2563eb"/>
  <circle cx="795.41" cy="298.39" r="2.5" fill="#2563eb"/>
  <circle cx="796.59" cy="298.39" r="2.5" fill="#2563eb"/>
  <circle cx="797.76" cy="298.39" r="2.5" fill="#2563eb"/>
  <circle cx="798.94" cy="298.39" r="2.5" fill="#2563eb"/>
  <circle cx="800.12" cy="298.39" r="2.5" fill="#2563eb"/>
  <circle cx="801.29" cy="298.39" r="2.5" fill="#2563eb"/>
  <circle cx="802.47" cy="298.39" r="2.5" fill="#2563eb"/>
  <circle cx="803.64" cy="298.39" r="2.5" fill="#2563eb"/>
  <circle cx="804.82" cy="298.39" r="2.5" fill="#2563eb"/>
  <circle cx="805.99" cy="298.39" r="2.5" fill="#2563eb"/>
  <circle cx="807.17" cy="298.39" r="2.5" fill="#2563eb"/>
  <circle cx="808.35" cy="298.35" r="2.5" fill="#2563eb"/>
  <circle cx="809.52" cy="298.39" r="2.5" fill="#2563eb"/>
  <circle cx="810.70" cy="298.39" r="2.5" fill="#2563eb"/>
  <circle cx="811.87" cy="298.35" r="2.5" fill="#2563eb"/>
  <circle cx="813.05" cy="298.35" r="2.5" fill="#2563eb"/>
  <circle cx="814.22" cy="298.35" r="2.5" fill="#2563eb"/>
  <circle cx="815.40" cy="298.35" r="2.5" fill="#2563eb"/>
  <circle cx="816.58" cy="298.35" r="2.5" fill="#2563eb"/>
  <circle cx="817.75" cy="298.35" r="2.5" fill="#2563eb"/>
  <circle cx="818.93" cy="298.35" r="2.5" fill="#2563eb"/>
  <circle cx="820.10" cy="298.35" r="2.5" fill="#2563eb"/>
  <circle cx="821.28" cy="298.35" r="2.5" fill="#2563eb"/>
  <circle cx="822.45" cy="298.35" r="2.5" fill="#2563eb"/>
  <circle cx="823.63" cy="298.35" r="2.5" fill="#2563eb"/>
  <circle cx="824.81" cy="298.35" r="2.5" fill="#2563eb"/>
  <circle cx="825.98" cy="298.35" r="2.5" fill="#2563eb"/>
  <circle cx="827.16" cy="298.35" r="2.5" fill="#2563eb"/>
  <circle cx="828.33" cy="298.35" r="2.5" fill="#2563eb"/>
  <circle cx="829.51" cy="298.35" r="2.5" fill="#2563eb"/>
  <circle cx="830.68" cy="298.35" r="2.5" fill="#2563eb"/>
  <circle cx="831.86" cy="298.35" r="2.5" fill="#2563eb"/>
  <circle cx="833.04" cy="298.35" r="2.5" fill="#2563eb"/>
  <circle cx="834.21" cy="298.35" r="2.5" fill="#2563eb"/>
  <circle cx="835.39" cy="298.35" r="2.5" fill="#2563eb"/>
  <circle cx="836.56" cy="298.35" r="2.5" fill="#2563eb"/>
  <circle cx="837.74" cy="298.35" r="2.5" fill="#2563eb"/>
  <circle cx="838.91" cy="298.35" r="2.5" fill="#2563eb"/>
  <circle cx="840.09" cy="298.35" r="2.5" fill="#2563eb"/>
  <circle cx="841.27" cy="298.35" r="2.5" fill="#2563eb"/>
  <circle cx="842.44" cy="298.35" r="2.5" fill="#2563eb"/>
  <circle cx="843.62" cy="298.35" r="2.5" fill="#2563eb"/>
  <circle cx="844.79" cy="298.35" r="2.5" fill="#2563eb"/>
  <circle cx="845.97" cy="298.35" r="2.5" fill="#2563eb"/>
  <circle cx="847.14" cy="298.35" r="2.5" fill="#2563eb"/>
  <circle cx="848.32" cy="298.35" r="2.5" fill="#2563eb"/>
  <circle cx="849.50" cy="298.35" r="2.5" fill="#2563eb"/>
  <circle cx="850.67" cy="298.35" r="2.5" fill="#2563eb"/>
  <circle cx="851.85" cy="298.35" r="2.5" fill="#2563eb"/>
  <circle cx="853.02" cy="298.35" r="2.5" fill="#2563eb"/>
  <circle cx="854.20" cy="298.35" r="2.5" fill="#2563eb"/>
  <circle cx="855.37" cy="298.35" r="2.5" fill="#2563eb"/>
  <circle cx="856.55" cy="298.35" r="2.5" fill="#2563eb"/>
  <circle cx="857.73" cy="298.35" r="2.5" fill="#2563eb"/>
  <circle cx="858.90" cy="298.35" r="2.5" fill="#2563eb"/>
  <circle cx="860.08" cy="298.35" r="2.5" fill="#2563eb"/>
  <circle cx="861.25" cy="298.35" r="2.5" fill="#2563eb"/>
  <circle cx="862.43" cy="298.35" r="2.5" fill="#2563eb"/>
  <circle cx="863.60" cy="298.35" r="2.5" fill="#2563eb"/>
  <circle cx="864.78" cy="298.35" r="2.5" fill="#2563eb"/>
  <circle cx="865.96" cy="298.35" r="2.5" fill="#2563eb"/>
  <circle cx="867.13" cy="298.35" r="2.5" fill="#2563eb"/>
  <circle cx="868.31" cy="298.35" r="2.5" fill="#2563eb"/>
  <circle cx="869.48" cy="298.35" r="2.5" fill="#2563eb"/>
  <circle cx="870.66" cy="298.35" r="2.5" fill="#2563eb"/>
  <circle cx="871.83" cy="298.35" r="2.5" fill="#2563eb"/>
  <circle cx="873.01" cy="298.39" r="2.5" fill="#2563eb"/>
  <circle cx="874.19" cy="298.39" r="2.5" fill="#2563eb"/>
  <circle cx="875.36" cy="298.39" r="2.5" fill="#2563eb"/>
  <circle cx="876.54" cy="246.78" r="2.5" fill="#2563eb"/>
  <circle cx="877.71" cy="298.39" r="2.5" fill="#2563eb"/>
  <circle cx="878.89" cy="298.39" r="2.5" fill="#2563eb"/>
  <circle cx="880.06" cy="298.39" r="2.5" fill="#2563eb"/>
  <circle cx="881.24" cy="298.39" r="2.5" fill="#2563eb"/>
  <circle cx="882.42" cy="298.39" r="2.5" fill="#2563eb"/>
  <circle cx="883.59" cy="298.39" r="2.5" fill="#2563eb"/>
  <circle cx="884.77" cy="298.39" r="2.5" fill="#2563eb"/>
  <circle cx="885.94" cy="246.78" r="2.5" fill="#2563eb"/>
  <circle cx="887.12" cy="298.39" r="2.5" fill="#2563eb"/>
  <circle cx="888.29" cy="298.39" r="2.5" fill="#2563eb"/>
  <circle cx="889.47" cy="298.39" r="2.5" fill="#2563eb"/>
  <circle cx="890.65" cy="298.39" r="2.5" fill="#2563eb"/>
  <circle cx="891.82" cy="298.39" r="2.5" fill="#2563eb"/>
  <circle cx="893.00" cy="298.39" r="2.5" fill="#2563eb"/>
  <circle cx="894.17" cy="298.39" r="2.5" fill="#2563eb"/>
  <circle cx="895.35" cy="246.78" r="2.5" fill="#2563eb"/>
  <circle cx="896.52" cy="298.39" r="2.5" fill="#2563eb"/>
  <circle cx="897.70" cy="298.39" r="2.5" fill="#2563eb"/>
  <circle cx="898.88" cy="298.39" r="2.5" fill="#2563eb"/>
  <circle cx="900.05" cy="298.39" r="2.5" fill="#2563eb"/>
  <circle cx="901.23" cy="298.39" r="2.5" fill="#2563eb"/>
  <circle cx="902.40" cy="298.39" r="2.5" fill="#2563eb"/>
  <circle cx="903.58" cy="298.39" r="2.5" fill="#2563eb"/>
  <circle cx="904.75" cy="298.39" r="2.5" fill="#2563eb"/>
  <circle cx="905.93" cy="298.39" r="2.5" fill="#2563eb"/>
  <circle cx="907.11" cy="298.39" r="2.5" fill="#2563eb"/>
  <circle cx="908.28" cy="298.39" r="2.5" fill="#2563eb"/>
  <circle cx="909.46" cy="298.35" r="2.5" fill="#2563eb"/>
  <circle cx="910.63" cy="298.39" r="2.5" fill="#2563eb"/>
  <circle cx="911.81" cy="298.39" r="2.5" fill="#2563eb"/>
  <circle cx="912.98" cy="298.39" r="2.5" fill="#2563eb"/>
  <circle cx="914.16" cy="298.35" r="2.5" fill="#2563eb"/>
  <circle cx="915.34" cy="298.35" r="2.5" fill="#2563eb"/>
  <circle cx="916.51" cy="298.35" r="2.5" fill="#2563eb"/>
  <circle cx="917.69" cy="298.35" r="2.5" fill="#2563eb"/>
  <circle cx="918.86" cy="298.35" r="2.5" fill="#2563eb"/>
  <circle cx="920.04" cy="298.35" r="2.5" fill="#2563eb"/>
  <circle cx="921.21" cy="298.35" r="2.5" fill="#2563eb"/>
  <circle cx="922.39" cy="298.35" r="2.5" fill="#2563eb"/>
  <circle cx="923.57" cy="298.35" r="2.5" fill="#2563eb"/>
  <circle cx="924.74" cy="298.35" r="2.5" fill="#2563eb"/>
  <circle cx="925.92" cy="298.35" r="2.5" fill="#2563eb"/>
  <circle cx="927.09" cy="298.35" r="2.5" fill="#2563eb"/>
  <circle cx="928.27" cy="298.35" r="2.5" fill="#2563eb"/>
  <circle cx="929.44" cy="298.35" r="2.5" fill="#2563eb"/>
  <circle cx="930.62" cy="298.35" r="2.5" fill="#2563eb"/>
  <circle cx="931.80" cy="298.35" r="2.5" fill="#2563eb"/>
  <circle cx="932.97" cy="298.39" r="2.5" fill="#2563eb"/>
  <circle cx="934.15" cy="298.39" r="2.5" fill="#2563eb"/>
  <circle cx="935.32" cy="298.39" r="2.5" fill="#2563eb"/>
  <circle cx="936.50" cy="298.39" r="2.5" fill="#2563eb"/>
  <circle cx="937.67" cy="298.39" r="2.5" fill="#2563eb"/>
  <circle cx="938.85" cy="298.39" r="2.5" fill="#2563eb"/>
  <circle cx="940.03" cy="298.35" r="2.5" fill="#2563eb"/>
  <circle cx="941.20" cy="298.39" r="2.5" fill="#2563eb"/>
  <circle cx="942.38" cy="298.39" r="2.5" fill="#2563eb"/>
  <circle cx="943.55" cy="298.39" r="2.5" fill="#2563eb"/>
  <circle cx="944.73" cy="298.39" r="2.5" fill="#2563eb"/>
  <circle cx="945.90" cy="298.39" r="2.5" fill="#2563eb"/>
  <circle cx="947.08" cy="298.39" r="2.5" fill="#2563eb"/>
  <circle cx="948.26" cy="298.39" r="2.5" fill="#2563eb"/>
  <circle cx="949.43" cy="298.39" r="2.5" fill="#2563eb"/>
  <circle cx="950.61" cy="298.39" r="2.5" fill="#2563eb"/>
  <circle cx="951.78" cy="298.35" r="2.5" fill="#2563eb"/>
  <circle cx="952.96" cy="298.39" r="2.5" fill="#2563eb"/>
  <circle cx="954.13" cy="298.39" r="2.5" fill="#2563eb"/>
  <circle cx="955.31" cy="298.39" r="2.5" fill="#2563eb"/>
  <circle cx="956.49" cy="298.39" r="2.5" fill="#2563eb"/>
  <circle cx="957.66" cy="298.39" r="2.5" fill="#2563eb"/>
  <circle cx="958.84" cy="298.39" r="2.5" fill="#2563eb"/>
  <circle cx="960.01" cy="298.39" r="2.5" fill="#2563eb"/>
  <circle cx="961.19" cy="298.39" r="2.5" fill="#2563eb"/>
  <circle cx="962.36" cy="298.39" r="2.5" fill="#2563eb"/>
  <circle cx="963.54" cy="298.39" r="2.5" fill="#2563eb"/>
  <circle cx="964.72" cy="298.39" r="2.5" fill="#2563eb"/>
  <circle cx="965.89" cy="298.39" r="2.5" fill="#2563eb"/>
  <circle cx="967.07" cy="298.39" r="2.5" fill="#2563eb"/>
  <circle cx="968.24" cy="298.39" r="2.5" fill="#2563eb"/>
  <circle cx="969.42" cy="298.39" r="2.5" fill="#2563eb"/>
  <circle cx="970.59" cy="298.39" r="2.5" fill="#2563eb"/>
  <circle cx="971.77" cy="298.35" r="2.5" fill="#2563eb"/>
  <circle cx="972.95" cy="298.35" r="2.5" fill="#2563eb"/>
  <circle cx="974.12" cy="298.39" r="2.5" fill="#2563eb"/>
  <circle cx="975.30" cy="298.39" r="2.5" fill="#2563eb"/>
  <circle cx="976.47" cy="298.39" r="2.5" fill="#2563eb"/>
  <circle cx="977.65" cy="298.39" r="2.5" fill="#2563eb"/>
  <circle cx="978.82" cy="298.39" r="2.5" fill="#2563eb"/>
  <circle cx="980.00" cy="298.39" r="2.5" fill="#2563eb"/>
</svg>
