<?xml version="1.0" encoding="UTF-8"?>
<svg xmlns="http://www.w3.org/2000/svg" width="1000" height="420" viewBox="0 0 1000 420">
  <rect width="100%" height="100%" fill="#ffffff"/>
  <text x="70" y="28" font-size="20" font-weight="600">수집 시점 기준 - 시간별 스냅샷</text>
  <text x="70" y="402" font-size="12" fill="#555">스냅샷 수</text>
  <line x1="70" y1="350.00" x2="980" y2="350.00" stroke="#e5e7eb" stroke-width="1"/>
  <text x="62" y="354.00" font-size="11" fill="#6b7280" text-anchor="end">0</text>
  <line x1="70" y1="290.00" x2="980" y2="290.00" stroke="#e5e7eb" stroke-width="1"/>
  <text x="62" y="294.00" font-size="11" fill="#6b7280" text-anchor="end">1,440</text>
  <line x1="70" y1="230.00" x2="980" y2="230.00" stroke="#e5e7eb" stroke-width="1"/>
  <text x="62" y="234.00" font-size="11" fill="#6b7280" text-anchor="end">2,880</text>
  <line x1="70" y1="170.00" x2="980" y2="170.00" stroke="#e5e7eb" stroke-width="1"/>
  <text x="62" y="174.00" font-size="11" fill="#6b7280" text-anchor="end">4,321</text>
  <line x1="70" y1="110.00" x2="980" y2="110.00" stroke="#e5e7eb" stroke-width="1"/>
  <text x="62" y="114.00" font-size="11" fill="#6b7280" text-anchor="end">5,761</text>
  <line x1="70" y1="50.00" x2="980" y2="50.00" stroke="#e5e7eb" stroke-width="1"/>
  <text x="62" y="54.00" font-size="11" fill="#6b7280" text-anchor="end">7,202</text>
  <line x1="70" y1="350" x2="980" y2="350" stroke="#111827" stroke-width="1.2"/>
  <line x1="70" y1="50" x2="70" y2="350" stroke="#111827" stroke-width="1.2"/>
  <line x1="70.00" y1="350" x2="70.00" y2="356" stroke="#9ca3af" stroke-width="1"/>
  <text x="70.00" y="372" font-size="10" fill="#6b7280" text-anchor="middle">2026-02-28 18</text>
  <line x1="144.90" y1="350" x2="144.90" y2="356" stroke="#9ca3af" stroke-width="1"/>
  <text x="144.90" y="372" font-size="10" fill="#6b7280" text-anchor="middle">2026-03-08 19</text>
  <line x1="219.79" y1="350" x2="219.79" y2="356" stroke="#9ca3af" stroke-width="1"/>
  <text x="219.79" y="372" font-size="10" fill="#6b7280" text-anchor="middle">2026-03-10 15</text>
  <line x1="294.69" y1="350" x2="294.69" y2="356" stroke="#9ca3af" stroke-width="1"/>
  <text x="294.69" y="372" font-size="10" fill="#6b7280" text-anchor="middle">2026-03-12 10</text>
  <line x1="369.59" y1="350" x2="369.59" y2="356" stroke="#9ca3af" stroke-width="1"/>
  <text x="369.59" y="372" font-size="10" fill="#6b7280" text-anchor="middle">2026-03-14 05</text>
  <line x1="444.49" y1="350" x2="444.49" y2="356" stroke="#9ca3af" stroke-width="1"/>
  <text x="444.49" y="372" font-size="10" fill="#6b7280" text-anchor="middle">2026-03-16 16</text>
  <line x1="519.38" y1="350" x2="519.38" y2="356" stroke="#9ca3af" stroke-width="1"/>
  <text x="519.38" y="372" font-size="10" fill="#6b7280" text-anchor="middle">2026-03-19 08</text>
  <line x1="594.28" y1="350" x2="594.28" y2="356" stroke="#9ca3af" stroke-width="1"/>
  <text x="594.28" y="372" font-size="10" fill="#6b7280" text-anchor="middle">2026-03-21 18</text>
  <line x1="669.18" y1="350" x2="669.18" y2="356" stroke="#9ca3af" stroke-width="1"/>
  <text x="669.18" y="372" font-size="10" fill="#6b7280" text-anchor="middle">2026-03-24 03</text>
  <line x1="744.07" y1="350" x2="744.07" y2="356" stroke="#9ca3af" stroke-width="1"/>
  <text x="744.07" y="372" font-size="10" fill="#6b7280" text-anchor="middle">2026-03-26 21</text>
  <line x1="818.97" y1="350" x2="818.97" y2="356" stroke="#9ca3af" stroke-width="1"/>
  <text x="818.97" y="372" font-size="10" fill="#6b7280" text-anchor="middle">2026-03-29 14</text>
  <line x1="893.87" y1="350" x2="893.87" y2="356" stroke="#9ca3af" stroke-width="1"/>
  <text x="893.87" y="372" font-size="10" fill="#6b7280" text-anchor="middle">2026-04-01 08</text>
  <line x1="968.77" y1="350" x2="968.77" y2="356" stroke="#9ca3af" stroke-width="1"/>
  <text x="968.77" y="372" font-size="10" fill="#6b7280" text-anchor="middle">2026-04-04 02</text>
  <line x1="980.00" y1="350" x2="980.00" y2="356" stroke="#9ca3af" stroke-width="1"/>
  <text x="980.00" y="372" font-size="10" fill="#6b7280" text-anchor="middle">2026-04-04 12</text>
  <polyline fill="none" stroke="#2563eb" stroke-width="2.5" points="70.00,50.00 71.87,50.12 73.74,50.17 75.62,50.46 77.49,50.00 79.36,266.90 81.23,50.12 83.11,50.08 84.98,177.46 86.85,211.58 88.72,175.34 90.60,304.14 92.47,200.46 94.34,250.94 96.21,300.01 98.09,300.06 99.96,300.01 101.83,300.01 103.70,348.00 105.58,300.01 107.45,249.99 109.32,200.00 111.19,249.99 113.07,249.99 114.94,250.03 116.81,250.03 118.68,250.03 120.56,250.40 122.43,250.90 124.30,250.90 126.17,251.32 128.05,249.94 129.92,300.01 131.79,299.93 133.66,251.03 135.53,300.68 137.41,250.03 139.28,200.00 141.15,249.99 143.02,250.03 144.90,250.03 146.77,250.03 148.64,300.01 150.51,200.04 152.39,250.03 154.26,250.03 156.13,250.03 158.00,249.90 159.88,250.03 161.75,250.03 163.62,250.94 165.49,250.44 167.37,250.03 169.24,250.03 171.11,300.47 172.98,300.01 174.86,300.43 176.73,250.03 178.60,249.99 180.47,300.43 182.35,249.90 184.22,249.99 186.09,249.99 187.96,200.04 189.84,300.01 191.71,300.01 193.58,300.01 195.45,249.90 197.33,300.01 199.20,250.03 201.07,249.99 202.94,199.96 204.81,300.01 206.69,200.00 208.56,250.36 210.43,250.03 212.30,300.01 214.18,300.01 216.05,250.44 217.92,300.01 219.79,250.03 221.67,250.03 223.54,249.99 225.41,250.49 227.28,250.03 229.16,200.04 231.03,300.01 232.90,250.03 234.77,300.01 236.65,250.11 238.52,300.01 240.39,250.03 242.26,250.03 244.14,199.92 246.01,250.03 247.88,250.03 249.75,250.03 251.63,254.36 253.50,300.01 255.37,299.97 257.24,250.36 259.12,299.97 260.99,250.03 262.86,250.03 264.73,250.03 266.60,250.03 268.48,249.99 270.35,200.00 272.22,299.93 274.09,300.01 275.97,299.97 277.84,249.94 279.71,249.99 281.58,249.82 283.46,249.94 285.33,250.28 287.20,207.00 289.07,250.03 290.95,250.32 292.82,250.40 294.69,300.93 296.56,300.01 298.44,300.10 300.31,249.94 302.18,249.99 304.05,250.07 305.93,249.99 307.80,250.03 309.67,249.94 311.54,200.00 313.42,300.39 315.29,300.01 317.16,300.01 319.03,250.44 320.91,300.39 322.78,249.86 324.65,250.11 326.52,201.46 328.40,300.01 330.27,200.83 332.14,250.03 334.01,249.99 335.88,300.26 337.76,300.01 339.63,300.01 341.50,250.03 343.37,250.03 345.25,250.03 347.12,250.03 348.99,249.99 350.86,250.03 352.74,200.00 354.61,300.26 356.48,249.99 358.35,300.01 360.23,249.94 362.10,250.03 363.97,250.03 365.84,250.03 367.72,200.04 369.59,300.01 371.46,249.90 373.33,300.01 375.21,300.01 377.08,300.06 378.95,300.01 380.82,300.01 382.70,243.95 384.57,249.94 386.44,299.97 388.31,300.01 390.19,300.01 392.06,250.03 393.93,300.01 395.80,300.01 397.67,299.97 399.55,249.99 401.42,300.01 403.29,299.93 405.16,300.01 407.04,299.93 408.91,300.01 410.78,300.01 412.65,299.89 414.53,299.97 416.40,250.03 418.27,299.93 420.14,299.89 422.02,299.97 423.89,249.94 425.76,300.01 427.63,300.01 429.51,299.97 431.38,249.99 433.25,299.97 435.12,299.97 437.00,300.06 438.87,300.06 440.74,299.93 442.61,300.01 444.49,300.01 446.36,299.93 448.23,300.01 450.10,300.01 451.98,299.97 453.85,300.01 455.72,300.01 457.59,300.01 459.47,300.01 461.34,249.86 463.21,300.01 465.08,300.10 466.95,299.93 468.83,300.01 470.70,299.93 472.57,300.01 474.44,300.01 476.32,300.01 478.19,300.01 480.06,300.01 481.93,299.97 483.81,300.01 485.68,300.01 487.55,300.01 489.42,300.01 491.30,250.03 493.17,300.01 495.04,300.01 496.91,299.97 498.79,300.01 500.66,300.01 502.53,299.97 504.40,299.97 506.28,300.01 508.15,299.97 510.02,300.01 511.89,299.93 513.77,300.01 515.64,250.03 517.51,300.01 519.38,300.01 521.26,300.01 523.13,300.01 525.00,300.01 526.87,299.89 528.74,300.01 530.62,300.01 532.49,250.07 534.36,300.01 536.23,299.93 538.11,300.01 539.98,299.97 541.85,299.97 543.72,299.97 545.60,250.03 547.47,300.01 549.34,300.01 551.21,300.01 553.09,300.01 554.96,299.97 556.83,300.01 558.70,299.97 560.58,300.01 562.45,299.97 564.32,249.90 566.19,300.01 568.07,300.01 569.94,299.89 571.81,299.97 573.68,299.97 575.56,249.99 577.43,299.97 579.30,299.89 581.17,300.01 583.05,299.97 584.92,299.97 586.79,300.01 588.66,299.97 590.53,249.99 592.41,299.97 594.28,299.97 596.15,300.06 598.02,300.06 599.90,249.94 601.77,300.01 603.64,299.93 605.51,300.01 607.39,300.01 609.26,249.99 611.13,300.01 613.00,300.01 614.88,300.01 616.75,299.93 618.62,299.93 620.49,300.01 622.37,300.01 624.24,249.94 626.11,299.97 627.98,299.97 629.86,300.01 631.73,300.01 633.60,300.01 635.47,249.99 637.35,300.01 639.22,300.01 641.09,300.01 642.96,250.03 644.84,300.01 646.71,300.01 648.58,300.01 650.45,299.97 652.33,300.01 654.20,300.01 656.07,299.97 657.94,299.97 659.81,300.01 661.69,300.01 663.56,299.97 665.43,299.93 667.30,300.01 669.18,300.06 671.05,299.97 672.92,300.01 674.79,250.03 676.67,250.03 678.54,299.93 680.41,299.97 682.28,300.01 684.16,300.01 686.03,300.06 687.90,300.01 689.77,299.93 691.65,300.01 693.52,300.01 695.39,299.97 697.26,299.97 699.14,300.01 701.01,250.03 702.88,300.01 704.75,300.01 706.63,300.01 708.50,299.97 710.37,300.01 712.24,299.97 714.12,300.01 715.99,299.97 717.86,299.97 719.73,299.93 721.60,300.01 723.48,300.01 725.35,299.89 727.22,299.97 729.09,299.97 730.97,300.06 732.84,249.90 734.71,299.89 736.58,300.01 738.46,299.97 740.33,299.97 742.20,299.97 744.07,300.01 745.95,300.01 747.82,299.97 749.69,299.97 751.56,299.97 753.44,250.03 755.31,299.93 757.18,300.01 759.05,300.01 760.93,299.93 762.80,300.01 764.67,300.01 766.54,299.97 768.42,300.01 770.29,300.01 772.16,300.06 774.03,300.01 775.91,299.97 777.78,299.89 779.65,300.01 781.52,300.01 783.40,249.94 785.27,249.94 787.14,300.01 789.01,300.01 790.88,300.01 792.76,300.01 794.63,299.97 796.50,250.03 798.37,300.01 800.25,300.01 802.12,300.01 803.99,300.01 805.86,250.03 807.74,249.99 809.61,300.01 811.48,299.97 813.35,300.01 815.23,299.97 817.10,300.01 818.97,299.97 820.84,299.97 822.72,299.97 824.59,300.06 826.46,249.99 828.33,300.01 830.21,250.03 832.08,249.94 833.95,249.99 835.82,300.01 837.70,300.06 839.57,300.01 841.44,299.97 843.31,299.97 845.19,300.01 847.06,299.93 848.93,299.89 850.80,299.89 852.67,299.89 854.55,299.89 856.42,299.85 858.29,299.85 860.16,299.89 862.04,299.81 863.91,299.81 865.78,299.81 867.65,299.76 869.53,299.76 871.40,299.76 873.27,299.72 875.14,299.68 877.02,299.60 878.89,299.60 880.76,299.60 882.63,299.56 884.51,299.47 886.38,299.43 888.25,299.43 890.12,299.39 892.00,299.47 893.87,259.82 895.74,338.96 897.61,299.31 899.49,299.31 901.36,299.26 903.23,299.68 905.10,299.68 906.98,299.68 908.85,299.64 910.72,299.14 912.59,299.14 914.47,299.10 916.34,299.10 918.21,299.10 920.08,248.07 921.95,299.06 923.83,299.06 925.70,299.06 927.57,299.06 929.44,299.06 931.32,298.97 933.19,298.97 935.06,298.93 936.93,298.97 938.81,298.93 940.68,298.89 942.55,298.89 944.42,298.89 946.30,298.89 948.17,247.78 950.04,298.89 951.91,298.89 953.79,298.85 955.66,298.85 957.53,298.81 959.40,298.81 961.28,298.81 963.15,298.81 965.02,298.81 966.89,298.81 968.77,298.81 970.64,298.81 972.51,298.81 974.38,298.72 976.26,247.45 978.13,247.45 980.00,298.72"/>
  <circle cx="70.00" cy="50.00" r="2.5" fill="#2563eb"/>
  <circle cx="71.87" cy="50.12" r="2.5" fill="#2563eb"/>
  <circle cx="73.74" cy="50.17" r="2.5" fill="#2563eb"/>
  <circle cx="75.62" cy="50.46" r="2.5" fill="#2563eb"/>
  <circle cx="77.49" cy="50.00" r="2.5" fill="#2563eb"/>
  <circle cx="79.36" cy="266.90" r="2.5" fill="#2563eb"/>
  <circle cx="81.23" cy="50.12" r="2.5" fill="#2563eb"/>
  <circle cx="83.11" cy="50.08" r="2.5" fill="#2563eb"/>
  <circle cx="84.98" cy="177.46" r="2.5" fill="#2563eb"/>
  <circle cx="86.85" cy="211.58" r="2.5" fill="#2563eb"/>
  <circle cx="88.72" cy="175.34" r="2.5" fill="#2563eb"/>
  <circle cx="90.60" cy="304.14" r="2.5" fill="#2563eb"/>
  <circle cx="92.47" cy="200.46" r="2.5" fill="#2563eb"/>
  <circle cx="94.34" cy="250.94" r="2.5" fill="#2563eb"/>
  <circle cx="96.21" cy="300.01" r="2.5" fill="#2563eb"/>
  <circle cx="98.09" cy="300.06" r="2.5" fill="#2563eb"/>
  <circle cx="99.96" cy="300.01" r="2.5" fill="#2563eb"/>
  <circle cx="101.83" cy="300.01" r="2.5" fill="#2563eb"/>
  <circle cx="103.70" cy="348.00" r="2.5" fill="#2563eb"/>
  <circle cx="105.58" cy="300.01" r="2.5" fill="#2563eb"/>
  <circle cx="107.45" cy="249.99" r="2.5" fill="#2563eb"/>
  <circle cx="109.32" cy="200.00" r="2.5" fill="#2563eb"/>
  <circle cx="111.19" cy="249.99" r="2.5" fill="#2563eb"/>
  <circle cx="113.07" cy="249.99" r="2.5" fill="#2563eb"/>
  <circle cx="114.94" cy="250.03" r="2.5" fill="#2563eb"/>
  <circle cx="116.81" cy="250.03" r="2.5" fill="#2563eb"/>
  <circle cx="118.68" cy="250.03" r="2.5" fill="#2563eb"/>
  <circle cx="120.56" cy="250.40" r="2.5" fill="#2563eb"/>
  <circle cx="122.43" cy="250.90" r="2.5" fill="#2563eb"/>
  <circle cx="124.30" cy="250.90" r="2.5" fill="#2563eb"/>
  <circle cx="126.17" cy="251.32" r="2.5" fill="#2563eb"/>
  <circle cx="128.05" cy="249.94" r="2.5" fill="#2563eb"/>
  <circle cx="129.92" cy="300.01" r="2.5" fill="#2563eb"/>
  <circle cx="131.79" cy="299.93" r="2.5" fill="#2563eb"/>
  <circle cx="133.66" cy="251.03" r="2.5" fill="#2563eb"/>
  <circle cx="135.53" cy="300.68" r="2.5" fill="#2563eb"/>
  <circle cx="137.41" cy="250.03" r="2.5" fill="#2563eb"/>
  <circle cx="139.28" cy="200.00" r="2.5" fill="#2563eb"/>
  <circle cx="141.15" cy="249.99" r="2.5" fill="#2563eb"/>
  <circle cx="143.02" cy="250.03" r="2.5" fill="#2563eb"/>
  <circle cx="144.90" cy="250.03" r="2.5" fill="#2563eb"/>
  <circle cx="146.77" cy="250.03" r="2.5" fill="#2563eb"/>
  <circle cx="148.64" cy="300.01" r="2.5" fill="#2563eb"/>
  <circle cx="150.51" cy="200.04" r="2.5" fill="#2563eb"/>
  <circle cx="152.39" cy="250.03" r="2.5" fill="#2563eb"/>
  <circle cx="154.26" cy="250.03" r="2.5" fill="#2563eb"/>
  <circle cx="156.13" cy="250.03" r="2.5" fill="#2563eb"/>
  <circle cx="158.00" cy="249.90" r="2.5" fill="#2563eb"/>
  <circle cx="159.88" cy="250.03" r="2.5" fill="#2563eb"/>
  <circle cx="161.75" cy="250.03" r="2.5" fill="#2563eb"/>
  <circle cx="163.62" cy="250.94" r="2.5" fill="#2563eb"/>
  <circle cx="165.49" cy="250.44" r="2.5" fill="#2563eb"/>
  <circle cx="167.37" cy="250.03" r="2.5" fill="#2563eb"/>
  <circle cx="169.24" cy="250.03" r="2.5" fill="#2563eb"/>
  <circle cx="171.11" cy="300.47" r="2.5" fill="#2563eb"/>
  <circle cx="172.98" cy="300.01" r="2.5" fill="#2563eb"/>
  <circle cx="174.86" cy="300.43" r="2.5" fill="#2563eb"/>
  <circle cx="176.73" cy="250.03" r="2.5" fill="#2563eb"/>
  <circle cx="178.60" cy="249.99" r="2.5" fill="#2563eb"/>
  <circle cx="180.47" cy="300.43" r="2.5" fill="#2563eb"/>
  <circle cx="182.35" cy="249.90" r="2.5" fill="#2563eb"/>
  <circle cx="184.22" cy="249.99" r="2.5" fill="#2563eb"/>
  <circle cx="186.09" cy="249.99" r="2.5" fill="#2563eb"/>
  <circle cx="187.96" cy="200.04" r="2.5" fill="#2563eb"/>
  <circle cx="189.84" cy="300.01" r="2.5" fill="#2563eb"/>
  <circle cx="191.71" cy="300.01" r="2.5" fill="#2563eb"/>
  <circle cx="193.58" cy="300.01" r="2.5" fill="#2563eb"/>
  <circle cx="195.45" cy="249.90" r="2.5" fill="#2563eb"/>
  <circle cx="197.33" cy="300.01" r="2.5" fill="#2563eb"/>
  <circle cx="199.20" cy="250.03" r="2.5" fill="#2563eb"/>
  <circle cx="201.07" cy="249.99" r="2.5" fill="#2563eb"/>
  <circle cx="202.94" cy="199.96" r="2.5" fill="#2563eb"/>
  <circle cx="204.81" cy="300.01" r="2.5" fill="#2563eb"/>
  <circle cx="206.69" cy="200.00" r="2.5" fill="#2563eb"/>
  <circle cx="208.56" cy="250.36" r="2.5" fill="#2563eb"/>
  <circle cx="210.43" cy="250.03" r="2.5" fill="#2563eb"/>
  <circle cx="212.30" cy="300.01" r="2.5" fill="#2563eb"/>
  <circle cx="214.18" cy="300.01" r="2.5" fill="#2563eb"/>
  <circle cx="216.05" cy="250.44" r="2.5" fill="#2563eb"/>
  <circle cx="217.92" cy="300.01" r="2.5" fill="#2563eb"/>
  <circle cx="219.79" cy="250.03" r="2.5" fill="#2563eb"/>
  <circle cx="221.67" cy="250.03" r="2.5" fill="#2563eb"/>
  <circle cx="223.54" cy="249.99" r="2.5" fill="#2563eb"/>
  <circle cx="225.41" cy="250.49" r="2.5" fill="#2563eb"/>
  <circle cx="227.28" cy="250.03" r="2.5" fill="#2563eb"/>
  <circle cx="229.16" cy="200.04" r="2.5" fill="#2563eb"/>
  <circle cx="231.03" cy="300.01" r="2.5" fill="#2563eb"/>
  <circle cx="232.90" cy="250.03" r="2.5" fill="#2563eb"/>
  <circle cx="234.77" cy="300.01" r="2.5" fill="#2563eb"/>
  <circle cx="236.65" cy="250.11" r="2.5" fill="#2563eb"/>
  <circle cx="238.52" cy="300.01" r="2.5" fill="#2563eb"/>
  <circle cx="240.39" cy="250.03" r="2.5" fill="#2563eb"/>
  <circle cx="242.26" cy="250.03" r="2.5" fill="#2563eb"/>
  <circle cx="244.14" cy="199.92" r="2.5" fill="#2563eb"/>
  <circle cx="246.01" cy="250.03" r="2.5" fill="#2563eb"/>
  <circle cx="247.88" cy="250.03" r="2.5" fill="#2563eb"/>
  <circle cx="249.75" cy="250.03" r="2.5" fill="#2563eb"/>
  <circle cx="251.63" cy="254.36" r="2.5" fill="#2563eb"/>
  <circle cx="253.50" cy="300.01" r="2.5" fill="#2563eb"/>
  <circle cx="255.37" cy="299.97" r="2.5" fill="#2563eb"/>
  <circle cx="257.24" cy="250.36" r="2.5" fill="#2563eb"/>
  <circle cx="259.12" cy="299.97" r="2.5" fill="#2563eb"/>
  <circle cx="260.99" cy="250.03" r="2.5" fill="#2563eb"/>
  <circle cx="262.86" cy="250.03" r="2.5" fill="#2563eb"/>
  <circle cx="264.73" cy="250.03" r="2.5" fill="#2563eb"/>
  <circle cx="266.60" cy="250.03" r="2.5" fill="#2563eb"/>
  <circle cx="268.48" cy="249.99" r="2.5" fill="#2563eb"/>
  <circle cx="270.35" cy="200.00" r="2.5" fill="#2563eb"/>
  <circle cx="272.22" cy="299.93" r="2.5" fill="#2563eb"/>
  <circle cx="274.09" cy="300.01" r="2.5" fill="#2563eb"/>
  <circle cx="275.97" cy="299.97" r="2.5" fill="#2563eb"/>
  <circle cx="277.84" cy="249.94" r="2.5" fill="#2563eb"/>
  <circle cx="279.71" cy="249.99" r="2.5" fill="#2563eb"/>
  <circle cx="281.58" cy="249.82" r="2.5" fill="#2563eb"/>
  <circle cx="283.46" cy="249.94" r="2.5" fill="#2563eb"/>
  <circle cx="285.33" cy="250.28" r="2.5" fill="#2563eb"/>
  <circle cx="287.20" cy="207.00" r="2.5" fill="#2563eb"/>
  <circle cx="289.07" cy="250.03" r="2.5" fill="#2563eb"/>
  <circle cx="290.95" cy="250.32" r="2.5" fill="#2563eb"/>
  <circle cx="292.82" cy="250.40" r="2.5" fill="#2563eb"/>
  <circle cx="294.69" cy="300.93" r="2.5" fill="#2563eb"/>
  <circle cx="296.56" cy="300.01" r="2.5" fill="#2563eb"/>
  <circle cx="298.44" cy="300.10" r="2.5" fill="#2563eb"/>
  <circle cx="300.31" cy="249.94" r="2.5" fill="#2563eb"/>
  <circle cx="302.18" cy="249.99" r="2.5" fill="#2563eb"/>
  <circle cx="304.05" cy="250.07" r="2.5" fill="#2563eb"/>
  <circle cx="305.93" cy="249.99" r="2.5" fill="#2563eb"/>
  <circle cx="307.80" cy="250.03" r="2.5" fill="#2563eb"/>
  <circle cx="309.67" cy="249.94" r="2.5" fill="#2563eb"/>
  <circle cx="311.54" cy="200.00" r="2.5" fill="#2563eb"/>
  <circle cx="313.42" cy="300.39" r="2.5" fill="#2563eb"/>
  <circle cx="315.29" cy="300.01" r="2.5" fill="#2563eb"/>
  <circle cx="317.16" cy="300.01" r="2.5" fill="#2563eb"/>
  <circle cx="319.03" cy="250.44" r="2.5" fill="#2563eb"/>
  <circle cx="320.91" cy="300.39" r="2.5" fill="#2563eb"/>
  <circle cx="322.78" cy="249.86" r="2.5" fill="#2563eb"/>
  <circle cx="324.65" cy="250.11" r="2.5" fill="#2563eb"/>
  <circle cx="326.52" cy="201.46" r="2.5" fill="#2563eb"/>
  <circle cx="328.40" cy="300.01" r="2.5" fill="#2563eb"/>
  <circle cx="330.27" cy="200.83" r="2.5" fill="#2563eb"/>
  <circle cx="332.14" cy="250.03" r="2.5" fill="#2563eb"/>
  <circle cx="334.01" cy="249.99" r="2.5" fill="#2563eb"/>
  <circle cx="335.88" cy="300.26" r="2.5" fill="#2563eb"/>
  <circle cx="337.76" cy="300.01" r="2.5" fill="#2563eb"/>
  <circle cx="339.63" cy="300.01" r="2.5" fill="#2563eb"/>
  <circle cx="341.50" cy="250.03" r="2.5" fill="#2563eb"/>
  <circle cx="343.37" cy="250.03" r="2.5" fill="#2563eb"/>
  <circle cx="345.25" cy="250.03" r="2.5" fill="#2563eb"/>
  <circle cx="347.12" cy="250.03" r="2.5" fill="#2563eb"/>
  <circle cx="348.99" cy="249.99" r="2.5" fill="#2563eb"/>
  <circle cx="350.86" cy="250.03" r="2.5" fill="#2563eb"/>
  <circle cx="352.74" cy="200.00" r="2.5" fill="#2563eb"/>
  <circle cx="354.61" cy="300.26" r="2.5" fill="#2563eb"/>
  <circle cx="356.48" cy="249.99" r="2.5" fill="#2563eb"/>
  <circle cx="358.35" cy="300.01" r="2.5" fill="#2563eb"/>
  <circle cx="360.23" cy="249.94" r="2.5" fill="#2563eb"/>
  <circle cx="362.10" cy="250.03" r="2.5" fill="#2563eb"/>
  <circle cx="363.97" cy="250.03" r="2.5" fill="#2563eb"/>
  <circle cx="365.84" cy="250.03" r="2.5" fill="#2563eb"/>
  <circle cx="367.72" cy="200.04" r="2.5" fill="#2563eb"/>
  <circle cx="369.59" cy="300.01" r="2.5" fill="#2563eb"/>
  <circle cx="371.46" cy="249.90" r="2.5" fill="#2563eb"/>
  <circle cx="373.33" cy="300.01" r="2.5" fill="#2563eb"/>
  <circle cx="375.21" cy="300.01" r="2.5" fill="#2563eb"/>
  <circle cx="377.08" cy="300.06" r="2.5" fill="#2563eb"/>
  <circle cx="378.95" cy="300.01" r="2.5" fill="#2563eb"/>
  <circle cx="380.82" cy="300.01" r="2.5" fill="#2563eb"/>
  <circle cx="382.70" cy="243.95" r="2.5" fill="#2563eb"/>
  <circle cx="384.57" cy="249.94" r="2.5" fill="#2563eb"/>
  <circle cx="386.44" cy="299.97" r="2.5" fill="#2563eb"/>
  <circle cx="388.31" cy="300.01" r="2.5" fill="#2563eb"/>
  <circle cx="390.19" cy="300.01" r="2.5" fill="#2563eb"/>
  <circle cx="392.06" cy="250.03" r="2.5" fill="#2563eb"/>
  <circle cx="393.93" cy="300.01" r="2.5" fill="#2563eb"/>
  <circle cx="395.80" cy="300.01" r="2.5" fill="#2563eb"/>
  <circle cx="397.67" cy="299.97" r="2.5" fill="#2563eb"/>
  <circle cx="399.55" cy="249.99" r="2.5" fill="#2563eb"/>
  <circle cx="401.42" cy="300.01" r="2.5" fill="#2563eb"/>
  <circle cx="403.29" cy="299.93" r="2.5" fill="#2563eb"/>
  <circle cx="405.16" cy="300.01" r="2.5" fill="#2563eb"/>
  <circle cx="407.04" cy="299.93" r="2.5" fill="#2563eb"/>
  <circle cx="408.91" cy="300.01" r="2.5" fill="#2563eb"/>
  <circle cx="410.78" cy="300.01" r="2.5" fill="#2563eb"/>
  <circle cx="412.65" cy="299.89" r="2.5" fill="#2563eb"/>
  <circle cx="414.53" cy="299.97" r="2.5" fill="#2563eb"/>
  <circle cx="416.40" cy="250.03" r="2.5" fill="#2563eb"/>
  <circle cx="418.27" cy="299.93" r="2.5" fill="#2563eb"/>
  <circle cx="420.14" cy="299.89" r="2.5" fill="#2563eb"/>
  <circle cx="422.02" cy="299.97" r="2.5" fill="#2563eb"/>
  <circle cx="423.89" cy="249.94" r="2.5" fill="#2563eb"/>
  <circle cx="425.76" cy="300.01" r="2.5" fill="#2563eb"/>
  <circle cx="427.63" cy="300.01" r="2.5" fill="#2563eb"/>
  <circle cx="429.51" cy="299.97" r="2.5" fill="#2563eb"/>
  <circle cx="431.38" cy="249.99" r="2.5" fill="#2563eb"/>
  <circle cx="433.25" cy="299.97" r="2.5" fill="#2563eb"/>
  <circle cx="435.12" cy="299.97" r="2.5" fill="#2563eb"/>
  <circle cx="437.00" cy="300.06" r="2.5" fill="#2563eb"/>
  <circle cx="438.87" cy="300.06" r="2.5" fill="#2563eb"/>
  <circle cx="440.74" cy="299.93" r="2.5" fill="#2563eb"/>
  <circle cx="442.61" cy="300.01" r="2.5" fill="#2563eb"/>
  <circle cx="444.49" cy="300.01" r="2.5" fill="#2563eb"/>
  <circle cx="446.36" cy="299.93" r="2.5" fill="#2563eb"/>
  <circle cx="448.23" cy="300.01" r="2.5" fill="#2563eb"/>
  <circle cx="450.10" cy="300.01" r="2.5" fill="#2563eb"/>
  <circle cx="451.98" cy="299.97" r="2.5" fill="#2563eb"/>
  <circle cx="453.85" cy="300.01" r="2.5" fill="#2563eb"/>
  <circle cx="455.72" cy="300.01" r="2.5" fill="#2563eb"/>
  <circle cx="457.59" cy="300.01" r="2.5" fill="#2563eb"/>
  <circle cx="459.47" cy="300.01" r="2.5" fill="#2563eb"/>
  <circle cx="461.34" cy="249.86" r="2.5" fill="#2563eb"/>
  <circle cx="463.21" cy="300.01" r="2.5" fill="#2563eb"/>
  <circle cx="465.08" cy="300.10" r="2.5" fill="#2563eb"/>
  <circle cx="466.95" cy="299.93" r="2.5" fill="#2563eb"/>
  <circle cx="468.83" cy="300.01" r="2.5" fill="#2563eb"/>
  <circle cx="470.70" cy="299.93" r="2.5" fill="#2563eb"/>
  <circle cx="472.57" cy="300.01" r="2.5" fill="#2563eb"/>
  <circle cx="474.44" cy="300.01" r="2.5" fill="#2563eb"/>
  <circle cx="476.32" cy="300.01" r="2.5" fill="#2563eb"/>
  <circle cx="478.19" cy="300.01" r="2.5" fill="#2563eb"/>
  <circle cx="480.06" cy="300.01" r="2.5" fill="#2563eb"/>
  <circle cx="481.93" cy="299.97" r="2.5" fill="#2563eb"/>
  <circle cx="483.81" cy="300.01" r="2.5" fill="#2563eb"/>
  <circle cx="485.68" cy="300.01" r="2.5" fill="#2563eb"/>
  <circle cx="487.55" cy="300.01" r="2.5" fill="#2563eb"/>
  <circle cx="489.42" cy="300.01" r="2.5" fill="#2563eb"/>
  <circle cx="491.30" cy="250.03" r="2.5" fill="#2563eb"/>
  <circle cx="493.17" cy="300.01" r="2.5" fill="#2563eb"/>
  <circle cx="495.04" cy="300.01" r="2.5" fill="#2563eb"/>
  <circle cx="496.91" cy="299.97" r="2.5" fill="#2563eb"/>
  <circle cx="498.79" cy="300.01" r="2.5" fill="#2563eb"/>
  <circle cx="500.66" cy="300.01" r="2.5" fill="#2563eb"/>
  <circle cx="502.53" cy="299.97" r="2.5" fill="#2563eb"/>
  <circle cx="504.40" cy="299.97" r="2.5" fill="#2563eb"/>
  <circle cx="506.28" cy="300.01" r="2.5" fill="#2563eb"/>
  <circle cx="508.15" cy="299.97" r="2.5" fill="#2563eb"/>
  <circle cx="510.02" cy="300.01" r="2.5" fill="#2563eb"/>
  <circle cx="511.89" cy="299.93" r="2.5" fill="#2563eb"/>
  <circle cx="513.77" cy="300.01" r="2.5" fill="#2563eb"/>
  <circle cx="515.64" cy="250.03" r="2.5" fill="#2563eb"/>
  <circle cx="517.51" cy="300.01" r="2.5" fill="#2563eb"/>
  <circle cx="519.38" cy="300.01" r="2.5" fill="#2563eb"/>
  <circle cx="521.26" cy="300.01" r="2.5" fill="#2563eb"/>
  <circle cx="523.13" cy="300.01" r="2.5" fill="#2563eb"/>
  <circle cx="525.00" cy="300.01" r="2.5" fill="#2563eb"/>
  <circle cx="526.87" cy="299.89" r="2.5" fill="#2563eb"/>
  <circle cx="528.74" cy="300.01" r="2.5" fill="#2563eb"/>
  <circle cx="530.62" cy="300.01" r="2.5" fill="#2563eb"/>
  <circle cx="532.49" cy="250.07" r="2.5" fill="#2563eb"/>
  <circle cx="534.36" cy="300.01" r="2.5" fill="#2563eb"/>
  <circle cx="536.23" cy="299.93" r="2.5" fill="#2563eb"/>
  <circle cx="538.11" cy="300.01" r="2.5" fill="#2563eb"/>
  <circle cx="539.98" cy="299.97" r="2.5" fill="#2563eb"/>
  <circle cx="541.85" cy="299.97" r="2.5" fill="#2563eb"/>
  <circle cx="543.72" cy="299.97" r="2.5" fill="#2563eb"/>
  <circle cx="545.60" cy="250.03" r="2.5" fill="#2563eb"/>
  <circle cx="547.47" cy="300.01" r="2.5" fill="#2563eb"/>
  <circle cx="549.34" cy="300.01" r="2.5" fill="#2563eb"/>
  <circle cx="551.21" cy="300.01" r="2.5" fill="#2563eb"/>
  <circle cx="553.09" cy="300.01" r="2.5" fill="#2563eb"/>
  <circle cx="554.96" cy="299.97" r="2.5" fill="#2563eb"/>
  <circle cx="556.83" cy="300.01" r="2.5" fill="#2563eb"/>
  <circle cx="558.70" cy="299.97" r="2.5" fill="#2563eb"/>
  <circle cx="560.58" cy="300.01" r="2.5" fill="#2563eb"/>
  <circle cx="562.45" cy="299.97" r="2.5" fill="#2563eb"/>
  <circle cx="564.32" cy="249.90" r="2.5" fill="#2563eb"/>
  <circle cx="566.19" cy="300.01" r="2.5" fill="#2563eb"/>
  <circle cx="568.07" cy="300.01" r="2.5" fill="#2563eb"/>
  <circle cx="569.94" cy="299.89" r="2.5" fill="#2563eb"/>
  <circle cx="571.81" cy="299.97" r="2.5" fill="#2563eb"/>
  <circle cx="573.68" cy="299.97" r="2.5" fill="#2563eb"/>
  <circle cx="575.56" cy="249.99" r="2.5" fill="#2563eb"/>
  <circle cx="577.43" cy="299.97" r="2.5" fill="#2563eb"/>
  <circle cx="579.30" cy="299.89" r="2.5" fill="#2563eb"/>
  <circle cx="581.17" cy="300.01" r="2.5" fill="#2563eb"/>
  <circle cx="583.05" cy="299.97" r="2.5" fill="#2563eb"/>
  <circle cx="584.92" cy="299.97" r="2.5" fill="#2563eb"/>
  <circle cx="586.79" cy="300.01" r="2.5" fill="#2563eb"/>
  <circle cx="588.66" cy="299.97" r="2.5" fill="#2563eb"/>
  <circle cx="590.53" cy="249.99" r="2.5" fill="#2563eb"/>
  <circle cx="592.41" cy="299.97" r="2.5" fill="#2563eb"/>
  <circle cx="594.28" cy="299.97" r="2.5" fill="#2563eb"/>
  <circle cx="596.15" cy="300.06" r="2.5" fill="#2563eb"/>
  <circle cx="598.02" cy="300.06" r="2.5" fill="#2563eb"/>
  <circle cx="599.90" cy="249.94" r="2.5" fill="#2563eb"/>
  <circle cx="601.77" cy="300.01" r="2.5" fill="#2563eb"/>
  <circle cx="603.64" cy="299.93" r="2.5" fill="#2563eb"/>
  <circle cx="605.51" cy="300.01" r="2.5" fill="#2563eb"/>
  <circle cx="607.39" cy="300.01" r="2.5" fill="#2563eb"/>
  <circle cx="609.26" cy="249.99" r="2.5" fill="#2563eb"/>
  <circle cx="611.13" cy="300.01" r="2.5" fill="#2563eb"/>
  <circle cx="613.00" cy="300.01" r="2.5" fill="#2563eb"/>
  <circle cx="614.88" cy="300.01" r="2.5" fill="#2563eb"/>
  <circle cx="616.75" cy="299.93" r="2.5" fill="#2563eb"/>
  <circle cx="618.62" cy="299.93" r="2.5" fill="#2563eb"/>
  <circle cx="620.49" cy="300.01" r="2.5" fill="#2563eb"/>
  <circle cx="622.37" cy="300.01" r="2.5" fill="#2563eb"/>
  <circle cx="624.24" cy="249.94" r="2.5" fill="#2563eb"/>
  <circle cx="626.11" cy="299.97" r="2.5" fill="#2563eb"/>
  <circle cx="627.98" cy="299.97" r="2.5" fill="#2563eb"/>
  <circle cx="629.86" cy="300.01" r="2.5" fill="#2563eb"/>
  <circle cx="631.73" cy="300.01" r="2.5" fill="#2563eb"/>
  <circle cx="633.60" cy="300.01" r="2.5" fill="#2563eb"/>
  <circle cx="635.47" cy="249.99" r="2.5" fill="#2563eb"/>
  <circle cx="637.35" cy="300.01" r="2.5" fill="#2563eb"/>
  <circle cx="639.22" cy="300.01" r="2.5" fill="#2563eb"/>
  <circle cx="641.09" cy="300.01" r="2.5" fill="#2563eb"/>
  <circle cx="642.96" cy="250.03" r="2.5" fill="#2563eb"/>
  <circle cx="644.84" cy="300.01" r="2.5" fill="#2563eb"/>
  <circle cx="646.71" cy="300.01" r="2.5" fill="#2563eb"/>
  <circle cx="648.58" cy="300.01" r="2.5" fill="#2563eb"/>
  <circle cx="650.45" cy="299.97" r="2.5" fill="#2563eb"/>
  <circle cx="652.33" cy="300.01" r="2.5" fill="#2563eb"/>
  <circle cx="654.20" cy="300.01" r="2.5" fill="#2563eb"/>
  <circle cx="656.07" cy="299.97" r="2.5" fill="#2563eb"/>
  <circle cx="657.94" cy="299.97" r="2.5" fill="#2563eb"/>
  <circle cx="659.81" cy="300.01" r="2.5" fill="#2563eb"/>
  <circle cx="661.69" cy="300.01" r="2.5" fill="#2563eb"/>
  <circle cx="663.56" cy="299.97" r="2.5" fill="#2563eb"/>
  <circle cx="665.43" cy="299.93" r="2.5" fill="#2563eb"/>
  <circle cx="667.30" cy="300.01" r="2.5" fill="#2563eb"/>
  <circle cx="669.18" cy="300.06" r="2.5" fill="#2563eb"/>
  <circle cx="671.05" cy="299.97" r="2.5" fill="#2563eb"/>
  <circle cx="672.92" cy="300.01" r="2.5" fill="#2563eb"/>
  <circle cx="674.79" cy="250.03" r="2.5" fill="#2563eb"/>
  <circle cx="676.67" cy="250.03" r="2.5" fill="#2563eb"/>
  <circle cx="678.54" cy="299.93" r="2.5" fill="#2563eb"/>
  <circle cx="680.41" cy="299.97" r="2.5" fill="#2563eb"/>
  <circle cx="682.28" cy="300.01" r="2.5" fill="#2563eb"/>
  <circle cx="684.16" cy="300.01" r="2.5" fill="#2563eb"/>
  <circle cx="686.03" cy="300.06" r="2.5" fill="#2563eb"/>
  <circle cx="687.90" cy="300.01" r="2.5" fill="#2563eb"/>
  <circle cx="689.77" cy="299.93" r="2.5" fill="#2563eb"/>
  <circle cx="691.65" cy="300.01" r="2.5" fill="#2563eb"/>
  <circle cx="693.52" cy="300.01" r="2.5" fill="#2563eb"/>
  <circle cx="695.39" cy="299.97" r="2.5" fill="#2563eb"/>
  <circle cx="697.26" cy="299.97" r="2.5" fill="#2563eb"/>
  <circle cx="699.14" cy="300.01" r="2.5" fill="#2563eb"/>
  <circle cx="701.01" cy="250.03" r="2.5" fill="#2563eb"/>
  <circle cx="702.88" cy="300.01" r="2.5" fill="#2563eb"/>
  <circle cx="704.75" cy="300.01" r="2.5" fill="#2563eb"/>
  <circle cx="706.63" cy="300.01" r="2.5" fill="#2563eb"/>
  <circle cx="708.50" cy="299.97" r="2.5" fill="#2563eb"/>
  <circle cx="710.37" cy="300.01" r="2.5" fill="#2563eb"/>
  <circle cx="712.24" cy="299.97" r="2.5" fill="#2563eb"/>
  <circle cx="714.12" cy="300.01" r="2.5" fill="#2563eb"/>
  <circle cx="715.99" cy="299.97" r="2.5" fill="#2563eb"/>
  <circle cx="717.86" cy="299.97" r="2.5" fill="#2563eb"/>
  <circle cx="719.73" cy="299.93" r="2.5" fill="#2563eb"/>
  <circle cx="721.60" cy="300.01" r="2.5" fill="#2563eb"/>
  <circle cx="723.48" cy="300.01" r="2.5" fill="#2563eb"/>
  <circle cx="725.35" cy="299.89" r="2.5" fill="#2563eb"/>
  <circle cx="727.22" cy="299.97" r="2.5" fill="#2563eb"/>
  <circle cx="729.09" cy="299.97" r="2.5" fill="#2563eb"/>
  <circle cx="730.97" cy="300.06" r="2.5" fill="#2563eb"/>
  <circle cx="732.84" cy="249.90" r="2.5" fill="#2563eb"/>
  <circle cx="734.71" cy="299.89" r="2.5" fill="#2563eb"/>
  <circle cx="736.58" cy="300.01" r="2.5" fill="#2563eb"/>
  <circle cx="738.46" cy="299.97" r="2.5" fill="#2563eb"/>
  <circle cx="740.33" cy="299.97" r="2.5" fill="#2563eb"/>
  <circle cx="742.20" cy="299.97" r="2.5" fill="#2563eb"/>
  <circle cx="744.07" cy="300.01" r="2.5" fill="#2563eb"/>
  <circle cx="745.95" cy="300.01" r="2.5" fill="#2563eb"/>
  <circle cx="747.82" cy="299.97" r="2.5" fill="#2563eb"/>
  <circle cx="749.69" cy="299.97" r="2.5" fill="#2563eb"/>
  <circle cx="751.56" cy="299.97" r="2.5" fill="#2563eb"/>
  <circle cx="753.44" cy="250.03" r="2.5" fill="#2563eb"/>
  <circle cx="755.31" cy="299.93" r="2.5" fill="#2563eb"/>
  <circle cx="757.18" cy="300.01" r="2.5" fill="#2563eb"/>
  <circle cx="759.05" cy="300.01" r="2.5" fill="#2563eb"/>
  <circle cx="760.93" cy="299.93" r="2.5" fill="#2563eb"/>
  <circle cx="762.80" cy="300.01" r="2.5" fill="#2563eb"/>
  <circle cx="764.67" cy="300.01" r="2.5" fill="#2563eb"/>
  <circle cx="766.54" cy="299.97" r="2.5" fill="#2563eb"/>
  <circle cx="768.42" cy="300.01" r="2.5" fill="#2563eb"/>
  <circle cx="770.29" cy="300.01" r="2.5" fill="#2563eb"/>
  <circle cx="772.16" cy="300.06" r="2.5" fill="#2563eb"/>
  <circle cx="774.03" cy="300.01" r="2.5" fill="#2563eb"/>
  <circle cx="775.91" cy="299.97" r="2.5" fill="#2563eb"/>
  <circle cx="777.78" cy="299.89" r="2.5" fill="#2563eb"/>
  <circle cx="779.65" cy="300.01" r="2.5" fill="#2563eb"/>
  <circle cx="781.52" cy="300.01" r="2.5" fill="#2563eb"/>
  <circle cx="783.40" cy="249.94" r="2.5" fill="#2563eb"/>
  <circle cx="785.27" cy="249.94" r="2.5" fill="#2563eb"/>
  <circle cx="787.14" cy="300.01" r="2.5" fill="#2563eb"/>
  <circle cx="789.01" cy="300.01" r="2.5" fill="#2563eb"/>
  <circle cx="790.88" cy="300.01" r="2.5" fill="#2563eb"/>
  <circle cx="792.76" cy="300.01" r="2.5" fill="#2563eb"/>
  <circle cx="794.63" cy="299.97" r="2.5" fill="#2563eb"/>
  <circle cx="796.50" cy="250.03" r="2.5" fill="#2563eb"/>
  <circle cx="798.37" cy="300.01" r="2.5" fill="#2563eb"/>
  <circle cx="800.25" cy="300.01" r="2.5" fill="#2563eb"/>
  <circle cx="802.12" cy="300.01" r="2.5" fill="#2563eb"/>
  <circle cx="803.99" cy="300.01" r="2.5" fill="#2563eb"/>
  <circle cx="805.86" cy="250.03" r="2.5" fill="#2563eb"/>
  <circle cx="807.74" cy="249.99" r="2.5" fill="#2563eb"/>
  <circle cx="809.61" cy="300.01" r="2.5" fill="#2563eb"/>
  <circle cx="811.48" cy="299.97" r="2.5" fill="#2563eb"/>
  <circle cx="813.35" cy="300.01" r="2.5" fill="#2563eb"/>
  <circle cx="815.23" cy="299.97" r="2.5" fill="#2563eb"/>
  <circle cx="817.10" cy="300.01" r="2.5" fill="#2563eb"/>
  <circle cx="818.97" cy="299.97" r="2.5" fill="#2563eb"/>
  <circle cx="820.84" cy="299.97" r="2.5" fill="#2563eb"/>
  <circle cx="822.72" cy="299.97" r="2.5" fill="#2563eb"/>
  <circle cx="824.59" cy="300.06" r="2.5" fill="#2563eb"/>
  <circle cx="826.46" cy="249.99" r="2.5" fill="#2563eb"/>
  <circle cx="828.33" cy="300.01" r="2.5" fill="#2563eb"/>
  <circle cx="830.21" cy="250.03" r="2.5" fill="#2563eb"/>
  <circle cx="832.08" cy="249.94" r="2.5" fill="#2563eb"/>
  <circle cx="833.95" cy="249.99" r="2.5" fill="#2563eb"/>
  <circle cx="835.82" cy="300.01" r="2.5" fill="#2563eb"/>
  <circle cx="837.70" cy="300.06" r="2.5" fill="#2563eb"/>
  <circle cx="839.57" cy="300.01" r="2.5" fill="#2563eb"/>
  <circle cx="841.44" cy="299.97" r="2.5" fill="#2563eb"/>
  <circle cx="843.31" cy="299.97" r="2.5" fill="#2563eb"/>
  <circle cx="845.19" cy="300.01" r="2.5" fill="#2563eb"/>
  <circle cx="847.06" cy="299.93" r="2.5" fill="#2563eb"/>
  <circle cx="848.93" cy="299.89" r="2.5" fill="#2563eb"/>
  <circle cx="850.80" cy="299.89" r="2.5" fill="#2563eb"/>
  <circle cx="852.67" cy="299.89" r="2.5" fill="#2563eb"/>
  <circle cx="854.55" cy="299.89" r="2.5" fill="#2563eb"/>
  <circle cx="856.42" cy="299.85" r="2.5" fill="#2563eb"/>
  <circle cx="858.29" cy="299.85" r="2.5" fill="#2563eb"/>
  <circle cx="860.16" cy="299.89" r="2.5" fill="#2563eb"/>
  <circle cx="862.04" cy="299.81" r="2.5" fill="#2563eb"/>
  <circle cx="863.91" cy="299.81" r="2.5" fill="#2563eb"/>
  <circle cx="865.78" cy="299.81" r="2.5" fill="#2563eb"/>
  <circle cx="867.65" cy="299.76" r="2.5" fill="#2563eb"/>
  <circle cx="869.53" cy="299.76" r="2.5" fill="#2563eb"/>
  <circle cx="871.40" cy="299.76" r="2.5" fill="#2563eb"/>
  <circle cx="873.27" cy="299.72" r="2.5" fill="#2563eb"/>
  <circle cx="875.14" cy="299.68" r="2.5" fill="#2563eb"/>
  <circle cx="877.02" cy="299.60" r="2.5" fill="#2563eb"/>
  <circle cx="878.89" cy="299.60" r="2.5" fill="#2563eb"/>
  <circle cx="880.76" cy="299.60" r="2.5" fill="#2563eb"/>
  <circle cx="882.63" cy="299.56" r="2.5" fill="#2563eb"/>
  <circle cx="884.51" cy="299.47" r="2.5" fill="#2563eb"/>
  <circle cx="886.38" cy="299.43" r="2.5" fill="#2563eb"/>
  <circle cx="888.25" cy="299.43" r="2.5" fill="#2563eb"/>
  <circle cx="890.12" cy="299.39" r="2.5" fill="#2563eb"/>
  <circle cx="892.00" cy="299.47" r="2.5" fill="#2563eb"/>
  <circle cx="893.87" cy="259.82" r="2.5" fill="#2563eb"/>
  <circle cx="895.74" cy="338.96" r="2.5" fill="#2563eb"/>
  <circle cx="897.61" cy="299.31" r="2.5" fill="#2563eb"/>
  <circle cx="899.49" cy="299.31" r="2.5" fill="#2563eb"/>
  <circle cx="901.36" cy="299.26" r="2.5" fill="#2563eb"/>
  <circle cx="903.23" cy="299.68" r="2.5" fill="#2563eb"/>
  <circle cx="905.10" cy="299.68" r="2.5" fill="#2563eb"/>
  <circle cx="906.98" cy="299.68" r="2.5" fill="#2563eb"/>
  <circle cx="908.85" cy="299.64" r="2.5" fill="#2563eb"/>
  <circle cx="910.72" cy="299.14" r="2.5" fill="#2563eb"/>
  <circle cx="912.59" cy="299.14" r="2.5" fill="#2563eb"/>
  <circle cx="914.47" cy="299.10" r="2.5" fill="#2563eb"/>
  <circle cx="916.34" cy="299.10" r="2.5" fill="#2563eb"/>
  <circle cx="918.21" cy="299.10" r="2.5" fill="#2563eb"/>
  <circle cx="920.08" cy="248.07" r="2.5" fill="#2563eb"/>
  <circle cx="921.95" cy="299.06" r="2.5" fill="#2563eb"/>
  <circle cx="923.83" cy="299.06" r="2.5" fill="#2563eb"/>
  <circle cx="925.70" cy="299.06" r="2.5" fill="#2563eb"/>
  <circle cx="927.57" cy="299.06" r="2.5" fill="#2563eb"/>
  <circle cx="929.44" cy="299.06" r="2.5" fill="#2563eb"/>
  <circle cx="931.32" cy="298.97" r="2.5" fill="#2563eb"/>
  <circle cx="933.19" cy="298.97" r="2.5" fill="#2563eb"/>
  <circle cx="935.06" cy="298.93" r="2.5" fill="#2563eb"/>
  <circle cx="936.93" cy="298.97" r="2.5" fill="#2563eb"/>
  <circle cx="938.81" cy="298.93" r="2.5" fill="#2563eb"/>
  <circle cx="940.68" cy="298.89" r="2.5" fill="#2563eb"/>
  <circle cx="942.55" cy="298.89" r="2.5" fill="#2563eb"/>
  <circle cx="944.42" cy="298.89" r="2.5" fill="#2563eb"/>
  <circle cx="946.30" cy="298.89" r="2.5" fill="#2563eb"/>
  <circle cx="948.17" cy="247.78" r="2.5" fill="#2563eb"/>
  <circle cx="950.04" cy="298.89" r="2.5" fill="#2563eb"/>
  <circle cx="951.91" cy="298.89" r="2.5" fill="#2563eb"/>
  <circle cx="953.79" cy="298.85" r="2.5" fill="#2563eb"/>
  <circle cx="955.66" cy="298.85" r="2.5" fill="#2563eb"/>
  <circle cx="957.53" cy="298.81" r="2.5" fill="#2563eb"/>
  <circle cx="959.40" cy="298.81" r="2.5" fill="#2563eb"/>
  <circle cx="961.28" cy="298.81" r="2.5" fill="#2563eb"/>
  <circle cx="963.15" cy="298.81" r="2.5" fill="#2563eb"/>
  <circle cx="965.02" cy="298.81" r="2.5" fill="#2563eb"/>
  <circle cx="966.89" cy="298.81" r="2.5" fill="#2563eb"/>
  <circle cx="968.77" cy="298.81" r="2.5" fill="#2563eb"/>
  <circle cx="970.64" cy="298.81" r="2.5" fill="#2563eb"/>
  <circle cx="972.51" cy="298.81" r="2.5" fill="#2563eb"/>
  <circle cx="974.38" cy="298.72" r="2.5" fill="#2563eb"/>
  <circle cx="976.26" cy="247.45" r="2.5" fill="#2563eb"/>
  <circle cx="978.13" cy="247.45" r="2.5" fill="#2563eb"/>
  <circle cx="980.00" cy="298.72" r="2.5" fill="#2563eb"/>
</svg>
