<?xml version="1.0" encoding="UTF-8"?>
<svg xmlns="http://www.w3.org/2000/svg" width="1000" height="420" viewBox="0 0 1000 420">
  <rect width="100%" height="100%" fill="#ffffff"/>
  <text x="70" y="28" font-size="20" font-weight="600">수집 시점 기준 - 시간별 스냅샷</text>
  <text x="70" y="402" font-size="12" fill="#555">스냅샷 수</text>
  <line x1="70" y1="350.00" x2="980" y2="350.00" stroke="#e5e7eb" stroke-width="1"/>
  <text x="62" y="354.00" font-size="11" fill="#6b7280" text-anchor="end">0</text>
  <line x1="70" y1="290.00" x2="980" y2="290.00" stroke="#e5e7eb" stroke-width="1"/>
  <text x="62" y="294.00" font-size="11" fill="#6b7280" text-anchor="end">1,440</text>
  <line x1="70" y1="230.00" x2="980" y2="230.00" stroke="#e5e7eb" stroke-width="1"/>
  <text x="62" y="234.00" font-size="11" fill="#6b7280" text-anchor="end">2,880</text>
  <line x1="70" y1="170.00" x2="980" y2="170.00" stroke="#e5e7eb" stroke-width="1"/>
  <text x="62" y="174.00" font-size="11" fill="#6b7280" text-anchor="end">4,321</text>
  <line x1="70" y1="110.00" x2="980" y2="110.00" stroke="#e5e7eb" stroke-width="1"/>
  <text x="62" y="114.00" font-size="11" fill="#6b7280" text-anchor="end">5,761</text>
  <line x1="70" y1="50.00" x2="980" y2="50.00" stroke="#e5e7eb" stroke-width="1"/>
  <text x="62" y="54.00" font-size="11" fill="#6b7280" text-anchor="end">7,202</text>
  <line x1="70" y1="350" x2="980" y2="350" stroke="#111827" stroke-width="1.2"/>
  <line x1="70" y1="50" x2="70" y2="350" stroke="#111827" stroke-width="1.2"/>
  <line x1="70.00" y1="350" x2="70.00" y2="356" stroke="#9ca3af" stroke-width="1"/>
  <text x="70.00" y="372" font-size="10" fill="#6b7280" text-anchor="middle">2026-02-28 18</text>
  <line x1="145.41" y1="350" x2="145.41" y2="356" stroke="#9ca3af" stroke-width="1"/>
  <text x="145.41" y="372" font-size="10" fill="#6b7280" text-anchor="middle">2026-03-09 00</text>
  <line x1="220.83" y1="350" x2="220.83" y2="356" stroke="#9ca3af" stroke-width="1"/>
  <text x="220.83" y="372" font-size="10" fill="#6b7280" text-anchor="middle">2026-03-11 01</text>
  <line x1="296.24" y1="350" x2="296.24" y2="356" stroke="#9ca3af" stroke-width="1"/>
  <text x="296.24" y="372" font-size="10" fill="#6b7280" text-anchor="middle">2026-03-13 02</text>
  <line x1="371.66" y1="350" x2="371.66" y2="356" stroke="#9ca3af" stroke-width="1"/>
  <text x="371.66" y="372" font-size="10" fill="#6b7280" text-anchor="middle">2026-03-15 08</text>
  <line x1="447.07" y1="350" x2="447.07" y2="356" stroke="#9ca3af" stroke-width="1"/>
  <text x="447.07" y="372" font-size="10" fill="#6b7280" text-anchor="middle">2026-03-18 08</text>
  <line x1="522.49" y1="350" x2="522.49" y2="356" stroke="#9ca3af" stroke-width="1"/>
  <text x="522.49" y="372" font-size="10" fill="#6b7280" text-anchor="middle">2026-03-21 04</text>
  <line x1="597.90" y1="350" x2="597.90" y2="356" stroke="#9ca3af" stroke-width="1"/>
  <text x="597.90" y="372" font-size="10" fill="#6b7280" text-anchor="middle">2026-03-23 20</text>
  <line x1="673.31" y1="350" x2="673.31" y2="356" stroke="#9ca3af" stroke-width="1"/>
  <text x="673.31" y="372" font-size="10" fill="#6b7280" text-anchor="middle">2026-03-26 21</text>
  <line x1="748.73" y1="350" x2="748.73" y2="356" stroke="#9ca3af" stroke-width="1"/>
  <text x="748.73" y="372" font-size="10" fill="#6b7280" text-anchor="middle">2026-03-29 22</text>
  <line x1="824.14" y1="350" x2="824.14" y2="356" stroke="#9ca3af" stroke-width="1"/>
  <text x="824.14" y="372" font-size="10" fill="#6b7280" text-anchor="middle">2026-04-02 03</text>
  <line x1="899.56" y1="350" x2="899.56" y2="356" stroke="#9ca3af" stroke-width="1"/>
  <text x="899.56" y="372" font-size="10" fill="#6b7280" text-anchor="middle">2026-04-05 02</text>
  <line x1="974.97" y1="350" x2="974.97" y2="356" stroke="#9ca3af" stroke-width="1"/>
  <text x="974.97" y="372" font-size="10" fill="#6b7280" text-anchor="middle">2026-04-08 05</text>
  <line x1="980.00" y1="350" x2="980.00" y2="356" stroke="#9ca3af" stroke-width="1"/>
  <text x="980.00" y="372" font-size="10" fill="#6b7280" text-anchor="middle">2026-04-08 08</text>
  <polyline fill="none" stroke="#2563eb" stroke-width="2.5" points="70.00,50.00 71.68,50.12 73.35,50.17 75.03,50.46 76.70,50.00 78.38,266.90 80.06,50.12 81.73,50.08 83.41,177.46 85.08,211.58 86.76,175.34 88.43,304.14 90.11,200.46 91.79,250.94 93.46,300.01 95.14,300.06 96.81,300.01 98.49,300.01 100.17,348.00 101.84,300.01 103.52,249.99 105.19,200.00 106.87,249.99 108.55,249.99 110.22,250.03 111.90,250.03 113.57,250.03 115.25,250.40 116.92,250.90 118.60,250.90 120.28,251.32 121.95,249.94 123.63,300.01 125.30,299.93 126.98,251.03 128.66,300.68 130.33,250.03 132.01,200.00 133.68,249.99 135.36,250.03 137.03,250.03 138.71,250.03 140.39,300.01 142.06,200.04 143.74,250.03 145.41,250.03 147.09,250.03 148.77,249.90 150.44,250.03 152.12,250.03 153.79,250.94 155.47,250.44 157.15,250.03 158.82,250.03 160.50,300.47 162.17,300.01 163.85,300.43 165.52,250.03 167.20,249.99 168.88,300.43 170.55,249.90 172.23,249.99 173.90,249.99 175.58,200.04 177.26,300.01 178.93,300.01 180.61,300.01 182.28,249.90 183.96,300.01 185.64,250.03 187.31,249.99 188.99,199.96 190.66,300.01 192.34,200.00 194.01,250.36 195.69,250.03 197.37,300.01 199.04,300.01 200.72,250.44 202.39,300.01 204.07,250.03 205.75,250.03 207.42,249.99 209.10,250.49 210.77,250.03 212.45,200.04 214.13,300.01 215.80,250.03 217.48,300.01 219.15,250.11 220.83,300.01 222.50,250.03 224.18,250.03 225.86,199.92 227.53,250.03 229.21,250.03 230.88,250.03 232.56,254.36 234.24,300.01 235.91,299.97 237.59,250.36 239.26,299.97 240.94,250.03 242.62,250.03 244.29,250.03 245.97,250.03 247.64,249.99 249.32,200.00 250.99,299.93 252.67,300.01 254.35,299.97 256.02,249.94 257.70,249.99 259.37,249.82 261.05,249.94 262.73,250.28 264.40,207.00 266.08,250.03 267.75,250.32 269.43,250.40 271.10,300.93 272.78,300.01 274.46,300.10 276.13,249.94 277.81,249.99 279.48,250.07 281.16,249.99 282.84,250.03 284.51,249.94 286.19,200.00 287.86,300.39 289.54,300.01 291.22,300.01 292.89,250.44 294.57,300.39 296.24,249.86 297.92,250.11 299.59,201.46 301.27,300.01 302.95,200.83 304.62,250.03 306.30,249.99 307.97,300.26 309.65,300.01 311.33,300.01 313.00,250.03 314.68,250.03 316.35,250.03 318.03,250.03 319.71,249.99 321.38,250.03 323.06,200.00 324.73,300.26 326.41,249.99 328.08,300.01 329.76,249.94 331.44,250.03 333.11,250.03 334.79,250.03 336.46,200.04 338.14,300.01 339.82,249.90 341.49,300.01 343.17,300.01 344.84,300.06 346.52,300.01 348.20,300.01 349.87,243.95 351.55,249.94 353.22,299.97 354.90,300.01 356.57,300.01 358.25,250.03 359.93,300.01 361.60,300.01 363.28,299.97 364.95,249.99 366.63,300.01 368.31,299.93 369.98,300.01 371.66,299.93 373.33,300.01 375.01,300.01 376.69,299.89 378.36,299.97 380.04,250.03 381.71,299.93 383.39,299.89 385.06,299.97 386.74,249.94 388.42,300.01 390.09,300.01 391.77,299.97 393.44,249.99 395.12,299.97 396.80,299.97 398.47,300.06 400.15,300.06 401.82,299.93 403.50,300.01 405.17,300.01 406.85,299.93 408.53,300.01 410.20,300.01 411.88,299.97 413.55,300.01 415.23,300.01 416.91,300.01 418.58,300.01 420.26,249.86 421.93,300.01 423.61,300.10 425.29,299.93 426.96,300.01 428.64,299.93 430.31,300.01 431.99,300.01 433.66,300.01 435.34,300.01 437.02,300.01 438.69,299.97 440.37,300.01 442.04,300.01 443.72,300.01 445.40,300.01 447.07,250.03 448.75,300.01 450.42,300.01 452.10,299.97 453.78,300.01 455.45,300.01 457.13,299.97 458.80,299.97 460.48,300.01 462.15,299.97 463.83,300.01 465.51,299.93 467.18,300.01 468.86,250.03 470.53,300.01 472.21,300.01 473.89,300.01 475.56,300.01 477.24,300.01 478.91,299.89 480.59,300.01 482.27,300.01 483.94,250.07 485.62,300.01 487.29,299.93 488.97,300.01 490.64,299.97 492.32,299.97 494.00,299.97 495.67,250.03 497.35,300.01 499.02,300.01 500.70,300.01 502.38,300.01 504.05,299.97 505.73,300.01 507.40,299.97 509.08,300.01 510.76,299.97 512.43,249.90 514.11,300.01 515.78,300.01 517.46,299.89 519.13,299.97 520.81,299.97 522.49,249.99 524.16,299.97 525.84,299.89 527.51,300.01 529.19,299.97 530.87,299.97 532.54,300.01 534.22,299.97 535.89,249.99 537.57,299.97 539.24,299.97 540.92,300.06 542.60,300.06 544.27,249.94 545.95,300.01 547.62,299.93 549.30,300.01 550.98,300.01 552.65,249.99 554.33,300.01 556.00,300.01 557.68,300.01 559.36,299.93 561.03,299.93 562.71,300.01 564.38,300.01 566.06,249.94 567.73,299.97 569.41,299.97 571.09,300.01 572.76,300.01 574.44,300.01 576.11,249.99 577.79,300.01 579.47,300.01 581.14,300.01 582.82,250.03 584.49,300.01 586.17,300.01 587.85,300.01 589.52,299.97 591.20,300.01 592.87,300.01 594.55,299.97 596.22,299.97 597.90,300.01 599.58,300.01 601.25,299.97 602.93,299.93 604.60,300.01 606.28,300.06 607.96,299.97 609.63,300.01 611.31,250.03 612.98,250.03 614.66,299.93 616.34,299.97 618.01,300.01 619.69,300.01 621.36,300.06 623.04,300.01 624.71,299.93 626.39,300.01 628.07,300.01 629.74,299.97 631.42,299.97 633.09,300.01 634.77,250.03 636.45,300.01 638.12,300.01 639.80,300.01 641.47,299.97 643.15,300.01 644.83,299.97 646.50,300.01 648.18,299.97 649.85,299.97 651.53,299.93 653.20,300.01 654.88,300.01 656.56,299.89 658.23,299.97 659.91,299.97 661.58,300.06 663.26,249.90 664.94,299.89 666.61,300.01 668.29,299.97 669.96,299.97 671.64,299.97 673.31,300.01 674.99,300.01 676.67,299.97 678.34,299.97 680.02,299.97 681.69,250.03 683.37,299.93 685.05,300.01 686.72,300.01 688.40,299.93 690.07,300.01 691.75,300.01 693.43,299.97 695.10,300.01 696.78,300.01 698.45,300.06 700.13,300.01 701.80,299.97 703.48,299.89 705.16,300.01 706.83,300.01 708.51,249.94 710.18,249.94 711.86,300.01 713.54,300.01 715.21,300.01 716.89,300.01 718.56,299.97 720.24,250.03 721.92,300.01 723.59,300.01 725.27,300.01 726.94,300.01 728.62,250.03 730.29,249.99 731.97,300.01 733.65,299.97 735.32,300.01 737.00,299.97 738.67,300.01 740.35,299.97 742.03,299.97 743.70,299.97 745.38,300.06 747.05,249.99 748.73,300.01 750.41,250.03 752.08,249.94 753.76,249.99 755.43,300.01 757.11,300.06 758.78,300.01 760.46,299.97 762.14,299.97 763.81,300.01 765.49,299.93 767.16,299.89 768.84,299.89 770.52,299.89 772.19,299.89 773.87,299.85 775.54,299.85 777.22,299.89 778.90,299.81 780.57,299.81 782.25,299.81 783.92,299.76 785.60,299.76 787.27,299.76 788.95,299.72 790.63,299.68 792.30,299.60 793.98,299.60 795.65,299.60 797.33,299.56 799.01,299.47 800.68,299.43 802.36,299.43 804.03,299.39 805.71,299.47 807.38,259.82 809.06,338.96 810.74,299.31 812.41,299.31 814.09,299.26 815.76,299.68 817.44,299.68 819.12,299.68 820.79,299.64 822.47,299.14 824.14,299.14 825.82,299.10 827.50,299.10 829.17,299.10 830.85,248.07 832.52,299.06 834.20,299.06 835.87,299.06 837.55,299.06 839.23,299.06 840.90,298.97 842.58,298.97 844.25,298.93 845.93,298.97 847.61,298.93 849.28,298.89 850.96,298.89 852.63,298.89 854.31,298.89 855.99,247.78 857.66,298.89 859.34,298.89 861.01,298.85 862.69,298.85 864.36,298.81 866.04,298.81 867.72,298.81 869.39,298.81 871.07,298.81 872.74,298.81 874.42,298.81 876.10,298.81 877.77,298.81 879.45,298.72 881.12,247.45 882.80,247.45 884.48,298.72 886.15,298.72 887.83,298.72 889.50,298.72 891.18,298.72 892.85,298.72 894.53,247.36 896.21,298.68 897.88,247.36 899.56,247.36 901.23,247.36 902.91,298.68 904.59,298.68 906.26,298.68 907.94,298.68 909.61,298.68 911.29,341.67 912.97,307.01 914.64,298.68 916.32,298.68 917.99,298.68 919.67,247.36 921.34,298.64 923.02,247.36 924.70,247.28 926.37,247.20 928.05,298.60 929.72,298.60 931.40,247.03 933.08,298.51 934.75,298.51 936.43,298.51 938.10,298.51 939.78,298.51 941.45,298.51 943.13,298.51 944.81,298.51 946.48,298.51 948.16,298.51 949.83,298.51 951.51,298.51 953.19,298.51 954.86,298.51 956.54,298.51 958.21,298.51 959.89,298.51 961.57,298.51 963.24,298.51 964.92,298.51 966.59,298.51 968.27,298.51 969.94,298.51 971.62,298.51 973.30,298.51 974.97,298.51 976.65,298.47 978.32,298.51 980.00,298.51"/>
  <circle cx="70.00" cy="50.00" r="2.5" fill="#2563eb"/>
  <circle cx="71.68" cy="50.12" r="2.5" fill="#2563eb"/>
  <circle cx="73.35" cy="50.17" r="2.5" fill="#2563eb"/>
  <circle cx="75.03" cy="50.46" r="2.5" fill="#2563eb"/>
  <circle cx="76.70" cy="50.00" r="2.5" fill="#2563eb"/>
  <circle cx="78.38" cy="266.90" r="2.5" fill="#2563eb"/>
  <circle cx="80.06" cy="50.12" r="2.5" fill="#2563eb"/>
  <circle cx="81.73" cy="50.08" r="2.5" fill="#2563eb"/>
  <circle cx="83.41" cy="177.46" r="2.5" fill="#2563eb"/>
  <circle cx="85.08" cy="211.58" r="2.5" fill="#2563eb"/>
  <circle cx="86.76" cy="175.34" r="2.5" fill="#2563eb"/>
  <circle cx="88.43" cy="304.14" r="2.5" fill="#2563eb"/>
  <circle cx="90.11" cy="200.46" r="2.5" fill="#2563eb"/>
  <circle cx="91.79" cy="250.94" r="2.5" fill="#2563eb"/>
  <circle cx="93.46" cy="300.01" r="2.5" fill="#2563eb"/>
  <circle cx="95.14" cy="300.06" r="2.5" fill="#2563eb"/>
  <circle cx="96.81" cy="300.01" r="2.5" fill="#2563eb"/>
  <circle cx="98.49" cy="300.01" r="2.5" fill="#2563eb"/>
  <circle cx="100.17" cy="348.00" r="2.5" fill="#2563eb"/>
  <circle cx="101.84" cy="300.01" r="2.5" fill="#2563eb"/>
  <circle cx="103.52" cy="249.99" r="2.5" fill="#2563eb"/>
  <circle cx="105.19" cy="200.00" r="2.5" fill="#2563eb"/>
  <circle cx="106.87" cy="249.99" r="2.5" fill="#2563eb"/>
  <circle cx="108.55" cy="249.99" r="2.5" fill="#2563eb"/>
  <circle cx="110.22" cy="250.03" r="2.5" fill="#2563eb"/>
  <circle cx="111.90" cy="250.03" r="2.5" fill="#2563eb"/>
  <circle cx="113.57" cy="250.03" r="2.5" fill="#2563eb"/>
  <circle cx="115.25" cy="250.40" r="2.5" fill="#2563eb"/>
  <circle cx="116.92" cy="250.90" r="2.5" fill="#2563eb"/>
  <circle cx="118.60" cy="250.90" r="2.5" fill="#2563eb"/>
  <circle cx="120.28" cy="251.32" r="2.5" fill="#2563eb"/>
  <circle cx="121.95" cy="249.94" r="2.5" fill="#2563eb"/>
  <circle cx="123.63" cy="300.01" r="2.5" fill="#2563eb"/>
  <circle cx="125.30" cy="299.93" r="2.5" fill="#2563eb"/>
  <circle cx="126.98" cy="251.03" r="2.5" fill="#2563eb"/>
  <circle cx="128.66" cy="300.68" r="2.5" fill="#2563eb"/>
  <circle cx="130.33" cy="250.03" r="2.5" fill="#2563eb"/>
  <circle cx="132.01" cy="200.00" r="2.5" fill="#2563eb"/>
  <circle cx="133.68" cy="249.99" r="2.5" fill="#2563eb"/>
  <circle cx="135.36" cy="250.03" r="2.5" fill="#2563eb"/>
  <circle cx="137.03" cy="250.03" r="2.5" fill="#2563eb"/>
  <circle cx="138.71" cy="250.03" r="2.5" fill="#2563eb"/>
  <circle cx="140.39" cy="300.01" r="2.5" fill="#2563eb"/>
  <circle cx="142.06" cy="200.04" r="2.5" fill="#2563eb"/>
  <circle cx="143.74" cy="250.03" r="2.5" fill="#2563eb"/>
  <circle cx="145.41" cy="250.03" r="2.5" fill="#2563eb"/>
  <circle cx="147.09" cy="250.03" r="2.5" fill="#2563eb"/>
  <circle cx="148.77" cy="249.90" r="2.5" fill="#2563eb"/>
  <circle cx="150.44" cy="250.03" r="2.5" fill="#2563eb"/>
  <circle cx="152.12" cy="250.03" r="2.5" fill="#2563eb"/>
  <circle cx="153.79" cy="250.94" r="2.5" fill="#2563eb"/>
  <circle cx="155.47" cy="250.44" r="2.5" fill="#2563eb"/>
  <circle cx="157.15" cy="250.03" r="2.5" fill="#2563eb"/>
  <circle cx="158.82" cy="250.03" r="2.5" fill="#2563eb"/>
  <circle cx="160.50" cy="300.47" r="2.5" fill="#2563eb"/>
  <circle cx="162.17" cy="300.01" r="2.5" fill="#2563eb"/>
  <circle cx="163.85" cy="300.43" r="2.5" fill="#2563eb"/>
  <circle cx="165.52" cy="250.03" r="2.5" fill="#2563eb"/>
  <circle cx="167.20" cy="249.99" r="2.5" fill="#2563eb"/>
  <circle cx="168.88" cy="300.43" r="2.5" fill="#2563eb"/>
  <circle cx="170.55" cy="249.90" r="2.5" fill="#2563eb"/>
  <circle cx="172.23" cy="249.99" r="2.5" fill="#2563eb"/>
  <circle cx="173.90" cy="249.99" r="2.5" fill="#2563eb"/>
  <circle cx="175.58" cy="200.04" r="2.5" fill="#2563eb"/>
  <circle cx="177.26" cy="300.01" r="2.5" fill="#2563eb"/>
  <circle cx="178.93" cy="300.01" r="2.5" fill="#2563eb"/>
  <circle cx="180.61" cy="300.01" r="2.5" fill="#2563eb"/>
  <circle cx="182.28" cy="249.90" r="2.5" fill="#2563eb"/>
  <circle cx="183.96" cy="300.01" r="2.5" fill="#2563eb"/>
  <circle cx="185.64" cy="250.03" r="2.5" fill="#2563eb"/>
  <circle cx="187.31" cy="249.99" r="2.5" fill="#2563eb"/>
  <circle cx="188.99" cy="199.96" r="2.5" fill="#2563eb"/>
  <circle cx="190.66" cy="300.01" r="2.5" fill="#2563eb"/>
  <circle cx="192.34" cy="200.00" r="2.5" fill="#2563eb"/>
  <circle cx="194.01" cy="250.36" r="2.5" fill="#2563eb"/>
  <circle cx="195.69" cy="250.03" r="2.5" fill="#2563eb"/>
  <circle cx="197.37" cy="300.01" r="2.5" fill="#2563eb"/>
  <circle cx="199.04" cy="300.01" r="2.5" fill="#2563eb"/>
  <circle cx="200.72" cy="250.44" r="2.5" fill="#2563eb"/>
  <circle cx="202.39" cy="300.01" r="2.5" fill="#2563eb"/>
  <circle cx="204.07" cy="250.03" r="2.5" fill="#2563eb"/>
  <circle cx="205.75" cy="250.03" r="2.5" fill="#2563eb"/>
  <circle cx="207.42" cy="249.99" r="2.5" fill="#2563eb"/>
  <circle cx="209.10" cy="250.49" r="2.5" fill="#2563eb"/>
  <circle cx="210.77" cy="250.03" r="2.5" fill="#2563eb"/>
  <circle cx="212.45" cy="200.04" r="2.5" fill="#2563eb"/>
  <circle cx="214.13" cy="300.01" r="2.5" fill="#2563eb"/>
  <circle cx="215.80" cy="250.03" r="2.5" fill="#2563eb"/>
  <circle cx="217.48" cy="300.01" r="2.5" fill="#2563eb"/>
  <circle cx="219.15" cy="250.11" r="2.5" fill="#2563eb"/>
  <circle cx="220.83" cy="300.01" r="2.5" fill="#2563eb"/>
  <circle cx="222.50" cy="250.03" r="2.5" fill="#2563eb"/>
  <circle cx="224.18" cy="250.03" r="2.5" fill="#2563eb"/>
  <circle cx="225.86" cy="199.92" r="2.5" fill="#2563eb"/>
  <circle cx="227.53" cy="250.03" r="2.5" fill="#2563eb"/>
  <circle cx="229.21" cy="250.03" r="2.5" fill="#2563eb"/>
  <circle cx="230.88" cy="250.03" r="2.5" fill="#2563eb"/>
  <circle cx="232.56" cy="254.36" r="2.5" fill="#2563eb"/>
  <circle cx="234.24" cy="300.01" r="2.5" fill="#2563eb"/>
  <circle cx="235.91" cy="299.97" r="2.5" fill="#2563eb"/>
  <circle cx="237.59" cy="250.36" r="2.5" fill="#2563eb"/>
  <circle cx="239.26" cy="299.97" r="2.5" fill="#2563eb"/>
  <circle cx="240.94" cy="250.03" r="2.5" fill="#2563eb"/>
  <circle cx="242.62" cy="250.03" r="2.5" fill="#2563eb"/>
  <circle cx="244.29" cy="250.03" r="2.5" fill="#2563eb"/>
  <circle cx="245.97" cy="250.03" r="2.5" fill="#2563eb"/>
  <circle cx="247.64" cy="249.99" r="2.5" fill="#2563eb"/>
  <circle cx="249.32" cy="200.00" r="2.5" fill="#2563eb"/>
  <circle cx="250.99" cy="299.93" r="2.5" fill="#2563eb"/>
  <circle cx="252.67" cy="300.01" r="2.5" fill="#2563eb"/>
  <circle cx="254.35" cy="299.97" r="2.5" fill="#2563eb"/>
  <circle cx="256.02" cy="249.94" r="2.5" fill="#2563eb"/>
  <circle cx="257.70" cy="249.99" r="2.5" fill="#2563eb"/>
  <circle cx="259.37" cy="249.82" r="2.5" fill="#2563eb"/>
  <circle cx="261.05" cy="249.94" r="2.5" fill="#2563eb"/>
  <circle cx="262.73" cy="250.28" r="2.5" fill="#2563eb"/>
  <circle cx="264.40" cy="207.00" r="2.5" fill="#2563eb"/>
  <circle cx="266.08" cy="250.03" r="2.5" fill="#2563eb"/>
  <circle cx="267.75" cy="250.32" r="2.5" fill="#2563eb"/>
  <circle cx="269.43" cy="250.40" r="2.5" fill="#2563eb"/>
  <circle cx="271.10" cy="300.93" r="2.5" fill="#2563eb"/>
  <circle cx="272.78" cy="300.01" r="2.5" fill="#2563eb"/>
  <circle cx="274.46" cy="300.10" r="2.5" fill="#2563eb"/>
  <circle cx="276.13" cy="249.94" r="2.5" fill="#2563eb"/>
  <circle cx="277.81" cy="249.99" r="2.5" fill="#2563eb"/>
  <circle cx="279.48" cy="250.07" r="2.5" fill="#2563eb"/>
  <circle cx="281.16" cy="249.99" r="2.5" fill="#2563eb"/>
  <circle cx="282.84" cy="250.03" r="2.5" fill="#2563eb"/>
  <circle cx="284.51" cy="249.94" r="2.5" fill="#2563eb"/>
  <circle cx="286.19" cy="200.00" r="2.5" fill="#2563eb"/>
  <circle cx="287.86" cy="300.39" r="2.5" fill="#2563eb"/>
  <circle cx="289.54" cy="300.01" r="2.5" fill="#2563eb"/>
  <circle cx="291.22" cy="300.01" r="2.5" fill="#2563eb"/>
  <circle cx="292.89" cy="250.44" r="2.5" fill="#2563eb"/>
  <circle cx="294.57" cy="300.39" r="2.5" fill="#2563eb"/>
  <circle cx="296.24" cy="249.86" r="2.5" fill="#2563eb"/>
  <circle cx="297.92" cy="250.11" r="2.5" fill="#2563eb"/>
  <circle cx="299.59" cy="201.46" r="2.5" fill="#2563eb"/>
  <circle cx="301.27" cy="300.01" r="2.5" fill="#2563eb"/>
  <circle cx="302.95" cy="200.83" r="2.5" fill="#2563eb"/>
  <circle cx="304.62" cy="250.03" r="2.5" fill="#2563eb"/>
  <circle cx="306.30" cy="249.99" r="2.5" fill="#2563eb"/>
  <circle cx="307.97" cy="300.26" r="2.5" fill="#2563eb"/>
  <circle cx="309.65" cy="300.01" r="2.5" fill="#2563eb"/>
  <circle cx="311.33" cy="300.01" r="2.5" fill="#2563eb"/>
  <circle cx="313.00" cy="250.03" r="2.5" fill="#2563eb"/>
  <circle cx="314.68" cy="250.03" r="2.5" fill="#2563eb"/>
  <circle cx="316.35" cy="250.03" r="2.5" fill="#2563eb"/>
  <circle cx="318.03" cy="250.03" r="2.5" fill="#2563eb"/>
  <circle cx="319.71" cy="249.99" r="2.5" fill="#2563eb"/>
  <circle cx="321.38" cy="250.03" r="2.5" fill="#2563eb"/>
  <circle cx="323.06" cy="200.00" r="2.5" fill="#2563eb"/>
  <circle cx="324.73" cy="300.26" r="2.5" fill="#2563eb"/>
  <circle cx="326.41" cy="249.99" r="2.5" fill="#2563eb"/>
  <circle cx="328.08" cy="300.01" r="2.5" fill="#2563eb"/>
  <circle cx="329.76" cy="249.94" r="2.5" fill="#2563eb"/>
  <circle cx="331.44" cy="250.03" r="2.5" fill="#2563eb"/>
  <circle cx="333.11" cy="250.03" r="2.5" fill="#2563eb"/>
  <circle cx="334.79" cy="250.03" r="2.5" fill="#2563eb"/>
  <circle cx="336.46" cy="200.04" r="2.5" fill="#2563eb"/>
  <circle cx="338.14" cy="300.01" r="2.5" fill="#2563eb"/>
  <circle cx="339.82" cy="249.90" r="2.5" fill="#2563eb"/>
  <circle cx="341.49" cy="300.01" r="2.5" fill="#2563eb"/>
  <circle cx="343.17" cy="300.01" r="2.5" fill="#2563eb"/>
  <circle cx="344.84" cy="300.06" r="2.5" fill="#2563eb"/>
  <circle cx="346.52" cy="300.01" r="2.5" fill="#2563eb"/>
  <circle cx="348.20" cy="300.01" r="2.5" fill="#2563eb"/>
  <circle cx="349.87" cy="243.95" r="2.5" fill="#2563eb"/>
  <circle cx="351.55" cy="249.94" r="2.5" fill="#2563eb"/>
  <circle cx="353.22" cy="299.97" r="2.5" fill="#2563eb"/>
  <circle cx="354.90" cy="300.01" r="2.5" fill="#2563eb"/>
  <circle cx="356.57" cy="300.01" r="2.5" fill="#2563eb"/>
  <circle cx="358.25" cy="250.03" r="2.5" fill="#2563eb"/>
  <circle cx="359.93" cy="300.01" r="2.5" fill="#2563eb"/>
  <circle cx="361.60" cy="300.01" r="2.5" fill="#2563eb"/>
  <circle cx="363.28" cy="299.97" r="2.5" fill="#2563eb"/>
  <circle cx="364.95" cy="249.99" r="2.5" fill="#2563eb"/>
  <circle cx="366.63" cy="300.01" r="2.5" fill="#2563eb"/>
  <circle cx="368.31" cy="299.93" r="2.5" fill="#2563eb"/>
  <circle cx="369.98" cy="300.01" r="2.5" fill="#2563eb"/>
  <circle cx="371.66" cy="299.93" r="2.5" fill="#2563eb"/>
  <circle cx="373.33" cy="300.01" r="2.5" fill="#2563eb"/>
  <circle cx="375.01" cy="300.01" r="2.5" fill="#2563eb"/>
  <circle cx="376.69" cy="299.89" r="2.5" fill="#2563eb"/>
  <circle cx="378.36" cy="299.97" r="2.5" fill="#2563eb"/>
  <circle cx="380.04" cy="250.03" r="2.5" fill="#2563eb"/>
  <circle cx="381.71" cy="299.93" r="2.5" fill="#2563eb"/>
  <circle cx="383.39" cy="299.89" r="2.5" fill="#2563eb"/>
  <circle cx="385.06" cy="299.97" r="2.5" fill="#2563eb"/>
  <circle cx="386.74" cy="249.94" r="2.5" fill="#2563eb"/>
  <circle cx="388.42" cy="300.01" r="2.5" fill="#2563eb"/>
  <circle cx="390.09" cy="300.01" r="2.5" fill="#2563eb"/>
  <circle cx="391.77" cy="299.97" r="2.5" fill="#2563eb"/>
  <circle cx="393.44" cy="249.99" r="2.5" fill="#2563eb"/>
  <circle cx="395.12" cy="299.97" r="2.5" fill="#2563eb"/>
  <circle cx="396.80" cy="299.97" r="2.5" fill="#2563eb"/>
  <circle cx="398.47" cy="300.06" r="2.5" fill="#2563eb"/>
  <circle cx="400.15" cy="300.06" r="2.5" fill="#2563eb"/>
  <circle cx="401.82" cy="299.93" r="2.5" fill="#2563eb"/>
  <circle cx="403.50" cy="300.01" r="2.5" fill="#2563eb"/>
  <circle cx="405.17" cy="300.01" r="2.5" fill="#2563eb"/>
  <circle cx="406.85" cy="299.93" r="2.5" fill="#2563eb"/>
  <circle cx="408.53" cy="300.01" r="2.5" fill="#2563eb"/>
  <circle cx="410.20" cy="300.01" r="2.5" fill="#2563eb"/>
  <circle cx="411.88" cy="299.97" r="2.5" fill="#2563eb"/>
  <circle cx="413.55" cy="300.01" r="2.5" fill="#2563eb"/>
  <circle cx="415.23" cy="300.01" r="2.5" fill="#2563eb"/>
  <circle cx="416.91" cy="300.01" r="2.5" fill="#2563eb"/>
  <circle cx="418.58" cy="300.01" r="2.5" fill="#2563eb"/>
  <circle cx="420.26" cy="249.86" r="2.5" fill="#2563eb"/>
  <circle cx="421.93" cy="300.01" r="2.5" fill="#2563eb"/>
  <circle cx="423.61" cy="300.10" r="2.5" fill="#2563eb"/>
  <circle cx="425.29" cy="299.93" r="2.5" fill="#2563eb"/>
  <circle cx="426.96" cy="300.01" r="2.5" fill="#2563eb"/>
  <circle cx="428.64" cy="299.93" r="2.5" fill="#2563eb"/>
  <circle cx="430.31" cy="300.01" r="2.5" fill="#2563eb"/>
  <circle cx="431.99" cy="300.01" r="2.5" fill="#2563eb"/>
  <circle cx="433.66" cy="300.01" r="2.5" fill="#2563eb"/>
  <circle cx="435.34" cy="300.01" r="2.5" fill="#2563eb"/>
  <circle cx="437.02" cy="300.01" r="2.5" fill="#2563eb"/>
  <circle cx="438.69" cy="299.97" r="2.5" fill="#2563eb"/>
  <circle cx="440.37" cy="300.01" r="2.5" fill="#2563eb"/>
  <circle cx="442.04" cy="300.01" r="2.5" fill="#2563eb"/>
  <circle cx="443.72" cy="300.01" r="2.5" fill="#2563eb"/>
  <circle cx="445.40" cy="300.01" r="2.5" fill="#2563eb"/>
  <circle cx="447.07" cy="250.03" r="2.5" fill="#2563eb"/>
  <circle cx="448.75" cy="300.01" r="2.5" fill="#2563eb"/>
  <circle cx="450.42" cy="300.01" r="2.5" fill="#2563eb"/>
  <circle cx="452.10" cy="299.97" r="2.5" fill="#2563eb"/>
  <circle cx="453.78" cy="300.01" r="2.5" fill="#2563eb"/>
  <circle cx="455.45" cy="300.01" r="2.5" fill="#2563eb"/>
  <circle cx="457.13" cy="299.97" r="2.5" fill="#2563eb"/>
  <circle cx="458.80" cy="299.97" r="2.5" fill="#2563eb"/>
  <circle cx="460.48" cy="300.01" r="2.5" fill="#2563eb"/>
  <circle cx="462.15" cy="299.97" r="2.5" fill="#2563eb"/>
  <circle cx="463.83" cy="300.01" r="2.5" fill="#2563eb"/>
  <circle cx="465.51" cy="299.93" r="2.5" fill="#2563eb"/>
  <circle cx="467.18" cy="300.01" r="2.5" fill="#2563eb"/>
  <circle cx="468.86" cy="250.03" r="2.5" fill="#2563eb"/>
  <circle cx="470.53" cy="300.01" r="2.5" fill="#2563eb"/>
  <circle cx="472.21" cy="300.01" r="2.5" fill="#2563eb"/>
  <circle cx="473.89" cy="300.01" r="2.5" fill="#2563eb"/>
  <circle cx="475.56" cy="300.01" r="2.5" fill="#2563eb"/>
  <circle cx="477.24" cy="300.01" r="2.5" fill="#2563eb"/>
  <circle cx="478.91" cy="299.89" r="2.5" fill="#2563eb"/>
  <circle cx="480.59" cy="300.01" r="2.5" fill="#2563eb"/>
  <circle cx="482.27" cy="300.01" r="2.5" fill="#2563eb"/>
  <circle cx="483.94" cy="250.07" r="2.5" fill="#2563eb"/>
  <circle cx="485.62" cy="300.01" r="2.5" fill="#2563eb"/>
  <circle cx="487.29" cy="299.93" r="2.5" fill="#2563eb"/>
  <circle cx="488.97" cy="300.01" r="2.5" fill="#2563eb"/>
  <circle cx="490.64" cy="299.97" r="2.5" fill="#2563eb"/>
  <circle cx="492.32" cy="299.97" r="2.5" fill="#2563eb"/>
  <circle cx="494.00" cy="299.97" r="2.5" fill="#2563eb"/>
  <circle cx="495.67" cy="250.03" r="2.5" fill="#2563eb"/>
  <circle cx="497.35" cy="300.01" r="2.5" fill="#2563eb"/>
  <circle cx="499.02" cy="300.01" r="2.5" fill="#2563eb"/>
  <circle cx="500.70" cy="300.01" r="2.5" fill="#2563eb"/>
  <circle cx="502.38" cy="300.01" r="2.5" fill="#2563eb"/>
  <circle cx="504.05" cy="299.97" r="2.5" fill="#2563eb"/>
  <circle cx="505.73" cy="300.01" r="2.5" fill="#2563eb"/>
  <circle cx="507.40" cy="299.97" r="2.5" fill="#2563eb"/>
  <circle cx="509.08" cy="300.01" r="2.5" fill="#2563eb"/>
  <circle cx="510.76" cy="299.97" r="2.5" fill="#2563eb"/>
  <circle cx="512.43" cy="249.90" r="2.5" fill="#2563eb"/>
  <circle cx="514.11" cy="300.01" r="2.5" fill="#2563eb"/>
  <circle cx="515.78" cy="300.01" r="2.5" fill="#2563eb"/>
  <circle cx="517.46" cy="299.89" r="2.5" fill="#2563eb"/>
  <circle cx="519.13" cy="299.97" r="2.5" fill="#2563eb"/>
  <circle cx="520.81" cy="299.97" r="2.5" fill="#2563eb"/>
  <circle cx="522.49" cy="249.99" r="2.5" fill="#2563eb"/>
  <circle cx="524.16" cy="299.97" r="2.5" fill="#2563eb"/>
  <circle cx="525.84" cy="299.89" r="2.5" fill="#2563eb"/>
  <circle cx="527.51" cy="300.01" r="2.5" fill="#2563eb"/>
  <circle cx="529.19" cy="299.97" r="2.5" fill="#2563eb"/>
  <circle cx="530.87" cy="299.97" r="2.5" fill="#2563eb"/>
  <circle cx="532.54" cy="300.01" r="2.5" fill="#2563eb"/>
  <circle cx="534.22" cy="299.97" r="2.5" fill="#2563eb"/>
  <circle cx="535.89" cy="249.99" r="2.5" fill="#2563eb"/>
  <circle cx="537.57" cy="299.97" r="2.5" fill="#2563eb"/>
  <circle cx="539.24" cy="299.97" r="2.5" fill="#2563eb"/>
  <circle cx="540.92" cy="300.06" r="2.5" fill="#2563eb"/>
  <circle cx="542.60" cy="300.06" r="2.5" fill="#2563eb"/>
  <circle cx="544.27" cy="249.94" r="2.5" fill="#2563eb"/>
  <circle cx="545.95" cy="300.01" r="2.5" fill="#2563eb"/>
  <circle cx="547.62" cy="299.93" r="2.5" fill="#2563eb"/>
  <circle cx="549.30" cy="300.01" r="2.5" fill="#2563eb"/>
  <circle cx="550.98" cy="300.01" r="2.5" fill="#2563eb"/>
  <circle cx="552.65" cy="249.99" r="2.5" fill="#2563eb"/>
  <circle cx="554.33" cy="300.01" r="2.5" fill="#2563eb"/>
  <circle cx="556.00" cy="300.01" r="2.5" fill="#2563eb"/>
  <circle cx="557.68" cy="300.01" r="2.5" fill="#2563eb"/>
  <circle cx="559.36" cy="299.93" r="2.5" fill="#2563eb"/>
  <circle cx="561.03" cy="299.93" r="2.5" fill="#2563eb"/>
  <circle cx="562.71" cy="300.01" r="2.5" fill="#2563eb"/>
  <circle cx="564.38" cy="300.01" r="2.5" fill="#2563eb"/>
  <circle cx="566.06" cy="249.94" r="2.5" fill="#2563eb"/>
  <circle cx="567.73" cy="299.97" r="2.5" fill="#2563eb"/>
  <circle cx="569.41" cy="299.97" r="2.5" fill="#2563eb"/>
  <circle cx="571.09" cy="300.01" r="2.5" fill="#2563eb"/>
  <circle cx="572.76" cy="300.01" r="2.5" fill="#2563eb"/>
  <circle cx="574.44" cy="300.01" r="2.5" fill="#2563eb"/>
  <circle cx="576.11" cy="249.99" r="2.5" fill="#2563eb"/>
  <circle cx="577.79" cy="300.01" r="2.5" fill="#2563eb"/>
  <circle cx="579.47" cy="300.01" r="2.5" fill="#2563eb"/>
  <circle cx="581.14" cy="300.01" r="2.5" fill="#2563eb"/>
  <circle cx="582.82" cy="250.03" r="2.5" fill="#2563eb"/>
  <circle cx="584.49" cy="300.01" r="2.5" fill="#2563eb"/>
  <circle cx="586.17" cy="300.01" r="2.5" fill="#2563eb"/>
  <circle cx="587.85" cy="300.01" r="2.5" fill="#2563eb"/>
  <circle cx="589.52" cy="299.97" r="2.5" fill="#2563eb"/>
  <circle cx="591.20" cy="300.01" r="2.5" fill="#2563eb"/>
  <circle cx="592.87" cy="300.01" r="2.5" fill="#2563eb"/>
  <circle cx="594.55" cy="299.97" r="2.5" fill="#2563eb"/>
  <circle cx="596.22" cy="299.97" r="2.5" fill="#2563eb"/>
  <circle cx="597.90" cy="300.01" r="2.5" fill="#2563eb"/>
  <circle cx="599.58" cy="300.01" r="2.5" fill="#2563eb"/>
  <circle cx="601.25" cy="299.97" r="2.5" fill="#2563eb"/>
  <circle cx="602.93" cy="299.93" r="2.5" fill="#2563eb"/>
  <circle cx="604.60" cy="300.01" r="2.5" fill="#2563eb"/>
  <circle cx="606.28" cy="300.06" r="2.5" fill="#2563eb"/>
  <circle cx="607.96" cy="299.97" r="2.5" fill="#2563eb"/>
  <circle cx="609.63" cy="300.01" r="2.5" fill="#2563eb"/>
  <circle cx="611.31" cy="250.03" r="2.5" fill="#2563eb"/>
  <circle cx="612.98" cy="250.03" r="2.5" fill="#2563eb"/>
  <circle cx="614.66" cy="299.93" r="2.5" fill="#2563eb"/>
  <circle cx="616.34" cy="299.97" r="2.5" fill="#2563eb"/>
  <circle cx="618.01" cy="300.01" r="2.5" fill="#2563eb"/>
  <circle cx="619.69" cy="300.01" r="2.5" fill="#2563eb"/>
  <circle cx="621.36" cy="300.06" r="2.5" fill="#2563eb"/>
  <circle cx="623.04" cy="300.01" r="2.5" fill="#2563eb"/>
  <circle cx="624.71" cy="299.93" r="2.5" fill="#2563eb"/>
  <circle cx="626.39" cy="300.01" r="2.5" fill="#2563eb"/>
  <circle cx="628.07" cy="300.01" r="2.5" fill="#2563eb"/>
  <circle cx="629.74" cy="299.97" r="2.5" fill="#2563eb"/>
  <circle cx="631.42" cy="299.97" r="2.5" fill="#2563eb"/>
  <circle cx="633.09" cy="300.01" r="2.5" fill="#2563eb"/>
  <circle cx="634.77" cy="250.03" r="2.5" fill="#2563eb"/>
  <circle cx="636.45" cy="300.01" r="2.5" fill="#2563eb"/>
  <circle cx="638.12" cy="300.01" r="2.5" fill="#2563eb"/>
  <circle cx="639.80" cy="300.01" r="2.5" fill="#2563eb"/>
  <circle cx="641.47" cy="299.97" r="2.5" fill="#2563eb"/>
  <circle cx="643.15" cy="300.01" r="2.5" fill="#2563eb"/>
  <circle cx="644.83" cy="299.97" r="2.5" fill="#2563eb"/>
  <circle cx="646.50" cy="300.01" r="2.5" fill="#2563eb"/>
  <circle cx="648.18" cy="299.97" r="2.5" fill="#2563eb"/>
  <circle cx="649.85" cy="299.97" r="2.5" fill="#2563eb"/>
  <circle cx="651.53" cy="299.93" r="2.5" fill="#2563eb"/>
  <circle cx="653.20" cy="300.01" r="2.5" fill="#2563eb"/>
  <circle cx="654.88" cy="300.01" r="2.5" fill="#2563eb"/>
  <circle cx="656.56" cy="299.89" r="2.5" fill="#2563eb"/>
  <circle cx="658.23" cy="299.97" r="2.5" fill="#2563eb"/>
  <circle cx="659.91" cy="299.97" r="2.5" fill="#2563eb"/>
  <circle cx="661.58" cy="300.06" r="2.5" fill="#2563eb"/>
  <circle cx="663.26" cy="249.90" r="2.5" fill="#2563eb"/>
  <circle cx="664.94" cy="299.89" r="2.5" fill="#2563eb"/>
  <circle cx="666.61" cy="300.01" r="2.5" fill="#2563eb"/>
  <circle cx="668.29" cy="299.97" r="2.5" fill="#2563eb"/>
  <circle cx="669.96" cy="299.97" r="2.5" fill="#2563eb"/>
  <circle cx="671.64" cy="299.97" r="2.5" fill="#2563eb"/>
  <circle cx="673.31" cy="300.01" r="2.5" fill="#2563eb"/>
  <circle cx="674.99" cy="300.01" r="2.5" fill="#2563eb"/>
  <circle cx="676.67" cy="299.97" r="2.5" fill="#2563eb"/>
  <circle cx="678.34" cy="299.97" r="2.5" fill="#2563eb"/>
  <circle cx="680.02" cy="299.97" r="2.5" fill="#2563eb"/>
  <circle cx="681.69" cy="250.03" r="2.5" fill="#2563eb"/>
  <circle cx="683.37" cy="299.93" r="2.5" fill="#2563eb"/>
  <circle cx="685.05" cy="300.01" r="2.5" fill="#2563eb"/>
  <circle cx="686.72" cy="300.01" r="2.5" fill="#2563eb"/>
  <circle cx="688.40" cy="299.93" r="2.5" fill="#2563eb"/>
  <circle cx="690.07" cy="300.01" r="2.5" fill="#2563eb"/>
  <circle cx="691.75" cy="300.01" r="2.5" fill="#2563eb"/>
  <circle cx="693.43" cy="299.97" r="2.5" fill="#2563eb"/>
  <circle cx="695.10" cy="300.01" r="2.5" fill="#2563eb"/>
  <circle cx="696.78" cy="300.01" r="2.5" fill="#2563eb"/>
  <circle cx="698.45" cy="300.06" r="2.5" fill="#2563eb"/>
  <circle cx="700.13" cy="300.01" r="2.5" fill="#2563eb"/>
  <circle cx="701.80" cy="299.97" r="2.5" fill="#2563eb"/>
  <circle cx="703.48" cy="299.89" r="2.5" fill="#2563eb"/>
  <circle cx="705.16" cy="300.01" r="2.5" fill="#2563eb"/>
  <circle cx="706.83" cy="300.01" r="2.5" fill="#2563eb"/>
  <circle cx="708.51" cy="249.94" r="2.5" fill="#2563eb"/>
  <circle cx="710.18" cy="249.94" r="2.5" fill="#2563eb"/>
  <circle cx="711.86" cy="300.01" r="2.5" fill="#2563eb"/>
  <circle cx="713.54" cy="300.01" r="2.5" fill="#2563eb"/>
  <circle cx="715.21" cy="300.01" r="2.5" fill="#2563eb"/>
  <circle cx="716.89" cy="300.01" r="2.5" fill="#2563eb"/>
  <circle cx="718.56" cy="299.97" r="2.5" fill="#2563eb"/>
  <circle cx="720.24" cy="250.03" r="2.5" fill="#2563eb"/>
  <circle cx="721.92" cy="300.01" r="2.5" fill="#2563eb"/>
  <circle cx="723.59" cy="300.01" r="2.5" fill="#2563eb"/>
  <circle cx="725.27" cy="300.01" r="2.5" fill="#2563eb"/>
  <circle cx="726.94" cy="300.01" r="2.5" fill="#2563eb"/>
  <circle cx="728.62" cy="250.03" r="2.5" fill="#2563eb"/>
  <circle cx="730.29" cy="249.99" r="2.5" fill="#2563eb"/>
  <circle cx="731.97" cy="300.01" r="2.5" fill="#2563eb"/>
  <circle cx="733.65" cy="299.97" r="2.5" fill="#2563eb"/>
  <circle cx="735.32" cy="300.01" r="2.5" fill="#2563eb"/>
  <circle cx="737.00" cy="299.97" r="2.5" fill="#2563eb"/>
  <circle cx="738.67" cy="300.01" r="2.5" fill="#2563eb"/>
  <circle cx="740.35" cy="299.97" r="2.5" fill="#2563eb"/>
  <circle cx="742.03" cy="299.97" r="2.5" fill="#2563eb"/>
  <circle cx="743.70" cy="299.97" r="2.5" fill="#2563eb"/>
  <circle cx="745.38" cy="300.06" r="2.5" fill="#2563eb"/>
  <circle cx="747.05" cy="249.99" r="2.5" fill="#2563eb"/>
  <circle cx="748.73" cy="300.01" r="2.5" fill="#2563eb"/>
  <circle cx="750.41" cy="250.03" r="2.5" fill="#2563eb"/>
  <circle cx="752.08" cy="249.94" r="2.5" fill="#2563eb"/>
  <circle cx="753.76" cy="249.99" r="2.5" fill="#2563eb"/>
  <circle cx="755.43" cy="300.01" r="2.5" fill="#2563eb"/>
  <circle cx="757.11" cy="300.06" r="2.5" fill="#2563eb"/>
  <circle cx="758.78" cy="300.01" r="2.5" fill="#2563eb"/>
  <circle cx="760.46" cy="299.97" r="2.5" fill="#2563eb"/>
  <circle cx="762.14" cy="299.97" r="2.5" fill="#2563eb"/>
  <circle cx="763.81" cy="300.01" r="2.5" fill="#2563eb"/>
  <circle cx="765.49" cy="299.93" r="2.5" fill="#2563eb"/>
  <circle cx="767.16" cy="299.89" r="2.5" fill="#2563eb"/>
  <circle cx="768.84" cy="299.89" r="2.5" fill="#2563eb"/>
  <circle cx="770.52" cy="299.89" r="2.5" fill="#2563eb"/>
  <circle cx="772.19" cy="299.89" r="2.5" fill="#2563eb"/>
  <circle cx="773.87" cy="299.85" r="2.5" fill="#2563eb"/>
  <circle cx="775.54" cy="299.85" r="2.5" fill="#2563eb"/>
  <circle cx="777.22" cy="299.89" r="2.5" fill="#2563eb"/>
  <circle cx="778.90" cy="299.81" r="2.5" fill="#2563eb"/>
  <circle cx="780.57" cy="299.81" r="2.5" fill="#2563eb"/>
  <circle cx="782.25" cy="299.81" r="2.5" fill="#2563eb"/>
  <circle cx="783.92" cy="299.76" r="2.5" fill="#2563eb"/>
  <circle cx="785.60" cy="299.76" r="2.5" fill="#2563eb"/>
  <circle cx="787.27" cy="299.76" r="2.5" fill="#2563eb"/>
  <circle cx="788.95" cy="299.72" r="2.5" fill="#2563eb"/>
  <circle cx="790.63" cy="299.68" r="2.5" fill="#2563eb"/>
  <circle cx="792.30" cy="299.60" r="2.5" fill="#2563eb"/>
  <circle cx="793.98" cy="299.60" r="2.5" fill="#2563eb"/>
  <circle cx="795.65" cy="299.60" r="2.5" fill="#2563eb"/>
  <circle cx="797.33" cy="299.56" r="2.5" fill="#2563eb"/>
  <circle cx="799.01" cy="299.47" r="2.5" fill="#2563eb"/>
  <circle cx="800.68" cy="299.43" r="2.5" fill="#2563eb"/>
  <circle cx="802.36" cy="299.43" r="2.5" fill="#2563eb"/>
  <circle cx="804.03" cy="299.39" r="2.5" fill="#2563eb"/>
  <circle cx="805.71" cy="299.47" r="2.5" fill="#2563eb"/>
  <circle cx="807.38" cy="259.82" r="2.5" fill="#2563eb"/>
  <circle cx="809.06" cy="338.96" r="2.5" fill="#2563eb"/>
  <circle cx="810.74" cy="299.31" r="2.5" fill="#2563eb"/>
  <circle cx="812.41" cy="299.31" r="2.5" fill="#2563eb"/>
  <circle cx="814.09" cy="299.26" r="2.5" fill="#2563eb"/>
  <circle cx="815.76" cy="299.68" r="2.5" fill="#2563eb"/>
  <circle cx="817.44" cy="299.68" r="2.5" fill="#2563eb"/>
  <circle cx="819.12" cy="299.68" r="2.5" fill="#2563eb"/>
  <circle cx="820.79" cy="299.64" r="2.5" fill="#2563eb"/>
  <circle cx="822.47" cy="299.14" r="2.5" fill="#2563eb"/>
  <circle cx="824.14" cy="299.14" r="2.5" fill="#2563eb"/>
  <circle cx="825.82" cy="299.10" r="2.5" fill="#2563eb"/>
  <circle cx="827.50" cy="299.10" r="2.5" fill="#2563eb"/>
  <circle cx="829.17" cy="299.10" r="2.5" fill="#2563eb"/>
  <circle cx="830.85" cy="248.07" r="2.5" fill="#2563eb"/>
  <circle cx="832.52" cy="299.06" r="2.5" fill="#2563eb"/>
  <circle cx="834.20" cy="299.06" r="2.5" fill="#2563eb"/>
  <circle cx="835.87" cy="299.06" r="2.5" fill="#2563eb"/>
  <circle cx="837.55" cy="299.06" r="2.5" fill="#2563eb"/>
  <circle cx="839.23" cy="299.06" r="2.5" fill="#2563eb"/>
  <circle cx="840.90" cy="298.97" r="2.5" fill="#2563eb"/>
  <circle cx="842.58" cy="298.97" r="2.5" fill="#2563eb"/>
  <circle cx="844.25" cy="298.93" r="2.5" fill="#2563eb"/>
  <circle cx="845.93" cy="298.97" r="2.5" fill="#2563eb"/>
  <circle cx="847.61" cy="298.93" r="2.5" fill="#2563eb"/>
  <circle cx="849.28" cy="298.89" r="2.5" fill="#2563eb"/>
  <circle cx="850.96" cy="298.89" r="2.5" fill="#2563eb"/>
  <circle cx="852.63" cy="298.89" r="2.5" fill="#2563eb"/>
  <circle cx="854.31" cy="298.89" r="2.5" fill="#2563eb"/>
  <circle cx="855.99" cy="247.78" r="2.5" fill="#2563eb"/>
  <circle cx="857.66" cy="298.89" r="2.5" fill="#2563eb"/>
  <circle cx="859.34" cy="298.89" r="2.5" fill="#2563eb"/>
  <circle cx="861.01" cy="298.85" r="2.5" fill="#2563eb"/>
  <circle cx="862.69" cy="298.85" r="2.5" fill="#2563eb"/>
  <circle cx="864.36" cy="298.81" r="2.5" fill="#2563eb"/>
  <circle cx="866.04" cy="298.81" r="2.5" fill="#2563eb"/>
  <circle cx="867.72" cy="298.81" r="2.5" fill="#2563eb"/>
  <circle cx="869.39" cy="298.81" r="2.5" fill="#2563eb"/>
  <circle cx="871.07" cy="298.81" r="2.5" fill="#2563eb"/>
  <circle cx="872.74" cy="298.81" r="2.5" fill="#2563eb"/>
  <circle cx="874.42" cy="298.81" r="2.5" fill="#2563eb"/>
  <circle cx="876.10" cy="298.81" r="2.5" fill="#2563eb"/>
  <circle cx="877.77" cy="298.81" r="2.5" fill="#2563eb"/>
  <circle cx="879.45" cy="298.72" r="2.5" fill="#2563eb"/>
  <circle cx="881.12" cy="247.45" r="2.5" fill="#2563eb"/>
  <circle cx="882.80" cy="247.45" r="2.5" fill="#2563eb"/>
  <circle cx="884.48" cy="298.72" r="2.5" fill="#2563eb"/>
  <circle cx="886.15" cy="298.72" r="2.5" fill="#2563eb"/>
  <circle cx="887.83" cy="298.72" r="2.5" fill="#2563eb"/>
  <circle cx="889.50" cy="298.72" r="2.5" fill="#2563eb"/>
  <circle cx="891.18" cy="298.72" r="2.5" fill="#2563eb"/>
  <circle cx="892.85" cy="298.72" r="2.5" fill="#2563eb"/>
  <circle cx="894.53" cy="247.36" r="2.5" fill="#2563eb"/>
  <circle cx="896.21" cy="298.68" r="2.5" fill="#2563eb"/>
  <circle cx="897.88" cy="247.36" r="2.5" fill="#2563eb"/>
  <circle cx="899.56" cy="247.36" r="2.5" fill="#2563eb"/>
  <circle cx="901.23" cy="247.36" r="2.5" fill="#2563eb"/>
  <circle cx="902.91" cy="298.68" r="2.5" fill="#2563eb"/>
  <circle cx="904.59" cy="298.68" r="2.5" fill="#2563eb"/>
  <circle cx="906.26" cy="298.68" r="2.5" fill="#2563eb"/>
  <circle cx="907.94" cy="298.68" r="2.5" fill="#2563eb"/>
  <circle cx="909.61" cy="298.68" r="2.5" fill="#2563eb"/>
  <circle cx="911.29" cy="341.67" r="2.5" fill="#2563eb"/>
  <circle cx="912.97" cy="307.01" r="2.5" fill="#2563eb"/>
  <circle cx="914.64" cy="298.68" r="2.5" fill="#2563eb"/>
  <circle cx="916.32" cy="298.68" r="2.5" fill="#2563eb"/>
  <circle cx="917.99" cy="298.68" r="2.5" fill="#2563eb"/>
  <circle cx="919.67" cy="247.36" r="2.5" fill="#2563eb"/>
  <circle cx="921.34" cy="298.64" r="2.5" fill="#2563eb"/>
  <circle cx="923.02" cy="247.36" r="2.5" fill="#2563eb"/>
  <circle cx="924.70" cy="247.28" r="2.5" fill="#2563eb"/>
  <circle cx="926.37" cy="247.20" r="2.5" fill="#2563eb"/>
  <circle cx="928.05" cy="298.60" r="2.5" fill="#2563eb"/>
  <circle cx="929.72" cy="298.60" r="2.5" fill="#2563eb"/>
  <circle cx="931.40" cy="247.03" r="2.5" fill="#2563eb"/>
  <circle cx="933.08" cy="298.51" r="2.5" fill="#2563eb"/>
  <circle cx="934.75" cy="298.51" r="2.5" fill="#2563eb"/>
  <circle cx="936.43" cy="298.51" r="2.5" fill="#2563eb"/>
  <circle cx="938.10" cy="298.51" r="2.5" fill="#2563eb"/>
  <circle cx="939.78" cy="298.51" r="2.5" fill="#2563eb"/>
  <circle cx="941.45" cy="298.51" r="2.5" fill="#2563eb"/>
  <circle cx="943.13" cy="298.51" r="2.5" fill="#2563eb"/>
  <circle cx="944.81" cy="298.51" r="2.5" fill="#2563eb"/>
  <circle cx="946.48" cy="298.51" r="2.5" fill="#2563eb"/>
  <circle cx="948.16" cy="298.51" r="2.5" fill="#2563eb"/>
  <circle cx="949.83" cy="298.51" r="2.5" fill="#2563eb"/>
  <circle cx="951.51" cy="298.51" r="2.5" fill="#2563eb"/>
  <circle cx="953.19" cy="298.51" r="2.5" fill="#2563eb"/>
  <circle cx="954.86" cy="298.51" r="2.5" fill="#2563eb"/>
  <circle cx="956.54" cy="298.51" r="2.5" fill="#2563eb"/>
  <circle cx="958.21" cy="298.51" r="2.5" fill="#2563eb"/>
  <circle cx="959.89" cy="298.51" r="2.5" fill="#2563eb"/>
  <circle cx="961.57" cy="298.51" r="2.5" fill="#2563eb"/>
  <circle cx="963.24" cy="298.51" r="2.5" fill="#2563eb"/>
  <circle cx="964.92" cy="298.51" r="2.5" fill="#2563eb"/>
  <circle cx="966.59" cy="298.51" r="2.5" fill="#2563eb"/>
  <circle cx="968.27" cy="298.51" r="2.5" fill="#2563eb"/>
  <circle cx="969.94" cy="298.51" r="2.5" fill="#2563eb"/>
  <circle cx="971.62" cy="298.51" r="2.5" fill="#2563eb"/>
  <circle cx="973.30" cy="298.51" r="2.5" fill="#2563eb"/>
  <circle cx="974.97" cy="298.51" r="2.5" fill="#2563eb"/>
  <circle cx="976.65" cy="298.47" r="2.5" fill="#2563eb"/>
  <circle cx="978.32" cy="298.51" r="2.5" fill="#2563eb"/>
  <circle cx="980.00" cy="298.51" r="2.5" fill="#2563eb"/>
</svg>
