<?xml version="1.0" encoding="UTF-8"?>
<svg xmlns="http://www.w3.org/2000/svg" width="1000" height="420" viewBox="0 0 1000 420">
  <rect width="100%" height="100%" fill="#ffffff"/>
  <text x="70" y="28" font-size="20" font-weight="600">수집 시점 기준 - 시간별 스냅샷</text>
  <text x="70" y="402" font-size="12" fill="#555">스냅샷 수</text>
  <line x1="70" y1="350.00" x2="980" y2="350.00" stroke="#e5e7eb" stroke-width="1"/>
  <text x="62" y="354.00" font-size="11" fill="#6b7280" text-anchor="end">0</text>
  <line x1="70" y1="290.00" x2="980" y2="290.00" stroke="#e5e7eb" stroke-width="1"/>
  <text x="62" y="294.00" font-size="11" fill="#6b7280" text-anchor="end">1,440</text>
  <line x1="70" y1="230.00" x2="980" y2="230.00" stroke="#e5e7eb" stroke-width="1"/>
  <text x="62" y="234.00" font-size="11" fill="#6b7280" text-anchor="end">2,880</text>
  <line x1="70" y1="170.00" x2="980" y2="170.00" stroke="#e5e7eb" stroke-width="1"/>
  <text x="62" y="174.00" font-size="11" fill="#6b7280" text-anchor="end">4,321</text>
  <line x1="70" y1="110.00" x2="980" y2="110.00" stroke="#e5e7eb" stroke-width="1"/>
  <text x="62" y="114.00" font-size="11" fill="#6b7280" text-anchor="end">5,761</text>
  <line x1="70" y1="50.00" x2="980" y2="50.00" stroke="#e5e7eb" stroke-width="1"/>
  <text x="62" y="54.00" font-size="11" fill="#6b7280" text-anchor="end">7,202</text>
  <line x1="70" y1="350" x2="980" y2="350" stroke="#111827" stroke-width="1.2"/>
  <line x1="70" y1="50" x2="70" y2="350" stroke="#111827" stroke-width="1.2"/>
  <line x1="70.00" y1="350" x2="70.00" y2="356" stroke="#9ca3af" stroke-width="1"/>
  <text x="70.00" y="372" font-size="10" fill="#6b7280" text-anchor="middle">2026-02-28 18</text>
  <line x1="144.94" y1="350" x2="144.94" y2="356" stroke="#9ca3af" stroke-width="1"/>
  <text x="144.94" y="372" font-size="10" fill="#6b7280" text-anchor="middle">2026-03-09 04</text>
  <line x1="219.88" y1="350" x2="219.88" y2="356" stroke="#9ca3af" stroke-width="1"/>
  <text x="219.88" y="372" font-size="10" fill="#6b7280" text-anchor="middle">2026-03-11 10</text>
  <line x1="294.82" y1="350" x2="294.82" y2="356" stroke="#9ca3af" stroke-width="1"/>
  <text x="294.82" y="372" font-size="10" fill="#6b7280" text-anchor="middle">2026-03-13 16</text>
  <line x1="369.76" y1="350" x2="369.76" y2="356" stroke="#9ca3af" stroke-width="1"/>
  <text x="369.76" y="372" font-size="10" fill="#6b7280" text-anchor="middle">2026-03-16 07</text>
  <line x1="444.71" y1="350" x2="444.71" y2="356" stroke="#9ca3af" stroke-width="1"/>
  <text x="444.71" y="372" font-size="10" fill="#6b7280" text-anchor="middle">2026-03-19 18</text>
  <line x1="519.65" y1="350" x2="519.65" y2="356" stroke="#9ca3af" stroke-width="1"/>
  <text x="519.65" y="372" font-size="10" fill="#6b7280" text-anchor="middle">2026-03-22 14</text>
  <line x1="594.59" y1="350" x2="594.59" y2="356" stroke="#9ca3af" stroke-width="1"/>
  <text x="594.59" y="372" font-size="10" fill="#6b7280" text-anchor="middle">2026-03-25 18</text>
  <line x1="669.53" y1="350" x2="669.53" y2="356" stroke="#9ca3af" stroke-width="1"/>
  <text x="669.53" y="372" font-size="10" fill="#6b7280" text-anchor="middle">2026-03-29 00</text>
  <line x1="744.47" y1="350" x2="744.47" y2="356" stroke="#9ca3af" stroke-width="1"/>
  <text x="744.47" y="372" font-size="10" fill="#6b7280" text-anchor="middle">2026-04-01 09</text>
  <line x1="819.41" y1="350" x2="819.41" y2="356" stroke="#9ca3af" stroke-width="1"/>
  <text x="819.41" y="372" font-size="10" fill="#6b7280" text-anchor="middle">2026-04-04 18</text>
  <line x1="894.35" y1="350" x2="894.35" y2="356" stroke="#9ca3af" stroke-width="1"/>
  <text x="894.35" y="372" font-size="10" fill="#6b7280" text-anchor="middle">2026-04-08 03</text>
  <line x1="969.29" y1="350" x2="969.29" y2="356" stroke="#9ca3af" stroke-width="1"/>
  <text x="969.29" y="372" font-size="10" fill="#6b7280" text-anchor="middle">2026-04-11 12</text>
  <line x1="980.00" y1="350" x2="980.00" y2="356" stroke="#9ca3af" stroke-width="1"/>
  <text x="980.00" y="372" font-size="10" fill="#6b7280" text-anchor="middle">2026-04-11 22</text>
  <polyline fill="none" stroke="#2563eb" stroke-width="2.5" points="70.00,50.00 71.53,50.12 73.06,50.17 74.59,50.46 76.12,50.00 77.65,266.90 79.18,50.12 80.71,50.08 82.24,177.46 83.76,211.58 85.29,175.34 86.82,304.14 88.35,200.46 89.88,250.94 91.41,300.01 92.94,300.06 94.47,300.01 96.00,300.01 97.53,348.00 99.06,300.01 100.59,249.99 102.12,200.00 103.65,249.99 105.18,249.99 106.71,250.03 108.24,250.03 109.76,250.03 111.29,250.40 112.82,250.90 114.35,250.90 115.88,251.32 117.41,249.94 118.94,300.01 120.47,299.93 122.00,251.03 123.53,300.68 125.06,250.03 126.59,200.00 128.12,249.99 129.65,250.03 131.18,250.03 132.71,250.03 134.24,300.01 135.76,200.04 137.29,250.03 138.82,250.03 140.35,250.03 141.88,249.90 143.41,250.03 144.94,250.03 146.47,250.94 148.00,250.44 149.53,250.03 151.06,250.03 152.59,300.47 154.12,300.01 155.65,300.43 157.18,250.03 158.71,249.99 160.24,300.43 161.76,249.90 163.29,249.99 164.82,249.99 166.35,200.04 167.88,300.01 169.41,300.01 170.94,300.01 172.47,249.90 174.00,300.01 175.53,250.03 177.06,249.99 178.59,199.96 180.12,300.01 181.65,200.00 183.18,250.36 184.71,250.03 186.24,300.01 187.76,300.01 189.29,250.44 190.82,300.01 192.35,250.03 193.88,250.03 195.41,249.99 196.94,250.49 198.47,250.03 200.00,200.04 201.53,300.01 203.06,250.03 204.59,300.01 206.12,250.11 207.65,300.01 209.18,250.03 210.71,250.03 212.24,199.92 213.76,250.03 215.29,250.03 216.82,250.03 218.35,254.36 219.88,300.01 221.41,299.97 222.94,250.36 224.47,299.97 226.00,250.03 227.53,250.03 229.06,250.03 230.59,250.03 232.12,249.99 233.65,200.00 235.18,299.93 236.71,300.01 238.24,299.97 239.76,249.94 241.29,249.99 242.82,249.82 244.35,249.94 245.88,250.28 247.41,207.00 248.94,250.03 250.47,250.32 252.00,250.40 253.53,300.93 255.06,300.01 256.59,300.10 258.12,249.94 259.65,249.99 261.18,250.07 262.71,249.99 264.24,250.03 265.76,249.94 267.29,200.00 268.82,300.39 270.35,300.01 271.88,300.01 273.41,250.44 274.94,300.39 276.47,249.86 278.00,250.11 279.53,201.46 281.06,300.01 282.59,200.83 284.12,250.03 285.65,249.99 287.18,300.26 288.71,300.01 290.24,300.01 291.76,250.03 293.29,250.03 294.82,250.03 296.35,250.03 297.88,249.99 299.41,250.03 300.94,200.00 302.47,300.26 304.00,249.99 305.53,300.01 307.06,249.94 308.59,250.03 310.12,250.03 311.65,250.03 313.18,200.04 314.71,300.01 316.24,249.90 317.76,300.01 319.29,300.01 320.82,300.06 322.35,300.01 323.88,300.01 325.41,243.95 326.94,249.94 328.47,299.97 330.00,300.01 331.53,300.01 333.06,250.03 334.59,300.01 336.12,300.01 337.65,299.97 339.18,249.99 340.71,300.01 342.24,299.93 343.76,300.01 345.29,299.93 346.82,300.01 348.35,300.01 349.88,299.89 351.41,299.97 352.94,250.03 354.47,299.93 356.00,299.89 357.53,299.97 359.06,249.94 360.59,300.01 362.12,300.01 363.65,299.97 365.18,249.99 366.71,299.97 368.24,299.97 369.76,300.06 371.29,300.06 372.82,299.93 374.35,300.01 375.88,300.01 377.41,299.93 378.94,300.01 380.47,300.01 382.00,299.97 383.53,300.01 385.06,300.01 386.59,300.01 388.12,300.01 389.65,249.86 391.18,300.01 392.71,300.10 394.24,299.93 395.76,300.01 397.29,299.93 398.82,300.01 400.35,300.01 401.88,300.01 403.41,300.01 404.94,300.01 406.47,299.97 408.00,300.01 409.53,300.01 411.06,300.01 412.59,300.01 414.12,250.03 415.65,300.01 417.18,300.01 418.71,299.97 420.24,300.01 421.76,300.01 423.29,299.97 424.82,299.97 426.35,300.01 427.88,299.97 429.41,300.01 430.94,299.93 432.47,300.01 434.00,250.03 435.53,300.01 437.06,300.01 438.59,300.01 440.12,300.01 441.65,300.01 443.18,299.89 444.71,300.01 446.24,300.01 447.76,250.07 449.29,300.01 450.82,299.93 452.35,300.01 453.88,299.97 455.41,299.97 456.94,299.97 458.47,250.03 460.00,300.01 461.53,300.01 463.06,300.01 464.59,300.01 466.12,299.97 467.65,300.01 469.18,299.97 470.71,300.01 472.24,299.97 473.76,249.90 475.29,300.01 476.82,300.01 478.35,299.89 479.88,299.97 481.41,299.97 482.94,249.99 484.47,299.97 486.00,299.89 487.53,300.01 489.06,299.97 490.59,299.97 492.12,300.01 493.65,299.97 495.18,249.99 496.71,299.97 498.24,299.97 499.76,300.06 501.29,300.06 502.82,249.94 504.35,300.01 505.88,299.93 507.41,300.01 508.94,300.01 510.47,249.99 512.00,300.01 513.53,300.01 515.06,300.01 516.59,299.93 518.12,299.93 519.65,300.01 521.18,300.01 522.71,249.94 524.24,299.97 525.76,299.97 527.29,300.01 528.82,300.01 530.35,300.01 531.88,249.99 533.41,300.01 534.94,300.01 536.47,300.01 538.00,250.03 539.53,300.01 541.06,300.01 542.59,300.01 544.12,299.97 545.65,300.01 547.18,300.01 548.71,299.97 550.24,299.97 551.76,300.01 553.29,300.01 554.82,299.97 556.35,299.93 557.88,300.01 559.41,300.06 560.94,299.97 562.47,300.01 564.00,250.03 565.53,250.03 567.06,299.93 568.59,299.97 570.12,300.01 571.65,300.01 573.18,300.06 574.71,300.01 576.24,299.93 577.76,300.01 579.29,300.01 580.82,299.97 582.35,299.97 583.88,300.01 585.41,250.03 586.94,300.01 588.47,300.01 590.00,300.01 591.53,299.97 593.06,300.01 594.59,299.97 596.12,300.01 597.65,299.97 599.18,299.97 600.71,299.93 602.24,300.01 603.76,300.01 605.29,299.89 606.82,299.97 608.35,299.97 609.88,300.06 611.41,249.90 612.94,299.89 614.47,300.01 616.00,299.97 617.53,299.97 619.06,299.97 620.59,300.01 622.12,300.01 623.65,299.97 625.18,299.97 626.71,299.97 628.24,250.03 629.76,299.93 631.29,300.01 632.82,300.01 634.35,299.93 635.88,300.01 637.41,300.01 638.94,299.97 640.47,300.01 642.00,300.01 643.53,300.06 645.06,300.01 646.59,299.97 648.12,299.89 649.65,300.01 651.18,300.01 652.71,249.94 654.24,249.94 655.76,300.01 657.29,300.01 658.82,300.01 660.35,300.01 661.88,299.97 663.41,250.03 664.94,300.01 666.47,300.01 668.00,300.01 669.53,300.01 671.06,250.03 672.59,249.99 674.12,300.01 675.65,299.97 677.18,300.01 678.71,299.97 680.24,300.01 681.76,299.97 683.29,299.97 684.82,299.97 686.35,300.06 687.88,249.99 689.41,300.01 690.94,250.03 692.47,249.94 694.00,249.99 695.53,300.01 697.06,300.06 698.59,300.01 700.12,299.97 701.65,299.97 703.18,300.01 704.71,299.93 706.24,299.89 707.76,299.89 709.29,299.89 710.82,299.89 712.35,299.85 713.88,299.85 715.41,299.89 716.94,299.81 718.47,299.81 720.00,299.81 721.53,299.76 723.06,299.76 724.59,299.76 726.12,299.72 727.65,299.68 729.18,299.60 730.71,299.60 732.24,299.60 733.76,299.56 735.29,299.47 736.82,299.43 738.35,299.43 739.88,299.39 741.41,299.47 742.94,259.82 744.47,338.96 746.00,299.31 747.53,299.31 749.06,299.26 750.59,299.68 752.12,299.68 753.65,299.68 755.18,299.64 756.71,299.14 758.24,299.14 759.76,299.10 761.29,299.10 762.82,299.10 764.35,248.07 765.88,299.06 767.41,299.06 768.94,299.06 770.47,299.06 772.00,299.06 773.53,298.97 775.06,298.97 776.59,298.93 778.12,298.97 779.65,298.93 781.18,298.89 782.71,298.89 784.24,298.89 785.76,298.89 787.29,247.78 788.82,298.89 790.35,298.89 791.88,298.85 793.41,298.85 794.94,298.81 796.47,298.81 798.00,298.81 799.53,298.81 801.06,298.81 802.59,298.81 804.12,298.81 805.65,298.81 807.18,298.81 808.71,298.72 810.24,247.45 811.76,247.45 813.29,298.72 814.82,298.72 816.35,298.72 817.88,298.72 819.41,298.72 820.94,298.72 822.47,247.36 824.00,298.68 825.53,247.36 827.06,247.36 828.59,247.36 830.12,298.68 831.65,298.68 833.18,298.68 834.71,298.68 836.24,298.68 837.76,341.67 839.29,307.01 840.82,298.68 842.35,298.68 843.88,298.68 845.41,247.36 846.94,298.64 848.47,247.36 850.00,247.28 851.53,247.20 853.06,298.60 854.59,298.60 856.12,247.03 857.65,298.51 859.18,298.51 860.71,298.51 862.24,298.51 863.76,298.51 865.29,298.51 866.82,298.51 868.35,298.51 869.88,298.51 871.41,298.51 872.94,298.51 874.47,298.51 876.00,298.51 877.53,298.51 879.06,298.51 880.59,298.51 882.12,298.51 883.65,298.51 885.18,298.51 886.71,298.51 888.24,298.51 889.76,298.51 891.29,298.51 892.82,298.51 894.35,298.51 895.88,298.51 897.41,298.47 898.94,298.51 900.47,298.51 902.00,298.47 903.53,298.51 905.06,298.47 906.59,298.51 908.12,298.43 909.65,298.56 911.18,298.43 912.71,298.43 914.24,298.43 915.76,298.43 917.29,298.43 918.82,298.43 920.35,298.43 921.88,298.43 923.41,298.43 924.94,298.43 926.47,298.43 928.00,298.43 929.53,298.43 931.06,298.43 932.59,298.43 934.12,298.43 935.65,298.43 937.18,298.43 938.71,298.43 940.24,298.43 941.76,298.43 943.29,298.43 944.82,298.43 946.35,298.43 947.88,298.43 949.41,298.43 950.94,298.43 952.47,298.43 954.00,298.43 955.53,298.43 957.06,298.43 958.59,298.43 960.12,298.43 961.65,298.43 963.18,298.39 964.71,298.39 966.24,298.43 967.76,298.43 969.29,298.39 970.82,298.39 972.35,298.39 973.88,298.43 975.41,298.43 976.94,298.43 978.47,246.82 980.00,298.43"/>
  <circle cx="70.00" cy="50.00" r="2.5" fill="#2563eb"/>
  <circle cx="71.53" cy="50.12" r="2.5" fill="#2563eb"/>
  <circle cx="73.06" cy="50.17" r="2.5" fill="#2563eb"/>
  <circle cx="74.59" cy="50.46" r="2.5" fill="#2563eb"/>
  <circle cx="76.12" cy="50.00" r="2.5" fill="#2563eb"/>
  <circle cx="77.65" cy="266.90" r="2.5" fill="#2563eb"/>
  <circle cx="79.18" cy="50.12" r="2.5" fill="#2563eb"/>
  <circle cx="80.71" cy="50.08" r="2.5" fill="#2563eb"/>
  <circle cx="82.24" cy="177.46" r="2.5" fill="#2563eb"/>
  <circle cx="83.76" cy="211.58" r="2.5" fill="#2563eb"/>
  <circle cx="85.29" cy="175.34" r="2.5" fill="#2563eb"/>
  <circle cx="86.82" cy="304.14" r="2.5" fill="#2563eb"/>
  <circle cx="88.35" cy="200.46" r="2.5" fill="#2563eb"/>
  <circle cx="89.88" cy="250.94" r="2.5" fill="#2563eb"/>
  <circle cx="91.41" cy="300.01" r="2.5" fill="#2563eb"/>
  <circle cx="92.94" cy="300.06" r="2.5" fill="#2563eb"/>
  <circle cx="94.47" cy="300.01" r="2.5" fill="#2563eb"/>
  <circle cx="96.00" cy="300.01" r="2.5" fill="#2563eb"/>
  <circle cx="97.53" cy="348.00" r="2.5" fill="#2563eb"/>
  <circle cx="99.06" cy="300.01" r="2.5" fill="#2563eb"/>
  <circle cx="100.59" cy="249.99" r="2.5" fill="#2563eb"/>
  <circle cx="102.12" cy="200.00" r="2.5" fill="#2563eb"/>
  <circle cx="103.65" cy="249.99" r="2.5" fill="#2563eb"/>
  <circle cx="105.18" cy="249.99" r="2.5" fill="#2563eb"/>
  <circle cx="106.71" cy="250.03" r="2.5" fill="#2563eb"/>
  <circle cx="108.24" cy="250.03" r="2.5" fill="#2563eb"/>
  <circle cx="109.76" cy="250.03" r="2.5" fill="#2563eb"/>
  <circle cx="111.29" cy="250.40" r="2.5" fill="#2563eb"/>
  <circle cx="112.82" cy="250.90" r="2.5" fill="#2563eb"/>
  <circle cx="114.35" cy="250.90" r="2.5" fill="#2563eb"/>
  <circle cx="115.88" cy="251.32" r="2.5" fill="#2563eb"/>
  <circle cx="117.41" cy="249.94" r="2.5" fill="#2563eb"/>
  <circle cx="118.94" cy="300.01" r="2.5" fill="#2563eb"/>
  <circle cx="120.47" cy="299.93" r="2.5" fill="#2563eb"/>
  <circle cx="122.00" cy="251.03" r="2.5" fill="#2563eb"/>
  <circle cx="123.53" cy="300.68" r="2.5" fill="#2563eb"/>
  <circle cx="125.06" cy="250.03" r="2.5" fill="#2563eb"/>
  <circle cx="126.59" cy="200.00" r="2.5" fill="#2563eb"/>
  <circle cx="128.12" cy="249.99" r="2.5" fill="#2563eb"/>
  <circle cx="129.65" cy="250.03" r="2.5" fill="#2563eb"/>
  <circle cx="131.18" cy="250.03" r="2.5" fill="#2563eb"/>
  <circle cx="132.71" cy="250.03" r="2.5" fill="#2563eb"/>
  <circle cx="134.24" cy="300.01" r="2.5" fill="#2563eb"/>
  <circle cx="135.76" cy="200.04" r="2.5" fill="#2563eb"/>
  <circle cx="137.29" cy="250.03" r="2.5" fill="#2563eb"/>
  <circle cx="138.82" cy="250.03" r="2.5" fill="#2563eb"/>
  <circle cx="140.35" cy="250.03" r="2.5" fill="#2563eb"/>
  <circle cx="141.88" cy="249.90" r="2.5" fill="#2563eb"/>
  <circle cx="143.41" cy="250.03" r="2.5" fill="#2563eb"/>
  <circle cx="144.94" cy="250.03" r="2.5" fill="#2563eb"/>
  <circle cx="146.47" cy="250.94" r="2.5" fill="#2563eb"/>
  <circle cx="148.00" cy="250.44" r="2.5" fill="#2563eb"/>
  <circle cx="149.53" cy="250.03" r="2.5" fill="#2563eb"/>
  <circle cx="151.06" cy="250.03" r="2.5" fill="#2563eb"/>
  <circle cx="152.59" cy="300.47" r="2.5" fill="#2563eb"/>
  <circle cx="154.12" cy="300.01" r="2.5" fill="#2563eb"/>
  <circle cx="155.65" cy="300.43" r="2.5" fill="#2563eb"/>
  <circle cx="157.18" cy="250.03" r="2.5" fill="#2563eb"/>
  <circle cx="158.71" cy="249.99" r="2.5" fill="#2563eb"/>
  <circle cx="160.24" cy="300.43" r="2.5" fill="#2563eb"/>
  <circle cx="161.76" cy="249.90" r="2.5" fill="#2563eb"/>
  <circle cx="163.29" cy="249.99" r="2.5" fill="#2563eb"/>
  <circle cx="164.82" cy="249.99" r="2.5" fill="#2563eb"/>
  <circle cx="166.35" cy="200.04" r="2.5" fill="#2563eb"/>
  <circle cx="167.88" cy="300.01" r="2.5" fill="#2563eb"/>
  <circle cx="169.41" cy="300.01" r="2.5" fill="#2563eb"/>
  <circle cx="170.94" cy="300.01" r="2.5" fill="#2563eb"/>
  <circle cx="172.47" cy="249.90" r="2.5" fill="#2563eb"/>
  <circle cx="174.00" cy="300.01" r="2.5" fill="#2563eb"/>
  <circle cx="175.53" cy="250.03" r="2.5" fill="#2563eb"/>
  <circle cx="177.06" cy="249.99" r="2.5" fill="#2563eb"/>
  <circle cx="178.59" cy="199.96" r="2.5" fill="#2563eb"/>
  <circle cx="180.12" cy="300.01" r="2.5" fill="#2563eb"/>
  <circle cx="181.65" cy="200.00" r="2.5" fill="#2563eb"/>
  <circle cx="183.18" cy="250.36" r="2.5" fill="#2563eb"/>
  <circle cx="184.71" cy="250.03" r="2.5" fill="#2563eb"/>
  <circle cx="186.24" cy="300.01" r="2.5" fill="#2563eb"/>
  <circle cx="187.76" cy="300.01" r="2.5" fill="#2563eb"/>
  <circle cx="189.29" cy="250.44" r="2.5" fill="#2563eb"/>
  <circle cx="190.82" cy="300.01" r="2.5" fill="#2563eb"/>
  <circle cx="192.35" cy="250.03" r="2.5" fill="#2563eb"/>
  <circle cx="193.88" cy="250.03" r="2.5" fill="#2563eb"/>
  <circle cx="195.41" cy="249.99" r="2.5" fill="#2563eb"/>
  <circle cx="196.94" cy="250.49" r="2.5" fill="#2563eb"/>
  <circle cx="198.47" cy="250.03" r="2.5" fill="#2563eb"/>
  <circle cx="200.00" cy="200.04" r="2.5" fill="#2563eb"/>
  <circle cx="201.53" cy="300.01" r="2.5" fill="#2563eb"/>
  <circle cx="203.06" cy="250.03" r="2.5" fill="#2563eb"/>
  <circle cx="204.59" cy="300.01" r="2.5" fill="#2563eb"/>
  <circle cx="206.12" cy="250.11" r="2.5" fill="#2563eb"/>
  <circle cx="207.65" cy="300.01" r="2.5" fill="#2563eb"/>
  <circle cx="209.18" cy="250.03" r="2.5" fill="#2563eb"/>
  <circle cx="210.71" cy="250.03" r="2.5" fill="#2563eb"/>
  <circle cx="212.24" cy="199.92" r="2.5" fill="#2563eb"/>
  <circle cx="213.76" cy="250.03" r="2.5" fill="#2563eb"/>
  <circle cx="215.29" cy="250.03" r="2.5" fill="#2563eb"/>
  <circle cx="216.82" cy="250.03" r="2.5" fill="#2563eb"/>
  <circle cx="218.35" cy="254.36" r="2.5" fill="#2563eb"/>
  <circle cx="219.88" cy="300.01" r="2.5" fill="#2563eb"/>
  <circle cx="221.41" cy="299.97" r="2.5" fill="#2563eb"/>
  <circle cx="222.94" cy="250.36" r="2.5" fill="#2563eb"/>
  <circle cx="224.47" cy="299.97" r="2.5" fill="#2563eb"/>
  <circle cx="226.00" cy="250.03" r="2.5" fill="#2563eb"/>
  <circle cx="227.53" cy="250.03" r="2.5" fill="#2563eb"/>
  <circle cx="229.06" cy="250.03" r="2.5" fill="#2563eb"/>
  <circle cx="230.59" cy="250.03" r="2.5" fill="#2563eb"/>
  <circle cx="232.12" cy="249.99" r="2.5" fill="#2563eb"/>
  <circle cx="233.65" cy="200.00" r="2.5" fill="#2563eb"/>
  <circle cx="235.18" cy="299.93" r="2.5" fill="#2563eb"/>
  <circle cx="236.71" cy="300.01" r="2.5" fill="#2563eb"/>
  <circle cx="238.24" cy="299.97" r="2.5" fill="#2563eb"/>
  <circle cx="239.76" cy="249.94" r="2.5" fill="#2563eb"/>
  <circle cx="241.29" cy="249.99" r="2.5" fill="#2563eb"/>
  <circle cx="242.82" cy="249.82" r="2.5" fill="#2563eb"/>
  <circle cx="244.35" cy="249.94" r="2.5" fill="#2563eb"/>
  <circle cx="245.88" cy="250.28" r="2.5" fill="#2563eb"/>
  <circle cx="247.41" cy="207.00" r="2.5" fill="#2563eb"/>
  <circle cx="248.94" cy="250.03" r="2.5" fill="#2563eb"/>
  <circle cx="250.47" cy="250.32" r="2.5" fill="#2563eb"/>
  <circle cx="252.00" cy="250.40" r="2.5" fill="#2563eb"/>
  <circle cx="253.53" cy="300.93" r="2.5" fill="#2563eb"/>
  <circle cx="255.06" cy="300.01" r="2.5" fill="#2563eb"/>
  <circle cx="256.59" cy="300.10" r="2.5" fill="#2563eb"/>
  <circle cx="258.12" cy="249.94" r="2.5" fill="#2563eb"/>
  <circle cx="259.65" cy="249.99" r="2.5" fill="#2563eb"/>
  <circle cx="261.18" cy="250.07" r="2.5" fill="#2563eb"/>
  <circle cx="262.71" cy="249.99" r="2.5" fill="#2563eb"/>
  <circle cx="264.24" cy="250.03" r="2.5" fill="#2563eb"/>
  <circle cx="265.76" cy="249.94" r="2.5" fill="#2563eb"/>
  <circle cx="267.29" cy="200.00" r="2.5" fill="#2563eb"/>
  <circle cx="268.82" cy="300.39" r="2.5" fill="#2563eb"/>
  <circle cx="270.35" cy="300.01" r="2.5" fill="#2563eb"/>
  <circle cx="271.88" cy="300.01" r="2.5" fill="#2563eb"/>
  <circle cx="273.41" cy="250.44" r="2.5" fill="#2563eb"/>
  <circle cx="274.94" cy="300.39" r="2.5" fill="#2563eb"/>
  <circle cx="276.47" cy="249.86" r="2.5" fill="#2563eb"/>
  <circle cx="278.00" cy="250.11" r="2.5" fill="#2563eb"/>
  <circle cx="279.53" cy="201.46" r="2.5" fill="#2563eb"/>
  <circle cx="281.06" cy="300.01" r="2.5" fill="#2563eb"/>
  <circle cx="282.59" cy="200.83" r="2.5" fill="#2563eb"/>
  <circle cx="284.12" cy="250.03" r="2.5" fill="#2563eb"/>
  <circle cx="285.65" cy="249.99" r="2.5" fill="#2563eb"/>
  <circle cx="287.18" cy="300.26" r="2.5" fill="#2563eb"/>
  <circle cx="288.71" cy="300.01" r="2.5" fill="#2563eb"/>
  <circle cx="290.24" cy="300.01" r="2.5" fill="#2563eb"/>
  <circle cx="291.76" cy="250.03" r="2.5" fill="#2563eb"/>
  <circle cx="293.29" cy="250.03" r="2.5" fill="#2563eb"/>
  <circle cx="294.82" cy="250.03" r="2.5" fill="#2563eb"/>
  <circle cx="296.35" cy="250.03" r="2.5" fill="#2563eb"/>
  <circle cx="297.88" cy="249.99" r="2.5" fill="#2563eb"/>
  <circle cx="299.41" cy="250.03" r="2.5" fill="#2563eb"/>
  <circle cx="300.94" cy="200.00" r="2.5" fill="#2563eb"/>
  <circle cx="302.47" cy="300.26" r="2.5" fill="#2563eb"/>
  <circle cx="304.00" cy="249.99" r="2.5" fill="#2563eb"/>
  <circle cx="305.53" cy="300.01" r="2.5" fill="#2563eb"/>
  <circle cx="307.06" cy="249.94" r="2.5" fill="#2563eb"/>
  <circle cx="308.59" cy="250.03" r="2.5" fill="#2563eb"/>
  <circle cx="310.12" cy="250.03" r="2.5" fill="#2563eb"/>
  <circle cx="311.65" cy="250.03" r="2.5" fill="#2563eb"/>
  <circle cx="313.18" cy="200.04" r="2.5" fill="#2563eb"/>
  <circle cx="314.71" cy="300.01" r="2.5" fill="#2563eb"/>
  <circle cx="316.24" cy="249.90" r="2.5" fill="#2563eb"/>
  <circle cx="317.76" cy="300.01" r="2.5" fill="#2563eb"/>
  <circle cx="319.29" cy="300.01" r="2.5" fill="#2563eb"/>
  <circle cx="320.82" cy="300.06" r="2.5" fill="#2563eb"/>
  <circle cx="322.35" cy="300.01" r="2.5" fill="#2563eb"/>
  <circle cx="323.88" cy="300.01" r="2.5" fill="#2563eb"/>
  <circle cx="325.41" cy="243.95" r="2.5" fill="#2563eb"/>
  <circle cx="326.94" cy="249.94" r="2.5" fill="#2563eb"/>
  <circle cx="328.47" cy="299.97" r="2.5" fill="#2563eb"/>
  <circle cx="330.00" cy="300.01" r="2.5" fill="#2563eb"/>
  <circle cx="331.53" cy="300.01" r="2.5" fill="#2563eb"/>
  <circle cx="333.06" cy="250.03" r="2.5" fill="#2563eb"/>
  <circle cx="334.59" cy="300.01" r="2.5" fill="#2563eb"/>
  <circle cx="336.12" cy="300.01" r="2.5" fill="#2563eb"/>
  <circle cx="337.65" cy="299.97" r="2.5" fill="#2563eb"/>
  <circle cx="339.18" cy="249.99" r="2.5" fill="#2563eb"/>
  <circle cx="340.71" cy="300.01" r="2.5" fill="#2563eb"/>
  <circle cx="342.24" cy="299.93" r="2.5" fill="#2563eb"/>
  <circle cx="343.76" cy="300.01" r="2.5" fill="#2563eb"/>
  <circle cx="345.29" cy="299.93" r="2.5" fill="#2563eb"/>
  <circle cx="346.82" cy="300.01" r="2.5" fill="#2563eb"/>
  <circle cx="348.35" cy="300.01" r="2.5" fill="#2563eb"/>
  <circle cx="349.88" cy="299.89" r="2.5" fill="#2563eb"/>
  <circle cx="351.41" cy="299.97" r="2.5" fill="#2563eb"/>
  <circle cx="352.94" cy="250.03" r="2.5" fill="#2563eb"/>
  <circle cx="354.47" cy="299.93" r="2.5" fill="#2563eb"/>
  <circle cx="356.00" cy="299.89" r="2.5" fill="#2563eb"/>
  <circle cx="357.53" cy="299.97" r="2.5" fill="#2563eb"/>
  <circle cx="359.06" cy="249.94" r="2.5" fill="#2563eb"/>
  <circle cx="360.59" cy="300.01" r="2.5" fill="#2563eb"/>
  <circle cx="362.12" cy="300.01" r="2.5" fill="#2563eb"/>
  <circle cx="363.65" cy="299.97" r="2.5" fill="#2563eb"/>
  <circle cx="365.18" cy="249.99" r="2.5" fill="#2563eb"/>
  <circle cx="366.71" cy="299.97" r="2.5" fill="#2563eb"/>
  <circle cx="368.24" cy="299.97" r="2.5" fill="#2563eb"/>
  <circle cx="369.76" cy="300.06" r="2.5" fill="#2563eb"/>
  <circle cx="371.29" cy="300.06" r="2.5" fill="#2563eb"/>
  <circle cx="372.82" cy="299.93" r="2.5" fill="#2563eb"/>
  <circle cx="374.35" cy="300.01" r="2.5" fill="#2563eb"/>
  <circle cx="375.88" cy="300.01" r="2.5" fill="#2563eb"/>
  <circle cx="377.41" cy="299.93" r="2.5" fill="#2563eb"/>
  <circle cx="378.94" cy="300.01" r="2.5" fill="#2563eb"/>
  <circle cx="380.47" cy="300.01" r="2.5" fill="#2563eb"/>
  <circle cx="382.00" cy="299.97" r="2.5" fill="#2563eb"/>
  <circle cx="383.53" cy="300.01" r="2.5" fill="#2563eb"/>
  <circle cx="385.06" cy="300.01" r="2.5" fill="#2563eb"/>
  <circle cx="386.59" cy="300.01" r="2.5" fill="#2563eb"/>
  <circle cx="388.12" cy="300.01" r="2.5" fill="#2563eb"/>
  <circle cx="389.65" cy="249.86" r="2.5" fill="#2563eb"/>
  <circle cx="391.18" cy="300.01" r="2.5" fill="#2563eb"/>
  <circle cx="392.71" cy="300.10" r="2.5" fill="#2563eb"/>
  <circle cx="394.24" cy="299.93" r="2.5" fill="#2563eb"/>
  <circle cx="395.76" cy="300.01" r="2.5" fill="#2563eb"/>
  <circle cx="397.29" cy="299.93" r="2.5" fill="#2563eb"/>
  <circle cx="398.82" cy="300.01" r="2.5" fill="#2563eb"/>
  <circle cx="400.35" cy="300.01" r="2.5" fill="#2563eb"/>
  <circle cx="401.88" cy="300.01" r="2.5" fill="#2563eb"/>
  <circle cx="403.41" cy="300.01" r="2.5" fill="#2563eb"/>
  <circle cx="404.94" cy="300.01" r="2.5" fill="#2563eb"/>
  <circle cx="406.47" cy="299.97" r="2.5" fill="#2563eb"/>
  <circle cx="408.00" cy="300.01" r="2.5" fill="#2563eb"/>
  <circle cx="409.53" cy="300.01" r="2.5" fill="#2563eb"/>
  <circle cx="411.06" cy="300.01" r="2.5" fill="#2563eb"/>
  <circle cx="412.59" cy="300.01" r="2.5" fill="#2563eb"/>
  <circle cx="414.12" cy="250.03" r="2.5" fill="#2563eb"/>
  <circle cx="415.65" cy="300.01" r="2.5" fill="#2563eb"/>
  <circle cx="417.18" cy="300.01" r="2.5" fill="#2563eb"/>
  <circle cx="418.71" cy="299.97" r="2.5" fill="#2563eb"/>
  <circle cx="420.24" cy="300.01" r="2.5" fill="#2563eb"/>
  <circle cx="421.76" cy="300.01" r="2.5" fill="#2563eb"/>
  <circle cx="423.29" cy="299.97" r="2.5" fill="#2563eb"/>
  <circle cx="424.82" cy="299.97" r="2.5" fill="#2563eb"/>
  <circle cx="426.35" cy="300.01" r="2.5" fill="#2563eb"/>
  <circle cx="427.88" cy="299.97" r="2.5" fill="#2563eb"/>
  <circle cx="429.41" cy="300.01" r="2.5" fill="#2563eb"/>
  <circle cx="430.94" cy="299.93" r="2.5" fill="#2563eb"/>
  <circle cx="432.47" cy="300.01" r="2.5" fill="#2563eb"/>
  <circle cx="434.00" cy="250.03" r="2.5" fill="#2563eb"/>
  <circle cx="435.53" cy="300.01" r="2.5" fill="#2563eb"/>
  <circle cx="437.06" cy="300.01" r="2.5" fill="#2563eb"/>
  <circle cx="438.59" cy="300.01" r="2.5" fill="#2563eb"/>
  <circle cx="440.12" cy="300.01" r="2.5" fill="#2563eb"/>
  <circle cx="441.65" cy="300.01" r="2.5" fill="#2563eb"/>
  <circle cx="443.18" cy="299.89" r="2.5" fill="#2563eb"/>
  <circle cx="444.71" cy="300.01" r="2.5" fill="#2563eb"/>
  <circle cx="446.24" cy="300.01" r="2.5" fill="#2563eb"/>
  <circle cx="447.76" cy="250.07" r="2.5" fill="#2563eb"/>
  <circle cx="449.29" cy="300.01" r="2.5" fill="#2563eb"/>
  <circle cx="450.82" cy="299.93" r="2.5" fill="#2563eb"/>
  <circle cx="452.35" cy="300.01" r="2.5" fill="#2563eb"/>
  <circle cx="453.88" cy="299.97" r="2.5" fill="#2563eb"/>
  <circle cx="455.41" cy="299.97" r="2.5" fill="#2563eb"/>
  <circle cx="456.94" cy="299.97" r="2.5" fill="#2563eb"/>
  <circle cx="458.47" cy="250.03" r="2.5" fill="#2563eb"/>
  <circle cx="460.00" cy="300.01" r="2.5" fill="#2563eb"/>
  <circle cx="461.53" cy="300.01" r="2.5" fill="#2563eb"/>
  <circle cx="463.06" cy="300.01" r="2.5" fill="#2563eb"/>
  <circle cx="464.59" cy="300.01" r="2.5" fill="#2563eb"/>
  <circle cx="466.12" cy="299.97" r="2.5" fill="#2563eb"/>
  <circle cx="467.65" cy="300.01" r="2.5" fill="#2563eb"/>
  <circle cx="469.18" cy="299.97" r="2.5" fill="#2563eb"/>
  <circle cx="470.71" cy="300.01" r="2.5" fill="#2563eb"/>
  <circle cx="472.24" cy="299.97" r="2.5" fill="#2563eb"/>
  <circle cx="473.76" cy="249.90" r="2.5" fill="#2563eb"/>
  <circle cx="475.29" cy="300.01" r="2.5" fill="#2563eb"/>
  <circle cx="476.82" cy="300.01" r="2.5" fill="#2563eb"/>
  <circle cx="478.35" cy="299.89" r="2.5" fill="#2563eb"/>
  <circle cx="479.88" cy="299.97" r="2.5" fill="#2563eb"/>
  <circle cx="481.41" cy="299.97" r="2.5" fill="#2563eb"/>
  <circle cx="482.94" cy="249.99" r="2.5" fill="#2563eb"/>
  <circle cx="484.47" cy="299.97" r="2.5" fill="#2563eb"/>
  <circle cx="486.00" cy="299.89" r="2.5" fill="#2563eb"/>
  <circle cx="487.53" cy="300.01" r="2.5" fill="#2563eb"/>
  <circle cx="489.06" cy="299.97" r="2.5" fill="#2563eb"/>
  <circle cx="490.59" cy="299.97" r="2.5" fill="#2563eb"/>
  <circle cx="492.12" cy="300.01" r="2.5" fill="#2563eb"/>
  <circle cx="493.65" cy="299.97" r="2.5" fill="#2563eb"/>
  <circle cx="495.18" cy="249.99" r="2.5" fill="#2563eb"/>
  <circle cx="496.71" cy="299.97" r="2.5" fill="#2563eb"/>
  <circle cx="498.24" cy="299.97" r="2.5" fill="#2563eb"/>
  <circle cx="499.76" cy="300.06" r="2.5" fill="#2563eb"/>
  <circle cx="501.29" cy="300.06" r="2.5" fill="#2563eb"/>
  <circle cx="502.82" cy="249.94" r="2.5" fill="#2563eb"/>
  <circle cx="504.35" cy="300.01" r="2.5" fill="#2563eb"/>
  <circle cx="505.88" cy="299.93" r="2.5" fill="#2563eb"/>
  <circle cx="507.41" cy="300.01" r="2.5" fill="#2563eb"/>
  <circle cx="508.94" cy="300.01" r="2.5" fill="#2563eb"/>
  <circle cx="510.47" cy="249.99" r="2.5" fill="#2563eb"/>
  <circle cx="512.00" cy="300.01" r="2.5" fill="#2563eb"/>
  <circle cx="513.53" cy="300.01" r="2.5" fill="#2563eb"/>
  <circle cx="515.06" cy="300.01" r="2.5" fill="#2563eb"/>
  <circle cx="516.59" cy="299.93" r="2.5" fill="#2563eb"/>
  <circle cx="518.12" cy="299.93" r="2.5" fill="#2563eb"/>
  <circle cx="519.65" cy="300.01" r="2.5" fill="#2563eb"/>
  <circle cx="521.18" cy="300.01" r="2.5" fill="#2563eb"/>
  <circle cx="522.71" cy="249.94" r="2.5" fill="#2563eb"/>
  <circle cx="524.24" cy="299.97" r="2.5" fill="#2563eb"/>
  <circle cx="525.76" cy="299.97" r="2.5" fill="#2563eb"/>
  <circle cx="527.29" cy="300.01" r="2.5" fill="#2563eb"/>
  <circle cx="528.82" cy="300.01" r="2.5" fill="#2563eb"/>
  <circle cx="530.35" cy="300.01" r="2.5" fill="#2563eb"/>
  <circle cx="531.88" cy="249.99" r="2.5" fill="#2563eb"/>
  <circle cx="533.41" cy="300.01" r="2.5" fill="#2563eb"/>
  <circle cx="534.94" cy="300.01" r="2.5" fill="#2563eb"/>
  <circle cx="536.47" cy="300.01" r="2.5" fill="#2563eb"/>
  <circle cx="538.00" cy="250.03" r="2.5" fill="#2563eb"/>
  <circle cx="539.53" cy="300.01" r="2.5" fill="#2563eb"/>
  <circle cx="541.06" cy="300.01" r="2.5" fill="#2563eb"/>
  <circle cx="542.59" cy="300.01" r="2.5" fill="#2563eb"/>
  <circle cx="544.12" cy="299.97" r="2.5" fill="#2563eb"/>
  <circle cx="545.65" cy="300.01" r="2.5" fill="#2563eb"/>
  <circle cx="547.18" cy="300.01" r="2.5" fill="#2563eb"/>
  <circle cx="548.71" cy="299.97" r="2.5" fill="#2563eb"/>
  <circle cx="550.24" cy="299.97" r="2.5" fill="#2563eb"/>
  <circle cx="551.76" cy="300.01" r="2.5" fill="#2563eb"/>
  <circle cx="553.29" cy="300.01" r="2.5" fill="#2563eb"/>
  <circle cx="554.82" cy="299.97" r="2.5" fill="#2563eb"/>
  <circle cx="556.35" cy="299.93" r="2.5" fill="#2563eb"/>
  <circle cx="557.88" cy="300.01" r="2.5" fill="#2563eb"/>
  <circle cx="559.41" cy="300.06" r="2.5" fill="#2563eb"/>
  <circle cx="560.94" cy="299.97" r="2.5" fill="#2563eb"/>
  <circle cx="562.47" cy="300.01" r="2.5" fill="#2563eb"/>
  <circle cx="564.00" cy="250.03" r="2.5" fill="#2563eb"/>
  <circle cx="565.53" cy="250.03" r="2.5" fill="#2563eb"/>
  <circle cx="567.06" cy="299.93" r="2.5" fill="#2563eb"/>
  <circle cx="568.59" cy="299.97" r="2.5" fill="#2563eb"/>
  <circle cx="570.12" cy="300.01" r="2.5" fill="#2563eb"/>
  <circle cx="571.65" cy="300.01" r="2.5" fill="#2563eb"/>
  <circle cx="573.18" cy="300.06" r="2.5" fill="#2563eb"/>
  <circle cx="574.71" cy="300.01" r="2.5" fill="#2563eb"/>
  <circle cx="576.24" cy="299.93" r="2.5" fill="#2563eb"/>
  <circle cx="577.76" cy="300.01" r="2.5" fill="#2563eb"/>
  <circle cx="579.29" cy="300.01" r="2.5" fill="#2563eb"/>
  <circle cx="580.82" cy="299.97" r="2.5" fill="#2563eb"/>
  <circle cx="582.35" cy="299.97" r="2.5" fill="#2563eb"/>
  <circle cx="583.88" cy="300.01" r="2.5" fill="#2563eb"/>
  <circle cx="585.41" cy="250.03" r="2.5" fill="#2563eb"/>
  <circle cx="586.94" cy="300.01" r="2.5" fill="#2563eb"/>
  <circle cx="588.47" cy="300.01" r="2.5" fill="#2563eb"/>
  <circle cx="590.00" cy="300.01" r="2.5" fill="#2563eb"/>
  <circle cx="591.53" cy="299.97" r="2.5" fill="#2563eb"/>
  <circle cx="593.06" cy="300.01" r="2.5" fill="#2563eb"/>
  <circle cx="594.59" cy="299.97" r="2.5" fill="#2563eb"/>
  <circle cx="596.12" cy="300.01" r="2.5" fill="#2563eb"/>
  <circle cx="597.65" cy="299.97" r="2.5" fill="#2563eb"/>
  <circle cx="599.18" cy="299.97" r="2.5" fill="#2563eb"/>
  <circle cx="600.71" cy="299.93" r="2.5" fill="#2563eb"/>
  <circle cx="602.24" cy="300.01" r="2.5" fill="#2563eb"/>
  <circle cx="603.76" cy="300.01" r="2.5" fill="#2563eb"/>
  <circle cx="605.29" cy="299.89" r="2.5" fill="#2563eb"/>
  <circle cx="606.82" cy="299.97" r="2.5" fill="#2563eb"/>
  <circle cx="608.35" cy="299.97" r="2.5" fill="#2563eb"/>
  <circle cx="609.88" cy="300.06" r="2.5" fill="#2563eb"/>
  <circle cx="611.41" cy="249.90" r="2.5" fill="#2563eb"/>
  <circle cx="612.94" cy="299.89" r="2.5" fill="#2563eb"/>
  <circle cx="614.47" cy="300.01" r="2.5" fill="#2563eb"/>
  <circle cx="616.00" cy="299.97" r="2.5" fill="#2563eb"/>
  <circle cx="617.53" cy="299.97" r="2.5" fill="#2563eb"/>
  <circle cx="619.06" cy="299.97" r="2.5" fill="#2563eb"/>
  <circle cx="620.59" cy="300.01" r="2.5" fill="#2563eb"/>
  <circle cx="622.12" cy="300.01" r="2.5" fill="#2563eb"/>
  <circle cx="623.65" cy="299.97" r="2.5" fill="#2563eb"/>
  <circle cx="625.18" cy="299.97" r="2.5" fill="#2563eb"/>
  <circle cx="626.71" cy="299.97" r="2.5" fill="#2563eb"/>
  <circle cx="628.24" cy="250.03" r="2.5" fill="#2563eb"/>
  <circle cx="629.76" cy="299.93" r="2.5" fill="#2563eb"/>
  <circle cx="631.29" cy="300.01" r="2.5" fill="#2563eb"/>
  <circle cx="632.82" cy="300.01" r="2.5" fill="#2563eb"/>
  <circle cx="634.35" cy="299.93" r="2.5" fill="#2563eb"/>
  <circle cx="635.88" cy="300.01" r="2.5" fill="#2563eb"/>
  <circle cx="637.41" cy="300.01" r="2.5" fill="#2563eb"/>
  <circle cx="638.94" cy="299.97" r="2.5" fill="#2563eb"/>
  <circle cx="640.47" cy="300.01" r="2.5" fill="#2563eb"/>
  <circle cx="642.00" cy="300.01" r="2.5" fill="#2563eb"/>
  <circle cx="643.53" cy="300.06" r="2.5" fill="#2563eb"/>
  <circle cx="645.06" cy="300.01" r="2.5" fill="#2563eb"/>
  <circle cx="646.59" cy="299.97" r="2.5" fill="#2563eb"/>
  <circle cx="648.12" cy="299.89" r="2.5" fill="#2563eb"/>
  <circle cx="649.65" cy="300.01" r="2.5" fill="#2563eb"/>
  <circle cx="651.18" cy="300.01" r="2.5" fill="#2563eb"/>
  <circle cx="652.71" cy="249.94" r="2.5" fill="#2563eb"/>
  <circle cx="654.24" cy="249.94" r="2.5" fill="#2563eb"/>
  <circle cx="655.76" cy="300.01" r="2.5" fill="#2563eb"/>
  <circle cx="657.29" cy="300.01" r="2.5" fill="#2563eb"/>
  <circle cx="658.82" cy="300.01" r="2.5" fill="#2563eb"/>
  <circle cx="660.35" cy="300.01" r="2.5" fill="#2563eb"/>
  <circle cx="661.88" cy="299.97" r="2.5" fill="#2563eb"/>
  <circle cx="663.41" cy="250.03" r="2.5" fill="#2563eb"/>
  <circle cx="664.94" cy="300.01" r="2.5" fill="#2563eb"/>
  <circle cx="666.47" cy="300.01" r="2.5" fill="#2563eb"/>
  <circle cx="668.00" cy="300.01" r="2.5" fill="#2563eb"/>
  <circle cx="669.53" cy="300.01" r="2.5" fill="#2563eb"/>
  <circle cx="671.06" cy="250.03" r="2.5" fill="#2563eb"/>
  <circle cx="672.59" cy="249.99" r="2.5" fill="#2563eb"/>
  <circle cx="674.12" cy="300.01" r="2.5" fill="#2563eb"/>
  <circle cx="675.65" cy="299.97" r="2.5" fill="#2563eb"/>
  <circle cx="677.18" cy="300.01" r="2.5" fill="#2563eb"/>
  <circle cx="678.71" cy="299.97" r="2.5" fill="#2563eb"/>
  <circle cx="680.24" cy="300.01" r="2.5" fill="#2563eb"/>
  <circle cx="681.76" cy="299.97" r="2.5" fill="#2563eb"/>
  <circle cx="683.29" cy="299.97" r="2.5" fill="#2563eb"/>
  <circle cx="684.82" cy="299.97" r="2.5" fill="#2563eb"/>
  <circle cx="686.35" cy="300.06" r="2.5" fill="#2563eb"/>
  <circle cx="687.88" cy="249.99" r="2.5" fill="#2563eb"/>
  <circle cx="689.41" cy="300.01" r="2.5" fill="#2563eb"/>
  <circle cx="690.94" cy="250.03" r="2.5" fill="#2563eb"/>
  <circle cx="692.47" cy="249.94" r="2.5" fill="#2563eb"/>
  <circle cx="694.00" cy="249.99" r="2.5" fill="#2563eb"/>
  <circle cx="695.53" cy="300.01" r="2.5" fill="#2563eb"/>
  <circle cx="697.06" cy="300.06" r="2.5" fill="#2563eb"/>
  <circle cx="698.59" cy="300.01" r="2.5" fill="#2563eb"/>
  <circle cx="700.12" cy="299.97" r="2.5" fill="#2563eb"/>
  <circle cx="701.65" cy="299.97" r="2.5" fill="#2563eb"/>
  <circle cx="703.18" cy="300.01" r="2.5" fill="#2563eb"/>
  <circle cx="704.71" cy="299.93" r="2.5" fill="#2563eb"/>
  <circle cx="706.24" cy="299.89" r="2.5" fill="#2563eb"/>
  <circle cx="707.76" cy="299.89" r="2.5" fill="#2563eb"/>
  <circle cx="709.29" cy="299.89" r="2.5" fill="#2563eb"/>
  <circle cx="710.82" cy="299.89" r="2.5" fill="#2563eb"/>
  <circle cx="712.35" cy="299.85" r="2.5" fill="#2563eb"/>
  <circle cx="713.88" cy="299.85" r="2.5" fill="#2563eb"/>
  <circle cx="715.41" cy="299.89" r="2.5" fill="#2563eb"/>
  <circle cx="716.94" cy="299.81" r="2.5" fill="#2563eb"/>
  <circle cx="718.47" cy="299.81" r="2.5" fill="#2563eb"/>
  <circle cx="720.00" cy="299.81" r="2.5" fill="#2563eb"/>
  <circle cx="721.53" cy="299.76" r="2.5" fill="#2563eb"/>
  <circle cx="723.06" cy="299.76" r="2.5" fill="#2563eb"/>
  <circle cx="724.59" cy="299.76" r="2.5" fill="#2563eb"/>
  <circle cx="726.12" cy="299.72" r="2.5" fill="#2563eb"/>
  <circle cx="727.65" cy="299.68" r="2.5" fill="#2563eb"/>
  <circle cx="729.18" cy="299.60" r="2.5" fill="#2563eb"/>
  <circle cx="730.71" cy="299.60" r="2.5" fill="#2563eb"/>
  <circle cx="732.24" cy="299.60" r="2.5" fill="#2563eb"/>
  <circle cx="733.76" cy="299.56" r="2.5" fill="#2563eb"/>
  <circle cx="735.29" cy="299.47" r="2.5" fill="#2563eb"/>
  <circle cx="736.82" cy="299.43" r="2.5" fill="#2563eb"/>
  <circle cx="738.35" cy="299.43" r="2.5" fill="#2563eb"/>
  <circle cx="739.88" cy="299.39" r="2.5" fill="#2563eb"/>
  <circle cx="741.41" cy="299.47" r="2.5" fill="#2563eb"/>
  <circle cx="742.94" cy="259.82" r="2.5" fill="#2563eb"/>
  <circle cx="744.47" cy="338.96" r="2.5" fill="#2563eb"/>
  <circle cx="746.00" cy="299.31" r="2.5" fill="#2563eb"/>
  <circle cx="747.53" cy="299.31" r="2.5" fill="#2563eb"/>
  <circle cx="749.06" cy="299.26" r="2.5" fill="#2563eb"/>
  <circle cx="750.59" cy="299.68" r="2.5" fill="#2563eb"/>
  <circle cx="752.12" cy="299.68" r="2.5" fill="#2563eb"/>
  <circle cx="753.65" cy="299.68" r="2.5" fill="#2563eb"/>
  <circle cx="755.18" cy="299.64" r="2.5" fill="#2563eb"/>
  <circle cx="756.71" cy="299.14" r="2.5" fill="#2563eb"/>
  <circle cx="758.24" cy="299.14" r="2.5" fill="#2563eb"/>
  <circle cx="759.76" cy="299.10" r="2.5" fill="#2563eb"/>
  <circle cx="761.29" cy="299.10" r="2.5" fill="#2563eb"/>
  <circle cx="762.82" cy="299.10" r="2.5" fill="#2563eb"/>
  <circle cx="764.35" cy="248.07" r="2.5" fill="#2563eb"/>
  <circle cx="765.88" cy="299.06" r="2.5" fill="#2563eb"/>
  <circle cx="767.41" cy="299.06" r="2.5" fill="#2563eb"/>
  <circle cx="768.94" cy="299.06" r="2.5" fill="#2563eb"/>
  <circle cx="770.47" cy="299.06" r="2.5" fill="#2563eb"/>
  <circle cx="772.00" cy="299.06" r="2.5" fill="#2563eb"/>
  <circle cx="773.53" cy="298.97" r="2.5" fill="#2563eb"/>
  <circle cx="775.06" cy="298.97" r="2.5" fill="#2563eb"/>
  <circle cx="776.59" cy="298.93" r="2.5" fill="#2563eb"/>
  <circle cx="778.12" cy="298.97" r="2.5" fill="#2563eb"/>
  <circle cx="779.65" cy="298.93" r="2.5" fill="#2563eb"/>
  <circle cx="781.18" cy="298.89" r="2.5" fill="#2563eb"/>
  <circle cx="782.71" cy="298.89" r="2.5" fill="#2563eb"/>
  <circle cx="784.24" cy="298.89" r="2.5" fill="#2563eb"/>
  <circle cx="785.76" cy="298.89" r="2.5" fill="#2563eb"/>
  <circle cx="787.29" cy="247.78" r="2.5" fill="#2563eb"/>
  <circle cx="788.82" cy="298.89" r="2.5" fill="#2563eb"/>
  <circle cx="790.35" cy="298.89" r="2.5" fill="#2563eb"/>
  <circle cx="791.88" cy="298.85" r="2.5" fill="#2563eb"/>
  <circle cx="793.41" cy="298.85" r="2.5" fill="#2563eb"/>
  <circle cx="794.94" cy="298.81" r="2.5" fill="#2563eb"/>
  <circle cx="796.47" cy="298.81" r="2.5" fill="#2563eb"/>
  <circle cx="798.00" cy="298.81" r="2.5" fill="#2563eb"/>
  <circle cx="799.53" cy="298.81" r="2.5" fill="#2563eb"/>
  <circle cx="801.06" cy="298.81" r="2.5" fill="#2563eb"/>
  <circle cx="802.59" cy="298.81" r="2.5" fill="#2563eb"/>
  <circle cx="804.12" cy="298.81" r="2.5" fill="#2563eb"/>
  <circle cx="805.65" cy="298.81" r="2.5" fill="#2563eb"/>
  <circle cx="807.18" cy="298.81" r="2.5" fill="#2563eb"/>
  <circle cx="808.71" cy="298.72" r="2.5" fill="#2563eb"/>
  <circle cx="810.24" cy="247.45" r="2.5" fill="#2563eb"/>
  <circle cx="811.76" cy="247.45" r="2.5" fill="#2563eb"/>
  <circle cx="813.29" cy="298.72" r="2.5" fill="#2563eb"/>
  <circle cx="814.82" cy="298.72" r="2.5" fill="#2563eb"/>
  <circle cx="816.35" cy="298.72" r="2.5" fill="#2563eb"/>
  <circle cx="817.88" cy="298.72" r="2.5" fill="#2563eb"/>
  <circle cx="819.41" cy="298.72" r="2.5" fill="#2563eb"/>
  <circle cx="820.94" cy="298.72" r="2.5" fill="#2563eb"/>
  <circle cx="822.47" cy="247.36" r="2.5" fill="#2563eb"/>
  <circle cx="824.00" cy="298.68" r="2.5" fill="#2563eb"/>
  <circle cx="825.53" cy="247.36" r="2.5" fill="#2563eb"/>
  <circle cx="827.06" cy="247.36" r="2.5" fill="#2563eb"/>
  <circle cx="828.59" cy="247.36" r="2.5" fill="#2563eb"/>
  <circle cx="830.12" cy="298.68" r="2.5" fill="#2563eb"/>
  <circle cx="831.65" cy="298.68" r="2.5" fill="#2563eb"/>
  <circle cx="833.18" cy="298.68" r="2.5" fill="#2563eb"/>
  <circle cx="834.71" cy="298.68" r="2.5" fill="#2563eb"/>
  <circle cx="836.24" cy="298.68" r="2.5" fill="#2563eb"/>
  <circle cx="837.76" cy="341.67" r="2.5" fill="#2563eb"/>
  <circle cx="839.29" cy="307.01" r="2.5" fill="#2563eb"/>
  <circle cx="840.82" cy="298.68" r="2.5" fill="#2563eb"/>
  <circle cx="842.35" cy="298.68" r="2.5" fill="#2563eb"/>
  <circle cx="843.88" cy="298.68" r="2.5" fill="#2563eb"/>
  <circle cx="845.41" cy="247.36" r="2.5" fill="#2563eb"/>
  <circle cx="846.94" cy="298.64" r="2.5" fill="#2563eb"/>
  <circle cx="848.47" cy="247.36" r="2.5" fill="#2563eb"/>
  <circle cx="850.00" cy="247.28" r="2.5" fill="#2563eb"/>
  <circle cx="851.53" cy="247.20" r="2.5" fill="#2563eb"/>
  <circle cx="853.06" cy="298.60" r="2.5" fill="#2563eb"/>
  <circle cx="854.59" cy="298.60" r="2.5" fill="#2563eb"/>
  <circle cx="856.12" cy="247.03" r="2.5" fill="#2563eb"/>
  <circle cx="857.65" cy="298.51" r="2.5" fill="#2563eb"/>
  <circle cx="859.18" cy="298.51" r="2.5" fill="#2563eb"/>
  <circle cx="860.71" cy="298.51" r="2.5" fill="#2563eb"/>
  <circle cx="862.24" cy="298.51" r="2.5" fill="#2563eb"/>
  <circle cx="863.76" cy="298.51" r="2.5" fill="#2563eb"/>
  <circle cx="865.29" cy="298.51" r="2.5" fill="#2563eb"/>
  <circle cx="866.82" cy="298.51" r="2.5" fill="#2563eb"/>
  <circle cx="868.35" cy="298.51" r="2.5" fill="#2563eb"/>
  <circle cx="869.88" cy="298.51" r="2.5" fill="#2563eb"/>
  <circle cx="871.41" cy="298.51" r="2.5" fill="#2563eb"/>
  <circle cx="872.94" cy="298.51" r="2.5" fill="#2563eb"/>
  <circle cx="874.47" cy="298.51" r="2.5" fill="#2563eb"/>
  <circle cx="876.00" cy="298.51" r="2.5" fill="#2563eb"/>
  <circle cx="877.53" cy="298.51" r="2.5" fill="#2563eb"/>
  <circle cx="879.06" cy="298.51" r="2.5" fill="#2563eb"/>
  <circle cx="880.59" cy="298.51" r="2.5" fill="#2563eb"/>
  <circle cx="882.12" cy="298.51" r="2.5" fill="#2563eb"/>
  <circle cx="883.65" cy="298.51" r="2.5" fill="#2563eb"/>
  <circle cx="885.18" cy="298.51" r="2.5" fill="#2563eb"/>
  <circle cx="886.71" cy="298.51" r="2.5" fill="#2563eb"/>
  <circle cx="888.24" cy="298.51" r="2.5" fill="#2563eb"/>
  <circle cx="889.76" cy="298.51" r="2.5" fill="#2563eb"/>
  <circle cx="891.29" cy="298.51" r="2.5" fill="#2563eb"/>
  <circle cx="892.82" cy="298.51" r="2.5" fill="#2563eb"/>
  <circle cx="894.35" cy="298.51" r="2.5" fill="#2563eb"/>
  <circle cx="895.88" cy="298.51" r="2.5" fill="#2563eb"/>
  <circle cx="897.41" cy="298.47" r="2.5" fill="#2563eb"/>
  <circle cx="898.94" cy="298.51" r="2.5" fill="#2563eb"/>
  <circle cx="900.47" cy="298.51" r="2.5" fill="#2563eb"/>
  <circle cx="902.00" cy="298.47" r="2.5" fill="#2563eb"/>
  <circle cx="903.53" cy="298.51" r="2.5" fill="#2563eb"/>
  <circle cx="905.06" cy="298.47" r="2.5" fill="#2563eb"/>
  <circle cx="906.59" cy="298.51" r="2.5" fill="#2563eb"/>
  <circle cx="908.12" cy="298.43" r="2.5" fill="#2563eb"/>
  <circle cx="909.65" cy="298.56" r="2.5" fill="#2563eb"/>
  <circle cx="911.18" cy="298.43" r="2.5" fill="#2563eb"/>
  <circle cx="912.71" cy="298.43" r="2.5" fill="#2563eb"/>
  <circle cx="914.24" cy="298.43" r="2.5" fill="#2563eb"/>
  <circle cx="915.76" cy="298.43" r="2.5" fill="#2563eb"/>
  <circle cx="917.29" cy="298.43" r="2.5" fill="#2563eb"/>
  <circle cx="918.82" cy="298.43" r="2.5" fill="#2563eb"/>
  <circle cx="920.35" cy="298.43" r="2.5" fill="#2563eb"/>
  <circle cx="921.88" cy="298.43" r="2.5" fill="#2563eb"/>
  <circle cx="923.41" cy="298.43" r="2.5" fill="#2563eb"/>
  <circle cx="924.94" cy="298.43" r="2.5" fill="#2563eb"/>
  <circle cx="926.47" cy="298.43" r="2.5" fill="#2563eb"/>
  <circle cx="928.00" cy="298.43" r="2.5" fill="#2563eb"/>
  <circle cx="929.53" cy="298.43" r="2.5" fill="#2563eb"/>
  <circle cx="931.06" cy="298.43" r="2.5" fill="#2563eb"/>
  <circle cx="932.59" cy="298.43" r="2.5" fill="#2563eb"/>
  <circle cx="934.12" cy="298.43" r="2.5" fill="#2563eb"/>
  <circle cx="935.65" cy="298.43" r="2.5" fill="#2563eb"/>
  <circle cx="937.18" cy="298.43" r="2.5" fill="#2563eb"/>
  <circle cx="938.71" cy="298.43" r="2.5" fill="#2563eb"/>
  <circle cx="940.24" cy="298.43" r="2.5" fill="#2563eb"/>
  <circle cx="941.76" cy="298.43" r="2.5" fill="#2563eb"/>
  <circle cx="943.29" cy="298.43" r="2.5" fill="#2563eb"/>
  <circle cx="944.82" cy="298.43" r="2.5" fill="#2563eb"/>
  <circle cx="946.35" cy="298.43" r="2.5" fill="#2563eb"/>
  <circle cx="947.88" cy="298.43" r="2.5" fill="#2563eb"/>
  <circle cx="949.41" cy="298.43" r="2.5" fill="#2563eb"/>
  <circle cx="950.94" cy="298.43" r="2.5" fill="#2563eb"/>
  <circle cx="952.47" cy="298.43" r="2.5" fill="#2563eb"/>
  <circle cx="954.00" cy="298.43" r="2.5" fill="#2563eb"/>
  <circle cx="955.53" cy="298.43" r="2.5" fill="#2563eb"/>
  <circle cx="957.06" cy="298.43" r="2.5" fill="#2563eb"/>
  <circle cx="958.59" cy="298.43" r="2.5" fill="#2563eb"/>
  <circle cx="960.12" cy="298.43" r="2.5" fill="#2563eb"/>
  <circle cx="961.65" cy="298.43" r="2.5" fill="#2563eb"/>
  <circle cx="963.18" cy="298.39" r="2.5" fill="#2563eb"/>
  <circle cx="964.71" cy="298.39" r="2.5" fill="#2563eb"/>
  <circle cx="966.24" cy="298.43" r="2.5" fill="#2563eb"/>
  <circle cx="967.76" cy="298.43" r="2.5" fill="#2563eb"/>
  <circle cx="969.29" cy="298.39" r="2.5" fill="#2563eb"/>
  <circle cx="970.82" cy="298.39" r="2.5" fill="#2563eb"/>
  <circle cx="972.35" cy="298.39" r="2.5" fill="#2563eb"/>
  <circle cx="973.88" cy="298.43" r="2.5" fill="#2563eb"/>
  <circle cx="975.41" cy="298.43" r="2.5" fill="#2563eb"/>
  <circle cx="976.94" cy="298.43" r="2.5" fill="#2563eb"/>
  <circle cx="978.47" cy="246.82" r="2.5" fill="#2563eb"/>
  <circle cx="980.00" cy="298.43" r="2.5" fill="#2563eb"/>
</svg>
