<?xml version="1.0" encoding="UTF-8"?>
<svg xmlns="http://www.w3.org/2000/svg" width="1000" height="420" viewBox="0 0 1000 420">
  <rect width="100%" height="100%" fill="#ffffff"/>
  <text x="70" y="28" font-size="20" font-weight="600">수집 시점 기준 - 시간별 스냅샷</text>
  <text x="70" y="402" font-size="12" fill="#555">스냅샷 수</text>
  <line x1="70" y1="350.00" x2="980" y2="350.00" stroke="#e5e7eb" stroke-width="1"/>
  <text x="62" y="354.00" font-size="11" fill="#6b7280" text-anchor="end">0</text>
  <line x1="70" y1="290.00" x2="980" y2="290.00" stroke="#e5e7eb" stroke-width="1"/>
  <text x="62" y="294.00" font-size="11" fill="#6b7280" text-anchor="end">1,440</text>
  <line x1="70" y1="230.00" x2="980" y2="230.00" stroke="#e5e7eb" stroke-width="1"/>
  <text x="62" y="234.00" font-size="11" fill="#6b7280" text-anchor="end">2,880</text>
  <line x1="70" y1="170.00" x2="980" y2="170.00" stroke="#e5e7eb" stroke-width="1"/>
  <text x="62" y="174.00" font-size="11" fill="#6b7280" text-anchor="end">4,321</text>
  <line x1="70" y1="110.00" x2="980" y2="110.00" stroke="#e5e7eb" stroke-width="1"/>
  <text x="62" y="114.00" font-size="11" fill="#6b7280" text-anchor="end">5,761</text>
  <line x1="70" y1="50.00" x2="980" y2="50.00" stroke="#e5e7eb" stroke-width="1"/>
  <text x="62" y="54.00" font-size="11" fill="#6b7280" text-anchor="end">7,202</text>
  <line x1="70" y1="350" x2="980" y2="350" stroke="#111827" stroke-width="1.2"/>
  <line x1="70" y1="50" x2="70" y2="350" stroke="#111827" stroke-width="1.2"/>
  <line x1="70.00" y1="350" x2="70.00" y2="356" stroke="#9ca3af" stroke-width="1"/>
  <text x="70.00" y="372" font-size="10" fill="#6b7280" text-anchor="middle">2026-02-28 18</text>
  <line x1="144.59" y1="350" x2="144.59" y2="356" stroke="#9ca3af" stroke-width="1"/>
  <text x="144.59" y="372" font-size="10" fill="#6b7280" text-anchor="middle">2026-03-08 19</text>
  <line x1="219.18" y1="350" x2="219.18" y2="356" stroke="#9ca3af" stroke-width="1"/>
  <text x="219.18" y="372" font-size="10" fill="#6b7280" text-anchor="middle">2026-03-10 15</text>
  <line x1="293.77" y1="350" x2="293.77" y2="356" stroke="#9ca3af" stroke-width="1"/>
  <text x="293.77" y="372" font-size="10" fill="#6b7280" text-anchor="middle">2026-03-12 10</text>
  <line x1="368.36" y1="350" x2="368.36" y2="356" stroke="#9ca3af" stroke-width="1"/>
  <text x="368.36" y="372" font-size="10" fill="#6b7280" text-anchor="middle">2026-03-14 05</text>
  <line x1="442.95" y1="350" x2="442.95" y2="356" stroke="#9ca3af" stroke-width="1"/>
  <text x="442.95" y="372" font-size="10" fill="#6b7280" text-anchor="middle">2026-03-16 16</text>
  <line x1="517.54" y1="350" x2="517.54" y2="356" stroke="#9ca3af" stroke-width="1"/>
  <text x="517.54" y="372" font-size="10" fill="#6b7280" text-anchor="middle">2026-03-19 08</text>
  <line x1="592.13" y1="350" x2="592.13" y2="356" stroke="#9ca3af" stroke-width="1"/>
  <text x="592.13" y="372" font-size="10" fill="#6b7280" text-anchor="middle">2026-03-21 18</text>
  <line x1="666.72" y1="350" x2="666.72" y2="356" stroke="#9ca3af" stroke-width="1"/>
  <text x="666.72" y="372" font-size="10" fill="#6b7280" text-anchor="middle">2026-03-24 03</text>
  <line x1="741.31" y1="350" x2="741.31" y2="356" stroke="#9ca3af" stroke-width="1"/>
  <text x="741.31" y="372" font-size="10" fill="#6b7280" text-anchor="middle">2026-03-26 21</text>
  <line x1="815.90" y1="350" x2="815.90" y2="356" stroke="#9ca3af" stroke-width="1"/>
  <text x="815.90" y="372" font-size="10" fill="#6b7280" text-anchor="middle">2026-03-29 14</text>
  <line x1="890.49" y1="350" x2="890.49" y2="356" stroke="#9ca3af" stroke-width="1"/>
  <text x="890.49" y="372" font-size="10" fill="#6b7280" text-anchor="middle">2026-04-01 08</text>
  <line x1="965.08" y1="350" x2="965.08" y2="356" stroke="#9ca3af" stroke-width="1"/>
  <text x="965.08" y="372" font-size="10" fill="#6b7280" text-anchor="middle">2026-04-04 02</text>
  <line x1="980.00" y1="350" x2="980.00" y2="356" stroke="#9ca3af" stroke-width="1"/>
  <text x="980.00" y="372" font-size="10" fill="#6b7280" text-anchor="middle">2026-04-04 15</text>
  <polyline fill="none" stroke="#2563eb" stroke-width="2.5" points="70.00,50.00 71.86,50.12 73.73,50.17 75.59,50.46 77.46,50.00 79.32,266.90 81.19,50.12 83.05,50.08 84.92,177.46 86.78,211.58 88.65,175.34 90.51,304.14 92.38,200.46 94.24,250.94 96.11,300.01 97.97,300.06 99.84,300.01 101.70,300.01 103.57,348.00 105.43,300.01 107.30,249.99 109.16,200.00 111.02,249.99 112.89,249.99 114.75,250.03 116.62,250.03 118.48,250.03 120.35,250.40 122.21,250.90 124.08,250.90 125.94,251.32 127.81,249.94 129.67,300.01 131.54,299.93 133.40,251.03 135.27,300.68 137.13,250.03 139.00,200.00 140.86,249.99 142.73,250.03 144.59,250.03 146.45,250.03 148.32,300.01 150.18,200.04 152.05,250.03 153.91,250.03 155.78,250.03 157.64,249.90 159.51,250.03 161.37,250.03 163.24,250.94 165.10,250.44 166.97,250.03 168.83,250.03 170.70,300.47 172.56,300.01 174.43,300.43 176.29,250.03 178.16,249.99 180.02,300.43 181.89,249.90 183.75,249.99 185.61,249.99 187.48,200.04 189.34,300.01 191.21,300.01 193.07,300.01 194.94,249.90 196.80,300.01 198.67,250.03 200.53,249.99 202.40,199.96 204.26,300.01 206.13,200.00 207.99,250.36 209.86,250.03 211.72,300.01 213.59,300.01 215.45,250.44 217.32,300.01 219.18,250.03 221.05,250.03 222.91,249.99 224.77,250.49 226.64,250.03 228.50,200.04 230.37,300.01 232.23,250.03 234.10,300.01 235.96,250.11 237.83,300.01 239.69,250.03 241.56,250.03 243.42,199.92 245.29,250.03 247.15,250.03 249.02,250.03 250.88,254.36 252.75,300.01 254.61,299.97 256.48,250.36 258.34,299.97 260.20,250.03 262.07,250.03 263.93,250.03 265.80,250.03 267.66,249.99 269.53,200.00 271.39,299.93 273.26,300.01 275.12,299.97 276.99,249.94 278.85,249.99 280.72,249.82 282.58,249.94 284.45,250.28 286.31,207.00 288.18,250.03 290.04,250.32 291.91,250.40 293.77,300.93 295.64,300.01 297.50,300.10 299.36,249.94 301.23,249.99 303.09,250.07 304.96,249.99 306.82,250.03 308.69,249.94 310.55,200.00 312.42,300.39 314.28,300.01 316.15,300.01 318.01,250.44 319.88,300.39 321.74,249.86 323.61,250.11 325.47,201.46 327.34,300.01 329.20,200.83 331.07,250.03 332.93,249.99 334.80,300.26 336.66,300.01 338.52,300.01 340.39,250.03 342.25,250.03 344.12,250.03 345.98,250.03 347.85,249.99 349.71,250.03 351.58,200.00 353.44,300.26 355.31,249.99 357.17,300.01 359.04,249.94 360.90,250.03 362.77,250.03 364.63,250.03 366.50,200.04 368.36,300.01 370.23,249.90 372.09,300.01 373.95,300.01 375.82,300.06 377.68,300.01 379.55,300.01 381.41,243.95 383.28,249.94 385.14,299.97 387.01,300.01 388.87,300.01 390.74,250.03 392.60,300.01 394.47,300.01 396.33,299.97 398.20,249.99 400.06,300.01 401.93,299.93 403.79,300.01 405.66,299.93 407.52,300.01 409.39,300.01 411.25,299.89 413.11,299.97 414.98,250.03 416.84,299.93 418.71,299.89 420.57,299.97 422.44,249.94 424.30,300.01 426.17,300.01 428.03,299.97 429.90,249.99 431.76,299.97 433.63,299.97 435.49,300.06 437.36,300.06 439.22,299.93 441.09,300.01 442.95,300.01 444.82,299.93 446.68,300.01 448.55,300.01 450.41,299.97 452.27,300.01 454.14,300.01 456.00,300.01 457.87,300.01 459.73,249.86 461.60,300.01 463.46,300.10 465.33,299.93 467.19,300.01 469.06,299.93 470.92,300.01 472.79,300.01 474.65,300.01 476.52,300.01 478.38,300.01 480.25,299.97 482.11,300.01 483.98,300.01 485.84,300.01 487.70,300.01 489.57,250.03 491.43,300.01 493.30,300.01 495.16,299.97 497.03,300.01 498.89,300.01 500.76,299.97 502.62,299.97 504.49,300.01 506.35,299.97 508.22,300.01 510.08,299.93 511.95,300.01 513.81,250.03 515.68,300.01 517.54,300.01 519.41,300.01 521.27,300.01 523.14,300.01 525.00,299.89 526.86,300.01 528.73,300.01 530.59,250.07 532.46,300.01 534.32,299.93 536.19,300.01 538.05,299.97 539.92,299.97 541.78,299.97 543.65,250.03 545.51,300.01 547.38,300.01 549.24,300.01 551.11,300.01 552.97,299.97 554.84,300.01 556.70,299.97 558.57,300.01 560.43,299.97 562.30,249.90 564.16,300.01 566.02,300.01 567.89,299.89 569.75,299.97 571.62,299.97 573.48,249.99 575.35,299.97 577.21,299.89 579.08,300.01 580.94,299.97 582.81,299.97 584.67,300.01 586.54,299.97 588.40,249.99 590.27,299.97 592.13,299.97 594.00,300.06 595.86,300.06 597.73,249.94 599.59,300.01 601.45,299.93 603.32,300.01 605.18,300.01 607.05,249.99 608.91,300.01 610.78,300.01 612.64,300.01 614.51,299.93 616.37,299.93 618.24,300.01 620.10,300.01 621.97,249.94 623.83,299.97 625.70,299.97 627.56,300.01 629.43,300.01 631.29,300.01 633.16,249.99 635.02,300.01 636.89,300.01 638.75,300.01 640.61,250.03 642.48,300.01 644.34,300.01 646.21,300.01 648.07,299.97 649.94,300.01 651.80,300.01 653.67,299.97 655.53,299.97 657.40,300.01 659.26,300.01 661.13,299.97 662.99,299.93 664.86,300.01 666.72,300.06 668.59,299.97 670.45,300.01 672.32,250.03 674.18,250.03 676.05,299.93 677.91,299.97 679.77,300.01 681.64,300.01 683.50,300.06 685.37,300.01 687.23,299.93 689.10,300.01 690.96,300.01 692.83,299.97 694.69,299.97 696.56,300.01 698.42,250.03 700.29,300.01 702.15,300.01 704.02,300.01 705.88,299.97 707.75,300.01 709.61,299.97 711.48,300.01 713.34,299.97 715.20,299.97 717.07,299.93 718.93,300.01 720.80,300.01 722.66,299.89 724.53,299.97 726.39,299.97 728.26,300.06 730.12,249.90 731.99,299.89 733.85,300.01 735.72,299.97 737.58,299.97 739.45,299.97 741.31,300.01 743.18,300.01 745.04,299.97 746.91,299.97 748.77,299.97 750.64,250.03 752.50,299.93 754.36,300.01 756.23,300.01 758.09,299.93 759.96,300.01 761.82,300.01 763.69,299.97 765.55,300.01 767.42,300.01 769.28,300.06 771.15,300.01 773.01,299.97 774.88,299.89 776.74,300.01 778.61,300.01 780.47,249.94 782.34,249.94 784.20,300.01 786.07,300.01 787.93,300.01 789.80,300.01 791.66,299.97 793.52,250.03 795.39,300.01 797.25,300.01 799.12,300.01 800.98,300.01 802.85,250.03 804.71,249.99 806.58,300.01 808.44,299.97 810.31,300.01 812.17,299.97 814.04,300.01 815.90,299.97 817.77,299.97 819.63,299.97 821.50,300.06 823.36,249.99 825.23,300.01 827.09,250.03 828.95,249.94 830.82,249.99 832.68,300.01 834.55,300.06 836.41,300.01 838.28,299.97 840.14,299.97 842.01,300.01 843.87,299.93 845.74,299.89 847.60,299.89 849.47,299.89 851.33,299.89 853.20,299.85 855.06,299.85 856.93,299.89 858.79,299.81 860.66,299.81 862.52,299.81 864.39,299.76 866.25,299.76 868.11,299.76 869.98,299.72 871.84,299.68 873.71,299.60 875.57,299.60 877.44,299.60 879.30,299.56 881.17,299.47 883.03,299.43 884.90,299.43 886.76,299.39 888.63,299.47 890.49,259.82 892.36,338.96 894.22,299.31 896.09,299.31 897.95,299.26 899.82,299.68 901.68,299.68 903.55,299.68 905.41,299.64 907.27,299.14 909.14,299.14 911.00,299.10 912.87,299.10 914.73,299.10 916.60,248.07 918.46,299.06 920.33,299.06 922.19,299.06 924.06,299.06 925.92,299.06 927.79,298.97 929.65,298.97 931.52,298.93 933.38,298.97 935.25,298.93 937.11,298.89 938.98,298.89 940.84,298.89 942.70,298.89 944.57,247.78 946.43,298.89 948.30,298.89 950.16,298.85 952.03,298.85 953.89,298.81 955.76,298.81 957.62,298.81 959.49,298.81 961.35,298.81 963.22,298.81 965.08,298.81 966.95,298.81 968.81,298.81 970.68,298.72 972.54,247.45 974.41,247.45 976.27,298.72 978.14,298.72 980.00,298.72"/>
  <circle cx="70.00" cy="50.00" r="2.5" fill="#2563eb"/>
  <circle cx="71.86" cy="50.12" r="2.5" fill="#2563eb"/>
  <circle cx="73.73" cy="50.17" r="2.5" fill="#2563eb"/>
  <circle cx="75.59" cy="50.46" r="2.5" fill="#2563eb"/>
  <circle cx="77.46" cy="50.00" r="2.5" fill="#2563eb"/>
  <circle cx="79.32" cy="266.90" r="2.5" fill="#2563eb"/>
  <circle cx="81.19" cy="50.12" r="2.5" fill="#2563eb"/>
  <circle cx="83.05" cy="50.08" r="2.5" fill="#2563eb"/>
  <circle cx="84.92" cy="177.46" r="2.5" fill="#2563eb"/>
  <circle cx="86.78" cy="211.58" r="2.5" fill="#2563eb"/>
  <circle cx="88.65" cy="175.34" r="2.5" fill="#2563eb"/>
  <circle cx="90.51" cy="304.14" r="2.5" fill="#2563eb"/>
  <circle cx="92.38" cy="200.46" r="2.5" fill="#2563eb"/>
  <circle cx="94.24" cy="250.94" r="2.5" fill="#2563eb"/>
  <circle cx="96.11" cy="300.01" r="2.5" fill="#2563eb"/>
  <circle cx="97.97" cy="300.06" r="2.5" fill="#2563eb"/>
  <circle cx="99.84" cy="300.01" r="2.5" fill="#2563eb"/>
  <circle cx="101.70" cy="300.01" r="2.5" fill="#2563eb"/>
  <circle cx="103.57" cy="348.00" r="2.5" fill="#2563eb"/>
  <circle cx="105.43" cy="300.01" r="2.5" fill="#2563eb"/>
  <circle cx="107.30" cy="249.99" r="2.5" fill="#2563eb"/>
  <circle cx="109.16" cy="200.00" r="2.5" fill="#2563eb"/>
  <circle cx="111.02" cy="249.99" r="2.5" fill="#2563eb"/>
  <circle cx="112.89" cy="249.99" r="2.5" fill="#2563eb"/>
  <circle cx="114.75" cy="250.03" r="2.5" fill="#2563eb"/>
  <circle cx="116.62" cy="250.03" r="2.5" fill="#2563eb"/>
  <circle cx="118.48" cy="250.03" r="2.5" fill="#2563eb"/>
  <circle cx="120.35" cy="250.40" r="2.5" fill="#2563eb"/>
  <circle cx="122.21" cy="250.90" r="2.5" fill="#2563eb"/>
  <circle cx="124.08" cy="250.90" r="2.5" fill="#2563eb"/>
  <circle cx="125.94" cy="251.32" r="2.5" fill="#2563eb"/>
  <circle cx="127.81" cy="249.94" r="2.5" fill="#2563eb"/>
  <circle cx="129.67" cy="300.01" r="2.5" fill="#2563eb"/>
  <circle cx="131.54" cy="299.93" r="2.5" fill="#2563eb"/>
  <circle cx="133.40" cy="251.03" r="2.5" fill="#2563eb"/>
  <circle cx="135.27" cy="300.68" r="2.5" fill="#2563eb"/>
  <circle cx="137.13" cy="250.03" r="2.5" fill="#2563eb"/>
  <circle cx="139.00" cy="200.00" r="2.5" fill="#2563eb"/>
  <circle cx="140.86" cy="249.99" r="2.5" fill="#2563eb"/>
  <circle cx="142.73" cy="250.03" r="2.5" fill="#2563eb"/>
  <circle cx="144.59" cy="250.03" r="2.5" fill="#2563eb"/>
  <circle cx="146.45" cy="250.03" r="2.5" fill="#2563eb"/>
  <circle cx="148.32" cy="300.01" r="2.5" fill="#2563eb"/>
  <circle cx="150.18" cy="200.04" r="2.5" fill="#2563eb"/>
  <circle cx="152.05" cy="250.03" r="2.5" fill="#2563eb"/>
  <circle cx="153.91" cy="250.03" r="2.5" fill="#2563eb"/>
  <circle cx="155.78" cy="250.03" r="2.5" fill="#2563eb"/>
  <circle cx="157.64" cy="249.90" r="2.5" fill="#2563eb"/>
  <circle cx="159.51" cy="250.03" r="2.5" fill="#2563eb"/>
  <circle cx="161.37" cy="250.03" r="2.5" fill="#2563eb"/>
  <circle cx="163.24" cy="250.94" r="2.5" fill="#2563eb"/>
  <circle cx="165.10" cy="250.44" r="2.5" fill="#2563eb"/>
  <circle cx="166.97" cy="250.03" r="2.5" fill="#2563eb"/>
  <circle cx="168.83" cy="250.03" r="2.5" fill="#2563eb"/>
  <circle cx="170.70" cy="300.47" r="2.5" fill="#2563eb"/>
  <circle cx="172.56" cy="300.01" r="2.5" fill="#2563eb"/>
  <circle cx="174.43" cy="300.43" r="2.5" fill="#2563eb"/>
  <circle cx="176.29" cy="250.03" r="2.5" fill="#2563eb"/>
  <circle cx="178.16" cy="249.99" r="2.5" fill="#2563eb"/>
  <circle cx="180.02" cy="300.43" r="2.5" fill="#2563eb"/>
  <circle cx="181.89" cy="249.90" r="2.5" fill="#2563eb"/>
  <circle cx="183.75" cy="249.99" r="2.5" fill="#2563eb"/>
  <circle cx="185.61" cy="249.99" r="2.5" fill="#2563eb"/>
  <circle cx="187.48" cy="200.04" r="2.5" fill="#2563eb"/>
  <circle cx="189.34" cy="300.01" r="2.5" fill="#2563eb"/>
  <circle cx="191.21" cy="300.01" r="2.5" fill="#2563eb"/>
  <circle cx="193.07" cy="300.01" r="2.5" fill="#2563eb"/>
  <circle cx="194.94" cy="249.90" r="2.5" fill="#2563eb"/>
  <circle cx="196.80" cy="300.01" r="2.5" fill="#2563eb"/>
  <circle cx="198.67" cy="250.03" r="2.5" fill="#2563eb"/>
  <circle cx="200.53" cy="249.99" r="2.5" fill="#2563eb"/>
  <circle cx="202.40" cy="199.96" r="2.5" fill="#2563eb"/>
  <circle cx="204.26" cy="300.01" r="2.5" fill="#2563eb"/>
  <circle cx="206.13" cy="200.00" r="2.5" fill="#2563eb"/>
  <circle cx="207.99" cy="250.36" r="2.5" fill="#2563eb"/>
  <circle cx="209.86" cy="250.03" r="2.5" fill="#2563eb"/>
  <circle cx="211.72" cy="300.01" r="2.5" fill="#2563eb"/>
  <circle cx="213.59" cy="300.01" r="2.5" fill="#2563eb"/>
  <circle cx="215.45" cy="250.44" r="2.5" fill="#2563eb"/>
  <circle cx="217.32" cy="300.01" r="2.5" fill="#2563eb"/>
  <circle cx="219.18" cy="250.03" r="2.5" fill="#2563eb"/>
  <circle cx="221.05" cy="250.03" r="2.5" fill="#2563eb"/>
  <circle cx="222.91" cy="249.99" r="2.5" fill="#2563eb"/>
  <circle cx="224.77" cy="250.49" r="2.5" fill="#2563eb"/>
  <circle cx="226.64" cy="250.03" r="2.5" fill="#2563eb"/>
  <circle cx="228.50" cy="200.04" r="2.5" fill="#2563eb"/>
  <circle cx="230.37" cy="300.01" r="2.5" fill="#2563eb"/>
  <circle cx="232.23" cy="250.03" r="2.5" fill="#2563eb"/>
  <circle cx="234.10" cy="300.01" r="2.5" fill="#2563eb"/>
  <circle cx="235.96" cy="250.11" r="2.5" fill="#2563eb"/>
  <circle cx="237.83" cy="300.01" r="2.5" fill="#2563eb"/>
  <circle cx="239.69" cy="250.03" r="2.5" fill="#2563eb"/>
  <circle cx="241.56" cy="250.03" r="2.5" fill="#2563eb"/>
  <circle cx="243.42" cy="199.92" r="2.5" fill="#2563eb"/>
  <circle cx="245.29" cy="250.03" r="2.5" fill="#2563eb"/>
  <circle cx="247.15" cy="250.03" r="2.5" fill="#2563eb"/>
  <circle cx="249.02" cy="250.03" r="2.5" fill="#2563eb"/>
  <circle cx="250.88" cy="254.36" r="2.5" fill="#2563eb"/>
  <circle cx="252.75" cy="300.01" r="2.5" fill="#2563eb"/>
  <circle cx="254.61" cy="299.97" r="2.5" fill="#2563eb"/>
  <circle cx="256.48" cy="250.36" r="2.5" fill="#2563eb"/>
  <circle cx="258.34" cy="299.97" r="2.5" fill="#2563eb"/>
  <circle cx="260.20" cy="250.03" r="2.5" fill="#2563eb"/>
  <circle cx="262.07" cy="250.03" r="2.5" fill="#2563eb"/>
  <circle cx="263.93" cy="250.03" r="2.5" fill="#2563eb"/>
  <circle cx="265.80" cy="250.03" r="2.5" fill="#2563eb"/>
  <circle cx="267.66" cy="249.99" r="2.5" fill="#2563eb"/>
  <circle cx="269.53" cy="200.00" r="2.5" fill="#2563eb"/>
  <circle cx="271.39" cy="299.93" r="2.5" fill="#2563eb"/>
  <circle cx="273.26" cy="300.01" r="2.5" fill="#2563eb"/>
  <circle cx="275.12" cy="299.97" r="2.5" fill="#2563eb"/>
  <circle cx="276.99" cy="249.94" r="2.5" fill="#2563eb"/>
  <circle cx="278.85" cy="249.99" r="2.5" fill="#2563eb"/>
  <circle cx="280.72" cy="249.82" r="2.5" fill="#2563eb"/>
  <circle cx="282.58" cy="249.94" r="2.5" fill="#2563eb"/>
  <circle cx="284.45" cy="250.28" r="2.5" fill="#2563eb"/>
  <circle cx="286.31" cy="207.00" r="2.5" fill="#2563eb"/>
  <circle cx="288.18" cy="250.03" r="2.5" fill="#2563eb"/>
  <circle cx="290.04" cy="250.32" r="2.5" fill="#2563eb"/>
  <circle cx="291.91" cy="250.40" r="2.5" fill="#2563eb"/>
  <circle cx="293.77" cy="300.93" r="2.5" fill="#2563eb"/>
  <circle cx="295.64" cy="300.01" r="2.5" fill="#2563eb"/>
  <circle cx="297.50" cy="300.10" r="2.5" fill="#2563eb"/>
  <circle cx="299.36" cy="249.94" r="2.5" fill="#2563eb"/>
  <circle cx="301.23" cy="249.99" r="2.5" fill="#2563eb"/>
  <circle cx="303.09" cy="250.07" r="2.5" fill="#2563eb"/>
  <circle cx="304.96" cy="249.99" r="2.5" fill="#2563eb"/>
  <circle cx="306.82" cy="250.03" r="2.5" fill="#2563eb"/>
  <circle cx="308.69" cy="249.94" r="2.5" fill="#2563eb"/>
  <circle cx="310.55" cy="200.00" r="2.5" fill="#2563eb"/>
  <circle cx="312.42" cy="300.39" r="2.5" fill="#2563eb"/>
  <circle cx="314.28" cy="300.01" r="2.5" fill="#2563eb"/>
  <circle cx="316.15" cy="300.01" r="2.5" fill="#2563eb"/>
  <circle cx="318.01" cy="250.44" r="2.5" fill="#2563eb"/>
  <circle cx="319.88" cy="300.39" r="2.5" fill="#2563eb"/>
  <circle cx="321.74" cy="249.86" r="2.5" fill="#2563eb"/>
  <circle cx="323.61" cy="250.11" r="2.5" fill="#2563eb"/>
  <circle cx="325.47" cy="201.46" r="2.5" fill="#2563eb"/>
  <circle cx="327.34" cy="300.01" r="2.5" fill="#2563eb"/>
  <circle cx="329.20" cy="200.83" r="2.5" fill="#2563eb"/>
  <circle cx="331.07" cy="250.03" r="2.5" fill="#2563eb"/>
  <circle cx="332.93" cy="249.99" r="2.5" fill="#2563eb"/>
  <circle cx="334.80" cy="300.26" r="2.5" fill="#2563eb"/>
  <circle cx="336.66" cy="300.01" r="2.5" fill="#2563eb"/>
  <circle cx="338.52" cy="300.01" r="2.5" fill="#2563eb"/>
  <circle cx="340.39" cy="250.03" r="2.5" fill="#2563eb"/>
  <circle cx="342.25" cy="250.03" r="2.5" fill="#2563eb"/>
  <circle cx="344.12" cy="250.03" r="2.5" fill="#2563eb"/>
  <circle cx="345.98" cy="250.03" r="2.5" fill="#2563eb"/>
  <circle cx="347.85" cy="249.99" r="2.5" fill="#2563eb"/>
  <circle cx="349.71" cy="250.03" r="2.5" fill="#2563eb"/>
  <circle cx="351.58" cy="200.00" r="2.5" fill="#2563eb"/>
  <circle cx="353.44" cy="300.26" r="2.5" fill="#2563eb"/>
  <circle cx="355.31" cy="249.99" r="2.5" fill="#2563eb"/>
  <circle cx="357.17" cy="300.01" r="2.5" fill="#2563eb"/>
  <circle cx="359.04" cy="249.94" r="2.5" fill="#2563eb"/>
  <circle cx="360.90" cy="250.03" r="2.5" fill="#2563eb"/>
  <circle cx="362.77" cy="250.03" r="2.5" fill="#2563eb"/>
  <circle cx="364.63" cy="250.03" r="2.5" fill="#2563eb"/>
  <circle cx="366.50" cy="200.04" r="2.5" fill="#2563eb"/>
  <circle cx="368.36" cy="300.01" r="2.5" fill="#2563eb"/>
  <circle cx="370.23" cy="249.90" r="2.5" fill="#2563eb"/>
  <circle cx="372.09" cy="300.01" r="2.5" fill="#2563eb"/>
  <circle cx="373.95" cy="300.01" r="2.5" fill="#2563eb"/>
  <circle cx="375.82" cy="300.06" r="2.5" fill="#2563eb"/>
  <circle cx="377.68" cy="300.01" r="2.5" fill="#2563eb"/>
  <circle cx="379.55" cy="300.01" r="2.5" fill="#2563eb"/>
  <circle cx="381.41" cy="243.95" r="2.5" fill="#2563eb"/>
  <circle cx="383.28" cy="249.94" r="2.5" fill="#2563eb"/>
  <circle cx="385.14" cy="299.97" r="2.5" fill="#2563eb"/>
  <circle cx="387.01" cy="300.01" r="2.5" fill="#2563eb"/>
  <circle cx="388.87" cy="300.01" r="2.5" fill="#2563eb"/>
  <circle cx="390.74" cy="250.03" r="2.5" fill="#2563eb"/>
  <circle cx="392.60" cy="300.01" r="2.5" fill="#2563eb"/>
  <circle cx="394.47" cy="300.01" r="2.5" fill="#2563eb"/>
  <circle cx="396.33" cy="299.97" r="2.5" fill="#2563eb"/>
  <circle cx="398.20" cy="249.99" r="2.5" fill="#2563eb"/>
  <circle cx="400.06" cy="300.01" r="2.5" fill="#2563eb"/>
  <circle cx="401.93" cy="299.93" r="2.5" fill="#2563eb"/>
  <circle cx="403.79" cy="300.01" r="2.5" fill="#2563eb"/>
  <circle cx="405.66" cy="299.93" r="2.5" fill="#2563eb"/>
  <circle cx="407.52" cy="300.01" r="2.5" fill="#2563eb"/>
  <circle cx="409.39" cy="300.01" r="2.5" fill="#2563eb"/>
  <circle cx="411.25" cy="299.89" r="2.5" fill="#2563eb"/>
  <circle cx="413.11" cy="299.97" r="2.5" fill="#2563eb"/>
  <circle cx="414.98" cy="250.03" r="2.5" fill="#2563eb"/>
  <circle cx="416.84" cy="299.93" r="2.5" fill="#2563eb"/>
  <circle cx="418.71" cy="299.89" r="2.5" fill="#2563eb"/>
  <circle cx="420.57" cy="299.97" r="2.5" fill="#2563eb"/>
  <circle cx="422.44" cy="249.94" r="2.5" fill="#2563eb"/>
  <circle cx="424.30" cy="300.01" r="2.5" fill="#2563eb"/>
  <circle cx="426.17" cy="300.01" r="2.5" fill="#2563eb"/>
  <circle cx="428.03" cy="299.97" r="2.5" fill="#2563eb"/>
  <circle cx="429.90" cy="249.99" r="2.5" fill="#2563eb"/>
  <circle cx="431.76" cy="299.97" r="2.5" fill="#2563eb"/>
  <circle cx="433.63" cy="299.97" r="2.5" fill="#2563eb"/>
  <circle cx="435.49" cy="300.06" r="2.5" fill="#2563eb"/>
  <circle cx="437.36" cy="300.06" r="2.5" fill="#2563eb"/>
  <circle cx="439.22" cy="299.93" r="2.5" fill="#2563eb"/>
  <circle cx="441.09" cy="300.01" r="2.5" fill="#2563eb"/>
  <circle cx="442.95" cy="300.01" r="2.5" fill="#2563eb"/>
  <circle cx="444.82" cy="299.93" r="2.5" fill="#2563eb"/>
  <circle cx="446.68" cy="300.01" r="2.5" fill="#2563eb"/>
  <circle cx="448.55" cy="300.01" r="2.5" fill="#2563eb"/>
  <circle cx="450.41" cy="299.97" r="2.5" fill="#2563eb"/>
  <circle cx="452.27" cy="300.01" r="2.5" fill="#2563eb"/>
  <circle cx="454.14" cy="300.01" r="2.5" fill="#2563eb"/>
  <circle cx="456.00" cy="300.01" r="2.5" fill="#2563eb"/>
  <circle cx="457.87" cy="300.01" r="2.5" fill="#2563eb"/>
  <circle cx="459.73" cy="249.86" r="2.5" fill="#2563eb"/>
  <circle cx="461.60" cy="300.01" r="2.5" fill="#2563eb"/>
  <circle cx="463.46" cy="300.10" r="2.5" fill="#2563eb"/>
  <circle cx="465.33" cy="299.93" r="2.5" fill="#2563eb"/>
  <circle cx="467.19" cy="300.01" r="2.5" fill="#2563eb"/>
  <circle cx="469.06" cy="299.93" r="2.5" fill="#2563eb"/>
  <circle cx="470.92" cy="300.01" r="2.5" fill="#2563eb"/>
  <circle cx="472.79" cy="300.01" r="2.5" fill="#2563eb"/>
  <circle cx="474.65" cy="300.01" r="2.5" fill="#2563eb"/>
  <circle cx="476.52" cy="300.01" r="2.5" fill="#2563eb"/>
  <circle cx="478.38" cy="300.01" r="2.5" fill="#2563eb"/>
  <circle cx="480.25" cy="299.97" r="2.5" fill="#2563eb"/>
  <circle cx="482.11" cy="300.01" r="2.5" fill="#2563eb"/>
  <circle cx="483.98" cy="300.01" r="2.5" fill="#2563eb"/>
  <circle cx="485.84" cy="300.01" r="2.5" fill="#2563eb"/>
  <circle cx="487.70" cy="300.01" r="2.5" fill="#2563eb"/>
  <circle cx="489.57" cy="250.03" r="2.5" fill="#2563eb"/>
  <circle cx="491.43" cy="300.01" r="2.5" fill="#2563eb"/>
  <circle cx="493.30" cy="300.01" r="2.5" fill="#2563eb"/>
  <circle cx="495.16" cy="299.97" r="2.5" fill="#2563eb"/>
  <circle cx="497.03" cy="300.01" r="2.5" fill="#2563eb"/>
  <circle cx="498.89" cy="300.01" r="2.5" fill="#2563eb"/>
  <circle cx="500.76" cy="299.97" r="2.5" fill="#2563eb"/>
  <circle cx="502.62" cy="299.97" r="2.5" fill="#2563eb"/>
  <circle cx="504.49" cy="300.01" r="2.5" fill="#2563eb"/>
  <circle cx="506.35" cy="299.97" r="2.5" fill="#2563eb"/>
  <circle cx="508.22" cy="300.01" r="2.5" fill="#2563eb"/>
  <circle cx="510.08" cy="299.93" r="2.5" fill="#2563eb"/>
  <circle cx="511.95" cy="300.01" r="2.5" fill="#2563eb"/>
  <circle cx="513.81" cy="250.03" r="2.5" fill="#2563eb"/>
  <circle cx="515.68" cy="300.01" r="2.5" fill="#2563eb"/>
  <circle cx="517.54" cy="300.01" r="2.5" fill="#2563eb"/>
  <circle cx="519.41" cy="300.01" r="2.5" fill="#2563eb"/>
  <circle cx="521.27" cy="300.01" r="2.5" fill="#2563eb"/>
  <circle cx="523.14" cy="300.01" r="2.5" fill="#2563eb"/>
  <circle cx="525.00" cy="299.89" r="2.5" fill="#2563eb"/>
  <circle cx="526.86" cy="300.01" r="2.5" fill="#2563eb"/>
  <circle cx="528.73" cy="300.01" r="2.5" fill="#2563eb"/>
  <circle cx="530.59" cy="250.07" r="2.5" fill="#2563eb"/>
  <circle cx="532.46" cy="300.01" r="2.5" fill="#2563eb"/>
  <circle cx="534.32" cy="299.93" r="2.5" fill="#2563eb"/>
  <circle cx="536.19" cy="300.01" r="2.5" fill="#2563eb"/>
  <circle cx="538.05" cy="299.97" r="2.5" fill="#2563eb"/>
  <circle cx="539.92" cy="299.97" r="2.5" fill="#2563eb"/>
  <circle cx="541.78" cy="299.97" r="2.5" fill="#2563eb"/>
  <circle cx="543.65" cy="250.03" r="2.5" fill="#2563eb"/>
  <circle cx="545.51" cy="300.01" r="2.5" fill="#2563eb"/>
  <circle cx="547.38" cy="300.01" r="2.5" fill="#2563eb"/>
  <circle cx="549.24" cy="300.01" r="2.5" fill="#2563eb"/>
  <circle cx="551.11" cy="300.01" r="2.5" fill="#2563eb"/>
  <circle cx="552.97" cy="299.97" r="2.5" fill="#2563eb"/>
  <circle cx="554.84" cy="300.01" r="2.5" fill="#2563eb"/>
  <circle cx="556.70" cy="299.97" r="2.5" fill="#2563eb"/>
  <circle cx="558.57" cy="300.01" r="2.5" fill="#2563eb"/>
  <circle cx="560.43" cy="299.97" r="2.5" fill="#2563eb"/>
  <circle cx="562.30" cy="249.90" r="2.5" fill="#2563eb"/>
  <circle cx="564.16" cy="300.01" r="2.5" fill="#2563eb"/>
  <circle cx="566.02" cy="300.01" r="2.5" fill="#2563eb"/>
  <circle cx="567.89" cy="299.89" r="2.5" fill="#2563eb"/>
  <circle cx="569.75" cy="299.97" r="2.5" fill="#2563eb"/>
  <circle cx="571.62" cy="299.97" r="2.5" fill="#2563eb"/>
  <circle cx="573.48" cy="249.99" r="2.5" fill="#2563eb"/>
  <circle cx="575.35" cy="299.97" r="2.5" fill="#2563eb"/>
  <circle cx="577.21" cy="299.89" r="2.5" fill="#2563eb"/>
  <circle cx="579.08" cy="300.01" r="2.5" fill="#2563eb"/>
  <circle cx="580.94" cy="299.97" r="2.5" fill="#2563eb"/>
  <circle cx="582.81" cy="299.97" r="2.5" fill="#2563eb"/>
  <circle cx="584.67" cy="300.01" r="2.5" fill="#2563eb"/>
  <circle cx="586.54" cy="299.97" r="2.5" fill="#2563eb"/>
  <circle cx="588.40" cy="249.99" r="2.5" fill="#2563eb"/>
  <circle cx="590.27" cy="299.97" r="2.5" fill="#2563eb"/>
  <circle cx="592.13" cy="299.97" r="2.5" fill="#2563eb"/>
  <circle cx="594.00" cy="300.06" r="2.5" fill="#2563eb"/>
  <circle cx="595.86" cy="300.06" r="2.5" fill="#2563eb"/>
  <circle cx="597.73" cy="249.94" r="2.5" fill="#2563eb"/>
  <circle cx="599.59" cy="300.01" r="2.5" fill="#2563eb"/>
  <circle cx="601.45" cy="299.93" r="2.5" fill="#2563eb"/>
  <circle cx="603.32" cy="300.01" r="2.5" fill="#2563eb"/>
  <circle cx="605.18" cy="300.01" r="2.5" fill="#2563eb"/>
  <circle cx="607.05" cy="249.99" r="2.5" fill="#2563eb"/>
  <circle cx="608.91" cy="300.01" r="2.5" fill="#2563eb"/>
  <circle cx="610.78" cy="300.01" r="2.5" fill="#2563eb"/>
  <circle cx="612.64" cy="300.01" r="2.5" fill="#2563eb"/>
  <circle cx="614.51" cy="299.93" r="2.5" fill="#2563eb"/>
  <circle cx="616.37" cy="299.93" r="2.5" fill="#2563eb"/>
  <circle cx="618.24" cy="300.01" r="2.5" fill="#2563eb"/>
  <circle cx="620.10" cy="300.01" r="2.5" fill="#2563eb"/>
  <circle cx="621.97" cy="249.94" r="2.5" fill="#2563eb"/>
  <circle cx="623.83" cy="299.97" r="2.5" fill="#2563eb"/>
  <circle cx="625.70" cy="299.97" r="2.5" fill="#2563eb"/>
  <circle cx="627.56" cy="300.01" r="2.5" fill="#2563eb"/>
  <circle cx="629.43" cy="300.01" r="2.5" fill="#2563eb"/>
  <circle cx="631.29" cy="300.01" r="2.5" fill="#2563eb"/>
  <circle cx="633.16" cy="249.99" r="2.5" fill="#2563eb"/>
  <circle cx="635.02" cy="300.01" r="2.5" fill="#2563eb"/>
  <circle cx="636.89" cy="300.01" r="2.5" fill="#2563eb"/>
  <circle cx="638.75" cy="300.01" r="2.5" fill="#2563eb"/>
  <circle cx="640.61" cy="250.03" r="2.5" fill="#2563eb"/>
  <circle cx="642.48" cy="300.01" r="2.5" fill="#2563eb"/>
  <circle cx="644.34" cy="300.01" r="2.5" fill="#2563eb"/>
  <circle cx="646.21" cy="300.01" r="2.5" fill="#2563eb"/>
  <circle cx="648.07" cy="299.97" r="2.5" fill="#2563eb"/>
  <circle cx="649.94" cy="300.01" r="2.5" fill="#2563eb"/>
  <circle cx="651.80" cy="300.01" r="2.5" fill="#2563eb"/>
  <circle cx="653.67" cy="299.97" r="2.5" fill="#2563eb"/>
  <circle cx="655.53" cy="299.97" r="2.5" fill="#2563eb"/>
  <circle cx="657.40" cy="300.01" r="2.5" fill="#2563eb"/>
  <circle cx="659.26" cy="300.01" r="2.5" fill="#2563eb"/>
  <circle cx="661.13" cy="299.97" r="2.5" fill="#2563eb"/>
  <circle cx="662.99" cy="299.93" r="2.5" fill="#2563eb"/>
  <circle cx="664.86" cy="300.01" r="2.5" fill="#2563eb"/>
  <circle cx="666.72" cy="300.06" r="2.5" fill="#2563eb"/>
  <circle cx="668.59" cy="299.97" r="2.5" fill="#2563eb"/>
  <circle cx="670.45" cy="300.01" r="2.5" fill="#2563eb"/>
  <circle cx="672.32" cy="250.03" r="2.5" fill="#2563eb"/>
  <circle cx="674.18" cy="250.03" r="2.5" fill="#2563eb"/>
  <circle cx="676.05" cy="299.93" r="2.5" fill="#2563eb"/>
  <circle cx="677.91" cy="299.97" r="2.5" fill="#2563eb"/>
  <circle cx="679.77" cy="300.01" r="2.5" fill="#2563eb"/>
  <circle cx="681.64" cy="300.01" r="2.5" fill="#2563eb"/>
  <circle cx="683.50" cy="300.06" r="2.5" fill="#2563eb"/>
  <circle cx="685.37" cy="300.01" r="2.5" fill="#2563eb"/>
  <circle cx="687.23" cy="299.93" r="2.5" fill="#2563eb"/>
  <circle cx="689.10" cy="300.01" r="2.5" fill="#2563eb"/>
  <circle cx="690.96" cy="300.01" r="2.5" fill="#2563eb"/>
  <circle cx="692.83" cy="299.97" r="2.5" fill="#2563eb"/>
  <circle cx="694.69" cy="299.97" r="2.5" fill="#2563eb"/>
  <circle cx="696.56" cy="300.01" r="2.5" fill="#2563eb"/>
  <circle cx="698.42" cy="250.03" r="2.5" fill="#2563eb"/>
  <circle cx="700.29" cy="300.01" r="2.5" fill="#2563eb"/>
  <circle cx="702.15" cy="300.01" r="2.5" fill="#2563eb"/>
  <circle cx="704.02" cy="300.01" r="2.5" fill="#2563eb"/>
  <circle cx="705.88" cy="299.97" r="2.5" fill="#2563eb"/>
  <circle cx="707.75" cy="300.01" r="2.5" fill="#2563eb"/>
  <circle cx="709.61" cy="299.97" r="2.5" fill="#2563eb"/>
  <circle cx="711.48" cy="300.01" r="2.5" fill="#2563eb"/>
  <circle cx="713.34" cy="299.97" r="2.5" fill="#2563eb"/>
  <circle cx="715.20" cy="299.97" r="2.5" fill="#2563eb"/>
  <circle cx="717.07" cy="299.93" r="2.5" fill="#2563eb"/>
  <circle cx="718.93" cy="300.01" r="2.5" fill="#2563eb"/>
  <circle cx="720.80" cy="300.01" r="2.5" fill="#2563eb"/>
  <circle cx="722.66" cy="299.89" r="2.5" fill="#2563eb"/>
  <circle cx="724.53" cy="299.97" r="2.5" fill="#2563eb"/>
  <circle cx="726.39" cy="299.97" r="2.5" fill="#2563eb"/>
  <circle cx="728.26" cy="300.06" r="2.5" fill="#2563eb"/>
  <circle cx="730.12" cy="249.90" r="2.5" fill="#2563eb"/>
  <circle cx="731.99" cy="299.89" r="2.5" fill="#2563eb"/>
  <circle cx="733.85" cy="300.01" r="2.5" fill="#2563eb"/>
  <circle cx="735.72" cy="299.97" r="2.5" fill="#2563eb"/>
  <circle cx="737.58" cy="299.97" r="2.5" fill="#2563eb"/>
  <circle cx="739.45" cy="299.97" r="2.5" fill="#2563eb"/>
  <circle cx="741.31" cy="300.01" r="2.5" fill="#2563eb"/>
  <circle cx="743.18" cy="300.01" r="2.5" fill="#2563eb"/>
  <circle cx="745.04" cy="299.97" r="2.5" fill="#2563eb"/>
  <circle cx="746.91" cy="299.97" r="2.5" fill="#2563eb"/>
  <circle cx="748.77" cy="299.97" r="2.5" fill="#2563eb"/>
  <circle cx="750.64" cy="250.03" r="2.5" fill="#2563eb"/>
  <circle cx="752.50" cy="299.93" r="2.5" fill="#2563eb"/>
  <circle cx="754.36" cy="300.01" r="2.5" fill="#2563eb"/>
  <circle cx="756.23" cy="300.01" r="2.5" fill="#2563eb"/>
  <circle cx="758.09" cy="299.93" r="2.5" fill="#2563eb"/>
  <circle cx="759.96" cy="300.01" r="2.5" fill="#2563eb"/>
  <circle cx="761.82" cy="300.01" r="2.5" fill="#2563eb"/>
  <circle cx="763.69" cy="299.97" r="2.5" fill="#2563eb"/>
  <circle cx="765.55" cy="300.01" r="2.5" fill="#2563eb"/>
  <circle cx="767.42" cy="300.01" r="2.5" fill="#2563eb"/>
  <circle cx="769.28" cy="300.06" r="2.5" fill="#2563eb"/>
  <circle cx="771.15" cy="300.01" r="2.5" fill="#2563eb"/>
  <circle cx="773.01" cy="299.97" r="2.5" fill="#2563eb"/>
  <circle cx="774.88" cy="299.89" r="2.5" fill="#2563eb"/>
  <circle cx="776.74" cy="300.01" r="2.5" fill="#2563eb"/>
  <circle cx="778.61" cy="300.01" r="2.5" fill="#2563eb"/>
  <circle cx="780.47" cy="249.94" r="2.5" fill="#2563eb"/>
  <circle cx="782.34" cy="249.94" r="2.5" fill="#2563eb"/>
  <circle cx="784.20" cy="300.01" r="2.5" fill="#2563eb"/>
  <circle cx="786.07" cy="300.01" r="2.5" fill="#2563eb"/>
  <circle cx="787.93" cy="300.01" r="2.5" fill="#2563eb"/>
  <circle cx="789.80" cy="300.01" r="2.5" fill="#2563eb"/>
  <circle cx="791.66" cy="299.97" r="2.5" fill="#2563eb"/>
  <circle cx="793.52" cy="250.03" r="2.5" fill="#2563eb"/>
  <circle cx="795.39" cy="300.01" r="2.5" fill="#2563eb"/>
  <circle cx="797.25" cy="300.01" r="2.5" fill="#2563eb"/>
  <circle cx="799.12" cy="300.01" r="2.5" fill="#2563eb"/>
  <circle cx="800.98" cy="300.01" r="2.5" fill="#2563eb"/>
  <circle cx="802.85" cy="250.03" r="2.5" fill="#2563eb"/>
  <circle cx="804.71" cy="249.99" r="2.5" fill="#2563eb"/>
  <circle cx="806.58" cy="300.01" r="2.5" fill="#2563eb"/>
  <circle cx="808.44" cy="299.97" r="2.5" fill="#2563eb"/>
  <circle cx="810.31" cy="300.01" r="2.5" fill="#2563eb"/>
  <circle cx="812.17" cy="299.97" r="2.5" fill="#2563eb"/>
  <circle cx="814.04" cy="300.01" r="2.5" fill="#2563eb"/>
  <circle cx="815.90" cy="299.97" r="2.5" fill="#2563eb"/>
  <circle cx="817.77" cy="299.97" r="2.5" fill="#2563eb"/>
  <circle cx="819.63" cy="299.97" r="2.5" fill="#2563eb"/>
  <circle cx="821.50" cy="300.06" r="2.5" fill="#2563eb"/>
  <circle cx="823.36" cy="249.99" r="2.5" fill="#2563eb"/>
  <circle cx="825.23" cy="300.01" r="2.5" fill="#2563eb"/>
  <circle cx="827.09" cy="250.03" r="2.5" fill="#2563eb"/>
  <circle cx="828.95" cy="249.94" r="2.5" fill="#2563eb"/>
  <circle cx="830.82" cy="249.99" r="2.5" fill="#2563eb"/>
  <circle cx="832.68" cy="300.01" r="2.5" fill="#2563eb"/>
  <circle cx="834.55" cy="300.06" r="2.5" fill="#2563eb"/>
  <circle cx="836.41" cy="300.01" r="2.5" fill="#2563eb"/>
  <circle cx="838.28" cy="299.97" r="2.5" fill="#2563eb"/>
  <circle cx="840.14" cy="299.97" r="2.5" fill="#2563eb"/>
  <circle cx="842.01" cy="300.01" r="2.5" fill="#2563eb"/>
  <circle cx="843.87" cy="299.93" r="2.5" fill="#2563eb"/>
  <circle cx="845.74" cy="299.89" r="2.5" fill="#2563eb"/>
  <circle cx="847.60" cy="299.89" r="2.5" fill="#2563eb"/>
  <circle cx="849.47" cy="299.89" r="2.5" fill="#2563eb"/>
  <circle cx="851.33" cy="299.89" r="2.5" fill="#2563eb"/>
  <circle cx="853.20" cy="299.85" r="2.5" fill="#2563eb"/>
  <circle cx="855.06" cy="299.85" r="2.5" fill="#2563eb"/>
  <circle cx="856.93" cy="299.89" r="2.5" fill="#2563eb"/>
  <circle cx="858.79" cy="299.81" r="2.5" fill="#2563eb"/>
  <circle cx="860.66" cy="299.81" r="2.5" fill="#2563eb"/>
  <circle cx="862.52" cy="299.81" r="2.5" fill="#2563eb"/>
  <circle cx="864.39" cy="299.76" r="2.5" fill="#2563eb"/>
  <circle cx="866.25" cy="299.76" r="2.5" fill="#2563eb"/>
  <circle cx="868.11" cy="299.76" r="2.5" fill="#2563eb"/>
  <circle cx="869.98" cy="299.72" r="2.5" fill="#2563eb"/>
  <circle cx="871.84" cy="299.68" r="2.5" fill="#2563eb"/>
  <circle cx="873.71" cy="299.60" r="2.5" fill="#2563eb"/>
  <circle cx="875.57" cy="299.60" r="2.5" fill="#2563eb"/>
  <circle cx="877.44" cy="299.60" r="2.5" fill="#2563eb"/>
  <circle cx="879.30" cy="299.56" r="2.5" fill="#2563eb"/>
  <circle cx="881.17" cy="299.47" r="2.5" fill="#2563eb"/>
  <circle cx="883.03" cy="299.43" r="2.5" fill="#2563eb"/>
  <circle cx="884.90" cy="299.43" r="2.5" fill="#2563eb"/>
  <circle cx="886.76" cy="299.39" r="2.5" fill="#2563eb"/>
  <circle cx="888.63" cy="299.47" r="2.5" fill="#2563eb"/>
  <circle cx="890.49" cy="259.82" r="2.5" fill="#2563eb"/>
  <circle cx="892.36" cy="338.96" r="2.5" fill="#2563eb"/>
  <circle cx="894.22" cy="299.31" r="2.5" fill="#2563eb"/>
  <circle cx="896.09" cy="299.31" r="2.5" fill="#2563eb"/>
  <circle cx="897.95" cy="299.26" r="2.5" fill="#2563eb"/>
  <circle cx="899.82" cy="299.68" r="2.5" fill="#2563eb"/>
  <circle cx="901.68" cy="299.68" r="2.5" fill="#2563eb"/>
  <circle cx="903.55" cy="299.68" r="2.5" fill="#2563eb"/>
  <circle cx="905.41" cy="299.64" r="2.5" fill="#2563eb"/>
  <circle cx="907.27" cy="299.14" r="2.5" fill="#2563eb"/>
  <circle cx="909.14" cy="299.14" r="2.5" fill="#2563eb"/>
  <circle cx="911.00" cy="299.10" r="2.5" fill="#2563eb"/>
  <circle cx="912.87" cy="299.10" r="2.5" fill="#2563eb"/>
  <circle cx="914.73" cy="299.10" r="2.5" fill="#2563eb"/>
  <circle cx="916.60" cy="248.07" r="2.5" fill="#2563eb"/>
  <circle cx="918.46" cy="299.06" r="2.5" fill="#2563eb"/>
  <circle cx="920.33" cy="299.06" r="2.5" fill="#2563eb"/>
  <circle cx="922.19" cy="299.06" r="2.5" fill="#2563eb"/>
  <circle cx="924.06" cy="299.06" r="2.5" fill="#2563eb"/>
  <circle cx="925.92" cy="299.06" r="2.5" fill="#2563eb"/>
  <circle cx="927.79" cy="298.97" r="2.5" fill="#2563eb"/>
  <circle cx="929.65" cy="298.97" r="2.5" fill="#2563eb"/>
  <circle cx="931.52" cy="298.93" r="2.5" fill="#2563eb"/>
  <circle cx="933.38" cy="298.97" r="2.5" fill="#2563eb"/>
  <circle cx="935.25" cy="298.93" r="2.5" fill="#2563eb"/>
  <circle cx="937.11" cy="298.89" r="2.5" fill="#2563eb"/>
  <circle cx="938.98" cy="298.89" r="2.5" fill="#2563eb"/>
  <circle cx="940.84" cy="298.89" r="2.5" fill="#2563eb"/>
  <circle cx="942.70" cy="298.89" r="2.5" fill="#2563eb"/>
  <circle cx="944.57" cy="247.78" r="2.5" fill="#2563eb"/>
  <circle cx="946.43" cy="298.89" r="2.5" fill="#2563eb"/>
  <circle cx="948.30" cy="298.89" r="2.5" fill="#2563eb"/>
  <circle cx="950.16" cy="298.85" r="2.5" fill="#2563eb"/>
  <circle cx="952.03" cy="298.85" r="2.5" fill="#2563eb"/>
  <circle cx="953.89" cy="298.81" r="2.5" fill="#2563eb"/>
  <circle cx="955.76" cy="298.81" r="2.5" fill="#2563eb"/>
  <circle cx="957.62" cy="298.81" r="2.5" fill="#2563eb"/>
  <circle cx="959.49" cy="298.81" r="2.5" fill="#2563eb"/>
  <circle cx="961.35" cy="298.81" r="2.5" fill="#2563eb"/>
  <circle cx="963.22" cy="298.81" r="2.5" fill="#2563eb"/>
  <circle cx="965.08" cy="298.81" r="2.5" fill="#2563eb"/>
  <circle cx="966.95" cy="298.81" r="2.5" fill="#2563eb"/>
  <circle cx="968.81" cy="298.81" r="2.5" fill="#2563eb"/>
  <circle cx="970.68" cy="298.72" r="2.5" fill="#2563eb"/>
  <circle cx="972.54" cy="247.45" r="2.5" fill="#2563eb"/>
  <circle cx="974.41" cy="247.45" r="2.5" fill="#2563eb"/>
  <circle cx="976.27" cy="298.72" r="2.5" fill="#2563eb"/>
  <circle cx="978.14" cy="298.72" r="2.5" fill="#2563eb"/>
  <circle cx="980.00" cy="298.72" r="2.5" fill="#2563eb"/>
</svg>
