<?xml version="1.0" encoding="UTF-8"?>
<svg xmlns="http://www.w3.org/2000/svg" width="1000" height="420" viewBox="0 0 1000 420">
  <rect width="100%" height="100%" fill="#ffffff"/>
  <text x="70" y="28" font-size="20" font-weight="600">수집 시점 기준 - 일별 스냅샷</text>
  <text x="70" y="402" font-size="12" fill="#555">스냅샷 수</text>
  <line x1="70" y1="350.00" x2="980" y2="350.00" stroke="#e5e7eb" stroke-width="1"/>
  <text x="62" y="354.00" font-size="11" fill="#6b7280" text-anchor="end">0</text>
  <line x1="70" y1="290.00" x2="980" y2="290.00" stroke="#e5e7eb" stroke-width="1"/>
  <text x="62" y="294.00" font-size="11" fill="#6b7280" text-anchor="end">10,057</text>
  <line x1="70" y1="230.00" x2="980" y2="230.00" stroke="#e5e7eb" stroke-width="1"/>
  <text x="62" y="234.00" font-size="11" fill="#6b7280" text-anchor="end">20,114</text>
  <line x1="70" y1="170.00" x2="980" y2="170.00" stroke="#e5e7eb" stroke-width="1"/>
  <text x="62" y="174.00" font-size="11" fill="#6b7280" text-anchor="end">30,171</text>
  <line x1="70" y1="110.00" x2="980" y2="110.00" stroke="#e5e7eb" stroke-width="1"/>
  <text x="62" y="114.00" font-size="11" fill="#6b7280" text-anchor="end">40,228</text>
  <line x1="70" y1="50.00" x2="980" y2="50.00" stroke="#e5e7eb" stroke-width="1"/>
  <text x="62" y="54.00" font-size="11" fill="#6b7280" text-anchor="end">50,285</text>
  <line x1="70" y1="350" x2="980" y2="350" stroke="#111827" stroke-width="1.2"/>
  <line x1="70" y1="50" x2="70" y2="350" stroke="#111827" stroke-width="1.2"/>
  <line x1="70.00" y1="350" x2="70.00" y2="356" stroke="#9ca3af" stroke-width="1"/>
  <text x="70.00" y="372" font-size="10" fill="#6b7280" text-anchor="middle">2026-02-28</text>
  <line x1="144.29" y1="350" x2="144.29" y2="356" stroke="#9ca3af" stroke-width="1"/>
  <text x="144.29" y="372" font-size="10" fill="#6b7280" text-anchor="middle">2026-03-08</text>
  <line x1="218.57" y1="350" x2="218.57" y2="356" stroke="#9ca3af" stroke-width="1"/>
  <text x="218.57" y="372" font-size="10" fill="#6b7280" text-anchor="middle">2026-03-12</text>
  <line x1="292.86" y1="350" x2="292.86" y2="356" stroke="#9ca3af" stroke-width="1"/>
  <text x="292.86" y="372" font-size="10" fill="#6b7280" text-anchor="middle">2026-03-16</text>
  <line x1="367.14" y1="350" x2="367.14" y2="356" stroke="#9ca3af" stroke-width="1"/>
  <text x="367.14" y="372" font-size="10" fill="#6b7280" text-anchor="middle">2026-03-20</text>
  <line x1="441.43" y1="350" x2="441.43" y2="356" stroke="#9ca3af" stroke-width="1"/>
  <text x="441.43" y="372" font-size="10" fill="#6b7280" text-anchor="middle">2026-03-24</text>
  <line x1="515.71" y1="350" x2="515.71" y2="356" stroke="#9ca3af" stroke-width="1"/>
  <text x="515.71" y="372" font-size="10" fill="#6b7280" text-anchor="middle">2026-03-28</text>
  <line x1="590.00" y1="350" x2="590.00" y2="356" stroke="#9ca3af" stroke-width="1"/>
  <text x="590.00" y="372" font-size="10" fill="#6b7280" text-anchor="middle">2026-04-01</text>
  <line x1="664.29" y1="350" x2="664.29" y2="356" stroke="#9ca3af" stroke-width="1"/>
  <text x="664.29" y="372" font-size="10" fill="#6b7280" text-anchor="middle">2026-04-05</text>
  <line x1="738.57" y1="350" x2="738.57" y2="356" stroke="#9ca3af" stroke-width="1"/>
  <text x="738.57" y="372" font-size="10" fill="#6b7280" text-anchor="middle">2026-04-09</text>
  <line x1="812.86" y1="350" x2="812.86" y2="356" stroke="#9ca3af" stroke-width="1"/>
  <text x="812.86" y="372" font-size="10" fill="#6b7280" text-anchor="middle">2026-04-13</text>
  <line x1="887.14" y1="350" x2="887.14" y2="356" stroke="#9ca3af" stroke-width="1"/>
  <text x="887.14" y="372" font-size="10" fill="#6b7280" text-anchor="middle">2026-04-17</text>
  <line x1="961.43" y1="350" x2="961.43" y2="356" stroke="#9ca3af" stroke-width="1"/>
  <text x="961.43" y="372" font-size="10" fill="#6b7280" text-anchor="middle">2026-04-21</text>
  <line x1="980.00" y1="350" x2="980.00" y2="356" stroke="#9ca3af" stroke-width="1"/>
  <text x="980.00" y="372" font-size="10" fill="#6b7280" text-anchor="middle">2026-04-22</text>
  <polyline fill="none" stroke="#2563eb" stroke-width="2.5" points="70.00,264.08 88.57,78.85 107.14,253.89 125.71,292.71 144.29,50.00 162.86,78.27 181.43,63.76 200.00,71.41 218.57,64.86 237.14,64.10 255.71,148.63 274.29,206.71 292.86,235.41 311.43,235.42 330.00,242.59 348.57,228.26 367.14,213.91 385.71,192.40 404.29,199.59 422.86,235.43 441.43,228.26 460.00,235.41 478.57,242.53 497.14,242.57 515.71,213.92 534.29,228.26 552.86,228.19 571.43,242.02 590.00,255.89 608.57,240.65 627.14,225.52 645.71,210.50 664.29,217.69 682.86,224.77 701.43,232.02 720.00,254.10 738.57,253.98 757.14,246.60 775.71,209.63 794.29,216.93 812.86,239.12 831.43,253.88 850.00,253.83 868.57,253.83 887.14,253.83 905.71,231.67 924.29,216.95 942.86,239.11 961.43,246.43 980.00,335.21"/>
  <circle cx="70.00" cy="264.08" r="2.5" fill="#2563eb"/>
  <circle cx="88.57" cy="78.85" r="2.5" fill="#2563eb"/>
  <circle cx="107.14" cy="253.89" r="2.5" fill="#2563eb"/>
  <circle cx="125.71" cy="292.71" r="2.5" fill="#2563eb"/>
  <circle cx="144.29" cy="50.00" r="2.5" fill="#2563eb"/>
  <circle cx="162.86" cy="78.27" r="2.5" fill="#2563eb"/>
  <circle cx="181.43" cy="63.76" r="2.5" fill="#2563eb"/>
  <circle cx="200.00" cy="71.41" r="2.5" fill="#2563eb"/>
  <circle cx="218.57" cy="64.86" r="2.5" fill="#2563eb"/>
  <circle cx="237.14" cy="64.10" r="2.5" fill="#2563eb"/>
  <circle cx="255.71" cy="148.63" r="2.5" fill="#2563eb"/>
  <circle cx="274.29" cy="206.71" r="2.5" fill="#2563eb"/>
  <circle cx="292.86" cy="235.41" r="2.5" fill="#2563eb"/>
  <circle cx="311.43" cy="235.42" r="2.5" fill="#2563eb"/>
  <circle cx="330.00" cy="242.59" r="2.5" fill="#2563eb"/>
  <circle cx="348.57" cy="228.26" r="2.5" fill="#2563eb"/>
  <circle cx="367.14" cy="213.91" r="2.5" fill="#2563eb"/>
  <circle cx="385.71" cy="192.40" r="2.5" fill="#2563eb"/>
  <circle cx="404.29" cy="199.59" r="2.5" fill="#2563eb"/>
  <circle cx="422.86" cy="235.43" r="2.5" fill="#2563eb"/>
  <circle cx="441.43" cy="228.26" r="2.5" fill="#2563eb"/>
  <circle cx="460.00" cy="235.41" r="2.5" fill="#2563eb"/>
  <circle cx="478.57" cy="242.53" r="2.5" fill="#2563eb"/>
  <circle cx="497.14" cy="242.57" r="2.5" fill="#2563eb"/>
  <circle cx="515.71" cy="213.92" r="2.5" fill="#2563eb"/>
  <circle cx="534.29" cy="228.26" r="2.5" fill="#2563eb"/>
  <circle cx="552.86" cy="228.19" r="2.5" fill="#2563eb"/>
  <circle cx="571.43" cy="242.02" r="2.5" fill="#2563eb"/>
  <circle cx="590.00" cy="255.89" r="2.5" fill="#2563eb"/>
  <circle cx="608.57" cy="240.65" r="2.5" fill="#2563eb"/>
  <circle cx="627.14" cy="225.52" r="2.5" fill="#2563eb"/>
  <circle cx="645.71" cy="210.50" r="2.5" fill="#2563eb"/>
  <circle cx="664.29" cy="217.69" r="2.5" fill="#2563eb"/>
  <circle cx="682.86" cy="224.77" r="2.5" fill="#2563eb"/>
  <circle cx="701.43" cy="232.02" r="2.5" fill="#2563eb"/>
  <circle cx="720.00" cy="254.10" r="2.5" fill="#2563eb"/>
  <circle cx="738.57" cy="253.98" r="2.5" fill="#2563eb"/>
  <circle cx="757.14" cy="246.60" r="2.5" fill="#2563eb"/>
  <circle cx="775.71" cy="209.63" r="2.5" fill="#2563eb"/>
  <circle cx="794.29" cy="216.93" r="2.5" fill="#2563eb"/>
  <circle cx="812.86" cy="239.12" r="2.5" fill="#2563eb"/>
  <circle cx="831.43" cy="253.88" r="2.5" fill="#2563eb"/>
  <circle cx="850.00" cy="253.83" r="2.5" fill="#2563eb"/>
  <circle cx="868.57" cy="253.83" r="2.5" fill="#2563eb"/>
  <circle cx="887.14" cy="253.83" r="2.5" fill="#2563eb"/>
  <circle cx="905.71" cy="231.67" r="2.5" fill="#2563eb"/>
  <circle cx="924.29" cy="216.95" r="2.5" fill="#2563eb"/>
  <circle cx="942.86" cy="239.11" r="2.5" fill="#2563eb"/>
  <circle cx="961.43" cy="246.43" r="2.5" fill="#2563eb"/>
  <circle cx="980.00" cy="335.21" r="2.5" fill="#2563eb"/>
</svg>
