<?xml version="1.0" encoding="UTF-8"?>
<svg xmlns="http://www.w3.org/2000/svg" width="1000" height="420" viewBox="0 0 1000 420">
  <rect width="100%" height="100%" fill="#ffffff"/>
  <text x="70" y="28" font-size="20" font-weight="600">수집 시점 기준 - 시간별 스냅샷</text>
  <text x="70" y="402" font-size="12" fill="#555">스냅샷 수</text>
  <line x1="70" y1="350.00" x2="980" y2="350.00" stroke="#e5e7eb" stroke-width="1"/>
  <text x="62" y="354.00" font-size="11" fill="#6b7280" text-anchor="end">0</text>
  <line x1="70" y1="290.00" x2="980" y2="290.00" stroke="#e5e7eb" stroke-width="1"/>
  <text x="62" y="294.00" font-size="11" fill="#6b7280" text-anchor="end">1,440</text>
  <line x1="70" y1="230.00" x2="980" y2="230.00" stroke="#e5e7eb" stroke-width="1"/>
  <text x="62" y="234.00" font-size="11" fill="#6b7280" text-anchor="end">2,880</text>
  <line x1="70" y1="170.00" x2="980" y2="170.00" stroke="#e5e7eb" stroke-width="1"/>
  <text x="62" y="174.00" font-size="11" fill="#6b7280" text-anchor="end">4,321</text>
  <line x1="70" y1="110.00" x2="980" y2="110.00" stroke="#e5e7eb" stroke-width="1"/>
  <text x="62" y="114.00" font-size="11" fill="#6b7280" text-anchor="end">5,761</text>
  <line x1="70" y1="50.00" x2="980" y2="50.00" stroke="#e5e7eb" stroke-width="1"/>
  <text x="62" y="54.00" font-size="11" fill="#6b7280" text-anchor="end">7,202</text>
  <line x1="70" y1="350" x2="980" y2="350" stroke="#111827" stroke-width="1.2"/>
  <line x1="70" y1="50" x2="70" y2="350" stroke="#111827" stroke-width="1.2"/>
  <line x1="70.00" y1="350" x2="70.00" y2="356" stroke="#9ca3af" stroke-width="1"/>
  <text x="70.00" y="372" font-size="10" fill="#6b7280" text-anchor="middle">2026-02-28 18</text>
  <line x1="145.14" y1="350" x2="145.14" y2="356" stroke="#9ca3af" stroke-width="1"/>
  <text x="145.14" y="372" font-size="10" fill="#6b7280" text-anchor="middle">2026-03-09 00</text>
  <line x1="220.28" y1="350" x2="220.28" y2="356" stroke="#9ca3af" stroke-width="1"/>
  <text x="220.28" y="372" font-size="10" fill="#6b7280" text-anchor="middle">2026-03-11 01</text>
  <line x1="295.41" y1="350" x2="295.41" y2="356" stroke="#9ca3af" stroke-width="1"/>
  <text x="295.41" y="372" font-size="10" fill="#6b7280" text-anchor="middle">2026-03-13 02</text>
  <line x1="370.55" y1="350" x2="370.55" y2="356" stroke="#9ca3af" stroke-width="1"/>
  <text x="370.55" y="372" font-size="10" fill="#6b7280" text-anchor="middle">2026-03-15 08</text>
  <line x1="445.69" y1="350" x2="445.69" y2="356" stroke="#9ca3af" stroke-width="1"/>
  <text x="445.69" y="372" font-size="10" fill="#6b7280" text-anchor="middle">2026-03-18 08</text>
  <line x1="520.83" y1="350" x2="520.83" y2="356" stroke="#9ca3af" stroke-width="1"/>
  <text x="520.83" y="372" font-size="10" fill="#6b7280" text-anchor="middle">2026-03-21 04</text>
  <line x1="595.96" y1="350" x2="595.96" y2="356" stroke="#9ca3af" stroke-width="1"/>
  <text x="595.96" y="372" font-size="10" fill="#6b7280" text-anchor="middle">2026-03-23 20</text>
  <line x1="671.10" y1="350" x2="671.10" y2="356" stroke="#9ca3af" stroke-width="1"/>
  <text x="671.10" y="372" font-size="10" fill="#6b7280" text-anchor="middle">2026-03-26 21</text>
  <line x1="746.24" y1="350" x2="746.24" y2="356" stroke="#9ca3af" stroke-width="1"/>
  <text x="746.24" y="372" font-size="10" fill="#6b7280" text-anchor="middle">2026-03-29 22</text>
  <line x1="821.38" y1="350" x2="821.38" y2="356" stroke="#9ca3af" stroke-width="1"/>
  <text x="821.38" y="372" font-size="10" fill="#6b7280" text-anchor="middle">2026-04-02 03</text>
  <line x1="896.51" y1="350" x2="896.51" y2="356" stroke="#9ca3af" stroke-width="1"/>
  <text x="896.51" y="372" font-size="10" fill="#6b7280" text-anchor="middle">2026-04-05 02</text>
  <line x1="971.65" y1="350" x2="971.65" y2="356" stroke="#9ca3af" stroke-width="1"/>
  <text x="971.65" y="372" font-size="10" fill="#6b7280" text-anchor="middle">2026-04-08 05</text>
  <line x1="980.00" y1="350" x2="980.00" y2="356" stroke="#9ca3af" stroke-width="1"/>
  <text x="980.00" y="372" font-size="10" fill="#6b7280" text-anchor="middle">2026-04-08 12</text>
  <polyline fill="none" stroke="#2563eb" stroke-width="2.5" points="70.00,50.00 71.67,50.12 73.34,50.17 75.01,50.46 76.68,50.00 78.35,266.90 80.02,50.12 81.69,50.08 83.36,177.46 85.03,211.58 86.70,175.34 88.37,304.14 90.04,200.46 91.71,250.94 93.38,300.01 95.05,300.06 96.72,300.01 98.39,300.01 100.06,348.00 101.72,300.01 103.39,249.99 105.06,200.00 106.73,249.99 108.40,249.99 110.07,250.03 111.74,250.03 113.41,250.03 115.08,250.40 116.75,250.90 118.42,250.90 120.09,251.32 121.76,249.94 123.43,300.01 125.10,299.93 126.77,251.03 128.44,300.68 130.11,250.03 131.78,200.00 133.45,249.99 135.12,250.03 136.79,250.03 138.46,250.03 140.13,300.01 141.80,200.04 143.47,250.03 145.14,250.03 146.81,250.03 148.48,249.90 150.15,250.03 151.82,250.03 153.49,250.94 155.16,250.44 156.83,250.03 158.50,250.03 160.17,300.47 161.83,300.01 163.50,300.43 165.17,250.03 166.84,249.99 168.51,300.43 170.18,249.90 171.85,249.99 173.52,249.99 175.19,200.04 176.86,300.01 178.53,300.01 180.20,300.01 181.87,249.90 183.54,300.01 185.21,250.03 186.88,249.99 188.55,199.96 190.22,300.01 191.89,200.00 193.56,250.36 195.23,250.03 196.90,300.01 198.57,300.01 200.24,250.44 201.91,300.01 203.58,250.03 205.25,250.03 206.92,249.99 208.59,250.49 210.26,250.03 211.93,200.04 213.60,300.01 215.27,250.03 216.94,300.01 218.61,250.11 220.28,300.01 221.94,250.03 223.61,250.03 225.28,199.92 226.95,250.03 228.62,250.03 230.29,250.03 231.96,254.36 233.63,300.01 235.30,299.97 236.97,250.36 238.64,299.97 240.31,250.03 241.98,250.03 243.65,250.03 245.32,250.03 246.99,249.99 248.66,200.00 250.33,299.93 252.00,300.01 253.67,299.97 255.34,249.94 257.01,249.99 258.68,249.82 260.35,249.94 262.02,250.28 263.69,207.00 265.36,250.03 267.03,250.32 268.70,250.40 270.37,300.93 272.04,300.01 273.71,300.10 275.38,249.94 277.05,249.99 278.72,250.07 280.39,249.99 282.06,250.03 283.72,249.94 285.39,200.00 287.06,300.39 288.73,300.01 290.40,300.01 292.07,250.44 293.74,300.39 295.41,249.86 297.08,250.11 298.75,201.46 300.42,300.01 302.09,200.83 303.76,250.03 305.43,249.99 307.10,300.26 308.77,300.01 310.44,300.01 312.11,250.03 313.78,250.03 315.45,250.03 317.12,250.03 318.79,249.99 320.46,250.03 322.13,200.00 323.80,300.26 325.47,249.99 327.14,300.01 328.81,249.94 330.48,250.03 332.15,250.03 333.82,250.03 335.49,200.04 337.16,300.01 338.83,249.90 340.50,300.01 342.17,300.01 343.83,300.06 345.50,300.01 347.17,300.01 348.84,243.95 350.51,249.94 352.18,299.97 353.85,300.01 355.52,300.01 357.19,250.03 358.86,300.01 360.53,300.01 362.20,299.97 363.87,249.99 365.54,300.01 367.21,299.93 368.88,300.01 370.55,299.93 372.22,300.01 373.89,300.01 375.56,299.89 377.23,299.97 378.90,250.03 380.57,299.93 382.24,299.89 383.91,299.97 385.58,249.94 387.25,300.01 388.92,300.01 390.59,299.97 392.26,249.99 393.93,299.97 395.60,299.97 397.27,300.06 398.94,300.06 400.61,299.93 402.28,300.01 403.94,300.01 405.61,299.93 407.28,300.01 408.95,300.01 410.62,299.97 412.29,300.01 413.96,300.01 415.63,300.01 417.30,300.01 418.97,249.86 420.64,300.01 422.31,300.10 423.98,299.93 425.65,300.01 427.32,299.93 428.99,300.01 430.66,300.01 432.33,300.01 434.00,300.01 435.67,300.01 437.34,299.97 439.01,300.01 440.68,300.01 442.35,300.01 444.02,300.01 445.69,250.03 447.36,300.01 449.03,300.01 450.70,299.97 452.37,300.01 454.04,300.01 455.71,299.97 457.38,299.97 459.05,300.01 460.72,299.97 462.39,300.01 464.06,299.93 465.72,300.01 467.39,250.03 469.06,300.01 470.73,300.01 472.40,300.01 474.07,300.01 475.74,300.01 477.41,299.89 479.08,300.01 480.75,300.01 482.42,250.07 484.09,300.01 485.76,299.93 487.43,300.01 489.10,299.97 490.77,299.97 492.44,299.97 494.11,250.03 495.78,300.01 497.45,300.01 499.12,300.01 500.79,300.01 502.46,299.97 504.13,300.01 505.80,299.97 507.47,300.01 509.14,299.97 510.81,249.90 512.48,300.01 514.15,300.01 515.82,299.89 517.49,299.97 519.16,299.97 520.83,249.99 522.50,299.97 524.17,299.89 525.83,300.01 527.50,299.97 529.17,299.97 530.84,300.01 532.51,299.97 534.18,249.99 535.85,299.97 537.52,299.97 539.19,300.06 540.86,300.06 542.53,249.94 544.20,300.01 545.87,299.93 547.54,300.01 549.21,300.01 550.88,249.99 552.55,300.01 554.22,300.01 555.89,300.01 557.56,299.93 559.23,299.93 560.90,300.01 562.57,300.01 564.24,249.94 565.91,299.97 567.58,299.97 569.25,300.01 570.92,300.01 572.59,300.01 574.26,249.99 575.93,300.01 577.60,300.01 579.27,300.01 580.94,250.03 582.61,300.01 584.28,300.01 585.94,300.01 587.61,299.97 589.28,300.01 590.95,300.01 592.62,299.97 594.29,299.97 595.96,300.01 597.63,300.01 599.30,299.97 600.97,299.93 602.64,300.01 604.31,300.06 605.98,299.97 607.65,300.01 609.32,250.03 610.99,250.03 612.66,299.93 614.33,299.97 616.00,300.01 617.67,300.01 619.34,300.06 621.01,300.01 622.68,299.93 624.35,300.01 626.02,300.01 627.69,299.97 629.36,299.97 631.03,300.01 632.70,250.03 634.37,300.01 636.04,300.01 637.71,300.01 639.38,299.97 641.05,300.01 642.72,299.97 644.39,300.01 646.06,299.97 647.72,299.97 649.39,299.93 651.06,300.01 652.73,300.01 654.40,299.89 656.07,299.97 657.74,299.97 659.41,300.06 661.08,249.90 662.75,299.89 664.42,300.01 666.09,299.97 667.76,299.97 669.43,299.97 671.10,300.01 672.77,300.01 674.44,299.97 676.11,299.97 677.78,299.97 679.45,250.03 681.12,299.93 682.79,300.01 684.46,300.01 686.13,299.93 687.80,300.01 689.47,300.01 691.14,299.97 692.81,300.01 694.48,300.01 696.15,300.06 697.82,300.01 699.49,299.97 701.16,299.89 702.83,300.01 704.50,300.01 706.17,249.94 707.83,249.94 709.50,300.01 711.17,300.01 712.84,300.01 714.51,300.01 716.18,299.97 717.85,250.03 719.52,300.01 721.19,300.01 722.86,300.01 724.53,300.01 726.20,250.03 727.87,249.99 729.54,300.01 731.21,299.97 732.88,300.01 734.55,299.97 736.22,300.01 737.89,299.97 739.56,299.97 741.23,299.97 742.90,300.06 744.57,249.99 746.24,300.01 747.91,250.03 749.58,249.94 751.25,249.99 752.92,300.01 754.59,300.06 756.26,300.01 757.93,299.97 759.60,299.97 761.27,300.01 762.94,299.93 764.61,299.89 766.28,299.89 767.94,299.89 769.61,299.89 771.28,299.85 772.95,299.85 774.62,299.89 776.29,299.81 777.96,299.81 779.63,299.81 781.30,299.76 782.97,299.76 784.64,299.76 786.31,299.72 787.98,299.68 789.65,299.60 791.32,299.60 792.99,299.60 794.66,299.56 796.33,299.47 798.00,299.43 799.67,299.43 801.34,299.39 803.01,299.47 804.68,259.82 806.35,338.96 808.02,299.31 809.69,299.31 811.36,299.26 813.03,299.68 814.70,299.68 816.37,299.68 818.04,299.64 819.71,299.14 821.38,299.14 823.05,299.10 824.72,299.10 826.39,299.10 828.06,248.07 829.72,299.06 831.39,299.06 833.06,299.06 834.73,299.06 836.40,299.06 838.07,298.97 839.74,298.97 841.41,298.93 843.08,298.97 844.75,298.93 846.42,298.89 848.09,298.89 849.76,298.89 851.43,298.89 853.10,247.78 854.77,298.89 856.44,298.89 858.11,298.85 859.78,298.85 861.45,298.81 863.12,298.81 864.79,298.81 866.46,298.81 868.13,298.81 869.80,298.81 871.47,298.81 873.14,298.81 874.81,298.81 876.48,298.72 878.15,247.45 879.82,247.45 881.49,298.72 883.16,298.72 884.83,298.72 886.50,298.72 888.17,298.72 889.83,298.72 891.50,247.36 893.17,298.68 894.84,247.36 896.51,247.36 898.18,247.36 899.85,298.68 901.52,298.68 903.19,298.68 904.86,298.68 906.53,298.68 908.20,341.67 909.87,307.01 911.54,298.68 913.21,298.68 914.88,298.68 916.55,247.36 918.22,298.64 919.89,247.36 921.56,247.28 923.23,247.20 924.90,298.60 926.57,298.60 928.24,247.03 929.91,298.51 931.58,298.51 933.25,298.51 934.92,298.51 936.59,298.51 938.26,298.51 939.93,298.51 941.60,298.51 943.27,298.51 944.94,298.51 946.61,298.51 948.28,298.51 949.94,298.51 951.61,298.51 953.28,298.51 954.95,298.51 956.62,298.51 958.29,298.51 959.96,298.51 961.63,298.51 963.30,298.51 964.97,298.51 966.64,298.51 968.31,298.51 969.98,298.51 971.65,298.51 973.32,298.47 974.99,298.51 976.66,298.51 978.33,298.47 980.00,298.51"/>
  <circle cx="70.00" cy="50.00" r="2.5" fill="#2563eb"/>
  <circle cx="71.67" cy="50.12" r="2.5" fill="#2563eb"/>
  <circle cx="73.34" cy="50.17" r="2.5" fill="#2563eb"/>
  <circle cx="75.01" cy="50.46" r="2.5" fill="#2563eb"/>
  <circle cx="76.68" cy="50.00" r="2.5" fill="#2563eb"/>
  <circle cx="78.35" cy="266.90" r="2.5" fill="#2563eb"/>
  <circle cx="80.02" cy="50.12" r="2.5" fill="#2563eb"/>
  <circle cx="81.69" cy="50.08" r="2.5" fill="#2563eb"/>
  <circle cx="83.36" cy="177.46" r="2.5" fill="#2563eb"/>
  <circle cx="85.03" cy="211.58" r="2.5" fill="#2563eb"/>
  <circle cx="86.70" cy="175.34" r="2.5" fill="#2563eb"/>
  <circle cx="88.37" cy="304.14" r="2.5" fill="#2563eb"/>
  <circle cx="90.04" cy="200.46" r="2.5" fill="#2563eb"/>
  <circle cx="91.71" cy="250.94" r="2.5" fill="#2563eb"/>
  <circle cx="93.38" cy="300.01" r="2.5" fill="#2563eb"/>
  <circle cx="95.05" cy="300.06" r="2.5" fill="#2563eb"/>
  <circle cx="96.72" cy="300.01" r="2.5" fill="#2563eb"/>
  <circle cx="98.39" cy="300.01" r="2.5" fill="#2563eb"/>
  <circle cx="100.06" cy="348.00" r="2.5" fill="#2563eb"/>
  <circle cx="101.72" cy="300.01" r="2.5" fill="#2563eb"/>
  <circle cx="103.39" cy="249.99" r="2.5" fill="#2563eb"/>
  <circle cx="105.06" cy="200.00" r="2.5" fill="#2563eb"/>
  <circle cx="106.73" cy="249.99" r="2.5" fill="#2563eb"/>
  <circle cx="108.40" cy="249.99" r="2.5" fill="#2563eb"/>
  <circle cx="110.07" cy="250.03" r="2.5" fill="#2563eb"/>
  <circle cx="111.74" cy="250.03" r="2.5" fill="#2563eb"/>
  <circle cx="113.41" cy="250.03" r="2.5" fill="#2563eb"/>
  <circle cx="115.08" cy="250.40" r="2.5" fill="#2563eb"/>
  <circle cx="116.75" cy="250.90" r="2.5" fill="#2563eb"/>
  <circle cx="118.42" cy="250.90" r="2.5" fill="#2563eb"/>
  <circle cx="120.09" cy="251.32" r="2.5" fill="#2563eb"/>
  <circle cx="121.76" cy="249.94" r="2.5" fill="#2563eb"/>
  <circle cx="123.43" cy="300.01" r="2.5" fill="#2563eb"/>
  <circle cx="125.10" cy="299.93" r="2.5" fill="#2563eb"/>
  <circle cx="126.77" cy="251.03" r="2.5" fill="#2563eb"/>
  <circle cx="128.44" cy="300.68" r="2.5" fill="#2563eb"/>
  <circle cx="130.11" cy="250.03" r="2.5" fill="#2563eb"/>
  <circle cx="131.78" cy="200.00" r="2.5" fill="#2563eb"/>
  <circle cx="133.45" cy="249.99" r="2.5" fill="#2563eb"/>
  <circle cx="135.12" cy="250.03" r="2.5" fill="#2563eb"/>
  <circle cx="136.79" cy="250.03" r="2.5" fill="#2563eb"/>
  <circle cx="138.46" cy="250.03" r="2.5" fill="#2563eb"/>
  <circle cx="140.13" cy="300.01" r="2.5" fill="#2563eb"/>
  <circle cx="141.80" cy="200.04" r="2.5" fill="#2563eb"/>
  <circle cx="143.47" cy="250.03" r="2.5" fill="#2563eb"/>
  <circle cx="145.14" cy="250.03" r="2.5" fill="#2563eb"/>
  <circle cx="146.81" cy="250.03" r="2.5" fill="#2563eb"/>
  <circle cx="148.48" cy="249.90" r="2.5" fill="#2563eb"/>
  <circle cx="150.15" cy="250.03" r="2.5" fill="#2563eb"/>
  <circle cx="151.82" cy="250.03" r="2.5" fill="#2563eb"/>
  <circle cx="153.49" cy="250.94" r="2.5" fill="#2563eb"/>
  <circle cx="155.16" cy="250.44" r="2.5" fill="#2563eb"/>
  <circle cx="156.83" cy="250.03" r="2.5" fill="#2563eb"/>
  <circle cx="158.50" cy="250.03" r="2.5" fill="#2563eb"/>
  <circle cx="160.17" cy="300.47" r="2.5" fill="#2563eb"/>
  <circle cx="161.83" cy="300.01" r="2.5" fill="#2563eb"/>
  <circle cx="163.50" cy="300.43" r="2.5" fill="#2563eb"/>
  <circle cx="165.17" cy="250.03" r="2.5" fill="#2563eb"/>
  <circle cx="166.84" cy="249.99" r="2.5" fill="#2563eb"/>
  <circle cx="168.51" cy="300.43" r="2.5" fill="#2563eb"/>
  <circle cx="170.18" cy="249.90" r="2.5" fill="#2563eb"/>
  <circle cx="171.85" cy="249.99" r="2.5" fill="#2563eb"/>
  <circle cx="173.52" cy="249.99" r="2.5" fill="#2563eb"/>
  <circle cx="175.19" cy="200.04" r="2.5" fill="#2563eb"/>
  <circle cx="176.86" cy="300.01" r="2.5" fill="#2563eb"/>
  <circle cx="178.53" cy="300.01" r="2.5" fill="#2563eb"/>
  <circle cx="180.20" cy="300.01" r="2.5" fill="#2563eb"/>
  <circle cx="181.87" cy="249.90" r="2.5" fill="#2563eb"/>
  <circle cx="183.54" cy="300.01" r="2.5" fill="#2563eb"/>
  <circle cx="185.21" cy="250.03" r="2.5" fill="#2563eb"/>
  <circle cx="186.88" cy="249.99" r="2.5" fill="#2563eb"/>
  <circle cx="188.55" cy="199.96" r="2.5" fill="#2563eb"/>
  <circle cx="190.22" cy="300.01" r="2.5" fill="#2563eb"/>
  <circle cx="191.89" cy="200.00" r="2.5" fill="#2563eb"/>
  <circle cx="193.56" cy="250.36" r="2.5" fill="#2563eb"/>
  <circle cx="195.23" cy="250.03" r="2.5" fill="#2563eb"/>
  <circle cx="196.90" cy="300.01" r="2.5" fill="#2563eb"/>
  <circle cx="198.57" cy="300.01" r="2.5" fill="#2563eb"/>
  <circle cx="200.24" cy="250.44" r="2.5" fill="#2563eb"/>
  <circle cx="201.91" cy="300.01" r="2.5" fill="#2563eb"/>
  <circle cx="203.58" cy="250.03" r="2.5" fill="#2563eb"/>
  <circle cx="205.25" cy="250.03" r="2.5" fill="#2563eb"/>
  <circle cx="206.92" cy="249.99" r="2.5" fill="#2563eb"/>
  <circle cx="208.59" cy="250.49" r="2.5" fill="#2563eb"/>
  <circle cx="210.26" cy="250.03" r="2.5" fill="#2563eb"/>
  <circle cx="211.93" cy="200.04" r="2.5" fill="#2563eb"/>
  <circle cx="213.60" cy="300.01" r="2.5" fill="#2563eb"/>
  <circle cx="215.27" cy="250.03" r="2.5" fill="#2563eb"/>
  <circle cx="216.94" cy="300.01" r="2.5" fill="#2563eb"/>
  <circle cx="218.61" cy="250.11" r="2.5" fill="#2563eb"/>
  <circle cx="220.28" cy="300.01" r="2.5" fill="#2563eb"/>
  <circle cx="221.94" cy="250.03" r="2.5" fill="#2563eb"/>
  <circle cx="223.61" cy="250.03" r="2.5" fill="#2563eb"/>
  <circle cx="225.28" cy="199.92" r="2.5" fill="#2563eb"/>
  <circle cx="226.95" cy="250.03" r="2.5" fill="#2563eb"/>
  <circle cx="228.62" cy="250.03" r="2.5" fill="#2563eb"/>
  <circle cx="230.29" cy="250.03" r="2.5" fill="#2563eb"/>
  <circle cx="231.96" cy="254.36" r="2.5" fill="#2563eb"/>
  <circle cx="233.63" cy="300.01" r="2.5" fill="#2563eb"/>
  <circle cx="235.30" cy="299.97" r="2.5" fill="#2563eb"/>
  <circle cx="236.97" cy="250.36" r="2.5" fill="#2563eb"/>
  <circle cx="238.64" cy="299.97" r="2.5" fill="#2563eb"/>
  <circle cx="240.31" cy="250.03" r="2.5" fill="#2563eb"/>
  <circle cx="241.98" cy="250.03" r="2.5" fill="#2563eb"/>
  <circle cx="243.65" cy="250.03" r="2.5" fill="#2563eb"/>
  <circle cx="245.32" cy="250.03" r="2.5" fill="#2563eb"/>
  <circle cx="246.99" cy="249.99" r="2.5" fill="#2563eb"/>
  <circle cx="248.66" cy="200.00" r="2.5" fill="#2563eb"/>
  <circle cx="250.33" cy="299.93" r="2.5" fill="#2563eb"/>
  <circle cx="252.00" cy="300.01" r="2.5" fill="#2563eb"/>
  <circle cx="253.67" cy="299.97" r="2.5" fill="#2563eb"/>
  <circle cx="255.34" cy="249.94" r="2.5" fill="#2563eb"/>
  <circle cx="257.01" cy="249.99" r="2.5" fill="#2563eb"/>
  <circle cx="258.68" cy="249.82" r="2.5" fill="#2563eb"/>
  <circle cx="260.35" cy="249.94" r="2.5" fill="#2563eb"/>
  <circle cx="262.02" cy="250.28" r="2.5" fill="#2563eb"/>
  <circle cx="263.69" cy="207.00" r="2.5" fill="#2563eb"/>
  <circle cx="265.36" cy="250.03" r="2.5" fill="#2563eb"/>
  <circle cx="267.03" cy="250.32" r="2.5" fill="#2563eb"/>
  <circle cx="268.70" cy="250.40" r="2.5" fill="#2563eb"/>
  <circle cx="270.37" cy="300.93" r="2.5" fill="#2563eb"/>
  <circle cx="272.04" cy="300.01" r="2.5" fill="#2563eb"/>
  <circle cx="273.71" cy="300.10" r="2.5" fill="#2563eb"/>
  <circle cx="275.38" cy="249.94" r="2.5" fill="#2563eb"/>
  <circle cx="277.05" cy="249.99" r="2.5" fill="#2563eb"/>
  <circle cx="278.72" cy="250.07" r="2.5" fill="#2563eb"/>
  <circle cx="280.39" cy="249.99" r="2.5" fill="#2563eb"/>
  <circle cx="282.06" cy="250.03" r="2.5" fill="#2563eb"/>
  <circle cx="283.72" cy="249.94" r="2.5" fill="#2563eb"/>
  <circle cx="285.39" cy="200.00" r="2.5" fill="#2563eb"/>
  <circle cx="287.06" cy="300.39" r="2.5" fill="#2563eb"/>
  <circle cx="288.73" cy="300.01" r="2.5" fill="#2563eb"/>
  <circle cx="290.40" cy="300.01" r="2.5" fill="#2563eb"/>
  <circle cx="292.07" cy="250.44" r="2.5" fill="#2563eb"/>
  <circle cx="293.74" cy="300.39" r="2.5" fill="#2563eb"/>
  <circle cx="295.41" cy="249.86" r="2.5" fill="#2563eb"/>
  <circle cx="297.08" cy="250.11" r="2.5" fill="#2563eb"/>
  <circle cx="298.75" cy="201.46" r="2.5" fill="#2563eb"/>
  <circle cx="300.42" cy="300.01" r="2.5" fill="#2563eb"/>
  <circle cx="302.09" cy="200.83" r="2.5" fill="#2563eb"/>
  <circle cx="303.76" cy="250.03" r="2.5" fill="#2563eb"/>
  <circle cx="305.43" cy="249.99" r="2.5" fill="#2563eb"/>
  <circle cx="307.10" cy="300.26" r="2.5" fill="#2563eb"/>
  <circle cx="308.77" cy="300.01" r="2.5" fill="#2563eb"/>
  <circle cx="310.44" cy="300.01" r="2.5" fill="#2563eb"/>
  <circle cx="312.11" cy="250.03" r="2.5" fill="#2563eb"/>
  <circle cx="313.78" cy="250.03" r="2.5" fill="#2563eb"/>
  <circle cx="315.45" cy="250.03" r="2.5" fill="#2563eb"/>
  <circle cx="317.12" cy="250.03" r="2.5" fill="#2563eb"/>
  <circle cx="318.79" cy="249.99" r="2.5" fill="#2563eb"/>
  <circle cx="320.46" cy="250.03" r="2.5" fill="#2563eb"/>
  <circle cx="322.13" cy="200.00" r="2.5" fill="#2563eb"/>
  <circle cx="323.80" cy="300.26" r="2.5" fill="#2563eb"/>
  <circle cx="325.47" cy="249.99" r="2.5" fill="#2563eb"/>
  <circle cx="327.14" cy="300.01" r="2.5" fill="#2563eb"/>
  <circle cx="328.81" cy="249.94" r="2.5" fill="#2563eb"/>
  <circle cx="330.48" cy="250.03" r="2.5" fill="#2563eb"/>
  <circle cx="332.15" cy="250.03" r="2.5" fill="#2563eb"/>
  <circle cx="333.82" cy="250.03" r="2.5" fill="#2563eb"/>
  <circle cx="335.49" cy="200.04" r="2.5" fill="#2563eb"/>
  <circle cx="337.16" cy="300.01" r="2.5" fill="#2563eb"/>
  <circle cx="338.83" cy="249.90" r="2.5" fill="#2563eb"/>
  <circle cx="340.50" cy="300.01" r="2.5" fill="#2563eb"/>
  <circle cx="342.17" cy="300.01" r="2.5" fill="#2563eb"/>
  <circle cx="343.83" cy="300.06" r="2.5" fill="#2563eb"/>
  <circle cx="345.50" cy="300.01" r="2.5" fill="#2563eb"/>
  <circle cx="347.17" cy="300.01" r="2.5" fill="#2563eb"/>
  <circle cx="348.84" cy="243.95" r="2.5" fill="#2563eb"/>
  <circle cx="350.51" cy="249.94" r="2.5" fill="#2563eb"/>
  <circle cx="352.18" cy="299.97" r="2.5" fill="#2563eb"/>
  <circle cx="353.85" cy="300.01" r="2.5" fill="#2563eb"/>
  <circle cx="355.52" cy="300.01" r="2.5" fill="#2563eb"/>
  <circle cx="357.19" cy="250.03" r="2.5" fill="#2563eb"/>
  <circle cx="358.86" cy="300.01" r="2.5" fill="#2563eb"/>
  <circle cx="360.53" cy="300.01" r="2.5" fill="#2563eb"/>
  <circle cx="362.20" cy="299.97" r="2.5" fill="#2563eb"/>
  <circle cx="363.87" cy="249.99" r="2.5" fill="#2563eb"/>
  <circle cx="365.54" cy="300.01" r="2.5" fill="#2563eb"/>
  <circle cx="367.21" cy="299.93" r="2.5" fill="#2563eb"/>
  <circle cx="368.88" cy="300.01" r="2.5" fill="#2563eb"/>
  <circle cx="370.55" cy="299.93" r="2.5" fill="#2563eb"/>
  <circle cx="372.22" cy="300.01" r="2.5" fill="#2563eb"/>
  <circle cx="373.89" cy="300.01" r="2.5" fill="#2563eb"/>
  <circle cx="375.56" cy="299.89" r="2.5" fill="#2563eb"/>
  <circle cx="377.23" cy="299.97" r="2.5" fill="#2563eb"/>
  <circle cx="378.90" cy="250.03" r="2.5" fill="#2563eb"/>
  <circle cx="380.57" cy="299.93" r="2.5" fill="#2563eb"/>
  <circle cx="382.24" cy="299.89" r="2.5" fill="#2563eb"/>
  <circle cx="383.91" cy="299.97" r="2.5" fill="#2563eb"/>
  <circle cx="385.58" cy="249.94" r="2.5" fill="#2563eb"/>
  <circle cx="387.25" cy="300.01" r="2.5" fill="#2563eb"/>
  <circle cx="388.92" cy="300.01" r="2.5" fill="#2563eb"/>
  <circle cx="390.59" cy="299.97" r="2.5" fill="#2563eb"/>
  <circle cx="392.26" cy="249.99" r="2.5" fill="#2563eb"/>
  <circle cx="393.93" cy="299.97" r="2.5" fill="#2563eb"/>
  <circle cx="395.60" cy="299.97" r="2.5" fill="#2563eb"/>
  <circle cx="397.27" cy="300.06" r="2.5" fill="#2563eb"/>
  <circle cx="398.94" cy="300.06" r="2.5" fill="#2563eb"/>
  <circle cx="400.61" cy="299.93" r="2.5" fill="#2563eb"/>
  <circle cx="402.28" cy="300.01" r="2.5" fill="#2563eb"/>
  <circle cx="403.94" cy="300.01" r="2.5" fill="#2563eb"/>
  <circle cx="405.61" cy="299.93" r="2.5" fill="#2563eb"/>
  <circle cx="407.28" cy="300.01" r="2.5" fill="#2563eb"/>
  <circle cx="408.95" cy="300.01" r="2.5" fill="#2563eb"/>
  <circle cx="410.62" cy="299.97" r="2.5" fill="#2563eb"/>
  <circle cx="412.29" cy="300.01" r="2.5" fill="#2563eb"/>
  <circle cx="413.96" cy="300.01" r="2.5" fill="#2563eb"/>
  <circle cx="415.63" cy="300.01" r="2.5" fill="#2563eb"/>
  <circle cx="417.30" cy="300.01" r="2.5" fill="#2563eb"/>
  <circle cx="418.97" cy="249.86" r="2.5" fill="#2563eb"/>
  <circle cx="420.64" cy="300.01" r="2.5" fill="#2563eb"/>
  <circle cx="422.31" cy="300.10" r="2.5" fill="#2563eb"/>
  <circle cx="423.98" cy="299.93" r="2.5" fill="#2563eb"/>
  <circle cx="425.65" cy="300.01" r="2.5" fill="#2563eb"/>
  <circle cx="427.32" cy="299.93" r="2.5" fill="#2563eb"/>
  <circle cx="428.99" cy="300.01" r="2.5" fill="#2563eb"/>
  <circle cx="430.66" cy="300.01" r="2.5" fill="#2563eb"/>
  <circle cx="432.33" cy="300.01" r="2.5" fill="#2563eb"/>
  <circle cx="434.00" cy="300.01" r="2.5" fill="#2563eb"/>
  <circle cx="435.67" cy="300.01" r="2.5" fill="#2563eb"/>
  <circle cx="437.34" cy="299.97" r="2.5" fill="#2563eb"/>
  <circle cx="439.01" cy="300.01" r="2.5" fill="#2563eb"/>
  <circle cx="440.68" cy="300.01" r="2.5" fill="#2563eb"/>
  <circle cx="442.35" cy="300.01" r="2.5" fill="#2563eb"/>
  <circle cx="444.02" cy="300.01" r="2.5" fill="#2563eb"/>
  <circle cx="445.69" cy="250.03" r="2.5" fill="#2563eb"/>
  <circle cx="447.36" cy="300.01" r="2.5" fill="#2563eb"/>
  <circle cx="449.03" cy="300.01" r="2.5" fill="#2563eb"/>
  <circle cx="450.70" cy="299.97" r="2.5" fill="#2563eb"/>
  <circle cx="452.37" cy="300.01" r="2.5" fill="#2563eb"/>
  <circle cx="454.04" cy="300.01" r="2.5" fill="#2563eb"/>
  <circle cx="455.71" cy="299.97" r="2.5" fill="#2563eb"/>
  <circle cx="457.38" cy="299.97" r="2.5" fill="#2563eb"/>
  <circle cx="459.05" cy="300.01" r="2.5" fill="#2563eb"/>
  <circle cx="460.72" cy="299.97" r="2.5" fill="#2563eb"/>
  <circle cx="462.39" cy="300.01" r="2.5" fill="#2563eb"/>
  <circle cx="464.06" cy="299.93" r="2.5" fill="#2563eb"/>
  <circle cx="465.72" cy="300.01" r="2.5" fill="#2563eb"/>
  <circle cx="467.39" cy="250.03" r="2.5" fill="#2563eb"/>
  <circle cx="469.06" cy="300.01" r="2.5" fill="#2563eb"/>
  <circle cx="470.73" cy="300.01" r="2.5" fill="#2563eb"/>
  <circle cx="472.40" cy="300.01" r="2.5" fill="#2563eb"/>
  <circle cx="474.07" cy="300.01" r="2.5" fill="#2563eb"/>
  <circle cx="475.74" cy="300.01" r="2.5" fill="#2563eb"/>
  <circle cx="477.41" cy="299.89" r="2.5" fill="#2563eb"/>
  <circle cx="479.08" cy="300.01" r="2.5" fill="#2563eb"/>
  <circle cx="480.75" cy="300.01" r="2.5" fill="#2563eb"/>
  <circle cx="482.42" cy="250.07" r="2.5" fill="#2563eb"/>
  <circle cx="484.09" cy="300.01" r="2.5" fill="#2563eb"/>
  <circle cx="485.76" cy="299.93" r="2.5" fill="#2563eb"/>
  <circle cx="487.43" cy="300.01" r="2.5" fill="#2563eb"/>
  <circle cx="489.10" cy="299.97" r="2.5" fill="#2563eb"/>
  <circle cx="490.77" cy="299.97" r="2.5" fill="#2563eb"/>
  <circle cx="492.44" cy="299.97" r="2.5" fill="#2563eb"/>
  <circle cx="494.11" cy="250.03" r="2.5" fill="#2563eb"/>
  <circle cx="495.78" cy="300.01" r="2.5" fill="#2563eb"/>
  <circle cx="497.45" cy="300.01" r="2.5" fill="#2563eb"/>
  <circle cx="499.12" cy="300.01" r="2.5" fill="#2563eb"/>
  <circle cx="500.79" cy="300.01" r="2.5" fill="#2563eb"/>
  <circle cx="502.46" cy="299.97" r="2.5" fill="#2563eb"/>
  <circle cx="504.13" cy="300.01" r="2.5" fill="#2563eb"/>
  <circle cx="505.80" cy="299.97" r="2.5" fill="#2563eb"/>
  <circle cx="507.47" cy="300.01" r="2.5" fill="#2563eb"/>
  <circle cx="509.14" cy="299.97" r="2.5" fill="#2563eb"/>
  <circle cx="510.81" cy="249.90" r="2.5" fill="#2563eb"/>
  <circle cx="512.48" cy="300.01" r="2.5" fill="#2563eb"/>
  <circle cx="514.15" cy="300.01" r="2.5" fill="#2563eb"/>
  <circle cx="515.82" cy="299.89" r="2.5" fill="#2563eb"/>
  <circle cx="517.49" cy="299.97" r="2.5" fill="#2563eb"/>
  <circle cx="519.16" cy="299.97" r="2.5" fill="#2563eb"/>
  <circle cx="520.83" cy="249.99" r="2.5" fill="#2563eb"/>
  <circle cx="522.50" cy="299.97" r="2.5" fill="#2563eb"/>
  <circle cx="524.17" cy="299.89" r="2.5" fill="#2563eb"/>
  <circle cx="525.83" cy="300.01" r="2.5" fill="#2563eb"/>
  <circle cx="527.50" cy="299.97" r="2.5" fill="#2563eb"/>
  <circle cx="529.17" cy="299.97" r="2.5" fill="#2563eb"/>
  <circle cx="530.84" cy="300.01" r="2.5" fill="#2563eb"/>
  <circle cx="532.51" cy="299.97" r="2.5" fill="#2563eb"/>
  <circle cx="534.18" cy="249.99" r="2.5" fill="#2563eb"/>
  <circle cx="535.85" cy="299.97" r="2.5" fill="#2563eb"/>
  <circle cx="537.52" cy="299.97" r="2.5" fill="#2563eb"/>
  <circle cx="539.19" cy="300.06" r="2.5" fill="#2563eb"/>
  <circle cx="540.86" cy="300.06" r="2.5" fill="#2563eb"/>
  <circle cx="542.53" cy="249.94" r="2.5" fill="#2563eb"/>
  <circle cx="544.20" cy="300.01" r="2.5" fill="#2563eb"/>
  <circle cx="545.87" cy="299.93" r="2.5" fill="#2563eb"/>
  <circle cx="547.54" cy="300.01" r="2.5" fill="#2563eb"/>
  <circle cx="549.21" cy="300.01" r="2.5" fill="#2563eb"/>
  <circle cx="550.88" cy="249.99" r="2.5" fill="#2563eb"/>
  <circle cx="552.55" cy="300.01" r="2.5" fill="#2563eb"/>
  <circle cx="554.22" cy="300.01" r="2.5" fill="#2563eb"/>
  <circle cx="555.89" cy="300.01" r="2.5" fill="#2563eb"/>
  <circle cx="557.56" cy="299.93" r="2.5" fill="#2563eb"/>
  <circle cx="559.23" cy="299.93" r="2.5" fill="#2563eb"/>
  <circle cx="560.90" cy="300.01" r="2.5" fill="#2563eb"/>
  <circle cx="562.57" cy="300.01" r="2.5" fill="#2563eb"/>
  <circle cx="564.24" cy="249.94" r="2.5" fill="#2563eb"/>
  <circle cx="565.91" cy="299.97" r="2.5" fill="#2563eb"/>
  <circle cx="567.58" cy="299.97" r="2.5" fill="#2563eb"/>
  <circle cx="569.25" cy="300.01" r="2.5" fill="#2563eb"/>
  <circle cx="570.92" cy="300.01" r="2.5" fill="#2563eb"/>
  <circle cx="572.59" cy="300.01" r="2.5" fill="#2563eb"/>
  <circle cx="574.26" cy="249.99" r="2.5" fill="#2563eb"/>
  <circle cx="575.93" cy="300.01" r="2.5" fill="#2563eb"/>
  <circle cx="577.60" cy="300.01" r="2.5" fill="#2563eb"/>
  <circle cx="579.27" cy="300.01" r="2.5" fill="#2563eb"/>
  <circle cx="580.94" cy="250.03" r="2.5" fill="#2563eb"/>
  <circle cx="582.61" cy="300.01" r="2.5" fill="#2563eb"/>
  <circle cx="584.28" cy="300.01" r="2.5" fill="#2563eb"/>
  <circle cx="585.94" cy="300.01" r="2.5" fill="#2563eb"/>
  <circle cx="587.61" cy="299.97" r="2.5" fill="#2563eb"/>
  <circle cx="589.28" cy="300.01" r="2.5" fill="#2563eb"/>
  <circle cx="590.95" cy="300.01" r="2.5" fill="#2563eb"/>
  <circle cx="592.62" cy="299.97" r="2.5" fill="#2563eb"/>
  <circle cx="594.29" cy="299.97" r="2.5" fill="#2563eb"/>
  <circle cx="595.96" cy="300.01" r="2.5" fill="#2563eb"/>
  <circle cx="597.63" cy="300.01" r="2.5" fill="#2563eb"/>
  <circle cx="599.30" cy="299.97" r="2.5" fill="#2563eb"/>
  <circle cx="600.97" cy="299.93" r="2.5" fill="#2563eb"/>
  <circle cx="602.64" cy="300.01" r="2.5" fill="#2563eb"/>
  <circle cx="604.31" cy="300.06" r="2.5" fill="#2563eb"/>
  <circle cx="605.98" cy="299.97" r="2.5" fill="#2563eb"/>
  <circle cx="607.65" cy="300.01" r="2.5" fill="#2563eb"/>
  <circle cx="609.32" cy="250.03" r="2.5" fill="#2563eb"/>
  <circle cx="610.99" cy="250.03" r="2.5" fill="#2563eb"/>
  <circle cx="612.66" cy="299.93" r="2.5" fill="#2563eb"/>
  <circle cx="614.33" cy="299.97" r="2.5" fill="#2563eb"/>
  <circle cx="616.00" cy="300.01" r="2.5" fill="#2563eb"/>
  <circle cx="617.67" cy="300.01" r="2.5" fill="#2563eb"/>
  <circle cx="619.34" cy="300.06" r="2.5" fill="#2563eb"/>
  <circle cx="621.01" cy="300.01" r="2.5" fill="#2563eb"/>
  <circle cx="622.68" cy="299.93" r="2.5" fill="#2563eb"/>
  <circle cx="624.35" cy="300.01" r="2.5" fill="#2563eb"/>
  <circle cx="626.02" cy="300.01" r="2.5" fill="#2563eb"/>
  <circle cx="627.69" cy="299.97" r="2.5" fill="#2563eb"/>
  <circle cx="629.36" cy="299.97" r="2.5" fill="#2563eb"/>
  <circle cx="631.03" cy="300.01" r="2.5" fill="#2563eb"/>
  <circle cx="632.70" cy="250.03" r="2.5" fill="#2563eb"/>
  <circle cx="634.37" cy="300.01" r="2.5" fill="#2563eb"/>
  <circle cx="636.04" cy="300.01" r="2.5" fill="#2563eb"/>
  <circle cx="637.71" cy="300.01" r="2.5" fill="#2563eb"/>
  <circle cx="639.38" cy="299.97" r="2.5" fill="#2563eb"/>
  <circle cx="641.05" cy="300.01" r="2.5" fill="#2563eb"/>
  <circle cx="642.72" cy="299.97" r="2.5" fill="#2563eb"/>
  <circle cx="644.39" cy="300.01" r="2.5" fill="#2563eb"/>
  <circle cx="646.06" cy="299.97" r="2.5" fill="#2563eb"/>
  <circle cx="647.72" cy="299.97" r="2.5" fill="#2563eb"/>
  <circle cx="649.39" cy="299.93" r="2.5" fill="#2563eb"/>
  <circle cx="651.06" cy="300.01" r="2.5" fill="#2563eb"/>
  <circle cx="652.73" cy="300.01" r="2.5" fill="#2563eb"/>
  <circle cx="654.40" cy="299.89" r="2.5" fill="#2563eb"/>
  <circle cx="656.07" cy="299.97" r="2.5" fill="#2563eb"/>
  <circle cx="657.74" cy="299.97" r="2.5" fill="#2563eb"/>
  <circle cx="659.41" cy="300.06" r="2.5" fill="#2563eb"/>
  <circle cx="661.08" cy="249.90" r="2.5" fill="#2563eb"/>
  <circle cx="662.75" cy="299.89" r="2.5" fill="#2563eb"/>
  <circle cx="664.42" cy="300.01" r="2.5" fill="#2563eb"/>
  <circle cx="666.09" cy="299.97" r="2.5" fill="#2563eb"/>
  <circle cx="667.76" cy="299.97" r="2.5" fill="#2563eb"/>
  <circle cx="669.43" cy="299.97" r="2.5" fill="#2563eb"/>
  <circle cx="671.10" cy="300.01" r="2.5" fill="#2563eb"/>
  <circle cx="672.77" cy="300.01" r="2.5" fill="#2563eb"/>
  <circle cx="674.44" cy="299.97" r="2.5" fill="#2563eb"/>
  <circle cx="676.11" cy="299.97" r="2.5" fill="#2563eb"/>
  <circle cx="677.78" cy="299.97" r="2.5" fill="#2563eb"/>
  <circle cx="679.45" cy="250.03" r="2.5" fill="#2563eb"/>
  <circle cx="681.12" cy="299.93" r="2.5" fill="#2563eb"/>
  <circle cx="682.79" cy="300.01" r="2.5" fill="#2563eb"/>
  <circle cx="684.46" cy="300.01" r="2.5" fill="#2563eb"/>
  <circle cx="686.13" cy="299.93" r="2.5" fill="#2563eb"/>
  <circle cx="687.80" cy="300.01" r="2.5" fill="#2563eb"/>
  <circle cx="689.47" cy="300.01" r="2.5" fill="#2563eb"/>
  <circle cx="691.14" cy="299.97" r="2.5" fill="#2563eb"/>
  <circle cx="692.81" cy="300.01" r="2.5" fill="#2563eb"/>
  <circle cx="694.48" cy="300.01" r="2.5" fill="#2563eb"/>
  <circle cx="696.15" cy="300.06" r="2.5" fill="#2563eb"/>
  <circle cx="697.82" cy="300.01" r="2.5" fill="#2563eb"/>
  <circle cx="699.49" cy="299.97" r="2.5" fill="#2563eb"/>
  <circle cx="701.16" cy="299.89" r="2.5" fill="#2563eb"/>
  <circle cx="702.83" cy="300.01" r="2.5" fill="#2563eb"/>
  <circle cx="704.50" cy="300.01" r="2.5" fill="#2563eb"/>
  <circle cx="706.17" cy="249.94" r="2.5" fill="#2563eb"/>
  <circle cx="707.83" cy="249.94" r="2.5" fill="#2563eb"/>
  <circle cx="709.50" cy="300.01" r="2.5" fill="#2563eb"/>
  <circle cx="711.17" cy="300.01" r="2.5" fill="#2563eb"/>
  <circle cx="712.84" cy="300.01" r="2.5" fill="#2563eb"/>
  <circle cx="714.51" cy="300.01" r="2.5" fill="#2563eb"/>
  <circle cx="716.18" cy="299.97" r="2.5" fill="#2563eb"/>
  <circle cx="717.85" cy="250.03" r="2.5" fill="#2563eb"/>
  <circle cx="719.52" cy="300.01" r="2.5" fill="#2563eb"/>
  <circle cx="721.19" cy="300.01" r="2.5" fill="#2563eb"/>
  <circle cx="722.86" cy="300.01" r="2.5" fill="#2563eb"/>
  <circle cx="724.53" cy="300.01" r="2.5" fill="#2563eb"/>
  <circle cx="726.20" cy="250.03" r="2.5" fill="#2563eb"/>
  <circle cx="727.87" cy="249.99" r="2.5" fill="#2563eb"/>
  <circle cx="729.54" cy="300.01" r="2.5" fill="#2563eb"/>
  <circle cx="731.21" cy="299.97" r="2.5" fill="#2563eb"/>
  <circle cx="732.88" cy="300.01" r="2.5" fill="#2563eb"/>
  <circle cx="734.55" cy="299.97" r="2.5" fill="#2563eb"/>
  <circle cx="736.22" cy="300.01" r="2.5" fill="#2563eb"/>
  <circle cx="737.89" cy="299.97" r="2.5" fill="#2563eb"/>
  <circle cx="739.56" cy="299.97" r="2.5" fill="#2563eb"/>
  <circle cx="741.23" cy="299.97" r="2.5" fill="#2563eb"/>
  <circle cx="742.90" cy="300.06" r="2.5" fill="#2563eb"/>
  <circle cx="744.57" cy="249.99" r="2.5" fill="#2563eb"/>
  <circle cx="746.24" cy="300.01" r="2.5" fill="#2563eb"/>
  <circle cx="747.91" cy="250.03" r="2.5" fill="#2563eb"/>
  <circle cx="749.58" cy="249.94" r="2.5" fill="#2563eb"/>
  <circle cx="751.25" cy="249.99" r="2.5" fill="#2563eb"/>
  <circle cx="752.92" cy="300.01" r="2.5" fill="#2563eb"/>
  <circle cx="754.59" cy="300.06" r="2.5" fill="#2563eb"/>
  <circle cx="756.26" cy="300.01" r="2.5" fill="#2563eb"/>
  <circle cx="757.93" cy="299.97" r="2.5" fill="#2563eb"/>
  <circle cx="759.60" cy="299.97" r="2.5" fill="#2563eb"/>
  <circle cx="761.27" cy="300.01" r="2.5" fill="#2563eb"/>
  <circle cx="762.94" cy="299.93" r="2.5" fill="#2563eb"/>
  <circle cx="764.61" cy="299.89" r="2.5" fill="#2563eb"/>
  <circle cx="766.28" cy="299.89" r="2.5" fill="#2563eb"/>
  <circle cx="767.94" cy="299.89" r="2.5" fill="#2563eb"/>
  <circle cx="769.61" cy="299.89" r="2.5" fill="#2563eb"/>
  <circle cx="771.28" cy="299.85" r="2.5" fill="#2563eb"/>
  <circle cx="772.95" cy="299.85" r="2.5" fill="#2563eb"/>
  <circle cx="774.62" cy="299.89" r="2.5" fill="#2563eb"/>
  <circle cx="776.29" cy="299.81" r="2.5" fill="#2563eb"/>
  <circle cx="777.96" cy="299.81" r="2.5" fill="#2563eb"/>
  <circle cx="779.63" cy="299.81" r="2.5" fill="#2563eb"/>
  <circle cx="781.30" cy="299.76" r="2.5" fill="#2563eb"/>
  <circle cx="782.97" cy="299.76" r="2.5" fill="#2563eb"/>
  <circle cx="784.64" cy="299.76" r="2.5" fill="#2563eb"/>
  <circle cx="786.31" cy="299.72" r="2.5" fill="#2563eb"/>
  <circle cx="787.98" cy="299.68" r="2.5" fill="#2563eb"/>
  <circle cx="789.65" cy="299.60" r="2.5" fill="#2563eb"/>
  <circle cx="791.32" cy="299.60" r="2.5" fill="#2563eb"/>
  <circle cx="792.99" cy="299.60" r="2.5" fill="#2563eb"/>
  <circle cx="794.66" cy="299.56" r="2.5" fill="#2563eb"/>
  <circle cx="796.33" cy="299.47" r="2.5" fill="#2563eb"/>
  <circle cx="798.00" cy="299.43" r="2.5" fill="#2563eb"/>
  <circle cx="799.67" cy="299.43" r="2.5" fill="#2563eb"/>
  <circle cx="801.34" cy="299.39" r="2.5" fill="#2563eb"/>
  <circle cx="803.01" cy="299.47" r="2.5" fill="#2563eb"/>
  <circle cx="804.68" cy="259.82" r="2.5" fill="#2563eb"/>
  <circle cx="806.35" cy="338.96" r="2.5" fill="#2563eb"/>
  <circle cx="808.02" cy="299.31" r="2.5" fill="#2563eb"/>
  <circle cx="809.69" cy="299.31" r="2.5" fill="#2563eb"/>
  <circle cx="811.36" cy="299.26" r="2.5" fill="#2563eb"/>
  <circle cx="813.03" cy="299.68" r="2.5" fill="#2563eb"/>
  <circle cx="814.70" cy="299.68" r="2.5" fill="#2563eb"/>
  <circle cx="816.37" cy="299.68" r="2.5" fill="#2563eb"/>
  <circle cx="818.04" cy="299.64" r="2.5" fill="#2563eb"/>
  <circle cx="819.71" cy="299.14" r="2.5" fill="#2563eb"/>
  <circle cx="821.38" cy="299.14" r="2.5" fill="#2563eb"/>
  <circle cx="823.05" cy="299.10" r="2.5" fill="#2563eb"/>
  <circle cx="824.72" cy="299.10" r="2.5" fill="#2563eb"/>
  <circle cx="826.39" cy="299.10" r="2.5" fill="#2563eb"/>
  <circle cx="828.06" cy="248.07" r="2.5" fill="#2563eb"/>
  <circle cx="829.72" cy="299.06" r="2.5" fill="#2563eb"/>
  <circle cx="831.39" cy="299.06" r="2.5" fill="#2563eb"/>
  <circle cx="833.06" cy="299.06" r="2.5" fill="#2563eb"/>
  <circle cx="834.73" cy="299.06" r="2.5" fill="#2563eb"/>
  <circle cx="836.40" cy="299.06" r="2.5" fill="#2563eb"/>
  <circle cx="838.07" cy="298.97" r="2.5" fill="#2563eb"/>
  <circle cx="839.74" cy="298.97" r="2.5" fill="#2563eb"/>
  <circle cx="841.41" cy="298.93" r="2.5" fill="#2563eb"/>
  <circle cx="843.08" cy="298.97" r="2.5" fill="#2563eb"/>
  <circle cx="844.75" cy="298.93" r="2.5" fill="#2563eb"/>
  <circle cx="846.42" cy="298.89" r="2.5" fill="#2563eb"/>
  <circle cx="848.09" cy="298.89" r="2.5" fill="#2563eb"/>
  <circle cx="849.76" cy="298.89" r="2.5" fill="#2563eb"/>
  <circle cx="851.43" cy="298.89" r="2.5" fill="#2563eb"/>
  <circle cx="853.10" cy="247.78" r="2.5" fill="#2563eb"/>
  <circle cx="854.77" cy="298.89" r="2.5" fill="#2563eb"/>
  <circle cx="856.44" cy="298.89" r="2.5" fill="#2563eb"/>
  <circle cx="858.11" cy="298.85" r="2.5" fill="#2563eb"/>
  <circle cx="859.78" cy="298.85" r="2.5" fill="#2563eb"/>
  <circle cx="861.45" cy="298.81" r="2.5" fill="#2563eb"/>
  <circle cx="863.12" cy="298.81" r="2.5" fill="#2563eb"/>
  <circle cx="864.79" cy="298.81" r="2.5" fill="#2563eb"/>
  <circle cx="866.46" cy="298.81" r="2.5" fill="#2563eb"/>
  <circle cx="868.13" cy="298.81" r="2.5" fill="#2563eb"/>
  <circle cx="869.80" cy="298.81" r="2.5" fill="#2563eb"/>
  <circle cx="871.47" cy="298.81" r="2.5" fill="#2563eb"/>
  <circle cx="873.14" cy="298.81" r="2.5" fill="#2563eb"/>
  <circle cx="874.81" cy="298.81" r="2.5" fill="#2563eb"/>
  <circle cx="876.48" cy="298.72" r="2.5" fill="#2563eb"/>
  <circle cx="878.15" cy="247.45" r="2.5" fill="#2563eb"/>
  <circle cx="879.82" cy="247.45" r="2.5" fill="#2563eb"/>
  <circle cx="881.49" cy="298.72" r="2.5" fill="#2563eb"/>
  <circle cx="883.16" cy="298.72" r="2.5" fill="#2563eb"/>
  <circle cx="884.83" cy="298.72" r="2.5" fill="#2563eb"/>
  <circle cx="886.50" cy="298.72" r="2.5" fill="#2563eb"/>
  <circle cx="888.17" cy="298.72" r="2.5" fill="#2563eb"/>
  <circle cx="889.83" cy="298.72" r="2.5" fill="#2563eb"/>
  <circle cx="891.50" cy="247.36" r="2.5" fill="#2563eb"/>
  <circle cx="893.17" cy="298.68" r="2.5" fill="#2563eb"/>
  <circle cx="894.84" cy="247.36" r="2.5" fill="#2563eb"/>
  <circle cx="896.51" cy="247.36" r="2.5" fill="#2563eb"/>
  <circle cx="898.18" cy="247.36" r="2.5" fill="#2563eb"/>
  <circle cx="899.85" cy="298.68" r="2.5" fill="#2563eb"/>
  <circle cx="901.52" cy="298.68" r="2.5" fill="#2563eb"/>
  <circle cx="903.19" cy="298.68" r="2.5" fill="#2563eb"/>
  <circle cx="904.86" cy="298.68" r="2.5" fill="#2563eb"/>
  <circle cx="906.53" cy="298.68" r="2.5" fill="#2563eb"/>
  <circle cx="908.20" cy="341.67" r="2.5" fill="#2563eb"/>
  <circle cx="909.87" cy="307.01" r="2.5" fill="#2563eb"/>
  <circle cx="911.54" cy="298.68" r="2.5" fill="#2563eb"/>
  <circle cx="913.21" cy="298.68" r="2.5" fill="#2563eb"/>
  <circle cx="914.88" cy="298.68" r="2.5" fill="#2563eb"/>
  <circle cx="916.55" cy="247.36" r="2.5" fill="#2563eb"/>
  <circle cx="918.22" cy="298.64" r="2.5" fill="#2563eb"/>
  <circle cx="919.89" cy="247.36" r="2.5" fill="#2563eb"/>
  <circle cx="921.56" cy="247.28" r="2.5" fill="#2563eb"/>
  <circle cx="923.23" cy="247.20" r="2.5" fill="#2563eb"/>
  <circle cx="924.90" cy="298.60" r="2.5" fill="#2563eb"/>
  <circle cx="926.57" cy="298.60" r="2.5" fill="#2563eb"/>
  <circle cx="928.24" cy="247.03" r="2.5" fill="#2563eb"/>
  <circle cx="929.91" cy="298.51" r="2.5" fill="#2563eb"/>
  <circle cx="931.58" cy="298.51" r="2.5" fill="#2563eb"/>
  <circle cx="933.25" cy="298.51" r="2.5" fill="#2563eb"/>
  <circle cx="934.92" cy="298.51" r="2.5" fill="#2563eb"/>
  <circle cx="936.59" cy="298.51" r="2.5" fill="#2563eb"/>
  <circle cx="938.26" cy="298.51" r="2.5" fill="#2563eb"/>
  <circle cx="939.93" cy="298.51" r="2.5" fill="#2563eb"/>
  <circle cx="941.60" cy="298.51" r="2.5" fill="#2563eb"/>
  <circle cx="943.27" cy="298.51" r="2.5" fill="#2563eb"/>
  <circle cx="944.94" cy="298.51" r="2.5" fill="#2563eb"/>
  <circle cx="946.61" cy="298.51" r="2.5" fill="#2563eb"/>
  <circle cx="948.28" cy="298.51" r="2.5" fill="#2563eb"/>
  <circle cx="949.94" cy="298.51" r="2.5" fill="#2563eb"/>
  <circle cx="951.61" cy="298.51" r="2.5" fill="#2563eb"/>
  <circle cx="953.28" cy="298.51" r="2.5" fill="#2563eb"/>
  <circle cx="954.95" cy="298.51" r="2.5" fill="#2563eb"/>
  <circle cx="956.62" cy="298.51" r="2.5" fill="#2563eb"/>
  <circle cx="958.29" cy="298.51" r="2.5" fill="#2563eb"/>
  <circle cx="959.96" cy="298.51" r="2.5" fill="#2563eb"/>
  <circle cx="961.63" cy="298.51" r="2.5" fill="#2563eb"/>
  <circle cx="963.30" cy="298.51" r="2.5" fill="#2563eb"/>
  <circle cx="964.97" cy="298.51" r="2.5" fill="#2563eb"/>
  <circle cx="966.64" cy="298.51" r="2.5" fill="#2563eb"/>
  <circle cx="968.31" cy="298.51" r="2.5" fill="#2563eb"/>
  <circle cx="969.98" cy="298.51" r="2.5" fill="#2563eb"/>
  <circle cx="971.65" cy="298.51" r="2.5" fill="#2563eb"/>
  <circle cx="973.32" cy="298.47" r="2.5" fill="#2563eb"/>
  <circle cx="974.99" cy="298.51" r="2.5" fill="#2563eb"/>
  <circle cx="976.66" cy="298.51" r="2.5" fill="#2563eb"/>
  <circle cx="978.33" cy="298.47" r="2.5" fill="#2563eb"/>
  <circle cx="980.00" cy="298.51" r="2.5" fill="#2563eb"/>
</svg>
