<?xml version="1.0" encoding="UTF-8"?>
<svg xmlns="http://www.w3.org/2000/svg" width="1000" height="420" viewBox="0 0 1000 420">
  <rect width="100%" height="100%" fill="#ffffff"/>
  <text x="70" y="28" font-size="20" font-weight="600">수집 시점 기준 - 시간별 스냅샷</text>
  <text x="70" y="402" font-size="12" fill="#555">스냅샷 수</text>
  <line x1="70" y1="350.00" x2="980" y2="350.00" stroke="#e5e7eb" stroke-width="1"/>
  <text x="62" y="354.00" font-size="11" fill="#6b7280" text-anchor="end">0</text>
  <line x1="70" y1="290.00" x2="980" y2="290.00" stroke="#e5e7eb" stroke-width="1"/>
  <text x="62" y="294.00" font-size="11" fill="#6b7280" text-anchor="end">1,440</text>
  <line x1="70" y1="230.00" x2="980" y2="230.00" stroke="#e5e7eb" stroke-width="1"/>
  <text x="62" y="234.00" font-size="11" fill="#6b7280" text-anchor="end">2,880</text>
  <line x1="70" y1="170.00" x2="980" y2="170.00" stroke="#e5e7eb" stroke-width="1"/>
  <text x="62" y="174.00" font-size="11" fill="#6b7280" text-anchor="end">4,321</text>
  <line x1="70" y1="110.00" x2="980" y2="110.00" stroke="#e5e7eb" stroke-width="1"/>
  <text x="62" y="114.00" font-size="11" fill="#6b7280" text-anchor="end">5,761</text>
  <line x1="70" y1="50.00" x2="980" y2="50.00" stroke="#e5e7eb" stroke-width="1"/>
  <text x="62" y="54.00" font-size="11" fill="#6b7280" text-anchor="end">7,202</text>
  <line x1="70" y1="350" x2="980" y2="350" stroke="#111827" stroke-width="1.2"/>
  <line x1="70" y1="50" x2="70" y2="350" stroke="#111827" stroke-width="1.2"/>
  <line x1="70.00" y1="350" x2="70.00" y2="356" stroke="#9ca3af" stroke-width="1"/>
  <text x="70.00" y="372" font-size="10" fill="#6b7280" text-anchor="middle">2026-02-28 18</text>
  <line x1="144.53" y1="350" x2="144.53" y2="356" stroke="#9ca3af" stroke-width="1"/>
  <text x="144.53" y="372" font-size="10" fill="#6b7280" text-anchor="middle">2026-03-08 22</text>
  <line x1="219.07" y1="350" x2="219.07" y2="356" stroke="#9ca3af" stroke-width="1"/>
  <text x="219.07" y="372" font-size="10" fill="#6b7280" text-anchor="middle">2026-03-10 21</text>
  <line x1="293.60" y1="350" x2="293.60" y2="356" stroke="#9ca3af" stroke-width="1"/>
  <text x="293.60" y="372" font-size="10" fill="#6b7280" text-anchor="middle">2026-03-12 20</text>
  <line x1="368.13" y1="350" x2="368.13" y2="356" stroke="#9ca3af" stroke-width="1"/>
  <text x="368.13" y="372" font-size="10" fill="#6b7280" text-anchor="middle">2026-03-14 23</text>
  <line x1="442.67" y1="350" x2="442.67" y2="356" stroke="#9ca3af" stroke-width="1"/>
  <text x="442.67" y="372" font-size="10" fill="#6b7280" text-anchor="middle">2026-03-17 18</text>
  <line x1="517.20" y1="350" x2="517.20" y2="356" stroke="#9ca3af" stroke-width="1"/>
  <text x="517.20" y="372" font-size="10" fill="#6b7280" text-anchor="middle">2026-03-20 14</text>
  <line x1="591.73" y1="350" x2="591.73" y2="356" stroke="#9ca3af" stroke-width="1"/>
  <text x="591.73" y="372" font-size="10" fill="#6b7280" text-anchor="middle">2026-03-22 22</text>
  <line x1="666.27" y1="350" x2="666.27" y2="356" stroke="#9ca3af" stroke-width="1"/>
  <text x="666.27" y="372" font-size="10" fill="#6b7280" text-anchor="middle">2026-03-25 19</text>
  <line x1="740.80" y1="350" x2="740.80" y2="356" stroke="#9ca3af" stroke-width="1"/>
  <text x="740.80" y="372" font-size="10" fill="#6b7280" text-anchor="middle">2026-03-28 18</text>
  <line x1="815.33" y1="350" x2="815.33" y2="356" stroke="#9ca3af" stroke-width="1"/>
  <text x="815.33" y="372" font-size="10" fill="#6b7280" text-anchor="middle">2026-03-31 16</text>
  <line x1="889.87" y1="350" x2="889.87" y2="356" stroke="#9ca3af" stroke-width="1"/>
  <text x="889.87" y="372" font-size="10" fill="#6b7280" text-anchor="middle">2026-04-03 18</text>
  <line x1="964.40" y1="350" x2="964.40" y2="356" stroke="#9ca3af" stroke-width="1"/>
  <text x="964.40" y="372" font-size="10" fill="#6b7280" text-anchor="middle">2026-04-06 15</text>
  <line x1="980.00" y1="350" x2="980.00" y2="356" stroke="#9ca3af" stroke-width="1"/>
  <text x="980.00" y="372" font-size="10" fill="#6b7280" text-anchor="middle">2026-04-07 03</text>
  <polyline fill="none" stroke="#2563eb" stroke-width="2.5" points="70.00,50.00 71.73,50.12 73.47,50.17 75.20,50.46 76.93,50.00 78.67,266.90 80.40,50.12 82.13,50.08 83.87,177.46 85.60,211.58 87.33,175.34 89.07,304.14 90.80,200.46 92.53,250.94 94.27,300.01 96.00,300.06 97.73,300.01 99.47,300.01 101.20,348.00 102.93,300.01 104.67,249.99 106.40,200.00 108.13,249.99 109.87,249.99 111.60,250.03 113.33,250.03 115.07,250.03 116.80,250.40 118.53,250.90 120.27,250.90 122.00,251.32 123.73,249.94 125.47,300.01 127.20,299.93 128.93,251.03 130.67,300.68 132.40,250.03 134.13,200.00 135.87,249.99 137.60,250.03 139.33,250.03 141.07,250.03 142.80,300.01 144.53,200.04 146.27,250.03 148.00,250.03 149.73,250.03 151.47,249.90 153.20,250.03 154.93,250.03 156.67,250.94 158.40,250.44 160.13,250.03 161.87,250.03 163.60,300.47 165.33,300.01 167.07,300.43 168.80,250.03 170.53,249.99 172.27,300.43 174.00,249.90 175.73,249.99 177.47,249.99 179.20,200.04 180.93,300.01 182.67,300.01 184.40,300.01 186.13,249.90 187.87,300.01 189.60,250.03 191.33,249.99 193.07,199.96 194.80,300.01 196.53,200.00 198.27,250.36 200.00,250.03 201.73,300.01 203.47,300.01 205.20,250.44 206.93,300.01 208.67,250.03 210.40,250.03 212.13,249.99 213.87,250.49 215.60,250.03 217.33,200.04 219.07,300.01 220.80,250.03 222.53,300.01 224.27,250.11 226.00,300.01 227.73,250.03 229.47,250.03 231.20,199.92 232.93,250.03 234.67,250.03 236.40,250.03 238.13,254.36 239.87,300.01 241.60,299.97 243.33,250.36 245.07,299.97 246.80,250.03 248.53,250.03 250.27,250.03 252.00,250.03 253.73,249.99 255.47,200.00 257.20,299.93 258.93,300.01 260.67,299.97 262.40,249.94 264.13,249.99 265.87,249.82 267.60,249.94 269.33,250.28 271.07,207.00 272.80,250.03 274.53,250.32 276.27,250.40 278.00,300.93 279.73,300.01 281.47,300.10 283.20,249.94 284.93,249.99 286.67,250.07 288.40,249.99 290.13,250.03 291.87,249.94 293.60,200.00 295.33,300.39 297.07,300.01 298.80,300.01 300.53,250.44 302.27,300.39 304.00,249.86 305.73,250.11 307.47,201.46 309.20,300.01 310.93,200.83 312.67,250.03 314.40,249.99 316.13,300.26 317.87,300.01 319.60,300.01 321.33,250.03 323.07,250.03 324.80,250.03 326.53,250.03 328.27,249.99 330.00,250.03 331.73,200.00 333.47,300.26 335.20,249.99 336.93,300.01 338.67,249.94 340.40,250.03 342.13,250.03 343.87,250.03 345.60,200.04 347.33,300.01 349.07,249.90 350.80,300.01 352.53,300.01 354.27,300.06 356.00,300.01 357.73,300.01 359.47,243.95 361.20,249.94 362.93,299.97 364.67,300.01 366.40,300.01 368.13,250.03 369.87,300.01 371.60,300.01 373.33,299.97 375.07,249.99 376.80,300.01 378.53,299.93 380.27,300.01 382.00,299.93 383.73,300.01 385.47,300.01 387.20,299.89 388.93,299.97 390.67,250.03 392.40,299.93 394.13,299.89 395.87,299.97 397.60,249.94 399.33,300.01 401.07,300.01 402.80,299.97 404.53,249.99 406.27,299.97 408.00,299.97 409.73,300.06 411.47,300.06 413.20,299.93 414.93,300.01 416.67,300.01 418.40,299.93 420.13,300.01 421.87,300.01 423.60,299.97 425.33,300.01 427.07,300.01 428.80,300.01 430.53,300.01 432.27,249.86 434.00,300.01 435.73,300.10 437.47,299.93 439.20,300.01 440.93,299.93 442.67,300.01 444.40,300.01 446.13,300.01 447.87,300.01 449.60,300.01 451.33,299.97 453.07,300.01 454.80,300.01 456.53,300.01 458.27,300.01 460.00,250.03 461.73,300.01 463.47,300.01 465.20,299.97 466.93,300.01 468.67,300.01 470.40,299.97 472.13,299.97 473.87,300.01 475.60,299.97 477.33,300.01 479.07,299.93 480.80,300.01 482.53,250.03 484.27,300.01 486.00,300.01 487.73,300.01 489.47,300.01 491.20,300.01 492.93,299.89 494.67,300.01 496.40,300.01 498.13,250.07 499.87,300.01 501.60,299.93 503.33,300.01 505.07,299.97 506.80,299.97 508.53,299.97 510.27,250.03 512.00,300.01 513.73,300.01 515.47,300.01 517.20,300.01 518.93,299.97 520.67,300.01 522.40,299.97 524.13,300.01 525.87,299.97 527.60,249.90 529.33,300.01 531.07,300.01 532.80,299.89 534.53,299.97 536.27,299.97 538.00,249.99 539.73,299.97 541.47,299.89 543.20,300.01 544.93,299.97 546.67,299.97 548.40,300.01 550.13,299.97 551.87,249.99 553.60,299.97 555.33,299.97 557.07,300.06 558.80,300.06 560.53,249.94 562.27,300.01 564.00,299.93 565.73,300.01 567.47,300.01 569.20,249.99 570.93,300.01 572.67,300.01 574.40,300.01 576.13,299.93 577.87,299.93 579.60,300.01 581.33,300.01 583.07,249.94 584.80,299.97 586.53,299.97 588.27,300.01 590.00,300.01 591.73,300.01 593.47,249.99 595.20,300.01 596.93,300.01 598.67,300.01 600.40,250.03 602.13,300.01 603.87,300.01 605.60,300.01 607.33,299.97 609.07,300.01 610.80,300.01 612.53,299.97 614.27,299.97 616.00,300.01 617.73,300.01 619.47,299.97 621.20,299.93 622.93,300.01 624.67,300.06 626.40,299.97 628.13,300.01 629.87,250.03 631.60,250.03 633.33,299.93 635.07,299.97 636.80,300.01 638.53,300.01 640.27,300.06 642.00,300.01 643.73,299.93 645.47,300.01 647.20,300.01 648.93,299.97 650.67,299.97 652.40,300.01 654.13,250.03 655.87,300.01 657.60,300.01 659.33,300.01 661.07,299.97 662.80,300.01 664.53,299.97 666.27,300.01 668.00,299.97 669.73,299.97 671.47,299.93 673.20,300.01 674.93,300.01 676.67,299.89 678.40,299.97 680.13,299.97 681.87,300.06 683.60,249.90 685.33,299.89 687.07,300.01 688.80,299.97 690.53,299.97 692.27,299.97 694.00,300.01 695.73,300.01 697.47,299.97 699.20,299.97 700.93,299.97 702.67,250.03 704.40,299.93 706.13,300.01 707.87,300.01 709.60,299.93 711.33,300.01 713.07,300.01 714.80,299.97 716.53,300.01 718.27,300.01 720.00,300.06 721.73,300.01 723.47,299.97 725.20,299.89 726.93,300.01 728.67,300.01 730.40,249.94 732.13,249.94 733.87,300.01 735.60,300.01 737.33,300.01 739.07,300.01 740.80,299.97 742.53,250.03 744.27,300.01 746.00,300.01 747.73,300.01 749.47,300.01 751.20,250.03 752.93,249.99 754.67,300.01 756.40,299.97 758.13,300.01 759.87,299.97 761.60,300.01 763.33,299.97 765.07,299.97 766.80,299.97 768.53,300.06 770.27,249.99 772.00,300.01 773.73,250.03 775.47,249.94 777.20,249.99 778.93,300.01 780.67,300.06 782.40,300.01 784.13,299.97 785.87,299.97 787.60,300.01 789.33,299.93 791.07,299.89 792.80,299.89 794.53,299.89 796.27,299.89 798.00,299.85 799.73,299.85 801.47,299.89 803.20,299.81 804.93,299.81 806.67,299.81 808.40,299.76 810.13,299.76 811.87,299.76 813.60,299.72 815.33,299.68 817.07,299.60 818.80,299.60 820.53,299.60 822.27,299.56 824.00,299.47 825.73,299.43 827.47,299.43 829.20,299.39 830.93,299.47 832.67,259.82 834.40,338.96 836.13,299.31 837.87,299.31 839.60,299.26 841.33,299.68 843.07,299.68 844.80,299.68 846.53,299.64 848.27,299.14 850.00,299.14 851.73,299.10 853.47,299.10 855.20,299.10 856.93,248.07 858.67,299.06 860.40,299.06 862.13,299.06 863.87,299.06 865.60,299.06 867.33,298.97 869.07,298.97 870.80,298.93 872.53,298.97 874.27,298.93 876.00,298.89 877.73,298.89 879.47,298.89 881.20,298.89 882.93,247.78 884.67,298.89 886.40,298.89 888.13,298.85 889.87,298.85 891.60,298.81 893.33,298.81 895.07,298.81 896.80,298.81 898.53,298.81 900.27,298.81 902.00,298.81 903.73,298.81 905.47,298.81 907.20,298.72 908.93,247.45 910.67,247.45 912.40,298.72 914.13,298.72 915.87,298.72 917.60,298.72 919.33,298.72 921.07,298.72 922.80,247.36 924.53,298.68 926.27,247.36 928.00,247.36 929.73,247.36 931.47,298.68 933.20,298.68 934.93,298.68 936.67,298.68 938.40,298.68 940.13,341.67 941.87,307.01 943.60,298.68 945.33,298.68 947.07,298.68 948.80,247.36 950.53,298.64 952.27,247.36 954.00,247.28 955.73,247.20 957.47,298.60 959.20,298.60 960.93,247.03 962.67,298.51 964.40,298.51 966.13,298.51 967.87,298.51 969.60,298.51 971.33,298.51 973.07,298.51 974.80,298.51 976.53,298.51 978.27,298.51 980.00,298.51"/>
  <circle cx="70.00" cy="50.00" r="2.5" fill="#2563eb"/>
  <circle cx="71.73" cy="50.12" r="2.5" fill="#2563eb"/>
  <circle cx="73.47" cy="50.17" r="2.5" fill="#2563eb"/>
  <circle cx="75.20" cy="50.46" r="2.5" fill="#2563eb"/>
  <circle cx="76.93" cy="50.00" r="2.5" fill="#2563eb"/>
  <circle cx="78.67" cy="266.90" r="2.5" fill="#2563eb"/>
  <circle cx="80.40" cy="50.12" r="2.5" fill="#2563eb"/>
  <circle cx="82.13" cy="50.08" r="2.5" fill="#2563eb"/>
  <circle cx="83.87" cy="177.46" r="2.5" fill="#2563eb"/>
  <circle cx="85.60" cy="211.58" r="2.5" fill="#2563eb"/>
  <circle cx="87.33" cy="175.34" r="2.5" fill="#2563eb"/>
  <circle cx="89.07" cy="304.14" r="2.5" fill="#2563eb"/>
  <circle cx="90.80" cy="200.46" r="2.5" fill="#2563eb"/>
  <circle cx="92.53" cy="250.94" r="2.5" fill="#2563eb"/>
  <circle cx="94.27" cy="300.01" r="2.5" fill="#2563eb"/>
  <circle cx="96.00" cy="300.06" r="2.5" fill="#2563eb"/>
  <circle cx="97.73" cy="300.01" r="2.5" fill="#2563eb"/>
  <circle cx="99.47" cy="300.01" r="2.5" fill="#2563eb"/>
  <circle cx="101.20" cy="348.00" r="2.5" fill="#2563eb"/>
  <circle cx="102.93" cy="300.01" r="2.5" fill="#2563eb"/>
  <circle cx="104.67" cy="249.99" r="2.5" fill="#2563eb"/>
  <circle cx="106.40" cy="200.00" r="2.5" fill="#2563eb"/>
  <circle cx="108.13" cy="249.99" r="2.5" fill="#2563eb"/>
  <circle cx="109.87" cy="249.99" r="2.5" fill="#2563eb"/>
  <circle cx="111.60" cy="250.03" r="2.5" fill="#2563eb"/>
  <circle cx="113.33" cy="250.03" r="2.5" fill="#2563eb"/>
  <circle cx="115.07" cy="250.03" r="2.5" fill="#2563eb"/>
  <circle cx="116.80" cy="250.40" r="2.5" fill="#2563eb"/>
  <circle cx="118.53" cy="250.90" r="2.5" fill="#2563eb"/>
  <circle cx="120.27" cy="250.90" r="2.5" fill="#2563eb"/>
  <circle cx="122.00" cy="251.32" r="2.5" fill="#2563eb"/>
  <circle cx="123.73" cy="249.94" r="2.5" fill="#2563eb"/>
  <circle cx="125.47" cy="300.01" r="2.5" fill="#2563eb"/>
  <circle cx="127.20" cy="299.93" r="2.5" fill="#2563eb"/>
  <circle cx="128.93" cy="251.03" r="2.5" fill="#2563eb"/>
  <circle cx="130.67" cy="300.68" r="2.5" fill="#2563eb"/>
  <circle cx="132.40" cy="250.03" r="2.5" fill="#2563eb"/>
  <circle cx="134.13" cy="200.00" r="2.5" fill="#2563eb"/>
  <circle cx="135.87" cy="249.99" r="2.5" fill="#2563eb"/>
  <circle cx="137.60" cy="250.03" r="2.5" fill="#2563eb"/>
  <circle cx="139.33" cy="250.03" r="2.5" fill="#2563eb"/>
  <circle cx="141.07" cy="250.03" r="2.5" fill="#2563eb"/>
  <circle cx="142.80" cy="300.01" r="2.5" fill="#2563eb"/>
  <circle cx="144.53" cy="200.04" r="2.5" fill="#2563eb"/>
  <circle cx="146.27" cy="250.03" r="2.5" fill="#2563eb"/>
  <circle cx="148.00" cy="250.03" r="2.5" fill="#2563eb"/>
  <circle cx="149.73" cy="250.03" r="2.5" fill="#2563eb"/>
  <circle cx="151.47" cy="249.90" r="2.5" fill="#2563eb"/>
  <circle cx="153.20" cy="250.03" r="2.5" fill="#2563eb"/>
  <circle cx="154.93" cy="250.03" r="2.5" fill="#2563eb"/>
  <circle cx="156.67" cy="250.94" r="2.5" fill="#2563eb"/>
  <circle cx="158.40" cy="250.44" r="2.5" fill="#2563eb"/>
  <circle cx="160.13" cy="250.03" r="2.5" fill="#2563eb"/>
  <circle cx="161.87" cy="250.03" r="2.5" fill="#2563eb"/>
  <circle cx="163.60" cy="300.47" r="2.5" fill="#2563eb"/>
  <circle cx="165.33" cy="300.01" r="2.5" fill="#2563eb"/>
  <circle cx="167.07" cy="300.43" r="2.5" fill="#2563eb"/>
  <circle cx="168.80" cy="250.03" r="2.5" fill="#2563eb"/>
  <circle cx="170.53" cy="249.99" r="2.5" fill="#2563eb"/>
  <circle cx="172.27" cy="300.43" r="2.5" fill="#2563eb"/>
  <circle cx="174.00" cy="249.90" r="2.5" fill="#2563eb"/>
  <circle cx="175.73" cy="249.99" r="2.5" fill="#2563eb"/>
  <circle cx="177.47" cy="249.99" r="2.5" fill="#2563eb"/>
  <circle cx="179.20" cy="200.04" r="2.5" fill="#2563eb"/>
  <circle cx="180.93" cy="300.01" r="2.5" fill="#2563eb"/>
  <circle cx="182.67" cy="300.01" r="2.5" fill="#2563eb"/>
  <circle cx="184.40" cy="300.01" r="2.5" fill="#2563eb"/>
  <circle cx="186.13" cy="249.90" r="2.5" fill="#2563eb"/>
  <circle cx="187.87" cy="300.01" r="2.5" fill="#2563eb"/>
  <circle cx="189.60" cy="250.03" r="2.5" fill="#2563eb"/>
  <circle cx="191.33" cy="249.99" r="2.5" fill="#2563eb"/>
  <circle cx="193.07" cy="199.96" r="2.5" fill="#2563eb"/>
  <circle cx="194.80" cy="300.01" r="2.5" fill="#2563eb"/>
  <circle cx="196.53" cy="200.00" r="2.5" fill="#2563eb"/>
  <circle cx="198.27" cy="250.36" r="2.5" fill="#2563eb"/>
  <circle cx="200.00" cy="250.03" r="2.5" fill="#2563eb"/>
  <circle cx="201.73" cy="300.01" r="2.5" fill="#2563eb"/>
  <circle cx="203.47" cy="300.01" r="2.5" fill="#2563eb"/>
  <circle cx="205.20" cy="250.44" r="2.5" fill="#2563eb"/>
  <circle cx="206.93" cy="300.01" r="2.5" fill="#2563eb"/>
  <circle cx="208.67" cy="250.03" r="2.5" fill="#2563eb"/>
  <circle cx="210.40" cy="250.03" r="2.5" fill="#2563eb"/>
  <circle cx="212.13" cy="249.99" r="2.5" fill="#2563eb"/>
  <circle cx="213.87" cy="250.49" r="2.5" fill="#2563eb"/>
  <circle cx="215.60" cy="250.03" r="2.5" fill="#2563eb"/>
  <circle cx="217.33" cy="200.04" r="2.5" fill="#2563eb"/>
  <circle cx="219.07" cy="300.01" r="2.5" fill="#2563eb"/>
  <circle cx="220.80" cy="250.03" r="2.5" fill="#2563eb"/>
  <circle cx="222.53" cy="300.01" r="2.5" fill="#2563eb"/>
  <circle cx="224.27" cy="250.11" r="2.5" fill="#2563eb"/>
  <circle cx="226.00" cy="300.01" r="2.5" fill="#2563eb"/>
  <circle cx="227.73" cy="250.03" r="2.5" fill="#2563eb"/>
  <circle cx="229.47" cy="250.03" r="2.5" fill="#2563eb"/>
  <circle cx="231.20" cy="199.92" r="2.5" fill="#2563eb"/>
  <circle cx="232.93" cy="250.03" r="2.5" fill="#2563eb"/>
  <circle cx="234.67" cy="250.03" r="2.5" fill="#2563eb"/>
  <circle cx="236.40" cy="250.03" r="2.5" fill="#2563eb"/>
  <circle cx="238.13" cy="254.36" r="2.5" fill="#2563eb"/>
  <circle cx="239.87" cy="300.01" r="2.5" fill="#2563eb"/>
  <circle cx="241.60" cy="299.97" r="2.5" fill="#2563eb"/>
  <circle cx="243.33" cy="250.36" r="2.5" fill="#2563eb"/>
  <circle cx="245.07" cy="299.97" r="2.5" fill="#2563eb"/>
  <circle cx="246.80" cy="250.03" r="2.5" fill="#2563eb"/>
  <circle cx="248.53" cy="250.03" r="2.5" fill="#2563eb"/>
  <circle cx="250.27" cy="250.03" r="2.5" fill="#2563eb"/>
  <circle cx="252.00" cy="250.03" r="2.5" fill="#2563eb"/>
  <circle cx="253.73" cy="249.99" r="2.5" fill="#2563eb"/>
  <circle cx="255.47" cy="200.00" r="2.5" fill="#2563eb"/>
  <circle cx="257.20" cy="299.93" r="2.5" fill="#2563eb"/>
  <circle cx="258.93" cy="300.01" r="2.5" fill="#2563eb"/>
  <circle cx="260.67" cy="299.97" r="2.5" fill="#2563eb"/>
  <circle cx="262.40" cy="249.94" r="2.5" fill="#2563eb"/>
  <circle cx="264.13" cy="249.99" r="2.5" fill="#2563eb"/>
  <circle cx="265.87" cy="249.82" r="2.5" fill="#2563eb"/>
  <circle cx="267.60" cy="249.94" r="2.5" fill="#2563eb"/>
  <circle cx="269.33" cy="250.28" r="2.5" fill="#2563eb"/>
  <circle cx="271.07" cy="207.00" r="2.5" fill="#2563eb"/>
  <circle cx="272.80" cy="250.03" r="2.5" fill="#2563eb"/>
  <circle cx="274.53" cy="250.32" r="2.5" fill="#2563eb"/>
  <circle cx="276.27" cy="250.40" r="2.5" fill="#2563eb"/>
  <circle cx="278.00" cy="300.93" r="2.5" fill="#2563eb"/>
  <circle cx="279.73" cy="300.01" r="2.5" fill="#2563eb"/>
  <circle cx="281.47" cy="300.10" r="2.5" fill="#2563eb"/>
  <circle cx="283.20" cy="249.94" r="2.5" fill="#2563eb"/>
  <circle cx="284.93" cy="249.99" r="2.5" fill="#2563eb"/>
  <circle cx="286.67" cy="250.07" r="2.5" fill="#2563eb"/>
  <circle cx="288.40" cy="249.99" r="2.5" fill="#2563eb"/>
  <circle cx="290.13" cy="250.03" r="2.5" fill="#2563eb"/>
  <circle cx="291.87" cy="249.94" r="2.5" fill="#2563eb"/>
  <circle cx="293.60" cy="200.00" r="2.5" fill="#2563eb"/>
  <circle cx="295.33" cy="300.39" r="2.5" fill="#2563eb"/>
  <circle cx="297.07" cy="300.01" r="2.5" fill="#2563eb"/>
  <circle cx="298.80" cy="300.01" r="2.5" fill="#2563eb"/>
  <circle cx="300.53" cy="250.44" r="2.5" fill="#2563eb"/>
  <circle cx="302.27" cy="300.39" r="2.5" fill="#2563eb"/>
  <circle cx="304.00" cy="249.86" r="2.5" fill="#2563eb"/>
  <circle cx="305.73" cy="250.11" r="2.5" fill="#2563eb"/>
  <circle cx="307.47" cy="201.46" r="2.5" fill="#2563eb"/>
  <circle cx="309.20" cy="300.01" r="2.5" fill="#2563eb"/>
  <circle cx="310.93" cy="200.83" r="2.5" fill="#2563eb"/>
  <circle cx="312.67" cy="250.03" r="2.5" fill="#2563eb"/>
  <circle cx="314.40" cy="249.99" r="2.5" fill="#2563eb"/>
  <circle cx="316.13" cy="300.26" r="2.5" fill="#2563eb"/>
  <circle cx="317.87" cy="300.01" r="2.5" fill="#2563eb"/>
  <circle cx="319.60" cy="300.01" r="2.5" fill="#2563eb"/>
  <circle cx="321.33" cy="250.03" r="2.5" fill="#2563eb"/>
  <circle cx="323.07" cy="250.03" r="2.5" fill="#2563eb"/>
  <circle cx="324.80" cy="250.03" r="2.5" fill="#2563eb"/>
  <circle cx="326.53" cy="250.03" r="2.5" fill="#2563eb"/>
  <circle cx="328.27" cy="249.99" r="2.5" fill="#2563eb"/>
  <circle cx="330.00" cy="250.03" r="2.5" fill="#2563eb"/>
  <circle cx="331.73" cy="200.00" r="2.5" fill="#2563eb"/>
  <circle cx="333.47" cy="300.26" r="2.5" fill="#2563eb"/>
  <circle cx="335.20" cy="249.99" r="2.5" fill="#2563eb"/>
  <circle cx="336.93" cy="300.01" r="2.5" fill="#2563eb"/>
  <circle cx="338.67" cy="249.94" r="2.5" fill="#2563eb"/>
  <circle cx="340.40" cy="250.03" r="2.5" fill="#2563eb"/>
  <circle cx="342.13" cy="250.03" r="2.5" fill="#2563eb"/>
  <circle cx="343.87" cy="250.03" r="2.5" fill="#2563eb"/>
  <circle cx="345.60" cy="200.04" r="2.5" fill="#2563eb"/>
  <circle cx="347.33" cy="300.01" r="2.5" fill="#2563eb"/>
  <circle cx="349.07" cy="249.90" r="2.5" fill="#2563eb"/>
  <circle cx="350.80" cy="300.01" r="2.5" fill="#2563eb"/>
  <circle cx="352.53" cy="300.01" r="2.5" fill="#2563eb"/>
  <circle cx="354.27" cy="300.06" r="2.5" fill="#2563eb"/>
  <circle cx="356.00" cy="300.01" r="2.5" fill="#2563eb"/>
  <circle cx="357.73" cy="300.01" r="2.5" fill="#2563eb"/>
  <circle cx="359.47" cy="243.95" r="2.5" fill="#2563eb"/>
  <circle cx="361.20" cy="249.94" r="2.5" fill="#2563eb"/>
  <circle cx="362.93" cy="299.97" r="2.5" fill="#2563eb"/>
  <circle cx="364.67" cy="300.01" r="2.5" fill="#2563eb"/>
  <circle cx="366.40" cy="300.01" r="2.5" fill="#2563eb"/>
  <circle cx="368.13" cy="250.03" r="2.5" fill="#2563eb"/>
  <circle cx="369.87" cy="300.01" r="2.5" fill="#2563eb"/>
  <circle cx="371.60" cy="300.01" r="2.5" fill="#2563eb"/>
  <circle cx="373.33" cy="299.97" r="2.5" fill="#2563eb"/>
  <circle cx="375.07" cy="249.99" r="2.5" fill="#2563eb"/>
  <circle cx="376.80" cy="300.01" r="2.5" fill="#2563eb"/>
  <circle cx="378.53" cy="299.93" r="2.5" fill="#2563eb"/>
  <circle cx="380.27" cy="300.01" r="2.5" fill="#2563eb"/>
  <circle cx="382.00" cy="299.93" r="2.5" fill="#2563eb"/>
  <circle cx="383.73" cy="300.01" r="2.5" fill="#2563eb"/>
  <circle cx="385.47" cy="300.01" r="2.5" fill="#2563eb"/>
  <circle cx="387.20" cy="299.89" r="2.5" fill="#2563eb"/>
  <circle cx="388.93" cy="299.97" r="2.5" fill="#2563eb"/>
  <circle cx="390.67" cy="250.03" r="2.5" fill="#2563eb"/>
  <circle cx="392.40" cy="299.93" r="2.5" fill="#2563eb"/>
  <circle cx="394.13" cy="299.89" r="2.5" fill="#2563eb"/>
  <circle cx="395.87" cy="299.97" r="2.5" fill="#2563eb"/>
  <circle cx="397.60" cy="249.94" r="2.5" fill="#2563eb"/>
  <circle cx="399.33" cy="300.01" r="2.5" fill="#2563eb"/>
  <circle cx="401.07" cy="300.01" r="2.5" fill="#2563eb"/>
  <circle cx="402.80" cy="299.97" r="2.5" fill="#2563eb"/>
  <circle cx="404.53" cy="249.99" r="2.5" fill="#2563eb"/>
  <circle cx="406.27" cy="299.97" r="2.5" fill="#2563eb"/>
  <circle cx="408.00" cy="299.97" r="2.5" fill="#2563eb"/>
  <circle cx="409.73" cy="300.06" r="2.5" fill="#2563eb"/>
  <circle cx="411.47" cy="300.06" r="2.5" fill="#2563eb"/>
  <circle cx="413.20" cy="299.93" r="2.5" fill="#2563eb"/>
  <circle cx="414.93" cy="300.01" r="2.5" fill="#2563eb"/>
  <circle cx="416.67" cy="300.01" r="2.5" fill="#2563eb"/>
  <circle cx="418.40" cy="299.93" r="2.5" fill="#2563eb"/>
  <circle cx="420.13" cy="300.01" r="2.5" fill="#2563eb"/>
  <circle cx="421.87" cy="300.01" r="2.5" fill="#2563eb"/>
  <circle cx="423.60" cy="299.97" r="2.5" fill="#2563eb"/>
  <circle cx="425.33" cy="300.01" r="2.5" fill="#2563eb"/>
  <circle cx="427.07" cy="300.01" r="2.5" fill="#2563eb"/>
  <circle cx="428.80" cy="300.01" r="2.5" fill="#2563eb"/>
  <circle cx="430.53" cy="300.01" r="2.5" fill="#2563eb"/>
  <circle cx="432.27" cy="249.86" r="2.5" fill="#2563eb"/>
  <circle cx="434.00" cy="300.01" r="2.5" fill="#2563eb"/>
  <circle cx="435.73" cy="300.10" r="2.5" fill="#2563eb"/>
  <circle cx="437.47" cy="299.93" r="2.5" fill="#2563eb"/>
  <circle cx="439.20" cy="300.01" r="2.5" fill="#2563eb"/>
  <circle cx="440.93" cy="299.93" r="2.5" fill="#2563eb"/>
  <circle cx="442.67" cy="300.01" r="2.5" fill="#2563eb"/>
  <circle cx="444.40" cy="300.01" r="2.5" fill="#2563eb"/>
  <circle cx="446.13" cy="300.01" r="2.5" fill="#2563eb"/>
  <circle cx="447.87" cy="300.01" r="2.5" fill="#2563eb"/>
  <circle cx="449.60" cy="300.01" r="2.5" fill="#2563eb"/>
  <circle cx="451.33" cy="299.97" r="2.5" fill="#2563eb"/>
  <circle cx="453.07" cy="300.01" r="2.5" fill="#2563eb"/>
  <circle cx="454.80" cy="300.01" r="2.5" fill="#2563eb"/>
  <circle cx="456.53" cy="300.01" r="2.5" fill="#2563eb"/>
  <circle cx="458.27" cy="300.01" r="2.5" fill="#2563eb"/>
  <circle cx="460.00" cy="250.03" r="2.5" fill="#2563eb"/>
  <circle cx="461.73" cy="300.01" r="2.5" fill="#2563eb"/>
  <circle cx="463.47" cy="300.01" r="2.5" fill="#2563eb"/>
  <circle cx="465.20" cy="299.97" r="2.5" fill="#2563eb"/>
  <circle cx="466.93" cy="300.01" r="2.5" fill="#2563eb"/>
  <circle cx="468.67" cy="300.01" r="2.5" fill="#2563eb"/>
  <circle cx="470.40" cy="299.97" r="2.5" fill="#2563eb"/>
  <circle cx="472.13" cy="299.97" r="2.5" fill="#2563eb"/>
  <circle cx="473.87" cy="300.01" r="2.5" fill="#2563eb"/>
  <circle cx="475.60" cy="299.97" r="2.5" fill="#2563eb"/>
  <circle cx="477.33" cy="300.01" r="2.5" fill="#2563eb"/>
  <circle cx="479.07" cy="299.93" r="2.5" fill="#2563eb"/>
  <circle cx="480.80" cy="300.01" r="2.5" fill="#2563eb"/>
  <circle cx="482.53" cy="250.03" r="2.5" fill="#2563eb"/>
  <circle cx="484.27" cy="300.01" r="2.5" fill="#2563eb"/>
  <circle cx="486.00" cy="300.01" r="2.5" fill="#2563eb"/>
  <circle cx="487.73" cy="300.01" r="2.5" fill="#2563eb"/>
  <circle cx="489.47" cy="300.01" r="2.5" fill="#2563eb"/>
  <circle cx="491.20" cy="300.01" r="2.5" fill="#2563eb"/>
  <circle cx="492.93" cy="299.89" r="2.5" fill="#2563eb"/>
  <circle cx="494.67" cy="300.01" r="2.5" fill="#2563eb"/>
  <circle cx="496.40" cy="300.01" r="2.5" fill="#2563eb"/>
  <circle cx="498.13" cy="250.07" r="2.5" fill="#2563eb"/>
  <circle cx="499.87" cy="300.01" r="2.5" fill="#2563eb"/>
  <circle cx="501.60" cy="299.93" r="2.5" fill="#2563eb"/>
  <circle cx="503.33" cy="300.01" r="2.5" fill="#2563eb"/>
  <circle cx="505.07" cy="299.97" r="2.5" fill="#2563eb"/>
  <circle cx="506.80" cy="299.97" r="2.5" fill="#2563eb"/>
  <circle cx="508.53" cy="299.97" r="2.5" fill="#2563eb"/>
  <circle cx="510.27" cy="250.03" r="2.5" fill="#2563eb"/>
  <circle cx="512.00" cy="300.01" r="2.5" fill="#2563eb"/>
  <circle cx="513.73" cy="300.01" r="2.5" fill="#2563eb"/>
  <circle cx="515.47" cy="300.01" r="2.5" fill="#2563eb"/>
  <circle cx="517.20" cy="300.01" r="2.5" fill="#2563eb"/>
  <circle cx="518.93" cy="299.97" r="2.5" fill="#2563eb"/>
  <circle cx="520.67" cy="300.01" r="2.5" fill="#2563eb"/>
  <circle cx="522.40" cy="299.97" r="2.5" fill="#2563eb"/>
  <circle cx="524.13" cy="300.01" r="2.5" fill="#2563eb"/>
  <circle cx="525.87" cy="299.97" r="2.5" fill="#2563eb"/>
  <circle cx="527.60" cy="249.90" r="2.5" fill="#2563eb"/>
  <circle cx="529.33" cy="300.01" r="2.5" fill="#2563eb"/>
  <circle cx="531.07" cy="300.01" r="2.5" fill="#2563eb"/>
  <circle cx="532.80" cy="299.89" r="2.5" fill="#2563eb"/>
  <circle cx="534.53" cy="299.97" r="2.5" fill="#2563eb"/>
  <circle cx="536.27" cy="299.97" r="2.5" fill="#2563eb"/>
  <circle cx="538.00" cy="249.99" r="2.5" fill="#2563eb"/>
  <circle cx="539.73" cy="299.97" r="2.5" fill="#2563eb"/>
  <circle cx="541.47" cy="299.89" r="2.5" fill="#2563eb"/>
  <circle cx="543.20" cy="300.01" r="2.5" fill="#2563eb"/>
  <circle cx="544.93" cy="299.97" r="2.5" fill="#2563eb"/>
  <circle cx="546.67" cy="299.97" r="2.5" fill="#2563eb"/>
  <circle cx="548.40" cy="300.01" r="2.5" fill="#2563eb"/>
  <circle cx="550.13" cy="299.97" r="2.5" fill="#2563eb"/>
  <circle cx="551.87" cy="249.99" r="2.5" fill="#2563eb"/>
  <circle cx="553.60" cy="299.97" r="2.5" fill="#2563eb"/>
  <circle cx="555.33" cy="299.97" r="2.5" fill="#2563eb"/>
  <circle cx="557.07" cy="300.06" r="2.5" fill="#2563eb"/>
  <circle cx="558.80" cy="300.06" r="2.5" fill="#2563eb"/>
  <circle cx="560.53" cy="249.94" r="2.5" fill="#2563eb"/>
  <circle cx="562.27" cy="300.01" r="2.5" fill="#2563eb"/>
  <circle cx="564.00" cy="299.93" r="2.5" fill="#2563eb"/>
  <circle cx="565.73" cy="300.01" r="2.5" fill="#2563eb"/>
  <circle cx="567.47" cy="300.01" r="2.5" fill="#2563eb"/>
  <circle cx="569.20" cy="249.99" r="2.5" fill="#2563eb"/>
  <circle cx="570.93" cy="300.01" r="2.5" fill="#2563eb"/>
  <circle cx="572.67" cy="300.01" r="2.5" fill="#2563eb"/>
  <circle cx="574.40" cy="300.01" r="2.5" fill="#2563eb"/>
  <circle cx="576.13" cy="299.93" r="2.5" fill="#2563eb"/>
  <circle cx="577.87" cy="299.93" r="2.5" fill="#2563eb"/>
  <circle cx="579.60" cy="300.01" r="2.5" fill="#2563eb"/>
  <circle cx="581.33" cy="300.01" r="2.5" fill="#2563eb"/>
  <circle cx="583.07" cy="249.94" r="2.5" fill="#2563eb"/>
  <circle cx="584.80" cy="299.97" r="2.5" fill="#2563eb"/>
  <circle cx="586.53" cy="299.97" r="2.5" fill="#2563eb"/>
  <circle cx="588.27" cy="300.01" r="2.5" fill="#2563eb"/>
  <circle cx="590.00" cy="300.01" r="2.5" fill="#2563eb"/>
  <circle cx="591.73" cy="300.01" r="2.5" fill="#2563eb"/>
  <circle cx="593.47" cy="249.99" r="2.5" fill="#2563eb"/>
  <circle cx="595.20" cy="300.01" r="2.5" fill="#2563eb"/>
  <circle cx="596.93" cy="300.01" r="2.5" fill="#2563eb"/>
  <circle cx="598.67" cy="300.01" r="2.5" fill="#2563eb"/>
  <circle cx="600.40" cy="250.03" r="2.5" fill="#2563eb"/>
  <circle cx="602.13" cy="300.01" r="2.5" fill="#2563eb"/>
  <circle cx="603.87" cy="300.01" r="2.5" fill="#2563eb"/>
  <circle cx="605.60" cy="300.01" r="2.5" fill="#2563eb"/>
  <circle cx="607.33" cy="299.97" r="2.5" fill="#2563eb"/>
  <circle cx="609.07" cy="300.01" r="2.5" fill="#2563eb"/>
  <circle cx="610.80" cy="300.01" r="2.5" fill="#2563eb"/>
  <circle cx="612.53" cy="299.97" r="2.5" fill="#2563eb"/>
  <circle cx="614.27" cy="299.97" r="2.5" fill="#2563eb"/>
  <circle cx="616.00" cy="300.01" r="2.5" fill="#2563eb"/>
  <circle cx="617.73" cy="300.01" r="2.5" fill="#2563eb"/>
  <circle cx="619.47" cy="299.97" r="2.5" fill="#2563eb"/>
  <circle cx="621.20" cy="299.93" r="2.5" fill="#2563eb"/>
  <circle cx="622.93" cy="300.01" r="2.5" fill="#2563eb"/>
  <circle cx="624.67" cy="300.06" r="2.5" fill="#2563eb"/>
  <circle cx="626.40" cy="299.97" r="2.5" fill="#2563eb"/>
  <circle cx="628.13" cy="300.01" r="2.5" fill="#2563eb"/>
  <circle cx="629.87" cy="250.03" r="2.5" fill="#2563eb"/>
  <circle cx="631.60" cy="250.03" r="2.5" fill="#2563eb"/>
  <circle cx="633.33" cy="299.93" r="2.5" fill="#2563eb"/>
  <circle cx="635.07" cy="299.97" r="2.5" fill="#2563eb"/>
  <circle cx="636.80" cy="300.01" r="2.5" fill="#2563eb"/>
  <circle cx="638.53" cy="300.01" r="2.5" fill="#2563eb"/>
  <circle cx="640.27" cy="300.06" r="2.5" fill="#2563eb"/>
  <circle cx="642.00" cy="300.01" r="2.5" fill="#2563eb"/>
  <circle cx="643.73" cy="299.93" r="2.5" fill="#2563eb"/>
  <circle cx="645.47" cy="300.01" r="2.5" fill="#2563eb"/>
  <circle cx="647.20" cy="300.01" r="2.5" fill="#2563eb"/>
  <circle cx="648.93" cy="299.97" r="2.5" fill="#2563eb"/>
  <circle cx="650.67" cy="299.97" r="2.5" fill="#2563eb"/>
  <circle cx="652.40" cy="300.01" r="2.5" fill="#2563eb"/>
  <circle cx="654.13" cy="250.03" r="2.5" fill="#2563eb"/>
  <circle cx="655.87" cy="300.01" r="2.5" fill="#2563eb"/>
  <circle cx="657.60" cy="300.01" r="2.5" fill="#2563eb"/>
  <circle cx="659.33" cy="300.01" r="2.5" fill="#2563eb"/>
  <circle cx="661.07" cy="299.97" r="2.5" fill="#2563eb"/>
  <circle cx="662.80" cy="300.01" r="2.5" fill="#2563eb"/>
  <circle cx="664.53" cy="299.97" r="2.5" fill="#2563eb"/>
  <circle cx="666.27" cy="300.01" r="2.5" fill="#2563eb"/>
  <circle cx="668.00" cy="299.97" r="2.5" fill="#2563eb"/>
  <circle cx="669.73" cy="299.97" r="2.5" fill="#2563eb"/>
  <circle cx="671.47" cy="299.93" r="2.5" fill="#2563eb"/>
  <circle cx="673.20" cy="300.01" r="2.5" fill="#2563eb"/>
  <circle cx="674.93" cy="300.01" r="2.5" fill="#2563eb"/>
  <circle cx="676.67" cy="299.89" r="2.5" fill="#2563eb"/>
  <circle cx="678.40" cy="299.97" r="2.5" fill="#2563eb"/>
  <circle cx="680.13" cy="299.97" r="2.5" fill="#2563eb"/>
  <circle cx="681.87" cy="300.06" r="2.5" fill="#2563eb"/>
  <circle cx="683.60" cy="249.90" r="2.5" fill="#2563eb"/>
  <circle cx="685.33" cy="299.89" r="2.5" fill="#2563eb"/>
  <circle cx="687.07" cy="300.01" r="2.5" fill="#2563eb"/>
  <circle cx="688.80" cy="299.97" r="2.5" fill="#2563eb"/>
  <circle cx="690.53" cy="299.97" r="2.5" fill="#2563eb"/>
  <circle cx="692.27" cy="299.97" r="2.5" fill="#2563eb"/>
  <circle cx="694.00" cy="300.01" r="2.5" fill="#2563eb"/>
  <circle cx="695.73" cy="300.01" r="2.5" fill="#2563eb"/>
  <circle cx="697.47" cy="299.97" r="2.5" fill="#2563eb"/>
  <circle cx="699.20" cy="299.97" r="2.5" fill="#2563eb"/>
  <circle cx="700.93" cy="299.97" r="2.5" fill="#2563eb"/>
  <circle cx="702.67" cy="250.03" r="2.5" fill="#2563eb"/>
  <circle cx="704.40" cy="299.93" r="2.5" fill="#2563eb"/>
  <circle cx="706.13" cy="300.01" r="2.5" fill="#2563eb"/>
  <circle cx="707.87" cy="300.01" r="2.5" fill="#2563eb"/>
  <circle cx="709.60" cy="299.93" r="2.5" fill="#2563eb"/>
  <circle cx="711.33" cy="300.01" r="2.5" fill="#2563eb"/>
  <circle cx="713.07" cy="300.01" r="2.5" fill="#2563eb"/>
  <circle cx="714.80" cy="299.97" r="2.5" fill="#2563eb"/>
  <circle cx="716.53" cy="300.01" r="2.5" fill="#2563eb"/>
  <circle cx="718.27" cy="300.01" r="2.5" fill="#2563eb"/>
  <circle cx="720.00" cy="300.06" r="2.5" fill="#2563eb"/>
  <circle cx="721.73" cy="300.01" r="2.5" fill="#2563eb"/>
  <circle cx="723.47" cy="299.97" r="2.5" fill="#2563eb"/>
  <circle cx="725.20" cy="299.89" r="2.5" fill="#2563eb"/>
  <circle cx="726.93" cy="300.01" r="2.5" fill="#2563eb"/>
  <circle cx="728.67" cy="300.01" r="2.5" fill="#2563eb"/>
  <circle cx="730.40" cy="249.94" r="2.5" fill="#2563eb"/>
  <circle cx="732.13" cy="249.94" r="2.5" fill="#2563eb"/>
  <circle cx="733.87" cy="300.01" r="2.5" fill="#2563eb"/>
  <circle cx="735.60" cy="300.01" r="2.5" fill="#2563eb"/>
  <circle cx="737.33" cy="300.01" r="2.5" fill="#2563eb"/>
  <circle cx="739.07" cy="300.01" r="2.5" fill="#2563eb"/>
  <circle cx="740.80" cy="299.97" r="2.5" fill="#2563eb"/>
  <circle cx="742.53" cy="250.03" r="2.5" fill="#2563eb"/>
  <circle cx="744.27" cy="300.01" r="2.5" fill="#2563eb"/>
  <circle cx="746.00" cy="300.01" r="2.5" fill="#2563eb"/>
  <circle cx="747.73" cy="300.01" r="2.5" fill="#2563eb"/>
  <circle cx="749.47" cy="300.01" r="2.5" fill="#2563eb"/>
  <circle cx="751.20" cy="250.03" r="2.5" fill="#2563eb"/>
  <circle cx="752.93" cy="249.99" r="2.5" fill="#2563eb"/>
  <circle cx="754.67" cy="300.01" r="2.5" fill="#2563eb"/>
  <circle cx="756.40" cy="299.97" r="2.5" fill="#2563eb"/>
  <circle cx="758.13" cy="300.01" r="2.5" fill="#2563eb"/>
  <circle cx="759.87" cy="299.97" r="2.5" fill="#2563eb"/>
  <circle cx="761.60" cy="300.01" r="2.5" fill="#2563eb"/>
  <circle cx="763.33" cy="299.97" r="2.5" fill="#2563eb"/>
  <circle cx="765.07" cy="299.97" r="2.5" fill="#2563eb"/>
  <circle cx="766.80" cy="299.97" r="2.5" fill="#2563eb"/>
  <circle cx="768.53" cy="300.06" r="2.5" fill="#2563eb"/>
  <circle cx="770.27" cy="249.99" r="2.5" fill="#2563eb"/>
  <circle cx="772.00" cy="300.01" r="2.5" fill="#2563eb"/>
  <circle cx="773.73" cy="250.03" r="2.5" fill="#2563eb"/>
  <circle cx="775.47" cy="249.94" r="2.5" fill="#2563eb"/>
  <circle cx="777.20" cy="249.99" r="2.5" fill="#2563eb"/>
  <circle cx="778.93" cy="300.01" r="2.5" fill="#2563eb"/>
  <circle cx="780.67" cy="300.06" r="2.5" fill="#2563eb"/>
  <circle cx="782.40" cy="300.01" r="2.5" fill="#2563eb"/>
  <circle cx="784.13" cy="299.97" r="2.5" fill="#2563eb"/>
  <circle cx="785.87" cy="299.97" r="2.5" fill="#2563eb"/>
  <circle cx="787.60" cy="300.01" r="2.5" fill="#2563eb"/>
  <circle cx="789.33" cy="299.93" r="2.5" fill="#2563eb"/>
  <circle cx="791.07" cy="299.89" r="2.5" fill="#2563eb"/>
  <circle cx="792.80" cy="299.89" r="2.5" fill="#2563eb"/>
  <circle cx="794.53" cy="299.89" r="2.5" fill="#2563eb"/>
  <circle cx="796.27" cy="299.89" r="2.5" fill="#2563eb"/>
  <circle cx="798.00" cy="299.85" r="2.5" fill="#2563eb"/>
  <circle cx="799.73" cy="299.85" r="2.5" fill="#2563eb"/>
  <circle cx="801.47" cy="299.89" r="2.5" fill="#2563eb"/>
  <circle cx="803.20" cy="299.81" r="2.5" fill="#2563eb"/>
  <circle cx="804.93" cy="299.81" r="2.5" fill="#2563eb"/>
  <circle cx="806.67" cy="299.81" r="2.5" fill="#2563eb"/>
  <circle cx="808.40" cy="299.76" r="2.5" fill="#2563eb"/>
  <circle cx="810.13" cy="299.76" r="2.5" fill="#2563eb"/>
  <circle cx="811.87" cy="299.76" r="2.5" fill="#2563eb"/>
  <circle cx="813.60" cy="299.72" r="2.5" fill="#2563eb"/>
  <circle cx="815.33" cy="299.68" r="2.5" fill="#2563eb"/>
  <circle cx="817.07" cy="299.60" r="2.5" fill="#2563eb"/>
  <circle cx="818.80" cy="299.60" r="2.5" fill="#2563eb"/>
  <circle cx="820.53" cy="299.60" r="2.5" fill="#2563eb"/>
  <circle cx="822.27" cy="299.56" r="2.5" fill="#2563eb"/>
  <circle cx="824.00" cy="299.47" r="2.5" fill="#2563eb"/>
  <circle cx="825.73" cy="299.43" r="2.5" fill="#2563eb"/>
  <circle cx="827.47" cy="299.43" r="2.5" fill="#2563eb"/>
  <circle cx="829.20" cy="299.39" r="2.5" fill="#2563eb"/>
  <circle cx="830.93" cy="299.47" r="2.5" fill="#2563eb"/>
  <circle cx="832.67" cy="259.82" r="2.5" fill="#2563eb"/>
  <circle cx="834.40" cy="338.96" r="2.5" fill="#2563eb"/>
  <circle cx="836.13" cy="299.31" r="2.5" fill="#2563eb"/>
  <circle cx="837.87" cy="299.31" r="2.5" fill="#2563eb"/>
  <circle cx="839.60" cy="299.26" r="2.5" fill="#2563eb"/>
  <circle cx="841.33" cy="299.68" r="2.5" fill="#2563eb"/>
  <circle cx="843.07" cy="299.68" r="2.5" fill="#2563eb"/>
  <circle cx="844.80" cy="299.68" r="2.5" fill="#2563eb"/>
  <circle cx="846.53" cy="299.64" r="2.5" fill="#2563eb"/>
  <circle cx="848.27" cy="299.14" r="2.5" fill="#2563eb"/>
  <circle cx="850.00" cy="299.14" r="2.5" fill="#2563eb"/>
  <circle cx="851.73" cy="299.10" r="2.5" fill="#2563eb"/>
  <circle cx="853.47" cy="299.10" r="2.5" fill="#2563eb"/>
  <circle cx="855.20" cy="299.10" r="2.5" fill="#2563eb"/>
  <circle cx="856.93" cy="248.07" r="2.5" fill="#2563eb"/>
  <circle cx="858.67" cy="299.06" r="2.5" fill="#2563eb"/>
  <circle cx="860.40" cy="299.06" r="2.5" fill="#2563eb"/>
  <circle cx="862.13" cy="299.06" r="2.5" fill="#2563eb"/>
  <circle cx="863.87" cy="299.06" r="2.5" fill="#2563eb"/>
  <circle cx="865.60" cy="299.06" r="2.5" fill="#2563eb"/>
  <circle cx="867.33" cy="298.97" r="2.5" fill="#2563eb"/>
  <circle cx="869.07" cy="298.97" r="2.5" fill="#2563eb"/>
  <circle cx="870.80" cy="298.93" r="2.5" fill="#2563eb"/>
  <circle cx="872.53" cy="298.97" r="2.5" fill="#2563eb"/>
  <circle cx="874.27" cy="298.93" r="2.5" fill="#2563eb"/>
  <circle cx="876.00" cy="298.89" r="2.5" fill="#2563eb"/>
  <circle cx="877.73" cy="298.89" r="2.5" fill="#2563eb"/>
  <circle cx="879.47" cy="298.89" r="2.5" fill="#2563eb"/>
  <circle cx="881.20" cy="298.89" r="2.5" fill="#2563eb"/>
  <circle cx="882.93" cy="247.78" r="2.5" fill="#2563eb"/>
  <circle cx="884.67" cy="298.89" r="2.5" fill="#2563eb"/>
  <circle cx="886.40" cy="298.89" r="2.5" fill="#2563eb"/>
  <circle cx="888.13" cy="298.85" r="2.5" fill="#2563eb"/>
  <circle cx="889.87" cy="298.85" r="2.5" fill="#2563eb"/>
  <circle cx="891.60" cy="298.81" r="2.5" fill="#2563eb"/>
  <circle cx="893.33" cy="298.81" r="2.5" fill="#2563eb"/>
  <circle cx="895.07" cy="298.81" r="2.5" fill="#2563eb"/>
  <circle cx="896.80" cy="298.81" r="2.5" fill="#2563eb"/>
  <circle cx="898.53" cy="298.81" r="2.5" fill="#2563eb"/>
  <circle cx="900.27" cy="298.81" r="2.5" fill="#2563eb"/>
  <circle cx="902.00" cy="298.81" r="2.5" fill="#2563eb"/>
  <circle cx="903.73" cy="298.81" r="2.5" fill="#2563eb"/>
  <circle cx="905.47" cy="298.81" r="2.5" fill="#2563eb"/>
  <circle cx="907.20" cy="298.72" r="2.5" fill="#2563eb"/>
  <circle cx="908.93" cy="247.45" r="2.5" fill="#2563eb"/>
  <circle cx="910.67" cy="247.45" r="2.5" fill="#2563eb"/>
  <circle cx="912.40" cy="298.72" r="2.5" fill="#2563eb"/>
  <circle cx="914.13" cy="298.72" r="2.5" fill="#2563eb"/>
  <circle cx="915.87" cy="298.72" r="2.5" fill="#2563eb"/>
  <circle cx="917.60" cy="298.72" r="2.5" fill="#2563eb"/>
  <circle cx="919.33" cy="298.72" r="2.5" fill="#2563eb"/>
  <circle cx="921.07" cy="298.72" r="2.5" fill="#2563eb"/>
  <circle cx="922.80" cy="247.36" r="2.5" fill="#2563eb"/>
  <circle cx="924.53" cy="298.68" r="2.5" fill="#2563eb"/>
  <circle cx="926.27" cy="247.36" r="2.5" fill="#2563eb"/>
  <circle cx="928.00" cy="247.36" r="2.5" fill="#2563eb"/>
  <circle cx="929.73" cy="247.36" r="2.5" fill="#2563eb"/>
  <circle cx="931.47" cy="298.68" r="2.5" fill="#2563eb"/>
  <circle cx="933.20" cy="298.68" r="2.5" fill="#2563eb"/>
  <circle cx="934.93" cy="298.68" r="2.5" fill="#2563eb"/>
  <circle cx="936.67" cy="298.68" r="2.5" fill="#2563eb"/>
  <circle cx="938.40" cy="298.68" r="2.5" fill="#2563eb"/>
  <circle cx="940.13" cy="341.67" r="2.5" fill="#2563eb"/>
  <circle cx="941.87" cy="307.01" r="2.5" fill="#2563eb"/>
  <circle cx="943.60" cy="298.68" r="2.5" fill="#2563eb"/>
  <circle cx="945.33" cy="298.68" r="2.5" fill="#2563eb"/>
  <circle cx="947.07" cy="298.68" r="2.5" fill="#2563eb"/>
  <circle cx="948.80" cy="247.36" r="2.5" fill="#2563eb"/>
  <circle cx="950.53" cy="298.64" r="2.5" fill="#2563eb"/>
  <circle cx="952.27" cy="247.36" r="2.5" fill="#2563eb"/>
  <circle cx="954.00" cy="247.28" r="2.5" fill="#2563eb"/>
  <circle cx="955.73" cy="247.20" r="2.5" fill="#2563eb"/>
  <circle cx="957.47" cy="298.60" r="2.5" fill="#2563eb"/>
  <circle cx="959.20" cy="298.60" r="2.5" fill="#2563eb"/>
  <circle cx="960.93" cy="247.03" r="2.5" fill="#2563eb"/>
  <circle cx="962.67" cy="298.51" r="2.5" fill="#2563eb"/>
  <circle cx="964.40" cy="298.51" r="2.5" fill="#2563eb"/>
  <circle cx="966.13" cy="298.51" r="2.5" fill="#2563eb"/>
  <circle cx="967.87" cy="298.51" r="2.5" fill="#2563eb"/>
  <circle cx="969.60" cy="298.51" r="2.5" fill="#2563eb"/>
  <circle cx="971.33" cy="298.51" r="2.5" fill="#2563eb"/>
  <circle cx="973.07" cy="298.51" r="2.5" fill="#2563eb"/>
  <circle cx="974.80" cy="298.51" r="2.5" fill="#2563eb"/>
  <circle cx="976.53" cy="298.51" r="2.5" fill="#2563eb"/>
  <circle cx="978.27" cy="298.51" r="2.5" fill="#2563eb"/>
  <circle cx="980.00" cy="298.51" r="2.5" fill="#2563eb"/>
</svg>
