<?xml version="1.0" encoding="UTF-8"?>
<svg xmlns="http://www.w3.org/2000/svg" width="1000" height="420" viewBox="0 0 1000 420">
  <rect width="100%" height="100%" fill="#ffffff"/>
  <text x="70" y="28" font-size="20" font-weight="600">수집 시점 기준 - 시간별 스냅샷</text>
  <text x="70" y="402" font-size="12" fill="#555">스냅샷 수</text>
  <line x1="70" y1="350.00" x2="980" y2="350.00" stroke="#e5e7eb" stroke-width="1"/>
  <text x="62" y="354.00" font-size="11" fill="#6b7280" text-anchor="end">0</text>
  <line x1="70" y1="290.00" x2="980" y2="290.00" stroke="#e5e7eb" stroke-width="1"/>
  <text x="62" y="294.00" font-size="11" fill="#6b7280" text-anchor="end">1,440</text>
  <line x1="70" y1="230.00" x2="980" y2="230.00" stroke="#e5e7eb" stroke-width="1"/>
  <text x="62" y="234.00" font-size="11" fill="#6b7280" text-anchor="end">2,880</text>
  <line x1="70" y1="170.00" x2="980" y2="170.00" stroke="#e5e7eb" stroke-width="1"/>
  <text x="62" y="174.00" font-size="11" fill="#6b7280" text-anchor="end">4,321</text>
  <line x1="70" y1="110.00" x2="980" y2="110.00" stroke="#e5e7eb" stroke-width="1"/>
  <text x="62" y="114.00" font-size="11" fill="#6b7280" text-anchor="end">5,761</text>
  <line x1="70" y1="50.00" x2="980" y2="50.00" stroke="#e5e7eb" stroke-width="1"/>
  <text x="62" y="54.00" font-size="11" fill="#6b7280" text-anchor="end">7,202</text>
  <line x1="70" y1="350" x2="980" y2="350" stroke="#111827" stroke-width="1.2"/>
  <line x1="70" y1="50" x2="70" y2="350" stroke="#111827" stroke-width="1.2"/>
  <line x1="70.00" y1="350" x2="70.00" y2="356" stroke="#9ca3af" stroke-width="1"/>
  <text x="70.00" y="372" font-size="10" fill="#6b7280" text-anchor="middle">2026-02-28 18</text>
  <line x1="145.04" y1="350" x2="145.04" y2="356" stroke="#9ca3af" stroke-width="1"/>
  <text x="145.04" y="372" font-size="10" fill="#6b7280" text-anchor="middle">2026-03-09 20</text>
  <line x1="220.08" y1="350" x2="220.08" y2="356" stroke="#9ca3af" stroke-width="1"/>
  <text x="220.08" y="372" font-size="10" fill="#6b7280" text-anchor="middle">2026-03-12 17</text>
  <line x1="295.12" y1="350" x2="295.12" y2="356" stroke="#9ca3af" stroke-width="1"/>
  <text x="295.12" y="372" font-size="10" fill="#6b7280" text-anchor="middle">2026-03-15 23</text>
  <line x1="370.16" y1="350" x2="370.16" y2="356" stroke="#9ca3af" stroke-width="1"/>
  <text x="370.16" y="372" font-size="10" fill="#6b7280" text-anchor="middle">2026-03-20 04</text>
  <line x1="445.20" y1="350" x2="445.20" y2="356" stroke="#9ca3af" stroke-width="1"/>
  <text x="445.20" y="372" font-size="10" fill="#6b7280" text-anchor="middle">2026-03-23 20</text>
  <line x1="520.24" y1="350" x2="520.24" y2="356" stroke="#9ca3af" stroke-width="1"/>
  <text x="520.24" y="372" font-size="10" fill="#6b7280" text-anchor="middle">2026-03-28 02</text>
  <line x1="595.27" y1="350" x2="595.27" y2="356" stroke="#9ca3af" stroke-width="1"/>
  <text x="595.27" y="372" font-size="10" fill="#6b7280" text-anchor="middle">2026-04-01 09</text>
  <line x1="670.31" y1="350" x2="670.31" y2="356" stroke="#9ca3af" stroke-width="1"/>
  <text x="670.31" y="372" font-size="10" fill="#6b7280" text-anchor="middle">2026-04-05 16</text>
  <line x1="745.35" y1="350" x2="745.35" y2="356" stroke="#9ca3af" stroke-width="1"/>
  <text x="745.35" y="372" font-size="10" fill="#6b7280" text-anchor="middle">2026-04-10 06</text>
  <line x1="820.39" y1="350" x2="820.39" y2="356" stroke="#9ca3af" stroke-width="1"/>
  <text x="820.39" y="372" font-size="10" fill="#6b7280" text-anchor="middle">2026-04-14 17</text>
  <line x1="895.43" y1="350" x2="895.43" y2="356" stroke="#9ca3af" stroke-width="1"/>
  <text x="895.43" y="372" font-size="10" fill="#6b7280" text-anchor="middle">2026-04-19 05</text>
  <line x1="970.47" y1="350" x2="970.47" y2="356" stroke="#9ca3af" stroke-width="1"/>
  <text x="970.47" y="372" font-size="10" fill="#6b7280" text-anchor="middle">2026-04-23 19</text>
  <line x1="980.00" y1="350" x2="980.00" y2="356" stroke="#9ca3af" stroke-width="1"/>
  <text x="980.00" y="372" font-size="10" fill="#6b7280" text-anchor="middle">2026-04-24 08</text>
  <polyline fill="none" stroke="#2563eb" stroke-width="2.5" points="70.00,50.00 71.19,50.12 72.38,50.17 73.57,50.46 74.76,50.00 75.96,266.90 77.15,50.12 78.34,50.08 79.53,177.46 80.72,211.58 81.91,175.34 83.10,304.14 84.29,200.46 85.48,250.94 86.68,300.01 87.87,300.06 89.06,300.01 90.25,300.01 91.44,348.00 92.63,300.01 93.82,249.99 95.01,200.00 96.20,249.99 97.40,249.99 98.59,250.03 99.78,250.03 100.97,250.03 102.16,250.40 103.35,250.90 104.54,250.90 105.73,251.32 106.92,249.94 108.12,300.01 109.31,299.93 110.50,251.03 111.69,300.68 112.88,250.03 114.07,200.00 115.26,249.99 116.45,250.03 117.64,250.03 118.84,250.03 120.03,300.01 121.22,200.04 122.41,250.03 123.60,250.03 124.79,250.03 125.98,249.90 127.17,250.03 128.36,250.03 129.55,250.94 130.75,250.44 131.94,250.03 133.13,250.03 134.32,300.47 135.51,300.01 136.70,300.43 137.89,250.03 139.08,249.99 140.27,300.43 141.47,249.90 142.66,249.99 143.85,249.99 145.04,200.04 146.23,300.01 147.42,300.01 148.61,300.01 149.80,249.90 150.99,300.01 152.19,250.03 153.38,249.99 154.57,199.96 155.76,300.01 156.95,200.00 158.14,250.36 159.33,250.03 160.52,300.01 161.71,300.01 162.91,250.44 164.10,300.01 165.29,250.03 166.48,250.03 167.67,249.99 168.86,250.49 170.05,250.03 171.24,200.04 172.43,300.01 173.63,250.03 174.82,300.01 176.01,250.11 177.20,300.01 178.39,250.03 179.58,250.03 180.77,199.92 181.96,250.03 183.15,250.03 184.35,250.03 185.54,254.36 186.73,300.01 187.92,299.97 189.11,250.36 190.30,299.97 191.49,250.03 192.68,250.03 193.87,250.03 195.07,250.03 196.26,249.99 197.45,200.00 198.64,299.93 199.83,300.01 201.02,299.97 202.21,249.94 203.40,249.99 204.59,249.82 205.79,249.94 206.98,250.28 208.17,207.00 209.36,250.03 210.55,250.32 211.74,250.40 212.93,300.93 214.12,300.01 215.31,300.10 216.51,249.94 217.70,249.99 218.89,250.07 220.08,249.99 221.27,250.03 222.46,249.94 223.65,200.00 224.84,300.39 226.03,300.01 227.23,300.01 228.42,250.44 229.61,300.39 230.80,249.86 231.99,250.11 233.18,201.46 234.37,300.01 235.56,200.83 236.75,250.03 237.95,249.99 239.14,300.26 240.33,300.01 241.52,300.01 242.71,250.03 243.90,250.03 245.09,250.03 246.28,250.03 247.47,249.99 248.66,250.03 249.86,200.00 251.05,300.26 252.24,249.99 253.43,300.01 254.62,249.94 255.81,250.03 257.00,250.03 258.19,250.03 259.38,200.04 260.58,300.01 261.77,249.90 262.96,300.01 264.15,300.01 265.34,300.06 266.53,300.01 267.72,300.01 268.91,243.95 270.10,249.94 271.30,299.97 272.49,300.01 273.68,300.01 274.87,250.03 276.06,300.01 277.25,300.01 278.44,299.97 279.63,249.99 280.82,300.01 282.02,299.93 283.21,300.01 284.40,299.93 285.59,300.01 286.78,300.01 287.97,299.89 289.16,299.97 290.35,250.03 291.54,299.93 292.74,299.89 293.93,299.97 295.12,249.94 296.31,300.01 297.50,300.01 298.69,299.97 299.88,249.99 301.07,299.97 302.26,299.97 303.46,300.06 304.65,300.06 305.84,299.93 307.03,300.01 308.22,300.01 309.41,299.93 310.60,300.01 311.79,300.01 312.98,299.97 314.18,300.01 315.37,300.01 316.56,300.01 317.75,300.01 318.94,249.86 320.13,300.01 321.32,300.10 322.51,299.93 323.70,300.01 324.90,299.93 326.09,300.01 327.28,300.01 328.47,300.01 329.66,300.01 330.85,300.01 332.04,299.97 333.23,300.01 334.42,300.01 335.62,300.01 336.81,300.01 338.00,250.03 339.19,300.01 340.38,300.01 341.57,299.97 342.76,300.01 343.95,300.01 345.14,299.97 346.34,299.97 347.53,300.01 348.72,299.97 349.91,300.01 351.10,299.93 352.29,300.01 353.48,250.03 354.67,300.01 355.86,300.01 357.05,300.01 358.25,300.01 359.44,300.01 360.63,299.89 361.82,300.01 363.01,300.01 364.20,250.07 365.39,300.01 366.58,299.93 367.77,300.01 368.97,299.97 370.16,299.97 371.35,299.97 372.54,250.03 373.73,300.01 374.92,300.01 376.11,300.01 377.30,300.01 378.49,299.97 379.69,300.01 380.88,299.97 382.07,300.01 383.26,299.97 384.45,249.90 385.64,300.01 386.83,300.01 388.02,299.89 389.21,299.97 390.41,299.97 391.60,249.99 392.79,299.97 393.98,299.89 395.17,300.01 396.36,299.97 397.55,299.97 398.74,300.01 399.93,299.97 401.13,249.99 402.32,299.97 403.51,299.97 404.70,300.06 405.89,300.06 407.08,249.94 408.27,300.01 409.46,299.93 410.65,300.01 411.85,300.01 413.04,249.99 414.23,300.01 415.42,300.01 416.61,300.01 417.80,299.93 418.99,299.93 420.18,300.01 421.37,300.01 422.57,249.94 423.76,299.97 424.95,299.97 426.14,300.01 427.33,300.01 428.52,300.01 429.71,249.99 430.90,300.01 432.09,300.01 433.29,300.01 434.48,250.03 435.67,300.01 436.86,300.01 438.05,300.01 439.24,299.97 440.43,300.01 441.62,300.01 442.81,299.97 444.01,299.97 445.20,300.01 446.39,300.01 447.58,299.97 448.77,299.93 449.96,300.01 451.15,300.06 452.34,299.97 453.53,300.01 454.73,250.03 455.92,250.03 457.11,299.93 458.30,299.97 459.49,300.01 460.68,300.01 461.87,300.06 463.06,300.01 464.25,299.93 465.45,300.01 466.64,300.01 467.83,299.97 469.02,299.97 470.21,300.01 471.40,250.03 472.59,300.01 473.78,300.01 474.97,300.01 476.16,299.97 477.36,300.01 478.55,299.97 479.74,300.01 480.93,299.97 482.12,299.97 483.31,299.93 484.50,300.01 485.69,300.01 486.88,299.89 488.08,299.97 489.27,299.97 490.46,300.06 491.65,249.90 492.84,299.89 494.03,300.01 495.22,299.97 496.41,299.97 497.60,299.97 498.80,300.01 499.99,300.01 501.18,299.97 502.37,299.97 503.56,299.97 504.75,250.03 505.94,299.93 507.13,300.01 508.32,300.01 509.52,299.93 510.71,300.01 511.90,300.01 513.09,299.97 514.28,300.01 515.47,300.01 516.66,300.06 517.85,300.01 519.04,299.97 520.24,299.89 521.43,300.01 522.62,300.01 523.81,249.94 525.00,249.94 526.19,300.01 527.38,300.01 528.57,300.01 529.76,300.01 530.96,299.97 532.15,250.03 533.34,300.01 534.53,300.01 535.72,300.01 536.91,300.01 538.10,250.03 539.29,249.99 540.48,300.01 541.68,299.97 542.87,300.01 544.06,299.97 545.25,300.01 546.44,299.97 547.63,299.97 548.82,299.97 550.01,300.06 551.20,249.99 552.40,300.01 553.59,250.03 554.78,249.94 555.97,249.99 557.16,300.01 558.35,300.06 559.54,300.01 560.73,299.97 561.92,299.97 563.12,300.01 564.31,299.93 565.50,299.89 566.69,299.89 567.88,299.89 569.07,299.89 570.26,299.85 571.45,299.85 572.64,299.89 573.84,299.81 575.03,299.81 576.22,299.81 577.41,299.76 578.60,299.76 579.79,299.76 580.98,299.72 582.17,299.68 583.36,299.60 584.55,299.60 585.75,299.60 586.94,299.56 588.13,299.47 589.32,299.43 590.51,299.43 591.70,299.39 592.89,299.47 594.08,259.82 595.27,338.96 596.47,299.31 597.66,299.31 598.85,299.26 600.04,299.68 601.23,299.68 602.42,299.68 603.61,299.64 604.80,299.14 605.99,299.14 607.19,299.10 608.38,299.10 609.57,299.10 610.76,248.07 611.95,299.06 613.14,299.06 614.33,299.06 615.52,299.06 616.71,299.06 617.91,298.97 619.10,298.97 620.29,298.93 621.48,298.97 622.67,298.93 623.86,298.89 625.05,298.89 626.24,298.89 627.43,298.89 628.63,247.78 629.82,298.89 631.01,298.89 632.20,298.85 633.39,298.85 634.58,298.81 635.77,298.81 636.96,298.81 638.15,298.81 639.35,298.81 640.54,298.81 641.73,298.81 642.92,298.81 644.11,298.81 645.30,298.72 646.49,247.45 647.68,247.45 648.87,298.72 650.07,298.72 651.26,298.72 652.45,298.72 653.64,298.72 654.83,298.72 656.02,247.36 657.21,298.68 658.40,247.36 659.59,247.36 660.79,247.36 661.98,298.68 663.17,298.68 664.36,298.68 665.55,298.68 666.74,298.68 667.93,341.67 669.12,307.01 670.31,298.68 671.51,298.68 672.70,298.68 673.89,247.36 675.08,298.64 676.27,247.36 677.46,247.28 678.65,247.20 679.84,298.60 681.03,298.60 682.23,247.03 683.42,298.51 684.61,298.51 685.80,298.51 686.99,298.51 688.18,298.51 689.37,298.51 690.56,298.51 691.75,298.51 692.95,298.51 694.14,298.51 695.33,298.51 696.52,298.51 697.71,298.51 698.90,298.51 700.09,298.51 701.28,298.51 702.47,298.51 703.66,298.51 704.86,298.51 706.05,298.51 707.24,298.51 708.43,298.51 709.62,298.51 710.81,298.51 712.00,298.51 713.19,298.51 714.38,298.47 715.58,298.51 716.77,298.51 717.96,298.47 719.15,298.51 720.34,298.47 721.53,298.51 722.72,298.43 723.91,298.56 725.10,298.43 726.30,298.43 727.49,298.43 728.68,298.43 729.87,298.43 731.06,298.43 732.25,298.43 733.44,298.43 734.63,298.43 735.82,298.43 737.02,298.43 738.21,298.43 739.40,298.43 740.59,298.43 741.78,298.43 742.97,298.43 744.16,298.43 745.35,298.43 746.54,298.43 747.74,298.43 748.93,298.43 750.12,298.43 751.31,298.43 752.50,298.43 753.69,298.43 754.88,298.43 756.07,298.43 757.26,298.43 758.46,298.43 759.65,298.43 760.84,298.43 762.03,298.43 763.22,298.43 764.41,298.43 765.60,298.39 766.79,298.39 767.98,298.43 769.18,298.43 770.37,298.39 771.56,298.39 772.75,298.39 773.94,298.43 775.13,298.43 776.32,298.43 777.51,246.82 778.70,298.43 779.90,246.78 781.09,246.78 782.28,246.78 783.47,246.70 784.66,246.78 785.85,298.39 787.04,298.39 788.23,298.39 789.42,298.39 790.62,298.39 791.81,246.78 793.00,298.39 794.19,298.39 795.38,298.39 796.57,298.39 797.76,298.39 798.95,246.78 800.14,246.78 801.34,298.39 802.53,298.39 803.72,298.39 804.91,298.39 806.10,298.39 807.29,298.39 808.48,298.39 809.67,298.39 810.86,298.39 812.05,298.39 813.25,298.39 814.44,298.39 815.63,298.39 816.82,298.39 818.01,298.35 819.20,298.39 820.39,298.39 821.58,298.35 822.77,298.35 823.97,298.35 825.16,298.35 826.35,298.35 827.54,298.35 828.73,298.35 829.92,298.35 831.11,298.35 832.30,298.35 833.49,298.35 834.69,298.35 835.88,298.35 837.07,298.35 838.26,298.35 839.45,298.35 840.64,298.35 841.83,298.35 843.02,298.35 844.21,298.35 845.41,298.35 846.60,298.35 847.79,298.35 848.98,298.35 850.17,298.35 851.36,298.35 852.55,298.35 853.74,298.35 854.93,298.35 856.13,298.35 857.32,298.35 858.51,298.35 859.70,298.35 860.89,298.35 862.08,298.35 863.27,298.35 864.46,298.35 865.65,298.35 866.85,298.35 868.04,298.35 869.23,298.35 870.42,298.35 871.61,298.35 872.80,298.35 873.99,298.35 875.18,298.35 876.37,298.35 877.57,298.35 878.76,298.35 879.95,298.35 881.14,298.35 882.33,298.35 883.52,298.39 884.71,298.39 885.90,298.39 887.09,246.78 888.29,298.39 889.48,298.39 890.67,298.39 891.86,298.39 893.05,298.39 894.24,298.39 895.43,298.39 896.62,246.78 897.81,298.39 899.01,298.39 900.20,298.39 901.39,298.39 902.58,298.39 903.77,298.39 904.96,298.39 906.15,246.78 907.34,298.39 908.53,298.39 909.73,298.39 910.92,298.39 912.11,298.39 913.30,298.39 914.49,298.39 915.68,298.39 916.87,298.39 918.06,298.39 919.25,298.39 920.45,298.35 921.64,298.39 922.83,298.39 924.02,298.39 925.21,298.35 926.40,298.35 927.59,298.35 928.78,298.35 929.97,298.35 931.16,298.35 932.36,298.35 933.55,298.35 934.74,298.35 935.93,298.35 937.12,298.35 938.31,298.35 939.50,298.35 940.69,298.35 941.88,298.35 943.08,298.35 944.27,298.39 945.46,298.39 946.65,298.39 947.84,298.39 949.03,298.39 950.22,298.39 951.41,298.35 952.60,298.39 953.80,298.39 954.99,298.39 956.18,298.39 957.37,298.39 958.56,298.39 959.75,298.39 960.94,298.39 962.13,298.39 963.32,298.35 964.52,298.39 965.71,298.39 966.90,298.39 968.09,298.39 969.28,298.39 970.47,298.39 971.66,298.39 972.85,298.39 974.04,298.39 975.24,298.39 976.43,298.39 977.62,298.39 978.81,298.39 980.00,298.39"/>
  <circle cx="70.00" cy="50.00" r="2.5" fill="#2563eb"/>
  <circle cx="71.19" cy="50.12" r="2.5" fill="#2563eb"/>
  <circle cx="72.38" cy="50.17" r="2.5" fill="#2563eb"/>
  <circle cx="73.57" cy="50.46" r="2.5" fill="#2563eb"/>
  <circle cx="74.76" cy="50.00" r="2.5" fill="#2563eb"/>
  <circle cx="75.96" cy="266.90" r="2.5" fill="#2563eb"/>
  <circle cx="77.15" cy="50.12" r="2.5" fill="#2563eb"/>
  <circle cx="78.34" cy="50.08" r="2.5" fill="#2563eb"/>
  <circle cx="79.53" cy="177.46" r="2.5" fill="#2563eb"/>
  <circle cx="80.72" cy="211.58" r="2.5" fill="#2563eb"/>
  <circle cx="81.91" cy="175.34" r="2.5" fill="#2563eb"/>
  <circle cx="83.10" cy="304.14" r="2.5" fill="#2563eb"/>
  <circle cx="84.29" cy="200.46" r="2.5" fill="#2563eb"/>
  <circle cx="85.48" cy="250.94" r="2.5" fill="#2563eb"/>
  <circle cx="86.68" cy="300.01" r="2.5" fill="#2563eb"/>
  <circle cx="87.87" cy="300.06" r="2.5" fill="#2563eb"/>
  <circle cx="89.06" cy="300.01" r="2.5" fill="#2563eb"/>
  <circle cx="90.25" cy="300.01" r="2.5" fill="#2563eb"/>
  <circle cx="91.44" cy="348.00" r="2.5" fill="#2563eb"/>
  <circle cx="92.63" cy="300.01" r="2.5" fill="#2563eb"/>
  <circle cx="93.82" cy="249.99" r="2.5" fill="#2563eb"/>
  <circle cx="95.01" cy="200.00" r="2.5" fill="#2563eb"/>
  <circle cx="96.20" cy="249.99" r="2.5" fill="#2563eb"/>
  <circle cx="97.40" cy="249.99" r="2.5" fill="#2563eb"/>
  <circle cx="98.59" cy="250.03" r="2.5" fill="#2563eb"/>
  <circle cx="99.78" cy="250.03" r="2.5" fill="#2563eb"/>
  <circle cx="100.97" cy="250.03" r="2.5" fill="#2563eb"/>
  <circle cx="102.16" cy="250.40" r="2.5" fill="#2563eb"/>
  <circle cx="103.35" cy="250.90" r="2.5" fill="#2563eb"/>
  <circle cx="104.54" cy="250.90" r="2.5" fill="#2563eb"/>
  <circle cx="105.73" cy="251.32" r="2.5" fill="#2563eb"/>
  <circle cx="106.92" cy="249.94" r="2.5" fill="#2563eb"/>
  <circle cx="108.12" cy="300.01" r="2.5" fill="#2563eb"/>
  <circle cx="109.31" cy="299.93" r="2.5" fill="#2563eb"/>
  <circle cx="110.50" cy="251.03" r="2.5" fill="#2563eb"/>
  <circle cx="111.69" cy="300.68" r="2.5" fill="#2563eb"/>
  <circle cx="112.88" cy="250.03" r="2.5" fill="#2563eb"/>
  <circle cx="114.07" cy="200.00" r="2.5" fill="#2563eb"/>
  <circle cx="115.26" cy="249.99" r="2.5" fill="#2563eb"/>
  <circle cx="116.45" cy="250.03" r="2.5" fill="#2563eb"/>
  <circle cx="117.64" cy="250.03" r="2.5" fill="#2563eb"/>
  <circle cx="118.84" cy="250.03" r="2.5" fill="#2563eb"/>
  <circle cx="120.03" cy="300.01" r="2.5" fill="#2563eb"/>
  <circle cx="121.22" cy="200.04" r="2.5" fill="#2563eb"/>
  <circle cx="122.41" cy="250.03" r="2.5" fill="#2563eb"/>
  <circle cx="123.60" cy="250.03" r="2.5" fill="#2563eb"/>
  <circle cx="124.79" cy="250.03" r="2.5" fill="#2563eb"/>
  <circle cx="125.98" cy="249.90" r="2.5" fill="#2563eb"/>
  <circle cx="127.17" cy="250.03" r="2.5" fill="#2563eb"/>
  <circle cx="128.36" cy="250.03" r="2.5" fill="#2563eb"/>
  <circle cx="129.55" cy="250.94" r="2.5" fill="#2563eb"/>
  <circle cx="130.75" cy="250.44" r="2.5" fill="#2563eb"/>
  <circle cx="131.94" cy="250.03" r="2.5" fill="#2563eb"/>
  <circle cx="133.13" cy="250.03" r="2.5" fill="#2563eb"/>
  <circle cx="134.32" cy="300.47" r="2.5" fill="#2563eb"/>
  <circle cx="135.51" cy="300.01" r="2.5" fill="#2563eb"/>
  <circle cx="136.70" cy="300.43" r="2.5" fill="#2563eb"/>
  <circle cx="137.89" cy="250.03" r="2.5" fill="#2563eb"/>
  <circle cx="139.08" cy="249.99" r="2.5" fill="#2563eb"/>
  <circle cx="140.27" cy="300.43" r="2.5" fill="#2563eb"/>
  <circle cx="141.47" cy="249.90" r="2.5" fill="#2563eb"/>
  <circle cx="142.66" cy="249.99" r="2.5" fill="#2563eb"/>
  <circle cx="143.85" cy="249.99" r="2.5" fill="#2563eb"/>
  <circle cx="145.04" cy="200.04" r="2.5" fill="#2563eb"/>
  <circle cx="146.23" cy="300.01" r="2.5" fill="#2563eb"/>
  <circle cx="147.42" cy="300.01" r="2.5" fill="#2563eb"/>
  <circle cx="148.61" cy="300.01" r="2.5" fill="#2563eb"/>
  <circle cx="149.80" cy="249.90" r="2.5" fill="#2563eb"/>
  <circle cx="150.99" cy="300.01" r="2.5" fill="#2563eb"/>
  <circle cx="152.19" cy="250.03" r="2.5" fill="#2563eb"/>
  <circle cx="153.38" cy="249.99" r="2.5" fill="#2563eb"/>
  <circle cx="154.57" cy="199.96" r="2.5" fill="#2563eb"/>
  <circle cx="155.76" cy="300.01" r="2.5" fill="#2563eb"/>
  <circle cx="156.95" cy="200.00" r="2.5" fill="#2563eb"/>
  <circle cx="158.14" cy="250.36" r="2.5" fill="#2563eb"/>
  <circle cx="159.33" cy="250.03" r="2.5" fill="#2563eb"/>
  <circle cx="160.52" cy="300.01" r="2.5" fill="#2563eb"/>
  <circle cx="161.71" cy="300.01" r="2.5" fill="#2563eb"/>
  <circle cx="162.91" cy="250.44" r="2.5" fill="#2563eb"/>
  <circle cx="164.10" cy="300.01" r="2.5" fill="#2563eb"/>
  <circle cx="165.29" cy="250.03" r="2.5" fill="#2563eb"/>
  <circle cx="166.48" cy="250.03" r="2.5" fill="#2563eb"/>
  <circle cx="167.67" cy="249.99" r="2.5" fill="#2563eb"/>
  <circle cx="168.86" cy="250.49" r="2.5" fill="#2563eb"/>
  <circle cx="170.05" cy="250.03" r="2.5" fill="#2563eb"/>
  <circle cx="171.24" cy="200.04" r="2.5" fill="#2563eb"/>
  <circle cx="172.43" cy="300.01" r="2.5" fill="#2563eb"/>
  <circle cx="173.63" cy="250.03" r="2.5" fill="#2563eb"/>
  <circle cx="174.82" cy="300.01" r="2.5" fill="#2563eb"/>
  <circle cx="176.01" cy="250.11" r="2.5" fill="#2563eb"/>
  <circle cx="177.20" cy="300.01" r="2.5" fill="#2563eb"/>
  <circle cx="178.39" cy="250.03" r="2.5" fill="#2563eb"/>
  <circle cx="179.58" cy="250.03" r="2.5" fill="#2563eb"/>
  <circle cx="180.77" cy="199.92" r="2.5" fill="#2563eb"/>
  <circle cx="181.96" cy="250.03" r="2.5" fill="#2563eb"/>
  <circle cx="183.15" cy="250.03" r="2.5" fill="#2563eb"/>
  <circle cx="184.35" cy="250.03" r="2.5" fill="#2563eb"/>
  <circle cx="185.54" cy="254.36" r="2.5" fill="#2563eb"/>
  <circle cx="186.73" cy="300.01" r="2.5" fill="#2563eb"/>
  <circle cx="187.92" cy="299.97" r="2.5" fill="#2563eb"/>
  <circle cx="189.11" cy="250.36" r="2.5" fill="#2563eb"/>
  <circle cx="190.30" cy="299.97" r="2.5" fill="#2563eb"/>
  <circle cx="191.49" cy="250.03" r="2.5" fill="#2563eb"/>
  <circle cx="192.68" cy="250.03" r="2.5" fill="#2563eb"/>
  <circle cx="193.87" cy="250.03" r="2.5" fill="#2563eb"/>
  <circle cx="195.07" cy="250.03" r="2.5" fill="#2563eb"/>
  <circle cx="196.26" cy="249.99" r="2.5" fill="#2563eb"/>
  <circle cx="197.45" cy="200.00" r="2.5" fill="#2563eb"/>
  <circle cx="198.64" cy="299.93" r="2.5" fill="#2563eb"/>
  <circle cx="199.83" cy="300.01" r="2.5" fill="#2563eb"/>
  <circle cx="201.02" cy="299.97" r="2.5" fill="#2563eb"/>
  <circle cx="202.21" cy="249.94" r="2.5" fill="#2563eb"/>
  <circle cx="203.40" cy="249.99" r="2.5" fill="#2563eb"/>
  <circle cx="204.59" cy="249.82" r="2.5" fill="#2563eb"/>
  <circle cx="205.79" cy="249.94" r="2.5" fill="#2563eb"/>
  <circle cx="206.98" cy="250.28" r="2.5" fill="#2563eb"/>
  <circle cx="208.17" cy="207.00" r="2.5" fill="#2563eb"/>
  <circle cx="209.36" cy="250.03" r="2.5" fill="#2563eb"/>
  <circle cx="210.55" cy="250.32" r="2.5" fill="#2563eb"/>
  <circle cx="211.74" cy="250.40" r="2.5" fill="#2563eb"/>
  <circle cx="212.93" cy="300.93" r="2.5" fill="#2563eb"/>
  <circle cx="214.12" cy="300.01" r="2.5" fill="#2563eb"/>
  <circle cx="215.31" cy="300.10" r="2.5" fill="#2563eb"/>
  <circle cx="216.51" cy="249.94" r="2.5" fill="#2563eb"/>
  <circle cx="217.70" cy="249.99" r="2.5" fill="#2563eb"/>
  <circle cx="218.89" cy="250.07" r="2.5" fill="#2563eb"/>
  <circle cx="220.08" cy="249.99" r="2.5" fill="#2563eb"/>
  <circle cx="221.27" cy="250.03" r="2.5" fill="#2563eb"/>
  <circle cx="222.46" cy="249.94" r="2.5" fill="#2563eb"/>
  <circle cx="223.65" cy="200.00" r="2.5" fill="#2563eb"/>
  <circle cx="224.84" cy="300.39" r="2.5" fill="#2563eb"/>
  <circle cx="226.03" cy="300.01" r="2.5" fill="#2563eb"/>
  <circle cx="227.23" cy="300.01" r="2.5" fill="#2563eb"/>
  <circle cx="228.42" cy="250.44" r="2.5" fill="#2563eb"/>
  <circle cx="229.61" cy="300.39" r="2.5" fill="#2563eb"/>
  <circle cx="230.80" cy="249.86" r="2.5" fill="#2563eb"/>
  <circle cx="231.99" cy="250.11" r="2.5" fill="#2563eb"/>
  <circle cx="233.18" cy="201.46" r="2.5" fill="#2563eb"/>
  <circle cx="234.37" cy="300.01" r="2.5" fill="#2563eb"/>
  <circle cx="235.56" cy="200.83" r="2.5" fill="#2563eb"/>
  <circle cx="236.75" cy="250.03" r="2.5" fill="#2563eb"/>
  <circle cx="237.95" cy="249.99" r="2.5" fill="#2563eb"/>
  <circle cx="239.14" cy="300.26" r="2.5" fill="#2563eb"/>
  <circle cx="240.33" cy="300.01" r="2.5" fill="#2563eb"/>
  <circle cx="241.52" cy="300.01" r="2.5" fill="#2563eb"/>
  <circle cx="242.71" cy="250.03" r="2.5" fill="#2563eb"/>
  <circle cx="243.90" cy="250.03" r="2.5" fill="#2563eb"/>
  <circle cx="245.09" cy="250.03" r="2.5" fill="#2563eb"/>
  <circle cx="246.28" cy="250.03" r="2.5" fill="#2563eb"/>
  <circle cx="247.47" cy="249.99" r="2.5" fill="#2563eb"/>
  <circle cx="248.66" cy="250.03" r="2.5" fill="#2563eb"/>
  <circle cx="249.86" cy="200.00" r="2.5" fill="#2563eb"/>
  <circle cx="251.05" cy="300.26" r="2.5" fill="#2563eb"/>
  <circle cx="252.24" cy="249.99" r="2.5" fill="#2563eb"/>
  <circle cx="253.43" cy="300.01" r="2.5" fill="#2563eb"/>
  <circle cx="254.62" cy="249.94" r="2.5" fill="#2563eb"/>
  <circle cx="255.81" cy="250.03" r="2.5" fill="#2563eb"/>
  <circle cx="257.00" cy="250.03" r="2.5" fill="#2563eb"/>
  <circle cx="258.19" cy="250.03" r="2.5" fill="#2563eb"/>
  <circle cx="259.38" cy="200.04" r="2.5" fill="#2563eb"/>
  <circle cx="260.58" cy="300.01" r="2.5" fill="#2563eb"/>
  <circle cx="261.77" cy="249.90" r="2.5" fill="#2563eb"/>
  <circle cx="262.96" cy="300.01" r="2.5" fill="#2563eb"/>
  <circle cx="264.15" cy="300.01" r="2.5" fill="#2563eb"/>
  <circle cx="265.34" cy="300.06" r="2.5" fill="#2563eb"/>
  <circle cx="266.53" cy="300.01" r="2.5" fill="#2563eb"/>
  <circle cx="267.72" cy="300.01" r="2.5" fill="#2563eb"/>
  <circle cx="268.91" cy="243.95" r="2.5" fill="#2563eb"/>
  <circle cx="270.10" cy="249.94" r="2.5" fill="#2563eb"/>
  <circle cx="271.30" cy="299.97" r="2.5" fill="#2563eb"/>
  <circle cx="272.49" cy="300.01" r="2.5" fill="#2563eb"/>
  <circle cx="273.68" cy="300.01" r="2.5" fill="#2563eb"/>
  <circle cx="274.87" cy="250.03" r="2.5" fill="#2563eb"/>
  <circle cx="276.06" cy="300.01" r="2.5" fill="#2563eb"/>
  <circle cx="277.25" cy="300.01" r="2.5" fill="#2563eb"/>
  <circle cx="278.44" cy="299.97" r="2.5" fill="#2563eb"/>
  <circle cx="279.63" cy="249.99" r="2.5" fill="#2563eb"/>
  <circle cx="280.82" cy="300.01" r="2.5" fill="#2563eb"/>
  <circle cx="282.02" cy="299.93" r="2.5" fill="#2563eb"/>
  <circle cx="283.21" cy="300.01" r="2.5" fill="#2563eb"/>
  <circle cx="284.40" cy="299.93" r="2.5" fill="#2563eb"/>
  <circle cx="285.59" cy="300.01" r="2.5" fill="#2563eb"/>
  <circle cx="286.78" cy="300.01" r="2.5" fill="#2563eb"/>
  <circle cx="287.97" cy="299.89" r="2.5" fill="#2563eb"/>
  <circle cx="289.16" cy="299.97" r="2.5" fill="#2563eb"/>
  <circle cx="290.35" cy="250.03" r="2.5" fill="#2563eb"/>
  <circle cx="291.54" cy="299.93" r="2.5" fill="#2563eb"/>
  <circle cx="292.74" cy="299.89" r="2.5" fill="#2563eb"/>
  <circle cx="293.93" cy="299.97" r="2.5" fill="#2563eb"/>
  <circle cx="295.12" cy="249.94" r="2.5" fill="#2563eb"/>
  <circle cx="296.31" cy="300.01" r="2.5" fill="#2563eb"/>
  <circle cx="297.50" cy="300.01" r="2.5" fill="#2563eb"/>
  <circle cx="298.69" cy="299.97" r="2.5" fill="#2563eb"/>
  <circle cx="299.88" cy="249.99" r="2.5" fill="#2563eb"/>
  <circle cx="301.07" cy="299.97" r="2.5" fill="#2563eb"/>
  <circle cx="302.26" cy="299.97" r="2.5" fill="#2563eb"/>
  <circle cx="303.46" cy="300.06" r="2.5" fill="#2563eb"/>
  <circle cx="304.65" cy="300.06" r="2.5" fill="#2563eb"/>
  <circle cx="305.84" cy="299.93" r="2.5" fill="#2563eb"/>
  <circle cx="307.03" cy="300.01" r="2.5" fill="#2563eb"/>
  <circle cx="308.22" cy="300.01" r="2.5" fill="#2563eb"/>
  <circle cx="309.41" cy="299.93" r="2.5" fill="#2563eb"/>
  <circle cx="310.60" cy="300.01" r="2.5" fill="#2563eb"/>
  <circle cx="311.79" cy="300.01" r="2.5" fill="#2563eb"/>
  <circle cx="312.98" cy="299.97" r="2.5" fill="#2563eb"/>
  <circle cx="314.18" cy="300.01" r="2.5" fill="#2563eb"/>
  <circle cx="315.37" cy="300.01" r="2.5" fill="#2563eb"/>
  <circle cx="316.56" cy="300.01" r="2.5" fill="#2563eb"/>
  <circle cx="317.75" cy="300.01" r="2.5" fill="#2563eb"/>
  <circle cx="318.94" cy="249.86" r="2.5" fill="#2563eb"/>
  <circle cx="320.13" cy="300.01" r="2.5" fill="#2563eb"/>
  <circle cx="321.32" cy="300.10" r="2.5" fill="#2563eb"/>
  <circle cx="322.51" cy="299.93" r="2.5" fill="#2563eb"/>
  <circle cx="323.70" cy="300.01" r="2.5" fill="#2563eb"/>
  <circle cx="324.90" cy="299.93" r="2.5" fill="#2563eb"/>
  <circle cx="326.09" cy="300.01" r="2.5" fill="#2563eb"/>
  <circle cx="327.28" cy="300.01" r="2.5" fill="#2563eb"/>
  <circle cx="328.47" cy="300.01" r="2.5" fill="#2563eb"/>
  <circle cx="329.66" cy="300.01" r="2.5" fill="#2563eb"/>
  <circle cx="330.85" cy="300.01" r="2.5" fill="#2563eb"/>
  <circle cx="332.04" cy="299.97" r="2.5" fill="#2563eb"/>
  <circle cx="333.23" cy="300.01" r="2.5" fill="#2563eb"/>
  <circle cx="334.42" cy="300.01" r="2.5" fill="#2563eb"/>
  <circle cx="335.62" cy="300.01" r="2.5" fill="#2563eb"/>
  <circle cx="336.81" cy="300.01" r="2.5" fill="#2563eb"/>
  <circle cx="338.00" cy="250.03" r="2.5" fill="#2563eb"/>
  <circle cx="339.19" cy="300.01" r="2.5" fill="#2563eb"/>
  <circle cx="340.38" cy="300.01" r="2.5" fill="#2563eb"/>
  <circle cx="341.57" cy="299.97" r="2.5" fill="#2563eb"/>
  <circle cx="342.76" cy="300.01" r="2.5" fill="#2563eb"/>
  <circle cx="343.95" cy="300.01" r="2.5" fill="#2563eb"/>
  <circle cx="345.14" cy="299.97" r="2.5" fill="#2563eb"/>
  <circle cx="346.34" cy="299.97" r="2.5" fill="#2563eb"/>
  <circle cx="347.53" cy="300.01" r="2.5" fill="#2563eb"/>
  <circle cx="348.72" cy="299.97" r="2.5" fill="#2563eb"/>
  <circle cx="349.91" cy="300.01" r="2.5" fill="#2563eb"/>
  <circle cx="351.10" cy="299.93" r="2.5" fill="#2563eb"/>
  <circle cx="352.29" cy="300.01" r="2.5" fill="#2563eb"/>
  <circle cx="353.48" cy="250.03" r="2.5" fill="#2563eb"/>
  <circle cx="354.67" cy="300.01" r="2.5" fill="#2563eb"/>
  <circle cx="355.86" cy="300.01" r="2.5" fill="#2563eb"/>
  <circle cx="357.05" cy="300.01" r="2.5" fill="#2563eb"/>
  <circle cx="358.25" cy="300.01" r="2.5" fill="#2563eb"/>
  <circle cx="359.44" cy="300.01" r="2.5" fill="#2563eb"/>
  <circle cx="360.63" cy="299.89" r="2.5" fill="#2563eb"/>
  <circle cx="361.82" cy="300.01" r="2.5" fill="#2563eb"/>
  <circle cx="363.01" cy="300.01" r="2.5" fill="#2563eb"/>
  <circle cx="364.20" cy="250.07" r="2.5" fill="#2563eb"/>
  <circle cx="365.39" cy="300.01" r="2.5" fill="#2563eb"/>
  <circle cx="366.58" cy="299.93" r="2.5" fill="#2563eb"/>
  <circle cx="367.77" cy="300.01" r="2.5" fill="#2563eb"/>
  <circle cx="368.97" cy="299.97" r="2.5" fill="#2563eb"/>
  <circle cx="370.16" cy="299.97" r="2.5" fill="#2563eb"/>
  <circle cx="371.35" cy="299.97" r="2.5" fill="#2563eb"/>
  <circle cx="372.54" cy="250.03" r="2.5" fill="#2563eb"/>
  <circle cx="373.73" cy="300.01" r="2.5" fill="#2563eb"/>
  <circle cx="374.92" cy="300.01" r="2.5" fill="#2563eb"/>
  <circle cx="376.11" cy="300.01" r="2.5" fill="#2563eb"/>
  <circle cx="377.30" cy="300.01" r="2.5" fill="#2563eb"/>
  <circle cx="378.49" cy="299.97" r="2.5" fill="#2563eb"/>
  <circle cx="379.69" cy="300.01" r="2.5" fill="#2563eb"/>
  <circle cx="380.88" cy="299.97" r="2.5" fill="#2563eb"/>
  <circle cx="382.07" cy="300.01" r="2.5" fill="#2563eb"/>
  <circle cx="383.26" cy="299.97" r="2.5" fill="#2563eb"/>
  <circle cx="384.45" cy="249.90" r="2.5" fill="#2563eb"/>
  <circle cx="385.64" cy="300.01" r="2.5" fill="#2563eb"/>
  <circle cx="386.83" cy="300.01" r="2.5" fill="#2563eb"/>
  <circle cx="388.02" cy="299.89" r="2.5" fill="#2563eb"/>
  <circle cx="389.21" cy="299.97" r="2.5" fill="#2563eb"/>
  <circle cx="390.41" cy="299.97" r="2.5" fill="#2563eb"/>
  <circle cx="391.60" cy="249.99" r="2.5" fill="#2563eb"/>
  <circle cx="392.79" cy="299.97" r="2.5" fill="#2563eb"/>
  <circle cx="393.98" cy="299.89" r="2.5" fill="#2563eb"/>
  <circle cx="395.17" cy="300.01" r="2.5" fill="#2563eb"/>
  <circle cx="396.36" cy="299.97" r="2.5" fill="#2563eb"/>
  <circle cx="397.55" cy="299.97" r="2.5" fill="#2563eb"/>
  <circle cx="398.74" cy="300.01" r="2.5" fill="#2563eb"/>
  <circle cx="399.93" cy="299.97" r="2.5" fill="#2563eb"/>
  <circle cx="401.13" cy="249.99" r="2.5" fill="#2563eb"/>
  <circle cx="402.32" cy="299.97" r="2.5" fill="#2563eb"/>
  <circle cx="403.51" cy="299.97" r="2.5" fill="#2563eb"/>
  <circle cx="404.70" cy="300.06" r="2.5" fill="#2563eb"/>
  <circle cx="405.89" cy="300.06" r="2.5" fill="#2563eb"/>
  <circle cx="407.08" cy="249.94" r="2.5" fill="#2563eb"/>
  <circle cx="408.27" cy="300.01" r="2.5" fill="#2563eb"/>
  <circle cx="409.46" cy="299.93" r="2.5" fill="#2563eb"/>
  <circle cx="410.65" cy="300.01" r="2.5" fill="#2563eb"/>
  <circle cx="411.85" cy="300.01" r="2.5" fill="#2563eb"/>
  <circle cx="413.04" cy="249.99" r="2.5" fill="#2563eb"/>
  <circle cx="414.23" cy="300.01" r="2.5" fill="#2563eb"/>
  <circle cx="415.42" cy="300.01" r="2.5" fill="#2563eb"/>
  <circle cx="416.61" cy="300.01" r="2.5" fill="#2563eb"/>
  <circle cx="417.80" cy="299.93" r="2.5" fill="#2563eb"/>
  <circle cx="418.99" cy="299.93" r="2.5" fill="#2563eb"/>
  <circle cx="420.18" cy="300.01" r="2.5" fill="#2563eb"/>
  <circle cx="421.37" cy="300.01" r="2.5" fill="#2563eb"/>
  <circle cx="422.57" cy="249.94" r="2.5" fill="#2563eb"/>
  <circle cx="423.76" cy="299.97" r="2.5" fill="#2563eb"/>
  <circle cx="424.95" cy="299.97" r="2.5" fill="#2563eb"/>
  <circle cx="426.14" cy="300.01" r="2.5" fill="#2563eb"/>
  <circle cx="427.33" cy="300.01" r="2.5" fill="#2563eb"/>
  <circle cx="428.52" cy="300.01" r="2.5" fill="#2563eb"/>
  <circle cx="429.71" cy="249.99" r="2.5" fill="#2563eb"/>
  <circle cx="430.90" cy="300.01" r="2.5" fill="#2563eb"/>
  <circle cx="432.09" cy="300.01" r="2.5" fill="#2563eb"/>
  <circle cx="433.29" cy="300.01" r="2.5" fill="#2563eb"/>
  <circle cx="434.48" cy="250.03" r="2.5" fill="#2563eb"/>
  <circle cx="435.67" cy="300.01" r="2.5" fill="#2563eb"/>
  <circle cx="436.86" cy="300.01" r="2.5" fill="#2563eb"/>
  <circle cx="438.05" cy="300.01" r="2.5" fill="#2563eb"/>
  <circle cx="439.24" cy="299.97" r="2.5" fill="#2563eb"/>
  <circle cx="440.43" cy="300.01" r="2.5" fill="#2563eb"/>
  <circle cx="441.62" cy="300.01" r="2.5" fill="#2563eb"/>
  <circle cx="442.81" cy="299.97" r="2.5" fill="#2563eb"/>
  <circle cx="444.01" cy="299.97" r="2.5" fill="#2563eb"/>
  <circle cx="445.20" cy="300.01" r="2.5" fill="#2563eb"/>
  <circle cx="446.39" cy="300.01" r="2.5" fill="#2563eb"/>
  <circle cx="447.58" cy="299.97" r="2.5" fill="#2563eb"/>
  <circle cx="448.77" cy="299.93" r="2.5" fill="#2563eb"/>
  <circle cx="449.96" cy="300.01" r="2.5" fill="#2563eb"/>
  <circle cx="451.15" cy="300.06" r="2.5" fill="#2563eb"/>
  <circle cx="452.34" cy="299.97" r="2.5" fill="#2563eb"/>
  <circle cx="453.53" cy="300.01" r="2.5" fill="#2563eb"/>
  <circle cx="454.73" cy="250.03" r="2.5" fill="#2563eb"/>
  <circle cx="455.92" cy="250.03" r="2.5" fill="#2563eb"/>
  <circle cx="457.11" cy="299.93" r="2.5" fill="#2563eb"/>
  <circle cx="458.30" cy="299.97" r="2.5" fill="#2563eb"/>
  <circle cx="459.49" cy="300.01" r="2.5" fill="#2563eb"/>
  <circle cx="460.68" cy="300.01" r="2.5" fill="#2563eb"/>
  <circle cx="461.87" cy="300.06" r="2.5" fill="#2563eb"/>
  <circle cx="463.06" cy="300.01" r="2.5" fill="#2563eb"/>
  <circle cx="464.25" cy="299.93" r="2.5" fill="#2563eb"/>
  <circle cx="465.45" cy="300.01" r="2.5" fill="#2563eb"/>
  <circle cx="466.64" cy="300.01" r="2.5" fill="#2563eb"/>
  <circle cx="467.83" cy="299.97" r="2.5" fill="#2563eb"/>
  <circle cx="469.02" cy="299.97" r="2.5" fill="#2563eb"/>
  <circle cx="470.21" cy="300.01" r="2.5" fill="#2563eb"/>
  <circle cx="471.40" cy="250.03" r="2.5" fill="#2563eb"/>
  <circle cx="472.59" cy="300.01" r="2.5" fill="#2563eb"/>
  <circle cx="473.78" cy="300.01" r="2.5" fill="#2563eb"/>
  <circle cx="474.97" cy="300.01" r="2.5" fill="#2563eb"/>
  <circle cx="476.16" cy="299.97" r="2.5" fill="#2563eb"/>
  <circle cx="477.36" cy="300.01" r="2.5" fill="#2563eb"/>
  <circle cx="478.55" cy="299.97" r="2.5" fill="#2563eb"/>
  <circle cx="479.74" cy="300.01" r="2.5" fill="#2563eb"/>
  <circle cx="480.93" cy="299.97" r="2.5" fill="#2563eb"/>
  <circle cx="482.12" cy="299.97" r="2.5" fill="#2563eb"/>
  <circle cx="483.31" cy="299.93" r="2.5" fill="#2563eb"/>
  <circle cx="484.50" cy="300.01" r="2.5" fill="#2563eb"/>
  <circle cx="485.69" cy="300.01" r="2.5" fill="#2563eb"/>
  <circle cx="486.88" cy="299.89" r="2.5" fill="#2563eb"/>
  <circle cx="488.08" cy="299.97" r="2.5" fill="#2563eb"/>
  <circle cx="489.27" cy="299.97" r="2.5" fill="#2563eb"/>
  <circle cx="490.46" cy="300.06" r="2.5" fill="#2563eb"/>
  <circle cx="491.65" cy="249.90" r="2.5" fill="#2563eb"/>
  <circle cx="492.84" cy="299.89" r="2.5" fill="#2563eb"/>
  <circle cx="494.03" cy="300.01" r="2.5" fill="#2563eb"/>
  <circle cx="495.22" cy="299.97" r="2.5" fill="#2563eb"/>
  <circle cx="496.41" cy="299.97" r="2.5" fill="#2563eb"/>
  <circle cx="497.60" cy="299.97" r="2.5" fill="#2563eb"/>
  <circle cx="498.80" cy="300.01" r="2.5" fill="#2563eb"/>
  <circle cx="499.99" cy="300.01" r="2.5" fill="#2563eb"/>
  <circle cx="501.18" cy="299.97" r="2.5" fill="#2563eb"/>
  <circle cx="502.37" cy="299.97" r="2.5" fill="#2563eb"/>
  <circle cx="503.56" cy="299.97" r="2.5" fill="#2563eb"/>
  <circle cx="504.75" cy="250.03" r="2.5" fill="#2563eb"/>
  <circle cx="505.94" cy="299.93" r="2.5" fill="#2563eb"/>
  <circle cx="507.13" cy="300.01" r="2.5" fill="#2563eb"/>
  <circle cx="508.32" cy="300.01" r="2.5" fill="#2563eb"/>
  <circle cx="509.52" cy="299.93" r="2.5" fill="#2563eb"/>
  <circle cx="510.71" cy="300.01" r="2.5" fill="#2563eb"/>
  <circle cx="511.90" cy="300.01" r="2.5" fill="#2563eb"/>
  <circle cx="513.09" cy="299.97" r="2.5" fill="#2563eb"/>
  <circle cx="514.28" cy="300.01" r="2.5" fill="#2563eb"/>
  <circle cx="515.47" cy="300.01" r="2.5" fill="#2563eb"/>
  <circle cx="516.66" cy="300.06" r="2.5" fill="#2563eb"/>
  <circle cx="517.85" cy="300.01" r="2.5" fill="#2563eb"/>
  <circle cx="519.04" cy="299.97" r="2.5" fill="#2563eb"/>
  <circle cx="520.24" cy="299.89" r="2.5" fill="#2563eb"/>
  <circle cx="521.43" cy="300.01" r="2.5" fill="#2563eb"/>
  <circle cx="522.62" cy="300.01" r="2.5" fill="#2563eb"/>
  <circle cx="523.81" cy="249.94" r="2.5" fill="#2563eb"/>
  <circle cx="525.00" cy="249.94" r="2.5" fill="#2563eb"/>
  <circle cx="526.19" cy="300.01" r="2.5" fill="#2563eb"/>
  <circle cx="527.38" cy="300.01" r="2.5" fill="#2563eb"/>
  <circle cx="528.57" cy="300.01" r="2.5" fill="#2563eb"/>
  <circle cx="529.76" cy="300.01" r="2.5" fill="#2563eb"/>
  <circle cx="530.96" cy="299.97" r="2.5" fill="#2563eb"/>
  <circle cx="532.15" cy="250.03" r="2.5" fill="#2563eb"/>
  <circle cx="533.34" cy="300.01" r="2.5" fill="#2563eb"/>
  <circle cx="534.53" cy="300.01" r="2.5" fill="#2563eb"/>
  <circle cx="535.72" cy="300.01" r="2.5" fill="#2563eb"/>
  <circle cx="536.91" cy="300.01" r="2.5" fill="#2563eb"/>
  <circle cx="538.10" cy="250.03" r="2.5" fill="#2563eb"/>
  <circle cx="539.29" cy="249.99" r="2.5" fill="#2563eb"/>
  <circle cx="540.48" cy="300.01" r="2.5" fill="#2563eb"/>
  <circle cx="541.68" cy="299.97" r="2.5" fill="#2563eb"/>
  <circle cx="542.87" cy="300.01" r="2.5" fill="#2563eb"/>
  <circle cx="544.06" cy="299.97" r="2.5" fill="#2563eb"/>
  <circle cx="545.25" cy="300.01" r="2.5" fill="#2563eb"/>
  <circle cx="546.44" cy="299.97" r="2.5" fill="#2563eb"/>
  <circle cx="547.63" cy="299.97" r="2.5" fill="#2563eb"/>
  <circle cx="548.82" cy="299.97" r="2.5" fill="#2563eb"/>
  <circle cx="550.01" cy="300.06" r="2.5" fill="#2563eb"/>
  <circle cx="551.20" cy="249.99" r="2.5" fill="#2563eb"/>
  <circle cx="552.40" cy="300.01" r="2.5" fill="#2563eb"/>
  <circle cx="553.59" cy="250.03" r="2.5" fill="#2563eb"/>
  <circle cx="554.78" cy="249.94" r="2.5" fill="#2563eb"/>
  <circle cx="555.97" cy="249.99" r="2.5" fill="#2563eb"/>
  <circle cx="557.16" cy="300.01" r="2.5" fill="#2563eb"/>
  <circle cx="558.35" cy="300.06" r="2.5" fill="#2563eb"/>
  <circle cx="559.54" cy="300.01" r="2.5" fill="#2563eb"/>
  <circle cx="560.73" cy="299.97" r="2.5" fill="#2563eb"/>
  <circle cx="561.92" cy="299.97" r="2.5" fill="#2563eb"/>
  <circle cx="563.12" cy="300.01" r="2.5" fill="#2563eb"/>
  <circle cx="564.31" cy="299.93" r="2.5" fill="#2563eb"/>
  <circle cx="565.50" cy="299.89" r="2.5" fill="#2563eb"/>
  <circle cx="566.69" cy="299.89" r="2.5" fill="#2563eb"/>
  <circle cx="567.88" cy="299.89" r="2.5" fill="#2563eb"/>
  <circle cx="569.07" cy="299.89" r="2.5" fill="#2563eb"/>
  <circle cx="570.26" cy="299.85" r="2.5" fill="#2563eb"/>
  <circle cx="571.45" cy="299.85" r="2.5" fill="#2563eb"/>
  <circle cx="572.64" cy="299.89" r="2.5" fill="#2563eb"/>
  <circle cx="573.84" cy="299.81" r="2.5" fill="#2563eb"/>
  <circle cx="575.03" cy="299.81" r="2.5" fill="#2563eb"/>
  <circle cx="576.22" cy="299.81" r="2.5" fill="#2563eb"/>
  <circle cx="577.41" cy="299.76" r="2.5" fill="#2563eb"/>
  <circle cx="578.60" cy="299.76" r="2.5" fill="#2563eb"/>
  <circle cx="579.79" cy="299.76" r="2.5" fill="#2563eb"/>
  <circle cx="580.98" cy="299.72" r="2.5" fill="#2563eb"/>
  <circle cx="582.17" cy="299.68" r="2.5" fill="#2563eb"/>
  <circle cx="583.36" cy="299.60" r="2.5" fill="#2563eb"/>
  <circle cx="584.55" cy="299.60" r="2.5" fill="#2563eb"/>
  <circle cx="585.75" cy="299.60" r="2.5" fill="#2563eb"/>
  <circle cx="586.94" cy="299.56" r="2.5" fill="#2563eb"/>
  <circle cx="588.13" cy="299.47" r="2.5" fill="#2563eb"/>
  <circle cx="589.32" cy="299.43" r="2.5" fill="#2563eb"/>
  <circle cx="590.51" cy="299.43" r="2.5" fill="#2563eb"/>
  <circle cx="591.70" cy="299.39" r="2.5" fill="#2563eb"/>
  <circle cx="592.89" cy="299.47" r="2.5" fill="#2563eb"/>
  <circle cx="594.08" cy="259.82" r="2.5" fill="#2563eb"/>
  <circle cx="595.27" cy="338.96" r="2.5" fill="#2563eb"/>
  <circle cx="596.47" cy="299.31" r="2.5" fill="#2563eb"/>
  <circle cx="597.66" cy="299.31" r="2.5" fill="#2563eb"/>
  <circle cx="598.85" cy="299.26" r="2.5" fill="#2563eb"/>
  <circle cx="600.04" cy="299.68" r="2.5" fill="#2563eb"/>
  <circle cx="601.23" cy="299.68" r="2.5" fill="#2563eb"/>
  <circle cx="602.42" cy="299.68" r="2.5" fill="#2563eb"/>
  <circle cx="603.61" cy="299.64" r="2.5" fill="#2563eb"/>
  <circle cx="604.80" cy="299.14" r="2.5" fill="#2563eb"/>
  <circle cx="605.99" cy="299.14" r="2.5" fill="#2563eb"/>
  <circle cx="607.19" cy="299.10" r="2.5" fill="#2563eb"/>
  <circle cx="608.38" cy="299.10" r="2.5" fill="#2563eb"/>
  <circle cx="609.57" cy="299.10" r="2.5" fill="#2563eb"/>
  <circle cx="610.76" cy="248.07" r="2.5" fill="#2563eb"/>
  <circle cx="611.95" cy="299.06" r="2.5" fill="#2563eb"/>
  <circle cx="613.14" cy="299.06" r="2.5" fill="#2563eb"/>
  <circle cx="614.33" cy="299.06" r="2.5" fill="#2563eb"/>
  <circle cx="615.52" cy="299.06" r="2.5" fill="#2563eb"/>
  <circle cx="616.71" cy="299.06" r="2.5" fill="#2563eb"/>
  <circle cx="617.91" cy="298.97" r="2.5" fill="#2563eb"/>
  <circle cx="619.10" cy="298.97" r="2.5" fill="#2563eb"/>
  <circle cx="620.29" cy="298.93" r="2.5" fill="#2563eb"/>
  <circle cx="621.48" cy="298.97" r="2.5" fill="#2563eb"/>
  <circle cx="622.67" cy="298.93" r="2.5" fill="#2563eb"/>
  <circle cx="623.86" cy="298.89" r="2.5" fill="#2563eb"/>
  <circle cx="625.05" cy="298.89" r="2.5" fill="#2563eb"/>
  <circle cx="626.24" cy="298.89" r="2.5" fill="#2563eb"/>
  <circle cx="627.43" cy="298.89" r="2.5" fill="#2563eb"/>
  <circle cx="628.63" cy="247.78" r="2.5" fill="#2563eb"/>
  <circle cx="629.82" cy="298.89" r="2.5" fill="#2563eb"/>
  <circle cx="631.01" cy="298.89" r="2.5" fill="#2563eb"/>
  <circle cx="632.20" cy="298.85" r="2.5" fill="#2563eb"/>
  <circle cx="633.39" cy="298.85" r="2.5" fill="#2563eb"/>
  <circle cx="634.58" cy="298.81" r="2.5" fill="#2563eb"/>
  <circle cx="635.77" cy="298.81" r="2.5" fill="#2563eb"/>
  <circle cx="636.96" cy="298.81" r="2.5" fill="#2563eb"/>
  <circle cx="638.15" cy="298.81" r="2.5" fill="#2563eb"/>
  <circle cx="639.35" cy="298.81" r="2.5" fill="#2563eb"/>
  <circle cx="640.54" cy="298.81" r="2.5" fill="#2563eb"/>
  <circle cx="641.73" cy="298.81" r="2.5" fill="#2563eb"/>
  <circle cx="642.92" cy="298.81" r="2.5" fill="#2563eb"/>
  <circle cx="644.11" cy="298.81" r="2.5" fill="#2563eb"/>
  <circle cx="645.30" cy="298.72" r="2.5" fill="#2563eb"/>
  <circle cx="646.49" cy="247.45" r="2.5" fill="#2563eb"/>
  <circle cx="647.68" cy="247.45" r="2.5" fill="#2563eb"/>
  <circle cx="648.87" cy="298.72" r="2.5" fill="#2563eb"/>
  <circle cx="650.07" cy="298.72" r="2.5" fill="#2563eb"/>
  <circle cx="651.26" cy="298.72" r="2.5" fill="#2563eb"/>
  <circle cx="652.45" cy="298.72" r="2.5" fill="#2563eb"/>
  <circle cx="653.64" cy="298.72" r="2.5" fill="#2563eb"/>
  <circle cx="654.83" cy="298.72" r="2.5" fill="#2563eb"/>
  <circle cx="656.02" cy="247.36" r="2.5" fill="#2563eb"/>
  <circle cx="657.21" cy="298.68" r="2.5" fill="#2563eb"/>
  <circle cx="658.40" cy="247.36" r="2.5" fill="#2563eb"/>
  <circle cx="659.59" cy="247.36" r="2.5" fill="#2563eb"/>
  <circle cx="660.79" cy="247.36" r="2.5" fill="#2563eb"/>
  <circle cx="661.98" cy="298.68" r="2.5" fill="#2563eb"/>
  <circle cx="663.17" cy="298.68" r="2.5" fill="#2563eb"/>
  <circle cx="664.36" cy="298.68" r="2.5" fill="#2563eb"/>
  <circle cx="665.55" cy="298.68" r="2.5" fill="#2563eb"/>
  <circle cx="666.74" cy="298.68" r="2.5" fill="#2563eb"/>
  <circle cx="667.93" cy="341.67" r="2.5" fill="#2563eb"/>
  <circle cx="669.12" cy="307.01" r="2.5" fill="#2563eb"/>
  <circle cx="670.31" cy="298.68" r="2.5" fill="#2563eb"/>
  <circle cx="671.51" cy="298.68" r="2.5" fill="#2563eb"/>
  <circle cx="672.70" cy="298.68" r="2.5" fill="#2563eb"/>
  <circle cx="673.89" cy="247.36" r="2.5" fill="#2563eb"/>
  <circle cx="675.08" cy="298.64" r="2.5" fill="#2563eb"/>
  <circle cx="676.27" cy="247.36" r="2.5" fill="#2563eb"/>
  <circle cx="677.46" cy="247.28" r="2.5" fill="#2563eb"/>
  <circle cx="678.65" cy="247.20" r="2.5" fill="#2563eb"/>
  <circle cx="679.84" cy="298.60" r="2.5" fill="#2563eb"/>
  <circle cx="681.03" cy="298.60" r="2.5" fill="#2563eb"/>
  <circle cx="682.23" cy="247.03" r="2.5" fill="#2563eb"/>
  <circle cx="683.42" cy="298.51" r="2.5" fill="#2563eb"/>
  <circle cx="684.61" cy="298.51" r="2.5" fill="#2563eb"/>
  <circle cx="685.80" cy="298.51" r="2.5" fill="#2563eb"/>
  <circle cx="686.99" cy="298.51" r="2.5" fill="#2563eb"/>
  <circle cx="688.18" cy="298.51" r="2.5" fill="#2563eb"/>
  <circle cx="689.37" cy="298.51" r="2.5" fill="#2563eb"/>
  <circle cx="690.56" cy="298.51" r="2.5" fill="#2563eb"/>
  <circle cx="691.75" cy="298.51" r="2.5" fill="#2563eb"/>
  <circle cx="692.95" cy="298.51" r="2.5" fill="#2563eb"/>
  <circle cx="694.14" cy="298.51" r="2.5" fill="#2563eb"/>
  <circle cx="695.33" cy="298.51" r="2.5" fill="#2563eb"/>
  <circle cx="696.52" cy="298.51" r="2.5" fill="#2563eb"/>
  <circle cx="697.71" cy="298.51" r="2.5" fill="#2563eb"/>
  <circle cx="698.90" cy="298.51" r="2.5" fill="#2563eb"/>
  <circle cx="700.09" cy="298.51" r="2.5" fill="#2563eb"/>
  <circle cx="701.28" cy="298.51" r="2.5" fill="#2563eb"/>
  <circle cx="702.47" cy="298.51" r="2.5" fill="#2563eb"/>
  <circle cx="703.66" cy="298.51" r="2.5" fill="#2563eb"/>
  <circle cx="704.86" cy="298.51" r="2.5" fill="#2563eb"/>
  <circle cx="706.05" cy="298.51" r="2.5" fill="#2563eb"/>
  <circle cx="707.24" cy="298.51" r="2.5" fill="#2563eb"/>
  <circle cx="708.43" cy="298.51" r="2.5" fill="#2563eb"/>
  <circle cx="709.62" cy="298.51" r="2.5" fill="#2563eb"/>
  <circle cx="710.81" cy="298.51" r="2.5" fill="#2563eb"/>
  <circle cx="712.00" cy="298.51" r="2.5" fill="#2563eb"/>
  <circle cx="713.19" cy="298.51" r="2.5" fill="#2563eb"/>
  <circle cx="714.38" cy="298.47" r="2.5" fill="#2563eb"/>
  <circle cx="715.58" cy="298.51" r="2.5" fill="#2563eb"/>
  <circle cx="716.77" cy="298.51" r="2.5" fill="#2563eb"/>
  <circle cx="717.96" cy="298.47" r="2.5" fill="#2563eb"/>
  <circle cx="719.15" cy="298.51" r="2.5" fill="#2563eb"/>
  <circle cx="720.34" cy="298.47" r="2.5" fill="#2563eb"/>
  <circle cx="721.53" cy="298.51" r="2.5" fill="#2563eb"/>
  <circle cx="722.72" cy="298.43" r="2.5" fill="#2563eb"/>
  <circle cx="723.91" cy="298.56" r="2.5" fill="#2563eb"/>
  <circle cx="725.10" cy="298.43" r="2.5" fill="#2563eb"/>
  <circle cx="726.30" cy="298.43" r="2.5" fill="#2563eb"/>
  <circle cx="727.49" cy="298.43" r="2.5" fill="#2563eb"/>
  <circle cx="728.68" cy="298.43" r="2.5" fill="#2563eb"/>
  <circle cx="729.87" cy="298.43" r="2.5" fill="#2563eb"/>
  <circle cx="731.06" cy="298.43" r="2.5" fill="#2563eb"/>
  <circle cx="732.25" cy="298.43" r="2.5" fill="#2563eb"/>
  <circle cx="733.44" cy="298.43" r="2.5" fill="#2563eb"/>
  <circle cx="734.63" cy="298.43" r="2.5" fill="#2563eb"/>
  <circle cx="735.82" cy="298.43" r="2.5" fill="#2563eb"/>
  <circle cx="737.02" cy="298.43" r="2.5" fill="#2563eb"/>
  <circle cx="738.21" cy="298.43" r="2.5" fill="#2563eb"/>
  <circle cx="739.40" cy="298.43" r="2.5" fill="#2563eb"/>
  <circle cx="740.59" cy="298.43" r="2.5" fill="#2563eb"/>
  <circle cx="741.78" cy="298.43" r="2.5" fill="#2563eb"/>
  <circle cx="742.97" cy="298.43" r="2.5" fill="#2563eb"/>
  <circle cx="744.16" cy="298.43" r="2.5" fill="#2563eb"/>
  <circle cx="745.35" cy="298.43" r="2.5" fill="#2563eb"/>
  <circle cx="746.54" cy="298.43" r="2.5" fill="#2563eb"/>
  <circle cx="747.74" cy="298.43" r="2.5" fill="#2563eb"/>
  <circle cx="748.93" cy="298.43" r="2.5" fill="#2563eb"/>
  <circle cx="750.12" cy="298.43" r="2.5" fill="#2563eb"/>
  <circle cx="751.31" cy="298.43" r="2.5" fill="#2563eb"/>
  <circle cx="752.50" cy="298.43" r="2.5" fill="#2563eb"/>
  <circle cx="753.69" cy="298.43" r="2.5" fill="#2563eb"/>
  <circle cx="754.88" cy="298.43" r="2.5" fill="#2563eb"/>
  <circle cx="756.07" cy="298.43" r="2.5" fill="#2563eb"/>
  <circle cx="757.26" cy="298.43" r="2.5" fill="#2563eb"/>
  <circle cx="758.46" cy="298.43" r="2.5" fill="#2563eb"/>
  <circle cx="759.65" cy="298.43" r="2.5" fill="#2563eb"/>
  <circle cx="760.84" cy="298.43" r="2.5" fill="#2563eb"/>
  <circle cx="762.03" cy="298.43" r="2.5" fill="#2563eb"/>
  <circle cx="763.22" cy="298.43" r="2.5" fill="#2563eb"/>
  <circle cx="764.41" cy="298.43" r="2.5" fill="#2563eb"/>
  <circle cx="765.60" cy="298.39" r="2.5" fill="#2563eb"/>
  <circle cx="766.79" cy="298.39" r="2.5" fill="#2563eb"/>
  <circle cx="767.98" cy="298.43" r="2.5" fill="#2563eb"/>
  <circle cx="769.18" cy="298.43" r="2.5" fill="#2563eb"/>
  <circle cx="770.37" cy="298.39" r="2.5" fill="#2563eb"/>
  <circle cx="771.56" cy="298.39" r="2.5" fill="#2563eb"/>
  <circle cx="772.75" cy="298.39" r="2.5" fill="#2563eb"/>
  <circle cx="773.94" cy="298.43" r="2.5" fill="#2563eb"/>
  <circle cx="775.13" cy="298.43" r="2.5" fill="#2563eb"/>
  <circle cx="776.32" cy="298.43" r="2.5" fill="#2563eb"/>
  <circle cx="777.51" cy="246.82" r="2.5" fill="#2563eb"/>
  <circle cx="778.70" cy="298.43" r="2.5" fill="#2563eb"/>
  <circle cx="779.90" cy="246.78" r="2.5" fill="#2563eb"/>
  <circle cx="781.09" cy="246.78" r="2.5" fill="#2563eb"/>
  <circle cx="782.28" cy="246.78" r="2.5" fill="#2563eb"/>
  <circle cx="783.47" cy="246.70" r="2.5" fill="#2563eb"/>
  <circle cx="784.66" cy="246.78" r="2.5" fill="#2563eb"/>
  <circle cx="785.85" cy="298.39" r="2.5" fill="#2563eb"/>
  <circle cx="787.04" cy="298.39" r="2.5" fill="#2563eb"/>
  <circle cx="788.23" cy="298.39" r="2.5" fill="#2563eb"/>
  <circle cx="789.42" cy="298.39" r="2.5" fill="#2563eb"/>
  <circle cx="790.62" cy="298.39" r="2.5" fill="#2563eb"/>
  <circle cx="791.81" cy="246.78" r="2.5" fill="#2563eb"/>
  <circle cx="793.00" cy="298.39" r="2.5" fill="#2563eb"/>
  <circle cx="794.19" cy="298.39" r="2.5" fill="#2563eb"/>
  <circle cx="795.38" cy="298.39" r="2.5" fill="#2563eb"/>
  <circle cx="796.57" cy="298.39" r="2.5" fill="#2563eb"/>
  <circle cx="797.76" cy="298.39" r="2.5" fill="#2563eb"/>
  <circle cx="798.95" cy="246.78" r="2.5" fill="#2563eb"/>
  <circle cx="800.14" cy="246.78" r="2.5" fill="#2563eb"/>
  <circle cx="801.34" cy="298.39" r="2.5" fill="#2563eb"/>
  <circle cx="802.53" cy="298.39" r="2.5" fill="#2563eb"/>
  <circle cx="803.72" cy="298.39" r="2.5" fill="#2563eb"/>
  <circle cx="804.91" cy="298.39" r="2.5" fill="#2563eb"/>
  <circle cx="806.10" cy="298.39" r="2.5" fill="#2563eb"/>
  <circle cx="807.29" cy="298.39" r="2.5" fill="#2563eb"/>
  <circle cx="808.48" cy="298.39" r="2.5" fill="#2563eb"/>
  <circle cx="809.67" cy="298.39" r="2.5" fill="#2563eb"/>
  <circle cx="810.86" cy="298.39" r="2.5" fill="#2563eb"/>
  <circle cx="812.05" cy="298.39" r="2.5" fill="#2563eb"/>
  <circle cx="813.25" cy="298.39" r="2.5" fill="#2563eb"/>
  <circle cx="814.44" cy="298.39" r="2.5" fill="#2563eb"/>
  <circle cx="815.63" cy="298.39" r="2.5" fill="#2563eb"/>
  <circle cx="816.82" cy="298.39" r="2.5" fill="#2563eb"/>
  <circle cx="818.01" cy="298.35" r="2.5" fill="#2563eb"/>
  <circle cx="819.20" cy="298.39" r="2.5" fill="#2563eb"/>
  <circle cx="820.39" cy="298.39" r="2.5" fill="#2563eb"/>
  <circle cx="821.58" cy="298.35" r="2.5" fill="#2563eb"/>
  <circle cx="822.77" cy="298.35" r="2.5" fill="#2563eb"/>
  <circle cx="823.97" cy="298.35" r="2.5" fill="#2563eb"/>
  <circle cx="825.16" cy="298.35" r="2.5" fill="#2563eb"/>
  <circle cx="826.35" cy="298.35" r="2.5" fill="#2563eb"/>
  <circle cx="827.54" cy="298.35" r="2.5" fill="#2563eb"/>
  <circle cx="828.73" cy="298.35" r="2.5" fill="#2563eb"/>
  <circle cx="829.92" cy="298.35" r="2.5" fill="#2563eb"/>
  <circle cx="831.11" cy="298.35" r="2.5" fill="#2563eb"/>
  <circle cx="832.30" cy="298.35" r="2.5" fill="#2563eb"/>
  <circle cx="833.49" cy="298.35" r="2.5" fill="#2563eb"/>
  <circle cx="834.69" cy="298.35" r="2.5" fill="#2563eb"/>
  <circle cx="835.88" cy="298.35" r="2.5" fill="#2563eb"/>
  <circle cx="837.07" cy="298.35" r="2.5" fill="#2563eb"/>
  <circle cx="838.26" cy="298.35" r="2.5" fill="#2563eb"/>
  <circle cx="839.45" cy="298.35" r="2.5" fill="#2563eb"/>
  <circle cx="840.64" cy="298.35" r="2.5" fill="#2563eb"/>
  <circle cx="841.83" cy="298.35" r="2.5" fill="#2563eb"/>
  <circle cx="843.02" cy="298.35" r="2.5" fill="#2563eb"/>
  <circle cx="844.21" cy="298.35" r="2.5" fill="#2563eb"/>
  <circle cx="845.41" cy="298.35" r="2.5" fill="#2563eb"/>
  <circle cx="846.60" cy="298.35" r="2.5" fill="#2563eb"/>
  <circle cx="847.79" cy="298.35" r="2.5" fill="#2563eb"/>
  <circle cx="848.98" cy="298.35" r="2.5" fill="#2563eb"/>
  <circle cx="850.17" cy="298.35" r="2.5" fill="#2563eb"/>
  <circle cx="851.36" cy="298.35" r="2.5" fill="#2563eb"/>
  <circle cx="852.55" cy="298.35" r="2.5" fill="#2563eb"/>
  <circle cx="853.74" cy="298.35" r="2.5" fill="#2563eb"/>
  <circle cx="854.93" cy="298.35" r="2.5" fill="#2563eb"/>
  <circle cx="856.13" cy="298.35" r="2.5" fill="#2563eb"/>
  <circle cx="857.32" cy="298.35" r="2.5" fill="#2563eb"/>
  <circle cx="858.51" cy="298.35" r="2.5" fill="#2563eb"/>
  <circle cx="859.70" cy="298.35" r="2.5" fill="#2563eb"/>
  <circle cx="860.89" cy="298.35" r="2.5" fill="#2563eb"/>
  <circle cx="862.08" cy="298.35" r="2.5" fill="#2563eb"/>
  <circle cx="863.27" cy="298.35" r="2.5" fill="#2563eb"/>
  <circle cx="864.46" cy="298.35" r="2.5" fill="#2563eb"/>
  <circle cx="865.65" cy="298.35" r="2.5" fill="#2563eb"/>
  <circle cx="866.85" cy="298.35" r="2.5" fill="#2563eb"/>
  <circle cx="868.04" cy="298.35" r="2.5" fill="#2563eb"/>
  <circle cx="869.23" cy="298.35" r="2.5" fill="#2563eb"/>
  <circle cx="870.42" cy="298.35" r="2.5" fill="#2563eb"/>
  <circle cx="871.61" cy="298.35" r="2.5" fill="#2563eb"/>
  <circle cx="872.80" cy="298.35" r="2.5" fill="#2563eb"/>
  <circle cx="873.99" cy="298.35" r="2.5" fill="#2563eb"/>
  <circle cx="875.18" cy="298.35" r="2.5" fill="#2563eb"/>
  <circle cx="876.37" cy="298.35" r="2.5" fill="#2563eb"/>
  <circle cx="877.57" cy="298.35" r="2.5" fill="#2563eb"/>
  <circle cx="878.76" cy="298.35" r="2.5" fill="#2563eb"/>
  <circle cx="879.95" cy="298.35" r="2.5" fill="#2563eb"/>
  <circle cx="881.14" cy="298.35" r="2.5" fill="#2563eb"/>
  <circle cx="882.33" cy="298.35" r="2.5" fill="#2563eb"/>
  <circle cx="883.52" cy="298.39" r="2.5" fill="#2563eb"/>
  <circle cx="884.71" cy="298.39" r="2.5" fill="#2563eb"/>
  <circle cx="885.90" cy="298.39" r="2.5" fill="#2563eb"/>
  <circle cx="887.09" cy="246.78" r="2.5" fill="#2563eb"/>
  <circle cx="888.29" cy="298.39" r="2.5" fill="#2563eb"/>
  <circle cx="889.48" cy="298.39" r="2.5" fill="#2563eb"/>
  <circle cx="890.67" cy="298.39" r="2.5" fill="#2563eb"/>
  <circle cx="891.86" cy="298.39" r="2.5" fill="#2563eb"/>
  <circle cx="893.05" cy="298.39" r="2.5" fill="#2563eb"/>
  <circle cx="894.24" cy="298.39" r="2.5" fill="#2563eb"/>
  <circle cx="895.43" cy="298.39" r="2.5" fill="#2563eb"/>
  <circle cx="896.62" cy="246.78" r="2.5" fill="#2563eb"/>
  <circle cx="897.81" cy="298.39" r="2.5" fill="#2563eb"/>
  <circle cx="899.01" cy="298.39" r="2.5" fill="#2563eb"/>
  <circle cx="900.20" cy="298.39" r="2.5" fill="#2563eb"/>
  <circle cx="901.39" cy="298.39" r="2.5" fill="#2563eb"/>
  <circle cx="902.58" cy="298.39" r="2.5" fill="#2563eb"/>
  <circle cx="903.77" cy="298.39" r="2.5" fill="#2563eb"/>
  <circle cx="904.96" cy="298.39" r="2.5" fill="#2563eb"/>
  <circle cx="906.15" cy="246.78" r="2.5" fill="#2563eb"/>
  <circle cx="907.34" cy="298.39" r="2.5" fill="#2563eb"/>
  <circle cx="908.53" cy="298.39" r="2.5" fill="#2563eb"/>
  <circle cx="909.73" cy="298.39" r="2.5" fill="#2563eb"/>
  <circle cx="910.92" cy="298.39" r="2.5" fill="#2563eb"/>
  <circle cx="912.11" cy="298.39" r="2.5" fill="#2563eb"/>
  <circle cx="913.30" cy="298.39" r="2.5" fill="#2563eb"/>
  <circle cx="914.49" cy="298.39" r="2.5" fill="#2563eb"/>
  <circle cx="915.68" cy="298.39" r="2.5" fill="#2563eb"/>
  <circle cx="916.87" cy="298.39" r="2.5" fill="#2563eb"/>
  <circle cx="918.06" cy="298.39" r="2.5" fill="#2563eb"/>
  <circle cx="919.25" cy="298.39" r="2.5" fill="#2563eb"/>
  <circle cx="920.45" cy="298.35" r="2.5" fill="#2563eb"/>
  <circle cx="921.64" cy="298.39" r="2.5" fill="#2563eb"/>
  <circle cx="922.83" cy="298.39" r="2.5" fill="#2563eb"/>
  <circle cx="924.02" cy="298.39" r="2.5" fill="#2563eb"/>
  <circle cx="925.21" cy="298.35" r="2.5" fill="#2563eb"/>
  <circle cx="926.40" cy="298.35" r="2.5" fill="#2563eb"/>
  <circle cx="927.59" cy="298.35" r="2.5" fill="#2563eb"/>
  <circle cx="928.78" cy="298.35" r="2.5" fill="#2563eb"/>
  <circle cx="929.97" cy="298.35" r="2.5" fill="#2563eb"/>
  <circle cx="931.16" cy="298.35" r="2.5" fill="#2563eb"/>
  <circle cx="932.36" cy="298.35" r="2.5" fill="#2563eb"/>
  <circle cx="933.55" cy="298.35" r="2.5" fill="#2563eb"/>
  <circle cx="934.74" cy="298.35" r="2.5" fill="#2563eb"/>
  <circle cx="935.93" cy="298.35" r="2.5" fill="#2563eb"/>
  <circle cx="937.12" cy="298.35" r="2.5" fill="#2563eb"/>
  <circle cx="938.31" cy="298.35" r="2.5" fill="#2563eb"/>
  <circle cx="939.50" cy="298.35" r="2.5" fill="#2563eb"/>
  <circle cx="940.69" cy="298.35" r="2.5" fill="#2563eb"/>
  <circle cx="941.88" cy="298.35" r="2.5" fill="#2563eb"/>
  <circle cx="943.08" cy="298.35" r="2.5" fill="#2563eb"/>
  <circle cx="944.27" cy="298.39" r="2.5" fill="#2563eb"/>
  <circle cx="945.46" cy="298.39" r="2.5" fill="#2563eb"/>
  <circle cx="946.65" cy="298.39" r="2.5" fill="#2563eb"/>
  <circle cx="947.84" cy="298.39" r="2.5" fill="#2563eb"/>
  <circle cx="949.03" cy="298.39" r="2.5" fill="#2563eb"/>
  <circle cx="950.22" cy="298.39" r="2.5" fill="#2563eb"/>
  <circle cx="951.41" cy="298.35" r="2.5" fill="#2563eb"/>
  <circle cx="952.60" cy="298.39" r="2.5" fill="#2563eb"/>
  <circle cx="953.80" cy="298.39" r="2.5" fill="#2563eb"/>
  <circle cx="954.99" cy="298.39" r="2.5" fill="#2563eb"/>
  <circle cx="956.18" cy="298.39" r="2.5" fill="#2563eb"/>
  <circle cx="957.37" cy="298.39" r="2.5" fill="#2563eb"/>
  <circle cx="958.56" cy="298.39" r="2.5" fill="#2563eb"/>
  <circle cx="959.75" cy="298.39" r="2.5" fill="#2563eb"/>
  <circle cx="960.94" cy="298.39" r="2.5" fill="#2563eb"/>
  <circle cx="962.13" cy="298.39" r="2.5" fill="#2563eb"/>
  <circle cx="963.32" cy="298.35" r="2.5" fill="#2563eb"/>
  <circle cx="964.52" cy="298.39" r="2.5" fill="#2563eb"/>
  <circle cx="965.71" cy="298.39" r="2.5" fill="#2563eb"/>
  <circle cx="966.90" cy="298.39" r="2.5" fill="#2563eb"/>
  <circle cx="968.09" cy="298.39" r="2.5" fill="#2563eb"/>
  <circle cx="969.28" cy="298.39" r="2.5" fill="#2563eb"/>
  <circle cx="970.47" cy="298.39" r="2.5" fill="#2563eb"/>
  <circle cx="971.66" cy="298.39" r="2.5" fill="#2563eb"/>
  <circle cx="972.85" cy="298.39" r="2.5" fill="#2563eb"/>
  <circle cx="974.04" cy="298.39" r="2.5" fill="#2563eb"/>
  <circle cx="975.24" cy="298.39" r="2.5" fill="#2563eb"/>
  <circle cx="976.43" cy="298.39" r="2.5" fill="#2563eb"/>
  <circle cx="977.62" cy="298.39" r="2.5" fill="#2563eb"/>
  <circle cx="978.81" cy="298.39" r="2.5" fill="#2563eb"/>
  <circle cx="980.00" cy="298.39" r="2.5" fill="#2563eb"/>
</svg>
