<?xml version="1.0" encoding="UTF-8"?>
<svg xmlns="http://www.w3.org/2000/svg" width="1000" height="420" viewBox="0 0 1000 420">
  <rect width="100%" height="100%" fill="#ffffff"/>
  <text x="70" y="28" font-size="20" font-weight="600">수집 시점 기준 - 시간별 스냅샷</text>
  <text x="70" y="402" font-size="12" fill="#555">스냅샷 수</text>
  <line x1="70" y1="350.00" x2="980" y2="350.00" stroke="#e5e7eb" stroke-width="1"/>
  <text x="62" y="354.00" font-size="11" fill="#6b7280" text-anchor="end">0</text>
  <line x1="70" y1="290.00" x2="980" y2="290.00" stroke="#e5e7eb" stroke-width="1"/>
  <text x="62" y="294.00" font-size="11" fill="#6b7280" text-anchor="end">1,440</text>
  <line x1="70" y1="230.00" x2="980" y2="230.00" stroke="#e5e7eb" stroke-width="1"/>
  <text x="62" y="234.00" font-size="11" fill="#6b7280" text-anchor="end">2,880</text>
  <line x1="70" y1="170.00" x2="980" y2="170.00" stroke="#e5e7eb" stroke-width="1"/>
  <text x="62" y="174.00" font-size="11" fill="#6b7280" text-anchor="end">4,321</text>
  <line x1="70" y1="110.00" x2="980" y2="110.00" stroke="#e5e7eb" stroke-width="1"/>
  <text x="62" y="114.00" font-size="11" fill="#6b7280" text-anchor="end">5,761</text>
  <line x1="70" y1="50.00" x2="980" y2="50.00" stroke="#e5e7eb" stroke-width="1"/>
  <text x="62" y="54.00" font-size="11" fill="#6b7280" text-anchor="end">7,202</text>
  <line x1="70" y1="350" x2="980" y2="350" stroke="#111827" stroke-width="1.2"/>
  <line x1="70" y1="50" x2="70" y2="350" stroke="#111827" stroke-width="1.2"/>
  <line x1="70.00" y1="350" x2="70.00" y2="356" stroke="#9ca3af" stroke-width="1"/>
  <text x="70.00" y="372" font-size="10" fill="#6b7280" text-anchor="middle">2026-02-28 18</text>
  <line x1="145.55" y1="350" x2="145.55" y2="356" stroke="#9ca3af" stroke-width="1"/>
  <text x="145.55" y="372" font-size="10" fill="#6b7280" text-anchor="middle">2026-03-09 00</text>
  <line x1="221.11" y1="350" x2="221.11" y2="356" stroke="#9ca3af" stroke-width="1"/>
  <text x="221.11" y="372" font-size="10" fill="#6b7280" text-anchor="middle">2026-03-11 01</text>
  <line x1="296.66" y1="350" x2="296.66" y2="356" stroke="#9ca3af" stroke-width="1"/>
  <text x="296.66" y="372" font-size="10" fill="#6b7280" text-anchor="middle">2026-03-13 02</text>
  <line x1="372.21" y1="350" x2="372.21" y2="356" stroke="#9ca3af" stroke-width="1"/>
  <text x="372.21" y="372" font-size="10" fill="#6b7280" text-anchor="middle">2026-03-15 08</text>
  <line x1="447.77" y1="350" x2="447.77" y2="356" stroke="#9ca3af" stroke-width="1"/>
  <text x="447.77" y="372" font-size="10" fill="#6b7280" text-anchor="middle">2026-03-18 08</text>
  <line x1="523.32" y1="350" x2="523.32" y2="356" stroke="#9ca3af" stroke-width="1"/>
  <text x="523.32" y="372" font-size="10" fill="#6b7280" text-anchor="middle">2026-03-21 04</text>
  <line x1="598.87" y1="350" x2="598.87" y2="356" stroke="#9ca3af" stroke-width="1"/>
  <text x="598.87" y="372" font-size="10" fill="#6b7280" text-anchor="middle">2026-03-23 20</text>
  <line x1="674.43" y1="350" x2="674.43" y2="356" stroke="#9ca3af" stroke-width="1"/>
  <text x="674.43" y="372" font-size="10" fill="#6b7280" text-anchor="middle">2026-03-26 21</text>
  <line x1="749.98" y1="350" x2="749.98" y2="356" stroke="#9ca3af" stroke-width="1"/>
  <text x="749.98" y="372" font-size="10" fill="#6b7280" text-anchor="middle">2026-03-29 22</text>
  <line x1="825.54" y1="350" x2="825.54" y2="356" stroke="#9ca3af" stroke-width="1"/>
  <text x="825.54" y="372" font-size="10" fill="#6b7280" text-anchor="middle">2026-04-02 03</text>
  <line x1="901.09" y1="350" x2="901.09" y2="356" stroke="#9ca3af" stroke-width="1"/>
  <text x="901.09" y="372" font-size="10" fill="#6b7280" text-anchor="middle">2026-04-05 02</text>
  <line x1="976.64" y1="350" x2="976.64" y2="356" stroke="#9ca3af" stroke-width="1"/>
  <text x="976.64" y="372" font-size="10" fill="#6b7280" text-anchor="middle">2026-04-08 05</text>
  <line x1="980.00" y1="350" x2="980.00" y2="356" stroke="#9ca3af" stroke-width="1"/>
  <text x="980.00" y="372" font-size="10" fill="#6b7280" text-anchor="middle">2026-04-08 07</text>
  <polyline fill="none" stroke="#2563eb" stroke-width="2.5" points="70.00,50.00 71.68,50.12 73.36,50.17 75.04,50.46 76.72,50.00 78.39,266.90 80.07,50.12 81.75,50.08 83.43,177.46 85.11,211.58 86.79,175.34 88.47,304.14 90.15,200.46 91.83,250.94 93.51,300.01 95.18,300.06 96.86,300.01 98.54,300.01 100.22,348.00 101.90,300.01 103.58,249.99 105.26,200.00 106.94,249.99 108.62,249.99 110.30,250.03 111.97,250.03 113.65,250.03 115.33,250.40 117.01,250.90 118.69,250.90 120.37,251.32 122.05,249.94 123.73,300.01 125.41,299.93 127.08,251.03 128.76,300.68 130.44,250.03 132.12,200.00 133.80,249.99 135.48,250.03 137.16,250.03 138.84,250.03 140.52,300.01 142.20,200.04 143.87,250.03 145.55,250.03 147.23,250.03 148.91,249.90 150.59,250.03 152.27,250.03 153.95,250.94 155.63,250.44 157.31,250.03 158.99,250.03 160.66,300.47 162.34,300.01 164.02,300.43 165.70,250.03 167.38,249.99 169.06,300.43 170.74,249.90 172.42,249.99 174.10,249.99 175.77,200.04 177.45,300.01 179.13,300.01 180.81,300.01 182.49,249.90 184.17,300.01 185.85,250.03 187.53,249.99 189.21,199.96 190.89,300.01 192.56,200.00 194.24,250.36 195.92,250.03 197.60,300.01 199.28,300.01 200.96,250.44 202.64,300.01 204.32,250.03 206.00,250.03 207.68,249.99 209.35,250.49 211.03,250.03 212.71,200.04 214.39,300.01 216.07,250.03 217.75,300.01 219.43,250.11 221.11,300.01 222.79,250.03 224.46,250.03 226.14,199.92 227.82,250.03 229.50,250.03 231.18,250.03 232.86,254.36 234.54,300.01 236.22,299.97 237.90,250.36 239.58,299.97 241.25,250.03 242.93,250.03 244.61,250.03 246.29,250.03 247.97,249.99 249.65,200.00 251.33,299.93 253.01,300.01 254.69,299.97 256.37,249.94 258.04,249.99 259.72,249.82 261.40,249.94 263.08,250.28 264.76,207.00 266.44,250.03 268.12,250.32 269.80,250.40 271.48,300.93 273.15,300.01 274.83,300.10 276.51,249.94 278.19,249.99 279.87,250.07 281.55,249.99 283.23,250.03 284.91,249.94 286.59,200.00 288.27,300.39 289.94,300.01 291.62,300.01 293.30,250.44 294.98,300.39 296.66,249.86 298.34,250.11 300.02,201.46 301.70,300.01 303.38,200.83 305.06,250.03 306.73,249.99 308.41,300.26 310.09,300.01 311.77,300.01 313.45,250.03 315.13,250.03 316.81,250.03 318.49,250.03 320.17,249.99 321.85,250.03 323.52,200.00 325.20,300.26 326.88,249.99 328.56,300.01 330.24,249.94 331.92,250.03 333.60,250.03 335.28,250.03 336.96,200.04 338.63,300.01 340.31,249.90 341.99,300.01 343.67,300.01 345.35,300.06 347.03,300.01 348.71,300.01 350.39,243.95 352.07,249.94 353.75,299.97 355.42,300.01 357.10,300.01 358.78,250.03 360.46,300.01 362.14,300.01 363.82,299.97 365.50,249.99 367.18,300.01 368.86,299.93 370.54,300.01 372.21,299.93 373.89,300.01 375.57,300.01 377.25,299.89 378.93,299.97 380.61,250.03 382.29,299.93 383.97,299.89 385.65,299.97 387.32,249.94 389.00,300.01 390.68,300.01 392.36,299.97 394.04,249.99 395.72,299.97 397.40,299.97 399.08,300.06 400.76,300.06 402.44,299.93 404.11,300.01 405.79,300.01 407.47,299.93 409.15,300.01 410.83,300.01 412.51,299.97 414.19,300.01 415.87,300.01 417.55,300.01 419.23,300.01 420.90,249.86 422.58,300.01 424.26,300.10 425.94,299.93 427.62,300.01 429.30,299.93 430.98,300.01 432.66,300.01 434.34,300.01 436.01,300.01 437.69,300.01 439.37,299.97 441.05,300.01 442.73,300.01 444.41,300.01 446.09,300.01 447.77,250.03 449.45,300.01 451.13,300.01 452.80,299.97 454.48,300.01 456.16,300.01 457.84,299.97 459.52,299.97 461.20,300.01 462.88,299.97 464.56,300.01 466.24,299.93 467.92,300.01 469.59,250.03 471.27,300.01 472.95,300.01 474.63,300.01 476.31,300.01 477.99,300.01 479.67,299.89 481.35,300.01 483.03,300.01 484.70,250.07 486.38,300.01 488.06,299.93 489.74,300.01 491.42,299.97 493.10,299.97 494.78,299.97 496.46,250.03 498.14,300.01 499.82,300.01 501.49,300.01 503.17,300.01 504.85,299.97 506.53,300.01 508.21,299.97 509.89,300.01 511.57,299.97 513.25,249.90 514.93,300.01 516.61,300.01 518.28,299.89 519.96,299.97 521.64,299.97 523.32,249.99 525.00,299.97 526.68,299.89 528.36,300.01 530.04,299.97 531.72,299.97 533.39,300.01 535.07,299.97 536.75,249.99 538.43,299.97 540.11,299.97 541.79,300.06 543.47,300.06 545.15,249.94 546.83,300.01 548.51,299.93 550.18,300.01 551.86,300.01 553.54,249.99 555.22,300.01 556.90,300.01 558.58,300.01 560.26,299.93 561.94,299.93 563.62,300.01 565.30,300.01 566.97,249.94 568.65,299.97 570.33,299.97 572.01,300.01 573.69,300.01 575.37,300.01 577.05,249.99 578.73,300.01 580.41,300.01 582.08,300.01 583.76,250.03 585.44,300.01 587.12,300.01 588.80,300.01 590.48,299.97 592.16,300.01 593.84,300.01 595.52,299.97 597.20,299.97 598.87,300.01 600.55,300.01 602.23,299.97 603.91,299.93 605.59,300.01 607.27,300.06 608.95,299.97 610.63,300.01 612.31,250.03 613.99,250.03 615.66,299.93 617.34,299.97 619.02,300.01 620.70,300.01 622.38,300.06 624.06,300.01 625.74,299.93 627.42,300.01 629.10,300.01 630.77,299.97 632.45,299.97 634.13,300.01 635.81,250.03 637.49,300.01 639.17,300.01 640.85,300.01 642.53,299.97 644.21,300.01 645.89,299.97 647.56,300.01 649.24,299.97 650.92,299.97 652.60,299.93 654.28,300.01 655.96,300.01 657.64,299.89 659.32,299.97 661.00,299.97 662.68,300.06 664.35,249.90 666.03,299.89 667.71,300.01 669.39,299.97 671.07,299.97 672.75,299.97 674.43,300.01 676.11,300.01 677.79,299.97 679.46,299.97 681.14,299.97 682.82,250.03 684.50,299.93 686.18,300.01 687.86,300.01 689.54,299.93 691.22,300.01 692.90,300.01 694.58,299.97 696.25,300.01 697.93,300.01 699.61,300.06 701.29,300.01 702.97,299.97 704.65,299.89 706.33,300.01 708.01,300.01 709.69,249.94 711.37,249.94 713.04,300.01 714.72,300.01 716.40,300.01 718.08,300.01 719.76,299.97 721.44,250.03 723.12,300.01 724.80,300.01 726.48,300.01 728.15,300.01 729.83,250.03 731.51,249.99 733.19,300.01 734.87,299.97 736.55,300.01 738.23,299.97 739.91,300.01 741.59,299.97 743.27,299.97 744.94,299.97 746.62,300.06 748.30,249.99 749.98,300.01 751.66,250.03 753.34,249.94 755.02,249.99 756.70,300.01 758.38,300.06 760.06,300.01 761.73,299.97 763.41,299.97 765.09,300.01 766.77,299.93 768.45,299.89 770.13,299.89 771.81,299.89 773.49,299.89 775.17,299.85 776.85,299.85 778.52,299.89 780.20,299.81 781.88,299.81 783.56,299.81 785.24,299.76 786.92,299.76 788.60,299.76 790.28,299.72 791.96,299.68 793.63,299.60 795.31,299.60 796.99,299.60 798.67,299.56 800.35,299.47 802.03,299.43 803.71,299.43 805.39,299.39 807.07,299.47 808.75,259.82 810.42,338.96 812.10,299.31 813.78,299.31 815.46,299.26 817.14,299.68 818.82,299.68 820.50,299.68 822.18,299.64 823.86,299.14 825.54,299.14 827.21,299.10 828.89,299.10 830.57,299.10 832.25,248.07 833.93,299.06 835.61,299.06 837.29,299.06 838.97,299.06 840.65,299.06 842.32,298.97 844.00,298.97 845.68,298.93 847.36,298.97 849.04,298.93 850.72,298.89 852.40,298.89 854.08,298.89 855.76,298.89 857.44,247.78 859.11,298.89 860.79,298.89 862.47,298.85 864.15,298.85 865.83,298.81 867.51,298.81 869.19,298.81 870.87,298.81 872.55,298.81 874.23,298.81 875.90,298.81 877.58,298.81 879.26,298.81 880.94,298.72 882.62,247.45 884.30,247.45 885.98,298.72 887.66,298.72 889.34,298.72 891.01,298.72 892.69,298.72 894.37,298.72 896.05,247.36 897.73,298.68 899.41,247.36 901.09,247.36 902.77,247.36 904.45,298.68 906.13,298.68 907.80,298.68 909.48,298.68 911.16,298.68 912.84,341.67 914.52,307.01 916.20,298.68 917.88,298.68 919.56,298.68 921.24,247.36 922.92,298.64 924.59,247.36 926.27,247.28 927.95,247.20 929.63,298.60 931.31,298.60 932.99,247.03 934.67,298.51 936.35,298.51 938.03,298.51 939.70,298.51 941.38,298.51 943.06,298.51 944.74,298.51 946.42,298.51 948.10,298.51 949.78,298.51 951.46,298.51 953.14,298.51 954.82,298.51 956.49,298.51 958.17,298.51 959.85,298.51 961.53,298.51 963.21,298.51 964.89,298.51 966.57,298.51 968.25,298.51 969.93,298.51 971.61,298.51 973.28,298.51 974.96,298.51 976.64,298.51 978.32,298.47 980.00,298.51"/>
  <circle cx="70.00" cy="50.00" r="2.5" fill="#2563eb"/>
  <circle cx="71.68" cy="50.12" r="2.5" fill="#2563eb"/>
  <circle cx="73.36" cy="50.17" r="2.5" fill="#2563eb"/>
  <circle cx="75.04" cy="50.46" r="2.5" fill="#2563eb"/>
  <circle cx="76.72" cy="50.00" r="2.5" fill="#2563eb"/>
  <circle cx="78.39" cy="266.90" r="2.5" fill="#2563eb"/>
  <circle cx="80.07" cy="50.12" r="2.5" fill="#2563eb"/>
  <circle cx="81.75" cy="50.08" r="2.5" fill="#2563eb"/>
  <circle cx="83.43" cy="177.46" r="2.5" fill="#2563eb"/>
  <circle cx="85.11" cy="211.58" r="2.5" fill="#2563eb"/>
  <circle cx="86.79" cy="175.34" r="2.5" fill="#2563eb"/>
  <circle cx="88.47" cy="304.14" r="2.5" fill="#2563eb"/>
  <circle cx="90.15" cy="200.46" r="2.5" fill="#2563eb"/>
  <circle cx="91.83" cy="250.94" r="2.5" fill="#2563eb"/>
  <circle cx="93.51" cy="300.01" r="2.5" fill="#2563eb"/>
  <circle cx="95.18" cy="300.06" r="2.5" fill="#2563eb"/>
  <circle cx="96.86" cy="300.01" r="2.5" fill="#2563eb"/>
  <circle cx="98.54" cy="300.01" r="2.5" fill="#2563eb"/>
  <circle cx="100.22" cy="348.00" r="2.5" fill="#2563eb"/>
  <circle cx="101.90" cy="300.01" r="2.5" fill="#2563eb"/>
  <circle cx="103.58" cy="249.99" r="2.5" fill="#2563eb"/>
  <circle cx="105.26" cy="200.00" r="2.5" fill="#2563eb"/>
  <circle cx="106.94" cy="249.99" r="2.5" fill="#2563eb"/>
  <circle cx="108.62" cy="249.99" r="2.5" fill="#2563eb"/>
  <circle cx="110.30" cy="250.03" r="2.5" fill="#2563eb"/>
  <circle cx="111.97" cy="250.03" r="2.5" fill="#2563eb"/>
  <circle cx="113.65" cy="250.03" r="2.5" fill="#2563eb"/>
  <circle cx="115.33" cy="250.40" r="2.5" fill="#2563eb"/>
  <circle cx="117.01" cy="250.90" r="2.5" fill="#2563eb"/>
  <circle cx="118.69" cy="250.90" r="2.5" fill="#2563eb"/>
  <circle cx="120.37" cy="251.32" r="2.5" fill="#2563eb"/>
  <circle cx="122.05" cy="249.94" r="2.5" fill="#2563eb"/>
  <circle cx="123.73" cy="300.01" r="2.5" fill="#2563eb"/>
  <circle cx="125.41" cy="299.93" r="2.5" fill="#2563eb"/>
  <circle cx="127.08" cy="251.03" r="2.5" fill="#2563eb"/>
  <circle cx="128.76" cy="300.68" r="2.5" fill="#2563eb"/>
  <circle cx="130.44" cy="250.03" r="2.5" fill="#2563eb"/>
  <circle cx="132.12" cy="200.00" r="2.5" fill="#2563eb"/>
  <circle cx="133.80" cy="249.99" r="2.5" fill="#2563eb"/>
  <circle cx="135.48" cy="250.03" r="2.5" fill="#2563eb"/>
  <circle cx="137.16" cy="250.03" r="2.5" fill="#2563eb"/>
  <circle cx="138.84" cy="250.03" r="2.5" fill="#2563eb"/>
  <circle cx="140.52" cy="300.01" r="2.5" fill="#2563eb"/>
  <circle cx="142.20" cy="200.04" r="2.5" fill="#2563eb"/>
  <circle cx="143.87" cy="250.03" r="2.5" fill="#2563eb"/>
  <circle cx="145.55" cy="250.03" r="2.5" fill="#2563eb"/>
  <circle cx="147.23" cy="250.03" r="2.5" fill="#2563eb"/>
  <circle cx="148.91" cy="249.90" r="2.5" fill="#2563eb"/>
  <circle cx="150.59" cy="250.03" r="2.5" fill="#2563eb"/>
  <circle cx="152.27" cy="250.03" r="2.5" fill="#2563eb"/>
  <circle cx="153.95" cy="250.94" r="2.5" fill="#2563eb"/>
  <circle cx="155.63" cy="250.44" r="2.5" fill="#2563eb"/>
  <circle cx="157.31" cy="250.03" r="2.5" fill="#2563eb"/>
  <circle cx="158.99" cy="250.03" r="2.5" fill="#2563eb"/>
  <circle cx="160.66" cy="300.47" r="2.5" fill="#2563eb"/>
  <circle cx="162.34" cy="300.01" r="2.5" fill="#2563eb"/>
  <circle cx="164.02" cy="300.43" r="2.5" fill="#2563eb"/>
  <circle cx="165.70" cy="250.03" r="2.5" fill="#2563eb"/>
  <circle cx="167.38" cy="249.99" r="2.5" fill="#2563eb"/>
  <circle cx="169.06" cy="300.43" r="2.5" fill="#2563eb"/>
  <circle cx="170.74" cy="249.90" r="2.5" fill="#2563eb"/>
  <circle cx="172.42" cy="249.99" r="2.5" fill="#2563eb"/>
  <circle cx="174.10" cy="249.99" r="2.5" fill="#2563eb"/>
  <circle cx="175.77" cy="200.04" r="2.5" fill="#2563eb"/>
  <circle cx="177.45" cy="300.01" r="2.5" fill="#2563eb"/>
  <circle cx="179.13" cy="300.01" r="2.5" fill="#2563eb"/>
  <circle cx="180.81" cy="300.01" r="2.5" fill="#2563eb"/>
  <circle cx="182.49" cy="249.90" r="2.5" fill="#2563eb"/>
  <circle cx="184.17" cy="300.01" r="2.5" fill="#2563eb"/>
  <circle cx="185.85" cy="250.03" r="2.5" fill="#2563eb"/>
  <circle cx="187.53" cy="249.99" r="2.5" fill="#2563eb"/>
  <circle cx="189.21" cy="199.96" r="2.5" fill="#2563eb"/>
  <circle cx="190.89" cy="300.01" r="2.5" fill="#2563eb"/>
  <circle cx="192.56" cy="200.00" r="2.5" fill="#2563eb"/>
  <circle cx="194.24" cy="250.36" r="2.5" fill="#2563eb"/>
  <circle cx="195.92" cy="250.03" r="2.5" fill="#2563eb"/>
  <circle cx="197.60" cy="300.01" r="2.5" fill="#2563eb"/>
  <circle cx="199.28" cy="300.01" r="2.5" fill="#2563eb"/>
  <circle cx="200.96" cy="250.44" r="2.5" fill="#2563eb"/>
  <circle cx="202.64" cy="300.01" r="2.5" fill="#2563eb"/>
  <circle cx="204.32" cy="250.03" r="2.5" fill="#2563eb"/>
  <circle cx="206.00" cy="250.03" r="2.5" fill="#2563eb"/>
  <circle cx="207.68" cy="249.99" r="2.5" fill="#2563eb"/>
  <circle cx="209.35" cy="250.49" r="2.5" fill="#2563eb"/>
  <circle cx="211.03" cy="250.03" r="2.5" fill="#2563eb"/>
  <circle cx="212.71" cy="200.04" r="2.5" fill="#2563eb"/>
  <circle cx="214.39" cy="300.01" r="2.5" fill="#2563eb"/>
  <circle cx="216.07" cy="250.03" r="2.5" fill="#2563eb"/>
  <circle cx="217.75" cy="300.01" r="2.5" fill="#2563eb"/>
  <circle cx="219.43" cy="250.11" r="2.5" fill="#2563eb"/>
  <circle cx="221.11" cy="300.01" r="2.5" fill="#2563eb"/>
  <circle cx="222.79" cy="250.03" r="2.5" fill="#2563eb"/>
  <circle cx="224.46" cy="250.03" r="2.5" fill="#2563eb"/>
  <circle cx="226.14" cy="199.92" r="2.5" fill="#2563eb"/>
  <circle cx="227.82" cy="250.03" r="2.5" fill="#2563eb"/>
  <circle cx="229.50" cy="250.03" r="2.5" fill="#2563eb"/>
  <circle cx="231.18" cy="250.03" r="2.5" fill="#2563eb"/>
  <circle cx="232.86" cy="254.36" r="2.5" fill="#2563eb"/>
  <circle cx="234.54" cy="300.01" r="2.5" fill="#2563eb"/>
  <circle cx="236.22" cy="299.97" r="2.5" fill="#2563eb"/>
  <circle cx="237.90" cy="250.36" r="2.5" fill="#2563eb"/>
  <circle cx="239.58" cy="299.97" r="2.5" fill="#2563eb"/>
  <circle cx="241.25" cy="250.03" r="2.5" fill="#2563eb"/>
  <circle cx="242.93" cy="250.03" r="2.5" fill="#2563eb"/>
  <circle cx="244.61" cy="250.03" r="2.5" fill="#2563eb"/>
  <circle cx="246.29" cy="250.03" r="2.5" fill="#2563eb"/>
  <circle cx="247.97" cy="249.99" r="2.5" fill="#2563eb"/>
  <circle cx="249.65" cy="200.00" r="2.5" fill="#2563eb"/>
  <circle cx="251.33" cy="299.93" r="2.5" fill="#2563eb"/>
  <circle cx="253.01" cy="300.01" r="2.5" fill="#2563eb"/>
  <circle cx="254.69" cy="299.97" r="2.5" fill="#2563eb"/>
  <circle cx="256.37" cy="249.94" r="2.5" fill="#2563eb"/>
  <circle cx="258.04" cy="249.99" r="2.5" fill="#2563eb"/>
  <circle cx="259.72" cy="249.82" r="2.5" fill="#2563eb"/>
  <circle cx="261.40" cy="249.94" r="2.5" fill="#2563eb"/>
  <circle cx="263.08" cy="250.28" r="2.5" fill="#2563eb"/>
  <circle cx="264.76" cy="207.00" r="2.5" fill="#2563eb"/>
  <circle cx="266.44" cy="250.03" r="2.5" fill="#2563eb"/>
  <circle cx="268.12" cy="250.32" r="2.5" fill="#2563eb"/>
  <circle cx="269.80" cy="250.40" r="2.5" fill="#2563eb"/>
  <circle cx="271.48" cy="300.93" r="2.5" fill="#2563eb"/>
  <circle cx="273.15" cy="300.01" r="2.5" fill="#2563eb"/>
  <circle cx="274.83" cy="300.10" r="2.5" fill="#2563eb"/>
  <circle cx="276.51" cy="249.94" r="2.5" fill="#2563eb"/>
  <circle cx="278.19" cy="249.99" r="2.5" fill="#2563eb"/>
  <circle cx="279.87" cy="250.07" r="2.5" fill="#2563eb"/>
  <circle cx="281.55" cy="249.99" r="2.5" fill="#2563eb"/>
  <circle cx="283.23" cy="250.03" r="2.5" fill="#2563eb"/>
  <circle cx="284.91" cy="249.94" r="2.5" fill="#2563eb"/>
  <circle cx="286.59" cy="200.00" r="2.5" fill="#2563eb"/>
  <circle cx="288.27" cy="300.39" r="2.5" fill="#2563eb"/>
  <circle cx="289.94" cy="300.01" r="2.5" fill="#2563eb"/>
  <circle cx="291.62" cy="300.01" r="2.5" fill="#2563eb"/>
  <circle cx="293.30" cy="250.44" r="2.5" fill="#2563eb"/>
  <circle cx="294.98" cy="300.39" r="2.5" fill="#2563eb"/>
  <circle cx="296.66" cy="249.86" r="2.5" fill="#2563eb"/>
  <circle cx="298.34" cy="250.11" r="2.5" fill="#2563eb"/>
  <circle cx="300.02" cy="201.46" r="2.5" fill="#2563eb"/>
  <circle cx="301.70" cy="300.01" r="2.5" fill="#2563eb"/>
  <circle cx="303.38" cy="200.83" r="2.5" fill="#2563eb"/>
  <circle cx="305.06" cy="250.03" r="2.5" fill="#2563eb"/>
  <circle cx="306.73" cy="249.99" r="2.5" fill="#2563eb"/>
  <circle cx="308.41" cy="300.26" r="2.5" fill="#2563eb"/>
  <circle cx="310.09" cy="300.01" r="2.5" fill="#2563eb"/>
  <circle cx="311.77" cy="300.01" r="2.5" fill="#2563eb"/>
  <circle cx="313.45" cy="250.03" r="2.5" fill="#2563eb"/>
  <circle cx="315.13" cy="250.03" r="2.5" fill="#2563eb"/>
  <circle cx="316.81" cy="250.03" r="2.5" fill="#2563eb"/>
  <circle cx="318.49" cy="250.03" r="2.5" fill="#2563eb"/>
  <circle cx="320.17" cy="249.99" r="2.5" fill="#2563eb"/>
  <circle cx="321.85" cy="250.03" r="2.5" fill="#2563eb"/>
  <circle cx="323.52" cy="200.00" r="2.5" fill="#2563eb"/>
  <circle cx="325.20" cy="300.26" r="2.5" fill="#2563eb"/>
  <circle cx="326.88" cy="249.99" r="2.5" fill="#2563eb"/>
  <circle cx="328.56" cy="300.01" r="2.5" fill="#2563eb"/>
  <circle cx="330.24" cy="249.94" r="2.5" fill="#2563eb"/>
  <circle cx="331.92" cy="250.03" r="2.5" fill="#2563eb"/>
  <circle cx="333.60" cy="250.03" r="2.5" fill="#2563eb"/>
  <circle cx="335.28" cy="250.03" r="2.5" fill="#2563eb"/>
  <circle cx="336.96" cy="200.04" r="2.5" fill="#2563eb"/>
  <circle cx="338.63" cy="300.01" r="2.5" fill="#2563eb"/>
  <circle cx="340.31" cy="249.90" r="2.5" fill="#2563eb"/>
  <circle cx="341.99" cy="300.01" r="2.5" fill="#2563eb"/>
  <circle cx="343.67" cy="300.01" r="2.5" fill="#2563eb"/>
  <circle cx="345.35" cy="300.06" r="2.5" fill="#2563eb"/>
  <circle cx="347.03" cy="300.01" r="2.5" fill="#2563eb"/>
  <circle cx="348.71" cy="300.01" r="2.5" fill="#2563eb"/>
  <circle cx="350.39" cy="243.95" r="2.5" fill="#2563eb"/>
  <circle cx="352.07" cy="249.94" r="2.5" fill="#2563eb"/>
  <circle cx="353.75" cy="299.97" r="2.5" fill="#2563eb"/>
  <circle cx="355.42" cy="300.01" r="2.5" fill="#2563eb"/>
  <circle cx="357.10" cy="300.01" r="2.5" fill="#2563eb"/>
  <circle cx="358.78" cy="250.03" r="2.5" fill="#2563eb"/>
  <circle cx="360.46" cy="300.01" r="2.5" fill="#2563eb"/>
  <circle cx="362.14" cy="300.01" r="2.5" fill="#2563eb"/>
  <circle cx="363.82" cy="299.97" r="2.5" fill="#2563eb"/>
  <circle cx="365.50" cy="249.99" r="2.5" fill="#2563eb"/>
  <circle cx="367.18" cy="300.01" r="2.5" fill="#2563eb"/>
  <circle cx="368.86" cy="299.93" r="2.5" fill="#2563eb"/>
  <circle cx="370.54" cy="300.01" r="2.5" fill="#2563eb"/>
  <circle cx="372.21" cy="299.93" r="2.5" fill="#2563eb"/>
  <circle cx="373.89" cy="300.01" r="2.5" fill="#2563eb"/>
  <circle cx="375.57" cy="300.01" r="2.5" fill="#2563eb"/>
  <circle cx="377.25" cy="299.89" r="2.5" fill="#2563eb"/>
  <circle cx="378.93" cy="299.97" r="2.5" fill="#2563eb"/>
  <circle cx="380.61" cy="250.03" r="2.5" fill="#2563eb"/>
  <circle cx="382.29" cy="299.93" r="2.5" fill="#2563eb"/>
  <circle cx="383.97" cy="299.89" r="2.5" fill="#2563eb"/>
  <circle cx="385.65" cy="299.97" r="2.5" fill="#2563eb"/>
  <circle cx="387.32" cy="249.94" r="2.5" fill="#2563eb"/>
  <circle cx="389.00" cy="300.01" r="2.5" fill="#2563eb"/>
  <circle cx="390.68" cy="300.01" r="2.5" fill="#2563eb"/>
  <circle cx="392.36" cy="299.97" r="2.5" fill="#2563eb"/>
  <circle cx="394.04" cy="249.99" r="2.5" fill="#2563eb"/>
  <circle cx="395.72" cy="299.97" r="2.5" fill="#2563eb"/>
  <circle cx="397.40" cy="299.97" r="2.5" fill="#2563eb"/>
  <circle cx="399.08" cy="300.06" r="2.5" fill="#2563eb"/>
  <circle cx="400.76" cy="300.06" r="2.5" fill="#2563eb"/>
  <circle cx="402.44" cy="299.93" r="2.5" fill="#2563eb"/>
  <circle cx="404.11" cy="300.01" r="2.5" fill="#2563eb"/>
  <circle cx="405.79" cy="300.01" r="2.5" fill="#2563eb"/>
  <circle cx="407.47" cy="299.93" r="2.5" fill="#2563eb"/>
  <circle cx="409.15" cy="300.01" r="2.5" fill="#2563eb"/>
  <circle cx="410.83" cy="300.01" r="2.5" fill="#2563eb"/>
  <circle cx="412.51" cy="299.97" r="2.5" fill="#2563eb"/>
  <circle cx="414.19" cy="300.01" r="2.5" fill="#2563eb"/>
  <circle cx="415.87" cy="300.01" r="2.5" fill="#2563eb"/>
  <circle cx="417.55" cy="300.01" r="2.5" fill="#2563eb"/>
  <circle cx="419.23" cy="300.01" r="2.5" fill="#2563eb"/>
  <circle cx="420.90" cy="249.86" r="2.5" fill="#2563eb"/>
  <circle cx="422.58" cy="300.01" r="2.5" fill="#2563eb"/>
  <circle cx="424.26" cy="300.10" r="2.5" fill="#2563eb"/>
  <circle cx="425.94" cy="299.93" r="2.5" fill="#2563eb"/>
  <circle cx="427.62" cy="300.01" r="2.5" fill="#2563eb"/>
  <circle cx="429.30" cy="299.93" r="2.5" fill="#2563eb"/>
  <circle cx="430.98" cy="300.01" r="2.5" fill="#2563eb"/>
  <circle cx="432.66" cy="300.01" r="2.5" fill="#2563eb"/>
  <circle cx="434.34" cy="300.01" r="2.5" fill="#2563eb"/>
  <circle cx="436.01" cy="300.01" r="2.5" fill="#2563eb"/>
  <circle cx="437.69" cy="300.01" r="2.5" fill="#2563eb"/>
  <circle cx="439.37" cy="299.97" r="2.5" fill="#2563eb"/>
  <circle cx="441.05" cy="300.01" r="2.5" fill="#2563eb"/>
  <circle cx="442.73" cy="300.01" r="2.5" fill="#2563eb"/>
  <circle cx="444.41" cy="300.01" r="2.5" fill="#2563eb"/>
  <circle cx="446.09" cy="300.01" r="2.5" fill="#2563eb"/>
  <circle cx="447.77" cy="250.03" r="2.5" fill="#2563eb"/>
  <circle cx="449.45" cy="300.01" r="2.5" fill="#2563eb"/>
  <circle cx="451.13" cy="300.01" r="2.5" fill="#2563eb"/>
  <circle cx="452.80" cy="299.97" r="2.5" fill="#2563eb"/>
  <circle cx="454.48" cy="300.01" r="2.5" fill="#2563eb"/>
  <circle cx="456.16" cy="300.01" r="2.5" fill="#2563eb"/>
  <circle cx="457.84" cy="299.97" r="2.5" fill="#2563eb"/>
  <circle cx="459.52" cy="299.97" r="2.5" fill="#2563eb"/>
  <circle cx="461.20" cy="300.01" r="2.5" fill="#2563eb"/>
  <circle cx="462.88" cy="299.97" r="2.5" fill="#2563eb"/>
  <circle cx="464.56" cy="300.01" r="2.5" fill="#2563eb"/>
  <circle cx="466.24" cy="299.93" r="2.5" fill="#2563eb"/>
  <circle cx="467.92" cy="300.01" r="2.5" fill="#2563eb"/>
  <circle cx="469.59" cy="250.03" r="2.5" fill="#2563eb"/>
  <circle cx="471.27" cy="300.01" r="2.5" fill="#2563eb"/>
  <circle cx="472.95" cy="300.01" r="2.5" fill="#2563eb"/>
  <circle cx="474.63" cy="300.01" r="2.5" fill="#2563eb"/>
  <circle cx="476.31" cy="300.01" r="2.5" fill="#2563eb"/>
  <circle cx="477.99" cy="300.01" r="2.5" fill="#2563eb"/>
  <circle cx="479.67" cy="299.89" r="2.5" fill="#2563eb"/>
  <circle cx="481.35" cy="300.01" r="2.5" fill="#2563eb"/>
  <circle cx="483.03" cy="300.01" r="2.5" fill="#2563eb"/>
  <circle cx="484.70" cy="250.07" r="2.5" fill="#2563eb"/>
  <circle cx="486.38" cy="300.01" r="2.5" fill="#2563eb"/>
  <circle cx="488.06" cy="299.93" r="2.5" fill="#2563eb"/>
  <circle cx="489.74" cy="300.01" r="2.5" fill="#2563eb"/>
  <circle cx="491.42" cy="299.97" r="2.5" fill="#2563eb"/>
  <circle cx="493.10" cy="299.97" r="2.5" fill="#2563eb"/>
  <circle cx="494.78" cy="299.97" r="2.5" fill="#2563eb"/>
  <circle cx="496.46" cy="250.03" r="2.5" fill="#2563eb"/>
  <circle cx="498.14" cy="300.01" r="2.5" fill="#2563eb"/>
  <circle cx="499.82" cy="300.01" r="2.5" fill="#2563eb"/>
  <circle cx="501.49" cy="300.01" r="2.5" fill="#2563eb"/>
  <circle cx="503.17" cy="300.01" r="2.5" fill="#2563eb"/>
  <circle cx="504.85" cy="299.97" r="2.5" fill="#2563eb"/>
  <circle cx="506.53" cy="300.01" r="2.5" fill="#2563eb"/>
  <circle cx="508.21" cy="299.97" r="2.5" fill="#2563eb"/>
  <circle cx="509.89" cy="300.01" r="2.5" fill="#2563eb"/>
  <circle cx="511.57" cy="299.97" r="2.5" fill="#2563eb"/>
  <circle cx="513.25" cy="249.90" r="2.5" fill="#2563eb"/>
  <circle cx="514.93" cy="300.01" r="2.5" fill="#2563eb"/>
  <circle cx="516.61" cy="300.01" r="2.5" fill="#2563eb"/>
  <circle cx="518.28" cy="299.89" r="2.5" fill="#2563eb"/>
  <circle cx="519.96" cy="299.97" r="2.5" fill="#2563eb"/>
  <circle cx="521.64" cy="299.97" r="2.5" fill="#2563eb"/>
  <circle cx="523.32" cy="249.99" r="2.5" fill="#2563eb"/>
  <circle cx="525.00" cy="299.97" r="2.5" fill="#2563eb"/>
  <circle cx="526.68" cy="299.89" r="2.5" fill="#2563eb"/>
  <circle cx="528.36" cy="300.01" r="2.5" fill="#2563eb"/>
  <circle cx="530.04" cy="299.97" r="2.5" fill="#2563eb"/>
  <circle cx="531.72" cy="299.97" r="2.5" fill="#2563eb"/>
  <circle cx="533.39" cy="300.01" r="2.5" fill="#2563eb"/>
  <circle cx="535.07" cy="299.97" r="2.5" fill="#2563eb"/>
  <circle cx="536.75" cy="249.99" r="2.5" fill="#2563eb"/>
  <circle cx="538.43" cy="299.97" r="2.5" fill="#2563eb"/>
  <circle cx="540.11" cy="299.97" r="2.5" fill="#2563eb"/>
  <circle cx="541.79" cy="300.06" r="2.5" fill="#2563eb"/>
  <circle cx="543.47" cy="300.06" r="2.5" fill="#2563eb"/>
  <circle cx="545.15" cy="249.94" r="2.5" fill="#2563eb"/>
  <circle cx="546.83" cy="300.01" r="2.5" fill="#2563eb"/>
  <circle cx="548.51" cy="299.93" r="2.5" fill="#2563eb"/>
  <circle cx="550.18" cy="300.01" r="2.5" fill="#2563eb"/>
  <circle cx="551.86" cy="300.01" r="2.5" fill="#2563eb"/>
  <circle cx="553.54" cy="249.99" r="2.5" fill="#2563eb"/>
  <circle cx="555.22" cy="300.01" r="2.5" fill="#2563eb"/>
  <circle cx="556.90" cy="300.01" r="2.5" fill="#2563eb"/>
  <circle cx="558.58" cy="300.01" r="2.5" fill="#2563eb"/>
  <circle cx="560.26" cy="299.93" r="2.5" fill="#2563eb"/>
  <circle cx="561.94" cy="299.93" r="2.5" fill="#2563eb"/>
  <circle cx="563.62" cy="300.01" r="2.5" fill="#2563eb"/>
  <circle cx="565.30" cy="300.01" r="2.5" fill="#2563eb"/>
  <circle cx="566.97" cy="249.94" r="2.5" fill="#2563eb"/>
  <circle cx="568.65" cy="299.97" r="2.5" fill="#2563eb"/>
  <circle cx="570.33" cy="299.97" r="2.5" fill="#2563eb"/>
  <circle cx="572.01" cy="300.01" r="2.5" fill="#2563eb"/>
  <circle cx="573.69" cy="300.01" r="2.5" fill="#2563eb"/>
  <circle cx="575.37" cy="300.01" r="2.5" fill="#2563eb"/>
  <circle cx="577.05" cy="249.99" r="2.5" fill="#2563eb"/>
  <circle cx="578.73" cy="300.01" r="2.5" fill="#2563eb"/>
  <circle cx="580.41" cy="300.01" r="2.5" fill="#2563eb"/>
  <circle cx="582.08" cy="300.01" r="2.5" fill="#2563eb"/>
  <circle cx="583.76" cy="250.03" r="2.5" fill="#2563eb"/>
  <circle cx="585.44" cy="300.01" r="2.5" fill="#2563eb"/>
  <circle cx="587.12" cy="300.01" r="2.5" fill="#2563eb"/>
  <circle cx="588.80" cy="300.01" r="2.5" fill="#2563eb"/>
  <circle cx="590.48" cy="299.97" r="2.5" fill="#2563eb"/>
  <circle cx="592.16" cy="300.01" r="2.5" fill="#2563eb"/>
  <circle cx="593.84" cy="300.01" r="2.5" fill="#2563eb"/>
  <circle cx="595.52" cy="299.97" r="2.5" fill="#2563eb"/>
  <circle cx="597.20" cy="299.97" r="2.5" fill="#2563eb"/>
  <circle cx="598.87" cy="300.01" r="2.5" fill="#2563eb"/>
  <circle cx="600.55" cy="300.01" r="2.5" fill="#2563eb"/>
  <circle cx="602.23" cy="299.97" r="2.5" fill="#2563eb"/>
  <circle cx="603.91" cy="299.93" r="2.5" fill="#2563eb"/>
  <circle cx="605.59" cy="300.01" r="2.5" fill="#2563eb"/>
  <circle cx="607.27" cy="300.06" r="2.5" fill="#2563eb"/>
  <circle cx="608.95" cy="299.97" r="2.5" fill="#2563eb"/>
  <circle cx="610.63" cy="300.01" r="2.5" fill="#2563eb"/>
  <circle cx="612.31" cy="250.03" r="2.5" fill="#2563eb"/>
  <circle cx="613.99" cy="250.03" r="2.5" fill="#2563eb"/>
  <circle cx="615.66" cy="299.93" r="2.5" fill="#2563eb"/>
  <circle cx="617.34" cy="299.97" r="2.5" fill="#2563eb"/>
  <circle cx="619.02" cy="300.01" r="2.5" fill="#2563eb"/>
  <circle cx="620.70" cy="300.01" r="2.5" fill="#2563eb"/>
  <circle cx="622.38" cy="300.06" r="2.5" fill="#2563eb"/>
  <circle cx="624.06" cy="300.01" r="2.5" fill="#2563eb"/>
  <circle cx="625.74" cy="299.93" r="2.5" fill="#2563eb"/>
  <circle cx="627.42" cy="300.01" r="2.5" fill="#2563eb"/>
  <circle cx="629.10" cy="300.01" r="2.5" fill="#2563eb"/>
  <circle cx="630.77" cy="299.97" r="2.5" fill="#2563eb"/>
  <circle cx="632.45" cy="299.97" r="2.5" fill="#2563eb"/>
  <circle cx="634.13" cy="300.01" r="2.5" fill="#2563eb"/>
  <circle cx="635.81" cy="250.03" r="2.5" fill="#2563eb"/>
  <circle cx="637.49" cy="300.01" r="2.5" fill="#2563eb"/>
  <circle cx="639.17" cy="300.01" r="2.5" fill="#2563eb"/>
  <circle cx="640.85" cy="300.01" r="2.5" fill="#2563eb"/>
  <circle cx="642.53" cy="299.97" r="2.5" fill="#2563eb"/>
  <circle cx="644.21" cy="300.01" r="2.5" fill="#2563eb"/>
  <circle cx="645.89" cy="299.97" r="2.5" fill="#2563eb"/>
  <circle cx="647.56" cy="300.01" r="2.5" fill="#2563eb"/>
  <circle cx="649.24" cy="299.97" r="2.5" fill="#2563eb"/>
  <circle cx="650.92" cy="299.97" r="2.5" fill="#2563eb"/>
  <circle cx="652.60" cy="299.93" r="2.5" fill="#2563eb"/>
  <circle cx="654.28" cy="300.01" r="2.5" fill="#2563eb"/>
  <circle cx="655.96" cy="300.01" r="2.5" fill="#2563eb"/>
  <circle cx="657.64" cy="299.89" r="2.5" fill="#2563eb"/>
  <circle cx="659.32" cy="299.97" r="2.5" fill="#2563eb"/>
  <circle cx="661.00" cy="299.97" r="2.5" fill="#2563eb"/>
  <circle cx="662.68" cy="300.06" r="2.5" fill="#2563eb"/>
  <circle cx="664.35" cy="249.90" r="2.5" fill="#2563eb"/>
  <circle cx="666.03" cy="299.89" r="2.5" fill="#2563eb"/>
  <circle cx="667.71" cy="300.01" r="2.5" fill="#2563eb"/>
  <circle cx="669.39" cy="299.97" r="2.5" fill="#2563eb"/>
  <circle cx="671.07" cy="299.97" r="2.5" fill="#2563eb"/>
  <circle cx="672.75" cy="299.97" r="2.5" fill="#2563eb"/>
  <circle cx="674.43" cy="300.01" r="2.5" fill="#2563eb"/>
  <circle cx="676.11" cy="300.01" r="2.5" fill="#2563eb"/>
  <circle cx="677.79" cy="299.97" r="2.5" fill="#2563eb"/>
  <circle cx="679.46" cy="299.97" r="2.5" fill="#2563eb"/>
  <circle cx="681.14" cy="299.97" r="2.5" fill="#2563eb"/>
  <circle cx="682.82" cy="250.03" r="2.5" fill="#2563eb"/>
  <circle cx="684.50" cy="299.93" r="2.5" fill="#2563eb"/>
  <circle cx="686.18" cy="300.01" r="2.5" fill="#2563eb"/>
  <circle cx="687.86" cy="300.01" r="2.5" fill="#2563eb"/>
  <circle cx="689.54" cy="299.93" r="2.5" fill="#2563eb"/>
  <circle cx="691.22" cy="300.01" r="2.5" fill="#2563eb"/>
  <circle cx="692.90" cy="300.01" r="2.5" fill="#2563eb"/>
  <circle cx="694.58" cy="299.97" r="2.5" fill="#2563eb"/>
  <circle cx="696.25" cy="300.01" r="2.5" fill="#2563eb"/>
  <circle cx="697.93" cy="300.01" r="2.5" fill="#2563eb"/>
  <circle cx="699.61" cy="300.06" r="2.5" fill="#2563eb"/>
  <circle cx="701.29" cy="300.01" r="2.5" fill="#2563eb"/>
  <circle cx="702.97" cy="299.97" r="2.5" fill="#2563eb"/>
  <circle cx="704.65" cy="299.89" r="2.5" fill="#2563eb"/>
  <circle cx="706.33" cy="300.01" r="2.5" fill="#2563eb"/>
  <circle cx="708.01" cy="300.01" r="2.5" fill="#2563eb"/>
  <circle cx="709.69" cy="249.94" r="2.5" fill="#2563eb"/>
  <circle cx="711.37" cy="249.94" r="2.5" fill="#2563eb"/>
  <circle cx="713.04" cy="300.01" r="2.5" fill="#2563eb"/>
  <circle cx="714.72" cy="300.01" r="2.5" fill="#2563eb"/>
  <circle cx="716.40" cy="300.01" r="2.5" fill="#2563eb"/>
  <circle cx="718.08" cy="300.01" r="2.5" fill="#2563eb"/>
  <circle cx="719.76" cy="299.97" r="2.5" fill="#2563eb"/>
  <circle cx="721.44" cy="250.03" r="2.5" fill="#2563eb"/>
  <circle cx="723.12" cy="300.01" r="2.5" fill="#2563eb"/>
  <circle cx="724.80" cy="300.01" r="2.5" fill="#2563eb"/>
  <circle cx="726.48" cy="300.01" r="2.5" fill="#2563eb"/>
  <circle cx="728.15" cy="300.01" r="2.5" fill="#2563eb"/>
  <circle cx="729.83" cy="250.03" r="2.5" fill="#2563eb"/>
  <circle cx="731.51" cy="249.99" r="2.5" fill="#2563eb"/>
  <circle cx="733.19" cy="300.01" r="2.5" fill="#2563eb"/>
  <circle cx="734.87" cy="299.97" r="2.5" fill="#2563eb"/>
  <circle cx="736.55" cy="300.01" r="2.5" fill="#2563eb"/>
  <circle cx="738.23" cy="299.97" r="2.5" fill="#2563eb"/>
  <circle cx="739.91" cy="300.01" r="2.5" fill="#2563eb"/>
  <circle cx="741.59" cy="299.97" r="2.5" fill="#2563eb"/>
  <circle cx="743.27" cy="299.97" r="2.5" fill="#2563eb"/>
  <circle cx="744.94" cy="299.97" r="2.5" fill="#2563eb"/>
  <circle cx="746.62" cy="300.06" r="2.5" fill="#2563eb"/>
  <circle cx="748.30" cy="249.99" r="2.5" fill="#2563eb"/>
  <circle cx="749.98" cy="300.01" r="2.5" fill="#2563eb"/>
  <circle cx="751.66" cy="250.03" r="2.5" fill="#2563eb"/>
  <circle cx="753.34" cy="249.94" r="2.5" fill="#2563eb"/>
  <circle cx="755.02" cy="249.99" r="2.5" fill="#2563eb"/>
  <circle cx="756.70" cy="300.01" r="2.5" fill="#2563eb"/>
  <circle cx="758.38" cy="300.06" r="2.5" fill="#2563eb"/>
  <circle cx="760.06" cy="300.01" r="2.5" fill="#2563eb"/>
  <circle cx="761.73" cy="299.97" r="2.5" fill="#2563eb"/>
  <circle cx="763.41" cy="299.97" r="2.5" fill="#2563eb"/>
  <circle cx="765.09" cy="300.01" r="2.5" fill="#2563eb"/>
  <circle cx="766.77" cy="299.93" r="2.5" fill="#2563eb"/>
  <circle cx="768.45" cy="299.89" r="2.5" fill="#2563eb"/>
  <circle cx="770.13" cy="299.89" r="2.5" fill="#2563eb"/>
  <circle cx="771.81" cy="299.89" r="2.5" fill="#2563eb"/>
  <circle cx="773.49" cy="299.89" r="2.5" fill="#2563eb"/>
  <circle cx="775.17" cy="299.85" r="2.5" fill="#2563eb"/>
  <circle cx="776.85" cy="299.85" r="2.5" fill="#2563eb"/>
  <circle cx="778.52" cy="299.89" r="2.5" fill="#2563eb"/>
  <circle cx="780.20" cy="299.81" r="2.5" fill="#2563eb"/>
  <circle cx="781.88" cy="299.81" r="2.5" fill="#2563eb"/>
  <circle cx="783.56" cy="299.81" r="2.5" fill="#2563eb"/>
  <circle cx="785.24" cy="299.76" r="2.5" fill="#2563eb"/>
  <circle cx="786.92" cy="299.76" r="2.5" fill="#2563eb"/>
  <circle cx="788.60" cy="299.76" r="2.5" fill="#2563eb"/>
  <circle cx="790.28" cy="299.72" r="2.5" fill="#2563eb"/>
  <circle cx="791.96" cy="299.68" r="2.5" fill="#2563eb"/>
  <circle cx="793.63" cy="299.60" r="2.5" fill="#2563eb"/>
  <circle cx="795.31" cy="299.60" r="2.5" fill="#2563eb"/>
  <circle cx="796.99" cy="299.60" r="2.5" fill="#2563eb"/>
  <circle cx="798.67" cy="299.56" r="2.5" fill="#2563eb"/>
  <circle cx="800.35" cy="299.47" r="2.5" fill="#2563eb"/>
  <circle cx="802.03" cy="299.43" r="2.5" fill="#2563eb"/>
  <circle cx="803.71" cy="299.43" r="2.5" fill="#2563eb"/>
  <circle cx="805.39" cy="299.39" r="2.5" fill="#2563eb"/>
  <circle cx="807.07" cy="299.47" r="2.5" fill="#2563eb"/>
  <circle cx="808.75" cy="259.82" r="2.5" fill="#2563eb"/>
  <circle cx="810.42" cy="338.96" r="2.5" fill="#2563eb"/>
  <circle cx="812.10" cy="299.31" r="2.5" fill="#2563eb"/>
  <circle cx="813.78" cy="299.31" r="2.5" fill="#2563eb"/>
  <circle cx="815.46" cy="299.26" r="2.5" fill="#2563eb"/>
  <circle cx="817.14" cy="299.68" r="2.5" fill="#2563eb"/>
  <circle cx="818.82" cy="299.68" r="2.5" fill="#2563eb"/>
  <circle cx="820.50" cy="299.68" r="2.5" fill="#2563eb"/>
  <circle cx="822.18" cy="299.64" r="2.5" fill="#2563eb"/>
  <circle cx="823.86" cy="299.14" r="2.5" fill="#2563eb"/>
  <circle cx="825.54" cy="299.14" r="2.5" fill="#2563eb"/>
  <circle cx="827.21" cy="299.10" r="2.5" fill="#2563eb"/>
  <circle cx="828.89" cy="299.10" r="2.5" fill="#2563eb"/>
  <circle cx="830.57" cy="299.10" r="2.5" fill="#2563eb"/>
  <circle cx="832.25" cy="248.07" r="2.5" fill="#2563eb"/>
  <circle cx="833.93" cy="299.06" r="2.5" fill="#2563eb"/>
  <circle cx="835.61" cy="299.06" r="2.5" fill="#2563eb"/>
  <circle cx="837.29" cy="299.06" r="2.5" fill="#2563eb"/>
  <circle cx="838.97" cy="299.06" r="2.5" fill="#2563eb"/>
  <circle cx="840.65" cy="299.06" r="2.5" fill="#2563eb"/>
  <circle cx="842.32" cy="298.97" r="2.5" fill="#2563eb"/>
  <circle cx="844.00" cy="298.97" r="2.5" fill="#2563eb"/>
  <circle cx="845.68" cy="298.93" r="2.5" fill="#2563eb"/>
  <circle cx="847.36" cy="298.97" r="2.5" fill="#2563eb"/>
  <circle cx="849.04" cy="298.93" r="2.5" fill="#2563eb"/>
  <circle cx="850.72" cy="298.89" r="2.5" fill="#2563eb"/>
  <circle cx="852.40" cy="298.89" r="2.5" fill="#2563eb"/>
  <circle cx="854.08" cy="298.89" r="2.5" fill="#2563eb"/>
  <circle cx="855.76" cy="298.89" r="2.5" fill="#2563eb"/>
  <circle cx="857.44" cy="247.78" r="2.5" fill="#2563eb"/>
  <circle cx="859.11" cy="298.89" r="2.5" fill="#2563eb"/>
  <circle cx="860.79" cy="298.89" r="2.5" fill="#2563eb"/>
  <circle cx="862.47" cy="298.85" r="2.5" fill="#2563eb"/>
  <circle cx="864.15" cy="298.85" r="2.5" fill="#2563eb"/>
  <circle cx="865.83" cy="298.81" r="2.5" fill="#2563eb"/>
  <circle cx="867.51" cy="298.81" r="2.5" fill="#2563eb"/>
  <circle cx="869.19" cy="298.81" r="2.5" fill="#2563eb"/>
  <circle cx="870.87" cy="298.81" r="2.5" fill="#2563eb"/>
  <circle cx="872.55" cy="298.81" r="2.5" fill="#2563eb"/>
  <circle cx="874.23" cy="298.81" r="2.5" fill="#2563eb"/>
  <circle cx="875.90" cy="298.81" r="2.5" fill="#2563eb"/>
  <circle cx="877.58" cy="298.81" r="2.5" fill="#2563eb"/>
  <circle cx="879.26" cy="298.81" r="2.5" fill="#2563eb"/>
  <circle cx="880.94" cy="298.72" r="2.5" fill="#2563eb"/>
  <circle cx="882.62" cy="247.45" r="2.5" fill="#2563eb"/>
  <circle cx="884.30" cy="247.45" r="2.5" fill="#2563eb"/>
  <circle cx="885.98" cy="298.72" r="2.5" fill="#2563eb"/>
  <circle cx="887.66" cy="298.72" r="2.5" fill="#2563eb"/>
  <circle cx="889.34" cy="298.72" r="2.5" fill="#2563eb"/>
  <circle cx="891.01" cy="298.72" r="2.5" fill="#2563eb"/>
  <circle cx="892.69" cy="298.72" r="2.5" fill="#2563eb"/>
  <circle cx="894.37" cy="298.72" r="2.5" fill="#2563eb"/>
  <circle cx="896.05" cy="247.36" r="2.5" fill="#2563eb"/>
  <circle cx="897.73" cy="298.68" r="2.5" fill="#2563eb"/>
  <circle cx="899.41" cy="247.36" r="2.5" fill="#2563eb"/>
  <circle cx="901.09" cy="247.36" r="2.5" fill="#2563eb"/>
  <circle cx="902.77" cy="247.36" r="2.5" fill="#2563eb"/>
  <circle cx="904.45" cy="298.68" r="2.5" fill="#2563eb"/>
  <circle cx="906.13" cy="298.68" r="2.5" fill="#2563eb"/>
  <circle cx="907.80" cy="298.68" r="2.5" fill="#2563eb"/>
  <circle cx="909.48" cy="298.68" r="2.5" fill="#2563eb"/>
  <circle cx="911.16" cy="298.68" r="2.5" fill="#2563eb"/>
  <circle cx="912.84" cy="341.67" r="2.5" fill="#2563eb"/>
  <circle cx="914.52" cy="307.01" r="2.5" fill="#2563eb"/>
  <circle cx="916.20" cy="298.68" r="2.5" fill="#2563eb"/>
  <circle cx="917.88" cy="298.68" r="2.5" fill="#2563eb"/>
  <circle cx="919.56" cy="298.68" r="2.5" fill="#2563eb"/>
  <circle cx="921.24" cy="247.36" r="2.5" fill="#2563eb"/>
  <circle cx="922.92" cy="298.64" r="2.5" fill="#2563eb"/>
  <circle cx="924.59" cy="247.36" r="2.5" fill="#2563eb"/>
  <circle cx="926.27" cy="247.28" r="2.5" fill="#2563eb"/>
  <circle cx="927.95" cy="247.20" r="2.5" fill="#2563eb"/>
  <circle cx="929.63" cy="298.60" r="2.5" fill="#2563eb"/>
  <circle cx="931.31" cy="298.60" r="2.5" fill="#2563eb"/>
  <circle cx="932.99" cy="247.03" r="2.5" fill="#2563eb"/>
  <circle cx="934.67" cy="298.51" r="2.5" fill="#2563eb"/>
  <circle cx="936.35" cy="298.51" r="2.5" fill="#2563eb"/>
  <circle cx="938.03" cy="298.51" r="2.5" fill="#2563eb"/>
  <circle cx="939.70" cy="298.51" r="2.5" fill="#2563eb"/>
  <circle cx="941.38" cy="298.51" r="2.5" fill="#2563eb"/>
  <circle cx="943.06" cy="298.51" r="2.5" fill="#2563eb"/>
  <circle cx="944.74" cy="298.51" r="2.5" fill="#2563eb"/>
  <circle cx="946.42" cy="298.51" r="2.5" fill="#2563eb"/>
  <circle cx="948.10" cy="298.51" r="2.5" fill="#2563eb"/>
  <circle cx="949.78" cy="298.51" r="2.5" fill="#2563eb"/>
  <circle cx="951.46" cy="298.51" r="2.5" fill="#2563eb"/>
  <circle cx="953.14" cy="298.51" r="2.5" fill="#2563eb"/>
  <circle cx="954.82" cy="298.51" r="2.5" fill="#2563eb"/>
  <circle cx="956.49" cy="298.51" r="2.5" fill="#2563eb"/>
  <circle cx="958.17" cy="298.51" r="2.5" fill="#2563eb"/>
  <circle cx="959.85" cy="298.51" r="2.5" fill="#2563eb"/>
  <circle cx="961.53" cy="298.51" r="2.5" fill="#2563eb"/>
  <circle cx="963.21" cy="298.51" r="2.5" fill="#2563eb"/>
  <circle cx="964.89" cy="298.51" r="2.5" fill="#2563eb"/>
  <circle cx="966.57" cy="298.51" r="2.5" fill="#2563eb"/>
  <circle cx="968.25" cy="298.51" r="2.5" fill="#2563eb"/>
  <circle cx="969.93" cy="298.51" r="2.5" fill="#2563eb"/>
  <circle cx="971.61" cy="298.51" r="2.5" fill="#2563eb"/>
  <circle cx="973.28" cy="298.51" r="2.5" fill="#2563eb"/>
  <circle cx="974.96" cy="298.51" r="2.5" fill="#2563eb"/>
  <circle cx="976.64" cy="298.51" r="2.5" fill="#2563eb"/>
  <circle cx="978.32" cy="298.47" r="2.5" fill="#2563eb"/>
  <circle cx="980.00" cy="298.51" r="2.5" fill="#2563eb"/>
</svg>
