<?xml version="1.0" encoding="UTF-8"?>
<svg xmlns="http://www.w3.org/2000/svg" width="1000" height="420" viewBox="0 0 1000 420">
  <rect width="100%" height="100%" fill="#ffffff"/>
  <text x="70" y="28" font-size="20" font-weight="600">수집 시점 기준 - 시간별 스냅샷</text>
  <text x="70" y="402" font-size="12" fill="#555">스냅샷 수</text>
  <line x1="70" y1="350.00" x2="980" y2="350.00" stroke="#e5e7eb" stroke-width="1"/>
  <text x="62" y="354.00" font-size="11" fill="#6b7280" text-anchor="end">0</text>
  <line x1="70" y1="290.00" x2="980" y2="290.00" stroke="#e5e7eb" stroke-width="1"/>
  <text x="62" y="294.00" font-size="11" fill="#6b7280" text-anchor="end">1,440</text>
  <line x1="70" y1="230.00" x2="980" y2="230.00" stroke="#e5e7eb" stroke-width="1"/>
  <text x="62" y="234.00" font-size="11" fill="#6b7280" text-anchor="end">2,880</text>
  <line x1="70" y1="170.00" x2="980" y2="170.00" stroke="#e5e7eb" stroke-width="1"/>
  <text x="62" y="174.00" font-size="11" fill="#6b7280" text-anchor="end">4,321</text>
  <line x1="70" y1="110.00" x2="980" y2="110.00" stroke="#e5e7eb" stroke-width="1"/>
  <text x="62" y="114.00" font-size="11" fill="#6b7280" text-anchor="end">5,761</text>
  <line x1="70" y1="50.00" x2="980" y2="50.00" stroke="#e5e7eb" stroke-width="1"/>
  <text x="62" y="54.00" font-size="11" fill="#6b7280" text-anchor="end">7,202</text>
  <line x1="70" y1="350" x2="980" y2="350" stroke="#111827" stroke-width="1.2"/>
  <line x1="70" y1="50" x2="70" y2="350" stroke="#111827" stroke-width="1.2"/>
  <line x1="70.00" y1="350" x2="70.00" y2="356" stroke="#9ca3af" stroke-width="1"/>
  <text x="70.00" y="372" font-size="10" fill="#6b7280" text-anchor="middle">2026-02-28 18</text>
  <line x1="144.97" y1="350" x2="144.97" y2="356" stroke="#9ca3af" stroke-width="1"/>
  <text x="144.97" y="372" font-size="10" fill="#6b7280" text-anchor="middle">2026-03-09 15</text>
  <line x1="219.94" y1="350" x2="219.94" y2="356" stroke="#9ca3af" stroke-width="1"/>
  <text x="219.94" y="372" font-size="10" fill="#6b7280" text-anchor="middle">2026-03-12 05</text>
  <line x1="294.91" y1="350" x2="294.91" y2="356" stroke="#9ca3af" stroke-width="1"/>
  <text x="294.91" y="372" font-size="10" fill="#6b7280" text-anchor="middle">2026-03-15 01</text>
  <line x1="369.89" y1="350" x2="369.89" y2="356" stroke="#9ca3af" stroke-width="1"/>
  <text x="369.89" y="372" font-size="10" fill="#6b7280" text-anchor="middle">2026-03-18 21</text>
  <line x1="444.86" y1="350" x2="444.86" y2="356" stroke="#9ca3af" stroke-width="1"/>
  <text x="444.86" y="372" font-size="10" fill="#6b7280" text-anchor="middle">2026-03-22 06</text>
  <line x1="519.83" y1="350" x2="519.83" y2="356" stroke="#9ca3af" stroke-width="1"/>
  <text x="519.83" y="372" font-size="10" fill="#6b7280" text-anchor="middle">2026-03-26 00</text>
  <line x1="594.80" y1="350" x2="594.80" y2="356" stroke="#9ca3af" stroke-width="1"/>
  <text x="594.80" y="372" font-size="10" fill="#6b7280" text-anchor="middle">2026-03-30 00</text>
  <line x1="669.77" y1="350" x2="669.77" y2="356" stroke="#9ca3af" stroke-width="1"/>
  <text x="669.77" y="372" font-size="10" fill="#6b7280" text-anchor="middle">2026-04-03 03</text>
  <line x1="744.74" y1="350" x2="744.74" y2="356" stroke="#9ca3af" stroke-width="1"/>
  <text x="744.74" y="372" font-size="10" fill="#6b7280" text-anchor="middle">2026-04-07 00</text>
  <line x1="819.72" y1="350" x2="819.72" y2="356" stroke="#9ca3af" stroke-width="1"/>
  <text x="819.72" y="372" font-size="10" fill="#6b7280" text-anchor="middle">2026-04-11 02</text>
  <line x1="894.69" y1="350" x2="894.69" y2="356" stroke="#9ca3af" stroke-width="1"/>
  <text x="894.69" y="372" font-size="10" fill="#6b7280" text-anchor="middle">2026-04-15 07</text>
  <line x1="969.66" y1="350" x2="969.66" y2="356" stroke="#9ca3af" stroke-width="1"/>
  <text x="969.66" y="372" font-size="10" fill="#6b7280" text-anchor="middle">2026-04-19 09</text>
  <line x1="980.00" y1="350" x2="980.00" y2="356" stroke="#9ca3af" stroke-width="1"/>
  <text x="980.00" y="372" font-size="10" fill="#6b7280" text-anchor="middle">2026-04-20 00</text>
  <polyline fill="none" stroke="#2563eb" stroke-width="2.5" points="70.00,50.00 71.29,50.12 72.59,50.17 73.88,50.46 75.17,50.00 76.46,266.90 77.76,50.12 79.05,50.08 80.34,177.46 81.63,211.58 82.93,175.34 84.22,304.14 85.51,200.46 86.80,250.94 88.10,300.01 89.39,300.06 90.68,300.01 91.97,300.01 93.27,348.00 94.56,300.01 95.85,249.99 97.14,200.00 98.44,249.99 99.73,249.99 101.02,250.03 102.32,250.03 103.61,250.03 104.90,250.40 106.19,250.90 107.49,250.90 108.78,251.32 110.07,249.94 111.36,300.01 112.66,299.93 113.95,251.03 115.24,300.68 116.53,250.03 117.83,200.00 119.12,249.99 120.41,250.03 121.70,250.03 123.00,250.03 124.29,300.01 125.58,200.04 126.88,250.03 128.17,250.03 129.46,250.03 130.75,249.90 132.05,250.03 133.34,250.03 134.63,250.94 135.92,250.44 137.22,250.03 138.51,250.03 139.80,300.47 141.09,300.01 142.39,300.43 143.68,250.03 144.97,249.99 146.26,300.43 147.56,249.90 148.85,249.99 150.14,249.99 151.43,200.04 152.73,300.01 154.02,300.01 155.31,300.01 156.61,249.90 157.90,300.01 159.19,250.03 160.48,249.99 161.78,199.96 163.07,300.01 164.36,200.00 165.65,250.36 166.95,250.03 168.24,300.01 169.53,300.01 170.82,250.44 172.12,300.01 173.41,250.03 174.70,250.03 175.99,249.99 177.29,250.49 178.58,250.03 179.87,200.04 181.16,300.01 182.46,250.03 183.75,300.01 185.04,250.11 186.34,300.01 187.63,250.03 188.92,250.03 190.21,199.92 191.51,250.03 192.80,250.03 194.09,250.03 195.38,254.36 196.68,300.01 197.97,299.97 199.26,250.36 200.55,299.97 201.85,250.03 203.14,250.03 204.43,250.03 205.72,250.03 207.02,249.99 208.31,200.00 209.60,299.93 210.89,300.01 212.19,299.97 213.48,249.94 214.77,249.99 216.07,249.82 217.36,249.94 218.65,250.28 219.94,207.00 221.24,250.03 222.53,250.32 223.82,250.40 225.11,300.93 226.41,300.01 227.70,300.10 228.99,249.94 230.28,249.99 231.58,250.07 232.87,249.99 234.16,250.03 235.45,249.94 236.75,200.00 238.04,300.39 239.33,300.01 240.62,300.01 241.92,250.44 243.21,300.39 244.50,249.86 245.80,250.11 247.09,201.46 248.38,300.01 249.67,200.83 250.97,250.03 252.26,249.99 253.55,300.26 254.84,300.01 256.14,300.01 257.43,250.03 258.72,250.03 260.01,250.03 261.31,250.03 262.60,249.99 263.89,250.03 265.18,200.00 266.48,300.26 267.77,249.99 269.06,300.01 270.36,249.94 271.65,250.03 272.94,250.03 274.23,250.03 275.53,200.04 276.82,300.01 278.11,249.90 279.40,300.01 280.70,300.01 281.99,300.06 283.28,300.01 284.57,300.01 285.87,243.95 287.16,249.94 288.45,299.97 289.74,300.01 291.04,300.01 292.33,250.03 293.62,300.01 294.91,300.01 296.21,299.97 297.50,249.99 298.79,300.01 300.09,299.93 301.38,300.01 302.67,299.93 303.96,300.01 305.26,300.01 306.55,299.89 307.84,299.97 309.13,250.03 310.43,299.93 311.72,299.89 313.01,299.97 314.30,249.94 315.60,300.01 316.89,300.01 318.18,299.97 319.47,249.99 320.77,299.97 322.06,299.97 323.35,300.06 324.64,300.06 325.94,299.93 327.23,300.01 328.52,300.01 329.82,299.93 331.11,300.01 332.40,300.01 333.69,299.97 334.99,300.01 336.28,300.01 337.57,300.01 338.86,300.01 340.16,249.86 341.45,300.01 342.74,300.10 344.03,299.93 345.33,300.01 346.62,299.93 347.91,300.01 349.20,300.01 350.50,300.01 351.79,300.01 353.08,300.01 354.38,299.97 355.67,300.01 356.96,300.01 358.25,300.01 359.55,300.01 360.84,250.03 362.13,300.01 363.42,300.01 364.72,299.97 366.01,300.01 367.30,300.01 368.59,299.97 369.89,299.97 371.18,300.01 372.47,299.97 373.76,300.01 375.06,299.93 376.35,300.01 377.64,250.03 378.93,300.01 380.23,300.01 381.52,300.01 382.81,300.01 384.11,300.01 385.40,299.89 386.69,300.01 387.98,300.01 389.28,250.07 390.57,300.01 391.86,299.93 393.15,300.01 394.45,299.97 395.74,299.97 397.03,299.97 398.32,250.03 399.62,300.01 400.91,300.01 402.20,300.01 403.49,300.01 404.79,299.97 406.08,300.01 407.37,299.97 408.66,300.01 409.96,299.97 411.25,249.90 412.54,300.01 413.84,300.01 415.13,299.89 416.42,299.97 417.71,299.97 419.01,249.99 420.30,299.97 421.59,299.89 422.88,300.01 424.18,299.97 425.47,299.97 426.76,300.01 428.05,299.97 429.35,249.99 430.64,299.97 431.93,299.97 433.22,300.06 434.52,300.06 435.81,249.94 437.10,300.01 438.39,299.93 439.69,300.01 440.98,300.01 442.27,249.99 443.57,300.01 444.86,300.01 446.15,300.01 447.44,299.93 448.74,299.93 450.03,300.01 451.32,300.01 452.61,249.94 453.91,299.97 455.20,299.97 456.49,300.01 457.78,300.01 459.08,300.01 460.37,249.99 461.66,300.01 462.95,300.01 464.25,300.01 465.54,250.03 466.83,300.01 468.12,300.01 469.42,300.01 470.71,299.97 472.00,300.01 473.30,300.01 474.59,299.97 475.88,299.97 477.17,300.01 478.47,300.01 479.76,299.97 481.05,299.93 482.34,300.01 483.64,300.06 484.93,299.97 486.22,300.01 487.51,250.03 488.81,250.03 490.10,299.93 491.39,299.97 492.68,300.01 493.98,300.01 495.27,300.06 496.56,300.01 497.86,299.93 499.15,300.01 500.44,300.01 501.73,299.97 503.03,299.97 504.32,300.01 505.61,250.03 506.90,300.01 508.20,300.01 509.49,300.01 510.78,299.97 512.07,300.01 513.37,299.97 514.66,300.01 515.95,299.97 517.24,299.97 518.54,299.93 519.83,300.01 521.12,300.01 522.41,299.89 523.71,299.97 525.00,299.97 526.29,300.06 527.59,249.90 528.88,299.89 530.17,300.01 531.46,299.97 532.76,299.97 534.05,299.97 535.34,300.01 536.63,300.01 537.93,299.97 539.22,299.97 540.51,299.97 541.80,250.03 543.10,299.93 544.39,300.01 545.68,300.01 546.97,299.93 548.27,300.01 549.56,300.01 550.85,299.97 552.14,300.01 553.44,300.01 554.73,300.06 556.02,300.01 557.32,299.97 558.61,299.89 559.90,300.01 561.19,300.01 562.49,249.94 563.78,249.94 565.07,300.01 566.36,300.01 567.66,300.01 568.95,300.01 570.24,299.97 571.53,250.03 572.83,300.01 574.12,300.01 575.41,300.01 576.70,300.01 578.00,250.03 579.29,249.99 580.58,300.01 581.88,299.97 583.17,300.01 584.46,299.97 585.75,300.01 587.05,299.97 588.34,299.97 589.63,299.97 590.92,300.06 592.22,249.99 593.51,300.01 594.80,250.03 596.09,249.94 597.39,249.99 598.68,300.01 599.97,300.06 601.26,300.01 602.56,299.97 603.85,299.97 605.14,300.01 606.43,299.93 607.73,299.89 609.02,299.89 610.31,299.89 611.61,299.89 612.90,299.85 614.19,299.85 615.48,299.89 616.78,299.81 618.07,299.81 619.36,299.81 620.65,299.76 621.95,299.76 623.24,299.76 624.53,299.72 625.82,299.68 627.12,299.60 628.41,299.60 629.70,299.60 630.99,299.56 632.29,299.47 633.58,299.43 634.87,299.43 636.16,299.39 637.46,299.47 638.75,259.82 640.04,338.96 641.34,299.31 642.63,299.31 643.92,299.26 645.21,299.68 646.51,299.68 647.80,299.68 649.09,299.64 650.38,299.14 651.68,299.14 652.97,299.10 654.26,299.10 655.55,299.10 656.85,248.07 658.14,299.06 659.43,299.06 660.72,299.06 662.02,299.06 663.31,299.06 664.60,298.97 665.89,298.97 667.19,298.93 668.48,298.97 669.77,298.93 671.07,298.89 672.36,298.89 673.65,298.89 674.94,298.89 676.24,247.78 677.53,298.89 678.82,298.89 680.11,298.85 681.41,298.85 682.70,298.81 683.99,298.81 685.28,298.81 686.58,298.81 687.87,298.81 689.16,298.81 690.45,298.81 691.75,298.81 693.04,298.81 694.33,298.72 695.62,247.45 696.92,247.45 698.21,298.72 699.50,298.72 700.80,298.72 702.09,298.72 703.38,298.72 704.67,298.72 705.97,247.36 707.26,298.68 708.55,247.36 709.84,247.36 711.14,247.36 712.43,298.68 713.72,298.68 715.01,298.68 716.31,298.68 717.60,298.68 718.89,341.67 720.18,307.01 721.48,298.68 722.77,298.68 724.06,298.68 725.36,247.36 726.65,298.64 727.94,247.36 729.23,247.28 730.53,247.20 731.82,298.60 733.11,298.60 734.40,247.03 735.70,298.51 736.99,298.51 738.28,298.51 739.57,298.51 740.87,298.51 742.16,298.51 743.45,298.51 744.74,298.51 746.04,298.51 747.33,298.51 748.62,298.51 749.91,298.51 751.21,298.51 752.50,298.51 753.79,298.51 755.09,298.51 756.38,298.51 757.67,298.51 758.96,298.51 760.26,298.51 761.55,298.51 762.84,298.51 764.13,298.51 765.43,298.51 766.72,298.51 768.01,298.51 769.30,298.47 770.60,298.51 771.89,298.51 773.18,298.47 774.47,298.51 775.77,298.47 777.06,298.51 778.35,298.43 779.64,298.56 780.94,298.43 782.23,298.43 783.52,298.43 784.82,298.43 786.11,298.43 787.40,298.43 788.69,298.43 789.99,298.43 791.28,298.43 792.57,298.43 793.86,298.43 795.16,298.43 796.45,298.43 797.74,298.43 799.03,298.43 800.33,298.43 801.62,298.43 802.91,298.43 804.20,298.43 805.50,298.43 806.79,298.43 808.08,298.43 809.38,298.43 810.67,298.43 811.96,298.43 813.25,298.43 814.55,298.43 815.84,298.43 817.13,298.43 818.42,298.43 819.72,298.43 821.01,298.43 822.30,298.43 823.59,298.43 824.89,298.39 826.18,298.39 827.47,298.43 828.76,298.43 830.06,298.39 831.35,298.39 832.64,298.39 833.93,298.43 835.23,298.43 836.52,298.43 837.81,246.82 839.11,298.43 840.40,246.78 841.69,246.78 842.98,246.78 844.28,246.70 845.57,246.78 846.86,298.39 848.15,298.39 849.45,298.39 850.74,298.39 852.03,298.39 853.32,246.78 854.62,298.39 855.91,298.39 857.20,298.39 858.49,298.39 859.79,298.39 861.08,246.78 862.37,246.78 863.66,298.39 864.96,298.39 866.25,298.39 867.54,298.39 868.84,298.39 870.13,298.39 871.42,298.39 872.71,298.39 874.01,298.39 875.30,298.39 876.59,298.39 877.88,298.39 879.18,298.39 880.47,298.39 881.76,298.35 883.05,298.39 884.35,298.39 885.64,298.35 886.93,298.35 888.22,298.35 889.52,298.35 890.81,298.35 892.10,298.35 893.39,298.35 894.69,298.35 895.98,298.35 897.27,298.35 898.57,298.35 899.86,298.35 901.15,298.35 902.44,298.35 903.74,298.35 905.03,298.35 906.32,298.35 907.61,298.35 908.91,298.35 910.20,298.35 911.49,298.35 912.78,298.35 914.08,298.35 915.37,298.35 916.66,298.35 917.95,298.35 919.25,298.35 920.54,298.35 921.83,298.35 923.12,298.35 924.42,298.35 925.71,298.35 927.00,298.35 928.30,298.35 929.59,298.35 930.88,298.35 932.17,298.35 933.47,298.35 934.76,298.35 936.05,298.35 937.34,298.35 938.64,298.35 939.93,298.35 941.22,298.35 942.51,298.35 943.81,298.35 945.10,298.35 946.39,298.35 947.68,298.35 948.98,298.35 950.27,298.35 951.56,298.35 952.86,298.39 954.15,298.39 955.44,298.39 956.73,246.78 958.03,298.39 959.32,298.39 960.61,298.39 961.90,298.39 963.20,298.39 964.49,298.39 965.78,298.39 967.07,246.78 968.37,298.39 969.66,298.39 970.95,298.39 972.24,298.39 973.54,298.39 974.83,298.39 976.12,298.39 977.41,246.78 978.71,298.39 980.00,298.39"/>
  <circle cx="70.00" cy="50.00" r="2.5" fill="#2563eb"/>
  <circle cx="71.29" cy="50.12" r="2.5" fill="#2563eb"/>
  <circle cx="72.59" cy="50.17" r="2.5" fill="#2563eb"/>
  <circle cx="73.88" cy="50.46" r="2.5" fill="#2563eb"/>
  <circle cx="75.17" cy="50.00" r="2.5" fill="#2563eb"/>
  <circle cx="76.46" cy="266.90" r="2.5" fill="#2563eb"/>
  <circle cx="77.76" cy="50.12" r="2.5" fill="#2563eb"/>
  <circle cx="79.05" cy="50.08" r="2.5" fill="#2563eb"/>
  <circle cx="80.34" cy="177.46" r="2.5" fill="#2563eb"/>
  <circle cx="81.63" cy="211.58" r="2.5" fill="#2563eb"/>
  <circle cx="82.93" cy="175.34" r="2.5" fill="#2563eb"/>
  <circle cx="84.22" cy="304.14" r="2.5" fill="#2563eb"/>
  <circle cx="85.51" cy="200.46" r="2.5" fill="#2563eb"/>
  <circle cx="86.80" cy="250.94" r="2.5" fill="#2563eb"/>
  <circle cx="88.10" cy="300.01" r="2.5" fill="#2563eb"/>
  <circle cx="89.39" cy="300.06" r="2.5" fill="#2563eb"/>
  <circle cx="90.68" cy="300.01" r="2.5" fill="#2563eb"/>
  <circle cx="91.97" cy="300.01" r="2.5" fill="#2563eb"/>
  <circle cx="93.27" cy="348.00" r="2.5" fill="#2563eb"/>
  <circle cx="94.56" cy="300.01" r="2.5" fill="#2563eb"/>
  <circle cx="95.85" cy="249.99" r="2.5" fill="#2563eb"/>
  <circle cx="97.14" cy="200.00" r="2.5" fill="#2563eb"/>
  <circle cx="98.44" cy="249.99" r="2.5" fill="#2563eb"/>
  <circle cx="99.73" cy="249.99" r="2.5" fill="#2563eb"/>
  <circle cx="101.02" cy="250.03" r="2.5" fill="#2563eb"/>
  <circle cx="102.32" cy="250.03" r="2.5" fill="#2563eb"/>
  <circle cx="103.61" cy="250.03" r="2.5" fill="#2563eb"/>
  <circle cx="104.90" cy="250.40" r="2.5" fill="#2563eb"/>
  <circle cx="106.19" cy="250.90" r="2.5" fill="#2563eb"/>
  <circle cx="107.49" cy="250.90" r="2.5" fill="#2563eb"/>
  <circle cx="108.78" cy="251.32" r="2.5" fill="#2563eb"/>
  <circle cx="110.07" cy="249.94" r="2.5" fill="#2563eb"/>
  <circle cx="111.36" cy="300.01" r="2.5" fill="#2563eb"/>
  <circle cx="112.66" cy="299.93" r="2.5" fill="#2563eb"/>
  <circle cx="113.95" cy="251.03" r="2.5" fill="#2563eb"/>
  <circle cx="115.24" cy="300.68" r="2.5" fill="#2563eb"/>
  <circle cx="116.53" cy="250.03" r="2.5" fill="#2563eb"/>
  <circle cx="117.83" cy="200.00" r="2.5" fill="#2563eb"/>
  <circle cx="119.12" cy="249.99" r="2.5" fill="#2563eb"/>
  <circle cx="120.41" cy="250.03" r="2.5" fill="#2563eb"/>
  <circle cx="121.70" cy="250.03" r="2.5" fill="#2563eb"/>
  <circle cx="123.00" cy="250.03" r="2.5" fill="#2563eb"/>
  <circle cx="124.29" cy="300.01" r="2.5" fill="#2563eb"/>
  <circle cx="125.58" cy="200.04" r="2.5" fill="#2563eb"/>
  <circle cx="126.88" cy="250.03" r="2.5" fill="#2563eb"/>
  <circle cx="128.17" cy="250.03" r="2.5" fill="#2563eb"/>
  <circle cx="129.46" cy="250.03" r="2.5" fill="#2563eb"/>
  <circle cx="130.75" cy="249.90" r="2.5" fill="#2563eb"/>
  <circle cx="132.05" cy="250.03" r="2.5" fill="#2563eb"/>
  <circle cx="133.34" cy="250.03" r="2.5" fill="#2563eb"/>
  <circle cx="134.63" cy="250.94" r="2.5" fill="#2563eb"/>
  <circle cx="135.92" cy="250.44" r="2.5" fill="#2563eb"/>
  <circle cx="137.22" cy="250.03" r="2.5" fill="#2563eb"/>
  <circle cx="138.51" cy="250.03" r="2.5" fill="#2563eb"/>
  <circle cx="139.80" cy="300.47" r="2.5" fill="#2563eb"/>
  <circle cx="141.09" cy="300.01" r="2.5" fill="#2563eb"/>
  <circle cx="142.39" cy="300.43" r="2.5" fill="#2563eb"/>
  <circle cx="143.68" cy="250.03" r="2.5" fill="#2563eb"/>
  <circle cx="144.97" cy="249.99" r="2.5" fill="#2563eb"/>
  <circle cx="146.26" cy="300.43" r="2.5" fill="#2563eb"/>
  <circle cx="147.56" cy="249.90" r="2.5" fill="#2563eb"/>
  <circle cx="148.85" cy="249.99" r="2.5" fill="#2563eb"/>
  <circle cx="150.14" cy="249.99" r="2.5" fill="#2563eb"/>
  <circle cx="151.43" cy="200.04" r="2.5" fill="#2563eb"/>
  <circle cx="152.73" cy="300.01" r="2.5" fill="#2563eb"/>
  <circle cx="154.02" cy="300.01" r="2.5" fill="#2563eb"/>
  <circle cx="155.31" cy="300.01" r="2.5" fill="#2563eb"/>
  <circle cx="156.61" cy="249.90" r="2.5" fill="#2563eb"/>
  <circle cx="157.90" cy="300.01" r="2.5" fill="#2563eb"/>
  <circle cx="159.19" cy="250.03" r="2.5" fill="#2563eb"/>
  <circle cx="160.48" cy="249.99" r="2.5" fill="#2563eb"/>
  <circle cx="161.78" cy="199.96" r="2.5" fill="#2563eb"/>
  <circle cx="163.07" cy="300.01" r="2.5" fill="#2563eb"/>
  <circle cx="164.36" cy="200.00" r="2.5" fill="#2563eb"/>
  <circle cx="165.65" cy="250.36" r="2.5" fill="#2563eb"/>
  <circle cx="166.95" cy="250.03" r="2.5" fill="#2563eb"/>
  <circle cx="168.24" cy="300.01" r="2.5" fill="#2563eb"/>
  <circle cx="169.53" cy="300.01" r="2.5" fill="#2563eb"/>
  <circle cx="170.82" cy="250.44" r="2.5" fill="#2563eb"/>
  <circle cx="172.12" cy="300.01" r="2.5" fill="#2563eb"/>
  <circle cx="173.41" cy="250.03" r="2.5" fill="#2563eb"/>
  <circle cx="174.70" cy="250.03" r="2.5" fill="#2563eb"/>
  <circle cx="175.99" cy="249.99" r="2.5" fill="#2563eb"/>
  <circle cx="177.29" cy="250.49" r="2.5" fill="#2563eb"/>
  <circle cx="178.58" cy="250.03" r="2.5" fill="#2563eb"/>
  <circle cx="179.87" cy="200.04" r="2.5" fill="#2563eb"/>
  <circle cx="181.16" cy="300.01" r="2.5" fill="#2563eb"/>
  <circle cx="182.46" cy="250.03" r="2.5" fill="#2563eb"/>
  <circle cx="183.75" cy="300.01" r="2.5" fill="#2563eb"/>
  <circle cx="185.04" cy="250.11" r="2.5" fill="#2563eb"/>
  <circle cx="186.34" cy="300.01" r="2.5" fill="#2563eb"/>
  <circle cx="187.63" cy="250.03" r="2.5" fill="#2563eb"/>
  <circle cx="188.92" cy="250.03" r="2.5" fill="#2563eb"/>
  <circle cx="190.21" cy="199.92" r="2.5" fill="#2563eb"/>
  <circle cx="191.51" cy="250.03" r="2.5" fill="#2563eb"/>
  <circle cx="192.80" cy="250.03" r="2.5" fill="#2563eb"/>
  <circle cx="194.09" cy="250.03" r="2.5" fill="#2563eb"/>
  <circle cx="195.38" cy="254.36" r="2.5" fill="#2563eb"/>
  <circle cx="196.68" cy="300.01" r="2.5" fill="#2563eb"/>
  <circle cx="197.97" cy="299.97" r="2.5" fill="#2563eb"/>
  <circle cx="199.26" cy="250.36" r="2.5" fill="#2563eb"/>
  <circle cx="200.55" cy="299.97" r="2.5" fill="#2563eb"/>
  <circle cx="201.85" cy="250.03" r="2.5" fill="#2563eb"/>
  <circle cx="203.14" cy="250.03" r="2.5" fill="#2563eb"/>
  <circle cx="204.43" cy="250.03" r="2.5" fill="#2563eb"/>
  <circle cx="205.72" cy="250.03" r="2.5" fill="#2563eb"/>
  <circle cx="207.02" cy="249.99" r="2.5" fill="#2563eb"/>
  <circle cx="208.31" cy="200.00" r="2.5" fill="#2563eb"/>
  <circle cx="209.60" cy="299.93" r="2.5" fill="#2563eb"/>
  <circle cx="210.89" cy="300.01" r="2.5" fill="#2563eb"/>
  <circle cx="212.19" cy="299.97" r="2.5" fill="#2563eb"/>
  <circle cx="213.48" cy="249.94" r="2.5" fill="#2563eb"/>
  <circle cx="214.77" cy="249.99" r="2.5" fill="#2563eb"/>
  <circle cx="216.07" cy="249.82" r="2.5" fill="#2563eb"/>
  <circle cx="217.36" cy="249.94" r="2.5" fill="#2563eb"/>
  <circle cx="218.65" cy="250.28" r="2.5" fill="#2563eb"/>
  <circle cx="219.94" cy="207.00" r="2.5" fill="#2563eb"/>
  <circle cx="221.24" cy="250.03" r="2.5" fill="#2563eb"/>
  <circle cx="222.53" cy="250.32" r="2.5" fill="#2563eb"/>
  <circle cx="223.82" cy="250.40" r="2.5" fill="#2563eb"/>
  <circle cx="225.11" cy="300.93" r="2.5" fill="#2563eb"/>
  <circle cx="226.41" cy="300.01" r="2.5" fill="#2563eb"/>
  <circle cx="227.70" cy="300.10" r="2.5" fill="#2563eb"/>
  <circle cx="228.99" cy="249.94" r="2.5" fill="#2563eb"/>
  <circle cx="230.28" cy="249.99" r="2.5" fill="#2563eb"/>
  <circle cx="231.58" cy="250.07" r="2.5" fill="#2563eb"/>
  <circle cx="232.87" cy="249.99" r="2.5" fill="#2563eb"/>
  <circle cx="234.16" cy="250.03" r="2.5" fill="#2563eb"/>
  <circle cx="235.45" cy="249.94" r="2.5" fill="#2563eb"/>
  <circle cx="236.75" cy="200.00" r="2.5" fill="#2563eb"/>
  <circle cx="238.04" cy="300.39" r="2.5" fill="#2563eb"/>
  <circle cx="239.33" cy="300.01" r="2.5" fill="#2563eb"/>
  <circle cx="240.62" cy="300.01" r="2.5" fill="#2563eb"/>
  <circle cx="241.92" cy="250.44" r="2.5" fill="#2563eb"/>
  <circle cx="243.21" cy="300.39" r="2.5" fill="#2563eb"/>
  <circle cx="244.50" cy="249.86" r="2.5" fill="#2563eb"/>
  <circle cx="245.80" cy="250.11" r="2.5" fill="#2563eb"/>
  <circle cx="247.09" cy="201.46" r="2.5" fill="#2563eb"/>
  <circle cx="248.38" cy="300.01" r="2.5" fill="#2563eb"/>
  <circle cx="249.67" cy="200.83" r="2.5" fill="#2563eb"/>
  <circle cx="250.97" cy="250.03" r="2.5" fill="#2563eb"/>
  <circle cx="252.26" cy="249.99" r="2.5" fill="#2563eb"/>
  <circle cx="253.55" cy="300.26" r="2.5" fill="#2563eb"/>
  <circle cx="254.84" cy="300.01" r="2.5" fill="#2563eb"/>
  <circle cx="256.14" cy="300.01" r="2.5" fill="#2563eb"/>
  <circle cx="257.43" cy="250.03" r="2.5" fill="#2563eb"/>
  <circle cx="258.72" cy="250.03" r="2.5" fill="#2563eb"/>
  <circle cx="260.01" cy="250.03" r="2.5" fill="#2563eb"/>
  <circle cx="261.31" cy="250.03" r="2.5" fill="#2563eb"/>
  <circle cx="262.60" cy="249.99" r="2.5" fill="#2563eb"/>
  <circle cx="263.89" cy="250.03" r="2.5" fill="#2563eb"/>
  <circle cx="265.18" cy="200.00" r="2.5" fill="#2563eb"/>
  <circle cx="266.48" cy="300.26" r="2.5" fill="#2563eb"/>
  <circle cx="267.77" cy="249.99" r="2.5" fill="#2563eb"/>
  <circle cx="269.06" cy="300.01" r="2.5" fill="#2563eb"/>
  <circle cx="270.36" cy="249.94" r="2.5" fill="#2563eb"/>
  <circle cx="271.65" cy="250.03" r="2.5" fill="#2563eb"/>
  <circle cx="272.94" cy="250.03" r="2.5" fill="#2563eb"/>
  <circle cx="274.23" cy="250.03" r="2.5" fill="#2563eb"/>
  <circle cx="275.53" cy="200.04" r="2.5" fill="#2563eb"/>
  <circle cx="276.82" cy="300.01" r="2.5" fill="#2563eb"/>
  <circle cx="278.11" cy="249.90" r="2.5" fill="#2563eb"/>
  <circle cx="279.40" cy="300.01" r="2.5" fill="#2563eb"/>
  <circle cx="280.70" cy="300.01" r="2.5" fill="#2563eb"/>
  <circle cx="281.99" cy="300.06" r="2.5" fill="#2563eb"/>
  <circle cx="283.28" cy="300.01" r="2.5" fill="#2563eb"/>
  <circle cx="284.57" cy="300.01" r="2.5" fill="#2563eb"/>
  <circle cx="285.87" cy="243.95" r="2.5" fill="#2563eb"/>
  <circle cx="287.16" cy="249.94" r="2.5" fill="#2563eb"/>
  <circle cx="288.45" cy="299.97" r="2.5" fill="#2563eb"/>
  <circle cx="289.74" cy="300.01" r="2.5" fill="#2563eb"/>
  <circle cx="291.04" cy="300.01" r="2.5" fill="#2563eb"/>
  <circle cx="292.33" cy="250.03" r="2.5" fill="#2563eb"/>
  <circle cx="293.62" cy="300.01" r="2.5" fill="#2563eb"/>
  <circle cx="294.91" cy="300.01" r="2.5" fill="#2563eb"/>
  <circle cx="296.21" cy="299.97" r="2.5" fill="#2563eb"/>
  <circle cx="297.50" cy="249.99" r="2.5" fill="#2563eb"/>
  <circle cx="298.79" cy="300.01" r="2.5" fill="#2563eb"/>
  <circle cx="300.09" cy="299.93" r="2.5" fill="#2563eb"/>
  <circle cx="301.38" cy="300.01" r="2.5" fill="#2563eb"/>
  <circle cx="302.67" cy="299.93" r="2.5" fill="#2563eb"/>
  <circle cx="303.96" cy="300.01" r="2.5" fill="#2563eb"/>
  <circle cx="305.26" cy="300.01" r="2.5" fill="#2563eb"/>
  <circle cx="306.55" cy="299.89" r="2.5" fill="#2563eb"/>
  <circle cx="307.84" cy="299.97" r="2.5" fill="#2563eb"/>
  <circle cx="309.13" cy="250.03" r="2.5" fill="#2563eb"/>
  <circle cx="310.43" cy="299.93" r="2.5" fill="#2563eb"/>
  <circle cx="311.72" cy="299.89" r="2.5" fill="#2563eb"/>
  <circle cx="313.01" cy="299.97" r="2.5" fill="#2563eb"/>
  <circle cx="314.30" cy="249.94" r="2.5" fill="#2563eb"/>
  <circle cx="315.60" cy="300.01" r="2.5" fill="#2563eb"/>
  <circle cx="316.89" cy="300.01" r="2.5" fill="#2563eb"/>
  <circle cx="318.18" cy="299.97" r="2.5" fill="#2563eb"/>
  <circle cx="319.47" cy="249.99" r="2.5" fill="#2563eb"/>
  <circle cx="320.77" cy="299.97" r="2.5" fill="#2563eb"/>
  <circle cx="322.06" cy="299.97" r="2.5" fill="#2563eb"/>
  <circle cx="323.35" cy="300.06" r="2.5" fill="#2563eb"/>
  <circle cx="324.64" cy="300.06" r="2.5" fill="#2563eb"/>
  <circle cx="325.94" cy="299.93" r="2.5" fill="#2563eb"/>
  <circle cx="327.23" cy="300.01" r="2.5" fill="#2563eb"/>
  <circle cx="328.52" cy="300.01" r="2.5" fill="#2563eb"/>
  <circle cx="329.82" cy="299.93" r="2.5" fill="#2563eb"/>
  <circle cx="331.11" cy="300.01" r="2.5" fill="#2563eb"/>
  <circle cx="332.40" cy="300.01" r="2.5" fill="#2563eb"/>
  <circle cx="333.69" cy="299.97" r="2.5" fill="#2563eb"/>
  <circle cx="334.99" cy="300.01" r="2.5" fill="#2563eb"/>
  <circle cx="336.28" cy="300.01" r="2.5" fill="#2563eb"/>
  <circle cx="337.57" cy="300.01" r="2.5" fill="#2563eb"/>
  <circle cx="338.86" cy="300.01" r="2.5" fill="#2563eb"/>
  <circle cx="340.16" cy="249.86" r="2.5" fill="#2563eb"/>
  <circle cx="341.45" cy="300.01" r="2.5" fill="#2563eb"/>
  <circle cx="342.74" cy="300.10" r="2.5" fill="#2563eb"/>
  <circle cx="344.03" cy="299.93" r="2.5" fill="#2563eb"/>
  <circle cx="345.33" cy="300.01" r="2.5" fill="#2563eb"/>
  <circle cx="346.62" cy="299.93" r="2.5" fill="#2563eb"/>
  <circle cx="347.91" cy="300.01" r="2.5" fill="#2563eb"/>
  <circle cx="349.20" cy="300.01" r="2.5" fill="#2563eb"/>
  <circle cx="350.50" cy="300.01" r="2.5" fill="#2563eb"/>
  <circle cx="351.79" cy="300.01" r="2.5" fill="#2563eb"/>
  <circle cx="353.08" cy="300.01" r="2.5" fill="#2563eb"/>
  <circle cx="354.38" cy="299.97" r="2.5" fill="#2563eb"/>
  <circle cx="355.67" cy="300.01" r="2.5" fill="#2563eb"/>
  <circle cx="356.96" cy="300.01" r="2.5" fill="#2563eb"/>
  <circle cx="358.25" cy="300.01" r="2.5" fill="#2563eb"/>
  <circle cx="359.55" cy="300.01" r="2.5" fill="#2563eb"/>
  <circle cx="360.84" cy="250.03" r="2.5" fill="#2563eb"/>
  <circle cx="362.13" cy="300.01" r="2.5" fill="#2563eb"/>
  <circle cx="363.42" cy="300.01" r="2.5" fill="#2563eb"/>
  <circle cx="364.72" cy="299.97" r="2.5" fill="#2563eb"/>
  <circle cx="366.01" cy="300.01" r="2.5" fill="#2563eb"/>
  <circle cx="367.30" cy="300.01" r="2.5" fill="#2563eb"/>
  <circle cx="368.59" cy="299.97" r="2.5" fill="#2563eb"/>
  <circle cx="369.89" cy="299.97" r="2.5" fill="#2563eb"/>
  <circle cx="371.18" cy="300.01" r="2.5" fill="#2563eb"/>
  <circle cx="372.47" cy="299.97" r="2.5" fill="#2563eb"/>
  <circle cx="373.76" cy="300.01" r="2.5" fill="#2563eb"/>
  <circle cx="375.06" cy="299.93" r="2.5" fill="#2563eb"/>
  <circle cx="376.35" cy="300.01" r="2.5" fill="#2563eb"/>
  <circle cx="377.64" cy="250.03" r="2.5" fill="#2563eb"/>
  <circle cx="378.93" cy="300.01" r="2.5" fill="#2563eb"/>
  <circle cx="380.23" cy="300.01" r="2.5" fill="#2563eb"/>
  <circle cx="381.52" cy="300.01" r="2.5" fill="#2563eb"/>
  <circle cx="382.81" cy="300.01" r="2.5" fill="#2563eb"/>
  <circle cx="384.11" cy="300.01" r="2.5" fill="#2563eb"/>
  <circle cx="385.40" cy="299.89" r="2.5" fill="#2563eb"/>
  <circle cx="386.69" cy="300.01" r="2.5" fill="#2563eb"/>
  <circle cx="387.98" cy="300.01" r="2.5" fill="#2563eb"/>
  <circle cx="389.28" cy="250.07" r="2.5" fill="#2563eb"/>
  <circle cx="390.57" cy="300.01" r="2.5" fill="#2563eb"/>
  <circle cx="391.86" cy="299.93" r="2.5" fill="#2563eb"/>
  <circle cx="393.15" cy="300.01" r="2.5" fill="#2563eb"/>
  <circle cx="394.45" cy="299.97" r="2.5" fill="#2563eb"/>
  <circle cx="395.74" cy="299.97" r="2.5" fill="#2563eb"/>
  <circle cx="397.03" cy="299.97" r="2.5" fill="#2563eb"/>
  <circle cx="398.32" cy="250.03" r="2.5" fill="#2563eb"/>
  <circle cx="399.62" cy="300.01" r="2.5" fill="#2563eb"/>
  <circle cx="400.91" cy="300.01" r="2.5" fill="#2563eb"/>
  <circle cx="402.20" cy="300.01" r="2.5" fill="#2563eb"/>
  <circle cx="403.49" cy="300.01" r="2.5" fill="#2563eb"/>
  <circle cx="404.79" cy="299.97" r="2.5" fill="#2563eb"/>
  <circle cx="406.08" cy="300.01" r="2.5" fill="#2563eb"/>
  <circle cx="407.37" cy="299.97" r="2.5" fill="#2563eb"/>
  <circle cx="408.66" cy="300.01" r="2.5" fill="#2563eb"/>
  <circle cx="409.96" cy="299.97" r="2.5" fill="#2563eb"/>
  <circle cx="411.25" cy="249.90" r="2.5" fill="#2563eb"/>
  <circle cx="412.54" cy="300.01" r="2.5" fill="#2563eb"/>
  <circle cx="413.84" cy="300.01" r="2.5" fill="#2563eb"/>
  <circle cx="415.13" cy="299.89" r="2.5" fill="#2563eb"/>
  <circle cx="416.42" cy="299.97" r="2.5" fill="#2563eb"/>
  <circle cx="417.71" cy="299.97" r="2.5" fill="#2563eb"/>
  <circle cx="419.01" cy="249.99" r="2.5" fill="#2563eb"/>
  <circle cx="420.30" cy="299.97" r="2.5" fill="#2563eb"/>
  <circle cx="421.59" cy="299.89" r="2.5" fill="#2563eb"/>
  <circle cx="422.88" cy="300.01" r="2.5" fill="#2563eb"/>
  <circle cx="424.18" cy="299.97" r="2.5" fill="#2563eb"/>
  <circle cx="425.47" cy="299.97" r="2.5" fill="#2563eb"/>
  <circle cx="426.76" cy="300.01" r="2.5" fill="#2563eb"/>
  <circle cx="428.05" cy="299.97" r="2.5" fill="#2563eb"/>
  <circle cx="429.35" cy="249.99" r="2.5" fill="#2563eb"/>
  <circle cx="430.64" cy="299.97" r="2.5" fill="#2563eb"/>
  <circle cx="431.93" cy="299.97" r="2.5" fill="#2563eb"/>
  <circle cx="433.22" cy="300.06" r="2.5" fill="#2563eb"/>
  <circle cx="434.52" cy="300.06" r="2.5" fill="#2563eb"/>
  <circle cx="435.81" cy="249.94" r="2.5" fill="#2563eb"/>
  <circle cx="437.10" cy="300.01" r="2.5" fill="#2563eb"/>
  <circle cx="438.39" cy="299.93" r="2.5" fill="#2563eb"/>
  <circle cx="439.69" cy="300.01" r="2.5" fill="#2563eb"/>
  <circle cx="440.98" cy="300.01" r="2.5" fill="#2563eb"/>
  <circle cx="442.27" cy="249.99" r="2.5" fill="#2563eb"/>
  <circle cx="443.57" cy="300.01" r="2.5" fill="#2563eb"/>
  <circle cx="444.86" cy="300.01" r="2.5" fill="#2563eb"/>
  <circle cx="446.15" cy="300.01" r="2.5" fill="#2563eb"/>
  <circle cx="447.44" cy="299.93" r="2.5" fill="#2563eb"/>
  <circle cx="448.74" cy="299.93" r="2.5" fill="#2563eb"/>
  <circle cx="450.03" cy="300.01" r="2.5" fill="#2563eb"/>
  <circle cx="451.32" cy="300.01" r="2.5" fill="#2563eb"/>
  <circle cx="452.61" cy="249.94" r="2.5" fill="#2563eb"/>
  <circle cx="453.91" cy="299.97" r="2.5" fill="#2563eb"/>
  <circle cx="455.20" cy="299.97" r="2.5" fill="#2563eb"/>
  <circle cx="456.49" cy="300.01" r="2.5" fill="#2563eb"/>
  <circle cx="457.78" cy="300.01" r="2.5" fill="#2563eb"/>
  <circle cx="459.08" cy="300.01" r="2.5" fill="#2563eb"/>
  <circle cx="460.37" cy="249.99" r="2.5" fill="#2563eb"/>
  <circle cx="461.66" cy="300.01" r="2.5" fill="#2563eb"/>
  <circle cx="462.95" cy="300.01" r="2.5" fill="#2563eb"/>
  <circle cx="464.25" cy="300.01" r="2.5" fill="#2563eb"/>
  <circle cx="465.54" cy="250.03" r="2.5" fill="#2563eb"/>
  <circle cx="466.83" cy="300.01" r="2.5" fill="#2563eb"/>
  <circle cx="468.12" cy="300.01" r="2.5" fill="#2563eb"/>
  <circle cx="469.42" cy="300.01" r="2.5" fill="#2563eb"/>
  <circle cx="470.71" cy="299.97" r="2.5" fill="#2563eb"/>
  <circle cx="472.00" cy="300.01" r="2.5" fill="#2563eb"/>
  <circle cx="473.30" cy="300.01" r="2.5" fill="#2563eb"/>
  <circle cx="474.59" cy="299.97" r="2.5" fill="#2563eb"/>
  <circle cx="475.88" cy="299.97" r="2.5" fill="#2563eb"/>
  <circle cx="477.17" cy="300.01" r="2.5" fill="#2563eb"/>
  <circle cx="478.47" cy="300.01" r="2.5" fill="#2563eb"/>
  <circle cx="479.76" cy="299.97" r="2.5" fill="#2563eb"/>
  <circle cx="481.05" cy="299.93" r="2.5" fill="#2563eb"/>
  <circle cx="482.34" cy="300.01" r="2.5" fill="#2563eb"/>
  <circle cx="483.64" cy="300.06" r="2.5" fill="#2563eb"/>
  <circle cx="484.93" cy="299.97" r="2.5" fill="#2563eb"/>
  <circle cx="486.22" cy="300.01" r="2.5" fill="#2563eb"/>
  <circle cx="487.51" cy="250.03" r="2.5" fill="#2563eb"/>
  <circle cx="488.81" cy="250.03" r="2.5" fill="#2563eb"/>
  <circle cx="490.10" cy="299.93" r="2.5" fill="#2563eb"/>
  <circle cx="491.39" cy="299.97" r="2.5" fill="#2563eb"/>
  <circle cx="492.68" cy="300.01" r="2.5" fill="#2563eb"/>
  <circle cx="493.98" cy="300.01" r="2.5" fill="#2563eb"/>
  <circle cx="495.27" cy="300.06" r="2.5" fill="#2563eb"/>
  <circle cx="496.56" cy="300.01" r="2.5" fill="#2563eb"/>
  <circle cx="497.86" cy="299.93" r="2.5" fill="#2563eb"/>
  <circle cx="499.15" cy="300.01" r="2.5" fill="#2563eb"/>
  <circle cx="500.44" cy="300.01" r="2.5" fill="#2563eb"/>
  <circle cx="501.73" cy="299.97" r="2.5" fill="#2563eb"/>
  <circle cx="503.03" cy="299.97" r="2.5" fill="#2563eb"/>
  <circle cx="504.32" cy="300.01" r="2.5" fill="#2563eb"/>
  <circle cx="505.61" cy="250.03" r="2.5" fill="#2563eb"/>
  <circle cx="506.90" cy="300.01" r="2.5" fill="#2563eb"/>
  <circle cx="508.20" cy="300.01" r="2.5" fill="#2563eb"/>
  <circle cx="509.49" cy="300.01" r="2.5" fill="#2563eb"/>
  <circle cx="510.78" cy="299.97" r="2.5" fill="#2563eb"/>
  <circle cx="512.07" cy="300.01" r="2.5" fill="#2563eb"/>
  <circle cx="513.37" cy="299.97" r="2.5" fill="#2563eb"/>
  <circle cx="514.66" cy="300.01" r="2.5" fill="#2563eb"/>
  <circle cx="515.95" cy="299.97" r="2.5" fill="#2563eb"/>
  <circle cx="517.24" cy="299.97" r="2.5" fill="#2563eb"/>
  <circle cx="518.54" cy="299.93" r="2.5" fill="#2563eb"/>
  <circle cx="519.83" cy="300.01" r="2.5" fill="#2563eb"/>
  <circle cx="521.12" cy="300.01" r="2.5" fill="#2563eb"/>
  <circle cx="522.41" cy="299.89" r="2.5" fill="#2563eb"/>
  <circle cx="523.71" cy="299.97" r="2.5" fill="#2563eb"/>
  <circle cx="525.00" cy="299.97" r="2.5" fill="#2563eb"/>
  <circle cx="526.29" cy="300.06" r="2.5" fill="#2563eb"/>
  <circle cx="527.59" cy="249.90" r="2.5" fill="#2563eb"/>
  <circle cx="528.88" cy="299.89" r="2.5" fill="#2563eb"/>
  <circle cx="530.17" cy="300.01" r="2.5" fill="#2563eb"/>
  <circle cx="531.46" cy="299.97" r="2.5" fill="#2563eb"/>
  <circle cx="532.76" cy="299.97" r="2.5" fill="#2563eb"/>
  <circle cx="534.05" cy="299.97" r="2.5" fill="#2563eb"/>
  <circle cx="535.34" cy="300.01" r="2.5" fill="#2563eb"/>
  <circle cx="536.63" cy="300.01" r="2.5" fill="#2563eb"/>
  <circle cx="537.93" cy="299.97" r="2.5" fill="#2563eb"/>
  <circle cx="539.22" cy="299.97" r="2.5" fill="#2563eb"/>
  <circle cx="540.51" cy="299.97" r="2.5" fill="#2563eb"/>
  <circle cx="541.80" cy="250.03" r="2.5" fill="#2563eb"/>
  <circle cx="543.10" cy="299.93" r="2.5" fill="#2563eb"/>
  <circle cx="544.39" cy="300.01" r="2.5" fill="#2563eb"/>
  <circle cx="545.68" cy="300.01" r="2.5" fill="#2563eb"/>
  <circle cx="546.97" cy="299.93" r="2.5" fill="#2563eb"/>
  <circle cx="548.27" cy="300.01" r="2.5" fill="#2563eb"/>
  <circle cx="549.56" cy="300.01" r="2.5" fill="#2563eb"/>
  <circle cx="550.85" cy="299.97" r="2.5" fill="#2563eb"/>
  <circle cx="552.14" cy="300.01" r="2.5" fill="#2563eb"/>
  <circle cx="553.44" cy="300.01" r="2.5" fill="#2563eb"/>
  <circle cx="554.73" cy="300.06" r="2.5" fill="#2563eb"/>
  <circle cx="556.02" cy="300.01" r="2.5" fill="#2563eb"/>
  <circle cx="557.32" cy="299.97" r="2.5" fill="#2563eb"/>
  <circle cx="558.61" cy="299.89" r="2.5" fill="#2563eb"/>
  <circle cx="559.90" cy="300.01" r="2.5" fill="#2563eb"/>
  <circle cx="561.19" cy="300.01" r="2.5" fill="#2563eb"/>
  <circle cx="562.49" cy="249.94" r="2.5" fill="#2563eb"/>
  <circle cx="563.78" cy="249.94" r="2.5" fill="#2563eb"/>
  <circle cx="565.07" cy="300.01" r="2.5" fill="#2563eb"/>
  <circle cx="566.36" cy="300.01" r="2.5" fill="#2563eb"/>
  <circle cx="567.66" cy="300.01" r="2.5" fill="#2563eb"/>
  <circle cx="568.95" cy="300.01" r="2.5" fill="#2563eb"/>
  <circle cx="570.24" cy="299.97" r="2.5" fill="#2563eb"/>
  <circle cx="571.53" cy="250.03" r="2.5" fill="#2563eb"/>
  <circle cx="572.83" cy="300.01" r="2.5" fill="#2563eb"/>
  <circle cx="574.12" cy="300.01" r="2.5" fill="#2563eb"/>
  <circle cx="575.41" cy="300.01" r="2.5" fill="#2563eb"/>
  <circle cx="576.70" cy="300.01" r="2.5" fill="#2563eb"/>
  <circle cx="578.00" cy="250.03" r="2.5" fill="#2563eb"/>
  <circle cx="579.29" cy="249.99" r="2.5" fill="#2563eb"/>
  <circle cx="580.58" cy="300.01" r="2.5" fill="#2563eb"/>
  <circle cx="581.88" cy="299.97" r="2.5" fill="#2563eb"/>
  <circle cx="583.17" cy="300.01" r="2.5" fill="#2563eb"/>
  <circle cx="584.46" cy="299.97" r="2.5" fill="#2563eb"/>
  <circle cx="585.75" cy="300.01" r="2.5" fill="#2563eb"/>
  <circle cx="587.05" cy="299.97" r="2.5" fill="#2563eb"/>
  <circle cx="588.34" cy="299.97" r="2.5" fill="#2563eb"/>
  <circle cx="589.63" cy="299.97" r="2.5" fill="#2563eb"/>
  <circle cx="590.92" cy="300.06" r="2.5" fill="#2563eb"/>
  <circle cx="592.22" cy="249.99" r="2.5" fill="#2563eb"/>
  <circle cx="593.51" cy="300.01" r="2.5" fill="#2563eb"/>
  <circle cx="594.80" cy="250.03" r="2.5" fill="#2563eb"/>
  <circle cx="596.09" cy="249.94" r="2.5" fill="#2563eb"/>
  <circle cx="597.39" cy="249.99" r="2.5" fill="#2563eb"/>
  <circle cx="598.68" cy="300.01" r="2.5" fill="#2563eb"/>
  <circle cx="599.97" cy="300.06" r="2.5" fill="#2563eb"/>
  <circle cx="601.26" cy="300.01" r="2.5" fill="#2563eb"/>
  <circle cx="602.56" cy="299.97" r="2.5" fill="#2563eb"/>
  <circle cx="603.85" cy="299.97" r="2.5" fill="#2563eb"/>
  <circle cx="605.14" cy="300.01" r="2.5" fill="#2563eb"/>
  <circle cx="606.43" cy="299.93" r="2.5" fill="#2563eb"/>
  <circle cx="607.73" cy="299.89" r="2.5" fill="#2563eb"/>
  <circle cx="609.02" cy="299.89" r="2.5" fill="#2563eb"/>
  <circle cx="610.31" cy="299.89" r="2.5" fill="#2563eb"/>
  <circle cx="611.61" cy="299.89" r="2.5" fill="#2563eb"/>
  <circle cx="612.90" cy="299.85" r="2.5" fill="#2563eb"/>
  <circle cx="614.19" cy="299.85" r="2.5" fill="#2563eb"/>
  <circle cx="615.48" cy="299.89" r="2.5" fill="#2563eb"/>
  <circle cx="616.78" cy="299.81" r="2.5" fill="#2563eb"/>
  <circle cx="618.07" cy="299.81" r="2.5" fill="#2563eb"/>
  <circle cx="619.36" cy="299.81" r="2.5" fill="#2563eb"/>
  <circle cx="620.65" cy="299.76" r="2.5" fill="#2563eb"/>
  <circle cx="621.95" cy="299.76" r="2.5" fill="#2563eb"/>
  <circle cx="623.24" cy="299.76" r="2.5" fill="#2563eb"/>
  <circle cx="624.53" cy="299.72" r="2.5" fill="#2563eb"/>
  <circle cx="625.82" cy="299.68" r="2.5" fill="#2563eb"/>
  <circle cx="627.12" cy="299.60" r="2.5" fill="#2563eb"/>
  <circle cx="628.41" cy="299.60" r="2.5" fill="#2563eb"/>
  <circle cx="629.70" cy="299.60" r="2.5" fill="#2563eb"/>
  <circle cx="630.99" cy="299.56" r="2.5" fill="#2563eb"/>
  <circle cx="632.29" cy="299.47" r="2.5" fill="#2563eb"/>
  <circle cx="633.58" cy="299.43" r="2.5" fill="#2563eb"/>
  <circle cx="634.87" cy="299.43" r="2.5" fill="#2563eb"/>
  <circle cx="636.16" cy="299.39" r="2.5" fill="#2563eb"/>
  <circle cx="637.46" cy="299.47" r="2.5" fill="#2563eb"/>
  <circle cx="638.75" cy="259.82" r="2.5" fill="#2563eb"/>
  <circle cx="640.04" cy="338.96" r="2.5" fill="#2563eb"/>
  <circle cx="641.34" cy="299.31" r="2.5" fill="#2563eb"/>
  <circle cx="642.63" cy="299.31" r="2.5" fill="#2563eb"/>
  <circle cx="643.92" cy="299.26" r="2.5" fill="#2563eb"/>
  <circle cx="645.21" cy="299.68" r="2.5" fill="#2563eb"/>
  <circle cx="646.51" cy="299.68" r="2.5" fill="#2563eb"/>
  <circle cx="647.80" cy="299.68" r="2.5" fill="#2563eb"/>
  <circle cx="649.09" cy="299.64" r="2.5" fill="#2563eb"/>
  <circle cx="650.38" cy="299.14" r="2.5" fill="#2563eb"/>
  <circle cx="651.68" cy="299.14" r="2.5" fill="#2563eb"/>
  <circle cx="652.97" cy="299.10" r="2.5" fill="#2563eb"/>
  <circle cx="654.26" cy="299.10" r="2.5" fill="#2563eb"/>
  <circle cx="655.55" cy="299.10" r="2.5" fill="#2563eb"/>
  <circle cx="656.85" cy="248.07" r="2.5" fill="#2563eb"/>
  <circle cx="658.14" cy="299.06" r="2.5" fill="#2563eb"/>
  <circle cx="659.43" cy="299.06" r="2.5" fill="#2563eb"/>
  <circle cx="660.72" cy="299.06" r="2.5" fill="#2563eb"/>
  <circle cx="662.02" cy="299.06" r="2.5" fill="#2563eb"/>
  <circle cx="663.31" cy="299.06" r="2.5" fill="#2563eb"/>
  <circle cx="664.60" cy="298.97" r="2.5" fill="#2563eb"/>
  <circle cx="665.89" cy="298.97" r="2.5" fill="#2563eb"/>
  <circle cx="667.19" cy="298.93" r="2.5" fill="#2563eb"/>
  <circle cx="668.48" cy="298.97" r="2.5" fill="#2563eb"/>
  <circle cx="669.77" cy="298.93" r="2.5" fill="#2563eb"/>
  <circle cx="671.07" cy="298.89" r="2.5" fill="#2563eb"/>
  <circle cx="672.36" cy="298.89" r="2.5" fill="#2563eb"/>
  <circle cx="673.65" cy="298.89" r="2.5" fill="#2563eb"/>
  <circle cx="674.94" cy="298.89" r="2.5" fill="#2563eb"/>
  <circle cx="676.24" cy="247.78" r="2.5" fill="#2563eb"/>
  <circle cx="677.53" cy="298.89" r="2.5" fill="#2563eb"/>
  <circle cx="678.82" cy="298.89" r="2.5" fill="#2563eb"/>
  <circle cx="680.11" cy="298.85" r="2.5" fill="#2563eb"/>
  <circle cx="681.41" cy="298.85" r="2.5" fill="#2563eb"/>
  <circle cx="682.70" cy="298.81" r="2.5" fill="#2563eb"/>
  <circle cx="683.99" cy="298.81" r="2.5" fill="#2563eb"/>
  <circle cx="685.28" cy="298.81" r="2.5" fill="#2563eb"/>
  <circle cx="686.58" cy="298.81" r="2.5" fill="#2563eb"/>
  <circle cx="687.87" cy="298.81" r="2.5" fill="#2563eb"/>
  <circle cx="689.16" cy="298.81" r="2.5" fill="#2563eb"/>
  <circle cx="690.45" cy="298.81" r="2.5" fill="#2563eb"/>
  <circle cx="691.75" cy="298.81" r="2.5" fill="#2563eb"/>
  <circle cx="693.04" cy="298.81" r="2.5" fill="#2563eb"/>
  <circle cx="694.33" cy="298.72" r="2.5" fill="#2563eb"/>
  <circle cx="695.62" cy="247.45" r="2.5" fill="#2563eb"/>
  <circle cx="696.92" cy="247.45" r="2.5" fill="#2563eb"/>
  <circle cx="698.21" cy="298.72" r="2.5" fill="#2563eb"/>
  <circle cx="699.50" cy="298.72" r="2.5" fill="#2563eb"/>
  <circle cx="700.80" cy="298.72" r="2.5" fill="#2563eb"/>
  <circle cx="702.09" cy="298.72" r="2.5" fill="#2563eb"/>
  <circle cx="703.38" cy="298.72" r="2.5" fill="#2563eb"/>
  <circle cx="704.67" cy="298.72" r="2.5" fill="#2563eb"/>
  <circle cx="705.97" cy="247.36" r="2.5" fill="#2563eb"/>
  <circle cx="707.26" cy="298.68" r="2.5" fill="#2563eb"/>
  <circle cx="708.55" cy="247.36" r="2.5" fill="#2563eb"/>
  <circle cx="709.84" cy="247.36" r="2.5" fill="#2563eb"/>
  <circle cx="711.14" cy="247.36" r="2.5" fill="#2563eb"/>
  <circle cx="712.43" cy="298.68" r="2.5" fill="#2563eb"/>
  <circle cx="713.72" cy="298.68" r="2.5" fill="#2563eb"/>
  <circle cx="715.01" cy="298.68" r="2.5" fill="#2563eb"/>
  <circle cx="716.31" cy="298.68" r="2.5" fill="#2563eb"/>
  <circle cx="717.60" cy="298.68" r="2.5" fill="#2563eb"/>
  <circle cx="718.89" cy="341.67" r="2.5" fill="#2563eb"/>
  <circle cx="720.18" cy="307.01" r="2.5" fill="#2563eb"/>
  <circle cx="721.48" cy="298.68" r="2.5" fill="#2563eb"/>
  <circle cx="722.77" cy="298.68" r="2.5" fill="#2563eb"/>
  <circle cx="724.06" cy="298.68" r="2.5" fill="#2563eb"/>
  <circle cx="725.36" cy="247.36" r="2.5" fill="#2563eb"/>
  <circle cx="726.65" cy="298.64" r="2.5" fill="#2563eb"/>
  <circle cx="727.94" cy="247.36" r="2.5" fill="#2563eb"/>
  <circle cx="729.23" cy="247.28" r="2.5" fill="#2563eb"/>
  <circle cx="730.53" cy="247.20" r="2.5" fill="#2563eb"/>
  <circle cx="731.82" cy="298.60" r="2.5" fill="#2563eb"/>
  <circle cx="733.11" cy="298.60" r="2.5" fill="#2563eb"/>
  <circle cx="734.40" cy="247.03" r="2.5" fill="#2563eb"/>
  <circle cx="735.70" cy="298.51" r="2.5" fill="#2563eb"/>
  <circle cx="736.99" cy="298.51" r="2.5" fill="#2563eb"/>
  <circle cx="738.28" cy="298.51" r="2.5" fill="#2563eb"/>
  <circle cx="739.57" cy="298.51" r="2.5" fill="#2563eb"/>
  <circle cx="740.87" cy="298.51" r="2.5" fill="#2563eb"/>
  <circle cx="742.16" cy="298.51" r="2.5" fill="#2563eb"/>
  <circle cx="743.45" cy="298.51" r="2.5" fill="#2563eb"/>
  <circle cx="744.74" cy="298.51" r="2.5" fill="#2563eb"/>
  <circle cx="746.04" cy="298.51" r="2.5" fill="#2563eb"/>
  <circle cx="747.33" cy="298.51" r="2.5" fill="#2563eb"/>
  <circle cx="748.62" cy="298.51" r="2.5" fill="#2563eb"/>
  <circle cx="749.91" cy="298.51" r="2.5" fill="#2563eb"/>
  <circle cx="751.21" cy="298.51" r="2.5" fill="#2563eb"/>
  <circle cx="752.50" cy="298.51" r="2.5" fill="#2563eb"/>
  <circle cx="753.79" cy="298.51" r="2.5" fill="#2563eb"/>
  <circle cx="755.09" cy="298.51" r="2.5" fill="#2563eb"/>
  <circle cx="756.38" cy="298.51" r="2.5" fill="#2563eb"/>
  <circle cx="757.67" cy="298.51" r="2.5" fill="#2563eb"/>
  <circle cx="758.96" cy="298.51" r="2.5" fill="#2563eb"/>
  <circle cx="760.26" cy="298.51" r="2.5" fill="#2563eb"/>
  <circle cx="761.55" cy="298.51" r="2.5" fill="#2563eb"/>
  <circle cx="762.84" cy="298.51" r="2.5" fill="#2563eb"/>
  <circle cx="764.13" cy="298.51" r="2.5" fill="#2563eb"/>
  <circle cx="765.43" cy="298.51" r="2.5" fill="#2563eb"/>
  <circle cx="766.72" cy="298.51" r="2.5" fill="#2563eb"/>
  <circle cx="768.01" cy="298.51" r="2.5" fill="#2563eb"/>
  <circle cx="769.30" cy="298.47" r="2.5" fill="#2563eb"/>
  <circle cx="770.60" cy="298.51" r="2.5" fill="#2563eb"/>
  <circle cx="771.89" cy="298.51" r="2.5" fill="#2563eb"/>
  <circle cx="773.18" cy="298.47" r="2.5" fill="#2563eb"/>
  <circle cx="774.47" cy="298.51" r="2.5" fill="#2563eb"/>
  <circle cx="775.77" cy="298.47" r="2.5" fill="#2563eb"/>
  <circle cx="777.06" cy="298.51" r="2.5" fill="#2563eb"/>
  <circle cx="778.35" cy="298.43" r="2.5" fill="#2563eb"/>
  <circle cx="779.64" cy="298.56" r="2.5" fill="#2563eb"/>
  <circle cx="780.94" cy="298.43" r="2.5" fill="#2563eb"/>
  <circle cx="782.23" cy="298.43" r="2.5" fill="#2563eb"/>
  <circle cx="783.52" cy="298.43" r="2.5" fill="#2563eb"/>
  <circle cx="784.82" cy="298.43" r="2.5" fill="#2563eb"/>
  <circle cx="786.11" cy="298.43" r="2.5" fill="#2563eb"/>
  <circle cx="787.40" cy="298.43" r="2.5" fill="#2563eb"/>
  <circle cx="788.69" cy="298.43" r="2.5" fill="#2563eb"/>
  <circle cx="789.99" cy="298.43" r="2.5" fill="#2563eb"/>
  <circle cx="791.28" cy="298.43" r="2.5" fill="#2563eb"/>
  <circle cx="792.57" cy="298.43" r="2.5" fill="#2563eb"/>
  <circle cx="793.86" cy="298.43" r="2.5" fill="#2563eb"/>
  <circle cx="795.16" cy="298.43" r="2.5" fill="#2563eb"/>
  <circle cx="796.45" cy="298.43" r="2.5" fill="#2563eb"/>
  <circle cx="797.74" cy="298.43" r="2.5" fill="#2563eb"/>
  <circle cx="799.03" cy="298.43" r="2.5" fill="#2563eb"/>
  <circle cx="800.33" cy="298.43" r="2.5" fill="#2563eb"/>
  <circle cx="801.62" cy="298.43" r="2.5" fill="#2563eb"/>
  <circle cx="802.91" cy="298.43" r="2.5" fill="#2563eb"/>
  <circle cx="804.20" cy="298.43" r="2.5" fill="#2563eb"/>
  <circle cx="805.50" cy="298.43" r="2.5" fill="#2563eb"/>
  <circle cx="806.79" cy="298.43" r="2.5" fill="#2563eb"/>
  <circle cx="808.08" cy="298.43" r="2.5" fill="#2563eb"/>
  <circle cx="809.38" cy="298.43" r="2.5" fill="#2563eb"/>
  <circle cx="810.67" cy="298.43" r="2.5" fill="#2563eb"/>
  <circle cx="811.96" cy="298.43" r="2.5" fill="#2563eb"/>
  <circle cx="813.25" cy="298.43" r="2.5" fill="#2563eb"/>
  <circle cx="814.55" cy="298.43" r="2.5" fill="#2563eb"/>
  <circle cx="815.84" cy="298.43" r="2.5" fill="#2563eb"/>
  <circle cx="817.13" cy="298.43" r="2.5" fill="#2563eb"/>
  <circle cx="818.42" cy="298.43" r="2.5" fill="#2563eb"/>
  <circle cx="819.72" cy="298.43" r="2.5" fill="#2563eb"/>
  <circle cx="821.01" cy="298.43" r="2.5" fill="#2563eb"/>
  <circle cx="822.30" cy="298.43" r="2.5" fill="#2563eb"/>
  <circle cx="823.59" cy="298.43" r="2.5" fill="#2563eb"/>
  <circle cx="824.89" cy="298.39" r="2.5" fill="#2563eb"/>
  <circle cx="826.18" cy="298.39" r="2.5" fill="#2563eb"/>
  <circle cx="827.47" cy="298.43" r="2.5" fill="#2563eb"/>
  <circle cx="828.76" cy="298.43" r="2.5" fill="#2563eb"/>
  <circle cx="830.06" cy="298.39" r="2.5" fill="#2563eb"/>
  <circle cx="831.35" cy="298.39" r="2.5" fill="#2563eb"/>
  <circle cx="832.64" cy="298.39" r="2.5" fill="#2563eb"/>
  <circle cx="833.93" cy="298.43" r="2.5" fill="#2563eb"/>
  <circle cx="835.23" cy="298.43" r="2.5" fill="#2563eb"/>
  <circle cx="836.52" cy="298.43" r="2.5" fill="#2563eb"/>
  <circle cx="837.81" cy="246.82" r="2.5" fill="#2563eb"/>
  <circle cx="839.11" cy="298.43" r="2.5" fill="#2563eb"/>
  <circle cx="840.40" cy="246.78" r="2.5" fill="#2563eb"/>
  <circle cx="841.69" cy="246.78" r="2.5" fill="#2563eb"/>
  <circle cx="842.98" cy="246.78" r="2.5" fill="#2563eb"/>
  <circle cx="844.28" cy="246.70" r="2.5" fill="#2563eb"/>
  <circle cx="845.57" cy="246.78" r="2.5" fill="#2563eb"/>
  <circle cx="846.86" cy="298.39" r="2.5" fill="#2563eb"/>
  <circle cx="848.15" cy="298.39" r="2.5" fill="#2563eb"/>
  <circle cx="849.45" cy="298.39" r="2.5" fill="#2563eb"/>
  <circle cx="850.74" cy="298.39" r="2.5" fill="#2563eb"/>
  <circle cx="852.03" cy="298.39" r="2.5" fill="#2563eb"/>
  <circle cx="853.32" cy="246.78" r="2.5" fill="#2563eb"/>
  <circle cx="854.62" cy="298.39" r="2.5" fill="#2563eb"/>
  <circle cx="855.91" cy="298.39" r="2.5" fill="#2563eb"/>
  <circle cx="857.20" cy="298.39" r="2.5" fill="#2563eb"/>
  <circle cx="858.49" cy="298.39" r="2.5" fill="#2563eb"/>
  <circle cx="859.79" cy="298.39" r="2.5" fill="#2563eb"/>
  <circle cx="861.08" cy="246.78" r="2.5" fill="#2563eb"/>
  <circle cx="862.37" cy="246.78" r="2.5" fill="#2563eb"/>
  <circle cx="863.66" cy="298.39" r="2.5" fill="#2563eb"/>
  <circle cx="864.96" cy="298.39" r="2.5" fill="#2563eb"/>
  <circle cx="866.25" cy="298.39" r="2.5" fill="#2563eb"/>
  <circle cx="867.54" cy="298.39" r="2.5" fill="#2563eb"/>
  <circle cx="868.84" cy="298.39" r="2.5" fill="#2563eb"/>
  <circle cx="870.13" cy="298.39" r="2.5" fill="#2563eb"/>
  <circle cx="871.42" cy="298.39" r="2.5" fill="#2563eb"/>
  <circle cx="872.71" cy="298.39" r="2.5" fill="#2563eb"/>
  <circle cx="874.01" cy="298.39" r="2.5" fill="#2563eb"/>
  <circle cx="875.30" cy="298.39" r="2.5" fill="#2563eb"/>
  <circle cx="876.59" cy="298.39" r="2.5" fill="#2563eb"/>
  <circle cx="877.88" cy="298.39" r="2.5" fill="#2563eb"/>
  <circle cx="879.18" cy="298.39" r="2.5" fill="#2563eb"/>
  <circle cx="880.47" cy="298.39" r="2.5" fill="#2563eb"/>
  <circle cx="881.76" cy="298.35" r="2.5" fill="#2563eb"/>
  <circle cx="883.05" cy="298.39" r="2.5" fill="#2563eb"/>
  <circle cx="884.35" cy="298.39" r="2.5" fill="#2563eb"/>
  <circle cx="885.64" cy="298.35" r="2.5" fill="#2563eb"/>
  <circle cx="886.93" cy="298.35" r="2.5" fill="#2563eb"/>
  <circle cx="888.22" cy="298.35" r="2.5" fill="#2563eb"/>
  <circle cx="889.52" cy="298.35" r="2.5" fill="#2563eb"/>
  <circle cx="890.81" cy="298.35" r="2.5" fill="#2563eb"/>
  <circle cx="892.10" cy="298.35" r="2.5" fill="#2563eb"/>
  <circle cx="893.39" cy="298.35" r="2.5" fill="#2563eb"/>
  <circle cx="894.69" cy="298.35" r="2.5" fill="#2563eb"/>
  <circle cx="895.98" cy="298.35" r="2.5" fill="#2563eb"/>
  <circle cx="897.27" cy="298.35" r="2.5" fill="#2563eb"/>
  <circle cx="898.57" cy="298.35" r="2.5" fill="#2563eb"/>
  <circle cx="899.86" cy="298.35" r="2.5" fill="#2563eb"/>
  <circle cx="901.15" cy="298.35" r="2.5" fill="#2563eb"/>
  <circle cx="902.44" cy="298.35" r="2.5" fill="#2563eb"/>
  <circle cx="903.74" cy="298.35" r="2.5" fill="#2563eb"/>
  <circle cx="905.03" cy="298.35" r="2.5" fill="#2563eb"/>
  <circle cx="906.32" cy="298.35" r="2.5" fill="#2563eb"/>
  <circle cx="907.61" cy="298.35" r="2.5" fill="#2563eb"/>
  <circle cx="908.91" cy="298.35" r="2.5" fill="#2563eb"/>
  <circle cx="910.20" cy="298.35" r="2.5" fill="#2563eb"/>
  <circle cx="911.49" cy="298.35" r="2.5" fill="#2563eb"/>
  <circle cx="912.78" cy="298.35" r="2.5" fill="#2563eb"/>
  <circle cx="914.08" cy="298.35" r="2.5" fill="#2563eb"/>
  <circle cx="915.37" cy="298.35" r="2.5" fill="#2563eb"/>
  <circle cx="916.66" cy="298.35" r="2.5" fill="#2563eb"/>
  <circle cx="917.95" cy="298.35" r="2.5" fill="#2563eb"/>
  <circle cx="919.25" cy="298.35" r="2.5" fill="#2563eb"/>
  <circle cx="920.54" cy="298.35" r="2.5" fill="#2563eb"/>
  <circle cx="921.83" cy="298.35" r="2.5" fill="#2563eb"/>
  <circle cx="923.12" cy="298.35" r="2.5" fill="#2563eb"/>
  <circle cx="924.42" cy="298.35" r="2.5" fill="#2563eb"/>
  <circle cx="925.71" cy="298.35" r="2.5" fill="#2563eb"/>
  <circle cx="927.00" cy="298.35" r="2.5" fill="#2563eb"/>
  <circle cx="928.30" cy="298.35" r="2.5" fill="#2563eb"/>
  <circle cx="929.59" cy="298.35" r="2.5" fill="#2563eb"/>
  <circle cx="930.88" cy="298.35" r="2.5" fill="#2563eb"/>
  <circle cx="932.17" cy="298.35" r="2.5" fill="#2563eb"/>
  <circle cx="933.47" cy="298.35" r="2.5" fill="#2563eb"/>
  <circle cx="934.76" cy="298.35" r="2.5" fill="#2563eb"/>
  <circle cx="936.05" cy="298.35" r="2.5" fill="#2563eb"/>
  <circle cx="937.34" cy="298.35" r="2.5" fill="#2563eb"/>
  <circle cx="938.64" cy="298.35" r="2.5" fill="#2563eb"/>
  <circle cx="939.93" cy="298.35" r="2.5" fill="#2563eb"/>
  <circle cx="941.22" cy="298.35" r="2.5" fill="#2563eb"/>
  <circle cx="942.51" cy="298.35" r="2.5" fill="#2563eb"/>
  <circle cx="943.81" cy="298.35" r="2.5" fill="#2563eb"/>
  <circle cx="945.10" cy="298.35" r="2.5" fill="#2563eb"/>
  <circle cx="946.39" cy="298.35" r="2.5" fill="#2563eb"/>
  <circle cx="947.68" cy="298.35" r="2.5" fill="#2563eb"/>
  <circle cx="948.98" cy="298.35" r="2.5" fill="#2563eb"/>
  <circle cx="950.27" cy="298.35" r="2.5" fill="#2563eb"/>
  <circle cx="951.56" cy="298.35" r="2.5" fill="#2563eb"/>
  <circle cx="952.86" cy="298.39" r="2.5" fill="#2563eb"/>
  <circle cx="954.15" cy="298.39" r="2.5" fill="#2563eb"/>
  <circle cx="955.44" cy="298.39" r="2.5" fill="#2563eb"/>
  <circle cx="956.73" cy="246.78" r="2.5" fill="#2563eb"/>
  <circle cx="958.03" cy="298.39" r="2.5" fill="#2563eb"/>
  <circle cx="959.32" cy="298.39" r="2.5" fill="#2563eb"/>
  <circle cx="960.61" cy="298.39" r="2.5" fill="#2563eb"/>
  <circle cx="961.90" cy="298.39" r="2.5" fill="#2563eb"/>
  <circle cx="963.20" cy="298.39" r="2.5" fill="#2563eb"/>
  <circle cx="964.49" cy="298.39" r="2.5" fill="#2563eb"/>
  <circle cx="965.78" cy="298.39" r="2.5" fill="#2563eb"/>
  <circle cx="967.07" cy="246.78" r="2.5" fill="#2563eb"/>
  <circle cx="968.37" cy="298.39" r="2.5" fill="#2563eb"/>
  <circle cx="969.66" cy="298.39" r="2.5" fill="#2563eb"/>
  <circle cx="970.95" cy="298.39" r="2.5" fill="#2563eb"/>
  <circle cx="972.24" cy="298.39" r="2.5" fill="#2563eb"/>
  <circle cx="973.54" cy="298.39" r="2.5" fill="#2563eb"/>
  <circle cx="974.83" cy="298.39" r="2.5" fill="#2563eb"/>
  <circle cx="976.12" cy="298.39" r="2.5" fill="#2563eb"/>
  <circle cx="977.41" cy="246.78" r="2.5" fill="#2563eb"/>
  <circle cx="978.71" cy="298.39" r="2.5" fill="#2563eb"/>
  <circle cx="980.00" cy="298.39" r="2.5" fill="#2563eb"/>
</svg>
