<?xml version="1.0" encoding="UTF-8"?>
<svg xmlns="http://www.w3.org/2000/svg" width="1000" height="420" viewBox="0 0 1000 420">
  <rect width="100%" height="100%" fill="#ffffff"/>
  <text x="70" y="28" font-size="20" font-weight="600">수집 시점 기준 - 시간별 스냅샷</text>
  <text x="70" y="402" font-size="12" fill="#555">스냅샷 수</text>
  <line x1="70" y1="350.00" x2="980" y2="350.00" stroke="#e5e7eb" stroke-width="1"/>
  <text x="62" y="354.00" font-size="11" fill="#6b7280" text-anchor="end">0</text>
  <line x1="70" y1="290.00" x2="980" y2="290.00" stroke="#e5e7eb" stroke-width="1"/>
  <text x="62" y="294.00" font-size="11" fill="#6b7280" text-anchor="end">1,440</text>
  <line x1="70" y1="230.00" x2="980" y2="230.00" stroke="#e5e7eb" stroke-width="1"/>
  <text x="62" y="234.00" font-size="11" fill="#6b7280" text-anchor="end">2,880</text>
  <line x1="70" y1="170.00" x2="980" y2="170.00" stroke="#e5e7eb" stroke-width="1"/>
  <text x="62" y="174.00" font-size="11" fill="#6b7280" text-anchor="end">4,321</text>
  <line x1="70" y1="110.00" x2="980" y2="110.00" stroke="#e5e7eb" stroke-width="1"/>
  <text x="62" y="114.00" font-size="11" fill="#6b7280" text-anchor="end">5,761</text>
  <line x1="70" y1="50.00" x2="980" y2="50.00" stroke="#e5e7eb" stroke-width="1"/>
  <text x="62" y="54.00" font-size="11" fill="#6b7280" text-anchor="end">7,202</text>
  <line x1="70" y1="350" x2="980" y2="350" stroke="#111827" stroke-width="1.2"/>
  <line x1="70" y1="50" x2="70" y2="350" stroke="#111827" stroke-width="1.2"/>
  <line x1="70.00" y1="350" x2="70.00" y2="356" stroke="#9ca3af" stroke-width="1"/>
  <text x="70.00" y="372" font-size="10" fill="#6b7280" text-anchor="middle">2026-02-28 18</text>
  <line x1="145.12" y1="350" x2="145.12" y2="356" stroke="#9ca3af" stroke-width="1"/>
  <text x="145.12" y="372" font-size="10" fill="#6b7280" text-anchor="middle">2026-03-09 08</text>
  <line x1="220.25" y1="350" x2="220.25" y2="356" stroke="#9ca3af" stroke-width="1"/>
  <text x="220.25" y="372" font-size="10" fill="#6b7280" text-anchor="middle">2026-03-11 19</text>
  <line x1="295.37" y1="350" x2="295.37" y2="356" stroke="#9ca3af" stroke-width="1"/>
  <text x="295.37" y="372" font-size="10" fill="#6b7280" text-anchor="middle">2026-03-14 04</text>
  <line x1="370.50" y1="350" x2="370.50" y2="356" stroke="#9ca3af" stroke-width="1"/>
  <text x="370.50" y="372" font-size="10" fill="#6b7280" text-anchor="middle">2026-03-17 14</text>
  <line x1="445.62" y1="350" x2="445.62" y2="356" stroke="#9ca3af" stroke-width="1"/>
  <text x="445.62" y="372" font-size="10" fill="#6b7280" text-anchor="middle">2026-03-20 22</text>
  <line x1="520.75" y1="350" x2="520.75" y2="356" stroke="#9ca3af" stroke-width="1"/>
  <text x="520.75" y="372" font-size="10" fill="#6b7280" text-anchor="middle">2026-03-24 00</text>
  <line x1="595.87" y1="350" x2="595.87" y2="356" stroke="#9ca3af" stroke-width="1"/>
  <text x="595.87" y="372" font-size="10" fill="#6b7280" text-anchor="middle">2026-03-27 18</text>
  <line x1="671.00" y1="350" x2="671.00" y2="356" stroke="#9ca3af" stroke-width="1"/>
  <text x="671.00" y="372" font-size="10" fill="#6b7280" text-anchor="middle">2026-03-31 06</text>
  <line x1="746.12" y1="350" x2="746.12" y2="356" stroke="#9ca3af" stroke-width="1"/>
  <text x="746.12" y="372" font-size="10" fill="#6b7280" text-anchor="middle">2026-04-03 22</text>
  <line x1="821.25" y1="350" x2="821.25" y2="356" stroke="#9ca3af" stroke-width="1"/>
  <text x="821.25" y="372" font-size="10" fill="#6b7280" text-anchor="middle">2026-04-07 09</text>
  <line x1="896.37" y1="350" x2="896.37" y2="356" stroke="#9ca3af" stroke-width="1"/>
  <text x="896.37" y="372" font-size="10" fill="#6b7280" text-anchor="middle">2026-04-11 05</text>
  <line x1="971.50" y1="350" x2="971.50" y2="356" stroke="#9ca3af" stroke-width="1"/>
  <text x="971.50" y="372" font-size="10" fill="#6b7280" text-anchor="middle">2026-04-15 04</text>
  <line x1="980.00" y1="350" x2="980.00" y2="356" stroke="#9ca3af" stroke-width="1"/>
  <text x="980.00" y="372" font-size="10" fill="#6b7280" text-anchor="middle">2026-04-15 15</text>
  <polyline fill="none" stroke="#2563eb" stroke-width="2.5" points="70.00,50.00 71.42,50.12 72.83,50.17 74.25,50.46 75.67,50.00 77.09,266.90 78.50,50.12 79.92,50.08 81.34,177.46 82.76,211.58 84.17,175.34 85.59,304.14 87.01,200.46 88.43,250.94 89.84,300.01 91.26,300.06 92.68,300.01 94.10,300.01 95.51,348.00 96.93,300.01 98.35,249.99 99.77,200.00 101.18,249.99 102.60,249.99 104.02,250.03 105.44,250.03 106.85,250.03 108.27,250.40 109.69,250.90 111.11,250.90 112.52,251.32 113.94,249.94 115.36,300.01 116.78,299.93 118.19,251.03 119.61,300.68 121.03,250.03 122.45,200.00 123.86,249.99 125.28,250.03 126.70,250.03 128.12,250.03 129.53,300.01 130.95,200.04 132.37,250.03 133.79,250.03 135.20,250.03 136.62,249.90 138.04,250.03 139.45,250.03 140.87,250.94 142.29,250.44 143.71,250.03 145.12,250.03 146.54,300.47 147.96,300.01 149.38,300.43 150.79,250.03 152.21,249.99 153.63,300.43 155.05,249.90 156.46,249.99 157.88,249.99 159.30,200.04 160.72,300.01 162.13,300.01 163.55,300.01 164.97,249.90 166.39,300.01 167.80,250.03 169.22,249.99 170.64,199.96 172.06,300.01 173.47,200.00 174.89,250.36 176.31,250.03 177.73,300.01 179.14,300.01 180.56,250.44 181.98,300.01 183.40,250.03 184.81,250.03 186.23,249.99 187.65,250.49 189.07,250.03 190.48,200.04 191.90,300.01 193.32,250.03 194.74,300.01 196.15,250.11 197.57,300.01 198.99,250.03 200.40,250.03 201.82,199.92 203.24,250.03 204.66,250.03 206.07,250.03 207.49,254.36 208.91,300.01 210.33,299.97 211.74,250.36 213.16,299.97 214.58,250.03 216.00,250.03 217.41,250.03 218.83,250.03 220.25,249.99 221.67,200.00 223.08,299.93 224.50,300.01 225.92,299.97 227.34,249.94 228.75,249.99 230.17,249.82 231.59,249.94 233.01,250.28 234.42,207.00 235.84,250.03 237.26,250.32 238.68,250.40 240.09,300.93 241.51,300.01 242.93,300.10 244.35,249.94 245.76,249.99 247.18,250.07 248.60,249.99 250.02,250.03 251.43,249.94 252.85,200.00 254.27,300.39 255.69,300.01 257.10,300.01 258.52,250.44 259.94,300.39 261.36,249.86 262.77,250.11 264.19,201.46 265.61,300.01 267.02,200.83 268.44,250.03 269.86,249.99 271.28,300.26 272.69,300.01 274.11,300.01 275.53,250.03 276.95,250.03 278.36,250.03 279.78,250.03 281.20,249.99 282.62,250.03 284.03,200.00 285.45,300.26 286.87,249.99 288.29,300.01 289.70,249.94 291.12,250.03 292.54,250.03 293.96,250.03 295.37,200.04 296.79,300.01 298.21,249.90 299.63,300.01 301.04,300.01 302.46,300.06 303.88,300.01 305.30,300.01 306.71,243.95 308.13,249.94 309.55,299.97 310.97,300.01 312.38,300.01 313.80,250.03 315.22,300.01 316.64,300.01 318.05,299.97 319.47,249.99 320.89,300.01 322.31,299.93 323.72,300.01 325.14,299.93 326.56,300.01 327.98,300.01 329.39,299.89 330.81,299.97 332.23,250.03 333.64,299.93 335.06,299.89 336.48,299.97 337.90,249.94 339.31,300.01 340.73,300.01 342.15,299.97 343.57,249.99 344.98,299.97 346.40,299.97 347.82,300.06 349.24,300.06 350.65,299.93 352.07,300.01 353.49,300.01 354.91,299.93 356.32,300.01 357.74,300.01 359.16,299.97 360.58,300.01 361.99,300.01 363.41,300.01 364.83,300.01 366.25,249.86 367.66,300.01 369.08,300.10 370.50,299.93 371.92,300.01 373.33,299.93 374.75,300.01 376.17,300.01 377.59,300.01 379.00,300.01 380.42,300.01 381.84,299.97 383.26,300.01 384.67,300.01 386.09,300.01 387.51,300.01 388.93,250.03 390.34,300.01 391.76,300.01 393.18,299.97 394.60,300.01 396.01,300.01 397.43,299.97 398.85,299.97 400.26,300.01 401.68,299.97 403.10,300.01 404.52,299.93 405.93,300.01 407.35,250.03 408.77,300.01 410.19,300.01 411.60,300.01 413.02,300.01 414.44,300.01 415.86,299.89 417.27,300.01 418.69,300.01 420.11,250.07 421.53,300.01 422.94,299.93 424.36,300.01 425.78,299.97 427.20,299.97 428.61,299.97 430.03,250.03 431.45,300.01 432.87,300.01 434.28,300.01 435.70,300.01 437.12,299.97 438.54,300.01 439.95,299.97 441.37,300.01 442.79,299.97 444.21,249.90 445.62,300.01 447.04,300.01 448.46,299.89 449.88,299.97 451.29,299.97 452.71,249.99 454.13,299.97 455.55,299.89 456.96,300.01 458.38,299.97 459.80,299.97 461.21,300.01 462.63,299.97 464.05,249.99 465.47,299.97 466.88,299.97 468.30,300.06 469.72,300.06 471.14,249.94 472.55,300.01 473.97,299.93 475.39,300.01 476.81,300.01 478.22,249.99 479.64,300.01 481.06,300.01 482.48,300.01 483.89,299.93 485.31,299.93 486.73,300.01 488.15,300.01 489.56,249.94 490.98,299.97 492.40,299.97 493.82,300.01 495.23,300.01 496.65,300.01 498.07,249.99 499.49,300.01 500.90,300.01 502.32,300.01 503.74,250.03 505.16,300.01 506.57,300.01 507.99,300.01 509.41,299.97 510.83,300.01 512.24,300.01 513.66,299.97 515.08,299.97 516.50,300.01 517.91,300.01 519.33,299.97 520.75,299.93 522.17,300.01 523.58,300.06 525.00,299.97 526.42,300.01 527.83,250.03 529.25,250.03 530.67,299.93 532.09,299.97 533.50,300.01 534.92,300.01 536.34,300.06 537.76,300.01 539.17,299.93 540.59,300.01 542.01,300.01 543.43,299.97 544.84,299.97 546.26,300.01 547.68,250.03 549.10,300.01 550.51,300.01 551.93,300.01 553.35,299.97 554.77,300.01 556.18,299.97 557.60,300.01 559.02,299.97 560.44,299.97 561.85,299.93 563.27,300.01 564.69,300.01 566.11,299.89 567.52,299.97 568.94,299.97 570.36,300.06 571.78,249.90 573.19,299.89 574.61,300.01 576.03,299.97 577.45,299.97 578.86,299.97 580.28,300.01 581.70,300.01 583.12,299.97 584.53,299.97 585.95,299.97 587.37,250.03 588.79,299.93 590.20,300.01 591.62,300.01 593.04,299.93 594.45,300.01 595.87,300.01 597.29,299.97 598.71,300.01 600.12,300.01 601.54,300.06 602.96,300.01 604.38,299.97 605.79,299.89 607.21,300.01 608.63,300.01 610.05,249.94 611.46,249.94 612.88,300.01 614.30,300.01 615.72,300.01 617.13,300.01 618.55,299.97 619.97,250.03 621.39,300.01 622.80,300.01 624.22,300.01 625.64,300.01 627.06,250.03 628.47,249.99 629.89,300.01 631.31,299.97 632.73,300.01 634.14,299.97 635.56,300.01 636.98,299.97 638.40,299.97 639.81,299.97 641.23,300.06 642.65,249.99 644.07,300.01 645.48,250.03 646.90,249.94 648.32,249.99 649.74,300.01 651.15,300.06 652.57,300.01 653.99,299.97 655.40,299.97 656.82,300.01 658.24,299.93 659.66,299.89 661.07,299.89 662.49,299.89 663.91,299.89 665.33,299.85 666.74,299.85 668.16,299.89 669.58,299.81 671.00,299.81 672.41,299.81 673.83,299.76 675.25,299.76 676.67,299.76 678.08,299.72 679.50,299.68 680.92,299.60 682.34,299.60 683.75,299.60 685.17,299.56 686.59,299.47 688.01,299.43 689.42,299.43 690.84,299.39 692.26,299.47 693.68,259.82 695.09,338.96 696.51,299.31 697.93,299.31 699.35,299.26 700.76,299.68 702.18,299.68 703.60,299.68 705.02,299.64 706.43,299.14 707.85,299.14 709.27,299.10 710.69,299.10 712.10,299.10 713.52,248.07 714.94,299.06 716.36,299.06 717.77,299.06 719.19,299.06 720.61,299.06 722.02,298.97 723.44,298.97 724.86,298.93 726.28,298.97 727.69,298.93 729.11,298.89 730.53,298.89 731.95,298.89 733.36,298.89 734.78,247.78 736.20,298.89 737.62,298.89 739.03,298.85 740.45,298.85 741.87,298.81 743.29,298.81 744.70,298.81 746.12,298.81 747.54,298.81 748.96,298.81 750.37,298.81 751.79,298.81 753.21,298.81 754.63,298.72 756.04,247.45 757.46,247.45 758.88,298.72 760.30,298.72 761.71,298.72 763.13,298.72 764.55,298.72 765.97,298.72 767.38,247.36 768.80,298.68 770.22,247.36 771.64,247.36 773.05,247.36 774.47,298.68 775.89,298.68 777.31,298.68 778.72,298.68 780.14,298.68 781.56,341.67 782.98,307.01 784.39,298.68 785.81,298.68 787.23,298.68 788.64,247.36 790.06,298.64 791.48,247.36 792.90,247.28 794.31,247.20 795.73,298.60 797.15,298.60 798.57,247.03 799.98,298.51 801.40,298.51 802.82,298.51 804.24,298.51 805.65,298.51 807.07,298.51 808.49,298.51 809.91,298.51 811.32,298.51 812.74,298.51 814.16,298.51 815.58,298.51 816.99,298.51 818.41,298.51 819.83,298.51 821.25,298.51 822.66,298.51 824.08,298.51 825.50,298.51 826.92,298.51 828.33,298.51 829.75,298.51 831.17,298.51 832.59,298.51 834.00,298.51 835.42,298.51 836.84,298.47 838.26,298.51 839.67,298.51 841.09,298.47 842.51,298.51 843.93,298.47 845.34,298.51 846.76,298.43 848.18,298.56 849.60,298.43 851.01,298.43 852.43,298.43 853.85,298.43 855.26,298.43 856.68,298.43 858.10,298.43 859.52,298.43 860.93,298.43 862.35,298.43 863.77,298.43 865.19,298.43 866.60,298.43 868.02,298.43 869.44,298.43 870.86,298.43 872.27,298.43 873.69,298.43 875.11,298.43 876.53,298.43 877.94,298.43 879.36,298.43 880.78,298.43 882.20,298.43 883.61,298.43 885.03,298.43 886.45,298.43 887.87,298.43 889.28,298.43 890.70,298.43 892.12,298.43 893.54,298.43 894.95,298.43 896.37,298.43 897.79,298.39 899.21,298.39 900.62,298.43 902.04,298.43 903.46,298.39 904.88,298.39 906.29,298.39 907.71,298.43 909.13,298.43 910.55,298.43 911.96,246.82 913.38,298.43 914.80,246.78 916.21,246.78 917.63,246.78 919.05,246.70 920.47,246.78 921.88,298.39 923.30,298.39 924.72,298.39 926.14,298.39 927.55,298.39 928.97,246.78 930.39,298.39 931.81,298.39 933.22,298.39 934.64,298.39 936.06,298.39 937.48,246.78 938.89,246.78 940.31,298.39 941.73,298.39 943.15,298.39 944.56,298.39 945.98,298.39 947.40,298.39 948.82,298.39 950.23,298.39 951.65,298.39 953.07,298.39 954.49,298.39 955.90,298.39 957.32,298.39 958.74,298.39 960.16,298.35 961.57,298.39 962.99,298.39 964.41,298.35 965.83,298.35 967.24,298.35 968.66,298.35 970.08,298.35 971.50,298.35 972.91,298.35 974.33,298.35 975.75,298.35 977.17,298.35 978.58,298.35 980.00,298.35"/>
  <circle cx="70.00" cy="50.00" r="2.5" fill="#2563eb"/>
  <circle cx="71.42" cy="50.12" r="2.5" fill="#2563eb"/>
  <circle cx="72.83" cy="50.17" r="2.5" fill="#2563eb"/>
  <circle cx="74.25" cy="50.46" r="2.5" fill="#2563eb"/>
  <circle cx="75.67" cy="50.00" r="2.5" fill="#2563eb"/>
  <circle cx="77.09" cy="266.90" r="2.5" fill="#2563eb"/>
  <circle cx="78.50" cy="50.12" r="2.5" fill="#2563eb"/>
  <circle cx="79.92" cy="50.08" r="2.5" fill="#2563eb"/>
  <circle cx="81.34" cy="177.46" r="2.5" fill="#2563eb"/>
  <circle cx="82.76" cy="211.58" r="2.5" fill="#2563eb"/>
  <circle cx="84.17" cy="175.34" r="2.5" fill="#2563eb"/>
  <circle cx="85.59" cy="304.14" r="2.5" fill="#2563eb"/>
  <circle cx="87.01" cy="200.46" r="2.5" fill="#2563eb"/>
  <circle cx="88.43" cy="250.94" r="2.5" fill="#2563eb"/>
  <circle cx="89.84" cy="300.01" r="2.5" fill="#2563eb"/>
  <circle cx="91.26" cy="300.06" r="2.5" fill="#2563eb"/>
  <circle cx="92.68" cy="300.01" r="2.5" fill="#2563eb"/>
  <circle cx="94.10" cy="300.01" r="2.5" fill="#2563eb"/>
  <circle cx="95.51" cy="348.00" r="2.5" fill="#2563eb"/>
  <circle cx="96.93" cy="300.01" r="2.5" fill="#2563eb"/>
  <circle cx="98.35" cy="249.99" r="2.5" fill="#2563eb"/>
  <circle cx="99.77" cy="200.00" r="2.5" fill="#2563eb"/>
  <circle cx="101.18" cy="249.99" r="2.5" fill="#2563eb"/>
  <circle cx="102.60" cy="249.99" r="2.5" fill="#2563eb"/>
  <circle cx="104.02" cy="250.03" r="2.5" fill="#2563eb"/>
  <circle cx="105.44" cy="250.03" r="2.5" fill="#2563eb"/>
  <circle cx="106.85" cy="250.03" r="2.5" fill="#2563eb"/>
  <circle cx="108.27" cy="250.40" r="2.5" fill="#2563eb"/>
  <circle cx="109.69" cy="250.90" r="2.5" fill="#2563eb"/>
  <circle cx="111.11" cy="250.90" r="2.5" fill="#2563eb"/>
  <circle cx="112.52" cy="251.32" r="2.5" fill="#2563eb"/>
  <circle cx="113.94" cy="249.94" r="2.5" fill="#2563eb"/>
  <circle cx="115.36" cy="300.01" r="2.5" fill="#2563eb"/>
  <circle cx="116.78" cy="299.93" r="2.5" fill="#2563eb"/>
  <circle cx="118.19" cy="251.03" r="2.5" fill="#2563eb"/>
  <circle cx="119.61" cy="300.68" r="2.5" fill="#2563eb"/>
  <circle cx="121.03" cy="250.03" r="2.5" fill="#2563eb"/>
  <circle cx="122.45" cy="200.00" r="2.5" fill="#2563eb"/>
  <circle cx="123.86" cy="249.99" r="2.5" fill="#2563eb"/>
  <circle cx="125.28" cy="250.03" r="2.5" fill="#2563eb"/>
  <circle cx="126.70" cy="250.03" r="2.5" fill="#2563eb"/>
  <circle cx="128.12" cy="250.03" r="2.5" fill="#2563eb"/>
  <circle cx="129.53" cy="300.01" r="2.5" fill="#2563eb"/>
  <circle cx="130.95" cy="200.04" r="2.5" fill="#2563eb"/>
  <circle cx="132.37" cy="250.03" r="2.5" fill="#2563eb"/>
  <circle cx="133.79" cy="250.03" r="2.5" fill="#2563eb"/>
  <circle cx="135.20" cy="250.03" r="2.5" fill="#2563eb"/>
  <circle cx="136.62" cy="249.90" r="2.5" fill="#2563eb"/>
  <circle cx="138.04" cy="250.03" r="2.5" fill="#2563eb"/>
  <circle cx="139.45" cy="250.03" r="2.5" fill="#2563eb"/>
  <circle cx="140.87" cy="250.94" r="2.5" fill="#2563eb"/>
  <circle cx="142.29" cy="250.44" r="2.5" fill="#2563eb"/>
  <circle cx="143.71" cy="250.03" r="2.5" fill="#2563eb"/>
  <circle cx="145.12" cy="250.03" r="2.5" fill="#2563eb"/>
  <circle cx="146.54" cy="300.47" r="2.5" fill="#2563eb"/>
  <circle cx="147.96" cy="300.01" r="2.5" fill="#2563eb"/>
  <circle cx="149.38" cy="300.43" r="2.5" fill="#2563eb"/>
  <circle cx="150.79" cy="250.03" r="2.5" fill="#2563eb"/>
  <circle cx="152.21" cy="249.99" r="2.5" fill="#2563eb"/>
  <circle cx="153.63" cy="300.43" r="2.5" fill="#2563eb"/>
  <circle cx="155.05" cy="249.90" r="2.5" fill="#2563eb"/>
  <circle cx="156.46" cy="249.99" r="2.5" fill="#2563eb"/>
  <circle cx="157.88" cy="249.99" r="2.5" fill="#2563eb"/>
  <circle cx="159.30" cy="200.04" r="2.5" fill="#2563eb"/>
  <circle cx="160.72" cy="300.01" r="2.5" fill="#2563eb"/>
  <circle cx="162.13" cy="300.01" r="2.5" fill="#2563eb"/>
  <circle cx="163.55" cy="300.01" r="2.5" fill="#2563eb"/>
  <circle cx="164.97" cy="249.90" r="2.5" fill="#2563eb"/>
  <circle cx="166.39" cy="300.01" r="2.5" fill="#2563eb"/>
  <circle cx="167.80" cy="250.03" r="2.5" fill="#2563eb"/>
  <circle cx="169.22" cy="249.99" r="2.5" fill="#2563eb"/>
  <circle cx="170.64" cy="199.96" r="2.5" fill="#2563eb"/>
  <circle cx="172.06" cy="300.01" r="2.5" fill="#2563eb"/>
  <circle cx="173.47" cy="200.00" r="2.5" fill="#2563eb"/>
  <circle cx="174.89" cy="250.36" r="2.5" fill="#2563eb"/>
  <circle cx="176.31" cy="250.03" r="2.5" fill="#2563eb"/>
  <circle cx="177.73" cy="300.01" r="2.5" fill="#2563eb"/>
  <circle cx="179.14" cy="300.01" r="2.5" fill="#2563eb"/>
  <circle cx="180.56" cy="250.44" r="2.5" fill="#2563eb"/>
  <circle cx="181.98" cy="300.01" r="2.5" fill="#2563eb"/>
  <circle cx="183.40" cy="250.03" r="2.5" fill="#2563eb"/>
  <circle cx="184.81" cy="250.03" r="2.5" fill="#2563eb"/>
  <circle cx="186.23" cy="249.99" r="2.5" fill="#2563eb"/>
  <circle cx="187.65" cy="250.49" r="2.5" fill="#2563eb"/>
  <circle cx="189.07" cy="250.03" r="2.5" fill="#2563eb"/>
  <circle cx="190.48" cy="200.04" r="2.5" fill="#2563eb"/>
  <circle cx="191.90" cy="300.01" r="2.5" fill="#2563eb"/>
  <circle cx="193.32" cy="250.03" r="2.5" fill="#2563eb"/>
  <circle cx="194.74" cy="300.01" r="2.5" fill="#2563eb"/>
  <circle cx="196.15" cy="250.11" r="2.5" fill="#2563eb"/>
  <circle cx="197.57" cy="300.01" r="2.5" fill="#2563eb"/>
  <circle cx="198.99" cy="250.03" r="2.5" fill="#2563eb"/>
  <circle cx="200.40" cy="250.03" r="2.5" fill="#2563eb"/>
  <circle cx="201.82" cy="199.92" r="2.5" fill="#2563eb"/>
  <circle cx="203.24" cy="250.03" r="2.5" fill="#2563eb"/>
  <circle cx="204.66" cy="250.03" r="2.5" fill="#2563eb"/>
  <circle cx="206.07" cy="250.03" r="2.5" fill="#2563eb"/>
  <circle cx="207.49" cy="254.36" r="2.5" fill="#2563eb"/>
  <circle cx="208.91" cy="300.01" r="2.5" fill="#2563eb"/>
  <circle cx="210.33" cy="299.97" r="2.5" fill="#2563eb"/>
  <circle cx="211.74" cy="250.36" r="2.5" fill="#2563eb"/>
  <circle cx="213.16" cy="299.97" r="2.5" fill="#2563eb"/>
  <circle cx="214.58" cy="250.03" r="2.5" fill="#2563eb"/>
  <circle cx="216.00" cy="250.03" r="2.5" fill="#2563eb"/>
  <circle cx="217.41" cy="250.03" r="2.5" fill="#2563eb"/>
  <circle cx="218.83" cy="250.03" r="2.5" fill="#2563eb"/>
  <circle cx="220.25" cy="249.99" r="2.5" fill="#2563eb"/>
  <circle cx="221.67" cy="200.00" r="2.5" fill="#2563eb"/>
  <circle cx="223.08" cy="299.93" r="2.5" fill="#2563eb"/>
  <circle cx="224.50" cy="300.01" r="2.5" fill="#2563eb"/>
  <circle cx="225.92" cy="299.97" r="2.5" fill="#2563eb"/>
  <circle cx="227.34" cy="249.94" r="2.5" fill="#2563eb"/>
  <circle cx="228.75" cy="249.99" r="2.5" fill="#2563eb"/>
  <circle cx="230.17" cy="249.82" r="2.5" fill="#2563eb"/>
  <circle cx="231.59" cy="249.94" r="2.5" fill="#2563eb"/>
  <circle cx="233.01" cy="250.28" r="2.5" fill="#2563eb"/>
  <circle cx="234.42" cy="207.00" r="2.5" fill="#2563eb"/>
  <circle cx="235.84" cy="250.03" r="2.5" fill="#2563eb"/>
  <circle cx="237.26" cy="250.32" r="2.5" fill="#2563eb"/>
  <circle cx="238.68" cy="250.40" r="2.5" fill="#2563eb"/>
  <circle cx="240.09" cy="300.93" r="2.5" fill="#2563eb"/>
  <circle cx="241.51" cy="300.01" r="2.5" fill="#2563eb"/>
  <circle cx="242.93" cy="300.10" r="2.5" fill="#2563eb"/>
  <circle cx="244.35" cy="249.94" r="2.5" fill="#2563eb"/>
  <circle cx="245.76" cy="249.99" r="2.5" fill="#2563eb"/>
  <circle cx="247.18" cy="250.07" r="2.5" fill="#2563eb"/>
  <circle cx="248.60" cy="249.99" r="2.5" fill="#2563eb"/>
  <circle cx="250.02" cy="250.03" r="2.5" fill="#2563eb"/>
  <circle cx="251.43" cy="249.94" r="2.5" fill="#2563eb"/>
  <circle cx="252.85" cy="200.00" r="2.5" fill="#2563eb"/>
  <circle cx="254.27" cy="300.39" r="2.5" fill="#2563eb"/>
  <circle cx="255.69" cy="300.01" r="2.5" fill="#2563eb"/>
  <circle cx="257.10" cy="300.01" r="2.5" fill="#2563eb"/>
  <circle cx="258.52" cy="250.44" r="2.5" fill="#2563eb"/>
  <circle cx="259.94" cy="300.39" r="2.5" fill="#2563eb"/>
  <circle cx="261.36" cy="249.86" r="2.5" fill="#2563eb"/>
  <circle cx="262.77" cy="250.11" r="2.5" fill="#2563eb"/>
  <circle cx="264.19" cy="201.46" r="2.5" fill="#2563eb"/>
  <circle cx="265.61" cy="300.01" r="2.5" fill="#2563eb"/>
  <circle cx="267.02" cy="200.83" r="2.5" fill="#2563eb"/>
  <circle cx="268.44" cy="250.03" r="2.5" fill="#2563eb"/>
  <circle cx="269.86" cy="249.99" r="2.5" fill="#2563eb"/>
  <circle cx="271.28" cy="300.26" r="2.5" fill="#2563eb"/>
  <circle cx="272.69" cy="300.01" r="2.5" fill="#2563eb"/>
  <circle cx="274.11" cy="300.01" r="2.5" fill="#2563eb"/>
  <circle cx="275.53" cy="250.03" r="2.5" fill="#2563eb"/>
  <circle cx="276.95" cy="250.03" r="2.5" fill="#2563eb"/>
  <circle cx="278.36" cy="250.03" r="2.5" fill="#2563eb"/>
  <circle cx="279.78" cy="250.03" r="2.5" fill="#2563eb"/>
  <circle cx="281.20" cy="249.99" r="2.5" fill="#2563eb"/>
  <circle cx="282.62" cy="250.03" r="2.5" fill="#2563eb"/>
  <circle cx="284.03" cy="200.00" r="2.5" fill="#2563eb"/>
  <circle cx="285.45" cy="300.26" r="2.5" fill="#2563eb"/>
  <circle cx="286.87" cy="249.99" r="2.5" fill="#2563eb"/>
  <circle cx="288.29" cy="300.01" r="2.5" fill="#2563eb"/>
  <circle cx="289.70" cy="249.94" r="2.5" fill="#2563eb"/>
  <circle cx="291.12" cy="250.03" r="2.5" fill="#2563eb"/>
  <circle cx="292.54" cy="250.03" r="2.5" fill="#2563eb"/>
  <circle cx="293.96" cy="250.03" r="2.5" fill="#2563eb"/>
  <circle cx="295.37" cy="200.04" r="2.5" fill="#2563eb"/>
  <circle cx="296.79" cy="300.01" r="2.5" fill="#2563eb"/>
  <circle cx="298.21" cy="249.90" r="2.5" fill="#2563eb"/>
  <circle cx="299.63" cy="300.01" r="2.5" fill="#2563eb"/>
  <circle cx="301.04" cy="300.01" r="2.5" fill="#2563eb"/>
  <circle cx="302.46" cy="300.06" r="2.5" fill="#2563eb"/>
  <circle cx="303.88" cy="300.01" r="2.5" fill="#2563eb"/>
  <circle cx="305.30" cy="300.01" r="2.5" fill="#2563eb"/>
  <circle cx="306.71" cy="243.95" r="2.5" fill="#2563eb"/>
  <circle cx="308.13" cy="249.94" r="2.5" fill="#2563eb"/>
  <circle cx="309.55" cy="299.97" r="2.5" fill="#2563eb"/>
  <circle cx="310.97" cy="300.01" r="2.5" fill="#2563eb"/>
  <circle cx="312.38" cy="300.01" r="2.5" fill="#2563eb"/>
  <circle cx="313.80" cy="250.03" r="2.5" fill="#2563eb"/>
  <circle cx="315.22" cy="300.01" r="2.5" fill="#2563eb"/>
  <circle cx="316.64" cy="300.01" r="2.5" fill="#2563eb"/>
  <circle cx="318.05" cy="299.97" r="2.5" fill="#2563eb"/>
  <circle cx="319.47" cy="249.99" r="2.5" fill="#2563eb"/>
  <circle cx="320.89" cy="300.01" r="2.5" fill="#2563eb"/>
  <circle cx="322.31" cy="299.93" r="2.5" fill="#2563eb"/>
  <circle cx="323.72" cy="300.01" r="2.5" fill="#2563eb"/>
  <circle cx="325.14" cy="299.93" r="2.5" fill="#2563eb"/>
  <circle cx="326.56" cy="300.01" r="2.5" fill="#2563eb"/>
  <circle cx="327.98" cy="300.01" r="2.5" fill="#2563eb"/>
  <circle cx="329.39" cy="299.89" r="2.5" fill="#2563eb"/>
  <circle cx="330.81" cy="299.97" r="2.5" fill="#2563eb"/>
  <circle cx="332.23" cy="250.03" r="2.5" fill="#2563eb"/>
  <circle cx="333.64" cy="299.93" r="2.5" fill="#2563eb"/>
  <circle cx="335.06" cy="299.89" r="2.5" fill="#2563eb"/>
  <circle cx="336.48" cy="299.97" r="2.5" fill="#2563eb"/>
  <circle cx="337.90" cy="249.94" r="2.5" fill="#2563eb"/>
  <circle cx="339.31" cy="300.01" r="2.5" fill="#2563eb"/>
  <circle cx="340.73" cy="300.01" r="2.5" fill="#2563eb"/>
  <circle cx="342.15" cy="299.97" r="2.5" fill="#2563eb"/>
  <circle cx="343.57" cy="249.99" r="2.5" fill="#2563eb"/>
  <circle cx="344.98" cy="299.97" r="2.5" fill="#2563eb"/>
  <circle cx="346.40" cy="299.97" r="2.5" fill="#2563eb"/>
  <circle cx="347.82" cy="300.06" r="2.5" fill="#2563eb"/>
  <circle cx="349.24" cy="300.06" r="2.5" fill="#2563eb"/>
  <circle cx="350.65" cy="299.93" r="2.5" fill="#2563eb"/>
  <circle cx="352.07" cy="300.01" r="2.5" fill="#2563eb"/>
  <circle cx="353.49" cy="300.01" r="2.5" fill="#2563eb"/>
  <circle cx="354.91" cy="299.93" r="2.5" fill="#2563eb"/>
  <circle cx="356.32" cy="300.01" r="2.5" fill="#2563eb"/>
  <circle cx="357.74" cy="300.01" r="2.5" fill="#2563eb"/>
  <circle cx="359.16" cy="299.97" r="2.5" fill="#2563eb"/>
  <circle cx="360.58" cy="300.01" r="2.5" fill="#2563eb"/>
  <circle cx="361.99" cy="300.01" r="2.5" fill="#2563eb"/>
  <circle cx="363.41" cy="300.01" r="2.5" fill="#2563eb"/>
  <circle cx="364.83" cy="300.01" r="2.5" fill="#2563eb"/>
  <circle cx="366.25" cy="249.86" r="2.5" fill="#2563eb"/>
  <circle cx="367.66" cy="300.01" r="2.5" fill="#2563eb"/>
  <circle cx="369.08" cy="300.10" r="2.5" fill="#2563eb"/>
  <circle cx="370.50" cy="299.93" r="2.5" fill="#2563eb"/>
  <circle cx="371.92" cy="300.01" r="2.5" fill="#2563eb"/>
  <circle cx="373.33" cy="299.93" r="2.5" fill="#2563eb"/>
  <circle cx="374.75" cy="300.01" r="2.5" fill="#2563eb"/>
  <circle cx="376.17" cy="300.01" r="2.5" fill="#2563eb"/>
  <circle cx="377.59" cy="300.01" r="2.5" fill="#2563eb"/>
  <circle cx="379.00" cy="300.01" r="2.5" fill="#2563eb"/>
  <circle cx="380.42" cy="300.01" r="2.5" fill="#2563eb"/>
  <circle cx="381.84" cy="299.97" r="2.5" fill="#2563eb"/>
  <circle cx="383.26" cy="300.01" r="2.5" fill="#2563eb"/>
  <circle cx="384.67" cy="300.01" r="2.5" fill="#2563eb"/>
  <circle cx="386.09" cy="300.01" r="2.5" fill="#2563eb"/>
  <circle cx="387.51" cy="300.01" r="2.5" fill="#2563eb"/>
  <circle cx="388.93" cy="250.03" r="2.5" fill="#2563eb"/>
  <circle cx="390.34" cy="300.01" r="2.5" fill="#2563eb"/>
  <circle cx="391.76" cy="300.01" r="2.5" fill="#2563eb"/>
  <circle cx="393.18" cy="299.97" r="2.5" fill="#2563eb"/>
  <circle cx="394.60" cy="300.01" r="2.5" fill="#2563eb"/>
  <circle cx="396.01" cy="300.01" r="2.5" fill="#2563eb"/>
  <circle cx="397.43" cy="299.97" r="2.5" fill="#2563eb"/>
  <circle cx="398.85" cy="299.97" r="2.5" fill="#2563eb"/>
  <circle cx="400.26" cy="300.01" r="2.5" fill="#2563eb"/>
  <circle cx="401.68" cy="299.97" r="2.5" fill="#2563eb"/>
  <circle cx="403.10" cy="300.01" r="2.5" fill="#2563eb"/>
  <circle cx="404.52" cy="299.93" r="2.5" fill="#2563eb"/>
  <circle cx="405.93" cy="300.01" r="2.5" fill="#2563eb"/>
  <circle cx="407.35" cy="250.03" r="2.5" fill="#2563eb"/>
  <circle cx="408.77" cy="300.01" r="2.5" fill="#2563eb"/>
  <circle cx="410.19" cy="300.01" r="2.5" fill="#2563eb"/>
  <circle cx="411.60" cy="300.01" r="2.5" fill="#2563eb"/>
  <circle cx="413.02" cy="300.01" r="2.5" fill="#2563eb"/>
  <circle cx="414.44" cy="300.01" r="2.5" fill="#2563eb"/>
  <circle cx="415.86" cy="299.89" r="2.5" fill="#2563eb"/>
  <circle cx="417.27" cy="300.01" r="2.5" fill="#2563eb"/>
  <circle cx="418.69" cy="300.01" r="2.5" fill="#2563eb"/>
  <circle cx="420.11" cy="250.07" r="2.5" fill="#2563eb"/>
  <circle cx="421.53" cy="300.01" r="2.5" fill="#2563eb"/>
  <circle cx="422.94" cy="299.93" r="2.5" fill="#2563eb"/>
  <circle cx="424.36" cy="300.01" r="2.5" fill="#2563eb"/>
  <circle cx="425.78" cy="299.97" r="2.5" fill="#2563eb"/>
  <circle cx="427.20" cy="299.97" r="2.5" fill="#2563eb"/>
  <circle cx="428.61" cy="299.97" r="2.5" fill="#2563eb"/>
  <circle cx="430.03" cy="250.03" r="2.5" fill="#2563eb"/>
  <circle cx="431.45" cy="300.01" r="2.5" fill="#2563eb"/>
  <circle cx="432.87" cy="300.01" r="2.5" fill="#2563eb"/>
  <circle cx="434.28" cy="300.01" r="2.5" fill="#2563eb"/>
  <circle cx="435.70" cy="300.01" r="2.5" fill="#2563eb"/>
  <circle cx="437.12" cy="299.97" r="2.5" fill="#2563eb"/>
  <circle cx="438.54" cy="300.01" r="2.5" fill="#2563eb"/>
  <circle cx="439.95" cy="299.97" r="2.5" fill="#2563eb"/>
  <circle cx="441.37" cy="300.01" r="2.5" fill="#2563eb"/>
  <circle cx="442.79" cy="299.97" r="2.5" fill="#2563eb"/>
  <circle cx="444.21" cy="249.90" r="2.5" fill="#2563eb"/>
  <circle cx="445.62" cy="300.01" r="2.5" fill="#2563eb"/>
  <circle cx="447.04" cy="300.01" r="2.5" fill="#2563eb"/>
  <circle cx="448.46" cy="299.89" r="2.5" fill="#2563eb"/>
  <circle cx="449.88" cy="299.97" r="2.5" fill="#2563eb"/>
  <circle cx="451.29" cy="299.97" r="2.5" fill="#2563eb"/>
  <circle cx="452.71" cy="249.99" r="2.5" fill="#2563eb"/>
  <circle cx="454.13" cy="299.97" r="2.5" fill="#2563eb"/>
  <circle cx="455.55" cy="299.89" r="2.5" fill="#2563eb"/>
  <circle cx="456.96" cy="300.01" r="2.5" fill="#2563eb"/>
  <circle cx="458.38" cy="299.97" r="2.5" fill="#2563eb"/>
  <circle cx="459.80" cy="299.97" r="2.5" fill="#2563eb"/>
  <circle cx="461.21" cy="300.01" r="2.5" fill="#2563eb"/>
  <circle cx="462.63" cy="299.97" r="2.5" fill="#2563eb"/>
  <circle cx="464.05" cy="249.99" r="2.5" fill="#2563eb"/>
  <circle cx="465.47" cy="299.97" r="2.5" fill="#2563eb"/>
  <circle cx="466.88" cy="299.97" r="2.5" fill="#2563eb"/>
  <circle cx="468.30" cy="300.06" r="2.5" fill="#2563eb"/>
  <circle cx="469.72" cy="300.06" r="2.5" fill="#2563eb"/>
  <circle cx="471.14" cy="249.94" r="2.5" fill="#2563eb"/>
  <circle cx="472.55" cy="300.01" r="2.5" fill="#2563eb"/>
  <circle cx="473.97" cy="299.93" r="2.5" fill="#2563eb"/>
  <circle cx="475.39" cy="300.01" r="2.5" fill="#2563eb"/>
  <circle cx="476.81" cy="300.01" r="2.5" fill="#2563eb"/>
  <circle cx="478.22" cy="249.99" r="2.5" fill="#2563eb"/>
  <circle cx="479.64" cy="300.01" r="2.5" fill="#2563eb"/>
  <circle cx="481.06" cy="300.01" r="2.5" fill="#2563eb"/>
  <circle cx="482.48" cy="300.01" r="2.5" fill="#2563eb"/>
  <circle cx="483.89" cy="299.93" r="2.5" fill="#2563eb"/>
  <circle cx="485.31" cy="299.93" r="2.5" fill="#2563eb"/>
  <circle cx="486.73" cy="300.01" r="2.5" fill="#2563eb"/>
  <circle cx="488.15" cy="300.01" r="2.5" fill="#2563eb"/>
  <circle cx="489.56" cy="249.94" r="2.5" fill="#2563eb"/>
  <circle cx="490.98" cy="299.97" r="2.5" fill="#2563eb"/>
  <circle cx="492.40" cy="299.97" r="2.5" fill="#2563eb"/>
  <circle cx="493.82" cy="300.01" r="2.5" fill="#2563eb"/>
  <circle cx="495.23" cy="300.01" r="2.5" fill="#2563eb"/>
  <circle cx="496.65" cy="300.01" r="2.5" fill="#2563eb"/>
  <circle cx="498.07" cy="249.99" r="2.5" fill="#2563eb"/>
  <circle cx="499.49" cy="300.01" r="2.5" fill="#2563eb"/>
  <circle cx="500.90" cy="300.01" r="2.5" fill="#2563eb"/>
  <circle cx="502.32" cy="300.01" r="2.5" fill="#2563eb"/>
  <circle cx="503.74" cy="250.03" r="2.5" fill="#2563eb"/>
  <circle cx="505.16" cy="300.01" r="2.5" fill="#2563eb"/>
  <circle cx="506.57" cy="300.01" r="2.5" fill="#2563eb"/>
  <circle cx="507.99" cy="300.01" r="2.5" fill="#2563eb"/>
  <circle cx="509.41" cy="299.97" r="2.5" fill="#2563eb"/>
  <circle cx="510.83" cy="300.01" r="2.5" fill="#2563eb"/>
  <circle cx="512.24" cy="300.01" r="2.5" fill="#2563eb"/>
  <circle cx="513.66" cy="299.97" r="2.5" fill="#2563eb"/>
  <circle cx="515.08" cy="299.97" r="2.5" fill="#2563eb"/>
  <circle cx="516.50" cy="300.01" r="2.5" fill="#2563eb"/>
  <circle cx="517.91" cy="300.01" r="2.5" fill="#2563eb"/>
  <circle cx="519.33" cy="299.97" r="2.5" fill="#2563eb"/>
  <circle cx="520.75" cy="299.93" r="2.5" fill="#2563eb"/>
  <circle cx="522.17" cy="300.01" r="2.5" fill="#2563eb"/>
  <circle cx="523.58" cy="300.06" r="2.5" fill="#2563eb"/>
  <circle cx="525.00" cy="299.97" r="2.5" fill="#2563eb"/>
  <circle cx="526.42" cy="300.01" r="2.5" fill="#2563eb"/>
  <circle cx="527.83" cy="250.03" r="2.5" fill="#2563eb"/>
  <circle cx="529.25" cy="250.03" r="2.5" fill="#2563eb"/>
  <circle cx="530.67" cy="299.93" r="2.5" fill="#2563eb"/>
  <circle cx="532.09" cy="299.97" r="2.5" fill="#2563eb"/>
  <circle cx="533.50" cy="300.01" r="2.5" fill="#2563eb"/>
  <circle cx="534.92" cy="300.01" r="2.5" fill="#2563eb"/>
  <circle cx="536.34" cy="300.06" r="2.5" fill="#2563eb"/>
  <circle cx="537.76" cy="300.01" r="2.5" fill="#2563eb"/>
  <circle cx="539.17" cy="299.93" r="2.5" fill="#2563eb"/>
  <circle cx="540.59" cy="300.01" r="2.5" fill="#2563eb"/>
  <circle cx="542.01" cy="300.01" r="2.5" fill="#2563eb"/>
  <circle cx="543.43" cy="299.97" r="2.5" fill="#2563eb"/>
  <circle cx="544.84" cy="299.97" r="2.5" fill="#2563eb"/>
  <circle cx="546.26" cy="300.01" r="2.5" fill="#2563eb"/>
  <circle cx="547.68" cy="250.03" r="2.5" fill="#2563eb"/>
  <circle cx="549.10" cy="300.01" r="2.5" fill="#2563eb"/>
  <circle cx="550.51" cy="300.01" r="2.5" fill="#2563eb"/>
  <circle cx="551.93" cy="300.01" r="2.5" fill="#2563eb"/>
  <circle cx="553.35" cy="299.97" r="2.5" fill="#2563eb"/>
  <circle cx="554.77" cy="300.01" r="2.5" fill="#2563eb"/>
  <circle cx="556.18" cy="299.97" r="2.5" fill="#2563eb"/>
  <circle cx="557.60" cy="300.01" r="2.5" fill="#2563eb"/>
  <circle cx="559.02" cy="299.97" r="2.5" fill="#2563eb"/>
  <circle cx="560.44" cy="299.97" r="2.5" fill="#2563eb"/>
  <circle cx="561.85" cy="299.93" r="2.5" fill="#2563eb"/>
  <circle cx="563.27" cy="300.01" r="2.5" fill="#2563eb"/>
  <circle cx="564.69" cy="300.01" r="2.5" fill="#2563eb"/>
  <circle cx="566.11" cy="299.89" r="2.5" fill="#2563eb"/>
  <circle cx="567.52" cy="299.97" r="2.5" fill="#2563eb"/>
  <circle cx="568.94" cy="299.97" r="2.5" fill="#2563eb"/>
  <circle cx="570.36" cy="300.06" r="2.5" fill="#2563eb"/>
  <circle cx="571.78" cy="249.90" r="2.5" fill="#2563eb"/>
  <circle cx="573.19" cy="299.89" r="2.5" fill="#2563eb"/>
  <circle cx="574.61" cy="300.01" r="2.5" fill="#2563eb"/>
  <circle cx="576.03" cy="299.97" r="2.5" fill="#2563eb"/>
  <circle cx="577.45" cy="299.97" r="2.5" fill="#2563eb"/>
  <circle cx="578.86" cy="299.97" r="2.5" fill="#2563eb"/>
  <circle cx="580.28" cy="300.01" r="2.5" fill="#2563eb"/>
  <circle cx="581.70" cy="300.01" r="2.5" fill="#2563eb"/>
  <circle cx="583.12" cy="299.97" r="2.5" fill="#2563eb"/>
  <circle cx="584.53" cy="299.97" r="2.5" fill="#2563eb"/>
  <circle cx="585.95" cy="299.97" r="2.5" fill="#2563eb"/>
  <circle cx="587.37" cy="250.03" r="2.5" fill="#2563eb"/>
  <circle cx="588.79" cy="299.93" r="2.5" fill="#2563eb"/>
  <circle cx="590.20" cy="300.01" r="2.5" fill="#2563eb"/>
  <circle cx="591.62" cy="300.01" r="2.5" fill="#2563eb"/>
  <circle cx="593.04" cy="299.93" r="2.5" fill="#2563eb"/>
  <circle cx="594.45" cy="300.01" r="2.5" fill="#2563eb"/>
  <circle cx="595.87" cy="300.01" r="2.5" fill="#2563eb"/>
  <circle cx="597.29" cy="299.97" r="2.5" fill="#2563eb"/>
  <circle cx="598.71" cy="300.01" r="2.5" fill="#2563eb"/>
  <circle cx="600.12" cy="300.01" r="2.5" fill="#2563eb"/>
  <circle cx="601.54" cy="300.06" r="2.5" fill="#2563eb"/>
  <circle cx="602.96" cy="300.01" r="2.5" fill="#2563eb"/>
  <circle cx="604.38" cy="299.97" r="2.5" fill="#2563eb"/>
  <circle cx="605.79" cy="299.89" r="2.5" fill="#2563eb"/>
  <circle cx="607.21" cy="300.01" r="2.5" fill="#2563eb"/>
  <circle cx="608.63" cy="300.01" r="2.5" fill="#2563eb"/>
  <circle cx="610.05" cy="249.94" r="2.5" fill="#2563eb"/>
  <circle cx="611.46" cy="249.94" r="2.5" fill="#2563eb"/>
  <circle cx="612.88" cy="300.01" r="2.5" fill="#2563eb"/>
  <circle cx="614.30" cy="300.01" r="2.5" fill="#2563eb"/>
  <circle cx="615.72" cy="300.01" r="2.5" fill="#2563eb"/>
  <circle cx="617.13" cy="300.01" r="2.5" fill="#2563eb"/>
  <circle cx="618.55" cy="299.97" r="2.5" fill="#2563eb"/>
  <circle cx="619.97" cy="250.03" r="2.5" fill="#2563eb"/>
  <circle cx="621.39" cy="300.01" r="2.5" fill="#2563eb"/>
  <circle cx="622.80" cy="300.01" r="2.5" fill="#2563eb"/>
  <circle cx="624.22" cy="300.01" r="2.5" fill="#2563eb"/>
  <circle cx="625.64" cy="300.01" r="2.5" fill="#2563eb"/>
  <circle cx="627.06" cy="250.03" r="2.5" fill="#2563eb"/>
  <circle cx="628.47" cy="249.99" r="2.5" fill="#2563eb"/>
  <circle cx="629.89" cy="300.01" r="2.5" fill="#2563eb"/>
  <circle cx="631.31" cy="299.97" r="2.5" fill="#2563eb"/>
  <circle cx="632.73" cy="300.01" r="2.5" fill="#2563eb"/>
  <circle cx="634.14" cy="299.97" r="2.5" fill="#2563eb"/>
  <circle cx="635.56" cy="300.01" r="2.5" fill="#2563eb"/>
  <circle cx="636.98" cy="299.97" r="2.5" fill="#2563eb"/>
  <circle cx="638.40" cy="299.97" r="2.5" fill="#2563eb"/>
  <circle cx="639.81" cy="299.97" r="2.5" fill="#2563eb"/>
  <circle cx="641.23" cy="300.06" r="2.5" fill="#2563eb"/>
  <circle cx="642.65" cy="249.99" r="2.5" fill="#2563eb"/>
  <circle cx="644.07" cy="300.01" r="2.5" fill="#2563eb"/>
  <circle cx="645.48" cy="250.03" r="2.5" fill="#2563eb"/>
  <circle cx="646.90" cy="249.94" r="2.5" fill="#2563eb"/>
  <circle cx="648.32" cy="249.99" r="2.5" fill="#2563eb"/>
  <circle cx="649.74" cy="300.01" r="2.5" fill="#2563eb"/>
  <circle cx="651.15" cy="300.06" r="2.5" fill="#2563eb"/>
  <circle cx="652.57" cy="300.01" r="2.5" fill="#2563eb"/>
  <circle cx="653.99" cy="299.97" r="2.5" fill="#2563eb"/>
  <circle cx="655.40" cy="299.97" r="2.5" fill="#2563eb"/>
  <circle cx="656.82" cy="300.01" r="2.5" fill="#2563eb"/>
  <circle cx="658.24" cy="299.93" r="2.5" fill="#2563eb"/>
  <circle cx="659.66" cy="299.89" r="2.5" fill="#2563eb"/>
  <circle cx="661.07" cy="299.89" r="2.5" fill="#2563eb"/>
  <circle cx="662.49" cy="299.89" r="2.5" fill="#2563eb"/>
  <circle cx="663.91" cy="299.89" r="2.5" fill="#2563eb"/>
  <circle cx="665.33" cy="299.85" r="2.5" fill="#2563eb"/>
  <circle cx="666.74" cy="299.85" r="2.5" fill="#2563eb"/>
  <circle cx="668.16" cy="299.89" r="2.5" fill="#2563eb"/>
  <circle cx="669.58" cy="299.81" r="2.5" fill="#2563eb"/>
  <circle cx="671.00" cy="299.81" r="2.5" fill="#2563eb"/>
  <circle cx="672.41" cy="299.81" r="2.5" fill="#2563eb"/>
  <circle cx="673.83" cy="299.76" r="2.5" fill="#2563eb"/>
  <circle cx="675.25" cy="299.76" r="2.5" fill="#2563eb"/>
  <circle cx="676.67" cy="299.76" r="2.5" fill="#2563eb"/>
  <circle cx="678.08" cy="299.72" r="2.5" fill="#2563eb"/>
  <circle cx="679.50" cy="299.68" r="2.5" fill="#2563eb"/>
  <circle cx="680.92" cy="299.60" r="2.5" fill="#2563eb"/>
  <circle cx="682.34" cy="299.60" r="2.5" fill="#2563eb"/>
  <circle cx="683.75" cy="299.60" r="2.5" fill="#2563eb"/>
  <circle cx="685.17" cy="299.56" r="2.5" fill="#2563eb"/>
  <circle cx="686.59" cy="299.47" r="2.5" fill="#2563eb"/>
  <circle cx="688.01" cy="299.43" r="2.5" fill="#2563eb"/>
  <circle cx="689.42" cy="299.43" r="2.5" fill="#2563eb"/>
  <circle cx="690.84" cy="299.39" r="2.5" fill="#2563eb"/>
  <circle cx="692.26" cy="299.47" r="2.5" fill="#2563eb"/>
  <circle cx="693.68" cy="259.82" r="2.5" fill="#2563eb"/>
  <circle cx="695.09" cy="338.96" r="2.5" fill="#2563eb"/>
  <circle cx="696.51" cy="299.31" r="2.5" fill="#2563eb"/>
  <circle cx="697.93" cy="299.31" r="2.5" fill="#2563eb"/>
  <circle cx="699.35" cy="299.26" r="2.5" fill="#2563eb"/>
  <circle cx="700.76" cy="299.68" r="2.5" fill="#2563eb"/>
  <circle cx="702.18" cy="299.68" r="2.5" fill="#2563eb"/>
  <circle cx="703.60" cy="299.68" r="2.5" fill="#2563eb"/>
  <circle cx="705.02" cy="299.64" r="2.5" fill="#2563eb"/>
  <circle cx="706.43" cy="299.14" r="2.5" fill="#2563eb"/>
  <circle cx="707.85" cy="299.14" r="2.5" fill="#2563eb"/>
  <circle cx="709.27" cy="299.10" r="2.5" fill="#2563eb"/>
  <circle cx="710.69" cy="299.10" r="2.5" fill="#2563eb"/>
  <circle cx="712.10" cy="299.10" r="2.5" fill="#2563eb"/>
  <circle cx="713.52" cy="248.07" r="2.5" fill="#2563eb"/>
  <circle cx="714.94" cy="299.06" r="2.5" fill="#2563eb"/>
  <circle cx="716.36" cy="299.06" r="2.5" fill="#2563eb"/>
  <circle cx="717.77" cy="299.06" r="2.5" fill="#2563eb"/>
  <circle cx="719.19" cy="299.06" r="2.5" fill="#2563eb"/>
  <circle cx="720.61" cy="299.06" r="2.5" fill="#2563eb"/>
  <circle cx="722.02" cy="298.97" r="2.5" fill="#2563eb"/>
  <circle cx="723.44" cy="298.97" r="2.5" fill="#2563eb"/>
  <circle cx="724.86" cy="298.93" r="2.5" fill="#2563eb"/>
  <circle cx="726.28" cy="298.97" r="2.5" fill="#2563eb"/>
  <circle cx="727.69" cy="298.93" r="2.5" fill="#2563eb"/>
  <circle cx="729.11" cy="298.89" r="2.5" fill="#2563eb"/>
  <circle cx="730.53" cy="298.89" r="2.5" fill="#2563eb"/>
  <circle cx="731.95" cy="298.89" r="2.5" fill="#2563eb"/>
  <circle cx="733.36" cy="298.89" r="2.5" fill="#2563eb"/>
  <circle cx="734.78" cy="247.78" r="2.5" fill="#2563eb"/>
  <circle cx="736.20" cy="298.89" r="2.5" fill="#2563eb"/>
  <circle cx="737.62" cy="298.89" r="2.5" fill="#2563eb"/>
  <circle cx="739.03" cy="298.85" r="2.5" fill="#2563eb"/>
  <circle cx="740.45" cy="298.85" r="2.5" fill="#2563eb"/>
  <circle cx="741.87" cy="298.81" r="2.5" fill="#2563eb"/>
  <circle cx="743.29" cy="298.81" r="2.5" fill="#2563eb"/>
  <circle cx="744.70" cy="298.81" r="2.5" fill="#2563eb"/>
  <circle cx="746.12" cy="298.81" r="2.5" fill="#2563eb"/>
  <circle cx="747.54" cy="298.81" r="2.5" fill="#2563eb"/>
  <circle cx="748.96" cy="298.81" r="2.5" fill="#2563eb"/>
  <circle cx="750.37" cy="298.81" r="2.5" fill="#2563eb"/>
  <circle cx="751.79" cy="298.81" r="2.5" fill="#2563eb"/>
  <circle cx="753.21" cy="298.81" r="2.5" fill="#2563eb"/>
  <circle cx="754.63" cy="298.72" r="2.5" fill="#2563eb"/>
  <circle cx="756.04" cy="247.45" r="2.5" fill="#2563eb"/>
  <circle cx="757.46" cy="247.45" r="2.5" fill="#2563eb"/>
  <circle cx="758.88" cy="298.72" r="2.5" fill="#2563eb"/>
  <circle cx="760.30" cy="298.72" r="2.5" fill="#2563eb"/>
  <circle cx="761.71" cy="298.72" r="2.5" fill="#2563eb"/>
  <circle cx="763.13" cy="298.72" r="2.5" fill="#2563eb"/>
  <circle cx="764.55" cy="298.72" r="2.5" fill="#2563eb"/>
  <circle cx="765.97" cy="298.72" r="2.5" fill="#2563eb"/>
  <circle cx="767.38" cy="247.36" r="2.5" fill="#2563eb"/>
  <circle cx="768.80" cy="298.68" r="2.5" fill="#2563eb"/>
  <circle cx="770.22" cy="247.36" r="2.5" fill="#2563eb"/>
  <circle cx="771.64" cy="247.36" r="2.5" fill="#2563eb"/>
  <circle cx="773.05" cy="247.36" r="2.5" fill="#2563eb"/>
  <circle cx="774.47" cy="298.68" r="2.5" fill="#2563eb"/>
  <circle cx="775.89" cy="298.68" r="2.5" fill="#2563eb"/>
  <circle cx="777.31" cy="298.68" r="2.5" fill="#2563eb"/>
  <circle cx="778.72" cy="298.68" r="2.5" fill="#2563eb"/>
  <circle cx="780.14" cy="298.68" r="2.5" fill="#2563eb"/>
  <circle cx="781.56" cy="341.67" r="2.5" fill="#2563eb"/>
  <circle cx="782.98" cy="307.01" r="2.5" fill="#2563eb"/>
  <circle cx="784.39" cy="298.68" r="2.5" fill="#2563eb"/>
  <circle cx="785.81" cy="298.68" r="2.5" fill="#2563eb"/>
  <circle cx="787.23" cy="298.68" r="2.5" fill="#2563eb"/>
  <circle cx="788.64" cy="247.36" r="2.5" fill="#2563eb"/>
  <circle cx="790.06" cy="298.64" r="2.5" fill="#2563eb"/>
  <circle cx="791.48" cy="247.36" r="2.5" fill="#2563eb"/>
  <circle cx="792.90" cy="247.28" r="2.5" fill="#2563eb"/>
  <circle cx="794.31" cy="247.20" r="2.5" fill="#2563eb"/>
  <circle cx="795.73" cy="298.60" r="2.5" fill="#2563eb"/>
  <circle cx="797.15" cy="298.60" r="2.5" fill="#2563eb"/>
  <circle cx="798.57" cy="247.03" r="2.5" fill="#2563eb"/>
  <circle cx="799.98" cy="298.51" r="2.5" fill="#2563eb"/>
  <circle cx="801.40" cy="298.51" r="2.5" fill="#2563eb"/>
  <circle cx="802.82" cy="298.51" r="2.5" fill="#2563eb"/>
  <circle cx="804.24" cy="298.51" r="2.5" fill="#2563eb"/>
  <circle cx="805.65" cy="298.51" r="2.5" fill="#2563eb"/>
  <circle cx="807.07" cy="298.51" r="2.5" fill="#2563eb"/>
  <circle cx="808.49" cy="298.51" r="2.5" fill="#2563eb"/>
  <circle cx="809.91" cy="298.51" r="2.5" fill="#2563eb"/>
  <circle cx="811.32" cy="298.51" r="2.5" fill="#2563eb"/>
  <circle cx="812.74" cy="298.51" r="2.5" fill="#2563eb"/>
  <circle cx="814.16" cy="298.51" r="2.5" fill="#2563eb"/>
  <circle cx="815.58" cy="298.51" r="2.5" fill="#2563eb"/>
  <circle cx="816.99" cy="298.51" r="2.5" fill="#2563eb"/>
  <circle cx="818.41" cy="298.51" r="2.5" fill="#2563eb"/>
  <circle cx="819.83" cy="298.51" r="2.5" fill="#2563eb"/>
  <circle cx="821.25" cy="298.51" r="2.5" fill="#2563eb"/>
  <circle cx="822.66" cy="298.51" r="2.5" fill="#2563eb"/>
  <circle cx="824.08" cy="298.51" r="2.5" fill="#2563eb"/>
  <circle cx="825.50" cy="298.51" r="2.5" fill="#2563eb"/>
  <circle cx="826.92" cy="298.51" r="2.5" fill="#2563eb"/>
  <circle cx="828.33" cy="298.51" r="2.5" fill="#2563eb"/>
  <circle cx="829.75" cy="298.51" r="2.5" fill="#2563eb"/>
  <circle cx="831.17" cy="298.51" r="2.5" fill="#2563eb"/>
  <circle cx="832.59" cy="298.51" r="2.5" fill="#2563eb"/>
  <circle cx="834.00" cy="298.51" r="2.5" fill="#2563eb"/>
  <circle cx="835.42" cy="298.51" r="2.5" fill="#2563eb"/>
  <circle cx="836.84" cy="298.47" r="2.5" fill="#2563eb"/>
  <circle cx="838.26" cy="298.51" r="2.5" fill="#2563eb"/>
  <circle cx="839.67" cy="298.51" r="2.5" fill="#2563eb"/>
  <circle cx="841.09" cy="298.47" r="2.5" fill="#2563eb"/>
  <circle cx="842.51" cy="298.51" r="2.5" fill="#2563eb"/>
  <circle cx="843.93" cy="298.47" r="2.5" fill="#2563eb"/>
  <circle cx="845.34" cy="298.51" r="2.5" fill="#2563eb"/>
  <circle cx="846.76" cy="298.43" r="2.5" fill="#2563eb"/>
  <circle cx="848.18" cy="298.56" r="2.5" fill="#2563eb"/>
  <circle cx="849.60" cy="298.43" r="2.5" fill="#2563eb"/>
  <circle cx="851.01" cy="298.43" r="2.5" fill="#2563eb"/>
  <circle cx="852.43" cy="298.43" r="2.5" fill="#2563eb"/>
  <circle cx="853.85" cy="298.43" r="2.5" fill="#2563eb"/>
  <circle cx="855.26" cy="298.43" r="2.5" fill="#2563eb"/>
  <circle cx="856.68" cy="298.43" r="2.5" fill="#2563eb"/>
  <circle cx="858.10" cy="298.43" r="2.5" fill="#2563eb"/>
  <circle cx="859.52" cy="298.43" r="2.5" fill="#2563eb"/>
  <circle cx="860.93" cy="298.43" r="2.5" fill="#2563eb"/>
  <circle cx="862.35" cy="298.43" r="2.5" fill="#2563eb"/>
  <circle cx="863.77" cy="298.43" r="2.5" fill="#2563eb"/>
  <circle cx="865.19" cy="298.43" r="2.5" fill="#2563eb"/>
  <circle cx="866.60" cy="298.43" r="2.5" fill="#2563eb"/>
  <circle cx="868.02" cy="298.43" r="2.5" fill="#2563eb"/>
  <circle cx="869.44" cy="298.43" r="2.5" fill="#2563eb"/>
  <circle cx="870.86" cy="298.43" r="2.5" fill="#2563eb"/>
  <circle cx="872.27" cy="298.43" r="2.5" fill="#2563eb"/>
  <circle cx="873.69" cy="298.43" r="2.5" fill="#2563eb"/>
  <circle cx="875.11" cy="298.43" r="2.5" fill="#2563eb"/>
  <circle cx="876.53" cy="298.43" r="2.5" fill="#2563eb"/>
  <circle cx="877.94" cy="298.43" r="2.5" fill="#2563eb"/>
  <circle cx="879.36" cy="298.43" r="2.5" fill="#2563eb"/>
  <circle cx="880.78" cy="298.43" r="2.5" fill="#2563eb"/>
  <circle cx="882.20" cy="298.43" r="2.5" fill="#2563eb"/>
  <circle cx="883.61" cy="298.43" r="2.5" fill="#2563eb"/>
  <circle cx="885.03" cy="298.43" r="2.5" fill="#2563eb"/>
  <circle cx="886.45" cy="298.43" r="2.5" fill="#2563eb"/>
  <circle cx="887.87" cy="298.43" r="2.5" fill="#2563eb"/>
  <circle cx="889.28" cy="298.43" r="2.5" fill="#2563eb"/>
  <circle cx="890.70" cy="298.43" r="2.5" fill="#2563eb"/>
  <circle cx="892.12" cy="298.43" r="2.5" fill="#2563eb"/>
  <circle cx="893.54" cy="298.43" r="2.5" fill="#2563eb"/>
  <circle cx="894.95" cy="298.43" r="2.5" fill="#2563eb"/>
  <circle cx="896.37" cy="298.43" r="2.5" fill="#2563eb"/>
  <circle cx="897.79" cy="298.39" r="2.5" fill="#2563eb"/>
  <circle cx="899.21" cy="298.39" r="2.5" fill="#2563eb"/>
  <circle cx="900.62" cy="298.43" r="2.5" fill="#2563eb"/>
  <circle cx="902.04" cy="298.43" r="2.5" fill="#2563eb"/>
  <circle cx="903.46" cy="298.39" r="2.5" fill="#2563eb"/>
  <circle cx="904.88" cy="298.39" r="2.5" fill="#2563eb"/>
  <circle cx="906.29" cy="298.39" r="2.5" fill="#2563eb"/>
  <circle cx="907.71" cy="298.43" r="2.5" fill="#2563eb"/>
  <circle cx="909.13" cy="298.43" r="2.5" fill="#2563eb"/>
  <circle cx="910.55" cy="298.43" r="2.5" fill="#2563eb"/>
  <circle cx="911.96" cy="246.82" r="2.5" fill="#2563eb"/>
  <circle cx="913.38" cy="298.43" r="2.5" fill="#2563eb"/>
  <circle cx="914.80" cy="246.78" r="2.5" fill="#2563eb"/>
  <circle cx="916.21" cy="246.78" r="2.5" fill="#2563eb"/>
  <circle cx="917.63" cy="246.78" r="2.5" fill="#2563eb"/>
  <circle cx="919.05" cy="246.70" r="2.5" fill="#2563eb"/>
  <circle cx="920.47" cy="246.78" r="2.5" fill="#2563eb"/>
  <circle cx="921.88" cy="298.39" r="2.5" fill="#2563eb"/>
  <circle cx="923.30" cy="298.39" r="2.5" fill="#2563eb"/>
  <circle cx="924.72" cy="298.39" r="2.5" fill="#2563eb"/>
  <circle cx="926.14" cy="298.39" r="2.5" fill="#2563eb"/>
  <circle cx="927.55" cy="298.39" r="2.5" fill="#2563eb"/>
  <circle cx="928.97" cy="246.78" r="2.5" fill="#2563eb"/>
  <circle cx="930.39" cy="298.39" r="2.5" fill="#2563eb"/>
  <circle cx="931.81" cy="298.39" r="2.5" fill="#2563eb"/>
  <circle cx="933.22" cy="298.39" r="2.5" fill="#2563eb"/>
  <circle cx="934.64" cy="298.39" r="2.5" fill="#2563eb"/>
  <circle cx="936.06" cy="298.39" r="2.5" fill="#2563eb"/>
  <circle cx="937.48" cy="246.78" r="2.5" fill="#2563eb"/>
  <circle cx="938.89" cy="246.78" r="2.5" fill="#2563eb"/>
  <circle cx="940.31" cy="298.39" r="2.5" fill="#2563eb"/>
  <circle cx="941.73" cy="298.39" r="2.5" fill="#2563eb"/>
  <circle cx="943.15" cy="298.39" r="2.5" fill="#2563eb"/>
  <circle cx="944.56" cy="298.39" r="2.5" fill="#2563eb"/>
  <circle cx="945.98" cy="298.39" r="2.5" fill="#2563eb"/>
  <circle cx="947.40" cy="298.39" r="2.5" fill="#2563eb"/>
  <circle cx="948.82" cy="298.39" r="2.5" fill="#2563eb"/>
  <circle cx="950.23" cy="298.39" r="2.5" fill="#2563eb"/>
  <circle cx="951.65" cy="298.39" r="2.5" fill="#2563eb"/>
  <circle cx="953.07" cy="298.39" r="2.5" fill="#2563eb"/>
  <circle cx="954.49" cy="298.39" r="2.5" fill="#2563eb"/>
  <circle cx="955.90" cy="298.39" r="2.5" fill="#2563eb"/>
  <circle cx="957.32" cy="298.39" r="2.5" fill="#2563eb"/>
  <circle cx="958.74" cy="298.39" r="2.5" fill="#2563eb"/>
  <circle cx="960.16" cy="298.35" r="2.5" fill="#2563eb"/>
  <circle cx="961.57" cy="298.39" r="2.5" fill="#2563eb"/>
  <circle cx="962.99" cy="298.39" r="2.5" fill="#2563eb"/>
  <circle cx="964.41" cy="298.35" r="2.5" fill="#2563eb"/>
  <circle cx="965.83" cy="298.35" r="2.5" fill="#2563eb"/>
  <circle cx="967.24" cy="298.35" r="2.5" fill="#2563eb"/>
  <circle cx="968.66" cy="298.35" r="2.5" fill="#2563eb"/>
  <circle cx="970.08" cy="298.35" r="2.5" fill="#2563eb"/>
  <circle cx="971.50" cy="298.35" r="2.5" fill="#2563eb"/>
  <circle cx="972.91" cy="298.35" r="2.5" fill="#2563eb"/>
  <circle cx="974.33" cy="298.35" r="2.5" fill="#2563eb"/>
  <circle cx="975.75" cy="298.35" r="2.5" fill="#2563eb"/>
  <circle cx="977.17" cy="298.35" r="2.5" fill="#2563eb"/>
  <circle cx="978.58" cy="298.35" r="2.5" fill="#2563eb"/>
  <circle cx="980.00" cy="298.35" r="2.5" fill="#2563eb"/>
</svg>
