<?xml version="1.0" encoding="UTF-8"?>
<svg xmlns="http://www.w3.org/2000/svg" width="1000" height="420" viewBox="0 0 1000 420">
  <rect width="100%" height="100%" fill="#ffffff"/>
  <text x="70" y="28" font-size="20" font-weight="600">수집 시점 기준 - 시간별 스냅샷</text>
  <text x="70" y="402" font-size="12" fill="#555">스냅샷 수</text>
  <line x1="70" y1="350.00" x2="980" y2="350.00" stroke="#e5e7eb" stroke-width="1"/>
  <text x="62" y="354.00" font-size="11" fill="#6b7280" text-anchor="end">0</text>
  <line x1="70" y1="290.00" x2="980" y2="290.00" stroke="#e5e7eb" stroke-width="1"/>
  <text x="62" y="294.00" font-size="11" fill="#6b7280" text-anchor="end">1,440</text>
  <line x1="70" y1="230.00" x2="980" y2="230.00" stroke="#e5e7eb" stroke-width="1"/>
  <text x="62" y="234.00" font-size="11" fill="#6b7280" text-anchor="end">2,880</text>
  <line x1="70" y1="170.00" x2="980" y2="170.00" stroke="#e5e7eb" stroke-width="1"/>
  <text x="62" y="174.00" font-size="11" fill="#6b7280" text-anchor="end">4,321</text>
  <line x1="70" y1="110.00" x2="980" y2="110.00" stroke="#e5e7eb" stroke-width="1"/>
  <text x="62" y="114.00" font-size="11" fill="#6b7280" text-anchor="end">5,761</text>
  <line x1="70" y1="50.00" x2="980" y2="50.00" stroke="#e5e7eb" stroke-width="1"/>
  <text x="62" y="54.00" font-size="11" fill="#6b7280" text-anchor="end">7,202</text>
  <line x1="70" y1="350" x2="980" y2="350" stroke="#111827" stroke-width="1.2"/>
  <line x1="70" y1="50" x2="70" y2="350" stroke="#111827" stroke-width="1.2"/>
  <line x1="70.00" y1="350" x2="70.00" y2="356" stroke="#9ca3af" stroke-width="1"/>
  <text x="70.00" y="372" font-size="10" fill="#6b7280" text-anchor="middle">2026-02-28 18</text>
  <line x1="145.53" y1="350" x2="145.53" y2="356" stroke="#9ca3af" stroke-width="1"/>
  <text x="145.53" y="372" font-size="10" fill="#6b7280" text-anchor="middle">2026-03-09 19</text>
  <line x1="221.06" y1="350" x2="221.06" y2="356" stroke="#9ca3af" stroke-width="1"/>
  <text x="221.06" y="372" font-size="10" fill="#6b7280" text-anchor="middle">2026-03-12 15</text>
  <line x1="296.59" y1="350" x2="296.59" y2="356" stroke="#9ca3af" stroke-width="1"/>
  <text x="296.59" y="372" font-size="10" fill="#6b7280" text-anchor="middle">2026-03-15 19</text>
  <line x1="372.12" y1="350" x2="372.12" y2="356" stroke="#9ca3af" stroke-width="1"/>
  <text x="372.12" y="372" font-size="10" fill="#6b7280" text-anchor="middle">2026-03-19 22</text>
  <line x1="447.64" y1="350" x2="447.64" y2="356" stroke="#9ca3af" stroke-width="1"/>
  <text x="447.64" y="372" font-size="10" fill="#6b7280" text-anchor="middle">2026-03-23 08</text>
  <line x1="523.17" y1="350" x2="523.17" y2="356" stroke="#9ca3af" stroke-width="1"/>
  <text x="523.17" y="372" font-size="10" fill="#6b7280" text-anchor="middle">2026-03-27 19</text>
  <line x1="598.70" y1="350" x2="598.70" y2="356" stroke="#9ca3af" stroke-width="1"/>
  <text x="598.70" y="372" font-size="10" fill="#6b7280" text-anchor="middle">2026-03-31 23</text>
  <line x1="674.23" y1="350" x2="674.23" y2="356" stroke="#9ca3af" stroke-width="1"/>
  <text x="674.23" y="372" font-size="10" fill="#6b7280" text-anchor="middle">2026-04-05 04</text>
  <line x1="749.76" y1="350" x2="749.76" y2="356" stroke="#9ca3af" stroke-width="1"/>
  <text x="749.76" y="372" font-size="10" fill="#6b7280" text-anchor="middle">2026-04-09 12</text>
  <line x1="825.29" y1="350" x2="825.29" y2="356" stroke="#9ca3af" stroke-width="1"/>
  <text x="825.29" y="372" font-size="10" fill="#6b7280" text-anchor="middle">2026-04-13 21</text>
  <line x1="900.82" y1="350" x2="900.82" y2="356" stroke="#9ca3af" stroke-width="1"/>
  <text x="900.82" y="372" font-size="10" fill="#6b7280" text-anchor="middle">2026-04-18 14</text>
  <line x1="976.35" y1="350" x2="976.35" y2="356" stroke="#9ca3af" stroke-width="1"/>
  <text x="976.35" y="372" font-size="10" fill="#6b7280" text-anchor="middle">2026-04-22 20</text>
  <line x1="980.00" y1="350" x2="980.00" y2="356" stroke="#9ca3af" stroke-width="1"/>
  <text x="980.00" y="372" font-size="10" fill="#6b7280" text-anchor="middle">2026-04-23 02</text>
  <polyline fill="none" stroke="#2563eb" stroke-width="2.5" points="70.00,50.00 71.22,50.12 72.44,50.17 73.65,50.46 74.87,50.00 76.09,266.90 77.31,50.12 78.53,50.08 79.75,177.46 80.96,211.58 82.18,175.34 83.40,304.14 84.62,200.46 85.84,250.94 87.05,300.01 88.27,300.06 89.49,300.01 90.71,300.01 91.93,348.00 93.15,300.01 94.36,249.99 95.58,200.00 96.80,249.99 98.02,249.99 99.24,250.03 100.46,250.03 101.67,250.03 102.89,250.40 104.11,250.90 105.33,250.90 106.55,251.32 107.76,249.94 108.98,300.01 110.20,299.93 111.42,251.03 112.64,300.68 113.86,250.03 115.07,200.00 116.29,249.99 117.51,250.03 118.73,250.03 119.95,250.03 121.16,300.01 122.38,200.04 123.60,250.03 124.82,250.03 126.04,250.03 127.26,249.90 128.47,250.03 129.69,250.03 130.91,250.94 132.13,250.44 133.35,250.03 134.56,250.03 135.78,300.47 137.00,300.01 138.22,300.43 139.44,250.03 140.66,249.99 141.87,300.43 143.09,249.90 144.31,249.99 145.53,249.99 146.75,200.04 147.97,300.01 149.18,300.01 150.40,300.01 151.62,249.90 152.84,300.01 154.06,250.03 155.27,249.99 156.49,199.96 157.71,300.01 158.93,200.00 160.15,250.36 161.37,250.03 162.58,300.01 163.80,300.01 165.02,250.44 166.24,300.01 167.46,250.03 168.67,250.03 169.89,249.99 171.11,250.49 172.33,250.03 173.55,200.04 174.77,300.01 175.98,250.03 177.20,300.01 178.42,250.11 179.64,300.01 180.86,250.03 182.07,250.03 183.29,199.92 184.51,250.03 185.73,250.03 186.95,250.03 188.17,254.36 189.38,300.01 190.60,299.97 191.82,250.36 193.04,299.97 194.26,250.03 195.48,250.03 196.69,250.03 197.91,250.03 199.13,249.99 200.35,200.00 201.57,299.93 202.78,300.01 204.00,299.97 205.22,249.94 206.44,249.99 207.66,249.82 208.88,249.94 210.09,250.28 211.31,207.00 212.53,250.03 213.75,250.32 214.97,250.40 216.18,300.93 217.40,300.01 218.62,300.10 219.84,249.94 221.06,249.99 222.28,250.07 223.49,249.99 224.71,250.03 225.93,249.94 227.15,200.00 228.37,300.39 229.59,300.01 230.80,300.01 232.02,250.44 233.24,300.39 234.46,249.86 235.68,250.11 236.89,201.46 238.11,300.01 239.33,200.83 240.55,250.03 241.77,249.99 242.99,300.26 244.20,300.01 245.42,300.01 246.64,250.03 247.86,250.03 249.08,250.03 250.29,250.03 251.51,249.99 252.73,250.03 253.95,200.00 255.17,300.26 256.39,249.99 257.60,300.01 258.82,249.94 260.04,250.03 261.26,250.03 262.48,250.03 263.69,200.04 264.91,300.01 266.13,249.90 267.35,300.01 268.57,300.01 269.79,300.06 271.00,300.01 272.22,300.01 273.44,243.95 274.66,249.94 275.88,299.97 277.10,300.01 278.31,300.01 279.53,250.03 280.75,300.01 281.97,300.01 283.19,299.97 284.40,249.99 285.62,300.01 286.84,299.93 288.06,300.01 289.28,299.93 290.50,300.01 291.71,300.01 292.93,299.89 294.15,299.97 295.37,250.03 296.59,299.93 297.80,299.89 299.02,299.97 300.24,249.94 301.46,300.01 302.68,300.01 303.90,299.97 305.11,249.99 306.33,299.97 307.55,299.97 308.77,300.06 309.99,300.06 311.20,299.93 312.42,300.01 313.64,300.01 314.86,299.93 316.08,300.01 317.30,300.01 318.51,299.97 319.73,300.01 320.95,300.01 322.17,300.01 323.39,300.01 324.61,249.86 325.82,300.01 327.04,300.10 328.26,299.93 329.48,300.01 330.70,299.93 331.91,300.01 333.13,300.01 334.35,300.01 335.57,300.01 336.79,300.01 338.01,299.97 339.22,300.01 340.44,300.01 341.66,300.01 342.88,300.01 344.10,250.03 345.31,300.01 346.53,300.01 347.75,299.97 348.97,300.01 350.19,300.01 351.41,299.97 352.62,299.97 353.84,300.01 355.06,299.97 356.28,300.01 357.50,299.93 358.71,300.01 359.93,250.03 361.15,300.01 362.37,300.01 363.59,300.01 364.81,300.01 366.02,300.01 367.24,299.89 368.46,300.01 369.68,300.01 370.90,250.07 372.12,300.01 373.33,299.93 374.55,300.01 375.77,299.97 376.99,299.97 378.21,299.97 379.42,250.03 380.64,300.01 381.86,300.01 383.08,300.01 384.30,300.01 385.52,299.97 386.73,300.01 387.95,299.97 389.17,300.01 390.39,299.97 391.61,249.90 392.82,300.01 394.04,300.01 395.26,299.89 396.48,299.97 397.70,299.97 398.92,249.99 400.13,299.97 401.35,299.89 402.57,300.01 403.79,299.97 405.01,299.97 406.22,300.01 407.44,299.97 408.66,249.99 409.88,299.97 411.10,299.97 412.32,300.06 413.53,300.06 414.75,249.94 415.97,300.01 417.19,299.93 418.41,300.01 419.63,300.01 420.84,249.99 422.06,300.01 423.28,300.01 424.50,300.01 425.72,299.93 426.93,299.93 428.15,300.01 429.37,300.01 430.59,249.94 431.81,299.97 433.03,299.97 434.24,300.01 435.46,300.01 436.68,300.01 437.90,249.99 439.12,300.01 440.33,300.01 441.55,300.01 442.77,250.03 443.99,300.01 445.21,300.01 446.43,300.01 447.64,299.97 448.86,300.01 450.08,300.01 451.30,299.97 452.52,299.97 453.73,300.01 454.95,300.01 456.17,299.97 457.39,299.93 458.61,300.01 459.83,300.06 461.04,299.97 462.26,300.01 463.48,250.03 464.70,250.03 465.92,299.93 467.14,299.97 468.35,300.01 469.57,300.01 470.79,300.06 472.01,300.01 473.23,299.93 474.44,300.01 475.66,300.01 476.88,299.97 478.10,299.97 479.32,300.01 480.54,250.03 481.75,300.01 482.97,300.01 484.19,300.01 485.41,299.97 486.63,300.01 487.84,299.97 489.06,300.01 490.28,299.97 491.50,299.97 492.72,299.93 493.94,300.01 495.15,300.01 496.37,299.89 497.59,299.97 498.81,299.97 500.03,300.06 501.24,249.90 502.46,299.89 503.68,300.01 504.90,299.97 506.12,299.97 507.34,299.97 508.55,300.01 509.77,300.01 510.99,299.97 512.21,299.97 513.43,299.97 514.65,250.03 515.86,299.93 517.08,300.01 518.30,300.01 519.52,299.93 520.74,300.01 521.95,300.01 523.17,299.97 524.39,300.01 525.61,300.01 526.83,300.06 528.05,300.01 529.26,299.97 530.48,299.89 531.70,300.01 532.92,300.01 534.14,249.94 535.35,249.94 536.57,300.01 537.79,300.01 539.01,300.01 540.23,300.01 541.45,299.97 542.66,250.03 543.88,300.01 545.10,300.01 546.32,300.01 547.54,300.01 548.76,250.03 549.97,249.99 551.19,300.01 552.41,299.97 553.63,300.01 554.85,299.97 556.06,300.01 557.28,299.97 558.50,299.97 559.72,299.97 560.94,300.06 562.16,249.99 563.37,300.01 564.59,250.03 565.81,249.94 567.03,249.99 568.25,300.01 569.46,300.06 570.68,300.01 571.90,299.97 573.12,299.97 574.34,300.01 575.56,299.93 576.77,299.89 577.99,299.89 579.21,299.89 580.43,299.89 581.65,299.85 582.86,299.85 584.08,299.89 585.30,299.81 586.52,299.81 587.74,299.81 588.96,299.76 590.17,299.76 591.39,299.76 592.61,299.72 593.83,299.68 595.05,299.60 596.27,299.60 597.48,299.60 598.70,299.56 599.92,299.47 601.14,299.43 602.36,299.43 603.57,299.39 604.79,299.47 606.01,259.82 607.23,338.96 608.45,299.31 609.67,299.31 610.88,299.26 612.10,299.68 613.32,299.68 614.54,299.68 615.76,299.64 616.97,299.14 618.19,299.14 619.41,299.10 620.63,299.10 621.85,299.10 623.07,248.07 624.28,299.06 625.50,299.06 626.72,299.06 627.94,299.06 629.16,299.06 630.37,298.97 631.59,298.97 632.81,298.93 634.03,298.97 635.25,298.93 636.47,298.89 637.68,298.89 638.90,298.89 640.12,298.89 641.34,247.78 642.56,298.89 643.78,298.89 644.99,298.85 646.21,298.85 647.43,298.81 648.65,298.81 649.87,298.81 651.08,298.81 652.30,298.81 653.52,298.81 654.74,298.81 655.96,298.81 657.18,298.81 658.39,298.72 659.61,247.45 660.83,247.45 662.05,298.72 663.27,298.72 664.48,298.72 665.70,298.72 666.92,298.72 668.14,298.72 669.36,247.36 670.58,298.68 671.79,247.36 673.01,247.36 674.23,247.36 675.45,298.68 676.67,298.68 677.88,298.68 679.10,298.68 680.32,298.68 681.54,341.67 682.76,307.01 683.98,298.68 685.19,298.68 686.41,298.68 687.63,247.36 688.85,298.64 690.07,247.36 691.29,247.28 692.50,247.20 693.72,298.60 694.94,298.60 696.16,247.03 697.38,298.51 698.59,298.51 699.81,298.51 701.03,298.51 702.25,298.51 703.47,298.51 704.69,298.51 705.90,298.51 707.12,298.51 708.34,298.51 709.56,298.51 710.78,298.51 711.99,298.51 713.21,298.51 714.43,298.51 715.65,298.51 716.87,298.51 718.09,298.51 719.30,298.51 720.52,298.51 721.74,298.51 722.96,298.51 724.18,298.51 725.39,298.51 726.61,298.51 727.83,298.51 729.05,298.47 730.27,298.51 731.49,298.51 732.70,298.47 733.92,298.51 735.14,298.47 736.36,298.51 737.58,298.43 738.80,298.56 740.01,298.43 741.23,298.43 742.45,298.43 743.67,298.43 744.89,298.43 746.10,298.43 747.32,298.43 748.54,298.43 749.76,298.43 750.98,298.43 752.20,298.43 753.41,298.43 754.63,298.43 755.85,298.43 757.07,298.43 758.29,298.43 759.50,298.43 760.72,298.43 761.94,298.43 763.16,298.43 764.38,298.43 765.60,298.43 766.81,298.43 768.03,298.43 769.25,298.43 770.47,298.43 771.69,298.43 772.90,298.43 774.12,298.43 775.34,298.43 776.56,298.43 777.78,298.43 779.00,298.43 780.21,298.43 781.43,298.39 782.65,298.39 783.87,298.43 785.09,298.43 786.31,298.39 787.52,298.39 788.74,298.39 789.96,298.43 791.18,298.43 792.40,298.43 793.61,246.82 794.83,298.43 796.05,246.78 797.27,246.78 798.49,246.78 799.71,246.70 800.92,246.78 802.14,298.39 803.36,298.39 804.58,298.39 805.80,298.39 807.01,298.39 808.23,246.78 809.45,298.39 810.67,298.39 811.89,298.39 813.11,298.39 814.32,298.39 815.54,246.78 816.76,246.78 817.98,298.39 819.20,298.39 820.41,298.39 821.63,298.39 822.85,298.39 824.07,298.39 825.29,298.39 826.51,298.39 827.72,298.39 828.94,298.39 830.16,298.39 831.38,298.39 832.60,298.39 833.82,298.39 835.03,298.35 836.25,298.39 837.47,298.39 838.69,298.35 839.91,298.35 841.12,298.35 842.34,298.35 843.56,298.35 844.78,298.35 846.00,298.35 847.22,298.35 848.43,298.35 849.65,298.35 850.87,298.35 852.09,298.35 853.31,298.35 854.52,298.35 855.74,298.35 856.96,298.35 858.18,298.35 859.40,298.35 860.62,298.35 861.83,298.35 863.05,298.35 864.27,298.35 865.49,298.35 866.71,298.35 867.93,298.35 869.14,298.35 870.36,298.35 871.58,298.35 872.80,298.35 874.02,298.35 875.23,298.35 876.45,298.35 877.67,298.35 878.89,298.35 880.11,298.35 881.33,298.35 882.54,298.35 883.76,298.35 884.98,298.35 886.20,298.35 887.42,298.35 888.63,298.35 889.85,298.35 891.07,298.35 892.29,298.35 893.51,298.35 894.73,298.35 895.94,298.35 897.16,298.35 898.38,298.35 899.60,298.35 900.82,298.35 902.03,298.39 903.25,298.39 904.47,298.39 905.69,246.78 906.91,298.39 908.13,298.39 909.34,298.39 910.56,298.39 911.78,298.39 913.00,298.39 914.22,298.39 915.44,246.78 916.65,298.39 917.87,298.39 919.09,298.39 920.31,298.39 921.53,298.39 922.74,298.39 923.96,298.39 925.18,246.78 926.40,298.39 927.62,298.39 928.84,298.39 930.05,298.39 931.27,298.39 932.49,298.39 933.71,298.39 934.93,298.39 936.14,298.39 937.36,298.39 938.58,298.39 939.80,298.35 941.02,298.39 942.24,298.39 943.45,298.39 944.67,298.35 945.89,298.35 947.11,298.35 948.33,298.35 949.54,298.35 950.76,298.35 951.98,298.35 953.20,298.35 954.42,298.35 955.64,298.35 956.85,298.35 958.07,298.35 959.29,298.35 960.51,298.35 961.73,298.35 962.95,298.35 964.16,298.39 965.38,298.39 966.60,298.39 967.82,298.39 969.04,298.39 970.25,298.39 971.47,298.35 972.69,298.39 973.91,298.39 975.13,298.39 976.35,298.39 977.56,298.39 978.78,298.39 980.00,298.39"/>
  <circle cx="70.00" cy="50.00" r="2.5" fill="#2563eb"/>
  <circle cx="71.22" cy="50.12" r="2.5" fill="#2563eb"/>
  <circle cx="72.44" cy="50.17" r="2.5" fill="#2563eb"/>
  <circle cx="73.65" cy="50.46" r="2.5" fill="#2563eb"/>
  <circle cx="74.87" cy="50.00" r="2.5" fill="#2563eb"/>
  <circle cx="76.09" cy="266.90" r="2.5" fill="#2563eb"/>
  <circle cx="77.31" cy="50.12" r="2.5" fill="#2563eb"/>
  <circle cx="78.53" cy="50.08" r="2.5" fill="#2563eb"/>
  <circle cx="79.75" cy="177.46" r="2.5" fill="#2563eb"/>
  <circle cx="80.96" cy="211.58" r="2.5" fill="#2563eb"/>
  <circle cx="82.18" cy="175.34" r="2.5" fill="#2563eb"/>
  <circle cx="83.40" cy="304.14" r="2.5" fill="#2563eb"/>
  <circle cx="84.62" cy="200.46" r="2.5" fill="#2563eb"/>
  <circle cx="85.84" cy="250.94" r="2.5" fill="#2563eb"/>
  <circle cx="87.05" cy="300.01" r="2.5" fill="#2563eb"/>
  <circle cx="88.27" cy="300.06" r="2.5" fill="#2563eb"/>
  <circle cx="89.49" cy="300.01" r="2.5" fill="#2563eb"/>
  <circle cx="90.71" cy="300.01" r="2.5" fill="#2563eb"/>
  <circle cx="91.93" cy="348.00" r="2.5" fill="#2563eb"/>
  <circle cx="93.15" cy="300.01" r="2.5" fill="#2563eb"/>
  <circle cx="94.36" cy="249.99" r="2.5" fill="#2563eb"/>
  <circle cx="95.58" cy="200.00" r="2.5" fill="#2563eb"/>
  <circle cx="96.80" cy="249.99" r="2.5" fill="#2563eb"/>
  <circle cx="98.02" cy="249.99" r="2.5" fill="#2563eb"/>
  <circle cx="99.24" cy="250.03" r="2.5" fill="#2563eb"/>
  <circle cx="100.46" cy="250.03" r="2.5" fill="#2563eb"/>
  <circle cx="101.67" cy="250.03" r="2.5" fill="#2563eb"/>
  <circle cx="102.89" cy="250.40" r="2.5" fill="#2563eb"/>
  <circle cx="104.11" cy="250.90" r="2.5" fill="#2563eb"/>
  <circle cx="105.33" cy="250.90" r="2.5" fill="#2563eb"/>
  <circle cx="106.55" cy="251.32" r="2.5" fill="#2563eb"/>
  <circle cx="107.76" cy="249.94" r="2.5" fill="#2563eb"/>
  <circle cx="108.98" cy="300.01" r="2.5" fill="#2563eb"/>
  <circle cx="110.20" cy="299.93" r="2.5" fill="#2563eb"/>
  <circle cx="111.42" cy="251.03" r="2.5" fill="#2563eb"/>
  <circle cx="112.64" cy="300.68" r="2.5" fill="#2563eb"/>
  <circle cx="113.86" cy="250.03" r="2.5" fill="#2563eb"/>
  <circle cx="115.07" cy="200.00" r="2.5" fill="#2563eb"/>
  <circle cx="116.29" cy="249.99" r="2.5" fill="#2563eb"/>
  <circle cx="117.51" cy="250.03" r="2.5" fill="#2563eb"/>
  <circle cx="118.73" cy="250.03" r="2.5" fill="#2563eb"/>
  <circle cx="119.95" cy="250.03" r="2.5" fill="#2563eb"/>
  <circle cx="121.16" cy="300.01" r="2.5" fill="#2563eb"/>
  <circle cx="122.38" cy="200.04" r="2.5" fill="#2563eb"/>
  <circle cx="123.60" cy="250.03" r="2.5" fill="#2563eb"/>
  <circle cx="124.82" cy="250.03" r="2.5" fill="#2563eb"/>
  <circle cx="126.04" cy="250.03" r="2.5" fill="#2563eb"/>
  <circle cx="127.26" cy="249.90" r="2.5" fill="#2563eb"/>
  <circle cx="128.47" cy="250.03" r="2.5" fill="#2563eb"/>
  <circle cx="129.69" cy="250.03" r="2.5" fill="#2563eb"/>
  <circle cx="130.91" cy="250.94" r="2.5" fill="#2563eb"/>
  <circle cx="132.13" cy="250.44" r="2.5" fill="#2563eb"/>
  <circle cx="133.35" cy="250.03" r="2.5" fill="#2563eb"/>
  <circle cx="134.56" cy="250.03" r="2.5" fill="#2563eb"/>
  <circle cx="135.78" cy="300.47" r="2.5" fill="#2563eb"/>
  <circle cx="137.00" cy="300.01" r="2.5" fill="#2563eb"/>
  <circle cx="138.22" cy="300.43" r="2.5" fill="#2563eb"/>
  <circle cx="139.44" cy="250.03" r="2.5" fill="#2563eb"/>
  <circle cx="140.66" cy="249.99" r="2.5" fill="#2563eb"/>
  <circle cx="141.87" cy="300.43" r="2.5" fill="#2563eb"/>
  <circle cx="143.09" cy="249.90" r="2.5" fill="#2563eb"/>
  <circle cx="144.31" cy="249.99" r="2.5" fill="#2563eb"/>
  <circle cx="145.53" cy="249.99" r="2.5" fill="#2563eb"/>
  <circle cx="146.75" cy="200.04" r="2.5" fill="#2563eb"/>
  <circle cx="147.97" cy="300.01" r="2.5" fill="#2563eb"/>
  <circle cx="149.18" cy="300.01" r="2.5" fill="#2563eb"/>
  <circle cx="150.40" cy="300.01" r="2.5" fill="#2563eb"/>
  <circle cx="151.62" cy="249.90" r="2.5" fill="#2563eb"/>
  <circle cx="152.84" cy="300.01" r="2.5" fill="#2563eb"/>
  <circle cx="154.06" cy="250.03" r="2.5" fill="#2563eb"/>
  <circle cx="155.27" cy="249.99" r="2.5" fill="#2563eb"/>
  <circle cx="156.49" cy="199.96" r="2.5" fill="#2563eb"/>
  <circle cx="157.71" cy="300.01" r="2.5" fill="#2563eb"/>
  <circle cx="158.93" cy="200.00" r="2.5" fill="#2563eb"/>
  <circle cx="160.15" cy="250.36" r="2.5" fill="#2563eb"/>
  <circle cx="161.37" cy="250.03" r="2.5" fill="#2563eb"/>
  <circle cx="162.58" cy="300.01" r="2.5" fill="#2563eb"/>
  <circle cx="163.80" cy="300.01" r="2.5" fill="#2563eb"/>
  <circle cx="165.02" cy="250.44" r="2.5" fill="#2563eb"/>
  <circle cx="166.24" cy="300.01" r="2.5" fill="#2563eb"/>
  <circle cx="167.46" cy="250.03" r="2.5" fill="#2563eb"/>
  <circle cx="168.67" cy="250.03" r="2.5" fill="#2563eb"/>
  <circle cx="169.89" cy="249.99" r="2.5" fill="#2563eb"/>
  <circle cx="171.11" cy="250.49" r="2.5" fill="#2563eb"/>
  <circle cx="172.33" cy="250.03" r="2.5" fill="#2563eb"/>
  <circle cx="173.55" cy="200.04" r="2.5" fill="#2563eb"/>
  <circle cx="174.77" cy="300.01" r="2.5" fill="#2563eb"/>
  <circle cx="175.98" cy="250.03" r="2.5" fill="#2563eb"/>
  <circle cx="177.20" cy="300.01" r="2.5" fill="#2563eb"/>
  <circle cx="178.42" cy="250.11" r="2.5" fill="#2563eb"/>
  <circle cx="179.64" cy="300.01" r="2.5" fill="#2563eb"/>
  <circle cx="180.86" cy="250.03" r="2.5" fill="#2563eb"/>
  <circle cx="182.07" cy="250.03" r="2.5" fill="#2563eb"/>
  <circle cx="183.29" cy="199.92" r="2.5" fill="#2563eb"/>
  <circle cx="184.51" cy="250.03" r="2.5" fill="#2563eb"/>
  <circle cx="185.73" cy="250.03" r="2.5" fill="#2563eb"/>
  <circle cx="186.95" cy="250.03" r="2.5" fill="#2563eb"/>
  <circle cx="188.17" cy="254.36" r="2.5" fill="#2563eb"/>
  <circle cx="189.38" cy="300.01" r="2.5" fill="#2563eb"/>
  <circle cx="190.60" cy="299.97" r="2.5" fill="#2563eb"/>
  <circle cx="191.82" cy="250.36" r="2.5" fill="#2563eb"/>
  <circle cx="193.04" cy="299.97" r="2.5" fill="#2563eb"/>
  <circle cx="194.26" cy="250.03" r="2.5" fill="#2563eb"/>
  <circle cx="195.48" cy="250.03" r="2.5" fill="#2563eb"/>
  <circle cx="196.69" cy="250.03" r="2.5" fill="#2563eb"/>
  <circle cx="197.91" cy="250.03" r="2.5" fill="#2563eb"/>
  <circle cx="199.13" cy="249.99" r="2.5" fill="#2563eb"/>
  <circle cx="200.35" cy="200.00" r="2.5" fill="#2563eb"/>
  <circle cx="201.57" cy="299.93" r="2.5" fill="#2563eb"/>
  <circle cx="202.78" cy="300.01" r="2.5" fill="#2563eb"/>
  <circle cx="204.00" cy="299.97" r="2.5" fill="#2563eb"/>
  <circle cx="205.22" cy="249.94" r="2.5" fill="#2563eb"/>
  <circle cx="206.44" cy="249.99" r="2.5" fill="#2563eb"/>
  <circle cx="207.66" cy="249.82" r="2.5" fill="#2563eb"/>
  <circle cx="208.88" cy="249.94" r="2.5" fill="#2563eb"/>
  <circle cx="210.09" cy="250.28" r="2.5" fill="#2563eb"/>
  <circle cx="211.31" cy="207.00" r="2.5" fill="#2563eb"/>
  <circle cx="212.53" cy="250.03" r="2.5" fill="#2563eb"/>
  <circle cx="213.75" cy="250.32" r="2.5" fill="#2563eb"/>
  <circle cx="214.97" cy="250.40" r="2.5" fill="#2563eb"/>
  <circle cx="216.18" cy="300.93" r="2.5" fill="#2563eb"/>
  <circle cx="217.40" cy="300.01" r="2.5" fill="#2563eb"/>
  <circle cx="218.62" cy="300.10" r="2.5" fill="#2563eb"/>
  <circle cx="219.84" cy="249.94" r="2.5" fill="#2563eb"/>
  <circle cx="221.06" cy="249.99" r="2.5" fill="#2563eb"/>
  <circle cx="222.28" cy="250.07" r="2.5" fill="#2563eb"/>
  <circle cx="223.49" cy="249.99" r="2.5" fill="#2563eb"/>
  <circle cx="224.71" cy="250.03" r="2.5" fill="#2563eb"/>
  <circle cx="225.93" cy="249.94" r="2.5" fill="#2563eb"/>
  <circle cx="227.15" cy="200.00" r="2.5" fill="#2563eb"/>
  <circle cx="228.37" cy="300.39" r="2.5" fill="#2563eb"/>
  <circle cx="229.59" cy="300.01" r="2.5" fill="#2563eb"/>
  <circle cx="230.80" cy="300.01" r="2.5" fill="#2563eb"/>
  <circle cx="232.02" cy="250.44" r="2.5" fill="#2563eb"/>
  <circle cx="233.24" cy="300.39" r="2.5" fill="#2563eb"/>
  <circle cx="234.46" cy="249.86" r="2.5" fill="#2563eb"/>
  <circle cx="235.68" cy="250.11" r="2.5" fill="#2563eb"/>
  <circle cx="236.89" cy="201.46" r="2.5" fill="#2563eb"/>
  <circle cx="238.11" cy="300.01" r="2.5" fill="#2563eb"/>
  <circle cx="239.33" cy="200.83" r="2.5" fill="#2563eb"/>
  <circle cx="240.55" cy="250.03" r="2.5" fill="#2563eb"/>
  <circle cx="241.77" cy="249.99" r="2.5" fill="#2563eb"/>
  <circle cx="242.99" cy="300.26" r="2.5" fill="#2563eb"/>
  <circle cx="244.20" cy="300.01" r="2.5" fill="#2563eb"/>
  <circle cx="245.42" cy="300.01" r="2.5" fill="#2563eb"/>
  <circle cx="246.64" cy="250.03" r="2.5" fill="#2563eb"/>
  <circle cx="247.86" cy="250.03" r="2.5" fill="#2563eb"/>
  <circle cx="249.08" cy="250.03" r="2.5" fill="#2563eb"/>
  <circle cx="250.29" cy="250.03" r="2.5" fill="#2563eb"/>
  <circle cx="251.51" cy="249.99" r="2.5" fill="#2563eb"/>
  <circle cx="252.73" cy="250.03" r="2.5" fill="#2563eb"/>
  <circle cx="253.95" cy="200.00" r="2.5" fill="#2563eb"/>
  <circle cx="255.17" cy="300.26" r="2.5" fill="#2563eb"/>
  <circle cx="256.39" cy="249.99" r="2.5" fill="#2563eb"/>
  <circle cx="257.60" cy="300.01" r="2.5" fill="#2563eb"/>
  <circle cx="258.82" cy="249.94" r="2.5" fill="#2563eb"/>
  <circle cx="260.04" cy="250.03" r="2.5" fill="#2563eb"/>
  <circle cx="261.26" cy="250.03" r="2.5" fill="#2563eb"/>
  <circle cx="262.48" cy="250.03" r="2.5" fill="#2563eb"/>
  <circle cx="263.69" cy="200.04" r="2.5" fill="#2563eb"/>
  <circle cx="264.91" cy="300.01" r="2.5" fill="#2563eb"/>
  <circle cx="266.13" cy="249.90" r="2.5" fill="#2563eb"/>
  <circle cx="267.35" cy="300.01" r="2.5" fill="#2563eb"/>
  <circle cx="268.57" cy="300.01" r="2.5" fill="#2563eb"/>
  <circle cx="269.79" cy="300.06" r="2.5" fill="#2563eb"/>
  <circle cx="271.00" cy="300.01" r="2.5" fill="#2563eb"/>
  <circle cx="272.22" cy="300.01" r="2.5" fill="#2563eb"/>
  <circle cx="273.44" cy="243.95" r="2.5" fill="#2563eb"/>
  <circle cx="274.66" cy="249.94" r="2.5" fill="#2563eb"/>
  <circle cx="275.88" cy="299.97" r="2.5" fill="#2563eb"/>
  <circle cx="277.10" cy="300.01" r="2.5" fill="#2563eb"/>
  <circle cx="278.31" cy="300.01" r="2.5" fill="#2563eb"/>
  <circle cx="279.53" cy="250.03" r="2.5" fill="#2563eb"/>
  <circle cx="280.75" cy="300.01" r="2.5" fill="#2563eb"/>
  <circle cx="281.97" cy="300.01" r="2.5" fill="#2563eb"/>
  <circle cx="283.19" cy="299.97" r="2.5" fill="#2563eb"/>
  <circle cx="284.40" cy="249.99" r="2.5" fill="#2563eb"/>
  <circle cx="285.62" cy="300.01" r="2.5" fill="#2563eb"/>
  <circle cx="286.84" cy="299.93" r="2.5" fill="#2563eb"/>
  <circle cx="288.06" cy="300.01" r="2.5" fill="#2563eb"/>
  <circle cx="289.28" cy="299.93" r="2.5" fill="#2563eb"/>
  <circle cx="290.50" cy="300.01" r="2.5" fill="#2563eb"/>
  <circle cx="291.71" cy="300.01" r="2.5" fill="#2563eb"/>
  <circle cx="292.93" cy="299.89" r="2.5" fill="#2563eb"/>
  <circle cx="294.15" cy="299.97" r="2.5" fill="#2563eb"/>
  <circle cx="295.37" cy="250.03" r="2.5" fill="#2563eb"/>
  <circle cx="296.59" cy="299.93" r="2.5" fill="#2563eb"/>
  <circle cx="297.80" cy="299.89" r="2.5" fill="#2563eb"/>
  <circle cx="299.02" cy="299.97" r="2.5" fill="#2563eb"/>
  <circle cx="300.24" cy="249.94" r="2.5" fill="#2563eb"/>
  <circle cx="301.46" cy="300.01" r="2.5" fill="#2563eb"/>
  <circle cx="302.68" cy="300.01" r="2.5" fill="#2563eb"/>
  <circle cx="303.90" cy="299.97" r="2.5" fill="#2563eb"/>
  <circle cx="305.11" cy="249.99" r="2.5" fill="#2563eb"/>
  <circle cx="306.33" cy="299.97" r="2.5" fill="#2563eb"/>
  <circle cx="307.55" cy="299.97" r="2.5" fill="#2563eb"/>
  <circle cx="308.77" cy="300.06" r="2.5" fill="#2563eb"/>
  <circle cx="309.99" cy="300.06" r="2.5" fill="#2563eb"/>
  <circle cx="311.20" cy="299.93" r="2.5" fill="#2563eb"/>
  <circle cx="312.42" cy="300.01" r="2.5" fill="#2563eb"/>
  <circle cx="313.64" cy="300.01" r="2.5" fill="#2563eb"/>
  <circle cx="314.86" cy="299.93" r="2.5" fill="#2563eb"/>
  <circle cx="316.08" cy="300.01" r="2.5" fill="#2563eb"/>
  <circle cx="317.30" cy="300.01" r="2.5" fill="#2563eb"/>
  <circle cx="318.51" cy="299.97" r="2.5" fill="#2563eb"/>
  <circle cx="319.73" cy="300.01" r="2.5" fill="#2563eb"/>
  <circle cx="320.95" cy="300.01" r="2.5" fill="#2563eb"/>
  <circle cx="322.17" cy="300.01" r="2.5" fill="#2563eb"/>
  <circle cx="323.39" cy="300.01" r="2.5" fill="#2563eb"/>
  <circle cx="324.61" cy="249.86" r="2.5" fill="#2563eb"/>
  <circle cx="325.82" cy="300.01" r="2.5" fill="#2563eb"/>
  <circle cx="327.04" cy="300.10" r="2.5" fill="#2563eb"/>
  <circle cx="328.26" cy="299.93" r="2.5" fill="#2563eb"/>
  <circle cx="329.48" cy="300.01" r="2.5" fill="#2563eb"/>
  <circle cx="330.70" cy="299.93" r="2.5" fill="#2563eb"/>
  <circle cx="331.91" cy="300.01" r="2.5" fill="#2563eb"/>
  <circle cx="333.13" cy="300.01" r="2.5" fill="#2563eb"/>
  <circle cx="334.35" cy="300.01" r="2.5" fill="#2563eb"/>
  <circle cx="335.57" cy="300.01" r="2.5" fill="#2563eb"/>
  <circle cx="336.79" cy="300.01" r="2.5" fill="#2563eb"/>
  <circle cx="338.01" cy="299.97" r="2.5" fill="#2563eb"/>
  <circle cx="339.22" cy="300.01" r="2.5" fill="#2563eb"/>
  <circle cx="340.44" cy="300.01" r="2.5" fill="#2563eb"/>
  <circle cx="341.66" cy="300.01" r="2.5" fill="#2563eb"/>
  <circle cx="342.88" cy="300.01" r="2.5" fill="#2563eb"/>
  <circle cx="344.10" cy="250.03" r="2.5" fill="#2563eb"/>
  <circle cx="345.31" cy="300.01" r="2.5" fill="#2563eb"/>
  <circle cx="346.53" cy="300.01" r="2.5" fill="#2563eb"/>
  <circle cx="347.75" cy="299.97" r="2.5" fill="#2563eb"/>
  <circle cx="348.97" cy="300.01" r="2.5" fill="#2563eb"/>
  <circle cx="350.19" cy="300.01" r="2.5" fill="#2563eb"/>
  <circle cx="351.41" cy="299.97" r="2.5" fill="#2563eb"/>
  <circle cx="352.62" cy="299.97" r="2.5" fill="#2563eb"/>
  <circle cx="353.84" cy="300.01" r="2.5" fill="#2563eb"/>
  <circle cx="355.06" cy="299.97" r="2.5" fill="#2563eb"/>
  <circle cx="356.28" cy="300.01" r="2.5" fill="#2563eb"/>
  <circle cx="357.50" cy="299.93" r="2.5" fill="#2563eb"/>
  <circle cx="358.71" cy="300.01" r="2.5" fill="#2563eb"/>
  <circle cx="359.93" cy="250.03" r="2.5" fill="#2563eb"/>
  <circle cx="361.15" cy="300.01" r="2.5" fill="#2563eb"/>
  <circle cx="362.37" cy="300.01" r="2.5" fill="#2563eb"/>
  <circle cx="363.59" cy="300.01" r="2.5" fill="#2563eb"/>
  <circle cx="364.81" cy="300.01" r="2.5" fill="#2563eb"/>
  <circle cx="366.02" cy="300.01" r="2.5" fill="#2563eb"/>
  <circle cx="367.24" cy="299.89" r="2.5" fill="#2563eb"/>
  <circle cx="368.46" cy="300.01" r="2.5" fill="#2563eb"/>
  <circle cx="369.68" cy="300.01" r="2.5" fill="#2563eb"/>
  <circle cx="370.90" cy="250.07" r="2.5" fill="#2563eb"/>
  <circle cx="372.12" cy="300.01" r="2.5" fill="#2563eb"/>
  <circle cx="373.33" cy="299.93" r="2.5" fill="#2563eb"/>
  <circle cx="374.55" cy="300.01" r="2.5" fill="#2563eb"/>
  <circle cx="375.77" cy="299.97" r="2.5" fill="#2563eb"/>
  <circle cx="376.99" cy="299.97" r="2.5" fill="#2563eb"/>
  <circle cx="378.21" cy="299.97" r="2.5" fill="#2563eb"/>
  <circle cx="379.42" cy="250.03" r="2.5" fill="#2563eb"/>
  <circle cx="380.64" cy="300.01" r="2.5" fill="#2563eb"/>
  <circle cx="381.86" cy="300.01" r="2.5" fill="#2563eb"/>
  <circle cx="383.08" cy="300.01" r="2.5" fill="#2563eb"/>
  <circle cx="384.30" cy="300.01" r="2.5" fill="#2563eb"/>
  <circle cx="385.52" cy="299.97" r="2.5" fill="#2563eb"/>
  <circle cx="386.73" cy="300.01" r="2.5" fill="#2563eb"/>
  <circle cx="387.95" cy="299.97" r="2.5" fill="#2563eb"/>
  <circle cx="389.17" cy="300.01" r="2.5" fill="#2563eb"/>
  <circle cx="390.39" cy="299.97" r="2.5" fill="#2563eb"/>
  <circle cx="391.61" cy="249.90" r="2.5" fill="#2563eb"/>
  <circle cx="392.82" cy="300.01" r="2.5" fill="#2563eb"/>
  <circle cx="394.04" cy="300.01" r="2.5" fill="#2563eb"/>
  <circle cx="395.26" cy="299.89" r="2.5" fill="#2563eb"/>
  <circle cx="396.48" cy="299.97" r="2.5" fill="#2563eb"/>
  <circle cx="397.70" cy="299.97" r="2.5" fill="#2563eb"/>
  <circle cx="398.92" cy="249.99" r="2.5" fill="#2563eb"/>
  <circle cx="400.13" cy="299.97" r="2.5" fill="#2563eb"/>
  <circle cx="401.35" cy="299.89" r="2.5" fill="#2563eb"/>
  <circle cx="402.57" cy="300.01" r="2.5" fill="#2563eb"/>
  <circle cx="403.79" cy="299.97" r="2.5" fill="#2563eb"/>
  <circle cx="405.01" cy="299.97" r="2.5" fill="#2563eb"/>
  <circle cx="406.22" cy="300.01" r="2.5" fill="#2563eb"/>
  <circle cx="407.44" cy="299.97" r="2.5" fill="#2563eb"/>
  <circle cx="408.66" cy="249.99" r="2.5" fill="#2563eb"/>
  <circle cx="409.88" cy="299.97" r="2.5" fill="#2563eb"/>
  <circle cx="411.10" cy="299.97" r="2.5" fill="#2563eb"/>
  <circle cx="412.32" cy="300.06" r="2.5" fill="#2563eb"/>
  <circle cx="413.53" cy="300.06" r="2.5" fill="#2563eb"/>
  <circle cx="414.75" cy="249.94" r="2.5" fill="#2563eb"/>
  <circle cx="415.97" cy="300.01" r="2.5" fill="#2563eb"/>
  <circle cx="417.19" cy="299.93" r="2.5" fill="#2563eb"/>
  <circle cx="418.41" cy="300.01" r="2.5" fill="#2563eb"/>
  <circle cx="419.63" cy="300.01" r="2.5" fill="#2563eb"/>
  <circle cx="420.84" cy="249.99" r="2.5" fill="#2563eb"/>
  <circle cx="422.06" cy="300.01" r="2.5" fill="#2563eb"/>
  <circle cx="423.28" cy="300.01" r="2.5" fill="#2563eb"/>
  <circle cx="424.50" cy="300.01" r="2.5" fill="#2563eb"/>
  <circle cx="425.72" cy="299.93" r="2.5" fill="#2563eb"/>
  <circle cx="426.93" cy="299.93" r="2.5" fill="#2563eb"/>
  <circle cx="428.15" cy="300.01" r="2.5" fill="#2563eb"/>
  <circle cx="429.37" cy="300.01" r="2.5" fill="#2563eb"/>
  <circle cx="430.59" cy="249.94" r="2.5" fill="#2563eb"/>
  <circle cx="431.81" cy="299.97" r="2.5" fill="#2563eb"/>
  <circle cx="433.03" cy="299.97" r="2.5" fill="#2563eb"/>
  <circle cx="434.24" cy="300.01" r="2.5" fill="#2563eb"/>
  <circle cx="435.46" cy="300.01" r="2.5" fill="#2563eb"/>
  <circle cx="436.68" cy="300.01" r="2.5" fill="#2563eb"/>
  <circle cx="437.90" cy="249.99" r="2.5" fill="#2563eb"/>
  <circle cx="439.12" cy="300.01" r="2.5" fill="#2563eb"/>
  <circle cx="440.33" cy="300.01" r="2.5" fill="#2563eb"/>
  <circle cx="441.55" cy="300.01" r="2.5" fill="#2563eb"/>
  <circle cx="442.77" cy="250.03" r="2.5" fill="#2563eb"/>
  <circle cx="443.99" cy="300.01" r="2.5" fill="#2563eb"/>
  <circle cx="445.21" cy="300.01" r="2.5" fill="#2563eb"/>
  <circle cx="446.43" cy="300.01" r="2.5" fill="#2563eb"/>
  <circle cx="447.64" cy="299.97" r="2.5" fill="#2563eb"/>
  <circle cx="448.86" cy="300.01" r="2.5" fill="#2563eb"/>
  <circle cx="450.08" cy="300.01" r="2.5" fill="#2563eb"/>
  <circle cx="451.30" cy="299.97" r="2.5" fill="#2563eb"/>
  <circle cx="452.52" cy="299.97" r="2.5" fill="#2563eb"/>
  <circle cx="453.73" cy="300.01" r="2.5" fill="#2563eb"/>
  <circle cx="454.95" cy="300.01" r="2.5" fill="#2563eb"/>
  <circle cx="456.17" cy="299.97" r="2.5" fill="#2563eb"/>
  <circle cx="457.39" cy="299.93" r="2.5" fill="#2563eb"/>
  <circle cx="458.61" cy="300.01" r="2.5" fill="#2563eb"/>
  <circle cx="459.83" cy="300.06" r="2.5" fill="#2563eb"/>
  <circle cx="461.04" cy="299.97" r="2.5" fill="#2563eb"/>
  <circle cx="462.26" cy="300.01" r="2.5" fill="#2563eb"/>
  <circle cx="463.48" cy="250.03" r="2.5" fill="#2563eb"/>
  <circle cx="464.70" cy="250.03" r="2.5" fill="#2563eb"/>
  <circle cx="465.92" cy="299.93" r="2.5" fill="#2563eb"/>
  <circle cx="467.14" cy="299.97" r="2.5" fill="#2563eb"/>
  <circle cx="468.35" cy="300.01" r="2.5" fill="#2563eb"/>
  <circle cx="469.57" cy="300.01" r="2.5" fill="#2563eb"/>
  <circle cx="470.79" cy="300.06" r="2.5" fill="#2563eb"/>
  <circle cx="472.01" cy="300.01" r="2.5" fill="#2563eb"/>
  <circle cx="473.23" cy="299.93" r="2.5" fill="#2563eb"/>
  <circle cx="474.44" cy="300.01" r="2.5" fill="#2563eb"/>
  <circle cx="475.66" cy="300.01" r="2.5" fill="#2563eb"/>
  <circle cx="476.88" cy="299.97" r="2.5" fill="#2563eb"/>
  <circle cx="478.10" cy="299.97" r="2.5" fill="#2563eb"/>
  <circle cx="479.32" cy="300.01" r="2.5" fill="#2563eb"/>
  <circle cx="480.54" cy="250.03" r="2.5" fill="#2563eb"/>
  <circle cx="481.75" cy="300.01" r="2.5" fill="#2563eb"/>
  <circle cx="482.97" cy="300.01" r="2.5" fill="#2563eb"/>
  <circle cx="484.19" cy="300.01" r="2.5" fill="#2563eb"/>
  <circle cx="485.41" cy="299.97" r="2.5" fill="#2563eb"/>
  <circle cx="486.63" cy="300.01" r="2.5" fill="#2563eb"/>
  <circle cx="487.84" cy="299.97" r="2.5" fill="#2563eb"/>
  <circle cx="489.06" cy="300.01" r="2.5" fill="#2563eb"/>
  <circle cx="490.28" cy="299.97" r="2.5" fill="#2563eb"/>
  <circle cx="491.50" cy="299.97" r="2.5" fill="#2563eb"/>
  <circle cx="492.72" cy="299.93" r="2.5" fill="#2563eb"/>
  <circle cx="493.94" cy="300.01" r="2.5" fill="#2563eb"/>
  <circle cx="495.15" cy="300.01" r="2.5" fill="#2563eb"/>
  <circle cx="496.37" cy="299.89" r="2.5" fill="#2563eb"/>
  <circle cx="497.59" cy="299.97" r="2.5" fill="#2563eb"/>
  <circle cx="498.81" cy="299.97" r="2.5" fill="#2563eb"/>
  <circle cx="500.03" cy="300.06" r="2.5" fill="#2563eb"/>
  <circle cx="501.24" cy="249.90" r="2.5" fill="#2563eb"/>
  <circle cx="502.46" cy="299.89" r="2.5" fill="#2563eb"/>
  <circle cx="503.68" cy="300.01" r="2.5" fill="#2563eb"/>
  <circle cx="504.90" cy="299.97" r="2.5" fill="#2563eb"/>
  <circle cx="506.12" cy="299.97" r="2.5" fill="#2563eb"/>
  <circle cx="507.34" cy="299.97" r="2.5" fill="#2563eb"/>
  <circle cx="508.55" cy="300.01" r="2.5" fill="#2563eb"/>
  <circle cx="509.77" cy="300.01" r="2.5" fill="#2563eb"/>
  <circle cx="510.99" cy="299.97" r="2.5" fill="#2563eb"/>
  <circle cx="512.21" cy="299.97" r="2.5" fill="#2563eb"/>
  <circle cx="513.43" cy="299.97" r="2.5" fill="#2563eb"/>
  <circle cx="514.65" cy="250.03" r="2.5" fill="#2563eb"/>
  <circle cx="515.86" cy="299.93" r="2.5" fill="#2563eb"/>
  <circle cx="517.08" cy="300.01" r="2.5" fill="#2563eb"/>
  <circle cx="518.30" cy="300.01" r="2.5" fill="#2563eb"/>
  <circle cx="519.52" cy="299.93" r="2.5" fill="#2563eb"/>
  <circle cx="520.74" cy="300.01" r="2.5" fill="#2563eb"/>
  <circle cx="521.95" cy="300.01" r="2.5" fill="#2563eb"/>
  <circle cx="523.17" cy="299.97" r="2.5" fill="#2563eb"/>
  <circle cx="524.39" cy="300.01" r="2.5" fill="#2563eb"/>
  <circle cx="525.61" cy="300.01" r="2.5" fill="#2563eb"/>
  <circle cx="526.83" cy="300.06" r="2.5" fill="#2563eb"/>
  <circle cx="528.05" cy="300.01" r="2.5" fill="#2563eb"/>
  <circle cx="529.26" cy="299.97" r="2.5" fill="#2563eb"/>
  <circle cx="530.48" cy="299.89" r="2.5" fill="#2563eb"/>
  <circle cx="531.70" cy="300.01" r="2.5" fill="#2563eb"/>
  <circle cx="532.92" cy="300.01" r="2.5" fill="#2563eb"/>
  <circle cx="534.14" cy="249.94" r="2.5" fill="#2563eb"/>
  <circle cx="535.35" cy="249.94" r="2.5" fill="#2563eb"/>
  <circle cx="536.57" cy="300.01" r="2.5" fill="#2563eb"/>
  <circle cx="537.79" cy="300.01" r="2.5" fill="#2563eb"/>
  <circle cx="539.01" cy="300.01" r="2.5" fill="#2563eb"/>
  <circle cx="540.23" cy="300.01" r="2.5" fill="#2563eb"/>
  <circle cx="541.45" cy="299.97" r="2.5" fill="#2563eb"/>
  <circle cx="542.66" cy="250.03" r="2.5" fill="#2563eb"/>
  <circle cx="543.88" cy="300.01" r="2.5" fill="#2563eb"/>
  <circle cx="545.10" cy="300.01" r="2.5" fill="#2563eb"/>
  <circle cx="546.32" cy="300.01" r="2.5" fill="#2563eb"/>
  <circle cx="547.54" cy="300.01" r="2.5" fill="#2563eb"/>
  <circle cx="548.76" cy="250.03" r="2.5" fill="#2563eb"/>
  <circle cx="549.97" cy="249.99" r="2.5" fill="#2563eb"/>
  <circle cx="551.19" cy="300.01" r="2.5" fill="#2563eb"/>
  <circle cx="552.41" cy="299.97" r="2.5" fill="#2563eb"/>
  <circle cx="553.63" cy="300.01" r="2.5" fill="#2563eb"/>
  <circle cx="554.85" cy="299.97" r="2.5" fill="#2563eb"/>
  <circle cx="556.06" cy="300.01" r="2.5" fill="#2563eb"/>
  <circle cx="557.28" cy="299.97" r="2.5" fill="#2563eb"/>
  <circle cx="558.50" cy="299.97" r="2.5" fill="#2563eb"/>
  <circle cx="559.72" cy="299.97" r="2.5" fill="#2563eb"/>
  <circle cx="560.94" cy="300.06" r="2.5" fill="#2563eb"/>
  <circle cx="562.16" cy="249.99" r="2.5" fill="#2563eb"/>
  <circle cx="563.37" cy="300.01" r="2.5" fill="#2563eb"/>
  <circle cx="564.59" cy="250.03" r="2.5" fill="#2563eb"/>
  <circle cx="565.81" cy="249.94" r="2.5" fill="#2563eb"/>
  <circle cx="567.03" cy="249.99" r="2.5" fill="#2563eb"/>
  <circle cx="568.25" cy="300.01" r="2.5" fill="#2563eb"/>
  <circle cx="569.46" cy="300.06" r="2.5" fill="#2563eb"/>
  <circle cx="570.68" cy="300.01" r="2.5" fill="#2563eb"/>
  <circle cx="571.90" cy="299.97" r="2.5" fill="#2563eb"/>
  <circle cx="573.12" cy="299.97" r="2.5" fill="#2563eb"/>
  <circle cx="574.34" cy="300.01" r="2.5" fill="#2563eb"/>
  <circle cx="575.56" cy="299.93" r="2.5" fill="#2563eb"/>
  <circle cx="576.77" cy="299.89" r="2.5" fill="#2563eb"/>
  <circle cx="577.99" cy="299.89" r="2.5" fill="#2563eb"/>
  <circle cx="579.21" cy="299.89" r="2.5" fill="#2563eb"/>
  <circle cx="580.43" cy="299.89" r="2.5" fill="#2563eb"/>
  <circle cx="581.65" cy="299.85" r="2.5" fill="#2563eb"/>
  <circle cx="582.86" cy="299.85" r="2.5" fill="#2563eb"/>
  <circle cx="584.08" cy="299.89" r="2.5" fill="#2563eb"/>
  <circle cx="585.30" cy="299.81" r="2.5" fill="#2563eb"/>
  <circle cx="586.52" cy="299.81" r="2.5" fill="#2563eb"/>
  <circle cx="587.74" cy="299.81" r="2.5" fill="#2563eb"/>
  <circle cx="588.96" cy="299.76" r="2.5" fill="#2563eb"/>
  <circle cx="590.17" cy="299.76" r="2.5" fill="#2563eb"/>
  <circle cx="591.39" cy="299.76" r="2.5" fill="#2563eb"/>
  <circle cx="592.61" cy="299.72" r="2.5" fill="#2563eb"/>
  <circle cx="593.83" cy="299.68" r="2.5" fill="#2563eb"/>
  <circle cx="595.05" cy="299.60" r="2.5" fill="#2563eb"/>
  <circle cx="596.27" cy="299.60" r="2.5" fill="#2563eb"/>
  <circle cx="597.48" cy="299.60" r="2.5" fill="#2563eb"/>
  <circle cx="598.70" cy="299.56" r="2.5" fill="#2563eb"/>
  <circle cx="599.92" cy="299.47" r="2.5" fill="#2563eb"/>
  <circle cx="601.14" cy="299.43" r="2.5" fill="#2563eb"/>
  <circle cx="602.36" cy="299.43" r="2.5" fill="#2563eb"/>
  <circle cx="603.57" cy="299.39" r="2.5" fill="#2563eb"/>
  <circle cx="604.79" cy="299.47" r="2.5" fill="#2563eb"/>
  <circle cx="606.01" cy="259.82" r="2.5" fill="#2563eb"/>
  <circle cx="607.23" cy="338.96" r="2.5" fill="#2563eb"/>
  <circle cx="608.45" cy="299.31" r="2.5" fill="#2563eb"/>
  <circle cx="609.67" cy="299.31" r="2.5" fill="#2563eb"/>
  <circle cx="610.88" cy="299.26" r="2.5" fill="#2563eb"/>
  <circle cx="612.10" cy="299.68" r="2.5" fill="#2563eb"/>
  <circle cx="613.32" cy="299.68" r="2.5" fill="#2563eb"/>
  <circle cx="614.54" cy="299.68" r="2.5" fill="#2563eb"/>
  <circle cx="615.76" cy="299.64" r="2.5" fill="#2563eb"/>
  <circle cx="616.97" cy="299.14" r="2.5" fill="#2563eb"/>
  <circle cx="618.19" cy="299.14" r="2.5" fill="#2563eb"/>
  <circle cx="619.41" cy="299.10" r="2.5" fill="#2563eb"/>
  <circle cx="620.63" cy="299.10" r="2.5" fill="#2563eb"/>
  <circle cx="621.85" cy="299.10" r="2.5" fill="#2563eb"/>
  <circle cx="623.07" cy="248.07" r="2.5" fill="#2563eb"/>
  <circle cx="624.28" cy="299.06" r="2.5" fill="#2563eb"/>
  <circle cx="625.50" cy="299.06" r="2.5" fill="#2563eb"/>
  <circle cx="626.72" cy="299.06" r="2.5" fill="#2563eb"/>
  <circle cx="627.94" cy="299.06" r="2.5" fill="#2563eb"/>
  <circle cx="629.16" cy="299.06" r="2.5" fill="#2563eb"/>
  <circle cx="630.37" cy="298.97" r="2.5" fill="#2563eb"/>
  <circle cx="631.59" cy="298.97" r="2.5" fill="#2563eb"/>
  <circle cx="632.81" cy="298.93" r="2.5" fill="#2563eb"/>
  <circle cx="634.03" cy="298.97" r="2.5" fill="#2563eb"/>
  <circle cx="635.25" cy="298.93" r="2.5" fill="#2563eb"/>
  <circle cx="636.47" cy="298.89" r="2.5" fill="#2563eb"/>
  <circle cx="637.68" cy="298.89" r="2.5" fill="#2563eb"/>
  <circle cx="638.90" cy="298.89" r="2.5" fill="#2563eb"/>
  <circle cx="640.12" cy="298.89" r="2.5" fill="#2563eb"/>
  <circle cx="641.34" cy="247.78" r="2.5" fill="#2563eb"/>
  <circle cx="642.56" cy="298.89" r="2.5" fill="#2563eb"/>
  <circle cx="643.78" cy="298.89" r="2.5" fill="#2563eb"/>
  <circle cx="644.99" cy="298.85" r="2.5" fill="#2563eb"/>
  <circle cx="646.21" cy="298.85" r="2.5" fill="#2563eb"/>
  <circle cx="647.43" cy="298.81" r="2.5" fill="#2563eb"/>
  <circle cx="648.65" cy="298.81" r="2.5" fill="#2563eb"/>
  <circle cx="649.87" cy="298.81" r="2.5" fill="#2563eb"/>
  <circle cx="651.08" cy="298.81" r="2.5" fill="#2563eb"/>
  <circle cx="652.30" cy="298.81" r="2.5" fill="#2563eb"/>
  <circle cx="653.52" cy="298.81" r="2.5" fill="#2563eb"/>
  <circle cx="654.74" cy="298.81" r="2.5" fill="#2563eb"/>
  <circle cx="655.96" cy="298.81" r="2.5" fill="#2563eb"/>
  <circle cx="657.18" cy="298.81" r="2.5" fill="#2563eb"/>
  <circle cx="658.39" cy="298.72" r="2.5" fill="#2563eb"/>
  <circle cx="659.61" cy="247.45" r="2.5" fill="#2563eb"/>
  <circle cx="660.83" cy="247.45" r="2.5" fill="#2563eb"/>
  <circle cx="662.05" cy="298.72" r="2.5" fill="#2563eb"/>
  <circle cx="663.27" cy="298.72" r="2.5" fill="#2563eb"/>
  <circle cx="664.48" cy="298.72" r="2.5" fill="#2563eb"/>
  <circle cx="665.70" cy="298.72" r="2.5" fill="#2563eb"/>
  <circle cx="666.92" cy="298.72" r="2.5" fill="#2563eb"/>
  <circle cx="668.14" cy="298.72" r="2.5" fill="#2563eb"/>
  <circle cx="669.36" cy="247.36" r="2.5" fill="#2563eb"/>
  <circle cx="670.58" cy="298.68" r="2.5" fill="#2563eb"/>
  <circle cx="671.79" cy="247.36" r="2.5" fill="#2563eb"/>
  <circle cx="673.01" cy="247.36" r="2.5" fill="#2563eb"/>
  <circle cx="674.23" cy="247.36" r="2.5" fill="#2563eb"/>
  <circle cx="675.45" cy="298.68" r="2.5" fill="#2563eb"/>
  <circle cx="676.67" cy="298.68" r="2.5" fill="#2563eb"/>
  <circle cx="677.88" cy="298.68" r="2.5" fill="#2563eb"/>
  <circle cx="679.10" cy="298.68" r="2.5" fill="#2563eb"/>
  <circle cx="680.32" cy="298.68" r="2.5" fill="#2563eb"/>
  <circle cx="681.54" cy="341.67" r="2.5" fill="#2563eb"/>
  <circle cx="682.76" cy="307.01" r="2.5" fill="#2563eb"/>
  <circle cx="683.98" cy="298.68" r="2.5" fill="#2563eb"/>
  <circle cx="685.19" cy="298.68" r="2.5" fill="#2563eb"/>
  <circle cx="686.41" cy="298.68" r="2.5" fill="#2563eb"/>
  <circle cx="687.63" cy="247.36" r="2.5" fill="#2563eb"/>
  <circle cx="688.85" cy="298.64" r="2.5" fill="#2563eb"/>
  <circle cx="690.07" cy="247.36" r="2.5" fill="#2563eb"/>
  <circle cx="691.29" cy="247.28" r="2.5" fill="#2563eb"/>
  <circle cx="692.50" cy="247.20" r="2.5" fill="#2563eb"/>
  <circle cx="693.72" cy="298.60" r="2.5" fill="#2563eb"/>
  <circle cx="694.94" cy="298.60" r="2.5" fill="#2563eb"/>
  <circle cx="696.16" cy="247.03" r="2.5" fill="#2563eb"/>
  <circle cx="697.38" cy="298.51" r="2.5" fill="#2563eb"/>
  <circle cx="698.59" cy="298.51" r="2.5" fill="#2563eb"/>
  <circle cx="699.81" cy="298.51" r="2.5" fill="#2563eb"/>
  <circle cx="701.03" cy="298.51" r="2.5" fill="#2563eb"/>
  <circle cx="702.25" cy="298.51" r="2.5" fill="#2563eb"/>
  <circle cx="703.47" cy="298.51" r="2.5" fill="#2563eb"/>
  <circle cx="704.69" cy="298.51" r="2.5" fill="#2563eb"/>
  <circle cx="705.90" cy="298.51" r="2.5" fill="#2563eb"/>
  <circle cx="707.12" cy="298.51" r="2.5" fill="#2563eb"/>
  <circle cx="708.34" cy="298.51" r="2.5" fill="#2563eb"/>
  <circle cx="709.56" cy="298.51" r="2.5" fill="#2563eb"/>
  <circle cx="710.78" cy="298.51" r="2.5" fill="#2563eb"/>
  <circle cx="711.99" cy="298.51" r="2.5" fill="#2563eb"/>
  <circle cx="713.21" cy="298.51" r="2.5" fill="#2563eb"/>
  <circle cx="714.43" cy="298.51" r="2.5" fill="#2563eb"/>
  <circle cx="715.65" cy="298.51" r="2.5" fill="#2563eb"/>
  <circle cx="716.87" cy="298.51" r="2.5" fill="#2563eb"/>
  <circle cx="718.09" cy="298.51" r="2.5" fill="#2563eb"/>
  <circle cx="719.30" cy="298.51" r="2.5" fill="#2563eb"/>
  <circle cx="720.52" cy="298.51" r="2.5" fill="#2563eb"/>
  <circle cx="721.74" cy="298.51" r="2.5" fill="#2563eb"/>
  <circle cx="722.96" cy="298.51" r="2.5" fill="#2563eb"/>
  <circle cx="724.18" cy="298.51" r="2.5" fill="#2563eb"/>
  <circle cx="725.39" cy="298.51" r="2.5" fill="#2563eb"/>
  <circle cx="726.61" cy="298.51" r="2.5" fill="#2563eb"/>
  <circle cx="727.83" cy="298.51" r="2.5" fill="#2563eb"/>
  <circle cx="729.05" cy="298.47" r="2.5" fill="#2563eb"/>
  <circle cx="730.27" cy="298.51" r="2.5" fill="#2563eb"/>
  <circle cx="731.49" cy="298.51" r="2.5" fill="#2563eb"/>
  <circle cx="732.70" cy="298.47" r="2.5" fill="#2563eb"/>
  <circle cx="733.92" cy="298.51" r="2.5" fill="#2563eb"/>
  <circle cx="735.14" cy="298.47" r="2.5" fill="#2563eb"/>
  <circle cx="736.36" cy="298.51" r="2.5" fill="#2563eb"/>
  <circle cx="737.58" cy="298.43" r="2.5" fill="#2563eb"/>
  <circle cx="738.80" cy="298.56" r="2.5" fill="#2563eb"/>
  <circle cx="740.01" cy="298.43" r="2.5" fill="#2563eb"/>
  <circle cx="741.23" cy="298.43" r="2.5" fill="#2563eb"/>
  <circle cx="742.45" cy="298.43" r="2.5" fill="#2563eb"/>
  <circle cx="743.67" cy="298.43" r="2.5" fill="#2563eb"/>
  <circle cx="744.89" cy="298.43" r="2.5" fill="#2563eb"/>
  <circle cx="746.10" cy="298.43" r="2.5" fill="#2563eb"/>
  <circle cx="747.32" cy="298.43" r="2.5" fill="#2563eb"/>
  <circle cx="748.54" cy="298.43" r="2.5" fill="#2563eb"/>
  <circle cx="749.76" cy="298.43" r="2.5" fill="#2563eb"/>
  <circle cx="750.98" cy="298.43" r="2.5" fill="#2563eb"/>
  <circle cx="752.20" cy="298.43" r="2.5" fill="#2563eb"/>
  <circle cx="753.41" cy="298.43" r="2.5" fill="#2563eb"/>
  <circle cx="754.63" cy="298.43" r="2.5" fill="#2563eb"/>
  <circle cx="755.85" cy="298.43" r="2.5" fill="#2563eb"/>
  <circle cx="757.07" cy="298.43" r="2.5" fill="#2563eb"/>
  <circle cx="758.29" cy="298.43" r="2.5" fill="#2563eb"/>
  <circle cx="759.50" cy="298.43" r="2.5" fill="#2563eb"/>
  <circle cx="760.72" cy="298.43" r="2.5" fill="#2563eb"/>
  <circle cx="761.94" cy="298.43" r="2.5" fill="#2563eb"/>
  <circle cx="763.16" cy="298.43" r="2.5" fill="#2563eb"/>
  <circle cx="764.38" cy="298.43" r="2.5" fill="#2563eb"/>
  <circle cx="765.60" cy="298.43" r="2.5" fill="#2563eb"/>
  <circle cx="766.81" cy="298.43" r="2.5" fill="#2563eb"/>
  <circle cx="768.03" cy="298.43" r="2.5" fill="#2563eb"/>
  <circle cx="769.25" cy="298.43" r="2.5" fill="#2563eb"/>
  <circle cx="770.47" cy="298.43" r="2.5" fill="#2563eb"/>
  <circle cx="771.69" cy="298.43" r="2.5" fill="#2563eb"/>
  <circle cx="772.90" cy="298.43" r="2.5" fill="#2563eb"/>
  <circle cx="774.12" cy="298.43" r="2.5" fill="#2563eb"/>
  <circle cx="775.34" cy="298.43" r="2.5" fill="#2563eb"/>
  <circle cx="776.56" cy="298.43" r="2.5" fill="#2563eb"/>
  <circle cx="777.78" cy="298.43" r="2.5" fill="#2563eb"/>
  <circle cx="779.00" cy="298.43" r="2.5" fill="#2563eb"/>
  <circle cx="780.21" cy="298.43" r="2.5" fill="#2563eb"/>
  <circle cx="781.43" cy="298.39" r="2.5" fill="#2563eb"/>
  <circle cx="782.65" cy="298.39" r="2.5" fill="#2563eb"/>
  <circle cx="783.87" cy="298.43" r="2.5" fill="#2563eb"/>
  <circle cx="785.09" cy="298.43" r="2.5" fill="#2563eb"/>
  <circle cx="786.31" cy="298.39" r="2.5" fill="#2563eb"/>
  <circle cx="787.52" cy="298.39" r="2.5" fill="#2563eb"/>
  <circle cx="788.74" cy="298.39" r="2.5" fill="#2563eb"/>
  <circle cx="789.96" cy="298.43" r="2.5" fill="#2563eb"/>
  <circle cx="791.18" cy="298.43" r="2.5" fill="#2563eb"/>
  <circle cx="792.40" cy="298.43" r="2.5" fill="#2563eb"/>
  <circle cx="793.61" cy="246.82" r="2.5" fill="#2563eb"/>
  <circle cx="794.83" cy="298.43" r="2.5" fill="#2563eb"/>
  <circle cx="796.05" cy="246.78" r="2.5" fill="#2563eb"/>
  <circle cx="797.27" cy="246.78" r="2.5" fill="#2563eb"/>
  <circle cx="798.49" cy="246.78" r="2.5" fill="#2563eb"/>
  <circle cx="799.71" cy="246.70" r="2.5" fill="#2563eb"/>
  <circle cx="800.92" cy="246.78" r="2.5" fill="#2563eb"/>
  <circle cx="802.14" cy="298.39" r="2.5" fill="#2563eb"/>
  <circle cx="803.36" cy="298.39" r="2.5" fill="#2563eb"/>
  <circle cx="804.58" cy="298.39" r="2.5" fill="#2563eb"/>
  <circle cx="805.80" cy="298.39" r="2.5" fill="#2563eb"/>
  <circle cx="807.01" cy="298.39" r="2.5" fill="#2563eb"/>
  <circle cx="808.23" cy="246.78" r="2.5" fill="#2563eb"/>
  <circle cx="809.45" cy="298.39" r="2.5" fill="#2563eb"/>
  <circle cx="810.67" cy="298.39" r="2.5" fill="#2563eb"/>
  <circle cx="811.89" cy="298.39" r="2.5" fill="#2563eb"/>
  <circle cx="813.11" cy="298.39" r="2.5" fill="#2563eb"/>
  <circle cx="814.32" cy="298.39" r="2.5" fill="#2563eb"/>
  <circle cx="815.54" cy="246.78" r="2.5" fill="#2563eb"/>
  <circle cx="816.76" cy="246.78" r="2.5" fill="#2563eb"/>
  <circle cx="817.98" cy="298.39" r="2.5" fill="#2563eb"/>
  <circle cx="819.20" cy="298.39" r="2.5" fill="#2563eb"/>
  <circle cx="820.41" cy="298.39" r="2.5" fill="#2563eb"/>
  <circle cx="821.63" cy="298.39" r="2.5" fill="#2563eb"/>
  <circle cx="822.85" cy="298.39" r="2.5" fill="#2563eb"/>
  <circle cx="824.07" cy="298.39" r="2.5" fill="#2563eb"/>
  <circle cx="825.29" cy="298.39" r="2.5" fill="#2563eb"/>
  <circle cx="826.51" cy="298.39" r="2.5" fill="#2563eb"/>
  <circle cx="827.72" cy="298.39" r="2.5" fill="#2563eb"/>
  <circle cx="828.94" cy="298.39" r="2.5" fill="#2563eb"/>
  <circle cx="830.16" cy="298.39" r="2.5" fill="#2563eb"/>
  <circle cx="831.38" cy="298.39" r="2.5" fill="#2563eb"/>
  <circle cx="832.60" cy="298.39" r="2.5" fill="#2563eb"/>
  <circle cx="833.82" cy="298.39" r="2.5" fill="#2563eb"/>
  <circle cx="835.03" cy="298.35" r="2.5" fill="#2563eb"/>
  <circle cx="836.25" cy="298.39" r="2.5" fill="#2563eb"/>
  <circle cx="837.47" cy="298.39" r="2.5" fill="#2563eb"/>
  <circle cx="838.69" cy="298.35" r="2.5" fill="#2563eb"/>
  <circle cx="839.91" cy="298.35" r="2.5" fill="#2563eb"/>
  <circle cx="841.12" cy="298.35" r="2.5" fill="#2563eb"/>
  <circle cx="842.34" cy="298.35" r="2.5" fill="#2563eb"/>
  <circle cx="843.56" cy="298.35" r="2.5" fill="#2563eb"/>
  <circle cx="844.78" cy="298.35" r="2.5" fill="#2563eb"/>
  <circle cx="846.00" cy="298.35" r="2.5" fill="#2563eb"/>
  <circle cx="847.22" cy="298.35" r="2.5" fill="#2563eb"/>
  <circle cx="848.43" cy="298.35" r="2.5" fill="#2563eb"/>
  <circle cx="849.65" cy="298.35" r="2.5" fill="#2563eb"/>
  <circle cx="850.87" cy="298.35" r="2.5" fill="#2563eb"/>
  <circle cx="852.09" cy="298.35" r="2.5" fill="#2563eb"/>
  <circle cx="853.31" cy="298.35" r="2.5" fill="#2563eb"/>
  <circle cx="854.52" cy="298.35" r="2.5" fill="#2563eb"/>
  <circle cx="855.74" cy="298.35" r="2.5" fill="#2563eb"/>
  <circle cx="856.96" cy="298.35" r="2.5" fill="#2563eb"/>
  <circle cx="858.18" cy="298.35" r="2.5" fill="#2563eb"/>
  <circle cx="859.40" cy="298.35" r="2.5" fill="#2563eb"/>
  <circle cx="860.62" cy="298.35" r="2.5" fill="#2563eb"/>
  <circle cx="861.83" cy="298.35" r="2.5" fill="#2563eb"/>
  <circle cx="863.05" cy="298.35" r="2.5" fill="#2563eb"/>
  <circle cx="864.27" cy="298.35" r="2.5" fill="#2563eb"/>
  <circle cx="865.49" cy="298.35" r="2.5" fill="#2563eb"/>
  <circle cx="866.71" cy="298.35" r="2.5" fill="#2563eb"/>
  <circle cx="867.93" cy="298.35" r="2.5" fill="#2563eb"/>
  <circle cx="869.14" cy="298.35" r="2.5" fill="#2563eb"/>
  <circle cx="870.36" cy="298.35" r="2.5" fill="#2563eb"/>
  <circle cx="871.58" cy="298.35" r="2.5" fill="#2563eb"/>
  <circle cx="872.80" cy="298.35" r="2.5" fill="#2563eb"/>
  <circle cx="874.02" cy="298.35" r="2.5" fill="#2563eb"/>
  <circle cx="875.23" cy="298.35" r="2.5" fill="#2563eb"/>
  <circle cx="876.45" cy="298.35" r="2.5" fill="#2563eb"/>
  <circle cx="877.67" cy="298.35" r="2.5" fill="#2563eb"/>
  <circle cx="878.89" cy="298.35" r="2.5" fill="#2563eb"/>
  <circle cx="880.11" cy="298.35" r="2.5" fill="#2563eb"/>
  <circle cx="881.33" cy="298.35" r="2.5" fill="#2563eb"/>
  <circle cx="882.54" cy="298.35" r="2.5" fill="#2563eb"/>
  <circle cx="883.76" cy="298.35" r="2.5" fill="#2563eb"/>
  <circle cx="884.98" cy="298.35" r="2.5" fill="#2563eb"/>
  <circle cx="886.20" cy="298.35" r="2.5" fill="#2563eb"/>
  <circle cx="887.42" cy="298.35" r="2.5" fill="#2563eb"/>
  <circle cx="888.63" cy="298.35" r="2.5" fill="#2563eb"/>
  <circle cx="889.85" cy="298.35" r="2.5" fill="#2563eb"/>
  <circle cx="891.07" cy="298.35" r="2.5" fill="#2563eb"/>
  <circle cx="892.29" cy="298.35" r="2.5" fill="#2563eb"/>
  <circle cx="893.51" cy="298.35" r="2.5" fill="#2563eb"/>
  <circle cx="894.73" cy="298.35" r="2.5" fill="#2563eb"/>
  <circle cx="895.94" cy="298.35" r="2.5" fill="#2563eb"/>
  <circle cx="897.16" cy="298.35" r="2.5" fill="#2563eb"/>
  <circle cx="898.38" cy="298.35" r="2.5" fill="#2563eb"/>
  <circle cx="899.60" cy="298.35" r="2.5" fill="#2563eb"/>
  <circle cx="900.82" cy="298.35" r="2.5" fill="#2563eb"/>
  <circle cx="902.03" cy="298.39" r="2.5" fill="#2563eb"/>
  <circle cx="903.25" cy="298.39" r="2.5" fill="#2563eb"/>
  <circle cx="904.47" cy="298.39" r="2.5" fill="#2563eb"/>
  <circle cx="905.69" cy="246.78" r="2.5" fill="#2563eb"/>
  <circle cx="906.91" cy="298.39" r="2.5" fill="#2563eb"/>
  <circle cx="908.13" cy="298.39" r="2.5" fill="#2563eb"/>
  <circle cx="909.34" cy="298.39" r="2.5" fill="#2563eb"/>
  <circle cx="910.56" cy="298.39" r="2.5" fill="#2563eb"/>
  <circle cx="911.78" cy="298.39" r="2.5" fill="#2563eb"/>
  <circle cx="913.00" cy="298.39" r="2.5" fill="#2563eb"/>
  <circle cx="914.22" cy="298.39" r="2.5" fill="#2563eb"/>
  <circle cx="915.44" cy="246.78" r="2.5" fill="#2563eb"/>
  <circle cx="916.65" cy="298.39" r="2.5" fill="#2563eb"/>
  <circle cx="917.87" cy="298.39" r="2.5" fill="#2563eb"/>
  <circle cx="919.09" cy="298.39" r="2.5" fill="#2563eb"/>
  <circle cx="920.31" cy="298.39" r="2.5" fill="#2563eb"/>
  <circle cx="921.53" cy="298.39" r="2.5" fill="#2563eb"/>
  <circle cx="922.74" cy="298.39" r="2.5" fill="#2563eb"/>
  <circle cx="923.96" cy="298.39" r="2.5" fill="#2563eb"/>
  <circle cx="925.18" cy="246.78" r="2.5" fill="#2563eb"/>
  <circle cx="926.40" cy="298.39" r="2.5" fill="#2563eb"/>
  <circle cx="927.62" cy="298.39" r="2.5" fill="#2563eb"/>
  <circle cx="928.84" cy="298.39" r="2.5" fill="#2563eb"/>
  <circle cx="930.05" cy="298.39" r="2.5" fill="#2563eb"/>
  <circle cx="931.27" cy="298.39" r="2.5" fill="#2563eb"/>
  <circle cx="932.49" cy="298.39" r="2.5" fill="#2563eb"/>
  <circle cx="933.71" cy="298.39" r="2.5" fill="#2563eb"/>
  <circle cx="934.93" cy="298.39" r="2.5" fill="#2563eb"/>
  <circle cx="936.14" cy="298.39" r="2.5" fill="#2563eb"/>
  <circle cx="937.36" cy="298.39" r="2.5" fill="#2563eb"/>
  <circle cx="938.58" cy="298.39" r="2.5" fill="#2563eb"/>
  <circle cx="939.80" cy="298.35" r="2.5" fill="#2563eb"/>
  <circle cx="941.02" cy="298.39" r="2.5" fill="#2563eb"/>
  <circle cx="942.24" cy="298.39" r="2.5" fill="#2563eb"/>
  <circle cx="943.45" cy="298.39" r="2.5" fill="#2563eb"/>
  <circle cx="944.67" cy="298.35" r="2.5" fill="#2563eb"/>
  <circle cx="945.89" cy="298.35" r="2.5" fill="#2563eb"/>
  <circle cx="947.11" cy="298.35" r="2.5" fill="#2563eb"/>
  <circle cx="948.33" cy="298.35" r="2.5" fill="#2563eb"/>
  <circle cx="949.54" cy="298.35" r="2.5" fill="#2563eb"/>
  <circle cx="950.76" cy="298.35" r="2.5" fill="#2563eb"/>
  <circle cx="951.98" cy="298.35" r="2.5" fill="#2563eb"/>
  <circle cx="953.20" cy="298.35" r="2.5" fill="#2563eb"/>
  <circle cx="954.42" cy="298.35" r="2.5" fill="#2563eb"/>
  <circle cx="955.64" cy="298.35" r="2.5" fill="#2563eb"/>
  <circle cx="956.85" cy="298.35" r="2.5" fill="#2563eb"/>
  <circle cx="958.07" cy="298.35" r="2.5" fill="#2563eb"/>
  <circle cx="959.29" cy="298.35" r="2.5" fill="#2563eb"/>
  <circle cx="960.51" cy="298.35" r="2.5" fill="#2563eb"/>
  <circle cx="961.73" cy="298.35" r="2.5" fill="#2563eb"/>
  <circle cx="962.95" cy="298.35" r="2.5" fill="#2563eb"/>
  <circle cx="964.16" cy="298.39" r="2.5" fill="#2563eb"/>
  <circle cx="965.38" cy="298.39" r="2.5" fill="#2563eb"/>
  <circle cx="966.60" cy="298.39" r="2.5" fill="#2563eb"/>
  <circle cx="967.82" cy="298.39" r="2.5" fill="#2563eb"/>
  <circle cx="969.04" cy="298.39" r="2.5" fill="#2563eb"/>
  <circle cx="970.25" cy="298.39" r="2.5" fill="#2563eb"/>
  <circle cx="971.47" cy="298.35" r="2.5" fill="#2563eb"/>
  <circle cx="972.69" cy="298.39" r="2.5" fill="#2563eb"/>
  <circle cx="973.91" cy="298.39" r="2.5" fill="#2563eb"/>
  <circle cx="975.13" cy="298.39" r="2.5" fill="#2563eb"/>
  <circle cx="976.35" cy="298.39" r="2.5" fill="#2563eb"/>
  <circle cx="977.56" cy="298.39" r="2.5" fill="#2563eb"/>
  <circle cx="978.78" cy="298.39" r="2.5" fill="#2563eb"/>
  <circle cx="980.00" cy="298.39" r="2.5" fill="#2563eb"/>
</svg>
