<?xml version="1.0" encoding="UTF-8"?>
<svg xmlns="http://www.w3.org/2000/svg" width="1000" height="420" viewBox="0 0 1000 420">
  <rect width="100%" height="100%" fill="#ffffff"/>
  <text x="70" y="28" font-size="20" font-weight="600">수집 시점 기준 - 시간별 스냅샷</text>
  <text x="70" y="402" font-size="12" fill="#555">스냅샷 수</text>
  <line x1="70" y1="350.00" x2="980" y2="350.00" stroke="#e5e7eb" stroke-width="1"/>
  <text x="62" y="354.00" font-size="11" fill="#6b7280" text-anchor="end">0</text>
  <line x1="70" y1="290.00" x2="980" y2="290.00" stroke="#e5e7eb" stroke-width="1"/>
  <text x="62" y="294.00" font-size="11" fill="#6b7280" text-anchor="end">1,440</text>
  <line x1="70" y1="230.00" x2="980" y2="230.00" stroke="#e5e7eb" stroke-width="1"/>
  <text x="62" y="234.00" font-size="11" fill="#6b7280" text-anchor="end">2,880</text>
  <line x1="70" y1="170.00" x2="980" y2="170.00" stroke="#e5e7eb" stroke-width="1"/>
  <text x="62" y="174.00" font-size="11" fill="#6b7280" text-anchor="end">4,321</text>
  <line x1="70" y1="110.00" x2="980" y2="110.00" stroke="#e5e7eb" stroke-width="1"/>
  <text x="62" y="114.00" font-size="11" fill="#6b7280" text-anchor="end">5,761</text>
  <line x1="70" y1="50.00" x2="980" y2="50.00" stroke="#e5e7eb" stroke-width="1"/>
  <text x="62" y="54.00" font-size="11" fill="#6b7280" text-anchor="end">7,202</text>
  <line x1="70" y1="350" x2="980" y2="350" stroke="#111827" stroke-width="1.2"/>
  <line x1="70" y1="50" x2="70" y2="350" stroke="#111827" stroke-width="1.2"/>
  <line x1="70.00" y1="350" x2="70.00" y2="356" stroke="#9ca3af" stroke-width="1"/>
  <text x="70.00" y="372" font-size="10" fill="#6b7280" text-anchor="middle">2026-02-28 18</text>
  <line x1="145.83" y1="350" x2="145.83" y2="356" stroke="#9ca3af" stroke-width="1"/>
  <text x="145.83" y="372" font-size="10" fill="#6b7280" text-anchor="middle">2026-03-08 16</text>
  <line x1="221.67" y1="350" x2="221.67" y2="356" stroke="#9ca3af" stroke-width="1"/>
  <text x="221.67" y="372" font-size="10" fill="#6b7280" text-anchor="middle">2026-03-10 07</text>
  <line x1="297.50" y1="350" x2="297.50" y2="356" stroke="#9ca3af" stroke-width="1"/>
  <text x="297.50" y="372" font-size="10" fill="#6b7280" text-anchor="middle">2026-03-12 00</text>
  <line x1="373.33" y1="350" x2="373.33" y2="356" stroke="#9ca3af" stroke-width="1"/>
  <text x="373.33" y="372" font-size="10" fill="#6b7280" text-anchor="middle">2026-03-13 17</text>
  <line x1="449.17" y1="350" x2="449.17" y2="356" stroke="#9ca3af" stroke-width="1"/>
  <text x="449.17" y="372" font-size="10" fill="#6b7280" text-anchor="middle">2026-03-15 18</text>
  <line x1="525.00" y1="350" x2="525.00" y2="356" stroke="#9ca3af" stroke-width="1"/>
  <text x="525.00" y="372" font-size="10" fill="#6b7280" text-anchor="middle">2026-03-18 04</text>
  <line x1="600.83" y1="350" x2="600.83" y2="356" stroke="#9ca3af" stroke-width="1"/>
  <text x="600.83" y="372" font-size="10" fill="#6b7280" text-anchor="middle">2026-03-20 15</text>
  <line x1="676.67" y1="350" x2="676.67" y2="356" stroke="#9ca3af" stroke-width="1"/>
  <text x="676.67" y="372" font-size="10" fill="#6b7280" text-anchor="middle">2026-03-22 16</text>
  <line x1="752.50" y1="350" x2="752.50" y2="356" stroke="#9ca3af" stroke-width="1"/>
  <text x="752.50" y="372" font-size="10" fill="#6b7280" text-anchor="middle">2026-03-25 00</text>
  <line x1="828.33" y1="350" x2="828.33" y2="356" stroke="#9ca3af" stroke-width="1"/>
  <text x="828.33" y="372" font-size="10" fill="#6b7280" text-anchor="middle">2026-03-27 16</text>
  <line x1="904.17" y1="350" x2="904.17" y2="356" stroke="#9ca3af" stroke-width="1"/>
  <text x="904.17" y="372" font-size="10" fill="#6b7280" text-anchor="middle">2026-03-30 02</text>
  <line x1="980.00" y1="350" x2="980.00" y2="356" stroke="#9ca3af" stroke-width="1"/>
  <text x="980.00" y="372" font-size="10" fill="#6b7280" text-anchor="middle">2026-04-01 17</text>
  <polyline fill="none" stroke="#2563eb" stroke-width="2.5" points="70.00,50.00 72.05,50.12 74.10,50.17 76.15,50.46 78.20,50.00 80.25,266.90 82.30,50.12 84.35,50.08 86.40,177.46 88.45,211.58 90.50,175.34 92.55,304.14 94.59,200.46 96.64,250.94 98.69,300.01 100.74,300.06 102.79,300.01 104.84,300.01 106.89,348.00 108.94,300.01 110.99,249.99 113.04,200.00 115.09,249.99 117.14,249.99 119.19,250.03 121.24,250.03 123.29,250.03 125.34,250.40 127.39,250.90 129.44,250.90 131.49,251.32 133.54,249.94 135.59,300.01 137.64,299.93 139.68,251.03 141.73,300.68 143.78,250.03 145.83,200.00 147.88,249.99 149.93,250.03 151.98,250.03 154.03,250.03 156.08,300.01 158.13,200.04 160.18,250.03 162.23,250.03 164.28,250.03 166.33,249.90 168.38,250.03 170.43,250.03 172.48,250.94 174.53,250.44 176.58,250.03 178.63,250.03 180.68,300.47 182.73,300.01 184.77,300.43 186.82,250.03 188.87,249.99 190.92,300.43 192.97,249.90 195.02,249.99 197.07,249.99 199.12,200.04 201.17,300.01 203.22,300.01 205.27,300.01 207.32,249.90 209.37,300.01 211.42,250.03 213.47,249.99 215.52,199.96 217.57,300.01 219.62,200.00 221.67,250.36 223.72,250.03 225.77,300.01 227.82,300.01 229.86,250.44 231.91,300.01 233.96,250.03 236.01,250.03 238.06,249.99 240.11,250.49 242.16,250.03 244.21,200.04 246.26,300.01 248.31,250.03 250.36,300.01 252.41,250.11 254.46,300.01 256.51,250.03 258.56,250.03 260.61,199.92 262.66,250.03 264.71,250.03 266.76,250.03 268.81,254.36 270.86,300.01 272.91,299.97 274.95,250.36 277.00,299.97 279.05,250.03 281.10,250.03 283.15,250.03 285.20,250.03 287.25,249.99 289.30,200.00 291.35,299.93 293.40,300.01 295.45,299.97 297.50,249.94 299.55,249.99 301.60,249.82 303.65,249.94 305.70,250.28 307.75,207.00 309.80,250.03 311.85,250.32 313.90,250.40 315.95,300.93 318.00,300.01 320.05,300.10 322.09,249.94 324.14,249.99 326.19,250.07 328.24,249.99 330.29,250.03 332.34,249.94 334.39,200.00 336.44,300.39 338.49,300.01 340.54,300.01 342.59,250.44 344.64,300.39 346.69,249.86 348.74,250.11 350.79,201.46 352.84,300.01 354.89,200.83 356.94,250.03 358.99,249.99 361.04,300.26 363.09,300.01 365.14,300.01 367.18,250.03 369.23,250.03 371.28,250.03 373.33,250.03 375.38,249.99 377.43,250.03 379.48,200.00 381.53,300.26 383.58,249.99 385.63,300.01 387.68,249.94 389.73,250.03 391.78,250.03 393.83,250.03 395.88,200.04 397.93,300.01 399.98,249.90 402.03,300.01 404.08,300.01 406.13,300.06 408.18,300.01 410.23,300.01 412.27,243.95 414.32,249.94 416.37,299.97 418.42,300.01 420.47,300.01 422.52,250.03 424.57,300.01 426.62,300.01 428.67,299.97 430.72,249.99 432.77,300.01 434.82,299.93 436.87,300.01 438.92,299.93 440.97,300.01 443.02,300.01 445.07,299.89 447.12,299.97 449.17,250.03 451.22,299.93 453.27,299.89 455.32,299.97 457.36,249.94 459.41,300.01 461.46,300.01 463.51,299.97 465.56,249.99 467.61,299.97 469.66,299.97 471.71,300.06 473.76,300.06 475.81,299.93 477.86,300.01 479.91,300.01 481.96,299.93 484.01,300.01 486.06,300.01 488.11,299.97 490.16,300.01 492.21,300.01 494.26,300.01 496.31,300.01 498.36,249.86 500.41,300.01 502.45,300.10 504.50,299.93 506.55,300.01 508.60,299.93 510.65,300.01 512.70,300.01 514.75,300.01 516.80,300.01 518.85,300.01 520.90,299.97 522.95,300.01 525.00,300.01 527.05,300.01 529.10,300.01 531.15,250.03 533.20,300.01 535.25,300.01 537.30,299.97 539.35,300.01 541.40,300.01 543.45,299.97 545.50,299.97 547.55,300.01 549.59,299.97 551.64,300.01 553.69,299.93 555.74,300.01 557.79,250.03 559.84,300.01 561.89,300.01 563.94,300.01 565.99,300.01 568.04,300.01 570.09,299.89 572.14,300.01 574.19,300.01 576.24,250.07 578.29,300.01 580.34,299.93 582.39,300.01 584.44,299.97 586.49,299.97 588.54,299.97 590.59,250.03 592.64,300.01 594.68,300.01 596.73,300.01 598.78,300.01 600.83,299.97 602.88,300.01 604.93,299.97 606.98,300.01 609.03,299.97 611.08,249.90 613.13,300.01 615.18,300.01 617.23,299.89 619.28,299.97 621.33,299.97 623.38,249.99 625.43,299.97 627.48,299.89 629.53,300.01 631.58,299.97 633.63,299.97 635.68,300.01 637.73,299.97 639.77,249.99 641.82,299.97 643.87,299.97 645.92,300.06 647.97,300.06 650.02,249.94 652.07,300.01 654.12,299.93 656.17,300.01 658.22,300.01 660.27,249.99 662.32,300.01 664.37,300.01 666.42,300.01 668.47,299.93 670.52,299.93 672.57,300.01 674.62,300.01 676.67,249.94 678.72,299.97 680.77,299.97 682.82,300.01 684.86,300.01 686.91,300.01 688.96,249.99 691.01,300.01 693.06,300.01 695.11,300.01 697.16,250.03 699.21,300.01 701.26,300.01 703.31,300.01 705.36,299.97 707.41,300.01 709.46,300.01 711.51,299.97 713.56,299.97 715.61,300.01 717.66,300.01 719.71,299.97 721.76,299.93 723.81,300.01 725.86,300.06 727.91,299.97 729.95,300.01 732.00,250.03 734.05,250.03 736.10,299.93 738.15,299.97 740.20,300.01 742.25,300.01 744.30,300.06 746.35,300.01 748.40,299.93 750.45,300.01 752.50,300.01 754.55,299.97 756.60,299.97 758.65,300.01 760.70,250.03 762.75,300.01 764.80,300.01 766.85,300.01 768.90,299.97 770.95,300.01 773.00,299.97 775.05,300.01 777.09,299.97 779.14,299.97 781.19,299.93 783.24,300.01 785.29,300.01 787.34,299.89 789.39,299.97 791.44,299.97 793.49,300.06 795.54,249.90 797.59,299.89 799.64,300.01 801.69,299.97 803.74,299.97 805.79,299.97 807.84,300.01 809.89,300.01 811.94,299.97 813.99,299.97 816.04,299.97 818.09,250.03 820.14,299.93 822.18,300.01 824.23,300.01 826.28,299.93 828.33,300.01 830.38,300.01 832.43,299.97 834.48,300.01 836.53,300.01 838.58,300.06 840.63,300.01 842.68,299.97 844.73,299.89 846.78,300.01 848.83,300.01 850.88,249.94 852.93,249.94 854.98,300.01 857.03,300.01 859.08,300.01 861.13,300.01 863.18,299.97 865.23,250.03 867.27,300.01 869.32,300.01 871.37,300.01 873.42,300.01 875.47,250.03 877.52,249.99 879.57,300.01 881.62,299.97 883.67,300.01 885.72,299.97 887.77,300.01 889.82,299.97 891.87,299.97 893.92,299.97 895.97,300.06 898.02,249.99 900.07,300.01 902.12,250.03 904.17,249.94 906.22,249.99 908.27,300.01 910.32,300.06 912.36,300.01 914.41,299.97 916.46,299.97 918.51,300.01 920.56,299.93 922.61,299.89 924.66,299.89 926.71,299.89 928.76,299.89 930.81,299.85 932.86,299.85 934.91,299.89 936.96,299.81 939.01,299.81 941.06,299.81 943.11,299.76 945.16,299.76 947.21,299.76 949.26,299.72 951.31,299.68 953.36,299.60 955.41,299.60 957.45,299.60 959.50,299.56 961.55,299.47 963.60,299.43 965.65,299.43 967.70,299.39 969.75,299.47 971.80,259.82 973.85,338.96 975.90,299.31 977.95,299.31 980.00,299.26"/>
  <circle cx="70.00" cy="50.00" r="2.5" fill="#2563eb"/>
  <circle cx="72.05" cy="50.12" r="2.5" fill="#2563eb"/>
  <circle cx="74.10" cy="50.17" r="2.5" fill="#2563eb"/>
  <circle cx="76.15" cy="50.46" r="2.5" fill="#2563eb"/>
  <circle cx="78.20" cy="50.00" r="2.5" fill="#2563eb"/>
  <circle cx="80.25" cy="266.90" r="2.5" fill="#2563eb"/>
  <circle cx="82.30" cy="50.12" r="2.5" fill="#2563eb"/>
  <circle cx="84.35" cy="50.08" r="2.5" fill="#2563eb"/>
  <circle cx="86.40" cy="177.46" r="2.5" fill="#2563eb"/>
  <circle cx="88.45" cy="211.58" r="2.5" fill="#2563eb"/>
  <circle cx="90.50" cy="175.34" r="2.5" fill="#2563eb"/>
  <circle cx="92.55" cy="304.14" r="2.5" fill="#2563eb"/>
  <circle cx="94.59" cy="200.46" r="2.5" fill="#2563eb"/>
  <circle cx="96.64" cy="250.94" r="2.5" fill="#2563eb"/>
  <circle cx="98.69" cy="300.01" r="2.5" fill="#2563eb"/>
  <circle cx="100.74" cy="300.06" r="2.5" fill="#2563eb"/>
  <circle cx="102.79" cy="300.01" r="2.5" fill="#2563eb"/>
  <circle cx="104.84" cy="300.01" r="2.5" fill="#2563eb"/>
  <circle cx="106.89" cy="348.00" r="2.5" fill="#2563eb"/>
  <circle cx="108.94" cy="300.01" r="2.5" fill="#2563eb"/>
  <circle cx="110.99" cy="249.99" r="2.5" fill="#2563eb"/>
  <circle cx="113.04" cy="200.00" r="2.5" fill="#2563eb"/>
  <circle cx="115.09" cy="249.99" r="2.5" fill="#2563eb"/>
  <circle cx="117.14" cy="249.99" r="2.5" fill="#2563eb"/>
  <circle cx="119.19" cy="250.03" r="2.5" fill="#2563eb"/>
  <circle cx="121.24" cy="250.03" r="2.5" fill="#2563eb"/>
  <circle cx="123.29" cy="250.03" r="2.5" fill="#2563eb"/>
  <circle cx="125.34" cy="250.40" r="2.5" fill="#2563eb"/>
  <circle cx="127.39" cy="250.90" r="2.5" fill="#2563eb"/>
  <circle cx="129.44" cy="250.90" r="2.5" fill="#2563eb"/>
  <circle cx="131.49" cy="251.32" r="2.5" fill="#2563eb"/>
  <circle cx="133.54" cy="249.94" r="2.5" fill="#2563eb"/>
  <circle cx="135.59" cy="300.01" r="2.5" fill="#2563eb"/>
  <circle cx="137.64" cy="299.93" r="2.5" fill="#2563eb"/>
  <circle cx="139.68" cy="251.03" r="2.5" fill="#2563eb"/>
  <circle cx="141.73" cy="300.68" r="2.5" fill="#2563eb"/>
  <circle cx="143.78" cy="250.03" r="2.5" fill="#2563eb"/>
  <circle cx="145.83" cy="200.00" r="2.5" fill="#2563eb"/>
  <circle cx="147.88" cy="249.99" r="2.5" fill="#2563eb"/>
  <circle cx="149.93" cy="250.03" r="2.5" fill="#2563eb"/>
  <circle cx="151.98" cy="250.03" r="2.5" fill="#2563eb"/>
  <circle cx="154.03" cy="250.03" r="2.5" fill="#2563eb"/>
  <circle cx="156.08" cy="300.01" r="2.5" fill="#2563eb"/>
  <circle cx="158.13" cy="200.04" r="2.5" fill="#2563eb"/>
  <circle cx="160.18" cy="250.03" r="2.5" fill="#2563eb"/>
  <circle cx="162.23" cy="250.03" r="2.5" fill="#2563eb"/>
  <circle cx="164.28" cy="250.03" r="2.5" fill="#2563eb"/>
  <circle cx="166.33" cy="249.90" r="2.5" fill="#2563eb"/>
  <circle cx="168.38" cy="250.03" r="2.5" fill="#2563eb"/>
  <circle cx="170.43" cy="250.03" r="2.5" fill="#2563eb"/>
  <circle cx="172.48" cy="250.94" r="2.5" fill="#2563eb"/>
  <circle cx="174.53" cy="250.44" r="2.5" fill="#2563eb"/>
  <circle cx="176.58" cy="250.03" r="2.5" fill="#2563eb"/>
  <circle cx="178.63" cy="250.03" r="2.5" fill="#2563eb"/>
  <circle cx="180.68" cy="300.47" r="2.5" fill="#2563eb"/>
  <circle cx="182.73" cy="300.01" r="2.5" fill="#2563eb"/>
  <circle cx="184.77" cy="300.43" r="2.5" fill="#2563eb"/>
  <circle cx="186.82" cy="250.03" r="2.5" fill="#2563eb"/>
  <circle cx="188.87" cy="249.99" r="2.5" fill="#2563eb"/>
  <circle cx="190.92" cy="300.43" r="2.5" fill="#2563eb"/>
  <circle cx="192.97" cy="249.90" r="2.5" fill="#2563eb"/>
  <circle cx="195.02" cy="249.99" r="2.5" fill="#2563eb"/>
  <circle cx="197.07" cy="249.99" r="2.5" fill="#2563eb"/>
  <circle cx="199.12" cy="200.04" r="2.5" fill="#2563eb"/>
  <circle cx="201.17" cy="300.01" r="2.5" fill="#2563eb"/>
  <circle cx="203.22" cy="300.01" r="2.5" fill="#2563eb"/>
  <circle cx="205.27" cy="300.01" r="2.5" fill="#2563eb"/>
  <circle cx="207.32" cy="249.90" r="2.5" fill="#2563eb"/>
  <circle cx="209.37" cy="300.01" r="2.5" fill="#2563eb"/>
  <circle cx="211.42" cy="250.03" r="2.5" fill="#2563eb"/>
  <circle cx="213.47" cy="249.99" r="2.5" fill="#2563eb"/>
  <circle cx="215.52" cy="199.96" r="2.5" fill="#2563eb"/>
  <circle cx="217.57" cy="300.01" r="2.5" fill="#2563eb"/>
  <circle cx="219.62" cy="200.00" r="2.5" fill="#2563eb"/>
  <circle cx="221.67" cy="250.36" r="2.5" fill="#2563eb"/>
  <circle cx="223.72" cy="250.03" r="2.5" fill="#2563eb"/>
  <circle cx="225.77" cy="300.01" r="2.5" fill="#2563eb"/>
  <circle cx="227.82" cy="300.01" r="2.5" fill="#2563eb"/>
  <circle cx="229.86" cy="250.44" r="2.5" fill="#2563eb"/>
  <circle cx="231.91" cy="300.01" r="2.5" fill="#2563eb"/>
  <circle cx="233.96" cy="250.03" r="2.5" fill="#2563eb"/>
  <circle cx="236.01" cy="250.03" r="2.5" fill="#2563eb"/>
  <circle cx="238.06" cy="249.99" r="2.5" fill="#2563eb"/>
  <circle cx="240.11" cy="250.49" r="2.5" fill="#2563eb"/>
  <circle cx="242.16" cy="250.03" r="2.5" fill="#2563eb"/>
  <circle cx="244.21" cy="200.04" r="2.5" fill="#2563eb"/>
  <circle cx="246.26" cy="300.01" r="2.5" fill="#2563eb"/>
  <circle cx="248.31" cy="250.03" r="2.5" fill="#2563eb"/>
  <circle cx="250.36" cy="300.01" r="2.5" fill="#2563eb"/>
  <circle cx="252.41" cy="250.11" r="2.5" fill="#2563eb"/>
  <circle cx="254.46" cy="300.01" r="2.5" fill="#2563eb"/>
  <circle cx="256.51" cy="250.03" r="2.5" fill="#2563eb"/>
  <circle cx="258.56" cy="250.03" r="2.5" fill="#2563eb"/>
  <circle cx="260.61" cy="199.92" r="2.5" fill="#2563eb"/>
  <circle cx="262.66" cy="250.03" r="2.5" fill="#2563eb"/>
  <circle cx="264.71" cy="250.03" r="2.5" fill="#2563eb"/>
  <circle cx="266.76" cy="250.03" r="2.5" fill="#2563eb"/>
  <circle cx="268.81" cy="254.36" r="2.5" fill="#2563eb"/>
  <circle cx="270.86" cy="300.01" r="2.5" fill="#2563eb"/>
  <circle cx="272.91" cy="299.97" r="2.5" fill="#2563eb"/>
  <circle cx="274.95" cy="250.36" r="2.5" fill="#2563eb"/>
  <circle cx="277.00" cy="299.97" r="2.5" fill="#2563eb"/>
  <circle cx="279.05" cy="250.03" r="2.5" fill="#2563eb"/>
  <circle cx="281.10" cy="250.03" r="2.5" fill="#2563eb"/>
  <circle cx="283.15" cy="250.03" r="2.5" fill="#2563eb"/>
  <circle cx="285.20" cy="250.03" r="2.5" fill="#2563eb"/>
  <circle cx="287.25" cy="249.99" r="2.5" fill="#2563eb"/>
  <circle cx="289.30" cy="200.00" r="2.5" fill="#2563eb"/>
  <circle cx="291.35" cy="299.93" r="2.5" fill="#2563eb"/>
  <circle cx="293.40" cy="300.01" r="2.5" fill="#2563eb"/>
  <circle cx="295.45" cy="299.97" r="2.5" fill="#2563eb"/>
  <circle cx="297.50" cy="249.94" r="2.5" fill="#2563eb"/>
  <circle cx="299.55" cy="249.99" r="2.5" fill="#2563eb"/>
  <circle cx="301.60" cy="249.82" r="2.5" fill="#2563eb"/>
  <circle cx="303.65" cy="249.94" r="2.5" fill="#2563eb"/>
  <circle cx="305.70" cy="250.28" r="2.5" fill="#2563eb"/>
  <circle cx="307.75" cy="207.00" r="2.5" fill="#2563eb"/>
  <circle cx="309.80" cy="250.03" r="2.5" fill="#2563eb"/>
  <circle cx="311.85" cy="250.32" r="2.5" fill="#2563eb"/>
  <circle cx="313.90" cy="250.40" r="2.5" fill="#2563eb"/>
  <circle cx="315.95" cy="300.93" r="2.5" fill="#2563eb"/>
  <circle cx="318.00" cy="300.01" r="2.5" fill="#2563eb"/>
  <circle cx="320.05" cy="300.10" r="2.5" fill="#2563eb"/>
  <circle cx="322.09" cy="249.94" r="2.5" fill="#2563eb"/>
  <circle cx="324.14" cy="249.99" r="2.5" fill="#2563eb"/>
  <circle cx="326.19" cy="250.07" r="2.5" fill="#2563eb"/>
  <circle cx="328.24" cy="249.99" r="2.5" fill="#2563eb"/>
  <circle cx="330.29" cy="250.03" r="2.5" fill="#2563eb"/>
  <circle cx="332.34" cy="249.94" r="2.5" fill="#2563eb"/>
  <circle cx="334.39" cy="200.00" r="2.5" fill="#2563eb"/>
  <circle cx="336.44" cy="300.39" r="2.5" fill="#2563eb"/>
  <circle cx="338.49" cy="300.01" r="2.5" fill="#2563eb"/>
  <circle cx="340.54" cy="300.01" r="2.5" fill="#2563eb"/>
  <circle cx="342.59" cy="250.44" r="2.5" fill="#2563eb"/>
  <circle cx="344.64" cy="300.39" r="2.5" fill="#2563eb"/>
  <circle cx="346.69" cy="249.86" r="2.5" fill="#2563eb"/>
  <circle cx="348.74" cy="250.11" r="2.5" fill="#2563eb"/>
  <circle cx="350.79" cy="201.46" r="2.5" fill="#2563eb"/>
  <circle cx="352.84" cy="300.01" r="2.5" fill="#2563eb"/>
  <circle cx="354.89" cy="200.83" r="2.5" fill="#2563eb"/>
  <circle cx="356.94" cy="250.03" r="2.5" fill="#2563eb"/>
  <circle cx="358.99" cy="249.99" r="2.5" fill="#2563eb"/>
  <circle cx="361.04" cy="300.26" r="2.5" fill="#2563eb"/>
  <circle cx="363.09" cy="300.01" r="2.5" fill="#2563eb"/>
  <circle cx="365.14" cy="300.01" r="2.5" fill="#2563eb"/>
  <circle cx="367.18" cy="250.03" r="2.5" fill="#2563eb"/>
  <circle cx="369.23" cy="250.03" r="2.5" fill="#2563eb"/>
  <circle cx="371.28" cy="250.03" r="2.5" fill="#2563eb"/>
  <circle cx="373.33" cy="250.03" r="2.5" fill="#2563eb"/>
  <circle cx="375.38" cy="249.99" r="2.5" fill="#2563eb"/>
  <circle cx="377.43" cy="250.03" r="2.5" fill="#2563eb"/>
  <circle cx="379.48" cy="200.00" r="2.5" fill="#2563eb"/>
  <circle cx="381.53" cy="300.26" r="2.5" fill="#2563eb"/>
  <circle cx="383.58" cy="249.99" r="2.5" fill="#2563eb"/>
  <circle cx="385.63" cy="300.01" r="2.5" fill="#2563eb"/>
  <circle cx="387.68" cy="249.94" r="2.5" fill="#2563eb"/>
  <circle cx="389.73" cy="250.03" r="2.5" fill="#2563eb"/>
  <circle cx="391.78" cy="250.03" r="2.5" fill="#2563eb"/>
  <circle cx="393.83" cy="250.03" r="2.5" fill="#2563eb"/>
  <circle cx="395.88" cy="200.04" r="2.5" fill="#2563eb"/>
  <circle cx="397.93" cy="300.01" r="2.5" fill="#2563eb"/>
  <circle cx="399.98" cy="249.90" r="2.5" fill="#2563eb"/>
  <circle cx="402.03" cy="300.01" r="2.5" fill="#2563eb"/>
  <circle cx="404.08" cy="300.01" r="2.5" fill="#2563eb"/>
  <circle cx="406.13" cy="300.06" r="2.5" fill="#2563eb"/>
  <circle cx="408.18" cy="300.01" r="2.5" fill="#2563eb"/>
  <circle cx="410.23" cy="300.01" r="2.5" fill="#2563eb"/>
  <circle cx="412.27" cy="243.95" r="2.5" fill="#2563eb"/>
  <circle cx="414.32" cy="249.94" r="2.5" fill="#2563eb"/>
  <circle cx="416.37" cy="299.97" r="2.5" fill="#2563eb"/>
  <circle cx="418.42" cy="300.01" r="2.5" fill="#2563eb"/>
  <circle cx="420.47" cy="300.01" r="2.5" fill="#2563eb"/>
  <circle cx="422.52" cy="250.03" r="2.5" fill="#2563eb"/>
  <circle cx="424.57" cy="300.01" r="2.5" fill="#2563eb"/>
  <circle cx="426.62" cy="300.01" r="2.5" fill="#2563eb"/>
  <circle cx="428.67" cy="299.97" r="2.5" fill="#2563eb"/>
  <circle cx="430.72" cy="249.99" r="2.5" fill="#2563eb"/>
  <circle cx="432.77" cy="300.01" r="2.5" fill="#2563eb"/>
  <circle cx="434.82" cy="299.93" r="2.5" fill="#2563eb"/>
  <circle cx="436.87" cy="300.01" r="2.5" fill="#2563eb"/>
  <circle cx="438.92" cy="299.93" r="2.5" fill="#2563eb"/>
  <circle cx="440.97" cy="300.01" r="2.5" fill="#2563eb"/>
  <circle cx="443.02" cy="300.01" r="2.5" fill="#2563eb"/>
  <circle cx="445.07" cy="299.89" r="2.5" fill="#2563eb"/>
  <circle cx="447.12" cy="299.97" r="2.5" fill="#2563eb"/>
  <circle cx="449.17" cy="250.03" r="2.5" fill="#2563eb"/>
  <circle cx="451.22" cy="299.93" r="2.5" fill="#2563eb"/>
  <circle cx="453.27" cy="299.89" r="2.5" fill="#2563eb"/>
  <circle cx="455.32" cy="299.97" r="2.5" fill="#2563eb"/>
  <circle cx="457.36" cy="249.94" r="2.5" fill="#2563eb"/>
  <circle cx="459.41" cy="300.01" r="2.5" fill="#2563eb"/>
  <circle cx="461.46" cy="300.01" r="2.5" fill="#2563eb"/>
  <circle cx="463.51" cy="299.97" r="2.5" fill="#2563eb"/>
  <circle cx="465.56" cy="249.99" r="2.5" fill="#2563eb"/>
  <circle cx="467.61" cy="299.97" r="2.5" fill="#2563eb"/>
  <circle cx="469.66" cy="299.97" r="2.5" fill="#2563eb"/>
  <circle cx="471.71" cy="300.06" r="2.5" fill="#2563eb"/>
  <circle cx="473.76" cy="300.06" r="2.5" fill="#2563eb"/>
  <circle cx="475.81" cy="299.93" r="2.5" fill="#2563eb"/>
  <circle cx="477.86" cy="300.01" r="2.5" fill="#2563eb"/>
  <circle cx="479.91" cy="300.01" r="2.5" fill="#2563eb"/>
  <circle cx="481.96" cy="299.93" r="2.5" fill="#2563eb"/>
  <circle cx="484.01" cy="300.01" r="2.5" fill="#2563eb"/>
  <circle cx="486.06" cy="300.01" r="2.5" fill="#2563eb"/>
  <circle cx="488.11" cy="299.97" r="2.5" fill="#2563eb"/>
  <circle cx="490.16" cy="300.01" r="2.5" fill="#2563eb"/>
  <circle cx="492.21" cy="300.01" r="2.5" fill="#2563eb"/>
  <circle cx="494.26" cy="300.01" r="2.5" fill="#2563eb"/>
  <circle cx="496.31" cy="300.01" r="2.5" fill="#2563eb"/>
  <circle cx="498.36" cy="249.86" r="2.5" fill="#2563eb"/>
  <circle cx="500.41" cy="300.01" r="2.5" fill="#2563eb"/>
  <circle cx="502.45" cy="300.10" r="2.5" fill="#2563eb"/>
  <circle cx="504.50" cy="299.93" r="2.5" fill="#2563eb"/>
  <circle cx="506.55" cy="300.01" r="2.5" fill="#2563eb"/>
  <circle cx="508.60" cy="299.93" r="2.5" fill="#2563eb"/>
  <circle cx="510.65" cy="300.01" r="2.5" fill="#2563eb"/>
  <circle cx="512.70" cy="300.01" r="2.5" fill="#2563eb"/>
  <circle cx="514.75" cy="300.01" r="2.5" fill="#2563eb"/>
  <circle cx="516.80" cy="300.01" r="2.5" fill="#2563eb"/>
  <circle cx="518.85" cy="300.01" r="2.5" fill="#2563eb"/>
  <circle cx="520.90" cy="299.97" r="2.5" fill="#2563eb"/>
  <circle cx="522.95" cy="300.01" r="2.5" fill="#2563eb"/>
  <circle cx="525.00" cy="300.01" r="2.5" fill="#2563eb"/>
  <circle cx="527.05" cy="300.01" r="2.5" fill="#2563eb"/>
  <circle cx="529.10" cy="300.01" r="2.5" fill="#2563eb"/>
  <circle cx="531.15" cy="250.03" r="2.5" fill="#2563eb"/>
  <circle cx="533.20" cy="300.01" r="2.5" fill="#2563eb"/>
  <circle cx="535.25" cy="300.01" r="2.5" fill="#2563eb"/>
  <circle cx="537.30" cy="299.97" r="2.5" fill="#2563eb"/>
  <circle cx="539.35" cy="300.01" r="2.5" fill="#2563eb"/>
  <circle cx="541.40" cy="300.01" r="2.5" fill="#2563eb"/>
  <circle cx="543.45" cy="299.97" r="2.5" fill="#2563eb"/>
  <circle cx="545.50" cy="299.97" r="2.5" fill="#2563eb"/>
  <circle cx="547.55" cy="300.01" r="2.5" fill="#2563eb"/>
  <circle cx="549.59" cy="299.97" r="2.5" fill="#2563eb"/>
  <circle cx="551.64" cy="300.01" r="2.5" fill="#2563eb"/>
  <circle cx="553.69" cy="299.93" r="2.5" fill="#2563eb"/>
  <circle cx="555.74" cy="300.01" r="2.5" fill="#2563eb"/>
  <circle cx="557.79" cy="250.03" r="2.5" fill="#2563eb"/>
  <circle cx="559.84" cy="300.01" r="2.5" fill="#2563eb"/>
  <circle cx="561.89" cy="300.01" r="2.5" fill="#2563eb"/>
  <circle cx="563.94" cy="300.01" r="2.5" fill="#2563eb"/>
  <circle cx="565.99" cy="300.01" r="2.5" fill="#2563eb"/>
  <circle cx="568.04" cy="300.01" r="2.5" fill="#2563eb"/>
  <circle cx="570.09" cy="299.89" r="2.5" fill="#2563eb"/>
  <circle cx="572.14" cy="300.01" r="2.5" fill="#2563eb"/>
  <circle cx="574.19" cy="300.01" r="2.5" fill="#2563eb"/>
  <circle cx="576.24" cy="250.07" r="2.5" fill="#2563eb"/>
  <circle cx="578.29" cy="300.01" r="2.5" fill="#2563eb"/>
  <circle cx="580.34" cy="299.93" r="2.5" fill="#2563eb"/>
  <circle cx="582.39" cy="300.01" r="2.5" fill="#2563eb"/>
  <circle cx="584.44" cy="299.97" r="2.5" fill="#2563eb"/>
  <circle cx="586.49" cy="299.97" r="2.5" fill="#2563eb"/>
  <circle cx="588.54" cy="299.97" r="2.5" fill="#2563eb"/>
  <circle cx="590.59" cy="250.03" r="2.5" fill="#2563eb"/>
  <circle cx="592.64" cy="300.01" r="2.5" fill="#2563eb"/>
  <circle cx="594.68" cy="300.01" r="2.5" fill="#2563eb"/>
  <circle cx="596.73" cy="300.01" r="2.5" fill="#2563eb"/>
  <circle cx="598.78" cy="300.01" r="2.5" fill="#2563eb"/>
  <circle cx="600.83" cy="299.97" r="2.5" fill="#2563eb"/>
  <circle cx="602.88" cy="300.01" r="2.5" fill="#2563eb"/>
  <circle cx="604.93" cy="299.97" r="2.5" fill="#2563eb"/>
  <circle cx="606.98" cy="300.01" r="2.5" fill="#2563eb"/>
  <circle cx="609.03" cy="299.97" r="2.5" fill="#2563eb"/>
  <circle cx="611.08" cy="249.90" r="2.5" fill="#2563eb"/>
  <circle cx="613.13" cy="300.01" r="2.5" fill="#2563eb"/>
  <circle cx="615.18" cy="300.01" r="2.5" fill="#2563eb"/>
  <circle cx="617.23" cy="299.89" r="2.5" fill="#2563eb"/>
  <circle cx="619.28" cy="299.97" r="2.5" fill="#2563eb"/>
  <circle cx="621.33" cy="299.97" r="2.5" fill="#2563eb"/>
  <circle cx="623.38" cy="249.99" r="2.5" fill="#2563eb"/>
  <circle cx="625.43" cy="299.97" r="2.5" fill="#2563eb"/>
  <circle cx="627.48" cy="299.89" r="2.5" fill="#2563eb"/>
  <circle cx="629.53" cy="300.01" r="2.5" fill="#2563eb"/>
  <circle cx="631.58" cy="299.97" r="2.5" fill="#2563eb"/>
  <circle cx="633.63" cy="299.97" r="2.5" fill="#2563eb"/>
  <circle cx="635.68" cy="300.01" r="2.5" fill="#2563eb"/>
  <circle cx="637.73" cy="299.97" r="2.5" fill="#2563eb"/>
  <circle cx="639.77" cy="249.99" r="2.5" fill="#2563eb"/>
  <circle cx="641.82" cy="299.97" r="2.5" fill="#2563eb"/>
  <circle cx="643.87" cy="299.97" r="2.5" fill="#2563eb"/>
  <circle cx="645.92" cy="300.06" r="2.5" fill="#2563eb"/>
  <circle cx="647.97" cy="300.06" r="2.5" fill="#2563eb"/>
  <circle cx="650.02" cy="249.94" r="2.5" fill="#2563eb"/>
  <circle cx="652.07" cy="300.01" r="2.5" fill="#2563eb"/>
  <circle cx="654.12" cy="299.93" r="2.5" fill="#2563eb"/>
  <circle cx="656.17" cy="300.01" r="2.5" fill="#2563eb"/>
  <circle cx="658.22" cy="300.01" r="2.5" fill="#2563eb"/>
  <circle cx="660.27" cy="249.99" r="2.5" fill="#2563eb"/>
  <circle cx="662.32" cy="300.01" r="2.5" fill="#2563eb"/>
  <circle cx="664.37" cy="300.01" r="2.5" fill="#2563eb"/>
  <circle cx="666.42" cy="300.01" r="2.5" fill="#2563eb"/>
  <circle cx="668.47" cy="299.93" r="2.5" fill="#2563eb"/>
  <circle cx="670.52" cy="299.93" r="2.5" fill="#2563eb"/>
  <circle cx="672.57" cy="300.01" r="2.5" fill="#2563eb"/>
  <circle cx="674.62" cy="300.01" r="2.5" fill="#2563eb"/>
  <circle cx="676.67" cy="249.94" r="2.5" fill="#2563eb"/>
  <circle cx="678.72" cy="299.97" r="2.5" fill="#2563eb"/>
  <circle cx="680.77" cy="299.97" r="2.5" fill="#2563eb"/>
  <circle cx="682.82" cy="300.01" r="2.5" fill="#2563eb"/>
  <circle cx="684.86" cy="300.01" r="2.5" fill="#2563eb"/>
  <circle cx="686.91" cy="300.01" r="2.5" fill="#2563eb"/>
  <circle cx="688.96" cy="249.99" r="2.5" fill="#2563eb"/>
  <circle cx="691.01" cy="300.01" r="2.5" fill="#2563eb"/>
  <circle cx="693.06" cy="300.01" r="2.5" fill="#2563eb"/>
  <circle cx="695.11" cy="300.01" r="2.5" fill="#2563eb"/>
  <circle cx="697.16" cy="250.03" r="2.5" fill="#2563eb"/>
  <circle cx="699.21" cy="300.01" r="2.5" fill="#2563eb"/>
  <circle cx="701.26" cy="300.01" r="2.5" fill="#2563eb"/>
  <circle cx="703.31" cy="300.01" r="2.5" fill="#2563eb"/>
  <circle cx="705.36" cy="299.97" r="2.5" fill="#2563eb"/>
  <circle cx="707.41" cy="300.01" r="2.5" fill="#2563eb"/>
  <circle cx="709.46" cy="300.01" r="2.5" fill="#2563eb"/>
  <circle cx="711.51" cy="299.97" r="2.5" fill="#2563eb"/>
  <circle cx="713.56" cy="299.97" r="2.5" fill="#2563eb"/>
  <circle cx="715.61" cy="300.01" r="2.5" fill="#2563eb"/>
  <circle cx="717.66" cy="300.01" r="2.5" fill="#2563eb"/>
  <circle cx="719.71" cy="299.97" r="2.5" fill="#2563eb"/>
  <circle cx="721.76" cy="299.93" r="2.5" fill="#2563eb"/>
  <circle cx="723.81" cy="300.01" r="2.5" fill="#2563eb"/>
  <circle cx="725.86" cy="300.06" r="2.5" fill="#2563eb"/>
  <circle cx="727.91" cy="299.97" r="2.5" fill="#2563eb"/>
  <circle cx="729.95" cy="300.01" r="2.5" fill="#2563eb"/>
  <circle cx="732.00" cy="250.03" r="2.5" fill="#2563eb"/>
  <circle cx="734.05" cy="250.03" r="2.5" fill="#2563eb"/>
  <circle cx="736.10" cy="299.93" r="2.5" fill="#2563eb"/>
  <circle cx="738.15" cy="299.97" r="2.5" fill="#2563eb"/>
  <circle cx="740.20" cy="300.01" r="2.5" fill="#2563eb"/>
  <circle cx="742.25" cy="300.01" r="2.5" fill="#2563eb"/>
  <circle cx="744.30" cy="300.06" r="2.5" fill="#2563eb"/>
  <circle cx="746.35" cy="300.01" r="2.5" fill="#2563eb"/>
  <circle cx="748.40" cy="299.93" r="2.5" fill="#2563eb"/>
  <circle cx="750.45" cy="300.01" r="2.5" fill="#2563eb"/>
  <circle cx="752.50" cy="300.01" r="2.5" fill="#2563eb"/>
  <circle cx="754.55" cy="299.97" r="2.5" fill="#2563eb"/>
  <circle cx="756.60" cy="299.97" r="2.5" fill="#2563eb"/>
  <circle cx="758.65" cy="300.01" r="2.5" fill="#2563eb"/>
  <circle cx="760.70" cy="250.03" r="2.5" fill="#2563eb"/>
  <circle cx="762.75" cy="300.01" r="2.5" fill="#2563eb"/>
  <circle cx="764.80" cy="300.01" r="2.5" fill="#2563eb"/>
  <circle cx="766.85" cy="300.01" r="2.5" fill="#2563eb"/>
  <circle cx="768.90" cy="299.97" r="2.5" fill="#2563eb"/>
  <circle cx="770.95" cy="300.01" r="2.5" fill="#2563eb"/>
  <circle cx="773.00" cy="299.97" r="2.5" fill="#2563eb"/>
  <circle cx="775.05" cy="300.01" r="2.5" fill="#2563eb"/>
  <circle cx="777.09" cy="299.97" r="2.5" fill="#2563eb"/>
  <circle cx="779.14" cy="299.97" r="2.5" fill="#2563eb"/>
  <circle cx="781.19" cy="299.93" r="2.5" fill="#2563eb"/>
  <circle cx="783.24" cy="300.01" r="2.5" fill="#2563eb"/>
  <circle cx="785.29" cy="300.01" r="2.5" fill="#2563eb"/>
  <circle cx="787.34" cy="299.89" r="2.5" fill="#2563eb"/>
  <circle cx="789.39" cy="299.97" r="2.5" fill="#2563eb"/>
  <circle cx="791.44" cy="299.97" r="2.5" fill="#2563eb"/>
  <circle cx="793.49" cy="300.06" r="2.5" fill="#2563eb"/>
  <circle cx="795.54" cy="249.90" r="2.5" fill="#2563eb"/>
  <circle cx="797.59" cy="299.89" r="2.5" fill="#2563eb"/>
  <circle cx="799.64" cy="300.01" r="2.5" fill="#2563eb"/>
  <circle cx="801.69" cy="299.97" r="2.5" fill="#2563eb"/>
  <circle cx="803.74" cy="299.97" r="2.5" fill="#2563eb"/>
  <circle cx="805.79" cy="299.97" r="2.5" fill="#2563eb"/>
  <circle cx="807.84" cy="300.01" r="2.5" fill="#2563eb"/>
  <circle cx="809.89" cy="300.01" r="2.5" fill="#2563eb"/>
  <circle cx="811.94" cy="299.97" r="2.5" fill="#2563eb"/>
  <circle cx="813.99" cy="299.97" r="2.5" fill="#2563eb"/>
  <circle cx="816.04" cy="299.97" r="2.5" fill="#2563eb"/>
  <circle cx="818.09" cy="250.03" r="2.5" fill="#2563eb"/>
  <circle cx="820.14" cy="299.93" r="2.5" fill="#2563eb"/>
  <circle cx="822.18" cy="300.01" r="2.5" fill="#2563eb"/>
  <circle cx="824.23" cy="300.01" r="2.5" fill="#2563eb"/>
  <circle cx="826.28" cy="299.93" r="2.5" fill="#2563eb"/>
  <circle cx="828.33" cy="300.01" r="2.5" fill="#2563eb"/>
  <circle cx="830.38" cy="300.01" r="2.5" fill="#2563eb"/>
  <circle cx="832.43" cy="299.97" r="2.5" fill="#2563eb"/>
  <circle cx="834.48" cy="300.01" r="2.5" fill="#2563eb"/>
  <circle cx="836.53" cy="300.01" r="2.5" fill="#2563eb"/>
  <circle cx="838.58" cy="300.06" r="2.5" fill="#2563eb"/>
  <circle cx="840.63" cy="300.01" r="2.5" fill="#2563eb"/>
  <circle cx="842.68" cy="299.97" r="2.5" fill="#2563eb"/>
  <circle cx="844.73" cy="299.89" r="2.5" fill="#2563eb"/>
  <circle cx="846.78" cy="300.01" r="2.5" fill="#2563eb"/>
  <circle cx="848.83" cy="300.01" r="2.5" fill="#2563eb"/>
  <circle cx="850.88" cy="249.94" r="2.5" fill="#2563eb"/>
  <circle cx="852.93" cy="249.94" r="2.5" fill="#2563eb"/>
  <circle cx="854.98" cy="300.01" r="2.5" fill="#2563eb"/>
  <circle cx="857.03" cy="300.01" r="2.5" fill="#2563eb"/>
  <circle cx="859.08" cy="300.01" r="2.5" fill="#2563eb"/>
  <circle cx="861.13" cy="300.01" r="2.5" fill="#2563eb"/>
  <circle cx="863.18" cy="299.97" r="2.5" fill="#2563eb"/>
  <circle cx="865.23" cy="250.03" r="2.5" fill="#2563eb"/>
  <circle cx="867.27" cy="300.01" r="2.5" fill="#2563eb"/>
  <circle cx="869.32" cy="300.01" r="2.5" fill="#2563eb"/>
  <circle cx="871.37" cy="300.01" r="2.5" fill="#2563eb"/>
  <circle cx="873.42" cy="300.01" r="2.5" fill="#2563eb"/>
  <circle cx="875.47" cy="250.03" r="2.5" fill="#2563eb"/>
  <circle cx="877.52" cy="249.99" r="2.5" fill="#2563eb"/>
  <circle cx="879.57" cy="300.01" r="2.5" fill="#2563eb"/>
  <circle cx="881.62" cy="299.97" r="2.5" fill="#2563eb"/>
  <circle cx="883.67" cy="300.01" r="2.5" fill="#2563eb"/>
  <circle cx="885.72" cy="299.97" r="2.5" fill="#2563eb"/>
  <circle cx="887.77" cy="300.01" r="2.5" fill="#2563eb"/>
  <circle cx="889.82" cy="299.97" r="2.5" fill="#2563eb"/>
  <circle cx="891.87" cy="299.97" r="2.5" fill="#2563eb"/>
  <circle cx="893.92" cy="299.97" r="2.5" fill="#2563eb"/>
  <circle cx="895.97" cy="300.06" r="2.5" fill="#2563eb"/>
  <circle cx="898.02" cy="249.99" r="2.5" fill="#2563eb"/>
  <circle cx="900.07" cy="300.01" r="2.5" fill="#2563eb"/>
  <circle cx="902.12" cy="250.03" r="2.5" fill="#2563eb"/>
  <circle cx="904.17" cy="249.94" r="2.5" fill="#2563eb"/>
  <circle cx="906.22" cy="249.99" r="2.5" fill="#2563eb"/>
  <circle cx="908.27" cy="300.01" r="2.5" fill="#2563eb"/>
  <circle cx="910.32" cy="300.06" r="2.5" fill="#2563eb"/>
  <circle cx="912.36" cy="300.01" r="2.5" fill="#2563eb"/>
  <circle cx="914.41" cy="299.97" r="2.5" fill="#2563eb"/>
  <circle cx="916.46" cy="299.97" r="2.5" fill="#2563eb"/>
  <circle cx="918.51" cy="300.01" r="2.5" fill="#2563eb"/>
  <circle cx="920.56" cy="299.93" r="2.5" fill="#2563eb"/>
  <circle cx="922.61" cy="299.89" r="2.5" fill="#2563eb"/>
  <circle cx="924.66" cy="299.89" r="2.5" fill="#2563eb"/>
  <circle cx="926.71" cy="299.89" r="2.5" fill="#2563eb"/>
  <circle cx="928.76" cy="299.89" r="2.5" fill="#2563eb"/>
  <circle cx="930.81" cy="299.85" r="2.5" fill="#2563eb"/>
  <circle cx="932.86" cy="299.85" r="2.5" fill="#2563eb"/>
  <circle cx="934.91" cy="299.89" r="2.5" fill="#2563eb"/>
  <circle cx="936.96" cy="299.81" r="2.5" fill="#2563eb"/>
  <circle cx="939.01" cy="299.81" r="2.5" fill="#2563eb"/>
  <circle cx="941.06" cy="299.81" r="2.5" fill="#2563eb"/>
  <circle cx="943.11" cy="299.76" r="2.5" fill="#2563eb"/>
  <circle cx="945.16" cy="299.76" r="2.5" fill="#2563eb"/>
  <circle cx="947.21" cy="299.76" r="2.5" fill="#2563eb"/>
  <circle cx="949.26" cy="299.72" r="2.5" fill="#2563eb"/>
  <circle cx="951.31" cy="299.68" r="2.5" fill="#2563eb"/>
  <circle cx="953.36" cy="299.60" r="2.5" fill="#2563eb"/>
  <circle cx="955.41" cy="299.60" r="2.5" fill="#2563eb"/>
  <circle cx="957.45" cy="299.60" r="2.5" fill="#2563eb"/>
  <circle cx="959.50" cy="299.56" r="2.5" fill="#2563eb"/>
  <circle cx="961.55" cy="299.47" r="2.5" fill="#2563eb"/>
  <circle cx="963.60" cy="299.43" r="2.5" fill="#2563eb"/>
  <circle cx="965.65" cy="299.43" r="2.5" fill="#2563eb"/>
  <circle cx="967.70" cy="299.39" r="2.5" fill="#2563eb"/>
  <circle cx="969.75" cy="299.47" r="2.5" fill="#2563eb"/>
  <circle cx="971.80" cy="259.82" r="2.5" fill="#2563eb"/>
  <circle cx="973.85" cy="338.96" r="2.5" fill="#2563eb"/>
  <circle cx="975.90" cy="299.31" r="2.5" fill="#2563eb"/>
  <circle cx="977.95" cy="299.31" r="2.5" fill="#2563eb"/>
  <circle cx="980.00" cy="299.26" r="2.5" fill="#2563eb"/>
</svg>
