<?xml version="1.0" encoding="UTF-8"?>
<svg xmlns="http://www.w3.org/2000/svg" width="1000" height="420" viewBox="0 0 1000 420">
  <rect width="100%" height="100%" fill="#ffffff"/>
  <text x="70" y="28" font-size="20" font-weight="600">수집 시점 기준 - 시간별 스냅샷</text>
  <text x="70" y="402" font-size="12" fill="#555">스냅샷 수</text>
  <line x1="70" y1="350.00" x2="980" y2="350.00" stroke="#e5e7eb" stroke-width="1"/>
  <text x="62" y="354.00" font-size="11" fill="#6b7280" text-anchor="end">0</text>
  <line x1="70" y1="290.00" x2="980" y2="290.00" stroke="#e5e7eb" stroke-width="1"/>
  <text x="62" y="294.00" font-size="11" fill="#6b7280" text-anchor="end">1,440</text>
  <line x1="70" y1="230.00" x2="980" y2="230.00" stroke="#e5e7eb" stroke-width="1"/>
  <text x="62" y="234.00" font-size="11" fill="#6b7280" text-anchor="end">2,880</text>
  <line x1="70" y1="170.00" x2="980" y2="170.00" stroke="#e5e7eb" stroke-width="1"/>
  <text x="62" y="174.00" font-size="11" fill="#6b7280" text-anchor="end">4,321</text>
  <line x1="70" y1="110.00" x2="980" y2="110.00" stroke="#e5e7eb" stroke-width="1"/>
  <text x="62" y="114.00" font-size="11" fill="#6b7280" text-anchor="end">5,761</text>
  <line x1="70" y1="50.00" x2="980" y2="50.00" stroke="#e5e7eb" stroke-width="1"/>
  <text x="62" y="54.00" font-size="11" fill="#6b7280" text-anchor="end">7,202</text>
  <line x1="70" y1="350" x2="980" y2="350" stroke="#111827" stroke-width="1.2"/>
  <line x1="70" y1="50" x2="70" y2="350" stroke="#111827" stroke-width="1.2"/>
  <line x1="70.00" y1="350" x2="70.00" y2="356" stroke="#9ca3af" stroke-width="1"/>
  <text x="70.00" y="372" font-size="10" fill="#6b7280" text-anchor="middle">2026-02-28 18</text>
  <line x1="144.53" y1="350" x2="144.53" y2="356" stroke="#9ca3af" stroke-width="1"/>
  <text x="144.53" y="372" font-size="10" fill="#6b7280" text-anchor="middle">2026-03-08 17</text>
  <line x1="219.05" y1="350" x2="219.05" y2="356" stroke="#9ca3af" stroke-width="1"/>
  <text x="219.05" y="372" font-size="10" fill="#6b7280" text-anchor="middle">2026-03-10 10</text>
  <line x1="293.58" y1="350" x2="293.58" y2="356" stroke="#9ca3af" stroke-width="1"/>
  <text x="293.58" y="372" font-size="10" fill="#6b7280" text-anchor="middle">2026-03-12 03</text>
  <line x1="368.10" y1="350" x2="368.10" y2="356" stroke="#9ca3af" stroke-width="1"/>
  <text x="368.10" y="372" font-size="10" fill="#6b7280" text-anchor="middle">2026-03-13 21</text>
  <line x1="442.63" y1="350" x2="442.63" y2="356" stroke="#9ca3af" stroke-width="1"/>
  <text x="442.63" y="372" font-size="10" fill="#6b7280" text-anchor="middle">2026-03-16 00</text>
  <line x1="517.16" y1="350" x2="517.16" y2="356" stroke="#9ca3af" stroke-width="1"/>
  <text x="517.16" y="372" font-size="10" fill="#6b7280" text-anchor="middle">2026-03-18 15</text>
  <line x1="591.68" y1="350" x2="591.68" y2="356" stroke="#9ca3af" stroke-width="1"/>
  <text x="591.68" y="372" font-size="10" fill="#6b7280" text-anchor="middle">2026-03-21 00</text>
  <line x1="666.21" y1="350" x2="666.21" y2="356" stroke="#9ca3af" stroke-width="1"/>
  <text x="666.21" y="372" font-size="10" fill="#6b7280" text-anchor="middle">2026-03-23 01</text>
  <line x1="740.73" y1="350" x2="740.73" y2="356" stroke="#9ca3af" stroke-width="1"/>
  <text x="740.73" y="372" font-size="10" fill="#6b7280" text-anchor="middle">2026-03-25 17</text>
  <line x1="815.26" y1="350" x2="815.26" y2="356" stroke="#9ca3af" stroke-width="1"/>
  <text x="815.26" y="372" font-size="10" fill="#6b7280" text-anchor="middle">2026-03-28 04</text>
  <line x1="889.78" y1="350" x2="889.78" y2="356" stroke="#9ca3af" stroke-width="1"/>
  <text x="889.78" y="372" font-size="10" fill="#6b7280" text-anchor="middle">2026-03-30 20</text>
  <line x1="964.31" y1="350" x2="964.31" y2="356" stroke="#9ca3af" stroke-width="1"/>
  <text x="964.31" y="372" font-size="10" fill="#6b7280" text-anchor="middle">2026-04-02 14</text>
  <line x1="980.00" y1="350" x2="980.00" y2="356" stroke="#9ca3af" stroke-width="1"/>
  <text x="980.00" y="372" font-size="10" fill="#6b7280" text-anchor="middle">2026-04-03 03</text>
  <polyline fill="none" stroke="#2563eb" stroke-width="2.5" points="70.00,50.00 71.96,50.12 73.92,50.17 75.88,50.46 77.84,50.00 79.81,266.90 81.77,50.12 83.73,50.08 85.69,177.46 87.65,211.58 89.61,175.34 91.57,304.14 93.53,200.46 95.50,250.94 97.46,300.01 99.42,300.06 101.38,300.01 103.34,300.01 105.30,348.00 107.26,300.01 109.22,249.99 111.19,200.00 113.15,249.99 115.11,249.99 117.07,250.03 119.03,250.03 120.99,250.03 122.95,250.40 124.91,250.90 126.88,250.90 128.84,251.32 130.80,249.94 132.76,300.01 134.72,299.93 136.68,251.03 138.64,300.68 140.60,250.03 142.56,200.00 144.53,249.99 146.49,250.03 148.45,250.03 150.41,250.03 152.37,300.01 154.33,200.04 156.29,250.03 158.25,250.03 160.22,250.03 162.18,249.90 164.14,250.03 166.10,250.03 168.06,250.94 170.02,250.44 171.98,250.03 173.94,250.03 175.91,300.47 177.87,300.01 179.83,300.43 181.79,250.03 183.75,249.99 185.71,300.43 187.67,249.90 189.63,249.99 191.59,249.99 193.56,200.04 195.52,300.01 197.48,300.01 199.44,300.01 201.40,249.90 203.36,300.01 205.32,250.03 207.28,249.99 209.25,199.96 211.21,300.01 213.17,200.00 215.13,250.36 217.09,250.03 219.05,300.01 221.01,300.01 222.97,250.44 224.94,300.01 226.90,250.03 228.86,250.03 230.82,249.99 232.78,250.49 234.74,250.03 236.70,200.04 238.66,300.01 240.62,250.03 242.59,300.01 244.55,250.11 246.51,300.01 248.47,250.03 250.43,250.03 252.39,199.92 254.35,250.03 256.31,250.03 258.28,250.03 260.24,254.36 262.20,300.01 264.16,299.97 266.12,250.36 268.08,299.97 270.04,250.03 272.00,250.03 273.97,250.03 275.93,250.03 277.89,249.99 279.85,200.00 281.81,299.93 283.77,300.01 285.73,299.97 287.69,249.94 289.66,249.99 291.62,249.82 293.58,249.94 295.54,250.28 297.50,207.00 299.46,250.03 301.42,250.32 303.38,250.40 305.34,300.93 307.31,300.01 309.27,300.10 311.23,249.94 313.19,249.99 315.15,250.07 317.11,249.99 319.07,250.03 321.03,249.94 323.00,200.00 324.96,300.39 326.92,300.01 328.88,300.01 330.84,250.44 332.80,300.39 334.76,249.86 336.72,250.11 338.69,201.46 340.65,300.01 342.61,200.83 344.57,250.03 346.53,249.99 348.49,300.26 350.45,300.01 352.41,300.01 354.38,250.03 356.34,250.03 358.30,250.03 360.26,250.03 362.22,249.99 364.18,250.03 366.14,200.00 368.10,300.26 370.06,249.99 372.03,300.01 373.99,249.94 375.95,250.03 377.91,250.03 379.87,250.03 381.83,200.04 383.79,300.01 385.75,249.90 387.72,300.01 389.68,300.01 391.64,300.06 393.60,300.01 395.56,300.01 397.52,243.95 399.48,249.94 401.44,299.97 403.41,300.01 405.37,300.01 407.33,250.03 409.29,300.01 411.25,300.01 413.21,299.97 415.17,249.99 417.13,300.01 419.09,299.93 421.06,300.01 423.02,299.93 424.98,300.01 426.94,300.01 428.90,299.89 430.86,299.97 432.82,250.03 434.78,299.93 436.75,299.89 438.71,299.97 440.67,249.94 442.63,300.01 444.59,300.01 446.55,299.97 448.51,249.99 450.47,299.97 452.44,299.97 454.40,300.06 456.36,300.06 458.32,299.93 460.28,300.01 462.24,300.01 464.20,299.93 466.16,300.01 468.12,300.01 470.09,299.97 472.05,300.01 474.01,300.01 475.97,300.01 477.93,300.01 479.89,249.86 481.85,300.01 483.81,300.10 485.78,299.93 487.74,300.01 489.70,299.93 491.66,300.01 493.62,300.01 495.58,300.01 497.54,300.01 499.50,300.01 501.47,299.97 503.43,300.01 505.39,300.01 507.35,300.01 509.31,300.01 511.27,250.03 513.23,300.01 515.19,300.01 517.16,299.97 519.12,300.01 521.08,300.01 523.04,299.97 525.00,299.97 526.96,300.01 528.92,299.97 530.88,300.01 532.84,299.93 534.81,300.01 536.77,250.03 538.73,300.01 540.69,300.01 542.65,300.01 544.61,300.01 546.57,300.01 548.53,299.89 550.50,300.01 552.46,300.01 554.42,250.07 556.38,300.01 558.34,299.93 560.30,300.01 562.26,299.97 564.22,299.97 566.19,299.97 568.15,250.03 570.11,300.01 572.07,300.01 574.03,300.01 575.99,300.01 577.95,299.97 579.91,300.01 581.88,299.97 583.84,300.01 585.80,299.97 587.76,249.90 589.72,300.01 591.68,300.01 593.64,299.89 595.60,299.97 597.56,299.97 599.53,249.99 601.49,299.97 603.45,299.89 605.41,300.01 607.37,299.97 609.33,299.97 611.29,300.01 613.25,299.97 615.22,249.99 617.18,299.97 619.14,299.97 621.10,300.06 623.06,300.06 625.02,249.94 626.98,300.01 628.94,299.93 630.91,300.01 632.87,300.01 634.83,249.99 636.79,300.01 638.75,300.01 640.71,300.01 642.67,299.93 644.63,299.93 646.59,300.01 648.56,300.01 650.52,249.94 652.48,299.97 654.44,299.97 656.40,300.01 658.36,300.01 660.32,300.01 662.28,249.99 664.25,300.01 666.21,300.01 668.17,300.01 670.13,250.03 672.09,300.01 674.05,300.01 676.01,300.01 677.97,299.97 679.94,300.01 681.90,300.01 683.86,299.97 685.82,299.97 687.78,300.01 689.74,300.01 691.70,299.97 693.66,299.93 695.62,300.01 697.59,300.06 699.55,299.97 701.51,300.01 703.47,250.03 705.43,250.03 707.39,299.93 709.35,299.97 711.31,300.01 713.28,300.01 715.24,300.06 717.20,300.01 719.16,299.93 721.12,300.01 723.08,300.01 725.04,299.97 727.00,299.97 728.97,300.01 730.93,250.03 732.89,300.01 734.85,300.01 736.81,300.01 738.77,299.97 740.73,300.01 742.69,299.97 744.66,300.01 746.62,299.97 748.58,299.97 750.54,299.93 752.50,300.01 754.46,300.01 756.42,299.89 758.38,299.97 760.34,299.97 762.31,300.06 764.27,249.90 766.23,299.89 768.19,300.01 770.15,299.97 772.11,299.97 774.07,299.97 776.03,300.01 778.00,300.01 779.96,299.97 781.92,299.97 783.88,299.97 785.84,250.03 787.80,299.93 789.76,300.01 791.72,300.01 793.69,299.93 795.65,300.01 797.61,300.01 799.57,299.97 801.53,300.01 803.49,300.01 805.45,300.06 807.41,300.01 809.38,299.97 811.34,299.89 813.30,300.01 815.26,300.01 817.22,249.94 819.18,249.94 821.14,300.01 823.10,300.01 825.06,300.01 827.03,300.01 828.99,299.97 830.95,250.03 832.91,300.01 834.87,300.01 836.83,300.01 838.79,300.01 840.75,250.03 842.72,249.99 844.68,300.01 846.64,299.97 848.60,300.01 850.56,299.97 852.52,300.01 854.48,299.97 856.44,299.97 858.41,299.97 860.37,300.06 862.33,249.99 864.29,300.01 866.25,250.03 868.21,249.94 870.17,249.99 872.13,300.01 874.09,300.06 876.06,300.01 878.02,299.97 879.98,299.97 881.94,300.01 883.90,299.93 885.86,299.89 887.82,299.89 889.78,299.89 891.75,299.89 893.71,299.85 895.67,299.85 897.63,299.89 899.59,299.81 901.55,299.81 903.51,299.81 905.47,299.76 907.44,299.76 909.40,299.76 911.36,299.72 913.32,299.68 915.28,299.60 917.24,299.60 919.20,299.60 921.16,299.56 923.12,299.47 925.09,299.43 927.05,299.43 929.01,299.39 930.97,299.47 932.93,259.82 934.89,338.96 936.85,299.31 938.81,299.31 940.78,299.26 942.74,299.68 944.70,299.68 946.66,299.68 948.62,299.64 950.58,299.14 952.54,299.14 954.50,299.10 956.47,299.10 958.43,299.10 960.39,248.07 962.35,299.06 964.31,299.06 966.27,299.06 968.23,299.06 970.19,299.06 972.16,298.97 974.12,298.97 976.08,298.93 978.04,298.97 980.00,298.93"/>
  <circle cx="70.00" cy="50.00" r="2.5" fill="#2563eb"/>
  <circle cx="71.96" cy="50.12" r="2.5" fill="#2563eb"/>
  <circle cx="73.92" cy="50.17" r="2.5" fill="#2563eb"/>
  <circle cx="75.88" cy="50.46" r="2.5" fill="#2563eb"/>
  <circle cx="77.84" cy="50.00" r="2.5" fill="#2563eb"/>
  <circle cx="79.81" cy="266.90" r="2.5" fill="#2563eb"/>
  <circle cx="81.77" cy="50.12" r="2.5" fill="#2563eb"/>
  <circle cx="83.73" cy="50.08" r="2.5" fill="#2563eb"/>
  <circle cx="85.69" cy="177.46" r="2.5" fill="#2563eb"/>
  <circle cx="87.65" cy="211.58" r="2.5" fill="#2563eb"/>
  <circle cx="89.61" cy="175.34" r="2.5" fill="#2563eb"/>
  <circle cx="91.57" cy="304.14" r="2.5" fill="#2563eb"/>
  <circle cx="93.53" cy="200.46" r="2.5" fill="#2563eb"/>
  <circle cx="95.50" cy="250.94" r="2.5" fill="#2563eb"/>
  <circle cx="97.46" cy="300.01" r="2.5" fill="#2563eb"/>
  <circle cx="99.42" cy="300.06" r="2.5" fill="#2563eb"/>
  <circle cx="101.38" cy="300.01" r="2.5" fill="#2563eb"/>
  <circle cx="103.34" cy="300.01" r="2.5" fill="#2563eb"/>
  <circle cx="105.30" cy="348.00" r="2.5" fill="#2563eb"/>
  <circle cx="107.26" cy="300.01" r="2.5" fill="#2563eb"/>
  <circle cx="109.22" cy="249.99" r="2.5" fill="#2563eb"/>
  <circle cx="111.19" cy="200.00" r="2.5" fill="#2563eb"/>
  <circle cx="113.15" cy="249.99" r="2.5" fill="#2563eb"/>
  <circle cx="115.11" cy="249.99" r="2.5" fill="#2563eb"/>
  <circle cx="117.07" cy="250.03" r="2.5" fill="#2563eb"/>
  <circle cx="119.03" cy="250.03" r="2.5" fill="#2563eb"/>
  <circle cx="120.99" cy="250.03" r="2.5" fill="#2563eb"/>
  <circle cx="122.95" cy="250.40" r="2.5" fill="#2563eb"/>
  <circle cx="124.91" cy="250.90" r="2.5" fill="#2563eb"/>
  <circle cx="126.88" cy="250.90" r="2.5" fill="#2563eb"/>
  <circle cx="128.84" cy="251.32" r="2.5" fill="#2563eb"/>
  <circle cx="130.80" cy="249.94" r="2.5" fill="#2563eb"/>
  <circle cx="132.76" cy="300.01" r="2.5" fill="#2563eb"/>
  <circle cx="134.72" cy="299.93" r="2.5" fill="#2563eb"/>
  <circle cx="136.68" cy="251.03" r="2.5" fill="#2563eb"/>
  <circle cx="138.64" cy="300.68" r="2.5" fill="#2563eb"/>
  <circle cx="140.60" cy="250.03" r="2.5" fill="#2563eb"/>
  <circle cx="142.56" cy="200.00" r="2.5" fill="#2563eb"/>
  <circle cx="144.53" cy="249.99" r="2.5" fill="#2563eb"/>
  <circle cx="146.49" cy="250.03" r="2.5" fill="#2563eb"/>
  <circle cx="148.45" cy="250.03" r="2.5" fill="#2563eb"/>
  <circle cx="150.41" cy="250.03" r="2.5" fill="#2563eb"/>
  <circle cx="152.37" cy="300.01" r="2.5" fill="#2563eb"/>
  <circle cx="154.33" cy="200.04" r="2.5" fill="#2563eb"/>
  <circle cx="156.29" cy="250.03" r="2.5" fill="#2563eb"/>
  <circle cx="158.25" cy="250.03" r="2.5" fill="#2563eb"/>
  <circle cx="160.22" cy="250.03" r="2.5" fill="#2563eb"/>
  <circle cx="162.18" cy="249.90" r="2.5" fill="#2563eb"/>
  <circle cx="164.14" cy="250.03" r="2.5" fill="#2563eb"/>
  <circle cx="166.10" cy="250.03" r="2.5" fill="#2563eb"/>
  <circle cx="168.06" cy="250.94" r="2.5" fill="#2563eb"/>
  <circle cx="170.02" cy="250.44" r="2.5" fill="#2563eb"/>
  <circle cx="171.98" cy="250.03" r="2.5" fill="#2563eb"/>
  <circle cx="173.94" cy="250.03" r="2.5" fill="#2563eb"/>
  <circle cx="175.91" cy="300.47" r="2.5" fill="#2563eb"/>
  <circle cx="177.87" cy="300.01" r="2.5" fill="#2563eb"/>
  <circle cx="179.83" cy="300.43" r="2.5" fill="#2563eb"/>
  <circle cx="181.79" cy="250.03" r="2.5" fill="#2563eb"/>
  <circle cx="183.75" cy="249.99" r="2.5" fill="#2563eb"/>
  <circle cx="185.71" cy="300.43" r="2.5" fill="#2563eb"/>
  <circle cx="187.67" cy="249.90" r="2.5" fill="#2563eb"/>
  <circle cx="189.63" cy="249.99" r="2.5" fill="#2563eb"/>
  <circle cx="191.59" cy="249.99" r="2.5" fill="#2563eb"/>
  <circle cx="193.56" cy="200.04" r="2.5" fill="#2563eb"/>
  <circle cx="195.52" cy="300.01" r="2.5" fill="#2563eb"/>
  <circle cx="197.48" cy="300.01" r="2.5" fill="#2563eb"/>
  <circle cx="199.44" cy="300.01" r="2.5" fill="#2563eb"/>
  <circle cx="201.40" cy="249.90" r="2.5" fill="#2563eb"/>
  <circle cx="203.36" cy="300.01" r="2.5" fill="#2563eb"/>
  <circle cx="205.32" cy="250.03" r="2.5" fill="#2563eb"/>
  <circle cx="207.28" cy="249.99" r="2.5" fill="#2563eb"/>
  <circle cx="209.25" cy="199.96" r="2.5" fill="#2563eb"/>
  <circle cx="211.21" cy="300.01" r="2.5" fill="#2563eb"/>
  <circle cx="213.17" cy="200.00" r="2.5" fill="#2563eb"/>
  <circle cx="215.13" cy="250.36" r="2.5" fill="#2563eb"/>
  <circle cx="217.09" cy="250.03" r="2.5" fill="#2563eb"/>
  <circle cx="219.05" cy="300.01" r="2.5" fill="#2563eb"/>
  <circle cx="221.01" cy="300.01" r="2.5" fill="#2563eb"/>
  <circle cx="222.97" cy="250.44" r="2.5" fill="#2563eb"/>
  <circle cx="224.94" cy="300.01" r="2.5" fill="#2563eb"/>
  <circle cx="226.90" cy="250.03" r="2.5" fill="#2563eb"/>
  <circle cx="228.86" cy="250.03" r="2.5" fill="#2563eb"/>
  <circle cx="230.82" cy="249.99" r="2.5" fill="#2563eb"/>
  <circle cx="232.78" cy="250.49" r="2.5" fill="#2563eb"/>
  <circle cx="234.74" cy="250.03" r="2.5" fill="#2563eb"/>
  <circle cx="236.70" cy="200.04" r="2.5" fill="#2563eb"/>
  <circle cx="238.66" cy="300.01" r="2.5" fill="#2563eb"/>
  <circle cx="240.62" cy="250.03" r="2.5" fill="#2563eb"/>
  <circle cx="242.59" cy="300.01" r="2.5" fill="#2563eb"/>
  <circle cx="244.55" cy="250.11" r="2.5" fill="#2563eb"/>
  <circle cx="246.51" cy="300.01" r="2.5" fill="#2563eb"/>
  <circle cx="248.47" cy="250.03" r="2.5" fill="#2563eb"/>
  <circle cx="250.43" cy="250.03" r="2.5" fill="#2563eb"/>
  <circle cx="252.39" cy="199.92" r="2.5" fill="#2563eb"/>
  <circle cx="254.35" cy="250.03" r="2.5" fill="#2563eb"/>
  <circle cx="256.31" cy="250.03" r="2.5" fill="#2563eb"/>
  <circle cx="258.28" cy="250.03" r="2.5" fill="#2563eb"/>
  <circle cx="260.24" cy="254.36" r="2.5" fill="#2563eb"/>
  <circle cx="262.20" cy="300.01" r="2.5" fill="#2563eb"/>
  <circle cx="264.16" cy="299.97" r="2.5" fill="#2563eb"/>
  <circle cx="266.12" cy="250.36" r="2.5" fill="#2563eb"/>
  <circle cx="268.08" cy="299.97" r="2.5" fill="#2563eb"/>
  <circle cx="270.04" cy="250.03" r="2.5" fill="#2563eb"/>
  <circle cx="272.00" cy="250.03" r="2.5" fill="#2563eb"/>
  <circle cx="273.97" cy="250.03" r="2.5" fill="#2563eb"/>
  <circle cx="275.93" cy="250.03" r="2.5" fill="#2563eb"/>
  <circle cx="277.89" cy="249.99" r="2.5" fill="#2563eb"/>
  <circle cx="279.85" cy="200.00" r="2.5" fill="#2563eb"/>
  <circle cx="281.81" cy="299.93" r="2.5" fill="#2563eb"/>
  <circle cx="283.77" cy="300.01" r="2.5" fill="#2563eb"/>
  <circle cx="285.73" cy="299.97" r="2.5" fill="#2563eb"/>
  <circle cx="287.69" cy="249.94" r="2.5" fill="#2563eb"/>
  <circle cx="289.66" cy="249.99" r="2.5" fill="#2563eb"/>
  <circle cx="291.62" cy="249.82" r="2.5" fill="#2563eb"/>
  <circle cx="293.58" cy="249.94" r="2.5" fill="#2563eb"/>
  <circle cx="295.54" cy="250.28" r="2.5" fill="#2563eb"/>
  <circle cx="297.50" cy="207.00" r="2.5" fill="#2563eb"/>
  <circle cx="299.46" cy="250.03" r="2.5" fill="#2563eb"/>
  <circle cx="301.42" cy="250.32" r="2.5" fill="#2563eb"/>
  <circle cx="303.38" cy="250.40" r="2.5" fill="#2563eb"/>
  <circle cx="305.34" cy="300.93" r="2.5" fill="#2563eb"/>
  <circle cx="307.31" cy="300.01" r="2.5" fill="#2563eb"/>
  <circle cx="309.27" cy="300.10" r="2.5" fill="#2563eb"/>
  <circle cx="311.23" cy="249.94" r="2.5" fill="#2563eb"/>
  <circle cx="313.19" cy="249.99" r="2.5" fill="#2563eb"/>
  <circle cx="315.15" cy="250.07" r="2.5" fill="#2563eb"/>
  <circle cx="317.11" cy="249.99" r="2.5" fill="#2563eb"/>
  <circle cx="319.07" cy="250.03" r="2.5" fill="#2563eb"/>
  <circle cx="321.03" cy="249.94" r="2.5" fill="#2563eb"/>
  <circle cx="323.00" cy="200.00" r="2.5" fill="#2563eb"/>
  <circle cx="324.96" cy="300.39" r="2.5" fill="#2563eb"/>
  <circle cx="326.92" cy="300.01" r="2.5" fill="#2563eb"/>
  <circle cx="328.88" cy="300.01" r="2.5" fill="#2563eb"/>
  <circle cx="330.84" cy="250.44" r="2.5" fill="#2563eb"/>
  <circle cx="332.80" cy="300.39" r="2.5" fill="#2563eb"/>
  <circle cx="334.76" cy="249.86" r="2.5" fill="#2563eb"/>
  <circle cx="336.72" cy="250.11" r="2.5" fill="#2563eb"/>
  <circle cx="338.69" cy="201.46" r="2.5" fill="#2563eb"/>
  <circle cx="340.65" cy="300.01" r="2.5" fill="#2563eb"/>
  <circle cx="342.61" cy="200.83" r="2.5" fill="#2563eb"/>
  <circle cx="344.57" cy="250.03" r="2.5" fill="#2563eb"/>
  <circle cx="346.53" cy="249.99" r="2.5" fill="#2563eb"/>
  <circle cx="348.49" cy="300.26" r="2.5" fill="#2563eb"/>
  <circle cx="350.45" cy="300.01" r="2.5" fill="#2563eb"/>
  <circle cx="352.41" cy="300.01" r="2.5" fill="#2563eb"/>
  <circle cx="354.38" cy="250.03" r="2.5" fill="#2563eb"/>
  <circle cx="356.34" cy="250.03" r="2.5" fill="#2563eb"/>
  <circle cx="358.30" cy="250.03" r="2.5" fill="#2563eb"/>
  <circle cx="360.26" cy="250.03" r="2.5" fill="#2563eb"/>
  <circle cx="362.22" cy="249.99" r="2.5" fill="#2563eb"/>
  <circle cx="364.18" cy="250.03" r="2.5" fill="#2563eb"/>
  <circle cx="366.14" cy="200.00" r="2.5" fill="#2563eb"/>
  <circle cx="368.10" cy="300.26" r="2.5" fill="#2563eb"/>
  <circle cx="370.06" cy="249.99" r="2.5" fill="#2563eb"/>
  <circle cx="372.03" cy="300.01" r="2.5" fill="#2563eb"/>
  <circle cx="373.99" cy="249.94" r="2.5" fill="#2563eb"/>
  <circle cx="375.95" cy="250.03" r="2.5" fill="#2563eb"/>
  <circle cx="377.91" cy="250.03" r="2.5" fill="#2563eb"/>
  <circle cx="379.87" cy="250.03" r="2.5" fill="#2563eb"/>
  <circle cx="381.83" cy="200.04" r="2.5" fill="#2563eb"/>
  <circle cx="383.79" cy="300.01" r="2.5" fill="#2563eb"/>
  <circle cx="385.75" cy="249.90" r="2.5" fill="#2563eb"/>
  <circle cx="387.72" cy="300.01" r="2.5" fill="#2563eb"/>
  <circle cx="389.68" cy="300.01" r="2.5" fill="#2563eb"/>
  <circle cx="391.64" cy="300.06" r="2.5" fill="#2563eb"/>
  <circle cx="393.60" cy="300.01" r="2.5" fill="#2563eb"/>
  <circle cx="395.56" cy="300.01" r="2.5" fill="#2563eb"/>
  <circle cx="397.52" cy="243.95" r="2.5" fill="#2563eb"/>
  <circle cx="399.48" cy="249.94" r="2.5" fill="#2563eb"/>
  <circle cx="401.44" cy="299.97" r="2.5" fill="#2563eb"/>
  <circle cx="403.41" cy="300.01" r="2.5" fill="#2563eb"/>
  <circle cx="405.37" cy="300.01" r="2.5" fill="#2563eb"/>
  <circle cx="407.33" cy="250.03" r="2.5" fill="#2563eb"/>
  <circle cx="409.29" cy="300.01" r="2.5" fill="#2563eb"/>
  <circle cx="411.25" cy="300.01" r="2.5" fill="#2563eb"/>
  <circle cx="413.21" cy="299.97" r="2.5" fill="#2563eb"/>
  <circle cx="415.17" cy="249.99" r="2.5" fill="#2563eb"/>
  <circle cx="417.13" cy="300.01" r="2.5" fill="#2563eb"/>
  <circle cx="419.09" cy="299.93" r="2.5" fill="#2563eb"/>
  <circle cx="421.06" cy="300.01" r="2.5" fill="#2563eb"/>
  <circle cx="423.02" cy="299.93" r="2.5" fill="#2563eb"/>
  <circle cx="424.98" cy="300.01" r="2.5" fill="#2563eb"/>
  <circle cx="426.94" cy="300.01" r="2.5" fill="#2563eb"/>
  <circle cx="428.90" cy="299.89" r="2.5" fill="#2563eb"/>
  <circle cx="430.86" cy="299.97" r="2.5" fill="#2563eb"/>
  <circle cx="432.82" cy="250.03" r="2.5" fill="#2563eb"/>
  <circle cx="434.78" cy="299.93" r="2.5" fill="#2563eb"/>
  <circle cx="436.75" cy="299.89" r="2.5" fill="#2563eb"/>
  <circle cx="438.71" cy="299.97" r="2.5" fill="#2563eb"/>
  <circle cx="440.67" cy="249.94" r="2.5" fill="#2563eb"/>
  <circle cx="442.63" cy="300.01" r="2.5" fill="#2563eb"/>
  <circle cx="444.59" cy="300.01" r="2.5" fill="#2563eb"/>
  <circle cx="446.55" cy="299.97" r="2.5" fill="#2563eb"/>
  <circle cx="448.51" cy="249.99" r="2.5" fill="#2563eb"/>
  <circle cx="450.47" cy="299.97" r="2.5" fill="#2563eb"/>
  <circle cx="452.44" cy="299.97" r="2.5" fill="#2563eb"/>
  <circle cx="454.40" cy="300.06" r="2.5" fill="#2563eb"/>
  <circle cx="456.36" cy="300.06" r="2.5" fill="#2563eb"/>
  <circle cx="458.32" cy="299.93" r="2.5" fill="#2563eb"/>
  <circle cx="460.28" cy="300.01" r="2.5" fill="#2563eb"/>
  <circle cx="462.24" cy="300.01" r="2.5" fill="#2563eb"/>
  <circle cx="464.20" cy="299.93" r="2.5" fill="#2563eb"/>
  <circle cx="466.16" cy="300.01" r="2.5" fill="#2563eb"/>
  <circle cx="468.12" cy="300.01" r="2.5" fill="#2563eb"/>
  <circle cx="470.09" cy="299.97" r="2.5" fill="#2563eb"/>
  <circle cx="472.05" cy="300.01" r="2.5" fill="#2563eb"/>
  <circle cx="474.01" cy="300.01" r="2.5" fill="#2563eb"/>
  <circle cx="475.97" cy="300.01" r="2.5" fill="#2563eb"/>
  <circle cx="477.93" cy="300.01" r="2.5" fill="#2563eb"/>
  <circle cx="479.89" cy="249.86" r="2.5" fill="#2563eb"/>
  <circle cx="481.85" cy="300.01" r="2.5" fill="#2563eb"/>
  <circle cx="483.81" cy="300.10" r="2.5" fill="#2563eb"/>
  <circle cx="485.78" cy="299.93" r="2.5" fill="#2563eb"/>
  <circle cx="487.74" cy="300.01" r="2.5" fill="#2563eb"/>
  <circle cx="489.70" cy="299.93" r="2.5" fill="#2563eb"/>
  <circle cx="491.66" cy="300.01" r="2.5" fill="#2563eb"/>
  <circle cx="493.62" cy="300.01" r="2.5" fill="#2563eb"/>
  <circle cx="495.58" cy="300.01" r="2.5" fill="#2563eb"/>
  <circle cx="497.54" cy="300.01" r="2.5" fill="#2563eb"/>
  <circle cx="499.50" cy="300.01" r="2.5" fill="#2563eb"/>
  <circle cx="501.47" cy="299.97" r="2.5" fill="#2563eb"/>
  <circle cx="503.43" cy="300.01" r="2.5" fill="#2563eb"/>
  <circle cx="505.39" cy="300.01" r="2.5" fill="#2563eb"/>
  <circle cx="507.35" cy="300.01" r="2.5" fill="#2563eb"/>
  <circle cx="509.31" cy="300.01" r="2.5" fill="#2563eb"/>
  <circle cx="511.27" cy="250.03" r="2.5" fill="#2563eb"/>
  <circle cx="513.23" cy="300.01" r="2.5" fill="#2563eb"/>
  <circle cx="515.19" cy="300.01" r="2.5" fill="#2563eb"/>
  <circle cx="517.16" cy="299.97" r="2.5" fill="#2563eb"/>
  <circle cx="519.12" cy="300.01" r="2.5" fill="#2563eb"/>
  <circle cx="521.08" cy="300.01" r="2.5" fill="#2563eb"/>
  <circle cx="523.04" cy="299.97" r="2.5" fill="#2563eb"/>
  <circle cx="525.00" cy="299.97" r="2.5" fill="#2563eb"/>
  <circle cx="526.96" cy="300.01" r="2.5" fill="#2563eb"/>
  <circle cx="528.92" cy="299.97" r="2.5" fill="#2563eb"/>
  <circle cx="530.88" cy="300.01" r="2.5" fill="#2563eb"/>
  <circle cx="532.84" cy="299.93" r="2.5" fill="#2563eb"/>
  <circle cx="534.81" cy="300.01" r="2.5" fill="#2563eb"/>
  <circle cx="536.77" cy="250.03" r="2.5" fill="#2563eb"/>
  <circle cx="538.73" cy="300.01" r="2.5" fill="#2563eb"/>
  <circle cx="540.69" cy="300.01" r="2.5" fill="#2563eb"/>
  <circle cx="542.65" cy="300.01" r="2.5" fill="#2563eb"/>
  <circle cx="544.61" cy="300.01" r="2.5" fill="#2563eb"/>
  <circle cx="546.57" cy="300.01" r="2.5" fill="#2563eb"/>
  <circle cx="548.53" cy="299.89" r="2.5" fill="#2563eb"/>
  <circle cx="550.50" cy="300.01" r="2.5" fill="#2563eb"/>
  <circle cx="552.46" cy="300.01" r="2.5" fill="#2563eb"/>
  <circle cx="554.42" cy="250.07" r="2.5" fill="#2563eb"/>
  <circle cx="556.38" cy="300.01" r="2.5" fill="#2563eb"/>
  <circle cx="558.34" cy="299.93" r="2.5" fill="#2563eb"/>
  <circle cx="560.30" cy="300.01" r="2.5" fill="#2563eb"/>
  <circle cx="562.26" cy="299.97" r="2.5" fill="#2563eb"/>
  <circle cx="564.22" cy="299.97" r="2.5" fill="#2563eb"/>
  <circle cx="566.19" cy="299.97" r="2.5" fill="#2563eb"/>
  <circle cx="568.15" cy="250.03" r="2.5" fill="#2563eb"/>
  <circle cx="570.11" cy="300.01" r="2.5" fill="#2563eb"/>
  <circle cx="572.07" cy="300.01" r="2.5" fill="#2563eb"/>
  <circle cx="574.03" cy="300.01" r="2.5" fill="#2563eb"/>
  <circle cx="575.99" cy="300.01" r="2.5" fill="#2563eb"/>
  <circle cx="577.95" cy="299.97" r="2.5" fill="#2563eb"/>
  <circle cx="579.91" cy="300.01" r="2.5" fill="#2563eb"/>
  <circle cx="581.88" cy="299.97" r="2.5" fill="#2563eb"/>
  <circle cx="583.84" cy="300.01" r="2.5" fill="#2563eb"/>
  <circle cx="585.80" cy="299.97" r="2.5" fill="#2563eb"/>
  <circle cx="587.76" cy="249.90" r="2.5" fill="#2563eb"/>
  <circle cx="589.72" cy="300.01" r="2.5" fill="#2563eb"/>
  <circle cx="591.68" cy="300.01" r="2.5" fill="#2563eb"/>
  <circle cx="593.64" cy="299.89" r="2.5" fill="#2563eb"/>
  <circle cx="595.60" cy="299.97" r="2.5" fill="#2563eb"/>
  <circle cx="597.56" cy="299.97" r="2.5" fill="#2563eb"/>
  <circle cx="599.53" cy="249.99" r="2.5" fill="#2563eb"/>
  <circle cx="601.49" cy="299.97" r="2.5" fill="#2563eb"/>
  <circle cx="603.45" cy="299.89" r="2.5" fill="#2563eb"/>
  <circle cx="605.41" cy="300.01" r="2.5" fill="#2563eb"/>
  <circle cx="607.37" cy="299.97" r="2.5" fill="#2563eb"/>
  <circle cx="609.33" cy="299.97" r="2.5" fill="#2563eb"/>
  <circle cx="611.29" cy="300.01" r="2.5" fill="#2563eb"/>
  <circle cx="613.25" cy="299.97" r="2.5" fill="#2563eb"/>
  <circle cx="615.22" cy="249.99" r="2.5" fill="#2563eb"/>
  <circle cx="617.18" cy="299.97" r="2.5" fill="#2563eb"/>
  <circle cx="619.14" cy="299.97" r="2.5" fill="#2563eb"/>
  <circle cx="621.10" cy="300.06" r="2.5" fill="#2563eb"/>
  <circle cx="623.06" cy="300.06" r="2.5" fill="#2563eb"/>
  <circle cx="625.02" cy="249.94" r="2.5" fill="#2563eb"/>
  <circle cx="626.98" cy="300.01" r="2.5" fill="#2563eb"/>
  <circle cx="628.94" cy="299.93" r="2.5" fill="#2563eb"/>
  <circle cx="630.91" cy="300.01" r="2.5" fill="#2563eb"/>
  <circle cx="632.87" cy="300.01" r="2.5" fill="#2563eb"/>
  <circle cx="634.83" cy="249.99" r="2.5" fill="#2563eb"/>
  <circle cx="636.79" cy="300.01" r="2.5" fill="#2563eb"/>
  <circle cx="638.75" cy="300.01" r="2.5" fill="#2563eb"/>
  <circle cx="640.71" cy="300.01" r="2.5" fill="#2563eb"/>
  <circle cx="642.67" cy="299.93" r="2.5" fill="#2563eb"/>
  <circle cx="644.63" cy="299.93" r="2.5" fill="#2563eb"/>
  <circle cx="646.59" cy="300.01" r="2.5" fill="#2563eb"/>
  <circle cx="648.56" cy="300.01" r="2.5" fill="#2563eb"/>
  <circle cx="650.52" cy="249.94" r="2.5" fill="#2563eb"/>
  <circle cx="652.48" cy="299.97" r="2.5" fill="#2563eb"/>
  <circle cx="654.44" cy="299.97" r="2.5" fill="#2563eb"/>
  <circle cx="656.40" cy="300.01" r="2.5" fill="#2563eb"/>
  <circle cx="658.36" cy="300.01" r="2.5" fill="#2563eb"/>
  <circle cx="660.32" cy="300.01" r="2.5" fill="#2563eb"/>
  <circle cx="662.28" cy="249.99" r="2.5" fill="#2563eb"/>
  <circle cx="664.25" cy="300.01" r="2.5" fill="#2563eb"/>
  <circle cx="666.21" cy="300.01" r="2.5" fill="#2563eb"/>
  <circle cx="668.17" cy="300.01" r="2.5" fill="#2563eb"/>
  <circle cx="670.13" cy="250.03" r="2.5" fill="#2563eb"/>
  <circle cx="672.09" cy="300.01" r="2.5" fill="#2563eb"/>
  <circle cx="674.05" cy="300.01" r="2.5" fill="#2563eb"/>
  <circle cx="676.01" cy="300.01" r="2.5" fill="#2563eb"/>
  <circle cx="677.97" cy="299.97" r="2.5" fill="#2563eb"/>
  <circle cx="679.94" cy="300.01" r="2.5" fill="#2563eb"/>
  <circle cx="681.90" cy="300.01" r="2.5" fill="#2563eb"/>
  <circle cx="683.86" cy="299.97" r="2.5" fill="#2563eb"/>
  <circle cx="685.82" cy="299.97" r="2.5" fill="#2563eb"/>
  <circle cx="687.78" cy="300.01" r="2.5" fill="#2563eb"/>
  <circle cx="689.74" cy="300.01" r="2.5" fill="#2563eb"/>
  <circle cx="691.70" cy="299.97" r="2.5" fill="#2563eb"/>
  <circle cx="693.66" cy="299.93" r="2.5" fill="#2563eb"/>
  <circle cx="695.62" cy="300.01" r="2.5" fill="#2563eb"/>
  <circle cx="697.59" cy="300.06" r="2.5" fill="#2563eb"/>
  <circle cx="699.55" cy="299.97" r="2.5" fill="#2563eb"/>
  <circle cx="701.51" cy="300.01" r="2.5" fill="#2563eb"/>
  <circle cx="703.47" cy="250.03" r="2.5" fill="#2563eb"/>
  <circle cx="705.43" cy="250.03" r="2.5" fill="#2563eb"/>
  <circle cx="707.39" cy="299.93" r="2.5" fill="#2563eb"/>
  <circle cx="709.35" cy="299.97" r="2.5" fill="#2563eb"/>
  <circle cx="711.31" cy="300.01" r="2.5" fill="#2563eb"/>
  <circle cx="713.28" cy="300.01" r="2.5" fill="#2563eb"/>
  <circle cx="715.24" cy="300.06" r="2.5" fill="#2563eb"/>
  <circle cx="717.20" cy="300.01" r="2.5" fill="#2563eb"/>
  <circle cx="719.16" cy="299.93" r="2.5" fill="#2563eb"/>
  <circle cx="721.12" cy="300.01" r="2.5" fill="#2563eb"/>
  <circle cx="723.08" cy="300.01" r="2.5" fill="#2563eb"/>
  <circle cx="725.04" cy="299.97" r="2.5" fill="#2563eb"/>
  <circle cx="727.00" cy="299.97" r="2.5" fill="#2563eb"/>
  <circle cx="728.97" cy="300.01" r="2.5" fill="#2563eb"/>
  <circle cx="730.93" cy="250.03" r="2.5" fill="#2563eb"/>
  <circle cx="732.89" cy="300.01" r="2.5" fill="#2563eb"/>
  <circle cx="734.85" cy="300.01" r="2.5" fill="#2563eb"/>
  <circle cx="736.81" cy="300.01" r="2.5" fill="#2563eb"/>
  <circle cx="738.77" cy="299.97" r="2.5" fill="#2563eb"/>
  <circle cx="740.73" cy="300.01" r="2.5" fill="#2563eb"/>
  <circle cx="742.69" cy="299.97" r="2.5" fill="#2563eb"/>
  <circle cx="744.66" cy="300.01" r="2.5" fill="#2563eb"/>
  <circle cx="746.62" cy="299.97" r="2.5" fill="#2563eb"/>
  <circle cx="748.58" cy="299.97" r="2.5" fill="#2563eb"/>
  <circle cx="750.54" cy="299.93" r="2.5" fill="#2563eb"/>
  <circle cx="752.50" cy="300.01" r="2.5" fill="#2563eb"/>
  <circle cx="754.46" cy="300.01" r="2.5" fill="#2563eb"/>
  <circle cx="756.42" cy="299.89" r="2.5" fill="#2563eb"/>
  <circle cx="758.38" cy="299.97" r="2.5" fill="#2563eb"/>
  <circle cx="760.34" cy="299.97" r="2.5" fill="#2563eb"/>
  <circle cx="762.31" cy="300.06" r="2.5" fill="#2563eb"/>
  <circle cx="764.27" cy="249.90" r="2.5" fill="#2563eb"/>
  <circle cx="766.23" cy="299.89" r="2.5" fill="#2563eb"/>
  <circle cx="768.19" cy="300.01" r="2.5" fill="#2563eb"/>
  <circle cx="770.15" cy="299.97" r="2.5" fill="#2563eb"/>
  <circle cx="772.11" cy="299.97" r="2.5" fill="#2563eb"/>
  <circle cx="774.07" cy="299.97" r="2.5" fill="#2563eb"/>
  <circle cx="776.03" cy="300.01" r="2.5" fill="#2563eb"/>
  <circle cx="778.00" cy="300.01" r="2.5" fill="#2563eb"/>
  <circle cx="779.96" cy="299.97" r="2.5" fill="#2563eb"/>
  <circle cx="781.92" cy="299.97" r="2.5" fill="#2563eb"/>
  <circle cx="783.88" cy="299.97" r="2.5" fill="#2563eb"/>
  <circle cx="785.84" cy="250.03" r="2.5" fill="#2563eb"/>
  <circle cx="787.80" cy="299.93" r="2.5" fill="#2563eb"/>
  <circle cx="789.76" cy="300.01" r="2.5" fill="#2563eb"/>
  <circle cx="791.72" cy="300.01" r="2.5" fill="#2563eb"/>
  <circle cx="793.69" cy="299.93" r="2.5" fill="#2563eb"/>
  <circle cx="795.65" cy="300.01" r="2.5" fill="#2563eb"/>
  <circle cx="797.61" cy="300.01" r="2.5" fill="#2563eb"/>
  <circle cx="799.57" cy="299.97" r="2.5" fill="#2563eb"/>
  <circle cx="801.53" cy="300.01" r="2.5" fill="#2563eb"/>
  <circle cx="803.49" cy="300.01" r="2.5" fill="#2563eb"/>
  <circle cx="805.45" cy="300.06" r="2.5" fill="#2563eb"/>
  <circle cx="807.41" cy="300.01" r="2.5" fill="#2563eb"/>
  <circle cx="809.38" cy="299.97" r="2.5" fill="#2563eb"/>
  <circle cx="811.34" cy="299.89" r="2.5" fill="#2563eb"/>
  <circle cx="813.30" cy="300.01" r="2.5" fill="#2563eb"/>
  <circle cx="815.26" cy="300.01" r="2.5" fill="#2563eb"/>
  <circle cx="817.22" cy="249.94" r="2.5" fill="#2563eb"/>
  <circle cx="819.18" cy="249.94" r="2.5" fill="#2563eb"/>
  <circle cx="821.14" cy="300.01" r="2.5" fill="#2563eb"/>
  <circle cx="823.10" cy="300.01" r="2.5" fill="#2563eb"/>
  <circle cx="825.06" cy="300.01" r="2.5" fill="#2563eb"/>
  <circle cx="827.03" cy="300.01" r="2.5" fill="#2563eb"/>
  <circle cx="828.99" cy="299.97" r="2.5" fill="#2563eb"/>
  <circle cx="830.95" cy="250.03" r="2.5" fill="#2563eb"/>
  <circle cx="832.91" cy="300.01" r="2.5" fill="#2563eb"/>
  <circle cx="834.87" cy="300.01" r="2.5" fill="#2563eb"/>
  <circle cx="836.83" cy="300.01" r="2.5" fill="#2563eb"/>
  <circle cx="838.79" cy="300.01" r="2.5" fill="#2563eb"/>
  <circle cx="840.75" cy="250.03" r="2.5" fill="#2563eb"/>
  <circle cx="842.72" cy="249.99" r="2.5" fill="#2563eb"/>
  <circle cx="844.68" cy="300.01" r="2.5" fill="#2563eb"/>
  <circle cx="846.64" cy="299.97" r="2.5" fill="#2563eb"/>
  <circle cx="848.60" cy="300.01" r="2.5" fill="#2563eb"/>
  <circle cx="850.56" cy="299.97" r="2.5" fill="#2563eb"/>
  <circle cx="852.52" cy="300.01" r="2.5" fill="#2563eb"/>
  <circle cx="854.48" cy="299.97" r="2.5" fill="#2563eb"/>
  <circle cx="856.44" cy="299.97" r="2.5" fill="#2563eb"/>
  <circle cx="858.41" cy="299.97" r="2.5" fill="#2563eb"/>
  <circle cx="860.37" cy="300.06" r="2.5" fill="#2563eb"/>
  <circle cx="862.33" cy="249.99" r="2.5" fill="#2563eb"/>
  <circle cx="864.29" cy="300.01" r="2.5" fill="#2563eb"/>
  <circle cx="866.25" cy="250.03" r="2.5" fill="#2563eb"/>
  <circle cx="868.21" cy="249.94" r="2.5" fill="#2563eb"/>
  <circle cx="870.17" cy="249.99" r="2.5" fill="#2563eb"/>
  <circle cx="872.13" cy="300.01" r="2.5" fill="#2563eb"/>
  <circle cx="874.09" cy="300.06" r="2.5" fill="#2563eb"/>
  <circle cx="876.06" cy="300.01" r="2.5" fill="#2563eb"/>
  <circle cx="878.02" cy="299.97" r="2.5" fill="#2563eb"/>
  <circle cx="879.98" cy="299.97" r="2.5" fill="#2563eb"/>
  <circle cx="881.94" cy="300.01" r="2.5" fill="#2563eb"/>
  <circle cx="883.90" cy="299.93" r="2.5" fill="#2563eb"/>
  <circle cx="885.86" cy="299.89" r="2.5" fill="#2563eb"/>
  <circle cx="887.82" cy="299.89" r="2.5" fill="#2563eb"/>
  <circle cx="889.78" cy="299.89" r="2.5" fill="#2563eb"/>
  <circle cx="891.75" cy="299.89" r="2.5" fill="#2563eb"/>
  <circle cx="893.71" cy="299.85" r="2.5" fill="#2563eb"/>
  <circle cx="895.67" cy="299.85" r="2.5" fill="#2563eb"/>
  <circle cx="897.63" cy="299.89" r="2.5" fill="#2563eb"/>
  <circle cx="899.59" cy="299.81" r="2.5" fill="#2563eb"/>
  <circle cx="901.55" cy="299.81" r="2.5" fill="#2563eb"/>
  <circle cx="903.51" cy="299.81" r="2.5" fill="#2563eb"/>
  <circle cx="905.47" cy="299.76" r="2.5" fill="#2563eb"/>
  <circle cx="907.44" cy="299.76" r="2.5" fill="#2563eb"/>
  <circle cx="909.40" cy="299.76" r="2.5" fill="#2563eb"/>
  <circle cx="911.36" cy="299.72" r="2.5" fill="#2563eb"/>
  <circle cx="913.32" cy="299.68" r="2.5" fill="#2563eb"/>
  <circle cx="915.28" cy="299.60" r="2.5" fill="#2563eb"/>
  <circle cx="917.24" cy="299.60" r="2.5" fill="#2563eb"/>
  <circle cx="919.20" cy="299.60" r="2.5" fill="#2563eb"/>
  <circle cx="921.16" cy="299.56" r="2.5" fill="#2563eb"/>
  <circle cx="923.12" cy="299.47" r="2.5" fill="#2563eb"/>
  <circle cx="925.09" cy="299.43" r="2.5" fill="#2563eb"/>
  <circle cx="927.05" cy="299.43" r="2.5" fill="#2563eb"/>
  <circle cx="929.01" cy="299.39" r="2.5" fill="#2563eb"/>
  <circle cx="930.97" cy="299.47" r="2.5" fill="#2563eb"/>
  <circle cx="932.93" cy="259.82" r="2.5" fill="#2563eb"/>
  <circle cx="934.89" cy="338.96" r="2.5" fill="#2563eb"/>
  <circle cx="936.85" cy="299.31" r="2.5" fill="#2563eb"/>
  <circle cx="938.81" cy="299.31" r="2.5" fill="#2563eb"/>
  <circle cx="940.78" cy="299.26" r="2.5" fill="#2563eb"/>
  <circle cx="942.74" cy="299.68" r="2.5" fill="#2563eb"/>
  <circle cx="944.70" cy="299.68" r="2.5" fill="#2563eb"/>
  <circle cx="946.66" cy="299.68" r="2.5" fill="#2563eb"/>
  <circle cx="948.62" cy="299.64" r="2.5" fill="#2563eb"/>
  <circle cx="950.58" cy="299.14" r="2.5" fill="#2563eb"/>
  <circle cx="952.54" cy="299.14" r="2.5" fill="#2563eb"/>
  <circle cx="954.50" cy="299.10" r="2.5" fill="#2563eb"/>
  <circle cx="956.47" cy="299.10" r="2.5" fill="#2563eb"/>
  <circle cx="958.43" cy="299.10" r="2.5" fill="#2563eb"/>
  <circle cx="960.39" cy="248.07" r="2.5" fill="#2563eb"/>
  <circle cx="962.35" cy="299.06" r="2.5" fill="#2563eb"/>
  <circle cx="964.31" cy="299.06" r="2.5" fill="#2563eb"/>
  <circle cx="966.27" cy="299.06" r="2.5" fill="#2563eb"/>
  <circle cx="968.23" cy="299.06" r="2.5" fill="#2563eb"/>
  <circle cx="970.19" cy="299.06" r="2.5" fill="#2563eb"/>
  <circle cx="972.16" cy="298.97" r="2.5" fill="#2563eb"/>
  <circle cx="974.12" cy="298.97" r="2.5" fill="#2563eb"/>
  <circle cx="976.08" cy="298.93" r="2.5" fill="#2563eb"/>
  <circle cx="978.04" cy="298.97" r="2.5" fill="#2563eb"/>
  <circle cx="980.00" cy="298.93" r="2.5" fill="#2563eb"/>
</svg>
