<?xml version="1.0" encoding="UTF-8"?>
<svg xmlns="http://www.w3.org/2000/svg" width="1000" height="420" viewBox="0 0 1000 420">
  <rect width="100%" height="100%" fill="#ffffff"/>
  <text x="70" y="28" font-size="20" font-weight="600">수집 시점 기준 - 시간별 스냅샷</text>
  <text x="70" y="402" font-size="12" fill="#555">스냅샷 수</text>
  <line x1="70" y1="350.00" x2="980" y2="350.00" stroke="#e5e7eb" stroke-width="1"/>
  <text x="62" y="354.00" font-size="11" fill="#6b7280" text-anchor="end">0</text>
  <line x1="70" y1="290.00" x2="980" y2="290.00" stroke="#e5e7eb" stroke-width="1"/>
  <text x="62" y="294.00" font-size="11" fill="#6b7280" text-anchor="end">1,440</text>
  <line x1="70" y1="230.00" x2="980" y2="230.00" stroke="#e5e7eb" stroke-width="1"/>
  <text x="62" y="234.00" font-size="11" fill="#6b7280" text-anchor="end">2,880</text>
  <line x1="70" y1="170.00" x2="980" y2="170.00" stroke="#e5e7eb" stroke-width="1"/>
  <text x="62" y="174.00" font-size="11" fill="#6b7280" text-anchor="end">4,321</text>
  <line x1="70" y1="110.00" x2="980" y2="110.00" stroke="#e5e7eb" stroke-width="1"/>
  <text x="62" y="114.00" font-size="11" fill="#6b7280" text-anchor="end">5,761</text>
  <line x1="70" y1="50.00" x2="980" y2="50.00" stroke="#e5e7eb" stroke-width="1"/>
  <text x="62" y="54.00" font-size="11" fill="#6b7280" text-anchor="end">7,202</text>
  <line x1="70" y1="350" x2="980" y2="350" stroke="#111827" stroke-width="1.2"/>
  <line x1="70" y1="50" x2="70" y2="350" stroke="#111827" stroke-width="1.2"/>
  <line x1="70.00" y1="350" x2="70.00" y2="356" stroke="#9ca3af" stroke-width="1"/>
  <text x="70.00" y="372" font-size="10" fill="#6b7280" text-anchor="middle">2026-02-28 18</text>
  <line x1="145.83" y1="350" x2="145.83" y2="356" stroke="#9ca3af" stroke-width="1"/>
  <text x="145.83" y="372" font-size="10" fill="#6b7280" text-anchor="middle">2026-03-09 19</text>
  <line x1="221.67" y1="350" x2="221.67" y2="356" stroke="#9ca3af" stroke-width="1"/>
  <text x="221.67" y="372" font-size="10" fill="#6b7280" text-anchor="middle">2026-03-12 15</text>
  <line x1="297.50" y1="350" x2="297.50" y2="356" stroke="#9ca3af" stroke-width="1"/>
  <text x="297.50" y="372" font-size="10" fill="#6b7280" text-anchor="middle">2026-03-15 19</text>
  <line x1="373.33" y1="350" x2="373.33" y2="356" stroke="#9ca3af" stroke-width="1"/>
  <text x="373.33" y="372" font-size="10" fill="#6b7280" text-anchor="middle">2026-03-19 22</text>
  <line x1="449.17" y1="350" x2="449.17" y2="356" stroke="#9ca3af" stroke-width="1"/>
  <text x="449.17" y="372" font-size="10" fill="#6b7280" text-anchor="middle">2026-03-23 08</text>
  <line x1="525.00" y1="350" x2="525.00" y2="356" stroke="#9ca3af" stroke-width="1"/>
  <text x="525.00" y="372" font-size="10" fill="#6b7280" text-anchor="middle">2026-03-27 19</text>
  <line x1="600.83" y1="350" x2="600.83" y2="356" stroke="#9ca3af" stroke-width="1"/>
  <text x="600.83" y="372" font-size="10" fill="#6b7280" text-anchor="middle">2026-03-31 23</text>
  <line x1="676.67" y1="350" x2="676.67" y2="356" stroke="#9ca3af" stroke-width="1"/>
  <text x="676.67" y="372" font-size="10" fill="#6b7280" text-anchor="middle">2026-04-05 04</text>
  <line x1="752.50" y1="350" x2="752.50" y2="356" stroke="#9ca3af" stroke-width="1"/>
  <text x="752.50" y="372" font-size="10" fill="#6b7280" text-anchor="middle">2026-04-09 12</text>
  <line x1="828.33" y1="350" x2="828.33" y2="356" stroke="#9ca3af" stroke-width="1"/>
  <text x="828.33" y="372" font-size="10" fill="#6b7280" text-anchor="middle">2026-04-13 21</text>
  <line x1="904.17" y1="350" x2="904.17" y2="356" stroke="#9ca3af" stroke-width="1"/>
  <text x="904.17" y="372" font-size="10" fill="#6b7280" text-anchor="middle">2026-04-18 14</text>
  <line x1="980.00" y1="350" x2="980.00" y2="356" stroke="#9ca3af" stroke-width="1"/>
  <text x="980.00" y="372" font-size="10" fill="#6b7280" text-anchor="middle">2026-04-22 20</text>
  <polyline fill="none" stroke="#2563eb" stroke-width="2.5" points="70.00,50.00 71.22,50.12 72.45,50.17 73.67,50.46 74.89,50.00 76.12,266.90 77.34,50.12 78.56,50.08 79.78,177.46 81.01,211.58 82.23,175.34 83.45,304.14 84.68,200.46 85.90,250.94 87.12,300.01 88.35,300.06 89.57,300.01 90.79,300.01 92.02,348.00 93.24,300.01 94.46,249.99 95.69,200.00 96.91,249.99 98.13,249.99 99.35,250.03 100.58,250.03 101.80,250.03 103.02,250.40 104.25,250.90 105.47,250.90 106.69,251.32 107.92,249.94 109.14,300.01 110.36,299.93 111.59,251.03 112.81,300.68 114.03,250.03 115.26,200.00 116.48,249.99 117.70,250.03 118.92,250.03 120.15,250.03 121.37,300.01 122.59,200.04 123.82,250.03 125.04,250.03 126.26,250.03 127.49,249.90 128.71,250.03 129.93,250.03 131.16,250.94 132.38,250.44 133.60,250.03 134.83,250.03 136.05,300.47 137.27,300.01 138.49,300.43 139.72,250.03 140.94,249.99 142.16,300.43 143.39,249.90 144.61,249.99 145.83,249.99 147.06,200.04 148.28,300.01 149.50,300.01 150.73,300.01 151.95,249.90 153.17,300.01 154.40,250.03 155.62,249.99 156.84,199.96 158.06,300.01 159.29,200.00 160.51,250.36 161.73,250.03 162.96,300.01 164.18,300.01 165.40,250.44 166.63,300.01 167.85,250.03 169.07,250.03 170.30,249.99 171.52,250.49 172.74,250.03 173.97,200.04 175.19,300.01 176.41,250.03 177.63,300.01 178.86,250.11 180.08,300.01 181.30,250.03 182.53,250.03 183.75,199.92 184.97,250.03 186.20,250.03 187.42,250.03 188.64,254.36 189.87,300.01 191.09,299.97 192.31,250.36 193.53,299.97 194.76,250.03 195.98,250.03 197.20,250.03 198.43,250.03 199.65,249.99 200.87,200.00 202.10,299.93 203.32,300.01 204.54,299.97 205.77,249.94 206.99,249.99 208.21,249.82 209.44,249.94 210.66,250.28 211.88,207.00 213.10,250.03 214.33,250.32 215.55,250.40 216.77,300.93 218.00,300.01 219.22,300.10 220.44,249.94 221.67,249.99 222.89,250.07 224.11,249.99 225.34,250.03 226.56,249.94 227.78,200.00 229.01,300.39 230.23,300.01 231.45,300.01 232.67,250.44 233.90,300.39 235.12,249.86 236.34,250.11 237.57,201.46 238.79,300.01 240.01,200.83 241.24,250.03 242.46,249.99 243.68,300.26 244.91,300.01 246.13,300.01 247.35,250.03 248.58,250.03 249.80,250.03 251.02,250.03 252.24,249.99 253.47,250.03 254.69,200.00 255.91,300.26 257.14,249.99 258.36,300.01 259.58,249.94 260.81,250.03 262.03,250.03 263.25,250.03 264.48,200.04 265.70,300.01 266.92,249.90 268.15,300.01 269.37,300.01 270.59,300.06 271.81,300.01 273.04,300.01 274.26,243.95 275.48,249.94 276.71,299.97 277.93,300.01 279.15,300.01 280.38,250.03 281.60,300.01 282.82,300.01 284.05,299.97 285.27,249.99 286.49,300.01 287.72,299.93 288.94,300.01 290.16,299.93 291.38,300.01 292.61,300.01 293.83,299.89 295.05,299.97 296.28,250.03 297.50,299.93 298.72,299.89 299.95,299.97 301.17,249.94 302.39,300.01 303.62,300.01 304.84,299.97 306.06,249.99 307.28,299.97 308.51,299.97 309.73,300.06 310.95,300.06 312.18,299.93 313.40,300.01 314.62,300.01 315.85,299.93 317.07,300.01 318.29,300.01 319.52,299.97 320.74,300.01 321.96,300.01 323.19,300.01 324.41,300.01 325.63,249.86 326.85,300.01 328.08,300.10 329.30,299.93 330.52,300.01 331.75,299.93 332.97,300.01 334.19,300.01 335.42,300.01 336.64,300.01 337.86,300.01 339.09,299.97 340.31,300.01 341.53,300.01 342.76,300.01 343.98,300.01 345.20,250.03 346.42,300.01 347.65,300.01 348.87,299.97 350.09,300.01 351.32,300.01 352.54,299.97 353.76,299.97 354.99,300.01 356.21,299.97 357.43,300.01 358.66,299.93 359.88,300.01 361.10,250.03 362.33,300.01 363.55,300.01 364.77,300.01 365.99,300.01 367.22,300.01 368.44,299.89 369.66,300.01 370.89,300.01 372.11,250.07 373.33,300.01 374.56,299.93 375.78,300.01 377.00,299.97 378.23,299.97 379.45,299.97 380.67,250.03 381.90,300.01 383.12,300.01 384.34,300.01 385.56,300.01 386.79,299.97 388.01,300.01 389.23,299.97 390.46,300.01 391.68,299.97 392.90,249.90 394.13,300.01 395.35,300.01 396.57,299.89 397.80,299.97 399.02,299.97 400.24,249.99 401.47,299.97 402.69,299.89 403.91,300.01 405.13,299.97 406.36,299.97 407.58,300.01 408.80,299.97 410.03,249.99 411.25,299.97 412.47,299.97 413.70,300.06 414.92,300.06 416.14,249.94 417.37,300.01 418.59,299.93 419.81,300.01 421.03,300.01 422.26,249.99 423.48,300.01 424.70,300.01 425.93,300.01 427.15,299.93 428.37,299.93 429.60,300.01 430.82,300.01 432.04,249.94 433.27,299.97 434.49,299.97 435.71,300.01 436.94,300.01 438.16,300.01 439.38,249.99 440.60,300.01 441.83,300.01 443.05,300.01 444.27,250.03 445.50,300.01 446.72,300.01 447.94,300.01 449.17,299.97 450.39,300.01 451.61,300.01 452.84,299.97 454.06,299.97 455.28,300.01 456.51,300.01 457.73,299.97 458.95,299.93 460.17,300.01 461.40,300.06 462.62,299.97 463.84,300.01 465.07,250.03 466.29,250.03 467.51,299.93 468.74,299.97 469.96,300.01 471.18,300.01 472.41,300.06 473.63,300.01 474.85,299.93 476.08,300.01 477.30,300.01 478.52,299.97 479.74,299.97 480.97,300.01 482.19,250.03 483.41,300.01 484.64,300.01 485.86,300.01 487.08,299.97 488.31,300.01 489.53,299.97 490.75,300.01 491.98,299.97 493.20,299.97 494.42,299.93 495.65,300.01 496.87,300.01 498.09,299.89 499.31,299.97 500.54,299.97 501.76,300.06 502.98,249.90 504.21,299.89 505.43,300.01 506.65,299.97 507.88,299.97 509.10,299.97 510.32,300.01 511.55,300.01 512.77,299.97 513.99,299.97 515.22,299.97 516.44,250.03 517.66,299.93 518.88,300.01 520.11,300.01 521.33,299.93 522.55,300.01 523.78,300.01 525.00,299.97 526.22,300.01 527.45,300.01 528.67,300.06 529.89,300.01 531.12,299.97 532.34,299.89 533.56,300.01 534.78,300.01 536.01,249.94 537.23,249.94 538.45,300.01 539.68,300.01 540.90,300.01 542.12,300.01 543.35,299.97 544.57,250.03 545.79,300.01 547.02,300.01 548.24,300.01 549.46,300.01 550.69,250.03 551.91,249.99 553.13,300.01 554.35,299.97 555.58,300.01 556.80,299.97 558.02,300.01 559.25,299.97 560.47,299.97 561.69,299.97 562.92,300.06 564.14,249.99 565.36,300.01 566.59,250.03 567.81,249.94 569.03,249.99 570.26,300.01 571.48,300.06 572.70,300.01 573.92,299.97 575.15,299.97 576.37,300.01 577.59,299.93 578.82,299.89 580.04,299.89 581.26,299.89 582.49,299.89 583.71,299.85 584.93,299.85 586.16,299.89 587.38,299.81 588.60,299.81 589.83,299.81 591.05,299.76 592.27,299.76 593.49,299.76 594.72,299.72 595.94,299.68 597.16,299.60 598.39,299.60 599.61,299.60 600.83,299.56 602.06,299.47 603.28,299.43 604.50,299.43 605.73,299.39 606.95,299.47 608.17,259.82 609.40,338.96 610.62,299.31 611.84,299.31 613.06,299.26 614.29,299.68 615.51,299.68 616.73,299.68 617.96,299.64 619.18,299.14 620.40,299.14 621.63,299.10 622.85,299.10 624.07,299.10 625.30,248.07 626.52,299.06 627.74,299.06 628.97,299.06 630.19,299.06 631.41,299.06 632.63,298.97 633.86,298.97 635.08,298.93 636.30,298.97 637.53,298.93 638.75,298.89 639.97,298.89 641.20,298.89 642.42,298.89 643.64,247.78 644.87,298.89 646.09,298.89 647.31,298.85 648.53,298.85 649.76,298.81 650.98,298.81 652.20,298.81 653.43,298.81 654.65,298.81 655.87,298.81 657.10,298.81 658.32,298.81 659.54,298.81 660.77,298.72 661.99,247.45 663.21,247.45 664.44,298.72 665.66,298.72 666.88,298.72 668.10,298.72 669.33,298.72 670.55,298.72 671.77,247.36 673.00,298.68 674.22,247.36 675.44,247.36 676.67,247.36 677.89,298.68 679.11,298.68 680.34,298.68 681.56,298.68 682.78,298.68 684.01,341.67 685.23,307.01 686.45,298.68 687.67,298.68 688.90,298.68 690.12,247.36 691.34,298.64 692.57,247.36 693.79,247.28 695.01,247.20 696.24,298.60 697.46,298.60 698.68,247.03 699.91,298.51 701.13,298.51 702.35,298.51 703.58,298.51 704.80,298.51 706.02,298.51 707.24,298.51 708.47,298.51 709.69,298.51 710.91,298.51 712.14,298.51 713.36,298.51 714.58,298.51 715.81,298.51 717.03,298.51 718.25,298.51 719.48,298.51 720.70,298.51 721.92,298.51 723.15,298.51 724.37,298.51 725.59,298.51 726.81,298.51 728.04,298.51 729.26,298.51 730.48,298.51 731.71,298.47 732.93,298.51 734.15,298.51 735.38,298.47 736.60,298.51 737.82,298.47 739.05,298.51 740.27,298.43 741.49,298.56 742.72,298.43 743.94,298.43 745.16,298.43 746.38,298.43 747.61,298.43 748.83,298.43 750.05,298.43 751.28,298.43 752.50,298.43 753.72,298.43 754.95,298.43 756.17,298.43 757.39,298.43 758.62,298.43 759.84,298.43 761.06,298.43 762.28,298.43 763.51,298.43 764.73,298.43 765.95,298.43 767.18,298.43 768.40,298.43 769.62,298.43 770.85,298.43 772.07,298.43 773.29,298.43 774.52,298.43 775.74,298.43 776.96,298.43 778.19,298.43 779.41,298.43 780.63,298.43 781.85,298.43 783.08,298.43 784.30,298.39 785.52,298.39 786.75,298.43 787.97,298.43 789.19,298.39 790.42,298.39 791.64,298.39 792.86,298.43 794.09,298.43 795.31,298.43 796.53,246.82 797.76,298.43 798.98,246.78 800.20,246.78 801.42,246.78 802.65,246.70 803.87,246.78 805.09,298.39 806.32,298.39 807.54,298.39 808.76,298.39 809.99,298.39 811.21,246.78 812.43,298.39 813.66,298.39 814.88,298.39 816.10,298.39 817.33,298.39 818.55,246.78 819.77,246.78 820.99,298.39 822.22,298.39 823.44,298.39 824.66,298.39 825.89,298.39 827.11,298.39 828.33,298.39 829.56,298.39 830.78,298.39 832.00,298.39 833.23,298.39 834.45,298.39 835.67,298.39 836.90,298.39 838.12,298.35 839.34,298.39 840.56,298.39 841.79,298.35 843.01,298.35 844.23,298.35 845.46,298.35 846.68,298.35 847.90,298.35 849.13,298.35 850.35,298.35 851.57,298.35 852.80,298.35 854.02,298.35 855.24,298.35 856.47,298.35 857.69,298.35 858.91,298.35 860.13,298.35 861.36,298.35 862.58,298.35 863.80,298.35 865.03,298.35 866.25,298.35 867.47,298.35 868.70,298.35 869.92,298.35 871.14,298.35 872.37,298.35 873.59,298.35 874.81,298.35 876.03,298.35 877.26,298.35 878.48,298.35 879.70,298.35 880.93,298.35 882.15,298.35 883.37,298.35 884.60,298.35 885.82,298.35 887.04,298.35 888.27,298.35 889.49,298.35 890.71,298.35 891.94,298.35 893.16,298.35 894.38,298.35 895.60,298.35 896.83,298.35 898.05,298.35 899.27,298.35 900.50,298.35 901.72,298.35 902.94,298.35 904.17,298.35 905.39,298.39 906.61,298.39 907.84,298.39 909.06,246.78 910.28,298.39 911.51,298.39 912.73,298.39 913.95,298.39 915.17,298.39 916.40,298.39 917.62,298.39 918.84,246.78 920.07,298.39 921.29,298.39 922.51,298.39 923.74,298.39 924.96,298.39 926.18,298.39 927.41,298.39 928.63,246.78 929.85,298.39 931.08,298.39 932.30,298.39 933.52,298.39 934.74,298.39 935.97,298.39 937.19,298.39 938.41,298.39 939.64,298.39 940.86,298.39 942.08,298.39 943.31,298.35 944.53,298.39 945.75,298.39 946.98,298.39 948.20,298.35 949.42,298.35 950.65,298.35 951.87,298.35 953.09,298.35 954.31,298.35 955.54,298.35 956.76,298.35 957.98,298.35 959.21,298.35 960.43,298.35 961.65,298.35 962.88,298.35 964.10,298.35 965.32,298.35 966.55,298.35 967.77,298.39 968.99,298.39 970.22,298.39 971.44,298.39 972.66,298.39 973.88,298.39 975.11,298.35 976.33,298.39 977.55,298.39 978.78,298.39 980.00,298.39"/>
  <circle cx="70.00" cy="50.00" r="2.5" fill="#2563eb"/>
  <circle cx="71.22" cy="50.12" r="2.5" fill="#2563eb"/>
  <circle cx="72.45" cy="50.17" r="2.5" fill="#2563eb"/>
  <circle cx="73.67" cy="50.46" r="2.5" fill="#2563eb"/>
  <circle cx="74.89" cy="50.00" r="2.5" fill="#2563eb"/>
  <circle cx="76.12" cy="266.90" r="2.5" fill="#2563eb"/>
  <circle cx="77.34" cy="50.12" r="2.5" fill="#2563eb"/>
  <circle cx="78.56" cy="50.08" r="2.5" fill="#2563eb"/>
  <circle cx="79.78" cy="177.46" r="2.5" fill="#2563eb"/>
  <circle cx="81.01" cy="211.58" r="2.5" fill="#2563eb"/>
  <circle cx="82.23" cy="175.34" r="2.5" fill="#2563eb"/>
  <circle cx="83.45" cy="304.14" r="2.5" fill="#2563eb"/>
  <circle cx="84.68" cy="200.46" r="2.5" fill="#2563eb"/>
  <circle cx="85.90" cy="250.94" r="2.5" fill="#2563eb"/>
  <circle cx="87.12" cy="300.01" r="2.5" fill="#2563eb"/>
  <circle cx="88.35" cy="300.06" r="2.5" fill="#2563eb"/>
  <circle cx="89.57" cy="300.01" r="2.5" fill="#2563eb"/>
  <circle cx="90.79" cy="300.01" r="2.5" fill="#2563eb"/>
  <circle cx="92.02" cy="348.00" r="2.5" fill="#2563eb"/>
  <circle cx="93.24" cy="300.01" r="2.5" fill="#2563eb"/>
  <circle cx="94.46" cy="249.99" r="2.5" fill="#2563eb"/>
  <circle cx="95.69" cy="200.00" r="2.5" fill="#2563eb"/>
  <circle cx="96.91" cy="249.99" r="2.5" fill="#2563eb"/>
  <circle cx="98.13" cy="249.99" r="2.5" fill="#2563eb"/>
  <circle cx="99.35" cy="250.03" r="2.5" fill="#2563eb"/>
  <circle cx="100.58" cy="250.03" r="2.5" fill="#2563eb"/>
  <circle cx="101.80" cy="250.03" r="2.5" fill="#2563eb"/>
  <circle cx="103.02" cy="250.40" r="2.5" fill="#2563eb"/>
  <circle cx="104.25" cy="250.90" r="2.5" fill="#2563eb"/>
  <circle cx="105.47" cy="250.90" r="2.5" fill="#2563eb"/>
  <circle cx="106.69" cy="251.32" r="2.5" fill="#2563eb"/>
  <circle cx="107.92" cy="249.94" r="2.5" fill="#2563eb"/>
  <circle cx="109.14" cy="300.01" r="2.5" fill="#2563eb"/>
  <circle cx="110.36" cy="299.93" r="2.5" fill="#2563eb"/>
  <circle cx="111.59" cy="251.03" r="2.5" fill="#2563eb"/>
  <circle cx="112.81" cy="300.68" r="2.5" fill="#2563eb"/>
  <circle cx="114.03" cy="250.03" r="2.5" fill="#2563eb"/>
  <circle cx="115.26" cy="200.00" r="2.5" fill="#2563eb"/>
  <circle cx="116.48" cy="249.99" r="2.5" fill="#2563eb"/>
  <circle cx="117.70" cy="250.03" r="2.5" fill="#2563eb"/>
  <circle cx="118.92" cy="250.03" r="2.5" fill="#2563eb"/>
  <circle cx="120.15" cy="250.03" r="2.5" fill="#2563eb"/>
  <circle cx="121.37" cy="300.01" r="2.5" fill="#2563eb"/>
  <circle cx="122.59" cy="200.04" r="2.5" fill="#2563eb"/>
  <circle cx="123.82" cy="250.03" r="2.5" fill="#2563eb"/>
  <circle cx="125.04" cy="250.03" r="2.5" fill="#2563eb"/>
  <circle cx="126.26" cy="250.03" r="2.5" fill="#2563eb"/>
  <circle cx="127.49" cy="249.90" r="2.5" fill="#2563eb"/>
  <circle cx="128.71" cy="250.03" r="2.5" fill="#2563eb"/>
  <circle cx="129.93" cy="250.03" r="2.5" fill="#2563eb"/>
  <circle cx="131.16" cy="250.94" r="2.5" fill="#2563eb"/>
  <circle cx="132.38" cy="250.44" r="2.5" fill="#2563eb"/>
  <circle cx="133.60" cy="250.03" r="2.5" fill="#2563eb"/>
  <circle cx="134.83" cy="250.03" r="2.5" fill="#2563eb"/>
  <circle cx="136.05" cy="300.47" r="2.5" fill="#2563eb"/>
  <circle cx="137.27" cy="300.01" r="2.5" fill="#2563eb"/>
  <circle cx="138.49" cy="300.43" r="2.5" fill="#2563eb"/>
  <circle cx="139.72" cy="250.03" r="2.5" fill="#2563eb"/>
  <circle cx="140.94" cy="249.99" r="2.5" fill="#2563eb"/>
  <circle cx="142.16" cy="300.43" r="2.5" fill="#2563eb"/>
  <circle cx="143.39" cy="249.90" r="2.5" fill="#2563eb"/>
  <circle cx="144.61" cy="249.99" r="2.5" fill="#2563eb"/>
  <circle cx="145.83" cy="249.99" r="2.5" fill="#2563eb"/>
  <circle cx="147.06" cy="200.04" r="2.5" fill="#2563eb"/>
  <circle cx="148.28" cy="300.01" r="2.5" fill="#2563eb"/>
  <circle cx="149.50" cy="300.01" r="2.5" fill="#2563eb"/>
  <circle cx="150.73" cy="300.01" r="2.5" fill="#2563eb"/>
  <circle cx="151.95" cy="249.90" r="2.5" fill="#2563eb"/>
  <circle cx="153.17" cy="300.01" r="2.5" fill="#2563eb"/>
  <circle cx="154.40" cy="250.03" r="2.5" fill="#2563eb"/>
  <circle cx="155.62" cy="249.99" r="2.5" fill="#2563eb"/>
  <circle cx="156.84" cy="199.96" r="2.5" fill="#2563eb"/>
  <circle cx="158.06" cy="300.01" r="2.5" fill="#2563eb"/>
  <circle cx="159.29" cy="200.00" r="2.5" fill="#2563eb"/>
  <circle cx="160.51" cy="250.36" r="2.5" fill="#2563eb"/>
  <circle cx="161.73" cy="250.03" r="2.5" fill="#2563eb"/>
  <circle cx="162.96" cy="300.01" r="2.5" fill="#2563eb"/>
  <circle cx="164.18" cy="300.01" r="2.5" fill="#2563eb"/>
  <circle cx="165.40" cy="250.44" r="2.5" fill="#2563eb"/>
  <circle cx="166.63" cy="300.01" r="2.5" fill="#2563eb"/>
  <circle cx="167.85" cy="250.03" r="2.5" fill="#2563eb"/>
  <circle cx="169.07" cy="250.03" r="2.5" fill="#2563eb"/>
  <circle cx="170.30" cy="249.99" r="2.5" fill="#2563eb"/>
  <circle cx="171.52" cy="250.49" r="2.5" fill="#2563eb"/>
  <circle cx="172.74" cy="250.03" r="2.5" fill="#2563eb"/>
  <circle cx="173.97" cy="200.04" r="2.5" fill="#2563eb"/>
  <circle cx="175.19" cy="300.01" r="2.5" fill="#2563eb"/>
  <circle cx="176.41" cy="250.03" r="2.5" fill="#2563eb"/>
  <circle cx="177.63" cy="300.01" r="2.5" fill="#2563eb"/>
  <circle cx="178.86" cy="250.11" r="2.5" fill="#2563eb"/>
  <circle cx="180.08" cy="300.01" r="2.5" fill="#2563eb"/>
  <circle cx="181.30" cy="250.03" r="2.5" fill="#2563eb"/>
  <circle cx="182.53" cy="250.03" r="2.5" fill="#2563eb"/>
  <circle cx="183.75" cy="199.92" r="2.5" fill="#2563eb"/>
  <circle cx="184.97" cy="250.03" r="2.5" fill="#2563eb"/>
  <circle cx="186.20" cy="250.03" r="2.5" fill="#2563eb"/>
  <circle cx="187.42" cy="250.03" r="2.5" fill="#2563eb"/>
  <circle cx="188.64" cy="254.36" r="2.5" fill="#2563eb"/>
  <circle cx="189.87" cy="300.01" r="2.5" fill="#2563eb"/>
  <circle cx="191.09" cy="299.97" r="2.5" fill="#2563eb"/>
  <circle cx="192.31" cy="250.36" r="2.5" fill="#2563eb"/>
  <circle cx="193.53" cy="299.97" r="2.5" fill="#2563eb"/>
  <circle cx="194.76" cy="250.03" r="2.5" fill="#2563eb"/>
  <circle cx="195.98" cy="250.03" r="2.5" fill="#2563eb"/>
  <circle cx="197.20" cy="250.03" r="2.5" fill="#2563eb"/>
  <circle cx="198.43" cy="250.03" r="2.5" fill="#2563eb"/>
  <circle cx="199.65" cy="249.99" r="2.5" fill="#2563eb"/>
  <circle cx="200.87" cy="200.00" r="2.5" fill="#2563eb"/>
  <circle cx="202.10" cy="299.93" r="2.5" fill="#2563eb"/>
  <circle cx="203.32" cy="300.01" r="2.5" fill="#2563eb"/>
  <circle cx="204.54" cy="299.97" r="2.5" fill="#2563eb"/>
  <circle cx="205.77" cy="249.94" r="2.5" fill="#2563eb"/>
  <circle cx="206.99" cy="249.99" r="2.5" fill="#2563eb"/>
  <circle cx="208.21" cy="249.82" r="2.5" fill="#2563eb"/>
  <circle cx="209.44" cy="249.94" r="2.5" fill="#2563eb"/>
  <circle cx="210.66" cy="250.28" r="2.5" fill="#2563eb"/>
  <circle cx="211.88" cy="207.00" r="2.5" fill="#2563eb"/>
  <circle cx="213.10" cy="250.03" r="2.5" fill="#2563eb"/>
  <circle cx="214.33" cy="250.32" r="2.5" fill="#2563eb"/>
  <circle cx="215.55" cy="250.40" r="2.5" fill="#2563eb"/>
  <circle cx="216.77" cy="300.93" r="2.5" fill="#2563eb"/>
  <circle cx="218.00" cy="300.01" r="2.5" fill="#2563eb"/>
  <circle cx="219.22" cy="300.10" r="2.5" fill="#2563eb"/>
  <circle cx="220.44" cy="249.94" r="2.5" fill="#2563eb"/>
  <circle cx="221.67" cy="249.99" r="2.5" fill="#2563eb"/>
  <circle cx="222.89" cy="250.07" r="2.5" fill="#2563eb"/>
  <circle cx="224.11" cy="249.99" r="2.5" fill="#2563eb"/>
  <circle cx="225.34" cy="250.03" r="2.5" fill="#2563eb"/>
  <circle cx="226.56" cy="249.94" r="2.5" fill="#2563eb"/>
  <circle cx="227.78" cy="200.00" r="2.5" fill="#2563eb"/>
  <circle cx="229.01" cy="300.39" r="2.5" fill="#2563eb"/>
  <circle cx="230.23" cy="300.01" r="2.5" fill="#2563eb"/>
  <circle cx="231.45" cy="300.01" r="2.5" fill="#2563eb"/>
  <circle cx="232.67" cy="250.44" r="2.5" fill="#2563eb"/>
  <circle cx="233.90" cy="300.39" r="2.5" fill="#2563eb"/>
  <circle cx="235.12" cy="249.86" r="2.5" fill="#2563eb"/>
  <circle cx="236.34" cy="250.11" r="2.5" fill="#2563eb"/>
  <circle cx="237.57" cy="201.46" r="2.5" fill="#2563eb"/>
  <circle cx="238.79" cy="300.01" r="2.5" fill="#2563eb"/>
  <circle cx="240.01" cy="200.83" r="2.5" fill="#2563eb"/>
  <circle cx="241.24" cy="250.03" r="2.5" fill="#2563eb"/>
  <circle cx="242.46" cy="249.99" r="2.5" fill="#2563eb"/>
  <circle cx="243.68" cy="300.26" r="2.5" fill="#2563eb"/>
  <circle cx="244.91" cy="300.01" r="2.5" fill="#2563eb"/>
  <circle cx="246.13" cy="300.01" r="2.5" fill="#2563eb"/>
  <circle cx="247.35" cy="250.03" r="2.5" fill="#2563eb"/>
  <circle cx="248.58" cy="250.03" r="2.5" fill="#2563eb"/>
  <circle cx="249.80" cy="250.03" r="2.5" fill="#2563eb"/>
  <circle cx="251.02" cy="250.03" r="2.5" fill="#2563eb"/>
  <circle cx="252.24" cy="249.99" r="2.5" fill="#2563eb"/>
  <circle cx="253.47" cy="250.03" r="2.5" fill="#2563eb"/>
  <circle cx="254.69" cy="200.00" r="2.5" fill="#2563eb"/>
  <circle cx="255.91" cy="300.26" r="2.5" fill="#2563eb"/>
  <circle cx="257.14" cy="249.99" r="2.5" fill="#2563eb"/>
  <circle cx="258.36" cy="300.01" r="2.5" fill="#2563eb"/>
  <circle cx="259.58" cy="249.94" r="2.5" fill="#2563eb"/>
  <circle cx="260.81" cy="250.03" r="2.5" fill="#2563eb"/>
  <circle cx="262.03" cy="250.03" r="2.5" fill="#2563eb"/>
  <circle cx="263.25" cy="250.03" r="2.5" fill="#2563eb"/>
  <circle cx="264.48" cy="200.04" r="2.5" fill="#2563eb"/>
  <circle cx="265.70" cy="300.01" r="2.5" fill="#2563eb"/>
  <circle cx="266.92" cy="249.90" r="2.5" fill="#2563eb"/>
  <circle cx="268.15" cy="300.01" r="2.5" fill="#2563eb"/>
  <circle cx="269.37" cy="300.01" r="2.5" fill="#2563eb"/>
  <circle cx="270.59" cy="300.06" r="2.5" fill="#2563eb"/>
  <circle cx="271.81" cy="300.01" r="2.5" fill="#2563eb"/>
  <circle cx="273.04" cy="300.01" r="2.5" fill="#2563eb"/>
  <circle cx="274.26" cy="243.95" r="2.5" fill="#2563eb"/>
  <circle cx="275.48" cy="249.94" r="2.5" fill="#2563eb"/>
  <circle cx="276.71" cy="299.97" r="2.5" fill="#2563eb"/>
  <circle cx="277.93" cy="300.01" r="2.5" fill="#2563eb"/>
  <circle cx="279.15" cy="300.01" r="2.5" fill="#2563eb"/>
  <circle cx="280.38" cy="250.03" r="2.5" fill="#2563eb"/>
  <circle cx="281.60" cy="300.01" r="2.5" fill="#2563eb"/>
  <circle cx="282.82" cy="300.01" r="2.5" fill="#2563eb"/>
  <circle cx="284.05" cy="299.97" r="2.5" fill="#2563eb"/>
  <circle cx="285.27" cy="249.99" r="2.5" fill="#2563eb"/>
  <circle cx="286.49" cy="300.01" r="2.5" fill="#2563eb"/>
  <circle cx="287.72" cy="299.93" r="2.5" fill="#2563eb"/>
  <circle cx="288.94" cy="300.01" r="2.5" fill="#2563eb"/>
  <circle cx="290.16" cy="299.93" r="2.5" fill="#2563eb"/>
  <circle cx="291.38" cy="300.01" r="2.5" fill="#2563eb"/>
  <circle cx="292.61" cy="300.01" r="2.5" fill="#2563eb"/>
  <circle cx="293.83" cy="299.89" r="2.5" fill="#2563eb"/>
  <circle cx="295.05" cy="299.97" r="2.5" fill="#2563eb"/>
  <circle cx="296.28" cy="250.03" r="2.5" fill="#2563eb"/>
  <circle cx="297.50" cy="299.93" r="2.5" fill="#2563eb"/>
  <circle cx="298.72" cy="299.89" r="2.5" fill="#2563eb"/>
  <circle cx="299.95" cy="299.97" r="2.5" fill="#2563eb"/>
  <circle cx="301.17" cy="249.94" r="2.5" fill="#2563eb"/>
  <circle cx="302.39" cy="300.01" r="2.5" fill="#2563eb"/>
  <circle cx="303.62" cy="300.01" r="2.5" fill="#2563eb"/>
  <circle cx="304.84" cy="299.97" r="2.5" fill="#2563eb"/>
  <circle cx="306.06" cy="249.99" r="2.5" fill="#2563eb"/>
  <circle cx="307.28" cy="299.97" r="2.5" fill="#2563eb"/>
  <circle cx="308.51" cy="299.97" r="2.5" fill="#2563eb"/>
  <circle cx="309.73" cy="300.06" r="2.5" fill="#2563eb"/>
  <circle cx="310.95" cy="300.06" r="2.5" fill="#2563eb"/>
  <circle cx="312.18" cy="299.93" r="2.5" fill="#2563eb"/>
  <circle cx="313.40" cy="300.01" r="2.5" fill="#2563eb"/>
  <circle cx="314.62" cy="300.01" r="2.5" fill="#2563eb"/>
  <circle cx="315.85" cy="299.93" r="2.5" fill="#2563eb"/>
  <circle cx="317.07" cy="300.01" r="2.5" fill="#2563eb"/>
  <circle cx="318.29" cy="300.01" r="2.5" fill="#2563eb"/>
  <circle cx="319.52" cy="299.97" r="2.5" fill="#2563eb"/>
  <circle cx="320.74" cy="300.01" r="2.5" fill="#2563eb"/>
  <circle cx="321.96" cy="300.01" r="2.5" fill="#2563eb"/>
  <circle cx="323.19" cy="300.01" r="2.5" fill="#2563eb"/>
  <circle cx="324.41" cy="300.01" r="2.5" fill="#2563eb"/>
  <circle cx="325.63" cy="249.86" r="2.5" fill="#2563eb"/>
  <circle cx="326.85" cy="300.01" r="2.5" fill="#2563eb"/>
  <circle cx="328.08" cy="300.10" r="2.5" fill="#2563eb"/>
  <circle cx="329.30" cy="299.93" r="2.5" fill="#2563eb"/>
  <circle cx="330.52" cy="300.01" r="2.5" fill="#2563eb"/>
  <circle cx="331.75" cy="299.93" r="2.5" fill="#2563eb"/>
  <circle cx="332.97" cy="300.01" r="2.5" fill="#2563eb"/>
  <circle cx="334.19" cy="300.01" r="2.5" fill="#2563eb"/>
  <circle cx="335.42" cy="300.01" r="2.5" fill="#2563eb"/>
  <circle cx="336.64" cy="300.01" r="2.5" fill="#2563eb"/>
  <circle cx="337.86" cy="300.01" r="2.5" fill="#2563eb"/>
  <circle cx="339.09" cy="299.97" r="2.5" fill="#2563eb"/>
  <circle cx="340.31" cy="300.01" r="2.5" fill="#2563eb"/>
  <circle cx="341.53" cy="300.01" r="2.5" fill="#2563eb"/>
  <circle cx="342.76" cy="300.01" r="2.5" fill="#2563eb"/>
  <circle cx="343.98" cy="300.01" r="2.5" fill="#2563eb"/>
  <circle cx="345.20" cy="250.03" r="2.5" fill="#2563eb"/>
  <circle cx="346.42" cy="300.01" r="2.5" fill="#2563eb"/>
  <circle cx="347.65" cy="300.01" r="2.5" fill="#2563eb"/>
  <circle cx="348.87" cy="299.97" r="2.5" fill="#2563eb"/>
  <circle cx="350.09" cy="300.01" r="2.5" fill="#2563eb"/>
  <circle cx="351.32" cy="300.01" r="2.5" fill="#2563eb"/>
  <circle cx="352.54" cy="299.97" r="2.5" fill="#2563eb"/>
  <circle cx="353.76" cy="299.97" r="2.5" fill="#2563eb"/>
  <circle cx="354.99" cy="300.01" r="2.5" fill="#2563eb"/>
  <circle cx="356.21" cy="299.97" r="2.5" fill="#2563eb"/>
  <circle cx="357.43" cy="300.01" r="2.5" fill="#2563eb"/>
  <circle cx="358.66" cy="299.93" r="2.5" fill="#2563eb"/>
  <circle cx="359.88" cy="300.01" r="2.5" fill="#2563eb"/>
  <circle cx="361.10" cy="250.03" r="2.5" fill="#2563eb"/>
  <circle cx="362.33" cy="300.01" r="2.5" fill="#2563eb"/>
  <circle cx="363.55" cy="300.01" r="2.5" fill="#2563eb"/>
  <circle cx="364.77" cy="300.01" r="2.5" fill="#2563eb"/>
  <circle cx="365.99" cy="300.01" r="2.5" fill="#2563eb"/>
  <circle cx="367.22" cy="300.01" r="2.5" fill="#2563eb"/>
  <circle cx="368.44" cy="299.89" r="2.5" fill="#2563eb"/>
  <circle cx="369.66" cy="300.01" r="2.5" fill="#2563eb"/>
  <circle cx="370.89" cy="300.01" r="2.5" fill="#2563eb"/>
  <circle cx="372.11" cy="250.07" r="2.5" fill="#2563eb"/>
  <circle cx="373.33" cy="300.01" r="2.5" fill="#2563eb"/>
  <circle cx="374.56" cy="299.93" r="2.5" fill="#2563eb"/>
  <circle cx="375.78" cy="300.01" r="2.5" fill="#2563eb"/>
  <circle cx="377.00" cy="299.97" r="2.5" fill="#2563eb"/>
  <circle cx="378.23" cy="299.97" r="2.5" fill="#2563eb"/>
  <circle cx="379.45" cy="299.97" r="2.5" fill="#2563eb"/>
  <circle cx="380.67" cy="250.03" r="2.5" fill="#2563eb"/>
  <circle cx="381.90" cy="300.01" r="2.5" fill="#2563eb"/>
  <circle cx="383.12" cy="300.01" r="2.5" fill="#2563eb"/>
  <circle cx="384.34" cy="300.01" r="2.5" fill="#2563eb"/>
  <circle cx="385.56" cy="300.01" r="2.5" fill="#2563eb"/>
  <circle cx="386.79" cy="299.97" r="2.5" fill="#2563eb"/>
  <circle cx="388.01" cy="300.01" r="2.5" fill="#2563eb"/>
  <circle cx="389.23" cy="299.97" r="2.5" fill="#2563eb"/>
  <circle cx="390.46" cy="300.01" r="2.5" fill="#2563eb"/>
  <circle cx="391.68" cy="299.97" r="2.5" fill="#2563eb"/>
  <circle cx="392.90" cy="249.90" r="2.5" fill="#2563eb"/>
  <circle cx="394.13" cy="300.01" r="2.5" fill="#2563eb"/>
  <circle cx="395.35" cy="300.01" r="2.5" fill="#2563eb"/>
  <circle cx="396.57" cy="299.89" r="2.5" fill="#2563eb"/>
  <circle cx="397.80" cy="299.97" r="2.5" fill="#2563eb"/>
  <circle cx="399.02" cy="299.97" r="2.5" fill="#2563eb"/>
  <circle cx="400.24" cy="249.99" r="2.5" fill="#2563eb"/>
  <circle cx="401.47" cy="299.97" r="2.5" fill="#2563eb"/>
  <circle cx="402.69" cy="299.89" r="2.5" fill="#2563eb"/>
  <circle cx="403.91" cy="300.01" r="2.5" fill="#2563eb"/>
  <circle cx="405.13" cy="299.97" r="2.5" fill="#2563eb"/>
  <circle cx="406.36" cy="299.97" r="2.5" fill="#2563eb"/>
  <circle cx="407.58" cy="300.01" r="2.5" fill="#2563eb"/>
  <circle cx="408.80" cy="299.97" r="2.5" fill="#2563eb"/>
  <circle cx="410.03" cy="249.99" r="2.5" fill="#2563eb"/>
  <circle cx="411.25" cy="299.97" r="2.5" fill="#2563eb"/>
  <circle cx="412.47" cy="299.97" r="2.5" fill="#2563eb"/>
  <circle cx="413.70" cy="300.06" r="2.5" fill="#2563eb"/>
  <circle cx="414.92" cy="300.06" r="2.5" fill="#2563eb"/>
  <circle cx="416.14" cy="249.94" r="2.5" fill="#2563eb"/>
  <circle cx="417.37" cy="300.01" r="2.5" fill="#2563eb"/>
  <circle cx="418.59" cy="299.93" r="2.5" fill="#2563eb"/>
  <circle cx="419.81" cy="300.01" r="2.5" fill="#2563eb"/>
  <circle cx="421.03" cy="300.01" r="2.5" fill="#2563eb"/>
  <circle cx="422.26" cy="249.99" r="2.5" fill="#2563eb"/>
  <circle cx="423.48" cy="300.01" r="2.5" fill="#2563eb"/>
  <circle cx="424.70" cy="300.01" r="2.5" fill="#2563eb"/>
  <circle cx="425.93" cy="300.01" r="2.5" fill="#2563eb"/>
  <circle cx="427.15" cy="299.93" r="2.5" fill="#2563eb"/>
  <circle cx="428.37" cy="299.93" r="2.5" fill="#2563eb"/>
  <circle cx="429.60" cy="300.01" r="2.5" fill="#2563eb"/>
  <circle cx="430.82" cy="300.01" r="2.5" fill="#2563eb"/>
  <circle cx="432.04" cy="249.94" r="2.5" fill="#2563eb"/>
  <circle cx="433.27" cy="299.97" r="2.5" fill="#2563eb"/>
  <circle cx="434.49" cy="299.97" r="2.5" fill="#2563eb"/>
  <circle cx="435.71" cy="300.01" r="2.5" fill="#2563eb"/>
  <circle cx="436.94" cy="300.01" r="2.5" fill="#2563eb"/>
  <circle cx="438.16" cy="300.01" r="2.5" fill="#2563eb"/>
  <circle cx="439.38" cy="249.99" r="2.5" fill="#2563eb"/>
  <circle cx="440.60" cy="300.01" r="2.5" fill="#2563eb"/>
  <circle cx="441.83" cy="300.01" r="2.5" fill="#2563eb"/>
  <circle cx="443.05" cy="300.01" r="2.5" fill="#2563eb"/>
  <circle cx="444.27" cy="250.03" r="2.5" fill="#2563eb"/>
  <circle cx="445.50" cy="300.01" r="2.5" fill="#2563eb"/>
  <circle cx="446.72" cy="300.01" r="2.5" fill="#2563eb"/>
  <circle cx="447.94" cy="300.01" r="2.5" fill="#2563eb"/>
  <circle cx="449.17" cy="299.97" r="2.5" fill="#2563eb"/>
  <circle cx="450.39" cy="300.01" r="2.5" fill="#2563eb"/>
  <circle cx="451.61" cy="300.01" r="2.5" fill="#2563eb"/>
  <circle cx="452.84" cy="299.97" r="2.5" fill="#2563eb"/>
  <circle cx="454.06" cy="299.97" r="2.5" fill="#2563eb"/>
  <circle cx="455.28" cy="300.01" r="2.5" fill="#2563eb"/>
  <circle cx="456.51" cy="300.01" r="2.5" fill="#2563eb"/>
  <circle cx="457.73" cy="299.97" r="2.5" fill="#2563eb"/>
  <circle cx="458.95" cy="299.93" r="2.5" fill="#2563eb"/>
  <circle cx="460.17" cy="300.01" r="2.5" fill="#2563eb"/>
  <circle cx="461.40" cy="300.06" r="2.5" fill="#2563eb"/>
  <circle cx="462.62" cy="299.97" r="2.5" fill="#2563eb"/>
  <circle cx="463.84" cy="300.01" r="2.5" fill="#2563eb"/>
  <circle cx="465.07" cy="250.03" r="2.5" fill="#2563eb"/>
  <circle cx="466.29" cy="250.03" r="2.5" fill="#2563eb"/>
  <circle cx="467.51" cy="299.93" r="2.5" fill="#2563eb"/>
  <circle cx="468.74" cy="299.97" r="2.5" fill="#2563eb"/>
  <circle cx="469.96" cy="300.01" r="2.5" fill="#2563eb"/>
  <circle cx="471.18" cy="300.01" r="2.5" fill="#2563eb"/>
  <circle cx="472.41" cy="300.06" r="2.5" fill="#2563eb"/>
  <circle cx="473.63" cy="300.01" r="2.5" fill="#2563eb"/>
  <circle cx="474.85" cy="299.93" r="2.5" fill="#2563eb"/>
  <circle cx="476.08" cy="300.01" r="2.5" fill="#2563eb"/>
  <circle cx="477.30" cy="300.01" r="2.5" fill="#2563eb"/>
  <circle cx="478.52" cy="299.97" r="2.5" fill="#2563eb"/>
  <circle cx="479.74" cy="299.97" r="2.5" fill="#2563eb"/>
  <circle cx="480.97" cy="300.01" r="2.5" fill="#2563eb"/>
  <circle cx="482.19" cy="250.03" r="2.5" fill="#2563eb"/>
  <circle cx="483.41" cy="300.01" r="2.5" fill="#2563eb"/>
  <circle cx="484.64" cy="300.01" r="2.5" fill="#2563eb"/>
  <circle cx="485.86" cy="300.01" r="2.5" fill="#2563eb"/>
  <circle cx="487.08" cy="299.97" r="2.5" fill="#2563eb"/>
  <circle cx="488.31" cy="300.01" r="2.5" fill="#2563eb"/>
  <circle cx="489.53" cy="299.97" r="2.5" fill="#2563eb"/>
  <circle cx="490.75" cy="300.01" r="2.5" fill="#2563eb"/>
  <circle cx="491.98" cy="299.97" r="2.5" fill="#2563eb"/>
  <circle cx="493.20" cy="299.97" r="2.5" fill="#2563eb"/>
  <circle cx="494.42" cy="299.93" r="2.5" fill="#2563eb"/>
  <circle cx="495.65" cy="300.01" r="2.5" fill="#2563eb"/>
  <circle cx="496.87" cy="300.01" r="2.5" fill="#2563eb"/>
  <circle cx="498.09" cy="299.89" r="2.5" fill="#2563eb"/>
  <circle cx="499.31" cy="299.97" r="2.5" fill="#2563eb"/>
  <circle cx="500.54" cy="299.97" r="2.5" fill="#2563eb"/>
  <circle cx="501.76" cy="300.06" r="2.5" fill="#2563eb"/>
  <circle cx="502.98" cy="249.90" r="2.5" fill="#2563eb"/>
  <circle cx="504.21" cy="299.89" r="2.5" fill="#2563eb"/>
  <circle cx="505.43" cy="300.01" r="2.5" fill="#2563eb"/>
  <circle cx="506.65" cy="299.97" r="2.5" fill="#2563eb"/>
  <circle cx="507.88" cy="299.97" r="2.5" fill="#2563eb"/>
  <circle cx="509.10" cy="299.97" r="2.5" fill="#2563eb"/>
  <circle cx="510.32" cy="300.01" r="2.5" fill="#2563eb"/>
  <circle cx="511.55" cy="300.01" r="2.5" fill="#2563eb"/>
  <circle cx="512.77" cy="299.97" r="2.5" fill="#2563eb"/>
  <circle cx="513.99" cy="299.97" r="2.5" fill="#2563eb"/>
  <circle cx="515.22" cy="299.97" r="2.5" fill="#2563eb"/>
  <circle cx="516.44" cy="250.03" r="2.5" fill="#2563eb"/>
  <circle cx="517.66" cy="299.93" r="2.5" fill="#2563eb"/>
  <circle cx="518.88" cy="300.01" r="2.5" fill="#2563eb"/>
  <circle cx="520.11" cy="300.01" r="2.5" fill="#2563eb"/>
  <circle cx="521.33" cy="299.93" r="2.5" fill="#2563eb"/>
  <circle cx="522.55" cy="300.01" r="2.5" fill="#2563eb"/>
  <circle cx="523.78" cy="300.01" r="2.5" fill="#2563eb"/>
  <circle cx="525.00" cy="299.97" r="2.5" fill="#2563eb"/>
  <circle cx="526.22" cy="300.01" r="2.5" fill="#2563eb"/>
  <circle cx="527.45" cy="300.01" r="2.5" fill="#2563eb"/>
  <circle cx="528.67" cy="300.06" r="2.5" fill="#2563eb"/>
  <circle cx="529.89" cy="300.01" r="2.5" fill="#2563eb"/>
  <circle cx="531.12" cy="299.97" r="2.5" fill="#2563eb"/>
  <circle cx="532.34" cy="299.89" r="2.5" fill="#2563eb"/>
  <circle cx="533.56" cy="300.01" r="2.5" fill="#2563eb"/>
  <circle cx="534.78" cy="300.01" r="2.5" fill="#2563eb"/>
  <circle cx="536.01" cy="249.94" r="2.5" fill="#2563eb"/>
  <circle cx="537.23" cy="249.94" r="2.5" fill="#2563eb"/>
  <circle cx="538.45" cy="300.01" r="2.5" fill="#2563eb"/>
  <circle cx="539.68" cy="300.01" r="2.5" fill="#2563eb"/>
  <circle cx="540.90" cy="300.01" r="2.5" fill="#2563eb"/>
  <circle cx="542.12" cy="300.01" r="2.5" fill="#2563eb"/>
  <circle cx="543.35" cy="299.97" r="2.5" fill="#2563eb"/>
  <circle cx="544.57" cy="250.03" r="2.5" fill="#2563eb"/>
  <circle cx="545.79" cy="300.01" r="2.5" fill="#2563eb"/>
  <circle cx="547.02" cy="300.01" r="2.5" fill="#2563eb"/>
  <circle cx="548.24" cy="300.01" r="2.5" fill="#2563eb"/>
  <circle cx="549.46" cy="300.01" r="2.5" fill="#2563eb"/>
  <circle cx="550.69" cy="250.03" r="2.5" fill="#2563eb"/>
  <circle cx="551.91" cy="249.99" r="2.5" fill="#2563eb"/>
  <circle cx="553.13" cy="300.01" r="2.5" fill="#2563eb"/>
  <circle cx="554.35" cy="299.97" r="2.5" fill="#2563eb"/>
  <circle cx="555.58" cy="300.01" r="2.5" fill="#2563eb"/>
  <circle cx="556.80" cy="299.97" r="2.5" fill="#2563eb"/>
  <circle cx="558.02" cy="300.01" r="2.5" fill="#2563eb"/>
  <circle cx="559.25" cy="299.97" r="2.5" fill="#2563eb"/>
  <circle cx="560.47" cy="299.97" r="2.5" fill="#2563eb"/>
  <circle cx="561.69" cy="299.97" r="2.5" fill="#2563eb"/>
  <circle cx="562.92" cy="300.06" r="2.5" fill="#2563eb"/>
  <circle cx="564.14" cy="249.99" r="2.5" fill="#2563eb"/>
  <circle cx="565.36" cy="300.01" r="2.5" fill="#2563eb"/>
  <circle cx="566.59" cy="250.03" r="2.5" fill="#2563eb"/>
  <circle cx="567.81" cy="249.94" r="2.5" fill="#2563eb"/>
  <circle cx="569.03" cy="249.99" r="2.5" fill="#2563eb"/>
  <circle cx="570.26" cy="300.01" r="2.5" fill="#2563eb"/>
  <circle cx="571.48" cy="300.06" r="2.5" fill="#2563eb"/>
  <circle cx="572.70" cy="300.01" r="2.5" fill="#2563eb"/>
  <circle cx="573.92" cy="299.97" r="2.5" fill="#2563eb"/>
  <circle cx="575.15" cy="299.97" r="2.5" fill="#2563eb"/>
  <circle cx="576.37" cy="300.01" r="2.5" fill="#2563eb"/>
  <circle cx="577.59" cy="299.93" r="2.5" fill="#2563eb"/>
  <circle cx="578.82" cy="299.89" r="2.5" fill="#2563eb"/>
  <circle cx="580.04" cy="299.89" r="2.5" fill="#2563eb"/>
  <circle cx="581.26" cy="299.89" r="2.5" fill="#2563eb"/>
  <circle cx="582.49" cy="299.89" r="2.5" fill="#2563eb"/>
  <circle cx="583.71" cy="299.85" r="2.5" fill="#2563eb"/>
  <circle cx="584.93" cy="299.85" r="2.5" fill="#2563eb"/>
  <circle cx="586.16" cy="299.89" r="2.5" fill="#2563eb"/>
  <circle cx="587.38" cy="299.81" r="2.5" fill="#2563eb"/>
  <circle cx="588.60" cy="299.81" r="2.5" fill="#2563eb"/>
  <circle cx="589.83" cy="299.81" r="2.5" fill="#2563eb"/>
  <circle cx="591.05" cy="299.76" r="2.5" fill="#2563eb"/>
  <circle cx="592.27" cy="299.76" r="2.5" fill="#2563eb"/>
  <circle cx="593.49" cy="299.76" r="2.5" fill="#2563eb"/>
  <circle cx="594.72" cy="299.72" r="2.5" fill="#2563eb"/>
  <circle cx="595.94" cy="299.68" r="2.5" fill="#2563eb"/>
  <circle cx="597.16" cy="299.60" r="2.5" fill="#2563eb"/>
  <circle cx="598.39" cy="299.60" r="2.5" fill="#2563eb"/>
  <circle cx="599.61" cy="299.60" r="2.5" fill="#2563eb"/>
  <circle cx="600.83" cy="299.56" r="2.5" fill="#2563eb"/>
  <circle cx="602.06" cy="299.47" r="2.5" fill="#2563eb"/>
  <circle cx="603.28" cy="299.43" r="2.5" fill="#2563eb"/>
  <circle cx="604.50" cy="299.43" r="2.5" fill="#2563eb"/>
  <circle cx="605.73" cy="299.39" r="2.5" fill="#2563eb"/>
  <circle cx="606.95" cy="299.47" r="2.5" fill="#2563eb"/>
  <circle cx="608.17" cy="259.82" r="2.5" fill="#2563eb"/>
  <circle cx="609.40" cy="338.96" r="2.5" fill="#2563eb"/>
  <circle cx="610.62" cy="299.31" r="2.5" fill="#2563eb"/>
  <circle cx="611.84" cy="299.31" r="2.5" fill="#2563eb"/>
  <circle cx="613.06" cy="299.26" r="2.5" fill="#2563eb"/>
  <circle cx="614.29" cy="299.68" r="2.5" fill="#2563eb"/>
  <circle cx="615.51" cy="299.68" r="2.5" fill="#2563eb"/>
  <circle cx="616.73" cy="299.68" r="2.5" fill="#2563eb"/>
  <circle cx="617.96" cy="299.64" r="2.5" fill="#2563eb"/>
  <circle cx="619.18" cy="299.14" r="2.5" fill="#2563eb"/>
  <circle cx="620.40" cy="299.14" r="2.5" fill="#2563eb"/>
  <circle cx="621.63" cy="299.10" r="2.5" fill="#2563eb"/>
  <circle cx="622.85" cy="299.10" r="2.5" fill="#2563eb"/>
  <circle cx="624.07" cy="299.10" r="2.5" fill="#2563eb"/>
  <circle cx="625.30" cy="248.07" r="2.5" fill="#2563eb"/>
  <circle cx="626.52" cy="299.06" r="2.5" fill="#2563eb"/>
  <circle cx="627.74" cy="299.06" r="2.5" fill="#2563eb"/>
  <circle cx="628.97" cy="299.06" r="2.5" fill="#2563eb"/>
  <circle cx="630.19" cy="299.06" r="2.5" fill="#2563eb"/>
  <circle cx="631.41" cy="299.06" r="2.5" fill="#2563eb"/>
  <circle cx="632.63" cy="298.97" r="2.5" fill="#2563eb"/>
  <circle cx="633.86" cy="298.97" r="2.5" fill="#2563eb"/>
  <circle cx="635.08" cy="298.93" r="2.5" fill="#2563eb"/>
  <circle cx="636.30" cy="298.97" r="2.5" fill="#2563eb"/>
  <circle cx="637.53" cy="298.93" r="2.5" fill="#2563eb"/>
  <circle cx="638.75" cy="298.89" r="2.5" fill="#2563eb"/>
  <circle cx="639.97" cy="298.89" r="2.5" fill="#2563eb"/>
  <circle cx="641.20" cy="298.89" r="2.5" fill="#2563eb"/>
  <circle cx="642.42" cy="298.89" r="2.5" fill="#2563eb"/>
  <circle cx="643.64" cy="247.78" r="2.5" fill="#2563eb"/>
  <circle cx="644.87" cy="298.89" r="2.5" fill="#2563eb"/>
  <circle cx="646.09" cy="298.89" r="2.5" fill="#2563eb"/>
  <circle cx="647.31" cy="298.85" r="2.5" fill="#2563eb"/>
  <circle cx="648.53" cy="298.85" r="2.5" fill="#2563eb"/>
  <circle cx="649.76" cy="298.81" r="2.5" fill="#2563eb"/>
  <circle cx="650.98" cy="298.81" r="2.5" fill="#2563eb"/>
  <circle cx="652.20" cy="298.81" r="2.5" fill="#2563eb"/>
  <circle cx="653.43" cy="298.81" r="2.5" fill="#2563eb"/>
  <circle cx="654.65" cy="298.81" r="2.5" fill="#2563eb"/>
  <circle cx="655.87" cy="298.81" r="2.5" fill="#2563eb"/>
  <circle cx="657.10" cy="298.81" r="2.5" fill="#2563eb"/>
  <circle cx="658.32" cy="298.81" r="2.5" fill="#2563eb"/>
  <circle cx="659.54" cy="298.81" r="2.5" fill="#2563eb"/>
  <circle cx="660.77" cy="298.72" r="2.5" fill="#2563eb"/>
  <circle cx="661.99" cy="247.45" r="2.5" fill="#2563eb"/>
  <circle cx="663.21" cy="247.45" r="2.5" fill="#2563eb"/>
  <circle cx="664.44" cy="298.72" r="2.5" fill="#2563eb"/>
  <circle cx="665.66" cy="298.72" r="2.5" fill="#2563eb"/>
  <circle cx="666.88" cy="298.72" r="2.5" fill="#2563eb"/>
  <circle cx="668.10" cy="298.72" r="2.5" fill="#2563eb"/>
  <circle cx="669.33" cy="298.72" r="2.5" fill="#2563eb"/>
  <circle cx="670.55" cy="298.72" r="2.5" fill="#2563eb"/>
  <circle cx="671.77" cy="247.36" r="2.5" fill="#2563eb"/>
  <circle cx="673.00" cy="298.68" r="2.5" fill="#2563eb"/>
  <circle cx="674.22" cy="247.36" r="2.5" fill="#2563eb"/>
  <circle cx="675.44" cy="247.36" r="2.5" fill="#2563eb"/>
  <circle cx="676.67" cy="247.36" r="2.5" fill="#2563eb"/>
  <circle cx="677.89" cy="298.68" r="2.5" fill="#2563eb"/>
  <circle cx="679.11" cy="298.68" r="2.5" fill="#2563eb"/>
  <circle cx="680.34" cy="298.68" r="2.5" fill="#2563eb"/>
  <circle cx="681.56" cy="298.68" r="2.5" fill="#2563eb"/>
  <circle cx="682.78" cy="298.68" r="2.5" fill="#2563eb"/>
  <circle cx="684.01" cy="341.67" r="2.5" fill="#2563eb"/>
  <circle cx="685.23" cy="307.01" r="2.5" fill="#2563eb"/>
  <circle cx="686.45" cy="298.68" r="2.5" fill="#2563eb"/>
  <circle cx="687.67" cy="298.68" r="2.5" fill="#2563eb"/>
  <circle cx="688.90" cy="298.68" r="2.5" fill="#2563eb"/>
  <circle cx="690.12" cy="247.36" r="2.5" fill="#2563eb"/>
  <circle cx="691.34" cy="298.64" r="2.5" fill="#2563eb"/>
  <circle cx="692.57" cy="247.36" r="2.5" fill="#2563eb"/>
  <circle cx="693.79" cy="247.28" r="2.5" fill="#2563eb"/>
  <circle cx="695.01" cy="247.20" r="2.5" fill="#2563eb"/>
  <circle cx="696.24" cy="298.60" r="2.5" fill="#2563eb"/>
  <circle cx="697.46" cy="298.60" r="2.5" fill="#2563eb"/>
  <circle cx="698.68" cy="247.03" r="2.5" fill="#2563eb"/>
  <circle cx="699.91" cy="298.51" r="2.5" fill="#2563eb"/>
  <circle cx="701.13" cy="298.51" r="2.5" fill="#2563eb"/>
  <circle cx="702.35" cy="298.51" r="2.5" fill="#2563eb"/>
  <circle cx="703.58" cy="298.51" r="2.5" fill="#2563eb"/>
  <circle cx="704.80" cy="298.51" r="2.5" fill="#2563eb"/>
  <circle cx="706.02" cy="298.51" r="2.5" fill="#2563eb"/>
  <circle cx="707.24" cy="298.51" r="2.5" fill="#2563eb"/>
  <circle cx="708.47" cy="298.51" r="2.5" fill="#2563eb"/>
  <circle cx="709.69" cy="298.51" r="2.5" fill="#2563eb"/>
  <circle cx="710.91" cy="298.51" r="2.5" fill="#2563eb"/>
  <circle cx="712.14" cy="298.51" r="2.5" fill="#2563eb"/>
  <circle cx="713.36" cy="298.51" r="2.5" fill="#2563eb"/>
  <circle cx="714.58" cy="298.51" r="2.5" fill="#2563eb"/>
  <circle cx="715.81" cy="298.51" r="2.5" fill="#2563eb"/>
  <circle cx="717.03" cy="298.51" r="2.5" fill="#2563eb"/>
  <circle cx="718.25" cy="298.51" r="2.5" fill="#2563eb"/>
  <circle cx="719.48" cy="298.51" r="2.5" fill="#2563eb"/>
  <circle cx="720.70" cy="298.51" r="2.5" fill="#2563eb"/>
  <circle cx="721.92" cy="298.51" r="2.5" fill="#2563eb"/>
  <circle cx="723.15" cy="298.51" r="2.5" fill="#2563eb"/>
  <circle cx="724.37" cy="298.51" r="2.5" fill="#2563eb"/>
  <circle cx="725.59" cy="298.51" r="2.5" fill="#2563eb"/>
  <circle cx="726.81" cy="298.51" r="2.5" fill="#2563eb"/>
  <circle cx="728.04" cy="298.51" r="2.5" fill="#2563eb"/>
  <circle cx="729.26" cy="298.51" r="2.5" fill="#2563eb"/>
  <circle cx="730.48" cy="298.51" r="2.5" fill="#2563eb"/>
  <circle cx="731.71" cy="298.47" r="2.5" fill="#2563eb"/>
  <circle cx="732.93" cy="298.51" r="2.5" fill="#2563eb"/>
  <circle cx="734.15" cy="298.51" r="2.5" fill="#2563eb"/>
  <circle cx="735.38" cy="298.47" r="2.5" fill="#2563eb"/>
  <circle cx="736.60" cy="298.51" r="2.5" fill="#2563eb"/>
  <circle cx="737.82" cy="298.47" r="2.5" fill="#2563eb"/>
  <circle cx="739.05" cy="298.51" r="2.5" fill="#2563eb"/>
  <circle cx="740.27" cy="298.43" r="2.5" fill="#2563eb"/>
  <circle cx="741.49" cy="298.56" r="2.5" fill="#2563eb"/>
  <circle cx="742.72" cy="298.43" r="2.5" fill="#2563eb"/>
  <circle cx="743.94" cy="298.43" r="2.5" fill="#2563eb"/>
  <circle cx="745.16" cy="298.43" r="2.5" fill="#2563eb"/>
  <circle cx="746.38" cy="298.43" r="2.5" fill="#2563eb"/>
  <circle cx="747.61" cy="298.43" r="2.5" fill="#2563eb"/>
  <circle cx="748.83" cy="298.43" r="2.5" fill="#2563eb"/>
  <circle cx="750.05" cy="298.43" r="2.5" fill="#2563eb"/>
  <circle cx="751.28" cy="298.43" r="2.5" fill="#2563eb"/>
  <circle cx="752.50" cy="298.43" r="2.5" fill="#2563eb"/>
  <circle cx="753.72" cy="298.43" r="2.5" fill="#2563eb"/>
  <circle cx="754.95" cy="298.43" r="2.5" fill="#2563eb"/>
  <circle cx="756.17" cy="298.43" r="2.5" fill="#2563eb"/>
  <circle cx="757.39" cy="298.43" r="2.5" fill="#2563eb"/>
  <circle cx="758.62" cy="298.43" r="2.5" fill="#2563eb"/>
  <circle cx="759.84" cy="298.43" r="2.5" fill="#2563eb"/>
  <circle cx="761.06" cy="298.43" r="2.5" fill="#2563eb"/>
  <circle cx="762.28" cy="298.43" r="2.5" fill="#2563eb"/>
  <circle cx="763.51" cy="298.43" r="2.5" fill="#2563eb"/>
  <circle cx="764.73" cy="298.43" r="2.5" fill="#2563eb"/>
  <circle cx="765.95" cy="298.43" r="2.5" fill="#2563eb"/>
  <circle cx="767.18" cy="298.43" r="2.5" fill="#2563eb"/>
  <circle cx="768.40" cy="298.43" r="2.5" fill="#2563eb"/>
  <circle cx="769.62" cy="298.43" r="2.5" fill="#2563eb"/>
  <circle cx="770.85" cy="298.43" r="2.5" fill="#2563eb"/>
  <circle cx="772.07" cy="298.43" r="2.5" fill="#2563eb"/>
  <circle cx="773.29" cy="298.43" r="2.5" fill="#2563eb"/>
  <circle cx="774.52" cy="298.43" r="2.5" fill="#2563eb"/>
  <circle cx="775.74" cy="298.43" r="2.5" fill="#2563eb"/>
  <circle cx="776.96" cy="298.43" r="2.5" fill="#2563eb"/>
  <circle cx="778.19" cy="298.43" r="2.5" fill="#2563eb"/>
  <circle cx="779.41" cy="298.43" r="2.5" fill="#2563eb"/>
  <circle cx="780.63" cy="298.43" r="2.5" fill="#2563eb"/>
  <circle cx="781.85" cy="298.43" r="2.5" fill="#2563eb"/>
  <circle cx="783.08" cy="298.43" r="2.5" fill="#2563eb"/>
  <circle cx="784.30" cy="298.39" r="2.5" fill="#2563eb"/>
  <circle cx="785.52" cy="298.39" r="2.5" fill="#2563eb"/>
  <circle cx="786.75" cy="298.43" r="2.5" fill="#2563eb"/>
  <circle cx="787.97" cy="298.43" r="2.5" fill="#2563eb"/>
  <circle cx="789.19" cy="298.39" r="2.5" fill="#2563eb"/>
  <circle cx="790.42" cy="298.39" r="2.5" fill="#2563eb"/>
  <circle cx="791.64" cy="298.39" r="2.5" fill="#2563eb"/>
  <circle cx="792.86" cy="298.43" r="2.5" fill="#2563eb"/>
  <circle cx="794.09" cy="298.43" r="2.5" fill="#2563eb"/>
  <circle cx="795.31" cy="298.43" r="2.5" fill="#2563eb"/>
  <circle cx="796.53" cy="246.82" r="2.5" fill="#2563eb"/>
  <circle cx="797.76" cy="298.43" r="2.5" fill="#2563eb"/>
  <circle cx="798.98" cy="246.78" r="2.5" fill="#2563eb"/>
  <circle cx="800.20" cy="246.78" r="2.5" fill="#2563eb"/>
  <circle cx="801.42" cy="246.78" r="2.5" fill="#2563eb"/>
  <circle cx="802.65" cy="246.70" r="2.5" fill="#2563eb"/>
  <circle cx="803.87" cy="246.78" r="2.5" fill="#2563eb"/>
  <circle cx="805.09" cy="298.39" r="2.5" fill="#2563eb"/>
  <circle cx="806.32" cy="298.39" r="2.5" fill="#2563eb"/>
  <circle cx="807.54" cy="298.39" r="2.5" fill="#2563eb"/>
  <circle cx="808.76" cy="298.39" r="2.5" fill="#2563eb"/>
  <circle cx="809.99" cy="298.39" r="2.5" fill="#2563eb"/>
  <circle cx="811.21" cy="246.78" r="2.5" fill="#2563eb"/>
  <circle cx="812.43" cy="298.39" r="2.5" fill="#2563eb"/>
  <circle cx="813.66" cy="298.39" r="2.5" fill="#2563eb"/>
  <circle cx="814.88" cy="298.39" r="2.5" fill="#2563eb"/>
  <circle cx="816.10" cy="298.39" r="2.5" fill="#2563eb"/>
  <circle cx="817.33" cy="298.39" r="2.5" fill="#2563eb"/>
  <circle cx="818.55" cy="246.78" r="2.5" fill="#2563eb"/>
  <circle cx="819.77" cy="246.78" r="2.5" fill="#2563eb"/>
  <circle cx="820.99" cy="298.39" r="2.5" fill="#2563eb"/>
  <circle cx="822.22" cy="298.39" r="2.5" fill="#2563eb"/>
  <circle cx="823.44" cy="298.39" r="2.5" fill="#2563eb"/>
  <circle cx="824.66" cy="298.39" r="2.5" fill="#2563eb"/>
  <circle cx="825.89" cy="298.39" r="2.5" fill="#2563eb"/>
  <circle cx="827.11" cy="298.39" r="2.5" fill="#2563eb"/>
  <circle cx="828.33" cy="298.39" r="2.5" fill="#2563eb"/>
  <circle cx="829.56" cy="298.39" r="2.5" fill="#2563eb"/>
  <circle cx="830.78" cy="298.39" r="2.5" fill="#2563eb"/>
  <circle cx="832.00" cy="298.39" r="2.5" fill="#2563eb"/>
  <circle cx="833.23" cy="298.39" r="2.5" fill="#2563eb"/>
  <circle cx="834.45" cy="298.39" r="2.5" fill="#2563eb"/>
  <circle cx="835.67" cy="298.39" r="2.5" fill="#2563eb"/>
  <circle cx="836.90" cy="298.39" r="2.5" fill="#2563eb"/>
  <circle cx="838.12" cy="298.35" r="2.5" fill="#2563eb"/>
  <circle cx="839.34" cy="298.39" r="2.5" fill="#2563eb"/>
  <circle cx="840.56" cy="298.39" r="2.5" fill="#2563eb"/>
  <circle cx="841.79" cy="298.35" r="2.5" fill="#2563eb"/>
  <circle cx="843.01" cy="298.35" r="2.5" fill="#2563eb"/>
  <circle cx="844.23" cy="298.35" r="2.5" fill="#2563eb"/>
  <circle cx="845.46" cy="298.35" r="2.5" fill="#2563eb"/>
  <circle cx="846.68" cy="298.35" r="2.5" fill="#2563eb"/>
  <circle cx="847.90" cy="298.35" r="2.5" fill="#2563eb"/>
  <circle cx="849.13" cy="298.35" r="2.5" fill="#2563eb"/>
  <circle cx="850.35" cy="298.35" r="2.5" fill="#2563eb"/>
  <circle cx="851.57" cy="298.35" r="2.5" fill="#2563eb"/>
  <circle cx="852.80" cy="298.35" r="2.5" fill="#2563eb"/>
  <circle cx="854.02" cy="298.35" r="2.5" fill="#2563eb"/>
  <circle cx="855.24" cy="298.35" r="2.5" fill="#2563eb"/>
  <circle cx="856.47" cy="298.35" r="2.5" fill="#2563eb"/>
  <circle cx="857.69" cy="298.35" r="2.5" fill="#2563eb"/>
  <circle cx="858.91" cy="298.35" r="2.5" fill="#2563eb"/>
  <circle cx="860.13" cy="298.35" r="2.5" fill="#2563eb"/>
  <circle cx="861.36" cy="298.35" r="2.5" fill="#2563eb"/>
  <circle cx="862.58" cy="298.35" r="2.5" fill="#2563eb"/>
  <circle cx="863.80" cy="298.35" r="2.5" fill="#2563eb"/>
  <circle cx="865.03" cy="298.35" r="2.5" fill="#2563eb"/>
  <circle cx="866.25" cy="298.35" r="2.5" fill="#2563eb"/>
  <circle cx="867.47" cy="298.35" r="2.5" fill="#2563eb"/>
  <circle cx="868.70" cy="298.35" r="2.5" fill="#2563eb"/>
  <circle cx="869.92" cy="298.35" r="2.5" fill="#2563eb"/>
  <circle cx="871.14" cy="298.35" r="2.5" fill="#2563eb"/>
  <circle cx="872.37" cy="298.35" r="2.5" fill="#2563eb"/>
  <circle cx="873.59" cy="298.35" r="2.5" fill="#2563eb"/>
  <circle cx="874.81" cy="298.35" r="2.5" fill="#2563eb"/>
  <circle cx="876.03" cy="298.35" r="2.5" fill="#2563eb"/>
  <circle cx="877.26" cy="298.35" r="2.5" fill="#2563eb"/>
  <circle cx="878.48" cy="298.35" r="2.5" fill="#2563eb"/>
  <circle cx="879.70" cy="298.35" r="2.5" fill="#2563eb"/>
  <circle cx="880.93" cy="298.35" r="2.5" fill="#2563eb"/>
  <circle cx="882.15" cy="298.35" r="2.5" fill="#2563eb"/>
  <circle cx="883.37" cy="298.35" r="2.5" fill="#2563eb"/>
  <circle cx="884.60" cy="298.35" r="2.5" fill="#2563eb"/>
  <circle cx="885.82" cy="298.35" r="2.5" fill="#2563eb"/>
  <circle cx="887.04" cy="298.35" r="2.5" fill="#2563eb"/>
  <circle cx="888.27" cy="298.35" r="2.5" fill="#2563eb"/>
  <circle cx="889.49" cy="298.35" r="2.5" fill="#2563eb"/>
  <circle cx="890.71" cy="298.35" r="2.5" fill="#2563eb"/>
  <circle cx="891.94" cy="298.35" r="2.5" fill="#2563eb"/>
  <circle cx="893.16" cy="298.35" r="2.5" fill="#2563eb"/>
  <circle cx="894.38" cy="298.35" r="2.5" fill="#2563eb"/>
  <circle cx="895.60" cy="298.35" r="2.5" fill="#2563eb"/>
  <circle cx="896.83" cy="298.35" r="2.5" fill="#2563eb"/>
  <circle cx="898.05" cy="298.35" r="2.5" fill="#2563eb"/>
  <circle cx="899.27" cy="298.35" r="2.5" fill="#2563eb"/>
  <circle cx="900.50" cy="298.35" r="2.5" fill="#2563eb"/>
  <circle cx="901.72" cy="298.35" r="2.5" fill="#2563eb"/>
  <circle cx="902.94" cy="298.35" r="2.5" fill="#2563eb"/>
  <circle cx="904.17" cy="298.35" r="2.5" fill="#2563eb"/>
  <circle cx="905.39" cy="298.39" r="2.5" fill="#2563eb"/>
  <circle cx="906.61" cy="298.39" r="2.5" fill="#2563eb"/>
  <circle cx="907.84" cy="298.39" r="2.5" fill="#2563eb"/>
  <circle cx="909.06" cy="246.78" r="2.5" fill="#2563eb"/>
  <circle cx="910.28" cy="298.39" r="2.5" fill="#2563eb"/>
  <circle cx="911.51" cy="298.39" r="2.5" fill="#2563eb"/>
  <circle cx="912.73" cy="298.39" r="2.5" fill="#2563eb"/>
  <circle cx="913.95" cy="298.39" r="2.5" fill="#2563eb"/>
  <circle cx="915.17" cy="298.39" r="2.5" fill="#2563eb"/>
  <circle cx="916.40" cy="298.39" r="2.5" fill="#2563eb"/>
  <circle cx="917.62" cy="298.39" r="2.5" fill="#2563eb"/>
  <circle cx="918.84" cy="246.78" r="2.5" fill="#2563eb"/>
  <circle cx="920.07" cy="298.39" r="2.5" fill="#2563eb"/>
  <circle cx="921.29" cy="298.39" r="2.5" fill="#2563eb"/>
  <circle cx="922.51" cy="298.39" r="2.5" fill="#2563eb"/>
  <circle cx="923.74" cy="298.39" r="2.5" fill="#2563eb"/>
  <circle cx="924.96" cy="298.39" r="2.5" fill="#2563eb"/>
  <circle cx="926.18" cy="298.39" r="2.5" fill="#2563eb"/>
  <circle cx="927.41" cy="298.39" r="2.5" fill="#2563eb"/>
  <circle cx="928.63" cy="246.78" r="2.5" fill="#2563eb"/>
  <circle cx="929.85" cy="298.39" r="2.5" fill="#2563eb"/>
  <circle cx="931.08" cy="298.39" r="2.5" fill="#2563eb"/>
  <circle cx="932.30" cy="298.39" r="2.5" fill="#2563eb"/>
  <circle cx="933.52" cy="298.39" r="2.5" fill="#2563eb"/>
  <circle cx="934.74" cy="298.39" r="2.5" fill="#2563eb"/>
  <circle cx="935.97" cy="298.39" r="2.5" fill="#2563eb"/>
  <circle cx="937.19" cy="298.39" r="2.5" fill="#2563eb"/>
  <circle cx="938.41" cy="298.39" r="2.5" fill="#2563eb"/>
  <circle cx="939.64" cy="298.39" r="2.5" fill="#2563eb"/>
  <circle cx="940.86" cy="298.39" r="2.5" fill="#2563eb"/>
  <circle cx="942.08" cy="298.39" r="2.5" fill="#2563eb"/>
  <circle cx="943.31" cy="298.35" r="2.5" fill="#2563eb"/>
  <circle cx="944.53" cy="298.39" r="2.5" fill="#2563eb"/>
  <circle cx="945.75" cy="298.39" r="2.5" fill="#2563eb"/>
  <circle cx="946.98" cy="298.39" r="2.5" fill="#2563eb"/>
  <circle cx="948.20" cy="298.35" r="2.5" fill="#2563eb"/>
  <circle cx="949.42" cy="298.35" r="2.5" fill="#2563eb"/>
  <circle cx="950.65" cy="298.35" r="2.5" fill="#2563eb"/>
  <circle cx="951.87" cy="298.35" r="2.5" fill="#2563eb"/>
  <circle cx="953.09" cy="298.35" r="2.5" fill="#2563eb"/>
  <circle cx="954.31" cy="298.35" r="2.5" fill="#2563eb"/>
  <circle cx="955.54" cy="298.35" r="2.5" fill="#2563eb"/>
  <circle cx="956.76" cy="298.35" r="2.5" fill="#2563eb"/>
  <circle cx="957.98" cy="298.35" r="2.5" fill="#2563eb"/>
  <circle cx="959.21" cy="298.35" r="2.5" fill="#2563eb"/>
  <circle cx="960.43" cy="298.35" r="2.5" fill="#2563eb"/>
  <circle cx="961.65" cy="298.35" r="2.5" fill="#2563eb"/>
  <circle cx="962.88" cy="298.35" r="2.5" fill="#2563eb"/>
  <circle cx="964.10" cy="298.35" r="2.5" fill="#2563eb"/>
  <circle cx="965.32" cy="298.35" r="2.5" fill="#2563eb"/>
  <circle cx="966.55" cy="298.35" r="2.5" fill="#2563eb"/>
  <circle cx="967.77" cy="298.39" r="2.5" fill="#2563eb"/>
  <circle cx="968.99" cy="298.39" r="2.5" fill="#2563eb"/>
  <circle cx="970.22" cy="298.39" r="2.5" fill="#2563eb"/>
  <circle cx="971.44" cy="298.39" r="2.5" fill="#2563eb"/>
  <circle cx="972.66" cy="298.39" r="2.5" fill="#2563eb"/>
  <circle cx="973.88" cy="298.39" r="2.5" fill="#2563eb"/>
  <circle cx="975.11" cy="298.35" r="2.5" fill="#2563eb"/>
  <circle cx="976.33" cy="298.39" r="2.5" fill="#2563eb"/>
  <circle cx="977.55" cy="298.39" r="2.5" fill="#2563eb"/>
  <circle cx="978.78" cy="298.39" r="2.5" fill="#2563eb"/>
  <circle cx="980.00" cy="298.39" r="2.5" fill="#2563eb"/>
</svg>
