<?xml version="1.0" encoding="UTF-8"?>
<svg xmlns="http://www.w3.org/2000/svg" width="1000" height="420" viewBox="0 0 1000 420">
  <rect width="100%" height="100%" fill="#ffffff"/>
  <text x="70" y="28" font-size="20" font-weight="600">수집 시점 기준 - 시간별 스냅샷</text>
  <text x="70" y="402" font-size="12" fill="#555">스냅샷 수</text>
  <line x1="70" y1="350.00" x2="980" y2="350.00" stroke="#e5e7eb" stroke-width="1"/>
  <text x="62" y="354.00" font-size="11" fill="#6b7280" text-anchor="end">0</text>
  <line x1="70" y1="290.00" x2="980" y2="290.00" stroke="#e5e7eb" stroke-width="1"/>
  <text x="62" y="294.00" font-size="11" fill="#6b7280" text-anchor="end">1,440</text>
  <line x1="70" y1="230.00" x2="980" y2="230.00" stroke="#e5e7eb" stroke-width="1"/>
  <text x="62" y="234.00" font-size="11" fill="#6b7280" text-anchor="end">2,880</text>
  <line x1="70" y1="170.00" x2="980" y2="170.00" stroke="#e5e7eb" stroke-width="1"/>
  <text x="62" y="174.00" font-size="11" fill="#6b7280" text-anchor="end">4,321</text>
  <line x1="70" y1="110.00" x2="980" y2="110.00" stroke="#e5e7eb" stroke-width="1"/>
  <text x="62" y="114.00" font-size="11" fill="#6b7280" text-anchor="end">5,761</text>
  <line x1="70" y1="50.00" x2="980" y2="50.00" stroke="#e5e7eb" stroke-width="1"/>
  <text x="62" y="54.00" font-size="11" fill="#6b7280" text-anchor="end">7,202</text>
  <line x1="70" y1="350" x2="980" y2="350" stroke="#111827" stroke-width="1.2"/>
  <line x1="70" y1="50" x2="70" y2="350" stroke="#111827" stroke-width="1.2"/>
  <line x1="70.00" y1="350" x2="70.00" y2="356" stroke="#9ca3af" stroke-width="1"/>
  <text x="70.00" y="372" font-size="10" fill="#6b7280" text-anchor="middle">2026-02-28 18</text>
  <line x1="145.01" y1="350" x2="145.01" y2="356" stroke="#9ca3af" stroke-width="1"/>
  <text x="145.01" y="372" font-size="10" fill="#6b7280" text-anchor="middle">2026-03-08 17</text>
  <line x1="220.02" y1="350" x2="220.02" y2="356" stroke="#9ca3af" stroke-width="1"/>
  <text x="220.02" y="372" font-size="10" fill="#6b7280" text-anchor="middle">2026-03-10 10</text>
  <line x1="295.03" y1="350" x2="295.03" y2="356" stroke="#9ca3af" stroke-width="1"/>
  <text x="295.03" y="372" font-size="10" fill="#6b7280" text-anchor="middle">2026-03-12 03</text>
  <line x1="370.04" y1="350" x2="370.04" y2="356" stroke="#9ca3af" stroke-width="1"/>
  <text x="370.04" y="372" font-size="10" fill="#6b7280" text-anchor="middle">2026-03-13 21</text>
  <line x1="445.05" y1="350" x2="445.05" y2="356" stroke="#9ca3af" stroke-width="1"/>
  <text x="445.05" y="372" font-size="10" fill="#6b7280" text-anchor="middle">2026-03-16 00</text>
  <line x1="520.07" y1="350" x2="520.07" y2="356" stroke="#9ca3af" stroke-width="1"/>
  <text x="520.07" y="372" font-size="10" fill="#6b7280" text-anchor="middle">2026-03-18 15</text>
  <line x1="595.08" y1="350" x2="595.08" y2="356" stroke="#9ca3af" stroke-width="1"/>
  <text x="595.08" y="372" font-size="10" fill="#6b7280" text-anchor="middle">2026-03-21 00</text>
  <line x1="670.09" y1="350" x2="670.09" y2="356" stroke="#9ca3af" stroke-width="1"/>
  <text x="670.09" y="372" font-size="10" fill="#6b7280" text-anchor="middle">2026-03-23 01</text>
  <line x1="745.10" y1="350" x2="745.10" y2="356" stroke="#9ca3af" stroke-width="1"/>
  <text x="745.10" y="372" font-size="10" fill="#6b7280" text-anchor="middle">2026-03-25 17</text>
  <line x1="820.11" y1="350" x2="820.11" y2="356" stroke="#9ca3af" stroke-width="1"/>
  <text x="820.11" y="372" font-size="10" fill="#6b7280" text-anchor="middle">2026-03-28 04</text>
  <line x1="895.12" y1="350" x2="895.12" y2="356" stroke="#9ca3af" stroke-width="1"/>
  <text x="895.12" y="372" font-size="10" fill="#6b7280" text-anchor="middle">2026-03-30 20</text>
  <line x1="970.13" y1="350" x2="970.13" y2="356" stroke="#9ca3af" stroke-width="1"/>
  <text x="970.13" y="372" font-size="10" fill="#6b7280" text-anchor="middle">2026-04-02 14</text>
  <line x1="980.00" y1="350" x2="980.00" y2="356" stroke="#9ca3af" stroke-width="1"/>
  <text x="980.00" y="372" font-size="10" fill="#6b7280" text-anchor="middle">2026-04-02 23</text>
  <polyline fill="none" stroke="#2563eb" stroke-width="2.5" points="70.00,50.00 71.97,50.12 73.95,50.17 75.92,50.46 77.90,50.00 79.87,266.90 81.84,50.12 83.82,50.08 85.79,177.46 87.77,211.58 89.74,175.34 91.71,304.14 93.69,200.46 95.66,250.94 97.64,300.01 99.61,300.06 101.58,300.01 103.56,300.01 105.53,348.00 107.51,300.01 109.48,249.99 111.45,200.00 113.43,249.99 115.40,249.99 117.38,250.03 119.35,250.03 121.32,250.03 123.30,250.40 125.27,250.90 127.25,250.90 129.22,251.32 131.19,249.94 133.17,300.01 135.14,299.93 137.11,251.03 139.09,300.68 141.06,250.03 143.04,200.00 145.01,249.99 146.98,250.03 148.96,250.03 150.93,250.03 152.91,300.01 154.88,200.04 156.85,250.03 158.83,250.03 160.80,250.03 162.78,249.90 164.75,250.03 166.72,250.03 168.70,250.94 170.67,250.44 172.65,250.03 174.62,250.03 176.59,300.47 178.57,300.01 180.54,300.43 182.52,250.03 184.49,249.99 186.46,300.43 188.44,249.90 190.41,249.99 192.39,249.99 194.36,200.04 196.33,300.01 198.31,300.01 200.28,300.01 202.26,249.90 204.23,300.01 206.20,250.03 208.18,249.99 210.15,199.96 212.13,300.01 214.10,200.00 216.07,250.36 218.05,250.03 220.02,300.01 222.00,300.01 223.97,250.44 225.94,300.01 227.92,250.03 229.89,250.03 231.87,249.99 233.84,250.49 235.81,250.03 237.79,200.04 239.76,300.01 241.74,250.03 243.71,300.01 245.68,250.11 247.66,300.01 249.63,250.03 251.61,250.03 253.58,199.92 255.55,250.03 257.53,250.03 259.50,250.03 261.48,254.36 263.45,300.01 265.42,299.97 267.40,250.36 269.37,299.97 271.34,250.03 273.32,250.03 275.29,250.03 277.27,250.03 279.24,249.99 281.21,200.00 283.19,299.93 285.16,300.01 287.14,299.97 289.11,249.94 291.08,249.99 293.06,249.82 295.03,249.94 297.01,250.28 298.98,207.00 300.95,250.03 302.93,250.32 304.90,250.40 306.88,300.93 308.85,300.01 310.82,300.10 312.80,249.94 314.77,249.99 316.75,250.07 318.72,249.99 320.69,250.03 322.67,249.94 324.64,200.00 326.62,300.39 328.59,300.01 330.56,300.01 332.54,250.44 334.51,300.39 336.49,249.86 338.46,250.11 340.43,201.46 342.41,300.01 344.38,200.83 346.36,250.03 348.33,249.99 350.30,300.26 352.28,300.01 354.25,300.01 356.23,250.03 358.20,250.03 360.17,250.03 362.15,250.03 364.12,249.99 366.10,250.03 368.07,200.00 370.04,300.26 372.02,249.99 373.99,300.01 375.97,249.94 377.94,250.03 379.91,250.03 381.89,250.03 383.86,200.04 385.84,300.01 387.81,249.90 389.78,300.01 391.76,300.01 393.73,300.06 395.70,300.01 397.68,300.01 399.65,243.95 401.63,249.94 403.60,299.97 405.57,300.01 407.55,300.01 409.52,250.03 411.50,300.01 413.47,300.01 415.44,299.97 417.42,249.99 419.39,300.01 421.37,299.93 423.34,300.01 425.31,299.93 427.29,300.01 429.26,300.01 431.24,299.89 433.21,299.97 435.18,250.03 437.16,299.93 439.13,299.89 441.11,299.97 443.08,249.94 445.05,300.01 447.03,300.01 449.00,299.97 450.98,249.99 452.95,299.97 454.92,299.97 456.90,300.06 458.87,300.06 460.85,299.93 462.82,300.01 464.79,300.01 466.77,299.93 468.74,300.01 470.72,300.01 472.69,299.97 474.66,300.01 476.64,300.01 478.61,300.01 480.59,300.01 482.56,249.86 484.53,300.01 486.51,300.10 488.48,299.93 490.46,300.01 492.43,299.93 494.40,300.01 496.38,300.01 498.35,300.01 500.33,300.01 502.30,300.01 504.27,299.97 506.25,300.01 508.22,300.01 510.20,300.01 512.17,300.01 514.14,250.03 516.12,300.01 518.09,300.01 520.07,299.97 522.04,300.01 524.01,300.01 525.99,299.97 527.96,299.97 529.93,300.01 531.91,299.97 533.88,300.01 535.86,299.93 537.83,300.01 539.80,250.03 541.78,300.01 543.75,300.01 545.73,300.01 547.70,300.01 549.67,300.01 551.65,299.89 553.62,300.01 555.60,300.01 557.57,250.07 559.54,300.01 561.52,299.93 563.49,300.01 565.47,299.97 567.44,299.97 569.41,299.97 571.39,250.03 573.36,300.01 575.34,300.01 577.31,300.01 579.28,300.01 581.26,299.97 583.23,300.01 585.21,299.97 587.18,300.01 589.15,299.97 591.13,249.90 593.10,300.01 595.08,300.01 597.05,299.89 599.02,299.97 601.00,299.97 602.97,249.99 604.95,299.97 606.92,299.89 608.89,300.01 610.87,299.97 612.84,299.97 614.82,300.01 616.79,299.97 618.76,249.99 620.74,299.97 622.71,299.97 624.69,300.06 626.66,300.06 628.63,249.94 630.61,300.01 632.58,299.93 634.56,300.01 636.53,300.01 638.50,249.99 640.48,300.01 642.45,300.01 644.43,300.01 646.40,299.93 648.37,299.93 650.35,300.01 652.32,300.01 654.30,249.94 656.27,299.97 658.24,299.97 660.22,300.01 662.19,300.01 664.16,300.01 666.14,249.99 668.11,300.01 670.09,300.01 672.06,300.01 674.03,250.03 676.01,300.01 677.98,300.01 679.96,300.01 681.93,299.97 683.90,300.01 685.88,300.01 687.85,299.97 689.83,299.97 691.80,300.01 693.77,300.01 695.75,299.97 697.72,299.93 699.70,300.01 701.67,300.06 703.64,299.97 705.62,300.01 707.59,250.03 709.57,250.03 711.54,299.93 713.51,299.97 715.49,300.01 717.46,300.01 719.44,300.06 721.41,300.01 723.38,299.93 725.36,300.01 727.33,300.01 729.31,299.97 731.28,299.97 733.25,300.01 735.23,250.03 737.20,300.01 739.18,300.01 741.15,300.01 743.12,299.97 745.10,300.01 747.07,299.97 749.05,300.01 751.02,299.97 752.99,299.97 754.97,299.93 756.94,300.01 758.92,300.01 760.89,299.89 762.86,299.97 764.84,299.97 766.81,300.06 768.79,249.90 770.76,299.89 772.73,300.01 774.71,299.97 776.68,299.97 778.66,299.97 780.63,300.01 782.60,300.01 784.58,299.97 786.55,299.97 788.52,299.97 790.50,250.03 792.47,299.93 794.45,300.01 796.42,300.01 798.39,299.93 800.37,300.01 802.34,300.01 804.32,299.97 806.29,300.01 808.26,300.01 810.24,300.06 812.21,300.01 814.19,299.97 816.16,299.89 818.13,300.01 820.11,300.01 822.08,249.94 824.06,249.94 826.03,300.01 828.00,300.01 829.98,300.01 831.95,300.01 833.93,299.97 835.90,250.03 837.87,300.01 839.85,300.01 841.82,300.01 843.80,300.01 845.77,250.03 847.74,249.99 849.72,300.01 851.69,299.97 853.67,300.01 855.64,299.97 857.61,300.01 859.59,299.97 861.56,299.97 863.54,299.97 865.51,300.06 867.48,249.99 869.46,300.01 871.43,250.03 873.41,249.94 875.38,249.99 877.35,300.01 879.33,300.06 881.30,300.01 883.28,299.97 885.25,299.97 887.22,300.01 889.20,299.93 891.17,299.89 893.15,299.89 895.12,299.89 897.09,299.89 899.07,299.85 901.04,299.85 903.02,299.89 904.99,299.81 906.96,299.81 908.94,299.81 910.91,299.76 912.89,299.76 914.86,299.76 916.83,299.72 918.81,299.68 920.78,299.60 922.75,299.60 924.73,299.60 926.70,299.56 928.68,299.47 930.65,299.43 932.62,299.43 934.60,299.39 936.57,299.47 938.55,259.82 940.52,338.96 942.49,299.31 944.47,299.31 946.44,299.26 948.42,299.68 950.39,299.68 952.36,299.68 954.34,299.64 956.31,299.14 958.29,299.14 960.26,299.10 962.23,299.10 964.21,299.10 966.18,248.07 968.16,299.06 970.13,299.06 972.10,299.06 974.08,299.06 976.05,299.06 978.03,298.97 980.00,298.97"/>
  <circle cx="70.00" cy="50.00" r="2.5" fill="#2563eb"/>
  <circle cx="71.97" cy="50.12" r="2.5" fill="#2563eb"/>
  <circle cx="73.95" cy="50.17" r="2.5" fill="#2563eb"/>
  <circle cx="75.92" cy="50.46" r="2.5" fill="#2563eb"/>
  <circle cx="77.90" cy="50.00" r="2.5" fill="#2563eb"/>
  <circle cx="79.87" cy="266.90" r="2.5" fill="#2563eb"/>
  <circle cx="81.84" cy="50.12" r="2.5" fill="#2563eb"/>
  <circle cx="83.82" cy="50.08" r="2.5" fill="#2563eb"/>
  <circle cx="85.79" cy="177.46" r="2.5" fill="#2563eb"/>
  <circle cx="87.77" cy="211.58" r="2.5" fill="#2563eb"/>
  <circle cx="89.74" cy="175.34" r="2.5" fill="#2563eb"/>
  <circle cx="91.71" cy="304.14" r="2.5" fill="#2563eb"/>
  <circle cx="93.69" cy="200.46" r="2.5" fill="#2563eb"/>
  <circle cx="95.66" cy="250.94" r="2.5" fill="#2563eb"/>
  <circle cx="97.64" cy="300.01" r="2.5" fill="#2563eb"/>
  <circle cx="99.61" cy="300.06" r="2.5" fill="#2563eb"/>
  <circle cx="101.58" cy="300.01" r="2.5" fill="#2563eb"/>
  <circle cx="103.56" cy="300.01" r="2.5" fill="#2563eb"/>
  <circle cx="105.53" cy="348.00" r="2.5" fill="#2563eb"/>
  <circle cx="107.51" cy="300.01" r="2.5" fill="#2563eb"/>
  <circle cx="109.48" cy="249.99" r="2.5" fill="#2563eb"/>
  <circle cx="111.45" cy="200.00" r="2.5" fill="#2563eb"/>
  <circle cx="113.43" cy="249.99" r="2.5" fill="#2563eb"/>
  <circle cx="115.40" cy="249.99" r="2.5" fill="#2563eb"/>
  <circle cx="117.38" cy="250.03" r="2.5" fill="#2563eb"/>
  <circle cx="119.35" cy="250.03" r="2.5" fill="#2563eb"/>
  <circle cx="121.32" cy="250.03" r="2.5" fill="#2563eb"/>
  <circle cx="123.30" cy="250.40" r="2.5" fill="#2563eb"/>
  <circle cx="125.27" cy="250.90" r="2.5" fill="#2563eb"/>
  <circle cx="127.25" cy="250.90" r="2.5" fill="#2563eb"/>
  <circle cx="129.22" cy="251.32" r="2.5" fill="#2563eb"/>
  <circle cx="131.19" cy="249.94" r="2.5" fill="#2563eb"/>
  <circle cx="133.17" cy="300.01" r="2.5" fill="#2563eb"/>
  <circle cx="135.14" cy="299.93" r="2.5" fill="#2563eb"/>
  <circle cx="137.11" cy="251.03" r="2.5" fill="#2563eb"/>
  <circle cx="139.09" cy="300.68" r="2.5" fill="#2563eb"/>
  <circle cx="141.06" cy="250.03" r="2.5" fill="#2563eb"/>
  <circle cx="143.04" cy="200.00" r="2.5" fill="#2563eb"/>
  <circle cx="145.01" cy="249.99" r="2.5" fill="#2563eb"/>
  <circle cx="146.98" cy="250.03" r="2.5" fill="#2563eb"/>
  <circle cx="148.96" cy="250.03" r="2.5" fill="#2563eb"/>
  <circle cx="150.93" cy="250.03" r="2.5" fill="#2563eb"/>
  <circle cx="152.91" cy="300.01" r="2.5" fill="#2563eb"/>
  <circle cx="154.88" cy="200.04" r="2.5" fill="#2563eb"/>
  <circle cx="156.85" cy="250.03" r="2.5" fill="#2563eb"/>
  <circle cx="158.83" cy="250.03" r="2.5" fill="#2563eb"/>
  <circle cx="160.80" cy="250.03" r="2.5" fill="#2563eb"/>
  <circle cx="162.78" cy="249.90" r="2.5" fill="#2563eb"/>
  <circle cx="164.75" cy="250.03" r="2.5" fill="#2563eb"/>
  <circle cx="166.72" cy="250.03" r="2.5" fill="#2563eb"/>
  <circle cx="168.70" cy="250.94" r="2.5" fill="#2563eb"/>
  <circle cx="170.67" cy="250.44" r="2.5" fill="#2563eb"/>
  <circle cx="172.65" cy="250.03" r="2.5" fill="#2563eb"/>
  <circle cx="174.62" cy="250.03" r="2.5" fill="#2563eb"/>
  <circle cx="176.59" cy="300.47" r="2.5" fill="#2563eb"/>
  <circle cx="178.57" cy="300.01" r="2.5" fill="#2563eb"/>
  <circle cx="180.54" cy="300.43" r="2.5" fill="#2563eb"/>
  <circle cx="182.52" cy="250.03" r="2.5" fill="#2563eb"/>
  <circle cx="184.49" cy="249.99" r="2.5" fill="#2563eb"/>
  <circle cx="186.46" cy="300.43" r="2.5" fill="#2563eb"/>
  <circle cx="188.44" cy="249.90" r="2.5" fill="#2563eb"/>
  <circle cx="190.41" cy="249.99" r="2.5" fill="#2563eb"/>
  <circle cx="192.39" cy="249.99" r="2.5" fill="#2563eb"/>
  <circle cx="194.36" cy="200.04" r="2.5" fill="#2563eb"/>
  <circle cx="196.33" cy="300.01" r="2.5" fill="#2563eb"/>
  <circle cx="198.31" cy="300.01" r="2.5" fill="#2563eb"/>
  <circle cx="200.28" cy="300.01" r="2.5" fill="#2563eb"/>
  <circle cx="202.26" cy="249.90" r="2.5" fill="#2563eb"/>
  <circle cx="204.23" cy="300.01" r="2.5" fill="#2563eb"/>
  <circle cx="206.20" cy="250.03" r="2.5" fill="#2563eb"/>
  <circle cx="208.18" cy="249.99" r="2.5" fill="#2563eb"/>
  <circle cx="210.15" cy="199.96" r="2.5" fill="#2563eb"/>
  <circle cx="212.13" cy="300.01" r="2.5" fill="#2563eb"/>
  <circle cx="214.10" cy="200.00" r="2.5" fill="#2563eb"/>
  <circle cx="216.07" cy="250.36" r="2.5" fill="#2563eb"/>
  <circle cx="218.05" cy="250.03" r="2.5" fill="#2563eb"/>
  <circle cx="220.02" cy="300.01" r="2.5" fill="#2563eb"/>
  <circle cx="222.00" cy="300.01" r="2.5" fill="#2563eb"/>
  <circle cx="223.97" cy="250.44" r="2.5" fill="#2563eb"/>
  <circle cx="225.94" cy="300.01" r="2.5" fill="#2563eb"/>
  <circle cx="227.92" cy="250.03" r="2.5" fill="#2563eb"/>
  <circle cx="229.89" cy="250.03" r="2.5" fill="#2563eb"/>
  <circle cx="231.87" cy="249.99" r="2.5" fill="#2563eb"/>
  <circle cx="233.84" cy="250.49" r="2.5" fill="#2563eb"/>
  <circle cx="235.81" cy="250.03" r="2.5" fill="#2563eb"/>
  <circle cx="237.79" cy="200.04" r="2.5" fill="#2563eb"/>
  <circle cx="239.76" cy="300.01" r="2.5" fill="#2563eb"/>
  <circle cx="241.74" cy="250.03" r="2.5" fill="#2563eb"/>
  <circle cx="243.71" cy="300.01" r="2.5" fill="#2563eb"/>
  <circle cx="245.68" cy="250.11" r="2.5" fill="#2563eb"/>
  <circle cx="247.66" cy="300.01" r="2.5" fill="#2563eb"/>
  <circle cx="249.63" cy="250.03" r="2.5" fill="#2563eb"/>
  <circle cx="251.61" cy="250.03" r="2.5" fill="#2563eb"/>
  <circle cx="253.58" cy="199.92" r="2.5" fill="#2563eb"/>
  <circle cx="255.55" cy="250.03" r="2.5" fill="#2563eb"/>
  <circle cx="257.53" cy="250.03" r="2.5" fill="#2563eb"/>
  <circle cx="259.50" cy="250.03" r="2.5" fill="#2563eb"/>
  <circle cx="261.48" cy="254.36" r="2.5" fill="#2563eb"/>
  <circle cx="263.45" cy="300.01" r="2.5" fill="#2563eb"/>
  <circle cx="265.42" cy="299.97" r="2.5" fill="#2563eb"/>
  <circle cx="267.40" cy="250.36" r="2.5" fill="#2563eb"/>
  <circle cx="269.37" cy="299.97" r="2.5" fill="#2563eb"/>
  <circle cx="271.34" cy="250.03" r="2.5" fill="#2563eb"/>
  <circle cx="273.32" cy="250.03" r="2.5" fill="#2563eb"/>
  <circle cx="275.29" cy="250.03" r="2.5" fill="#2563eb"/>
  <circle cx="277.27" cy="250.03" r="2.5" fill="#2563eb"/>
  <circle cx="279.24" cy="249.99" r="2.5" fill="#2563eb"/>
  <circle cx="281.21" cy="200.00" r="2.5" fill="#2563eb"/>
  <circle cx="283.19" cy="299.93" r="2.5" fill="#2563eb"/>
  <circle cx="285.16" cy="300.01" r="2.5" fill="#2563eb"/>
  <circle cx="287.14" cy="299.97" r="2.5" fill="#2563eb"/>
  <circle cx="289.11" cy="249.94" r="2.5" fill="#2563eb"/>
  <circle cx="291.08" cy="249.99" r="2.5" fill="#2563eb"/>
  <circle cx="293.06" cy="249.82" r="2.5" fill="#2563eb"/>
  <circle cx="295.03" cy="249.94" r="2.5" fill="#2563eb"/>
  <circle cx="297.01" cy="250.28" r="2.5" fill="#2563eb"/>
  <circle cx="298.98" cy="207.00" r="2.5" fill="#2563eb"/>
  <circle cx="300.95" cy="250.03" r="2.5" fill="#2563eb"/>
  <circle cx="302.93" cy="250.32" r="2.5" fill="#2563eb"/>
  <circle cx="304.90" cy="250.40" r="2.5" fill="#2563eb"/>
  <circle cx="306.88" cy="300.93" r="2.5" fill="#2563eb"/>
  <circle cx="308.85" cy="300.01" r="2.5" fill="#2563eb"/>
  <circle cx="310.82" cy="300.10" r="2.5" fill="#2563eb"/>
  <circle cx="312.80" cy="249.94" r="2.5" fill="#2563eb"/>
  <circle cx="314.77" cy="249.99" r="2.5" fill="#2563eb"/>
  <circle cx="316.75" cy="250.07" r="2.5" fill="#2563eb"/>
  <circle cx="318.72" cy="249.99" r="2.5" fill="#2563eb"/>
  <circle cx="320.69" cy="250.03" r="2.5" fill="#2563eb"/>
  <circle cx="322.67" cy="249.94" r="2.5" fill="#2563eb"/>
  <circle cx="324.64" cy="200.00" r="2.5" fill="#2563eb"/>
  <circle cx="326.62" cy="300.39" r="2.5" fill="#2563eb"/>
  <circle cx="328.59" cy="300.01" r="2.5" fill="#2563eb"/>
  <circle cx="330.56" cy="300.01" r="2.5" fill="#2563eb"/>
  <circle cx="332.54" cy="250.44" r="2.5" fill="#2563eb"/>
  <circle cx="334.51" cy="300.39" r="2.5" fill="#2563eb"/>
  <circle cx="336.49" cy="249.86" r="2.5" fill="#2563eb"/>
  <circle cx="338.46" cy="250.11" r="2.5" fill="#2563eb"/>
  <circle cx="340.43" cy="201.46" r="2.5" fill="#2563eb"/>
  <circle cx="342.41" cy="300.01" r="2.5" fill="#2563eb"/>
  <circle cx="344.38" cy="200.83" r="2.5" fill="#2563eb"/>
  <circle cx="346.36" cy="250.03" r="2.5" fill="#2563eb"/>
  <circle cx="348.33" cy="249.99" r="2.5" fill="#2563eb"/>
  <circle cx="350.30" cy="300.26" r="2.5" fill="#2563eb"/>
  <circle cx="352.28" cy="300.01" r="2.5" fill="#2563eb"/>
  <circle cx="354.25" cy="300.01" r="2.5" fill="#2563eb"/>
  <circle cx="356.23" cy="250.03" r="2.5" fill="#2563eb"/>
  <circle cx="358.20" cy="250.03" r="2.5" fill="#2563eb"/>
  <circle cx="360.17" cy="250.03" r="2.5" fill="#2563eb"/>
  <circle cx="362.15" cy="250.03" r="2.5" fill="#2563eb"/>
  <circle cx="364.12" cy="249.99" r="2.5" fill="#2563eb"/>
  <circle cx="366.10" cy="250.03" r="2.5" fill="#2563eb"/>
  <circle cx="368.07" cy="200.00" r="2.5" fill="#2563eb"/>
  <circle cx="370.04" cy="300.26" r="2.5" fill="#2563eb"/>
  <circle cx="372.02" cy="249.99" r="2.5" fill="#2563eb"/>
  <circle cx="373.99" cy="300.01" r="2.5" fill="#2563eb"/>
  <circle cx="375.97" cy="249.94" r="2.5" fill="#2563eb"/>
  <circle cx="377.94" cy="250.03" r="2.5" fill="#2563eb"/>
  <circle cx="379.91" cy="250.03" r="2.5" fill="#2563eb"/>
  <circle cx="381.89" cy="250.03" r="2.5" fill="#2563eb"/>
  <circle cx="383.86" cy="200.04" r="2.5" fill="#2563eb"/>
  <circle cx="385.84" cy="300.01" r="2.5" fill="#2563eb"/>
  <circle cx="387.81" cy="249.90" r="2.5" fill="#2563eb"/>
  <circle cx="389.78" cy="300.01" r="2.5" fill="#2563eb"/>
  <circle cx="391.76" cy="300.01" r="2.5" fill="#2563eb"/>
  <circle cx="393.73" cy="300.06" r="2.5" fill="#2563eb"/>
  <circle cx="395.70" cy="300.01" r="2.5" fill="#2563eb"/>
  <circle cx="397.68" cy="300.01" r="2.5" fill="#2563eb"/>
  <circle cx="399.65" cy="243.95" r="2.5" fill="#2563eb"/>
  <circle cx="401.63" cy="249.94" r="2.5" fill="#2563eb"/>
  <circle cx="403.60" cy="299.97" r="2.5" fill="#2563eb"/>
  <circle cx="405.57" cy="300.01" r="2.5" fill="#2563eb"/>
  <circle cx="407.55" cy="300.01" r="2.5" fill="#2563eb"/>
  <circle cx="409.52" cy="250.03" r="2.5" fill="#2563eb"/>
  <circle cx="411.50" cy="300.01" r="2.5" fill="#2563eb"/>
  <circle cx="413.47" cy="300.01" r="2.5" fill="#2563eb"/>
  <circle cx="415.44" cy="299.97" r="2.5" fill="#2563eb"/>
  <circle cx="417.42" cy="249.99" r="2.5" fill="#2563eb"/>
  <circle cx="419.39" cy="300.01" r="2.5" fill="#2563eb"/>
  <circle cx="421.37" cy="299.93" r="2.5" fill="#2563eb"/>
  <circle cx="423.34" cy="300.01" r="2.5" fill="#2563eb"/>
  <circle cx="425.31" cy="299.93" r="2.5" fill="#2563eb"/>
  <circle cx="427.29" cy="300.01" r="2.5" fill="#2563eb"/>
  <circle cx="429.26" cy="300.01" r="2.5" fill="#2563eb"/>
  <circle cx="431.24" cy="299.89" r="2.5" fill="#2563eb"/>
  <circle cx="433.21" cy="299.97" r="2.5" fill="#2563eb"/>
  <circle cx="435.18" cy="250.03" r="2.5" fill="#2563eb"/>
  <circle cx="437.16" cy="299.93" r="2.5" fill="#2563eb"/>
  <circle cx="439.13" cy="299.89" r="2.5" fill="#2563eb"/>
  <circle cx="441.11" cy="299.97" r="2.5" fill="#2563eb"/>
  <circle cx="443.08" cy="249.94" r="2.5" fill="#2563eb"/>
  <circle cx="445.05" cy="300.01" r="2.5" fill="#2563eb"/>
  <circle cx="447.03" cy="300.01" r="2.5" fill="#2563eb"/>
  <circle cx="449.00" cy="299.97" r="2.5" fill="#2563eb"/>
  <circle cx="450.98" cy="249.99" r="2.5" fill="#2563eb"/>
  <circle cx="452.95" cy="299.97" r="2.5" fill="#2563eb"/>
  <circle cx="454.92" cy="299.97" r="2.5" fill="#2563eb"/>
  <circle cx="456.90" cy="300.06" r="2.5" fill="#2563eb"/>
  <circle cx="458.87" cy="300.06" r="2.5" fill="#2563eb"/>
  <circle cx="460.85" cy="299.93" r="2.5" fill="#2563eb"/>
  <circle cx="462.82" cy="300.01" r="2.5" fill="#2563eb"/>
  <circle cx="464.79" cy="300.01" r="2.5" fill="#2563eb"/>
  <circle cx="466.77" cy="299.93" r="2.5" fill="#2563eb"/>
  <circle cx="468.74" cy="300.01" r="2.5" fill="#2563eb"/>
  <circle cx="470.72" cy="300.01" r="2.5" fill="#2563eb"/>
  <circle cx="472.69" cy="299.97" r="2.5" fill="#2563eb"/>
  <circle cx="474.66" cy="300.01" r="2.5" fill="#2563eb"/>
  <circle cx="476.64" cy="300.01" r="2.5" fill="#2563eb"/>
  <circle cx="478.61" cy="300.01" r="2.5" fill="#2563eb"/>
  <circle cx="480.59" cy="300.01" r="2.5" fill="#2563eb"/>
  <circle cx="482.56" cy="249.86" r="2.5" fill="#2563eb"/>
  <circle cx="484.53" cy="300.01" r="2.5" fill="#2563eb"/>
  <circle cx="486.51" cy="300.10" r="2.5" fill="#2563eb"/>
  <circle cx="488.48" cy="299.93" r="2.5" fill="#2563eb"/>
  <circle cx="490.46" cy="300.01" r="2.5" fill="#2563eb"/>
  <circle cx="492.43" cy="299.93" r="2.5" fill="#2563eb"/>
  <circle cx="494.40" cy="300.01" r="2.5" fill="#2563eb"/>
  <circle cx="496.38" cy="300.01" r="2.5" fill="#2563eb"/>
  <circle cx="498.35" cy="300.01" r="2.5" fill="#2563eb"/>
  <circle cx="500.33" cy="300.01" r="2.5" fill="#2563eb"/>
  <circle cx="502.30" cy="300.01" r="2.5" fill="#2563eb"/>
  <circle cx="504.27" cy="299.97" r="2.5" fill="#2563eb"/>
  <circle cx="506.25" cy="300.01" r="2.5" fill="#2563eb"/>
  <circle cx="508.22" cy="300.01" r="2.5" fill="#2563eb"/>
  <circle cx="510.20" cy="300.01" r="2.5" fill="#2563eb"/>
  <circle cx="512.17" cy="300.01" r="2.5" fill="#2563eb"/>
  <circle cx="514.14" cy="250.03" r="2.5" fill="#2563eb"/>
  <circle cx="516.12" cy="300.01" r="2.5" fill="#2563eb"/>
  <circle cx="518.09" cy="300.01" r="2.5" fill="#2563eb"/>
  <circle cx="520.07" cy="299.97" r="2.5" fill="#2563eb"/>
  <circle cx="522.04" cy="300.01" r="2.5" fill="#2563eb"/>
  <circle cx="524.01" cy="300.01" r="2.5" fill="#2563eb"/>
  <circle cx="525.99" cy="299.97" r="2.5" fill="#2563eb"/>
  <circle cx="527.96" cy="299.97" r="2.5" fill="#2563eb"/>
  <circle cx="529.93" cy="300.01" r="2.5" fill="#2563eb"/>
  <circle cx="531.91" cy="299.97" r="2.5" fill="#2563eb"/>
  <circle cx="533.88" cy="300.01" r="2.5" fill="#2563eb"/>
  <circle cx="535.86" cy="299.93" r="2.5" fill="#2563eb"/>
  <circle cx="537.83" cy="300.01" r="2.5" fill="#2563eb"/>
  <circle cx="539.80" cy="250.03" r="2.5" fill="#2563eb"/>
  <circle cx="541.78" cy="300.01" r="2.5" fill="#2563eb"/>
  <circle cx="543.75" cy="300.01" r="2.5" fill="#2563eb"/>
  <circle cx="545.73" cy="300.01" r="2.5" fill="#2563eb"/>
  <circle cx="547.70" cy="300.01" r="2.5" fill="#2563eb"/>
  <circle cx="549.67" cy="300.01" r="2.5" fill="#2563eb"/>
  <circle cx="551.65" cy="299.89" r="2.5" fill="#2563eb"/>
  <circle cx="553.62" cy="300.01" r="2.5" fill="#2563eb"/>
  <circle cx="555.60" cy="300.01" r="2.5" fill="#2563eb"/>
  <circle cx="557.57" cy="250.07" r="2.5" fill="#2563eb"/>
  <circle cx="559.54" cy="300.01" r="2.5" fill="#2563eb"/>
  <circle cx="561.52" cy="299.93" r="2.5" fill="#2563eb"/>
  <circle cx="563.49" cy="300.01" r="2.5" fill="#2563eb"/>
  <circle cx="565.47" cy="299.97" r="2.5" fill="#2563eb"/>
  <circle cx="567.44" cy="299.97" r="2.5" fill="#2563eb"/>
  <circle cx="569.41" cy="299.97" r="2.5" fill="#2563eb"/>
  <circle cx="571.39" cy="250.03" r="2.5" fill="#2563eb"/>
  <circle cx="573.36" cy="300.01" r="2.5" fill="#2563eb"/>
  <circle cx="575.34" cy="300.01" r="2.5" fill="#2563eb"/>
  <circle cx="577.31" cy="300.01" r="2.5" fill="#2563eb"/>
  <circle cx="579.28" cy="300.01" r="2.5" fill="#2563eb"/>
  <circle cx="581.26" cy="299.97" r="2.5" fill="#2563eb"/>
  <circle cx="583.23" cy="300.01" r="2.5" fill="#2563eb"/>
  <circle cx="585.21" cy="299.97" r="2.5" fill="#2563eb"/>
  <circle cx="587.18" cy="300.01" r="2.5" fill="#2563eb"/>
  <circle cx="589.15" cy="299.97" r="2.5" fill="#2563eb"/>
  <circle cx="591.13" cy="249.90" r="2.5" fill="#2563eb"/>
  <circle cx="593.10" cy="300.01" r="2.5" fill="#2563eb"/>
  <circle cx="595.08" cy="300.01" r="2.5" fill="#2563eb"/>
  <circle cx="597.05" cy="299.89" r="2.5" fill="#2563eb"/>
  <circle cx="599.02" cy="299.97" r="2.5" fill="#2563eb"/>
  <circle cx="601.00" cy="299.97" r="2.5" fill="#2563eb"/>
  <circle cx="602.97" cy="249.99" r="2.5" fill="#2563eb"/>
  <circle cx="604.95" cy="299.97" r="2.5" fill="#2563eb"/>
  <circle cx="606.92" cy="299.89" r="2.5" fill="#2563eb"/>
  <circle cx="608.89" cy="300.01" r="2.5" fill="#2563eb"/>
  <circle cx="610.87" cy="299.97" r="2.5" fill="#2563eb"/>
  <circle cx="612.84" cy="299.97" r="2.5" fill="#2563eb"/>
  <circle cx="614.82" cy="300.01" r="2.5" fill="#2563eb"/>
  <circle cx="616.79" cy="299.97" r="2.5" fill="#2563eb"/>
  <circle cx="618.76" cy="249.99" r="2.5" fill="#2563eb"/>
  <circle cx="620.74" cy="299.97" r="2.5" fill="#2563eb"/>
  <circle cx="622.71" cy="299.97" r="2.5" fill="#2563eb"/>
  <circle cx="624.69" cy="300.06" r="2.5" fill="#2563eb"/>
  <circle cx="626.66" cy="300.06" r="2.5" fill="#2563eb"/>
  <circle cx="628.63" cy="249.94" r="2.5" fill="#2563eb"/>
  <circle cx="630.61" cy="300.01" r="2.5" fill="#2563eb"/>
  <circle cx="632.58" cy="299.93" r="2.5" fill="#2563eb"/>
  <circle cx="634.56" cy="300.01" r="2.5" fill="#2563eb"/>
  <circle cx="636.53" cy="300.01" r="2.5" fill="#2563eb"/>
  <circle cx="638.50" cy="249.99" r="2.5" fill="#2563eb"/>
  <circle cx="640.48" cy="300.01" r="2.5" fill="#2563eb"/>
  <circle cx="642.45" cy="300.01" r="2.5" fill="#2563eb"/>
  <circle cx="644.43" cy="300.01" r="2.5" fill="#2563eb"/>
  <circle cx="646.40" cy="299.93" r="2.5" fill="#2563eb"/>
  <circle cx="648.37" cy="299.93" r="2.5" fill="#2563eb"/>
  <circle cx="650.35" cy="300.01" r="2.5" fill="#2563eb"/>
  <circle cx="652.32" cy="300.01" r="2.5" fill="#2563eb"/>
  <circle cx="654.30" cy="249.94" r="2.5" fill="#2563eb"/>
  <circle cx="656.27" cy="299.97" r="2.5" fill="#2563eb"/>
  <circle cx="658.24" cy="299.97" r="2.5" fill="#2563eb"/>
  <circle cx="660.22" cy="300.01" r="2.5" fill="#2563eb"/>
  <circle cx="662.19" cy="300.01" r="2.5" fill="#2563eb"/>
  <circle cx="664.16" cy="300.01" r="2.5" fill="#2563eb"/>
  <circle cx="666.14" cy="249.99" r="2.5" fill="#2563eb"/>
  <circle cx="668.11" cy="300.01" r="2.5" fill="#2563eb"/>
  <circle cx="670.09" cy="300.01" r="2.5" fill="#2563eb"/>
  <circle cx="672.06" cy="300.01" r="2.5" fill="#2563eb"/>
  <circle cx="674.03" cy="250.03" r="2.5" fill="#2563eb"/>
  <circle cx="676.01" cy="300.01" r="2.5" fill="#2563eb"/>
  <circle cx="677.98" cy="300.01" r="2.5" fill="#2563eb"/>
  <circle cx="679.96" cy="300.01" r="2.5" fill="#2563eb"/>
  <circle cx="681.93" cy="299.97" r="2.5" fill="#2563eb"/>
  <circle cx="683.90" cy="300.01" r="2.5" fill="#2563eb"/>
  <circle cx="685.88" cy="300.01" r="2.5" fill="#2563eb"/>
  <circle cx="687.85" cy="299.97" r="2.5" fill="#2563eb"/>
  <circle cx="689.83" cy="299.97" r="2.5" fill="#2563eb"/>
  <circle cx="691.80" cy="300.01" r="2.5" fill="#2563eb"/>
  <circle cx="693.77" cy="300.01" r="2.5" fill="#2563eb"/>
  <circle cx="695.75" cy="299.97" r="2.5" fill="#2563eb"/>
  <circle cx="697.72" cy="299.93" r="2.5" fill="#2563eb"/>
  <circle cx="699.70" cy="300.01" r="2.5" fill="#2563eb"/>
  <circle cx="701.67" cy="300.06" r="2.5" fill="#2563eb"/>
  <circle cx="703.64" cy="299.97" r="2.5" fill="#2563eb"/>
  <circle cx="705.62" cy="300.01" r="2.5" fill="#2563eb"/>
  <circle cx="707.59" cy="250.03" r="2.5" fill="#2563eb"/>
  <circle cx="709.57" cy="250.03" r="2.5" fill="#2563eb"/>
  <circle cx="711.54" cy="299.93" r="2.5" fill="#2563eb"/>
  <circle cx="713.51" cy="299.97" r="2.5" fill="#2563eb"/>
  <circle cx="715.49" cy="300.01" r="2.5" fill="#2563eb"/>
  <circle cx="717.46" cy="300.01" r="2.5" fill="#2563eb"/>
  <circle cx="719.44" cy="300.06" r="2.5" fill="#2563eb"/>
  <circle cx="721.41" cy="300.01" r="2.5" fill="#2563eb"/>
  <circle cx="723.38" cy="299.93" r="2.5" fill="#2563eb"/>
  <circle cx="725.36" cy="300.01" r="2.5" fill="#2563eb"/>
  <circle cx="727.33" cy="300.01" r="2.5" fill="#2563eb"/>
  <circle cx="729.31" cy="299.97" r="2.5" fill="#2563eb"/>
  <circle cx="731.28" cy="299.97" r="2.5" fill="#2563eb"/>
  <circle cx="733.25" cy="300.01" r="2.5" fill="#2563eb"/>
  <circle cx="735.23" cy="250.03" r="2.5" fill="#2563eb"/>
  <circle cx="737.20" cy="300.01" r="2.5" fill="#2563eb"/>
  <circle cx="739.18" cy="300.01" r="2.5" fill="#2563eb"/>
  <circle cx="741.15" cy="300.01" r="2.5" fill="#2563eb"/>
  <circle cx="743.12" cy="299.97" r="2.5" fill="#2563eb"/>
  <circle cx="745.10" cy="300.01" r="2.5" fill="#2563eb"/>
  <circle cx="747.07" cy="299.97" r="2.5" fill="#2563eb"/>
  <circle cx="749.05" cy="300.01" r="2.5" fill="#2563eb"/>
  <circle cx="751.02" cy="299.97" r="2.5" fill="#2563eb"/>
  <circle cx="752.99" cy="299.97" r="2.5" fill="#2563eb"/>
  <circle cx="754.97" cy="299.93" r="2.5" fill="#2563eb"/>
  <circle cx="756.94" cy="300.01" r="2.5" fill="#2563eb"/>
  <circle cx="758.92" cy="300.01" r="2.5" fill="#2563eb"/>
  <circle cx="760.89" cy="299.89" r="2.5" fill="#2563eb"/>
  <circle cx="762.86" cy="299.97" r="2.5" fill="#2563eb"/>
  <circle cx="764.84" cy="299.97" r="2.5" fill="#2563eb"/>
  <circle cx="766.81" cy="300.06" r="2.5" fill="#2563eb"/>
  <circle cx="768.79" cy="249.90" r="2.5" fill="#2563eb"/>
  <circle cx="770.76" cy="299.89" r="2.5" fill="#2563eb"/>
  <circle cx="772.73" cy="300.01" r="2.5" fill="#2563eb"/>
  <circle cx="774.71" cy="299.97" r="2.5" fill="#2563eb"/>
  <circle cx="776.68" cy="299.97" r="2.5" fill="#2563eb"/>
  <circle cx="778.66" cy="299.97" r="2.5" fill="#2563eb"/>
  <circle cx="780.63" cy="300.01" r="2.5" fill="#2563eb"/>
  <circle cx="782.60" cy="300.01" r="2.5" fill="#2563eb"/>
  <circle cx="784.58" cy="299.97" r="2.5" fill="#2563eb"/>
  <circle cx="786.55" cy="299.97" r="2.5" fill="#2563eb"/>
  <circle cx="788.52" cy="299.97" r="2.5" fill="#2563eb"/>
  <circle cx="790.50" cy="250.03" r="2.5" fill="#2563eb"/>
  <circle cx="792.47" cy="299.93" r="2.5" fill="#2563eb"/>
  <circle cx="794.45" cy="300.01" r="2.5" fill="#2563eb"/>
  <circle cx="796.42" cy="300.01" r="2.5" fill="#2563eb"/>
  <circle cx="798.39" cy="299.93" r="2.5" fill="#2563eb"/>
  <circle cx="800.37" cy="300.01" r="2.5" fill="#2563eb"/>
  <circle cx="802.34" cy="300.01" r="2.5" fill="#2563eb"/>
  <circle cx="804.32" cy="299.97" r="2.5" fill="#2563eb"/>
  <circle cx="806.29" cy="300.01" r="2.5" fill="#2563eb"/>
  <circle cx="808.26" cy="300.01" r="2.5" fill="#2563eb"/>
  <circle cx="810.24" cy="300.06" r="2.5" fill="#2563eb"/>
  <circle cx="812.21" cy="300.01" r="2.5" fill="#2563eb"/>
  <circle cx="814.19" cy="299.97" r="2.5" fill="#2563eb"/>
  <circle cx="816.16" cy="299.89" r="2.5" fill="#2563eb"/>
  <circle cx="818.13" cy="300.01" r="2.5" fill="#2563eb"/>
  <circle cx="820.11" cy="300.01" r="2.5" fill="#2563eb"/>
  <circle cx="822.08" cy="249.94" r="2.5" fill="#2563eb"/>
  <circle cx="824.06" cy="249.94" r="2.5" fill="#2563eb"/>
  <circle cx="826.03" cy="300.01" r="2.5" fill="#2563eb"/>
  <circle cx="828.00" cy="300.01" r="2.5" fill="#2563eb"/>
  <circle cx="829.98" cy="300.01" r="2.5" fill="#2563eb"/>
  <circle cx="831.95" cy="300.01" r="2.5" fill="#2563eb"/>
  <circle cx="833.93" cy="299.97" r="2.5" fill="#2563eb"/>
  <circle cx="835.90" cy="250.03" r="2.5" fill="#2563eb"/>
  <circle cx="837.87" cy="300.01" r="2.5" fill="#2563eb"/>
  <circle cx="839.85" cy="300.01" r="2.5" fill="#2563eb"/>
  <circle cx="841.82" cy="300.01" r="2.5" fill="#2563eb"/>
  <circle cx="843.80" cy="300.01" r="2.5" fill="#2563eb"/>
  <circle cx="845.77" cy="250.03" r="2.5" fill="#2563eb"/>
  <circle cx="847.74" cy="249.99" r="2.5" fill="#2563eb"/>
  <circle cx="849.72" cy="300.01" r="2.5" fill="#2563eb"/>
  <circle cx="851.69" cy="299.97" r="2.5" fill="#2563eb"/>
  <circle cx="853.67" cy="300.01" r="2.5" fill="#2563eb"/>
  <circle cx="855.64" cy="299.97" r="2.5" fill="#2563eb"/>
  <circle cx="857.61" cy="300.01" r="2.5" fill="#2563eb"/>
  <circle cx="859.59" cy="299.97" r="2.5" fill="#2563eb"/>
  <circle cx="861.56" cy="299.97" r="2.5" fill="#2563eb"/>
  <circle cx="863.54" cy="299.97" r="2.5" fill="#2563eb"/>
  <circle cx="865.51" cy="300.06" r="2.5" fill="#2563eb"/>
  <circle cx="867.48" cy="249.99" r="2.5" fill="#2563eb"/>
  <circle cx="869.46" cy="300.01" r="2.5" fill="#2563eb"/>
  <circle cx="871.43" cy="250.03" r="2.5" fill="#2563eb"/>
  <circle cx="873.41" cy="249.94" r="2.5" fill="#2563eb"/>
  <circle cx="875.38" cy="249.99" r="2.5" fill="#2563eb"/>
  <circle cx="877.35" cy="300.01" r="2.5" fill="#2563eb"/>
  <circle cx="879.33" cy="300.06" r="2.5" fill="#2563eb"/>
  <circle cx="881.30" cy="300.01" r="2.5" fill="#2563eb"/>
  <circle cx="883.28" cy="299.97" r="2.5" fill="#2563eb"/>
  <circle cx="885.25" cy="299.97" r="2.5" fill="#2563eb"/>
  <circle cx="887.22" cy="300.01" r="2.5" fill="#2563eb"/>
  <circle cx="889.20" cy="299.93" r="2.5" fill="#2563eb"/>
  <circle cx="891.17" cy="299.89" r="2.5" fill="#2563eb"/>
  <circle cx="893.15" cy="299.89" r="2.5" fill="#2563eb"/>
  <circle cx="895.12" cy="299.89" r="2.5" fill="#2563eb"/>
  <circle cx="897.09" cy="299.89" r="2.5" fill="#2563eb"/>
  <circle cx="899.07" cy="299.85" r="2.5" fill="#2563eb"/>
  <circle cx="901.04" cy="299.85" r="2.5" fill="#2563eb"/>
  <circle cx="903.02" cy="299.89" r="2.5" fill="#2563eb"/>
  <circle cx="904.99" cy="299.81" r="2.5" fill="#2563eb"/>
  <circle cx="906.96" cy="299.81" r="2.5" fill="#2563eb"/>
  <circle cx="908.94" cy="299.81" r="2.5" fill="#2563eb"/>
  <circle cx="910.91" cy="299.76" r="2.5" fill="#2563eb"/>
  <circle cx="912.89" cy="299.76" r="2.5" fill="#2563eb"/>
  <circle cx="914.86" cy="299.76" r="2.5" fill="#2563eb"/>
  <circle cx="916.83" cy="299.72" r="2.5" fill="#2563eb"/>
  <circle cx="918.81" cy="299.68" r="2.5" fill="#2563eb"/>
  <circle cx="920.78" cy="299.60" r="2.5" fill="#2563eb"/>
  <circle cx="922.75" cy="299.60" r="2.5" fill="#2563eb"/>
  <circle cx="924.73" cy="299.60" r="2.5" fill="#2563eb"/>
  <circle cx="926.70" cy="299.56" r="2.5" fill="#2563eb"/>
  <circle cx="928.68" cy="299.47" r="2.5" fill="#2563eb"/>
  <circle cx="930.65" cy="299.43" r="2.5" fill="#2563eb"/>
  <circle cx="932.62" cy="299.43" r="2.5" fill="#2563eb"/>
  <circle cx="934.60" cy="299.39" r="2.5" fill="#2563eb"/>
  <circle cx="936.57" cy="299.47" r="2.5" fill="#2563eb"/>
  <circle cx="938.55" cy="259.82" r="2.5" fill="#2563eb"/>
  <circle cx="940.52" cy="338.96" r="2.5" fill="#2563eb"/>
  <circle cx="942.49" cy="299.31" r="2.5" fill="#2563eb"/>
  <circle cx="944.47" cy="299.31" r="2.5" fill="#2563eb"/>
  <circle cx="946.44" cy="299.26" r="2.5" fill="#2563eb"/>
  <circle cx="948.42" cy="299.68" r="2.5" fill="#2563eb"/>
  <circle cx="950.39" cy="299.68" r="2.5" fill="#2563eb"/>
  <circle cx="952.36" cy="299.68" r="2.5" fill="#2563eb"/>
  <circle cx="954.34" cy="299.64" r="2.5" fill="#2563eb"/>
  <circle cx="956.31" cy="299.14" r="2.5" fill="#2563eb"/>
  <circle cx="958.29" cy="299.14" r="2.5" fill="#2563eb"/>
  <circle cx="960.26" cy="299.10" r="2.5" fill="#2563eb"/>
  <circle cx="962.23" cy="299.10" r="2.5" fill="#2563eb"/>
  <circle cx="964.21" cy="299.10" r="2.5" fill="#2563eb"/>
  <circle cx="966.18" cy="248.07" r="2.5" fill="#2563eb"/>
  <circle cx="968.16" cy="299.06" r="2.5" fill="#2563eb"/>
  <circle cx="970.13" cy="299.06" r="2.5" fill="#2563eb"/>
  <circle cx="972.10" cy="299.06" r="2.5" fill="#2563eb"/>
  <circle cx="974.08" cy="299.06" r="2.5" fill="#2563eb"/>
  <circle cx="976.05" cy="299.06" r="2.5" fill="#2563eb"/>
  <circle cx="978.03" cy="298.97" r="2.5" fill="#2563eb"/>
  <circle cx="980.00" cy="298.97" r="2.5" fill="#2563eb"/>
</svg>
