<?xml version="1.0" encoding="UTF-8"?>
<svg xmlns="http://www.w3.org/2000/svg" width="1000" height="420" viewBox="0 0 1000 420">
  <rect width="100%" height="100%" fill="#ffffff"/>
  <text x="70" y="28" font-size="20" font-weight="600">수집 시점 기준 - 시간별 스냅샷</text>
  <text x="70" y="402" font-size="12" fill="#555">스냅샷 수</text>
  <line x1="70" y1="350.00" x2="980" y2="350.00" stroke="#e5e7eb" stroke-width="1"/>
  <text x="62" y="354.00" font-size="11" fill="#6b7280" text-anchor="end">0</text>
  <line x1="70" y1="290.00" x2="980" y2="290.00" stroke="#e5e7eb" stroke-width="1"/>
  <text x="62" y="294.00" font-size="11" fill="#6b7280" text-anchor="end">1,440</text>
  <line x1="70" y1="230.00" x2="980" y2="230.00" stroke="#e5e7eb" stroke-width="1"/>
  <text x="62" y="234.00" font-size="11" fill="#6b7280" text-anchor="end">2,880</text>
  <line x1="70" y1="170.00" x2="980" y2="170.00" stroke="#e5e7eb" stroke-width="1"/>
  <text x="62" y="174.00" font-size="11" fill="#6b7280" text-anchor="end">4,321</text>
  <line x1="70" y1="110.00" x2="980" y2="110.00" stroke="#e5e7eb" stroke-width="1"/>
  <text x="62" y="114.00" font-size="11" fill="#6b7280" text-anchor="end">5,761</text>
  <line x1="70" y1="50.00" x2="980" y2="50.00" stroke="#e5e7eb" stroke-width="1"/>
  <text x="62" y="54.00" font-size="11" fill="#6b7280" text-anchor="end">7,202</text>
  <line x1="70" y1="350" x2="980" y2="350" stroke="#111827" stroke-width="1.2"/>
  <line x1="70" y1="50" x2="70" y2="350" stroke="#111827" stroke-width="1.2"/>
  <line x1="70.00" y1="350" x2="70.00" y2="356" stroke="#9ca3af" stroke-width="1"/>
  <text x="70.00" y="372" font-size="10" fill="#6b7280" text-anchor="middle">2026-02-28 18</text>
  <line x1="145.72" y1="350" x2="145.72" y2="356" stroke="#9ca3af" stroke-width="1"/>
  <text x="145.72" y="372" font-size="10" fill="#6b7280" text-anchor="middle">2026-03-09 10</text>
  <line x1="221.43" y1="350" x2="221.43" y2="356" stroke="#9ca3af" stroke-width="1"/>
  <text x="221.43" y="372" font-size="10" fill="#6b7280" text-anchor="middle">2026-03-11 21</text>
  <line x1="297.15" y1="350" x2="297.15" y2="356" stroke="#9ca3af" stroke-width="1"/>
  <text x="297.15" y="372" font-size="10" fill="#6b7280" text-anchor="middle">2026-03-14 07</text>
  <line x1="372.87" y1="350" x2="372.87" y2="356" stroke="#9ca3af" stroke-width="1"/>
  <text x="372.87" y="372" font-size="10" fill="#6b7280" text-anchor="middle">2026-03-17 19</text>
  <line x1="448.58" y1="350" x2="448.58" y2="356" stroke="#9ca3af" stroke-width="1"/>
  <text x="448.58" y="372" font-size="10" fill="#6b7280" text-anchor="middle">2026-03-21 04</text>
  <line x1="524.30" y1="350" x2="524.30" y2="356" stroke="#9ca3af" stroke-width="1"/>
  <text x="524.30" y="372" font-size="10" fill="#6b7280" text-anchor="middle">2026-03-24 08</text>
  <line x1="600.02" y1="350" x2="600.02" y2="356" stroke="#9ca3af" stroke-width="1"/>
  <text x="600.02" y="372" font-size="10" fill="#6b7280" text-anchor="middle">2026-03-28 02</text>
  <line x1="675.73" y1="350" x2="675.73" y2="356" stroke="#9ca3af" stroke-width="1"/>
  <text x="675.73" y="372" font-size="10" fill="#6b7280" text-anchor="middle">2026-03-31 20</text>
  <line x1="751.45" y1="350" x2="751.45" y2="356" stroke="#9ca3af" stroke-width="1"/>
  <text x="751.45" y="372" font-size="10" fill="#6b7280" text-anchor="middle">2026-04-04 12</text>
  <line x1="827.16" y1="350" x2="827.16" y2="356" stroke="#9ca3af" stroke-width="1"/>
  <text x="827.16" y="372" font-size="10" fill="#6b7280" text-anchor="middle">2026-04-08 05</text>
  <line x1="902.88" y1="350" x2="902.88" y2="356" stroke="#9ca3af" stroke-width="1"/>
  <text x="902.88" y="372" font-size="10" fill="#6b7280" text-anchor="middle">2026-04-11 20</text>
  <line x1="978.60" y1="350" x2="978.60" y2="356" stroke="#9ca3af" stroke-width="1"/>
  <text x="978.60" y="372" font-size="10" fill="#6b7280" text-anchor="middle">2026-04-16 02</text>
  <line x1="980.00" y1="350" x2="980.00" y2="356" stroke="#9ca3af" stroke-width="1"/>
  <text x="980.00" y="372" font-size="10" fill="#6b7280" text-anchor="middle">2026-04-16 04</text>
  <polyline fill="none" stroke="#2563eb" stroke-width="2.5" points="70.00,50.00 71.40,50.12 72.80,50.17 74.21,50.46 75.61,50.00 77.01,266.90 78.41,50.12 79.82,50.08 81.22,177.46 82.62,211.58 84.02,175.34 85.42,304.14 86.83,200.46 88.23,250.94 89.63,300.01 91.03,300.06 92.43,300.01 93.84,300.01 95.24,348.00 96.64,300.01 98.04,249.99 99.45,200.00 100.85,249.99 102.25,249.99 103.65,250.03 105.05,250.03 106.46,250.03 107.86,250.40 109.26,250.90 110.66,250.90 112.06,251.32 113.47,249.94 114.87,300.01 116.27,299.93 117.67,251.03 119.08,300.68 120.48,250.03 121.88,200.00 123.28,249.99 124.68,250.03 126.09,250.03 127.49,250.03 128.89,300.01 130.29,200.04 131.69,250.03 133.10,250.03 134.50,250.03 135.90,249.90 137.30,250.03 138.71,250.03 140.11,250.94 141.51,250.44 142.91,250.03 144.31,250.03 145.72,300.47 147.12,300.01 148.52,300.43 149.92,250.03 151.33,249.99 152.73,300.43 154.13,249.90 155.53,249.99 156.93,249.99 158.34,200.04 159.74,300.01 161.14,300.01 162.54,300.01 163.94,249.90 165.35,300.01 166.75,250.03 168.15,249.99 169.55,199.96 170.96,300.01 172.36,200.00 173.76,250.36 175.16,250.03 176.56,300.01 177.97,300.01 179.37,250.44 180.77,300.01 182.17,250.03 183.57,250.03 184.98,249.99 186.38,250.49 187.78,250.03 189.18,200.04 190.59,300.01 191.99,250.03 193.39,300.01 194.79,250.11 196.19,300.01 197.60,250.03 199.00,250.03 200.40,199.92 201.80,250.03 203.20,250.03 204.61,250.03 206.01,254.36 207.41,300.01 208.81,299.97 210.22,250.36 211.62,299.97 213.02,250.03 214.42,250.03 215.82,250.03 217.23,250.03 218.63,249.99 220.03,200.00 221.43,299.93 222.84,300.01 224.24,299.97 225.64,249.94 227.04,249.99 228.44,249.82 229.85,249.94 231.25,250.28 232.65,207.00 234.05,250.03 235.45,250.32 236.86,250.40 238.26,300.93 239.66,300.01 241.06,300.10 242.47,249.94 243.87,249.99 245.27,250.07 246.67,249.99 248.07,250.03 249.48,249.94 250.88,200.00 252.28,300.39 253.68,300.01 255.08,300.01 256.49,250.44 257.89,300.39 259.29,249.86 260.69,250.11 262.10,201.46 263.50,300.01 264.90,200.83 266.30,250.03 267.70,249.99 269.11,300.26 270.51,300.01 271.91,300.01 273.31,250.03 274.71,250.03 276.12,250.03 277.52,250.03 278.92,249.99 280.32,250.03 281.73,200.00 283.13,300.26 284.53,249.99 285.93,300.01 287.33,249.94 288.74,250.03 290.14,250.03 291.54,250.03 292.94,200.04 294.35,300.01 295.75,249.90 297.15,300.01 298.55,300.01 299.95,300.06 301.36,300.01 302.76,300.01 304.16,243.95 305.56,249.94 306.96,299.97 308.37,300.01 309.77,300.01 311.17,250.03 312.57,300.01 313.98,300.01 315.38,299.97 316.78,249.99 318.18,300.01 319.58,299.93 320.99,300.01 322.39,299.93 323.79,300.01 325.19,300.01 326.59,299.89 328.00,299.97 329.40,250.03 330.80,299.93 332.20,299.89 333.61,299.97 335.01,249.94 336.41,300.01 337.81,300.01 339.21,299.97 340.62,249.99 342.02,299.97 343.42,299.97 344.82,300.06 346.22,300.06 347.63,299.93 349.03,300.01 350.43,300.01 351.83,299.93 353.24,300.01 354.64,300.01 356.04,299.97 357.44,300.01 358.84,300.01 360.25,300.01 361.65,300.01 363.05,249.86 364.45,300.01 365.86,300.10 367.26,299.93 368.66,300.01 370.06,299.93 371.46,300.01 372.87,300.01 374.27,300.01 375.67,300.01 377.07,300.01 378.47,299.97 379.88,300.01 381.28,300.01 382.68,300.01 384.08,300.01 385.49,250.03 386.89,300.01 388.29,300.01 389.69,299.97 391.09,300.01 392.50,300.01 393.90,299.97 395.30,299.97 396.70,300.01 398.10,299.97 399.51,300.01 400.91,299.93 402.31,300.01 403.71,250.03 405.12,300.01 406.52,300.01 407.92,300.01 409.32,300.01 410.72,300.01 412.13,299.89 413.53,300.01 414.93,300.01 416.33,250.07 417.73,300.01 419.14,299.93 420.54,300.01 421.94,299.97 423.34,299.97 424.75,299.97 426.15,250.03 427.55,300.01 428.95,300.01 430.35,300.01 431.76,300.01 433.16,299.97 434.56,300.01 435.96,299.97 437.37,300.01 438.77,299.97 440.17,249.90 441.57,300.01 442.97,300.01 444.38,299.89 445.78,299.97 447.18,299.97 448.58,249.99 449.98,299.97 451.39,299.89 452.79,300.01 454.19,299.97 455.59,299.97 457.00,300.01 458.40,299.97 459.80,249.99 461.20,299.97 462.60,299.97 464.01,300.06 465.41,300.06 466.81,249.94 468.21,300.01 469.61,299.93 471.02,300.01 472.42,300.01 473.82,249.99 475.22,300.01 476.63,300.01 478.03,300.01 479.43,299.93 480.83,299.93 482.23,300.01 483.64,300.01 485.04,249.94 486.44,299.97 487.84,299.97 489.24,300.01 490.65,300.01 492.05,300.01 493.45,249.99 494.85,300.01 496.26,300.01 497.66,300.01 499.06,250.03 500.46,300.01 501.86,300.01 503.27,300.01 504.67,299.97 506.07,300.01 507.47,300.01 508.88,299.97 510.28,299.97 511.68,300.01 513.08,300.01 514.48,299.97 515.89,299.93 517.29,300.01 518.69,300.06 520.09,299.97 521.49,300.01 522.90,250.03 524.30,250.03 525.70,299.93 527.10,299.97 528.51,300.01 529.91,300.01 531.31,300.06 532.71,300.01 534.11,299.93 535.52,300.01 536.92,300.01 538.32,299.97 539.72,299.97 541.12,300.01 542.53,250.03 543.93,300.01 545.33,300.01 546.73,300.01 548.14,299.97 549.54,300.01 550.94,299.97 552.34,300.01 553.74,299.97 555.15,299.97 556.55,299.93 557.95,300.01 559.35,300.01 560.76,299.89 562.16,299.97 563.56,299.97 564.96,300.06 566.36,249.90 567.77,299.89 569.17,300.01 570.57,299.97 571.97,299.97 573.37,299.97 574.78,300.01 576.18,300.01 577.58,299.97 578.98,299.97 580.39,299.97 581.79,250.03 583.19,299.93 584.59,300.01 585.99,300.01 587.40,299.93 588.80,300.01 590.20,300.01 591.60,299.97 593.00,300.01 594.41,300.01 595.81,300.06 597.21,300.01 598.61,299.97 600.02,299.89 601.42,300.01 602.82,300.01 604.22,249.94 605.62,249.94 607.03,300.01 608.43,300.01 609.83,300.01 611.23,300.01 612.63,299.97 614.04,250.03 615.44,300.01 616.84,300.01 618.24,300.01 619.65,300.01 621.05,250.03 622.45,249.99 623.85,300.01 625.25,299.97 626.66,300.01 628.06,299.97 629.46,300.01 630.86,299.97 632.27,299.97 633.67,299.97 635.07,300.06 636.47,249.99 637.87,300.01 639.28,250.03 640.68,249.94 642.08,249.99 643.48,300.01 644.88,300.06 646.29,300.01 647.69,299.97 649.09,299.97 650.49,300.01 651.90,299.93 653.30,299.89 654.70,299.89 656.10,299.89 657.50,299.89 658.91,299.85 660.31,299.85 661.71,299.89 663.11,299.81 664.51,299.81 665.92,299.81 667.32,299.76 668.72,299.76 670.12,299.76 671.53,299.72 672.93,299.68 674.33,299.60 675.73,299.60 677.13,299.60 678.54,299.56 679.94,299.47 681.34,299.43 682.74,299.43 684.14,299.39 685.55,299.47 686.95,259.82 688.35,338.96 689.75,299.31 691.16,299.31 692.56,299.26 693.96,299.68 695.36,299.68 696.76,299.68 698.17,299.64 699.57,299.14 700.97,299.14 702.37,299.10 703.78,299.10 705.18,299.10 706.58,248.07 707.98,299.06 709.38,299.06 710.79,299.06 712.19,299.06 713.59,299.06 714.99,298.97 716.39,298.97 717.80,298.93 719.20,298.97 720.60,298.93 722.00,298.89 723.41,298.89 724.81,298.89 726.21,298.89 727.61,247.78 729.01,298.89 730.42,298.89 731.82,298.85 733.22,298.85 734.62,298.81 736.02,298.81 737.43,298.81 738.83,298.81 740.23,298.81 741.63,298.81 743.04,298.81 744.44,298.81 745.84,298.81 747.24,298.72 748.64,247.45 750.05,247.45 751.45,298.72 752.85,298.72 754.25,298.72 755.65,298.72 757.06,298.72 758.46,298.72 759.86,247.36 761.26,298.68 762.67,247.36 764.07,247.36 765.47,247.36 766.87,298.68 768.27,298.68 769.68,298.68 771.08,298.68 772.48,298.68 773.88,341.67 775.29,307.01 776.69,298.68 778.09,298.68 779.49,298.68 780.89,247.36 782.30,298.64 783.70,247.36 785.10,247.28 786.50,247.20 787.90,298.60 789.31,298.60 790.71,247.03 792.11,298.51 793.51,298.51 794.92,298.51 796.32,298.51 797.72,298.51 799.12,298.51 800.52,298.51 801.93,298.51 803.33,298.51 804.73,298.51 806.13,298.51 807.53,298.51 808.94,298.51 810.34,298.51 811.74,298.51 813.14,298.51 814.55,298.51 815.95,298.51 817.35,298.51 818.75,298.51 820.15,298.51 821.56,298.51 822.96,298.51 824.36,298.51 825.76,298.51 827.16,298.51 828.57,298.47 829.97,298.51 831.37,298.51 832.77,298.47 834.18,298.51 835.58,298.47 836.98,298.51 838.38,298.43 839.78,298.56 841.19,298.43 842.59,298.43 843.99,298.43 845.39,298.43 846.80,298.43 848.20,298.43 849.60,298.43 851.00,298.43 852.40,298.43 853.81,298.43 855.21,298.43 856.61,298.43 858.01,298.43 859.41,298.43 860.82,298.43 862.22,298.43 863.62,298.43 865.02,298.43 866.43,298.43 867.83,298.43 869.23,298.43 870.63,298.43 872.03,298.43 873.44,298.43 874.84,298.43 876.24,298.43 877.64,298.43 879.04,298.43 880.45,298.43 881.85,298.43 883.25,298.43 884.65,298.43 886.06,298.43 887.46,298.43 888.86,298.39 890.26,298.39 891.66,298.43 893.07,298.43 894.47,298.39 895.87,298.39 897.27,298.39 898.67,298.43 900.08,298.43 901.48,298.43 902.88,246.82 904.28,298.43 905.69,246.78 907.09,246.78 908.49,246.78 909.89,246.70 911.29,246.78 912.70,298.39 914.10,298.39 915.50,298.39 916.90,298.39 918.31,298.39 919.71,246.78 921.11,298.39 922.51,298.39 923.91,298.39 925.32,298.39 926.72,298.39 928.12,246.78 929.52,246.78 930.92,298.39 932.33,298.39 933.73,298.39 935.13,298.39 936.53,298.39 937.94,298.39 939.34,298.39 940.74,298.39 942.14,298.39 943.54,298.39 944.95,298.39 946.35,298.39 947.75,298.39 949.15,298.39 950.55,298.35 951.96,298.39 953.36,298.39 954.76,298.35 956.16,298.35 957.57,298.35 958.97,298.35 960.37,298.35 961.77,298.35 963.17,298.35 964.58,298.35 965.98,298.35 967.38,298.35 968.78,298.35 970.18,298.35 971.59,298.35 972.99,298.35 974.39,298.35 975.79,298.35 977.20,298.35 978.60,298.35 980.00,298.35"/>
  <circle cx="70.00" cy="50.00" r="2.5" fill="#2563eb"/>
  <circle cx="71.40" cy="50.12" r="2.5" fill="#2563eb"/>
  <circle cx="72.80" cy="50.17" r="2.5" fill="#2563eb"/>
  <circle cx="74.21" cy="50.46" r="2.5" fill="#2563eb"/>
  <circle cx="75.61" cy="50.00" r="2.5" fill="#2563eb"/>
  <circle cx="77.01" cy="266.90" r="2.5" fill="#2563eb"/>
  <circle cx="78.41" cy="50.12" r="2.5" fill="#2563eb"/>
  <circle cx="79.82" cy="50.08" r="2.5" fill="#2563eb"/>
  <circle cx="81.22" cy="177.46" r="2.5" fill="#2563eb"/>
  <circle cx="82.62" cy="211.58" r="2.5" fill="#2563eb"/>
  <circle cx="84.02" cy="175.34" r="2.5" fill="#2563eb"/>
  <circle cx="85.42" cy="304.14" r="2.5" fill="#2563eb"/>
  <circle cx="86.83" cy="200.46" r="2.5" fill="#2563eb"/>
  <circle cx="88.23" cy="250.94" r="2.5" fill="#2563eb"/>
  <circle cx="89.63" cy="300.01" r="2.5" fill="#2563eb"/>
  <circle cx="91.03" cy="300.06" r="2.5" fill="#2563eb"/>
  <circle cx="92.43" cy="300.01" r="2.5" fill="#2563eb"/>
  <circle cx="93.84" cy="300.01" r="2.5" fill="#2563eb"/>
  <circle cx="95.24" cy="348.00" r="2.5" fill="#2563eb"/>
  <circle cx="96.64" cy="300.01" r="2.5" fill="#2563eb"/>
  <circle cx="98.04" cy="249.99" r="2.5" fill="#2563eb"/>
  <circle cx="99.45" cy="200.00" r="2.5" fill="#2563eb"/>
  <circle cx="100.85" cy="249.99" r="2.5" fill="#2563eb"/>
  <circle cx="102.25" cy="249.99" r="2.5" fill="#2563eb"/>
  <circle cx="103.65" cy="250.03" r="2.5" fill="#2563eb"/>
  <circle cx="105.05" cy="250.03" r="2.5" fill="#2563eb"/>
  <circle cx="106.46" cy="250.03" r="2.5" fill="#2563eb"/>
  <circle cx="107.86" cy="250.40" r="2.5" fill="#2563eb"/>
  <circle cx="109.26" cy="250.90" r="2.5" fill="#2563eb"/>
  <circle cx="110.66" cy="250.90" r="2.5" fill="#2563eb"/>
  <circle cx="112.06" cy="251.32" r="2.5" fill="#2563eb"/>
  <circle cx="113.47" cy="249.94" r="2.5" fill="#2563eb"/>
  <circle cx="114.87" cy="300.01" r="2.5" fill="#2563eb"/>
  <circle cx="116.27" cy="299.93" r="2.5" fill="#2563eb"/>
  <circle cx="117.67" cy="251.03" r="2.5" fill="#2563eb"/>
  <circle cx="119.08" cy="300.68" r="2.5" fill="#2563eb"/>
  <circle cx="120.48" cy="250.03" r="2.5" fill="#2563eb"/>
  <circle cx="121.88" cy="200.00" r="2.5" fill="#2563eb"/>
  <circle cx="123.28" cy="249.99" r="2.5" fill="#2563eb"/>
  <circle cx="124.68" cy="250.03" r="2.5" fill="#2563eb"/>
  <circle cx="126.09" cy="250.03" r="2.5" fill="#2563eb"/>
  <circle cx="127.49" cy="250.03" r="2.5" fill="#2563eb"/>
  <circle cx="128.89" cy="300.01" r="2.5" fill="#2563eb"/>
  <circle cx="130.29" cy="200.04" r="2.5" fill="#2563eb"/>
  <circle cx="131.69" cy="250.03" r="2.5" fill="#2563eb"/>
  <circle cx="133.10" cy="250.03" r="2.5" fill="#2563eb"/>
  <circle cx="134.50" cy="250.03" r="2.5" fill="#2563eb"/>
  <circle cx="135.90" cy="249.90" r="2.5" fill="#2563eb"/>
  <circle cx="137.30" cy="250.03" r="2.5" fill="#2563eb"/>
  <circle cx="138.71" cy="250.03" r="2.5" fill="#2563eb"/>
  <circle cx="140.11" cy="250.94" r="2.5" fill="#2563eb"/>
  <circle cx="141.51" cy="250.44" r="2.5" fill="#2563eb"/>
  <circle cx="142.91" cy="250.03" r="2.5" fill="#2563eb"/>
  <circle cx="144.31" cy="250.03" r="2.5" fill="#2563eb"/>
  <circle cx="145.72" cy="300.47" r="2.5" fill="#2563eb"/>
  <circle cx="147.12" cy="300.01" r="2.5" fill="#2563eb"/>
  <circle cx="148.52" cy="300.43" r="2.5" fill="#2563eb"/>
  <circle cx="149.92" cy="250.03" r="2.5" fill="#2563eb"/>
  <circle cx="151.33" cy="249.99" r="2.5" fill="#2563eb"/>
  <circle cx="152.73" cy="300.43" r="2.5" fill="#2563eb"/>
  <circle cx="154.13" cy="249.90" r="2.5" fill="#2563eb"/>
  <circle cx="155.53" cy="249.99" r="2.5" fill="#2563eb"/>
  <circle cx="156.93" cy="249.99" r="2.5" fill="#2563eb"/>
  <circle cx="158.34" cy="200.04" r="2.5" fill="#2563eb"/>
  <circle cx="159.74" cy="300.01" r="2.5" fill="#2563eb"/>
  <circle cx="161.14" cy="300.01" r="2.5" fill="#2563eb"/>
  <circle cx="162.54" cy="300.01" r="2.5" fill="#2563eb"/>
  <circle cx="163.94" cy="249.90" r="2.5" fill="#2563eb"/>
  <circle cx="165.35" cy="300.01" r="2.5" fill="#2563eb"/>
  <circle cx="166.75" cy="250.03" r="2.5" fill="#2563eb"/>
  <circle cx="168.15" cy="249.99" r="2.5" fill="#2563eb"/>
  <circle cx="169.55" cy="199.96" r="2.5" fill="#2563eb"/>
  <circle cx="170.96" cy="300.01" r="2.5" fill="#2563eb"/>
  <circle cx="172.36" cy="200.00" r="2.5" fill="#2563eb"/>
  <circle cx="173.76" cy="250.36" r="2.5" fill="#2563eb"/>
  <circle cx="175.16" cy="250.03" r="2.5" fill="#2563eb"/>
  <circle cx="176.56" cy="300.01" r="2.5" fill="#2563eb"/>
  <circle cx="177.97" cy="300.01" r="2.5" fill="#2563eb"/>
  <circle cx="179.37" cy="250.44" r="2.5" fill="#2563eb"/>
  <circle cx="180.77" cy="300.01" r="2.5" fill="#2563eb"/>
  <circle cx="182.17" cy="250.03" r="2.5" fill="#2563eb"/>
  <circle cx="183.57" cy="250.03" r="2.5" fill="#2563eb"/>
  <circle cx="184.98" cy="249.99" r="2.5" fill="#2563eb"/>
  <circle cx="186.38" cy="250.49" r="2.5" fill="#2563eb"/>
  <circle cx="187.78" cy="250.03" r="2.5" fill="#2563eb"/>
  <circle cx="189.18" cy="200.04" r="2.5" fill="#2563eb"/>
  <circle cx="190.59" cy="300.01" r="2.5" fill="#2563eb"/>
  <circle cx="191.99" cy="250.03" r="2.5" fill="#2563eb"/>
  <circle cx="193.39" cy="300.01" r="2.5" fill="#2563eb"/>
  <circle cx="194.79" cy="250.11" r="2.5" fill="#2563eb"/>
  <circle cx="196.19" cy="300.01" r="2.5" fill="#2563eb"/>
  <circle cx="197.60" cy="250.03" r="2.5" fill="#2563eb"/>
  <circle cx="199.00" cy="250.03" r="2.5" fill="#2563eb"/>
  <circle cx="200.40" cy="199.92" r="2.5" fill="#2563eb"/>
  <circle cx="201.80" cy="250.03" r="2.5" fill="#2563eb"/>
  <circle cx="203.20" cy="250.03" r="2.5" fill="#2563eb"/>
  <circle cx="204.61" cy="250.03" r="2.5" fill="#2563eb"/>
  <circle cx="206.01" cy="254.36" r="2.5" fill="#2563eb"/>
  <circle cx="207.41" cy="300.01" r="2.5" fill="#2563eb"/>
  <circle cx="208.81" cy="299.97" r="2.5" fill="#2563eb"/>
  <circle cx="210.22" cy="250.36" r="2.5" fill="#2563eb"/>
  <circle cx="211.62" cy="299.97" r="2.5" fill="#2563eb"/>
  <circle cx="213.02" cy="250.03" r="2.5" fill="#2563eb"/>
  <circle cx="214.42" cy="250.03" r="2.5" fill="#2563eb"/>
  <circle cx="215.82" cy="250.03" r="2.5" fill="#2563eb"/>
  <circle cx="217.23" cy="250.03" r="2.5" fill="#2563eb"/>
  <circle cx="218.63" cy="249.99" r="2.5" fill="#2563eb"/>
  <circle cx="220.03" cy="200.00" r="2.5" fill="#2563eb"/>
  <circle cx="221.43" cy="299.93" r="2.5" fill="#2563eb"/>
  <circle cx="222.84" cy="300.01" r="2.5" fill="#2563eb"/>
  <circle cx="224.24" cy="299.97" r="2.5" fill="#2563eb"/>
  <circle cx="225.64" cy="249.94" r="2.5" fill="#2563eb"/>
  <circle cx="227.04" cy="249.99" r="2.5" fill="#2563eb"/>
  <circle cx="228.44" cy="249.82" r="2.5" fill="#2563eb"/>
  <circle cx="229.85" cy="249.94" r="2.5" fill="#2563eb"/>
  <circle cx="231.25" cy="250.28" r="2.5" fill="#2563eb"/>
  <circle cx="232.65" cy="207.00" r="2.5" fill="#2563eb"/>
  <circle cx="234.05" cy="250.03" r="2.5" fill="#2563eb"/>
  <circle cx="235.45" cy="250.32" r="2.5" fill="#2563eb"/>
  <circle cx="236.86" cy="250.40" r="2.5" fill="#2563eb"/>
  <circle cx="238.26" cy="300.93" r="2.5" fill="#2563eb"/>
  <circle cx="239.66" cy="300.01" r="2.5" fill="#2563eb"/>
  <circle cx="241.06" cy="300.10" r="2.5" fill="#2563eb"/>
  <circle cx="242.47" cy="249.94" r="2.5" fill="#2563eb"/>
  <circle cx="243.87" cy="249.99" r="2.5" fill="#2563eb"/>
  <circle cx="245.27" cy="250.07" r="2.5" fill="#2563eb"/>
  <circle cx="246.67" cy="249.99" r="2.5" fill="#2563eb"/>
  <circle cx="248.07" cy="250.03" r="2.5" fill="#2563eb"/>
  <circle cx="249.48" cy="249.94" r="2.5" fill="#2563eb"/>
  <circle cx="250.88" cy="200.00" r="2.5" fill="#2563eb"/>
  <circle cx="252.28" cy="300.39" r="2.5" fill="#2563eb"/>
  <circle cx="253.68" cy="300.01" r="2.5" fill="#2563eb"/>
  <circle cx="255.08" cy="300.01" r="2.5" fill="#2563eb"/>
  <circle cx="256.49" cy="250.44" r="2.5" fill="#2563eb"/>
  <circle cx="257.89" cy="300.39" r="2.5" fill="#2563eb"/>
  <circle cx="259.29" cy="249.86" r="2.5" fill="#2563eb"/>
  <circle cx="260.69" cy="250.11" r="2.5" fill="#2563eb"/>
  <circle cx="262.10" cy="201.46" r="2.5" fill="#2563eb"/>
  <circle cx="263.50" cy="300.01" r="2.5" fill="#2563eb"/>
  <circle cx="264.90" cy="200.83" r="2.5" fill="#2563eb"/>
  <circle cx="266.30" cy="250.03" r="2.5" fill="#2563eb"/>
  <circle cx="267.70" cy="249.99" r="2.5" fill="#2563eb"/>
  <circle cx="269.11" cy="300.26" r="2.5" fill="#2563eb"/>
  <circle cx="270.51" cy="300.01" r="2.5" fill="#2563eb"/>
  <circle cx="271.91" cy="300.01" r="2.5" fill="#2563eb"/>
  <circle cx="273.31" cy="250.03" r="2.5" fill="#2563eb"/>
  <circle cx="274.71" cy="250.03" r="2.5" fill="#2563eb"/>
  <circle cx="276.12" cy="250.03" r="2.5" fill="#2563eb"/>
  <circle cx="277.52" cy="250.03" r="2.5" fill="#2563eb"/>
  <circle cx="278.92" cy="249.99" r="2.5" fill="#2563eb"/>
  <circle cx="280.32" cy="250.03" r="2.5" fill="#2563eb"/>
  <circle cx="281.73" cy="200.00" r="2.5" fill="#2563eb"/>
  <circle cx="283.13" cy="300.26" r="2.5" fill="#2563eb"/>
  <circle cx="284.53" cy="249.99" r="2.5" fill="#2563eb"/>
  <circle cx="285.93" cy="300.01" r="2.5" fill="#2563eb"/>
  <circle cx="287.33" cy="249.94" r="2.5" fill="#2563eb"/>
  <circle cx="288.74" cy="250.03" r="2.5" fill="#2563eb"/>
  <circle cx="290.14" cy="250.03" r="2.5" fill="#2563eb"/>
  <circle cx="291.54" cy="250.03" r="2.5" fill="#2563eb"/>
  <circle cx="292.94" cy="200.04" r="2.5" fill="#2563eb"/>
  <circle cx="294.35" cy="300.01" r="2.5" fill="#2563eb"/>
  <circle cx="295.75" cy="249.90" r="2.5" fill="#2563eb"/>
  <circle cx="297.15" cy="300.01" r="2.5" fill="#2563eb"/>
  <circle cx="298.55" cy="300.01" r="2.5" fill="#2563eb"/>
  <circle cx="299.95" cy="300.06" r="2.5" fill="#2563eb"/>
  <circle cx="301.36" cy="300.01" r="2.5" fill="#2563eb"/>
  <circle cx="302.76" cy="300.01" r="2.5" fill="#2563eb"/>
  <circle cx="304.16" cy="243.95" r="2.5" fill="#2563eb"/>
  <circle cx="305.56" cy="249.94" r="2.5" fill="#2563eb"/>
  <circle cx="306.96" cy="299.97" r="2.5" fill="#2563eb"/>
  <circle cx="308.37" cy="300.01" r="2.5" fill="#2563eb"/>
  <circle cx="309.77" cy="300.01" r="2.5" fill="#2563eb"/>
  <circle cx="311.17" cy="250.03" r="2.5" fill="#2563eb"/>
  <circle cx="312.57" cy="300.01" r="2.5" fill="#2563eb"/>
  <circle cx="313.98" cy="300.01" r="2.5" fill="#2563eb"/>
  <circle cx="315.38" cy="299.97" r="2.5" fill="#2563eb"/>
  <circle cx="316.78" cy="249.99" r="2.5" fill="#2563eb"/>
  <circle cx="318.18" cy="300.01" r="2.5" fill="#2563eb"/>
  <circle cx="319.58" cy="299.93" r="2.5" fill="#2563eb"/>
  <circle cx="320.99" cy="300.01" r="2.5" fill="#2563eb"/>
  <circle cx="322.39" cy="299.93" r="2.5" fill="#2563eb"/>
  <circle cx="323.79" cy="300.01" r="2.5" fill="#2563eb"/>
  <circle cx="325.19" cy="300.01" r="2.5" fill="#2563eb"/>
  <circle cx="326.59" cy="299.89" r="2.5" fill="#2563eb"/>
  <circle cx="328.00" cy="299.97" r="2.5" fill="#2563eb"/>
  <circle cx="329.40" cy="250.03" r="2.5" fill="#2563eb"/>
  <circle cx="330.80" cy="299.93" r="2.5" fill="#2563eb"/>
  <circle cx="332.20" cy="299.89" r="2.5" fill="#2563eb"/>
  <circle cx="333.61" cy="299.97" r="2.5" fill="#2563eb"/>
  <circle cx="335.01" cy="249.94" r="2.5" fill="#2563eb"/>
  <circle cx="336.41" cy="300.01" r="2.5" fill="#2563eb"/>
  <circle cx="337.81" cy="300.01" r="2.5" fill="#2563eb"/>
  <circle cx="339.21" cy="299.97" r="2.5" fill="#2563eb"/>
  <circle cx="340.62" cy="249.99" r="2.5" fill="#2563eb"/>
  <circle cx="342.02" cy="299.97" r="2.5" fill="#2563eb"/>
  <circle cx="343.42" cy="299.97" r="2.5" fill="#2563eb"/>
  <circle cx="344.82" cy="300.06" r="2.5" fill="#2563eb"/>
  <circle cx="346.22" cy="300.06" r="2.5" fill="#2563eb"/>
  <circle cx="347.63" cy="299.93" r="2.5" fill="#2563eb"/>
  <circle cx="349.03" cy="300.01" r="2.5" fill="#2563eb"/>
  <circle cx="350.43" cy="300.01" r="2.5" fill="#2563eb"/>
  <circle cx="351.83" cy="299.93" r="2.5" fill="#2563eb"/>
  <circle cx="353.24" cy="300.01" r="2.5" fill="#2563eb"/>
  <circle cx="354.64" cy="300.01" r="2.5" fill="#2563eb"/>
  <circle cx="356.04" cy="299.97" r="2.5" fill="#2563eb"/>
  <circle cx="357.44" cy="300.01" r="2.5" fill="#2563eb"/>
  <circle cx="358.84" cy="300.01" r="2.5" fill="#2563eb"/>
  <circle cx="360.25" cy="300.01" r="2.5" fill="#2563eb"/>
  <circle cx="361.65" cy="300.01" r="2.5" fill="#2563eb"/>
  <circle cx="363.05" cy="249.86" r="2.5" fill="#2563eb"/>
  <circle cx="364.45" cy="300.01" r="2.5" fill="#2563eb"/>
  <circle cx="365.86" cy="300.10" r="2.5" fill="#2563eb"/>
  <circle cx="367.26" cy="299.93" r="2.5" fill="#2563eb"/>
  <circle cx="368.66" cy="300.01" r="2.5" fill="#2563eb"/>
  <circle cx="370.06" cy="299.93" r="2.5" fill="#2563eb"/>
  <circle cx="371.46" cy="300.01" r="2.5" fill="#2563eb"/>
  <circle cx="372.87" cy="300.01" r="2.5" fill="#2563eb"/>
  <circle cx="374.27" cy="300.01" r="2.5" fill="#2563eb"/>
  <circle cx="375.67" cy="300.01" r="2.5" fill="#2563eb"/>
  <circle cx="377.07" cy="300.01" r="2.5" fill="#2563eb"/>
  <circle cx="378.47" cy="299.97" r="2.5" fill="#2563eb"/>
  <circle cx="379.88" cy="300.01" r="2.5" fill="#2563eb"/>
  <circle cx="381.28" cy="300.01" r="2.5" fill="#2563eb"/>
  <circle cx="382.68" cy="300.01" r="2.5" fill="#2563eb"/>
  <circle cx="384.08" cy="300.01" r="2.5" fill="#2563eb"/>
  <circle cx="385.49" cy="250.03" r="2.5" fill="#2563eb"/>
  <circle cx="386.89" cy="300.01" r="2.5" fill="#2563eb"/>
  <circle cx="388.29" cy="300.01" r="2.5" fill="#2563eb"/>
  <circle cx="389.69" cy="299.97" r="2.5" fill="#2563eb"/>
  <circle cx="391.09" cy="300.01" r="2.5" fill="#2563eb"/>
  <circle cx="392.50" cy="300.01" r="2.5" fill="#2563eb"/>
  <circle cx="393.90" cy="299.97" r="2.5" fill="#2563eb"/>
  <circle cx="395.30" cy="299.97" r="2.5" fill="#2563eb"/>
  <circle cx="396.70" cy="300.01" r="2.5" fill="#2563eb"/>
  <circle cx="398.10" cy="299.97" r="2.5" fill="#2563eb"/>
  <circle cx="399.51" cy="300.01" r="2.5" fill="#2563eb"/>
  <circle cx="400.91" cy="299.93" r="2.5" fill="#2563eb"/>
  <circle cx="402.31" cy="300.01" r="2.5" fill="#2563eb"/>
  <circle cx="403.71" cy="250.03" r="2.5" fill="#2563eb"/>
  <circle cx="405.12" cy="300.01" r="2.5" fill="#2563eb"/>
  <circle cx="406.52" cy="300.01" r="2.5" fill="#2563eb"/>
  <circle cx="407.92" cy="300.01" r="2.5" fill="#2563eb"/>
  <circle cx="409.32" cy="300.01" r="2.5" fill="#2563eb"/>
  <circle cx="410.72" cy="300.01" r="2.5" fill="#2563eb"/>
  <circle cx="412.13" cy="299.89" r="2.5" fill="#2563eb"/>
  <circle cx="413.53" cy="300.01" r="2.5" fill="#2563eb"/>
  <circle cx="414.93" cy="300.01" r="2.5" fill="#2563eb"/>
  <circle cx="416.33" cy="250.07" r="2.5" fill="#2563eb"/>
  <circle cx="417.73" cy="300.01" r="2.5" fill="#2563eb"/>
  <circle cx="419.14" cy="299.93" r="2.5" fill="#2563eb"/>
  <circle cx="420.54" cy="300.01" r="2.5" fill="#2563eb"/>
  <circle cx="421.94" cy="299.97" r="2.5" fill="#2563eb"/>
  <circle cx="423.34" cy="299.97" r="2.5" fill="#2563eb"/>
  <circle cx="424.75" cy="299.97" r="2.5" fill="#2563eb"/>
  <circle cx="426.15" cy="250.03" r="2.5" fill="#2563eb"/>
  <circle cx="427.55" cy="300.01" r="2.5" fill="#2563eb"/>
  <circle cx="428.95" cy="300.01" r="2.5" fill="#2563eb"/>
  <circle cx="430.35" cy="300.01" r="2.5" fill="#2563eb"/>
  <circle cx="431.76" cy="300.01" r="2.5" fill="#2563eb"/>
  <circle cx="433.16" cy="299.97" r="2.5" fill="#2563eb"/>
  <circle cx="434.56" cy="300.01" r="2.5" fill="#2563eb"/>
  <circle cx="435.96" cy="299.97" r="2.5" fill="#2563eb"/>
  <circle cx="437.37" cy="300.01" r="2.5" fill="#2563eb"/>
  <circle cx="438.77" cy="299.97" r="2.5" fill="#2563eb"/>
  <circle cx="440.17" cy="249.90" r="2.5" fill="#2563eb"/>
  <circle cx="441.57" cy="300.01" r="2.5" fill="#2563eb"/>
  <circle cx="442.97" cy="300.01" r="2.5" fill="#2563eb"/>
  <circle cx="444.38" cy="299.89" r="2.5" fill="#2563eb"/>
  <circle cx="445.78" cy="299.97" r="2.5" fill="#2563eb"/>
  <circle cx="447.18" cy="299.97" r="2.5" fill="#2563eb"/>
  <circle cx="448.58" cy="249.99" r="2.5" fill="#2563eb"/>
  <circle cx="449.98" cy="299.97" r="2.5" fill="#2563eb"/>
  <circle cx="451.39" cy="299.89" r="2.5" fill="#2563eb"/>
  <circle cx="452.79" cy="300.01" r="2.5" fill="#2563eb"/>
  <circle cx="454.19" cy="299.97" r="2.5" fill="#2563eb"/>
  <circle cx="455.59" cy="299.97" r="2.5" fill="#2563eb"/>
  <circle cx="457.00" cy="300.01" r="2.5" fill="#2563eb"/>
  <circle cx="458.40" cy="299.97" r="2.5" fill="#2563eb"/>
  <circle cx="459.80" cy="249.99" r="2.5" fill="#2563eb"/>
  <circle cx="461.20" cy="299.97" r="2.5" fill="#2563eb"/>
  <circle cx="462.60" cy="299.97" r="2.5" fill="#2563eb"/>
  <circle cx="464.01" cy="300.06" r="2.5" fill="#2563eb"/>
  <circle cx="465.41" cy="300.06" r="2.5" fill="#2563eb"/>
  <circle cx="466.81" cy="249.94" r="2.5" fill="#2563eb"/>
  <circle cx="468.21" cy="300.01" r="2.5" fill="#2563eb"/>
  <circle cx="469.61" cy="299.93" r="2.5" fill="#2563eb"/>
  <circle cx="471.02" cy="300.01" r="2.5" fill="#2563eb"/>
  <circle cx="472.42" cy="300.01" r="2.5" fill="#2563eb"/>
  <circle cx="473.82" cy="249.99" r="2.5" fill="#2563eb"/>
  <circle cx="475.22" cy="300.01" r="2.5" fill="#2563eb"/>
  <circle cx="476.63" cy="300.01" r="2.5" fill="#2563eb"/>
  <circle cx="478.03" cy="300.01" r="2.5" fill="#2563eb"/>
  <circle cx="479.43" cy="299.93" r="2.5" fill="#2563eb"/>
  <circle cx="480.83" cy="299.93" r="2.5" fill="#2563eb"/>
  <circle cx="482.23" cy="300.01" r="2.5" fill="#2563eb"/>
  <circle cx="483.64" cy="300.01" r="2.5" fill="#2563eb"/>
  <circle cx="485.04" cy="249.94" r="2.5" fill="#2563eb"/>
  <circle cx="486.44" cy="299.97" r="2.5" fill="#2563eb"/>
  <circle cx="487.84" cy="299.97" r="2.5" fill="#2563eb"/>
  <circle cx="489.24" cy="300.01" r="2.5" fill="#2563eb"/>
  <circle cx="490.65" cy="300.01" r="2.5" fill="#2563eb"/>
  <circle cx="492.05" cy="300.01" r="2.5" fill="#2563eb"/>
  <circle cx="493.45" cy="249.99" r="2.5" fill="#2563eb"/>
  <circle cx="494.85" cy="300.01" r="2.5" fill="#2563eb"/>
  <circle cx="496.26" cy="300.01" r="2.5" fill="#2563eb"/>
  <circle cx="497.66" cy="300.01" r="2.5" fill="#2563eb"/>
  <circle cx="499.06" cy="250.03" r="2.5" fill="#2563eb"/>
  <circle cx="500.46" cy="300.01" r="2.5" fill="#2563eb"/>
  <circle cx="501.86" cy="300.01" r="2.5" fill="#2563eb"/>
  <circle cx="503.27" cy="300.01" r="2.5" fill="#2563eb"/>
  <circle cx="504.67" cy="299.97" r="2.5" fill="#2563eb"/>
  <circle cx="506.07" cy="300.01" r="2.5" fill="#2563eb"/>
  <circle cx="507.47" cy="300.01" r="2.5" fill="#2563eb"/>
  <circle cx="508.88" cy="299.97" r="2.5" fill="#2563eb"/>
  <circle cx="510.28" cy="299.97" r="2.5" fill="#2563eb"/>
  <circle cx="511.68" cy="300.01" r="2.5" fill="#2563eb"/>
  <circle cx="513.08" cy="300.01" r="2.5" fill="#2563eb"/>
  <circle cx="514.48" cy="299.97" r="2.5" fill="#2563eb"/>
  <circle cx="515.89" cy="299.93" r="2.5" fill="#2563eb"/>
  <circle cx="517.29" cy="300.01" r="2.5" fill="#2563eb"/>
  <circle cx="518.69" cy="300.06" r="2.5" fill="#2563eb"/>
  <circle cx="520.09" cy="299.97" r="2.5" fill="#2563eb"/>
  <circle cx="521.49" cy="300.01" r="2.5" fill="#2563eb"/>
  <circle cx="522.90" cy="250.03" r="2.5" fill="#2563eb"/>
  <circle cx="524.30" cy="250.03" r="2.5" fill="#2563eb"/>
  <circle cx="525.70" cy="299.93" r="2.5" fill="#2563eb"/>
  <circle cx="527.10" cy="299.97" r="2.5" fill="#2563eb"/>
  <circle cx="528.51" cy="300.01" r="2.5" fill="#2563eb"/>
  <circle cx="529.91" cy="300.01" r="2.5" fill="#2563eb"/>
  <circle cx="531.31" cy="300.06" r="2.5" fill="#2563eb"/>
  <circle cx="532.71" cy="300.01" r="2.5" fill="#2563eb"/>
  <circle cx="534.11" cy="299.93" r="2.5" fill="#2563eb"/>
  <circle cx="535.52" cy="300.01" r="2.5" fill="#2563eb"/>
  <circle cx="536.92" cy="300.01" r="2.5" fill="#2563eb"/>
  <circle cx="538.32" cy="299.97" r="2.5" fill="#2563eb"/>
  <circle cx="539.72" cy="299.97" r="2.5" fill="#2563eb"/>
  <circle cx="541.12" cy="300.01" r="2.5" fill="#2563eb"/>
  <circle cx="542.53" cy="250.03" r="2.5" fill="#2563eb"/>
  <circle cx="543.93" cy="300.01" r="2.5" fill="#2563eb"/>
  <circle cx="545.33" cy="300.01" r="2.5" fill="#2563eb"/>
  <circle cx="546.73" cy="300.01" r="2.5" fill="#2563eb"/>
  <circle cx="548.14" cy="299.97" r="2.5" fill="#2563eb"/>
  <circle cx="549.54" cy="300.01" r="2.5" fill="#2563eb"/>
  <circle cx="550.94" cy="299.97" r="2.5" fill="#2563eb"/>
  <circle cx="552.34" cy="300.01" r="2.5" fill="#2563eb"/>
  <circle cx="553.74" cy="299.97" r="2.5" fill="#2563eb"/>
  <circle cx="555.15" cy="299.97" r="2.5" fill="#2563eb"/>
  <circle cx="556.55" cy="299.93" r="2.5" fill="#2563eb"/>
  <circle cx="557.95" cy="300.01" r="2.5" fill="#2563eb"/>
  <circle cx="559.35" cy="300.01" r="2.5" fill="#2563eb"/>
  <circle cx="560.76" cy="299.89" r="2.5" fill="#2563eb"/>
  <circle cx="562.16" cy="299.97" r="2.5" fill="#2563eb"/>
  <circle cx="563.56" cy="299.97" r="2.5" fill="#2563eb"/>
  <circle cx="564.96" cy="300.06" r="2.5" fill="#2563eb"/>
  <circle cx="566.36" cy="249.90" r="2.5" fill="#2563eb"/>
  <circle cx="567.77" cy="299.89" r="2.5" fill="#2563eb"/>
  <circle cx="569.17" cy="300.01" r="2.5" fill="#2563eb"/>
  <circle cx="570.57" cy="299.97" r="2.5" fill="#2563eb"/>
  <circle cx="571.97" cy="299.97" r="2.5" fill="#2563eb"/>
  <circle cx="573.37" cy="299.97" r="2.5" fill="#2563eb"/>
  <circle cx="574.78" cy="300.01" r="2.5" fill="#2563eb"/>
  <circle cx="576.18" cy="300.01" r="2.5" fill="#2563eb"/>
  <circle cx="577.58" cy="299.97" r="2.5" fill="#2563eb"/>
  <circle cx="578.98" cy="299.97" r="2.5" fill="#2563eb"/>
  <circle cx="580.39" cy="299.97" r="2.5" fill="#2563eb"/>
  <circle cx="581.79" cy="250.03" r="2.5" fill="#2563eb"/>
  <circle cx="583.19" cy="299.93" r="2.5" fill="#2563eb"/>
  <circle cx="584.59" cy="300.01" r="2.5" fill="#2563eb"/>
  <circle cx="585.99" cy="300.01" r="2.5" fill="#2563eb"/>
  <circle cx="587.40" cy="299.93" r="2.5" fill="#2563eb"/>
  <circle cx="588.80" cy="300.01" r="2.5" fill="#2563eb"/>
  <circle cx="590.20" cy="300.01" r="2.5" fill="#2563eb"/>
  <circle cx="591.60" cy="299.97" r="2.5" fill="#2563eb"/>
  <circle cx="593.00" cy="300.01" r="2.5" fill="#2563eb"/>
  <circle cx="594.41" cy="300.01" r="2.5" fill="#2563eb"/>
  <circle cx="595.81" cy="300.06" r="2.5" fill="#2563eb"/>
  <circle cx="597.21" cy="300.01" r="2.5" fill="#2563eb"/>
  <circle cx="598.61" cy="299.97" r="2.5" fill="#2563eb"/>
  <circle cx="600.02" cy="299.89" r="2.5" fill="#2563eb"/>
  <circle cx="601.42" cy="300.01" r="2.5" fill="#2563eb"/>
  <circle cx="602.82" cy="300.01" r="2.5" fill="#2563eb"/>
  <circle cx="604.22" cy="249.94" r="2.5" fill="#2563eb"/>
  <circle cx="605.62" cy="249.94" r="2.5" fill="#2563eb"/>
  <circle cx="607.03" cy="300.01" r="2.5" fill="#2563eb"/>
  <circle cx="608.43" cy="300.01" r="2.5" fill="#2563eb"/>
  <circle cx="609.83" cy="300.01" r="2.5" fill="#2563eb"/>
  <circle cx="611.23" cy="300.01" r="2.5" fill="#2563eb"/>
  <circle cx="612.63" cy="299.97" r="2.5" fill="#2563eb"/>
  <circle cx="614.04" cy="250.03" r="2.5" fill="#2563eb"/>
  <circle cx="615.44" cy="300.01" r="2.5" fill="#2563eb"/>
  <circle cx="616.84" cy="300.01" r="2.5" fill="#2563eb"/>
  <circle cx="618.24" cy="300.01" r="2.5" fill="#2563eb"/>
  <circle cx="619.65" cy="300.01" r="2.5" fill="#2563eb"/>
  <circle cx="621.05" cy="250.03" r="2.5" fill="#2563eb"/>
  <circle cx="622.45" cy="249.99" r="2.5" fill="#2563eb"/>
  <circle cx="623.85" cy="300.01" r="2.5" fill="#2563eb"/>
  <circle cx="625.25" cy="299.97" r="2.5" fill="#2563eb"/>
  <circle cx="626.66" cy="300.01" r="2.5" fill="#2563eb"/>
  <circle cx="628.06" cy="299.97" r="2.5" fill="#2563eb"/>
  <circle cx="629.46" cy="300.01" r="2.5" fill="#2563eb"/>
  <circle cx="630.86" cy="299.97" r="2.5" fill="#2563eb"/>
  <circle cx="632.27" cy="299.97" r="2.5" fill="#2563eb"/>
  <circle cx="633.67" cy="299.97" r="2.5" fill="#2563eb"/>
  <circle cx="635.07" cy="300.06" r="2.5" fill="#2563eb"/>
  <circle cx="636.47" cy="249.99" r="2.5" fill="#2563eb"/>
  <circle cx="637.87" cy="300.01" r="2.5" fill="#2563eb"/>
  <circle cx="639.28" cy="250.03" r="2.5" fill="#2563eb"/>
  <circle cx="640.68" cy="249.94" r="2.5" fill="#2563eb"/>
  <circle cx="642.08" cy="249.99" r="2.5" fill="#2563eb"/>
  <circle cx="643.48" cy="300.01" r="2.5" fill="#2563eb"/>
  <circle cx="644.88" cy="300.06" r="2.5" fill="#2563eb"/>
  <circle cx="646.29" cy="300.01" r="2.5" fill="#2563eb"/>
  <circle cx="647.69" cy="299.97" r="2.5" fill="#2563eb"/>
  <circle cx="649.09" cy="299.97" r="2.5" fill="#2563eb"/>
  <circle cx="650.49" cy="300.01" r="2.5" fill="#2563eb"/>
  <circle cx="651.90" cy="299.93" r="2.5" fill="#2563eb"/>
  <circle cx="653.30" cy="299.89" r="2.5" fill="#2563eb"/>
  <circle cx="654.70" cy="299.89" r="2.5" fill="#2563eb"/>
  <circle cx="656.10" cy="299.89" r="2.5" fill="#2563eb"/>
  <circle cx="657.50" cy="299.89" r="2.5" fill="#2563eb"/>
  <circle cx="658.91" cy="299.85" r="2.5" fill="#2563eb"/>
  <circle cx="660.31" cy="299.85" r="2.5" fill="#2563eb"/>
  <circle cx="661.71" cy="299.89" r="2.5" fill="#2563eb"/>
  <circle cx="663.11" cy="299.81" r="2.5" fill="#2563eb"/>
  <circle cx="664.51" cy="299.81" r="2.5" fill="#2563eb"/>
  <circle cx="665.92" cy="299.81" r="2.5" fill="#2563eb"/>
  <circle cx="667.32" cy="299.76" r="2.5" fill="#2563eb"/>
  <circle cx="668.72" cy="299.76" r="2.5" fill="#2563eb"/>
  <circle cx="670.12" cy="299.76" r="2.5" fill="#2563eb"/>
  <circle cx="671.53" cy="299.72" r="2.5" fill="#2563eb"/>
  <circle cx="672.93" cy="299.68" r="2.5" fill="#2563eb"/>
  <circle cx="674.33" cy="299.60" r="2.5" fill="#2563eb"/>
  <circle cx="675.73" cy="299.60" r="2.5" fill="#2563eb"/>
  <circle cx="677.13" cy="299.60" r="2.5" fill="#2563eb"/>
  <circle cx="678.54" cy="299.56" r="2.5" fill="#2563eb"/>
  <circle cx="679.94" cy="299.47" r="2.5" fill="#2563eb"/>
  <circle cx="681.34" cy="299.43" r="2.5" fill="#2563eb"/>
  <circle cx="682.74" cy="299.43" r="2.5" fill="#2563eb"/>
  <circle cx="684.14" cy="299.39" r="2.5" fill="#2563eb"/>
  <circle cx="685.55" cy="299.47" r="2.5" fill="#2563eb"/>
  <circle cx="686.95" cy="259.82" r="2.5" fill="#2563eb"/>
  <circle cx="688.35" cy="338.96" r="2.5" fill="#2563eb"/>
  <circle cx="689.75" cy="299.31" r="2.5" fill="#2563eb"/>
  <circle cx="691.16" cy="299.31" r="2.5" fill="#2563eb"/>
  <circle cx="692.56" cy="299.26" r="2.5" fill="#2563eb"/>
  <circle cx="693.96" cy="299.68" r="2.5" fill="#2563eb"/>
  <circle cx="695.36" cy="299.68" r="2.5" fill="#2563eb"/>
  <circle cx="696.76" cy="299.68" r="2.5" fill="#2563eb"/>
  <circle cx="698.17" cy="299.64" r="2.5" fill="#2563eb"/>
  <circle cx="699.57" cy="299.14" r="2.5" fill="#2563eb"/>
  <circle cx="700.97" cy="299.14" r="2.5" fill="#2563eb"/>
  <circle cx="702.37" cy="299.10" r="2.5" fill="#2563eb"/>
  <circle cx="703.78" cy="299.10" r="2.5" fill="#2563eb"/>
  <circle cx="705.18" cy="299.10" r="2.5" fill="#2563eb"/>
  <circle cx="706.58" cy="248.07" r="2.5" fill="#2563eb"/>
  <circle cx="707.98" cy="299.06" r="2.5" fill="#2563eb"/>
  <circle cx="709.38" cy="299.06" r="2.5" fill="#2563eb"/>
  <circle cx="710.79" cy="299.06" r="2.5" fill="#2563eb"/>
  <circle cx="712.19" cy="299.06" r="2.5" fill="#2563eb"/>
  <circle cx="713.59" cy="299.06" r="2.5" fill="#2563eb"/>
  <circle cx="714.99" cy="298.97" r="2.5" fill="#2563eb"/>
  <circle cx="716.39" cy="298.97" r="2.5" fill="#2563eb"/>
  <circle cx="717.80" cy="298.93" r="2.5" fill="#2563eb"/>
  <circle cx="719.20" cy="298.97" r="2.5" fill="#2563eb"/>
  <circle cx="720.60" cy="298.93" r="2.5" fill="#2563eb"/>
  <circle cx="722.00" cy="298.89" r="2.5" fill="#2563eb"/>
  <circle cx="723.41" cy="298.89" r="2.5" fill="#2563eb"/>
  <circle cx="724.81" cy="298.89" r="2.5" fill="#2563eb"/>
  <circle cx="726.21" cy="298.89" r="2.5" fill="#2563eb"/>
  <circle cx="727.61" cy="247.78" r="2.5" fill="#2563eb"/>
  <circle cx="729.01" cy="298.89" r="2.5" fill="#2563eb"/>
  <circle cx="730.42" cy="298.89" r="2.5" fill="#2563eb"/>
  <circle cx="731.82" cy="298.85" r="2.5" fill="#2563eb"/>
  <circle cx="733.22" cy="298.85" r="2.5" fill="#2563eb"/>
  <circle cx="734.62" cy="298.81" r="2.5" fill="#2563eb"/>
  <circle cx="736.02" cy="298.81" r="2.5" fill="#2563eb"/>
  <circle cx="737.43" cy="298.81" r="2.5" fill="#2563eb"/>
  <circle cx="738.83" cy="298.81" r="2.5" fill="#2563eb"/>
  <circle cx="740.23" cy="298.81" r="2.5" fill="#2563eb"/>
  <circle cx="741.63" cy="298.81" r="2.5" fill="#2563eb"/>
  <circle cx="743.04" cy="298.81" r="2.5" fill="#2563eb"/>
  <circle cx="744.44" cy="298.81" r="2.5" fill="#2563eb"/>
  <circle cx="745.84" cy="298.81" r="2.5" fill="#2563eb"/>
  <circle cx="747.24" cy="298.72" r="2.5" fill="#2563eb"/>
  <circle cx="748.64" cy="247.45" r="2.5" fill="#2563eb"/>
  <circle cx="750.05" cy="247.45" r="2.5" fill="#2563eb"/>
  <circle cx="751.45" cy="298.72" r="2.5" fill="#2563eb"/>
  <circle cx="752.85" cy="298.72" r="2.5" fill="#2563eb"/>
  <circle cx="754.25" cy="298.72" r="2.5" fill="#2563eb"/>
  <circle cx="755.65" cy="298.72" r="2.5" fill="#2563eb"/>
  <circle cx="757.06" cy="298.72" r="2.5" fill="#2563eb"/>
  <circle cx="758.46" cy="298.72" r="2.5" fill="#2563eb"/>
  <circle cx="759.86" cy="247.36" r="2.5" fill="#2563eb"/>
  <circle cx="761.26" cy="298.68" r="2.5" fill="#2563eb"/>
  <circle cx="762.67" cy="247.36" r="2.5" fill="#2563eb"/>
  <circle cx="764.07" cy="247.36" r="2.5" fill="#2563eb"/>
  <circle cx="765.47" cy="247.36" r="2.5" fill="#2563eb"/>
  <circle cx="766.87" cy="298.68" r="2.5" fill="#2563eb"/>
  <circle cx="768.27" cy="298.68" r="2.5" fill="#2563eb"/>
  <circle cx="769.68" cy="298.68" r="2.5" fill="#2563eb"/>
  <circle cx="771.08" cy="298.68" r="2.5" fill="#2563eb"/>
  <circle cx="772.48" cy="298.68" r="2.5" fill="#2563eb"/>
  <circle cx="773.88" cy="341.67" r="2.5" fill="#2563eb"/>
  <circle cx="775.29" cy="307.01" r="2.5" fill="#2563eb"/>
  <circle cx="776.69" cy="298.68" r="2.5" fill="#2563eb"/>
  <circle cx="778.09" cy="298.68" r="2.5" fill="#2563eb"/>
  <circle cx="779.49" cy="298.68" r="2.5" fill="#2563eb"/>
  <circle cx="780.89" cy="247.36" r="2.5" fill="#2563eb"/>
  <circle cx="782.30" cy="298.64" r="2.5" fill="#2563eb"/>
  <circle cx="783.70" cy="247.36" r="2.5" fill="#2563eb"/>
  <circle cx="785.10" cy="247.28" r="2.5" fill="#2563eb"/>
  <circle cx="786.50" cy="247.20" r="2.5" fill="#2563eb"/>
  <circle cx="787.90" cy="298.60" r="2.5" fill="#2563eb"/>
  <circle cx="789.31" cy="298.60" r="2.5" fill="#2563eb"/>
  <circle cx="790.71" cy="247.03" r="2.5" fill="#2563eb"/>
  <circle cx="792.11" cy="298.51" r="2.5" fill="#2563eb"/>
  <circle cx="793.51" cy="298.51" r="2.5" fill="#2563eb"/>
  <circle cx="794.92" cy="298.51" r="2.5" fill="#2563eb"/>
  <circle cx="796.32" cy="298.51" r="2.5" fill="#2563eb"/>
  <circle cx="797.72" cy="298.51" r="2.5" fill="#2563eb"/>
  <circle cx="799.12" cy="298.51" r="2.5" fill="#2563eb"/>
  <circle cx="800.52" cy="298.51" r="2.5" fill="#2563eb"/>
  <circle cx="801.93" cy="298.51" r="2.5" fill="#2563eb"/>
  <circle cx="803.33" cy="298.51" r="2.5" fill="#2563eb"/>
  <circle cx="804.73" cy="298.51" r="2.5" fill="#2563eb"/>
  <circle cx="806.13" cy="298.51" r="2.5" fill="#2563eb"/>
  <circle cx="807.53" cy="298.51" r="2.5" fill="#2563eb"/>
  <circle cx="808.94" cy="298.51" r="2.5" fill="#2563eb"/>
  <circle cx="810.34" cy="298.51" r="2.5" fill="#2563eb"/>
  <circle cx="811.74" cy="298.51" r="2.5" fill="#2563eb"/>
  <circle cx="813.14" cy="298.51" r="2.5" fill="#2563eb"/>
  <circle cx="814.55" cy="298.51" r="2.5" fill="#2563eb"/>
  <circle cx="815.95" cy="298.51" r="2.5" fill="#2563eb"/>
  <circle cx="817.35" cy="298.51" r="2.5" fill="#2563eb"/>
  <circle cx="818.75" cy="298.51" r="2.5" fill="#2563eb"/>
  <circle cx="820.15" cy="298.51" r="2.5" fill="#2563eb"/>
  <circle cx="821.56" cy="298.51" r="2.5" fill="#2563eb"/>
  <circle cx="822.96" cy="298.51" r="2.5" fill="#2563eb"/>
  <circle cx="824.36" cy="298.51" r="2.5" fill="#2563eb"/>
  <circle cx="825.76" cy="298.51" r="2.5" fill="#2563eb"/>
  <circle cx="827.16" cy="298.51" r="2.5" fill="#2563eb"/>
  <circle cx="828.57" cy="298.47" r="2.5" fill="#2563eb"/>
  <circle cx="829.97" cy="298.51" r="2.5" fill="#2563eb"/>
  <circle cx="831.37" cy="298.51" r="2.5" fill="#2563eb"/>
  <circle cx="832.77" cy="298.47" r="2.5" fill="#2563eb"/>
  <circle cx="834.18" cy="298.51" r="2.5" fill="#2563eb"/>
  <circle cx="835.58" cy="298.47" r="2.5" fill="#2563eb"/>
  <circle cx="836.98" cy="298.51" r="2.5" fill="#2563eb"/>
  <circle cx="838.38" cy="298.43" r="2.5" fill="#2563eb"/>
  <circle cx="839.78" cy="298.56" r="2.5" fill="#2563eb"/>
  <circle cx="841.19" cy="298.43" r="2.5" fill="#2563eb"/>
  <circle cx="842.59" cy="298.43" r="2.5" fill="#2563eb"/>
  <circle cx="843.99" cy="298.43" r="2.5" fill="#2563eb"/>
  <circle cx="845.39" cy="298.43" r="2.5" fill="#2563eb"/>
  <circle cx="846.80" cy="298.43" r="2.5" fill="#2563eb"/>
  <circle cx="848.20" cy="298.43" r="2.5" fill="#2563eb"/>
  <circle cx="849.60" cy="298.43" r="2.5" fill="#2563eb"/>
  <circle cx="851.00" cy="298.43" r="2.5" fill="#2563eb"/>
  <circle cx="852.40" cy="298.43" r="2.5" fill="#2563eb"/>
  <circle cx="853.81" cy="298.43" r="2.5" fill="#2563eb"/>
  <circle cx="855.21" cy="298.43" r="2.5" fill="#2563eb"/>
  <circle cx="856.61" cy="298.43" r="2.5" fill="#2563eb"/>
  <circle cx="858.01" cy="298.43" r="2.5" fill="#2563eb"/>
  <circle cx="859.41" cy="298.43" r="2.5" fill="#2563eb"/>
  <circle cx="860.82" cy="298.43" r="2.5" fill="#2563eb"/>
  <circle cx="862.22" cy="298.43" r="2.5" fill="#2563eb"/>
  <circle cx="863.62" cy="298.43" r="2.5" fill="#2563eb"/>
  <circle cx="865.02" cy="298.43" r="2.5" fill="#2563eb"/>
  <circle cx="866.43" cy="298.43" r="2.5" fill="#2563eb"/>
  <circle cx="867.83" cy="298.43" r="2.5" fill="#2563eb"/>
  <circle cx="869.23" cy="298.43" r="2.5" fill="#2563eb"/>
  <circle cx="870.63" cy="298.43" r="2.5" fill="#2563eb"/>
  <circle cx="872.03" cy="298.43" r="2.5" fill="#2563eb"/>
  <circle cx="873.44" cy="298.43" r="2.5" fill="#2563eb"/>
  <circle cx="874.84" cy="298.43" r="2.5" fill="#2563eb"/>
  <circle cx="876.24" cy="298.43" r="2.5" fill="#2563eb"/>
  <circle cx="877.64" cy="298.43" r="2.5" fill="#2563eb"/>
  <circle cx="879.04" cy="298.43" r="2.5" fill="#2563eb"/>
  <circle cx="880.45" cy="298.43" r="2.5" fill="#2563eb"/>
  <circle cx="881.85" cy="298.43" r="2.5" fill="#2563eb"/>
  <circle cx="883.25" cy="298.43" r="2.5" fill="#2563eb"/>
  <circle cx="884.65" cy="298.43" r="2.5" fill="#2563eb"/>
  <circle cx="886.06" cy="298.43" r="2.5" fill="#2563eb"/>
  <circle cx="887.46" cy="298.43" r="2.5" fill="#2563eb"/>
  <circle cx="888.86" cy="298.39" r="2.5" fill="#2563eb"/>
  <circle cx="890.26" cy="298.39" r="2.5" fill="#2563eb"/>
  <circle cx="891.66" cy="298.43" r="2.5" fill="#2563eb"/>
  <circle cx="893.07" cy="298.43" r="2.5" fill="#2563eb"/>
  <circle cx="894.47" cy="298.39" r="2.5" fill="#2563eb"/>
  <circle cx="895.87" cy="298.39" r="2.5" fill="#2563eb"/>
  <circle cx="897.27" cy="298.39" r="2.5" fill="#2563eb"/>
  <circle cx="898.67" cy="298.43" r="2.5" fill="#2563eb"/>
  <circle cx="900.08" cy="298.43" r="2.5" fill="#2563eb"/>
  <circle cx="901.48" cy="298.43" r="2.5" fill="#2563eb"/>
  <circle cx="902.88" cy="246.82" r="2.5" fill="#2563eb"/>
  <circle cx="904.28" cy="298.43" r="2.5" fill="#2563eb"/>
  <circle cx="905.69" cy="246.78" r="2.5" fill="#2563eb"/>
  <circle cx="907.09" cy="246.78" r="2.5" fill="#2563eb"/>
  <circle cx="908.49" cy="246.78" r="2.5" fill="#2563eb"/>
  <circle cx="909.89" cy="246.70" r="2.5" fill="#2563eb"/>
  <circle cx="911.29" cy="246.78" r="2.5" fill="#2563eb"/>
  <circle cx="912.70" cy="298.39" r="2.5" fill="#2563eb"/>
  <circle cx="914.10" cy="298.39" r="2.5" fill="#2563eb"/>
  <circle cx="915.50" cy="298.39" r="2.5" fill="#2563eb"/>
  <circle cx="916.90" cy="298.39" r="2.5" fill="#2563eb"/>
  <circle cx="918.31" cy="298.39" r="2.5" fill="#2563eb"/>
  <circle cx="919.71" cy="246.78" r="2.5" fill="#2563eb"/>
  <circle cx="921.11" cy="298.39" r="2.5" fill="#2563eb"/>
  <circle cx="922.51" cy="298.39" r="2.5" fill="#2563eb"/>
  <circle cx="923.91" cy="298.39" r="2.5" fill="#2563eb"/>
  <circle cx="925.32" cy="298.39" r="2.5" fill="#2563eb"/>
  <circle cx="926.72" cy="298.39" r="2.5" fill="#2563eb"/>
  <circle cx="928.12" cy="246.78" r="2.5" fill="#2563eb"/>
  <circle cx="929.52" cy="246.78" r="2.5" fill="#2563eb"/>
  <circle cx="930.92" cy="298.39" r="2.5" fill="#2563eb"/>
  <circle cx="932.33" cy="298.39" r="2.5" fill="#2563eb"/>
  <circle cx="933.73" cy="298.39" r="2.5" fill="#2563eb"/>
  <circle cx="935.13" cy="298.39" r="2.5" fill="#2563eb"/>
  <circle cx="936.53" cy="298.39" r="2.5" fill="#2563eb"/>
  <circle cx="937.94" cy="298.39" r="2.5" fill="#2563eb"/>
  <circle cx="939.34" cy="298.39" r="2.5" fill="#2563eb"/>
  <circle cx="940.74" cy="298.39" r="2.5" fill="#2563eb"/>
  <circle cx="942.14" cy="298.39" r="2.5" fill="#2563eb"/>
  <circle cx="943.54" cy="298.39" r="2.5" fill="#2563eb"/>
  <circle cx="944.95" cy="298.39" r="2.5" fill="#2563eb"/>
  <circle cx="946.35" cy="298.39" r="2.5" fill="#2563eb"/>
  <circle cx="947.75" cy="298.39" r="2.5" fill="#2563eb"/>
  <circle cx="949.15" cy="298.39" r="2.5" fill="#2563eb"/>
  <circle cx="950.55" cy="298.35" r="2.5" fill="#2563eb"/>
  <circle cx="951.96" cy="298.39" r="2.5" fill="#2563eb"/>
  <circle cx="953.36" cy="298.39" r="2.5" fill="#2563eb"/>
  <circle cx="954.76" cy="298.35" r="2.5" fill="#2563eb"/>
  <circle cx="956.16" cy="298.35" r="2.5" fill="#2563eb"/>
  <circle cx="957.57" cy="298.35" r="2.5" fill="#2563eb"/>
  <circle cx="958.97" cy="298.35" r="2.5" fill="#2563eb"/>
  <circle cx="960.37" cy="298.35" r="2.5" fill="#2563eb"/>
  <circle cx="961.77" cy="298.35" r="2.5" fill="#2563eb"/>
  <circle cx="963.17" cy="298.35" r="2.5" fill="#2563eb"/>
  <circle cx="964.58" cy="298.35" r="2.5" fill="#2563eb"/>
  <circle cx="965.98" cy="298.35" r="2.5" fill="#2563eb"/>
  <circle cx="967.38" cy="298.35" r="2.5" fill="#2563eb"/>
  <circle cx="968.78" cy="298.35" r="2.5" fill="#2563eb"/>
  <circle cx="970.18" cy="298.35" r="2.5" fill="#2563eb"/>
  <circle cx="971.59" cy="298.35" r="2.5" fill="#2563eb"/>
  <circle cx="972.99" cy="298.35" r="2.5" fill="#2563eb"/>
  <circle cx="974.39" cy="298.35" r="2.5" fill="#2563eb"/>
  <circle cx="975.79" cy="298.35" r="2.5" fill="#2563eb"/>
  <circle cx="977.20" cy="298.35" r="2.5" fill="#2563eb"/>
  <circle cx="978.60" cy="298.35" r="2.5" fill="#2563eb"/>
  <circle cx="980.00" cy="298.35" r="2.5" fill="#2563eb"/>
</svg>
