<?xml version="1.0" encoding="UTF-8"?>
<svg xmlns="http://www.w3.org/2000/svg" width="1000" height="420" viewBox="0 0 1000 420">
  <rect width="100%" height="100%" fill="#ffffff"/>
  <text x="70" y="28" font-size="20" font-weight="600">수집 시점 기준 - 시간별 스냅샷</text>
  <text x="70" y="402" font-size="12" fill="#555">스냅샷 수</text>
  <line x1="70" y1="350.00" x2="980" y2="350.00" stroke="#e5e7eb" stroke-width="1"/>
  <text x="62" y="354.00" font-size="11" fill="#6b7280" text-anchor="end">0</text>
  <line x1="70" y1="290.00" x2="980" y2="290.00" stroke="#e5e7eb" stroke-width="1"/>
  <text x="62" y="294.00" font-size="11" fill="#6b7280" text-anchor="end">1,440</text>
  <line x1="70" y1="230.00" x2="980" y2="230.00" stroke="#e5e7eb" stroke-width="1"/>
  <text x="62" y="234.00" font-size="11" fill="#6b7280" text-anchor="end">2,880</text>
  <line x1="70" y1="170.00" x2="980" y2="170.00" stroke="#e5e7eb" stroke-width="1"/>
  <text x="62" y="174.00" font-size="11" fill="#6b7280" text-anchor="end">4,321</text>
  <line x1="70" y1="110.00" x2="980" y2="110.00" stroke="#e5e7eb" stroke-width="1"/>
  <text x="62" y="114.00" font-size="11" fill="#6b7280" text-anchor="end">5,761</text>
  <line x1="70" y1="50.00" x2="980" y2="50.00" stroke="#e5e7eb" stroke-width="1"/>
  <text x="62" y="54.00" font-size="11" fill="#6b7280" text-anchor="end">7,202</text>
  <line x1="70" y1="350" x2="980" y2="350" stroke="#111827" stroke-width="1.2"/>
  <line x1="70" y1="50" x2="70" y2="350" stroke="#111827" stroke-width="1.2"/>
  <line x1="70.00" y1="350" x2="70.00" y2="356" stroke="#9ca3af" stroke-width="1"/>
  <text x="70.00" y="372" font-size="10" fill="#6b7280" text-anchor="middle">2026-02-28 18</text>
  <line x1="145.83" y1="350" x2="145.83" y2="356" stroke="#9ca3af" stroke-width="1"/>
  <text x="145.83" y="372" font-size="10" fill="#6b7280" text-anchor="middle">2026-03-10 00</text>
  <line x1="221.67" y1="350" x2="221.67" y2="356" stroke="#9ca3af" stroke-width="1"/>
  <text x="221.67" y="372" font-size="10" fill="#6b7280" text-anchor="middle">2026-03-13 01</text>
  <line x1="297.50" y1="350" x2="297.50" y2="356" stroke="#9ca3af" stroke-width="1"/>
  <text x="297.50" y="372" font-size="10" fill="#6b7280" text-anchor="middle">2026-03-16 18</text>
  <line x1="373.33" y1="350" x2="373.33" y2="356" stroke="#9ca3af" stroke-width="1"/>
  <text x="373.33" y="372" font-size="10" fill="#6b7280" text-anchor="middle">2026-03-21 02</text>
  <line x1="449.17" y1="350" x2="449.17" y2="356" stroke="#9ca3af" stroke-width="1"/>
  <text x="449.17" y="372" font-size="10" fill="#6b7280" text-anchor="middle">2026-03-25 04</text>
  <line x1="525.00" y1="350" x2="525.00" y2="356" stroke="#9ca3af" stroke-width="1"/>
  <text x="525.00" y="372" font-size="10" fill="#6b7280" text-anchor="middle">2026-03-29 18</text>
  <line x1="600.83" y1="350" x2="600.83" y2="356" stroke="#9ca3af" stroke-width="1"/>
  <text x="600.83" y="372" font-size="10" fill="#6b7280" text-anchor="middle">2026-04-03 08</text>
  <line x1="676.67" y1="350" x2="676.67" y2="356" stroke="#9ca3af" stroke-width="1"/>
  <text x="676.67" y="372" font-size="10" fill="#6b7280" text-anchor="middle">2026-04-07 21</text>
  <line x1="752.50" y1="350" x2="752.50" y2="356" stroke="#9ca3af" stroke-width="1"/>
  <text x="752.50" y="372" font-size="10" fill="#6b7280" text-anchor="middle">2026-04-12 16</text>
  <line x1="828.33" y1="350" x2="828.33" y2="356" stroke="#9ca3af" stroke-width="1"/>
  <text x="828.33" y="372" font-size="10" fill="#6b7280" text-anchor="middle">2026-04-17 18</text>
  <line x1="904.17" y1="350" x2="904.17" y2="356" stroke="#9ca3af" stroke-width="1"/>
  <text x="904.17" y="372" font-size="10" fill="#6b7280" text-anchor="middle">2026-04-22 07</text>
  <line x1="980.00" y1="350" x2="980.00" y2="356" stroke="#9ca3af" stroke-width="1"/>
  <text x="980.00" y="372" font-size="10" fill="#6b7280" text-anchor="middle">2026-04-27 00</text>
  <polyline fill="none" stroke="#2563eb" stroke-width="2.5" points="70.00,50.00 71.13,50.12 72.26,50.17 73.40,50.46 74.53,50.00 75.66,266.90 76.79,50.12 77.92,50.08 79.05,177.46 80.19,211.58 81.32,175.34 82.45,304.14 83.58,200.46 84.71,250.94 85.85,300.01 86.98,300.06 88.11,300.01 89.24,300.01 90.37,348.00 91.50,300.01 92.64,249.99 93.77,200.00 94.90,249.99 96.03,249.99 97.16,250.03 98.30,250.03 99.43,250.03 100.56,250.40 101.69,250.90 102.82,250.90 103.96,251.32 105.09,249.94 106.22,300.01 107.35,299.93 108.48,251.03 109.61,300.68 110.75,250.03 111.88,200.00 113.01,249.99 114.14,250.03 115.27,250.03 116.41,250.03 117.54,300.01 118.67,200.04 119.80,250.03 120.93,250.03 122.06,250.03 123.20,249.90 124.33,250.03 125.46,250.03 126.59,250.94 127.72,250.44 128.86,250.03 129.99,250.03 131.12,300.47 132.25,300.01 133.38,300.43 134.51,250.03 135.65,249.99 136.78,300.43 137.91,249.90 139.04,249.99 140.17,249.99 141.31,200.04 142.44,300.01 143.57,300.01 144.70,300.01 145.83,249.90 146.97,300.01 148.10,250.03 149.23,249.99 150.36,199.96 151.49,300.01 152.62,200.00 153.76,250.36 154.89,250.03 156.02,300.01 157.15,300.01 158.28,250.44 159.42,300.01 160.55,250.03 161.68,250.03 162.81,249.99 163.94,250.49 165.07,250.03 166.21,200.04 167.34,300.01 168.47,250.03 169.60,300.01 170.73,250.11 171.87,300.01 173.00,250.03 174.13,250.03 175.26,199.92 176.39,250.03 177.52,250.03 178.66,250.03 179.79,254.36 180.92,300.01 182.05,299.97 183.18,250.36 184.32,299.97 185.45,250.03 186.58,250.03 187.71,250.03 188.84,250.03 189.98,249.99 191.11,200.00 192.24,299.93 193.37,300.01 194.50,299.97 195.63,249.94 196.77,249.99 197.90,249.82 199.03,249.94 200.16,250.28 201.29,207.00 202.43,250.03 203.56,250.32 204.69,250.40 205.82,300.93 206.95,300.01 208.08,300.10 209.22,249.94 210.35,249.99 211.48,250.07 212.61,249.99 213.74,250.03 214.88,249.94 216.01,200.00 217.14,300.39 218.27,300.01 219.40,300.01 220.53,250.44 221.67,300.39 222.80,249.86 223.93,250.11 225.06,201.46 226.19,300.01 227.33,200.83 228.46,250.03 229.59,249.99 230.72,300.26 231.85,300.01 232.99,300.01 234.12,250.03 235.25,250.03 236.38,250.03 237.51,250.03 238.64,249.99 239.78,250.03 240.91,200.00 242.04,300.26 243.17,249.99 244.30,300.01 245.44,249.94 246.57,250.03 247.70,250.03 248.83,250.03 249.96,200.04 251.09,300.01 252.23,249.90 253.36,300.01 254.49,300.01 255.62,300.06 256.75,300.01 257.89,300.01 259.02,243.95 260.15,249.94 261.28,299.97 262.41,300.01 263.54,300.01 264.68,250.03 265.81,300.01 266.94,300.01 268.07,299.97 269.20,249.99 270.34,300.01 271.47,299.93 272.60,300.01 273.73,299.93 274.86,300.01 276.00,300.01 277.13,299.89 278.26,299.97 279.39,250.03 280.52,299.93 281.65,299.89 282.79,299.97 283.92,249.94 285.05,300.01 286.18,300.01 287.31,299.97 288.45,249.99 289.58,299.97 290.71,299.97 291.84,300.06 292.97,300.06 294.10,299.93 295.24,300.01 296.37,300.01 297.50,299.93 298.63,300.01 299.76,300.01 300.90,299.97 302.03,300.01 303.16,300.01 304.29,300.01 305.42,300.01 306.55,249.86 307.69,300.01 308.82,300.10 309.95,299.93 311.08,300.01 312.21,299.93 313.35,300.01 314.48,300.01 315.61,300.01 316.74,300.01 317.87,300.01 319.00,299.97 320.14,300.01 321.27,300.01 322.40,300.01 323.53,300.01 324.66,250.03 325.80,300.01 326.93,300.01 328.06,299.97 329.19,300.01 330.32,300.01 331.46,299.97 332.59,299.97 333.72,300.01 334.85,299.97 335.98,300.01 337.11,299.93 338.25,300.01 339.38,250.03 340.51,300.01 341.64,300.01 342.77,300.01 343.91,300.01 345.04,300.01 346.17,299.89 347.30,300.01 348.43,300.01 349.56,250.07 350.70,300.01 351.83,299.93 352.96,300.01 354.09,299.97 355.22,299.97 356.36,299.97 357.49,250.03 358.62,300.01 359.75,300.01 360.88,300.01 362.01,300.01 363.15,299.97 364.28,300.01 365.41,299.97 366.54,300.01 367.67,299.97 368.81,249.90 369.94,300.01 371.07,300.01 372.20,299.89 373.33,299.97 374.47,299.97 375.60,249.99 376.73,299.97 377.86,299.89 378.99,300.01 380.12,299.97 381.26,299.97 382.39,300.01 383.52,299.97 384.65,249.99 385.78,299.97 386.92,299.97 388.05,300.06 389.18,300.06 390.31,249.94 391.44,300.01 392.57,299.93 393.71,300.01 394.84,300.01 395.97,249.99 397.10,300.01 398.23,300.01 399.37,300.01 400.50,299.93 401.63,299.93 402.76,300.01 403.89,300.01 405.02,249.94 406.16,299.97 407.29,299.97 408.42,300.01 409.55,300.01 410.68,300.01 411.82,249.99 412.95,300.01 414.08,300.01 415.21,300.01 416.34,250.03 417.48,300.01 418.61,300.01 419.74,300.01 420.87,299.97 422.00,300.01 423.13,300.01 424.27,299.97 425.40,299.97 426.53,300.01 427.66,300.01 428.79,299.97 429.93,299.93 431.06,300.01 432.19,300.06 433.32,299.97 434.45,300.01 435.58,250.03 436.72,250.03 437.85,299.93 438.98,299.97 440.11,300.01 441.24,300.01 442.38,300.06 443.51,300.01 444.64,299.93 445.77,300.01 446.90,300.01 448.03,299.97 449.17,299.97 450.30,300.01 451.43,250.03 452.56,300.01 453.69,300.01 454.83,300.01 455.96,299.97 457.09,300.01 458.22,299.97 459.35,300.01 460.49,299.97 461.62,299.97 462.75,299.93 463.88,300.01 465.01,300.01 466.14,299.89 467.28,299.97 468.41,299.97 469.54,300.06 470.67,249.90 471.80,299.89 472.94,300.01 474.07,299.97 475.20,299.97 476.33,299.97 477.46,300.01 478.59,300.01 479.73,299.97 480.86,299.97 481.99,299.97 483.12,250.03 484.25,299.93 485.39,300.01 486.52,300.01 487.65,299.93 488.78,300.01 489.91,300.01 491.04,299.97 492.18,300.01 493.31,300.01 494.44,300.06 495.57,300.01 496.70,299.97 497.84,299.89 498.97,300.01 500.10,300.01 501.23,249.94 502.36,249.94 503.50,300.01 504.63,300.01 505.76,300.01 506.89,300.01 508.02,299.97 509.15,250.03 510.29,300.01 511.42,300.01 512.55,300.01 513.68,300.01 514.81,250.03 515.95,249.99 517.08,300.01 518.21,299.97 519.34,300.01 520.47,299.97 521.60,300.01 522.74,299.97 523.87,299.97 525.00,299.97 526.13,300.06 527.26,249.99 528.40,300.01 529.53,250.03 530.66,249.94 531.79,249.99 532.92,300.01 534.05,300.06 535.19,300.01 536.32,299.97 537.45,299.97 538.58,300.01 539.71,299.93 540.85,299.89 541.98,299.89 543.11,299.89 544.24,299.89 545.37,299.85 546.50,299.85 547.64,299.89 548.77,299.81 549.90,299.81 551.03,299.81 552.16,299.76 553.30,299.76 554.43,299.76 555.56,299.72 556.69,299.68 557.82,299.60 558.96,299.60 560.09,299.60 561.22,299.56 562.35,299.47 563.48,299.43 564.61,299.43 565.75,299.39 566.88,299.47 568.01,259.82 569.14,338.96 570.27,299.31 571.41,299.31 572.54,299.26 573.67,299.68 574.80,299.68 575.93,299.68 577.06,299.64 578.20,299.14 579.33,299.14 580.46,299.10 581.59,299.10 582.72,299.10 583.86,248.07 584.99,299.06 586.12,299.06 587.25,299.06 588.38,299.06 589.51,299.06 590.65,298.97 591.78,298.97 592.91,298.93 594.04,298.97 595.17,298.93 596.31,298.89 597.44,298.89 598.57,298.89 599.70,298.89 600.83,247.78 601.97,298.89 603.10,298.89 604.23,298.85 605.36,298.85 606.49,298.81 607.62,298.81 608.76,298.81 609.89,298.81 611.02,298.81 612.15,298.81 613.28,298.81 614.42,298.81 615.55,298.81 616.68,298.72 617.81,247.45 618.94,247.45 620.07,298.72 621.21,298.72 622.34,298.72 623.47,298.72 624.60,298.72 625.73,298.72 626.87,247.36 628.00,298.68 629.13,247.36 630.26,247.36 631.39,247.36 632.52,298.68 633.66,298.68 634.79,298.68 635.92,298.68 637.05,298.68 638.18,341.67 639.32,307.01 640.45,298.68 641.58,298.68 642.71,298.68 643.84,247.36 644.98,298.64 646.11,247.36 647.24,247.28 648.37,247.20 649.50,298.60 650.63,298.60 651.77,247.03 652.90,298.51 654.03,298.51 655.16,298.51 656.29,298.51 657.43,298.51 658.56,298.51 659.69,298.51 660.82,298.51 661.95,298.51 663.08,298.51 664.22,298.51 665.35,298.51 666.48,298.51 667.61,298.51 668.74,298.51 669.88,298.51 671.01,298.51 672.14,298.51 673.27,298.51 674.40,298.51 675.53,298.51 676.67,298.51 677.80,298.51 678.93,298.51 680.06,298.51 681.19,298.51 682.33,298.47 683.46,298.51 684.59,298.51 685.72,298.47 686.85,298.51 687.99,298.47 689.12,298.51 690.25,298.43 691.38,298.56 692.51,298.43 693.64,298.43 694.78,298.43 695.91,298.43 697.04,298.43 698.17,298.43 699.30,298.43 700.44,298.43 701.57,298.43 702.70,298.43 703.83,298.43 704.96,298.43 706.09,298.43 707.23,298.43 708.36,298.43 709.49,298.43 710.62,298.43 711.75,298.43 712.89,298.43 714.02,298.43 715.15,298.43 716.28,298.43 717.41,298.43 718.54,298.43 719.68,298.43 720.81,298.43 721.94,298.43 723.07,298.43 724.20,298.43 725.34,298.43 726.47,298.43 727.60,298.43 728.73,298.43 729.86,298.43 731.00,298.39 732.13,298.39 733.26,298.43 734.39,298.43 735.52,298.39 736.65,298.39 737.79,298.39 738.92,298.43 740.05,298.43 741.18,298.43 742.31,246.82 743.45,298.43 744.58,246.78 745.71,246.78 746.84,246.78 747.97,246.70 749.10,246.78 750.24,298.39 751.37,298.39 752.50,298.39 753.63,298.39 754.76,298.39 755.90,246.78 757.03,298.39 758.16,298.39 759.29,298.39 760.42,298.39 761.55,298.39 762.69,246.78 763.82,246.78 764.95,298.39 766.08,298.39 767.21,298.39 768.35,298.39 769.48,298.39 770.61,298.39 771.74,298.39 772.87,298.39 774.00,298.39 775.14,298.39 776.27,298.39 777.40,298.39 778.53,298.39 779.66,298.39 780.80,298.35 781.93,298.39 783.06,298.39 784.19,298.35 785.32,298.35 786.46,298.35 787.59,298.35 788.72,298.35 789.85,298.35 790.98,298.35 792.11,298.35 793.25,298.35 794.38,298.35 795.51,298.35 796.64,298.35 797.77,298.35 798.91,298.35 800.04,298.35 801.17,298.35 802.30,298.35 803.43,298.35 804.56,298.35 805.70,298.35 806.83,298.35 807.96,298.35 809.09,298.35 810.22,298.35 811.36,298.35 812.49,298.35 813.62,298.35 814.75,298.35 815.88,298.35 817.01,298.35 818.15,298.35 819.28,298.35 820.41,298.35 821.54,298.35 822.67,298.35 823.81,298.35 824.94,298.35 826.07,298.35 827.20,298.35 828.33,298.35 829.47,298.35 830.60,298.35 831.73,298.35 832.86,298.35 833.99,298.35 835.12,298.35 836.26,298.35 837.39,298.35 838.52,298.35 839.65,298.35 840.78,298.35 841.92,298.35 843.05,298.39 844.18,298.39 845.31,298.39 846.44,246.78 847.57,298.39 848.71,298.39 849.84,298.39 850.97,298.39 852.10,298.39 853.23,298.39 854.37,298.39 855.50,246.78 856.63,298.39 857.76,298.39 858.89,298.39 860.02,298.39 861.16,298.39 862.29,298.39 863.42,298.39 864.55,246.78 865.68,298.39 866.82,298.39 867.95,298.39 869.08,298.39 870.21,298.39 871.34,298.39 872.48,298.39 873.61,298.39 874.74,298.39 875.87,298.39 877.00,298.39 878.13,298.35 879.27,298.39 880.40,298.39 881.53,298.39 882.66,298.35 883.79,298.35 884.93,298.35 886.06,298.35 887.19,298.35 888.32,298.35 889.45,298.35 890.58,298.35 891.72,298.35 892.85,298.35 893.98,298.35 895.11,298.35 896.24,298.35 897.38,298.35 898.51,298.35 899.64,298.35 900.77,298.39 901.90,298.39 903.03,298.39 904.17,298.39 905.30,298.39 906.43,298.39 907.56,298.35 908.69,298.39 909.83,298.39 910.96,298.39 912.09,298.39 913.22,298.39 914.35,298.39 915.49,298.39 916.62,298.39 917.75,298.39 918.88,298.35 920.01,298.39 921.14,298.39 922.28,298.39 923.41,298.39 924.54,298.39 925.67,298.39 926.80,298.39 927.94,298.39 929.07,298.39 930.20,298.39 931.33,298.39 932.46,298.39 933.59,298.39 934.73,298.39 935.86,298.39 936.99,298.39 938.12,298.35 939.25,298.35 940.39,298.39 941.52,298.39 942.65,298.39 943.78,298.39 944.91,298.39 946.04,298.39 947.18,298.39 948.31,298.39 949.44,298.39 950.57,298.39 951.70,298.35 952.84,298.35 953.97,298.39 955.10,298.39 956.23,298.39 957.36,298.39 958.50,298.39 959.63,298.39 960.76,298.39 961.89,298.39 963.02,298.39 964.15,298.39 965.29,298.39 966.42,298.39 967.55,298.39 968.68,298.39 969.81,298.35 970.95,298.39 972.08,298.39 973.21,298.39 974.34,298.39 975.47,298.39 976.60,298.39 977.74,298.39 978.87,298.39 980.00,298.35"/>
  <circle cx="70.00" cy="50.00" r="2.5" fill="#2563eb"/>
  <circle cx="71.13" cy="50.12" r="2.5" fill="#2563eb"/>
  <circle cx="72.26" cy="50.17" r="2.5" fill="#2563eb"/>
  <circle cx="73.40" cy="50.46" r="2.5" fill="#2563eb"/>
  <circle cx="74.53" cy="50.00" r="2.5" fill="#2563eb"/>
  <circle cx="75.66" cy="266.90" r="2.5" fill="#2563eb"/>
  <circle cx="76.79" cy="50.12" r="2.5" fill="#2563eb"/>
  <circle cx="77.92" cy="50.08" r="2.5" fill="#2563eb"/>
  <circle cx="79.05" cy="177.46" r="2.5" fill="#2563eb"/>
  <circle cx="80.19" cy="211.58" r="2.5" fill="#2563eb"/>
  <circle cx="81.32" cy="175.34" r="2.5" fill="#2563eb"/>
  <circle cx="82.45" cy="304.14" r="2.5" fill="#2563eb"/>
  <circle cx="83.58" cy="200.46" r="2.5" fill="#2563eb"/>
  <circle cx="84.71" cy="250.94" r="2.5" fill="#2563eb"/>
  <circle cx="85.85" cy="300.01" r="2.5" fill="#2563eb"/>
  <circle cx="86.98" cy="300.06" r="2.5" fill="#2563eb"/>
  <circle cx="88.11" cy="300.01" r="2.5" fill="#2563eb"/>
  <circle cx="89.24" cy="300.01" r="2.5" fill="#2563eb"/>
  <circle cx="90.37" cy="348.00" r="2.5" fill="#2563eb"/>
  <circle cx="91.50" cy="300.01" r="2.5" fill="#2563eb"/>
  <circle cx="92.64" cy="249.99" r="2.5" fill="#2563eb"/>
  <circle cx="93.77" cy="200.00" r="2.5" fill="#2563eb"/>
  <circle cx="94.90" cy="249.99" r="2.5" fill="#2563eb"/>
  <circle cx="96.03" cy="249.99" r="2.5" fill="#2563eb"/>
  <circle cx="97.16" cy="250.03" r="2.5" fill="#2563eb"/>
  <circle cx="98.30" cy="250.03" r="2.5" fill="#2563eb"/>
  <circle cx="99.43" cy="250.03" r="2.5" fill="#2563eb"/>
  <circle cx="100.56" cy="250.40" r="2.5" fill="#2563eb"/>
  <circle cx="101.69" cy="250.90" r="2.5" fill="#2563eb"/>
  <circle cx="102.82" cy="250.90" r="2.5" fill="#2563eb"/>
  <circle cx="103.96" cy="251.32" r="2.5" fill="#2563eb"/>
  <circle cx="105.09" cy="249.94" r="2.5" fill="#2563eb"/>
  <circle cx="106.22" cy="300.01" r="2.5" fill="#2563eb"/>
  <circle cx="107.35" cy="299.93" r="2.5" fill="#2563eb"/>
  <circle cx="108.48" cy="251.03" r="2.5" fill="#2563eb"/>
  <circle cx="109.61" cy="300.68" r="2.5" fill="#2563eb"/>
  <circle cx="110.75" cy="250.03" r="2.5" fill="#2563eb"/>
  <circle cx="111.88" cy="200.00" r="2.5" fill="#2563eb"/>
  <circle cx="113.01" cy="249.99" r="2.5" fill="#2563eb"/>
  <circle cx="114.14" cy="250.03" r="2.5" fill="#2563eb"/>
  <circle cx="115.27" cy="250.03" r="2.5" fill="#2563eb"/>
  <circle cx="116.41" cy="250.03" r="2.5" fill="#2563eb"/>
  <circle cx="117.54" cy="300.01" r="2.5" fill="#2563eb"/>
  <circle cx="118.67" cy="200.04" r="2.5" fill="#2563eb"/>
  <circle cx="119.80" cy="250.03" r="2.5" fill="#2563eb"/>
  <circle cx="120.93" cy="250.03" r="2.5" fill="#2563eb"/>
  <circle cx="122.06" cy="250.03" r="2.5" fill="#2563eb"/>
  <circle cx="123.20" cy="249.90" r="2.5" fill="#2563eb"/>
  <circle cx="124.33" cy="250.03" r="2.5" fill="#2563eb"/>
  <circle cx="125.46" cy="250.03" r="2.5" fill="#2563eb"/>
  <circle cx="126.59" cy="250.94" r="2.5" fill="#2563eb"/>
  <circle cx="127.72" cy="250.44" r="2.5" fill="#2563eb"/>
  <circle cx="128.86" cy="250.03" r="2.5" fill="#2563eb"/>
  <circle cx="129.99" cy="250.03" r="2.5" fill="#2563eb"/>
  <circle cx="131.12" cy="300.47" r="2.5" fill="#2563eb"/>
  <circle cx="132.25" cy="300.01" r="2.5" fill="#2563eb"/>
  <circle cx="133.38" cy="300.43" r="2.5" fill="#2563eb"/>
  <circle cx="134.51" cy="250.03" r="2.5" fill="#2563eb"/>
  <circle cx="135.65" cy="249.99" r="2.5" fill="#2563eb"/>
  <circle cx="136.78" cy="300.43" r="2.5" fill="#2563eb"/>
  <circle cx="137.91" cy="249.90" r="2.5" fill="#2563eb"/>
  <circle cx="139.04" cy="249.99" r="2.5" fill="#2563eb"/>
  <circle cx="140.17" cy="249.99" r="2.5" fill="#2563eb"/>
  <circle cx="141.31" cy="200.04" r="2.5" fill="#2563eb"/>
  <circle cx="142.44" cy="300.01" r="2.5" fill="#2563eb"/>
  <circle cx="143.57" cy="300.01" r="2.5" fill="#2563eb"/>
  <circle cx="144.70" cy="300.01" r="2.5" fill="#2563eb"/>
  <circle cx="145.83" cy="249.90" r="2.5" fill="#2563eb"/>
  <circle cx="146.97" cy="300.01" r="2.5" fill="#2563eb"/>
  <circle cx="148.10" cy="250.03" r="2.5" fill="#2563eb"/>
  <circle cx="149.23" cy="249.99" r="2.5" fill="#2563eb"/>
  <circle cx="150.36" cy="199.96" r="2.5" fill="#2563eb"/>
  <circle cx="151.49" cy="300.01" r="2.5" fill="#2563eb"/>
  <circle cx="152.62" cy="200.00" r="2.5" fill="#2563eb"/>
  <circle cx="153.76" cy="250.36" r="2.5" fill="#2563eb"/>
  <circle cx="154.89" cy="250.03" r="2.5" fill="#2563eb"/>
  <circle cx="156.02" cy="300.01" r="2.5" fill="#2563eb"/>
  <circle cx="157.15" cy="300.01" r="2.5" fill="#2563eb"/>
  <circle cx="158.28" cy="250.44" r="2.5" fill="#2563eb"/>
  <circle cx="159.42" cy="300.01" r="2.5" fill="#2563eb"/>
  <circle cx="160.55" cy="250.03" r="2.5" fill="#2563eb"/>
  <circle cx="161.68" cy="250.03" r="2.5" fill="#2563eb"/>
  <circle cx="162.81" cy="249.99" r="2.5" fill="#2563eb"/>
  <circle cx="163.94" cy="250.49" r="2.5" fill="#2563eb"/>
  <circle cx="165.07" cy="250.03" r="2.5" fill="#2563eb"/>
  <circle cx="166.21" cy="200.04" r="2.5" fill="#2563eb"/>
  <circle cx="167.34" cy="300.01" r="2.5" fill="#2563eb"/>
  <circle cx="168.47" cy="250.03" r="2.5" fill="#2563eb"/>
  <circle cx="169.60" cy="300.01" r="2.5" fill="#2563eb"/>
  <circle cx="170.73" cy="250.11" r="2.5" fill="#2563eb"/>
  <circle cx="171.87" cy="300.01" r="2.5" fill="#2563eb"/>
  <circle cx="173.00" cy="250.03" r="2.5" fill="#2563eb"/>
  <circle cx="174.13" cy="250.03" r="2.5" fill="#2563eb"/>
  <circle cx="175.26" cy="199.92" r="2.5" fill="#2563eb"/>
  <circle cx="176.39" cy="250.03" r="2.5" fill="#2563eb"/>
  <circle cx="177.52" cy="250.03" r="2.5" fill="#2563eb"/>
  <circle cx="178.66" cy="250.03" r="2.5" fill="#2563eb"/>
  <circle cx="179.79" cy="254.36" r="2.5" fill="#2563eb"/>
  <circle cx="180.92" cy="300.01" r="2.5" fill="#2563eb"/>
  <circle cx="182.05" cy="299.97" r="2.5" fill="#2563eb"/>
  <circle cx="183.18" cy="250.36" r="2.5" fill="#2563eb"/>
  <circle cx="184.32" cy="299.97" r="2.5" fill="#2563eb"/>
  <circle cx="185.45" cy="250.03" r="2.5" fill="#2563eb"/>
  <circle cx="186.58" cy="250.03" r="2.5" fill="#2563eb"/>
  <circle cx="187.71" cy="250.03" r="2.5" fill="#2563eb"/>
  <circle cx="188.84" cy="250.03" r="2.5" fill="#2563eb"/>
  <circle cx="189.98" cy="249.99" r="2.5" fill="#2563eb"/>
  <circle cx="191.11" cy="200.00" r="2.5" fill="#2563eb"/>
  <circle cx="192.24" cy="299.93" r="2.5" fill="#2563eb"/>
  <circle cx="193.37" cy="300.01" r="2.5" fill="#2563eb"/>
  <circle cx="194.50" cy="299.97" r="2.5" fill="#2563eb"/>
  <circle cx="195.63" cy="249.94" r="2.5" fill="#2563eb"/>
  <circle cx="196.77" cy="249.99" r="2.5" fill="#2563eb"/>
  <circle cx="197.90" cy="249.82" r="2.5" fill="#2563eb"/>
  <circle cx="199.03" cy="249.94" r="2.5" fill="#2563eb"/>
  <circle cx="200.16" cy="250.28" r="2.5" fill="#2563eb"/>
  <circle cx="201.29" cy="207.00" r="2.5" fill="#2563eb"/>
  <circle cx="202.43" cy="250.03" r="2.5" fill="#2563eb"/>
  <circle cx="203.56" cy="250.32" r="2.5" fill="#2563eb"/>
  <circle cx="204.69" cy="250.40" r="2.5" fill="#2563eb"/>
  <circle cx="205.82" cy="300.93" r="2.5" fill="#2563eb"/>
  <circle cx="206.95" cy="300.01" r="2.5" fill="#2563eb"/>
  <circle cx="208.08" cy="300.10" r="2.5" fill="#2563eb"/>
  <circle cx="209.22" cy="249.94" r="2.5" fill="#2563eb"/>
  <circle cx="210.35" cy="249.99" r="2.5" fill="#2563eb"/>
  <circle cx="211.48" cy="250.07" r="2.5" fill="#2563eb"/>
  <circle cx="212.61" cy="249.99" r="2.5" fill="#2563eb"/>
  <circle cx="213.74" cy="250.03" r="2.5" fill="#2563eb"/>
  <circle cx="214.88" cy="249.94" r="2.5" fill="#2563eb"/>
  <circle cx="216.01" cy="200.00" r="2.5" fill="#2563eb"/>
  <circle cx="217.14" cy="300.39" r="2.5" fill="#2563eb"/>
  <circle cx="218.27" cy="300.01" r="2.5" fill="#2563eb"/>
  <circle cx="219.40" cy="300.01" r="2.5" fill="#2563eb"/>
  <circle cx="220.53" cy="250.44" r="2.5" fill="#2563eb"/>
  <circle cx="221.67" cy="300.39" r="2.5" fill="#2563eb"/>
  <circle cx="222.80" cy="249.86" r="2.5" fill="#2563eb"/>
  <circle cx="223.93" cy="250.11" r="2.5" fill="#2563eb"/>
  <circle cx="225.06" cy="201.46" r="2.5" fill="#2563eb"/>
  <circle cx="226.19" cy="300.01" r="2.5" fill="#2563eb"/>
  <circle cx="227.33" cy="200.83" r="2.5" fill="#2563eb"/>
  <circle cx="228.46" cy="250.03" r="2.5" fill="#2563eb"/>
  <circle cx="229.59" cy="249.99" r="2.5" fill="#2563eb"/>
  <circle cx="230.72" cy="300.26" r="2.5" fill="#2563eb"/>
  <circle cx="231.85" cy="300.01" r="2.5" fill="#2563eb"/>
  <circle cx="232.99" cy="300.01" r="2.5" fill="#2563eb"/>
  <circle cx="234.12" cy="250.03" r="2.5" fill="#2563eb"/>
  <circle cx="235.25" cy="250.03" r="2.5" fill="#2563eb"/>
  <circle cx="236.38" cy="250.03" r="2.5" fill="#2563eb"/>
  <circle cx="237.51" cy="250.03" r="2.5" fill="#2563eb"/>
  <circle cx="238.64" cy="249.99" r="2.5" fill="#2563eb"/>
  <circle cx="239.78" cy="250.03" r="2.5" fill="#2563eb"/>
  <circle cx="240.91" cy="200.00" r="2.5" fill="#2563eb"/>
  <circle cx="242.04" cy="300.26" r="2.5" fill="#2563eb"/>
  <circle cx="243.17" cy="249.99" r="2.5" fill="#2563eb"/>
  <circle cx="244.30" cy="300.01" r="2.5" fill="#2563eb"/>
  <circle cx="245.44" cy="249.94" r="2.5" fill="#2563eb"/>
  <circle cx="246.57" cy="250.03" r="2.5" fill="#2563eb"/>
  <circle cx="247.70" cy="250.03" r="2.5" fill="#2563eb"/>
  <circle cx="248.83" cy="250.03" r="2.5" fill="#2563eb"/>
  <circle cx="249.96" cy="200.04" r="2.5" fill="#2563eb"/>
  <circle cx="251.09" cy="300.01" r="2.5" fill="#2563eb"/>
  <circle cx="252.23" cy="249.90" r="2.5" fill="#2563eb"/>
  <circle cx="253.36" cy="300.01" r="2.5" fill="#2563eb"/>
  <circle cx="254.49" cy="300.01" r="2.5" fill="#2563eb"/>
  <circle cx="255.62" cy="300.06" r="2.5" fill="#2563eb"/>
  <circle cx="256.75" cy="300.01" r="2.5" fill="#2563eb"/>
  <circle cx="257.89" cy="300.01" r="2.5" fill="#2563eb"/>
  <circle cx="259.02" cy="243.95" r="2.5" fill="#2563eb"/>
  <circle cx="260.15" cy="249.94" r="2.5" fill="#2563eb"/>
  <circle cx="261.28" cy="299.97" r="2.5" fill="#2563eb"/>
  <circle cx="262.41" cy="300.01" r="2.5" fill="#2563eb"/>
  <circle cx="263.54" cy="300.01" r="2.5" fill="#2563eb"/>
  <circle cx="264.68" cy="250.03" r="2.5" fill="#2563eb"/>
  <circle cx="265.81" cy="300.01" r="2.5" fill="#2563eb"/>
  <circle cx="266.94" cy="300.01" r="2.5" fill="#2563eb"/>
  <circle cx="268.07" cy="299.97" r="2.5" fill="#2563eb"/>
  <circle cx="269.20" cy="249.99" r="2.5" fill="#2563eb"/>
  <circle cx="270.34" cy="300.01" r="2.5" fill="#2563eb"/>
  <circle cx="271.47" cy="299.93" r="2.5" fill="#2563eb"/>
  <circle cx="272.60" cy="300.01" r="2.5" fill="#2563eb"/>
  <circle cx="273.73" cy="299.93" r="2.5" fill="#2563eb"/>
  <circle cx="274.86" cy="300.01" r="2.5" fill="#2563eb"/>
  <circle cx="276.00" cy="300.01" r="2.5" fill="#2563eb"/>
  <circle cx="277.13" cy="299.89" r="2.5" fill="#2563eb"/>
  <circle cx="278.26" cy="299.97" r="2.5" fill="#2563eb"/>
  <circle cx="279.39" cy="250.03" r="2.5" fill="#2563eb"/>
  <circle cx="280.52" cy="299.93" r="2.5" fill="#2563eb"/>
  <circle cx="281.65" cy="299.89" r="2.5" fill="#2563eb"/>
  <circle cx="282.79" cy="299.97" r="2.5" fill="#2563eb"/>
  <circle cx="283.92" cy="249.94" r="2.5" fill="#2563eb"/>
  <circle cx="285.05" cy="300.01" r="2.5" fill="#2563eb"/>
  <circle cx="286.18" cy="300.01" r="2.5" fill="#2563eb"/>
  <circle cx="287.31" cy="299.97" r="2.5" fill="#2563eb"/>
  <circle cx="288.45" cy="249.99" r="2.5" fill="#2563eb"/>
  <circle cx="289.58" cy="299.97" r="2.5" fill="#2563eb"/>
  <circle cx="290.71" cy="299.97" r="2.5" fill="#2563eb"/>
  <circle cx="291.84" cy="300.06" r="2.5" fill="#2563eb"/>
  <circle cx="292.97" cy="300.06" r="2.5" fill="#2563eb"/>
  <circle cx="294.10" cy="299.93" r="2.5" fill="#2563eb"/>
  <circle cx="295.24" cy="300.01" r="2.5" fill="#2563eb"/>
  <circle cx="296.37" cy="300.01" r="2.5" fill="#2563eb"/>
  <circle cx="297.50" cy="299.93" r="2.5" fill="#2563eb"/>
  <circle cx="298.63" cy="300.01" r="2.5" fill="#2563eb"/>
  <circle cx="299.76" cy="300.01" r="2.5" fill="#2563eb"/>
  <circle cx="300.90" cy="299.97" r="2.5" fill="#2563eb"/>
  <circle cx="302.03" cy="300.01" r="2.5" fill="#2563eb"/>
  <circle cx="303.16" cy="300.01" r="2.5" fill="#2563eb"/>
  <circle cx="304.29" cy="300.01" r="2.5" fill="#2563eb"/>
  <circle cx="305.42" cy="300.01" r="2.5" fill="#2563eb"/>
  <circle cx="306.55" cy="249.86" r="2.5" fill="#2563eb"/>
  <circle cx="307.69" cy="300.01" r="2.5" fill="#2563eb"/>
  <circle cx="308.82" cy="300.10" r="2.5" fill="#2563eb"/>
  <circle cx="309.95" cy="299.93" r="2.5" fill="#2563eb"/>
  <circle cx="311.08" cy="300.01" r="2.5" fill="#2563eb"/>
  <circle cx="312.21" cy="299.93" r="2.5" fill="#2563eb"/>
  <circle cx="313.35" cy="300.01" r="2.5" fill="#2563eb"/>
  <circle cx="314.48" cy="300.01" r="2.5" fill="#2563eb"/>
  <circle cx="315.61" cy="300.01" r="2.5" fill="#2563eb"/>
  <circle cx="316.74" cy="300.01" r="2.5" fill="#2563eb"/>
  <circle cx="317.87" cy="300.01" r="2.5" fill="#2563eb"/>
  <circle cx="319.00" cy="299.97" r="2.5" fill="#2563eb"/>
  <circle cx="320.14" cy="300.01" r="2.5" fill="#2563eb"/>
  <circle cx="321.27" cy="300.01" r="2.5" fill="#2563eb"/>
  <circle cx="322.40" cy="300.01" r="2.5" fill="#2563eb"/>
  <circle cx="323.53" cy="300.01" r="2.5" fill="#2563eb"/>
  <circle cx="324.66" cy="250.03" r="2.5" fill="#2563eb"/>
  <circle cx="325.80" cy="300.01" r="2.5" fill="#2563eb"/>
  <circle cx="326.93" cy="300.01" r="2.5" fill="#2563eb"/>
  <circle cx="328.06" cy="299.97" r="2.5" fill="#2563eb"/>
  <circle cx="329.19" cy="300.01" r="2.5" fill="#2563eb"/>
  <circle cx="330.32" cy="300.01" r="2.5" fill="#2563eb"/>
  <circle cx="331.46" cy="299.97" r="2.5" fill="#2563eb"/>
  <circle cx="332.59" cy="299.97" r="2.5" fill="#2563eb"/>
  <circle cx="333.72" cy="300.01" r="2.5" fill="#2563eb"/>
  <circle cx="334.85" cy="299.97" r="2.5" fill="#2563eb"/>
  <circle cx="335.98" cy="300.01" r="2.5" fill="#2563eb"/>
  <circle cx="337.11" cy="299.93" r="2.5" fill="#2563eb"/>
  <circle cx="338.25" cy="300.01" r="2.5" fill="#2563eb"/>
  <circle cx="339.38" cy="250.03" r="2.5" fill="#2563eb"/>
  <circle cx="340.51" cy="300.01" r="2.5" fill="#2563eb"/>
  <circle cx="341.64" cy="300.01" r="2.5" fill="#2563eb"/>
  <circle cx="342.77" cy="300.01" r="2.5" fill="#2563eb"/>
  <circle cx="343.91" cy="300.01" r="2.5" fill="#2563eb"/>
  <circle cx="345.04" cy="300.01" r="2.5" fill="#2563eb"/>
  <circle cx="346.17" cy="299.89" r="2.5" fill="#2563eb"/>
  <circle cx="347.30" cy="300.01" r="2.5" fill="#2563eb"/>
  <circle cx="348.43" cy="300.01" r="2.5" fill="#2563eb"/>
  <circle cx="349.56" cy="250.07" r="2.5" fill="#2563eb"/>
  <circle cx="350.70" cy="300.01" r="2.5" fill="#2563eb"/>
  <circle cx="351.83" cy="299.93" r="2.5" fill="#2563eb"/>
  <circle cx="352.96" cy="300.01" r="2.5" fill="#2563eb"/>
  <circle cx="354.09" cy="299.97" r="2.5" fill="#2563eb"/>
  <circle cx="355.22" cy="299.97" r="2.5" fill="#2563eb"/>
  <circle cx="356.36" cy="299.97" r="2.5" fill="#2563eb"/>
  <circle cx="357.49" cy="250.03" r="2.5" fill="#2563eb"/>
  <circle cx="358.62" cy="300.01" r="2.5" fill="#2563eb"/>
  <circle cx="359.75" cy="300.01" r="2.5" fill="#2563eb"/>
  <circle cx="360.88" cy="300.01" r="2.5" fill="#2563eb"/>
  <circle cx="362.01" cy="300.01" r="2.5" fill="#2563eb"/>
  <circle cx="363.15" cy="299.97" r="2.5" fill="#2563eb"/>
  <circle cx="364.28" cy="300.01" r="2.5" fill="#2563eb"/>
  <circle cx="365.41" cy="299.97" r="2.5" fill="#2563eb"/>
  <circle cx="366.54" cy="300.01" r="2.5" fill="#2563eb"/>
  <circle cx="367.67" cy="299.97" r="2.5" fill="#2563eb"/>
  <circle cx="368.81" cy="249.90" r="2.5" fill="#2563eb"/>
  <circle cx="369.94" cy="300.01" r="2.5" fill="#2563eb"/>
  <circle cx="371.07" cy="300.01" r="2.5" fill="#2563eb"/>
  <circle cx="372.20" cy="299.89" r="2.5" fill="#2563eb"/>
  <circle cx="373.33" cy="299.97" r="2.5" fill="#2563eb"/>
  <circle cx="374.47" cy="299.97" r="2.5" fill="#2563eb"/>
  <circle cx="375.60" cy="249.99" r="2.5" fill="#2563eb"/>
  <circle cx="376.73" cy="299.97" r="2.5" fill="#2563eb"/>
  <circle cx="377.86" cy="299.89" r="2.5" fill="#2563eb"/>
  <circle cx="378.99" cy="300.01" r="2.5" fill="#2563eb"/>
  <circle cx="380.12" cy="299.97" r="2.5" fill="#2563eb"/>
  <circle cx="381.26" cy="299.97" r="2.5" fill="#2563eb"/>
  <circle cx="382.39" cy="300.01" r="2.5" fill="#2563eb"/>
  <circle cx="383.52" cy="299.97" r="2.5" fill="#2563eb"/>
  <circle cx="384.65" cy="249.99" r="2.5" fill="#2563eb"/>
  <circle cx="385.78" cy="299.97" r="2.5" fill="#2563eb"/>
  <circle cx="386.92" cy="299.97" r="2.5" fill="#2563eb"/>
  <circle cx="388.05" cy="300.06" r="2.5" fill="#2563eb"/>
  <circle cx="389.18" cy="300.06" r="2.5" fill="#2563eb"/>
  <circle cx="390.31" cy="249.94" r="2.5" fill="#2563eb"/>
  <circle cx="391.44" cy="300.01" r="2.5" fill="#2563eb"/>
  <circle cx="392.57" cy="299.93" r="2.5" fill="#2563eb"/>
  <circle cx="393.71" cy="300.01" r="2.5" fill="#2563eb"/>
  <circle cx="394.84" cy="300.01" r="2.5" fill="#2563eb"/>
  <circle cx="395.97" cy="249.99" r="2.5" fill="#2563eb"/>
  <circle cx="397.10" cy="300.01" r="2.5" fill="#2563eb"/>
  <circle cx="398.23" cy="300.01" r="2.5" fill="#2563eb"/>
  <circle cx="399.37" cy="300.01" r="2.5" fill="#2563eb"/>
  <circle cx="400.50" cy="299.93" r="2.5" fill="#2563eb"/>
  <circle cx="401.63" cy="299.93" r="2.5" fill="#2563eb"/>
  <circle cx="402.76" cy="300.01" r="2.5" fill="#2563eb"/>
  <circle cx="403.89" cy="300.01" r="2.5" fill="#2563eb"/>
  <circle cx="405.02" cy="249.94" r="2.5" fill="#2563eb"/>
  <circle cx="406.16" cy="299.97" r="2.5" fill="#2563eb"/>
  <circle cx="407.29" cy="299.97" r="2.5" fill="#2563eb"/>
  <circle cx="408.42" cy="300.01" r="2.5" fill="#2563eb"/>
  <circle cx="409.55" cy="300.01" r="2.5" fill="#2563eb"/>
  <circle cx="410.68" cy="300.01" r="2.5" fill="#2563eb"/>
  <circle cx="411.82" cy="249.99" r="2.5" fill="#2563eb"/>
  <circle cx="412.95" cy="300.01" r="2.5" fill="#2563eb"/>
  <circle cx="414.08" cy="300.01" r="2.5" fill="#2563eb"/>
  <circle cx="415.21" cy="300.01" r="2.5" fill="#2563eb"/>
  <circle cx="416.34" cy="250.03" r="2.5" fill="#2563eb"/>
  <circle cx="417.48" cy="300.01" r="2.5" fill="#2563eb"/>
  <circle cx="418.61" cy="300.01" r="2.5" fill="#2563eb"/>
  <circle cx="419.74" cy="300.01" r="2.5" fill="#2563eb"/>
  <circle cx="420.87" cy="299.97" r="2.5" fill="#2563eb"/>
  <circle cx="422.00" cy="300.01" r="2.5" fill="#2563eb"/>
  <circle cx="423.13" cy="300.01" r="2.5" fill="#2563eb"/>
  <circle cx="424.27" cy="299.97" r="2.5" fill="#2563eb"/>
  <circle cx="425.40" cy="299.97" r="2.5" fill="#2563eb"/>
  <circle cx="426.53" cy="300.01" r="2.5" fill="#2563eb"/>
  <circle cx="427.66" cy="300.01" r="2.5" fill="#2563eb"/>
  <circle cx="428.79" cy="299.97" r="2.5" fill="#2563eb"/>
  <circle cx="429.93" cy="299.93" r="2.5" fill="#2563eb"/>
  <circle cx="431.06" cy="300.01" r="2.5" fill="#2563eb"/>
  <circle cx="432.19" cy="300.06" r="2.5" fill="#2563eb"/>
  <circle cx="433.32" cy="299.97" r="2.5" fill="#2563eb"/>
  <circle cx="434.45" cy="300.01" r="2.5" fill="#2563eb"/>
  <circle cx="435.58" cy="250.03" r="2.5" fill="#2563eb"/>
  <circle cx="436.72" cy="250.03" r="2.5" fill="#2563eb"/>
  <circle cx="437.85" cy="299.93" r="2.5" fill="#2563eb"/>
  <circle cx="438.98" cy="299.97" r="2.5" fill="#2563eb"/>
  <circle cx="440.11" cy="300.01" r="2.5" fill="#2563eb"/>
  <circle cx="441.24" cy="300.01" r="2.5" fill="#2563eb"/>
  <circle cx="442.38" cy="300.06" r="2.5" fill="#2563eb"/>
  <circle cx="443.51" cy="300.01" r="2.5" fill="#2563eb"/>
  <circle cx="444.64" cy="299.93" r="2.5" fill="#2563eb"/>
  <circle cx="445.77" cy="300.01" r="2.5" fill="#2563eb"/>
  <circle cx="446.90" cy="300.01" r="2.5" fill="#2563eb"/>
  <circle cx="448.03" cy="299.97" r="2.5" fill="#2563eb"/>
  <circle cx="449.17" cy="299.97" r="2.5" fill="#2563eb"/>
  <circle cx="450.30" cy="300.01" r="2.5" fill="#2563eb"/>
  <circle cx="451.43" cy="250.03" r="2.5" fill="#2563eb"/>
  <circle cx="452.56" cy="300.01" r="2.5" fill="#2563eb"/>
  <circle cx="453.69" cy="300.01" r="2.5" fill="#2563eb"/>
  <circle cx="454.83" cy="300.01" r="2.5" fill="#2563eb"/>
  <circle cx="455.96" cy="299.97" r="2.5" fill="#2563eb"/>
  <circle cx="457.09" cy="300.01" r="2.5" fill="#2563eb"/>
  <circle cx="458.22" cy="299.97" r="2.5" fill="#2563eb"/>
  <circle cx="459.35" cy="300.01" r="2.5" fill="#2563eb"/>
  <circle cx="460.49" cy="299.97" r="2.5" fill="#2563eb"/>
  <circle cx="461.62" cy="299.97" r="2.5" fill="#2563eb"/>
  <circle cx="462.75" cy="299.93" r="2.5" fill="#2563eb"/>
  <circle cx="463.88" cy="300.01" r="2.5" fill="#2563eb"/>
  <circle cx="465.01" cy="300.01" r="2.5" fill="#2563eb"/>
  <circle cx="466.14" cy="299.89" r="2.5" fill="#2563eb"/>
  <circle cx="467.28" cy="299.97" r="2.5" fill="#2563eb"/>
  <circle cx="468.41" cy="299.97" r="2.5" fill="#2563eb"/>
  <circle cx="469.54" cy="300.06" r="2.5" fill="#2563eb"/>
  <circle cx="470.67" cy="249.90" r="2.5" fill="#2563eb"/>
  <circle cx="471.80" cy="299.89" r="2.5" fill="#2563eb"/>
  <circle cx="472.94" cy="300.01" r="2.5" fill="#2563eb"/>
  <circle cx="474.07" cy="299.97" r="2.5" fill="#2563eb"/>
  <circle cx="475.20" cy="299.97" r="2.5" fill="#2563eb"/>
  <circle cx="476.33" cy="299.97" r="2.5" fill="#2563eb"/>
  <circle cx="477.46" cy="300.01" r="2.5" fill="#2563eb"/>
  <circle cx="478.59" cy="300.01" r="2.5" fill="#2563eb"/>
  <circle cx="479.73" cy="299.97" r="2.5" fill="#2563eb"/>
  <circle cx="480.86" cy="299.97" r="2.5" fill="#2563eb"/>
  <circle cx="481.99" cy="299.97" r="2.5" fill="#2563eb"/>
  <circle cx="483.12" cy="250.03" r="2.5" fill="#2563eb"/>
  <circle cx="484.25" cy="299.93" r="2.5" fill="#2563eb"/>
  <circle cx="485.39" cy="300.01" r="2.5" fill="#2563eb"/>
  <circle cx="486.52" cy="300.01" r="2.5" fill="#2563eb"/>
  <circle cx="487.65" cy="299.93" r="2.5" fill="#2563eb"/>
  <circle cx="488.78" cy="300.01" r="2.5" fill="#2563eb"/>
  <circle cx="489.91" cy="300.01" r="2.5" fill="#2563eb"/>
  <circle cx="491.04" cy="299.97" r="2.5" fill="#2563eb"/>
  <circle cx="492.18" cy="300.01" r="2.5" fill="#2563eb"/>
  <circle cx="493.31" cy="300.01" r="2.5" fill="#2563eb"/>
  <circle cx="494.44" cy="300.06" r="2.5" fill="#2563eb"/>
  <circle cx="495.57" cy="300.01" r="2.5" fill="#2563eb"/>
  <circle cx="496.70" cy="299.97" r="2.5" fill="#2563eb"/>
  <circle cx="497.84" cy="299.89" r="2.5" fill="#2563eb"/>
  <circle cx="498.97" cy="300.01" r="2.5" fill="#2563eb"/>
  <circle cx="500.10" cy="300.01" r="2.5" fill="#2563eb"/>
  <circle cx="501.23" cy="249.94" r="2.5" fill="#2563eb"/>
  <circle cx="502.36" cy="249.94" r="2.5" fill="#2563eb"/>
  <circle cx="503.50" cy="300.01" r="2.5" fill="#2563eb"/>
  <circle cx="504.63" cy="300.01" r="2.5" fill="#2563eb"/>
  <circle cx="505.76" cy="300.01" r="2.5" fill="#2563eb"/>
  <circle cx="506.89" cy="300.01" r="2.5" fill="#2563eb"/>
  <circle cx="508.02" cy="299.97" r="2.5" fill="#2563eb"/>
  <circle cx="509.15" cy="250.03" r="2.5" fill="#2563eb"/>
  <circle cx="510.29" cy="300.01" r="2.5" fill="#2563eb"/>
  <circle cx="511.42" cy="300.01" r="2.5" fill="#2563eb"/>
  <circle cx="512.55" cy="300.01" r="2.5" fill="#2563eb"/>
  <circle cx="513.68" cy="300.01" r="2.5" fill="#2563eb"/>
  <circle cx="514.81" cy="250.03" r="2.5" fill="#2563eb"/>
  <circle cx="515.95" cy="249.99" r="2.5" fill="#2563eb"/>
  <circle cx="517.08" cy="300.01" r="2.5" fill="#2563eb"/>
  <circle cx="518.21" cy="299.97" r="2.5" fill="#2563eb"/>
  <circle cx="519.34" cy="300.01" r="2.5" fill="#2563eb"/>
  <circle cx="520.47" cy="299.97" r="2.5" fill="#2563eb"/>
  <circle cx="521.60" cy="300.01" r="2.5" fill="#2563eb"/>
  <circle cx="522.74" cy="299.97" r="2.5" fill="#2563eb"/>
  <circle cx="523.87" cy="299.97" r="2.5" fill="#2563eb"/>
  <circle cx="525.00" cy="299.97" r="2.5" fill="#2563eb"/>
  <circle cx="526.13" cy="300.06" r="2.5" fill="#2563eb"/>
  <circle cx="527.26" cy="249.99" r="2.5" fill="#2563eb"/>
  <circle cx="528.40" cy="300.01" r="2.5" fill="#2563eb"/>
  <circle cx="529.53" cy="250.03" r="2.5" fill="#2563eb"/>
  <circle cx="530.66" cy="249.94" r="2.5" fill="#2563eb"/>
  <circle cx="531.79" cy="249.99" r="2.5" fill="#2563eb"/>
  <circle cx="532.92" cy="300.01" r="2.5" fill="#2563eb"/>
  <circle cx="534.05" cy="300.06" r="2.5" fill="#2563eb"/>
  <circle cx="535.19" cy="300.01" r="2.5" fill="#2563eb"/>
  <circle cx="536.32" cy="299.97" r="2.5" fill="#2563eb"/>
  <circle cx="537.45" cy="299.97" r="2.5" fill="#2563eb"/>
  <circle cx="538.58" cy="300.01" r="2.5" fill="#2563eb"/>
  <circle cx="539.71" cy="299.93" r="2.5" fill="#2563eb"/>
  <circle cx="540.85" cy="299.89" r="2.5" fill="#2563eb"/>
  <circle cx="541.98" cy="299.89" r="2.5" fill="#2563eb"/>
  <circle cx="543.11" cy="299.89" r="2.5" fill="#2563eb"/>
  <circle cx="544.24" cy="299.89" r="2.5" fill="#2563eb"/>
  <circle cx="545.37" cy="299.85" r="2.5" fill="#2563eb"/>
  <circle cx="546.50" cy="299.85" r="2.5" fill="#2563eb"/>
  <circle cx="547.64" cy="299.89" r="2.5" fill="#2563eb"/>
  <circle cx="548.77" cy="299.81" r="2.5" fill="#2563eb"/>
  <circle cx="549.90" cy="299.81" r="2.5" fill="#2563eb"/>
  <circle cx="551.03" cy="299.81" r="2.5" fill="#2563eb"/>
  <circle cx="552.16" cy="299.76" r="2.5" fill="#2563eb"/>
  <circle cx="553.30" cy="299.76" r="2.5" fill="#2563eb"/>
  <circle cx="554.43" cy="299.76" r="2.5" fill="#2563eb"/>
  <circle cx="555.56" cy="299.72" r="2.5" fill="#2563eb"/>
  <circle cx="556.69" cy="299.68" r="2.5" fill="#2563eb"/>
  <circle cx="557.82" cy="299.60" r="2.5" fill="#2563eb"/>
  <circle cx="558.96" cy="299.60" r="2.5" fill="#2563eb"/>
  <circle cx="560.09" cy="299.60" r="2.5" fill="#2563eb"/>
  <circle cx="561.22" cy="299.56" r="2.5" fill="#2563eb"/>
  <circle cx="562.35" cy="299.47" r="2.5" fill="#2563eb"/>
  <circle cx="563.48" cy="299.43" r="2.5" fill="#2563eb"/>
  <circle cx="564.61" cy="299.43" r="2.5" fill="#2563eb"/>
  <circle cx="565.75" cy="299.39" r="2.5" fill="#2563eb"/>
  <circle cx="566.88" cy="299.47" r="2.5" fill="#2563eb"/>
  <circle cx="568.01" cy="259.82" r="2.5" fill="#2563eb"/>
  <circle cx="569.14" cy="338.96" r="2.5" fill="#2563eb"/>
  <circle cx="570.27" cy="299.31" r="2.5" fill="#2563eb"/>
  <circle cx="571.41" cy="299.31" r="2.5" fill="#2563eb"/>
  <circle cx="572.54" cy="299.26" r="2.5" fill="#2563eb"/>
  <circle cx="573.67" cy="299.68" r="2.5" fill="#2563eb"/>
  <circle cx="574.80" cy="299.68" r="2.5" fill="#2563eb"/>
  <circle cx="575.93" cy="299.68" r="2.5" fill="#2563eb"/>
  <circle cx="577.06" cy="299.64" r="2.5" fill="#2563eb"/>
  <circle cx="578.20" cy="299.14" r="2.5" fill="#2563eb"/>
  <circle cx="579.33" cy="299.14" r="2.5" fill="#2563eb"/>
  <circle cx="580.46" cy="299.10" r="2.5" fill="#2563eb"/>
  <circle cx="581.59" cy="299.10" r="2.5" fill="#2563eb"/>
  <circle cx="582.72" cy="299.10" r="2.5" fill="#2563eb"/>
  <circle cx="583.86" cy="248.07" r="2.5" fill="#2563eb"/>
  <circle cx="584.99" cy="299.06" r="2.5" fill="#2563eb"/>
  <circle cx="586.12" cy="299.06" r="2.5" fill="#2563eb"/>
  <circle cx="587.25" cy="299.06" r="2.5" fill="#2563eb"/>
  <circle cx="588.38" cy="299.06" r="2.5" fill="#2563eb"/>
  <circle cx="589.51" cy="299.06" r="2.5" fill="#2563eb"/>
  <circle cx="590.65" cy="298.97" r="2.5" fill="#2563eb"/>
  <circle cx="591.78" cy="298.97" r="2.5" fill="#2563eb"/>
  <circle cx="592.91" cy="298.93" r="2.5" fill="#2563eb"/>
  <circle cx="594.04" cy="298.97" r="2.5" fill="#2563eb"/>
  <circle cx="595.17" cy="298.93" r="2.5" fill="#2563eb"/>
  <circle cx="596.31" cy="298.89" r="2.5" fill="#2563eb"/>
  <circle cx="597.44" cy="298.89" r="2.5" fill="#2563eb"/>
  <circle cx="598.57" cy="298.89" r="2.5" fill="#2563eb"/>
  <circle cx="599.70" cy="298.89" r="2.5" fill="#2563eb"/>
  <circle cx="600.83" cy="247.78" r="2.5" fill="#2563eb"/>
  <circle cx="601.97" cy="298.89" r="2.5" fill="#2563eb"/>
  <circle cx="603.10" cy="298.89" r="2.5" fill="#2563eb"/>
  <circle cx="604.23" cy="298.85" r="2.5" fill="#2563eb"/>
  <circle cx="605.36" cy="298.85" r="2.5" fill="#2563eb"/>
  <circle cx="606.49" cy="298.81" r="2.5" fill="#2563eb"/>
  <circle cx="607.62" cy="298.81" r="2.5" fill="#2563eb"/>
  <circle cx="608.76" cy="298.81" r="2.5" fill="#2563eb"/>
  <circle cx="609.89" cy="298.81" r="2.5" fill="#2563eb"/>
  <circle cx="611.02" cy="298.81" r="2.5" fill="#2563eb"/>
  <circle cx="612.15" cy="298.81" r="2.5" fill="#2563eb"/>
  <circle cx="613.28" cy="298.81" r="2.5" fill="#2563eb"/>
  <circle cx="614.42" cy="298.81" r="2.5" fill="#2563eb"/>
  <circle cx="615.55" cy="298.81" r="2.5" fill="#2563eb"/>
  <circle cx="616.68" cy="298.72" r="2.5" fill="#2563eb"/>
  <circle cx="617.81" cy="247.45" r="2.5" fill="#2563eb"/>
  <circle cx="618.94" cy="247.45" r="2.5" fill="#2563eb"/>
  <circle cx="620.07" cy="298.72" r="2.5" fill="#2563eb"/>
  <circle cx="621.21" cy="298.72" r="2.5" fill="#2563eb"/>
  <circle cx="622.34" cy="298.72" r="2.5" fill="#2563eb"/>
  <circle cx="623.47" cy="298.72" r="2.5" fill="#2563eb"/>
  <circle cx="624.60" cy="298.72" r="2.5" fill="#2563eb"/>
  <circle cx="625.73" cy="298.72" r="2.5" fill="#2563eb"/>
  <circle cx="626.87" cy="247.36" r="2.5" fill="#2563eb"/>
  <circle cx="628.00" cy="298.68" r="2.5" fill="#2563eb"/>
  <circle cx="629.13" cy="247.36" r="2.5" fill="#2563eb"/>
  <circle cx="630.26" cy="247.36" r="2.5" fill="#2563eb"/>
  <circle cx="631.39" cy="247.36" r="2.5" fill="#2563eb"/>
  <circle cx="632.52" cy="298.68" r="2.5" fill="#2563eb"/>
  <circle cx="633.66" cy="298.68" r="2.5" fill="#2563eb"/>
  <circle cx="634.79" cy="298.68" r="2.5" fill="#2563eb"/>
  <circle cx="635.92" cy="298.68" r="2.5" fill="#2563eb"/>
  <circle cx="637.05" cy="298.68" r="2.5" fill="#2563eb"/>
  <circle cx="638.18" cy="341.67" r="2.5" fill="#2563eb"/>
  <circle cx="639.32" cy="307.01" r="2.5" fill="#2563eb"/>
  <circle cx="640.45" cy="298.68" r="2.5" fill="#2563eb"/>
  <circle cx="641.58" cy="298.68" r="2.5" fill="#2563eb"/>
  <circle cx="642.71" cy="298.68" r="2.5" fill="#2563eb"/>
  <circle cx="643.84" cy="247.36" r="2.5" fill="#2563eb"/>
  <circle cx="644.98" cy="298.64" r="2.5" fill="#2563eb"/>
  <circle cx="646.11" cy="247.36" r="2.5" fill="#2563eb"/>
  <circle cx="647.24" cy="247.28" r="2.5" fill="#2563eb"/>
  <circle cx="648.37" cy="247.20" r="2.5" fill="#2563eb"/>
  <circle cx="649.50" cy="298.60" r="2.5" fill="#2563eb"/>
  <circle cx="650.63" cy="298.60" r="2.5" fill="#2563eb"/>
  <circle cx="651.77" cy="247.03" r="2.5" fill="#2563eb"/>
  <circle cx="652.90" cy="298.51" r="2.5" fill="#2563eb"/>
  <circle cx="654.03" cy="298.51" r="2.5" fill="#2563eb"/>
  <circle cx="655.16" cy="298.51" r="2.5" fill="#2563eb"/>
  <circle cx="656.29" cy="298.51" r="2.5" fill="#2563eb"/>
  <circle cx="657.43" cy="298.51" r="2.5" fill="#2563eb"/>
  <circle cx="658.56" cy="298.51" r="2.5" fill="#2563eb"/>
  <circle cx="659.69" cy="298.51" r="2.5" fill="#2563eb"/>
  <circle cx="660.82" cy="298.51" r="2.5" fill="#2563eb"/>
  <circle cx="661.95" cy="298.51" r="2.5" fill="#2563eb"/>
  <circle cx="663.08" cy="298.51" r="2.5" fill="#2563eb"/>
  <circle cx="664.22" cy="298.51" r="2.5" fill="#2563eb"/>
  <circle cx="665.35" cy="298.51" r="2.5" fill="#2563eb"/>
  <circle cx="666.48" cy="298.51" r="2.5" fill="#2563eb"/>
  <circle cx="667.61" cy="298.51" r="2.5" fill="#2563eb"/>
  <circle cx="668.74" cy="298.51" r="2.5" fill="#2563eb"/>
  <circle cx="669.88" cy="298.51" r="2.5" fill="#2563eb"/>
  <circle cx="671.01" cy="298.51" r="2.5" fill="#2563eb"/>
  <circle cx="672.14" cy="298.51" r="2.5" fill="#2563eb"/>
  <circle cx="673.27" cy="298.51" r="2.5" fill="#2563eb"/>
  <circle cx="674.40" cy="298.51" r="2.5" fill="#2563eb"/>
  <circle cx="675.53" cy="298.51" r="2.5" fill="#2563eb"/>
  <circle cx="676.67" cy="298.51" r="2.5" fill="#2563eb"/>
  <circle cx="677.80" cy="298.51" r="2.5" fill="#2563eb"/>
  <circle cx="678.93" cy="298.51" r="2.5" fill="#2563eb"/>
  <circle cx="680.06" cy="298.51" r="2.5" fill="#2563eb"/>
  <circle cx="681.19" cy="298.51" r="2.5" fill="#2563eb"/>
  <circle cx="682.33" cy="298.47" r="2.5" fill="#2563eb"/>
  <circle cx="683.46" cy="298.51" r="2.5" fill="#2563eb"/>
  <circle cx="684.59" cy="298.51" r="2.5" fill="#2563eb"/>
  <circle cx="685.72" cy="298.47" r="2.5" fill="#2563eb"/>
  <circle cx="686.85" cy="298.51" r="2.5" fill="#2563eb"/>
  <circle cx="687.99" cy="298.47" r="2.5" fill="#2563eb"/>
  <circle cx="689.12" cy="298.51" r="2.5" fill="#2563eb"/>
  <circle cx="690.25" cy="298.43" r="2.5" fill="#2563eb"/>
  <circle cx="691.38" cy="298.56" r="2.5" fill="#2563eb"/>
  <circle cx="692.51" cy="298.43" r="2.5" fill="#2563eb"/>
  <circle cx="693.64" cy="298.43" r="2.5" fill="#2563eb"/>
  <circle cx="694.78" cy="298.43" r="2.5" fill="#2563eb"/>
  <circle cx="695.91" cy="298.43" r="2.5" fill="#2563eb"/>
  <circle cx="697.04" cy="298.43" r="2.5" fill="#2563eb"/>
  <circle cx="698.17" cy="298.43" r="2.5" fill="#2563eb"/>
  <circle cx="699.30" cy="298.43" r="2.5" fill="#2563eb"/>
  <circle cx="700.44" cy="298.43" r="2.5" fill="#2563eb"/>
  <circle cx="701.57" cy="298.43" r="2.5" fill="#2563eb"/>
  <circle cx="702.70" cy="298.43" r="2.5" fill="#2563eb"/>
  <circle cx="703.83" cy="298.43" r="2.5" fill="#2563eb"/>
  <circle cx="704.96" cy="298.43" r="2.5" fill="#2563eb"/>
  <circle cx="706.09" cy="298.43" r="2.5" fill="#2563eb"/>
  <circle cx="707.23" cy="298.43" r="2.5" fill="#2563eb"/>
  <circle cx="708.36" cy="298.43" r="2.5" fill="#2563eb"/>
  <circle cx="709.49" cy="298.43" r="2.5" fill="#2563eb"/>
  <circle cx="710.62" cy="298.43" r="2.5" fill="#2563eb"/>
  <circle cx="711.75" cy="298.43" r="2.5" fill="#2563eb"/>
  <circle cx="712.89" cy="298.43" r="2.5" fill="#2563eb"/>
  <circle cx="714.02" cy="298.43" r="2.5" fill="#2563eb"/>
  <circle cx="715.15" cy="298.43" r="2.5" fill="#2563eb"/>
  <circle cx="716.28" cy="298.43" r="2.5" fill="#2563eb"/>
  <circle cx="717.41" cy="298.43" r="2.5" fill="#2563eb"/>
  <circle cx="718.54" cy="298.43" r="2.5" fill="#2563eb"/>
  <circle cx="719.68" cy="298.43" r="2.5" fill="#2563eb"/>
  <circle cx="720.81" cy="298.43" r="2.5" fill="#2563eb"/>
  <circle cx="721.94" cy="298.43" r="2.5" fill="#2563eb"/>
  <circle cx="723.07" cy="298.43" r="2.5" fill="#2563eb"/>
  <circle cx="724.20" cy="298.43" r="2.5" fill="#2563eb"/>
  <circle cx="725.34" cy="298.43" r="2.5" fill="#2563eb"/>
  <circle cx="726.47" cy="298.43" r="2.5" fill="#2563eb"/>
  <circle cx="727.60" cy="298.43" r="2.5" fill="#2563eb"/>
  <circle cx="728.73" cy="298.43" r="2.5" fill="#2563eb"/>
  <circle cx="729.86" cy="298.43" r="2.5" fill="#2563eb"/>
  <circle cx="731.00" cy="298.39" r="2.5" fill="#2563eb"/>
  <circle cx="732.13" cy="298.39" r="2.5" fill="#2563eb"/>
  <circle cx="733.26" cy="298.43" r="2.5" fill="#2563eb"/>
  <circle cx="734.39" cy="298.43" r="2.5" fill="#2563eb"/>
  <circle cx="735.52" cy="298.39" r="2.5" fill="#2563eb"/>
  <circle cx="736.65" cy="298.39" r="2.5" fill="#2563eb"/>
  <circle cx="737.79" cy="298.39" r="2.5" fill="#2563eb"/>
  <circle cx="738.92" cy="298.43" r="2.5" fill="#2563eb"/>
  <circle cx="740.05" cy="298.43" r="2.5" fill="#2563eb"/>
  <circle cx="741.18" cy="298.43" r="2.5" fill="#2563eb"/>
  <circle cx="742.31" cy="246.82" r="2.5" fill="#2563eb"/>
  <circle cx="743.45" cy="298.43" r="2.5" fill="#2563eb"/>
  <circle cx="744.58" cy="246.78" r="2.5" fill="#2563eb"/>
  <circle cx="745.71" cy="246.78" r="2.5" fill="#2563eb"/>
  <circle cx="746.84" cy="246.78" r="2.5" fill="#2563eb"/>
  <circle cx="747.97" cy="246.70" r="2.5" fill="#2563eb"/>
  <circle cx="749.10" cy="246.78" r="2.5" fill="#2563eb"/>
  <circle cx="750.24" cy="298.39" r="2.5" fill="#2563eb"/>
  <circle cx="751.37" cy="298.39" r="2.5" fill="#2563eb"/>
  <circle cx="752.50" cy="298.39" r="2.5" fill="#2563eb"/>
  <circle cx="753.63" cy="298.39" r="2.5" fill="#2563eb"/>
  <circle cx="754.76" cy="298.39" r="2.5" fill="#2563eb"/>
  <circle cx="755.90" cy="246.78" r="2.5" fill="#2563eb"/>
  <circle cx="757.03" cy="298.39" r="2.5" fill="#2563eb"/>
  <circle cx="758.16" cy="298.39" r="2.5" fill="#2563eb"/>
  <circle cx="759.29" cy="298.39" r="2.5" fill="#2563eb"/>
  <circle cx="760.42" cy="298.39" r="2.5" fill="#2563eb"/>
  <circle cx="761.55" cy="298.39" r="2.5" fill="#2563eb"/>
  <circle cx="762.69" cy="246.78" r="2.5" fill="#2563eb"/>
  <circle cx="763.82" cy="246.78" r="2.5" fill="#2563eb"/>
  <circle cx="764.95" cy="298.39" r="2.5" fill="#2563eb"/>
  <circle cx="766.08" cy="298.39" r="2.5" fill="#2563eb"/>
  <circle cx="767.21" cy="298.39" r="2.5" fill="#2563eb"/>
  <circle cx="768.35" cy="298.39" r="2.5" fill="#2563eb"/>
  <circle cx="769.48" cy="298.39" r="2.5" fill="#2563eb"/>
  <circle cx="770.61" cy="298.39" r="2.5" fill="#2563eb"/>
  <circle cx="771.74" cy="298.39" r="2.5" fill="#2563eb"/>
  <circle cx="772.87" cy="298.39" r="2.5" fill="#2563eb"/>
  <circle cx="774.00" cy="298.39" r="2.5" fill="#2563eb"/>
  <circle cx="775.14" cy="298.39" r="2.5" fill="#2563eb"/>
  <circle cx="776.27" cy="298.39" r="2.5" fill="#2563eb"/>
  <circle cx="777.40" cy="298.39" r="2.5" fill="#2563eb"/>
  <circle cx="778.53" cy="298.39" r="2.5" fill="#2563eb"/>
  <circle cx="779.66" cy="298.39" r="2.5" fill="#2563eb"/>
  <circle cx="780.80" cy="298.35" r="2.5" fill="#2563eb"/>
  <circle cx="781.93" cy="298.39" r="2.5" fill="#2563eb"/>
  <circle cx="783.06" cy="298.39" r="2.5" fill="#2563eb"/>
  <circle cx="784.19" cy="298.35" r="2.5" fill="#2563eb"/>
  <circle cx="785.32" cy="298.35" r="2.5" fill="#2563eb"/>
  <circle cx="786.46" cy="298.35" r="2.5" fill="#2563eb"/>
  <circle cx="787.59" cy="298.35" r="2.5" fill="#2563eb"/>
  <circle cx="788.72" cy="298.35" r="2.5" fill="#2563eb"/>
  <circle cx="789.85" cy="298.35" r="2.5" fill="#2563eb"/>
  <circle cx="790.98" cy="298.35" r="2.5" fill="#2563eb"/>
  <circle cx="792.11" cy="298.35" r="2.5" fill="#2563eb"/>
  <circle cx="793.25" cy="298.35" r="2.5" fill="#2563eb"/>
  <circle cx="794.38" cy="298.35" r="2.5" fill="#2563eb"/>
  <circle cx="795.51" cy="298.35" r="2.5" fill="#2563eb"/>
  <circle cx="796.64" cy="298.35" r="2.5" fill="#2563eb"/>
  <circle cx="797.77" cy="298.35" r="2.5" fill="#2563eb"/>
  <circle cx="798.91" cy="298.35" r="2.5" fill="#2563eb"/>
  <circle cx="800.04" cy="298.35" r="2.5" fill="#2563eb"/>
  <circle cx="801.17" cy="298.35" r="2.5" fill="#2563eb"/>
  <circle cx="802.30" cy="298.35" r="2.5" fill="#2563eb"/>
  <circle cx="803.43" cy="298.35" r="2.5" fill="#2563eb"/>
  <circle cx="804.56" cy="298.35" r="2.5" fill="#2563eb"/>
  <circle cx="805.70" cy="298.35" r="2.5" fill="#2563eb"/>
  <circle cx="806.83" cy="298.35" r="2.5" fill="#2563eb"/>
  <circle cx="807.96" cy="298.35" r="2.5" fill="#2563eb"/>
  <circle cx="809.09" cy="298.35" r="2.5" fill="#2563eb"/>
  <circle cx="810.22" cy="298.35" r="2.5" fill="#2563eb"/>
  <circle cx="811.36" cy="298.35" r="2.5" fill="#2563eb"/>
  <circle cx="812.49" cy="298.35" r="2.5" fill="#2563eb"/>
  <circle cx="813.62" cy="298.35" r="2.5" fill="#2563eb"/>
  <circle cx="814.75" cy="298.35" r="2.5" fill="#2563eb"/>
  <circle cx="815.88" cy="298.35" r="2.5" fill="#2563eb"/>
  <circle cx="817.01" cy="298.35" r="2.5" fill="#2563eb"/>
  <circle cx="818.15" cy="298.35" r="2.5" fill="#2563eb"/>
  <circle cx="819.28" cy="298.35" r="2.5" fill="#2563eb"/>
  <circle cx="820.41" cy="298.35" r="2.5" fill="#2563eb"/>
  <circle cx="821.54" cy="298.35" r="2.5" fill="#2563eb"/>
  <circle cx="822.67" cy="298.35" r="2.5" fill="#2563eb"/>
  <circle cx="823.81" cy="298.35" r="2.5" fill="#2563eb"/>
  <circle cx="824.94" cy="298.35" r="2.5" fill="#2563eb"/>
  <circle cx="826.07" cy="298.35" r="2.5" fill="#2563eb"/>
  <circle cx="827.20" cy="298.35" r="2.5" fill="#2563eb"/>
  <circle cx="828.33" cy="298.35" r="2.5" fill="#2563eb"/>
  <circle cx="829.47" cy="298.35" r="2.5" fill="#2563eb"/>
  <circle cx="830.60" cy="298.35" r="2.5" fill="#2563eb"/>
  <circle cx="831.73" cy="298.35" r="2.5" fill="#2563eb"/>
  <circle cx="832.86" cy="298.35" r="2.5" fill="#2563eb"/>
  <circle cx="833.99" cy="298.35" r="2.5" fill="#2563eb"/>
  <circle cx="835.12" cy="298.35" r="2.5" fill="#2563eb"/>
  <circle cx="836.26" cy="298.35" r="2.5" fill="#2563eb"/>
  <circle cx="837.39" cy="298.35" r="2.5" fill="#2563eb"/>
  <circle cx="838.52" cy="298.35" r="2.5" fill="#2563eb"/>
  <circle cx="839.65" cy="298.35" r="2.5" fill="#2563eb"/>
  <circle cx="840.78" cy="298.35" r="2.5" fill="#2563eb"/>
  <circle cx="841.92" cy="298.35" r="2.5" fill="#2563eb"/>
  <circle cx="843.05" cy="298.39" r="2.5" fill="#2563eb"/>
  <circle cx="844.18" cy="298.39" r="2.5" fill="#2563eb"/>
  <circle cx="845.31" cy="298.39" r="2.5" fill="#2563eb"/>
  <circle cx="846.44" cy="246.78" r="2.5" fill="#2563eb"/>
  <circle cx="847.57" cy="298.39" r="2.5" fill="#2563eb"/>
  <circle cx="848.71" cy="298.39" r="2.5" fill="#2563eb"/>
  <circle cx="849.84" cy="298.39" r="2.5" fill="#2563eb"/>
  <circle cx="850.97" cy="298.39" r="2.5" fill="#2563eb"/>
  <circle cx="852.10" cy="298.39" r="2.5" fill="#2563eb"/>
  <circle cx="853.23" cy="298.39" r="2.5" fill="#2563eb"/>
  <circle cx="854.37" cy="298.39" r="2.5" fill="#2563eb"/>
  <circle cx="855.50" cy="246.78" r="2.5" fill="#2563eb"/>
  <circle cx="856.63" cy="298.39" r="2.5" fill="#2563eb"/>
  <circle cx="857.76" cy="298.39" r="2.5" fill="#2563eb"/>
  <circle cx="858.89" cy="298.39" r="2.5" fill="#2563eb"/>
  <circle cx="860.02" cy="298.39" r="2.5" fill="#2563eb"/>
  <circle cx="861.16" cy="298.39" r="2.5" fill="#2563eb"/>
  <circle cx="862.29" cy="298.39" r="2.5" fill="#2563eb"/>
  <circle cx="863.42" cy="298.39" r="2.5" fill="#2563eb"/>
  <circle cx="864.55" cy="246.78" r="2.5" fill="#2563eb"/>
  <circle cx="865.68" cy="298.39" r="2.5" fill="#2563eb"/>
  <circle cx="866.82" cy="298.39" r="2.5" fill="#2563eb"/>
  <circle cx="867.95" cy="298.39" r="2.5" fill="#2563eb"/>
  <circle cx="869.08" cy="298.39" r="2.5" fill="#2563eb"/>
  <circle cx="870.21" cy="298.39" r="2.5" fill="#2563eb"/>
  <circle cx="871.34" cy="298.39" r="2.5" fill="#2563eb"/>
  <circle cx="872.48" cy="298.39" r="2.5" fill="#2563eb"/>
  <circle cx="873.61" cy="298.39" r="2.5" fill="#2563eb"/>
  <circle cx="874.74" cy="298.39" r="2.5" fill="#2563eb"/>
  <circle cx="875.87" cy="298.39" r="2.5" fill="#2563eb"/>
  <circle cx="877.00" cy="298.39" r="2.5" fill="#2563eb"/>
  <circle cx="878.13" cy="298.35" r="2.5" fill="#2563eb"/>
  <circle cx="879.27" cy="298.39" r="2.5" fill="#2563eb"/>
  <circle cx="880.40" cy="298.39" r="2.5" fill="#2563eb"/>
  <circle cx="881.53" cy="298.39" r="2.5" fill="#2563eb"/>
  <circle cx="882.66" cy="298.35" r="2.5" fill="#2563eb"/>
  <circle cx="883.79" cy="298.35" r="2.5" fill="#2563eb"/>
  <circle cx="884.93" cy="298.35" r="2.5" fill="#2563eb"/>
  <circle cx="886.06" cy="298.35" r="2.5" fill="#2563eb"/>
  <circle cx="887.19" cy="298.35" r="2.5" fill="#2563eb"/>
  <circle cx="888.32" cy="298.35" r="2.5" fill="#2563eb"/>
  <circle cx="889.45" cy="298.35" r="2.5" fill="#2563eb"/>
  <circle cx="890.58" cy="298.35" r="2.5" fill="#2563eb"/>
  <circle cx="891.72" cy="298.35" r="2.5" fill="#2563eb"/>
  <circle cx="892.85" cy="298.35" r="2.5" fill="#2563eb"/>
  <circle cx="893.98" cy="298.35" r="2.5" fill="#2563eb"/>
  <circle cx="895.11" cy="298.35" r="2.5" fill="#2563eb"/>
  <circle cx="896.24" cy="298.35" r="2.5" fill="#2563eb"/>
  <circle cx="897.38" cy="298.35" r="2.5" fill="#2563eb"/>
  <circle cx="898.51" cy="298.35" r="2.5" fill="#2563eb"/>
  <circle cx="899.64" cy="298.35" r="2.5" fill="#2563eb"/>
  <circle cx="900.77" cy="298.39" r="2.5" fill="#2563eb"/>
  <circle cx="901.90" cy="298.39" r="2.5" fill="#2563eb"/>
  <circle cx="903.03" cy="298.39" r="2.5" fill="#2563eb"/>
  <circle cx="904.17" cy="298.39" r="2.5" fill="#2563eb"/>
  <circle cx="905.30" cy="298.39" r="2.5" fill="#2563eb"/>
  <circle cx="906.43" cy="298.39" r="2.5" fill="#2563eb"/>
  <circle cx="907.56" cy="298.35" r="2.5" fill="#2563eb"/>
  <circle cx="908.69" cy="298.39" r="2.5" fill="#2563eb"/>
  <circle cx="909.83" cy="298.39" r="2.5" fill="#2563eb"/>
  <circle cx="910.96" cy="298.39" r="2.5" fill="#2563eb"/>
  <circle cx="912.09" cy="298.39" r="2.5" fill="#2563eb"/>
  <circle cx="913.22" cy="298.39" r="2.5" fill="#2563eb"/>
  <circle cx="914.35" cy="298.39" r="2.5" fill="#2563eb"/>
  <circle cx="915.49" cy="298.39" r="2.5" fill="#2563eb"/>
  <circle cx="916.62" cy="298.39" r="2.5" fill="#2563eb"/>
  <circle cx="917.75" cy="298.39" r="2.5" fill="#2563eb"/>
  <circle cx="918.88" cy="298.35" r="2.5" fill="#2563eb"/>
  <circle cx="920.01" cy="298.39" r="2.5" fill="#2563eb"/>
  <circle cx="921.14" cy="298.39" r="2.5" fill="#2563eb"/>
  <circle cx="922.28" cy="298.39" r="2.5" fill="#2563eb"/>
  <circle cx="923.41" cy="298.39" r="2.5" fill="#2563eb"/>
  <circle cx="924.54" cy="298.39" r="2.5" fill="#2563eb"/>
  <circle cx="925.67" cy="298.39" r="2.5" fill="#2563eb"/>
  <circle cx="926.80" cy="298.39" r="2.5" fill="#2563eb"/>
  <circle cx="927.94" cy="298.39" r="2.5" fill="#2563eb"/>
  <circle cx="929.07" cy="298.39" r="2.5" fill="#2563eb"/>
  <circle cx="930.20" cy="298.39" r="2.5" fill="#2563eb"/>
  <circle cx="931.33" cy="298.39" r="2.5" fill="#2563eb"/>
  <circle cx="932.46" cy="298.39" r="2.5" fill="#2563eb"/>
  <circle cx="933.59" cy="298.39" r="2.5" fill="#2563eb"/>
  <circle cx="934.73" cy="298.39" r="2.5" fill="#2563eb"/>
  <circle cx="935.86" cy="298.39" r="2.5" fill="#2563eb"/>
  <circle cx="936.99" cy="298.39" r="2.5" fill="#2563eb"/>
  <circle cx="938.12" cy="298.35" r="2.5" fill="#2563eb"/>
  <circle cx="939.25" cy="298.35" r="2.5" fill="#2563eb"/>
  <circle cx="940.39" cy="298.39" r="2.5" fill="#2563eb"/>
  <circle cx="941.52" cy="298.39" r="2.5" fill="#2563eb"/>
  <circle cx="942.65" cy="298.39" r="2.5" fill="#2563eb"/>
  <circle cx="943.78" cy="298.39" r="2.5" fill="#2563eb"/>
  <circle cx="944.91" cy="298.39" r="2.5" fill="#2563eb"/>
  <circle cx="946.04" cy="298.39" r="2.5" fill="#2563eb"/>
  <circle cx="947.18" cy="298.39" r="2.5" fill="#2563eb"/>
  <circle cx="948.31" cy="298.39" r="2.5" fill="#2563eb"/>
  <circle cx="949.44" cy="298.39" r="2.5" fill="#2563eb"/>
  <circle cx="950.57" cy="298.39" r="2.5" fill="#2563eb"/>
  <circle cx="951.70" cy="298.35" r="2.5" fill="#2563eb"/>
  <circle cx="952.84" cy="298.35" r="2.5" fill="#2563eb"/>
  <circle cx="953.97" cy="298.39" r="2.5" fill="#2563eb"/>
  <circle cx="955.10" cy="298.39" r="2.5" fill="#2563eb"/>
  <circle cx="956.23" cy="298.39" r="2.5" fill="#2563eb"/>
  <circle cx="957.36" cy="298.39" r="2.5" fill="#2563eb"/>
  <circle cx="958.50" cy="298.39" r="2.5" fill="#2563eb"/>
  <circle cx="959.63" cy="298.39" r="2.5" fill="#2563eb"/>
  <circle cx="960.76" cy="298.39" r="2.5" fill="#2563eb"/>
  <circle cx="961.89" cy="298.39" r="2.5" fill="#2563eb"/>
  <circle cx="963.02" cy="298.39" r="2.5" fill="#2563eb"/>
  <circle cx="964.15" cy="298.39" r="2.5" fill="#2563eb"/>
  <circle cx="965.29" cy="298.39" r="2.5" fill="#2563eb"/>
  <circle cx="966.42" cy="298.39" r="2.5" fill="#2563eb"/>
  <circle cx="967.55" cy="298.39" r="2.5" fill="#2563eb"/>
  <circle cx="968.68" cy="298.39" r="2.5" fill="#2563eb"/>
  <circle cx="969.81" cy="298.35" r="2.5" fill="#2563eb"/>
  <circle cx="970.95" cy="298.39" r="2.5" fill="#2563eb"/>
  <circle cx="972.08" cy="298.39" r="2.5" fill="#2563eb"/>
  <circle cx="973.21" cy="298.39" r="2.5" fill="#2563eb"/>
  <circle cx="974.34" cy="298.39" r="2.5" fill="#2563eb"/>
  <circle cx="975.47" cy="298.39" r="2.5" fill="#2563eb"/>
  <circle cx="976.60" cy="298.39" r="2.5" fill="#2563eb"/>
  <circle cx="977.74" cy="298.39" r="2.5" fill="#2563eb"/>
  <circle cx="978.87" cy="298.39" r="2.5" fill="#2563eb"/>
  <circle cx="980.00" cy="298.35" r="2.5" fill="#2563eb"/>
</svg>
