<?xml version="1.0" encoding="UTF-8"?>
<svg xmlns="http://www.w3.org/2000/svg" width="1000" height="420" viewBox="0 0 1000 420">
  <rect width="100%" height="100%" fill="#ffffff"/>
  <text x="70" y="28" font-size="20" font-weight="600">수집 시점 기준 - 시간별 스냅샷</text>
  <text x="70" y="402" font-size="12" fill="#555">스냅샷 수</text>
  <line x1="70" y1="350.00" x2="980" y2="350.00" stroke="#e5e7eb" stroke-width="1"/>
  <text x="62" y="354.00" font-size="11" fill="#6b7280" text-anchor="end">0</text>
  <line x1="70" y1="290.00" x2="980" y2="290.00" stroke="#e5e7eb" stroke-width="1"/>
  <text x="62" y="294.00" font-size="11" fill="#6b7280" text-anchor="end">1,440</text>
  <line x1="70" y1="230.00" x2="980" y2="230.00" stroke="#e5e7eb" stroke-width="1"/>
  <text x="62" y="234.00" font-size="11" fill="#6b7280" text-anchor="end">2,880</text>
  <line x1="70" y1="170.00" x2="980" y2="170.00" stroke="#e5e7eb" stroke-width="1"/>
  <text x="62" y="174.00" font-size="11" fill="#6b7280" text-anchor="end">4,321</text>
  <line x1="70" y1="110.00" x2="980" y2="110.00" stroke="#e5e7eb" stroke-width="1"/>
  <text x="62" y="114.00" font-size="11" fill="#6b7280" text-anchor="end">5,761</text>
  <line x1="70" y1="50.00" x2="980" y2="50.00" stroke="#e5e7eb" stroke-width="1"/>
  <text x="62" y="54.00" font-size="11" fill="#6b7280" text-anchor="end">7,202</text>
  <line x1="70" y1="350" x2="980" y2="350" stroke="#111827" stroke-width="1.2"/>
  <line x1="70" y1="50" x2="70" y2="350" stroke="#111827" stroke-width="1.2"/>
  <line x1="70.00" y1="350" x2="70.00" y2="356" stroke="#9ca3af" stroke-width="1"/>
  <text x="70.00" y="372" font-size="10" fill="#6b7280" text-anchor="middle">2026-02-28 18</text>
  <line x1="144.21" y1="350" x2="144.21" y2="356" stroke="#9ca3af" stroke-width="1"/>
  <text x="144.21" y="372" font-size="10" fill="#6b7280" text-anchor="middle">2026-03-08 17</text>
  <line x1="218.41" y1="350" x2="218.41" y2="356" stroke="#9ca3af" stroke-width="1"/>
  <text x="218.41" y="372" font-size="10" fill="#6b7280" text-anchor="middle">2026-03-10 10</text>
  <line x1="292.62" y1="350" x2="292.62" y2="356" stroke="#9ca3af" stroke-width="1"/>
  <text x="292.62" y="372" font-size="10" fill="#6b7280" text-anchor="middle">2026-03-12 03</text>
  <line x1="366.82" y1="350" x2="366.82" y2="356" stroke="#9ca3af" stroke-width="1"/>
  <text x="366.82" y="372" font-size="10" fill="#6b7280" text-anchor="middle">2026-03-13 21</text>
  <line x1="441.03" y1="350" x2="441.03" y2="356" stroke="#9ca3af" stroke-width="1"/>
  <text x="441.03" y="372" font-size="10" fill="#6b7280" text-anchor="middle">2026-03-16 00</text>
  <line x1="515.24" y1="350" x2="515.24" y2="356" stroke="#9ca3af" stroke-width="1"/>
  <text x="515.24" y="372" font-size="10" fill="#6b7280" text-anchor="middle">2026-03-18 15</text>
  <line x1="589.44" y1="350" x2="589.44" y2="356" stroke="#9ca3af" stroke-width="1"/>
  <text x="589.44" y="372" font-size="10" fill="#6b7280" text-anchor="middle">2026-03-21 00</text>
  <line x1="663.65" y1="350" x2="663.65" y2="356" stroke="#9ca3af" stroke-width="1"/>
  <text x="663.65" y="372" font-size="10" fill="#6b7280" text-anchor="middle">2026-03-23 01</text>
  <line x1="737.85" y1="350" x2="737.85" y2="356" stroke="#9ca3af" stroke-width="1"/>
  <text x="737.85" y="372" font-size="10" fill="#6b7280" text-anchor="middle">2026-03-25 17</text>
  <line x1="812.06" y1="350" x2="812.06" y2="356" stroke="#9ca3af" stroke-width="1"/>
  <text x="812.06" y="372" font-size="10" fill="#6b7280" text-anchor="middle">2026-03-28 04</text>
  <line x1="886.27" y1="350" x2="886.27" y2="356" stroke="#9ca3af" stroke-width="1"/>
  <text x="886.27" y="372" font-size="10" fill="#6b7280" text-anchor="middle">2026-03-30 20</text>
  <line x1="960.47" y1="350" x2="960.47" y2="356" stroke="#9ca3af" stroke-width="1"/>
  <text x="960.47" y="372" font-size="10" fill="#6b7280" text-anchor="middle">2026-04-02 14</text>
  <line x1="980.00" y1="350" x2="980.00" y2="356" stroke="#9ca3af" stroke-width="1"/>
  <text x="980.00" y="372" font-size="10" fill="#6b7280" text-anchor="middle">2026-04-03 05</text>
  <polyline fill="none" stroke="#2563eb" stroke-width="2.5" points="70.00,50.00 71.95,50.12 73.91,50.17 75.86,50.46 77.81,50.00 79.76,266.90 81.72,50.12 83.67,50.08 85.62,177.46 87.58,211.58 89.53,175.34 91.48,304.14 93.43,200.46 95.39,250.94 97.34,300.01 99.29,300.06 101.24,300.01 103.20,300.01 105.15,348.00 107.10,300.01 109.06,249.99 111.01,200.00 112.96,249.99 114.91,249.99 116.87,250.03 118.82,250.03 120.77,250.03 122.73,250.40 124.68,250.90 126.63,250.90 128.58,251.32 130.54,249.94 132.49,300.01 134.44,299.93 136.39,251.03 138.35,300.68 140.30,250.03 142.25,200.00 144.21,249.99 146.16,250.03 148.11,250.03 150.06,250.03 152.02,300.01 153.97,200.04 155.92,250.03 157.88,250.03 159.83,250.03 161.78,249.90 163.73,250.03 165.69,250.03 167.64,250.94 169.59,250.44 171.55,250.03 173.50,250.03 175.45,300.47 177.40,300.01 179.36,300.43 181.31,250.03 183.26,249.99 185.21,300.43 187.17,249.90 189.12,249.99 191.07,249.99 193.03,200.04 194.98,300.01 196.93,300.01 198.88,300.01 200.84,249.90 202.79,300.01 204.74,250.03 206.70,249.99 208.65,199.96 210.60,300.01 212.55,200.00 214.51,250.36 216.46,250.03 218.41,300.01 220.36,300.01 222.32,250.44 224.27,300.01 226.22,250.03 228.18,250.03 230.13,249.99 232.08,250.49 234.03,250.03 235.99,200.04 237.94,300.01 239.89,250.03 241.85,300.01 243.80,250.11 245.75,300.01 247.70,250.03 249.66,250.03 251.61,199.92 253.56,250.03 255.52,250.03 257.47,250.03 259.42,254.36 261.37,300.01 263.33,299.97 265.28,250.36 267.23,299.97 269.18,250.03 271.14,250.03 273.09,250.03 275.04,250.03 277.00,249.99 278.95,200.00 280.90,299.93 282.85,300.01 284.81,299.97 286.76,249.94 288.71,249.99 290.67,249.82 292.62,249.94 294.57,250.28 296.52,207.00 298.48,250.03 300.43,250.32 302.38,250.40 304.33,300.93 306.29,300.01 308.24,300.10 310.19,249.94 312.15,249.99 314.10,250.07 316.05,249.99 318.00,250.03 319.96,249.94 321.91,200.00 323.86,300.39 325.82,300.01 327.77,300.01 329.72,250.44 331.67,300.39 333.63,249.86 335.58,250.11 337.53,201.46 339.48,300.01 341.44,200.83 343.39,250.03 345.34,249.99 347.30,300.26 349.25,300.01 351.20,300.01 353.15,250.03 355.11,250.03 357.06,250.03 359.01,250.03 360.97,249.99 362.92,250.03 364.87,200.00 366.82,300.26 368.78,249.99 370.73,300.01 372.68,249.94 374.64,250.03 376.59,250.03 378.54,250.03 380.49,200.04 382.45,300.01 384.40,249.90 386.35,300.01 388.30,300.01 390.26,300.06 392.21,300.01 394.16,300.01 396.12,243.95 398.07,249.94 400.02,299.97 401.97,300.01 403.93,300.01 405.88,250.03 407.83,300.01 409.79,300.01 411.74,299.97 413.69,249.99 415.64,300.01 417.60,299.93 419.55,300.01 421.50,299.93 423.45,300.01 425.41,300.01 427.36,299.89 429.31,299.97 431.27,250.03 433.22,299.93 435.17,299.89 437.12,299.97 439.08,249.94 441.03,300.01 442.98,300.01 444.94,299.97 446.89,249.99 448.84,299.97 450.79,299.97 452.75,300.06 454.70,300.06 456.65,299.93 458.61,300.01 460.56,300.01 462.51,299.93 464.46,300.01 466.42,300.01 468.37,299.97 470.32,300.01 472.27,300.01 474.23,300.01 476.18,300.01 478.13,249.86 480.09,300.01 482.04,300.10 483.99,299.93 485.94,300.01 487.90,299.93 489.85,300.01 491.80,300.01 493.76,300.01 495.71,300.01 497.66,300.01 499.61,299.97 501.57,300.01 503.52,300.01 505.47,300.01 507.42,300.01 509.38,250.03 511.33,300.01 513.28,300.01 515.24,299.97 517.19,300.01 519.14,300.01 521.09,299.97 523.05,299.97 525.00,300.01 526.95,299.97 528.91,300.01 530.86,299.93 532.81,300.01 534.76,250.03 536.72,300.01 538.67,300.01 540.62,300.01 542.58,300.01 544.53,300.01 546.48,299.89 548.43,300.01 550.39,300.01 552.34,250.07 554.29,300.01 556.24,299.93 558.20,300.01 560.15,299.97 562.10,299.97 564.06,299.97 566.01,250.03 567.96,300.01 569.91,300.01 571.87,300.01 573.82,300.01 575.77,299.97 577.73,300.01 579.68,299.97 581.63,300.01 583.58,299.97 585.54,249.90 587.49,300.01 589.44,300.01 591.39,299.89 593.35,299.97 595.30,299.97 597.25,249.99 599.21,299.97 601.16,299.89 603.11,300.01 605.06,299.97 607.02,299.97 608.97,300.01 610.92,299.97 612.88,249.99 614.83,299.97 616.78,299.97 618.73,300.06 620.69,300.06 622.64,249.94 624.59,300.01 626.55,299.93 628.50,300.01 630.45,300.01 632.40,249.99 634.36,300.01 636.31,300.01 638.26,300.01 640.21,299.93 642.17,299.93 644.12,300.01 646.07,300.01 648.03,249.94 649.98,299.97 651.93,299.97 653.88,300.01 655.84,300.01 657.79,300.01 659.74,249.99 661.70,300.01 663.65,300.01 665.60,300.01 667.55,250.03 669.51,300.01 671.46,300.01 673.41,300.01 675.36,299.97 677.32,300.01 679.27,300.01 681.22,299.97 683.18,299.97 685.13,300.01 687.08,300.01 689.03,299.97 690.99,299.93 692.94,300.01 694.89,300.06 696.85,299.97 698.80,300.01 700.75,250.03 702.70,250.03 704.66,299.93 706.61,299.97 708.56,300.01 710.52,300.01 712.47,300.06 714.42,300.01 716.37,299.93 718.33,300.01 720.28,300.01 722.23,299.97 724.18,299.97 726.14,300.01 728.09,250.03 730.04,300.01 732.00,300.01 733.95,300.01 735.90,299.97 737.85,300.01 739.81,299.97 741.76,300.01 743.71,299.97 745.67,299.97 747.62,299.93 749.57,300.01 751.52,300.01 753.48,299.89 755.43,299.97 757.38,299.97 759.33,300.06 761.29,249.90 763.24,299.89 765.19,300.01 767.15,299.97 769.10,299.97 771.05,299.97 773.00,300.01 774.96,300.01 776.91,299.97 778.86,299.97 780.82,299.97 782.77,250.03 784.72,299.93 786.67,300.01 788.63,300.01 790.58,299.93 792.53,300.01 794.48,300.01 796.44,299.97 798.39,300.01 800.34,300.01 802.30,300.06 804.25,300.01 806.20,299.97 808.15,299.89 810.11,300.01 812.06,300.01 814.01,249.94 815.97,249.94 817.92,300.01 819.87,300.01 821.82,300.01 823.78,300.01 825.73,299.97 827.68,250.03 829.64,300.01 831.59,300.01 833.54,300.01 835.49,300.01 837.45,250.03 839.40,249.99 841.35,300.01 843.30,299.97 845.26,300.01 847.21,299.97 849.16,300.01 851.12,299.97 853.07,299.97 855.02,299.97 856.97,300.06 858.93,249.99 860.88,300.01 862.83,250.03 864.79,249.94 866.74,249.99 868.69,300.01 870.64,300.06 872.60,300.01 874.55,299.97 876.50,299.97 878.45,300.01 880.41,299.93 882.36,299.89 884.31,299.89 886.27,299.89 888.22,299.89 890.17,299.85 892.12,299.85 894.08,299.89 896.03,299.81 897.98,299.81 899.94,299.81 901.89,299.76 903.84,299.76 905.79,299.76 907.75,299.72 909.70,299.68 911.65,299.60 913.61,299.60 915.56,299.60 917.51,299.56 919.46,299.47 921.42,299.43 923.37,299.43 925.32,299.39 927.27,299.47 929.23,259.82 931.18,338.96 933.13,299.31 935.09,299.31 937.04,299.26 938.99,299.68 940.94,299.68 942.90,299.68 944.85,299.64 946.80,299.14 948.76,299.14 950.71,299.10 952.66,299.10 954.61,299.10 956.57,248.07 958.52,299.06 960.47,299.06 962.42,299.06 964.38,299.06 966.33,299.06 968.28,298.97 970.24,298.97 972.19,298.93 974.14,298.97 976.09,298.93 978.05,298.89 980.00,298.89"/>
  <circle cx="70.00" cy="50.00" r="2.5" fill="#2563eb"/>
  <circle cx="71.95" cy="50.12" r="2.5" fill="#2563eb"/>
  <circle cx="73.91" cy="50.17" r="2.5" fill="#2563eb"/>
  <circle cx="75.86" cy="50.46" r="2.5" fill="#2563eb"/>
  <circle cx="77.81" cy="50.00" r="2.5" fill="#2563eb"/>
  <circle cx="79.76" cy="266.90" r="2.5" fill="#2563eb"/>
  <circle cx="81.72" cy="50.12" r="2.5" fill="#2563eb"/>
  <circle cx="83.67" cy="50.08" r="2.5" fill="#2563eb"/>
  <circle cx="85.62" cy="177.46" r="2.5" fill="#2563eb"/>
  <circle cx="87.58" cy="211.58" r="2.5" fill="#2563eb"/>
  <circle cx="89.53" cy="175.34" r="2.5" fill="#2563eb"/>
  <circle cx="91.48" cy="304.14" r="2.5" fill="#2563eb"/>
  <circle cx="93.43" cy="200.46" r="2.5" fill="#2563eb"/>
  <circle cx="95.39" cy="250.94" r="2.5" fill="#2563eb"/>
  <circle cx="97.34" cy="300.01" r="2.5" fill="#2563eb"/>
  <circle cx="99.29" cy="300.06" r="2.5" fill="#2563eb"/>
  <circle cx="101.24" cy="300.01" r="2.5" fill="#2563eb"/>
  <circle cx="103.20" cy="300.01" r="2.5" fill="#2563eb"/>
  <circle cx="105.15" cy="348.00" r="2.5" fill="#2563eb"/>
  <circle cx="107.10" cy="300.01" r="2.5" fill="#2563eb"/>
  <circle cx="109.06" cy="249.99" r="2.5" fill="#2563eb"/>
  <circle cx="111.01" cy="200.00" r="2.5" fill="#2563eb"/>
  <circle cx="112.96" cy="249.99" r="2.5" fill="#2563eb"/>
  <circle cx="114.91" cy="249.99" r="2.5" fill="#2563eb"/>
  <circle cx="116.87" cy="250.03" r="2.5" fill="#2563eb"/>
  <circle cx="118.82" cy="250.03" r="2.5" fill="#2563eb"/>
  <circle cx="120.77" cy="250.03" r="2.5" fill="#2563eb"/>
  <circle cx="122.73" cy="250.40" r="2.5" fill="#2563eb"/>
  <circle cx="124.68" cy="250.90" r="2.5" fill="#2563eb"/>
  <circle cx="126.63" cy="250.90" r="2.5" fill="#2563eb"/>
  <circle cx="128.58" cy="251.32" r="2.5" fill="#2563eb"/>
  <circle cx="130.54" cy="249.94" r="2.5" fill="#2563eb"/>
  <circle cx="132.49" cy="300.01" r="2.5" fill="#2563eb"/>
  <circle cx="134.44" cy="299.93" r="2.5" fill="#2563eb"/>
  <circle cx="136.39" cy="251.03" r="2.5" fill="#2563eb"/>
  <circle cx="138.35" cy="300.68" r="2.5" fill="#2563eb"/>
  <circle cx="140.30" cy="250.03" r="2.5" fill="#2563eb"/>
  <circle cx="142.25" cy="200.00" r="2.5" fill="#2563eb"/>
  <circle cx="144.21" cy="249.99" r="2.5" fill="#2563eb"/>
  <circle cx="146.16" cy="250.03" r="2.5" fill="#2563eb"/>
  <circle cx="148.11" cy="250.03" r="2.5" fill="#2563eb"/>
  <circle cx="150.06" cy="250.03" r="2.5" fill="#2563eb"/>
  <circle cx="152.02" cy="300.01" r="2.5" fill="#2563eb"/>
  <circle cx="153.97" cy="200.04" r="2.5" fill="#2563eb"/>
  <circle cx="155.92" cy="250.03" r="2.5" fill="#2563eb"/>
  <circle cx="157.88" cy="250.03" r="2.5" fill="#2563eb"/>
  <circle cx="159.83" cy="250.03" r="2.5" fill="#2563eb"/>
  <circle cx="161.78" cy="249.90" r="2.5" fill="#2563eb"/>
  <circle cx="163.73" cy="250.03" r="2.5" fill="#2563eb"/>
  <circle cx="165.69" cy="250.03" r="2.5" fill="#2563eb"/>
  <circle cx="167.64" cy="250.94" r="2.5" fill="#2563eb"/>
  <circle cx="169.59" cy="250.44" r="2.5" fill="#2563eb"/>
  <circle cx="171.55" cy="250.03" r="2.5" fill="#2563eb"/>
  <circle cx="173.50" cy="250.03" r="2.5" fill="#2563eb"/>
  <circle cx="175.45" cy="300.47" r="2.5" fill="#2563eb"/>
  <circle cx="177.40" cy="300.01" r="2.5" fill="#2563eb"/>
  <circle cx="179.36" cy="300.43" r="2.5" fill="#2563eb"/>
  <circle cx="181.31" cy="250.03" r="2.5" fill="#2563eb"/>
  <circle cx="183.26" cy="249.99" r="2.5" fill="#2563eb"/>
  <circle cx="185.21" cy="300.43" r="2.5" fill="#2563eb"/>
  <circle cx="187.17" cy="249.90" r="2.5" fill="#2563eb"/>
  <circle cx="189.12" cy="249.99" r="2.5" fill="#2563eb"/>
  <circle cx="191.07" cy="249.99" r="2.5" fill="#2563eb"/>
  <circle cx="193.03" cy="200.04" r="2.5" fill="#2563eb"/>
  <circle cx="194.98" cy="300.01" r="2.5" fill="#2563eb"/>
  <circle cx="196.93" cy="300.01" r="2.5" fill="#2563eb"/>
  <circle cx="198.88" cy="300.01" r="2.5" fill="#2563eb"/>
  <circle cx="200.84" cy="249.90" r="2.5" fill="#2563eb"/>
  <circle cx="202.79" cy="300.01" r="2.5" fill="#2563eb"/>
  <circle cx="204.74" cy="250.03" r="2.5" fill="#2563eb"/>
  <circle cx="206.70" cy="249.99" r="2.5" fill="#2563eb"/>
  <circle cx="208.65" cy="199.96" r="2.5" fill="#2563eb"/>
  <circle cx="210.60" cy="300.01" r="2.5" fill="#2563eb"/>
  <circle cx="212.55" cy="200.00" r="2.5" fill="#2563eb"/>
  <circle cx="214.51" cy="250.36" r="2.5" fill="#2563eb"/>
  <circle cx="216.46" cy="250.03" r="2.5" fill="#2563eb"/>
  <circle cx="218.41" cy="300.01" r="2.5" fill="#2563eb"/>
  <circle cx="220.36" cy="300.01" r="2.5" fill="#2563eb"/>
  <circle cx="222.32" cy="250.44" r="2.5" fill="#2563eb"/>
  <circle cx="224.27" cy="300.01" r="2.5" fill="#2563eb"/>
  <circle cx="226.22" cy="250.03" r="2.5" fill="#2563eb"/>
  <circle cx="228.18" cy="250.03" r="2.5" fill="#2563eb"/>
  <circle cx="230.13" cy="249.99" r="2.5" fill="#2563eb"/>
  <circle cx="232.08" cy="250.49" r="2.5" fill="#2563eb"/>
  <circle cx="234.03" cy="250.03" r="2.5" fill="#2563eb"/>
  <circle cx="235.99" cy="200.04" r="2.5" fill="#2563eb"/>
  <circle cx="237.94" cy="300.01" r="2.5" fill="#2563eb"/>
  <circle cx="239.89" cy="250.03" r="2.5" fill="#2563eb"/>
  <circle cx="241.85" cy="300.01" r="2.5" fill="#2563eb"/>
  <circle cx="243.80" cy="250.11" r="2.5" fill="#2563eb"/>
  <circle cx="245.75" cy="300.01" r="2.5" fill="#2563eb"/>
  <circle cx="247.70" cy="250.03" r="2.5" fill="#2563eb"/>
  <circle cx="249.66" cy="250.03" r="2.5" fill="#2563eb"/>
  <circle cx="251.61" cy="199.92" r="2.5" fill="#2563eb"/>
  <circle cx="253.56" cy="250.03" r="2.5" fill="#2563eb"/>
  <circle cx="255.52" cy="250.03" r="2.5" fill="#2563eb"/>
  <circle cx="257.47" cy="250.03" r="2.5" fill="#2563eb"/>
  <circle cx="259.42" cy="254.36" r="2.5" fill="#2563eb"/>
  <circle cx="261.37" cy="300.01" r="2.5" fill="#2563eb"/>
  <circle cx="263.33" cy="299.97" r="2.5" fill="#2563eb"/>
  <circle cx="265.28" cy="250.36" r="2.5" fill="#2563eb"/>
  <circle cx="267.23" cy="299.97" r="2.5" fill="#2563eb"/>
  <circle cx="269.18" cy="250.03" r="2.5" fill="#2563eb"/>
  <circle cx="271.14" cy="250.03" r="2.5" fill="#2563eb"/>
  <circle cx="273.09" cy="250.03" r="2.5" fill="#2563eb"/>
  <circle cx="275.04" cy="250.03" r="2.5" fill="#2563eb"/>
  <circle cx="277.00" cy="249.99" r="2.5" fill="#2563eb"/>
  <circle cx="278.95" cy="200.00" r="2.5" fill="#2563eb"/>
  <circle cx="280.90" cy="299.93" r="2.5" fill="#2563eb"/>
  <circle cx="282.85" cy="300.01" r="2.5" fill="#2563eb"/>
  <circle cx="284.81" cy="299.97" r="2.5" fill="#2563eb"/>
  <circle cx="286.76" cy="249.94" r="2.5" fill="#2563eb"/>
  <circle cx="288.71" cy="249.99" r="2.5" fill="#2563eb"/>
  <circle cx="290.67" cy="249.82" r="2.5" fill="#2563eb"/>
  <circle cx="292.62" cy="249.94" r="2.5" fill="#2563eb"/>
  <circle cx="294.57" cy="250.28" r="2.5" fill="#2563eb"/>
  <circle cx="296.52" cy="207.00" r="2.5" fill="#2563eb"/>
  <circle cx="298.48" cy="250.03" r="2.5" fill="#2563eb"/>
  <circle cx="300.43" cy="250.32" r="2.5" fill="#2563eb"/>
  <circle cx="302.38" cy="250.40" r="2.5" fill="#2563eb"/>
  <circle cx="304.33" cy="300.93" r="2.5" fill="#2563eb"/>
  <circle cx="306.29" cy="300.01" r="2.5" fill="#2563eb"/>
  <circle cx="308.24" cy="300.10" r="2.5" fill="#2563eb"/>
  <circle cx="310.19" cy="249.94" r="2.5" fill="#2563eb"/>
  <circle cx="312.15" cy="249.99" r="2.5" fill="#2563eb"/>
  <circle cx="314.10" cy="250.07" r="2.5" fill="#2563eb"/>
  <circle cx="316.05" cy="249.99" r="2.5" fill="#2563eb"/>
  <circle cx="318.00" cy="250.03" r="2.5" fill="#2563eb"/>
  <circle cx="319.96" cy="249.94" r="2.5" fill="#2563eb"/>
  <circle cx="321.91" cy="200.00" r="2.5" fill="#2563eb"/>
  <circle cx="323.86" cy="300.39" r="2.5" fill="#2563eb"/>
  <circle cx="325.82" cy="300.01" r="2.5" fill="#2563eb"/>
  <circle cx="327.77" cy="300.01" r="2.5" fill="#2563eb"/>
  <circle cx="329.72" cy="250.44" r="2.5" fill="#2563eb"/>
  <circle cx="331.67" cy="300.39" r="2.5" fill="#2563eb"/>
  <circle cx="333.63" cy="249.86" r="2.5" fill="#2563eb"/>
  <circle cx="335.58" cy="250.11" r="2.5" fill="#2563eb"/>
  <circle cx="337.53" cy="201.46" r="2.5" fill="#2563eb"/>
  <circle cx="339.48" cy="300.01" r="2.5" fill="#2563eb"/>
  <circle cx="341.44" cy="200.83" r="2.5" fill="#2563eb"/>
  <circle cx="343.39" cy="250.03" r="2.5" fill="#2563eb"/>
  <circle cx="345.34" cy="249.99" r="2.5" fill="#2563eb"/>
  <circle cx="347.30" cy="300.26" r="2.5" fill="#2563eb"/>
  <circle cx="349.25" cy="300.01" r="2.5" fill="#2563eb"/>
  <circle cx="351.20" cy="300.01" r="2.5" fill="#2563eb"/>
  <circle cx="353.15" cy="250.03" r="2.5" fill="#2563eb"/>
  <circle cx="355.11" cy="250.03" r="2.5" fill="#2563eb"/>
  <circle cx="357.06" cy="250.03" r="2.5" fill="#2563eb"/>
  <circle cx="359.01" cy="250.03" r="2.5" fill="#2563eb"/>
  <circle cx="360.97" cy="249.99" r="2.5" fill="#2563eb"/>
  <circle cx="362.92" cy="250.03" r="2.5" fill="#2563eb"/>
  <circle cx="364.87" cy="200.00" r="2.5" fill="#2563eb"/>
  <circle cx="366.82" cy="300.26" r="2.5" fill="#2563eb"/>
  <circle cx="368.78" cy="249.99" r="2.5" fill="#2563eb"/>
  <circle cx="370.73" cy="300.01" r="2.5" fill="#2563eb"/>
  <circle cx="372.68" cy="249.94" r="2.5" fill="#2563eb"/>
  <circle cx="374.64" cy="250.03" r="2.5" fill="#2563eb"/>
  <circle cx="376.59" cy="250.03" r="2.5" fill="#2563eb"/>
  <circle cx="378.54" cy="250.03" r="2.5" fill="#2563eb"/>
  <circle cx="380.49" cy="200.04" r="2.5" fill="#2563eb"/>
  <circle cx="382.45" cy="300.01" r="2.5" fill="#2563eb"/>
  <circle cx="384.40" cy="249.90" r="2.5" fill="#2563eb"/>
  <circle cx="386.35" cy="300.01" r="2.5" fill="#2563eb"/>
  <circle cx="388.30" cy="300.01" r="2.5" fill="#2563eb"/>
  <circle cx="390.26" cy="300.06" r="2.5" fill="#2563eb"/>
  <circle cx="392.21" cy="300.01" r="2.5" fill="#2563eb"/>
  <circle cx="394.16" cy="300.01" r="2.5" fill="#2563eb"/>
  <circle cx="396.12" cy="243.95" r="2.5" fill="#2563eb"/>
  <circle cx="398.07" cy="249.94" r="2.5" fill="#2563eb"/>
  <circle cx="400.02" cy="299.97" r="2.5" fill="#2563eb"/>
  <circle cx="401.97" cy="300.01" r="2.5" fill="#2563eb"/>
  <circle cx="403.93" cy="300.01" r="2.5" fill="#2563eb"/>
  <circle cx="405.88" cy="250.03" r="2.5" fill="#2563eb"/>
  <circle cx="407.83" cy="300.01" r="2.5" fill="#2563eb"/>
  <circle cx="409.79" cy="300.01" r="2.5" fill="#2563eb"/>
  <circle cx="411.74" cy="299.97" r="2.5" fill="#2563eb"/>
  <circle cx="413.69" cy="249.99" r="2.5" fill="#2563eb"/>
  <circle cx="415.64" cy="300.01" r="2.5" fill="#2563eb"/>
  <circle cx="417.60" cy="299.93" r="2.5" fill="#2563eb"/>
  <circle cx="419.55" cy="300.01" r="2.5" fill="#2563eb"/>
  <circle cx="421.50" cy="299.93" r="2.5" fill="#2563eb"/>
  <circle cx="423.45" cy="300.01" r="2.5" fill="#2563eb"/>
  <circle cx="425.41" cy="300.01" r="2.5" fill="#2563eb"/>
  <circle cx="427.36" cy="299.89" r="2.5" fill="#2563eb"/>
  <circle cx="429.31" cy="299.97" r="2.5" fill="#2563eb"/>
  <circle cx="431.27" cy="250.03" r="2.5" fill="#2563eb"/>
  <circle cx="433.22" cy="299.93" r="2.5" fill="#2563eb"/>
  <circle cx="435.17" cy="299.89" r="2.5" fill="#2563eb"/>
  <circle cx="437.12" cy="299.97" r="2.5" fill="#2563eb"/>
  <circle cx="439.08" cy="249.94" r="2.5" fill="#2563eb"/>
  <circle cx="441.03" cy="300.01" r="2.5" fill="#2563eb"/>
  <circle cx="442.98" cy="300.01" r="2.5" fill="#2563eb"/>
  <circle cx="444.94" cy="299.97" r="2.5" fill="#2563eb"/>
  <circle cx="446.89" cy="249.99" r="2.5" fill="#2563eb"/>
  <circle cx="448.84" cy="299.97" r="2.5" fill="#2563eb"/>
  <circle cx="450.79" cy="299.97" r="2.5" fill="#2563eb"/>
  <circle cx="452.75" cy="300.06" r="2.5" fill="#2563eb"/>
  <circle cx="454.70" cy="300.06" r="2.5" fill="#2563eb"/>
  <circle cx="456.65" cy="299.93" r="2.5" fill="#2563eb"/>
  <circle cx="458.61" cy="300.01" r="2.5" fill="#2563eb"/>
  <circle cx="460.56" cy="300.01" r="2.5" fill="#2563eb"/>
  <circle cx="462.51" cy="299.93" r="2.5" fill="#2563eb"/>
  <circle cx="464.46" cy="300.01" r="2.5" fill="#2563eb"/>
  <circle cx="466.42" cy="300.01" r="2.5" fill="#2563eb"/>
  <circle cx="468.37" cy="299.97" r="2.5" fill="#2563eb"/>
  <circle cx="470.32" cy="300.01" r="2.5" fill="#2563eb"/>
  <circle cx="472.27" cy="300.01" r="2.5" fill="#2563eb"/>
  <circle cx="474.23" cy="300.01" r="2.5" fill="#2563eb"/>
  <circle cx="476.18" cy="300.01" r="2.5" fill="#2563eb"/>
  <circle cx="478.13" cy="249.86" r="2.5" fill="#2563eb"/>
  <circle cx="480.09" cy="300.01" r="2.5" fill="#2563eb"/>
  <circle cx="482.04" cy="300.10" r="2.5" fill="#2563eb"/>
  <circle cx="483.99" cy="299.93" r="2.5" fill="#2563eb"/>
  <circle cx="485.94" cy="300.01" r="2.5" fill="#2563eb"/>
  <circle cx="487.90" cy="299.93" r="2.5" fill="#2563eb"/>
  <circle cx="489.85" cy="300.01" r="2.5" fill="#2563eb"/>
  <circle cx="491.80" cy="300.01" r="2.5" fill="#2563eb"/>
  <circle cx="493.76" cy="300.01" r="2.5" fill="#2563eb"/>
  <circle cx="495.71" cy="300.01" r="2.5" fill="#2563eb"/>
  <circle cx="497.66" cy="300.01" r="2.5" fill="#2563eb"/>
  <circle cx="499.61" cy="299.97" r="2.5" fill="#2563eb"/>
  <circle cx="501.57" cy="300.01" r="2.5" fill="#2563eb"/>
  <circle cx="503.52" cy="300.01" r="2.5" fill="#2563eb"/>
  <circle cx="505.47" cy="300.01" r="2.5" fill="#2563eb"/>
  <circle cx="507.42" cy="300.01" r="2.5" fill="#2563eb"/>
  <circle cx="509.38" cy="250.03" r="2.5" fill="#2563eb"/>
  <circle cx="511.33" cy="300.01" r="2.5" fill="#2563eb"/>
  <circle cx="513.28" cy="300.01" r="2.5" fill="#2563eb"/>
  <circle cx="515.24" cy="299.97" r="2.5" fill="#2563eb"/>
  <circle cx="517.19" cy="300.01" r="2.5" fill="#2563eb"/>
  <circle cx="519.14" cy="300.01" r="2.5" fill="#2563eb"/>
  <circle cx="521.09" cy="299.97" r="2.5" fill="#2563eb"/>
  <circle cx="523.05" cy="299.97" r="2.5" fill="#2563eb"/>
  <circle cx="525.00" cy="300.01" r="2.5" fill="#2563eb"/>
  <circle cx="526.95" cy="299.97" r="2.5" fill="#2563eb"/>
  <circle cx="528.91" cy="300.01" r="2.5" fill="#2563eb"/>
  <circle cx="530.86" cy="299.93" r="2.5" fill="#2563eb"/>
  <circle cx="532.81" cy="300.01" r="2.5" fill="#2563eb"/>
  <circle cx="534.76" cy="250.03" r="2.5" fill="#2563eb"/>
  <circle cx="536.72" cy="300.01" r="2.5" fill="#2563eb"/>
  <circle cx="538.67" cy="300.01" r="2.5" fill="#2563eb"/>
  <circle cx="540.62" cy="300.01" r="2.5" fill="#2563eb"/>
  <circle cx="542.58" cy="300.01" r="2.5" fill="#2563eb"/>
  <circle cx="544.53" cy="300.01" r="2.5" fill="#2563eb"/>
  <circle cx="546.48" cy="299.89" r="2.5" fill="#2563eb"/>
  <circle cx="548.43" cy="300.01" r="2.5" fill="#2563eb"/>
  <circle cx="550.39" cy="300.01" r="2.5" fill="#2563eb"/>
  <circle cx="552.34" cy="250.07" r="2.5" fill="#2563eb"/>
  <circle cx="554.29" cy="300.01" r="2.5" fill="#2563eb"/>
  <circle cx="556.24" cy="299.93" r="2.5" fill="#2563eb"/>
  <circle cx="558.20" cy="300.01" r="2.5" fill="#2563eb"/>
  <circle cx="560.15" cy="299.97" r="2.5" fill="#2563eb"/>
  <circle cx="562.10" cy="299.97" r="2.5" fill="#2563eb"/>
  <circle cx="564.06" cy="299.97" r="2.5" fill="#2563eb"/>
  <circle cx="566.01" cy="250.03" r="2.5" fill="#2563eb"/>
  <circle cx="567.96" cy="300.01" r="2.5" fill="#2563eb"/>
  <circle cx="569.91" cy="300.01" r="2.5" fill="#2563eb"/>
  <circle cx="571.87" cy="300.01" r="2.5" fill="#2563eb"/>
  <circle cx="573.82" cy="300.01" r="2.5" fill="#2563eb"/>
  <circle cx="575.77" cy="299.97" r="2.5" fill="#2563eb"/>
  <circle cx="577.73" cy="300.01" r="2.5" fill="#2563eb"/>
  <circle cx="579.68" cy="299.97" r="2.5" fill="#2563eb"/>
  <circle cx="581.63" cy="300.01" r="2.5" fill="#2563eb"/>
  <circle cx="583.58" cy="299.97" r="2.5" fill="#2563eb"/>
  <circle cx="585.54" cy="249.90" r="2.5" fill="#2563eb"/>
  <circle cx="587.49" cy="300.01" r="2.5" fill="#2563eb"/>
  <circle cx="589.44" cy="300.01" r="2.5" fill="#2563eb"/>
  <circle cx="591.39" cy="299.89" r="2.5" fill="#2563eb"/>
  <circle cx="593.35" cy="299.97" r="2.5" fill="#2563eb"/>
  <circle cx="595.30" cy="299.97" r="2.5" fill="#2563eb"/>
  <circle cx="597.25" cy="249.99" r="2.5" fill="#2563eb"/>
  <circle cx="599.21" cy="299.97" r="2.5" fill="#2563eb"/>
  <circle cx="601.16" cy="299.89" r="2.5" fill="#2563eb"/>
  <circle cx="603.11" cy="300.01" r="2.5" fill="#2563eb"/>
  <circle cx="605.06" cy="299.97" r="2.5" fill="#2563eb"/>
  <circle cx="607.02" cy="299.97" r="2.5" fill="#2563eb"/>
  <circle cx="608.97" cy="300.01" r="2.5" fill="#2563eb"/>
  <circle cx="610.92" cy="299.97" r="2.5" fill="#2563eb"/>
  <circle cx="612.88" cy="249.99" r="2.5" fill="#2563eb"/>
  <circle cx="614.83" cy="299.97" r="2.5" fill="#2563eb"/>
  <circle cx="616.78" cy="299.97" r="2.5" fill="#2563eb"/>
  <circle cx="618.73" cy="300.06" r="2.5" fill="#2563eb"/>
  <circle cx="620.69" cy="300.06" r="2.5" fill="#2563eb"/>
  <circle cx="622.64" cy="249.94" r="2.5" fill="#2563eb"/>
  <circle cx="624.59" cy="300.01" r="2.5" fill="#2563eb"/>
  <circle cx="626.55" cy="299.93" r="2.5" fill="#2563eb"/>
  <circle cx="628.50" cy="300.01" r="2.5" fill="#2563eb"/>
  <circle cx="630.45" cy="300.01" r="2.5" fill="#2563eb"/>
  <circle cx="632.40" cy="249.99" r="2.5" fill="#2563eb"/>
  <circle cx="634.36" cy="300.01" r="2.5" fill="#2563eb"/>
  <circle cx="636.31" cy="300.01" r="2.5" fill="#2563eb"/>
  <circle cx="638.26" cy="300.01" r="2.5" fill="#2563eb"/>
  <circle cx="640.21" cy="299.93" r="2.5" fill="#2563eb"/>
  <circle cx="642.17" cy="299.93" r="2.5" fill="#2563eb"/>
  <circle cx="644.12" cy="300.01" r="2.5" fill="#2563eb"/>
  <circle cx="646.07" cy="300.01" r="2.5" fill="#2563eb"/>
  <circle cx="648.03" cy="249.94" r="2.5" fill="#2563eb"/>
  <circle cx="649.98" cy="299.97" r="2.5" fill="#2563eb"/>
  <circle cx="651.93" cy="299.97" r="2.5" fill="#2563eb"/>
  <circle cx="653.88" cy="300.01" r="2.5" fill="#2563eb"/>
  <circle cx="655.84" cy="300.01" r="2.5" fill="#2563eb"/>
  <circle cx="657.79" cy="300.01" r="2.5" fill="#2563eb"/>
  <circle cx="659.74" cy="249.99" r="2.5" fill="#2563eb"/>
  <circle cx="661.70" cy="300.01" r="2.5" fill="#2563eb"/>
  <circle cx="663.65" cy="300.01" r="2.5" fill="#2563eb"/>
  <circle cx="665.60" cy="300.01" r="2.5" fill="#2563eb"/>
  <circle cx="667.55" cy="250.03" r="2.5" fill="#2563eb"/>
  <circle cx="669.51" cy="300.01" r="2.5" fill="#2563eb"/>
  <circle cx="671.46" cy="300.01" r="2.5" fill="#2563eb"/>
  <circle cx="673.41" cy="300.01" r="2.5" fill="#2563eb"/>
  <circle cx="675.36" cy="299.97" r="2.5" fill="#2563eb"/>
  <circle cx="677.32" cy="300.01" r="2.5" fill="#2563eb"/>
  <circle cx="679.27" cy="300.01" r="2.5" fill="#2563eb"/>
  <circle cx="681.22" cy="299.97" r="2.5" fill="#2563eb"/>
  <circle cx="683.18" cy="299.97" r="2.5" fill="#2563eb"/>
  <circle cx="685.13" cy="300.01" r="2.5" fill="#2563eb"/>
  <circle cx="687.08" cy="300.01" r="2.5" fill="#2563eb"/>
  <circle cx="689.03" cy="299.97" r="2.5" fill="#2563eb"/>
  <circle cx="690.99" cy="299.93" r="2.5" fill="#2563eb"/>
  <circle cx="692.94" cy="300.01" r="2.5" fill="#2563eb"/>
  <circle cx="694.89" cy="300.06" r="2.5" fill="#2563eb"/>
  <circle cx="696.85" cy="299.97" r="2.5" fill="#2563eb"/>
  <circle cx="698.80" cy="300.01" r="2.5" fill="#2563eb"/>
  <circle cx="700.75" cy="250.03" r="2.5" fill="#2563eb"/>
  <circle cx="702.70" cy="250.03" r="2.5" fill="#2563eb"/>
  <circle cx="704.66" cy="299.93" r="2.5" fill="#2563eb"/>
  <circle cx="706.61" cy="299.97" r="2.5" fill="#2563eb"/>
  <circle cx="708.56" cy="300.01" r="2.5" fill="#2563eb"/>
  <circle cx="710.52" cy="300.01" r="2.5" fill="#2563eb"/>
  <circle cx="712.47" cy="300.06" r="2.5" fill="#2563eb"/>
  <circle cx="714.42" cy="300.01" r="2.5" fill="#2563eb"/>
  <circle cx="716.37" cy="299.93" r="2.5" fill="#2563eb"/>
  <circle cx="718.33" cy="300.01" r="2.5" fill="#2563eb"/>
  <circle cx="720.28" cy="300.01" r="2.5" fill="#2563eb"/>
  <circle cx="722.23" cy="299.97" r="2.5" fill="#2563eb"/>
  <circle cx="724.18" cy="299.97" r="2.5" fill="#2563eb"/>
  <circle cx="726.14" cy="300.01" r="2.5" fill="#2563eb"/>
  <circle cx="728.09" cy="250.03" r="2.5" fill="#2563eb"/>
  <circle cx="730.04" cy="300.01" r="2.5" fill="#2563eb"/>
  <circle cx="732.00" cy="300.01" r="2.5" fill="#2563eb"/>
  <circle cx="733.95" cy="300.01" r="2.5" fill="#2563eb"/>
  <circle cx="735.90" cy="299.97" r="2.5" fill="#2563eb"/>
  <circle cx="737.85" cy="300.01" r="2.5" fill="#2563eb"/>
  <circle cx="739.81" cy="299.97" r="2.5" fill="#2563eb"/>
  <circle cx="741.76" cy="300.01" r="2.5" fill="#2563eb"/>
  <circle cx="743.71" cy="299.97" r="2.5" fill="#2563eb"/>
  <circle cx="745.67" cy="299.97" r="2.5" fill="#2563eb"/>
  <circle cx="747.62" cy="299.93" r="2.5" fill="#2563eb"/>
  <circle cx="749.57" cy="300.01" r="2.5" fill="#2563eb"/>
  <circle cx="751.52" cy="300.01" r="2.5" fill="#2563eb"/>
  <circle cx="753.48" cy="299.89" r="2.5" fill="#2563eb"/>
  <circle cx="755.43" cy="299.97" r="2.5" fill="#2563eb"/>
  <circle cx="757.38" cy="299.97" r="2.5" fill="#2563eb"/>
  <circle cx="759.33" cy="300.06" r="2.5" fill="#2563eb"/>
  <circle cx="761.29" cy="249.90" r="2.5" fill="#2563eb"/>
  <circle cx="763.24" cy="299.89" r="2.5" fill="#2563eb"/>
  <circle cx="765.19" cy="300.01" r="2.5" fill="#2563eb"/>
  <circle cx="767.15" cy="299.97" r="2.5" fill="#2563eb"/>
  <circle cx="769.10" cy="299.97" r="2.5" fill="#2563eb"/>
  <circle cx="771.05" cy="299.97" r="2.5" fill="#2563eb"/>
  <circle cx="773.00" cy="300.01" r="2.5" fill="#2563eb"/>
  <circle cx="774.96" cy="300.01" r="2.5" fill="#2563eb"/>
  <circle cx="776.91" cy="299.97" r="2.5" fill="#2563eb"/>
  <circle cx="778.86" cy="299.97" r="2.5" fill="#2563eb"/>
  <circle cx="780.82" cy="299.97" r="2.5" fill="#2563eb"/>
  <circle cx="782.77" cy="250.03" r="2.5" fill="#2563eb"/>
  <circle cx="784.72" cy="299.93" r="2.5" fill="#2563eb"/>
  <circle cx="786.67" cy="300.01" r="2.5" fill="#2563eb"/>
  <circle cx="788.63" cy="300.01" r="2.5" fill="#2563eb"/>
  <circle cx="790.58" cy="299.93" r="2.5" fill="#2563eb"/>
  <circle cx="792.53" cy="300.01" r="2.5" fill="#2563eb"/>
  <circle cx="794.48" cy="300.01" r="2.5" fill="#2563eb"/>
  <circle cx="796.44" cy="299.97" r="2.5" fill="#2563eb"/>
  <circle cx="798.39" cy="300.01" r="2.5" fill="#2563eb"/>
  <circle cx="800.34" cy="300.01" r="2.5" fill="#2563eb"/>
  <circle cx="802.30" cy="300.06" r="2.5" fill="#2563eb"/>
  <circle cx="804.25" cy="300.01" r="2.5" fill="#2563eb"/>
  <circle cx="806.20" cy="299.97" r="2.5" fill="#2563eb"/>
  <circle cx="808.15" cy="299.89" r="2.5" fill="#2563eb"/>
  <circle cx="810.11" cy="300.01" r="2.5" fill="#2563eb"/>
  <circle cx="812.06" cy="300.01" r="2.5" fill="#2563eb"/>
  <circle cx="814.01" cy="249.94" r="2.5" fill="#2563eb"/>
  <circle cx="815.97" cy="249.94" r="2.5" fill="#2563eb"/>
  <circle cx="817.92" cy="300.01" r="2.5" fill="#2563eb"/>
  <circle cx="819.87" cy="300.01" r="2.5" fill="#2563eb"/>
  <circle cx="821.82" cy="300.01" r="2.5" fill="#2563eb"/>
  <circle cx="823.78" cy="300.01" r="2.5" fill="#2563eb"/>
  <circle cx="825.73" cy="299.97" r="2.5" fill="#2563eb"/>
  <circle cx="827.68" cy="250.03" r="2.5" fill="#2563eb"/>
  <circle cx="829.64" cy="300.01" r="2.5" fill="#2563eb"/>
  <circle cx="831.59" cy="300.01" r="2.5" fill="#2563eb"/>
  <circle cx="833.54" cy="300.01" r="2.5" fill="#2563eb"/>
  <circle cx="835.49" cy="300.01" r="2.5" fill="#2563eb"/>
  <circle cx="837.45" cy="250.03" r="2.5" fill="#2563eb"/>
  <circle cx="839.40" cy="249.99" r="2.5" fill="#2563eb"/>
  <circle cx="841.35" cy="300.01" r="2.5" fill="#2563eb"/>
  <circle cx="843.30" cy="299.97" r="2.5" fill="#2563eb"/>
  <circle cx="845.26" cy="300.01" r="2.5" fill="#2563eb"/>
  <circle cx="847.21" cy="299.97" r="2.5" fill="#2563eb"/>
  <circle cx="849.16" cy="300.01" r="2.5" fill="#2563eb"/>
  <circle cx="851.12" cy="299.97" r="2.5" fill="#2563eb"/>
  <circle cx="853.07" cy="299.97" r="2.5" fill="#2563eb"/>
  <circle cx="855.02" cy="299.97" r="2.5" fill="#2563eb"/>
  <circle cx="856.97" cy="300.06" r="2.5" fill="#2563eb"/>
  <circle cx="858.93" cy="249.99" r="2.5" fill="#2563eb"/>
  <circle cx="860.88" cy="300.01" r="2.5" fill="#2563eb"/>
  <circle cx="862.83" cy="250.03" r="2.5" fill="#2563eb"/>
  <circle cx="864.79" cy="249.94" r="2.5" fill="#2563eb"/>
  <circle cx="866.74" cy="249.99" r="2.5" fill="#2563eb"/>
  <circle cx="868.69" cy="300.01" r="2.5" fill="#2563eb"/>
  <circle cx="870.64" cy="300.06" r="2.5" fill="#2563eb"/>
  <circle cx="872.60" cy="300.01" r="2.5" fill="#2563eb"/>
  <circle cx="874.55" cy="299.97" r="2.5" fill="#2563eb"/>
  <circle cx="876.50" cy="299.97" r="2.5" fill="#2563eb"/>
  <circle cx="878.45" cy="300.01" r="2.5" fill="#2563eb"/>
  <circle cx="880.41" cy="299.93" r="2.5" fill="#2563eb"/>
  <circle cx="882.36" cy="299.89" r="2.5" fill="#2563eb"/>
  <circle cx="884.31" cy="299.89" r="2.5" fill="#2563eb"/>
  <circle cx="886.27" cy="299.89" r="2.5" fill="#2563eb"/>
  <circle cx="888.22" cy="299.89" r="2.5" fill="#2563eb"/>
  <circle cx="890.17" cy="299.85" r="2.5" fill="#2563eb"/>
  <circle cx="892.12" cy="299.85" r="2.5" fill="#2563eb"/>
  <circle cx="894.08" cy="299.89" r="2.5" fill="#2563eb"/>
  <circle cx="896.03" cy="299.81" r="2.5" fill="#2563eb"/>
  <circle cx="897.98" cy="299.81" r="2.5" fill="#2563eb"/>
  <circle cx="899.94" cy="299.81" r="2.5" fill="#2563eb"/>
  <circle cx="901.89" cy="299.76" r="2.5" fill="#2563eb"/>
  <circle cx="903.84" cy="299.76" r="2.5" fill="#2563eb"/>
  <circle cx="905.79" cy="299.76" r="2.5" fill="#2563eb"/>
  <circle cx="907.75" cy="299.72" r="2.5" fill="#2563eb"/>
  <circle cx="909.70" cy="299.68" r="2.5" fill="#2563eb"/>
  <circle cx="911.65" cy="299.60" r="2.5" fill="#2563eb"/>
  <circle cx="913.61" cy="299.60" r="2.5" fill="#2563eb"/>
  <circle cx="915.56" cy="299.60" r="2.5" fill="#2563eb"/>
  <circle cx="917.51" cy="299.56" r="2.5" fill="#2563eb"/>
  <circle cx="919.46" cy="299.47" r="2.5" fill="#2563eb"/>
  <circle cx="921.42" cy="299.43" r="2.5" fill="#2563eb"/>
  <circle cx="923.37" cy="299.43" r="2.5" fill="#2563eb"/>
  <circle cx="925.32" cy="299.39" r="2.5" fill="#2563eb"/>
  <circle cx="927.27" cy="299.47" r="2.5" fill="#2563eb"/>
  <circle cx="929.23" cy="259.82" r="2.5" fill="#2563eb"/>
  <circle cx="931.18" cy="338.96" r="2.5" fill="#2563eb"/>
  <circle cx="933.13" cy="299.31" r="2.5" fill="#2563eb"/>
  <circle cx="935.09" cy="299.31" r="2.5" fill="#2563eb"/>
  <circle cx="937.04" cy="299.26" r="2.5" fill="#2563eb"/>
  <circle cx="938.99" cy="299.68" r="2.5" fill="#2563eb"/>
  <circle cx="940.94" cy="299.68" r="2.5" fill="#2563eb"/>
  <circle cx="942.90" cy="299.68" r="2.5" fill="#2563eb"/>
  <circle cx="944.85" cy="299.64" r="2.5" fill="#2563eb"/>
  <circle cx="946.80" cy="299.14" r="2.5" fill="#2563eb"/>
  <circle cx="948.76" cy="299.14" r="2.5" fill="#2563eb"/>
  <circle cx="950.71" cy="299.10" r="2.5" fill="#2563eb"/>
  <circle cx="952.66" cy="299.10" r="2.5" fill="#2563eb"/>
  <circle cx="954.61" cy="299.10" r="2.5" fill="#2563eb"/>
  <circle cx="956.57" cy="248.07" r="2.5" fill="#2563eb"/>
  <circle cx="958.52" cy="299.06" r="2.5" fill="#2563eb"/>
  <circle cx="960.47" cy="299.06" r="2.5" fill="#2563eb"/>
  <circle cx="962.42" cy="299.06" r="2.5" fill="#2563eb"/>
  <circle cx="964.38" cy="299.06" r="2.5" fill="#2563eb"/>
  <circle cx="966.33" cy="299.06" r="2.5" fill="#2563eb"/>
  <circle cx="968.28" cy="298.97" r="2.5" fill="#2563eb"/>
  <circle cx="970.24" cy="298.97" r="2.5" fill="#2563eb"/>
  <circle cx="972.19" cy="298.93" r="2.5" fill="#2563eb"/>
  <circle cx="974.14" cy="298.97" r="2.5" fill="#2563eb"/>
  <circle cx="976.09" cy="298.93" r="2.5" fill="#2563eb"/>
  <circle cx="978.05" cy="298.89" r="2.5" fill="#2563eb"/>
  <circle cx="980.00" cy="298.89" r="2.5" fill="#2563eb"/>
</svg>
