<?xml version="1.0" encoding="UTF-8"?>
<svg xmlns="http://www.w3.org/2000/svg" width="1000" height="420" viewBox="0 0 1000 420">
  <rect width="100%" height="100%" fill="#ffffff"/>
  <text x="70" y="28" font-size="20" font-weight="600">수집 시점 기준 - 시간별 스냅샷</text>
  <text x="70" y="402" font-size="12" fill="#555">스냅샷 수</text>
  <line x1="70" y1="350.00" x2="980" y2="350.00" stroke="#e5e7eb" stroke-width="1"/>
  <text x="62" y="354.00" font-size="11" fill="#6b7280" text-anchor="end">0</text>
  <line x1="70" y1="290.00" x2="980" y2="290.00" stroke="#e5e7eb" stroke-width="1"/>
  <text x="62" y="294.00" font-size="11" fill="#6b7280" text-anchor="end">1,440</text>
  <line x1="70" y1="230.00" x2="980" y2="230.00" stroke="#e5e7eb" stroke-width="1"/>
  <text x="62" y="234.00" font-size="11" fill="#6b7280" text-anchor="end">2,880</text>
  <line x1="70" y1="170.00" x2="980" y2="170.00" stroke="#e5e7eb" stroke-width="1"/>
  <text x="62" y="174.00" font-size="11" fill="#6b7280" text-anchor="end">4,321</text>
  <line x1="70" y1="110.00" x2="980" y2="110.00" stroke="#e5e7eb" stroke-width="1"/>
  <text x="62" y="114.00" font-size="11" fill="#6b7280" text-anchor="end">5,761</text>
  <line x1="70" y1="50.00" x2="980" y2="50.00" stroke="#e5e7eb" stroke-width="1"/>
  <text x="62" y="54.00" font-size="11" fill="#6b7280" text-anchor="end">7,202</text>
  <line x1="70" y1="350" x2="980" y2="350" stroke="#111827" stroke-width="1.2"/>
  <line x1="70" y1="50" x2="70" y2="350" stroke="#111827" stroke-width="1.2"/>
  <line x1="70.00" y1="350" x2="70.00" y2="356" stroke="#9ca3af" stroke-width="1"/>
  <text x="70.00" y="372" font-size="10" fill="#6b7280" text-anchor="middle">2026-02-28 18</text>
  <line x1="145.34" y1="350" x2="145.34" y2="356" stroke="#9ca3af" stroke-width="1"/>
  <text x="145.34" y="372" font-size="10" fill="#6b7280" text-anchor="middle">2026-03-09 21</text>
  <line x1="220.69" y1="350" x2="220.69" y2="356" stroke="#9ca3af" stroke-width="1"/>
  <text x="220.69" y="372" font-size="10" fill="#6b7280" text-anchor="middle">2026-03-12 19</text>
  <line x1="296.03" y1="350" x2="296.03" y2="356" stroke="#9ca3af" stroke-width="1"/>
  <text x="296.03" y="372" font-size="10" fill="#6b7280" text-anchor="middle">2026-03-16 02</text>
  <line x1="371.37" y1="350" x2="371.37" y2="356" stroke="#9ca3af" stroke-width="1"/>
  <text x="371.37" y="372" font-size="10" fill="#6b7280" text-anchor="middle">2026-03-20 08</text>
  <line x1="446.71" y1="350" x2="446.71" y2="356" stroke="#9ca3af" stroke-width="1"/>
  <text x="446.71" y="372" font-size="10" fill="#6b7280" text-anchor="middle">2026-03-24 03</text>
  <line x1="522.06" y1="350" x2="522.06" y2="356" stroke="#9ca3af" stroke-width="1"/>
  <text x="522.06" y="372" font-size="10" fill="#6b7280" text-anchor="middle">2026-03-28 14</text>
  <line x1="597.40" y1="350" x2="597.40" y2="356" stroke="#9ca3af" stroke-width="1"/>
  <text x="597.40" y="372" font-size="10" fill="#6b7280" text-anchor="middle">2026-04-02 00</text>
  <line x1="672.74" y1="350" x2="672.74" y2="356" stroke="#9ca3af" stroke-width="1"/>
  <text x="672.74" y="372" font-size="10" fill="#6b7280" text-anchor="middle">2026-04-06 05</text>
  <line x1="748.09" y1="350" x2="748.09" y2="356" stroke="#9ca3af" stroke-width="1"/>
  <text x="748.09" y="372" font-size="10" fill="#6b7280" text-anchor="middle">2026-04-10 21</text>
  <line x1="823.43" y1="350" x2="823.43" y2="356" stroke="#9ca3af" stroke-width="1"/>
  <text x="823.43" y="372" font-size="10" fill="#6b7280" text-anchor="middle">2026-04-15 09</text>
  <line x1="898.77" y1="350" x2="898.77" y2="356" stroke="#9ca3af" stroke-width="1"/>
  <text x="898.77" y="372" font-size="10" fill="#6b7280" text-anchor="middle">2026-04-20 00</text>
  <line x1="974.11" y1="350" x2="974.11" y2="356" stroke="#9ca3af" stroke-width="1"/>
  <text x="974.11" y="372" font-size="10" fill="#6b7280" text-anchor="middle">2026-04-24 17</text>
  <line x1="980.00" y1="350" x2="980.00" y2="356" stroke="#9ca3af" stroke-width="1"/>
  <text x="980.00" y="372" font-size="10" fill="#6b7280" text-anchor="middle">2026-04-25 03</text>
  <polyline fill="none" stroke="#2563eb" stroke-width="2.5" points="70.00,50.00 71.18,50.12 72.35,50.17 73.53,50.46 74.71,50.00 75.89,266.90 77.06,50.12 78.24,50.08 79.42,177.46 80.60,211.58 81.77,175.34 82.95,304.14 84.13,200.46 85.30,250.94 86.48,300.01 87.66,300.06 88.84,300.01 90.01,300.01 91.19,348.00 92.37,300.01 93.54,249.99 94.72,200.00 95.90,249.99 97.08,249.99 98.25,250.03 99.43,250.03 100.61,250.03 101.79,250.40 102.96,250.90 104.14,250.90 105.32,251.32 106.49,249.94 107.67,300.01 108.85,299.93 110.03,251.03 111.20,300.68 112.38,250.03 113.56,200.00 114.73,249.99 115.91,250.03 117.09,250.03 118.27,250.03 119.44,300.01 120.62,200.04 121.80,250.03 122.98,250.03 124.15,250.03 125.33,249.90 126.51,250.03 127.68,250.03 128.86,250.94 130.04,250.44 131.22,250.03 132.39,250.03 133.57,300.47 134.75,300.01 135.92,300.43 137.10,250.03 138.28,249.99 139.46,300.43 140.63,249.90 141.81,249.99 142.99,249.99 144.17,200.04 145.34,300.01 146.52,300.01 147.70,300.01 148.87,249.90 150.05,300.01 151.23,250.03 152.41,249.99 153.58,199.96 154.76,300.01 155.94,200.00 157.12,250.36 158.29,250.03 159.47,300.01 160.65,300.01 161.82,250.44 163.00,300.01 164.18,250.03 165.36,250.03 166.53,249.99 167.71,250.49 168.89,250.03 170.06,200.04 171.24,300.01 172.42,250.03 173.60,300.01 174.77,250.11 175.95,300.01 177.13,250.03 178.31,250.03 179.48,199.92 180.66,250.03 181.84,250.03 183.01,250.03 184.19,254.36 185.37,300.01 186.55,299.97 187.72,250.36 188.90,299.97 190.08,250.03 191.25,250.03 192.43,250.03 193.61,250.03 194.79,249.99 195.96,200.00 197.14,299.93 198.32,300.01 199.50,299.97 200.67,249.94 201.85,249.99 203.03,249.82 204.20,249.94 205.38,250.28 206.56,207.00 207.74,250.03 208.91,250.32 210.09,250.40 211.27,300.93 212.45,300.01 213.62,300.10 214.80,249.94 215.98,249.99 217.15,250.07 218.33,249.99 219.51,250.03 220.69,249.94 221.86,200.00 223.04,300.39 224.22,300.01 225.39,300.01 226.57,250.44 227.75,300.39 228.93,249.86 230.10,250.11 231.28,201.46 232.46,300.01 233.64,200.83 234.81,250.03 235.99,249.99 237.17,300.26 238.34,300.01 239.52,300.01 240.70,250.03 241.88,250.03 243.05,250.03 244.23,250.03 245.41,249.99 246.58,250.03 247.76,200.00 248.94,300.26 250.12,249.99 251.29,300.01 252.47,249.94 253.65,250.03 254.83,250.03 256.00,250.03 257.18,200.04 258.36,300.01 259.53,249.90 260.71,300.01 261.89,300.01 263.07,300.06 264.24,300.01 265.42,300.01 266.60,243.95 267.77,249.94 268.95,299.97 270.13,300.01 271.31,300.01 272.48,250.03 273.66,300.01 274.84,300.01 276.02,299.97 277.19,249.99 278.37,300.01 279.55,299.93 280.72,300.01 281.90,299.93 283.08,300.01 284.26,300.01 285.43,299.89 286.61,299.97 287.79,250.03 288.97,299.93 290.14,299.89 291.32,299.97 292.50,249.94 293.67,300.01 294.85,300.01 296.03,299.97 297.21,249.99 298.38,299.97 299.56,299.97 300.74,300.06 301.91,300.06 303.09,299.93 304.27,300.01 305.45,300.01 306.62,299.93 307.80,300.01 308.98,300.01 310.16,299.97 311.33,300.01 312.51,300.01 313.69,300.01 314.86,300.01 316.04,249.86 317.22,300.01 318.40,300.10 319.57,299.93 320.75,300.01 321.93,299.93 323.10,300.01 324.28,300.01 325.46,300.01 326.64,300.01 327.81,300.01 328.99,299.97 330.17,300.01 331.35,300.01 332.52,300.01 333.70,300.01 334.88,250.03 336.05,300.01 337.23,300.01 338.41,299.97 339.59,300.01 340.76,300.01 341.94,299.97 343.12,299.97 344.29,300.01 345.47,299.97 346.65,300.01 347.83,299.93 349.00,300.01 350.18,250.03 351.36,300.01 352.54,300.01 353.71,300.01 354.89,300.01 356.07,300.01 357.24,299.89 358.42,300.01 359.60,300.01 360.78,250.07 361.95,300.01 363.13,299.93 364.31,300.01 365.49,299.97 366.66,299.97 367.84,299.97 369.02,250.03 370.19,300.01 371.37,300.01 372.55,300.01 373.73,300.01 374.90,299.97 376.08,300.01 377.26,299.97 378.43,300.01 379.61,299.97 380.79,249.90 381.97,300.01 383.14,300.01 384.32,299.89 385.50,299.97 386.68,299.97 387.85,249.99 389.03,299.97 390.21,299.89 391.38,300.01 392.56,299.97 393.74,299.97 394.92,300.01 396.09,299.97 397.27,249.99 398.45,299.97 399.62,299.97 400.80,300.06 401.98,300.06 403.16,249.94 404.33,300.01 405.51,299.93 406.69,300.01 407.87,300.01 409.04,249.99 410.22,300.01 411.40,300.01 412.57,300.01 413.75,299.93 414.93,299.93 416.11,300.01 417.28,300.01 418.46,249.94 419.64,299.97 420.82,299.97 421.99,300.01 423.17,300.01 424.35,300.01 425.52,249.99 426.70,300.01 427.88,300.01 429.06,300.01 430.23,250.03 431.41,300.01 432.59,300.01 433.76,300.01 434.94,299.97 436.12,300.01 437.30,300.01 438.47,299.97 439.65,299.97 440.83,300.01 442.01,300.01 443.18,299.97 444.36,299.93 445.54,300.01 446.71,300.06 447.89,299.97 449.07,300.01 450.25,250.03 451.42,250.03 452.60,299.93 453.78,299.97 454.95,300.01 456.13,300.01 457.31,300.06 458.49,300.01 459.66,299.93 460.84,300.01 462.02,300.01 463.20,299.97 464.37,299.97 465.55,300.01 466.73,250.03 467.90,300.01 469.08,300.01 470.26,300.01 471.44,299.97 472.61,300.01 473.79,299.97 474.97,300.01 476.14,299.97 477.32,299.97 478.50,299.93 479.68,300.01 480.85,300.01 482.03,299.89 483.21,299.97 484.39,299.97 485.56,300.06 486.74,249.90 487.92,299.89 489.09,300.01 490.27,299.97 491.45,299.97 492.63,299.97 493.80,300.01 494.98,300.01 496.16,299.97 497.34,299.97 498.51,299.97 499.69,250.03 500.87,299.93 502.04,300.01 503.22,300.01 504.40,299.93 505.58,300.01 506.75,300.01 507.93,299.97 509.11,300.01 510.28,300.01 511.46,300.06 512.64,300.01 513.82,299.97 514.99,299.89 516.17,300.01 517.35,300.01 518.53,249.94 519.70,249.94 520.88,300.01 522.06,300.01 523.23,300.01 524.41,300.01 525.59,299.97 526.77,250.03 527.94,300.01 529.12,300.01 530.30,300.01 531.47,300.01 532.65,250.03 533.83,249.99 535.01,300.01 536.18,299.97 537.36,300.01 538.54,299.97 539.72,300.01 540.89,299.97 542.07,299.97 543.25,299.97 544.42,300.06 545.60,249.99 546.78,300.01 547.96,250.03 549.13,249.94 550.31,249.99 551.49,300.01 552.66,300.06 553.84,300.01 555.02,299.97 556.20,299.97 557.37,300.01 558.55,299.93 559.73,299.89 560.91,299.89 562.08,299.89 563.26,299.89 564.44,299.85 565.61,299.85 566.79,299.89 567.97,299.81 569.15,299.81 570.32,299.81 571.50,299.76 572.68,299.76 573.86,299.76 575.03,299.72 576.21,299.68 577.39,299.60 578.56,299.60 579.74,299.60 580.92,299.56 582.10,299.47 583.27,299.43 584.45,299.43 585.63,299.39 586.80,299.47 587.98,259.82 589.16,338.96 590.34,299.31 591.51,299.31 592.69,299.26 593.87,299.68 595.05,299.68 596.22,299.68 597.40,299.64 598.58,299.14 599.75,299.14 600.93,299.10 602.11,299.10 603.29,299.10 604.46,248.07 605.64,299.06 606.82,299.06 607.99,299.06 609.17,299.06 610.35,299.06 611.53,298.97 612.70,298.97 613.88,298.93 615.06,298.97 616.24,298.93 617.41,298.89 618.59,298.89 619.77,298.89 620.94,298.89 622.12,247.78 623.30,298.89 624.48,298.89 625.65,298.85 626.83,298.85 628.01,298.81 629.18,298.81 630.36,298.81 631.54,298.81 632.72,298.81 633.89,298.81 635.07,298.81 636.25,298.81 637.43,298.81 638.60,298.72 639.78,247.45 640.96,247.45 642.13,298.72 643.31,298.72 644.49,298.72 645.67,298.72 646.84,298.72 648.02,298.72 649.20,247.36 650.38,298.68 651.55,247.36 652.73,247.36 653.91,247.36 655.08,298.68 656.26,298.68 657.44,298.68 658.62,298.68 659.79,298.68 660.97,341.67 662.15,307.01 663.32,298.68 664.50,298.68 665.68,298.68 666.86,247.36 668.03,298.64 669.21,247.36 670.39,247.28 671.57,247.20 672.74,298.60 673.92,298.60 675.10,247.03 676.27,298.51 677.45,298.51 678.63,298.51 679.81,298.51 680.98,298.51 682.16,298.51 683.34,298.51 684.51,298.51 685.69,298.51 686.87,298.51 688.05,298.51 689.22,298.51 690.40,298.51 691.58,298.51 692.76,298.51 693.93,298.51 695.11,298.51 696.29,298.51 697.46,298.51 698.64,298.51 699.82,298.51 701.00,298.51 702.17,298.51 703.35,298.51 704.53,298.51 705.71,298.51 706.88,298.47 708.06,298.51 709.24,298.51 710.41,298.47 711.59,298.51 712.77,298.47 713.95,298.51 715.12,298.43 716.30,298.56 717.48,298.43 718.65,298.43 719.83,298.43 721.01,298.43 722.19,298.43 723.36,298.43 724.54,298.43 725.72,298.43 726.90,298.43 728.07,298.43 729.25,298.43 730.43,298.43 731.60,298.43 732.78,298.43 733.96,298.43 735.14,298.43 736.31,298.43 737.49,298.43 738.67,298.43 739.84,298.43 741.02,298.43 742.20,298.43 743.38,298.43 744.55,298.43 745.73,298.43 746.91,298.43 748.09,298.43 749.26,298.43 750.44,298.43 751.62,298.43 752.79,298.43 753.97,298.43 755.15,298.43 756.33,298.43 757.50,298.39 758.68,298.39 759.86,298.43 761.03,298.43 762.21,298.39 763.39,298.39 764.57,298.39 765.74,298.43 766.92,298.43 768.10,298.43 769.28,246.82 770.45,298.43 771.63,246.78 772.81,246.78 773.98,246.78 775.16,246.70 776.34,246.78 777.52,298.39 778.69,298.39 779.87,298.39 781.05,298.39 782.23,298.39 783.40,246.78 784.58,298.39 785.76,298.39 786.93,298.39 788.11,298.39 789.29,298.39 790.47,246.78 791.64,246.78 792.82,298.39 794.00,298.39 795.17,298.39 796.35,298.39 797.53,298.39 798.71,298.39 799.88,298.39 801.06,298.39 802.24,298.39 803.42,298.39 804.59,298.39 805.77,298.39 806.95,298.39 808.12,298.39 809.30,298.35 810.48,298.39 811.66,298.39 812.83,298.35 814.01,298.35 815.19,298.35 816.36,298.35 817.54,298.35 818.72,298.35 819.90,298.35 821.07,298.35 822.25,298.35 823.43,298.35 824.61,298.35 825.78,298.35 826.96,298.35 828.14,298.35 829.31,298.35 830.49,298.35 831.67,298.35 832.85,298.35 834.02,298.35 835.20,298.35 836.38,298.35 837.55,298.35 838.73,298.35 839.91,298.35 841.09,298.35 842.26,298.35 843.44,298.35 844.62,298.35 845.80,298.35 846.97,298.35 848.15,298.35 849.33,298.35 850.50,298.35 851.68,298.35 852.86,298.35 854.04,298.35 855.21,298.35 856.39,298.35 857.57,298.35 858.75,298.35 859.92,298.35 861.10,298.35 862.28,298.35 863.45,298.35 864.63,298.35 865.81,298.35 866.99,298.35 868.16,298.35 869.34,298.35 870.52,298.35 871.69,298.35 872.87,298.35 874.05,298.39 875.23,298.39 876.40,298.39 877.58,246.78 878.76,298.39 879.94,298.39 881.11,298.39 882.29,298.39 883.47,298.39 884.64,298.39 885.82,298.39 887.00,246.78 888.18,298.39 889.35,298.39 890.53,298.39 891.71,298.39 892.88,298.39 894.06,298.39 895.24,298.39 896.42,246.78 897.59,298.39 898.77,298.39 899.95,298.39 901.13,298.39 902.30,298.39 903.48,298.39 904.66,298.39 905.83,298.39 907.01,298.39 908.19,298.39 909.37,298.39 910.54,298.35 911.72,298.39 912.90,298.39 914.08,298.39 915.25,298.35 916.43,298.35 917.61,298.35 918.78,298.35 919.96,298.35 921.14,298.35 922.32,298.35 923.49,298.35 924.67,298.35 925.85,298.35 927.02,298.35 928.20,298.35 929.38,298.35 930.56,298.35 931.73,298.35 932.91,298.35 934.09,298.39 935.27,298.39 936.44,298.39 937.62,298.39 938.80,298.39 939.97,298.39 941.15,298.35 942.33,298.39 943.51,298.39 944.68,298.39 945.86,298.39 947.04,298.39 948.21,298.39 949.39,298.39 950.57,298.39 951.75,298.39 952.92,298.35 954.10,298.39 955.28,298.39 956.46,298.39 957.63,298.39 958.81,298.39 959.99,298.39 961.16,298.39 962.34,298.39 963.52,298.39 964.70,298.39 965.87,298.39 967.05,298.39 968.23,298.39 969.40,298.39 970.58,298.39 971.76,298.39 972.94,298.35 974.11,298.35 975.29,298.39 976.47,298.39 977.65,298.39 978.82,298.39 980.00,298.39"/>
  <circle cx="70.00" cy="50.00" r="2.5" fill="#2563eb"/>
  <circle cx="71.18" cy="50.12" r="2.5" fill="#2563eb"/>
  <circle cx="72.35" cy="50.17" r="2.5" fill="#2563eb"/>
  <circle cx="73.53" cy="50.46" r="2.5" fill="#2563eb"/>
  <circle cx="74.71" cy="50.00" r="2.5" fill="#2563eb"/>
  <circle cx="75.89" cy="266.90" r="2.5" fill="#2563eb"/>
  <circle cx="77.06" cy="50.12" r="2.5" fill="#2563eb"/>
  <circle cx="78.24" cy="50.08" r="2.5" fill="#2563eb"/>
  <circle cx="79.42" cy="177.46" r="2.5" fill="#2563eb"/>
  <circle cx="80.60" cy="211.58" r="2.5" fill="#2563eb"/>
  <circle cx="81.77" cy="175.34" r="2.5" fill="#2563eb"/>
  <circle cx="82.95" cy="304.14" r="2.5" fill="#2563eb"/>
  <circle cx="84.13" cy="200.46" r="2.5" fill="#2563eb"/>
  <circle cx="85.30" cy="250.94" r="2.5" fill="#2563eb"/>
  <circle cx="86.48" cy="300.01" r="2.5" fill="#2563eb"/>
  <circle cx="87.66" cy="300.06" r="2.5" fill="#2563eb"/>
  <circle cx="88.84" cy="300.01" r="2.5" fill="#2563eb"/>
  <circle cx="90.01" cy="300.01" r="2.5" fill="#2563eb"/>
  <circle cx="91.19" cy="348.00" r="2.5" fill="#2563eb"/>
  <circle cx="92.37" cy="300.01" r="2.5" fill="#2563eb"/>
  <circle cx="93.54" cy="249.99" r="2.5" fill="#2563eb"/>
  <circle cx="94.72" cy="200.00" r="2.5" fill="#2563eb"/>
  <circle cx="95.90" cy="249.99" r="2.5" fill="#2563eb"/>
  <circle cx="97.08" cy="249.99" r="2.5" fill="#2563eb"/>
  <circle cx="98.25" cy="250.03" r="2.5" fill="#2563eb"/>
  <circle cx="99.43" cy="250.03" r="2.5" fill="#2563eb"/>
  <circle cx="100.61" cy="250.03" r="2.5" fill="#2563eb"/>
  <circle cx="101.79" cy="250.40" r="2.5" fill="#2563eb"/>
  <circle cx="102.96" cy="250.90" r="2.5" fill="#2563eb"/>
  <circle cx="104.14" cy="250.90" r="2.5" fill="#2563eb"/>
  <circle cx="105.32" cy="251.32" r="2.5" fill="#2563eb"/>
  <circle cx="106.49" cy="249.94" r="2.5" fill="#2563eb"/>
  <circle cx="107.67" cy="300.01" r="2.5" fill="#2563eb"/>
  <circle cx="108.85" cy="299.93" r="2.5" fill="#2563eb"/>
  <circle cx="110.03" cy="251.03" r="2.5" fill="#2563eb"/>
  <circle cx="111.20" cy="300.68" r="2.5" fill="#2563eb"/>
  <circle cx="112.38" cy="250.03" r="2.5" fill="#2563eb"/>
  <circle cx="113.56" cy="200.00" r="2.5" fill="#2563eb"/>
  <circle cx="114.73" cy="249.99" r="2.5" fill="#2563eb"/>
  <circle cx="115.91" cy="250.03" r="2.5" fill="#2563eb"/>
  <circle cx="117.09" cy="250.03" r="2.5" fill="#2563eb"/>
  <circle cx="118.27" cy="250.03" r="2.5" fill="#2563eb"/>
  <circle cx="119.44" cy="300.01" r="2.5" fill="#2563eb"/>
  <circle cx="120.62" cy="200.04" r="2.5" fill="#2563eb"/>
  <circle cx="121.80" cy="250.03" r="2.5" fill="#2563eb"/>
  <circle cx="122.98" cy="250.03" r="2.5" fill="#2563eb"/>
  <circle cx="124.15" cy="250.03" r="2.5" fill="#2563eb"/>
  <circle cx="125.33" cy="249.90" r="2.5" fill="#2563eb"/>
  <circle cx="126.51" cy="250.03" r="2.5" fill="#2563eb"/>
  <circle cx="127.68" cy="250.03" r="2.5" fill="#2563eb"/>
  <circle cx="128.86" cy="250.94" r="2.5" fill="#2563eb"/>
  <circle cx="130.04" cy="250.44" r="2.5" fill="#2563eb"/>
  <circle cx="131.22" cy="250.03" r="2.5" fill="#2563eb"/>
  <circle cx="132.39" cy="250.03" r="2.5" fill="#2563eb"/>
  <circle cx="133.57" cy="300.47" r="2.5" fill="#2563eb"/>
  <circle cx="134.75" cy="300.01" r="2.5" fill="#2563eb"/>
  <circle cx="135.92" cy="300.43" r="2.5" fill="#2563eb"/>
  <circle cx="137.10" cy="250.03" r="2.5" fill="#2563eb"/>
  <circle cx="138.28" cy="249.99" r="2.5" fill="#2563eb"/>
  <circle cx="139.46" cy="300.43" r="2.5" fill="#2563eb"/>
  <circle cx="140.63" cy="249.90" r="2.5" fill="#2563eb"/>
  <circle cx="141.81" cy="249.99" r="2.5" fill="#2563eb"/>
  <circle cx="142.99" cy="249.99" r="2.5" fill="#2563eb"/>
  <circle cx="144.17" cy="200.04" r="2.5" fill="#2563eb"/>
  <circle cx="145.34" cy="300.01" r="2.5" fill="#2563eb"/>
  <circle cx="146.52" cy="300.01" r="2.5" fill="#2563eb"/>
  <circle cx="147.70" cy="300.01" r="2.5" fill="#2563eb"/>
  <circle cx="148.87" cy="249.90" r="2.5" fill="#2563eb"/>
  <circle cx="150.05" cy="300.01" r="2.5" fill="#2563eb"/>
  <circle cx="151.23" cy="250.03" r="2.5" fill="#2563eb"/>
  <circle cx="152.41" cy="249.99" r="2.5" fill="#2563eb"/>
  <circle cx="153.58" cy="199.96" r="2.5" fill="#2563eb"/>
  <circle cx="154.76" cy="300.01" r="2.5" fill="#2563eb"/>
  <circle cx="155.94" cy="200.00" r="2.5" fill="#2563eb"/>
  <circle cx="157.12" cy="250.36" r="2.5" fill="#2563eb"/>
  <circle cx="158.29" cy="250.03" r="2.5" fill="#2563eb"/>
  <circle cx="159.47" cy="300.01" r="2.5" fill="#2563eb"/>
  <circle cx="160.65" cy="300.01" r="2.5" fill="#2563eb"/>
  <circle cx="161.82" cy="250.44" r="2.5" fill="#2563eb"/>
  <circle cx="163.00" cy="300.01" r="2.5" fill="#2563eb"/>
  <circle cx="164.18" cy="250.03" r="2.5" fill="#2563eb"/>
  <circle cx="165.36" cy="250.03" r="2.5" fill="#2563eb"/>
  <circle cx="166.53" cy="249.99" r="2.5" fill="#2563eb"/>
  <circle cx="167.71" cy="250.49" r="2.5" fill="#2563eb"/>
  <circle cx="168.89" cy="250.03" r="2.5" fill="#2563eb"/>
  <circle cx="170.06" cy="200.04" r="2.5" fill="#2563eb"/>
  <circle cx="171.24" cy="300.01" r="2.5" fill="#2563eb"/>
  <circle cx="172.42" cy="250.03" r="2.5" fill="#2563eb"/>
  <circle cx="173.60" cy="300.01" r="2.5" fill="#2563eb"/>
  <circle cx="174.77" cy="250.11" r="2.5" fill="#2563eb"/>
  <circle cx="175.95" cy="300.01" r="2.5" fill="#2563eb"/>
  <circle cx="177.13" cy="250.03" r="2.5" fill="#2563eb"/>
  <circle cx="178.31" cy="250.03" r="2.5" fill="#2563eb"/>
  <circle cx="179.48" cy="199.92" r="2.5" fill="#2563eb"/>
  <circle cx="180.66" cy="250.03" r="2.5" fill="#2563eb"/>
  <circle cx="181.84" cy="250.03" r="2.5" fill="#2563eb"/>
  <circle cx="183.01" cy="250.03" r="2.5" fill="#2563eb"/>
  <circle cx="184.19" cy="254.36" r="2.5" fill="#2563eb"/>
  <circle cx="185.37" cy="300.01" r="2.5" fill="#2563eb"/>
  <circle cx="186.55" cy="299.97" r="2.5" fill="#2563eb"/>
  <circle cx="187.72" cy="250.36" r="2.5" fill="#2563eb"/>
  <circle cx="188.90" cy="299.97" r="2.5" fill="#2563eb"/>
  <circle cx="190.08" cy="250.03" r="2.5" fill="#2563eb"/>
  <circle cx="191.25" cy="250.03" r="2.5" fill="#2563eb"/>
  <circle cx="192.43" cy="250.03" r="2.5" fill="#2563eb"/>
  <circle cx="193.61" cy="250.03" r="2.5" fill="#2563eb"/>
  <circle cx="194.79" cy="249.99" r="2.5" fill="#2563eb"/>
  <circle cx="195.96" cy="200.00" r="2.5" fill="#2563eb"/>
  <circle cx="197.14" cy="299.93" r="2.5" fill="#2563eb"/>
  <circle cx="198.32" cy="300.01" r="2.5" fill="#2563eb"/>
  <circle cx="199.50" cy="299.97" r="2.5" fill="#2563eb"/>
  <circle cx="200.67" cy="249.94" r="2.5" fill="#2563eb"/>
  <circle cx="201.85" cy="249.99" r="2.5" fill="#2563eb"/>
  <circle cx="203.03" cy="249.82" r="2.5" fill="#2563eb"/>
  <circle cx="204.20" cy="249.94" r="2.5" fill="#2563eb"/>
  <circle cx="205.38" cy="250.28" r="2.5" fill="#2563eb"/>
  <circle cx="206.56" cy="207.00" r="2.5" fill="#2563eb"/>
  <circle cx="207.74" cy="250.03" r="2.5" fill="#2563eb"/>
  <circle cx="208.91" cy="250.32" r="2.5" fill="#2563eb"/>
  <circle cx="210.09" cy="250.40" r="2.5" fill="#2563eb"/>
  <circle cx="211.27" cy="300.93" r="2.5" fill="#2563eb"/>
  <circle cx="212.45" cy="300.01" r="2.5" fill="#2563eb"/>
  <circle cx="213.62" cy="300.10" r="2.5" fill="#2563eb"/>
  <circle cx="214.80" cy="249.94" r="2.5" fill="#2563eb"/>
  <circle cx="215.98" cy="249.99" r="2.5" fill="#2563eb"/>
  <circle cx="217.15" cy="250.07" r="2.5" fill="#2563eb"/>
  <circle cx="218.33" cy="249.99" r="2.5" fill="#2563eb"/>
  <circle cx="219.51" cy="250.03" r="2.5" fill="#2563eb"/>
  <circle cx="220.69" cy="249.94" r="2.5" fill="#2563eb"/>
  <circle cx="221.86" cy="200.00" r="2.5" fill="#2563eb"/>
  <circle cx="223.04" cy="300.39" r="2.5" fill="#2563eb"/>
  <circle cx="224.22" cy="300.01" r="2.5" fill="#2563eb"/>
  <circle cx="225.39" cy="300.01" r="2.5" fill="#2563eb"/>
  <circle cx="226.57" cy="250.44" r="2.5" fill="#2563eb"/>
  <circle cx="227.75" cy="300.39" r="2.5" fill="#2563eb"/>
  <circle cx="228.93" cy="249.86" r="2.5" fill="#2563eb"/>
  <circle cx="230.10" cy="250.11" r="2.5" fill="#2563eb"/>
  <circle cx="231.28" cy="201.46" r="2.5" fill="#2563eb"/>
  <circle cx="232.46" cy="300.01" r="2.5" fill="#2563eb"/>
  <circle cx="233.64" cy="200.83" r="2.5" fill="#2563eb"/>
  <circle cx="234.81" cy="250.03" r="2.5" fill="#2563eb"/>
  <circle cx="235.99" cy="249.99" r="2.5" fill="#2563eb"/>
  <circle cx="237.17" cy="300.26" r="2.5" fill="#2563eb"/>
  <circle cx="238.34" cy="300.01" r="2.5" fill="#2563eb"/>
  <circle cx="239.52" cy="300.01" r="2.5" fill="#2563eb"/>
  <circle cx="240.70" cy="250.03" r="2.5" fill="#2563eb"/>
  <circle cx="241.88" cy="250.03" r="2.5" fill="#2563eb"/>
  <circle cx="243.05" cy="250.03" r="2.5" fill="#2563eb"/>
  <circle cx="244.23" cy="250.03" r="2.5" fill="#2563eb"/>
  <circle cx="245.41" cy="249.99" r="2.5" fill="#2563eb"/>
  <circle cx="246.58" cy="250.03" r="2.5" fill="#2563eb"/>
  <circle cx="247.76" cy="200.00" r="2.5" fill="#2563eb"/>
  <circle cx="248.94" cy="300.26" r="2.5" fill="#2563eb"/>
  <circle cx="250.12" cy="249.99" r="2.5" fill="#2563eb"/>
  <circle cx="251.29" cy="300.01" r="2.5" fill="#2563eb"/>
  <circle cx="252.47" cy="249.94" r="2.5" fill="#2563eb"/>
  <circle cx="253.65" cy="250.03" r="2.5" fill="#2563eb"/>
  <circle cx="254.83" cy="250.03" r="2.5" fill="#2563eb"/>
  <circle cx="256.00" cy="250.03" r="2.5" fill="#2563eb"/>
  <circle cx="257.18" cy="200.04" r="2.5" fill="#2563eb"/>
  <circle cx="258.36" cy="300.01" r="2.5" fill="#2563eb"/>
  <circle cx="259.53" cy="249.90" r="2.5" fill="#2563eb"/>
  <circle cx="260.71" cy="300.01" r="2.5" fill="#2563eb"/>
  <circle cx="261.89" cy="300.01" r="2.5" fill="#2563eb"/>
  <circle cx="263.07" cy="300.06" r="2.5" fill="#2563eb"/>
  <circle cx="264.24" cy="300.01" r="2.5" fill="#2563eb"/>
  <circle cx="265.42" cy="300.01" r="2.5" fill="#2563eb"/>
  <circle cx="266.60" cy="243.95" r="2.5" fill="#2563eb"/>
  <circle cx="267.77" cy="249.94" r="2.5" fill="#2563eb"/>
  <circle cx="268.95" cy="299.97" r="2.5" fill="#2563eb"/>
  <circle cx="270.13" cy="300.01" r="2.5" fill="#2563eb"/>
  <circle cx="271.31" cy="300.01" r="2.5" fill="#2563eb"/>
  <circle cx="272.48" cy="250.03" r="2.5" fill="#2563eb"/>
  <circle cx="273.66" cy="300.01" r="2.5" fill="#2563eb"/>
  <circle cx="274.84" cy="300.01" r="2.5" fill="#2563eb"/>
  <circle cx="276.02" cy="299.97" r="2.5" fill="#2563eb"/>
  <circle cx="277.19" cy="249.99" r="2.5" fill="#2563eb"/>
  <circle cx="278.37" cy="300.01" r="2.5" fill="#2563eb"/>
  <circle cx="279.55" cy="299.93" r="2.5" fill="#2563eb"/>
  <circle cx="280.72" cy="300.01" r="2.5" fill="#2563eb"/>
  <circle cx="281.90" cy="299.93" r="2.5" fill="#2563eb"/>
  <circle cx="283.08" cy="300.01" r="2.5" fill="#2563eb"/>
  <circle cx="284.26" cy="300.01" r="2.5" fill="#2563eb"/>
  <circle cx="285.43" cy="299.89" r="2.5" fill="#2563eb"/>
  <circle cx="286.61" cy="299.97" r="2.5" fill="#2563eb"/>
  <circle cx="287.79" cy="250.03" r="2.5" fill="#2563eb"/>
  <circle cx="288.97" cy="299.93" r="2.5" fill="#2563eb"/>
  <circle cx="290.14" cy="299.89" r="2.5" fill="#2563eb"/>
  <circle cx="291.32" cy="299.97" r="2.5" fill="#2563eb"/>
  <circle cx="292.50" cy="249.94" r="2.5" fill="#2563eb"/>
  <circle cx="293.67" cy="300.01" r="2.5" fill="#2563eb"/>
  <circle cx="294.85" cy="300.01" r="2.5" fill="#2563eb"/>
  <circle cx="296.03" cy="299.97" r="2.5" fill="#2563eb"/>
  <circle cx="297.21" cy="249.99" r="2.5" fill="#2563eb"/>
  <circle cx="298.38" cy="299.97" r="2.5" fill="#2563eb"/>
  <circle cx="299.56" cy="299.97" r="2.5" fill="#2563eb"/>
  <circle cx="300.74" cy="300.06" r="2.5" fill="#2563eb"/>
  <circle cx="301.91" cy="300.06" r="2.5" fill="#2563eb"/>
  <circle cx="303.09" cy="299.93" r="2.5" fill="#2563eb"/>
  <circle cx="304.27" cy="300.01" r="2.5" fill="#2563eb"/>
  <circle cx="305.45" cy="300.01" r="2.5" fill="#2563eb"/>
  <circle cx="306.62" cy="299.93" r="2.5" fill="#2563eb"/>
  <circle cx="307.80" cy="300.01" r="2.5" fill="#2563eb"/>
  <circle cx="308.98" cy="300.01" r="2.5" fill="#2563eb"/>
  <circle cx="310.16" cy="299.97" r="2.5" fill="#2563eb"/>
  <circle cx="311.33" cy="300.01" r="2.5" fill="#2563eb"/>
  <circle cx="312.51" cy="300.01" r="2.5" fill="#2563eb"/>
  <circle cx="313.69" cy="300.01" r="2.5" fill="#2563eb"/>
  <circle cx="314.86" cy="300.01" r="2.5" fill="#2563eb"/>
  <circle cx="316.04" cy="249.86" r="2.5" fill="#2563eb"/>
  <circle cx="317.22" cy="300.01" r="2.5" fill="#2563eb"/>
  <circle cx="318.40" cy="300.10" r="2.5" fill="#2563eb"/>
  <circle cx="319.57" cy="299.93" r="2.5" fill="#2563eb"/>
  <circle cx="320.75" cy="300.01" r="2.5" fill="#2563eb"/>
  <circle cx="321.93" cy="299.93" r="2.5" fill="#2563eb"/>
  <circle cx="323.10" cy="300.01" r="2.5" fill="#2563eb"/>
  <circle cx="324.28" cy="300.01" r="2.5" fill="#2563eb"/>
  <circle cx="325.46" cy="300.01" r="2.5" fill="#2563eb"/>
  <circle cx="326.64" cy="300.01" r="2.5" fill="#2563eb"/>
  <circle cx="327.81" cy="300.01" r="2.5" fill="#2563eb"/>
  <circle cx="328.99" cy="299.97" r="2.5" fill="#2563eb"/>
  <circle cx="330.17" cy="300.01" r="2.5" fill="#2563eb"/>
  <circle cx="331.35" cy="300.01" r="2.5" fill="#2563eb"/>
  <circle cx="332.52" cy="300.01" r="2.5" fill="#2563eb"/>
  <circle cx="333.70" cy="300.01" r="2.5" fill="#2563eb"/>
  <circle cx="334.88" cy="250.03" r="2.5" fill="#2563eb"/>
  <circle cx="336.05" cy="300.01" r="2.5" fill="#2563eb"/>
  <circle cx="337.23" cy="300.01" r="2.5" fill="#2563eb"/>
  <circle cx="338.41" cy="299.97" r="2.5" fill="#2563eb"/>
  <circle cx="339.59" cy="300.01" r="2.5" fill="#2563eb"/>
  <circle cx="340.76" cy="300.01" r="2.5" fill="#2563eb"/>
  <circle cx="341.94" cy="299.97" r="2.5" fill="#2563eb"/>
  <circle cx="343.12" cy="299.97" r="2.5" fill="#2563eb"/>
  <circle cx="344.29" cy="300.01" r="2.5" fill="#2563eb"/>
  <circle cx="345.47" cy="299.97" r="2.5" fill="#2563eb"/>
  <circle cx="346.65" cy="300.01" r="2.5" fill="#2563eb"/>
  <circle cx="347.83" cy="299.93" r="2.5" fill="#2563eb"/>
  <circle cx="349.00" cy="300.01" r="2.5" fill="#2563eb"/>
  <circle cx="350.18" cy="250.03" r="2.5" fill="#2563eb"/>
  <circle cx="351.36" cy="300.01" r="2.5" fill="#2563eb"/>
  <circle cx="352.54" cy="300.01" r="2.5" fill="#2563eb"/>
  <circle cx="353.71" cy="300.01" r="2.5" fill="#2563eb"/>
  <circle cx="354.89" cy="300.01" r="2.5" fill="#2563eb"/>
  <circle cx="356.07" cy="300.01" r="2.5" fill="#2563eb"/>
  <circle cx="357.24" cy="299.89" r="2.5" fill="#2563eb"/>
  <circle cx="358.42" cy="300.01" r="2.5" fill="#2563eb"/>
  <circle cx="359.60" cy="300.01" r="2.5" fill="#2563eb"/>
  <circle cx="360.78" cy="250.07" r="2.5" fill="#2563eb"/>
  <circle cx="361.95" cy="300.01" r="2.5" fill="#2563eb"/>
  <circle cx="363.13" cy="299.93" r="2.5" fill="#2563eb"/>
  <circle cx="364.31" cy="300.01" r="2.5" fill="#2563eb"/>
  <circle cx="365.49" cy="299.97" r="2.5" fill="#2563eb"/>
  <circle cx="366.66" cy="299.97" r="2.5" fill="#2563eb"/>
  <circle cx="367.84" cy="299.97" r="2.5" fill="#2563eb"/>
  <circle cx="369.02" cy="250.03" r="2.5" fill="#2563eb"/>
  <circle cx="370.19" cy="300.01" r="2.5" fill="#2563eb"/>
  <circle cx="371.37" cy="300.01" r="2.5" fill="#2563eb"/>
  <circle cx="372.55" cy="300.01" r="2.5" fill="#2563eb"/>
  <circle cx="373.73" cy="300.01" r="2.5" fill="#2563eb"/>
  <circle cx="374.90" cy="299.97" r="2.5" fill="#2563eb"/>
  <circle cx="376.08" cy="300.01" r="2.5" fill="#2563eb"/>
  <circle cx="377.26" cy="299.97" r="2.5" fill="#2563eb"/>
  <circle cx="378.43" cy="300.01" r="2.5" fill="#2563eb"/>
  <circle cx="379.61" cy="299.97" r="2.5" fill="#2563eb"/>
  <circle cx="380.79" cy="249.90" r="2.5" fill="#2563eb"/>
  <circle cx="381.97" cy="300.01" r="2.5" fill="#2563eb"/>
  <circle cx="383.14" cy="300.01" r="2.5" fill="#2563eb"/>
  <circle cx="384.32" cy="299.89" r="2.5" fill="#2563eb"/>
  <circle cx="385.50" cy="299.97" r="2.5" fill="#2563eb"/>
  <circle cx="386.68" cy="299.97" r="2.5" fill="#2563eb"/>
  <circle cx="387.85" cy="249.99" r="2.5" fill="#2563eb"/>
  <circle cx="389.03" cy="299.97" r="2.5" fill="#2563eb"/>
  <circle cx="390.21" cy="299.89" r="2.5" fill="#2563eb"/>
  <circle cx="391.38" cy="300.01" r="2.5" fill="#2563eb"/>
  <circle cx="392.56" cy="299.97" r="2.5" fill="#2563eb"/>
  <circle cx="393.74" cy="299.97" r="2.5" fill="#2563eb"/>
  <circle cx="394.92" cy="300.01" r="2.5" fill="#2563eb"/>
  <circle cx="396.09" cy="299.97" r="2.5" fill="#2563eb"/>
  <circle cx="397.27" cy="249.99" r="2.5" fill="#2563eb"/>
  <circle cx="398.45" cy="299.97" r="2.5" fill="#2563eb"/>
  <circle cx="399.62" cy="299.97" r="2.5" fill="#2563eb"/>
  <circle cx="400.80" cy="300.06" r="2.5" fill="#2563eb"/>
  <circle cx="401.98" cy="300.06" r="2.5" fill="#2563eb"/>
  <circle cx="403.16" cy="249.94" r="2.5" fill="#2563eb"/>
  <circle cx="404.33" cy="300.01" r="2.5" fill="#2563eb"/>
  <circle cx="405.51" cy="299.93" r="2.5" fill="#2563eb"/>
  <circle cx="406.69" cy="300.01" r="2.5" fill="#2563eb"/>
  <circle cx="407.87" cy="300.01" r="2.5" fill="#2563eb"/>
  <circle cx="409.04" cy="249.99" r="2.5" fill="#2563eb"/>
  <circle cx="410.22" cy="300.01" r="2.5" fill="#2563eb"/>
  <circle cx="411.40" cy="300.01" r="2.5" fill="#2563eb"/>
  <circle cx="412.57" cy="300.01" r="2.5" fill="#2563eb"/>
  <circle cx="413.75" cy="299.93" r="2.5" fill="#2563eb"/>
  <circle cx="414.93" cy="299.93" r="2.5" fill="#2563eb"/>
  <circle cx="416.11" cy="300.01" r="2.5" fill="#2563eb"/>
  <circle cx="417.28" cy="300.01" r="2.5" fill="#2563eb"/>
  <circle cx="418.46" cy="249.94" r="2.5" fill="#2563eb"/>
  <circle cx="419.64" cy="299.97" r="2.5" fill="#2563eb"/>
  <circle cx="420.82" cy="299.97" r="2.5" fill="#2563eb"/>
  <circle cx="421.99" cy="300.01" r="2.5" fill="#2563eb"/>
  <circle cx="423.17" cy="300.01" r="2.5" fill="#2563eb"/>
  <circle cx="424.35" cy="300.01" r="2.5" fill="#2563eb"/>
  <circle cx="425.52" cy="249.99" r="2.5" fill="#2563eb"/>
  <circle cx="426.70" cy="300.01" r="2.5" fill="#2563eb"/>
  <circle cx="427.88" cy="300.01" r="2.5" fill="#2563eb"/>
  <circle cx="429.06" cy="300.01" r="2.5" fill="#2563eb"/>
  <circle cx="430.23" cy="250.03" r="2.5" fill="#2563eb"/>
  <circle cx="431.41" cy="300.01" r="2.5" fill="#2563eb"/>
  <circle cx="432.59" cy="300.01" r="2.5" fill="#2563eb"/>
  <circle cx="433.76" cy="300.01" r="2.5" fill="#2563eb"/>
  <circle cx="434.94" cy="299.97" r="2.5" fill="#2563eb"/>
  <circle cx="436.12" cy="300.01" r="2.5" fill="#2563eb"/>
  <circle cx="437.30" cy="300.01" r="2.5" fill="#2563eb"/>
  <circle cx="438.47" cy="299.97" r="2.5" fill="#2563eb"/>
  <circle cx="439.65" cy="299.97" r="2.5" fill="#2563eb"/>
  <circle cx="440.83" cy="300.01" r="2.5" fill="#2563eb"/>
  <circle cx="442.01" cy="300.01" r="2.5" fill="#2563eb"/>
  <circle cx="443.18" cy="299.97" r="2.5" fill="#2563eb"/>
  <circle cx="444.36" cy="299.93" r="2.5" fill="#2563eb"/>
  <circle cx="445.54" cy="300.01" r="2.5" fill="#2563eb"/>
  <circle cx="446.71" cy="300.06" r="2.5" fill="#2563eb"/>
  <circle cx="447.89" cy="299.97" r="2.5" fill="#2563eb"/>
  <circle cx="449.07" cy="300.01" r="2.5" fill="#2563eb"/>
  <circle cx="450.25" cy="250.03" r="2.5" fill="#2563eb"/>
  <circle cx="451.42" cy="250.03" r="2.5" fill="#2563eb"/>
  <circle cx="452.60" cy="299.93" r="2.5" fill="#2563eb"/>
  <circle cx="453.78" cy="299.97" r="2.5" fill="#2563eb"/>
  <circle cx="454.95" cy="300.01" r="2.5" fill="#2563eb"/>
  <circle cx="456.13" cy="300.01" r="2.5" fill="#2563eb"/>
  <circle cx="457.31" cy="300.06" r="2.5" fill="#2563eb"/>
  <circle cx="458.49" cy="300.01" r="2.5" fill="#2563eb"/>
  <circle cx="459.66" cy="299.93" r="2.5" fill="#2563eb"/>
  <circle cx="460.84" cy="300.01" r="2.5" fill="#2563eb"/>
  <circle cx="462.02" cy="300.01" r="2.5" fill="#2563eb"/>
  <circle cx="463.20" cy="299.97" r="2.5" fill="#2563eb"/>
  <circle cx="464.37" cy="299.97" r="2.5" fill="#2563eb"/>
  <circle cx="465.55" cy="300.01" r="2.5" fill="#2563eb"/>
  <circle cx="466.73" cy="250.03" r="2.5" fill="#2563eb"/>
  <circle cx="467.90" cy="300.01" r="2.5" fill="#2563eb"/>
  <circle cx="469.08" cy="300.01" r="2.5" fill="#2563eb"/>
  <circle cx="470.26" cy="300.01" r="2.5" fill="#2563eb"/>
  <circle cx="471.44" cy="299.97" r="2.5" fill="#2563eb"/>
  <circle cx="472.61" cy="300.01" r="2.5" fill="#2563eb"/>
  <circle cx="473.79" cy="299.97" r="2.5" fill="#2563eb"/>
  <circle cx="474.97" cy="300.01" r="2.5" fill="#2563eb"/>
  <circle cx="476.14" cy="299.97" r="2.5" fill="#2563eb"/>
  <circle cx="477.32" cy="299.97" r="2.5" fill="#2563eb"/>
  <circle cx="478.50" cy="299.93" r="2.5" fill="#2563eb"/>
  <circle cx="479.68" cy="300.01" r="2.5" fill="#2563eb"/>
  <circle cx="480.85" cy="300.01" r="2.5" fill="#2563eb"/>
  <circle cx="482.03" cy="299.89" r="2.5" fill="#2563eb"/>
  <circle cx="483.21" cy="299.97" r="2.5" fill="#2563eb"/>
  <circle cx="484.39" cy="299.97" r="2.5" fill="#2563eb"/>
  <circle cx="485.56" cy="300.06" r="2.5" fill="#2563eb"/>
  <circle cx="486.74" cy="249.90" r="2.5" fill="#2563eb"/>
  <circle cx="487.92" cy="299.89" r="2.5" fill="#2563eb"/>
  <circle cx="489.09" cy="300.01" r="2.5" fill="#2563eb"/>
  <circle cx="490.27" cy="299.97" r="2.5" fill="#2563eb"/>
  <circle cx="491.45" cy="299.97" r="2.5" fill="#2563eb"/>
  <circle cx="492.63" cy="299.97" r="2.5" fill="#2563eb"/>
  <circle cx="493.80" cy="300.01" r="2.5" fill="#2563eb"/>
  <circle cx="494.98" cy="300.01" r="2.5" fill="#2563eb"/>
  <circle cx="496.16" cy="299.97" r="2.5" fill="#2563eb"/>
  <circle cx="497.34" cy="299.97" r="2.5" fill="#2563eb"/>
  <circle cx="498.51" cy="299.97" r="2.5" fill="#2563eb"/>
  <circle cx="499.69" cy="250.03" r="2.5" fill="#2563eb"/>
  <circle cx="500.87" cy="299.93" r="2.5" fill="#2563eb"/>
  <circle cx="502.04" cy="300.01" r="2.5" fill="#2563eb"/>
  <circle cx="503.22" cy="300.01" r="2.5" fill="#2563eb"/>
  <circle cx="504.40" cy="299.93" r="2.5" fill="#2563eb"/>
  <circle cx="505.58" cy="300.01" r="2.5" fill="#2563eb"/>
  <circle cx="506.75" cy="300.01" r="2.5" fill="#2563eb"/>
  <circle cx="507.93" cy="299.97" r="2.5" fill="#2563eb"/>
  <circle cx="509.11" cy="300.01" r="2.5" fill="#2563eb"/>
  <circle cx="510.28" cy="300.01" r="2.5" fill="#2563eb"/>
  <circle cx="511.46" cy="300.06" r="2.5" fill="#2563eb"/>
  <circle cx="512.64" cy="300.01" r="2.5" fill="#2563eb"/>
  <circle cx="513.82" cy="299.97" r="2.5" fill="#2563eb"/>
  <circle cx="514.99" cy="299.89" r="2.5" fill="#2563eb"/>
  <circle cx="516.17" cy="300.01" r="2.5" fill="#2563eb"/>
  <circle cx="517.35" cy="300.01" r="2.5" fill="#2563eb"/>
  <circle cx="518.53" cy="249.94" r="2.5" fill="#2563eb"/>
  <circle cx="519.70" cy="249.94" r="2.5" fill="#2563eb"/>
  <circle cx="520.88" cy="300.01" r="2.5" fill="#2563eb"/>
  <circle cx="522.06" cy="300.01" r="2.5" fill="#2563eb"/>
  <circle cx="523.23" cy="300.01" r="2.5" fill="#2563eb"/>
  <circle cx="524.41" cy="300.01" r="2.5" fill="#2563eb"/>
  <circle cx="525.59" cy="299.97" r="2.5" fill="#2563eb"/>
  <circle cx="526.77" cy="250.03" r="2.5" fill="#2563eb"/>
  <circle cx="527.94" cy="300.01" r="2.5" fill="#2563eb"/>
  <circle cx="529.12" cy="300.01" r="2.5" fill="#2563eb"/>
  <circle cx="530.30" cy="300.01" r="2.5" fill="#2563eb"/>
  <circle cx="531.47" cy="300.01" r="2.5" fill="#2563eb"/>
  <circle cx="532.65" cy="250.03" r="2.5" fill="#2563eb"/>
  <circle cx="533.83" cy="249.99" r="2.5" fill="#2563eb"/>
  <circle cx="535.01" cy="300.01" r="2.5" fill="#2563eb"/>
  <circle cx="536.18" cy="299.97" r="2.5" fill="#2563eb"/>
  <circle cx="537.36" cy="300.01" r="2.5" fill="#2563eb"/>
  <circle cx="538.54" cy="299.97" r="2.5" fill="#2563eb"/>
  <circle cx="539.72" cy="300.01" r="2.5" fill="#2563eb"/>
  <circle cx="540.89" cy="299.97" r="2.5" fill="#2563eb"/>
  <circle cx="542.07" cy="299.97" r="2.5" fill="#2563eb"/>
  <circle cx="543.25" cy="299.97" r="2.5" fill="#2563eb"/>
  <circle cx="544.42" cy="300.06" r="2.5" fill="#2563eb"/>
  <circle cx="545.60" cy="249.99" r="2.5" fill="#2563eb"/>
  <circle cx="546.78" cy="300.01" r="2.5" fill="#2563eb"/>
  <circle cx="547.96" cy="250.03" r="2.5" fill="#2563eb"/>
  <circle cx="549.13" cy="249.94" r="2.5" fill="#2563eb"/>
  <circle cx="550.31" cy="249.99" r="2.5" fill="#2563eb"/>
  <circle cx="551.49" cy="300.01" r="2.5" fill="#2563eb"/>
  <circle cx="552.66" cy="300.06" r="2.5" fill="#2563eb"/>
  <circle cx="553.84" cy="300.01" r="2.5" fill="#2563eb"/>
  <circle cx="555.02" cy="299.97" r="2.5" fill="#2563eb"/>
  <circle cx="556.20" cy="299.97" r="2.5" fill="#2563eb"/>
  <circle cx="557.37" cy="300.01" r="2.5" fill="#2563eb"/>
  <circle cx="558.55" cy="299.93" r="2.5" fill="#2563eb"/>
  <circle cx="559.73" cy="299.89" r="2.5" fill="#2563eb"/>
  <circle cx="560.91" cy="299.89" r="2.5" fill="#2563eb"/>
  <circle cx="562.08" cy="299.89" r="2.5" fill="#2563eb"/>
  <circle cx="563.26" cy="299.89" r="2.5" fill="#2563eb"/>
  <circle cx="564.44" cy="299.85" r="2.5" fill="#2563eb"/>
  <circle cx="565.61" cy="299.85" r="2.5" fill="#2563eb"/>
  <circle cx="566.79" cy="299.89" r="2.5" fill="#2563eb"/>
  <circle cx="567.97" cy="299.81" r="2.5" fill="#2563eb"/>
  <circle cx="569.15" cy="299.81" r="2.5" fill="#2563eb"/>
  <circle cx="570.32" cy="299.81" r="2.5" fill="#2563eb"/>
  <circle cx="571.50" cy="299.76" r="2.5" fill="#2563eb"/>
  <circle cx="572.68" cy="299.76" r="2.5" fill="#2563eb"/>
  <circle cx="573.86" cy="299.76" r="2.5" fill="#2563eb"/>
  <circle cx="575.03" cy="299.72" r="2.5" fill="#2563eb"/>
  <circle cx="576.21" cy="299.68" r="2.5" fill="#2563eb"/>
  <circle cx="577.39" cy="299.60" r="2.5" fill="#2563eb"/>
  <circle cx="578.56" cy="299.60" r="2.5" fill="#2563eb"/>
  <circle cx="579.74" cy="299.60" r="2.5" fill="#2563eb"/>
  <circle cx="580.92" cy="299.56" r="2.5" fill="#2563eb"/>
  <circle cx="582.10" cy="299.47" r="2.5" fill="#2563eb"/>
  <circle cx="583.27" cy="299.43" r="2.5" fill="#2563eb"/>
  <circle cx="584.45" cy="299.43" r="2.5" fill="#2563eb"/>
  <circle cx="585.63" cy="299.39" r="2.5" fill="#2563eb"/>
  <circle cx="586.80" cy="299.47" r="2.5" fill="#2563eb"/>
  <circle cx="587.98" cy="259.82" r="2.5" fill="#2563eb"/>
  <circle cx="589.16" cy="338.96" r="2.5" fill="#2563eb"/>
  <circle cx="590.34" cy="299.31" r="2.5" fill="#2563eb"/>
  <circle cx="591.51" cy="299.31" r="2.5" fill="#2563eb"/>
  <circle cx="592.69" cy="299.26" r="2.5" fill="#2563eb"/>
  <circle cx="593.87" cy="299.68" r="2.5" fill="#2563eb"/>
  <circle cx="595.05" cy="299.68" r="2.5" fill="#2563eb"/>
  <circle cx="596.22" cy="299.68" r="2.5" fill="#2563eb"/>
  <circle cx="597.40" cy="299.64" r="2.5" fill="#2563eb"/>
  <circle cx="598.58" cy="299.14" r="2.5" fill="#2563eb"/>
  <circle cx="599.75" cy="299.14" r="2.5" fill="#2563eb"/>
  <circle cx="600.93" cy="299.10" r="2.5" fill="#2563eb"/>
  <circle cx="602.11" cy="299.10" r="2.5" fill="#2563eb"/>
  <circle cx="603.29" cy="299.10" r="2.5" fill="#2563eb"/>
  <circle cx="604.46" cy="248.07" r="2.5" fill="#2563eb"/>
  <circle cx="605.64" cy="299.06" r="2.5" fill="#2563eb"/>
  <circle cx="606.82" cy="299.06" r="2.5" fill="#2563eb"/>
  <circle cx="607.99" cy="299.06" r="2.5" fill="#2563eb"/>
  <circle cx="609.17" cy="299.06" r="2.5" fill="#2563eb"/>
  <circle cx="610.35" cy="299.06" r="2.5" fill="#2563eb"/>
  <circle cx="611.53" cy="298.97" r="2.5" fill="#2563eb"/>
  <circle cx="612.70" cy="298.97" r="2.5" fill="#2563eb"/>
  <circle cx="613.88" cy="298.93" r="2.5" fill="#2563eb"/>
  <circle cx="615.06" cy="298.97" r="2.5" fill="#2563eb"/>
  <circle cx="616.24" cy="298.93" r="2.5" fill="#2563eb"/>
  <circle cx="617.41" cy="298.89" r="2.5" fill="#2563eb"/>
  <circle cx="618.59" cy="298.89" r="2.5" fill="#2563eb"/>
  <circle cx="619.77" cy="298.89" r="2.5" fill="#2563eb"/>
  <circle cx="620.94" cy="298.89" r="2.5" fill="#2563eb"/>
  <circle cx="622.12" cy="247.78" r="2.5" fill="#2563eb"/>
  <circle cx="623.30" cy="298.89" r="2.5" fill="#2563eb"/>
  <circle cx="624.48" cy="298.89" r="2.5" fill="#2563eb"/>
  <circle cx="625.65" cy="298.85" r="2.5" fill="#2563eb"/>
  <circle cx="626.83" cy="298.85" r="2.5" fill="#2563eb"/>
  <circle cx="628.01" cy="298.81" r="2.5" fill="#2563eb"/>
  <circle cx="629.18" cy="298.81" r="2.5" fill="#2563eb"/>
  <circle cx="630.36" cy="298.81" r="2.5" fill="#2563eb"/>
  <circle cx="631.54" cy="298.81" r="2.5" fill="#2563eb"/>
  <circle cx="632.72" cy="298.81" r="2.5" fill="#2563eb"/>
  <circle cx="633.89" cy="298.81" r="2.5" fill="#2563eb"/>
  <circle cx="635.07" cy="298.81" r="2.5" fill="#2563eb"/>
  <circle cx="636.25" cy="298.81" r="2.5" fill="#2563eb"/>
  <circle cx="637.43" cy="298.81" r="2.5" fill="#2563eb"/>
  <circle cx="638.60" cy="298.72" r="2.5" fill="#2563eb"/>
  <circle cx="639.78" cy="247.45" r="2.5" fill="#2563eb"/>
  <circle cx="640.96" cy="247.45" r="2.5" fill="#2563eb"/>
  <circle cx="642.13" cy="298.72" r="2.5" fill="#2563eb"/>
  <circle cx="643.31" cy="298.72" r="2.5" fill="#2563eb"/>
  <circle cx="644.49" cy="298.72" r="2.5" fill="#2563eb"/>
  <circle cx="645.67" cy="298.72" r="2.5" fill="#2563eb"/>
  <circle cx="646.84" cy="298.72" r="2.5" fill="#2563eb"/>
  <circle cx="648.02" cy="298.72" r="2.5" fill="#2563eb"/>
  <circle cx="649.20" cy="247.36" r="2.5" fill="#2563eb"/>
  <circle cx="650.38" cy="298.68" r="2.5" fill="#2563eb"/>
  <circle cx="651.55" cy="247.36" r="2.5" fill="#2563eb"/>
  <circle cx="652.73" cy="247.36" r="2.5" fill="#2563eb"/>
  <circle cx="653.91" cy="247.36" r="2.5" fill="#2563eb"/>
  <circle cx="655.08" cy="298.68" r="2.5" fill="#2563eb"/>
  <circle cx="656.26" cy="298.68" r="2.5" fill="#2563eb"/>
  <circle cx="657.44" cy="298.68" r="2.5" fill="#2563eb"/>
  <circle cx="658.62" cy="298.68" r="2.5" fill="#2563eb"/>
  <circle cx="659.79" cy="298.68" r="2.5" fill="#2563eb"/>
  <circle cx="660.97" cy="341.67" r="2.5" fill="#2563eb"/>
  <circle cx="662.15" cy="307.01" r="2.5" fill="#2563eb"/>
  <circle cx="663.32" cy="298.68" r="2.5" fill="#2563eb"/>
  <circle cx="664.50" cy="298.68" r="2.5" fill="#2563eb"/>
  <circle cx="665.68" cy="298.68" r="2.5" fill="#2563eb"/>
  <circle cx="666.86" cy="247.36" r="2.5" fill="#2563eb"/>
  <circle cx="668.03" cy="298.64" r="2.5" fill="#2563eb"/>
  <circle cx="669.21" cy="247.36" r="2.5" fill="#2563eb"/>
  <circle cx="670.39" cy="247.28" r="2.5" fill="#2563eb"/>
  <circle cx="671.57" cy="247.20" r="2.5" fill="#2563eb"/>
  <circle cx="672.74" cy="298.60" r="2.5" fill="#2563eb"/>
  <circle cx="673.92" cy="298.60" r="2.5" fill="#2563eb"/>
  <circle cx="675.10" cy="247.03" r="2.5" fill="#2563eb"/>
  <circle cx="676.27" cy="298.51" r="2.5" fill="#2563eb"/>
  <circle cx="677.45" cy="298.51" r="2.5" fill="#2563eb"/>
  <circle cx="678.63" cy="298.51" r="2.5" fill="#2563eb"/>
  <circle cx="679.81" cy="298.51" r="2.5" fill="#2563eb"/>
  <circle cx="680.98" cy="298.51" r="2.5" fill="#2563eb"/>
  <circle cx="682.16" cy="298.51" r="2.5" fill="#2563eb"/>
  <circle cx="683.34" cy="298.51" r="2.5" fill="#2563eb"/>
  <circle cx="684.51" cy="298.51" r="2.5" fill="#2563eb"/>
  <circle cx="685.69" cy="298.51" r="2.5" fill="#2563eb"/>
  <circle cx="686.87" cy="298.51" r="2.5" fill="#2563eb"/>
  <circle cx="688.05" cy="298.51" r="2.5" fill="#2563eb"/>
  <circle cx="689.22" cy="298.51" r="2.5" fill="#2563eb"/>
  <circle cx="690.40" cy="298.51" r="2.5" fill="#2563eb"/>
  <circle cx="691.58" cy="298.51" r="2.5" fill="#2563eb"/>
  <circle cx="692.76" cy="298.51" r="2.5" fill="#2563eb"/>
  <circle cx="693.93" cy="298.51" r="2.5" fill="#2563eb"/>
  <circle cx="695.11" cy="298.51" r="2.5" fill="#2563eb"/>
  <circle cx="696.29" cy="298.51" r="2.5" fill="#2563eb"/>
  <circle cx="697.46" cy="298.51" r="2.5" fill="#2563eb"/>
  <circle cx="698.64" cy="298.51" r="2.5" fill="#2563eb"/>
  <circle cx="699.82" cy="298.51" r="2.5" fill="#2563eb"/>
  <circle cx="701.00" cy="298.51" r="2.5" fill="#2563eb"/>
  <circle cx="702.17" cy="298.51" r="2.5" fill="#2563eb"/>
  <circle cx="703.35" cy="298.51" r="2.5" fill="#2563eb"/>
  <circle cx="704.53" cy="298.51" r="2.5" fill="#2563eb"/>
  <circle cx="705.71" cy="298.51" r="2.5" fill="#2563eb"/>
  <circle cx="706.88" cy="298.47" r="2.5" fill="#2563eb"/>
  <circle cx="708.06" cy="298.51" r="2.5" fill="#2563eb"/>
  <circle cx="709.24" cy="298.51" r="2.5" fill="#2563eb"/>
  <circle cx="710.41" cy="298.47" r="2.5" fill="#2563eb"/>
  <circle cx="711.59" cy="298.51" r="2.5" fill="#2563eb"/>
  <circle cx="712.77" cy="298.47" r="2.5" fill="#2563eb"/>
  <circle cx="713.95" cy="298.51" r="2.5" fill="#2563eb"/>
  <circle cx="715.12" cy="298.43" r="2.5" fill="#2563eb"/>
  <circle cx="716.30" cy="298.56" r="2.5" fill="#2563eb"/>
  <circle cx="717.48" cy="298.43" r="2.5" fill="#2563eb"/>
  <circle cx="718.65" cy="298.43" r="2.5" fill="#2563eb"/>
  <circle cx="719.83" cy="298.43" r="2.5" fill="#2563eb"/>
  <circle cx="721.01" cy="298.43" r="2.5" fill="#2563eb"/>
  <circle cx="722.19" cy="298.43" r="2.5" fill="#2563eb"/>
  <circle cx="723.36" cy="298.43" r="2.5" fill="#2563eb"/>
  <circle cx="724.54" cy="298.43" r="2.5" fill="#2563eb"/>
  <circle cx="725.72" cy="298.43" r="2.5" fill="#2563eb"/>
  <circle cx="726.90" cy="298.43" r="2.5" fill="#2563eb"/>
  <circle cx="728.07" cy="298.43" r="2.5" fill="#2563eb"/>
  <circle cx="729.25" cy="298.43" r="2.5" fill="#2563eb"/>
  <circle cx="730.43" cy="298.43" r="2.5" fill="#2563eb"/>
  <circle cx="731.60" cy="298.43" r="2.5" fill="#2563eb"/>
  <circle cx="732.78" cy="298.43" r="2.5" fill="#2563eb"/>
  <circle cx="733.96" cy="298.43" r="2.5" fill="#2563eb"/>
  <circle cx="735.14" cy="298.43" r="2.5" fill="#2563eb"/>
  <circle cx="736.31" cy="298.43" r="2.5" fill="#2563eb"/>
  <circle cx="737.49" cy="298.43" r="2.5" fill="#2563eb"/>
  <circle cx="738.67" cy="298.43" r="2.5" fill="#2563eb"/>
  <circle cx="739.84" cy="298.43" r="2.5" fill="#2563eb"/>
  <circle cx="741.02" cy="298.43" r="2.5" fill="#2563eb"/>
  <circle cx="742.20" cy="298.43" r="2.5" fill="#2563eb"/>
  <circle cx="743.38" cy="298.43" r="2.5" fill="#2563eb"/>
  <circle cx="744.55" cy="298.43" r="2.5" fill="#2563eb"/>
  <circle cx="745.73" cy="298.43" r="2.5" fill="#2563eb"/>
  <circle cx="746.91" cy="298.43" r="2.5" fill="#2563eb"/>
  <circle cx="748.09" cy="298.43" r="2.5" fill="#2563eb"/>
  <circle cx="749.26" cy="298.43" r="2.5" fill="#2563eb"/>
  <circle cx="750.44" cy="298.43" r="2.5" fill="#2563eb"/>
  <circle cx="751.62" cy="298.43" r="2.5" fill="#2563eb"/>
  <circle cx="752.79" cy="298.43" r="2.5" fill="#2563eb"/>
  <circle cx="753.97" cy="298.43" r="2.5" fill="#2563eb"/>
  <circle cx="755.15" cy="298.43" r="2.5" fill="#2563eb"/>
  <circle cx="756.33" cy="298.43" r="2.5" fill="#2563eb"/>
  <circle cx="757.50" cy="298.39" r="2.5" fill="#2563eb"/>
  <circle cx="758.68" cy="298.39" r="2.5" fill="#2563eb"/>
  <circle cx="759.86" cy="298.43" r="2.5" fill="#2563eb"/>
  <circle cx="761.03" cy="298.43" r="2.5" fill="#2563eb"/>
  <circle cx="762.21" cy="298.39" r="2.5" fill="#2563eb"/>
  <circle cx="763.39" cy="298.39" r="2.5" fill="#2563eb"/>
  <circle cx="764.57" cy="298.39" r="2.5" fill="#2563eb"/>
  <circle cx="765.74" cy="298.43" r="2.5" fill="#2563eb"/>
  <circle cx="766.92" cy="298.43" r="2.5" fill="#2563eb"/>
  <circle cx="768.10" cy="298.43" r="2.5" fill="#2563eb"/>
  <circle cx="769.28" cy="246.82" r="2.5" fill="#2563eb"/>
  <circle cx="770.45" cy="298.43" r="2.5" fill="#2563eb"/>
  <circle cx="771.63" cy="246.78" r="2.5" fill="#2563eb"/>
  <circle cx="772.81" cy="246.78" r="2.5" fill="#2563eb"/>
  <circle cx="773.98" cy="246.78" r="2.5" fill="#2563eb"/>
  <circle cx="775.16" cy="246.70" r="2.5" fill="#2563eb"/>
  <circle cx="776.34" cy="246.78" r="2.5" fill="#2563eb"/>
  <circle cx="777.52" cy="298.39" r="2.5" fill="#2563eb"/>
  <circle cx="778.69" cy="298.39" r="2.5" fill="#2563eb"/>
  <circle cx="779.87" cy="298.39" r="2.5" fill="#2563eb"/>
  <circle cx="781.05" cy="298.39" r="2.5" fill="#2563eb"/>
  <circle cx="782.23" cy="298.39" r="2.5" fill="#2563eb"/>
  <circle cx="783.40" cy="246.78" r="2.5" fill="#2563eb"/>
  <circle cx="784.58" cy="298.39" r="2.5" fill="#2563eb"/>
  <circle cx="785.76" cy="298.39" r="2.5" fill="#2563eb"/>
  <circle cx="786.93" cy="298.39" r="2.5" fill="#2563eb"/>
  <circle cx="788.11" cy="298.39" r="2.5" fill="#2563eb"/>
  <circle cx="789.29" cy="298.39" r="2.5" fill="#2563eb"/>
  <circle cx="790.47" cy="246.78" r="2.5" fill="#2563eb"/>
  <circle cx="791.64" cy="246.78" r="2.5" fill="#2563eb"/>
  <circle cx="792.82" cy="298.39" r="2.5" fill="#2563eb"/>
  <circle cx="794.00" cy="298.39" r="2.5" fill="#2563eb"/>
  <circle cx="795.17" cy="298.39" r="2.5" fill="#2563eb"/>
  <circle cx="796.35" cy="298.39" r="2.5" fill="#2563eb"/>
  <circle cx="797.53" cy="298.39" r="2.5" fill="#2563eb"/>
  <circle cx="798.71" cy="298.39" r="2.5" fill="#2563eb"/>
  <circle cx="799.88" cy="298.39" r="2.5" fill="#2563eb"/>
  <circle cx="801.06" cy="298.39" r="2.5" fill="#2563eb"/>
  <circle cx="802.24" cy="298.39" r="2.5" fill="#2563eb"/>
  <circle cx="803.42" cy="298.39" r="2.5" fill="#2563eb"/>
  <circle cx="804.59" cy="298.39" r="2.5" fill="#2563eb"/>
  <circle cx="805.77" cy="298.39" r="2.5" fill="#2563eb"/>
  <circle cx="806.95" cy="298.39" r="2.5" fill="#2563eb"/>
  <circle cx="808.12" cy="298.39" r="2.5" fill="#2563eb"/>
  <circle cx="809.30" cy="298.35" r="2.5" fill="#2563eb"/>
  <circle cx="810.48" cy="298.39" r="2.5" fill="#2563eb"/>
  <circle cx="811.66" cy="298.39" r="2.5" fill="#2563eb"/>
  <circle cx="812.83" cy="298.35" r="2.5" fill="#2563eb"/>
  <circle cx="814.01" cy="298.35" r="2.5" fill="#2563eb"/>
  <circle cx="815.19" cy="298.35" r="2.5" fill="#2563eb"/>
  <circle cx="816.36" cy="298.35" r="2.5" fill="#2563eb"/>
  <circle cx="817.54" cy="298.35" r="2.5" fill="#2563eb"/>
  <circle cx="818.72" cy="298.35" r="2.5" fill="#2563eb"/>
  <circle cx="819.90" cy="298.35" r="2.5" fill="#2563eb"/>
  <circle cx="821.07" cy="298.35" r="2.5" fill="#2563eb"/>
  <circle cx="822.25" cy="298.35" r="2.5" fill="#2563eb"/>
  <circle cx="823.43" cy="298.35" r="2.5" fill="#2563eb"/>
  <circle cx="824.61" cy="298.35" r="2.5" fill="#2563eb"/>
  <circle cx="825.78" cy="298.35" r="2.5" fill="#2563eb"/>
  <circle cx="826.96" cy="298.35" r="2.5" fill="#2563eb"/>
  <circle cx="828.14" cy="298.35" r="2.5" fill="#2563eb"/>
  <circle cx="829.31" cy="298.35" r="2.5" fill="#2563eb"/>
  <circle cx="830.49" cy="298.35" r="2.5" fill="#2563eb"/>
  <circle cx="831.67" cy="298.35" r="2.5" fill="#2563eb"/>
  <circle cx="832.85" cy="298.35" r="2.5" fill="#2563eb"/>
  <circle cx="834.02" cy="298.35" r="2.5" fill="#2563eb"/>
  <circle cx="835.20" cy="298.35" r="2.5" fill="#2563eb"/>
  <circle cx="836.38" cy="298.35" r="2.5" fill="#2563eb"/>
  <circle cx="837.55" cy="298.35" r="2.5" fill="#2563eb"/>
  <circle cx="838.73" cy="298.35" r="2.5" fill="#2563eb"/>
  <circle cx="839.91" cy="298.35" r="2.5" fill="#2563eb"/>
  <circle cx="841.09" cy="298.35" r="2.5" fill="#2563eb"/>
  <circle cx="842.26" cy="298.35" r="2.5" fill="#2563eb"/>
  <circle cx="843.44" cy="298.35" r="2.5" fill="#2563eb"/>
  <circle cx="844.62" cy="298.35" r="2.5" fill="#2563eb"/>
  <circle cx="845.80" cy="298.35" r="2.5" fill="#2563eb"/>
  <circle cx="846.97" cy="298.35" r="2.5" fill="#2563eb"/>
  <circle cx="848.15" cy="298.35" r="2.5" fill="#2563eb"/>
  <circle cx="849.33" cy="298.35" r="2.5" fill="#2563eb"/>
  <circle cx="850.50" cy="298.35" r="2.5" fill="#2563eb"/>
  <circle cx="851.68" cy="298.35" r="2.5" fill="#2563eb"/>
  <circle cx="852.86" cy="298.35" r="2.5" fill="#2563eb"/>
  <circle cx="854.04" cy="298.35" r="2.5" fill="#2563eb"/>
  <circle cx="855.21" cy="298.35" r="2.5" fill="#2563eb"/>
  <circle cx="856.39" cy="298.35" r="2.5" fill="#2563eb"/>
  <circle cx="857.57" cy="298.35" r="2.5" fill="#2563eb"/>
  <circle cx="858.75" cy="298.35" r="2.5" fill="#2563eb"/>
  <circle cx="859.92" cy="298.35" r="2.5" fill="#2563eb"/>
  <circle cx="861.10" cy="298.35" r="2.5" fill="#2563eb"/>
  <circle cx="862.28" cy="298.35" r="2.5" fill="#2563eb"/>
  <circle cx="863.45" cy="298.35" r="2.5" fill="#2563eb"/>
  <circle cx="864.63" cy="298.35" r="2.5" fill="#2563eb"/>
  <circle cx="865.81" cy="298.35" r="2.5" fill="#2563eb"/>
  <circle cx="866.99" cy="298.35" r="2.5" fill="#2563eb"/>
  <circle cx="868.16" cy="298.35" r="2.5" fill="#2563eb"/>
  <circle cx="869.34" cy="298.35" r="2.5" fill="#2563eb"/>
  <circle cx="870.52" cy="298.35" r="2.5" fill="#2563eb"/>
  <circle cx="871.69" cy="298.35" r="2.5" fill="#2563eb"/>
  <circle cx="872.87" cy="298.35" r="2.5" fill="#2563eb"/>
  <circle cx="874.05" cy="298.39" r="2.5" fill="#2563eb"/>
  <circle cx="875.23" cy="298.39" r="2.5" fill="#2563eb"/>
  <circle cx="876.40" cy="298.39" r="2.5" fill="#2563eb"/>
  <circle cx="877.58" cy="246.78" r="2.5" fill="#2563eb"/>
  <circle cx="878.76" cy="298.39" r="2.5" fill="#2563eb"/>
  <circle cx="879.94" cy="298.39" r="2.5" fill="#2563eb"/>
  <circle cx="881.11" cy="298.39" r="2.5" fill="#2563eb"/>
  <circle cx="882.29" cy="298.39" r="2.5" fill="#2563eb"/>
  <circle cx="883.47" cy="298.39" r="2.5" fill="#2563eb"/>
  <circle cx="884.64" cy="298.39" r="2.5" fill="#2563eb"/>
  <circle cx="885.82" cy="298.39" r="2.5" fill="#2563eb"/>
  <circle cx="887.00" cy="246.78" r="2.5" fill="#2563eb"/>
  <circle cx="888.18" cy="298.39" r="2.5" fill="#2563eb"/>
  <circle cx="889.35" cy="298.39" r="2.5" fill="#2563eb"/>
  <circle cx="890.53" cy="298.39" r="2.5" fill="#2563eb"/>
  <circle cx="891.71" cy="298.39" r="2.5" fill="#2563eb"/>
  <circle cx="892.88" cy="298.39" r="2.5" fill="#2563eb"/>
  <circle cx="894.06" cy="298.39" r="2.5" fill="#2563eb"/>
  <circle cx="895.24" cy="298.39" r="2.5" fill="#2563eb"/>
  <circle cx="896.42" cy="246.78" r="2.5" fill="#2563eb"/>
  <circle cx="897.59" cy="298.39" r="2.5" fill="#2563eb"/>
  <circle cx="898.77" cy="298.39" r="2.5" fill="#2563eb"/>
  <circle cx="899.95" cy="298.39" r="2.5" fill="#2563eb"/>
  <circle cx="901.13" cy="298.39" r="2.5" fill="#2563eb"/>
  <circle cx="902.30" cy="298.39" r="2.5" fill="#2563eb"/>
  <circle cx="903.48" cy="298.39" r="2.5" fill="#2563eb"/>
  <circle cx="904.66" cy="298.39" r="2.5" fill="#2563eb"/>
  <circle cx="905.83" cy="298.39" r="2.5" fill="#2563eb"/>
  <circle cx="907.01" cy="298.39" r="2.5" fill="#2563eb"/>
  <circle cx="908.19" cy="298.39" r="2.5" fill="#2563eb"/>
  <circle cx="909.37" cy="298.39" r="2.5" fill="#2563eb"/>
  <circle cx="910.54" cy="298.35" r="2.5" fill="#2563eb"/>
  <circle cx="911.72" cy="298.39" r="2.5" fill="#2563eb"/>
  <circle cx="912.90" cy="298.39" r="2.5" fill="#2563eb"/>
  <circle cx="914.08" cy="298.39" r="2.5" fill="#2563eb"/>
  <circle cx="915.25" cy="298.35" r="2.5" fill="#2563eb"/>
  <circle cx="916.43" cy="298.35" r="2.5" fill="#2563eb"/>
  <circle cx="917.61" cy="298.35" r="2.5" fill="#2563eb"/>
  <circle cx="918.78" cy="298.35" r="2.5" fill="#2563eb"/>
  <circle cx="919.96" cy="298.35" r="2.5" fill="#2563eb"/>
  <circle cx="921.14" cy="298.35" r="2.5" fill="#2563eb"/>
  <circle cx="922.32" cy="298.35" r="2.5" fill="#2563eb"/>
  <circle cx="923.49" cy="298.35" r="2.5" fill="#2563eb"/>
  <circle cx="924.67" cy="298.35" r="2.5" fill="#2563eb"/>
  <circle cx="925.85" cy="298.35" r="2.5" fill="#2563eb"/>
  <circle cx="927.02" cy="298.35" r="2.5" fill="#2563eb"/>
  <circle cx="928.20" cy="298.35" r="2.5" fill="#2563eb"/>
  <circle cx="929.38" cy="298.35" r="2.5" fill="#2563eb"/>
  <circle cx="930.56" cy="298.35" r="2.5" fill="#2563eb"/>
  <circle cx="931.73" cy="298.35" r="2.5" fill="#2563eb"/>
  <circle cx="932.91" cy="298.35" r="2.5" fill="#2563eb"/>
  <circle cx="934.09" cy="298.39" r="2.5" fill="#2563eb"/>
  <circle cx="935.27" cy="298.39" r="2.5" fill="#2563eb"/>
  <circle cx="936.44" cy="298.39" r="2.5" fill="#2563eb"/>
  <circle cx="937.62" cy="298.39" r="2.5" fill="#2563eb"/>
  <circle cx="938.80" cy="298.39" r="2.5" fill="#2563eb"/>
  <circle cx="939.97" cy="298.39" r="2.5" fill="#2563eb"/>
  <circle cx="941.15" cy="298.35" r="2.5" fill="#2563eb"/>
  <circle cx="942.33" cy="298.39" r="2.5" fill="#2563eb"/>
  <circle cx="943.51" cy="298.39" r="2.5" fill="#2563eb"/>
  <circle cx="944.68" cy="298.39" r="2.5" fill="#2563eb"/>
  <circle cx="945.86" cy="298.39" r="2.5" fill="#2563eb"/>
  <circle cx="947.04" cy="298.39" r="2.5" fill="#2563eb"/>
  <circle cx="948.21" cy="298.39" r="2.5" fill="#2563eb"/>
  <circle cx="949.39" cy="298.39" r="2.5" fill="#2563eb"/>
  <circle cx="950.57" cy="298.39" r="2.5" fill="#2563eb"/>
  <circle cx="951.75" cy="298.39" r="2.5" fill="#2563eb"/>
  <circle cx="952.92" cy="298.35" r="2.5" fill="#2563eb"/>
  <circle cx="954.10" cy="298.39" r="2.5" fill="#2563eb"/>
  <circle cx="955.28" cy="298.39" r="2.5" fill="#2563eb"/>
  <circle cx="956.46" cy="298.39" r="2.5" fill="#2563eb"/>
  <circle cx="957.63" cy="298.39" r="2.5" fill="#2563eb"/>
  <circle cx="958.81" cy="298.39" r="2.5" fill="#2563eb"/>
  <circle cx="959.99" cy="298.39" r="2.5" fill="#2563eb"/>
  <circle cx="961.16" cy="298.39" r="2.5" fill="#2563eb"/>
  <circle cx="962.34" cy="298.39" r="2.5" fill="#2563eb"/>
  <circle cx="963.52" cy="298.39" r="2.5" fill="#2563eb"/>
  <circle cx="964.70" cy="298.39" r="2.5" fill="#2563eb"/>
  <circle cx="965.87" cy="298.39" r="2.5" fill="#2563eb"/>
  <circle cx="967.05" cy="298.39" r="2.5" fill="#2563eb"/>
  <circle cx="968.23" cy="298.39" r="2.5" fill="#2563eb"/>
  <circle cx="969.40" cy="298.39" r="2.5" fill="#2563eb"/>
  <circle cx="970.58" cy="298.39" r="2.5" fill="#2563eb"/>
  <circle cx="971.76" cy="298.39" r="2.5" fill="#2563eb"/>
  <circle cx="972.94" cy="298.35" r="2.5" fill="#2563eb"/>
  <circle cx="974.11" cy="298.35" r="2.5" fill="#2563eb"/>
  <circle cx="975.29" cy="298.39" r="2.5" fill="#2563eb"/>
  <circle cx="976.47" cy="298.39" r="2.5" fill="#2563eb"/>
  <circle cx="977.65" cy="298.39" r="2.5" fill="#2563eb"/>
  <circle cx="978.82" cy="298.39" r="2.5" fill="#2563eb"/>
  <circle cx="980.00" cy="298.39" r="2.5" fill="#2563eb"/>
</svg>
