<?xml version="1.0" encoding="UTF-8"?>
<svg xmlns="http://www.w3.org/2000/svg" width="1000" height="420" viewBox="0 0 1000 420">
  <rect width="100%" height="100%" fill="#ffffff"/>
  <text x="70" y="28" font-size="20" font-weight="600">수집 시점 기준 - 시간별 스냅샷</text>
  <text x="70" y="402" font-size="12" fill="#555">스냅샷 수</text>
  <line x1="70" y1="350.00" x2="980" y2="350.00" stroke="#e5e7eb" stroke-width="1"/>
  <text x="62" y="354.00" font-size="11" fill="#6b7280" text-anchor="end">0</text>
  <line x1="70" y1="290.00" x2="980" y2="290.00" stroke="#e5e7eb" stroke-width="1"/>
  <text x="62" y="294.00" font-size="11" fill="#6b7280" text-anchor="end">1,440</text>
  <line x1="70" y1="230.00" x2="980" y2="230.00" stroke="#e5e7eb" stroke-width="1"/>
  <text x="62" y="234.00" font-size="11" fill="#6b7280" text-anchor="end">2,880</text>
  <line x1="70" y1="170.00" x2="980" y2="170.00" stroke="#e5e7eb" stroke-width="1"/>
  <text x="62" y="174.00" font-size="11" fill="#6b7280" text-anchor="end">4,321</text>
  <line x1="70" y1="110.00" x2="980" y2="110.00" stroke="#e5e7eb" stroke-width="1"/>
  <text x="62" y="114.00" font-size="11" fill="#6b7280" text-anchor="end">5,761</text>
  <line x1="70" y1="50.00" x2="980" y2="50.00" stroke="#e5e7eb" stroke-width="1"/>
  <text x="62" y="54.00" font-size="11" fill="#6b7280" text-anchor="end">7,202</text>
  <line x1="70" y1="350" x2="980" y2="350" stroke="#111827" stroke-width="1.2"/>
  <line x1="70" y1="50" x2="70" y2="350" stroke="#111827" stroke-width="1.2"/>
  <line x1="70.00" y1="350" x2="70.00" y2="356" stroke="#9ca3af" stroke-width="1"/>
  <text x="70.00" y="372" font-size="10" fill="#6b7280" text-anchor="middle">2026-02-28 18</text>
  <line x1="144.94" y1="350" x2="144.94" y2="356" stroke="#9ca3af" stroke-width="1"/>
  <text x="144.94" y="372" font-size="10" fill="#6b7280" text-anchor="middle">2026-03-08 14</text>
  <line x1="219.88" y1="350" x2="219.88" y2="356" stroke="#9ca3af" stroke-width="1"/>
  <text x="219.88" y="372" font-size="10" fill="#6b7280" text-anchor="middle">2026-03-10 03</text>
  <line x1="294.82" y1="350" x2="294.82" y2="356" stroke="#9ca3af" stroke-width="1"/>
  <text x="294.82" y="372" font-size="10" fill="#6b7280" text-anchor="middle">2026-03-11 18</text>
  <line x1="369.76" y1="350" x2="369.76" y2="356" stroke="#9ca3af" stroke-width="1"/>
  <text x="369.76" y="372" font-size="10" fill="#6b7280" text-anchor="middle">2026-03-13 07</text>
  <line x1="444.71" y1="350" x2="444.71" y2="356" stroke="#9ca3af" stroke-width="1"/>
  <text x="444.71" y="372" font-size="10" fill="#6b7280" text-anchor="middle">2026-03-15 02</text>
  <line x1="519.65" y1="350" x2="519.65" y2="356" stroke="#9ca3af" stroke-width="1"/>
  <text x="519.65" y="372" font-size="10" fill="#6b7280" text-anchor="middle">2026-03-17 08</text>
  <line x1="594.59" y1="350" x2="594.59" y2="356" stroke="#9ca3af" stroke-width="1"/>
  <text x="594.59" y="372" font-size="10" fill="#6b7280" text-anchor="middle">2026-03-19 18</text>
  <line x1="669.53" y1="350" x2="669.53" y2="356" stroke="#9ca3af" stroke-width="1"/>
  <text x="669.53" y="372" font-size="10" fill="#6b7280" text-anchor="middle">2026-03-21 18</text>
  <line x1="744.47" y1="350" x2="744.47" y2="356" stroke="#9ca3af" stroke-width="1"/>
  <text x="744.47" y="372" font-size="10" fill="#6b7280" text-anchor="middle">2026-03-23 20</text>
  <line x1="819.41" y1="350" x2="819.41" y2="356" stroke="#9ca3af" stroke-width="1"/>
  <text x="819.41" y="372" font-size="10" fill="#6b7280" text-anchor="middle">2026-03-26 04</text>
  <line x1="894.35" y1="350" x2="894.35" y2="356" stroke="#9ca3af" stroke-width="1"/>
  <text x="894.35" y="372" font-size="10" fill="#6b7280" text-anchor="middle">2026-03-28 15</text>
  <line x1="969.29" y1="350" x2="969.29" y2="356" stroke="#9ca3af" stroke-width="1"/>
  <text x="969.29" y="372" font-size="10" fill="#6b7280" text-anchor="middle">2026-03-31 00</text>
  <line x1="980.00" y1="350" x2="980.00" y2="356" stroke="#9ca3af" stroke-width="1"/>
  <text x="980.00" y="372" font-size="10" fill="#6b7280" text-anchor="middle">2026-03-31 07</text>
  <polyline fill="none" stroke="#2563eb" stroke-width="2.5" points="70.00,50.00 72.14,50.12 74.28,50.17 76.42,50.46 78.56,50.00 80.71,266.90 82.85,50.12 84.99,50.08 87.13,177.46 89.27,211.58 91.41,175.34 93.55,304.14 95.69,200.46 97.84,250.94 99.98,300.01 102.12,300.06 104.26,300.01 106.40,300.01 108.54,348.00 110.68,300.01 112.82,249.99 114.96,200.00 117.11,249.99 119.25,249.99 121.39,250.03 123.53,250.03 125.67,250.03 127.81,250.40 129.95,250.90 132.09,250.90 134.24,251.32 136.38,249.94 138.52,300.01 140.66,299.93 142.80,251.03 144.94,300.68 147.08,250.03 149.22,200.00 151.36,249.99 153.51,250.03 155.65,250.03 157.79,250.03 159.93,300.01 162.07,200.04 164.21,250.03 166.35,250.03 168.49,250.03 170.64,249.90 172.78,250.03 174.92,250.03 177.06,250.94 179.20,250.44 181.34,250.03 183.48,250.03 185.62,300.47 187.76,300.01 189.91,300.43 192.05,250.03 194.19,249.99 196.33,300.43 198.47,249.90 200.61,249.99 202.75,249.99 204.89,200.04 207.04,300.01 209.18,300.01 211.32,300.01 213.46,249.90 215.60,300.01 217.74,250.03 219.88,249.99 222.02,199.96 224.16,300.01 226.31,200.00 228.45,250.36 230.59,250.03 232.73,300.01 234.87,300.01 237.01,250.44 239.15,300.01 241.29,250.03 243.44,250.03 245.58,249.99 247.72,250.49 249.86,250.03 252.00,200.04 254.14,300.01 256.28,250.03 258.42,300.01 260.56,250.11 262.71,300.01 264.85,250.03 266.99,250.03 269.13,199.92 271.27,250.03 273.41,250.03 275.55,250.03 277.69,254.36 279.84,300.01 281.98,299.97 284.12,250.36 286.26,299.97 288.40,250.03 290.54,250.03 292.68,250.03 294.82,250.03 296.96,249.99 299.11,200.00 301.25,299.93 303.39,300.01 305.53,299.97 307.67,249.94 309.81,249.99 311.95,249.82 314.09,249.94 316.24,250.28 318.38,207.00 320.52,250.03 322.66,250.32 324.80,250.40 326.94,300.93 329.08,300.01 331.22,300.10 333.36,249.94 335.51,249.99 337.65,250.07 339.79,249.99 341.93,250.03 344.07,249.94 346.21,200.00 348.35,300.39 350.49,300.01 352.64,300.01 354.78,250.44 356.92,300.39 359.06,249.86 361.20,250.11 363.34,201.46 365.48,300.01 367.62,200.83 369.76,250.03 371.91,249.99 374.05,300.26 376.19,300.01 378.33,300.01 380.47,250.03 382.61,250.03 384.75,250.03 386.89,250.03 389.04,249.99 391.18,250.03 393.32,200.00 395.46,300.26 397.60,249.99 399.74,300.01 401.88,249.94 404.02,250.03 406.16,250.03 408.31,250.03 410.45,200.04 412.59,300.01 414.73,249.90 416.87,300.01 419.01,300.01 421.15,300.06 423.29,300.01 425.44,300.01 427.58,243.95 429.72,249.94 431.86,299.97 434.00,300.01 436.14,300.01 438.28,250.03 440.42,300.01 442.56,300.01 444.71,299.97 446.85,249.99 448.99,300.01 451.13,299.93 453.27,300.01 455.41,299.93 457.55,300.01 459.69,300.01 461.84,299.89 463.98,299.97 466.12,250.03 468.26,299.93 470.40,299.89 472.54,299.97 474.68,249.94 476.82,300.01 478.96,300.01 481.11,299.97 483.25,249.99 485.39,299.97 487.53,299.97 489.67,300.06 491.81,300.06 493.95,299.93 496.09,300.01 498.24,300.01 500.38,299.93 502.52,300.01 504.66,300.01 506.80,299.97 508.94,300.01 511.08,300.01 513.22,300.01 515.36,300.01 517.51,249.86 519.65,300.01 521.79,300.10 523.93,299.93 526.07,300.01 528.21,299.93 530.35,300.01 532.49,300.01 534.64,300.01 536.78,300.01 538.92,300.01 541.06,299.97 543.20,300.01 545.34,300.01 547.48,300.01 549.62,300.01 551.76,250.03 553.91,300.01 556.05,300.01 558.19,299.97 560.33,300.01 562.47,300.01 564.61,299.97 566.75,299.97 568.89,300.01 571.04,299.97 573.18,300.01 575.32,299.93 577.46,300.01 579.60,250.03 581.74,300.01 583.88,300.01 586.02,300.01 588.16,300.01 590.31,300.01 592.45,299.89 594.59,300.01 596.73,300.01 598.87,250.07 601.01,300.01 603.15,299.93 605.29,300.01 607.44,299.97 609.58,299.97 611.72,299.97 613.86,250.03 616.00,300.01 618.14,300.01 620.28,300.01 622.42,300.01 624.56,299.97 626.71,300.01 628.85,299.97 630.99,300.01 633.13,299.97 635.27,249.90 637.41,300.01 639.55,300.01 641.69,299.89 643.84,299.97 645.98,299.97 648.12,249.99 650.26,299.97 652.40,299.89 654.54,300.01 656.68,299.97 658.82,299.97 660.96,300.01 663.11,299.97 665.25,249.99 667.39,299.97 669.53,299.97 671.67,300.06 673.81,300.06 675.95,249.94 678.09,300.01 680.24,299.93 682.38,300.01 684.52,300.01 686.66,249.99 688.80,300.01 690.94,300.01 693.08,300.01 695.22,299.93 697.36,299.93 699.51,300.01 701.65,300.01 703.79,249.94 705.93,299.97 708.07,299.97 710.21,300.01 712.35,300.01 714.49,300.01 716.64,249.99 718.78,300.01 720.92,300.01 723.06,300.01 725.20,250.03 727.34,300.01 729.48,300.01 731.62,300.01 733.76,299.97 735.91,300.01 738.05,300.01 740.19,299.97 742.33,299.97 744.47,300.01 746.61,300.01 748.75,299.97 750.89,299.93 753.04,300.01 755.18,300.06 757.32,299.97 759.46,300.01 761.60,250.03 763.74,250.03 765.88,299.93 768.02,299.97 770.16,300.01 772.31,300.01 774.45,300.06 776.59,300.01 778.73,299.93 780.87,300.01 783.01,300.01 785.15,299.97 787.29,299.97 789.44,300.01 791.58,250.03 793.72,300.01 795.86,300.01 798.00,300.01 800.14,299.97 802.28,300.01 804.42,299.97 806.56,300.01 808.71,299.97 810.85,299.97 812.99,299.93 815.13,300.01 817.27,300.01 819.41,299.89 821.55,299.97 823.69,299.97 825.84,300.06 827.98,249.90 830.12,299.89 832.26,300.01 834.40,299.97 836.54,299.97 838.68,299.97 840.82,300.01 842.96,300.01 845.11,299.97 847.25,299.97 849.39,299.97 851.53,250.03 853.67,299.93 855.81,300.01 857.95,300.01 860.09,299.93 862.24,300.01 864.38,300.01 866.52,299.97 868.66,300.01 870.80,300.01 872.94,300.06 875.08,300.01 877.22,299.97 879.36,299.89 881.51,300.01 883.65,300.01 885.79,249.94 887.93,249.94 890.07,300.01 892.21,300.01 894.35,300.01 896.49,300.01 898.64,299.97 900.78,250.03 902.92,300.01 905.06,300.01 907.20,300.01 909.34,300.01 911.48,250.03 913.62,249.99 915.76,300.01 917.91,299.97 920.05,300.01 922.19,299.97 924.33,300.01 926.47,299.97 928.61,299.97 930.75,299.97 932.89,300.06 935.04,249.99 937.18,300.01 939.32,250.03 941.46,249.94 943.60,249.99 945.74,300.01 947.88,300.06 950.02,300.01 952.16,299.97 954.31,299.97 956.45,300.01 958.59,299.93 960.73,299.89 962.87,299.89 965.01,299.89 967.15,299.89 969.29,299.85 971.44,299.85 973.58,299.89 975.72,299.81 977.86,299.81 980.00,299.81"/>
  <circle cx="70.00" cy="50.00" r="2.5" fill="#2563eb"/>
  <circle cx="72.14" cy="50.12" r="2.5" fill="#2563eb"/>
  <circle cx="74.28" cy="50.17" r="2.5" fill="#2563eb"/>
  <circle cx="76.42" cy="50.46" r="2.5" fill="#2563eb"/>
  <circle cx="78.56" cy="50.00" r="2.5" fill="#2563eb"/>
  <circle cx="80.71" cy="266.90" r="2.5" fill="#2563eb"/>
  <circle cx="82.85" cy="50.12" r="2.5" fill="#2563eb"/>
  <circle cx="84.99" cy="50.08" r="2.5" fill="#2563eb"/>
  <circle cx="87.13" cy="177.46" r="2.5" fill="#2563eb"/>
  <circle cx="89.27" cy="211.58" r="2.5" fill="#2563eb"/>
  <circle cx="91.41" cy="175.34" r="2.5" fill="#2563eb"/>
  <circle cx="93.55" cy="304.14" r="2.5" fill="#2563eb"/>
  <circle cx="95.69" cy="200.46" r="2.5" fill="#2563eb"/>
  <circle cx="97.84" cy="250.94" r="2.5" fill="#2563eb"/>
  <circle cx="99.98" cy="300.01" r="2.5" fill="#2563eb"/>
  <circle cx="102.12" cy="300.06" r="2.5" fill="#2563eb"/>
  <circle cx="104.26" cy="300.01" r="2.5" fill="#2563eb"/>
  <circle cx="106.40" cy="300.01" r="2.5" fill="#2563eb"/>
  <circle cx="108.54" cy="348.00" r="2.5" fill="#2563eb"/>
  <circle cx="110.68" cy="300.01" r="2.5" fill="#2563eb"/>
  <circle cx="112.82" cy="249.99" r="2.5" fill="#2563eb"/>
  <circle cx="114.96" cy="200.00" r="2.5" fill="#2563eb"/>
  <circle cx="117.11" cy="249.99" r="2.5" fill="#2563eb"/>
  <circle cx="119.25" cy="249.99" r="2.5" fill="#2563eb"/>
  <circle cx="121.39" cy="250.03" r="2.5" fill="#2563eb"/>
  <circle cx="123.53" cy="250.03" r="2.5" fill="#2563eb"/>
  <circle cx="125.67" cy="250.03" r="2.5" fill="#2563eb"/>
  <circle cx="127.81" cy="250.40" r="2.5" fill="#2563eb"/>
  <circle cx="129.95" cy="250.90" r="2.5" fill="#2563eb"/>
  <circle cx="132.09" cy="250.90" r="2.5" fill="#2563eb"/>
  <circle cx="134.24" cy="251.32" r="2.5" fill="#2563eb"/>
  <circle cx="136.38" cy="249.94" r="2.5" fill="#2563eb"/>
  <circle cx="138.52" cy="300.01" r="2.5" fill="#2563eb"/>
  <circle cx="140.66" cy="299.93" r="2.5" fill="#2563eb"/>
  <circle cx="142.80" cy="251.03" r="2.5" fill="#2563eb"/>
  <circle cx="144.94" cy="300.68" r="2.5" fill="#2563eb"/>
  <circle cx="147.08" cy="250.03" r="2.5" fill="#2563eb"/>
  <circle cx="149.22" cy="200.00" r="2.5" fill="#2563eb"/>
  <circle cx="151.36" cy="249.99" r="2.5" fill="#2563eb"/>
  <circle cx="153.51" cy="250.03" r="2.5" fill="#2563eb"/>
  <circle cx="155.65" cy="250.03" r="2.5" fill="#2563eb"/>
  <circle cx="157.79" cy="250.03" r="2.5" fill="#2563eb"/>
  <circle cx="159.93" cy="300.01" r="2.5" fill="#2563eb"/>
  <circle cx="162.07" cy="200.04" r="2.5" fill="#2563eb"/>
  <circle cx="164.21" cy="250.03" r="2.5" fill="#2563eb"/>
  <circle cx="166.35" cy="250.03" r="2.5" fill="#2563eb"/>
  <circle cx="168.49" cy="250.03" r="2.5" fill="#2563eb"/>
  <circle cx="170.64" cy="249.90" r="2.5" fill="#2563eb"/>
  <circle cx="172.78" cy="250.03" r="2.5" fill="#2563eb"/>
  <circle cx="174.92" cy="250.03" r="2.5" fill="#2563eb"/>
  <circle cx="177.06" cy="250.94" r="2.5" fill="#2563eb"/>
  <circle cx="179.20" cy="250.44" r="2.5" fill="#2563eb"/>
  <circle cx="181.34" cy="250.03" r="2.5" fill="#2563eb"/>
  <circle cx="183.48" cy="250.03" r="2.5" fill="#2563eb"/>
  <circle cx="185.62" cy="300.47" r="2.5" fill="#2563eb"/>
  <circle cx="187.76" cy="300.01" r="2.5" fill="#2563eb"/>
  <circle cx="189.91" cy="300.43" r="2.5" fill="#2563eb"/>
  <circle cx="192.05" cy="250.03" r="2.5" fill="#2563eb"/>
  <circle cx="194.19" cy="249.99" r="2.5" fill="#2563eb"/>
  <circle cx="196.33" cy="300.43" r="2.5" fill="#2563eb"/>
  <circle cx="198.47" cy="249.90" r="2.5" fill="#2563eb"/>
  <circle cx="200.61" cy="249.99" r="2.5" fill="#2563eb"/>
  <circle cx="202.75" cy="249.99" r="2.5" fill="#2563eb"/>
  <circle cx="204.89" cy="200.04" r="2.5" fill="#2563eb"/>
  <circle cx="207.04" cy="300.01" r="2.5" fill="#2563eb"/>
  <circle cx="209.18" cy="300.01" r="2.5" fill="#2563eb"/>
  <circle cx="211.32" cy="300.01" r="2.5" fill="#2563eb"/>
  <circle cx="213.46" cy="249.90" r="2.5" fill="#2563eb"/>
  <circle cx="215.60" cy="300.01" r="2.5" fill="#2563eb"/>
  <circle cx="217.74" cy="250.03" r="2.5" fill="#2563eb"/>
  <circle cx="219.88" cy="249.99" r="2.5" fill="#2563eb"/>
  <circle cx="222.02" cy="199.96" r="2.5" fill="#2563eb"/>
  <circle cx="224.16" cy="300.01" r="2.5" fill="#2563eb"/>
  <circle cx="226.31" cy="200.00" r="2.5" fill="#2563eb"/>
  <circle cx="228.45" cy="250.36" r="2.5" fill="#2563eb"/>
  <circle cx="230.59" cy="250.03" r="2.5" fill="#2563eb"/>
  <circle cx="232.73" cy="300.01" r="2.5" fill="#2563eb"/>
  <circle cx="234.87" cy="300.01" r="2.5" fill="#2563eb"/>
  <circle cx="237.01" cy="250.44" r="2.5" fill="#2563eb"/>
  <circle cx="239.15" cy="300.01" r="2.5" fill="#2563eb"/>
  <circle cx="241.29" cy="250.03" r="2.5" fill="#2563eb"/>
  <circle cx="243.44" cy="250.03" r="2.5" fill="#2563eb"/>
  <circle cx="245.58" cy="249.99" r="2.5" fill="#2563eb"/>
  <circle cx="247.72" cy="250.49" r="2.5" fill="#2563eb"/>
  <circle cx="249.86" cy="250.03" r="2.5" fill="#2563eb"/>
  <circle cx="252.00" cy="200.04" r="2.5" fill="#2563eb"/>
  <circle cx="254.14" cy="300.01" r="2.5" fill="#2563eb"/>
  <circle cx="256.28" cy="250.03" r="2.5" fill="#2563eb"/>
  <circle cx="258.42" cy="300.01" r="2.5" fill="#2563eb"/>
  <circle cx="260.56" cy="250.11" r="2.5" fill="#2563eb"/>
  <circle cx="262.71" cy="300.01" r="2.5" fill="#2563eb"/>
  <circle cx="264.85" cy="250.03" r="2.5" fill="#2563eb"/>
  <circle cx="266.99" cy="250.03" r="2.5" fill="#2563eb"/>
  <circle cx="269.13" cy="199.92" r="2.5" fill="#2563eb"/>
  <circle cx="271.27" cy="250.03" r="2.5" fill="#2563eb"/>
  <circle cx="273.41" cy="250.03" r="2.5" fill="#2563eb"/>
  <circle cx="275.55" cy="250.03" r="2.5" fill="#2563eb"/>
  <circle cx="277.69" cy="254.36" r="2.5" fill="#2563eb"/>
  <circle cx="279.84" cy="300.01" r="2.5" fill="#2563eb"/>
  <circle cx="281.98" cy="299.97" r="2.5" fill="#2563eb"/>
  <circle cx="284.12" cy="250.36" r="2.5" fill="#2563eb"/>
  <circle cx="286.26" cy="299.97" r="2.5" fill="#2563eb"/>
  <circle cx="288.40" cy="250.03" r="2.5" fill="#2563eb"/>
  <circle cx="290.54" cy="250.03" r="2.5" fill="#2563eb"/>
  <circle cx="292.68" cy="250.03" r="2.5" fill="#2563eb"/>
  <circle cx="294.82" cy="250.03" r="2.5" fill="#2563eb"/>
  <circle cx="296.96" cy="249.99" r="2.5" fill="#2563eb"/>
  <circle cx="299.11" cy="200.00" r="2.5" fill="#2563eb"/>
  <circle cx="301.25" cy="299.93" r="2.5" fill="#2563eb"/>
  <circle cx="303.39" cy="300.01" r="2.5" fill="#2563eb"/>
  <circle cx="305.53" cy="299.97" r="2.5" fill="#2563eb"/>
  <circle cx="307.67" cy="249.94" r="2.5" fill="#2563eb"/>
  <circle cx="309.81" cy="249.99" r="2.5" fill="#2563eb"/>
  <circle cx="311.95" cy="249.82" r="2.5" fill="#2563eb"/>
  <circle cx="314.09" cy="249.94" r="2.5" fill="#2563eb"/>
  <circle cx="316.24" cy="250.28" r="2.5" fill="#2563eb"/>
  <circle cx="318.38" cy="207.00" r="2.5" fill="#2563eb"/>
  <circle cx="320.52" cy="250.03" r="2.5" fill="#2563eb"/>
  <circle cx="322.66" cy="250.32" r="2.5" fill="#2563eb"/>
  <circle cx="324.80" cy="250.40" r="2.5" fill="#2563eb"/>
  <circle cx="326.94" cy="300.93" r="2.5" fill="#2563eb"/>
  <circle cx="329.08" cy="300.01" r="2.5" fill="#2563eb"/>
  <circle cx="331.22" cy="300.10" r="2.5" fill="#2563eb"/>
  <circle cx="333.36" cy="249.94" r="2.5" fill="#2563eb"/>
  <circle cx="335.51" cy="249.99" r="2.5" fill="#2563eb"/>
  <circle cx="337.65" cy="250.07" r="2.5" fill="#2563eb"/>
  <circle cx="339.79" cy="249.99" r="2.5" fill="#2563eb"/>
  <circle cx="341.93" cy="250.03" r="2.5" fill="#2563eb"/>
  <circle cx="344.07" cy="249.94" r="2.5" fill="#2563eb"/>
  <circle cx="346.21" cy="200.00" r="2.5" fill="#2563eb"/>
  <circle cx="348.35" cy="300.39" r="2.5" fill="#2563eb"/>
  <circle cx="350.49" cy="300.01" r="2.5" fill="#2563eb"/>
  <circle cx="352.64" cy="300.01" r="2.5" fill="#2563eb"/>
  <circle cx="354.78" cy="250.44" r="2.5" fill="#2563eb"/>
  <circle cx="356.92" cy="300.39" r="2.5" fill="#2563eb"/>
  <circle cx="359.06" cy="249.86" r="2.5" fill="#2563eb"/>
  <circle cx="361.20" cy="250.11" r="2.5" fill="#2563eb"/>
  <circle cx="363.34" cy="201.46" r="2.5" fill="#2563eb"/>
  <circle cx="365.48" cy="300.01" r="2.5" fill="#2563eb"/>
  <circle cx="367.62" cy="200.83" r="2.5" fill="#2563eb"/>
  <circle cx="369.76" cy="250.03" r="2.5" fill="#2563eb"/>
  <circle cx="371.91" cy="249.99" r="2.5" fill="#2563eb"/>
  <circle cx="374.05" cy="300.26" r="2.5" fill="#2563eb"/>
  <circle cx="376.19" cy="300.01" r="2.5" fill="#2563eb"/>
  <circle cx="378.33" cy="300.01" r="2.5" fill="#2563eb"/>
  <circle cx="380.47" cy="250.03" r="2.5" fill="#2563eb"/>
  <circle cx="382.61" cy="250.03" r="2.5" fill="#2563eb"/>
  <circle cx="384.75" cy="250.03" r="2.5" fill="#2563eb"/>
  <circle cx="386.89" cy="250.03" r="2.5" fill="#2563eb"/>
  <circle cx="389.04" cy="249.99" r="2.5" fill="#2563eb"/>
  <circle cx="391.18" cy="250.03" r="2.5" fill="#2563eb"/>
  <circle cx="393.32" cy="200.00" r="2.5" fill="#2563eb"/>
  <circle cx="395.46" cy="300.26" r="2.5" fill="#2563eb"/>
  <circle cx="397.60" cy="249.99" r="2.5" fill="#2563eb"/>
  <circle cx="399.74" cy="300.01" r="2.5" fill="#2563eb"/>
  <circle cx="401.88" cy="249.94" r="2.5" fill="#2563eb"/>
  <circle cx="404.02" cy="250.03" r="2.5" fill="#2563eb"/>
  <circle cx="406.16" cy="250.03" r="2.5" fill="#2563eb"/>
  <circle cx="408.31" cy="250.03" r="2.5" fill="#2563eb"/>
  <circle cx="410.45" cy="200.04" r="2.5" fill="#2563eb"/>
  <circle cx="412.59" cy="300.01" r="2.5" fill="#2563eb"/>
  <circle cx="414.73" cy="249.90" r="2.5" fill="#2563eb"/>
  <circle cx="416.87" cy="300.01" r="2.5" fill="#2563eb"/>
  <circle cx="419.01" cy="300.01" r="2.5" fill="#2563eb"/>
  <circle cx="421.15" cy="300.06" r="2.5" fill="#2563eb"/>
  <circle cx="423.29" cy="300.01" r="2.5" fill="#2563eb"/>
  <circle cx="425.44" cy="300.01" r="2.5" fill="#2563eb"/>
  <circle cx="427.58" cy="243.95" r="2.5" fill="#2563eb"/>
  <circle cx="429.72" cy="249.94" r="2.5" fill="#2563eb"/>
  <circle cx="431.86" cy="299.97" r="2.5" fill="#2563eb"/>
  <circle cx="434.00" cy="300.01" r="2.5" fill="#2563eb"/>
  <circle cx="436.14" cy="300.01" r="2.5" fill="#2563eb"/>
  <circle cx="438.28" cy="250.03" r="2.5" fill="#2563eb"/>
  <circle cx="440.42" cy="300.01" r="2.5" fill="#2563eb"/>
  <circle cx="442.56" cy="300.01" r="2.5" fill="#2563eb"/>
  <circle cx="444.71" cy="299.97" r="2.5" fill="#2563eb"/>
  <circle cx="446.85" cy="249.99" r="2.5" fill="#2563eb"/>
  <circle cx="448.99" cy="300.01" r="2.5" fill="#2563eb"/>
  <circle cx="451.13" cy="299.93" r="2.5" fill="#2563eb"/>
  <circle cx="453.27" cy="300.01" r="2.5" fill="#2563eb"/>
  <circle cx="455.41" cy="299.93" r="2.5" fill="#2563eb"/>
  <circle cx="457.55" cy="300.01" r="2.5" fill="#2563eb"/>
  <circle cx="459.69" cy="300.01" r="2.5" fill="#2563eb"/>
  <circle cx="461.84" cy="299.89" r="2.5" fill="#2563eb"/>
  <circle cx="463.98" cy="299.97" r="2.5" fill="#2563eb"/>
  <circle cx="466.12" cy="250.03" r="2.5" fill="#2563eb"/>
  <circle cx="468.26" cy="299.93" r="2.5" fill="#2563eb"/>
  <circle cx="470.40" cy="299.89" r="2.5" fill="#2563eb"/>
  <circle cx="472.54" cy="299.97" r="2.5" fill="#2563eb"/>
  <circle cx="474.68" cy="249.94" r="2.5" fill="#2563eb"/>
  <circle cx="476.82" cy="300.01" r="2.5" fill="#2563eb"/>
  <circle cx="478.96" cy="300.01" r="2.5" fill="#2563eb"/>
  <circle cx="481.11" cy="299.97" r="2.5" fill="#2563eb"/>
  <circle cx="483.25" cy="249.99" r="2.5" fill="#2563eb"/>
  <circle cx="485.39" cy="299.97" r="2.5" fill="#2563eb"/>
  <circle cx="487.53" cy="299.97" r="2.5" fill="#2563eb"/>
  <circle cx="489.67" cy="300.06" r="2.5" fill="#2563eb"/>
  <circle cx="491.81" cy="300.06" r="2.5" fill="#2563eb"/>
  <circle cx="493.95" cy="299.93" r="2.5" fill="#2563eb"/>
  <circle cx="496.09" cy="300.01" r="2.5" fill="#2563eb"/>
  <circle cx="498.24" cy="300.01" r="2.5" fill="#2563eb"/>
  <circle cx="500.38" cy="299.93" r="2.5" fill="#2563eb"/>
  <circle cx="502.52" cy="300.01" r="2.5" fill="#2563eb"/>
  <circle cx="504.66" cy="300.01" r="2.5" fill="#2563eb"/>
  <circle cx="506.80" cy="299.97" r="2.5" fill="#2563eb"/>
  <circle cx="508.94" cy="300.01" r="2.5" fill="#2563eb"/>
  <circle cx="511.08" cy="300.01" r="2.5" fill="#2563eb"/>
  <circle cx="513.22" cy="300.01" r="2.5" fill="#2563eb"/>
  <circle cx="515.36" cy="300.01" r="2.5" fill="#2563eb"/>
  <circle cx="517.51" cy="249.86" r="2.5" fill="#2563eb"/>
  <circle cx="519.65" cy="300.01" r="2.5" fill="#2563eb"/>
  <circle cx="521.79" cy="300.10" r="2.5" fill="#2563eb"/>
  <circle cx="523.93" cy="299.93" r="2.5" fill="#2563eb"/>
  <circle cx="526.07" cy="300.01" r="2.5" fill="#2563eb"/>
  <circle cx="528.21" cy="299.93" r="2.5" fill="#2563eb"/>
  <circle cx="530.35" cy="300.01" r="2.5" fill="#2563eb"/>
  <circle cx="532.49" cy="300.01" r="2.5" fill="#2563eb"/>
  <circle cx="534.64" cy="300.01" r="2.5" fill="#2563eb"/>
  <circle cx="536.78" cy="300.01" r="2.5" fill="#2563eb"/>
  <circle cx="538.92" cy="300.01" r="2.5" fill="#2563eb"/>
  <circle cx="541.06" cy="299.97" r="2.5" fill="#2563eb"/>
  <circle cx="543.20" cy="300.01" r="2.5" fill="#2563eb"/>
  <circle cx="545.34" cy="300.01" r="2.5" fill="#2563eb"/>
  <circle cx="547.48" cy="300.01" r="2.5" fill="#2563eb"/>
  <circle cx="549.62" cy="300.01" r="2.5" fill="#2563eb"/>
  <circle cx="551.76" cy="250.03" r="2.5" fill="#2563eb"/>
  <circle cx="553.91" cy="300.01" r="2.5" fill="#2563eb"/>
  <circle cx="556.05" cy="300.01" r="2.5" fill="#2563eb"/>
  <circle cx="558.19" cy="299.97" r="2.5" fill="#2563eb"/>
  <circle cx="560.33" cy="300.01" r="2.5" fill="#2563eb"/>
  <circle cx="562.47" cy="300.01" r="2.5" fill="#2563eb"/>
  <circle cx="564.61" cy="299.97" r="2.5" fill="#2563eb"/>
  <circle cx="566.75" cy="299.97" r="2.5" fill="#2563eb"/>
  <circle cx="568.89" cy="300.01" r="2.5" fill="#2563eb"/>
  <circle cx="571.04" cy="299.97" r="2.5" fill="#2563eb"/>
  <circle cx="573.18" cy="300.01" r="2.5" fill="#2563eb"/>
  <circle cx="575.32" cy="299.93" r="2.5" fill="#2563eb"/>
  <circle cx="577.46" cy="300.01" r="2.5" fill="#2563eb"/>
  <circle cx="579.60" cy="250.03" r="2.5" fill="#2563eb"/>
  <circle cx="581.74" cy="300.01" r="2.5" fill="#2563eb"/>
  <circle cx="583.88" cy="300.01" r="2.5" fill="#2563eb"/>
  <circle cx="586.02" cy="300.01" r="2.5" fill="#2563eb"/>
  <circle cx="588.16" cy="300.01" r="2.5" fill="#2563eb"/>
  <circle cx="590.31" cy="300.01" r="2.5" fill="#2563eb"/>
  <circle cx="592.45" cy="299.89" r="2.5" fill="#2563eb"/>
  <circle cx="594.59" cy="300.01" r="2.5" fill="#2563eb"/>
  <circle cx="596.73" cy="300.01" r="2.5" fill="#2563eb"/>
  <circle cx="598.87" cy="250.07" r="2.5" fill="#2563eb"/>
  <circle cx="601.01" cy="300.01" r="2.5" fill="#2563eb"/>
  <circle cx="603.15" cy="299.93" r="2.5" fill="#2563eb"/>
  <circle cx="605.29" cy="300.01" r="2.5" fill="#2563eb"/>
  <circle cx="607.44" cy="299.97" r="2.5" fill="#2563eb"/>
  <circle cx="609.58" cy="299.97" r="2.5" fill="#2563eb"/>
  <circle cx="611.72" cy="299.97" r="2.5" fill="#2563eb"/>
  <circle cx="613.86" cy="250.03" r="2.5" fill="#2563eb"/>
  <circle cx="616.00" cy="300.01" r="2.5" fill="#2563eb"/>
  <circle cx="618.14" cy="300.01" r="2.5" fill="#2563eb"/>
  <circle cx="620.28" cy="300.01" r="2.5" fill="#2563eb"/>
  <circle cx="622.42" cy="300.01" r="2.5" fill="#2563eb"/>
  <circle cx="624.56" cy="299.97" r="2.5" fill="#2563eb"/>
  <circle cx="626.71" cy="300.01" r="2.5" fill="#2563eb"/>
  <circle cx="628.85" cy="299.97" r="2.5" fill="#2563eb"/>
  <circle cx="630.99" cy="300.01" r="2.5" fill="#2563eb"/>
  <circle cx="633.13" cy="299.97" r="2.5" fill="#2563eb"/>
  <circle cx="635.27" cy="249.90" r="2.5" fill="#2563eb"/>
  <circle cx="637.41" cy="300.01" r="2.5" fill="#2563eb"/>
  <circle cx="639.55" cy="300.01" r="2.5" fill="#2563eb"/>
  <circle cx="641.69" cy="299.89" r="2.5" fill="#2563eb"/>
  <circle cx="643.84" cy="299.97" r="2.5" fill="#2563eb"/>
  <circle cx="645.98" cy="299.97" r="2.5" fill="#2563eb"/>
  <circle cx="648.12" cy="249.99" r="2.5" fill="#2563eb"/>
  <circle cx="650.26" cy="299.97" r="2.5" fill="#2563eb"/>
  <circle cx="652.40" cy="299.89" r="2.5" fill="#2563eb"/>
  <circle cx="654.54" cy="300.01" r="2.5" fill="#2563eb"/>
  <circle cx="656.68" cy="299.97" r="2.5" fill="#2563eb"/>
  <circle cx="658.82" cy="299.97" r="2.5" fill="#2563eb"/>
  <circle cx="660.96" cy="300.01" r="2.5" fill="#2563eb"/>
  <circle cx="663.11" cy="299.97" r="2.5" fill="#2563eb"/>
  <circle cx="665.25" cy="249.99" r="2.5" fill="#2563eb"/>
  <circle cx="667.39" cy="299.97" r="2.5" fill="#2563eb"/>
  <circle cx="669.53" cy="299.97" r="2.5" fill="#2563eb"/>
  <circle cx="671.67" cy="300.06" r="2.5" fill="#2563eb"/>
  <circle cx="673.81" cy="300.06" r="2.5" fill="#2563eb"/>
  <circle cx="675.95" cy="249.94" r="2.5" fill="#2563eb"/>
  <circle cx="678.09" cy="300.01" r="2.5" fill="#2563eb"/>
  <circle cx="680.24" cy="299.93" r="2.5" fill="#2563eb"/>
  <circle cx="682.38" cy="300.01" r="2.5" fill="#2563eb"/>
  <circle cx="684.52" cy="300.01" r="2.5" fill="#2563eb"/>
  <circle cx="686.66" cy="249.99" r="2.5" fill="#2563eb"/>
  <circle cx="688.80" cy="300.01" r="2.5" fill="#2563eb"/>
  <circle cx="690.94" cy="300.01" r="2.5" fill="#2563eb"/>
  <circle cx="693.08" cy="300.01" r="2.5" fill="#2563eb"/>
  <circle cx="695.22" cy="299.93" r="2.5" fill="#2563eb"/>
  <circle cx="697.36" cy="299.93" r="2.5" fill="#2563eb"/>
  <circle cx="699.51" cy="300.01" r="2.5" fill="#2563eb"/>
  <circle cx="701.65" cy="300.01" r="2.5" fill="#2563eb"/>
  <circle cx="703.79" cy="249.94" r="2.5" fill="#2563eb"/>
  <circle cx="705.93" cy="299.97" r="2.5" fill="#2563eb"/>
  <circle cx="708.07" cy="299.97" r="2.5" fill="#2563eb"/>
  <circle cx="710.21" cy="300.01" r="2.5" fill="#2563eb"/>
  <circle cx="712.35" cy="300.01" r="2.5" fill="#2563eb"/>
  <circle cx="714.49" cy="300.01" r="2.5" fill="#2563eb"/>
  <circle cx="716.64" cy="249.99" r="2.5" fill="#2563eb"/>
  <circle cx="718.78" cy="300.01" r="2.5" fill="#2563eb"/>
  <circle cx="720.92" cy="300.01" r="2.5" fill="#2563eb"/>
  <circle cx="723.06" cy="300.01" r="2.5" fill="#2563eb"/>
  <circle cx="725.20" cy="250.03" r="2.5" fill="#2563eb"/>
  <circle cx="727.34" cy="300.01" r="2.5" fill="#2563eb"/>
  <circle cx="729.48" cy="300.01" r="2.5" fill="#2563eb"/>
  <circle cx="731.62" cy="300.01" r="2.5" fill="#2563eb"/>
  <circle cx="733.76" cy="299.97" r="2.5" fill="#2563eb"/>
  <circle cx="735.91" cy="300.01" r="2.5" fill="#2563eb"/>
  <circle cx="738.05" cy="300.01" r="2.5" fill="#2563eb"/>
  <circle cx="740.19" cy="299.97" r="2.5" fill="#2563eb"/>
  <circle cx="742.33" cy="299.97" r="2.5" fill="#2563eb"/>
  <circle cx="744.47" cy="300.01" r="2.5" fill="#2563eb"/>
  <circle cx="746.61" cy="300.01" r="2.5" fill="#2563eb"/>
  <circle cx="748.75" cy="299.97" r="2.5" fill="#2563eb"/>
  <circle cx="750.89" cy="299.93" r="2.5" fill="#2563eb"/>
  <circle cx="753.04" cy="300.01" r="2.5" fill="#2563eb"/>
  <circle cx="755.18" cy="300.06" r="2.5" fill="#2563eb"/>
  <circle cx="757.32" cy="299.97" r="2.5" fill="#2563eb"/>
  <circle cx="759.46" cy="300.01" r="2.5" fill="#2563eb"/>
  <circle cx="761.60" cy="250.03" r="2.5" fill="#2563eb"/>
  <circle cx="763.74" cy="250.03" r="2.5" fill="#2563eb"/>
  <circle cx="765.88" cy="299.93" r="2.5" fill="#2563eb"/>
  <circle cx="768.02" cy="299.97" r="2.5" fill="#2563eb"/>
  <circle cx="770.16" cy="300.01" r="2.5" fill="#2563eb"/>
  <circle cx="772.31" cy="300.01" r="2.5" fill="#2563eb"/>
  <circle cx="774.45" cy="300.06" r="2.5" fill="#2563eb"/>
  <circle cx="776.59" cy="300.01" r="2.5" fill="#2563eb"/>
  <circle cx="778.73" cy="299.93" r="2.5" fill="#2563eb"/>
  <circle cx="780.87" cy="300.01" r="2.5" fill="#2563eb"/>
  <circle cx="783.01" cy="300.01" r="2.5" fill="#2563eb"/>
  <circle cx="785.15" cy="299.97" r="2.5" fill="#2563eb"/>
  <circle cx="787.29" cy="299.97" r="2.5" fill="#2563eb"/>
  <circle cx="789.44" cy="300.01" r="2.5" fill="#2563eb"/>
  <circle cx="791.58" cy="250.03" r="2.5" fill="#2563eb"/>
  <circle cx="793.72" cy="300.01" r="2.5" fill="#2563eb"/>
  <circle cx="795.86" cy="300.01" r="2.5" fill="#2563eb"/>
  <circle cx="798.00" cy="300.01" r="2.5" fill="#2563eb"/>
  <circle cx="800.14" cy="299.97" r="2.5" fill="#2563eb"/>
  <circle cx="802.28" cy="300.01" r="2.5" fill="#2563eb"/>
  <circle cx="804.42" cy="299.97" r="2.5" fill="#2563eb"/>
  <circle cx="806.56" cy="300.01" r="2.5" fill="#2563eb"/>
  <circle cx="808.71" cy="299.97" r="2.5" fill="#2563eb"/>
  <circle cx="810.85" cy="299.97" r="2.5" fill="#2563eb"/>
  <circle cx="812.99" cy="299.93" r="2.5" fill="#2563eb"/>
  <circle cx="815.13" cy="300.01" r="2.5" fill="#2563eb"/>
  <circle cx="817.27" cy="300.01" r="2.5" fill="#2563eb"/>
  <circle cx="819.41" cy="299.89" r="2.5" fill="#2563eb"/>
  <circle cx="821.55" cy="299.97" r="2.5" fill="#2563eb"/>
  <circle cx="823.69" cy="299.97" r="2.5" fill="#2563eb"/>
  <circle cx="825.84" cy="300.06" r="2.5" fill="#2563eb"/>
  <circle cx="827.98" cy="249.90" r="2.5" fill="#2563eb"/>
  <circle cx="830.12" cy="299.89" r="2.5" fill="#2563eb"/>
  <circle cx="832.26" cy="300.01" r="2.5" fill="#2563eb"/>
  <circle cx="834.40" cy="299.97" r="2.5" fill="#2563eb"/>
  <circle cx="836.54" cy="299.97" r="2.5" fill="#2563eb"/>
  <circle cx="838.68" cy="299.97" r="2.5" fill="#2563eb"/>
  <circle cx="840.82" cy="300.01" r="2.5" fill="#2563eb"/>
  <circle cx="842.96" cy="300.01" r="2.5" fill="#2563eb"/>
  <circle cx="845.11" cy="299.97" r="2.5" fill="#2563eb"/>
  <circle cx="847.25" cy="299.97" r="2.5" fill="#2563eb"/>
  <circle cx="849.39" cy="299.97" r="2.5" fill="#2563eb"/>
  <circle cx="851.53" cy="250.03" r="2.5" fill="#2563eb"/>
  <circle cx="853.67" cy="299.93" r="2.5" fill="#2563eb"/>
  <circle cx="855.81" cy="300.01" r="2.5" fill="#2563eb"/>
  <circle cx="857.95" cy="300.01" r="2.5" fill="#2563eb"/>
  <circle cx="860.09" cy="299.93" r="2.5" fill="#2563eb"/>
  <circle cx="862.24" cy="300.01" r="2.5" fill="#2563eb"/>
  <circle cx="864.38" cy="300.01" r="2.5" fill="#2563eb"/>
  <circle cx="866.52" cy="299.97" r="2.5" fill="#2563eb"/>
  <circle cx="868.66" cy="300.01" r="2.5" fill="#2563eb"/>
  <circle cx="870.80" cy="300.01" r="2.5" fill="#2563eb"/>
  <circle cx="872.94" cy="300.06" r="2.5" fill="#2563eb"/>
  <circle cx="875.08" cy="300.01" r="2.5" fill="#2563eb"/>
  <circle cx="877.22" cy="299.97" r="2.5" fill="#2563eb"/>
  <circle cx="879.36" cy="299.89" r="2.5" fill="#2563eb"/>
  <circle cx="881.51" cy="300.01" r="2.5" fill="#2563eb"/>
  <circle cx="883.65" cy="300.01" r="2.5" fill="#2563eb"/>
  <circle cx="885.79" cy="249.94" r="2.5" fill="#2563eb"/>
  <circle cx="887.93" cy="249.94" r="2.5" fill="#2563eb"/>
  <circle cx="890.07" cy="300.01" r="2.5" fill="#2563eb"/>
  <circle cx="892.21" cy="300.01" r="2.5" fill="#2563eb"/>
  <circle cx="894.35" cy="300.01" r="2.5" fill="#2563eb"/>
  <circle cx="896.49" cy="300.01" r="2.5" fill="#2563eb"/>
  <circle cx="898.64" cy="299.97" r="2.5" fill="#2563eb"/>
  <circle cx="900.78" cy="250.03" r="2.5" fill="#2563eb"/>
  <circle cx="902.92" cy="300.01" r="2.5" fill="#2563eb"/>
  <circle cx="905.06" cy="300.01" r="2.5" fill="#2563eb"/>
  <circle cx="907.20" cy="300.01" r="2.5" fill="#2563eb"/>
  <circle cx="909.34" cy="300.01" r="2.5" fill="#2563eb"/>
  <circle cx="911.48" cy="250.03" r="2.5" fill="#2563eb"/>
  <circle cx="913.62" cy="249.99" r="2.5" fill="#2563eb"/>
  <circle cx="915.76" cy="300.01" r="2.5" fill="#2563eb"/>
  <circle cx="917.91" cy="299.97" r="2.5" fill="#2563eb"/>
  <circle cx="920.05" cy="300.01" r="2.5" fill="#2563eb"/>
  <circle cx="922.19" cy="299.97" r="2.5" fill="#2563eb"/>
  <circle cx="924.33" cy="300.01" r="2.5" fill="#2563eb"/>
  <circle cx="926.47" cy="299.97" r="2.5" fill="#2563eb"/>
  <circle cx="928.61" cy="299.97" r="2.5" fill="#2563eb"/>
  <circle cx="930.75" cy="299.97" r="2.5" fill="#2563eb"/>
  <circle cx="932.89" cy="300.06" r="2.5" fill="#2563eb"/>
  <circle cx="935.04" cy="249.99" r="2.5" fill="#2563eb"/>
  <circle cx="937.18" cy="300.01" r="2.5" fill="#2563eb"/>
  <circle cx="939.32" cy="250.03" r="2.5" fill="#2563eb"/>
  <circle cx="941.46" cy="249.94" r="2.5" fill="#2563eb"/>
  <circle cx="943.60" cy="249.99" r="2.5" fill="#2563eb"/>
  <circle cx="945.74" cy="300.01" r="2.5" fill="#2563eb"/>
  <circle cx="947.88" cy="300.06" r="2.5" fill="#2563eb"/>
  <circle cx="950.02" cy="300.01" r="2.5" fill="#2563eb"/>
  <circle cx="952.16" cy="299.97" r="2.5" fill="#2563eb"/>
  <circle cx="954.31" cy="299.97" r="2.5" fill="#2563eb"/>
  <circle cx="956.45" cy="300.01" r="2.5" fill="#2563eb"/>
  <circle cx="958.59" cy="299.93" r="2.5" fill="#2563eb"/>
  <circle cx="960.73" cy="299.89" r="2.5" fill="#2563eb"/>
  <circle cx="962.87" cy="299.89" r="2.5" fill="#2563eb"/>
  <circle cx="965.01" cy="299.89" r="2.5" fill="#2563eb"/>
  <circle cx="967.15" cy="299.89" r="2.5" fill="#2563eb"/>
  <circle cx="969.29" cy="299.85" r="2.5" fill="#2563eb"/>
  <circle cx="971.44" cy="299.85" r="2.5" fill="#2563eb"/>
  <circle cx="973.58" cy="299.89" r="2.5" fill="#2563eb"/>
  <circle cx="975.72" cy="299.81" r="2.5" fill="#2563eb"/>
  <circle cx="977.86" cy="299.81" r="2.5" fill="#2563eb"/>
  <circle cx="980.00" cy="299.81" r="2.5" fill="#2563eb"/>
</svg>
