<?xml version="1.0" encoding="UTF-8"?>
<svg xmlns="http://www.w3.org/2000/svg" width="1000" height="420" viewBox="0 0 1000 420">
  <rect width="100%" height="100%" fill="#ffffff"/>
  <text x="70" y="28" font-size="20" font-weight="600">수집 시점 기준 - 일별 스냅샷</text>
  <text x="70" y="402" font-size="12" fill="#555">스냅샷 수</text>
  <line x1="70" y1="350.00" x2="980" y2="350.00" stroke="#e5e7eb" stroke-width="1"/>
  <text x="62" y="354.00" font-size="11" fill="#6b7280" text-anchor="end">0</text>
  <line x1="70" y1="290.00" x2="980" y2="290.00" stroke="#e5e7eb" stroke-width="1"/>
  <text x="62" y="294.00" font-size="11" fill="#6b7280" text-anchor="end">10,057</text>
  <line x1="70" y1="230.00" x2="980" y2="230.00" stroke="#e5e7eb" stroke-width="1"/>
  <text x="62" y="234.00" font-size="11" fill="#6b7280" text-anchor="end">20,114</text>
  <line x1="70" y1="170.00" x2="980" y2="170.00" stroke="#e5e7eb" stroke-width="1"/>
  <text x="62" y="174.00" font-size="11" fill="#6b7280" text-anchor="end">30,171</text>
  <line x1="70" y1="110.00" x2="980" y2="110.00" stroke="#e5e7eb" stroke-width="1"/>
  <text x="62" y="114.00" font-size="11" fill="#6b7280" text-anchor="end">40,228</text>
  <line x1="70" y1="50.00" x2="980" y2="50.00" stroke="#e5e7eb" stroke-width="1"/>
  <text x="62" y="54.00" font-size="11" fill="#6b7280" text-anchor="end">50,285</text>
  <line x1="70" y1="350" x2="980" y2="350" stroke="#111827" stroke-width="1.2"/>
  <line x1="70" y1="50" x2="70" y2="350" stroke="#111827" stroke-width="1.2"/>
  <line x1="70.00" y1="350" x2="70.00" y2="356" stroke="#9ca3af" stroke-width="1"/>
  <text x="70.00" y="372" font-size="10" fill="#6b7280" text-anchor="middle">2026-02-28</text>
  <line x1="135.00" y1="350" x2="135.00" y2="356" stroke="#9ca3af" stroke-width="1"/>
  <text x="135.00" y="372" font-size="10" fill="#6b7280" text-anchor="middle">2026-03-02</text>
  <line x1="200.00" y1="350" x2="200.00" y2="356" stroke="#9ca3af" stroke-width="1"/>
  <text x="200.00" y="372" font-size="10" fill="#6b7280" text-anchor="middle">2026-03-08</text>
  <line x1="265.00" y1="350" x2="265.00" y2="356" stroke="#9ca3af" stroke-width="1"/>
  <text x="265.00" y="372" font-size="10" fill="#6b7280" text-anchor="middle">2026-03-10</text>
  <line x1="330.00" y1="350" x2="330.00" y2="356" stroke="#9ca3af" stroke-width="1"/>
  <text x="330.00" y="372" font-size="10" fill="#6b7280" text-anchor="middle">2026-03-12</text>
  <line x1="395.00" y1="350" x2="395.00" y2="356" stroke="#9ca3af" stroke-width="1"/>
  <text x="395.00" y="372" font-size="10" fill="#6b7280" text-anchor="middle">2026-03-14</text>
  <line x1="460.00" y1="350" x2="460.00" y2="356" stroke="#9ca3af" stroke-width="1"/>
  <text x="460.00" y="372" font-size="10" fill="#6b7280" text-anchor="middle">2026-03-16</text>
  <line x1="525.00" y1="350" x2="525.00" y2="356" stroke="#9ca3af" stroke-width="1"/>
  <text x="525.00" y="372" font-size="10" fill="#6b7280" text-anchor="middle">2026-03-18</text>
  <line x1="590.00" y1="350" x2="590.00" y2="356" stroke="#9ca3af" stroke-width="1"/>
  <text x="590.00" y="372" font-size="10" fill="#6b7280" text-anchor="middle">2026-03-20</text>
  <line x1="655.00" y1="350" x2="655.00" y2="356" stroke="#9ca3af" stroke-width="1"/>
  <text x="655.00" y="372" font-size="10" fill="#6b7280" text-anchor="middle">2026-03-22</text>
  <line x1="720.00" y1="350" x2="720.00" y2="356" stroke="#9ca3af" stroke-width="1"/>
  <text x="720.00" y="372" font-size="10" fill="#6b7280" text-anchor="middle">2026-03-24</text>
  <line x1="785.00" y1="350" x2="785.00" y2="356" stroke="#9ca3af" stroke-width="1"/>
  <text x="785.00" y="372" font-size="10" fill="#6b7280" text-anchor="middle">2026-03-26</text>
  <line x1="850.00" y1="350" x2="850.00" y2="356" stroke="#9ca3af" stroke-width="1"/>
  <text x="850.00" y="372" font-size="10" fill="#6b7280" text-anchor="middle">2026-03-28</text>
  <line x1="915.00" y1="350" x2="915.00" y2="356" stroke="#9ca3af" stroke-width="1"/>
  <text x="915.00" y="372" font-size="10" fill="#6b7280" text-anchor="middle">2026-03-30</text>
  <line x1="980.00" y1="350" x2="980.00" y2="356" stroke="#9ca3af" stroke-width="1"/>
  <text x="980.00" y="372" font-size="10" fill="#6b7280" text-anchor="middle">2026-04-01</text>
  <polyline fill="none" stroke="#2563eb" stroke-width="2.5" points="70.00,264.08 102.50,78.85 135.00,253.89 167.50,292.71 200.00,50.00 232.50,78.27 265.00,63.76 297.50,71.41 330.00,64.86 362.50,64.10 395.00,148.63 427.50,206.71 460.00,235.41 492.50,235.42 525.00,242.59 557.50,228.26 590.00,213.91 622.50,192.40 655.00,199.59 687.50,235.43 720.00,228.26 752.50,235.41 785.00,242.53 817.50,242.57 850.00,213.92 882.50,228.26 915.00,228.19 947.50,242.02 980.00,284.77"/>
  <circle cx="70.00" cy="264.08" r="2.5" fill="#2563eb"/>
  <circle cx="102.50" cy="78.85" r="2.5" fill="#2563eb"/>
  <circle cx="135.00" cy="253.89" r="2.5" fill="#2563eb"/>
  <circle cx="167.50" cy="292.71" r="2.5" fill="#2563eb"/>
  <circle cx="200.00" cy="50.00" r="2.5" fill="#2563eb"/>
  <circle cx="232.50" cy="78.27" r="2.5" fill="#2563eb"/>
  <circle cx="265.00" cy="63.76" r="2.5" fill="#2563eb"/>
  <circle cx="297.50" cy="71.41" r="2.5" fill="#2563eb"/>
  <circle cx="330.00" cy="64.86" r="2.5" fill="#2563eb"/>
  <circle cx="362.50" cy="64.10" r="2.5" fill="#2563eb"/>
  <circle cx="395.00" cy="148.63" r="2.5" fill="#2563eb"/>
  <circle cx="427.50" cy="206.71" r="2.5" fill="#2563eb"/>
  <circle cx="460.00" cy="235.41" r="2.5" fill="#2563eb"/>
  <circle cx="492.50" cy="235.42" r="2.5" fill="#2563eb"/>
  <circle cx="525.00" cy="242.59" r="2.5" fill="#2563eb"/>
  <circle cx="557.50" cy="228.26" r="2.5" fill="#2563eb"/>
  <circle cx="590.00" cy="213.91" r="2.5" fill="#2563eb"/>
  <circle cx="622.50" cy="192.40" r="2.5" fill="#2563eb"/>
  <circle cx="655.00" cy="199.59" r="2.5" fill="#2563eb"/>
  <circle cx="687.50" cy="235.43" r="2.5" fill="#2563eb"/>
  <circle cx="720.00" cy="228.26" r="2.5" fill="#2563eb"/>
  <circle cx="752.50" cy="235.41" r="2.5" fill="#2563eb"/>
  <circle cx="785.00" cy="242.53" r="2.5" fill="#2563eb"/>
  <circle cx="817.50" cy="242.57" r="2.5" fill="#2563eb"/>
  <circle cx="850.00" cy="213.92" r="2.5" fill="#2563eb"/>
  <circle cx="882.50" cy="228.26" r="2.5" fill="#2563eb"/>
  <circle cx="915.00" cy="228.19" r="2.5" fill="#2563eb"/>
  <circle cx="947.50" cy="242.02" r="2.5" fill="#2563eb"/>
  <circle cx="980.00" cy="284.77" r="2.5" fill="#2563eb"/>
</svg>
