<?xml version="1.0" encoding="UTF-8"?>
<svg xmlns="http://www.w3.org/2000/svg" width="1000" height="420" viewBox="0 0 1000 420">
  <rect width="100%" height="100%" fill="#ffffff"/>
  <text x="70" y="28" font-size="20" font-weight="600">수집 시점 기준 - 시간별 스냅샷</text>
  <text x="70" y="402" font-size="12" fill="#555">스냅샷 수</text>
  <line x1="70" y1="350.00" x2="980" y2="350.00" stroke="#e5e7eb" stroke-width="1"/>
  <text x="62" y="354.00" font-size="11" fill="#6b7280" text-anchor="end">0</text>
  <line x1="70" y1="290.00" x2="980" y2="290.00" stroke="#e5e7eb" stroke-width="1"/>
  <text x="62" y="294.00" font-size="11" fill="#6b7280" text-anchor="end">1,440</text>
  <line x1="70" y1="230.00" x2="980" y2="230.00" stroke="#e5e7eb" stroke-width="1"/>
  <text x="62" y="234.00" font-size="11" fill="#6b7280" text-anchor="end">2,880</text>
  <line x1="70" y1="170.00" x2="980" y2="170.00" stroke="#e5e7eb" stroke-width="1"/>
  <text x="62" y="174.00" font-size="11" fill="#6b7280" text-anchor="end">4,321</text>
  <line x1="70" y1="110.00" x2="980" y2="110.00" stroke="#e5e7eb" stroke-width="1"/>
  <text x="62" y="114.00" font-size="11" fill="#6b7280" text-anchor="end">5,761</text>
  <line x1="70" y1="50.00" x2="980" y2="50.00" stroke="#e5e7eb" stroke-width="1"/>
  <text x="62" y="54.00" font-size="11" fill="#6b7280" text-anchor="end">7,202</text>
  <line x1="70" y1="350" x2="980" y2="350" stroke="#111827" stroke-width="1.2"/>
  <line x1="70" y1="50" x2="70" y2="350" stroke="#111827" stroke-width="1.2"/>
  <line x1="70.00" y1="350" x2="70.00" y2="356" stroke="#9ca3af" stroke-width="1"/>
  <text x="70.00" y="372" font-size="10" fill="#6b7280" text-anchor="middle">2026-02-28 18</text>
  <line x1="144.92" y1="350" x2="144.92" y2="356" stroke="#9ca3af" stroke-width="1"/>
  <text x="144.92" y="372" font-size="10" fill="#6b7280" text-anchor="middle">2026-03-10 01</text>
  <line x1="219.83" y1="350" x2="219.83" y2="356" stroke="#9ca3af" stroke-width="1"/>
  <text x="219.83" y="372" font-size="10" fill="#6b7280" text-anchor="middle">2026-03-13 03</text>
  <line x1="294.75" y1="350" x2="294.75" y2="356" stroke="#9ca3af" stroke-width="1"/>
  <text x="294.75" y="372" font-size="10" fill="#6b7280" text-anchor="middle">2026-03-16 22</text>
  <line x1="369.66" y1="350" x2="369.66" y2="356" stroke="#9ca3af" stroke-width="1"/>
  <text x="369.66" y="372" font-size="10" fill="#6b7280" text-anchor="middle">2026-03-21 06</text>
  <line x1="444.58" y1="350" x2="444.58" y2="356" stroke="#9ca3af" stroke-width="1"/>
  <text x="444.58" y="372" font-size="10" fill="#6b7280" text-anchor="middle">2026-03-25 14</text>
  <line x1="519.49" y1="350" x2="519.49" y2="356" stroke="#9ca3af" stroke-width="1"/>
  <text x="519.49" y="372" font-size="10" fill="#6b7280" text-anchor="middle">2026-03-30 04</text>
  <line x1="594.41" y1="350" x2="594.41" y2="356" stroke="#9ca3af" stroke-width="1"/>
  <text x="594.41" y="372" font-size="10" fill="#6b7280" text-anchor="middle">2026-04-03 21</text>
  <line x1="669.32" y1="350" x2="669.32" y2="356" stroke="#9ca3af" stroke-width="1"/>
  <text x="669.32" y="372" font-size="10" fill="#6b7280" text-anchor="middle">2026-04-08 09</text>
  <line x1="744.24" y1="350" x2="744.24" y2="356" stroke="#9ca3af" stroke-width="1"/>
  <text x="744.24" y="372" font-size="10" fill="#6b7280" text-anchor="middle">2026-04-13 04</text>
  <line x1="819.15" y1="350" x2="819.15" y2="356" stroke="#9ca3af" stroke-width="1"/>
  <text x="819.15" y="372" font-size="10" fill="#6b7280" text-anchor="middle">2026-04-18 09</text>
  <line x1="894.07" y1="350" x2="894.07" y2="356" stroke="#9ca3af" stroke-width="1"/>
  <text x="894.07" y="372" font-size="10" fill="#6b7280" text-anchor="middle">2026-04-23 04</text>
  <line x1="968.98" y1="350" x2="968.98" y2="356" stroke="#9ca3af" stroke-width="1"/>
  <text x="968.98" y="372" font-size="10" fill="#6b7280" text-anchor="middle">2026-04-27 18</text>
  <line x1="980.00" y1="350" x2="980.00" y2="356" stroke="#9ca3af" stroke-width="1"/>
  <text x="980.00" y="372" font-size="10" fill="#6b7280" text-anchor="middle">2026-04-28 16</text>
  <polyline fill="none" stroke="#2563eb" stroke-width="2.5" points="70.00,50.00 71.10,50.12 72.20,50.17 73.31,50.46 74.41,50.00 75.51,266.90 76.61,50.12 77.71,50.08 78.81,177.46 79.92,211.58 81.02,175.34 82.12,304.14 83.22,200.46 84.32,250.94 85.42,300.01 86.53,300.06 87.63,300.01 88.73,300.01 89.83,348.00 90.93,300.01 92.03,249.99 93.14,200.00 94.24,249.99 95.34,249.99 96.44,250.03 97.54,250.03 98.64,250.03 99.75,250.40 100.85,250.90 101.95,250.90 103.05,251.32 104.15,249.94 105.25,300.01 106.36,299.93 107.46,251.03 108.56,300.68 109.66,250.03 110.76,200.00 111.86,249.99 112.97,250.03 114.07,250.03 115.17,250.03 116.27,300.01 117.37,200.04 118.47,250.03 119.58,250.03 120.68,250.03 121.78,249.90 122.88,250.03 123.98,250.03 125.08,250.94 126.19,250.44 127.29,250.03 128.39,250.03 129.49,300.47 130.59,300.01 131.69,300.43 132.80,250.03 133.90,249.99 135.00,300.43 136.10,249.90 137.20,249.99 138.31,249.99 139.41,200.04 140.51,300.01 141.61,300.01 142.71,300.01 143.81,249.90 144.92,300.01 146.02,250.03 147.12,249.99 148.22,199.96 149.32,300.01 150.42,200.00 151.53,250.36 152.63,250.03 153.73,300.01 154.83,300.01 155.93,250.44 157.03,300.01 158.14,250.03 159.24,250.03 160.34,249.99 161.44,250.49 162.54,250.03 163.64,200.04 164.75,300.01 165.85,250.03 166.95,300.01 168.05,250.11 169.15,300.01 170.25,250.03 171.36,250.03 172.46,199.92 173.56,250.03 174.66,250.03 175.76,250.03 176.86,254.36 177.97,300.01 179.07,299.97 180.17,250.36 181.27,299.97 182.37,250.03 183.47,250.03 184.58,250.03 185.68,250.03 186.78,249.99 187.88,200.00 188.98,299.93 190.08,300.01 191.19,299.97 192.29,249.94 193.39,249.99 194.49,249.82 195.59,249.94 196.69,250.28 197.80,207.00 198.90,250.03 200.00,250.32 201.10,250.40 202.20,300.93 203.31,300.01 204.41,300.10 205.51,249.94 206.61,249.99 207.71,250.07 208.81,249.99 209.92,250.03 211.02,249.94 212.12,200.00 213.22,300.39 214.32,300.01 215.42,300.01 216.53,250.44 217.63,300.39 218.73,249.86 219.83,250.11 220.93,201.46 222.03,300.01 223.14,200.83 224.24,250.03 225.34,249.99 226.44,300.26 227.54,300.01 228.64,300.01 229.75,250.03 230.85,250.03 231.95,250.03 233.05,250.03 234.15,249.99 235.25,250.03 236.36,200.00 237.46,300.26 238.56,249.99 239.66,300.01 240.76,249.94 241.86,250.03 242.97,250.03 244.07,250.03 245.17,200.04 246.27,300.01 247.37,249.90 248.47,300.01 249.58,300.01 250.68,300.06 251.78,300.01 252.88,300.01 253.98,243.95 255.08,249.94 256.19,299.97 257.29,300.01 258.39,300.01 259.49,250.03 260.59,300.01 261.69,300.01 262.80,299.97 263.90,249.99 265.00,300.01 266.10,299.93 267.20,300.01 268.31,299.93 269.41,300.01 270.51,300.01 271.61,299.89 272.71,299.97 273.81,250.03 274.92,299.93 276.02,299.89 277.12,299.97 278.22,249.94 279.32,300.01 280.42,300.01 281.53,299.97 282.63,249.99 283.73,299.97 284.83,299.97 285.93,300.06 287.03,300.06 288.14,299.93 289.24,300.01 290.34,300.01 291.44,299.93 292.54,300.01 293.64,300.01 294.75,299.97 295.85,300.01 296.95,300.01 298.05,300.01 299.15,300.01 300.25,249.86 301.36,300.01 302.46,300.10 303.56,299.93 304.66,300.01 305.76,299.93 306.86,300.01 307.97,300.01 309.07,300.01 310.17,300.01 311.27,300.01 312.37,299.97 313.47,300.01 314.58,300.01 315.68,300.01 316.78,300.01 317.88,250.03 318.98,300.01 320.08,300.01 321.19,299.97 322.29,300.01 323.39,300.01 324.49,299.97 325.59,299.97 326.69,300.01 327.80,299.97 328.90,300.01 330.00,299.93 331.10,300.01 332.20,250.03 333.31,300.01 334.41,300.01 335.51,300.01 336.61,300.01 337.71,300.01 338.81,299.89 339.92,300.01 341.02,300.01 342.12,250.07 343.22,300.01 344.32,299.93 345.42,300.01 346.53,299.97 347.63,299.97 348.73,299.97 349.83,250.03 350.93,300.01 352.03,300.01 353.14,300.01 354.24,300.01 355.34,299.97 356.44,300.01 357.54,299.97 358.64,300.01 359.75,299.97 360.85,249.90 361.95,300.01 363.05,300.01 364.15,299.89 365.25,299.97 366.36,299.97 367.46,249.99 368.56,299.97 369.66,299.89 370.76,300.01 371.86,299.97 372.97,299.97 374.07,300.01 375.17,299.97 376.27,249.99 377.37,299.97 378.47,299.97 379.58,300.06 380.68,300.06 381.78,249.94 382.88,300.01 383.98,299.93 385.08,300.01 386.19,300.01 387.29,249.99 388.39,300.01 389.49,300.01 390.59,300.01 391.69,299.93 392.80,299.93 393.90,300.01 395.00,300.01 396.10,249.94 397.20,299.97 398.31,299.97 399.41,300.01 400.51,300.01 401.61,300.01 402.71,249.99 403.81,300.01 404.92,300.01 406.02,300.01 407.12,250.03 408.22,300.01 409.32,300.01 410.42,300.01 411.53,299.97 412.63,300.01 413.73,300.01 414.83,299.97 415.93,299.97 417.03,300.01 418.14,300.01 419.24,299.97 420.34,299.93 421.44,300.01 422.54,300.06 423.64,299.97 424.75,300.01 425.85,250.03 426.95,250.03 428.05,299.93 429.15,299.97 430.25,300.01 431.36,300.01 432.46,300.06 433.56,300.01 434.66,299.93 435.76,300.01 436.86,300.01 437.97,299.97 439.07,299.97 440.17,300.01 441.27,250.03 442.37,300.01 443.47,300.01 444.58,300.01 445.68,299.97 446.78,300.01 447.88,299.97 448.98,300.01 450.08,299.97 451.19,299.97 452.29,299.93 453.39,300.01 454.49,300.01 455.59,299.89 456.69,299.97 457.80,299.97 458.90,300.06 460.00,249.90 461.10,299.89 462.20,300.01 463.31,299.97 464.41,299.97 465.51,299.97 466.61,300.01 467.71,300.01 468.81,299.97 469.92,299.97 471.02,299.97 472.12,250.03 473.22,299.93 474.32,300.01 475.42,300.01 476.53,299.93 477.63,300.01 478.73,300.01 479.83,299.97 480.93,300.01 482.03,300.01 483.14,300.06 484.24,300.01 485.34,299.97 486.44,299.89 487.54,300.01 488.64,300.01 489.75,249.94 490.85,249.94 491.95,300.01 493.05,300.01 494.15,300.01 495.25,300.01 496.36,299.97 497.46,250.03 498.56,300.01 499.66,300.01 500.76,300.01 501.86,300.01 502.97,250.03 504.07,249.99 505.17,300.01 506.27,299.97 507.37,300.01 508.47,299.97 509.58,300.01 510.68,299.97 511.78,299.97 512.88,299.97 513.98,300.06 515.08,249.99 516.19,300.01 517.29,250.03 518.39,249.94 519.49,249.99 520.59,300.01 521.69,300.06 522.80,300.01 523.90,299.97 525.00,299.97 526.10,300.01 527.20,299.93 528.31,299.89 529.41,299.89 530.51,299.89 531.61,299.89 532.71,299.85 533.81,299.85 534.92,299.89 536.02,299.81 537.12,299.81 538.22,299.81 539.32,299.76 540.42,299.76 541.53,299.76 542.63,299.72 543.73,299.68 544.83,299.60 545.93,299.60 547.03,299.60 548.14,299.56 549.24,299.47 550.34,299.43 551.44,299.43 552.54,299.39 553.64,299.47 554.75,259.82 555.85,338.96 556.95,299.31 558.05,299.31 559.15,299.26 560.25,299.68 561.36,299.68 562.46,299.68 563.56,299.64 564.66,299.14 565.76,299.14 566.86,299.10 567.97,299.10 569.07,299.10 570.17,248.07 571.27,299.06 572.37,299.06 573.47,299.06 574.58,299.06 575.68,299.06 576.78,298.97 577.88,298.97 578.98,298.93 580.08,298.97 581.19,298.93 582.29,298.89 583.39,298.89 584.49,298.89 585.59,298.89 586.69,247.78 587.80,298.89 588.90,298.89 590.00,298.85 591.10,298.85 592.20,298.81 593.31,298.81 594.41,298.81 595.51,298.81 596.61,298.81 597.71,298.81 598.81,298.81 599.92,298.81 601.02,298.81 602.12,298.72 603.22,247.45 604.32,247.45 605.42,298.72 606.53,298.72 607.63,298.72 608.73,298.72 609.83,298.72 610.93,298.72 612.03,247.36 613.14,298.68 614.24,247.36 615.34,247.36 616.44,247.36 617.54,298.68 618.64,298.68 619.75,298.68 620.85,298.68 621.95,298.68 623.05,341.67 624.15,307.01 625.25,298.68 626.36,298.68 627.46,298.68 628.56,247.36 629.66,298.64 630.76,247.36 631.86,247.28 632.97,247.20 634.07,298.60 635.17,298.60 636.27,247.03 637.37,298.51 638.47,298.51 639.58,298.51 640.68,298.51 641.78,298.51 642.88,298.51 643.98,298.51 645.08,298.51 646.19,298.51 647.29,298.51 648.39,298.51 649.49,298.51 650.59,298.51 651.69,298.51 652.80,298.51 653.90,298.51 655.00,298.51 656.10,298.51 657.20,298.51 658.31,298.51 659.41,298.51 660.51,298.51 661.61,298.51 662.71,298.51 663.81,298.51 664.92,298.51 666.02,298.47 667.12,298.51 668.22,298.51 669.32,298.47 670.42,298.51 671.53,298.47 672.63,298.51 673.73,298.43 674.83,298.56 675.93,298.43 677.03,298.43 678.14,298.43 679.24,298.43 680.34,298.43 681.44,298.43 682.54,298.43 683.64,298.43 684.75,298.43 685.85,298.43 686.95,298.43 688.05,298.43 689.15,298.43 690.25,298.43 691.36,298.43 692.46,298.43 693.56,298.43 694.66,298.43 695.76,298.43 696.86,298.43 697.97,298.43 699.07,298.43 700.17,298.43 701.27,298.43 702.37,298.43 703.47,298.43 704.58,298.43 705.68,298.43 706.78,298.43 707.88,298.43 708.98,298.43 710.08,298.43 711.19,298.43 712.29,298.43 713.39,298.39 714.49,298.39 715.59,298.43 716.69,298.43 717.80,298.39 718.90,298.39 720.00,298.39 721.10,298.43 722.20,298.43 723.31,298.43 724.41,246.82 725.51,298.43 726.61,246.78 727.71,246.78 728.81,246.78 729.92,246.70 731.02,246.78 732.12,298.39 733.22,298.39 734.32,298.39 735.42,298.39 736.53,298.39 737.63,246.78 738.73,298.39 739.83,298.39 740.93,298.39 742.03,298.39 743.14,298.39 744.24,246.78 745.34,246.78 746.44,298.39 747.54,298.39 748.64,298.39 749.75,298.39 750.85,298.39 751.95,298.39 753.05,298.39 754.15,298.39 755.25,298.39 756.36,298.39 757.46,298.39 758.56,298.39 759.66,298.39 760.76,298.39 761.86,298.35 762.97,298.39 764.07,298.39 765.17,298.35 766.27,298.35 767.37,298.35 768.47,298.35 769.58,298.35 770.68,298.35 771.78,298.35 772.88,298.35 773.98,298.35 775.08,298.35 776.19,298.35 777.29,298.35 778.39,298.35 779.49,298.35 780.59,298.35 781.69,298.35 782.80,298.35 783.90,298.35 785.00,298.35 786.10,298.35 787.20,298.35 788.31,298.35 789.41,298.35 790.51,298.35 791.61,298.35 792.71,298.35 793.81,298.35 794.92,298.35 796.02,298.35 797.12,298.35 798.22,298.35 799.32,298.35 800.42,298.35 801.53,298.35 802.63,298.35 803.73,298.35 804.83,298.35 805.93,298.35 807.03,298.35 808.14,298.35 809.24,298.35 810.34,298.35 811.44,298.35 812.54,298.35 813.64,298.35 814.75,298.35 815.85,298.35 816.95,298.35 818.05,298.35 819.15,298.35 820.25,298.35 821.36,298.35 822.46,298.39 823.56,298.39 824.66,298.39 825.76,246.78 826.86,298.39 827.97,298.39 829.07,298.39 830.17,298.39 831.27,298.39 832.37,298.39 833.47,298.39 834.58,246.78 835.68,298.39 836.78,298.39 837.88,298.39 838.98,298.39 840.08,298.39 841.19,298.39 842.29,298.39 843.39,246.78 844.49,298.39 845.59,298.39 846.69,298.39 847.80,298.39 848.90,298.39 850.00,298.39 851.10,298.39 852.20,298.39 853.31,298.39 854.41,298.39 855.51,298.39 856.61,298.35 857.71,298.39 858.81,298.39 859.92,298.39 861.02,298.35 862.12,298.35 863.22,298.35 864.32,298.35 865.42,298.35 866.53,298.35 867.63,298.35 868.73,298.35 869.83,298.35 870.93,298.35 872.03,298.35 873.14,298.35 874.24,298.35 875.34,298.35 876.44,298.35 877.54,298.35 878.64,298.39 879.75,298.39 880.85,298.39 881.95,298.39 883.05,298.39 884.15,298.39 885.25,298.35 886.36,298.39 887.46,298.39 888.56,298.39 889.66,298.39 890.76,298.39 891.86,298.39 892.97,298.39 894.07,298.39 895.17,298.39 896.27,298.35 897.37,298.39 898.47,298.39 899.58,298.39 900.68,298.39 901.78,298.39 902.88,298.39 903.98,298.39 905.08,298.39 906.19,298.39 907.29,298.39 908.39,298.39 909.49,298.39 910.59,298.39 911.69,298.39 912.80,298.39 913.90,298.39 915.00,298.35 916.10,298.35 917.20,298.39 918.31,298.39 919.41,298.39 920.51,298.39 921.61,298.39 922.71,298.39 923.81,298.39 924.92,298.39 926.02,298.39 927.12,298.39 928.22,298.35 929.32,298.35 930.42,298.39 931.53,298.39 932.63,298.39 933.73,298.39 934.83,298.39 935.93,298.39 937.03,298.39 938.14,298.39 939.24,298.39 940.34,298.39 941.44,298.39 942.54,298.39 943.64,298.39 944.75,298.39 945.85,298.35 946.95,298.39 948.05,298.39 949.15,298.39 950.25,298.39 951.36,298.39 952.46,298.39 953.56,298.39 954.66,298.39 955.76,298.35 956.86,298.35 957.97,298.39 959.07,298.35 960.17,298.39 961.27,298.39 962.37,298.39 963.47,298.39 964.58,298.39 965.68,298.35 966.78,298.39 967.88,298.39 968.98,298.35 970.08,298.39 971.19,298.35 972.29,298.39 973.39,298.39 974.49,298.35 975.59,298.39 976.69,298.35 977.80,298.39 978.90,298.39 980.00,298.35"/>
  <circle cx="70.00" cy="50.00" r="2.5" fill="#2563eb"/>
  <circle cx="71.10" cy="50.12" r="2.5" fill="#2563eb"/>
  <circle cx="72.20" cy="50.17" r="2.5" fill="#2563eb"/>
  <circle cx="73.31" cy="50.46" r="2.5" fill="#2563eb"/>
  <circle cx="74.41" cy="50.00" r="2.5" fill="#2563eb"/>
  <circle cx="75.51" cy="266.90" r="2.5" fill="#2563eb"/>
  <circle cx="76.61" cy="50.12" r="2.5" fill="#2563eb"/>
  <circle cx="77.71" cy="50.08" r="2.5" fill="#2563eb"/>
  <circle cx="78.81" cy="177.46" r="2.5" fill="#2563eb"/>
  <circle cx="79.92" cy="211.58" r="2.5" fill="#2563eb"/>
  <circle cx="81.02" cy="175.34" r="2.5" fill="#2563eb"/>
  <circle cx="82.12" cy="304.14" r="2.5" fill="#2563eb"/>
  <circle cx="83.22" cy="200.46" r="2.5" fill="#2563eb"/>
  <circle cx="84.32" cy="250.94" r="2.5" fill="#2563eb"/>
  <circle cx="85.42" cy="300.01" r="2.5" fill="#2563eb"/>
  <circle cx="86.53" cy="300.06" r="2.5" fill="#2563eb"/>
  <circle cx="87.63" cy="300.01" r="2.5" fill="#2563eb"/>
  <circle cx="88.73" cy="300.01" r="2.5" fill="#2563eb"/>
  <circle cx="89.83" cy="348.00" r="2.5" fill="#2563eb"/>
  <circle cx="90.93" cy="300.01" r="2.5" fill="#2563eb"/>
  <circle cx="92.03" cy="249.99" r="2.5" fill="#2563eb"/>
  <circle cx="93.14" cy="200.00" r="2.5" fill="#2563eb"/>
  <circle cx="94.24" cy="249.99" r="2.5" fill="#2563eb"/>
  <circle cx="95.34" cy="249.99" r="2.5" fill="#2563eb"/>
  <circle cx="96.44" cy="250.03" r="2.5" fill="#2563eb"/>
  <circle cx="97.54" cy="250.03" r="2.5" fill="#2563eb"/>
  <circle cx="98.64" cy="250.03" r="2.5" fill="#2563eb"/>
  <circle cx="99.75" cy="250.40" r="2.5" fill="#2563eb"/>
  <circle cx="100.85" cy="250.90" r="2.5" fill="#2563eb"/>
  <circle cx="101.95" cy="250.90" r="2.5" fill="#2563eb"/>
  <circle cx="103.05" cy="251.32" r="2.5" fill="#2563eb"/>
  <circle cx="104.15" cy="249.94" r="2.5" fill="#2563eb"/>
  <circle cx="105.25" cy="300.01" r="2.5" fill="#2563eb"/>
  <circle cx="106.36" cy="299.93" r="2.5" fill="#2563eb"/>
  <circle cx="107.46" cy="251.03" r="2.5" fill="#2563eb"/>
  <circle cx="108.56" cy="300.68" r="2.5" fill="#2563eb"/>
  <circle cx="109.66" cy="250.03" r="2.5" fill="#2563eb"/>
  <circle cx="110.76" cy="200.00" r="2.5" fill="#2563eb"/>
  <circle cx="111.86" cy="249.99" r="2.5" fill="#2563eb"/>
  <circle cx="112.97" cy="250.03" r="2.5" fill="#2563eb"/>
  <circle cx="114.07" cy="250.03" r="2.5" fill="#2563eb"/>
  <circle cx="115.17" cy="250.03" r="2.5" fill="#2563eb"/>
  <circle cx="116.27" cy="300.01" r="2.5" fill="#2563eb"/>
  <circle cx="117.37" cy="200.04" r="2.5" fill="#2563eb"/>
  <circle cx="118.47" cy="250.03" r="2.5" fill="#2563eb"/>
  <circle cx="119.58" cy="250.03" r="2.5" fill="#2563eb"/>
  <circle cx="120.68" cy="250.03" r="2.5" fill="#2563eb"/>
  <circle cx="121.78" cy="249.90" r="2.5" fill="#2563eb"/>
  <circle cx="122.88" cy="250.03" r="2.5" fill="#2563eb"/>
  <circle cx="123.98" cy="250.03" r="2.5" fill="#2563eb"/>
  <circle cx="125.08" cy="250.94" r="2.5" fill="#2563eb"/>
  <circle cx="126.19" cy="250.44" r="2.5" fill="#2563eb"/>
  <circle cx="127.29" cy="250.03" r="2.5" fill="#2563eb"/>
  <circle cx="128.39" cy="250.03" r="2.5" fill="#2563eb"/>
  <circle cx="129.49" cy="300.47" r="2.5" fill="#2563eb"/>
  <circle cx="130.59" cy="300.01" r="2.5" fill="#2563eb"/>
  <circle cx="131.69" cy="300.43" r="2.5" fill="#2563eb"/>
  <circle cx="132.80" cy="250.03" r="2.5" fill="#2563eb"/>
  <circle cx="133.90" cy="249.99" r="2.5" fill="#2563eb"/>
  <circle cx="135.00" cy="300.43" r="2.5" fill="#2563eb"/>
  <circle cx="136.10" cy="249.90" r="2.5" fill="#2563eb"/>
  <circle cx="137.20" cy="249.99" r="2.5" fill="#2563eb"/>
  <circle cx="138.31" cy="249.99" r="2.5" fill="#2563eb"/>
  <circle cx="139.41" cy="200.04" r="2.5" fill="#2563eb"/>
  <circle cx="140.51" cy="300.01" r="2.5" fill="#2563eb"/>
  <circle cx="141.61" cy="300.01" r="2.5" fill="#2563eb"/>
  <circle cx="142.71" cy="300.01" r="2.5" fill="#2563eb"/>
  <circle cx="143.81" cy="249.90" r="2.5" fill="#2563eb"/>
  <circle cx="144.92" cy="300.01" r="2.5" fill="#2563eb"/>
  <circle cx="146.02" cy="250.03" r="2.5" fill="#2563eb"/>
  <circle cx="147.12" cy="249.99" r="2.5" fill="#2563eb"/>
  <circle cx="148.22" cy="199.96" r="2.5" fill="#2563eb"/>
  <circle cx="149.32" cy="300.01" r="2.5" fill="#2563eb"/>
  <circle cx="150.42" cy="200.00" r="2.5" fill="#2563eb"/>
  <circle cx="151.53" cy="250.36" r="2.5" fill="#2563eb"/>
  <circle cx="152.63" cy="250.03" r="2.5" fill="#2563eb"/>
  <circle cx="153.73" cy="300.01" r="2.5" fill="#2563eb"/>
  <circle cx="154.83" cy="300.01" r="2.5" fill="#2563eb"/>
  <circle cx="155.93" cy="250.44" r="2.5" fill="#2563eb"/>
  <circle cx="157.03" cy="300.01" r="2.5" fill="#2563eb"/>
  <circle cx="158.14" cy="250.03" r="2.5" fill="#2563eb"/>
  <circle cx="159.24" cy="250.03" r="2.5" fill="#2563eb"/>
  <circle cx="160.34" cy="249.99" r="2.5" fill="#2563eb"/>
  <circle cx="161.44" cy="250.49" r="2.5" fill="#2563eb"/>
  <circle cx="162.54" cy="250.03" r="2.5" fill="#2563eb"/>
  <circle cx="163.64" cy="200.04" r="2.5" fill="#2563eb"/>
  <circle cx="164.75" cy="300.01" r="2.5" fill="#2563eb"/>
  <circle cx="165.85" cy="250.03" r="2.5" fill="#2563eb"/>
  <circle cx="166.95" cy="300.01" r="2.5" fill="#2563eb"/>
  <circle cx="168.05" cy="250.11" r="2.5" fill="#2563eb"/>
  <circle cx="169.15" cy="300.01" r="2.5" fill="#2563eb"/>
  <circle cx="170.25" cy="250.03" r="2.5" fill="#2563eb"/>
  <circle cx="171.36" cy="250.03" r="2.5" fill="#2563eb"/>
  <circle cx="172.46" cy="199.92" r="2.5" fill="#2563eb"/>
  <circle cx="173.56" cy="250.03" r="2.5" fill="#2563eb"/>
  <circle cx="174.66" cy="250.03" r="2.5" fill="#2563eb"/>
  <circle cx="175.76" cy="250.03" r="2.5" fill="#2563eb"/>
  <circle cx="176.86" cy="254.36" r="2.5" fill="#2563eb"/>
  <circle cx="177.97" cy="300.01" r="2.5" fill="#2563eb"/>
  <circle cx="179.07" cy="299.97" r="2.5" fill="#2563eb"/>
  <circle cx="180.17" cy="250.36" r="2.5" fill="#2563eb"/>
  <circle cx="181.27" cy="299.97" r="2.5" fill="#2563eb"/>
  <circle cx="182.37" cy="250.03" r="2.5" fill="#2563eb"/>
  <circle cx="183.47" cy="250.03" r="2.5" fill="#2563eb"/>
  <circle cx="184.58" cy="250.03" r="2.5" fill="#2563eb"/>
  <circle cx="185.68" cy="250.03" r="2.5" fill="#2563eb"/>
  <circle cx="186.78" cy="249.99" r="2.5" fill="#2563eb"/>
  <circle cx="187.88" cy="200.00" r="2.5" fill="#2563eb"/>
  <circle cx="188.98" cy="299.93" r="2.5" fill="#2563eb"/>
  <circle cx="190.08" cy="300.01" r="2.5" fill="#2563eb"/>
  <circle cx="191.19" cy="299.97" r="2.5" fill="#2563eb"/>
  <circle cx="192.29" cy="249.94" r="2.5" fill="#2563eb"/>
  <circle cx="193.39" cy="249.99" r="2.5" fill="#2563eb"/>
  <circle cx="194.49" cy="249.82" r="2.5" fill="#2563eb"/>
  <circle cx="195.59" cy="249.94" r="2.5" fill="#2563eb"/>
  <circle cx="196.69" cy="250.28" r="2.5" fill="#2563eb"/>
  <circle cx="197.80" cy="207.00" r="2.5" fill="#2563eb"/>
  <circle cx="198.90" cy="250.03" r="2.5" fill="#2563eb"/>
  <circle cx="200.00" cy="250.32" r="2.5" fill="#2563eb"/>
  <circle cx="201.10" cy="250.40" r="2.5" fill="#2563eb"/>
  <circle cx="202.20" cy="300.93" r="2.5" fill="#2563eb"/>
  <circle cx="203.31" cy="300.01" r="2.5" fill="#2563eb"/>
  <circle cx="204.41" cy="300.10" r="2.5" fill="#2563eb"/>
  <circle cx="205.51" cy="249.94" r="2.5" fill="#2563eb"/>
  <circle cx="206.61" cy="249.99" r="2.5" fill="#2563eb"/>
  <circle cx="207.71" cy="250.07" r="2.5" fill="#2563eb"/>
  <circle cx="208.81" cy="249.99" r="2.5" fill="#2563eb"/>
  <circle cx="209.92" cy="250.03" r="2.5" fill="#2563eb"/>
  <circle cx="211.02" cy="249.94" r="2.5" fill="#2563eb"/>
  <circle cx="212.12" cy="200.00" r="2.5" fill="#2563eb"/>
  <circle cx="213.22" cy="300.39" r="2.5" fill="#2563eb"/>
  <circle cx="214.32" cy="300.01" r="2.5" fill="#2563eb"/>
  <circle cx="215.42" cy="300.01" r="2.5" fill="#2563eb"/>
  <circle cx="216.53" cy="250.44" r="2.5" fill="#2563eb"/>
  <circle cx="217.63" cy="300.39" r="2.5" fill="#2563eb"/>
  <circle cx="218.73" cy="249.86" r="2.5" fill="#2563eb"/>
  <circle cx="219.83" cy="250.11" r="2.5" fill="#2563eb"/>
  <circle cx="220.93" cy="201.46" r="2.5" fill="#2563eb"/>
  <circle cx="222.03" cy="300.01" r="2.5" fill="#2563eb"/>
  <circle cx="223.14" cy="200.83" r="2.5" fill="#2563eb"/>
  <circle cx="224.24" cy="250.03" r="2.5" fill="#2563eb"/>
  <circle cx="225.34" cy="249.99" r="2.5" fill="#2563eb"/>
  <circle cx="226.44" cy="300.26" r="2.5" fill="#2563eb"/>
  <circle cx="227.54" cy="300.01" r="2.5" fill="#2563eb"/>
  <circle cx="228.64" cy="300.01" r="2.5" fill="#2563eb"/>
  <circle cx="229.75" cy="250.03" r="2.5" fill="#2563eb"/>
  <circle cx="230.85" cy="250.03" r="2.5" fill="#2563eb"/>
  <circle cx="231.95" cy="250.03" r="2.5" fill="#2563eb"/>
  <circle cx="233.05" cy="250.03" r="2.5" fill="#2563eb"/>
  <circle cx="234.15" cy="249.99" r="2.5" fill="#2563eb"/>
  <circle cx="235.25" cy="250.03" r="2.5" fill="#2563eb"/>
  <circle cx="236.36" cy="200.00" r="2.5" fill="#2563eb"/>
  <circle cx="237.46" cy="300.26" r="2.5" fill="#2563eb"/>
  <circle cx="238.56" cy="249.99" r="2.5" fill="#2563eb"/>
  <circle cx="239.66" cy="300.01" r="2.5" fill="#2563eb"/>
  <circle cx="240.76" cy="249.94" r="2.5" fill="#2563eb"/>
  <circle cx="241.86" cy="250.03" r="2.5" fill="#2563eb"/>
  <circle cx="242.97" cy="250.03" r="2.5" fill="#2563eb"/>
  <circle cx="244.07" cy="250.03" r="2.5" fill="#2563eb"/>
  <circle cx="245.17" cy="200.04" r="2.5" fill="#2563eb"/>
  <circle cx="246.27" cy="300.01" r="2.5" fill="#2563eb"/>
  <circle cx="247.37" cy="249.90" r="2.5" fill="#2563eb"/>
  <circle cx="248.47" cy="300.01" r="2.5" fill="#2563eb"/>
  <circle cx="249.58" cy="300.01" r="2.5" fill="#2563eb"/>
  <circle cx="250.68" cy="300.06" r="2.5" fill="#2563eb"/>
  <circle cx="251.78" cy="300.01" r="2.5" fill="#2563eb"/>
  <circle cx="252.88" cy="300.01" r="2.5" fill="#2563eb"/>
  <circle cx="253.98" cy="243.95" r="2.5" fill="#2563eb"/>
  <circle cx="255.08" cy="249.94" r="2.5" fill="#2563eb"/>
  <circle cx="256.19" cy="299.97" r="2.5" fill="#2563eb"/>
  <circle cx="257.29" cy="300.01" r="2.5" fill="#2563eb"/>
  <circle cx="258.39" cy="300.01" r="2.5" fill="#2563eb"/>
  <circle cx="259.49" cy="250.03" r="2.5" fill="#2563eb"/>
  <circle cx="260.59" cy="300.01" r="2.5" fill="#2563eb"/>
  <circle cx="261.69" cy="300.01" r="2.5" fill="#2563eb"/>
  <circle cx="262.80" cy="299.97" r="2.5" fill="#2563eb"/>
  <circle cx="263.90" cy="249.99" r="2.5" fill="#2563eb"/>
  <circle cx="265.00" cy="300.01" r="2.5" fill="#2563eb"/>
  <circle cx="266.10" cy="299.93" r="2.5" fill="#2563eb"/>
  <circle cx="267.20" cy="300.01" r="2.5" fill="#2563eb"/>
  <circle cx="268.31" cy="299.93" r="2.5" fill="#2563eb"/>
  <circle cx="269.41" cy="300.01" r="2.5" fill="#2563eb"/>
  <circle cx="270.51" cy="300.01" r="2.5" fill="#2563eb"/>
  <circle cx="271.61" cy="299.89" r="2.5" fill="#2563eb"/>
  <circle cx="272.71" cy="299.97" r="2.5" fill="#2563eb"/>
  <circle cx="273.81" cy="250.03" r="2.5" fill="#2563eb"/>
  <circle cx="274.92" cy="299.93" r="2.5" fill="#2563eb"/>
  <circle cx="276.02" cy="299.89" r="2.5" fill="#2563eb"/>
  <circle cx="277.12" cy="299.97" r="2.5" fill="#2563eb"/>
  <circle cx="278.22" cy="249.94" r="2.5" fill="#2563eb"/>
  <circle cx="279.32" cy="300.01" r="2.5" fill="#2563eb"/>
  <circle cx="280.42" cy="300.01" r="2.5" fill="#2563eb"/>
  <circle cx="281.53" cy="299.97" r="2.5" fill="#2563eb"/>
  <circle cx="282.63" cy="249.99" r="2.5" fill="#2563eb"/>
  <circle cx="283.73" cy="299.97" r="2.5" fill="#2563eb"/>
  <circle cx="284.83" cy="299.97" r="2.5" fill="#2563eb"/>
  <circle cx="285.93" cy="300.06" r="2.5" fill="#2563eb"/>
  <circle cx="287.03" cy="300.06" r="2.5" fill="#2563eb"/>
  <circle cx="288.14" cy="299.93" r="2.5" fill="#2563eb"/>
  <circle cx="289.24" cy="300.01" r="2.5" fill="#2563eb"/>
  <circle cx="290.34" cy="300.01" r="2.5" fill="#2563eb"/>
  <circle cx="291.44" cy="299.93" r="2.5" fill="#2563eb"/>
  <circle cx="292.54" cy="300.01" r="2.5" fill="#2563eb"/>
  <circle cx="293.64" cy="300.01" r="2.5" fill="#2563eb"/>
  <circle cx="294.75" cy="299.97" r="2.5" fill="#2563eb"/>
  <circle cx="295.85" cy="300.01" r="2.5" fill="#2563eb"/>
  <circle cx="296.95" cy="300.01" r="2.5" fill="#2563eb"/>
  <circle cx="298.05" cy="300.01" r="2.5" fill="#2563eb"/>
  <circle cx="299.15" cy="300.01" r="2.5" fill="#2563eb"/>
  <circle cx="300.25" cy="249.86" r="2.5" fill="#2563eb"/>
  <circle cx="301.36" cy="300.01" r="2.5" fill="#2563eb"/>
  <circle cx="302.46" cy="300.10" r="2.5" fill="#2563eb"/>
  <circle cx="303.56" cy="299.93" r="2.5" fill="#2563eb"/>
  <circle cx="304.66" cy="300.01" r="2.5" fill="#2563eb"/>
  <circle cx="305.76" cy="299.93" r="2.5" fill="#2563eb"/>
  <circle cx="306.86" cy="300.01" r="2.5" fill="#2563eb"/>
  <circle cx="307.97" cy="300.01" r="2.5" fill="#2563eb"/>
  <circle cx="309.07" cy="300.01" r="2.5" fill="#2563eb"/>
  <circle cx="310.17" cy="300.01" r="2.5" fill="#2563eb"/>
  <circle cx="311.27" cy="300.01" r="2.5" fill="#2563eb"/>
  <circle cx="312.37" cy="299.97" r="2.5" fill="#2563eb"/>
  <circle cx="313.47" cy="300.01" r="2.5" fill="#2563eb"/>
  <circle cx="314.58" cy="300.01" r="2.5" fill="#2563eb"/>
  <circle cx="315.68" cy="300.01" r="2.5" fill="#2563eb"/>
  <circle cx="316.78" cy="300.01" r="2.5" fill="#2563eb"/>
  <circle cx="317.88" cy="250.03" r="2.5" fill="#2563eb"/>
  <circle cx="318.98" cy="300.01" r="2.5" fill="#2563eb"/>
  <circle cx="320.08" cy="300.01" r="2.5" fill="#2563eb"/>
  <circle cx="321.19" cy="299.97" r="2.5" fill="#2563eb"/>
  <circle cx="322.29" cy="300.01" r="2.5" fill="#2563eb"/>
  <circle cx="323.39" cy="300.01" r="2.5" fill="#2563eb"/>
  <circle cx="324.49" cy="299.97" r="2.5" fill="#2563eb"/>
  <circle cx="325.59" cy="299.97" r="2.5" fill="#2563eb"/>
  <circle cx="326.69" cy="300.01" r="2.5" fill="#2563eb"/>
  <circle cx="327.80" cy="299.97" r="2.5" fill="#2563eb"/>
  <circle cx="328.90" cy="300.01" r="2.5" fill="#2563eb"/>
  <circle cx="330.00" cy="299.93" r="2.5" fill="#2563eb"/>
  <circle cx="331.10" cy="300.01" r="2.5" fill="#2563eb"/>
  <circle cx="332.20" cy="250.03" r="2.5" fill="#2563eb"/>
  <circle cx="333.31" cy="300.01" r="2.5" fill="#2563eb"/>
  <circle cx="334.41" cy="300.01" r="2.5" fill="#2563eb"/>
  <circle cx="335.51" cy="300.01" r="2.5" fill="#2563eb"/>
  <circle cx="336.61" cy="300.01" r="2.5" fill="#2563eb"/>
  <circle cx="337.71" cy="300.01" r="2.5" fill="#2563eb"/>
  <circle cx="338.81" cy="299.89" r="2.5" fill="#2563eb"/>
  <circle cx="339.92" cy="300.01" r="2.5" fill="#2563eb"/>
  <circle cx="341.02" cy="300.01" r="2.5" fill="#2563eb"/>
  <circle cx="342.12" cy="250.07" r="2.5" fill="#2563eb"/>
  <circle cx="343.22" cy="300.01" r="2.5" fill="#2563eb"/>
  <circle cx="344.32" cy="299.93" r="2.5" fill="#2563eb"/>
  <circle cx="345.42" cy="300.01" r="2.5" fill="#2563eb"/>
  <circle cx="346.53" cy="299.97" r="2.5" fill="#2563eb"/>
  <circle cx="347.63" cy="299.97" r="2.5" fill="#2563eb"/>
  <circle cx="348.73" cy="299.97" r="2.5" fill="#2563eb"/>
  <circle cx="349.83" cy="250.03" r="2.5" fill="#2563eb"/>
  <circle cx="350.93" cy="300.01" r="2.5" fill="#2563eb"/>
  <circle cx="352.03" cy="300.01" r="2.5" fill="#2563eb"/>
  <circle cx="353.14" cy="300.01" r="2.5" fill="#2563eb"/>
  <circle cx="354.24" cy="300.01" r="2.5" fill="#2563eb"/>
  <circle cx="355.34" cy="299.97" r="2.5" fill="#2563eb"/>
  <circle cx="356.44" cy="300.01" r="2.5" fill="#2563eb"/>
  <circle cx="357.54" cy="299.97" r="2.5" fill="#2563eb"/>
  <circle cx="358.64" cy="300.01" r="2.5" fill="#2563eb"/>
  <circle cx="359.75" cy="299.97" r="2.5" fill="#2563eb"/>
  <circle cx="360.85" cy="249.90" r="2.5" fill="#2563eb"/>
  <circle cx="361.95" cy="300.01" r="2.5" fill="#2563eb"/>
  <circle cx="363.05" cy="300.01" r="2.5" fill="#2563eb"/>
  <circle cx="364.15" cy="299.89" r="2.5" fill="#2563eb"/>
  <circle cx="365.25" cy="299.97" r="2.5" fill="#2563eb"/>
  <circle cx="366.36" cy="299.97" r="2.5" fill="#2563eb"/>
  <circle cx="367.46" cy="249.99" r="2.5" fill="#2563eb"/>
  <circle cx="368.56" cy="299.97" r="2.5" fill="#2563eb"/>
  <circle cx="369.66" cy="299.89" r="2.5" fill="#2563eb"/>
  <circle cx="370.76" cy="300.01" r="2.5" fill="#2563eb"/>
  <circle cx="371.86" cy="299.97" r="2.5" fill="#2563eb"/>
  <circle cx="372.97" cy="299.97" r="2.5" fill="#2563eb"/>
  <circle cx="374.07" cy="300.01" r="2.5" fill="#2563eb"/>
  <circle cx="375.17" cy="299.97" r="2.5" fill="#2563eb"/>
  <circle cx="376.27" cy="249.99" r="2.5" fill="#2563eb"/>
  <circle cx="377.37" cy="299.97" r="2.5" fill="#2563eb"/>
  <circle cx="378.47" cy="299.97" r="2.5" fill="#2563eb"/>
  <circle cx="379.58" cy="300.06" r="2.5" fill="#2563eb"/>
  <circle cx="380.68" cy="300.06" r="2.5" fill="#2563eb"/>
  <circle cx="381.78" cy="249.94" r="2.5" fill="#2563eb"/>
  <circle cx="382.88" cy="300.01" r="2.5" fill="#2563eb"/>
  <circle cx="383.98" cy="299.93" r="2.5" fill="#2563eb"/>
  <circle cx="385.08" cy="300.01" r="2.5" fill="#2563eb"/>
  <circle cx="386.19" cy="300.01" r="2.5" fill="#2563eb"/>
  <circle cx="387.29" cy="249.99" r="2.5" fill="#2563eb"/>
  <circle cx="388.39" cy="300.01" r="2.5" fill="#2563eb"/>
  <circle cx="389.49" cy="300.01" r="2.5" fill="#2563eb"/>
  <circle cx="390.59" cy="300.01" r="2.5" fill="#2563eb"/>
  <circle cx="391.69" cy="299.93" r="2.5" fill="#2563eb"/>
  <circle cx="392.80" cy="299.93" r="2.5" fill="#2563eb"/>
  <circle cx="393.90" cy="300.01" r="2.5" fill="#2563eb"/>
  <circle cx="395.00" cy="300.01" r="2.5" fill="#2563eb"/>
  <circle cx="396.10" cy="249.94" r="2.5" fill="#2563eb"/>
  <circle cx="397.20" cy="299.97" r="2.5" fill="#2563eb"/>
  <circle cx="398.31" cy="299.97" r="2.5" fill="#2563eb"/>
  <circle cx="399.41" cy="300.01" r="2.5" fill="#2563eb"/>
  <circle cx="400.51" cy="300.01" r="2.5" fill="#2563eb"/>
  <circle cx="401.61" cy="300.01" r="2.5" fill="#2563eb"/>
  <circle cx="402.71" cy="249.99" r="2.5" fill="#2563eb"/>
  <circle cx="403.81" cy="300.01" r="2.5" fill="#2563eb"/>
  <circle cx="404.92" cy="300.01" r="2.5" fill="#2563eb"/>
  <circle cx="406.02" cy="300.01" r="2.5" fill="#2563eb"/>
  <circle cx="407.12" cy="250.03" r="2.5" fill="#2563eb"/>
  <circle cx="408.22" cy="300.01" r="2.5" fill="#2563eb"/>
  <circle cx="409.32" cy="300.01" r="2.5" fill="#2563eb"/>
  <circle cx="410.42" cy="300.01" r="2.5" fill="#2563eb"/>
  <circle cx="411.53" cy="299.97" r="2.5" fill="#2563eb"/>
  <circle cx="412.63" cy="300.01" r="2.5" fill="#2563eb"/>
  <circle cx="413.73" cy="300.01" r="2.5" fill="#2563eb"/>
  <circle cx="414.83" cy="299.97" r="2.5" fill="#2563eb"/>
  <circle cx="415.93" cy="299.97" r="2.5" fill="#2563eb"/>
  <circle cx="417.03" cy="300.01" r="2.5" fill="#2563eb"/>
  <circle cx="418.14" cy="300.01" r="2.5" fill="#2563eb"/>
  <circle cx="419.24" cy="299.97" r="2.5" fill="#2563eb"/>
  <circle cx="420.34" cy="299.93" r="2.5" fill="#2563eb"/>
  <circle cx="421.44" cy="300.01" r="2.5" fill="#2563eb"/>
  <circle cx="422.54" cy="300.06" r="2.5" fill="#2563eb"/>
  <circle cx="423.64" cy="299.97" r="2.5" fill="#2563eb"/>
  <circle cx="424.75" cy="300.01" r="2.5" fill="#2563eb"/>
  <circle cx="425.85" cy="250.03" r="2.5" fill="#2563eb"/>
  <circle cx="426.95" cy="250.03" r="2.5" fill="#2563eb"/>
  <circle cx="428.05" cy="299.93" r="2.5" fill="#2563eb"/>
  <circle cx="429.15" cy="299.97" r="2.5" fill="#2563eb"/>
  <circle cx="430.25" cy="300.01" r="2.5" fill="#2563eb"/>
  <circle cx="431.36" cy="300.01" r="2.5" fill="#2563eb"/>
  <circle cx="432.46" cy="300.06" r="2.5" fill="#2563eb"/>
  <circle cx="433.56" cy="300.01" r="2.5" fill="#2563eb"/>
  <circle cx="434.66" cy="299.93" r="2.5" fill="#2563eb"/>
  <circle cx="435.76" cy="300.01" r="2.5" fill="#2563eb"/>
  <circle cx="436.86" cy="300.01" r="2.5" fill="#2563eb"/>
  <circle cx="437.97" cy="299.97" r="2.5" fill="#2563eb"/>
  <circle cx="439.07" cy="299.97" r="2.5" fill="#2563eb"/>
  <circle cx="440.17" cy="300.01" r="2.5" fill="#2563eb"/>
  <circle cx="441.27" cy="250.03" r="2.5" fill="#2563eb"/>
  <circle cx="442.37" cy="300.01" r="2.5" fill="#2563eb"/>
  <circle cx="443.47" cy="300.01" r="2.5" fill="#2563eb"/>
  <circle cx="444.58" cy="300.01" r="2.5" fill="#2563eb"/>
  <circle cx="445.68" cy="299.97" r="2.5" fill="#2563eb"/>
  <circle cx="446.78" cy="300.01" r="2.5" fill="#2563eb"/>
  <circle cx="447.88" cy="299.97" r="2.5" fill="#2563eb"/>
  <circle cx="448.98" cy="300.01" r="2.5" fill="#2563eb"/>
  <circle cx="450.08" cy="299.97" r="2.5" fill="#2563eb"/>
  <circle cx="451.19" cy="299.97" r="2.5" fill="#2563eb"/>
  <circle cx="452.29" cy="299.93" r="2.5" fill="#2563eb"/>
  <circle cx="453.39" cy="300.01" r="2.5" fill="#2563eb"/>
  <circle cx="454.49" cy="300.01" r="2.5" fill="#2563eb"/>
  <circle cx="455.59" cy="299.89" r="2.5" fill="#2563eb"/>
  <circle cx="456.69" cy="299.97" r="2.5" fill="#2563eb"/>
  <circle cx="457.80" cy="299.97" r="2.5" fill="#2563eb"/>
  <circle cx="458.90" cy="300.06" r="2.5" fill="#2563eb"/>
  <circle cx="460.00" cy="249.90" r="2.5" fill="#2563eb"/>
  <circle cx="461.10" cy="299.89" r="2.5" fill="#2563eb"/>
  <circle cx="462.20" cy="300.01" r="2.5" fill="#2563eb"/>
  <circle cx="463.31" cy="299.97" r="2.5" fill="#2563eb"/>
  <circle cx="464.41" cy="299.97" r="2.5" fill="#2563eb"/>
  <circle cx="465.51" cy="299.97" r="2.5" fill="#2563eb"/>
  <circle cx="466.61" cy="300.01" r="2.5" fill="#2563eb"/>
  <circle cx="467.71" cy="300.01" r="2.5" fill="#2563eb"/>
  <circle cx="468.81" cy="299.97" r="2.5" fill="#2563eb"/>
  <circle cx="469.92" cy="299.97" r="2.5" fill="#2563eb"/>
  <circle cx="471.02" cy="299.97" r="2.5" fill="#2563eb"/>
  <circle cx="472.12" cy="250.03" r="2.5" fill="#2563eb"/>
  <circle cx="473.22" cy="299.93" r="2.5" fill="#2563eb"/>
  <circle cx="474.32" cy="300.01" r="2.5" fill="#2563eb"/>
  <circle cx="475.42" cy="300.01" r="2.5" fill="#2563eb"/>
  <circle cx="476.53" cy="299.93" r="2.5" fill="#2563eb"/>
  <circle cx="477.63" cy="300.01" r="2.5" fill="#2563eb"/>
  <circle cx="478.73" cy="300.01" r="2.5" fill="#2563eb"/>
  <circle cx="479.83" cy="299.97" r="2.5" fill="#2563eb"/>
  <circle cx="480.93" cy="300.01" r="2.5" fill="#2563eb"/>
  <circle cx="482.03" cy="300.01" r="2.5" fill="#2563eb"/>
  <circle cx="483.14" cy="300.06" r="2.5" fill="#2563eb"/>
  <circle cx="484.24" cy="300.01" r="2.5" fill="#2563eb"/>
  <circle cx="485.34" cy="299.97" r="2.5" fill="#2563eb"/>
  <circle cx="486.44" cy="299.89" r="2.5" fill="#2563eb"/>
  <circle cx="487.54" cy="300.01" r="2.5" fill="#2563eb"/>
  <circle cx="488.64" cy="300.01" r="2.5" fill="#2563eb"/>
  <circle cx="489.75" cy="249.94" r="2.5" fill="#2563eb"/>
  <circle cx="490.85" cy="249.94" r="2.5" fill="#2563eb"/>
  <circle cx="491.95" cy="300.01" r="2.5" fill="#2563eb"/>
  <circle cx="493.05" cy="300.01" r="2.5" fill="#2563eb"/>
  <circle cx="494.15" cy="300.01" r="2.5" fill="#2563eb"/>
  <circle cx="495.25" cy="300.01" r="2.5" fill="#2563eb"/>
  <circle cx="496.36" cy="299.97" r="2.5" fill="#2563eb"/>
  <circle cx="497.46" cy="250.03" r="2.5" fill="#2563eb"/>
  <circle cx="498.56" cy="300.01" r="2.5" fill="#2563eb"/>
  <circle cx="499.66" cy="300.01" r="2.5" fill="#2563eb"/>
  <circle cx="500.76" cy="300.01" r="2.5" fill="#2563eb"/>
  <circle cx="501.86" cy="300.01" r="2.5" fill="#2563eb"/>
  <circle cx="502.97" cy="250.03" r="2.5" fill="#2563eb"/>
  <circle cx="504.07" cy="249.99" r="2.5" fill="#2563eb"/>
  <circle cx="505.17" cy="300.01" r="2.5" fill="#2563eb"/>
  <circle cx="506.27" cy="299.97" r="2.5" fill="#2563eb"/>
  <circle cx="507.37" cy="300.01" r="2.5" fill="#2563eb"/>
  <circle cx="508.47" cy="299.97" r="2.5" fill="#2563eb"/>
  <circle cx="509.58" cy="300.01" r="2.5" fill="#2563eb"/>
  <circle cx="510.68" cy="299.97" r="2.5" fill="#2563eb"/>
  <circle cx="511.78" cy="299.97" r="2.5" fill="#2563eb"/>
  <circle cx="512.88" cy="299.97" r="2.5" fill="#2563eb"/>
  <circle cx="513.98" cy="300.06" r="2.5" fill="#2563eb"/>
  <circle cx="515.08" cy="249.99" r="2.5" fill="#2563eb"/>
  <circle cx="516.19" cy="300.01" r="2.5" fill="#2563eb"/>
  <circle cx="517.29" cy="250.03" r="2.5" fill="#2563eb"/>
  <circle cx="518.39" cy="249.94" r="2.5" fill="#2563eb"/>
  <circle cx="519.49" cy="249.99" r="2.5" fill="#2563eb"/>
  <circle cx="520.59" cy="300.01" r="2.5" fill="#2563eb"/>
  <circle cx="521.69" cy="300.06" r="2.5" fill="#2563eb"/>
  <circle cx="522.80" cy="300.01" r="2.5" fill="#2563eb"/>
  <circle cx="523.90" cy="299.97" r="2.5" fill="#2563eb"/>
  <circle cx="525.00" cy="299.97" r="2.5" fill="#2563eb"/>
  <circle cx="526.10" cy="300.01" r="2.5" fill="#2563eb"/>
  <circle cx="527.20" cy="299.93" r="2.5" fill="#2563eb"/>
  <circle cx="528.31" cy="299.89" r="2.5" fill="#2563eb"/>
  <circle cx="529.41" cy="299.89" r="2.5" fill="#2563eb"/>
  <circle cx="530.51" cy="299.89" r="2.5" fill="#2563eb"/>
  <circle cx="531.61" cy="299.89" r="2.5" fill="#2563eb"/>
  <circle cx="532.71" cy="299.85" r="2.5" fill="#2563eb"/>
  <circle cx="533.81" cy="299.85" r="2.5" fill="#2563eb"/>
  <circle cx="534.92" cy="299.89" r="2.5" fill="#2563eb"/>
  <circle cx="536.02" cy="299.81" r="2.5" fill="#2563eb"/>
  <circle cx="537.12" cy="299.81" r="2.5" fill="#2563eb"/>
  <circle cx="538.22" cy="299.81" r="2.5" fill="#2563eb"/>
  <circle cx="539.32" cy="299.76" r="2.5" fill="#2563eb"/>
  <circle cx="540.42" cy="299.76" r="2.5" fill="#2563eb"/>
  <circle cx="541.53" cy="299.76" r="2.5" fill="#2563eb"/>
  <circle cx="542.63" cy="299.72" r="2.5" fill="#2563eb"/>
  <circle cx="543.73" cy="299.68" r="2.5" fill="#2563eb"/>
  <circle cx="544.83" cy="299.60" r="2.5" fill="#2563eb"/>
  <circle cx="545.93" cy="299.60" r="2.5" fill="#2563eb"/>
  <circle cx="547.03" cy="299.60" r="2.5" fill="#2563eb"/>
  <circle cx="548.14" cy="299.56" r="2.5" fill="#2563eb"/>
  <circle cx="549.24" cy="299.47" r="2.5" fill="#2563eb"/>
  <circle cx="550.34" cy="299.43" r="2.5" fill="#2563eb"/>
  <circle cx="551.44" cy="299.43" r="2.5" fill="#2563eb"/>
  <circle cx="552.54" cy="299.39" r="2.5" fill="#2563eb"/>
  <circle cx="553.64" cy="299.47" r="2.5" fill="#2563eb"/>
  <circle cx="554.75" cy="259.82" r="2.5" fill="#2563eb"/>
  <circle cx="555.85" cy="338.96" r="2.5" fill="#2563eb"/>
  <circle cx="556.95" cy="299.31" r="2.5" fill="#2563eb"/>
  <circle cx="558.05" cy="299.31" r="2.5" fill="#2563eb"/>
  <circle cx="559.15" cy="299.26" r="2.5" fill="#2563eb"/>
  <circle cx="560.25" cy="299.68" r="2.5" fill="#2563eb"/>
  <circle cx="561.36" cy="299.68" r="2.5" fill="#2563eb"/>
  <circle cx="562.46" cy="299.68" r="2.5" fill="#2563eb"/>
  <circle cx="563.56" cy="299.64" r="2.5" fill="#2563eb"/>
  <circle cx="564.66" cy="299.14" r="2.5" fill="#2563eb"/>
  <circle cx="565.76" cy="299.14" r="2.5" fill="#2563eb"/>
  <circle cx="566.86" cy="299.10" r="2.5" fill="#2563eb"/>
  <circle cx="567.97" cy="299.10" r="2.5" fill="#2563eb"/>
  <circle cx="569.07" cy="299.10" r="2.5" fill="#2563eb"/>
  <circle cx="570.17" cy="248.07" r="2.5" fill="#2563eb"/>
  <circle cx="571.27" cy="299.06" r="2.5" fill="#2563eb"/>
  <circle cx="572.37" cy="299.06" r="2.5" fill="#2563eb"/>
  <circle cx="573.47" cy="299.06" r="2.5" fill="#2563eb"/>
  <circle cx="574.58" cy="299.06" r="2.5" fill="#2563eb"/>
  <circle cx="575.68" cy="299.06" r="2.5" fill="#2563eb"/>
  <circle cx="576.78" cy="298.97" r="2.5" fill="#2563eb"/>
  <circle cx="577.88" cy="298.97" r="2.5" fill="#2563eb"/>
  <circle cx="578.98" cy="298.93" r="2.5" fill="#2563eb"/>
  <circle cx="580.08" cy="298.97" r="2.5" fill="#2563eb"/>
  <circle cx="581.19" cy="298.93" r="2.5" fill="#2563eb"/>
  <circle cx="582.29" cy="298.89" r="2.5" fill="#2563eb"/>
  <circle cx="583.39" cy="298.89" r="2.5" fill="#2563eb"/>
  <circle cx="584.49" cy="298.89" r="2.5" fill="#2563eb"/>
  <circle cx="585.59" cy="298.89" r="2.5" fill="#2563eb"/>
  <circle cx="586.69" cy="247.78" r="2.5" fill="#2563eb"/>
  <circle cx="587.80" cy="298.89" r="2.5" fill="#2563eb"/>
  <circle cx="588.90" cy="298.89" r="2.5" fill="#2563eb"/>
  <circle cx="590.00" cy="298.85" r="2.5" fill="#2563eb"/>
  <circle cx="591.10" cy="298.85" r="2.5" fill="#2563eb"/>
  <circle cx="592.20" cy="298.81" r="2.5" fill="#2563eb"/>
  <circle cx="593.31" cy="298.81" r="2.5" fill="#2563eb"/>
  <circle cx="594.41" cy="298.81" r="2.5" fill="#2563eb"/>
  <circle cx="595.51" cy="298.81" r="2.5" fill="#2563eb"/>
  <circle cx="596.61" cy="298.81" r="2.5" fill="#2563eb"/>
  <circle cx="597.71" cy="298.81" r="2.5" fill="#2563eb"/>
  <circle cx="598.81" cy="298.81" r="2.5" fill="#2563eb"/>
  <circle cx="599.92" cy="298.81" r="2.5" fill="#2563eb"/>
  <circle cx="601.02" cy="298.81" r="2.5" fill="#2563eb"/>
  <circle cx="602.12" cy="298.72" r="2.5" fill="#2563eb"/>
  <circle cx="603.22" cy="247.45" r="2.5" fill="#2563eb"/>
  <circle cx="604.32" cy="247.45" r="2.5" fill="#2563eb"/>
  <circle cx="605.42" cy="298.72" r="2.5" fill="#2563eb"/>
  <circle cx="606.53" cy="298.72" r="2.5" fill="#2563eb"/>
  <circle cx="607.63" cy="298.72" r="2.5" fill="#2563eb"/>
  <circle cx="608.73" cy="298.72" r="2.5" fill="#2563eb"/>
  <circle cx="609.83" cy="298.72" r="2.5" fill="#2563eb"/>
  <circle cx="610.93" cy="298.72" r="2.5" fill="#2563eb"/>
  <circle cx="612.03" cy="247.36" r="2.5" fill="#2563eb"/>
  <circle cx="613.14" cy="298.68" r="2.5" fill="#2563eb"/>
  <circle cx="614.24" cy="247.36" r="2.5" fill="#2563eb"/>
  <circle cx="615.34" cy="247.36" r="2.5" fill="#2563eb"/>
  <circle cx="616.44" cy="247.36" r="2.5" fill="#2563eb"/>
  <circle cx="617.54" cy="298.68" r="2.5" fill="#2563eb"/>
  <circle cx="618.64" cy="298.68" r="2.5" fill="#2563eb"/>
  <circle cx="619.75" cy="298.68" r="2.5" fill="#2563eb"/>
  <circle cx="620.85" cy="298.68" r="2.5" fill="#2563eb"/>
  <circle cx="621.95" cy="298.68" r="2.5" fill="#2563eb"/>
  <circle cx="623.05" cy="341.67" r="2.5" fill="#2563eb"/>
  <circle cx="624.15" cy="307.01" r="2.5" fill="#2563eb"/>
  <circle cx="625.25" cy="298.68" r="2.5" fill="#2563eb"/>
  <circle cx="626.36" cy="298.68" r="2.5" fill="#2563eb"/>
  <circle cx="627.46" cy="298.68" r="2.5" fill="#2563eb"/>
  <circle cx="628.56" cy="247.36" r="2.5" fill="#2563eb"/>
  <circle cx="629.66" cy="298.64" r="2.5" fill="#2563eb"/>
  <circle cx="630.76" cy="247.36" r="2.5" fill="#2563eb"/>
  <circle cx="631.86" cy="247.28" r="2.5" fill="#2563eb"/>
  <circle cx="632.97" cy="247.20" r="2.5" fill="#2563eb"/>
  <circle cx="634.07" cy="298.60" r="2.5" fill="#2563eb"/>
  <circle cx="635.17" cy="298.60" r="2.5" fill="#2563eb"/>
  <circle cx="636.27" cy="247.03" r="2.5" fill="#2563eb"/>
  <circle cx="637.37" cy="298.51" r="2.5" fill="#2563eb"/>
  <circle cx="638.47" cy="298.51" r="2.5" fill="#2563eb"/>
  <circle cx="639.58" cy="298.51" r="2.5" fill="#2563eb"/>
  <circle cx="640.68" cy="298.51" r="2.5" fill="#2563eb"/>
  <circle cx="641.78" cy="298.51" r="2.5" fill="#2563eb"/>
  <circle cx="642.88" cy="298.51" r="2.5" fill="#2563eb"/>
  <circle cx="643.98" cy="298.51" r="2.5" fill="#2563eb"/>
  <circle cx="645.08" cy="298.51" r="2.5" fill="#2563eb"/>
  <circle cx="646.19" cy="298.51" r="2.5" fill="#2563eb"/>
  <circle cx="647.29" cy="298.51" r="2.5" fill="#2563eb"/>
  <circle cx="648.39" cy="298.51" r="2.5" fill="#2563eb"/>
  <circle cx="649.49" cy="298.51" r="2.5" fill="#2563eb"/>
  <circle cx="650.59" cy="298.51" r="2.5" fill="#2563eb"/>
  <circle cx="651.69" cy="298.51" r="2.5" fill="#2563eb"/>
  <circle cx="652.80" cy="298.51" r="2.5" fill="#2563eb"/>
  <circle cx="653.90" cy="298.51" r="2.5" fill="#2563eb"/>
  <circle cx="655.00" cy="298.51" r="2.5" fill="#2563eb"/>
  <circle cx="656.10" cy="298.51" r="2.5" fill="#2563eb"/>
  <circle cx="657.20" cy="298.51" r="2.5" fill="#2563eb"/>
  <circle cx="658.31" cy="298.51" r="2.5" fill="#2563eb"/>
  <circle cx="659.41" cy="298.51" r="2.5" fill="#2563eb"/>
  <circle cx="660.51" cy="298.51" r="2.5" fill="#2563eb"/>
  <circle cx="661.61" cy="298.51" r="2.5" fill="#2563eb"/>
  <circle cx="662.71" cy="298.51" r="2.5" fill="#2563eb"/>
  <circle cx="663.81" cy="298.51" r="2.5" fill="#2563eb"/>
  <circle cx="664.92" cy="298.51" r="2.5" fill="#2563eb"/>
  <circle cx="666.02" cy="298.47" r="2.5" fill="#2563eb"/>
  <circle cx="667.12" cy="298.51" r="2.5" fill="#2563eb"/>
  <circle cx="668.22" cy="298.51" r="2.5" fill="#2563eb"/>
  <circle cx="669.32" cy="298.47" r="2.5" fill="#2563eb"/>
  <circle cx="670.42" cy="298.51" r="2.5" fill="#2563eb"/>
  <circle cx="671.53" cy="298.47" r="2.5" fill="#2563eb"/>
  <circle cx="672.63" cy="298.51" r="2.5" fill="#2563eb"/>
  <circle cx="673.73" cy="298.43" r="2.5" fill="#2563eb"/>
  <circle cx="674.83" cy="298.56" r="2.5" fill="#2563eb"/>
  <circle cx="675.93" cy="298.43" r="2.5" fill="#2563eb"/>
  <circle cx="677.03" cy="298.43" r="2.5" fill="#2563eb"/>
  <circle cx="678.14" cy="298.43" r="2.5" fill="#2563eb"/>
  <circle cx="679.24" cy="298.43" r="2.5" fill="#2563eb"/>
  <circle cx="680.34" cy="298.43" r="2.5" fill="#2563eb"/>
  <circle cx="681.44" cy="298.43" r="2.5" fill="#2563eb"/>
  <circle cx="682.54" cy="298.43" r="2.5" fill="#2563eb"/>
  <circle cx="683.64" cy="298.43" r="2.5" fill="#2563eb"/>
  <circle cx="684.75" cy="298.43" r="2.5" fill="#2563eb"/>
  <circle cx="685.85" cy="298.43" r="2.5" fill="#2563eb"/>
  <circle cx="686.95" cy="298.43" r="2.5" fill="#2563eb"/>
  <circle cx="688.05" cy="298.43" r="2.5" fill="#2563eb"/>
  <circle cx="689.15" cy="298.43" r="2.5" fill="#2563eb"/>
  <circle cx="690.25" cy="298.43" r="2.5" fill="#2563eb"/>
  <circle cx="691.36" cy="298.43" r="2.5" fill="#2563eb"/>
  <circle cx="692.46" cy="298.43" r="2.5" fill="#2563eb"/>
  <circle cx="693.56" cy="298.43" r="2.5" fill="#2563eb"/>
  <circle cx="694.66" cy="298.43" r="2.5" fill="#2563eb"/>
  <circle cx="695.76" cy="298.43" r="2.5" fill="#2563eb"/>
  <circle cx="696.86" cy="298.43" r="2.5" fill="#2563eb"/>
  <circle cx="697.97" cy="298.43" r="2.5" fill="#2563eb"/>
  <circle cx="699.07" cy="298.43" r="2.5" fill="#2563eb"/>
  <circle cx="700.17" cy="298.43" r="2.5" fill="#2563eb"/>
  <circle cx="701.27" cy="298.43" r="2.5" fill="#2563eb"/>
  <circle cx="702.37" cy="298.43" r="2.5" fill="#2563eb"/>
  <circle cx="703.47" cy="298.43" r="2.5" fill="#2563eb"/>
  <circle cx="704.58" cy="298.43" r="2.5" fill="#2563eb"/>
  <circle cx="705.68" cy="298.43" r="2.5" fill="#2563eb"/>
  <circle cx="706.78" cy="298.43" r="2.5" fill="#2563eb"/>
  <circle cx="707.88" cy="298.43" r="2.5" fill="#2563eb"/>
  <circle cx="708.98" cy="298.43" r="2.5" fill="#2563eb"/>
  <circle cx="710.08" cy="298.43" r="2.5" fill="#2563eb"/>
  <circle cx="711.19" cy="298.43" r="2.5" fill="#2563eb"/>
  <circle cx="712.29" cy="298.43" r="2.5" fill="#2563eb"/>
  <circle cx="713.39" cy="298.39" r="2.5" fill="#2563eb"/>
  <circle cx="714.49" cy="298.39" r="2.5" fill="#2563eb"/>
  <circle cx="715.59" cy="298.43" r="2.5" fill="#2563eb"/>
  <circle cx="716.69" cy="298.43" r="2.5" fill="#2563eb"/>
  <circle cx="717.80" cy="298.39" r="2.5" fill="#2563eb"/>
  <circle cx="718.90" cy="298.39" r="2.5" fill="#2563eb"/>
  <circle cx="720.00" cy="298.39" r="2.5" fill="#2563eb"/>
  <circle cx="721.10" cy="298.43" r="2.5" fill="#2563eb"/>
  <circle cx="722.20" cy="298.43" r="2.5" fill="#2563eb"/>
  <circle cx="723.31" cy="298.43" r="2.5" fill="#2563eb"/>
  <circle cx="724.41" cy="246.82" r="2.5" fill="#2563eb"/>
  <circle cx="725.51" cy="298.43" r="2.5" fill="#2563eb"/>
  <circle cx="726.61" cy="246.78" r="2.5" fill="#2563eb"/>
  <circle cx="727.71" cy="246.78" r="2.5" fill="#2563eb"/>
  <circle cx="728.81" cy="246.78" r="2.5" fill="#2563eb"/>
  <circle cx="729.92" cy="246.70" r="2.5" fill="#2563eb"/>
  <circle cx="731.02" cy="246.78" r="2.5" fill="#2563eb"/>
  <circle cx="732.12" cy="298.39" r="2.5" fill="#2563eb"/>
  <circle cx="733.22" cy="298.39" r="2.5" fill="#2563eb"/>
  <circle cx="734.32" cy="298.39" r="2.5" fill="#2563eb"/>
  <circle cx="735.42" cy="298.39" r="2.5" fill="#2563eb"/>
  <circle cx="736.53" cy="298.39" r="2.5" fill="#2563eb"/>
  <circle cx="737.63" cy="246.78" r="2.5" fill="#2563eb"/>
  <circle cx="738.73" cy="298.39" r="2.5" fill="#2563eb"/>
  <circle cx="739.83" cy="298.39" r="2.5" fill="#2563eb"/>
  <circle cx="740.93" cy="298.39" r="2.5" fill="#2563eb"/>
  <circle cx="742.03" cy="298.39" r="2.5" fill="#2563eb"/>
  <circle cx="743.14" cy="298.39" r="2.5" fill="#2563eb"/>
  <circle cx="744.24" cy="246.78" r="2.5" fill="#2563eb"/>
  <circle cx="745.34" cy="246.78" r="2.5" fill="#2563eb"/>
  <circle cx="746.44" cy="298.39" r="2.5" fill="#2563eb"/>
  <circle cx="747.54" cy="298.39" r="2.5" fill="#2563eb"/>
  <circle cx="748.64" cy="298.39" r="2.5" fill="#2563eb"/>
  <circle cx="749.75" cy="298.39" r="2.5" fill="#2563eb"/>
  <circle cx="750.85" cy="298.39" r="2.5" fill="#2563eb"/>
  <circle cx="751.95" cy="298.39" r="2.5" fill="#2563eb"/>
  <circle cx="753.05" cy="298.39" r="2.5" fill="#2563eb"/>
  <circle cx="754.15" cy="298.39" r="2.5" fill="#2563eb"/>
  <circle cx="755.25" cy="298.39" r="2.5" fill="#2563eb"/>
  <circle cx="756.36" cy="298.39" r="2.5" fill="#2563eb"/>
  <circle cx="757.46" cy="298.39" r="2.5" fill="#2563eb"/>
  <circle cx="758.56" cy="298.39" r="2.5" fill="#2563eb"/>
  <circle cx="759.66" cy="298.39" r="2.5" fill="#2563eb"/>
  <circle cx="760.76" cy="298.39" r="2.5" fill="#2563eb"/>
  <circle cx="761.86" cy="298.35" r="2.5" fill="#2563eb"/>
  <circle cx="762.97" cy="298.39" r="2.5" fill="#2563eb"/>
  <circle cx="764.07" cy="298.39" r="2.5" fill="#2563eb"/>
  <circle cx="765.17" cy="298.35" r="2.5" fill="#2563eb"/>
  <circle cx="766.27" cy="298.35" r="2.5" fill="#2563eb"/>
  <circle cx="767.37" cy="298.35" r="2.5" fill="#2563eb"/>
  <circle cx="768.47" cy="298.35" r="2.5" fill="#2563eb"/>
  <circle cx="769.58" cy="298.35" r="2.5" fill="#2563eb"/>
  <circle cx="770.68" cy="298.35" r="2.5" fill="#2563eb"/>
  <circle cx="771.78" cy="298.35" r="2.5" fill="#2563eb"/>
  <circle cx="772.88" cy="298.35" r="2.5" fill="#2563eb"/>
  <circle cx="773.98" cy="298.35" r="2.5" fill="#2563eb"/>
  <circle cx="775.08" cy="298.35" r="2.5" fill="#2563eb"/>
  <circle cx="776.19" cy="298.35" r="2.5" fill="#2563eb"/>
  <circle cx="777.29" cy="298.35" r="2.5" fill="#2563eb"/>
  <circle cx="778.39" cy="298.35" r="2.5" fill="#2563eb"/>
  <circle cx="779.49" cy="298.35" r="2.5" fill="#2563eb"/>
  <circle cx="780.59" cy="298.35" r="2.5" fill="#2563eb"/>
  <circle cx="781.69" cy="298.35" r="2.5" fill="#2563eb"/>
  <circle cx="782.80" cy="298.35" r="2.5" fill="#2563eb"/>
  <circle cx="783.90" cy="298.35" r="2.5" fill="#2563eb"/>
  <circle cx="785.00" cy="298.35" r="2.5" fill="#2563eb"/>
  <circle cx="786.10" cy="298.35" r="2.5" fill="#2563eb"/>
  <circle cx="787.20" cy="298.35" r="2.5" fill="#2563eb"/>
  <circle cx="788.31" cy="298.35" r="2.5" fill="#2563eb"/>
  <circle cx="789.41" cy="298.35" r="2.5" fill="#2563eb"/>
  <circle cx="790.51" cy="298.35" r="2.5" fill="#2563eb"/>
  <circle cx="791.61" cy="298.35" r="2.5" fill="#2563eb"/>
  <circle cx="792.71" cy="298.35" r="2.5" fill="#2563eb"/>
  <circle cx="793.81" cy="298.35" r="2.5" fill="#2563eb"/>
  <circle cx="794.92" cy="298.35" r="2.5" fill="#2563eb"/>
  <circle cx="796.02" cy="298.35" r="2.5" fill="#2563eb"/>
  <circle cx="797.12" cy="298.35" r="2.5" fill="#2563eb"/>
  <circle cx="798.22" cy="298.35" r="2.5" fill="#2563eb"/>
  <circle cx="799.32" cy="298.35" r="2.5" fill="#2563eb"/>
  <circle cx="800.42" cy="298.35" r="2.5" fill="#2563eb"/>
  <circle cx="801.53" cy="298.35" r="2.5" fill="#2563eb"/>
  <circle cx="802.63" cy="298.35" r="2.5" fill="#2563eb"/>
  <circle cx="803.73" cy="298.35" r="2.5" fill="#2563eb"/>
  <circle cx="804.83" cy="298.35" r="2.5" fill="#2563eb"/>
  <circle cx="805.93" cy="298.35" r="2.5" fill="#2563eb"/>
  <circle cx="807.03" cy="298.35" r="2.5" fill="#2563eb"/>
  <circle cx="808.14" cy="298.35" r="2.5" fill="#2563eb"/>
  <circle cx="809.24" cy="298.35" r="2.5" fill="#2563eb"/>
  <circle cx="810.34" cy="298.35" r="2.5" fill="#2563eb"/>
  <circle cx="811.44" cy="298.35" r="2.5" fill="#2563eb"/>
  <circle cx="812.54" cy="298.35" r="2.5" fill="#2563eb"/>
  <circle cx="813.64" cy="298.35" r="2.5" fill="#2563eb"/>
  <circle cx="814.75" cy="298.35" r="2.5" fill="#2563eb"/>
  <circle cx="815.85" cy="298.35" r="2.5" fill="#2563eb"/>
  <circle cx="816.95" cy="298.35" r="2.5" fill="#2563eb"/>
  <circle cx="818.05" cy="298.35" r="2.5" fill="#2563eb"/>
  <circle cx="819.15" cy="298.35" r="2.5" fill="#2563eb"/>
  <circle cx="820.25" cy="298.35" r="2.5" fill="#2563eb"/>
  <circle cx="821.36" cy="298.35" r="2.5" fill="#2563eb"/>
  <circle cx="822.46" cy="298.39" r="2.5" fill="#2563eb"/>
  <circle cx="823.56" cy="298.39" r="2.5" fill="#2563eb"/>
  <circle cx="824.66" cy="298.39" r="2.5" fill="#2563eb"/>
  <circle cx="825.76" cy="246.78" r="2.5" fill="#2563eb"/>
  <circle cx="826.86" cy="298.39" r="2.5" fill="#2563eb"/>
  <circle cx="827.97" cy="298.39" r="2.5" fill="#2563eb"/>
  <circle cx="829.07" cy="298.39" r="2.5" fill="#2563eb"/>
  <circle cx="830.17" cy="298.39" r="2.5" fill="#2563eb"/>
  <circle cx="831.27" cy="298.39" r="2.5" fill="#2563eb"/>
  <circle cx="832.37" cy="298.39" r="2.5" fill="#2563eb"/>
  <circle cx="833.47" cy="298.39" r="2.5" fill="#2563eb"/>
  <circle cx="834.58" cy="246.78" r="2.5" fill="#2563eb"/>
  <circle cx="835.68" cy="298.39" r="2.5" fill="#2563eb"/>
  <circle cx="836.78" cy="298.39" r="2.5" fill="#2563eb"/>
  <circle cx="837.88" cy="298.39" r="2.5" fill="#2563eb"/>
  <circle cx="838.98" cy="298.39" r="2.5" fill="#2563eb"/>
  <circle cx="840.08" cy="298.39" r="2.5" fill="#2563eb"/>
  <circle cx="841.19" cy="298.39" r="2.5" fill="#2563eb"/>
  <circle cx="842.29" cy="298.39" r="2.5" fill="#2563eb"/>
  <circle cx="843.39" cy="246.78" r="2.5" fill="#2563eb"/>
  <circle cx="844.49" cy="298.39" r="2.5" fill="#2563eb"/>
  <circle cx="845.59" cy="298.39" r="2.5" fill="#2563eb"/>
  <circle cx="846.69" cy="298.39" r="2.5" fill="#2563eb"/>
  <circle cx="847.80" cy="298.39" r="2.5" fill="#2563eb"/>
  <circle cx="848.90" cy="298.39" r="2.5" fill="#2563eb"/>
  <circle cx="850.00" cy="298.39" r="2.5" fill="#2563eb"/>
  <circle cx="851.10" cy="298.39" r="2.5" fill="#2563eb"/>
  <circle cx="852.20" cy="298.39" r="2.5" fill="#2563eb"/>
  <circle cx="853.31" cy="298.39" r="2.5" fill="#2563eb"/>
  <circle cx="854.41" cy="298.39" r="2.5" fill="#2563eb"/>
  <circle cx="855.51" cy="298.39" r="2.5" fill="#2563eb"/>
  <circle cx="856.61" cy="298.35" r="2.5" fill="#2563eb"/>
  <circle cx="857.71" cy="298.39" r="2.5" fill="#2563eb"/>
  <circle cx="858.81" cy="298.39" r="2.5" fill="#2563eb"/>
  <circle cx="859.92" cy="298.39" r="2.5" fill="#2563eb"/>
  <circle cx="861.02" cy="298.35" r="2.5" fill="#2563eb"/>
  <circle cx="862.12" cy="298.35" r="2.5" fill="#2563eb"/>
  <circle cx="863.22" cy="298.35" r="2.5" fill="#2563eb"/>
  <circle cx="864.32" cy="298.35" r="2.5" fill="#2563eb"/>
  <circle cx="865.42" cy="298.35" r="2.5" fill="#2563eb"/>
  <circle cx="866.53" cy="298.35" r="2.5" fill="#2563eb"/>
  <circle cx="867.63" cy="298.35" r="2.5" fill="#2563eb"/>
  <circle cx="868.73" cy="298.35" r="2.5" fill="#2563eb"/>
  <circle cx="869.83" cy="298.35" r="2.5" fill="#2563eb"/>
  <circle cx="870.93" cy="298.35" r="2.5" fill="#2563eb"/>
  <circle cx="872.03" cy="298.35" r="2.5" fill="#2563eb"/>
  <circle cx="873.14" cy="298.35" r="2.5" fill="#2563eb"/>
  <circle cx="874.24" cy="298.35" r="2.5" fill="#2563eb"/>
  <circle cx="875.34" cy="298.35" r="2.5" fill="#2563eb"/>
  <circle cx="876.44" cy="298.35" r="2.5" fill="#2563eb"/>
  <circle cx="877.54" cy="298.35" r="2.5" fill="#2563eb"/>
  <circle cx="878.64" cy="298.39" r="2.5" fill="#2563eb"/>
  <circle cx="879.75" cy="298.39" r="2.5" fill="#2563eb"/>
  <circle cx="880.85" cy="298.39" r="2.5" fill="#2563eb"/>
  <circle cx="881.95" cy="298.39" r="2.5" fill="#2563eb"/>
  <circle cx="883.05" cy="298.39" r="2.5" fill="#2563eb"/>
  <circle cx="884.15" cy="298.39" r="2.5" fill="#2563eb"/>
  <circle cx="885.25" cy="298.35" r="2.5" fill="#2563eb"/>
  <circle cx="886.36" cy="298.39" r="2.5" fill="#2563eb"/>
  <circle cx="887.46" cy="298.39" r="2.5" fill="#2563eb"/>
  <circle cx="888.56" cy="298.39" r="2.5" fill="#2563eb"/>
  <circle cx="889.66" cy="298.39" r="2.5" fill="#2563eb"/>
  <circle cx="890.76" cy="298.39" r="2.5" fill="#2563eb"/>
  <circle cx="891.86" cy="298.39" r="2.5" fill="#2563eb"/>
  <circle cx="892.97" cy="298.39" r="2.5" fill="#2563eb"/>
  <circle cx="894.07" cy="298.39" r="2.5" fill="#2563eb"/>
  <circle cx="895.17" cy="298.39" r="2.5" fill="#2563eb"/>
  <circle cx="896.27" cy="298.35" r="2.5" fill="#2563eb"/>
  <circle cx="897.37" cy="298.39" r="2.5" fill="#2563eb"/>
  <circle cx="898.47" cy="298.39" r="2.5" fill="#2563eb"/>
  <circle cx="899.58" cy="298.39" r="2.5" fill="#2563eb"/>
  <circle cx="900.68" cy="298.39" r="2.5" fill="#2563eb"/>
  <circle cx="901.78" cy="298.39" r="2.5" fill="#2563eb"/>
  <circle cx="902.88" cy="298.39" r="2.5" fill="#2563eb"/>
  <circle cx="903.98" cy="298.39" r="2.5" fill="#2563eb"/>
  <circle cx="905.08" cy="298.39" r="2.5" fill="#2563eb"/>
  <circle cx="906.19" cy="298.39" r="2.5" fill="#2563eb"/>
  <circle cx="907.29" cy="298.39" r="2.5" fill="#2563eb"/>
  <circle cx="908.39" cy="298.39" r="2.5" fill="#2563eb"/>
  <circle cx="909.49" cy="298.39" r="2.5" fill="#2563eb"/>
  <circle cx="910.59" cy="298.39" r="2.5" fill="#2563eb"/>
  <circle cx="911.69" cy="298.39" r="2.5" fill="#2563eb"/>
  <circle cx="912.80" cy="298.39" r="2.5" fill="#2563eb"/>
  <circle cx="913.90" cy="298.39" r="2.5" fill="#2563eb"/>
  <circle cx="915.00" cy="298.35" r="2.5" fill="#2563eb"/>
  <circle cx="916.10" cy="298.35" r="2.5" fill="#2563eb"/>
  <circle cx="917.20" cy="298.39" r="2.5" fill="#2563eb"/>
  <circle cx="918.31" cy="298.39" r="2.5" fill="#2563eb"/>
  <circle cx="919.41" cy="298.39" r="2.5" fill="#2563eb"/>
  <circle cx="920.51" cy="298.39" r="2.5" fill="#2563eb"/>
  <circle cx="921.61" cy="298.39" r="2.5" fill="#2563eb"/>
  <circle cx="922.71" cy="298.39" r="2.5" fill="#2563eb"/>
  <circle cx="923.81" cy="298.39" r="2.5" fill="#2563eb"/>
  <circle cx="924.92" cy="298.39" r="2.5" fill="#2563eb"/>
  <circle cx="926.02" cy="298.39" r="2.5" fill="#2563eb"/>
  <circle cx="927.12" cy="298.39" r="2.5" fill="#2563eb"/>
  <circle cx="928.22" cy="298.35" r="2.5" fill="#2563eb"/>
  <circle cx="929.32" cy="298.35" r="2.5" fill="#2563eb"/>
  <circle cx="930.42" cy="298.39" r="2.5" fill="#2563eb"/>
  <circle cx="931.53" cy="298.39" r="2.5" fill="#2563eb"/>
  <circle cx="932.63" cy="298.39" r="2.5" fill="#2563eb"/>
  <circle cx="933.73" cy="298.39" r="2.5" fill="#2563eb"/>
  <circle cx="934.83" cy="298.39" r="2.5" fill="#2563eb"/>
  <circle cx="935.93" cy="298.39" r="2.5" fill="#2563eb"/>
  <circle cx="937.03" cy="298.39" r="2.5" fill="#2563eb"/>
  <circle cx="938.14" cy="298.39" r="2.5" fill="#2563eb"/>
  <circle cx="939.24" cy="298.39" r="2.5" fill="#2563eb"/>
  <circle cx="940.34" cy="298.39" r="2.5" fill="#2563eb"/>
  <circle cx="941.44" cy="298.39" r="2.5" fill="#2563eb"/>
  <circle cx="942.54" cy="298.39" r="2.5" fill="#2563eb"/>
  <circle cx="943.64" cy="298.39" r="2.5" fill="#2563eb"/>
  <circle cx="944.75" cy="298.39" r="2.5" fill="#2563eb"/>
  <circle cx="945.85" cy="298.35" r="2.5" fill="#2563eb"/>
  <circle cx="946.95" cy="298.39" r="2.5" fill="#2563eb"/>
  <circle cx="948.05" cy="298.39" r="2.5" fill="#2563eb"/>
  <circle cx="949.15" cy="298.39" r="2.5" fill="#2563eb"/>
  <circle cx="950.25" cy="298.39" r="2.5" fill="#2563eb"/>
  <circle cx="951.36" cy="298.39" r="2.5" fill="#2563eb"/>
  <circle cx="952.46" cy="298.39" r="2.5" fill="#2563eb"/>
  <circle cx="953.56" cy="298.39" r="2.5" fill="#2563eb"/>
  <circle cx="954.66" cy="298.39" r="2.5" fill="#2563eb"/>
  <circle cx="955.76" cy="298.35" r="2.5" fill="#2563eb"/>
  <circle cx="956.86" cy="298.35" r="2.5" fill="#2563eb"/>
  <circle cx="957.97" cy="298.39" r="2.5" fill="#2563eb"/>
  <circle cx="959.07" cy="298.35" r="2.5" fill="#2563eb"/>
  <circle cx="960.17" cy="298.39" r="2.5" fill="#2563eb"/>
  <circle cx="961.27" cy="298.39" r="2.5" fill="#2563eb"/>
  <circle cx="962.37" cy="298.39" r="2.5" fill="#2563eb"/>
  <circle cx="963.47" cy="298.39" r="2.5" fill="#2563eb"/>
  <circle cx="964.58" cy="298.39" r="2.5" fill="#2563eb"/>
  <circle cx="965.68" cy="298.35" r="2.5" fill="#2563eb"/>
  <circle cx="966.78" cy="298.39" r="2.5" fill="#2563eb"/>
  <circle cx="967.88" cy="298.39" r="2.5" fill="#2563eb"/>
  <circle cx="968.98" cy="298.35" r="2.5" fill="#2563eb"/>
  <circle cx="970.08" cy="298.39" r="2.5" fill="#2563eb"/>
  <circle cx="971.19" cy="298.35" r="2.5" fill="#2563eb"/>
  <circle cx="972.29" cy="298.39" r="2.5" fill="#2563eb"/>
  <circle cx="973.39" cy="298.39" r="2.5" fill="#2563eb"/>
  <circle cx="974.49" cy="298.35" r="2.5" fill="#2563eb"/>
  <circle cx="975.59" cy="298.39" r="2.5" fill="#2563eb"/>
  <circle cx="976.69" cy="298.35" r="2.5" fill="#2563eb"/>
  <circle cx="977.80" cy="298.39" r="2.5" fill="#2563eb"/>
  <circle cx="978.90" cy="298.39" r="2.5" fill="#2563eb"/>
  <circle cx="980.00" cy="298.35" r="2.5" fill="#2563eb"/>
</svg>
