<?xml version="1.0" encoding="UTF-8"?>
<svg xmlns="http://www.w3.org/2000/svg" width="1000" height="420" viewBox="0 0 1000 420">
  <rect width="100%" height="100%" fill="#ffffff"/>
  <text x="70" y="28" font-size="20" font-weight="600">수집 시점 기준 - 시간별 스냅샷</text>
  <text x="70" y="402" font-size="12" fill="#555">스냅샷 수</text>
  <line x1="70" y1="350.00" x2="980" y2="350.00" stroke="#e5e7eb" stroke-width="1"/>
  <text x="62" y="354.00" font-size="11" fill="#6b7280" text-anchor="end">0</text>
  <line x1="70" y1="290.00" x2="980" y2="290.00" stroke="#e5e7eb" stroke-width="1"/>
  <text x="62" y="294.00" font-size="11" fill="#6b7280" text-anchor="end">1,440</text>
  <line x1="70" y1="230.00" x2="980" y2="230.00" stroke="#e5e7eb" stroke-width="1"/>
  <text x="62" y="234.00" font-size="11" fill="#6b7280" text-anchor="end">2,880</text>
  <line x1="70" y1="170.00" x2="980" y2="170.00" stroke="#e5e7eb" stroke-width="1"/>
  <text x="62" y="174.00" font-size="11" fill="#6b7280" text-anchor="end">4,321</text>
  <line x1="70" y1="110.00" x2="980" y2="110.00" stroke="#e5e7eb" stroke-width="1"/>
  <text x="62" y="114.00" font-size="11" fill="#6b7280" text-anchor="end">5,761</text>
  <line x1="70" y1="50.00" x2="980" y2="50.00" stroke="#e5e7eb" stroke-width="1"/>
  <text x="62" y="54.00" font-size="11" fill="#6b7280" text-anchor="end">7,202</text>
  <line x1="70" y1="350" x2="980" y2="350" stroke="#111827" stroke-width="1.2"/>
  <line x1="70" y1="50" x2="70" y2="350" stroke="#111827" stroke-width="1.2"/>
  <line x1="70.00" y1="350" x2="70.00" y2="356" stroke="#9ca3af" stroke-width="1"/>
  <text x="70.00" y="372" font-size="10" fill="#6b7280" text-anchor="middle">2026-02-28 18</text>
  <line x1="145.71" y1="350" x2="145.71" y2="356" stroke="#9ca3af" stroke-width="1"/>
  <text x="145.71" y="372" font-size="10" fill="#6b7280" text-anchor="middle">2026-03-09 07</text>
  <line x1="221.42" y1="350" x2="221.42" y2="356" stroke="#9ca3af" stroke-width="1"/>
  <text x="221.42" y="372" font-size="10" fill="#6b7280" text-anchor="middle">2026-03-11 17</text>
  <line x1="297.14" y1="350" x2="297.14" y2="356" stroke="#9ca3af" stroke-width="1"/>
  <text x="297.14" y="372" font-size="10" fill="#6b7280" text-anchor="middle">2026-03-14 01</text>
  <line x1="372.85" y1="350" x2="372.85" y2="356" stroke="#9ca3af" stroke-width="1"/>
  <text x="372.85" y="372" font-size="10" fill="#6b7280" text-anchor="middle">2026-03-17 06</text>
  <line x1="448.56" y1="350" x2="448.56" y2="356" stroke="#9ca3af" stroke-width="1"/>
  <text x="448.56" y="372" font-size="10" fill="#6b7280" text-anchor="middle">2026-03-20 16</text>
  <line x1="524.27" y1="350" x2="524.27" y2="356" stroke="#9ca3af" stroke-width="1"/>
  <text x="524.27" y="372" font-size="10" fill="#6b7280" text-anchor="middle">2026-03-23 14</text>
  <line x1="599.98" y1="350" x2="599.98" y2="356" stroke="#9ca3af" stroke-width="1"/>
  <text x="599.98" y="372" font-size="10" fill="#6b7280" text-anchor="middle">2026-03-27 04</text>
  <line x1="675.70" y1="350" x2="675.70" y2="356" stroke="#9ca3af" stroke-width="1"/>
  <text x="675.70" y="372" font-size="10" fill="#6b7280" text-anchor="middle">2026-03-30 17</text>
  <line x1="751.41" y1="350" x2="751.41" y2="356" stroke="#9ca3af" stroke-width="1"/>
  <text x="751.41" y="372" font-size="10" fill="#6b7280" text-anchor="middle">2026-04-03 07</text>
  <line x1="827.12" y1="350" x2="827.12" y2="356" stroke="#9ca3af" stroke-width="1"/>
  <text x="827.12" y="372" font-size="10" fill="#6b7280" text-anchor="middle">2026-04-06 21</text>
  <line x1="902.83" y1="350" x2="902.83" y2="356" stroke="#9ca3af" stroke-width="1"/>
  <text x="902.83" y="372" font-size="10" fill="#6b7280" text-anchor="middle">2026-04-10 15</text>
  <line x1="978.54" y1="350" x2="978.54" y2="356" stroke="#9ca3af" stroke-width="1"/>
  <text x="978.54" y="372" font-size="10" fill="#6b7280" text-anchor="middle">2026-04-14 05</text>
  <line x1="980.00" y1="350" x2="980.00" y2="356" stroke="#9ca3af" stroke-width="1"/>
  <text x="980.00" y="372" font-size="10" fill="#6b7280" text-anchor="middle">2026-04-14 07</text>
  <polyline fill="none" stroke="#2563eb" stroke-width="2.5" points="70.00,50.00 71.46,50.12 72.91,50.17 74.37,50.46 75.82,50.00 77.28,266.90 78.74,50.12 80.19,50.08 81.65,177.46 83.10,211.58 84.56,175.34 86.02,304.14 87.47,200.46 88.93,250.94 90.38,300.01 91.84,300.06 93.30,300.01 94.75,300.01 96.21,348.00 97.66,300.01 99.12,249.99 100.58,200.00 102.03,249.99 103.49,249.99 104.94,250.03 106.40,250.03 107.86,250.03 109.31,250.40 110.77,250.90 112.22,250.90 113.68,251.32 115.14,249.94 116.59,300.01 118.05,299.93 119.50,251.03 120.96,300.68 122.42,250.03 123.87,200.00 125.33,249.99 126.78,250.03 128.24,250.03 129.70,250.03 131.15,300.01 132.61,200.04 134.06,250.03 135.52,250.03 136.98,250.03 138.43,249.90 139.89,250.03 141.34,250.03 142.80,250.94 144.26,250.44 145.71,250.03 147.17,250.03 148.62,300.47 150.08,300.01 151.54,300.43 152.99,250.03 154.45,249.99 155.90,300.43 157.36,249.90 158.82,249.99 160.27,249.99 161.73,200.04 163.18,300.01 164.64,300.01 166.10,300.01 167.55,249.90 169.01,300.01 170.46,250.03 171.92,249.99 173.38,199.96 174.83,300.01 176.29,200.00 177.74,250.36 179.20,250.03 180.66,300.01 182.11,300.01 183.57,250.44 185.02,300.01 186.48,250.03 187.94,250.03 189.39,249.99 190.85,250.49 192.30,250.03 193.76,200.04 195.22,300.01 196.67,250.03 198.13,300.01 199.58,250.11 201.04,300.01 202.50,250.03 203.95,250.03 205.41,199.92 206.86,250.03 208.32,250.03 209.78,250.03 211.23,254.36 212.69,300.01 214.14,299.97 215.60,250.36 217.06,299.97 218.51,250.03 219.97,250.03 221.42,250.03 222.88,250.03 224.34,249.99 225.79,200.00 227.25,299.93 228.70,300.01 230.16,299.97 231.62,249.94 233.07,249.99 234.53,249.82 235.98,249.94 237.44,250.28 238.90,207.00 240.35,250.03 241.81,250.32 243.26,250.40 244.72,300.93 246.18,300.01 247.63,300.10 249.09,249.94 250.54,249.99 252.00,250.07 253.46,249.99 254.91,250.03 256.37,249.94 257.82,200.00 259.28,300.39 260.74,300.01 262.19,300.01 263.65,250.44 265.10,300.39 266.56,249.86 268.02,250.11 269.47,201.46 270.93,300.01 272.38,200.83 273.84,250.03 275.30,249.99 276.75,300.26 278.21,300.01 279.66,300.01 281.12,250.03 282.58,250.03 284.03,250.03 285.49,250.03 286.94,249.99 288.40,250.03 289.86,200.00 291.31,300.26 292.77,249.99 294.22,300.01 295.68,249.94 297.14,250.03 298.59,250.03 300.05,250.03 301.50,200.04 302.96,300.01 304.42,249.90 305.87,300.01 307.33,300.01 308.78,300.06 310.24,300.01 311.70,300.01 313.15,243.95 314.61,249.94 316.06,299.97 317.52,300.01 318.98,300.01 320.43,250.03 321.89,300.01 323.34,300.01 324.80,299.97 326.26,249.99 327.71,300.01 329.17,299.93 330.62,300.01 332.08,299.93 333.54,300.01 334.99,300.01 336.45,299.89 337.90,299.97 339.36,250.03 340.82,299.93 342.27,299.89 343.73,299.97 345.18,249.94 346.64,300.01 348.10,300.01 349.55,299.97 351.01,249.99 352.46,299.97 353.92,299.97 355.38,300.06 356.83,300.06 358.29,299.93 359.74,300.01 361.20,300.01 362.66,299.93 364.11,300.01 365.57,300.01 367.02,299.97 368.48,300.01 369.94,300.01 371.39,300.01 372.85,300.01 374.30,249.86 375.76,300.01 377.22,300.10 378.67,299.93 380.13,300.01 381.58,299.93 383.04,300.01 384.50,300.01 385.95,300.01 387.41,300.01 388.86,300.01 390.32,299.97 391.78,300.01 393.23,300.01 394.69,300.01 396.14,300.01 397.60,250.03 399.06,300.01 400.51,300.01 401.97,299.97 403.42,300.01 404.88,300.01 406.34,299.97 407.79,299.97 409.25,300.01 410.70,299.97 412.16,300.01 413.62,299.93 415.07,300.01 416.53,250.03 417.98,300.01 419.44,300.01 420.90,300.01 422.35,300.01 423.81,300.01 425.26,299.89 426.72,300.01 428.18,300.01 429.63,250.07 431.09,300.01 432.54,299.93 434.00,300.01 435.46,299.97 436.91,299.97 438.37,299.97 439.82,250.03 441.28,300.01 442.74,300.01 444.19,300.01 445.65,300.01 447.10,299.97 448.56,300.01 450.02,299.97 451.47,300.01 452.93,299.97 454.38,249.90 455.84,300.01 457.30,300.01 458.75,299.89 460.21,299.97 461.66,299.97 463.12,249.99 464.58,299.97 466.03,299.89 467.49,300.01 468.94,299.97 470.40,299.97 471.86,300.01 473.31,299.97 474.77,249.99 476.22,299.97 477.68,299.97 479.14,300.06 480.59,300.06 482.05,249.94 483.50,300.01 484.96,299.93 486.42,300.01 487.87,300.01 489.33,249.99 490.78,300.01 492.24,300.01 493.70,300.01 495.15,299.93 496.61,299.93 498.06,300.01 499.52,300.01 500.98,249.94 502.43,299.97 503.89,299.97 505.34,300.01 506.80,300.01 508.26,300.01 509.71,249.99 511.17,300.01 512.62,300.01 514.08,300.01 515.54,250.03 516.99,300.01 518.45,300.01 519.90,300.01 521.36,299.97 522.82,300.01 524.27,300.01 525.73,299.97 527.18,299.97 528.64,300.01 530.10,300.01 531.55,299.97 533.01,299.93 534.46,300.01 535.92,300.06 537.38,299.97 538.83,300.01 540.29,250.03 541.74,250.03 543.20,299.93 544.66,299.97 546.11,300.01 547.57,300.01 549.02,300.06 550.48,300.01 551.94,299.93 553.39,300.01 554.85,300.01 556.30,299.97 557.76,299.97 559.22,300.01 560.67,250.03 562.13,300.01 563.58,300.01 565.04,300.01 566.50,299.97 567.95,300.01 569.41,299.97 570.86,300.01 572.32,299.97 573.78,299.97 575.23,299.93 576.69,300.01 578.14,300.01 579.60,299.89 581.06,299.97 582.51,299.97 583.97,300.06 585.42,249.90 586.88,299.89 588.34,300.01 589.79,299.97 591.25,299.97 592.70,299.97 594.16,300.01 595.62,300.01 597.07,299.97 598.53,299.97 599.98,299.97 601.44,250.03 602.90,299.93 604.35,300.01 605.81,300.01 607.26,299.93 608.72,300.01 610.18,300.01 611.63,299.97 613.09,300.01 614.54,300.01 616.00,300.06 617.46,300.01 618.91,299.97 620.37,299.89 621.82,300.01 623.28,300.01 624.74,249.94 626.19,249.94 627.65,300.01 629.10,300.01 630.56,300.01 632.02,300.01 633.47,299.97 634.93,250.03 636.38,300.01 637.84,300.01 639.30,300.01 640.75,300.01 642.21,250.03 643.66,249.99 645.12,300.01 646.58,299.97 648.03,300.01 649.49,299.97 650.94,300.01 652.40,299.97 653.86,299.97 655.31,299.97 656.77,300.06 658.22,249.99 659.68,300.01 661.14,250.03 662.59,249.94 664.05,249.99 665.50,300.01 666.96,300.06 668.42,300.01 669.87,299.97 671.33,299.97 672.78,300.01 674.24,299.93 675.70,299.89 677.15,299.89 678.61,299.89 680.06,299.89 681.52,299.85 682.98,299.85 684.43,299.89 685.89,299.81 687.34,299.81 688.80,299.81 690.26,299.76 691.71,299.76 693.17,299.76 694.62,299.72 696.08,299.68 697.54,299.60 698.99,299.60 700.45,299.60 701.90,299.56 703.36,299.47 704.82,299.43 706.27,299.43 707.73,299.39 709.18,299.47 710.64,259.82 712.10,338.96 713.55,299.31 715.01,299.31 716.46,299.26 717.92,299.68 719.38,299.68 720.83,299.68 722.29,299.64 723.74,299.14 725.20,299.14 726.66,299.10 728.11,299.10 729.57,299.10 731.02,248.07 732.48,299.06 733.94,299.06 735.39,299.06 736.85,299.06 738.30,299.06 739.76,298.97 741.22,298.97 742.67,298.93 744.13,298.97 745.58,298.93 747.04,298.89 748.50,298.89 749.95,298.89 751.41,298.89 752.86,247.78 754.32,298.89 755.78,298.89 757.23,298.85 758.69,298.85 760.14,298.81 761.60,298.81 763.06,298.81 764.51,298.81 765.97,298.81 767.42,298.81 768.88,298.81 770.34,298.81 771.79,298.81 773.25,298.72 774.70,247.45 776.16,247.45 777.62,298.72 779.07,298.72 780.53,298.72 781.98,298.72 783.44,298.72 784.90,298.72 786.35,247.36 787.81,298.68 789.26,247.36 790.72,247.36 792.18,247.36 793.63,298.68 795.09,298.68 796.54,298.68 798.00,298.68 799.46,298.68 800.91,341.67 802.37,307.01 803.82,298.68 805.28,298.68 806.74,298.68 808.19,247.36 809.65,298.64 811.10,247.36 812.56,247.28 814.02,247.20 815.47,298.60 816.93,298.60 818.38,247.03 819.84,298.51 821.30,298.51 822.75,298.51 824.21,298.51 825.66,298.51 827.12,298.51 828.58,298.51 830.03,298.51 831.49,298.51 832.94,298.51 834.40,298.51 835.86,298.51 837.31,298.51 838.77,298.51 840.22,298.51 841.68,298.51 843.14,298.51 844.59,298.51 846.05,298.51 847.50,298.51 848.96,298.51 850.42,298.51 851.87,298.51 853.33,298.51 854.78,298.51 856.24,298.51 857.70,298.47 859.15,298.51 860.61,298.51 862.06,298.47 863.52,298.51 864.98,298.47 866.43,298.51 867.89,298.43 869.34,298.56 870.80,298.43 872.26,298.43 873.71,298.43 875.17,298.43 876.62,298.43 878.08,298.43 879.54,298.43 880.99,298.43 882.45,298.43 883.90,298.43 885.36,298.43 886.82,298.43 888.27,298.43 889.73,298.43 891.18,298.43 892.64,298.43 894.10,298.43 895.55,298.43 897.01,298.43 898.46,298.43 899.92,298.43 901.38,298.43 902.83,298.43 904.29,298.43 905.74,298.43 907.20,298.43 908.66,298.43 910.11,298.43 911.57,298.43 913.02,298.43 914.48,298.43 915.94,298.43 917.39,298.43 918.85,298.43 920.30,298.39 921.76,298.39 923.22,298.43 924.67,298.43 926.13,298.39 927.58,298.39 929.04,298.39 930.50,298.43 931.95,298.43 933.41,298.43 934.86,246.82 936.32,298.43 937.78,246.78 939.23,246.78 940.69,246.78 942.14,246.70 943.60,246.78 945.06,298.39 946.51,298.39 947.97,298.39 949.42,298.39 950.88,298.39 952.34,246.78 953.79,298.39 955.25,298.39 956.70,298.39 958.16,298.39 959.62,298.39 961.07,246.78 962.53,246.78 963.98,298.39 965.44,298.39 966.90,298.39 968.35,298.39 969.81,298.39 971.26,298.39 972.72,298.39 974.18,298.39 975.63,298.39 977.09,298.39 978.54,298.39 980.00,298.39"/>
  <circle cx="70.00" cy="50.00" r="2.5" fill="#2563eb"/>
  <circle cx="71.46" cy="50.12" r="2.5" fill="#2563eb"/>
  <circle cx="72.91" cy="50.17" r="2.5" fill="#2563eb"/>
  <circle cx="74.37" cy="50.46" r="2.5" fill="#2563eb"/>
  <circle cx="75.82" cy="50.00" r="2.5" fill="#2563eb"/>
  <circle cx="77.28" cy="266.90" r="2.5" fill="#2563eb"/>
  <circle cx="78.74" cy="50.12" r="2.5" fill="#2563eb"/>
  <circle cx="80.19" cy="50.08" r="2.5" fill="#2563eb"/>
  <circle cx="81.65" cy="177.46" r="2.5" fill="#2563eb"/>
  <circle cx="83.10" cy="211.58" r="2.5" fill="#2563eb"/>
  <circle cx="84.56" cy="175.34" r="2.5" fill="#2563eb"/>
  <circle cx="86.02" cy="304.14" r="2.5" fill="#2563eb"/>
  <circle cx="87.47" cy="200.46" r="2.5" fill="#2563eb"/>
  <circle cx="88.93" cy="250.94" r="2.5" fill="#2563eb"/>
  <circle cx="90.38" cy="300.01" r="2.5" fill="#2563eb"/>
  <circle cx="91.84" cy="300.06" r="2.5" fill="#2563eb"/>
  <circle cx="93.30" cy="300.01" r="2.5" fill="#2563eb"/>
  <circle cx="94.75" cy="300.01" r="2.5" fill="#2563eb"/>
  <circle cx="96.21" cy="348.00" r="2.5" fill="#2563eb"/>
  <circle cx="97.66" cy="300.01" r="2.5" fill="#2563eb"/>
  <circle cx="99.12" cy="249.99" r="2.5" fill="#2563eb"/>
  <circle cx="100.58" cy="200.00" r="2.5" fill="#2563eb"/>
  <circle cx="102.03" cy="249.99" r="2.5" fill="#2563eb"/>
  <circle cx="103.49" cy="249.99" r="2.5" fill="#2563eb"/>
  <circle cx="104.94" cy="250.03" r="2.5" fill="#2563eb"/>
  <circle cx="106.40" cy="250.03" r="2.5" fill="#2563eb"/>
  <circle cx="107.86" cy="250.03" r="2.5" fill="#2563eb"/>
  <circle cx="109.31" cy="250.40" r="2.5" fill="#2563eb"/>
  <circle cx="110.77" cy="250.90" r="2.5" fill="#2563eb"/>
  <circle cx="112.22" cy="250.90" r="2.5" fill="#2563eb"/>
  <circle cx="113.68" cy="251.32" r="2.5" fill="#2563eb"/>
  <circle cx="115.14" cy="249.94" r="2.5" fill="#2563eb"/>
  <circle cx="116.59" cy="300.01" r="2.5" fill="#2563eb"/>
  <circle cx="118.05" cy="299.93" r="2.5" fill="#2563eb"/>
  <circle cx="119.50" cy="251.03" r="2.5" fill="#2563eb"/>
  <circle cx="120.96" cy="300.68" r="2.5" fill="#2563eb"/>
  <circle cx="122.42" cy="250.03" r="2.5" fill="#2563eb"/>
  <circle cx="123.87" cy="200.00" r="2.5" fill="#2563eb"/>
  <circle cx="125.33" cy="249.99" r="2.5" fill="#2563eb"/>
  <circle cx="126.78" cy="250.03" r="2.5" fill="#2563eb"/>
  <circle cx="128.24" cy="250.03" r="2.5" fill="#2563eb"/>
  <circle cx="129.70" cy="250.03" r="2.5" fill="#2563eb"/>
  <circle cx="131.15" cy="300.01" r="2.5" fill="#2563eb"/>
  <circle cx="132.61" cy="200.04" r="2.5" fill="#2563eb"/>
  <circle cx="134.06" cy="250.03" r="2.5" fill="#2563eb"/>
  <circle cx="135.52" cy="250.03" r="2.5" fill="#2563eb"/>
  <circle cx="136.98" cy="250.03" r="2.5" fill="#2563eb"/>
  <circle cx="138.43" cy="249.90" r="2.5" fill="#2563eb"/>
  <circle cx="139.89" cy="250.03" r="2.5" fill="#2563eb"/>
  <circle cx="141.34" cy="250.03" r="2.5" fill="#2563eb"/>
  <circle cx="142.80" cy="250.94" r="2.5" fill="#2563eb"/>
  <circle cx="144.26" cy="250.44" r="2.5" fill="#2563eb"/>
  <circle cx="145.71" cy="250.03" r="2.5" fill="#2563eb"/>
  <circle cx="147.17" cy="250.03" r="2.5" fill="#2563eb"/>
  <circle cx="148.62" cy="300.47" r="2.5" fill="#2563eb"/>
  <circle cx="150.08" cy="300.01" r="2.5" fill="#2563eb"/>
  <circle cx="151.54" cy="300.43" r="2.5" fill="#2563eb"/>
  <circle cx="152.99" cy="250.03" r="2.5" fill="#2563eb"/>
  <circle cx="154.45" cy="249.99" r="2.5" fill="#2563eb"/>
  <circle cx="155.90" cy="300.43" r="2.5" fill="#2563eb"/>
  <circle cx="157.36" cy="249.90" r="2.5" fill="#2563eb"/>
  <circle cx="158.82" cy="249.99" r="2.5" fill="#2563eb"/>
  <circle cx="160.27" cy="249.99" r="2.5" fill="#2563eb"/>
  <circle cx="161.73" cy="200.04" r="2.5" fill="#2563eb"/>
  <circle cx="163.18" cy="300.01" r="2.5" fill="#2563eb"/>
  <circle cx="164.64" cy="300.01" r="2.5" fill="#2563eb"/>
  <circle cx="166.10" cy="300.01" r="2.5" fill="#2563eb"/>
  <circle cx="167.55" cy="249.90" r="2.5" fill="#2563eb"/>
  <circle cx="169.01" cy="300.01" r="2.5" fill="#2563eb"/>
  <circle cx="170.46" cy="250.03" r="2.5" fill="#2563eb"/>
  <circle cx="171.92" cy="249.99" r="2.5" fill="#2563eb"/>
  <circle cx="173.38" cy="199.96" r="2.5" fill="#2563eb"/>
  <circle cx="174.83" cy="300.01" r="2.5" fill="#2563eb"/>
  <circle cx="176.29" cy="200.00" r="2.5" fill="#2563eb"/>
  <circle cx="177.74" cy="250.36" r="2.5" fill="#2563eb"/>
  <circle cx="179.20" cy="250.03" r="2.5" fill="#2563eb"/>
  <circle cx="180.66" cy="300.01" r="2.5" fill="#2563eb"/>
  <circle cx="182.11" cy="300.01" r="2.5" fill="#2563eb"/>
  <circle cx="183.57" cy="250.44" r="2.5" fill="#2563eb"/>
  <circle cx="185.02" cy="300.01" r="2.5" fill="#2563eb"/>
  <circle cx="186.48" cy="250.03" r="2.5" fill="#2563eb"/>
  <circle cx="187.94" cy="250.03" r="2.5" fill="#2563eb"/>
  <circle cx="189.39" cy="249.99" r="2.5" fill="#2563eb"/>
  <circle cx="190.85" cy="250.49" r="2.5" fill="#2563eb"/>
  <circle cx="192.30" cy="250.03" r="2.5" fill="#2563eb"/>
  <circle cx="193.76" cy="200.04" r="2.5" fill="#2563eb"/>
  <circle cx="195.22" cy="300.01" r="2.5" fill="#2563eb"/>
  <circle cx="196.67" cy="250.03" r="2.5" fill="#2563eb"/>
  <circle cx="198.13" cy="300.01" r="2.5" fill="#2563eb"/>
  <circle cx="199.58" cy="250.11" r="2.5" fill="#2563eb"/>
  <circle cx="201.04" cy="300.01" r="2.5" fill="#2563eb"/>
  <circle cx="202.50" cy="250.03" r="2.5" fill="#2563eb"/>
  <circle cx="203.95" cy="250.03" r="2.5" fill="#2563eb"/>
  <circle cx="205.41" cy="199.92" r="2.5" fill="#2563eb"/>
  <circle cx="206.86" cy="250.03" r="2.5" fill="#2563eb"/>
  <circle cx="208.32" cy="250.03" r="2.5" fill="#2563eb"/>
  <circle cx="209.78" cy="250.03" r="2.5" fill="#2563eb"/>
  <circle cx="211.23" cy="254.36" r="2.5" fill="#2563eb"/>
  <circle cx="212.69" cy="300.01" r="2.5" fill="#2563eb"/>
  <circle cx="214.14" cy="299.97" r="2.5" fill="#2563eb"/>
  <circle cx="215.60" cy="250.36" r="2.5" fill="#2563eb"/>
  <circle cx="217.06" cy="299.97" r="2.5" fill="#2563eb"/>
  <circle cx="218.51" cy="250.03" r="2.5" fill="#2563eb"/>
  <circle cx="219.97" cy="250.03" r="2.5" fill="#2563eb"/>
  <circle cx="221.42" cy="250.03" r="2.5" fill="#2563eb"/>
  <circle cx="222.88" cy="250.03" r="2.5" fill="#2563eb"/>
  <circle cx="224.34" cy="249.99" r="2.5" fill="#2563eb"/>
  <circle cx="225.79" cy="200.00" r="2.5" fill="#2563eb"/>
  <circle cx="227.25" cy="299.93" r="2.5" fill="#2563eb"/>
  <circle cx="228.70" cy="300.01" r="2.5" fill="#2563eb"/>
  <circle cx="230.16" cy="299.97" r="2.5" fill="#2563eb"/>
  <circle cx="231.62" cy="249.94" r="2.5" fill="#2563eb"/>
  <circle cx="233.07" cy="249.99" r="2.5" fill="#2563eb"/>
  <circle cx="234.53" cy="249.82" r="2.5" fill="#2563eb"/>
  <circle cx="235.98" cy="249.94" r="2.5" fill="#2563eb"/>
  <circle cx="237.44" cy="250.28" r="2.5" fill="#2563eb"/>
  <circle cx="238.90" cy="207.00" r="2.5" fill="#2563eb"/>
  <circle cx="240.35" cy="250.03" r="2.5" fill="#2563eb"/>
  <circle cx="241.81" cy="250.32" r="2.5" fill="#2563eb"/>
  <circle cx="243.26" cy="250.40" r="2.5" fill="#2563eb"/>
  <circle cx="244.72" cy="300.93" r="2.5" fill="#2563eb"/>
  <circle cx="246.18" cy="300.01" r="2.5" fill="#2563eb"/>
  <circle cx="247.63" cy="300.10" r="2.5" fill="#2563eb"/>
  <circle cx="249.09" cy="249.94" r="2.5" fill="#2563eb"/>
  <circle cx="250.54" cy="249.99" r="2.5" fill="#2563eb"/>
  <circle cx="252.00" cy="250.07" r="2.5" fill="#2563eb"/>
  <circle cx="253.46" cy="249.99" r="2.5" fill="#2563eb"/>
  <circle cx="254.91" cy="250.03" r="2.5" fill="#2563eb"/>
  <circle cx="256.37" cy="249.94" r="2.5" fill="#2563eb"/>
  <circle cx="257.82" cy="200.00" r="2.5" fill="#2563eb"/>
  <circle cx="259.28" cy="300.39" r="2.5" fill="#2563eb"/>
  <circle cx="260.74" cy="300.01" r="2.5" fill="#2563eb"/>
  <circle cx="262.19" cy="300.01" r="2.5" fill="#2563eb"/>
  <circle cx="263.65" cy="250.44" r="2.5" fill="#2563eb"/>
  <circle cx="265.10" cy="300.39" r="2.5" fill="#2563eb"/>
  <circle cx="266.56" cy="249.86" r="2.5" fill="#2563eb"/>
  <circle cx="268.02" cy="250.11" r="2.5" fill="#2563eb"/>
  <circle cx="269.47" cy="201.46" r="2.5" fill="#2563eb"/>
  <circle cx="270.93" cy="300.01" r="2.5" fill="#2563eb"/>
  <circle cx="272.38" cy="200.83" r="2.5" fill="#2563eb"/>
  <circle cx="273.84" cy="250.03" r="2.5" fill="#2563eb"/>
  <circle cx="275.30" cy="249.99" r="2.5" fill="#2563eb"/>
  <circle cx="276.75" cy="300.26" r="2.5" fill="#2563eb"/>
  <circle cx="278.21" cy="300.01" r="2.5" fill="#2563eb"/>
  <circle cx="279.66" cy="300.01" r="2.5" fill="#2563eb"/>
  <circle cx="281.12" cy="250.03" r="2.5" fill="#2563eb"/>
  <circle cx="282.58" cy="250.03" r="2.5" fill="#2563eb"/>
  <circle cx="284.03" cy="250.03" r="2.5" fill="#2563eb"/>
  <circle cx="285.49" cy="250.03" r="2.5" fill="#2563eb"/>
  <circle cx="286.94" cy="249.99" r="2.5" fill="#2563eb"/>
  <circle cx="288.40" cy="250.03" r="2.5" fill="#2563eb"/>
  <circle cx="289.86" cy="200.00" r="2.5" fill="#2563eb"/>
  <circle cx="291.31" cy="300.26" r="2.5" fill="#2563eb"/>
  <circle cx="292.77" cy="249.99" r="2.5" fill="#2563eb"/>
  <circle cx="294.22" cy="300.01" r="2.5" fill="#2563eb"/>
  <circle cx="295.68" cy="249.94" r="2.5" fill="#2563eb"/>
  <circle cx="297.14" cy="250.03" r="2.5" fill="#2563eb"/>
  <circle cx="298.59" cy="250.03" r="2.5" fill="#2563eb"/>
  <circle cx="300.05" cy="250.03" r="2.5" fill="#2563eb"/>
  <circle cx="301.50" cy="200.04" r="2.5" fill="#2563eb"/>
  <circle cx="302.96" cy="300.01" r="2.5" fill="#2563eb"/>
  <circle cx="304.42" cy="249.90" r="2.5" fill="#2563eb"/>
  <circle cx="305.87" cy="300.01" r="2.5" fill="#2563eb"/>
  <circle cx="307.33" cy="300.01" r="2.5" fill="#2563eb"/>
  <circle cx="308.78" cy="300.06" r="2.5" fill="#2563eb"/>
  <circle cx="310.24" cy="300.01" r="2.5" fill="#2563eb"/>
  <circle cx="311.70" cy="300.01" r="2.5" fill="#2563eb"/>
  <circle cx="313.15" cy="243.95" r="2.5" fill="#2563eb"/>
  <circle cx="314.61" cy="249.94" r="2.5" fill="#2563eb"/>
  <circle cx="316.06" cy="299.97" r="2.5" fill="#2563eb"/>
  <circle cx="317.52" cy="300.01" r="2.5" fill="#2563eb"/>
  <circle cx="318.98" cy="300.01" r="2.5" fill="#2563eb"/>
  <circle cx="320.43" cy="250.03" r="2.5" fill="#2563eb"/>
  <circle cx="321.89" cy="300.01" r="2.5" fill="#2563eb"/>
  <circle cx="323.34" cy="300.01" r="2.5" fill="#2563eb"/>
  <circle cx="324.80" cy="299.97" r="2.5" fill="#2563eb"/>
  <circle cx="326.26" cy="249.99" r="2.5" fill="#2563eb"/>
  <circle cx="327.71" cy="300.01" r="2.5" fill="#2563eb"/>
  <circle cx="329.17" cy="299.93" r="2.5" fill="#2563eb"/>
  <circle cx="330.62" cy="300.01" r="2.5" fill="#2563eb"/>
  <circle cx="332.08" cy="299.93" r="2.5" fill="#2563eb"/>
  <circle cx="333.54" cy="300.01" r="2.5" fill="#2563eb"/>
  <circle cx="334.99" cy="300.01" r="2.5" fill="#2563eb"/>
  <circle cx="336.45" cy="299.89" r="2.5" fill="#2563eb"/>
  <circle cx="337.90" cy="299.97" r="2.5" fill="#2563eb"/>
  <circle cx="339.36" cy="250.03" r="2.5" fill="#2563eb"/>
  <circle cx="340.82" cy="299.93" r="2.5" fill="#2563eb"/>
  <circle cx="342.27" cy="299.89" r="2.5" fill="#2563eb"/>
  <circle cx="343.73" cy="299.97" r="2.5" fill="#2563eb"/>
  <circle cx="345.18" cy="249.94" r="2.5" fill="#2563eb"/>
  <circle cx="346.64" cy="300.01" r="2.5" fill="#2563eb"/>
  <circle cx="348.10" cy="300.01" r="2.5" fill="#2563eb"/>
  <circle cx="349.55" cy="299.97" r="2.5" fill="#2563eb"/>
  <circle cx="351.01" cy="249.99" r="2.5" fill="#2563eb"/>
  <circle cx="352.46" cy="299.97" r="2.5" fill="#2563eb"/>
  <circle cx="353.92" cy="299.97" r="2.5" fill="#2563eb"/>
  <circle cx="355.38" cy="300.06" r="2.5" fill="#2563eb"/>
  <circle cx="356.83" cy="300.06" r="2.5" fill="#2563eb"/>
  <circle cx="358.29" cy="299.93" r="2.5" fill="#2563eb"/>
  <circle cx="359.74" cy="300.01" r="2.5" fill="#2563eb"/>
  <circle cx="361.20" cy="300.01" r="2.5" fill="#2563eb"/>
  <circle cx="362.66" cy="299.93" r="2.5" fill="#2563eb"/>
  <circle cx="364.11" cy="300.01" r="2.5" fill="#2563eb"/>
  <circle cx="365.57" cy="300.01" r="2.5" fill="#2563eb"/>
  <circle cx="367.02" cy="299.97" r="2.5" fill="#2563eb"/>
  <circle cx="368.48" cy="300.01" r="2.5" fill="#2563eb"/>
  <circle cx="369.94" cy="300.01" r="2.5" fill="#2563eb"/>
  <circle cx="371.39" cy="300.01" r="2.5" fill="#2563eb"/>
  <circle cx="372.85" cy="300.01" r="2.5" fill="#2563eb"/>
  <circle cx="374.30" cy="249.86" r="2.5" fill="#2563eb"/>
  <circle cx="375.76" cy="300.01" r="2.5" fill="#2563eb"/>
  <circle cx="377.22" cy="300.10" r="2.5" fill="#2563eb"/>
  <circle cx="378.67" cy="299.93" r="2.5" fill="#2563eb"/>
  <circle cx="380.13" cy="300.01" r="2.5" fill="#2563eb"/>
  <circle cx="381.58" cy="299.93" r="2.5" fill="#2563eb"/>
  <circle cx="383.04" cy="300.01" r="2.5" fill="#2563eb"/>
  <circle cx="384.50" cy="300.01" r="2.5" fill="#2563eb"/>
  <circle cx="385.95" cy="300.01" r="2.5" fill="#2563eb"/>
  <circle cx="387.41" cy="300.01" r="2.5" fill="#2563eb"/>
  <circle cx="388.86" cy="300.01" r="2.5" fill="#2563eb"/>
  <circle cx="390.32" cy="299.97" r="2.5" fill="#2563eb"/>
  <circle cx="391.78" cy="300.01" r="2.5" fill="#2563eb"/>
  <circle cx="393.23" cy="300.01" r="2.5" fill="#2563eb"/>
  <circle cx="394.69" cy="300.01" r="2.5" fill="#2563eb"/>
  <circle cx="396.14" cy="300.01" r="2.5" fill="#2563eb"/>
  <circle cx="397.60" cy="250.03" r="2.5" fill="#2563eb"/>
  <circle cx="399.06" cy="300.01" r="2.5" fill="#2563eb"/>
  <circle cx="400.51" cy="300.01" r="2.5" fill="#2563eb"/>
  <circle cx="401.97" cy="299.97" r="2.5" fill="#2563eb"/>
  <circle cx="403.42" cy="300.01" r="2.5" fill="#2563eb"/>
  <circle cx="404.88" cy="300.01" r="2.5" fill="#2563eb"/>
  <circle cx="406.34" cy="299.97" r="2.5" fill="#2563eb"/>
  <circle cx="407.79" cy="299.97" r="2.5" fill="#2563eb"/>
  <circle cx="409.25" cy="300.01" r="2.5" fill="#2563eb"/>
  <circle cx="410.70" cy="299.97" r="2.5" fill="#2563eb"/>
  <circle cx="412.16" cy="300.01" r="2.5" fill="#2563eb"/>
  <circle cx="413.62" cy="299.93" r="2.5" fill="#2563eb"/>
  <circle cx="415.07" cy="300.01" r="2.5" fill="#2563eb"/>
  <circle cx="416.53" cy="250.03" r="2.5" fill="#2563eb"/>
  <circle cx="417.98" cy="300.01" r="2.5" fill="#2563eb"/>
  <circle cx="419.44" cy="300.01" r="2.5" fill="#2563eb"/>
  <circle cx="420.90" cy="300.01" r="2.5" fill="#2563eb"/>
  <circle cx="422.35" cy="300.01" r="2.5" fill="#2563eb"/>
  <circle cx="423.81" cy="300.01" r="2.5" fill="#2563eb"/>
  <circle cx="425.26" cy="299.89" r="2.5" fill="#2563eb"/>
  <circle cx="426.72" cy="300.01" r="2.5" fill="#2563eb"/>
  <circle cx="428.18" cy="300.01" r="2.5" fill="#2563eb"/>
  <circle cx="429.63" cy="250.07" r="2.5" fill="#2563eb"/>
  <circle cx="431.09" cy="300.01" r="2.5" fill="#2563eb"/>
  <circle cx="432.54" cy="299.93" r="2.5" fill="#2563eb"/>
  <circle cx="434.00" cy="300.01" r="2.5" fill="#2563eb"/>
  <circle cx="435.46" cy="299.97" r="2.5" fill="#2563eb"/>
  <circle cx="436.91" cy="299.97" r="2.5" fill="#2563eb"/>
  <circle cx="438.37" cy="299.97" r="2.5" fill="#2563eb"/>
  <circle cx="439.82" cy="250.03" r="2.5" fill="#2563eb"/>
  <circle cx="441.28" cy="300.01" r="2.5" fill="#2563eb"/>
  <circle cx="442.74" cy="300.01" r="2.5" fill="#2563eb"/>
  <circle cx="444.19" cy="300.01" r="2.5" fill="#2563eb"/>
  <circle cx="445.65" cy="300.01" r="2.5" fill="#2563eb"/>
  <circle cx="447.10" cy="299.97" r="2.5" fill="#2563eb"/>
  <circle cx="448.56" cy="300.01" r="2.5" fill="#2563eb"/>
  <circle cx="450.02" cy="299.97" r="2.5" fill="#2563eb"/>
  <circle cx="451.47" cy="300.01" r="2.5" fill="#2563eb"/>
  <circle cx="452.93" cy="299.97" r="2.5" fill="#2563eb"/>
  <circle cx="454.38" cy="249.90" r="2.5" fill="#2563eb"/>
  <circle cx="455.84" cy="300.01" r="2.5" fill="#2563eb"/>
  <circle cx="457.30" cy="300.01" r="2.5" fill="#2563eb"/>
  <circle cx="458.75" cy="299.89" r="2.5" fill="#2563eb"/>
  <circle cx="460.21" cy="299.97" r="2.5" fill="#2563eb"/>
  <circle cx="461.66" cy="299.97" r="2.5" fill="#2563eb"/>
  <circle cx="463.12" cy="249.99" r="2.5" fill="#2563eb"/>
  <circle cx="464.58" cy="299.97" r="2.5" fill="#2563eb"/>
  <circle cx="466.03" cy="299.89" r="2.5" fill="#2563eb"/>
  <circle cx="467.49" cy="300.01" r="2.5" fill="#2563eb"/>
  <circle cx="468.94" cy="299.97" r="2.5" fill="#2563eb"/>
  <circle cx="470.40" cy="299.97" r="2.5" fill="#2563eb"/>
  <circle cx="471.86" cy="300.01" r="2.5" fill="#2563eb"/>
  <circle cx="473.31" cy="299.97" r="2.5" fill="#2563eb"/>
  <circle cx="474.77" cy="249.99" r="2.5" fill="#2563eb"/>
  <circle cx="476.22" cy="299.97" r="2.5" fill="#2563eb"/>
  <circle cx="477.68" cy="299.97" r="2.5" fill="#2563eb"/>
  <circle cx="479.14" cy="300.06" r="2.5" fill="#2563eb"/>
  <circle cx="480.59" cy="300.06" r="2.5" fill="#2563eb"/>
  <circle cx="482.05" cy="249.94" r="2.5" fill="#2563eb"/>
  <circle cx="483.50" cy="300.01" r="2.5" fill="#2563eb"/>
  <circle cx="484.96" cy="299.93" r="2.5" fill="#2563eb"/>
  <circle cx="486.42" cy="300.01" r="2.5" fill="#2563eb"/>
  <circle cx="487.87" cy="300.01" r="2.5" fill="#2563eb"/>
  <circle cx="489.33" cy="249.99" r="2.5" fill="#2563eb"/>
  <circle cx="490.78" cy="300.01" r="2.5" fill="#2563eb"/>
  <circle cx="492.24" cy="300.01" r="2.5" fill="#2563eb"/>
  <circle cx="493.70" cy="300.01" r="2.5" fill="#2563eb"/>
  <circle cx="495.15" cy="299.93" r="2.5" fill="#2563eb"/>
  <circle cx="496.61" cy="299.93" r="2.5" fill="#2563eb"/>
  <circle cx="498.06" cy="300.01" r="2.5" fill="#2563eb"/>
  <circle cx="499.52" cy="300.01" r="2.5" fill="#2563eb"/>
  <circle cx="500.98" cy="249.94" r="2.5" fill="#2563eb"/>
  <circle cx="502.43" cy="299.97" r="2.5" fill="#2563eb"/>
  <circle cx="503.89" cy="299.97" r="2.5" fill="#2563eb"/>
  <circle cx="505.34" cy="300.01" r="2.5" fill="#2563eb"/>
  <circle cx="506.80" cy="300.01" r="2.5" fill="#2563eb"/>
  <circle cx="508.26" cy="300.01" r="2.5" fill="#2563eb"/>
  <circle cx="509.71" cy="249.99" r="2.5" fill="#2563eb"/>
  <circle cx="511.17" cy="300.01" r="2.5" fill="#2563eb"/>
  <circle cx="512.62" cy="300.01" r="2.5" fill="#2563eb"/>
  <circle cx="514.08" cy="300.01" r="2.5" fill="#2563eb"/>
  <circle cx="515.54" cy="250.03" r="2.5" fill="#2563eb"/>
  <circle cx="516.99" cy="300.01" r="2.5" fill="#2563eb"/>
  <circle cx="518.45" cy="300.01" r="2.5" fill="#2563eb"/>
  <circle cx="519.90" cy="300.01" r="2.5" fill="#2563eb"/>
  <circle cx="521.36" cy="299.97" r="2.5" fill="#2563eb"/>
  <circle cx="522.82" cy="300.01" r="2.5" fill="#2563eb"/>
  <circle cx="524.27" cy="300.01" r="2.5" fill="#2563eb"/>
  <circle cx="525.73" cy="299.97" r="2.5" fill="#2563eb"/>
  <circle cx="527.18" cy="299.97" r="2.5" fill="#2563eb"/>
  <circle cx="528.64" cy="300.01" r="2.5" fill="#2563eb"/>
  <circle cx="530.10" cy="300.01" r="2.5" fill="#2563eb"/>
  <circle cx="531.55" cy="299.97" r="2.5" fill="#2563eb"/>
  <circle cx="533.01" cy="299.93" r="2.5" fill="#2563eb"/>
  <circle cx="534.46" cy="300.01" r="2.5" fill="#2563eb"/>
  <circle cx="535.92" cy="300.06" r="2.5" fill="#2563eb"/>
  <circle cx="537.38" cy="299.97" r="2.5" fill="#2563eb"/>
  <circle cx="538.83" cy="300.01" r="2.5" fill="#2563eb"/>
  <circle cx="540.29" cy="250.03" r="2.5" fill="#2563eb"/>
  <circle cx="541.74" cy="250.03" r="2.5" fill="#2563eb"/>
  <circle cx="543.20" cy="299.93" r="2.5" fill="#2563eb"/>
  <circle cx="544.66" cy="299.97" r="2.5" fill="#2563eb"/>
  <circle cx="546.11" cy="300.01" r="2.5" fill="#2563eb"/>
  <circle cx="547.57" cy="300.01" r="2.5" fill="#2563eb"/>
  <circle cx="549.02" cy="300.06" r="2.5" fill="#2563eb"/>
  <circle cx="550.48" cy="300.01" r="2.5" fill="#2563eb"/>
  <circle cx="551.94" cy="299.93" r="2.5" fill="#2563eb"/>
  <circle cx="553.39" cy="300.01" r="2.5" fill="#2563eb"/>
  <circle cx="554.85" cy="300.01" r="2.5" fill="#2563eb"/>
  <circle cx="556.30" cy="299.97" r="2.5" fill="#2563eb"/>
  <circle cx="557.76" cy="299.97" r="2.5" fill="#2563eb"/>
  <circle cx="559.22" cy="300.01" r="2.5" fill="#2563eb"/>
  <circle cx="560.67" cy="250.03" r="2.5" fill="#2563eb"/>
  <circle cx="562.13" cy="300.01" r="2.5" fill="#2563eb"/>
  <circle cx="563.58" cy="300.01" r="2.5" fill="#2563eb"/>
  <circle cx="565.04" cy="300.01" r="2.5" fill="#2563eb"/>
  <circle cx="566.50" cy="299.97" r="2.5" fill="#2563eb"/>
  <circle cx="567.95" cy="300.01" r="2.5" fill="#2563eb"/>
  <circle cx="569.41" cy="299.97" r="2.5" fill="#2563eb"/>
  <circle cx="570.86" cy="300.01" r="2.5" fill="#2563eb"/>
  <circle cx="572.32" cy="299.97" r="2.5" fill="#2563eb"/>
  <circle cx="573.78" cy="299.97" r="2.5" fill="#2563eb"/>
  <circle cx="575.23" cy="299.93" r="2.5" fill="#2563eb"/>
  <circle cx="576.69" cy="300.01" r="2.5" fill="#2563eb"/>
  <circle cx="578.14" cy="300.01" r="2.5" fill="#2563eb"/>
  <circle cx="579.60" cy="299.89" r="2.5" fill="#2563eb"/>
  <circle cx="581.06" cy="299.97" r="2.5" fill="#2563eb"/>
  <circle cx="582.51" cy="299.97" r="2.5" fill="#2563eb"/>
  <circle cx="583.97" cy="300.06" r="2.5" fill="#2563eb"/>
  <circle cx="585.42" cy="249.90" r="2.5" fill="#2563eb"/>
  <circle cx="586.88" cy="299.89" r="2.5" fill="#2563eb"/>
  <circle cx="588.34" cy="300.01" r="2.5" fill="#2563eb"/>
  <circle cx="589.79" cy="299.97" r="2.5" fill="#2563eb"/>
  <circle cx="591.25" cy="299.97" r="2.5" fill="#2563eb"/>
  <circle cx="592.70" cy="299.97" r="2.5" fill="#2563eb"/>
  <circle cx="594.16" cy="300.01" r="2.5" fill="#2563eb"/>
  <circle cx="595.62" cy="300.01" r="2.5" fill="#2563eb"/>
  <circle cx="597.07" cy="299.97" r="2.5" fill="#2563eb"/>
  <circle cx="598.53" cy="299.97" r="2.5" fill="#2563eb"/>
  <circle cx="599.98" cy="299.97" r="2.5" fill="#2563eb"/>
  <circle cx="601.44" cy="250.03" r="2.5" fill="#2563eb"/>
  <circle cx="602.90" cy="299.93" r="2.5" fill="#2563eb"/>
  <circle cx="604.35" cy="300.01" r="2.5" fill="#2563eb"/>
  <circle cx="605.81" cy="300.01" r="2.5" fill="#2563eb"/>
  <circle cx="607.26" cy="299.93" r="2.5" fill="#2563eb"/>
  <circle cx="608.72" cy="300.01" r="2.5" fill="#2563eb"/>
  <circle cx="610.18" cy="300.01" r="2.5" fill="#2563eb"/>
  <circle cx="611.63" cy="299.97" r="2.5" fill="#2563eb"/>
  <circle cx="613.09" cy="300.01" r="2.5" fill="#2563eb"/>
  <circle cx="614.54" cy="300.01" r="2.5" fill="#2563eb"/>
  <circle cx="616.00" cy="300.06" r="2.5" fill="#2563eb"/>
  <circle cx="617.46" cy="300.01" r="2.5" fill="#2563eb"/>
  <circle cx="618.91" cy="299.97" r="2.5" fill="#2563eb"/>
  <circle cx="620.37" cy="299.89" r="2.5" fill="#2563eb"/>
  <circle cx="621.82" cy="300.01" r="2.5" fill="#2563eb"/>
  <circle cx="623.28" cy="300.01" r="2.5" fill="#2563eb"/>
  <circle cx="624.74" cy="249.94" r="2.5" fill="#2563eb"/>
  <circle cx="626.19" cy="249.94" r="2.5" fill="#2563eb"/>
  <circle cx="627.65" cy="300.01" r="2.5" fill="#2563eb"/>
  <circle cx="629.10" cy="300.01" r="2.5" fill="#2563eb"/>
  <circle cx="630.56" cy="300.01" r="2.5" fill="#2563eb"/>
  <circle cx="632.02" cy="300.01" r="2.5" fill="#2563eb"/>
  <circle cx="633.47" cy="299.97" r="2.5" fill="#2563eb"/>
  <circle cx="634.93" cy="250.03" r="2.5" fill="#2563eb"/>
  <circle cx="636.38" cy="300.01" r="2.5" fill="#2563eb"/>
  <circle cx="637.84" cy="300.01" r="2.5" fill="#2563eb"/>
  <circle cx="639.30" cy="300.01" r="2.5" fill="#2563eb"/>
  <circle cx="640.75" cy="300.01" r="2.5" fill="#2563eb"/>
  <circle cx="642.21" cy="250.03" r="2.5" fill="#2563eb"/>
  <circle cx="643.66" cy="249.99" r="2.5" fill="#2563eb"/>
  <circle cx="645.12" cy="300.01" r="2.5" fill="#2563eb"/>
  <circle cx="646.58" cy="299.97" r="2.5" fill="#2563eb"/>
  <circle cx="648.03" cy="300.01" r="2.5" fill="#2563eb"/>
  <circle cx="649.49" cy="299.97" r="2.5" fill="#2563eb"/>
  <circle cx="650.94" cy="300.01" r="2.5" fill="#2563eb"/>
  <circle cx="652.40" cy="299.97" r="2.5" fill="#2563eb"/>
  <circle cx="653.86" cy="299.97" r="2.5" fill="#2563eb"/>
  <circle cx="655.31" cy="299.97" r="2.5" fill="#2563eb"/>
  <circle cx="656.77" cy="300.06" r="2.5" fill="#2563eb"/>
  <circle cx="658.22" cy="249.99" r="2.5" fill="#2563eb"/>
  <circle cx="659.68" cy="300.01" r="2.5" fill="#2563eb"/>
  <circle cx="661.14" cy="250.03" r="2.5" fill="#2563eb"/>
  <circle cx="662.59" cy="249.94" r="2.5" fill="#2563eb"/>
  <circle cx="664.05" cy="249.99" r="2.5" fill="#2563eb"/>
  <circle cx="665.50" cy="300.01" r="2.5" fill="#2563eb"/>
  <circle cx="666.96" cy="300.06" r="2.5" fill="#2563eb"/>
  <circle cx="668.42" cy="300.01" r="2.5" fill="#2563eb"/>
  <circle cx="669.87" cy="299.97" r="2.5" fill="#2563eb"/>
  <circle cx="671.33" cy="299.97" r="2.5" fill="#2563eb"/>
  <circle cx="672.78" cy="300.01" r="2.5" fill="#2563eb"/>
  <circle cx="674.24" cy="299.93" r="2.5" fill="#2563eb"/>
  <circle cx="675.70" cy="299.89" r="2.5" fill="#2563eb"/>
  <circle cx="677.15" cy="299.89" r="2.5" fill="#2563eb"/>
  <circle cx="678.61" cy="299.89" r="2.5" fill="#2563eb"/>
  <circle cx="680.06" cy="299.89" r="2.5" fill="#2563eb"/>
  <circle cx="681.52" cy="299.85" r="2.5" fill="#2563eb"/>
  <circle cx="682.98" cy="299.85" r="2.5" fill="#2563eb"/>
  <circle cx="684.43" cy="299.89" r="2.5" fill="#2563eb"/>
  <circle cx="685.89" cy="299.81" r="2.5" fill="#2563eb"/>
  <circle cx="687.34" cy="299.81" r="2.5" fill="#2563eb"/>
  <circle cx="688.80" cy="299.81" r="2.5" fill="#2563eb"/>
  <circle cx="690.26" cy="299.76" r="2.5" fill="#2563eb"/>
  <circle cx="691.71" cy="299.76" r="2.5" fill="#2563eb"/>
  <circle cx="693.17" cy="299.76" r="2.5" fill="#2563eb"/>
  <circle cx="694.62" cy="299.72" r="2.5" fill="#2563eb"/>
  <circle cx="696.08" cy="299.68" r="2.5" fill="#2563eb"/>
  <circle cx="697.54" cy="299.60" r="2.5" fill="#2563eb"/>
  <circle cx="698.99" cy="299.60" r="2.5" fill="#2563eb"/>
  <circle cx="700.45" cy="299.60" r="2.5" fill="#2563eb"/>
  <circle cx="701.90" cy="299.56" r="2.5" fill="#2563eb"/>
  <circle cx="703.36" cy="299.47" r="2.5" fill="#2563eb"/>
  <circle cx="704.82" cy="299.43" r="2.5" fill="#2563eb"/>
  <circle cx="706.27" cy="299.43" r="2.5" fill="#2563eb"/>
  <circle cx="707.73" cy="299.39" r="2.5" fill="#2563eb"/>
  <circle cx="709.18" cy="299.47" r="2.5" fill="#2563eb"/>
  <circle cx="710.64" cy="259.82" r="2.5" fill="#2563eb"/>
  <circle cx="712.10" cy="338.96" r="2.5" fill="#2563eb"/>
  <circle cx="713.55" cy="299.31" r="2.5" fill="#2563eb"/>
  <circle cx="715.01" cy="299.31" r="2.5" fill="#2563eb"/>
  <circle cx="716.46" cy="299.26" r="2.5" fill="#2563eb"/>
  <circle cx="717.92" cy="299.68" r="2.5" fill="#2563eb"/>
  <circle cx="719.38" cy="299.68" r="2.5" fill="#2563eb"/>
  <circle cx="720.83" cy="299.68" r="2.5" fill="#2563eb"/>
  <circle cx="722.29" cy="299.64" r="2.5" fill="#2563eb"/>
  <circle cx="723.74" cy="299.14" r="2.5" fill="#2563eb"/>
  <circle cx="725.20" cy="299.14" r="2.5" fill="#2563eb"/>
  <circle cx="726.66" cy="299.10" r="2.5" fill="#2563eb"/>
  <circle cx="728.11" cy="299.10" r="2.5" fill="#2563eb"/>
  <circle cx="729.57" cy="299.10" r="2.5" fill="#2563eb"/>
  <circle cx="731.02" cy="248.07" r="2.5" fill="#2563eb"/>
  <circle cx="732.48" cy="299.06" r="2.5" fill="#2563eb"/>
  <circle cx="733.94" cy="299.06" r="2.5" fill="#2563eb"/>
  <circle cx="735.39" cy="299.06" r="2.5" fill="#2563eb"/>
  <circle cx="736.85" cy="299.06" r="2.5" fill="#2563eb"/>
  <circle cx="738.30" cy="299.06" r="2.5" fill="#2563eb"/>
  <circle cx="739.76" cy="298.97" r="2.5" fill="#2563eb"/>
  <circle cx="741.22" cy="298.97" r="2.5" fill="#2563eb"/>
  <circle cx="742.67" cy="298.93" r="2.5" fill="#2563eb"/>
  <circle cx="744.13" cy="298.97" r="2.5" fill="#2563eb"/>
  <circle cx="745.58" cy="298.93" r="2.5" fill="#2563eb"/>
  <circle cx="747.04" cy="298.89" r="2.5" fill="#2563eb"/>
  <circle cx="748.50" cy="298.89" r="2.5" fill="#2563eb"/>
  <circle cx="749.95" cy="298.89" r="2.5" fill="#2563eb"/>
  <circle cx="751.41" cy="298.89" r="2.5" fill="#2563eb"/>
  <circle cx="752.86" cy="247.78" r="2.5" fill="#2563eb"/>
  <circle cx="754.32" cy="298.89" r="2.5" fill="#2563eb"/>
  <circle cx="755.78" cy="298.89" r="2.5" fill="#2563eb"/>
  <circle cx="757.23" cy="298.85" r="2.5" fill="#2563eb"/>
  <circle cx="758.69" cy="298.85" r="2.5" fill="#2563eb"/>
  <circle cx="760.14" cy="298.81" r="2.5" fill="#2563eb"/>
  <circle cx="761.60" cy="298.81" r="2.5" fill="#2563eb"/>
  <circle cx="763.06" cy="298.81" r="2.5" fill="#2563eb"/>
  <circle cx="764.51" cy="298.81" r="2.5" fill="#2563eb"/>
  <circle cx="765.97" cy="298.81" r="2.5" fill="#2563eb"/>
  <circle cx="767.42" cy="298.81" r="2.5" fill="#2563eb"/>
  <circle cx="768.88" cy="298.81" r="2.5" fill="#2563eb"/>
  <circle cx="770.34" cy="298.81" r="2.5" fill="#2563eb"/>
  <circle cx="771.79" cy="298.81" r="2.5" fill="#2563eb"/>
  <circle cx="773.25" cy="298.72" r="2.5" fill="#2563eb"/>
  <circle cx="774.70" cy="247.45" r="2.5" fill="#2563eb"/>
  <circle cx="776.16" cy="247.45" r="2.5" fill="#2563eb"/>
  <circle cx="777.62" cy="298.72" r="2.5" fill="#2563eb"/>
  <circle cx="779.07" cy="298.72" r="2.5" fill="#2563eb"/>
  <circle cx="780.53" cy="298.72" r="2.5" fill="#2563eb"/>
  <circle cx="781.98" cy="298.72" r="2.5" fill="#2563eb"/>
  <circle cx="783.44" cy="298.72" r="2.5" fill="#2563eb"/>
  <circle cx="784.90" cy="298.72" r="2.5" fill="#2563eb"/>
  <circle cx="786.35" cy="247.36" r="2.5" fill="#2563eb"/>
  <circle cx="787.81" cy="298.68" r="2.5" fill="#2563eb"/>
  <circle cx="789.26" cy="247.36" r="2.5" fill="#2563eb"/>
  <circle cx="790.72" cy="247.36" r="2.5" fill="#2563eb"/>
  <circle cx="792.18" cy="247.36" r="2.5" fill="#2563eb"/>
  <circle cx="793.63" cy="298.68" r="2.5" fill="#2563eb"/>
  <circle cx="795.09" cy="298.68" r="2.5" fill="#2563eb"/>
  <circle cx="796.54" cy="298.68" r="2.5" fill="#2563eb"/>
  <circle cx="798.00" cy="298.68" r="2.5" fill="#2563eb"/>
  <circle cx="799.46" cy="298.68" r="2.5" fill="#2563eb"/>
  <circle cx="800.91" cy="341.67" r="2.5" fill="#2563eb"/>
  <circle cx="802.37" cy="307.01" r="2.5" fill="#2563eb"/>
  <circle cx="803.82" cy="298.68" r="2.5" fill="#2563eb"/>
  <circle cx="805.28" cy="298.68" r="2.5" fill="#2563eb"/>
  <circle cx="806.74" cy="298.68" r="2.5" fill="#2563eb"/>
  <circle cx="808.19" cy="247.36" r="2.5" fill="#2563eb"/>
  <circle cx="809.65" cy="298.64" r="2.5" fill="#2563eb"/>
  <circle cx="811.10" cy="247.36" r="2.5" fill="#2563eb"/>
  <circle cx="812.56" cy="247.28" r="2.5" fill="#2563eb"/>
  <circle cx="814.02" cy="247.20" r="2.5" fill="#2563eb"/>
  <circle cx="815.47" cy="298.60" r="2.5" fill="#2563eb"/>
  <circle cx="816.93" cy="298.60" r="2.5" fill="#2563eb"/>
  <circle cx="818.38" cy="247.03" r="2.5" fill="#2563eb"/>
  <circle cx="819.84" cy="298.51" r="2.5" fill="#2563eb"/>
  <circle cx="821.30" cy="298.51" r="2.5" fill="#2563eb"/>
  <circle cx="822.75" cy="298.51" r="2.5" fill="#2563eb"/>
  <circle cx="824.21" cy="298.51" r="2.5" fill="#2563eb"/>
  <circle cx="825.66" cy="298.51" r="2.5" fill="#2563eb"/>
  <circle cx="827.12" cy="298.51" r="2.5" fill="#2563eb"/>
  <circle cx="828.58" cy="298.51" r="2.5" fill="#2563eb"/>
  <circle cx="830.03" cy="298.51" r="2.5" fill="#2563eb"/>
  <circle cx="831.49" cy="298.51" r="2.5" fill="#2563eb"/>
  <circle cx="832.94" cy="298.51" r="2.5" fill="#2563eb"/>
  <circle cx="834.40" cy="298.51" r="2.5" fill="#2563eb"/>
  <circle cx="835.86" cy="298.51" r="2.5" fill="#2563eb"/>
  <circle cx="837.31" cy="298.51" r="2.5" fill="#2563eb"/>
  <circle cx="838.77" cy="298.51" r="2.5" fill="#2563eb"/>
  <circle cx="840.22" cy="298.51" r="2.5" fill="#2563eb"/>
  <circle cx="841.68" cy="298.51" r="2.5" fill="#2563eb"/>
  <circle cx="843.14" cy="298.51" r="2.5" fill="#2563eb"/>
  <circle cx="844.59" cy="298.51" r="2.5" fill="#2563eb"/>
  <circle cx="846.05" cy="298.51" r="2.5" fill="#2563eb"/>
  <circle cx="847.50" cy="298.51" r="2.5" fill="#2563eb"/>
  <circle cx="848.96" cy="298.51" r="2.5" fill="#2563eb"/>
  <circle cx="850.42" cy="298.51" r="2.5" fill="#2563eb"/>
  <circle cx="851.87" cy="298.51" r="2.5" fill="#2563eb"/>
  <circle cx="853.33" cy="298.51" r="2.5" fill="#2563eb"/>
  <circle cx="854.78" cy="298.51" r="2.5" fill="#2563eb"/>
  <circle cx="856.24" cy="298.51" r="2.5" fill="#2563eb"/>
  <circle cx="857.70" cy="298.47" r="2.5" fill="#2563eb"/>
  <circle cx="859.15" cy="298.51" r="2.5" fill="#2563eb"/>
  <circle cx="860.61" cy="298.51" r="2.5" fill="#2563eb"/>
  <circle cx="862.06" cy="298.47" r="2.5" fill="#2563eb"/>
  <circle cx="863.52" cy="298.51" r="2.5" fill="#2563eb"/>
  <circle cx="864.98" cy="298.47" r="2.5" fill="#2563eb"/>
  <circle cx="866.43" cy="298.51" r="2.5" fill="#2563eb"/>
  <circle cx="867.89" cy="298.43" r="2.5" fill="#2563eb"/>
  <circle cx="869.34" cy="298.56" r="2.5" fill="#2563eb"/>
  <circle cx="870.80" cy="298.43" r="2.5" fill="#2563eb"/>
  <circle cx="872.26" cy="298.43" r="2.5" fill="#2563eb"/>
  <circle cx="873.71" cy="298.43" r="2.5" fill="#2563eb"/>
  <circle cx="875.17" cy="298.43" r="2.5" fill="#2563eb"/>
  <circle cx="876.62" cy="298.43" r="2.5" fill="#2563eb"/>
  <circle cx="878.08" cy="298.43" r="2.5" fill="#2563eb"/>
  <circle cx="879.54" cy="298.43" r="2.5" fill="#2563eb"/>
  <circle cx="880.99" cy="298.43" r="2.5" fill="#2563eb"/>
  <circle cx="882.45" cy="298.43" r="2.5" fill="#2563eb"/>
  <circle cx="883.90" cy="298.43" r="2.5" fill="#2563eb"/>
  <circle cx="885.36" cy="298.43" r="2.5" fill="#2563eb"/>
  <circle cx="886.82" cy="298.43" r="2.5" fill="#2563eb"/>
  <circle cx="888.27" cy="298.43" r="2.5" fill="#2563eb"/>
  <circle cx="889.73" cy="298.43" r="2.5" fill="#2563eb"/>
  <circle cx="891.18" cy="298.43" r="2.5" fill="#2563eb"/>
  <circle cx="892.64" cy="298.43" r="2.5" fill="#2563eb"/>
  <circle cx="894.10" cy="298.43" r="2.5" fill="#2563eb"/>
  <circle cx="895.55" cy="298.43" r="2.5" fill="#2563eb"/>
  <circle cx="897.01" cy="298.43" r="2.5" fill="#2563eb"/>
  <circle cx="898.46" cy="298.43" r="2.5" fill="#2563eb"/>
  <circle cx="899.92" cy="298.43" r="2.5" fill="#2563eb"/>
  <circle cx="901.38" cy="298.43" r="2.5" fill="#2563eb"/>
  <circle cx="902.83" cy="298.43" r="2.5" fill="#2563eb"/>
  <circle cx="904.29" cy="298.43" r="2.5" fill="#2563eb"/>
  <circle cx="905.74" cy="298.43" r="2.5" fill="#2563eb"/>
  <circle cx="907.20" cy="298.43" r="2.5" fill="#2563eb"/>
  <circle cx="908.66" cy="298.43" r="2.5" fill="#2563eb"/>
  <circle cx="910.11" cy="298.43" r="2.5" fill="#2563eb"/>
  <circle cx="911.57" cy="298.43" r="2.5" fill="#2563eb"/>
  <circle cx="913.02" cy="298.43" r="2.5" fill="#2563eb"/>
  <circle cx="914.48" cy="298.43" r="2.5" fill="#2563eb"/>
  <circle cx="915.94" cy="298.43" r="2.5" fill="#2563eb"/>
  <circle cx="917.39" cy="298.43" r="2.5" fill="#2563eb"/>
  <circle cx="918.85" cy="298.43" r="2.5" fill="#2563eb"/>
  <circle cx="920.30" cy="298.39" r="2.5" fill="#2563eb"/>
  <circle cx="921.76" cy="298.39" r="2.5" fill="#2563eb"/>
  <circle cx="923.22" cy="298.43" r="2.5" fill="#2563eb"/>
  <circle cx="924.67" cy="298.43" r="2.5" fill="#2563eb"/>
  <circle cx="926.13" cy="298.39" r="2.5" fill="#2563eb"/>
  <circle cx="927.58" cy="298.39" r="2.5" fill="#2563eb"/>
  <circle cx="929.04" cy="298.39" r="2.5" fill="#2563eb"/>
  <circle cx="930.50" cy="298.43" r="2.5" fill="#2563eb"/>
  <circle cx="931.95" cy="298.43" r="2.5" fill="#2563eb"/>
  <circle cx="933.41" cy="298.43" r="2.5" fill="#2563eb"/>
  <circle cx="934.86" cy="246.82" r="2.5" fill="#2563eb"/>
  <circle cx="936.32" cy="298.43" r="2.5" fill="#2563eb"/>
  <circle cx="937.78" cy="246.78" r="2.5" fill="#2563eb"/>
  <circle cx="939.23" cy="246.78" r="2.5" fill="#2563eb"/>
  <circle cx="940.69" cy="246.78" r="2.5" fill="#2563eb"/>
  <circle cx="942.14" cy="246.70" r="2.5" fill="#2563eb"/>
  <circle cx="943.60" cy="246.78" r="2.5" fill="#2563eb"/>
  <circle cx="945.06" cy="298.39" r="2.5" fill="#2563eb"/>
  <circle cx="946.51" cy="298.39" r="2.5" fill="#2563eb"/>
  <circle cx="947.97" cy="298.39" r="2.5" fill="#2563eb"/>
  <circle cx="949.42" cy="298.39" r="2.5" fill="#2563eb"/>
  <circle cx="950.88" cy="298.39" r="2.5" fill="#2563eb"/>
  <circle cx="952.34" cy="246.78" r="2.5" fill="#2563eb"/>
  <circle cx="953.79" cy="298.39" r="2.5" fill="#2563eb"/>
  <circle cx="955.25" cy="298.39" r="2.5" fill="#2563eb"/>
  <circle cx="956.70" cy="298.39" r="2.5" fill="#2563eb"/>
  <circle cx="958.16" cy="298.39" r="2.5" fill="#2563eb"/>
  <circle cx="959.62" cy="298.39" r="2.5" fill="#2563eb"/>
  <circle cx="961.07" cy="246.78" r="2.5" fill="#2563eb"/>
  <circle cx="962.53" cy="246.78" r="2.5" fill="#2563eb"/>
  <circle cx="963.98" cy="298.39" r="2.5" fill="#2563eb"/>
  <circle cx="965.44" cy="298.39" r="2.5" fill="#2563eb"/>
  <circle cx="966.90" cy="298.39" r="2.5" fill="#2563eb"/>
  <circle cx="968.35" cy="298.39" r="2.5" fill="#2563eb"/>
  <circle cx="969.81" cy="298.39" r="2.5" fill="#2563eb"/>
  <circle cx="971.26" cy="298.39" r="2.5" fill="#2563eb"/>
  <circle cx="972.72" cy="298.39" r="2.5" fill="#2563eb"/>
  <circle cx="974.18" cy="298.39" r="2.5" fill="#2563eb"/>
  <circle cx="975.63" cy="298.39" r="2.5" fill="#2563eb"/>
  <circle cx="977.09" cy="298.39" r="2.5" fill="#2563eb"/>
  <circle cx="978.54" cy="298.39" r="2.5" fill="#2563eb"/>
  <circle cx="980.00" cy="298.39" r="2.5" fill="#2563eb"/>
</svg>
