<?xml version="1.0" encoding="UTF-8"?>
<svg xmlns="http://www.w3.org/2000/svg" width="1000" height="420" viewBox="0 0 1000 420">
  <rect width="100%" height="100%" fill="#ffffff"/>
  <text x="70" y="28" font-size="20" font-weight="600">수집 시점 기준 - 시간별 스냅샷</text>
  <text x="70" y="402" font-size="12" fill="#555">스냅샷 수</text>
  <line x1="70" y1="350.00" x2="980" y2="350.00" stroke="#e5e7eb" stroke-width="1"/>
  <text x="62" y="354.00" font-size="11" fill="#6b7280" text-anchor="end">0</text>
  <line x1="70" y1="290.00" x2="980" y2="290.00" stroke="#e5e7eb" stroke-width="1"/>
  <text x="62" y="294.00" font-size="11" fill="#6b7280" text-anchor="end">1,440</text>
  <line x1="70" y1="230.00" x2="980" y2="230.00" stroke="#e5e7eb" stroke-width="1"/>
  <text x="62" y="234.00" font-size="11" fill="#6b7280" text-anchor="end">2,880</text>
  <line x1="70" y1="170.00" x2="980" y2="170.00" stroke="#e5e7eb" stroke-width="1"/>
  <text x="62" y="174.00" font-size="11" fill="#6b7280" text-anchor="end">4,321</text>
  <line x1="70" y1="110.00" x2="980" y2="110.00" stroke="#e5e7eb" stroke-width="1"/>
  <text x="62" y="114.00" font-size="11" fill="#6b7280" text-anchor="end">5,761</text>
  <line x1="70" y1="50.00" x2="980" y2="50.00" stroke="#e5e7eb" stroke-width="1"/>
  <text x="62" y="54.00" font-size="11" fill="#6b7280" text-anchor="end">7,202</text>
  <line x1="70" y1="350" x2="980" y2="350" stroke="#111827" stroke-width="1.2"/>
  <line x1="70" y1="50" x2="70" y2="350" stroke="#111827" stroke-width="1.2"/>
  <line x1="70.00" y1="350" x2="70.00" y2="356" stroke="#9ca3af" stroke-width="1"/>
  <text x="70.00" y="372" font-size="10" fill="#6b7280" text-anchor="middle">2026-02-28 18</text>
  <line x1="145.14" y1="350" x2="145.14" y2="356" stroke="#9ca3af" stroke-width="1"/>
  <text x="145.14" y="372" font-size="10" fill="#6b7280" text-anchor="middle">2026-03-09 10</text>
  <line x1="220.28" y1="350" x2="220.28" y2="356" stroke="#9ca3af" stroke-width="1"/>
  <text x="220.28" y="372" font-size="10" fill="#6b7280" text-anchor="middle">2026-03-11 21</text>
  <line x1="295.41" y1="350" x2="295.41" y2="356" stroke="#9ca3af" stroke-width="1"/>
  <text x="295.41" y="372" font-size="10" fill="#6b7280" text-anchor="middle">2026-03-14 07</text>
  <line x1="370.55" y1="350" x2="370.55" y2="356" stroke="#9ca3af" stroke-width="1"/>
  <text x="370.55" y="372" font-size="10" fill="#6b7280" text-anchor="middle">2026-03-17 19</text>
  <line x1="445.69" y1="350" x2="445.69" y2="356" stroke="#9ca3af" stroke-width="1"/>
  <text x="445.69" y="372" font-size="10" fill="#6b7280" text-anchor="middle">2026-03-21 04</text>
  <line x1="520.83" y1="350" x2="520.83" y2="356" stroke="#9ca3af" stroke-width="1"/>
  <text x="520.83" y="372" font-size="10" fill="#6b7280" text-anchor="middle">2026-03-24 08</text>
  <line x1="595.96" y1="350" x2="595.96" y2="356" stroke="#9ca3af" stroke-width="1"/>
  <text x="595.96" y="372" font-size="10" fill="#6b7280" text-anchor="middle">2026-03-28 02</text>
  <line x1="671.10" y1="350" x2="671.10" y2="356" stroke="#9ca3af" stroke-width="1"/>
  <text x="671.10" y="372" font-size="10" fill="#6b7280" text-anchor="middle">2026-03-31 20</text>
  <line x1="746.24" y1="350" x2="746.24" y2="356" stroke="#9ca3af" stroke-width="1"/>
  <text x="746.24" y="372" font-size="10" fill="#6b7280" text-anchor="middle">2026-04-04 12</text>
  <line x1="821.38" y1="350" x2="821.38" y2="356" stroke="#9ca3af" stroke-width="1"/>
  <text x="821.38" y="372" font-size="10" fill="#6b7280" text-anchor="middle">2026-04-08 05</text>
  <line x1="896.51" y1="350" x2="896.51" y2="356" stroke="#9ca3af" stroke-width="1"/>
  <text x="896.51" y="372" font-size="10" fill="#6b7280" text-anchor="middle">2026-04-11 20</text>
  <line x1="971.65" y1="350" x2="971.65" y2="356" stroke="#9ca3af" stroke-width="1"/>
  <text x="971.65" y="372" font-size="10" fill="#6b7280" text-anchor="middle">2026-04-16 02</text>
  <line x1="980.00" y1="350" x2="980.00" y2="356" stroke="#9ca3af" stroke-width="1"/>
  <text x="980.00" y="372" font-size="10" fill="#6b7280" text-anchor="middle">2026-04-16 12</text>
  <polyline fill="none" stroke="#2563eb" stroke-width="2.5" points="70.00,50.00 71.39,50.12 72.78,50.17 74.17,50.46 75.57,50.00 76.96,266.90 78.35,50.12 79.74,50.08 81.13,177.46 82.52,211.58 83.91,175.34 85.31,304.14 86.70,200.46 88.09,250.94 89.48,300.01 90.87,300.06 92.26,300.01 93.65,300.01 95.05,348.00 96.44,300.01 97.83,249.99 99.22,200.00 100.61,249.99 102.00,249.99 103.39,250.03 104.79,250.03 106.18,250.03 107.57,250.40 108.96,250.90 110.35,250.90 111.74,251.32 113.13,249.94 114.53,300.01 115.92,299.93 117.31,251.03 118.70,300.68 120.09,250.03 121.48,200.00 122.87,249.99 124.27,250.03 125.66,250.03 127.05,250.03 128.44,300.01 129.83,200.04 131.22,250.03 132.61,250.03 134.01,250.03 135.40,249.90 136.79,250.03 138.18,250.03 139.57,250.94 140.96,250.44 142.35,250.03 143.75,250.03 145.14,300.47 146.53,300.01 147.92,300.43 149.31,250.03 150.70,249.99 152.09,300.43 153.49,249.90 154.88,249.99 156.27,249.99 157.66,200.04 159.05,300.01 160.44,300.01 161.83,300.01 163.23,249.90 164.62,300.01 166.01,250.03 167.40,249.99 168.79,199.96 170.18,300.01 171.57,200.00 172.97,250.36 174.36,250.03 175.75,300.01 177.14,300.01 178.53,250.44 179.92,300.01 181.31,250.03 182.71,250.03 184.10,249.99 185.49,250.49 186.88,250.03 188.27,200.04 189.66,300.01 191.06,250.03 192.45,300.01 193.84,250.11 195.23,300.01 196.62,250.03 198.01,250.03 199.40,199.92 200.80,250.03 202.19,250.03 203.58,250.03 204.97,254.36 206.36,300.01 207.75,299.97 209.14,250.36 210.54,299.97 211.93,250.03 213.32,250.03 214.71,250.03 216.10,250.03 217.49,249.99 218.88,200.00 220.28,299.93 221.67,300.01 223.06,299.97 224.45,249.94 225.84,249.99 227.23,249.82 228.62,249.94 230.02,250.28 231.41,207.00 232.80,250.03 234.19,250.32 235.58,250.40 236.97,300.93 238.36,300.01 239.76,300.10 241.15,249.94 242.54,249.99 243.93,250.07 245.32,249.99 246.71,250.03 248.10,249.94 249.50,200.00 250.89,300.39 252.28,300.01 253.67,300.01 255.06,250.44 256.45,300.39 257.84,249.86 259.24,250.11 260.63,201.46 262.02,300.01 263.41,200.83 264.80,250.03 266.19,249.99 267.58,300.26 268.98,300.01 270.37,300.01 271.76,250.03 273.15,250.03 274.54,250.03 275.93,250.03 277.32,249.99 278.72,250.03 280.11,200.00 281.50,300.26 282.89,249.99 284.28,300.01 285.67,249.94 287.06,250.03 288.46,250.03 289.85,250.03 291.24,200.04 292.63,300.01 294.02,249.90 295.41,300.01 296.80,300.01 298.20,300.06 299.59,300.01 300.98,300.01 302.37,243.95 303.76,249.94 305.15,299.97 306.54,300.01 307.94,300.01 309.33,250.03 310.72,300.01 312.11,300.01 313.50,299.97 314.89,249.99 316.28,300.01 317.68,299.93 319.07,300.01 320.46,299.93 321.85,300.01 323.24,300.01 324.63,299.89 326.02,299.97 327.42,250.03 328.81,299.93 330.20,299.89 331.59,299.97 332.98,249.94 334.37,300.01 335.76,300.01 337.16,299.97 338.55,249.99 339.94,299.97 341.33,299.97 342.72,300.06 344.11,300.06 345.50,299.93 346.90,300.01 348.29,300.01 349.68,299.93 351.07,300.01 352.46,300.01 353.85,299.97 355.24,300.01 356.64,300.01 358.03,300.01 359.42,300.01 360.81,249.86 362.20,300.01 363.59,300.10 364.98,299.93 366.38,300.01 367.77,299.93 369.16,300.01 370.55,300.01 371.94,300.01 373.33,300.01 374.72,300.01 376.12,299.97 377.51,300.01 378.90,300.01 380.29,300.01 381.68,300.01 383.07,250.03 384.46,300.01 385.86,300.01 387.25,299.97 388.64,300.01 390.03,300.01 391.42,299.97 392.81,299.97 394.20,300.01 395.60,299.97 396.99,300.01 398.38,299.93 399.77,300.01 401.16,250.03 402.55,300.01 403.94,300.01 405.34,300.01 406.73,300.01 408.12,300.01 409.51,299.89 410.90,300.01 412.29,300.01 413.69,250.07 415.08,300.01 416.47,299.93 417.86,300.01 419.25,299.97 420.64,299.97 422.03,299.97 423.43,250.03 424.82,300.01 426.21,300.01 427.60,300.01 428.99,300.01 430.38,299.97 431.77,300.01 433.17,299.97 434.56,300.01 435.95,299.97 437.34,249.90 438.73,300.01 440.12,300.01 441.51,299.89 442.91,299.97 444.30,299.97 445.69,249.99 447.08,299.97 448.47,299.89 449.86,300.01 451.25,299.97 452.65,299.97 454.04,300.01 455.43,299.97 456.82,249.99 458.21,299.97 459.60,299.97 460.99,300.06 462.39,300.06 463.78,249.94 465.17,300.01 466.56,299.93 467.95,300.01 469.34,300.01 470.73,249.99 472.13,300.01 473.52,300.01 474.91,300.01 476.30,299.93 477.69,299.93 479.08,300.01 480.47,300.01 481.87,249.94 483.26,299.97 484.65,299.97 486.04,300.01 487.43,300.01 488.82,300.01 490.21,249.99 491.61,300.01 493.00,300.01 494.39,300.01 495.78,250.03 497.17,300.01 498.56,300.01 499.95,300.01 501.35,299.97 502.74,300.01 504.13,300.01 505.52,299.97 506.91,299.97 508.30,300.01 509.69,300.01 511.09,299.97 512.48,299.93 513.87,300.01 515.26,300.06 516.65,299.97 518.04,300.01 519.43,250.03 520.83,250.03 522.22,299.93 523.61,299.97 525.00,300.01 526.39,300.01 527.78,300.06 529.17,300.01 530.57,299.93 531.96,300.01 533.35,300.01 534.74,299.97 536.13,299.97 537.52,300.01 538.91,250.03 540.31,300.01 541.70,300.01 543.09,300.01 544.48,299.97 545.87,300.01 547.26,299.97 548.65,300.01 550.05,299.97 551.44,299.97 552.83,299.93 554.22,300.01 555.61,300.01 557.00,299.89 558.39,299.97 559.79,299.97 561.18,300.06 562.57,249.90 563.96,299.89 565.35,300.01 566.74,299.97 568.13,299.97 569.53,299.97 570.92,300.01 572.31,300.01 573.70,299.97 575.09,299.97 576.48,299.97 577.87,250.03 579.27,299.93 580.66,300.01 582.05,300.01 583.44,299.93 584.83,300.01 586.22,300.01 587.61,299.97 589.01,300.01 590.40,300.01 591.79,300.06 593.18,300.01 594.57,299.97 595.96,299.89 597.35,300.01 598.75,300.01 600.14,249.94 601.53,249.94 602.92,300.01 604.31,300.01 605.70,300.01 607.09,300.01 608.49,299.97 609.88,250.03 611.27,300.01 612.66,300.01 614.05,300.01 615.44,300.01 616.83,250.03 618.23,249.99 619.62,300.01 621.01,299.97 622.40,300.01 623.79,299.97 625.18,300.01 626.57,299.97 627.97,299.97 629.36,299.97 630.75,300.06 632.14,249.99 633.53,300.01 634.92,250.03 636.31,249.94 637.71,249.99 639.10,300.01 640.49,300.06 641.88,300.01 643.27,299.97 644.66,299.97 646.06,300.01 647.45,299.93 648.84,299.89 650.23,299.89 651.62,299.89 653.01,299.89 654.40,299.85 655.80,299.85 657.19,299.89 658.58,299.81 659.97,299.81 661.36,299.81 662.75,299.76 664.14,299.76 665.54,299.76 666.93,299.72 668.32,299.68 669.71,299.60 671.10,299.60 672.49,299.60 673.88,299.56 675.28,299.47 676.67,299.43 678.06,299.43 679.45,299.39 680.84,299.47 682.23,259.82 683.62,338.96 685.02,299.31 686.41,299.31 687.80,299.26 689.19,299.68 690.58,299.68 691.97,299.68 693.36,299.64 694.76,299.14 696.15,299.14 697.54,299.10 698.93,299.10 700.32,299.10 701.71,248.07 703.10,299.06 704.50,299.06 705.89,299.06 707.28,299.06 708.67,299.06 710.06,298.97 711.45,298.97 712.84,298.93 714.24,298.97 715.63,298.93 717.02,298.89 718.41,298.89 719.80,298.89 721.19,298.89 722.58,247.78 723.98,298.89 725.37,298.89 726.76,298.85 728.15,298.85 729.54,298.81 730.93,298.81 732.32,298.81 733.72,298.81 735.11,298.81 736.50,298.81 737.89,298.81 739.28,298.81 740.67,298.81 742.06,298.72 743.46,247.45 744.85,247.45 746.24,298.72 747.63,298.72 749.02,298.72 750.41,298.72 751.80,298.72 753.20,298.72 754.59,247.36 755.98,298.68 757.37,247.36 758.76,247.36 760.15,247.36 761.54,298.68 762.94,298.68 764.33,298.68 765.72,298.68 767.11,298.68 768.50,341.67 769.89,307.01 771.28,298.68 772.68,298.68 774.07,298.68 775.46,247.36 776.85,298.64 778.24,247.36 779.63,247.28 781.02,247.20 782.42,298.60 783.81,298.60 785.20,247.03 786.59,298.51 787.98,298.51 789.37,298.51 790.76,298.51 792.16,298.51 793.55,298.51 794.94,298.51 796.33,298.51 797.72,298.51 799.11,298.51 800.50,298.51 801.90,298.51 803.29,298.51 804.68,298.51 806.07,298.51 807.46,298.51 808.85,298.51 810.24,298.51 811.64,298.51 813.03,298.51 814.42,298.51 815.81,298.51 817.20,298.51 818.59,298.51 819.98,298.51 821.38,298.51 822.77,298.47 824.16,298.51 825.55,298.51 826.94,298.47 828.33,298.51 829.72,298.47 831.12,298.51 832.51,298.43 833.90,298.56 835.29,298.43 836.68,298.43 838.07,298.43 839.46,298.43 840.86,298.43 842.25,298.43 843.64,298.43 845.03,298.43 846.42,298.43 847.81,298.43 849.20,298.43 850.60,298.43 851.99,298.43 853.38,298.43 854.77,298.43 856.16,298.43 857.55,298.43 858.94,298.43 860.34,298.43 861.73,298.43 863.12,298.43 864.51,298.43 865.90,298.43 867.29,298.43 868.69,298.43 870.08,298.43 871.47,298.43 872.86,298.43 874.25,298.43 875.64,298.43 877.03,298.43 878.43,298.43 879.82,298.43 881.21,298.43 882.60,298.39 883.99,298.39 885.38,298.43 886.77,298.43 888.17,298.39 889.56,298.39 890.95,298.39 892.34,298.43 893.73,298.43 895.12,298.43 896.51,246.82 897.91,298.43 899.30,246.78 900.69,246.78 902.08,246.78 903.47,246.70 904.86,246.78 906.25,298.39 907.65,298.39 909.04,298.39 910.43,298.39 911.82,298.39 913.21,246.78 914.60,298.39 915.99,298.39 917.39,298.39 918.78,298.39 920.17,298.39 921.56,246.78 922.95,246.78 924.34,298.39 925.73,298.39 927.13,298.39 928.52,298.39 929.91,298.39 931.30,298.39 932.69,298.39 934.08,298.39 935.47,298.39 936.87,298.39 938.26,298.39 939.65,298.39 941.04,298.39 942.43,298.39 943.82,298.35 945.21,298.39 946.61,298.39 948.00,298.35 949.39,298.35 950.78,298.35 952.17,298.35 953.56,298.35 954.95,298.35 956.35,298.35 957.74,298.35 959.13,298.35 960.52,298.35 961.91,298.35 963.30,298.35 964.69,298.35 966.09,298.35 967.48,298.35 968.87,298.35 970.26,298.35 971.65,298.35 973.04,298.35 974.43,298.35 975.83,298.35 977.22,298.35 978.61,298.35 980.00,298.35"/>
  <circle cx="70.00" cy="50.00" r="2.5" fill="#2563eb"/>
  <circle cx="71.39" cy="50.12" r="2.5" fill="#2563eb"/>
  <circle cx="72.78" cy="50.17" r="2.5" fill="#2563eb"/>
  <circle cx="74.17" cy="50.46" r="2.5" fill="#2563eb"/>
  <circle cx="75.57" cy="50.00" r="2.5" fill="#2563eb"/>
  <circle cx="76.96" cy="266.90" r="2.5" fill="#2563eb"/>
  <circle cx="78.35" cy="50.12" r="2.5" fill="#2563eb"/>
  <circle cx="79.74" cy="50.08" r="2.5" fill="#2563eb"/>
  <circle cx="81.13" cy="177.46" r="2.5" fill="#2563eb"/>
  <circle cx="82.52" cy="211.58" r="2.5" fill="#2563eb"/>
  <circle cx="83.91" cy="175.34" r="2.5" fill="#2563eb"/>
  <circle cx="85.31" cy="304.14" r="2.5" fill="#2563eb"/>
  <circle cx="86.70" cy="200.46" r="2.5" fill="#2563eb"/>
  <circle cx="88.09" cy="250.94" r="2.5" fill="#2563eb"/>
  <circle cx="89.48" cy="300.01" r="2.5" fill="#2563eb"/>
  <circle cx="90.87" cy="300.06" r="2.5" fill="#2563eb"/>
  <circle cx="92.26" cy="300.01" r="2.5" fill="#2563eb"/>
  <circle cx="93.65" cy="300.01" r="2.5" fill="#2563eb"/>
  <circle cx="95.05" cy="348.00" r="2.5" fill="#2563eb"/>
  <circle cx="96.44" cy="300.01" r="2.5" fill="#2563eb"/>
  <circle cx="97.83" cy="249.99" r="2.5" fill="#2563eb"/>
  <circle cx="99.22" cy="200.00" r="2.5" fill="#2563eb"/>
  <circle cx="100.61" cy="249.99" r="2.5" fill="#2563eb"/>
  <circle cx="102.00" cy="249.99" r="2.5" fill="#2563eb"/>
  <circle cx="103.39" cy="250.03" r="2.5" fill="#2563eb"/>
  <circle cx="104.79" cy="250.03" r="2.5" fill="#2563eb"/>
  <circle cx="106.18" cy="250.03" r="2.5" fill="#2563eb"/>
  <circle cx="107.57" cy="250.40" r="2.5" fill="#2563eb"/>
  <circle cx="108.96" cy="250.90" r="2.5" fill="#2563eb"/>
  <circle cx="110.35" cy="250.90" r="2.5" fill="#2563eb"/>
  <circle cx="111.74" cy="251.32" r="2.5" fill="#2563eb"/>
  <circle cx="113.13" cy="249.94" r="2.5" fill="#2563eb"/>
  <circle cx="114.53" cy="300.01" r="2.5" fill="#2563eb"/>
  <circle cx="115.92" cy="299.93" r="2.5" fill="#2563eb"/>
  <circle cx="117.31" cy="251.03" r="2.5" fill="#2563eb"/>
  <circle cx="118.70" cy="300.68" r="2.5" fill="#2563eb"/>
  <circle cx="120.09" cy="250.03" r="2.5" fill="#2563eb"/>
  <circle cx="121.48" cy="200.00" r="2.5" fill="#2563eb"/>
  <circle cx="122.87" cy="249.99" r="2.5" fill="#2563eb"/>
  <circle cx="124.27" cy="250.03" r="2.5" fill="#2563eb"/>
  <circle cx="125.66" cy="250.03" r="2.5" fill="#2563eb"/>
  <circle cx="127.05" cy="250.03" r="2.5" fill="#2563eb"/>
  <circle cx="128.44" cy="300.01" r="2.5" fill="#2563eb"/>
  <circle cx="129.83" cy="200.04" r="2.5" fill="#2563eb"/>
  <circle cx="131.22" cy="250.03" r="2.5" fill="#2563eb"/>
  <circle cx="132.61" cy="250.03" r="2.5" fill="#2563eb"/>
  <circle cx="134.01" cy="250.03" r="2.5" fill="#2563eb"/>
  <circle cx="135.40" cy="249.90" r="2.5" fill="#2563eb"/>
  <circle cx="136.79" cy="250.03" r="2.5" fill="#2563eb"/>
  <circle cx="138.18" cy="250.03" r="2.5" fill="#2563eb"/>
  <circle cx="139.57" cy="250.94" r="2.5" fill="#2563eb"/>
  <circle cx="140.96" cy="250.44" r="2.5" fill="#2563eb"/>
  <circle cx="142.35" cy="250.03" r="2.5" fill="#2563eb"/>
  <circle cx="143.75" cy="250.03" r="2.5" fill="#2563eb"/>
  <circle cx="145.14" cy="300.47" r="2.5" fill="#2563eb"/>
  <circle cx="146.53" cy="300.01" r="2.5" fill="#2563eb"/>
  <circle cx="147.92" cy="300.43" r="2.5" fill="#2563eb"/>
  <circle cx="149.31" cy="250.03" r="2.5" fill="#2563eb"/>
  <circle cx="150.70" cy="249.99" r="2.5" fill="#2563eb"/>
  <circle cx="152.09" cy="300.43" r="2.5" fill="#2563eb"/>
  <circle cx="153.49" cy="249.90" r="2.5" fill="#2563eb"/>
  <circle cx="154.88" cy="249.99" r="2.5" fill="#2563eb"/>
  <circle cx="156.27" cy="249.99" r="2.5" fill="#2563eb"/>
  <circle cx="157.66" cy="200.04" r="2.5" fill="#2563eb"/>
  <circle cx="159.05" cy="300.01" r="2.5" fill="#2563eb"/>
  <circle cx="160.44" cy="300.01" r="2.5" fill="#2563eb"/>
  <circle cx="161.83" cy="300.01" r="2.5" fill="#2563eb"/>
  <circle cx="163.23" cy="249.90" r="2.5" fill="#2563eb"/>
  <circle cx="164.62" cy="300.01" r="2.5" fill="#2563eb"/>
  <circle cx="166.01" cy="250.03" r="2.5" fill="#2563eb"/>
  <circle cx="167.40" cy="249.99" r="2.5" fill="#2563eb"/>
  <circle cx="168.79" cy="199.96" r="2.5" fill="#2563eb"/>
  <circle cx="170.18" cy="300.01" r="2.5" fill="#2563eb"/>
  <circle cx="171.57" cy="200.00" r="2.5" fill="#2563eb"/>
  <circle cx="172.97" cy="250.36" r="2.5" fill="#2563eb"/>
  <circle cx="174.36" cy="250.03" r="2.5" fill="#2563eb"/>
  <circle cx="175.75" cy="300.01" r="2.5" fill="#2563eb"/>
  <circle cx="177.14" cy="300.01" r="2.5" fill="#2563eb"/>
  <circle cx="178.53" cy="250.44" r="2.5" fill="#2563eb"/>
  <circle cx="179.92" cy="300.01" r="2.5" fill="#2563eb"/>
  <circle cx="181.31" cy="250.03" r="2.5" fill="#2563eb"/>
  <circle cx="182.71" cy="250.03" r="2.5" fill="#2563eb"/>
  <circle cx="184.10" cy="249.99" r="2.5" fill="#2563eb"/>
  <circle cx="185.49" cy="250.49" r="2.5" fill="#2563eb"/>
  <circle cx="186.88" cy="250.03" r="2.5" fill="#2563eb"/>
  <circle cx="188.27" cy="200.04" r="2.5" fill="#2563eb"/>
  <circle cx="189.66" cy="300.01" r="2.5" fill="#2563eb"/>
  <circle cx="191.06" cy="250.03" r="2.5" fill="#2563eb"/>
  <circle cx="192.45" cy="300.01" r="2.5" fill="#2563eb"/>
  <circle cx="193.84" cy="250.11" r="2.5" fill="#2563eb"/>
  <circle cx="195.23" cy="300.01" r="2.5" fill="#2563eb"/>
  <circle cx="196.62" cy="250.03" r="2.5" fill="#2563eb"/>
  <circle cx="198.01" cy="250.03" r="2.5" fill="#2563eb"/>
  <circle cx="199.40" cy="199.92" r="2.5" fill="#2563eb"/>
  <circle cx="200.80" cy="250.03" r="2.5" fill="#2563eb"/>
  <circle cx="202.19" cy="250.03" r="2.5" fill="#2563eb"/>
  <circle cx="203.58" cy="250.03" r="2.5" fill="#2563eb"/>
  <circle cx="204.97" cy="254.36" r="2.5" fill="#2563eb"/>
  <circle cx="206.36" cy="300.01" r="2.5" fill="#2563eb"/>
  <circle cx="207.75" cy="299.97" r="2.5" fill="#2563eb"/>
  <circle cx="209.14" cy="250.36" r="2.5" fill="#2563eb"/>
  <circle cx="210.54" cy="299.97" r="2.5" fill="#2563eb"/>
  <circle cx="211.93" cy="250.03" r="2.5" fill="#2563eb"/>
  <circle cx="213.32" cy="250.03" r="2.5" fill="#2563eb"/>
  <circle cx="214.71" cy="250.03" r="2.5" fill="#2563eb"/>
  <circle cx="216.10" cy="250.03" r="2.5" fill="#2563eb"/>
  <circle cx="217.49" cy="249.99" r="2.5" fill="#2563eb"/>
  <circle cx="218.88" cy="200.00" r="2.5" fill="#2563eb"/>
  <circle cx="220.28" cy="299.93" r="2.5" fill="#2563eb"/>
  <circle cx="221.67" cy="300.01" r="2.5" fill="#2563eb"/>
  <circle cx="223.06" cy="299.97" r="2.5" fill="#2563eb"/>
  <circle cx="224.45" cy="249.94" r="2.5" fill="#2563eb"/>
  <circle cx="225.84" cy="249.99" r="2.5" fill="#2563eb"/>
  <circle cx="227.23" cy="249.82" r="2.5" fill="#2563eb"/>
  <circle cx="228.62" cy="249.94" r="2.5" fill="#2563eb"/>
  <circle cx="230.02" cy="250.28" r="2.5" fill="#2563eb"/>
  <circle cx="231.41" cy="207.00" r="2.5" fill="#2563eb"/>
  <circle cx="232.80" cy="250.03" r="2.5" fill="#2563eb"/>
  <circle cx="234.19" cy="250.32" r="2.5" fill="#2563eb"/>
  <circle cx="235.58" cy="250.40" r="2.5" fill="#2563eb"/>
  <circle cx="236.97" cy="300.93" r="2.5" fill="#2563eb"/>
  <circle cx="238.36" cy="300.01" r="2.5" fill="#2563eb"/>
  <circle cx="239.76" cy="300.10" r="2.5" fill="#2563eb"/>
  <circle cx="241.15" cy="249.94" r="2.5" fill="#2563eb"/>
  <circle cx="242.54" cy="249.99" r="2.5" fill="#2563eb"/>
  <circle cx="243.93" cy="250.07" r="2.5" fill="#2563eb"/>
  <circle cx="245.32" cy="249.99" r="2.5" fill="#2563eb"/>
  <circle cx="246.71" cy="250.03" r="2.5" fill="#2563eb"/>
  <circle cx="248.10" cy="249.94" r="2.5" fill="#2563eb"/>
  <circle cx="249.50" cy="200.00" r="2.5" fill="#2563eb"/>
  <circle cx="250.89" cy="300.39" r="2.5" fill="#2563eb"/>
  <circle cx="252.28" cy="300.01" r="2.5" fill="#2563eb"/>
  <circle cx="253.67" cy="300.01" r="2.5" fill="#2563eb"/>
  <circle cx="255.06" cy="250.44" r="2.5" fill="#2563eb"/>
  <circle cx="256.45" cy="300.39" r="2.5" fill="#2563eb"/>
  <circle cx="257.84" cy="249.86" r="2.5" fill="#2563eb"/>
  <circle cx="259.24" cy="250.11" r="2.5" fill="#2563eb"/>
  <circle cx="260.63" cy="201.46" r="2.5" fill="#2563eb"/>
  <circle cx="262.02" cy="300.01" r="2.5" fill="#2563eb"/>
  <circle cx="263.41" cy="200.83" r="2.5" fill="#2563eb"/>
  <circle cx="264.80" cy="250.03" r="2.5" fill="#2563eb"/>
  <circle cx="266.19" cy="249.99" r="2.5" fill="#2563eb"/>
  <circle cx="267.58" cy="300.26" r="2.5" fill="#2563eb"/>
  <circle cx="268.98" cy="300.01" r="2.5" fill="#2563eb"/>
  <circle cx="270.37" cy="300.01" r="2.5" fill="#2563eb"/>
  <circle cx="271.76" cy="250.03" r="2.5" fill="#2563eb"/>
  <circle cx="273.15" cy="250.03" r="2.5" fill="#2563eb"/>
  <circle cx="274.54" cy="250.03" r="2.5" fill="#2563eb"/>
  <circle cx="275.93" cy="250.03" r="2.5" fill="#2563eb"/>
  <circle cx="277.32" cy="249.99" r="2.5" fill="#2563eb"/>
  <circle cx="278.72" cy="250.03" r="2.5" fill="#2563eb"/>
  <circle cx="280.11" cy="200.00" r="2.5" fill="#2563eb"/>
  <circle cx="281.50" cy="300.26" r="2.5" fill="#2563eb"/>
  <circle cx="282.89" cy="249.99" r="2.5" fill="#2563eb"/>
  <circle cx="284.28" cy="300.01" r="2.5" fill="#2563eb"/>
  <circle cx="285.67" cy="249.94" r="2.5" fill="#2563eb"/>
  <circle cx="287.06" cy="250.03" r="2.5" fill="#2563eb"/>
  <circle cx="288.46" cy="250.03" r="2.5" fill="#2563eb"/>
  <circle cx="289.85" cy="250.03" r="2.5" fill="#2563eb"/>
  <circle cx="291.24" cy="200.04" r="2.5" fill="#2563eb"/>
  <circle cx="292.63" cy="300.01" r="2.5" fill="#2563eb"/>
  <circle cx="294.02" cy="249.90" r="2.5" fill="#2563eb"/>
  <circle cx="295.41" cy="300.01" r="2.5" fill="#2563eb"/>
  <circle cx="296.80" cy="300.01" r="2.5" fill="#2563eb"/>
  <circle cx="298.20" cy="300.06" r="2.5" fill="#2563eb"/>
  <circle cx="299.59" cy="300.01" r="2.5" fill="#2563eb"/>
  <circle cx="300.98" cy="300.01" r="2.5" fill="#2563eb"/>
  <circle cx="302.37" cy="243.95" r="2.5" fill="#2563eb"/>
  <circle cx="303.76" cy="249.94" r="2.5" fill="#2563eb"/>
  <circle cx="305.15" cy="299.97" r="2.5" fill="#2563eb"/>
  <circle cx="306.54" cy="300.01" r="2.5" fill="#2563eb"/>
  <circle cx="307.94" cy="300.01" r="2.5" fill="#2563eb"/>
  <circle cx="309.33" cy="250.03" r="2.5" fill="#2563eb"/>
  <circle cx="310.72" cy="300.01" r="2.5" fill="#2563eb"/>
  <circle cx="312.11" cy="300.01" r="2.5" fill="#2563eb"/>
  <circle cx="313.50" cy="299.97" r="2.5" fill="#2563eb"/>
  <circle cx="314.89" cy="249.99" r="2.5" fill="#2563eb"/>
  <circle cx="316.28" cy="300.01" r="2.5" fill="#2563eb"/>
  <circle cx="317.68" cy="299.93" r="2.5" fill="#2563eb"/>
  <circle cx="319.07" cy="300.01" r="2.5" fill="#2563eb"/>
  <circle cx="320.46" cy="299.93" r="2.5" fill="#2563eb"/>
  <circle cx="321.85" cy="300.01" r="2.5" fill="#2563eb"/>
  <circle cx="323.24" cy="300.01" r="2.5" fill="#2563eb"/>
  <circle cx="324.63" cy="299.89" r="2.5" fill="#2563eb"/>
  <circle cx="326.02" cy="299.97" r="2.5" fill="#2563eb"/>
  <circle cx="327.42" cy="250.03" r="2.5" fill="#2563eb"/>
  <circle cx="328.81" cy="299.93" r="2.5" fill="#2563eb"/>
  <circle cx="330.20" cy="299.89" r="2.5" fill="#2563eb"/>
  <circle cx="331.59" cy="299.97" r="2.5" fill="#2563eb"/>
  <circle cx="332.98" cy="249.94" r="2.5" fill="#2563eb"/>
  <circle cx="334.37" cy="300.01" r="2.5" fill="#2563eb"/>
  <circle cx="335.76" cy="300.01" r="2.5" fill="#2563eb"/>
  <circle cx="337.16" cy="299.97" r="2.5" fill="#2563eb"/>
  <circle cx="338.55" cy="249.99" r="2.5" fill="#2563eb"/>
  <circle cx="339.94" cy="299.97" r="2.5" fill="#2563eb"/>
  <circle cx="341.33" cy="299.97" r="2.5" fill="#2563eb"/>
  <circle cx="342.72" cy="300.06" r="2.5" fill="#2563eb"/>
  <circle cx="344.11" cy="300.06" r="2.5" fill="#2563eb"/>
  <circle cx="345.50" cy="299.93" r="2.5" fill="#2563eb"/>
  <circle cx="346.90" cy="300.01" r="2.5" fill="#2563eb"/>
  <circle cx="348.29" cy="300.01" r="2.5" fill="#2563eb"/>
  <circle cx="349.68" cy="299.93" r="2.5" fill="#2563eb"/>
  <circle cx="351.07" cy="300.01" r="2.5" fill="#2563eb"/>
  <circle cx="352.46" cy="300.01" r="2.5" fill="#2563eb"/>
  <circle cx="353.85" cy="299.97" r="2.5" fill="#2563eb"/>
  <circle cx="355.24" cy="300.01" r="2.5" fill="#2563eb"/>
  <circle cx="356.64" cy="300.01" r="2.5" fill="#2563eb"/>
  <circle cx="358.03" cy="300.01" r="2.5" fill="#2563eb"/>
  <circle cx="359.42" cy="300.01" r="2.5" fill="#2563eb"/>
  <circle cx="360.81" cy="249.86" r="2.5" fill="#2563eb"/>
  <circle cx="362.20" cy="300.01" r="2.5" fill="#2563eb"/>
  <circle cx="363.59" cy="300.10" r="2.5" fill="#2563eb"/>
  <circle cx="364.98" cy="299.93" r="2.5" fill="#2563eb"/>
  <circle cx="366.38" cy="300.01" r="2.5" fill="#2563eb"/>
  <circle cx="367.77" cy="299.93" r="2.5" fill="#2563eb"/>
  <circle cx="369.16" cy="300.01" r="2.5" fill="#2563eb"/>
  <circle cx="370.55" cy="300.01" r="2.5" fill="#2563eb"/>
  <circle cx="371.94" cy="300.01" r="2.5" fill="#2563eb"/>
  <circle cx="373.33" cy="300.01" r="2.5" fill="#2563eb"/>
  <circle cx="374.72" cy="300.01" r="2.5" fill="#2563eb"/>
  <circle cx="376.12" cy="299.97" r="2.5" fill="#2563eb"/>
  <circle cx="377.51" cy="300.01" r="2.5" fill="#2563eb"/>
  <circle cx="378.90" cy="300.01" r="2.5" fill="#2563eb"/>
  <circle cx="380.29" cy="300.01" r="2.5" fill="#2563eb"/>
  <circle cx="381.68" cy="300.01" r="2.5" fill="#2563eb"/>
  <circle cx="383.07" cy="250.03" r="2.5" fill="#2563eb"/>
  <circle cx="384.46" cy="300.01" r="2.5" fill="#2563eb"/>
  <circle cx="385.86" cy="300.01" r="2.5" fill="#2563eb"/>
  <circle cx="387.25" cy="299.97" r="2.5" fill="#2563eb"/>
  <circle cx="388.64" cy="300.01" r="2.5" fill="#2563eb"/>
  <circle cx="390.03" cy="300.01" r="2.5" fill="#2563eb"/>
  <circle cx="391.42" cy="299.97" r="2.5" fill="#2563eb"/>
  <circle cx="392.81" cy="299.97" r="2.5" fill="#2563eb"/>
  <circle cx="394.20" cy="300.01" r="2.5" fill="#2563eb"/>
  <circle cx="395.60" cy="299.97" r="2.5" fill="#2563eb"/>
  <circle cx="396.99" cy="300.01" r="2.5" fill="#2563eb"/>
  <circle cx="398.38" cy="299.93" r="2.5" fill="#2563eb"/>
  <circle cx="399.77" cy="300.01" r="2.5" fill="#2563eb"/>
  <circle cx="401.16" cy="250.03" r="2.5" fill="#2563eb"/>
  <circle cx="402.55" cy="300.01" r="2.5" fill="#2563eb"/>
  <circle cx="403.94" cy="300.01" r="2.5" fill="#2563eb"/>
  <circle cx="405.34" cy="300.01" r="2.5" fill="#2563eb"/>
  <circle cx="406.73" cy="300.01" r="2.5" fill="#2563eb"/>
  <circle cx="408.12" cy="300.01" r="2.5" fill="#2563eb"/>
  <circle cx="409.51" cy="299.89" r="2.5" fill="#2563eb"/>
  <circle cx="410.90" cy="300.01" r="2.5" fill="#2563eb"/>
  <circle cx="412.29" cy="300.01" r="2.5" fill="#2563eb"/>
  <circle cx="413.69" cy="250.07" r="2.5" fill="#2563eb"/>
  <circle cx="415.08" cy="300.01" r="2.5" fill="#2563eb"/>
  <circle cx="416.47" cy="299.93" r="2.5" fill="#2563eb"/>
  <circle cx="417.86" cy="300.01" r="2.5" fill="#2563eb"/>
  <circle cx="419.25" cy="299.97" r="2.5" fill="#2563eb"/>
  <circle cx="420.64" cy="299.97" r="2.5" fill="#2563eb"/>
  <circle cx="422.03" cy="299.97" r="2.5" fill="#2563eb"/>
  <circle cx="423.43" cy="250.03" r="2.5" fill="#2563eb"/>
  <circle cx="424.82" cy="300.01" r="2.5" fill="#2563eb"/>
  <circle cx="426.21" cy="300.01" r="2.5" fill="#2563eb"/>
  <circle cx="427.60" cy="300.01" r="2.5" fill="#2563eb"/>
  <circle cx="428.99" cy="300.01" r="2.5" fill="#2563eb"/>
  <circle cx="430.38" cy="299.97" r="2.5" fill="#2563eb"/>
  <circle cx="431.77" cy="300.01" r="2.5" fill="#2563eb"/>
  <circle cx="433.17" cy="299.97" r="2.5" fill="#2563eb"/>
  <circle cx="434.56" cy="300.01" r="2.5" fill="#2563eb"/>
  <circle cx="435.95" cy="299.97" r="2.5" fill="#2563eb"/>
  <circle cx="437.34" cy="249.90" r="2.5" fill="#2563eb"/>
  <circle cx="438.73" cy="300.01" r="2.5" fill="#2563eb"/>
  <circle cx="440.12" cy="300.01" r="2.5" fill="#2563eb"/>
  <circle cx="441.51" cy="299.89" r="2.5" fill="#2563eb"/>
  <circle cx="442.91" cy="299.97" r="2.5" fill="#2563eb"/>
  <circle cx="444.30" cy="299.97" r="2.5" fill="#2563eb"/>
  <circle cx="445.69" cy="249.99" r="2.5" fill="#2563eb"/>
  <circle cx="447.08" cy="299.97" r="2.5" fill="#2563eb"/>
  <circle cx="448.47" cy="299.89" r="2.5" fill="#2563eb"/>
  <circle cx="449.86" cy="300.01" r="2.5" fill="#2563eb"/>
  <circle cx="451.25" cy="299.97" r="2.5" fill="#2563eb"/>
  <circle cx="452.65" cy="299.97" r="2.5" fill="#2563eb"/>
  <circle cx="454.04" cy="300.01" r="2.5" fill="#2563eb"/>
  <circle cx="455.43" cy="299.97" r="2.5" fill="#2563eb"/>
  <circle cx="456.82" cy="249.99" r="2.5" fill="#2563eb"/>
  <circle cx="458.21" cy="299.97" r="2.5" fill="#2563eb"/>
  <circle cx="459.60" cy="299.97" r="2.5" fill="#2563eb"/>
  <circle cx="460.99" cy="300.06" r="2.5" fill="#2563eb"/>
  <circle cx="462.39" cy="300.06" r="2.5" fill="#2563eb"/>
  <circle cx="463.78" cy="249.94" r="2.5" fill="#2563eb"/>
  <circle cx="465.17" cy="300.01" r="2.5" fill="#2563eb"/>
  <circle cx="466.56" cy="299.93" r="2.5" fill="#2563eb"/>
  <circle cx="467.95" cy="300.01" r="2.5" fill="#2563eb"/>
  <circle cx="469.34" cy="300.01" r="2.5" fill="#2563eb"/>
  <circle cx="470.73" cy="249.99" r="2.5" fill="#2563eb"/>
  <circle cx="472.13" cy="300.01" r="2.5" fill="#2563eb"/>
  <circle cx="473.52" cy="300.01" r="2.5" fill="#2563eb"/>
  <circle cx="474.91" cy="300.01" r="2.5" fill="#2563eb"/>
  <circle cx="476.30" cy="299.93" r="2.5" fill="#2563eb"/>
  <circle cx="477.69" cy="299.93" r="2.5" fill="#2563eb"/>
  <circle cx="479.08" cy="300.01" r="2.5" fill="#2563eb"/>
  <circle cx="480.47" cy="300.01" r="2.5" fill="#2563eb"/>
  <circle cx="481.87" cy="249.94" r="2.5" fill="#2563eb"/>
  <circle cx="483.26" cy="299.97" r="2.5" fill="#2563eb"/>
  <circle cx="484.65" cy="299.97" r="2.5" fill="#2563eb"/>
  <circle cx="486.04" cy="300.01" r="2.5" fill="#2563eb"/>
  <circle cx="487.43" cy="300.01" r="2.5" fill="#2563eb"/>
  <circle cx="488.82" cy="300.01" r="2.5" fill="#2563eb"/>
  <circle cx="490.21" cy="249.99" r="2.5" fill="#2563eb"/>
  <circle cx="491.61" cy="300.01" r="2.5" fill="#2563eb"/>
  <circle cx="493.00" cy="300.01" r="2.5" fill="#2563eb"/>
  <circle cx="494.39" cy="300.01" r="2.5" fill="#2563eb"/>
  <circle cx="495.78" cy="250.03" r="2.5" fill="#2563eb"/>
  <circle cx="497.17" cy="300.01" r="2.5" fill="#2563eb"/>
  <circle cx="498.56" cy="300.01" r="2.5" fill="#2563eb"/>
  <circle cx="499.95" cy="300.01" r="2.5" fill="#2563eb"/>
  <circle cx="501.35" cy="299.97" r="2.5" fill="#2563eb"/>
  <circle cx="502.74" cy="300.01" r="2.5" fill="#2563eb"/>
  <circle cx="504.13" cy="300.01" r="2.5" fill="#2563eb"/>
  <circle cx="505.52" cy="299.97" r="2.5" fill="#2563eb"/>
  <circle cx="506.91" cy="299.97" r="2.5" fill="#2563eb"/>
  <circle cx="508.30" cy="300.01" r="2.5" fill="#2563eb"/>
  <circle cx="509.69" cy="300.01" r="2.5" fill="#2563eb"/>
  <circle cx="511.09" cy="299.97" r="2.5" fill="#2563eb"/>
  <circle cx="512.48" cy="299.93" r="2.5" fill="#2563eb"/>
  <circle cx="513.87" cy="300.01" r="2.5" fill="#2563eb"/>
  <circle cx="515.26" cy="300.06" r="2.5" fill="#2563eb"/>
  <circle cx="516.65" cy="299.97" r="2.5" fill="#2563eb"/>
  <circle cx="518.04" cy="300.01" r="2.5" fill="#2563eb"/>
  <circle cx="519.43" cy="250.03" r="2.5" fill="#2563eb"/>
  <circle cx="520.83" cy="250.03" r="2.5" fill="#2563eb"/>
  <circle cx="522.22" cy="299.93" r="2.5" fill="#2563eb"/>
  <circle cx="523.61" cy="299.97" r="2.5" fill="#2563eb"/>
  <circle cx="525.00" cy="300.01" r="2.5" fill="#2563eb"/>
  <circle cx="526.39" cy="300.01" r="2.5" fill="#2563eb"/>
  <circle cx="527.78" cy="300.06" r="2.5" fill="#2563eb"/>
  <circle cx="529.17" cy="300.01" r="2.5" fill="#2563eb"/>
  <circle cx="530.57" cy="299.93" r="2.5" fill="#2563eb"/>
  <circle cx="531.96" cy="300.01" r="2.5" fill="#2563eb"/>
  <circle cx="533.35" cy="300.01" r="2.5" fill="#2563eb"/>
  <circle cx="534.74" cy="299.97" r="2.5" fill="#2563eb"/>
  <circle cx="536.13" cy="299.97" r="2.5" fill="#2563eb"/>
  <circle cx="537.52" cy="300.01" r="2.5" fill="#2563eb"/>
  <circle cx="538.91" cy="250.03" r="2.5" fill="#2563eb"/>
  <circle cx="540.31" cy="300.01" r="2.5" fill="#2563eb"/>
  <circle cx="541.70" cy="300.01" r="2.5" fill="#2563eb"/>
  <circle cx="543.09" cy="300.01" r="2.5" fill="#2563eb"/>
  <circle cx="544.48" cy="299.97" r="2.5" fill="#2563eb"/>
  <circle cx="545.87" cy="300.01" r="2.5" fill="#2563eb"/>
  <circle cx="547.26" cy="299.97" r="2.5" fill="#2563eb"/>
  <circle cx="548.65" cy="300.01" r="2.5" fill="#2563eb"/>
  <circle cx="550.05" cy="299.97" r="2.5" fill="#2563eb"/>
  <circle cx="551.44" cy="299.97" r="2.5" fill="#2563eb"/>
  <circle cx="552.83" cy="299.93" r="2.5" fill="#2563eb"/>
  <circle cx="554.22" cy="300.01" r="2.5" fill="#2563eb"/>
  <circle cx="555.61" cy="300.01" r="2.5" fill="#2563eb"/>
  <circle cx="557.00" cy="299.89" r="2.5" fill="#2563eb"/>
  <circle cx="558.39" cy="299.97" r="2.5" fill="#2563eb"/>
  <circle cx="559.79" cy="299.97" r="2.5" fill="#2563eb"/>
  <circle cx="561.18" cy="300.06" r="2.5" fill="#2563eb"/>
  <circle cx="562.57" cy="249.90" r="2.5" fill="#2563eb"/>
  <circle cx="563.96" cy="299.89" r="2.5" fill="#2563eb"/>
  <circle cx="565.35" cy="300.01" r="2.5" fill="#2563eb"/>
  <circle cx="566.74" cy="299.97" r="2.5" fill="#2563eb"/>
  <circle cx="568.13" cy="299.97" r="2.5" fill="#2563eb"/>
  <circle cx="569.53" cy="299.97" r="2.5" fill="#2563eb"/>
  <circle cx="570.92" cy="300.01" r="2.5" fill="#2563eb"/>
  <circle cx="572.31" cy="300.01" r="2.5" fill="#2563eb"/>
  <circle cx="573.70" cy="299.97" r="2.5" fill="#2563eb"/>
  <circle cx="575.09" cy="299.97" r="2.5" fill="#2563eb"/>
  <circle cx="576.48" cy="299.97" r="2.5" fill="#2563eb"/>
  <circle cx="577.87" cy="250.03" r="2.5" fill="#2563eb"/>
  <circle cx="579.27" cy="299.93" r="2.5" fill="#2563eb"/>
  <circle cx="580.66" cy="300.01" r="2.5" fill="#2563eb"/>
  <circle cx="582.05" cy="300.01" r="2.5" fill="#2563eb"/>
  <circle cx="583.44" cy="299.93" r="2.5" fill="#2563eb"/>
  <circle cx="584.83" cy="300.01" r="2.5" fill="#2563eb"/>
  <circle cx="586.22" cy="300.01" r="2.5" fill="#2563eb"/>
  <circle cx="587.61" cy="299.97" r="2.5" fill="#2563eb"/>
  <circle cx="589.01" cy="300.01" r="2.5" fill="#2563eb"/>
  <circle cx="590.40" cy="300.01" r="2.5" fill="#2563eb"/>
  <circle cx="591.79" cy="300.06" r="2.5" fill="#2563eb"/>
  <circle cx="593.18" cy="300.01" r="2.5" fill="#2563eb"/>
  <circle cx="594.57" cy="299.97" r="2.5" fill="#2563eb"/>
  <circle cx="595.96" cy="299.89" r="2.5" fill="#2563eb"/>
  <circle cx="597.35" cy="300.01" r="2.5" fill="#2563eb"/>
  <circle cx="598.75" cy="300.01" r="2.5" fill="#2563eb"/>
  <circle cx="600.14" cy="249.94" r="2.5" fill="#2563eb"/>
  <circle cx="601.53" cy="249.94" r="2.5" fill="#2563eb"/>
  <circle cx="602.92" cy="300.01" r="2.5" fill="#2563eb"/>
  <circle cx="604.31" cy="300.01" r="2.5" fill="#2563eb"/>
  <circle cx="605.70" cy="300.01" r="2.5" fill="#2563eb"/>
  <circle cx="607.09" cy="300.01" r="2.5" fill="#2563eb"/>
  <circle cx="608.49" cy="299.97" r="2.5" fill="#2563eb"/>
  <circle cx="609.88" cy="250.03" r="2.5" fill="#2563eb"/>
  <circle cx="611.27" cy="300.01" r="2.5" fill="#2563eb"/>
  <circle cx="612.66" cy="300.01" r="2.5" fill="#2563eb"/>
  <circle cx="614.05" cy="300.01" r="2.5" fill="#2563eb"/>
  <circle cx="615.44" cy="300.01" r="2.5" fill="#2563eb"/>
  <circle cx="616.83" cy="250.03" r="2.5" fill="#2563eb"/>
  <circle cx="618.23" cy="249.99" r="2.5" fill="#2563eb"/>
  <circle cx="619.62" cy="300.01" r="2.5" fill="#2563eb"/>
  <circle cx="621.01" cy="299.97" r="2.5" fill="#2563eb"/>
  <circle cx="622.40" cy="300.01" r="2.5" fill="#2563eb"/>
  <circle cx="623.79" cy="299.97" r="2.5" fill="#2563eb"/>
  <circle cx="625.18" cy="300.01" r="2.5" fill="#2563eb"/>
  <circle cx="626.57" cy="299.97" r="2.5" fill="#2563eb"/>
  <circle cx="627.97" cy="299.97" r="2.5" fill="#2563eb"/>
  <circle cx="629.36" cy="299.97" r="2.5" fill="#2563eb"/>
  <circle cx="630.75" cy="300.06" r="2.5" fill="#2563eb"/>
  <circle cx="632.14" cy="249.99" r="2.5" fill="#2563eb"/>
  <circle cx="633.53" cy="300.01" r="2.5" fill="#2563eb"/>
  <circle cx="634.92" cy="250.03" r="2.5" fill="#2563eb"/>
  <circle cx="636.31" cy="249.94" r="2.5" fill="#2563eb"/>
  <circle cx="637.71" cy="249.99" r="2.5" fill="#2563eb"/>
  <circle cx="639.10" cy="300.01" r="2.5" fill="#2563eb"/>
  <circle cx="640.49" cy="300.06" r="2.5" fill="#2563eb"/>
  <circle cx="641.88" cy="300.01" r="2.5" fill="#2563eb"/>
  <circle cx="643.27" cy="299.97" r="2.5" fill="#2563eb"/>
  <circle cx="644.66" cy="299.97" r="2.5" fill="#2563eb"/>
  <circle cx="646.06" cy="300.01" r="2.5" fill="#2563eb"/>
  <circle cx="647.45" cy="299.93" r="2.5" fill="#2563eb"/>
  <circle cx="648.84" cy="299.89" r="2.5" fill="#2563eb"/>
  <circle cx="650.23" cy="299.89" r="2.5" fill="#2563eb"/>
  <circle cx="651.62" cy="299.89" r="2.5" fill="#2563eb"/>
  <circle cx="653.01" cy="299.89" r="2.5" fill="#2563eb"/>
  <circle cx="654.40" cy="299.85" r="2.5" fill="#2563eb"/>
  <circle cx="655.80" cy="299.85" r="2.5" fill="#2563eb"/>
  <circle cx="657.19" cy="299.89" r="2.5" fill="#2563eb"/>
  <circle cx="658.58" cy="299.81" r="2.5" fill="#2563eb"/>
  <circle cx="659.97" cy="299.81" r="2.5" fill="#2563eb"/>
  <circle cx="661.36" cy="299.81" r="2.5" fill="#2563eb"/>
  <circle cx="662.75" cy="299.76" r="2.5" fill="#2563eb"/>
  <circle cx="664.14" cy="299.76" r="2.5" fill="#2563eb"/>
  <circle cx="665.54" cy="299.76" r="2.5" fill="#2563eb"/>
  <circle cx="666.93" cy="299.72" r="2.5" fill="#2563eb"/>
  <circle cx="668.32" cy="299.68" r="2.5" fill="#2563eb"/>
  <circle cx="669.71" cy="299.60" r="2.5" fill="#2563eb"/>
  <circle cx="671.10" cy="299.60" r="2.5" fill="#2563eb"/>
  <circle cx="672.49" cy="299.60" r="2.5" fill="#2563eb"/>
  <circle cx="673.88" cy="299.56" r="2.5" fill="#2563eb"/>
  <circle cx="675.28" cy="299.47" r="2.5" fill="#2563eb"/>
  <circle cx="676.67" cy="299.43" r="2.5" fill="#2563eb"/>
  <circle cx="678.06" cy="299.43" r="2.5" fill="#2563eb"/>
  <circle cx="679.45" cy="299.39" r="2.5" fill="#2563eb"/>
  <circle cx="680.84" cy="299.47" r="2.5" fill="#2563eb"/>
  <circle cx="682.23" cy="259.82" r="2.5" fill="#2563eb"/>
  <circle cx="683.62" cy="338.96" r="2.5" fill="#2563eb"/>
  <circle cx="685.02" cy="299.31" r="2.5" fill="#2563eb"/>
  <circle cx="686.41" cy="299.31" r="2.5" fill="#2563eb"/>
  <circle cx="687.80" cy="299.26" r="2.5" fill="#2563eb"/>
  <circle cx="689.19" cy="299.68" r="2.5" fill="#2563eb"/>
  <circle cx="690.58" cy="299.68" r="2.5" fill="#2563eb"/>
  <circle cx="691.97" cy="299.68" r="2.5" fill="#2563eb"/>
  <circle cx="693.36" cy="299.64" r="2.5" fill="#2563eb"/>
  <circle cx="694.76" cy="299.14" r="2.5" fill="#2563eb"/>
  <circle cx="696.15" cy="299.14" r="2.5" fill="#2563eb"/>
  <circle cx="697.54" cy="299.10" r="2.5" fill="#2563eb"/>
  <circle cx="698.93" cy="299.10" r="2.5" fill="#2563eb"/>
  <circle cx="700.32" cy="299.10" r="2.5" fill="#2563eb"/>
  <circle cx="701.71" cy="248.07" r="2.5" fill="#2563eb"/>
  <circle cx="703.10" cy="299.06" r="2.5" fill="#2563eb"/>
  <circle cx="704.50" cy="299.06" r="2.5" fill="#2563eb"/>
  <circle cx="705.89" cy="299.06" r="2.5" fill="#2563eb"/>
  <circle cx="707.28" cy="299.06" r="2.5" fill="#2563eb"/>
  <circle cx="708.67" cy="299.06" r="2.5" fill="#2563eb"/>
  <circle cx="710.06" cy="298.97" r="2.5" fill="#2563eb"/>
  <circle cx="711.45" cy="298.97" r="2.5" fill="#2563eb"/>
  <circle cx="712.84" cy="298.93" r="2.5" fill="#2563eb"/>
  <circle cx="714.24" cy="298.97" r="2.5" fill="#2563eb"/>
  <circle cx="715.63" cy="298.93" r="2.5" fill="#2563eb"/>
  <circle cx="717.02" cy="298.89" r="2.5" fill="#2563eb"/>
  <circle cx="718.41" cy="298.89" r="2.5" fill="#2563eb"/>
  <circle cx="719.80" cy="298.89" r="2.5" fill="#2563eb"/>
  <circle cx="721.19" cy="298.89" r="2.5" fill="#2563eb"/>
  <circle cx="722.58" cy="247.78" r="2.5" fill="#2563eb"/>
  <circle cx="723.98" cy="298.89" r="2.5" fill="#2563eb"/>
  <circle cx="725.37" cy="298.89" r="2.5" fill="#2563eb"/>
  <circle cx="726.76" cy="298.85" r="2.5" fill="#2563eb"/>
  <circle cx="728.15" cy="298.85" r="2.5" fill="#2563eb"/>
  <circle cx="729.54" cy="298.81" r="2.5" fill="#2563eb"/>
  <circle cx="730.93" cy="298.81" r="2.5" fill="#2563eb"/>
  <circle cx="732.32" cy="298.81" r="2.5" fill="#2563eb"/>
  <circle cx="733.72" cy="298.81" r="2.5" fill="#2563eb"/>
  <circle cx="735.11" cy="298.81" r="2.5" fill="#2563eb"/>
  <circle cx="736.50" cy="298.81" r="2.5" fill="#2563eb"/>
  <circle cx="737.89" cy="298.81" r="2.5" fill="#2563eb"/>
  <circle cx="739.28" cy="298.81" r="2.5" fill="#2563eb"/>
  <circle cx="740.67" cy="298.81" r="2.5" fill="#2563eb"/>
  <circle cx="742.06" cy="298.72" r="2.5" fill="#2563eb"/>
  <circle cx="743.46" cy="247.45" r="2.5" fill="#2563eb"/>
  <circle cx="744.85" cy="247.45" r="2.5" fill="#2563eb"/>
  <circle cx="746.24" cy="298.72" r="2.5" fill="#2563eb"/>
  <circle cx="747.63" cy="298.72" r="2.5" fill="#2563eb"/>
  <circle cx="749.02" cy="298.72" r="2.5" fill="#2563eb"/>
  <circle cx="750.41" cy="298.72" r="2.5" fill="#2563eb"/>
  <circle cx="751.80" cy="298.72" r="2.5" fill="#2563eb"/>
  <circle cx="753.20" cy="298.72" r="2.5" fill="#2563eb"/>
  <circle cx="754.59" cy="247.36" r="2.5" fill="#2563eb"/>
  <circle cx="755.98" cy="298.68" r="2.5" fill="#2563eb"/>
  <circle cx="757.37" cy="247.36" r="2.5" fill="#2563eb"/>
  <circle cx="758.76" cy="247.36" r="2.5" fill="#2563eb"/>
  <circle cx="760.15" cy="247.36" r="2.5" fill="#2563eb"/>
  <circle cx="761.54" cy="298.68" r="2.5" fill="#2563eb"/>
  <circle cx="762.94" cy="298.68" r="2.5" fill="#2563eb"/>
  <circle cx="764.33" cy="298.68" r="2.5" fill="#2563eb"/>
  <circle cx="765.72" cy="298.68" r="2.5" fill="#2563eb"/>
  <circle cx="767.11" cy="298.68" r="2.5" fill="#2563eb"/>
  <circle cx="768.50" cy="341.67" r="2.5" fill="#2563eb"/>
  <circle cx="769.89" cy="307.01" r="2.5" fill="#2563eb"/>
  <circle cx="771.28" cy="298.68" r="2.5" fill="#2563eb"/>
  <circle cx="772.68" cy="298.68" r="2.5" fill="#2563eb"/>
  <circle cx="774.07" cy="298.68" r="2.5" fill="#2563eb"/>
  <circle cx="775.46" cy="247.36" r="2.5" fill="#2563eb"/>
  <circle cx="776.85" cy="298.64" r="2.5" fill="#2563eb"/>
  <circle cx="778.24" cy="247.36" r="2.5" fill="#2563eb"/>
  <circle cx="779.63" cy="247.28" r="2.5" fill="#2563eb"/>
  <circle cx="781.02" cy="247.20" r="2.5" fill="#2563eb"/>
  <circle cx="782.42" cy="298.60" r="2.5" fill="#2563eb"/>
  <circle cx="783.81" cy="298.60" r="2.5" fill="#2563eb"/>
  <circle cx="785.20" cy="247.03" r="2.5" fill="#2563eb"/>
  <circle cx="786.59" cy="298.51" r="2.5" fill="#2563eb"/>
  <circle cx="787.98" cy="298.51" r="2.5" fill="#2563eb"/>
  <circle cx="789.37" cy="298.51" r="2.5" fill="#2563eb"/>
  <circle cx="790.76" cy="298.51" r="2.5" fill="#2563eb"/>
  <circle cx="792.16" cy="298.51" r="2.5" fill="#2563eb"/>
  <circle cx="793.55" cy="298.51" r="2.5" fill="#2563eb"/>
  <circle cx="794.94" cy="298.51" r="2.5" fill="#2563eb"/>
  <circle cx="796.33" cy="298.51" r="2.5" fill="#2563eb"/>
  <circle cx="797.72" cy="298.51" r="2.5" fill="#2563eb"/>
  <circle cx="799.11" cy="298.51" r="2.5" fill="#2563eb"/>
  <circle cx="800.50" cy="298.51" r="2.5" fill="#2563eb"/>
  <circle cx="801.90" cy="298.51" r="2.5" fill="#2563eb"/>
  <circle cx="803.29" cy="298.51" r="2.5" fill="#2563eb"/>
  <circle cx="804.68" cy="298.51" r="2.5" fill="#2563eb"/>
  <circle cx="806.07" cy="298.51" r="2.5" fill="#2563eb"/>
  <circle cx="807.46" cy="298.51" r="2.5" fill="#2563eb"/>
  <circle cx="808.85" cy="298.51" r="2.5" fill="#2563eb"/>
  <circle cx="810.24" cy="298.51" r="2.5" fill="#2563eb"/>
  <circle cx="811.64" cy="298.51" r="2.5" fill="#2563eb"/>
  <circle cx="813.03" cy="298.51" r="2.5" fill="#2563eb"/>
  <circle cx="814.42" cy="298.51" r="2.5" fill="#2563eb"/>
  <circle cx="815.81" cy="298.51" r="2.5" fill="#2563eb"/>
  <circle cx="817.20" cy="298.51" r="2.5" fill="#2563eb"/>
  <circle cx="818.59" cy="298.51" r="2.5" fill="#2563eb"/>
  <circle cx="819.98" cy="298.51" r="2.5" fill="#2563eb"/>
  <circle cx="821.38" cy="298.51" r="2.5" fill="#2563eb"/>
  <circle cx="822.77" cy="298.47" r="2.5" fill="#2563eb"/>
  <circle cx="824.16" cy="298.51" r="2.5" fill="#2563eb"/>
  <circle cx="825.55" cy="298.51" r="2.5" fill="#2563eb"/>
  <circle cx="826.94" cy="298.47" r="2.5" fill="#2563eb"/>
  <circle cx="828.33" cy="298.51" r="2.5" fill="#2563eb"/>
  <circle cx="829.72" cy="298.47" r="2.5" fill="#2563eb"/>
  <circle cx="831.12" cy="298.51" r="2.5" fill="#2563eb"/>
  <circle cx="832.51" cy="298.43" r="2.5" fill="#2563eb"/>
  <circle cx="833.90" cy="298.56" r="2.5" fill="#2563eb"/>
  <circle cx="835.29" cy="298.43" r="2.5" fill="#2563eb"/>
  <circle cx="836.68" cy="298.43" r="2.5" fill="#2563eb"/>
  <circle cx="838.07" cy="298.43" r="2.5" fill="#2563eb"/>
  <circle cx="839.46" cy="298.43" r="2.5" fill="#2563eb"/>
  <circle cx="840.86" cy="298.43" r="2.5" fill="#2563eb"/>
  <circle cx="842.25" cy="298.43" r="2.5" fill="#2563eb"/>
  <circle cx="843.64" cy="298.43" r="2.5" fill="#2563eb"/>
  <circle cx="845.03" cy="298.43" r="2.5" fill="#2563eb"/>
  <circle cx="846.42" cy="298.43" r="2.5" fill="#2563eb"/>
  <circle cx="847.81" cy="298.43" r="2.5" fill="#2563eb"/>
  <circle cx="849.20" cy="298.43" r="2.5" fill="#2563eb"/>
  <circle cx="850.60" cy="298.43" r="2.5" fill="#2563eb"/>
  <circle cx="851.99" cy="298.43" r="2.5" fill="#2563eb"/>
  <circle cx="853.38" cy="298.43" r="2.5" fill="#2563eb"/>
  <circle cx="854.77" cy="298.43" r="2.5" fill="#2563eb"/>
  <circle cx="856.16" cy="298.43" r="2.5" fill="#2563eb"/>
  <circle cx="857.55" cy="298.43" r="2.5" fill="#2563eb"/>
  <circle cx="858.94" cy="298.43" r="2.5" fill="#2563eb"/>
  <circle cx="860.34" cy="298.43" r="2.5" fill="#2563eb"/>
  <circle cx="861.73" cy="298.43" r="2.5" fill="#2563eb"/>
  <circle cx="863.12" cy="298.43" r="2.5" fill="#2563eb"/>
  <circle cx="864.51" cy="298.43" r="2.5" fill="#2563eb"/>
  <circle cx="865.90" cy="298.43" r="2.5" fill="#2563eb"/>
  <circle cx="867.29" cy="298.43" r="2.5" fill="#2563eb"/>
  <circle cx="868.69" cy="298.43" r="2.5" fill="#2563eb"/>
  <circle cx="870.08" cy="298.43" r="2.5" fill="#2563eb"/>
  <circle cx="871.47" cy="298.43" r="2.5" fill="#2563eb"/>
  <circle cx="872.86" cy="298.43" r="2.5" fill="#2563eb"/>
  <circle cx="874.25" cy="298.43" r="2.5" fill="#2563eb"/>
  <circle cx="875.64" cy="298.43" r="2.5" fill="#2563eb"/>
  <circle cx="877.03" cy="298.43" r="2.5" fill="#2563eb"/>
  <circle cx="878.43" cy="298.43" r="2.5" fill="#2563eb"/>
  <circle cx="879.82" cy="298.43" r="2.5" fill="#2563eb"/>
  <circle cx="881.21" cy="298.43" r="2.5" fill="#2563eb"/>
  <circle cx="882.60" cy="298.39" r="2.5" fill="#2563eb"/>
  <circle cx="883.99" cy="298.39" r="2.5" fill="#2563eb"/>
  <circle cx="885.38" cy="298.43" r="2.5" fill="#2563eb"/>
  <circle cx="886.77" cy="298.43" r="2.5" fill="#2563eb"/>
  <circle cx="888.17" cy="298.39" r="2.5" fill="#2563eb"/>
  <circle cx="889.56" cy="298.39" r="2.5" fill="#2563eb"/>
  <circle cx="890.95" cy="298.39" r="2.5" fill="#2563eb"/>
  <circle cx="892.34" cy="298.43" r="2.5" fill="#2563eb"/>
  <circle cx="893.73" cy="298.43" r="2.5" fill="#2563eb"/>
  <circle cx="895.12" cy="298.43" r="2.5" fill="#2563eb"/>
  <circle cx="896.51" cy="246.82" r="2.5" fill="#2563eb"/>
  <circle cx="897.91" cy="298.43" r="2.5" fill="#2563eb"/>
  <circle cx="899.30" cy="246.78" r="2.5" fill="#2563eb"/>
  <circle cx="900.69" cy="246.78" r="2.5" fill="#2563eb"/>
  <circle cx="902.08" cy="246.78" r="2.5" fill="#2563eb"/>
  <circle cx="903.47" cy="246.70" r="2.5" fill="#2563eb"/>
  <circle cx="904.86" cy="246.78" r="2.5" fill="#2563eb"/>
  <circle cx="906.25" cy="298.39" r="2.5" fill="#2563eb"/>
  <circle cx="907.65" cy="298.39" r="2.5" fill="#2563eb"/>
  <circle cx="909.04" cy="298.39" r="2.5" fill="#2563eb"/>
  <circle cx="910.43" cy="298.39" r="2.5" fill="#2563eb"/>
  <circle cx="911.82" cy="298.39" r="2.5" fill="#2563eb"/>
  <circle cx="913.21" cy="246.78" r="2.5" fill="#2563eb"/>
  <circle cx="914.60" cy="298.39" r="2.5" fill="#2563eb"/>
  <circle cx="915.99" cy="298.39" r="2.5" fill="#2563eb"/>
  <circle cx="917.39" cy="298.39" r="2.5" fill="#2563eb"/>
  <circle cx="918.78" cy="298.39" r="2.5" fill="#2563eb"/>
  <circle cx="920.17" cy="298.39" r="2.5" fill="#2563eb"/>
  <circle cx="921.56" cy="246.78" r="2.5" fill="#2563eb"/>
  <circle cx="922.95" cy="246.78" r="2.5" fill="#2563eb"/>
  <circle cx="924.34" cy="298.39" r="2.5" fill="#2563eb"/>
  <circle cx="925.73" cy="298.39" r="2.5" fill="#2563eb"/>
  <circle cx="927.13" cy="298.39" r="2.5" fill="#2563eb"/>
  <circle cx="928.52" cy="298.39" r="2.5" fill="#2563eb"/>
  <circle cx="929.91" cy="298.39" r="2.5" fill="#2563eb"/>
  <circle cx="931.30" cy="298.39" r="2.5" fill="#2563eb"/>
  <circle cx="932.69" cy="298.39" r="2.5" fill="#2563eb"/>
  <circle cx="934.08" cy="298.39" r="2.5" fill="#2563eb"/>
  <circle cx="935.47" cy="298.39" r="2.5" fill="#2563eb"/>
  <circle cx="936.87" cy="298.39" r="2.5" fill="#2563eb"/>
  <circle cx="938.26" cy="298.39" r="2.5" fill="#2563eb"/>
  <circle cx="939.65" cy="298.39" r="2.5" fill="#2563eb"/>
  <circle cx="941.04" cy="298.39" r="2.5" fill="#2563eb"/>
  <circle cx="942.43" cy="298.39" r="2.5" fill="#2563eb"/>
  <circle cx="943.82" cy="298.35" r="2.5" fill="#2563eb"/>
  <circle cx="945.21" cy="298.39" r="2.5" fill="#2563eb"/>
  <circle cx="946.61" cy="298.39" r="2.5" fill="#2563eb"/>
  <circle cx="948.00" cy="298.35" r="2.5" fill="#2563eb"/>
  <circle cx="949.39" cy="298.35" r="2.5" fill="#2563eb"/>
  <circle cx="950.78" cy="298.35" r="2.5" fill="#2563eb"/>
  <circle cx="952.17" cy="298.35" r="2.5" fill="#2563eb"/>
  <circle cx="953.56" cy="298.35" r="2.5" fill="#2563eb"/>
  <circle cx="954.95" cy="298.35" r="2.5" fill="#2563eb"/>
  <circle cx="956.35" cy="298.35" r="2.5" fill="#2563eb"/>
  <circle cx="957.74" cy="298.35" r="2.5" fill="#2563eb"/>
  <circle cx="959.13" cy="298.35" r="2.5" fill="#2563eb"/>
  <circle cx="960.52" cy="298.35" r="2.5" fill="#2563eb"/>
  <circle cx="961.91" cy="298.35" r="2.5" fill="#2563eb"/>
  <circle cx="963.30" cy="298.35" r="2.5" fill="#2563eb"/>
  <circle cx="964.69" cy="298.35" r="2.5" fill="#2563eb"/>
  <circle cx="966.09" cy="298.35" r="2.5" fill="#2563eb"/>
  <circle cx="967.48" cy="298.35" r="2.5" fill="#2563eb"/>
  <circle cx="968.87" cy="298.35" r="2.5" fill="#2563eb"/>
  <circle cx="970.26" cy="298.35" r="2.5" fill="#2563eb"/>
  <circle cx="971.65" cy="298.35" r="2.5" fill="#2563eb"/>
  <circle cx="973.04" cy="298.35" r="2.5" fill="#2563eb"/>
  <circle cx="974.43" cy="298.35" r="2.5" fill="#2563eb"/>
  <circle cx="975.83" cy="298.35" r="2.5" fill="#2563eb"/>
  <circle cx="977.22" cy="298.35" r="2.5" fill="#2563eb"/>
  <circle cx="978.61" cy="298.35" r="2.5" fill="#2563eb"/>
  <circle cx="980.00" cy="298.35" r="2.5" fill="#2563eb"/>
</svg>
