<?xml version="1.0" encoding="UTF-8"?>
<svg xmlns="http://www.w3.org/2000/svg" width="1000" height="420" viewBox="0 0 1000 420">
  <rect width="100%" height="100%" fill="#ffffff"/>
  <text x="70" y="28" font-size="20" font-weight="600">수집 시점 기준 - 시간별 스냅샷</text>
  <text x="70" y="402" font-size="12" fill="#555">스냅샷 수</text>
  <line x1="70" y1="350.00" x2="980" y2="350.00" stroke="#e5e7eb" stroke-width="1"/>
  <text x="62" y="354.00" font-size="11" fill="#6b7280" text-anchor="end">0</text>
  <line x1="70" y1="290.00" x2="980" y2="290.00" stroke="#e5e7eb" stroke-width="1"/>
  <text x="62" y="294.00" font-size="11" fill="#6b7280" text-anchor="end">1,440</text>
  <line x1="70" y1="230.00" x2="980" y2="230.00" stroke="#e5e7eb" stroke-width="1"/>
  <text x="62" y="234.00" font-size="11" fill="#6b7280" text-anchor="end">2,880</text>
  <line x1="70" y1="170.00" x2="980" y2="170.00" stroke="#e5e7eb" stroke-width="1"/>
  <text x="62" y="174.00" font-size="11" fill="#6b7280" text-anchor="end">4,321</text>
  <line x1="70" y1="110.00" x2="980" y2="110.00" stroke="#e5e7eb" stroke-width="1"/>
  <text x="62" y="114.00" font-size="11" fill="#6b7280" text-anchor="end">5,761</text>
  <line x1="70" y1="50.00" x2="980" y2="50.00" stroke="#e5e7eb" stroke-width="1"/>
  <text x="62" y="54.00" font-size="11" fill="#6b7280" text-anchor="end">7,202</text>
  <line x1="70" y1="350" x2="980" y2="350" stroke="#111827" stroke-width="1.2"/>
  <line x1="70" y1="50" x2="70" y2="350" stroke="#111827" stroke-width="1.2"/>
  <line x1="70.00" y1="350" x2="70.00" y2="356" stroke="#9ca3af" stroke-width="1"/>
  <text x="70.00" y="372" font-size="10" fill="#6b7280" text-anchor="middle">2026-02-28 18</text>
  <line x1="144.88" y1="350" x2="144.88" y2="356" stroke="#9ca3af" stroke-width="1"/>
  <text x="144.88" y="372" font-size="10" fill="#6b7280" text-anchor="middle">2026-03-09 01</text>
  <line x1="219.77" y1="350" x2="219.77" y2="356" stroke="#9ca3af" stroke-width="1"/>
  <text x="219.77" y="372" font-size="10" fill="#6b7280" text-anchor="middle">2026-03-11 03</text>
  <line x1="294.65" y1="350" x2="294.65" y2="356" stroke="#9ca3af" stroke-width="1"/>
  <text x="294.65" y="372" font-size="10" fill="#6b7280" text-anchor="middle">2026-03-13 05</text>
  <line x1="369.53" y1="350" x2="369.53" y2="356" stroke="#9ca3af" stroke-width="1"/>
  <text x="369.53" y="372" font-size="10" fill="#6b7280" text-anchor="middle">2026-03-15 17</text>
  <line x1="444.42" y1="350" x2="444.42" y2="356" stroke="#9ca3af" stroke-width="1"/>
  <text x="444.42" y="372" font-size="10" fill="#6b7280" text-anchor="middle">2026-03-18 18</text>
  <line x1="519.30" y1="350" x2="519.30" y2="356" stroke="#9ca3af" stroke-width="1"/>
  <text x="519.30" y="372" font-size="10" fill="#6b7280" text-anchor="middle">2026-03-21 13</text>
  <line x1="594.19" y1="350" x2="594.19" y2="356" stroke="#9ca3af" stroke-width="1"/>
  <text x="594.19" y="372" font-size="10" fill="#6b7280" text-anchor="middle">2026-03-24 05</text>
  <line x1="669.07" y1="350" x2="669.07" y2="356" stroke="#9ca3af" stroke-width="1"/>
  <text x="669.07" y="372" font-size="10" fill="#6b7280" text-anchor="middle">2026-03-27 12</text>
  <line x1="743.95" y1="350" x2="743.95" y2="356" stroke="#9ca3af" stroke-width="1"/>
  <text x="743.95" y="372" font-size="10" fill="#6b7280" text-anchor="middle">2026-03-30 14</text>
  <line x1="818.84" y1="350" x2="818.84" y2="356" stroke="#9ca3af" stroke-width="1"/>
  <text x="818.84" y="372" font-size="10" fill="#6b7280" text-anchor="middle">2026-04-02 21</text>
  <line x1="893.72" y1="350" x2="893.72" y2="356" stroke="#9ca3af" stroke-width="1"/>
  <text x="893.72" y="372" font-size="10" fill="#6b7280" text-anchor="middle">2026-04-05 19</text>
  <line x1="968.60" y1="350" x2="968.60" y2="356" stroke="#9ca3af" stroke-width="1"/>
  <text x="968.60" y="372" font-size="10" fill="#6b7280" text-anchor="middle">2026-04-09 02</text>
  <line x1="980.00" y1="350" x2="980.00" y2="356" stroke="#9ca3af" stroke-width="1"/>
  <text x="980.00" y="372" font-size="10" fill="#6b7280" text-anchor="middle">2026-04-09 15</text>
  <polyline fill="none" stroke="#2563eb" stroke-width="2.5" points="70.00,50.00 71.63,50.12 73.26,50.17 74.88,50.46 76.51,50.00 78.14,266.90 79.77,50.12 81.40,50.08 83.02,177.46 84.65,211.58 86.28,175.34 87.91,304.14 89.53,200.46 91.16,250.94 92.79,300.01 94.42,300.06 96.05,300.01 97.67,300.01 99.30,348.00 100.93,300.01 102.56,249.99 104.19,200.00 105.81,249.99 107.44,249.99 109.07,250.03 110.70,250.03 112.33,250.03 113.95,250.40 115.58,250.90 117.21,250.90 118.84,251.32 120.47,249.94 122.09,300.01 123.72,299.93 125.35,251.03 126.98,300.68 128.60,250.03 130.23,200.00 131.86,249.99 133.49,250.03 135.12,250.03 136.74,250.03 138.37,300.01 140.00,200.04 141.63,250.03 143.26,250.03 144.88,250.03 146.51,249.90 148.14,250.03 149.77,250.03 151.40,250.94 153.02,250.44 154.65,250.03 156.28,250.03 157.91,300.47 159.53,300.01 161.16,300.43 162.79,250.03 164.42,249.99 166.05,300.43 167.67,249.90 169.30,249.99 170.93,249.99 172.56,200.04 174.19,300.01 175.81,300.01 177.44,300.01 179.07,249.90 180.70,300.01 182.33,250.03 183.95,249.99 185.58,199.96 187.21,300.01 188.84,200.00 190.47,250.36 192.09,250.03 193.72,300.01 195.35,300.01 196.98,250.44 198.60,300.01 200.23,250.03 201.86,250.03 203.49,249.99 205.12,250.49 206.74,250.03 208.37,200.04 210.00,300.01 211.63,250.03 213.26,300.01 214.88,250.11 216.51,300.01 218.14,250.03 219.77,250.03 221.40,199.92 223.02,250.03 224.65,250.03 226.28,250.03 227.91,254.36 229.53,300.01 231.16,299.97 232.79,250.36 234.42,299.97 236.05,250.03 237.67,250.03 239.30,250.03 240.93,250.03 242.56,249.99 244.19,200.00 245.81,299.93 247.44,300.01 249.07,299.97 250.70,249.94 252.33,249.99 253.95,249.82 255.58,249.94 257.21,250.28 258.84,207.00 260.47,250.03 262.09,250.32 263.72,250.40 265.35,300.93 266.98,300.01 268.60,300.10 270.23,249.94 271.86,249.99 273.49,250.07 275.12,249.99 276.74,250.03 278.37,249.94 280.00,200.00 281.63,300.39 283.26,300.01 284.88,300.01 286.51,250.44 288.14,300.39 289.77,249.86 291.40,250.11 293.02,201.46 294.65,300.01 296.28,200.83 297.91,250.03 299.53,249.99 301.16,300.26 302.79,300.01 304.42,300.01 306.05,250.03 307.67,250.03 309.30,250.03 310.93,250.03 312.56,249.99 314.19,250.03 315.81,200.00 317.44,300.26 319.07,249.99 320.70,300.01 322.33,249.94 323.95,250.03 325.58,250.03 327.21,250.03 328.84,200.04 330.47,300.01 332.09,249.90 333.72,300.01 335.35,300.01 336.98,300.06 338.60,300.01 340.23,300.01 341.86,243.95 343.49,249.94 345.12,299.97 346.74,300.01 348.37,300.01 350.00,250.03 351.63,300.01 353.26,300.01 354.88,299.97 356.51,249.99 358.14,300.01 359.77,299.93 361.40,300.01 363.02,299.93 364.65,300.01 366.28,300.01 367.91,299.89 369.53,299.97 371.16,250.03 372.79,299.93 374.42,299.89 376.05,299.97 377.67,249.94 379.30,300.01 380.93,300.01 382.56,299.97 384.19,249.99 385.81,299.97 387.44,299.97 389.07,300.06 390.70,300.06 392.33,299.93 393.95,300.01 395.58,300.01 397.21,299.93 398.84,300.01 400.47,300.01 402.09,299.97 403.72,300.01 405.35,300.01 406.98,300.01 408.60,300.01 410.23,249.86 411.86,300.01 413.49,300.10 415.12,299.93 416.74,300.01 418.37,299.93 420.00,300.01 421.63,300.01 423.26,300.01 424.88,300.01 426.51,300.01 428.14,299.97 429.77,300.01 431.40,300.01 433.02,300.01 434.65,300.01 436.28,250.03 437.91,300.01 439.53,300.01 441.16,299.97 442.79,300.01 444.42,300.01 446.05,299.97 447.67,299.97 449.30,300.01 450.93,299.97 452.56,300.01 454.19,299.93 455.81,300.01 457.44,250.03 459.07,300.01 460.70,300.01 462.33,300.01 463.95,300.01 465.58,300.01 467.21,299.89 468.84,300.01 470.47,300.01 472.09,250.07 473.72,300.01 475.35,299.93 476.98,300.01 478.60,299.97 480.23,299.97 481.86,299.97 483.49,250.03 485.12,300.01 486.74,300.01 488.37,300.01 490.00,300.01 491.63,299.97 493.26,300.01 494.88,299.97 496.51,300.01 498.14,299.97 499.77,249.90 501.40,300.01 503.02,300.01 504.65,299.89 506.28,299.97 507.91,299.97 509.53,249.99 511.16,299.97 512.79,299.89 514.42,300.01 516.05,299.97 517.67,299.97 519.30,300.01 520.93,299.97 522.56,249.99 524.19,299.97 525.81,299.97 527.44,300.06 529.07,300.06 530.70,249.94 532.33,300.01 533.95,299.93 535.58,300.01 537.21,300.01 538.84,249.99 540.47,300.01 542.09,300.01 543.72,300.01 545.35,299.93 546.98,299.93 548.60,300.01 550.23,300.01 551.86,249.94 553.49,299.97 555.12,299.97 556.74,300.01 558.37,300.01 560.00,300.01 561.63,249.99 563.26,300.01 564.88,300.01 566.51,300.01 568.14,250.03 569.77,300.01 571.40,300.01 573.02,300.01 574.65,299.97 576.28,300.01 577.91,300.01 579.53,299.97 581.16,299.97 582.79,300.01 584.42,300.01 586.05,299.97 587.67,299.93 589.30,300.01 590.93,300.06 592.56,299.97 594.19,300.01 595.81,250.03 597.44,250.03 599.07,299.93 600.70,299.97 602.33,300.01 603.95,300.01 605.58,300.06 607.21,300.01 608.84,299.93 610.47,300.01 612.09,300.01 613.72,299.97 615.35,299.97 616.98,300.01 618.60,250.03 620.23,300.01 621.86,300.01 623.49,300.01 625.12,299.97 626.74,300.01 628.37,299.97 630.00,300.01 631.63,299.97 633.26,299.97 634.88,299.93 636.51,300.01 638.14,300.01 639.77,299.89 641.40,299.97 643.02,299.97 644.65,300.06 646.28,249.90 647.91,299.89 649.53,300.01 651.16,299.97 652.79,299.97 654.42,299.97 656.05,300.01 657.67,300.01 659.30,299.97 660.93,299.97 662.56,299.97 664.19,250.03 665.81,299.93 667.44,300.01 669.07,300.01 670.70,299.93 672.33,300.01 673.95,300.01 675.58,299.97 677.21,300.01 678.84,300.01 680.47,300.06 682.09,300.01 683.72,299.97 685.35,299.89 686.98,300.01 688.60,300.01 690.23,249.94 691.86,249.94 693.49,300.01 695.12,300.01 696.74,300.01 698.37,300.01 700.00,299.97 701.63,250.03 703.26,300.01 704.88,300.01 706.51,300.01 708.14,300.01 709.77,250.03 711.40,249.99 713.02,300.01 714.65,299.97 716.28,300.01 717.91,299.97 719.53,300.01 721.16,299.97 722.79,299.97 724.42,299.97 726.05,300.06 727.67,249.99 729.30,300.01 730.93,250.03 732.56,249.94 734.19,249.99 735.81,300.01 737.44,300.06 739.07,300.01 740.70,299.97 742.33,299.97 743.95,300.01 745.58,299.93 747.21,299.89 748.84,299.89 750.47,299.89 752.09,299.89 753.72,299.85 755.35,299.85 756.98,299.89 758.60,299.81 760.23,299.81 761.86,299.81 763.49,299.76 765.12,299.76 766.74,299.76 768.37,299.72 770.00,299.68 771.63,299.60 773.26,299.60 774.88,299.60 776.51,299.56 778.14,299.47 779.77,299.43 781.40,299.43 783.02,299.39 784.65,299.47 786.28,259.82 787.91,338.96 789.53,299.31 791.16,299.31 792.79,299.26 794.42,299.68 796.05,299.68 797.67,299.68 799.30,299.64 800.93,299.14 802.56,299.14 804.19,299.10 805.81,299.10 807.44,299.10 809.07,248.07 810.70,299.06 812.33,299.06 813.95,299.06 815.58,299.06 817.21,299.06 818.84,298.97 820.47,298.97 822.09,298.93 823.72,298.97 825.35,298.93 826.98,298.89 828.60,298.89 830.23,298.89 831.86,298.89 833.49,247.78 835.12,298.89 836.74,298.89 838.37,298.85 840.00,298.85 841.63,298.81 843.26,298.81 844.88,298.81 846.51,298.81 848.14,298.81 849.77,298.81 851.40,298.81 853.02,298.81 854.65,298.81 856.28,298.72 857.91,247.45 859.53,247.45 861.16,298.72 862.79,298.72 864.42,298.72 866.05,298.72 867.67,298.72 869.30,298.72 870.93,247.36 872.56,298.68 874.19,247.36 875.81,247.36 877.44,247.36 879.07,298.68 880.70,298.68 882.33,298.68 883.95,298.68 885.58,298.68 887.21,341.67 888.84,307.01 890.47,298.68 892.09,298.68 893.72,298.68 895.35,247.36 896.98,298.64 898.60,247.36 900.23,247.28 901.86,247.20 903.49,298.60 905.12,298.60 906.74,247.03 908.37,298.51 910.00,298.51 911.63,298.51 913.26,298.51 914.88,298.51 916.51,298.51 918.14,298.51 919.77,298.51 921.40,298.51 923.02,298.51 924.65,298.51 926.28,298.51 927.91,298.51 929.53,298.51 931.16,298.51 932.79,298.51 934.42,298.51 936.05,298.51 937.67,298.51 939.30,298.51 940.93,298.51 942.56,298.51 944.19,298.51 945.81,298.51 947.44,298.51 949.07,298.51 950.70,298.47 952.33,298.51 953.95,298.51 955.58,298.47 957.21,298.51 958.84,298.47 960.47,298.51 962.09,298.43 963.72,298.56 965.35,298.43 966.98,298.43 968.60,298.43 970.23,298.43 971.86,298.43 973.49,298.43 975.12,298.43 976.74,298.43 978.37,298.43 980.00,298.43"/>
  <circle cx="70.00" cy="50.00" r="2.5" fill="#2563eb"/>
  <circle cx="71.63" cy="50.12" r="2.5" fill="#2563eb"/>
  <circle cx="73.26" cy="50.17" r="2.5" fill="#2563eb"/>
  <circle cx="74.88" cy="50.46" r="2.5" fill="#2563eb"/>
  <circle cx="76.51" cy="50.00" r="2.5" fill="#2563eb"/>
  <circle cx="78.14" cy="266.90" r="2.5" fill="#2563eb"/>
  <circle cx="79.77" cy="50.12" r="2.5" fill="#2563eb"/>
  <circle cx="81.40" cy="50.08" r="2.5" fill="#2563eb"/>
  <circle cx="83.02" cy="177.46" r="2.5" fill="#2563eb"/>
  <circle cx="84.65" cy="211.58" r="2.5" fill="#2563eb"/>
  <circle cx="86.28" cy="175.34" r="2.5" fill="#2563eb"/>
  <circle cx="87.91" cy="304.14" r="2.5" fill="#2563eb"/>
  <circle cx="89.53" cy="200.46" r="2.5" fill="#2563eb"/>
  <circle cx="91.16" cy="250.94" r="2.5" fill="#2563eb"/>
  <circle cx="92.79" cy="300.01" r="2.5" fill="#2563eb"/>
  <circle cx="94.42" cy="300.06" r="2.5" fill="#2563eb"/>
  <circle cx="96.05" cy="300.01" r="2.5" fill="#2563eb"/>
  <circle cx="97.67" cy="300.01" r="2.5" fill="#2563eb"/>
  <circle cx="99.30" cy="348.00" r="2.5" fill="#2563eb"/>
  <circle cx="100.93" cy="300.01" r="2.5" fill="#2563eb"/>
  <circle cx="102.56" cy="249.99" r="2.5" fill="#2563eb"/>
  <circle cx="104.19" cy="200.00" r="2.5" fill="#2563eb"/>
  <circle cx="105.81" cy="249.99" r="2.5" fill="#2563eb"/>
  <circle cx="107.44" cy="249.99" r="2.5" fill="#2563eb"/>
  <circle cx="109.07" cy="250.03" r="2.5" fill="#2563eb"/>
  <circle cx="110.70" cy="250.03" r="2.5" fill="#2563eb"/>
  <circle cx="112.33" cy="250.03" r="2.5" fill="#2563eb"/>
  <circle cx="113.95" cy="250.40" r="2.5" fill="#2563eb"/>
  <circle cx="115.58" cy="250.90" r="2.5" fill="#2563eb"/>
  <circle cx="117.21" cy="250.90" r="2.5" fill="#2563eb"/>
  <circle cx="118.84" cy="251.32" r="2.5" fill="#2563eb"/>
  <circle cx="120.47" cy="249.94" r="2.5" fill="#2563eb"/>
  <circle cx="122.09" cy="300.01" r="2.5" fill="#2563eb"/>
  <circle cx="123.72" cy="299.93" r="2.5" fill="#2563eb"/>
  <circle cx="125.35" cy="251.03" r="2.5" fill="#2563eb"/>
  <circle cx="126.98" cy="300.68" r="2.5" fill="#2563eb"/>
  <circle cx="128.60" cy="250.03" r="2.5" fill="#2563eb"/>
  <circle cx="130.23" cy="200.00" r="2.5" fill="#2563eb"/>
  <circle cx="131.86" cy="249.99" r="2.5" fill="#2563eb"/>
  <circle cx="133.49" cy="250.03" r="2.5" fill="#2563eb"/>
  <circle cx="135.12" cy="250.03" r="2.5" fill="#2563eb"/>
  <circle cx="136.74" cy="250.03" r="2.5" fill="#2563eb"/>
  <circle cx="138.37" cy="300.01" r="2.5" fill="#2563eb"/>
  <circle cx="140.00" cy="200.04" r="2.5" fill="#2563eb"/>
  <circle cx="141.63" cy="250.03" r="2.5" fill="#2563eb"/>
  <circle cx="143.26" cy="250.03" r="2.5" fill="#2563eb"/>
  <circle cx="144.88" cy="250.03" r="2.5" fill="#2563eb"/>
  <circle cx="146.51" cy="249.90" r="2.5" fill="#2563eb"/>
  <circle cx="148.14" cy="250.03" r="2.5" fill="#2563eb"/>
  <circle cx="149.77" cy="250.03" r="2.5" fill="#2563eb"/>
  <circle cx="151.40" cy="250.94" r="2.5" fill="#2563eb"/>
  <circle cx="153.02" cy="250.44" r="2.5" fill="#2563eb"/>
  <circle cx="154.65" cy="250.03" r="2.5" fill="#2563eb"/>
  <circle cx="156.28" cy="250.03" r="2.5" fill="#2563eb"/>
  <circle cx="157.91" cy="300.47" r="2.5" fill="#2563eb"/>
  <circle cx="159.53" cy="300.01" r="2.5" fill="#2563eb"/>
  <circle cx="161.16" cy="300.43" r="2.5" fill="#2563eb"/>
  <circle cx="162.79" cy="250.03" r="2.5" fill="#2563eb"/>
  <circle cx="164.42" cy="249.99" r="2.5" fill="#2563eb"/>
  <circle cx="166.05" cy="300.43" r="2.5" fill="#2563eb"/>
  <circle cx="167.67" cy="249.90" r="2.5" fill="#2563eb"/>
  <circle cx="169.30" cy="249.99" r="2.5" fill="#2563eb"/>
  <circle cx="170.93" cy="249.99" r="2.5" fill="#2563eb"/>
  <circle cx="172.56" cy="200.04" r="2.5" fill="#2563eb"/>
  <circle cx="174.19" cy="300.01" r="2.5" fill="#2563eb"/>
  <circle cx="175.81" cy="300.01" r="2.5" fill="#2563eb"/>
  <circle cx="177.44" cy="300.01" r="2.5" fill="#2563eb"/>
  <circle cx="179.07" cy="249.90" r="2.5" fill="#2563eb"/>
  <circle cx="180.70" cy="300.01" r="2.5" fill="#2563eb"/>
  <circle cx="182.33" cy="250.03" r="2.5" fill="#2563eb"/>
  <circle cx="183.95" cy="249.99" r="2.5" fill="#2563eb"/>
  <circle cx="185.58" cy="199.96" r="2.5" fill="#2563eb"/>
  <circle cx="187.21" cy="300.01" r="2.5" fill="#2563eb"/>
  <circle cx="188.84" cy="200.00" r="2.5" fill="#2563eb"/>
  <circle cx="190.47" cy="250.36" r="2.5" fill="#2563eb"/>
  <circle cx="192.09" cy="250.03" r="2.5" fill="#2563eb"/>
  <circle cx="193.72" cy="300.01" r="2.5" fill="#2563eb"/>
  <circle cx="195.35" cy="300.01" r="2.5" fill="#2563eb"/>
  <circle cx="196.98" cy="250.44" r="2.5" fill="#2563eb"/>
  <circle cx="198.60" cy="300.01" r="2.5" fill="#2563eb"/>
  <circle cx="200.23" cy="250.03" r="2.5" fill="#2563eb"/>
  <circle cx="201.86" cy="250.03" r="2.5" fill="#2563eb"/>
  <circle cx="203.49" cy="249.99" r="2.5" fill="#2563eb"/>
  <circle cx="205.12" cy="250.49" r="2.5" fill="#2563eb"/>
  <circle cx="206.74" cy="250.03" r="2.5" fill="#2563eb"/>
  <circle cx="208.37" cy="200.04" r="2.5" fill="#2563eb"/>
  <circle cx="210.00" cy="300.01" r="2.5" fill="#2563eb"/>
  <circle cx="211.63" cy="250.03" r="2.5" fill="#2563eb"/>
  <circle cx="213.26" cy="300.01" r="2.5" fill="#2563eb"/>
  <circle cx="214.88" cy="250.11" r="2.5" fill="#2563eb"/>
  <circle cx="216.51" cy="300.01" r="2.5" fill="#2563eb"/>
  <circle cx="218.14" cy="250.03" r="2.5" fill="#2563eb"/>
  <circle cx="219.77" cy="250.03" r="2.5" fill="#2563eb"/>
  <circle cx="221.40" cy="199.92" r="2.5" fill="#2563eb"/>
  <circle cx="223.02" cy="250.03" r="2.5" fill="#2563eb"/>
  <circle cx="224.65" cy="250.03" r="2.5" fill="#2563eb"/>
  <circle cx="226.28" cy="250.03" r="2.5" fill="#2563eb"/>
  <circle cx="227.91" cy="254.36" r="2.5" fill="#2563eb"/>
  <circle cx="229.53" cy="300.01" r="2.5" fill="#2563eb"/>
  <circle cx="231.16" cy="299.97" r="2.5" fill="#2563eb"/>
  <circle cx="232.79" cy="250.36" r="2.5" fill="#2563eb"/>
  <circle cx="234.42" cy="299.97" r="2.5" fill="#2563eb"/>
  <circle cx="236.05" cy="250.03" r="2.5" fill="#2563eb"/>
  <circle cx="237.67" cy="250.03" r="2.5" fill="#2563eb"/>
  <circle cx="239.30" cy="250.03" r="2.5" fill="#2563eb"/>
  <circle cx="240.93" cy="250.03" r="2.5" fill="#2563eb"/>
  <circle cx="242.56" cy="249.99" r="2.5" fill="#2563eb"/>
  <circle cx="244.19" cy="200.00" r="2.5" fill="#2563eb"/>
  <circle cx="245.81" cy="299.93" r="2.5" fill="#2563eb"/>
  <circle cx="247.44" cy="300.01" r="2.5" fill="#2563eb"/>
  <circle cx="249.07" cy="299.97" r="2.5" fill="#2563eb"/>
  <circle cx="250.70" cy="249.94" r="2.5" fill="#2563eb"/>
  <circle cx="252.33" cy="249.99" r="2.5" fill="#2563eb"/>
  <circle cx="253.95" cy="249.82" r="2.5" fill="#2563eb"/>
  <circle cx="255.58" cy="249.94" r="2.5" fill="#2563eb"/>
  <circle cx="257.21" cy="250.28" r="2.5" fill="#2563eb"/>
  <circle cx="258.84" cy="207.00" r="2.5" fill="#2563eb"/>
  <circle cx="260.47" cy="250.03" r="2.5" fill="#2563eb"/>
  <circle cx="262.09" cy="250.32" r="2.5" fill="#2563eb"/>
  <circle cx="263.72" cy="250.40" r="2.5" fill="#2563eb"/>
  <circle cx="265.35" cy="300.93" r="2.5" fill="#2563eb"/>
  <circle cx="266.98" cy="300.01" r="2.5" fill="#2563eb"/>
  <circle cx="268.60" cy="300.10" r="2.5" fill="#2563eb"/>
  <circle cx="270.23" cy="249.94" r="2.5" fill="#2563eb"/>
  <circle cx="271.86" cy="249.99" r="2.5" fill="#2563eb"/>
  <circle cx="273.49" cy="250.07" r="2.5" fill="#2563eb"/>
  <circle cx="275.12" cy="249.99" r="2.5" fill="#2563eb"/>
  <circle cx="276.74" cy="250.03" r="2.5" fill="#2563eb"/>
  <circle cx="278.37" cy="249.94" r="2.5" fill="#2563eb"/>
  <circle cx="280.00" cy="200.00" r="2.5" fill="#2563eb"/>
  <circle cx="281.63" cy="300.39" r="2.5" fill="#2563eb"/>
  <circle cx="283.26" cy="300.01" r="2.5" fill="#2563eb"/>
  <circle cx="284.88" cy="300.01" r="2.5" fill="#2563eb"/>
  <circle cx="286.51" cy="250.44" r="2.5" fill="#2563eb"/>
  <circle cx="288.14" cy="300.39" r="2.5" fill="#2563eb"/>
  <circle cx="289.77" cy="249.86" r="2.5" fill="#2563eb"/>
  <circle cx="291.40" cy="250.11" r="2.5" fill="#2563eb"/>
  <circle cx="293.02" cy="201.46" r="2.5" fill="#2563eb"/>
  <circle cx="294.65" cy="300.01" r="2.5" fill="#2563eb"/>
  <circle cx="296.28" cy="200.83" r="2.5" fill="#2563eb"/>
  <circle cx="297.91" cy="250.03" r="2.5" fill="#2563eb"/>
  <circle cx="299.53" cy="249.99" r="2.5" fill="#2563eb"/>
  <circle cx="301.16" cy="300.26" r="2.5" fill="#2563eb"/>
  <circle cx="302.79" cy="300.01" r="2.5" fill="#2563eb"/>
  <circle cx="304.42" cy="300.01" r="2.5" fill="#2563eb"/>
  <circle cx="306.05" cy="250.03" r="2.5" fill="#2563eb"/>
  <circle cx="307.67" cy="250.03" r="2.5" fill="#2563eb"/>
  <circle cx="309.30" cy="250.03" r="2.5" fill="#2563eb"/>
  <circle cx="310.93" cy="250.03" r="2.5" fill="#2563eb"/>
  <circle cx="312.56" cy="249.99" r="2.5" fill="#2563eb"/>
  <circle cx="314.19" cy="250.03" r="2.5" fill="#2563eb"/>
  <circle cx="315.81" cy="200.00" r="2.5" fill="#2563eb"/>
  <circle cx="317.44" cy="300.26" r="2.5" fill="#2563eb"/>
  <circle cx="319.07" cy="249.99" r="2.5" fill="#2563eb"/>
  <circle cx="320.70" cy="300.01" r="2.5" fill="#2563eb"/>
  <circle cx="322.33" cy="249.94" r="2.5" fill="#2563eb"/>
  <circle cx="323.95" cy="250.03" r="2.5" fill="#2563eb"/>
  <circle cx="325.58" cy="250.03" r="2.5" fill="#2563eb"/>
  <circle cx="327.21" cy="250.03" r="2.5" fill="#2563eb"/>
  <circle cx="328.84" cy="200.04" r="2.5" fill="#2563eb"/>
  <circle cx="330.47" cy="300.01" r="2.5" fill="#2563eb"/>
  <circle cx="332.09" cy="249.90" r="2.5" fill="#2563eb"/>
  <circle cx="333.72" cy="300.01" r="2.5" fill="#2563eb"/>
  <circle cx="335.35" cy="300.01" r="2.5" fill="#2563eb"/>
  <circle cx="336.98" cy="300.06" r="2.5" fill="#2563eb"/>
  <circle cx="338.60" cy="300.01" r="2.5" fill="#2563eb"/>
  <circle cx="340.23" cy="300.01" r="2.5" fill="#2563eb"/>
  <circle cx="341.86" cy="243.95" r="2.5" fill="#2563eb"/>
  <circle cx="343.49" cy="249.94" r="2.5" fill="#2563eb"/>
  <circle cx="345.12" cy="299.97" r="2.5" fill="#2563eb"/>
  <circle cx="346.74" cy="300.01" r="2.5" fill="#2563eb"/>
  <circle cx="348.37" cy="300.01" r="2.5" fill="#2563eb"/>
  <circle cx="350.00" cy="250.03" r="2.5" fill="#2563eb"/>
  <circle cx="351.63" cy="300.01" r="2.5" fill="#2563eb"/>
  <circle cx="353.26" cy="300.01" r="2.5" fill="#2563eb"/>
  <circle cx="354.88" cy="299.97" r="2.5" fill="#2563eb"/>
  <circle cx="356.51" cy="249.99" r="2.5" fill="#2563eb"/>
  <circle cx="358.14" cy="300.01" r="2.5" fill="#2563eb"/>
  <circle cx="359.77" cy="299.93" r="2.5" fill="#2563eb"/>
  <circle cx="361.40" cy="300.01" r="2.5" fill="#2563eb"/>
  <circle cx="363.02" cy="299.93" r="2.5" fill="#2563eb"/>
  <circle cx="364.65" cy="300.01" r="2.5" fill="#2563eb"/>
  <circle cx="366.28" cy="300.01" r="2.5" fill="#2563eb"/>
  <circle cx="367.91" cy="299.89" r="2.5" fill="#2563eb"/>
  <circle cx="369.53" cy="299.97" r="2.5" fill="#2563eb"/>
  <circle cx="371.16" cy="250.03" r="2.5" fill="#2563eb"/>
  <circle cx="372.79" cy="299.93" r="2.5" fill="#2563eb"/>
  <circle cx="374.42" cy="299.89" r="2.5" fill="#2563eb"/>
  <circle cx="376.05" cy="299.97" r="2.5" fill="#2563eb"/>
  <circle cx="377.67" cy="249.94" r="2.5" fill="#2563eb"/>
  <circle cx="379.30" cy="300.01" r="2.5" fill="#2563eb"/>
  <circle cx="380.93" cy="300.01" r="2.5" fill="#2563eb"/>
  <circle cx="382.56" cy="299.97" r="2.5" fill="#2563eb"/>
  <circle cx="384.19" cy="249.99" r="2.5" fill="#2563eb"/>
  <circle cx="385.81" cy="299.97" r="2.5" fill="#2563eb"/>
  <circle cx="387.44" cy="299.97" r="2.5" fill="#2563eb"/>
  <circle cx="389.07" cy="300.06" r="2.5" fill="#2563eb"/>
  <circle cx="390.70" cy="300.06" r="2.5" fill="#2563eb"/>
  <circle cx="392.33" cy="299.93" r="2.5" fill="#2563eb"/>
  <circle cx="393.95" cy="300.01" r="2.5" fill="#2563eb"/>
  <circle cx="395.58" cy="300.01" r="2.5" fill="#2563eb"/>
  <circle cx="397.21" cy="299.93" r="2.5" fill="#2563eb"/>
  <circle cx="398.84" cy="300.01" r="2.5" fill="#2563eb"/>
  <circle cx="400.47" cy="300.01" r="2.5" fill="#2563eb"/>
  <circle cx="402.09" cy="299.97" r="2.5" fill="#2563eb"/>
  <circle cx="403.72" cy="300.01" r="2.5" fill="#2563eb"/>
  <circle cx="405.35" cy="300.01" r="2.5" fill="#2563eb"/>
  <circle cx="406.98" cy="300.01" r="2.5" fill="#2563eb"/>
  <circle cx="408.60" cy="300.01" r="2.5" fill="#2563eb"/>
  <circle cx="410.23" cy="249.86" r="2.5" fill="#2563eb"/>
  <circle cx="411.86" cy="300.01" r="2.5" fill="#2563eb"/>
  <circle cx="413.49" cy="300.10" r="2.5" fill="#2563eb"/>
  <circle cx="415.12" cy="299.93" r="2.5" fill="#2563eb"/>
  <circle cx="416.74" cy="300.01" r="2.5" fill="#2563eb"/>
  <circle cx="418.37" cy="299.93" r="2.5" fill="#2563eb"/>
  <circle cx="420.00" cy="300.01" r="2.5" fill="#2563eb"/>
  <circle cx="421.63" cy="300.01" r="2.5" fill="#2563eb"/>
  <circle cx="423.26" cy="300.01" r="2.5" fill="#2563eb"/>
  <circle cx="424.88" cy="300.01" r="2.5" fill="#2563eb"/>
  <circle cx="426.51" cy="300.01" r="2.5" fill="#2563eb"/>
  <circle cx="428.14" cy="299.97" r="2.5" fill="#2563eb"/>
  <circle cx="429.77" cy="300.01" r="2.5" fill="#2563eb"/>
  <circle cx="431.40" cy="300.01" r="2.5" fill="#2563eb"/>
  <circle cx="433.02" cy="300.01" r="2.5" fill="#2563eb"/>
  <circle cx="434.65" cy="300.01" r="2.5" fill="#2563eb"/>
  <circle cx="436.28" cy="250.03" r="2.5" fill="#2563eb"/>
  <circle cx="437.91" cy="300.01" r="2.5" fill="#2563eb"/>
  <circle cx="439.53" cy="300.01" r="2.5" fill="#2563eb"/>
  <circle cx="441.16" cy="299.97" r="2.5" fill="#2563eb"/>
  <circle cx="442.79" cy="300.01" r="2.5" fill="#2563eb"/>
  <circle cx="444.42" cy="300.01" r="2.5" fill="#2563eb"/>
  <circle cx="446.05" cy="299.97" r="2.5" fill="#2563eb"/>
  <circle cx="447.67" cy="299.97" r="2.5" fill="#2563eb"/>
  <circle cx="449.30" cy="300.01" r="2.5" fill="#2563eb"/>
  <circle cx="450.93" cy="299.97" r="2.5" fill="#2563eb"/>
  <circle cx="452.56" cy="300.01" r="2.5" fill="#2563eb"/>
  <circle cx="454.19" cy="299.93" r="2.5" fill="#2563eb"/>
  <circle cx="455.81" cy="300.01" r="2.5" fill="#2563eb"/>
  <circle cx="457.44" cy="250.03" r="2.5" fill="#2563eb"/>
  <circle cx="459.07" cy="300.01" r="2.5" fill="#2563eb"/>
  <circle cx="460.70" cy="300.01" r="2.5" fill="#2563eb"/>
  <circle cx="462.33" cy="300.01" r="2.5" fill="#2563eb"/>
  <circle cx="463.95" cy="300.01" r="2.5" fill="#2563eb"/>
  <circle cx="465.58" cy="300.01" r="2.5" fill="#2563eb"/>
  <circle cx="467.21" cy="299.89" r="2.5" fill="#2563eb"/>
  <circle cx="468.84" cy="300.01" r="2.5" fill="#2563eb"/>
  <circle cx="470.47" cy="300.01" r="2.5" fill="#2563eb"/>
  <circle cx="472.09" cy="250.07" r="2.5" fill="#2563eb"/>
  <circle cx="473.72" cy="300.01" r="2.5" fill="#2563eb"/>
  <circle cx="475.35" cy="299.93" r="2.5" fill="#2563eb"/>
  <circle cx="476.98" cy="300.01" r="2.5" fill="#2563eb"/>
  <circle cx="478.60" cy="299.97" r="2.5" fill="#2563eb"/>
  <circle cx="480.23" cy="299.97" r="2.5" fill="#2563eb"/>
  <circle cx="481.86" cy="299.97" r="2.5" fill="#2563eb"/>
  <circle cx="483.49" cy="250.03" r="2.5" fill="#2563eb"/>
  <circle cx="485.12" cy="300.01" r="2.5" fill="#2563eb"/>
  <circle cx="486.74" cy="300.01" r="2.5" fill="#2563eb"/>
  <circle cx="488.37" cy="300.01" r="2.5" fill="#2563eb"/>
  <circle cx="490.00" cy="300.01" r="2.5" fill="#2563eb"/>
  <circle cx="491.63" cy="299.97" r="2.5" fill="#2563eb"/>
  <circle cx="493.26" cy="300.01" r="2.5" fill="#2563eb"/>
  <circle cx="494.88" cy="299.97" r="2.5" fill="#2563eb"/>
  <circle cx="496.51" cy="300.01" r="2.5" fill="#2563eb"/>
  <circle cx="498.14" cy="299.97" r="2.5" fill="#2563eb"/>
  <circle cx="499.77" cy="249.90" r="2.5" fill="#2563eb"/>
  <circle cx="501.40" cy="300.01" r="2.5" fill="#2563eb"/>
  <circle cx="503.02" cy="300.01" r="2.5" fill="#2563eb"/>
  <circle cx="504.65" cy="299.89" r="2.5" fill="#2563eb"/>
  <circle cx="506.28" cy="299.97" r="2.5" fill="#2563eb"/>
  <circle cx="507.91" cy="299.97" r="2.5" fill="#2563eb"/>
  <circle cx="509.53" cy="249.99" r="2.5" fill="#2563eb"/>
  <circle cx="511.16" cy="299.97" r="2.5" fill="#2563eb"/>
  <circle cx="512.79" cy="299.89" r="2.5" fill="#2563eb"/>
  <circle cx="514.42" cy="300.01" r="2.5" fill="#2563eb"/>
  <circle cx="516.05" cy="299.97" r="2.5" fill="#2563eb"/>
  <circle cx="517.67" cy="299.97" r="2.5" fill="#2563eb"/>
  <circle cx="519.30" cy="300.01" r="2.5" fill="#2563eb"/>
  <circle cx="520.93" cy="299.97" r="2.5" fill="#2563eb"/>
  <circle cx="522.56" cy="249.99" r="2.5" fill="#2563eb"/>
  <circle cx="524.19" cy="299.97" r="2.5" fill="#2563eb"/>
  <circle cx="525.81" cy="299.97" r="2.5" fill="#2563eb"/>
  <circle cx="527.44" cy="300.06" r="2.5" fill="#2563eb"/>
  <circle cx="529.07" cy="300.06" r="2.5" fill="#2563eb"/>
  <circle cx="530.70" cy="249.94" r="2.5" fill="#2563eb"/>
  <circle cx="532.33" cy="300.01" r="2.5" fill="#2563eb"/>
  <circle cx="533.95" cy="299.93" r="2.5" fill="#2563eb"/>
  <circle cx="535.58" cy="300.01" r="2.5" fill="#2563eb"/>
  <circle cx="537.21" cy="300.01" r="2.5" fill="#2563eb"/>
  <circle cx="538.84" cy="249.99" r="2.5" fill="#2563eb"/>
  <circle cx="540.47" cy="300.01" r="2.5" fill="#2563eb"/>
  <circle cx="542.09" cy="300.01" r="2.5" fill="#2563eb"/>
  <circle cx="543.72" cy="300.01" r="2.5" fill="#2563eb"/>
  <circle cx="545.35" cy="299.93" r="2.5" fill="#2563eb"/>
  <circle cx="546.98" cy="299.93" r="2.5" fill="#2563eb"/>
  <circle cx="548.60" cy="300.01" r="2.5" fill="#2563eb"/>
  <circle cx="550.23" cy="300.01" r="2.5" fill="#2563eb"/>
  <circle cx="551.86" cy="249.94" r="2.5" fill="#2563eb"/>
  <circle cx="553.49" cy="299.97" r="2.5" fill="#2563eb"/>
  <circle cx="555.12" cy="299.97" r="2.5" fill="#2563eb"/>
  <circle cx="556.74" cy="300.01" r="2.5" fill="#2563eb"/>
  <circle cx="558.37" cy="300.01" r="2.5" fill="#2563eb"/>
  <circle cx="560.00" cy="300.01" r="2.5" fill="#2563eb"/>
  <circle cx="561.63" cy="249.99" r="2.5" fill="#2563eb"/>
  <circle cx="563.26" cy="300.01" r="2.5" fill="#2563eb"/>
  <circle cx="564.88" cy="300.01" r="2.5" fill="#2563eb"/>
  <circle cx="566.51" cy="300.01" r="2.5" fill="#2563eb"/>
  <circle cx="568.14" cy="250.03" r="2.5" fill="#2563eb"/>
  <circle cx="569.77" cy="300.01" r="2.5" fill="#2563eb"/>
  <circle cx="571.40" cy="300.01" r="2.5" fill="#2563eb"/>
  <circle cx="573.02" cy="300.01" r="2.5" fill="#2563eb"/>
  <circle cx="574.65" cy="299.97" r="2.5" fill="#2563eb"/>
  <circle cx="576.28" cy="300.01" r="2.5" fill="#2563eb"/>
  <circle cx="577.91" cy="300.01" r="2.5" fill="#2563eb"/>
  <circle cx="579.53" cy="299.97" r="2.5" fill="#2563eb"/>
  <circle cx="581.16" cy="299.97" r="2.5" fill="#2563eb"/>
  <circle cx="582.79" cy="300.01" r="2.5" fill="#2563eb"/>
  <circle cx="584.42" cy="300.01" r="2.5" fill="#2563eb"/>
  <circle cx="586.05" cy="299.97" r="2.5" fill="#2563eb"/>
  <circle cx="587.67" cy="299.93" r="2.5" fill="#2563eb"/>
  <circle cx="589.30" cy="300.01" r="2.5" fill="#2563eb"/>
  <circle cx="590.93" cy="300.06" r="2.5" fill="#2563eb"/>
  <circle cx="592.56" cy="299.97" r="2.5" fill="#2563eb"/>
  <circle cx="594.19" cy="300.01" r="2.5" fill="#2563eb"/>
  <circle cx="595.81" cy="250.03" r="2.5" fill="#2563eb"/>
  <circle cx="597.44" cy="250.03" r="2.5" fill="#2563eb"/>
  <circle cx="599.07" cy="299.93" r="2.5" fill="#2563eb"/>
  <circle cx="600.70" cy="299.97" r="2.5" fill="#2563eb"/>
  <circle cx="602.33" cy="300.01" r="2.5" fill="#2563eb"/>
  <circle cx="603.95" cy="300.01" r="2.5" fill="#2563eb"/>
  <circle cx="605.58" cy="300.06" r="2.5" fill="#2563eb"/>
  <circle cx="607.21" cy="300.01" r="2.5" fill="#2563eb"/>
  <circle cx="608.84" cy="299.93" r="2.5" fill="#2563eb"/>
  <circle cx="610.47" cy="300.01" r="2.5" fill="#2563eb"/>
  <circle cx="612.09" cy="300.01" r="2.5" fill="#2563eb"/>
  <circle cx="613.72" cy="299.97" r="2.5" fill="#2563eb"/>
  <circle cx="615.35" cy="299.97" r="2.5" fill="#2563eb"/>
  <circle cx="616.98" cy="300.01" r="2.5" fill="#2563eb"/>
  <circle cx="618.60" cy="250.03" r="2.5" fill="#2563eb"/>
  <circle cx="620.23" cy="300.01" r="2.5" fill="#2563eb"/>
  <circle cx="621.86" cy="300.01" r="2.5" fill="#2563eb"/>
  <circle cx="623.49" cy="300.01" r="2.5" fill="#2563eb"/>
  <circle cx="625.12" cy="299.97" r="2.5" fill="#2563eb"/>
  <circle cx="626.74" cy="300.01" r="2.5" fill="#2563eb"/>
  <circle cx="628.37" cy="299.97" r="2.5" fill="#2563eb"/>
  <circle cx="630.00" cy="300.01" r="2.5" fill="#2563eb"/>
  <circle cx="631.63" cy="299.97" r="2.5" fill="#2563eb"/>
  <circle cx="633.26" cy="299.97" r="2.5" fill="#2563eb"/>
  <circle cx="634.88" cy="299.93" r="2.5" fill="#2563eb"/>
  <circle cx="636.51" cy="300.01" r="2.5" fill="#2563eb"/>
  <circle cx="638.14" cy="300.01" r="2.5" fill="#2563eb"/>
  <circle cx="639.77" cy="299.89" r="2.5" fill="#2563eb"/>
  <circle cx="641.40" cy="299.97" r="2.5" fill="#2563eb"/>
  <circle cx="643.02" cy="299.97" r="2.5" fill="#2563eb"/>
  <circle cx="644.65" cy="300.06" r="2.5" fill="#2563eb"/>
  <circle cx="646.28" cy="249.90" r="2.5" fill="#2563eb"/>
  <circle cx="647.91" cy="299.89" r="2.5" fill="#2563eb"/>
  <circle cx="649.53" cy="300.01" r="2.5" fill="#2563eb"/>
  <circle cx="651.16" cy="299.97" r="2.5" fill="#2563eb"/>
  <circle cx="652.79" cy="299.97" r="2.5" fill="#2563eb"/>
  <circle cx="654.42" cy="299.97" r="2.5" fill="#2563eb"/>
  <circle cx="656.05" cy="300.01" r="2.5" fill="#2563eb"/>
  <circle cx="657.67" cy="300.01" r="2.5" fill="#2563eb"/>
  <circle cx="659.30" cy="299.97" r="2.5" fill="#2563eb"/>
  <circle cx="660.93" cy="299.97" r="2.5" fill="#2563eb"/>
  <circle cx="662.56" cy="299.97" r="2.5" fill="#2563eb"/>
  <circle cx="664.19" cy="250.03" r="2.5" fill="#2563eb"/>
  <circle cx="665.81" cy="299.93" r="2.5" fill="#2563eb"/>
  <circle cx="667.44" cy="300.01" r="2.5" fill="#2563eb"/>
  <circle cx="669.07" cy="300.01" r="2.5" fill="#2563eb"/>
  <circle cx="670.70" cy="299.93" r="2.5" fill="#2563eb"/>
  <circle cx="672.33" cy="300.01" r="2.5" fill="#2563eb"/>
  <circle cx="673.95" cy="300.01" r="2.5" fill="#2563eb"/>
  <circle cx="675.58" cy="299.97" r="2.5" fill="#2563eb"/>
  <circle cx="677.21" cy="300.01" r="2.5" fill="#2563eb"/>
  <circle cx="678.84" cy="300.01" r="2.5" fill="#2563eb"/>
  <circle cx="680.47" cy="300.06" r="2.5" fill="#2563eb"/>
  <circle cx="682.09" cy="300.01" r="2.5" fill="#2563eb"/>
  <circle cx="683.72" cy="299.97" r="2.5" fill="#2563eb"/>
  <circle cx="685.35" cy="299.89" r="2.5" fill="#2563eb"/>
  <circle cx="686.98" cy="300.01" r="2.5" fill="#2563eb"/>
  <circle cx="688.60" cy="300.01" r="2.5" fill="#2563eb"/>
  <circle cx="690.23" cy="249.94" r="2.5" fill="#2563eb"/>
  <circle cx="691.86" cy="249.94" r="2.5" fill="#2563eb"/>
  <circle cx="693.49" cy="300.01" r="2.5" fill="#2563eb"/>
  <circle cx="695.12" cy="300.01" r="2.5" fill="#2563eb"/>
  <circle cx="696.74" cy="300.01" r="2.5" fill="#2563eb"/>
  <circle cx="698.37" cy="300.01" r="2.5" fill="#2563eb"/>
  <circle cx="700.00" cy="299.97" r="2.5" fill="#2563eb"/>
  <circle cx="701.63" cy="250.03" r="2.5" fill="#2563eb"/>
  <circle cx="703.26" cy="300.01" r="2.5" fill="#2563eb"/>
  <circle cx="704.88" cy="300.01" r="2.5" fill="#2563eb"/>
  <circle cx="706.51" cy="300.01" r="2.5" fill="#2563eb"/>
  <circle cx="708.14" cy="300.01" r="2.5" fill="#2563eb"/>
  <circle cx="709.77" cy="250.03" r="2.5" fill="#2563eb"/>
  <circle cx="711.40" cy="249.99" r="2.5" fill="#2563eb"/>
  <circle cx="713.02" cy="300.01" r="2.5" fill="#2563eb"/>
  <circle cx="714.65" cy="299.97" r="2.5" fill="#2563eb"/>
  <circle cx="716.28" cy="300.01" r="2.5" fill="#2563eb"/>
  <circle cx="717.91" cy="299.97" r="2.5" fill="#2563eb"/>
  <circle cx="719.53" cy="300.01" r="2.5" fill="#2563eb"/>
  <circle cx="721.16" cy="299.97" r="2.5" fill="#2563eb"/>
  <circle cx="722.79" cy="299.97" r="2.5" fill="#2563eb"/>
  <circle cx="724.42" cy="299.97" r="2.5" fill="#2563eb"/>
  <circle cx="726.05" cy="300.06" r="2.5" fill="#2563eb"/>
  <circle cx="727.67" cy="249.99" r="2.5" fill="#2563eb"/>
  <circle cx="729.30" cy="300.01" r="2.5" fill="#2563eb"/>
  <circle cx="730.93" cy="250.03" r="2.5" fill="#2563eb"/>
  <circle cx="732.56" cy="249.94" r="2.5" fill="#2563eb"/>
  <circle cx="734.19" cy="249.99" r="2.5" fill="#2563eb"/>
  <circle cx="735.81" cy="300.01" r="2.5" fill="#2563eb"/>
  <circle cx="737.44" cy="300.06" r="2.5" fill="#2563eb"/>
  <circle cx="739.07" cy="300.01" r="2.5" fill="#2563eb"/>
  <circle cx="740.70" cy="299.97" r="2.5" fill="#2563eb"/>
  <circle cx="742.33" cy="299.97" r="2.5" fill="#2563eb"/>
  <circle cx="743.95" cy="300.01" r="2.5" fill="#2563eb"/>
  <circle cx="745.58" cy="299.93" r="2.5" fill="#2563eb"/>
  <circle cx="747.21" cy="299.89" r="2.5" fill="#2563eb"/>
  <circle cx="748.84" cy="299.89" r="2.5" fill="#2563eb"/>
  <circle cx="750.47" cy="299.89" r="2.5" fill="#2563eb"/>
  <circle cx="752.09" cy="299.89" r="2.5" fill="#2563eb"/>
  <circle cx="753.72" cy="299.85" r="2.5" fill="#2563eb"/>
  <circle cx="755.35" cy="299.85" r="2.5" fill="#2563eb"/>
  <circle cx="756.98" cy="299.89" r="2.5" fill="#2563eb"/>
  <circle cx="758.60" cy="299.81" r="2.5" fill="#2563eb"/>
  <circle cx="760.23" cy="299.81" r="2.5" fill="#2563eb"/>
  <circle cx="761.86" cy="299.81" r="2.5" fill="#2563eb"/>
  <circle cx="763.49" cy="299.76" r="2.5" fill="#2563eb"/>
  <circle cx="765.12" cy="299.76" r="2.5" fill="#2563eb"/>
  <circle cx="766.74" cy="299.76" r="2.5" fill="#2563eb"/>
  <circle cx="768.37" cy="299.72" r="2.5" fill="#2563eb"/>
  <circle cx="770.00" cy="299.68" r="2.5" fill="#2563eb"/>
  <circle cx="771.63" cy="299.60" r="2.5" fill="#2563eb"/>
  <circle cx="773.26" cy="299.60" r="2.5" fill="#2563eb"/>
  <circle cx="774.88" cy="299.60" r="2.5" fill="#2563eb"/>
  <circle cx="776.51" cy="299.56" r="2.5" fill="#2563eb"/>
  <circle cx="778.14" cy="299.47" r="2.5" fill="#2563eb"/>
  <circle cx="779.77" cy="299.43" r="2.5" fill="#2563eb"/>
  <circle cx="781.40" cy="299.43" r="2.5" fill="#2563eb"/>
  <circle cx="783.02" cy="299.39" r="2.5" fill="#2563eb"/>
  <circle cx="784.65" cy="299.47" r="2.5" fill="#2563eb"/>
  <circle cx="786.28" cy="259.82" r="2.5" fill="#2563eb"/>
  <circle cx="787.91" cy="338.96" r="2.5" fill="#2563eb"/>
  <circle cx="789.53" cy="299.31" r="2.5" fill="#2563eb"/>
  <circle cx="791.16" cy="299.31" r="2.5" fill="#2563eb"/>
  <circle cx="792.79" cy="299.26" r="2.5" fill="#2563eb"/>
  <circle cx="794.42" cy="299.68" r="2.5" fill="#2563eb"/>
  <circle cx="796.05" cy="299.68" r="2.5" fill="#2563eb"/>
  <circle cx="797.67" cy="299.68" r="2.5" fill="#2563eb"/>
  <circle cx="799.30" cy="299.64" r="2.5" fill="#2563eb"/>
  <circle cx="800.93" cy="299.14" r="2.5" fill="#2563eb"/>
  <circle cx="802.56" cy="299.14" r="2.5" fill="#2563eb"/>
  <circle cx="804.19" cy="299.10" r="2.5" fill="#2563eb"/>
  <circle cx="805.81" cy="299.10" r="2.5" fill="#2563eb"/>
  <circle cx="807.44" cy="299.10" r="2.5" fill="#2563eb"/>
  <circle cx="809.07" cy="248.07" r="2.5" fill="#2563eb"/>
  <circle cx="810.70" cy="299.06" r="2.5" fill="#2563eb"/>
  <circle cx="812.33" cy="299.06" r="2.5" fill="#2563eb"/>
  <circle cx="813.95" cy="299.06" r="2.5" fill="#2563eb"/>
  <circle cx="815.58" cy="299.06" r="2.5" fill="#2563eb"/>
  <circle cx="817.21" cy="299.06" r="2.5" fill="#2563eb"/>
  <circle cx="818.84" cy="298.97" r="2.5" fill="#2563eb"/>
  <circle cx="820.47" cy="298.97" r="2.5" fill="#2563eb"/>
  <circle cx="822.09" cy="298.93" r="2.5" fill="#2563eb"/>
  <circle cx="823.72" cy="298.97" r="2.5" fill="#2563eb"/>
  <circle cx="825.35" cy="298.93" r="2.5" fill="#2563eb"/>
  <circle cx="826.98" cy="298.89" r="2.5" fill="#2563eb"/>
  <circle cx="828.60" cy="298.89" r="2.5" fill="#2563eb"/>
  <circle cx="830.23" cy="298.89" r="2.5" fill="#2563eb"/>
  <circle cx="831.86" cy="298.89" r="2.5" fill="#2563eb"/>
  <circle cx="833.49" cy="247.78" r="2.5" fill="#2563eb"/>
  <circle cx="835.12" cy="298.89" r="2.5" fill="#2563eb"/>
  <circle cx="836.74" cy="298.89" r="2.5" fill="#2563eb"/>
  <circle cx="838.37" cy="298.85" r="2.5" fill="#2563eb"/>
  <circle cx="840.00" cy="298.85" r="2.5" fill="#2563eb"/>
  <circle cx="841.63" cy="298.81" r="2.5" fill="#2563eb"/>
  <circle cx="843.26" cy="298.81" r="2.5" fill="#2563eb"/>
  <circle cx="844.88" cy="298.81" r="2.5" fill="#2563eb"/>
  <circle cx="846.51" cy="298.81" r="2.5" fill="#2563eb"/>
  <circle cx="848.14" cy="298.81" r="2.5" fill="#2563eb"/>
  <circle cx="849.77" cy="298.81" r="2.5" fill="#2563eb"/>
  <circle cx="851.40" cy="298.81" r="2.5" fill="#2563eb"/>
  <circle cx="853.02" cy="298.81" r="2.5" fill="#2563eb"/>
  <circle cx="854.65" cy="298.81" r="2.5" fill="#2563eb"/>
  <circle cx="856.28" cy="298.72" r="2.5" fill="#2563eb"/>
  <circle cx="857.91" cy="247.45" r="2.5" fill="#2563eb"/>
  <circle cx="859.53" cy="247.45" r="2.5" fill="#2563eb"/>
  <circle cx="861.16" cy="298.72" r="2.5" fill="#2563eb"/>
  <circle cx="862.79" cy="298.72" r="2.5" fill="#2563eb"/>
  <circle cx="864.42" cy="298.72" r="2.5" fill="#2563eb"/>
  <circle cx="866.05" cy="298.72" r="2.5" fill="#2563eb"/>
  <circle cx="867.67" cy="298.72" r="2.5" fill="#2563eb"/>
  <circle cx="869.30" cy="298.72" r="2.5" fill="#2563eb"/>
  <circle cx="870.93" cy="247.36" r="2.5" fill="#2563eb"/>
  <circle cx="872.56" cy="298.68" r="2.5" fill="#2563eb"/>
  <circle cx="874.19" cy="247.36" r="2.5" fill="#2563eb"/>
  <circle cx="875.81" cy="247.36" r="2.5" fill="#2563eb"/>
  <circle cx="877.44" cy="247.36" r="2.5" fill="#2563eb"/>
  <circle cx="879.07" cy="298.68" r="2.5" fill="#2563eb"/>
  <circle cx="880.70" cy="298.68" r="2.5" fill="#2563eb"/>
  <circle cx="882.33" cy="298.68" r="2.5" fill="#2563eb"/>
  <circle cx="883.95" cy="298.68" r="2.5" fill="#2563eb"/>
  <circle cx="885.58" cy="298.68" r="2.5" fill="#2563eb"/>
  <circle cx="887.21" cy="341.67" r="2.5" fill="#2563eb"/>
  <circle cx="888.84" cy="307.01" r="2.5" fill="#2563eb"/>
  <circle cx="890.47" cy="298.68" r="2.5" fill="#2563eb"/>
  <circle cx="892.09" cy="298.68" r="2.5" fill="#2563eb"/>
  <circle cx="893.72" cy="298.68" r="2.5" fill="#2563eb"/>
  <circle cx="895.35" cy="247.36" r="2.5" fill="#2563eb"/>
  <circle cx="896.98" cy="298.64" r="2.5" fill="#2563eb"/>
  <circle cx="898.60" cy="247.36" r="2.5" fill="#2563eb"/>
  <circle cx="900.23" cy="247.28" r="2.5" fill="#2563eb"/>
  <circle cx="901.86" cy="247.20" r="2.5" fill="#2563eb"/>
  <circle cx="903.49" cy="298.60" r="2.5" fill="#2563eb"/>
  <circle cx="905.12" cy="298.60" r="2.5" fill="#2563eb"/>
  <circle cx="906.74" cy="247.03" r="2.5" fill="#2563eb"/>
  <circle cx="908.37" cy="298.51" r="2.5" fill="#2563eb"/>
  <circle cx="910.00" cy="298.51" r="2.5" fill="#2563eb"/>
  <circle cx="911.63" cy="298.51" r="2.5" fill="#2563eb"/>
  <circle cx="913.26" cy="298.51" r="2.5" fill="#2563eb"/>
  <circle cx="914.88" cy="298.51" r="2.5" fill="#2563eb"/>
  <circle cx="916.51" cy="298.51" r="2.5" fill="#2563eb"/>
  <circle cx="918.14" cy="298.51" r="2.5" fill="#2563eb"/>
  <circle cx="919.77" cy="298.51" r="2.5" fill="#2563eb"/>
  <circle cx="921.40" cy="298.51" r="2.5" fill="#2563eb"/>
  <circle cx="923.02" cy="298.51" r="2.5" fill="#2563eb"/>
  <circle cx="924.65" cy="298.51" r="2.5" fill="#2563eb"/>
  <circle cx="926.28" cy="298.51" r="2.5" fill="#2563eb"/>
  <circle cx="927.91" cy="298.51" r="2.5" fill="#2563eb"/>
  <circle cx="929.53" cy="298.51" r="2.5" fill="#2563eb"/>
  <circle cx="931.16" cy="298.51" r="2.5" fill="#2563eb"/>
  <circle cx="932.79" cy="298.51" r="2.5" fill="#2563eb"/>
  <circle cx="934.42" cy="298.51" r="2.5" fill="#2563eb"/>
  <circle cx="936.05" cy="298.51" r="2.5" fill="#2563eb"/>
  <circle cx="937.67" cy="298.51" r="2.5" fill="#2563eb"/>
  <circle cx="939.30" cy="298.51" r="2.5" fill="#2563eb"/>
  <circle cx="940.93" cy="298.51" r="2.5" fill="#2563eb"/>
  <circle cx="942.56" cy="298.51" r="2.5" fill="#2563eb"/>
  <circle cx="944.19" cy="298.51" r="2.5" fill="#2563eb"/>
  <circle cx="945.81" cy="298.51" r="2.5" fill="#2563eb"/>
  <circle cx="947.44" cy="298.51" r="2.5" fill="#2563eb"/>
  <circle cx="949.07" cy="298.51" r="2.5" fill="#2563eb"/>
  <circle cx="950.70" cy="298.47" r="2.5" fill="#2563eb"/>
  <circle cx="952.33" cy="298.51" r="2.5" fill="#2563eb"/>
  <circle cx="953.95" cy="298.51" r="2.5" fill="#2563eb"/>
  <circle cx="955.58" cy="298.47" r="2.5" fill="#2563eb"/>
  <circle cx="957.21" cy="298.51" r="2.5" fill="#2563eb"/>
  <circle cx="958.84" cy="298.47" r="2.5" fill="#2563eb"/>
  <circle cx="960.47" cy="298.51" r="2.5" fill="#2563eb"/>
  <circle cx="962.09" cy="298.43" r="2.5" fill="#2563eb"/>
  <circle cx="963.72" cy="298.56" r="2.5" fill="#2563eb"/>
  <circle cx="965.35" cy="298.43" r="2.5" fill="#2563eb"/>
  <circle cx="966.98" cy="298.43" r="2.5" fill="#2563eb"/>
  <circle cx="968.60" cy="298.43" r="2.5" fill="#2563eb"/>
  <circle cx="970.23" cy="298.43" r="2.5" fill="#2563eb"/>
  <circle cx="971.86" cy="298.43" r="2.5" fill="#2563eb"/>
  <circle cx="973.49" cy="298.43" r="2.5" fill="#2563eb"/>
  <circle cx="975.12" cy="298.43" r="2.5" fill="#2563eb"/>
  <circle cx="976.74" cy="298.43" r="2.5" fill="#2563eb"/>
  <circle cx="978.37" cy="298.43" r="2.5" fill="#2563eb"/>
  <circle cx="980.00" cy="298.43" r="2.5" fill="#2563eb"/>
</svg>
