<?xml version="1.0" encoding="UTF-8"?>
<svg xmlns="http://www.w3.org/2000/svg" width="1000" height="420" viewBox="0 0 1000 420">
  <rect width="100%" height="100%" fill="#ffffff"/>
  <text x="70" y="28" font-size="20" font-weight="600">수집 시점 기준 - 시간별 스냅샷</text>
  <text x="70" y="402" font-size="12" fill="#555">스냅샷 수</text>
  <line x1="70" y1="350.00" x2="980" y2="350.00" stroke="#e5e7eb" stroke-width="1"/>
  <text x="62" y="354.00" font-size="11" fill="#6b7280" text-anchor="end">0</text>
  <line x1="70" y1="290.00" x2="980" y2="290.00" stroke="#e5e7eb" stroke-width="1"/>
  <text x="62" y="294.00" font-size="11" fill="#6b7280" text-anchor="end">1,440</text>
  <line x1="70" y1="230.00" x2="980" y2="230.00" stroke="#e5e7eb" stroke-width="1"/>
  <text x="62" y="234.00" font-size="11" fill="#6b7280" text-anchor="end">2,880</text>
  <line x1="70" y1="170.00" x2="980" y2="170.00" stroke="#e5e7eb" stroke-width="1"/>
  <text x="62" y="174.00" font-size="11" fill="#6b7280" text-anchor="end">4,321</text>
  <line x1="70" y1="110.00" x2="980" y2="110.00" stroke="#e5e7eb" stroke-width="1"/>
  <text x="62" y="114.00" font-size="11" fill="#6b7280" text-anchor="end">5,761</text>
  <line x1="70" y1="50.00" x2="980" y2="50.00" stroke="#e5e7eb" stroke-width="1"/>
  <text x="62" y="54.00" font-size="11" fill="#6b7280" text-anchor="end">7,202</text>
  <line x1="70" y1="350" x2="980" y2="350" stroke="#111827" stroke-width="1.2"/>
  <line x1="70" y1="50" x2="70" y2="350" stroke="#111827" stroke-width="1.2"/>
  <line x1="70.00" y1="350" x2="70.00" y2="356" stroke="#9ca3af" stroke-width="1"/>
  <text x="70.00" y="372" font-size="10" fill="#6b7280" text-anchor="middle">2026-02-28 18</text>
  <line x1="144.84" y1="350" x2="144.84" y2="356" stroke="#9ca3af" stroke-width="1"/>
  <text x="144.84" y="372" font-size="10" fill="#6b7280" text-anchor="middle">2026-03-09 05</text>
  <line x1="219.67" y1="350" x2="219.67" y2="356" stroke="#9ca3af" stroke-width="1"/>
  <text x="219.67" y="372" font-size="10" fill="#6b7280" text-anchor="middle">2026-03-11 13</text>
  <line x1="294.51" y1="350" x2="294.51" y2="356" stroke="#9ca3af" stroke-width="1"/>
  <text x="294.51" y="372" font-size="10" fill="#6b7280" text-anchor="middle">2026-03-13 19</text>
  <line x1="369.34" y1="350" x2="369.34" y2="356" stroke="#9ca3af" stroke-width="1"/>
  <text x="369.34" y="372" font-size="10" fill="#6b7280" text-anchor="middle">2026-03-16 16</text>
  <line x1="444.18" y1="350" x2="444.18" y2="356" stroke="#9ca3af" stroke-width="1"/>
  <text x="444.18" y="372" font-size="10" fill="#6b7280" text-anchor="middle">2026-03-20 01</text>
  <line x1="519.01" y1="350" x2="519.01" y2="356" stroke="#9ca3af" stroke-width="1"/>
  <text x="519.01" y="372" font-size="10" fill="#6b7280" text-anchor="middle">2026-03-22 20</text>
  <line x1="593.85" y1="350" x2="593.85" y2="356" stroke="#9ca3af" stroke-width="1"/>
  <text x="593.85" y="372" font-size="10" fill="#6b7280" text-anchor="middle">2026-03-26 04</text>
  <line x1="668.68" y1="350" x2="668.68" y2="356" stroke="#9ca3af" stroke-width="1"/>
  <text x="668.68" y="372" font-size="10" fill="#6b7280" text-anchor="middle">2026-03-29 14</text>
  <line x1="743.52" y1="350" x2="743.52" y2="356" stroke="#9ca3af" stroke-width="1"/>
  <text x="743.52" y="372" font-size="10" fill="#6b7280" text-anchor="middle">2026-04-02 03</text>
  <line x1="818.36" y1="350" x2="818.36" y2="356" stroke="#9ca3af" stroke-width="1"/>
  <text x="818.36" y="372" font-size="10" fill="#6b7280" text-anchor="middle">2026-04-05 08</text>
  <line x1="893.19" y1="350" x2="893.19" y2="356" stroke="#9ca3af" stroke-width="1"/>
  <text x="893.19" y="372" font-size="10" fill="#6b7280" text-anchor="middle">2026-04-08 23</text>
  <line x1="968.03" y1="350" x2="968.03" y2="356" stroke="#9ca3af" stroke-width="1"/>
  <text x="968.03" y="372" font-size="10" fill="#6b7280" text-anchor="middle">2026-04-12 08</text>
  <line x1="980.00" y1="350" x2="980.00" y2="356" stroke="#9ca3af" stroke-width="1"/>
  <text x="980.00" y="372" font-size="10" fill="#6b7280" text-anchor="middle">2026-04-13 00</text>
  <polyline fill="none" stroke="#2563eb" stroke-width="2.5" points="70.00,50.00 71.50,50.12 72.99,50.17 74.49,50.46 75.99,50.00 77.48,266.90 78.98,50.12 80.48,50.08 81.97,177.46 83.47,211.58 84.97,175.34 86.46,304.14 87.96,200.46 89.46,250.94 90.95,300.01 92.45,300.06 93.95,300.01 95.44,300.01 96.94,348.00 98.44,300.01 99.93,249.99 101.43,200.00 102.93,249.99 104.42,249.99 105.92,250.03 107.42,250.03 108.91,250.03 110.41,250.40 111.91,250.90 113.40,250.90 114.90,251.32 116.40,249.94 117.89,300.01 119.39,299.93 120.89,251.03 122.38,300.68 123.88,250.03 125.38,200.00 126.88,249.99 128.37,250.03 129.87,250.03 131.37,250.03 132.86,300.01 134.36,200.04 135.86,250.03 137.35,250.03 138.85,250.03 140.35,249.90 141.84,250.03 143.34,250.03 144.84,250.94 146.33,250.44 147.83,250.03 149.33,250.03 150.82,300.47 152.32,300.01 153.82,300.43 155.31,250.03 156.81,249.99 158.31,300.43 159.80,249.90 161.30,249.99 162.80,249.99 164.29,200.04 165.79,300.01 167.29,300.01 168.78,300.01 170.28,249.90 171.78,300.01 173.27,250.03 174.77,249.99 176.27,199.96 177.76,300.01 179.26,200.00 180.76,250.36 182.25,250.03 183.75,300.01 185.25,300.01 186.74,250.44 188.24,300.01 189.74,250.03 191.23,250.03 192.73,249.99 194.23,250.49 195.72,250.03 197.22,200.04 198.72,300.01 200.21,250.03 201.71,300.01 203.21,250.11 204.70,300.01 206.20,250.03 207.70,250.03 209.19,199.92 210.69,250.03 212.19,250.03 213.68,250.03 215.18,254.36 216.68,300.01 218.17,299.97 219.67,250.36 221.17,299.97 222.66,250.03 224.16,250.03 225.66,250.03 227.15,250.03 228.65,249.99 230.15,200.00 231.64,299.93 233.14,300.01 234.64,299.97 236.13,249.94 237.63,249.99 239.13,249.82 240.62,249.94 242.12,250.28 243.62,207.00 245.12,250.03 246.61,250.32 248.11,250.40 249.61,300.93 251.10,300.01 252.60,300.10 254.10,249.94 255.59,249.99 257.09,250.07 258.59,249.99 260.08,250.03 261.58,249.94 263.08,200.00 264.57,300.39 266.07,300.01 267.57,300.01 269.06,250.44 270.56,300.39 272.06,249.86 273.55,250.11 275.05,201.46 276.55,300.01 278.04,200.83 279.54,250.03 281.04,249.99 282.53,300.26 284.03,300.01 285.53,300.01 287.02,250.03 288.52,250.03 290.02,250.03 291.51,250.03 293.01,249.99 294.51,250.03 296.00,200.00 297.50,300.26 299.00,249.99 300.49,300.01 301.99,249.94 303.49,250.03 304.98,250.03 306.48,250.03 307.98,200.04 309.47,300.01 310.97,249.90 312.47,300.01 313.96,300.01 315.46,300.06 316.96,300.01 318.45,300.01 319.95,243.95 321.45,249.94 322.94,299.97 324.44,300.01 325.94,300.01 327.43,250.03 328.93,300.01 330.43,300.01 331.92,299.97 333.42,249.99 334.92,300.01 336.41,299.93 337.91,300.01 339.41,299.93 340.90,300.01 342.40,300.01 343.90,299.89 345.39,299.97 346.89,250.03 348.39,299.93 349.88,299.89 351.38,299.97 352.88,249.94 354.38,300.01 355.87,300.01 357.37,299.97 358.87,249.99 360.36,299.97 361.86,299.97 363.36,300.06 364.85,300.06 366.35,299.93 367.85,300.01 369.34,300.01 370.84,299.93 372.34,300.01 373.83,300.01 375.33,299.97 376.83,300.01 378.32,300.01 379.82,300.01 381.32,300.01 382.81,249.86 384.31,300.01 385.81,300.10 387.30,299.93 388.80,300.01 390.30,299.93 391.79,300.01 393.29,300.01 394.79,300.01 396.28,300.01 397.78,300.01 399.28,299.97 400.77,300.01 402.27,300.01 403.77,300.01 405.26,300.01 406.76,250.03 408.26,300.01 409.75,300.01 411.25,299.97 412.75,300.01 414.24,300.01 415.74,299.97 417.24,299.97 418.73,300.01 420.23,299.97 421.73,300.01 423.22,299.93 424.72,300.01 426.22,250.03 427.71,300.01 429.21,300.01 430.71,300.01 432.20,300.01 433.70,300.01 435.20,299.89 436.69,300.01 438.19,300.01 439.69,250.07 441.18,300.01 442.68,299.93 444.18,300.01 445.67,299.97 447.17,299.97 448.67,299.97 450.16,250.03 451.66,300.01 453.16,300.01 454.65,300.01 456.15,300.01 457.65,299.97 459.14,300.01 460.64,299.97 462.14,300.01 463.63,299.97 465.13,249.90 466.63,300.01 468.12,300.01 469.62,299.89 471.12,299.97 472.62,299.97 474.11,249.99 475.61,299.97 477.11,299.89 478.60,300.01 480.10,299.97 481.60,299.97 483.09,300.01 484.59,299.97 486.09,249.99 487.58,299.97 489.08,299.97 490.58,300.06 492.07,300.06 493.57,249.94 495.07,300.01 496.56,299.93 498.06,300.01 499.56,300.01 501.05,249.99 502.55,300.01 504.05,300.01 505.54,300.01 507.04,299.93 508.54,299.93 510.03,300.01 511.53,300.01 513.03,249.94 514.52,299.97 516.02,299.97 517.52,300.01 519.01,300.01 520.51,300.01 522.01,249.99 523.50,300.01 525.00,300.01 526.50,300.01 527.99,250.03 529.49,300.01 530.99,300.01 532.48,300.01 533.98,299.97 535.48,300.01 536.97,300.01 538.47,299.97 539.97,299.97 541.46,300.01 542.96,300.01 544.46,299.97 545.95,299.93 547.45,300.01 548.95,300.06 550.44,299.97 551.94,300.01 553.44,250.03 554.93,250.03 556.43,299.93 557.93,299.97 559.42,300.01 560.92,300.01 562.42,300.06 563.91,300.01 565.41,299.93 566.91,300.01 568.40,300.01 569.90,299.97 571.40,299.97 572.89,300.01 574.39,250.03 575.89,300.01 577.38,300.01 578.88,300.01 580.38,299.97 581.88,300.01 583.37,299.97 584.87,300.01 586.37,299.97 587.86,299.97 589.36,299.93 590.86,300.01 592.35,300.01 593.85,299.89 595.35,299.97 596.84,299.97 598.34,300.06 599.84,249.90 601.33,299.89 602.83,300.01 604.33,299.97 605.82,299.97 607.32,299.97 608.82,300.01 610.31,300.01 611.81,299.97 613.31,299.97 614.80,299.97 616.30,250.03 617.80,299.93 619.29,300.01 620.79,300.01 622.29,299.93 623.78,300.01 625.28,300.01 626.78,299.97 628.27,300.01 629.77,300.01 631.27,300.06 632.76,300.01 634.26,299.97 635.76,299.89 637.25,300.01 638.75,300.01 640.25,249.94 641.74,249.94 643.24,300.01 644.74,300.01 646.23,300.01 647.73,300.01 649.23,299.97 650.72,250.03 652.22,300.01 653.72,300.01 655.21,300.01 656.71,300.01 658.21,250.03 659.70,249.99 661.20,300.01 662.70,299.97 664.19,300.01 665.69,299.97 667.19,300.01 668.68,299.97 670.18,299.97 671.68,299.97 673.17,300.06 674.67,249.99 676.17,300.01 677.66,250.03 679.16,249.94 680.66,249.99 682.15,300.01 683.65,300.06 685.15,300.01 686.64,299.97 688.14,299.97 689.64,300.01 691.13,299.93 692.63,299.89 694.13,299.89 695.62,299.89 697.12,299.89 698.62,299.85 700.12,299.85 701.61,299.89 703.11,299.81 704.61,299.81 706.10,299.81 707.60,299.76 709.10,299.76 710.59,299.76 712.09,299.72 713.59,299.68 715.08,299.60 716.58,299.60 718.08,299.60 719.57,299.56 721.07,299.47 722.57,299.43 724.06,299.43 725.56,299.39 727.06,299.47 728.55,259.82 730.05,338.96 731.55,299.31 733.04,299.31 734.54,299.26 736.04,299.68 737.53,299.68 739.03,299.68 740.53,299.64 742.02,299.14 743.52,299.14 745.02,299.10 746.51,299.10 748.01,299.10 749.51,248.07 751.00,299.06 752.50,299.06 754.00,299.06 755.49,299.06 756.99,299.06 758.49,298.97 759.98,298.97 761.48,298.93 762.98,298.97 764.47,298.93 765.97,298.89 767.47,298.89 768.96,298.89 770.46,298.89 771.96,247.78 773.45,298.89 774.95,298.89 776.45,298.85 777.94,298.85 779.44,298.81 780.94,298.81 782.43,298.81 783.93,298.81 785.43,298.81 786.92,298.81 788.42,298.81 789.92,298.81 791.41,298.81 792.91,298.72 794.41,247.45 795.90,247.45 797.40,298.72 798.90,298.72 800.39,298.72 801.89,298.72 803.39,298.72 804.88,298.72 806.38,247.36 807.88,298.68 809.38,247.36 810.87,247.36 812.37,247.36 813.87,298.68 815.36,298.68 816.86,298.68 818.36,298.68 819.85,298.68 821.35,341.67 822.85,307.01 824.34,298.68 825.84,298.68 827.34,298.68 828.83,247.36 830.33,298.64 831.83,247.36 833.32,247.28 834.82,247.20 836.32,298.60 837.81,298.60 839.31,247.03 840.81,298.51 842.30,298.51 843.80,298.51 845.30,298.51 846.79,298.51 848.29,298.51 849.79,298.51 851.28,298.51 852.78,298.51 854.28,298.51 855.77,298.51 857.27,298.51 858.77,298.51 860.26,298.51 861.76,298.51 863.26,298.51 864.75,298.51 866.25,298.51 867.75,298.51 869.24,298.51 870.74,298.51 872.24,298.51 873.73,298.51 875.23,298.51 876.73,298.51 878.22,298.51 879.72,298.47 881.22,298.51 882.71,298.51 884.21,298.47 885.71,298.51 887.20,298.47 888.70,298.51 890.20,298.43 891.69,298.56 893.19,298.43 894.69,298.43 896.18,298.43 897.68,298.43 899.18,298.43 900.67,298.43 902.17,298.43 903.67,298.43 905.16,298.43 906.66,298.43 908.16,298.43 909.65,298.43 911.15,298.43 912.65,298.43 914.14,298.43 915.64,298.43 917.14,298.43 918.63,298.43 920.13,298.43 921.63,298.43 923.12,298.43 924.62,298.43 926.12,298.43 927.62,298.43 929.11,298.43 930.61,298.43 932.11,298.43 933.60,298.43 935.10,298.43 936.60,298.43 938.09,298.43 939.59,298.43 941.09,298.43 942.58,298.43 944.08,298.39 945.58,298.39 947.07,298.43 948.57,298.43 950.07,298.39 951.56,298.39 953.06,298.39 954.56,298.43 956.05,298.43 957.55,298.43 959.05,246.82 960.54,298.43 962.04,246.78 963.54,246.78 965.03,246.78 966.53,246.70 968.03,246.78 969.52,298.39 971.02,298.39 972.52,298.39 974.01,298.39 975.51,298.39 977.01,246.78 978.50,298.39 980.00,298.39"/>
  <circle cx="70.00" cy="50.00" r="2.5" fill="#2563eb"/>
  <circle cx="71.50" cy="50.12" r="2.5" fill="#2563eb"/>
  <circle cx="72.99" cy="50.17" r="2.5" fill="#2563eb"/>
  <circle cx="74.49" cy="50.46" r="2.5" fill="#2563eb"/>
  <circle cx="75.99" cy="50.00" r="2.5" fill="#2563eb"/>
  <circle cx="77.48" cy="266.90" r="2.5" fill="#2563eb"/>
  <circle cx="78.98" cy="50.12" r="2.5" fill="#2563eb"/>
  <circle cx="80.48" cy="50.08" r="2.5" fill="#2563eb"/>
  <circle cx="81.97" cy="177.46" r="2.5" fill="#2563eb"/>
  <circle cx="83.47" cy="211.58" r="2.5" fill="#2563eb"/>
  <circle cx="84.97" cy="175.34" r="2.5" fill="#2563eb"/>
  <circle cx="86.46" cy="304.14" r="2.5" fill="#2563eb"/>
  <circle cx="87.96" cy="200.46" r="2.5" fill="#2563eb"/>
  <circle cx="89.46" cy="250.94" r="2.5" fill="#2563eb"/>
  <circle cx="90.95" cy="300.01" r="2.5" fill="#2563eb"/>
  <circle cx="92.45" cy="300.06" r="2.5" fill="#2563eb"/>
  <circle cx="93.95" cy="300.01" r="2.5" fill="#2563eb"/>
  <circle cx="95.44" cy="300.01" r="2.5" fill="#2563eb"/>
  <circle cx="96.94" cy="348.00" r="2.5" fill="#2563eb"/>
  <circle cx="98.44" cy="300.01" r="2.5" fill="#2563eb"/>
  <circle cx="99.93" cy="249.99" r="2.5" fill="#2563eb"/>
  <circle cx="101.43" cy="200.00" r="2.5" fill="#2563eb"/>
  <circle cx="102.93" cy="249.99" r="2.5" fill="#2563eb"/>
  <circle cx="104.42" cy="249.99" r="2.5" fill="#2563eb"/>
  <circle cx="105.92" cy="250.03" r="2.5" fill="#2563eb"/>
  <circle cx="107.42" cy="250.03" r="2.5" fill="#2563eb"/>
  <circle cx="108.91" cy="250.03" r="2.5" fill="#2563eb"/>
  <circle cx="110.41" cy="250.40" r="2.5" fill="#2563eb"/>
  <circle cx="111.91" cy="250.90" r="2.5" fill="#2563eb"/>
  <circle cx="113.40" cy="250.90" r="2.5" fill="#2563eb"/>
  <circle cx="114.90" cy="251.32" r="2.5" fill="#2563eb"/>
  <circle cx="116.40" cy="249.94" r="2.5" fill="#2563eb"/>
  <circle cx="117.89" cy="300.01" r="2.5" fill="#2563eb"/>
  <circle cx="119.39" cy="299.93" r="2.5" fill="#2563eb"/>
  <circle cx="120.89" cy="251.03" r="2.5" fill="#2563eb"/>
  <circle cx="122.38" cy="300.68" r="2.5" fill="#2563eb"/>
  <circle cx="123.88" cy="250.03" r="2.5" fill="#2563eb"/>
  <circle cx="125.38" cy="200.00" r="2.5" fill="#2563eb"/>
  <circle cx="126.88" cy="249.99" r="2.5" fill="#2563eb"/>
  <circle cx="128.37" cy="250.03" r="2.5" fill="#2563eb"/>
  <circle cx="129.87" cy="250.03" r="2.5" fill="#2563eb"/>
  <circle cx="131.37" cy="250.03" r="2.5" fill="#2563eb"/>
  <circle cx="132.86" cy="300.01" r="2.5" fill="#2563eb"/>
  <circle cx="134.36" cy="200.04" r="2.5" fill="#2563eb"/>
  <circle cx="135.86" cy="250.03" r="2.5" fill="#2563eb"/>
  <circle cx="137.35" cy="250.03" r="2.5" fill="#2563eb"/>
  <circle cx="138.85" cy="250.03" r="2.5" fill="#2563eb"/>
  <circle cx="140.35" cy="249.90" r="2.5" fill="#2563eb"/>
  <circle cx="141.84" cy="250.03" r="2.5" fill="#2563eb"/>
  <circle cx="143.34" cy="250.03" r="2.5" fill="#2563eb"/>
  <circle cx="144.84" cy="250.94" r="2.5" fill="#2563eb"/>
  <circle cx="146.33" cy="250.44" r="2.5" fill="#2563eb"/>
  <circle cx="147.83" cy="250.03" r="2.5" fill="#2563eb"/>
  <circle cx="149.33" cy="250.03" r="2.5" fill="#2563eb"/>
  <circle cx="150.82" cy="300.47" r="2.5" fill="#2563eb"/>
  <circle cx="152.32" cy="300.01" r="2.5" fill="#2563eb"/>
  <circle cx="153.82" cy="300.43" r="2.5" fill="#2563eb"/>
  <circle cx="155.31" cy="250.03" r="2.5" fill="#2563eb"/>
  <circle cx="156.81" cy="249.99" r="2.5" fill="#2563eb"/>
  <circle cx="158.31" cy="300.43" r="2.5" fill="#2563eb"/>
  <circle cx="159.80" cy="249.90" r="2.5" fill="#2563eb"/>
  <circle cx="161.30" cy="249.99" r="2.5" fill="#2563eb"/>
  <circle cx="162.80" cy="249.99" r="2.5" fill="#2563eb"/>
  <circle cx="164.29" cy="200.04" r="2.5" fill="#2563eb"/>
  <circle cx="165.79" cy="300.01" r="2.5" fill="#2563eb"/>
  <circle cx="167.29" cy="300.01" r="2.5" fill="#2563eb"/>
  <circle cx="168.78" cy="300.01" r="2.5" fill="#2563eb"/>
  <circle cx="170.28" cy="249.90" r="2.5" fill="#2563eb"/>
  <circle cx="171.78" cy="300.01" r="2.5" fill="#2563eb"/>
  <circle cx="173.27" cy="250.03" r="2.5" fill="#2563eb"/>
  <circle cx="174.77" cy="249.99" r="2.5" fill="#2563eb"/>
  <circle cx="176.27" cy="199.96" r="2.5" fill="#2563eb"/>
  <circle cx="177.76" cy="300.01" r="2.5" fill="#2563eb"/>
  <circle cx="179.26" cy="200.00" r="2.5" fill="#2563eb"/>
  <circle cx="180.76" cy="250.36" r="2.5" fill="#2563eb"/>
  <circle cx="182.25" cy="250.03" r="2.5" fill="#2563eb"/>
  <circle cx="183.75" cy="300.01" r="2.5" fill="#2563eb"/>
  <circle cx="185.25" cy="300.01" r="2.5" fill="#2563eb"/>
  <circle cx="186.74" cy="250.44" r="2.5" fill="#2563eb"/>
  <circle cx="188.24" cy="300.01" r="2.5" fill="#2563eb"/>
  <circle cx="189.74" cy="250.03" r="2.5" fill="#2563eb"/>
  <circle cx="191.23" cy="250.03" r="2.5" fill="#2563eb"/>
  <circle cx="192.73" cy="249.99" r="2.5" fill="#2563eb"/>
  <circle cx="194.23" cy="250.49" r="2.5" fill="#2563eb"/>
  <circle cx="195.72" cy="250.03" r="2.5" fill="#2563eb"/>
  <circle cx="197.22" cy="200.04" r="2.5" fill="#2563eb"/>
  <circle cx="198.72" cy="300.01" r="2.5" fill="#2563eb"/>
  <circle cx="200.21" cy="250.03" r="2.5" fill="#2563eb"/>
  <circle cx="201.71" cy="300.01" r="2.5" fill="#2563eb"/>
  <circle cx="203.21" cy="250.11" r="2.5" fill="#2563eb"/>
  <circle cx="204.70" cy="300.01" r="2.5" fill="#2563eb"/>
  <circle cx="206.20" cy="250.03" r="2.5" fill="#2563eb"/>
  <circle cx="207.70" cy="250.03" r="2.5" fill="#2563eb"/>
  <circle cx="209.19" cy="199.92" r="2.5" fill="#2563eb"/>
  <circle cx="210.69" cy="250.03" r="2.5" fill="#2563eb"/>
  <circle cx="212.19" cy="250.03" r="2.5" fill="#2563eb"/>
  <circle cx="213.68" cy="250.03" r="2.5" fill="#2563eb"/>
  <circle cx="215.18" cy="254.36" r="2.5" fill="#2563eb"/>
  <circle cx="216.68" cy="300.01" r="2.5" fill="#2563eb"/>
  <circle cx="218.17" cy="299.97" r="2.5" fill="#2563eb"/>
  <circle cx="219.67" cy="250.36" r="2.5" fill="#2563eb"/>
  <circle cx="221.17" cy="299.97" r="2.5" fill="#2563eb"/>
  <circle cx="222.66" cy="250.03" r="2.5" fill="#2563eb"/>
  <circle cx="224.16" cy="250.03" r="2.5" fill="#2563eb"/>
  <circle cx="225.66" cy="250.03" r="2.5" fill="#2563eb"/>
  <circle cx="227.15" cy="250.03" r="2.5" fill="#2563eb"/>
  <circle cx="228.65" cy="249.99" r="2.5" fill="#2563eb"/>
  <circle cx="230.15" cy="200.00" r="2.5" fill="#2563eb"/>
  <circle cx="231.64" cy="299.93" r="2.5" fill="#2563eb"/>
  <circle cx="233.14" cy="300.01" r="2.5" fill="#2563eb"/>
  <circle cx="234.64" cy="299.97" r="2.5" fill="#2563eb"/>
  <circle cx="236.13" cy="249.94" r="2.5" fill="#2563eb"/>
  <circle cx="237.63" cy="249.99" r="2.5" fill="#2563eb"/>
  <circle cx="239.13" cy="249.82" r="2.5" fill="#2563eb"/>
  <circle cx="240.62" cy="249.94" r="2.5" fill="#2563eb"/>
  <circle cx="242.12" cy="250.28" r="2.5" fill="#2563eb"/>
  <circle cx="243.62" cy="207.00" r="2.5" fill="#2563eb"/>
  <circle cx="245.12" cy="250.03" r="2.5" fill="#2563eb"/>
  <circle cx="246.61" cy="250.32" r="2.5" fill="#2563eb"/>
  <circle cx="248.11" cy="250.40" r="2.5" fill="#2563eb"/>
  <circle cx="249.61" cy="300.93" r="2.5" fill="#2563eb"/>
  <circle cx="251.10" cy="300.01" r="2.5" fill="#2563eb"/>
  <circle cx="252.60" cy="300.10" r="2.5" fill="#2563eb"/>
  <circle cx="254.10" cy="249.94" r="2.5" fill="#2563eb"/>
  <circle cx="255.59" cy="249.99" r="2.5" fill="#2563eb"/>
  <circle cx="257.09" cy="250.07" r="2.5" fill="#2563eb"/>
  <circle cx="258.59" cy="249.99" r="2.5" fill="#2563eb"/>
  <circle cx="260.08" cy="250.03" r="2.5" fill="#2563eb"/>
  <circle cx="261.58" cy="249.94" r="2.5" fill="#2563eb"/>
  <circle cx="263.08" cy="200.00" r="2.5" fill="#2563eb"/>
  <circle cx="264.57" cy="300.39" r="2.5" fill="#2563eb"/>
  <circle cx="266.07" cy="300.01" r="2.5" fill="#2563eb"/>
  <circle cx="267.57" cy="300.01" r="2.5" fill="#2563eb"/>
  <circle cx="269.06" cy="250.44" r="2.5" fill="#2563eb"/>
  <circle cx="270.56" cy="300.39" r="2.5" fill="#2563eb"/>
  <circle cx="272.06" cy="249.86" r="2.5" fill="#2563eb"/>
  <circle cx="273.55" cy="250.11" r="2.5" fill="#2563eb"/>
  <circle cx="275.05" cy="201.46" r="2.5" fill="#2563eb"/>
  <circle cx="276.55" cy="300.01" r="2.5" fill="#2563eb"/>
  <circle cx="278.04" cy="200.83" r="2.5" fill="#2563eb"/>
  <circle cx="279.54" cy="250.03" r="2.5" fill="#2563eb"/>
  <circle cx="281.04" cy="249.99" r="2.5" fill="#2563eb"/>
  <circle cx="282.53" cy="300.26" r="2.5" fill="#2563eb"/>
  <circle cx="284.03" cy="300.01" r="2.5" fill="#2563eb"/>
  <circle cx="285.53" cy="300.01" r="2.5" fill="#2563eb"/>
  <circle cx="287.02" cy="250.03" r="2.5" fill="#2563eb"/>
  <circle cx="288.52" cy="250.03" r="2.5" fill="#2563eb"/>
  <circle cx="290.02" cy="250.03" r="2.5" fill="#2563eb"/>
  <circle cx="291.51" cy="250.03" r="2.5" fill="#2563eb"/>
  <circle cx="293.01" cy="249.99" r="2.5" fill="#2563eb"/>
  <circle cx="294.51" cy="250.03" r="2.5" fill="#2563eb"/>
  <circle cx="296.00" cy="200.00" r="2.5" fill="#2563eb"/>
  <circle cx="297.50" cy="300.26" r="2.5" fill="#2563eb"/>
  <circle cx="299.00" cy="249.99" r="2.5" fill="#2563eb"/>
  <circle cx="300.49" cy="300.01" r="2.5" fill="#2563eb"/>
  <circle cx="301.99" cy="249.94" r="2.5" fill="#2563eb"/>
  <circle cx="303.49" cy="250.03" r="2.5" fill="#2563eb"/>
  <circle cx="304.98" cy="250.03" r="2.5" fill="#2563eb"/>
  <circle cx="306.48" cy="250.03" r="2.5" fill="#2563eb"/>
  <circle cx="307.98" cy="200.04" r="2.5" fill="#2563eb"/>
  <circle cx="309.47" cy="300.01" r="2.5" fill="#2563eb"/>
  <circle cx="310.97" cy="249.90" r="2.5" fill="#2563eb"/>
  <circle cx="312.47" cy="300.01" r="2.5" fill="#2563eb"/>
  <circle cx="313.96" cy="300.01" r="2.5" fill="#2563eb"/>
  <circle cx="315.46" cy="300.06" r="2.5" fill="#2563eb"/>
  <circle cx="316.96" cy="300.01" r="2.5" fill="#2563eb"/>
  <circle cx="318.45" cy="300.01" r="2.5" fill="#2563eb"/>
  <circle cx="319.95" cy="243.95" r="2.5" fill="#2563eb"/>
  <circle cx="321.45" cy="249.94" r="2.5" fill="#2563eb"/>
  <circle cx="322.94" cy="299.97" r="2.5" fill="#2563eb"/>
  <circle cx="324.44" cy="300.01" r="2.5" fill="#2563eb"/>
  <circle cx="325.94" cy="300.01" r="2.5" fill="#2563eb"/>
  <circle cx="327.43" cy="250.03" r="2.5" fill="#2563eb"/>
  <circle cx="328.93" cy="300.01" r="2.5" fill="#2563eb"/>
  <circle cx="330.43" cy="300.01" r="2.5" fill="#2563eb"/>
  <circle cx="331.92" cy="299.97" r="2.5" fill="#2563eb"/>
  <circle cx="333.42" cy="249.99" r="2.5" fill="#2563eb"/>
  <circle cx="334.92" cy="300.01" r="2.5" fill="#2563eb"/>
  <circle cx="336.41" cy="299.93" r="2.5" fill="#2563eb"/>
  <circle cx="337.91" cy="300.01" r="2.5" fill="#2563eb"/>
  <circle cx="339.41" cy="299.93" r="2.5" fill="#2563eb"/>
  <circle cx="340.90" cy="300.01" r="2.5" fill="#2563eb"/>
  <circle cx="342.40" cy="300.01" r="2.5" fill="#2563eb"/>
  <circle cx="343.90" cy="299.89" r="2.5" fill="#2563eb"/>
  <circle cx="345.39" cy="299.97" r="2.5" fill="#2563eb"/>
  <circle cx="346.89" cy="250.03" r="2.5" fill="#2563eb"/>
  <circle cx="348.39" cy="299.93" r="2.5" fill="#2563eb"/>
  <circle cx="349.88" cy="299.89" r="2.5" fill="#2563eb"/>
  <circle cx="351.38" cy="299.97" r="2.5" fill="#2563eb"/>
  <circle cx="352.88" cy="249.94" r="2.5" fill="#2563eb"/>
  <circle cx="354.38" cy="300.01" r="2.5" fill="#2563eb"/>
  <circle cx="355.87" cy="300.01" r="2.5" fill="#2563eb"/>
  <circle cx="357.37" cy="299.97" r="2.5" fill="#2563eb"/>
  <circle cx="358.87" cy="249.99" r="2.5" fill="#2563eb"/>
  <circle cx="360.36" cy="299.97" r="2.5" fill="#2563eb"/>
  <circle cx="361.86" cy="299.97" r="2.5" fill="#2563eb"/>
  <circle cx="363.36" cy="300.06" r="2.5" fill="#2563eb"/>
  <circle cx="364.85" cy="300.06" r="2.5" fill="#2563eb"/>
  <circle cx="366.35" cy="299.93" r="2.5" fill="#2563eb"/>
  <circle cx="367.85" cy="300.01" r="2.5" fill="#2563eb"/>
  <circle cx="369.34" cy="300.01" r="2.5" fill="#2563eb"/>
  <circle cx="370.84" cy="299.93" r="2.5" fill="#2563eb"/>
  <circle cx="372.34" cy="300.01" r="2.5" fill="#2563eb"/>
  <circle cx="373.83" cy="300.01" r="2.5" fill="#2563eb"/>
  <circle cx="375.33" cy="299.97" r="2.5" fill="#2563eb"/>
  <circle cx="376.83" cy="300.01" r="2.5" fill="#2563eb"/>
  <circle cx="378.32" cy="300.01" r="2.5" fill="#2563eb"/>
  <circle cx="379.82" cy="300.01" r="2.5" fill="#2563eb"/>
  <circle cx="381.32" cy="300.01" r="2.5" fill="#2563eb"/>
  <circle cx="382.81" cy="249.86" r="2.5" fill="#2563eb"/>
  <circle cx="384.31" cy="300.01" r="2.5" fill="#2563eb"/>
  <circle cx="385.81" cy="300.10" r="2.5" fill="#2563eb"/>
  <circle cx="387.30" cy="299.93" r="2.5" fill="#2563eb"/>
  <circle cx="388.80" cy="300.01" r="2.5" fill="#2563eb"/>
  <circle cx="390.30" cy="299.93" r="2.5" fill="#2563eb"/>
  <circle cx="391.79" cy="300.01" r="2.5" fill="#2563eb"/>
  <circle cx="393.29" cy="300.01" r="2.5" fill="#2563eb"/>
  <circle cx="394.79" cy="300.01" r="2.5" fill="#2563eb"/>
  <circle cx="396.28" cy="300.01" r="2.5" fill="#2563eb"/>
  <circle cx="397.78" cy="300.01" r="2.5" fill="#2563eb"/>
  <circle cx="399.28" cy="299.97" r="2.5" fill="#2563eb"/>
  <circle cx="400.77" cy="300.01" r="2.5" fill="#2563eb"/>
  <circle cx="402.27" cy="300.01" r="2.5" fill="#2563eb"/>
  <circle cx="403.77" cy="300.01" r="2.5" fill="#2563eb"/>
  <circle cx="405.26" cy="300.01" r="2.5" fill="#2563eb"/>
  <circle cx="406.76" cy="250.03" r="2.5" fill="#2563eb"/>
  <circle cx="408.26" cy="300.01" r="2.5" fill="#2563eb"/>
  <circle cx="409.75" cy="300.01" r="2.5" fill="#2563eb"/>
  <circle cx="411.25" cy="299.97" r="2.5" fill="#2563eb"/>
  <circle cx="412.75" cy="300.01" r="2.5" fill="#2563eb"/>
  <circle cx="414.24" cy="300.01" r="2.5" fill="#2563eb"/>
  <circle cx="415.74" cy="299.97" r="2.5" fill="#2563eb"/>
  <circle cx="417.24" cy="299.97" r="2.5" fill="#2563eb"/>
  <circle cx="418.73" cy="300.01" r="2.5" fill="#2563eb"/>
  <circle cx="420.23" cy="299.97" r="2.5" fill="#2563eb"/>
  <circle cx="421.73" cy="300.01" r="2.5" fill="#2563eb"/>
  <circle cx="423.22" cy="299.93" r="2.5" fill="#2563eb"/>
  <circle cx="424.72" cy="300.01" r="2.5" fill="#2563eb"/>
  <circle cx="426.22" cy="250.03" r="2.5" fill="#2563eb"/>
  <circle cx="427.71" cy="300.01" r="2.5" fill="#2563eb"/>
  <circle cx="429.21" cy="300.01" r="2.5" fill="#2563eb"/>
  <circle cx="430.71" cy="300.01" r="2.5" fill="#2563eb"/>
  <circle cx="432.20" cy="300.01" r="2.5" fill="#2563eb"/>
  <circle cx="433.70" cy="300.01" r="2.5" fill="#2563eb"/>
  <circle cx="435.20" cy="299.89" r="2.5" fill="#2563eb"/>
  <circle cx="436.69" cy="300.01" r="2.5" fill="#2563eb"/>
  <circle cx="438.19" cy="300.01" r="2.5" fill="#2563eb"/>
  <circle cx="439.69" cy="250.07" r="2.5" fill="#2563eb"/>
  <circle cx="441.18" cy="300.01" r="2.5" fill="#2563eb"/>
  <circle cx="442.68" cy="299.93" r="2.5" fill="#2563eb"/>
  <circle cx="444.18" cy="300.01" r="2.5" fill="#2563eb"/>
  <circle cx="445.67" cy="299.97" r="2.5" fill="#2563eb"/>
  <circle cx="447.17" cy="299.97" r="2.5" fill="#2563eb"/>
  <circle cx="448.67" cy="299.97" r="2.5" fill="#2563eb"/>
  <circle cx="450.16" cy="250.03" r="2.5" fill="#2563eb"/>
  <circle cx="451.66" cy="300.01" r="2.5" fill="#2563eb"/>
  <circle cx="453.16" cy="300.01" r="2.5" fill="#2563eb"/>
  <circle cx="454.65" cy="300.01" r="2.5" fill="#2563eb"/>
  <circle cx="456.15" cy="300.01" r="2.5" fill="#2563eb"/>
  <circle cx="457.65" cy="299.97" r="2.5" fill="#2563eb"/>
  <circle cx="459.14" cy="300.01" r="2.5" fill="#2563eb"/>
  <circle cx="460.64" cy="299.97" r="2.5" fill="#2563eb"/>
  <circle cx="462.14" cy="300.01" r="2.5" fill="#2563eb"/>
  <circle cx="463.63" cy="299.97" r="2.5" fill="#2563eb"/>
  <circle cx="465.13" cy="249.90" r="2.5" fill="#2563eb"/>
  <circle cx="466.63" cy="300.01" r="2.5" fill="#2563eb"/>
  <circle cx="468.12" cy="300.01" r="2.5" fill="#2563eb"/>
  <circle cx="469.62" cy="299.89" r="2.5" fill="#2563eb"/>
  <circle cx="471.12" cy="299.97" r="2.5" fill="#2563eb"/>
  <circle cx="472.62" cy="299.97" r="2.5" fill="#2563eb"/>
  <circle cx="474.11" cy="249.99" r="2.5" fill="#2563eb"/>
  <circle cx="475.61" cy="299.97" r="2.5" fill="#2563eb"/>
  <circle cx="477.11" cy="299.89" r="2.5" fill="#2563eb"/>
  <circle cx="478.60" cy="300.01" r="2.5" fill="#2563eb"/>
  <circle cx="480.10" cy="299.97" r="2.5" fill="#2563eb"/>
  <circle cx="481.60" cy="299.97" r="2.5" fill="#2563eb"/>
  <circle cx="483.09" cy="300.01" r="2.5" fill="#2563eb"/>
  <circle cx="484.59" cy="299.97" r="2.5" fill="#2563eb"/>
  <circle cx="486.09" cy="249.99" r="2.5" fill="#2563eb"/>
  <circle cx="487.58" cy="299.97" r="2.5" fill="#2563eb"/>
  <circle cx="489.08" cy="299.97" r="2.5" fill="#2563eb"/>
  <circle cx="490.58" cy="300.06" r="2.5" fill="#2563eb"/>
  <circle cx="492.07" cy="300.06" r="2.5" fill="#2563eb"/>
  <circle cx="493.57" cy="249.94" r="2.5" fill="#2563eb"/>
  <circle cx="495.07" cy="300.01" r="2.5" fill="#2563eb"/>
  <circle cx="496.56" cy="299.93" r="2.5" fill="#2563eb"/>
  <circle cx="498.06" cy="300.01" r="2.5" fill="#2563eb"/>
  <circle cx="499.56" cy="300.01" r="2.5" fill="#2563eb"/>
  <circle cx="501.05" cy="249.99" r="2.5" fill="#2563eb"/>
  <circle cx="502.55" cy="300.01" r="2.5" fill="#2563eb"/>
  <circle cx="504.05" cy="300.01" r="2.5" fill="#2563eb"/>
  <circle cx="505.54" cy="300.01" r="2.5" fill="#2563eb"/>
  <circle cx="507.04" cy="299.93" r="2.5" fill="#2563eb"/>
  <circle cx="508.54" cy="299.93" r="2.5" fill="#2563eb"/>
  <circle cx="510.03" cy="300.01" r="2.5" fill="#2563eb"/>
  <circle cx="511.53" cy="300.01" r="2.5" fill="#2563eb"/>
  <circle cx="513.03" cy="249.94" r="2.5" fill="#2563eb"/>
  <circle cx="514.52" cy="299.97" r="2.5" fill="#2563eb"/>
  <circle cx="516.02" cy="299.97" r="2.5" fill="#2563eb"/>
  <circle cx="517.52" cy="300.01" r="2.5" fill="#2563eb"/>
  <circle cx="519.01" cy="300.01" r="2.5" fill="#2563eb"/>
  <circle cx="520.51" cy="300.01" r="2.5" fill="#2563eb"/>
  <circle cx="522.01" cy="249.99" r="2.5" fill="#2563eb"/>
  <circle cx="523.50" cy="300.01" r="2.5" fill="#2563eb"/>
  <circle cx="525.00" cy="300.01" r="2.5" fill="#2563eb"/>
  <circle cx="526.50" cy="300.01" r="2.5" fill="#2563eb"/>
  <circle cx="527.99" cy="250.03" r="2.5" fill="#2563eb"/>
  <circle cx="529.49" cy="300.01" r="2.5" fill="#2563eb"/>
  <circle cx="530.99" cy="300.01" r="2.5" fill="#2563eb"/>
  <circle cx="532.48" cy="300.01" r="2.5" fill="#2563eb"/>
  <circle cx="533.98" cy="299.97" r="2.5" fill="#2563eb"/>
  <circle cx="535.48" cy="300.01" r="2.5" fill="#2563eb"/>
  <circle cx="536.97" cy="300.01" r="2.5" fill="#2563eb"/>
  <circle cx="538.47" cy="299.97" r="2.5" fill="#2563eb"/>
  <circle cx="539.97" cy="299.97" r="2.5" fill="#2563eb"/>
  <circle cx="541.46" cy="300.01" r="2.5" fill="#2563eb"/>
  <circle cx="542.96" cy="300.01" r="2.5" fill="#2563eb"/>
  <circle cx="544.46" cy="299.97" r="2.5" fill="#2563eb"/>
  <circle cx="545.95" cy="299.93" r="2.5" fill="#2563eb"/>
  <circle cx="547.45" cy="300.01" r="2.5" fill="#2563eb"/>
  <circle cx="548.95" cy="300.06" r="2.5" fill="#2563eb"/>
  <circle cx="550.44" cy="299.97" r="2.5" fill="#2563eb"/>
  <circle cx="551.94" cy="300.01" r="2.5" fill="#2563eb"/>
  <circle cx="553.44" cy="250.03" r="2.5" fill="#2563eb"/>
  <circle cx="554.93" cy="250.03" r="2.5" fill="#2563eb"/>
  <circle cx="556.43" cy="299.93" r="2.5" fill="#2563eb"/>
  <circle cx="557.93" cy="299.97" r="2.5" fill="#2563eb"/>
  <circle cx="559.42" cy="300.01" r="2.5" fill="#2563eb"/>
  <circle cx="560.92" cy="300.01" r="2.5" fill="#2563eb"/>
  <circle cx="562.42" cy="300.06" r="2.5" fill="#2563eb"/>
  <circle cx="563.91" cy="300.01" r="2.5" fill="#2563eb"/>
  <circle cx="565.41" cy="299.93" r="2.5" fill="#2563eb"/>
  <circle cx="566.91" cy="300.01" r="2.5" fill="#2563eb"/>
  <circle cx="568.40" cy="300.01" r="2.5" fill="#2563eb"/>
  <circle cx="569.90" cy="299.97" r="2.5" fill="#2563eb"/>
  <circle cx="571.40" cy="299.97" r="2.5" fill="#2563eb"/>
  <circle cx="572.89" cy="300.01" r="2.5" fill="#2563eb"/>
  <circle cx="574.39" cy="250.03" r="2.5" fill="#2563eb"/>
  <circle cx="575.89" cy="300.01" r="2.5" fill="#2563eb"/>
  <circle cx="577.38" cy="300.01" r="2.5" fill="#2563eb"/>
  <circle cx="578.88" cy="300.01" r="2.5" fill="#2563eb"/>
  <circle cx="580.38" cy="299.97" r="2.5" fill="#2563eb"/>
  <circle cx="581.88" cy="300.01" r="2.5" fill="#2563eb"/>
  <circle cx="583.37" cy="299.97" r="2.5" fill="#2563eb"/>
  <circle cx="584.87" cy="300.01" r="2.5" fill="#2563eb"/>
  <circle cx="586.37" cy="299.97" r="2.5" fill="#2563eb"/>
  <circle cx="587.86" cy="299.97" r="2.5" fill="#2563eb"/>
  <circle cx="589.36" cy="299.93" r="2.5" fill="#2563eb"/>
  <circle cx="590.86" cy="300.01" r="2.5" fill="#2563eb"/>
  <circle cx="592.35" cy="300.01" r="2.5" fill="#2563eb"/>
  <circle cx="593.85" cy="299.89" r="2.5" fill="#2563eb"/>
  <circle cx="595.35" cy="299.97" r="2.5" fill="#2563eb"/>
  <circle cx="596.84" cy="299.97" r="2.5" fill="#2563eb"/>
  <circle cx="598.34" cy="300.06" r="2.5" fill="#2563eb"/>
  <circle cx="599.84" cy="249.90" r="2.5" fill="#2563eb"/>
  <circle cx="601.33" cy="299.89" r="2.5" fill="#2563eb"/>
  <circle cx="602.83" cy="300.01" r="2.5" fill="#2563eb"/>
  <circle cx="604.33" cy="299.97" r="2.5" fill="#2563eb"/>
  <circle cx="605.82" cy="299.97" r="2.5" fill="#2563eb"/>
  <circle cx="607.32" cy="299.97" r="2.5" fill="#2563eb"/>
  <circle cx="608.82" cy="300.01" r="2.5" fill="#2563eb"/>
  <circle cx="610.31" cy="300.01" r="2.5" fill="#2563eb"/>
  <circle cx="611.81" cy="299.97" r="2.5" fill="#2563eb"/>
  <circle cx="613.31" cy="299.97" r="2.5" fill="#2563eb"/>
  <circle cx="614.80" cy="299.97" r="2.5" fill="#2563eb"/>
  <circle cx="616.30" cy="250.03" r="2.5" fill="#2563eb"/>
  <circle cx="617.80" cy="299.93" r="2.5" fill="#2563eb"/>
  <circle cx="619.29" cy="300.01" r="2.5" fill="#2563eb"/>
  <circle cx="620.79" cy="300.01" r="2.5" fill="#2563eb"/>
  <circle cx="622.29" cy="299.93" r="2.5" fill="#2563eb"/>
  <circle cx="623.78" cy="300.01" r="2.5" fill="#2563eb"/>
  <circle cx="625.28" cy="300.01" r="2.5" fill="#2563eb"/>
  <circle cx="626.78" cy="299.97" r="2.5" fill="#2563eb"/>
  <circle cx="628.27" cy="300.01" r="2.5" fill="#2563eb"/>
  <circle cx="629.77" cy="300.01" r="2.5" fill="#2563eb"/>
  <circle cx="631.27" cy="300.06" r="2.5" fill="#2563eb"/>
  <circle cx="632.76" cy="300.01" r="2.5" fill="#2563eb"/>
  <circle cx="634.26" cy="299.97" r="2.5" fill="#2563eb"/>
  <circle cx="635.76" cy="299.89" r="2.5" fill="#2563eb"/>
  <circle cx="637.25" cy="300.01" r="2.5" fill="#2563eb"/>
  <circle cx="638.75" cy="300.01" r="2.5" fill="#2563eb"/>
  <circle cx="640.25" cy="249.94" r="2.5" fill="#2563eb"/>
  <circle cx="641.74" cy="249.94" r="2.5" fill="#2563eb"/>
  <circle cx="643.24" cy="300.01" r="2.5" fill="#2563eb"/>
  <circle cx="644.74" cy="300.01" r="2.5" fill="#2563eb"/>
  <circle cx="646.23" cy="300.01" r="2.5" fill="#2563eb"/>
  <circle cx="647.73" cy="300.01" r="2.5" fill="#2563eb"/>
  <circle cx="649.23" cy="299.97" r="2.5" fill="#2563eb"/>
  <circle cx="650.72" cy="250.03" r="2.5" fill="#2563eb"/>
  <circle cx="652.22" cy="300.01" r="2.5" fill="#2563eb"/>
  <circle cx="653.72" cy="300.01" r="2.5" fill="#2563eb"/>
  <circle cx="655.21" cy="300.01" r="2.5" fill="#2563eb"/>
  <circle cx="656.71" cy="300.01" r="2.5" fill="#2563eb"/>
  <circle cx="658.21" cy="250.03" r="2.5" fill="#2563eb"/>
  <circle cx="659.70" cy="249.99" r="2.5" fill="#2563eb"/>
  <circle cx="661.20" cy="300.01" r="2.5" fill="#2563eb"/>
  <circle cx="662.70" cy="299.97" r="2.5" fill="#2563eb"/>
  <circle cx="664.19" cy="300.01" r="2.5" fill="#2563eb"/>
  <circle cx="665.69" cy="299.97" r="2.5" fill="#2563eb"/>
  <circle cx="667.19" cy="300.01" r="2.5" fill="#2563eb"/>
  <circle cx="668.68" cy="299.97" r="2.5" fill="#2563eb"/>
  <circle cx="670.18" cy="299.97" r="2.5" fill="#2563eb"/>
  <circle cx="671.68" cy="299.97" r="2.5" fill="#2563eb"/>
  <circle cx="673.17" cy="300.06" r="2.5" fill="#2563eb"/>
  <circle cx="674.67" cy="249.99" r="2.5" fill="#2563eb"/>
  <circle cx="676.17" cy="300.01" r="2.5" fill="#2563eb"/>
  <circle cx="677.66" cy="250.03" r="2.5" fill="#2563eb"/>
  <circle cx="679.16" cy="249.94" r="2.5" fill="#2563eb"/>
  <circle cx="680.66" cy="249.99" r="2.5" fill="#2563eb"/>
  <circle cx="682.15" cy="300.01" r="2.5" fill="#2563eb"/>
  <circle cx="683.65" cy="300.06" r="2.5" fill="#2563eb"/>
  <circle cx="685.15" cy="300.01" r="2.5" fill="#2563eb"/>
  <circle cx="686.64" cy="299.97" r="2.5" fill="#2563eb"/>
  <circle cx="688.14" cy="299.97" r="2.5" fill="#2563eb"/>
  <circle cx="689.64" cy="300.01" r="2.5" fill="#2563eb"/>
  <circle cx="691.13" cy="299.93" r="2.5" fill="#2563eb"/>
  <circle cx="692.63" cy="299.89" r="2.5" fill="#2563eb"/>
  <circle cx="694.13" cy="299.89" r="2.5" fill="#2563eb"/>
  <circle cx="695.62" cy="299.89" r="2.5" fill="#2563eb"/>
  <circle cx="697.12" cy="299.89" r="2.5" fill="#2563eb"/>
  <circle cx="698.62" cy="299.85" r="2.5" fill="#2563eb"/>
  <circle cx="700.12" cy="299.85" r="2.5" fill="#2563eb"/>
  <circle cx="701.61" cy="299.89" r="2.5" fill="#2563eb"/>
  <circle cx="703.11" cy="299.81" r="2.5" fill="#2563eb"/>
  <circle cx="704.61" cy="299.81" r="2.5" fill="#2563eb"/>
  <circle cx="706.10" cy="299.81" r="2.5" fill="#2563eb"/>
  <circle cx="707.60" cy="299.76" r="2.5" fill="#2563eb"/>
  <circle cx="709.10" cy="299.76" r="2.5" fill="#2563eb"/>
  <circle cx="710.59" cy="299.76" r="2.5" fill="#2563eb"/>
  <circle cx="712.09" cy="299.72" r="2.5" fill="#2563eb"/>
  <circle cx="713.59" cy="299.68" r="2.5" fill="#2563eb"/>
  <circle cx="715.08" cy="299.60" r="2.5" fill="#2563eb"/>
  <circle cx="716.58" cy="299.60" r="2.5" fill="#2563eb"/>
  <circle cx="718.08" cy="299.60" r="2.5" fill="#2563eb"/>
  <circle cx="719.57" cy="299.56" r="2.5" fill="#2563eb"/>
  <circle cx="721.07" cy="299.47" r="2.5" fill="#2563eb"/>
  <circle cx="722.57" cy="299.43" r="2.5" fill="#2563eb"/>
  <circle cx="724.06" cy="299.43" r="2.5" fill="#2563eb"/>
  <circle cx="725.56" cy="299.39" r="2.5" fill="#2563eb"/>
  <circle cx="727.06" cy="299.47" r="2.5" fill="#2563eb"/>
  <circle cx="728.55" cy="259.82" r="2.5" fill="#2563eb"/>
  <circle cx="730.05" cy="338.96" r="2.5" fill="#2563eb"/>
  <circle cx="731.55" cy="299.31" r="2.5" fill="#2563eb"/>
  <circle cx="733.04" cy="299.31" r="2.5" fill="#2563eb"/>
  <circle cx="734.54" cy="299.26" r="2.5" fill="#2563eb"/>
  <circle cx="736.04" cy="299.68" r="2.5" fill="#2563eb"/>
  <circle cx="737.53" cy="299.68" r="2.5" fill="#2563eb"/>
  <circle cx="739.03" cy="299.68" r="2.5" fill="#2563eb"/>
  <circle cx="740.53" cy="299.64" r="2.5" fill="#2563eb"/>
  <circle cx="742.02" cy="299.14" r="2.5" fill="#2563eb"/>
  <circle cx="743.52" cy="299.14" r="2.5" fill="#2563eb"/>
  <circle cx="745.02" cy="299.10" r="2.5" fill="#2563eb"/>
  <circle cx="746.51" cy="299.10" r="2.5" fill="#2563eb"/>
  <circle cx="748.01" cy="299.10" r="2.5" fill="#2563eb"/>
  <circle cx="749.51" cy="248.07" r="2.5" fill="#2563eb"/>
  <circle cx="751.00" cy="299.06" r="2.5" fill="#2563eb"/>
  <circle cx="752.50" cy="299.06" r="2.5" fill="#2563eb"/>
  <circle cx="754.00" cy="299.06" r="2.5" fill="#2563eb"/>
  <circle cx="755.49" cy="299.06" r="2.5" fill="#2563eb"/>
  <circle cx="756.99" cy="299.06" r="2.5" fill="#2563eb"/>
  <circle cx="758.49" cy="298.97" r="2.5" fill="#2563eb"/>
  <circle cx="759.98" cy="298.97" r="2.5" fill="#2563eb"/>
  <circle cx="761.48" cy="298.93" r="2.5" fill="#2563eb"/>
  <circle cx="762.98" cy="298.97" r="2.5" fill="#2563eb"/>
  <circle cx="764.47" cy="298.93" r="2.5" fill="#2563eb"/>
  <circle cx="765.97" cy="298.89" r="2.5" fill="#2563eb"/>
  <circle cx="767.47" cy="298.89" r="2.5" fill="#2563eb"/>
  <circle cx="768.96" cy="298.89" r="2.5" fill="#2563eb"/>
  <circle cx="770.46" cy="298.89" r="2.5" fill="#2563eb"/>
  <circle cx="771.96" cy="247.78" r="2.5" fill="#2563eb"/>
  <circle cx="773.45" cy="298.89" r="2.5" fill="#2563eb"/>
  <circle cx="774.95" cy="298.89" r="2.5" fill="#2563eb"/>
  <circle cx="776.45" cy="298.85" r="2.5" fill="#2563eb"/>
  <circle cx="777.94" cy="298.85" r="2.5" fill="#2563eb"/>
  <circle cx="779.44" cy="298.81" r="2.5" fill="#2563eb"/>
  <circle cx="780.94" cy="298.81" r="2.5" fill="#2563eb"/>
  <circle cx="782.43" cy="298.81" r="2.5" fill="#2563eb"/>
  <circle cx="783.93" cy="298.81" r="2.5" fill="#2563eb"/>
  <circle cx="785.43" cy="298.81" r="2.5" fill="#2563eb"/>
  <circle cx="786.92" cy="298.81" r="2.5" fill="#2563eb"/>
  <circle cx="788.42" cy="298.81" r="2.5" fill="#2563eb"/>
  <circle cx="789.92" cy="298.81" r="2.5" fill="#2563eb"/>
  <circle cx="791.41" cy="298.81" r="2.5" fill="#2563eb"/>
  <circle cx="792.91" cy="298.72" r="2.5" fill="#2563eb"/>
  <circle cx="794.41" cy="247.45" r="2.5" fill="#2563eb"/>
  <circle cx="795.90" cy="247.45" r="2.5" fill="#2563eb"/>
  <circle cx="797.40" cy="298.72" r="2.5" fill="#2563eb"/>
  <circle cx="798.90" cy="298.72" r="2.5" fill="#2563eb"/>
  <circle cx="800.39" cy="298.72" r="2.5" fill="#2563eb"/>
  <circle cx="801.89" cy="298.72" r="2.5" fill="#2563eb"/>
  <circle cx="803.39" cy="298.72" r="2.5" fill="#2563eb"/>
  <circle cx="804.88" cy="298.72" r="2.5" fill="#2563eb"/>
  <circle cx="806.38" cy="247.36" r="2.5" fill="#2563eb"/>
  <circle cx="807.88" cy="298.68" r="2.5" fill="#2563eb"/>
  <circle cx="809.38" cy="247.36" r="2.5" fill="#2563eb"/>
  <circle cx="810.87" cy="247.36" r="2.5" fill="#2563eb"/>
  <circle cx="812.37" cy="247.36" r="2.5" fill="#2563eb"/>
  <circle cx="813.87" cy="298.68" r="2.5" fill="#2563eb"/>
  <circle cx="815.36" cy="298.68" r="2.5" fill="#2563eb"/>
  <circle cx="816.86" cy="298.68" r="2.5" fill="#2563eb"/>
  <circle cx="818.36" cy="298.68" r="2.5" fill="#2563eb"/>
  <circle cx="819.85" cy="298.68" r="2.5" fill="#2563eb"/>
  <circle cx="821.35" cy="341.67" r="2.5" fill="#2563eb"/>
  <circle cx="822.85" cy="307.01" r="2.5" fill="#2563eb"/>
  <circle cx="824.34" cy="298.68" r="2.5" fill="#2563eb"/>
  <circle cx="825.84" cy="298.68" r="2.5" fill="#2563eb"/>
  <circle cx="827.34" cy="298.68" r="2.5" fill="#2563eb"/>
  <circle cx="828.83" cy="247.36" r="2.5" fill="#2563eb"/>
  <circle cx="830.33" cy="298.64" r="2.5" fill="#2563eb"/>
  <circle cx="831.83" cy="247.36" r="2.5" fill="#2563eb"/>
  <circle cx="833.32" cy="247.28" r="2.5" fill="#2563eb"/>
  <circle cx="834.82" cy="247.20" r="2.5" fill="#2563eb"/>
  <circle cx="836.32" cy="298.60" r="2.5" fill="#2563eb"/>
  <circle cx="837.81" cy="298.60" r="2.5" fill="#2563eb"/>
  <circle cx="839.31" cy="247.03" r="2.5" fill="#2563eb"/>
  <circle cx="840.81" cy="298.51" r="2.5" fill="#2563eb"/>
  <circle cx="842.30" cy="298.51" r="2.5" fill="#2563eb"/>
  <circle cx="843.80" cy="298.51" r="2.5" fill="#2563eb"/>
  <circle cx="845.30" cy="298.51" r="2.5" fill="#2563eb"/>
  <circle cx="846.79" cy="298.51" r="2.5" fill="#2563eb"/>
  <circle cx="848.29" cy="298.51" r="2.5" fill="#2563eb"/>
  <circle cx="849.79" cy="298.51" r="2.5" fill="#2563eb"/>
  <circle cx="851.28" cy="298.51" r="2.5" fill="#2563eb"/>
  <circle cx="852.78" cy="298.51" r="2.5" fill="#2563eb"/>
  <circle cx="854.28" cy="298.51" r="2.5" fill="#2563eb"/>
  <circle cx="855.77" cy="298.51" r="2.5" fill="#2563eb"/>
  <circle cx="857.27" cy="298.51" r="2.5" fill="#2563eb"/>
  <circle cx="858.77" cy="298.51" r="2.5" fill="#2563eb"/>
  <circle cx="860.26" cy="298.51" r="2.5" fill="#2563eb"/>
  <circle cx="861.76" cy="298.51" r="2.5" fill="#2563eb"/>
  <circle cx="863.26" cy="298.51" r="2.5" fill="#2563eb"/>
  <circle cx="864.75" cy="298.51" r="2.5" fill="#2563eb"/>
  <circle cx="866.25" cy="298.51" r="2.5" fill="#2563eb"/>
  <circle cx="867.75" cy="298.51" r="2.5" fill="#2563eb"/>
  <circle cx="869.24" cy="298.51" r="2.5" fill="#2563eb"/>
  <circle cx="870.74" cy="298.51" r="2.5" fill="#2563eb"/>
  <circle cx="872.24" cy="298.51" r="2.5" fill="#2563eb"/>
  <circle cx="873.73" cy="298.51" r="2.5" fill="#2563eb"/>
  <circle cx="875.23" cy="298.51" r="2.5" fill="#2563eb"/>
  <circle cx="876.73" cy="298.51" r="2.5" fill="#2563eb"/>
  <circle cx="878.22" cy="298.51" r="2.5" fill="#2563eb"/>
  <circle cx="879.72" cy="298.47" r="2.5" fill="#2563eb"/>
  <circle cx="881.22" cy="298.51" r="2.5" fill="#2563eb"/>
  <circle cx="882.71" cy="298.51" r="2.5" fill="#2563eb"/>
  <circle cx="884.21" cy="298.47" r="2.5" fill="#2563eb"/>
  <circle cx="885.71" cy="298.51" r="2.5" fill="#2563eb"/>
  <circle cx="887.20" cy="298.47" r="2.5" fill="#2563eb"/>
  <circle cx="888.70" cy="298.51" r="2.5" fill="#2563eb"/>
  <circle cx="890.20" cy="298.43" r="2.5" fill="#2563eb"/>
  <circle cx="891.69" cy="298.56" r="2.5" fill="#2563eb"/>
  <circle cx="893.19" cy="298.43" r="2.5" fill="#2563eb"/>
  <circle cx="894.69" cy="298.43" r="2.5" fill="#2563eb"/>
  <circle cx="896.18" cy="298.43" r="2.5" fill="#2563eb"/>
  <circle cx="897.68" cy="298.43" r="2.5" fill="#2563eb"/>
  <circle cx="899.18" cy="298.43" r="2.5" fill="#2563eb"/>
  <circle cx="900.67" cy="298.43" r="2.5" fill="#2563eb"/>
  <circle cx="902.17" cy="298.43" r="2.5" fill="#2563eb"/>
  <circle cx="903.67" cy="298.43" r="2.5" fill="#2563eb"/>
  <circle cx="905.16" cy="298.43" r="2.5" fill="#2563eb"/>
  <circle cx="906.66" cy="298.43" r="2.5" fill="#2563eb"/>
  <circle cx="908.16" cy="298.43" r="2.5" fill="#2563eb"/>
  <circle cx="909.65" cy="298.43" r="2.5" fill="#2563eb"/>
  <circle cx="911.15" cy="298.43" r="2.5" fill="#2563eb"/>
  <circle cx="912.65" cy="298.43" r="2.5" fill="#2563eb"/>
  <circle cx="914.14" cy="298.43" r="2.5" fill="#2563eb"/>
  <circle cx="915.64" cy="298.43" r="2.5" fill="#2563eb"/>
  <circle cx="917.14" cy="298.43" r="2.5" fill="#2563eb"/>
  <circle cx="918.63" cy="298.43" r="2.5" fill="#2563eb"/>
  <circle cx="920.13" cy="298.43" r="2.5" fill="#2563eb"/>
  <circle cx="921.63" cy="298.43" r="2.5" fill="#2563eb"/>
  <circle cx="923.12" cy="298.43" r="2.5" fill="#2563eb"/>
  <circle cx="924.62" cy="298.43" r="2.5" fill="#2563eb"/>
  <circle cx="926.12" cy="298.43" r="2.5" fill="#2563eb"/>
  <circle cx="927.62" cy="298.43" r="2.5" fill="#2563eb"/>
  <circle cx="929.11" cy="298.43" r="2.5" fill="#2563eb"/>
  <circle cx="930.61" cy="298.43" r="2.5" fill="#2563eb"/>
  <circle cx="932.11" cy="298.43" r="2.5" fill="#2563eb"/>
  <circle cx="933.60" cy="298.43" r="2.5" fill="#2563eb"/>
  <circle cx="935.10" cy="298.43" r="2.5" fill="#2563eb"/>
  <circle cx="936.60" cy="298.43" r="2.5" fill="#2563eb"/>
  <circle cx="938.09" cy="298.43" r="2.5" fill="#2563eb"/>
  <circle cx="939.59" cy="298.43" r="2.5" fill="#2563eb"/>
  <circle cx="941.09" cy="298.43" r="2.5" fill="#2563eb"/>
  <circle cx="942.58" cy="298.43" r="2.5" fill="#2563eb"/>
  <circle cx="944.08" cy="298.39" r="2.5" fill="#2563eb"/>
  <circle cx="945.58" cy="298.39" r="2.5" fill="#2563eb"/>
  <circle cx="947.07" cy="298.43" r="2.5" fill="#2563eb"/>
  <circle cx="948.57" cy="298.43" r="2.5" fill="#2563eb"/>
  <circle cx="950.07" cy="298.39" r="2.5" fill="#2563eb"/>
  <circle cx="951.56" cy="298.39" r="2.5" fill="#2563eb"/>
  <circle cx="953.06" cy="298.39" r="2.5" fill="#2563eb"/>
  <circle cx="954.56" cy="298.43" r="2.5" fill="#2563eb"/>
  <circle cx="956.05" cy="298.43" r="2.5" fill="#2563eb"/>
  <circle cx="957.55" cy="298.43" r="2.5" fill="#2563eb"/>
  <circle cx="959.05" cy="246.82" r="2.5" fill="#2563eb"/>
  <circle cx="960.54" cy="298.43" r="2.5" fill="#2563eb"/>
  <circle cx="962.04" cy="246.78" r="2.5" fill="#2563eb"/>
  <circle cx="963.54" cy="246.78" r="2.5" fill="#2563eb"/>
  <circle cx="965.03" cy="246.78" r="2.5" fill="#2563eb"/>
  <circle cx="966.53" cy="246.70" r="2.5" fill="#2563eb"/>
  <circle cx="968.03" cy="246.78" r="2.5" fill="#2563eb"/>
  <circle cx="969.52" cy="298.39" r="2.5" fill="#2563eb"/>
  <circle cx="971.02" cy="298.39" r="2.5" fill="#2563eb"/>
  <circle cx="972.52" cy="298.39" r="2.5" fill="#2563eb"/>
  <circle cx="974.01" cy="298.39" r="2.5" fill="#2563eb"/>
  <circle cx="975.51" cy="298.39" r="2.5" fill="#2563eb"/>
  <circle cx="977.01" cy="246.78" r="2.5" fill="#2563eb"/>
  <circle cx="978.50" cy="298.39" r="2.5" fill="#2563eb"/>
  <circle cx="980.00" cy="298.39" r="2.5" fill="#2563eb"/>
</svg>
