<?xml version="1.0" encoding="UTF-8"?>
<svg xmlns="http://www.w3.org/2000/svg" width="1000" height="420" viewBox="0 0 1000 420">
  <rect width="100%" height="100%" fill="#ffffff"/>
  <text x="70" y="28" font-size="20" font-weight="600">수집 시점 기준 - 시간별 스냅샷</text>
  <text x="70" y="402" font-size="12" fill="#555">스냅샷 수</text>
  <line x1="70" y1="350.00" x2="980" y2="350.00" stroke="#e5e7eb" stroke-width="1"/>
  <text x="62" y="354.00" font-size="11" fill="#6b7280" text-anchor="end">0</text>
  <line x1="70" y1="290.00" x2="980" y2="290.00" stroke="#e5e7eb" stroke-width="1"/>
  <text x="62" y="294.00" font-size="11" fill="#6b7280" text-anchor="end">1,440</text>
  <line x1="70" y1="230.00" x2="980" y2="230.00" stroke="#e5e7eb" stroke-width="1"/>
  <text x="62" y="234.00" font-size="11" fill="#6b7280" text-anchor="end">2,880</text>
  <line x1="70" y1="170.00" x2="980" y2="170.00" stroke="#e5e7eb" stroke-width="1"/>
  <text x="62" y="174.00" font-size="11" fill="#6b7280" text-anchor="end">4,321</text>
  <line x1="70" y1="110.00" x2="980" y2="110.00" stroke="#e5e7eb" stroke-width="1"/>
  <text x="62" y="114.00" font-size="11" fill="#6b7280" text-anchor="end">5,761</text>
  <line x1="70" y1="50.00" x2="980" y2="50.00" stroke="#e5e7eb" stroke-width="1"/>
  <text x="62" y="54.00" font-size="11" fill="#6b7280" text-anchor="end">7,202</text>
  <line x1="70" y1="350" x2="980" y2="350" stroke="#111827" stroke-width="1.2"/>
  <line x1="70" y1="50" x2="70" y2="350" stroke="#111827" stroke-width="1.2"/>
  <line x1="70.00" y1="350" x2="70.00" y2="356" stroke="#9ca3af" stroke-width="1"/>
  <text x="70.00" y="372" font-size="10" fill="#6b7280" text-anchor="middle">2026-02-28 18</text>
  <line x1="144.54" y1="350" x2="144.54" y2="356" stroke="#9ca3af" stroke-width="1"/>
  <text x="144.54" y="372" font-size="10" fill="#6b7280" text-anchor="middle">2026-03-09 03</text>
  <line x1="219.08" y1="350" x2="219.08" y2="356" stroke="#9ca3af" stroke-width="1"/>
  <text x="219.08" y="372" font-size="10" fill="#6b7280" text-anchor="middle">2026-03-11 07</text>
  <line x1="293.62" y1="350" x2="293.62" y2="356" stroke="#9ca3af" stroke-width="1"/>
  <text x="293.62" y="372" font-size="10" fill="#6b7280" text-anchor="middle">2026-03-13 13</text>
  <line x1="368.16" y1="350" x2="368.16" y2="356" stroke="#9ca3af" stroke-width="1"/>
  <text x="368.16" y="372" font-size="10" fill="#6b7280" text-anchor="middle">2026-03-16 02</text>
  <line x1="442.70" y1="350" x2="442.70" y2="356" stroke="#9ca3af" stroke-width="1"/>
  <text x="442.70" y="372" font-size="10" fill="#6b7280" text-anchor="middle">2026-03-19 08</text>
  <line x1="517.24" y1="350" x2="517.24" y2="356" stroke="#9ca3af" stroke-width="1"/>
  <text x="517.24" y="372" font-size="10" fill="#6b7280" text-anchor="middle">2026-03-22 04</text>
  <line x1="591.77" y1="350" x2="591.77" y2="356" stroke="#9ca3af" stroke-width="1"/>
  <text x="591.77" y="372" font-size="10" fill="#6b7280" text-anchor="middle">2026-03-25 06</text>
  <line x1="666.31" y1="350" x2="666.31" y2="356" stroke="#9ca3af" stroke-width="1"/>
  <text x="666.31" y="372" font-size="10" fill="#6b7280" text-anchor="middle">2026-03-28 14</text>
  <line x1="740.85" y1="350" x2="740.85" y2="356" stroke="#9ca3af" stroke-width="1"/>
  <text x="740.85" y="372" font-size="10" fill="#6b7280" text-anchor="middle">2026-03-31 20</text>
  <line x1="815.39" y1="350" x2="815.39" y2="356" stroke="#9ca3af" stroke-width="1"/>
  <text x="815.39" y="372" font-size="10" fill="#6b7280" text-anchor="middle">2026-04-04 02</text>
  <line x1="889.93" y1="350" x2="889.93" y2="356" stroke="#9ca3af" stroke-width="1"/>
  <text x="889.93" y="372" font-size="10" fill="#6b7280" text-anchor="middle">2026-04-07 07</text>
  <line x1="964.47" y1="350" x2="964.47" y2="356" stroke="#9ca3af" stroke-width="1"/>
  <text x="964.47" y="372" font-size="10" fill="#6b7280" text-anchor="middle">2026-04-10 21</text>
  <line x1="980.00" y1="350" x2="980.00" y2="356" stroke="#9ca3af" stroke-width="1"/>
  <text x="980.00" y="372" font-size="10" fill="#6b7280" text-anchor="middle">2026-04-11 08</text>
  <polyline fill="none" stroke="#2563eb" stroke-width="2.5" points="70.00,50.00 71.55,50.12 73.11,50.17 74.66,50.46 76.21,50.00 77.76,266.90 79.32,50.12 80.87,50.08 82.42,177.46 83.98,211.58 85.53,175.34 87.08,304.14 88.63,200.46 90.19,250.94 91.74,300.01 93.29,300.06 94.85,300.01 96.40,300.01 97.95,348.00 99.51,300.01 101.06,249.99 102.61,200.00 104.16,249.99 105.72,249.99 107.27,250.03 108.82,250.03 110.38,250.03 111.93,250.40 113.48,250.90 115.03,250.90 116.59,251.32 118.14,249.94 119.69,300.01 121.25,299.93 122.80,251.03 124.35,300.68 125.90,250.03 127.46,200.00 129.01,249.99 130.56,250.03 132.12,250.03 133.67,250.03 135.22,300.01 136.77,200.04 138.33,250.03 139.88,250.03 141.43,250.03 142.99,249.90 144.54,250.03 146.09,250.03 147.65,250.94 149.20,250.44 150.75,250.03 152.30,250.03 153.86,300.47 155.41,300.01 156.96,300.43 158.52,250.03 160.07,249.99 161.62,300.43 163.17,249.90 164.73,249.99 166.28,249.99 167.83,200.04 169.39,300.01 170.94,300.01 172.49,300.01 174.04,249.90 175.60,300.01 177.15,250.03 178.70,249.99 180.26,199.96 181.81,300.01 183.36,200.00 184.91,250.36 186.47,250.03 188.02,300.01 189.57,300.01 191.13,250.44 192.68,300.01 194.23,250.03 195.78,250.03 197.34,249.99 198.89,250.49 200.44,250.03 202.00,200.04 203.55,300.01 205.10,250.03 206.66,300.01 208.21,250.11 209.76,300.01 211.31,250.03 212.87,250.03 214.42,199.92 215.97,250.03 217.53,250.03 219.08,250.03 220.63,254.36 222.18,300.01 223.74,299.97 225.29,250.36 226.84,299.97 228.40,250.03 229.95,250.03 231.50,250.03 233.05,250.03 234.61,249.99 236.16,200.00 237.71,299.93 239.27,300.01 240.82,299.97 242.37,249.94 243.92,249.99 245.48,249.82 247.03,249.94 248.58,250.28 250.14,207.00 251.69,250.03 253.24,250.32 254.80,250.40 256.35,300.93 257.90,300.01 259.45,300.10 261.01,249.94 262.56,249.99 264.11,250.07 265.67,249.99 267.22,250.03 268.77,249.94 270.32,200.00 271.88,300.39 273.43,300.01 274.98,300.01 276.54,250.44 278.09,300.39 279.64,249.86 281.19,250.11 282.75,201.46 284.30,300.01 285.85,200.83 287.41,250.03 288.96,249.99 290.51,300.26 292.06,300.01 293.62,300.01 295.17,250.03 296.72,250.03 298.28,250.03 299.83,250.03 301.38,249.99 302.94,250.03 304.49,200.00 306.04,300.26 307.59,249.99 309.15,300.01 310.70,249.94 312.25,250.03 313.81,250.03 315.36,250.03 316.91,200.04 318.46,300.01 320.02,249.90 321.57,300.01 323.12,300.01 324.68,300.06 326.23,300.01 327.78,300.01 329.33,243.95 330.89,249.94 332.44,299.97 333.99,300.01 335.55,300.01 337.10,250.03 338.65,300.01 340.20,300.01 341.76,299.97 343.31,249.99 344.86,300.01 346.42,299.93 347.97,300.01 349.52,299.93 351.08,300.01 352.63,300.01 354.18,299.89 355.73,299.97 357.29,250.03 358.84,299.93 360.39,299.89 361.95,299.97 363.50,249.94 365.05,300.01 366.60,300.01 368.16,299.97 369.71,249.99 371.26,299.97 372.82,299.97 374.37,300.06 375.92,300.06 377.47,299.93 379.03,300.01 380.58,300.01 382.13,299.93 383.69,300.01 385.24,300.01 386.79,299.97 388.34,300.01 389.90,300.01 391.45,300.01 393.00,300.01 394.56,249.86 396.11,300.01 397.66,300.10 399.22,299.93 400.77,300.01 402.32,299.93 403.87,300.01 405.43,300.01 406.98,300.01 408.53,300.01 410.09,300.01 411.64,299.97 413.19,300.01 414.74,300.01 416.30,300.01 417.85,300.01 419.40,250.03 420.96,300.01 422.51,300.01 424.06,299.97 425.61,300.01 427.17,300.01 428.72,299.97 430.27,299.97 431.83,300.01 433.38,299.97 434.93,300.01 436.48,299.93 438.04,300.01 439.59,250.03 441.14,300.01 442.70,300.01 444.25,300.01 445.80,300.01 447.35,300.01 448.91,299.89 450.46,300.01 452.01,300.01 453.57,250.07 455.12,300.01 456.67,299.93 458.23,300.01 459.78,299.97 461.33,299.97 462.88,299.97 464.44,250.03 465.99,300.01 467.54,300.01 469.10,300.01 470.65,300.01 472.20,299.97 473.75,300.01 475.31,299.97 476.86,300.01 478.41,299.97 479.97,249.90 481.52,300.01 483.07,300.01 484.62,299.89 486.18,299.97 487.73,299.97 489.28,249.99 490.84,299.97 492.39,299.89 493.94,300.01 495.49,299.97 497.05,299.97 498.60,300.01 500.15,299.97 501.71,249.99 503.26,299.97 504.81,299.97 506.37,300.06 507.92,300.06 509.47,249.94 511.02,300.01 512.58,299.93 514.13,300.01 515.68,300.01 517.24,249.99 518.79,300.01 520.34,300.01 521.89,300.01 523.45,299.93 525.00,299.93 526.55,300.01 528.11,300.01 529.66,249.94 531.21,299.97 532.76,299.97 534.32,300.01 535.87,300.01 537.42,300.01 538.98,249.99 540.53,300.01 542.08,300.01 543.63,300.01 545.19,250.03 546.74,300.01 548.29,300.01 549.85,300.01 551.40,299.97 552.95,300.01 554.51,300.01 556.06,299.97 557.61,299.97 559.16,300.01 560.72,300.01 562.27,299.97 563.82,299.93 565.38,300.01 566.93,300.06 568.48,299.97 570.03,300.01 571.59,250.03 573.14,250.03 574.69,299.93 576.25,299.97 577.80,300.01 579.35,300.01 580.90,300.06 582.46,300.01 584.01,299.93 585.56,300.01 587.12,300.01 588.67,299.97 590.22,299.97 591.77,300.01 593.33,250.03 594.88,300.01 596.43,300.01 597.99,300.01 599.54,299.97 601.09,300.01 602.65,299.97 604.20,300.01 605.75,299.97 607.30,299.97 608.86,299.93 610.41,300.01 611.96,300.01 613.52,299.89 615.07,299.97 616.62,299.97 618.17,300.06 619.73,249.90 621.28,299.89 622.83,300.01 624.39,299.97 625.94,299.97 627.49,299.97 629.04,300.01 630.60,300.01 632.15,299.97 633.70,299.97 635.26,299.97 636.81,250.03 638.36,299.93 639.91,300.01 641.47,300.01 643.02,299.93 644.57,300.01 646.13,300.01 647.68,299.97 649.23,300.01 650.78,300.01 652.34,300.06 653.89,300.01 655.44,299.97 657.00,299.89 658.55,300.01 660.10,300.01 661.66,249.94 663.21,249.94 664.76,300.01 666.31,300.01 667.87,300.01 669.42,300.01 670.97,299.97 672.53,250.03 674.08,300.01 675.63,300.01 677.18,300.01 678.74,300.01 680.29,250.03 681.84,249.99 683.40,300.01 684.95,299.97 686.50,300.01 688.05,299.97 689.61,300.01 691.16,299.97 692.71,299.97 694.27,299.97 695.82,300.06 697.37,249.99 698.92,300.01 700.48,250.03 702.03,249.94 703.58,249.99 705.14,300.01 706.69,300.06 708.24,300.01 709.80,299.97 711.35,299.97 712.90,300.01 714.45,299.93 716.01,299.89 717.56,299.89 719.11,299.89 720.67,299.89 722.22,299.85 723.77,299.85 725.32,299.89 726.88,299.81 728.43,299.81 729.98,299.81 731.54,299.76 733.09,299.76 734.64,299.76 736.19,299.72 737.75,299.68 739.30,299.60 740.85,299.60 742.41,299.60 743.96,299.56 745.51,299.47 747.06,299.43 748.62,299.43 750.17,299.39 751.72,299.47 753.28,259.82 754.83,338.96 756.38,299.31 757.94,299.31 759.49,299.26 761.04,299.68 762.59,299.68 764.15,299.68 765.70,299.64 767.25,299.14 768.81,299.14 770.36,299.10 771.91,299.10 773.46,299.10 775.02,248.07 776.57,299.06 778.12,299.06 779.68,299.06 781.23,299.06 782.78,299.06 784.33,298.97 785.89,298.97 787.44,298.93 788.99,298.97 790.55,298.93 792.10,298.89 793.65,298.89 795.20,298.89 796.76,298.89 798.31,247.78 799.86,298.89 801.42,298.89 802.97,298.85 804.52,298.85 806.08,298.81 807.63,298.81 809.18,298.81 810.73,298.81 812.29,298.81 813.84,298.81 815.39,298.81 816.95,298.81 818.50,298.81 820.05,298.72 821.60,247.45 823.16,247.45 824.71,298.72 826.26,298.72 827.82,298.72 829.37,298.72 830.92,298.72 832.47,298.72 834.03,247.36 835.58,298.68 837.13,247.36 838.69,247.36 840.24,247.36 841.79,298.68 843.34,298.68 844.90,298.68 846.45,298.68 848.00,298.68 849.56,341.67 851.11,307.01 852.66,298.68 854.22,298.68 855.77,298.68 857.32,247.36 858.87,298.64 860.43,247.36 861.98,247.28 863.53,247.20 865.09,298.60 866.64,298.60 868.19,247.03 869.74,298.51 871.30,298.51 872.85,298.51 874.40,298.51 875.96,298.51 877.51,298.51 879.06,298.51 880.61,298.51 882.17,298.51 883.72,298.51 885.27,298.51 886.83,298.51 888.38,298.51 889.93,298.51 891.48,298.51 893.04,298.51 894.59,298.51 896.14,298.51 897.70,298.51 899.25,298.51 900.80,298.51 902.35,298.51 903.91,298.51 905.46,298.51 907.01,298.51 908.57,298.51 910.12,298.47 911.67,298.51 913.23,298.51 914.78,298.47 916.33,298.51 917.88,298.47 919.44,298.51 920.99,298.43 922.54,298.56 924.10,298.43 925.65,298.43 927.20,298.43 928.75,298.43 930.31,298.43 931.86,298.43 933.41,298.43 934.97,298.43 936.52,298.43 938.07,298.43 939.62,298.43 941.18,298.43 942.73,298.43 944.28,298.43 945.84,298.43 947.39,298.43 948.94,298.43 950.49,298.43 952.05,298.43 953.60,298.43 955.15,298.43 956.71,298.43 958.26,298.43 959.81,298.43 961.37,298.43 962.92,298.43 964.47,298.43 966.02,298.43 967.58,298.43 969.13,298.43 970.68,298.43 972.24,298.43 973.79,298.43 975.34,298.43 976.89,298.39 978.45,298.39 980.00,298.43"/>
  <circle cx="70.00" cy="50.00" r="2.5" fill="#2563eb"/>
  <circle cx="71.55" cy="50.12" r="2.5" fill="#2563eb"/>
  <circle cx="73.11" cy="50.17" r="2.5" fill="#2563eb"/>
  <circle cx="74.66" cy="50.46" r="2.5" fill="#2563eb"/>
  <circle cx="76.21" cy="50.00" r="2.5" fill="#2563eb"/>
  <circle cx="77.76" cy="266.90" r="2.5" fill="#2563eb"/>
  <circle cx="79.32" cy="50.12" r="2.5" fill="#2563eb"/>
  <circle cx="80.87" cy="50.08" r="2.5" fill="#2563eb"/>
  <circle cx="82.42" cy="177.46" r="2.5" fill="#2563eb"/>
  <circle cx="83.98" cy="211.58" r="2.5" fill="#2563eb"/>
  <circle cx="85.53" cy="175.34" r="2.5" fill="#2563eb"/>
  <circle cx="87.08" cy="304.14" r="2.5" fill="#2563eb"/>
  <circle cx="88.63" cy="200.46" r="2.5" fill="#2563eb"/>
  <circle cx="90.19" cy="250.94" r="2.5" fill="#2563eb"/>
  <circle cx="91.74" cy="300.01" r="2.5" fill="#2563eb"/>
  <circle cx="93.29" cy="300.06" r="2.5" fill="#2563eb"/>
  <circle cx="94.85" cy="300.01" r="2.5" fill="#2563eb"/>
  <circle cx="96.40" cy="300.01" r="2.5" fill="#2563eb"/>
  <circle cx="97.95" cy="348.00" r="2.5" fill="#2563eb"/>
  <circle cx="99.51" cy="300.01" r="2.5" fill="#2563eb"/>
  <circle cx="101.06" cy="249.99" r="2.5" fill="#2563eb"/>
  <circle cx="102.61" cy="200.00" r="2.5" fill="#2563eb"/>
  <circle cx="104.16" cy="249.99" r="2.5" fill="#2563eb"/>
  <circle cx="105.72" cy="249.99" r="2.5" fill="#2563eb"/>
  <circle cx="107.27" cy="250.03" r="2.5" fill="#2563eb"/>
  <circle cx="108.82" cy="250.03" r="2.5" fill="#2563eb"/>
  <circle cx="110.38" cy="250.03" r="2.5" fill="#2563eb"/>
  <circle cx="111.93" cy="250.40" r="2.5" fill="#2563eb"/>
  <circle cx="113.48" cy="250.90" r="2.5" fill="#2563eb"/>
  <circle cx="115.03" cy="250.90" r="2.5" fill="#2563eb"/>
  <circle cx="116.59" cy="251.32" r="2.5" fill="#2563eb"/>
  <circle cx="118.14" cy="249.94" r="2.5" fill="#2563eb"/>
  <circle cx="119.69" cy="300.01" r="2.5" fill="#2563eb"/>
  <circle cx="121.25" cy="299.93" r="2.5" fill="#2563eb"/>
  <circle cx="122.80" cy="251.03" r="2.5" fill="#2563eb"/>
  <circle cx="124.35" cy="300.68" r="2.5" fill="#2563eb"/>
  <circle cx="125.90" cy="250.03" r="2.5" fill="#2563eb"/>
  <circle cx="127.46" cy="200.00" r="2.5" fill="#2563eb"/>
  <circle cx="129.01" cy="249.99" r="2.5" fill="#2563eb"/>
  <circle cx="130.56" cy="250.03" r="2.5" fill="#2563eb"/>
  <circle cx="132.12" cy="250.03" r="2.5" fill="#2563eb"/>
  <circle cx="133.67" cy="250.03" r="2.5" fill="#2563eb"/>
  <circle cx="135.22" cy="300.01" r="2.5" fill="#2563eb"/>
  <circle cx="136.77" cy="200.04" r="2.5" fill="#2563eb"/>
  <circle cx="138.33" cy="250.03" r="2.5" fill="#2563eb"/>
  <circle cx="139.88" cy="250.03" r="2.5" fill="#2563eb"/>
  <circle cx="141.43" cy="250.03" r="2.5" fill="#2563eb"/>
  <circle cx="142.99" cy="249.90" r="2.5" fill="#2563eb"/>
  <circle cx="144.54" cy="250.03" r="2.5" fill="#2563eb"/>
  <circle cx="146.09" cy="250.03" r="2.5" fill="#2563eb"/>
  <circle cx="147.65" cy="250.94" r="2.5" fill="#2563eb"/>
  <circle cx="149.20" cy="250.44" r="2.5" fill="#2563eb"/>
  <circle cx="150.75" cy="250.03" r="2.5" fill="#2563eb"/>
  <circle cx="152.30" cy="250.03" r="2.5" fill="#2563eb"/>
  <circle cx="153.86" cy="300.47" r="2.5" fill="#2563eb"/>
  <circle cx="155.41" cy="300.01" r="2.5" fill="#2563eb"/>
  <circle cx="156.96" cy="300.43" r="2.5" fill="#2563eb"/>
  <circle cx="158.52" cy="250.03" r="2.5" fill="#2563eb"/>
  <circle cx="160.07" cy="249.99" r="2.5" fill="#2563eb"/>
  <circle cx="161.62" cy="300.43" r="2.5" fill="#2563eb"/>
  <circle cx="163.17" cy="249.90" r="2.5" fill="#2563eb"/>
  <circle cx="164.73" cy="249.99" r="2.5" fill="#2563eb"/>
  <circle cx="166.28" cy="249.99" r="2.5" fill="#2563eb"/>
  <circle cx="167.83" cy="200.04" r="2.5" fill="#2563eb"/>
  <circle cx="169.39" cy="300.01" r="2.5" fill="#2563eb"/>
  <circle cx="170.94" cy="300.01" r="2.5" fill="#2563eb"/>
  <circle cx="172.49" cy="300.01" r="2.5" fill="#2563eb"/>
  <circle cx="174.04" cy="249.90" r="2.5" fill="#2563eb"/>
  <circle cx="175.60" cy="300.01" r="2.5" fill="#2563eb"/>
  <circle cx="177.15" cy="250.03" r="2.5" fill="#2563eb"/>
  <circle cx="178.70" cy="249.99" r="2.5" fill="#2563eb"/>
  <circle cx="180.26" cy="199.96" r="2.5" fill="#2563eb"/>
  <circle cx="181.81" cy="300.01" r="2.5" fill="#2563eb"/>
  <circle cx="183.36" cy="200.00" r="2.5" fill="#2563eb"/>
  <circle cx="184.91" cy="250.36" r="2.5" fill="#2563eb"/>
  <circle cx="186.47" cy="250.03" r="2.5" fill="#2563eb"/>
  <circle cx="188.02" cy="300.01" r="2.5" fill="#2563eb"/>
  <circle cx="189.57" cy="300.01" r="2.5" fill="#2563eb"/>
  <circle cx="191.13" cy="250.44" r="2.5" fill="#2563eb"/>
  <circle cx="192.68" cy="300.01" r="2.5" fill="#2563eb"/>
  <circle cx="194.23" cy="250.03" r="2.5" fill="#2563eb"/>
  <circle cx="195.78" cy="250.03" r="2.5" fill="#2563eb"/>
  <circle cx="197.34" cy="249.99" r="2.5" fill="#2563eb"/>
  <circle cx="198.89" cy="250.49" r="2.5" fill="#2563eb"/>
  <circle cx="200.44" cy="250.03" r="2.5" fill="#2563eb"/>
  <circle cx="202.00" cy="200.04" r="2.5" fill="#2563eb"/>
  <circle cx="203.55" cy="300.01" r="2.5" fill="#2563eb"/>
  <circle cx="205.10" cy="250.03" r="2.5" fill="#2563eb"/>
  <circle cx="206.66" cy="300.01" r="2.5" fill="#2563eb"/>
  <circle cx="208.21" cy="250.11" r="2.5" fill="#2563eb"/>
  <circle cx="209.76" cy="300.01" r="2.5" fill="#2563eb"/>
  <circle cx="211.31" cy="250.03" r="2.5" fill="#2563eb"/>
  <circle cx="212.87" cy="250.03" r="2.5" fill="#2563eb"/>
  <circle cx="214.42" cy="199.92" r="2.5" fill="#2563eb"/>
  <circle cx="215.97" cy="250.03" r="2.5" fill="#2563eb"/>
  <circle cx="217.53" cy="250.03" r="2.5" fill="#2563eb"/>
  <circle cx="219.08" cy="250.03" r="2.5" fill="#2563eb"/>
  <circle cx="220.63" cy="254.36" r="2.5" fill="#2563eb"/>
  <circle cx="222.18" cy="300.01" r="2.5" fill="#2563eb"/>
  <circle cx="223.74" cy="299.97" r="2.5" fill="#2563eb"/>
  <circle cx="225.29" cy="250.36" r="2.5" fill="#2563eb"/>
  <circle cx="226.84" cy="299.97" r="2.5" fill="#2563eb"/>
  <circle cx="228.40" cy="250.03" r="2.5" fill="#2563eb"/>
  <circle cx="229.95" cy="250.03" r="2.5" fill="#2563eb"/>
  <circle cx="231.50" cy="250.03" r="2.5" fill="#2563eb"/>
  <circle cx="233.05" cy="250.03" r="2.5" fill="#2563eb"/>
  <circle cx="234.61" cy="249.99" r="2.5" fill="#2563eb"/>
  <circle cx="236.16" cy="200.00" r="2.5" fill="#2563eb"/>
  <circle cx="237.71" cy="299.93" r="2.5" fill="#2563eb"/>
  <circle cx="239.27" cy="300.01" r="2.5" fill="#2563eb"/>
  <circle cx="240.82" cy="299.97" r="2.5" fill="#2563eb"/>
  <circle cx="242.37" cy="249.94" r="2.5" fill="#2563eb"/>
  <circle cx="243.92" cy="249.99" r="2.5" fill="#2563eb"/>
  <circle cx="245.48" cy="249.82" r="2.5" fill="#2563eb"/>
  <circle cx="247.03" cy="249.94" r="2.5" fill="#2563eb"/>
  <circle cx="248.58" cy="250.28" r="2.5" fill="#2563eb"/>
  <circle cx="250.14" cy="207.00" r="2.5" fill="#2563eb"/>
  <circle cx="251.69" cy="250.03" r="2.5" fill="#2563eb"/>
  <circle cx="253.24" cy="250.32" r="2.5" fill="#2563eb"/>
  <circle cx="254.80" cy="250.40" r="2.5" fill="#2563eb"/>
  <circle cx="256.35" cy="300.93" r="2.5" fill="#2563eb"/>
  <circle cx="257.90" cy="300.01" r="2.5" fill="#2563eb"/>
  <circle cx="259.45" cy="300.10" r="2.5" fill="#2563eb"/>
  <circle cx="261.01" cy="249.94" r="2.5" fill="#2563eb"/>
  <circle cx="262.56" cy="249.99" r="2.5" fill="#2563eb"/>
  <circle cx="264.11" cy="250.07" r="2.5" fill="#2563eb"/>
  <circle cx="265.67" cy="249.99" r="2.5" fill="#2563eb"/>
  <circle cx="267.22" cy="250.03" r="2.5" fill="#2563eb"/>
  <circle cx="268.77" cy="249.94" r="2.5" fill="#2563eb"/>
  <circle cx="270.32" cy="200.00" r="2.5" fill="#2563eb"/>
  <circle cx="271.88" cy="300.39" r="2.5" fill="#2563eb"/>
  <circle cx="273.43" cy="300.01" r="2.5" fill="#2563eb"/>
  <circle cx="274.98" cy="300.01" r="2.5" fill="#2563eb"/>
  <circle cx="276.54" cy="250.44" r="2.5" fill="#2563eb"/>
  <circle cx="278.09" cy="300.39" r="2.5" fill="#2563eb"/>
  <circle cx="279.64" cy="249.86" r="2.5" fill="#2563eb"/>
  <circle cx="281.19" cy="250.11" r="2.5" fill="#2563eb"/>
  <circle cx="282.75" cy="201.46" r="2.5" fill="#2563eb"/>
  <circle cx="284.30" cy="300.01" r="2.5" fill="#2563eb"/>
  <circle cx="285.85" cy="200.83" r="2.5" fill="#2563eb"/>
  <circle cx="287.41" cy="250.03" r="2.5" fill="#2563eb"/>
  <circle cx="288.96" cy="249.99" r="2.5" fill="#2563eb"/>
  <circle cx="290.51" cy="300.26" r="2.5" fill="#2563eb"/>
  <circle cx="292.06" cy="300.01" r="2.5" fill="#2563eb"/>
  <circle cx="293.62" cy="300.01" r="2.5" fill="#2563eb"/>
  <circle cx="295.17" cy="250.03" r="2.5" fill="#2563eb"/>
  <circle cx="296.72" cy="250.03" r="2.5" fill="#2563eb"/>
  <circle cx="298.28" cy="250.03" r="2.5" fill="#2563eb"/>
  <circle cx="299.83" cy="250.03" r="2.5" fill="#2563eb"/>
  <circle cx="301.38" cy="249.99" r="2.5" fill="#2563eb"/>
  <circle cx="302.94" cy="250.03" r="2.5" fill="#2563eb"/>
  <circle cx="304.49" cy="200.00" r="2.5" fill="#2563eb"/>
  <circle cx="306.04" cy="300.26" r="2.5" fill="#2563eb"/>
  <circle cx="307.59" cy="249.99" r="2.5" fill="#2563eb"/>
  <circle cx="309.15" cy="300.01" r="2.5" fill="#2563eb"/>
  <circle cx="310.70" cy="249.94" r="2.5" fill="#2563eb"/>
  <circle cx="312.25" cy="250.03" r="2.5" fill="#2563eb"/>
  <circle cx="313.81" cy="250.03" r="2.5" fill="#2563eb"/>
  <circle cx="315.36" cy="250.03" r="2.5" fill="#2563eb"/>
  <circle cx="316.91" cy="200.04" r="2.5" fill="#2563eb"/>
  <circle cx="318.46" cy="300.01" r="2.5" fill="#2563eb"/>
  <circle cx="320.02" cy="249.90" r="2.5" fill="#2563eb"/>
  <circle cx="321.57" cy="300.01" r="2.5" fill="#2563eb"/>
  <circle cx="323.12" cy="300.01" r="2.5" fill="#2563eb"/>
  <circle cx="324.68" cy="300.06" r="2.5" fill="#2563eb"/>
  <circle cx="326.23" cy="300.01" r="2.5" fill="#2563eb"/>
  <circle cx="327.78" cy="300.01" r="2.5" fill="#2563eb"/>
  <circle cx="329.33" cy="243.95" r="2.5" fill="#2563eb"/>
  <circle cx="330.89" cy="249.94" r="2.5" fill="#2563eb"/>
  <circle cx="332.44" cy="299.97" r="2.5" fill="#2563eb"/>
  <circle cx="333.99" cy="300.01" r="2.5" fill="#2563eb"/>
  <circle cx="335.55" cy="300.01" r="2.5" fill="#2563eb"/>
  <circle cx="337.10" cy="250.03" r="2.5" fill="#2563eb"/>
  <circle cx="338.65" cy="300.01" r="2.5" fill="#2563eb"/>
  <circle cx="340.20" cy="300.01" r="2.5" fill="#2563eb"/>
  <circle cx="341.76" cy="299.97" r="2.5" fill="#2563eb"/>
  <circle cx="343.31" cy="249.99" r="2.5" fill="#2563eb"/>
  <circle cx="344.86" cy="300.01" r="2.5" fill="#2563eb"/>
  <circle cx="346.42" cy="299.93" r="2.5" fill="#2563eb"/>
  <circle cx="347.97" cy="300.01" r="2.5" fill="#2563eb"/>
  <circle cx="349.52" cy="299.93" r="2.5" fill="#2563eb"/>
  <circle cx="351.08" cy="300.01" r="2.5" fill="#2563eb"/>
  <circle cx="352.63" cy="300.01" r="2.5" fill="#2563eb"/>
  <circle cx="354.18" cy="299.89" r="2.5" fill="#2563eb"/>
  <circle cx="355.73" cy="299.97" r="2.5" fill="#2563eb"/>
  <circle cx="357.29" cy="250.03" r="2.5" fill="#2563eb"/>
  <circle cx="358.84" cy="299.93" r="2.5" fill="#2563eb"/>
  <circle cx="360.39" cy="299.89" r="2.5" fill="#2563eb"/>
  <circle cx="361.95" cy="299.97" r="2.5" fill="#2563eb"/>
  <circle cx="363.50" cy="249.94" r="2.5" fill="#2563eb"/>
  <circle cx="365.05" cy="300.01" r="2.5" fill="#2563eb"/>
  <circle cx="366.60" cy="300.01" r="2.5" fill="#2563eb"/>
  <circle cx="368.16" cy="299.97" r="2.5" fill="#2563eb"/>
  <circle cx="369.71" cy="249.99" r="2.5" fill="#2563eb"/>
  <circle cx="371.26" cy="299.97" r="2.5" fill="#2563eb"/>
  <circle cx="372.82" cy="299.97" r="2.5" fill="#2563eb"/>
  <circle cx="374.37" cy="300.06" r="2.5" fill="#2563eb"/>
  <circle cx="375.92" cy="300.06" r="2.5" fill="#2563eb"/>
  <circle cx="377.47" cy="299.93" r="2.5" fill="#2563eb"/>
  <circle cx="379.03" cy="300.01" r="2.5" fill="#2563eb"/>
  <circle cx="380.58" cy="300.01" r="2.5" fill="#2563eb"/>
  <circle cx="382.13" cy="299.93" r="2.5" fill="#2563eb"/>
  <circle cx="383.69" cy="300.01" r="2.5" fill="#2563eb"/>
  <circle cx="385.24" cy="300.01" r="2.5" fill="#2563eb"/>
  <circle cx="386.79" cy="299.97" r="2.5" fill="#2563eb"/>
  <circle cx="388.34" cy="300.01" r="2.5" fill="#2563eb"/>
  <circle cx="389.90" cy="300.01" r="2.5" fill="#2563eb"/>
  <circle cx="391.45" cy="300.01" r="2.5" fill="#2563eb"/>
  <circle cx="393.00" cy="300.01" r="2.5" fill="#2563eb"/>
  <circle cx="394.56" cy="249.86" r="2.5" fill="#2563eb"/>
  <circle cx="396.11" cy="300.01" r="2.5" fill="#2563eb"/>
  <circle cx="397.66" cy="300.10" r="2.5" fill="#2563eb"/>
  <circle cx="399.22" cy="299.93" r="2.5" fill="#2563eb"/>
  <circle cx="400.77" cy="300.01" r="2.5" fill="#2563eb"/>
  <circle cx="402.32" cy="299.93" r="2.5" fill="#2563eb"/>
  <circle cx="403.87" cy="300.01" r="2.5" fill="#2563eb"/>
  <circle cx="405.43" cy="300.01" r="2.5" fill="#2563eb"/>
  <circle cx="406.98" cy="300.01" r="2.5" fill="#2563eb"/>
  <circle cx="408.53" cy="300.01" r="2.5" fill="#2563eb"/>
  <circle cx="410.09" cy="300.01" r="2.5" fill="#2563eb"/>
  <circle cx="411.64" cy="299.97" r="2.5" fill="#2563eb"/>
  <circle cx="413.19" cy="300.01" r="2.5" fill="#2563eb"/>
  <circle cx="414.74" cy="300.01" r="2.5" fill="#2563eb"/>
  <circle cx="416.30" cy="300.01" r="2.5" fill="#2563eb"/>
  <circle cx="417.85" cy="300.01" r="2.5" fill="#2563eb"/>
  <circle cx="419.40" cy="250.03" r="2.5" fill="#2563eb"/>
  <circle cx="420.96" cy="300.01" r="2.5" fill="#2563eb"/>
  <circle cx="422.51" cy="300.01" r="2.5" fill="#2563eb"/>
  <circle cx="424.06" cy="299.97" r="2.5" fill="#2563eb"/>
  <circle cx="425.61" cy="300.01" r="2.5" fill="#2563eb"/>
  <circle cx="427.17" cy="300.01" r="2.5" fill="#2563eb"/>
  <circle cx="428.72" cy="299.97" r="2.5" fill="#2563eb"/>
  <circle cx="430.27" cy="299.97" r="2.5" fill="#2563eb"/>
  <circle cx="431.83" cy="300.01" r="2.5" fill="#2563eb"/>
  <circle cx="433.38" cy="299.97" r="2.5" fill="#2563eb"/>
  <circle cx="434.93" cy="300.01" r="2.5" fill="#2563eb"/>
  <circle cx="436.48" cy="299.93" r="2.5" fill="#2563eb"/>
  <circle cx="438.04" cy="300.01" r="2.5" fill="#2563eb"/>
  <circle cx="439.59" cy="250.03" r="2.5" fill="#2563eb"/>
  <circle cx="441.14" cy="300.01" r="2.5" fill="#2563eb"/>
  <circle cx="442.70" cy="300.01" r="2.5" fill="#2563eb"/>
  <circle cx="444.25" cy="300.01" r="2.5" fill="#2563eb"/>
  <circle cx="445.80" cy="300.01" r="2.5" fill="#2563eb"/>
  <circle cx="447.35" cy="300.01" r="2.5" fill="#2563eb"/>
  <circle cx="448.91" cy="299.89" r="2.5" fill="#2563eb"/>
  <circle cx="450.46" cy="300.01" r="2.5" fill="#2563eb"/>
  <circle cx="452.01" cy="300.01" r="2.5" fill="#2563eb"/>
  <circle cx="453.57" cy="250.07" r="2.5" fill="#2563eb"/>
  <circle cx="455.12" cy="300.01" r="2.5" fill="#2563eb"/>
  <circle cx="456.67" cy="299.93" r="2.5" fill="#2563eb"/>
  <circle cx="458.23" cy="300.01" r="2.5" fill="#2563eb"/>
  <circle cx="459.78" cy="299.97" r="2.5" fill="#2563eb"/>
  <circle cx="461.33" cy="299.97" r="2.5" fill="#2563eb"/>
  <circle cx="462.88" cy="299.97" r="2.5" fill="#2563eb"/>
  <circle cx="464.44" cy="250.03" r="2.5" fill="#2563eb"/>
  <circle cx="465.99" cy="300.01" r="2.5" fill="#2563eb"/>
  <circle cx="467.54" cy="300.01" r="2.5" fill="#2563eb"/>
  <circle cx="469.10" cy="300.01" r="2.5" fill="#2563eb"/>
  <circle cx="470.65" cy="300.01" r="2.5" fill="#2563eb"/>
  <circle cx="472.20" cy="299.97" r="2.5" fill="#2563eb"/>
  <circle cx="473.75" cy="300.01" r="2.5" fill="#2563eb"/>
  <circle cx="475.31" cy="299.97" r="2.5" fill="#2563eb"/>
  <circle cx="476.86" cy="300.01" r="2.5" fill="#2563eb"/>
  <circle cx="478.41" cy="299.97" r="2.5" fill="#2563eb"/>
  <circle cx="479.97" cy="249.90" r="2.5" fill="#2563eb"/>
  <circle cx="481.52" cy="300.01" r="2.5" fill="#2563eb"/>
  <circle cx="483.07" cy="300.01" r="2.5" fill="#2563eb"/>
  <circle cx="484.62" cy="299.89" r="2.5" fill="#2563eb"/>
  <circle cx="486.18" cy="299.97" r="2.5" fill="#2563eb"/>
  <circle cx="487.73" cy="299.97" r="2.5" fill="#2563eb"/>
  <circle cx="489.28" cy="249.99" r="2.5" fill="#2563eb"/>
  <circle cx="490.84" cy="299.97" r="2.5" fill="#2563eb"/>
  <circle cx="492.39" cy="299.89" r="2.5" fill="#2563eb"/>
  <circle cx="493.94" cy="300.01" r="2.5" fill="#2563eb"/>
  <circle cx="495.49" cy="299.97" r="2.5" fill="#2563eb"/>
  <circle cx="497.05" cy="299.97" r="2.5" fill="#2563eb"/>
  <circle cx="498.60" cy="300.01" r="2.5" fill="#2563eb"/>
  <circle cx="500.15" cy="299.97" r="2.5" fill="#2563eb"/>
  <circle cx="501.71" cy="249.99" r="2.5" fill="#2563eb"/>
  <circle cx="503.26" cy="299.97" r="2.5" fill="#2563eb"/>
  <circle cx="504.81" cy="299.97" r="2.5" fill="#2563eb"/>
  <circle cx="506.37" cy="300.06" r="2.5" fill="#2563eb"/>
  <circle cx="507.92" cy="300.06" r="2.5" fill="#2563eb"/>
  <circle cx="509.47" cy="249.94" r="2.5" fill="#2563eb"/>
  <circle cx="511.02" cy="300.01" r="2.5" fill="#2563eb"/>
  <circle cx="512.58" cy="299.93" r="2.5" fill="#2563eb"/>
  <circle cx="514.13" cy="300.01" r="2.5" fill="#2563eb"/>
  <circle cx="515.68" cy="300.01" r="2.5" fill="#2563eb"/>
  <circle cx="517.24" cy="249.99" r="2.5" fill="#2563eb"/>
  <circle cx="518.79" cy="300.01" r="2.5" fill="#2563eb"/>
  <circle cx="520.34" cy="300.01" r="2.5" fill="#2563eb"/>
  <circle cx="521.89" cy="300.01" r="2.5" fill="#2563eb"/>
  <circle cx="523.45" cy="299.93" r="2.5" fill="#2563eb"/>
  <circle cx="525.00" cy="299.93" r="2.5" fill="#2563eb"/>
  <circle cx="526.55" cy="300.01" r="2.5" fill="#2563eb"/>
  <circle cx="528.11" cy="300.01" r="2.5" fill="#2563eb"/>
  <circle cx="529.66" cy="249.94" r="2.5" fill="#2563eb"/>
  <circle cx="531.21" cy="299.97" r="2.5" fill="#2563eb"/>
  <circle cx="532.76" cy="299.97" r="2.5" fill="#2563eb"/>
  <circle cx="534.32" cy="300.01" r="2.5" fill="#2563eb"/>
  <circle cx="535.87" cy="300.01" r="2.5" fill="#2563eb"/>
  <circle cx="537.42" cy="300.01" r="2.5" fill="#2563eb"/>
  <circle cx="538.98" cy="249.99" r="2.5" fill="#2563eb"/>
  <circle cx="540.53" cy="300.01" r="2.5" fill="#2563eb"/>
  <circle cx="542.08" cy="300.01" r="2.5" fill="#2563eb"/>
  <circle cx="543.63" cy="300.01" r="2.5" fill="#2563eb"/>
  <circle cx="545.19" cy="250.03" r="2.5" fill="#2563eb"/>
  <circle cx="546.74" cy="300.01" r="2.5" fill="#2563eb"/>
  <circle cx="548.29" cy="300.01" r="2.5" fill="#2563eb"/>
  <circle cx="549.85" cy="300.01" r="2.5" fill="#2563eb"/>
  <circle cx="551.40" cy="299.97" r="2.5" fill="#2563eb"/>
  <circle cx="552.95" cy="300.01" r="2.5" fill="#2563eb"/>
  <circle cx="554.51" cy="300.01" r="2.5" fill="#2563eb"/>
  <circle cx="556.06" cy="299.97" r="2.5" fill="#2563eb"/>
  <circle cx="557.61" cy="299.97" r="2.5" fill="#2563eb"/>
  <circle cx="559.16" cy="300.01" r="2.5" fill="#2563eb"/>
  <circle cx="560.72" cy="300.01" r="2.5" fill="#2563eb"/>
  <circle cx="562.27" cy="299.97" r="2.5" fill="#2563eb"/>
  <circle cx="563.82" cy="299.93" r="2.5" fill="#2563eb"/>
  <circle cx="565.38" cy="300.01" r="2.5" fill="#2563eb"/>
  <circle cx="566.93" cy="300.06" r="2.5" fill="#2563eb"/>
  <circle cx="568.48" cy="299.97" r="2.5" fill="#2563eb"/>
  <circle cx="570.03" cy="300.01" r="2.5" fill="#2563eb"/>
  <circle cx="571.59" cy="250.03" r="2.5" fill="#2563eb"/>
  <circle cx="573.14" cy="250.03" r="2.5" fill="#2563eb"/>
  <circle cx="574.69" cy="299.93" r="2.5" fill="#2563eb"/>
  <circle cx="576.25" cy="299.97" r="2.5" fill="#2563eb"/>
  <circle cx="577.80" cy="300.01" r="2.5" fill="#2563eb"/>
  <circle cx="579.35" cy="300.01" r="2.5" fill="#2563eb"/>
  <circle cx="580.90" cy="300.06" r="2.5" fill="#2563eb"/>
  <circle cx="582.46" cy="300.01" r="2.5" fill="#2563eb"/>
  <circle cx="584.01" cy="299.93" r="2.5" fill="#2563eb"/>
  <circle cx="585.56" cy="300.01" r="2.5" fill="#2563eb"/>
  <circle cx="587.12" cy="300.01" r="2.5" fill="#2563eb"/>
  <circle cx="588.67" cy="299.97" r="2.5" fill="#2563eb"/>
  <circle cx="590.22" cy="299.97" r="2.5" fill="#2563eb"/>
  <circle cx="591.77" cy="300.01" r="2.5" fill="#2563eb"/>
  <circle cx="593.33" cy="250.03" r="2.5" fill="#2563eb"/>
  <circle cx="594.88" cy="300.01" r="2.5" fill="#2563eb"/>
  <circle cx="596.43" cy="300.01" r="2.5" fill="#2563eb"/>
  <circle cx="597.99" cy="300.01" r="2.5" fill="#2563eb"/>
  <circle cx="599.54" cy="299.97" r="2.5" fill="#2563eb"/>
  <circle cx="601.09" cy="300.01" r="2.5" fill="#2563eb"/>
  <circle cx="602.65" cy="299.97" r="2.5" fill="#2563eb"/>
  <circle cx="604.20" cy="300.01" r="2.5" fill="#2563eb"/>
  <circle cx="605.75" cy="299.97" r="2.5" fill="#2563eb"/>
  <circle cx="607.30" cy="299.97" r="2.5" fill="#2563eb"/>
  <circle cx="608.86" cy="299.93" r="2.5" fill="#2563eb"/>
  <circle cx="610.41" cy="300.01" r="2.5" fill="#2563eb"/>
  <circle cx="611.96" cy="300.01" r="2.5" fill="#2563eb"/>
  <circle cx="613.52" cy="299.89" r="2.5" fill="#2563eb"/>
  <circle cx="615.07" cy="299.97" r="2.5" fill="#2563eb"/>
  <circle cx="616.62" cy="299.97" r="2.5" fill="#2563eb"/>
  <circle cx="618.17" cy="300.06" r="2.5" fill="#2563eb"/>
  <circle cx="619.73" cy="249.90" r="2.5" fill="#2563eb"/>
  <circle cx="621.28" cy="299.89" r="2.5" fill="#2563eb"/>
  <circle cx="622.83" cy="300.01" r="2.5" fill="#2563eb"/>
  <circle cx="624.39" cy="299.97" r="2.5" fill="#2563eb"/>
  <circle cx="625.94" cy="299.97" r="2.5" fill="#2563eb"/>
  <circle cx="627.49" cy="299.97" r="2.5" fill="#2563eb"/>
  <circle cx="629.04" cy="300.01" r="2.5" fill="#2563eb"/>
  <circle cx="630.60" cy="300.01" r="2.5" fill="#2563eb"/>
  <circle cx="632.15" cy="299.97" r="2.5" fill="#2563eb"/>
  <circle cx="633.70" cy="299.97" r="2.5" fill="#2563eb"/>
  <circle cx="635.26" cy="299.97" r="2.5" fill="#2563eb"/>
  <circle cx="636.81" cy="250.03" r="2.5" fill="#2563eb"/>
  <circle cx="638.36" cy="299.93" r="2.5" fill="#2563eb"/>
  <circle cx="639.91" cy="300.01" r="2.5" fill="#2563eb"/>
  <circle cx="641.47" cy="300.01" r="2.5" fill="#2563eb"/>
  <circle cx="643.02" cy="299.93" r="2.5" fill="#2563eb"/>
  <circle cx="644.57" cy="300.01" r="2.5" fill="#2563eb"/>
  <circle cx="646.13" cy="300.01" r="2.5" fill="#2563eb"/>
  <circle cx="647.68" cy="299.97" r="2.5" fill="#2563eb"/>
  <circle cx="649.23" cy="300.01" r="2.5" fill="#2563eb"/>
  <circle cx="650.78" cy="300.01" r="2.5" fill="#2563eb"/>
  <circle cx="652.34" cy="300.06" r="2.5" fill="#2563eb"/>
  <circle cx="653.89" cy="300.01" r="2.5" fill="#2563eb"/>
  <circle cx="655.44" cy="299.97" r="2.5" fill="#2563eb"/>
  <circle cx="657.00" cy="299.89" r="2.5" fill="#2563eb"/>
  <circle cx="658.55" cy="300.01" r="2.5" fill="#2563eb"/>
  <circle cx="660.10" cy="300.01" r="2.5" fill="#2563eb"/>
  <circle cx="661.66" cy="249.94" r="2.5" fill="#2563eb"/>
  <circle cx="663.21" cy="249.94" r="2.5" fill="#2563eb"/>
  <circle cx="664.76" cy="300.01" r="2.5" fill="#2563eb"/>
  <circle cx="666.31" cy="300.01" r="2.5" fill="#2563eb"/>
  <circle cx="667.87" cy="300.01" r="2.5" fill="#2563eb"/>
  <circle cx="669.42" cy="300.01" r="2.5" fill="#2563eb"/>
  <circle cx="670.97" cy="299.97" r="2.5" fill="#2563eb"/>
  <circle cx="672.53" cy="250.03" r="2.5" fill="#2563eb"/>
  <circle cx="674.08" cy="300.01" r="2.5" fill="#2563eb"/>
  <circle cx="675.63" cy="300.01" r="2.5" fill="#2563eb"/>
  <circle cx="677.18" cy="300.01" r="2.5" fill="#2563eb"/>
  <circle cx="678.74" cy="300.01" r="2.5" fill="#2563eb"/>
  <circle cx="680.29" cy="250.03" r="2.5" fill="#2563eb"/>
  <circle cx="681.84" cy="249.99" r="2.5" fill="#2563eb"/>
  <circle cx="683.40" cy="300.01" r="2.5" fill="#2563eb"/>
  <circle cx="684.95" cy="299.97" r="2.5" fill="#2563eb"/>
  <circle cx="686.50" cy="300.01" r="2.5" fill="#2563eb"/>
  <circle cx="688.05" cy="299.97" r="2.5" fill="#2563eb"/>
  <circle cx="689.61" cy="300.01" r="2.5" fill="#2563eb"/>
  <circle cx="691.16" cy="299.97" r="2.5" fill="#2563eb"/>
  <circle cx="692.71" cy="299.97" r="2.5" fill="#2563eb"/>
  <circle cx="694.27" cy="299.97" r="2.5" fill="#2563eb"/>
  <circle cx="695.82" cy="300.06" r="2.5" fill="#2563eb"/>
  <circle cx="697.37" cy="249.99" r="2.5" fill="#2563eb"/>
  <circle cx="698.92" cy="300.01" r="2.5" fill="#2563eb"/>
  <circle cx="700.48" cy="250.03" r="2.5" fill="#2563eb"/>
  <circle cx="702.03" cy="249.94" r="2.5" fill="#2563eb"/>
  <circle cx="703.58" cy="249.99" r="2.5" fill="#2563eb"/>
  <circle cx="705.14" cy="300.01" r="2.5" fill="#2563eb"/>
  <circle cx="706.69" cy="300.06" r="2.5" fill="#2563eb"/>
  <circle cx="708.24" cy="300.01" r="2.5" fill="#2563eb"/>
  <circle cx="709.80" cy="299.97" r="2.5" fill="#2563eb"/>
  <circle cx="711.35" cy="299.97" r="2.5" fill="#2563eb"/>
  <circle cx="712.90" cy="300.01" r="2.5" fill="#2563eb"/>
  <circle cx="714.45" cy="299.93" r="2.5" fill="#2563eb"/>
  <circle cx="716.01" cy="299.89" r="2.5" fill="#2563eb"/>
  <circle cx="717.56" cy="299.89" r="2.5" fill="#2563eb"/>
  <circle cx="719.11" cy="299.89" r="2.5" fill="#2563eb"/>
  <circle cx="720.67" cy="299.89" r="2.5" fill="#2563eb"/>
  <circle cx="722.22" cy="299.85" r="2.5" fill="#2563eb"/>
  <circle cx="723.77" cy="299.85" r="2.5" fill="#2563eb"/>
  <circle cx="725.32" cy="299.89" r="2.5" fill="#2563eb"/>
  <circle cx="726.88" cy="299.81" r="2.5" fill="#2563eb"/>
  <circle cx="728.43" cy="299.81" r="2.5" fill="#2563eb"/>
  <circle cx="729.98" cy="299.81" r="2.5" fill="#2563eb"/>
  <circle cx="731.54" cy="299.76" r="2.5" fill="#2563eb"/>
  <circle cx="733.09" cy="299.76" r="2.5" fill="#2563eb"/>
  <circle cx="734.64" cy="299.76" r="2.5" fill="#2563eb"/>
  <circle cx="736.19" cy="299.72" r="2.5" fill="#2563eb"/>
  <circle cx="737.75" cy="299.68" r="2.5" fill="#2563eb"/>
  <circle cx="739.30" cy="299.60" r="2.5" fill="#2563eb"/>
  <circle cx="740.85" cy="299.60" r="2.5" fill="#2563eb"/>
  <circle cx="742.41" cy="299.60" r="2.5" fill="#2563eb"/>
  <circle cx="743.96" cy="299.56" r="2.5" fill="#2563eb"/>
  <circle cx="745.51" cy="299.47" r="2.5" fill="#2563eb"/>
  <circle cx="747.06" cy="299.43" r="2.5" fill="#2563eb"/>
  <circle cx="748.62" cy="299.43" r="2.5" fill="#2563eb"/>
  <circle cx="750.17" cy="299.39" r="2.5" fill="#2563eb"/>
  <circle cx="751.72" cy="299.47" r="2.5" fill="#2563eb"/>
  <circle cx="753.28" cy="259.82" r="2.5" fill="#2563eb"/>
  <circle cx="754.83" cy="338.96" r="2.5" fill="#2563eb"/>
  <circle cx="756.38" cy="299.31" r="2.5" fill="#2563eb"/>
  <circle cx="757.94" cy="299.31" r="2.5" fill="#2563eb"/>
  <circle cx="759.49" cy="299.26" r="2.5" fill="#2563eb"/>
  <circle cx="761.04" cy="299.68" r="2.5" fill="#2563eb"/>
  <circle cx="762.59" cy="299.68" r="2.5" fill="#2563eb"/>
  <circle cx="764.15" cy="299.68" r="2.5" fill="#2563eb"/>
  <circle cx="765.70" cy="299.64" r="2.5" fill="#2563eb"/>
  <circle cx="767.25" cy="299.14" r="2.5" fill="#2563eb"/>
  <circle cx="768.81" cy="299.14" r="2.5" fill="#2563eb"/>
  <circle cx="770.36" cy="299.10" r="2.5" fill="#2563eb"/>
  <circle cx="771.91" cy="299.10" r="2.5" fill="#2563eb"/>
  <circle cx="773.46" cy="299.10" r="2.5" fill="#2563eb"/>
  <circle cx="775.02" cy="248.07" r="2.5" fill="#2563eb"/>
  <circle cx="776.57" cy="299.06" r="2.5" fill="#2563eb"/>
  <circle cx="778.12" cy="299.06" r="2.5" fill="#2563eb"/>
  <circle cx="779.68" cy="299.06" r="2.5" fill="#2563eb"/>
  <circle cx="781.23" cy="299.06" r="2.5" fill="#2563eb"/>
  <circle cx="782.78" cy="299.06" r="2.5" fill="#2563eb"/>
  <circle cx="784.33" cy="298.97" r="2.5" fill="#2563eb"/>
  <circle cx="785.89" cy="298.97" r="2.5" fill="#2563eb"/>
  <circle cx="787.44" cy="298.93" r="2.5" fill="#2563eb"/>
  <circle cx="788.99" cy="298.97" r="2.5" fill="#2563eb"/>
  <circle cx="790.55" cy="298.93" r="2.5" fill="#2563eb"/>
  <circle cx="792.10" cy="298.89" r="2.5" fill="#2563eb"/>
  <circle cx="793.65" cy="298.89" r="2.5" fill="#2563eb"/>
  <circle cx="795.20" cy="298.89" r="2.5" fill="#2563eb"/>
  <circle cx="796.76" cy="298.89" r="2.5" fill="#2563eb"/>
  <circle cx="798.31" cy="247.78" r="2.5" fill="#2563eb"/>
  <circle cx="799.86" cy="298.89" r="2.5" fill="#2563eb"/>
  <circle cx="801.42" cy="298.89" r="2.5" fill="#2563eb"/>
  <circle cx="802.97" cy="298.85" r="2.5" fill="#2563eb"/>
  <circle cx="804.52" cy="298.85" r="2.5" fill="#2563eb"/>
  <circle cx="806.08" cy="298.81" r="2.5" fill="#2563eb"/>
  <circle cx="807.63" cy="298.81" r="2.5" fill="#2563eb"/>
  <circle cx="809.18" cy="298.81" r="2.5" fill="#2563eb"/>
  <circle cx="810.73" cy="298.81" r="2.5" fill="#2563eb"/>
  <circle cx="812.29" cy="298.81" r="2.5" fill="#2563eb"/>
  <circle cx="813.84" cy="298.81" r="2.5" fill="#2563eb"/>
  <circle cx="815.39" cy="298.81" r="2.5" fill="#2563eb"/>
  <circle cx="816.95" cy="298.81" r="2.5" fill="#2563eb"/>
  <circle cx="818.50" cy="298.81" r="2.5" fill="#2563eb"/>
  <circle cx="820.05" cy="298.72" r="2.5" fill="#2563eb"/>
  <circle cx="821.60" cy="247.45" r="2.5" fill="#2563eb"/>
  <circle cx="823.16" cy="247.45" r="2.5" fill="#2563eb"/>
  <circle cx="824.71" cy="298.72" r="2.5" fill="#2563eb"/>
  <circle cx="826.26" cy="298.72" r="2.5" fill="#2563eb"/>
  <circle cx="827.82" cy="298.72" r="2.5" fill="#2563eb"/>
  <circle cx="829.37" cy="298.72" r="2.5" fill="#2563eb"/>
  <circle cx="830.92" cy="298.72" r="2.5" fill="#2563eb"/>
  <circle cx="832.47" cy="298.72" r="2.5" fill="#2563eb"/>
  <circle cx="834.03" cy="247.36" r="2.5" fill="#2563eb"/>
  <circle cx="835.58" cy="298.68" r="2.5" fill="#2563eb"/>
  <circle cx="837.13" cy="247.36" r="2.5" fill="#2563eb"/>
  <circle cx="838.69" cy="247.36" r="2.5" fill="#2563eb"/>
  <circle cx="840.24" cy="247.36" r="2.5" fill="#2563eb"/>
  <circle cx="841.79" cy="298.68" r="2.5" fill="#2563eb"/>
  <circle cx="843.34" cy="298.68" r="2.5" fill="#2563eb"/>
  <circle cx="844.90" cy="298.68" r="2.5" fill="#2563eb"/>
  <circle cx="846.45" cy="298.68" r="2.5" fill="#2563eb"/>
  <circle cx="848.00" cy="298.68" r="2.5" fill="#2563eb"/>
  <circle cx="849.56" cy="341.67" r="2.5" fill="#2563eb"/>
  <circle cx="851.11" cy="307.01" r="2.5" fill="#2563eb"/>
  <circle cx="852.66" cy="298.68" r="2.5" fill="#2563eb"/>
  <circle cx="854.22" cy="298.68" r="2.5" fill="#2563eb"/>
  <circle cx="855.77" cy="298.68" r="2.5" fill="#2563eb"/>
  <circle cx="857.32" cy="247.36" r="2.5" fill="#2563eb"/>
  <circle cx="858.87" cy="298.64" r="2.5" fill="#2563eb"/>
  <circle cx="860.43" cy="247.36" r="2.5" fill="#2563eb"/>
  <circle cx="861.98" cy="247.28" r="2.5" fill="#2563eb"/>
  <circle cx="863.53" cy="247.20" r="2.5" fill="#2563eb"/>
  <circle cx="865.09" cy="298.60" r="2.5" fill="#2563eb"/>
  <circle cx="866.64" cy="298.60" r="2.5" fill="#2563eb"/>
  <circle cx="868.19" cy="247.03" r="2.5" fill="#2563eb"/>
  <circle cx="869.74" cy="298.51" r="2.5" fill="#2563eb"/>
  <circle cx="871.30" cy="298.51" r="2.5" fill="#2563eb"/>
  <circle cx="872.85" cy="298.51" r="2.5" fill="#2563eb"/>
  <circle cx="874.40" cy="298.51" r="2.5" fill="#2563eb"/>
  <circle cx="875.96" cy="298.51" r="2.5" fill="#2563eb"/>
  <circle cx="877.51" cy="298.51" r="2.5" fill="#2563eb"/>
  <circle cx="879.06" cy="298.51" r="2.5" fill="#2563eb"/>
  <circle cx="880.61" cy="298.51" r="2.5" fill="#2563eb"/>
  <circle cx="882.17" cy="298.51" r="2.5" fill="#2563eb"/>
  <circle cx="883.72" cy="298.51" r="2.5" fill="#2563eb"/>
  <circle cx="885.27" cy="298.51" r="2.5" fill="#2563eb"/>
  <circle cx="886.83" cy="298.51" r="2.5" fill="#2563eb"/>
  <circle cx="888.38" cy="298.51" r="2.5" fill="#2563eb"/>
  <circle cx="889.93" cy="298.51" r="2.5" fill="#2563eb"/>
  <circle cx="891.48" cy="298.51" r="2.5" fill="#2563eb"/>
  <circle cx="893.04" cy="298.51" r="2.5" fill="#2563eb"/>
  <circle cx="894.59" cy="298.51" r="2.5" fill="#2563eb"/>
  <circle cx="896.14" cy="298.51" r="2.5" fill="#2563eb"/>
  <circle cx="897.70" cy="298.51" r="2.5" fill="#2563eb"/>
  <circle cx="899.25" cy="298.51" r="2.5" fill="#2563eb"/>
  <circle cx="900.80" cy="298.51" r="2.5" fill="#2563eb"/>
  <circle cx="902.35" cy="298.51" r="2.5" fill="#2563eb"/>
  <circle cx="903.91" cy="298.51" r="2.5" fill="#2563eb"/>
  <circle cx="905.46" cy="298.51" r="2.5" fill="#2563eb"/>
  <circle cx="907.01" cy="298.51" r="2.5" fill="#2563eb"/>
  <circle cx="908.57" cy="298.51" r="2.5" fill="#2563eb"/>
  <circle cx="910.12" cy="298.47" r="2.5" fill="#2563eb"/>
  <circle cx="911.67" cy="298.51" r="2.5" fill="#2563eb"/>
  <circle cx="913.23" cy="298.51" r="2.5" fill="#2563eb"/>
  <circle cx="914.78" cy="298.47" r="2.5" fill="#2563eb"/>
  <circle cx="916.33" cy="298.51" r="2.5" fill="#2563eb"/>
  <circle cx="917.88" cy="298.47" r="2.5" fill="#2563eb"/>
  <circle cx="919.44" cy="298.51" r="2.5" fill="#2563eb"/>
  <circle cx="920.99" cy="298.43" r="2.5" fill="#2563eb"/>
  <circle cx="922.54" cy="298.56" r="2.5" fill="#2563eb"/>
  <circle cx="924.10" cy="298.43" r="2.5" fill="#2563eb"/>
  <circle cx="925.65" cy="298.43" r="2.5" fill="#2563eb"/>
  <circle cx="927.20" cy="298.43" r="2.5" fill="#2563eb"/>
  <circle cx="928.75" cy="298.43" r="2.5" fill="#2563eb"/>
  <circle cx="930.31" cy="298.43" r="2.5" fill="#2563eb"/>
  <circle cx="931.86" cy="298.43" r="2.5" fill="#2563eb"/>
  <circle cx="933.41" cy="298.43" r="2.5" fill="#2563eb"/>
  <circle cx="934.97" cy="298.43" r="2.5" fill="#2563eb"/>
  <circle cx="936.52" cy="298.43" r="2.5" fill="#2563eb"/>
  <circle cx="938.07" cy="298.43" r="2.5" fill="#2563eb"/>
  <circle cx="939.62" cy="298.43" r="2.5" fill="#2563eb"/>
  <circle cx="941.18" cy="298.43" r="2.5" fill="#2563eb"/>
  <circle cx="942.73" cy="298.43" r="2.5" fill="#2563eb"/>
  <circle cx="944.28" cy="298.43" r="2.5" fill="#2563eb"/>
  <circle cx="945.84" cy="298.43" r="2.5" fill="#2563eb"/>
  <circle cx="947.39" cy="298.43" r="2.5" fill="#2563eb"/>
  <circle cx="948.94" cy="298.43" r="2.5" fill="#2563eb"/>
  <circle cx="950.49" cy="298.43" r="2.5" fill="#2563eb"/>
  <circle cx="952.05" cy="298.43" r="2.5" fill="#2563eb"/>
  <circle cx="953.60" cy="298.43" r="2.5" fill="#2563eb"/>
  <circle cx="955.15" cy="298.43" r="2.5" fill="#2563eb"/>
  <circle cx="956.71" cy="298.43" r="2.5" fill="#2563eb"/>
  <circle cx="958.26" cy="298.43" r="2.5" fill="#2563eb"/>
  <circle cx="959.81" cy="298.43" r="2.5" fill="#2563eb"/>
  <circle cx="961.37" cy="298.43" r="2.5" fill="#2563eb"/>
  <circle cx="962.92" cy="298.43" r="2.5" fill="#2563eb"/>
  <circle cx="964.47" cy="298.43" r="2.5" fill="#2563eb"/>
  <circle cx="966.02" cy="298.43" r="2.5" fill="#2563eb"/>
  <circle cx="967.58" cy="298.43" r="2.5" fill="#2563eb"/>
  <circle cx="969.13" cy="298.43" r="2.5" fill="#2563eb"/>
  <circle cx="970.68" cy="298.43" r="2.5" fill="#2563eb"/>
  <circle cx="972.24" cy="298.43" r="2.5" fill="#2563eb"/>
  <circle cx="973.79" cy="298.43" r="2.5" fill="#2563eb"/>
  <circle cx="975.34" cy="298.43" r="2.5" fill="#2563eb"/>
  <circle cx="976.89" cy="298.39" r="2.5" fill="#2563eb"/>
  <circle cx="978.45" cy="298.39" r="2.5" fill="#2563eb"/>
  <circle cx="980.00" cy="298.43" r="2.5" fill="#2563eb"/>
</svg>
