<?xml version="1.0" encoding="UTF-8"?>
<svg xmlns="http://www.w3.org/2000/svg" width="1000" height="420" viewBox="0 0 1000 420">
  <rect width="100%" height="100%" fill="#ffffff"/>
  <text x="70" y="28" font-size="20" font-weight="600">수집 시점 기준 - 시간별 스냅샷</text>
  <text x="70" y="402" font-size="12" fill="#555">스냅샷 수</text>
  <line x1="70" y1="350.00" x2="980" y2="350.00" stroke="#e5e7eb" stroke-width="1"/>
  <text x="62" y="354.00" font-size="11" fill="#6b7280" text-anchor="end">0</text>
  <line x1="70" y1="290.00" x2="980" y2="290.00" stroke="#e5e7eb" stroke-width="1"/>
  <text x="62" y="294.00" font-size="11" fill="#6b7280" text-anchor="end">1,440</text>
  <line x1="70" y1="230.00" x2="980" y2="230.00" stroke="#e5e7eb" stroke-width="1"/>
  <text x="62" y="234.00" font-size="11" fill="#6b7280" text-anchor="end">2,880</text>
  <line x1="70" y1="170.00" x2="980" y2="170.00" stroke="#e5e7eb" stroke-width="1"/>
  <text x="62" y="174.00" font-size="11" fill="#6b7280" text-anchor="end">4,321</text>
  <line x1="70" y1="110.00" x2="980" y2="110.00" stroke="#e5e7eb" stroke-width="1"/>
  <text x="62" y="114.00" font-size="11" fill="#6b7280" text-anchor="end">5,761</text>
  <line x1="70" y1="50.00" x2="980" y2="50.00" stroke="#e5e7eb" stroke-width="1"/>
  <text x="62" y="54.00" font-size="11" fill="#6b7280" text-anchor="end">7,202</text>
  <line x1="70" y1="350" x2="980" y2="350" stroke="#111827" stroke-width="1.2"/>
  <line x1="70" y1="50" x2="70" y2="350" stroke="#111827" stroke-width="1.2"/>
  <line x1="70.00" y1="350" x2="70.00" y2="356" stroke="#9ca3af" stroke-width="1"/>
  <text x="70.00" y="372" font-size="10" fill="#6b7280" text-anchor="middle">2026-02-28 18</text>
  <line x1="144.29" y1="350" x2="144.29" y2="356" stroke="#9ca3af" stroke-width="1"/>
  <text x="144.29" y="372" font-size="10" fill="#6b7280" text-anchor="middle">2026-03-08 15</text>
  <line x1="218.57" y1="350" x2="218.57" y2="356" stroke="#9ca3af" stroke-width="1"/>
  <text x="218.57" y="372" font-size="10" fill="#6b7280" text-anchor="middle">2026-03-10 05</text>
  <line x1="292.86" y1="350" x2="292.86" y2="356" stroke="#9ca3af" stroke-width="1"/>
  <text x="292.86" y="372" font-size="10" fill="#6b7280" text-anchor="middle">2026-03-11 21</text>
  <line x1="367.14" y1="350" x2="367.14" y2="356" stroke="#9ca3af" stroke-width="1"/>
  <text x="367.14" y="372" font-size="10" fill="#6b7280" text-anchor="middle">2026-03-13 13</text>
  <line x1="441.43" y1="350" x2="441.43" y2="356" stroke="#9ca3af" stroke-width="1"/>
  <text x="441.43" y="372" font-size="10" fill="#6b7280" text-anchor="middle">2026-03-15 08</text>
  <line x1="515.71" y1="350" x2="515.71" y2="356" stroke="#9ca3af" stroke-width="1"/>
  <text x="515.71" y="372" font-size="10" fill="#6b7280" text-anchor="middle">2026-03-17 19</text>
  <line x1="590.00" y1="350" x2="590.00" y2="356" stroke="#9ca3af" stroke-width="1"/>
  <text x="590.00" y="372" font-size="10" fill="#6b7280" text-anchor="middle">2026-03-20 04</text>
  <line x1="664.29" y1="350" x2="664.29" y2="356" stroke="#9ca3af" stroke-width="1"/>
  <text x="664.29" y="372" font-size="10" fill="#6b7280" text-anchor="middle">2026-03-22 04</text>
  <line x1="738.57" y1="350" x2="738.57" y2="356" stroke="#9ca3af" stroke-width="1"/>
  <text x="738.57" y="372" font-size="10" fill="#6b7280" text-anchor="middle">2026-03-24 08</text>
  <line x1="812.86" y1="350" x2="812.86" y2="356" stroke="#9ca3af" stroke-width="1"/>
  <text x="812.86" y="372" font-size="10" fill="#6b7280" text-anchor="middle">2026-03-26 21</text>
  <line x1="887.14" y1="350" x2="887.14" y2="356" stroke="#9ca3af" stroke-width="1"/>
  <text x="887.14" y="372" font-size="10" fill="#6b7280" text-anchor="middle">2026-03-29 06</text>
  <line x1="961.43" y1="350" x2="961.43" y2="356" stroke="#9ca3af" stroke-width="1"/>
  <text x="961.43" y="372" font-size="10" fill="#6b7280" text-anchor="middle">2026-03-31 20</text>
  <line x1="980.00" y1="350" x2="980.00" y2="356" stroke="#9ca3af" stroke-width="1"/>
  <text x="980.00" y="372" font-size="10" fill="#6b7280" text-anchor="middle">2026-04-01 09</text>
  <polyline fill="none" stroke="#2563eb" stroke-width="2.5" points="70.00,50.00 72.06,50.12 74.13,50.17 76.19,50.46 78.25,50.00 80.32,266.90 82.38,50.12 84.44,50.08 86.51,177.46 88.57,211.58 90.63,175.34 92.70,304.14 94.76,200.46 96.83,250.94 98.89,300.01 100.95,300.06 103.02,300.01 105.08,300.01 107.14,348.00 109.21,300.01 111.27,249.99 113.33,200.00 115.40,249.99 117.46,249.99 119.52,250.03 121.59,250.03 123.65,250.03 125.71,250.40 127.78,250.90 129.84,250.90 131.90,251.32 133.97,249.94 136.03,300.01 138.10,299.93 140.16,251.03 142.22,300.68 144.29,250.03 146.35,200.00 148.41,249.99 150.48,250.03 152.54,250.03 154.60,250.03 156.67,300.01 158.73,200.04 160.79,250.03 162.86,250.03 164.92,250.03 166.98,249.90 169.05,250.03 171.11,250.03 173.17,250.94 175.24,250.44 177.30,250.03 179.37,250.03 181.43,300.47 183.49,300.01 185.56,300.43 187.62,250.03 189.68,249.99 191.75,300.43 193.81,249.90 195.87,249.99 197.94,249.99 200.00,200.04 202.06,300.01 204.13,300.01 206.19,300.01 208.25,249.90 210.32,300.01 212.38,250.03 214.44,249.99 216.51,199.96 218.57,300.01 220.63,200.00 222.70,250.36 224.76,250.03 226.83,300.01 228.89,300.01 230.95,250.44 233.02,300.01 235.08,250.03 237.14,250.03 239.21,249.99 241.27,250.49 243.33,250.03 245.40,200.04 247.46,300.01 249.52,250.03 251.59,300.01 253.65,250.11 255.71,300.01 257.78,250.03 259.84,250.03 261.90,199.92 263.97,250.03 266.03,250.03 268.10,250.03 270.16,254.36 272.22,300.01 274.29,299.97 276.35,250.36 278.41,299.97 280.48,250.03 282.54,250.03 284.60,250.03 286.67,250.03 288.73,249.99 290.79,200.00 292.86,299.93 294.92,300.01 296.98,299.97 299.05,249.94 301.11,249.99 303.17,249.82 305.24,249.94 307.30,250.28 309.37,207.00 311.43,250.03 313.49,250.32 315.56,250.40 317.62,300.93 319.68,300.01 321.75,300.10 323.81,249.94 325.87,249.99 327.94,250.07 330.00,249.99 332.06,250.03 334.13,249.94 336.19,200.00 338.25,300.39 340.32,300.01 342.38,300.01 344.44,250.44 346.51,300.39 348.57,249.86 350.63,250.11 352.70,201.46 354.76,300.01 356.83,200.83 358.89,250.03 360.95,249.99 363.02,300.26 365.08,300.01 367.14,300.01 369.21,250.03 371.27,250.03 373.33,250.03 375.40,250.03 377.46,249.99 379.52,250.03 381.59,200.00 383.65,300.26 385.71,249.99 387.78,300.01 389.84,249.94 391.90,250.03 393.97,250.03 396.03,250.03 398.10,200.04 400.16,300.01 402.22,249.90 404.29,300.01 406.35,300.01 408.41,300.06 410.48,300.01 412.54,300.01 414.60,243.95 416.67,249.94 418.73,299.97 420.79,300.01 422.86,300.01 424.92,250.03 426.98,300.01 429.05,300.01 431.11,299.97 433.17,249.99 435.24,300.01 437.30,299.93 439.37,300.01 441.43,299.93 443.49,300.01 445.56,300.01 447.62,299.89 449.68,299.97 451.75,250.03 453.81,299.93 455.87,299.89 457.94,299.97 460.00,249.94 462.06,300.01 464.13,300.01 466.19,299.97 468.25,249.99 470.32,299.97 472.38,299.97 474.44,300.06 476.51,300.06 478.57,299.93 480.63,300.01 482.70,300.01 484.76,299.93 486.83,300.01 488.89,300.01 490.95,299.97 493.02,300.01 495.08,300.01 497.14,300.01 499.21,300.01 501.27,249.86 503.33,300.01 505.40,300.10 507.46,299.93 509.52,300.01 511.59,299.93 513.65,300.01 515.71,300.01 517.78,300.01 519.84,300.01 521.90,300.01 523.97,299.97 526.03,300.01 528.10,300.01 530.16,300.01 532.22,300.01 534.29,250.03 536.35,300.01 538.41,300.01 540.48,299.97 542.54,300.01 544.60,300.01 546.67,299.97 548.73,299.97 550.79,300.01 552.86,299.97 554.92,300.01 556.98,299.93 559.05,300.01 561.11,250.03 563.17,300.01 565.24,300.01 567.30,300.01 569.37,300.01 571.43,300.01 573.49,299.89 575.56,300.01 577.62,300.01 579.68,250.07 581.75,300.01 583.81,299.93 585.87,300.01 587.94,299.97 590.00,299.97 592.06,299.97 594.13,250.03 596.19,300.01 598.25,300.01 600.32,300.01 602.38,300.01 604.44,299.97 606.51,300.01 608.57,299.97 610.63,300.01 612.70,299.97 614.76,249.90 616.83,300.01 618.89,300.01 620.95,299.89 623.02,299.97 625.08,299.97 627.14,249.99 629.21,299.97 631.27,299.89 633.33,300.01 635.40,299.97 637.46,299.97 639.52,300.01 641.59,299.97 643.65,249.99 645.71,299.97 647.78,299.97 649.84,300.06 651.90,300.06 653.97,249.94 656.03,300.01 658.10,299.93 660.16,300.01 662.22,300.01 664.29,249.99 666.35,300.01 668.41,300.01 670.48,300.01 672.54,299.93 674.60,299.93 676.67,300.01 678.73,300.01 680.79,249.94 682.86,299.97 684.92,299.97 686.98,300.01 689.05,300.01 691.11,300.01 693.17,249.99 695.24,300.01 697.30,300.01 699.37,300.01 701.43,250.03 703.49,300.01 705.56,300.01 707.62,300.01 709.68,299.97 711.75,300.01 713.81,300.01 715.87,299.97 717.94,299.97 720.00,300.01 722.06,300.01 724.13,299.97 726.19,299.93 728.25,300.01 730.32,300.06 732.38,299.97 734.44,300.01 736.51,250.03 738.57,250.03 740.63,299.93 742.70,299.97 744.76,300.01 746.83,300.01 748.89,300.06 750.95,300.01 753.02,299.93 755.08,300.01 757.14,300.01 759.21,299.97 761.27,299.97 763.33,300.01 765.40,250.03 767.46,300.01 769.52,300.01 771.59,300.01 773.65,299.97 775.71,300.01 777.78,299.97 779.84,300.01 781.90,299.97 783.97,299.97 786.03,299.93 788.10,300.01 790.16,300.01 792.22,299.89 794.29,299.97 796.35,299.97 798.41,300.06 800.48,249.90 802.54,299.89 804.60,300.01 806.67,299.97 808.73,299.97 810.79,299.97 812.86,300.01 814.92,300.01 816.98,299.97 819.05,299.97 821.11,299.97 823.17,250.03 825.24,299.93 827.30,300.01 829.37,300.01 831.43,299.93 833.49,300.01 835.56,300.01 837.62,299.97 839.68,300.01 841.75,300.01 843.81,300.06 845.87,300.01 847.94,299.97 850.00,299.89 852.06,300.01 854.13,300.01 856.19,249.94 858.25,249.94 860.32,300.01 862.38,300.01 864.44,300.01 866.51,300.01 868.57,299.97 870.63,250.03 872.70,300.01 874.76,300.01 876.83,300.01 878.89,300.01 880.95,250.03 883.02,249.99 885.08,300.01 887.14,299.97 889.21,300.01 891.27,299.97 893.33,300.01 895.40,299.97 897.46,299.97 899.52,299.97 901.59,300.06 903.65,249.99 905.71,300.01 907.78,250.03 909.84,249.94 911.90,249.99 913.97,300.01 916.03,300.06 918.10,300.01 920.16,299.97 922.22,299.97 924.29,300.01 926.35,299.93 928.41,299.89 930.48,299.89 932.54,299.89 934.60,299.89 936.67,299.85 938.73,299.85 940.79,299.89 942.86,299.81 944.92,299.81 946.98,299.81 949.05,299.76 951.11,299.76 953.17,299.76 955.24,299.72 957.30,299.68 959.37,299.60 961.43,299.60 963.49,299.60 965.56,299.56 967.62,299.47 969.68,299.43 971.75,299.43 973.81,299.39 975.87,299.47 977.94,259.82 980.00,338.96"/>
  <circle cx="70.00" cy="50.00" r="2.5" fill="#2563eb"/>
  <circle cx="72.06" cy="50.12" r="2.5" fill="#2563eb"/>
  <circle cx="74.13" cy="50.17" r="2.5" fill="#2563eb"/>
  <circle cx="76.19" cy="50.46" r="2.5" fill="#2563eb"/>
  <circle cx="78.25" cy="50.00" r="2.5" fill="#2563eb"/>
  <circle cx="80.32" cy="266.90" r="2.5" fill="#2563eb"/>
  <circle cx="82.38" cy="50.12" r="2.5" fill="#2563eb"/>
  <circle cx="84.44" cy="50.08" r="2.5" fill="#2563eb"/>
  <circle cx="86.51" cy="177.46" r="2.5" fill="#2563eb"/>
  <circle cx="88.57" cy="211.58" r="2.5" fill="#2563eb"/>
  <circle cx="90.63" cy="175.34" r="2.5" fill="#2563eb"/>
  <circle cx="92.70" cy="304.14" r="2.5" fill="#2563eb"/>
  <circle cx="94.76" cy="200.46" r="2.5" fill="#2563eb"/>
  <circle cx="96.83" cy="250.94" r="2.5" fill="#2563eb"/>
  <circle cx="98.89" cy="300.01" r="2.5" fill="#2563eb"/>
  <circle cx="100.95" cy="300.06" r="2.5" fill="#2563eb"/>
  <circle cx="103.02" cy="300.01" r="2.5" fill="#2563eb"/>
  <circle cx="105.08" cy="300.01" r="2.5" fill="#2563eb"/>
  <circle cx="107.14" cy="348.00" r="2.5" fill="#2563eb"/>
  <circle cx="109.21" cy="300.01" r="2.5" fill="#2563eb"/>
  <circle cx="111.27" cy="249.99" r="2.5" fill="#2563eb"/>
  <circle cx="113.33" cy="200.00" r="2.5" fill="#2563eb"/>
  <circle cx="115.40" cy="249.99" r="2.5" fill="#2563eb"/>
  <circle cx="117.46" cy="249.99" r="2.5" fill="#2563eb"/>
  <circle cx="119.52" cy="250.03" r="2.5" fill="#2563eb"/>
  <circle cx="121.59" cy="250.03" r="2.5" fill="#2563eb"/>
  <circle cx="123.65" cy="250.03" r="2.5" fill="#2563eb"/>
  <circle cx="125.71" cy="250.40" r="2.5" fill="#2563eb"/>
  <circle cx="127.78" cy="250.90" r="2.5" fill="#2563eb"/>
  <circle cx="129.84" cy="250.90" r="2.5" fill="#2563eb"/>
  <circle cx="131.90" cy="251.32" r="2.5" fill="#2563eb"/>
  <circle cx="133.97" cy="249.94" r="2.5" fill="#2563eb"/>
  <circle cx="136.03" cy="300.01" r="2.5" fill="#2563eb"/>
  <circle cx="138.10" cy="299.93" r="2.5" fill="#2563eb"/>
  <circle cx="140.16" cy="251.03" r="2.5" fill="#2563eb"/>
  <circle cx="142.22" cy="300.68" r="2.5" fill="#2563eb"/>
  <circle cx="144.29" cy="250.03" r="2.5" fill="#2563eb"/>
  <circle cx="146.35" cy="200.00" r="2.5" fill="#2563eb"/>
  <circle cx="148.41" cy="249.99" r="2.5" fill="#2563eb"/>
  <circle cx="150.48" cy="250.03" r="2.5" fill="#2563eb"/>
  <circle cx="152.54" cy="250.03" r="2.5" fill="#2563eb"/>
  <circle cx="154.60" cy="250.03" r="2.5" fill="#2563eb"/>
  <circle cx="156.67" cy="300.01" r="2.5" fill="#2563eb"/>
  <circle cx="158.73" cy="200.04" r="2.5" fill="#2563eb"/>
  <circle cx="160.79" cy="250.03" r="2.5" fill="#2563eb"/>
  <circle cx="162.86" cy="250.03" r="2.5" fill="#2563eb"/>
  <circle cx="164.92" cy="250.03" r="2.5" fill="#2563eb"/>
  <circle cx="166.98" cy="249.90" r="2.5" fill="#2563eb"/>
  <circle cx="169.05" cy="250.03" r="2.5" fill="#2563eb"/>
  <circle cx="171.11" cy="250.03" r="2.5" fill="#2563eb"/>
  <circle cx="173.17" cy="250.94" r="2.5" fill="#2563eb"/>
  <circle cx="175.24" cy="250.44" r="2.5" fill="#2563eb"/>
  <circle cx="177.30" cy="250.03" r="2.5" fill="#2563eb"/>
  <circle cx="179.37" cy="250.03" r="2.5" fill="#2563eb"/>
  <circle cx="181.43" cy="300.47" r="2.5" fill="#2563eb"/>
  <circle cx="183.49" cy="300.01" r="2.5" fill="#2563eb"/>
  <circle cx="185.56" cy="300.43" r="2.5" fill="#2563eb"/>
  <circle cx="187.62" cy="250.03" r="2.5" fill="#2563eb"/>
  <circle cx="189.68" cy="249.99" r="2.5" fill="#2563eb"/>
  <circle cx="191.75" cy="300.43" r="2.5" fill="#2563eb"/>
  <circle cx="193.81" cy="249.90" r="2.5" fill="#2563eb"/>
  <circle cx="195.87" cy="249.99" r="2.5" fill="#2563eb"/>
  <circle cx="197.94" cy="249.99" r="2.5" fill="#2563eb"/>
  <circle cx="200.00" cy="200.04" r="2.5" fill="#2563eb"/>
  <circle cx="202.06" cy="300.01" r="2.5" fill="#2563eb"/>
  <circle cx="204.13" cy="300.01" r="2.5" fill="#2563eb"/>
  <circle cx="206.19" cy="300.01" r="2.5" fill="#2563eb"/>
  <circle cx="208.25" cy="249.90" r="2.5" fill="#2563eb"/>
  <circle cx="210.32" cy="300.01" r="2.5" fill="#2563eb"/>
  <circle cx="212.38" cy="250.03" r="2.5" fill="#2563eb"/>
  <circle cx="214.44" cy="249.99" r="2.5" fill="#2563eb"/>
  <circle cx="216.51" cy="199.96" r="2.5" fill="#2563eb"/>
  <circle cx="218.57" cy="300.01" r="2.5" fill="#2563eb"/>
  <circle cx="220.63" cy="200.00" r="2.5" fill="#2563eb"/>
  <circle cx="222.70" cy="250.36" r="2.5" fill="#2563eb"/>
  <circle cx="224.76" cy="250.03" r="2.5" fill="#2563eb"/>
  <circle cx="226.83" cy="300.01" r="2.5" fill="#2563eb"/>
  <circle cx="228.89" cy="300.01" r="2.5" fill="#2563eb"/>
  <circle cx="230.95" cy="250.44" r="2.5" fill="#2563eb"/>
  <circle cx="233.02" cy="300.01" r="2.5" fill="#2563eb"/>
  <circle cx="235.08" cy="250.03" r="2.5" fill="#2563eb"/>
  <circle cx="237.14" cy="250.03" r="2.5" fill="#2563eb"/>
  <circle cx="239.21" cy="249.99" r="2.5" fill="#2563eb"/>
  <circle cx="241.27" cy="250.49" r="2.5" fill="#2563eb"/>
  <circle cx="243.33" cy="250.03" r="2.5" fill="#2563eb"/>
  <circle cx="245.40" cy="200.04" r="2.5" fill="#2563eb"/>
  <circle cx="247.46" cy="300.01" r="2.5" fill="#2563eb"/>
  <circle cx="249.52" cy="250.03" r="2.5" fill="#2563eb"/>
  <circle cx="251.59" cy="300.01" r="2.5" fill="#2563eb"/>
  <circle cx="253.65" cy="250.11" r="2.5" fill="#2563eb"/>
  <circle cx="255.71" cy="300.01" r="2.5" fill="#2563eb"/>
  <circle cx="257.78" cy="250.03" r="2.5" fill="#2563eb"/>
  <circle cx="259.84" cy="250.03" r="2.5" fill="#2563eb"/>
  <circle cx="261.90" cy="199.92" r="2.5" fill="#2563eb"/>
  <circle cx="263.97" cy="250.03" r="2.5" fill="#2563eb"/>
  <circle cx="266.03" cy="250.03" r="2.5" fill="#2563eb"/>
  <circle cx="268.10" cy="250.03" r="2.5" fill="#2563eb"/>
  <circle cx="270.16" cy="254.36" r="2.5" fill="#2563eb"/>
  <circle cx="272.22" cy="300.01" r="2.5" fill="#2563eb"/>
  <circle cx="274.29" cy="299.97" r="2.5" fill="#2563eb"/>
  <circle cx="276.35" cy="250.36" r="2.5" fill="#2563eb"/>
  <circle cx="278.41" cy="299.97" r="2.5" fill="#2563eb"/>
  <circle cx="280.48" cy="250.03" r="2.5" fill="#2563eb"/>
  <circle cx="282.54" cy="250.03" r="2.5" fill="#2563eb"/>
  <circle cx="284.60" cy="250.03" r="2.5" fill="#2563eb"/>
  <circle cx="286.67" cy="250.03" r="2.5" fill="#2563eb"/>
  <circle cx="288.73" cy="249.99" r="2.5" fill="#2563eb"/>
  <circle cx="290.79" cy="200.00" r="2.5" fill="#2563eb"/>
  <circle cx="292.86" cy="299.93" r="2.5" fill="#2563eb"/>
  <circle cx="294.92" cy="300.01" r="2.5" fill="#2563eb"/>
  <circle cx="296.98" cy="299.97" r="2.5" fill="#2563eb"/>
  <circle cx="299.05" cy="249.94" r="2.5" fill="#2563eb"/>
  <circle cx="301.11" cy="249.99" r="2.5" fill="#2563eb"/>
  <circle cx="303.17" cy="249.82" r="2.5" fill="#2563eb"/>
  <circle cx="305.24" cy="249.94" r="2.5" fill="#2563eb"/>
  <circle cx="307.30" cy="250.28" r="2.5" fill="#2563eb"/>
  <circle cx="309.37" cy="207.00" r="2.5" fill="#2563eb"/>
  <circle cx="311.43" cy="250.03" r="2.5" fill="#2563eb"/>
  <circle cx="313.49" cy="250.32" r="2.5" fill="#2563eb"/>
  <circle cx="315.56" cy="250.40" r="2.5" fill="#2563eb"/>
  <circle cx="317.62" cy="300.93" r="2.5" fill="#2563eb"/>
  <circle cx="319.68" cy="300.01" r="2.5" fill="#2563eb"/>
  <circle cx="321.75" cy="300.10" r="2.5" fill="#2563eb"/>
  <circle cx="323.81" cy="249.94" r="2.5" fill="#2563eb"/>
  <circle cx="325.87" cy="249.99" r="2.5" fill="#2563eb"/>
  <circle cx="327.94" cy="250.07" r="2.5" fill="#2563eb"/>
  <circle cx="330.00" cy="249.99" r="2.5" fill="#2563eb"/>
  <circle cx="332.06" cy="250.03" r="2.5" fill="#2563eb"/>
  <circle cx="334.13" cy="249.94" r="2.5" fill="#2563eb"/>
  <circle cx="336.19" cy="200.00" r="2.5" fill="#2563eb"/>
  <circle cx="338.25" cy="300.39" r="2.5" fill="#2563eb"/>
  <circle cx="340.32" cy="300.01" r="2.5" fill="#2563eb"/>
  <circle cx="342.38" cy="300.01" r="2.5" fill="#2563eb"/>
  <circle cx="344.44" cy="250.44" r="2.5" fill="#2563eb"/>
  <circle cx="346.51" cy="300.39" r="2.5" fill="#2563eb"/>
  <circle cx="348.57" cy="249.86" r="2.5" fill="#2563eb"/>
  <circle cx="350.63" cy="250.11" r="2.5" fill="#2563eb"/>
  <circle cx="352.70" cy="201.46" r="2.5" fill="#2563eb"/>
  <circle cx="354.76" cy="300.01" r="2.5" fill="#2563eb"/>
  <circle cx="356.83" cy="200.83" r="2.5" fill="#2563eb"/>
  <circle cx="358.89" cy="250.03" r="2.5" fill="#2563eb"/>
  <circle cx="360.95" cy="249.99" r="2.5" fill="#2563eb"/>
  <circle cx="363.02" cy="300.26" r="2.5" fill="#2563eb"/>
  <circle cx="365.08" cy="300.01" r="2.5" fill="#2563eb"/>
  <circle cx="367.14" cy="300.01" r="2.5" fill="#2563eb"/>
  <circle cx="369.21" cy="250.03" r="2.5" fill="#2563eb"/>
  <circle cx="371.27" cy="250.03" r="2.5" fill="#2563eb"/>
  <circle cx="373.33" cy="250.03" r="2.5" fill="#2563eb"/>
  <circle cx="375.40" cy="250.03" r="2.5" fill="#2563eb"/>
  <circle cx="377.46" cy="249.99" r="2.5" fill="#2563eb"/>
  <circle cx="379.52" cy="250.03" r="2.5" fill="#2563eb"/>
  <circle cx="381.59" cy="200.00" r="2.5" fill="#2563eb"/>
  <circle cx="383.65" cy="300.26" r="2.5" fill="#2563eb"/>
  <circle cx="385.71" cy="249.99" r="2.5" fill="#2563eb"/>
  <circle cx="387.78" cy="300.01" r="2.5" fill="#2563eb"/>
  <circle cx="389.84" cy="249.94" r="2.5" fill="#2563eb"/>
  <circle cx="391.90" cy="250.03" r="2.5" fill="#2563eb"/>
  <circle cx="393.97" cy="250.03" r="2.5" fill="#2563eb"/>
  <circle cx="396.03" cy="250.03" r="2.5" fill="#2563eb"/>
  <circle cx="398.10" cy="200.04" r="2.5" fill="#2563eb"/>
  <circle cx="400.16" cy="300.01" r="2.5" fill="#2563eb"/>
  <circle cx="402.22" cy="249.90" r="2.5" fill="#2563eb"/>
  <circle cx="404.29" cy="300.01" r="2.5" fill="#2563eb"/>
  <circle cx="406.35" cy="300.01" r="2.5" fill="#2563eb"/>
  <circle cx="408.41" cy="300.06" r="2.5" fill="#2563eb"/>
  <circle cx="410.48" cy="300.01" r="2.5" fill="#2563eb"/>
  <circle cx="412.54" cy="300.01" r="2.5" fill="#2563eb"/>
  <circle cx="414.60" cy="243.95" r="2.5" fill="#2563eb"/>
  <circle cx="416.67" cy="249.94" r="2.5" fill="#2563eb"/>
  <circle cx="418.73" cy="299.97" r="2.5" fill="#2563eb"/>
  <circle cx="420.79" cy="300.01" r="2.5" fill="#2563eb"/>
  <circle cx="422.86" cy="300.01" r="2.5" fill="#2563eb"/>
  <circle cx="424.92" cy="250.03" r="2.5" fill="#2563eb"/>
  <circle cx="426.98" cy="300.01" r="2.5" fill="#2563eb"/>
  <circle cx="429.05" cy="300.01" r="2.5" fill="#2563eb"/>
  <circle cx="431.11" cy="299.97" r="2.5" fill="#2563eb"/>
  <circle cx="433.17" cy="249.99" r="2.5" fill="#2563eb"/>
  <circle cx="435.24" cy="300.01" r="2.5" fill="#2563eb"/>
  <circle cx="437.30" cy="299.93" r="2.5" fill="#2563eb"/>
  <circle cx="439.37" cy="300.01" r="2.5" fill="#2563eb"/>
  <circle cx="441.43" cy="299.93" r="2.5" fill="#2563eb"/>
  <circle cx="443.49" cy="300.01" r="2.5" fill="#2563eb"/>
  <circle cx="445.56" cy="300.01" r="2.5" fill="#2563eb"/>
  <circle cx="447.62" cy="299.89" r="2.5" fill="#2563eb"/>
  <circle cx="449.68" cy="299.97" r="2.5" fill="#2563eb"/>
  <circle cx="451.75" cy="250.03" r="2.5" fill="#2563eb"/>
  <circle cx="453.81" cy="299.93" r="2.5" fill="#2563eb"/>
  <circle cx="455.87" cy="299.89" r="2.5" fill="#2563eb"/>
  <circle cx="457.94" cy="299.97" r="2.5" fill="#2563eb"/>
  <circle cx="460.00" cy="249.94" r="2.5" fill="#2563eb"/>
  <circle cx="462.06" cy="300.01" r="2.5" fill="#2563eb"/>
  <circle cx="464.13" cy="300.01" r="2.5" fill="#2563eb"/>
  <circle cx="466.19" cy="299.97" r="2.5" fill="#2563eb"/>
  <circle cx="468.25" cy="249.99" r="2.5" fill="#2563eb"/>
  <circle cx="470.32" cy="299.97" r="2.5" fill="#2563eb"/>
  <circle cx="472.38" cy="299.97" r="2.5" fill="#2563eb"/>
  <circle cx="474.44" cy="300.06" r="2.5" fill="#2563eb"/>
  <circle cx="476.51" cy="300.06" r="2.5" fill="#2563eb"/>
  <circle cx="478.57" cy="299.93" r="2.5" fill="#2563eb"/>
  <circle cx="480.63" cy="300.01" r="2.5" fill="#2563eb"/>
  <circle cx="482.70" cy="300.01" r="2.5" fill="#2563eb"/>
  <circle cx="484.76" cy="299.93" r="2.5" fill="#2563eb"/>
  <circle cx="486.83" cy="300.01" r="2.5" fill="#2563eb"/>
  <circle cx="488.89" cy="300.01" r="2.5" fill="#2563eb"/>
  <circle cx="490.95" cy="299.97" r="2.5" fill="#2563eb"/>
  <circle cx="493.02" cy="300.01" r="2.5" fill="#2563eb"/>
  <circle cx="495.08" cy="300.01" r="2.5" fill="#2563eb"/>
  <circle cx="497.14" cy="300.01" r="2.5" fill="#2563eb"/>
  <circle cx="499.21" cy="300.01" r="2.5" fill="#2563eb"/>
  <circle cx="501.27" cy="249.86" r="2.5" fill="#2563eb"/>
  <circle cx="503.33" cy="300.01" r="2.5" fill="#2563eb"/>
  <circle cx="505.40" cy="300.10" r="2.5" fill="#2563eb"/>
  <circle cx="507.46" cy="299.93" r="2.5" fill="#2563eb"/>
  <circle cx="509.52" cy="300.01" r="2.5" fill="#2563eb"/>
  <circle cx="511.59" cy="299.93" r="2.5" fill="#2563eb"/>
  <circle cx="513.65" cy="300.01" r="2.5" fill="#2563eb"/>
  <circle cx="515.71" cy="300.01" r="2.5" fill="#2563eb"/>
  <circle cx="517.78" cy="300.01" r="2.5" fill="#2563eb"/>
  <circle cx="519.84" cy="300.01" r="2.5" fill="#2563eb"/>
  <circle cx="521.90" cy="300.01" r="2.5" fill="#2563eb"/>
  <circle cx="523.97" cy="299.97" r="2.5" fill="#2563eb"/>
  <circle cx="526.03" cy="300.01" r="2.5" fill="#2563eb"/>
  <circle cx="528.10" cy="300.01" r="2.5" fill="#2563eb"/>
  <circle cx="530.16" cy="300.01" r="2.5" fill="#2563eb"/>
  <circle cx="532.22" cy="300.01" r="2.5" fill="#2563eb"/>
  <circle cx="534.29" cy="250.03" r="2.5" fill="#2563eb"/>
  <circle cx="536.35" cy="300.01" r="2.5" fill="#2563eb"/>
  <circle cx="538.41" cy="300.01" r="2.5" fill="#2563eb"/>
  <circle cx="540.48" cy="299.97" r="2.5" fill="#2563eb"/>
  <circle cx="542.54" cy="300.01" r="2.5" fill="#2563eb"/>
  <circle cx="544.60" cy="300.01" r="2.5" fill="#2563eb"/>
  <circle cx="546.67" cy="299.97" r="2.5" fill="#2563eb"/>
  <circle cx="548.73" cy="299.97" r="2.5" fill="#2563eb"/>
  <circle cx="550.79" cy="300.01" r="2.5" fill="#2563eb"/>
  <circle cx="552.86" cy="299.97" r="2.5" fill="#2563eb"/>
  <circle cx="554.92" cy="300.01" r="2.5" fill="#2563eb"/>
  <circle cx="556.98" cy="299.93" r="2.5" fill="#2563eb"/>
  <circle cx="559.05" cy="300.01" r="2.5" fill="#2563eb"/>
  <circle cx="561.11" cy="250.03" r="2.5" fill="#2563eb"/>
  <circle cx="563.17" cy="300.01" r="2.5" fill="#2563eb"/>
  <circle cx="565.24" cy="300.01" r="2.5" fill="#2563eb"/>
  <circle cx="567.30" cy="300.01" r="2.5" fill="#2563eb"/>
  <circle cx="569.37" cy="300.01" r="2.5" fill="#2563eb"/>
  <circle cx="571.43" cy="300.01" r="2.5" fill="#2563eb"/>
  <circle cx="573.49" cy="299.89" r="2.5" fill="#2563eb"/>
  <circle cx="575.56" cy="300.01" r="2.5" fill="#2563eb"/>
  <circle cx="577.62" cy="300.01" r="2.5" fill="#2563eb"/>
  <circle cx="579.68" cy="250.07" r="2.5" fill="#2563eb"/>
  <circle cx="581.75" cy="300.01" r="2.5" fill="#2563eb"/>
  <circle cx="583.81" cy="299.93" r="2.5" fill="#2563eb"/>
  <circle cx="585.87" cy="300.01" r="2.5" fill="#2563eb"/>
  <circle cx="587.94" cy="299.97" r="2.5" fill="#2563eb"/>
  <circle cx="590.00" cy="299.97" r="2.5" fill="#2563eb"/>
  <circle cx="592.06" cy="299.97" r="2.5" fill="#2563eb"/>
  <circle cx="594.13" cy="250.03" r="2.5" fill="#2563eb"/>
  <circle cx="596.19" cy="300.01" r="2.5" fill="#2563eb"/>
  <circle cx="598.25" cy="300.01" r="2.5" fill="#2563eb"/>
  <circle cx="600.32" cy="300.01" r="2.5" fill="#2563eb"/>
  <circle cx="602.38" cy="300.01" r="2.5" fill="#2563eb"/>
  <circle cx="604.44" cy="299.97" r="2.5" fill="#2563eb"/>
  <circle cx="606.51" cy="300.01" r="2.5" fill="#2563eb"/>
  <circle cx="608.57" cy="299.97" r="2.5" fill="#2563eb"/>
  <circle cx="610.63" cy="300.01" r="2.5" fill="#2563eb"/>
  <circle cx="612.70" cy="299.97" r="2.5" fill="#2563eb"/>
  <circle cx="614.76" cy="249.90" r="2.5" fill="#2563eb"/>
  <circle cx="616.83" cy="300.01" r="2.5" fill="#2563eb"/>
  <circle cx="618.89" cy="300.01" r="2.5" fill="#2563eb"/>
  <circle cx="620.95" cy="299.89" r="2.5" fill="#2563eb"/>
  <circle cx="623.02" cy="299.97" r="2.5" fill="#2563eb"/>
  <circle cx="625.08" cy="299.97" r="2.5" fill="#2563eb"/>
  <circle cx="627.14" cy="249.99" r="2.5" fill="#2563eb"/>
  <circle cx="629.21" cy="299.97" r="2.5" fill="#2563eb"/>
  <circle cx="631.27" cy="299.89" r="2.5" fill="#2563eb"/>
  <circle cx="633.33" cy="300.01" r="2.5" fill="#2563eb"/>
  <circle cx="635.40" cy="299.97" r="2.5" fill="#2563eb"/>
  <circle cx="637.46" cy="299.97" r="2.5" fill="#2563eb"/>
  <circle cx="639.52" cy="300.01" r="2.5" fill="#2563eb"/>
  <circle cx="641.59" cy="299.97" r="2.5" fill="#2563eb"/>
  <circle cx="643.65" cy="249.99" r="2.5" fill="#2563eb"/>
  <circle cx="645.71" cy="299.97" r="2.5" fill="#2563eb"/>
  <circle cx="647.78" cy="299.97" r="2.5" fill="#2563eb"/>
  <circle cx="649.84" cy="300.06" r="2.5" fill="#2563eb"/>
  <circle cx="651.90" cy="300.06" r="2.5" fill="#2563eb"/>
  <circle cx="653.97" cy="249.94" r="2.5" fill="#2563eb"/>
  <circle cx="656.03" cy="300.01" r="2.5" fill="#2563eb"/>
  <circle cx="658.10" cy="299.93" r="2.5" fill="#2563eb"/>
  <circle cx="660.16" cy="300.01" r="2.5" fill="#2563eb"/>
  <circle cx="662.22" cy="300.01" r="2.5" fill="#2563eb"/>
  <circle cx="664.29" cy="249.99" r="2.5" fill="#2563eb"/>
  <circle cx="666.35" cy="300.01" r="2.5" fill="#2563eb"/>
  <circle cx="668.41" cy="300.01" r="2.5" fill="#2563eb"/>
  <circle cx="670.48" cy="300.01" r="2.5" fill="#2563eb"/>
  <circle cx="672.54" cy="299.93" r="2.5" fill="#2563eb"/>
  <circle cx="674.60" cy="299.93" r="2.5" fill="#2563eb"/>
  <circle cx="676.67" cy="300.01" r="2.5" fill="#2563eb"/>
  <circle cx="678.73" cy="300.01" r="2.5" fill="#2563eb"/>
  <circle cx="680.79" cy="249.94" r="2.5" fill="#2563eb"/>
  <circle cx="682.86" cy="299.97" r="2.5" fill="#2563eb"/>
  <circle cx="684.92" cy="299.97" r="2.5" fill="#2563eb"/>
  <circle cx="686.98" cy="300.01" r="2.5" fill="#2563eb"/>
  <circle cx="689.05" cy="300.01" r="2.5" fill="#2563eb"/>
  <circle cx="691.11" cy="300.01" r="2.5" fill="#2563eb"/>
  <circle cx="693.17" cy="249.99" r="2.5" fill="#2563eb"/>
  <circle cx="695.24" cy="300.01" r="2.5" fill="#2563eb"/>
  <circle cx="697.30" cy="300.01" r="2.5" fill="#2563eb"/>
  <circle cx="699.37" cy="300.01" r="2.5" fill="#2563eb"/>
  <circle cx="701.43" cy="250.03" r="2.5" fill="#2563eb"/>
  <circle cx="703.49" cy="300.01" r="2.5" fill="#2563eb"/>
  <circle cx="705.56" cy="300.01" r="2.5" fill="#2563eb"/>
  <circle cx="707.62" cy="300.01" r="2.5" fill="#2563eb"/>
  <circle cx="709.68" cy="299.97" r="2.5" fill="#2563eb"/>
  <circle cx="711.75" cy="300.01" r="2.5" fill="#2563eb"/>
  <circle cx="713.81" cy="300.01" r="2.5" fill="#2563eb"/>
  <circle cx="715.87" cy="299.97" r="2.5" fill="#2563eb"/>
  <circle cx="717.94" cy="299.97" r="2.5" fill="#2563eb"/>
  <circle cx="720.00" cy="300.01" r="2.5" fill="#2563eb"/>
  <circle cx="722.06" cy="300.01" r="2.5" fill="#2563eb"/>
  <circle cx="724.13" cy="299.97" r="2.5" fill="#2563eb"/>
  <circle cx="726.19" cy="299.93" r="2.5" fill="#2563eb"/>
  <circle cx="728.25" cy="300.01" r="2.5" fill="#2563eb"/>
  <circle cx="730.32" cy="300.06" r="2.5" fill="#2563eb"/>
  <circle cx="732.38" cy="299.97" r="2.5" fill="#2563eb"/>
  <circle cx="734.44" cy="300.01" r="2.5" fill="#2563eb"/>
  <circle cx="736.51" cy="250.03" r="2.5" fill="#2563eb"/>
  <circle cx="738.57" cy="250.03" r="2.5" fill="#2563eb"/>
  <circle cx="740.63" cy="299.93" r="2.5" fill="#2563eb"/>
  <circle cx="742.70" cy="299.97" r="2.5" fill="#2563eb"/>
  <circle cx="744.76" cy="300.01" r="2.5" fill="#2563eb"/>
  <circle cx="746.83" cy="300.01" r="2.5" fill="#2563eb"/>
  <circle cx="748.89" cy="300.06" r="2.5" fill="#2563eb"/>
  <circle cx="750.95" cy="300.01" r="2.5" fill="#2563eb"/>
  <circle cx="753.02" cy="299.93" r="2.5" fill="#2563eb"/>
  <circle cx="755.08" cy="300.01" r="2.5" fill="#2563eb"/>
  <circle cx="757.14" cy="300.01" r="2.5" fill="#2563eb"/>
  <circle cx="759.21" cy="299.97" r="2.5" fill="#2563eb"/>
  <circle cx="761.27" cy="299.97" r="2.5" fill="#2563eb"/>
  <circle cx="763.33" cy="300.01" r="2.5" fill="#2563eb"/>
  <circle cx="765.40" cy="250.03" r="2.5" fill="#2563eb"/>
  <circle cx="767.46" cy="300.01" r="2.5" fill="#2563eb"/>
  <circle cx="769.52" cy="300.01" r="2.5" fill="#2563eb"/>
  <circle cx="771.59" cy="300.01" r="2.5" fill="#2563eb"/>
  <circle cx="773.65" cy="299.97" r="2.5" fill="#2563eb"/>
  <circle cx="775.71" cy="300.01" r="2.5" fill="#2563eb"/>
  <circle cx="777.78" cy="299.97" r="2.5" fill="#2563eb"/>
  <circle cx="779.84" cy="300.01" r="2.5" fill="#2563eb"/>
  <circle cx="781.90" cy="299.97" r="2.5" fill="#2563eb"/>
  <circle cx="783.97" cy="299.97" r="2.5" fill="#2563eb"/>
  <circle cx="786.03" cy="299.93" r="2.5" fill="#2563eb"/>
  <circle cx="788.10" cy="300.01" r="2.5" fill="#2563eb"/>
  <circle cx="790.16" cy="300.01" r="2.5" fill="#2563eb"/>
  <circle cx="792.22" cy="299.89" r="2.5" fill="#2563eb"/>
  <circle cx="794.29" cy="299.97" r="2.5" fill="#2563eb"/>
  <circle cx="796.35" cy="299.97" r="2.5" fill="#2563eb"/>
  <circle cx="798.41" cy="300.06" r="2.5" fill="#2563eb"/>
  <circle cx="800.48" cy="249.90" r="2.5" fill="#2563eb"/>
  <circle cx="802.54" cy="299.89" r="2.5" fill="#2563eb"/>
  <circle cx="804.60" cy="300.01" r="2.5" fill="#2563eb"/>
  <circle cx="806.67" cy="299.97" r="2.5" fill="#2563eb"/>
  <circle cx="808.73" cy="299.97" r="2.5" fill="#2563eb"/>
  <circle cx="810.79" cy="299.97" r="2.5" fill="#2563eb"/>
  <circle cx="812.86" cy="300.01" r="2.5" fill="#2563eb"/>
  <circle cx="814.92" cy="300.01" r="2.5" fill="#2563eb"/>
  <circle cx="816.98" cy="299.97" r="2.5" fill="#2563eb"/>
  <circle cx="819.05" cy="299.97" r="2.5" fill="#2563eb"/>
  <circle cx="821.11" cy="299.97" r="2.5" fill="#2563eb"/>
  <circle cx="823.17" cy="250.03" r="2.5" fill="#2563eb"/>
  <circle cx="825.24" cy="299.93" r="2.5" fill="#2563eb"/>
  <circle cx="827.30" cy="300.01" r="2.5" fill="#2563eb"/>
  <circle cx="829.37" cy="300.01" r="2.5" fill="#2563eb"/>
  <circle cx="831.43" cy="299.93" r="2.5" fill="#2563eb"/>
  <circle cx="833.49" cy="300.01" r="2.5" fill="#2563eb"/>
  <circle cx="835.56" cy="300.01" r="2.5" fill="#2563eb"/>
  <circle cx="837.62" cy="299.97" r="2.5" fill="#2563eb"/>
  <circle cx="839.68" cy="300.01" r="2.5" fill="#2563eb"/>
  <circle cx="841.75" cy="300.01" r="2.5" fill="#2563eb"/>
  <circle cx="843.81" cy="300.06" r="2.5" fill="#2563eb"/>
  <circle cx="845.87" cy="300.01" r="2.5" fill="#2563eb"/>
  <circle cx="847.94" cy="299.97" r="2.5" fill="#2563eb"/>
  <circle cx="850.00" cy="299.89" r="2.5" fill="#2563eb"/>
  <circle cx="852.06" cy="300.01" r="2.5" fill="#2563eb"/>
  <circle cx="854.13" cy="300.01" r="2.5" fill="#2563eb"/>
  <circle cx="856.19" cy="249.94" r="2.5" fill="#2563eb"/>
  <circle cx="858.25" cy="249.94" r="2.5" fill="#2563eb"/>
  <circle cx="860.32" cy="300.01" r="2.5" fill="#2563eb"/>
  <circle cx="862.38" cy="300.01" r="2.5" fill="#2563eb"/>
  <circle cx="864.44" cy="300.01" r="2.5" fill="#2563eb"/>
  <circle cx="866.51" cy="300.01" r="2.5" fill="#2563eb"/>
  <circle cx="868.57" cy="299.97" r="2.5" fill="#2563eb"/>
  <circle cx="870.63" cy="250.03" r="2.5" fill="#2563eb"/>
  <circle cx="872.70" cy="300.01" r="2.5" fill="#2563eb"/>
  <circle cx="874.76" cy="300.01" r="2.5" fill="#2563eb"/>
  <circle cx="876.83" cy="300.01" r="2.5" fill="#2563eb"/>
  <circle cx="878.89" cy="300.01" r="2.5" fill="#2563eb"/>
  <circle cx="880.95" cy="250.03" r="2.5" fill="#2563eb"/>
  <circle cx="883.02" cy="249.99" r="2.5" fill="#2563eb"/>
  <circle cx="885.08" cy="300.01" r="2.5" fill="#2563eb"/>
  <circle cx="887.14" cy="299.97" r="2.5" fill="#2563eb"/>
  <circle cx="889.21" cy="300.01" r="2.5" fill="#2563eb"/>
  <circle cx="891.27" cy="299.97" r="2.5" fill="#2563eb"/>
  <circle cx="893.33" cy="300.01" r="2.5" fill="#2563eb"/>
  <circle cx="895.40" cy="299.97" r="2.5" fill="#2563eb"/>
  <circle cx="897.46" cy="299.97" r="2.5" fill="#2563eb"/>
  <circle cx="899.52" cy="299.97" r="2.5" fill="#2563eb"/>
  <circle cx="901.59" cy="300.06" r="2.5" fill="#2563eb"/>
  <circle cx="903.65" cy="249.99" r="2.5" fill="#2563eb"/>
  <circle cx="905.71" cy="300.01" r="2.5" fill="#2563eb"/>
  <circle cx="907.78" cy="250.03" r="2.5" fill="#2563eb"/>
  <circle cx="909.84" cy="249.94" r="2.5" fill="#2563eb"/>
  <circle cx="911.90" cy="249.99" r="2.5" fill="#2563eb"/>
  <circle cx="913.97" cy="300.01" r="2.5" fill="#2563eb"/>
  <circle cx="916.03" cy="300.06" r="2.5" fill="#2563eb"/>
  <circle cx="918.10" cy="300.01" r="2.5" fill="#2563eb"/>
  <circle cx="920.16" cy="299.97" r="2.5" fill="#2563eb"/>
  <circle cx="922.22" cy="299.97" r="2.5" fill="#2563eb"/>
  <circle cx="924.29" cy="300.01" r="2.5" fill="#2563eb"/>
  <circle cx="926.35" cy="299.93" r="2.5" fill="#2563eb"/>
  <circle cx="928.41" cy="299.89" r="2.5" fill="#2563eb"/>
  <circle cx="930.48" cy="299.89" r="2.5" fill="#2563eb"/>
  <circle cx="932.54" cy="299.89" r="2.5" fill="#2563eb"/>
  <circle cx="934.60" cy="299.89" r="2.5" fill="#2563eb"/>
  <circle cx="936.67" cy="299.85" r="2.5" fill="#2563eb"/>
  <circle cx="938.73" cy="299.85" r="2.5" fill="#2563eb"/>
  <circle cx="940.79" cy="299.89" r="2.5" fill="#2563eb"/>
  <circle cx="942.86" cy="299.81" r="2.5" fill="#2563eb"/>
  <circle cx="944.92" cy="299.81" r="2.5" fill="#2563eb"/>
  <circle cx="946.98" cy="299.81" r="2.5" fill="#2563eb"/>
  <circle cx="949.05" cy="299.76" r="2.5" fill="#2563eb"/>
  <circle cx="951.11" cy="299.76" r="2.5" fill="#2563eb"/>
  <circle cx="953.17" cy="299.76" r="2.5" fill="#2563eb"/>
  <circle cx="955.24" cy="299.72" r="2.5" fill="#2563eb"/>
  <circle cx="957.30" cy="299.68" r="2.5" fill="#2563eb"/>
  <circle cx="959.37" cy="299.60" r="2.5" fill="#2563eb"/>
  <circle cx="961.43" cy="299.60" r="2.5" fill="#2563eb"/>
  <circle cx="963.49" cy="299.60" r="2.5" fill="#2563eb"/>
  <circle cx="965.56" cy="299.56" r="2.5" fill="#2563eb"/>
  <circle cx="967.62" cy="299.47" r="2.5" fill="#2563eb"/>
  <circle cx="969.68" cy="299.43" r="2.5" fill="#2563eb"/>
  <circle cx="971.75" cy="299.43" r="2.5" fill="#2563eb"/>
  <circle cx="973.81" cy="299.39" r="2.5" fill="#2563eb"/>
  <circle cx="975.87" cy="299.47" r="2.5" fill="#2563eb"/>
  <circle cx="977.94" cy="259.82" r="2.5" fill="#2563eb"/>
  <circle cx="980.00" cy="338.96" r="2.5" fill="#2563eb"/>
</svg>
