<?xml version="1.0" encoding="UTF-8"?>
<svg xmlns="http://www.w3.org/2000/svg" width="1000" height="420" viewBox="0 0 1000 420">
  <rect width="100%" height="100%" fill="#ffffff"/>
  <text x="70" y="28" font-size="20" font-weight="600">수집 시점 기준 - 시간별 스냅샷</text>
  <text x="70" y="402" font-size="12" fill="#555">스냅샷 수</text>
  <line x1="70" y1="350.00" x2="980" y2="350.00" stroke="#e5e7eb" stroke-width="1"/>
  <text x="62" y="354.00" font-size="11" fill="#6b7280" text-anchor="end">0</text>
  <line x1="70" y1="290.00" x2="980" y2="290.00" stroke="#e5e7eb" stroke-width="1"/>
  <text x="62" y="294.00" font-size="11" fill="#6b7280" text-anchor="end">1,440</text>
  <line x1="70" y1="230.00" x2="980" y2="230.00" stroke="#e5e7eb" stroke-width="1"/>
  <text x="62" y="234.00" font-size="11" fill="#6b7280" text-anchor="end">2,880</text>
  <line x1="70" y1="170.00" x2="980" y2="170.00" stroke="#e5e7eb" stroke-width="1"/>
  <text x="62" y="174.00" font-size="11" fill="#6b7280" text-anchor="end">4,321</text>
  <line x1="70" y1="110.00" x2="980" y2="110.00" stroke="#e5e7eb" stroke-width="1"/>
  <text x="62" y="114.00" font-size="11" fill="#6b7280" text-anchor="end">5,761</text>
  <line x1="70" y1="50.00" x2="980" y2="50.00" stroke="#e5e7eb" stroke-width="1"/>
  <text x="62" y="54.00" font-size="11" fill="#6b7280" text-anchor="end">7,202</text>
  <line x1="70" y1="350" x2="980" y2="350" stroke="#111827" stroke-width="1.2"/>
  <line x1="70" y1="50" x2="70" y2="350" stroke="#111827" stroke-width="1.2"/>
  <line x1="70.00" y1="350" x2="70.00" y2="356" stroke="#9ca3af" stroke-width="1"/>
  <text x="70.00" y="372" font-size="10" fill="#6b7280" text-anchor="middle">2026-02-28 18</text>
  <line x1="145.29" y1="350" x2="145.29" y2="356" stroke="#9ca3af" stroke-width="1"/>
  <text x="145.29" y="372" font-size="10" fill="#6b7280" text-anchor="middle">2026-03-09 01</text>
  <line x1="220.58" y1="350" x2="220.58" y2="356" stroke="#9ca3af" stroke-width="1"/>
  <text x="220.58" y="372" font-size="10" fill="#6b7280" text-anchor="middle">2026-03-11 03</text>
  <line x1="295.86" y1="350" x2="295.86" y2="356" stroke="#9ca3af" stroke-width="1"/>
  <text x="295.86" y="372" font-size="10" fill="#6b7280" text-anchor="middle">2026-03-13 05</text>
  <line x1="371.15" y1="350" x2="371.15" y2="356" stroke="#9ca3af" stroke-width="1"/>
  <text x="371.15" y="372" font-size="10" fill="#6b7280" text-anchor="middle">2026-03-15 17</text>
  <line x1="446.44" y1="350" x2="446.44" y2="356" stroke="#9ca3af" stroke-width="1"/>
  <text x="446.44" y="372" font-size="10" fill="#6b7280" text-anchor="middle">2026-03-18 18</text>
  <line x1="521.73" y1="350" x2="521.73" y2="356" stroke="#9ca3af" stroke-width="1"/>
  <text x="521.73" y="372" font-size="10" fill="#6b7280" text-anchor="middle">2026-03-21 13</text>
  <line x1="597.01" y1="350" x2="597.01" y2="356" stroke="#9ca3af" stroke-width="1"/>
  <text x="597.01" y="372" font-size="10" fill="#6b7280" text-anchor="middle">2026-03-24 05</text>
  <line x1="672.30" y1="350" x2="672.30" y2="356" stroke="#9ca3af" stroke-width="1"/>
  <text x="672.30" y="372" font-size="10" fill="#6b7280" text-anchor="middle">2026-03-27 12</text>
  <line x1="747.59" y1="350" x2="747.59" y2="356" stroke="#9ca3af" stroke-width="1"/>
  <text x="747.59" y="372" font-size="10" fill="#6b7280" text-anchor="middle">2026-03-30 14</text>
  <line x1="822.88" y1="350" x2="822.88" y2="356" stroke="#9ca3af" stroke-width="1"/>
  <text x="822.88" y="372" font-size="10" fill="#6b7280" text-anchor="middle">2026-04-02 21</text>
  <line x1="898.17" y1="350" x2="898.17" y2="356" stroke="#9ca3af" stroke-width="1"/>
  <text x="898.17" y="372" font-size="10" fill="#6b7280" text-anchor="middle">2026-04-05 19</text>
  <line x1="973.45" y1="350" x2="973.45" y2="356" stroke="#9ca3af" stroke-width="1"/>
  <text x="973.45" y="372" font-size="10" fill="#6b7280" text-anchor="middle">2026-04-09 02</text>
  <line x1="980.00" y1="350" x2="980.00" y2="356" stroke="#9ca3af" stroke-width="1"/>
  <text x="980.00" y="372" font-size="10" fill="#6b7280" text-anchor="middle">2026-04-09 08</text>
  <polyline fill="none" stroke="#2563eb" stroke-width="2.5" points="70.00,50.00 71.64,50.12 73.27,50.17 74.91,50.46 76.55,50.00 78.18,266.90 79.82,50.12 81.46,50.08 83.09,177.46 84.73,211.58 86.37,175.34 88.00,304.14 89.64,200.46 91.28,250.94 92.91,300.01 94.55,300.06 96.19,300.01 97.82,300.01 99.46,348.00 101.10,300.01 102.73,249.99 104.37,200.00 106.01,249.99 107.64,249.99 109.28,250.03 110.92,250.03 112.55,250.03 114.19,250.40 115.83,250.90 117.46,250.90 119.10,251.32 120.74,249.94 122.37,300.01 124.01,299.93 125.65,251.03 127.28,300.68 128.92,250.03 130.56,200.00 132.19,249.99 133.83,250.03 135.47,250.03 137.10,250.03 138.74,300.01 140.38,200.04 142.01,250.03 143.65,250.03 145.29,250.03 146.92,249.90 148.56,250.03 150.20,250.03 151.83,250.94 153.47,250.44 155.11,250.03 156.74,250.03 158.38,300.47 160.02,300.01 161.65,300.43 163.29,250.03 164.93,249.99 166.56,300.43 168.20,249.90 169.84,249.99 171.47,249.99 173.11,200.04 174.75,300.01 176.38,300.01 178.02,300.01 179.66,249.90 181.29,300.01 182.93,250.03 184.57,249.99 186.21,199.96 187.84,300.01 189.48,200.00 191.12,250.36 192.75,250.03 194.39,300.01 196.03,300.01 197.66,250.44 199.30,300.01 200.94,250.03 202.57,250.03 204.21,249.99 205.85,250.49 207.48,250.03 209.12,200.04 210.76,300.01 212.39,250.03 214.03,300.01 215.67,250.11 217.30,300.01 218.94,250.03 220.58,250.03 222.21,199.92 223.85,250.03 225.49,250.03 227.12,250.03 228.76,254.36 230.40,300.01 232.03,299.97 233.67,250.36 235.31,299.97 236.94,250.03 238.58,250.03 240.22,250.03 241.85,250.03 243.49,249.99 245.13,200.00 246.76,299.93 248.40,300.01 250.04,299.97 251.67,249.94 253.31,249.99 254.95,249.82 256.58,249.94 258.22,250.28 259.86,207.00 261.49,250.03 263.13,250.32 264.77,250.40 266.40,300.93 268.04,300.01 269.68,300.10 271.31,249.94 272.95,249.99 274.59,250.07 276.22,249.99 277.86,250.03 279.50,249.94 281.13,200.00 282.77,300.39 284.41,300.01 286.04,300.01 287.68,250.44 289.32,300.39 290.95,249.86 292.59,250.11 294.23,201.46 295.86,300.01 297.50,200.83 299.14,250.03 300.77,249.99 302.41,300.26 304.05,300.01 305.68,300.01 307.32,250.03 308.96,250.03 310.59,250.03 312.23,250.03 313.87,249.99 315.50,250.03 317.14,200.00 318.78,300.26 320.41,249.99 322.05,300.01 323.69,249.94 325.32,250.03 326.96,250.03 328.60,250.03 330.23,200.04 331.87,300.01 333.51,249.90 335.14,300.01 336.78,300.01 338.42,300.06 340.05,300.01 341.69,300.01 343.33,243.95 344.96,249.94 346.60,299.97 348.24,300.01 349.87,300.01 351.51,250.03 353.15,300.01 354.78,300.01 356.42,299.97 358.06,249.99 359.69,300.01 361.33,299.93 362.97,300.01 364.60,299.93 366.24,300.01 367.88,300.01 369.51,299.89 371.15,299.97 372.79,250.03 374.42,299.93 376.06,299.89 377.70,299.97 379.33,249.94 380.97,300.01 382.61,300.01 384.24,299.97 385.88,249.99 387.52,299.97 389.15,299.97 390.79,300.06 392.43,300.06 394.06,299.93 395.70,300.01 397.34,300.01 398.97,299.93 400.61,300.01 402.25,300.01 403.88,299.97 405.52,300.01 407.16,300.01 408.79,300.01 410.43,300.01 412.07,249.86 413.71,300.01 415.34,300.10 416.98,299.93 418.62,300.01 420.25,299.93 421.89,300.01 423.53,300.01 425.16,300.01 426.80,300.01 428.44,300.01 430.07,299.97 431.71,300.01 433.35,300.01 434.98,300.01 436.62,300.01 438.26,250.03 439.89,300.01 441.53,300.01 443.17,299.97 444.80,300.01 446.44,300.01 448.08,299.97 449.71,299.97 451.35,300.01 452.99,299.97 454.62,300.01 456.26,299.93 457.90,300.01 459.53,250.03 461.17,300.01 462.81,300.01 464.44,300.01 466.08,300.01 467.72,300.01 469.35,299.89 470.99,300.01 472.63,300.01 474.26,250.07 475.90,300.01 477.54,299.93 479.17,300.01 480.81,299.97 482.45,299.97 484.08,299.97 485.72,250.03 487.36,300.01 488.99,300.01 490.63,300.01 492.27,300.01 493.90,299.97 495.54,300.01 497.18,299.97 498.81,300.01 500.45,299.97 502.09,249.90 503.72,300.01 505.36,300.01 507.00,299.89 508.63,299.97 510.27,299.97 511.91,249.99 513.54,299.97 515.18,299.89 516.82,300.01 518.45,299.97 520.09,299.97 521.73,300.01 523.36,299.97 525.00,249.99 526.64,299.97 528.27,299.97 529.91,300.06 531.55,300.06 533.18,249.94 534.82,300.01 536.46,299.93 538.09,300.01 539.73,300.01 541.37,249.99 543.00,300.01 544.64,300.01 546.28,300.01 547.91,299.93 549.55,299.93 551.19,300.01 552.82,300.01 554.46,249.94 556.10,299.97 557.73,299.97 559.37,300.01 561.01,300.01 562.64,300.01 564.28,249.99 565.92,300.01 567.55,300.01 569.19,300.01 570.83,250.03 572.46,300.01 574.10,300.01 575.74,300.01 577.37,299.97 579.01,300.01 580.65,300.01 582.28,299.97 583.92,299.97 585.56,300.01 587.19,300.01 588.83,299.97 590.47,299.93 592.10,300.01 593.74,300.06 595.38,299.97 597.01,300.01 598.65,250.03 600.29,250.03 601.92,299.93 603.56,299.97 605.20,300.01 606.83,300.01 608.47,300.06 610.11,300.01 611.74,299.93 613.38,300.01 615.02,300.01 616.65,299.97 618.29,299.97 619.93,300.01 621.56,250.03 623.20,300.01 624.84,300.01 626.47,300.01 628.11,299.97 629.75,300.01 631.38,299.97 633.02,300.01 634.66,299.97 636.29,299.97 637.93,299.93 639.57,300.01 641.21,300.01 642.84,299.89 644.48,299.97 646.12,299.97 647.75,300.06 649.39,249.90 651.03,299.89 652.66,300.01 654.30,299.97 655.94,299.97 657.57,299.97 659.21,300.01 660.85,300.01 662.48,299.97 664.12,299.97 665.76,299.97 667.39,250.03 669.03,299.93 670.67,300.01 672.30,300.01 673.94,299.93 675.58,300.01 677.21,300.01 678.85,299.97 680.49,300.01 682.12,300.01 683.76,300.06 685.40,300.01 687.03,299.97 688.67,299.89 690.31,300.01 691.94,300.01 693.58,249.94 695.22,249.94 696.85,300.01 698.49,300.01 700.13,300.01 701.76,300.01 703.40,299.97 705.04,250.03 706.67,300.01 708.31,300.01 709.95,300.01 711.58,300.01 713.22,250.03 714.86,249.99 716.49,300.01 718.13,299.97 719.77,300.01 721.40,299.97 723.04,300.01 724.68,299.97 726.31,299.97 727.95,299.97 729.59,300.06 731.22,249.99 732.86,300.01 734.50,250.03 736.13,249.94 737.77,249.99 739.41,300.01 741.04,300.06 742.68,300.01 744.32,299.97 745.95,299.97 747.59,300.01 749.23,299.93 750.86,299.89 752.50,299.89 754.14,299.89 755.77,299.89 757.41,299.85 759.05,299.85 760.68,299.89 762.32,299.81 763.96,299.81 765.59,299.81 767.23,299.76 768.87,299.76 770.50,299.76 772.14,299.72 773.78,299.68 775.41,299.60 777.05,299.60 778.69,299.60 780.32,299.56 781.96,299.47 783.60,299.43 785.23,299.43 786.87,299.39 788.51,299.47 790.14,259.82 791.78,338.96 793.42,299.31 795.05,299.31 796.69,299.26 798.33,299.68 799.96,299.68 801.60,299.68 803.24,299.64 804.87,299.14 806.51,299.14 808.15,299.10 809.78,299.10 811.42,299.10 813.06,248.07 814.69,299.06 816.33,299.06 817.97,299.06 819.60,299.06 821.24,299.06 822.88,298.97 824.51,298.97 826.15,298.93 827.79,298.97 829.42,298.93 831.06,298.89 832.70,298.89 834.33,298.89 835.97,298.89 837.61,247.78 839.24,298.89 840.88,298.89 842.52,298.85 844.15,298.85 845.79,298.81 847.43,298.81 849.06,298.81 850.70,298.81 852.34,298.81 853.97,298.81 855.61,298.81 857.25,298.81 858.88,298.81 860.52,298.72 862.16,247.45 863.79,247.45 865.43,298.72 867.07,298.72 868.71,298.72 870.34,298.72 871.98,298.72 873.62,298.72 875.25,247.36 876.89,298.68 878.53,247.36 880.16,247.36 881.80,247.36 883.44,298.68 885.07,298.68 886.71,298.68 888.35,298.68 889.98,298.68 891.62,341.67 893.26,307.01 894.89,298.68 896.53,298.68 898.17,298.68 899.80,247.36 901.44,298.64 903.08,247.36 904.71,247.28 906.35,247.20 907.99,298.60 909.62,298.60 911.26,247.03 912.90,298.51 914.53,298.51 916.17,298.51 917.81,298.51 919.44,298.51 921.08,298.51 922.72,298.51 924.35,298.51 925.99,298.51 927.63,298.51 929.26,298.51 930.90,298.51 932.54,298.51 934.17,298.51 935.81,298.51 937.45,298.51 939.08,298.51 940.72,298.51 942.36,298.51 943.99,298.51 945.63,298.51 947.27,298.51 948.90,298.51 950.54,298.51 952.18,298.51 953.81,298.51 955.45,298.47 957.09,298.51 958.72,298.51 960.36,298.47 962.00,298.51 963.63,298.47 965.27,298.51 966.91,298.43 968.54,298.56 970.18,298.43 971.82,298.43 973.45,298.43 975.09,298.43 976.73,298.43 978.36,298.43 980.00,298.43"/>
  <circle cx="70.00" cy="50.00" r="2.5" fill="#2563eb"/>
  <circle cx="71.64" cy="50.12" r="2.5" fill="#2563eb"/>
  <circle cx="73.27" cy="50.17" r="2.5" fill="#2563eb"/>
  <circle cx="74.91" cy="50.46" r="2.5" fill="#2563eb"/>
  <circle cx="76.55" cy="50.00" r="2.5" fill="#2563eb"/>
  <circle cx="78.18" cy="266.90" r="2.5" fill="#2563eb"/>
  <circle cx="79.82" cy="50.12" r="2.5" fill="#2563eb"/>
  <circle cx="81.46" cy="50.08" r="2.5" fill="#2563eb"/>
  <circle cx="83.09" cy="177.46" r="2.5" fill="#2563eb"/>
  <circle cx="84.73" cy="211.58" r="2.5" fill="#2563eb"/>
  <circle cx="86.37" cy="175.34" r="2.5" fill="#2563eb"/>
  <circle cx="88.00" cy="304.14" r="2.5" fill="#2563eb"/>
  <circle cx="89.64" cy="200.46" r="2.5" fill="#2563eb"/>
  <circle cx="91.28" cy="250.94" r="2.5" fill="#2563eb"/>
  <circle cx="92.91" cy="300.01" r="2.5" fill="#2563eb"/>
  <circle cx="94.55" cy="300.06" r="2.5" fill="#2563eb"/>
  <circle cx="96.19" cy="300.01" r="2.5" fill="#2563eb"/>
  <circle cx="97.82" cy="300.01" r="2.5" fill="#2563eb"/>
  <circle cx="99.46" cy="348.00" r="2.5" fill="#2563eb"/>
  <circle cx="101.10" cy="300.01" r="2.5" fill="#2563eb"/>
  <circle cx="102.73" cy="249.99" r="2.5" fill="#2563eb"/>
  <circle cx="104.37" cy="200.00" r="2.5" fill="#2563eb"/>
  <circle cx="106.01" cy="249.99" r="2.5" fill="#2563eb"/>
  <circle cx="107.64" cy="249.99" r="2.5" fill="#2563eb"/>
  <circle cx="109.28" cy="250.03" r="2.5" fill="#2563eb"/>
  <circle cx="110.92" cy="250.03" r="2.5" fill="#2563eb"/>
  <circle cx="112.55" cy="250.03" r="2.5" fill="#2563eb"/>
  <circle cx="114.19" cy="250.40" r="2.5" fill="#2563eb"/>
  <circle cx="115.83" cy="250.90" r="2.5" fill="#2563eb"/>
  <circle cx="117.46" cy="250.90" r="2.5" fill="#2563eb"/>
  <circle cx="119.10" cy="251.32" r="2.5" fill="#2563eb"/>
  <circle cx="120.74" cy="249.94" r="2.5" fill="#2563eb"/>
  <circle cx="122.37" cy="300.01" r="2.5" fill="#2563eb"/>
  <circle cx="124.01" cy="299.93" r="2.5" fill="#2563eb"/>
  <circle cx="125.65" cy="251.03" r="2.5" fill="#2563eb"/>
  <circle cx="127.28" cy="300.68" r="2.5" fill="#2563eb"/>
  <circle cx="128.92" cy="250.03" r="2.5" fill="#2563eb"/>
  <circle cx="130.56" cy="200.00" r="2.5" fill="#2563eb"/>
  <circle cx="132.19" cy="249.99" r="2.5" fill="#2563eb"/>
  <circle cx="133.83" cy="250.03" r="2.5" fill="#2563eb"/>
  <circle cx="135.47" cy="250.03" r="2.5" fill="#2563eb"/>
  <circle cx="137.10" cy="250.03" r="2.5" fill="#2563eb"/>
  <circle cx="138.74" cy="300.01" r="2.5" fill="#2563eb"/>
  <circle cx="140.38" cy="200.04" r="2.5" fill="#2563eb"/>
  <circle cx="142.01" cy="250.03" r="2.5" fill="#2563eb"/>
  <circle cx="143.65" cy="250.03" r="2.5" fill="#2563eb"/>
  <circle cx="145.29" cy="250.03" r="2.5" fill="#2563eb"/>
  <circle cx="146.92" cy="249.90" r="2.5" fill="#2563eb"/>
  <circle cx="148.56" cy="250.03" r="2.5" fill="#2563eb"/>
  <circle cx="150.20" cy="250.03" r="2.5" fill="#2563eb"/>
  <circle cx="151.83" cy="250.94" r="2.5" fill="#2563eb"/>
  <circle cx="153.47" cy="250.44" r="2.5" fill="#2563eb"/>
  <circle cx="155.11" cy="250.03" r="2.5" fill="#2563eb"/>
  <circle cx="156.74" cy="250.03" r="2.5" fill="#2563eb"/>
  <circle cx="158.38" cy="300.47" r="2.5" fill="#2563eb"/>
  <circle cx="160.02" cy="300.01" r="2.5" fill="#2563eb"/>
  <circle cx="161.65" cy="300.43" r="2.5" fill="#2563eb"/>
  <circle cx="163.29" cy="250.03" r="2.5" fill="#2563eb"/>
  <circle cx="164.93" cy="249.99" r="2.5" fill="#2563eb"/>
  <circle cx="166.56" cy="300.43" r="2.5" fill="#2563eb"/>
  <circle cx="168.20" cy="249.90" r="2.5" fill="#2563eb"/>
  <circle cx="169.84" cy="249.99" r="2.5" fill="#2563eb"/>
  <circle cx="171.47" cy="249.99" r="2.5" fill="#2563eb"/>
  <circle cx="173.11" cy="200.04" r="2.5" fill="#2563eb"/>
  <circle cx="174.75" cy="300.01" r="2.5" fill="#2563eb"/>
  <circle cx="176.38" cy="300.01" r="2.5" fill="#2563eb"/>
  <circle cx="178.02" cy="300.01" r="2.5" fill="#2563eb"/>
  <circle cx="179.66" cy="249.90" r="2.5" fill="#2563eb"/>
  <circle cx="181.29" cy="300.01" r="2.5" fill="#2563eb"/>
  <circle cx="182.93" cy="250.03" r="2.5" fill="#2563eb"/>
  <circle cx="184.57" cy="249.99" r="2.5" fill="#2563eb"/>
  <circle cx="186.21" cy="199.96" r="2.5" fill="#2563eb"/>
  <circle cx="187.84" cy="300.01" r="2.5" fill="#2563eb"/>
  <circle cx="189.48" cy="200.00" r="2.5" fill="#2563eb"/>
  <circle cx="191.12" cy="250.36" r="2.5" fill="#2563eb"/>
  <circle cx="192.75" cy="250.03" r="2.5" fill="#2563eb"/>
  <circle cx="194.39" cy="300.01" r="2.5" fill="#2563eb"/>
  <circle cx="196.03" cy="300.01" r="2.5" fill="#2563eb"/>
  <circle cx="197.66" cy="250.44" r="2.5" fill="#2563eb"/>
  <circle cx="199.30" cy="300.01" r="2.5" fill="#2563eb"/>
  <circle cx="200.94" cy="250.03" r="2.5" fill="#2563eb"/>
  <circle cx="202.57" cy="250.03" r="2.5" fill="#2563eb"/>
  <circle cx="204.21" cy="249.99" r="2.5" fill="#2563eb"/>
  <circle cx="205.85" cy="250.49" r="2.5" fill="#2563eb"/>
  <circle cx="207.48" cy="250.03" r="2.5" fill="#2563eb"/>
  <circle cx="209.12" cy="200.04" r="2.5" fill="#2563eb"/>
  <circle cx="210.76" cy="300.01" r="2.5" fill="#2563eb"/>
  <circle cx="212.39" cy="250.03" r="2.5" fill="#2563eb"/>
  <circle cx="214.03" cy="300.01" r="2.5" fill="#2563eb"/>
  <circle cx="215.67" cy="250.11" r="2.5" fill="#2563eb"/>
  <circle cx="217.30" cy="300.01" r="2.5" fill="#2563eb"/>
  <circle cx="218.94" cy="250.03" r="2.5" fill="#2563eb"/>
  <circle cx="220.58" cy="250.03" r="2.5" fill="#2563eb"/>
  <circle cx="222.21" cy="199.92" r="2.5" fill="#2563eb"/>
  <circle cx="223.85" cy="250.03" r="2.5" fill="#2563eb"/>
  <circle cx="225.49" cy="250.03" r="2.5" fill="#2563eb"/>
  <circle cx="227.12" cy="250.03" r="2.5" fill="#2563eb"/>
  <circle cx="228.76" cy="254.36" r="2.5" fill="#2563eb"/>
  <circle cx="230.40" cy="300.01" r="2.5" fill="#2563eb"/>
  <circle cx="232.03" cy="299.97" r="2.5" fill="#2563eb"/>
  <circle cx="233.67" cy="250.36" r="2.5" fill="#2563eb"/>
  <circle cx="235.31" cy="299.97" r="2.5" fill="#2563eb"/>
  <circle cx="236.94" cy="250.03" r="2.5" fill="#2563eb"/>
  <circle cx="238.58" cy="250.03" r="2.5" fill="#2563eb"/>
  <circle cx="240.22" cy="250.03" r="2.5" fill="#2563eb"/>
  <circle cx="241.85" cy="250.03" r="2.5" fill="#2563eb"/>
  <circle cx="243.49" cy="249.99" r="2.5" fill="#2563eb"/>
  <circle cx="245.13" cy="200.00" r="2.5" fill="#2563eb"/>
  <circle cx="246.76" cy="299.93" r="2.5" fill="#2563eb"/>
  <circle cx="248.40" cy="300.01" r="2.5" fill="#2563eb"/>
  <circle cx="250.04" cy="299.97" r="2.5" fill="#2563eb"/>
  <circle cx="251.67" cy="249.94" r="2.5" fill="#2563eb"/>
  <circle cx="253.31" cy="249.99" r="2.5" fill="#2563eb"/>
  <circle cx="254.95" cy="249.82" r="2.5" fill="#2563eb"/>
  <circle cx="256.58" cy="249.94" r="2.5" fill="#2563eb"/>
  <circle cx="258.22" cy="250.28" r="2.5" fill="#2563eb"/>
  <circle cx="259.86" cy="207.00" r="2.5" fill="#2563eb"/>
  <circle cx="261.49" cy="250.03" r="2.5" fill="#2563eb"/>
  <circle cx="263.13" cy="250.32" r="2.5" fill="#2563eb"/>
  <circle cx="264.77" cy="250.40" r="2.5" fill="#2563eb"/>
  <circle cx="266.40" cy="300.93" r="2.5" fill="#2563eb"/>
  <circle cx="268.04" cy="300.01" r="2.5" fill="#2563eb"/>
  <circle cx="269.68" cy="300.10" r="2.5" fill="#2563eb"/>
  <circle cx="271.31" cy="249.94" r="2.5" fill="#2563eb"/>
  <circle cx="272.95" cy="249.99" r="2.5" fill="#2563eb"/>
  <circle cx="274.59" cy="250.07" r="2.5" fill="#2563eb"/>
  <circle cx="276.22" cy="249.99" r="2.5" fill="#2563eb"/>
  <circle cx="277.86" cy="250.03" r="2.5" fill="#2563eb"/>
  <circle cx="279.50" cy="249.94" r="2.5" fill="#2563eb"/>
  <circle cx="281.13" cy="200.00" r="2.5" fill="#2563eb"/>
  <circle cx="282.77" cy="300.39" r="2.5" fill="#2563eb"/>
  <circle cx="284.41" cy="300.01" r="2.5" fill="#2563eb"/>
  <circle cx="286.04" cy="300.01" r="2.5" fill="#2563eb"/>
  <circle cx="287.68" cy="250.44" r="2.5" fill="#2563eb"/>
  <circle cx="289.32" cy="300.39" r="2.5" fill="#2563eb"/>
  <circle cx="290.95" cy="249.86" r="2.5" fill="#2563eb"/>
  <circle cx="292.59" cy="250.11" r="2.5" fill="#2563eb"/>
  <circle cx="294.23" cy="201.46" r="2.5" fill="#2563eb"/>
  <circle cx="295.86" cy="300.01" r="2.5" fill="#2563eb"/>
  <circle cx="297.50" cy="200.83" r="2.5" fill="#2563eb"/>
  <circle cx="299.14" cy="250.03" r="2.5" fill="#2563eb"/>
  <circle cx="300.77" cy="249.99" r="2.5" fill="#2563eb"/>
  <circle cx="302.41" cy="300.26" r="2.5" fill="#2563eb"/>
  <circle cx="304.05" cy="300.01" r="2.5" fill="#2563eb"/>
  <circle cx="305.68" cy="300.01" r="2.5" fill="#2563eb"/>
  <circle cx="307.32" cy="250.03" r="2.5" fill="#2563eb"/>
  <circle cx="308.96" cy="250.03" r="2.5" fill="#2563eb"/>
  <circle cx="310.59" cy="250.03" r="2.5" fill="#2563eb"/>
  <circle cx="312.23" cy="250.03" r="2.5" fill="#2563eb"/>
  <circle cx="313.87" cy="249.99" r="2.5" fill="#2563eb"/>
  <circle cx="315.50" cy="250.03" r="2.5" fill="#2563eb"/>
  <circle cx="317.14" cy="200.00" r="2.5" fill="#2563eb"/>
  <circle cx="318.78" cy="300.26" r="2.5" fill="#2563eb"/>
  <circle cx="320.41" cy="249.99" r="2.5" fill="#2563eb"/>
  <circle cx="322.05" cy="300.01" r="2.5" fill="#2563eb"/>
  <circle cx="323.69" cy="249.94" r="2.5" fill="#2563eb"/>
  <circle cx="325.32" cy="250.03" r="2.5" fill="#2563eb"/>
  <circle cx="326.96" cy="250.03" r="2.5" fill="#2563eb"/>
  <circle cx="328.60" cy="250.03" r="2.5" fill="#2563eb"/>
  <circle cx="330.23" cy="200.04" r="2.5" fill="#2563eb"/>
  <circle cx="331.87" cy="300.01" r="2.5" fill="#2563eb"/>
  <circle cx="333.51" cy="249.90" r="2.5" fill="#2563eb"/>
  <circle cx="335.14" cy="300.01" r="2.5" fill="#2563eb"/>
  <circle cx="336.78" cy="300.01" r="2.5" fill="#2563eb"/>
  <circle cx="338.42" cy="300.06" r="2.5" fill="#2563eb"/>
  <circle cx="340.05" cy="300.01" r="2.5" fill="#2563eb"/>
  <circle cx="341.69" cy="300.01" r="2.5" fill="#2563eb"/>
  <circle cx="343.33" cy="243.95" r="2.5" fill="#2563eb"/>
  <circle cx="344.96" cy="249.94" r="2.5" fill="#2563eb"/>
  <circle cx="346.60" cy="299.97" r="2.5" fill="#2563eb"/>
  <circle cx="348.24" cy="300.01" r="2.5" fill="#2563eb"/>
  <circle cx="349.87" cy="300.01" r="2.5" fill="#2563eb"/>
  <circle cx="351.51" cy="250.03" r="2.5" fill="#2563eb"/>
  <circle cx="353.15" cy="300.01" r="2.5" fill="#2563eb"/>
  <circle cx="354.78" cy="300.01" r="2.5" fill="#2563eb"/>
  <circle cx="356.42" cy="299.97" r="2.5" fill="#2563eb"/>
  <circle cx="358.06" cy="249.99" r="2.5" fill="#2563eb"/>
  <circle cx="359.69" cy="300.01" r="2.5" fill="#2563eb"/>
  <circle cx="361.33" cy="299.93" r="2.5" fill="#2563eb"/>
  <circle cx="362.97" cy="300.01" r="2.5" fill="#2563eb"/>
  <circle cx="364.60" cy="299.93" r="2.5" fill="#2563eb"/>
  <circle cx="366.24" cy="300.01" r="2.5" fill="#2563eb"/>
  <circle cx="367.88" cy="300.01" r="2.5" fill="#2563eb"/>
  <circle cx="369.51" cy="299.89" r="2.5" fill="#2563eb"/>
  <circle cx="371.15" cy="299.97" r="2.5" fill="#2563eb"/>
  <circle cx="372.79" cy="250.03" r="2.5" fill="#2563eb"/>
  <circle cx="374.42" cy="299.93" r="2.5" fill="#2563eb"/>
  <circle cx="376.06" cy="299.89" r="2.5" fill="#2563eb"/>
  <circle cx="377.70" cy="299.97" r="2.5" fill="#2563eb"/>
  <circle cx="379.33" cy="249.94" r="2.5" fill="#2563eb"/>
  <circle cx="380.97" cy="300.01" r="2.5" fill="#2563eb"/>
  <circle cx="382.61" cy="300.01" r="2.5" fill="#2563eb"/>
  <circle cx="384.24" cy="299.97" r="2.5" fill="#2563eb"/>
  <circle cx="385.88" cy="249.99" r="2.5" fill="#2563eb"/>
  <circle cx="387.52" cy="299.97" r="2.5" fill="#2563eb"/>
  <circle cx="389.15" cy="299.97" r="2.5" fill="#2563eb"/>
  <circle cx="390.79" cy="300.06" r="2.5" fill="#2563eb"/>
  <circle cx="392.43" cy="300.06" r="2.5" fill="#2563eb"/>
  <circle cx="394.06" cy="299.93" r="2.5" fill="#2563eb"/>
  <circle cx="395.70" cy="300.01" r="2.5" fill="#2563eb"/>
  <circle cx="397.34" cy="300.01" r="2.5" fill="#2563eb"/>
  <circle cx="398.97" cy="299.93" r="2.5" fill="#2563eb"/>
  <circle cx="400.61" cy="300.01" r="2.5" fill="#2563eb"/>
  <circle cx="402.25" cy="300.01" r="2.5" fill="#2563eb"/>
  <circle cx="403.88" cy="299.97" r="2.5" fill="#2563eb"/>
  <circle cx="405.52" cy="300.01" r="2.5" fill="#2563eb"/>
  <circle cx="407.16" cy="300.01" r="2.5" fill="#2563eb"/>
  <circle cx="408.79" cy="300.01" r="2.5" fill="#2563eb"/>
  <circle cx="410.43" cy="300.01" r="2.5" fill="#2563eb"/>
  <circle cx="412.07" cy="249.86" r="2.5" fill="#2563eb"/>
  <circle cx="413.71" cy="300.01" r="2.5" fill="#2563eb"/>
  <circle cx="415.34" cy="300.10" r="2.5" fill="#2563eb"/>
  <circle cx="416.98" cy="299.93" r="2.5" fill="#2563eb"/>
  <circle cx="418.62" cy="300.01" r="2.5" fill="#2563eb"/>
  <circle cx="420.25" cy="299.93" r="2.5" fill="#2563eb"/>
  <circle cx="421.89" cy="300.01" r="2.5" fill="#2563eb"/>
  <circle cx="423.53" cy="300.01" r="2.5" fill="#2563eb"/>
  <circle cx="425.16" cy="300.01" r="2.5" fill="#2563eb"/>
  <circle cx="426.80" cy="300.01" r="2.5" fill="#2563eb"/>
  <circle cx="428.44" cy="300.01" r="2.5" fill="#2563eb"/>
  <circle cx="430.07" cy="299.97" r="2.5" fill="#2563eb"/>
  <circle cx="431.71" cy="300.01" r="2.5" fill="#2563eb"/>
  <circle cx="433.35" cy="300.01" r="2.5" fill="#2563eb"/>
  <circle cx="434.98" cy="300.01" r="2.5" fill="#2563eb"/>
  <circle cx="436.62" cy="300.01" r="2.5" fill="#2563eb"/>
  <circle cx="438.26" cy="250.03" r="2.5" fill="#2563eb"/>
  <circle cx="439.89" cy="300.01" r="2.5" fill="#2563eb"/>
  <circle cx="441.53" cy="300.01" r="2.5" fill="#2563eb"/>
  <circle cx="443.17" cy="299.97" r="2.5" fill="#2563eb"/>
  <circle cx="444.80" cy="300.01" r="2.5" fill="#2563eb"/>
  <circle cx="446.44" cy="300.01" r="2.5" fill="#2563eb"/>
  <circle cx="448.08" cy="299.97" r="2.5" fill="#2563eb"/>
  <circle cx="449.71" cy="299.97" r="2.5" fill="#2563eb"/>
  <circle cx="451.35" cy="300.01" r="2.5" fill="#2563eb"/>
  <circle cx="452.99" cy="299.97" r="2.5" fill="#2563eb"/>
  <circle cx="454.62" cy="300.01" r="2.5" fill="#2563eb"/>
  <circle cx="456.26" cy="299.93" r="2.5" fill="#2563eb"/>
  <circle cx="457.90" cy="300.01" r="2.5" fill="#2563eb"/>
  <circle cx="459.53" cy="250.03" r="2.5" fill="#2563eb"/>
  <circle cx="461.17" cy="300.01" r="2.5" fill="#2563eb"/>
  <circle cx="462.81" cy="300.01" r="2.5" fill="#2563eb"/>
  <circle cx="464.44" cy="300.01" r="2.5" fill="#2563eb"/>
  <circle cx="466.08" cy="300.01" r="2.5" fill="#2563eb"/>
  <circle cx="467.72" cy="300.01" r="2.5" fill="#2563eb"/>
  <circle cx="469.35" cy="299.89" r="2.5" fill="#2563eb"/>
  <circle cx="470.99" cy="300.01" r="2.5" fill="#2563eb"/>
  <circle cx="472.63" cy="300.01" r="2.5" fill="#2563eb"/>
  <circle cx="474.26" cy="250.07" r="2.5" fill="#2563eb"/>
  <circle cx="475.90" cy="300.01" r="2.5" fill="#2563eb"/>
  <circle cx="477.54" cy="299.93" r="2.5" fill="#2563eb"/>
  <circle cx="479.17" cy="300.01" r="2.5" fill="#2563eb"/>
  <circle cx="480.81" cy="299.97" r="2.5" fill="#2563eb"/>
  <circle cx="482.45" cy="299.97" r="2.5" fill="#2563eb"/>
  <circle cx="484.08" cy="299.97" r="2.5" fill="#2563eb"/>
  <circle cx="485.72" cy="250.03" r="2.5" fill="#2563eb"/>
  <circle cx="487.36" cy="300.01" r="2.5" fill="#2563eb"/>
  <circle cx="488.99" cy="300.01" r="2.5" fill="#2563eb"/>
  <circle cx="490.63" cy="300.01" r="2.5" fill="#2563eb"/>
  <circle cx="492.27" cy="300.01" r="2.5" fill="#2563eb"/>
  <circle cx="493.90" cy="299.97" r="2.5" fill="#2563eb"/>
  <circle cx="495.54" cy="300.01" r="2.5" fill="#2563eb"/>
  <circle cx="497.18" cy="299.97" r="2.5" fill="#2563eb"/>
  <circle cx="498.81" cy="300.01" r="2.5" fill="#2563eb"/>
  <circle cx="500.45" cy="299.97" r="2.5" fill="#2563eb"/>
  <circle cx="502.09" cy="249.90" r="2.5" fill="#2563eb"/>
  <circle cx="503.72" cy="300.01" r="2.5" fill="#2563eb"/>
  <circle cx="505.36" cy="300.01" r="2.5" fill="#2563eb"/>
  <circle cx="507.00" cy="299.89" r="2.5" fill="#2563eb"/>
  <circle cx="508.63" cy="299.97" r="2.5" fill="#2563eb"/>
  <circle cx="510.27" cy="299.97" r="2.5" fill="#2563eb"/>
  <circle cx="511.91" cy="249.99" r="2.5" fill="#2563eb"/>
  <circle cx="513.54" cy="299.97" r="2.5" fill="#2563eb"/>
  <circle cx="515.18" cy="299.89" r="2.5" fill="#2563eb"/>
  <circle cx="516.82" cy="300.01" r="2.5" fill="#2563eb"/>
  <circle cx="518.45" cy="299.97" r="2.5" fill="#2563eb"/>
  <circle cx="520.09" cy="299.97" r="2.5" fill="#2563eb"/>
  <circle cx="521.73" cy="300.01" r="2.5" fill="#2563eb"/>
  <circle cx="523.36" cy="299.97" r="2.5" fill="#2563eb"/>
  <circle cx="525.00" cy="249.99" r="2.5" fill="#2563eb"/>
  <circle cx="526.64" cy="299.97" r="2.5" fill="#2563eb"/>
  <circle cx="528.27" cy="299.97" r="2.5" fill="#2563eb"/>
  <circle cx="529.91" cy="300.06" r="2.5" fill="#2563eb"/>
  <circle cx="531.55" cy="300.06" r="2.5" fill="#2563eb"/>
  <circle cx="533.18" cy="249.94" r="2.5" fill="#2563eb"/>
  <circle cx="534.82" cy="300.01" r="2.5" fill="#2563eb"/>
  <circle cx="536.46" cy="299.93" r="2.5" fill="#2563eb"/>
  <circle cx="538.09" cy="300.01" r="2.5" fill="#2563eb"/>
  <circle cx="539.73" cy="300.01" r="2.5" fill="#2563eb"/>
  <circle cx="541.37" cy="249.99" r="2.5" fill="#2563eb"/>
  <circle cx="543.00" cy="300.01" r="2.5" fill="#2563eb"/>
  <circle cx="544.64" cy="300.01" r="2.5" fill="#2563eb"/>
  <circle cx="546.28" cy="300.01" r="2.5" fill="#2563eb"/>
  <circle cx="547.91" cy="299.93" r="2.5" fill="#2563eb"/>
  <circle cx="549.55" cy="299.93" r="2.5" fill="#2563eb"/>
  <circle cx="551.19" cy="300.01" r="2.5" fill="#2563eb"/>
  <circle cx="552.82" cy="300.01" r="2.5" fill="#2563eb"/>
  <circle cx="554.46" cy="249.94" r="2.5" fill="#2563eb"/>
  <circle cx="556.10" cy="299.97" r="2.5" fill="#2563eb"/>
  <circle cx="557.73" cy="299.97" r="2.5" fill="#2563eb"/>
  <circle cx="559.37" cy="300.01" r="2.5" fill="#2563eb"/>
  <circle cx="561.01" cy="300.01" r="2.5" fill="#2563eb"/>
  <circle cx="562.64" cy="300.01" r="2.5" fill="#2563eb"/>
  <circle cx="564.28" cy="249.99" r="2.5" fill="#2563eb"/>
  <circle cx="565.92" cy="300.01" r="2.5" fill="#2563eb"/>
  <circle cx="567.55" cy="300.01" r="2.5" fill="#2563eb"/>
  <circle cx="569.19" cy="300.01" r="2.5" fill="#2563eb"/>
  <circle cx="570.83" cy="250.03" r="2.5" fill="#2563eb"/>
  <circle cx="572.46" cy="300.01" r="2.5" fill="#2563eb"/>
  <circle cx="574.10" cy="300.01" r="2.5" fill="#2563eb"/>
  <circle cx="575.74" cy="300.01" r="2.5" fill="#2563eb"/>
  <circle cx="577.37" cy="299.97" r="2.5" fill="#2563eb"/>
  <circle cx="579.01" cy="300.01" r="2.5" fill="#2563eb"/>
  <circle cx="580.65" cy="300.01" r="2.5" fill="#2563eb"/>
  <circle cx="582.28" cy="299.97" r="2.5" fill="#2563eb"/>
  <circle cx="583.92" cy="299.97" r="2.5" fill="#2563eb"/>
  <circle cx="585.56" cy="300.01" r="2.5" fill="#2563eb"/>
  <circle cx="587.19" cy="300.01" r="2.5" fill="#2563eb"/>
  <circle cx="588.83" cy="299.97" r="2.5" fill="#2563eb"/>
  <circle cx="590.47" cy="299.93" r="2.5" fill="#2563eb"/>
  <circle cx="592.10" cy="300.01" r="2.5" fill="#2563eb"/>
  <circle cx="593.74" cy="300.06" r="2.5" fill="#2563eb"/>
  <circle cx="595.38" cy="299.97" r="2.5" fill="#2563eb"/>
  <circle cx="597.01" cy="300.01" r="2.5" fill="#2563eb"/>
  <circle cx="598.65" cy="250.03" r="2.5" fill="#2563eb"/>
  <circle cx="600.29" cy="250.03" r="2.5" fill="#2563eb"/>
  <circle cx="601.92" cy="299.93" r="2.5" fill="#2563eb"/>
  <circle cx="603.56" cy="299.97" r="2.5" fill="#2563eb"/>
  <circle cx="605.20" cy="300.01" r="2.5" fill="#2563eb"/>
  <circle cx="606.83" cy="300.01" r="2.5" fill="#2563eb"/>
  <circle cx="608.47" cy="300.06" r="2.5" fill="#2563eb"/>
  <circle cx="610.11" cy="300.01" r="2.5" fill="#2563eb"/>
  <circle cx="611.74" cy="299.93" r="2.5" fill="#2563eb"/>
  <circle cx="613.38" cy="300.01" r="2.5" fill="#2563eb"/>
  <circle cx="615.02" cy="300.01" r="2.5" fill="#2563eb"/>
  <circle cx="616.65" cy="299.97" r="2.5" fill="#2563eb"/>
  <circle cx="618.29" cy="299.97" r="2.5" fill="#2563eb"/>
  <circle cx="619.93" cy="300.01" r="2.5" fill="#2563eb"/>
  <circle cx="621.56" cy="250.03" r="2.5" fill="#2563eb"/>
  <circle cx="623.20" cy="300.01" r="2.5" fill="#2563eb"/>
  <circle cx="624.84" cy="300.01" r="2.5" fill="#2563eb"/>
  <circle cx="626.47" cy="300.01" r="2.5" fill="#2563eb"/>
  <circle cx="628.11" cy="299.97" r="2.5" fill="#2563eb"/>
  <circle cx="629.75" cy="300.01" r="2.5" fill="#2563eb"/>
  <circle cx="631.38" cy="299.97" r="2.5" fill="#2563eb"/>
  <circle cx="633.02" cy="300.01" r="2.5" fill="#2563eb"/>
  <circle cx="634.66" cy="299.97" r="2.5" fill="#2563eb"/>
  <circle cx="636.29" cy="299.97" r="2.5" fill="#2563eb"/>
  <circle cx="637.93" cy="299.93" r="2.5" fill="#2563eb"/>
  <circle cx="639.57" cy="300.01" r="2.5" fill="#2563eb"/>
  <circle cx="641.21" cy="300.01" r="2.5" fill="#2563eb"/>
  <circle cx="642.84" cy="299.89" r="2.5" fill="#2563eb"/>
  <circle cx="644.48" cy="299.97" r="2.5" fill="#2563eb"/>
  <circle cx="646.12" cy="299.97" r="2.5" fill="#2563eb"/>
  <circle cx="647.75" cy="300.06" r="2.5" fill="#2563eb"/>
  <circle cx="649.39" cy="249.90" r="2.5" fill="#2563eb"/>
  <circle cx="651.03" cy="299.89" r="2.5" fill="#2563eb"/>
  <circle cx="652.66" cy="300.01" r="2.5" fill="#2563eb"/>
  <circle cx="654.30" cy="299.97" r="2.5" fill="#2563eb"/>
  <circle cx="655.94" cy="299.97" r="2.5" fill="#2563eb"/>
  <circle cx="657.57" cy="299.97" r="2.5" fill="#2563eb"/>
  <circle cx="659.21" cy="300.01" r="2.5" fill="#2563eb"/>
  <circle cx="660.85" cy="300.01" r="2.5" fill="#2563eb"/>
  <circle cx="662.48" cy="299.97" r="2.5" fill="#2563eb"/>
  <circle cx="664.12" cy="299.97" r="2.5" fill="#2563eb"/>
  <circle cx="665.76" cy="299.97" r="2.5" fill="#2563eb"/>
  <circle cx="667.39" cy="250.03" r="2.5" fill="#2563eb"/>
  <circle cx="669.03" cy="299.93" r="2.5" fill="#2563eb"/>
  <circle cx="670.67" cy="300.01" r="2.5" fill="#2563eb"/>
  <circle cx="672.30" cy="300.01" r="2.5" fill="#2563eb"/>
  <circle cx="673.94" cy="299.93" r="2.5" fill="#2563eb"/>
  <circle cx="675.58" cy="300.01" r="2.5" fill="#2563eb"/>
  <circle cx="677.21" cy="300.01" r="2.5" fill="#2563eb"/>
  <circle cx="678.85" cy="299.97" r="2.5" fill="#2563eb"/>
  <circle cx="680.49" cy="300.01" r="2.5" fill="#2563eb"/>
  <circle cx="682.12" cy="300.01" r="2.5" fill="#2563eb"/>
  <circle cx="683.76" cy="300.06" r="2.5" fill="#2563eb"/>
  <circle cx="685.40" cy="300.01" r="2.5" fill="#2563eb"/>
  <circle cx="687.03" cy="299.97" r="2.5" fill="#2563eb"/>
  <circle cx="688.67" cy="299.89" r="2.5" fill="#2563eb"/>
  <circle cx="690.31" cy="300.01" r="2.5" fill="#2563eb"/>
  <circle cx="691.94" cy="300.01" r="2.5" fill="#2563eb"/>
  <circle cx="693.58" cy="249.94" r="2.5" fill="#2563eb"/>
  <circle cx="695.22" cy="249.94" r="2.5" fill="#2563eb"/>
  <circle cx="696.85" cy="300.01" r="2.5" fill="#2563eb"/>
  <circle cx="698.49" cy="300.01" r="2.5" fill="#2563eb"/>
  <circle cx="700.13" cy="300.01" r="2.5" fill="#2563eb"/>
  <circle cx="701.76" cy="300.01" r="2.5" fill="#2563eb"/>
  <circle cx="703.40" cy="299.97" r="2.5" fill="#2563eb"/>
  <circle cx="705.04" cy="250.03" r="2.5" fill="#2563eb"/>
  <circle cx="706.67" cy="300.01" r="2.5" fill="#2563eb"/>
  <circle cx="708.31" cy="300.01" r="2.5" fill="#2563eb"/>
  <circle cx="709.95" cy="300.01" r="2.5" fill="#2563eb"/>
  <circle cx="711.58" cy="300.01" r="2.5" fill="#2563eb"/>
  <circle cx="713.22" cy="250.03" r="2.5" fill="#2563eb"/>
  <circle cx="714.86" cy="249.99" r="2.5" fill="#2563eb"/>
  <circle cx="716.49" cy="300.01" r="2.5" fill="#2563eb"/>
  <circle cx="718.13" cy="299.97" r="2.5" fill="#2563eb"/>
  <circle cx="719.77" cy="300.01" r="2.5" fill="#2563eb"/>
  <circle cx="721.40" cy="299.97" r="2.5" fill="#2563eb"/>
  <circle cx="723.04" cy="300.01" r="2.5" fill="#2563eb"/>
  <circle cx="724.68" cy="299.97" r="2.5" fill="#2563eb"/>
  <circle cx="726.31" cy="299.97" r="2.5" fill="#2563eb"/>
  <circle cx="727.95" cy="299.97" r="2.5" fill="#2563eb"/>
  <circle cx="729.59" cy="300.06" r="2.5" fill="#2563eb"/>
  <circle cx="731.22" cy="249.99" r="2.5" fill="#2563eb"/>
  <circle cx="732.86" cy="300.01" r="2.5" fill="#2563eb"/>
  <circle cx="734.50" cy="250.03" r="2.5" fill="#2563eb"/>
  <circle cx="736.13" cy="249.94" r="2.5" fill="#2563eb"/>
  <circle cx="737.77" cy="249.99" r="2.5" fill="#2563eb"/>
  <circle cx="739.41" cy="300.01" r="2.5" fill="#2563eb"/>
  <circle cx="741.04" cy="300.06" r="2.5" fill="#2563eb"/>
  <circle cx="742.68" cy="300.01" r="2.5" fill="#2563eb"/>
  <circle cx="744.32" cy="299.97" r="2.5" fill="#2563eb"/>
  <circle cx="745.95" cy="299.97" r="2.5" fill="#2563eb"/>
  <circle cx="747.59" cy="300.01" r="2.5" fill="#2563eb"/>
  <circle cx="749.23" cy="299.93" r="2.5" fill="#2563eb"/>
  <circle cx="750.86" cy="299.89" r="2.5" fill="#2563eb"/>
  <circle cx="752.50" cy="299.89" r="2.5" fill="#2563eb"/>
  <circle cx="754.14" cy="299.89" r="2.5" fill="#2563eb"/>
  <circle cx="755.77" cy="299.89" r="2.5" fill="#2563eb"/>
  <circle cx="757.41" cy="299.85" r="2.5" fill="#2563eb"/>
  <circle cx="759.05" cy="299.85" r="2.5" fill="#2563eb"/>
  <circle cx="760.68" cy="299.89" r="2.5" fill="#2563eb"/>
  <circle cx="762.32" cy="299.81" r="2.5" fill="#2563eb"/>
  <circle cx="763.96" cy="299.81" r="2.5" fill="#2563eb"/>
  <circle cx="765.59" cy="299.81" r="2.5" fill="#2563eb"/>
  <circle cx="767.23" cy="299.76" r="2.5" fill="#2563eb"/>
  <circle cx="768.87" cy="299.76" r="2.5" fill="#2563eb"/>
  <circle cx="770.50" cy="299.76" r="2.5" fill="#2563eb"/>
  <circle cx="772.14" cy="299.72" r="2.5" fill="#2563eb"/>
  <circle cx="773.78" cy="299.68" r="2.5" fill="#2563eb"/>
  <circle cx="775.41" cy="299.60" r="2.5" fill="#2563eb"/>
  <circle cx="777.05" cy="299.60" r="2.5" fill="#2563eb"/>
  <circle cx="778.69" cy="299.60" r="2.5" fill="#2563eb"/>
  <circle cx="780.32" cy="299.56" r="2.5" fill="#2563eb"/>
  <circle cx="781.96" cy="299.47" r="2.5" fill="#2563eb"/>
  <circle cx="783.60" cy="299.43" r="2.5" fill="#2563eb"/>
  <circle cx="785.23" cy="299.43" r="2.5" fill="#2563eb"/>
  <circle cx="786.87" cy="299.39" r="2.5" fill="#2563eb"/>
  <circle cx="788.51" cy="299.47" r="2.5" fill="#2563eb"/>
  <circle cx="790.14" cy="259.82" r="2.5" fill="#2563eb"/>
  <circle cx="791.78" cy="338.96" r="2.5" fill="#2563eb"/>
  <circle cx="793.42" cy="299.31" r="2.5" fill="#2563eb"/>
  <circle cx="795.05" cy="299.31" r="2.5" fill="#2563eb"/>
  <circle cx="796.69" cy="299.26" r="2.5" fill="#2563eb"/>
  <circle cx="798.33" cy="299.68" r="2.5" fill="#2563eb"/>
  <circle cx="799.96" cy="299.68" r="2.5" fill="#2563eb"/>
  <circle cx="801.60" cy="299.68" r="2.5" fill="#2563eb"/>
  <circle cx="803.24" cy="299.64" r="2.5" fill="#2563eb"/>
  <circle cx="804.87" cy="299.14" r="2.5" fill="#2563eb"/>
  <circle cx="806.51" cy="299.14" r="2.5" fill="#2563eb"/>
  <circle cx="808.15" cy="299.10" r="2.5" fill="#2563eb"/>
  <circle cx="809.78" cy="299.10" r="2.5" fill="#2563eb"/>
  <circle cx="811.42" cy="299.10" r="2.5" fill="#2563eb"/>
  <circle cx="813.06" cy="248.07" r="2.5" fill="#2563eb"/>
  <circle cx="814.69" cy="299.06" r="2.5" fill="#2563eb"/>
  <circle cx="816.33" cy="299.06" r="2.5" fill="#2563eb"/>
  <circle cx="817.97" cy="299.06" r="2.5" fill="#2563eb"/>
  <circle cx="819.60" cy="299.06" r="2.5" fill="#2563eb"/>
  <circle cx="821.24" cy="299.06" r="2.5" fill="#2563eb"/>
  <circle cx="822.88" cy="298.97" r="2.5" fill="#2563eb"/>
  <circle cx="824.51" cy="298.97" r="2.5" fill="#2563eb"/>
  <circle cx="826.15" cy="298.93" r="2.5" fill="#2563eb"/>
  <circle cx="827.79" cy="298.97" r="2.5" fill="#2563eb"/>
  <circle cx="829.42" cy="298.93" r="2.5" fill="#2563eb"/>
  <circle cx="831.06" cy="298.89" r="2.5" fill="#2563eb"/>
  <circle cx="832.70" cy="298.89" r="2.5" fill="#2563eb"/>
  <circle cx="834.33" cy="298.89" r="2.5" fill="#2563eb"/>
  <circle cx="835.97" cy="298.89" r="2.5" fill="#2563eb"/>
  <circle cx="837.61" cy="247.78" r="2.5" fill="#2563eb"/>
  <circle cx="839.24" cy="298.89" r="2.5" fill="#2563eb"/>
  <circle cx="840.88" cy="298.89" r="2.5" fill="#2563eb"/>
  <circle cx="842.52" cy="298.85" r="2.5" fill="#2563eb"/>
  <circle cx="844.15" cy="298.85" r="2.5" fill="#2563eb"/>
  <circle cx="845.79" cy="298.81" r="2.5" fill="#2563eb"/>
  <circle cx="847.43" cy="298.81" r="2.5" fill="#2563eb"/>
  <circle cx="849.06" cy="298.81" r="2.5" fill="#2563eb"/>
  <circle cx="850.70" cy="298.81" r="2.5" fill="#2563eb"/>
  <circle cx="852.34" cy="298.81" r="2.5" fill="#2563eb"/>
  <circle cx="853.97" cy="298.81" r="2.5" fill="#2563eb"/>
  <circle cx="855.61" cy="298.81" r="2.5" fill="#2563eb"/>
  <circle cx="857.25" cy="298.81" r="2.5" fill="#2563eb"/>
  <circle cx="858.88" cy="298.81" r="2.5" fill="#2563eb"/>
  <circle cx="860.52" cy="298.72" r="2.5" fill="#2563eb"/>
  <circle cx="862.16" cy="247.45" r="2.5" fill="#2563eb"/>
  <circle cx="863.79" cy="247.45" r="2.5" fill="#2563eb"/>
  <circle cx="865.43" cy="298.72" r="2.5" fill="#2563eb"/>
  <circle cx="867.07" cy="298.72" r="2.5" fill="#2563eb"/>
  <circle cx="868.71" cy="298.72" r="2.5" fill="#2563eb"/>
  <circle cx="870.34" cy="298.72" r="2.5" fill="#2563eb"/>
  <circle cx="871.98" cy="298.72" r="2.5" fill="#2563eb"/>
  <circle cx="873.62" cy="298.72" r="2.5" fill="#2563eb"/>
  <circle cx="875.25" cy="247.36" r="2.5" fill="#2563eb"/>
  <circle cx="876.89" cy="298.68" r="2.5" fill="#2563eb"/>
  <circle cx="878.53" cy="247.36" r="2.5" fill="#2563eb"/>
  <circle cx="880.16" cy="247.36" r="2.5" fill="#2563eb"/>
  <circle cx="881.80" cy="247.36" r="2.5" fill="#2563eb"/>
  <circle cx="883.44" cy="298.68" r="2.5" fill="#2563eb"/>
  <circle cx="885.07" cy="298.68" r="2.5" fill="#2563eb"/>
  <circle cx="886.71" cy="298.68" r="2.5" fill="#2563eb"/>
  <circle cx="888.35" cy="298.68" r="2.5" fill="#2563eb"/>
  <circle cx="889.98" cy="298.68" r="2.5" fill="#2563eb"/>
  <circle cx="891.62" cy="341.67" r="2.5" fill="#2563eb"/>
  <circle cx="893.26" cy="307.01" r="2.5" fill="#2563eb"/>
  <circle cx="894.89" cy="298.68" r="2.5" fill="#2563eb"/>
  <circle cx="896.53" cy="298.68" r="2.5" fill="#2563eb"/>
  <circle cx="898.17" cy="298.68" r="2.5" fill="#2563eb"/>
  <circle cx="899.80" cy="247.36" r="2.5" fill="#2563eb"/>
  <circle cx="901.44" cy="298.64" r="2.5" fill="#2563eb"/>
  <circle cx="903.08" cy="247.36" r="2.5" fill="#2563eb"/>
  <circle cx="904.71" cy="247.28" r="2.5" fill="#2563eb"/>
  <circle cx="906.35" cy="247.20" r="2.5" fill="#2563eb"/>
  <circle cx="907.99" cy="298.60" r="2.5" fill="#2563eb"/>
  <circle cx="909.62" cy="298.60" r="2.5" fill="#2563eb"/>
  <circle cx="911.26" cy="247.03" r="2.5" fill="#2563eb"/>
  <circle cx="912.90" cy="298.51" r="2.5" fill="#2563eb"/>
  <circle cx="914.53" cy="298.51" r="2.5" fill="#2563eb"/>
  <circle cx="916.17" cy="298.51" r="2.5" fill="#2563eb"/>
  <circle cx="917.81" cy="298.51" r="2.5" fill="#2563eb"/>
  <circle cx="919.44" cy="298.51" r="2.5" fill="#2563eb"/>
  <circle cx="921.08" cy="298.51" r="2.5" fill="#2563eb"/>
  <circle cx="922.72" cy="298.51" r="2.5" fill="#2563eb"/>
  <circle cx="924.35" cy="298.51" r="2.5" fill="#2563eb"/>
  <circle cx="925.99" cy="298.51" r="2.5" fill="#2563eb"/>
  <circle cx="927.63" cy="298.51" r="2.5" fill="#2563eb"/>
  <circle cx="929.26" cy="298.51" r="2.5" fill="#2563eb"/>
  <circle cx="930.90" cy="298.51" r="2.5" fill="#2563eb"/>
  <circle cx="932.54" cy="298.51" r="2.5" fill="#2563eb"/>
  <circle cx="934.17" cy="298.51" r="2.5" fill="#2563eb"/>
  <circle cx="935.81" cy="298.51" r="2.5" fill="#2563eb"/>
  <circle cx="937.45" cy="298.51" r="2.5" fill="#2563eb"/>
  <circle cx="939.08" cy="298.51" r="2.5" fill="#2563eb"/>
  <circle cx="940.72" cy="298.51" r="2.5" fill="#2563eb"/>
  <circle cx="942.36" cy="298.51" r="2.5" fill="#2563eb"/>
  <circle cx="943.99" cy="298.51" r="2.5" fill="#2563eb"/>
  <circle cx="945.63" cy="298.51" r="2.5" fill="#2563eb"/>
  <circle cx="947.27" cy="298.51" r="2.5" fill="#2563eb"/>
  <circle cx="948.90" cy="298.51" r="2.5" fill="#2563eb"/>
  <circle cx="950.54" cy="298.51" r="2.5" fill="#2563eb"/>
  <circle cx="952.18" cy="298.51" r="2.5" fill="#2563eb"/>
  <circle cx="953.81" cy="298.51" r="2.5" fill="#2563eb"/>
  <circle cx="955.45" cy="298.47" r="2.5" fill="#2563eb"/>
  <circle cx="957.09" cy="298.51" r="2.5" fill="#2563eb"/>
  <circle cx="958.72" cy="298.51" r="2.5" fill="#2563eb"/>
  <circle cx="960.36" cy="298.47" r="2.5" fill="#2563eb"/>
  <circle cx="962.00" cy="298.51" r="2.5" fill="#2563eb"/>
  <circle cx="963.63" cy="298.47" r="2.5" fill="#2563eb"/>
  <circle cx="965.27" cy="298.51" r="2.5" fill="#2563eb"/>
  <circle cx="966.91" cy="298.43" r="2.5" fill="#2563eb"/>
  <circle cx="968.54" cy="298.56" r="2.5" fill="#2563eb"/>
  <circle cx="970.18" cy="298.43" r="2.5" fill="#2563eb"/>
  <circle cx="971.82" cy="298.43" r="2.5" fill="#2563eb"/>
  <circle cx="973.45" cy="298.43" r="2.5" fill="#2563eb"/>
  <circle cx="975.09" cy="298.43" r="2.5" fill="#2563eb"/>
  <circle cx="976.73" cy="298.43" r="2.5" fill="#2563eb"/>
  <circle cx="978.36" cy="298.43" r="2.5" fill="#2563eb"/>
  <circle cx="980.00" cy="298.43" r="2.5" fill="#2563eb"/>
</svg>
