<?xml version="1.0" encoding="UTF-8"?>
<svg xmlns="http://www.w3.org/2000/svg" width="1000" height="420" viewBox="0 0 1000 420">
  <rect width="100%" height="100%" fill="#ffffff"/>
  <text x="70" y="28" font-size="20" font-weight="600">수집 시점 기준 - 시간별 스냅샷</text>
  <text x="70" y="402" font-size="12" fill="#555">스냅샷 수</text>
  <line x1="70" y1="350.00" x2="980" y2="350.00" stroke="#e5e7eb" stroke-width="1"/>
  <text x="62" y="354.00" font-size="11" fill="#6b7280" text-anchor="end">0</text>
  <line x1="70" y1="290.00" x2="980" y2="290.00" stroke="#e5e7eb" stroke-width="1"/>
  <text x="62" y="294.00" font-size="11" fill="#6b7280" text-anchor="end">1,440</text>
  <line x1="70" y1="230.00" x2="980" y2="230.00" stroke="#e5e7eb" stroke-width="1"/>
  <text x="62" y="234.00" font-size="11" fill="#6b7280" text-anchor="end">2,880</text>
  <line x1="70" y1="170.00" x2="980" y2="170.00" stroke="#e5e7eb" stroke-width="1"/>
  <text x="62" y="174.00" font-size="11" fill="#6b7280" text-anchor="end">4,321</text>
  <line x1="70" y1="110.00" x2="980" y2="110.00" stroke="#e5e7eb" stroke-width="1"/>
  <text x="62" y="114.00" font-size="11" fill="#6b7280" text-anchor="end">5,761</text>
  <line x1="70" y1="50.00" x2="980" y2="50.00" stroke="#e5e7eb" stroke-width="1"/>
  <text x="62" y="54.00" font-size="11" fill="#6b7280" text-anchor="end">7,202</text>
  <line x1="70" y1="350" x2="980" y2="350" stroke="#111827" stroke-width="1.2"/>
  <line x1="70" y1="50" x2="70" y2="350" stroke="#111827" stroke-width="1.2"/>
  <line x1="70.00" y1="350" x2="70.00" y2="356" stroke="#9ca3af" stroke-width="1"/>
  <text x="70.00" y="372" font-size="10" fill="#6b7280" text-anchor="middle">2026-02-28 18</text>
  <line x1="145.03" y1="350" x2="145.03" y2="356" stroke="#9ca3af" stroke-width="1"/>
  <text x="145.03" y="372" font-size="10" fill="#6b7280" text-anchor="middle">2026-03-08 18</text>
  <line x1="220.06" y1="350" x2="220.06" y2="356" stroke="#9ca3af" stroke-width="1"/>
  <text x="220.06" y="372" font-size="10" fill="#6b7280" text-anchor="middle">2026-03-10 13</text>
  <line x1="295.10" y1="350" x2="295.10" y2="356" stroke="#9ca3af" stroke-width="1"/>
  <text x="295.10" y="372" font-size="10" fill="#6b7280" text-anchor="middle">2026-03-12 06</text>
  <line x1="370.13" y1="350" x2="370.13" y2="356" stroke="#9ca3af" stroke-width="1"/>
  <text x="370.13" y="372" font-size="10" fill="#6b7280" text-anchor="middle">2026-03-14 01</text>
  <line x1="445.16" y1="350" x2="445.16" y2="356" stroke="#9ca3af" stroke-width="1"/>
  <text x="445.16" y="372" font-size="10" fill="#6b7280" text-anchor="middle">2026-03-16 06</text>
  <line x1="520.19" y1="350" x2="520.19" y2="356" stroke="#9ca3af" stroke-width="1"/>
  <text x="520.19" y="372" font-size="10" fill="#6b7280" text-anchor="middle">2026-03-19 00</text>
  <line x1="595.22" y1="350" x2="595.22" y2="356" stroke="#9ca3af" stroke-width="1"/>
  <text x="595.22" y="372" font-size="10" fill="#6b7280" text-anchor="middle">2026-03-21 07</text>
  <line x1="670.25" y1="350" x2="670.25" y2="356" stroke="#9ca3af" stroke-width="1"/>
  <text x="670.25" y="372" font-size="10" fill="#6b7280" text-anchor="middle">2026-03-23 14</text>
  <line x1="745.29" y1="350" x2="745.29" y2="356" stroke="#9ca3af" stroke-width="1"/>
  <text x="745.29" y="372" font-size="10" fill="#6b7280" text-anchor="middle">2026-03-26 05</text>
  <line x1="820.32" y1="350" x2="820.32" y2="356" stroke="#9ca3af" stroke-width="1"/>
  <text x="820.32" y="372" font-size="10" fill="#6b7280" text-anchor="middle">2026-03-28 22</text>
  <line x1="895.35" y1="350" x2="895.35" y2="356" stroke="#9ca3af" stroke-width="1"/>
  <text x="895.35" y="372" font-size="10" fill="#6b7280" text-anchor="middle">2026-03-31 15</text>
  <line x1="970.38" y1="350" x2="970.38" y2="356" stroke="#9ca3af" stroke-width="1"/>
  <text x="970.38" y="372" font-size="10" fill="#6b7280" text-anchor="middle">2026-04-03 07</text>
  <line x1="980.00" y1="350" x2="980.00" y2="356" stroke="#9ca3af" stroke-width="1"/>
  <text x="980.00" y="372" font-size="10" fill="#6b7280" text-anchor="middle">2026-04-03 18</text>
  <polyline fill="none" stroke="#2563eb" stroke-width="2.5" points="70.00,50.00 71.92,50.12 73.85,50.17 75.77,50.46 77.70,50.00 79.62,266.90 81.54,50.12 83.47,50.08 85.39,177.46 87.32,211.58 89.24,175.34 91.16,304.14 93.09,200.46 95.01,250.94 96.93,300.01 98.86,300.06 100.78,300.01 102.71,300.01 104.63,348.00 106.55,300.01 108.48,249.99 110.40,200.00 112.33,249.99 114.25,249.99 116.17,250.03 118.10,250.03 120.02,250.03 121.95,250.40 123.87,250.90 125.79,250.90 127.72,251.32 129.64,249.94 131.56,300.01 133.49,299.93 135.41,251.03 137.34,300.68 139.26,250.03 141.18,200.00 143.11,249.99 145.03,250.03 146.96,250.03 148.88,250.03 150.80,300.01 152.73,200.04 154.65,250.03 156.58,250.03 158.50,250.03 160.42,249.90 162.35,250.03 164.27,250.03 166.19,250.94 168.12,250.44 170.04,250.03 171.97,250.03 173.89,300.47 175.81,300.01 177.74,300.43 179.66,250.03 181.59,249.99 183.51,300.43 185.43,249.90 187.36,249.99 189.28,249.99 191.21,200.04 193.13,300.01 195.05,300.01 196.98,300.01 198.90,249.90 200.82,300.01 202.75,250.03 204.67,249.99 206.60,199.96 208.52,300.01 210.44,200.00 212.37,250.36 214.29,250.03 216.22,300.01 218.14,300.01 220.06,250.44 221.99,300.01 223.91,250.03 225.84,250.03 227.76,249.99 229.68,250.49 231.61,250.03 233.53,200.04 235.45,300.01 237.38,250.03 239.30,300.01 241.23,250.11 243.15,300.01 245.07,250.03 247.00,250.03 248.92,199.92 250.85,250.03 252.77,250.03 254.69,250.03 256.62,254.36 258.54,300.01 260.47,299.97 262.39,250.36 264.31,299.97 266.24,250.03 268.16,250.03 270.08,250.03 272.01,250.03 273.93,249.99 275.86,200.00 277.78,299.93 279.70,300.01 281.63,299.97 283.55,249.94 285.48,249.99 287.40,249.82 289.32,249.94 291.25,250.28 293.17,207.00 295.10,250.03 297.02,250.32 298.94,250.40 300.87,300.93 302.79,300.01 304.71,300.10 306.64,249.94 308.56,249.99 310.49,250.07 312.41,249.99 314.33,250.03 316.26,249.94 318.18,200.00 320.11,300.39 322.03,300.01 323.95,300.01 325.88,250.44 327.80,300.39 329.73,249.86 331.65,250.11 333.57,201.46 335.50,300.01 337.42,200.83 339.34,250.03 341.27,249.99 343.19,300.26 345.12,300.01 347.04,300.01 348.96,250.03 350.89,250.03 352.81,250.03 354.74,250.03 356.66,249.99 358.58,250.03 360.51,200.00 362.43,300.26 364.36,249.99 366.28,300.01 368.20,249.94 370.13,250.03 372.05,250.03 373.97,250.03 375.90,200.04 377.82,300.01 379.75,249.90 381.67,300.01 383.59,300.01 385.52,300.06 387.44,300.01 389.37,300.01 391.29,243.95 393.21,249.94 395.14,299.97 397.06,300.01 398.99,300.01 400.91,250.03 402.83,300.01 404.76,300.01 406.68,299.97 408.60,249.99 410.53,300.01 412.45,299.93 414.38,300.01 416.30,299.93 418.22,300.01 420.15,300.01 422.07,299.89 424.00,299.97 425.92,250.03 427.84,299.93 429.77,299.89 431.69,299.97 433.62,249.94 435.54,300.01 437.46,300.01 439.39,299.97 441.31,249.99 443.23,299.97 445.16,299.97 447.08,300.06 449.01,300.06 450.93,299.93 452.85,300.01 454.78,300.01 456.70,299.93 458.63,300.01 460.55,300.01 462.47,299.97 464.40,300.01 466.32,300.01 468.25,300.01 470.17,300.01 472.09,249.86 474.02,300.01 475.94,300.10 477.86,299.93 479.79,300.01 481.71,299.93 483.64,300.01 485.56,300.01 487.48,300.01 489.41,300.01 491.33,300.01 493.26,299.97 495.18,300.01 497.10,300.01 499.03,300.01 500.95,300.01 502.88,250.03 504.80,300.01 506.72,300.01 508.65,299.97 510.57,300.01 512.49,300.01 514.42,299.97 516.34,299.97 518.27,300.01 520.19,299.97 522.11,300.01 524.04,299.93 525.96,300.01 527.89,250.03 529.81,300.01 531.73,300.01 533.66,300.01 535.58,300.01 537.51,300.01 539.43,299.89 541.35,300.01 543.28,300.01 545.20,250.07 547.12,300.01 549.05,299.93 550.97,300.01 552.90,299.97 554.82,299.97 556.74,299.97 558.67,250.03 560.59,300.01 562.52,300.01 564.44,300.01 566.36,300.01 568.29,299.97 570.21,300.01 572.14,299.97 574.06,300.01 575.98,299.97 577.91,249.90 579.83,300.01 581.75,300.01 583.68,299.89 585.60,299.97 587.53,299.97 589.45,249.99 591.37,299.97 593.30,299.89 595.22,300.01 597.15,299.97 599.07,299.97 600.99,300.01 602.92,299.97 604.84,249.99 606.77,299.97 608.69,299.97 610.61,300.06 612.54,300.06 614.46,249.94 616.38,300.01 618.31,299.93 620.23,300.01 622.16,300.01 624.08,249.99 626.00,300.01 627.93,300.01 629.85,300.01 631.78,299.93 633.70,299.93 635.62,300.01 637.55,300.01 639.47,249.94 641.40,299.97 643.32,299.97 645.24,300.01 647.17,300.01 649.09,300.01 651.01,249.99 652.94,300.01 654.86,300.01 656.79,300.01 658.71,250.03 660.63,300.01 662.56,300.01 664.48,300.01 666.41,299.97 668.33,300.01 670.25,300.01 672.18,299.97 674.10,299.97 676.03,300.01 677.95,300.01 679.87,299.97 681.80,299.93 683.72,300.01 685.64,300.06 687.57,299.97 689.49,300.01 691.42,250.03 693.34,250.03 695.26,299.93 697.19,299.97 699.11,300.01 701.04,300.01 702.96,300.06 704.88,300.01 706.81,299.93 708.73,300.01 710.66,300.01 712.58,299.97 714.50,299.97 716.43,300.01 718.35,250.03 720.27,300.01 722.20,300.01 724.12,300.01 726.05,299.97 727.97,300.01 729.89,299.97 731.82,300.01 733.74,299.97 735.67,299.97 737.59,299.93 739.51,300.01 741.44,300.01 743.36,299.89 745.29,299.97 747.21,299.97 749.13,300.06 751.06,249.90 752.98,299.89 754.90,300.01 756.83,299.97 758.75,299.97 760.68,299.97 762.60,300.01 764.52,300.01 766.45,299.97 768.37,299.97 770.30,299.97 772.22,250.03 774.14,299.93 776.07,300.01 777.99,300.01 779.92,299.93 781.84,300.01 783.76,300.01 785.69,299.97 787.61,300.01 789.53,300.01 791.46,300.06 793.38,300.01 795.31,299.97 797.23,299.89 799.15,300.01 801.08,300.01 803.00,249.94 804.93,249.94 806.85,300.01 808.77,300.01 810.70,300.01 812.62,300.01 814.55,299.97 816.47,250.03 818.39,300.01 820.32,300.01 822.24,300.01 824.16,300.01 826.09,250.03 828.01,249.99 829.94,300.01 831.86,299.97 833.78,300.01 835.71,299.97 837.63,300.01 839.56,299.97 841.48,299.97 843.40,299.97 845.33,300.06 847.25,249.99 849.18,300.01 851.10,250.03 853.02,249.94 854.95,249.99 856.87,300.01 858.79,300.06 860.72,300.01 862.64,299.97 864.57,299.97 866.49,300.01 868.41,299.93 870.34,299.89 872.26,299.89 874.19,299.89 876.11,299.89 878.03,299.85 879.96,299.85 881.88,299.89 883.81,299.81 885.73,299.81 887.65,299.81 889.58,299.76 891.50,299.76 893.42,299.76 895.35,299.72 897.27,299.68 899.20,299.60 901.12,299.60 903.04,299.60 904.97,299.56 906.89,299.47 908.82,299.43 910.74,299.43 912.66,299.39 914.59,299.47 916.51,259.82 918.44,338.96 920.36,299.31 922.28,299.31 924.21,299.26 926.13,299.68 928.05,299.68 929.98,299.68 931.90,299.64 933.83,299.14 935.75,299.14 937.67,299.10 939.60,299.10 941.52,299.10 943.45,248.07 945.37,299.06 947.29,299.06 949.22,299.06 951.14,299.06 953.07,299.06 954.99,298.97 956.91,298.97 958.84,298.93 960.76,298.97 962.68,298.93 964.61,298.89 966.53,298.89 968.46,298.89 970.38,298.89 972.30,247.78 974.23,298.89 976.15,298.89 978.08,298.85 980.00,298.85"/>
  <circle cx="70.00" cy="50.00" r="2.5" fill="#2563eb"/>
  <circle cx="71.92" cy="50.12" r="2.5" fill="#2563eb"/>
  <circle cx="73.85" cy="50.17" r="2.5" fill="#2563eb"/>
  <circle cx="75.77" cy="50.46" r="2.5" fill="#2563eb"/>
  <circle cx="77.70" cy="50.00" r="2.5" fill="#2563eb"/>
  <circle cx="79.62" cy="266.90" r="2.5" fill="#2563eb"/>
  <circle cx="81.54" cy="50.12" r="2.5" fill="#2563eb"/>
  <circle cx="83.47" cy="50.08" r="2.5" fill="#2563eb"/>
  <circle cx="85.39" cy="177.46" r="2.5" fill="#2563eb"/>
  <circle cx="87.32" cy="211.58" r="2.5" fill="#2563eb"/>
  <circle cx="89.24" cy="175.34" r="2.5" fill="#2563eb"/>
  <circle cx="91.16" cy="304.14" r="2.5" fill="#2563eb"/>
  <circle cx="93.09" cy="200.46" r="2.5" fill="#2563eb"/>
  <circle cx="95.01" cy="250.94" r="2.5" fill="#2563eb"/>
  <circle cx="96.93" cy="300.01" r="2.5" fill="#2563eb"/>
  <circle cx="98.86" cy="300.06" r="2.5" fill="#2563eb"/>
  <circle cx="100.78" cy="300.01" r="2.5" fill="#2563eb"/>
  <circle cx="102.71" cy="300.01" r="2.5" fill="#2563eb"/>
  <circle cx="104.63" cy="348.00" r="2.5" fill="#2563eb"/>
  <circle cx="106.55" cy="300.01" r="2.5" fill="#2563eb"/>
  <circle cx="108.48" cy="249.99" r="2.5" fill="#2563eb"/>
  <circle cx="110.40" cy="200.00" r="2.5" fill="#2563eb"/>
  <circle cx="112.33" cy="249.99" r="2.5" fill="#2563eb"/>
  <circle cx="114.25" cy="249.99" r="2.5" fill="#2563eb"/>
  <circle cx="116.17" cy="250.03" r="2.5" fill="#2563eb"/>
  <circle cx="118.10" cy="250.03" r="2.5" fill="#2563eb"/>
  <circle cx="120.02" cy="250.03" r="2.5" fill="#2563eb"/>
  <circle cx="121.95" cy="250.40" r="2.5" fill="#2563eb"/>
  <circle cx="123.87" cy="250.90" r="2.5" fill="#2563eb"/>
  <circle cx="125.79" cy="250.90" r="2.5" fill="#2563eb"/>
  <circle cx="127.72" cy="251.32" r="2.5" fill="#2563eb"/>
  <circle cx="129.64" cy="249.94" r="2.5" fill="#2563eb"/>
  <circle cx="131.56" cy="300.01" r="2.5" fill="#2563eb"/>
  <circle cx="133.49" cy="299.93" r="2.5" fill="#2563eb"/>
  <circle cx="135.41" cy="251.03" r="2.5" fill="#2563eb"/>
  <circle cx="137.34" cy="300.68" r="2.5" fill="#2563eb"/>
  <circle cx="139.26" cy="250.03" r="2.5" fill="#2563eb"/>
  <circle cx="141.18" cy="200.00" r="2.5" fill="#2563eb"/>
  <circle cx="143.11" cy="249.99" r="2.5" fill="#2563eb"/>
  <circle cx="145.03" cy="250.03" r="2.5" fill="#2563eb"/>
  <circle cx="146.96" cy="250.03" r="2.5" fill="#2563eb"/>
  <circle cx="148.88" cy="250.03" r="2.5" fill="#2563eb"/>
  <circle cx="150.80" cy="300.01" r="2.5" fill="#2563eb"/>
  <circle cx="152.73" cy="200.04" r="2.5" fill="#2563eb"/>
  <circle cx="154.65" cy="250.03" r="2.5" fill="#2563eb"/>
  <circle cx="156.58" cy="250.03" r="2.5" fill="#2563eb"/>
  <circle cx="158.50" cy="250.03" r="2.5" fill="#2563eb"/>
  <circle cx="160.42" cy="249.90" r="2.5" fill="#2563eb"/>
  <circle cx="162.35" cy="250.03" r="2.5" fill="#2563eb"/>
  <circle cx="164.27" cy="250.03" r="2.5" fill="#2563eb"/>
  <circle cx="166.19" cy="250.94" r="2.5" fill="#2563eb"/>
  <circle cx="168.12" cy="250.44" r="2.5" fill="#2563eb"/>
  <circle cx="170.04" cy="250.03" r="2.5" fill="#2563eb"/>
  <circle cx="171.97" cy="250.03" r="2.5" fill="#2563eb"/>
  <circle cx="173.89" cy="300.47" r="2.5" fill="#2563eb"/>
  <circle cx="175.81" cy="300.01" r="2.5" fill="#2563eb"/>
  <circle cx="177.74" cy="300.43" r="2.5" fill="#2563eb"/>
  <circle cx="179.66" cy="250.03" r="2.5" fill="#2563eb"/>
  <circle cx="181.59" cy="249.99" r="2.5" fill="#2563eb"/>
  <circle cx="183.51" cy="300.43" r="2.5" fill="#2563eb"/>
  <circle cx="185.43" cy="249.90" r="2.5" fill="#2563eb"/>
  <circle cx="187.36" cy="249.99" r="2.5" fill="#2563eb"/>
  <circle cx="189.28" cy="249.99" r="2.5" fill="#2563eb"/>
  <circle cx="191.21" cy="200.04" r="2.5" fill="#2563eb"/>
  <circle cx="193.13" cy="300.01" r="2.5" fill="#2563eb"/>
  <circle cx="195.05" cy="300.01" r="2.5" fill="#2563eb"/>
  <circle cx="196.98" cy="300.01" r="2.5" fill="#2563eb"/>
  <circle cx="198.90" cy="249.90" r="2.5" fill="#2563eb"/>
  <circle cx="200.82" cy="300.01" r="2.5" fill="#2563eb"/>
  <circle cx="202.75" cy="250.03" r="2.5" fill="#2563eb"/>
  <circle cx="204.67" cy="249.99" r="2.5" fill="#2563eb"/>
  <circle cx="206.60" cy="199.96" r="2.5" fill="#2563eb"/>
  <circle cx="208.52" cy="300.01" r="2.5" fill="#2563eb"/>
  <circle cx="210.44" cy="200.00" r="2.5" fill="#2563eb"/>
  <circle cx="212.37" cy="250.36" r="2.5" fill="#2563eb"/>
  <circle cx="214.29" cy="250.03" r="2.5" fill="#2563eb"/>
  <circle cx="216.22" cy="300.01" r="2.5" fill="#2563eb"/>
  <circle cx="218.14" cy="300.01" r="2.5" fill="#2563eb"/>
  <circle cx="220.06" cy="250.44" r="2.5" fill="#2563eb"/>
  <circle cx="221.99" cy="300.01" r="2.5" fill="#2563eb"/>
  <circle cx="223.91" cy="250.03" r="2.5" fill="#2563eb"/>
  <circle cx="225.84" cy="250.03" r="2.5" fill="#2563eb"/>
  <circle cx="227.76" cy="249.99" r="2.5" fill="#2563eb"/>
  <circle cx="229.68" cy="250.49" r="2.5" fill="#2563eb"/>
  <circle cx="231.61" cy="250.03" r="2.5" fill="#2563eb"/>
  <circle cx="233.53" cy="200.04" r="2.5" fill="#2563eb"/>
  <circle cx="235.45" cy="300.01" r="2.5" fill="#2563eb"/>
  <circle cx="237.38" cy="250.03" r="2.5" fill="#2563eb"/>
  <circle cx="239.30" cy="300.01" r="2.5" fill="#2563eb"/>
  <circle cx="241.23" cy="250.11" r="2.5" fill="#2563eb"/>
  <circle cx="243.15" cy="300.01" r="2.5" fill="#2563eb"/>
  <circle cx="245.07" cy="250.03" r="2.5" fill="#2563eb"/>
  <circle cx="247.00" cy="250.03" r="2.5" fill="#2563eb"/>
  <circle cx="248.92" cy="199.92" r="2.5" fill="#2563eb"/>
  <circle cx="250.85" cy="250.03" r="2.5" fill="#2563eb"/>
  <circle cx="252.77" cy="250.03" r="2.5" fill="#2563eb"/>
  <circle cx="254.69" cy="250.03" r="2.5" fill="#2563eb"/>
  <circle cx="256.62" cy="254.36" r="2.5" fill="#2563eb"/>
  <circle cx="258.54" cy="300.01" r="2.5" fill="#2563eb"/>
  <circle cx="260.47" cy="299.97" r="2.5" fill="#2563eb"/>
  <circle cx="262.39" cy="250.36" r="2.5" fill="#2563eb"/>
  <circle cx="264.31" cy="299.97" r="2.5" fill="#2563eb"/>
  <circle cx="266.24" cy="250.03" r="2.5" fill="#2563eb"/>
  <circle cx="268.16" cy="250.03" r="2.5" fill="#2563eb"/>
  <circle cx="270.08" cy="250.03" r="2.5" fill="#2563eb"/>
  <circle cx="272.01" cy="250.03" r="2.5" fill="#2563eb"/>
  <circle cx="273.93" cy="249.99" r="2.5" fill="#2563eb"/>
  <circle cx="275.86" cy="200.00" r="2.5" fill="#2563eb"/>
  <circle cx="277.78" cy="299.93" r="2.5" fill="#2563eb"/>
  <circle cx="279.70" cy="300.01" r="2.5" fill="#2563eb"/>
  <circle cx="281.63" cy="299.97" r="2.5" fill="#2563eb"/>
  <circle cx="283.55" cy="249.94" r="2.5" fill="#2563eb"/>
  <circle cx="285.48" cy="249.99" r="2.5" fill="#2563eb"/>
  <circle cx="287.40" cy="249.82" r="2.5" fill="#2563eb"/>
  <circle cx="289.32" cy="249.94" r="2.5" fill="#2563eb"/>
  <circle cx="291.25" cy="250.28" r="2.5" fill="#2563eb"/>
  <circle cx="293.17" cy="207.00" r="2.5" fill="#2563eb"/>
  <circle cx="295.10" cy="250.03" r="2.5" fill="#2563eb"/>
  <circle cx="297.02" cy="250.32" r="2.5" fill="#2563eb"/>
  <circle cx="298.94" cy="250.40" r="2.5" fill="#2563eb"/>
  <circle cx="300.87" cy="300.93" r="2.5" fill="#2563eb"/>
  <circle cx="302.79" cy="300.01" r="2.5" fill="#2563eb"/>
  <circle cx="304.71" cy="300.10" r="2.5" fill="#2563eb"/>
  <circle cx="306.64" cy="249.94" r="2.5" fill="#2563eb"/>
  <circle cx="308.56" cy="249.99" r="2.5" fill="#2563eb"/>
  <circle cx="310.49" cy="250.07" r="2.5" fill="#2563eb"/>
  <circle cx="312.41" cy="249.99" r="2.5" fill="#2563eb"/>
  <circle cx="314.33" cy="250.03" r="2.5" fill="#2563eb"/>
  <circle cx="316.26" cy="249.94" r="2.5" fill="#2563eb"/>
  <circle cx="318.18" cy="200.00" r="2.5" fill="#2563eb"/>
  <circle cx="320.11" cy="300.39" r="2.5" fill="#2563eb"/>
  <circle cx="322.03" cy="300.01" r="2.5" fill="#2563eb"/>
  <circle cx="323.95" cy="300.01" r="2.5" fill="#2563eb"/>
  <circle cx="325.88" cy="250.44" r="2.5" fill="#2563eb"/>
  <circle cx="327.80" cy="300.39" r="2.5" fill="#2563eb"/>
  <circle cx="329.73" cy="249.86" r="2.5" fill="#2563eb"/>
  <circle cx="331.65" cy="250.11" r="2.5" fill="#2563eb"/>
  <circle cx="333.57" cy="201.46" r="2.5" fill="#2563eb"/>
  <circle cx="335.50" cy="300.01" r="2.5" fill="#2563eb"/>
  <circle cx="337.42" cy="200.83" r="2.5" fill="#2563eb"/>
  <circle cx="339.34" cy="250.03" r="2.5" fill="#2563eb"/>
  <circle cx="341.27" cy="249.99" r="2.5" fill="#2563eb"/>
  <circle cx="343.19" cy="300.26" r="2.5" fill="#2563eb"/>
  <circle cx="345.12" cy="300.01" r="2.5" fill="#2563eb"/>
  <circle cx="347.04" cy="300.01" r="2.5" fill="#2563eb"/>
  <circle cx="348.96" cy="250.03" r="2.5" fill="#2563eb"/>
  <circle cx="350.89" cy="250.03" r="2.5" fill="#2563eb"/>
  <circle cx="352.81" cy="250.03" r="2.5" fill="#2563eb"/>
  <circle cx="354.74" cy="250.03" r="2.5" fill="#2563eb"/>
  <circle cx="356.66" cy="249.99" r="2.5" fill="#2563eb"/>
  <circle cx="358.58" cy="250.03" r="2.5" fill="#2563eb"/>
  <circle cx="360.51" cy="200.00" r="2.5" fill="#2563eb"/>
  <circle cx="362.43" cy="300.26" r="2.5" fill="#2563eb"/>
  <circle cx="364.36" cy="249.99" r="2.5" fill="#2563eb"/>
  <circle cx="366.28" cy="300.01" r="2.5" fill="#2563eb"/>
  <circle cx="368.20" cy="249.94" r="2.5" fill="#2563eb"/>
  <circle cx="370.13" cy="250.03" r="2.5" fill="#2563eb"/>
  <circle cx="372.05" cy="250.03" r="2.5" fill="#2563eb"/>
  <circle cx="373.97" cy="250.03" r="2.5" fill="#2563eb"/>
  <circle cx="375.90" cy="200.04" r="2.5" fill="#2563eb"/>
  <circle cx="377.82" cy="300.01" r="2.5" fill="#2563eb"/>
  <circle cx="379.75" cy="249.90" r="2.5" fill="#2563eb"/>
  <circle cx="381.67" cy="300.01" r="2.5" fill="#2563eb"/>
  <circle cx="383.59" cy="300.01" r="2.5" fill="#2563eb"/>
  <circle cx="385.52" cy="300.06" r="2.5" fill="#2563eb"/>
  <circle cx="387.44" cy="300.01" r="2.5" fill="#2563eb"/>
  <circle cx="389.37" cy="300.01" r="2.5" fill="#2563eb"/>
  <circle cx="391.29" cy="243.95" r="2.5" fill="#2563eb"/>
  <circle cx="393.21" cy="249.94" r="2.5" fill="#2563eb"/>
  <circle cx="395.14" cy="299.97" r="2.5" fill="#2563eb"/>
  <circle cx="397.06" cy="300.01" r="2.5" fill="#2563eb"/>
  <circle cx="398.99" cy="300.01" r="2.5" fill="#2563eb"/>
  <circle cx="400.91" cy="250.03" r="2.5" fill="#2563eb"/>
  <circle cx="402.83" cy="300.01" r="2.5" fill="#2563eb"/>
  <circle cx="404.76" cy="300.01" r="2.5" fill="#2563eb"/>
  <circle cx="406.68" cy="299.97" r="2.5" fill="#2563eb"/>
  <circle cx="408.60" cy="249.99" r="2.5" fill="#2563eb"/>
  <circle cx="410.53" cy="300.01" r="2.5" fill="#2563eb"/>
  <circle cx="412.45" cy="299.93" r="2.5" fill="#2563eb"/>
  <circle cx="414.38" cy="300.01" r="2.5" fill="#2563eb"/>
  <circle cx="416.30" cy="299.93" r="2.5" fill="#2563eb"/>
  <circle cx="418.22" cy="300.01" r="2.5" fill="#2563eb"/>
  <circle cx="420.15" cy="300.01" r="2.5" fill="#2563eb"/>
  <circle cx="422.07" cy="299.89" r="2.5" fill="#2563eb"/>
  <circle cx="424.00" cy="299.97" r="2.5" fill="#2563eb"/>
  <circle cx="425.92" cy="250.03" r="2.5" fill="#2563eb"/>
  <circle cx="427.84" cy="299.93" r="2.5" fill="#2563eb"/>
  <circle cx="429.77" cy="299.89" r="2.5" fill="#2563eb"/>
  <circle cx="431.69" cy="299.97" r="2.5" fill="#2563eb"/>
  <circle cx="433.62" cy="249.94" r="2.5" fill="#2563eb"/>
  <circle cx="435.54" cy="300.01" r="2.5" fill="#2563eb"/>
  <circle cx="437.46" cy="300.01" r="2.5" fill="#2563eb"/>
  <circle cx="439.39" cy="299.97" r="2.5" fill="#2563eb"/>
  <circle cx="441.31" cy="249.99" r="2.5" fill="#2563eb"/>
  <circle cx="443.23" cy="299.97" r="2.5" fill="#2563eb"/>
  <circle cx="445.16" cy="299.97" r="2.5" fill="#2563eb"/>
  <circle cx="447.08" cy="300.06" r="2.5" fill="#2563eb"/>
  <circle cx="449.01" cy="300.06" r="2.5" fill="#2563eb"/>
  <circle cx="450.93" cy="299.93" r="2.5" fill="#2563eb"/>
  <circle cx="452.85" cy="300.01" r="2.5" fill="#2563eb"/>
  <circle cx="454.78" cy="300.01" r="2.5" fill="#2563eb"/>
  <circle cx="456.70" cy="299.93" r="2.5" fill="#2563eb"/>
  <circle cx="458.63" cy="300.01" r="2.5" fill="#2563eb"/>
  <circle cx="460.55" cy="300.01" r="2.5" fill="#2563eb"/>
  <circle cx="462.47" cy="299.97" r="2.5" fill="#2563eb"/>
  <circle cx="464.40" cy="300.01" r="2.5" fill="#2563eb"/>
  <circle cx="466.32" cy="300.01" r="2.5" fill="#2563eb"/>
  <circle cx="468.25" cy="300.01" r="2.5" fill="#2563eb"/>
  <circle cx="470.17" cy="300.01" r="2.5" fill="#2563eb"/>
  <circle cx="472.09" cy="249.86" r="2.5" fill="#2563eb"/>
  <circle cx="474.02" cy="300.01" r="2.5" fill="#2563eb"/>
  <circle cx="475.94" cy="300.10" r="2.5" fill="#2563eb"/>
  <circle cx="477.86" cy="299.93" r="2.5" fill="#2563eb"/>
  <circle cx="479.79" cy="300.01" r="2.5" fill="#2563eb"/>
  <circle cx="481.71" cy="299.93" r="2.5" fill="#2563eb"/>
  <circle cx="483.64" cy="300.01" r="2.5" fill="#2563eb"/>
  <circle cx="485.56" cy="300.01" r="2.5" fill="#2563eb"/>
  <circle cx="487.48" cy="300.01" r="2.5" fill="#2563eb"/>
  <circle cx="489.41" cy="300.01" r="2.5" fill="#2563eb"/>
  <circle cx="491.33" cy="300.01" r="2.5" fill="#2563eb"/>
  <circle cx="493.26" cy="299.97" r="2.5" fill="#2563eb"/>
  <circle cx="495.18" cy="300.01" r="2.5" fill="#2563eb"/>
  <circle cx="497.10" cy="300.01" r="2.5" fill="#2563eb"/>
  <circle cx="499.03" cy="300.01" r="2.5" fill="#2563eb"/>
  <circle cx="500.95" cy="300.01" r="2.5" fill="#2563eb"/>
  <circle cx="502.88" cy="250.03" r="2.5" fill="#2563eb"/>
  <circle cx="504.80" cy="300.01" r="2.5" fill="#2563eb"/>
  <circle cx="506.72" cy="300.01" r="2.5" fill="#2563eb"/>
  <circle cx="508.65" cy="299.97" r="2.5" fill="#2563eb"/>
  <circle cx="510.57" cy="300.01" r="2.5" fill="#2563eb"/>
  <circle cx="512.49" cy="300.01" r="2.5" fill="#2563eb"/>
  <circle cx="514.42" cy="299.97" r="2.5" fill="#2563eb"/>
  <circle cx="516.34" cy="299.97" r="2.5" fill="#2563eb"/>
  <circle cx="518.27" cy="300.01" r="2.5" fill="#2563eb"/>
  <circle cx="520.19" cy="299.97" r="2.5" fill="#2563eb"/>
  <circle cx="522.11" cy="300.01" r="2.5" fill="#2563eb"/>
  <circle cx="524.04" cy="299.93" r="2.5" fill="#2563eb"/>
  <circle cx="525.96" cy="300.01" r="2.5" fill="#2563eb"/>
  <circle cx="527.89" cy="250.03" r="2.5" fill="#2563eb"/>
  <circle cx="529.81" cy="300.01" r="2.5" fill="#2563eb"/>
  <circle cx="531.73" cy="300.01" r="2.5" fill="#2563eb"/>
  <circle cx="533.66" cy="300.01" r="2.5" fill="#2563eb"/>
  <circle cx="535.58" cy="300.01" r="2.5" fill="#2563eb"/>
  <circle cx="537.51" cy="300.01" r="2.5" fill="#2563eb"/>
  <circle cx="539.43" cy="299.89" r="2.5" fill="#2563eb"/>
  <circle cx="541.35" cy="300.01" r="2.5" fill="#2563eb"/>
  <circle cx="543.28" cy="300.01" r="2.5" fill="#2563eb"/>
  <circle cx="545.20" cy="250.07" r="2.5" fill="#2563eb"/>
  <circle cx="547.12" cy="300.01" r="2.5" fill="#2563eb"/>
  <circle cx="549.05" cy="299.93" r="2.5" fill="#2563eb"/>
  <circle cx="550.97" cy="300.01" r="2.5" fill="#2563eb"/>
  <circle cx="552.90" cy="299.97" r="2.5" fill="#2563eb"/>
  <circle cx="554.82" cy="299.97" r="2.5" fill="#2563eb"/>
  <circle cx="556.74" cy="299.97" r="2.5" fill="#2563eb"/>
  <circle cx="558.67" cy="250.03" r="2.5" fill="#2563eb"/>
  <circle cx="560.59" cy="300.01" r="2.5" fill="#2563eb"/>
  <circle cx="562.52" cy="300.01" r="2.5" fill="#2563eb"/>
  <circle cx="564.44" cy="300.01" r="2.5" fill="#2563eb"/>
  <circle cx="566.36" cy="300.01" r="2.5" fill="#2563eb"/>
  <circle cx="568.29" cy="299.97" r="2.5" fill="#2563eb"/>
  <circle cx="570.21" cy="300.01" r="2.5" fill="#2563eb"/>
  <circle cx="572.14" cy="299.97" r="2.5" fill="#2563eb"/>
  <circle cx="574.06" cy="300.01" r="2.5" fill="#2563eb"/>
  <circle cx="575.98" cy="299.97" r="2.5" fill="#2563eb"/>
  <circle cx="577.91" cy="249.90" r="2.5" fill="#2563eb"/>
  <circle cx="579.83" cy="300.01" r="2.5" fill="#2563eb"/>
  <circle cx="581.75" cy="300.01" r="2.5" fill="#2563eb"/>
  <circle cx="583.68" cy="299.89" r="2.5" fill="#2563eb"/>
  <circle cx="585.60" cy="299.97" r="2.5" fill="#2563eb"/>
  <circle cx="587.53" cy="299.97" r="2.5" fill="#2563eb"/>
  <circle cx="589.45" cy="249.99" r="2.5" fill="#2563eb"/>
  <circle cx="591.37" cy="299.97" r="2.5" fill="#2563eb"/>
  <circle cx="593.30" cy="299.89" r="2.5" fill="#2563eb"/>
  <circle cx="595.22" cy="300.01" r="2.5" fill="#2563eb"/>
  <circle cx="597.15" cy="299.97" r="2.5" fill="#2563eb"/>
  <circle cx="599.07" cy="299.97" r="2.5" fill="#2563eb"/>
  <circle cx="600.99" cy="300.01" r="2.5" fill="#2563eb"/>
  <circle cx="602.92" cy="299.97" r="2.5" fill="#2563eb"/>
  <circle cx="604.84" cy="249.99" r="2.5" fill="#2563eb"/>
  <circle cx="606.77" cy="299.97" r="2.5" fill="#2563eb"/>
  <circle cx="608.69" cy="299.97" r="2.5" fill="#2563eb"/>
  <circle cx="610.61" cy="300.06" r="2.5" fill="#2563eb"/>
  <circle cx="612.54" cy="300.06" r="2.5" fill="#2563eb"/>
  <circle cx="614.46" cy="249.94" r="2.5" fill="#2563eb"/>
  <circle cx="616.38" cy="300.01" r="2.5" fill="#2563eb"/>
  <circle cx="618.31" cy="299.93" r="2.5" fill="#2563eb"/>
  <circle cx="620.23" cy="300.01" r="2.5" fill="#2563eb"/>
  <circle cx="622.16" cy="300.01" r="2.5" fill="#2563eb"/>
  <circle cx="624.08" cy="249.99" r="2.5" fill="#2563eb"/>
  <circle cx="626.00" cy="300.01" r="2.5" fill="#2563eb"/>
  <circle cx="627.93" cy="300.01" r="2.5" fill="#2563eb"/>
  <circle cx="629.85" cy="300.01" r="2.5" fill="#2563eb"/>
  <circle cx="631.78" cy="299.93" r="2.5" fill="#2563eb"/>
  <circle cx="633.70" cy="299.93" r="2.5" fill="#2563eb"/>
  <circle cx="635.62" cy="300.01" r="2.5" fill="#2563eb"/>
  <circle cx="637.55" cy="300.01" r="2.5" fill="#2563eb"/>
  <circle cx="639.47" cy="249.94" r="2.5" fill="#2563eb"/>
  <circle cx="641.40" cy="299.97" r="2.5" fill="#2563eb"/>
  <circle cx="643.32" cy="299.97" r="2.5" fill="#2563eb"/>
  <circle cx="645.24" cy="300.01" r="2.5" fill="#2563eb"/>
  <circle cx="647.17" cy="300.01" r="2.5" fill="#2563eb"/>
  <circle cx="649.09" cy="300.01" r="2.5" fill="#2563eb"/>
  <circle cx="651.01" cy="249.99" r="2.5" fill="#2563eb"/>
  <circle cx="652.94" cy="300.01" r="2.5" fill="#2563eb"/>
  <circle cx="654.86" cy="300.01" r="2.5" fill="#2563eb"/>
  <circle cx="656.79" cy="300.01" r="2.5" fill="#2563eb"/>
  <circle cx="658.71" cy="250.03" r="2.5" fill="#2563eb"/>
  <circle cx="660.63" cy="300.01" r="2.5" fill="#2563eb"/>
  <circle cx="662.56" cy="300.01" r="2.5" fill="#2563eb"/>
  <circle cx="664.48" cy="300.01" r="2.5" fill="#2563eb"/>
  <circle cx="666.41" cy="299.97" r="2.5" fill="#2563eb"/>
  <circle cx="668.33" cy="300.01" r="2.5" fill="#2563eb"/>
  <circle cx="670.25" cy="300.01" r="2.5" fill="#2563eb"/>
  <circle cx="672.18" cy="299.97" r="2.5" fill="#2563eb"/>
  <circle cx="674.10" cy="299.97" r="2.5" fill="#2563eb"/>
  <circle cx="676.03" cy="300.01" r="2.5" fill="#2563eb"/>
  <circle cx="677.95" cy="300.01" r="2.5" fill="#2563eb"/>
  <circle cx="679.87" cy="299.97" r="2.5" fill="#2563eb"/>
  <circle cx="681.80" cy="299.93" r="2.5" fill="#2563eb"/>
  <circle cx="683.72" cy="300.01" r="2.5" fill="#2563eb"/>
  <circle cx="685.64" cy="300.06" r="2.5" fill="#2563eb"/>
  <circle cx="687.57" cy="299.97" r="2.5" fill="#2563eb"/>
  <circle cx="689.49" cy="300.01" r="2.5" fill="#2563eb"/>
  <circle cx="691.42" cy="250.03" r="2.5" fill="#2563eb"/>
  <circle cx="693.34" cy="250.03" r="2.5" fill="#2563eb"/>
  <circle cx="695.26" cy="299.93" r="2.5" fill="#2563eb"/>
  <circle cx="697.19" cy="299.97" r="2.5" fill="#2563eb"/>
  <circle cx="699.11" cy="300.01" r="2.5" fill="#2563eb"/>
  <circle cx="701.04" cy="300.01" r="2.5" fill="#2563eb"/>
  <circle cx="702.96" cy="300.06" r="2.5" fill="#2563eb"/>
  <circle cx="704.88" cy="300.01" r="2.5" fill="#2563eb"/>
  <circle cx="706.81" cy="299.93" r="2.5" fill="#2563eb"/>
  <circle cx="708.73" cy="300.01" r="2.5" fill="#2563eb"/>
  <circle cx="710.66" cy="300.01" r="2.5" fill="#2563eb"/>
  <circle cx="712.58" cy="299.97" r="2.5" fill="#2563eb"/>
  <circle cx="714.50" cy="299.97" r="2.5" fill="#2563eb"/>
  <circle cx="716.43" cy="300.01" r="2.5" fill="#2563eb"/>
  <circle cx="718.35" cy="250.03" r="2.5" fill="#2563eb"/>
  <circle cx="720.27" cy="300.01" r="2.5" fill="#2563eb"/>
  <circle cx="722.20" cy="300.01" r="2.5" fill="#2563eb"/>
  <circle cx="724.12" cy="300.01" r="2.5" fill="#2563eb"/>
  <circle cx="726.05" cy="299.97" r="2.5" fill="#2563eb"/>
  <circle cx="727.97" cy="300.01" r="2.5" fill="#2563eb"/>
  <circle cx="729.89" cy="299.97" r="2.5" fill="#2563eb"/>
  <circle cx="731.82" cy="300.01" r="2.5" fill="#2563eb"/>
  <circle cx="733.74" cy="299.97" r="2.5" fill="#2563eb"/>
  <circle cx="735.67" cy="299.97" r="2.5" fill="#2563eb"/>
  <circle cx="737.59" cy="299.93" r="2.5" fill="#2563eb"/>
  <circle cx="739.51" cy="300.01" r="2.5" fill="#2563eb"/>
  <circle cx="741.44" cy="300.01" r="2.5" fill="#2563eb"/>
  <circle cx="743.36" cy="299.89" r="2.5" fill="#2563eb"/>
  <circle cx="745.29" cy="299.97" r="2.5" fill="#2563eb"/>
  <circle cx="747.21" cy="299.97" r="2.5" fill="#2563eb"/>
  <circle cx="749.13" cy="300.06" r="2.5" fill="#2563eb"/>
  <circle cx="751.06" cy="249.90" r="2.5" fill="#2563eb"/>
  <circle cx="752.98" cy="299.89" r="2.5" fill="#2563eb"/>
  <circle cx="754.90" cy="300.01" r="2.5" fill="#2563eb"/>
  <circle cx="756.83" cy="299.97" r="2.5" fill="#2563eb"/>
  <circle cx="758.75" cy="299.97" r="2.5" fill="#2563eb"/>
  <circle cx="760.68" cy="299.97" r="2.5" fill="#2563eb"/>
  <circle cx="762.60" cy="300.01" r="2.5" fill="#2563eb"/>
  <circle cx="764.52" cy="300.01" r="2.5" fill="#2563eb"/>
  <circle cx="766.45" cy="299.97" r="2.5" fill="#2563eb"/>
  <circle cx="768.37" cy="299.97" r="2.5" fill="#2563eb"/>
  <circle cx="770.30" cy="299.97" r="2.5" fill="#2563eb"/>
  <circle cx="772.22" cy="250.03" r="2.5" fill="#2563eb"/>
  <circle cx="774.14" cy="299.93" r="2.5" fill="#2563eb"/>
  <circle cx="776.07" cy="300.01" r="2.5" fill="#2563eb"/>
  <circle cx="777.99" cy="300.01" r="2.5" fill="#2563eb"/>
  <circle cx="779.92" cy="299.93" r="2.5" fill="#2563eb"/>
  <circle cx="781.84" cy="300.01" r="2.5" fill="#2563eb"/>
  <circle cx="783.76" cy="300.01" r="2.5" fill="#2563eb"/>
  <circle cx="785.69" cy="299.97" r="2.5" fill="#2563eb"/>
  <circle cx="787.61" cy="300.01" r="2.5" fill="#2563eb"/>
  <circle cx="789.53" cy="300.01" r="2.5" fill="#2563eb"/>
  <circle cx="791.46" cy="300.06" r="2.5" fill="#2563eb"/>
  <circle cx="793.38" cy="300.01" r="2.5" fill="#2563eb"/>
  <circle cx="795.31" cy="299.97" r="2.5" fill="#2563eb"/>
  <circle cx="797.23" cy="299.89" r="2.5" fill="#2563eb"/>
  <circle cx="799.15" cy="300.01" r="2.5" fill="#2563eb"/>
  <circle cx="801.08" cy="300.01" r="2.5" fill="#2563eb"/>
  <circle cx="803.00" cy="249.94" r="2.5" fill="#2563eb"/>
  <circle cx="804.93" cy="249.94" r="2.5" fill="#2563eb"/>
  <circle cx="806.85" cy="300.01" r="2.5" fill="#2563eb"/>
  <circle cx="808.77" cy="300.01" r="2.5" fill="#2563eb"/>
  <circle cx="810.70" cy="300.01" r="2.5" fill="#2563eb"/>
  <circle cx="812.62" cy="300.01" r="2.5" fill="#2563eb"/>
  <circle cx="814.55" cy="299.97" r="2.5" fill="#2563eb"/>
  <circle cx="816.47" cy="250.03" r="2.5" fill="#2563eb"/>
  <circle cx="818.39" cy="300.01" r="2.5" fill="#2563eb"/>
  <circle cx="820.32" cy="300.01" r="2.5" fill="#2563eb"/>
  <circle cx="822.24" cy="300.01" r="2.5" fill="#2563eb"/>
  <circle cx="824.16" cy="300.01" r="2.5" fill="#2563eb"/>
  <circle cx="826.09" cy="250.03" r="2.5" fill="#2563eb"/>
  <circle cx="828.01" cy="249.99" r="2.5" fill="#2563eb"/>
  <circle cx="829.94" cy="300.01" r="2.5" fill="#2563eb"/>
  <circle cx="831.86" cy="299.97" r="2.5" fill="#2563eb"/>
  <circle cx="833.78" cy="300.01" r="2.5" fill="#2563eb"/>
  <circle cx="835.71" cy="299.97" r="2.5" fill="#2563eb"/>
  <circle cx="837.63" cy="300.01" r="2.5" fill="#2563eb"/>
  <circle cx="839.56" cy="299.97" r="2.5" fill="#2563eb"/>
  <circle cx="841.48" cy="299.97" r="2.5" fill="#2563eb"/>
  <circle cx="843.40" cy="299.97" r="2.5" fill="#2563eb"/>
  <circle cx="845.33" cy="300.06" r="2.5" fill="#2563eb"/>
  <circle cx="847.25" cy="249.99" r="2.5" fill="#2563eb"/>
  <circle cx="849.18" cy="300.01" r="2.5" fill="#2563eb"/>
  <circle cx="851.10" cy="250.03" r="2.5" fill="#2563eb"/>
  <circle cx="853.02" cy="249.94" r="2.5" fill="#2563eb"/>
  <circle cx="854.95" cy="249.99" r="2.5" fill="#2563eb"/>
  <circle cx="856.87" cy="300.01" r="2.5" fill="#2563eb"/>
  <circle cx="858.79" cy="300.06" r="2.5" fill="#2563eb"/>
  <circle cx="860.72" cy="300.01" r="2.5" fill="#2563eb"/>
  <circle cx="862.64" cy="299.97" r="2.5" fill="#2563eb"/>
  <circle cx="864.57" cy="299.97" r="2.5" fill="#2563eb"/>
  <circle cx="866.49" cy="300.01" r="2.5" fill="#2563eb"/>
  <circle cx="868.41" cy="299.93" r="2.5" fill="#2563eb"/>
  <circle cx="870.34" cy="299.89" r="2.5" fill="#2563eb"/>
  <circle cx="872.26" cy="299.89" r="2.5" fill="#2563eb"/>
  <circle cx="874.19" cy="299.89" r="2.5" fill="#2563eb"/>
  <circle cx="876.11" cy="299.89" r="2.5" fill="#2563eb"/>
  <circle cx="878.03" cy="299.85" r="2.5" fill="#2563eb"/>
  <circle cx="879.96" cy="299.85" r="2.5" fill="#2563eb"/>
  <circle cx="881.88" cy="299.89" r="2.5" fill="#2563eb"/>
  <circle cx="883.81" cy="299.81" r="2.5" fill="#2563eb"/>
  <circle cx="885.73" cy="299.81" r="2.5" fill="#2563eb"/>
  <circle cx="887.65" cy="299.81" r="2.5" fill="#2563eb"/>
  <circle cx="889.58" cy="299.76" r="2.5" fill="#2563eb"/>
  <circle cx="891.50" cy="299.76" r="2.5" fill="#2563eb"/>
  <circle cx="893.42" cy="299.76" r="2.5" fill="#2563eb"/>
  <circle cx="895.35" cy="299.72" r="2.5" fill="#2563eb"/>
  <circle cx="897.27" cy="299.68" r="2.5" fill="#2563eb"/>
  <circle cx="899.20" cy="299.60" r="2.5" fill="#2563eb"/>
  <circle cx="901.12" cy="299.60" r="2.5" fill="#2563eb"/>
  <circle cx="903.04" cy="299.60" r="2.5" fill="#2563eb"/>
  <circle cx="904.97" cy="299.56" r="2.5" fill="#2563eb"/>
  <circle cx="906.89" cy="299.47" r="2.5" fill="#2563eb"/>
  <circle cx="908.82" cy="299.43" r="2.5" fill="#2563eb"/>
  <circle cx="910.74" cy="299.43" r="2.5" fill="#2563eb"/>
  <circle cx="912.66" cy="299.39" r="2.5" fill="#2563eb"/>
  <circle cx="914.59" cy="299.47" r="2.5" fill="#2563eb"/>
  <circle cx="916.51" cy="259.82" r="2.5" fill="#2563eb"/>
  <circle cx="918.44" cy="338.96" r="2.5" fill="#2563eb"/>
  <circle cx="920.36" cy="299.31" r="2.5" fill="#2563eb"/>
  <circle cx="922.28" cy="299.31" r="2.5" fill="#2563eb"/>
  <circle cx="924.21" cy="299.26" r="2.5" fill="#2563eb"/>
  <circle cx="926.13" cy="299.68" r="2.5" fill="#2563eb"/>
  <circle cx="928.05" cy="299.68" r="2.5" fill="#2563eb"/>
  <circle cx="929.98" cy="299.68" r="2.5" fill="#2563eb"/>
  <circle cx="931.90" cy="299.64" r="2.5" fill="#2563eb"/>
  <circle cx="933.83" cy="299.14" r="2.5" fill="#2563eb"/>
  <circle cx="935.75" cy="299.14" r="2.5" fill="#2563eb"/>
  <circle cx="937.67" cy="299.10" r="2.5" fill="#2563eb"/>
  <circle cx="939.60" cy="299.10" r="2.5" fill="#2563eb"/>
  <circle cx="941.52" cy="299.10" r="2.5" fill="#2563eb"/>
  <circle cx="943.45" cy="248.07" r="2.5" fill="#2563eb"/>
  <circle cx="945.37" cy="299.06" r="2.5" fill="#2563eb"/>
  <circle cx="947.29" cy="299.06" r="2.5" fill="#2563eb"/>
  <circle cx="949.22" cy="299.06" r="2.5" fill="#2563eb"/>
  <circle cx="951.14" cy="299.06" r="2.5" fill="#2563eb"/>
  <circle cx="953.07" cy="299.06" r="2.5" fill="#2563eb"/>
  <circle cx="954.99" cy="298.97" r="2.5" fill="#2563eb"/>
  <circle cx="956.91" cy="298.97" r="2.5" fill="#2563eb"/>
  <circle cx="958.84" cy="298.93" r="2.5" fill="#2563eb"/>
  <circle cx="960.76" cy="298.97" r="2.5" fill="#2563eb"/>
  <circle cx="962.68" cy="298.93" r="2.5" fill="#2563eb"/>
  <circle cx="964.61" cy="298.89" r="2.5" fill="#2563eb"/>
  <circle cx="966.53" cy="298.89" r="2.5" fill="#2563eb"/>
  <circle cx="968.46" cy="298.89" r="2.5" fill="#2563eb"/>
  <circle cx="970.38" cy="298.89" r="2.5" fill="#2563eb"/>
  <circle cx="972.30" cy="247.78" r="2.5" fill="#2563eb"/>
  <circle cx="974.23" cy="298.89" r="2.5" fill="#2563eb"/>
  <circle cx="976.15" cy="298.89" r="2.5" fill="#2563eb"/>
  <circle cx="978.08" cy="298.85" r="2.5" fill="#2563eb"/>
  <circle cx="980.00" cy="298.85" r="2.5" fill="#2563eb"/>
</svg>
