<?xml version="1.0" encoding="UTF-8"?>
<svg xmlns="http://www.w3.org/2000/svg" width="1000" height="420" viewBox="0 0 1000 420">
  <rect width="100%" height="100%" fill="#ffffff"/>
  <text x="70" y="28" font-size="20" font-weight="600">수집 시점 기준 - 시간별 스냅샷</text>
  <text x="70" y="402" font-size="12" fill="#555">스냅샷 수</text>
  <line x1="70" y1="350.00" x2="980" y2="350.00" stroke="#e5e7eb" stroke-width="1"/>
  <text x="62" y="354.00" font-size="11" fill="#6b7280" text-anchor="end">0</text>
  <line x1="70" y1="290.00" x2="980" y2="290.00" stroke="#e5e7eb" stroke-width="1"/>
  <text x="62" y="294.00" font-size="11" fill="#6b7280" text-anchor="end">1,440</text>
  <line x1="70" y1="230.00" x2="980" y2="230.00" stroke="#e5e7eb" stroke-width="1"/>
  <text x="62" y="234.00" font-size="11" fill="#6b7280" text-anchor="end">2,880</text>
  <line x1="70" y1="170.00" x2="980" y2="170.00" stroke="#e5e7eb" stroke-width="1"/>
  <text x="62" y="174.00" font-size="11" fill="#6b7280" text-anchor="end">4,321</text>
  <line x1="70" y1="110.00" x2="980" y2="110.00" stroke="#e5e7eb" stroke-width="1"/>
  <text x="62" y="114.00" font-size="11" fill="#6b7280" text-anchor="end">5,761</text>
  <line x1="70" y1="50.00" x2="980" y2="50.00" stroke="#e5e7eb" stroke-width="1"/>
  <text x="62" y="54.00" font-size="11" fill="#6b7280" text-anchor="end">7,202</text>
  <line x1="70" y1="350" x2="980" y2="350" stroke="#111827" stroke-width="1.2"/>
  <line x1="70" y1="50" x2="70" y2="350" stroke="#111827" stroke-width="1.2"/>
  <line x1="70.00" y1="350" x2="70.00" y2="356" stroke="#9ca3af" stroke-width="1"/>
  <text x="70.00" y="372" font-size="10" fill="#6b7280" text-anchor="middle">2026-02-28 18</text>
  <line x1="144.07" y1="350" x2="144.07" y2="356" stroke="#9ca3af" stroke-width="1"/>
  <text x="144.07" y="372" font-size="10" fill="#6b7280" text-anchor="middle">2026-03-08 14</text>
  <line x1="218.14" y1="350" x2="218.14" y2="356" stroke="#9ca3af" stroke-width="1"/>
  <text x="218.14" y="372" font-size="10" fill="#6b7280" text-anchor="middle">2026-03-10 03</text>
  <line x1="292.21" y1="350" x2="292.21" y2="356" stroke="#9ca3af" stroke-width="1"/>
  <text x="292.21" y="372" font-size="10" fill="#6b7280" text-anchor="middle">2026-03-11 18</text>
  <line x1="366.28" y1="350" x2="366.28" y2="356" stroke="#9ca3af" stroke-width="1"/>
  <text x="366.28" y="372" font-size="10" fill="#6b7280" text-anchor="middle">2026-03-13 07</text>
  <line x1="440.35" y1="350" x2="440.35" y2="356" stroke="#9ca3af" stroke-width="1"/>
  <text x="440.35" y="372" font-size="10" fill="#6b7280" text-anchor="middle">2026-03-15 02</text>
  <line x1="514.42" y1="350" x2="514.42" y2="356" stroke="#9ca3af" stroke-width="1"/>
  <text x="514.42" y="372" font-size="10" fill="#6b7280" text-anchor="middle">2026-03-17 08</text>
  <line x1="588.49" y1="350" x2="588.49" y2="356" stroke="#9ca3af" stroke-width="1"/>
  <text x="588.49" y="372" font-size="10" fill="#6b7280" text-anchor="middle">2026-03-19 18</text>
  <line x1="662.56" y1="350" x2="662.56" y2="356" stroke="#9ca3af" stroke-width="1"/>
  <text x="662.56" y="372" font-size="10" fill="#6b7280" text-anchor="middle">2026-03-21 18</text>
  <line x1="736.63" y1="350" x2="736.63" y2="356" stroke="#9ca3af" stroke-width="1"/>
  <text x="736.63" y="372" font-size="10" fill="#6b7280" text-anchor="middle">2026-03-23 20</text>
  <line x1="810.70" y1="350" x2="810.70" y2="356" stroke="#9ca3af" stroke-width="1"/>
  <text x="810.70" y="372" font-size="10" fill="#6b7280" text-anchor="middle">2026-03-26 04</text>
  <line x1="884.77" y1="350" x2="884.77" y2="356" stroke="#9ca3af" stroke-width="1"/>
  <text x="884.77" y="372" font-size="10" fill="#6b7280" text-anchor="middle">2026-03-28 15</text>
  <line x1="958.84" y1="350" x2="958.84" y2="356" stroke="#9ca3af" stroke-width="1"/>
  <text x="958.84" y="372" font-size="10" fill="#6b7280" text-anchor="middle">2026-03-31 00</text>
  <line x1="980.00" y1="350" x2="980.00" y2="356" stroke="#9ca3af" stroke-width="1"/>
  <text x="980.00" y="372" font-size="10" fill="#6b7280" text-anchor="middle">2026-03-31 16</text>
  <polyline fill="none" stroke="#2563eb" stroke-width="2.5" points="70.00,50.00 72.12,50.12 74.23,50.17 76.35,50.46 78.47,50.00 80.58,266.90 82.70,50.12 84.81,50.08 86.93,177.46 89.05,211.58 91.16,175.34 93.28,304.14 95.40,200.46 97.51,250.94 99.63,300.01 101.74,300.06 103.86,300.01 105.98,300.01 108.09,348.00 110.21,300.01 112.33,249.99 114.44,200.00 116.56,249.99 118.67,249.99 120.79,250.03 122.91,250.03 125.02,250.03 127.14,250.40 129.26,250.90 131.37,250.90 133.49,251.32 135.60,249.94 137.72,300.01 139.84,299.93 141.95,251.03 144.07,300.68 146.19,250.03 148.30,200.00 150.42,249.99 152.53,250.03 154.65,250.03 156.77,250.03 158.88,300.01 161.00,200.04 163.12,250.03 165.23,250.03 167.35,250.03 169.47,249.90 171.58,250.03 173.70,250.03 175.81,250.94 177.93,250.44 180.05,250.03 182.16,250.03 184.28,300.47 186.40,300.01 188.51,300.43 190.63,250.03 192.74,249.99 194.86,300.43 196.98,249.90 199.09,249.99 201.21,249.99 203.33,200.04 205.44,300.01 207.56,300.01 209.67,300.01 211.79,249.90 213.91,300.01 216.02,250.03 218.14,249.99 220.26,199.96 222.37,300.01 224.49,200.00 226.60,250.36 228.72,250.03 230.84,300.01 232.95,300.01 235.07,250.44 237.19,300.01 239.30,250.03 241.42,250.03 243.53,249.99 245.65,250.49 247.77,250.03 249.88,200.04 252.00,300.01 254.12,250.03 256.23,300.01 258.35,250.11 260.47,300.01 262.58,250.03 264.70,250.03 266.81,199.92 268.93,250.03 271.05,250.03 273.16,250.03 275.28,254.36 277.40,300.01 279.51,299.97 281.63,250.36 283.74,299.97 285.86,250.03 287.98,250.03 290.09,250.03 292.21,250.03 294.33,249.99 296.44,200.00 298.56,299.93 300.67,300.01 302.79,299.97 304.91,249.94 307.02,249.99 309.14,249.82 311.26,249.94 313.37,250.28 315.49,207.00 317.60,250.03 319.72,250.32 321.84,250.40 323.95,300.93 326.07,300.01 328.19,300.10 330.30,249.94 332.42,249.99 334.53,250.07 336.65,249.99 338.77,250.03 340.88,249.94 343.00,200.00 345.12,300.39 347.23,300.01 349.35,300.01 351.47,250.44 353.58,300.39 355.70,249.86 357.81,250.11 359.93,201.46 362.05,300.01 364.16,200.83 366.28,250.03 368.40,249.99 370.51,300.26 372.63,300.01 374.74,300.01 376.86,250.03 378.98,250.03 381.09,250.03 383.21,250.03 385.33,249.99 387.44,250.03 389.56,200.00 391.67,300.26 393.79,249.99 395.91,300.01 398.02,249.94 400.14,250.03 402.26,250.03 404.37,250.03 406.49,200.04 408.60,300.01 410.72,249.90 412.84,300.01 414.95,300.01 417.07,300.06 419.19,300.01 421.30,300.01 423.42,243.95 425.53,249.94 427.65,299.97 429.77,300.01 431.88,300.01 434.00,250.03 436.12,300.01 438.23,300.01 440.35,299.97 442.47,249.99 444.58,300.01 446.70,299.93 448.81,300.01 450.93,299.93 453.05,300.01 455.16,300.01 457.28,299.89 459.40,299.97 461.51,250.03 463.63,299.93 465.74,299.89 467.86,299.97 469.98,249.94 472.09,300.01 474.21,300.01 476.33,299.97 478.44,249.99 480.56,299.97 482.67,299.97 484.79,300.06 486.91,300.06 489.02,299.93 491.14,300.01 493.26,300.01 495.37,299.93 497.49,300.01 499.60,300.01 501.72,299.97 503.84,300.01 505.95,300.01 508.07,300.01 510.19,300.01 512.30,249.86 514.42,300.01 516.53,300.10 518.65,299.93 520.77,300.01 522.88,299.93 525.00,300.01 527.12,300.01 529.23,300.01 531.35,300.01 533.47,300.01 535.58,299.97 537.70,300.01 539.81,300.01 541.93,300.01 544.05,300.01 546.16,250.03 548.28,300.01 550.40,300.01 552.51,299.97 554.63,300.01 556.74,300.01 558.86,299.97 560.98,299.97 563.09,300.01 565.21,299.97 567.33,300.01 569.44,299.93 571.56,300.01 573.67,250.03 575.79,300.01 577.91,300.01 580.02,300.01 582.14,300.01 584.26,300.01 586.37,299.89 588.49,300.01 590.60,300.01 592.72,250.07 594.84,300.01 596.95,299.93 599.07,300.01 601.19,299.97 603.30,299.97 605.42,299.97 607.53,250.03 609.65,300.01 611.77,300.01 613.88,300.01 616.00,300.01 618.12,299.97 620.23,300.01 622.35,299.97 624.47,300.01 626.58,299.97 628.70,249.90 630.81,300.01 632.93,300.01 635.05,299.89 637.16,299.97 639.28,299.97 641.40,249.99 643.51,299.97 645.63,299.89 647.74,300.01 649.86,299.97 651.98,299.97 654.09,300.01 656.21,299.97 658.33,249.99 660.44,299.97 662.56,299.97 664.67,300.06 666.79,300.06 668.91,249.94 671.02,300.01 673.14,299.93 675.26,300.01 677.37,300.01 679.49,249.99 681.60,300.01 683.72,300.01 685.84,300.01 687.95,299.93 690.07,299.93 692.19,300.01 694.30,300.01 696.42,249.94 698.53,299.97 700.65,299.97 702.77,300.01 704.88,300.01 707.00,300.01 709.12,249.99 711.23,300.01 713.35,300.01 715.47,300.01 717.58,250.03 719.70,300.01 721.81,300.01 723.93,300.01 726.05,299.97 728.16,300.01 730.28,300.01 732.40,299.97 734.51,299.97 736.63,300.01 738.74,300.01 740.86,299.97 742.98,299.93 745.09,300.01 747.21,300.06 749.33,299.97 751.44,300.01 753.56,250.03 755.67,250.03 757.79,299.93 759.91,299.97 762.02,300.01 764.14,300.01 766.26,300.06 768.37,300.01 770.49,299.93 772.60,300.01 774.72,300.01 776.84,299.97 778.95,299.97 781.07,300.01 783.19,250.03 785.30,300.01 787.42,300.01 789.53,300.01 791.65,299.97 793.77,300.01 795.88,299.97 798.00,300.01 800.12,299.97 802.23,299.97 804.35,299.93 806.47,300.01 808.58,300.01 810.70,299.89 812.81,299.97 814.93,299.97 817.05,300.06 819.16,249.90 821.28,299.89 823.40,300.01 825.51,299.97 827.63,299.97 829.74,299.97 831.86,300.01 833.98,300.01 836.09,299.97 838.21,299.97 840.33,299.97 842.44,250.03 844.56,299.93 846.67,300.01 848.79,300.01 850.91,299.93 853.02,300.01 855.14,300.01 857.26,299.97 859.37,300.01 861.49,300.01 863.60,300.06 865.72,300.01 867.84,299.97 869.95,299.89 872.07,300.01 874.19,300.01 876.30,249.94 878.42,249.94 880.53,300.01 882.65,300.01 884.77,300.01 886.88,300.01 889.00,299.97 891.12,250.03 893.23,300.01 895.35,300.01 897.47,300.01 899.58,300.01 901.70,250.03 903.81,249.99 905.93,300.01 908.05,299.97 910.16,300.01 912.28,299.97 914.40,300.01 916.51,299.97 918.63,299.97 920.74,299.97 922.86,300.06 924.98,249.99 927.09,300.01 929.21,250.03 931.33,249.94 933.44,249.99 935.56,300.01 937.67,300.06 939.79,300.01 941.91,299.97 944.02,299.97 946.14,300.01 948.26,299.93 950.37,299.89 952.49,299.89 954.60,299.89 956.72,299.89 958.84,299.85 960.95,299.85 963.07,299.89 965.19,299.81 967.30,299.81 969.42,299.81 971.53,299.76 973.65,299.76 975.77,299.76 977.88,299.72 980.00,299.68"/>
  <circle cx="70.00" cy="50.00" r="2.5" fill="#2563eb"/>
  <circle cx="72.12" cy="50.12" r="2.5" fill="#2563eb"/>
  <circle cx="74.23" cy="50.17" r="2.5" fill="#2563eb"/>
  <circle cx="76.35" cy="50.46" r="2.5" fill="#2563eb"/>
  <circle cx="78.47" cy="50.00" r="2.5" fill="#2563eb"/>
  <circle cx="80.58" cy="266.90" r="2.5" fill="#2563eb"/>
  <circle cx="82.70" cy="50.12" r="2.5" fill="#2563eb"/>
  <circle cx="84.81" cy="50.08" r="2.5" fill="#2563eb"/>
  <circle cx="86.93" cy="177.46" r="2.5" fill="#2563eb"/>
  <circle cx="89.05" cy="211.58" r="2.5" fill="#2563eb"/>
  <circle cx="91.16" cy="175.34" r="2.5" fill="#2563eb"/>
  <circle cx="93.28" cy="304.14" r="2.5" fill="#2563eb"/>
  <circle cx="95.40" cy="200.46" r="2.5" fill="#2563eb"/>
  <circle cx="97.51" cy="250.94" r="2.5" fill="#2563eb"/>
  <circle cx="99.63" cy="300.01" r="2.5" fill="#2563eb"/>
  <circle cx="101.74" cy="300.06" r="2.5" fill="#2563eb"/>
  <circle cx="103.86" cy="300.01" r="2.5" fill="#2563eb"/>
  <circle cx="105.98" cy="300.01" r="2.5" fill="#2563eb"/>
  <circle cx="108.09" cy="348.00" r="2.5" fill="#2563eb"/>
  <circle cx="110.21" cy="300.01" r="2.5" fill="#2563eb"/>
  <circle cx="112.33" cy="249.99" r="2.5" fill="#2563eb"/>
  <circle cx="114.44" cy="200.00" r="2.5" fill="#2563eb"/>
  <circle cx="116.56" cy="249.99" r="2.5" fill="#2563eb"/>
  <circle cx="118.67" cy="249.99" r="2.5" fill="#2563eb"/>
  <circle cx="120.79" cy="250.03" r="2.5" fill="#2563eb"/>
  <circle cx="122.91" cy="250.03" r="2.5" fill="#2563eb"/>
  <circle cx="125.02" cy="250.03" r="2.5" fill="#2563eb"/>
  <circle cx="127.14" cy="250.40" r="2.5" fill="#2563eb"/>
  <circle cx="129.26" cy="250.90" r="2.5" fill="#2563eb"/>
  <circle cx="131.37" cy="250.90" r="2.5" fill="#2563eb"/>
  <circle cx="133.49" cy="251.32" r="2.5" fill="#2563eb"/>
  <circle cx="135.60" cy="249.94" r="2.5" fill="#2563eb"/>
  <circle cx="137.72" cy="300.01" r="2.5" fill="#2563eb"/>
  <circle cx="139.84" cy="299.93" r="2.5" fill="#2563eb"/>
  <circle cx="141.95" cy="251.03" r="2.5" fill="#2563eb"/>
  <circle cx="144.07" cy="300.68" r="2.5" fill="#2563eb"/>
  <circle cx="146.19" cy="250.03" r="2.5" fill="#2563eb"/>
  <circle cx="148.30" cy="200.00" r="2.5" fill="#2563eb"/>
  <circle cx="150.42" cy="249.99" r="2.5" fill="#2563eb"/>
  <circle cx="152.53" cy="250.03" r="2.5" fill="#2563eb"/>
  <circle cx="154.65" cy="250.03" r="2.5" fill="#2563eb"/>
  <circle cx="156.77" cy="250.03" r="2.5" fill="#2563eb"/>
  <circle cx="158.88" cy="300.01" r="2.5" fill="#2563eb"/>
  <circle cx="161.00" cy="200.04" r="2.5" fill="#2563eb"/>
  <circle cx="163.12" cy="250.03" r="2.5" fill="#2563eb"/>
  <circle cx="165.23" cy="250.03" r="2.5" fill="#2563eb"/>
  <circle cx="167.35" cy="250.03" r="2.5" fill="#2563eb"/>
  <circle cx="169.47" cy="249.90" r="2.5" fill="#2563eb"/>
  <circle cx="171.58" cy="250.03" r="2.5" fill="#2563eb"/>
  <circle cx="173.70" cy="250.03" r="2.5" fill="#2563eb"/>
  <circle cx="175.81" cy="250.94" r="2.5" fill="#2563eb"/>
  <circle cx="177.93" cy="250.44" r="2.5" fill="#2563eb"/>
  <circle cx="180.05" cy="250.03" r="2.5" fill="#2563eb"/>
  <circle cx="182.16" cy="250.03" r="2.5" fill="#2563eb"/>
  <circle cx="184.28" cy="300.47" r="2.5" fill="#2563eb"/>
  <circle cx="186.40" cy="300.01" r="2.5" fill="#2563eb"/>
  <circle cx="188.51" cy="300.43" r="2.5" fill="#2563eb"/>
  <circle cx="190.63" cy="250.03" r="2.5" fill="#2563eb"/>
  <circle cx="192.74" cy="249.99" r="2.5" fill="#2563eb"/>
  <circle cx="194.86" cy="300.43" r="2.5" fill="#2563eb"/>
  <circle cx="196.98" cy="249.90" r="2.5" fill="#2563eb"/>
  <circle cx="199.09" cy="249.99" r="2.5" fill="#2563eb"/>
  <circle cx="201.21" cy="249.99" r="2.5" fill="#2563eb"/>
  <circle cx="203.33" cy="200.04" r="2.5" fill="#2563eb"/>
  <circle cx="205.44" cy="300.01" r="2.5" fill="#2563eb"/>
  <circle cx="207.56" cy="300.01" r="2.5" fill="#2563eb"/>
  <circle cx="209.67" cy="300.01" r="2.5" fill="#2563eb"/>
  <circle cx="211.79" cy="249.90" r="2.5" fill="#2563eb"/>
  <circle cx="213.91" cy="300.01" r="2.5" fill="#2563eb"/>
  <circle cx="216.02" cy="250.03" r="2.5" fill="#2563eb"/>
  <circle cx="218.14" cy="249.99" r="2.5" fill="#2563eb"/>
  <circle cx="220.26" cy="199.96" r="2.5" fill="#2563eb"/>
  <circle cx="222.37" cy="300.01" r="2.5" fill="#2563eb"/>
  <circle cx="224.49" cy="200.00" r="2.5" fill="#2563eb"/>
  <circle cx="226.60" cy="250.36" r="2.5" fill="#2563eb"/>
  <circle cx="228.72" cy="250.03" r="2.5" fill="#2563eb"/>
  <circle cx="230.84" cy="300.01" r="2.5" fill="#2563eb"/>
  <circle cx="232.95" cy="300.01" r="2.5" fill="#2563eb"/>
  <circle cx="235.07" cy="250.44" r="2.5" fill="#2563eb"/>
  <circle cx="237.19" cy="300.01" r="2.5" fill="#2563eb"/>
  <circle cx="239.30" cy="250.03" r="2.5" fill="#2563eb"/>
  <circle cx="241.42" cy="250.03" r="2.5" fill="#2563eb"/>
  <circle cx="243.53" cy="249.99" r="2.5" fill="#2563eb"/>
  <circle cx="245.65" cy="250.49" r="2.5" fill="#2563eb"/>
  <circle cx="247.77" cy="250.03" r="2.5" fill="#2563eb"/>
  <circle cx="249.88" cy="200.04" r="2.5" fill="#2563eb"/>
  <circle cx="252.00" cy="300.01" r="2.5" fill="#2563eb"/>
  <circle cx="254.12" cy="250.03" r="2.5" fill="#2563eb"/>
  <circle cx="256.23" cy="300.01" r="2.5" fill="#2563eb"/>
  <circle cx="258.35" cy="250.11" r="2.5" fill="#2563eb"/>
  <circle cx="260.47" cy="300.01" r="2.5" fill="#2563eb"/>
  <circle cx="262.58" cy="250.03" r="2.5" fill="#2563eb"/>
  <circle cx="264.70" cy="250.03" r="2.5" fill="#2563eb"/>
  <circle cx="266.81" cy="199.92" r="2.5" fill="#2563eb"/>
  <circle cx="268.93" cy="250.03" r="2.5" fill="#2563eb"/>
  <circle cx="271.05" cy="250.03" r="2.5" fill="#2563eb"/>
  <circle cx="273.16" cy="250.03" r="2.5" fill="#2563eb"/>
  <circle cx="275.28" cy="254.36" r="2.5" fill="#2563eb"/>
  <circle cx="277.40" cy="300.01" r="2.5" fill="#2563eb"/>
  <circle cx="279.51" cy="299.97" r="2.5" fill="#2563eb"/>
  <circle cx="281.63" cy="250.36" r="2.5" fill="#2563eb"/>
  <circle cx="283.74" cy="299.97" r="2.5" fill="#2563eb"/>
  <circle cx="285.86" cy="250.03" r="2.5" fill="#2563eb"/>
  <circle cx="287.98" cy="250.03" r="2.5" fill="#2563eb"/>
  <circle cx="290.09" cy="250.03" r="2.5" fill="#2563eb"/>
  <circle cx="292.21" cy="250.03" r="2.5" fill="#2563eb"/>
  <circle cx="294.33" cy="249.99" r="2.5" fill="#2563eb"/>
  <circle cx="296.44" cy="200.00" r="2.5" fill="#2563eb"/>
  <circle cx="298.56" cy="299.93" r="2.5" fill="#2563eb"/>
  <circle cx="300.67" cy="300.01" r="2.5" fill="#2563eb"/>
  <circle cx="302.79" cy="299.97" r="2.5" fill="#2563eb"/>
  <circle cx="304.91" cy="249.94" r="2.5" fill="#2563eb"/>
  <circle cx="307.02" cy="249.99" r="2.5" fill="#2563eb"/>
  <circle cx="309.14" cy="249.82" r="2.5" fill="#2563eb"/>
  <circle cx="311.26" cy="249.94" r="2.5" fill="#2563eb"/>
  <circle cx="313.37" cy="250.28" r="2.5" fill="#2563eb"/>
  <circle cx="315.49" cy="207.00" r="2.5" fill="#2563eb"/>
  <circle cx="317.60" cy="250.03" r="2.5" fill="#2563eb"/>
  <circle cx="319.72" cy="250.32" r="2.5" fill="#2563eb"/>
  <circle cx="321.84" cy="250.40" r="2.5" fill="#2563eb"/>
  <circle cx="323.95" cy="300.93" r="2.5" fill="#2563eb"/>
  <circle cx="326.07" cy="300.01" r="2.5" fill="#2563eb"/>
  <circle cx="328.19" cy="300.10" r="2.5" fill="#2563eb"/>
  <circle cx="330.30" cy="249.94" r="2.5" fill="#2563eb"/>
  <circle cx="332.42" cy="249.99" r="2.5" fill="#2563eb"/>
  <circle cx="334.53" cy="250.07" r="2.5" fill="#2563eb"/>
  <circle cx="336.65" cy="249.99" r="2.5" fill="#2563eb"/>
  <circle cx="338.77" cy="250.03" r="2.5" fill="#2563eb"/>
  <circle cx="340.88" cy="249.94" r="2.5" fill="#2563eb"/>
  <circle cx="343.00" cy="200.00" r="2.5" fill="#2563eb"/>
  <circle cx="345.12" cy="300.39" r="2.5" fill="#2563eb"/>
  <circle cx="347.23" cy="300.01" r="2.5" fill="#2563eb"/>
  <circle cx="349.35" cy="300.01" r="2.5" fill="#2563eb"/>
  <circle cx="351.47" cy="250.44" r="2.5" fill="#2563eb"/>
  <circle cx="353.58" cy="300.39" r="2.5" fill="#2563eb"/>
  <circle cx="355.70" cy="249.86" r="2.5" fill="#2563eb"/>
  <circle cx="357.81" cy="250.11" r="2.5" fill="#2563eb"/>
  <circle cx="359.93" cy="201.46" r="2.5" fill="#2563eb"/>
  <circle cx="362.05" cy="300.01" r="2.5" fill="#2563eb"/>
  <circle cx="364.16" cy="200.83" r="2.5" fill="#2563eb"/>
  <circle cx="366.28" cy="250.03" r="2.5" fill="#2563eb"/>
  <circle cx="368.40" cy="249.99" r="2.5" fill="#2563eb"/>
  <circle cx="370.51" cy="300.26" r="2.5" fill="#2563eb"/>
  <circle cx="372.63" cy="300.01" r="2.5" fill="#2563eb"/>
  <circle cx="374.74" cy="300.01" r="2.5" fill="#2563eb"/>
  <circle cx="376.86" cy="250.03" r="2.5" fill="#2563eb"/>
  <circle cx="378.98" cy="250.03" r="2.5" fill="#2563eb"/>
  <circle cx="381.09" cy="250.03" r="2.5" fill="#2563eb"/>
  <circle cx="383.21" cy="250.03" r="2.5" fill="#2563eb"/>
  <circle cx="385.33" cy="249.99" r="2.5" fill="#2563eb"/>
  <circle cx="387.44" cy="250.03" r="2.5" fill="#2563eb"/>
  <circle cx="389.56" cy="200.00" r="2.5" fill="#2563eb"/>
  <circle cx="391.67" cy="300.26" r="2.5" fill="#2563eb"/>
  <circle cx="393.79" cy="249.99" r="2.5" fill="#2563eb"/>
  <circle cx="395.91" cy="300.01" r="2.5" fill="#2563eb"/>
  <circle cx="398.02" cy="249.94" r="2.5" fill="#2563eb"/>
  <circle cx="400.14" cy="250.03" r="2.5" fill="#2563eb"/>
  <circle cx="402.26" cy="250.03" r="2.5" fill="#2563eb"/>
  <circle cx="404.37" cy="250.03" r="2.5" fill="#2563eb"/>
  <circle cx="406.49" cy="200.04" r="2.5" fill="#2563eb"/>
  <circle cx="408.60" cy="300.01" r="2.5" fill="#2563eb"/>
  <circle cx="410.72" cy="249.90" r="2.5" fill="#2563eb"/>
  <circle cx="412.84" cy="300.01" r="2.5" fill="#2563eb"/>
  <circle cx="414.95" cy="300.01" r="2.5" fill="#2563eb"/>
  <circle cx="417.07" cy="300.06" r="2.5" fill="#2563eb"/>
  <circle cx="419.19" cy="300.01" r="2.5" fill="#2563eb"/>
  <circle cx="421.30" cy="300.01" r="2.5" fill="#2563eb"/>
  <circle cx="423.42" cy="243.95" r="2.5" fill="#2563eb"/>
  <circle cx="425.53" cy="249.94" r="2.5" fill="#2563eb"/>
  <circle cx="427.65" cy="299.97" r="2.5" fill="#2563eb"/>
  <circle cx="429.77" cy="300.01" r="2.5" fill="#2563eb"/>
  <circle cx="431.88" cy="300.01" r="2.5" fill="#2563eb"/>
  <circle cx="434.00" cy="250.03" r="2.5" fill="#2563eb"/>
  <circle cx="436.12" cy="300.01" r="2.5" fill="#2563eb"/>
  <circle cx="438.23" cy="300.01" r="2.5" fill="#2563eb"/>
  <circle cx="440.35" cy="299.97" r="2.5" fill="#2563eb"/>
  <circle cx="442.47" cy="249.99" r="2.5" fill="#2563eb"/>
  <circle cx="444.58" cy="300.01" r="2.5" fill="#2563eb"/>
  <circle cx="446.70" cy="299.93" r="2.5" fill="#2563eb"/>
  <circle cx="448.81" cy="300.01" r="2.5" fill="#2563eb"/>
  <circle cx="450.93" cy="299.93" r="2.5" fill="#2563eb"/>
  <circle cx="453.05" cy="300.01" r="2.5" fill="#2563eb"/>
  <circle cx="455.16" cy="300.01" r="2.5" fill="#2563eb"/>
  <circle cx="457.28" cy="299.89" r="2.5" fill="#2563eb"/>
  <circle cx="459.40" cy="299.97" r="2.5" fill="#2563eb"/>
  <circle cx="461.51" cy="250.03" r="2.5" fill="#2563eb"/>
  <circle cx="463.63" cy="299.93" r="2.5" fill="#2563eb"/>
  <circle cx="465.74" cy="299.89" r="2.5" fill="#2563eb"/>
  <circle cx="467.86" cy="299.97" r="2.5" fill="#2563eb"/>
  <circle cx="469.98" cy="249.94" r="2.5" fill="#2563eb"/>
  <circle cx="472.09" cy="300.01" r="2.5" fill="#2563eb"/>
  <circle cx="474.21" cy="300.01" r="2.5" fill="#2563eb"/>
  <circle cx="476.33" cy="299.97" r="2.5" fill="#2563eb"/>
  <circle cx="478.44" cy="249.99" r="2.5" fill="#2563eb"/>
  <circle cx="480.56" cy="299.97" r="2.5" fill="#2563eb"/>
  <circle cx="482.67" cy="299.97" r="2.5" fill="#2563eb"/>
  <circle cx="484.79" cy="300.06" r="2.5" fill="#2563eb"/>
  <circle cx="486.91" cy="300.06" r="2.5" fill="#2563eb"/>
  <circle cx="489.02" cy="299.93" r="2.5" fill="#2563eb"/>
  <circle cx="491.14" cy="300.01" r="2.5" fill="#2563eb"/>
  <circle cx="493.26" cy="300.01" r="2.5" fill="#2563eb"/>
  <circle cx="495.37" cy="299.93" r="2.5" fill="#2563eb"/>
  <circle cx="497.49" cy="300.01" r="2.5" fill="#2563eb"/>
  <circle cx="499.60" cy="300.01" r="2.5" fill="#2563eb"/>
  <circle cx="501.72" cy="299.97" r="2.5" fill="#2563eb"/>
  <circle cx="503.84" cy="300.01" r="2.5" fill="#2563eb"/>
  <circle cx="505.95" cy="300.01" r="2.5" fill="#2563eb"/>
  <circle cx="508.07" cy="300.01" r="2.5" fill="#2563eb"/>
  <circle cx="510.19" cy="300.01" r="2.5" fill="#2563eb"/>
  <circle cx="512.30" cy="249.86" r="2.5" fill="#2563eb"/>
  <circle cx="514.42" cy="300.01" r="2.5" fill="#2563eb"/>
  <circle cx="516.53" cy="300.10" r="2.5" fill="#2563eb"/>
  <circle cx="518.65" cy="299.93" r="2.5" fill="#2563eb"/>
  <circle cx="520.77" cy="300.01" r="2.5" fill="#2563eb"/>
  <circle cx="522.88" cy="299.93" r="2.5" fill="#2563eb"/>
  <circle cx="525.00" cy="300.01" r="2.5" fill="#2563eb"/>
  <circle cx="527.12" cy="300.01" r="2.5" fill="#2563eb"/>
  <circle cx="529.23" cy="300.01" r="2.5" fill="#2563eb"/>
  <circle cx="531.35" cy="300.01" r="2.5" fill="#2563eb"/>
  <circle cx="533.47" cy="300.01" r="2.5" fill="#2563eb"/>
  <circle cx="535.58" cy="299.97" r="2.5" fill="#2563eb"/>
  <circle cx="537.70" cy="300.01" r="2.5" fill="#2563eb"/>
  <circle cx="539.81" cy="300.01" r="2.5" fill="#2563eb"/>
  <circle cx="541.93" cy="300.01" r="2.5" fill="#2563eb"/>
  <circle cx="544.05" cy="300.01" r="2.5" fill="#2563eb"/>
  <circle cx="546.16" cy="250.03" r="2.5" fill="#2563eb"/>
  <circle cx="548.28" cy="300.01" r="2.5" fill="#2563eb"/>
  <circle cx="550.40" cy="300.01" r="2.5" fill="#2563eb"/>
  <circle cx="552.51" cy="299.97" r="2.5" fill="#2563eb"/>
  <circle cx="554.63" cy="300.01" r="2.5" fill="#2563eb"/>
  <circle cx="556.74" cy="300.01" r="2.5" fill="#2563eb"/>
  <circle cx="558.86" cy="299.97" r="2.5" fill="#2563eb"/>
  <circle cx="560.98" cy="299.97" r="2.5" fill="#2563eb"/>
  <circle cx="563.09" cy="300.01" r="2.5" fill="#2563eb"/>
  <circle cx="565.21" cy="299.97" r="2.5" fill="#2563eb"/>
  <circle cx="567.33" cy="300.01" r="2.5" fill="#2563eb"/>
  <circle cx="569.44" cy="299.93" r="2.5" fill="#2563eb"/>
  <circle cx="571.56" cy="300.01" r="2.5" fill="#2563eb"/>
  <circle cx="573.67" cy="250.03" r="2.5" fill="#2563eb"/>
  <circle cx="575.79" cy="300.01" r="2.5" fill="#2563eb"/>
  <circle cx="577.91" cy="300.01" r="2.5" fill="#2563eb"/>
  <circle cx="580.02" cy="300.01" r="2.5" fill="#2563eb"/>
  <circle cx="582.14" cy="300.01" r="2.5" fill="#2563eb"/>
  <circle cx="584.26" cy="300.01" r="2.5" fill="#2563eb"/>
  <circle cx="586.37" cy="299.89" r="2.5" fill="#2563eb"/>
  <circle cx="588.49" cy="300.01" r="2.5" fill="#2563eb"/>
  <circle cx="590.60" cy="300.01" r="2.5" fill="#2563eb"/>
  <circle cx="592.72" cy="250.07" r="2.5" fill="#2563eb"/>
  <circle cx="594.84" cy="300.01" r="2.5" fill="#2563eb"/>
  <circle cx="596.95" cy="299.93" r="2.5" fill="#2563eb"/>
  <circle cx="599.07" cy="300.01" r="2.5" fill="#2563eb"/>
  <circle cx="601.19" cy="299.97" r="2.5" fill="#2563eb"/>
  <circle cx="603.30" cy="299.97" r="2.5" fill="#2563eb"/>
  <circle cx="605.42" cy="299.97" r="2.5" fill="#2563eb"/>
  <circle cx="607.53" cy="250.03" r="2.5" fill="#2563eb"/>
  <circle cx="609.65" cy="300.01" r="2.5" fill="#2563eb"/>
  <circle cx="611.77" cy="300.01" r="2.5" fill="#2563eb"/>
  <circle cx="613.88" cy="300.01" r="2.5" fill="#2563eb"/>
  <circle cx="616.00" cy="300.01" r="2.5" fill="#2563eb"/>
  <circle cx="618.12" cy="299.97" r="2.5" fill="#2563eb"/>
  <circle cx="620.23" cy="300.01" r="2.5" fill="#2563eb"/>
  <circle cx="622.35" cy="299.97" r="2.5" fill="#2563eb"/>
  <circle cx="624.47" cy="300.01" r="2.5" fill="#2563eb"/>
  <circle cx="626.58" cy="299.97" r="2.5" fill="#2563eb"/>
  <circle cx="628.70" cy="249.90" r="2.5" fill="#2563eb"/>
  <circle cx="630.81" cy="300.01" r="2.5" fill="#2563eb"/>
  <circle cx="632.93" cy="300.01" r="2.5" fill="#2563eb"/>
  <circle cx="635.05" cy="299.89" r="2.5" fill="#2563eb"/>
  <circle cx="637.16" cy="299.97" r="2.5" fill="#2563eb"/>
  <circle cx="639.28" cy="299.97" r="2.5" fill="#2563eb"/>
  <circle cx="641.40" cy="249.99" r="2.5" fill="#2563eb"/>
  <circle cx="643.51" cy="299.97" r="2.5" fill="#2563eb"/>
  <circle cx="645.63" cy="299.89" r="2.5" fill="#2563eb"/>
  <circle cx="647.74" cy="300.01" r="2.5" fill="#2563eb"/>
  <circle cx="649.86" cy="299.97" r="2.5" fill="#2563eb"/>
  <circle cx="651.98" cy="299.97" r="2.5" fill="#2563eb"/>
  <circle cx="654.09" cy="300.01" r="2.5" fill="#2563eb"/>
  <circle cx="656.21" cy="299.97" r="2.5" fill="#2563eb"/>
  <circle cx="658.33" cy="249.99" r="2.5" fill="#2563eb"/>
  <circle cx="660.44" cy="299.97" r="2.5" fill="#2563eb"/>
  <circle cx="662.56" cy="299.97" r="2.5" fill="#2563eb"/>
  <circle cx="664.67" cy="300.06" r="2.5" fill="#2563eb"/>
  <circle cx="666.79" cy="300.06" r="2.5" fill="#2563eb"/>
  <circle cx="668.91" cy="249.94" r="2.5" fill="#2563eb"/>
  <circle cx="671.02" cy="300.01" r="2.5" fill="#2563eb"/>
  <circle cx="673.14" cy="299.93" r="2.5" fill="#2563eb"/>
  <circle cx="675.26" cy="300.01" r="2.5" fill="#2563eb"/>
  <circle cx="677.37" cy="300.01" r="2.5" fill="#2563eb"/>
  <circle cx="679.49" cy="249.99" r="2.5" fill="#2563eb"/>
  <circle cx="681.60" cy="300.01" r="2.5" fill="#2563eb"/>
  <circle cx="683.72" cy="300.01" r="2.5" fill="#2563eb"/>
  <circle cx="685.84" cy="300.01" r="2.5" fill="#2563eb"/>
  <circle cx="687.95" cy="299.93" r="2.5" fill="#2563eb"/>
  <circle cx="690.07" cy="299.93" r="2.5" fill="#2563eb"/>
  <circle cx="692.19" cy="300.01" r="2.5" fill="#2563eb"/>
  <circle cx="694.30" cy="300.01" r="2.5" fill="#2563eb"/>
  <circle cx="696.42" cy="249.94" r="2.5" fill="#2563eb"/>
  <circle cx="698.53" cy="299.97" r="2.5" fill="#2563eb"/>
  <circle cx="700.65" cy="299.97" r="2.5" fill="#2563eb"/>
  <circle cx="702.77" cy="300.01" r="2.5" fill="#2563eb"/>
  <circle cx="704.88" cy="300.01" r="2.5" fill="#2563eb"/>
  <circle cx="707.00" cy="300.01" r="2.5" fill="#2563eb"/>
  <circle cx="709.12" cy="249.99" r="2.5" fill="#2563eb"/>
  <circle cx="711.23" cy="300.01" r="2.5" fill="#2563eb"/>
  <circle cx="713.35" cy="300.01" r="2.5" fill="#2563eb"/>
  <circle cx="715.47" cy="300.01" r="2.5" fill="#2563eb"/>
  <circle cx="717.58" cy="250.03" r="2.5" fill="#2563eb"/>
  <circle cx="719.70" cy="300.01" r="2.5" fill="#2563eb"/>
  <circle cx="721.81" cy="300.01" r="2.5" fill="#2563eb"/>
  <circle cx="723.93" cy="300.01" r="2.5" fill="#2563eb"/>
  <circle cx="726.05" cy="299.97" r="2.5" fill="#2563eb"/>
  <circle cx="728.16" cy="300.01" r="2.5" fill="#2563eb"/>
  <circle cx="730.28" cy="300.01" r="2.5" fill="#2563eb"/>
  <circle cx="732.40" cy="299.97" r="2.5" fill="#2563eb"/>
  <circle cx="734.51" cy="299.97" r="2.5" fill="#2563eb"/>
  <circle cx="736.63" cy="300.01" r="2.5" fill="#2563eb"/>
  <circle cx="738.74" cy="300.01" r="2.5" fill="#2563eb"/>
  <circle cx="740.86" cy="299.97" r="2.5" fill="#2563eb"/>
  <circle cx="742.98" cy="299.93" r="2.5" fill="#2563eb"/>
  <circle cx="745.09" cy="300.01" r="2.5" fill="#2563eb"/>
  <circle cx="747.21" cy="300.06" r="2.5" fill="#2563eb"/>
  <circle cx="749.33" cy="299.97" r="2.5" fill="#2563eb"/>
  <circle cx="751.44" cy="300.01" r="2.5" fill="#2563eb"/>
  <circle cx="753.56" cy="250.03" r="2.5" fill="#2563eb"/>
  <circle cx="755.67" cy="250.03" r="2.5" fill="#2563eb"/>
  <circle cx="757.79" cy="299.93" r="2.5" fill="#2563eb"/>
  <circle cx="759.91" cy="299.97" r="2.5" fill="#2563eb"/>
  <circle cx="762.02" cy="300.01" r="2.5" fill="#2563eb"/>
  <circle cx="764.14" cy="300.01" r="2.5" fill="#2563eb"/>
  <circle cx="766.26" cy="300.06" r="2.5" fill="#2563eb"/>
  <circle cx="768.37" cy="300.01" r="2.5" fill="#2563eb"/>
  <circle cx="770.49" cy="299.93" r="2.5" fill="#2563eb"/>
  <circle cx="772.60" cy="300.01" r="2.5" fill="#2563eb"/>
  <circle cx="774.72" cy="300.01" r="2.5" fill="#2563eb"/>
  <circle cx="776.84" cy="299.97" r="2.5" fill="#2563eb"/>
  <circle cx="778.95" cy="299.97" r="2.5" fill="#2563eb"/>
  <circle cx="781.07" cy="300.01" r="2.5" fill="#2563eb"/>
  <circle cx="783.19" cy="250.03" r="2.5" fill="#2563eb"/>
  <circle cx="785.30" cy="300.01" r="2.5" fill="#2563eb"/>
  <circle cx="787.42" cy="300.01" r="2.5" fill="#2563eb"/>
  <circle cx="789.53" cy="300.01" r="2.5" fill="#2563eb"/>
  <circle cx="791.65" cy="299.97" r="2.5" fill="#2563eb"/>
  <circle cx="793.77" cy="300.01" r="2.5" fill="#2563eb"/>
  <circle cx="795.88" cy="299.97" r="2.5" fill="#2563eb"/>
  <circle cx="798.00" cy="300.01" r="2.5" fill="#2563eb"/>
  <circle cx="800.12" cy="299.97" r="2.5" fill="#2563eb"/>
  <circle cx="802.23" cy="299.97" r="2.5" fill="#2563eb"/>
  <circle cx="804.35" cy="299.93" r="2.5" fill="#2563eb"/>
  <circle cx="806.47" cy="300.01" r="2.5" fill="#2563eb"/>
  <circle cx="808.58" cy="300.01" r="2.5" fill="#2563eb"/>
  <circle cx="810.70" cy="299.89" r="2.5" fill="#2563eb"/>
  <circle cx="812.81" cy="299.97" r="2.5" fill="#2563eb"/>
  <circle cx="814.93" cy="299.97" r="2.5" fill="#2563eb"/>
  <circle cx="817.05" cy="300.06" r="2.5" fill="#2563eb"/>
  <circle cx="819.16" cy="249.90" r="2.5" fill="#2563eb"/>
  <circle cx="821.28" cy="299.89" r="2.5" fill="#2563eb"/>
  <circle cx="823.40" cy="300.01" r="2.5" fill="#2563eb"/>
  <circle cx="825.51" cy="299.97" r="2.5" fill="#2563eb"/>
  <circle cx="827.63" cy="299.97" r="2.5" fill="#2563eb"/>
  <circle cx="829.74" cy="299.97" r="2.5" fill="#2563eb"/>
  <circle cx="831.86" cy="300.01" r="2.5" fill="#2563eb"/>
  <circle cx="833.98" cy="300.01" r="2.5" fill="#2563eb"/>
  <circle cx="836.09" cy="299.97" r="2.5" fill="#2563eb"/>
  <circle cx="838.21" cy="299.97" r="2.5" fill="#2563eb"/>
  <circle cx="840.33" cy="299.97" r="2.5" fill="#2563eb"/>
  <circle cx="842.44" cy="250.03" r="2.5" fill="#2563eb"/>
  <circle cx="844.56" cy="299.93" r="2.5" fill="#2563eb"/>
  <circle cx="846.67" cy="300.01" r="2.5" fill="#2563eb"/>
  <circle cx="848.79" cy="300.01" r="2.5" fill="#2563eb"/>
  <circle cx="850.91" cy="299.93" r="2.5" fill="#2563eb"/>
  <circle cx="853.02" cy="300.01" r="2.5" fill="#2563eb"/>
  <circle cx="855.14" cy="300.01" r="2.5" fill="#2563eb"/>
  <circle cx="857.26" cy="299.97" r="2.5" fill="#2563eb"/>
  <circle cx="859.37" cy="300.01" r="2.5" fill="#2563eb"/>
  <circle cx="861.49" cy="300.01" r="2.5" fill="#2563eb"/>
  <circle cx="863.60" cy="300.06" r="2.5" fill="#2563eb"/>
  <circle cx="865.72" cy="300.01" r="2.5" fill="#2563eb"/>
  <circle cx="867.84" cy="299.97" r="2.5" fill="#2563eb"/>
  <circle cx="869.95" cy="299.89" r="2.5" fill="#2563eb"/>
  <circle cx="872.07" cy="300.01" r="2.5" fill="#2563eb"/>
  <circle cx="874.19" cy="300.01" r="2.5" fill="#2563eb"/>
  <circle cx="876.30" cy="249.94" r="2.5" fill="#2563eb"/>
  <circle cx="878.42" cy="249.94" r="2.5" fill="#2563eb"/>
  <circle cx="880.53" cy="300.01" r="2.5" fill="#2563eb"/>
  <circle cx="882.65" cy="300.01" r="2.5" fill="#2563eb"/>
  <circle cx="884.77" cy="300.01" r="2.5" fill="#2563eb"/>
  <circle cx="886.88" cy="300.01" r="2.5" fill="#2563eb"/>
  <circle cx="889.00" cy="299.97" r="2.5" fill="#2563eb"/>
  <circle cx="891.12" cy="250.03" r="2.5" fill="#2563eb"/>
  <circle cx="893.23" cy="300.01" r="2.5" fill="#2563eb"/>
  <circle cx="895.35" cy="300.01" r="2.5" fill="#2563eb"/>
  <circle cx="897.47" cy="300.01" r="2.5" fill="#2563eb"/>
  <circle cx="899.58" cy="300.01" r="2.5" fill="#2563eb"/>
  <circle cx="901.70" cy="250.03" r="2.5" fill="#2563eb"/>
  <circle cx="903.81" cy="249.99" r="2.5" fill="#2563eb"/>
  <circle cx="905.93" cy="300.01" r="2.5" fill="#2563eb"/>
  <circle cx="908.05" cy="299.97" r="2.5" fill="#2563eb"/>
  <circle cx="910.16" cy="300.01" r="2.5" fill="#2563eb"/>
  <circle cx="912.28" cy="299.97" r="2.5" fill="#2563eb"/>
  <circle cx="914.40" cy="300.01" r="2.5" fill="#2563eb"/>
  <circle cx="916.51" cy="299.97" r="2.5" fill="#2563eb"/>
  <circle cx="918.63" cy="299.97" r="2.5" fill="#2563eb"/>
  <circle cx="920.74" cy="299.97" r="2.5" fill="#2563eb"/>
  <circle cx="922.86" cy="300.06" r="2.5" fill="#2563eb"/>
  <circle cx="924.98" cy="249.99" r="2.5" fill="#2563eb"/>
  <circle cx="927.09" cy="300.01" r="2.5" fill="#2563eb"/>
  <circle cx="929.21" cy="250.03" r="2.5" fill="#2563eb"/>
  <circle cx="931.33" cy="249.94" r="2.5" fill="#2563eb"/>
  <circle cx="933.44" cy="249.99" r="2.5" fill="#2563eb"/>
  <circle cx="935.56" cy="300.01" r="2.5" fill="#2563eb"/>
  <circle cx="937.67" cy="300.06" r="2.5" fill="#2563eb"/>
  <circle cx="939.79" cy="300.01" r="2.5" fill="#2563eb"/>
  <circle cx="941.91" cy="299.97" r="2.5" fill="#2563eb"/>
  <circle cx="944.02" cy="299.97" r="2.5" fill="#2563eb"/>
  <circle cx="946.14" cy="300.01" r="2.5" fill="#2563eb"/>
  <circle cx="948.26" cy="299.93" r="2.5" fill="#2563eb"/>
  <circle cx="950.37" cy="299.89" r="2.5" fill="#2563eb"/>
  <circle cx="952.49" cy="299.89" r="2.5" fill="#2563eb"/>
  <circle cx="954.60" cy="299.89" r="2.5" fill="#2563eb"/>
  <circle cx="956.72" cy="299.89" r="2.5" fill="#2563eb"/>
  <circle cx="958.84" cy="299.85" r="2.5" fill="#2563eb"/>
  <circle cx="960.95" cy="299.85" r="2.5" fill="#2563eb"/>
  <circle cx="963.07" cy="299.89" r="2.5" fill="#2563eb"/>
  <circle cx="965.19" cy="299.81" r="2.5" fill="#2563eb"/>
  <circle cx="967.30" cy="299.81" r="2.5" fill="#2563eb"/>
  <circle cx="969.42" cy="299.81" r="2.5" fill="#2563eb"/>
  <circle cx="971.53" cy="299.76" r="2.5" fill="#2563eb"/>
  <circle cx="973.65" cy="299.76" r="2.5" fill="#2563eb"/>
  <circle cx="975.77" cy="299.76" r="2.5" fill="#2563eb"/>
  <circle cx="977.88" cy="299.72" r="2.5" fill="#2563eb"/>
  <circle cx="980.00" cy="299.68" r="2.5" fill="#2563eb"/>
</svg>
