<?xml version="1.0" encoding="UTF-8"?>
<svg xmlns="http://www.w3.org/2000/svg" width="1000" height="420" viewBox="0 0 1000 420">
  <rect width="100%" height="100%" fill="#ffffff"/>
  <text x="70" y="28" font-size="20" font-weight="600">수집 시점 기준 - 시간별 스냅샷</text>
  <text x="70" y="402" font-size="12" fill="#555">스냅샷 수</text>
  <line x1="70" y1="350.00" x2="980" y2="350.00" stroke="#e5e7eb" stroke-width="1"/>
  <text x="62" y="354.00" font-size="11" fill="#6b7280" text-anchor="end">0</text>
  <line x1="70" y1="290.00" x2="980" y2="290.00" stroke="#e5e7eb" stroke-width="1"/>
  <text x="62" y="294.00" font-size="11" fill="#6b7280" text-anchor="end">1,440</text>
  <line x1="70" y1="230.00" x2="980" y2="230.00" stroke="#e5e7eb" stroke-width="1"/>
  <text x="62" y="234.00" font-size="11" fill="#6b7280" text-anchor="end">2,880</text>
  <line x1="70" y1="170.00" x2="980" y2="170.00" stroke="#e5e7eb" stroke-width="1"/>
  <text x="62" y="174.00" font-size="11" fill="#6b7280" text-anchor="end">4,321</text>
  <line x1="70" y1="110.00" x2="980" y2="110.00" stroke="#e5e7eb" stroke-width="1"/>
  <text x="62" y="114.00" font-size="11" fill="#6b7280" text-anchor="end">5,761</text>
  <line x1="70" y1="50.00" x2="980" y2="50.00" stroke="#e5e7eb" stroke-width="1"/>
  <text x="62" y="54.00" font-size="11" fill="#6b7280" text-anchor="end">7,202</text>
  <line x1="70" y1="350" x2="980" y2="350" stroke="#111827" stroke-width="1.2"/>
  <line x1="70" y1="50" x2="70" y2="350" stroke="#111827" stroke-width="1.2"/>
  <line x1="70.00" y1="350" x2="70.00" y2="356" stroke="#9ca3af" stroke-width="1"/>
  <text x="70.00" y="372" font-size="10" fill="#6b7280" text-anchor="middle">2026-02-28 18</text>
  <line x1="145.31" y1="350" x2="145.31" y2="356" stroke="#9ca3af" stroke-width="1"/>
  <text x="145.31" y="372" font-size="10" fill="#6b7280" text-anchor="middle">2026-03-09 17</text>
  <line x1="220.62" y1="350" x2="220.62" y2="356" stroke="#9ca3af" stroke-width="1"/>
  <text x="220.62" y="372" font-size="10" fill="#6b7280" text-anchor="middle">2026-03-12 10</text>
  <line x1="295.93" y1="350" x2="295.93" y2="356" stroke="#9ca3af" stroke-width="1"/>
  <text x="295.93" y="372" font-size="10" fill="#6b7280" text-anchor="middle">2026-03-15 08</text>
  <line x1="371.24" y1="350" x2="371.24" y2="356" stroke="#9ca3af" stroke-width="1"/>
  <text x="371.24" y="372" font-size="10" fill="#6b7280" text-anchor="middle">2026-03-19 08</text>
  <line x1="446.55" y1="350" x2="446.55" y2="356" stroke="#9ca3af" stroke-width="1"/>
  <text x="446.55" y="372" font-size="10" fill="#6b7280" text-anchor="middle">2026-03-22 20</text>
  <line x1="521.86" y1="350" x2="521.86" y2="356" stroke="#9ca3af" stroke-width="1"/>
  <text x="521.86" y="372" font-size="10" fill="#6b7280" text-anchor="middle">2026-03-26 21</text>
  <line x1="597.17" y1="350" x2="597.17" y2="356" stroke="#9ca3af" stroke-width="1"/>
  <text x="597.17" y="372" font-size="10" fill="#6b7280" text-anchor="middle">2026-03-31 00</text>
  <line x1="672.48" y1="350" x2="672.48" y2="356" stroke="#9ca3af" stroke-width="1"/>
  <text x="672.48" y="372" font-size="10" fill="#6b7280" text-anchor="middle">2026-04-04 02</text>
  <line x1="747.79" y1="350" x2="747.79" y2="356" stroke="#9ca3af" stroke-width="1"/>
  <text x="747.79" y="372" font-size="10" fill="#6b7280" text-anchor="middle">2026-04-08 05</text>
  <line x1="823.10" y1="350" x2="823.10" y2="356" stroke="#9ca3af" stroke-width="1"/>
  <text x="823.10" y="372" font-size="10" fill="#6b7280" text-anchor="middle">2026-04-12 08</text>
  <line x1="898.41" y1="350" x2="898.41" y2="356" stroke="#9ca3af" stroke-width="1"/>
  <text x="898.41" y="372" font-size="10" fill="#6b7280" text-anchor="middle">2026-04-17 01</text>
  <line x1="973.72" y1="350" x2="973.72" y2="356" stroke="#9ca3af" stroke-width="1"/>
  <text x="973.72" y="372" font-size="10" fill="#6b7280" text-anchor="middle">2026-04-21 01</text>
  <line x1="980.00" y1="350" x2="980.00" y2="356" stroke="#9ca3af" stroke-width="1"/>
  <text x="980.00" y="372" font-size="10" fill="#6b7280" text-anchor="middle">2026-04-21 08</text>
  <polyline fill="none" stroke="#2563eb" stroke-width="2.5" points="70.00,50.00 71.26,50.12 72.51,50.17 73.77,50.46 75.02,50.00 76.28,266.90 77.53,50.12 78.79,50.08 80.04,177.46 81.30,211.58 82.55,175.34 83.81,304.14 85.06,200.46 86.32,250.94 87.57,300.01 88.83,300.06 90.08,300.01 91.34,300.01 92.59,348.00 93.85,300.01 95.10,249.99 96.36,200.00 97.61,249.99 98.87,249.99 100.12,250.03 101.38,250.03 102.63,250.03 103.89,250.40 105.14,250.90 106.40,250.90 107.66,251.32 108.91,249.94 110.17,300.01 111.42,299.93 112.68,251.03 113.93,300.68 115.19,250.03 116.44,200.00 117.70,249.99 118.95,250.03 120.21,250.03 121.46,250.03 122.72,300.01 123.97,200.04 125.23,250.03 126.48,250.03 127.74,250.03 128.99,249.90 130.25,250.03 131.50,250.03 132.76,250.94 134.01,250.44 135.27,250.03 136.52,250.03 137.78,300.47 139.03,300.01 140.29,300.43 141.54,250.03 142.80,249.99 144.06,300.43 145.31,249.90 146.57,249.99 147.82,249.99 149.08,200.04 150.33,300.01 151.59,300.01 152.84,300.01 154.10,249.90 155.35,300.01 156.61,250.03 157.86,249.99 159.12,199.96 160.37,300.01 161.63,200.00 162.88,250.36 164.14,250.03 165.39,300.01 166.65,300.01 167.90,250.44 169.16,300.01 170.41,250.03 171.67,250.03 172.92,249.99 174.18,250.49 175.43,250.03 176.69,200.04 177.94,300.01 179.20,250.03 180.46,300.01 181.71,250.11 182.97,300.01 184.22,250.03 185.48,250.03 186.73,199.92 187.99,250.03 189.24,250.03 190.50,250.03 191.75,254.36 193.01,300.01 194.26,299.97 195.52,250.36 196.77,299.97 198.03,250.03 199.28,250.03 200.54,250.03 201.79,250.03 203.05,249.99 204.30,200.00 205.56,299.93 206.81,300.01 208.07,299.97 209.32,249.94 210.58,249.99 211.83,249.82 213.09,249.94 214.34,250.28 215.60,207.00 216.86,250.03 218.11,250.32 219.37,250.40 220.62,300.93 221.88,300.01 223.13,300.10 224.39,249.94 225.64,249.99 226.90,250.07 228.15,249.99 229.41,250.03 230.66,249.94 231.92,200.00 233.17,300.39 234.43,300.01 235.68,300.01 236.94,250.44 238.19,300.39 239.45,249.86 240.70,250.11 241.96,201.46 243.21,300.01 244.47,200.83 245.72,250.03 246.98,249.99 248.23,300.26 249.49,300.01 250.74,300.01 252.00,250.03 253.26,250.03 254.51,250.03 255.77,250.03 257.02,249.99 258.28,250.03 259.53,200.00 260.79,300.26 262.04,249.99 263.30,300.01 264.55,249.94 265.81,250.03 267.06,250.03 268.32,250.03 269.57,200.04 270.83,300.01 272.08,249.90 273.34,300.01 274.59,300.01 275.85,300.06 277.10,300.01 278.36,300.01 279.61,243.95 280.87,249.94 282.12,299.97 283.38,300.01 284.63,300.01 285.89,250.03 287.14,300.01 288.40,300.01 289.66,299.97 290.91,249.99 292.17,300.01 293.42,299.93 294.68,300.01 295.93,299.93 297.19,300.01 298.44,300.01 299.70,299.89 300.95,299.97 302.21,250.03 303.46,299.93 304.72,299.89 305.97,299.97 307.23,249.94 308.48,300.01 309.74,300.01 310.99,299.97 312.25,249.99 313.50,299.97 314.76,299.97 316.01,300.06 317.27,300.06 318.52,299.93 319.78,300.01 321.03,300.01 322.29,299.93 323.54,300.01 324.80,300.01 326.06,299.97 327.31,300.01 328.57,300.01 329.82,300.01 331.08,300.01 332.33,249.86 333.59,300.01 334.84,300.10 336.10,299.93 337.35,300.01 338.61,299.93 339.86,300.01 341.12,300.01 342.37,300.01 343.63,300.01 344.88,300.01 346.14,299.97 347.39,300.01 348.65,300.01 349.90,300.01 351.16,300.01 352.41,250.03 353.67,300.01 354.92,300.01 356.18,299.97 357.43,300.01 358.69,300.01 359.94,299.97 361.20,299.97 362.46,300.01 363.71,299.97 364.97,300.01 366.22,299.93 367.48,300.01 368.73,250.03 369.99,300.01 371.24,300.01 372.50,300.01 373.75,300.01 375.01,300.01 376.26,299.89 377.52,300.01 378.77,300.01 380.03,250.07 381.28,300.01 382.54,299.93 383.79,300.01 385.05,299.97 386.30,299.97 387.56,299.97 388.81,250.03 390.07,300.01 391.32,300.01 392.58,300.01 393.83,300.01 395.09,299.97 396.34,300.01 397.60,299.97 398.86,300.01 400.11,299.97 401.37,249.90 402.62,300.01 403.88,300.01 405.13,299.89 406.39,299.97 407.64,299.97 408.90,249.99 410.15,299.97 411.41,299.89 412.66,300.01 413.92,299.97 415.17,299.97 416.43,300.01 417.68,299.97 418.94,249.99 420.19,299.97 421.45,299.97 422.70,300.06 423.96,300.06 425.21,249.94 426.47,300.01 427.72,299.93 428.98,300.01 430.23,300.01 431.49,249.99 432.74,300.01 434.00,300.01 435.26,300.01 436.51,299.93 437.77,299.93 439.02,300.01 440.28,300.01 441.53,249.94 442.79,299.97 444.04,299.97 445.30,300.01 446.55,300.01 447.81,300.01 449.06,249.99 450.32,300.01 451.57,300.01 452.83,300.01 454.08,250.03 455.34,300.01 456.59,300.01 457.85,300.01 459.10,299.97 460.36,300.01 461.61,300.01 462.87,299.97 464.12,299.97 465.38,300.01 466.63,300.01 467.89,299.97 469.14,299.93 470.40,300.01 471.66,300.06 472.91,299.97 474.17,300.01 475.42,250.03 476.68,250.03 477.93,299.93 479.19,299.97 480.44,300.01 481.70,300.01 482.95,300.06 484.21,300.01 485.46,299.93 486.72,300.01 487.97,300.01 489.23,299.97 490.48,299.97 491.74,300.01 492.99,250.03 494.25,300.01 495.50,300.01 496.76,300.01 498.01,299.97 499.27,300.01 500.52,299.97 501.78,300.01 503.03,299.97 504.29,299.97 505.54,299.93 506.80,300.01 508.06,300.01 509.31,299.89 510.57,299.97 511.82,299.97 513.08,300.06 514.33,249.90 515.59,299.89 516.84,300.01 518.10,299.97 519.35,299.97 520.61,299.97 521.86,300.01 523.12,300.01 524.37,299.97 525.63,299.97 526.88,299.97 528.14,250.03 529.39,299.93 530.65,300.01 531.90,300.01 533.16,299.93 534.41,300.01 535.67,300.01 536.92,299.97 538.18,300.01 539.43,300.01 540.69,300.06 541.94,300.01 543.20,299.97 544.46,299.89 545.71,300.01 546.97,300.01 548.22,249.94 549.48,249.94 550.73,300.01 551.99,300.01 553.24,300.01 554.50,300.01 555.75,299.97 557.01,250.03 558.26,300.01 559.52,300.01 560.77,300.01 562.03,300.01 563.28,250.03 564.54,249.99 565.79,300.01 567.05,299.97 568.30,300.01 569.56,299.97 570.81,300.01 572.07,299.97 573.32,299.97 574.58,299.97 575.83,300.06 577.09,249.99 578.34,300.01 579.60,250.03 580.86,249.94 582.11,249.99 583.37,300.01 584.62,300.06 585.88,300.01 587.13,299.97 588.39,299.97 589.64,300.01 590.90,299.93 592.15,299.89 593.41,299.89 594.66,299.89 595.92,299.89 597.17,299.85 598.43,299.85 599.68,299.89 600.94,299.81 602.19,299.81 603.45,299.81 604.70,299.76 605.96,299.76 607.21,299.76 608.47,299.72 609.72,299.68 610.98,299.60 612.23,299.60 613.49,299.60 614.74,299.56 616.00,299.47 617.26,299.43 618.51,299.43 619.77,299.39 621.02,299.47 622.28,259.82 623.53,338.96 624.79,299.31 626.04,299.31 627.30,299.26 628.55,299.68 629.81,299.68 631.06,299.68 632.32,299.64 633.57,299.14 634.83,299.14 636.08,299.10 637.34,299.10 638.59,299.10 639.85,248.07 641.10,299.06 642.36,299.06 643.61,299.06 644.87,299.06 646.12,299.06 647.38,298.97 648.63,298.97 649.89,298.93 651.14,298.97 652.40,298.93 653.66,298.89 654.91,298.89 656.17,298.89 657.42,298.89 658.68,247.78 659.93,298.89 661.19,298.89 662.44,298.85 663.70,298.85 664.95,298.81 666.21,298.81 667.46,298.81 668.72,298.81 669.97,298.81 671.23,298.81 672.48,298.81 673.74,298.81 674.99,298.81 676.25,298.72 677.50,247.45 678.76,247.45 680.01,298.72 681.27,298.72 682.52,298.72 683.78,298.72 685.03,298.72 686.29,298.72 687.54,247.36 688.80,298.68 690.06,247.36 691.31,247.36 692.57,247.36 693.82,298.68 695.08,298.68 696.33,298.68 697.59,298.68 698.84,298.68 700.10,341.67 701.35,307.01 702.61,298.68 703.86,298.68 705.12,298.68 706.37,247.36 707.63,298.64 708.88,247.36 710.14,247.28 711.39,247.20 712.65,298.60 713.90,298.60 715.16,247.03 716.41,298.51 717.67,298.51 718.92,298.51 720.18,298.51 721.43,298.51 722.69,298.51 723.94,298.51 725.20,298.51 726.46,298.51 727.71,298.51 728.97,298.51 730.22,298.51 731.48,298.51 732.73,298.51 733.99,298.51 735.24,298.51 736.50,298.51 737.75,298.51 739.01,298.51 740.26,298.51 741.52,298.51 742.77,298.51 744.03,298.51 745.28,298.51 746.54,298.51 747.79,298.51 749.05,298.47 750.30,298.51 751.56,298.51 752.81,298.47 754.07,298.51 755.32,298.47 756.58,298.51 757.83,298.43 759.09,298.56 760.34,298.43 761.60,298.43 762.86,298.43 764.11,298.43 765.37,298.43 766.62,298.43 767.88,298.43 769.13,298.43 770.39,298.43 771.64,298.43 772.90,298.43 774.15,298.43 775.41,298.43 776.66,298.43 777.92,298.43 779.17,298.43 780.43,298.43 781.68,298.43 782.94,298.43 784.19,298.43 785.45,298.43 786.70,298.43 787.96,298.43 789.21,298.43 790.47,298.43 791.72,298.43 792.98,298.43 794.23,298.43 795.49,298.43 796.74,298.43 798.00,298.43 799.26,298.43 800.51,298.43 801.77,298.43 803.02,298.39 804.28,298.39 805.53,298.43 806.79,298.43 808.04,298.39 809.30,298.39 810.55,298.39 811.81,298.43 813.06,298.43 814.32,298.43 815.57,246.82 816.83,298.43 818.08,246.78 819.34,246.78 820.59,246.78 821.85,246.70 823.10,246.78 824.36,298.39 825.61,298.39 826.87,298.39 828.12,298.39 829.38,298.39 830.63,246.78 831.89,298.39 833.14,298.39 834.40,298.39 835.66,298.39 836.91,298.39 838.17,246.78 839.42,246.78 840.68,298.39 841.93,298.39 843.19,298.39 844.44,298.39 845.70,298.39 846.95,298.39 848.21,298.39 849.46,298.39 850.72,298.39 851.97,298.39 853.23,298.39 854.48,298.39 855.74,298.39 856.99,298.39 858.25,298.35 859.50,298.39 860.76,298.39 862.01,298.35 863.27,298.35 864.52,298.35 865.78,298.35 867.03,298.35 868.29,298.35 869.54,298.35 870.80,298.35 872.06,298.35 873.31,298.35 874.57,298.35 875.82,298.35 877.08,298.35 878.33,298.35 879.59,298.35 880.84,298.35 882.10,298.35 883.35,298.35 884.61,298.35 885.86,298.35 887.12,298.35 888.37,298.35 889.63,298.35 890.88,298.35 892.14,298.35 893.39,298.35 894.65,298.35 895.90,298.35 897.16,298.35 898.41,298.35 899.67,298.35 900.92,298.35 902.18,298.35 903.43,298.35 904.69,298.35 905.94,298.35 907.20,298.35 908.46,298.35 909.71,298.35 910.97,298.35 912.22,298.35 913.48,298.35 914.73,298.35 915.99,298.35 917.24,298.35 918.50,298.35 919.75,298.35 921.01,298.35 922.26,298.35 923.52,298.35 924.77,298.35 926.03,298.35 927.28,298.39 928.54,298.39 929.79,298.39 931.05,246.78 932.30,298.39 933.56,298.39 934.81,298.39 936.07,298.39 937.32,298.39 938.58,298.39 939.83,298.39 941.09,246.78 942.34,298.39 943.60,298.39 944.86,298.39 946.11,298.39 947.37,298.39 948.62,298.39 949.88,298.39 951.13,246.78 952.39,298.39 953.64,298.39 954.90,298.39 956.15,298.39 957.41,298.39 958.66,298.39 959.92,298.39 961.17,298.39 962.43,298.39 963.68,298.39 964.94,298.39 966.19,298.35 967.45,298.39 968.70,298.39 969.96,298.39 971.21,298.35 972.47,298.35 973.72,298.35 974.98,298.35 976.23,298.35 977.49,298.35 978.74,298.35 980.00,298.35"/>
  <circle cx="70.00" cy="50.00" r="2.5" fill="#2563eb"/>
  <circle cx="71.26" cy="50.12" r="2.5" fill="#2563eb"/>
  <circle cx="72.51" cy="50.17" r="2.5" fill="#2563eb"/>
  <circle cx="73.77" cy="50.46" r="2.5" fill="#2563eb"/>
  <circle cx="75.02" cy="50.00" r="2.5" fill="#2563eb"/>
  <circle cx="76.28" cy="266.90" r="2.5" fill="#2563eb"/>
  <circle cx="77.53" cy="50.12" r="2.5" fill="#2563eb"/>
  <circle cx="78.79" cy="50.08" r="2.5" fill="#2563eb"/>
  <circle cx="80.04" cy="177.46" r="2.5" fill="#2563eb"/>
  <circle cx="81.30" cy="211.58" r="2.5" fill="#2563eb"/>
  <circle cx="82.55" cy="175.34" r="2.5" fill="#2563eb"/>
  <circle cx="83.81" cy="304.14" r="2.5" fill="#2563eb"/>
  <circle cx="85.06" cy="200.46" r="2.5" fill="#2563eb"/>
  <circle cx="86.32" cy="250.94" r="2.5" fill="#2563eb"/>
  <circle cx="87.57" cy="300.01" r="2.5" fill="#2563eb"/>
  <circle cx="88.83" cy="300.06" r="2.5" fill="#2563eb"/>
  <circle cx="90.08" cy="300.01" r="2.5" fill="#2563eb"/>
  <circle cx="91.34" cy="300.01" r="2.5" fill="#2563eb"/>
  <circle cx="92.59" cy="348.00" r="2.5" fill="#2563eb"/>
  <circle cx="93.85" cy="300.01" r="2.5" fill="#2563eb"/>
  <circle cx="95.10" cy="249.99" r="2.5" fill="#2563eb"/>
  <circle cx="96.36" cy="200.00" r="2.5" fill="#2563eb"/>
  <circle cx="97.61" cy="249.99" r="2.5" fill="#2563eb"/>
  <circle cx="98.87" cy="249.99" r="2.5" fill="#2563eb"/>
  <circle cx="100.12" cy="250.03" r="2.5" fill="#2563eb"/>
  <circle cx="101.38" cy="250.03" r="2.5" fill="#2563eb"/>
  <circle cx="102.63" cy="250.03" r="2.5" fill="#2563eb"/>
  <circle cx="103.89" cy="250.40" r="2.5" fill="#2563eb"/>
  <circle cx="105.14" cy="250.90" r="2.5" fill="#2563eb"/>
  <circle cx="106.40" cy="250.90" r="2.5" fill="#2563eb"/>
  <circle cx="107.66" cy="251.32" r="2.5" fill="#2563eb"/>
  <circle cx="108.91" cy="249.94" r="2.5" fill="#2563eb"/>
  <circle cx="110.17" cy="300.01" r="2.5" fill="#2563eb"/>
  <circle cx="111.42" cy="299.93" r="2.5" fill="#2563eb"/>
  <circle cx="112.68" cy="251.03" r="2.5" fill="#2563eb"/>
  <circle cx="113.93" cy="300.68" r="2.5" fill="#2563eb"/>
  <circle cx="115.19" cy="250.03" r="2.5" fill="#2563eb"/>
  <circle cx="116.44" cy="200.00" r="2.5" fill="#2563eb"/>
  <circle cx="117.70" cy="249.99" r="2.5" fill="#2563eb"/>
  <circle cx="118.95" cy="250.03" r="2.5" fill="#2563eb"/>
  <circle cx="120.21" cy="250.03" r="2.5" fill="#2563eb"/>
  <circle cx="121.46" cy="250.03" r="2.5" fill="#2563eb"/>
  <circle cx="122.72" cy="300.01" r="2.5" fill="#2563eb"/>
  <circle cx="123.97" cy="200.04" r="2.5" fill="#2563eb"/>
  <circle cx="125.23" cy="250.03" r="2.5" fill="#2563eb"/>
  <circle cx="126.48" cy="250.03" r="2.5" fill="#2563eb"/>
  <circle cx="127.74" cy="250.03" r="2.5" fill="#2563eb"/>
  <circle cx="128.99" cy="249.90" r="2.5" fill="#2563eb"/>
  <circle cx="130.25" cy="250.03" r="2.5" fill="#2563eb"/>
  <circle cx="131.50" cy="250.03" r="2.5" fill="#2563eb"/>
  <circle cx="132.76" cy="250.94" r="2.5" fill="#2563eb"/>
  <circle cx="134.01" cy="250.44" r="2.5" fill="#2563eb"/>
  <circle cx="135.27" cy="250.03" r="2.5" fill="#2563eb"/>
  <circle cx="136.52" cy="250.03" r="2.5" fill="#2563eb"/>
  <circle cx="137.78" cy="300.47" r="2.5" fill="#2563eb"/>
  <circle cx="139.03" cy="300.01" r="2.5" fill="#2563eb"/>
  <circle cx="140.29" cy="300.43" r="2.5" fill="#2563eb"/>
  <circle cx="141.54" cy="250.03" r="2.5" fill="#2563eb"/>
  <circle cx="142.80" cy="249.99" r="2.5" fill="#2563eb"/>
  <circle cx="144.06" cy="300.43" r="2.5" fill="#2563eb"/>
  <circle cx="145.31" cy="249.90" r="2.5" fill="#2563eb"/>
  <circle cx="146.57" cy="249.99" r="2.5" fill="#2563eb"/>
  <circle cx="147.82" cy="249.99" r="2.5" fill="#2563eb"/>
  <circle cx="149.08" cy="200.04" r="2.5" fill="#2563eb"/>
  <circle cx="150.33" cy="300.01" r="2.5" fill="#2563eb"/>
  <circle cx="151.59" cy="300.01" r="2.5" fill="#2563eb"/>
  <circle cx="152.84" cy="300.01" r="2.5" fill="#2563eb"/>
  <circle cx="154.10" cy="249.90" r="2.5" fill="#2563eb"/>
  <circle cx="155.35" cy="300.01" r="2.5" fill="#2563eb"/>
  <circle cx="156.61" cy="250.03" r="2.5" fill="#2563eb"/>
  <circle cx="157.86" cy="249.99" r="2.5" fill="#2563eb"/>
  <circle cx="159.12" cy="199.96" r="2.5" fill="#2563eb"/>
  <circle cx="160.37" cy="300.01" r="2.5" fill="#2563eb"/>
  <circle cx="161.63" cy="200.00" r="2.5" fill="#2563eb"/>
  <circle cx="162.88" cy="250.36" r="2.5" fill="#2563eb"/>
  <circle cx="164.14" cy="250.03" r="2.5" fill="#2563eb"/>
  <circle cx="165.39" cy="300.01" r="2.5" fill="#2563eb"/>
  <circle cx="166.65" cy="300.01" r="2.5" fill="#2563eb"/>
  <circle cx="167.90" cy="250.44" r="2.5" fill="#2563eb"/>
  <circle cx="169.16" cy="300.01" r="2.5" fill="#2563eb"/>
  <circle cx="170.41" cy="250.03" r="2.5" fill="#2563eb"/>
  <circle cx="171.67" cy="250.03" r="2.5" fill="#2563eb"/>
  <circle cx="172.92" cy="249.99" r="2.5" fill="#2563eb"/>
  <circle cx="174.18" cy="250.49" r="2.5" fill="#2563eb"/>
  <circle cx="175.43" cy="250.03" r="2.5" fill="#2563eb"/>
  <circle cx="176.69" cy="200.04" r="2.5" fill="#2563eb"/>
  <circle cx="177.94" cy="300.01" r="2.5" fill="#2563eb"/>
  <circle cx="179.20" cy="250.03" r="2.5" fill="#2563eb"/>
  <circle cx="180.46" cy="300.01" r="2.5" fill="#2563eb"/>
  <circle cx="181.71" cy="250.11" r="2.5" fill="#2563eb"/>
  <circle cx="182.97" cy="300.01" r="2.5" fill="#2563eb"/>
  <circle cx="184.22" cy="250.03" r="2.5" fill="#2563eb"/>
  <circle cx="185.48" cy="250.03" r="2.5" fill="#2563eb"/>
  <circle cx="186.73" cy="199.92" r="2.5" fill="#2563eb"/>
  <circle cx="187.99" cy="250.03" r="2.5" fill="#2563eb"/>
  <circle cx="189.24" cy="250.03" r="2.5" fill="#2563eb"/>
  <circle cx="190.50" cy="250.03" r="2.5" fill="#2563eb"/>
  <circle cx="191.75" cy="254.36" r="2.5" fill="#2563eb"/>
  <circle cx="193.01" cy="300.01" r="2.5" fill="#2563eb"/>
  <circle cx="194.26" cy="299.97" r="2.5" fill="#2563eb"/>
  <circle cx="195.52" cy="250.36" r="2.5" fill="#2563eb"/>
  <circle cx="196.77" cy="299.97" r="2.5" fill="#2563eb"/>
  <circle cx="198.03" cy="250.03" r="2.5" fill="#2563eb"/>
  <circle cx="199.28" cy="250.03" r="2.5" fill="#2563eb"/>
  <circle cx="200.54" cy="250.03" r="2.5" fill="#2563eb"/>
  <circle cx="201.79" cy="250.03" r="2.5" fill="#2563eb"/>
  <circle cx="203.05" cy="249.99" r="2.5" fill="#2563eb"/>
  <circle cx="204.30" cy="200.00" r="2.5" fill="#2563eb"/>
  <circle cx="205.56" cy="299.93" r="2.5" fill="#2563eb"/>
  <circle cx="206.81" cy="300.01" r="2.5" fill="#2563eb"/>
  <circle cx="208.07" cy="299.97" r="2.5" fill="#2563eb"/>
  <circle cx="209.32" cy="249.94" r="2.5" fill="#2563eb"/>
  <circle cx="210.58" cy="249.99" r="2.5" fill="#2563eb"/>
  <circle cx="211.83" cy="249.82" r="2.5" fill="#2563eb"/>
  <circle cx="213.09" cy="249.94" r="2.5" fill="#2563eb"/>
  <circle cx="214.34" cy="250.28" r="2.5" fill="#2563eb"/>
  <circle cx="215.60" cy="207.00" r="2.5" fill="#2563eb"/>
  <circle cx="216.86" cy="250.03" r="2.5" fill="#2563eb"/>
  <circle cx="218.11" cy="250.32" r="2.5" fill="#2563eb"/>
  <circle cx="219.37" cy="250.40" r="2.5" fill="#2563eb"/>
  <circle cx="220.62" cy="300.93" r="2.5" fill="#2563eb"/>
  <circle cx="221.88" cy="300.01" r="2.5" fill="#2563eb"/>
  <circle cx="223.13" cy="300.10" r="2.5" fill="#2563eb"/>
  <circle cx="224.39" cy="249.94" r="2.5" fill="#2563eb"/>
  <circle cx="225.64" cy="249.99" r="2.5" fill="#2563eb"/>
  <circle cx="226.90" cy="250.07" r="2.5" fill="#2563eb"/>
  <circle cx="228.15" cy="249.99" r="2.5" fill="#2563eb"/>
  <circle cx="229.41" cy="250.03" r="2.5" fill="#2563eb"/>
  <circle cx="230.66" cy="249.94" r="2.5" fill="#2563eb"/>
  <circle cx="231.92" cy="200.00" r="2.5" fill="#2563eb"/>
  <circle cx="233.17" cy="300.39" r="2.5" fill="#2563eb"/>
  <circle cx="234.43" cy="300.01" r="2.5" fill="#2563eb"/>
  <circle cx="235.68" cy="300.01" r="2.5" fill="#2563eb"/>
  <circle cx="236.94" cy="250.44" r="2.5" fill="#2563eb"/>
  <circle cx="238.19" cy="300.39" r="2.5" fill="#2563eb"/>
  <circle cx="239.45" cy="249.86" r="2.5" fill="#2563eb"/>
  <circle cx="240.70" cy="250.11" r="2.5" fill="#2563eb"/>
  <circle cx="241.96" cy="201.46" r="2.5" fill="#2563eb"/>
  <circle cx="243.21" cy="300.01" r="2.5" fill="#2563eb"/>
  <circle cx="244.47" cy="200.83" r="2.5" fill="#2563eb"/>
  <circle cx="245.72" cy="250.03" r="2.5" fill="#2563eb"/>
  <circle cx="246.98" cy="249.99" r="2.5" fill="#2563eb"/>
  <circle cx="248.23" cy="300.26" r="2.5" fill="#2563eb"/>
  <circle cx="249.49" cy="300.01" r="2.5" fill="#2563eb"/>
  <circle cx="250.74" cy="300.01" r="2.5" fill="#2563eb"/>
  <circle cx="252.00" cy="250.03" r="2.5" fill="#2563eb"/>
  <circle cx="253.26" cy="250.03" r="2.5" fill="#2563eb"/>
  <circle cx="254.51" cy="250.03" r="2.5" fill="#2563eb"/>
  <circle cx="255.77" cy="250.03" r="2.5" fill="#2563eb"/>
  <circle cx="257.02" cy="249.99" r="2.5" fill="#2563eb"/>
  <circle cx="258.28" cy="250.03" r="2.5" fill="#2563eb"/>
  <circle cx="259.53" cy="200.00" r="2.5" fill="#2563eb"/>
  <circle cx="260.79" cy="300.26" r="2.5" fill="#2563eb"/>
  <circle cx="262.04" cy="249.99" r="2.5" fill="#2563eb"/>
  <circle cx="263.30" cy="300.01" r="2.5" fill="#2563eb"/>
  <circle cx="264.55" cy="249.94" r="2.5" fill="#2563eb"/>
  <circle cx="265.81" cy="250.03" r="2.5" fill="#2563eb"/>
  <circle cx="267.06" cy="250.03" r="2.5" fill="#2563eb"/>
  <circle cx="268.32" cy="250.03" r="2.5" fill="#2563eb"/>
  <circle cx="269.57" cy="200.04" r="2.5" fill="#2563eb"/>
  <circle cx="270.83" cy="300.01" r="2.5" fill="#2563eb"/>
  <circle cx="272.08" cy="249.90" r="2.5" fill="#2563eb"/>
  <circle cx="273.34" cy="300.01" r="2.5" fill="#2563eb"/>
  <circle cx="274.59" cy="300.01" r="2.5" fill="#2563eb"/>
  <circle cx="275.85" cy="300.06" r="2.5" fill="#2563eb"/>
  <circle cx="277.10" cy="300.01" r="2.5" fill="#2563eb"/>
  <circle cx="278.36" cy="300.01" r="2.5" fill="#2563eb"/>
  <circle cx="279.61" cy="243.95" r="2.5" fill="#2563eb"/>
  <circle cx="280.87" cy="249.94" r="2.5" fill="#2563eb"/>
  <circle cx="282.12" cy="299.97" r="2.5" fill="#2563eb"/>
  <circle cx="283.38" cy="300.01" r="2.5" fill="#2563eb"/>
  <circle cx="284.63" cy="300.01" r="2.5" fill="#2563eb"/>
  <circle cx="285.89" cy="250.03" r="2.5" fill="#2563eb"/>
  <circle cx="287.14" cy="300.01" r="2.5" fill="#2563eb"/>
  <circle cx="288.40" cy="300.01" r="2.5" fill="#2563eb"/>
  <circle cx="289.66" cy="299.97" r="2.5" fill="#2563eb"/>
  <circle cx="290.91" cy="249.99" r="2.5" fill="#2563eb"/>
  <circle cx="292.17" cy="300.01" r="2.5" fill="#2563eb"/>
  <circle cx="293.42" cy="299.93" r="2.5" fill="#2563eb"/>
  <circle cx="294.68" cy="300.01" r="2.5" fill="#2563eb"/>
  <circle cx="295.93" cy="299.93" r="2.5" fill="#2563eb"/>
  <circle cx="297.19" cy="300.01" r="2.5" fill="#2563eb"/>
  <circle cx="298.44" cy="300.01" r="2.5" fill="#2563eb"/>
  <circle cx="299.70" cy="299.89" r="2.5" fill="#2563eb"/>
  <circle cx="300.95" cy="299.97" r="2.5" fill="#2563eb"/>
  <circle cx="302.21" cy="250.03" r="2.5" fill="#2563eb"/>
  <circle cx="303.46" cy="299.93" r="2.5" fill="#2563eb"/>
  <circle cx="304.72" cy="299.89" r="2.5" fill="#2563eb"/>
  <circle cx="305.97" cy="299.97" r="2.5" fill="#2563eb"/>
  <circle cx="307.23" cy="249.94" r="2.5" fill="#2563eb"/>
  <circle cx="308.48" cy="300.01" r="2.5" fill="#2563eb"/>
  <circle cx="309.74" cy="300.01" r="2.5" fill="#2563eb"/>
  <circle cx="310.99" cy="299.97" r="2.5" fill="#2563eb"/>
  <circle cx="312.25" cy="249.99" r="2.5" fill="#2563eb"/>
  <circle cx="313.50" cy="299.97" r="2.5" fill="#2563eb"/>
  <circle cx="314.76" cy="299.97" r="2.5" fill="#2563eb"/>
  <circle cx="316.01" cy="300.06" r="2.5" fill="#2563eb"/>
  <circle cx="317.27" cy="300.06" r="2.5" fill="#2563eb"/>
  <circle cx="318.52" cy="299.93" r="2.5" fill="#2563eb"/>
  <circle cx="319.78" cy="300.01" r="2.5" fill="#2563eb"/>
  <circle cx="321.03" cy="300.01" r="2.5" fill="#2563eb"/>
  <circle cx="322.29" cy="299.93" r="2.5" fill="#2563eb"/>
  <circle cx="323.54" cy="300.01" r="2.5" fill="#2563eb"/>
  <circle cx="324.80" cy="300.01" r="2.5" fill="#2563eb"/>
  <circle cx="326.06" cy="299.97" r="2.5" fill="#2563eb"/>
  <circle cx="327.31" cy="300.01" r="2.5" fill="#2563eb"/>
  <circle cx="328.57" cy="300.01" r="2.5" fill="#2563eb"/>
  <circle cx="329.82" cy="300.01" r="2.5" fill="#2563eb"/>
  <circle cx="331.08" cy="300.01" r="2.5" fill="#2563eb"/>
  <circle cx="332.33" cy="249.86" r="2.5" fill="#2563eb"/>
  <circle cx="333.59" cy="300.01" r="2.5" fill="#2563eb"/>
  <circle cx="334.84" cy="300.10" r="2.5" fill="#2563eb"/>
  <circle cx="336.10" cy="299.93" r="2.5" fill="#2563eb"/>
  <circle cx="337.35" cy="300.01" r="2.5" fill="#2563eb"/>
  <circle cx="338.61" cy="299.93" r="2.5" fill="#2563eb"/>
  <circle cx="339.86" cy="300.01" r="2.5" fill="#2563eb"/>
  <circle cx="341.12" cy="300.01" r="2.5" fill="#2563eb"/>
  <circle cx="342.37" cy="300.01" r="2.5" fill="#2563eb"/>
  <circle cx="343.63" cy="300.01" r="2.5" fill="#2563eb"/>
  <circle cx="344.88" cy="300.01" r="2.5" fill="#2563eb"/>
  <circle cx="346.14" cy="299.97" r="2.5" fill="#2563eb"/>
  <circle cx="347.39" cy="300.01" r="2.5" fill="#2563eb"/>
  <circle cx="348.65" cy="300.01" r="2.5" fill="#2563eb"/>
  <circle cx="349.90" cy="300.01" r="2.5" fill="#2563eb"/>
  <circle cx="351.16" cy="300.01" r="2.5" fill="#2563eb"/>
  <circle cx="352.41" cy="250.03" r="2.5" fill="#2563eb"/>
  <circle cx="353.67" cy="300.01" r="2.5" fill="#2563eb"/>
  <circle cx="354.92" cy="300.01" r="2.5" fill="#2563eb"/>
  <circle cx="356.18" cy="299.97" r="2.5" fill="#2563eb"/>
  <circle cx="357.43" cy="300.01" r="2.5" fill="#2563eb"/>
  <circle cx="358.69" cy="300.01" r="2.5" fill="#2563eb"/>
  <circle cx="359.94" cy="299.97" r="2.5" fill="#2563eb"/>
  <circle cx="361.20" cy="299.97" r="2.5" fill="#2563eb"/>
  <circle cx="362.46" cy="300.01" r="2.5" fill="#2563eb"/>
  <circle cx="363.71" cy="299.97" r="2.5" fill="#2563eb"/>
  <circle cx="364.97" cy="300.01" r="2.5" fill="#2563eb"/>
  <circle cx="366.22" cy="299.93" r="2.5" fill="#2563eb"/>
  <circle cx="367.48" cy="300.01" r="2.5" fill="#2563eb"/>
  <circle cx="368.73" cy="250.03" r="2.5" fill="#2563eb"/>
  <circle cx="369.99" cy="300.01" r="2.5" fill="#2563eb"/>
  <circle cx="371.24" cy="300.01" r="2.5" fill="#2563eb"/>
  <circle cx="372.50" cy="300.01" r="2.5" fill="#2563eb"/>
  <circle cx="373.75" cy="300.01" r="2.5" fill="#2563eb"/>
  <circle cx="375.01" cy="300.01" r="2.5" fill="#2563eb"/>
  <circle cx="376.26" cy="299.89" r="2.5" fill="#2563eb"/>
  <circle cx="377.52" cy="300.01" r="2.5" fill="#2563eb"/>
  <circle cx="378.77" cy="300.01" r="2.5" fill="#2563eb"/>
  <circle cx="380.03" cy="250.07" r="2.5" fill="#2563eb"/>
  <circle cx="381.28" cy="300.01" r="2.5" fill="#2563eb"/>
  <circle cx="382.54" cy="299.93" r="2.5" fill="#2563eb"/>
  <circle cx="383.79" cy="300.01" r="2.5" fill="#2563eb"/>
  <circle cx="385.05" cy="299.97" r="2.5" fill="#2563eb"/>
  <circle cx="386.30" cy="299.97" r="2.5" fill="#2563eb"/>
  <circle cx="387.56" cy="299.97" r="2.5" fill="#2563eb"/>
  <circle cx="388.81" cy="250.03" r="2.5" fill="#2563eb"/>
  <circle cx="390.07" cy="300.01" r="2.5" fill="#2563eb"/>
  <circle cx="391.32" cy="300.01" r="2.5" fill="#2563eb"/>
  <circle cx="392.58" cy="300.01" r="2.5" fill="#2563eb"/>
  <circle cx="393.83" cy="300.01" r="2.5" fill="#2563eb"/>
  <circle cx="395.09" cy="299.97" r="2.5" fill="#2563eb"/>
  <circle cx="396.34" cy="300.01" r="2.5" fill="#2563eb"/>
  <circle cx="397.60" cy="299.97" r="2.5" fill="#2563eb"/>
  <circle cx="398.86" cy="300.01" r="2.5" fill="#2563eb"/>
  <circle cx="400.11" cy="299.97" r="2.5" fill="#2563eb"/>
  <circle cx="401.37" cy="249.90" r="2.5" fill="#2563eb"/>
  <circle cx="402.62" cy="300.01" r="2.5" fill="#2563eb"/>
  <circle cx="403.88" cy="300.01" r="2.5" fill="#2563eb"/>
  <circle cx="405.13" cy="299.89" r="2.5" fill="#2563eb"/>
  <circle cx="406.39" cy="299.97" r="2.5" fill="#2563eb"/>
  <circle cx="407.64" cy="299.97" r="2.5" fill="#2563eb"/>
  <circle cx="408.90" cy="249.99" r="2.5" fill="#2563eb"/>
  <circle cx="410.15" cy="299.97" r="2.5" fill="#2563eb"/>
  <circle cx="411.41" cy="299.89" r="2.5" fill="#2563eb"/>
  <circle cx="412.66" cy="300.01" r="2.5" fill="#2563eb"/>
  <circle cx="413.92" cy="299.97" r="2.5" fill="#2563eb"/>
  <circle cx="415.17" cy="299.97" r="2.5" fill="#2563eb"/>
  <circle cx="416.43" cy="300.01" r="2.5" fill="#2563eb"/>
  <circle cx="417.68" cy="299.97" r="2.5" fill="#2563eb"/>
  <circle cx="418.94" cy="249.99" r="2.5" fill="#2563eb"/>
  <circle cx="420.19" cy="299.97" r="2.5" fill="#2563eb"/>
  <circle cx="421.45" cy="299.97" r="2.5" fill="#2563eb"/>
  <circle cx="422.70" cy="300.06" r="2.5" fill="#2563eb"/>
  <circle cx="423.96" cy="300.06" r="2.5" fill="#2563eb"/>
  <circle cx="425.21" cy="249.94" r="2.5" fill="#2563eb"/>
  <circle cx="426.47" cy="300.01" r="2.5" fill="#2563eb"/>
  <circle cx="427.72" cy="299.93" r="2.5" fill="#2563eb"/>
  <circle cx="428.98" cy="300.01" r="2.5" fill="#2563eb"/>
  <circle cx="430.23" cy="300.01" r="2.5" fill="#2563eb"/>
  <circle cx="431.49" cy="249.99" r="2.5" fill="#2563eb"/>
  <circle cx="432.74" cy="300.01" r="2.5" fill="#2563eb"/>
  <circle cx="434.00" cy="300.01" r="2.5" fill="#2563eb"/>
  <circle cx="435.26" cy="300.01" r="2.5" fill="#2563eb"/>
  <circle cx="436.51" cy="299.93" r="2.5" fill="#2563eb"/>
  <circle cx="437.77" cy="299.93" r="2.5" fill="#2563eb"/>
  <circle cx="439.02" cy="300.01" r="2.5" fill="#2563eb"/>
  <circle cx="440.28" cy="300.01" r="2.5" fill="#2563eb"/>
  <circle cx="441.53" cy="249.94" r="2.5" fill="#2563eb"/>
  <circle cx="442.79" cy="299.97" r="2.5" fill="#2563eb"/>
  <circle cx="444.04" cy="299.97" r="2.5" fill="#2563eb"/>
  <circle cx="445.30" cy="300.01" r="2.5" fill="#2563eb"/>
  <circle cx="446.55" cy="300.01" r="2.5" fill="#2563eb"/>
  <circle cx="447.81" cy="300.01" r="2.5" fill="#2563eb"/>
  <circle cx="449.06" cy="249.99" r="2.5" fill="#2563eb"/>
  <circle cx="450.32" cy="300.01" r="2.5" fill="#2563eb"/>
  <circle cx="451.57" cy="300.01" r="2.5" fill="#2563eb"/>
  <circle cx="452.83" cy="300.01" r="2.5" fill="#2563eb"/>
  <circle cx="454.08" cy="250.03" r="2.5" fill="#2563eb"/>
  <circle cx="455.34" cy="300.01" r="2.5" fill="#2563eb"/>
  <circle cx="456.59" cy="300.01" r="2.5" fill="#2563eb"/>
  <circle cx="457.85" cy="300.01" r="2.5" fill="#2563eb"/>
  <circle cx="459.10" cy="299.97" r="2.5" fill="#2563eb"/>
  <circle cx="460.36" cy="300.01" r="2.5" fill="#2563eb"/>
  <circle cx="461.61" cy="300.01" r="2.5" fill="#2563eb"/>
  <circle cx="462.87" cy="299.97" r="2.5" fill="#2563eb"/>
  <circle cx="464.12" cy="299.97" r="2.5" fill="#2563eb"/>
  <circle cx="465.38" cy="300.01" r="2.5" fill="#2563eb"/>
  <circle cx="466.63" cy="300.01" r="2.5" fill="#2563eb"/>
  <circle cx="467.89" cy="299.97" r="2.5" fill="#2563eb"/>
  <circle cx="469.14" cy="299.93" r="2.5" fill="#2563eb"/>
  <circle cx="470.40" cy="300.01" r="2.5" fill="#2563eb"/>
  <circle cx="471.66" cy="300.06" r="2.5" fill="#2563eb"/>
  <circle cx="472.91" cy="299.97" r="2.5" fill="#2563eb"/>
  <circle cx="474.17" cy="300.01" r="2.5" fill="#2563eb"/>
  <circle cx="475.42" cy="250.03" r="2.5" fill="#2563eb"/>
  <circle cx="476.68" cy="250.03" r="2.5" fill="#2563eb"/>
  <circle cx="477.93" cy="299.93" r="2.5" fill="#2563eb"/>
  <circle cx="479.19" cy="299.97" r="2.5" fill="#2563eb"/>
  <circle cx="480.44" cy="300.01" r="2.5" fill="#2563eb"/>
  <circle cx="481.70" cy="300.01" r="2.5" fill="#2563eb"/>
  <circle cx="482.95" cy="300.06" r="2.5" fill="#2563eb"/>
  <circle cx="484.21" cy="300.01" r="2.5" fill="#2563eb"/>
  <circle cx="485.46" cy="299.93" r="2.5" fill="#2563eb"/>
  <circle cx="486.72" cy="300.01" r="2.5" fill="#2563eb"/>
  <circle cx="487.97" cy="300.01" r="2.5" fill="#2563eb"/>
  <circle cx="489.23" cy="299.97" r="2.5" fill="#2563eb"/>
  <circle cx="490.48" cy="299.97" r="2.5" fill="#2563eb"/>
  <circle cx="491.74" cy="300.01" r="2.5" fill="#2563eb"/>
  <circle cx="492.99" cy="250.03" r="2.5" fill="#2563eb"/>
  <circle cx="494.25" cy="300.01" r="2.5" fill="#2563eb"/>
  <circle cx="495.50" cy="300.01" r="2.5" fill="#2563eb"/>
  <circle cx="496.76" cy="300.01" r="2.5" fill="#2563eb"/>
  <circle cx="498.01" cy="299.97" r="2.5" fill="#2563eb"/>
  <circle cx="499.27" cy="300.01" r="2.5" fill="#2563eb"/>
  <circle cx="500.52" cy="299.97" r="2.5" fill="#2563eb"/>
  <circle cx="501.78" cy="300.01" r="2.5" fill="#2563eb"/>
  <circle cx="503.03" cy="299.97" r="2.5" fill="#2563eb"/>
  <circle cx="504.29" cy="299.97" r="2.5" fill="#2563eb"/>
  <circle cx="505.54" cy="299.93" r="2.5" fill="#2563eb"/>
  <circle cx="506.80" cy="300.01" r="2.5" fill="#2563eb"/>
  <circle cx="508.06" cy="300.01" r="2.5" fill="#2563eb"/>
  <circle cx="509.31" cy="299.89" r="2.5" fill="#2563eb"/>
  <circle cx="510.57" cy="299.97" r="2.5" fill="#2563eb"/>
  <circle cx="511.82" cy="299.97" r="2.5" fill="#2563eb"/>
  <circle cx="513.08" cy="300.06" r="2.5" fill="#2563eb"/>
  <circle cx="514.33" cy="249.90" r="2.5" fill="#2563eb"/>
  <circle cx="515.59" cy="299.89" r="2.5" fill="#2563eb"/>
  <circle cx="516.84" cy="300.01" r="2.5" fill="#2563eb"/>
  <circle cx="518.10" cy="299.97" r="2.5" fill="#2563eb"/>
  <circle cx="519.35" cy="299.97" r="2.5" fill="#2563eb"/>
  <circle cx="520.61" cy="299.97" r="2.5" fill="#2563eb"/>
  <circle cx="521.86" cy="300.01" r="2.5" fill="#2563eb"/>
  <circle cx="523.12" cy="300.01" r="2.5" fill="#2563eb"/>
  <circle cx="524.37" cy="299.97" r="2.5" fill="#2563eb"/>
  <circle cx="525.63" cy="299.97" r="2.5" fill="#2563eb"/>
  <circle cx="526.88" cy="299.97" r="2.5" fill="#2563eb"/>
  <circle cx="528.14" cy="250.03" r="2.5" fill="#2563eb"/>
  <circle cx="529.39" cy="299.93" r="2.5" fill="#2563eb"/>
  <circle cx="530.65" cy="300.01" r="2.5" fill="#2563eb"/>
  <circle cx="531.90" cy="300.01" r="2.5" fill="#2563eb"/>
  <circle cx="533.16" cy="299.93" r="2.5" fill="#2563eb"/>
  <circle cx="534.41" cy="300.01" r="2.5" fill="#2563eb"/>
  <circle cx="535.67" cy="300.01" r="2.5" fill="#2563eb"/>
  <circle cx="536.92" cy="299.97" r="2.5" fill="#2563eb"/>
  <circle cx="538.18" cy="300.01" r="2.5" fill="#2563eb"/>
  <circle cx="539.43" cy="300.01" r="2.5" fill="#2563eb"/>
  <circle cx="540.69" cy="300.06" r="2.5" fill="#2563eb"/>
  <circle cx="541.94" cy="300.01" r="2.5" fill="#2563eb"/>
  <circle cx="543.20" cy="299.97" r="2.5" fill="#2563eb"/>
  <circle cx="544.46" cy="299.89" r="2.5" fill="#2563eb"/>
  <circle cx="545.71" cy="300.01" r="2.5" fill="#2563eb"/>
  <circle cx="546.97" cy="300.01" r="2.5" fill="#2563eb"/>
  <circle cx="548.22" cy="249.94" r="2.5" fill="#2563eb"/>
  <circle cx="549.48" cy="249.94" r="2.5" fill="#2563eb"/>
  <circle cx="550.73" cy="300.01" r="2.5" fill="#2563eb"/>
  <circle cx="551.99" cy="300.01" r="2.5" fill="#2563eb"/>
  <circle cx="553.24" cy="300.01" r="2.5" fill="#2563eb"/>
  <circle cx="554.50" cy="300.01" r="2.5" fill="#2563eb"/>
  <circle cx="555.75" cy="299.97" r="2.5" fill="#2563eb"/>
  <circle cx="557.01" cy="250.03" r="2.5" fill="#2563eb"/>
  <circle cx="558.26" cy="300.01" r="2.5" fill="#2563eb"/>
  <circle cx="559.52" cy="300.01" r="2.5" fill="#2563eb"/>
  <circle cx="560.77" cy="300.01" r="2.5" fill="#2563eb"/>
  <circle cx="562.03" cy="300.01" r="2.5" fill="#2563eb"/>
  <circle cx="563.28" cy="250.03" r="2.5" fill="#2563eb"/>
  <circle cx="564.54" cy="249.99" r="2.5" fill="#2563eb"/>
  <circle cx="565.79" cy="300.01" r="2.5" fill="#2563eb"/>
  <circle cx="567.05" cy="299.97" r="2.5" fill="#2563eb"/>
  <circle cx="568.30" cy="300.01" r="2.5" fill="#2563eb"/>
  <circle cx="569.56" cy="299.97" r="2.5" fill="#2563eb"/>
  <circle cx="570.81" cy="300.01" r="2.5" fill="#2563eb"/>
  <circle cx="572.07" cy="299.97" r="2.5" fill="#2563eb"/>
  <circle cx="573.32" cy="299.97" r="2.5" fill="#2563eb"/>
  <circle cx="574.58" cy="299.97" r="2.5" fill="#2563eb"/>
  <circle cx="575.83" cy="300.06" r="2.5" fill="#2563eb"/>
  <circle cx="577.09" cy="249.99" r="2.5" fill="#2563eb"/>
  <circle cx="578.34" cy="300.01" r="2.5" fill="#2563eb"/>
  <circle cx="579.60" cy="250.03" r="2.5" fill="#2563eb"/>
  <circle cx="580.86" cy="249.94" r="2.5" fill="#2563eb"/>
  <circle cx="582.11" cy="249.99" r="2.5" fill="#2563eb"/>
  <circle cx="583.37" cy="300.01" r="2.5" fill="#2563eb"/>
  <circle cx="584.62" cy="300.06" r="2.5" fill="#2563eb"/>
  <circle cx="585.88" cy="300.01" r="2.5" fill="#2563eb"/>
  <circle cx="587.13" cy="299.97" r="2.5" fill="#2563eb"/>
  <circle cx="588.39" cy="299.97" r="2.5" fill="#2563eb"/>
  <circle cx="589.64" cy="300.01" r="2.5" fill="#2563eb"/>
  <circle cx="590.90" cy="299.93" r="2.5" fill="#2563eb"/>
  <circle cx="592.15" cy="299.89" r="2.5" fill="#2563eb"/>
  <circle cx="593.41" cy="299.89" r="2.5" fill="#2563eb"/>
  <circle cx="594.66" cy="299.89" r="2.5" fill="#2563eb"/>
  <circle cx="595.92" cy="299.89" r="2.5" fill="#2563eb"/>
  <circle cx="597.17" cy="299.85" r="2.5" fill="#2563eb"/>
  <circle cx="598.43" cy="299.85" r="2.5" fill="#2563eb"/>
  <circle cx="599.68" cy="299.89" r="2.5" fill="#2563eb"/>
  <circle cx="600.94" cy="299.81" r="2.5" fill="#2563eb"/>
  <circle cx="602.19" cy="299.81" r="2.5" fill="#2563eb"/>
  <circle cx="603.45" cy="299.81" r="2.5" fill="#2563eb"/>
  <circle cx="604.70" cy="299.76" r="2.5" fill="#2563eb"/>
  <circle cx="605.96" cy="299.76" r="2.5" fill="#2563eb"/>
  <circle cx="607.21" cy="299.76" r="2.5" fill="#2563eb"/>
  <circle cx="608.47" cy="299.72" r="2.5" fill="#2563eb"/>
  <circle cx="609.72" cy="299.68" r="2.5" fill="#2563eb"/>
  <circle cx="610.98" cy="299.60" r="2.5" fill="#2563eb"/>
  <circle cx="612.23" cy="299.60" r="2.5" fill="#2563eb"/>
  <circle cx="613.49" cy="299.60" r="2.5" fill="#2563eb"/>
  <circle cx="614.74" cy="299.56" r="2.5" fill="#2563eb"/>
  <circle cx="616.00" cy="299.47" r="2.5" fill="#2563eb"/>
  <circle cx="617.26" cy="299.43" r="2.5" fill="#2563eb"/>
  <circle cx="618.51" cy="299.43" r="2.5" fill="#2563eb"/>
  <circle cx="619.77" cy="299.39" r="2.5" fill="#2563eb"/>
  <circle cx="621.02" cy="299.47" r="2.5" fill="#2563eb"/>
  <circle cx="622.28" cy="259.82" r="2.5" fill="#2563eb"/>
  <circle cx="623.53" cy="338.96" r="2.5" fill="#2563eb"/>
  <circle cx="624.79" cy="299.31" r="2.5" fill="#2563eb"/>
  <circle cx="626.04" cy="299.31" r="2.5" fill="#2563eb"/>
  <circle cx="627.30" cy="299.26" r="2.5" fill="#2563eb"/>
  <circle cx="628.55" cy="299.68" r="2.5" fill="#2563eb"/>
  <circle cx="629.81" cy="299.68" r="2.5" fill="#2563eb"/>
  <circle cx="631.06" cy="299.68" r="2.5" fill="#2563eb"/>
  <circle cx="632.32" cy="299.64" r="2.5" fill="#2563eb"/>
  <circle cx="633.57" cy="299.14" r="2.5" fill="#2563eb"/>
  <circle cx="634.83" cy="299.14" r="2.5" fill="#2563eb"/>
  <circle cx="636.08" cy="299.10" r="2.5" fill="#2563eb"/>
  <circle cx="637.34" cy="299.10" r="2.5" fill="#2563eb"/>
  <circle cx="638.59" cy="299.10" r="2.5" fill="#2563eb"/>
  <circle cx="639.85" cy="248.07" r="2.5" fill="#2563eb"/>
  <circle cx="641.10" cy="299.06" r="2.5" fill="#2563eb"/>
  <circle cx="642.36" cy="299.06" r="2.5" fill="#2563eb"/>
  <circle cx="643.61" cy="299.06" r="2.5" fill="#2563eb"/>
  <circle cx="644.87" cy="299.06" r="2.5" fill="#2563eb"/>
  <circle cx="646.12" cy="299.06" r="2.5" fill="#2563eb"/>
  <circle cx="647.38" cy="298.97" r="2.5" fill="#2563eb"/>
  <circle cx="648.63" cy="298.97" r="2.5" fill="#2563eb"/>
  <circle cx="649.89" cy="298.93" r="2.5" fill="#2563eb"/>
  <circle cx="651.14" cy="298.97" r="2.5" fill="#2563eb"/>
  <circle cx="652.40" cy="298.93" r="2.5" fill="#2563eb"/>
  <circle cx="653.66" cy="298.89" r="2.5" fill="#2563eb"/>
  <circle cx="654.91" cy="298.89" r="2.5" fill="#2563eb"/>
  <circle cx="656.17" cy="298.89" r="2.5" fill="#2563eb"/>
  <circle cx="657.42" cy="298.89" r="2.5" fill="#2563eb"/>
  <circle cx="658.68" cy="247.78" r="2.5" fill="#2563eb"/>
  <circle cx="659.93" cy="298.89" r="2.5" fill="#2563eb"/>
  <circle cx="661.19" cy="298.89" r="2.5" fill="#2563eb"/>
  <circle cx="662.44" cy="298.85" r="2.5" fill="#2563eb"/>
  <circle cx="663.70" cy="298.85" r="2.5" fill="#2563eb"/>
  <circle cx="664.95" cy="298.81" r="2.5" fill="#2563eb"/>
  <circle cx="666.21" cy="298.81" r="2.5" fill="#2563eb"/>
  <circle cx="667.46" cy="298.81" r="2.5" fill="#2563eb"/>
  <circle cx="668.72" cy="298.81" r="2.5" fill="#2563eb"/>
  <circle cx="669.97" cy="298.81" r="2.5" fill="#2563eb"/>
  <circle cx="671.23" cy="298.81" r="2.5" fill="#2563eb"/>
  <circle cx="672.48" cy="298.81" r="2.5" fill="#2563eb"/>
  <circle cx="673.74" cy="298.81" r="2.5" fill="#2563eb"/>
  <circle cx="674.99" cy="298.81" r="2.5" fill="#2563eb"/>
  <circle cx="676.25" cy="298.72" r="2.5" fill="#2563eb"/>
  <circle cx="677.50" cy="247.45" r="2.5" fill="#2563eb"/>
  <circle cx="678.76" cy="247.45" r="2.5" fill="#2563eb"/>
  <circle cx="680.01" cy="298.72" r="2.5" fill="#2563eb"/>
  <circle cx="681.27" cy="298.72" r="2.5" fill="#2563eb"/>
  <circle cx="682.52" cy="298.72" r="2.5" fill="#2563eb"/>
  <circle cx="683.78" cy="298.72" r="2.5" fill="#2563eb"/>
  <circle cx="685.03" cy="298.72" r="2.5" fill="#2563eb"/>
  <circle cx="686.29" cy="298.72" r="2.5" fill="#2563eb"/>
  <circle cx="687.54" cy="247.36" r="2.5" fill="#2563eb"/>
  <circle cx="688.80" cy="298.68" r="2.5" fill="#2563eb"/>
  <circle cx="690.06" cy="247.36" r="2.5" fill="#2563eb"/>
  <circle cx="691.31" cy="247.36" r="2.5" fill="#2563eb"/>
  <circle cx="692.57" cy="247.36" r="2.5" fill="#2563eb"/>
  <circle cx="693.82" cy="298.68" r="2.5" fill="#2563eb"/>
  <circle cx="695.08" cy="298.68" r="2.5" fill="#2563eb"/>
  <circle cx="696.33" cy="298.68" r="2.5" fill="#2563eb"/>
  <circle cx="697.59" cy="298.68" r="2.5" fill="#2563eb"/>
  <circle cx="698.84" cy="298.68" r="2.5" fill="#2563eb"/>
  <circle cx="700.10" cy="341.67" r="2.5" fill="#2563eb"/>
  <circle cx="701.35" cy="307.01" r="2.5" fill="#2563eb"/>
  <circle cx="702.61" cy="298.68" r="2.5" fill="#2563eb"/>
  <circle cx="703.86" cy="298.68" r="2.5" fill="#2563eb"/>
  <circle cx="705.12" cy="298.68" r="2.5" fill="#2563eb"/>
  <circle cx="706.37" cy="247.36" r="2.5" fill="#2563eb"/>
  <circle cx="707.63" cy="298.64" r="2.5" fill="#2563eb"/>
  <circle cx="708.88" cy="247.36" r="2.5" fill="#2563eb"/>
  <circle cx="710.14" cy="247.28" r="2.5" fill="#2563eb"/>
  <circle cx="711.39" cy="247.20" r="2.5" fill="#2563eb"/>
  <circle cx="712.65" cy="298.60" r="2.5" fill="#2563eb"/>
  <circle cx="713.90" cy="298.60" r="2.5" fill="#2563eb"/>
  <circle cx="715.16" cy="247.03" r="2.5" fill="#2563eb"/>
  <circle cx="716.41" cy="298.51" r="2.5" fill="#2563eb"/>
  <circle cx="717.67" cy="298.51" r="2.5" fill="#2563eb"/>
  <circle cx="718.92" cy="298.51" r="2.5" fill="#2563eb"/>
  <circle cx="720.18" cy="298.51" r="2.5" fill="#2563eb"/>
  <circle cx="721.43" cy="298.51" r="2.5" fill="#2563eb"/>
  <circle cx="722.69" cy="298.51" r="2.5" fill="#2563eb"/>
  <circle cx="723.94" cy="298.51" r="2.5" fill="#2563eb"/>
  <circle cx="725.20" cy="298.51" r="2.5" fill="#2563eb"/>
  <circle cx="726.46" cy="298.51" r="2.5" fill="#2563eb"/>
  <circle cx="727.71" cy="298.51" r="2.5" fill="#2563eb"/>
  <circle cx="728.97" cy="298.51" r="2.5" fill="#2563eb"/>
  <circle cx="730.22" cy="298.51" r="2.5" fill="#2563eb"/>
  <circle cx="731.48" cy="298.51" r="2.5" fill="#2563eb"/>
  <circle cx="732.73" cy="298.51" r="2.5" fill="#2563eb"/>
  <circle cx="733.99" cy="298.51" r="2.5" fill="#2563eb"/>
  <circle cx="735.24" cy="298.51" r="2.5" fill="#2563eb"/>
  <circle cx="736.50" cy="298.51" r="2.5" fill="#2563eb"/>
  <circle cx="737.75" cy="298.51" r="2.5" fill="#2563eb"/>
  <circle cx="739.01" cy="298.51" r="2.5" fill="#2563eb"/>
  <circle cx="740.26" cy="298.51" r="2.5" fill="#2563eb"/>
  <circle cx="741.52" cy="298.51" r="2.5" fill="#2563eb"/>
  <circle cx="742.77" cy="298.51" r="2.5" fill="#2563eb"/>
  <circle cx="744.03" cy="298.51" r="2.5" fill="#2563eb"/>
  <circle cx="745.28" cy="298.51" r="2.5" fill="#2563eb"/>
  <circle cx="746.54" cy="298.51" r="2.5" fill="#2563eb"/>
  <circle cx="747.79" cy="298.51" r="2.5" fill="#2563eb"/>
  <circle cx="749.05" cy="298.47" r="2.5" fill="#2563eb"/>
  <circle cx="750.30" cy="298.51" r="2.5" fill="#2563eb"/>
  <circle cx="751.56" cy="298.51" r="2.5" fill="#2563eb"/>
  <circle cx="752.81" cy="298.47" r="2.5" fill="#2563eb"/>
  <circle cx="754.07" cy="298.51" r="2.5" fill="#2563eb"/>
  <circle cx="755.32" cy="298.47" r="2.5" fill="#2563eb"/>
  <circle cx="756.58" cy="298.51" r="2.5" fill="#2563eb"/>
  <circle cx="757.83" cy="298.43" r="2.5" fill="#2563eb"/>
  <circle cx="759.09" cy="298.56" r="2.5" fill="#2563eb"/>
  <circle cx="760.34" cy="298.43" r="2.5" fill="#2563eb"/>
  <circle cx="761.60" cy="298.43" r="2.5" fill="#2563eb"/>
  <circle cx="762.86" cy="298.43" r="2.5" fill="#2563eb"/>
  <circle cx="764.11" cy="298.43" r="2.5" fill="#2563eb"/>
  <circle cx="765.37" cy="298.43" r="2.5" fill="#2563eb"/>
  <circle cx="766.62" cy="298.43" r="2.5" fill="#2563eb"/>
  <circle cx="767.88" cy="298.43" r="2.5" fill="#2563eb"/>
  <circle cx="769.13" cy="298.43" r="2.5" fill="#2563eb"/>
  <circle cx="770.39" cy="298.43" r="2.5" fill="#2563eb"/>
  <circle cx="771.64" cy="298.43" r="2.5" fill="#2563eb"/>
  <circle cx="772.90" cy="298.43" r="2.5" fill="#2563eb"/>
  <circle cx="774.15" cy="298.43" r="2.5" fill="#2563eb"/>
  <circle cx="775.41" cy="298.43" r="2.5" fill="#2563eb"/>
  <circle cx="776.66" cy="298.43" r="2.5" fill="#2563eb"/>
  <circle cx="777.92" cy="298.43" r="2.5" fill="#2563eb"/>
  <circle cx="779.17" cy="298.43" r="2.5" fill="#2563eb"/>
  <circle cx="780.43" cy="298.43" r="2.5" fill="#2563eb"/>
  <circle cx="781.68" cy="298.43" r="2.5" fill="#2563eb"/>
  <circle cx="782.94" cy="298.43" r="2.5" fill="#2563eb"/>
  <circle cx="784.19" cy="298.43" r="2.5" fill="#2563eb"/>
  <circle cx="785.45" cy="298.43" r="2.5" fill="#2563eb"/>
  <circle cx="786.70" cy="298.43" r="2.5" fill="#2563eb"/>
  <circle cx="787.96" cy="298.43" r="2.5" fill="#2563eb"/>
  <circle cx="789.21" cy="298.43" r="2.5" fill="#2563eb"/>
  <circle cx="790.47" cy="298.43" r="2.5" fill="#2563eb"/>
  <circle cx="791.72" cy="298.43" r="2.5" fill="#2563eb"/>
  <circle cx="792.98" cy="298.43" r="2.5" fill="#2563eb"/>
  <circle cx="794.23" cy="298.43" r="2.5" fill="#2563eb"/>
  <circle cx="795.49" cy="298.43" r="2.5" fill="#2563eb"/>
  <circle cx="796.74" cy="298.43" r="2.5" fill="#2563eb"/>
  <circle cx="798.00" cy="298.43" r="2.5" fill="#2563eb"/>
  <circle cx="799.26" cy="298.43" r="2.5" fill="#2563eb"/>
  <circle cx="800.51" cy="298.43" r="2.5" fill="#2563eb"/>
  <circle cx="801.77" cy="298.43" r="2.5" fill="#2563eb"/>
  <circle cx="803.02" cy="298.39" r="2.5" fill="#2563eb"/>
  <circle cx="804.28" cy="298.39" r="2.5" fill="#2563eb"/>
  <circle cx="805.53" cy="298.43" r="2.5" fill="#2563eb"/>
  <circle cx="806.79" cy="298.43" r="2.5" fill="#2563eb"/>
  <circle cx="808.04" cy="298.39" r="2.5" fill="#2563eb"/>
  <circle cx="809.30" cy="298.39" r="2.5" fill="#2563eb"/>
  <circle cx="810.55" cy="298.39" r="2.5" fill="#2563eb"/>
  <circle cx="811.81" cy="298.43" r="2.5" fill="#2563eb"/>
  <circle cx="813.06" cy="298.43" r="2.5" fill="#2563eb"/>
  <circle cx="814.32" cy="298.43" r="2.5" fill="#2563eb"/>
  <circle cx="815.57" cy="246.82" r="2.5" fill="#2563eb"/>
  <circle cx="816.83" cy="298.43" r="2.5" fill="#2563eb"/>
  <circle cx="818.08" cy="246.78" r="2.5" fill="#2563eb"/>
  <circle cx="819.34" cy="246.78" r="2.5" fill="#2563eb"/>
  <circle cx="820.59" cy="246.78" r="2.5" fill="#2563eb"/>
  <circle cx="821.85" cy="246.70" r="2.5" fill="#2563eb"/>
  <circle cx="823.10" cy="246.78" r="2.5" fill="#2563eb"/>
  <circle cx="824.36" cy="298.39" r="2.5" fill="#2563eb"/>
  <circle cx="825.61" cy="298.39" r="2.5" fill="#2563eb"/>
  <circle cx="826.87" cy="298.39" r="2.5" fill="#2563eb"/>
  <circle cx="828.12" cy="298.39" r="2.5" fill="#2563eb"/>
  <circle cx="829.38" cy="298.39" r="2.5" fill="#2563eb"/>
  <circle cx="830.63" cy="246.78" r="2.5" fill="#2563eb"/>
  <circle cx="831.89" cy="298.39" r="2.5" fill="#2563eb"/>
  <circle cx="833.14" cy="298.39" r="2.5" fill="#2563eb"/>
  <circle cx="834.40" cy="298.39" r="2.5" fill="#2563eb"/>
  <circle cx="835.66" cy="298.39" r="2.5" fill="#2563eb"/>
  <circle cx="836.91" cy="298.39" r="2.5" fill="#2563eb"/>
  <circle cx="838.17" cy="246.78" r="2.5" fill="#2563eb"/>
  <circle cx="839.42" cy="246.78" r="2.5" fill="#2563eb"/>
  <circle cx="840.68" cy="298.39" r="2.5" fill="#2563eb"/>
  <circle cx="841.93" cy="298.39" r="2.5" fill="#2563eb"/>
  <circle cx="843.19" cy="298.39" r="2.5" fill="#2563eb"/>
  <circle cx="844.44" cy="298.39" r="2.5" fill="#2563eb"/>
  <circle cx="845.70" cy="298.39" r="2.5" fill="#2563eb"/>
  <circle cx="846.95" cy="298.39" r="2.5" fill="#2563eb"/>
  <circle cx="848.21" cy="298.39" r="2.5" fill="#2563eb"/>
  <circle cx="849.46" cy="298.39" r="2.5" fill="#2563eb"/>
  <circle cx="850.72" cy="298.39" r="2.5" fill="#2563eb"/>
  <circle cx="851.97" cy="298.39" r="2.5" fill="#2563eb"/>
  <circle cx="853.23" cy="298.39" r="2.5" fill="#2563eb"/>
  <circle cx="854.48" cy="298.39" r="2.5" fill="#2563eb"/>
  <circle cx="855.74" cy="298.39" r="2.5" fill="#2563eb"/>
  <circle cx="856.99" cy="298.39" r="2.5" fill="#2563eb"/>
  <circle cx="858.25" cy="298.35" r="2.5" fill="#2563eb"/>
  <circle cx="859.50" cy="298.39" r="2.5" fill="#2563eb"/>
  <circle cx="860.76" cy="298.39" r="2.5" fill="#2563eb"/>
  <circle cx="862.01" cy="298.35" r="2.5" fill="#2563eb"/>
  <circle cx="863.27" cy="298.35" r="2.5" fill="#2563eb"/>
  <circle cx="864.52" cy="298.35" r="2.5" fill="#2563eb"/>
  <circle cx="865.78" cy="298.35" r="2.5" fill="#2563eb"/>
  <circle cx="867.03" cy="298.35" r="2.5" fill="#2563eb"/>
  <circle cx="868.29" cy="298.35" r="2.5" fill="#2563eb"/>
  <circle cx="869.54" cy="298.35" r="2.5" fill="#2563eb"/>
  <circle cx="870.80" cy="298.35" r="2.5" fill="#2563eb"/>
  <circle cx="872.06" cy="298.35" r="2.5" fill="#2563eb"/>
  <circle cx="873.31" cy="298.35" r="2.5" fill="#2563eb"/>
  <circle cx="874.57" cy="298.35" r="2.5" fill="#2563eb"/>
  <circle cx="875.82" cy="298.35" r="2.5" fill="#2563eb"/>
  <circle cx="877.08" cy="298.35" r="2.5" fill="#2563eb"/>
  <circle cx="878.33" cy="298.35" r="2.5" fill="#2563eb"/>
  <circle cx="879.59" cy="298.35" r="2.5" fill="#2563eb"/>
  <circle cx="880.84" cy="298.35" r="2.5" fill="#2563eb"/>
  <circle cx="882.10" cy="298.35" r="2.5" fill="#2563eb"/>
  <circle cx="883.35" cy="298.35" r="2.5" fill="#2563eb"/>
  <circle cx="884.61" cy="298.35" r="2.5" fill="#2563eb"/>
  <circle cx="885.86" cy="298.35" r="2.5" fill="#2563eb"/>
  <circle cx="887.12" cy="298.35" r="2.5" fill="#2563eb"/>
  <circle cx="888.37" cy="298.35" r="2.5" fill="#2563eb"/>
  <circle cx="889.63" cy="298.35" r="2.5" fill="#2563eb"/>
  <circle cx="890.88" cy="298.35" r="2.5" fill="#2563eb"/>
  <circle cx="892.14" cy="298.35" r="2.5" fill="#2563eb"/>
  <circle cx="893.39" cy="298.35" r="2.5" fill="#2563eb"/>
  <circle cx="894.65" cy="298.35" r="2.5" fill="#2563eb"/>
  <circle cx="895.90" cy="298.35" r="2.5" fill="#2563eb"/>
  <circle cx="897.16" cy="298.35" r="2.5" fill="#2563eb"/>
  <circle cx="898.41" cy="298.35" r="2.5" fill="#2563eb"/>
  <circle cx="899.67" cy="298.35" r="2.5" fill="#2563eb"/>
  <circle cx="900.92" cy="298.35" r="2.5" fill="#2563eb"/>
  <circle cx="902.18" cy="298.35" r="2.5" fill="#2563eb"/>
  <circle cx="903.43" cy="298.35" r="2.5" fill="#2563eb"/>
  <circle cx="904.69" cy="298.35" r="2.5" fill="#2563eb"/>
  <circle cx="905.94" cy="298.35" r="2.5" fill="#2563eb"/>
  <circle cx="907.20" cy="298.35" r="2.5" fill="#2563eb"/>
  <circle cx="908.46" cy="298.35" r="2.5" fill="#2563eb"/>
  <circle cx="909.71" cy="298.35" r="2.5" fill="#2563eb"/>
  <circle cx="910.97" cy="298.35" r="2.5" fill="#2563eb"/>
  <circle cx="912.22" cy="298.35" r="2.5" fill="#2563eb"/>
  <circle cx="913.48" cy="298.35" r="2.5" fill="#2563eb"/>
  <circle cx="914.73" cy="298.35" r="2.5" fill="#2563eb"/>
  <circle cx="915.99" cy="298.35" r="2.5" fill="#2563eb"/>
  <circle cx="917.24" cy="298.35" r="2.5" fill="#2563eb"/>
  <circle cx="918.50" cy="298.35" r="2.5" fill="#2563eb"/>
  <circle cx="919.75" cy="298.35" r="2.5" fill="#2563eb"/>
  <circle cx="921.01" cy="298.35" r="2.5" fill="#2563eb"/>
  <circle cx="922.26" cy="298.35" r="2.5" fill="#2563eb"/>
  <circle cx="923.52" cy="298.35" r="2.5" fill="#2563eb"/>
  <circle cx="924.77" cy="298.35" r="2.5" fill="#2563eb"/>
  <circle cx="926.03" cy="298.35" r="2.5" fill="#2563eb"/>
  <circle cx="927.28" cy="298.39" r="2.5" fill="#2563eb"/>
  <circle cx="928.54" cy="298.39" r="2.5" fill="#2563eb"/>
  <circle cx="929.79" cy="298.39" r="2.5" fill="#2563eb"/>
  <circle cx="931.05" cy="246.78" r="2.5" fill="#2563eb"/>
  <circle cx="932.30" cy="298.39" r="2.5" fill="#2563eb"/>
  <circle cx="933.56" cy="298.39" r="2.5" fill="#2563eb"/>
  <circle cx="934.81" cy="298.39" r="2.5" fill="#2563eb"/>
  <circle cx="936.07" cy="298.39" r="2.5" fill="#2563eb"/>
  <circle cx="937.32" cy="298.39" r="2.5" fill="#2563eb"/>
  <circle cx="938.58" cy="298.39" r="2.5" fill="#2563eb"/>
  <circle cx="939.83" cy="298.39" r="2.5" fill="#2563eb"/>
  <circle cx="941.09" cy="246.78" r="2.5" fill="#2563eb"/>
  <circle cx="942.34" cy="298.39" r="2.5" fill="#2563eb"/>
  <circle cx="943.60" cy="298.39" r="2.5" fill="#2563eb"/>
  <circle cx="944.86" cy="298.39" r="2.5" fill="#2563eb"/>
  <circle cx="946.11" cy="298.39" r="2.5" fill="#2563eb"/>
  <circle cx="947.37" cy="298.39" r="2.5" fill="#2563eb"/>
  <circle cx="948.62" cy="298.39" r="2.5" fill="#2563eb"/>
  <circle cx="949.88" cy="298.39" r="2.5" fill="#2563eb"/>
  <circle cx="951.13" cy="246.78" r="2.5" fill="#2563eb"/>
  <circle cx="952.39" cy="298.39" r="2.5" fill="#2563eb"/>
  <circle cx="953.64" cy="298.39" r="2.5" fill="#2563eb"/>
  <circle cx="954.90" cy="298.39" r="2.5" fill="#2563eb"/>
  <circle cx="956.15" cy="298.39" r="2.5" fill="#2563eb"/>
  <circle cx="957.41" cy="298.39" r="2.5" fill="#2563eb"/>
  <circle cx="958.66" cy="298.39" r="2.5" fill="#2563eb"/>
  <circle cx="959.92" cy="298.39" r="2.5" fill="#2563eb"/>
  <circle cx="961.17" cy="298.39" r="2.5" fill="#2563eb"/>
  <circle cx="962.43" cy="298.39" r="2.5" fill="#2563eb"/>
  <circle cx="963.68" cy="298.39" r="2.5" fill="#2563eb"/>
  <circle cx="964.94" cy="298.39" r="2.5" fill="#2563eb"/>
  <circle cx="966.19" cy="298.35" r="2.5" fill="#2563eb"/>
  <circle cx="967.45" cy="298.39" r="2.5" fill="#2563eb"/>
  <circle cx="968.70" cy="298.39" r="2.5" fill="#2563eb"/>
  <circle cx="969.96" cy="298.39" r="2.5" fill="#2563eb"/>
  <circle cx="971.21" cy="298.35" r="2.5" fill="#2563eb"/>
  <circle cx="972.47" cy="298.35" r="2.5" fill="#2563eb"/>
  <circle cx="973.72" cy="298.35" r="2.5" fill="#2563eb"/>
  <circle cx="974.98" cy="298.35" r="2.5" fill="#2563eb"/>
  <circle cx="976.23" cy="298.35" r="2.5" fill="#2563eb"/>
  <circle cx="977.49" cy="298.35" r="2.5" fill="#2563eb"/>
  <circle cx="978.74" cy="298.35" r="2.5" fill="#2563eb"/>
  <circle cx="980.00" cy="298.35" r="2.5" fill="#2563eb"/>
</svg>
