<?xml version="1.0" encoding="UTF-8"?>
<svg xmlns="http://www.w3.org/2000/svg" width="1000" height="420" viewBox="0 0 1000 420">
  <rect width="100%" height="100%" fill="#ffffff"/>
  <text x="70" y="28" font-size="20" font-weight="600">수집 시점 기준 - 시간별 스냅샷</text>
  <text x="70" y="402" font-size="12" fill="#555">스냅샷 수</text>
  <line x1="70" y1="350.00" x2="980" y2="350.00" stroke="#e5e7eb" stroke-width="1"/>
  <text x="62" y="354.00" font-size="11" fill="#6b7280" text-anchor="end">0</text>
  <line x1="70" y1="290.00" x2="980" y2="290.00" stroke="#e5e7eb" stroke-width="1"/>
  <text x="62" y="294.00" font-size="11" fill="#6b7280" text-anchor="end">1,440</text>
  <line x1="70" y1="230.00" x2="980" y2="230.00" stroke="#e5e7eb" stroke-width="1"/>
  <text x="62" y="234.00" font-size="11" fill="#6b7280" text-anchor="end">2,880</text>
  <line x1="70" y1="170.00" x2="980" y2="170.00" stroke="#e5e7eb" stroke-width="1"/>
  <text x="62" y="174.00" font-size="11" fill="#6b7280" text-anchor="end">4,321</text>
  <line x1="70" y1="110.00" x2="980" y2="110.00" stroke="#e5e7eb" stroke-width="1"/>
  <text x="62" y="114.00" font-size="11" fill="#6b7280" text-anchor="end">5,761</text>
  <line x1="70" y1="50.00" x2="980" y2="50.00" stroke="#e5e7eb" stroke-width="1"/>
  <text x="62" y="54.00" font-size="11" fill="#6b7280" text-anchor="end">7,202</text>
  <line x1="70" y1="350" x2="980" y2="350" stroke="#111827" stroke-width="1.2"/>
  <line x1="70" y1="50" x2="70" y2="350" stroke="#111827" stroke-width="1.2"/>
  <line x1="70.00" y1="350" x2="70.00" y2="356" stroke="#9ca3af" stroke-width="1"/>
  <text x="70.00" y="372" font-size="10" fill="#6b7280" text-anchor="middle">2026-02-28 18</text>
  <line x1="144.92" y1="350" x2="144.92" y2="356" stroke="#9ca3af" stroke-width="1"/>
  <text x="144.92" y="372" font-size="10" fill="#6b7280" text-anchor="middle">2026-03-08 20</text>
  <line x1="219.84" y1="350" x2="219.84" y2="356" stroke="#9ca3af" stroke-width="1"/>
  <text x="219.84" y="372" font-size="10" fill="#6b7280" text-anchor="middle">2026-03-10 17</text>
  <line x1="294.76" y1="350" x2="294.76" y2="356" stroke="#9ca3af" stroke-width="1"/>
  <text x="294.76" y="372" font-size="10" fill="#6b7280" text-anchor="middle">2026-03-12 14</text>
  <line x1="369.68" y1="350" x2="369.68" y2="356" stroke="#9ca3af" stroke-width="1"/>
  <text x="369.68" y="372" font-size="10" fill="#6b7280" text-anchor="middle">2026-03-14 12</text>
  <line x1="444.60" y1="350" x2="444.60" y2="356" stroke="#9ca3af" stroke-width="1"/>
  <text x="444.60" y="372" font-size="10" fill="#6b7280" text-anchor="middle">2026-03-17 00</text>
  <line x1="519.52" y1="350" x2="519.52" y2="356" stroke="#9ca3af" stroke-width="1"/>
  <text x="519.52" y="372" font-size="10" fill="#6b7280" text-anchor="middle">2026-03-19 19</text>
  <line x1="594.44" y1="350" x2="594.44" y2="356" stroke="#9ca3af" stroke-width="1"/>
  <text x="594.44" y="372" font-size="10" fill="#6b7280" text-anchor="middle">2026-03-22 02</text>
  <line x1="669.36" y1="350" x2="669.36" y2="356" stroke="#9ca3af" stroke-width="1"/>
  <text x="669.36" y="372" font-size="10" fill="#6b7280" text-anchor="middle">2026-03-24 17</text>
  <line x1="744.28" y1="350" x2="744.28" y2="356" stroke="#9ca3af" stroke-width="1"/>
  <text x="744.28" y="372" font-size="10" fill="#6b7280" text-anchor="middle">2026-03-27 14</text>
  <line x1="819.20" y1="350" x2="819.20" y2="356" stroke="#9ca3af" stroke-width="1"/>
  <text x="819.20" y="372" font-size="10" fill="#6b7280" text-anchor="middle">2026-03-30 06</text>
  <line x1="894.12" y1="350" x2="894.12" y2="356" stroke="#9ca3af" stroke-width="1"/>
  <text x="894.12" y="372" font-size="10" fill="#6b7280" text-anchor="middle">2026-04-02 05</text>
  <line x1="969.04" y1="350" x2="969.04" y2="356" stroke="#9ca3af" stroke-width="1"/>
  <text x="969.04" y="372" font-size="10" fill="#6b7280" text-anchor="middle">2026-04-04 20</text>
  <line x1="980.00" y1="350" x2="980.00" y2="356" stroke="#9ca3af" stroke-width="1"/>
  <text x="980.00" y="372" font-size="10" fill="#6b7280" text-anchor="middle">2026-04-05 06</text>
  <polyline fill="none" stroke="#2563eb" stroke-width="2.5" points="70.00,50.00 71.83,50.12 73.65,50.17 75.48,50.46 77.31,50.00 79.14,266.90 80.96,50.12 82.79,50.08 84.62,177.46 86.45,211.58 88.27,175.34 90.10,304.14 91.93,200.46 93.76,250.94 95.58,300.01 97.41,300.06 99.24,300.01 101.06,300.01 102.89,348.00 104.72,300.01 106.55,249.99 108.37,200.00 110.20,249.99 112.03,249.99 113.86,250.03 115.68,250.03 117.51,250.03 119.34,250.40 121.16,250.90 122.99,250.90 124.82,251.32 126.65,249.94 128.47,300.01 130.30,299.93 132.13,251.03 133.96,300.68 135.78,250.03 137.61,200.00 139.44,249.99 141.27,250.03 143.09,250.03 144.92,250.03 146.75,300.01 148.57,200.04 150.40,250.03 152.23,250.03 154.06,250.03 155.88,249.90 157.71,250.03 159.54,250.03 161.37,250.94 163.19,250.44 165.02,250.03 166.85,250.03 168.67,300.47 170.50,300.01 172.33,300.43 174.16,250.03 175.98,249.99 177.81,300.43 179.64,249.90 181.47,249.99 183.29,249.99 185.12,200.04 186.95,300.01 188.78,300.01 190.60,300.01 192.43,249.90 194.26,300.01 196.08,250.03 197.91,249.99 199.74,199.96 201.57,300.01 203.39,200.00 205.22,250.36 207.05,250.03 208.88,300.01 210.70,300.01 212.53,250.44 214.36,300.01 216.18,250.03 218.01,250.03 219.84,249.99 221.67,250.49 223.49,250.03 225.32,200.04 227.15,300.01 228.98,250.03 230.80,300.01 232.63,250.11 234.46,300.01 236.29,250.03 238.11,250.03 239.94,199.92 241.77,250.03 243.59,250.03 245.42,250.03 247.25,254.36 249.08,300.01 250.90,299.97 252.73,250.36 254.56,299.97 256.39,250.03 258.21,250.03 260.04,250.03 261.87,250.03 263.69,249.99 265.52,200.00 267.35,299.93 269.18,300.01 271.00,299.97 272.83,249.94 274.66,249.99 276.49,249.82 278.31,249.94 280.14,250.28 281.97,207.00 283.80,250.03 285.62,250.32 287.45,250.40 289.28,300.93 291.10,300.01 292.93,300.10 294.76,249.94 296.59,249.99 298.41,250.07 300.24,249.99 302.07,250.03 303.90,249.94 305.72,200.00 307.55,300.39 309.38,300.01 311.20,300.01 313.03,250.44 314.86,300.39 316.69,249.86 318.51,250.11 320.34,201.46 322.17,300.01 324.00,200.83 325.82,250.03 327.65,249.99 329.48,300.26 331.31,300.01 333.13,300.01 334.96,250.03 336.79,250.03 338.61,250.03 340.44,250.03 342.27,249.99 344.10,250.03 345.92,200.00 347.75,300.26 349.58,249.99 351.41,300.01 353.23,249.94 355.06,250.03 356.89,250.03 358.71,250.03 360.54,200.04 362.37,300.01 364.20,249.90 366.02,300.01 367.85,300.01 369.68,300.06 371.51,300.01 373.33,300.01 375.16,243.95 376.99,249.94 378.82,299.97 380.64,300.01 382.47,300.01 384.30,250.03 386.12,300.01 387.95,300.01 389.78,299.97 391.61,249.99 393.43,300.01 395.26,299.93 397.09,300.01 398.92,299.93 400.74,300.01 402.57,300.01 404.40,299.89 406.22,299.97 408.05,250.03 409.88,299.93 411.71,299.89 413.53,299.97 415.36,249.94 417.19,300.01 419.02,300.01 420.84,299.97 422.67,249.99 424.50,299.97 426.33,299.97 428.15,300.06 429.98,300.06 431.81,299.93 433.63,300.01 435.46,300.01 437.29,299.93 439.12,300.01 440.94,300.01 442.77,299.97 444.60,300.01 446.43,300.01 448.25,300.01 450.08,300.01 451.91,249.86 453.73,300.01 455.56,300.10 457.39,299.93 459.22,300.01 461.04,299.93 462.87,300.01 464.70,300.01 466.53,300.01 468.35,300.01 470.18,300.01 472.01,299.97 473.84,300.01 475.66,300.01 477.49,300.01 479.32,300.01 481.14,250.03 482.97,300.01 484.80,300.01 486.63,299.97 488.45,300.01 490.28,300.01 492.11,299.97 493.94,299.97 495.76,300.01 497.59,299.97 499.42,300.01 501.24,299.93 503.07,300.01 504.90,250.03 506.73,300.01 508.55,300.01 510.38,300.01 512.21,300.01 514.04,300.01 515.86,299.89 517.69,300.01 519.52,300.01 521.35,250.07 523.17,300.01 525.00,299.93 526.83,300.01 528.65,299.97 530.48,299.97 532.31,299.97 534.14,250.03 535.96,300.01 537.79,300.01 539.62,300.01 541.45,300.01 543.27,299.97 545.10,300.01 546.93,299.97 548.76,300.01 550.58,299.97 552.41,249.90 554.24,300.01 556.06,300.01 557.89,299.89 559.72,299.97 561.55,299.97 563.37,249.99 565.20,299.97 567.03,299.89 568.86,300.01 570.68,299.97 572.51,299.97 574.34,300.01 576.16,299.97 577.99,249.99 579.82,299.97 581.65,299.97 583.47,300.06 585.30,300.06 587.13,249.94 588.96,300.01 590.78,299.93 592.61,300.01 594.44,300.01 596.27,249.99 598.09,300.01 599.92,300.01 601.75,300.01 603.57,299.93 605.40,299.93 607.23,300.01 609.06,300.01 610.88,249.94 612.71,299.97 614.54,299.97 616.37,300.01 618.19,300.01 620.02,300.01 621.85,249.99 623.67,300.01 625.50,300.01 627.33,300.01 629.16,250.03 630.98,300.01 632.81,300.01 634.64,300.01 636.47,299.97 638.29,300.01 640.12,300.01 641.95,299.97 643.78,299.97 645.60,300.01 647.43,300.01 649.26,299.97 651.08,299.93 652.91,300.01 654.74,300.06 656.57,299.97 658.39,300.01 660.22,250.03 662.05,250.03 663.88,299.93 665.70,299.97 667.53,300.01 669.36,300.01 671.18,300.06 673.01,300.01 674.84,299.93 676.67,300.01 678.49,300.01 680.32,299.97 682.15,299.97 683.98,300.01 685.80,250.03 687.63,300.01 689.46,300.01 691.29,300.01 693.11,299.97 694.94,300.01 696.77,299.97 698.59,300.01 700.42,299.97 702.25,299.97 704.08,299.93 705.90,300.01 707.73,300.01 709.56,299.89 711.39,299.97 713.21,299.97 715.04,300.06 716.87,249.90 718.69,299.89 720.52,300.01 722.35,299.97 724.18,299.97 726.00,299.97 727.83,300.01 729.66,300.01 731.49,299.97 733.31,299.97 735.14,299.97 736.97,250.03 738.80,299.93 740.62,300.01 742.45,300.01 744.28,299.93 746.10,300.01 747.93,300.01 749.76,299.97 751.59,300.01 753.41,300.01 755.24,300.06 757.07,300.01 758.90,299.97 760.72,299.89 762.55,300.01 764.38,300.01 766.20,249.94 768.03,249.94 769.86,300.01 771.69,300.01 773.51,300.01 775.34,300.01 777.17,299.97 779.00,250.03 780.82,300.01 782.65,300.01 784.48,300.01 786.31,300.01 788.13,250.03 789.96,249.99 791.79,300.01 793.61,299.97 795.44,300.01 797.27,299.97 799.10,300.01 800.92,299.97 802.75,299.97 804.58,299.97 806.41,300.06 808.23,249.99 810.06,300.01 811.89,250.03 813.71,249.94 815.54,249.99 817.37,300.01 819.20,300.06 821.02,300.01 822.85,299.97 824.68,299.97 826.51,300.01 828.33,299.93 830.16,299.89 831.99,299.89 833.82,299.89 835.64,299.89 837.47,299.85 839.30,299.85 841.12,299.89 842.95,299.81 844.78,299.81 846.61,299.81 848.43,299.76 850.26,299.76 852.09,299.76 853.92,299.72 855.74,299.68 857.57,299.60 859.40,299.60 861.22,299.60 863.05,299.56 864.88,299.47 866.71,299.43 868.53,299.43 870.36,299.39 872.19,299.47 874.02,259.82 875.84,338.96 877.67,299.31 879.50,299.31 881.33,299.26 883.15,299.68 884.98,299.68 886.81,299.68 888.63,299.64 890.46,299.14 892.29,299.14 894.12,299.10 895.94,299.10 897.77,299.10 899.60,248.07 901.43,299.06 903.25,299.06 905.08,299.06 906.91,299.06 908.73,299.06 910.56,298.97 912.39,298.97 914.22,298.93 916.04,298.97 917.87,298.93 919.70,298.89 921.53,298.89 923.35,298.89 925.18,298.89 927.01,247.78 928.84,298.89 930.66,298.89 932.49,298.85 934.32,298.85 936.14,298.81 937.97,298.81 939.80,298.81 941.63,298.81 943.45,298.81 945.28,298.81 947.11,298.81 948.94,298.81 950.76,298.81 952.59,298.72 954.42,247.45 956.24,247.45 958.07,298.72 959.90,298.72 961.73,298.72 963.55,298.72 965.38,298.72 967.21,298.72 969.04,247.36 970.86,298.68 972.69,247.36 974.52,247.36 976.35,247.36 978.17,298.68 980.00,298.68"/>
  <circle cx="70.00" cy="50.00" r="2.5" fill="#2563eb"/>
  <circle cx="71.83" cy="50.12" r="2.5" fill="#2563eb"/>
  <circle cx="73.65" cy="50.17" r="2.5" fill="#2563eb"/>
  <circle cx="75.48" cy="50.46" r="2.5" fill="#2563eb"/>
  <circle cx="77.31" cy="50.00" r="2.5" fill="#2563eb"/>
  <circle cx="79.14" cy="266.90" r="2.5" fill="#2563eb"/>
  <circle cx="80.96" cy="50.12" r="2.5" fill="#2563eb"/>
  <circle cx="82.79" cy="50.08" r="2.5" fill="#2563eb"/>
  <circle cx="84.62" cy="177.46" r="2.5" fill="#2563eb"/>
  <circle cx="86.45" cy="211.58" r="2.5" fill="#2563eb"/>
  <circle cx="88.27" cy="175.34" r="2.5" fill="#2563eb"/>
  <circle cx="90.10" cy="304.14" r="2.5" fill="#2563eb"/>
  <circle cx="91.93" cy="200.46" r="2.5" fill="#2563eb"/>
  <circle cx="93.76" cy="250.94" r="2.5" fill="#2563eb"/>
  <circle cx="95.58" cy="300.01" r="2.5" fill="#2563eb"/>
  <circle cx="97.41" cy="300.06" r="2.5" fill="#2563eb"/>
  <circle cx="99.24" cy="300.01" r="2.5" fill="#2563eb"/>
  <circle cx="101.06" cy="300.01" r="2.5" fill="#2563eb"/>
  <circle cx="102.89" cy="348.00" r="2.5" fill="#2563eb"/>
  <circle cx="104.72" cy="300.01" r="2.5" fill="#2563eb"/>
  <circle cx="106.55" cy="249.99" r="2.5" fill="#2563eb"/>
  <circle cx="108.37" cy="200.00" r="2.5" fill="#2563eb"/>
  <circle cx="110.20" cy="249.99" r="2.5" fill="#2563eb"/>
  <circle cx="112.03" cy="249.99" r="2.5" fill="#2563eb"/>
  <circle cx="113.86" cy="250.03" r="2.5" fill="#2563eb"/>
  <circle cx="115.68" cy="250.03" r="2.5" fill="#2563eb"/>
  <circle cx="117.51" cy="250.03" r="2.5" fill="#2563eb"/>
  <circle cx="119.34" cy="250.40" r="2.5" fill="#2563eb"/>
  <circle cx="121.16" cy="250.90" r="2.5" fill="#2563eb"/>
  <circle cx="122.99" cy="250.90" r="2.5" fill="#2563eb"/>
  <circle cx="124.82" cy="251.32" r="2.5" fill="#2563eb"/>
  <circle cx="126.65" cy="249.94" r="2.5" fill="#2563eb"/>
  <circle cx="128.47" cy="300.01" r="2.5" fill="#2563eb"/>
  <circle cx="130.30" cy="299.93" r="2.5" fill="#2563eb"/>
  <circle cx="132.13" cy="251.03" r="2.5" fill="#2563eb"/>
  <circle cx="133.96" cy="300.68" r="2.5" fill="#2563eb"/>
  <circle cx="135.78" cy="250.03" r="2.5" fill="#2563eb"/>
  <circle cx="137.61" cy="200.00" r="2.5" fill="#2563eb"/>
  <circle cx="139.44" cy="249.99" r="2.5" fill="#2563eb"/>
  <circle cx="141.27" cy="250.03" r="2.5" fill="#2563eb"/>
  <circle cx="143.09" cy="250.03" r="2.5" fill="#2563eb"/>
  <circle cx="144.92" cy="250.03" r="2.5" fill="#2563eb"/>
  <circle cx="146.75" cy="300.01" r="2.5" fill="#2563eb"/>
  <circle cx="148.57" cy="200.04" r="2.5" fill="#2563eb"/>
  <circle cx="150.40" cy="250.03" r="2.5" fill="#2563eb"/>
  <circle cx="152.23" cy="250.03" r="2.5" fill="#2563eb"/>
  <circle cx="154.06" cy="250.03" r="2.5" fill="#2563eb"/>
  <circle cx="155.88" cy="249.90" r="2.5" fill="#2563eb"/>
  <circle cx="157.71" cy="250.03" r="2.5" fill="#2563eb"/>
  <circle cx="159.54" cy="250.03" r="2.5" fill="#2563eb"/>
  <circle cx="161.37" cy="250.94" r="2.5" fill="#2563eb"/>
  <circle cx="163.19" cy="250.44" r="2.5" fill="#2563eb"/>
  <circle cx="165.02" cy="250.03" r="2.5" fill="#2563eb"/>
  <circle cx="166.85" cy="250.03" r="2.5" fill="#2563eb"/>
  <circle cx="168.67" cy="300.47" r="2.5" fill="#2563eb"/>
  <circle cx="170.50" cy="300.01" r="2.5" fill="#2563eb"/>
  <circle cx="172.33" cy="300.43" r="2.5" fill="#2563eb"/>
  <circle cx="174.16" cy="250.03" r="2.5" fill="#2563eb"/>
  <circle cx="175.98" cy="249.99" r="2.5" fill="#2563eb"/>
  <circle cx="177.81" cy="300.43" r="2.5" fill="#2563eb"/>
  <circle cx="179.64" cy="249.90" r="2.5" fill="#2563eb"/>
  <circle cx="181.47" cy="249.99" r="2.5" fill="#2563eb"/>
  <circle cx="183.29" cy="249.99" r="2.5" fill="#2563eb"/>
  <circle cx="185.12" cy="200.04" r="2.5" fill="#2563eb"/>
  <circle cx="186.95" cy="300.01" r="2.5" fill="#2563eb"/>
  <circle cx="188.78" cy="300.01" r="2.5" fill="#2563eb"/>
  <circle cx="190.60" cy="300.01" r="2.5" fill="#2563eb"/>
  <circle cx="192.43" cy="249.90" r="2.5" fill="#2563eb"/>
  <circle cx="194.26" cy="300.01" r="2.5" fill="#2563eb"/>
  <circle cx="196.08" cy="250.03" r="2.5" fill="#2563eb"/>
  <circle cx="197.91" cy="249.99" r="2.5" fill="#2563eb"/>
  <circle cx="199.74" cy="199.96" r="2.5" fill="#2563eb"/>
  <circle cx="201.57" cy="300.01" r="2.5" fill="#2563eb"/>
  <circle cx="203.39" cy="200.00" r="2.5" fill="#2563eb"/>
  <circle cx="205.22" cy="250.36" r="2.5" fill="#2563eb"/>
  <circle cx="207.05" cy="250.03" r="2.5" fill="#2563eb"/>
  <circle cx="208.88" cy="300.01" r="2.5" fill="#2563eb"/>
  <circle cx="210.70" cy="300.01" r="2.5" fill="#2563eb"/>
  <circle cx="212.53" cy="250.44" r="2.5" fill="#2563eb"/>
  <circle cx="214.36" cy="300.01" r="2.5" fill="#2563eb"/>
  <circle cx="216.18" cy="250.03" r="2.5" fill="#2563eb"/>
  <circle cx="218.01" cy="250.03" r="2.5" fill="#2563eb"/>
  <circle cx="219.84" cy="249.99" r="2.5" fill="#2563eb"/>
  <circle cx="221.67" cy="250.49" r="2.5" fill="#2563eb"/>
  <circle cx="223.49" cy="250.03" r="2.5" fill="#2563eb"/>
  <circle cx="225.32" cy="200.04" r="2.5" fill="#2563eb"/>
  <circle cx="227.15" cy="300.01" r="2.5" fill="#2563eb"/>
  <circle cx="228.98" cy="250.03" r="2.5" fill="#2563eb"/>
  <circle cx="230.80" cy="300.01" r="2.5" fill="#2563eb"/>
  <circle cx="232.63" cy="250.11" r="2.5" fill="#2563eb"/>
  <circle cx="234.46" cy="300.01" r="2.5" fill="#2563eb"/>
  <circle cx="236.29" cy="250.03" r="2.5" fill="#2563eb"/>
  <circle cx="238.11" cy="250.03" r="2.5" fill="#2563eb"/>
  <circle cx="239.94" cy="199.92" r="2.5" fill="#2563eb"/>
  <circle cx="241.77" cy="250.03" r="2.5" fill="#2563eb"/>
  <circle cx="243.59" cy="250.03" r="2.5" fill="#2563eb"/>
  <circle cx="245.42" cy="250.03" r="2.5" fill="#2563eb"/>
  <circle cx="247.25" cy="254.36" r="2.5" fill="#2563eb"/>
  <circle cx="249.08" cy="300.01" r="2.5" fill="#2563eb"/>
  <circle cx="250.90" cy="299.97" r="2.5" fill="#2563eb"/>
  <circle cx="252.73" cy="250.36" r="2.5" fill="#2563eb"/>
  <circle cx="254.56" cy="299.97" r="2.5" fill="#2563eb"/>
  <circle cx="256.39" cy="250.03" r="2.5" fill="#2563eb"/>
  <circle cx="258.21" cy="250.03" r="2.5" fill="#2563eb"/>
  <circle cx="260.04" cy="250.03" r="2.5" fill="#2563eb"/>
  <circle cx="261.87" cy="250.03" r="2.5" fill="#2563eb"/>
  <circle cx="263.69" cy="249.99" r="2.5" fill="#2563eb"/>
  <circle cx="265.52" cy="200.00" r="2.5" fill="#2563eb"/>
  <circle cx="267.35" cy="299.93" r="2.5" fill="#2563eb"/>
  <circle cx="269.18" cy="300.01" r="2.5" fill="#2563eb"/>
  <circle cx="271.00" cy="299.97" r="2.5" fill="#2563eb"/>
  <circle cx="272.83" cy="249.94" r="2.5" fill="#2563eb"/>
  <circle cx="274.66" cy="249.99" r="2.5" fill="#2563eb"/>
  <circle cx="276.49" cy="249.82" r="2.5" fill="#2563eb"/>
  <circle cx="278.31" cy="249.94" r="2.5" fill="#2563eb"/>
  <circle cx="280.14" cy="250.28" r="2.5" fill="#2563eb"/>
  <circle cx="281.97" cy="207.00" r="2.5" fill="#2563eb"/>
  <circle cx="283.80" cy="250.03" r="2.5" fill="#2563eb"/>
  <circle cx="285.62" cy="250.32" r="2.5" fill="#2563eb"/>
  <circle cx="287.45" cy="250.40" r="2.5" fill="#2563eb"/>
  <circle cx="289.28" cy="300.93" r="2.5" fill="#2563eb"/>
  <circle cx="291.10" cy="300.01" r="2.5" fill="#2563eb"/>
  <circle cx="292.93" cy="300.10" r="2.5" fill="#2563eb"/>
  <circle cx="294.76" cy="249.94" r="2.5" fill="#2563eb"/>
  <circle cx="296.59" cy="249.99" r="2.5" fill="#2563eb"/>
  <circle cx="298.41" cy="250.07" r="2.5" fill="#2563eb"/>
  <circle cx="300.24" cy="249.99" r="2.5" fill="#2563eb"/>
  <circle cx="302.07" cy="250.03" r="2.5" fill="#2563eb"/>
  <circle cx="303.90" cy="249.94" r="2.5" fill="#2563eb"/>
  <circle cx="305.72" cy="200.00" r="2.5" fill="#2563eb"/>
  <circle cx="307.55" cy="300.39" r="2.5" fill="#2563eb"/>
  <circle cx="309.38" cy="300.01" r="2.5" fill="#2563eb"/>
  <circle cx="311.20" cy="300.01" r="2.5" fill="#2563eb"/>
  <circle cx="313.03" cy="250.44" r="2.5" fill="#2563eb"/>
  <circle cx="314.86" cy="300.39" r="2.5" fill="#2563eb"/>
  <circle cx="316.69" cy="249.86" r="2.5" fill="#2563eb"/>
  <circle cx="318.51" cy="250.11" r="2.5" fill="#2563eb"/>
  <circle cx="320.34" cy="201.46" r="2.5" fill="#2563eb"/>
  <circle cx="322.17" cy="300.01" r="2.5" fill="#2563eb"/>
  <circle cx="324.00" cy="200.83" r="2.5" fill="#2563eb"/>
  <circle cx="325.82" cy="250.03" r="2.5" fill="#2563eb"/>
  <circle cx="327.65" cy="249.99" r="2.5" fill="#2563eb"/>
  <circle cx="329.48" cy="300.26" r="2.5" fill="#2563eb"/>
  <circle cx="331.31" cy="300.01" r="2.5" fill="#2563eb"/>
  <circle cx="333.13" cy="300.01" r="2.5" fill="#2563eb"/>
  <circle cx="334.96" cy="250.03" r="2.5" fill="#2563eb"/>
  <circle cx="336.79" cy="250.03" r="2.5" fill="#2563eb"/>
  <circle cx="338.61" cy="250.03" r="2.5" fill="#2563eb"/>
  <circle cx="340.44" cy="250.03" r="2.5" fill="#2563eb"/>
  <circle cx="342.27" cy="249.99" r="2.5" fill="#2563eb"/>
  <circle cx="344.10" cy="250.03" r="2.5" fill="#2563eb"/>
  <circle cx="345.92" cy="200.00" r="2.5" fill="#2563eb"/>
  <circle cx="347.75" cy="300.26" r="2.5" fill="#2563eb"/>
  <circle cx="349.58" cy="249.99" r="2.5" fill="#2563eb"/>
  <circle cx="351.41" cy="300.01" r="2.5" fill="#2563eb"/>
  <circle cx="353.23" cy="249.94" r="2.5" fill="#2563eb"/>
  <circle cx="355.06" cy="250.03" r="2.5" fill="#2563eb"/>
  <circle cx="356.89" cy="250.03" r="2.5" fill="#2563eb"/>
  <circle cx="358.71" cy="250.03" r="2.5" fill="#2563eb"/>
  <circle cx="360.54" cy="200.04" r="2.5" fill="#2563eb"/>
  <circle cx="362.37" cy="300.01" r="2.5" fill="#2563eb"/>
  <circle cx="364.20" cy="249.90" r="2.5" fill="#2563eb"/>
  <circle cx="366.02" cy="300.01" r="2.5" fill="#2563eb"/>
  <circle cx="367.85" cy="300.01" r="2.5" fill="#2563eb"/>
  <circle cx="369.68" cy="300.06" r="2.5" fill="#2563eb"/>
  <circle cx="371.51" cy="300.01" r="2.5" fill="#2563eb"/>
  <circle cx="373.33" cy="300.01" r="2.5" fill="#2563eb"/>
  <circle cx="375.16" cy="243.95" r="2.5" fill="#2563eb"/>
  <circle cx="376.99" cy="249.94" r="2.5" fill="#2563eb"/>
  <circle cx="378.82" cy="299.97" r="2.5" fill="#2563eb"/>
  <circle cx="380.64" cy="300.01" r="2.5" fill="#2563eb"/>
  <circle cx="382.47" cy="300.01" r="2.5" fill="#2563eb"/>
  <circle cx="384.30" cy="250.03" r="2.5" fill="#2563eb"/>
  <circle cx="386.12" cy="300.01" r="2.5" fill="#2563eb"/>
  <circle cx="387.95" cy="300.01" r="2.5" fill="#2563eb"/>
  <circle cx="389.78" cy="299.97" r="2.5" fill="#2563eb"/>
  <circle cx="391.61" cy="249.99" r="2.5" fill="#2563eb"/>
  <circle cx="393.43" cy="300.01" r="2.5" fill="#2563eb"/>
  <circle cx="395.26" cy="299.93" r="2.5" fill="#2563eb"/>
  <circle cx="397.09" cy="300.01" r="2.5" fill="#2563eb"/>
  <circle cx="398.92" cy="299.93" r="2.5" fill="#2563eb"/>
  <circle cx="400.74" cy="300.01" r="2.5" fill="#2563eb"/>
  <circle cx="402.57" cy="300.01" r="2.5" fill="#2563eb"/>
  <circle cx="404.40" cy="299.89" r="2.5" fill="#2563eb"/>
  <circle cx="406.22" cy="299.97" r="2.5" fill="#2563eb"/>
  <circle cx="408.05" cy="250.03" r="2.5" fill="#2563eb"/>
  <circle cx="409.88" cy="299.93" r="2.5" fill="#2563eb"/>
  <circle cx="411.71" cy="299.89" r="2.5" fill="#2563eb"/>
  <circle cx="413.53" cy="299.97" r="2.5" fill="#2563eb"/>
  <circle cx="415.36" cy="249.94" r="2.5" fill="#2563eb"/>
  <circle cx="417.19" cy="300.01" r="2.5" fill="#2563eb"/>
  <circle cx="419.02" cy="300.01" r="2.5" fill="#2563eb"/>
  <circle cx="420.84" cy="299.97" r="2.5" fill="#2563eb"/>
  <circle cx="422.67" cy="249.99" r="2.5" fill="#2563eb"/>
  <circle cx="424.50" cy="299.97" r="2.5" fill="#2563eb"/>
  <circle cx="426.33" cy="299.97" r="2.5" fill="#2563eb"/>
  <circle cx="428.15" cy="300.06" r="2.5" fill="#2563eb"/>
  <circle cx="429.98" cy="300.06" r="2.5" fill="#2563eb"/>
  <circle cx="431.81" cy="299.93" r="2.5" fill="#2563eb"/>
  <circle cx="433.63" cy="300.01" r="2.5" fill="#2563eb"/>
  <circle cx="435.46" cy="300.01" r="2.5" fill="#2563eb"/>
  <circle cx="437.29" cy="299.93" r="2.5" fill="#2563eb"/>
  <circle cx="439.12" cy="300.01" r="2.5" fill="#2563eb"/>
  <circle cx="440.94" cy="300.01" r="2.5" fill="#2563eb"/>
  <circle cx="442.77" cy="299.97" r="2.5" fill="#2563eb"/>
  <circle cx="444.60" cy="300.01" r="2.5" fill="#2563eb"/>
  <circle cx="446.43" cy="300.01" r="2.5" fill="#2563eb"/>
  <circle cx="448.25" cy="300.01" r="2.5" fill="#2563eb"/>
  <circle cx="450.08" cy="300.01" r="2.5" fill="#2563eb"/>
  <circle cx="451.91" cy="249.86" r="2.5" fill="#2563eb"/>
  <circle cx="453.73" cy="300.01" r="2.5" fill="#2563eb"/>
  <circle cx="455.56" cy="300.10" r="2.5" fill="#2563eb"/>
  <circle cx="457.39" cy="299.93" r="2.5" fill="#2563eb"/>
  <circle cx="459.22" cy="300.01" r="2.5" fill="#2563eb"/>
  <circle cx="461.04" cy="299.93" r="2.5" fill="#2563eb"/>
  <circle cx="462.87" cy="300.01" r="2.5" fill="#2563eb"/>
  <circle cx="464.70" cy="300.01" r="2.5" fill="#2563eb"/>
  <circle cx="466.53" cy="300.01" r="2.5" fill="#2563eb"/>
  <circle cx="468.35" cy="300.01" r="2.5" fill="#2563eb"/>
  <circle cx="470.18" cy="300.01" r="2.5" fill="#2563eb"/>
  <circle cx="472.01" cy="299.97" r="2.5" fill="#2563eb"/>
  <circle cx="473.84" cy="300.01" r="2.5" fill="#2563eb"/>
  <circle cx="475.66" cy="300.01" r="2.5" fill="#2563eb"/>
  <circle cx="477.49" cy="300.01" r="2.5" fill="#2563eb"/>
  <circle cx="479.32" cy="300.01" r="2.5" fill="#2563eb"/>
  <circle cx="481.14" cy="250.03" r="2.5" fill="#2563eb"/>
  <circle cx="482.97" cy="300.01" r="2.5" fill="#2563eb"/>
  <circle cx="484.80" cy="300.01" r="2.5" fill="#2563eb"/>
  <circle cx="486.63" cy="299.97" r="2.5" fill="#2563eb"/>
  <circle cx="488.45" cy="300.01" r="2.5" fill="#2563eb"/>
  <circle cx="490.28" cy="300.01" r="2.5" fill="#2563eb"/>
  <circle cx="492.11" cy="299.97" r="2.5" fill="#2563eb"/>
  <circle cx="493.94" cy="299.97" r="2.5" fill="#2563eb"/>
  <circle cx="495.76" cy="300.01" r="2.5" fill="#2563eb"/>
  <circle cx="497.59" cy="299.97" r="2.5" fill="#2563eb"/>
  <circle cx="499.42" cy="300.01" r="2.5" fill="#2563eb"/>
  <circle cx="501.24" cy="299.93" r="2.5" fill="#2563eb"/>
  <circle cx="503.07" cy="300.01" r="2.5" fill="#2563eb"/>
  <circle cx="504.90" cy="250.03" r="2.5" fill="#2563eb"/>
  <circle cx="506.73" cy="300.01" r="2.5" fill="#2563eb"/>
  <circle cx="508.55" cy="300.01" r="2.5" fill="#2563eb"/>
  <circle cx="510.38" cy="300.01" r="2.5" fill="#2563eb"/>
  <circle cx="512.21" cy="300.01" r="2.5" fill="#2563eb"/>
  <circle cx="514.04" cy="300.01" r="2.5" fill="#2563eb"/>
  <circle cx="515.86" cy="299.89" r="2.5" fill="#2563eb"/>
  <circle cx="517.69" cy="300.01" r="2.5" fill="#2563eb"/>
  <circle cx="519.52" cy="300.01" r="2.5" fill="#2563eb"/>
  <circle cx="521.35" cy="250.07" r="2.5" fill="#2563eb"/>
  <circle cx="523.17" cy="300.01" r="2.5" fill="#2563eb"/>
  <circle cx="525.00" cy="299.93" r="2.5" fill="#2563eb"/>
  <circle cx="526.83" cy="300.01" r="2.5" fill="#2563eb"/>
  <circle cx="528.65" cy="299.97" r="2.5" fill="#2563eb"/>
  <circle cx="530.48" cy="299.97" r="2.5" fill="#2563eb"/>
  <circle cx="532.31" cy="299.97" r="2.5" fill="#2563eb"/>
  <circle cx="534.14" cy="250.03" r="2.5" fill="#2563eb"/>
  <circle cx="535.96" cy="300.01" r="2.5" fill="#2563eb"/>
  <circle cx="537.79" cy="300.01" r="2.5" fill="#2563eb"/>
  <circle cx="539.62" cy="300.01" r="2.5" fill="#2563eb"/>
  <circle cx="541.45" cy="300.01" r="2.5" fill="#2563eb"/>
  <circle cx="543.27" cy="299.97" r="2.5" fill="#2563eb"/>
  <circle cx="545.10" cy="300.01" r="2.5" fill="#2563eb"/>
  <circle cx="546.93" cy="299.97" r="2.5" fill="#2563eb"/>
  <circle cx="548.76" cy="300.01" r="2.5" fill="#2563eb"/>
  <circle cx="550.58" cy="299.97" r="2.5" fill="#2563eb"/>
  <circle cx="552.41" cy="249.90" r="2.5" fill="#2563eb"/>
  <circle cx="554.24" cy="300.01" r="2.5" fill="#2563eb"/>
  <circle cx="556.06" cy="300.01" r="2.5" fill="#2563eb"/>
  <circle cx="557.89" cy="299.89" r="2.5" fill="#2563eb"/>
  <circle cx="559.72" cy="299.97" r="2.5" fill="#2563eb"/>
  <circle cx="561.55" cy="299.97" r="2.5" fill="#2563eb"/>
  <circle cx="563.37" cy="249.99" r="2.5" fill="#2563eb"/>
  <circle cx="565.20" cy="299.97" r="2.5" fill="#2563eb"/>
  <circle cx="567.03" cy="299.89" r="2.5" fill="#2563eb"/>
  <circle cx="568.86" cy="300.01" r="2.5" fill="#2563eb"/>
  <circle cx="570.68" cy="299.97" r="2.5" fill="#2563eb"/>
  <circle cx="572.51" cy="299.97" r="2.5" fill="#2563eb"/>
  <circle cx="574.34" cy="300.01" r="2.5" fill="#2563eb"/>
  <circle cx="576.16" cy="299.97" r="2.5" fill="#2563eb"/>
  <circle cx="577.99" cy="249.99" r="2.5" fill="#2563eb"/>
  <circle cx="579.82" cy="299.97" r="2.5" fill="#2563eb"/>
  <circle cx="581.65" cy="299.97" r="2.5" fill="#2563eb"/>
  <circle cx="583.47" cy="300.06" r="2.5" fill="#2563eb"/>
  <circle cx="585.30" cy="300.06" r="2.5" fill="#2563eb"/>
  <circle cx="587.13" cy="249.94" r="2.5" fill="#2563eb"/>
  <circle cx="588.96" cy="300.01" r="2.5" fill="#2563eb"/>
  <circle cx="590.78" cy="299.93" r="2.5" fill="#2563eb"/>
  <circle cx="592.61" cy="300.01" r="2.5" fill="#2563eb"/>
  <circle cx="594.44" cy="300.01" r="2.5" fill="#2563eb"/>
  <circle cx="596.27" cy="249.99" r="2.5" fill="#2563eb"/>
  <circle cx="598.09" cy="300.01" r="2.5" fill="#2563eb"/>
  <circle cx="599.92" cy="300.01" r="2.5" fill="#2563eb"/>
  <circle cx="601.75" cy="300.01" r="2.5" fill="#2563eb"/>
  <circle cx="603.57" cy="299.93" r="2.5" fill="#2563eb"/>
  <circle cx="605.40" cy="299.93" r="2.5" fill="#2563eb"/>
  <circle cx="607.23" cy="300.01" r="2.5" fill="#2563eb"/>
  <circle cx="609.06" cy="300.01" r="2.5" fill="#2563eb"/>
  <circle cx="610.88" cy="249.94" r="2.5" fill="#2563eb"/>
  <circle cx="612.71" cy="299.97" r="2.5" fill="#2563eb"/>
  <circle cx="614.54" cy="299.97" r="2.5" fill="#2563eb"/>
  <circle cx="616.37" cy="300.01" r="2.5" fill="#2563eb"/>
  <circle cx="618.19" cy="300.01" r="2.5" fill="#2563eb"/>
  <circle cx="620.02" cy="300.01" r="2.5" fill="#2563eb"/>
  <circle cx="621.85" cy="249.99" r="2.5" fill="#2563eb"/>
  <circle cx="623.67" cy="300.01" r="2.5" fill="#2563eb"/>
  <circle cx="625.50" cy="300.01" r="2.5" fill="#2563eb"/>
  <circle cx="627.33" cy="300.01" r="2.5" fill="#2563eb"/>
  <circle cx="629.16" cy="250.03" r="2.5" fill="#2563eb"/>
  <circle cx="630.98" cy="300.01" r="2.5" fill="#2563eb"/>
  <circle cx="632.81" cy="300.01" r="2.5" fill="#2563eb"/>
  <circle cx="634.64" cy="300.01" r="2.5" fill="#2563eb"/>
  <circle cx="636.47" cy="299.97" r="2.5" fill="#2563eb"/>
  <circle cx="638.29" cy="300.01" r="2.5" fill="#2563eb"/>
  <circle cx="640.12" cy="300.01" r="2.5" fill="#2563eb"/>
  <circle cx="641.95" cy="299.97" r="2.5" fill="#2563eb"/>
  <circle cx="643.78" cy="299.97" r="2.5" fill="#2563eb"/>
  <circle cx="645.60" cy="300.01" r="2.5" fill="#2563eb"/>
  <circle cx="647.43" cy="300.01" r="2.5" fill="#2563eb"/>
  <circle cx="649.26" cy="299.97" r="2.5" fill="#2563eb"/>
  <circle cx="651.08" cy="299.93" r="2.5" fill="#2563eb"/>
  <circle cx="652.91" cy="300.01" r="2.5" fill="#2563eb"/>
  <circle cx="654.74" cy="300.06" r="2.5" fill="#2563eb"/>
  <circle cx="656.57" cy="299.97" r="2.5" fill="#2563eb"/>
  <circle cx="658.39" cy="300.01" r="2.5" fill="#2563eb"/>
  <circle cx="660.22" cy="250.03" r="2.5" fill="#2563eb"/>
  <circle cx="662.05" cy="250.03" r="2.5" fill="#2563eb"/>
  <circle cx="663.88" cy="299.93" r="2.5" fill="#2563eb"/>
  <circle cx="665.70" cy="299.97" r="2.5" fill="#2563eb"/>
  <circle cx="667.53" cy="300.01" r="2.5" fill="#2563eb"/>
  <circle cx="669.36" cy="300.01" r="2.5" fill="#2563eb"/>
  <circle cx="671.18" cy="300.06" r="2.5" fill="#2563eb"/>
  <circle cx="673.01" cy="300.01" r="2.5" fill="#2563eb"/>
  <circle cx="674.84" cy="299.93" r="2.5" fill="#2563eb"/>
  <circle cx="676.67" cy="300.01" r="2.5" fill="#2563eb"/>
  <circle cx="678.49" cy="300.01" r="2.5" fill="#2563eb"/>
  <circle cx="680.32" cy="299.97" r="2.5" fill="#2563eb"/>
  <circle cx="682.15" cy="299.97" r="2.5" fill="#2563eb"/>
  <circle cx="683.98" cy="300.01" r="2.5" fill="#2563eb"/>
  <circle cx="685.80" cy="250.03" r="2.5" fill="#2563eb"/>
  <circle cx="687.63" cy="300.01" r="2.5" fill="#2563eb"/>
  <circle cx="689.46" cy="300.01" r="2.5" fill="#2563eb"/>
  <circle cx="691.29" cy="300.01" r="2.5" fill="#2563eb"/>
  <circle cx="693.11" cy="299.97" r="2.5" fill="#2563eb"/>
  <circle cx="694.94" cy="300.01" r="2.5" fill="#2563eb"/>
  <circle cx="696.77" cy="299.97" r="2.5" fill="#2563eb"/>
  <circle cx="698.59" cy="300.01" r="2.5" fill="#2563eb"/>
  <circle cx="700.42" cy="299.97" r="2.5" fill="#2563eb"/>
  <circle cx="702.25" cy="299.97" r="2.5" fill="#2563eb"/>
  <circle cx="704.08" cy="299.93" r="2.5" fill="#2563eb"/>
  <circle cx="705.90" cy="300.01" r="2.5" fill="#2563eb"/>
  <circle cx="707.73" cy="300.01" r="2.5" fill="#2563eb"/>
  <circle cx="709.56" cy="299.89" r="2.5" fill="#2563eb"/>
  <circle cx="711.39" cy="299.97" r="2.5" fill="#2563eb"/>
  <circle cx="713.21" cy="299.97" r="2.5" fill="#2563eb"/>
  <circle cx="715.04" cy="300.06" r="2.5" fill="#2563eb"/>
  <circle cx="716.87" cy="249.90" r="2.5" fill="#2563eb"/>
  <circle cx="718.69" cy="299.89" r="2.5" fill="#2563eb"/>
  <circle cx="720.52" cy="300.01" r="2.5" fill="#2563eb"/>
  <circle cx="722.35" cy="299.97" r="2.5" fill="#2563eb"/>
  <circle cx="724.18" cy="299.97" r="2.5" fill="#2563eb"/>
  <circle cx="726.00" cy="299.97" r="2.5" fill="#2563eb"/>
  <circle cx="727.83" cy="300.01" r="2.5" fill="#2563eb"/>
  <circle cx="729.66" cy="300.01" r="2.5" fill="#2563eb"/>
  <circle cx="731.49" cy="299.97" r="2.5" fill="#2563eb"/>
  <circle cx="733.31" cy="299.97" r="2.5" fill="#2563eb"/>
  <circle cx="735.14" cy="299.97" r="2.5" fill="#2563eb"/>
  <circle cx="736.97" cy="250.03" r="2.5" fill="#2563eb"/>
  <circle cx="738.80" cy="299.93" r="2.5" fill="#2563eb"/>
  <circle cx="740.62" cy="300.01" r="2.5" fill="#2563eb"/>
  <circle cx="742.45" cy="300.01" r="2.5" fill="#2563eb"/>
  <circle cx="744.28" cy="299.93" r="2.5" fill="#2563eb"/>
  <circle cx="746.10" cy="300.01" r="2.5" fill="#2563eb"/>
  <circle cx="747.93" cy="300.01" r="2.5" fill="#2563eb"/>
  <circle cx="749.76" cy="299.97" r="2.5" fill="#2563eb"/>
  <circle cx="751.59" cy="300.01" r="2.5" fill="#2563eb"/>
  <circle cx="753.41" cy="300.01" r="2.5" fill="#2563eb"/>
  <circle cx="755.24" cy="300.06" r="2.5" fill="#2563eb"/>
  <circle cx="757.07" cy="300.01" r="2.5" fill="#2563eb"/>
  <circle cx="758.90" cy="299.97" r="2.5" fill="#2563eb"/>
  <circle cx="760.72" cy="299.89" r="2.5" fill="#2563eb"/>
  <circle cx="762.55" cy="300.01" r="2.5" fill="#2563eb"/>
  <circle cx="764.38" cy="300.01" r="2.5" fill="#2563eb"/>
  <circle cx="766.20" cy="249.94" r="2.5" fill="#2563eb"/>
  <circle cx="768.03" cy="249.94" r="2.5" fill="#2563eb"/>
  <circle cx="769.86" cy="300.01" r="2.5" fill="#2563eb"/>
  <circle cx="771.69" cy="300.01" r="2.5" fill="#2563eb"/>
  <circle cx="773.51" cy="300.01" r="2.5" fill="#2563eb"/>
  <circle cx="775.34" cy="300.01" r="2.5" fill="#2563eb"/>
  <circle cx="777.17" cy="299.97" r="2.5" fill="#2563eb"/>
  <circle cx="779.00" cy="250.03" r="2.5" fill="#2563eb"/>
  <circle cx="780.82" cy="300.01" r="2.5" fill="#2563eb"/>
  <circle cx="782.65" cy="300.01" r="2.5" fill="#2563eb"/>
  <circle cx="784.48" cy="300.01" r="2.5" fill="#2563eb"/>
  <circle cx="786.31" cy="300.01" r="2.5" fill="#2563eb"/>
  <circle cx="788.13" cy="250.03" r="2.5" fill="#2563eb"/>
  <circle cx="789.96" cy="249.99" r="2.5" fill="#2563eb"/>
  <circle cx="791.79" cy="300.01" r="2.5" fill="#2563eb"/>
  <circle cx="793.61" cy="299.97" r="2.5" fill="#2563eb"/>
  <circle cx="795.44" cy="300.01" r="2.5" fill="#2563eb"/>
  <circle cx="797.27" cy="299.97" r="2.5" fill="#2563eb"/>
  <circle cx="799.10" cy="300.01" r="2.5" fill="#2563eb"/>
  <circle cx="800.92" cy="299.97" r="2.5" fill="#2563eb"/>
  <circle cx="802.75" cy="299.97" r="2.5" fill="#2563eb"/>
  <circle cx="804.58" cy="299.97" r="2.5" fill="#2563eb"/>
  <circle cx="806.41" cy="300.06" r="2.5" fill="#2563eb"/>
  <circle cx="808.23" cy="249.99" r="2.5" fill="#2563eb"/>
  <circle cx="810.06" cy="300.01" r="2.5" fill="#2563eb"/>
  <circle cx="811.89" cy="250.03" r="2.5" fill="#2563eb"/>
  <circle cx="813.71" cy="249.94" r="2.5" fill="#2563eb"/>
  <circle cx="815.54" cy="249.99" r="2.5" fill="#2563eb"/>
  <circle cx="817.37" cy="300.01" r="2.5" fill="#2563eb"/>
  <circle cx="819.20" cy="300.06" r="2.5" fill="#2563eb"/>
  <circle cx="821.02" cy="300.01" r="2.5" fill="#2563eb"/>
  <circle cx="822.85" cy="299.97" r="2.5" fill="#2563eb"/>
  <circle cx="824.68" cy="299.97" r="2.5" fill="#2563eb"/>
  <circle cx="826.51" cy="300.01" r="2.5" fill="#2563eb"/>
  <circle cx="828.33" cy="299.93" r="2.5" fill="#2563eb"/>
  <circle cx="830.16" cy="299.89" r="2.5" fill="#2563eb"/>
  <circle cx="831.99" cy="299.89" r="2.5" fill="#2563eb"/>
  <circle cx="833.82" cy="299.89" r="2.5" fill="#2563eb"/>
  <circle cx="835.64" cy="299.89" r="2.5" fill="#2563eb"/>
  <circle cx="837.47" cy="299.85" r="2.5" fill="#2563eb"/>
  <circle cx="839.30" cy="299.85" r="2.5" fill="#2563eb"/>
  <circle cx="841.12" cy="299.89" r="2.5" fill="#2563eb"/>
  <circle cx="842.95" cy="299.81" r="2.5" fill="#2563eb"/>
  <circle cx="844.78" cy="299.81" r="2.5" fill="#2563eb"/>
  <circle cx="846.61" cy="299.81" r="2.5" fill="#2563eb"/>
  <circle cx="848.43" cy="299.76" r="2.5" fill="#2563eb"/>
  <circle cx="850.26" cy="299.76" r="2.5" fill="#2563eb"/>
  <circle cx="852.09" cy="299.76" r="2.5" fill="#2563eb"/>
  <circle cx="853.92" cy="299.72" r="2.5" fill="#2563eb"/>
  <circle cx="855.74" cy="299.68" r="2.5" fill="#2563eb"/>
  <circle cx="857.57" cy="299.60" r="2.5" fill="#2563eb"/>
  <circle cx="859.40" cy="299.60" r="2.5" fill="#2563eb"/>
  <circle cx="861.22" cy="299.60" r="2.5" fill="#2563eb"/>
  <circle cx="863.05" cy="299.56" r="2.5" fill="#2563eb"/>
  <circle cx="864.88" cy="299.47" r="2.5" fill="#2563eb"/>
  <circle cx="866.71" cy="299.43" r="2.5" fill="#2563eb"/>
  <circle cx="868.53" cy="299.43" r="2.5" fill="#2563eb"/>
  <circle cx="870.36" cy="299.39" r="2.5" fill="#2563eb"/>
  <circle cx="872.19" cy="299.47" r="2.5" fill="#2563eb"/>
  <circle cx="874.02" cy="259.82" r="2.5" fill="#2563eb"/>
  <circle cx="875.84" cy="338.96" r="2.5" fill="#2563eb"/>
  <circle cx="877.67" cy="299.31" r="2.5" fill="#2563eb"/>
  <circle cx="879.50" cy="299.31" r="2.5" fill="#2563eb"/>
  <circle cx="881.33" cy="299.26" r="2.5" fill="#2563eb"/>
  <circle cx="883.15" cy="299.68" r="2.5" fill="#2563eb"/>
  <circle cx="884.98" cy="299.68" r="2.5" fill="#2563eb"/>
  <circle cx="886.81" cy="299.68" r="2.5" fill="#2563eb"/>
  <circle cx="888.63" cy="299.64" r="2.5" fill="#2563eb"/>
  <circle cx="890.46" cy="299.14" r="2.5" fill="#2563eb"/>
  <circle cx="892.29" cy="299.14" r="2.5" fill="#2563eb"/>
  <circle cx="894.12" cy="299.10" r="2.5" fill="#2563eb"/>
  <circle cx="895.94" cy="299.10" r="2.5" fill="#2563eb"/>
  <circle cx="897.77" cy="299.10" r="2.5" fill="#2563eb"/>
  <circle cx="899.60" cy="248.07" r="2.5" fill="#2563eb"/>
  <circle cx="901.43" cy="299.06" r="2.5" fill="#2563eb"/>
  <circle cx="903.25" cy="299.06" r="2.5" fill="#2563eb"/>
  <circle cx="905.08" cy="299.06" r="2.5" fill="#2563eb"/>
  <circle cx="906.91" cy="299.06" r="2.5" fill="#2563eb"/>
  <circle cx="908.73" cy="299.06" r="2.5" fill="#2563eb"/>
  <circle cx="910.56" cy="298.97" r="2.5" fill="#2563eb"/>
  <circle cx="912.39" cy="298.97" r="2.5" fill="#2563eb"/>
  <circle cx="914.22" cy="298.93" r="2.5" fill="#2563eb"/>
  <circle cx="916.04" cy="298.97" r="2.5" fill="#2563eb"/>
  <circle cx="917.87" cy="298.93" r="2.5" fill="#2563eb"/>
  <circle cx="919.70" cy="298.89" r="2.5" fill="#2563eb"/>
  <circle cx="921.53" cy="298.89" r="2.5" fill="#2563eb"/>
  <circle cx="923.35" cy="298.89" r="2.5" fill="#2563eb"/>
  <circle cx="925.18" cy="298.89" r="2.5" fill="#2563eb"/>
  <circle cx="927.01" cy="247.78" r="2.5" fill="#2563eb"/>
  <circle cx="928.84" cy="298.89" r="2.5" fill="#2563eb"/>
  <circle cx="930.66" cy="298.89" r="2.5" fill="#2563eb"/>
  <circle cx="932.49" cy="298.85" r="2.5" fill="#2563eb"/>
  <circle cx="934.32" cy="298.85" r="2.5" fill="#2563eb"/>
  <circle cx="936.14" cy="298.81" r="2.5" fill="#2563eb"/>
  <circle cx="937.97" cy="298.81" r="2.5" fill="#2563eb"/>
  <circle cx="939.80" cy="298.81" r="2.5" fill="#2563eb"/>
  <circle cx="941.63" cy="298.81" r="2.5" fill="#2563eb"/>
  <circle cx="943.45" cy="298.81" r="2.5" fill="#2563eb"/>
  <circle cx="945.28" cy="298.81" r="2.5" fill="#2563eb"/>
  <circle cx="947.11" cy="298.81" r="2.5" fill="#2563eb"/>
  <circle cx="948.94" cy="298.81" r="2.5" fill="#2563eb"/>
  <circle cx="950.76" cy="298.81" r="2.5" fill="#2563eb"/>
  <circle cx="952.59" cy="298.72" r="2.5" fill="#2563eb"/>
  <circle cx="954.42" cy="247.45" r="2.5" fill="#2563eb"/>
  <circle cx="956.24" cy="247.45" r="2.5" fill="#2563eb"/>
  <circle cx="958.07" cy="298.72" r="2.5" fill="#2563eb"/>
  <circle cx="959.90" cy="298.72" r="2.5" fill="#2563eb"/>
  <circle cx="961.73" cy="298.72" r="2.5" fill="#2563eb"/>
  <circle cx="963.55" cy="298.72" r="2.5" fill="#2563eb"/>
  <circle cx="965.38" cy="298.72" r="2.5" fill="#2563eb"/>
  <circle cx="967.21" cy="298.72" r="2.5" fill="#2563eb"/>
  <circle cx="969.04" cy="247.36" r="2.5" fill="#2563eb"/>
  <circle cx="970.86" cy="298.68" r="2.5" fill="#2563eb"/>
  <circle cx="972.69" cy="247.36" r="2.5" fill="#2563eb"/>
  <circle cx="974.52" cy="247.36" r="2.5" fill="#2563eb"/>
  <circle cx="976.35" cy="247.36" r="2.5" fill="#2563eb"/>
  <circle cx="978.17" cy="298.68" r="2.5" fill="#2563eb"/>
  <circle cx="980.00" cy="298.68" r="2.5" fill="#2563eb"/>
</svg>
