<?xml version="1.0" encoding="UTF-8"?>
<svg xmlns="http://www.w3.org/2000/svg" width="1000" height="420" viewBox="0 0 1000 420">
  <rect width="100%" height="100%" fill="#ffffff"/>
  <text x="70" y="28" font-size="20" font-weight="600">수집 시점 기준 - 시간별 스냅샷</text>
  <text x="70" y="402" font-size="12" fill="#555">스냅샷 수</text>
  <line x1="70" y1="350.00" x2="980" y2="350.00" stroke="#e5e7eb" stroke-width="1"/>
  <text x="62" y="354.00" font-size="11" fill="#6b7280" text-anchor="end">0</text>
  <line x1="70" y1="290.00" x2="980" y2="290.00" stroke="#e5e7eb" stroke-width="1"/>
  <text x="62" y="294.00" font-size="11" fill="#6b7280" text-anchor="end">1,440</text>
  <line x1="70" y1="230.00" x2="980" y2="230.00" stroke="#e5e7eb" stroke-width="1"/>
  <text x="62" y="234.00" font-size="11" fill="#6b7280" text-anchor="end">2,880</text>
  <line x1="70" y1="170.00" x2="980" y2="170.00" stroke="#e5e7eb" stroke-width="1"/>
  <text x="62" y="174.00" font-size="11" fill="#6b7280" text-anchor="end">4,321</text>
  <line x1="70" y1="110.00" x2="980" y2="110.00" stroke="#e5e7eb" stroke-width="1"/>
  <text x="62" y="114.00" font-size="11" fill="#6b7280" text-anchor="end">5,761</text>
  <line x1="70" y1="50.00" x2="980" y2="50.00" stroke="#e5e7eb" stroke-width="1"/>
  <text x="62" y="54.00" font-size="11" fill="#6b7280" text-anchor="end">7,202</text>
  <line x1="70" y1="350" x2="980" y2="350" stroke="#111827" stroke-width="1.2"/>
  <line x1="70" y1="50" x2="70" y2="350" stroke="#111827" stroke-width="1.2"/>
  <line x1="70.00" y1="350" x2="70.00" y2="356" stroke="#9ca3af" stroke-width="1"/>
  <text x="70.00" y="372" font-size="10" fill="#6b7280" text-anchor="middle">2026-02-28 18</text>
  <line x1="145.38" y1="350" x2="145.38" y2="356" stroke="#9ca3af" stroke-width="1"/>
  <text x="145.38" y="372" font-size="10" fill="#6b7280" text-anchor="middle">2026-03-09 13</text>
  <line x1="220.77" y1="350" x2="220.77" y2="356" stroke="#9ca3af" stroke-width="1"/>
  <text x="220.77" y="372" font-size="10" fill="#6b7280" text-anchor="middle">2026-03-12 01</text>
  <line x1="296.15" y1="350" x2="296.15" y2="356" stroke="#9ca3af" stroke-width="1"/>
  <text x="296.15" y="372" font-size="10" fill="#6b7280" text-anchor="middle">2026-03-14 18</text>
  <line x1="371.54" y1="350" x2="371.54" y2="356" stroke="#9ca3af" stroke-width="1"/>
  <text x="371.54" y="372" font-size="10" fill="#6b7280" text-anchor="middle">2026-03-18 07</text>
  <line x1="446.92" y1="350" x2="446.92" y2="356" stroke="#9ca3af" stroke-width="1"/>
  <text x="446.92" y="372" font-size="10" fill="#6b7280" text-anchor="middle">2026-03-21 18</text>
  <line x1="522.31" y1="350" x2="522.31" y2="356" stroke="#9ca3af" stroke-width="1"/>
  <text x="522.31" y="372" font-size="10" fill="#6b7280" text-anchor="middle">2026-03-25 06</text>
  <line x1="597.69" y1="350" x2="597.69" y2="356" stroke="#9ca3af" stroke-width="1"/>
  <text x="597.69" y="372" font-size="10" fill="#6b7280" text-anchor="middle">2026-03-29 00</text>
  <line x1="673.08" y1="350" x2="673.08" y2="356" stroke="#9ca3af" stroke-width="1"/>
  <text x="673.08" y="372" font-size="10" fill="#6b7280" text-anchor="middle">2026-04-02 00</text>
  <line x1="748.46" y1="350" x2="748.46" y2="356" stroke="#9ca3af" stroke-width="1"/>
  <text x="748.46" y="372" font-size="10" fill="#6b7280" text-anchor="middle">2026-04-05 16</text>
  <line x1="823.85" y1="350" x2="823.85" y2="356" stroke="#9ca3af" stroke-width="1"/>
  <text x="823.85" y="372" font-size="10" fill="#6b7280" text-anchor="middle">2026-04-09 17</text>
  <line x1="899.23" y1="350" x2="899.23" y2="356" stroke="#9ca3af" stroke-width="1"/>
  <text x="899.23" y="372" font-size="10" fill="#6b7280" text-anchor="middle">2026-04-13 12</text>
  <line x1="974.62" y1="350" x2="974.62" y2="356" stroke="#9ca3af" stroke-width="1"/>
  <text x="974.62" y="372" font-size="10" fill="#6b7280" text-anchor="middle">2026-04-17 23</text>
  <line x1="980.00" y1="350" x2="980.00" y2="356" stroke="#9ca3af" stroke-width="1"/>
  <text x="980.00" y="372" font-size="10" fill="#6b7280" text-anchor="middle">2026-04-18 04</text>
  <polyline fill="none" stroke="#2563eb" stroke-width="2.5" points="70.00,50.00 71.35,50.12 72.69,50.17 74.04,50.46 75.38,50.00 76.73,266.90 78.08,50.12 79.42,50.08 80.77,177.46 82.12,211.58 83.46,175.34 84.81,304.14 86.15,200.46 87.50,250.94 88.85,300.01 90.19,300.06 91.54,300.01 92.88,300.01 94.23,348.00 95.58,300.01 96.92,249.99 98.27,200.00 99.62,249.99 100.96,249.99 102.31,250.03 103.65,250.03 105.00,250.03 106.35,250.40 107.69,250.90 109.04,250.90 110.38,251.32 111.73,249.94 113.08,300.01 114.42,299.93 115.77,251.03 117.12,300.68 118.46,250.03 119.81,200.00 121.15,249.99 122.50,250.03 123.85,250.03 125.19,250.03 126.54,300.01 127.88,200.04 129.23,250.03 130.58,250.03 131.92,250.03 133.27,249.90 134.62,250.03 135.96,250.03 137.31,250.94 138.65,250.44 140.00,250.03 141.35,250.03 142.69,300.47 144.04,300.01 145.38,300.43 146.73,250.03 148.08,249.99 149.42,300.43 150.77,249.90 152.12,249.99 153.46,249.99 154.81,200.04 156.15,300.01 157.50,300.01 158.85,300.01 160.19,249.90 161.54,300.01 162.88,250.03 164.23,249.99 165.58,199.96 166.92,300.01 168.27,200.00 169.62,250.36 170.96,250.03 172.31,300.01 173.65,300.01 175.00,250.44 176.35,300.01 177.69,250.03 179.04,250.03 180.38,249.99 181.73,250.49 183.08,250.03 184.42,200.04 185.77,300.01 187.12,250.03 188.46,300.01 189.81,250.11 191.15,300.01 192.50,250.03 193.85,250.03 195.19,199.92 196.54,250.03 197.88,250.03 199.23,250.03 200.58,254.36 201.92,300.01 203.27,299.97 204.62,250.36 205.96,299.97 207.31,250.03 208.65,250.03 210.00,250.03 211.35,250.03 212.69,249.99 214.04,200.00 215.38,299.93 216.73,300.01 218.08,299.97 219.42,249.94 220.77,249.99 222.12,249.82 223.46,249.94 224.81,250.28 226.15,207.00 227.50,250.03 228.85,250.32 230.19,250.40 231.54,300.93 232.88,300.01 234.23,300.10 235.58,249.94 236.92,249.99 238.27,250.07 239.62,249.99 240.96,250.03 242.31,249.94 243.65,200.00 245.00,300.39 246.35,300.01 247.69,300.01 249.04,250.44 250.38,300.39 251.73,249.86 253.08,250.11 254.42,201.46 255.77,300.01 257.12,200.83 258.46,250.03 259.81,249.99 261.15,300.26 262.50,300.01 263.85,300.01 265.19,250.03 266.54,250.03 267.88,250.03 269.23,250.03 270.58,249.99 271.92,250.03 273.27,200.00 274.62,300.26 275.96,249.99 277.31,300.01 278.65,249.94 280.00,250.03 281.35,250.03 282.69,250.03 284.04,200.04 285.38,300.01 286.73,249.90 288.08,300.01 289.42,300.01 290.77,300.06 292.12,300.01 293.46,300.01 294.81,243.95 296.15,249.94 297.50,299.97 298.85,300.01 300.19,300.01 301.54,250.03 302.88,300.01 304.23,300.01 305.58,299.97 306.92,249.99 308.27,300.01 309.62,299.93 310.96,300.01 312.31,299.93 313.65,300.01 315.00,300.01 316.35,299.89 317.69,299.97 319.04,250.03 320.38,299.93 321.73,299.89 323.08,299.97 324.42,249.94 325.77,300.01 327.12,300.01 328.46,299.97 329.81,249.99 331.15,299.97 332.50,299.97 333.85,300.06 335.19,300.06 336.54,299.93 337.88,300.01 339.23,300.01 340.58,299.93 341.92,300.01 343.27,300.01 344.62,299.97 345.96,300.01 347.31,300.01 348.65,300.01 350.00,300.01 351.35,249.86 352.69,300.01 354.04,300.10 355.38,299.93 356.73,300.01 358.08,299.93 359.42,300.01 360.77,300.01 362.12,300.01 363.46,300.01 364.81,300.01 366.15,299.97 367.50,300.01 368.85,300.01 370.19,300.01 371.54,300.01 372.88,250.03 374.23,300.01 375.58,300.01 376.92,299.97 378.27,300.01 379.62,300.01 380.96,299.97 382.31,299.97 383.65,300.01 385.00,299.97 386.35,300.01 387.69,299.93 389.04,300.01 390.38,250.03 391.73,300.01 393.08,300.01 394.42,300.01 395.77,300.01 397.12,300.01 398.46,299.89 399.81,300.01 401.15,300.01 402.50,250.07 403.85,300.01 405.19,299.93 406.54,300.01 407.88,299.97 409.23,299.97 410.58,299.97 411.92,250.03 413.27,300.01 414.62,300.01 415.96,300.01 417.31,300.01 418.65,299.97 420.00,300.01 421.35,299.97 422.69,300.01 424.04,299.97 425.38,249.90 426.73,300.01 428.08,300.01 429.42,299.89 430.77,299.97 432.12,299.97 433.46,249.99 434.81,299.97 436.15,299.89 437.50,300.01 438.85,299.97 440.19,299.97 441.54,300.01 442.88,299.97 444.23,249.99 445.58,299.97 446.92,299.97 448.27,300.06 449.62,300.06 450.96,249.94 452.31,300.01 453.65,299.93 455.00,300.01 456.35,300.01 457.69,249.99 459.04,300.01 460.38,300.01 461.73,300.01 463.08,299.93 464.42,299.93 465.77,300.01 467.12,300.01 468.46,249.94 469.81,299.97 471.15,299.97 472.50,300.01 473.85,300.01 475.19,300.01 476.54,249.99 477.88,300.01 479.23,300.01 480.58,300.01 481.92,250.03 483.27,300.01 484.62,300.01 485.96,300.01 487.31,299.97 488.65,300.01 490.00,300.01 491.35,299.97 492.69,299.97 494.04,300.01 495.38,300.01 496.73,299.97 498.08,299.93 499.42,300.01 500.77,300.06 502.12,299.97 503.46,300.01 504.81,250.03 506.15,250.03 507.50,299.93 508.85,299.97 510.19,300.01 511.54,300.01 512.88,300.06 514.23,300.01 515.58,299.93 516.92,300.01 518.27,300.01 519.62,299.97 520.96,299.97 522.31,300.01 523.65,250.03 525.00,300.01 526.35,300.01 527.69,300.01 529.04,299.97 530.38,300.01 531.73,299.97 533.08,300.01 534.42,299.97 535.77,299.97 537.12,299.93 538.46,300.01 539.81,300.01 541.15,299.89 542.50,299.97 543.85,299.97 545.19,300.06 546.54,249.90 547.88,299.89 549.23,300.01 550.58,299.97 551.92,299.97 553.27,299.97 554.62,300.01 555.96,300.01 557.31,299.97 558.65,299.97 560.00,299.97 561.35,250.03 562.69,299.93 564.04,300.01 565.38,300.01 566.73,299.93 568.08,300.01 569.42,300.01 570.77,299.97 572.12,300.01 573.46,300.01 574.81,300.06 576.15,300.01 577.50,299.97 578.85,299.89 580.19,300.01 581.54,300.01 582.88,249.94 584.23,249.94 585.58,300.01 586.92,300.01 588.27,300.01 589.62,300.01 590.96,299.97 592.31,250.03 593.65,300.01 595.00,300.01 596.35,300.01 597.69,300.01 599.04,250.03 600.38,249.99 601.73,300.01 603.08,299.97 604.42,300.01 605.77,299.97 607.12,300.01 608.46,299.97 609.81,299.97 611.15,299.97 612.50,300.06 613.85,249.99 615.19,300.01 616.54,250.03 617.88,249.94 619.23,249.99 620.58,300.01 621.92,300.06 623.27,300.01 624.62,299.97 625.96,299.97 627.31,300.01 628.65,299.93 630.00,299.89 631.35,299.89 632.69,299.89 634.04,299.89 635.38,299.85 636.73,299.85 638.08,299.89 639.42,299.81 640.77,299.81 642.12,299.81 643.46,299.76 644.81,299.76 646.15,299.76 647.50,299.72 648.85,299.68 650.19,299.60 651.54,299.60 652.88,299.60 654.23,299.56 655.58,299.47 656.92,299.43 658.27,299.43 659.62,299.39 660.96,299.47 662.31,259.82 663.65,338.96 665.00,299.31 666.35,299.31 667.69,299.26 669.04,299.68 670.38,299.68 671.73,299.68 673.08,299.64 674.42,299.14 675.77,299.14 677.12,299.10 678.46,299.10 679.81,299.10 681.15,248.07 682.50,299.06 683.85,299.06 685.19,299.06 686.54,299.06 687.88,299.06 689.23,298.97 690.58,298.97 691.92,298.93 693.27,298.97 694.62,298.93 695.96,298.89 697.31,298.89 698.65,298.89 700.00,298.89 701.35,247.78 702.69,298.89 704.04,298.89 705.38,298.85 706.73,298.85 708.08,298.81 709.42,298.81 710.77,298.81 712.12,298.81 713.46,298.81 714.81,298.81 716.15,298.81 717.50,298.81 718.85,298.81 720.19,298.72 721.54,247.45 722.88,247.45 724.23,298.72 725.58,298.72 726.92,298.72 728.27,298.72 729.62,298.72 730.96,298.72 732.31,247.36 733.65,298.68 735.00,247.36 736.35,247.36 737.69,247.36 739.04,298.68 740.38,298.68 741.73,298.68 743.08,298.68 744.42,298.68 745.77,341.67 747.12,307.01 748.46,298.68 749.81,298.68 751.15,298.68 752.50,247.36 753.85,298.64 755.19,247.36 756.54,247.28 757.88,247.20 759.23,298.60 760.58,298.60 761.92,247.03 763.27,298.51 764.62,298.51 765.96,298.51 767.31,298.51 768.65,298.51 770.00,298.51 771.35,298.51 772.69,298.51 774.04,298.51 775.38,298.51 776.73,298.51 778.08,298.51 779.42,298.51 780.77,298.51 782.12,298.51 783.46,298.51 784.81,298.51 786.15,298.51 787.50,298.51 788.85,298.51 790.19,298.51 791.54,298.51 792.88,298.51 794.23,298.51 795.58,298.51 796.92,298.51 798.27,298.47 799.62,298.51 800.96,298.51 802.31,298.47 803.65,298.51 805.00,298.47 806.35,298.51 807.69,298.43 809.04,298.56 810.38,298.43 811.73,298.43 813.08,298.43 814.42,298.43 815.77,298.43 817.12,298.43 818.46,298.43 819.81,298.43 821.15,298.43 822.50,298.43 823.85,298.43 825.19,298.43 826.54,298.43 827.88,298.43 829.23,298.43 830.58,298.43 831.92,298.43 833.27,298.43 834.62,298.43 835.96,298.43 837.31,298.43 838.65,298.43 840.00,298.43 841.35,298.43 842.69,298.43 844.04,298.43 845.38,298.43 846.73,298.43 848.08,298.43 849.42,298.43 850.77,298.43 852.12,298.43 853.46,298.43 854.81,298.43 856.15,298.39 857.50,298.39 858.85,298.43 860.19,298.43 861.54,298.39 862.88,298.39 864.23,298.39 865.58,298.43 866.92,298.43 868.27,298.43 869.62,246.82 870.96,298.43 872.31,246.78 873.65,246.78 875.00,246.78 876.35,246.70 877.69,246.78 879.04,298.39 880.38,298.39 881.73,298.39 883.08,298.39 884.42,298.39 885.77,246.78 887.12,298.39 888.46,298.39 889.81,298.39 891.15,298.39 892.50,298.39 893.85,246.78 895.19,246.78 896.54,298.39 897.88,298.39 899.23,298.39 900.58,298.39 901.92,298.39 903.27,298.39 904.62,298.39 905.96,298.39 907.31,298.39 908.65,298.39 910.00,298.39 911.35,298.39 912.69,298.39 914.04,298.39 915.38,298.35 916.73,298.39 918.08,298.39 919.42,298.35 920.77,298.35 922.12,298.35 923.46,298.35 924.81,298.35 926.15,298.35 927.50,298.35 928.85,298.35 930.19,298.35 931.54,298.35 932.88,298.35 934.23,298.35 935.58,298.35 936.92,298.35 938.27,298.35 939.62,298.35 940.96,298.35 942.31,298.35 943.65,298.35 945.00,298.35 946.35,298.35 947.69,298.35 949.04,298.35 950.38,298.35 951.73,298.35 953.08,298.35 954.42,298.35 955.77,298.35 957.12,298.35 958.46,298.35 959.81,298.35 961.15,298.35 962.50,298.35 963.85,298.35 965.19,298.35 966.54,298.35 967.88,298.35 969.23,298.35 970.58,298.35 971.92,298.35 973.27,298.35 974.62,298.35 975.96,298.35 977.31,298.35 978.65,298.35 980.00,298.35"/>
  <circle cx="70.00" cy="50.00" r="2.5" fill="#2563eb"/>
  <circle cx="71.35" cy="50.12" r="2.5" fill="#2563eb"/>
  <circle cx="72.69" cy="50.17" r="2.5" fill="#2563eb"/>
  <circle cx="74.04" cy="50.46" r="2.5" fill="#2563eb"/>
  <circle cx="75.38" cy="50.00" r="2.5" fill="#2563eb"/>
  <circle cx="76.73" cy="266.90" r="2.5" fill="#2563eb"/>
  <circle cx="78.08" cy="50.12" r="2.5" fill="#2563eb"/>
  <circle cx="79.42" cy="50.08" r="2.5" fill="#2563eb"/>
  <circle cx="80.77" cy="177.46" r="2.5" fill="#2563eb"/>
  <circle cx="82.12" cy="211.58" r="2.5" fill="#2563eb"/>
  <circle cx="83.46" cy="175.34" r="2.5" fill="#2563eb"/>
  <circle cx="84.81" cy="304.14" r="2.5" fill="#2563eb"/>
  <circle cx="86.15" cy="200.46" r="2.5" fill="#2563eb"/>
  <circle cx="87.50" cy="250.94" r="2.5" fill="#2563eb"/>
  <circle cx="88.85" cy="300.01" r="2.5" fill="#2563eb"/>
  <circle cx="90.19" cy="300.06" r="2.5" fill="#2563eb"/>
  <circle cx="91.54" cy="300.01" r="2.5" fill="#2563eb"/>
  <circle cx="92.88" cy="300.01" r="2.5" fill="#2563eb"/>
  <circle cx="94.23" cy="348.00" r="2.5" fill="#2563eb"/>
  <circle cx="95.58" cy="300.01" r="2.5" fill="#2563eb"/>
  <circle cx="96.92" cy="249.99" r="2.5" fill="#2563eb"/>
  <circle cx="98.27" cy="200.00" r="2.5" fill="#2563eb"/>
  <circle cx="99.62" cy="249.99" r="2.5" fill="#2563eb"/>
  <circle cx="100.96" cy="249.99" r="2.5" fill="#2563eb"/>
  <circle cx="102.31" cy="250.03" r="2.5" fill="#2563eb"/>
  <circle cx="103.65" cy="250.03" r="2.5" fill="#2563eb"/>
  <circle cx="105.00" cy="250.03" r="2.5" fill="#2563eb"/>
  <circle cx="106.35" cy="250.40" r="2.5" fill="#2563eb"/>
  <circle cx="107.69" cy="250.90" r="2.5" fill="#2563eb"/>
  <circle cx="109.04" cy="250.90" r="2.5" fill="#2563eb"/>
  <circle cx="110.38" cy="251.32" r="2.5" fill="#2563eb"/>
  <circle cx="111.73" cy="249.94" r="2.5" fill="#2563eb"/>
  <circle cx="113.08" cy="300.01" r="2.5" fill="#2563eb"/>
  <circle cx="114.42" cy="299.93" r="2.5" fill="#2563eb"/>
  <circle cx="115.77" cy="251.03" r="2.5" fill="#2563eb"/>
  <circle cx="117.12" cy="300.68" r="2.5" fill="#2563eb"/>
  <circle cx="118.46" cy="250.03" r="2.5" fill="#2563eb"/>
  <circle cx="119.81" cy="200.00" r="2.5" fill="#2563eb"/>
  <circle cx="121.15" cy="249.99" r="2.5" fill="#2563eb"/>
  <circle cx="122.50" cy="250.03" r="2.5" fill="#2563eb"/>
  <circle cx="123.85" cy="250.03" r="2.5" fill="#2563eb"/>
  <circle cx="125.19" cy="250.03" r="2.5" fill="#2563eb"/>
  <circle cx="126.54" cy="300.01" r="2.5" fill="#2563eb"/>
  <circle cx="127.88" cy="200.04" r="2.5" fill="#2563eb"/>
  <circle cx="129.23" cy="250.03" r="2.5" fill="#2563eb"/>
  <circle cx="130.58" cy="250.03" r="2.5" fill="#2563eb"/>
  <circle cx="131.92" cy="250.03" r="2.5" fill="#2563eb"/>
  <circle cx="133.27" cy="249.90" r="2.5" fill="#2563eb"/>
  <circle cx="134.62" cy="250.03" r="2.5" fill="#2563eb"/>
  <circle cx="135.96" cy="250.03" r="2.5" fill="#2563eb"/>
  <circle cx="137.31" cy="250.94" r="2.5" fill="#2563eb"/>
  <circle cx="138.65" cy="250.44" r="2.5" fill="#2563eb"/>
  <circle cx="140.00" cy="250.03" r="2.5" fill="#2563eb"/>
  <circle cx="141.35" cy="250.03" r="2.5" fill="#2563eb"/>
  <circle cx="142.69" cy="300.47" r="2.5" fill="#2563eb"/>
  <circle cx="144.04" cy="300.01" r="2.5" fill="#2563eb"/>
  <circle cx="145.38" cy="300.43" r="2.5" fill="#2563eb"/>
  <circle cx="146.73" cy="250.03" r="2.5" fill="#2563eb"/>
  <circle cx="148.08" cy="249.99" r="2.5" fill="#2563eb"/>
  <circle cx="149.42" cy="300.43" r="2.5" fill="#2563eb"/>
  <circle cx="150.77" cy="249.90" r="2.5" fill="#2563eb"/>
  <circle cx="152.12" cy="249.99" r="2.5" fill="#2563eb"/>
  <circle cx="153.46" cy="249.99" r="2.5" fill="#2563eb"/>
  <circle cx="154.81" cy="200.04" r="2.5" fill="#2563eb"/>
  <circle cx="156.15" cy="300.01" r="2.5" fill="#2563eb"/>
  <circle cx="157.50" cy="300.01" r="2.5" fill="#2563eb"/>
  <circle cx="158.85" cy="300.01" r="2.5" fill="#2563eb"/>
  <circle cx="160.19" cy="249.90" r="2.5" fill="#2563eb"/>
  <circle cx="161.54" cy="300.01" r="2.5" fill="#2563eb"/>
  <circle cx="162.88" cy="250.03" r="2.5" fill="#2563eb"/>
  <circle cx="164.23" cy="249.99" r="2.5" fill="#2563eb"/>
  <circle cx="165.58" cy="199.96" r="2.5" fill="#2563eb"/>
  <circle cx="166.92" cy="300.01" r="2.5" fill="#2563eb"/>
  <circle cx="168.27" cy="200.00" r="2.5" fill="#2563eb"/>
  <circle cx="169.62" cy="250.36" r="2.5" fill="#2563eb"/>
  <circle cx="170.96" cy="250.03" r="2.5" fill="#2563eb"/>
  <circle cx="172.31" cy="300.01" r="2.5" fill="#2563eb"/>
  <circle cx="173.65" cy="300.01" r="2.5" fill="#2563eb"/>
  <circle cx="175.00" cy="250.44" r="2.5" fill="#2563eb"/>
  <circle cx="176.35" cy="300.01" r="2.5" fill="#2563eb"/>
  <circle cx="177.69" cy="250.03" r="2.5" fill="#2563eb"/>
  <circle cx="179.04" cy="250.03" r="2.5" fill="#2563eb"/>
  <circle cx="180.38" cy="249.99" r="2.5" fill="#2563eb"/>
  <circle cx="181.73" cy="250.49" r="2.5" fill="#2563eb"/>
  <circle cx="183.08" cy="250.03" r="2.5" fill="#2563eb"/>
  <circle cx="184.42" cy="200.04" r="2.5" fill="#2563eb"/>
  <circle cx="185.77" cy="300.01" r="2.5" fill="#2563eb"/>
  <circle cx="187.12" cy="250.03" r="2.5" fill="#2563eb"/>
  <circle cx="188.46" cy="300.01" r="2.5" fill="#2563eb"/>
  <circle cx="189.81" cy="250.11" r="2.5" fill="#2563eb"/>
  <circle cx="191.15" cy="300.01" r="2.5" fill="#2563eb"/>
  <circle cx="192.50" cy="250.03" r="2.5" fill="#2563eb"/>
  <circle cx="193.85" cy="250.03" r="2.5" fill="#2563eb"/>
  <circle cx="195.19" cy="199.92" r="2.5" fill="#2563eb"/>
  <circle cx="196.54" cy="250.03" r="2.5" fill="#2563eb"/>
  <circle cx="197.88" cy="250.03" r="2.5" fill="#2563eb"/>
  <circle cx="199.23" cy="250.03" r="2.5" fill="#2563eb"/>
  <circle cx="200.58" cy="254.36" r="2.5" fill="#2563eb"/>
  <circle cx="201.92" cy="300.01" r="2.5" fill="#2563eb"/>
  <circle cx="203.27" cy="299.97" r="2.5" fill="#2563eb"/>
  <circle cx="204.62" cy="250.36" r="2.5" fill="#2563eb"/>
  <circle cx="205.96" cy="299.97" r="2.5" fill="#2563eb"/>
  <circle cx="207.31" cy="250.03" r="2.5" fill="#2563eb"/>
  <circle cx="208.65" cy="250.03" r="2.5" fill="#2563eb"/>
  <circle cx="210.00" cy="250.03" r="2.5" fill="#2563eb"/>
  <circle cx="211.35" cy="250.03" r="2.5" fill="#2563eb"/>
  <circle cx="212.69" cy="249.99" r="2.5" fill="#2563eb"/>
  <circle cx="214.04" cy="200.00" r="2.5" fill="#2563eb"/>
  <circle cx="215.38" cy="299.93" r="2.5" fill="#2563eb"/>
  <circle cx="216.73" cy="300.01" r="2.5" fill="#2563eb"/>
  <circle cx="218.08" cy="299.97" r="2.5" fill="#2563eb"/>
  <circle cx="219.42" cy="249.94" r="2.5" fill="#2563eb"/>
  <circle cx="220.77" cy="249.99" r="2.5" fill="#2563eb"/>
  <circle cx="222.12" cy="249.82" r="2.5" fill="#2563eb"/>
  <circle cx="223.46" cy="249.94" r="2.5" fill="#2563eb"/>
  <circle cx="224.81" cy="250.28" r="2.5" fill="#2563eb"/>
  <circle cx="226.15" cy="207.00" r="2.5" fill="#2563eb"/>
  <circle cx="227.50" cy="250.03" r="2.5" fill="#2563eb"/>
  <circle cx="228.85" cy="250.32" r="2.5" fill="#2563eb"/>
  <circle cx="230.19" cy="250.40" r="2.5" fill="#2563eb"/>
  <circle cx="231.54" cy="300.93" r="2.5" fill="#2563eb"/>
  <circle cx="232.88" cy="300.01" r="2.5" fill="#2563eb"/>
  <circle cx="234.23" cy="300.10" r="2.5" fill="#2563eb"/>
  <circle cx="235.58" cy="249.94" r="2.5" fill="#2563eb"/>
  <circle cx="236.92" cy="249.99" r="2.5" fill="#2563eb"/>
  <circle cx="238.27" cy="250.07" r="2.5" fill="#2563eb"/>
  <circle cx="239.62" cy="249.99" r="2.5" fill="#2563eb"/>
  <circle cx="240.96" cy="250.03" r="2.5" fill="#2563eb"/>
  <circle cx="242.31" cy="249.94" r="2.5" fill="#2563eb"/>
  <circle cx="243.65" cy="200.00" r="2.5" fill="#2563eb"/>
  <circle cx="245.00" cy="300.39" r="2.5" fill="#2563eb"/>
  <circle cx="246.35" cy="300.01" r="2.5" fill="#2563eb"/>
  <circle cx="247.69" cy="300.01" r="2.5" fill="#2563eb"/>
  <circle cx="249.04" cy="250.44" r="2.5" fill="#2563eb"/>
  <circle cx="250.38" cy="300.39" r="2.5" fill="#2563eb"/>
  <circle cx="251.73" cy="249.86" r="2.5" fill="#2563eb"/>
  <circle cx="253.08" cy="250.11" r="2.5" fill="#2563eb"/>
  <circle cx="254.42" cy="201.46" r="2.5" fill="#2563eb"/>
  <circle cx="255.77" cy="300.01" r="2.5" fill="#2563eb"/>
  <circle cx="257.12" cy="200.83" r="2.5" fill="#2563eb"/>
  <circle cx="258.46" cy="250.03" r="2.5" fill="#2563eb"/>
  <circle cx="259.81" cy="249.99" r="2.5" fill="#2563eb"/>
  <circle cx="261.15" cy="300.26" r="2.5" fill="#2563eb"/>
  <circle cx="262.50" cy="300.01" r="2.5" fill="#2563eb"/>
  <circle cx="263.85" cy="300.01" r="2.5" fill="#2563eb"/>
  <circle cx="265.19" cy="250.03" r="2.5" fill="#2563eb"/>
  <circle cx="266.54" cy="250.03" r="2.5" fill="#2563eb"/>
  <circle cx="267.88" cy="250.03" r="2.5" fill="#2563eb"/>
  <circle cx="269.23" cy="250.03" r="2.5" fill="#2563eb"/>
  <circle cx="270.58" cy="249.99" r="2.5" fill="#2563eb"/>
  <circle cx="271.92" cy="250.03" r="2.5" fill="#2563eb"/>
  <circle cx="273.27" cy="200.00" r="2.5" fill="#2563eb"/>
  <circle cx="274.62" cy="300.26" r="2.5" fill="#2563eb"/>
  <circle cx="275.96" cy="249.99" r="2.5" fill="#2563eb"/>
  <circle cx="277.31" cy="300.01" r="2.5" fill="#2563eb"/>
  <circle cx="278.65" cy="249.94" r="2.5" fill="#2563eb"/>
  <circle cx="280.00" cy="250.03" r="2.5" fill="#2563eb"/>
  <circle cx="281.35" cy="250.03" r="2.5" fill="#2563eb"/>
  <circle cx="282.69" cy="250.03" r="2.5" fill="#2563eb"/>
  <circle cx="284.04" cy="200.04" r="2.5" fill="#2563eb"/>
  <circle cx="285.38" cy="300.01" r="2.5" fill="#2563eb"/>
  <circle cx="286.73" cy="249.90" r="2.5" fill="#2563eb"/>
  <circle cx="288.08" cy="300.01" r="2.5" fill="#2563eb"/>
  <circle cx="289.42" cy="300.01" r="2.5" fill="#2563eb"/>
  <circle cx="290.77" cy="300.06" r="2.5" fill="#2563eb"/>
  <circle cx="292.12" cy="300.01" r="2.5" fill="#2563eb"/>
  <circle cx="293.46" cy="300.01" r="2.5" fill="#2563eb"/>
  <circle cx="294.81" cy="243.95" r="2.5" fill="#2563eb"/>
  <circle cx="296.15" cy="249.94" r="2.5" fill="#2563eb"/>
  <circle cx="297.50" cy="299.97" r="2.5" fill="#2563eb"/>
  <circle cx="298.85" cy="300.01" r="2.5" fill="#2563eb"/>
  <circle cx="300.19" cy="300.01" r="2.5" fill="#2563eb"/>
  <circle cx="301.54" cy="250.03" r="2.5" fill="#2563eb"/>
  <circle cx="302.88" cy="300.01" r="2.5" fill="#2563eb"/>
  <circle cx="304.23" cy="300.01" r="2.5" fill="#2563eb"/>
  <circle cx="305.58" cy="299.97" r="2.5" fill="#2563eb"/>
  <circle cx="306.92" cy="249.99" r="2.5" fill="#2563eb"/>
  <circle cx="308.27" cy="300.01" r="2.5" fill="#2563eb"/>
  <circle cx="309.62" cy="299.93" r="2.5" fill="#2563eb"/>
  <circle cx="310.96" cy="300.01" r="2.5" fill="#2563eb"/>
  <circle cx="312.31" cy="299.93" r="2.5" fill="#2563eb"/>
  <circle cx="313.65" cy="300.01" r="2.5" fill="#2563eb"/>
  <circle cx="315.00" cy="300.01" r="2.5" fill="#2563eb"/>
  <circle cx="316.35" cy="299.89" r="2.5" fill="#2563eb"/>
  <circle cx="317.69" cy="299.97" r="2.5" fill="#2563eb"/>
  <circle cx="319.04" cy="250.03" r="2.5" fill="#2563eb"/>
  <circle cx="320.38" cy="299.93" r="2.5" fill="#2563eb"/>
  <circle cx="321.73" cy="299.89" r="2.5" fill="#2563eb"/>
  <circle cx="323.08" cy="299.97" r="2.5" fill="#2563eb"/>
  <circle cx="324.42" cy="249.94" r="2.5" fill="#2563eb"/>
  <circle cx="325.77" cy="300.01" r="2.5" fill="#2563eb"/>
  <circle cx="327.12" cy="300.01" r="2.5" fill="#2563eb"/>
  <circle cx="328.46" cy="299.97" r="2.5" fill="#2563eb"/>
  <circle cx="329.81" cy="249.99" r="2.5" fill="#2563eb"/>
  <circle cx="331.15" cy="299.97" r="2.5" fill="#2563eb"/>
  <circle cx="332.50" cy="299.97" r="2.5" fill="#2563eb"/>
  <circle cx="333.85" cy="300.06" r="2.5" fill="#2563eb"/>
  <circle cx="335.19" cy="300.06" r="2.5" fill="#2563eb"/>
  <circle cx="336.54" cy="299.93" r="2.5" fill="#2563eb"/>
  <circle cx="337.88" cy="300.01" r="2.5" fill="#2563eb"/>
  <circle cx="339.23" cy="300.01" r="2.5" fill="#2563eb"/>
  <circle cx="340.58" cy="299.93" r="2.5" fill="#2563eb"/>
  <circle cx="341.92" cy="300.01" r="2.5" fill="#2563eb"/>
  <circle cx="343.27" cy="300.01" r="2.5" fill="#2563eb"/>
  <circle cx="344.62" cy="299.97" r="2.5" fill="#2563eb"/>
  <circle cx="345.96" cy="300.01" r="2.5" fill="#2563eb"/>
  <circle cx="347.31" cy="300.01" r="2.5" fill="#2563eb"/>
  <circle cx="348.65" cy="300.01" r="2.5" fill="#2563eb"/>
  <circle cx="350.00" cy="300.01" r="2.5" fill="#2563eb"/>
  <circle cx="351.35" cy="249.86" r="2.5" fill="#2563eb"/>
  <circle cx="352.69" cy="300.01" r="2.5" fill="#2563eb"/>
  <circle cx="354.04" cy="300.10" r="2.5" fill="#2563eb"/>
  <circle cx="355.38" cy="299.93" r="2.5" fill="#2563eb"/>
  <circle cx="356.73" cy="300.01" r="2.5" fill="#2563eb"/>
  <circle cx="358.08" cy="299.93" r="2.5" fill="#2563eb"/>
  <circle cx="359.42" cy="300.01" r="2.5" fill="#2563eb"/>
  <circle cx="360.77" cy="300.01" r="2.5" fill="#2563eb"/>
  <circle cx="362.12" cy="300.01" r="2.5" fill="#2563eb"/>
  <circle cx="363.46" cy="300.01" r="2.5" fill="#2563eb"/>
  <circle cx="364.81" cy="300.01" r="2.5" fill="#2563eb"/>
  <circle cx="366.15" cy="299.97" r="2.5" fill="#2563eb"/>
  <circle cx="367.50" cy="300.01" r="2.5" fill="#2563eb"/>
  <circle cx="368.85" cy="300.01" r="2.5" fill="#2563eb"/>
  <circle cx="370.19" cy="300.01" r="2.5" fill="#2563eb"/>
  <circle cx="371.54" cy="300.01" r="2.5" fill="#2563eb"/>
  <circle cx="372.88" cy="250.03" r="2.5" fill="#2563eb"/>
  <circle cx="374.23" cy="300.01" r="2.5" fill="#2563eb"/>
  <circle cx="375.58" cy="300.01" r="2.5" fill="#2563eb"/>
  <circle cx="376.92" cy="299.97" r="2.5" fill="#2563eb"/>
  <circle cx="378.27" cy="300.01" r="2.5" fill="#2563eb"/>
  <circle cx="379.62" cy="300.01" r="2.5" fill="#2563eb"/>
  <circle cx="380.96" cy="299.97" r="2.5" fill="#2563eb"/>
  <circle cx="382.31" cy="299.97" r="2.5" fill="#2563eb"/>
  <circle cx="383.65" cy="300.01" r="2.5" fill="#2563eb"/>
  <circle cx="385.00" cy="299.97" r="2.5" fill="#2563eb"/>
  <circle cx="386.35" cy="300.01" r="2.5" fill="#2563eb"/>
  <circle cx="387.69" cy="299.93" r="2.5" fill="#2563eb"/>
  <circle cx="389.04" cy="300.01" r="2.5" fill="#2563eb"/>
  <circle cx="390.38" cy="250.03" r="2.5" fill="#2563eb"/>
  <circle cx="391.73" cy="300.01" r="2.5" fill="#2563eb"/>
  <circle cx="393.08" cy="300.01" r="2.5" fill="#2563eb"/>
  <circle cx="394.42" cy="300.01" r="2.5" fill="#2563eb"/>
  <circle cx="395.77" cy="300.01" r="2.5" fill="#2563eb"/>
  <circle cx="397.12" cy="300.01" r="2.5" fill="#2563eb"/>
  <circle cx="398.46" cy="299.89" r="2.5" fill="#2563eb"/>
  <circle cx="399.81" cy="300.01" r="2.5" fill="#2563eb"/>
  <circle cx="401.15" cy="300.01" r="2.5" fill="#2563eb"/>
  <circle cx="402.50" cy="250.07" r="2.5" fill="#2563eb"/>
  <circle cx="403.85" cy="300.01" r="2.5" fill="#2563eb"/>
  <circle cx="405.19" cy="299.93" r="2.5" fill="#2563eb"/>
  <circle cx="406.54" cy="300.01" r="2.5" fill="#2563eb"/>
  <circle cx="407.88" cy="299.97" r="2.5" fill="#2563eb"/>
  <circle cx="409.23" cy="299.97" r="2.5" fill="#2563eb"/>
  <circle cx="410.58" cy="299.97" r="2.5" fill="#2563eb"/>
  <circle cx="411.92" cy="250.03" r="2.5" fill="#2563eb"/>
  <circle cx="413.27" cy="300.01" r="2.5" fill="#2563eb"/>
  <circle cx="414.62" cy="300.01" r="2.5" fill="#2563eb"/>
  <circle cx="415.96" cy="300.01" r="2.5" fill="#2563eb"/>
  <circle cx="417.31" cy="300.01" r="2.5" fill="#2563eb"/>
  <circle cx="418.65" cy="299.97" r="2.5" fill="#2563eb"/>
  <circle cx="420.00" cy="300.01" r="2.5" fill="#2563eb"/>
  <circle cx="421.35" cy="299.97" r="2.5" fill="#2563eb"/>
  <circle cx="422.69" cy="300.01" r="2.5" fill="#2563eb"/>
  <circle cx="424.04" cy="299.97" r="2.5" fill="#2563eb"/>
  <circle cx="425.38" cy="249.90" r="2.5" fill="#2563eb"/>
  <circle cx="426.73" cy="300.01" r="2.5" fill="#2563eb"/>
  <circle cx="428.08" cy="300.01" r="2.5" fill="#2563eb"/>
  <circle cx="429.42" cy="299.89" r="2.5" fill="#2563eb"/>
  <circle cx="430.77" cy="299.97" r="2.5" fill="#2563eb"/>
  <circle cx="432.12" cy="299.97" r="2.5" fill="#2563eb"/>
  <circle cx="433.46" cy="249.99" r="2.5" fill="#2563eb"/>
  <circle cx="434.81" cy="299.97" r="2.5" fill="#2563eb"/>
  <circle cx="436.15" cy="299.89" r="2.5" fill="#2563eb"/>
  <circle cx="437.50" cy="300.01" r="2.5" fill="#2563eb"/>
  <circle cx="438.85" cy="299.97" r="2.5" fill="#2563eb"/>
  <circle cx="440.19" cy="299.97" r="2.5" fill="#2563eb"/>
  <circle cx="441.54" cy="300.01" r="2.5" fill="#2563eb"/>
  <circle cx="442.88" cy="299.97" r="2.5" fill="#2563eb"/>
  <circle cx="444.23" cy="249.99" r="2.5" fill="#2563eb"/>
  <circle cx="445.58" cy="299.97" r="2.5" fill="#2563eb"/>
  <circle cx="446.92" cy="299.97" r="2.5" fill="#2563eb"/>
  <circle cx="448.27" cy="300.06" r="2.5" fill="#2563eb"/>
  <circle cx="449.62" cy="300.06" r="2.5" fill="#2563eb"/>
  <circle cx="450.96" cy="249.94" r="2.5" fill="#2563eb"/>
  <circle cx="452.31" cy="300.01" r="2.5" fill="#2563eb"/>
  <circle cx="453.65" cy="299.93" r="2.5" fill="#2563eb"/>
  <circle cx="455.00" cy="300.01" r="2.5" fill="#2563eb"/>
  <circle cx="456.35" cy="300.01" r="2.5" fill="#2563eb"/>
  <circle cx="457.69" cy="249.99" r="2.5" fill="#2563eb"/>
  <circle cx="459.04" cy="300.01" r="2.5" fill="#2563eb"/>
  <circle cx="460.38" cy="300.01" r="2.5" fill="#2563eb"/>
  <circle cx="461.73" cy="300.01" r="2.5" fill="#2563eb"/>
  <circle cx="463.08" cy="299.93" r="2.5" fill="#2563eb"/>
  <circle cx="464.42" cy="299.93" r="2.5" fill="#2563eb"/>
  <circle cx="465.77" cy="300.01" r="2.5" fill="#2563eb"/>
  <circle cx="467.12" cy="300.01" r="2.5" fill="#2563eb"/>
  <circle cx="468.46" cy="249.94" r="2.5" fill="#2563eb"/>
  <circle cx="469.81" cy="299.97" r="2.5" fill="#2563eb"/>
  <circle cx="471.15" cy="299.97" r="2.5" fill="#2563eb"/>
  <circle cx="472.50" cy="300.01" r="2.5" fill="#2563eb"/>
  <circle cx="473.85" cy="300.01" r="2.5" fill="#2563eb"/>
  <circle cx="475.19" cy="300.01" r="2.5" fill="#2563eb"/>
  <circle cx="476.54" cy="249.99" r="2.5" fill="#2563eb"/>
  <circle cx="477.88" cy="300.01" r="2.5" fill="#2563eb"/>
  <circle cx="479.23" cy="300.01" r="2.5" fill="#2563eb"/>
  <circle cx="480.58" cy="300.01" r="2.5" fill="#2563eb"/>
  <circle cx="481.92" cy="250.03" r="2.5" fill="#2563eb"/>
  <circle cx="483.27" cy="300.01" r="2.5" fill="#2563eb"/>
  <circle cx="484.62" cy="300.01" r="2.5" fill="#2563eb"/>
  <circle cx="485.96" cy="300.01" r="2.5" fill="#2563eb"/>
  <circle cx="487.31" cy="299.97" r="2.5" fill="#2563eb"/>
  <circle cx="488.65" cy="300.01" r="2.5" fill="#2563eb"/>
  <circle cx="490.00" cy="300.01" r="2.5" fill="#2563eb"/>
  <circle cx="491.35" cy="299.97" r="2.5" fill="#2563eb"/>
  <circle cx="492.69" cy="299.97" r="2.5" fill="#2563eb"/>
  <circle cx="494.04" cy="300.01" r="2.5" fill="#2563eb"/>
  <circle cx="495.38" cy="300.01" r="2.5" fill="#2563eb"/>
  <circle cx="496.73" cy="299.97" r="2.5" fill="#2563eb"/>
  <circle cx="498.08" cy="299.93" r="2.5" fill="#2563eb"/>
  <circle cx="499.42" cy="300.01" r="2.5" fill="#2563eb"/>
  <circle cx="500.77" cy="300.06" r="2.5" fill="#2563eb"/>
  <circle cx="502.12" cy="299.97" r="2.5" fill="#2563eb"/>
  <circle cx="503.46" cy="300.01" r="2.5" fill="#2563eb"/>
  <circle cx="504.81" cy="250.03" r="2.5" fill="#2563eb"/>
  <circle cx="506.15" cy="250.03" r="2.5" fill="#2563eb"/>
  <circle cx="507.50" cy="299.93" r="2.5" fill="#2563eb"/>
  <circle cx="508.85" cy="299.97" r="2.5" fill="#2563eb"/>
  <circle cx="510.19" cy="300.01" r="2.5" fill="#2563eb"/>
  <circle cx="511.54" cy="300.01" r="2.5" fill="#2563eb"/>
  <circle cx="512.88" cy="300.06" r="2.5" fill="#2563eb"/>
  <circle cx="514.23" cy="300.01" r="2.5" fill="#2563eb"/>
  <circle cx="515.58" cy="299.93" r="2.5" fill="#2563eb"/>
  <circle cx="516.92" cy="300.01" r="2.5" fill="#2563eb"/>
  <circle cx="518.27" cy="300.01" r="2.5" fill="#2563eb"/>
  <circle cx="519.62" cy="299.97" r="2.5" fill="#2563eb"/>
  <circle cx="520.96" cy="299.97" r="2.5" fill="#2563eb"/>
  <circle cx="522.31" cy="300.01" r="2.5" fill="#2563eb"/>
  <circle cx="523.65" cy="250.03" r="2.5" fill="#2563eb"/>
  <circle cx="525.00" cy="300.01" r="2.5" fill="#2563eb"/>
  <circle cx="526.35" cy="300.01" r="2.5" fill="#2563eb"/>
  <circle cx="527.69" cy="300.01" r="2.5" fill="#2563eb"/>
  <circle cx="529.04" cy="299.97" r="2.5" fill="#2563eb"/>
  <circle cx="530.38" cy="300.01" r="2.5" fill="#2563eb"/>
  <circle cx="531.73" cy="299.97" r="2.5" fill="#2563eb"/>
  <circle cx="533.08" cy="300.01" r="2.5" fill="#2563eb"/>
  <circle cx="534.42" cy="299.97" r="2.5" fill="#2563eb"/>
  <circle cx="535.77" cy="299.97" r="2.5" fill="#2563eb"/>
  <circle cx="537.12" cy="299.93" r="2.5" fill="#2563eb"/>
  <circle cx="538.46" cy="300.01" r="2.5" fill="#2563eb"/>
  <circle cx="539.81" cy="300.01" r="2.5" fill="#2563eb"/>
  <circle cx="541.15" cy="299.89" r="2.5" fill="#2563eb"/>
  <circle cx="542.50" cy="299.97" r="2.5" fill="#2563eb"/>
  <circle cx="543.85" cy="299.97" r="2.5" fill="#2563eb"/>
  <circle cx="545.19" cy="300.06" r="2.5" fill="#2563eb"/>
  <circle cx="546.54" cy="249.90" r="2.5" fill="#2563eb"/>
  <circle cx="547.88" cy="299.89" r="2.5" fill="#2563eb"/>
  <circle cx="549.23" cy="300.01" r="2.5" fill="#2563eb"/>
  <circle cx="550.58" cy="299.97" r="2.5" fill="#2563eb"/>
  <circle cx="551.92" cy="299.97" r="2.5" fill="#2563eb"/>
  <circle cx="553.27" cy="299.97" r="2.5" fill="#2563eb"/>
  <circle cx="554.62" cy="300.01" r="2.5" fill="#2563eb"/>
  <circle cx="555.96" cy="300.01" r="2.5" fill="#2563eb"/>
  <circle cx="557.31" cy="299.97" r="2.5" fill="#2563eb"/>
  <circle cx="558.65" cy="299.97" r="2.5" fill="#2563eb"/>
  <circle cx="560.00" cy="299.97" r="2.5" fill="#2563eb"/>
  <circle cx="561.35" cy="250.03" r="2.5" fill="#2563eb"/>
  <circle cx="562.69" cy="299.93" r="2.5" fill="#2563eb"/>
  <circle cx="564.04" cy="300.01" r="2.5" fill="#2563eb"/>
  <circle cx="565.38" cy="300.01" r="2.5" fill="#2563eb"/>
  <circle cx="566.73" cy="299.93" r="2.5" fill="#2563eb"/>
  <circle cx="568.08" cy="300.01" r="2.5" fill="#2563eb"/>
  <circle cx="569.42" cy="300.01" r="2.5" fill="#2563eb"/>
  <circle cx="570.77" cy="299.97" r="2.5" fill="#2563eb"/>
  <circle cx="572.12" cy="300.01" r="2.5" fill="#2563eb"/>
  <circle cx="573.46" cy="300.01" r="2.5" fill="#2563eb"/>
  <circle cx="574.81" cy="300.06" r="2.5" fill="#2563eb"/>
  <circle cx="576.15" cy="300.01" r="2.5" fill="#2563eb"/>
  <circle cx="577.50" cy="299.97" r="2.5" fill="#2563eb"/>
  <circle cx="578.85" cy="299.89" r="2.5" fill="#2563eb"/>
  <circle cx="580.19" cy="300.01" r="2.5" fill="#2563eb"/>
  <circle cx="581.54" cy="300.01" r="2.5" fill="#2563eb"/>
  <circle cx="582.88" cy="249.94" r="2.5" fill="#2563eb"/>
  <circle cx="584.23" cy="249.94" r="2.5" fill="#2563eb"/>
  <circle cx="585.58" cy="300.01" r="2.5" fill="#2563eb"/>
  <circle cx="586.92" cy="300.01" r="2.5" fill="#2563eb"/>
  <circle cx="588.27" cy="300.01" r="2.5" fill="#2563eb"/>
  <circle cx="589.62" cy="300.01" r="2.5" fill="#2563eb"/>
  <circle cx="590.96" cy="299.97" r="2.5" fill="#2563eb"/>
  <circle cx="592.31" cy="250.03" r="2.5" fill="#2563eb"/>
  <circle cx="593.65" cy="300.01" r="2.5" fill="#2563eb"/>
  <circle cx="595.00" cy="300.01" r="2.5" fill="#2563eb"/>
  <circle cx="596.35" cy="300.01" r="2.5" fill="#2563eb"/>
  <circle cx="597.69" cy="300.01" r="2.5" fill="#2563eb"/>
  <circle cx="599.04" cy="250.03" r="2.5" fill="#2563eb"/>
  <circle cx="600.38" cy="249.99" r="2.5" fill="#2563eb"/>
  <circle cx="601.73" cy="300.01" r="2.5" fill="#2563eb"/>
  <circle cx="603.08" cy="299.97" r="2.5" fill="#2563eb"/>
  <circle cx="604.42" cy="300.01" r="2.5" fill="#2563eb"/>
  <circle cx="605.77" cy="299.97" r="2.5" fill="#2563eb"/>
  <circle cx="607.12" cy="300.01" r="2.5" fill="#2563eb"/>
  <circle cx="608.46" cy="299.97" r="2.5" fill="#2563eb"/>
  <circle cx="609.81" cy="299.97" r="2.5" fill="#2563eb"/>
  <circle cx="611.15" cy="299.97" r="2.5" fill="#2563eb"/>
  <circle cx="612.50" cy="300.06" r="2.5" fill="#2563eb"/>
  <circle cx="613.85" cy="249.99" r="2.5" fill="#2563eb"/>
  <circle cx="615.19" cy="300.01" r="2.5" fill="#2563eb"/>
  <circle cx="616.54" cy="250.03" r="2.5" fill="#2563eb"/>
  <circle cx="617.88" cy="249.94" r="2.5" fill="#2563eb"/>
  <circle cx="619.23" cy="249.99" r="2.5" fill="#2563eb"/>
  <circle cx="620.58" cy="300.01" r="2.5" fill="#2563eb"/>
  <circle cx="621.92" cy="300.06" r="2.5" fill="#2563eb"/>
  <circle cx="623.27" cy="300.01" r="2.5" fill="#2563eb"/>
  <circle cx="624.62" cy="299.97" r="2.5" fill="#2563eb"/>
  <circle cx="625.96" cy="299.97" r="2.5" fill="#2563eb"/>
  <circle cx="627.31" cy="300.01" r="2.5" fill="#2563eb"/>
  <circle cx="628.65" cy="299.93" r="2.5" fill="#2563eb"/>
  <circle cx="630.00" cy="299.89" r="2.5" fill="#2563eb"/>
  <circle cx="631.35" cy="299.89" r="2.5" fill="#2563eb"/>
  <circle cx="632.69" cy="299.89" r="2.5" fill="#2563eb"/>
  <circle cx="634.04" cy="299.89" r="2.5" fill="#2563eb"/>
  <circle cx="635.38" cy="299.85" r="2.5" fill="#2563eb"/>
  <circle cx="636.73" cy="299.85" r="2.5" fill="#2563eb"/>
  <circle cx="638.08" cy="299.89" r="2.5" fill="#2563eb"/>
  <circle cx="639.42" cy="299.81" r="2.5" fill="#2563eb"/>
  <circle cx="640.77" cy="299.81" r="2.5" fill="#2563eb"/>
  <circle cx="642.12" cy="299.81" r="2.5" fill="#2563eb"/>
  <circle cx="643.46" cy="299.76" r="2.5" fill="#2563eb"/>
  <circle cx="644.81" cy="299.76" r="2.5" fill="#2563eb"/>
  <circle cx="646.15" cy="299.76" r="2.5" fill="#2563eb"/>
  <circle cx="647.50" cy="299.72" r="2.5" fill="#2563eb"/>
  <circle cx="648.85" cy="299.68" r="2.5" fill="#2563eb"/>
  <circle cx="650.19" cy="299.60" r="2.5" fill="#2563eb"/>
  <circle cx="651.54" cy="299.60" r="2.5" fill="#2563eb"/>
  <circle cx="652.88" cy="299.60" r="2.5" fill="#2563eb"/>
  <circle cx="654.23" cy="299.56" r="2.5" fill="#2563eb"/>
  <circle cx="655.58" cy="299.47" r="2.5" fill="#2563eb"/>
  <circle cx="656.92" cy="299.43" r="2.5" fill="#2563eb"/>
  <circle cx="658.27" cy="299.43" r="2.5" fill="#2563eb"/>
  <circle cx="659.62" cy="299.39" r="2.5" fill="#2563eb"/>
  <circle cx="660.96" cy="299.47" r="2.5" fill="#2563eb"/>
  <circle cx="662.31" cy="259.82" r="2.5" fill="#2563eb"/>
  <circle cx="663.65" cy="338.96" r="2.5" fill="#2563eb"/>
  <circle cx="665.00" cy="299.31" r="2.5" fill="#2563eb"/>
  <circle cx="666.35" cy="299.31" r="2.5" fill="#2563eb"/>
  <circle cx="667.69" cy="299.26" r="2.5" fill="#2563eb"/>
  <circle cx="669.04" cy="299.68" r="2.5" fill="#2563eb"/>
  <circle cx="670.38" cy="299.68" r="2.5" fill="#2563eb"/>
  <circle cx="671.73" cy="299.68" r="2.5" fill="#2563eb"/>
  <circle cx="673.08" cy="299.64" r="2.5" fill="#2563eb"/>
  <circle cx="674.42" cy="299.14" r="2.5" fill="#2563eb"/>
  <circle cx="675.77" cy="299.14" r="2.5" fill="#2563eb"/>
  <circle cx="677.12" cy="299.10" r="2.5" fill="#2563eb"/>
  <circle cx="678.46" cy="299.10" r="2.5" fill="#2563eb"/>
  <circle cx="679.81" cy="299.10" r="2.5" fill="#2563eb"/>
  <circle cx="681.15" cy="248.07" r="2.5" fill="#2563eb"/>
  <circle cx="682.50" cy="299.06" r="2.5" fill="#2563eb"/>
  <circle cx="683.85" cy="299.06" r="2.5" fill="#2563eb"/>
  <circle cx="685.19" cy="299.06" r="2.5" fill="#2563eb"/>
  <circle cx="686.54" cy="299.06" r="2.5" fill="#2563eb"/>
  <circle cx="687.88" cy="299.06" r="2.5" fill="#2563eb"/>
  <circle cx="689.23" cy="298.97" r="2.5" fill="#2563eb"/>
  <circle cx="690.58" cy="298.97" r="2.5" fill="#2563eb"/>
  <circle cx="691.92" cy="298.93" r="2.5" fill="#2563eb"/>
  <circle cx="693.27" cy="298.97" r="2.5" fill="#2563eb"/>
  <circle cx="694.62" cy="298.93" r="2.5" fill="#2563eb"/>
  <circle cx="695.96" cy="298.89" r="2.5" fill="#2563eb"/>
  <circle cx="697.31" cy="298.89" r="2.5" fill="#2563eb"/>
  <circle cx="698.65" cy="298.89" r="2.5" fill="#2563eb"/>
  <circle cx="700.00" cy="298.89" r="2.5" fill="#2563eb"/>
  <circle cx="701.35" cy="247.78" r="2.5" fill="#2563eb"/>
  <circle cx="702.69" cy="298.89" r="2.5" fill="#2563eb"/>
  <circle cx="704.04" cy="298.89" r="2.5" fill="#2563eb"/>
  <circle cx="705.38" cy="298.85" r="2.5" fill="#2563eb"/>
  <circle cx="706.73" cy="298.85" r="2.5" fill="#2563eb"/>
  <circle cx="708.08" cy="298.81" r="2.5" fill="#2563eb"/>
  <circle cx="709.42" cy="298.81" r="2.5" fill="#2563eb"/>
  <circle cx="710.77" cy="298.81" r="2.5" fill="#2563eb"/>
  <circle cx="712.12" cy="298.81" r="2.5" fill="#2563eb"/>
  <circle cx="713.46" cy="298.81" r="2.5" fill="#2563eb"/>
  <circle cx="714.81" cy="298.81" r="2.5" fill="#2563eb"/>
  <circle cx="716.15" cy="298.81" r="2.5" fill="#2563eb"/>
  <circle cx="717.50" cy="298.81" r="2.5" fill="#2563eb"/>
  <circle cx="718.85" cy="298.81" r="2.5" fill="#2563eb"/>
  <circle cx="720.19" cy="298.72" r="2.5" fill="#2563eb"/>
  <circle cx="721.54" cy="247.45" r="2.5" fill="#2563eb"/>
  <circle cx="722.88" cy="247.45" r="2.5" fill="#2563eb"/>
  <circle cx="724.23" cy="298.72" r="2.5" fill="#2563eb"/>
  <circle cx="725.58" cy="298.72" r="2.5" fill="#2563eb"/>
  <circle cx="726.92" cy="298.72" r="2.5" fill="#2563eb"/>
  <circle cx="728.27" cy="298.72" r="2.5" fill="#2563eb"/>
  <circle cx="729.62" cy="298.72" r="2.5" fill="#2563eb"/>
  <circle cx="730.96" cy="298.72" r="2.5" fill="#2563eb"/>
  <circle cx="732.31" cy="247.36" r="2.5" fill="#2563eb"/>
  <circle cx="733.65" cy="298.68" r="2.5" fill="#2563eb"/>
  <circle cx="735.00" cy="247.36" r="2.5" fill="#2563eb"/>
  <circle cx="736.35" cy="247.36" r="2.5" fill="#2563eb"/>
  <circle cx="737.69" cy="247.36" r="2.5" fill="#2563eb"/>
  <circle cx="739.04" cy="298.68" r="2.5" fill="#2563eb"/>
  <circle cx="740.38" cy="298.68" r="2.5" fill="#2563eb"/>
  <circle cx="741.73" cy="298.68" r="2.5" fill="#2563eb"/>
  <circle cx="743.08" cy="298.68" r="2.5" fill="#2563eb"/>
  <circle cx="744.42" cy="298.68" r="2.5" fill="#2563eb"/>
  <circle cx="745.77" cy="341.67" r="2.5" fill="#2563eb"/>
  <circle cx="747.12" cy="307.01" r="2.5" fill="#2563eb"/>
  <circle cx="748.46" cy="298.68" r="2.5" fill="#2563eb"/>
  <circle cx="749.81" cy="298.68" r="2.5" fill="#2563eb"/>
  <circle cx="751.15" cy="298.68" r="2.5" fill="#2563eb"/>
  <circle cx="752.50" cy="247.36" r="2.5" fill="#2563eb"/>
  <circle cx="753.85" cy="298.64" r="2.5" fill="#2563eb"/>
  <circle cx="755.19" cy="247.36" r="2.5" fill="#2563eb"/>
  <circle cx="756.54" cy="247.28" r="2.5" fill="#2563eb"/>
  <circle cx="757.88" cy="247.20" r="2.5" fill="#2563eb"/>
  <circle cx="759.23" cy="298.60" r="2.5" fill="#2563eb"/>
  <circle cx="760.58" cy="298.60" r="2.5" fill="#2563eb"/>
  <circle cx="761.92" cy="247.03" r="2.5" fill="#2563eb"/>
  <circle cx="763.27" cy="298.51" r="2.5" fill="#2563eb"/>
  <circle cx="764.62" cy="298.51" r="2.5" fill="#2563eb"/>
  <circle cx="765.96" cy="298.51" r="2.5" fill="#2563eb"/>
  <circle cx="767.31" cy="298.51" r="2.5" fill="#2563eb"/>
  <circle cx="768.65" cy="298.51" r="2.5" fill="#2563eb"/>
  <circle cx="770.00" cy="298.51" r="2.5" fill="#2563eb"/>
  <circle cx="771.35" cy="298.51" r="2.5" fill="#2563eb"/>
  <circle cx="772.69" cy="298.51" r="2.5" fill="#2563eb"/>
  <circle cx="774.04" cy="298.51" r="2.5" fill="#2563eb"/>
  <circle cx="775.38" cy="298.51" r="2.5" fill="#2563eb"/>
  <circle cx="776.73" cy="298.51" r="2.5" fill="#2563eb"/>
  <circle cx="778.08" cy="298.51" r="2.5" fill="#2563eb"/>
  <circle cx="779.42" cy="298.51" r="2.5" fill="#2563eb"/>
  <circle cx="780.77" cy="298.51" r="2.5" fill="#2563eb"/>
  <circle cx="782.12" cy="298.51" r="2.5" fill="#2563eb"/>
  <circle cx="783.46" cy="298.51" r="2.5" fill="#2563eb"/>
  <circle cx="784.81" cy="298.51" r="2.5" fill="#2563eb"/>
  <circle cx="786.15" cy="298.51" r="2.5" fill="#2563eb"/>
  <circle cx="787.50" cy="298.51" r="2.5" fill="#2563eb"/>
  <circle cx="788.85" cy="298.51" r="2.5" fill="#2563eb"/>
  <circle cx="790.19" cy="298.51" r="2.5" fill="#2563eb"/>
  <circle cx="791.54" cy="298.51" r="2.5" fill="#2563eb"/>
  <circle cx="792.88" cy="298.51" r="2.5" fill="#2563eb"/>
  <circle cx="794.23" cy="298.51" r="2.5" fill="#2563eb"/>
  <circle cx="795.58" cy="298.51" r="2.5" fill="#2563eb"/>
  <circle cx="796.92" cy="298.51" r="2.5" fill="#2563eb"/>
  <circle cx="798.27" cy="298.47" r="2.5" fill="#2563eb"/>
  <circle cx="799.62" cy="298.51" r="2.5" fill="#2563eb"/>
  <circle cx="800.96" cy="298.51" r="2.5" fill="#2563eb"/>
  <circle cx="802.31" cy="298.47" r="2.5" fill="#2563eb"/>
  <circle cx="803.65" cy="298.51" r="2.5" fill="#2563eb"/>
  <circle cx="805.00" cy="298.47" r="2.5" fill="#2563eb"/>
  <circle cx="806.35" cy="298.51" r="2.5" fill="#2563eb"/>
  <circle cx="807.69" cy="298.43" r="2.5" fill="#2563eb"/>
  <circle cx="809.04" cy="298.56" r="2.5" fill="#2563eb"/>
  <circle cx="810.38" cy="298.43" r="2.5" fill="#2563eb"/>
  <circle cx="811.73" cy="298.43" r="2.5" fill="#2563eb"/>
  <circle cx="813.08" cy="298.43" r="2.5" fill="#2563eb"/>
  <circle cx="814.42" cy="298.43" r="2.5" fill="#2563eb"/>
  <circle cx="815.77" cy="298.43" r="2.5" fill="#2563eb"/>
  <circle cx="817.12" cy="298.43" r="2.5" fill="#2563eb"/>
  <circle cx="818.46" cy="298.43" r="2.5" fill="#2563eb"/>
  <circle cx="819.81" cy="298.43" r="2.5" fill="#2563eb"/>
  <circle cx="821.15" cy="298.43" r="2.5" fill="#2563eb"/>
  <circle cx="822.50" cy="298.43" r="2.5" fill="#2563eb"/>
  <circle cx="823.85" cy="298.43" r="2.5" fill="#2563eb"/>
  <circle cx="825.19" cy="298.43" r="2.5" fill="#2563eb"/>
  <circle cx="826.54" cy="298.43" r="2.5" fill="#2563eb"/>
  <circle cx="827.88" cy="298.43" r="2.5" fill="#2563eb"/>
  <circle cx="829.23" cy="298.43" r="2.5" fill="#2563eb"/>
  <circle cx="830.58" cy="298.43" r="2.5" fill="#2563eb"/>
  <circle cx="831.92" cy="298.43" r="2.5" fill="#2563eb"/>
  <circle cx="833.27" cy="298.43" r="2.5" fill="#2563eb"/>
  <circle cx="834.62" cy="298.43" r="2.5" fill="#2563eb"/>
  <circle cx="835.96" cy="298.43" r="2.5" fill="#2563eb"/>
  <circle cx="837.31" cy="298.43" r="2.5" fill="#2563eb"/>
  <circle cx="838.65" cy="298.43" r="2.5" fill="#2563eb"/>
  <circle cx="840.00" cy="298.43" r="2.5" fill="#2563eb"/>
  <circle cx="841.35" cy="298.43" r="2.5" fill="#2563eb"/>
  <circle cx="842.69" cy="298.43" r="2.5" fill="#2563eb"/>
  <circle cx="844.04" cy="298.43" r="2.5" fill="#2563eb"/>
  <circle cx="845.38" cy="298.43" r="2.5" fill="#2563eb"/>
  <circle cx="846.73" cy="298.43" r="2.5" fill="#2563eb"/>
  <circle cx="848.08" cy="298.43" r="2.5" fill="#2563eb"/>
  <circle cx="849.42" cy="298.43" r="2.5" fill="#2563eb"/>
  <circle cx="850.77" cy="298.43" r="2.5" fill="#2563eb"/>
  <circle cx="852.12" cy="298.43" r="2.5" fill="#2563eb"/>
  <circle cx="853.46" cy="298.43" r="2.5" fill="#2563eb"/>
  <circle cx="854.81" cy="298.43" r="2.5" fill="#2563eb"/>
  <circle cx="856.15" cy="298.39" r="2.5" fill="#2563eb"/>
  <circle cx="857.50" cy="298.39" r="2.5" fill="#2563eb"/>
  <circle cx="858.85" cy="298.43" r="2.5" fill="#2563eb"/>
  <circle cx="860.19" cy="298.43" r="2.5" fill="#2563eb"/>
  <circle cx="861.54" cy="298.39" r="2.5" fill="#2563eb"/>
  <circle cx="862.88" cy="298.39" r="2.5" fill="#2563eb"/>
  <circle cx="864.23" cy="298.39" r="2.5" fill="#2563eb"/>
  <circle cx="865.58" cy="298.43" r="2.5" fill="#2563eb"/>
  <circle cx="866.92" cy="298.43" r="2.5" fill="#2563eb"/>
  <circle cx="868.27" cy="298.43" r="2.5" fill="#2563eb"/>
  <circle cx="869.62" cy="246.82" r="2.5" fill="#2563eb"/>
  <circle cx="870.96" cy="298.43" r="2.5" fill="#2563eb"/>
  <circle cx="872.31" cy="246.78" r="2.5" fill="#2563eb"/>
  <circle cx="873.65" cy="246.78" r="2.5" fill="#2563eb"/>
  <circle cx="875.00" cy="246.78" r="2.5" fill="#2563eb"/>
  <circle cx="876.35" cy="246.70" r="2.5" fill="#2563eb"/>
  <circle cx="877.69" cy="246.78" r="2.5" fill="#2563eb"/>
  <circle cx="879.04" cy="298.39" r="2.5" fill="#2563eb"/>
  <circle cx="880.38" cy="298.39" r="2.5" fill="#2563eb"/>
  <circle cx="881.73" cy="298.39" r="2.5" fill="#2563eb"/>
  <circle cx="883.08" cy="298.39" r="2.5" fill="#2563eb"/>
  <circle cx="884.42" cy="298.39" r="2.5" fill="#2563eb"/>
  <circle cx="885.77" cy="246.78" r="2.5" fill="#2563eb"/>
  <circle cx="887.12" cy="298.39" r="2.5" fill="#2563eb"/>
  <circle cx="888.46" cy="298.39" r="2.5" fill="#2563eb"/>
  <circle cx="889.81" cy="298.39" r="2.5" fill="#2563eb"/>
  <circle cx="891.15" cy="298.39" r="2.5" fill="#2563eb"/>
  <circle cx="892.50" cy="298.39" r="2.5" fill="#2563eb"/>
  <circle cx="893.85" cy="246.78" r="2.5" fill="#2563eb"/>
  <circle cx="895.19" cy="246.78" r="2.5" fill="#2563eb"/>
  <circle cx="896.54" cy="298.39" r="2.5" fill="#2563eb"/>
  <circle cx="897.88" cy="298.39" r="2.5" fill="#2563eb"/>
  <circle cx="899.23" cy="298.39" r="2.5" fill="#2563eb"/>
  <circle cx="900.58" cy="298.39" r="2.5" fill="#2563eb"/>
  <circle cx="901.92" cy="298.39" r="2.5" fill="#2563eb"/>
  <circle cx="903.27" cy="298.39" r="2.5" fill="#2563eb"/>
  <circle cx="904.62" cy="298.39" r="2.5" fill="#2563eb"/>
  <circle cx="905.96" cy="298.39" r="2.5" fill="#2563eb"/>
  <circle cx="907.31" cy="298.39" r="2.5" fill="#2563eb"/>
  <circle cx="908.65" cy="298.39" r="2.5" fill="#2563eb"/>
  <circle cx="910.00" cy="298.39" r="2.5" fill="#2563eb"/>
  <circle cx="911.35" cy="298.39" r="2.5" fill="#2563eb"/>
  <circle cx="912.69" cy="298.39" r="2.5" fill="#2563eb"/>
  <circle cx="914.04" cy="298.39" r="2.5" fill="#2563eb"/>
  <circle cx="915.38" cy="298.35" r="2.5" fill="#2563eb"/>
  <circle cx="916.73" cy="298.39" r="2.5" fill="#2563eb"/>
  <circle cx="918.08" cy="298.39" r="2.5" fill="#2563eb"/>
  <circle cx="919.42" cy="298.35" r="2.5" fill="#2563eb"/>
  <circle cx="920.77" cy="298.35" r="2.5" fill="#2563eb"/>
  <circle cx="922.12" cy="298.35" r="2.5" fill="#2563eb"/>
  <circle cx="923.46" cy="298.35" r="2.5" fill="#2563eb"/>
  <circle cx="924.81" cy="298.35" r="2.5" fill="#2563eb"/>
  <circle cx="926.15" cy="298.35" r="2.5" fill="#2563eb"/>
  <circle cx="927.50" cy="298.35" r="2.5" fill="#2563eb"/>
  <circle cx="928.85" cy="298.35" r="2.5" fill="#2563eb"/>
  <circle cx="930.19" cy="298.35" r="2.5" fill="#2563eb"/>
  <circle cx="931.54" cy="298.35" r="2.5" fill="#2563eb"/>
  <circle cx="932.88" cy="298.35" r="2.5" fill="#2563eb"/>
  <circle cx="934.23" cy="298.35" r="2.5" fill="#2563eb"/>
  <circle cx="935.58" cy="298.35" r="2.5" fill="#2563eb"/>
  <circle cx="936.92" cy="298.35" r="2.5" fill="#2563eb"/>
  <circle cx="938.27" cy="298.35" r="2.5" fill="#2563eb"/>
  <circle cx="939.62" cy="298.35" r="2.5" fill="#2563eb"/>
  <circle cx="940.96" cy="298.35" r="2.5" fill="#2563eb"/>
  <circle cx="942.31" cy="298.35" r="2.5" fill="#2563eb"/>
  <circle cx="943.65" cy="298.35" r="2.5" fill="#2563eb"/>
  <circle cx="945.00" cy="298.35" r="2.5" fill="#2563eb"/>
  <circle cx="946.35" cy="298.35" r="2.5" fill="#2563eb"/>
  <circle cx="947.69" cy="298.35" r="2.5" fill="#2563eb"/>
  <circle cx="949.04" cy="298.35" r="2.5" fill="#2563eb"/>
  <circle cx="950.38" cy="298.35" r="2.5" fill="#2563eb"/>
  <circle cx="951.73" cy="298.35" r="2.5" fill="#2563eb"/>
  <circle cx="953.08" cy="298.35" r="2.5" fill="#2563eb"/>
  <circle cx="954.42" cy="298.35" r="2.5" fill="#2563eb"/>
  <circle cx="955.77" cy="298.35" r="2.5" fill="#2563eb"/>
  <circle cx="957.12" cy="298.35" r="2.5" fill="#2563eb"/>
  <circle cx="958.46" cy="298.35" r="2.5" fill="#2563eb"/>
  <circle cx="959.81" cy="298.35" r="2.5" fill="#2563eb"/>
  <circle cx="961.15" cy="298.35" r="2.5" fill="#2563eb"/>
  <circle cx="962.50" cy="298.35" r="2.5" fill="#2563eb"/>
  <circle cx="963.85" cy="298.35" r="2.5" fill="#2563eb"/>
  <circle cx="965.19" cy="298.35" r="2.5" fill="#2563eb"/>
  <circle cx="966.54" cy="298.35" r="2.5" fill="#2563eb"/>
  <circle cx="967.88" cy="298.35" r="2.5" fill="#2563eb"/>
  <circle cx="969.23" cy="298.35" r="2.5" fill="#2563eb"/>
  <circle cx="970.58" cy="298.35" r="2.5" fill="#2563eb"/>
  <circle cx="971.92" cy="298.35" r="2.5" fill="#2563eb"/>
  <circle cx="973.27" cy="298.35" r="2.5" fill="#2563eb"/>
  <circle cx="974.62" cy="298.35" r="2.5" fill="#2563eb"/>
  <circle cx="975.96" cy="298.35" r="2.5" fill="#2563eb"/>
  <circle cx="977.31" cy="298.35" r="2.5" fill="#2563eb"/>
  <circle cx="978.65" cy="298.35" r="2.5" fill="#2563eb"/>
  <circle cx="980.00" cy="298.35" r="2.5" fill="#2563eb"/>
</svg>
