<?xml version="1.0" encoding="UTF-8"?>
<svg xmlns="http://www.w3.org/2000/svg" width="1000" height="420" viewBox="0 0 1000 420">
  <rect width="100%" height="100%" fill="#ffffff"/>
  <text x="70" y="28" font-size="20" font-weight="600">수집 시점 기준 - 시간별 스냅샷</text>
  <text x="70" y="402" font-size="12" fill="#555">스냅샷 수</text>
  <line x1="70" y1="350.00" x2="980" y2="350.00" stroke="#e5e7eb" stroke-width="1"/>
  <text x="62" y="354.00" font-size="11" fill="#6b7280" text-anchor="end">0</text>
  <line x1="70" y1="290.00" x2="980" y2="290.00" stroke="#e5e7eb" stroke-width="1"/>
  <text x="62" y="294.00" font-size="11" fill="#6b7280" text-anchor="end">1,440</text>
  <line x1="70" y1="230.00" x2="980" y2="230.00" stroke="#e5e7eb" stroke-width="1"/>
  <text x="62" y="234.00" font-size="11" fill="#6b7280" text-anchor="end">2,880</text>
  <line x1="70" y1="170.00" x2="980" y2="170.00" stroke="#e5e7eb" stroke-width="1"/>
  <text x="62" y="174.00" font-size="11" fill="#6b7280" text-anchor="end">4,321</text>
  <line x1="70" y1="110.00" x2="980" y2="110.00" stroke="#e5e7eb" stroke-width="1"/>
  <text x="62" y="114.00" font-size="11" fill="#6b7280" text-anchor="end">5,761</text>
  <line x1="70" y1="50.00" x2="980" y2="50.00" stroke="#e5e7eb" stroke-width="1"/>
  <text x="62" y="54.00" font-size="11" fill="#6b7280" text-anchor="end">7,202</text>
  <line x1="70" y1="350" x2="980" y2="350" stroke="#111827" stroke-width="1.2"/>
  <line x1="70" y1="50" x2="70" y2="350" stroke="#111827" stroke-width="1.2"/>
  <line x1="70.00" y1="350" x2="70.00" y2="356" stroke="#9ca3af" stroke-width="1"/>
  <text x="70.00" y="372" font-size="10" fill="#6b7280" text-anchor="middle">2026-02-28 18</text>
  <line x1="145.97" y1="350" x2="145.97" y2="356" stroke="#9ca3af" stroke-width="1"/>
  <text x="145.97" y="372" font-size="10" fill="#6b7280" text-anchor="middle">2026-03-09 00</text>
  <line x1="221.95" y1="350" x2="221.95" y2="356" stroke="#9ca3af" stroke-width="1"/>
  <text x="221.95" y="372" font-size="10" fill="#6b7280" text-anchor="middle">2026-03-11 01</text>
  <line x1="297.92" y1="350" x2="297.92" y2="356" stroke="#9ca3af" stroke-width="1"/>
  <text x="297.92" y="372" font-size="10" fill="#6b7280" text-anchor="middle">2026-03-13 02</text>
  <line x1="373.90" y1="350" x2="373.90" y2="356" stroke="#9ca3af" stroke-width="1"/>
  <text x="373.90" y="372" font-size="10" fill="#6b7280" text-anchor="middle">2026-03-15 08</text>
  <line x1="449.87" y1="350" x2="449.87" y2="356" stroke="#9ca3af" stroke-width="1"/>
  <text x="449.87" y="372" font-size="10" fill="#6b7280" text-anchor="middle">2026-03-18 08</text>
  <line x1="525.84" y1="350" x2="525.84" y2="356" stroke="#9ca3af" stroke-width="1"/>
  <text x="525.84" y="372" font-size="10" fill="#6b7280" text-anchor="middle">2026-03-21 04</text>
  <line x1="601.82" y1="350" x2="601.82" y2="356" stroke="#9ca3af" stroke-width="1"/>
  <text x="601.82" y="372" font-size="10" fill="#6b7280" text-anchor="middle">2026-03-23 20</text>
  <line x1="677.79" y1="350" x2="677.79" y2="356" stroke="#9ca3af" stroke-width="1"/>
  <text x="677.79" y="372" font-size="10" fill="#6b7280" text-anchor="middle">2026-03-26 21</text>
  <line x1="753.77" y1="350" x2="753.77" y2="356" stroke="#9ca3af" stroke-width="1"/>
  <text x="753.77" y="372" font-size="10" fill="#6b7280" text-anchor="middle">2026-03-29 22</text>
  <line x1="829.74" y1="350" x2="829.74" y2="356" stroke="#9ca3af" stroke-width="1"/>
  <text x="829.74" y="372" font-size="10" fill="#6b7280" text-anchor="middle">2026-04-02 03</text>
  <line x1="905.71" y1="350" x2="905.71" y2="356" stroke="#9ca3af" stroke-width="1"/>
  <text x="905.71" y="372" font-size="10" fill="#6b7280" text-anchor="middle">2026-04-05 02</text>
  <line x1="980.00" y1="350" x2="980.00" y2="356" stroke="#9ca3af" stroke-width="1"/>
  <text x="980.00" y="372" font-size="10" fill="#6b7280" text-anchor="middle">2026-04-08 03</text>
  <polyline fill="none" stroke="#2563eb" stroke-width="2.5" points="70.00,50.00 71.69,50.12 73.38,50.17 75.06,50.46 76.75,50.00 78.44,266.90 80.13,50.12 81.82,50.08 83.51,177.46 85.19,211.58 86.88,175.34 88.57,304.14 90.26,200.46 91.95,250.94 93.64,300.01 95.32,300.06 97.01,300.01 98.70,300.01 100.39,348.00 102.08,300.01 103.77,249.99 105.45,200.00 107.14,249.99 108.83,249.99 110.52,250.03 112.21,250.03 113.90,250.03 115.58,250.40 117.27,250.90 118.96,250.90 120.65,251.32 122.34,249.94 124.03,300.01 125.71,299.93 127.40,251.03 129.09,300.68 130.78,250.03 132.47,200.00 134.16,249.99 135.84,250.03 137.53,250.03 139.22,250.03 140.91,300.01 142.60,200.04 144.29,250.03 145.97,250.03 147.66,250.03 149.35,249.90 151.04,250.03 152.73,250.03 154.42,250.94 156.10,250.44 157.79,250.03 159.48,250.03 161.17,300.47 162.86,300.01 164.55,300.43 166.23,250.03 167.92,249.99 169.61,300.43 171.30,249.90 172.99,249.99 174.68,249.99 176.36,200.04 178.05,300.01 179.74,300.01 181.43,300.01 183.12,249.90 184.81,300.01 186.49,250.03 188.18,249.99 189.87,199.96 191.56,300.01 193.25,200.00 194.94,250.36 196.62,250.03 198.31,300.01 200.00,300.01 201.69,250.44 203.38,300.01 205.06,250.03 206.75,250.03 208.44,249.99 210.13,250.49 211.82,250.03 213.51,200.04 215.19,300.01 216.88,250.03 218.57,300.01 220.26,250.11 221.95,300.01 223.64,250.03 225.32,250.03 227.01,199.92 228.70,250.03 230.39,250.03 232.08,250.03 233.77,254.36 235.45,300.01 237.14,299.97 238.83,250.36 240.52,299.97 242.21,250.03 243.90,250.03 245.58,250.03 247.27,250.03 248.96,249.99 250.65,200.00 252.34,299.93 254.03,300.01 255.71,299.97 257.40,249.94 259.09,249.99 260.78,249.82 262.47,249.94 264.16,250.28 265.84,207.00 267.53,250.03 269.22,250.32 270.91,250.40 272.60,300.93 274.29,300.01 275.97,300.10 277.66,249.94 279.35,249.99 281.04,250.07 282.73,249.99 284.42,250.03 286.10,249.94 287.79,200.00 289.48,300.39 291.17,300.01 292.86,300.01 294.55,250.44 296.23,300.39 297.92,249.86 299.61,250.11 301.30,201.46 302.99,300.01 304.68,200.83 306.36,250.03 308.05,249.99 309.74,300.26 311.43,300.01 313.12,300.01 314.81,250.03 316.49,250.03 318.18,250.03 319.87,250.03 321.56,249.99 323.25,250.03 324.94,200.00 326.62,300.26 328.31,249.99 330.00,300.01 331.69,249.94 333.38,250.03 335.06,250.03 336.75,250.03 338.44,200.04 340.13,300.01 341.82,249.90 343.51,300.01 345.19,300.01 346.88,300.06 348.57,300.01 350.26,300.01 351.95,243.95 353.64,249.94 355.32,299.97 357.01,300.01 358.70,300.01 360.39,250.03 362.08,300.01 363.77,300.01 365.45,299.97 367.14,249.99 368.83,300.01 370.52,299.93 372.21,300.01 373.90,299.93 375.58,300.01 377.27,300.01 378.96,299.89 380.65,299.97 382.34,250.03 384.03,299.93 385.71,299.89 387.40,299.97 389.09,249.94 390.78,300.01 392.47,300.01 394.16,299.97 395.84,249.99 397.53,299.97 399.22,299.97 400.91,300.06 402.60,300.06 404.29,299.93 405.97,300.01 407.66,300.01 409.35,299.93 411.04,300.01 412.73,300.01 414.42,299.97 416.10,300.01 417.79,300.01 419.48,300.01 421.17,300.01 422.86,249.86 424.55,300.01 426.23,300.10 427.92,299.93 429.61,300.01 431.30,299.93 432.99,300.01 434.68,300.01 436.36,300.01 438.05,300.01 439.74,300.01 441.43,299.97 443.12,300.01 444.81,300.01 446.49,300.01 448.18,300.01 449.87,250.03 451.56,300.01 453.25,300.01 454.94,299.97 456.62,300.01 458.31,300.01 460.00,299.97 461.69,299.97 463.38,300.01 465.06,299.97 466.75,300.01 468.44,299.93 470.13,300.01 471.82,250.03 473.51,300.01 475.19,300.01 476.88,300.01 478.57,300.01 480.26,300.01 481.95,299.89 483.64,300.01 485.32,300.01 487.01,250.07 488.70,300.01 490.39,299.93 492.08,300.01 493.77,299.97 495.45,299.97 497.14,299.97 498.83,250.03 500.52,300.01 502.21,300.01 503.90,300.01 505.58,300.01 507.27,299.97 508.96,300.01 510.65,299.97 512.34,300.01 514.03,299.97 515.71,249.90 517.40,300.01 519.09,300.01 520.78,299.89 522.47,299.97 524.16,299.97 525.84,249.99 527.53,299.97 529.22,299.89 530.91,300.01 532.60,299.97 534.29,299.97 535.97,300.01 537.66,299.97 539.35,249.99 541.04,299.97 542.73,299.97 544.42,300.06 546.10,300.06 547.79,249.94 549.48,300.01 551.17,299.93 552.86,300.01 554.55,300.01 556.23,249.99 557.92,300.01 559.61,300.01 561.30,300.01 562.99,299.93 564.68,299.93 566.36,300.01 568.05,300.01 569.74,249.94 571.43,299.97 573.12,299.97 574.81,300.01 576.49,300.01 578.18,300.01 579.87,249.99 581.56,300.01 583.25,300.01 584.94,300.01 586.62,250.03 588.31,300.01 590.00,300.01 591.69,300.01 593.38,299.97 595.06,300.01 596.75,300.01 598.44,299.97 600.13,299.97 601.82,300.01 603.51,300.01 605.19,299.97 606.88,299.93 608.57,300.01 610.26,300.06 611.95,299.97 613.64,300.01 615.32,250.03 617.01,250.03 618.70,299.93 620.39,299.97 622.08,300.01 623.77,300.01 625.45,300.06 627.14,300.01 628.83,299.93 630.52,300.01 632.21,300.01 633.90,299.97 635.58,299.97 637.27,300.01 638.96,250.03 640.65,300.01 642.34,300.01 644.03,300.01 645.71,299.97 647.40,300.01 649.09,299.97 650.78,300.01 652.47,299.97 654.16,299.97 655.84,299.93 657.53,300.01 659.22,300.01 660.91,299.89 662.60,299.97 664.29,299.97 665.97,300.06 667.66,249.90 669.35,299.89 671.04,300.01 672.73,299.97 674.42,299.97 676.10,299.97 677.79,300.01 679.48,300.01 681.17,299.97 682.86,299.97 684.55,299.97 686.23,250.03 687.92,299.93 689.61,300.01 691.30,300.01 692.99,299.93 694.68,300.01 696.36,300.01 698.05,299.97 699.74,300.01 701.43,300.01 703.12,300.06 704.81,300.01 706.49,299.97 708.18,299.89 709.87,300.01 711.56,300.01 713.25,249.94 714.94,249.94 716.62,300.01 718.31,300.01 720.00,300.01 721.69,300.01 723.38,299.97 725.06,250.03 726.75,300.01 728.44,300.01 730.13,300.01 731.82,300.01 733.51,250.03 735.19,249.99 736.88,300.01 738.57,299.97 740.26,300.01 741.95,299.97 743.64,300.01 745.32,299.97 747.01,299.97 748.70,299.97 750.39,300.06 752.08,249.99 753.77,300.01 755.45,250.03 757.14,249.94 758.83,249.99 760.52,300.01 762.21,300.06 763.90,300.01 765.58,299.97 767.27,299.97 768.96,300.01 770.65,299.93 772.34,299.89 774.03,299.89 775.71,299.89 777.40,299.89 779.09,299.85 780.78,299.85 782.47,299.89 784.16,299.81 785.84,299.81 787.53,299.81 789.22,299.76 790.91,299.76 792.60,299.76 794.29,299.72 795.97,299.68 797.66,299.60 799.35,299.60 801.04,299.60 802.73,299.56 804.42,299.47 806.10,299.43 807.79,299.43 809.48,299.39 811.17,299.47 812.86,259.82 814.55,338.96 816.23,299.31 817.92,299.31 819.61,299.26 821.30,299.68 822.99,299.68 824.68,299.68 826.36,299.64 828.05,299.14 829.74,299.14 831.43,299.10 833.12,299.10 834.81,299.10 836.49,248.07 838.18,299.06 839.87,299.06 841.56,299.06 843.25,299.06 844.94,299.06 846.62,298.97 848.31,298.97 850.00,298.93 851.69,298.97 853.38,298.93 855.06,298.89 856.75,298.89 858.44,298.89 860.13,298.89 861.82,247.78 863.51,298.89 865.19,298.89 866.88,298.85 868.57,298.85 870.26,298.81 871.95,298.81 873.64,298.81 875.32,298.81 877.01,298.81 878.70,298.81 880.39,298.81 882.08,298.81 883.77,298.81 885.45,298.72 887.14,247.45 888.83,247.45 890.52,298.72 892.21,298.72 893.90,298.72 895.58,298.72 897.27,298.72 898.96,298.72 900.65,247.36 902.34,298.68 904.03,247.36 905.71,247.36 907.40,247.36 909.09,298.68 910.78,298.68 912.47,298.68 914.16,298.68 915.84,298.68 917.53,341.67 919.22,307.01 920.91,298.68 922.60,298.68 924.29,298.68 925.97,247.36 927.66,298.64 929.35,247.36 931.04,247.28 932.73,247.20 934.42,298.60 936.10,298.60 937.79,247.03 939.48,298.51 941.17,298.51 942.86,298.51 944.55,298.51 946.23,298.51 947.92,298.51 949.61,298.51 951.30,298.51 952.99,298.51 954.68,298.51 956.36,298.51 958.05,298.51 959.74,298.51 961.43,298.51 963.12,298.51 964.81,298.51 966.49,298.51 968.18,298.51 969.87,298.51 971.56,298.51 973.25,298.51 974.94,298.51 976.62,298.51 978.31,298.51 980.00,298.51"/>
  <circle cx="70.00" cy="50.00" r="2.5" fill="#2563eb"/>
  <circle cx="71.69" cy="50.12" r="2.5" fill="#2563eb"/>
  <circle cx="73.38" cy="50.17" r="2.5" fill="#2563eb"/>
  <circle cx="75.06" cy="50.46" r="2.5" fill="#2563eb"/>
  <circle cx="76.75" cy="50.00" r="2.5" fill="#2563eb"/>
  <circle cx="78.44" cy="266.90" r="2.5" fill="#2563eb"/>
  <circle cx="80.13" cy="50.12" r="2.5" fill="#2563eb"/>
  <circle cx="81.82" cy="50.08" r="2.5" fill="#2563eb"/>
  <circle cx="83.51" cy="177.46" r="2.5" fill="#2563eb"/>
  <circle cx="85.19" cy="211.58" r="2.5" fill="#2563eb"/>
  <circle cx="86.88" cy="175.34" r="2.5" fill="#2563eb"/>
  <circle cx="88.57" cy="304.14" r="2.5" fill="#2563eb"/>
  <circle cx="90.26" cy="200.46" r="2.5" fill="#2563eb"/>
  <circle cx="91.95" cy="250.94" r="2.5" fill="#2563eb"/>
  <circle cx="93.64" cy="300.01" r="2.5" fill="#2563eb"/>
  <circle cx="95.32" cy="300.06" r="2.5" fill="#2563eb"/>
  <circle cx="97.01" cy="300.01" r="2.5" fill="#2563eb"/>
  <circle cx="98.70" cy="300.01" r="2.5" fill="#2563eb"/>
  <circle cx="100.39" cy="348.00" r="2.5" fill="#2563eb"/>
  <circle cx="102.08" cy="300.01" r="2.5" fill="#2563eb"/>
  <circle cx="103.77" cy="249.99" r="2.5" fill="#2563eb"/>
  <circle cx="105.45" cy="200.00" r="2.5" fill="#2563eb"/>
  <circle cx="107.14" cy="249.99" r="2.5" fill="#2563eb"/>
  <circle cx="108.83" cy="249.99" r="2.5" fill="#2563eb"/>
  <circle cx="110.52" cy="250.03" r="2.5" fill="#2563eb"/>
  <circle cx="112.21" cy="250.03" r="2.5" fill="#2563eb"/>
  <circle cx="113.90" cy="250.03" r="2.5" fill="#2563eb"/>
  <circle cx="115.58" cy="250.40" r="2.5" fill="#2563eb"/>
  <circle cx="117.27" cy="250.90" r="2.5" fill="#2563eb"/>
  <circle cx="118.96" cy="250.90" r="2.5" fill="#2563eb"/>
  <circle cx="120.65" cy="251.32" r="2.5" fill="#2563eb"/>
  <circle cx="122.34" cy="249.94" r="2.5" fill="#2563eb"/>
  <circle cx="124.03" cy="300.01" r="2.5" fill="#2563eb"/>
  <circle cx="125.71" cy="299.93" r="2.5" fill="#2563eb"/>
  <circle cx="127.40" cy="251.03" r="2.5" fill="#2563eb"/>
  <circle cx="129.09" cy="300.68" r="2.5" fill="#2563eb"/>
  <circle cx="130.78" cy="250.03" r="2.5" fill="#2563eb"/>
  <circle cx="132.47" cy="200.00" r="2.5" fill="#2563eb"/>
  <circle cx="134.16" cy="249.99" r="2.5" fill="#2563eb"/>
  <circle cx="135.84" cy="250.03" r="2.5" fill="#2563eb"/>
  <circle cx="137.53" cy="250.03" r="2.5" fill="#2563eb"/>
  <circle cx="139.22" cy="250.03" r="2.5" fill="#2563eb"/>
  <circle cx="140.91" cy="300.01" r="2.5" fill="#2563eb"/>
  <circle cx="142.60" cy="200.04" r="2.5" fill="#2563eb"/>
  <circle cx="144.29" cy="250.03" r="2.5" fill="#2563eb"/>
  <circle cx="145.97" cy="250.03" r="2.5" fill="#2563eb"/>
  <circle cx="147.66" cy="250.03" r="2.5" fill="#2563eb"/>
  <circle cx="149.35" cy="249.90" r="2.5" fill="#2563eb"/>
  <circle cx="151.04" cy="250.03" r="2.5" fill="#2563eb"/>
  <circle cx="152.73" cy="250.03" r="2.5" fill="#2563eb"/>
  <circle cx="154.42" cy="250.94" r="2.5" fill="#2563eb"/>
  <circle cx="156.10" cy="250.44" r="2.5" fill="#2563eb"/>
  <circle cx="157.79" cy="250.03" r="2.5" fill="#2563eb"/>
  <circle cx="159.48" cy="250.03" r="2.5" fill="#2563eb"/>
  <circle cx="161.17" cy="300.47" r="2.5" fill="#2563eb"/>
  <circle cx="162.86" cy="300.01" r="2.5" fill="#2563eb"/>
  <circle cx="164.55" cy="300.43" r="2.5" fill="#2563eb"/>
  <circle cx="166.23" cy="250.03" r="2.5" fill="#2563eb"/>
  <circle cx="167.92" cy="249.99" r="2.5" fill="#2563eb"/>
  <circle cx="169.61" cy="300.43" r="2.5" fill="#2563eb"/>
  <circle cx="171.30" cy="249.90" r="2.5" fill="#2563eb"/>
  <circle cx="172.99" cy="249.99" r="2.5" fill="#2563eb"/>
  <circle cx="174.68" cy="249.99" r="2.5" fill="#2563eb"/>
  <circle cx="176.36" cy="200.04" r="2.5" fill="#2563eb"/>
  <circle cx="178.05" cy="300.01" r="2.5" fill="#2563eb"/>
  <circle cx="179.74" cy="300.01" r="2.5" fill="#2563eb"/>
  <circle cx="181.43" cy="300.01" r="2.5" fill="#2563eb"/>
  <circle cx="183.12" cy="249.90" r="2.5" fill="#2563eb"/>
  <circle cx="184.81" cy="300.01" r="2.5" fill="#2563eb"/>
  <circle cx="186.49" cy="250.03" r="2.5" fill="#2563eb"/>
  <circle cx="188.18" cy="249.99" r="2.5" fill="#2563eb"/>
  <circle cx="189.87" cy="199.96" r="2.5" fill="#2563eb"/>
  <circle cx="191.56" cy="300.01" r="2.5" fill="#2563eb"/>
  <circle cx="193.25" cy="200.00" r="2.5" fill="#2563eb"/>
  <circle cx="194.94" cy="250.36" r="2.5" fill="#2563eb"/>
  <circle cx="196.62" cy="250.03" r="2.5" fill="#2563eb"/>
  <circle cx="198.31" cy="300.01" r="2.5" fill="#2563eb"/>
  <circle cx="200.00" cy="300.01" r="2.5" fill="#2563eb"/>
  <circle cx="201.69" cy="250.44" r="2.5" fill="#2563eb"/>
  <circle cx="203.38" cy="300.01" r="2.5" fill="#2563eb"/>
  <circle cx="205.06" cy="250.03" r="2.5" fill="#2563eb"/>
  <circle cx="206.75" cy="250.03" r="2.5" fill="#2563eb"/>
  <circle cx="208.44" cy="249.99" r="2.5" fill="#2563eb"/>
  <circle cx="210.13" cy="250.49" r="2.5" fill="#2563eb"/>
  <circle cx="211.82" cy="250.03" r="2.5" fill="#2563eb"/>
  <circle cx="213.51" cy="200.04" r="2.5" fill="#2563eb"/>
  <circle cx="215.19" cy="300.01" r="2.5" fill="#2563eb"/>
  <circle cx="216.88" cy="250.03" r="2.5" fill="#2563eb"/>
  <circle cx="218.57" cy="300.01" r="2.5" fill="#2563eb"/>
  <circle cx="220.26" cy="250.11" r="2.5" fill="#2563eb"/>
  <circle cx="221.95" cy="300.01" r="2.5" fill="#2563eb"/>
  <circle cx="223.64" cy="250.03" r="2.5" fill="#2563eb"/>
  <circle cx="225.32" cy="250.03" r="2.5" fill="#2563eb"/>
  <circle cx="227.01" cy="199.92" r="2.5" fill="#2563eb"/>
  <circle cx="228.70" cy="250.03" r="2.5" fill="#2563eb"/>
  <circle cx="230.39" cy="250.03" r="2.5" fill="#2563eb"/>
  <circle cx="232.08" cy="250.03" r="2.5" fill="#2563eb"/>
  <circle cx="233.77" cy="254.36" r="2.5" fill="#2563eb"/>
  <circle cx="235.45" cy="300.01" r="2.5" fill="#2563eb"/>
  <circle cx="237.14" cy="299.97" r="2.5" fill="#2563eb"/>
  <circle cx="238.83" cy="250.36" r="2.5" fill="#2563eb"/>
  <circle cx="240.52" cy="299.97" r="2.5" fill="#2563eb"/>
  <circle cx="242.21" cy="250.03" r="2.5" fill="#2563eb"/>
  <circle cx="243.90" cy="250.03" r="2.5" fill="#2563eb"/>
  <circle cx="245.58" cy="250.03" r="2.5" fill="#2563eb"/>
  <circle cx="247.27" cy="250.03" r="2.5" fill="#2563eb"/>
  <circle cx="248.96" cy="249.99" r="2.5" fill="#2563eb"/>
  <circle cx="250.65" cy="200.00" r="2.5" fill="#2563eb"/>
  <circle cx="252.34" cy="299.93" r="2.5" fill="#2563eb"/>
  <circle cx="254.03" cy="300.01" r="2.5" fill="#2563eb"/>
  <circle cx="255.71" cy="299.97" r="2.5" fill="#2563eb"/>
  <circle cx="257.40" cy="249.94" r="2.5" fill="#2563eb"/>
  <circle cx="259.09" cy="249.99" r="2.5" fill="#2563eb"/>
  <circle cx="260.78" cy="249.82" r="2.5" fill="#2563eb"/>
  <circle cx="262.47" cy="249.94" r="2.5" fill="#2563eb"/>
  <circle cx="264.16" cy="250.28" r="2.5" fill="#2563eb"/>
  <circle cx="265.84" cy="207.00" r="2.5" fill="#2563eb"/>
  <circle cx="267.53" cy="250.03" r="2.5" fill="#2563eb"/>
  <circle cx="269.22" cy="250.32" r="2.5" fill="#2563eb"/>
  <circle cx="270.91" cy="250.40" r="2.5" fill="#2563eb"/>
  <circle cx="272.60" cy="300.93" r="2.5" fill="#2563eb"/>
  <circle cx="274.29" cy="300.01" r="2.5" fill="#2563eb"/>
  <circle cx="275.97" cy="300.10" r="2.5" fill="#2563eb"/>
  <circle cx="277.66" cy="249.94" r="2.5" fill="#2563eb"/>
  <circle cx="279.35" cy="249.99" r="2.5" fill="#2563eb"/>
  <circle cx="281.04" cy="250.07" r="2.5" fill="#2563eb"/>
  <circle cx="282.73" cy="249.99" r="2.5" fill="#2563eb"/>
  <circle cx="284.42" cy="250.03" r="2.5" fill="#2563eb"/>
  <circle cx="286.10" cy="249.94" r="2.5" fill="#2563eb"/>
  <circle cx="287.79" cy="200.00" r="2.5" fill="#2563eb"/>
  <circle cx="289.48" cy="300.39" r="2.5" fill="#2563eb"/>
  <circle cx="291.17" cy="300.01" r="2.5" fill="#2563eb"/>
  <circle cx="292.86" cy="300.01" r="2.5" fill="#2563eb"/>
  <circle cx="294.55" cy="250.44" r="2.5" fill="#2563eb"/>
  <circle cx="296.23" cy="300.39" r="2.5" fill="#2563eb"/>
  <circle cx="297.92" cy="249.86" r="2.5" fill="#2563eb"/>
  <circle cx="299.61" cy="250.11" r="2.5" fill="#2563eb"/>
  <circle cx="301.30" cy="201.46" r="2.5" fill="#2563eb"/>
  <circle cx="302.99" cy="300.01" r="2.5" fill="#2563eb"/>
  <circle cx="304.68" cy="200.83" r="2.5" fill="#2563eb"/>
  <circle cx="306.36" cy="250.03" r="2.5" fill="#2563eb"/>
  <circle cx="308.05" cy="249.99" r="2.5" fill="#2563eb"/>
  <circle cx="309.74" cy="300.26" r="2.5" fill="#2563eb"/>
  <circle cx="311.43" cy="300.01" r="2.5" fill="#2563eb"/>
  <circle cx="313.12" cy="300.01" r="2.5" fill="#2563eb"/>
  <circle cx="314.81" cy="250.03" r="2.5" fill="#2563eb"/>
  <circle cx="316.49" cy="250.03" r="2.5" fill="#2563eb"/>
  <circle cx="318.18" cy="250.03" r="2.5" fill="#2563eb"/>
  <circle cx="319.87" cy="250.03" r="2.5" fill="#2563eb"/>
  <circle cx="321.56" cy="249.99" r="2.5" fill="#2563eb"/>
  <circle cx="323.25" cy="250.03" r="2.5" fill="#2563eb"/>
  <circle cx="324.94" cy="200.00" r="2.5" fill="#2563eb"/>
  <circle cx="326.62" cy="300.26" r="2.5" fill="#2563eb"/>
  <circle cx="328.31" cy="249.99" r="2.5" fill="#2563eb"/>
  <circle cx="330.00" cy="300.01" r="2.5" fill="#2563eb"/>
  <circle cx="331.69" cy="249.94" r="2.5" fill="#2563eb"/>
  <circle cx="333.38" cy="250.03" r="2.5" fill="#2563eb"/>
  <circle cx="335.06" cy="250.03" r="2.5" fill="#2563eb"/>
  <circle cx="336.75" cy="250.03" r="2.5" fill="#2563eb"/>
  <circle cx="338.44" cy="200.04" r="2.5" fill="#2563eb"/>
  <circle cx="340.13" cy="300.01" r="2.5" fill="#2563eb"/>
  <circle cx="341.82" cy="249.90" r="2.5" fill="#2563eb"/>
  <circle cx="343.51" cy="300.01" r="2.5" fill="#2563eb"/>
  <circle cx="345.19" cy="300.01" r="2.5" fill="#2563eb"/>
  <circle cx="346.88" cy="300.06" r="2.5" fill="#2563eb"/>
  <circle cx="348.57" cy="300.01" r="2.5" fill="#2563eb"/>
  <circle cx="350.26" cy="300.01" r="2.5" fill="#2563eb"/>
  <circle cx="351.95" cy="243.95" r="2.5" fill="#2563eb"/>
  <circle cx="353.64" cy="249.94" r="2.5" fill="#2563eb"/>
  <circle cx="355.32" cy="299.97" r="2.5" fill="#2563eb"/>
  <circle cx="357.01" cy="300.01" r="2.5" fill="#2563eb"/>
  <circle cx="358.70" cy="300.01" r="2.5" fill="#2563eb"/>
  <circle cx="360.39" cy="250.03" r="2.5" fill="#2563eb"/>
  <circle cx="362.08" cy="300.01" r="2.5" fill="#2563eb"/>
  <circle cx="363.77" cy="300.01" r="2.5" fill="#2563eb"/>
  <circle cx="365.45" cy="299.97" r="2.5" fill="#2563eb"/>
  <circle cx="367.14" cy="249.99" r="2.5" fill="#2563eb"/>
  <circle cx="368.83" cy="300.01" r="2.5" fill="#2563eb"/>
  <circle cx="370.52" cy="299.93" r="2.5" fill="#2563eb"/>
  <circle cx="372.21" cy="300.01" r="2.5" fill="#2563eb"/>
  <circle cx="373.90" cy="299.93" r="2.5" fill="#2563eb"/>
  <circle cx="375.58" cy="300.01" r="2.5" fill="#2563eb"/>
  <circle cx="377.27" cy="300.01" r="2.5" fill="#2563eb"/>
  <circle cx="378.96" cy="299.89" r="2.5" fill="#2563eb"/>
  <circle cx="380.65" cy="299.97" r="2.5" fill="#2563eb"/>
  <circle cx="382.34" cy="250.03" r="2.5" fill="#2563eb"/>
  <circle cx="384.03" cy="299.93" r="2.5" fill="#2563eb"/>
  <circle cx="385.71" cy="299.89" r="2.5" fill="#2563eb"/>
  <circle cx="387.40" cy="299.97" r="2.5" fill="#2563eb"/>
  <circle cx="389.09" cy="249.94" r="2.5" fill="#2563eb"/>
  <circle cx="390.78" cy="300.01" r="2.5" fill="#2563eb"/>
  <circle cx="392.47" cy="300.01" r="2.5" fill="#2563eb"/>
  <circle cx="394.16" cy="299.97" r="2.5" fill="#2563eb"/>
  <circle cx="395.84" cy="249.99" r="2.5" fill="#2563eb"/>
  <circle cx="397.53" cy="299.97" r="2.5" fill="#2563eb"/>
  <circle cx="399.22" cy="299.97" r="2.5" fill="#2563eb"/>
  <circle cx="400.91" cy="300.06" r="2.5" fill="#2563eb"/>
  <circle cx="402.60" cy="300.06" r="2.5" fill="#2563eb"/>
  <circle cx="404.29" cy="299.93" r="2.5" fill="#2563eb"/>
  <circle cx="405.97" cy="300.01" r="2.5" fill="#2563eb"/>
  <circle cx="407.66" cy="300.01" r="2.5" fill="#2563eb"/>
  <circle cx="409.35" cy="299.93" r="2.5" fill="#2563eb"/>
  <circle cx="411.04" cy="300.01" r="2.5" fill="#2563eb"/>
  <circle cx="412.73" cy="300.01" r="2.5" fill="#2563eb"/>
  <circle cx="414.42" cy="299.97" r="2.5" fill="#2563eb"/>
  <circle cx="416.10" cy="300.01" r="2.5" fill="#2563eb"/>
  <circle cx="417.79" cy="300.01" r="2.5" fill="#2563eb"/>
  <circle cx="419.48" cy="300.01" r="2.5" fill="#2563eb"/>
  <circle cx="421.17" cy="300.01" r="2.5" fill="#2563eb"/>
  <circle cx="422.86" cy="249.86" r="2.5" fill="#2563eb"/>
  <circle cx="424.55" cy="300.01" r="2.5" fill="#2563eb"/>
  <circle cx="426.23" cy="300.10" r="2.5" fill="#2563eb"/>
  <circle cx="427.92" cy="299.93" r="2.5" fill="#2563eb"/>
  <circle cx="429.61" cy="300.01" r="2.5" fill="#2563eb"/>
  <circle cx="431.30" cy="299.93" r="2.5" fill="#2563eb"/>
  <circle cx="432.99" cy="300.01" r="2.5" fill="#2563eb"/>
  <circle cx="434.68" cy="300.01" r="2.5" fill="#2563eb"/>
  <circle cx="436.36" cy="300.01" r="2.5" fill="#2563eb"/>
  <circle cx="438.05" cy="300.01" r="2.5" fill="#2563eb"/>
  <circle cx="439.74" cy="300.01" r="2.5" fill="#2563eb"/>
  <circle cx="441.43" cy="299.97" r="2.5" fill="#2563eb"/>
  <circle cx="443.12" cy="300.01" r="2.5" fill="#2563eb"/>
  <circle cx="444.81" cy="300.01" r="2.5" fill="#2563eb"/>
  <circle cx="446.49" cy="300.01" r="2.5" fill="#2563eb"/>
  <circle cx="448.18" cy="300.01" r="2.5" fill="#2563eb"/>
  <circle cx="449.87" cy="250.03" r="2.5" fill="#2563eb"/>
  <circle cx="451.56" cy="300.01" r="2.5" fill="#2563eb"/>
  <circle cx="453.25" cy="300.01" r="2.5" fill="#2563eb"/>
  <circle cx="454.94" cy="299.97" r="2.5" fill="#2563eb"/>
  <circle cx="456.62" cy="300.01" r="2.5" fill="#2563eb"/>
  <circle cx="458.31" cy="300.01" r="2.5" fill="#2563eb"/>
  <circle cx="460.00" cy="299.97" r="2.5" fill="#2563eb"/>
  <circle cx="461.69" cy="299.97" r="2.5" fill="#2563eb"/>
  <circle cx="463.38" cy="300.01" r="2.5" fill="#2563eb"/>
  <circle cx="465.06" cy="299.97" r="2.5" fill="#2563eb"/>
  <circle cx="466.75" cy="300.01" r="2.5" fill="#2563eb"/>
  <circle cx="468.44" cy="299.93" r="2.5" fill="#2563eb"/>
  <circle cx="470.13" cy="300.01" r="2.5" fill="#2563eb"/>
  <circle cx="471.82" cy="250.03" r="2.5" fill="#2563eb"/>
  <circle cx="473.51" cy="300.01" r="2.5" fill="#2563eb"/>
  <circle cx="475.19" cy="300.01" r="2.5" fill="#2563eb"/>
  <circle cx="476.88" cy="300.01" r="2.5" fill="#2563eb"/>
  <circle cx="478.57" cy="300.01" r="2.5" fill="#2563eb"/>
  <circle cx="480.26" cy="300.01" r="2.5" fill="#2563eb"/>
  <circle cx="481.95" cy="299.89" r="2.5" fill="#2563eb"/>
  <circle cx="483.64" cy="300.01" r="2.5" fill="#2563eb"/>
  <circle cx="485.32" cy="300.01" r="2.5" fill="#2563eb"/>
  <circle cx="487.01" cy="250.07" r="2.5" fill="#2563eb"/>
  <circle cx="488.70" cy="300.01" r="2.5" fill="#2563eb"/>
  <circle cx="490.39" cy="299.93" r="2.5" fill="#2563eb"/>
  <circle cx="492.08" cy="300.01" r="2.5" fill="#2563eb"/>
  <circle cx="493.77" cy="299.97" r="2.5" fill="#2563eb"/>
  <circle cx="495.45" cy="299.97" r="2.5" fill="#2563eb"/>
  <circle cx="497.14" cy="299.97" r="2.5" fill="#2563eb"/>
  <circle cx="498.83" cy="250.03" r="2.5" fill="#2563eb"/>
  <circle cx="500.52" cy="300.01" r="2.5" fill="#2563eb"/>
  <circle cx="502.21" cy="300.01" r="2.5" fill="#2563eb"/>
  <circle cx="503.90" cy="300.01" r="2.5" fill="#2563eb"/>
  <circle cx="505.58" cy="300.01" r="2.5" fill="#2563eb"/>
  <circle cx="507.27" cy="299.97" r="2.5" fill="#2563eb"/>
  <circle cx="508.96" cy="300.01" r="2.5" fill="#2563eb"/>
  <circle cx="510.65" cy="299.97" r="2.5" fill="#2563eb"/>
  <circle cx="512.34" cy="300.01" r="2.5" fill="#2563eb"/>
  <circle cx="514.03" cy="299.97" r="2.5" fill="#2563eb"/>
  <circle cx="515.71" cy="249.90" r="2.5" fill="#2563eb"/>
  <circle cx="517.40" cy="300.01" r="2.5" fill="#2563eb"/>
  <circle cx="519.09" cy="300.01" r="2.5" fill="#2563eb"/>
  <circle cx="520.78" cy="299.89" r="2.5" fill="#2563eb"/>
  <circle cx="522.47" cy="299.97" r="2.5" fill="#2563eb"/>
  <circle cx="524.16" cy="299.97" r="2.5" fill="#2563eb"/>
  <circle cx="525.84" cy="249.99" r="2.5" fill="#2563eb"/>
  <circle cx="527.53" cy="299.97" r="2.5" fill="#2563eb"/>
  <circle cx="529.22" cy="299.89" r="2.5" fill="#2563eb"/>
  <circle cx="530.91" cy="300.01" r="2.5" fill="#2563eb"/>
  <circle cx="532.60" cy="299.97" r="2.5" fill="#2563eb"/>
  <circle cx="534.29" cy="299.97" r="2.5" fill="#2563eb"/>
  <circle cx="535.97" cy="300.01" r="2.5" fill="#2563eb"/>
  <circle cx="537.66" cy="299.97" r="2.5" fill="#2563eb"/>
  <circle cx="539.35" cy="249.99" r="2.5" fill="#2563eb"/>
  <circle cx="541.04" cy="299.97" r="2.5" fill="#2563eb"/>
  <circle cx="542.73" cy="299.97" r="2.5" fill="#2563eb"/>
  <circle cx="544.42" cy="300.06" r="2.5" fill="#2563eb"/>
  <circle cx="546.10" cy="300.06" r="2.5" fill="#2563eb"/>
  <circle cx="547.79" cy="249.94" r="2.5" fill="#2563eb"/>
  <circle cx="549.48" cy="300.01" r="2.5" fill="#2563eb"/>
  <circle cx="551.17" cy="299.93" r="2.5" fill="#2563eb"/>
  <circle cx="552.86" cy="300.01" r="2.5" fill="#2563eb"/>
  <circle cx="554.55" cy="300.01" r="2.5" fill="#2563eb"/>
  <circle cx="556.23" cy="249.99" r="2.5" fill="#2563eb"/>
  <circle cx="557.92" cy="300.01" r="2.5" fill="#2563eb"/>
  <circle cx="559.61" cy="300.01" r="2.5" fill="#2563eb"/>
  <circle cx="561.30" cy="300.01" r="2.5" fill="#2563eb"/>
  <circle cx="562.99" cy="299.93" r="2.5" fill="#2563eb"/>
  <circle cx="564.68" cy="299.93" r="2.5" fill="#2563eb"/>
  <circle cx="566.36" cy="300.01" r="2.5" fill="#2563eb"/>
  <circle cx="568.05" cy="300.01" r="2.5" fill="#2563eb"/>
  <circle cx="569.74" cy="249.94" r="2.5" fill="#2563eb"/>
  <circle cx="571.43" cy="299.97" r="2.5" fill="#2563eb"/>
  <circle cx="573.12" cy="299.97" r="2.5" fill="#2563eb"/>
  <circle cx="574.81" cy="300.01" r="2.5" fill="#2563eb"/>
  <circle cx="576.49" cy="300.01" r="2.5" fill="#2563eb"/>
  <circle cx="578.18" cy="300.01" r="2.5" fill="#2563eb"/>
  <circle cx="579.87" cy="249.99" r="2.5" fill="#2563eb"/>
  <circle cx="581.56" cy="300.01" r="2.5" fill="#2563eb"/>
  <circle cx="583.25" cy="300.01" r="2.5" fill="#2563eb"/>
  <circle cx="584.94" cy="300.01" r="2.5" fill="#2563eb"/>
  <circle cx="586.62" cy="250.03" r="2.5" fill="#2563eb"/>
  <circle cx="588.31" cy="300.01" r="2.5" fill="#2563eb"/>
  <circle cx="590.00" cy="300.01" r="2.5" fill="#2563eb"/>
  <circle cx="591.69" cy="300.01" r="2.5" fill="#2563eb"/>
  <circle cx="593.38" cy="299.97" r="2.5" fill="#2563eb"/>
  <circle cx="595.06" cy="300.01" r="2.5" fill="#2563eb"/>
  <circle cx="596.75" cy="300.01" r="2.5" fill="#2563eb"/>
  <circle cx="598.44" cy="299.97" r="2.5" fill="#2563eb"/>
  <circle cx="600.13" cy="299.97" r="2.5" fill="#2563eb"/>
  <circle cx="601.82" cy="300.01" r="2.5" fill="#2563eb"/>
  <circle cx="603.51" cy="300.01" r="2.5" fill="#2563eb"/>
  <circle cx="605.19" cy="299.97" r="2.5" fill="#2563eb"/>
  <circle cx="606.88" cy="299.93" r="2.5" fill="#2563eb"/>
  <circle cx="608.57" cy="300.01" r="2.5" fill="#2563eb"/>
  <circle cx="610.26" cy="300.06" r="2.5" fill="#2563eb"/>
  <circle cx="611.95" cy="299.97" r="2.5" fill="#2563eb"/>
  <circle cx="613.64" cy="300.01" r="2.5" fill="#2563eb"/>
  <circle cx="615.32" cy="250.03" r="2.5" fill="#2563eb"/>
  <circle cx="617.01" cy="250.03" r="2.5" fill="#2563eb"/>
  <circle cx="618.70" cy="299.93" r="2.5" fill="#2563eb"/>
  <circle cx="620.39" cy="299.97" r="2.5" fill="#2563eb"/>
  <circle cx="622.08" cy="300.01" r="2.5" fill="#2563eb"/>
  <circle cx="623.77" cy="300.01" r="2.5" fill="#2563eb"/>
  <circle cx="625.45" cy="300.06" r="2.5" fill="#2563eb"/>
  <circle cx="627.14" cy="300.01" r="2.5" fill="#2563eb"/>
  <circle cx="628.83" cy="299.93" r="2.5" fill="#2563eb"/>
  <circle cx="630.52" cy="300.01" r="2.5" fill="#2563eb"/>
  <circle cx="632.21" cy="300.01" r="2.5" fill="#2563eb"/>
  <circle cx="633.90" cy="299.97" r="2.5" fill="#2563eb"/>
  <circle cx="635.58" cy="299.97" r="2.5" fill="#2563eb"/>
  <circle cx="637.27" cy="300.01" r="2.5" fill="#2563eb"/>
  <circle cx="638.96" cy="250.03" r="2.5" fill="#2563eb"/>
  <circle cx="640.65" cy="300.01" r="2.5" fill="#2563eb"/>
  <circle cx="642.34" cy="300.01" r="2.5" fill="#2563eb"/>
  <circle cx="644.03" cy="300.01" r="2.5" fill="#2563eb"/>
  <circle cx="645.71" cy="299.97" r="2.5" fill="#2563eb"/>
  <circle cx="647.40" cy="300.01" r="2.5" fill="#2563eb"/>
  <circle cx="649.09" cy="299.97" r="2.5" fill="#2563eb"/>
  <circle cx="650.78" cy="300.01" r="2.5" fill="#2563eb"/>
  <circle cx="652.47" cy="299.97" r="2.5" fill="#2563eb"/>
  <circle cx="654.16" cy="299.97" r="2.5" fill="#2563eb"/>
  <circle cx="655.84" cy="299.93" r="2.5" fill="#2563eb"/>
  <circle cx="657.53" cy="300.01" r="2.5" fill="#2563eb"/>
  <circle cx="659.22" cy="300.01" r="2.5" fill="#2563eb"/>
  <circle cx="660.91" cy="299.89" r="2.5" fill="#2563eb"/>
  <circle cx="662.60" cy="299.97" r="2.5" fill="#2563eb"/>
  <circle cx="664.29" cy="299.97" r="2.5" fill="#2563eb"/>
  <circle cx="665.97" cy="300.06" r="2.5" fill="#2563eb"/>
  <circle cx="667.66" cy="249.90" r="2.5" fill="#2563eb"/>
  <circle cx="669.35" cy="299.89" r="2.5" fill="#2563eb"/>
  <circle cx="671.04" cy="300.01" r="2.5" fill="#2563eb"/>
  <circle cx="672.73" cy="299.97" r="2.5" fill="#2563eb"/>
  <circle cx="674.42" cy="299.97" r="2.5" fill="#2563eb"/>
  <circle cx="676.10" cy="299.97" r="2.5" fill="#2563eb"/>
  <circle cx="677.79" cy="300.01" r="2.5" fill="#2563eb"/>
  <circle cx="679.48" cy="300.01" r="2.5" fill="#2563eb"/>
  <circle cx="681.17" cy="299.97" r="2.5" fill="#2563eb"/>
  <circle cx="682.86" cy="299.97" r="2.5" fill="#2563eb"/>
  <circle cx="684.55" cy="299.97" r="2.5" fill="#2563eb"/>
  <circle cx="686.23" cy="250.03" r="2.5" fill="#2563eb"/>
  <circle cx="687.92" cy="299.93" r="2.5" fill="#2563eb"/>
  <circle cx="689.61" cy="300.01" r="2.5" fill="#2563eb"/>
  <circle cx="691.30" cy="300.01" r="2.5" fill="#2563eb"/>
  <circle cx="692.99" cy="299.93" r="2.5" fill="#2563eb"/>
  <circle cx="694.68" cy="300.01" r="2.5" fill="#2563eb"/>
  <circle cx="696.36" cy="300.01" r="2.5" fill="#2563eb"/>
  <circle cx="698.05" cy="299.97" r="2.5" fill="#2563eb"/>
  <circle cx="699.74" cy="300.01" r="2.5" fill="#2563eb"/>
  <circle cx="701.43" cy="300.01" r="2.5" fill="#2563eb"/>
  <circle cx="703.12" cy="300.06" r="2.5" fill="#2563eb"/>
  <circle cx="704.81" cy="300.01" r="2.5" fill="#2563eb"/>
  <circle cx="706.49" cy="299.97" r="2.5" fill="#2563eb"/>
  <circle cx="708.18" cy="299.89" r="2.5" fill="#2563eb"/>
  <circle cx="709.87" cy="300.01" r="2.5" fill="#2563eb"/>
  <circle cx="711.56" cy="300.01" r="2.5" fill="#2563eb"/>
  <circle cx="713.25" cy="249.94" r="2.5" fill="#2563eb"/>
  <circle cx="714.94" cy="249.94" r="2.5" fill="#2563eb"/>
  <circle cx="716.62" cy="300.01" r="2.5" fill="#2563eb"/>
  <circle cx="718.31" cy="300.01" r="2.5" fill="#2563eb"/>
  <circle cx="720.00" cy="300.01" r="2.5" fill="#2563eb"/>
  <circle cx="721.69" cy="300.01" r="2.5" fill="#2563eb"/>
  <circle cx="723.38" cy="299.97" r="2.5" fill="#2563eb"/>
  <circle cx="725.06" cy="250.03" r="2.5" fill="#2563eb"/>
  <circle cx="726.75" cy="300.01" r="2.5" fill="#2563eb"/>
  <circle cx="728.44" cy="300.01" r="2.5" fill="#2563eb"/>
  <circle cx="730.13" cy="300.01" r="2.5" fill="#2563eb"/>
  <circle cx="731.82" cy="300.01" r="2.5" fill="#2563eb"/>
  <circle cx="733.51" cy="250.03" r="2.5" fill="#2563eb"/>
  <circle cx="735.19" cy="249.99" r="2.5" fill="#2563eb"/>
  <circle cx="736.88" cy="300.01" r="2.5" fill="#2563eb"/>
  <circle cx="738.57" cy="299.97" r="2.5" fill="#2563eb"/>
  <circle cx="740.26" cy="300.01" r="2.5" fill="#2563eb"/>
  <circle cx="741.95" cy="299.97" r="2.5" fill="#2563eb"/>
  <circle cx="743.64" cy="300.01" r="2.5" fill="#2563eb"/>
  <circle cx="745.32" cy="299.97" r="2.5" fill="#2563eb"/>
  <circle cx="747.01" cy="299.97" r="2.5" fill="#2563eb"/>
  <circle cx="748.70" cy="299.97" r="2.5" fill="#2563eb"/>
  <circle cx="750.39" cy="300.06" r="2.5" fill="#2563eb"/>
  <circle cx="752.08" cy="249.99" r="2.5" fill="#2563eb"/>
  <circle cx="753.77" cy="300.01" r="2.5" fill="#2563eb"/>
  <circle cx="755.45" cy="250.03" r="2.5" fill="#2563eb"/>
  <circle cx="757.14" cy="249.94" r="2.5" fill="#2563eb"/>
  <circle cx="758.83" cy="249.99" r="2.5" fill="#2563eb"/>
  <circle cx="760.52" cy="300.01" r="2.5" fill="#2563eb"/>
  <circle cx="762.21" cy="300.06" r="2.5" fill="#2563eb"/>
  <circle cx="763.90" cy="300.01" r="2.5" fill="#2563eb"/>
  <circle cx="765.58" cy="299.97" r="2.5" fill="#2563eb"/>
  <circle cx="767.27" cy="299.97" r="2.5" fill="#2563eb"/>
  <circle cx="768.96" cy="300.01" r="2.5" fill="#2563eb"/>
  <circle cx="770.65" cy="299.93" r="2.5" fill="#2563eb"/>
  <circle cx="772.34" cy="299.89" r="2.5" fill="#2563eb"/>
  <circle cx="774.03" cy="299.89" r="2.5" fill="#2563eb"/>
  <circle cx="775.71" cy="299.89" r="2.5" fill="#2563eb"/>
  <circle cx="777.40" cy="299.89" r="2.5" fill="#2563eb"/>
  <circle cx="779.09" cy="299.85" r="2.5" fill="#2563eb"/>
  <circle cx="780.78" cy="299.85" r="2.5" fill="#2563eb"/>
  <circle cx="782.47" cy="299.89" r="2.5" fill="#2563eb"/>
  <circle cx="784.16" cy="299.81" r="2.5" fill="#2563eb"/>
  <circle cx="785.84" cy="299.81" r="2.5" fill="#2563eb"/>
  <circle cx="787.53" cy="299.81" r="2.5" fill="#2563eb"/>
  <circle cx="789.22" cy="299.76" r="2.5" fill="#2563eb"/>
  <circle cx="790.91" cy="299.76" r="2.5" fill="#2563eb"/>
  <circle cx="792.60" cy="299.76" r="2.5" fill="#2563eb"/>
  <circle cx="794.29" cy="299.72" r="2.5" fill="#2563eb"/>
  <circle cx="795.97" cy="299.68" r="2.5" fill="#2563eb"/>
  <circle cx="797.66" cy="299.60" r="2.5" fill="#2563eb"/>
  <circle cx="799.35" cy="299.60" r="2.5" fill="#2563eb"/>
  <circle cx="801.04" cy="299.60" r="2.5" fill="#2563eb"/>
  <circle cx="802.73" cy="299.56" r="2.5" fill="#2563eb"/>
  <circle cx="804.42" cy="299.47" r="2.5" fill="#2563eb"/>
  <circle cx="806.10" cy="299.43" r="2.5" fill="#2563eb"/>
  <circle cx="807.79" cy="299.43" r="2.5" fill="#2563eb"/>
  <circle cx="809.48" cy="299.39" r="2.5" fill="#2563eb"/>
  <circle cx="811.17" cy="299.47" r="2.5" fill="#2563eb"/>
  <circle cx="812.86" cy="259.82" r="2.5" fill="#2563eb"/>
  <circle cx="814.55" cy="338.96" r="2.5" fill="#2563eb"/>
  <circle cx="816.23" cy="299.31" r="2.5" fill="#2563eb"/>
  <circle cx="817.92" cy="299.31" r="2.5" fill="#2563eb"/>
  <circle cx="819.61" cy="299.26" r="2.5" fill="#2563eb"/>
  <circle cx="821.30" cy="299.68" r="2.5" fill="#2563eb"/>
  <circle cx="822.99" cy="299.68" r="2.5" fill="#2563eb"/>
  <circle cx="824.68" cy="299.68" r="2.5" fill="#2563eb"/>
  <circle cx="826.36" cy="299.64" r="2.5" fill="#2563eb"/>
  <circle cx="828.05" cy="299.14" r="2.5" fill="#2563eb"/>
  <circle cx="829.74" cy="299.14" r="2.5" fill="#2563eb"/>
  <circle cx="831.43" cy="299.10" r="2.5" fill="#2563eb"/>
  <circle cx="833.12" cy="299.10" r="2.5" fill="#2563eb"/>
  <circle cx="834.81" cy="299.10" r="2.5" fill="#2563eb"/>
  <circle cx="836.49" cy="248.07" r="2.5" fill="#2563eb"/>
  <circle cx="838.18" cy="299.06" r="2.5" fill="#2563eb"/>
  <circle cx="839.87" cy="299.06" r="2.5" fill="#2563eb"/>
  <circle cx="841.56" cy="299.06" r="2.5" fill="#2563eb"/>
  <circle cx="843.25" cy="299.06" r="2.5" fill="#2563eb"/>
  <circle cx="844.94" cy="299.06" r="2.5" fill="#2563eb"/>
  <circle cx="846.62" cy="298.97" r="2.5" fill="#2563eb"/>
  <circle cx="848.31" cy="298.97" r="2.5" fill="#2563eb"/>
  <circle cx="850.00" cy="298.93" r="2.5" fill="#2563eb"/>
  <circle cx="851.69" cy="298.97" r="2.5" fill="#2563eb"/>
  <circle cx="853.38" cy="298.93" r="2.5" fill="#2563eb"/>
  <circle cx="855.06" cy="298.89" r="2.5" fill="#2563eb"/>
  <circle cx="856.75" cy="298.89" r="2.5" fill="#2563eb"/>
  <circle cx="858.44" cy="298.89" r="2.5" fill="#2563eb"/>
  <circle cx="860.13" cy="298.89" r="2.5" fill="#2563eb"/>
  <circle cx="861.82" cy="247.78" r="2.5" fill="#2563eb"/>
  <circle cx="863.51" cy="298.89" r="2.5" fill="#2563eb"/>
  <circle cx="865.19" cy="298.89" r="2.5" fill="#2563eb"/>
  <circle cx="866.88" cy="298.85" r="2.5" fill="#2563eb"/>
  <circle cx="868.57" cy="298.85" r="2.5" fill="#2563eb"/>
  <circle cx="870.26" cy="298.81" r="2.5" fill="#2563eb"/>
  <circle cx="871.95" cy="298.81" r="2.5" fill="#2563eb"/>
  <circle cx="873.64" cy="298.81" r="2.5" fill="#2563eb"/>
  <circle cx="875.32" cy="298.81" r="2.5" fill="#2563eb"/>
  <circle cx="877.01" cy="298.81" r="2.5" fill="#2563eb"/>
  <circle cx="878.70" cy="298.81" r="2.5" fill="#2563eb"/>
  <circle cx="880.39" cy="298.81" r="2.5" fill="#2563eb"/>
  <circle cx="882.08" cy="298.81" r="2.5" fill="#2563eb"/>
  <circle cx="883.77" cy="298.81" r="2.5" fill="#2563eb"/>
  <circle cx="885.45" cy="298.72" r="2.5" fill="#2563eb"/>
  <circle cx="887.14" cy="247.45" r="2.5" fill="#2563eb"/>
  <circle cx="888.83" cy="247.45" r="2.5" fill="#2563eb"/>
  <circle cx="890.52" cy="298.72" r="2.5" fill="#2563eb"/>
  <circle cx="892.21" cy="298.72" r="2.5" fill="#2563eb"/>
  <circle cx="893.90" cy="298.72" r="2.5" fill="#2563eb"/>
  <circle cx="895.58" cy="298.72" r="2.5" fill="#2563eb"/>
  <circle cx="897.27" cy="298.72" r="2.5" fill="#2563eb"/>
  <circle cx="898.96" cy="298.72" r="2.5" fill="#2563eb"/>
  <circle cx="900.65" cy="247.36" r="2.5" fill="#2563eb"/>
  <circle cx="902.34" cy="298.68" r="2.5" fill="#2563eb"/>
  <circle cx="904.03" cy="247.36" r="2.5" fill="#2563eb"/>
  <circle cx="905.71" cy="247.36" r="2.5" fill="#2563eb"/>
  <circle cx="907.40" cy="247.36" r="2.5" fill="#2563eb"/>
  <circle cx="909.09" cy="298.68" r="2.5" fill="#2563eb"/>
  <circle cx="910.78" cy="298.68" r="2.5" fill="#2563eb"/>
  <circle cx="912.47" cy="298.68" r="2.5" fill="#2563eb"/>
  <circle cx="914.16" cy="298.68" r="2.5" fill="#2563eb"/>
  <circle cx="915.84" cy="298.68" r="2.5" fill="#2563eb"/>
  <circle cx="917.53" cy="341.67" r="2.5" fill="#2563eb"/>
  <circle cx="919.22" cy="307.01" r="2.5" fill="#2563eb"/>
  <circle cx="920.91" cy="298.68" r="2.5" fill="#2563eb"/>
  <circle cx="922.60" cy="298.68" r="2.5" fill="#2563eb"/>
  <circle cx="924.29" cy="298.68" r="2.5" fill="#2563eb"/>
  <circle cx="925.97" cy="247.36" r="2.5" fill="#2563eb"/>
  <circle cx="927.66" cy="298.64" r="2.5" fill="#2563eb"/>
  <circle cx="929.35" cy="247.36" r="2.5" fill="#2563eb"/>
  <circle cx="931.04" cy="247.28" r="2.5" fill="#2563eb"/>
  <circle cx="932.73" cy="247.20" r="2.5" fill="#2563eb"/>
  <circle cx="934.42" cy="298.60" r="2.5" fill="#2563eb"/>
  <circle cx="936.10" cy="298.60" r="2.5" fill="#2563eb"/>
  <circle cx="937.79" cy="247.03" r="2.5" fill="#2563eb"/>
  <circle cx="939.48" cy="298.51" r="2.5" fill="#2563eb"/>
  <circle cx="941.17" cy="298.51" r="2.5" fill="#2563eb"/>
  <circle cx="942.86" cy="298.51" r="2.5" fill="#2563eb"/>
  <circle cx="944.55" cy="298.51" r="2.5" fill="#2563eb"/>
  <circle cx="946.23" cy="298.51" r="2.5" fill="#2563eb"/>
  <circle cx="947.92" cy="298.51" r="2.5" fill="#2563eb"/>
  <circle cx="949.61" cy="298.51" r="2.5" fill="#2563eb"/>
  <circle cx="951.30" cy="298.51" r="2.5" fill="#2563eb"/>
  <circle cx="952.99" cy="298.51" r="2.5" fill="#2563eb"/>
  <circle cx="954.68" cy="298.51" r="2.5" fill="#2563eb"/>
  <circle cx="956.36" cy="298.51" r="2.5" fill="#2563eb"/>
  <circle cx="958.05" cy="298.51" r="2.5" fill="#2563eb"/>
  <circle cx="959.74" cy="298.51" r="2.5" fill="#2563eb"/>
  <circle cx="961.43" cy="298.51" r="2.5" fill="#2563eb"/>
  <circle cx="963.12" cy="298.51" r="2.5" fill="#2563eb"/>
  <circle cx="964.81" cy="298.51" r="2.5" fill="#2563eb"/>
  <circle cx="966.49" cy="298.51" r="2.5" fill="#2563eb"/>
  <circle cx="968.18" cy="298.51" r="2.5" fill="#2563eb"/>
  <circle cx="969.87" cy="298.51" r="2.5" fill="#2563eb"/>
  <circle cx="971.56" cy="298.51" r="2.5" fill="#2563eb"/>
  <circle cx="973.25" cy="298.51" r="2.5" fill="#2563eb"/>
  <circle cx="974.94" cy="298.51" r="2.5" fill="#2563eb"/>
  <circle cx="976.62" cy="298.51" r="2.5" fill="#2563eb"/>
  <circle cx="978.31" cy="298.51" r="2.5" fill="#2563eb"/>
  <circle cx="980.00" cy="298.51" r="2.5" fill="#2563eb"/>
</svg>
