<?xml version="1.0" encoding="UTF-8"?>
<svg xmlns="http://www.w3.org/2000/svg" width="1000" height="420" viewBox="0 0 1000 420">
  <rect width="100%" height="100%" fill="#ffffff"/>
  <text x="70" y="28" font-size="20" font-weight="600">수집 시점 기준 - 시간별 스냅샷</text>
  <text x="70" y="402" font-size="12" fill="#555">스냅샷 수</text>
  <line x1="70" y1="350.00" x2="980" y2="350.00" stroke="#e5e7eb" stroke-width="1"/>
  <text x="62" y="354.00" font-size="11" fill="#6b7280" text-anchor="end">0</text>
  <line x1="70" y1="290.00" x2="980" y2="290.00" stroke="#e5e7eb" stroke-width="1"/>
  <text x="62" y="294.00" font-size="11" fill="#6b7280" text-anchor="end">1,440</text>
  <line x1="70" y1="230.00" x2="980" y2="230.00" stroke="#e5e7eb" stroke-width="1"/>
  <text x="62" y="234.00" font-size="11" fill="#6b7280" text-anchor="end">2,880</text>
  <line x1="70" y1="170.00" x2="980" y2="170.00" stroke="#e5e7eb" stroke-width="1"/>
  <text x="62" y="174.00" font-size="11" fill="#6b7280" text-anchor="end">4,321</text>
  <line x1="70" y1="110.00" x2="980" y2="110.00" stroke="#e5e7eb" stroke-width="1"/>
  <text x="62" y="114.00" font-size="11" fill="#6b7280" text-anchor="end">5,761</text>
  <line x1="70" y1="50.00" x2="980" y2="50.00" stroke="#e5e7eb" stroke-width="1"/>
  <text x="62" y="54.00" font-size="11" fill="#6b7280" text-anchor="end">7,202</text>
  <line x1="70" y1="350" x2="980" y2="350" stroke="#111827" stroke-width="1.2"/>
  <line x1="70" y1="50" x2="70" y2="350" stroke="#111827" stroke-width="1.2"/>
  <line x1="70.00" y1="350" x2="70.00" y2="356" stroke="#9ca3af" stroke-width="1"/>
  <text x="70.00" y="372" font-size="10" fill="#6b7280" text-anchor="middle">2026-02-28 18</text>
  <line x1="146.00" y1="350" x2="146.00" y2="356" stroke="#9ca3af" stroke-width="1"/>
  <text x="146.00" y="372" font-size="10" fill="#6b7280" text-anchor="middle">2026-03-08 17</text>
  <line x1="222.00" y1="350" x2="222.00" y2="356" stroke="#9ca3af" stroke-width="1"/>
  <text x="222.00" y="372" font-size="10" fill="#6b7280" text-anchor="middle">2026-03-10 10</text>
  <line x1="298.00" y1="350" x2="298.00" y2="356" stroke="#9ca3af" stroke-width="1"/>
  <text x="298.00" y="372" font-size="10" fill="#6b7280" text-anchor="middle">2026-03-12 03</text>
  <line x1="374.00" y1="350" x2="374.00" y2="356" stroke="#9ca3af" stroke-width="1"/>
  <text x="374.00" y="372" font-size="10" fill="#6b7280" text-anchor="middle">2026-03-13 21</text>
  <line x1="450.00" y1="350" x2="450.00" y2="356" stroke="#9ca3af" stroke-width="1"/>
  <text x="450.00" y="372" font-size="10" fill="#6b7280" text-anchor="middle">2026-03-16 00</text>
  <line x1="526.00" y1="350" x2="526.00" y2="356" stroke="#9ca3af" stroke-width="1"/>
  <text x="526.00" y="372" font-size="10" fill="#6b7280" text-anchor="middle">2026-03-18 15</text>
  <line x1="602.00" y1="350" x2="602.00" y2="356" stroke="#9ca3af" stroke-width="1"/>
  <text x="602.00" y="372" font-size="10" fill="#6b7280" text-anchor="middle">2026-03-21 00</text>
  <line x1="678.00" y1="350" x2="678.00" y2="356" stroke="#9ca3af" stroke-width="1"/>
  <text x="678.00" y="372" font-size="10" fill="#6b7280" text-anchor="middle">2026-03-23 01</text>
  <line x1="754.00" y1="350" x2="754.00" y2="356" stroke="#9ca3af" stroke-width="1"/>
  <text x="754.00" y="372" font-size="10" fill="#6b7280" text-anchor="middle">2026-03-25 17</text>
  <line x1="830.00" y1="350" x2="830.00" y2="356" stroke="#9ca3af" stroke-width="1"/>
  <text x="830.00" y="372" font-size="10" fill="#6b7280" text-anchor="middle">2026-03-28 04</text>
  <line x1="906.00" y1="350" x2="906.00" y2="356" stroke="#9ca3af" stroke-width="1"/>
  <text x="906.00" y="372" font-size="10" fill="#6b7280" text-anchor="middle">2026-03-30 20</text>
  <line x1="980.00" y1="350" x2="980.00" y2="356" stroke="#9ca3af" stroke-width="1"/>
  <text x="980.00" y="372" font-size="10" fill="#6b7280" text-anchor="middle">2026-04-02 12</text>
  <polyline fill="none" stroke="#2563eb" stroke-width="2.5" points="70.00,50.00 72.00,50.12 74.00,50.17 76.00,50.46 78.00,50.00 80.00,266.90 82.00,50.12 84.00,50.08 86.00,177.46 88.00,211.58 90.00,175.34 92.00,304.14 94.00,200.46 96.00,250.94 98.00,300.01 100.00,300.06 102.00,300.01 104.00,300.01 106.00,348.00 108.00,300.01 110.00,249.99 112.00,200.00 114.00,249.99 116.00,249.99 118.00,250.03 120.00,250.03 122.00,250.03 124.00,250.40 126.00,250.90 128.00,250.90 130.00,251.32 132.00,249.94 134.00,300.01 136.00,299.93 138.00,251.03 140.00,300.68 142.00,250.03 144.00,200.00 146.00,249.99 148.00,250.03 150.00,250.03 152.00,250.03 154.00,300.01 156.00,200.04 158.00,250.03 160.00,250.03 162.00,250.03 164.00,249.90 166.00,250.03 168.00,250.03 170.00,250.94 172.00,250.44 174.00,250.03 176.00,250.03 178.00,300.47 180.00,300.01 182.00,300.43 184.00,250.03 186.00,249.99 188.00,300.43 190.00,249.90 192.00,249.99 194.00,249.99 196.00,200.04 198.00,300.01 200.00,300.01 202.00,300.01 204.00,249.90 206.00,300.01 208.00,250.03 210.00,249.99 212.00,199.96 214.00,300.01 216.00,200.00 218.00,250.36 220.00,250.03 222.00,300.01 224.00,300.01 226.00,250.44 228.00,300.01 230.00,250.03 232.00,250.03 234.00,249.99 236.00,250.49 238.00,250.03 240.00,200.04 242.00,300.01 244.00,250.03 246.00,300.01 248.00,250.11 250.00,300.01 252.00,250.03 254.00,250.03 256.00,199.92 258.00,250.03 260.00,250.03 262.00,250.03 264.00,254.36 266.00,300.01 268.00,299.97 270.00,250.36 272.00,299.97 274.00,250.03 276.00,250.03 278.00,250.03 280.00,250.03 282.00,249.99 284.00,200.00 286.00,299.93 288.00,300.01 290.00,299.97 292.00,249.94 294.00,249.99 296.00,249.82 298.00,249.94 300.00,250.28 302.00,207.00 304.00,250.03 306.00,250.32 308.00,250.40 310.00,300.93 312.00,300.01 314.00,300.10 316.00,249.94 318.00,249.99 320.00,250.07 322.00,249.99 324.00,250.03 326.00,249.94 328.00,200.00 330.00,300.39 332.00,300.01 334.00,300.01 336.00,250.44 338.00,300.39 340.00,249.86 342.00,250.11 344.00,201.46 346.00,300.01 348.00,200.83 350.00,250.03 352.00,249.99 354.00,300.26 356.00,300.01 358.00,300.01 360.00,250.03 362.00,250.03 364.00,250.03 366.00,250.03 368.00,249.99 370.00,250.03 372.00,200.00 374.00,300.26 376.00,249.99 378.00,300.01 380.00,249.94 382.00,250.03 384.00,250.03 386.00,250.03 388.00,200.04 390.00,300.01 392.00,249.90 394.00,300.01 396.00,300.01 398.00,300.06 400.00,300.01 402.00,300.01 404.00,243.95 406.00,249.94 408.00,299.97 410.00,300.01 412.00,300.01 414.00,250.03 416.00,300.01 418.00,300.01 420.00,299.97 422.00,249.99 424.00,300.01 426.00,299.93 428.00,300.01 430.00,299.93 432.00,300.01 434.00,300.01 436.00,299.89 438.00,299.97 440.00,250.03 442.00,299.93 444.00,299.89 446.00,299.97 448.00,249.94 450.00,300.01 452.00,300.01 454.00,299.97 456.00,249.99 458.00,299.97 460.00,299.97 462.00,300.06 464.00,300.06 466.00,299.93 468.00,300.01 470.00,300.01 472.00,299.93 474.00,300.01 476.00,300.01 478.00,299.97 480.00,300.01 482.00,300.01 484.00,300.01 486.00,300.01 488.00,249.86 490.00,300.01 492.00,300.10 494.00,299.93 496.00,300.01 498.00,299.93 500.00,300.01 502.00,300.01 504.00,300.01 506.00,300.01 508.00,300.01 510.00,299.97 512.00,300.01 514.00,300.01 516.00,300.01 518.00,300.01 520.00,250.03 522.00,300.01 524.00,300.01 526.00,299.97 528.00,300.01 530.00,300.01 532.00,299.97 534.00,299.97 536.00,300.01 538.00,299.97 540.00,300.01 542.00,299.93 544.00,300.01 546.00,250.03 548.00,300.01 550.00,300.01 552.00,300.01 554.00,300.01 556.00,300.01 558.00,299.89 560.00,300.01 562.00,300.01 564.00,250.07 566.00,300.01 568.00,299.93 570.00,300.01 572.00,299.97 574.00,299.97 576.00,299.97 578.00,250.03 580.00,300.01 582.00,300.01 584.00,300.01 586.00,300.01 588.00,299.97 590.00,300.01 592.00,299.97 594.00,300.01 596.00,299.97 598.00,249.90 600.00,300.01 602.00,300.01 604.00,299.89 606.00,299.97 608.00,299.97 610.00,249.99 612.00,299.97 614.00,299.89 616.00,300.01 618.00,299.97 620.00,299.97 622.00,300.01 624.00,299.97 626.00,249.99 628.00,299.97 630.00,299.97 632.00,300.06 634.00,300.06 636.00,249.94 638.00,300.01 640.00,299.93 642.00,300.01 644.00,300.01 646.00,249.99 648.00,300.01 650.00,300.01 652.00,300.01 654.00,299.93 656.00,299.93 658.00,300.01 660.00,300.01 662.00,249.94 664.00,299.97 666.00,299.97 668.00,300.01 670.00,300.01 672.00,300.01 674.00,249.99 676.00,300.01 678.00,300.01 680.00,300.01 682.00,250.03 684.00,300.01 686.00,300.01 688.00,300.01 690.00,299.97 692.00,300.01 694.00,300.01 696.00,299.97 698.00,299.97 700.00,300.01 702.00,300.01 704.00,299.97 706.00,299.93 708.00,300.01 710.00,300.06 712.00,299.97 714.00,300.01 716.00,250.03 718.00,250.03 720.00,299.93 722.00,299.97 724.00,300.01 726.00,300.01 728.00,300.06 730.00,300.01 732.00,299.93 734.00,300.01 736.00,300.01 738.00,299.97 740.00,299.97 742.00,300.01 744.00,250.03 746.00,300.01 748.00,300.01 750.00,300.01 752.00,299.97 754.00,300.01 756.00,299.97 758.00,300.01 760.00,299.97 762.00,299.97 764.00,299.93 766.00,300.01 768.00,300.01 770.00,299.89 772.00,299.97 774.00,299.97 776.00,300.06 778.00,249.90 780.00,299.89 782.00,300.01 784.00,299.97 786.00,299.97 788.00,299.97 790.00,300.01 792.00,300.01 794.00,299.97 796.00,299.97 798.00,299.97 800.00,250.03 802.00,299.93 804.00,300.01 806.00,300.01 808.00,299.93 810.00,300.01 812.00,300.01 814.00,299.97 816.00,300.01 818.00,300.01 820.00,300.06 822.00,300.01 824.00,299.97 826.00,299.89 828.00,300.01 830.00,300.01 832.00,249.94 834.00,249.94 836.00,300.01 838.00,300.01 840.00,300.01 842.00,300.01 844.00,299.97 846.00,250.03 848.00,300.01 850.00,300.01 852.00,300.01 854.00,300.01 856.00,250.03 858.00,249.99 860.00,300.01 862.00,299.97 864.00,300.01 866.00,299.97 868.00,300.01 870.00,299.97 872.00,299.97 874.00,299.97 876.00,300.06 878.00,249.99 880.00,300.01 882.00,250.03 884.00,249.94 886.00,249.99 888.00,300.01 890.00,300.06 892.00,300.01 894.00,299.97 896.00,299.97 898.00,300.01 900.00,299.93 902.00,299.89 904.00,299.89 906.00,299.89 908.00,299.89 910.00,299.85 912.00,299.85 914.00,299.89 916.00,299.81 918.00,299.81 920.00,299.81 922.00,299.76 924.00,299.76 926.00,299.76 928.00,299.72 930.00,299.68 932.00,299.60 934.00,299.60 936.00,299.60 938.00,299.56 940.00,299.47 942.00,299.43 944.00,299.43 946.00,299.39 948.00,299.47 950.00,259.82 952.00,338.96 954.00,299.31 956.00,299.31 958.00,299.26 960.00,299.68 962.00,299.68 964.00,299.68 966.00,299.64 968.00,299.14 970.00,299.14 972.00,299.10 974.00,299.10 976.00,299.10 978.00,248.07 980.00,299.06"/>
  <circle cx="70.00" cy="50.00" r="2.5" fill="#2563eb"/>
  <circle cx="72.00" cy="50.12" r="2.5" fill="#2563eb"/>
  <circle cx="74.00" cy="50.17" r="2.5" fill="#2563eb"/>
  <circle cx="76.00" cy="50.46" r="2.5" fill="#2563eb"/>
  <circle cx="78.00" cy="50.00" r="2.5" fill="#2563eb"/>
  <circle cx="80.00" cy="266.90" r="2.5" fill="#2563eb"/>
  <circle cx="82.00" cy="50.12" r="2.5" fill="#2563eb"/>
  <circle cx="84.00" cy="50.08" r="2.5" fill="#2563eb"/>
  <circle cx="86.00" cy="177.46" r="2.5" fill="#2563eb"/>
  <circle cx="88.00" cy="211.58" r="2.5" fill="#2563eb"/>
  <circle cx="90.00" cy="175.34" r="2.5" fill="#2563eb"/>
  <circle cx="92.00" cy="304.14" r="2.5" fill="#2563eb"/>
  <circle cx="94.00" cy="200.46" r="2.5" fill="#2563eb"/>
  <circle cx="96.00" cy="250.94" r="2.5" fill="#2563eb"/>
  <circle cx="98.00" cy="300.01" r="2.5" fill="#2563eb"/>
  <circle cx="100.00" cy="300.06" r="2.5" fill="#2563eb"/>
  <circle cx="102.00" cy="300.01" r="2.5" fill="#2563eb"/>
  <circle cx="104.00" cy="300.01" r="2.5" fill="#2563eb"/>
  <circle cx="106.00" cy="348.00" r="2.5" fill="#2563eb"/>
  <circle cx="108.00" cy="300.01" r="2.5" fill="#2563eb"/>
  <circle cx="110.00" cy="249.99" r="2.5" fill="#2563eb"/>
  <circle cx="112.00" cy="200.00" r="2.5" fill="#2563eb"/>
  <circle cx="114.00" cy="249.99" r="2.5" fill="#2563eb"/>
  <circle cx="116.00" cy="249.99" r="2.5" fill="#2563eb"/>
  <circle cx="118.00" cy="250.03" r="2.5" fill="#2563eb"/>
  <circle cx="120.00" cy="250.03" r="2.5" fill="#2563eb"/>
  <circle cx="122.00" cy="250.03" r="2.5" fill="#2563eb"/>
  <circle cx="124.00" cy="250.40" r="2.5" fill="#2563eb"/>
  <circle cx="126.00" cy="250.90" r="2.5" fill="#2563eb"/>
  <circle cx="128.00" cy="250.90" r="2.5" fill="#2563eb"/>
  <circle cx="130.00" cy="251.32" r="2.5" fill="#2563eb"/>
  <circle cx="132.00" cy="249.94" r="2.5" fill="#2563eb"/>
  <circle cx="134.00" cy="300.01" r="2.5" fill="#2563eb"/>
  <circle cx="136.00" cy="299.93" r="2.5" fill="#2563eb"/>
  <circle cx="138.00" cy="251.03" r="2.5" fill="#2563eb"/>
  <circle cx="140.00" cy="300.68" r="2.5" fill="#2563eb"/>
  <circle cx="142.00" cy="250.03" r="2.5" fill="#2563eb"/>
  <circle cx="144.00" cy="200.00" r="2.5" fill="#2563eb"/>
  <circle cx="146.00" cy="249.99" r="2.5" fill="#2563eb"/>
  <circle cx="148.00" cy="250.03" r="2.5" fill="#2563eb"/>
  <circle cx="150.00" cy="250.03" r="2.5" fill="#2563eb"/>
  <circle cx="152.00" cy="250.03" r="2.5" fill="#2563eb"/>
  <circle cx="154.00" cy="300.01" r="2.5" fill="#2563eb"/>
  <circle cx="156.00" cy="200.04" r="2.5" fill="#2563eb"/>
  <circle cx="158.00" cy="250.03" r="2.5" fill="#2563eb"/>
  <circle cx="160.00" cy="250.03" r="2.5" fill="#2563eb"/>
  <circle cx="162.00" cy="250.03" r="2.5" fill="#2563eb"/>
  <circle cx="164.00" cy="249.90" r="2.5" fill="#2563eb"/>
  <circle cx="166.00" cy="250.03" r="2.5" fill="#2563eb"/>
  <circle cx="168.00" cy="250.03" r="2.5" fill="#2563eb"/>
  <circle cx="170.00" cy="250.94" r="2.5" fill="#2563eb"/>
  <circle cx="172.00" cy="250.44" r="2.5" fill="#2563eb"/>
  <circle cx="174.00" cy="250.03" r="2.5" fill="#2563eb"/>
  <circle cx="176.00" cy="250.03" r="2.5" fill="#2563eb"/>
  <circle cx="178.00" cy="300.47" r="2.5" fill="#2563eb"/>
  <circle cx="180.00" cy="300.01" r="2.5" fill="#2563eb"/>
  <circle cx="182.00" cy="300.43" r="2.5" fill="#2563eb"/>
  <circle cx="184.00" cy="250.03" r="2.5" fill="#2563eb"/>
  <circle cx="186.00" cy="249.99" r="2.5" fill="#2563eb"/>
  <circle cx="188.00" cy="300.43" r="2.5" fill="#2563eb"/>
  <circle cx="190.00" cy="249.90" r="2.5" fill="#2563eb"/>
  <circle cx="192.00" cy="249.99" r="2.5" fill="#2563eb"/>
  <circle cx="194.00" cy="249.99" r="2.5" fill="#2563eb"/>
  <circle cx="196.00" cy="200.04" r="2.5" fill="#2563eb"/>
  <circle cx="198.00" cy="300.01" r="2.5" fill="#2563eb"/>
  <circle cx="200.00" cy="300.01" r="2.5" fill="#2563eb"/>
  <circle cx="202.00" cy="300.01" r="2.5" fill="#2563eb"/>
  <circle cx="204.00" cy="249.90" r="2.5" fill="#2563eb"/>
  <circle cx="206.00" cy="300.01" r="2.5" fill="#2563eb"/>
  <circle cx="208.00" cy="250.03" r="2.5" fill="#2563eb"/>
  <circle cx="210.00" cy="249.99" r="2.5" fill="#2563eb"/>
  <circle cx="212.00" cy="199.96" r="2.5" fill="#2563eb"/>
  <circle cx="214.00" cy="300.01" r="2.5" fill="#2563eb"/>
  <circle cx="216.00" cy="200.00" r="2.5" fill="#2563eb"/>
  <circle cx="218.00" cy="250.36" r="2.5" fill="#2563eb"/>
  <circle cx="220.00" cy="250.03" r="2.5" fill="#2563eb"/>
  <circle cx="222.00" cy="300.01" r="2.5" fill="#2563eb"/>
  <circle cx="224.00" cy="300.01" r="2.5" fill="#2563eb"/>
  <circle cx="226.00" cy="250.44" r="2.5" fill="#2563eb"/>
  <circle cx="228.00" cy="300.01" r="2.5" fill="#2563eb"/>
  <circle cx="230.00" cy="250.03" r="2.5" fill="#2563eb"/>
  <circle cx="232.00" cy="250.03" r="2.5" fill="#2563eb"/>
  <circle cx="234.00" cy="249.99" r="2.5" fill="#2563eb"/>
  <circle cx="236.00" cy="250.49" r="2.5" fill="#2563eb"/>
  <circle cx="238.00" cy="250.03" r="2.5" fill="#2563eb"/>
  <circle cx="240.00" cy="200.04" r="2.5" fill="#2563eb"/>
  <circle cx="242.00" cy="300.01" r="2.5" fill="#2563eb"/>
  <circle cx="244.00" cy="250.03" r="2.5" fill="#2563eb"/>
  <circle cx="246.00" cy="300.01" r="2.5" fill="#2563eb"/>
  <circle cx="248.00" cy="250.11" r="2.5" fill="#2563eb"/>
  <circle cx="250.00" cy="300.01" r="2.5" fill="#2563eb"/>
  <circle cx="252.00" cy="250.03" r="2.5" fill="#2563eb"/>
  <circle cx="254.00" cy="250.03" r="2.5" fill="#2563eb"/>
  <circle cx="256.00" cy="199.92" r="2.5" fill="#2563eb"/>
  <circle cx="258.00" cy="250.03" r="2.5" fill="#2563eb"/>
  <circle cx="260.00" cy="250.03" r="2.5" fill="#2563eb"/>
  <circle cx="262.00" cy="250.03" r="2.5" fill="#2563eb"/>
  <circle cx="264.00" cy="254.36" r="2.5" fill="#2563eb"/>
  <circle cx="266.00" cy="300.01" r="2.5" fill="#2563eb"/>
  <circle cx="268.00" cy="299.97" r="2.5" fill="#2563eb"/>
  <circle cx="270.00" cy="250.36" r="2.5" fill="#2563eb"/>
  <circle cx="272.00" cy="299.97" r="2.5" fill="#2563eb"/>
  <circle cx="274.00" cy="250.03" r="2.5" fill="#2563eb"/>
  <circle cx="276.00" cy="250.03" r="2.5" fill="#2563eb"/>
  <circle cx="278.00" cy="250.03" r="2.5" fill="#2563eb"/>
  <circle cx="280.00" cy="250.03" r="2.5" fill="#2563eb"/>
  <circle cx="282.00" cy="249.99" r="2.5" fill="#2563eb"/>
  <circle cx="284.00" cy="200.00" r="2.5" fill="#2563eb"/>
  <circle cx="286.00" cy="299.93" r="2.5" fill="#2563eb"/>
  <circle cx="288.00" cy="300.01" r="2.5" fill="#2563eb"/>
  <circle cx="290.00" cy="299.97" r="2.5" fill="#2563eb"/>
  <circle cx="292.00" cy="249.94" r="2.5" fill="#2563eb"/>
  <circle cx="294.00" cy="249.99" r="2.5" fill="#2563eb"/>
  <circle cx="296.00" cy="249.82" r="2.5" fill="#2563eb"/>
  <circle cx="298.00" cy="249.94" r="2.5" fill="#2563eb"/>
  <circle cx="300.00" cy="250.28" r="2.5" fill="#2563eb"/>
  <circle cx="302.00" cy="207.00" r="2.5" fill="#2563eb"/>
  <circle cx="304.00" cy="250.03" r="2.5" fill="#2563eb"/>
  <circle cx="306.00" cy="250.32" r="2.5" fill="#2563eb"/>
  <circle cx="308.00" cy="250.40" r="2.5" fill="#2563eb"/>
  <circle cx="310.00" cy="300.93" r="2.5" fill="#2563eb"/>
  <circle cx="312.00" cy="300.01" r="2.5" fill="#2563eb"/>
  <circle cx="314.00" cy="300.10" r="2.5" fill="#2563eb"/>
  <circle cx="316.00" cy="249.94" r="2.5" fill="#2563eb"/>
  <circle cx="318.00" cy="249.99" r="2.5" fill="#2563eb"/>
  <circle cx="320.00" cy="250.07" r="2.5" fill="#2563eb"/>
  <circle cx="322.00" cy="249.99" r="2.5" fill="#2563eb"/>
  <circle cx="324.00" cy="250.03" r="2.5" fill="#2563eb"/>
  <circle cx="326.00" cy="249.94" r="2.5" fill="#2563eb"/>
  <circle cx="328.00" cy="200.00" r="2.5" fill="#2563eb"/>
  <circle cx="330.00" cy="300.39" r="2.5" fill="#2563eb"/>
  <circle cx="332.00" cy="300.01" r="2.5" fill="#2563eb"/>
  <circle cx="334.00" cy="300.01" r="2.5" fill="#2563eb"/>
  <circle cx="336.00" cy="250.44" r="2.5" fill="#2563eb"/>
  <circle cx="338.00" cy="300.39" r="2.5" fill="#2563eb"/>
  <circle cx="340.00" cy="249.86" r="2.5" fill="#2563eb"/>
  <circle cx="342.00" cy="250.11" r="2.5" fill="#2563eb"/>
  <circle cx="344.00" cy="201.46" r="2.5" fill="#2563eb"/>
  <circle cx="346.00" cy="300.01" r="2.5" fill="#2563eb"/>
  <circle cx="348.00" cy="200.83" r="2.5" fill="#2563eb"/>
  <circle cx="350.00" cy="250.03" r="2.5" fill="#2563eb"/>
  <circle cx="352.00" cy="249.99" r="2.5" fill="#2563eb"/>
  <circle cx="354.00" cy="300.26" r="2.5" fill="#2563eb"/>
  <circle cx="356.00" cy="300.01" r="2.5" fill="#2563eb"/>
  <circle cx="358.00" cy="300.01" r="2.5" fill="#2563eb"/>
  <circle cx="360.00" cy="250.03" r="2.5" fill="#2563eb"/>
  <circle cx="362.00" cy="250.03" r="2.5" fill="#2563eb"/>
  <circle cx="364.00" cy="250.03" r="2.5" fill="#2563eb"/>
  <circle cx="366.00" cy="250.03" r="2.5" fill="#2563eb"/>
  <circle cx="368.00" cy="249.99" r="2.5" fill="#2563eb"/>
  <circle cx="370.00" cy="250.03" r="2.5" fill="#2563eb"/>
  <circle cx="372.00" cy="200.00" r="2.5" fill="#2563eb"/>
  <circle cx="374.00" cy="300.26" r="2.5" fill="#2563eb"/>
  <circle cx="376.00" cy="249.99" r="2.5" fill="#2563eb"/>
  <circle cx="378.00" cy="300.01" r="2.5" fill="#2563eb"/>
  <circle cx="380.00" cy="249.94" r="2.5" fill="#2563eb"/>
  <circle cx="382.00" cy="250.03" r="2.5" fill="#2563eb"/>
  <circle cx="384.00" cy="250.03" r="2.5" fill="#2563eb"/>
  <circle cx="386.00" cy="250.03" r="2.5" fill="#2563eb"/>
  <circle cx="388.00" cy="200.04" r="2.5" fill="#2563eb"/>
  <circle cx="390.00" cy="300.01" r="2.5" fill="#2563eb"/>
  <circle cx="392.00" cy="249.90" r="2.5" fill="#2563eb"/>
  <circle cx="394.00" cy="300.01" r="2.5" fill="#2563eb"/>
  <circle cx="396.00" cy="300.01" r="2.5" fill="#2563eb"/>
  <circle cx="398.00" cy="300.06" r="2.5" fill="#2563eb"/>
  <circle cx="400.00" cy="300.01" r="2.5" fill="#2563eb"/>
  <circle cx="402.00" cy="300.01" r="2.5" fill="#2563eb"/>
  <circle cx="404.00" cy="243.95" r="2.5" fill="#2563eb"/>
  <circle cx="406.00" cy="249.94" r="2.5" fill="#2563eb"/>
  <circle cx="408.00" cy="299.97" r="2.5" fill="#2563eb"/>
  <circle cx="410.00" cy="300.01" r="2.5" fill="#2563eb"/>
  <circle cx="412.00" cy="300.01" r="2.5" fill="#2563eb"/>
  <circle cx="414.00" cy="250.03" r="2.5" fill="#2563eb"/>
  <circle cx="416.00" cy="300.01" r="2.5" fill="#2563eb"/>
  <circle cx="418.00" cy="300.01" r="2.5" fill="#2563eb"/>
  <circle cx="420.00" cy="299.97" r="2.5" fill="#2563eb"/>
  <circle cx="422.00" cy="249.99" r="2.5" fill="#2563eb"/>
  <circle cx="424.00" cy="300.01" r="2.5" fill="#2563eb"/>
  <circle cx="426.00" cy="299.93" r="2.5" fill="#2563eb"/>
  <circle cx="428.00" cy="300.01" r="2.5" fill="#2563eb"/>
  <circle cx="430.00" cy="299.93" r="2.5" fill="#2563eb"/>
  <circle cx="432.00" cy="300.01" r="2.5" fill="#2563eb"/>
  <circle cx="434.00" cy="300.01" r="2.5" fill="#2563eb"/>
  <circle cx="436.00" cy="299.89" r="2.5" fill="#2563eb"/>
  <circle cx="438.00" cy="299.97" r="2.5" fill="#2563eb"/>
  <circle cx="440.00" cy="250.03" r="2.5" fill="#2563eb"/>
  <circle cx="442.00" cy="299.93" r="2.5" fill="#2563eb"/>
  <circle cx="444.00" cy="299.89" r="2.5" fill="#2563eb"/>
  <circle cx="446.00" cy="299.97" r="2.5" fill="#2563eb"/>
  <circle cx="448.00" cy="249.94" r="2.5" fill="#2563eb"/>
  <circle cx="450.00" cy="300.01" r="2.5" fill="#2563eb"/>
  <circle cx="452.00" cy="300.01" r="2.5" fill="#2563eb"/>
  <circle cx="454.00" cy="299.97" r="2.5" fill="#2563eb"/>
  <circle cx="456.00" cy="249.99" r="2.5" fill="#2563eb"/>
  <circle cx="458.00" cy="299.97" r="2.5" fill="#2563eb"/>
  <circle cx="460.00" cy="299.97" r="2.5" fill="#2563eb"/>
  <circle cx="462.00" cy="300.06" r="2.5" fill="#2563eb"/>
  <circle cx="464.00" cy="300.06" r="2.5" fill="#2563eb"/>
  <circle cx="466.00" cy="299.93" r="2.5" fill="#2563eb"/>
  <circle cx="468.00" cy="300.01" r="2.5" fill="#2563eb"/>
  <circle cx="470.00" cy="300.01" r="2.5" fill="#2563eb"/>
  <circle cx="472.00" cy="299.93" r="2.5" fill="#2563eb"/>
  <circle cx="474.00" cy="300.01" r="2.5" fill="#2563eb"/>
  <circle cx="476.00" cy="300.01" r="2.5" fill="#2563eb"/>
  <circle cx="478.00" cy="299.97" r="2.5" fill="#2563eb"/>
  <circle cx="480.00" cy="300.01" r="2.5" fill="#2563eb"/>
  <circle cx="482.00" cy="300.01" r="2.5" fill="#2563eb"/>
  <circle cx="484.00" cy="300.01" r="2.5" fill="#2563eb"/>
  <circle cx="486.00" cy="300.01" r="2.5" fill="#2563eb"/>
  <circle cx="488.00" cy="249.86" r="2.5" fill="#2563eb"/>
  <circle cx="490.00" cy="300.01" r="2.5" fill="#2563eb"/>
  <circle cx="492.00" cy="300.10" r="2.5" fill="#2563eb"/>
  <circle cx="494.00" cy="299.93" r="2.5" fill="#2563eb"/>
  <circle cx="496.00" cy="300.01" r="2.5" fill="#2563eb"/>
  <circle cx="498.00" cy="299.93" r="2.5" fill="#2563eb"/>
  <circle cx="500.00" cy="300.01" r="2.5" fill="#2563eb"/>
  <circle cx="502.00" cy="300.01" r="2.5" fill="#2563eb"/>
  <circle cx="504.00" cy="300.01" r="2.5" fill="#2563eb"/>
  <circle cx="506.00" cy="300.01" r="2.5" fill="#2563eb"/>
  <circle cx="508.00" cy="300.01" r="2.5" fill="#2563eb"/>
  <circle cx="510.00" cy="299.97" r="2.5" fill="#2563eb"/>
  <circle cx="512.00" cy="300.01" r="2.5" fill="#2563eb"/>
  <circle cx="514.00" cy="300.01" r="2.5" fill="#2563eb"/>
  <circle cx="516.00" cy="300.01" r="2.5" fill="#2563eb"/>
  <circle cx="518.00" cy="300.01" r="2.5" fill="#2563eb"/>
  <circle cx="520.00" cy="250.03" r="2.5" fill="#2563eb"/>
  <circle cx="522.00" cy="300.01" r="2.5" fill="#2563eb"/>
  <circle cx="524.00" cy="300.01" r="2.5" fill="#2563eb"/>
  <circle cx="526.00" cy="299.97" r="2.5" fill="#2563eb"/>
  <circle cx="528.00" cy="300.01" r="2.5" fill="#2563eb"/>
  <circle cx="530.00" cy="300.01" r="2.5" fill="#2563eb"/>
  <circle cx="532.00" cy="299.97" r="2.5" fill="#2563eb"/>
  <circle cx="534.00" cy="299.97" r="2.5" fill="#2563eb"/>
  <circle cx="536.00" cy="300.01" r="2.5" fill="#2563eb"/>
  <circle cx="538.00" cy="299.97" r="2.5" fill="#2563eb"/>
  <circle cx="540.00" cy="300.01" r="2.5" fill="#2563eb"/>
  <circle cx="542.00" cy="299.93" r="2.5" fill="#2563eb"/>
  <circle cx="544.00" cy="300.01" r="2.5" fill="#2563eb"/>
  <circle cx="546.00" cy="250.03" r="2.5" fill="#2563eb"/>
  <circle cx="548.00" cy="300.01" r="2.5" fill="#2563eb"/>
  <circle cx="550.00" cy="300.01" r="2.5" fill="#2563eb"/>
  <circle cx="552.00" cy="300.01" r="2.5" fill="#2563eb"/>
  <circle cx="554.00" cy="300.01" r="2.5" fill="#2563eb"/>
  <circle cx="556.00" cy="300.01" r="2.5" fill="#2563eb"/>
  <circle cx="558.00" cy="299.89" r="2.5" fill="#2563eb"/>
  <circle cx="560.00" cy="300.01" r="2.5" fill="#2563eb"/>
  <circle cx="562.00" cy="300.01" r="2.5" fill="#2563eb"/>
  <circle cx="564.00" cy="250.07" r="2.5" fill="#2563eb"/>
  <circle cx="566.00" cy="300.01" r="2.5" fill="#2563eb"/>
  <circle cx="568.00" cy="299.93" r="2.5" fill="#2563eb"/>
  <circle cx="570.00" cy="300.01" r="2.5" fill="#2563eb"/>
  <circle cx="572.00" cy="299.97" r="2.5" fill="#2563eb"/>
  <circle cx="574.00" cy="299.97" r="2.5" fill="#2563eb"/>
  <circle cx="576.00" cy="299.97" r="2.5" fill="#2563eb"/>
  <circle cx="578.00" cy="250.03" r="2.5" fill="#2563eb"/>
  <circle cx="580.00" cy="300.01" r="2.5" fill="#2563eb"/>
  <circle cx="582.00" cy="300.01" r="2.5" fill="#2563eb"/>
  <circle cx="584.00" cy="300.01" r="2.5" fill="#2563eb"/>
  <circle cx="586.00" cy="300.01" r="2.5" fill="#2563eb"/>
  <circle cx="588.00" cy="299.97" r="2.5" fill="#2563eb"/>
  <circle cx="590.00" cy="300.01" r="2.5" fill="#2563eb"/>
  <circle cx="592.00" cy="299.97" r="2.5" fill="#2563eb"/>
  <circle cx="594.00" cy="300.01" r="2.5" fill="#2563eb"/>
  <circle cx="596.00" cy="299.97" r="2.5" fill="#2563eb"/>
  <circle cx="598.00" cy="249.90" r="2.5" fill="#2563eb"/>
  <circle cx="600.00" cy="300.01" r="2.5" fill="#2563eb"/>
  <circle cx="602.00" cy="300.01" r="2.5" fill="#2563eb"/>
  <circle cx="604.00" cy="299.89" r="2.5" fill="#2563eb"/>
  <circle cx="606.00" cy="299.97" r="2.5" fill="#2563eb"/>
  <circle cx="608.00" cy="299.97" r="2.5" fill="#2563eb"/>
  <circle cx="610.00" cy="249.99" r="2.5" fill="#2563eb"/>
  <circle cx="612.00" cy="299.97" r="2.5" fill="#2563eb"/>
  <circle cx="614.00" cy="299.89" r="2.5" fill="#2563eb"/>
  <circle cx="616.00" cy="300.01" r="2.5" fill="#2563eb"/>
  <circle cx="618.00" cy="299.97" r="2.5" fill="#2563eb"/>
  <circle cx="620.00" cy="299.97" r="2.5" fill="#2563eb"/>
  <circle cx="622.00" cy="300.01" r="2.5" fill="#2563eb"/>
  <circle cx="624.00" cy="299.97" r="2.5" fill="#2563eb"/>
  <circle cx="626.00" cy="249.99" r="2.5" fill="#2563eb"/>
  <circle cx="628.00" cy="299.97" r="2.5" fill="#2563eb"/>
  <circle cx="630.00" cy="299.97" r="2.5" fill="#2563eb"/>
  <circle cx="632.00" cy="300.06" r="2.5" fill="#2563eb"/>
  <circle cx="634.00" cy="300.06" r="2.5" fill="#2563eb"/>
  <circle cx="636.00" cy="249.94" r="2.5" fill="#2563eb"/>
  <circle cx="638.00" cy="300.01" r="2.5" fill="#2563eb"/>
  <circle cx="640.00" cy="299.93" r="2.5" fill="#2563eb"/>
  <circle cx="642.00" cy="300.01" r="2.5" fill="#2563eb"/>
  <circle cx="644.00" cy="300.01" r="2.5" fill="#2563eb"/>
  <circle cx="646.00" cy="249.99" r="2.5" fill="#2563eb"/>
  <circle cx="648.00" cy="300.01" r="2.5" fill="#2563eb"/>
  <circle cx="650.00" cy="300.01" r="2.5" fill="#2563eb"/>
  <circle cx="652.00" cy="300.01" r="2.5" fill="#2563eb"/>
  <circle cx="654.00" cy="299.93" r="2.5" fill="#2563eb"/>
  <circle cx="656.00" cy="299.93" r="2.5" fill="#2563eb"/>
  <circle cx="658.00" cy="300.01" r="2.5" fill="#2563eb"/>
  <circle cx="660.00" cy="300.01" r="2.5" fill="#2563eb"/>
  <circle cx="662.00" cy="249.94" r="2.5" fill="#2563eb"/>
  <circle cx="664.00" cy="299.97" r="2.5" fill="#2563eb"/>
  <circle cx="666.00" cy="299.97" r="2.5" fill="#2563eb"/>
  <circle cx="668.00" cy="300.01" r="2.5" fill="#2563eb"/>
  <circle cx="670.00" cy="300.01" r="2.5" fill="#2563eb"/>
  <circle cx="672.00" cy="300.01" r="2.5" fill="#2563eb"/>
  <circle cx="674.00" cy="249.99" r="2.5" fill="#2563eb"/>
  <circle cx="676.00" cy="300.01" r="2.5" fill="#2563eb"/>
  <circle cx="678.00" cy="300.01" r="2.5" fill="#2563eb"/>
  <circle cx="680.00" cy="300.01" r="2.5" fill="#2563eb"/>
  <circle cx="682.00" cy="250.03" r="2.5" fill="#2563eb"/>
  <circle cx="684.00" cy="300.01" r="2.5" fill="#2563eb"/>
  <circle cx="686.00" cy="300.01" r="2.5" fill="#2563eb"/>
  <circle cx="688.00" cy="300.01" r="2.5" fill="#2563eb"/>
  <circle cx="690.00" cy="299.97" r="2.5" fill="#2563eb"/>
  <circle cx="692.00" cy="300.01" r="2.5" fill="#2563eb"/>
  <circle cx="694.00" cy="300.01" r="2.5" fill="#2563eb"/>
  <circle cx="696.00" cy="299.97" r="2.5" fill="#2563eb"/>
  <circle cx="698.00" cy="299.97" r="2.5" fill="#2563eb"/>
  <circle cx="700.00" cy="300.01" r="2.5" fill="#2563eb"/>
  <circle cx="702.00" cy="300.01" r="2.5" fill="#2563eb"/>
  <circle cx="704.00" cy="299.97" r="2.5" fill="#2563eb"/>
  <circle cx="706.00" cy="299.93" r="2.5" fill="#2563eb"/>
  <circle cx="708.00" cy="300.01" r="2.5" fill="#2563eb"/>
  <circle cx="710.00" cy="300.06" r="2.5" fill="#2563eb"/>
  <circle cx="712.00" cy="299.97" r="2.5" fill="#2563eb"/>
  <circle cx="714.00" cy="300.01" r="2.5" fill="#2563eb"/>
  <circle cx="716.00" cy="250.03" r="2.5" fill="#2563eb"/>
  <circle cx="718.00" cy="250.03" r="2.5" fill="#2563eb"/>
  <circle cx="720.00" cy="299.93" r="2.5" fill="#2563eb"/>
  <circle cx="722.00" cy="299.97" r="2.5" fill="#2563eb"/>
  <circle cx="724.00" cy="300.01" r="2.5" fill="#2563eb"/>
  <circle cx="726.00" cy="300.01" r="2.5" fill="#2563eb"/>
  <circle cx="728.00" cy="300.06" r="2.5" fill="#2563eb"/>
  <circle cx="730.00" cy="300.01" r="2.5" fill="#2563eb"/>
  <circle cx="732.00" cy="299.93" r="2.5" fill="#2563eb"/>
  <circle cx="734.00" cy="300.01" r="2.5" fill="#2563eb"/>
  <circle cx="736.00" cy="300.01" r="2.5" fill="#2563eb"/>
  <circle cx="738.00" cy="299.97" r="2.5" fill="#2563eb"/>
  <circle cx="740.00" cy="299.97" r="2.5" fill="#2563eb"/>
  <circle cx="742.00" cy="300.01" r="2.5" fill="#2563eb"/>
  <circle cx="744.00" cy="250.03" r="2.5" fill="#2563eb"/>
  <circle cx="746.00" cy="300.01" r="2.5" fill="#2563eb"/>
  <circle cx="748.00" cy="300.01" r="2.5" fill="#2563eb"/>
  <circle cx="750.00" cy="300.01" r="2.5" fill="#2563eb"/>
  <circle cx="752.00" cy="299.97" r="2.5" fill="#2563eb"/>
  <circle cx="754.00" cy="300.01" r="2.5" fill="#2563eb"/>
  <circle cx="756.00" cy="299.97" r="2.5" fill="#2563eb"/>
  <circle cx="758.00" cy="300.01" r="2.5" fill="#2563eb"/>
  <circle cx="760.00" cy="299.97" r="2.5" fill="#2563eb"/>
  <circle cx="762.00" cy="299.97" r="2.5" fill="#2563eb"/>
  <circle cx="764.00" cy="299.93" r="2.5" fill="#2563eb"/>
  <circle cx="766.00" cy="300.01" r="2.5" fill="#2563eb"/>
  <circle cx="768.00" cy="300.01" r="2.5" fill="#2563eb"/>
  <circle cx="770.00" cy="299.89" r="2.5" fill="#2563eb"/>
  <circle cx="772.00" cy="299.97" r="2.5" fill="#2563eb"/>
  <circle cx="774.00" cy="299.97" r="2.5" fill="#2563eb"/>
  <circle cx="776.00" cy="300.06" r="2.5" fill="#2563eb"/>
  <circle cx="778.00" cy="249.90" r="2.5" fill="#2563eb"/>
  <circle cx="780.00" cy="299.89" r="2.5" fill="#2563eb"/>
  <circle cx="782.00" cy="300.01" r="2.5" fill="#2563eb"/>
  <circle cx="784.00" cy="299.97" r="2.5" fill="#2563eb"/>
  <circle cx="786.00" cy="299.97" r="2.5" fill="#2563eb"/>
  <circle cx="788.00" cy="299.97" r="2.5" fill="#2563eb"/>
  <circle cx="790.00" cy="300.01" r="2.5" fill="#2563eb"/>
  <circle cx="792.00" cy="300.01" r="2.5" fill="#2563eb"/>
  <circle cx="794.00" cy="299.97" r="2.5" fill="#2563eb"/>
  <circle cx="796.00" cy="299.97" r="2.5" fill="#2563eb"/>
  <circle cx="798.00" cy="299.97" r="2.5" fill="#2563eb"/>
  <circle cx="800.00" cy="250.03" r="2.5" fill="#2563eb"/>
  <circle cx="802.00" cy="299.93" r="2.5" fill="#2563eb"/>
  <circle cx="804.00" cy="300.01" r="2.5" fill="#2563eb"/>
  <circle cx="806.00" cy="300.01" r="2.5" fill="#2563eb"/>
  <circle cx="808.00" cy="299.93" r="2.5" fill="#2563eb"/>
  <circle cx="810.00" cy="300.01" r="2.5" fill="#2563eb"/>
  <circle cx="812.00" cy="300.01" r="2.5" fill="#2563eb"/>
  <circle cx="814.00" cy="299.97" r="2.5" fill="#2563eb"/>
  <circle cx="816.00" cy="300.01" r="2.5" fill="#2563eb"/>
  <circle cx="818.00" cy="300.01" r="2.5" fill="#2563eb"/>
  <circle cx="820.00" cy="300.06" r="2.5" fill="#2563eb"/>
  <circle cx="822.00" cy="300.01" r="2.5" fill="#2563eb"/>
  <circle cx="824.00" cy="299.97" r="2.5" fill="#2563eb"/>
  <circle cx="826.00" cy="299.89" r="2.5" fill="#2563eb"/>
  <circle cx="828.00" cy="300.01" r="2.5" fill="#2563eb"/>
  <circle cx="830.00" cy="300.01" r="2.5" fill="#2563eb"/>
  <circle cx="832.00" cy="249.94" r="2.5" fill="#2563eb"/>
  <circle cx="834.00" cy="249.94" r="2.5" fill="#2563eb"/>
  <circle cx="836.00" cy="300.01" r="2.5" fill="#2563eb"/>
  <circle cx="838.00" cy="300.01" r="2.5" fill="#2563eb"/>
  <circle cx="840.00" cy="300.01" r="2.5" fill="#2563eb"/>
  <circle cx="842.00" cy="300.01" r="2.5" fill="#2563eb"/>
  <circle cx="844.00" cy="299.97" r="2.5" fill="#2563eb"/>
  <circle cx="846.00" cy="250.03" r="2.5" fill="#2563eb"/>
  <circle cx="848.00" cy="300.01" r="2.5" fill="#2563eb"/>
  <circle cx="850.00" cy="300.01" r="2.5" fill="#2563eb"/>
  <circle cx="852.00" cy="300.01" r="2.5" fill="#2563eb"/>
  <circle cx="854.00" cy="300.01" r="2.5" fill="#2563eb"/>
  <circle cx="856.00" cy="250.03" r="2.5" fill="#2563eb"/>
  <circle cx="858.00" cy="249.99" r="2.5" fill="#2563eb"/>
  <circle cx="860.00" cy="300.01" r="2.5" fill="#2563eb"/>
  <circle cx="862.00" cy="299.97" r="2.5" fill="#2563eb"/>
  <circle cx="864.00" cy="300.01" r="2.5" fill="#2563eb"/>
  <circle cx="866.00" cy="299.97" r="2.5" fill="#2563eb"/>
  <circle cx="868.00" cy="300.01" r="2.5" fill="#2563eb"/>
  <circle cx="870.00" cy="299.97" r="2.5" fill="#2563eb"/>
  <circle cx="872.00" cy="299.97" r="2.5" fill="#2563eb"/>
  <circle cx="874.00" cy="299.97" r="2.5" fill="#2563eb"/>
  <circle cx="876.00" cy="300.06" r="2.5" fill="#2563eb"/>
  <circle cx="878.00" cy="249.99" r="2.5" fill="#2563eb"/>
  <circle cx="880.00" cy="300.01" r="2.5" fill="#2563eb"/>
  <circle cx="882.00" cy="250.03" r="2.5" fill="#2563eb"/>
  <circle cx="884.00" cy="249.94" r="2.5" fill="#2563eb"/>
  <circle cx="886.00" cy="249.99" r="2.5" fill="#2563eb"/>
  <circle cx="888.00" cy="300.01" r="2.5" fill="#2563eb"/>
  <circle cx="890.00" cy="300.06" r="2.5" fill="#2563eb"/>
  <circle cx="892.00" cy="300.01" r="2.5" fill="#2563eb"/>
  <circle cx="894.00" cy="299.97" r="2.5" fill="#2563eb"/>
  <circle cx="896.00" cy="299.97" r="2.5" fill="#2563eb"/>
  <circle cx="898.00" cy="300.01" r="2.5" fill="#2563eb"/>
  <circle cx="900.00" cy="299.93" r="2.5" fill="#2563eb"/>
  <circle cx="902.00" cy="299.89" r="2.5" fill="#2563eb"/>
  <circle cx="904.00" cy="299.89" r="2.5" fill="#2563eb"/>
  <circle cx="906.00" cy="299.89" r="2.5" fill="#2563eb"/>
  <circle cx="908.00" cy="299.89" r="2.5" fill="#2563eb"/>
  <circle cx="910.00" cy="299.85" r="2.5" fill="#2563eb"/>
  <circle cx="912.00" cy="299.85" r="2.5" fill="#2563eb"/>
  <circle cx="914.00" cy="299.89" r="2.5" fill="#2563eb"/>
  <circle cx="916.00" cy="299.81" r="2.5" fill="#2563eb"/>
  <circle cx="918.00" cy="299.81" r="2.5" fill="#2563eb"/>
  <circle cx="920.00" cy="299.81" r="2.5" fill="#2563eb"/>
  <circle cx="922.00" cy="299.76" r="2.5" fill="#2563eb"/>
  <circle cx="924.00" cy="299.76" r="2.5" fill="#2563eb"/>
  <circle cx="926.00" cy="299.76" r="2.5" fill="#2563eb"/>
  <circle cx="928.00" cy="299.72" r="2.5" fill="#2563eb"/>
  <circle cx="930.00" cy="299.68" r="2.5" fill="#2563eb"/>
  <circle cx="932.00" cy="299.60" r="2.5" fill="#2563eb"/>
  <circle cx="934.00" cy="299.60" r="2.5" fill="#2563eb"/>
  <circle cx="936.00" cy="299.60" r="2.5" fill="#2563eb"/>
  <circle cx="938.00" cy="299.56" r="2.5" fill="#2563eb"/>
  <circle cx="940.00" cy="299.47" r="2.5" fill="#2563eb"/>
  <circle cx="942.00" cy="299.43" r="2.5" fill="#2563eb"/>
  <circle cx="944.00" cy="299.43" r="2.5" fill="#2563eb"/>
  <circle cx="946.00" cy="299.39" r="2.5" fill="#2563eb"/>
  <circle cx="948.00" cy="299.47" r="2.5" fill="#2563eb"/>
  <circle cx="950.00" cy="259.82" r="2.5" fill="#2563eb"/>
  <circle cx="952.00" cy="338.96" r="2.5" fill="#2563eb"/>
  <circle cx="954.00" cy="299.31" r="2.5" fill="#2563eb"/>
  <circle cx="956.00" cy="299.31" r="2.5" fill="#2563eb"/>
  <circle cx="958.00" cy="299.26" r="2.5" fill="#2563eb"/>
  <circle cx="960.00" cy="299.68" r="2.5" fill="#2563eb"/>
  <circle cx="962.00" cy="299.68" r="2.5" fill="#2563eb"/>
  <circle cx="964.00" cy="299.68" r="2.5" fill="#2563eb"/>
  <circle cx="966.00" cy="299.64" r="2.5" fill="#2563eb"/>
  <circle cx="968.00" cy="299.14" r="2.5" fill="#2563eb"/>
  <circle cx="970.00" cy="299.14" r="2.5" fill="#2563eb"/>
  <circle cx="972.00" cy="299.10" r="2.5" fill="#2563eb"/>
  <circle cx="974.00" cy="299.10" r="2.5" fill="#2563eb"/>
  <circle cx="976.00" cy="299.10" r="2.5" fill="#2563eb"/>
  <circle cx="978.00" cy="248.07" r="2.5" fill="#2563eb"/>
  <circle cx="980.00" cy="299.06" r="2.5" fill="#2563eb"/>
</svg>
