<?xml version="1.0" encoding="UTF-8"?>
<svg xmlns="http://www.w3.org/2000/svg" width="1000" height="420" viewBox="0 0 1000 420">
  <rect width="100%" height="100%" fill="#ffffff"/>
  <text x="70" y="28" font-size="20" font-weight="600">수집 시점 기준 - 시간별 스냅샷</text>
  <text x="70" y="402" font-size="12" fill="#555">스냅샷 수</text>
  <line x1="70" y1="350.00" x2="980" y2="350.00" stroke="#e5e7eb" stroke-width="1"/>
  <text x="62" y="354.00" font-size="11" fill="#6b7280" text-anchor="end">0</text>
  <line x1="70" y1="290.00" x2="980" y2="290.00" stroke="#e5e7eb" stroke-width="1"/>
  <text x="62" y="294.00" font-size="11" fill="#6b7280" text-anchor="end">1,440</text>
  <line x1="70" y1="230.00" x2="980" y2="230.00" stroke="#e5e7eb" stroke-width="1"/>
  <text x="62" y="234.00" font-size="11" fill="#6b7280" text-anchor="end">2,880</text>
  <line x1="70" y1="170.00" x2="980" y2="170.00" stroke="#e5e7eb" stroke-width="1"/>
  <text x="62" y="174.00" font-size="11" fill="#6b7280" text-anchor="end">4,321</text>
  <line x1="70" y1="110.00" x2="980" y2="110.00" stroke="#e5e7eb" stroke-width="1"/>
  <text x="62" y="114.00" font-size="11" fill="#6b7280" text-anchor="end">5,761</text>
  <line x1="70" y1="50.00" x2="980" y2="50.00" stroke="#e5e7eb" stroke-width="1"/>
  <text x="62" y="54.00" font-size="11" fill="#6b7280" text-anchor="end">7,202</text>
  <line x1="70" y1="350" x2="980" y2="350" stroke="#111827" stroke-width="1.2"/>
  <line x1="70" y1="50" x2="70" y2="350" stroke="#111827" stroke-width="1.2"/>
  <line x1="70.00" y1="350" x2="70.00" y2="356" stroke="#9ca3af" stroke-width="1"/>
  <text x="70.00" y="372" font-size="10" fill="#6b7280" text-anchor="middle">2026-02-28 18</text>
  <line x1="144.99" y1="350" x2="144.99" y2="356" stroke="#9ca3af" stroke-width="1"/>
  <text x="144.99" y="372" font-size="10" fill="#6b7280" text-anchor="middle">2026-03-09 16</text>
  <line x1="219.97" y1="350" x2="219.97" y2="356" stroke="#9ca3af" stroke-width="1"/>
  <text x="219.97" y="372" font-size="10" fill="#6b7280" text-anchor="middle">2026-03-12 07</text>
  <line x1="294.96" y1="350" x2="294.96" y2="356" stroke="#9ca3af" stroke-width="1"/>
  <text x="294.96" y="372" font-size="10" fill="#6b7280" text-anchor="middle">2026-03-15 05</text>
  <line x1="369.94" y1="350" x2="369.94" y2="356" stroke="#9ca3af" stroke-width="1"/>
  <text x="369.94" y="372" font-size="10" fill="#6b7280" text-anchor="middle">2026-03-19 04</text>
  <line x1="444.93" y1="350" x2="444.93" y2="356" stroke="#9ca3af" stroke-width="1"/>
  <text x="444.93" y="372" font-size="10" fill="#6b7280" text-anchor="middle">2026-03-22 15</text>
  <line x1="519.92" y1="350" x2="519.92" y2="356" stroke="#9ca3af" stroke-width="1"/>
  <text x="519.92" y="372" font-size="10" fill="#6b7280" text-anchor="middle">2026-03-26 08</text>
  <line x1="594.90" y1="350" x2="594.90" y2="356" stroke="#9ca3af" stroke-width="1"/>
  <text x="594.90" y="372" font-size="10" fill="#6b7280" text-anchor="middle">2026-03-30 12</text>
  <line x1="669.89" y1="350" x2="669.89" y2="356" stroke="#9ca3af" stroke-width="1"/>
  <text x="669.89" y="372" font-size="10" fill="#6b7280" text-anchor="middle">2026-04-03 16</text>
  <line x1="744.87" y1="350" x2="744.87" y2="356" stroke="#9ca3af" stroke-width="1"/>
  <text x="744.87" y="372" font-size="10" fill="#6b7280" text-anchor="middle">2026-04-07 12</text>
  <line x1="819.86" y1="350" x2="819.86" y2="356" stroke="#9ca3af" stroke-width="1"/>
  <text x="819.86" y="372" font-size="10" fill="#6b7280" text-anchor="middle">2026-04-11 15</text>
  <line x1="894.85" y1="350" x2="894.85" y2="356" stroke="#9ca3af" stroke-width="1"/>
  <text x="894.85" y="372" font-size="10" fill="#6b7280" text-anchor="middle">2026-04-16 04</text>
  <line x1="969.83" y1="350" x2="969.83" y2="356" stroke="#9ca3af" stroke-width="1"/>
  <text x="969.83" y="372" font-size="10" fill="#6b7280" text-anchor="middle">2026-04-20 04</text>
  <line x1="980.00" y1="350" x2="980.00" y2="356" stroke="#9ca3af" stroke-width="1"/>
  <text x="980.00" y="372" font-size="10" fill="#6b7280" text-anchor="middle">2026-04-20 18</text>
  <polyline fill="none" stroke="#2563eb" stroke-width="2.5" points="70.00,50.00 71.27,50.12 72.54,50.17 73.81,50.46 75.08,50.00 76.35,266.90 77.63,50.12 78.90,50.08 80.17,177.46 81.44,211.58 82.71,175.34 83.98,304.14 85.25,200.46 86.52,250.94 87.79,300.01 89.06,300.06 90.34,300.01 91.61,300.01 92.88,348.00 94.15,300.01 95.42,249.99 96.69,200.00 97.96,249.99 99.23,249.99 100.50,250.03 101.77,250.03 103.04,250.03 104.32,250.40 105.59,250.90 106.86,250.90 108.13,251.32 109.40,249.94 110.67,300.01 111.94,299.93 113.21,251.03 114.48,300.68 115.75,250.03 117.03,200.00 118.30,249.99 119.57,250.03 120.84,250.03 122.11,250.03 123.38,300.01 124.65,200.04 125.92,250.03 127.19,250.03 128.46,250.03 129.73,249.90 131.01,250.03 132.28,250.03 133.55,250.94 134.82,250.44 136.09,250.03 137.36,250.03 138.63,300.47 139.90,300.01 141.17,300.43 142.44,250.03 143.72,249.99 144.99,300.43 146.26,249.90 147.53,249.99 148.80,249.99 150.07,200.04 151.34,300.01 152.61,300.01 153.88,300.01 155.15,249.90 156.42,300.01 157.70,250.03 158.97,249.99 160.24,199.96 161.51,300.01 162.78,200.00 164.05,250.36 165.32,250.03 166.59,300.01 167.86,300.01 169.13,250.44 170.41,300.01 171.68,250.03 172.95,250.03 174.22,249.99 175.49,250.49 176.76,250.03 178.03,200.04 179.30,300.01 180.57,250.03 181.84,300.01 183.11,250.11 184.39,300.01 185.66,250.03 186.93,250.03 188.20,199.92 189.47,250.03 190.74,250.03 192.01,250.03 193.28,254.36 194.55,300.01 195.82,299.97 197.09,250.36 198.37,299.97 199.64,250.03 200.91,250.03 202.18,250.03 203.45,250.03 204.72,249.99 205.99,200.00 207.26,299.93 208.53,300.01 209.80,299.97 211.08,249.94 212.35,249.99 213.62,249.82 214.89,249.94 216.16,250.28 217.43,207.00 218.70,250.03 219.97,250.32 221.24,250.40 222.51,300.93 223.78,300.01 225.06,300.10 226.33,249.94 227.60,249.99 228.87,250.07 230.14,249.99 231.41,250.03 232.68,249.94 233.95,200.00 235.22,300.39 236.49,300.01 237.77,300.01 239.04,250.44 240.31,300.39 241.58,249.86 242.85,250.11 244.12,201.46 245.39,300.01 246.66,200.83 247.93,250.03 249.20,249.99 250.47,300.26 251.75,300.01 253.02,300.01 254.29,250.03 255.56,250.03 256.83,250.03 258.10,250.03 259.37,249.99 260.64,250.03 261.91,200.00 263.18,300.26 264.46,249.99 265.73,300.01 267.00,249.94 268.27,250.03 269.54,250.03 270.81,250.03 272.08,200.04 273.35,300.01 274.62,249.90 275.89,300.01 277.16,300.01 278.44,300.06 279.71,300.01 280.98,300.01 282.25,243.95 283.52,249.94 284.79,299.97 286.06,300.01 287.33,300.01 288.60,250.03 289.87,300.01 291.15,300.01 292.42,299.97 293.69,249.99 294.96,300.01 296.23,299.93 297.50,300.01 298.77,299.93 300.04,300.01 301.31,300.01 302.58,299.89 303.85,299.97 305.13,250.03 306.40,299.93 307.67,299.89 308.94,299.97 310.21,249.94 311.48,300.01 312.75,300.01 314.02,299.97 315.29,249.99 316.56,299.97 317.84,299.97 319.11,300.06 320.38,300.06 321.65,299.93 322.92,300.01 324.19,300.01 325.46,299.93 326.73,300.01 328.00,300.01 329.27,299.97 330.54,300.01 331.82,300.01 333.09,300.01 334.36,300.01 335.63,249.86 336.90,300.01 338.17,300.10 339.44,299.93 340.71,300.01 341.98,299.93 343.25,300.01 344.53,300.01 345.80,300.01 347.07,300.01 348.34,300.01 349.61,299.97 350.88,300.01 352.15,300.01 353.42,300.01 354.69,300.01 355.96,250.03 357.23,300.01 358.51,300.01 359.78,299.97 361.05,300.01 362.32,300.01 363.59,299.97 364.86,299.97 366.13,300.01 367.40,299.97 368.67,300.01 369.94,299.93 371.22,300.01 372.49,250.03 373.76,300.01 375.03,300.01 376.30,300.01 377.57,300.01 378.84,300.01 380.11,299.89 381.38,300.01 382.65,300.01 383.92,250.07 385.20,300.01 386.47,299.93 387.74,300.01 389.01,299.97 390.28,299.97 391.55,299.97 392.82,250.03 394.09,300.01 395.36,300.01 396.63,300.01 397.91,300.01 399.18,299.97 400.45,300.01 401.72,299.97 402.99,300.01 404.26,299.97 405.53,249.90 406.80,300.01 408.07,300.01 409.34,299.89 410.61,299.97 411.89,299.97 413.16,249.99 414.43,299.97 415.70,299.89 416.97,300.01 418.24,299.97 419.51,299.97 420.78,300.01 422.05,299.97 423.32,249.99 424.59,299.97 425.87,299.97 427.14,300.06 428.41,300.06 429.68,249.94 430.95,300.01 432.22,299.93 433.49,300.01 434.76,300.01 436.03,249.99 437.30,300.01 438.58,300.01 439.85,300.01 441.12,299.93 442.39,299.93 443.66,300.01 444.93,300.01 446.20,249.94 447.47,299.97 448.74,299.97 450.01,300.01 451.28,300.01 452.56,300.01 453.83,249.99 455.10,300.01 456.37,300.01 457.64,300.01 458.91,250.03 460.18,300.01 461.45,300.01 462.72,300.01 463.99,299.97 465.27,300.01 466.54,300.01 467.81,299.97 469.08,299.97 470.35,300.01 471.62,300.01 472.89,299.97 474.16,299.93 475.43,300.01 476.70,300.06 477.97,299.97 479.25,300.01 480.52,250.03 481.79,250.03 483.06,299.93 484.33,299.97 485.60,300.01 486.87,300.01 488.14,300.06 489.41,300.01 490.68,299.93 491.96,300.01 493.23,300.01 494.50,299.97 495.77,299.97 497.04,300.01 498.31,250.03 499.58,300.01 500.85,300.01 502.12,300.01 503.39,299.97 504.66,300.01 505.94,299.97 507.21,300.01 508.48,299.97 509.75,299.97 511.02,299.93 512.29,300.01 513.56,300.01 514.83,299.89 516.10,299.97 517.37,299.97 518.65,300.06 519.92,249.90 521.19,299.89 522.46,300.01 523.73,299.97 525.00,299.97 526.27,299.97 527.54,300.01 528.81,300.01 530.08,299.97 531.35,299.97 532.63,299.97 533.90,250.03 535.17,299.93 536.44,300.01 537.71,300.01 538.98,299.93 540.25,300.01 541.52,300.01 542.79,299.97 544.06,300.01 545.34,300.01 546.61,300.06 547.88,300.01 549.15,299.97 550.42,299.89 551.69,300.01 552.96,300.01 554.23,249.94 555.50,249.94 556.77,300.01 558.04,300.01 559.32,300.01 560.59,300.01 561.86,299.97 563.13,250.03 564.40,300.01 565.67,300.01 566.94,300.01 568.21,300.01 569.48,250.03 570.75,249.99 572.03,300.01 573.30,299.97 574.57,300.01 575.84,299.97 577.11,300.01 578.38,299.97 579.65,299.97 580.92,299.97 582.19,300.06 583.46,249.99 584.73,300.01 586.01,250.03 587.28,249.94 588.55,249.99 589.82,300.01 591.09,300.06 592.36,300.01 593.63,299.97 594.90,299.97 596.17,300.01 597.44,299.93 598.72,299.89 599.99,299.89 601.26,299.89 602.53,299.89 603.80,299.85 605.07,299.85 606.34,299.89 607.61,299.81 608.88,299.81 610.15,299.81 611.42,299.76 612.70,299.76 613.97,299.76 615.24,299.72 616.51,299.68 617.78,299.60 619.05,299.60 620.32,299.60 621.59,299.56 622.86,299.47 624.13,299.43 625.41,299.43 626.68,299.39 627.95,299.47 629.22,259.82 630.49,338.96 631.76,299.31 633.03,299.31 634.30,299.26 635.57,299.68 636.84,299.68 638.11,299.68 639.39,299.64 640.66,299.14 641.93,299.14 643.20,299.10 644.47,299.10 645.74,299.10 647.01,248.07 648.28,299.06 649.55,299.06 650.82,299.06 652.09,299.06 653.37,299.06 654.64,298.97 655.91,298.97 657.18,298.93 658.45,298.97 659.72,298.93 660.99,298.89 662.26,298.89 663.53,298.89 664.80,298.89 666.08,247.78 667.35,298.89 668.62,298.89 669.89,298.85 671.16,298.85 672.43,298.81 673.70,298.81 674.97,298.81 676.24,298.81 677.51,298.81 678.78,298.81 680.06,298.81 681.33,298.81 682.60,298.81 683.87,298.72 685.14,247.45 686.41,247.45 687.68,298.72 688.95,298.72 690.22,298.72 691.49,298.72 692.77,298.72 694.04,298.72 695.31,247.36 696.58,298.68 697.85,247.36 699.12,247.36 700.39,247.36 701.66,298.68 702.93,298.68 704.20,298.68 705.47,298.68 706.75,298.68 708.02,341.67 709.29,307.01 710.56,298.68 711.83,298.68 713.10,298.68 714.37,247.36 715.64,298.64 716.91,247.36 718.18,247.28 719.46,247.20 720.73,298.60 722.00,298.60 723.27,247.03 724.54,298.51 725.81,298.51 727.08,298.51 728.35,298.51 729.62,298.51 730.89,298.51 732.16,298.51 733.44,298.51 734.71,298.51 735.98,298.51 737.25,298.51 738.52,298.51 739.79,298.51 741.06,298.51 742.33,298.51 743.60,298.51 744.87,298.51 746.15,298.51 747.42,298.51 748.69,298.51 749.96,298.51 751.23,298.51 752.50,298.51 753.77,298.51 755.04,298.51 756.31,298.51 757.58,298.47 758.85,298.51 760.13,298.51 761.40,298.47 762.67,298.51 763.94,298.47 765.21,298.51 766.48,298.43 767.75,298.56 769.02,298.43 770.29,298.43 771.56,298.43 772.84,298.43 774.11,298.43 775.38,298.43 776.65,298.43 777.92,298.43 779.19,298.43 780.46,298.43 781.73,298.43 783.00,298.43 784.27,298.43 785.54,298.43 786.82,298.43 788.09,298.43 789.36,298.43 790.63,298.43 791.90,298.43 793.17,298.43 794.44,298.43 795.71,298.43 796.98,298.43 798.25,298.43 799.53,298.43 800.80,298.43 802.07,298.43 803.34,298.43 804.61,298.43 805.88,298.43 807.15,298.43 808.42,298.43 809.69,298.43 810.96,298.43 812.23,298.39 813.51,298.39 814.78,298.43 816.05,298.43 817.32,298.39 818.59,298.39 819.86,298.39 821.13,298.43 822.40,298.43 823.67,298.43 824.94,246.82 826.22,298.43 827.49,246.78 828.76,246.78 830.03,246.78 831.30,246.70 832.57,246.78 833.84,298.39 835.11,298.39 836.38,298.39 837.65,298.39 838.92,298.39 840.20,246.78 841.47,298.39 842.74,298.39 844.01,298.39 845.28,298.39 846.55,298.39 847.82,246.78 849.09,246.78 850.36,298.39 851.63,298.39 852.91,298.39 854.18,298.39 855.45,298.39 856.72,298.39 857.99,298.39 859.26,298.39 860.53,298.39 861.80,298.39 863.07,298.39 864.34,298.39 865.61,298.39 866.89,298.39 868.16,298.35 869.43,298.39 870.70,298.39 871.97,298.35 873.24,298.35 874.51,298.35 875.78,298.35 877.05,298.35 878.32,298.35 879.59,298.35 880.87,298.35 882.14,298.35 883.41,298.35 884.68,298.35 885.95,298.35 887.22,298.35 888.49,298.35 889.76,298.35 891.03,298.35 892.30,298.35 893.58,298.35 894.85,298.35 896.12,298.35 897.39,298.35 898.66,298.35 899.93,298.35 901.20,298.35 902.47,298.35 903.74,298.35 905.01,298.35 906.28,298.35 907.56,298.35 908.83,298.35 910.10,298.35 911.37,298.35 912.64,298.35 913.91,298.35 915.18,298.35 916.45,298.35 917.72,298.35 918.99,298.35 920.27,298.35 921.54,298.35 922.81,298.35 924.08,298.35 925.35,298.35 926.62,298.35 927.89,298.35 929.16,298.35 930.43,298.35 931.70,298.35 932.97,298.35 934.25,298.35 935.52,298.35 936.79,298.35 938.06,298.39 939.33,298.39 940.60,298.39 941.87,246.78 943.14,298.39 944.41,298.39 945.68,298.39 946.96,298.39 948.23,298.39 949.50,298.39 950.77,298.39 952.04,246.78 953.31,298.39 954.58,298.39 955.85,298.39 957.12,298.39 958.39,298.39 959.66,298.39 960.94,298.39 962.21,246.78 963.48,298.39 964.75,298.39 966.02,298.39 967.29,298.39 968.56,298.39 969.83,298.39 971.10,298.39 972.37,298.39 973.65,298.39 974.92,298.39 976.19,298.39 977.46,298.35 978.73,298.39 980.00,298.39"/>
  <circle cx="70.00" cy="50.00" r="2.5" fill="#2563eb"/>
  <circle cx="71.27" cy="50.12" r="2.5" fill="#2563eb"/>
  <circle cx="72.54" cy="50.17" r="2.5" fill="#2563eb"/>
  <circle cx="73.81" cy="50.46" r="2.5" fill="#2563eb"/>
  <circle cx="75.08" cy="50.00" r="2.5" fill="#2563eb"/>
  <circle cx="76.35" cy="266.90" r="2.5" fill="#2563eb"/>
  <circle cx="77.63" cy="50.12" r="2.5" fill="#2563eb"/>
  <circle cx="78.90" cy="50.08" r="2.5" fill="#2563eb"/>
  <circle cx="80.17" cy="177.46" r="2.5" fill="#2563eb"/>
  <circle cx="81.44" cy="211.58" r="2.5" fill="#2563eb"/>
  <circle cx="82.71" cy="175.34" r="2.5" fill="#2563eb"/>
  <circle cx="83.98" cy="304.14" r="2.5" fill="#2563eb"/>
  <circle cx="85.25" cy="200.46" r="2.5" fill="#2563eb"/>
  <circle cx="86.52" cy="250.94" r="2.5" fill="#2563eb"/>
  <circle cx="87.79" cy="300.01" r="2.5" fill="#2563eb"/>
  <circle cx="89.06" cy="300.06" r="2.5" fill="#2563eb"/>
  <circle cx="90.34" cy="300.01" r="2.5" fill="#2563eb"/>
  <circle cx="91.61" cy="300.01" r="2.5" fill="#2563eb"/>
  <circle cx="92.88" cy="348.00" r="2.5" fill="#2563eb"/>
  <circle cx="94.15" cy="300.01" r="2.5" fill="#2563eb"/>
  <circle cx="95.42" cy="249.99" r="2.5" fill="#2563eb"/>
  <circle cx="96.69" cy="200.00" r="2.5" fill="#2563eb"/>
  <circle cx="97.96" cy="249.99" r="2.5" fill="#2563eb"/>
  <circle cx="99.23" cy="249.99" r="2.5" fill="#2563eb"/>
  <circle cx="100.50" cy="250.03" r="2.5" fill="#2563eb"/>
  <circle cx="101.77" cy="250.03" r="2.5" fill="#2563eb"/>
  <circle cx="103.04" cy="250.03" r="2.5" fill="#2563eb"/>
  <circle cx="104.32" cy="250.40" r="2.5" fill="#2563eb"/>
  <circle cx="105.59" cy="250.90" r="2.5" fill="#2563eb"/>
  <circle cx="106.86" cy="250.90" r="2.5" fill="#2563eb"/>
  <circle cx="108.13" cy="251.32" r="2.5" fill="#2563eb"/>
  <circle cx="109.40" cy="249.94" r="2.5" fill="#2563eb"/>
  <circle cx="110.67" cy="300.01" r="2.5" fill="#2563eb"/>
  <circle cx="111.94" cy="299.93" r="2.5" fill="#2563eb"/>
  <circle cx="113.21" cy="251.03" r="2.5" fill="#2563eb"/>
  <circle cx="114.48" cy="300.68" r="2.5" fill="#2563eb"/>
  <circle cx="115.75" cy="250.03" r="2.5" fill="#2563eb"/>
  <circle cx="117.03" cy="200.00" r="2.5" fill="#2563eb"/>
  <circle cx="118.30" cy="249.99" r="2.5" fill="#2563eb"/>
  <circle cx="119.57" cy="250.03" r="2.5" fill="#2563eb"/>
  <circle cx="120.84" cy="250.03" r="2.5" fill="#2563eb"/>
  <circle cx="122.11" cy="250.03" r="2.5" fill="#2563eb"/>
  <circle cx="123.38" cy="300.01" r="2.5" fill="#2563eb"/>
  <circle cx="124.65" cy="200.04" r="2.5" fill="#2563eb"/>
  <circle cx="125.92" cy="250.03" r="2.5" fill="#2563eb"/>
  <circle cx="127.19" cy="250.03" r="2.5" fill="#2563eb"/>
  <circle cx="128.46" cy="250.03" r="2.5" fill="#2563eb"/>
  <circle cx="129.73" cy="249.90" r="2.5" fill="#2563eb"/>
  <circle cx="131.01" cy="250.03" r="2.5" fill="#2563eb"/>
  <circle cx="132.28" cy="250.03" r="2.5" fill="#2563eb"/>
  <circle cx="133.55" cy="250.94" r="2.5" fill="#2563eb"/>
  <circle cx="134.82" cy="250.44" r="2.5" fill="#2563eb"/>
  <circle cx="136.09" cy="250.03" r="2.5" fill="#2563eb"/>
  <circle cx="137.36" cy="250.03" r="2.5" fill="#2563eb"/>
  <circle cx="138.63" cy="300.47" r="2.5" fill="#2563eb"/>
  <circle cx="139.90" cy="300.01" r="2.5" fill="#2563eb"/>
  <circle cx="141.17" cy="300.43" r="2.5" fill="#2563eb"/>
  <circle cx="142.44" cy="250.03" r="2.5" fill="#2563eb"/>
  <circle cx="143.72" cy="249.99" r="2.5" fill="#2563eb"/>
  <circle cx="144.99" cy="300.43" r="2.5" fill="#2563eb"/>
  <circle cx="146.26" cy="249.90" r="2.5" fill="#2563eb"/>
  <circle cx="147.53" cy="249.99" r="2.5" fill="#2563eb"/>
  <circle cx="148.80" cy="249.99" r="2.5" fill="#2563eb"/>
  <circle cx="150.07" cy="200.04" r="2.5" fill="#2563eb"/>
  <circle cx="151.34" cy="300.01" r="2.5" fill="#2563eb"/>
  <circle cx="152.61" cy="300.01" r="2.5" fill="#2563eb"/>
  <circle cx="153.88" cy="300.01" r="2.5" fill="#2563eb"/>
  <circle cx="155.15" cy="249.90" r="2.5" fill="#2563eb"/>
  <circle cx="156.42" cy="300.01" r="2.5" fill="#2563eb"/>
  <circle cx="157.70" cy="250.03" r="2.5" fill="#2563eb"/>
  <circle cx="158.97" cy="249.99" r="2.5" fill="#2563eb"/>
  <circle cx="160.24" cy="199.96" r="2.5" fill="#2563eb"/>
  <circle cx="161.51" cy="300.01" r="2.5" fill="#2563eb"/>
  <circle cx="162.78" cy="200.00" r="2.5" fill="#2563eb"/>
  <circle cx="164.05" cy="250.36" r="2.5" fill="#2563eb"/>
  <circle cx="165.32" cy="250.03" r="2.5" fill="#2563eb"/>
  <circle cx="166.59" cy="300.01" r="2.5" fill="#2563eb"/>
  <circle cx="167.86" cy="300.01" r="2.5" fill="#2563eb"/>
  <circle cx="169.13" cy="250.44" r="2.5" fill="#2563eb"/>
  <circle cx="170.41" cy="300.01" r="2.5" fill="#2563eb"/>
  <circle cx="171.68" cy="250.03" r="2.5" fill="#2563eb"/>
  <circle cx="172.95" cy="250.03" r="2.5" fill="#2563eb"/>
  <circle cx="174.22" cy="249.99" r="2.5" fill="#2563eb"/>
  <circle cx="175.49" cy="250.49" r="2.5" fill="#2563eb"/>
  <circle cx="176.76" cy="250.03" r="2.5" fill="#2563eb"/>
  <circle cx="178.03" cy="200.04" r="2.5" fill="#2563eb"/>
  <circle cx="179.30" cy="300.01" r="2.5" fill="#2563eb"/>
  <circle cx="180.57" cy="250.03" r="2.5" fill="#2563eb"/>
  <circle cx="181.84" cy="300.01" r="2.5" fill="#2563eb"/>
  <circle cx="183.11" cy="250.11" r="2.5" fill="#2563eb"/>
  <circle cx="184.39" cy="300.01" r="2.5" fill="#2563eb"/>
  <circle cx="185.66" cy="250.03" r="2.5" fill="#2563eb"/>
  <circle cx="186.93" cy="250.03" r="2.5" fill="#2563eb"/>
  <circle cx="188.20" cy="199.92" r="2.5" fill="#2563eb"/>
  <circle cx="189.47" cy="250.03" r="2.5" fill="#2563eb"/>
  <circle cx="190.74" cy="250.03" r="2.5" fill="#2563eb"/>
  <circle cx="192.01" cy="250.03" r="2.5" fill="#2563eb"/>
  <circle cx="193.28" cy="254.36" r="2.5" fill="#2563eb"/>
  <circle cx="194.55" cy="300.01" r="2.5" fill="#2563eb"/>
  <circle cx="195.82" cy="299.97" r="2.5" fill="#2563eb"/>
  <circle cx="197.09" cy="250.36" r="2.5" fill="#2563eb"/>
  <circle cx="198.37" cy="299.97" r="2.5" fill="#2563eb"/>
  <circle cx="199.64" cy="250.03" r="2.5" fill="#2563eb"/>
  <circle cx="200.91" cy="250.03" r="2.5" fill="#2563eb"/>
  <circle cx="202.18" cy="250.03" r="2.5" fill="#2563eb"/>
  <circle cx="203.45" cy="250.03" r="2.5" fill="#2563eb"/>
  <circle cx="204.72" cy="249.99" r="2.5" fill="#2563eb"/>
  <circle cx="205.99" cy="200.00" r="2.5" fill="#2563eb"/>
  <circle cx="207.26" cy="299.93" r="2.5" fill="#2563eb"/>
  <circle cx="208.53" cy="300.01" r="2.5" fill="#2563eb"/>
  <circle cx="209.80" cy="299.97" r="2.5" fill="#2563eb"/>
  <circle cx="211.08" cy="249.94" r="2.5" fill="#2563eb"/>
  <circle cx="212.35" cy="249.99" r="2.5" fill="#2563eb"/>
  <circle cx="213.62" cy="249.82" r="2.5" fill="#2563eb"/>
  <circle cx="214.89" cy="249.94" r="2.5" fill="#2563eb"/>
  <circle cx="216.16" cy="250.28" r="2.5" fill="#2563eb"/>
  <circle cx="217.43" cy="207.00" r="2.5" fill="#2563eb"/>
  <circle cx="218.70" cy="250.03" r="2.5" fill="#2563eb"/>
  <circle cx="219.97" cy="250.32" r="2.5" fill="#2563eb"/>
  <circle cx="221.24" cy="250.40" r="2.5" fill="#2563eb"/>
  <circle cx="222.51" cy="300.93" r="2.5" fill="#2563eb"/>
  <circle cx="223.78" cy="300.01" r="2.5" fill="#2563eb"/>
  <circle cx="225.06" cy="300.10" r="2.5" fill="#2563eb"/>
  <circle cx="226.33" cy="249.94" r="2.5" fill="#2563eb"/>
  <circle cx="227.60" cy="249.99" r="2.5" fill="#2563eb"/>
  <circle cx="228.87" cy="250.07" r="2.5" fill="#2563eb"/>
  <circle cx="230.14" cy="249.99" r="2.5" fill="#2563eb"/>
  <circle cx="231.41" cy="250.03" r="2.5" fill="#2563eb"/>
  <circle cx="232.68" cy="249.94" r="2.5" fill="#2563eb"/>
  <circle cx="233.95" cy="200.00" r="2.5" fill="#2563eb"/>
  <circle cx="235.22" cy="300.39" r="2.5" fill="#2563eb"/>
  <circle cx="236.49" cy="300.01" r="2.5" fill="#2563eb"/>
  <circle cx="237.77" cy="300.01" r="2.5" fill="#2563eb"/>
  <circle cx="239.04" cy="250.44" r="2.5" fill="#2563eb"/>
  <circle cx="240.31" cy="300.39" r="2.5" fill="#2563eb"/>
  <circle cx="241.58" cy="249.86" r="2.5" fill="#2563eb"/>
  <circle cx="242.85" cy="250.11" r="2.5" fill="#2563eb"/>
  <circle cx="244.12" cy="201.46" r="2.5" fill="#2563eb"/>
  <circle cx="245.39" cy="300.01" r="2.5" fill="#2563eb"/>
  <circle cx="246.66" cy="200.83" r="2.5" fill="#2563eb"/>
  <circle cx="247.93" cy="250.03" r="2.5" fill="#2563eb"/>
  <circle cx="249.20" cy="249.99" r="2.5" fill="#2563eb"/>
  <circle cx="250.47" cy="300.26" r="2.5" fill="#2563eb"/>
  <circle cx="251.75" cy="300.01" r="2.5" fill="#2563eb"/>
  <circle cx="253.02" cy="300.01" r="2.5" fill="#2563eb"/>
  <circle cx="254.29" cy="250.03" r="2.5" fill="#2563eb"/>
  <circle cx="255.56" cy="250.03" r="2.5" fill="#2563eb"/>
  <circle cx="256.83" cy="250.03" r="2.5" fill="#2563eb"/>
  <circle cx="258.10" cy="250.03" r="2.5" fill="#2563eb"/>
  <circle cx="259.37" cy="249.99" r="2.5" fill="#2563eb"/>
  <circle cx="260.64" cy="250.03" r="2.5" fill="#2563eb"/>
  <circle cx="261.91" cy="200.00" r="2.5" fill="#2563eb"/>
  <circle cx="263.18" cy="300.26" r="2.5" fill="#2563eb"/>
  <circle cx="264.46" cy="249.99" r="2.5" fill="#2563eb"/>
  <circle cx="265.73" cy="300.01" r="2.5" fill="#2563eb"/>
  <circle cx="267.00" cy="249.94" r="2.5" fill="#2563eb"/>
  <circle cx="268.27" cy="250.03" r="2.5" fill="#2563eb"/>
  <circle cx="269.54" cy="250.03" r="2.5" fill="#2563eb"/>
  <circle cx="270.81" cy="250.03" r="2.5" fill="#2563eb"/>
  <circle cx="272.08" cy="200.04" r="2.5" fill="#2563eb"/>
  <circle cx="273.35" cy="300.01" r="2.5" fill="#2563eb"/>
  <circle cx="274.62" cy="249.90" r="2.5" fill="#2563eb"/>
  <circle cx="275.89" cy="300.01" r="2.5" fill="#2563eb"/>
  <circle cx="277.16" cy="300.01" r="2.5" fill="#2563eb"/>
  <circle cx="278.44" cy="300.06" r="2.5" fill="#2563eb"/>
  <circle cx="279.71" cy="300.01" r="2.5" fill="#2563eb"/>
  <circle cx="280.98" cy="300.01" r="2.5" fill="#2563eb"/>
  <circle cx="282.25" cy="243.95" r="2.5" fill="#2563eb"/>
  <circle cx="283.52" cy="249.94" r="2.5" fill="#2563eb"/>
  <circle cx="284.79" cy="299.97" r="2.5" fill="#2563eb"/>
  <circle cx="286.06" cy="300.01" r="2.5" fill="#2563eb"/>
  <circle cx="287.33" cy="300.01" r="2.5" fill="#2563eb"/>
  <circle cx="288.60" cy="250.03" r="2.5" fill="#2563eb"/>
  <circle cx="289.87" cy="300.01" r="2.5" fill="#2563eb"/>
  <circle cx="291.15" cy="300.01" r="2.5" fill="#2563eb"/>
  <circle cx="292.42" cy="299.97" r="2.5" fill="#2563eb"/>
  <circle cx="293.69" cy="249.99" r="2.5" fill="#2563eb"/>
  <circle cx="294.96" cy="300.01" r="2.5" fill="#2563eb"/>
  <circle cx="296.23" cy="299.93" r="2.5" fill="#2563eb"/>
  <circle cx="297.50" cy="300.01" r="2.5" fill="#2563eb"/>
  <circle cx="298.77" cy="299.93" r="2.5" fill="#2563eb"/>
  <circle cx="300.04" cy="300.01" r="2.5" fill="#2563eb"/>
  <circle cx="301.31" cy="300.01" r="2.5" fill="#2563eb"/>
  <circle cx="302.58" cy="299.89" r="2.5" fill="#2563eb"/>
  <circle cx="303.85" cy="299.97" r="2.5" fill="#2563eb"/>
  <circle cx="305.13" cy="250.03" r="2.5" fill="#2563eb"/>
  <circle cx="306.40" cy="299.93" r="2.5" fill="#2563eb"/>
  <circle cx="307.67" cy="299.89" r="2.5" fill="#2563eb"/>
  <circle cx="308.94" cy="299.97" r="2.5" fill="#2563eb"/>
  <circle cx="310.21" cy="249.94" r="2.5" fill="#2563eb"/>
  <circle cx="311.48" cy="300.01" r="2.5" fill="#2563eb"/>
  <circle cx="312.75" cy="300.01" r="2.5" fill="#2563eb"/>
  <circle cx="314.02" cy="299.97" r="2.5" fill="#2563eb"/>
  <circle cx="315.29" cy="249.99" r="2.5" fill="#2563eb"/>
  <circle cx="316.56" cy="299.97" r="2.5" fill="#2563eb"/>
  <circle cx="317.84" cy="299.97" r="2.5" fill="#2563eb"/>
  <circle cx="319.11" cy="300.06" r="2.5" fill="#2563eb"/>
  <circle cx="320.38" cy="300.06" r="2.5" fill="#2563eb"/>
  <circle cx="321.65" cy="299.93" r="2.5" fill="#2563eb"/>
  <circle cx="322.92" cy="300.01" r="2.5" fill="#2563eb"/>
  <circle cx="324.19" cy="300.01" r="2.5" fill="#2563eb"/>
  <circle cx="325.46" cy="299.93" r="2.5" fill="#2563eb"/>
  <circle cx="326.73" cy="300.01" r="2.5" fill="#2563eb"/>
  <circle cx="328.00" cy="300.01" r="2.5" fill="#2563eb"/>
  <circle cx="329.27" cy="299.97" r="2.5" fill="#2563eb"/>
  <circle cx="330.54" cy="300.01" r="2.5" fill="#2563eb"/>
  <circle cx="331.82" cy="300.01" r="2.5" fill="#2563eb"/>
  <circle cx="333.09" cy="300.01" r="2.5" fill="#2563eb"/>
  <circle cx="334.36" cy="300.01" r="2.5" fill="#2563eb"/>
  <circle cx="335.63" cy="249.86" r="2.5" fill="#2563eb"/>
  <circle cx="336.90" cy="300.01" r="2.5" fill="#2563eb"/>
  <circle cx="338.17" cy="300.10" r="2.5" fill="#2563eb"/>
  <circle cx="339.44" cy="299.93" r="2.5" fill="#2563eb"/>
  <circle cx="340.71" cy="300.01" r="2.5" fill="#2563eb"/>
  <circle cx="341.98" cy="299.93" r="2.5" fill="#2563eb"/>
  <circle cx="343.25" cy="300.01" r="2.5" fill="#2563eb"/>
  <circle cx="344.53" cy="300.01" r="2.5" fill="#2563eb"/>
  <circle cx="345.80" cy="300.01" r="2.5" fill="#2563eb"/>
  <circle cx="347.07" cy="300.01" r="2.5" fill="#2563eb"/>
  <circle cx="348.34" cy="300.01" r="2.5" fill="#2563eb"/>
  <circle cx="349.61" cy="299.97" r="2.5" fill="#2563eb"/>
  <circle cx="350.88" cy="300.01" r="2.5" fill="#2563eb"/>
  <circle cx="352.15" cy="300.01" r="2.5" fill="#2563eb"/>
  <circle cx="353.42" cy="300.01" r="2.5" fill="#2563eb"/>
  <circle cx="354.69" cy="300.01" r="2.5" fill="#2563eb"/>
  <circle cx="355.96" cy="250.03" r="2.5" fill="#2563eb"/>
  <circle cx="357.23" cy="300.01" r="2.5" fill="#2563eb"/>
  <circle cx="358.51" cy="300.01" r="2.5" fill="#2563eb"/>
  <circle cx="359.78" cy="299.97" r="2.5" fill="#2563eb"/>
  <circle cx="361.05" cy="300.01" r="2.5" fill="#2563eb"/>
  <circle cx="362.32" cy="300.01" r="2.5" fill="#2563eb"/>
  <circle cx="363.59" cy="299.97" r="2.5" fill="#2563eb"/>
  <circle cx="364.86" cy="299.97" r="2.5" fill="#2563eb"/>
  <circle cx="366.13" cy="300.01" r="2.5" fill="#2563eb"/>
  <circle cx="367.40" cy="299.97" r="2.5" fill="#2563eb"/>
  <circle cx="368.67" cy="300.01" r="2.5" fill="#2563eb"/>
  <circle cx="369.94" cy="299.93" r="2.5" fill="#2563eb"/>
  <circle cx="371.22" cy="300.01" r="2.5" fill="#2563eb"/>
  <circle cx="372.49" cy="250.03" r="2.5" fill="#2563eb"/>
  <circle cx="373.76" cy="300.01" r="2.5" fill="#2563eb"/>
  <circle cx="375.03" cy="300.01" r="2.5" fill="#2563eb"/>
  <circle cx="376.30" cy="300.01" r="2.5" fill="#2563eb"/>
  <circle cx="377.57" cy="300.01" r="2.5" fill="#2563eb"/>
  <circle cx="378.84" cy="300.01" r="2.5" fill="#2563eb"/>
  <circle cx="380.11" cy="299.89" r="2.5" fill="#2563eb"/>
  <circle cx="381.38" cy="300.01" r="2.5" fill="#2563eb"/>
  <circle cx="382.65" cy="300.01" r="2.5" fill="#2563eb"/>
  <circle cx="383.92" cy="250.07" r="2.5" fill="#2563eb"/>
  <circle cx="385.20" cy="300.01" r="2.5" fill="#2563eb"/>
  <circle cx="386.47" cy="299.93" r="2.5" fill="#2563eb"/>
  <circle cx="387.74" cy="300.01" r="2.5" fill="#2563eb"/>
  <circle cx="389.01" cy="299.97" r="2.5" fill="#2563eb"/>
  <circle cx="390.28" cy="299.97" r="2.5" fill="#2563eb"/>
  <circle cx="391.55" cy="299.97" r="2.5" fill="#2563eb"/>
  <circle cx="392.82" cy="250.03" r="2.5" fill="#2563eb"/>
  <circle cx="394.09" cy="300.01" r="2.5" fill="#2563eb"/>
  <circle cx="395.36" cy="300.01" r="2.5" fill="#2563eb"/>
  <circle cx="396.63" cy="300.01" r="2.5" fill="#2563eb"/>
  <circle cx="397.91" cy="300.01" r="2.5" fill="#2563eb"/>
  <circle cx="399.18" cy="299.97" r="2.5" fill="#2563eb"/>
  <circle cx="400.45" cy="300.01" r="2.5" fill="#2563eb"/>
  <circle cx="401.72" cy="299.97" r="2.5" fill="#2563eb"/>
  <circle cx="402.99" cy="300.01" r="2.5" fill="#2563eb"/>
  <circle cx="404.26" cy="299.97" r="2.5" fill="#2563eb"/>
  <circle cx="405.53" cy="249.90" r="2.5" fill="#2563eb"/>
  <circle cx="406.80" cy="300.01" r="2.5" fill="#2563eb"/>
  <circle cx="408.07" cy="300.01" r="2.5" fill="#2563eb"/>
  <circle cx="409.34" cy="299.89" r="2.5" fill="#2563eb"/>
  <circle cx="410.61" cy="299.97" r="2.5" fill="#2563eb"/>
  <circle cx="411.89" cy="299.97" r="2.5" fill="#2563eb"/>
  <circle cx="413.16" cy="249.99" r="2.5" fill="#2563eb"/>
  <circle cx="414.43" cy="299.97" r="2.5" fill="#2563eb"/>
  <circle cx="415.70" cy="299.89" r="2.5" fill="#2563eb"/>
  <circle cx="416.97" cy="300.01" r="2.5" fill="#2563eb"/>
  <circle cx="418.24" cy="299.97" r="2.5" fill="#2563eb"/>
  <circle cx="419.51" cy="299.97" r="2.5" fill="#2563eb"/>
  <circle cx="420.78" cy="300.01" r="2.5" fill="#2563eb"/>
  <circle cx="422.05" cy="299.97" r="2.5" fill="#2563eb"/>
  <circle cx="423.32" cy="249.99" r="2.5" fill="#2563eb"/>
  <circle cx="424.59" cy="299.97" r="2.5" fill="#2563eb"/>
  <circle cx="425.87" cy="299.97" r="2.5" fill="#2563eb"/>
  <circle cx="427.14" cy="300.06" r="2.5" fill="#2563eb"/>
  <circle cx="428.41" cy="300.06" r="2.5" fill="#2563eb"/>
  <circle cx="429.68" cy="249.94" r="2.5" fill="#2563eb"/>
  <circle cx="430.95" cy="300.01" r="2.5" fill="#2563eb"/>
  <circle cx="432.22" cy="299.93" r="2.5" fill="#2563eb"/>
  <circle cx="433.49" cy="300.01" r="2.5" fill="#2563eb"/>
  <circle cx="434.76" cy="300.01" r="2.5" fill="#2563eb"/>
  <circle cx="436.03" cy="249.99" r="2.5" fill="#2563eb"/>
  <circle cx="437.30" cy="300.01" r="2.5" fill="#2563eb"/>
  <circle cx="438.58" cy="300.01" r="2.5" fill="#2563eb"/>
  <circle cx="439.85" cy="300.01" r="2.5" fill="#2563eb"/>
  <circle cx="441.12" cy="299.93" r="2.5" fill="#2563eb"/>
  <circle cx="442.39" cy="299.93" r="2.5" fill="#2563eb"/>
  <circle cx="443.66" cy="300.01" r="2.5" fill="#2563eb"/>
  <circle cx="444.93" cy="300.01" r="2.5" fill="#2563eb"/>
  <circle cx="446.20" cy="249.94" r="2.5" fill="#2563eb"/>
  <circle cx="447.47" cy="299.97" r="2.5" fill="#2563eb"/>
  <circle cx="448.74" cy="299.97" r="2.5" fill="#2563eb"/>
  <circle cx="450.01" cy="300.01" r="2.5" fill="#2563eb"/>
  <circle cx="451.28" cy="300.01" r="2.5" fill="#2563eb"/>
  <circle cx="452.56" cy="300.01" r="2.5" fill="#2563eb"/>
  <circle cx="453.83" cy="249.99" r="2.5" fill="#2563eb"/>
  <circle cx="455.10" cy="300.01" r="2.5" fill="#2563eb"/>
  <circle cx="456.37" cy="300.01" r="2.5" fill="#2563eb"/>
  <circle cx="457.64" cy="300.01" r="2.5" fill="#2563eb"/>
  <circle cx="458.91" cy="250.03" r="2.5" fill="#2563eb"/>
  <circle cx="460.18" cy="300.01" r="2.5" fill="#2563eb"/>
  <circle cx="461.45" cy="300.01" r="2.5" fill="#2563eb"/>
  <circle cx="462.72" cy="300.01" r="2.5" fill="#2563eb"/>
  <circle cx="463.99" cy="299.97" r="2.5" fill="#2563eb"/>
  <circle cx="465.27" cy="300.01" r="2.5" fill="#2563eb"/>
  <circle cx="466.54" cy="300.01" r="2.5" fill="#2563eb"/>
  <circle cx="467.81" cy="299.97" r="2.5" fill="#2563eb"/>
  <circle cx="469.08" cy="299.97" r="2.5" fill="#2563eb"/>
  <circle cx="470.35" cy="300.01" r="2.5" fill="#2563eb"/>
  <circle cx="471.62" cy="300.01" r="2.5" fill="#2563eb"/>
  <circle cx="472.89" cy="299.97" r="2.5" fill="#2563eb"/>
  <circle cx="474.16" cy="299.93" r="2.5" fill="#2563eb"/>
  <circle cx="475.43" cy="300.01" r="2.5" fill="#2563eb"/>
  <circle cx="476.70" cy="300.06" r="2.5" fill="#2563eb"/>
  <circle cx="477.97" cy="299.97" r="2.5" fill="#2563eb"/>
  <circle cx="479.25" cy="300.01" r="2.5" fill="#2563eb"/>
  <circle cx="480.52" cy="250.03" r="2.5" fill="#2563eb"/>
  <circle cx="481.79" cy="250.03" r="2.5" fill="#2563eb"/>
  <circle cx="483.06" cy="299.93" r="2.5" fill="#2563eb"/>
  <circle cx="484.33" cy="299.97" r="2.5" fill="#2563eb"/>
  <circle cx="485.60" cy="300.01" r="2.5" fill="#2563eb"/>
  <circle cx="486.87" cy="300.01" r="2.5" fill="#2563eb"/>
  <circle cx="488.14" cy="300.06" r="2.5" fill="#2563eb"/>
  <circle cx="489.41" cy="300.01" r="2.5" fill="#2563eb"/>
  <circle cx="490.68" cy="299.93" r="2.5" fill="#2563eb"/>
  <circle cx="491.96" cy="300.01" r="2.5" fill="#2563eb"/>
  <circle cx="493.23" cy="300.01" r="2.5" fill="#2563eb"/>
  <circle cx="494.50" cy="299.97" r="2.5" fill="#2563eb"/>
  <circle cx="495.77" cy="299.97" r="2.5" fill="#2563eb"/>
  <circle cx="497.04" cy="300.01" r="2.5" fill="#2563eb"/>
  <circle cx="498.31" cy="250.03" r="2.5" fill="#2563eb"/>
  <circle cx="499.58" cy="300.01" r="2.5" fill="#2563eb"/>
  <circle cx="500.85" cy="300.01" r="2.5" fill="#2563eb"/>
  <circle cx="502.12" cy="300.01" r="2.5" fill="#2563eb"/>
  <circle cx="503.39" cy="299.97" r="2.5" fill="#2563eb"/>
  <circle cx="504.66" cy="300.01" r="2.5" fill="#2563eb"/>
  <circle cx="505.94" cy="299.97" r="2.5" fill="#2563eb"/>
  <circle cx="507.21" cy="300.01" r="2.5" fill="#2563eb"/>
  <circle cx="508.48" cy="299.97" r="2.5" fill="#2563eb"/>
  <circle cx="509.75" cy="299.97" r="2.5" fill="#2563eb"/>
  <circle cx="511.02" cy="299.93" r="2.5" fill="#2563eb"/>
  <circle cx="512.29" cy="300.01" r="2.5" fill="#2563eb"/>
  <circle cx="513.56" cy="300.01" r="2.5" fill="#2563eb"/>
  <circle cx="514.83" cy="299.89" r="2.5" fill="#2563eb"/>
  <circle cx="516.10" cy="299.97" r="2.5" fill="#2563eb"/>
  <circle cx="517.37" cy="299.97" r="2.5" fill="#2563eb"/>
  <circle cx="518.65" cy="300.06" r="2.5" fill="#2563eb"/>
  <circle cx="519.92" cy="249.90" r="2.5" fill="#2563eb"/>
  <circle cx="521.19" cy="299.89" r="2.5" fill="#2563eb"/>
  <circle cx="522.46" cy="300.01" r="2.5" fill="#2563eb"/>
  <circle cx="523.73" cy="299.97" r="2.5" fill="#2563eb"/>
  <circle cx="525.00" cy="299.97" r="2.5" fill="#2563eb"/>
  <circle cx="526.27" cy="299.97" r="2.5" fill="#2563eb"/>
  <circle cx="527.54" cy="300.01" r="2.5" fill="#2563eb"/>
  <circle cx="528.81" cy="300.01" r="2.5" fill="#2563eb"/>
  <circle cx="530.08" cy="299.97" r="2.5" fill="#2563eb"/>
  <circle cx="531.35" cy="299.97" r="2.5" fill="#2563eb"/>
  <circle cx="532.63" cy="299.97" r="2.5" fill="#2563eb"/>
  <circle cx="533.90" cy="250.03" r="2.5" fill="#2563eb"/>
  <circle cx="535.17" cy="299.93" r="2.5" fill="#2563eb"/>
  <circle cx="536.44" cy="300.01" r="2.5" fill="#2563eb"/>
  <circle cx="537.71" cy="300.01" r="2.5" fill="#2563eb"/>
  <circle cx="538.98" cy="299.93" r="2.5" fill="#2563eb"/>
  <circle cx="540.25" cy="300.01" r="2.5" fill="#2563eb"/>
  <circle cx="541.52" cy="300.01" r="2.5" fill="#2563eb"/>
  <circle cx="542.79" cy="299.97" r="2.5" fill="#2563eb"/>
  <circle cx="544.06" cy="300.01" r="2.5" fill="#2563eb"/>
  <circle cx="545.34" cy="300.01" r="2.5" fill="#2563eb"/>
  <circle cx="546.61" cy="300.06" r="2.5" fill="#2563eb"/>
  <circle cx="547.88" cy="300.01" r="2.5" fill="#2563eb"/>
  <circle cx="549.15" cy="299.97" r="2.5" fill="#2563eb"/>
  <circle cx="550.42" cy="299.89" r="2.5" fill="#2563eb"/>
  <circle cx="551.69" cy="300.01" r="2.5" fill="#2563eb"/>
  <circle cx="552.96" cy="300.01" r="2.5" fill="#2563eb"/>
  <circle cx="554.23" cy="249.94" r="2.5" fill="#2563eb"/>
  <circle cx="555.50" cy="249.94" r="2.5" fill="#2563eb"/>
  <circle cx="556.77" cy="300.01" r="2.5" fill="#2563eb"/>
  <circle cx="558.04" cy="300.01" r="2.5" fill="#2563eb"/>
  <circle cx="559.32" cy="300.01" r="2.5" fill="#2563eb"/>
  <circle cx="560.59" cy="300.01" r="2.5" fill="#2563eb"/>
  <circle cx="561.86" cy="299.97" r="2.5" fill="#2563eb"/>
  <circle cx="563.13" cy="250.03" r="2.5" fill="#2563eb"/>
  <circle cx="564.40" cy="300.01" r="2.5" fill="#2563eb"/>
  <circle cx="565.67" cy="300.01" r="2.5" fill="#2563eb"/>
  <circle cx="566.94" cy="300.01" r="2.5" fill="#2563eb"/>
  <circle cx="568.21" cy="300.01" r="2.5" fill="#2563eb"/>
  <circle cx="569.48" cy="250.03" r="2.5" fill="#2563eb"/>
  <circle cx="570.75" cy="249.99" r="2.5" fill="#2563eb"/>
  <circle cx="572.03" cy="300.01" r="2.5" fill="#2563eb"/>
  <circle cx="573.30" cy="299.97" r="2.5" fill="#2563eb"/>
  <circle cx="574.57" cy="300.01" r="2.5" fill="#2563eb"/>
  <circle cx="575.84" cy="299.97" r="2.5" fill="#2563eb"/>
  <circle cx="577.11" cy="300.01" r="2.5" fill="#2563eb"/>
  <circle cx="578.38" cy="299.97" r="2.5" fill="#2563eb"/>
  <circle cx="579.65" cy="299.97" r="2.5" fill="#2563eb"/>
  <circle cx="580.92" cy="299.97" r="2.5" fill="#2563eb"/>
  <circle cx="582.19" cy="300.06" r="2.5" fill="#2563eb"/>
  <circle cx="583.46" cy="249.99" r="2.5" fill="#2563eb"/>
  <circle cx="584.73" cy="300.01" r="2.5" fill="#2563eb"/>
  <circle cx="586.01" cy="250.03" r="2.5" fill="#2563eb"/>
  <circle cx="587.28" cy="249.94" r="2.5" fill="#2563eb"/>
  <circle cx="588.55" cy="249.99" r="2.5" fill="#2563eb"/>
  <circle cx="589.82" cy="300.01" r="2.5" fill="#2563eb"/>
  <circle cx="591.09" cy="300.06" r="2.5" fill="#2563eb"/>
  <circle cx="592.36" cy="300.01" r="2.5" fill="#2563eb"/>
  <circle cx="593.63" cy="299.97" r="2.5" fill="#2563eb"/>
  <circle cx="594.90" cy="299.97" r="2.5" fill="#2563eb"/>
  <circle cx="596.17" cy="300.01" r="2.5" fill="#2563eb"/>
  <circle cx="597.44" cy="299.93" r="2.5" fill="#2563eb"/>
  <circle cx="598.72" cy="299.89" r="2.5" fill="#2563eb"/>
  <circle cx="599.99" cy="299.89" r="2.5" fill="#2563eb"/>
  <circle cx="601.26" cy="299.89" r="2.5" fill="#2563eb"/>
  <circle cx="602.53" cy="299.89" r="2.5" fill="#2563eb"/>
  <circle cx="603.80" cy="299.85" r="2.5" fill="#2563eb"/>
  <circle cx="605.07" cy="299.85" r="2.5" fill="#2563eb"/>
  <circle cx="606.34" cy="299.89" r="2.5" fill="#2563eb"/>
  <circle cx="607.61" cy="299.81" r="2.5" fill="#2563eb"/>
  <circle cx="608.88" cy="299.81" r="2.5" fill="#2563eb"/>
  <circle cx="610.15" cy="299.81" r="2.5" fill="#2563eb"/>
  <circle cx="611.42" cy="299.76" r="2.5" fill="#2563eb"/>
  <circle cx="612.70" cy="299.76" r="2.5" fill="#2563eb"/>
  <circle cx="613.97" cy="299.76" r="2.5" fill="#2563eb"/>
  <circle cx="615.24" cy="299.72" r="2.5" fill="#2563eb"/>
  <circle cx="616.51" cy="299.68" r="2.5" fill="#2563eb"/>
  <circle cx="617.78" cy="299.60" r="2.5" fill="#2563eb"/>
  <circle cx="619.05" cy="299.60" r="2.5" fill="#2563eb"/>
  <circle cx="620.32" cy="299.60" r="2.5" fill="#2563eb"/>
  <circle cx="621.59" cy="299.56" r="2.5" fill="#2563eb"/>
  <circle cx="622.86" cy="299.47" r="2.5" fill="#2563eb"/>
  <circle cx="624.13" cy="299.43" r="2.5" fill="#2563eb"/>
  <circle cx="625.41" cy="299.43" r="2.5" fill="#2563eb"/>
  <circle cx="626.68" cy="299.39" r="2.5" fill="#2563eb"/>
  <circle cx="627.95" cy="299.47" r="2.5" fill="#2563eb"/>
  <circle cx="629.22" cy="259.82" r="2.5" fill="#2563eb"/>
  <circle cx="630.49" cy="338.96" r="2.5" fill="#2563eb"/>
  <circle cx="631.76" cy="299.31" r="2.5" fill="#2563eb"/>
  <circle cx="633.03" cy="299.31" r="2.5" fill="#2563eb"/>
  <circle cx="634.30" cy="299.26" r="2.5" fill="#2563eb"/>
  <circle cx="635.57" cy="299.68" r="2.5" fill="#2563eb"/>
  <circle cx="636.84" cy="299.68" r="2.5" fill="#2563eb"/>
  <circle cx="638.11" cy="299.68" r="2.5" fill="#2563eb"/>
  <circle cx="639.39" cy="299.64" r="2.5" fill="#2563eb"/>
  <circle cx="640.66" cy="299.14" r="2.5" fill="#2563eb"/>
  <circle cx="641.93" cy="299.14" r="2.5" fill="#2563eb"/>
  <circle cx="643.20" cy="299.10" r="2.5" fill="#2563eb"/>
  <circle cx="644.47" cy="299.10" r="2.5" fill="#2563eb"/>
  <circle cx="645.74" cy="299.10" r="2.5" fill="#2563eb"/>
  <circle cx="647.01" cy="248.07" r="2.5" fill="#2563eb"/>
  <circle cx="648.28" cy="299.06" r="2.5" fill="#2563eb"/>
  <circle cx="649.55" cy="299.06" r="2.5" fill="#2563eb"/>
  <circle cx="650.82" cy="299.06" r="2.5" fill="#2563eb"/>
  <circle cx="652.09" cy="299.06" r="2.5" fill="#2563eb"/>
  <circle cx="653.37" cy="299.06" r="2.5" fill="#2563eb"/>
  <circle cx="654.64" cy="298.97" r="2.5" fill="#2563eb"/>
  <circle cx="655.91" cy="298.97" r="2.5" fill="#2563eb"/>
  <circle cx="657.18" cy="298.93" r="2.5" fill="#2563eb"/>
  <circle cx="658.45" cy="298.97" r="2.5" fill="#2563eb"/>
  <circle cx="659.72" cy="298.93" r="2.5" fill="#2563eb"/>
  <circle cx="660.99" cy="298.89" r="2.5" fill="#2563eb"/>
  <circle cx="662.26" cy="298.89" r="2.5" fill="#2563eb"/>
  <circle cx="663.53" cy="298.89" r="2.5" fill="#2563eb"/>
  <circle cx="664.80" cy="298.89" r="2.5" fill="#2563eb"/>
  <circle cx="666.08" cy="247.78" r="2.5" fill="#2563eb"/>
  <circle cx="667.35" cy="298.89" r="2.5" fill="#2563eb"/>
  <circle cx="668.62" cy="298.89" r="2.5" fill="#2563eb"/>
  <circle cx="669.89" cy="298.85" r="2.5" fill="#2563eb"/>
  <circle cx="671.16" cy="298.85" r="2.5" fill="#2563eb"/>
  <circle cx="672.43" cy="298.81" r="2.5" fill="#2563eb"/>
  <circle cx="673.70" cy="298.81" r="2.5" fill="#2563eb"/>
  <circle cx="674.97" cy="298.81" r="2.5" fill="#2563eb"/>
  <circle cx="676.24" cy="298.81" r="2.5" fill="#2563eb"/>
  <circle cx="677.51" cy="298.81" r="2.5" fill="#2563eb"/>
  <circle cx="678.78" cy="298.81" r="2.5" fill="#2563eb"/>
  <circle cx="680.06" cy="298.81" r="2.5" fill="#2563eb"/>
  <circle cx="681.33" cy="298.81" r="2.5" fill="#2563eb"/>
  <circle cx="682.60" cy="298.81" r="2.5" fill="#2563eb"/>
  <circle cx="683.87" cy="298.72" r="2.5" fill="#2563eb"/>
  <circle cx="685.14" cy="247.45" r="2.5" fill="#2563eb"/>
  <circle cx="686.41" cy="247.45" r="2.5" fill="#2563eb"/>
  <circle cx="687.68" cy="298.72" r="2.5" fill="#2563eb"/>
  <circle cx="688.95" cy="298.72" r="2.5" fill="#2563eb"/>
  <circle cx="690.22" cy="298.72" r="2.5" fill="#2563eb"/>
  <circle cx="691.49" cy="298.72" r="2.5" fill="#2563eb"/>
  <circle cx="692.77" cy="298.72" r="2.5" fill="#2563eb"/>
  <circle cx="694.04" cy="298.72" r="2.5" fill="#2563eb"/>
  <circle cx="695.31" cy="247.36" r="2.5" fill="#2563eb"/>
  <circle cx="696.58" cy="298.68" r="2.5" fill="#2563eb"/>
  <circle cx="697.85" cy="247.36" r="2.5" fill="#2563eb"/>
  <circle cx="699.12" cy="247.36" r="2.5" fill="#2563eb"/>
  <circle cx="700.39" cy="247.36" r="2.5" fill="#2563eb"/>
  <circle cx="701.66" cy="298.68" r="2.5" fill="#2563eb"/>
  <circle cx="702.93" cy="298.68" r="2.5" fill="#2563eb"/>
  <circle cx="704.20" cy="298.68" r="2.5" fill="#2563eb"/>
  <circle cx="705.47" cy="298.68" r="2.5" fill="#2563eb"/>
  <circle cx="706.75" cy="298.68" r="2.5" fill="#2563eb"/>
  <circle cx="708.02" cy="341.67" r="2.5" fill="#2563eb"/>
  <circle cx="709.29" cy="307.01" r="2.5" fill="#2563eb"/>
  <circle cx="710.56" cy="298.68" r="2.5" fill="#2563eb"/>
  <circle cx="711.83" cy="298.68" r="2.5" fill="#2563eb"/>
  <circle cx="713.10" cy="298.68" r="2.5" fill="#2563eb"/>
  <circle cx="714.37" cy="247.36" r="2.5" fill="#2563eb"/>
  <circle cx="715.64" cy="298.64" r="2.5" fill="#2563eb"/>
  <circle cx="716.91" cy="247.36" r="2.5" fill="#2563eb"/>
  <circle cx="718.18" cy="247.28" r="2.5" fill="#2563eb"/>
  <circle cx="719.46" cy="247.20" r="2.5" fill="#2563eb"/>
  <circle cx="720.73" cy="298.60" r="2.5" fill="#2563eb"/>
  <circle cx="722.00" cy="298.60" r="2.5" fill="#2563eb"/>
  <circle cx="723.27" cy="247.03" r="2.5" fill="#2563eb"/>
  <circle cx="724.54" cy="298.51" r="2.5" fill="#2563eb"/>
  <circle cx="725.81" cy="298.51" r="2.5" fill="#2563eb"/>
  <circle cx="727.08" cy="298.51" r="2.5" fill="#2563eb"/>
  <circle cx="728.35" cy="298.51" r="2.5" fill="#2563eb"/>
  <circle cx="729.62" cy="298.51" r="2.5" fill="#2563eb"/>
  <circle cx="730.89" cy="298.51" r="2.5" fill="#2563eb"/>
  <circle cx="732.16" cy="298.51" r="2.5" fill="#2563eb"/>
  <circle cx="733.44" cy="298.51" r="2.5" fill="#2563eb"/>
  <circle cx="734.71" cy="298.51" r="2.5" fill="#2563eb"/>
  <circle cx="735.98" cy="298.51" r="2.5" fill="#2563eb"/>
  <circle cx="737.25" cy="298.51" r="2.5" fill="#2563eb"/>
  <circle cx="738.52" cy="298.51" r="2.5" fill="#2563eb"/>
  <circle cx="739.79" cy="298.51" r="2.5" fill="#2563eb"/>
  <circle cx="741.06" cy="298.51" r="2.5" fill="#2563eb"/>
  <circle cx="742.33" cy="298.51" r="2.5" fill="#2563eb"/>
  <circle cx="743.60" cy="298.51" r="2.5" fill="#2563eb"/>
  <circle cx="744.87" cy="298.51" r="2.5" fill="#2563eb"/>
  <circle cx="746.15" cy="298.51" r="2.5" fill="#2563eb"/>
  <circle cx="747.42" cy="298.51" r="2.5" fill="#2563eb"/>
  <circle cx="748.69" cy="298.51" r="2.5" fill="#2563eb"/>
  <circle cx="749.96" cy="298.51" r="2.5" fill="#2563eb"/>
  <circle cx="751.23" cy="298.51" r="2.5" fill="#2563eb"/>
  <circle cx="752.50" cy="298.51" r="2.5" fill="#2563eb"/>
  <circle cx="753.77" cy="298.51" r="2.5" fill="#2563eb"/>
  <circle cx="755.04" cy="298.51" r="2.5" fill="#2563eb"/>
  <circle cx="756.31" cy="298.51" r="2.5" fill="#2563eb"/>
  <circle cx="757.58" cy="298.47" r="2.5" fill="#2563eb"/>
  <circle cx="758.85" cy="298.51" r="2.5" fill="#2563eb"/>
  <circle cx="760.13" cy="298.51" r="2.5" fill="#2563eb"/>
  <circle cx="761.40" cy="298.47" r="2.5" fill="#2563eb"/>
  <circle cx="762.67" cy="298.51" r="2.5" fill="#2563eb"/>
  <circle cx="763.94" cy="298.47" r="2.5" fill="#2563eb"/>
  <circle cx="765.21" cy="298.51" r="2.5" fill="#2563eb"/>
  <circle cx="766.48" cy="298.43" r="2.5" fill="#2563eb"/>
  <circle cx="767.75" cy="298.56" r="2.5" fill="#2563eb"/>
  <circle cx="769.02" cy="298.43" r="2.5" fill="#2563eb"/>
  <circle cx="770.29" cy="298.43" r="2.5" fill="#2563eb"/>
  <circle cx="771.56" cy="298.43" r="2.5" fill="#2563eb"/>
  <circle cx="772.84" cy="298.43" r="2.5" fill="#2563eb"/>
  <circle cx="774.11" cy="298.43" r="2.5" fill="#2563eb"/>
  <circle cx="775.38" cy="298.43" r="2.5" fill="#2563eb"/>
  <circle cx="776.65" cy="298.43" r="2.5" fill="#2563eb"/>
  <circle cx="777.92" cy="298.43" r="2.5" fill="#2563eb"/>
  <circle cx="779.19" cy="298.43" r="2.5" fill="#2563eb"/>
  <circle cx="780.46" cy="298.43" r="2.5" fill="#2563eb"/>
  <circle cx="781.73" cy="298.43" r="2.5" fill="#2563eb"/>
  <circle cx="783.00" cy="298.43" r="2.5" fill="#2563eb"/>
  <circle cx="784.27" cy="298.43" r="2.5" fill="#2563eb"/>
  <circle cx="785.54" cy="298.43" r="2.5" fill="#2563eb"/>
  <circle cx="786.82" cy="298.43" r="2.5" fill="#2563eb"/>
  <circle cx="788.09" cy="298.43" r="2.5" fill="#2563eb"/>
  <circle cx="789.36" cy="298.43" r="2.5" fill="#2563eb"/>
  <circle cx="790.63" cy="298.43" r="2.5" fill="#2563eb"/>
  <circle cx="791.90" cy="298.43" r="2.5" fill="#2563eb"/>
  <circle cx="793.17" cy="298.43" r="2.5" fill="#2563eb"/>
  <circle cx="794.44" cy="298.43" r="2.5" fill="#2563eb"/>
  <circle cx="795.71" cy="298.43" r="2.5" fill="#2563eb"/>
  <circle cx="796.98" cy="298.43" r="2.5" fill="#2563eb"/>
  <circle cx="798.25" cy="298.43" r="2.5" fill="#2563eb"/>
  <circle cx="799.53" cy="298.43" r="2.5" fill="#2563eb"/>
  <circle cx="800.80" cy="298.43" r="2.5" fill="#2563eb"/>
  <circle cx="802.07" cy="298.43" r="2.5" fill="#2563eb"/>
  <circle cx="803.34" cy="298.43" r="2.5" fill="#2563eb"/>
  <circle cx="804.61" cy="298.43" r="2.5" fill="#2563eb"/>
  <circle cx="805.88" cy="298.43" r="2.5" fill="#2563eb"/>
  <circle cx="807.15" cy="298.43" r="2.5" fill="#2563eb"/>
  <circle cx="808.42" cy="298.43" r="2.5" fill="#2563eb"/>
  <circle cx="809.69" cy="298.43" r="2.5" fill="#2563eb"/>
  <circle cx="810.96" cy="298.43" r="2.5" fill="#2563eb"/>
  <circle cx="812.23" cy="298.39" r="2.5" fill="#2563eb"/>
  <circle cx="813.51" cy="298.39" r="2.5" fill="#2563eb"/>
  <circle cx="814.78" cy="298.43" r="2.5" fill="#2563eb"/>
  <circle cx="816.05" cy="298.43" r="2.5" fill="#2563eb"/>
  <circle cx="817.32" cy="298.39" r="2.5" fill="#2563eb"/>
  <circle cx="818.59" cy="298.39" r="2.5" fill="#2563eb"/>
  <circle cx="819.86" cy="298.39" r="2.5" fill="#2563eb"/>
  <circle cx="821.13" cy="298.43" r="2.5" fill="#2563eb"/>
  <circle cx="822.40" cy="298.43" r="2.5" fill="#2563eb"/>
  <circle cx="823.67" cy="298.43" r="2.5" fill="#2563eb"/>
  <circle cx="824.94" cy="246.82" r="2.5" fill="#2563eb"/>
  <circle cx="826.22" cy="298.43" r="2.5" fill="#2563eb"/>
  <circle cx="827.49" cy="246.78" r="2.5" fill="#2563eb"/>
  <circle cx="828.76" cy="246.78" r="2.5" fill="#2563eb"/>
  <circle cx="830.03" cy="246.78" r="2.5" fill="#2563eb"/>
  <circle cx="831.30" cy="246.70" r="2.5" fill="#2563eb"/>
  <circle cx="832.57" cy="246.78" r="2.5" fill="#2563eb"/>
  <circle cx="833.84" cy="298.39" r="2.5" fill="#2563eb"/>
  <circle cx="835.11" cy="298.39" r="2.5" fill="#2563eb"/>
  <circle cx="836.38" cy="298.39" r="2.5" fill="#2563eb"/>
  <circle cx="837.65" cy="298.39" r="2.5" fill="#2563eb"/>
  <circle cx="838.92" cy="298.39" r="2.5" fill="#2563eb"/>
  <circle cx="840.20" cy="246.78" r="2.5" fill="#2563eb"/>
  <circle cx="841.47" cy="298.39" r="2.5" fill="#2563eb"/>
  <circle cx="842.74" cy="298.39" r="2.5" fill="#2563eb"/>
  <circle cx="844.01" cy="298.39" r="2.5" fill="#2563eb"/>
  <circle cx="845.28" cy="298.39" r="2.5" fill="#2563eb"/>
  <circle cx="846.55" cy="298.39" r="2.5" fill="#2563eb"/>
  <circle cx="847.82" cy="246.78" r="2.5" fill="#2563eb"/>
  <circle cx="849.09" cy="246.78" r="2.5" fill="#2563eb"/>
  <circle cx="850.36" cy="298.39" r="2.5" fill="#2563eb"/>
  <circle cx="851.63" cy="298.39" r="2.5" fill="#2563eb"/>
  <circle cx="852.91" cy="298.39" r="2.5" fill="#2563eb"/>
  <circle cx="854.18" cy="298.39" r="2.5" fill="#2563eb"/>
  <circle cx="855.45" cy="298.39" r="2.5" fill="#2563eb"/>
  <circle cx="856.72" cy="298.39" r="2.5" fill="#2563eb"/>
  <circle cx="857.99" cy="298.39" r="2.5" fill="#2563eb"/>
  <circle cx="859.26" cy="298.39" r="2.5" fill="#2563eb"/>
  <circle cx="860.53" cy="298.39" r="2.5" fill="#2563eb"/>
  <circle cx="861.80" cy="298.39" r="2.5" fill="#2563eb"/>
  <circle cx="863.07" cy="298.39" r="2.5" fill="#2563eb"/>
  <circle cx="864.34" cy="298.39" r="2.5" fill="#2563eb"/>
  <circle cx="865.61" cy="298.39" r="2.5" fill="#2563eb"/>
  <circle cx="866.89" cy="298.39" r="2.5" fill="#2563eb"/>
  <circle cx="868.16" cy="298.35" r="2.5" fill="#2563eb"/>
  <circle cx="869.43" cy="298.39" r="2.5" fill="#2563eb"/>
  <circle cx="870.70" cy="298.39" r="2.5" fill="#2563eb"/>
  <circle cx="871.97" cy="298.35" r="2.5" fill="#2563eb"/>
  <circle cx="873.24" cy="298.35" r="2.5" fill="#2563eb"/>
  <circle cx="874.51" cy="298.35" r="2.5" fill="#2563eb"/>
  <circle cx="875.78" cy="298.35" r="2.5" fill="#2563eb"/>
  <circle cx="877.05" cy="298.35" r="2.5" fill="#2563eb"/>
  <circle cx="878.32" cy="298.35" r="2.5" fill="#2563eb"/>
  <circle cx="879.59" cy="298.35" r="2.5" fill="#2563eb"/>
  <circle cx="880.87" cy="298.35" r="2.5" fill="#2563eb"/>
  <circle cx="882.14" cy="298.35" r="2.5" fill="#2563eb"/>
  <circle cx="883.41" cy="298.35" r="2.5" fill="#2563eb"/>
  <circle cx="884.68" cy="298.35" r="2.5" fill="#2563eb"/>
  <circle cx="885.95" cy="298.35" r="2.5" fill="#2563eb"/>
  <circle cx="887.22" cy="298.35" r="2.5" fill="#2563eb"/>
  <circle cx="888.49" cy="298.35" r="2.5" fill="#2563eb"/>
  <circle cx="889.76" cy="298.35" r="2.5" fill="#2563eb"/>
  <circle cx="891.03" cy="298.35" r="2.5" fill="#2563eb"/>
  <circle cx="892.30" cy="298.35" r="2.5" fill="#2563eb"/>
  <circle cx="893.58" cy="298.35" r="2.5" fill="#2563eb"/>
  <circle cx="894.85" cy="298.35" r="2.5" fill="#2563eb"/>
  <circle cx="896.12" cy="298.35" r="2.5" fill="#2563eb"/>
  <circle cx="897.39" cy="298.35" r="2.5" fill="#2563eb"/>
  <circle cx="898.66" cy="298.35" r="2.5" fill="#2563eb"/>
  <circle cx="899.93" cy="298.35" r="2.5" fill="#2563eb"/>
  <circle cx="901.20" cy="298.35" r="2.5" fill="#2563eb"/>
  <circle cx="902.47" cy="298.35" r="2.5" fill="#2563eb"/>
  <circle cx="903.74" cy="298.35" r="2.5" fill="#2563eb"/>
  <circle cx="905.01" cy="298.35" r="2.5" fill="#2563eb"/>
  <circle cx="906.28" cy="298.35" r="2.5" fill="#2563eb"/>
  <circle cx="907.56" cy="298.35" r="2.5" fill="#2563eb"/>
  <circle cx="908.83" cy="298.35" r="2.5" fill="#2563eb"/>
  <circle cx="910.10" cy="298.35" r="2.5" fill="#2563eb"/>
  <circle cx="911.37" cy="298.35" r="2.5" fill="#2563eb"/>
  <circle cx="912.64" cy="298.35" r="2.5" fill="#2563eb"/>
  <circle cx="913.91" cy="298.35" r="2.5" fill="#2563eb"/>
  <circle cx="915.18" cy="298.35" r="2.5" fill="#2563eb"/>
  <circle cx="916.45" cy="298.35" r="2.5" fill="#2563eb"/>
  <circle cx="917.72" cy="298.35" r="2.5" fill="#2563eb"/>
  <circle cx="918.99" cy="298.35" r="2.5" fill="#2563eb"/>
  <circle cx="920.27" cy="298.35" r="2.5" fill="#2563eb"/>
  <circle cx="921.54" cy="298.35" r="2.5" fill="#2563eb"/>
  <circle cx="922.81" cy="298.35" r="2.5" fill="#2563eb"/>
  <circle cx="924.08" cy="298.35" r="2.5" fill="#2563eb"/>
  <circle cx="925.35" cy="298.35" r="2.5" fill="#2563eb"/>
  <circle cx="926.62" cy="298.35" r="2.5" fill="#2563eb"/>
  <circle cx="927.89" cy="298.35" r="2.5" fill="#2563eb"/>
  <circle cx="929.16" cy="298.35" r="2.5" fill="#2563eb"/>
  <circle cx="930.43" cy="298.35" r="2.5" fill="#2563eb"/>
  <circle cx="931.70" cy="298.35" r="2.5" fill="#2563eb"/>
  <circle cx="932.97" cy="298.35" r="2.5" fill="#2563eb"/>
  <circle cx="934.25" cy="298.35" r="2.5" fill="#2563eb"/>
  <circle cx="935.52" cy="298.35" r="2.5" fill="#2563eb"/>
  <circle cx="936.79" cy="298.35" r="2.5" fill="#2563eb"/>
  <circle cx="938.06" cy="298.39" r="2.5" fill="#2563eb"/>
  <circle cx="939.33" cy="298.39" r="2.5" fill="#2563eb"/>
  <circle cx="940.60" cy="298.39" r="2.5" fill="#2563eb"/>
  <circle cx="941.87" cy="246.78" r="2.5" fill="#2563eb"/>
  <circle cx="943.14" cy="298.39" r="2.5" fill="#2563eb"/>
  <circle cx="944.41" cy="298.39" r="2.5" fill="#2563eb"/>
  <circle cx="945.68" cy="298.39" r="2.5" fill="#2563eb"/>
  <circle cx="946.96" cy="298.39" r="2.5" fill="#2563eb"/>
  <circle cx="948.23" cy="298.39" r="2.5" fill="#2563eb"/>
  <circle cx="949.50" cy="298.39" r="2.5" fill="#2563eb"/>
  <circle cx="950.77" cy="298.39" r="2.5" fill="#2563eb"/>
  <circle cx="952.04" cy="246.78" r="2.5" fill="#2563eb"/>
  <circle cx="953.31" cy="298.39" r="2.5" fill="#2563eb"/>
  <circle cx="954.58" cy="298.39" r="2.5" fill="#2563eb"/>
  <circle cx="955.85" cy="298.39" r="2.5" fill="#2563eb"/>
  <circle cx="957.12" cy="298.39" r="2.5" fill="#2563eb"/>
  <circle cx="958.39" cy="298.39" r="2.5" fill="#2563eb"/>
  <circle cx="959.66" cy="298.39" r="2.5" fill="#2563eb"/>
  <circle cx="960.94" cy="298.39" r="2.5" fill="#2563eb"/>
  <circle cx="962.21" cy="246.78" r="2.5" fill="#2563eb"/>
  <circle cx="963.48" cy="298.39" r="2.5" fill="#2563eb"/>
  <circle cx="964.75" cy="298.39" r="2.5" fill="#2563eb"/>
  <circle cx="966.02" cy="298.39" r="2.5" fill="#2563eb"/>
  <circle cx="967.29" cy="298.39" r="2.5" fill="#2563eb"/>
  <circle cx="968.56" cy="298.39" r="2.5" fill="#2563eb"/>
  <circle cx="969.83" cy="298.39" r="2.5" fill="#2563eb"/>
  <circle cx="971.10" cy="298.39" r="2.5" fill="#2563eb"/>
  <circle cx="972.37" cy="298.39" r="2.5" fill="#2563eb"/>
  <circle cx="973.65" cy="298.39" r="2.5" fill="#2563eb"/>
  <circle cx="974.92" cy="298.39" r="2.5" fill="#2563eb"/>
  <circle cx="976.19" cy="298.39" r="2.5" fill="#2563eb"/>
  <circle cx="977.46" cy="298.35" r="2.5" fill="#2563eb"/>
  <circle cx="978.73" cy="298.39" r="2.5" fill="#2563eb"/>
  <circle cx="980.00" cy="298.39" r="2.5" fill="#2563eb"/>
</svg>
