<?xml version="1.0" encoding="UTF-8"?>
<svg xmlns="http://www.w3.org/2000/svg" width="1000" height="420" viewBox="0 0 1000 420">
  <rect width="100%" height="100%" fill="#ffffff"/>
  <text x="70" y="28" font-size="20" font-weight="600">수집 시점 기준 - 시간별 스냅샷</text>
  <text x="70" y="402" font-size="12" fill="#555">스냅샷 수</text>
  <line x1="70" y1="350.00" x2="980" y2="350.00" stroke="#e5e7eb" stroke-width="1"/>
  <text x="62" y="354.00" font-size="11" fill="#6b7280" text-anchor="end">0</text>
  <line x1="70" y1="290.00" x2="980" y2="290.00" stroke="#e5e7eb" stroke-width="1"/>
  <text x="62" y="294.00" font-size="11" fill="#6b7280" text-anchor="end">1,440</text>
  <line x1="70" y1="230.00" x2="980" y2="230.00" stroke="#e5e7eb" stroke-width="1"/>
  <text x="62" y="234.00" font-size="11" fill="#6b7280" text-anchor="end">2,880</text>
  <line x1="70" y1="170.00" x2="980" y2="170.00" stroke="#e5e7eb" stroke-width="1"/>
  <text x="62" y="174.00" font-size="11" fill="#6b7280" text-anchor="end">4,321</text>
  <line x1="70" y1="110.00" x2="980" y2="110.00" stroke="#e5e7eb" stroke-width="1"/>
  <text x="62" y="114.00" font-size="11" fill="#6b7280" text-anchor="end">5,761</text>
  <line x1="70" y1="50.00" x2="980" y2="50.00" stroke="#e5e7eb" stroke-width="1"/>
  <text x="62" y="54.00" font-size="11" fill="#6b7280" text-anchor="end">7,202</text>
  <line x1="70" y1="350" x2="980" y2="350" stroke="#111827" stroke-width="1.2"/>
  <line x1="70" y1="50" x2="70" y2="350" stroke="#111827" stroke-width="1.2"/>
  <line x1="70.00" y1="350" x2="70.00" y2="356" stroke="#9ca3af" stroke-width="1"/>
  <text x="70.00" y="372" font-size="10" fill="#6b7280" text-anchor="middle">2026-02-28 18</text>
  <line x1="145.37" y1="350" x2="145.37" y2="356" stroke="#9ca3af" stroke-width="1"/>
  <text x="145.37" y="372" font-size="10" fill="#6b7280" text-anchor="middle">2026-03-08 20</text>
  <line x1="220.75" y1="350" x2="220.75" y2="356" stroke="#9ca3af" stroke-width="1"/>
  <text x="220.75" y="372" font-size="10" fill="#6b7280" text-anchor="middle">2026-03-10 17</text>
  <line x1="296.12" y1="350" x2="296.12" y2="356" stroke="#9ca3af" stroke-width="1"/>
  <text x="296.12" y="372" font-size="10" fill="#6b7280" text-anchor="middle">2026-03-12 14</text>
  <line x1="371.49" y1="350" x2="371.49" y2="356" stroke="#9ca3af" stroke-width="1"/>
  <text x="371.49" y="372" font-size="10" fill="#6b7280" text-anchor="middle">2026-03-14 12</text>
  <line x1="446.87" y1="350" x2="446.87" y2="356" stroke="#9ca3af" stroke-width="1"/>
  <text x="446.87" y="372" font-size="10" fill="#6b7280" text-anchor="middle">2026-03-17 00</text>
  <line x1="522.24" y1="350" x2="522.24" y2="356" stroke="#9ca3af" stroke-width="1"/>
  <text x="522.24" y="372" font-size="10" fill="#6b7280" text-anchor="middle">2026-03-19 19</text>
  <line x1="597.62" y1="350" x2="597.62" y2="356" stroke="#9ca3af" stroke-width="1"/>
  <text x="597.62" y="372" font-size="10" fill="#6b7280" text-anchor="middle">2026-03-22 02</text>
  <line x1="672.99" y1="350" x2="672.99" y2="356" stroke="#9ca3af" stroke-width="1"/>
  <text x="672.99" y="372" font-size="10" fill="#6b7280" text-anchor="middle">2026-03-24 17</text>
  <line x1="748.36" y1="350" x2="748.36" y2="356" stroke="#9ca3af" stroke-width="1"/>
  <text x="748.36" y="372" font-size="10" fill="#6b7280" text-anchor="middle">2026-03-27 14</text>
  <line x1="823.74" y1="350" x2="823.74" y2="356" stroke="#9ca3af" stroke-width="1"/>
  <text x="823.74" y="372" font-size="10" fill="#6b7280" text-anchor="middle">2026-03-30 06</text>
  <line x1="899.11" y1="350" x2="899.11" y2="356" stroke="#9ca3af" stroke-width="1"/>
  <text x="899.11" y="372" font-size="10" fill="#6b7280" text-anchor="middle">2026-04-02 05</text>
  <line x1="974.48" y1="350" x2="974.48" y2="356" stroke="#9ca3af" stroke-width="1"/>
  <text x="974.48" y="372" font-size="10" fill="#6b7280" text-anchor="middle">2026-04-04 20</text>
  <line x1="980.00" y1="350" x2="980.00" y2="356" stroke="#9ca3af" stroke-width="1"/>
  <text x="980.00" y="372" font-size="10" fill="#6b7280" text-anchor="middle">2026-04-05 02</text>
  <polyline fill="none" stroke="#2563eb" stroke-width="2.5" points="70.00,50.00 71.84,50.12 73.68,50.17 75.52,50.46 77.35,50.00 79.19,266.90 81.03,50.12 82.87,50.08 84.71,177.46 86.55,211.58 88.38,175.34 90.22,304.14 92.06,200.46 93.90,250.94 95.74,300.01 97.58,300.06 99.41,300.01 101.25,300.01 103.09,348.00 104.93,300.01 106.77,249.99 108.61,200.00 110.44,249.99 112.28,249.99 114.12,250.03 115.96,250.03 117.80,250.03 119.64,250.40 121.47,250.90 123.31,250.90 125.15,251.32 126.99,249.94 128.83,300.01 130.67,299.93 132.51,251.03 134.34,300.68 136.18,250.03 138.02,200.00 139.86,249.99 141.70,250.03 143.54,250.03 145.37,250.03 147.21,300.01 149.05,200.04 150.89,250.03 152.73,250.03 154.57,250.03 156.40,249.90 158.24,250.03 160.08,250.03 161.92,250.94 163.76,250.44 165.60,250.03 167.43,250.03 169.27,300.47 171.11,300.01 172.95,300.43 174.79,250.03 176.63,249.99 178.46,300.43 180.30,249.90 182.14,249.99 183.98,249.99 185.82,200.04 187.66,300.01 189.49,300.01 191.33,300.01 193.17,249.90 195.01,300.01 196.85,250.03 198.69,249.99 200.53,199.96 202.36,300.01 204.20,200.00 206.04,250.36 207.88,250.03 209.72,300.01 211.56,300.01 213.39,250.44 215.23,300.01 217.07,250.03 218.91,250.03 220.75,249.99 222.59,250.49 224.42,250.03 226.26,200.04 228.10,300.01 229.94,250.03 231.78,300.01 233.62,250.11 235.45,300.01 237.29,250.03 239.13,250.03 240.97,199.92 242.81,250.03 244.65,250.03 246.48,250.03 248.32,254.36 250.16,300.01 252.00,299.97 253.84,250.36 255.68,299.97 257.52,250.03 259.35,250.03 261.19,250.03 263.03,250.03 264.87,249.99 266.71,200.00 268.55,299.93 270.38,300.01 272.22,299.97 274.06,249.94 275.90,249.99 277.74,249.82 279.58,249.94 281.41,250.28 283.25,207.00 285.09,250.03 286.93,250.32 288.77,250.40 290.61,300.93 292.44,300.01 294.28,300.10 296.12,249.94 297.96,249.99 299.80,250.07 301.64,249.99 303.47,250.03 305.31,249.94 307.15,200.00 308.99,300.39 310.83,300.01 312.67,300.01 314.51,250.44 316.34,300.39 318.18,249.86 320.02,250.11 321.86,201.46 323.70,300.01 325.54,200.83 327.37,250.03 329.21,249.99 331.05,300.26 332.89,300.01 334.73,300.01 336.57,250.03 338.40,250.03 340.24,250.03 342.08,250.03 343.92,249.99 345.76,250.03 347.60,200.00 349.43,300.26 351.27,249.99 353.11,300.01 354.95,249.94 356.79,250.03 358.63,250.03 360.46,250.03 362.30,200.04 364.14,300.01 365.98,249.90 367.82,300.01 369.66,300.01 371.49,300.06 373.33,300.01 375.17,300.01 377.01,243.95 378.85,249.94 380.69,299.97 382.53,300.01 384.36,300.01 386.20,250.03 388.04,300.01 389.88,300.01 391.72,299.97 393.56,249.99 395.39,300.01 397.23,299.93 399.07,300.01 400.91,299.93 402.75,300.01 404.59,300.01 406.42,299.89 408.26,299.97 410.10,250.03 411.94,299.93 413.78,299.89 415.62,299.97 417.45,249.94 419.29,300.01 421.13,300.01 422.97,299.97 424.81,249.99 426.65,299.97 428.48,299.97 430.32,300.06 432.16,300.06 434.00,299.93 435.84,300.01 437.68,300.01 439.52,299.93 441.35,300.01 443.19,300.01 445.03,299.97 446.87,300.01 448.71,300.01 450.55,300.01 452.38,300.01 454.22,249.86 456.06,300.01 457.90,300.10 459.74,299.93 461.58,300.01 463.41,299.93 465.25,300.01 467.09,300.01 468.93,300.01 470.77,300.01 472.61,300.01 474.44,299.97 476.28,300.01 478.12,300.01 479.96,300.01 481.80,300.01 483.64,250.03 485.47,300.01 487.31,300.01 489.15,299.97 490.99,300.01 492.83,300.01 494.67,299.97 496.51,299.97 498.34,300.01 500.18,299.97 502.02,300.01 503.86,299.93 505.70,300.01 507.54,250.03 509.37,300.01 511.21,300.01 513.05,300.01 514.89,300.01 516.73,300.01 518.57,299.89 520.40,300.01 522.24,300.01 524.08,250.07 525.92,300.01 527.76,299.93 529.60,300.01 531.43,299.97 533.27,299.97 535.11,299.97 536.95,250.03 538.79,300.01 540.63,300.01 542.46,300.01 544.30,300.01 546.14,299.97 547.98,300.01 549.82,299.97 551.66,300.01 553.49,299.97 555.33,249.90 557.17,300.01 559.01,300.01 560.85,299.89 562.69,299.97 564.53,299.97 566.36,249.99 568.20,299.97 570.04,299.89 571.88,300.01 573.72,299.97 575.56,299.97 577.39,300.01 579.23,299.97 581.07,249.99 582.91,299.97 584.75,299.97 586.59,300.06 588.42,300.06 590.26,249.94 592.10,300.01 593.94,299.93 595.78,300.01 597.62,300.01 599.45,249.99 601.29,300.01 603.13,300.01 604.97,300.01 606.81,299.93 608.65,299.93 610.48,300.01 612.32,300.01 614.16,249.94 616.00,299.97 617.84,299.97 619.68,300.01 621.52,300.01 623.35,300.01 625.19,249.99 627.03,300.01 628.87,300.01 630.71,300.01 632.55,250.03 634.38,300.01 636.22,300.01 638.06,300.01 639.90,299.97 641.74,300.01 643.58,300.01 645.41,299.97 647.25,299.97 649.09,300.01 650.93,300.01 652.77,299.97 654.61,299.93 656.44,300.01 658.28,300.06 660.12,299.97 661.96,300.01 663.80,250.03 665.64,250.03 667.47,299.93 669.31,299.97 671.15,300.01 672.99,300.01 674.83,300.06 676.67,300.01 678.51,299.93 680.34,300.01 682.18,300.01 684.02,299.97 685.86,299.97 687.70,300.01 689.54,250.03 691.37,300.01 693.21,300.01 695.05,300.01 696.89,299.97 698.73,300.01 700.57,299.97 702.40,300.01 704.24,299.97 706.08,299.97 707.92,299.93 709.76,300.01 711.60,300.01 713.43,299.89 715.27,299.97 717.11,299.97 718.95,300.06 720.79,249.90 722.63,299.89 724.46,300.01 726.30,299.97 728.14,299.97 729.98,299.97 731.82,300.01 733.66,300.01 735.49,299.97 737.33,299.97 739.17,299.97 741.01,250.03 742.85,299.93 744.69,300.01 746.53,300.01 748.36,299.93 750.20,300.01 752.04,300.01 753.88,299.97 755.72,300.01 757.56,300.01 759.39,300.06 761.23,300.01 763.07,299.97 764.91,299.89 766.75,300.01 768.59,300.01 770.42,249.94 772.26,249.94 774.10,300.01 775.94,300.01 777.78,300.01 779.62,300.01 781.45,299.97 783.29,250.03 785.13,300.01 786.97,300.01 788.81,300.01 790.65,300.01 792.48,250.03 794.32,249.99 796.16,300.01 798.00,299.97 799.84,300.01 801.68,299.97 803.52,300.01 805.35,299.97 807.19,299.97 809.03,299.97 810.87,300.06 812.71,249.99 814.55,300.01 816.38,250.03 818.22,249.94 820.06,249.99 821.90,300.01 823.74,300.06 825.58,300.01 827.41,299.97 829.25,299.97 831.09,300.01 832.93,299.93 834.77,299.89 836.61,299.89 838.44,299.89 840.28,299.89 842.12,299.85 843.96,299.85 845.80,299.89 847.64,299.81 849.47,299.81 851.31,299.81 853.15,299.76 854.99,299.76 856.83,299.76 858.67,299.72 860.51,299.68 862.34,299.60 864.18,299.60 866.02,299.60 867.86,299.56 869.70,299.47 871.54,299.43 873.37,299.43 875.21,299.39 877.05,299.47 878.89,259.82 880.73,338.96 882.57,299.31 884.40,299.31 886.24,299.26 888.08,299.68 889.92,299.68 891.76,299.68 893.60,299.64 895.43,299.14 897.27,299.14 899.11,299.10 900.95,299.10 902.79,299.10 904.63,248.07 906.46,299.06 908.30,299.06 910.14,299.06 911.98,299.06 913.82,299.06 915.66,298.97 917.49,298.97 919.33,298.93 921.17,298.97 923.01,298.93 924.85,298.89 926.69,298.89 928.53,298.89 930.36,298.89 932.20,247.78 934.04,298.89 935.88,298.89 937.72,298.85 939.56,298.85 941.39,298.81 943.23,298.81 945.07,298.81 946.91,298.81 948.75,298.81 950.59,298.81 952.42,298.81 954.26,298.81 956.10,298.81 957.94,298.72 959.78,247.45 961.62,247.45 963.45,298.72 965.29,298.72 967.13,298.72 968.97,298.72 970.81,298.72 972.65,298.72 974.48,247.36 976.32,298.68 978.16,247.36 980.00,298.68"/>
  <circle cx="70.00" cy="50.00" r="2.5" fill="#2563eb"/>
  <circle cx="71.84" cy="50.12" r="2.5" fill="#2563eb"/>
  <circle cx="73.68" cy="50.17" r="2.5" fill="#2563eb"/>
  <circle cx="75.52" cy="50.46" r="2.5" fill="#2563eb"/>
  <circle cx="77.35" cy="50.00" r="2.5" fill="#2563eb"/>
  <circle cx="79.19" cy="266.90" r="2.5" fill="#2563eb"/>
  <circle cx="81.03" cy="50.12" r="2.5" fill="#2563eb"/>
  <circle cx="82.87" cy="50.08" r="2.5" fill="#2563eb"/>
  <circle cx="84.71" cy="177.46" r="2.5" fill="#2563eb"/>
  <circle cx="86.55" cy="211.58" r="2.5" fill="#2563eb"/>
  <circle cx="88.38" cy="175.34" r="2.5" fill="#2563eb"/>
  <circle cx="90.22" cy="304.14" r="2.5" fill="#2563eb"/>
  <circle cx="92.06" cy="200.46" r="2.5" fill="#2563eb"/>
  <circle cx="93.90" cy="250.94" r="2.5" fill="#2563eb"/>
  <circle cx="95.74" cy="300.01" r="2.5" fill="#2563eb"/>
  <circle cx="97.58" cy="300.06" r="2.5" fill="#2563eb"/>
  <circle cx="99.41" cy="300.01" r="2.5" fill="#2563eb"/>
  <circle cx="101.25" cy="300.01" r="2.5" fill="#2563eb"/>
  <circle cx="103.09" cy="348.00" r="2.5" fill="#2563eb"/>
  <circle cx="104.93" cy="300.01" r="2.5" fill="#2563eb"/>
  <circle cx="106.77" cy="249.99" r="2.5" fill="#2563eb"/>
  <circle cx="108.61" cy="200.00" r="2.5" fill="#2563eb"/>
  <circle cx="110.44" cy="249.99" r="2.5" fill="#2563eb"/>
  <circle cx="112.28" cy="249.99" r="2.5" fill="#2563eb"/>
  <circle cx="114.12" cy="250.03" r="2.5" fill="#2563eb"/>
  <circle cx="115.96" cy="250.03" r="2.5" fill="#2563eb"/>
  <circle cx="117.80" cy="250.03" r="2.5" fill="#2563eb"/>
  <circle cx="119.64" cy="250.40" r="2.5" fill="#2563eb"/>
  <circle cx="121.47" cy="250.90" r="2.5" fill="#2563eb"/>
  <circle cx="123.31" cy="250.90" r="2.5" fill="#2563eb"/>
  <circle cx="125.15" cy="251.32" r="2.5" fill="#2563eb"/>
  <circle cx="126.99" cy="249.94" r="2.5" fill="#2563eb"/>
  <circle cx="128.83" cy="300.01" r="2.5" fill="#2563eb"/>
  <circle cx="130.67" cy="299.93" r="2.5" fill="#2563eb"/>
  <circle cx="132.51" cy="251.03" r="2.5" fill="#2563eb"/>
  <circle cx="134.34" cy="300.68" r="2.5" fill="#2563eb"/>
  <circle cx="136.18" cy="250.03" r="2.5" fill="#2563eb"/>
  <circle cx="138.02" cy="200.00" r="2.5" fill="#2563eb"/>
  <circle cx="139.86" cy="249.99" r="2.5" fill="#2563eb"/>
  <circle cx="141.70" cy="250.03" r="2.5" fill="#2563eb"/>
  <circle cx="143.54" cy="250.03" r="2.5" fill="#2563eb"/>
  <circle cx="145.37" cy="250.03" r="2.5" fill="#2563eb"/>
  <circle cx="147.21" cy="300.01" r="2.5" fill="#2563eb"/>
  <circle cx="149.05" cy="200.04" r="2.5" fill="#2563eb"/>
  <circle cx="150.89" cy="250.03" r="2.5" fill="#2563eb"/>
  <circle cx="152.73" cy="250.03" r="2.5" fill="#2563eb"/>
  <circle cx="154.57" cy="250.03" r="2.5" fill="#2563eb"/>
  <circle cx="156.40" cy="249.90" r="2.5" fill="#2563eb"/>
  <circle cx="158.24" cy="250.03" r="2.5" fill="#2563eb"/>
  <circle cx="160.08" cy="250.03" r="2.5" fill="#2563eb"/>
  <circle cx="161.92" cy="250.94" r="2.5" fill="#2563eb"/>
  <circle cx="163.76" cy="250.44" r="2.5" fill="#2563eb"/>
  <circle cx="165.60" cy="250.03" r="2.5" fill="#2563eb"/>
  <circle cx="167.43" cy="250.03" r="2.5" fill="#2563eb"/>
  <circle cx="169.27" cy="300.47" r="2.5" fill="#2563eb"/>
  <circle cx="171.11" cy="300.01" r="2.5" fill="#2563eb"/>
  <circle cx="172.95" cy="300.43" r="2.5" fill="#2563eb"/>
  <circle cx="174.79" cy="250.03" r="2.5" fill="#2563eb"/>
  <circle cx="176.63" cy="249.99" r="2.5" fill="#2563eb"/>
  <circle cx="178.46" cy="300.43" r="2.5" fill="#2563eb"/>
  <circle cx="180.30" cy="249.90" r="2.5" fill="#2563eb"/>
  <circle cx="182.14" cy="249.99" r="2.5" fill="#2563eb"/>
  <circle cx="183.98" cy="249.99" r="2.5" fill="#2563eb"/>
  <circle cx="185.82" cy="200.04" r="2.5" fill="#2563eb"/>
  <circle cx="187.66" cy="300.01" r="2.5" fill="#2563eb"/>
  <circle cx="189.49" cy="300.01" r="2.5" fill="#2563eb"/>
  <circle cx="191.33" cy="300.01" r="2.5" fill="#2563eb"/>
  <circle cx="193.17" cy="249.90" r="2.5" fill="#2563eb"/>
  <circle cx="195.01" cy="300.01" r="2.5" fill="#2563eb"/>
  <circle cx="196.85" cy="250.03" r="2.5" fill="#2563eb"/>
  <circle cx="198.69" cy="249.99" r="2.5" fill="#2563eb"/>
  <circle cx="200.53" cy="199.96" r="2.5" fill="#2563eb"/>
  <circle cx="202.36" cy="300.01" r="2.5" fill="#2563eb"/>
  <circle cx="204.20" cy="200.00" r="2.5" fill="#2563eb"/>
  <circle cx="206.04" cy="250.36" r="2.5" fill="#2563eb"/>
  <circle cx="207.88" cy="250.03" r="2.5" fill="#2563eb"/>
  <circle cx="209.72" cy="300.01" r="2.5" fill="#2563eb"/>
  <circle cx="211.56" cy="300.01" r="2.5" fill="#2563eb"/>
  <circle cx="213.39" cy="250.44" r="2.5" fill="#2563eb"/>
  <circle cx="215.23" cy="300.01" r="2.5" fill="#2563eb"/>
  <circle cx="217.07" cy="250.03" r="2.5" fill="#2563eb"/>
  <circle cx="218.91" cy="250.03" r="2.5" fill="#2563eb"/>
  <circle cx="220.75" cy="249.99" r="2.5" fill="#2563eb"/>
  <circle cx="222.59" cy="250.49" r="2.5" fill="#2563eb"/>
  <circle cx="224.42" cy="250.03" r="2.5" fill="#2563eb"/>
  <circle cx="226.26" cy="200.04" r="2.5" fill="#2563eb"/>
  <circle cx="228.10" cy="300.01" r="2.5" fill="#2563eb"/>
  <circle cx="229.94" cy="250.03" r="2.5" fill="#2563eb"/>
  <circle cx="231.78" cy="300.01" r="2.5" fill="#2563eb"/>
  <circle cx="233.62" cy="250.11" r="2.5" fill="#2563eb"/>
  <circle cx="235.45" cy="300.01" r="2.5" fill="#2563eb"/>
  <circle cx="237.29" cy="250.03" r="2.5" fill="#2563eb"/>
  <circle cx="239.13" cy="250.03" r="2.5" fill="#2563eb"/>
  <circle cx="240.97" cy="199.92" r="2.5" fill="#2563eb"/>
  <circle cx="242.81" cy="250.03" r="2.5" fill="#2563eb"/>
  <circle cx="244.65" cy="250.03" r="2.5" fill="#2563eb"/>
  <circle cx="246.48" cy="250.03" r="2.5" fill="#2563eb"/>
  <circle cx="248.32" cy="254.36" r="2.5" fill="#2563eb"/>
  <circle cx="250.16" cy="300.01" r="2.5" fill="#2563eb"/>
  <circle cx="252.00" cy="299.97" r="2.5" fill="#2563eb"/>
  <circle cx="253.84" cy="250.36" r="2.5" fill="#2563eb"/>
  <circle cx="255.68" cy="299.97" r="2.5" fill="#2563eb"/>
  <circle cx="257.52" cy="250.03" r="2.5" fill="#2563eb"/>
  <circle cx="259.35" cy="250.03" r="2.5" fill="#2563eb"/>
  <circle cx="261.19" cy="250.03" r="2.5" fill="#2563eb"/>
  <circle cx="263.03" cy="250.03" r="2.5" fill="#2563eb"/>
  <circle cx="264.87" cy="249.99" r="2.5" fill="#2563eb"/>
  <circle cx="266.71" cy="200.00" r="2.5" fill="#2563eb"/>
  <circle cx="268.55" cy="299.93" r="2.5" fill="#2563eb"/>
  <circle cx="270.38" cy="300.01" r="2.5" fill="#2563eb"/>
  <circle cx="272.22" cy="299.97" r="2.5" fill="#2563eb"/>
  <circle cx="274.06" cy="249.94" r="2.5" fill="#2563eb"/>
  <circle cx="275.90" cy="249.99" r="2.5" fill="#2563eb"/>
  <circle cx="277.74" cy="249.82" r="2.5" fill="#2563eb"/>
  <circle cx="279.58" cy="249.94" r="2.5" fill="#2563eb"/>
  <circle cx="281.41" cy="250.28" r="2.5" fill="#2563eb"/>
  <circle cx="283.25" cy="207.00" r="2.5" fill="#2563eb"/>
  <circle cx="285.09" cy="250.03" r="2.5" fill="#2563eb"/>
  <circle cx="286.93" cy="250.32" r="2.5" fill="#2563eb"/>
  <circle cx="288.77" cy="250.40" r="2.5" fill="#2563eb"/>
  <circle cx="290.61" cy="300.93" r="2.5" fill="#2563eb"/>
  <circle cx="292.44" cy="300.01" r="2.5" fill="#2563eb"/>
  <circle cx="294.28" cy="300.10" r="2.5" fill="#2563eb"/>
  <circle cx="296.12" cy="249.94" r="2.5" fill="#2563eb"/>
  <circle cx="297.96" cy="249.99" r="2.5" fill="#2563eb"/>
  <circle cx="299.80" cy="250.07" r="2.5" fill="#2563eb"/>
  <circle cx="301.64" cy="249.99" r="2.5" fill="#2563eb"/>
  <circle cx="303.47" cy="250.03" r="2.5" fill="#2563eb"/>
  <circle cx="305.31" cy="249.94" r="2.5" fill="#2563eb"/>
  <circle cx="307.15" cy="200.00" r="2.5" fill="#2563eb"/>
  <circle cx="308.99" cy="300.39" r="2.5" fill="#2563eb"/>
  <circle cx="310.83" cy="300.01" r="2.5" fill="#2563eb"/>
  <circle cx="312.67" cy="300.01" r="2.5" fill="#2563eb"/>
  <circle cx="314.51" cy="250.44" r="2.5" fill="#2563eb"/>
  <circle cx="316.34" cy="300.39" r="2.5" fill="#2563eb"/>
  <circle cx="318.18" cy="249.86" r="2.5" fill="#2563eb"/>
  <circle cx="320.02" cy="250.11" r="2.5" fill="#2563eb"/>
  <circle cx="321.86" cy="201.46" r="2.5" fill="#2563eb"/>
  <circle cx="323.70" cy="300.01" r="2.5" fill="#2563eb"/>
  <circle cx="325.54" cy="200.83" r="2.5" fill="#2563eb"/>
  <circle cx="327.37" cy="250.03" r="2.5" fill="#2563eb"/>
  <circle cx="329.21" cy="249.99" r="2.5" fill="#2563eb"/>
  <circle cx="331.05" cy="300.26" r="2.5" fill="#2563eb"/>
  <circle cx="332.89" cy="300.01" r="2.5" fill="#2563eb"/>
  <circle cx="334.73" cy="300.01" r="2.5" fill="#2563eb"/>
  <circle cx="336.57" cy="250.03" r="2.5" fill="#2563eb"/>
  <circle cx="338.40" cy="250.03" r="2.5" fill="#2563eb"/>
  <circle cx="340.24" cy="250.03" r="2.5" fill="#2563eb"/>
  <circle cx="342.08" cy="250.03" r="2.5" fill="#2563eb"/>
  <circle cx="343.92" cy="249.99" r="2.5" fill="#2563eb"/>
  <circle cx="345.76" cy="250.03" r="2.5" fill="#2563eb"/>
  <circle cx="347.60" cy="200.00" r="2.5" fill="#2563eb"/>
  <circle cx="349.43" cy="300.26" r="2.5" fill="#2563eb"/>
  <circle cx="351.27" cy="249.99" r="2.5" fill="#2563eb"/>
  <circle cx="353.11" cy="300.01" r="2.5" fill="#2563eb"/>
  <circle cx="354.95" cy="249.94" r="2.5" fill="#2563eb"/>
  <circle cx="356.79" cy="250.03" r="2.5" fill="#2563eb"/>
  <circle cx="358.63" cy="250.03" r="2.5" fill="#2563eb"/>
  <circle cx="360.46" cy="250.03" r="2.5" fill="#2563eb"/>
  <circle cx="362.30" cy="200.04" r="2.5" fill="#2563eb"/>
  <circle cx="364.14" cy="300.01" r="2.5" fill="#2563eb"/>
  <circle cx="365.98" cy="249.90" r="2.5" fill="#2563eb"/>
  <circle cx="367.82" cy="300.01" r="2.5" fill="#2563eb"/>
  <circle cx="369.66" cy="300.01" r="2.5" fill="#2563eb"/>
  <circle cx="371.49" cy="300.06" r="2.5" fill="#2563eb"/>
  <circle cx="373.33" cy="300.01" r="2.5" fill="#2563eb"/>
  <circle cx="375.17" cy="300.01" r="2.5" fill="#2563eb"/>
  <circle cx="377.01" cy="243.95" r="2.5" fill="#2563eb"/>
  <circle cx="378.85" cy="249.94" r="2.5" fill="#2563eb"/>
  <circle cx="380.69" cy="299.97" r="2.5" fill="#2563eb"/>
  <circle cx="382.53" cy="300.01" r="2.5" fill="#2563eb"/>
  <circle cx="384.36" cy="300.01" r="2.5" fill="#2563eb"/>
  <circle cx="386.20" cy="250.03" r="2.5" fill="#2563eb"/>
  <circle cx="388.04" cy="300.01" r="2.5" fill="#2563eb"/>
  <circle cx="389.88" cy="300.01" r="2.5" fill="#2563eb"/>
  <circle cx="391.72" cy="299.97" r="2.5" fill="#2563eb"/>
  <circle cx="393.56" cy="249.99" r="2.5" fill="#2563eb"/>
  <circle cx="395.39" cy="300.01" r="2.5" fill="#2563eb"/>
  <circle cx="397.23" cy="299.93" r="2.5" fill="#2563eb"/>
  <circle cx="399.07" cy="300.01" r="2.5" fill="#2563eb"/>
  <circle cx="400.91" cy="299.93" r="2.5" fill="#2563eb"/>
  <circle cx="402.75" cy="300.01" r="2.5" fill="#2563eb"/>
  <circle cx="404.59" cy="300.01" r="2.5" fill="#2563eb"/>
  <circle cx="406.42" cy="299.89" r="2.5" fill="#2563eb"/>
  <circle cx="408.26" cy="299.97" r="2.5" fill="#2563eb"/>
  <circle cx="410.10" cy="250.03" r="2.5" fill="#2563eb"/>
  <circle cx="411.94" cy="299.93" r="2.5" fill="#2563eb"/>
  <circle cx="413.78" cy="299.89" r="2.5" fill="#2563eb"/>
  <circle cx="415.62" cy="299.97" r="2.5" fill="#2563eb"/>
  <circle cx="417.45" cy="249.94" r="2.5" fill="#2563eb"/>
  <circle cx="419.29" cy="300.01" r="2.5" fill="#2563eb"/>
  <circle cx="421.13" cy="300.01" r="2.5" fill="#2563eb"/>
  <circle cx="422.97" cy="299.97" r="2.5" fill="#2563eb"/>
  <circle cx="424.81" cy="249.99" r="2.5" fill="#2563eb"/>
  <circle cx="426.65" cy="299.97" r="2.5" fill="#2563eb"/>
  <circle cx="428.48" cy="299.97" r="2.5" fill="#2563eb"/>
  <circle cx="430.32" cy="300.06" r="2.5" fill="#2563eb"/>
  <circle cx="432.16" cy="300.06" r="2.5" fill="#2563eb"/>
  <circle cx="434.00" cy="299.93" r="2.5" fill="#2563eb"/>
  <circle cx="435.84" cy="300.01" r="2.5" fill="#2563eb"/>
  <circle cx="437.68" cy="300.01" r="2.5" fill="#2563eb"/>
  <circle cx="439.52" cy="299.93" r="2.5" fill="#2563eb"/>
  <circle cx="441.35" cy="300.01" r="2.5" fill="#2563eb"/>
  <circle cx="443.19" cy="300.01" r="2.5" fill="#2563eb"/>
  <circle cx="445.03" cy="299.97" r="2.5" fill="#2563eb"/>
  <circle cx="446.87" cy="300.01" r="2.5" fill="#2563eb"/>
  <circle cx="448.71" cy="300.01" r="2.5" fill="#2563eb"/>
  <circle cx="450.55" cy="300.01" r="2.5" fill="#2563eb"/>
  <circle cx="452.38" cy="300.01" r="2.5" fill="#2563eb"/>
  <circle cx="454.22" cy="249.86" r="2.5" fill="#2563eb"/>
  <circle cx="456.06" cy="300.01" r="2.5" fill="#2563eb"/>
  <circle cx="457.90" cy="300.10" r="2.5" fill="#2563eb"/>
  <circle cx="459.74" cy="299.93" r="2.5" fill="#2563eb"/>
  <circle cx="461.58" cy="300.01" r="2.5" fill="#2563eb"/>
  <circle cx="463.41" cy="299.93" r="2.5" fill="#2563eb"/>
  <circle cx="465.25" cy="300.01" r="2.5" fill="#2563eb"/>
  <circle cx="467.09" cy="300.01" r="2.5" fill="#2563eb"/>
  <circle cx="468.93" cy="300.01" r="2.5" fill="#2563eb"/>
  <circle cx="470.77" cy="300.01" r="2.5" fill="#2563eb"/>
  <circle cx="472.61" cy="300.01" r="2.5" fill="#2563eb"/>
  <circle cx="474.44" cy="299.97" r="2.5" fill="#2563eb"/>
  <circle cx="476.28" cy="300.01" r="2.5" fill="#2563eb"/>
  <circle cx="478.12" cy="300.01" r="2.5" fill="#2563eb"/>
  <circle cx="479.96" cy="300.01" r="2.5" fill="#2563eb"/>
  <circle cx="481.80" cy="300.01" r="2.5" fill="#2563eb"/>
  <circle cx="483.64" cy="250.03" r="2.5" fill="#2563eb"/>
  <circle cx="485.47" cy="300.01" r="2.5" fill="#2563eb"/>
  <circle cx="487.31" cy="300.01" r="2.5" fill="#2563eb"/>
  <circle cx="489.15" cy="299.97" r="2.5" fill="#2563eb"/>
  <circle cx="490.99" cy="300.01" r="2.5" fill="#2563eb"/>
  <circle cx="492.83" cy="300.01" r="2.5" fill="#2563eb"/>
  <circle cx="494.67" cy="299.97" r="2.5" fill="#2563eb"/>
  <circle cx="496.51" cy="299.97" r="2.5" fill="#2563eb"/>
  <circle cx="498.34" cy="300.01" r="2.5" fill="#2563eb"/>
  <circle cx="500.18" cy="299.97" r="2.5" fill="#2563eb"/>
  <circle cx="502.02" cy="300.01" r="2.5" fill="#2563eb"/>
  <circle cx="503.86" cy="299.93" r="2.5" fill="#2563eb"/>
  <circle cx="505.70" cy="300.01" r="2.5" fill="#2563eb"/>
  <circle cx="507.54" cy="250.03" r="2.5" fill="#2563eb"/>
  <circle cx="509.37" cy="300.01" r="2.5" fill="#2563eb"/>
  <circle cx="511.21" cy="300.01" r="2.5" fill="#2563eb"/>
  <circle cx="513.05" cy="300.01" r="2.5" fill="#2563eb"/>
  <circle cx="514.89" cy="300.01" r="2.5" fill="#2563eb"/>
  <circle cx="516.73" cy="300.01" r="2.5" fill="#2563eb"/>
  <circle cx="518.57" cy="299.89" r="2.5" fill="#2563eb"/>
  <circle cx="520.40" cy="300.01" r="2.5" fill="#2563eb"/>
  <circle cx="522.24" cy="300.01" r="2.5" fill="#2563eb"/>
  <circle cx="524.08" cy="250.07" r="2.5" fill="#2563eb"/>
  <circle cx="525.92" cy="300.01" r="2.5" fill="#2563eb"/>
  <circle cx="527.76" cy="299.93" r="2.5" fill="#2563eb"/>
  <circle cx="529.60" cy="300.01" r="2.5" fill="#2563eb"/>
  <circle cx="531.43" cy="299.97" r="2.5" fill="#2563eb"/>
  <circle cx="533.27" cy="299.97" r="2.5" fill="#2563eb"/>
  <circle cx="535.11" cy="299.97" r="2.5" fill="#2563eb"/>
  <circle cx="536.95" cy="250.03" r="2.5" fill="#2563eb"/>
  <circle cx="538.79" cy="300.01" r="2.5" fill="#2563eb"/>
  <circle cx="540.63" cy="300.01" r="2.5" fill="#2563eb"/>
  <circle cx="542.46" cy="300.01" r="2.5" fill="#2563eb"/>
  <circle cx="544.30" cy="300.01" r="2.5" fill="#2563eb"/>
  <circle cx="546.14" cy="299.97" r="2.5" fill="#2563eb"/>
  <circle cx="547.98" cy="300.01" r="2.5" fill="#2563eb"/>
  <circle cx="549.82" cy="299.97" r="2.5" fill="#2563eb"/>
  <circle cx="551.66" cy="300.01" r="2.5" fill="#2563eb"/>
  <circle cx="553.49" cy="299.97" r="2.5" fill="#2563eb"/>
  <circle cx="555.33" cy="249.90" r="2.5" fill="#2563eb"/>
  <circle cx="557.17" cy="300.01" r="2.5" fill="#2563eb"/>
  <circle cx="559.01" cy="300.01" r="2.5" fill="#2563eb"/>
  <circle cx="560.85" cy="299.89" r="2.5" fill="#2563eb"/>
  <circle cx="562.69" cy="299.97" r="2.5" fill="#2563eb"/>
  <circle cx="564.53" cy="299.97" r="2.5" fill="#2563eb"/>
  <circle cx="566.36" cy="249.99" r="2.5" fill="#2563eb"/>
  <circle cx="568.20" cy="299.97" r="2.5" fill="#2563eb"/>
  <circle cx="570.04" cy="299.89" r="2.5" fill="#2563eb"/>
  <circle cx="571.88" cy="300.01" r="2.5" fill="#2563eb"/>
  <circle cx="573.72" cy="299.97" r="2.5" fill="#2563eb"/>
  <circle cx="575.56" cy="299.97" r="2.5" fill="#2563eb"/>
  <circle cx="577.39" cy="300.01" r="2.5" fill="#2563eb"/>
  <circle cx="579.23" cy="299.97" r="2.5" fill="#2563eb"/>
  <circle cx="581.07" cy="249.99" r="2.5" fill="#2563eb"/>
  <circle cx="582.91" cy="299.97" r="2.5" fill="#2563eb"/>
  <circle cx="584.75" cy="299.97" r="2.5" fill="#2563eb"/>
  <circle cx="586.59" cy="300.06" r="2.5" fill="#2563eb"/>
  <circle cx="588.42" cy="300.06" r="2.5" fill="#2563eb"/>
  <circle cx="590.26" cy="249.94" r="2.5" fill="#2563eb"/>
  <circle cx="592.10" cy="300.01" r="2.5" fill="#2563eb"/>
  <circle cx="593.94" cy="299.93" r="2.5" fill="#2563eb"/>
  <circle cx="595.78" cy="300.01" r="2.5" fill="#2563eb"/>
  <circle cx="597.62" cy="300.01" r="2.5" fill="#2563eb"/>
  <circle cx="599.45" cy="249.99" r="2.5" fill="#2563eb"/>
  <circle cx="601.29" cy="300.01" r="2.5" fill="#2563eb"/>
  <circle cx="603.13" cy="300.01" r="2.5" fill="#2563eb"/>
  <circle cx="604.97" cy="300.01" r="2.5" fill="#2563eb"/>
  <circle cx="606.81" cy="299.93" r="2.5" fill="#2563eb"/>
  <circle cx="608.65" cy="299.93" r="2.5" fill="#2563eb"/>
  <circle cx="610.48" cy="300.01" r="2.5" fill="#2563eb"/>
  <circle cx="612.32" cy="300.01" r="2.5" fill="#2563eb"/>
  <circle cx="614.16" cy="249.94" r="2.5" fill="#2563eb"/>
  <circle cx="616.00" cy="299.97" r="2.5" fill="#2563eb"/>
  <circle cx="617.84" cy="299.97" r="2.5" fill="#2563eb"/>
  <circle cx="619.68" cy="300.01" r="2.5" fill="#2563eb"/>
  <circle cx="621.52" cy="300.01" r="2.5" fill="#2563eb"/>
  <circle cx="623.35" cy="300.01" r="2.5" fill="#2563eb"/>
  <circle cx="625.19" cy="249.99" r="2.5" fill="#2563eb"/>
  <circle cx="627.03" cy="300.01" r="2.5" fill="#2563eb"/>
  <circle cx="628.87" cy="300.01" r="2.5" fill="#2563eb"/>
  <circle cx="630.71" cy="300.01" r="2.5" fill="#2563eb"/>
  <circle cx="632.55" cy="250.03" r="2.5" fill="#2563eb"/>
  <circle cx="634.38" cy="300.01" r="2.5" fill="#2563eb"/>
  <circle cx="636.22" cy="300.01" r="2.5" fill="#2563eb"/>
  <circle cx="638.06" cy="300.01" r="2.5" fill="#2563eb"/>
  <circle cx="639.90" cy="299.97" r="2.5" fill="#2563eb"/>
  <circle cx="641.74" cy="300.01" r="2.5" fill="#2563eb"/>
  <circle cx="643.58" cy="300.01" r="2.5" fill="#2563eb"/>
  <circle cx="645.41" cy="299.97" r="2.5" fill="#2563eb"/>
  <circle cx="647.25" cy="299.97" r="2.5" fill="#2563eb"/>
  <circle cx="649.09" cy="300.01" r="2.5" fill="#2563eb"/>
  <circle cx="650.93" cy="300.01" r="2.5" fill="#2563eb"/>
  <circle cx="652.77" cy="299.97" r="2.5" fill="#2563eb"/>
  <circle cx="654.61" cy="299.93" r="2.5" fill="#2563eb"/>
  <circle cx="656.44" cy="300.01" r="2.5" fill="#2563eb"/>
  <circle cx="658.28" cy="300.06" r="2.5" fill="#2563eb"/>
  <circle cx="660.12" cy="299.97" r="2.5" fill="#2563eb"/>
  <circle cx="661.96" cy="300.01" r="2.5" fill="#2563eb"/>
  <circle cx="663.80" cy="250.03" r="2.5" fill="#2563eb"/>
  <circle cx="665.64" cy="250.03" r="2.5" fill="#2563eb"/>
  <circle cx="667.47" cy="299.93" r="2.5" fill="#2563eb"/>
  <circle cx="669.31" cy="299.97" r="2.5" fill="#2563eb"/>
  <circle cx="671.15" cy="300.01" r="2.5" fill="#2563eb"/>
  <circle cx="672.99" cy="300.01" r="2.5" fill="#2563eb"/>
  <circle cx="674.83" cy="300.06" r="2.5" fill="#2563eb"/>
  <circle cx="676.67" cy="300.01" r="2.5" fill="#2563eb"/>
  <circle cx="678.51" cy="299.93" r="2.5" fill="#2563eb"/>
  <circle cx="680.34" cy="300.01" r="2.5" fill="#2563eb"/>
  <circle cx="682.18" cy="300.01" r="2.5" fill="#2563eb"/>
  <circle cx="684.02" cy="299.97" r="2.5" fill="#2563eb"/>
  <circle cx="685.86" cy="299.97" r="2.5" fill="#2563eb"/>
  <circle cx="687.70" cy="300.01" r="2.5" fill="#2563eb"/>
  <circle cx="689.54" cy="250.03" r="2.5" fill="#2563eb"/>
  <circle cx="691.37" cy="300.01" r="2.5" fill="#2563eb"/>
  <circle cx="693.21" cy="300.01" r="2.5" fill="#2563eb"/>
  <circle cx="695.05" cy="300.01" r="2.5" fill="#2563eb"/>
  <circle cx="696.89" cy="299.97" r="2.5" fill="#2563eb"/>
  <circle cx="698.73" cy="300.01" r="2.5" fill="#2563eb"/>
  <circle cx="700.57" cy="299.97" r="2.5" fill="#2563eb"/>
  <circle cx="702.40" cy="300.01" r="2.5" fill="#2563eb"/>
  <circle cx="704.24" cy="299.97" r="2.5" fill="#2563eb"/>
  <circle cx="706.08" cy="299.97" r="2.5" fill="#2563eb"/>
  <circle cx="707.92" cy="299.93" r="2.5" fill="#2563eb"/>
  <circle cx="709.76" cy="300.01" r="2.5" fill="#2563eb"/>
  <circle cx="711.60" cy="300.01" r="2.5" fill="#2563eb"/>
  <circle cx="713.43" cy="299.89" r="2.5" fill="#2563eb"/>
  <circle cx="715.27" cy="299.97" r="2.5" fill="#2563eb"/>
  <circle cx="717.11" cy="299.97" r="2.5" fill="#2563eb"/>
  <circle cx="718.95" cy="300.06" r="2.5" fill="#2563eb"/>
  <circle cx="720.79" cy="249.90" r="2.5" fill="#2563eb"/>
  <circle cx="722.63" cy="299.89" r="2.5" fill="#2563eb"/>
  <circle cx="724.46" cy="300.01" r="2.5" fill="#2563eb"/>
  <circle cx="726.30" cy="299.97" r="2.5" fill="#2563eb"/>
  <circle cx="728.14" cy="299.97" r="2.5" fill="#2563eb"/>
  <circle cx="729.98" cy="299.97" r="2.5" fill="#2563eb"/>
  <circle cx="731.82" cy="300.01" r="2.5" fill="#2563eb"/>
  <circle cx="733.66" cy="300.01" r="2.5" fill="#2563eb"/>
  <circle cx="735.49" cy="299.97" r="2.5" fill="#2563eb"/>
  <circle cx="737.33" cy="299.97" r="2.5" fill="#2563eb"/>
  <circle cx="739.17" cy="299.97" r="2.5" fill="#2563eb"/>
  <circle cx="741.01" cy="250.03" r="2.5" fill="#2563eb"/>
  <circle cx="742.85" cy="299.93" r="2.5" fill="#2563eb"/>
  <circle cx="744.69" cy="300.01" r="2.5" fill="#2563eb"/>
  <circle cx="746.53" cy="300.01" r="2.5" fill="#2563eb"/>
  <circle cx="748.36" cy="299.93" r="2.5" fill="#2563eb"/>
  <circle cx="750.20" cy="300.01" r="2.5" fill="#2563eb"/>
  <circle cx="752.04" cy="300.01" r="2.5" fill="#2563eb"/>
  <circle cx="753.88" cy="299.97" r="2.5" fill="#2563eb"/>
  <circle cx="755.72" cy="300.01" r="2.5" fill="#2563eb"/>
  <circle cx="757.56" cy="300.01" r="2.5" fill="#2563eb"/>
  <circle cx="759.39" cy="300.06" r="2.5" fill="#2563eb"/>
  <circle cx="761.23" cy="300.01" r="2.5" fill="#2563eb"/>
  <circle cx="763.07" cy="299.97" r="2.5" fill="#2563eb"/>
  <circle cx="764.91" cy="299.89" r="2.5" fill="#2563eb"/>
  <circle cx="766.75" cy="300.01" r="2.5" fill="#2563eb"/>
  <circle cx="768.59" cy="300.01" r="2.5" fill="#2563eb"/>
  <circle cx="770.42" cy="249.94" r="2.5" fill="#2563eb"/>
  <circle cx="772.26" cy="249.94" r="2.5" fill="#2563eb"/>
  <circle cx="774.10" cy="300.01" r="2.5" fill="#2563eb"/>
  <circle cx="775.94" cy="300.01" r="2.5" fill="#2563eb"/>
  <circle cx="777.78" cy="300.01" r="2.5" fill="#2563eb"/>
  <circle cx="779.62" cy="300.01" r="2.5" fill="#2563eb"/>
  <circle cx="781.45" cy="299.97" r="2.5" fill="#2563eb"/>
  <circle cx="783.29" cy="250.03" r="2.5" fill="#2563eb"/>
  <circle cx="785.13" cy="300.01" r="2.5" fill="#2563eb"/>
  <circle cx="786.97" cy="300.01" r="2.5" fill="#2563eb"/>
  <circle cx="788.81" cy="300.01" r="2.5" fill="#2563eb"/>
  <circle cx="790.65" cy="300.01" r="2.5" fill="#2563eb"/>
  <circle cx="792.48" cy="250.03" r="2.5" fill="#2563eb"/>
  <circle cx="794.32" cy="249.99" r="2.5" fill="#2563eb"/>
  <circle cx="796.16" cy="300.01" r="2.5" fill="#2563eb"/>
  <circle cx="798.00" cy="299.97" r="2.5" fill="#2563eb"/>
  <circle cx="799.84" cy="300.01" r="2.5" fill="#2563eb"/>
  <circle cx="801.68" cy="299.97" r="2.5" fill="#2563eb"/>
  <circle cx="803.52" cy="300.01" r="2.5" fill="#2563eb"/>
  <circle cx="805.35" cy="299.97" r="2.5" fill="#2563eb"/>
  <circle cx="807.19" cy="299.97" r="2.5" fill="#2563eb"/>
  <circle cx="809.03" cy="299.97" r="2.5" fill="#2563eb"/>
  <circle cx="810.87" cy="300.06" r="2.5" fill="#2563eb"/>
  <circle cx="812.71" cy="249.99" r="2.5" fill="#2563eb"/>
  <circle cx="814.55" cy="300.01" r="2.5" fill="#2563eb"/>
  <circle cx="816.38" cy="250.03" r="2.5" fill="#2563eb"/>
  <circle cx="818.22" cy="249.94" r="2.5" fill="#2563eb"/>
  <circle cx="820.06" cy="249.99" r="2.5" fill="#2563eb"/>
  <circle cx="821.90" cy="300.01" r="2.5" fill="#2563eb"/>
  <circle cx="823.74" cy="300.06" r="2.5" fill="#2563eb"/>
  <circle cx="825.58" cy="300.01" r="2.5" fill="#2563eb"/>
  <circle cx="827.41" cy="299.97" r="2.5" fill="#2563eb"/>
  <circle cx="829.25" cy="299.97" r="2.5" fill="#2563eb"/>
  <circle cx="831.09" cy="300.01" r="2.5" fill="#2563eb"/>
  <circle cx="832.93" cy="299.93" r="2.5" fill="#2563eb"/>
  <circle cx="834.77" cy="299.89" r="2.5" fill="#2563eb"/>
  <circle cx="836.61" cy="299.89" r="2.5" fill="#2563eb"/>
  <circle cx="838.44" cy="299.89" r="2.5" fill="#2563eb"/>
  <circle cx="840.28" cy="299.89" r="2.5" fill="#2563eb"/>
  <circle cx="842.12" cy="299.85" r="2.5" fill="#2563eb"/>
  <circle cx="843.96" cy="299.85" r="2.5" fill="#2563eb"/>
  <circle cx="845.80" cy="299.89" r="2.5" fill="#2563eb"/>
  <circle cx="847.64" cy="299.81" r="2.5" fill="#2563eb"/>
  <circle cx="849.47" cy="299.81" r="2.5" fill="#2563eb"/>
  <circle cx="851.31" cy="299.81" r="2.5" fill="#2563eb"/>
  <circle cx="853.15" cy="299.76" r="2.5" fill="#2563eb"/>
  <circle cx="854.99" cy="299.76" r="2.5" fill="#2563eb"/>
  <circle cx="856.83" cy="299.76" r="2.5" fill="#2563eb"/>
  <circle cx="858.67" cy="299.72" r="2.5" fill="#2563eb"/>
  <circle cx="860.51" cy="299.68" r="2.5" fill="#2563eb"/>
  <circle cx="862.34" cy="299.60" r="2.5" fill="#2563eb"/>
  <circle cx="864.18" cy="299.60" r="2.5" fill="#2563eb"/>
  <circle cx="866.02" cy="299.60" r="2.5" fill="#2563eb"/>
  <circle cx="867.86" cy="299.56" r="2.5" fill="#2563eb"/>
  <circle cx="869.70" cy="299.47" r="2.5" fill="#2563eb"/>
  <circle cx="871.54" cy="299.43" r="2.5" fill="#2563eb"/>
  <circle cx="873.37" cy="299.43" r="2.5" fill="#2563eb"/>
  <circle cx="875.21" cy="299.39" r="2.5" fill="#2563eb"/>
  <circle cx="877.05" cy="299.47" r="2.5" fill="#2563eb"/>
  <circle cx="878.89" cy="259.82" r="2.5" fill="#2563eb"/>
  <circle cx="880.73" cy="338.96" r="2.5" fill="#2563eb"/>
  <circle cx="882.57" cy="299.31" r="2.5" fill="#2563eb"/>
  <circle cx="884.40" cy="299.31" r="2.5" fill="#2563eb"/>
  <circle cx="886.24" cy="299.26" r="2.5" fill="#2563eb"/>
  <circle cx="888.08" cy="299.68" r="2.5" fill="#2563eb"/>
  <circle cx="889.92" cy="299.68" r="2.5" fill="#2563eb"/>
  <circle cx="891.76" cy="299.68" r="2.5" fill="#2563eb"/>
  <circle cx="893.60" cy="299.64" r="2.5" fill="#2563eb"/>
  <circle cx="895.43" cy="299.14" r="2.5" fill="#2563eb"/>
  <circle cx="897.27" cy="299.14" r="2.5" fill="#2563eb"/>
  <circle cx="899.11" cy="299.10" r="2.5" fill="#2563eb"/>
  <circle cx="900.95" cy="299.10" r="2.5" fill="#2563eb"/>
  <circle cx="902.79" cy="299.10" r="2.5" fill="#2563eb"/>
  <circle cx="904.63" cy="248.07" r="2.5" fill="#2563eb"/>
  <circle cx="906.46" cy="299.06" r="2.5" fill="#2563eb"/>
  <circle cx="908.30" cy="299.06" r="2.5" fill="#2563eb"/>
  <circle cx="910.14" cy="299.06" r="2.5" fill="#2563eb"/>
  <circle cx="911.98" cy="299.06" r="2.5" fill="#2563eb"/>
  <circle cx="913.82" cy="299.06" r="2.5" fill="#2563eb"/>
  <circle cx="915.66" cy="298.97" r="2.5" fill="#2563eb"/>
  <circle cx="917.49" cy="298.97" r="2.5" fill="#2563eb"/>
  <circle cx="919.33" cy="298.93" r="2.5" fill="#2563eb"/>
  <circle cx="921.17" cy="298.97" r="2.5" fill="#2563eb"/>
  <circle cx="923.01" cy="298.93" r="2.5" fill="#2563eb"/>
  <circle cx="924.85" cy="298.89" r="2.5" fill="#2563eb"/>
  <circle cx="926.69" cy="298.89" r="2.5" fill="#2563eb"/>
  <circle cx="928.53" cy="298.89" r="2.5" fill="#2563eb"/>
  <circle cx="930.36" cy="298.89" r="2.5" fill="#2563eb"/>
  <circle cx="932.20" cy="247.78" r="2.5" fill="#2563eb"/>
  <circle cx="934.04" cy="298.89" r="2.5" fill="#2563eb"/>
  <circle cx="935.88" cy="298.89" r="2.5" fill="#2563eb"/>
  <circle cx="937.72" cy="298.85" r="2.5" fill="#2563eb"/>
  <circle cx="939.56" cy="298.85" r="2.5" fill="#2563eb"/>
  <circle cx="941.39" cy="298.81" r="2.5" fill="#2563eb"/>
  <circle cx="943.23" cy="298.81" r="2.5" fill="#2563eb"/>
  <circle cx="945.07" cy="298.81" r="2.5" fill="#2563eb"/>
  <circle cx="946.91" cy="298.81" r="2.5" fill="#2563eb"/>
  <circle cx="948.75" cy="298.81" r="2.5" fill="#2563eb"/>
  <circle cx="950.59" cy="298.81" r="2.5" fill="#2563eb"/>
  <circle cx="952.42" cy="298.81" r="2.5" fill="#2563eb"/>
  <circle cx="954.26" cy="298.81" r="2.5" fill="#2563eb"/>
  <circle cx="956.10" cy="298.81" r="2.5" fill="#2563eb"/>
  <circle cx="957.94" cy="298.72" r="2.5" fill="#2563eb"/>
  <circle cx="959.78" cy="247.45" r="2.5" fill="#2563eb"/>
  <circle cx="961.62" cy="247.45" r="2.5" fill="#2563eb"/>
  <circle cx="963.45" cy="298.72" r="2.5" fill="#2563eb"/>
  <circle cx="965.29" cy="298.72" r="2.5" fill="#2563eb"/>
  <circle cx="967.13" cy="298.72" r="2.5" fill="#2563eb"/>
  <circle cx="968.97" cy="298.72" r="2.5" fill="#2563eb"/>
  <circle cx="970.81" cy="298.72" r="2.5" fill="#2563eb"/>
  <circle cx="972.65" cy="298.72" r="2.5" fill="#2563eb"/>
  <circle cx="974.48" cy="247.36" r="2.5" fill="#2563eb"/>
  <circle cx="976.32" cy="298.68" r="2.5" fill="#2563eb"/>
  <circle cx="978.16" cy="247.36" r="2.5" fill="#2563eb"/>
  <circle cx="980.00" cy="298.68" r="2.5" fill="#2563eb"/>
</svg>
