<?xml version="1.0" encoding="UTF-8"?>
<svg xmlns="http://www.w3.org/2000/svg" width="1000" height="420" viewBox="0 0 1000 420">
  <rect width="100%" height="100%" fill="#ffffff"/>
  <text x="70" y="28" font-size="20" font-weight="600">수집 시점 기준 - 시간별 스냅샷</text>
  <text x="70" y="402" font-size="12" fill="#555">스냅샷 수</text>
  <line x1="70" y1="350.00" x2="980" y2="350.00" stroke="#e5e7eb" stroke-width="1"/>
  <text x="62" y="354.00" font-size="11" fill="#6b7280" text-anchor="end">0</text>
  <line x1="70" y1="290.00" x2="980" y2="290.00" stroke="#e5e7eb" stroke-width="1"/>
  <text x="62" y="294.00" font-size="11" fill="#6b7280" text-anchor="end">1,440</text>
  <line x1="70" y1="230.00" x2="980" y2="230.00" stroke="#e5e7eb" stroke-width="1"/>
  <text x="62" y="234.00" font-size="11" fill="#6b7280" text-anchor="end">2,880</text>
  <line x1="70" y1="170.00" x2="980" y2="170.00" stroke="#e5e7eb" stroke-width="1"/>
  <text x="62" y="174.00" font-size="11" fill="#6b7280" text-anchor="end">4,321</text>
  <line x1="70" y1="110.00" x2="980" y2="110.00" stroke="#e5e7eb" stroke-width="1"/>
  <text x="62" y="114.00" font-size="11" fill="#6b7280" text-anchor="end">5,761</text>
  <line x1="70" y1="50.00" x2="980" y2="50.00" stroke="#e5e7eb" stroke-width="1"/>
  <text x="62" y="54.00" font-size="11" fill="#6b7280" text-anchor="end">7,202</text>
  <line x1="70" y1="350" x2="980" y2="350" stroke="#111827" stroke-width="1.2"/>
  <line x1="70" y1="50" x2="70" y2="350" stroke="#111827" stroke-width="1.2"/>
  <line x1="70.00" y1="350" x2="70.00" y2="356" stroke="#9ca3af" stroke-width="1"/>
  <text x="70.00" y="372" font-size="10" fill="#6b7280" text-anchor="middle">2026-02-28 18</text>
  <line x1="145.47" y1="350" x2="145.47" y2="356" stroke="#9ca3af" stroke-width="1"/>
  <text x="145.47" y="372" font-size="10" fill="#6b7280" text-anchor="middle">2026-03-10 02</text>
  <line x1="220.94" y1="350" x2="220.94" y2="356" stroke="#9ca3af" stroke-width="1"/>
  <text x="220.94" y="372" font-size="10" fill="#6b7280" text-anchor="middle">2026-03-13 05</text>
  <line x1="296.41" y1="350" x2="296.41" y2="356" stroke="#9ca3af" stroke-width="1"/>
  <text x="296.41" y="372" font-size="10" fill="#6b7280" text-anchor="middle">2026-03-17 04</text>
  <line x1="371.88" y1="350" x2="371.88" y2="356" stroke="#9ca3af" stroke-width="1"/>
  <text x="371.88" y="372" font-size="10" fill="#6b7280" text-anchor="middle">2026-03-21 13</text>
  <line x1="447.34" y1="350" x2="447.34" y2="356" stroke="#9ca3af" stroke-width="1"/>
  <text x="447.34" y="372" font-size="10" fill="#6b7280" text-anchor="middle">2026-03-25 20</text>
  <line x1="522.81" y1="350" x2="522.81" y2="356" stroke="#9ca3af" stroke-width="1"/>
  <text x="522.81" y="372" font-size="10" fill="#6b7280" text-anchor="middle">2026-03-30 14</text>
  <line x1="598.28" y1="350" x2="598.28" y2="356" stroke="#9ca3af" stroke-width="1"/>
  <text x="598.28" y="372" font-size="10" fill="#6b7280" text-anchor="middle">2026-04-04 05</text>
  <line x1="673.75" y1="350" x2="673.75" y2="356" stroke="#9ca3af" stroke-width="1"/>
  <text x="673.75" y="372" font-size="10" fill="#6b7280" text-anchor="middle">2026-04-09 02</text>
  <line x1="749.22" y1="350" x2="749.22" y2="356" stroke="#9ca3af" stroke-width="1"/>
  <text x="749.22" y="372" font-size="10" fill="#6b7280" text-anchor="middle">2026-04-14 00</text>
  <line x1="824.69" y1="350" x2="824.69" y2="356" stroke="#9ca3af" stroke-width="1"/>
  <text x="824.69" y="372" font-size="10" fill="#6b7280" text-anchor="middle">2026-04-19 02</text>
  <line x1="900.16" y1="350" x2="900.16" y2="356" stroke="#9ca3af" stroke-width="1"/>
  <text x="900.16" y="372" font-size="10" fill="#6b7280" text-anchor="middle">2026-04-24 01</text>
  <line x1="975.62" y1="350" x2="975.62" y2="356" stroke="#9ca3af" stroke-width="1"/>
  <text x="975.62" y="372" font-size="10" fill="#6b7280" text-anchor="middle">2026-04-28 22</text>
  <line x1="980.00" y1="350" x2="980.00" y2="356" stroke="#9ca3af" stroke-width="1"/>
  <text x="980.00" y="372" font-size="10" fill="#6b7280" text-anchor="middle">2026-04-29 06</text>
  <polyline fill="none" stroke="#2563eb" stroke-width="2.5" points="70.00,50.00 71.09,50.12 72.19,50.17 73.28,50.46 74.38,50.00 75.47,266.90 76.56,50.12 77.66,50.08 78.75,177.46 79.84,211.58 80.94,175.34 82.03,304.14 83.12,200.46 84.22,250.94 85.31,300.01 86.41,300.06 87.50,300.01 88.59,300.01 89.69,348.00 90.78,300.01 91.88,249.99 92.97,200.00 94.06,249.99 95.16,249.99 96.25,250.03 97.34,250.03 98.44,250.03 99.53,250.40 100.62,250.90 101.72,250.90 102.81,251.32 103.91,249.94 105.00,300.01 106.09,299.93 107.19,251.03 108.28,300.68 109.38,250.03 110.47,200.00 111.56,249.99 112.66,250.03 113.75,250.03 114.84,250.03 115.94,300.01 117.03,200.04 118.12,250.03 119.22,250.03 120.31,250.03 121.41,249.90 122.50,250.03 123.59,250.03 124.69,250.94 125.78,250.44 126.88,250.03 127.97,250.03 129.06,300.47 130.16,300.01 131.25,300.43 132.34,250.03 133.44,249.99 134.53,300.43 135.62,249.90 136.72,249.99 137.81,249.99 138.91,200.04 140.00,300.01 141.09,300.01 142.19,300.01 143.28,249.90 144.38,300.01 145.47,250.03 146.56,249.99 147.66,199.96 148.75,300.01 149.84,200.00 150.94,250.36 152.03,250.03 153.12,300.01 154.22,300.01 155.31,250.44 156.41,300.01 157.50,250.03 158.59,250.03 159.69,249.99 160.78,250.49 161.88,250.03 162.97,200.04 164.06,300.01 165.16,250.03 166.25,300.01 167.34,250.11 168.44,300.01 169.53,250.03 170.62,250.03 171.72,199.92 172.81,250.03 173.91,250.03 175.00,250.03 176.09,254.36 177.19,300.01 178.28,299.97 179.38,250.36 180.47,299.97 181.56,250.03 182.66,250.03 183.75,250.03 184.84,250.03 185.94,249.99 187.03,200.00 188.12,299.93 189.22,300.01 190.31,299.97 191.41,249.94 192.50,249.99 193.59,249.82 194.69,249.94 195.78,250.28 196.88,207.00 197.97,250.03 199.06,250.32 200.16,250.40 201.25,300.93 202.34,300.01 203.44,300.10 204.53,249.94 205.62,249.99 206.72,250.07 207.81,249.99 208.91,250.03 210.00,249.94 211.09,200.00 212.19,300.39 213.28,300.01 214.38,300.01 215.47,250.44 216.56,300.39 217.66,249.86 218.75,250.11 219.84,201.46 220.94,300.01 222.03,200.83 223.12,250.03 224.22,249.99 225.31,300.26 226.41,300.01 227.50,300.01 228.59,250.03 229.69,250.03 230.78,250.03 231.88,250.03 232.97,249.99 234.06,250.03 235.16,200.00 236.25,300.26 237.34,249.99 238.44,300.01 239.53,249.94 240.62,250.03 241.72,250.03 242.81,250.03 243.91,200.04 245.00,300.01 246.09,249.90 247.19,300.01 248.28,300.01 249.38,300.06 250.47,300.01 251.56,300.01 252.66,243.95 253.75,249.94 254.84,299.97 255.94,300.01 257.03,300.01 258.12,250.03 259.22,300.01 260.31,300.01 261.41,299.97 262.50,249.99 263.59,300.01 264.69,299.93 265.78,300.01 266.88,299.93 267.97,300.01 269.06,300.01 270.16,299.89 271.25,299.97 272.34,250.03 273.44,299.93 274.53,299.89 275.62,299.97 276.72,249.94 277.81,300.01 278.91,300.01 280.00,299.97 281.09,249.99 282.19,299.97 283.28,299.97 284.38,300.06 285.47,300.06 286.56,299.93 287.66,300.01 288.75,300.01 289.84,299.93 290.94,300.01 292.03,300.01 293.12,299.97 294.22,300.01 295.31,300.01 296.41,300.01 297.50,300.01 298.59,249.86 299.69,300.01 300.78,300.10 301.88,299.93 302.97,300.01 304.06,299.93 305.16,300.01 306.25,300.01 307.34,300.01 308.44,300.01 309.53,300.01 310.62,299.97 311.72,300.01 312.81,300.01 313.91,300.01 315.00,300.01 316.09,250.03 317.19,300.01 318.28,300.01 319.38,299.97 320.47,300.01 321.56,300.01 322.66,299.97 323.75,299.97 324.84,300.01 325.94,299.97 327.03,300.01 328.12,299.93 329.22,300.01 330.31,250.03 331.41,300.01 332.50,300.01 333.59,300.01 334.69,300.01 335.78,300.01 336.88,299.89 337.97,300.01 339.06,300.01 340.16,250.07 341.25,300.01 342.34,299.93 343.44,300.01 344.53,299.97 345.62,299.97 346.72,299.97 347.81,250.03 348.91,300.01 350.00,300.01 351.09,300.01 352.19,300.01 353.28,299.97 354.38,300.01 355.47,299.97 356.56,300.01 357.66,299.97 358.75,249.90 359.84,300.01 360.94,300.01 362.03,299.89 363.12,299.97 364.22,299.97 365.31,249.99 366.41,299.97 367.50,299.89 368.59,300.01 369.69,299.97 370.78,299.97 371.88,300.01 372.97,299.97 374.06,249.99 375.16,299.97 376.25,299.97 377.34,300.06 378.44,300.06 379.53,249.94 380.62,300.01 381.72,299.93 382.81,300.01 383.91,300.01 385.00,249.99 386.09,300.01 387.19,300.01 388.28,300.01 389.38,299.93 390.47,299.93 391.56,300.01 392.66,300.01 393.75,249.94 394.84,299.97 395.94,299.97 397.03,300.01 398.12,300.01 399.22,300.01 400.31,249.99 401.41,300.01 402.50,300.01 403.59,300.01 404.69,250.03 405.78,300.01 406.88,300.01 407.97,300.01 409.06,299.97 410.16,300.01 411.25,300.01 412.34,299.97 413.44,299.97 414.53,300.01 415.62,300.01 416.72,299.97 417.81,299.93 418.91,300.01 420.00,300.06 421.09,299.97 422.19,300.01 423.28,250.03 424.38,250.03 425.47,299.93 426.56,299.97 427.66,300.01 428.75,300.01 429.84,300.06 430.94,300.01 432.03,299.93 433.12,300.01 434.22,300.01 435.31,299.97 436.41,299.97 437.50,300.01 438.59,250.03 439.69,300.01 440.78,300.01 441.88,300.01 442.97,299.97 444.06,300.01 445.16,299.97 446.25,300.01 447.34,299.97 448.44,299.97 449.53,299.93 450.62,300.01 451.72,300.01 452.81,299.89 453.91,299.97 455.00,299.97 456.09,300.06 457.19,249.90 458.28,299.89 459.38,300.01 460.47,299.97 461.56,299.97 462.66,299.97 463.75,300.01 464.84,300.01 465.94,299.97 467.03,299.97 468.12,299.97 469.22,250.03 470.31,299.93 471.41,300.01 472.50,300.01 473.59,299.93 474.69,300.01 475.78,300.01 476.88,299.97 477.97,300.01 479.06,300.01 480.16,300.06 481.25,300.01 482.34,299.97 483.44,299.89 484.53,300.01 485.62,300.01 486.72,249.94 487.81,249.94 488.91,300.01 490.00,300.01 491.09,300.01 492.19,300.01 493.28,299.97 494.38,250.03 495.47,300.01 496.56,300.01 497.66,300.01 498.75,300.01 499.84,250.03 500.94,249.99 502.03,300.01 503.12,299.97 504.22,300.01 505.31,299.97 506.41,300.01 507.50,299.97 508.59,299.97 509.69,299.97 510.78,300.06 511.88,249.99 512.97,300.01 514.06,250.03 515.16,249.94 516.25,249.99 517.34,300.01 518.44,300.06 519.53,300.01 520.62,299.97 521.72,299.97 522.81,300.01 523.91,299.93 525.00,299.89 526.09,299.89 527.19,299.89 528.28,299.89 529.38,299.85 530.47,299.85 531.56,299.89 532.66,299.81 533.75,299.81 534.84,299.81 535.94,299.76 537.03,299.76 538.12,299.76 539.22,299.72 540.31,299.68 541.41,299.60 542.50,299.60 543.59,299.60 544.69,299.56 545.78,299.47 546.88,299.43 547.97,299.43 549.06,299.39 550.16,299.47 551.25,259.82 552.34,338.96 553.44,299.31 554.53,299.31 555.62,299.26 556.72,299.68 557.81,299.68 558.91,299.68 560.00,299.64 561.09,299.14 562.19,299.14 563.28,299.10 564.38,299.10 565.47,299.10 566.56,248.07 567.66,299.06 568.75,299.06 569.84,299.06 570.94,299.06 572.03,299.06 573.12,298.97 574.22,298.97 575.31,298.93 576.41,298.97 577.50,298.93 578.59,298.89 579.69,298.89 580.78,298.89 581.88,298.89 582.97,247.78 584.06,298.89 585.16,298.89 586.25,298.85 587.34,298.85 588.44,298.81 589.53,298.81 590.62,298.81 591.72,298.81 592.81,298.81 593.91,298.81 595.00,298.81 596.09,298.81 597.19,298.81 598.28,298.72 599.38,247.45 600.47,247.45 601.56,298.72 602.66,298.72 603.75,298.72 604.84,298.72 605.94,298.72 607.03,298.72 608.12,247.36 609.22,298.68 610.31,247.36 611.41,247.36 612.50,247.36 613.59,298.68 614.69,298.68 615.78,298.68 616.88,298.68 617.97,298.68 619.06,341.67 620.16,307.01 621.25,298.68 622.34,298.68 623.44,298.68 624.53,247.36 625.62,298.64 626.72,247.36 627.81,247.28 628.91,247.20 630.00,298.60 631.09,298.60 632.19,247.03 633.28,298.51 634.38,298.51 635.47,298.51 636.56,298.51 637.66,298.51 638.75,298.51 639.84,298.51 640.94,298.51 642.03,298.51 643.12,298.51 644.22,298.51 645.31,298.51 646.41,298.51 647.50,298.51 648.59,298.51 649.69,298.51 650.78,298.51 651.88,298.51 652.97,298.51 654.06,298.51 655.16,298.51 656.25,298.51 657.34,298.51 658.44,298.51 659.53,298.51 660.62,298.51 661.72,298.47 662.81,298.51 663.91,298.51 665.00,298.47 666.09,298.51 667.19,298.47 668.28,298.51 669.38,298.43 670.47,298.56 671.56,298.43 672.66,298.43 673.75,298.43 674.84,298.43 675.94,298.43 677.03,298.43 678.12,298.43 679.22,298.43 680.31,298.43 681.41,298.43 682.50,298.43 683.59,298.43 684.69,298.43 685.78,298.43 686.88,298.43 687.97,298.43 689.06,298.43 690.16,298.43 691.25,298.43 692.34,298.43 693.44,298.43 694.53,298.43 695.62,298.43 696.72,298.43 697.81,298.43 698.91,298.43 700.00,298.43 701.09,298.43 702.19,298.43 703.28,298.43 704.38,298.43 705.47,298.43 706.56,298.43 707.66,298.43 708.75,298.39 709.84,298.39 710.94,298.43 712.03,298.43 713.12,298.39 714.22,298.39 715.31,298.39 716.41,298.43 717.50,298.43 718.59,298.43 719.69,246.82 720.78,298.43 721.88,246.78 722.97,246.78 724.06,246.78 725.16,246.70 726.25,246.78 727.34,298.39 728.44,298.39 729.53,298.39 730.62,298.39 731.72,298.39 732.81,246.78 733.91,298.39 735.00,298.39 736.09,298.39 737.19,298.39 738.28,298.39 739.38,246.78 740.47,246.78 741.56,298.39 742.66,298.39 743.75,298.39 744.84,298.39 745.94,298.39 747.03,298.39 748.12,298.39 749.22,298.39 750.31,298.39 751.41,298.39 752.50,298.39 753.59,298.39 754.69,298.39 755.78,298.39 756.88,298.35 757.97,298.39 759.06,298.39 760.16,298.35 761.25,298.35 762.34,298.35 763.44,298.35 764.53,298.35 765.62,298.35 766.72,298.35 767.81,298.35 768.91,298.35 770.00,298.35 771.09,298.35 772.19,298.35 773.28,298.35 774.38,298.35 775.47,298.35 776.56,298.35 777.66,298.35 778.75,298.35 779.84,298.35 780.94,298.35 782.03,298.35 783.12,298.35 784.22,298.35 785.31,298.35 786.41,298.35 787.50,298.35 788.59,298.35 789.69,298.35 790.78,298.35 791.88,298.35 792.97,298.35 794.06,298.35 795.16,298.35 796.25,298.35 797.34,298.35 798.44,298.35 799.53,298.35 800.62,298.35 801.72,298.35 802.81,298.35 803.91,298.35 805.00,298.35 806.09,298.35 807.19,298.35 808.28,298.35 809.38,298.35 810.47,298.35 811.56,298.35 812.66,298.35 813.75,298.35 814.84,298.35 815.94,298.35 817.03,298.39 818.12,298.39 819.22,298.39 820.31,246.78 821.41,298.39 822.50,298.39 823.59,298.39 824.69,298.39 825.78,298.39 826.88,298.39 827.97,298.39 829.06,246.78 830.16,298.39 831.25,298.39 832.34,298.39 833.44,298.39 834.53,298.39 835.62,298.39 836.72,298.39 837.81,246.78 838.91,298.39 840.00,298.39 841.09,298.39 842.19,298.39 843.28,298.39 844.38,298.39 845.47,298.39 846.56,298.39 847.66,298.39 848.75,298.39 849.84,298.39 850.94,298.35 852.03,298.39 853.12,298.39 854.22,298.39 855.31,298.35 856.41,298.35 857.50,298.35 858.59,298.35 859.69,298.35 860.78,298.35 861.88,298.35 862.97,298.35 864.06,298.35 865.16,298.35 866.25,298.35 867.34,298.35 868.44,298.35 869.53,298.35 870.62,298.35 871.72,298.35 872.81,298.39 873.91,298.39 875.00,298.39 876.09,298.39 877.19,298.39 878.28,298.39 879.38,298.35 880.47,298.39 881.56,298.39 882.66,298.39 883.75,298.39 884.84,298.39 885.94,298.39 887.03,298.39 888.12,298.39 889.22,298.39 890.31,298.35 891.41,298.39 892.50,298.39 893.59,298.39 894.69,298.39 895.78,298.39 896.88,298.39 897.97,298.39 899.06,298.39 900.16,298.39 901.25,298.39 902.34,298.39 903.44,298.39 904.53,298.39 905.62,298.39 906.72,298.39 907.81,298.39 908.91,298.35 910.00,298.35 911.09,298.39 912.19,298.39 913.28,298.39 914.38,298.39 915.47,298.39 916.56,298.39 917.66,298.39 918.75,298.39 919.84,298.39 920.94,298.39 922.03,298.35 923.12,298.35 924.22,298.39 925.31,298.39 926.41,298.39 927.50,298.39 928.59,298.39 929.69,298.39 930.78,298.39 931.88,298.39 932.97,298.39 934.06,298.39 935.16,298.39 936.25,298.39 937.34,298.39 938.44,298.39 939.53,298.35 940.62,298.39 941.72,298.39 942.81,298.39 943.91,298.39 945.00,298.39 946.09,298.39 947.19,298.39 948.28,298.39 949.38,298.35 950.47,298.35 951.56,298.39 952.66,298.35 953.75,298.39 954.84,298.39 955.94,298.39 957.03,298.39 958.12,298.39 959.22,298.35 960.31,298.39 961.41,298.39 962.50,298.35 963.59,298.39 964.69,298.35 965.78,298.39 966.88,298.39 967.97,298.35 969.06,298.39 970.16,298.35 971.25,298.39 972.34,298.39 973.44,298.35 974.53,298.39 975.62,298.39 976.72,298.39 977.81,298.39 978.91,298.35 980.00,298.39"/>
  <circle cx="70.00" cy="50.00" r="2.5" fill="#2563eb"/>
  <circle cx="71.09" cy="50.12" r="2.5" fill="#2563eb"/>
  <circle cx="72.19" cy="50.17" r="2.5" fill="#2563eb"/>
  <circle cx="73.28" cy="50.46" r="2.5" fill="#2563eb"/>
  <circle cx="74.38" cy="50.00" r="2.5" fill="#2563eb"/>
  <circle cx="75.47" cy="266.90" r="2.5" fill="#2563eb"/>
  <circle cx="76.56" cy="50.12" r="2.5" fill="#2563eb"/>
  <circle cx="77.66" cy="50.08" r="2.5" fill="#2563eb"/>
  <circle cx="78.75" cy="177.46" r="2.5" fill="#2563eb"/>
  <circle cx="79.84" cy="211.58" r="2.5" fill="#2563eb"/>
  <circle cx="80.94" cy="175.34" r="2.5" fill="#2563eb"/>
  <circle cx="82.03" cy="304.14" r="2.5" fill="#2563eb"/>
  <circle cx="83.12" cy="200.46" r="2.5" fill="#2563eb"/>
  <circle cx="84.22" cy="250.94" r="2.5" fill="#2563eb"/>
  <circle cx="85.31" cy="300.01" r="2.5" fill="#2563eb"/>
  <circle cx="86.41" cy="300.06" r="2.5" fill="#2563eb"/>
  <circle cx="87.50" cy="300.01" r="2.5" fill="#2563eb"/>
  <circle cx="88.59" cy="300.01" r="2.5" fill="#2563eb"/>
  <circle cx="89.69" cy="348.00" r="2.5" fill="#2563eb"/>
  <circle cx="90.78" cy="300.01" r="2.5" fill="#2563eb"/>
  <circle cx="91.88" cy="249.99" r="2.5" fill="#2563eb"/>
  <circle cx="92.97" cy="200.00" r="2.5" fill="#2563eb"/>
  <circle cx="94.06" cy="249.99" r="2.5" fill="#2563eb"/>
  <circle cx="95.16" cy="249.99" r="2.5" fill="#2563eb"/>
  <circle cx="96.25" cy="250.03" r="2.5" fill="#2563eb"/>
  <circle cx="97.34" cy="250.03" r="2.5" fill="#2563eb"/>
  <circle cx="98.44" cy="250.03" r="2.5" fill="#2563eb"/>
  <circle cx="99.53" cy="250.40" r="2.5" fill="#2563eb"/>
  <circle cx="100.62" cy="250.90" r="2.5" fill="#2563eb"/>
  <circle cx="101.72" cy="250.90" r="2.5" fill="#2563eb"/>
  <circle cx="102.81" cy="251.32" r="2.5" fill="#2563eb"/>
  <circle cx="103.91" cy="249.94" r="2.5" fill="#2563eb"/>
  <circle cx="105.00" cy="300.01" r="2.5" fill="#2563eb"/>
  <circle cx="106.09" cy="299.93" r="2.5" fill="#2563eb"/>
  <circle cx="107.19" cy="251.03" r="2.5" fill="#2563eb"/>
  <circle cx="108.28" cy="300.68" r="2.5" fill="#2563eb"/>
  <circle cx="109.38" cy="250.03" r="2.5" fill="#2563eb"/>
  <circle cx="110.47" cy="200.00" r="2.5" fill="#2563eb"/>
  <circle cx="111.56" cy="249.99" r="2.5" fill="#2563eb"/>
  <circle cx="112.66" cy="250.03" r="2.5" fill="#2563eb"/>
  <circle cx="113.75" cy="250.03" r="2.5" fill="#2563eb"/>
  <circle cx="114.84" cy="250.03" r="2.5" fill="#2563eb"/>
  <circle cx="115.94" cy="300.01" r="2.5" fill="#2563eb"/>
  <circle cx="117.03" cy="200.04" r="2.5" fill="#2563eb"/>
  <circle cx="118.12" cy="250.03" r="2.5" fill="#2563eb"/>
  <circle cx="119.22" cy="250.03" r="2.5" fill="#2563eb"/>
  <circle cx="120.31" cy="250.03" r="2.5" fill="#2563eb"/>
  <circle cx="121.41" cy="249.90" r="2.5" fill="#2563eb"/>
  <circle cx="122.50" cy="250.03" r="2.5" fill="#2563eb"/>
  <circle cx="123.59" cy="250.03" r="2.5" fill="#2563eb"/>
  <circle cx="124.69" cy="250.94" r="2.5" fill="#2563eb"/>
  <circle cx="125.78" cy="250.44" r="2.5" fill="#2563eb"/>
  <circle cx="126.88" cy="250.03" r="2.5" fill="#2563eb"/>
  <circle cx="127.97" cy="250.03" r="2.5" fill="#2563eb"/>
  <circle cx="129.06" cy="300.47" r="2.5" fill="#2563eb"/>
  <circle cx="130.16" cy="300.01" r="2.5" fill="#2563eb"/>
  <circle cx="131.25" cy="300.43" r="2.5" fill="#2563eb"/>
  <circle cx="132.34" cy="250.03" r="2.5" fill="#2563eb"/>
  <circle cx="133.44" cy="249.99" r="2.5" fill="#2563eb"/>
  <circle cx="134.53" cy="300.43" r="2.5" fill="#2563eb"/>
  <circle cx="135.62" cy="249.90" r="2.5" fill="#2563eb"/>
  <circle cx="136.72" cy="249.99" r="2.5" fill="#2563eb"/>
  <circle cx="137.81" cy="249.99" r="2.5" fill="#2563eb"/>
  <circle cx="138.91" cy="200.04" r="2.5" fill="#2563eb"/>
  <circle cx="140.00" cy="300.01" r="2.5" fill="#2563eb"/>
  <circle cx="141.09" cy="300.01" r="2.5" fill="#2563eb"/>
  <circle cx="142.19" cy="300.01" r="2.5" fill="#2563eb"/>
  <circle cx="143.28" cy="249.90" r="2.5" fill="#2563eb"/>
  <circle cx="144.38" cy="300.01" r="2.5" fill="#2563eb"/>
  <circle cx="145.47" cy="250.03" r="2.5" fill="#2563eb"/>
  <circle cx="146.56" cy="249.99" r="2.5" fill="#2563eb"/>
  <circle cx="147.66" cy="199.96" r="2.5" fill="#2563eb"/>
  <circle cx="148.75" cy="300.01" r="2.5" fill="#2563eb"/>
  <circle cx="149.84" cy="200.00" r="2.5" fill="#2563eb"/>
  <circle cx="150.94" cy="250.36" r="2.5" fill="#2563eb"/>
  <circle cx="152.03" cy="250.03" r="2.5" fill="#2563eb"/>
  <circle cx="153.12" cy="300.01" r="2.5" fill="#2563eb"/>
  <circle cx="154.22" cy="300.01" r="2.5" fill="#2563eb"/>
  <circle cx="155.31" cy="250.44" r="2.5" fill="#2563eb"/>
  <circle cx="156.41" cy="300.01" r="2.5" fill="#2563eb"/>
  <circle cx="157.50" cy="250.03" r="2.5" fill="#2563eb"/>
  <circle cx="158.59" cy="250.03" r="2.5" fill="#2563eb"/>
  <circle cx="159.69" cy="249.99" r="2.5" fill="#2563eb"/>
  <circle cx="160.78" cy="250.49" r="2.5" fill="#2563eb"/>
  <circle cx="161.88" cy="250.03" r="2.5" fill="#2563eb"/>
  <circle cx="162.97" cy="200.04" r="2.5" fill="#2563eb"/>
  <circle cx="164.06" cy="300.01" r="2.5" fill="#2563eb"/>
  <circle cx="165.16" cy="250.03" r="2.5" fill="#2563eb"/>
  <circle cx="166.25" cy="300.01" r="2.5" fill="#2563eb"/>
  <circle cx="167.34" cy="250.11" r="2.5" fill="#2563eb"/>
  <circle cx="168.44" cy="300.01" r="2.5" fill="#2563eb"/>
  <circle cx="169.53" cy="250.03" r="2.5" fill="#2563eb"/>
  <circle cx="170.62" cy="250.03" r="2.5" fill="#2563eb"/>
  <circle cx="171.72" cy="199.92" r="2.5" fill="#2563eb"/>
  <circle cx="172.81" cy="250.03" r="2.5" fill="#2563eb"/>
  <circle cx="173.91" cy="250.03" r="2.5" fill="#2563eb"/>
  <circle cx="175.00" cy="250.03" r="2.5" fill="#2563eb"/>
  <circle cx="176.09" cy="254.36" r="2.5" fill="#2563eb"/>
  <circle cx="177.19" cy="300.01" r="2.5" fill="#2563eb"/>
  <circle cx="178.28" cy="299.97" r="2.5" fill="#2563eb"/>
  <circle cx="179.38" cy="250.36" r="2.5" fill="#2563eb"/>
  <circle cx="180.47" cy="299.97" r="2.5" fill="#2563eb"/>
  <circle cx="181.56" cy="250.03" r="2.5" fill="#2563eb"/>
  <circle cx="182.66" cy="250.03" r="2.5" fill="#2563eb"/>
  <circle cx="183.75" cy="250.03" r="2.5" fill="#2563eb"/>
  <circle cx="184.84" cy="250.03" r="2.5" fill="#2563eb"/>
  <circle cx="185.94" cy="249.99" r="2.5" fill="#2563eb"/>
  <circle cx="187.03" cy="200.00" r="2.5" fill="#2563eb"/>
  <circle cx="188.12" cy="299.93" r="2.5" fill="#2563eb"/>
  <circle cx="189.22" cy="300.01" r="2.5" fill="#2563eb"/>
  <circle cx="190.31" cy="299.97" r="2.5" fill="#2563eb"/>
  <circle cx="191.41" cy="249.94" r="2.5" fill="#2563eb"/>
  <circle cx="192.50" cy="249.99" r="2.5" fill="#2563eb"/>
  <circle cx="193.59" cy="249.82" r="2.5" fill="#2563eb"/>
  <circle cx="194.69" cy="249.94" r="2.5" fill="#2563eb"/>
  <circle cx="195.78" cy="250.28" r="2.5" fill="#2563eb"/>
  <circle cx="196.88" cy="207.00" r="2.5" fill="#2563eb"/>
  <circle cx="197.97" cy="250.03" r="2.5" fill="#2563eb"/>
  <circle cx="199.06" cy="250.32" r="2.5" fill="#2563eb"/>
  <circle cx="200.16" cy="250.40" r="2.5" fill="#2563eb"/>
  <circle cx="201.25" cy="300.93" r="2.5" fill="#2563eb"/>
  <circle cx="202.34" cy="300.01" r="2.5" fill="#2563eb"/>
  <circle cx="203.44" cy="300.10" r="2.5" fill="#2563eb"/>
  <circle cx="204.53" cy="249.94" r="2.5" fill="#2563eb"/>
  <circle cx="205.62" cy="249.99" r="2.5" fill="#2563eb"/>
  <circle cx="206.72" cy="250.07" r="2.5" fill="#2563eb"/>
  <circle cx="207.81" cy="249.99" r="2.5" fill="#2563eb"/>
  <circle cx="208.91" cy="250.03" r="2.5" fill="#2563eb"/>
  <circle cx="210.00" cy="249.94" r="2.5" fill="#2563eb"/>
  <circle cx="211.09" cy="200.00" r="2.5" fill="#2563eb"/>
  <circle cx="212.19" cy="300.39" r="2.5" fill="#2563eb"/>
  <circle cx="213.28" cy="300.01" r="2.5" fill="#2563eb"/>
  <circle cx="214.38" cy="300.01" r="2.5" fill="#2563eb"/>
  <circle cx="215.47" cy="250.44" r="2.5" fill="#2563eb"/>
  <circle cx="216.56" cy="300.39" r="2.5" fill="#2563eb"/>
  <circle cx="217.66" cy="249.86" r="2.5" fill="#2563eb"/>
  <circle cx="218.75" cy="250.11" r="2.5" fill="#2563eb"/>
  <circle cx="219.84" cy="201.46" r="2.5" fill="#2563eb"/>
  <circle cx="220.94" cy="300.01" r="2.5" fill="#2563eb"/>
  <circle cx="222.03" cy="200.83" r="2.5" fill="#2563eb"/>
  <circle cx="223.12" cy="250.03" r="2.5" fill="#2563eb"/>
  <circle cx="224.22" cy="249.99" r="2.5" fill="#2563eb"/>
  <circle cx="225.31" cy="300.26" r="2.5" fill="#2563eb"/>
  <circle cx="226.41" cy="300.01" r="2.5" fill="#2563eb"/>
  <circle cx="227.50" cy="300.01" r="2.5" fill="#2563eb"/>
  <circle cx="228.59" cy="250.03" r="2.5" fill="#2563eb"/>
  <circle cx="229.69" cy="250.03" r="2.5" fill="#2563eb"/>
  <circle cx="230.78" cy="250.03" r="2.5" fill="#2563eb"/>
  <circle cx="231.88" cy="250.03" r="2.5" fill="#2563eb"/>
  <circle cx="232.97" cy="249.99" r="2.5" fill="#2563eb"/>
  <circle cx="234.06" cy="250.03" r="2.5" fill="#2563eb"/>
  <circle cx="235.16" cy="200.00" r="2.5" fill="#2563eb"/>
  <circle cx="236.25" cy="300.26" r="2.5" fill="#2563eb"/>
  <circle cx="237.34" cy="249.99" r="2.5" fill="#2563eb"/>
  <circle cx="238.44" cy="300.01" r="2.5" fill="#2563eb"/>
  <circle cx="239.53" cy="249.94" r="2.5" fill="#2563eb"/>
  <circle cx="240.62" cy="250.03" r="2.5" fill="#2563eb"/>
  <circle cx="241.72" cy="250.03" r="2.5" fill="#2563eb"/>
  <circle cx="242.81" cy="250.03" r="2.5" fill="#2563eb"/>
  <circle cx="243.91" cy="200.04" r="2.5" fill="#2563eb"/>
  <circle cx="245.00" cy="300.01" r="2.5" fill="#2563eb"/>
  <circle cx="246.09" cy="249.90" r="2.5" fill="#2563eb"/>
  <circle cx="247.19" cy="300.01" r="2.5" fill="#2563eb"/>
  <circle cx="248.28" cy="300.01" r="2.5" fill="#2563eb"/>
  <circle cx="249.38" cy="300.06" r="2.5" fill="#2563eb"/>
  <circle cx="250.47" cy="300.01" r="2.5" fill="#2563eb"/>
  <circle cx="251.56" cy="300.01" r="2.5" fill="#2563eb"/>
  <circle cx="252.66" cy="243.95" r="2.5" fill="#2563eb"/>
  <circle cx="253.75" cy="249.94" r="2.5" fill="#2563eb"/>
  <circle cx="254.84" cy="299.97" r="2.5" fill="#2563eb"/>
  <circle cx="255.94" cy="300.01" r="2.5" fill="#2563eb"/>
  <circle cx="257.03" cy="300.01" r="2.5" fill="#2563eb"/>
  <circle cx="258.12" cy="250.03" r="2.5" fill="#2563eb"/>
  <circle cx="259.22" cy="300.01" r="2.5" fill="#2563eb"/>
  <circle cx="260.31" cy="300.01" r="2.5" fill="#2563eb"/>
  <circle cx="261.41" cy="299.97" r="2.5" fill="#2563eb"/>
  <circle cx="262.50" cy="249.99" r="2.5" fill="#2563eb"/>
  <circle cx="263.59" cy="300.01" r="2.5" fill="#2563eb"/>
  <circle cx="264.69" cy="299.93" r="2.5" fill="#2563eb"/>
  <circle cx="265.78" cy="300.01" r="2.5" fill="#2563eb"/>
  <circle cx="266.88" cy="299.93" r="2.5" fill="#2563eb"/>
  <circle cx="267.97" cy="300.01" r="2.5" fill="#2563eb"/>
  <circle cx="269.06" cy="300.01" r="2.5" fill="#2563eb"/>
  <circle cx="270.16" cy="299.89" r="2.5" fill="#2563eb"/>
  <circle cx="271.25" cy="299.97" r="2.5" fill="#2563eb"/>
  <circle cx="272.34" cy="250.03" r="2.5" fill="#2563eb"/>
  <circle cx="273.44" cy="299.93" r="2.5" fill="#2563eb"/>
  <circle cx="274.53" cy="299.89" r="2.5" fill="#2563eb"/>
  <circle cx="275.62" cy="299.97" r="2.5" fill="#2563eb"/>
  <circle cx="276.72" cy="249.94" r="2.5" fill="#2563eb"/>
  <circle cx="277.81" cy="300.01" r="2.5" fill="#2563eb"/>
  <circle cx="278.91" cy="300.01" r="2.5" fill="#2563eb"/>
  <circle cx="280.00" cy="299.97" r="2.5" fill="#2563eb"/>
  <circle cx="281.09" cy="249.99" r="2.5" fill="#2563eb"/>
  <circle cx="282.19" cy="299.97" r="2.5" fill="#2563eb"/>
  <circle cx="283.28" cy="299.97" r="2.5" fill="#2563eb"/>
  <circle cx="284.38" cy="300.06" r="2.5" fill="#2563eb"/>
  <circle cx="285.47" cy="300.06" r="2.5" fill="#2563eb"/>
  <circle cx="286.56" cy="299.93" r="2.5" fill="#2563eb"/>
  <circle cx="287.66" cy="300.01" r="2.5" fill="#2563eb"/>
  <circle cx="288.75" cy="300.01" r="2.5" fill="#2563eb"/>
  <circle cx="289.84" cy="299.93" r="2.5" fill="#2563eb"/>
  <circle cx="290.94" cy="300.01" r="2.5" fill="#2563eb"/>
  <circle cx="292.03" cy="300.01" r="2.5" fill="#2563eb"/>
  <circle cx="293.12" cy="299.97" r="2.5" fill="#2563eb"/>
  <circle cx="294.22" cy="300.01" r="2.5" fill="#2563eb"/>
  <circle cx="295.31" cy="300.01" r="2.5" fill="#2563eb"/>
  <circle cx="296.41" cy="300.01" r="2.5" fill="#2563eb"/>
  <circle cx="297.50" cy="300.01" r="2.5" fill="#2563eb"/>
  <circle cx="298.59" cy="249.86" r="2.5" fill="#2563eb"/>
  <circle cx="299.69" cy="300.01" r="2.5" fill="#2563eb"/>
  <circle cx="300.78" cy="300.10" r="2.5" fill="#2563eb"/>
  <circle cx="301.88" cy="299.93" r="2.5" fill="#2563eb"/>
  <circle cx="302.97" cy="300.01" r="2.5" fill="#2563eb"/>
  <circle cx="304.06" cy="299.93" r="2.5" fill="#2563eb"/>
  <circle cx="305.16" cy="300.01" r="2.5" fill="#2563eb"/>
  <circle cx="306.25" cy="300.01" r="2.5" fill="#2563eb"/>
  <circle cx="307.34" cy="300.01" r="2.5" fill="#2563eb"/>
  <circle cx="308.44" cy="300.01" r="2.5" fill="#2563eb"/>
  <circle cx="309.53" cy="300.01" r="2.5" fill="#2563eb"/>
  <circle cx="310.62" cy="299.97" r="2.5" fill="#2563eb"/>
  <circle cx="311.72" cy="300.01" r="2.5" fill="#2563eb"/>
  <circle cx="312.81" cy="300.01" r="2.5" fill="#2563eb"/>
  <circle cx="313.91" cy="300.01" r="2.5" fill="#2563eb"/>
  <circle cx="315.00" cy="300.01" r="2.5" fill="#2563eb"/>
  <circle cx="316.09" cy="250.03" r="2.5" fill="#2563eb"/>
  <circle cx="317.19" cy="300.01" r="2.5" fill="#2563eb"/>
  <circle cx="318.28" cy="300.01" r="2.5" fill="#2563eb"/>
  <circle cx="319.38" cy="299.97" r="2.5" fill="#2563eb"/>
  <circle cx="320.47" cy="300.01" r="2.5" fill="#2563eb"/>
  <circle cx="321.56" cy="300.01" r="2.5" fill="#2563eb"/>
  <circle cx="322.66" cy="299.97" r="2.5" fill="#2563eb"/>
  <circle cx="323.75" cy="299.97" r="2.5" fill="#2563eb"/>
  <circle cx="324.84" cy="300.01" r="2.5" fill="#2563eb"/>
  <circle cx="325.94" cy="299.97" r="2.5" fill="#2563eb"/>
  <circle cx="327.03" cy="300.01" r="2.5" fill="#2563eb"/>
  <circle cx="328.12" cy="299.93" r="2.5" fill="#2563eb"/>
  <circle cx="329.22" cy="300.01" r="2.5" fill="#2563eb"/>
  <circle cx="330.31" cy="250.03" r="2.5" fill="#2563eb"/>
  <circle cx="331.41" cy="300.01" r="2.5" fill="#2563eb"/>
  <circle cx="332.50" cy="300.01" r="2.5" fill="#2563eb"/>
  <circle cx="333.59" cy="300.01" r="2.5" fill="#2563eb"/>
  <circle cx="334.69" cy="300.01" r="2.5" fill="#2563eb"/>
  <circle cx="335.78" cy="300.01" r="2.5" fill="#2563eb"/>
  <circle cx="336.88" cy="299.89" r="2.5" fill="#2563eb"/>
  <circle cx="337.97" cy="300.01" r="2.5" fill="#2563eb"/>
  <circle cx="339.06" cy="300.01" r="2.5" fill="#2563eb"/>
  <circle cx="340.16" cy="250.07" r="2.5" fill="#2563eb"/>
  <circle cx="341.25" cy="300.01" r="2.5" fill="#2563eb"/>
  <circle cx="342.34" cy="299.93" r="2.5" fill="#2563eb"/>
  <circle cx="343.44" cy="300.01" r="2.5" fill="#2563eb"/>
  <circle cx="344.53" cy="299.97" r="2.5" fill="#2563eb"/>
  <circle cx="345.62" cy="299.97" r="2.5" fill="#2563eb"/>
  <circle cx="346.72" cy="299.97" r="2.5" fill="#2563eb"/>
  <circle cx="347.81" cy="250.03" r="2.5" fill="#2563eb"/>
  <circle cx="348.91" cy="300.01" r="2.5" fill="#2563eb"/>
  <circle cx="350.00" cy="300.01" r="2.5" fill="#2563eb"/>
  <circle cx="351.09" cy="300.01" r="2.5" fill="#2563eb"/>
  <circle cx="352.19" cy="300.01" r="2.5" fill="#2563eb"/>
  <circle cx="353.28" cy="299.97" r="2.5" fill="#2563eb"/>
  <circle cx="354.38" cy="300.01" r="2.5" fill="#2563eb"/>
  <circle cx="355.47" cy="299.97" r="2.5" fill="#2563eb"/>
  <circle cx="356.56" cy="300.01" r="2.5" fill="#2563eb"/>
  <circle cx="357.66" cy="299.97" r="2.5" fill="#2563eb"/>
  <circle cx="358.75" cy="249.90" r="2.5" fill="#2563eb"/>
  <circle cx="359.84" cy="300.01" r="2.5" fill="#2563eb"/>
  <circle cx="360.94" cy="300.01" r="2.5" fill="#2563eb"/>
  <circle cx="362.03" cy="299.89" r="2.5" fill="#2563eb"/>
  <circle cx="363.12" cy="299.97" r="2.5" fill="#2563eb"/>
  <circle cx="364.22" cy="299.97" r="2.5" fill="#2563eb"/>
  <circle cx="365.31" cy="249.99" r="2.5" fill="#2563eb"/>
  <circle cx="366.41" cy="299.97" r="2.5" fill="#2563eb"/>
  <circle cx="367.50" cy="299.89" r="2.5" fill="#2563eb"/>
  <circle cx="368.59" cy="300.01" r="2.5" fill="#2563eb"/>
  <circle cx="369.69" cy="299.97" r="2.5" fill="#2563eb"/>
  <circle cx="370.78" cy="299.97" r="2.5" fill="#2563eb"/>
  <circle cx="371.88" cy="300.01" r="2.5" fill="#2563eb"/>
  <circle cx="372.97" cy="299.97" r="2.5" fill="#2563eb"/>
  <circle cx="374.06" cy="249.99" r="2.5" fill="#2563eb"/>
  <circle cx="375.16" cy="299.97" r="2.5" fill="#2563eb"/>
  <circle cx="376.25" cy="299.97" r="2.5" fill="#2563eb"/>
  <circle cx="377.34" cy="300.06" r="2.5" fill="#2563eb"/>
  <circle cx="378.44" cy="300.06" r="2.5" fill="#2563eb"/>
  <circle cx="379.53" cy="249.94" r="2.5" fill="#2563eb"/>
  <circle cx="380.62" cy="300.01" r="2.5" fill="#2563eb"/>
  <circle cx="381.72" cy="299.93" r="2.5" fill="#2563eb"/>
  <circle cx="382.81" cy="300.01" r="2.5" fill="#2563eb"/>
  <circle cx="383.91" cy="300.01" r="2.5" fill="#2563eb"/>
  <circle cx="385.00" cy="249.99" r="2.5" fill="#2563eb"/>
  <circle cx="386.09" cy="300.01" r="2.5" fill="#2563eb"/>
  <circle cx="387.19" cy="300.01" r="2.5" fill="#2563eb"/>
  <circle cx="388.28" cy="300.01" r="2.5" fill="#2563eb"/>
  <circle cx="389.38" cy="299.93" r="2.5" fill="#2563eb"/>
  <circle cx="390.47" cy="299.93" r="2.5" fill="#2563eb"/>
  <circle cx="391.56" cy="300.01" r="2.5" fill="#2563eb"/>
  <circle cx="392.66" cy="300.01" r="2.5" fill="#2563eb"/>
  <circle cx="393.75" cy="249.94" r="2.5" fill="#2563eb"/>
  <circle cx="394.84" cy="299.97" r="2.5" fill="#2563eb"/>
  <circle cx="395.94" cy="299.97" r="2.5" fill="#2563eb"/>
  <circle cx="397.03" cy="300.01" r="2.5" fill="#2563eb"/>
  <circle cx="398.12" cy="300.01" r="2.5" fill="#2563eb"/>
  <circle cx="399.22" cy="300.01" r="2.5" fill="#2563eb"/>
  <circle cx="400.31" cy="249.99" r="2.5" fill="#2563eb"/>
  <circle cx="401.41" cy="300.01" r="2.5" fill="#2563eb"/>
  <circle cx="402.50" cy="300.01" r="2.5" fill="#2563eb"/>
  <circle cx="403.59" cy="300.01" r="2.5" fill="#2563eb"/>
  <circle cx="404.69" cy="250.03" r="2.5" fill="#2563eb"/>
  <circle cx="405.78" cy="300.01" r="2.5" fill="#2563eb"/>
  <circle cx="406.88" cy="300.01" r="2.5" fill="#2563eb"/>
  <circle cx="407.97" cy="300.01" r="2.5" fill="#2563eb"/>
  <circle cx="409.06" cy="299.97" r="2.5" fill="#2563eb"/>
  <circle cx="410.16" cy="300.01" r="2.5" fill="#2563eb"/>
  <circle cx="411.25" cy="300.01" r="2.5" fill="#2563eb"/>
  <circle cx="412.34" cy="299.97" r="2.5" fill="#2563eb"/>
  <circle cx="413.44" cy="299.97" r="2.5" fill="#2563eb"/>
  <circle cx="414.53" cy="300.01" r="2.5" fill="#2563eb"/>
  <circle cx="415.62" cy="300.01" r="2.5" fill="#2563eb"/>
  <circle cx="416.72" cy="299.97" r="2.5" fill="#2563eb"/>
  <circle cx="417.81" cy="299.93" r="2.5" fill="#2563eb"/>
  <circle cx="418.91" cy="300.01" r="2.5" fill="#2563eb"/>
  <circle cx="420.00" cy="300.06" r="2.5" fill="#2563eb"/>
  <circle cx="421.09" cy="299.97" r="2.5" fill="#2563eb"/>
  <circle cx="422.19" cy="300.01" r="2.5" fill="#2563eb"/>
  <circle cx="423.28" cy="250.03" r="2.5" fill="#2563eb"/>
  <circle cx="424.38" cy="250.03" r="2.5" fill="#2563eb"/>
  <circle cx="425.47" cy="299.93" r="2.5" fill="#2563eb"/>
  <circle cx="426.56" cy="299.97" r="2.5" fill="#2563eb"/>
  <circle cx="427.66" cy="300.01" r="2.5" fill="#2563eb"/>
  <circle cx="428.75" cy="300.01" r="2.5" fill="#2563eb"/>
  <circle cx="429.84" cy="300.06" r="2.5" fill="#2563eb"/>
  <circle cx="430.94" cy="300.01" r="2.5" fill="#2563eb"/>
  <circle cx="432.03" cy="299.93" r="2.5" fill="#2563eb"/>
  <circle cx="433.12" cy="300.01" r="2.5" fill="#2563eb"/>
  <circle cx="434.22" cy="300.01" r="2.5" fill="#2563eb"/>
  <circle cx="435.31" cy="299.97" r="2.5" fill="#2563eb"/>
  <circle cx="436.41" cy="299.97" r="2.5" fill="#2563eb"/>
  <circle cx="437.50" cy="300.01" r="2.5" fill="#2563eb"/>
  <circle cx="438.59" cy="250.03" r="2.5" fill="#2563eb"/>
  <circle cx="439.69" cy="300.01" r="2.5" fill="#2563eb"/>
  <circle cx="440.78" cy="300.01" r="2.5" fill="#2563eb"/>
  <circle cx="441.88" cy="300.01" r="2.5" fill="#2563eb"/>
  <circle cx="442.97" cy="299.97" r="2.5" fill="#2563eb"/>
  <circle cx="444.06" cy="300.01" r="2.5" fill="#2563eb"/>
  <circle cx="445.16" cy="299.97" r="2.5" fill="#2563eb"/>
  <circle cx="446.25" cy="300.01" r="2.5" fill="#2563eb"/>
  <circle cx="447.34" cy="299.97" r="2.5" fill="#2563eb"/>
  <circle cx="448.44" cy="299.97" r="2.5" fill="#2563eb"/>
  <circle cx="449.53" cy="299.93" r="2.5" fill="#2563eb"/>
  <circle cx="450.62" cy="300.01" r="2.5" fill="#2563eb"/>
  <circle cx="451.72" cy="300.01" r="2.5" fill="#2563eb"/>
  <circle cx="452.81" cy="299.89" r="2.5" fill="#2563eb"/>
  <circle cx="453.91" cy="299.97" r="2.5" fill="#2563eb"/>
  <circle cx="455.00" cy="299.97" r="2.5" fill="#2563eb"/>
  <circle cx="456.09" cy="300.06" r="2.5" fill="#2563eb"/>
  <circle cx="457.19" cy="249.90" r="2.5" fill="#2563eb"/>
  <circle cx="458.28" cy="299.89" r="2.5" fill="#2563eb"/>
  <circle cx="459.38" cy="300.01" r="2.5" fill="#2563eb"/>
  <circle cx="460.47" cy="299.97" r="2.5" fill="#2563eb"/>
  <circle cx="461.56" cy="299.97" r="2.5" fill="#2563eb"/>
  <circle cx="462.66" cy="299.97" r="2.5" fill="#2563eb"/>
  <circle cx="463.75" cy="300.01" r="2.5" fill="#2563eb"/>
  <circle cx="464.84" cy="300.01" r="2.5" fill="#2563eb"/>
  <circle cx="465.94" cy="299.97" r="2.5" fill="#2563eb"/>
  <circle cx="467.03" cy="299.97" r="2.5" fill="#2563eb"/>
  <circle cx="468.12" cy="299.97" r="2.5" fill="#2563eb"/>
  <circle cx="469.22" cy="250.03" r="2.5" fill="#2563eb"/>
  <circle cx="470.31" cy="299.93" r="2.5" fill="#2563eb"/>
  <circle cx="471.41" cy="300.01" r="2.5" fill="#2563eb"/>
  <circle cx="472.50" cy="300.01" r="2.5" fill="#2563eb"/>
  <circle cx="473.59" cy="299.93" r="2.5" fill="#2563eb"/>
  <circle cx="474.69" cy="300.01" r="2.5" fill="#2563eb"/>
  <circle cx="475.78" cy="300.01" r="2.5" fill="#2563eb"/>
  <circle cx="476.88" cy="299.97" r="2.5" fill="#2563eb"/>
  <circle cx="477.97" cy="300.01" r="2.5" fill="#2563eb"/>
  <circle cx="479.06" cy="300.01" r="2.5" fill="#2563eb"/>
  <circle cx="480.16" cy="300.06" r="2.5" fill="#2563eb"/>
  <circle cx="481.25" cy="300.01" r="2.5" fill="#2563eb"/>
  <circle cx="482.34" cy="299.97" r="2.5" fill="#2563eb"/>
  <circle cx="483.44" cy="299.89" r="2.5" fill="#2563eb"/>
  <circle cx="484.53" cy="300.01" r="2.5" fill="#2563eb"/>
  <circle cx="485.62" cy="300.01" r="2.5" fill="#2563eb"/>
  <circle cx="486.72" cy="249.94" r="2.5" fill="#2563eb"/>
  <circle cx="487.81" cy="249.94" r="2.5" fill="#2563eb"/>
  <circle cx="488.91" cy="300.01" r="2.5" fill="#2563eb"/>
  <circle cx="490.00" cy="300.01" r="2.5" fill="#2563eb"/>
  <circle cx="491.09" cy="300.01" r="2.5" fill="#2563eb"/>
  <circle cx="492.19" cy="300.01" r="2.5" fill="#2563eb"/>
  <circle cx="493.28" cy="299.97" r="2.5" fill="#2563eb"/>
  <circle cx="494.38" cy="250.03" r="2.5" fill="#2563eb"/>
  <circle cx="495.47" cy="300.01" r="2.5" fill="#2563eb"/>
  <circle cx="496.56" cy="300.01" r="2.5" fill="#2563eb"/>
  <circle cx="497.66" cy="300.01" r="2.5" fill="#2563eb"/>
  <circle cx="498.75" cy="300.01" r="2.5" fill="#2563eb"/>
  <circle cx="499.84" cy="250.03" r="2.5" fill="#2563eb"/>
  <circle cx="500.94" cy="249.99" r="2.5" fill="#2563eb"/>
  <circle cx="502.03" cy="300.01" r="2.5" fill="#2563eb"/>
  <circle cx="503.12" cy="299.97" r="2.5" fill="#2563eb"/>
  <circle cx="504.22" cy="300.01" r="2.5" fill="#2563eb"/>
  <circle cx="505.31" cy="299.97" r="2.5" fill="#2563eb"/>
  <circle cx="506.41" cy="300.01" r="2.5" fill="#2563eb"/>
  <circle cx="507.50" cy="299.97" r="2.5" fill="#2563eb"/>
  <circle cx="508.59" cy="299.97" r="2.5" fill="#2563eb"/>
  <circle cx="509.69" cy="299.97" r="2.5" fill="#2563eb"/>
  <circle cx="510.78" cy="300.06" r="2.5" fill="#2563eb"/>
  <circle cx="511.88" cy="249.99" r="2.5" fill="#2563eb"/>
  <circle cx="512.97" cy="300.01" r="2.5" fill="#2563eb"/>
  <circle cx="514.06" cy="250.03" r="2.5" fill="#2563eb"/>
  <circle cx="515.16" cy="249.94" r="2.5" fill="#2563eb"/>
  <circle cx="516.25" cy="249.99" r="2.5" fill="#2563eb"/>
  <circle cx="517.34" cy="300.01" r="2.5" fill="#2563eb"/>
  <circle cx="518.44" cy="300.06" r="2.5" fill="#2563eb"/>
  <circle cx="519.53" cy="300.01" r="2.5" fill="#2563eb"/>
  <circle cx="520.62" cy="299.97" r="2.5" fill="#2563eb"/>
  <circle cx="521.72" cy="299.97" r="2.5" fill="#2563eb"/>
  <circle cx="522.81" cy="300.01" r="2.5" fill="#2563eb"/>
  <circle cx="523.91" cy="299.93" r="2.5" fill="#2563eb"/>
  <circle cx="525.00" cy="299.89" r="2.5" fill="#2563eb"/>
  <circle cx="526.09" cy="299.89" r="2.5" fill="#2563eb"/>
  <circle cx="527.19" cy="299.89" r="2.5" fill="#2563eb"/>
  <circle cx="528.28" cy="299.89" r="2.5" fill="#2563eb"/>
  <circle cx="529.38" cy="299.85" r="2.5" fill="#2563eb"/>
  <circle cx="530.47" cy="299.85" r="2.5" fill="#2563eb"/>
  <circle cx="531.56" cy="299.89" r="2.5" fill="#2563eb"/>
  <circle cx="532.66" cy="299.81" r="2.5" fill="#2563eb"/>
  <circle cx="533.75" cy="299.81" r="2.5" fill="#2563eb"/>
  <circle cx="534.84" cy="299.81" r="2.5" fill="#2563eb"/>
  <circle cx="535.94" cy="299.76" r="2.5" fill="#2563eb"/>
  <circle cx="537.03" cy="299.76" r="2.5" fill="#2563eb"/>
  <circle cx="538.12" cy="299.76" r="2.5" fill="#2563eb"/>
  <circle cx="539.22" cy="299.72" r="2.5" fill="#2563eb"/>
  <circle cx="540.31" cy="299.68" r="2.5" fill="#2563eb"/>
  <circle cx="541.41" cy="299.60" r="2.5" fill="#2563eb"/>
  <circle cx="542.50" cy="299.60" r="2.5" fill="#2563eb"/>
  <circle cx="543.59" cy="299.60" r="2.5" fill="#2563eb"/>
  <circle cx="544.69" cy="299.56" r="2.5" fill="#2563eb"/>
  <circle cx="545.78" cy="299.47" r="2.5" fill="#2563eb"/>
  <circle cx="546.88" cy="299.43" r="2.5" fill="#2563eb"/>
  <circle cx="547.97" cy="299.43" r="2.5" fill="#2563eb"/>
  <circle cx="549.06" cy="299.39" r="2.5" fill="#2563eb"/>
  <circle cx="550.16" cy="299.47" r="2.5" fill="#2563eb"/>
  <circle cx="551.25" cy="259.82" r="2.5" fill="#2563eb"/>
  <circle cx="552.34" cy="338.96" r="2.5" fill="#2563eb"/>
  <circle cx="553.44" cy="299.31" r="2.5" fill="#2563eb"/>
  <circle cx="554.53" cy="299.31" r="2.5" fill="#2563eb"/>
  <circle cx="555.62" cy="299.26" r="2.5" fill="#2563eb"/>
  <circle cx="556.72" cy="299.68" r="2.5" fill="#2563eb"/>
  <circle cx="557.81" cy="299.68" r="2.5" fill="#2563eb"/>
  <circle cx="558.91" cy="299.68" r="2.5" fill="#2563eb"/>
  <circle cx="560.00" cy="299.64" r="2.5" fill="#2563eb"/>
  <circle cx="561.09" cy="299.14" r="2.5" fill="#2563eb"/>
  <circle cx="562.19" cy="299.14" r="2.5" fill="#2563eb"/>
  <circle cx="563.28" cy="299.10" r="2.5" fill="#2563eb"/>
  <circle cx="564.38" cy="299.10" r="2.5" fill="#2563eb"/>
  <circle cx="565.47" cy="299.10" r="2.5" fill="#2563eb"/>
  <circle cx="566.56" cy="248.07" r="2.5" fill="#2563eb"/>
  <circle cx="567.66" cy="299.06" r="2.5" fill="#2563eb"/>
  <circle cx="568.75" cy="299.06" r="2.5" fill="#2563eb"/>
  <circle cx="569.84" cy="299.06" r="2.5" fill="#2563eb"/>
  <circle cx="570.94" cy="299.06" r="2.5" fill="#2563eb"/>
  <circle cx="572.03" cy="299.06" r="2.5" fill="#2563eb"/>
  <circle cx="573.12" cy="298.97" r="2.5" fill="#2563eb"/>
  <circle cx="574.22" cy="298.97" r="2.5" fill="#2563eb"/>
  <circle cx="575.31" cy="298.93" r="2.5" fill="#2563eb"/>
  <circle cx="576.41" cy="298.97" r="2.5" fill="#2563eb"/>
  <circle cx="577.50" cy="298.93" r="2.5" fill="#2563eb"/>
  <circle cx="578.59" cy="298.89" r="2.5" fill="#2563eb"/>
  <circle cx="579.69" cy="298.89" r="2.5" fill="#2563eb"/>
  <circle cx="580.78" cy="298.89" r="2.5" fill="#2563eb"/>
  <circle cx="581.88" cy="298.89" r="2.5" fill="#2563eb"/>
  <circle cx="582.97" cy="247.78" r="2.5" fill="#2563eb"/>
  <circle cx="584.06" cy="298.89" r="2.5" fill="#2563eb"/>
  <circle cx="585.16" cy="298.89" r="2.5" fill="#2563eb"/>
  <circle cx="586.25" cy="298.85" r="2.5" fill="#2563eb"/>
  <circle cx="587.34" cy="298.85" r="2.5" fill="#2563eb"/>
  <circle cx="588.44" cy="298.81" r="2.5" fill="#2563eb"/>
  <circle cx="589.53" cy="298.81" r="2.5" fill="#2563eb"/>
  <circle cx="590.62" cy="298.81" r="2.5" fill="#2563eb"/>
  <circle cx="591.72" cy="298.81" r="2.5" fill="#2563eb"/>
  <circle cx="592.81" cy="298.81" r="2.5" fill="#2563eb"/>
  <circle cx="593.91" cy="298.81" r="2.5" fill="#2563eb"/>
  <circle cx="595.00" cy="298.81" r="2.5" fill="#2563eb"/>
  <circle cx="596.09" cy="298.81" r="2.5" fill="#2563eb"/>
  <circle cx="597.19" cy="298.81" r="2.5" fill="#2563eb"/>
  <circle cx="598.28" cy="298.72" r="2.5" fill="#2563eb"/>
  <circle cx="599.38" cy="247.45" r="2.5" fill="#2563eb"/>
  <circle cx="600.47" cy="247.45" r="2.5" fill="#2563eb"/>
  <circle cx="601.56" cy="298.72" r="2.5" fill="#2563eb"/>
  <circle cx="602.66" cy="298.72" r="2.5" fill="#2563eb"/>
  <circle cx="603.75" cy="298.72" r="2.5" fill="#2563eb"/>
  <circle cx="604.84" cy="298.72" r="2.5" fill="#2563eb"/>
  <circle cx="605.94" cy="298.72" r="2.5" fill="#2563eb"/>
  <circle cx="607.03" cy="298.72" r="2.5" fill="#2563eb"/>
  <circle cx="608.12" cy="247.36" r="2.5" fill="#2563eb"/>
  <circle cx="609.22" cy="298.68" r="2.5" fill="#2563eb"/>
  <circle cx="610.31" cy="247.36" r="2.5" fill="#2563eb"/>
  <circle cx="611.41" cy="247.36" r="2.5" fill="#2563eb"/>
  <circle cx="612.50" cy="247.36" r="2.5" fill="#2563eb"/>
  <circle cx="613.59" cy="298.68" r="2.5" fill="#2563eb"/>
  <circle cx="614.69" cy="298.68" r="2.5" fill="#2563eb"/>
  <circle cx="615.78" cy="298.68" r="2.5" fill="#2563eb"/>
  <circle cx="616.88" cy="298.68" r="2.5" fill="#2563eb"/>
  <circle cx="617.97" cy="298.68" r="2.5" fill="#2563eb"/>
  <circle cx="619.06" cy="341.67" r="2.5" fill="#2563eb"/>
  <circle cx="620.16" cy="307.01" r="2.5" fill="#2563eb"/>
  <circle cx="621.25" cy="298.68" r="2.5" fill="#2563eb"/>
  <circle cx="622.34" cy="298.68" r="2.5" fill="#2563eb"/>
  <circle cx="623.44" cy="298.68" r="2.5" fill="#2563eb"/>
  <circle cx="624.53" cy="247.36" r="2.5" fill="#2563eb"/>
  <circle cx="625.62" cy="298.64" r="2.5" fill="#2563eb"/>
  <circle cx="626.72" cy="247.36" r="2.5" fill="#2563eb"/>
  <circle cx="627.81" cy="247.28" r="2.5" fill="#2563eb"/>
  <circle cx="628.91" cy="247.20" r="2.5" fill="#2563eb"/>
  <circle cx="630.00" cy="298.60" r="2.5" fill="#2563eb"/>
  <circle cx="631.09" cy="298.60" r="2.5" fill="#2563eb"/>
  <circle cx="632.19" cy="247.03" r="2.5" fill="#2563eb"/>
  <circle cx="633.28" cy="298.51" r="2.5" fill="#2563eb"/>
  <circle cx="634.38" cy="298.51" r="2.5" fill="#2563eb"/>
  <circle cx="635.47" cy="298.51" r="2.5" fill="#2563eb"/>
  <circle cx="636.56" cy="298.51" r="2.5" fill="#2563eb"/>
  <circle cx="637.66" cy="298.51" r="2.5" fill="#2563eb"/>
  <circle cx="638.75" cy="298.51" r="2.5" fill="#2563eb"/>
  <circle cx="639.84" cy="298.51" r="2.5" fill="#2563eb"/>
  <circle cx="640.94" cy="298.51" r="2.5" fill="#2563eb"/>
  <circle cx="642.03" cy="298.51" r="2.5" fill="#2563eb"/>
  <circle cx="643.12" cy="298.51" r="2.5" fill="#2563eb"/>
  <circle cx="644.22" cy="298.51" r="2.5" fill="#2563eb"/>
  <circle cx="645.31" cy="298.51" r="2.5" fill="#2563eb"/>
  <circle cx="646.41" cy="298.51" r="2.5" fill="#2563eb"/>
  <circle cx="647.50" cy="298.51" r="2.5" fill="#2563eb"/>
  <circle cx="648.59" cy="298.51" r="2.5" fill="#2563eb"/>
  <circle cx="649.69" cy="298.51" r="2.5" fill="#2563eb"/>
  <circle cx="650.78" cy="298.51" r="2.5" fill="#2563eb"/>
  <circle cx="651.88" cy="298.51" r="2.5" fill="#2563eb"/>
  <circle cx="652.97" cy="298.51" r="2.5" fill="#2563eb"/>
  <circle cx="654.06" cy="298.51" r="2.5" fill="#2563eb"/>
  <circle cx="655.16" cy="298.51" r="2.5" fill="#2563eb"/>
  <circle cx="656.25" cy="298.51" r="2.5" fill="#2563eb"/>
  <circle cx="657.34" cy="298.51" r="2.5" fill="#2563eb"/>
  <circle cx="658.44" cy="298.51" r="2.5" fill="#2563eb"/>
  <circle cx="659.53" cy="298.51" r="2.5" fill="#2563eb"/>
  <circle cx="660.62" cy="298.51" r="2.5" fill="#2563eb"/>
  <circle cx="661.72" cy="298.47" r="2.5" fill="#2563eb"/>
  <circle cx="662.81" cy="298.51" r="2.5" fill="#2563eb"/>
  <circle cx="663.91" cy="298.51" r="2.5" fill="#2563eb"/>
  <circle cx="665.00" cy="298.47" r="2.5" fill="#2563eb"/>
  <circle cx="666.09" cy="298.51" r="2.5" fill="#2563eb"/>
  <circle cx="667.19" cy="298.47" r="2.5" fill="#2563eb"/>
  <circle cx="668.28" cy="298.51" r="2.5" fill="#2563eb"/>
  <circle cx="669.38" cy="298.43" r="2.5" fill="#2563eb"/>
  <circle cx="670.47" cy="298.56" r="2.5" fill="#2563eb"/>
  <circle cx="671.56" cy="298.43" r="2.5" fill="#2563eb"/>
  <circle cx="672.66" cy="298.43" r="2.5" fill="#2563eb"/>
  <circle cx="673.75" cy="298.43" r="2.5" fill="#2563eb"/>
  <circle cx="674.84" cy="298.43" r="2.5" fill="#2563eb"/>
  <circle cx="675.94" cy="298.43" r="2.5" fill="#2563eb"/>
  <circle cx="677.03" cy="298.43" r="2.5" fill="#2563eb"/>
  <circle cx="678.12" cy="298.43" r="2.5" fill="#2563eb"/>
  <circle cx="679.22" cy="298.43" r="2.5" fill="#2563eb"/>
  <circle cx="680.31" cy="298.43" r="2.5" fill="#2563eb"/>
  <circle cx="681.41" cy="298.43" r="2.5" fill="#2563eb"/>
  <circle cx="682.50" cy="298.43" r="2.5" fill="#2563eb"/>
  <circle cx="683.59" cy="298.43" r="2.5" fill="#2563eb"/>
  <circle cx="684.69" cy="298.43" r="2.5" fill="#2563eb"/>
  <circle cx="685.78" cy="298.43" r="2.5" fill="#2563eb"/>
  <circle cx="686.88" cy="298.43" r="2.5" fill="#2563eb"/>
  <circle cx="687.97" cy="298.43" r="2.5" fill="#2563eb"/>
  <circle cx="689.06" cy="298.43" r="2.5" fill="#2563eb"/>
  <circle cx="690.16" cy="298.43" r="2.5" fill="#2563eb"/>
  <circle cx="691.25" cy="298.43" r="2.5" fill="#2563eb"/>
  <circle cx="692.34" cy="298.43" r="2.5" fill="#2563eb"/>
  <circle cx="693.44" cy="298.43" r="2.5" fill="#2563eb"/>
  <circle cx="694.53" cy="298.43" r="2.5" fill="#2563eb"/>
  <circle cx="695.62" cy="298.43" r="2.5" fill="#2563eb"/>
  <circle cx="696.72" cy="298.43" r="2.5" fill="#2563eb"/>
  <circle cx="697.81" cy="298.43" r="2.5" fill="#2563eb"/>
  <circle cx="698.91" cy="298.43" r="2.5" fill="#2563eb"/>
  <circle cx="700.00" cy="298.43" r="2.5" fill="#2563eb"/>
  <circle cx="701.09" cy="298.43" r="2.5" fill="#2563eb"/>
  <circle cx="702.19" cy="298.43" r="2.5" fill="#2563eb"/>
  <circle cx="703.28" cy="298.43" r="2.5" fill="#2563eb"/>
  <circle cx="704.38" cy="298.43" r="2.5" fill="#2563eb"/>
  <circle cx="705.47" cy="298.43" r="2.5" fill="#2563eb"/>
  <circle cx="706.56" cy="298.43" r="2.5" fill="#2563eb"/>
  <circle cx="707.66" cy="298.43" r="2.5" fill="#2563eb"/>
  <circle cx="708.75" cy="298.39" r="2.5" fill="#2563eb"/>
  <circle cx="709.84" cy="298.39" r="2.5" fill="#2563eb"/>
  <circle cx="710.94" cy="298.43" r="2.5" fill="#2563eb"/>
  <circle cx="712.03" cy="298.43" r="2.5" fill="#2563eb"/>
  <circle cx="713.12" cy="298.39" r="2.5" fill="#2563eb"/>
  <circle cx="714.22" cy="298.39" r="2.5" fill="#2563eb"/>
  <circle cx="715.31" cy="298.39" r="2.5" fill="#2563eb"/>
  <circle cx="716.41" cy="298.43" r="2.5" fill="#2563eb"/>
  <circle cx="717.50" cy="298.43" r="2.5" fill="#2563eb"/>
  <circle cx="718.59" cy="298.43" r="2.5" fill="#2563eb"/>
  <circle cx="719.69" cy="246.82" r="2.5" fill="#2563eb"/>
  <circle cx="720.78" cy="298.43" r="2.5" fill="#2563eb"/>
  <circle cx="721.88" cy="246.78" r="2.5" fill="#2563eb"/>
  <circle cx="722.97" cy="246.78" r="2.5" fill="#2563eb"/>
  <circle cx="724.06" cy="246.78" r="2.5" fill="#2563eb"/>
  <circle cx="725.16" cy="246.70" r="2.5" fill="#2563eb"/>
  <circle cx="726.25" cy="246.78" r="2.5" fill="#2563eb"/>
  <circle cx="727.34" cy="298.39" r="2.5" fill="#2563eb"/>
  <circle cx="728.44" cy="298.39" r="2.5" fill="#2563eb"/>
  <circle cx="729.53" cy="298.39" r="2.5" fill="#2563eb"/>
  <circle cx="730.62" cy="298.39" r="2.5" fill="#2563eb"/>
  <circle cx="731.72" cy="298.39" r="2.5" fill="#2563eb"/>
  <circle cx="732.81" cy="246.78" r="2.5" fill="#2563eb"/>
  <circle cx="733.91" cy="298.39" r="2.5" fill="#2563eb"/>
  <circle cx="735.00" cy="298.39" r="2.5" fill="#2563eb"/>
  <circle cx="736.09" cy="298.39" r="2.5" fill="#2563eb"/>
  <circle cx="737.19" cy="298.39" r="2.5" fill="#2563eb"/>
  <circle cx="738.28" cy="298.39" r="2.5" fill="#2563eb"/>
  <circle cx="739.38" cy="246.78" r="2.5" fill="#2563eb"/>
  <circle cx="740.47" cy="246.78" r="2.5" fill="#2563eb"/>
  <circle cx="741.56" cy="298.39" r="2.5" fill="#2563eb"/>
  <circle cx="742.66" cy="298.39" r="2.5" fill="#2563eb"/>
  <circle cx="743.75" cy="298.39" r="2.5" fill="#2563eb"/>
  <circle cx="744.84" cy="298.39" r="2.5" fill="#2563eb"/>
  <circle cx="745.94" cy="298.39" r="2.5" fill="#2563eb"/>
  <circle cx="747.03" cy="298.39" r="2.5" fill="#2563eb"/>
  <circle cx="748.12" cy="298.39" r="2.5" fill="#2563eb"/>
  <circle cx="749.22" cy="298.39" r="2.5" fill="#2563eb"/>
  <circle cx="750.31" cy="298.39" r="2.5" fill="#2563eb"/>
  <circle cx="751.41" cy="298.39" r="2.5" fill="#2563eb"/>
  <circle cx="752.50" cy="298.39" r="2.5" fill="#2563eb"/>
  <circle cx="753.59" cy="298.39" r="2.5" fill="#2563eb"/>
  <circle cx="754.69" cy="298.39" r="2.5" fill="#2563eb"/>
  <circle cx="755.78" cy="298.39" r="2.5" fill="#2563eb"/>
  <circle cx="756.88" cy="298.35" r="2.5" fill="#2563eb"/>
  <circle cx="757.97" cy="298.39" r="2.5" fill="#2563eb"/>
  <circle cx="759.06" cy="298.39" r="2.5" fill="#2563eb"/>
  <circle cx="760.16" cy="298.35" r="2.5" fill="#2563eb"/>
  <circle cx="761.25" cy="298.35" r="2.5" fill="#2563eb"/>
  <circle cx="762.34" cy="298.35" r="2.5" fill="#2563eb"/>
  <circle cx="763.44" cy="298.35" r="2.5" fill="#2563eb"/>
  <circle cx="764.53" cy="298.35" r="2.5" fill="#2563eb"/>
  <circle cx="765.62" cy="298.35" r="2.5" fill="#2563eb"/>
  <circle cx="766.72" cy="298.35" r="2.5" fill="#2563eb"/>
  <circle cx="767.81" cy="298.35" r="2.5" fill="#2563eb"/>
  <circle cx="768.91" cy="298.35" r="2.5" fill="#2563eb"/>
  <circle cx="770.00" cy="298.35" r="2.5" fill="#2563eb"/>
  <circle cx="771.09" cy="298.35" r="2.5" fill="#2563eb"/>
  <circle cx="772.19" cy="298.35" r="2.5" fill="#2563eb"/>
  <circle cx="773.28" cy="298.35" r="2.5" fill="#2563eb"/>
  <circle cx="774.38" cy="298.35" r="2.5" fill="#2563eb"/>
  <circle cx="775.47" cy="298.35" r="2.5" fill="#2563eb"/>
  <circle cx="776.56" cy="298.35" r="2.5" fill="#2563eb"/>
  <circle cx="777.66" cy="298.35" r="2.5" fill="#2563eb"/>
  <circle cx="778.75" cy="298.35" r="2.5" fill="#2563eb"/>
  <circle cx="779.84" cy="298.35" r="2.5" fill="#2563eb"/>
  <circle cx="780.94" cy="298.35" r="2.5" fill="#2563eb"/>
  <circle cx="782.03" cy="298.35" r="2.5" fill="#2563eb"/>
  <circle cx="783.12" cy="298.35" r="2.5" fill="#2563eb"/>
  <circle cx="784.22" cy="298.35" r="2.5" fill="#2563eb"/>
  <circle cx="785.31" cy="298.35" r="2.5" fill="#2563eb"/>
  <circle cx="786.41" cy="298.35" r="2.5" fill="#2563eb"/>
  <circle cx="787.50" cy="298.35" r="2.5" fill="#2563eb"/>
  <circle cx="788.59" cy="298.35" r="2.5" fill="#2563eb"/>
  <circle cx="789.69" cy="298.35" r="2.5" fill="#2563eb"/>
  <circle cx="790.78" cy="298.35" r="2.5" fill="#2563eb"/>
  <circle cx="791.88" cy="298.35" r="2.5" fill="#2563eb"/>
  <circle cx="792.97" cy="298.35" r="2.5" fill="#2563eb"/>
  <circle cx="794.06" cy="298.35" r="2.5" fill="#2563eb"/>
  <circle cx="795.16" cy="298.35" r="2.5" fill="#2563eb"/>
  <circle cx="796.25" cy="298.35" r="2.5" fill="#2563eb"/>
  <circle cx="797.34" cy="298.35" r="2.5" fill="#2563eb"/>
  <circle cx="798.44" cy="298.35" r="2.5" fill="#2563eb"/>
  <circle cx="799.53" cy="298.35" r="2.5" fill="#2563eb"/>
  <circle cx="800.62" cy="298.35" r="2.5" fill="#2563eb"/>
  <circle cx="801.72" cy="298.35" r="2.5" fill="#2563eb"/>
  <circle cx="802.81" cy="298.35" r="2.5" fill="#2563eb"/>
  <circle cx="803.91" cy="298.35" r="2.5" fill="#2563eb"/>
  <circle cx="805.00" cy="298.35" r="2.5" fill="#2563eb"/>
  <circle cx="806.09" cy="298.35" r="2.5" fill="#2563eb"/>
  <circle cx="807.19" cy="298.35" r="2.5" fill="#2563eb"/>
  <circle cx="808.28" cy="298.35" r="2.5" fill="#2563eb"/>
  <circle cx="809.38" cy="298.35" r="2.5" fill="#2563eb"/>
  <circle cx="810.47" cy="298.35" r="2.5" fill="#2563eb"/>
  <circle cx="811.56" cy="298.35" r="2.5" fill="#2563eb"/>
  <circle cx="812.66" cy="298.35" r="2.5" fill="#2563eb"/>
  <circle cx="813.75" cy="298.35" r="2.5" fill="#2563eb"/>
  <circle cx="814.84" cy="298.35" r="2.5" fill="#2563eb"/>
  <circle cx="815.94" cy="298.35" r="2.5" fill="#2563eb"/>
  <circle cx="817.03" cy="298.39" r="2.5" fill="#2563eb"/>
  <circle cx="818.12" cy="298.39" r="2.5" fill="#2563eb"/>
  <circle cx="819.22" cy="298.39" r="2.5" fill="#2563eb"/>
  <circle cx="820.31" cy="246.78" r="2.5" fill="#2563eb"/>
  <circle cx="821.41" cy="298.39" r="2.5" fill="#2563eb"/>
  <circle cx="822.50" cy="298.39" r="2.5" fill="#2563eb"/>
  <circle cx="823.59" cy="298.39" r="2.5" fill="#2563eb"/>
  <circle cx="824.69" cy="298.39" r="2.5" fill="#2563eb"/>
  <circle cx="825.78" cy="298.39" r="2.5" fill="#2563eb"/>
  <circle cx="826.88" cy="298.39" r="2.5" fill="#2563eb"/>
  <circle cx="827.97" cy="298.39" r="2.5" fill="#2563eb"/>
  <circle cx="829.06" cy="246.78" r="2.5" fill="#2563eb"/>
  <circle cx="830.16" cy="298.39" r="2.5" fill="#2563eb"/>
  <circle cx="831.25" cy="298.39" r="2.5" fill="#2563eb"/>
  <circle cx="832.34" cy="298.39" r="2.5" fill="#2563eb"/>
  <circle cx="833.44" cy="298.39" r="2.5" fill="#2563eb"/>
  <circle cx="834.53" cy="298.39" r="2.5" fill="#2563eb"/>
  <circle cx="835.62" cy="298.39" r="2.5" fill="#2563eb"/>
  <circle cx="836.72" cy="298.39" r="2.5" fill="#2563eb"/>
  <circle cx="837.81" cy="246.78" r="2.5" fill="#2563eb"/>
  <circle cx="838.91" cy="298.39" r="2.5" fill="#2563eb"/>
  <circle cx="840.00" cy="298.39" r="2.5" fill="#2563eb"/>
  <circle cx="841.09" cy="298.39" r="2.5" fill="#2563eb"/>
  <circle cx="842.19" cy="298.39" r="2.5" fill="#2563eb"/>
  <circle cx="843.28" cy="298.39" r="2.5" fill="#2563eb"/>
  <circle cx="844.38" cy="298.39" r="2.5" fill="#2563eb"/>
  <circle cx="845.47" cy="298.39" r="2.5" fill="#2563eb"/>
  <circle cx="846.56" cy="298.39" r="2.5" fill="#2563eb"/>
  <circle cx="847.66" cy="298.39" r="2.5" fill="#2563eb"/>
  <circle cx="848.75" cy="298.39" r="2.5" fill="#2563eb"/>
  <circle cx="849.84" cy="298.39" r="2.5" fill="#2563eb"/>
  <circle cx="850.94" cy="298.35" r="2.5" fill="#2563eb"/>
  <circle cx="852.03" cy="298.39" r="2.5" fill="#2563eb"/>
  <circle cx="853.12" cy="298.39" r="2.5" fill="#2563eb"/>
  <circle cx="854.22" cy="298.39" r="2.5" fill="#2563eb"/>
  <circle cx="855.31" cy="298.35" r="2.5" fill="#2563eb"/>
  <circle cx="856.41" cy="298.35" r="2.5" fill="#2563eb"/>
  <circle cx="857.50" cy="298.35" r="2.5" fill="#2563eb"/>
  <circle cx="858.59" cy="298.35" r="2.5" fill="#2563eb"/>
  <circle cx="859.69" cy="298.35" r="2.5" fill="#2563eb"/>
  <circle cx="860.78" cy="298.35" r="2.5" fill="#2563eb"/>
  <circle cx="861.88" cy="298.35" r="2.5" fill="#2563eb"/>
  <circle cx="862.97" cy="298.35" r="2.5" fill="#2563eb"/>
  <circle cx="864.06" cy="298.35" r="2.5" fill="#2563eb"/>
  <circle cx="865.16" cy="298.35" r="2.5" fill="#2563eb"/>
  <circle cx="866.25" cy="298.35" r="2.5" fill="#2563eb"/>
  <circle cx="867.34" cy="298.35" r="2.5" fill="#2563eb"/>
  <circle cx="868.44" cy="298.35" r="2.5" fill="#2563eb"/>
  <circle cx="869.53" cy="298.35" r="2.5" fill="#2563eb"/>
  <circle cx="870.62" cy="298.35" r="2.5" fill="#2563eb"/>
  <circle cx="871.72" cy="298.35" r="2.5" fill="#2563eb"/>
  <circle cx="872.81" cy="298.39" r="2.5" fill="#2563eb"/>
  <circle cx="873.91" cy="298.39" r="2.5" fill="#2563eb"/>
  <circle cx="875.00" cy="298.39" r="2.5" fill="#2563eb"/>
  <circle cx="876.09" cy="298.39" r="2.5" fill="#2563eb"/>
  <circle cx="877.19" cy="298.39" r="2.5" fill="#2563eb"/>
  <circle cx="878.28" cy="298.39" r="2.5" fill="#2563eb"/>
  <circle cx="879.38" cy="298.35" r="2.5" fill="#2563eb"/>
  <circle cx="880.47" cy="298.39" r="2.5" fill="#2563eb"/>
  <circle cx="881.56" cy="298.39" r="2.5" fill="#2563eb"/>
  <circle cx="882.66" cy="298.39" r="2.5" fill="#2563eb"/>
  <circle cx="883.75" cy="298.39" r="2.5" fill="#2563eb"/>
  <circle cx="884.84" cy="298.39" r="2.5" fill="#2563eb"/>
  <circle cx="885.94" cy="298.39" r="2.5" fill="#2563eb"/>
  <circle cx="887.03" cy="298.39" r="2.5" fill="#2563eb"/>
  <circle cx="888.12" cy="298.39" r="2.5" fill="#2563eb"/>
  <circle cx="889.22" cy="298.39" r="2.5" fill="#2563eb"/>
  <circle cx="890.31" cy="298.35" r="2.5" fill="#2563eb"/>
  <circle cx="891.41" cy="298.39" r="2.5" fill="#2563eb"/>
  <circle cx="892.50" cy="298.39" r="2.5" fill="#2563eb"/>
  <circle cx="893.59" cy="298.39" r="2.5" fill="#2563eb"/>
  <circle cx="894.69" cy="298.39" r="2.5" fill="#2563eb"/>
  <circle cx="895.78" cy="298.39" r="2.5" fill="#2563eb"/>
  <circle cx="896.88" cy="298.39" r="2.5" fill="#2563eb"/>
  <circle cx="897.97" cy="298.39" r="2.5" fill="#2563eb"/>
  <circle cx="899.06" cy="298.39" r="2.5" fill="#2563eb"/>
  <circle cx="900.16" cy="298.39" r="2.5" fill="#2563eb"/>
  <circle cx="901.25" cy="298.39" r="2.5" fill="#2563eb"/>
  <circle cx="902.34" cy="298.39" r="2.5" fill="#2563eb"/>
  <circle cx="903.44" cy="298.39" r="2.5" fill="#2563eb"/>
  <circle cx="904.53" cy="298.39" r="2.5" fill="#2563eb"/>
  <circle cx="905.62" cy="298.39" r="2.5" fill="#2563eb"/>
  <circle cx="906.72" cy="298.39" r="2.5" fill="#2563eb"/>
  <circle cx="907.81" cy="298.39" r="2.5" fill="#2563eb"/>
  <circle cx="908.91" cy="298.35" r="2.5" fill="#2563eb"/>
  <circle cx="910.00" cy="298.35" r="2.5" fill="#2563eb"/>
  <circle cx="911.09" cy="298.39" r="2.5" fill="#2563eb"/>
  <circle cx="912.19" cy="298.39" r="2.5" fill="#2563eb"/>
  <circle cx="913.28" cy="298.39" r="2.5" fill="#2563eb"/>
  <circle cx="914.38" cy="298.39" r="2.5" fill="#2563eb"/>
  <circle cx="915.47" cy="298.39" r="2.5" fill="#2563eb"/>
  <circle cx="916.56" cy="298.39" r="2.5" fill="#2563eb"/>
  <circle cx="917.66" cy="298.39" r="2.5" fill="#2563eb"/>
  <circle cx="918.75" cy="298.39" r="2.5" fill="#2563eb"/>
  <circle cx="919.84" cy="298.39" r="2.5" fill="#2563eb"/>
  <circle cx="920.94" cy="298.39" r="2.5" fill="#2563eb"/>
  <circle cx="922.03" cy="298.35" r="2.5" fill="#2563eb"/>
  <circle cx="923.12" cy="298.35" r="2.5" fill="#2563eb"/>
  <circle cx="924.22" cy="298.39" r="2.5" fill="#2563eb"/>
  <circle cx="925.31" cy="298.39" r="2.5" fill="#2563eb"/>
  <circle cx="926.41" cy="298.39" r="2.5" fill="#2563eb"/>
  <circle cx="927.50" cy="298.39" r="2.5" fill="#2563eb"/>
  <circle cx="928.59" cy="298.39" r="2.5" fill="#2563eb"/>
  <circle cx="929.69" cy="298.39" r="2.5" fill="#2563eb"/>
  <circle cx="930.78" cy="298.39" r="2.5" fill="#2563eb"/>
  <circle cx="931.88" cy="298.39" r="2.5" fill="#2563eb"/>
  <circle cx="932.97" cy="298.39" r="2.5" fill="#2563eb"/>
  <circle cx="934.06" cy="298.39" r="2.5" fill="#2563eb"/>
  <circle cx="935.16" cy="298.39" r="2.5" fill="#2563eb"/>
  <circle cx="936.25" cy="298.39" r="2.5" fill="#2563eb"/>
  <circle cx="937.34" cy="298.39" r="2.5" fill="#2563eb"/>
  <circle cx="938.44" cy="298.39" r="2.5" fill="#2563eb"/>
  <circle cx="939.53" cy="298.35" r="2.5" fill="#2563eb"/>
  <circle cx="940.62" cy="298.39" r="2.5" fill="#2563eb"/>
  <circle cx="941.72" cy="298.39" r="2.5" fill="#2563eb"/>
  <circle cx="942.81" cy="298.39" r="2.5" fill="#2563eb"/>
  <circle cx="943.91" cy="298.39" r="2.5" fill="#2563eb"/>
  <circle cx="945.00" cy="298.39" r="2.5" fill="#2563eb"/>
  <circle cx="946.09" cy="298.39" r="2.5" fill="#2563eb"/>
  <circle cx="947.19" cy="298.39" r="2.5" fill="#2563eb"/>
  <circle cx="948.28" cy="298.39" r="2.5" fill="#2563eb"/>
  <circle cx="949.38" cy="298.35" r="2.5" fill="#2563eb"/>
  <circle cx="950.47" cy="298.35" r="2.5" fill="#2563eb"/>
  <circle cx="951.56" cy="298.39" r="2.5" fill="#2563eb"/>
  <circle cx="952.66" cy="298.35" r="2.5" fill="#2563eb"/>
  <circle cx="953.75" cy="298.39" r="2.5" fill="#2563eb"/>
  <circle cx="954.84" cy="298.39" r="2.5" fill="#2563eb"/>
  <circle cx="955.94" cy="298.39" r="2.5" fill="#2563eb"/>
  <circle cx="957.03" cy="298.39" r="2.5" fill="#2563eb"/>
  <circle cx="958.12" cy="298.39" r="2.5" fill="#2563eb"/>
  <circle cx="959.22" cy="298.35" r="2.5" fill="#2563eb"/>
  <circle cx="960.31" cy="298.39" r="2.5" fill="#2563eb"/>
  <circle cx="961.41" cy="298.39" r="2.5" fill="#2563eb"/>
  <circle cx="962.50" cy="298.35" r="2.5" fill="#2563eb"/>
  <circle cx="963.59" cy="298.39" r="2.5" fill="#2563eb"/>
  <circle cx="964.69" cy="298.35" r="2.5" fill="#2563eb"/>
  <circle cx="965.78" cy="298.39" r="2.5" fill="#2563eb"/>
  <circle cx="966.88" cy="298.39" r="2.5" fill="#2563eb"/>
  <circle cx="967.97" cy="298.35" r="2.5" fill="#2563eb"/>
  <circle cx="969.06" cy="298.39" r="2.5" fill="#2563eb"/>
  <circle cx="970.16" cy="298.35" r="2.5" fill="#2563eb"/>
  <circle cx="971.25" cy="298.39" r="2.5" fill="#2563eb"/>
  <circle cx="972.34" cy="298.39" r="2.5" fill="#2563eb"/>
  <circle cx="973.44" cy="298.35" r="2.5" fill="#2563eb"/>
  <circle cx="974.53" cy="298.39" r="2.5" fill="#2563eb"/>
  <circle cx="975.62" cy="298.39" r="2.5" fill="#2563eb"/>
  <circle cx="976.72" cy="298.39" r="2.5" fill="#2563eb"/>
  <circle cx="977.81" cy="298.39" r="2.5" fill="#2563eb"/>
  <circle cx="978.91" cy="298.35" r="2.5" fill="#2563eb"/>
  <circle cx="980.00" cy="298.39" r="2.5" fill="#2563eb"/>
</svg>
