<?xml version="1.0" encoding="UTF-8"?>
<svg xmlns="http://www.w3.org/2000/svg" width="1000" height="420" viewBox="0 0 1000 420">
  <rect width="100%" height="100%" fill="#ffffff"/>
  <text x="70" y="28" font-size="20" font-weight="600">수집 시점 기준 - 시간별 스냅샷</text>
  <text x="70" y="402" font-size="12" fill="#555">스냅샷 수</text>
  <line x1="70" y1="350.00" x2="980" y2="350.00" stroke="#e5e7eb" stroke-width="1"/>
  <text x="62" y="354.00" font-size="11" fill="#6b7280" text-anchor="end">0</text>
  <line x1="70" y1="290.00" x2="980" y2="290.00" stroke="#e5e7eb" stroke-width="1"/>
  <text x="62" y="294.00" font-size="11" fill="#6b7280" text-anchor="end">1,440</text>
  <line x1="70" y1="230.00" x2="980" y2="230.00" stroke="#e5e7eb" stroke-width="1"/>
  <text x="62" y="234.00" font-size="11" fill="#6b7280" text-anchor="end">2,880</text>
  <line x1="70" y1="170.00" x2="980" y2="170.00" stroke="#e5e7eb" stroke-width="1"/>
  <text x="62" y="174.00" font-size="11" fill="#6b7280" text-anchor="end">4,321</text>
  <line x1="70" y1="110.00" x2="980" y2="110.00" stroke="#e5e7eb" stroke-width="1"/>
  <text x="62" y="114.00" font-size="11" fill="#6b7280" text-anchor="end">5,761</text>
  <line x1="70" y1="50.00" x2="980" y2="50.00" stroke="#e5e7eb" stroke-width="1"/>
  <text x="62" y="54.00" font-size="11" fill="#6b7280" text-anchor="end">7,202</text>
  <line x1="70" y1="350" x2="980" y2="350" stroke="#111827" stroke-width="1.2"/>
  <line x1="70" y1="50" x2="70" y2="350" stroke="#111827" stroke-width="1.2"/>
  <line x1="70.00" y1="350" x2="70.00" y2="356" stroke="#9ca3af" stroke-width="1"/>
  <text x="70.00" y="372" font-size="10" fill="#6b7280" text-anchor="middle">2026-02-28 18</text>
  <line x1="145.73" y1="350" x2="145.73" y2="356" stroke="#9ca3af" stroke-width="1"/>
  <text x="145.73" y="372" font-size="10" fill="#6b7280" text-anchor="middle">2026-03-09 19</text>
  <line x1="221.46" y1="350" x2="221.46" y2="356" stroke="#9ca3af" stroke-width="1"/>
  <text x="221.46" y="372" font-size="10" fill="#6b7280" text-anchor="middle">2026-03-12 15</text>
  <line x1="297.19" y1="350" x2="297.19" y2="356" stroke="#9ca3af" stroke-width="1"/>
  <text x="297.19" y="372" font-size="10" fill="#6b7280" text-anchor="middle">2026-03-15 19</text>
  <line x1="372.93" y1="350" x2="372.93" y2="356" stroke="#9ca3af" stroke-width="1"/>
  <text x="372.93" y="372" font-size="10" fill="#6b7280" text-anchor="middle">2026-03-19 22</text>
  <line x1="448.66" y1="350" x2="448.66" y2="356" stroke="#9ca3af" stroke-width="1"/>
  <text x="448.66" y="372" font-size="10" fill="#6b7280" text-anchor="middle">2026-03-23 08</text>
  <line x1="524.39" y1="350" x2="524.39" y2="356" stroke="#9ca3af" stroke-width="1"/>
  <text x="524.39" y="372" font-size="10" fill="#6b7280" text-anchor="middle">2026-03-27 19</text>
  <line x1="600.12" y1="350" x2="600.12" y2="356" stroke="#9ca3af" stroke-width="1"/>
  <text x="600.12" y="372" font-size="10" fill="#6b7280" text-anchor="middle">2026-03-31 23</text>
  <line x1="675.85" y1="350" x2="675.85" y2="356" stroke="#9ca3af" stroke-width="1"/>
  <text x="675.85" y="372" font-size="10" fill="#6b7280" text-anchor="middle">2026-04-05 04</text>
  <line x1="751.58" y1="350" x2="751.58" y2="356" stroke="#9ca3af" stroke-width="1"/>
  <text x="751.58" y="372" font-size="10" fill="#6b7280" text-anchor="middle">2026-04-09 12</text>
  <line x1="827.32" y1="350" x2="827.32" y2="356" stroke="#9ca3af" stroke-width="1"/>
  <text x="827.32" y="372" font-size="10" fill="#6b7280" text-anchor="middle">2026-04-13 21</text>
  <line x1="903.05" y1="350" x2="903.05" y2="356" stroke="#9ca3af" stroke-width="1"/>
  <text x="903.05" y="372" font-size="10" fill="#6b7280" text-anchor="middle">2026-04-18 14</text>
  <line x1="978.78" y1="350" x2="978.78" y2="356" stroke="#9ca3af" stroke-width="1"/>
  <text x="978.78" y="372" font-size="10" fill="#6b7280" text-anchor="middle">2026-04-22 20</text>
  <line x1="980.00" y1="350" x2="980.00" y2="356" stroke="#9ca3af" stroke-width="1"/>
  <text x="980.00" y="372" font-size="10" fill="#6b7280" text-anchor="middle">2026-04-22 23</text>
  <polyline fill="none" stroke="#2563eb" stroke-width="2.5" points="70.00,50.00 71.22,50.12 72.44,50.17 73.66,50.46 74.89,50.00 76.11,266.90 77.33,50.12 78.55,50.08 79.77,177.46 80.99,211.58 82.21,175.34 83.44,304.14 84.66,200.46 85.88,250.94 87.10,300.01 88.32,300.06 89.54,300.01 90.77,300.01 91.99,348.00 93.21,300.01 94.43,249.99 95.65,200.00 96.87,249.99 98.09,249.99 99.32,250.03 100.54,250.03 101.76,250.03 102.98,250.40 104.20,250.90 105.42,250.90 106.64,251.32 107.87,249.94 109.09,300.01 110.31,299.93 111.53,251.03 112.75,300.68 113.97,250.03 115.19,200.00 116.42,249.99 117.64,250.03 118.86,250.03 120.08,250.03 121.30,300.01 122.52,200.04 123.74,250.03 124.97,250.03 126.19,250.03 127.41,249.90 128.63,250.03 129.85,250.03 131.07,250.94 132.30,250.44 133.52,250.03 134.74,250.03 135.96,300.47 137.18,300.01 138.40,300.43 139.62,250.03 140.85,249.99 142.07,300.43 143.29,249.90 144.51,249.99 145.73,249.99 146.95,200.04 148.17,300.01 149.40,300.01 150.62,300.01 151.84,249.90 153.06,300.01 154.28,250.03 155.50,249.99 156.72,199.96 157.95,300.01 159.17,200.00 160.39,250.36 161.61,250.03 162.83,300.01 164.05,300.01 165.28,250.44 166.50,300.01 167.72,250.03 168.94,250.03 170.16,249.99 171.38,250.49 172.60,250.03 173.83,200.04 175.05,300.01 176.27,250.03 177.49,300.01 178.71,250.11 179.93,300.01 181.15,250.03 182.38,250.03 183.60,199.92 184.82,250.03 186.04,250.03 187.26,250.03 188.48,254.36 189.70,300.01 190.93,299.97 192.15,250.36 193.37,299.97 194.59,250.03 195.81,250.03 197.03,250.03 198.26,250.03 199.48,249.99 200.70,200.00 201.92,299.93 203.14,300.01 204.36,299.97 205.58,249.94 206.81,249.99 208.03,249.82 209.25,249.94 210.47,250.28 211.69,207.00 212.91,250.03 214.13,250.32 215.36,250.40 216.58,300.93 217.80,300.01 219.02,300.10 220.24,249.94 221.46,249.99 222.68,250.07 223.91,249.99 225.13,250.03 226.35,249.94 227.57,200.00 228.79,300.39 230.01,300.01 231.23,300.01 232.46,250.44 233.68,300.39 234.90,249.86 236.12,250.11 237.34,201.46 238.56,300.01 239.79,200.83 241.01,250.03 242.23,249.99 243.45,300.26 244.67,300.01 245.89,300.01 247.11,250.03 248.34,250.03 249.56,250.03 250.78,250.03 252.00,249.99 253.22,250.03 254.44,200.00 255.66,300.26 256.89,249.99 258.11,300.01 259.33,249.94 260.55,250.03 261.77,250.03 262.99,250.03 264.21,200.04 265.44,300.01 266.66,249.90 267.88,300.01 269.10,300.01 270.32,300.06 271.54,300.01 272.77,300.01 273.99,243.95 275.21,249.94 276.43,299.97 277.65,300.01 278.87,300.01 280.09,250.03 281.32,300.01 282.54,300.01 283.76,299.97 284.98,249.99 286.20,300.01 287.42,299.93 288.64,300.01 289.87,299.93 291.09,300.01 292.31,300.01 293.53,299.89 294.75,299.97 295.97,250.03 297.19,299.93 298.42,299.89 299.64,299.97 300.86,249.94 302.08,300.01 303.30,300.01 304.52,299.97 305.74,249.99 306.97,299.97 308.19,299.97 309.41,300.06 310.63,300.06 311.85,299.93 313.07,300.01 314.30,300.01 315.52,299.93 316.74,300.01 317.96,300.01 319.18,299.97 320.40,300.01 321.62,300.01 322.85,300.01 324.07,300.01 325.29,249.86 326.51,300.01 327.73,300.10 328.95,299.93 330.17,300.01 331.40,299.93 332.62,300.01 333.84,300.01 335.06,300.01 336.28,300.01 337.50,300.01 338.72,299.97 339.95,300.01 341.17,300.01 342.39,300.01 343.61,300.01 344.83,250.03 346.05,300.01 347.28,300.01 348.50,299.97 349.72,300.01 350.94,300.01 352.16,299.97 353.38,299.97 354.60,300.01 355.83,299.97 357.05,300.01 358.27,299.93 359.49,300.01 360.71,250.03 361.93,300.01 363.15,300.01 364.38,300.01 365.60,300.01 366.82,300.01 368.04,299.89 369.26,300.01 370.48,300.01 371.70,250.07 372.93,300.01 374.15,299.93 375.37,300.01 376.59,299.97 377.81,299.97 379.03,299.97 380.26,250.03 381.48,300.01 382.70,300.01 383.92,300.01 385.14,300.01 386.36,299.97 387.58,300.01 388.81,299.97 390.03,300.01 391.25,299.97 392.47,249.90 393.69,300.01 394.91,300.01 396.13,299.89 397.36,299.97 398.58,299.97 399.80,249.99 401.02,299.97 402.24,299.89 403.46,300.01 404.68,299.97 405.91,299.97 407.13,300.01 408.35,299.97 409.57,249.99 410.79,299.97 412.01,299.97 413.23,300.06 414.46,300.06 415.68,249.94 416.90,300.01 418.12,299.93 419.34,300.01 420.56,300.01 421.79,249.99 423.01,300.01 424.23,300.01 425.45,300.01 426.67,299.93 427.89,299.93 429.11,300.01 430.34,300.01 431.56,249.94 432.78,299.97 434.00,299.97 435.22,300.01 436.44,300.01 437.66,300.01 438.89,249.99 440.11,300.01 441.33,300.01 442.55,300.01 443.77,250.03 444.99,300.01 446.21,300.01 447.44,300.01 448.66,299.97 449.88,300.01 451.10,300.01 452.32,299.97 453.54,299.97 454.77,300.01 455.99,300.01 457.21,299.97 458.43,299.93 459.65,300.01 460.87,300.06 462.09,299.97 463.32,300.01 464.54,250.03 465.76,250.03 466.98,299.93 468.20,299.97 469.42,300.01 470.64,300.01 471.87,300.06 473.09,300.01 474.31,299.93 475.53,300.01 476.75,300.01 477.97,299.97 479.19,299.97 480.42,300.01 481.64,250.03 482.86,300.01 484.08,300.01 485.30,300.01 486.52,299.97 487.74,300.01 488.97,299.97 490.19,300.01 491.41,299.97 492.63,299.97 493.85,299.93 495.07,300.01 496.30,300.01 497.52,299.89 498.74,299.97 499.96,299.97 501.18,300.06 502.40,249.90 503.62,299.89 504.85,300.01 506.07,299.97 507.29,299.97 508.51,299.97 509.73,300.01 510.95,300.01 512.17,299.97 513.40,299.97 514.62,299.97 515.84,250.03 517.06,299.93 518.28,300.01 519.50,300.01 520.72,299.93 521.95,300.01 523.17,300.01 524.39,299.97 525.61,300.01 526.83,300.01 528.05,300.06 529.28,300.01 530.50,299.97 531.72,299.89 532.94,300.01 534.16,300.01 535.38,249.94 536.60,249.94 537.83,300.01 539.05,300.01 540.27,300.01 541.49,300.01 542.71,299.97 543.93,250.03 545.15,300.01 546.38,300.01 547.60,300.01 548.82,300.01 550.04,250.03 551.26,249.99 552.48,300.01 553.70,299.97 554.93,300.01 556.15,299.97 557.37,300.01 558.59,299.97 559.81,299.97 561.03,299.97 562.26,300.06 563.48,249.99 564.70,300.01 565.92,250.03 567.14,249.94 568.36,249.99 569.58,300.01 570.81,300.06 572.03,300.01 573.25,299.97 574.47,299.97 575.69,300.01 576.91,299.93 578.13,299.89 579.36,299.89 580.58,299.89 581.80,299.89 583.02,299.85 584.24,299.85 585.46,299.89 586.68,299.81 587.91,299.81 589.13,299.81 590.35,299.76 591.57,299.76 592.79,299.76 594.01,299.72 595.23,299.68 596.46,299.60 597.68,299.60 598.90,299.60 600.12,299.56 601.34,299.47 602.56,299.43 603.79,299.43 605.01,299.39 606.23,299.47 607.45,259.82 608.67,338.96 609.89,299.31 611.11,299.31 612.34,299.26 613.56,299.68 614.78,299.68 616.00,299.68 617.22,299.64 618.44,299.14 619.66,299.14 620.89,299.10 622.11,299.10 623.33,299.10 624.55,248.07 625.77,299.06 626.99,299.06 628.21,299.06 629.44,299.06 630.66,299.06 631.88,298.97 633.10,298.97 634.32,298.93 635.54,298.97 636.77,298.93 637.99,298.89 639.21,298.89 640.43,298.89 641.65,298.89 642.87,247.78 644.09,298.89 645.32,298.89 646.54,298.85 647.76,298.85 648.98,298.81 650.20,298.81 651.42,298.81 652.64,298.81 653.87,298.81 655.09,298.81 656.31,298.81 657.53,298.81 658.75,298.81 659.97,298.72 661.19,247.45 662.42,247.45 663.64,298.72 664.86,298.72 666.08,298.72 667.30,298.72 668.52,298.72 669.74,298.72 670.97,247.36 672.19,298.68 673.41,247.36 674.63,247.36 675.85,247.36 677.07,298.68 678.30,298.68 679.52,298.68 680.74,298.68 681.96,298.68 683.18,341.67 684.40,307.01 685.62,298.68 686.85,298.68 688.07,298.68 689.29,247.36 690.51,298.64 691.73,247.36 692.95,247.28 694.17,247.20 695.40,298.60 696.62,298.60 697.84,247.03 699.06,298.51 700.28,298.51 701.50,298.51 702.72,298.51 703.95,298.51 705.17,298.51 706.39,298.51 707.61,298.51 708.83,298.51 710.05,298.51 711.28,298.51 712.50,298.51 713.72,298.51 714.94,298.51 716.16,298.51 717.38,298.51 718.60,298.51 719.83,298.51 721.05,298.51 722.27,298.51 723.49,298.51 724.71,298.51 725.93,298.51 727.15,298.51 728.38,298.51 729.60,298.51 730.82,298.47 732.04,298.51 733.26,298.51 734.48,298.47 735.70,298.51 736.93,298.47 738.15,298.51 739.37,298.43 740.59,298.56 741.81,298.43 743.03,298.43 744.26,298.43 745.48,298.43 746.70,298.43 747.92,298.43 749.14,298.43 750.36,298.43 751.58,298.43 752.81,298.43 754.03,298.43 755.25,298.43 756.47,298.43 757.69,298.43 758.91,298.43 760.13,298.43 761.36,298.43 762.58,298.43 763.80,298.43 765.02,298.43 766.24,298.43 767.46,298.43 768.68,298.43 769.91,298.43 771.13,298.43 772.35,298.43 773.57,298.43 774.79,298.43 776.01,298.43 777.23,298.43 778.46,298.43 779.68,298.43 780.90,298.43 782.12,298.43 783.34,298.39 784.56,298.39 785.79,298.43 787.01,298.43 788.23,298.39 789.45,298.39 790.67,298.39 791.89,298.43 793.11,298.43 794.34,298.43 795.56,246.82 796.78,298.43 798.00,246.78 799.22,246.78 800.44,246.78 801.66,246.70 802.89,246.78 804.11,298.39 805.33,298.39 806.55,298.39 807.77,298.39 808.99,298.39 810.21,246.78 811.44,298.39 812.66,298.39 813.88,298.39 815.10,298.39 816.32,298.39 817.54,246.78 818.77,246.78 819.99,298.39 821.21,298.39 822.43,298.39 823.65,298.39 824.87,298.39 826.09,298.39 827.32,298.39 828.54,298.39 829.76,298.39 830.98,298.39 832.20,298.39 833.42,298.39 834.64,298.39 835.87,298.39 837.09,298.35 838.31,298.39 839.53,298.39 840.75,298.35 841.97,298.35 843.19,298.35 844.42,298.35 845.64,298.35 846.86,298.35 848.08,298.35 849.30,298.35 850.52,298.35 851.74,298.35 852.97,298.35 854.19,298.35 855.41,298.35 856.63,298.35 857.85,298.35 859.07,298.35 860.30,298.35 861.52,298.35 862.74,298.35 863.96,298.35 865.18,298.35 866.40,298.35 867.62,298.35 868.85,298.35 870.07,298.35 871.29,298.35 872.51,298.35 873.73,298.35 874.95,298.35 876.17,298.35 877.40,298.35 878.62,298.35 879.84,298.35 881.06,298.35 882.28,298.35 883.50,298.35 884.72,298.35 885.95,298.35 887.17,298.35 888.39,298.35 889.61,298.35 890.83,298.35 892.05,298.35 893.28,298.35 894.50,298.35 895.72,298.35 896.94,298.35 898.16,298.35 899.38,298.35 900.60,298.35 901.83,298.35 903.05,298.35 904.27,298.39 905.49,298.39 906.71,298.39 907.93,246.78 909.15,298.39 910.38,298.39 911.60,298.39 912.82,298.39 914.04,298.39 915.26,298.39 916.48,298.39 917.70,246.78 918.93,298.39 920.15,298.39 921.37,298.39 922.59,298.39 923.81,298.39 925.03,298.39 926.26,298.39 927.48,246.78 928.70,298.39 929.92,298.39 931.14,298.39 932.36,298.39 933.58,298.39 934.81,298.39 936.03,298.39 937.25,298.39 938.47,298.39 939.69,298.39 940.91,298.39 942.13,298.35 943.36,298.39 944.58,298.39 945.80,298.39 947.02,298.35 948.24,298.35 949.46,298.35 950.68,298.35 951.91,298.35 953.13,298.35 954.35,298.35 955.57,298.35 956.79,298.35 958.01,298.35 959.23,298.35 960.46,298.35 961.68,298.35 962.90,298.35 964.12,298.35 965.34,298.35 966.56,298.39 967.79,298.39 969.01,298.39 970.23,298.39 971.45,298.39 972.67,298.39 973.89,298.35 975.11,298.39 976.34,298.39 977.56,298.39 978.78,298.39 980.00,298.39"/>
  <circle cx="70.00" cy="50.00" r="2.5" fill="#2563eb"/>
  <circle cx="71.22" cy="50.12" r="2.5" fill="#2563eb"/>
  <circle cx="72.44" cy="50.17" r="2.5" fill="#2563eb"/>
  <circle cx="73.66" cy="50.46" r="2.5" fill="#2563eb"/>
  <circle cx="74.89" cy="50.00" r="2.5" fill="#2563eb"/>
  <circle cx="76.11" cy="266.90" r="2.5" fill="#2563eb"/>
  <circle cx="77.33" cy="50.12" r="2.5" fill="#2563eb"/>
  <circle cx="78.55" cy="50.08" r="2.5" fill="#2563eb"/>
  <circle cx="79.77" cy="177.46" r="2.5" fill="#2563eb"/>
  <circle cx="80.99" cy="211.58" r="2.5" fill="#2563eb"/>
  <circle cx="82.21" cy="175.34" r="2.5" fill="#2563eb"/>
  <circle cx="83.44" cy="304.14" r="2.5" fill="#2563eb"/>
  <circle cx="84.66" cy="200.46" r="2.5" fill="#2563eb"/>
  <circle cx="85.88" cy="250.94" r="2.5" fill="#2563eb"/>
  <circle cx="87.10" cy="300.01" r="2.5" fill="#2563eb"/>
  <circle cx="88.32" cy="300.06" r="2.5" fill="#2563eb"/>
  <circle cx="89.54" cy="300.01" r="2.5" fill="#2563eb"/>
  <circle cx="90.77" cy="300.01" r="2.5" fill="#2563eb"/>
  <circle cx="91.99" cy="348.00" r="2.5" fill="#2563eb"/>
  <circle cx="93.21" cy="300.01" r="2.5" fill="#2563eb"/>
  <circle cx="94.43" cy="249.99" r="2.5" fill="#2563eb"/>
  <circle cx="95.65" cy="200.00" r="2.5" fill="#2563eb"/>
  <circle cx="96.87" cy="249.99" r="2.5" fill="#2563eb"/>
  <circle cx="98.09" cy="249.99" r="2.5" fill="#2563eb"/>
  <circle cx="99.32" cy="250.03" r="2.5" fill="#2563eb"/>
  <circle cx="100.54" cy="250.03" r="2.5" fill="#2563eb"/>
  <circle cx="101.76" cy="250.03" r="2.5" fill="#2563eb"/>
  <circle cx="102.98" cy="250.40" r="2.5" fill="#2563eb"/>
  <circle cx="104.20" cy="250.90" r="2.5" fill="#2563eb"/>
  <circle cx="105.42" cy="250.90" r="2.5" fill="#2563eb"/>
  <circle cx="106.64" cy="251.32" r="2.5" fill="#2563eb"/>
  <circle cx="107.87" cy="249.94" r="2.5" fill="#2563eb"/>
  <circle cx="109.09" cy="300.01" r="2.5" fill="#2563eb"/>
  <circle cx="110.31" cy="299.93" r="2.5" fill="#2563eb"/>
  <circle cx="111.53" cy="251.03" r="2.5" fill="#2563eb"/>
  <circle cx="112.75" cy="300.68" r="2.5" fill="#2563eb"/>
  <circle cx="113.97" cy="250.03" r="2.5" fill="#2563eb"/>
  <circle cx="115.19" cy="200.00" r="2.5" fill="#2563eb"/>
  <circle cx="116.42" cy="249.99" r="2.5" fill="#2563eb"/>
  <circle cx="117.64" cy="250.03" r="2.5" fill="#2563eb"/>
  <circle cx="118.86" cy="250.03" r="2.5" fill="#2563eb"/>
  <circle cx="120.08" cy="250.03" r="2.5" fill="#2563eb"/>
  <circle cx="121.30" cy="300.01" r="2.5" fill="#2563eb"/>
  <circle cx="122.52" cy="200.04" r="2.5" fill="#2563eb"/>
  <circle cx="123.74" cy="250.03" r="2.5" fill="#2563eb"/>
  <circle cx="124.97" cy="250.03" r="2.5" fill="#2563eb"/>
  <circle cx="126.19" cy="250.03" r="2.5" fill="#2563eb"/>
  <circle cx="127.41" cy="249.90" r="2.5" fill="#2563eb"/>
  <circle cx="128.63" cy="250.03" r="2.5" fill="#2563eb"/>
  <circle cx="129.85" cy="250.03" r="2.5" fill="#2563eb"/>
  <circle cx="131.07" cy="250.94" r="2.5" fill="#2563eb"/>
  <circle cx="132.30" cy="250.44" r="2.5" fill="#2563eb"/>
  <circle cx="133.52" cy="250.03" r="2.5" fill="#2563eb"/>
  <circle cx="134.74" cy="250.03" r="2.5" fill="#2563eb"/>
  <circle cx="135.96" cy="300.47" r="2.5" fill="#2563eb"/>
  <circle cx="137.18" cy="300.01" r="2.5" fill="#2563eb"/>
  <circle cx="138.40" cy="300.43" r="2.5" fill="#2563eb"/>
  <circle cx="139.62" cy="250.03" r="2.5" fill="#2563eb"/>
  <circle cx="140.85" cy="249.99" r="2.5" fill="#2563eb"/>
  <circle cx="142.07" cy="300.43" r="2.5" fill="#2563eb"/>
  <circle cx="143.29" cy="249.90" r="2.5" fill="#2563eb"/>
  <circle cx="144.51" cy="249.99" r="2.5" fill="#2563eb"/>
  <circle cx="145.73" cy="249.99" r="2.5" fill="#2563eb"/>
  <circle cx="146.95" cy="200.04" r="2.5" fill="#2563eb"/>
  <circle cx="148.17" cy="300.01" r="2.5" fill="#2563eb"/>
  <circle cx="149.40" cy="300.01" r="2.5" fill="#2563eb"/>
  <circle cx="150.62" cy="300.01" r="2.5" fill="#2563eb"/>
  <circle cx="151.84" cy="249.90" r="2.5" fill="#2563eb"/>
  <circle cx="153.06" cy="300.01" r="2.5" fill="#2563eb"/>
  <circle cx="154.28" cy="250.03" r="2.5" fill="#2563eb"/>
  <circle cx="155.50" cy="249.99" r="2.5" fill="#2563eb"/>
  <circle cx="156.72" cy="199.96" r="2.5" fill="#2563eb"/>
  <circle cx="157.95" cy="300.01" r="2.5" fill="#2563eb"/>
  <circle cx="159.17" cy="200.00" r="2.5" fill="#2563eb"/>
  <circle cx="160.39" cy="250.36" r="2.5" fill="#2563eb"/>
  <circle cx="161.61" cy="250.03" r="2.5" fill="#2563eb"/>
  <circle cx="162.83" cy="300.01" r="2.5" fill="#2563eb"/>
  <circle cx="164.05" cy="300.01" r="2.5" fill="#2563eb"/>
  <circle cx="165.28" cy="250.44" r="2.5" fill="#2563eb"/>
  <circle cx="166.50" cy="300.01" r="2.5" fill="#2563eb"/>
  <circle cx="167.72" cy="250.03" r="2.5" fill="#2563eb"/>
  <circle cx="168.94" cy="250.03" r="2.5" fill="#2563eb"/>
  <circle cx="170.16" cy="249.99" r="2.5" fill="#2563eb"/>
  <circle cx="171.38" cy="250.49" r="2.5" fill="#2563eb"/>
  <circle cx="172.60" cy="250.03" r="2.5" fill="#2563eb"/>
  <circle cx="173.83" cy="200.04" r="2.5" fill="#2563eb"/>
  <circle cx="175.05" cy="300.01" r="2.5" fill="#2563eb"/>
  <circle cx="176.27" cy="250.03" r="2.5" fill="#2563eb"/>
  <circle cx="177.49" cy="300.01" r="2.5" fill="#2563eb"/>
  <circle cx="178.71" cy="250.11" r="2.5" fill="#2563eb"/>
  <circle cx="179.93" cy="300.01" r="2.5" fill="#2563eb"/>
  <circle cx="181.15" cy="250.03" r="2.5" fill="#2563eb"/>
  <circle cx="182.38" cy="250.03" r="2.5" fill="#2563eb"/>
  <circle cx="183.60" cy="199.92" r="2.5" fill="#2563eb"/>
  <circle cx="184.82" cy="250.03" r="2.5" fill="#2563eb"/>
  <circle cx="186.04" cy="250.03" r="2.5" fill="#2563eb"/>
  <circle cx="187.26" cy="250.03" r="2.5" fill="#2563eb"/>
  <circle cx="188.48" cy="254.36" r="2.5" fill="#2563eb"/>
  <circle cx="189.70" cy="300.01" r="2.5" fill="#2563eb"/>
  <circle cx="190.93" cy="299.97" r="2.5" fill="#2563eb"/>
  <circle cx="192.15" cy="250.36" r="2.5" fill="#2563eb"/>
  <circle cx="193.37" cy="299.97" r="2.5" fill="#2563eb"/>
  <circle cx="194.59" cy="250.03" r="2.5" fill="#2563eb"/>
  <circle cx="195.81" cy="250.03" r="2.5" fill="#2563eb"/>
  <circle cx="197.03" cy="250.03" r="2.5" fill="#2563eb"/>
  <circle cx="198.26" cy="250.03" r="2.5" fill="#2563eb"/>
  <circle cx="199.48" cy="249.99" r="2.5" fill="#2563eb"/>
  <circle cx="200.70" cy="200.00" r="2.5" fill="#2563eb"/>
  <circle cx="201.92" cy="299.93" r="2.5" fill="#2563eb"/>
  <circle cx="203.14" cy="300.01" r="2.5" fill="#2563eb"/>
  <circle cx="204.36" cy="299.97" r="2.5" fill="#2563eb"/>
  <circle cx="205.58" cy="249.94" r="2.5" fill="#2563eb"/>
  <circle cx="206.81" cy="249.99" r="2.5" fill="#2563eb"/>
  <circle cx="208.03" cy="249.82" r="2.5" fill="#2563eb"/>
  <circle cx="209.25" cy="249.94" r="2.5" fill="#2563eb"/>
  <circle cx="210.47" cy="250.28" r="2.5" fill="#2563eb"/>
  <circle cx="211.69" cy="207.00" r="2.5" fill="#2563eb"/>
  <circle cx="212.91" cy="250.03" r="2.5" fill="#2563eb"/>
  <circle cx="214.13" cy="250.32" r="2.5" fill="#2563eb"/>
  <circle cx="215.36" cy="250.40" r="2.5" fill="#2563eb"/>
  <circle cx="216.58" cy="300.93" r="2.5" fill="#2563eb"/>
  <circle cx="217.80" cy="300.01" r="2.5" fill="#2563eb"/>
  <circle cx="219.02" cy="300.10" r="2.5" fill="#2563eb"/>
  <circle cx="220.24" cy="249.94" r="2.5" fill="#2563eb"/>
  <circle cx="221.46" cy="249.99" r="2.5" fill="#2563eb"/>
  <circle cx="222.68" cy="250.07" r="2.5" fill="#2563eb"/>
  <circle cx="223.91" cy="249.99" r="2.5" fill="#2563eb"/>
  <circle cx="225.13" cy="250.03" r="2.5" fill="#2563eb"/>
  <circle cx="226.35" cy="249.94" r="2.5" fill="#2563eb"/>
  <circle cx="227.57" cy="200.00" r="2.5" fill="#2563eb"/>
  <circle cx="228.79" cy="300.39" r="2.5" fill="#2563eb"/>
  <circle cx="230.01" cy="300.01" r="2.5" fill="#2563eb"/>
  <circle cx="231.23" cy="300.01" r="2.5" fill="#2563eb"/>
  <circle cx="232.46" cy="250.44" r="2.5" fill="#2563eb"/>
  <circle cx="233.68" cy="300.39" r="2.5" fill="#2563eb"/>
  <circle cx="234.90" cy="249.86" r="2.5" fill="#2563eb"/>
  <circle cx="236.12" cy="250.11" r="2.5" fill="#2563eb"/>
  <circle cx="237.34" cy="201.46" r="2.5" fill="#2563eb"/>
  <circle cx="238.56" cy="300.01" r="2.5" fill="#2563eb"/>
  <circle cx="239.79" cy="200.83" r="2.5" fill="#2563eb"/>
  <circle cx="241.01" cy="250.03" r="2.5" fill="#2563eb"/>
  <circle cx="242.23" cy="249.99" r="2.5" fill="#2563eb"/>
  <circle cx="243.45" cy="300.26" r="2.5" fill="#2563eb"/>
  <circle cx="244.67" cy="300.01" r="2.5" fill="#2563eb"/>
  <circle cx="245.89" cy="300.01" r="2.5" fill="#2563eb"/>
  <circle cx="247.11" cy="250.03" r="2.5" fill="#2563eb"/>
  <circle cx="248.34" cy="250.03" r="2.5" fill="#2563eb"/>
  <circle cx="249.56" cy="250.03" r="2.5" fill="#2563eb"/>
  <circle cx="250.78" cy="250.03" r="2.5" fill="#2563eb"/>
  <circle cx="252.00" cy="249.99" r="2.5" fill="#2563eb"/>
  <circle cx="253.22" cy="250.03" r="2.5" fill="#2563eb"/>
  <circle cx="254.44" cy="200.00" r="2.5" fill="#2563eb"/>
  <circle cx="255.66" cy="300.26" r="2.5" fill="#2563eb"/>
  <circle cx="256.89" cy="249.99" r="2.5" fill="#2563eb"/>
  <circle cx="258.11" cy="300.01" r="2.5" fill="#2563eb"/>
  <circle cx="259.33" cy="249.94" r="2.5" fill="#2563eb"/>
  <circle cx="260.55" cy="250.03" r="2.5" fill="#2563eb"/>
  <circle cx="261.77" cy="250.03" r="2.5" fill="#2563eb"/>
  <circle cx="262.99" cy="250.03" r="2.5" fill="#2563eb"/>
  <circle cx="264.21" cy="200.04" r="2.5" fill="#2563eb"/>
  <circle cx="265.44" cy="300.01" r="2.5" fill="#2563eb"/>
  <circle cx="266.66" cy="249.90" r="2.5" fill="#2563eb"/>
  <circle cx="267.88" cy="300.01" r="2.5" fill="#2563eb"/>
  <circle cx="269.10" cy="300.01" r="2.5" fill="#2563eb"/>
  <circle cx="270.32" cy="300.06" r="2.5" fill="#2563eb"/>
  <circle cx="271.54" cy="300.01" r="2.5" fill="#2563eb"/>
  <circle cx="272.77" cy="300.01" r="2.5" fill="#2563eb"/>
  <circle cx="273.99" cy="243.95" r="2.5" fill="#2563eb"/>
  <circle cx="275.21" cy="249.94" r="2.5" fill="#2563eb"/>
  <circle cx="276.43" cy="299.97" r="2.5" fill="#2563eb"/>
  <circle cx="277.65" cy="300.01" r="2.5" fill="#2563eb"/>
  <circle cx="278.87" cy="300.01" r="2.5" fill="#2563eb"/>
  <circle cx="280.09" cy="250.03" r="2.5" fill="#2563eb"/>
  <circle cx="281.32" cy="300.01" r="2.5" fill="#2563eb"/>
  <circle cx="282.54" cy="300.01" r="2.5" fill="#2563eb"/>
  <circle cx="283.76" cy="299.97" r="2.5" fill="#2563eb"/>
  <circle cx="284.98" cy="249.99" r="2.5" fill="#2563eb"/>
  <circle cx="286.20" cy="300.01" r="2.5" fill="#2563eb"/>
  <circle cx="287.42" cy="299.93" r="2.5" fill="#2563eb"/>
  <circle cx="288.64" cy="300.01" r="2.5" fill="#2563eb"/>
  <circle cx="289.87" cy="299.93" r="2.5" fill="#2563eb"/>
  <circle cx="291.09" cy="300.01" r="2.5" fill="#2563eb"/>
  <circle cx="292.31" cy="300.01" r="2.5" fill="#2563eb"/>
  <circle cx="293.53" cy="299.89" r="2.5" fill="#2563eb"/>
  <circle cx="294.75" cy="299.97" r="2.5" fill="#2563eb"/>
  <circle cx="295.97" cy="250.03" r="2.5" fill="#2563eb"/>
  <circle cx="297.19" cy="299.93" r="2.5" fill="#2563eb"/>
  <circle cx="298.42" cy="299.89" r="2.5" fill="#2563eb"/>
  <circle cx="299.64" cy="299.97" r="2.5" fill="#2563eb"/>
  <circle cx="300.86" cy="249.94" r="2.5" fill="#2563eb"/>
  <circle cx="302.08" cy="300.01" r="2.5" fill="#2563eb"/>
  <circle cx="303.30" cy="300.01" r="2.5" fill="#2563eb"/>
  <circle cx="304.52" cy="299.97" r="2.5" fill="#2563eb"/>
  <circle cx="305.74" cy="249.99" r="2.5" fill="#2563eb"/>
  <circle cx="306.97" cy="299.97" r="2.5" fill="#2563eb"/>
  <circle cx="308.19" cy="299.97" r="2.5" fill="#2563eb"/>
  <circle cx="309.41" cy="300.06" r="2.5" fill="#2563eb"/>
  <circle cx="310.63" cy="300.06" r="2.5" fill="#2563eb"/>
  <circle cx="311.85" cy="299.93" r="2.5" fill="#2563eb"/>
  <circle cx="313.07" cy="300.01" r="2.5" fill="#2563eb"/>
  <circle cx="314.30" cy="300.01" r="2.5" fill="#2563eb"/>
  <circle cx="315.52" cy="299.93" r="2.5" fill="#2563eb"/>
  <circle cx="316.74" cy="300.01" r="2.5" fill="#2563eb"/>
  <circle cx="317.96" cy="300.01" r="2.5" fill="#2563eb"/>
  <circle cx="319.18" cy="299.97" r="2.5" fill="#2563eb"/>
  <circle cx="320.40" cy="300.01" r="2.5" fill="#2563eb"/>
  <circle cx="321.62" cy="300.01" r="2.5" fill="#2563eb"/>
  <circle cx="322.85" cy="300.01" r="2.5" fill="#2563eb"/>
  <circle cx="324.07" cy="300.01" r="2.5" fill="#2563eb"/>
  <circle cx="325.29" cy="249.86" r="2.5" fill="#2563eb"/>
  <circle cx="326.51" cy="300.01" r="2.5" fill="#2563eb"/>
  <circle cx="327.73" cy="300.10" r="2.5" fill="#2563eb"/>
  <circle cx="328.95" cy="299.93" r="2.5" fill="#2563eb"/>
  <circle cx="330.17" cy="300.01" r="2.5" fill="#2563eb"/>
  <circle cx="331.40" cy="299.93" r="2.5" fill="#2563eb"/>
  <circle cx="332.62" cy="300.01" r="2.5" fill="#2563eb"/>
  <circle cx="333.84" cy="300.01" r="2.5" fill="#2563eb"/>
  <circle cx="335.06" cy="300.01" r="2.5" fill="#2563eb"/>
  <circle cx="336.28" cy="300.01" r="2.5" fill="#2563eb"/>
  <circle cx="337.50" cy="300.01" r="2.5" fill="#2563eb"/>
  <circle cx="338.72" cy="299.97" r="2.5" fill="#2563eb"/>
  <circle cx="339.95" cy="300.01" r="2.5" fill="#2563eb"/>
  <circle cx="341.17" cy="300.01" r="2.5" fill="#2563eb"/>
  <circle cx="342.39" cy="300.01" r="2.5" fill="#2563eb"/>
  <circle cx="343.61" cy="300.01" r="2.5" fill="#2563eb"/>
  <circle cx="344.83" cy="250.03" r="2.5" fill="#2563eb"/>
  <circle cx="346.05" cy="300.01" r="2.5" fill="#2563eb"/>
  <circle cx="347.28" cy="300.01" r="2.5" fill="#2563eb"/>
  <circle cx="348.50" cy="299.97" r="2.5" fill="#2563eb"/>
  <circle cx="349.72" cy="300.01" r="2.5" fill="#2563eb"/>
  <circle cx="350.94" cy="300.01" r="2.5" fill="#2563eb"/>
  <circle cx="352.16" cy="299.97" r="2.5" fill="#2563eb"/>
  <circle cx="353.38" cy="299.97" r="2.5" fill="#2563eb"/>
  <circle cx="354.60" cy="300.01" r="2.5" fill="#2563eb"/>
  <circle cx="355.83" cy="299.97" r="2.5" fill="#2563eb"/>
  <circle cx="357.05" cy="300.01" r="2.5" fill="#2563eb"/>
  <circle cx="358.27" cy="299.93" r="2.5" fill="#2563eb"/>
  <circle cx="359.49" cy="300.01" r="2.5" fill="#2563eb"/>
  <circle cx="360.71" cy="250.03" r="2.5" fill="#2563eb"/>
  <circle cx="361.93" cy="300.01" r="2.5" fill="#2563eb"/>
  <circle cx="363.15" cy="300.01" r="2.5" fill="#2563eb"/>
  <circle cx="364.38" cy="300.01" r="2.5" fill="#2563eb"/>
  <circle cx="365.60" cy="300.01" r="2.5" fill="#2563eb"/>
  <circle cx="366.82" cy="300.01" r="2.5" fill="#2563eb"/>
  <circle cx="368.04" cy="299.89" r="2.5" fill="#2563eb"/>
  <circle cx="369.26" cy="300.01" r="2.5" fill="#2563eb"/>
  <circle cx="370.48" cy="300.01" r="2.5" fill="#2563eb"/>
  <circle cx="371.70" cy="250.07" r="2.5" fill="#2563eb"/>
  <circle cx="372.93" cy="300.01" r="2.5" fill="#2563eb"/>
  <circle cx="374.15" cy="299.93" r="2.5" fill="#2563eb"/>
  <circle cx="375.37" cy="300.01" r="2.5" fill="#2563eb"/>
  <circle cx="376.59" cy="299.97" r="2.5" fill="#2563eb"/>
  <circle cx="377.81" cy="299.97" r="2.5" fill="#2563eb"/>
  <circle cx="379.03" cy="299.97" r="2.5" fill="#2563eb"/>
  <circle cx="380.26" cy="250.03" r="2.5" fill="#2563eb"/>
  <circle cx="381.48" cy="300.01" r="2.5" fill="#2563eb"/>
  <circle cx="382.70" cy="300.01" r="2.5" fill="#2563eb"/>
  <circle cx="383.92" cy="300.01" r="2.5" fill="#2563eb"/>
  <circle cx="385.14" cy="300.01" r="2.5" fill="#2563eb"/>
  <circle cx="386.36" cy="299.97" r="2.5" fill="#2563eb"/>
  <circle cx="387.58" cy="300.01" r="2.5" fill="#2563eb"/>
  <circle cx="388.81" cy="299.97" r="2.5" fill="#2563eb"/>
  <circle cx="390.03" cy="300.01" r="2.5" fill="#2563eb"/>
  <circle cx="391.25" cy="299.97" r="2.5" fill="#2563eb"/>
  <circle cx="392.47" cy="249.90" r="2.5" fill="#2563eb"/>
  <circle cx="393.69" cy="300.01" r="2.5" fill="#2563eb"/>
  <circle cx="394.91" cy="300.01" r="2.5" fill="#2563eb"/>
  <circle cx="396.13" cy="299.89" r="2.5" fill="#2563eb"/>
  <circle cx="397.36" cy="299.97" r="2.5" fill="#2563eb"/>
  <circle cx="398.58" cy="299.97" r="2.5" fill="#2563eb"/>
  <circle cx="399.80" cy="249.99" r="2.5" fill="#2563eb"/>
  <circle cx="401.02" cy="299.97" r="2.5" fill="#2563eb"/>
  <circle cx="402.24" cy="299.89" r="2.5" fill="#2563eb"/>
  <circle cx="403.46" cy="300.01" r="2.5" fill="#2563eb"/>
  <circle cx="404.68" cy="299.97" r="2.5" fill="#2563eb"/>
  <circle cx="405.91" cy="299.97" r="2.5" fill="#2563eb"/>
  <circle cx="407.13" cy="300.01" r="2.5" fill="#2563eb"/>
  <circle cx="408.35" cy="299.97" r="2.5" fill="#2563eb"/>
  <circle cx="409.57" cy="249.99" r="2.5" fill="#2563eb"/>
  <circle cx="410.79" cy="299.97" r="2.5" fill="#2563eb"/>
  <circle cx="412.01" cy="299.97" r="2.5" fill="#2563eb"/>
  <circle cx="413.23" cy="300.06" r="2.5" fill="#2563eb"/>
  <circle cx="414.46" cy="300.06" r="2.5" fill="#2563eb"/>
  <circle cx="415.68" cy="249.94" r="2.5" fill="#2563eb"/>
  <circle cx="416.90" cy="300.01" r="2.5" fill="#2563eb"/>
  <circle cx="418.12" cy="299.93" r="2.5" fill="#2563eb"/>
  <circle cx="419.34" cy="300.01" r="2.5" fill="#2563eb"/>
  <circle cx="420.56" cy="300.01" r="2.5" fill="#2563eb"/>
  <circle cx="421.79" cy="249.99" r="2.5" fill="#2563eb"/>
  <circle cx="423.01" cy="300.01" r="2.5" fill="#2563eb"/>
  <circle cx="424.23" cy="300.01" r="2.5" fill="#2563eb"/>
  <circle cx="425.45" cy="300.01" r="2.5" fill="#2563eb"/>
  <circle cx="426.67" cy="299.93" r="2.5" fill="#2563eb"/>
  <circle cx="427.89" cy="299.93" r="2.5" fill="#2563eb"/>
  <circle cx="429.11" cy="300.01" r="2.5" fill="#2563eb"/>
  <circle cx="430.34" cy="300.01" r="2.5" fill="#2563eb"/>
  <circle cx="431.56" cy="249.94" r="2.5" fill="#2563eb"/>
  <circle cx="432.78" cy="299.97" r="2.5" fill="#2563eb"/>
  <circle cx="434.00" cy="299.97" r="2.5" fill="#2563eb"/>
  <circle cx="435.22" cy="300.01" r="2.5" fill="#2563eb"/>
  <circle cx="436.44" cy="300.01" r="2.5" fill="#2563eb"/>
  <circle cx="437.66" cy="300.01" r="2.5" fill="#2563eb"/>
  <circle cx="438.89" cy="249.99" r="2.5" fill="#2563eb"/>
  <circle cx="440.11" cy="300.01" r="2.5" fill="#2563eb"/>
  <circle cx="441.33" cy="300.01" r="2.5" fill="#2563eb"/>
  <circle cx="442.55" cy="300.01" r="2.5" fill="#2563eb"/>
  <circle cx="443.77" cy="250.03" r="2.5" fill="#2563eb"/>
  <circle cx="444.99" cy="300.01" r="2.5" fill="#2563eb"/>
  <circle cx="446.21" cy="300.01" r="2.5" fill="#2563eb"/>
  <circle cx="447.44" cy="300.01" r="2.5" fill="#2563eb"/>
  <circle cx="448.66" cy="299.97" r="2.5" fill="#2563eb"/>
  <circle cx="449.88" cy="300.01" r="2.5" fill="#2563eb"/>
  <circle cx="451.10" cy="300.01" r="2.5" fill="#2563eb"/>
  <circle cx="452.32" cy="299.97" r="2.5" fill="#2563eb"/>
  <circle cx="453.54" cy="299.97" r="2.5" fill="#2563eb"/>
  <circle cx="454.77" cy="300.01" r="2.5" fill="#2563eb"/>
  <circle cx="455.99" cy="300.01" r="2.5" fill="#2563eb"/>
  <circle cx="457.21" cy="299.97" r="2.5" fill="#2563eb"/>
  <circle cx="458.43" cy="299.93" r="2.5" fill="#2563eb"/>
  <circle cx="459.65" cy="300.01" r="2.5" fill="#2563eb"/>
  <circle cx="460.87" cy="300.06" r="2.5" fill="#2563eb"/>
  <circle cx="462.09" cy="299.97" r="2.5" fill="#2563eb"/>
  <circle cx="463.32" cy="300.01" r="2.5" fill="#2563eb"/>
  <circle cx="464.54" cy="250.03" r="2.5" fill="#2563eb"/>
  <circle cx="465.76" cy="250.03" r="2.5" fill="#2563eb"/>
  <circle cx="466.98" cy="299.93" r="2.5" fill="#2563eb"/>
  <circle cx="468.20" cy="299.97" r="2.5" fill="#2563eb"/>
  <circle cx="469.42" cy="300.01" r="2.5" fill="#2563eb"/>
  <circle cx="470.64" cy="300.01" r="2.5" fill="#2563eb"/>
  <circle cx="471.87" cy="300.06" r="2.5" fill="#2563eb"/>
  <circle cx="473.09" cy="300.01" r="2.5" fill="#2563eb"/>
  <circle cx="474.31" cy="299.93" r="2.5" fill="#2563eb"/>
  <circle cx="475.53" cy="300.01" r="2.5" fill="#2563eb"/>
  <circle cx="476.75" cy="300.01" r="2.5" fill="#2563eb"/>
  <circle cx="477.97" cy="299.97" r="2.5" fill="#2563eb"/>
  <circle cx="479.19" cy="299.97" r="2.5" fill="#2563eb"/>
  <circle cx="480.42" cy="300.01" r="2.5" fill="#2563eb"/>
  <circle cx="481.64" cy="250.03" r="2.5" fill="#2563eb"/>
  <circle cx="482.86" cy="300.01" r="2.5" fill="#2563eb"/>
  <circle cx="484.08" cy="300.01" r="2.5" fill="#2563eb"/>
  <circle cx="485.30" cy="300.01" r="2.5" fill="#2563eb"/>
  <circle cx="486.52" cy="299.97" r="2.5" fill="#2563eb"/>
  <circle cx="487.74" cy="300.01" r="2.5" fill="#2563eb"/>
  <circle cx="488.97" cy="299.97" r="2.5" fill="#2563eb"/>
  <circle cx="490.19" cy="300.01" r="2.5" fill="#2563eb"/>
  <circle cx="491.41" cy="299.97" r="2.5" fill="#2563eb"/>
  <circle cx="492.63" cy="299.97" r="2.5" fill="#2563eb"/>
  <circle cx="493.85" cy="299.93" r="2.5" fill="#2563eb"/>
  <circle cx="495.07" cy="300.01" r="2.5" fill="#2563eb"/>
  <circle cx="496.30" cy="300.01" r="2.5" fill="#2563eb"/>
  <circle cx="497.52" cy="299.89" r="2.5" fill="#2563eb"/>
  <circle cx="498.74" cy="299.97" r="2.5" fill="#2563eb"/>
  <circle cx="499.96" cy="299.97" r="2.5" fill="#2563eb"/>
  <circle cx="501.18" cy="300.06" r="2.5" fill="#2563eb"/>
  <circle cx="502.40" cy="249.90" r="2.5" fill="#2563eb"/>
  <circle cx="503.62" cy="299.89" r="2.5" fill="#2563eb"/>
  <circle cx="504.85" cy="300.01" r="2.5" fill="#2563eb"/>
  <circle cx="506.07" cy="299.97" r="2.5" fill="#2563eb"/>
  <circle cx="507.29" cy="299.97" r="2.5" fill="#2563eb"/>
  <circle cx="508.51" cy="299.97" r="2.5" fill="#2563eb"/>
  <circle cx="509.73" cy="300.01" r="2.5" fill="#2563eb"/>
  <circle cx="510.95" cy="300.01" r="2.5" fill="#2563eb"/>
  <circle cx="512.17" cy="299.97" r="2.5" fill="#2563eb"/>
  <circle cx="513.40" cy="299.97" r="2.5" fill="#2563eb"/>
  <circle cx="514.62" cy="299.97" r="2.5" fill="#2563eb"/>
  <circle cx="515.84" cy="250.03" r="2.5" fill="#2563eb"/>
  <circle cx="517.06" cy="299.93" r="2.5" fill="#2563eb"/>
  <circle cx="518.28" cy="300.01" r="2.5" fill="#2563eb"/>
  <circle cx="519.50" cy="300.01" r="2.5" fill="#2563eb"/>
  <circle cx="520.72" cy="299.93" r="2.5" fill="#2563eb"/>
  <circle cx="521.95" cy="300.01" r="2.5" fill="#2563eb"/>
  <circle cx="523.17" cy="300.01" r="2.5" fill="#2563eb"/>
  <circle cx="524.39" cy="299.97" r="2.5" fill="#2563eb"/>
  <circle cx="525.61" cy="300.01" r="2.5" fill="#2563eb"/>
  <circle cx="526.83" cy="300.01" r="2.5" fill="#2563eb"/>
  <circle cx="528.05" cy="300.06" r="2.5" fill="#2563eb"/>
  <circle cx="529.28" cy="300.01" r="2.5" fill="#2563eb"/>
  <circle cx="530.50" cy="299.97" r="2.5" fill="#2563eb"/>
  <circle cx="531.72" cy="299.89" r="2.5" fill="#2563eb"/>
  <circle cx="532.94" cy="300.01" r="2.5" fill="#2563eb"/>
  <circle cx="534.16" cy="300.01" r="2.5" fill="#2563eb"/>
  <circle cx="535.38" cy="249.94" r="2.5" fill="#2563eb"/>
  <circle cx="536.60" cy="249.94" r="2.5" fill="#2563eb"/>
  <circle cx="537.83" cy="300.01" r="2.5" fill="#2563eb"/>
  <circle cx="539.05" cy="300.01" r="2.5" fill="#2563eb"/>
  <circle cx="540.27" cy="300.01" r="2.5" fill="#2563eb"/>
  <circle cx="541.49" cy="300.01" r="2.5" fill="#2563eb"/>
  <circle cx="542.71" cy="299.97" r="2.5" fill="#2563eb"/>
  <circle cx="543.93" cy="250.03" r="2.5" fill="#2563eb"/>
  <circle cx="545.15" cy="300.01" r="2.5" fill="#2563eb"/>
  <circle cx="546.38" cy="300.01" r="2.5" fill="#2563eb"/>
  <circle cx="547.60" cy="300.01" r="2.5" fill="#2563eb"/>
  <circle cx="548.82" cy="300.01" r="2.5" fill="#2563eb"/>
  <circle cx="550.04" cy="250.03" r="2.5" fill="#2563eb"/>
  <circle cx="551.26" cy="249.99" r="2.5" fill="#2563eb"/>
  <circle cx="552.48" cy="300.01" r="2.5" fill="#2563eb"/>
  <circle cx="553.70" cy="299.97" r="2.5" fill="#2563eb"/>
  <circle cx="554.93" cy="300.01" r="2.5" fill="#2563eb"/>
  <circle cx="556.15" cy="299.97" r="2.5" fill="#2563eb"/>
  <circle cx="557.37" cy="300.01" r="2.5" fill="#2563eb"/>
  <circle cx="558.59" cy="299.97" r="2.5" fill="#2563eb"/>
  <circle cx="559.81" cy="299.97" r="2.5" fill="#2563eb"/>
  <circle cx="561.03" cy="299.97" r="2.5" fill="#2563eb"/>
  <circle cx="562.26" cy="300.06" r="2.5" fill="#2563eb"/>
  <circle cx="563.48" cy="249.99" r="2.5" fill="#2563eb"/>
  <circle cx="564.70" cy="300.01" r="2.5" fill="#2563eb"/>
  <circle cx="565.92" cy="250.03" r="2.5" fill="#2563eb"/>
  <circle cx="567.14" cy="249.94" r="2.5" fill="#2563eb"/>
  <circle cx="568.36" cy="249.99" r="2.5" fill="#2563eb"/>
  <circle cx="569.58" cy="300.01" r="2.5" fill="#2563eb"/>
  <circle cx="570.81" cy="300.06" r="2.5" fill="#2563eb"/>
  <circle cx="572.03" cy="300.01" r="2.5" fill="#2563eb"/>
  <circle cx="573.25" cy="299.97" r="2.5" fill="#2563eb"/>
  <circle cx="574.47" cy="299.97" r="2.5" fill="#2563eb"/>
  <circle cx="575.69" cy="300.01" r="2.5" fill="#2563eb"/>
  <circle cx="576.91" cy="299.93" r="2.5" fill="#2563eb"/>
  <circle cx="578.13" cy="299.89" r="2.5" fill="#2563eb"/>
  <circle cx="579.36" cy="299.89" r="2.5" fill="#2563eb"/>
  <circle cx="580.58" cy="299.89" r="2.5" fill="#2563eb"/>
  <circle cx="581.80" cy="299.89" r="2.5" fill="#2563eb"/>
  <circle cx="583.02" cy="299.85" r="2.5" fill="#2563eb"/>
  <circle cx="584.24" cy="299.85" r="2.5" fill="#2563eb"/>
  <circle cx="585.46" cy="299.89" r="2.5" fill="#2563eb"/>
  <circle cx="586.68" cy="299.81" r="2.5" fill="#2563eb"/>
  <circle cx="587.91" cy="299.81" r="2.5" fill="#2563eb"/>
  <circle cx="589.13" cy="299.81" r="2.5" fill="#2563eb"/>
  <circle cx="590.35" cy="299.76" r="2.5" fill="#2563eb"/>
  <circle cx="591.57" cy="299.76" r="2.5" fill="#2563eb"/>
  <circle cx="592.79" cy="299.76" r="2.5" fill="#2563eb"/>
  <circle cx="594.01" cy="299.72" r="2.5" fill="#2563eb"/>
  <circle cx="595.23" cy="299.68" r="2.5" fill="#2563eb"/>
  <circle cx="596.46" cy="299.60" r="2.5" fill="#2563eb"/>
  <circle cx="597.68" cy="299.60" r="2.5" fill="#2563eb"/>
  <circle cx="598.90" cy="299.60" r="2.5" fill="#2563eb"/>
  <circle cx="600.12" cy="299.56" r="2.5" fill="#2563eb"/>
  <circle cx="601.34" cy="299.47" r="2.5" fill="#2563eb"/>
  <circle cx="602.56" cy="299.43" r="2.5" fill="#2563eb"/>
  <circle cx="603.79" cy="299.43" r="2.5" fill="#2563eb"/>
  <circle cx="605.01" cy="299.39" r="2.5" fill="#2563eb"/>
  <circle cx="606.23" cy="299.47" r="2.5" fill="#2563eb"/>
  <circle cx="607.45" cy="259.82" r="2.5" fill="#2563eb"/>
  <circle cx="608.67" cy="338.96" r="2.5" fill="#2563eb"/>
  <circle cx="609.89" cy="299.31" r="2.5" fill="#2563eb"/>
  <circle cx="611.11" cy="299.31" r="2.5" fill="#2563eb"/>
  <circle cx="612.34" cy="299.26" r="2.5" fill="#2563eb"/>
  <circle cx="613.56" cy="299.68" r="2.5" fill="#2563eb"/>
  <circle cx="614.78" cy="299.68" r="2.5" fill="#2563eb"/>
  <circle cx="616.00" cy="299.68" r="2.5" fill="#2563eb"/>
  <circle cx="617.22" cy="299.64" r="2.5" fill="#2563eb"/>
  <circle cx="618.44" cy="299.14" r="2.5" fill="#2563eb"/>
  <circle cx="619.66" cy="299.14" r="2.5" fill="#2563eb"/>
  <circle cx="620.89" cy="299.10" r="2.5" fill="#2563eb"/>
  <circle cx="622.11" cy="299.10" r="2.5" fill="#2563eb"/>
  <circle cx="623.33" cy="299.10" r="2.5" fill="#2563eb"/>
  <circle cx="624.55" cy="248.07" r="2.5" fill="#2563eb"/>
  <circle cx="625.77" cy="299.06" r="2.5" fill="#2563eb"/>
  <circle cx="626.99" cy="299.06" r="2.5" fill="#2563eb"/>
  <circle cx="628.21" cy="299.06" r="2.5" fill="#2563eb"/>
  <circle cx="629.44" cy="299.06" r="2.5" fill="#2563eb"/>
  <circle cx="630.66" cy="299.06" r="2.5" fill="#2563eb"/>
  <circle cx="631.88" cy="298.97" r="2.5" fill="#2563eb"/>
  <circle cx="633.10" cy="298.97" r="2.5" fill="#2563eb"/>
  <circle cx="634.32" cy="298.93" r="2.5" fill="#2563eb"/>
  <circle cx="635.54" cy="298.97" r="2.5" fill="#2563eb"/>
  <circle cx="636.77" cy="298.93" r="2.5" fill="#2563eb"/>
  <circle cx="637.99" cy="298.89" r="2.5" fill="#2563eb"/>
  <circle cx="639.21" cy="298.89" r="2.5" fill="#2563eb"/>
  <circle cx="640.43" cy="298.89" r="2.5" fill="#2563eb"/>
  <circle cx="641.65" cy="298.89" r="2.5" fill="#2563eb"/>
  <circle cx="642.87" cy="247.78" r="2.5" fill="#2563eb"/>
  <circle cx="644.09" cy="298.89" r="2.5" fill="#2563eb"/>
  <circle cx="645.32" cy="298.89" r="2.5" fill="#2563eb"/>
  <circle cx="646.54" cy="298.85" r="2.5" fill="#2563eb"/>
  <circle cx="647.76" cy="298.85" r="2.5" fill="#2563eb"/>
  <circle cx="648.98" cy="298.81" r="2.5" fill="#2563eb"/>
  <circle cx="650.20" cy="298.81" r="2.5" fill="#2563eb"/>
  <circle cx="651.42" cy="298.81" r="2.5" fill="#2563eb"/>
  <circle cx="652.64" cy="298.81" r="2.5" fill="#2563eb"/>
  <circle cx="653.87" cy="298.81" r="2.5" fill="#2563eb"/>
  <circle cx="655.09" cy="298.81" r="2.5" fill="#2563eb"/>
  <circle cx="656.31" cy="298.81" r="2.5" fill="#2563eb"/>
  <circle cx="657.53" cy="298.81" r="2.5" fill="#2563eb"/>
  <circle cx="658.75" cy="298.81" r="2.5" fill="#2563eb"/>
  <circle cx="659.97" cy="298.72" r="2.5" fill="#2563eb"/>
  <circle cx="661.19" cy="247.45" r="2.5" fill="#2563eb"/>
  <circle cx="662.42" cy="247.45" r="2.5" fill="#2563eb"/>
  <circle cx="663.64" cy="298.72" r="2.5" fill="#2563eb"/>
  <circle cx="664.86" cy="298.72" r="2.5" fill="#2563eb"/>
  <circle cx="666.08" cy="298.72" r="2.5" fill="#2563eb"/>
  <circle cx="667.30" cy="298.72" r="2.5" fill="#2563eb"/>
  <circle cx="668.52" cy="298.72" r="2.5" fill="#2563eb"/>
  <circle cx="669.74" cy="298.72" r="2.5" fill="#2563eb"/>
  <circle cx="670.97" cy="247.36" r="2.5" fill="#2563eb"/>
  <circle cx="672.19" cy="298.68" r="2.5" fill="#2563eb"/>
  <circle cx="673.41" cy="247.36" r="2.5" fill="#2563eb"/>
  <circle cx="674.63" cy="247.36" r="2.5" fill="#2563eb"/>
  <circle cx="675.85" cy="247.36" r="2.5" fill="#2563eb"/>
  <circle cx="677.07" cy="298.68" r="2.5" fill="#2563eb"/>
  <circle cx="678.30" cy="298.68" r="2.5" fill="#2563eb"/>
  <circle cx="679.52" cy="298.68" r="2.5" fill="#2563eb"/>
  <circle cx="680.74" cy="298.68" r="2.5" fill="#2563eb"/>
  <circle cx="681.96" cy="298.68" r="2.5" fill="#2563eb"/>
  <circle cx="683.18" cy="341.67" r="2.5" fill="#2563eb"/>
  <circle cx="684.40" cy="307.01" r="2.5" fill="#2563eb"/>
  <circle cx="685.62" cy="298.68" r="2.5" fill="#2563eb"/>
  <circle cx="686.85" cy="298.68" r="2.5" fill="#2563eb"/>
  <circle cx="688.07" cy="298.68" r="2.5" fill="#2563eb"/>
  <circle cx="689.29" cy="247.36" r="2.5" fill="#2563eb"/>
  <circle cx="690.51" cy="298.64" r="2.5" fill="#2563eb"/>
  <circle cx="691.73" cy="247.36" r="2.5" fill="#2563eb"/>
  <circle cx="692.95" cy="247.28" r="2.5" fill="#2563eb"/>
  <circle cx="694.17" cy="247.20" r="2.5" fill="#2563eb"/>
  <circle cx="695.40" cy="298.60" r="2.5" fill="#2563eb"/>
  <circle cx="696.62" cy="298.60" r="2.5" fill="#2563eb"/>
  <circle cx="697.84" cy="247.03" r="2.5" fill="#2563eb"/>
  <circle cx="699.06" cy="298.51" r="2.5" fill="#2563eb"/>
  <circle cx="700.28" cy="298.51" r="2.5" fill="#2563eb"/>
  <circle cx="701.50" cy="298.51" r="2.5" fill="#2563eb"/>
  <circle cx="702.72" cy="298.51" r="2.5" fill="#2563eb"/>
  <circle cx="703.95" cy="298.51" r="2.5" fill="#2563eb"/>
  <circle cx="705.17" cy="298.51" r="2.5" fill="#2563eb"/>
  <circle cx="706.39" cy="298.51" r="2.5" fill="#2563eb"/>
  <circle cx="707.61" cy="298.51" r="2.5" fill="#2563eb"/>
  <circle cx="708.83" cy="298.51" r="2.5" fill="#2563eb"/>
  <circle cx="710.05" cy="298.51" r="2.5" fill="#2563eb"/>
  <circle cx="711.28" cy="298.51" r="2.5" fill="#2563eb"/>
  <circle cx="712.50" cy="298.51" r="2.5" fill="#2563eb"/>
  <circle cx="713.72" cy="298.51" r="2.5" fill="#2563eb"/>
  <circle cx="714.94" cy="298.51" r="2.5" fill="#2563eb"/>
  <circle cx="716.16" cy="298.51" r="2.5" fill="#2563eb"/>
  <circle cx="717.38" cy="298.51" r="2.5" fill="#2563eb"/>
  <circle cx="718.60" cy="298.51" r="2.5" fill="#2563eb"/>
  <circle cx="719.83" cy="298.51" r="2.5" fill="#2563eb"/>
  <circle cx="721.05" cy="298.51" r="2.5" fill="#2563eb"/>
  <circle cx="722.27" cy="298.51" r="2.5" fill="#2563eb"/>
  <circle cx="723.49" cy="298.51" r="2.5" fill="#2563eb"/>
  <circle cx="724.71" cy="298.51" r="2.5" fill="#2563eb"/>
  <circle cx="725.93" cy="298.51" r="2.5" fill="#2563eb"/>
  <circle cx="727.15" cy="298.51" r="2.5" fill="#2563eb"/>
  <circle cx="728.38" cy="298.51" r="2.5" fill="#2563eb"/>
  <circle cx="729.60" cy="298.51" r="2.5" fill="#2563eb"/>
  <circle cx="730.82" cy="298.47" r="2.5" fill="#2563eb"/>
  <circle cx="732.04" cy="298.51" r="2.5" fill="#2563eb"/>
  <circle cx="733.26" cy="298.51" r="2.5" fill="#2563eb"/>
  <circle cx="734.48" cy="298.47" r="2.5" fill="#2563eb"/>
  <circle cx="735.70" cy="298.51" r="2.5" fill="#2563eb"/>
  <circle cx="736.93" cy="298.47" r="2.5" fill="#2563eb"/>
  <circle cx="738.15" cy="298.51" r="2.5" fill="#2563eb"/>
  <circle cx="739.37" cy="298.43" r="2.5" fill="#2563eb"/>
  <circle cx="740.59" cy="298.56" r="2.5" fill="#2563eb"/>
  <circle cx="741.81" cy="298.43" r="2.5" fill="#2563eb"/>
  <circle cx="743.03" cy="298.43" r="2.5" fill="#2563eb"/>
  <circle cx="744.26" cy="298.43" r="2.5" fill="#2563eb"/>
  <circle cx="745.48" cy="298.43" r="2.5" fill="#2563eb"/>
  <circle cx="746.70" cy="298.43" r="2.5" fill="#2563eb"/>
  <circle cx="747.92" cy="298.43" r="2.5" fill="#2563eb"/>
  <circle cx="749.14" cy="298.43" r="2.5" fill="#2563eb"/>
  <circle cx="750.36" cy="298.43" r="2.5" fill="#2563eb"/>
  <circle cx="751.58" cy="298.43" r="2.5" fill="#2563eb"/>
  <circle cx="752.81" cy="298.43" r="2.5" fill="#2563eb"/>
  <circle cx="754.03" cy="298.43" r="2.5" fill="#2563eb"/>
  <circle cx="755.25" cy="298.43" r="2.5" fill="#2563eb"/>
  <circle cx="756.47" cy="298.43" r="2.5" fill="#2563eb"/>
  <circle cx="757.69" cy="298.43" r="2.5" fill="#2563eb"/>
  <circle cx="758.91" cy="298.43" r="2.5" fill="#2563eb"/>
  <circle cx="760.13" cy="298.43" r="2.5" fill="#2563eb"/>
  <circle cx="761.36" cy="298.43" r="2.5" fill="#2563eb"/>
  <circle cx="762.58" cy="298.43" r="2.5" fill="#2563eb"/>
  <circle cx="763.80" cy="298.43" r="2.5" fill="#2563eb"/>
  <circle cx="765.02" cy="298.43" r="2.5" fill="#2563eb"/>
  <circle cx="766.24" cy="298.43" r="2.5" fill="#2563eb"/>
  <circle cx="767.46" cy="298.43" r="2.5" fill="#2563eb"/>
  <circle cx="768.68" cy="298.43" r="2.5" fill="#2563eb"/>
  <circle cx="769.91" cy="298.43" r="2.5" fill="#2563eb"/>
  <circle cx="771.13" cy="298.43" r="2.5" fill="#2563eb"/>
  <circle cx="772.35" cy="298.43" r="2.5" fill="#2563eb"/>
  <circle cx="773.57" cy="298.43" r="2.5" fill="#2563eb"/>
  <circle cx="774.79" cy="298.43" r="2.5" fill="#2563eb"/>
  <circle cx="776.01" cy="298.43" r="2.5" fill="#2563eb"/>
  <circle cx="777.23" cy="298.43" r="2.5" fill="#2563eb"/>
  <circle cx="778.46" cy="298.43" r="2.5" fill="#2563eb"/>
  <circle cx="779.68" cy="298.43" r="2.5" fill="#2563eb"/>
  <circle cx="780.90" cy="298.43" r="2.5" fill="#2563eb"/>
  <circle cx="782.12" cy="298.43" r="2.5" fill="#2563eb"/>
  <circle cx="783.34" cy="298.39" r="2.5" fill="#2563eb"/>
  <circle cx="784.56" cy="298.39" r="2.5" fill="#2563eb"/>
  <circle cx="785.79" cy="298.43" r="2.5" fill="#2563eb"/>
  <circle cx="787.01" cy="298.43" r="2.5" fill="#2563eb"/>
  <circle cx="788.23" cy="298.39" r="2.5" fill="#2563eb"/>
  <circle cx="789.45" cy="298.39" r="2.5" fill="#2563eb"/>
  <circle cx="790.67" cy="298.39" r="2.5" fill="#2563eb"/>
  <circle cx="791.89" cy="298.43" r="2.5" fill="#2563eb"/>
  <circle cx="793.11" cy="298.43" r="2.5" fill="#2563eb"/>
  <circle cx="794.34" cy="298.43" r="2.5" fill="#2563eb"/>
  <circle cx="795.56" cy="246.82" r="2.5" fill="#2563eb"/>
  <circle cx="796.78" cy="298.43" r="2.5" fill="#2563eb"/>
  <circle cx="798.00" cy="246.78" r="2.5" fill="#2563eb"/>
  <circle cx="799.22" cy="246.78" r="2.5" fill="#2563eb"/>
  <circle cx="800.44" cy="246.78" r="2.5" fill="#2563eb"/>
  <circle cx="801.66" cy="246.70" r="2.5" fill="#2563eb"/>
  <circle cx="802.89" cy="246.78" r="2.5" fill="#2563eb"/>
  <circle cx="804.11" cy="298.39" r="2.5" fill="#2563eb"/>
  <circle cx="805.33" cy="298.39" r="2.5" fill="#2563eb"/>
  <circle cx="806.55" cy="298.39" r="2.5" fill="#2563eb"/>
  <circle cx="807.77" cy="298.39" r="2.5" fill="#2563eb"/>
  <circle cx="808.99" cy="298.39" r="2.5" fill="#2563eb"/>
  <circle cx="810.21" cy="246.78" r="2.5" fill="#2563eb"/>
  <circle cx="811.44" cy="298.39" r="2.5" fill="#2563eb"/>
  <circle cx="812.66" cy="298.39" r="2.5" fill="#2563eb"/>
  <circle cx="813.88" cy="298.39" r="2.5" fill="#2563eb"/>
  <circle cx="815.10" cy="298.39" r="2.5" fill="#2563eb"/>
  <circle cx="816.32" cy="298.39" r="2.5" fill="#2563eb"/>
  <circle cx="817.54" cy="246.78" r="2.5" fill="#2563eb"/>
  <circle cx="818.77" cy="246.78" r="2.5" fill="#2563eb"/>
  <circle cx="819.99" cy="298.39" r="2.5" fill="#2563eb"/>
  <circle cx="821.21" cy="298.39" r="2.5" fill="#2563eb"/>
  <circle cx="822.43" cy="298.39" r="2.5" fill="#2563eb"/>
  <circle cx="823.65" cy="298.39" r="2.5" fill="#2563eb"/>
  <circle cx="824.87" cy="298.39" r="2.5" fill="#2563eb"/>
  <circle cx="826.09" cy="298.39" r="2.5" fill="#2563eb"/>
  <circle cx="827.32" cy="298.39" r="2.5" fill="#2563eb"/>
  <circle cx="828.54" cy="298.39" r="2.5" fill="#2563eb"/>
  <circle cx="829.76" cy="298.39" r="2.5" fill="#2563eb"/>
  <circle cx="830.98" cy="298.39" r="2.5" fill="#2563eb"/>
  <circle cx="832.20" cy="298.39" r="2.5" fill="#2563eb"/>
  <circle cx="833.42" cy="298.39" r="2.5" fill="#2563eb"/>
  <circle cx="834.64" cy="298.39" r="2.5" fill="#2563eb"/>
  <circle cx="835.87" cy="298.39" r="2.5" fill="#2563eb"/>
  <circle cx="837.09" cy="298.35" r="2.5" fill="#2563eb"/>
  <circle cx="838.31" cy="298.39" r="2.5" fill="#2563eb"/>
  <circle cx="839.53" cy="298.39" r="2.5" fill="#2563eb"/>
  <circle cx="840.75" cy="298.35" r="2.5" fill="#2563eb"/>
  <circle cx="841.97" cy="298.35" r="2.5" fill="#2563eb"/>
  <circle cx="843.19" cy="298.35" r="2.5" fill="#2563eb"/>
  <circle cx="844.42" cy="298.35" r="2.5" fill="#2563eb"/>
  <circle cx="845.64" cy="298.35" r="2.5" fill="#2563eb"/>
  <circle cx="846.86" cy="298.35" r="2.5" fill="#2563eb"/>
  <circle cx="848.08" cy="298.35" r="2.5" fill="#2563eb"/>
  <circle cx="849.30" cy="298.35" r="2.5" fill="#2563eb"/>
  <circle cx="850.52" cy="298.35" r="2.5" fill="#2563eb"/>
  <circle cx="851.74" cy="298.35" r="2.5" fill="#2563eb"/>
  <circle cx="852.97" cy="298.35" r="2.5" fill="#2563eb"/>
  <circle cx="854.19" cy="298.35" r="2.5" fill="#2563eb"/>
  <circle cx="855.41" cy="298.35" r="2.5" fill="#2563eb"/>
  <circle cx="856.63" cy="298.35" r="2.5" fill="#2563eb"/>
  <circle cx="857.85" cy="298.35" r="2.5" fill="#2563eb"/>
  <circle cx="859.07" cy="298.35" r="2.5" fill="#2563eb"/>
  <circle cx="860.30" cy="298.35" r="2.5" fill="#2563eb"/>
  <circle cx="861.52" cy="298.35" r="2.5" fill="#2563eb"/>
  <circle cx="862.74" cy="298.35" r="2.5" fill="#2563eb"/>
  <circle cx="863.96" cy="298.35" r="2.5" fill="#2563eb"/>
  <circle cx="865.18" cy="298.35" r="2.5" fill="#2563eb"/>
  <circle cx="866.40" cy="298.35" r="2.5" fill="#2563eb"/>
  <circle cx="867.62" cy="298.35" r="2.5" fill="#2563eb"/>
  <circle cx="868.85" cy="298.35" r="2.5" fill="#2563eb"/>
  <circle cx="870.07" cy="298.35" r="2.5" fill="#2563eb"/>
  <circle cx="871.29" cy="298.35" r="2.5" fill="#2563eb"/>
  <circle cx="872.51" cy="298.35" r="2.5" fill="#2563eb"/>
  <circle cx="873.73" cy="298.35" r="2.5" fill="#2563eb"/>
  <circle cx="874.95" cy="298.35" r="2.5" fill="#2563eb"/>
  <circle cx="876.17" cy="298.35" r="2.5" fill="#2563eb"/>
  <circle cx="877.40" cy="298.35" r="2.5" fill="#2563eb"/>
  <circle cx="878.62" cy="298.35" r="2.5" fill="#2563eb"/>
  <circle cx="879.84" cy="298.35" r="2.5" fill="#2563eb"/>
  <circle cx="881.06" cy="298.35" r="2.5" fill="#2563eb"/>
  <circle cx="882.28" cy="298.35" r="2.5" fill="#2563eb"/>
  <circle cx="883.50" cy="298.35" r="2.5" fill="#2563eb"/>
  <circle cx="884.72" cy="298.35" r="2.5" fill="#2563eb"/>
  <circle cx="885.95" cy="298.35" r="2.5" fill="#2563eb"/>
  <circle cx="887.17" cy="298.35" r="2.5" fill="#2563eb"/>
  <circle cx="888.39" cy="298.35" r="2.5" fill="#2563eb"/>
  <circle cx="889.61" cy="298.35" r="2.5" fill="#2563eb"/>
  <circle cx="890.83" cy="298.35" r="2.5" fill="#2563eb"/>
  <circle cx="892.05" cy="298.35" r="2.5" fill="#2563eb"/>
  <circle cx="893.28" cy="298.35" r="2.5" fill="#2563eb"/>
  <circle cx="894.50" cy="298.35" r="2.5" fill="#2563eb"/>
  <circle cx="895.72" cy="298.35" r="2.5" fill="#2563eb"/>
  <circle cx="896.94" cy="298.35" r="2.5" fill="#2563eb"/>
  <circle cx="898.16" cy="298.35" r="2.5" fill="#2563eb"/>
  <circle cx="899.38" cy="298.35" r="2.5" fill="#2563eb"/>
  <circle cx="900.60" cy="298.35" r="2.5" fill="#2563eb"/>
  <circle cx="901.83" cy="298.35" r="2.5" fill="#2563eb"/>
  <circle cx="903.05" cy="298.35" r="2.5" fill="#2563eb"/>
  <circle cx="904.27" cy="298.39" r="2.5" fill="#2563eb"/>
  <circle cx="905.49" cy="298.39" r="2.5" fill="#2563eb"/>
  <circle cx="906.71" cy="298.39" r="2.5" fill="#2563eb"/>
  <circle cx="907.93" cy="246.78" r="2.5" fill="#2563eb"/>
  <circle cx="909.15" cy="298.39" r="2.5" fill="#2563eb"/>
  <circle cx="910.38" cy="298.39" r="2.5" fill="#2563eb"/>
  <circle cx="911.60" cy="298.39" r="2.5" fill="#2563eb"/>
  <circle cx="912.82" cy="298.39" r="2.5" fill="#2563eb"/>
  <circle cx="914.04" cy="298.39" r="2.5" fill="#2563eb"/>
  <circle cx="915.26" cy="298.39" r="2.5" fill="#2563eb"/>
  <circle cx="916.48" cy="298.39" r="2.5" fill="#2563eb"/>
  <circle cx="917.70" cy="246.78" r="2.5" fill="#2563eb"/>
  <circle cx="918.93" cy="298.39" r="2.5" fill="#2563eb"/>
  <circle cx="920.15" cy="298.39" r="2.5" fill="#2563eb"/>
  <circle cx="921.37" cy="298.39" r="2.5" fill="#2563eb"/>
  <circle cx="922.59" cy="298.39" r="2.5" fill="#2563eb"/>
  <circle cx="923.81" cy="298.39" r="2.5" fill="#2563eb"/>
  <circle cx="925.03" cy="298.39" r="2.5" fill="#2563eb"/>
  <circle cx="926.26" cy="298.39" r="2.5" fill="#2563eb"/>
  <circle cx="927.48" cy="246.78" r="2.5" fill="#2563eb"/>
  <circle cx="928.70" cy="298.39" r="2.5" fill="#2563eb"/>
  <circle cx="929.92" cy="298.39" r="2.5" fill="#2563eb"/>
  <circle cx="931.14" cy="298.39" r="2.5" fill="#2563eb"/>
  <circle cx="932.36" cy="298.39" r="2.5" fill="#2563eb"/>
  <circle cx="933.58" cy="298.39" r="2.5" fill="#2563eb"/>
  <circle cx="934.81" cy="298.39" r="2.5" fill="#2563eb"/>
  <circle cx="936.03" cy="298.39" r="2.5" fill="#2563eb"/>
  <circle cx="937.25" cy="298.39" r="2.5" fill="#2563eb"/>
  <circle cx="938.47" cy="298.39" r="2.5" fill="#2563eb"/>
  <circle cx="939.69" cy="298.39" r="2.5" fill="#2563eb"/>
  <circle cx="940.91" cy="298.39" r="2.5" fill="#2563eb"/>
  <circle cx="942.13" cy="298.35" r="2.5" fill="#2563eb"/>
  <circle cx="943.36" cy="298.39" r="2.5" fill="#2563eb"/>
  <circle cx="944.58" cy="298.39" r="2.5" fill="#2563eb"/>
  <circle cx="945.80" cy="298.39" r="2.5" fill="#2563eb"/>
  <circle cx="947.02" cy="298.35" r="2.5" fill="#2563eb"/>
  <circle cx="948.24" cy="298.35" r="2.5" fill="#2563eb"/>
  <circle cx="949.46" cy="298.35" r="2.5" fill="#2563eb"/>
  <circle cx="950.68" cy="298.35" r="2.5" fill="#2563eb"/>
  <circle cx="951.91" cy="298.35" r="2.5" fill="#2563eb"/>
  <circle cx="953.13" cy="298.35" r="2.5" fill="#2563eb"/>
  <circle cx="954.35" cy="298.35" r="2.5" fill="#2563eb"/>
  <circle cx="955.57" cy="298.35" r="2.5" fill="#2563eb"/>
  <circle cx="956.79" cy="298.35" r="2.5" fill="#2563eb"/>
  <circle cx="958.01" cy="298.35" r="2.5" fill="#2563eb"/>
  <circle cx="959.23" cy="298.35" r="2.5" fill="#2563eb"/>
  <circle cx="960.46" cy="298.35" r="2.5" fill="#2563eb"/>
  <circle cx="961.68" cy="298.35" r="2.5" fill="#2563eb"/>
  <circle cx="962.90" cy="298.35" r="2.5" fill="#2563eb"/>
  <circle cx="964.12" cy="298.35" r="2.5" fill="#2563eb"/>
  <circle cx="965.34" cy="298.35" r="2.5" fill="#2563eb"/>
  <circle cx="966.56" cy="298.39" r="2.5" fill="#2563eb"/>
  <circle cx="967.79" cy="298.39" r="2.5" fill="#2563eb"/>
  <circle cx="969.01" cy="298.39" r="2.5" fill="#2563eb"/>
  <circle cx="970.23" cy="298.39" r="2.5" fill="#2563eb"/>
  <circle cx="971.45" cy="298.39" r="2.5" fill="#2563eb"/>
  <circle cx="972.67" cy="298.39" r="2.5" fill="#2563eb"/>
  <circle cx="973.89" cy="298.35" r="2.5" fill="#2563eb"/>
  <circle cx="975.11" cy="298.39" r="2.5" fill="#2563eb"/>
  <circle cx="976.34" cy="298.39" r="2.5" fill="#2563eb"/>
  <circle cx="977.56" cy="298.39" r="2.5" fill="#2563eb"/>
  <circle cx="978.78" cy="298.39" r="2.5" fill="#2563eb"/>
  <circle cx="980.00" cy="298.39" r="2.5" fill="#2563eb"/>
</svg>
