<?xml version="1.0" encoding="UTF-8"?>
<svg xmlns="http://www.w3.org/2000/svg" width="1000" height="420" viewBox="0 0 1000 420">
  <rect width="100%" height="100%" fill="#ffffff"/>
  <text x="70" y="28" font-size="20" font-weight="600">수집 시점 기준 - 시간별 스냅샷</text>
  <text x="70" y="402" font-size="12" fill="#555">스냅샷 수</text>
  <line x1="70" y1="350.00" x2="980" y2="350.00" stroke="#e5e7eb" stroke-width="1"/>
  <text x="62" y="354.00" font-size="11" fill="#6b7280" text-anchor="end">0</text>
  <line x1="70" y1="290.00" x2="980" y2="290.00" stroke="#e5e7eb" stroke-width="1"/>
  <text x="62" y="294.00" font-size="11" fill="#6b7280" text-anchor="end">1,440</text>
  <line x1="70" y1="230.00" x2="980" y2="230.00" stroke="#e5e7eb" stroke-width="1"/>
  <text x="62" y="234.00" font-size="11" fill="#6b7280" text-anchor="end">2,880</text>
  <line x1="70" y1="170.00" x2="980" y2="170.00" stroke="#e5e7eb" stroke-width="1"/>
  <text x="62" y="174.00" font-size="11" fill="#6b7280" text-anchor="end">4,321</text>
  <line x1="70" y1="110.00" x2="980" y2="110.00" stroke="#e5e7eb" stroke-width="1"/>
  <text x="62" y="114.00" font-size="11" fill="#6b7280" text-anchor="end">5,761</text>
  <line x1="70" y1="50.00" x2="980" y2="50.00" stroke="#e5e7eb" stroke-width="1"/>
  <text x="62" y="54.00" font-size="11" fill="#6b7280" text-anchor="end">7,202</text>
  <line x1="70" y1="350" x2="980" y2="350" stroke="#111827" stroke-width="1.2"/>
  <line x1="70" y1="50" x2="70" y2="350" stroke="#111827" stroke-width="1.2"/>
  <line x1="70.00" y1="350" x2="70.00" y2="356" stroke="#9ca3af" stroke-width="1"/>
  <text x="70.00" y="372" font-size="10" fill="#6b7280" text-anchor="middle">2026-02-28 18</text>
  <line x1="144.57" y1="350" x2="144.57" y2="356" stroke="#9ca3af" stroke-width="1"/>
  <text x="144.57" y="372" font-size="10" fill="#6b7280" text-anchor="middle">2026-03-09 04</text>
  <line x1="219.13" y1="350" x2="219.13" y2="356" stroke="#9ca3af" stroke-width="1"/>
  <text x="219.13" y="372" font-size="10" fill="#6b7280" text-anchor="middle">2026-03-11 10</text>
  <line x1="293.70" y1="350" x2="293.70" y2="356" stroke="#9ca3af" stroke-width="1"/>
  <text x="293.70" y="372" font-size="10" fill="#6b7280" text-anchor="middle">2026-03-13 16</text>
  <line x1="368.26" y1="350" x2="368.26" y2="356" stroke="#9ca3af" stroke-width="1"/>
  <text x="368.26" y="372" font-size="10" fill="#6b7280" text-anchor="middle">2026-03-16 07</text>
  <line x1="442.83" y1="350" x2="442.83" y2="356" stroke="#9ca3af" stroke-width="1"/>
  <text x="442.83" y="372" font-size="10" fill="#6b7280" text-anchor="middle">2026-03-19 18</text>
  <line x1="517.39" y1="350" x2="517.39" y2="356" stroke="#9ca3af" stroke-width="1"/>
  <text x="517.39" y="372" font-size="10" fill="#6b7280" text-anchor="middle">2026-03-22 14</text>
  <line x1="591.96" y1="350" x2="591.96" y2="356" stroke="#9ca3af" stroke-width="1"/>
  <text x="591.96" y="372" font-size="10" fill="#6b7280" text-anchor="middle">2026-03-25 18</text>
  <line x1="666.52" y1="350" x2="666.52" y2="356" stroke="#9ca3af" stroke-width="1"/>
  <text x="666.52" y="372" font-size="10" fill="#6b7280" text-anchor="middle">2026-03-29 00</text>
  <line x1="741.09" y1="350" x2="741.09" y2="356" stroke="#9ca3af" stroke-width="1"/>
  <text x="741.09" y="372" font-size="10" fill="#6b7280" text-anchor="middle">2026-04-01 09</text>
  <line x1="815.65" y1="350" x2="815.65" y2="356" stroke="#9ca3af" stroke-width="1"/>
  <text x="815.65" y="372" font-size="10" fill="#6b7280" text-anchor="middle">2026-04-04 18</text>
  <line x1="890.22" y1="350" x2="890.22" y2="356" stroke="#9ca3af" stroke-width="1"/>
  <text x="890.22" y="372" font-size="10" fill="#6b7280" text-anchor="middle">2026-04-08 03</text>
  <line x1="964.78" y1="350" x2="964.78" y2="356" stroke="#9ca3af" stroke-width="1"/>
  <text x="964.78" y="372" font-size="10" fill="#6b7280" text-anchor="middle">2026-04-11 12</text>
  <line x1="980.00" y1="350" x2="980.00" y2="356" stroke="#9ca3af" stroke-width="1"/>
  <text x="980.00" y="372" font-size="10" fill="#6b7280" text-anchor="middle">2026-04-12 04</text>
  <polyline fill="none" stroke="#2563eb" stroke-width="2.5" points="70.00,50.00 71.52,50.12 73.04,50.17 74.57,50.46 76.09,50.00 77.61,266.90 79.13,50.12 80.65,50.08 82.17,177.46 83.70,211.58 85.22,175.34 86.74,304.14 88.26,200.46 89.78,250.94 91.30,300.01 92.83,300.06 94.35,300.01 95.87,300.01 97.39,348.00 98.91,300.01 100.43,249.99 101.96,200.00 103.48,249.99 105.00,249.99 106.52,250.03 108.04,250.03 109.57,250.03 111.09,250.40 112.61,250.90 114.13,250.90 115.65,251.32 117.17,249.94 118.70,300.01 120.22,299.93 121.74,251.03 123.26,300.68 124.78,250.03 126.30,200.00 127.83,249.99 129.35,250.03 130.87,250.03 132.39,250.03 133.91,300.01 135.43,200.04 136.96,250.03 138.48,250.03 140.00,250.03 141.52,249.90 143.04,250.03 144.57,250.03 146.09,250.94 147.61,250.44 149.13,250.03 150.65,250.03 152.17,300.47 153.70,300.01 155.22,300.43 156.74,250.03 158.26,249.99 159.78,300.43 161.30,249.90 162.83,249.99 164.35,249.99 165.87,200.04 167.39,300.01 168.91,300.01 170.43,300.01 171.96,249.90 173.48,300.01 175.00,250.03 176.52,249.99 178.04,199.96 179.57,300.01 181.09,200.00 182.61,250.36 184.13,250.03 185.65,300.01 187.17,300.01 188.70,250.44 190.22,300.01 191.74,250.03 193.26,250.03 194.78,249.99 196.30,250.49 197.83,250.03 199.35,200.04 200.87,300.01 202.39,250.03 203.91,300.01 205.43,250.11 206.96,300.01 208.48,250.03 210.00,250.03 211.52,199.92 213.04,250.03 214.57,250.03 216.09,250.03 217.61,254.36 219.13,300.01 220.65,299.97 222.17,250.36 223.70,299.97 225.22,250.03 226.74,250.03 228.26,250.03 229.78,250.03 231.30,249.99 232.83,200.00 234.35,299.93 235.87,300.01 237.39,299.97 238.91,249.94 240.43,249.99 241.96,249.82 243.48,249.94 245.00,250.28 246.52,207.00 248.04,250.03 249.57,250.32 251.09,250.40 252.61,300.93 254.13,300.01 255.65,300.10 257.17,249.94 258.70,249.99 260.22,250.07 261.74,249.99 263.26,250.03 264.78,249.94 266.30,200.00 267.83,300.39 269.35,300.01 270.87,300.01 272.39,250.44 273.91,300.39 275.43,249.86 276.96,250.11 278.48,201.46 280.00,300.01 281.52,200.83 283.04,250.03 284.57,249.99 286.09,300.26 287.61,300.01 289.13,300.01 290.65,250.03 292.17,250.03 293.70,250.03 295.22,250.03 296.74,249.99 298.26,250.03 299.78,200.00 301.30,300.26 302.83,249.99 304.35,300.01 305.87,249.94 307.39,250.03 308.91,250.03 310.43,250.03 311.96,200.04 313.48,300.01 315.00,249.90 316.52,300.01 318.04,300.01 319.57,300.06 321.09,300.01 322.61,300.01 324.13,243.95 325.65,249.94 327.17,299.97 328.70,300.01 330.22,300.01 331.74,250.03 333.26,300.01 334.78,300.01 336.30,299.97 337.83,249.99 339.35,300.01 340.87,299.93 342.39,300.01 343.91,299.93 345.43,300.01 346.96,300.01 348.48,299.89 350.00,299.97 351.52,250.03 353.04,299.93 354.57,299.89 356.09,299.97 357.61,249.94 359.13,300.01 360.65,300.01 362.17,299.97 363.70,249.99 365.22,299.97 366.74,299.97 368.26,300.06 369.78,300.06 371.30,299.93 372.83,300.01 374.35,300.01 375.87,299.93 377.39,300.01 378.91,300.01 380.43,299.97 381.96,300.01 383.48,300.01 385.00,300.01 386.52,300.01 388.04,249.86 389.57,300.01 391.09,300.10 392.61,299.93 394.13,300.01 395.65,299.93 397.17,300.01 398.70,300.01 400.22,300.01 401.74,300.01 403.26,300.01 404.78,299.97 406.30,300.01 407.83,300.01 409.35,300.01 410.87,300.01 412.39,250.03 413.91,300.01 415.43,300.01 416.96,299.97 418.48,300.01 420.00,300.01 421.52,299.97 423.04,299.97 424.57,300.01 426.09,299.97 427.61,300.01 429.13,299.93 430.65,300.01 432.17,250.03 433.70,300.01 435.22,300.01 436.74,300.01 438.26,300.01 439.78,300.01 441.30,299.89 442.83,300.01 444.35,300.01 445.87,250.07 447.39,300.01 448.91,299.93 450.43,300.01 451.96,299.97 453.48,299.97 455.00,299.97 456.52,250.03 458.04,300.01 459.57,300.01 461.09,300.01 462.61,300.01 464.13,299.97 465.65,300.01 467.17,299.97 468.70,300.01 470.22,299.97 471.74,249.90 473.26,300.01 474.78,300.01 476.30,299.89 477.83,299.97 479.35,299.97 480.87,249.99 482.39,299.97 483.91,299.89 485.43,300.01 486.96,299.97 488.48,299.97 490.00,300.01 491.52,299.97 493.04,249.99 494.57,299.97 496.09,299.97 497.61,300.06 499.13,300.06 500.65,249.94 502.17,300.01 503.70,299.93 505.22,300.01 506.74,300.01 508.26,249.99 509.78,300.01 511.30,300.01 512.83,300.01 514.35,299.93 515.87,299.93 517.39,300.01 518.91,300.01 520.43,249.94 521.96,299.97 523.48,299.97 525.00,300.01 526.52,300.01 528.04,300.01 529.57,249.99 531.09,300.01 532.61,300.01 534.13,300.01 535.65,250.03 537.17,300.01 538.70,300.01 540.22,300.01 541.74,299.97 543.26,300.01 544.78,300.01 546.30,299.97 547.83,299.97 549.35,300.01 550.87,300.01 552.39,299.97 553.91,299.93 555.43,300.01 556.96,300.06 558.48,299.97 560.00,300.01 561.52,250.03 563.04,250.03 564.57,299.93 566.09,299.97 567.61,300.01 569.13,300.01 570.65,300.06 572.17,300.01 573.70,299.93 575.22,300.01 576.74,300.01 578.26,299.97 579.78,299.97 581.30,300.01 582.83,250.03 584.35,300.01 585.87,300.01 587.39,300.01 588.91,299.97 590.43,300.01 591.96,299.97 593.48,300.01 595.00,299.97 596.52,299.97 598.04,299.93 599.57,300.01 601.09,300.01 602.61,299.89 604.13,299.97 605.65,299.97 607.17,300.06 608.70,249.90 610.22,299.89 611.74,300.01 613.26,299.97 614.78,299.97 616.30,299.97 617.83,300.01 619.35,300.01 620.87,299.97 622.39,299.97 623.91,299.97 625.43,250.03 626.96,299.93 628.48,300.01 630.00,300.01 631.52,299.93 633.04,300.01 634.57,300.01 636.09,299.97 637.61,300.01 639.13,300.01 640.65,300.06 642.17,300.01 643.70,299.97 645.22,299.89 646.74,300.01 648.26,300.01 649.78,249.94 651.30,249.94 652.83,300.01 654.35,300.01 655.87,300.01 657.39,300.01 658.91,299.97 660.43,250.03 661.96,300.01 663.48,300.01 665.00,300.01 666.52,300.01 668.04,250.03 669.57,249.99 671.09,300.01 672.61,299.97 674.13,300.01 675.65,299.97 677.17,300.01 678.70,299.97 680.22,299.97 681.74,299.97 683.26,300.06 684.78,249.99 686.30,300.01 687.83,250.03 689.35,249.94 690.87,249.99 692.39,300.01 693.91,300.06 695.43,300.01 696.96,299.97 698.48,299.97 700.00,300.01 701.52,299.93 703.04,299.89 704.57,299.89 706.09,299.89 707.61,299.89 709.13,299.85 710.65,299.85 712.17,299.89 713.70,299.81 715.22,299.81 716.74,299.81 718.26,299.76 719.78,299.76 721.30,299.76 722.83,299.72 724.35,299.68 725.87,299.60 727.39,299.60 728.91,299.60 730.43,299.56 731.96,299.47 733.48,299.43 735.00,299.43 736.52,299.39 738.04,299.47 739.57,259.82 741.09,338.96 742.61,299.31 744.13,299.31 745.65,299.26 747.17,299.68 748.70,299.68 750.22,299.68 751.74,299.64 753.26,299.14 754.78,299.14 756.30,299.10 757.83,299.10 759.35,299.10 760.87,248.07 762.39,299.06 763.91,299.06 765.43,299.06 766.96,299.06 768.48,299.06 770.00,298.97 771.52,298.97 773.04,298.93 774.57,298.97 776.09,298.93 777.61,298.89 779.13,298.89 780.65,298.89 782.17,298.89 783.70,247.78 785.22,298.89 786.74,298.89 788.26,298.85 789.78,298.85 791.30,298.81 792.83,298.81 794.35,298.81 795.87,298.81 797.39,298.81 798.91,298.81 800.43,298.81 801.96,298.81 803.48,298.81 805.00,298.72 806.52,247.45 808.04,247.45 809.57,298.72 811.09,298.72 812.61,298.72 814.13,298.72 815.65,298.72 817.17,298.72 818.70,247.36 820.22,298.68 821.74,247.36 823.26,247.36 824.78,247.36 826.30,298.68 827.83,298.68 829.35,298.68 830.87,298.68 832.39,298.68 833.91,341.67 835.43,307.01 836.96,298.68 838.48,298.68 840.00,298.68 841.52,247.36 843.04,298.64 844.57,247.36 846.09,247.28 847.61,247.20 849.13,298.60 850.65,298.60 852.17,247.03 853.70,298.51 855.22,298.51 856.74,298.51 858.26,298.51 859.78,298.51 861.30,298.51 862.83,298.51 864.35,298.51 865.87,298.51 867.39,298.51 868.91,298.51 870.43,298.51 871.96,298.51 873.48,298.51 875.00,298.51 876.52,298.51 878.04,298.51 879.57,298.51 881.09,298.51 882.61,298.51 884.13,298.51 885.65,298.51 887.17,298.51 888.70,298.51 890.22,298.51 891.74,298.51 893.26,298.47 894.78,298.51 896.30,298.51 897.83,298.47 899.35,298.51 900.87,298.47 902.39,298.51 903.91,298.43 905.43,298.56 906.96,298.43 908.48,298.43 910.00,298.43 911.52,298.43 913.04,298.43 914.57,298.43 916.09,298.43 917.61,298.43 919.13,298.43 920.65,298.43 922.17,298.43 923.70,298.43 925.22,298.43 926.74,298.43 928.26,298.43 929.78,298.43 931.30,298.43 932.83,298.43 934.35,298.43 935.87,298.43 937.39,298.43 938.91,298.43 940.43,298.43 941.96,298.43 943.48,298.43 945.00,298.43 946.52,298.43 948.04,298.43 949.57,298.43 951.09,298.43 952.61,298.43 954.13,298.43 955.65,298.43 957.17,298.43 958.70,298.39 960.22,298.39 961.74,298.43 963.26,298.43 964.78,298.39 966.30,298.39 967.83,298.39 969.35,298.43 970.87,298.43 972.39,298.43 973.91,246.82 975.43,298.43 976.96,246.78 978.48,246.78 980.00,298.39"/>
  <circle cx="70.00" cy="50.00" r="2.5" fill="#2563eb"/>
  <circle cx="71.52" cy="50.12" r="2.5" fill="#2563eb"/>
  <circle cx="73.04" cy="50.17" r="2.5" fill="#2563eb"/>
  <circle cx="74.57" cy="50.46" r="2.5" fill="#2563eb"/>
  <circle cx="76.09" cy="50.00" r="2.5" fill="#2563eb"/>
  <circle cx="77.61" cy="266.90" r="2.5" fill="#2563eb"/>
  <circle cx="79.13" cy="50.12" r="2.5" fill="#2563eb"/>
  <circle cx="80.65" cy="50.08" r="2.5" fill="#2563eb"/>
  <circle cx="82.17" cy="177.46" r="2.5" fill="#2563eb"/>
  <circle cx="83.70" cy="211.58" r="2.5" fill="#2563eb"/>
  <circle cx="85.22" cy="175.34" r="2.5" fill="#2563eb"/>
  <circle cx="86.74" cy="304.14" r="2.5" fill="#2563eb"/>
  <circle cx="88.26" cy="200.46" r="2.5" fill="#2563eb"/>
  <circle cx="89.78" cy="250.94" r="2.5" fill="#2563eb"/>
  <circle cx="91.30" cy="300.01" r="2.5" fill="#2563eb"/>
  <circle cx="92.83" cy="300.06" r="2.5" fill="#2563eb"/>
  <circle cx="94.35" cy="300.01" r="2.5" fill="#2563eb"/>
  <circle cx="95.87" cy="300.01" r="2.5" fill="#2563eb"/>
  <circle cx="97.39" cy="348.00" r="2.5" fill="#2563eb"/>
  <circle cx="98.91" cy="300.01" r="2.5" fill="#2563eb"/>
  <circle cx="100.43" cy="249.99" r="2.5" fill="#2563eb"/>
  <circle cx="101.96" cy="200.00" r="2.5" fill="#2563eb"/>
  <circle cx="103.48" cy="249.99" r="2.5" fill="#2563eb"/>
  <circle cx="105.00" cy="249.99" r="2.5" fill="#2563eb"/>
  <circle cx="106.52" cy="250.03" r="2.5" fill="#2563eb"/>
  <circle cx="108.04" cy="250.03" r="2.5" fill="#2563eb"/>
  <circle cx="109.57" cy="250.03" r="2.5" fill="#2563eb"/>
  <circle cx="111.09" cy="250.40" r="2.5" fill="#2563eb"/>
  <circle cx="112.61" cy="250.90" r="2.5" fill="#2563eb"/>
  <circle cx="114.13" cy="250.90" r="2.5" fill="#2563eb"/>
  <circle cx="115.65" cy="251.32" r="2.5" fill="#2563eb"/>
  <circle cx="117.17" cy="249.94" r="2.5" fill="#2563eb"/>
  <circle cx="118.70" cy="300.01" r="2.5" fill="#2563eb"/>
  <circle cx="120.22" cy="299.93" r="2.5" fill="#2563eb"/>
  <circle cx="121.74" cy="251.03" r="2.5" fill="#2563eb"/>
  <circle cx="123.26" cy="300.68" r="2.5" fill="#2563eb"/>
  <circle cx="124.78" cy="250.03" r="2.5" fill="#2563eb"/>
  <circle cx="126.30" cy="200.00" r="2.5" fill="#2563eb"/>
  <circle cx="127.83" cy="249.99" r="2.5" fill="#2563eb"/>
  <circle cx="129.35" cy="250.03" r="2.5" fill="#2563eb"/>
  <circle cx="130.87" cy="250.03" r="2.5" fill="#2563eb"/>
  <circle cx="132.39" cy="250.03" r="2.5" fill="#2563eb"/>
  <circle cx="133.91" cy="300.01" r="2.5" fill="#2563eb"/>
  <circle cx="135.43" cy="200.04" r="2.5" fill="#2563eb"/>
  <circle cx="136.96" cy="250.03" r="2.5" fill="#2563eb"/>
  <circle cx="138.48" cy="250.03" r="2.5" fill="#2563eb"/>
  <circle cx="140.00" cy="250.03" r="2.5" fill="#2563eb"/>
  <circle cx="141.52" cy="249.90" r="2.5" fill="#2563eb"/>
  <circle cx="143.04" cy="250.03" r="2.5" fill="#2563eb"/>
  <circle cx="144.57" cy="250.03" r="2.5" fill="#2563eb"/>
  <circle cx="146.09" cy="250.94" r="2.5" fill="#2563eb"/>
  <circle cx="147.61" cy="250.44" r="2.5" fill="#2563eb"/>
  <circle cx="149.13" cy="250.03" r="2.5" fill="#2563eb"/>
  <circle cx="150.65" cy="250.03" r="2.5" fill="#2563eb"/>
  <circle cx="152.17" cy="300.47" r="2.5" fill="#2563eb"/>
  <circle cx="153.70" cy="300.01" r="2.5" fill="#2563eb"/>
  <circle cx="155.22" cy="300.43" r="2.5" fill="#2563eb"/>
  <circle cx="156.74" cy="250.03" r="2.5" fill="#2563eb"/>
  <circle cx="158.26" cy="249.99" r="2.5" fill="#2563eb"/>
  <circle cx="159.78" cy="300.43" r="2.5" fill="#2563eb"/>
  <circle cx="161.30" cy="249.90" r="2.5" fill="#2563eb"/>
  <circle cx="162.83" cy="249.99" r="2.5" fill="#2563eb"/>
  <circle cx="164.35" cy="249.99" r="2.5" fill="#2563eb"/>
  <circle cx="165.87" cy="200.04" r="2.5" fill="#2563eb"/>
  <circle cx="167.39" cy="300.01" r="2.5" fill="#2563eb"/>
  <circle cx="168.91" cy="300.01" r="2.5" fill="#2563eb"/>
  <circle cx="170.43" cy="300.01" r="2.5" fill="#2563eb"/>
  <circle cx="171.96" cy="249.90" r="2.5" fill="#2563eb"/>
  <circle cx="173.48" cy="300.01" r="2.5" fill="#2563eb"/>
  <circle cx="175.00" cy="250.03" r="2.5" fill="#2563eb"/>
  <circle cx="176.52" cy="249.99" r="2.5" fill="#2563eb"/>
  <circle cx="178.04" cy="199.96" r="2.5" fill="#2563eb"/>
  <circle cx="179.57" cy="300.01" r="2.5" fill="#2563eb"/>
  <circle cx="181.09" cy="200.00" r="2.5" fill="#2563eb"/>
  <circle cx="182.61" cy="250.36" r="2.5" fill="#2563eb"/>
  <circle cx="184.13" cy="250.03" r="2.5" fill="#2563eb"/>
  <circle cx="185.65" cy="300.01" r="2.5" fill="#2563eb"/>
  <circle cx="187.17" cy="300.01" r="2.5" fill="#2563eb"/>
  <circle cx="188.70" cy="250.44" r="2.5" fill="#2563eb"/>
  <circle cx="190.22" cy="300.01" r="2.5" fill="#2563eb"/>
  <circle cx="191.74" cy="250.03" r="2.5" fill="#2563eb"/>
  <circle cx="193.26" cy="250.03" r="2.5" fill="#2563eb"/>
  <circle cx="194.78" cy="249.99" r="2.5" fill="#2563eb"/>
  <circle cx="196.30" cy="250.49" r="2.5" fill="#2563eb"/>
  <circle cx="197.83" cy="250.03" r="2.5" fill="#2563eb"/>
  <circle cx="199.35" cy="200.04" r="2.5" fill="#2563eb"/>
  <circle cx="200.87" cy="300.01" r="2.5" fill="#2563eb"/>
  <circle cx="202.39" cy="250.03" r="2.5" fill="#2563eb"/>
  <circle cx="203.91" cy="300.01" r="2.5" fill="#2563eb"/>
  <circle cx="205.43" cy="250.11" r="2.5" fill="#2563eb"/>
  <circle cx="206.96" cy="300.01" r="2.5" fill="#2563eb"/>
  <circle cx="208.48" cy="250.03" r="2.5" fill="#2563eb"/>
  <circle cx="210.00" cy="250.03" r="2.5" fill="#2563eb"/>
  <circle cx="211.52" cy="199.92" r="2.5" fill="#2563eb"/>
  <circle cx="213.04" cy="250.03" r="2.5" fill="#2563eb"/>
  <circle cx="214.57" cy="250.03" r="2.5" fill="#2563eb"/>
  <circle cx="216.09" cy="250.03" r="2.5" fill="#2563eb"/>
  <circle cx="217.61" cy="254.36" r="2.5" fill="#2563eb"/>
  <circle cx="219.13" cy="300.01" r="2.5" fill="#2563eb"/>
  <circle cx="220.65" cy="299.97" r="2.5" fill="#2563eb"/>
  <circle cx="222.17" cy="250.36" r="2.5" fill="#2563eb"/>
  <circle cx="223.70" cy="299.97" r="2.5" fill="#2563eb"/>
  <circle cx="225.22" cy="250.03" r="2.5" fill="#2563eb"/>
  <circle cx="226.74" cy="250.03" r="2.5" fill="#2563eb"/>
  <circle cx="228.26" cy="250.03" r="2.5" fill="#2563eb"/>
  <circle cx="229.78" cy="250.03" r="2.5" fill="#2563eb"/>
  <circle cx="231.30" cy="249.99" r="2.5" fill="#2563eb"/>
  <circle cx="232.83" cy="200.00" r="2.5" fill="#2563eb"/>
  <circle cx="234.35" cy="299.93" r="2.5" fill="#2563eb"/>
  <circle cx="235.87" cy="300.01" r="2.5" fill="#2563eb"/>
  <circle cx="237.39" cy="299.97" r="2.5" fill="#2563eb"/>
  <circle cx="238.91" cy="249.94" r="2.5" fill="#2563eb"/>
  <circle cx="240.43" cy="249.99" r="2.5" fill="#2563eb"/>
  <circle cx="241.96" cy="249.82" r="2.5" fill="#2563eb"/>
  <circle cx="243.48" cy="249.94" r="2.5" fill="#2563eb"/>
  <circle cx="245.00" cy="250.28" r="2.5" fill="#2563eb"/>
  <circle cx="246.52" cy="207.00" r="2.5" fill="#2563eb"/>
  <circle cx="248.04" cy="250.03" r="2.5" fill="#2563eb"/>
  <circle cx="249.57" cy="250.32" r="2.5" fill="#2563eb"/>
  <circle cx="251.09" cy="250.40" r="2.5" fill="#2563eb"/>
  <circle cx="252.61" cy="300.93" r="2.5" fill="#2563eb"/>
  <circle cx="254.13" cy="300.01" r="2.5" fill="#2563eb"/>
  <circle cx="255.65" cy="300.10" r="2.5" fill="#2563eb"/>
  <circle cx="257.17" cy="249.94" r="2.5" fill="#2563eb"/>
  <circle cx="258.70" cy="249.99" r="2.5" fill="#2563eb"/>
  <circle cx="260.22" cy="250.07" r="2.5" fill="#2563eb"/>
  <circle cx="261.74" cy="249.99" r="2.5" fill="#2563eb"/>
  <circle cx="263.26" cy="250.03" r="2.5" fill="#2563eb"/>
  <circle cx="264.78" cy="249.94" r="2.5" fill="#2563eb"/>
  <circle cx="266.30" cy="200.00" r="2.5" fill="#2563eb"/>
  <circle cx="267.83" cy="300.39" r="2.5" fill="#2563eb"/>
  <circle cx="269.35" cy="300.01" r="2.5" fill="#2563eb"/>
  <circle cx="270.87" cy="300.01" r="2.5" fill="#2563eb"/>
  <circle cx="272.39" cy="250.44" r="2.5" fill="#2563eb"/>
  <circle cx="273.91" cy="300.39" r="2.5" fill="#2563eb"/>
  <circle cx="275.43" cy="249.86" r="2.5" fill="#2563eb"/>
  <circle cx="276.96" cy="250.11" r="2.5" fill="#2563eb"/>
  <circle cx="278.48" cy="201.46" r="2.5" fill="#2563eb"/>
  <circle cx="280.00" cy="300.01" r="2.5" fill="#2563eb"/>
  <circle cx="281.52" cy="200.83" r="2.5" fill="#2563eb"/>
  <circle cx="283.04" cy="250.03" r="2.5" fill="#2563eb"/>
  <circle cx="284.57" cy="249.99" r="2.5" fill="#2563eb"/>
  <circle cx="286.09" cy="300.26" r="2.5" fill="#2563eb"/>
  <circle cx="287.61" cy="300.01" r="2.5" fill="#2563eb"/>
  <circle cx="289.13" cy="300.01" r="2.5" fill="#2563eb"/>
  <circle cx="290.65" cy="250.03" r="2.5" fill="#2563eb"/>
  <circle cx="292.17" cy="250.03" r="2.5" fill="#2563eb"/>
  <circle cx="293.70" cy="250.03" r="2.5" fill="#2563eb"/>
  <circle cx="295.22" cy="250.03" r="2.5" fill="#2563eb"/>
  <circle cx="296.74" cy="249.99" r="2.5" fill="#2563eb"/>
  <circle cx="298.26" cy="250.03" r="2.5" fill="#2563eb"/>
  <circle cx="299.78" cy="200.00" r="2.5" fill="#2563eb"/>
  <circle cx="301.30" cy="300.26" r="2.5" fill="#2563eb"/>
  <circle cx="302.83" cy="249.99" r="2.5" fill="#2563eb"/>
  <circle cx="304.35" cy="300.01" r="2.5" fill="#2563eb"/>
  <circle cx="305.87" cy="249.94" r="2.5" fill="#2563eb"/>
  <circle cx="307.39" cy="250.03" r="2.5" fill="#2563eb"/>
  <circle cx="308.91" cy="250.03" r="2.5" fill="#2563eb"/>
  <circle cx="310.43" cy="250.03" r="2.5" fill="#2563eb"/>
  <circle cx="311.96" cy="200.04" r="2.5" fill="#2563eb"/>
  <circle cx="313.48" cy="300.01" r="2.5" fill="#2563eb"/>
  <circle cx="315.00" cy="249.90" r="2.5" fill="#2563eb"/>
  <circle cx="316.52" cy="300.01" r="2.5" fill="#2563eb"/>
  <circle cx="318.04" cy="300.01" r="2.5" fill="#2563eb"/>
  <circle cx="319.57" cy="300.06" r="2.5" fill="#2563eb"/>
  <circle cx="321.09" cy="300.01" r="2.5" fill="#2563eb"/>
  <circle cx="322.61" cy="300.01" r="2.5" fill="#2563eb"/>
  <circle cx="324.13" cy="243.95" r="2.5" fill="#2563eb"/>
  <circle cx="325.65" cy="249.94" r="2.5" fill="#2563eb"/>
  <circle cx="327.17" cy="299.97" r="2.5" fill="#2563eb"/>
  <circle cx="328.70" cy="300.01" r="2.5" fill="#2563eb"/>
  <circle cx="330.22" cy="300.01" r="2.5" fill="#2563eb"/>
  <circle cx="331.74" cy="250.03" r="2.5" fill="#2563eb"/>
  <circle cx="333.26" cy="300.01" r="2.5" fill="#2563eb"/>
  <circle cx="334.78" cy="300.01" r="2.5" fill="#2563eb"/>
  <circle cx="336.30" cy="299.97" r="2.5" fill="#2563eb"/>
  <circle cx="337.83" cy="249.99" r="2.5" fill="#2563eb"/>
  <circle cx="339.35" cy="300.01" r="2.5" fill="#2563eb"/>
  <circle cx="340.87" cy="299.93" r="2.5" fill="#2563eb"/>
  <circle cx="342.39" cy="300.01" r="2.5" fill="#2563eb"/>
  <circle cx="343.91" cy="299.93" r="2.5" fill="#2563eb"/>
  <circle cx="345.43" cy="300.01" r="2.5" fill="#2563eb"/>
  <circle cx="346.96" cy="300.01" r="2.5" fill="#2563eb"/>
  <circle cx="348.48" cy="299.89" r="2.5" fill="#2563eb"/>
  <circle cx="350.00" cy="299.97" r="2.5" fill="#2563eb"/>
  <circle cx="351.52" cy="250.03" r="2.5" fill="#2563eb"/>
  <circle cx="353.04" cy="299.93" r="2.5" fill="#2563eb"/>
  <circle cx="354.57" cy="299.89" r="2.5" fill="#2563eb"/>
  <circle cx="356.09" cy="299.97" r="2.5" fill="#2563eb"/>
  <circle cx="357.61" cy="249.94" r="2.5" fill="#2563eb"/>
  <circle cx="359.13" cy="300.01" r="2.5" fill="#2563eb"/>
  <circle cx="360.65" cy="300.01" r="2.5" fill="#2563eb"/>
  <circle cx="362.17" cy="299.97" r="2.5" fill="#2563eb"/>
  <circle cx="363.70" cy="249.99" r="2.5" fill="#2563eb"/>
  <circle cx="365.22" cy="299.97" r="2.5" fill="#2563eb"/>
  <circle cx="366.74" cy="299.97" r="2.5" fill="#2563eb"/>
  <circle cx="368.26" cy="300.06" r="2.5" fill="#2563eb"/>
  <circle cx="369.78" cy="300.06" r="2.5" fill="#2563eb"/>
  <circle cx="371.30" cy="299.93" r="2.5" fill="#2563eb"/>
  <circle cx="372.83" cy="300.01" r="2.5" fill="#2563eb"/>
  <circle cx="374.35" cy="300.01" r="2.5" fill="#2563eb"/>
  <circle cx="375.87" cy="299.93" r="2.5" fill="#2563eb"/>
  <circle cx="377.39" cy="300.01" r="2.5" fill="#2563eb"/>
  <circle cx="378.91" cy="300.01" r="2.5" fill="#2563eb"/>
  <circle cx="380.43" cy="299.97" r="2.5" fill="#2563eb"/>
  <circle cx="381.96" cy="300.01" r="2.5" fill="#2563eb"/>
  <circle cx="383.48" cy="300.01" r="2.5" fill="#2563eb"/>
  <circle cx="385.00" cy="300.01" r="2.5" fill="#2563eb"/>
  <circle cx="386.52" cy="300.01" r="2.5" fill="#2563eb"/>
  <circle cx="388.04" cy="249.86" r="2.5" fill="#2563eb"/>
  <circle cx="389.57" cy="300.01" r="2.5" fill="#2563eb"/>
  <circle cx="391.09" cy="300.10" r="2.5" fill="#2563eb"/>
  <circle cx="392.61" cy="299.93" r="2.5" fill="#2563eb"/>
  <circle cx="394.13" cy="300.01" r="2.5" fill="#2563eb"/>
  <circle cx="395.65" cy="299.93" r="2.5" fill="#2563eb"/>
  <circle cx="397.17" cy="300.01" r="2.5" fill="#2563eb"/>
  <circle cx="398.70" cy="300.01" r="2.5" fill="#2563eb"/>
  <circle cx="400.22" cy="300.01" r="2.5" fill="#2563eb"/>
  <circle cx="401.74" cy="300.01" r="2.5" fill="#2563eb"/>
  <circle cx="403.26" cy="300.01" r="2.5" fill="#2563eb"/>
  <circle cx="404.78" cy="299.97" r="2.5" fill="#2563eb"/>
  <circle cx="406.30" cy="300.01" r="2.5" fill="#2563eb"/>
  <circle cx="407.83" cy="300.01" r="2.5" fill="#2563eb"/>
  <circle cx="409.35" cy="300.01" r="2.5" fill="#2563eb"/>
  <circle cx="410.87" cy="300.01" r="2.5" fill="#2563eb"/>
  <circle cx="412.39" cy="250.03" r="2.5" fill="#2563eb"/>
  <circle cx="413.91" cy="300.01" r="2.5" fill="#2563eb"/>
  <circle cx="415.43" cy="300.01" r="2.5" fill="#2563eb"/>
  <circle cx="416.96" cy="299.97" r="2.5" fill="#2563eb"/>
  <circle cx="418.48" cy="300.01" r="2.5" fill="#2563eb"/>
  <circle cx="420.00" cy="300.01" r="2.5" fill="#2563eb"/>
  <circle cx="421.52" cy="299.97" r="2.5" fill="#2563eb"/>
  <circle cx="423.04" cy="299.97" r="2.5" fill="#2563eb"/>
  <circle cx="424.57" cy="300.01" r="2.5" fill="#2563eb"/>
  <circle cx="426.09" cy="299.97" r="2.5" fill="#2563eb"/>
  <circle cx="427.61" cy="300.01" r="2.5" fill="#2563eb"/>
  <circle cx="429.13" cy="299.93" r="2.5" fill="#2563eb"/>
  <circle cx="430.65" cy="300.01" r="2.5" fill="#2563eb"/>
  <circle cx="432.17" cy="250.03" r="2.5" fill="#2563eb"/>
  <circle cx="433.70" cy="300.01" r="2.5" fill="#2563eb"/>
  <circle cx="435.22" cy="300.01" r="2.5" fill="#2563eb"/>
  <circle cx="436.74" cy="300.01" r="2.5" fill="#2563eb"/>
  <circle cx="438.26" cy="300.01" r="2.5" fill="#2563eb"/>
  <circle cx="439.78" cy="300.01" r="2.5" fill="#2563eb"/>
  <circle cx="441.30" cy="299.89" r="2.5" fill="#2563eb"/>
  <circle cx="442.83" cy="300.01" r="2.5" fill="#2563eb"/>
  <circle cx="444.35" cy="300.01" r="2.5" fill="#2563eb"/>
  <circle cx="445.87" cy="250.07" r="2.5" fill="#2563eb"/>
  <circle cx="447.39" cy="300.01" r="2.5" fill="#2563eb"/>
  <circle cx="448.91" cy="299.93" r="2.5" fill="#2563eb"/>
  <circle cx="450.43" cy="300.01" r="2.5" fill="#2563eb"/>
  <circle cx="451.96" cy="299.97" r="2.5" fill="#2563eb"/>
  <circle cx="453.48" cy="299.97" r="2.5" fill="#2563eb"/>
  <circle cx="455.00" cy="299.97" r="2.5" fill="#2563eb"/>
  <circle cx="456.52" cy="250.03" r="2.5" fill="#2563eb"/>
  <circle cx="458.04" cy="300.01" r="2.5" fill="#2563eb"/>
  <circle cx="459.57" cy="300.01" r="2.5" fill="#2563eb"/>
  <circle cx="461.09" cy="300.01" r="2.5" fill="#2563eb"/>
  <circle cx="462.61" cy="300.01" r="2.5" fill="#2563eb"/>
  <circle cx="464.13" cy="299.97" r="2.5" fill="#2563eb"/>
  <circle cx="465.65" cy="300.01" r="2.5" fill="#2563eb"/>
  <circle cx="467.17" cy="299.97" r="2.5" fill="#2563eb"/>
  <circle cx="468.70" cy="300.01" r="2.5" fill="#2563eb"/>
  <circle cx="470.22" cy="299.97" r="2.5" fill="#2563eb"/>
  <circle cx="471.74" cy="249.90" r="2.5" fill="#2563eb"/>
  <circle cx="473.26" cy="300.01" r="2.5" fill="#2563eb"/>
  <circle cx="474.78" cy="300.01" r="2.5" fill="#2563eb"/>
  <circle cx="476.30" cy="299.89" r="2.5" fill="#2563eb"/>
  <circle cx="477.83" cy="299.97" r="2.5" fill="#2563eb"/>
  <circle cx="479.35" cy="299.97" r="2.5" fill="#2563eb"/>
  <circle cx="480.87" cy="249.99" r="2.5" fill="#2563eb"/>
  <circle cx="482.39" cy="299.97" r="2.5" fill="#2563eb"/>
  <circle cx="483.91" cy="299.89" r="2.5" fill="#2563eb"/>
  <circle cx="485.43" cy="300.01" r="2.5" fill="#2563eb"/>
  <circle cx="486.96" cy="299.97" r="2.5" fill="#2563eb"/>
  <circle cx="488.48" cy="299.97" r="2.5" fill="#2563eb"/>
  <circle cx="490.00" cy="300.01" r="2.5" fill="#2563eb"/>
  <circle cx="491.52" cy="299.97" r="2.5" fill="#2563eb"/>
  <circle cx="493.04" cy="249.99" r="2.5" fill="#2563eb"/>
  <circle cx="494.57" cy="299.97" r="2.5" fill="#2563eb"/>
  <circle cx="496.09" cy="299.97" r="2.5" fill="#2563eb"/>
  <circle cx="497.61" cy="300.06" r="2.5" fill="#2563eb"/>
  <circle cx="499.13" cy="300.06" r="2.5" fill="#2563eb"/>
  <circle cx="500.65" cy="249.94" r="2.5" fill="#2563eb"/>
  <circle cx="502.17" cy="300.01" r="2.5" fill="#2563eb"/>
  <circle cx="503.70" cy="299.93" r="2.5" fill="#2563eb"/>
  <circle cx="505.22" cy="300.01" r="2.5" fill="#2563eb"/>
  <circle cx="506.74" cy="300.01" r="2.5" fill="#2563eb"/>
  <circle cx="508.26" cy="249.99" r="2.5" fill="#2563eb"/>
  <circle cx="509.78" cy="300.01" r="2.5" fill="#2563eb"/>
  <circle cx="511.30" cy="300.01" r="2.5" fill="#2563eb"/>
  <circle cx="512.83" cy="300.01" r="2.5" fill="#2563eb"/>
  <circle cx="514.35" cy="299.93" r="2.5" fill="#2563eb"/>
  <circle cx="515.87" cy="299.93" r="2.5" fill="#2563eb"/>
  <circle cx="517.39" cy="300.01" r="2.5" fill="#2563eb"/>
  <circle cx="518.91" cy="300.01" r="2.5" fill="#2563eb"/>
  <circle cx="520.43" cy="249.94" r="2.5" fill="#2563eb"/>
  <circle cx="521.96" cy="299.97" r="2.5" fill="#2563eb"/>
  <circle cx="523.48" cy="299.97" r="2.5" fill="#2563eb"/>
  <circle cx="525.00" cy="300.01" r="2.5" fill="#2563eb"/>
  <circle cx="526.52" cy="300.01" r="2.5" fill="#2563eb"/>
  <circle cx="528.04" cy="300.01" r="2.5" fill="#2563eb"/>
  <circle cx="529.57" cy="249.99" r="2.5" fill="#2563eb"/>
  <circle cx="531.09" cy="300.01" r="2.5" fill="#2563eb"/>
  <circle cx="532.61" cy="300.01" r="2.5" fill="#2563eb"/>
  <circle cx="534.13" cy="300.01" r="2.5" fill="#2563eb"/>
  <circle cx="535.65" cy="250.03" r="2.5" fill="#2563eb"/>
  <circle cx="537.17" cy="300.01" r="2.5" fill="#2563eb"/>
  <circle cx="538.70" cy="300.01" r="2.5" fill="#2563eb"/>
  <circle cx="540.22" cy="300.01" r="2.5" fill="#2563eb"/>
  <circle cx="541.74" cy="299.97" r="2.5" fill="#2563eb"/>
  <circle cx="543.26" cy="300.01" r="2.5" fill="#2563eb"/>
  <circle cx="544.78" cy="300.01" r="2.5" fill="#2563eb"/>
  <circle cx="546.30" cy="299.97" r="2.5" fill="#2563eb"/>
  <circle cx="547.83" cy="299.97" r="2.5" fill="#2563eb"/>
  <circle cx="549.35" cy="300.01" r="2.5" fill="#2563eb"/>
  <circle cx="550.87" cy="300.01" r="2.5" fill="#2563eb"/>
  <circle cx="552.39" cy="299.97" r="2.5" fill="#2563eb"/>
  <circle cx="553.91" cy="299.93" r="2.5" fill="#2563eb"/>
  <circle cx="555.43" cy="300.01" r="2.5" fill="#2563eb"/>
  <circle cx="556.96" cy="300.06" r="2.5" fill="#2563eb"/>
  <circle cx="558.48" cy="299.97" r="2.5" fill="#2563eb"/>
  <circle cx="560.00" cy="300.01" r="2.5" fill="#2563eb"/>
  <circle cx="561.52" cy="250.03" r="2.5" fill="#2563eb"/>
  <circle cx="563.04" cy="250.03" r="2.5" fill="#2563eb"/>
  <circle cx="564.57" cy="299.93" r="2.5" fill="#2563eb"/>
  <circle cx="566.09" cy="299.97" r="2.5" fill="#2563eb"/>
  <circle cx="567.61" cy="300.01" r="2.5" fill="#2563eb"/>
  <circle cx="569.13" cy="300.01" r="2.5" fill="#2563eb"/>
  <circle cx="570.65" cy="300.06" r="2.5" fill="#2563eb"/>
  <circle cx="572.17" cy="300.01" r="2.5" fill="#2563eb"/>
  <circle cx="573.70" cy="299.93" r="2.5" fill="#2563eb"/>
  <circle cx="575.22" cy="300.01" r="2.5" fill="#2563eb"/>
  <circle cx="576.74" cy="300.01" r="2.5" fill="#2563eb"/>
  <circle cx="578.26" cy="299.97" r="2.5" fill="#2563eb"/>
  <circle cx="579.78" cy="299.97" r="2.5" fill="#2563eb"/>
  <circle cx="581.30" cy="300.01" r="2.5" fill="#2563eb"/>
  <circle cx="582.83" cy="250.03" r="2.5" fill="#2563eb"/>
  <circle cx="584.35" cy="300.01" r="2.5" fill="#2563eb"/>
  <circle cx="585.87" cy="300.01" r="2.5" fill="#2563eb"/>
  <circle cx="587.39" cy="300.01" r="2.5" fill="#2563eb"/>
  <circle cx="588.91" cy="299.97" r="2.5" fill="#2563eb"/>
  <circle cx="590.43" cy="300.01" r="2.5" fill="#2563eb"/>
  <circle cx="591.96" cy="299.97" r="2.5" fill="#2563eb"/>
  <circle cx="593.48" cy="300.01" r="2.5" fill="#2563eb"/>
  <circle cx="595.00" cy="299.97" r="2.5" fill="#2563eb"/>
  <circle cx="596.52" cy="299.97" r="2.5" fill="#2563eb"/>
  <circle cx="598.04" cy="299.93" r="2.5" fill="#2563eb"/>
  <circle cx="599.57" cy="300.01" r="2.5" fill="#2563eb"/>
  <circle cx="601.09" cy="300.01" r="2.5" fill="#2563eb"/>
  <circle cx="602.61" cy="299.89" r="2.5" fill="#2563eb"/>
  <circle cx="604.13" cy="299.97" r="2.5" fill="#2563eb"/>
  <circle cx="605.65" cy="299.97" r="2.5" fill="#2563eb"/>
  <circle cx="607.17" cy="300.06" r="2.5" fill="#2563eb"/>
  <circle cx="608.70" cy="249.90" r="2.5" fill="#2563eb"/>
  <circle cx="610.22" cy="299.89" r="2.5" fill="#2563eb"/>
  <circle cx="611.74" cy="300.01" r="2.5" fill="#2563eb"/>
  <circle cx="613.26" cy="299.97" r="2.5" fill="#2563eb"/>
  <circle cx="614.78" cy="299.97" r="2.5" fill="#2563eb"/>
  <circle cx="616.30" cy="299.97" r="2.5" fill="#2563eb"/>
  <circle cx="617.83" cy="300.01" r="2.5" fill="#2563eb"/>
  <circle cx="619.35" cy="300.01" r="2.5" fill="#2563eb"/>
  <circle cx="620.87" cy="299.97" r="2.5" fill="#2563eb"/>
  <circle cx="622.39" cy="299.97" r="2.5" fill="#2563eb"/>
  <circle cx="623.91" cy="299.97" r="2.5" fill="#2563eb"/>
  <circle cx="625.43" cy="250.03" r="2.5" fill="#2563eb"/>
  <circle cx="626.96" cy="299.93" r="2.5" fill="#2563eb"/>
  <circle cx="628.48" cy="300.01" r="2.5" fill="#2563eb"/>
  <circle cx="630.00" cy="300.01" r="2.5" fill="#2563eb"/>
  <circle cx="631.52" cy="299.93" r="2.5" fill="#2563eb"/>
  <circle cx="633.04" cy="300.01" r="2.5" fill="#2563eb"/>
  <circle cx="634.57" cy="300.01" r="2.5" fill="#2563eb"/>
  <circle cx="636.09" cy="299.97" r="2.5" fill="#2563eb"/>
  <circle cx="637.61" cy="300.01" r="2.5" fill="#2563eb"/>
  <circle cx="639.13" cy="300.01" r="2.5" fill="#2563eb"/>
  <circle cx="640.65" cy="300.06" r="2.5" fill="#2563eb"/>
  <circle cx="642.17" cy="300.01" r="2.5" fill="#2563eb"/>
  <circle cx="643.70" cy="299.97" r="2.5" fill="#2563eb"/>
  <circle cx="645.22" cy="299.89" r="2.5" fill="#2563eb"/>
  <circle cx="646.74" cy="300.01" r="2.5" fill="#2563eb"/>
  <circle cx="648.26" cy="300.01" r="2.5" fill="#2563eb"/>
  <circle cx="649.78" cy="249.94" r="2.5" fill="#2563eb"/>
  <circle cx="651.30" cy="249.94" r="2.5" fill="#2563eb"/>
  <circle cx="652.83" cy="300.01" r="2.5" fill="#2563eb"/>
  <circle cx="654.35" cy="300.01" r="2.5" fill="#2563eb"/>
  <circle cx="655.87" cy="300.01" r="2.5" fill="#2563eb"/>
  <circle cx="657.39" cy="300.01" r="2.5" fill="#2563eb"/>
  <circle cx="658.91" cy="299.97" r="2.5" fill="#2563eb"/>
  <circle cx="660.43" cy="250.03" r="2.5" fill="#2563eb"/>
  <circle cx="661.96" cy="300.01" r="2.5" fill="#2563eb"/>
  <circle cx="663.48" cy="300.01" r="2.5" fill="#2563eb"/>
  <circle cx="665.00" cy="300.01" r="2.5" fill="#2563eb"/>
  <circle cx="666.52" cy="300.01" r="2.5" fill="#2563eb"/>
  <circle cx="668.04" cy="250.03" r="2.5" fill="#2563eb"/>
  <circle cx="669.57" cy="249.99" r="2.5" fill="#2563eb"/>
  <circle cx="671.09" cy="300.01" r="2.5" fill="#2563eb"/>
  <circle cx="672.61" cy="299.97" r="2.5" fill="#2563eb"/>
  <circle cx="674.13" cy="300.01" r="2.5" fill="#2563eb"/>
  <circle cx="675.65" cy="299.97" r="2.5" fill="#2563eb"/>
  <circle cx="677.17" cy="300.01" r="2.5" fill="#2563eb"/>
  <circle cx="678.70" cy="299.97" r="2.5" fill="#2563eb"/>
  <circle cx="680.22" cy="299.97" r="2.5" fill="#2563eb"/>
  <circle cx="681.74" cy="299.97" r="2.5" fill="#2563eb"/>
  <circle cx="683.26" cy="300.06" r="2.5" fill="#2563eb"/>
  <circle cx="684.78" cy="249.99" r="2.5" fill="#2563eb"/>
  <circle cx="686.30" cy="300.01" r="2.5" fill="#2563eb"/>
  <circle cx="687.83" cy="250.03" r="2.5" fill="#2563eb"/>
  <circle cx="689.35" cy="249.94" r="2.5" fill="#2563eb"/>
  <circle cx="690.87" cy="249.99" r="2.5" fill="#2563eb"/>
  <circle cx="692.39" cy="300.01" r="2.5" fill="#2563eb"/>
  <circle cx="693.91" cy="300.06" r="2.5" fill="#2563eb"/>
  <circle cx="695.43" cy="300.01" r="2.5" fill="#2563eb"/>
  <circle cx="696.96" cy="299.97" r="2.5" fill="#2563eb"/>
  <circle cx="698.48" cy="299.97" r="2.5" fill="#2563eb"/>
  <circle cx="700.00" cy="300.01" r="2.5" fill="#2563eb"/>
  <circle cx="701.52" cy="299.93" r="2.5" fill="#2563eb"/>
  <circle cx="703.04" cy="299.89" r="2.5" fill="#2563eb"/>
  <circle cx="704.57" cy="299.89" r="2.5" fill="#2563eb"/>
  <circle cx="706.09" cy="299.89" r="2.5" fill="#2563eb"/>
  <circle cx="707.61" cy="299.89" r="2.5" fill="#2563eb"/>
  <circle cx="709.13" cy="299.85" r="2.5" fill="#2563eb"/>
  <circle cx="710.65" cy="299.85" r="2.5" fill="#2563eb"/>
  <circle cx="712.17" cy="299.89" r="2.5" fill="#2563eb"/>
  <circle cx="713.70" cy="299.81" r="2.5" fill="#2563eb"/>
  <circle cx="715.22" cy="299.81" r="2.5" fill="#2563eb"/>
  <circle cx="716.74" cy="299.81" r="2.5" fill="#2563eb"/>
  <circle cx="718.26" cy="299.76" r="2.5" fill="#2563eb"/>
  <circle cx="719.78" cy="299.76" r="2.5" fill="#2563eb"/>
  <circle cx="721.30" cy="299.76" r="2.5" fill="#2563eb"/>
  <circle cx="722.83" cy="299.72" r="2.5" fill="#2563eb"/>
  <circle cx="724.35" cy="299.68" r="2.5" fill="#2563eb"/>
  <circle cx="725.87" cy="299.60" r="2.5" fill="#2563eb"/>
  <circle cx="727.39" cy="299.60" r="2.5" fill="#2563eb"/>
  <circle cx="728.91" cy="299.60" r="2.5" fill="#2563eb"/>
  <circle cx="730.43" cy="299.56" r="2.5" fill="#2563eb"/>
  <circle cx="731.96" cy="299.47" r="2.5" fill="#2563eb"/>
  <circle cx="733.48" cy="299.43" r="2.5" fill="#2563eb"/>
  <circle cx="735.00" cy="299.43" r="2.5" fill="#2563eb"/>
  <circle cx="736.52" cy="299.39" r="2.5" fill="#2563eb"/>
  <circle cx="738.04" cy="299.47" r="2.5" fill="#2563eb"/>
  <circle cx="739.57" cy="259.82" r="2.5" fill="#2563eb"/>
  <circle cx="741.09" cy="338.96" r="2.5" fill="#2563eb"/>
  <circle cx="742.61" cy="299.31" r="2.5" fill="#2563eb"/>
  <circle cx="744.13" cy="299.31" r="2.5" fill="#2563eb"/>
  <circle cx="745.65" cy="299.26" r="2.5" fill="#2563eb"/>
  <circle cx="747.17" cy="299.68" r="2.5" fill="#2563eb"/>
  <circle cx="748.70" cy="299.68" r="2.5" fill="#2563eb"/>
  <circle cx="750.22" cy="299.68" r="2.5" fill="#2563eb"/>
  <circle cx="751.74" cy="299.64" r="2.5" fill="#2563eb"/>
  <circle cx="753.26" cy="299.14" r="2.5" fill="#2563eb"/>
  <circle cx="754.78" cy="299.14" r="2.5" fill="#2563eb"/>
  <circle cx="756.30" cy="299.10" r="2.5" fill="#2563eb"/>
  <circle cx="757.83" cy="299.10" r="2.5" fill="#2563eb"/>
  <circle cx="759.35" cy="299.10" r="2.5" fill="#2563eb"/>
  <circle cx="760.87" cy="248.07" r="2.5" fill="#2563eb"/>
  <circle cx="762.39" cy="299.06" r="2.5" fill="#2563eb"/>
  <circle cx="763.91" cy="299.06" r="2.5" fill="#2563eb"/>
  <circle cx="765.43" cy="299.06" r="2.5" fill="#2563eb"/>
  <circle cx="766.96" cy="299.06" r="2.5" fill="#2563eb"/>
  <circle cx="768.48" cy="299.06" r="2.5" fill="#2563eb"/>
  <circle cx="770.00" cy="298.97" r="2.5" fill="#2563eb"/>
  <circle cx="771.52" cy="298.97" r="2.5" fill="#2563eb"/>
  <circle cx="773.04" cy="298.93" r="2.5" fill="#2563eb"/>
  <circle cx="774.57" cy="298.97" r="2.5" fill="#2563eb"/>
  <circle cx="776.09" cy="298.93" r="2.5" fill="#2563eb"/>
  <circle cx="777.61" cy="298.89" r="2.5" fill="#2563eb"/>
  <circle cx="779.13" cy="298.89" r="2.5" fill="#2563eb"/>
  <circle cx="780.65" cy="298.89" r="2.5" fill="#2563eb"/>
  <circle cx="782.17" cy="298.89" r="2.5" fill="#2563eb"/>
  <circle cx="783.70" cy="247.78" r="2.5" fill="#2563eb"/>
  <circle cx="785.22" cy="298.89" r="2.5" fill="#2563eb"/>
  <circle cx="786.74" cy="298.89" r="2.5" fill="#2563eb"/>
  <circle cx="788.26" cy="298.85" r="2.5" fill="#2563eb"/>
  <circle cx="789.78" cy="298.85" r="2.5" fill="#2563eb"/>
  <circle cx="791.30" cy="298.81" r="2.5" fill="#2563eb"/>
  <circle cx="792.83" cy="298.81" r="2.5" fill="#2563eb"/>
  <circle cx="794.35" cy="298.81" r="2.5" fill="#2563eb"/>
  <circle cx="795.87" cy="298.81" r="2.5" fill="#2563eb"/>
  <circle cx="797.39" cy="298.81" r="2.5" fill="#2563eb"/>
  <circle cx="798.91" cy="298.81" r="2.5" fill="#2563eb"/>
  <circle cx="800.43" cy="298.81" r="2.5" fill="#2563eb"/>
  <circle cx="801.96" cy="298.81" r="2.5" fill="#2563eb"/>
  <circle cx="803.48" cy="298.81" r="2.5" fill="#2563eb"/>
  <circle cx="805.00" cy="298.72" r="2.5" fill="#2563eb"/>
  <circle cx="806.52" cy="247.45" r="2.5" fill="#2563eb"/>
  <circle cx="808.04" cy="247.45" r="2.5" fill="#2563eb"/>
  <circle cx="809.57" cy="298.72" r="2.5" fill="#2563eb"/>
  <circle cx="811.09" cy="298.72" r="2.5" fill="#2563eb"/>
  <circle cx="812.61" cy="298.72" r="2.5" fill="#2563eb"/>
  <circle cx="814.13" cy="298.72" r="2.5" fill="#2563eb"/>
  <circle cx="815.65" cy="298.72" r="2.5" fill="#2563eb"/>
  <circle cx="817.17" cy="298.72" r="2.5" fill="#2563eb"/>
  <circle cx="818.70" cy="247.36" r="2.5" fill="#2563eb"/>
  <circle cx="820.22" cy="298.68" r="2.5" fill="#2563eb"/>
  <circle cx="821.74" cy="247.36" r="2.5" fill="#2563eb"/>
  <circle cx="823.26" cy="247.36" r="2.5" fill="#2563eb"/>
  <circle cx="824.78" cy="247.36" r="2.5" fill="#2563eb"/>
  <circle cx="826.30" cy="298.68" r="2.5" fill="#2563eb"/>
  <circle cx="827.83" cy="298.68" r="2.5" fill="#2563eb"/>
  <circle cx="829.35" cy="298.68" r="2.5" fill="#2563eb"/>
  <circle cx="830.87" cy="298.68" r="2.5" fill="#2563eb"/>
  <circle cx="832.39" cy="298.68" r="2.5" fill="#2563eb"/>
  <circle cx="833.91" cy="341.67" r="2.5" fill="#2563eb"/>
  <circle cx="835.43" cy="307.01" r="2.5" fill="#2563eb"/>
  <circle cx="836.96" cy="298.68" r="2.5" fill="#2563eb"/>
  <circle cx="838.48" cy="298.68" r="2.5" fill="#2563eb"/>
  <circle cx="840.00" cy="298.68" r="2.5" fill="#2563eb"/>
  <circle cx="841.52" cy="247.36" r="2.5" fill="#2563eb"/>
  <circle cx="843.04" cy="298.64" r="2.5" fill="#2563eb"/>
  <circle cx="844.57" cy="247.36" r="2.5" fill="#2563eb"/>
  <circle cx="846.09" cy="247.28" r="2.5" fill="#2563eb"/>
  <circle cx="847.61" cy="247.20" r="2.5" fill="#2563eb"/>
  <circle cx="849.13" cy="298.60" r="2.5" fill="#2563eb"/>
  <circle cx="850.65" cy="298.60" r="2.5" fill="#2563eb"/>
  <circle cx="852.17" cy="247.03" r="2.5" fill="#2563eb"/>
  <circle cx="853.70" cy="298.51" r="2.5" fill="#2563eb"/>
  <circle cx="855.22" cy="298.51" r="2.5" fill="#2563eb"/>
  <circle cx="856.74" cy="298.51" r="2.5" fill="#2563eb"/>
  <circle cx="858.26" cy="298.51" r="2.5" fill="#2563eb"/>
  <circle cx="859.78" cy="298.51" r="2.5" fill="#2563eb"/>
  <circle cx="861.30" cy="298.51" r="2.5" fill="#2563eb"/>
  <circle cx="862.83" cy="298.51" r="2.5" fill="#2563eb"/>
  <circle cx="864.35" cy="298.51" r="2.5" fill="#2563eb"/>
  <circle cx="865.87" cy="298.51" r="2.5" fill="#2563eb"/>
  <circle cx="867.39" cy="298.51" r="2.5" fill="#2563eb"/>
  <circle cx="868.91" cy="298.51" r="2.5" fill="#2563eb"/>
  <circle cx="870.43" cy="298.51" r="2.5" fill="#2563eb"/>
  <circle cx="871.96" cy="298.51" r="2.5" fill="#2563eb"/>
  <circle cx="873.48" cy="298.51" r="2.5" fill="#2563eb"/>
  <circle cx="875.00" cy="298.51" r="2.5" fill="#2563eb"/>
  <circle cx="876.52" cy="298.51" r="2.5" fill="#2563eb"/>
  <circle cx="878.04" cy="298.51" r="2.5" fill="#2563eb"/>
  <circle cx="879.57" cy="298.51" r="2.5" fill="#2563eb"/>
  <circle cx="881.09" cy="298.51" r="2.5" fill="#2563eb"/>
  <circle cx="882.61" cy="298.51" r="2.5" fill="#2563eb"/>
  <circle cx="884.13" cy="298.51" r="2.5" fill="#2563eb"/>
  <circle cx="885.65" cy="298.51" r="2.5" fill="#2563eb"/>
  <circle cx="887.17" cy="298.51" r="2.5" fill="#2563eb"/>
  <circle cx="888.70" cy="298.51" r="2.5" fill="#2563eb"/>
  <circle cx="890.22" cy="298.51" r="2.5" fill="#2563eb"/>
  <circle cx="891.74" cy="298.51" r="2.5" fill="#2563eb"/>
  <circle cx="893.26" cy="298.47" r="2.5" fill="#2563eb"/>
  <circle cx="894.78" cy="298.51" r="2.5" fill="#2563eb"/>
  <circle cx="896.30" cy="298.51" r="2.5" fill="#2563eb"/>
  <circle cx="897.83" cy="298.47" r="2.5" fill="#2563eb"/>
  <circle cx="899.35" cy="298.51" r="2.5" fill="#2563eb"/>
  <circle cx="900.87" cy="298.47" r="2.5" fill="#2563eb"/>
  <circle cx="902.39" cy="298.51" r="2.5" fill="#2563eb"/>
  <circle cx="903.91" cy="298.43" r="2.5" fill="#2563eb"/>
  <circle cx="905.43" cy="298.56" r="2.5" fill="#2563eb"/>
  <circle cx="906.96" cy="298.43" r="2.5" fill="#2563eb"/>
  <circle cx="908.48" cy="298.43" r="2.5" fill="#2563eb"/>
  <circle cx="910.00" cy="298.43" r="2.5" fill="#2563eb"/>
  <circle cx="911.52" cy="298.43" r="2.5" fill="#2563eb"/>
  <circle cx="913.04" cy="298.43" r="2.5" fill="#2563eb"/>
  <circle cx="914.57" cy="298.43" r="2.5" fill="#2563eb"/>
  <circle cx="916.09" cy="298.43" r="2.5" fill="#2563eb"/>
  <circle cx="917.61" cy="298.43" r="2.5" fill="#2563eb"/>
  <circle cx="919.13" cy="298.43" r="2.5" fill="#2563eb"/>
  <circle cx="920.65" cy="298.43" r="2.5" fill="#2563eb"/>
  <circle cx="922.17" cy="298.43" r="2.5" fill="#2563eb"/>
  <circle cx="923.70" cy="298.43" r="2.5" fill="#2563eb"/>
  <circle cx="925.22" cy="298.43" r="2.5" fill="#2563eb"/>
  <circle cx="926.74" cy="298.43" r="2.5" fill="#2563eb"/>
  <circle cx="928.26" cy="298.43" r="2.5" fill="#2563eb"/>
  <circle cx="929.78" cy="298.43" r="2.5" fill="#2563eb"/>
  <circle cx="931.30" cy="298.43" r="2.5" fill="#2563eb"/>
  <circle cx="932.83" cy="298.43" r="2.5" fill="#2563eb"/>
  <circle cx="934.35" cy="298.43" r="2.5" fill="#2563eb"/>
  <circle cx="935.87" cy="298.43" r="2.5" fill="#2563eb"/>
  <circle cx="937.39" cy="298.43" r="2.5" fill="#2563eb"/>
  <circle cx="938.91" cy="298.43" r="2.5" fill="#2563eb"/>
  <circle cx="940.43" cy="298.43" r="2.5" fill="#2563eb"/>
  <circle cx="941.96" cy="298.43" r="2.5" fill="#2563eb"/>
  <circle cx="943.48" cy="298.43" r="2.5" fill="#2563eb"/>
  <circle cx="945.00" cy="298.43" r="2.5" fill="#2563eb"/>
  <circle cx="946.52" cy="298.43" r="2.5" fill="#2563eb"/>
  <circle cx="948.04" cy="298.43" r="2.5" fill="#2563eb"/>
  <circle cx="949.57" cy="298.43" r="2.5" fill="#2563eb"/>
  <circle cx="951.09" cy="298.43" r="2.5" fill="#2563eb"/>
  <circle cx="952.61" cy="298.43" r="2.5" fill="#2563eb"/>
  <circle cx="954.13" cy="298.43" r="2.5" fill="#2563eb"/>
  <circle cx="955.65" cy="298.43" r="2.5" fill="#2563eb"/>
  <circle cx="957.17" cy="298.43" r="2.5" fill="#2563eb"/>
  <circle cx="958.70" cy="298.39" r="2.5" fill="#2563eb"/>
  <circle cx="960.22" cy="298.39" r="2.5" fill="#2563eb"/>
  <circle cx="961.74" cy="298.43" r="2.5" fill="#2563eb"/>
  <circle cx="963.26" cy="298.43" r="2.5" fill="#2563eb"/>
  <circle cx="964.78" cy="298.39" r="2.5" fill="#2563eb"/>
  <circle cx="966.30" cy="298.39" r="2.5" fill="#2563eb"/>
  <circle cx="967.83" cy="298.39" r="2.5" fill="#2563eb"/>
  <circle cx="969.35" cy="298.43" r="2.5" fill="#2563eb"/>
  <circle cx="970.87" cy="298.43" r="2.5" fill="#2563eb"/>
  <circle cx="972.39" cy="298.43" r="2.5" fill="#2563eb"/>
  <circle cx="973.91" cy="246.82" r="2.5" fill="#2563eb"/>
  <circle cx="975.43" cy="298.43" r="2.5" fill="#2563eb"/>
  <circle cx="976.96" cy="246.78" r="2.5" fill="#2563eb"/>
  <circle cx="978.48" cy="246.78" r="2.5" fill="#2563eb"/>
  <circle cx="980.00" cy="298.39" r="2.5" fill="#2563eb"/>
</svg>
