<?xml version="1.0" encoding="UTF-8"?>
<svg xmlns="http://www.w3.org/2000/svg" width="1000" height="420" viewBox="0 0 1000 420">
  <rect width="100%" height="100%" fill="#ffffff"/>
  <text x="70" y="28" font-size="20" font-weight="600">수집 시점 기준 - 시간별 스냅샷</text>
  <text x="70" y="402" font-size="12" fill="#555">스냅샷 수</text>
  <line x1="70" y1="350.00" x2="980" y2="350.00" stroke="#e5e7eb" stroke-width="1"/>
  <text x="62" y="354.00" font-size="11" fill="#6b7280" text-anchor="end">0</text>
  <line x1="70" y1="290.00" x2="980" y2="290.00" stroke="#e5e7eb" stroke-width="1"/>
  <text x="62" y="294.00" font-size="11" fill="#6b7280" text-anchor="end">1,440</text>
  <line x1="70" y1="230.00" x2="980" y2="230.00" stroke="#e5e7eb" stroke-width="1"/>
  <text x="62" y="234.00" font-size="11" fill="#6b7280" text-anchor="end">2,880</text>
  <line x1="70" y1="170.00" x2="980" y2="170.00" stroke="#e5e7eb" stroke-width="1"/>
  <text x="62" y="174.00" font-size="11" fill="#6b7280" text-anchor="end">4,321</text>
  <line x1="70" y1="110.00" x2="980" y2="110.00" stroke="#e5e7eb" stroke-width="1"/>
  <text x="62" y="114.00" font-size="11" fill="#6b7280" text-anchor="end">5,761</text>
  <line x1="70" y1="50.00" x2="980" y2="50.00" stroke="#e5e7eb" stroke-width="1"/>
  <text x="62" y="54.00" font-size="11" fill="#6b7280" text-anchor="end">7,202</text>
  <line x1="70" y1="350" x2="980" y2="350" stroke="#111827" stroke-width="1.2"/>
  <line x1="70" y1="50" x2="70" y2="350" stroke="#111827" stroke-width="1.2"/>
  <line x1="70.00" y1="350" x2="70.00" y2="356" stroke="#9ca3af" stroke-width="1"/>
  <text x="70.00" y="372" font-size="10" fill="#6b7280" text-anchor="middle">2026-02-28 18</text>
  <line x1="144.98" y1="350" x2="144.98" y2="356" stroke="#9ca3af" stroke-width="1"/>
  <text x="144.98" y="372" font-size="10" fill="#6b7280" text-anchor="middle">2026-03-09 23</text>
  <line x1="219.96" y1="350" x2="219.96" y2="356" stroke="#9ca3af" stroke-width="1"/>
  <text x="219.96" y="372" font-size="10" fill="#6b7280" text-anchor="middle">2026-03-12 23</text>
  <line x1="294.94" y1="350" x2="294.94" y2="356" stroke="#9ca3af" stroke-width="1"/>
  <text x="294.94" y="372" font-size="10" fill="#6b7280" text-anchor="middle">2026-03-16 12</text>
  <line x1="369.93" y1="350" x2="369.93" y2="356" stroke="#9ca3af" stroke-width="1"/>
  <text x="369.93" y="372" font-size="10" fill="#6b7280" text-anchor="middle">2026-03-20 20</text>
  <line x1="444.91" y1="350" x2="444.91" y2="356" stroke="#9ca3af" stroke-width="1"/>
  <text x="444.91" y="372" font-size="10" fill="#6b7280" text-anchor="middle">2026-03-24 20</text>
  <line x1="519.89" y1="350" x2="519.89" y2="356" stroke="#9ca3af" stroke-width="1"/>
  <text x="519.89" y="372" font-size="10" fill="#6b7280" text-anchor="middle">2026-03-29 06</text>
  <line x1="594.87" y1="350" x2="594.87" y2="356" stroke="#9ca3af" stroke-width="1"/>
  <text x="594.87" y="372" font-size="10" fill="#6b7280" text-anchor="middle">2026-04-03 00</text>
  <line x1="669.85" y1="350" x2="669.85" y2="356" stroke="#9ca3af" stroke-width="1"/>
  <text x="669.85" y="372" font-size="10" fill="#6b7280" text-anchor="middle">2026-04-07 07</text>
  <line x1="744.83" y1="350" x2="744.83" y2="356" stroke="#9ca3af" stroke-width="1"/>
  <text x="744.83" y="372" font-size="10" fill="#6b7280" text-anchor="middle">2026-04-11 20</text>
  <line x1="819.81" y1="350" x2="819.81" y2="356" stroke="#9ca3af" stroke-width="1"/>
  <text x="819.81" y="372" font-size="10" fill="#6b7280" text-anchor="middle">2026-04-17 01</text>
  <line x1="894.79" y1="350" x2="894.79" y2="356" stroke="#9ca3af" stroke-width="1"/>
  <text x="894.79" y="372" font-size="10" fill="#6b7280" text-anchor="middle">2026-04-21 09</text>
  <line x1="969.78" y1="350" x2="969.78" y2="356" stroke="#9ca3af" stroke-width="1"/>
  <text x="969.78" y="372" font-size="10" fill="#6b7280" text-anchor="middle">2026-04-26 05</text>
  <line x1="980.00" y1="350" x2="980.00" y2="356" stroke="#9ca3af" stroke-width="1"/>
  <text x="980.00" y="372" font-size="10" fill="#6b7280" text-anchor="middle">2026-04-26 20</text>
  <polyline fill="none" stroke="#2563eb" stroke-width="2.5" points="70.00,50.00 71.14,50.12 72.27,50.17 73.41,50.46 74.54,50.00 75.68,266.90 76.82,50.12 77.95,50.08 79.09,177.46 80.22,211.58 81.36,175.34 82.50,304.14 83.63,200.46 84.77,250.94 85.91,300.01 87.04,300.06 88.18,300.01 89.31,300.01 90.45,348.00 91.59,300.01 92.72,249.99 93.86,200.00 94.99,249.99 96.13,249.99 97.27,250.03 98.40,250.03 99.54,250.03 100.67,250.40 101.81,250.90 102.95,250.90 104.08,251.32 105.22,249.94 106.35,300.01 107.49,299.93 108.63,251.03 109.76,300.68 110.90,250.03 112.03,200.00 113.17,249.99 114.31,250.03 115.44,250.03 116.58,250.03 117.72,300.01 118.85,200.04 119.99,250.03 121.12,250.03 122.26,250.03 123.40,249.90 124.53,250.03 125.67,250.03 126.80,250.94 127.94,250.44 129.08,250.03 130.21,250.03 131.35,300.47 132.48,300.01 133.62,300.43 134.76,250.03 135.89,249.99 137.03,300.43 138.16,249.90 139.30,249.99 140.44,249.99 141.57,200.04 142.71,300.01 143.85,300.01 144.98,300.01 146.12,249.90 147.25,300.01 148.39,250.03 149.53,249.99 150.66,199.96 151.80,300.01 152.93,200.00 154.07,250.36 155.21,250.03 156.34,300.01 157.48,300.01 158.61,250.44 159.75,300.01 160.89,250.03 162.02,250.03 163.16,249.99 164.29,250.49 165.43,250.03 166.57,200.04 167.70,300.01 168.84,250.03 169.98,300.01 171.11,250.11 172.25,300.01 173.38,250.03 174.52,250.03 175.66,199.92 176.79,250.03 177.93,250.03 179.06,250.03 180.20,254.36 181.34,300.01 182.47,299.97 183.61,250.36 184.74,299.97 185.88,250.03 187.02,250.03 188.15,250.03 189.29,250.03 190.42,249.99 191.56,200.00 192.70,299.93 193.83,300.01 194.97,299.97 196.10,249.94 197.24,249.99 198.38,249.82 199.51,249.94 200.65,250.28 201.79,207.00 202.92,250.03 204.06,250.32 205.19,250.40 206.33,300.93 207.47,300.01 208.60,300.10 209.74,249.94 210.87,249.99 212.01,250.07 213.15,249.99 214.28,250.03 215.42,249.94 216.55,200.00 217.69,300.39 218.83,300.01 219.96,300.01 221.10,250.44 222.23,300.39 223.37,249.86 224.51,250.11 225.64,201.46 226.78,300.01 227.92,200.83 229.05,250.03 230.19,249.99 231.32,300.26 232.46,300.01 233.60,300.01 234.73,250.03 235.87,250.03 237.00,250.03 238.14,250.03 239.28,249.99 240.41,250.03 241.55,200.00 242.68,300.26 243.82,249.99 244.96,300.01 246.09,249.94 247.23,250.03 248.36,250.03 249.50,250.03 250.64,200.04 251.77,300.01 252.91,249.90 254.04,300.01 255.18,300.01 256.32,300.06 257.45,300.01 258.59,300.01 259.73,243.95 260.86,249.94 262.00,299.97 263.13,300.01 264.27,300.01 265.41,250.03 266.54,300.01 267.68,300.01 268.81,299.97 269.95,249.99 271.09,300.01 272.22,299.93 273.36,300.01 274.49,299.93 275.63,300.01 276.77,300.01 277.90,299.89 279.04,299.97 280.17,250.03 281.31,299.93 282.45,299.89 283.58,299.97 284.72,249.94 285.86,300.01 286.99,300.01 288.13,299.97 289.26,249.99 290.40,299.97 291.54,299.97 292.67,300.06 293.81,300.06 294.94,299.93 296.08,300.01 297.22,300.01 298.35,299.93 299.49,300.01 300.62,300.01 301.76,299.97 302.90,300.01 304.03,300.01 305.17,300.01 306.30,300.01 307.44,249.86 308.58,300.01 309.71,300.10 310.85,299.93 311.99,300.01 313.12,299.93 314.26,300.01 315.39,300.01 316.53,300.01 317.67,300.01 318.80,300.01 319.94,299.97 321.07,300.01 322.21,300.01 323.35,300.01 324.48,300.01 325.62,250.03 326.75,300.01 327.89,300.01 329.03,299.97 330.16,300.01 331.30,300.01 332.43,299.97 333.57,299.97 334.71,300.01 335.84,299.97 336.98,300.01 338.11,299.93 339.25,300.01 340.39,250.03 341.52,300.01 342.66,300.01 343.80,300.01 344.93,300.01 346.07,300.01 347.20,299.89 348.34,300.01 349.48,300.01 350.61,250.07 351.75,300.01 352.88,299.93 354.02,300.01 355.16,299.97 356.29,299.97 357.43,299.97 358.56,250.03 359.70,300.01 360.84,300.01 361.97,300.01 363.11,300.01 364.24,299.97 365.38,300.01 366.52,299.97 367.65,300.01 368.79,299.97 369.93,249.90 371.06,300.01 372.20,300.01 373.33,299.89 374.47,299.97 375.61,299.97 376.74,249.99 377.88,299.97 379.01,299.89 380.15,300.01 381.29,299.97 382.42,299.97 383.56,300.01 384.69,299.97 385.83,249.99 386.97,299.97 388.10,299.97 389.24,300.06 390.37,300.06 391.51,249.94 392.65,300.01 393.78,299.93 394.92,300.01 396.05,300.01 397.19,249.99 398.33,300.01 399.46,300.01 400.60,300.01 401.74,299.93 402.87,299.93 404.01,300.01 405.14,300.01 406.28,249.94 407.42,299.97 408.55,299.97 409.69,300.01 410.82,300.01 411.96,300.01 413.10,249.99 414.23,300.01 415.37,300.01 416.50,300.01 417.64,250.03 418.78,300.01 419.91,300.01 421.05,300.01 422.18,299.97 423.32,300.01 424.46,300.01 425.59,299.97 426.73,299.97 427.87,300.01 429.00,300.01 430.14,299.97 431.27,299.93 432.41,300.01 433.55,300.06 434.68,299.97 435.82,300.01 436.95,250.03 438.09,250.03 439.23,299.93 440.36,299.97 441.50,300.01 442.63,300.01 443.77,300.06 444.91,300.01 446.04,299.93 447.18,300.01 448.31,300.01 449.45,299.97 450.59,299.97 451.72,300.01 452.86,250.03 454.00,300.01 455.13,300.01 456.27,300.01 457.40,299.97 458.54,300.01 459.68,299.97 460.81,300.01 461.95,299.97 463.08,299.97 464.22,299.93 465.36,300.01 466.49,300.01 467.63,299.89 468.76,299.97 469.90,299.97 471.04,300.06 472.17,249.90 473.31,299.89 474.44,300.01 475.58,299.97 476.72,299.97 477.85,299.97 478.99,300.01 480.12,300.01 481.26,299.97 482.40,299.97 483.53,299.97 484.67,250.03 485.81,299.93 486.94,300.01 488.08,300.01 489.21,299.93 490.35,300.01 491.49,300.01 492.62,299.97 493.76,300.01 494.89,300.01 496.03,300.06 497.17,300.01 498.30,299.97 499.44,299.89 500.57,300.01 501.71,300.01 502.85,249.94 503.98,249.94 505.12,300.01 506.25,300.01 507.39,300.01 508.53,300.01 509.66,299.97 510.80,250.03 511.94,300.01 513.07,300.01 514.21,300.01 515.34,300.01 516.48,250.03 517.62,249.99 518.75,300.01 519.89,299.97 521.02,300.01 522.16,299.97 523.30,300.01 524.43,299.97 525.57,299.97 526.70,299.97 527.84,300.06 528.98,249.99 530.11,300.01 531.25,250.03 532.38,249.94 533.52,249.99 534.66,300.01 535.79,300.06 536.93,300.01 538.06,299.97 539.20,299.97 540.34,300.01 541.47,299.93 542.61,299.89 543.75,299.89 544.88,299.89 546.02,299.89 547.15,299.85 548.29,299.85 549.43,299.89 550.56,299.81 551.70,299.81 552.83,299.81 553.97,299.76 555.11,299.76 556.24,299.76 557.38,299.72 558.51,299.68 559.65,299.60 560.79,299.60 561.92,299.60 563.06,299.56 564.19,299.47 565.33,299.43 566.47,299.43 567.60,299.39 568.74,299.47 569.88,259.82 571.01,338.96 572.15,299.31 573.28,299.31 574.42,299.26 575.56,299.68 576.69,299.68 577.83,299.68 578.96,299.64 580.10,299.14 581.24,299.14 582.37,299.10 583.51,299.10 584.64,299.10 585.78,248.07 586.92,299.06 588.05,299.06 589.19,299.06 590.32,299.06 591.46,299.06 592.60,298.97 593.73,298.97 594.87,298.93 596.00,298.97 597.14,298.93 598.28,298.89 599.41,298.89 600.55,298.89 601.69,298.89 602.82,247.78 603.96,298.89 605.09,298.89 606.23,298.85 607.37,298.85 608.50,298.81 609.64,298.81 610.77,298.81 611.91,298.81 613.05,298.81 614.18,298.81 615.32,298.81 616.45,298.81 617.59,298.81 618.73,298.72 619.86,247.45 621.00,247.45 622.13,298.72 623.27,298.72 624.41,298.72 625.54,298.72 626.68,298.72 627.82,298.72 628.95,247.36 630.09,298.68 631.22,247.36 632.36,247.36 633.50,247.36 634.63,298.68 635.77,298.68 636.90,298.68 638.04,298.68 639.18,298.68 640.31,341.67 641.45,307.01 642.58,298.68 643.72,298.68 644.86,298.68 645.99,247.36 647.13,298.64 648.26,247.36 649.40,247.28 650.54,247.20 651.67,298.60 652.81,298.60 653.95,247.03 655.08,298.51 656.22,298.51 657.35,298.51 658.49,298.51 659.63,298.51 660.76,298.51 661.90,298.51 663.03,298.51 664.17,298.51 665.31,298.51 666.44,298.51 667.58,298.51 668.71,298.51 669.85,298.51 670.99,298.51 672.12,298.51 673.26,298.51 674.39,298.51 675.53,298.51 676.67,298.51 677.80,298.51 678.94,298.51 680.07,298.51 681.21,298.51 682.35,298.51 683.48,298.51 684.62,298.47 685.76,298.51 686.89,298.51 688.03,298.47 689.16,298.51 690.30,298.47 691.44,298.51 692.57,298.43 693.71,298.56 694.84,298.43 695.98,298.43 697.12,298.43 698.25,298.43 699.39,298.43 700.52,298.43 701.66,298.43 702.80,298.43 703.93,298.43 705.07,298.43 706.20,298.43 707.34,298.43 708.48,298.43 709.61,298.43 710.75,298.43 711.89,298.43 713.02,298.43 714.16,298.43 715.29,298.43 716.43,298.43 717.57,298.43 718.70,298.43 719.84,298.43 720.97,298.43 722.11,298.43 723.25,298.43 724.38,298.43 725.52,298.43 726.65,298.43 727.79,298.43 728.93,298.43 730.06,298.43 731.20,298.43 732.33,298.43 733.47,298.39 734.61,298.39 735.74,298.43 736.88,298.43 738.01,298.39 739.15,298.39 740.29,298.39 741.42,298.43 742.56,298.43 743.70,298.43 744.83,246.82 745.97,298.43 747.10,246.78 748.24,246.78 749.38,246.78 750.51,246.70 751.65,246.78 752.78,298.39 753.92,298.39 755.06,298.39 756.19,298.39 757.33,298.39 758.46,246.78 759.60,298.39 760.74,298.39 761.87,298.39 763.01,298.39 764.14,298.39 765.28,246.78 766.42,246.78 767.55,298.39 768.69,298.39 769.83,298.39 770.96,298.39 772.10,298.39 773.23,298.39 774.37,298.39 775.51,298.39 776.64,298.39 777.78,298.39 778.91,298.39 780.05,298.39 781.19,298.39 782.32,298.39 783.46,298.35 784.59,298.39 785.73,298.39 786.87,298.35 788.00,298.35 789.14,298.35 790.27,298.35 791.41,298.35 792.55,298.35 793.68,298.35 794.82,298.35 795.96,298.35 797.09,298.35 798.23,298.35 799.36,298.35 800.50,298.35 801.64,298.35 802.77,298.35 803.91,298.35 805.04,298.35 806.18,298.35 807.32,298.35 808.45,298.35 809.59,298.35 810.72,298.35 811.86,298.35 813.00,298.35 814.13,298.35 815.27,298.35 816.40,298.35 817.54,298.35 818.68,298.35 819.81,298.35 820.95,298.35 822.08,298.35 823.22,298.35 824.36,298.35 825.49,298.35 826.63,298.35 827.77,298.35 828.90,298.35 830.04,298.35 831.17,298.35 832.31,298.35 833.45,298.35 834.58,298.35 835.72,298.35 836.85,298.35 837.99,298.35 839.13,298.35 840.26,298.35 841.40,298.35 842.53,298.35 843.67,298.35 844.81,298.35 845.94,298.39 847.08,298.39 848.21,298.39 849.35,246.78 850.49,298.39 851.62,298.39 852.76,298.39 853.90,298.39 855.03,298.39 856.17,298.39 857.30,298.39 858.44,246.78 859.58,298.39 860.71,298.39 861.85,298.39 862.98,298.39 864.12,298.39 865.26,298.39 866.39,298.39 867.53,246.78 868.66,298.39 869.80,298.39 870.94,298.39 872.07,298.39 873.21,298.39 874.34,298.39 875.48,298.39 876.62,298.39 877.75,298.39 878.89,298.39 880.02,298.39 881.16,298.35 882.30,298.39 883.43,298.39 884.57,298.39 885.71,298.35 886.84,298.35 887.98,298.35 889.11,298.35 890.25,298.35 891.39,298.35 892.52,298.35 893.66,298.35 894.79,298.35 895.93,298.35 897.07,298.35 898.20,298.35 899.34,298.35 900.47,298.35 901.61,298.35 902.75,298.35 903.88,298.39 905.02,298.39 906.15,298.39 907.29,298.39 908.43,298.39 909.56,298.39 910.70,298.35 911.84,298.39 912.97,298.39 914.11,298.39 915.24,298.39 916.38,298.39 917.52,298.39 918.65,298.39 919.79,298.39 920.92,298.39 922.06,298.35 923.20,298.39 924.33,298.39 925.47,298.39 926.60,298.39 927.74,298.39 928.88,298.39 930.01,298.39 931.15,298.39 932.28,298.39 933.42,298.39 934.56,298.39 935.69,298.39 936.83,298.39 937.97,298.39 939.10,298.39 940.24,298.39 941.37,298.35 942.51,298.35 943.65,298.39 944.78,298.39 945.92,298.39 947.05,298.39 948.19,298.39 949.33,298.39 950.46,298.39 951.60,298.39 952.73,298.39 953.87,298.39 955.01,298.35 956.14,298.35 957.28,298.39 958.41,298.39 959.55,298.39 960.69,298.39 961.82,298.39 962.96,298.39 964.09,298.39 965.23,298.39 966.37,298.39 967.50,298.39 968.64,298.39 969.78,298.39 970.91,298.39 972.05,298.39 973.18,298.35 974.32,298.39 975.46,298.39 976.59,298.39 977.73,298.39 978.86,298.39 980.00,298.39"/>
  <circle cx="70.00" cy="50.00" r="2.5" fill="#2563eb"/>
  <circle cx="71.14" cy="50.12" r="2.5" fill="#2563eb"/>
  <circle cx="72.27" cy="50.17" r="2.5" fill="#2563eb"/>
  <circle cx="73.41" cy="50.46" r="2.5" fill="#2563eb"/>
  <circle cx="74.54" cy="50.00" r="2.5" fill="#2563eb"/>
  <circle cx="75.68" cy="266.90" r="2.5" fill="#2563eb"/>
  <circle cx="76.82" cy="50.12" r="2.5" fill="#2563eb"/>
  <circle cx="77.95" cy="50.08" r="2.5" fill="#2563eb"/>
  <circle cx="79.09" cy="177.46" r="2.5" fill="#2563eb"/>
  <circle cx="80.22" cy="211.58" r="2.5" fill="#2563eb"/>
  <circle cx="81.36" cy="175.34" r="2.5" fill="#2563eb"/>
  <circle cx="82.50" cy="304.14" r="2.5" fill="#2563eb"/>
  <circle cx="83.63" cy="200.46" r="2.5" fill="#2563eb"/>
  <circle cx="84.77" cy="250.94" r="2.5" fill="#2563eb"/>
  <circle cx="85.91" cy="300.01" r="2.5" fill="#2563eb"/>
  <circle cx="87.04" cy="300.06" r="2.5" fill="#2563eb"/>
  <circle cx="88.18" cy="300.01" r="2.5" fill="#2563eb"/>
  <circle cx="89.31" cy="300.01" r="2.5" fill="#2563eb"/>
  <circle cx="90.45" cy="348.00" r="2.5" fill="#2563eb"/>
  <circle cx="91.59" cy="300.01" r="2.5" fill="#2563eb"/>
  <circle cx="92.72" cy="249.99" r="2.5" fill="#2563eb"/>
  <circle cx="93.86" cy="200.00" r="2.5" fill="#2563eb"/>
  <circle cx="94.99" cy="249.99" r="2.5" fill="#2563eb"/>
  <circle cx="96.13" cy="249.99" r="2.5" fill="#2563eb"/>
  <circle cx="97.27" cy="250.03" r="2.5" fill="#2563eb"/>
  <circle cx="98.40" cy="250.03" r="2.5" fill="#2563eb"/>
  <circle cx="99.54" cy="250.03" r="2.5" fill="#2563eb"/>
  <circle cx="100.67" cy="250.40" r="2.5" fill="#2563eb"/>
  <circle cx="101.81" cy="250.90" r="2.5" fill="#2563eb"/>
  <circle cx="102.95" cy="250.90" r="2.5" fill="#2563eb"/>
  <circle cx="104.08" cy="251.32" r="2.5" fill="#2563eb"/>
  <circle cx="105.22" cy="249.94" r="2.5" fill="#2563eb"/>
  <circle cx="106.35" cy="300.01" r="2.5" fill="#2563eb"/>
  <circle cx="107.49" cy="299.93" r="2.5" fill="#2563eb"/>
  <circle cx="108.63" cy="251.03" r="2.5" fill="#2563eb"/>
  <circle cx="109.76" cy="300.68" r="2.5" fill="#2563eb"/>
  <circle cx="110.90" cy="250.03" r="2.5" fill="#2563eb"/>
  <circle cx="112.03" cy="200.00" r="2.5" fill="#2563eb"/>
  <circle cx="113.17" cy="249.99" r="2.5" fill="#2563eb"/>
  <circle cx="114.31" cy="250.03" r="2.5" fill="#2563eb"/>
  <circle cx="115.44" cy="250.03" r="2.5" fill="#2563eb"/>
  <circle cx="116.58" cy="250.03" r="2.5" fill="#2563eb"/>
  <circle cx="117.72" cy="300.01" r="2.5" fill="#2563eb"/>
  <circle cx="118.85" cy="200.04" r="2.5" fill="#2563eb"/>
  <circle cx="119.99" cy="250.03" r="2.5" fill="#2563eb"/>
  <circle cx="121.12" cy="250.03" r="2.5" fill="#2563eb"/>
  <circle cx="122.26" cy="250.03" r="2.5" fill="#2563eb"/>
  <circle cx="123.40" cy="249.90" r="2.5" fill="#2563eb"/>
  <circle cx="124.53" cy="250.03" r="2.5" fill="#2563eb"/>
  <circle cx="125.67" cy="250.03" r="2.5" fill="#2563eb"/>
  <circle cx="126.80" cy="250.94" r="2.5" fill="#2563eb"/>
  <circle cx="127.94" cy="250.44" r="2.5" fill="#2563eb"/>
  <circle cx="129.08" cy="250.03" r="2.5" fill="#2563eb"/>
  <circle cx="130.21" cy="250.03" r="2.5" fill="#2563eb"/>
  <circle cx="131.35" cy="300.47" r="2.5" fill="#2563eb"/>
  <circle cx="132.48" cy="300.01" r="2.5" fill="#2563eb"/>
  <circle cx="133.62" cy="300.43" r="2.5" fill="#2563eb"/>
  <circle cx="134.76" cy="250.03" r="2.5" fill="#2563eb"/>
  <circle cx="135.89" cy="249.99" r="2.5" fill="#2563eb"/>
  <circle cx="137.03" cy="300.43" r="2.5" fill="#2563eb"/>
  <circle cx="138.16" cy="249.90" r="2.5" fill="#2563eb"/>
  <circle cx="139.30" cy="249.99" r="2.5" fill="#2563eb"/>
  <circle cx="140.44" cy="249.99" r="2.5" fill="#2563eb"/>
  <circle cx="141.57" cy="200.04" r="2.5" fill="#2563eb"/>
  <circle cx="142.71" cy="300.01" r="2.5" fill="#2563eb"/>
  <circle cx="143.85" cy="300.01" r="2.5" fill="#2563eb"/>
  <circle cx="144.98" cy="300.01" r="2.5" fill="#2563eb"/>
  <circle cx="146.12" cy="249.90" r="2.5" fill="#2563eb"/>
  <circle cx="147.25" cy="300.01" r="2.5" fill="#2563eb"/>
  <circle cx="148.39" cy="250.03" r="2.5" fill="#2563eb"/>
  <circle cx="149.53" cy="249.99" r="2.5" fill="#2563eb"/>
  <circle cx="150.66" cy="199.96" r="2.5" fill="#2563eb"/>
  <circle cx="151.80" cy="300.01" r="2.5" fill="#2563eb"/>
  <circle cx="152.93" cy="200.00" r="2.5" fill="#2563eb"/>
  <circle cx="154.07" cy="250.36" r="2.5" fill="#2563eb"/>
  <circle cx="155.21" cy="250.03" r="2.5" fill="#2563eb"/>
  <circle cx="156.34" cy="300.01" r="2.5" fill="#2563eb"/>
  <circle cx="157.48" cy="300.01" r="2.5" fill="#2563eb"/>
  <circle cx="158.61" cy="250.44" r="2.5" fill="#2563eb"/>
  <circle cx="159.75" cy="300.01" r="2.5" fill="#2563eb"/>
  <circle cx="160.89" cy="250.03" r="2.5" fill="#2563eb"/>
  <circle cx="162.02" cy="250.03" r="2.5" fill="#2563eb"/>
  <circle cx="163.16" cy="249.99" r="2.5" fill="#2563eb"/>
  <circle cx="164.29" cy="250.49" r="2.5" fill="#2563eb"/>
  <circle cx="165.43" cy="250.03" r="2.5" fill="#2563eb"/>
  <circle cx="166.57" cy="200.04" r="2.5" fill="#2563eb"/>
  <circle cx="167.70" cy="300.01" r="2.5" fill="#2563eb"/>
  <circle cx="168.84" cy="250.03" r="2.5" fill="#2563eb"/>
  <circle cx="169.98" cy="300.01" r="2.5" fill="#2563eb"/>
  <circle cx="171.11" cy="250.11" r="2.5" fill="#2563eb"/>
  <circle cx="172.25" cy="300.01" r="2.5" fill="#2563eb"/>
  <circle cx="173.38" cy="250.03" r="2.5" fill="#2563eb"/>
  <circle cx="174.52" cy="250.03" r="2.5" fill="#2563eb"/>
  <circle cx="175.66" cy="199.92" r="2.5" fill="#2563eb"/>
  <circle cx="176.79" cy="250.03" r="2.5" fill="#2563eb"/>
  <circle cx="177.93" cy="250.03" r="2.5" fill="#2563eb"/>
  <circle cx="179.06" cy="250.03" r="2.5" fill="#2563eb"/>
  <circle cx="180.20" cy="254.36" r="2.5" fill="#2563eb"/>
  <circle cx="181.34" cy="300.01" r="2.5" fill="#2563eb"/>
  <circle cx="182.47" cy="299.97" r="2.5" fill="#2563eb"/>
  <circle cx="183.61" cy="250.36" r="2.5" fill="#2563eb"/>
  <circle cx="184.74" cy="299.97" r="2.5" fill="#2563eb"/>
  <circle cx="185.88" cy="250.03" r="2.5" fill="#2563eb"/>
  <circle cx="187.02" cy="250.03" r="2.5" fill="#2563eb"/>
  <circle cx="188.15" cy="250.03" r="2.5" fill="#2563eb"/>
  <circle cx="189.29" cy="250.03" r="2.5" fill="#2563eb"/>
  <circle cx="190.42" cy="249.99" r="2.5" fill="#2563eb"/>
  <circle cx="191.56" cy="200.00" r="2.5" fill="#2563eb"/>
  <circle cx="192.70" cy="299.93" r="2.5" fill="#2563eb"/>
  <circle cx="193.83" cy="300.01" r="2.5" fill="#2563eb"/>
  <circle cx="194.97" cy="299.97" r="2.5" fill="#2563eb"/>
  <circle cx="196.10" cy="249.94" r="2.5" fill="#2563eb"/>
  <circle cx="197.24" cy="249.99" r="2.5" fill="#2563eb"/>
  <circle cx="198.38" cy="249.82" r="2.5" fill="#2563eb"/>
  <circle cx="199.51" cy="249.94" r="2.5" fill="#2563eb"/>
  <circle cx="200.65" cy="250.28" r="2.5" fill="#2563eb"/>
  <circle cx="201.79" cy="207.00" r="2.5" fill="#2563eb"/>
  <circle cx="202.92" cy="250.03" r="2.5" fill="#2563eb"/>
  <circle cx="204.06" cy="250.32" r="2.5" fill="#2563eb"/>
  <circle cx="205.19" cy="250.40" r="2.5" fill="#2563eb"/>
  <circle cx="206.33" cy="300.93" r="2.5" fill="#2563eb"/>
  <circle cx="207.47" cy="300.01" r="2.5" fill="#2563eb"/>
  <circle cx="208.60" cy="300.10" r="2.5" fill="#2563eb"/>
  <circle cx="209.74" cy="249.94" r="2.5" fill="#2563eb"/>
  <circle cx="210.87" cy="249.99" r="2.5" fill="#2563eb"/>
  <circle cx="212.01" cy="250.07" r="2.5" fill="#2563eb"/>
  <circle cx="213.15" cy="249.99" r="2.5" fill="#2563eb"/>
  <circle cx="214.28" cy="250.03" r="2.5" fill="#2563eb"/>
  <circle cx="215.42" cy="249.94" r="2.5" fill="#2563eb"/>
  <circle cx="216.55" cy="200.00" r="2.5" fill="#2563eb"/>
  <circle cx="217.69" cy="300.39" r="2.5" fill="#2563eb"/>
  <circle cx="218.83" cy="300.01" r="2.5" fill="#2563eb"/>
  <circle cx="219.96" cy="300.01" r="2.5" fill="#2563eb"/>
  <circle cx="221.10" cy="250.44" r="2.5" fill="#2563eb"/>
  <circle cx="222.23" cy="300.39" r="2.5" fill="#2563eb"/>
  <circle cx="223.37" cy="249.86" r="2.5" fill="#2563eb"/>
  <circle cx="224.51" cy="250.11" r="2.5" fill="#2563eb"/>
  <circle cx="225.64" cy="201.46" r="2.5" fill="#2563eb"/>
  <circle cx="226.78" cy="300.01" r="2.5" fill="#2563eb"/>
  <circle cx="227.92" cy="200.83" r="2.5" fill="#2563eb"/>
  <circle cx="229.05" cy="250.03" r="2.5" fill="#2563eb"/>
  <circle cx="230.19" cy="249.99" r="2.5" fill="#2563eb"/>
  <circle cx="231.32" cy="300.26" r="2.5" fill="#2563eb"/>
  <circle cx="232.46" cy="300.01" r="2.5" fill="#2563eb"/>
  <circle cx="233.60" cy="300.01" r="2.5" fill="#2563eb"/>
  <circle cx="234.73" cy="250.03" r="2.5" fill="#2563eb"/>
  <circle cx="235.87" cy="250.03" r="2.5" fill="#2563eb"/>
  <circle cx="237.00" cy="250.03" r="2.5" fill="#2563eb"/>
  <circle cx="238.14" cy="250.03" r="2.5" fill="#2563eb"/>
  <circle cx="239.28" cy="249.99" r="2.5" fill="#2563eb"/>
  <circle cx="240.41" cy="250.03" r="2.5" fill="#2563eb"/>
  <circle cx="241.55" cy="200.00" r="2.5" fill="#2563eb"/>
  <circle cx="242.68" cy="300.26" r="2.5" fill="#2563eb"/>
  <circle cx="243.82" cy="249.99" r="2.5" fill="#2563eb"/>
  <circle cx="244.96" cy="300.01" r="2.5" fill="#2563eb"/>
  <circle cx="246.09" cy="249.94" r="2.5" fill="#2563eb"/>
  <circle cx="247.23" cy="250.03" r="2.5" fill="#2563eb"/>
  <circle cx="248.36" cy="250.03" r="2.5" fill="#2563eb"/>
  <circle cx="249.50" cy="250.03" r="2.5" fill="#2563eb"/>
  <circle cx="250.64" cy="200.04" r="2.5" fill="#2563eb"/>
  <circle cx="251.77" cy="300.01" r="2.5" fill="#2563eb"/>
  <circle cx="252.91" cy="249.90" r="2.5" fill="#2563eb"/>
  <circle cx="254.04" cy="300.01" r="2.5" fill="#2563eb"/>
  <circle cx="255.18" cy="300.01" r="2.5" fill="#2563eb"/>
  <circle cx="256.32" cy="300.06" r="2.5" fill="#2563eb"/>
  <circle cx="257.45" cy="300.01" r="2.5" fill="#2563eb"/>
  <circle cx="258.59" cy="300.01" r="2.5" fill="#2563eb"/>
  <circle cx="259.73" cy="243.95" r="2.5" fill="#2563eb"/>
  <circle cx="260.86" cy="249.94" r="2.5" fill="#2563eb"/>
  <circle cx="262.00" cy="299.97" r="2.5" fill="#2563eb"/>
  <circle cx="263.13" cy="300.01" r="2.5" fill="#2563eb"/>
  <circle cx="264.27" cy="300.01" r="2.5" fill="#2563eb"/>
  <circle cx="265.41" cy="250.03" r="2.5" fill="#2563eb"/>
  <circle cx="266.54" cy="300.01" r="2.5" fill="#2563eb"/>
  <circle cx="267.68" cy="300.01" r="2.5" fill="#2563eb"/>
  <circle cx="268.81" cy="299.97" r="2.5" fill="#2563eb"/>
  <circle cx="269.95" cy="249.99" r="2.5" fill="#2563eb"/>
  <circle cx="271.09" cy="300.01" r="2.5" fill="#2563eb"/>
  <circle cx="272.22" cy="299.93" r="2.5" fill="#2563eb"/>
  <circle cx="273.36" cy="300.01" r="2.5" fill="#2563eb"/>
  <circle cx="274.49" cy="299.93" r="2.5" fill="#2563eb"/>
  <circle cx="275.63" cy="300.01" r="2.5" fill="#2563eb"/>
  <circle cx="276.77" cy="300.01" r="2.5" fill="#2563eb"/>
  <circle cx="277.90" cy="299.89" r="2.5" fill="#2563eb"/>
  <circle cx="279.04" cy="299.97" r="2.5" fill="#2563eb"/>
  <circle cx="280.17" cy="250.03" r="2.5" fill="#2563eb"/>
  <circle cx="281.31" cy="299.93" r="2.5" fill="#2563eb"/>
  <circle cx="282.45" cy="299.89" r="2.5" fill="#2563eb"/>
  <circle cx="283.58" cy="299.97" r="2.5" fill="#2563eb"/>
  <circle cx="284.72" cy="249.94" r="2.5" fill="#2563eb"/>
  <circle cx="285.86" cy="300.01" r="2.5" fill="#2563eb"/>
  <circle cx="286.99" cy="300.01" r="2.5" fill="#2563eb"/>
  <circle cx="288.13" cy="299.97" r="2.5" fill="#2563eb"/>
  <circle cx="289.26" cy="249.99" r="2.5" fill="#2563eb"/>
  <circle cx="290.40" cy="299.97" r="2.5" fill="#2563eb"/>
  <circle cx="291.54" cy="299.97" r="2.5" fill="#2563eb"/>
  <circle cx="292.67" cy="300.06" r="2.5" fill="#2563eb"/>
  <circle cx="293.81" cy="300.06" r="2.5" fill="#2563eb"/>
  <circle cx="294.94" cy="299.93" r="2.5" fill="#2563eb"/>
  <circle cx="296.08" cy="300.01" r="2.5" fill="#2563eb"/>
  <circle cx="297.22" cy="300.01" r="2.5" fill="#2563eb"/>
  <circle cx="298.35" cy="299.93" r="2.5" fill="#2563eb"/>
  <circle cx="299.49" cy="300.01" r="2.5" fill="#2563eb"/>
  <circle cx="300.62" cy="300.01" r="2.5" fill="#2563eb"/>
  <circle cx="301.76" cy="299.97" r="2.5" fill="#2563eb"/>
  <circle cx="302.90" cy="300.01" r="2.5" fill="#2563eb"/>
  <circle cx="304.03" cy="300.01" r="2.5" fill="#2563eb"/>
  <circle cx="305.17" cy="300.01" r="2.5" fill="#2563eb"/>
  <circle cx="306.30" cy="300.01" r="2.5" fill="#2563eb"/>
  <circle cx="307.44" cy="249.86" r="2.5" fill="#2563eb"/>
  <circle cx="308.58" cy="300.01" r="2.5" fill="#2563eb"/>
  <circle cx="309.71" cy="300.10" r="2.5" fill="#2563eb"/>
  <circle cx="310.85" cy="299.93" r="2.5" fill="#2563eb"/>
  <circle cx="311.99" cy="300.01" r="2.5" fill="#2563eb"/>
  <circle cx="313.12" cy="299.93" r="2.5" fill="#2563eb"/>
  <circle cx="314.26" cy="300.01" r="2.5" fill="#2563eb"/>
  <circle cx="315.39" cy="300.01" r="2.5" fill="#2563eb"/>
  <circle cx="316.53" cy="300.01" r="2.5" fill="#2563eb"/>
  <circle cx="317.67" cy="300.01" r="2.5" fill="#2563eb"/>
  <circle cx="318.80" cy="300.01" r="2.5" fill="#2563eb"/>
  <circle cx="319.94" cy="299.97" r="2.5" fill="#2563eb"/>
  <circle cx="321.07" cy="300.01" r="2.5" fill="#2563eb"/>
  <circle cx="322.21" cy="300.01" r="2.5" fill="#2563eb"/>
  <circle cx="323.35" cy="300.01" r="2.5" fill="#2563eb"/>
  <circle cx="324.48" cy="300.01" r="2.5" fill="#2563eb"/>
  <circle cx="325.62" cy="250.03" r="2.5" fill="#2563eb"/>
  <circle cx="326.75" cy="300.01" r="2.5" fill="#2563eb"/>
  <circle cx="327.89" cy="300.01" r="2.5" fill="#2563eb"/>
  <circle cx="329.03" cy="299.97" r="2.5" fill="#2563eb"/>
  <circle cx="330.16" cy="300.01" r="2.5" fill="#2563eb"/>
  <circle cx="331.30" cy="300.01" r="2.5" fill="#2563eb"/>
  <circle cx="332.43" cy="299.97" r="2.5" fill="#2563eb"/>
  <circle cx="333.57" cy="299.97" r="2.5" fill="#2563eb"/>
  <circle cx="334.71" cy="300.01" r="2.5" fill="#2563eb"/>
  <circle cx="335.84" cy="299.97" r="2.5" fill="#2563eb"/>
  <circle cx="336.98" cy="300.01" r="2.5" fill="#2563eb"/>
  <circle cx="338.11" cy="299.93" r="2.5" fill="#2563eb"/>
  <circle cx="339.25" cy="300.01" r="2.5" fill="#2563eb"/>
  <circle cx="340.39" cy="250.03" r="2.5" fill="#2563eb"/>
  <circle cx="341.52" cy="300.01" r="2.5" fill="#2563eb"/>
  <circle cx="342.66" cy="300.01" r="2.5" fill="#2563eb"/>
  <circle cx="343.80" cy="300.01" r="2.5" fill="#2563eb"/>
  <circle cx="344.93" cy="300.01" r="2.5" fill="#2563eb"/>
  <circle cx="346.07" cy="300.01" r="2.5" fill="#2563eb"/>
  <circle cx="347.20" cy="299.89" r="2.5" fill="#2563eb"/>
  <circle cx="348.34" cy="300.01" r="2.5" fill="#2563eb"/>
  <circle cx="349.48" cy="300.01" r="2.5" fill="#2563eb"/>
  <circle cx="350.61" cy="250.07" r="2.5" fill="#2563eb"/>
  <circle cx="351.75" cy="300.01" r="2.5" fill="#2563eb"/>
  <circle cx="352.88" cy="299.93" r="2.5" fill="#2563eb"/>
  <circle cx="354.02" cy="300.01" r="2.5" fill="#2563eb"/>
  <circle cx="355.16" cy="299.97" r="2.5" fill="#2563eb"/>
  <circle cx="356.29" cy="299.97" r="2.5" fill="#2563eb"/>
  <circle cx="357.43" cy="299.97" r="2.5" fill="#2563eb"/>
  <circle cx="358.56" cy="250.03" r="2.5" fill="#2563eb"/>
  <circle cx="359.70" cy="300.01" r="2.5" fill="#2563eb"/>
  <circle cx="360.84" cy="300.01" r="2.5" fill="#2563eb"/>
  <circle cx="361.97" cy="300.01" r="2.5" fill="#2563eb"/>
  <circle cx="363.11" cy="300.01" r="2.5" fill="#2563eb"/>
  <circle cx="364.24" cy="299.97" r="2.5" fill="#2563eb"/>
  <circle cx="365.38" cy="300.01" r="2.5" fill="#2563eb"/>
  <circle cx="366.52" cy="299.97" r="2.5" fill="#2563eb"/>
  <circle cx="367.65" cy="300.01" r="2.5" fill="#2563eb"/>
  <circle cx="368.79" cy="299.97" r="2.5" fill="#2563eb"/>
  <circle cx="369.93" cy="249.90" r="2.5" fill="#2563eb"/>
  <circle cx="371.06" cy="300.01" r="2.5" fill="#2563eb"/>
  <circle cx="372.20" cy="300.01" r="2.5" fill="#2563eb"/>
  <circle cx="373.33" cy="299.89" r="2.5" fill="#2563eb"/>
  <circle cx="374.47" cy="299.97" r="2.5" fill="#2563eb"/>
  <circle cx="375.61" cy="299.97" r="2.5" fill="#2563eb"/>
  <circle cx="376.74" cy="249.99" r="2.5" fill="#2563eb"/>
  <circle cx="377.88" cy="299.97" r="2.5" fill="#2563eb"/>
  <circle cx="379.01" cy="299.89" r="2.5" fill="#2563eb"/>
  <circle cx="380.15" cy="300.01" r="2.5" fill="#2563eb"/>
  <circle cx="381.29" cy="299.97" r="2.5" fill="#2563eb"/>
  <circle cx="382.42" cy="299.97" r="2.5" fill="#2563eb"/>
  <circle cx="383.56" cy="300.01" r="2.5" fill="#2563eb"/>
  <circle cx="384.69" cy="299.97" r="2.5" fill="#2563eb"/>
  <circle cx="385.83" cy="249.99" r="2.5" fill="#2563eb"/>
  <circle cx="386.97" cy="299.97" r="2.5" fill="#2563eb"/>
  <circle cx="388.10" cy="299.97" r="2.5" fill="#2563eb"/>
  <circle cx="389.24" cy="300.06" r="2.5" fill="#2563eb"/>
  <circle cx="390.37" cy="300.06" r="2.5" fill="#2563eb"/>
  <circle cx="391.51" cy="249.94" r="2.5" fill="#2563eb"/>
  <circle cx="392.65" cy="300.01" r="2.5" fill="#2563eb"/>
  <circle cx="393.78" cy="299.93" r="2.5" fill="#2563eb"/>
  <circle cx="394.92" cy="300.01" r="2.5" fill="#2563eb"/>
  <circle cx="396.05" cy="300.01" r="2.5" fill="#2563eb"/>
  <circle cx="397.19" cy="249.99" r="2.5" fill="#2563eb"/>
  <circle cx="398.33" cy="300.01" r="2.5" fill="#2563eb"/>
  <circle cx="399.46" cy="300.01" r="2.5" fill="#2563eb"/>
  <circle cx="400.60" cy="300.01" r="2.5" fill="#2563eb"/>
  <circle cx="401.74" cy="299.93" r="2.5" fill="#2563eb"/>
  <circle cx="402.87" cy="299.93" r="2.5" fill="#2563eb"/>
  <circle cx="404.01" cy="300.01" r="2.5" fill="#2563eb"/>
  <circle cx="405.14" cy="300.01" r="2.5" fill="#2563eb"/>
  <circle cx="406.28" cy="249.94" r="2.5" fill="#2563eb"/>
  <circle cx="407.42" cy="299.97" r="2.5" fill="#2563eb"/>
  <circle cx="408.55" cy="299.97" r="2.5" fill="#2563eb"/>
  <circle cx="409.69" cy="300.01" r="2.5" fill="#2563eb"/>
  <circle cx="410.82" cy="300.01" r="2.5" fill="#2563eb"/>
  <circle cx="411.96" cy="300.01" r="2.5" fill="#2563eb"/>
  <circle cx="413.10" cy="249.99" r="2.5" fill="#2563eb"/>
  <circle cx="414.23" cy="300.01" r="2.5" fill="#2563eb"/>
  <circle cx="415.37" cy="300.01" r="2.5" fill="#2563eb"/>
  <circle cx="416.50" cy="300.01" r="2.5" fill="#2563eb"/>
  <circle cx="417.64" cy="250.03" r="2.5" fill="#2563eb"/>
  <circle cx="418.78" cy="300.01" r="2.5" fill="#2563eb"/>
  <circle cx="419.91" cy="300.01" r="2.5" fill="#2563eb"/>
  <circle cx="421.05" cy="300.01" r="2.5" fill="#2563eb"/>
  <circle cx="422.18" cy="299.97" r="2.5" fill="#2563eb"/>
  <circle cx="423.32" cy="300.01" r="2.5" fill="#2563eb"/>
  <circle cx="424.46" cy="300.01" r="2.5" fill="#2563eb"/>
  <circle cx="425.59" cy="299.97" r="2.5" fill="#2563eb"/>
  <circle cx="426.73" cy="299.97" r="2.5" fill="#2563eb"/>
  <circle cx="427.87" cy="300.01" r="2.5" fill="#2563eb"/>
  <circle cx="429.00" cy="300.01" r="2.5" fill="#2563eb"/>
  <circle cx="430.14" cy="299.97" r="2.5" fill="#2563eb"/>
  <circle cx="431.27" cy="299.93" r="2.5" fill="#2563eb"/>
  <circle cx="432.41" cy="300.01" r="2.5" fill="#2563eb"/>
  <circle cx="433.55" cy="300.06" r="2.5" fill="#2563eb"/>
  <circle cx="434.68" cy="299.97" r="2.5" fill="#2563eb"/>
  <circle cx="435.82" cy="300.01" r="2.5" fill="#2563eb"/>
  <circle cx="436.95" cy="250.03" r="2.5" fill="#2563eb"/>
  <circle cx="438.09" cy="250.03" r="2.5" fill="#2563eb"/>
  <circle cx="439.23" cy="299.93" r="2.5" fill="#2563eb"/>
  <circle cx="440.36" cy="299.97" r="2.5" fill="#2563eb"/>
  <circle cx="441.50" cy="300.01" r="2.5" fill="#2563eb"/>
  <circle cx="442.63" cy="300.01" r="2.5" fill="#2563eb"/>
  <circle cx="443.77" cy="300.06" r="2.5" fill="#2563eb"/>
  <circle cx="444.91" cy="300.01" r="2.5" fill="#2563eb"/>
  <circle cx="446.04" cy="299.93" r="2.5" fill="#2563eb"/>
  <circle cx="447.18" cy="300.01" r="2.5" fill="#2563eb"/>
  <circle cx="448.31" cy="300.01" r="2.5" fill="#2563eb"/>
  <circle cx="449.45" cy="299.97" r="2.5" fill="#2563eb"/>
  <circle cx="450.59" cy="299.97" r="2.5" fill="#2563eb"/>
  <circle cx="451.72" cy="300.01" r="2.5" fill="#2563eb"/>
  <circle cx="452.86" cy="250.03" r="2.5" fill="#2563eb"/>
  <circle cx="454.00" cy="300.01" r="2.5" fill="#2563eb"/>
  <circle cx="455.13" cy="300.01" r="2.5" fill="#2563eb"/>
  <circle cx="456.27" cy="300.01" r="2.5" fill="#2563eb"/>
  <circle cx="457.40" cy="299.97" r="2.5" fill="#2563eb"/>
  <circle cx="458.54" cy="300.01" r="2.5" fill="#2563eb"/>
  <circle cx="459.68" cy="299.97" r="2.5" fill="#2563eb"/>
  <circle cx="460.81" cy="300.01" r="2.5" fill="#2563eb"/>
  <circle cx="461.95" cy="299.97" r="2.5" fill="#2563eb"/>
  <circle cx="463.08" cy="299.97" r="2.5" fill="#2563eb"/>
  <circle cx="464.22" cy="299.93" r="2.5" fill="#2563eb"/>
  <circle cx="465.36" cy="300.01" r="2.5" fill="#2563eb"/>
  <circle cx="466.49" cy="300.01" r="2.5" fill="#2563eb"/>
  <circle cx="467.63" cy="299.89" r="2.5" fill="#2563eb"/>
  <circle cx="468.76" cy="299.97" r="2.5" fill="#2563eb"/>
  <circle cx="469.90" cy="299.97" r="2.5" fill="#2563eb"/>
  <circle cx="471.04" cy="300.06" r="2.5" fill="#2563eb"/>
  <circle cx="472.17" cy="249.90" r="2.5" fill="#2563eb"/>
  <circle cx="473.31" cy="299.89" r="2.5" fill="#2563eb"/>
  <circle cx="474.44" cy="300.01" r="2.5" fill="#2563eb"/>
  <circle cx="475.58" cy="299.97" r="2.5" fill="#2563eb"/>
  <circle cx="476.72" cy="299.97" r="2.5" fill="#2563eb"/>
  <circle cx="477.85" cy="299.97" r="2.5" fill="#2563eb"/>
  <circle cx="478.99" cy="300.01" r="2.5" fill="#2563eb"/>
  <circle cx="480.12" cy="300.01" r="2.5" fill="#2563eb"/>
  <circle cx="481.26" cy="299.97" r="2.5" fill="#2563eb"/>
  <circle cx="482.40" cy="299.97" r="2.5" fill="#2563eb"/>
  <circle cx="483.53" cy="299.97" r="2.5" fill="#2563eb"/>
  <circle cx="484.67" cy="250.03" r="2.5" fill="#2563eb"/>
  <circle cx="485.81" cy="299.93" r="2.5" fill="#2563eb"/>
  <circle cx="486.94" cy="300.01" r="2.5" fill="#2563eb"/>
  <circle cx="488.08" cy="300.01" r="2.5" fill="#2563eb"/>
  <circle cx="489.21" cy="299.93" r="2.5" fill="#2563eb"/>
  <circle cx="490.35" cy="300.01" r="2.5" fill="#2563eb"/>
  <circle cx="491.49" cy="300.01" r="2.5" fill="#2563eb"/>
  <circle cx="492.62" cy="299.97" r="2.5" fill="#2563eb"/>
  <circle cx="493.76" cy="300.01" r="2.5" fill="#2563eb"/>
  <circle cx="494.89" cy="300.01" r="2.5" fill="#2563eb"/>
  <circle cx="496.03" cy="300.06" r="2.5" fill="#2563eb"/>
  <circle cx="497.17" cy="300.01" r="2.5" fill="#2563eb"/>
  <circle cx="498.30" cy="299.97" r="2.5" fill="#2563eb"/>
  <circle cx="499.44" cy="299.89" r="2.5" fill="#2563eb"/>
  <circle cx="500.57" cy="300.01" r="2.5" fill="#2563eb"/>
  <circle cx="501.71" cy="300.01" r="2.5" fill="#2563eb"/>
  <circle cx="502.85" cy="249.94" r="2.5" fill="#2563eb"/>
  <circle cx="503.98" cy="249.94" r="2.5" fill="#2563eb"/>
  <circle cx="505.12" cy="300.01" r="2.5" fill="#2563eb"/>
  <circle cx="506.25" cy="300.01" r="2.5" fill="#2563eb"/>
  <circle cx="507.39" cy="300.01" r="2.5" fill="#2563eb"/>
  <circle cx="508.53" cy="300.01" r="2.5" fill="#2563eb"/>
  <circle cx="509.66" cy="299.97" r="2.5" fill="#2563eb"/>
  <circle cx="510.80" cy="250.03" r="2.5" fill="#2563eb"/>
  <circle cx="511.94" cy="300.01" r="2.5" fill="#2563eb"/>
  <circle cx="513.07" cy="300.01" r="2.5" fill="#2563eb"/>
  <circle cx="514.21" cy="300.01" r="2.5" fill="#2563eb"/>
  <circle cx="515.34" cy="300.01" r="2.5" fill="#2563eb"/>
  <circle cx="516.48" cy="250.03" r="2.5" fill="#2563eb"/>
  <circle cx="517.62" cy="249.99" r="2.5" fill="#2563eb"/>
  <circle cx="518.75" cy="300.01" r="2.5" fill="#2563eb"/>
  <circle cx="519.89" cy="299.97" r="2.5" fill="#2563eb"/>
  <circle cx="521.02" cy="300.01" r="2.5" fill="#2563eb"/>
  <circle cx="522.16" cy="299.97" r="2.5" fill="#2563eb"/>
  <circle cx="523.30" cy="300.01" r="2.5" fill="#2563eb"/>
  <circle cx="524.43" cy="299.97" r="2.5" fill="#2563eb"/>
  <circle cx="525.57" cy="299.97" r="2.5" fill="#2563eb"/>
  <circle cx="526.70" cy="299.97" r="2.5" fill="#2563eb"/>
  <circle cx="527.84" cy="300.06" r="2.5" fill="#2563eb"/>
  <circle cx="528.98" cy="249.99" r="2.5" fill="#2563eb"/>
  <circle cx="530.11" cy="300.01" r="2.5" fill="#2563eb"/>
  <circle cx="531.25" cy="250.03" r="2.5" fill="#2563eb"/>
  <circle cx="532.38" cy="249.94" r="2.5" fill="#2563eb"/>
  <circle cx="533.52" cy="249.99" r="2.5" fill="#2563eb"/>
  <circle cx="534.66" cy="300.01" r="2.5" fill="#2563eb"/>
  <circle cx="535.79" cy="300.06" r="2.5" fill="#2563eb"/>
  <circle cx="536.93" cy="300.01" r="2.5" fill="#2563eb"/>
  <circle cx="538.06" cy="299.97" r="2.5" fill="#2563eb"/>
  <circle cx="539.20" cy="299.97" r="2.5" fill="#2563eb"/>
  <circle cx="540.34" cy="300.01" r="2.5" fill="#2563eb"/>
  <circle cx="541.47" cy="299.93" r="2.5" fill="#2563eb"/>
  <circle cx="542.61" cy="299.89" r="2.5" fill="#2563eb"/>
  <circle cx="543.75" cy="299.89" r="2.5" fill="#2563eb"/>
  <circle cx="544.88" cy="299.89" r="2.5" fill="#2563eb"/>
  <circle cx="546.02" cy="299.89" r="2.5" fill="#2563eb"/>
  <circle cx="547.15" cy="299.85" r="2.5" fill="#2563eb"/>
  <circle cx="548.29" cy="299.85" r="2.5" fill="#2563eb"/>
  <circle cx="549.43" cy="299.89" r="2.5" fill="#2563eb"/>
  <circle cx="550.56" cy="299.81" r="2.5" fill="#2563eb"/>
  <circle cx="551.70" cy="299.81" r="2.5" fill="#2563eb"/>
  <circle cx="552.83" cy="299.81" r="2.5" fill="#2563eb"/>
  <circle cx="553.97" cy="299.76" r="2.5" fill="#2563eb"/>
  <circle cx="555.11" cy="299.76" r="2.5" fill="#2563eb"/>
  <circle cx="556.24" cy="299.76" r="2.5" fill="#2563eb"/>
  <circle cx="557.38" cy="299.72" r="2.5" fill="#2563eb"/>
  <circle cx="558.51" cy="299.68" r="2.5" fill="#2563eb"/>
  <circle cx="559.65" cy="299.60" r="2.5" fill="#2563eb"/>
  <circle cx="560.79" cy="299.60" r="2.5" fill="#2563eb"/>
  <circle cx="561.92" cy="299.60" r="2.5" fill="#2563eb"/>
  <circle cx="563.06" cy="299.56" r="2.5" fill="#2563eb"/>
  <circle cx="564.19" cy="299.47" r="2.5" fill="#2563eb"/>
  <circle cx="565.33" cy="299.43" r="2.5" fill="#2563eb"/>
  <circle cx="566.47" cy="299.43" r="2.5" fill="#2563eb"/>
  <circle cx="567.60" cy="299.39" r="2.5" fill="#2563eb"/>
  <circle cx="568.74" cy="299.47" r="2.5" fill="#2563eb"/>
  <circle cx="569.88" cy="259.82" r="2.5" fill="#2563eb"/>
  <circle cx="571.01" cy="338.96" r="2.5" fill="#2563eb"/>
  <circle cx="572.15" cy="299.31" r="2.5" fill="#2563eb"/>
  <circle cx="573.28" cy="299.31" r="2.5" fill="#2563eb"/>
  <circle cx="574.42" cy="299.26" r="2.5" fill="#2563eb"/>
  <circle cx="575.56" cy="299.68" r="2.5" fill="#2563eb"/>
  <circle cx="576.69" cy="299.68" r="2.5" fill="#2563eb"/>
  <circle cx="577.83" cy="299.68" r="2.5" fill="#2563eb"/>
  <circle cx="578.96" cy="299.64" r="2.5" fill="#2563eb"/>
  <circle cx="580.10" cy="299.14" r="2.5" fill="#2563eb"/>
  <circle cx="581.24" cy="299.14" r="2.5" fill="#2563eb"/>
  <circle cx="582.37" cy="299.10" r="2.5" fill="#2563eb"/>
  <circle cx="583.51" cy="299.10" r="2.5" fill="#2563eb"/>
  <circle cx="584.64" cy="299.10" r="2.5" fill="#2563eb"/>
  <circle cx="585.78" cy="248.07" r="2.5" fill="#2563eb"/>
  <circle cx="586.92" cy="299.06" r="2.5" fill="#2563eb"/>
  <circle cx="588.05" cy="299.06" r="2.5" fill="#2563eb"/>
  <circle cx="589.19" cy="299.06" r="2.5" fill="#2563eb"/>
  <circle cx="590.32" cy="299.06" r="2.5" fill="#2563eb"/>
  <circle cx="591.46" cy="299.06" r="2.5" fill="#2563eb"/>
  <circle cx="592.60" cy="298.97" r="2.5" fill="#2563eb"/>
  <circle cx="593.73" cy="298.97" r="2.5" fill="#2563eb"/>
  <circle cx="594.87" cy="298.93" r="2.5" fill="#2563eb"/>
  <circle cx="596.00" cy="298.97" r="2.5" fill="#2563eb"/>
  <circle cx="597.14" cy="298.93" r="2.5" fill="#2563eb"/>
  <circle cx="598.28" cy="298.89" r="2.5" fill="#2563eb"/>
  <circle cx="599.41" cy="298.89" r="2.5" fill="#2563eb"/>
  <circle cx="600.55" cy="298.89" r="2.5" fill="#2563eb"/>
  <circle cx="601.69" cy="298.89" r="2.5" fill="#2563eb"/>
  <circle cx="602.82" cy="247.78" r="2.5" fill="#2563eb"/>
  <circle cx="603.96" cy="298.89" r="2.5" fill="#2563eb"/>
  <circle cx="605.09" cy="298.89" r="2.5" fill="#2563eb"/>
  <circle cx="606.23" cy="298.85" r="2.5" fill="#2563eb"/>
  <circle cx="607.37" cy="298.85" r="2.5" fill="#2563eb"/>
  <circle cx="608.50" cy="298.81" r="2.5" fill="#2563eb"/>
  <circle cx="609.64" cy="298.81" r="2.5" fill="#2563eb"/>
  <circle cx="610.77" cy="298.81" r="2.5" fill="#2563eb"/>
  <circle cx="611.91" cy="298.81" r="2.5" fill="#2563eb"/>
  <circle cx="613.05" cy="298.81" r="2.5" fill="#2563eb"/>
  <circle cx="614.18" cy="298.81" r="2.5" fill="#2563eb"/>
  <circle cx="615.32" cy="298.81" r="2.5" fill="#2563eb"/>
  <circle cx="616.45" cy="298.81" r="2.5" fill="#2563eb"/>
  <circle cx="617.59" cy="298.81" r="2.5" fill="#2563eb"/>
  <circle cx="618.73" cy="298.72" r="2.5" fill="#2563eb"/>
  <circle cx="619.86" cy="247.45" r="2.5" fill="#2563eb"/>
  <circle cx="621.00" cy="247.45" r="2.5" fill="#2563eb"/>
  <circle cx="622.13" cy="298.72" r="2.5" fill="#2563eb"/>
  <circle cx="623.27" cy="298.72" r="2.5" fill="#2563eb"/>
  <circle cx="624.41" cy="298.72" r="2.5" fill="#2563eb"/>
  <circle cx="625.54" cy="298.72" r="2.5" fill="#2563eb"/>
  <circle cx="626.68" cy="298.72" r="2.5" fill="#2563eb"/>
  <circle cx="627.82" cy="298.72" r="2.5" fill="#2563eb"/>
  <circle cx="628.95" cy="247.36" r="2.5" fill="#2563eb"/>
  <circle cx="630.09" cy="298.68" r="2.5" fill="#2563eb"/>
  <circle cx="631.22" cy="247.36" r="2.5" fill="#2563eb"/>
  <circle cx="632.36" cy="247.36" r="2.5" fill="#2563eb"/>
  <circle cx="633.50" cy="247.36" r="2.5" fill="#2563eb"/>
  <circle cx="634.63" cy="298.68" r="2.5" fill="#2563eb"/>
  <circle cx="635.77" cy="298.68" r="2.5" fill="#2563eb"/>
  <circle cx="636.90" cy="298.68" r="2.5" fill="#2563eb"/>
  <circle cx="638.04" cy="298.68" r="2.5" fill="#2563eb"/>
  <circle cx="639.18" cy="298.68" r="2.5" fill="#2563eb"/>
  <circle cx="640.31" cy="341.67" r="2.5" fill="#2563eb"/>
  <circle cx="641.45" cy="307.01" r="2.5" fill="#2563eb"/>
  <circle cx="642.58" cy="298.68" r="2.5" fill="#2563eb"/>
  <circle cx="643.72" cy="298.68" r="2.5" fill="#2563eb"/>
  <circle cx="644.86" cy="298.68" r="2.5" fill="#2563eb"/>
  <circle cx="645.99" cy="247.36" r="2.5" fill="#2563eb"/>
  <circle cx="647.13" cy="298.64" r="2.5" fill="#2563eb"/>
  <circle cx="648.26" cy="247.36" r="2.5" fill="#2563eb"/>
  <circle cx="649.40" cy="247.28" r="2.5" fill="#2563eb"/>
  <circle cx="650.54" cy="247.20" r="2.5" fill="#2563eb"/>
  <circle cx="651.67" cy="298.60" r="2.5" fill="#2563eb"/>
  <circle cx="652.81" cy="298.60" r="2.5" fill="#2563eb"/>
  <circle cx="653.95" cy="247.03" r="2.5" fill="#2563eb"/>
  <circle cx="655.08" cy="298.51" r="2.5" fill="#2563eb"/>
  <circle cx="656.22" cy="298.51" r="2.5" fill="#2563eb"/>
  <circle cx="657.35" cy="298.51" r="2.5" fill="#2563eb"/>
  <circle cx="658.49" cy="298.51" r="2.5" fill="#2563eb"/>
  <circle cx="659.63" cy="298.51" r="2.5" fill="#2563eb"/>
  <circle cx="660.76" cy="298.51" r="2.5" fill="#2563eb"/>
  <circle cx="661.90" cy="298.51" r="2.5" fill="#2563eb"/>
  <circle cx="663.03" cy="298.51" r="2.5" fill="#2563eb"/>
  <circle cx="664.17" cy="298.51" r="2.5" fill="#2563eb"/>
  <circle cx="665.31" cy="298.51" r="2.5" fill="#2563eb"/>
  <circle cx="666.44" cy="298.51" r="2.5" fill="#2563eb"/>
  <circle cx="667.58" cy="298.51" r="2.5" fill="#2563eb"/>
  <circle cx="668.71" cy="298.51" r="2.5" fill="#2563eb"/>
  <circle cx="669.85" cy="298.51" r="2.5" fill="#2563eb"/>
  <circle cx="670.99" cy="298.51" r="2.5" fill="#2563eb"/>
  <circle cx="672.12" cy="298.51" r="2.5" fill="#2563eb"/>
  <circle cx="673.26" cy="298.51" r="2.5" fill="#2563eb"/>
  <circle cx="674.39" cy="298.51" r="2.5" fill="#2563eb"/>
  <circle cx="675.53" cy="298.51" r="2.5" fill="#2563eb"/>
  <circle cx="676.67" cy="298.51" r="2.5" fill="#2563eb"/>
  <circle cx="677.80" cy="298.51" r="2.5" fill="#2563eb"/>
  <circle cx="678.94" cy="298.51" r="2.5" fill="#2563eb"/>
  <circle cx="680.07" cy="298.51" r="2.5" fill="#2563eb"/>
  <circle cx="681.21" cy="298.51" r="2.5" fill="#2563eb"/>
  <circle cx="682.35" cy="298.51" r="2.5" fill="#2563eb"/>
  <circle cx="683.48" cy="298.51" r="2.5" fill="#2563eb"/>
  <circle cx="684.62" cy="298.47" r="2.5" fill="#2563eb"/>
  <circle cx="685.76" cy="298.51" r="2.5" fill="#2563eb"/>
  <circle cx="686.89" cy="298.51" r="2.5" fill="#2563eb"/>
  <circle cx="688.03" cy="298.47" r="2.5" fill="#2563eb"/>
  <circle cx="689.16" cy="298.51" r="2.5" fill="#2563eb"/>
  <circle cx="690.30" cy="298.47" r="2.5" fill="#2563eb"/>
  <circle cx="691.44" cy="298.51" r="2.5" fill="#2563eb"/>
  <circle cx="692.57" cy="298.43" r="2.5" fill="#2563eb"/>
  <circle cx="693.71" cy="298.56" r="2.5" fill="#2563eb"/>
  <circle cx="694.84" cy="298.43" r="2.5" fill="#2563eb"/>
  <circle cx="695.98" cy="298.43" r="2.5" fill="#2563eb"/>
  <circle cx="697.12" cy="298.43" r="2.5" fill="#2563eb"/>
  <circle cx="698.25" cy="298.43" r="2.5" fill="#2563eb"/>
  <circle cx="699.39" cy="298.43" r="2.5" fill="#2563eb"/>
  <circle cx="700.52" cy="298.43" r="2.5" fill="#2563eb"/>
  <circle cx="701.66" cy="298.43" r="2.5" fill="#2563eb"/>
  <circle cx="702.80" cy="298.43" r="2.5" fill="#2563eb"/>
  <circle cx="703.93" cy="298.43" r="2.5" fill="#2563eb"/>
  <circle cx="705.07" cy="298.43" r="2.5" fill="#2563eb"/>
  <circle cx="706.20" cy="298.43" r="2.5" fill="#2563eb"/>
  <circle cx="707.34" cy="298.43" r="2.5" fill="#2563eb"/>
  <circle cx="708.48" cy="298.43" r="2.5" fill="#2563eb"/>
  <circle cx="709.61" cy="298.43" r="2.5" fill="#2563eb"/>
  <circle cx="710.75" cy="298.43" r="2.5" fill="#2563eb"/>
  <circle cx="711.89" cy="298.43" r="2.5" fill="#2563eb"/>
  <circle cx="713.02" cy="298.43" r="2.5" fill="#2563eb"/>
  <circle cx="714.16" cy="298.43" r="2.5" fill="#2563eb"/>
  <circle cx="715.29" cy="298.43" r="2.5" fill="#2563eb"/>
  <circle cx="716.43" cy="298.43" r="2.5" fill="#2563eb"/>
  <circle cx="717.57" cy="298.43" r="2.5" fill="#2563eb"/>
  <circle cx="718.70" cy="298.43" r="2.5" fill="#2563eb"/>
  <circle cx="719.84" cy="298.43" r="2.5" fill="#2563eb"/>
  <circle cx="720.97" cy="298.43" r="2.5" fill="#2563eb"/>
  <circle cx="722.11" cy="298.43" r="2.5" fill="#2563eb"/>
  <circle cx="723.25" cy="298.43" r="2.5" fill="#2563eb"/>
  <circle cx="724.38" cy="298.43" r="2.5" fill="#2563eb"/>
  <circle cx="725.52" cy="298.43" r="2.5" fill="#2563eb"/>
  <circle cx="726.65" cy="298.43" r="2.5" fill="#2563eb"/>
  <circle cx="727.79" cy="298.43" r="2.5" fill="#2563eb"/>
  <circle cx="728.93" cy="298.43" r="2.5" fill="#2563eb"/>
  <circle cx="730.06" cy="298.43" r="2.5" fill="#2563eb"/>
  <circle cx="731.20" cy="298.43" r="2.5" fill="#2563eb"/>
  <circle cx="732.33" cy="298.43" r="2.5" fill="#2563eb"/>
  <circle cx="733.47" cy="298.39" r="2.5" fill="#2563eb"/>
  <circle cx="734.61" cy="298.39" r="2.5" fill="#2563eb"/>
  <circle cx="735.74" cy="298.43" r="2.5" fill="#2563eb"/>
  <circle cx="736.88" cy="298.43" r="2.5" fill="#2563eb"/>
  <circle cx="738.01" cy="298.39" r="2.5" fill="#2563eb"/>
  <circle cx="739.15" cy="298.39" r="2.5" fill="#2563eb"/>
  <circle cx="740.29" cy="298.39" r="2.5" fill="#2563eb"/>
  <circle cx="741.42" cy="298.43" r="2.5" fill="#2563eb"/>
  <circle cx="742.56" cy="298.43" r="2.5" fill="#2563eb"/>
  <circle cx="743.70" cy="298.43" r="2.5" fill="#2563eb"/>
  <circle cx="744.83" cy="246.82" r="2.5" fill="#2563eb"/>
  <circle cx="745.97" cy="298.43" r="2.5" fill="#2563eb"/>
  <circle cx="747.10" cy="246.78" r="2.5" fill="#2563eb"/>
  <circle cx="748.24" cy="246.78" r="2.5" fill="#2563eb"/>
  <circle cx="749.38" cy="246.78" r="2.5" fill="#2563eb"/>
  <circle cx="750.51" cy="246.70" r="2.5" fill="#2563eb"/>
  <circle cx="751.65" cy="246.78" r="2.5" fill="#2563eb"/>
  <circle cx="752.78" cy="298.39" r="2.5" fill="#2563eb"/>
  <circle cx="753.92" cy="298.39" r="2.5" fill="#2563eb"/>
  <circle cx="755.06" cy="298.39" r="2.5" fill="#2563eb"/>
  <circle cx="756.19" cy="298.39" r="2.5" fill="#2563eb"/>
  <circle cx="757.33" cy="298.39" r="2.5" fill="#2563eb"/>
  <circle cx="758.46" cy="246.78" r="2.5" fill="#2563eb"/>
  <circle cx="759.60" cy="298.39" r="2.5" fill="#2563eb"/>
  <circle cx="760.74" cy="298.39" r="2.5" fill="#2563eb"/>
  <circle cx="761.87" cy="298.39" r="2.5" fill="#2563eb"/>
  <circle cx="763.01" cy="298.39" r="2.5" fill="#2563eb"/>
  <circle cx="764.14" cy="298.39" r="2.5" fill="#2563eb"/>
  <circle cx="765.28" cy="246.78" r="2.5" fill="#2563eb"/>
  <circle cx="766.42" cy="246.78" r="2.5" fill="#2563eb"/>
  <circle cx="767.55" cy="298.39" r="2.5" fill="#2563eb"/>
  <circle cx="768.69" cy="298.39" r="2.5" fill="#2563eb"/>
  <circle cx="769.83" cy="298.39" r="2.5" fill="#2563eb"/>
  <circle cx="770.96" cy="298.39" r="2.5" fill="#2563eb"/>
  <circle cx="772.10" cy="298.39" r="2.5" fill="#2563eb"/>
  <circle cx="773.23" cy="298.39" r="2.5" fill="#2563eb"/>
  <circle cx="774.37" cy="298.39" r="2.5" fill="#2563eb"/>
  <circle cx="775.51" cy="298.39" r="2.5" fill="#2563eb"/>
  <circle cx="776.64" cy="298.39" r="2.5" fill="#2563eb"/>
  <circle cx="777.78" cy="298.39" r="2.5" fill="#2563eb"/>
  <circle cx="778.91" cy="298.39" r="2.5" fill="#2563eb"/>
  <circle cx="780.05" cy="298.39" r="2.5" fill="#2563eb"/>
  <circle cx="781.19" cy="298.39" r="2.5" fill="#2563eb"/>
  <circle cx="782.32" cy="298.39" r="2.5" fill="#2563eb"/>
  <circle cx="783.46" cy="298.35" r="2.5" fill="#2563eb"/>
  <circle cx="784.59" cy="298.39" r="2.5" fill="#2563eb"/>
  <circle cx="785.73" cy="298.39" r="2.5" fill="#2563eb"/>
  <circle cx="786.87" cy="298.35" r="2.5" fill="#2563eb"/>
  <circle cx="788.00" cy="298.35" r="2.5" fill="#2563eb"/>
  <circle cx="789.14" cy="298.35" r="2.5" fill="#2563eb"/>
  <circle cx="790.27" cy="298.35" r="2.5" fill="#2563eb"/>
  <circle cx="791.41" cy="298.35" r="2.5" fill="#2563eb"/>
  <circle cx="792.55" cy="298.35" r="2.5" fill="#2563eb"/>
  <circle cx="793.68" cy="298.35" r="2.5" fill="#2563eb"/>
  <circle cx="794.82" cy="298.35" r="2.5" fill="#2563eb"/>
  <circle cx="795.96" cy="298.35" r="2.5" fill="#2563eb"/>
  <circle cx="797.09" cy="298.35" r="2.5" fill="#2563eb"/>
  <circle cx="798.23" cy="298.35" r="2.5" fill="#2563eb"/>
  <circle cx="799.36" cy="298.35" r="2.5" fill="#2563eb"/>
  <circle cx="800.50" cy="298.35" r="2.5" fill="#2563eb"/>
  <circle cx="801.64" cy="298.35" r="2.5" fill="#2563eb"/>
  <circle cx="802.77" cy="298.35" r="2.5" fill="#2563eb"/>
  <circle cx="803.91" cy="298.35" r="2.5" fill="#2563eb"/>
  <circle cx="805.04" cy="298.35" r="2.5" fill="#2563eb"/>
  <circle cx="806.18" cy="298.35" r="2.5" fill="#2563eb"/>
  <circle cx="807.32" cy="298.35" r="2.5" fill="#2563eb"/>
  <circle cx="808.45" cy="298.35" r="2.5" fill="#2563eb"/>
  <circle cx="809.59" cy="298.35" r="2.5" fill="#2563eb"/>
  <circle cx="810.72" cy="298.35" r="2.5" fill="#2563eb"/>
  <circle cx="811.86" cy="298.35" r="2.5" fill="#2563eb"/>
  <circle cx="813.00" cy="298.35" r="2.5" fill="#2563eb"/>
  <circle cx="814.13" cy="298.35" r="2.5" fill="#2563eb"/>
  <circle cx="815.27" cy="298.35" r="2.5" fill="#2563eb"/>
  <circle cx="816.40" cy="298.35" r="2.5" fill="#2563eb"/>
  <circle cx="817.54" cy="298.35" r="2.5" fill="#2563eb"/>
  <circle cx="818.68" cy="298.35" r="2.5" fill="#2563eb"/>
  <circle cx="819.81" cy="298.35" r="2.5" fill="#2563eb"/>
  <circle cx="820.95" cy="298.35" r="2.5" fill="#2563eb"/>
  <circle cx="822.08" cy="298.35" r="2.5" fill="#2563eb"/>
  <circle cx="823.22" cy="298.35" r="2.5" fill="#2563eb"/>
  <circle cx="824.36" cy="298.35" r="2.5" fill="#2563eb"/>
  <circle cx="825.49" cy="298.35" r="2.5" fill="#2563eb"/>
  <circle cx="826.63" cy="298.35" r="2.5" fill="#2563eb"/>
  <circle cx="827.77" cy="298.35" r="2.5" fill="#2563eb"/>
  <circle cx="828.90" cy="298.35" r="2.5" fill="#2563eb"/>
  <circle cx="830.04" cy="298.35" r="2.5" fill="#2563eb"/>
  <circle cx="831.17" cy="298.35" r="2.5" fill="#2563eb"/>
  <circle cx="832.31" cy="298.35" r="2.5" fill="#2563eb"/>
  <circle cx="833.45" cy="298.35" r="2.5" fill="#2563eb"/>
  <circle cx="834.58" cy="298.35" r="2.5" fill="#2563eb"/>
  <circle cx="835.72" cy="298.35" r="2.5" fill="#2563eb"/>
  <circle cx="836.85" cy="298.35" r="2.5" fill="#2563eb"/>
  <circle cx="837.99" cy="298.35" r="2.5" fill="#2563eb"/>
  <circle cx="839.13" cy="298.35" r="2.5" fill="#2563eb"/>
  <circle cx="840.26" cy="298.35" r="2.5" fill="#2563eb"/>
  <circle cx="841.40" cy="298.35" r="2.5" fill="#2563eb"/>
  <circle cx="842.53" cy="298.35" r="2.5" fill="#2563eb"/>
  <circle cx="843.67" cy="298.35" r="2.5" fill="#2563eb"/>
  <circle cx="844.81" cy="298.35" r="2.5" fill="#2563eb"/>
  <circle cx="845.94" cy="298.39" r="2.5" fill="#2563eb"/>
  <circle cx="847.08" cy="298.39" r="2.5" fill="#2563eb"/>
  <circle cx="848.21" cy="298.39" r="2.5" fill="#2563eb"/>
  <circle cx="849.35" cy="246.78" r="2.5" fill="#2563eb"/>
  <circle cx="850.49" cy="298.39" r="2.5" fill="#2563eb"/>
  <circle cx="851.62" cy="298.39" r="2.5" fill="#2563eb"/>
  <circle cx="852.76" cy="298.39" r="2.5" fill="#2563eb"/>
  <circle cx="853.90" cy="298.39" r="2.5" fill="#2563eb"/>
  <circle cx="855.03" cy="298.39" r="2.5" fill="#2563eb"/>
  <circle cx="856.17" cy="298.39" r="2.5" fill="#2563eb"/>
  <circle cx="857.30" cy="298.39" r="2.5" fill="#2563eb"/>
  <circle cx="858.44" cy="246.78" r="2.5" fill="#2563eb"/>
  <circle cx="859.58" cy="298.39" r="2.5" fill="#2563eb"/>
  <circle cx="860.71" cy="298.39" r="2.5" fill="#2563eb"/>
  <circle cx="861.85" cy="298.39" r="2.5" fill="#2563eb"/>
  <circle cx="862.98" cy="298.39" r="2.5" fill="#2563eb"/>
  <circle cx="864.12" cy="298.39" r="2.5" fill="#2563eb"/>
  <circle cx="865.26" cy="298.39" r="2.5" fill="#2563eb"/>
  <circle cx="866.39" cy="298.39" r="2.5" fill="#2563eb"/>
  <circle cx="867.53" cy="246.78" r="2.5" fill="#2563eb"/>
  <circle cx="868.66" cy="298.39" r="2.5" fill="#2563eb"/>
  <circle cx="869.80" cy="298.39" r="2.5" fill="#2563eb"/>
  <circle cx="870.94" cy="298.39" r="2.5" fill="#2563eb"/>
  <circle cx="872.07" cy="298.39" r="2.5" fill="#2563eb"/>
  <circle cx="873.21" cy="298.39" r="2.5" fill="#2563eb"/>
  <circle cx="874.34" cy="298.39" r="2.5" fill="#2563eb"/>
  <circle cx="875.48" cy="298.39" r="2.5" fill="#2563eb"/>
  <circle cx="876.62" cy="298.39" r="2.5" fill="#2563eb"/>
  <circle cx="877.75" cy="298.39" r="2.5" fill="#2563eb"/>
  <circle cx="878.89" cy="298.39" r="2.5" fill="#2563eb"/>
  <circle cx="880.02" cy="298.39" r="2.5" fill="#2563eb"/>
  <circle cx="881.16" cy="298.35" r="2.5" fill="#2563eb"/>
  <circle cx="882.30" cy="298.39" r="2.5" fill="#2563eb"/>
  <circle cx="883.43" cy="298.39" r="2.5" fill="#2563eb"/>
  <circle cx="884.57" cy="298.39" r="2.5" fill="#2563eb"/>
  <circle cx="885.71" cy="298.35" r="2.5" fill="#2563eb"/>
  <circle cx="886.84" cy="298.35" r="2.5" fill="#2563eb"/>
  <circle cx="887.98" cy="298.35" r="2.5" fill="#2563eb"/>
  <circle cx="889.11" cy="298.35" r="2.5" fill="#2563eb"/>
  <circle cx="890.25" cy="298.35" r="2.5" fill="#2563eb"/>
  <circle cx="891.39" cy="298.35" r="2.5" fill="#2563eb"/>
  <circle cx="892.52" cy="298.35" r="2.5" fill="#2563eb"/>
  <circle cx="893.66" cy="298.35" r="2.5" fill="#2563eb"/>
  <circle cx="894.79" cy="298.35" r="2.5" fill="#2563eb"/>
  <circle cx="895.93" cy="298.35" r="2.5" fill="#2563eb"/>
  <circle cx="897.07" cy="298.35" r="2.5" fill="#2563eb"/>
  <circle cx="898.20" cy="298.35" r="2.5" fill="#2563eb"/>
  <circle cx="899.34" cy="298.35" r="2.5" fill="#2563eb"/>
  <circle cx="900.47" cy="298.35" r="2.5" fill="#2563eb"/>
  <circle cx="901.61" cy="298.35" r="2.5" fill="#2563eb"/>
  <circle cx="902.75" cy="298.35" r="2.5" fill="#2563eb"/>
  <circle cx="903.88" cy="298.39" r="2.5" fill="#2563eb"/>
  <circle cx="905.02" cy="298.39" r="2.5" fill="#2563eb"/>
  <circle cx="906.15" cy="298.39" r="2.5" fill="#2563eb"/>
  <circle cx="907.29" cy="298.39" r="2.5" fill="#2563eb"/>
  <circle cx="908.43" cy="298.39" r="2.5" fill="#2563eb"/>
  <circle cx="909.56" cy="298.39" r="2.5" fill="#2563eb"/>
  <circle cx="910.70" cy="298.35" r="2.5" fill="#2563eb"/>
  <circle cx="911.84" cy="298.39" r="2.5" fill="#2563eb"/>
  <circle cx="912.97" cy="298.39" r="2.5" fill="#2563eb"/>
  <circle cx="914.11" cy="298.39" r="2.5" fill="#2563eb"/>
  <circle cx="915.24" cy="298.39" r="2.5" fill="#2563eb"/>
  <circle cx="916.38" cy="298.39" r="2.5" fill="#2563eb"/>
  <circle cx="917.52" cy="298.39" r="2.5" fill="#2563eb"/>
  <circle cx="918.65" cy="298.39" r="2.5" fill="#2563eb"/>
  <circle cx="919.79" cy="298.39" r="2.5" fill="#2563eb"/>
  <circle cx="920.92" cy="298.39" r="2.5" fill="#2563eb"/>
  <circle cx="922.06" cy="298.35" r="2.5" fill="#2563eb"/>
  <circle cx="923.20" cy="298.39" r="2.5" fill="#2563eb"/>
  <circle cx="924.33" cy="298.39" r="2.5" fill="#2563eb"/>
  <circle cx="925.47" cy="298.39" r="2.5" fill="#2563eb"/>
  <circle cx="926.60" cy="298.39" r="2.5" fill="#2563eb"/>
  <circle cx="927.74" cy="298.39" r="2.5" fill="#2563eb"/>
  <circle cx="928.88" cy="298.39" r="2.5" fill="#2563eb"/>
  <circle cx="930.01" cy="298.39" r="2.5" fill="#2563eb"/>
  <circle cx="931.15" cy="298.39" r="2.5" fill="#2563eb"/>
  <circle cx="932.28" cy="298.39" r="2.5" fill="#2563eb"/>
  <circle cx="933.42" cy="298.39" r="2.5" fill="#2563eb"/>
  <circle cx="934.56" cy="298.39" r="2.5" fill="#2563eb"/>
  <circle cx="935.69" cy="298.39" r="2.5" fill="#2563eb"/>
  <circle cx="936.83" cy="298.39" r="2.5" fill="#2563eb"/>
  <circle cx="937.97" cy="298.39" r="2.5" fill="#2563eb"/>
  <circle cx="939.10" cy="298.39" r="2.5" fill="#2563eb"/>
  <circle cx="940.24" cy="298.39" r="2.5" fill="#2563eb"/>
  <circle cx="941.37" cy="298.35" r="2.5" fill="#2563eb"/>
  <circle cx="942.51" cy="298.35" r="2.5" fill="#2563eb"/>
  <circle cx="943.65" cy="298.39" r="2.5" fill="#2563eb"/>
  <circle cx="944.78" cy="298.39" r="2.5" fill="#2563eb"/>
  <circle cx="945.92" cy="298.39" r="2.5" fill="#2563eb"/>
  <circle cx="947.05" cy="298.39" r="2.5" fill="#2563eb"/>
  <circle cx="948.19" cy="298.39" r="2.5" fill="#2563eb"/>
  <circle cx="949.33" cy="298.39" r="2.5" fill="#2563eb"/>
  <circle cx="950.46" cy="298.39" r="2.5" fill="#2563eb"/>
  <circle cx="951.60" cy="298.39" r="2.5" fill="#2563eb"/>
  <circle cx="952.73" cy="298.39" r="2.5" fill="#2563eb"/>
  <circle cx="953.87" cy="298.39" r="2.5" fill="#2563eb"/>
  <circle cx="955.01" cy="298.35" r="2.5" fill="#2563eb"/>
  <circle cx="956.14" cy="298.35" r="2.5" fill="#2563eb"/>
  <circle cx="957.28" cy="298.39" r="2.5" fill="#2563eb"/>
  <circle cx="958.41" cy="298.39" r="2.5" fill="#2563eb"/>
  <circle cx="959.55" cy="298.39" r="2.5" fill="#2563eb"/>
  <circle cx="960.69" cy="298.39" r="2.5" fill="#2563eb"/>
  <circle cx="961.82" cy="298.39" r="2.5" fill="#2563eb"/>
  <circle cx="962.96" cy="298.39" r="2.5" fill="#2563eb"/>
  <circle cx="964.09" cy="298.39" r="2.5" fill="#2563eb"/>
  <circle cx="965.23" cy="298.39" r="2.5" fill="#2563eb"/>
  <circle cx="966.37" cy="298.39" r="2.5" fill="#2563eb"/>
  <circle cx="967.50" cy="298.39" r="2.5" fill="#2563eb"/>
  <circle cx="968.64" cy="298.39" r="2.5" fill="#2563eb"/>
  <circle cx="969.78" cy="298.39" r="2.5" fill="#2563eb"/>
  <circle cx="970.91" cy="298.39" r="2.5" fill="#2563eb"/>
  <circle cx="972.05" cy="298.39" r="2.5" fill="#2563eb"/>
  <circle cx="973.18" cy="298.35" r="2.5" fill="#2563eb"/>
  <circle cx="974.32" cy="298.39" r="2.5" fill="#2563eb"/>
  <circle cx="975.46" cy="298.39" r="2.5" fill="#2563eb"/>
  <circle cx="976.59" cy="298.39" r="2.5" fill="#2563eb"/>
  <circle cx="977.73" cy="298.39" r="2.5" fill="#2563eb"/>
  <circle cx="978.86" cy="298.39" r="2.5" fill="#2563eb"/>
  <circle cx="980.00" cy="298.39" r="2.5" fill="#2563eb"/>
</svg>
