<?xml version="1.0" encoding="UTF-8"?>
<svg xmlns="http://www.w3.org/2000/svg" width="1000" height="420" viewBox="0 0 1000 420">
  <rect width="100%" height="100%" fill="#ffffff"/>
  <text x="70" y="28" font-size="20" font-weight="600">수집 시점 기준 - 시간별 스냅샷</text>
  <text x="70" y="402" font-size="12" fill="#555">스냅샷 수</text>
  <line x1="70" y1="350.00" x2="980" y2="350.00" stroke="#e5e7eb" stroke-width="1"/>
  <text x="62" y="354.00" font-size="11" fill="#6b7280" text-anchor="end">0</text>
  <line x1="70" y1="290.00" x2="980" y2="290.00" stroke="#e5e7eb" stroke-width="1"/>
  <text x="62" y="294.00" font-size="11" fill="#6b7280" text-anchor="end">1,440</text>
  <line x1="70" y1="230.00" x2="980" y2="230.00" stroke="#e5e7eb" stroke-width="1"/>
  <text x="62" y="234.00" font-size="11" fill="#6b7280" text-anchor="end">2,880</text>
  <line x1="70" y1="170.00" x2="980" y2="170.00" stroke="#e5e7eb" stroke-width="1"/>
  <text x="62" y="174.00" font-size="11" fill="#6b7280" text-anchor="end">4,321</text>
  <line x1="70" y1="110.00" x2="980" y2="110.00" stroke="#e5e7eb" stroke-width="1"/>
  <text x="62" y="114.00" font-size="11" fill="#6b7280" text-anchor="end">5,761</text>
  <line x1="70" y1="50.00" x2="980" y2="50.00" stroke="#e5e7eb" stroke-width="1"/>
  <text x="62" y="54.00" font-size="11" fill="#6b7280" text-anchor="end">7,202</text>
  <line x1="70" y1="350" x2="980" y2="350" stroke="#111827" stroke-width="1.2"/>
  <line x1="70" y1="50" x2="70" y2="350" stroke="#111827" stroke-width="1.2"/>
  <line x1="70.00" y1="350" x2="70.00" y2="356" stroke="#9ca3af" stroke-width="1"/>
  <text x="70.00" y="372" font-size="10" fill="#6b7280" text-anchor="middle">2026-02-28 18</text>
  <line x1="144.90" y1="350" x2="144.90" y2="356" stroke="#9ca3af" stroke-width="1"/>
  <text x="144.90" y="372" font-size="10" fill="#6b7280" text-anchor="middle">2026-03-10 00</text>
  <line x1="219.80" y1="350" x2="219.80" y2="356" stroke="#9ca3af" stroke-width="1"/>
  <text x="219.80" y="372" font-size="10" fill="#6b7280" text-anchor="middle">2026-03-13 01</text>
  <line x1="294.71" y1="350" x2="294.71" y2="356" stroke="#9ca3af" stroke-width="1"/>
  <text x="294.71" y="372" font-size="10" fill="#6b7280" text-anchor="middle">2026-03-16 18</text>
  <line x1="369.61" y1="350" x2="369.61" y2="356" stroke="#9ca3af" stroke-width="1"/>
  <text x="369.61" y="372" font-size="10" fill="#6b7280" text-anchor="middle">2026-03-21 02</text>
  <line x1="444.51" y1="350" x2="444.51" y2="356" stroke="#9ca3af" stroke-width="1"/>
  <text x="444.51" y="372" font-size="10" fill="#6b7280" text-anchor="middle">2026-03-25 04</text>
  <line x1="519.41" y1="350" x2="519.41" y2="356" stroke="#9ca3af" stroke-width="1"/>
  <text x="519.41" y="372" font-size="10" fill="#6b7280" text-anchor="middle">2026-03-29 18</text>
  <line x1="594.31" y1="350" x2="594.31" y2="356" stroke="#9ca3af" stroke-width="1"/>
  <text x="594.31" y="372" font-size="10" fill="#6b7280" text-anchor="middle">2026-04-03 08</text>
  <line x1="669.21" y1="350" x2="669.21" y2="356" stroke="#9ca3af" stroke-width="1"/>
  <text x="669.21" y="372" font-size="10" fill="#6b7280" text-anchor="middle">2026-04-07 21</text>
  <line x1="744.12" y1="350" x2="744.12" y2="356" stroke="#9ca3af" stroke-width="1"/>
  <text x="744.12" y="372" font-size="10" fill="#6b7280" text-anchor="middle">2026-04-12 16</text>
  <line x1="819.02" y1="350" x2="819.02" y2="356" stroke="#9ca3af" stroke-width="1"/>
  <text x="819.02" y="372" font-size="10" fill="#6b7280" text-anchor="middle">2026-04-17 18</text>
  <line x1="893.92" y1="350" x2="893.92" y2="356" stroke="#9ca3af" stroke-width="1"/>
  <text x="893.92" y="372" font-size="10" fill="#6b7280" text-anchor="middle">2026-04-22 07</text>
  <line x1="968.82" y1="350" x2="968.82" y2="356" stroke="#9ca3af" stroke-width="1"/>
  <text x="968.82" y="372" font-size="10" fill="#6b7280" text-anchor="middle">2026-04-27 00</text>
  <line x1="980.00" y1="350" x2="980.00" y2="356" stroke="#9ca3af" stroke-width="1"/>
  <text x="980.00" y="372" font-size="10" fill="#6b7280" text-anchor="middle">2026-04-27 13</text>
  <polyline fill="none" stroke="#2563eb" stroke-width="2.5" points="70.00,50.00 71.12,50.12 72.24,50.17 73.35,50.46 74.47,50.00 75.59,266.90 76.71,50.12 77.83,50.08 78.94,177.46 80.06,211.58 81.18,175.34 82.30,304.14 83.42,200.46 84.53,250.94 85.65,300.01 86.77,300.06 87.89,300.01 89.00,300.01 90.12,348.00 91.24,300.01 92.36,249.99 93.48,200.00 94.59,249.99 95.71,249.99 96.83,250.03 97.95,250.03 99.07,250.03 100.18,250.40 101.30,250.90 102.42,250.90 103.54,251.32 104.66,249.94 105.77,300.01 106.89,299.93 108.01,251.03 109.13,300.68 110.25,250.03 111.36,200.00 112.48,249.99 113.60,250.03 114.72,250.03 115.84,250.03 116.95,300.01 118.07,200.04 119.19,250.03 120.31,250.03 121.43,250.03 122.54,249.90 123.66,250.03 124.78,250.03 125.90,250.94 127.01,250.44 128.13,250.03 129.25,250.03 130.37,300.47 131.49,300.01 132.60,300.43 133.72,250.03 134.84,249.99 135.96,300.43 137.08,249.90 138.19,249.99 139.31,249.99 140.43,200.04 141.55,300.01 142.67,300.01 143.78,300.01 144.90,249.90 146.02,300.01 147.14,250.03 148.26,249.99 149.37,199.96 150.49,300.01 151.61,200.00 152.73,250.36 153.85,250.03 154.96,300.01 156.08,300.01 157.20,250.44 158.32,300.01 159.43,250.03 160.55,250.03 161.67,249.99 162.79,250.49 163.91,250.03 165.02,200.04 166.14,300.01 167.26,250.03 168.38,300.01 169.50,250.11 170.61,300.01 171.73,250.03 172.85,250.03 173.97,199.92 175.09,250.03 176.20,250.03 177.32,250.03 178.44,254.36 179.56,300.01 180.68,299.97 181.79,250.36 182.91,299.97 184.03,250.03 185.15,250.03 186.27,250.03 187.38,250.03 188.50,249.99 189.62,200.00 190.74,299.93 191.86,300.01 192.97,299.97 194.09,249.94 195.21,249.99 196.33,249.82 197.44,249.94 198.56,250.28 199.68,207.00 200.80,250.03 201.92,250.32 203.03,250.40 204.15,300.93 205.27,300.01 206.39,300.10 207.51,249.94 208.62,249.99 209.74,250.07 210.86,249.99 211.98,250.03 213.10,249.94 214.21,200.00 215.33,300.39 216.45,300.01 217.57,300.01 218.69,250.44 219.80,300.39 220.92,249.86 222.04,250.11 223.16,201.46 224.28,300.01 225.39,200.83 226.51,250.03 227.63,249.99 228.75,300.26 229.86,300.01 230.98,300.01 232.10,250.03 233.22,250.03 234.34,250.03 235.45,250.03 236.57,249.99 237.69,250.03 238.81,200.00 239.93,300.26 241.04,249.99 242.16,300.01 243.28,249.94 244.40,250.03 245.52,250.03 246.63,250.03 247.75,200.04 248.87,300.01 249.99,249.90 251.11,300.01 252.22,300.01 253.34,300.06 254.46,300.01 255.58,300.01 256.70,243.95 257.81,249.94 258.93,299.97 260.05,300.01 261.17,300.01 262.29,250.03 263.40,300.01 264.52,300.01 265.64,299.97 266.76,249.99 267.87,300.01 268.99,299.93 270.11,300.01 271.23,299.93 272.35,300.01 273.46,300.01 274.58,299.89 275.70,299.97 276.82,250.03 277.94,299.93 279.05,299.89 280.17,299.97 281.29,249.94 282.41,300.01 283.53,300.01 284.64,299.97 285.76,249.99 286.88,299.97 288.00,299.97 289.12,300.06 290.23,300.06 291.35,299.93 292.47,300.01 293.59,300.01 294.71,299.93 295.82,300.01 296.94,300.01 298.06,299.97 299.18,300.01 300.29,300.01 301.41,300.01 302.53,300.01 303.65,249.86 304.77,300.01 305.88,300.10 307.00,299.93 308.12,300.01 309.24,299.93 310.36,300.01 311.47,300.01 312.59,300.01 313.71,300.01 314.83,300.01 315.95,299.97 317.06,300.01 318.18,300.01 319.30,300.01 320.42,300.01 321.54,250.03 322.65,300.01 323.77,300.01 324.89,299.97 326.01,300.01 327.13,300.01 328.24,299.97 329.36,299.97 330.48,300.01 331.60,299.97 332.71,300.01 333.83,299.93 334.95,300.01 336.07,250.03 337.19,300.01 338.30,300.01 339.42,300.01 340.54,300.01 341.66,300.01 342.78,299.89 343.89,300.01 345.01,300.01 346.13,250.07 347.25,300.01 348.37,299.93 349.48,300.01 350.60,299.97 351.72,299.97 352.84,299.97 353.96,250.03 355.07,300.01 356.19,300.01 357.31,300.01 358.43,300.01 359.55,299.97 360.66,300.01 361.78,299.97 362.90,300.01 364.02,299.97 365.14,249.90 366.25,300.01 367.37,300.01 368.49,299.89 369.61,299.97 370.72,299.97 371.84,249.99 372.96,299.97 374.08,299.89 375.20,300.01 376.31,299.97 377.43,299.97 378.55,300.01 379.67,299.97 380.79,249.99 381.90,299.97 383.02,299.97 384.14,300.06 385.26,300.06 386.38,249.94 387.49,300.01 388.61,299.93 389.73,300.01 390.85,300.01 391.97,249.99 393.08,300.01 394.20,300.01 395.32,300.01 396.44,299.93 397.56,299.93 398.67,300.01 399.79,300.01 400.91,249.94 402.03,299.97 403.14,299.97 404.26,300.01 405.38,300.01 406.50,300.01 407.62,249.99 408.73,300.01 409.85,300.01 410.97,300.01 412.09,250.03 413.21,300.01 414.32,300.01 415.44,300.01 416.56,299.97 417.68,300.01 418.80,300.01 419.91,299.97 421.03,299.97 422.15,300.01 423.27,300.01 424.39,299.97 425.50,299.93 426.62,300.01 427.74,300.06 428.86,299.97 429.98,300.01 431.09,250.03 432.21,250.03 433.33,299.93 434.45,299.97 435.57,300.01 436.68,300.01 437.80,300.06 438.92,300.01 440.04,299.93 441.15,300.01 442.27,300.01 443.39,299.97 444.51,299.97 445.63,300.01 446.74,250.03 447.86,300.01 448.98,300.01 450.10,300.01 451.22,299.97 452.33,300.01 453.45,299.97 454.57,300.01 455.69,299.97 456.81,299.97 457.92,299.93 459.04,300.01 460.16,300.01 461.28,299.89 462.40,299.97 463.51,299.97 464.63,300.06 465.75,249.90 466.87,299.89 467.99,300.01 469.10,299.97 470.22,299.97 471.34,299.97 472.46,300.01 473.57,300.01 474.69,299.97 475.81,299.97 476.93,299.97 478.05,250.03 479.16,299.93 480.28,300.01 481.40,300.01 482.52,299.93 483.64,300.01 484.75,300.01 485.87,299.97 486.99,300.01 488.11,300.01 489.23,300.06 490.34,300.01 491.46,299.97 492.58,299.89 493.70,300.01 494.82,300.01 495.93,249.94 497.05,249.94 498.17,300.01 499.29,300.01 500.41,300.01 501.52,300.01 502.64,299.97 503.76,250.03 504.88,300.01 506.00,300.01 507.11,300.01 508.23,300.01 509.35,250.03 510.47,249.99 511.58,300.01 512.70,299.97 513.82,300.01 514.94,299.97 516.06,300.01 517.17,299.97 518.29,299.97 519.41,299.97 520.53,300.06 521.65,249.99 522.76,300.01 523.88,250.03 525.00,249.94 526.12,249.99 527.24,300.01 528.35,300.06 529.47,300.01 530.59,299.97 531.71,299.97 532.83,300.01 533.94,299.93 535.06,299.89 536.18,299.89 537.30,299.89 538.42,299.89 539.53,299.85 540.65,299.85 541.77,299.89 542.89,299.81 544.00,299.81 545.12,299.81 546.24,299.76 547.36,299.76 548.48,299.76 549.59,299.72 550.71,299.68 551.83,299.60 552.95,299.60 554.07,299.60 555.18,299.56 556.30,299.47 557.42,299.43 558.54,299.43 559.66,299.39 560.77,299.47 561.89,259.82 563.01,338.96 564.13,299.31 565.25,299.31 566.36,299.26 567.48,299.68 568.60,299.68 569.72,299.68 570.84,299.64 571.95,299.14 573.07,299.14 574.19,299.10 575.31,299.10 576.43,299.10 577.54,248.07 578.66,299.06 579.78,299.06 580.90,299.06 582.01,299.06 583.13,299.06 584.25,298.97 585.37,298.97 586.49,298.93 587.60,298.97 588.72,298.93 589.84,298.89 590.96,298.89 592.08,298.89 593.19,298.89 594.31,247.78 595.43,298.89 596.55,298.89 597.67,298.85 598.78,298.85 599.90,298.81 601.02,298.81 602.14,298.81 603.26,298.81 604.37,298.81 605.49,298.81 606.61,298.81 607.73,298.81 608.85,298.81 609.96,298.72 611.08,247.45 612.20,247.45 613.32,298.72 614.43,298.72 615.55,298.72 616.67,298.72 617.79,298.72 618.91,298.72 620.02,247.36 621.14,298.68 622.26,247.36 623.38,247.36 624.50,247.36 625.61,298.68 626.73,298.68 627.85,298.68 628.97,298.68 630.09,298.68 631.20,341.67 632.32,307.01 633.44,298.68 634.56,298.68 635.68,298.68 636.79,247.36 637.91,298.64 639.03,247.36 640.15,247.28 641.27,247.20 642.38,298.60 643.50,298.60 644.62,247.03 645.74,298.51 646.86,298.51 647.97,298.51 649.09,298.51 650.21,298.51 651.33,298.51 652.44,298.51 653.56,298.51 654.68,298.51 655.80,298.51 656.92,298.51 658.03,298.51 659.15,298.51 660.27,298.51 661.39,298.51 662.51,298.51 663.62,298.51 664.74,298.51 665.86,298.51 666.98,298.51 668.10,298.51 669.21,298.51 670.33,298.51 671.45,298.51 672.57,298.51 673.69,298.51 674.80,298.47 675.92,298.51 677.04,298.51 678.16,298.47 679.28,298.51 680.39,298.47 681.51,298.51 682.63,298.43 683.75,298.56 684.86,298.43 685.98,298.43 687.10,298.43 688.22,298.43 689.34,298.43 690.45,298.43 691.57,298.43 692.69,298.43 693.81,298.43 694.93,298.43 696.04,298.43 697.16,298.43 698.28,298.43 699.40,298.43 700.52,298.43 701.63,298.43 702.75,298.43 703.87,298.43 704.99,298.43 706.11,298.43 707.22,298.43 708.34,298.43 709.46,298.43 710.58,298.43 711.70,298.43 712.81,298.43 713.93,298.43 715.05,298.43 716.17,298.43 717.29,298.43 718.40,298.43 719.52,298.43 720.64,298.43 721.76,298.43 722.87,298.39 723.99,298.39 725.11,298.43 726.23,298.43 727.35,298.39 728.46,298.39 729.58,298.39 730.70,298.43 731.82,298.43 732.94,298.43 734.05,246.82 735.17,298.43 736.29,246.78 737.41,246.78 738.53,246.78 739.64,246.70 740.76,246.78 741.88,298.39 743.00,298.39 744.12,298.39 745.23,298.39 746.35,298.39 747.47,246.78 748.59,298.39 749.71,298.39 750.82,298.39 751.94,298.39 753.06,298.39 754.18,246.78 755.29,246.78 756.41,298.39 757.53,298.39 758.65,298.39 759.77,298.39 760.88,298.39 762.00,298.39 763.12,298.39 764.24,298.39 765.36,298.39 766.47,298.39 767.59,298.39 768.71,298.39 769.83,298.39 770.95,298.39 772.06,298.35 773.18,298.39 774.30,298.39 775.42,298.35 776.54,298.35 777.65,298.35 778.77,298.35 779.89,298.35 781.01,298.35 782.13,298.35 783.24,298.35 784.36,298.35 785.48,298.35 786.60,298.35 787.71,298.35 788.83,298.35 789.95,298.35 791.07,298.35 792.19,298.35 793.30,298.35 794.42,298.35 795.54,298.35 796.66,298.35 797.78,298.35 798.89,298.35 800.01,298.35 801.13,298.35 802.25,298.35 803.37,298.35 804.48,298.35 805.60,298.35 806.72,298.35 807.84,298.35 808.96,298.35 810.07,298.35 811.19,298.35 812.31,298.35 813.43,298.35 814.55,298.35 815.66,298.35 816.78,298.35 817.90,298.35 819.02,298.35 820.14,298.35 821.25,298.35 822.37,298.35 823.49,298.35 824.61,298.35 825.72,298.35 826.84,298.35 827.96,298.35 829.08,298.35 830.20,298.35 831.31,298.35 832.43,298.35 833.55,298.39 834.67,298.39 835.79,298.39 836.90,246.78 838.02,298.39 839.14,298.39 840.26,298.39 841.38,298.39 842.49,298.39 843.61,298.39 844.73,298.39 845.85,246.78 846.97,298.39 848.08,298.39 849.20,298.39 850.32,298.39 851.44,298.39 852.56,298.39 853.67,298.39 854.79,246.78 855.91,298.39 857.03,298.39 858.14,298.39 859.26,298.39 860.38,298.39 861.50,298.39 862.62,298.39 863.73,298.39 864.85,298.39 865.97,298.39 867.09,298.39 868.21,298.35 869.32,298.39 870.44,298.39 871.56,298.39 872.68,298.35 873.80,298.35 874.91,298.35 876.03,298.35 877.15,298.35 878.27,298.35 879.39,298.35 880.50,298.35 881.62,298.35 882.74,298.35 883.86,298.35 884.98,298.35 886.09,298.35 887.21,298.35 888.33,298.35 889.45,298.35 890.57,298.39 891.68,298.39 892.80,298.39 893.92,298.39 895.04,298.39 896.15,298.39 897.27,298.35 898.39,298.39 899.51,298.39 900.63,298.39 901.74,298.39 902.86,298.39 903.98,298.39 905.10,298.39 906.22,298.39 907.33,298.39 908.45,298.35 909.57,298.39 910.69,298.39 911.81,298.39 912.92,298.39 914.04,298.39 915.16,298.39 916.28,298.39 917.40,298.39 918.51,298.39 919.63,298.39 920.75,298.39 921.87,298.39 922.99,298.39 924.10,298.39 925.22,298.39 926.34,298.39 927.46,298.35 928.57,298.35 929.69,298.39 930.81,298.39 931.93,298.39 933.05,298.39 934.16,298.39 935.28,298.39 936.40,298.39 937.52,298.39 938.64,298.39 939.75,298.39 940.87,298.35 941.99,298.35 943.11,298.39 944.23,298.39 945.34,298.39 946.46,298.39 947.58,298.39 948.70,298.39 949.82,298.39 950.93,298.39 952.05,298.39 953.17,298.39 954.29,298.39 955.41,298.39 956.52,298.39 957.64,298.39 958.76,298.35 959.88,298.39 961.00,298.39 962.11,298.39 963.23,298.39 964.35,298.39 965.47,298.39 966.58,298.39 967.70,298.39 968.82,298.35 969.94,298.35 971.06,298.39 972.17,298.35 973.29,298.39 974.41,298.39 975.53,298.39 976.65,298.39 977.76,298.39 978.88,298.35 980.00,298.39"/>
  <circle cx="70.00" cy="50.00" r="2.5" fill="#2563eb"/>
  <circle cx="71.12" cy="50.12" r="2.5" fill="#2563eb"/>
  <circle cx="72.24" cy="50.17" r="2.5" fill="#2563eb"/>
  <circle cx="73.35" cy="50.46" r="2.5" fill="#2563eb"/>
  <circle cx="74.47" cy="50.00" r="2.5" fill="#2563eb"/>
  <circle cx="75.59" cy="266.90" r="2.5" fill="#2563eb"/>
  <circle cx="76.71" cy="50.12" r="2.5" fill="#2563eb"/>
  <circle cx="77.83" cy="50.08" r="2.5" fill="#2563eb"/>
  <circle cx="78.94" cy="177.46" r="2.5" fill="#2563eb"/>
  <circle cx="80.06" cy="211.58" r="2.5" fill="#2563eb"/>
  <circle cx="81.18" cy="175.34" r="2.5" fill="#2563eb"/>
  <circle cx="82.30" cy="304.14" r="2.5" fill="#2563eb"/>
  <circle cx="83.42" cy="200.46" r="2.5" fill="#2563eb"/>
  <circle cx="84.53" cy="250.94" r="2.5" fill="#2563eb"/>
  <circle cx="85.65" cy="300.01" r="2.5" fill="#2563eb"/>
  <circle cx="86.77" cy="300.06" r="2.5" fill="#2563eb"/>
  <circle cx="87.89" cy="300.01" r="2.5" fill="#2563eb"/>
  <circle cx="89.00" cy="300.01" r="2.5" fill="#2563eb"/>
  <circle cx="90.12" cy="348.00" r="2.5" fill="#2563eb"/>
  <circle cx="91.24" cy="300.01" r="2.5" fill="#2563eb"/>
  <circle cx="92.36" cy="249.99" r="2.5" fill="#2563eb"/>
  <circle cx="93.48" cy="200.00" r="2.5" fill="#2563eb"/>
  <circle cx="94.59" cy="249.99" r="2.5" fill="#2563eb"/>
  <circle cx="95.71" cy="249.99" r="2.5" fill="#2563eb"/>
  <circle cx="96.83" cy="250.03" r="2.5" fill="#2563eb"/>
  <circle cx="97.95" cy="250.03" r="2.5" fill="#2563eb"/>
  <circle cx="99.07" cy="250.03" r="2.5" fill="#2563eb"/>
  <circle cx="100.18" cy="250.40" r="2.5" fill="#2563eb"/>
  <circle cx="101.30" cy="250.90" r="2.5" fill="#2563eb"/>
  <circle cx="102.42" cy="250.90" r="2.5" fill="#2563eb"/>
  <circle cx="103.54" cy="251.32" r="2.5" fill="#2563eb"/>
  <circle cx="104.66" cy="249.94" r="2.5" fill="#2563eb"/>
  <circle cx="105.77" cy="300.01" r="2.5" fill="#2563eb"/>
  <circle cx="106.89" cy="299.93" r="2.5" fill="#2563eb"/>
  <circle cx="108.01" cy="251.03" r="2.5" fill="#2563eb"/>
  <circle cx="109.13" cy="300.68" r="2.5" fill="#2563eb"/>
  <circle cx="110.25" cy="250.03" r="2.5" fill="#2563eb"/>
  <circle cx="111.36" cy="200.00" r="2.5" fill="#2563eb"/>
  <circle cx="112.48" cy="249.99" r="2.5" fill="#2563eb"/>
  <circle cx="113.60" cy="250.03" r="2.5" fill="#2563eb"/>
  <circle cx="114.72" cy="250.03" r="2.5" fill="#2563eb"/>
  <circle cx="115.84" cy="250.03" r="2.5" fill="#2563eb"/>
  <circle cx="116.95" cy="300.01" r="2.5" fill="#2563eb"/>
  <circle cx="118.07" cy="200.04" r="2.5" fill="#2563eb"/>
  <circle cx="119.19" cy="250.03" r="2.5" fill="#2563eb"/>
  <circle cx="120.31" cy="250.03" r="2.5" fill="#2563eb"/>
  <circle cx="121.43" cy="250.03" r="2.5" fill="#2563eb"/>
  <circle cx="122.54" cy="249.90" r="2.5" fill="#2563eb"/>
  <circle cx="123.66" cy="250.03" r="2.5" fill="#2563eb"/>
  <circle cx="124.78" cy="250.03" r="2.5" fill="#2563eb"/>
  <circle cx="125.90" cy="250.94" r="2.5" fill="#2563eb"/>
  <circle cx="127.01" cy="250.44" r="2.5" fill="#2563eb"/>
  <circle cx="128.13" cy="250.03" r="2.5" fill="#2563eb"/>
  <circle cx="129.25" cy="250.03" r="2.5" fill="#2563eb"/>
  <circle cx="130.37" cy="300.47" r="2.5" fill="#2563eb"/>
  <circle cx="131.49" cy="300.01" r="2.5" fill="#2563eb"/>
  <circle cx="132.60" cy="300.43" r="2.5" fill="#2563eb"/>
  <circle cx="133.72" cy="250.03" r="2.5" fill="#2563eb"/>
  <circle cx="134.84" cy="249.99" r="2.5" fill="#2563eb"/>
  <circle cx="135.96" cy="300.43" r="2.5" fill="#2563eb"/>
  <circle cx="137.08" cy="249.90" r="2.5" fill="#2563eb"/>
  <circle cx="138.19" cy="249.99" r="2.5" fill="#2563eb"/>
  <circle cx="139.31" cy="249.99" r="2.5" fill="#2563eb"/>
  <circle cx="140.43" cy="200.04" r="2.5" fill="#2563eb"/>
  <circle cx="141.55" cy="300.01" r="2.5" fill="#2563eb"/>
  <circle cx="142.67" cy="300.01" r="2.5" fill="#2563eb"/>
  <circle cx="143.78" cy="300.01" r="2.5" fill="#2563eb"/>
  <circle cx="144.90" cy="249.90" r="2.5" fill="#2563eb"/>
  <circle cx="146.02" cy="300.01" r="2.5" fill="#2563eb"/>
  <circle cx="147.14" cy="250.03" r="2.5" fill="#2563eb"/>
  <circle cx="148.26" cy="249.99" r="2.5" fill="#2563eb"/>
  <circle cx="149.37" cy="199.96" r="2.5" fill="#2563eb"/>
  <circle cx="150.49" cy="300.01" r="2.5" fill="#2563eb"/>
  <circle cx="151.61" cy="200.00" r="2.5" fill="#2563eb"/>
  <circle cx="152.73" cy="250.36" r="2.5" fill="#2563eb"/>
  <circle cx="153.85" cy="250.03" r="2.5" fill="#2563eb"/>
  <circle cx="154.96" cy="300.01" r="2.5" fill="#2563eb"/>
  <circle cx="156.08" cy="300.01" r="2.5" fill="#2563eb"/>
  <circle cx="157.20" cy="250.44" r="2.5" fill="#2563eb"/>
  <circle cx="158.32" cy="300.01" r="2.5" fill="#2563eb"/>
  <circle cx="159.43" cy="250.03" r="2.5" fill="#2563eb"/>
  <circle cx="160.55" cy="250.03" r="2.5" fill="#2563eb"/>
  <circle cx="161.67" cy="249.99" r="2.5" fill="#2563eb"/>
  <circle cx="162.79" cy="250.49" r="2.5" fill="#2563eb"/>
  <circle cx="163.91" cy="250.03" r="2.5" fill="#2563eb"/>
  <circle cx="165.02" cy="200.04" r="2.5" fill="#2563eb"/>
  <circle cx="166.14" cy="300.01" r="2.5" fill="#2563eb"/>
  <circle cx="167.26" cy="250.03" r="2.5" fill="#2563eb"/>
  <circle cx="168.38" cy="300.01" r="2.5" fill="#2563eb"/>
  <circle cx="169.50" cy="250.11" r="2.5" fill="#2563eb"/>
  <circle cx="170.61" cy="300.01" r="2.5" fill="#2563eb"/>
  <circle cx="171.73" cy="250.03" r="2.5" fill="#2563eb"/>
  <circle cx="172.85" cy="250.03" r="2.5" fill="#2563eb"/>
  <circle cx="173.97" cy="199.92" r="2.5" fill="#2563eb"/>
  <circle cx="175.09" cy="250.03" r="2.5" fill="#2563eb"/>
  <circle cx="176.20" cy="250.03" r="2.5" fill="#2563eb"/>
  <circle cx="177.32" cy="250.03" r="2.5" fill="#2563eb"/>
  <circle cx="178.44" cy="254.36" r="2.5" fill="#2563eb"/>
  <circle cx="179.56" cy="300.01" r="2.5" fill="#2563eb"/>
  <circle cx="180.68" cy="299.97" r="2.5" fill="#2563eb"/>
  <circle cx="181.79" cy="250.36" r="2.5" fill="#2563eb"/>
  <circle cx="182.91" cy="299.97" r="2.5" fill="#2563eb"/>
  <circle cx="184.03" cy="250.03" r="2.5" fill="#2563eb"/>
  <circle cx="185.15" cy="250.03" r="2.5" fill="#2563eb"/>
  <circle cx="186.27" cy="250.03" r="2.5" fill="#2563eb"/>
  <circle cx="187.38" cy="250.03" r="2.5" fill="#2563eb"/>
  <circle cx="188.50" cy="249.99" r="2.5" fill="#2563eb"/>
  <circle cx="189.62" cy="200.00" r="2.5" fill="#2563eb"/>
  <circle cx="190.74" cy="299.93" r="2.5" fill="#2563eb"/>
  <circle cx="191.86" cy="300.01" r="2.5" fill="#2563eb"/>
  <circle cx="192.97" cy="299.97" r="2.5" fill="#2563eb"/>
  <circle cx="194.09" cy="249.94" r="2.5" fill="#2563eb"/>
  <circle cx="195.21" cy="249.99" r="2.5" fill="#2563eb"/>
  <circle cx="196.33" cy="249.82" r="2.5" fill="#2563eb"/>
  <circle cx="197.44" cy="249.94" r="2.5" fill="#2563eb"/>
  <circle cx="198.56" cy="250.28" r="2.5" fill="#2563eb"/>
  <circle cx="199.68" cy="207.00" r="2.5" fill="#2563eb"/>
  <circle cx="200.80" cy="250.03" r="2.5" fill="#2563eb"/>
  <circle cx="201.92" cy="250.32" r="2.5" fill="#2563eb"/>
  <circle cx="203.03" cy="250.40" r="2.5" fill="#2563eb"/>
  <circle cx="204.15" cy="300.93" r="2.5" fill="#2563eb"/>
  <circle cx="205.27" cy="300.01" r="2.5" fill="#2563eb"/>
  <circle cx="206.39" cy="300.10" r="2.5" fill="#2563eb"/>
  <circle cx="207.51" cy="249.94" r="2.5" fill="#2563eb"/>
  <circle cx="208.62" cy="249.99" r="2.5" fill="#2563eb"/>
  <circle cx="209.74" cy="250.07" r="2.5" fill="#2563eb"/>
  <circle cx="210.86" cy="249.99" r="2.5" fill="#2563eb"/>
  <circle cx="211.98" cy="250.03" r="2.5" fill="#2563eb"/>
  <circle cx="213.10" cy="249.94" r="2.5" fill="#2563eb"/>
  <circle cx="214.21" cy="200.00" r="2.5" fill="#2563eb"/>
  <circle cx="215.33" cy="300.39" r="2.5" fill="#2563eb"/>
  <circle cx="216.45" cy="300.01" r="2.5" fill="#2563eb"/>
  <circle cx="217.57" cy="300.01" r="2.5" fill="#2563eb"/>
  <circle cx="218.69" cy="250.44" r="2.5" fill="#2563eb"/>
  <circle cx="219.80" cy="300.39" r="2.5" fill="#2563eb"/>
  <circle cx="220.92" cy="249.86" r="2.5" fill="#2563eb"/>
  <circle cx="222.04" cy="250.11" r="2.5" fill="#2563eb"/>
  <circle cx="223.16" cy="201.46" r="2.5" fill="#2563eb"/>
  <circle cx="224.28" cy="300.01" r="2.5" fill="#2563eb"/>
  <circle cx="225.39" cy="200.83" r="2.5" fill="#2563eb"/>
  <circle cx="226.51" cy="250.03" r="2.5" fill="#2563eb"/>
  <circle cx="227.63" cy="249.99" r="2.5" fill="#2563eb"/>
  <circle cx="228.75" cy="300.26" r="2.5" fill="#2563eb"/>
  <circle cx="229.86" cy="300.01" r="2.5" fill="#2563eb"/>
  <circle cx="230.98" cy="300.01" r="2.5" fill="#2563eb"/>
  <circle cx="232.10" cy="250.03" r="2.5" fill="#2563eb"/>
  <circle cx="233.22" cy="250.03" r="2.5" fill="#2563eb"/>
  <circle cx="234.34" cy="250.03" r="2.5" fill="#2563eb"/>
  <circle cx="235.45" cy="250.03" r="2.5" fill="#2563eb"/>
  <circle cx="236.57" cy="249.99" r="2.5" fill="#2563eb"/>
  <circle cx="237.69" cy="250.03" r="2.5" fill="#2563eb"/>
  <circle cx="238.81" cy="200.00" r="2.5" fill="#2563eb"/>
  <circle cx="239.93" cy="300.26" r="2.5" fill="#2563eb"/>
  <circle cx="241.04" cy="249.99" r="2.5" fill="#2563eb"/>
  <circle cx="242.16" cy="300.01" r="2.5" fill="#2563eb"/>
  <circle cx="243.28" cy="249.94" r="2.5" fill="#2563eb"/>
  <circle cx="244.40" cy="250.03" r="2.5" fill="#2563eb"/>
  <circle cx="245.52" cy="250.03" r="2.5" fill="#2563eb"/>
  <circle cx="246.63" cy="250.03" r="2.5" fill="#2563eb"/>
  <circle cx="247.75" cy="200.04" r="2.5" fill="#2563eb"/>
  <circle cx="248.87" cy="300.01" r="2.5" fill="#2563eb"/>
  <circle cx="249.99" cy="249.90" r="2.5" fill="#2563eb"/>
  <circle cx="251.11" cy="300.01" r="2.5" fill="#2563eb"/>
  <circle cx="252.22" cy="300.01" r="2.5" fill="#2563eb"/>
  <circle cx="253.34" cy="300.06" r="2.5" fill="#2563eb"/>
  <circle cx="254.46" cy="300.01" r="2.5" fill="#2563eb"/>
  <circle cx="255.58" cy="300.01" r="2.5" fill="#2563eb"/>
  <circle cx="256.70" cy="243.95" r="2.5" fill="#2563eb"/>
  <circle cx="257.81" cy="249.94" r="2.5" fill="#2563eb"/>
  <circle cx="258.93" cy="299.97" r="2.5" fill="#2563eb"/>
  <circle cx="260.05" cy="300.01" r="2.5" fill="#2563eb"/>
  <circle cx="261.17" cy="300.01" r="2.5" fill="#2563eb"/>
  <circle cx="262.29" cy="250.03" r="2.5" fill="#2563eb"/>
  <circle cx="263.40" cy="300.01" r="2.5" fill="#2563eb"/>
  <circle cx="264.52" cy="300.01" r="2.5" fill="#2563eb"/>
  <circle cx="265.64" cy="299.97" r="2.5" fill="#2563eb"/>
  <circle cx="266.76" cy="249.99" r="2.5" fill="#2563eb"/>
  <circle cx="267.87" cy="300.01" r="2.5" fill="#2563eb"/>
  <circle cx="268.99" cy="299.93" r="2.5" fill="#2563eb"/>
  <circle cx="270.11" cy="300.01" r="2.5" fill="#2563eb"/>
  <circle cx="271.23" cy="299.93" r="2.5" fill="#2563eb"/>
  <circle cx="272.35" cy="300.01" r="2.5" fill="#2563eb"/>
  <circle cx="273.46" cy="300.01" r="2.5" fill="#2563eb"/>
  <circle cx="274.58" cy="299.89" r="2.5" fill="#2563eb"/>
  <circle cx="275.70" cy="299.97" r="2.5" fill="#2563eb"/>
  <circle cx="276.82" cy="250.03" r="2.5" fill="#2563eb"/>
  <circle cx="277.94" cy="299.93" r="2.5" fill="#2563eb"/>
  <circle cx="279.05" cy="299.89" r="2.5" fill="#2563eb"/>
  <circle cx="280.17" cy="299.97" r="2.5" fill="#2563eb"/>
  <circle cx="281.29" cy="249.94" r="2.5" fill="#2563eb"/>
  <circle cx="282.41" cy="300.01" r="2.5" fill="#2563eb"/>
  <circle cx="283.53" cy="300.01" r="2.5" fill="#2563eb"/>
  <circle cx="284.64" cy="299.97" r="2.5" fill="#2563eb"/>
  <circle cx="285.76" cy="249.99" r="2.5" fill="#2563eb"/>
  <circle cx="286.88" cy="299.97" r="2.5" fill="#2563eb"/>
  <circle cx="288.00" cy="299.97" r="2.5" fill="#2563eb"/>
  <circle cx="289.12" cy="300.06" r="2.5" fill="#2563eb"/>
  <circle cx="290.23" cy="300.06" r="2.5" fill="#2563eb"/>
  <circle cx="291.35" cy="299.93" r="2.5" fill="#2563eb"/>
  <circle cx="292.47" cy="300.01" r="2.5" fill="#2563eb"/>
  <circle cx="293.59" cy="300.01" r="2.5" fill="#2563eb"/>
  <circle cx="294.71" cy="299.93" r="2.5" fill="#2563eb"/>
  <circle cx="295.82" cy="300.01" r="2.5" fill="#2563eb"/>
  <circle cx="296.94" cy="300.01" r="2.5" fill="#2563eb"/>
  <circle cx="298.06" cy="299.97" r="2.5" fill="#2563eb"/>
  <circle cx="299.18" cy="300.01" r="2.5" fill="#2563eb"/>
  <circle cx="300.29" cy="300.01" r="2.5" fill="#2563eb"/>
  <circle cx="301.41" cy="300.01" r="2.5" fill="#2563eb"/>
  <circle cx="302.53" cy="300.01" r="2.5" fill="#2563eb"/>
  <circle cx="303.65" cy="249.86" r="2.5" fill="#2563eb"/>
  <circle cx="304.77" cy="300.01" r="2.5" fill="#2563eb"/>
  <circle cx="305.88" cy="300.10" r="2.5" fill="#2563eb"/>
  <circle cx="307.00" cy="299.93" r="2.5" fill="#2563eb"/>
  <circle cx="308.12" cy="300.01" r="2.5" fill="#2563eb"/>
  <circle cx="309.24" cy="299.93" r="2.5" fill="#2563eb"/>
  <circle cx="310.36" cy="300.01" r="2.5" fill="#2563eb"/>
  <circle cx="311.47" cy="300.01" r="2.5" fill="#2563eb"/>
  <circle cx="312.59" cy="300.01" r="2.5" fill="#2563eb"/>
  <circle cx="313.71" cy="300.01" r="2.5" fill="#2563eb"/>
  <circle cx="314.83" cy="300.01" r="2.5" fill="#2563eb"/>
  <circle cx="315.95" cy="299.97" r="2.5" fill="#2563eb"/>
  <circle cx="317.06" cy="300.01" r="2.5" fill="#2563eb"/>
  <circle cx="318.18" cy="300.01" r="2.5" fill="#2563eb"/>
  <circle cx="319.30" cy="300.01" r="2.5" fill="#2563eb"/>
  <circle cx="320.42" cy="300.01" r="2.5" fill="#2563eb"/>
  <circle cx="321.54" cy="250.03" r="2.5" fill="#2563eb"/>
  <circle cx="322.65" cy="300.01" r="2.5" fill="#2563eb"/>
  <circle cx="323.77" cy="300.01" r="2.5" fill="#2563eb"/>
  <circle cx="324.89" cy="299.97" r="2.5" fill="#2563eb"/>
  <circle cx="326.01" cy="300.01" r="2.5" fill="#2563eb"/>
  <circle cx="327.13" cy="300.01" r="2.5" fill="#2563eb"/>
  <circle cx="328.24" cy="299.97" r="2.5" fill="#2563eb"/>
  <circle cx="329.36" cy="299.97" r="2.5" fill="#2563eb"/>
  <circle cx="330.48" cy="300.01" r="2.5" fill="#2563eb"/>
  <circle cx="331.60" cy="299.97" r="2.5" fill="#2563eb"/>
  <circle cx="332.71" cy="300.01" r="2.5" fill="#2563eb"/>
  <circle cx="333.83" cy="299.93" r="2.5" fill="#2563eb"/>
  <circle cx="334.95" cy="300.01" r="2.5" fill="#2563eb"/>
  <circle cx="336.07" cy="250.03" r="2.5" fill="#2563eb"/>
  <circle cx="337.19" cy="300.01" r="2.5" fill="#2563eb"/>
  <circle cx="338.30" cy="300.01" r="2.5" fill="#2563eb"/>
  <circle cx="339.42" cy="300.01" r="2.5" fill="#2563eb"/>
  <circle cx="340.54" cy="300.01" r="2.5" fill="#2563eb"/>
  <circle cx="341.66" cy="300.01" r="2.5" fill="#2563eb"/>
  <circle cx="342.78" cy="299.89" r="2.5" fill="#2563eb"/>
  <circle cx="343.89" cy="300.01" r="2.5" fill="#2563eb"/>
  <circle cx="345.01" cy="300.01" r="2.5" fill="#2563eb"/>
  <circle cx="346.13" cy="250.07" r="2.5" fill="#2563eb"/>
  <circle cx="347.25" cy="300.01" r="2.5" fill="#2563eb"/>
  <circle cx="348.37" cy="299.93" r="2.5" fill="#2563eb"/>
  <circle cx="349.48" cy="300.01" r="2.5" fill="#2563eb"/>
  <circle cx="350.60" cy="299.97" r="2.5" fill="#2563eb"/>
  <circle cx="351.72" cy="299.97" r="2.5" fill="#2563eb"/>
  <circle cx="352.84" cy="299.97" r="2.5" fill="#2563eb"/>
  <circle cx="353.96" cy="250.03" r="2.5" fill="#2563eb"/>
  <circle cx="355.07" cy="300.01" r="2.5" fill="#2563eb"/>
  <circle cx="356.19" cy="300.01" r="2.5" fill="#2563eb"/>
  <circle cx="357.31" cy="300.01" r="2.5" fill="#2563eb"/>
  <circle cx="358.43" cy="300.01" r="2.5" fill="#2563eb"/>
  <circle cx="359.55" cy="299.97" r="2.5" fill="#2563eb"/>
  <circle cx="360.66" cy="300.01" r="2.5" fill="#2563eb"/>
  <circle cx="361.78" cy="299.97" r="2.5" fill="#2563eb"/>
  <circle cx="362.90" cy="300.01" r="2.5" fill="#2563eb"/>
  <circle cx="364.02" cy="299.97" r="2.5" fill="#2563eb"/>
  <circle cx="365.14" cy="249.90" r="2.5" fill="#2563eb"/>
  <circle cx="366.25" cy="300.01" r="2.5" fill="#2563eb"/>
  <circle cx="367.37" cy="300.01" r="2.5" fill="#2563eb"/>
  <circle cx="368.49" cy="299.89" r="2.5" fill="#2563eb"/>
  <circle cx="369.61" cy="299.97" r="2.5" fill="#2563eb"/>
  <circle cx="370.72" cy="299.97" r="2.5" fill="#2563eb"/>
  <circle cx="371.84" cy="249.99" r="2.5" fill="#2563eb"/>
  <circle cx="372.96" cy="299.97" r="2.5" fill="#2563eb"/>
  <circle cx="374.08" cy="299.89" r="2.5" fill="#2563eb"/>
  <circle cx="375.20" cy="300.01" r="2.5" fill="#2563eb"/>
  <circle cx="376.31" cy="299.97" r="2.5" fill="#2563eb"/>
  <circle cx="377.43" cy="299.97" r="2.5" fill="#2563eb"/>
  <circle cx="378.55" cy="300.01" r="2.5" fill="#2563eb"/>
  <circle cx="379.67" cy="299.97" r="2.5" fill="#2563eb"/>
  <circle cx="380.79" cy="249.99" r="2.5" fill="#2563eb"/>
  <circle cx="381.90" cy="299.97" r="2.5" fill="#2563eb"/>
  <circle cx="383.02" cy="299.97" r="2.5" fill="#2563eb"/>
  <circle cx="384.14" cy="300.06" r="2.5" fill="#2563eb"/>
  <circle cx="385.26" cy="300.06" r="2.5" fill="#2563eb"/>
  <circle cx="386.38" cy="249.94" r="2.5" fill="#2563eb"/>
  <circle cx="387.49" cy="300.01" r="2.5" fill="#2563eb"/>
  <circle cx="388.61" cy="299.93" r="2.5" fill="#2563eb"/>
  <circle cx="389.73" cy="300.01" r="2.5" fill="#2563eb"/>
  <circle cx="390.85" cy="300.01" r="2.5" fill="#2563eb"/>
  <circle cx="391.97" cy="249.99" r="2.5" fill="#2563eb"/>
  <circle cx="393.08" cy="300.01" r="2.5" fill="#2563eb"/>
  <circle cx="394.20" cy="300.01" r="2.5" fill="#2563eb"/>
  <circle cx="395.32" cy="300.01" r="2.5" fill="#2563eb"/>
  <circle cx="396.44" cy="299.93" r="2.5" fill="#2563eb"/>
  <circle cx="397.56" cy="299.93" r="2.5" fill="#2563eb"/>
  <circle cx="398.67" cy="300.01" r="2.5" fill="#2563eb"/>
  <circle cx="399.79" cy="300.01" r="2.5" fill="#2563eb"/>
  <circle cx="400.91" cy="249.94" r="2.5" fill="#2563eb"/>
  <circle cx="402.03" cy="299.97" r="2.5" fill="#2563eb"/>
  <circle cx="403.14" cy="299.97" r="2.5" fill="#2563eb"/>
  <circle cx="404.26" cy="300.01" r="2.5" fill="#2563eb"/>
  <circle cx="405.38" cy="300.01" r="2.5" fill="#2563eb"/>
  <circle cx="406.50" cy="300.01" r="2.5" fill="#2563eb"/>
  <circle cx="407.62" cy="249.99" r="2.5" fill="#2563eb"/>
  <circle cx="408.73" cy="300.01" r="2.5" fill="#2563eb"/>
  <circle cx="409.85" cy="300.01" r="2.5" fill="#2563eb"/>
  <circle cx="410.97" cy="300.01" r="2.5" fill="#2563eb"/>
  <circle cx="412.09" cy="250.03" r="2.5" fill="#2563eb"/>
  <circle cx="413.21" cy="300.01" r="2.5" fill="#2563eb"/>
  <circle cx="414.32" cy="300.01" r="2.5" fill="#2563eb"/>
  <circle cx="415.44" cy="300.01" r="2.5" fill="#2563eb"/>
  <circle cx="416.56" cy="299.97" r="2.5" fill="#2563eb"/>
  <circle cx="417.68" cy="300.01" r="2.5" fill="#2563eb"/>
  <circle cx="418.80" cy="300.01" r="2.5" fill="#2563eb"/>
  <circle cx="419.91" cy="299.97" r="2.5" fill="#2563eb"/>
  <circle cx="421.03" cy="299.97" r="2.5" fill="#2563eb"/>
  <circle cx="422.15" cy="300.01" r="2.5" fill="#2563eb"/>
  <circle cx="423.27" cy="300.01" r="2.5" fill="#2563eb"/>
  <circle cx="424.39" cy="299.97" r="2.5" fill="#2563eb"/>
  <circle cx="425.50" cy="299.93" r="2.5" fill="#2563eb"/>
  <circle cx="426.62" cy="300.01" r="2.5" fill="#2563eb"/>
  <circle cx="427.74" cy="300.06" r="2.5" fill="#2563eb"/>
  <circle cx="428.86" cy="299.97" r="2.5" fill="#2563eb"/>
  <circle cx="429.98" cy="300.01" r="2.5" fill="#2563eb"/>
  <circle cx="431.09" cy="250.03" r="2.5" fill="#2563eb"/>
  <circle cx="432.21" cy="250.03" r="2.5" fill="#2563eb"/>
  <circle cx="433.33" cy="299.93" r="2.5" fill="#2563eb"/>
  <circle cx="434.45" cy="299.97" r="2.5" fill="#2563eb"/>
  <circle cx="435.57" cy="300.01" r="2.5" fill="#2563eb"/>
  <circle cx="436.68" cy="300.01" r="2.5" fill="#2563eb"/>
  <circle cx="437.80" cy="300.06" r="2.5" fill="#2563eb"/>
  <circle cx="438.92" cy="300.01" r="2.5" fill="#2563eb"/>
  <circle cx="440.04" cy="299.93" r="2.5" fill="#2563eb"/>
  <circle cx="441.15" cy="300.01" r="2.5" fill="#2563eb"/>
  <circle cx="442.27" cy="300.01" r="2.5" fill="#2563eb"/>
  <circle cx="443.39" cy="299.97" r="2.5" fill="#2563eb"/>
  <circle cx="444.51" cy="299.97" r="2.5" fill="#2563eb"/>
  <circle cx="445.63" cy="300.01" r="2.5" fill="#2563eb"/>
  <circle cx="446.74" cy="250.03" r="2.5" fill="#2563eb"/>
  <circle cx="447.86" cy="300.01" r="2.5" fill="#2563eb"/>
  <circle cx="448.98" cy="300.01" r="2.5" fill="#2563eb"/>
  <circle cx="450.10" cy="300.01" r="2.5" fill="#2563eb"/>
  <circle cx="451.22" cy="299.97" r="2.5" fill="#2563eb"/>
  <circle cx="452.33" cy="300.01" r="2.5" fill="#2563eb"/>
  <circle cx="453.45" cy="299.97" r="2.5" fill="#2563eb"/>
  <circle cx="454.57" cy="300.01" r="2.5" fill="#2563eb"/>
  <circle cx="455.69" cy="299.97" r="2.5" fill="#2563eb"/>
  <circle cx="456.81" cy="299.97" r="2.5" fill="#2563eb"/>
  <circle cx="457.92" cy="299.93" r="2.5" fill="#2563eb"/>
  <circle cx="459.04" cy="300.01" r="2.5" fill="#2563eb"/>
  <circle cx="460.16" cy="300.01" r="2.5" fill="#2563eb"/>
  <circle cx="461.28" cy="299.89" r="2.5" fill="#2563eb"/>
  <circle cx="462.40" cy="299.97" r="2.5" fill="#2563eb"/>
  <circle cx="463.51" cy="299.97" r="2.5" fill="#2563eb"/>
  <circle cx="464.63" cy="300.06" r="2.5" fill="#2563eb"/>
  <circle cx="465.75" cy="249.90" r="2.5" fill="#2563eb"/>
  <circle cx="466.87" cy="299.89" r="2.5" fill="#2563eb"/>
  <circle cx="467.99" cy="300.01" r="2.5" fill="#2563eb"/>
  <circle cx="469.10" cy="299.97" r="2.5" fill="#2563eb"/>
  <circle cx="470.22" cy="299.97" r="2.5" fill="#2563eb"/>
  <circle cx="471.34" cy="299.97" r="2.5" fill="#2563eb"/>
  <circle cx="472.46" cy="300.01" r="2.5" fill="#2563eb"/>
  <circle cx="473.57" cy="300.01" r="2.5" fill="#2563eb"/>
  <circle cx="474.69" cy="299.97" r="2.5" fill="#2563eb"/>
  <circle cx="475.81" cy="299.97" r="2.5" fill="#2563eb"/>
  <circle cx="476.93" cy="299.97" r="2.5" fill="#2563eb"/>
  <circle cx="478.05" cy="250.03" r="2.5" fill="#2563eb"/>
  <circle cx="479.16" cy="299.93" r="2.5" fill="#2563eb"/>
  <circle cx="480.28" cy="300.01" r="2.5" fill="#2563eb"/>
  <circle cx="481.40" cy="300.01" r="2.5" fill="#2563eb"/>
  <circle cx="482.52" cy="299.93" r="2.5" fill="#2563eb"/>
  <circle cx="483.64" cy="300.01" r="2.5" fill="#2563eb"/>
  <circle cx="484.75" cy="300.01" r="2.5" fill="#2563eb"/>
  <circle cx="485.87" cy="299.97" r="2.5" fill="#2563eb"/>
  <circle cx="486.99" cy="300.01" r="2.5" fill="#2563eb"/>
  <circle cx="488.11" cy="300.01" r="2.5" fill="#2563eb"/>
  <circle cx="489.23" cy="300.06" r="2.5" fill="#2563eb"/>
  <circle cx="490.34" cy="300.01" r="2.5" fill="#2563eb"/>
  <circle cx="491.46" cy="299.97" r="2.5" fill="#2563eb"/>
  <circle cx="492.58" cy="299.89" r="2.5" fill="#2563eb"/>
  <circle cx="493.70" cy="300.01" r="2.5" fill="#2563eb"/>
  <circle cx="494.82" cy="300.01" r="2.5" fill="#2563eb"/>
  <circle cx="495.93" cy="249.94" r="2.5" fill="#2563eb"/>
  <circle cx="497.05" cy="249.94" r="2.5" fill="#2563eb"/>
  <circle cx="498.17" cy="300.01" r="2.5" fill="#2563eb"/>
  <circle cx="499.29" cy="300.01" r="2.5" fill="#2563eb"/>
  <circle cx="500.41" cy="300.01" r="2.5" fill="#2563eb"/>
  <circle cx="501.52" cy="300.01" r="2.5" fill="#2563eb"/>
  <circle cx="502.64" cy="299.97" r="2.5" fill="#2563eb"/>
  <circle cx="503.76" cy="250.03" r="2.5" fill="#2563eb"/>
  <circle cx="504.88" cy="300.01" r="2.5" fill="#2563eb"/>
  <circle cx="506.00" cy="300.01" r="2.5" fill="#2563eb"/>
  <circle cx="507.11" cy="300.01" r="2.5" fill="#2563eb"/>
  <circle cx="508.23" cy="300.01" r="2.5" fill="#2563eb"/>
  <circle cx="509.35" cy="250.03" r="2.5" fill="#2563eb"/>
  <circle cx="510.47" cy="249.99" r="2.5" fill="#2563eb"/>
  <circle cx="511.58" cy="300.01" r="2.5" fill="#2563eb"/>
  <circle cx="512.70" cy="299.97" r="2.5" fill="#2563eb"/>
  <circle cx="513.82" cy="300.01" r="2.5" fill="#2563eb"/>
  <circle cx="514.94" cy="299.97" r="2.5" fill="#2563eb"/>
  <circle cx="516.06" cy="300.01" r="2.5" fill="#2563eb"/>
  <circle cx="517.17" cy="299.97" r="2.5" fill="#2563eb"/>
  <circle cx="518.29" cy="299.97" r="2.5" fill="#2563eb"/>
  <circle cx="519.41" cy="299.97" r="2.5" fill="#2563eb"/>
  <circle cx="520.53" cy="300.06" r="2.5" fill="#2563eb"/>
  <circle cx="521.65" cy="249.99" r="2.5" fill="#2563eb"/>
  <circle cx="522.76" cy="300.01" r="2.5" fill="#2563eb"/>
  <circle cx="523.88" cy="250.03" r="2.5" fill="#2563eb"/>
  <circle cx="525.00" cy="249.94" r="2.5" fill="#2563eb"/>
  <circle cx="526.12" cy="249.99" r="2.5" fill="#2563eb"/>
  <circle cx="527.24" cy="300.01" r="2.5" fill="#2563eb"/>
  <circle cx="528.35" cy="300.06" r="2.5" fill="#2563eb"/>
  <circle cx="529.47" cy="300.01" r="2.5" fill="#2563eb"/>
  <circle cx="530.59" cy="299.97" r="2.5" fill="#2563eb"/>
  <circle cx="531.71" cy="299.97" r="2.5" fill="#2563eb"/>
  <circle cx="532.83" cy="300.01" r="2.5" fill="#2563eb"/>
  <circle cx="533.94" cy="299.93" r="2.5" fill="#2563eb"/>
  <circle cx="535.06" cy="299.89" r="2.5" fill="#2563eb"/>
  <circle cx="536.18" cy="299.89" r="2.5" fill="#2563eb"/>
  <circle cx="537.30" cy="299.89" r="2.5" fill="#2563eb"/>
  <circle cx="538.42" cy="299.89" r="2.5" fill="#2563eb"/>
  <circle cx="539.53" cy="299.85" r="2.5" fill="#2563eb"/>
  <circle cx="540.65" cy="299.85" r="2.5" fill="#2563eb"/>
  <circle cx="541.77" cy="299.89" r="2.5" fill="#2563eb"/>
  <circle cx="542.89" cy="299.81" r="2.5" fill="#2563eb"/>
  <circle cx="544.00" cy="299.81" r="2.5" fill="#2563eb"/>
  <circle cx="545.12" cy="299.81" r="2.5" fill="#2563eb"/>
  <circle cx="546.24" cy="299.76" r="2.5" fill="#2563eb"/>
  <circle cx="547.36" cy="299.76" r="2.5" fill="#2563eb"/>
  <circle cx="548.48" cy="299.76" r="2.5" fill="#2563eb"/>
  <circle cx="549.59" cy="299.72" r="2.5" fill="#2563eb"/>
  <circle cx="550.71" cy="299.68" r="2.5" fill="#2563eb"/>
  <circle cx="551.83" cy="299.60" r="2.5" fill="#2563eb"/>
  <circle cx="552.95" cy="299.60" r="2.5" fill="#2563eb"/>
  <circle cx="554.07" cy="299.60" r="2.5" fill="#2563eb"/>
  <circle cx="555.18" cy="299.56" r="2.5" fill="#2563eb"/>
  <circle cx="556.30" cy="299.47" r="2.5" fill="#2563eb"/>
  <circle cx="557.42" cy="299.43" r="2.5" fill="#2563eb"/>
  <circle cx="558.54" cy="299.43" r="2.5" fill="#2563eb"/>
  <circle cx="559.66" cy="299.39" r="2.5" fill="#2563eb"/>
  <circle cx="560.77" cy="299.47" r="2.5" fill="#2563eb"/>
  <circle cx="561.89" cy="259.82" r="2.5" fill="#2563eb"/>
  <circle cx="563.01" cy="338.96" r="2.5" fill="#2563eb"/>
  <circle cx="564.13" cy="299.31" r="2.5" fill="#2563eb"/>
  <circle cx="565.25" cy="299.31" r="2.5" fill="#2563eb"/>
  <circle cx="566.36" cy="299.26" r="2.5" fill="#2563eb"/>
  <circle cx="567.48" cy="299.68" r="2.5" fill="#2563eb"/>
  <circle cx="568.60" cy="299.68" r="2.5" fill="#2563eb"/>
  <circle cx="569.72" cy="299.68" r="2.5" fill="#2563eb"/>
  <circle cx="570.84" cy="299.64" r="2.5" fill="#2563eb"/>
  <circle cx="571.95" cy="299.14" r="2.5" fill="#2563eb"/>
  <circle cx="573.07" cy="299.14" r="2.5" fill="#2563eb"/>
  <circle cx="574.19" cy="299.10" r="2.5" fill="#2563eb"/>
  <circle cx="575.31" cy="299.10" r="2.5" fill="#2563eb"/>
  <circle cx="576.43" cy="299.10" r="2.5" fill="#2563eb"/>
  <circle cx="577.54" cy="248.07" r="2.5" fill="#2563eb"/>
  <circle cx="578.66" cy="299.06" r="2.5" fill="#2563eb"/>
  <circle cx="579.78" cy="299.06" r="2.5" fill="#2563eb"/>
  <circle cx="580.90" cy="299.06" r="2.5" fill="#2563eb"/>
  <circle cx="582.01" cy="299.06" r="2.5" fill="#2563eb"/>
  <circle cx="583.13" cy="299.06" r="2.5" fill="#2563eb"/>
  <circle cx="584.25" cy="298.97" r="2.5" fill="#2563eb"/>
  <circle cx="585.37" cy="298.97" r="2.5" fill="#2563eb"/>
  <circle cx="586.49" cy="298.93" r="2.5" fill="#2563eb"/>
  <circle cx="587.60" cy="298.97" r="2.5" fill="#2563eb"/>
  <circle cx="588.72" cy="298.93" r="2.5" fill="#2563eb"/>
  <circle cx="589.84" cy="298.89" r="2.5" fill="#2563eb"/>
  <circle cx="590.96" cy="298.89" r="2.5" fill="#2563eb"/>
  <circle cx="592.08" cy="298.89" r="2.5" fill="#2563eb"/>
  <circle cx="593.19" cy="298.89" r="2.5" fill="#2563eb"/>
  <circle cx="594.31" cy="247.78" r="2.5" fill="#2563eb"/>
  <circle cx="595.43" cy="298.89" r="2.5" fill="#2563eb"/>
  <circle cx="596.55" cy="298.89" r="2.5" fill="#2563eb"/>
  <circle cx="597.67" cy="298.85" r="2.5" fill="#2563eb"/>
  <circle cx="598.78" cy="298.85" r="2.5" fill="#2563eb"/>
  <circle cx="599.90" cy="298.81" r="2.5" fill="#2563eb"/>
  <circle cx="601.02" cy="298.81" r="2.5" fill="#2563eb"/>
  <circle cx="602.14" cy="298.81" r="2.5" fill="#2563eb"/>
  <circle cx="603.26" cy="298.81" r="2.5" fill="#2563eb"/>
  <circle cx="604.37" cy="298.81" r="2.5" fill="#2563eb"/>
  <circle cx="605.49" cy="298.81" r="2.5" fill="#2563eb"/>
  <circle cx="606.61" cy="298.81" r="2.5" fill="#2563eb"/>
  <circle cx="607.73" cy="298.81" r="2.5" fill="#2563eb"/>
  <circle cx="608.85" cy="298.81" r="2.5" fill="#2563eb"/>
  <circle cx="609.96" cy="298.72" r="2.5" fill="#2563eb"/>
  <circle cx="611.08" cy="247.45" r="2.5" fill="#2563eb"/>
  <circle cx="612.20" cy="247.45" r="2.5" fill="#2563eb"/>
  <circle cx="613.32" cy="298.72" r="2.5" fill="#2563eb"/>
  <circle cx="614.43" cy="298.72" r="2.5" fill="#2563eb"/>
  <circle cx="615.55" cy="298.72" r="2.5" fill="#2563eb"/>
  <circle cx="616.67" cy="298.72" r="2.5" fill="#2563eb"/>
  <circle cx="617.79" cy="298.72" r="2.5" fill="#2563eb"/>
  <circle cx="618.91" cy="298.72" r="2.5" fill="#2563eb"/>
  <circle cx="620.02" cy="247.36" r="2.5" fill="#2563eb"/>
  <circle cx="621.14" cy="298.68" r="2.5" fill="#2563eb"/>
  <circle cx="622.26" cy="247.36" r="2.5" fill="#2563eb"/>
  <circle cx="623.38" cy="247.36" r="2.5" fill="#2563eb"/>
  <circle cx="624.50" cy="247.36" r="2.5" fill="#2563eb"/>
  <circle cx="625.61" cy="298.68" r="2.5" fill="#2563eb"/>
  <circle cx="626.73" cy="298.68" r="2.5" fill="#2563eb"/>
  <circle cx="627.85" cy="298.68" r="2.5" fill="#2563eb"/>
  <circle cx="628.97" cy="298.68" r="2.5" fill="#2563eb"/>
  <circle cx="630.09" cy="298.68" r="2.5" fill="#2563eb"/>
  <circle cx="631.20" cy="341.67" r="2.5" fill="#2563eb"/>
  <circle cx="632.32" cy="307.01" r="2.5" fill="#2563eb"/>
  <circle cx="633.44" cy="298.68" r="2.5" fill="#2563eb"/>
  <circle cx="634.56" cy="298.68" r="2.5" fill="#2563eb"/>
  <circle cx="635.68" cy="298.68" r="2.5" fill="#2563eb"/>
  <circle cx="636.79" cy="247.36" r="2.5" fill="#2563eb"/>
  <circle cx="637.91" cy="298.64" r="2.5" fill="#2563eb"/>
  <circle cx="639.03" cy="247.36" r="2.5" fill="#2563eb"/>
  <circle cx="640.15" cy="247.28" r="2.5" fill="#2563eb"/>
  <circle cx="641.27" cy="247.20" r="2.5" fill="#2563eb"/>
  <circle cx="642.38" cy="298.60" r="2.5" fill="#2563eb"/>
  <circle cx="643.50" cy="298.60" r="2.5" fill="#2563eb"/>
  <circle cx="644.62" cy="247.03" r="2.5" fill="#2563eb"/>
  <circle cx="645.74" cy="298.51" r="2.5" fill="#2563eb"/>
  <circle cx="646.86" cy="298.51" r="2.5" fill="#2563eb"/>
  <circle cx="647.97" cy="298.51" r="2.5" fill="#2563eb"/>
  <circle cx="649.09" cy="298.51" r="2.5" fill="#2563eb"/>
  <circle cx="650.21" cy="298.51" r="2.5" fill="#2563eb"/>
  <circle cx="651.33" cy="298.51" r="2.5" fill="#2563eb"/>
  <circle cx="652.44" cy="298.51" r="2.5" fill="#2563eb"/>
  <circle cx="653.56" cy="298.51" r="2.5" fill="#2563eb"/>
  <circle cx="654.68" cy="298.51" r="2.5" fill="#2563eb"/>
  <circle cx="655.80" cy="298.51" r="2.5" fill="#2563eb"/>
  <circle cx="656.92" cy="298.51" r="2.5" fill="#2563eb"/>
  <circle cx="658.03" cy="298.51" r="2.5" fill="#2563eb"/>
  <circle cx="659.15" cy="298.51" r="2.5" fill="#2563eb"/>
  <circle cx="660.27" cy="298.51" r="2.5" fill="#2563eb"/>
  <circle cx="661.39" cy="298.51" r="2.5" fill="#2563eb"/>
  <circle cx="662.51" cy="298.51" r="2.5" fill="#2563eb"/>
  <circle cx="663.62" cy="298.51" r="2.5" fill="#2563eb"/>
  <circle cx="664.74" cy="298.51" r="2.5" fill="#2563eb"/>
  <circle cx="665.86" cy="298.51" r="2.5" fill="#2563eb"/>
  <circle cx="666.98" cy="298.51" r="2.5" fill="#2563eb"/>
  <circle cx="668.10" cy="298.51" r="2.5" fill="#2563eb"/>
  <circle cx="669.21" cy="298.51" r="2.5" fill="#2563eb"/>
  <circle cx="670.33" cy="298.51" r="2.5" fill="#2563eb"/>
  <circle cx="671.45" cy="298.51" r="2.5" fill="#2563eb"/>
  <circle cx="672.57" cy="298.51" r="2.5" fill="#2563eb"/>
  <circle cx="673.69" cy="298.51" r="2.5" fill="#2563eb"/>
  <circle cx="674.80" cy="298.47" r="2.5" fill="#2563eb"/>
  <circle cx="675.92" cy="298.51" r="2.5" fill="#2563eb"/>
  <circle cx="677.04" cy="298.51" r="2.5" fill="#2563eb"/>
  <circle cx="678.16" cy="298.47" r="2.5" fill="#2563eb"/>
  <circle cx="679.28" cy="298.51" r="2.5" fill="#2563eb"/>
  <circle cx="680.39" cy="298.47" r="2.5" fill="#2563eb"/>
  <circle cx="681.51" cy="298.51" r="2.5" fill="#2563eb"/>
  <circle cx="682.63" cy="298.43" r="2.5" fill="#2563eb"/>
  <circle cx="683.75" cy="298.56" r="2.5" fill="#2563eb"/>
  <circle cx="684.86" cy="298.43" r="2.5" fill="#2563eb"/>
  <circle cx="685.98" cy="298.43" r="2.5" fill="#2563eb"/>
  <circle cx="687.10" cy="298.43" r="2.5" fill="#2563eb"/>
  <circle cx="688.22" cy="298.43" r="2.5" fill="#2563eb"/>
  <circle cx="689.34" cy="298.43" r="2.5" fill="#2563eb"/>
  <circle cx="690.45" cy="298.43" r="2.5" fill="#2563eb"/>
  <circle cx="691.57" cy="298.43" r="2.5" fill="#2563eb"/>
  <circle cx="692.69" cy="298.43" r="2.5" fill="#2563eb"/>
  <circle cx="693.81" cy="298.43" r="2.5" fill="#2563eb"/>
  <circle cx="694.93" cy="298.43" r="2.5" fill="#2563eb"/>
  <circle cx="696.04" cy="298.43" r="2.5" fill="#2563eb"/>
  <circle cx="697.16" cy="298.43" r="2.5" fill="#2563eb"/>
  <circle cx="698.28" cy="298.43" r="2.5" fill="#2563eb"/>
  <circle cx="699.40" cy="298.43" r="2.5" fill="#2563eb"/>
  <circle cx="700.52" cy="298.43" r="2.5" fill="#2563eb"/>
  <circle cx="701.63" cy="298.43" r="2.5" fill="#2563eb"/>
  <circle cx="702.75" cy="298.43" r="2.5" fill="#2563eb"/>
  <circle cx="703.87" cy="298.43" r="2.5" fill="#2563eb"/>
  <circle cx="704.99" cy="298.43" r="2.5" fill="#2563eb"/>
  <circle cx="706.11" cy="298.43" r="2.5" fill="#2563eb"/>
  <circle cx="707.22" cy="298.43" r="2.5" fill="#2563eb"/>
  <circle cx="708.34" cy="298.43" r="2.5" fill="#2563eb"/>
  <circle cx="709.46" cy="298.43" r="2.5" fill="#2563eb"/>
  <circle cx="710.58" cy="298.43" r="2.5" fill="#2563eb"/>
  <circle cx="711.70" cy="298.43" r="2.5" fill="#2563eb"/>
  <circle cx="712.81" cy="298.43" r="2.5" fill="#2563eb"/>
  <circle cx="713.93" cy="298.43" r="2.5" fill="#2563eb"/>
  <circle cx="715.05" cy="298.43" r="2.5" fill="#2563eb"/>
  <circle cx="716.17" cy="298.43" r="2.5" fill="#2563eb"/>
  <circle cx="717.29" cy="298.43" r="2.5" fill="#2563eb"/>
  <circle cx="718.40" cy="298.43" r="2.5" fill="#2563eb"/>
  <circle cx="719.52" cy="298.43" r="2.5" fill="#2563eb"/>
  <circle cx="720.64" cy="298.43" r="2.5" fill="#2563eb"/>
  <circle cx="721.76" cy="298.43" r="2.5" fill="#2563eb"/>
  <circle cx="722.87" cy="298.39" r="2.5" fill="#2563eb"/>
  <circle cx="723.99" cy="298.39" r="2.5" fill="#2563eb"/>
  <circle cx="725.11" cy="298.43" r="2.5" fill="#2563eb"/>
  <circle cx="726.23" cy="298.43" r="2.5" fill="#2563eb"/>
  <circle cx="727.35" cy="298.39" r="2.5" fill="#2563eb"/>
  <circle cx="728.46" cy="298.39" r="2.5" fill="#2563eb"/>
  <circle cx="729.58" cy="298.39" r="2.5" fill="#2563eb"/>
  <circle cx="730.70" cy="298.43" r="2.5" fill="#2563eb"/>
  <circle cx="731.82" cy="298.43" r="2.5" fill="#2563eb"/>
  <circle cx="732.94" cy="298.43" r="2.5" fill="#2563eb"/>
  <circle cx="734.05" cy="246.82" r="2.5" fill="#2563eb"/>
  <circle cx="735.17" cy="298.43" r="2.5" fill="#2563eb"/>
  <circle cx="736.29" cy="246.78" r="2.5" fill="#2563eb"/>
  <circle cx="737.41" cy="246.78" r="2.5" fill="#2563eb"/>
  <circle cx="738.53" cy="246.78" r="2.5" fill="#2563eb"/>
  <circle cx="739.64" cy="246.70" r="2.5" fill="#2563eb"/>
  <circle cx="740.76" cy="246.78" r="2.5" fill="#2563eb"/>
  <circle cx="741.88" cy="298.39" r="2.5" fill="#2563eb"/>
  <circle cx="743.00" cy="298.39" r="2.5" fill="#2563eb"/>
  <circle cx="744.12" cy="298.39" r="2.5" fill="#2563eb"/>
  <circle cx="745.23" cy="298.39" r="2.5" fill="#2563eb"/>
  <circle cx="746.35" cy="298.39" r="2.5" fill="#2563eb"/>
  <circle cx="747.47" cy="246.78" r="2.5" fill="#2563eb"/>
  <circle cx="748.59" cy="298.39" r="2.5" fill="#2563eb"/>
  <circle cx="749.71" cy="298.39" r="2.5" fill="#2563eb"/>
  <circle cx="750.82" cy="298.39" r="2.5" fill="#2563eb"/>
  <circle cx="751.94" cy="298.39" r="2.5" fill="#2563eb"/>
  <circle cx="753.06" cy="298.39" r="2.5" fill="#2563eb"/>
  <circle cx="754.18" cy="246.78" r="2.5" fill="#2563eb"/>
  <circle cx="755.29" cy="246.78" r="2.5" fill="#2563eb"/>
  <circle cx="756.41" cy="298.39" r="2.5" fill="#2563eb"/>
  <circle cx="757.53" cy="298.39" r="2.5" fill="#2563eb"/>
  <circle cx="758.65" cy="298.39" r="2.5" fill="#2563eb"/>
  <circle cx="759.77" cy="298.39" r="2.5" fill="#2563eb"/>
  <circle cx="760.88" cy="298.39" r="2.5" fill="#2563eb"/>
  <circle cx="762.00" cy="298.39" r="2.5" fill="#2563eb"/>
  <circle cx="763.12" cy="298.39" r="2.5" fill="#2563eb"/>
  <circle cx="764.24" cy="298.39" r="2.5" fill="#2563eb"/>
  <circle cx="765.36" cy="298.39" r="2.5" fill="#2563eb"/>
  <circle cx="766.47" cy="298.39" r="2.5" fill="#2563eb"/>
  <circle cx="767.59" cy="298.39" r="2.5" fill="#2563eb"/>
  <circle cx="768.71" cy="298.39" r="2.5" fill="#2563eb"/>
  <circle cx="769.83" cy="298.39" r="2.5" fill="#2563eb"/>
  <circle cx="770.95" cy="298.39" r="2.5" fill="#2563eb"/>
  <circle cx="772.06" cy="298.35" r="2.5" fill="#2563eb"/>
  <circle cx="773.18" cy="298.39" r="2.5" fill="#2563eb"/>
  <circle cx="774.30" cy="298.39" r="2.5" fill="#2563eb"/>
  <circle cx="775.42" cy="298.35" r="2.5" fill="#2563eb"/>
  <circle cx="776.54" cy="298.35" r="2.5" fill="#2563eb"/>
  <circle cx="777.65" cy="298.35" r="2.5" fill="#2563eb"/>
  <circle cx="778.77" cy="298.35" r="2.5" fill="#2563eb"/>
  <circle cx="779.89" cy="298.35" r="2.5" fill="#2563eb"/>
  <circle cx="781.01" cy="298.35" r="2.5" fill="#2563eb"/>
  <circle cx="782.13" cy="298.35" r="2.5" fill="#2563eb"/>
  <circle cx="783.24" cy="298.35" r="2.5" fill="#2563eb"/>
  <circle cx="784.36" cy="298.35" r="2.5" fill="#2563eb"/>
  <circle cx="785.48" cy="298.35" r="2.5" fill="#2563eb"/>
  <circle cx="786.60" cy="298.35" r="2.5" fill="#2563eb"/>
  <circle cx="787.71" cy="298.35" r="2.5" fill="#2563eb"/>
  <circle cx="788.83" cy="298.35" r="2.5" fill="#2563eb"/>
  <circle cx="789.95" cy="298.35" r="2.5" fill="#2563eb"/>
  <circle cx="791.07" cy="298.35" r="2.5" fill="#2563eb"/>
  <circle cx="792.19" cy="298.35" r="2.5" fill="#2563eb"/>
  <circle cx="793.30" cy="298.35" r="2.5" fill="#2563eb"/>
  <circle cx="794.42" cy="298.35" r="2.5" fill="#2563eb"/>
  <circle cx="795.54" cy="298.35" r="2.5" fill="#2563eb"/>
  <circle cx="796.66" cy="298.35" r="2.5" fill="#2563eb"/>
  <circle cx="797.78" cy="298.35" r="2.5" fill="#2563eb"/>
  <circle cx="798.89" cy="298.35" r="2.5" fill="#2563eb"/>
  <circle cx="800.01" cy="298.35" r="2.5" fill="#2563eb"/>
  <circle cx="801.13" cy="298.35" r="2.5" fill="#2563eb"/>
  <circle cx="802.25" cy="298.35" r="2.5" fill="#2563eb"/>
  <circle cx="803.37" cy="298.35" r="2.5" fill="#2563eb"/>
  <circle cx="804.48" cy="298.35" r="2.5" fill="#2563eb"/>
  <circle cx="805.60" cy="298.35" r="2.5" fill="#2563eb"/>
  <circle cx="806.72" cy="298.35" r="2.5" fill="#2563eb"/>
  <circle cx="807.84" cy="298.35" r="2.5" fill="#2563eb"/>
  <circle cx="808.96" cy="298.35" r="2.5" fill="#2563eb"/>
  <circle cx="810.07" cy="298.35" r="2.5" fill="#2563eb"/>
  <circle cx="811.19" cy="298.35" r="2.5" fill="#2563eb"/>
  <circle cx="812.31" cy="298.35" r="2.5" fill="#2563eb"/>
  <circle cx="813.43" cy="298.35" r="2.5" fill="#2563eb"/>
  <circle cx="814.55" cy="298.35" r="2.5" fill="#2563eb"/>
  <circle cx="815.66" cy="298.35" r="2.5" fill="#2563eb"/>
  <circle cx="816.78" cy="298.35" r="2.5" fill="#2563eb"/>
  <circle cx="817.90" cy="298.35" r="2.5" fill="#2563eb"/>
  <circle cx="819.02" cy="298.35" r="2.5" fill="#2563eb"/>
  <circle cx="820.14" cy="298.35" r="2.5" fill="#2563eb"/>
  <circle cx="821.25" cy="298.35" r="2.5" fill="#2563eb"/>
  <circle cx="822.37" cy="298.35" r="2.5" fill="#2563eb"/>
  <circle cx="823.49" cy="298.35" r="2.5" fill="#2563eb"/>
  <circle cx="824.61" cy="298.35" r="2.5" fill="#2563eb"/>
  <circle cx="825.72" cy="298.35" r="2.5" fill="#2563eb"/>
  <circle cx="826.84" cy="298.35" r="2.5" fill="#2563eb"/>
  <circle cx="827.96" cy="298.35" r="2.5" fill="#2563eb"/>
  <circle cx="829.08" cy="298.35" r="2.5" fill="#2563eb"/>
  <circle cx="830.20" cy="298.35" r="2.5" fill="#2563eb"/>
  <circle cx="831.31" cy="298.35" r="2.5" fill="#2563eb"/>
  <circle cx="832.43" cy="298.35" r="2.5" fill="#2563eb"/>
  <circle cx="833.55" cy="298.39" r="2.5" fill="#2563eb"/>
  <circle cx="834.67" cy="298.39" r="2.5" fill="#2563eb"/>
  <circle cx="835.79" cy="298.39" r="2.5" fill="#2563eb"/>
  <circle cx="836.90" cy="246.78" r="2.5" fill="#2563eb"/>
  <circle cx="838.02" cy="298.39" r="2.5" fill="#2563eb"/>
  <circle cx="839.14" cy="298.39" r="2.5" fill="#2563eb"/>
  <circle cx="840.26" cy="298.39" r="2.5" fill="#2563eb"/>
  <circle cx="841.38" cy="298.39" r="2.5" fill="#2563eb"/>
  <circle cx="842.49" cy="298.39" r="2.5" fill="#2563eb"/>
  <circle cx="843.61" cy="298.39" r="2.5" fill="#2563eb"/>
  <circle cx="844.73" cy="298.39" r="2.5" fill="#2563eb"/>
  <circle cx="845.85" cy="246.78" r="2.5" fill="#2563eb"/>
  <circle cx="846.97" cy="298.39" r="2.5" fill="#2563eb"/>
  <circle cx="848.08" cy="298.39" r="2.5" fill="#2563eb"/>
  <circle cx="849.20" cy="298.39" r="2.5" fill="#2563eb"/>
  <circle cx="850.32" cy="298.39" r="2.5" fill="#2563eb"/>
  <circle cx="851.44" cy="298.39" r="2.5" fill="#2563eb"/>
  <circle cx="852.56" cy="298.39" r="2.5" fill="#2563eb"/>
  <circle cx="853.67" cy="298.39" r="2.5" fill="#2563eb"/>
  <circle cx="854.79" cy="246.78" r="2.5" fill="#2563eb"/>
  <circle cx="855.91" cy="298.39" r="2.5" fill="#2563eb"/>
  <circle cx="857.03" cy="298.39" r="2.5" fill="#2563eb"/>
  <circle cx="858.14" cy="298.39" r="2.5" fill="#2563eb"/>
  <circle cx="859.26" cy="298.39" r="2.5" fill="#2563eb"/>
  <circle cx="860.38" cy="298.39" r="2.5" fill="#2563eb"/>
  <circle cx="861.50" cy="298.39" r="2.5" fill="#2563eb"/>
  <circle cx="862.62" cy="298.39" r="2.5" fill="#2563eb"/>
  <circle cx="863.73" cy="298.39" r="2.5" fill="#2563eb"/>
  <circle cx="864.85" cy="298.39" r="2.5" fill="#2563eb"/>
  <circle cx="865.97" cy="298.39" r="2.5" fill="#2563eb"/>
  <circle cx="867.09" cy="298.39" r="2.5" fill="#2563eb"/>
  <circle cx="868.21" cy="298.35" r="2.5" fill="#2563eb"/>
  <circle cx="869.32" cy="298.39" r="2.5" fill="#2563eb"/>
  <circle cx="870.44" cy="298.39" r="2.5" fill="#2563eb"/>
  <circle cx="871.56" cy="298.39" r="2.5" fill="#2563eb"/>
  <circle cx="872.68" cy="298.35" r="2.5" fill="#2563eb"/>
  <circle cx="873.80" cy="298.35" r="2.5" fill="#2563eb"/>
  <circle cx="874.91" cy="298.35" r="2.5" fill="#2563eb"/>
  <circle cx="876.03" cy="298.35" r="2.5" fill="#2563eb"/>
  <circle cx="877.15" cy="298.35" r="2.5" fill="#2563eb"/>
  <circle cx="878.27" cy="298.35" r="2.5" fill="#2563eb"/>
  <circle cx="879.39" cy="298.35" r="2.5" fill="#2563eb"/>
  <circle cx="880.50" cy="298.35" r="2.5" fill="#2563eb"/>
  <circle cx="881.62" cy="298.35" r="2.5" fill="#2563eb"/>
  <circle cx="882.74" cy="298.35" r="2.5" fill="#2563eb"/>
  <circle cx="883.86" cy="298.35" r="2.5" fill="#2563eb"/>
  <circle cx="884.98" cy="298.35" r="2.5" fill="#2563eb"/>
  <circle cx="886.09" cy="298.35" r="2.5" fill="#2563eb"/>
  <circle cx="887.21" cy="298.35" r="2.5" fill="#2563eb"/>
  <circle cx="888.33" cy="298.35" r="2.5" fill="#2563eb"/>
  <circle cx="889.45" cy="298.35" r="2.5" fill="#2563eb"/>
  <circle cx="890.57" cy="298.39" r="2.5" fill="#2563eb"/>
  <circle cx="891.68" cy="298.39" r="2.5" fill="#2563eb"/>
  <circle cx="892.80" cy="298.39" r="2.5" fill="#2563eb"/>
  <circle cx="893.92" cy="298.39" r="2.5" fill="#2563eb"/>
  <circle cx="895.04" cy="298.39" r="2.5" fill="#2563eb"/>
  <circle cx="896.15" cy="298.39" r="2.5" fill="#2563eb"/>
  <circle cx="897.27" cy="298.35" r="2.5" fill="#2563eb"/>
  <circle cx="898.39" cy="298.39" r="2.5" fill="#2563eb"/>
  <circle cx="899.51" cy="298.39" r="2.5" fill="#2563eb"/>
  <circle cx="900.63" cy="298.39" r="2.5" fill="#2563eb"/>
  <circle cx="901.74" cy="298.39" r="2.5" fill="#2563eb"/>
  <circle cx="902.86" cy="298.39" r="2.5" fill="#2563eb"/>
  <circle cx="903.98" cy="298.39" r="2.5" fill="#2563eb"/>
  <circle cx="905.10" cy="298.39" r="2.5" fill="#2563eb"/>
  <circle cx="906.22" cy="298.39" r="2.5" fill="#2563eb"/>
  <circle cx="907.33" cy="298.39" r="2.5" fill="#2563eb"/>
  <circle cx="908.45" cy="298.35" r="2.5" fill="#2563eb"/>
  <circle cx="909.57" cy="298.39" r="2.5" fill="#2563eb"/>
  <circle cx="910.69" cy="298.39" r="2.5" fill="#2563eb"/>
  <circle cx="911.81" cy="298.39" r="2.5" fill="#2563eb"/>
  <circle cx="912.92" cy="298.39" r="2.5" fill="#2563eb"/>
  <circle cx="914.04" cy="298.39" r="2.5" fill="#2563eb"/>
  <circle cx="915.16" cy="298.39" r="2.5" fill="#2563eb"/>
  <circle cx="916.28" cy="298.39" r="2.5" fill="#2563eb"/>
  <circle cx="917.40" cy="298.39" r="2.5" fill="#2563eb"/>
  <circle cx="918.51" cy="298.39" r="2.5" fill="#2563eb"/>
  <circle cx="919.63" cy="298.39" r="2.5" fill="#2563eb"/>
  <circle cx="920.75" cy="298.39" r="2.5" fill="#2563eb"/>
  <circle cx="921.87" cy="298.39" r="2.5" fill="#2563eb"/>
  <circle cx="922.99" cy="298.39" r="2.5" fill="#2563eb"/>
  <circle cx="924.10" cy="298.39" r="2.5" fill="#2563eb"/>
  <circle cx="925.22" cy="298.39" r="2.5" fill="#2563eb"/>
  <circle cx="926.34" cy="298.39" r="2.5" fill="#2563eb"/>
  <circle cx="927.46" cy="298.35" r="2.5" fill="#2563eb"/>
  <circle cx="928.57" cy="298.35" r="2.5" fill="#2563eb"/>
  <circle cx="929.69" cy="298.39" r="2.5" fill="#2563eb"/>
  <circle cx="930.81" cy="298.39" r="2.5" fill="#2563eb"/>
  <circle cx="931.93" cy="298.39" r="2.5" fill="#2563eb"/>
  <circle cx="933.05" cy="298.39" r="2.5" fill="#2563eb"/>
  <circle cx="934.16" cy="298.39" r="2.5" fill="#2563eb"/>
  <circle cx="935.28" cy="298.39" r="2.5" fill="#2563eb"/>
  <circle cx="936.40" cy="298.39" r="2.5" fill="#2563eb"/>
  <circle cx="937.52" cy="298.39" r="2.5" fill="#2563eb"/>
  <circle cx="938.64" cy="298.39" r="2.5" fill="#2563eb"/>
  <circle cx="939.75" cy="298.39" r="2.5" fill="#2563eb"/>
  <circle cx="940.87" cy="298.35" r="2.5" fill="#2563eb"/>
  <circle cx="941.99" cy="298.35" r="2.5" fill="#2563eb"/>
  <circle cx="943.11" cy="298.39" r="2.5" fill="#2563eb"/>
  <circle cx="944.23" cy="298.39" r="2.5" fill="#2563eb"/>
  <circle cx="945.34" cy="298.39" r="2.5" fill="#2563eb"/>
  <circle cx="946.46" cy="298.39" r="2.5" fill="#2563eb"/>
  <circle cx="947.58" cy="298.39" r="2.5" fill="#2563eb"/>
  <circle cx="948.70" cy="298.39" r="2.5" fill="#2563eb"/>
  <circle cx="949.82" cy="298.39" r="2.5" fill="#2563eb"/>
  <circle cx="950.93" cy="298.39" r="2.5" fill="#2563eb"/>
  <circle cx="952.05" cy="298.39" r="2.5" fill="#2563eb"/>
  <circle cx="953.17" cy="298.39" r="2.5" fill="#2563eb"/>
  <circle cx="954.29" cy="298.39" r="2.5" fill="#2563eb"/>
  <circle cx="955.41" cy="298.39" r="2.5" fill="#2563eb"/>
  <circle cx="956.52" cy="298.39" r="2.5" fill="#2563eb"/>
  <circle cx="957.64" cy="298.39" r="2.5" fill="#2563eb"/>
  <circle cx="958.76" cy="298.35" r="2.5" fill="#2563eb"/>
  <circle cx="959.88" cy="298.39" r="2.5" fill="#2563eb"/>
  <circle cx="961.00" cy="298.39" r="2.5" fill="#2563eb"/>
  <circle cx="962.11" cy="298.39" r="2.5" fill="#2563eb"/>
  <circle cx="963.23" cy="298.39" r="2.5" fill="#2563eb"/>
  <circle cx="964.35" cy="298.39" r="2.5" fill="#2563eb"/>
  <circle cx="965.47" cy="298.39" r="2.5" fill="#2563eb"/>
  <circle cx="966.58" cy="298.39" r="2.5" fill="#2563eb"/>
  <circle cx="967.70" cy="298.39" r="2.5" fill="#2563eb"/>
  <circle cx="968.82" cy="298.35" r="2.5" fill="#2563eb"/>
  <circle cx="969.94" cy="298.35" r="2.5" fill="#2563eb"/>
  <circle cx="971.06" cy="298.39" r="2.5" fill="#2563eb"/>
  <circle cx="972.17" cy="298.35" r="2.5" fill="#2563eb"/>
  <circle cx="973.29" cy="298.39" r="2.5" fill="#2563eb"/>
  <circle cx="974.41" cy="298.39" r="2.5" fill="#2563eb"/>
  <circle cx="975.53" cy="298.39" r="2.5" fill="#2563eb"/>
  <circle cx="976.65" cy="298.39" r="2.5" fill="#2563eb"/>
  <circle cx="977.76" cy="298.39" r="2.5" fill="#2563eb"/>
  <circle cx="978.88" cy="298.35" r="2.5" fill="#2563eb"/>
  <circle cx="980.00" cy="298.39" r="2.5" fill="#2563eb"/>
</svg>
