<?xml version="1.0" encoding="UTF-8"?>
<svg xmlns="http://www.w3.org/2000/svg" width="1000" height="420" viewBox="0 0 1000 420">
  <rect width="100%" height="100%" fill="#ffffff"/>
  <text x="70" y="28" font-size="20" font-weight="600">수집 시점 기준 - 시간별 스냅샷</text>
  <text x="70" y="402" font-size="12" fill="#555">스냅샷 수</text>
  <line x1="70" y1="350.00" x2="980" y2="350.00" stroke="#e5e7eb" stroke-width="1"/>
  <text x="62" y="354.00" font-size="11" fill="#6b7280" text-anchor="end">0</text>
  <line x1="70" y1="290.00" x2="980" y2="290.00" stroke="#e5e7eb" stroke-width="1"/>
  <text x="62" y="294.00" font-size="11" fill="#6b7280" text-anchor="end">1,440</text>
  <line x1="70" y1="230.00" x2="980" y2="230.00" stroke="#e5e7eb" stroke-width="1"/>
  <text x="62" y="234.00" font-size="11" fill="#6b7280" text-anchor="end">2,880</text>
  <line x1="70" y1="170.00" x2="980" y2="170.00" stroke="#e5e7eb" stroke-width="1"/>
  <text x="62" y="174.00" font-size="11" fill="#6b7280" text-anchor="end">4,321</text>
  <line x1="70" y1="110.00" x2="980" y2="110.00" stroke="#e5e7eb" stroke-width="1"/>
  <text x="62" y="114.00" font-size="11" fill="#6b7280" text-anchor="end">5,761</text>
  <line x1="70" y1="50.00" x2="980" y2="50.00" stroke="#e5e7eb" stroke-width="1"/>
  <text x="62" y="54.00" font-size="11" fill="#6b7280" text-anchor="end">7,202</text>
  <line x1="70" y1="350" x2="980" y2="350" stroke="#111827" stroke-width="1.2"/>
  <line x1="70" y1="50" x2="70" y2="350" stroke="#111827" stroke-width="1.2"/>
  <line x1="70.00" y1="350" x2="70.00" y2="356" stroke="#9ca3af" stroke-width="1"/>
  <text x="70.00" y="372" font-size="10" fill="#6b7280" text-anchor="middle">2026-02-28 18</text>
  <line x1="145.35" y1="350" x2="145.35" y2="356" stroke="#9ca3af" stroke-width="1"/>
  <text x="145.35" y="372" font-size="10" fill="#6b7280" text-anchor="middle">2026-03-09 22</text>
  <line x1="220.70" y1="350" x2="220.70" y2="356" stroke="#9ca3af" stroke-width="1"/>
  <text x="220.70" y="372" font-size="10" fill="#6b7280" text-anchor="middle">2026-03-12 21</text>
  <line x1="296.05" y1="350" x2="296.05" y2="356" stroke="#9ca3af" stroke-width="1"/>
  <text x="296.05" y="372" font-size="10" fill="#6b7280" text-anchor="middle">2026-03-16 06</text>
  <line x1="371.40" y1="350" x2="371.40" y2="356" stroke="#9ca3af" stroke-width="1"/>
  <text x="371.40" y="372" font-size="10" fill="#6b7280" text-anchor="middle">2026-03-20 16</text>
  <line x1="446.75" y1="350" x2="446.75" y2="356" stroke="#9ca3af" stroke-width="1"/>
  <text x="446.75" y="372" font-size="10" fill="#6b7280" text-anchor="middle">2026-03-24 12</text>
  <line x1="522.10" y1="350" x2="522.10" y2="356" stroke="#9ca3af" stroke-width="1"/>
  <text x="522.10" y="372" font-size="10" fill="#6b7280" text-anchor="middle">2026-03-28 22</text>
  <line x1="597.45" y1="350" x2="597.45" y2="356" stroke="#9ca3af" stroke-width="1"/>
  <text x="597.45" y="372" font-size="10" fill="#6b7280" text-anchor="middle">2026-04-02 12</text>
  <line x1="672.80" y1="350" x2="672.80" y2="356" stroke="#9ca3af" stroke-width="1"/>
  <text x="672.80" y="372" font-size="10" fill="#6b7280" text-anchor="middle">2026-04-06 21</text>
  <line x1="748.15" y1="350" x2="748.15" y2="356" stroke="#9ca3af" stroke-width="1"/>
  <text x="748.15" y="372" font-size="10" fill="#6b7280" text-anchor="middle">2026-04-11 07</text>
  <line x1="823.50" y1="350" x2="823.50" y2="356" stroke="#9ca3af" stroke-width="1"/>
  <text x="823.50" y="372" font-size="10" fill="#6b7280" text-anchor="middle">2026-04-16 06</text>
  <line x1="898.85" y1="350" x2="898.85" y2="356" stroke="#9ca3af" stroke-width="1"/>
  <text x="898.85" y="372" font-size="10" fill="#6b7280" text-anchor="middle">2026-04-20 15</text>
  <line x1="974.20" y1="350" x2="974.20" y2="356" stroke="#9ca3af" stroke-width="1"/>
  <text x="974.20" y="372" font-size="10" fill="#6b7280" text-anchor="middle">2026-04-25 15</text>
  <line x1="980.00" y1="350" x2="980.00" y2="356" stroke="#9ca3af" stroke-width="1"/>
  <text x="980.00" y="372" font-size="10" fill="#6b7280" text-anchor="middle">2026-04-25 21</text>
  <polyline fill="none" stroke="#2563eb" stroke-width="2.5" points="70.00,50.00 71.16,50.12 72.32,50.17 73.48,50.46 74.64,50.00 75.80,266.90 76.96,50.12 78.11,50.08 79.27,177.46 80.43,211.58 81.59,175.34 82.75,304.14 83.91,200.46 85.07,250.94 86.23,300.01 87.39,300.06 88.55,300.01 89.71,300.01 90.87,348.00 92.03,300.01 93.18,249.99 94.34,200.00 95.50,249.99 96.66,249.99 97.82,250.03 98.98,250.03 100.14,250.03 101.30,250.40 102.46,250.90 103.62,250.90 104.78,251.32 105.94,249.94 107.10,300.01 108.25,299.93 109.41,251.03 110.57,300.68 111.73,250.03 112.89,200.00 114.05,249.99 115.21,250.03 116.37,250.03 117.53,250.03 118.69,300.01 119.85,200.04 121.01,250.03 122.17,250.03 123.32,250.03 124.48,249.90 125.64,250.03 126.80,250.03 127.96,250.94 129.12,250.44 130.28,250.03 131.44,250.03 132.60,300.47 133.76,300.01 134.92,300.43 136.08,250.03 137.24,249.99 138.39,300.43 139.55,249.90 140.71,249.99 141.87,249.99 143.03,200.04 144.19,300.01 145.35,300.01 146.51,300.01 147.67,249.90 148.83,300.01 149.99,250.03 151.15,249.99 152.31,199.96 153.46,300.01 154.62,200.00 155.78,250.36 156.94,250.03 158.10,300.01 159.26,300.01 160.42,250.44 161.58,300.01 162.74,250.03 163.90,250.03 165.06,249.99 166.22,250.49 167.38,250.03 168.54,200.04 169.69,300.01 170.85,250.03 172.01,300.01 173.17,250.11 174.33,300.01 175.49,250.03 176.65,250.03 177.81,199.92 178.97,250.03 180.13,250.03 181.29,250.03 182.45,254.36 183.61,300.01 184.76,299.97 185.92,250.36 187.08,299.97 188.24,250.03 189.40,250.03 190.56,250.03 191.72,250.03 192.88,249.99 194.04,200.00 195.20,299.93 196.36,300.01 197.52,299.97 198.68,249.94 199.83,249.99 200.99,249.82 202.15,249.94 203.31,250.28 204.47,207.00 205.63,250.03 206.79,250.32 207.95,250.40 209.11,300.93 210.27,300.01 211.43,300.10 212.59,249.94 213.75,249.99 214.90,250.07 216.06,249.99 217.22,250.03 218.38,249.94 219.54,200.00 220.70,300.39 221.86,300.01 223.02,300.01 224.18,250.44 225.34,300.39 226.50,249.86 227.66,250.11 228.82,201.46 229.97,300.01 231.13,200.83 232.29,250.03 233.45,249.99 234.61,300.26 235.77,300.01 236.93,300.01 238.09,250.03 239.25,250.03 240.41,250.03 241.57,250.03 242.73,249.99 243.89,250.03 245.04,200.00 246.20,300.26 247.36,249.99 248.52,300.01 249.68,249.94 250.84,250.03 252.00,250.03 253.16,250.03 254.32,200.04 255.48,300.01 256.64,249.90 257.80,300.01 258.96,300.01 260.11,300.06 261.27,300.01 262.43,300.01 263.59,243.95 264.75,249.94 265.91,299.97 267.07,300.01 268.23,300.01 269.39,250.03 270.55,300.01 271.71,300.01 272.87,299.97 274.03,249.99 275.18,300.01 276.34,299.93 277.50,300.01 278.66,299.93 279.82,300.01 280.98,300.01 282.14,299.89 283.30,299.97 284.46,250.03 285.62,299.93 286.78,299.89 287.94,299.97 289.10,249.94 290.25,300.01 291.41,300.01 292.57,299.97 293.73,249.99 294.89,299.97 296.05,299.97 297.21,300.06 298.37,300.06 299.53,299.93 300.69,300.01 301.85,300.01 303.01,299.93 304.17,300.01 305.32,300.01 306.48,299.97 307.64,300.01 308.80,300.01 309.96,300.01 311.12,300.01 312.28,249.86 313.44,300.01 314.60,300.10 315.76,299.93 316.92,300.01 318.08,299.93 319.24,300.01 320.39,300.01 321.55,300.01 322.71,300.01 323.87,300.01 325.03,299.97 326.19,300.01 327.35,300.01 328.51,300.01 329.67,300.01 330.83,250.03 331.99,300.01 333.15,300.01 334.31,299.97 335.46,300.01 336.62,300.01 337.78,299.97 338.94,299.97 340.10,300.01 341.26,299.97 342.42,300.01 343.58,299.93 344.74,300.01 345.90,250.03 347.06,300.01 348.22,300.01 349.38,300.01 350.54,300.01 351.69,300.01 352.85,299.89 354.01,300.01 355.17,300.01 356.33,250.07 357.49,300.01 358.65,299.93 359.81,300.01 360.97,299.97 362.13,299.97 363.29,299.97 364.45,250.03 365.61,300.01 366.76,300.01 367.92,300.01 369.08,300.01 370.24,299.97 371.40,300.01 372.56,299.97 373.72,300.01 374.88,299.97 376.04,249.90 377.20,300.01 378.36,300.01 379.52,299.89 380.68,299.97 381.83,299.97 382.99,249.99 384.15,299.97 385.31,299.89 386.47,300.01 387.63,299.97 388.79,299.97 389.95,300.01 391.11,299.97 392.27,249.99 393.43,299.97 394.59,299.97 395.75,300.06 396.90,300.06 398.06,249.94 399.22,300.01 400.38,299.93 401.54,300.01 402.70,300.01 403.86,249.99 405.02,300.01 406.18,300.01 407.34,300.01 408.50,299.93 409.66,299.93 410.82,300.01 411.97,300.01 413.13,249.94 414.29,299.97 415.45,299.97 416.61,300.01 417.77,300.01 418.93,300.01 420.09,249.99 421.25,300.01 422.41,300.01 423.57,300.01 424.73,250.03 425.89,300.01 427.04,300.01 428.20,300.01 429.36,299.97 430.52,300.01 431.68,300.01 432.84,299.97 434.00,299.97 435.16,300.01 436.32,300.01 437.48,299.97 438.64,299.93 439.80,300.01 440.96,300.06 442.11,299.97 443.27,300.01 444.43,250.03 445.59,250.03 446.75,299.93 447.91,299.97 449.07,300.01 450.23,300.01 451.39,300.06 452.55,300.01 453.71,299.93 454.87,300.01 456.03,300.01 457.18,299.97 458.34,299.97 459.50,300.01 460.66,250.03 461.82,300.01 462.98,300.01 464.14,300.01 465.30,299.97 466.46,300.01 467.62,299.97 468.78,300.01 469.94,299.97 471.10,299.97 472.25,299.93 473.41,300.01 474.57,300.01 475.73,299.89 476.89,299.97 478.05,299.97 479.21,300.06 480.37,249.90 481.53,299.89 482.69,300.01 483.85,299.97 485.01,299.97 486.17,299.97 487.32,300.01 488.48,300.01 489.64,299.97 490.80,299.97 491.96,299.97 493.12,250.03 494.28,299.93 495.44,300.01 496.60,300.01 497.76,299.93 498.92,300.01 500.08,300.01 501.24,299.97 502.39,300.01 503.55,300.01 504.71,300.06 505.87,300.01 507.03,299.97 508.19,299.89 509.35,300.01 510.51,300.01 511.67,249.94 512.83,249.94 513.99,300.01 515.15,300.01 516.31,300.01 517.46,300.01 518.62,299.97 519.78,250.03 520.94,300.01 522.10,300.01 523.26,300.01 524.42,300.01 525.58,250.03 526.74,249.99 527.90,300.01 529.06,299.97 530.22,300.01 531.38,299.97 532.54,300.01 533.69,299.97 534.85,299.97 536.01,299.97 537.17,300.06 538.33,249.99 539.49,300.01 540.65,250.03 541.81,249.94 542.97,249.99 544.13,300.01 545.29,300.06 546.45,300.01 547.61,299.97 548.76,299.97 549.92,300.01 551.08,299.93 552.24,299.89 553.40,299.89 554.56,299.89 555.72,299.89 556.88,299.85 558.04,299.85 559.20,299.89 560.36,299.81 561.52,299.81 562.68,299.81 563.83,299.76 564.99,299.76 566.15,299.76 567.31,299.72 568.47,299.68 569.63,299.60 570.79,299.60 571.95,299.60 573.11,299.56 574.27,299.47 575.43,299.43 576.59,299.43 577.75,299.39 578.90,299.47 580.06,259.82 581.22,338.96 582.38,299.31 583.54,299.31 584.70,299.26 585.86,299.68 587.02,299.68 588.18,299.68 589.34,299.64 590.50,299.14 591.66,299.14 592.82,299.10 593.97,299.10 595.13,299.10 596.29,248.07 597.45,299.06 598.61,299.06 599.77,299.06 600.93,299.06 602.09,299.06 603.25,298.97 604.41,298.97 605.57,298.93 606.73,298.97 607.89,298.93 609.04,298.89 610.20,298.89 611.36,298.89 612.52,298.89 613.68,247.78 614.84,298.89 616.00,298.89 617.16,298.85 618.32,298.85 619.48,298.81 620.64,298.81 621.80,298.81 622.96,298.81 624.11,298.81 625.27,298.81 626.43,298.81 627.59,298.81 628.75,298.81 629.91,298.72 631.07,247.45 632.23,247.45 633.39,298.72 634.55,298.72 635.71,298.72 636.87,298.72 638.03,298.72 639.18,298.72 640.34,247.36 641.50,298.68 642.66,247.36 643.82,247.36 644.98,247.36 646.14,298.68 647.30,298.68 648.46,298.68 649.62,298.68 650.78,298.68 651.94,341.67 653.10,307.01 654.25,298.68 655.41,298.68 656.57,298.68 657.73,247.36 658.89,298.64 660.05,247.36 661.21,247.28 662.37,247.20 663.53,298.60 664.69,298.60 665.85,247.03 667.01,298.51 668.17,298.51 669.32,298.51 670.48,298.51 671.64,298.51 672.80,298.51 673.96,298.51 675.12,298.51 676.28,298.51 677.44,298.51 678.60,298.51 679.76,298.51 680.92,298.51 682.08,298.51 683.24,298.51 684.39,298.51 685.55,298.51 686.71,298.51 687.87,298.51 689.03,298.51 690.19,298.51 691.35,298.51 692.51,298.51 693.67,298.51 694.83,298.51 695.99,298.51 697.15,298.47 698.31,298.51 699.46,298.51 700.62,298.47 701.78,298.51 702.94,298.47 704.10,298.51 705.26,298.43 706.42,298.56 707.58,298.43 708.74,298.43 709.90,298.43 711.06,298.43 712.22,298.43 713.38,298.43 714.54,298.43 715.69,298.43 716.85,298.43 718.01,298.43 719.17,298.43 720.33,298.43 721.49,298.43 722.65,298.43 723.81,298.43 724.97,298.43 726.13,298.43 727.29,298.43 728.45,298.43 729.61,298.43 730.76,298.43 731.92,298.43 733.08,298.43 734.24,298.43 735.40,298.43 736.56,298.43 737.72,298.43 738.88,298.43 740.04,298.43 741.20,298.43 742.36,298.43 743.52,298.43 744.68,298.43 745.83,298.43 746.99,298.39 748.15,298.39 749.31,298.43 750.47,298.43 751.63,298.39 752.79,298.39 753.95,298.39 755.11,298.43 756.27,298.43 757.43,298.43 758.59,246.82 759.75,298.43 760.90,246.78 762.06,246.78 763.22,246.78 764.38,246.70 765.54,246.78 766.70,298.39 767.86,298.39 769.02,298.39 770.18,298.39 771.34,298.39 772.50,246.78 773.66,298.39 774.82,298.39 775.97,298.39 777.13,298.39 778.29,298.39 779.45,246.78 780.61,246.78 781.77,298.39 782.93,298.39 784.09,298.39 785.25,298.39 786.41,298.39 787.57,298.39 788.73,298.39 789.89,298.39 791.04,298.39 792.20,298.39 793.36,298.39 794.52,298.39 795.68,298.39 796.84,298.39 798.00,298.35 799.16,298.39 800.32,298.39 801.48,298.35 802.64,298.35 803.80,298.35 804.96,298.35 806.11,298.35 807.27,298.35 808.43,298.35 809.59,298.35 810.75,298.35 811.91,298.35 813.07,298.35 814.23,298.35 815.39,298.35 816.55,298.35 817.71,298.35 818.87,298.35 820.03,298.35 821.18,298.35 822.34,298.35 823.50,298.35 824.66,298.35 825.82,298.35 826.98,298.35 828.14,298.35 829.30,298.35 830.46,298.35 831.62,298.35 832.78,298.35 833.94,298.35 835.10,298.35 836.25,298.35 837.41,298.35 838.57,298.35 839.73,298.35 840.89,298.35 842.05,298.35 843.21,298.35 844.37,298.35 845.53,298.35 846.69,298.35 847.85,298.35 849.01,298.35 850.17,298.35 851.32,298.35 852.48,298.35 853.64,298.35 854.80,298.35 855.96,298.35 857.12,298.35 858.28,298.35 859.44,298.35 860.60,298.35 861.76,298.39 862.92,298.39 864.08,298.39 865.24,246.78 866.39,298.39 867.55,298.39 868.71,298.39 869.87,298.39 871.03,298.39 872.19,298.39 873.35,298.39 874.51,246.78 875.67,298.39 876.83,298.39 877.99,298.39 879.15,298.39 880.31,298.39 881.46,298.39 882.62,298.39 883.78,246.78 884.94,298.39 886.10,298.39 887.26,298.39 888.42,298.39 889.58,298.39 890.74,298.39 891.90,298.39 893.06,298.39 894.22,298.39 895.38,298.39 896.54,298.39 897.69,298.35 898.85,298.39 900.01,298.39 901.17,298.39 902.33,298.35 903.49,298.35 904.65,298.35 905.81,298.35 906.97,298.35 908.13,298.35 909.29,298.35 910.45,298.35 911.61,298.35 912.76,298.35 913.92,298.35 915.08,298.35 916.24,298.35 917.40,298.35 918.56,298.35 919.72,298.35 920.88,298.39 922.04,298.39 923.20,298.39 924.36,298.39 925.52,298.39 926.68,298.39 927.83,298.35 928.99,298.39 930.15,298.39 931.31,298.39 932.47,298.39 933.63,298.39 934.79,298.39 935.95,298.39 937.11,298.39 938.27,298.39 939.43,298.35 940.59,298.39 941.75,298.39 942.90,298.39 944.06,298.39 945.22,298.39 946.38,298.39 947.54,298.39 948.70,298.39 949.86,298.39 951.02,298.39 952.18,298.39 953.34,298.39 954.50,298.39 955.66,298.39 956.82,298.39 957.97,298.39 959.13,298.35 960.29,298.35 961.45,298.39 962.61,298.39 963.77,298.39 964.93,298.39 966.09,298.39 967.25,298.39 968.41,298.39 969.57,298.39 970.73,298.39 971.89,298.39 973.04,298.35 974.20,298.35 975.36,298.39 976.52,298.39 977.68,298.39 978.84,298.39 980.00,298.39"/>
  <circle cx="70.00" cy="50.00" r="2.5" fill="#2563eb"/>
  <circle cx="71.16" cy="50.12" r="2.5" fill="#2563eb"/>
  <circle cx="72.32" cy="50.17" r="2.5" fill="#2563eb"/>
  <circle cx="73.48" cy="50.46" r="2.5" fill="#2563eb"/>
  <circle cx="74.64" cy="50.00" r="2.5" fill="#2563eb"/>
  <circle cx="75.80" cy="266.90" r="2.5" fill="#2563eb"/>
  <circle cx="76.96" cy="50.12" r="2.5" fill="#2563eb"/>
  <circle cx="78.11" cy="50.08" r="2.5" fill="#2563eb"/>
  <circle cx="79.27" cy="177.46" r="2.5" fill="#2563eb"/>
  <circle cx="80.43" cy="211.58" r="2.5" fill="#2563eb"/>
  <circle cx="81.59" cy="175.34" r="2.5" fill="#2563eb"/>
  <circle cx="82.75" cy="304.14" r="2.5" fill="#2563eb"/>
  <circle cx="83.91" cy="200.46" r="2.5" fill="#2563eb"/>
  <circle cx="85.07" cy="250.94" r="2.5" fill="#2563eb"/>
  <circle cx="86.23" cy="300.01" r="2.5" fill="#2563eb"/>
  <circle cx="87.39" cy="300.06" r="2.5" fill="#2563eb"/>
  <circle cx="88.55" cy="300.01" r="2.5" fill="#2563eb"/>
  <circle cx="89.71" cy="300.01" r="2.5" fill="#2563eb"/>
  <circle cx="90.87" cy="348.00" r="2.5" fill="#2563eb"/>
  <circle cx="92.03" cy="300.01" r="2.5" fill="#2563eb"/>
  <circle cx="93.18" cy="249.99" r="2.5" fill="#2563eb"/>
  <circle cx="94.34" cy="200.00" r="2.5" fill="#2563eb"/>
  <circle cx="95.50" cy="249.99" r="2.5" fill="#2563eb"/>
  <circle cx="96.66" cy="249.99" r="2.5" fill="#2563eb"/>
  <circle cx="97.82" cy="250.03" r="2.5" fill="#2563eb"/>
  <circle cx="98.98" cy="250.03" r="2.5" fill="#2563eb"/>
  <circle cx="100.14" cy="250.03" r="2.5" fill="#2563eb"/>
  <circle cx="101.30" cy="250.40" r="2.5" fill="#2563eb"/>
  <circle cx="102.46" cy="250.90" r="2.5" fill="#2563eb"/>
  <circle cx="103.62" cy="250.90" r="2.5" fill="#2563eb"/>
  <circle cx="104.78" cy="251.32" r="2.5" fill="#2563eb"/>
  <circle cx="105.94" cy="249.94" r="2.5" fill="#2563eb"/>
  <circle cx="107.10" cy="300.01" r="2.5" fill="#2563eb"/>
  <circle cx="108.25" cy="299.93" r="2.5" fill="#2563eb"/>
  <circle cx="109.41" cy="251.03" r="2.5" fill="#2563eb"/>
  <circle cx="110.57" cy="300.68" r="2.5" fill="#2563eb"/>
  <circle cx="111.73" cy="250.03" r="2.5" fill="#2563eb"/>
  <circle cx="112.89" cy="200.00" r="2.5" fill="#2563eb"/>
  <circle cx="114.05" cy="249.99" r="2.5" fill="#2563eb"/>
  <circle cx="115.21" cy="250.03" r="2.5" fill="#2563eb"/>
  <circle cx="116.37" cy="250.03" r="2.5" fill="#2563eb"/>
  <circle cx="117.53" cy="250.03" r="2.5" fill="#2563eb"/>
  <circle cx="118.69" cy="300.01" r="2.5" fill="#2563eb"/>
  <circle cx="119.85" cy="200.04" r="2.5" fill="#2563eb"/>
  <circle cx="121.01" cy="250.03" r="2.5" fill="#2563eb"/>
  <circle cx="122.17" cy="250.03" r="2.5" fill="#2563eb"/>
  <circle cx="123.32" cy="250.03" r="2.5" fill="#2563eb"/>
  <circle cx="124.48" cy="249.90" r="2.5" fill="#2563eb"/>
  <circle cx="125.64" cy="250.03" r="2.5" fill="#2563eb"/>
  <circle cx="126.80" cy="250.03" r="2.5" fill="#2563eb"/>
  <circle cx="127.96" cy="250.94" r="2.5" fill="#2563eb"/>
  <circle cx="129.12" cy="250.44" r="2.5" fill="#2563eb"/>
  <circle cx="130.28" cy="250.03" r="2.5" fill="#2563eb"/>
  <circle cx="131.44" cy="250.03" r="2.5" fill="#2563eb"/>
  <circle cx="132.60" cy="300.47" r="2.5" fill="#2563eb"/>
  <circle cx="133.76" cy="300.01" r="2.5" fill="#2563eb"/>
  <circle cx="134.92" cy="300.43" r="2.5" fill="#2563eb"/>
  <circle cx="136.08" cy="250.03" r="2.5" fill="#2563eb"/>
  <circle cx="137.24" cy="249.99" r="2.5" fill="#2563eb"/>
  <circle cx="138.39" cy="300.43" r="2.5" fill="#2563eb"/>
  <circle cx="139.55" cy="249.90" r="2.5" fill="#2563eb"/>
  <circle cx="140.71" cy="249.99" r="2.5" fill="#2563eb"/>
  <circle cx="141.87" cy="249.99" r="2.5" fill="#2563eb"/>
  <circle cx="143.03" cy="200.04" r="2.5" fill="#2563eb"/>
  <circle cx="144.19" cy="300.01" r="2.5" fill="#2563eb"/>
  <circle cx="145.35" cy="300.01" r="2.5" fill="#2563eb"/>
  <circle cx="146.51" cy="300.01" r="2.5" fill="#2563eb"/>
  <circle cx="147.67" cy="249.90" r="2.5" fill="#2563eb"/>
  <circle cx="148.83" cy="300.01" r="2.5" fill="#2563eb"/>
  <circle cx="149.99" cy="250.03" r="2.5" fill="#2563eb"/>
  <circle cx="151.15" cy="249.99" r="2.5" fill="#2563eb"/>
  <circle cx="152.31" cy="199.96" r="2.5" fill="#2563eb"/>
  <circle cx="153.46" cy="300.01" r="2.5" fill="#2563eb"/>
  <circle cx="154.62" cy="200.00" r="2.5" fill="#2563eb"/>
  <circle cx="155.78" cy="250.36" r="2.5" fill="#2563eb"/>
  <circle cx="156.94" cy="250.03" r="2.5" fill="#2563eb"/>
  <circle cx="158.10" cy="300.01" r="2.5" fill="#2563eb"/>
  <circle cx="159.26" cy="300.01" r="2.5" fill="#2563eb"/>
  <circle cx="160.42" cy="250.44" r="2.5" fill="#2563eb"/>
  <circle cx="161.58" cy="300.01" r="2.5" fill="#2563eb"/>
  <circle cx="162.74" cy="250.03" r="2.5" fill="#2563eb"/>
  <circle cx="163.90" cy="250.03" r="2.5" fill="#2563eb"/>
  <circle cx="165.06" cy="249.99" r="2.5" fill="#2563eb"/>
  <circle cx="166.22" cy="250.49" r="2.5" fill="#2563eb"/>
  <circle cx="167.38" cy="250.03" r="2.5" fill="#2563eb"/>
  <circle cx="168.54" cy="200.04" r="2.5" fill="#2563eb"/>
  <circle cx="169.69" cy="300.01" r="2.5" fill="#2563eb"/>
  <circle cx="170.85" cy="250.03" r="2.5" fill="#2563eb"/>
  <circle cx="172.01" cy="300.01" r="2.5" fill="#2563eb"/>
  <circle cx="173.17" cy="250.11" r="2.5" fill="#2563eb"/>
  <circle cx="174.33" cy="300.01" r="2.5" fill="#2563eb"/>
  <circle cx="175.49" cy="250.03" r="2.5" fill="#2563eb"/>
  <circle cx="176.65" cy="250.03" r="2.5" fill="#2563eb"/>
  <circle cx="177.81" cy="199.92" r="2.5" fill="#2563eb"/>
  <circle cx="178.97" cy="250.03" r="2.5" fill="#2563eb"/>
  <circle cx="180.13" cy="250.03" r="2.5" fill="#2563eb"/>
  <circle cx="181.29" cy="250.03" r="2.5" fill="#2563eb"/>
  <circle cx="182.45" cy="254.36" r="2.5" fill="#2563eb"/>
  <circle cx="183.61" cy="300.01" r="2.5" fill="#2563eb"/>
  <circle cx="184.76" cy="299.97" r="2.5" fill="#2563eb"/>
  <circle cx="185.92" cy="250.36" r="2.5" fill="#2563eb"/>
  <circle cx="187.08" cy="299.97" r="2.5" fill="#2563eb"/>
  <circle cx="188.24" cy="250.03" r="2.5" fill="#2563eb"/>
  <circle cx="189.40" cy="250.03" r="2.5" fill="#2563eb"/>
  <circle cx="190.56" cy="250.03" r="2.5" fill="#2563eb"/>
  <circle cx="191.72" cy="250.03" r="2.5" fill="#2563eb"/>
  <circle cx="192.88" cy="249.99" r="2.5" fill="#2563eb"/>
  <circle cx="194.04" cy="200.00" r="2.5" fill="#2563eb"/>
  <circle cx="195.20" cy="299.93" r="2.5" fill="#2563eb"/>
  <circle cx="196.36" cy="300.01" r="2.5" fill="#2563eb"/>
  <circle cx="197.52" cy="299.97" r="2.5" fill="#2563eb"/>
  <circle cx="198.68" cy="249.94" r="2.5" fill="#2563eb"/>
  <circle cx="199.83" cy="249.99" r="2.5" fill="#2563eb"/>
  <circle cx="200.99" cy="249.82" r="2.5" fill="#2563eb"/>
  <circle cx="202.15" cy="249.94" r="2.5" fill="#2563eb"/>
  <circle cx="203.31" cy="250.28" r="2.5" fill="#2563eb"/>
  <circle cx="204.47" cy="207.00" r="2.5" fill="#2563eb"/>
  <circle cx="205.63" cy="250.03" r="2.5" fill="#2563eb"/>
  <circle cx="206.79" cy="250.32" r="2.5" fill="#2563eb"/>
  <circle cx="207.95" cy="250.40" r="2.5" fill="#2563eb"/>
  <circle cx="209.11" cy="300.93" r="2.5" fill="#2563eb"/>
  <circle cx="210.27" cy="300.01" r="2.5" fill="#2563eb"/>
  <circle cx="211.43" cy="300.10" r="2.5" fill="#2563eb"/>
  <circle cx="212.59" cy="249.94" r="2.5" fill="#2563eb"/>
  <circle cx="213.75" cy="249.99" r="2.5" fill="#2563eb"/>
  <circle cx="214.90" cy="250.07" r="2.5" fill="#2563eb"/>
  <circle cx="216.06" cy="249.99" r="2.5" fill="#2563eb"/>
  <circle cx="217.22" cy="250.03" r="2.5" fill="#2563eb"/>
  <circle cx="218.38" cy="249.94" r="2.5" fill="#2563eb"/>
  <circle cx="219.54" cy="200.00" r="2.5" fill="#2563eb"/>
  <circle cx="220.70" cy="300.39" r="2.5" fill="#2563eb"/>
  <circle cx="221.86" cy="300.01" r="2.5" fill="#2563eb"/>
  <circle cx="223.02" cy="300.01" r="2.5" fill="#2563eb"/>
  <circle cx="224.18" cy="250.44" r="2.5" fill="#2563eb"/>
  <circle cx="225.34" cy="300.39" r="2.5" fill="#2563eb"/>
  <circle cx="226.50" cy="249.86" r="2.5" fill="#2563eb"/>
  <circle cx="227.66" cy="250.11" r="2.5" fill="#2563eb"/>
  <circle cx="228.82" cy="201.46" r="2.5" fill="#2563eb"/>
  <circle cx="229.97" cy="300.01" r="2.5" fill="#2563eb"/>
  <circle cx="231.13" cy="200.83" r="2.5" fill="#2563eb"/>
  <circle cx="232.29" cy="250.03" r="2.5" fill="#2563eb"/>
  <circle cx="233.45" cy="249.99" r="2.5" fill="#2563eb"/>
  <circle cx="234.61" cy="300.26" r="2.5" fill="#2563eb"/>
  <circle cx="235.77" cy="300.01" r="2.5" fill="#2563eb"/>
  <circle cx="236.93" cy="300.01" r="2.5" fill="#2563eb"/>
  <circle cx="238.09" cy="250.03" r="2.5" fill="#2563eb"/>
  <circle cx="239.25" cy="250.03" r="2.5" fill="#2563eb"/>
  <circle cx="240.41" cy="250.03" r="2.5" fill="#2563eb"/>
  <circle cx="241.57" cy="250.03" r="2.5" fill="#2563eb"/>
  <circle cx="242.73" cy="249.99" r="2.5" fill="#2563eb"/>
  <circle cx="243.89" cy="250.03" r="2.5" fill="#2563eb"/>
  <circle cx="245.04" cy="200.00" r="2.5" fill="#2563eb"/>
  <circle cx="246.20" cy="300.26" r="2.5" fill="#2563eb"/>
  <circle cx="247.36" cy="249.99" r="2.5" fill="#2563eb"/>
  <circle cx="248.52" cy="300.01" r="2.5" fill="#2563eb"/>
  <circle cx="249.68" cy="249.94" r="2.5" fill="#2563eb"/>
  <circle cx="250.84" cy="250.03" r="2.5" fill="#2563eb"/>
  <circle cx="252.00" cy="250.03" r="2.5" fill="#2563eb"/>
  <circle cx="253.16" cy="250.03" r="2.5" fill="#2563eb"/>
  <circle cx="254.32" cy="200.04" r="2.5" fill="#2563eb"/>
  <circle cx="255.48" cy="300.01" r="2.5" fill="#2563eb"/>
  <circle cx="256.64" cy="249.90" r="2.5" fill="#2563eb"/>
  <circle cx="257.80" cy="300.01" r="2.5" fill="#2563eb"/>
  <circle cx="258.96" cy="300.01" r="2.5" fill="#2563eb"/>
  <circle cx="260.11" cy="300.06" r="2.5" fill="#2563eb"/>
  <circle cx="261.27" cy="300.01" r="2.5" fill="#2563eb"/>
  <circle cx="262.43" cy="300.01" r="2.5" fill="#2563eb"/>
  <circle cx="263.59" cy="243.95" r="2.5" fill="#2563eb"/>
  <circle cx="264.75" cy="249.94" r="2.5" fill="#2563eb"/>
  <circle cx="265.91" cy="299.97" r="2.5" fill="#2563eb"/>
  <circle cx="267.07" cy="300.01" r="2.5" fill="#2563eb"/>
  <circle cx="268.23" cy="300.01" r="2.5" fill="#2563eb"/>
  <circle cx="269.39" cy="250.03" r="2.5" fill="#2563eb"/>
  <circle cx="270.55" cy="300.01" r="2.5" fill="#2563eb"/>
  <circle cx="271.71" cy="300.01" r="2.5" fill="#2563eb"/>
  <circle cx="272.87" cy="299.97" r="2.5" fill="#2563eb"/>
  <circle cx="274.03" cy="249.99" r="2.5" fill="#2563eb"/>
  <circle cx="275.18" cy="300.01" r="2.5" fill="#2563eb"/>
  <circle cx="276.34" cy="299.93" r="2.5" fill="#2563eb"/>
  <circle cx="277.50" cy="300.01" r="2.5" fill="#2563eb"/>
  <circle cx="278.66" cy="299.93" r="2.5" fill="#2563eb"/>
  <circle cx="279.82" cy="300.01" r="2.5" fill="#2563eb"/>
  <circle cx="280.98" cy="300.01" r="2.5" fill="#2563eb"/>
  <circle cx="282.14" cy="299.89" r="2.5" fill="#2563eb"/>
  <circle cx="283.30" cy="299.97" r="2.5" fill="#2563eb"/>
  <circle cx="284.46" cy="250.03" r="2.5" fill="#2563eb"/>
  <circle cx="285.62" cy="299.93" r="2.5" fill="#2563eb"/>
  <circle cx="286.78" cy="299.89" r="2.5" fill="#2563eb"/>
  <circle cx="287.94" cy="299.97" r="2.5" fill="#2563eb"/>
  <circle cx="289.10" cy="249.94" r="2.5" fill="#2563eb"/>
  <circle cx="290.25" cy="300.01" r="2.5" fill="#2563eb"/>
  <circle cx="291.41" cy="300.01" r="2.5" fill="#2563eb"/>
  <circle cx="292.57" cy="299.97" r="2.5" fill="#2563eb"/>
  <circle cx="293.73" cy="249.99" r="2.5" fill="#2563eb"/>
  <circle cx="294.89" cy="299.97" r="2.5" fill="#2563eb"/>
  <circle cx="296.05" cy="299.97" r="2.5" fill="#2563eb"/>
  <circle cx="297.21" cy="300.06" r="2.5" fill="#2563eb"/>
  <circle cx="298.37" cy="300.06" r="2.5" fill="#2563eb"/>
  <circle cx="299.53" cy="299.93" r="2.5" fill="#2563eb"/>
  <circle cx="300.69" cy="300.01" r="2.5" fill="#2563eb"/>
  <circle cx="301.85" cy="300.01" r="2.5" fill="#2563eb"/>
  <circle cx="303.01" cy="299.93" r="2.5" fill="#2563eb"/>
  <circle cx="304.17" cy="300.01" r="2.5" fill="#2563eb"/>
  <circle cx="305.32" cy="300.01" r="2.5" fill="#2563eb"/>
  <circle cx="306.48" cy="299.97" r="2.5" fill="#2563eb"/>
  <circle cx="307.64" cy="300.01" r="2.5" fill="#2563eb"/>
  <circle cx="308.80" cy="300.01" r="2.5" fill="#2563eb"/>
  <circle cx="309.96" cy="300.01" r="2.5" fill="#2563eb"/>
  <circle cx="311.12" cy="300.01" r="2.5" fill="#2563eb"/>
  <circle cx="312.28" cy="249.86" r="2.5" fill="#2563eb"/>
  <circle cx="313.44" cy="300.01" r="2.5" fill="#2563eb"/>
  <circle cx="314.60" cy="300.10" r="2.5" fill="#2563eb"/>
  <circle cx="315.76" cy="299.93" r="2.5" fill="#2563eb"/>
  <circle cx="316.92" cy="300.01" r="2.5" fill="#2563eb"/>
  <circle cx="318.08" cy="299.93" r="2.5" fill="#2563eb"/>
  <circle cx="319.24" cy="300.01" r="2.5" fill="#2563eb"/>
  <circle cx="320.39" cy="300.01" r="2.5" fill="#2563eb"/>
  <circle cx="321.55" cy="300.01" r="2.5" fill="#2563eb"/>
  <circle cx="322.71" cy="300.01" r="2.5" fill="#2563eb"/>
  <circle cx="323.87" cy="300.01" r="2.5" fill="#2563eb"/>
  <circle cx="325.03" cy="299.97" r="2.5" fill="#2563eb"/>
  <circle cx="326.19" cy="300.01" r="2.5" fill="#2563eb"/>
  <circle cx="327.35" cy="300.01" r="2.5" fill="#2563eb"/>
  <circle cx="328.51" cy="300.01" r="2.5" fill="#2563eb"/>
  <circle cx="329.67" cy="300.01" r="2.5" fill="#2563eb"/>
  <circle cx="330.83" cy="250.03" r="2.5" fill="#2563eb"/>
  <circle cx="331.99" cy="300.01" r="2.5" fill="#2563eb"/>
  <circle cx="333.15" cy="300.01" r="2.5" fill="#2563eb"/>
  <circle cx="334.31" cy="299.97" r="2.5" fill="#2563eb"/>
  <circle cx="335.46" cy="300.01" r="2.5" fill="#2563eb"/>
  <circle cx="336.62" cy="300.01" r="2.5" fill="#2563eb"/>
  <circle cx="337.78" cy="299.97" r="2.5" fill="#2563eb"/>
  <circle cx="338.94" cy="299.97" r="2.5" fill="#2563eb"/>
  <circle cx="340.10" cy="300.01" r="2.5" fill="#2563eb"/>
  <circle cx="341.26" cy="299.97" r="2.5" fill="#2563eb"/>
  <circle cx="342.42" cy="300.01" r="2.5" fill="#2563eb"/>
  <circle cx="343.58" cy="299.93" r="2.5" fill="#2563eb"/>
  <circle cx="344.74" cy="300.01" r="2.5" fill="#2563eb"/>
  <circle cx="345.90" cy="250.03" r="2.5" fill="#2563eb"/>
  <circle cx="347.06" cy="300.01" r="2.5" fill="#2563eb"/>
  <circle cx="348.22" cy="300.01" r="2.5" fill="#2563eb"/>
  <circle cx="349.38" cy="300.01" r="2.5" fill="#2563eb"/>
  <circle cx="350.54" cy="300.01" r="2.5" fill="#2563eb"/>
  <circle cx="351.69" cy="300.01" r="2.5" fill="#2563eb"/>
  <circle cx="352.85" cy="299.89" r="2.5" fill="#2563eb"/>
  <circle cx="354.01" cy="300.01" r="2.5" fill="#2563eb"/>
  <circle cx="355.17" cy="300.01" r="2.5" fill="#2563eb"/>
  <circle cx="356.33" cy="250.07" r="2.5" fill="#2563eb"/>
  <circle cx="357.49" cy="300.01" r="2.5" fill="#2563eb"/>
  <circle cx="358.65" cy="299.93" r="2.5" fill="#2563eb"/>
  <circle cx="359.81" cy="300.01" r="2.5" fill="#2563eb"/>
  <circle cx="360.97" cy="299.97" r="2.5" fill="#2563eb"/>
  <circle cx="362.13" cy="299.97" r="2.5" fill="#2563eb"/>
  <circle cx="363.29" cy="299.97" r="2.5" fill="#2563eb"/>
  <circle cx="364.45" cy="250.03" r="2.5" fill="#2563eb"/>
  <circle cx="365.61" cy="300.01" r="2.5" fill="#2563eb"/>
  <circle cx="366.76" cy="300.01" r="2.5" fill="#2563eb"/>
  <circle cx="367.92" cy="300.01" r="2.5" fill="#2563eb"/>
  <circle cx="369.08" cy="300.01" r="2.5" fill="#2563eb"/>
  <circle cx="370.24" cy="299.97" r="2.5" fill="#2563eb"/>
  <circle cx="371.40" cy="300.01" r="2.5" fill="#2563eb"/>
  <circle cx="372.56" cy="299.97" r="2.5" fill="#2563eb"/>
  <circle cx="373.72" cy="300.01" r="2.5" fill="#2563eb"/>
  <circle cx="374.88" cy="299.97" r="2.5" fill="#2563eb"/>
  <circle cx="376.04" cy="249.90" r="2.5" fill="#2563eb"/>
  <circle cx="377.20" cy="300.01" r="2.5" fill="#2563eb"/>
  <circle cx="378.36" cy="300.01" r="2.5" fill="#2563eb"/>
  <circle cx="379.52" cy="299.89" r="2.5" fill="#2563eb"/>
  <circle cx="380.68" cy="299.97" r="2.5" fill="#2563eb"/>
  <circle cx="381.83" cy="299.97" r="2.5" fill="#2563eb"/>
  <circle cx="382.99" cy="249.99" r="2.5" fill="#2563eb"/>
  <circle cx="384.15" cy="299.97" r="2.5" fill="#2563eb"/>
  <circle cx="385.31" cy="299.89" r="2.5" fill="#2563eb"/>
  <circle cx="386.47" cy="300.01" r="2.5" fill="#2563eb"/>
  <circle cx="387.63" cy="299.97" r="2.5" fill="#2563eb"/>
  <circle cx="388.79" cy="299.97" r="2.5" fill="#2563eb"/>
  <circle cx="389.95" cy="300.01" r="2.5" fill="#2563eb"/>
  <circle cx="391.11" cy="299.97" r="2.5" fill="#2563eb"/>
  <circle cx="392.27" cy="249.99" r="2.5" fill="#2563eb"/>
  <circle cx="393.43" cy="299.97" r="2.5" fill="#2563eb"/>
  <circle cx="394.59" cy="299.97" r="2.5" fill="#2563eb"/>
  <circle cx="395.75" cy="300.06" r="2.5" fill="#2563eb"/>
  <circle cx="396.90" cy="300.06" r="2.5" fill="#2563eb"/>
  <circle cx="398.06" cy="249.94" r="2.5" fill="#2563eb"/>
  <circle cx="399.22" cy="300.01" r="2.5" fill="#2563eb"/>
  <circle cx="400.38" cy="299.93" r="2.5" fill="#2563eb"/>
  <circle cx="401.54" cy="300.01" r="2.5" fill="#2563eb"/>
  <circle cx="402.70" cy="300.01" r="2.5" fill="#2563eb"/>
  <circle cx="403.86" cy="249.99" r="2.5" fill="#2563eb"/>
  <circle cx="405.02" cy="300.01" r="2.5" fill="#2563eb"/>
  <circle cx="406.18" cy="300.01" r="2.5" fill="#2563eb"/>
  <circle cx="407.34" cy="300.01" r="2.5" fill="#2563eb"/>
  <circle cx="408.50" cy="299.93" r="2.5" fill="#2563eb"/>
  <circle cx="409.66" cy="299.93" r="2.5" fill="#2563eb"/>
  <circle cx="410.82" cy="300.01" r="2.5" fill="#2563eb"/>
  <circle cx="411.97" cy="300.01" r="2.5" fill="#2563eb"/>
  <circle cx="413.13" cy="249.94" r="2.5" fill="#2563eb"/>
  <circle cx="414.29" cy="299.97" r="2.5" fill="#2563eb"/>
  <circle cx="415.45" cy="299.97" r="2.5" fill="#2563eb"/>
  <circle cx="416.61" cy="300.01" r="2.5" fill="#2563eb"/>
  <circle cx="417.77" cy="300.01" r="2.5" fill="#2563eb"/>
  <circle cx="418.93" cy="300.01" r="2.5" fill="#2563eb"/>
  <circle cx="420.09" cy="249.99" r="2.5" fill="#2563eb"/>
  <circle cx="421.25" cy="300.01" r="2.5" fill="#2563eb"/>
  <circle cx="422.41" cy="300.01" r="2.5" fill="#2563eb"/>
  <circle cx="423.57" cy="300.01" r="2.5" fill="#2563eb"/>
  <circle cx="424.73" cy="250.03" r="2.5" fill="#2563eb"/>
  <circle cx="425.89" cy="300.01" r="2.5" fill="#2563eb"/>
  <circle cx="427.04" cy="300.01" r="2.5" fill="#2563eb"/>
  <circle cx="428.20" cy="300.01" r="2.5" fill="#2563eb"/>
  <circle cx="429.36" cy="299.97" r="2.5" fill="#2563eb"/>
  <circle cx="430.52" cy="300.01" r="2.5" fill="#2563eb"/>
  <circle cx="431.68" cy="300.01" r="2.5" fill="#2563eb"/>
  <circle cx="432.84" cy="299.97" r="2.5" fill="#2563eb"/>
  <circle cx="434.00" cy="299.97" r="2.5" fill="#2563eb"/>
  <circle cx="435.16" cy="300.01" r="2.5" fill="#2563eb"/>
  <circle cx="436.32" cy="300.01" r="2.5" fill="#2563eb"/>
  <circle cx="437.48" cy="299.97" r="2.5" fill="#2563eb"/>
  <circle cx="438.64" cy="299.93" r="2.5" fill="#2563eb"/>
  <circle cx="439.80" cy="300.01" r="2.5" fill="#2563eb"/>
  <circle cx="440.96" cy="300.06" r="2.5" fill="#2563eb"/>
  <circle cx="442.11" cy="299.97" r="2.5" fill="#2563eb"/>
  <circle cx="443.27" cy="300.01" r="2.5" fill="#2563eb"/>
  <circle cx="444.43" cy="250.03" r="2.5" fill="#2563eb"/>
  <circle cx="445.59" cy="250.03" r="2.5" fill="#2563eb"/>
  <circle cx="446.75" cy="299.93" r="2.5" fill="#2563eb"/>
  <circle cx="447.91" cy="299.97" r="2.5" fill="#2563eb"/>
  <circle cx="449.07" cy="300.01" r="2.5" fill="#2563eb"/>
  <circle cx="450.23" cy="300.01" r="2.5" fill="#2563eb"/>
  <circle cx="451.39" cy="300.06" r="2.5" fill="#2563eb"/>
  <circle cx="452.55" cy="300.01" r="2.5" fill="#2563eb"/>
  <circle cx="453.71" cy="299.93" r="2.5" fill="#2563eb"/>
  <circle cx="454.87" cy="300.01" r="2.5" fill="#2563eb"/>
  <circle cx="456.03" cy="300.01" r="2.5" fill="#2563eb"/>
  <circle cx="457.18" cy="299.97" r="2.5" fill="#2563eb"/>
  <circle cx="458.34" cy="299.97" r="2.5" fill="#2563eb"/>
  <circle cx="459.50" cy="300.01" r="2.5" fill="#2563eb"/>
  <circle cx="460.66" cy="250.03" r="2.5" fill="#2563eb"/>
  <circle cx="461.82" cy="300.01" r="2.5" fill="#2563eb"/>
  <circle cx="462.98" cy="300.01" r="2.5" fill="#2563eb"/>
  <circle cx="464.14" cy="300.01" r="2.5" fill="#2563eb"/>
  <circle cx="465.30" cy="299.97" r="2.5" fill="#2563eb"/>
  <circle cx="466.46" cy="300.01" r="2.5" fill="#2563eb"/>
  <circle cx="467.62" cy="299.97" r="2.5" fill="#2563eb"/>
  <circle cx="468.78" cy="300.01" r="2.5" fill="#2563eb"/>
  <circle cx="469.94" cy="299.97" r="2.5" fill="#2563eb"/>
  <circle cx="471.10" cy="299.97" r="2.5" fill="#2563eb"/>
  <circle cx="472.25" cy="299.93" r="2.5" fill="#2563eb"/>
  <circle cx="473.41" cy="300.01" r="2.5" fill="#2563eb"/>
  <circle cx="474.57" cy="300.01" r="2.5" fill="#2563eb"/>
  <circle cx="475.73" cy="299.89" r="2.5" fill="#2563eb"/>
  <circle cx="476.89" cy="299.97" r="2.5" fill="#2563eb"/>
  <circle cx="478.05" cy="299.97" r="2.5" fill="#2563eb"/>
  <circle cx="479.21" cy="300.06" r="2.5" fill="#2563eb"/>
  <circle cx="480.37" cy="249.90" r="2.5" fill="#2563eb"/>
  <circle cx="481.53" cy="299.89" r="2.5" fill="#2563eb"/>
  <circle cx="482.69" cy="300.01" r="2.5" fill="#2563eb"/>
  <circle cx="483.85" cy="299.97" r="2.5" fill="#2563eb"/>
  <circle cx="485.01" cy="299.97" r="2.5" fill="#2563eb"/>
  <circle cx="486.17" cy="299.97" r="2.5" fill="#2563eb"/>
  <circle cx="487.32" cy="300.01" r="2.5" fill="#2563eb"/>
  <circle cx="488.48" cy="300.01" r="2.5" fill="#2563eb"/>
  <circle cx="489.64" cy="299.97" r="2.5" fill="#2563eb"/>
  <circle cx="490.80" cy="299.97" r="2.5" fill="#2563eb"/>
  <circle cx="491.96" cy="299.97" r="2.5" fill="#2563eb"/>
  <circle cx="493.12" cy="250.03" r="2.5" fill="#2563eb"/>
  <circle cx="494.28" cy="299.93" r="2.5" fill="#2563eb"/>
  <circle cx="495.44" cy="300.01" r="2.5" fill="#2563eb"/>
  <circle cx="496.60" cy="300.01" r="2.5" fill="#2563eb"/>
  <circle cx="497.76" cy="299.93" r="2.5" fill="#2563eb"/>
  <circle cx="498.92" cy="300.01" r="2.5" fill="#2563eb"/>
  <circle cx="500.08" cy="300.01" r="2.5" fill="#2563eb"/>
  <circle cx="501.24" cy="299.97" r="2.5" fill="#2563eb"/>
  <circle cx="502.39" cy="300.01" r="2.5" fill="#2563eb"/>
  <circle cx="503.55" cy="300.01" r="2.5" fill="#2563eb"/>
  <circle cx="504.71" cy="300.06" r="2.5" fill="#2563eb"/>
  <circle cx="505.87" cy="300.01" r="2.5" fill="#2563eb"/>
  <circle cx="507.03" cy="299.97" r="2.5" fill="#2563eb"/>
  <circle cx="508.19" cy="299.89" r="2.5" fill="#2563eb"/>
  <circle cx="509.35" cy="300.01" r="2.5" fill="#2563eb"/>
  <circle cx="510.51" cy="300.01" r="2.5" fill="#2563eb"/>
  <circle cx="511.67" cy="249.94" r="2.5" fill="#2563eb"/>
  <circle cx="512.83" cy="249.94" r="2.5" fill="#2563eb"/>
  <circle cx="513.99" cy="300.01" r="2.5" fill="#2563eb"/>
  <circle cx="515.15" cy="300.01" r="2.5" fill="#2563eb"/>
  <circle cx="516.31" cy="300.01" r="2.5" fill="#2563eb"/>
  <circle cx="517.46" cy="300.01" r="2.5" fill="#2563eb"/>
  <circle cx="518.62" cy="299.97" r="2.5" fill="#2563eb"/>
  <circle cx="519.78" cy="250.03" r="2.5" fill="#2563eb"/>
  <circle cx="520.94" cy="300.01" r="2.5" fill="#2563eb"/>
  <circle cx="522.10" cy="300.01" r="2.5" fill="#2563eb"/>
  <circle cx="523.26" cy="300.01" r="2.5" fill="#2563eb"/>
  <circle cx="524.42" cy="300.01" r="2.5" fill="#2563eb"/>
  <circle cx="525.58" cy="250.03" r="2.5" fill="#2563eb"/>
  <circle cx="526.74" cy="249.99" r="2.5" fill="#2563eb"/>
  <circle cx="527.90" cy="300.01" r="2.5" fill="#2563eb"/>
  <circle cx="529.06" cy="299.97" r="2.5" fill="#2563eb"/>
  <circle cx="530.22" cy="300.01" r="2.5" fill="#2563eb"/>
  <circle cx="531.38" cy="299.97" r="2.5" fill="#2563eb"/>
  <circle cx="532.54" cy="300.01" r="2.5" fill="#2563eb"/>
  <circle cx="533.69" cy="299.97" r="2.5" fill="#2563eb"/>
  <circle cx="534.85" cy="299.97" r="2.5" fill="#2563eb"/>
  <circle cx="536.01" cy="299.97" r="2.5" fill="#2563eb"/>
  <circle cx="537.17" cy="300.06" r="2.5" fill="#2563eb"/>
  <circle cx="538.33" cy="249.99" r="2.5" fill="#2563eb"/>
  <circle cx="539.49" cy="300.01" r="2.5" fill="#2563eb"/>
  <circle cx="540.65" cy="250.03" r="2.5" fill="#2563eb"/>
  <circle cx="541.81" cy="249.94" r="2.5" fill="#2563eb"/>
  <circle cx="542.97" cy="249.99" r="2.5" fill="#2563eb"/>
  <circle cx="544.13" cy="300.01" r="2.5" fill="#2563eb"/>
  <circle cx="545.29" cy="300.06" r="2.5" fill="#2563eb"/>
  <circle cx="546.45" cy="300.01" r="2.5" fill="#2563eb"/>
  <circle cx="547.61" cy="299.97" r="2.5" fill="#2563eb"/>
  <circle cx="548.76" cy="299.97" r="2.5" fill="#2563eb"/>
  <circle cx="549.92" cy="300.01" r="2.5" fill="#2563eb"/>
  <circle cx="551.08" cy="299.93" r="2.5" fill="#2563eb"/>
  <circle cx="552.24" cy="299.89" r="2.5" fill="#2563eb"/>
  <circle cx="553.40" cy="299.89" r="2.5" fill="#2563eb"/>
  <circle cx="554.56" cy="299.89" r="2.5" fill="#2563eb"/>
  <circle cx="555.72" cy="299.89" r="2.5" fill="#2563eb"/>
  <circle cx="556.88" cy="299.85" r="2.5" fill="#2563eb"/>
  <circle cx="558.04" cy="299.85" r="2.5" fill="#2563eb"/>
  <circle cx="559.20" cy="299.89" r="2.5" fill="#2563eb"/>
  <circle cx="560.36" cy="299.81" r="2.5" fill="#2563eb"/>
  <circle cx="561.52" cy="299.81" r="2.5" fill="#2563eb"/>
  <circle cx="562.68" cy="299.81" r="2.5" fill="#2563eb"/>
  <circle cx="563.83" cy="299.76" r="2.5" fill="#2563eb"/>
  <circle cx="564.99" cy="299.76" r="2.5" fill="#2563eb"/>
  <circle cx="566.15" cy="299.76" r="2.5" fill="#2563eb"/>
  <circle cx="567.31" cy="299.72" r="2.5" fill="#2563eb"/>
  <circle cx="568.47" cy="299.68" r="2.5" fill="#2563eb"/>
  <circle cx="569.63" cy="299.60" r="2.5" fill="#2563eb"/>
  <circle cx="570.79" cy="299.60" r="2.5" fill="#2563eb"/>
  <circle cx="571.95" cy="299.60" r="2.5" fill="#2563eb"/>
  <circle cx="573.11" cy="299.56" r="2.5" fill="#2563eb"/>
  <circle cx="574.27" cy="299.47" r="2.5" fill="#2563eb"/>
  <circle cx="575.43" cy="299.43" r="2.5" fill="#2563eb"/>
  <circle cx="576.59" cy="299.43" r="2.5" fill="#2563eb"/>
  <circle cx="577.75" cy="299.39" r="2.5" fill="#2563eb"/>
  <circle cx="578.90" cy="299.47" r="2.5" fill="#2563eb"/>
  <circle cx="580.06" cy="259.82" r="2.5" fill="#2563eb"/>
  <circle cx="581.22" cy="338.96" r="2.5" fill="#2563eb"/>
  <circle cx="582.38" cy="299.31" r="2.5" fill="#2563eb"/>
  <circle cx="583.54" cy="299.31" r="2.5" fill="#2563eb"/>
  <circle cx="584.70" cy="299.26" r="2.5" fill="#2563eb"/>
  <circle cx="585.86" cy="299.68" r="2.5" fill="#2563eb"/>
  <circle cx="587.02" cy="299.68" r="2.5" fill="#2563eb"/>
  <circle cx="588.18" cy="299.68" r="2.5" fill="#2563eb"/>
  <circle cx="589.34" cy="299.64" r="2.5" fill="#2563eb"/>
  <circle cx="590.50" cy="299.14" r="2.5" fill="#2563eb"/>
  <circle cx="591.66" cy="299.14" r="2.5" fill="#2563eb"/>
  <circle cx="592.82" cy="299.10" r="2.5" fill="#2563eb"/>
  <circle cx="593.97" cy="299.10" r="2.5" fill="#2563eb"/>
  <circle cx="595.13" cy="299.10" r="2.5" fill="#2563eb"/>
  <circle cx="596.29" cy="248.07" r="2.5" fill="#2563eb"/>
  <circle cx="597.45" cy="299.06" r="2.5" fill="#2563eb"/>
  <circle cx="598.61" cy="299.06" r="2.5" fill="#2563eb"/>
  <circle cx="599.77" cy="299.06" r="2.5" fill="#2563eb"/>
  <circle cx="600.93" cy="299.06" r="2.5" fill="#2563eb"/>
  <circle cx="602.09" cy="299.06" r="2.5" fill="#2563eb"/>
  <circle cx="603.25" cy="298.97" r="2.5" fill="#2563eb"/>
  <circle cx="604.41" cy="298.97" r="2.5" fill="#2563eb"/>
  <circle cx="605.57" cy="298.93" r="2.5" fill="#2563eb"/>
  <circle cx="606.73" cy="298.97" r="2.5" fill="#2563eb"/>
  <circle cx="607.89" cy="298.93" r="2.5" fill="#2563eb"/>
  <circle cx="609.04" cy="298.89" r="2.5" fill="#2563eb"/>
  <circle cx="610.20" cy="298.89" r="2.5" fill="#2563eb"/>
  <circle cx="611.36" cy="298.89" r="2.5" fill="#2563eb"/>
  <circle cx="612.52" cy="298.89" r="2.5" fill="#2563eb"/>
  <circle cx="613.68" cy="247.78" r="2.5" fill="#2563eb"/>
  <circle cx="614.84" cy="298.89" r="2.5" fill="#2563eb"/>
  <circle cx="616.00" cy="298.89" r="2.5" fill="#2563eb"/>
  <circle cx="617.16" cy="298.85" r="2.5" fill="#2563eb"/>
  <circle cx="618.32" cy="298.85" r="2.5" fill="#2563eb"/>
  <circle cx="619.48" cy="298.81" r="2.5" fill="#2563eb"/>
  <circle cx="620.64" cy="298.81" r="2.5" fill="#2563eb"/>
  <circle cx="621.80" cy="298.81" r="2.5" fill="#2563eb"/>
  <circle cx="622.96" cy="298.81" r="2.5" fill="#2563eb"/>
  <circle cx="624.11" cy="298.81" r="2.5" fill="#2563eb"/>
  <circle cx="625.27" cy="298.81" r="2.5" fill="#2563eb"/>
  <circle cx="626.43" cy="298.81" r="2.5" fill="#2563eb"/>
  <circle cx="627.59" cy="298.81" r="2.5" fill="#2563eb"/>
  <circle cx="628.75" cy="298.81" r="2.5" fill="#2563eb"/>
  <circle cx="629.91" cy="298.72" r="2.5" fill="#2563eb"/>
  <circle cx="631.07" cy="247.45" r="2.5" fill="#2563eb"/>
  <circle cx="632.23" cy="247.45" r="2.5" fill="#2563eb"/>
  <circle cx="633.39" cy="298.72" r="2.5" fill="#2563eb"/>
  <circle cx="634.55" cy="298.72" r="2.5" fill="#2563eb"/>
  <circle cx="635.71" cy="298.72" r="2.5" fill="#2563eb"/>
  <circle cx="636.87" cy="298.72" r="2.5" fill="#2563eb"/>
  <circle cx="638.03" cy="298.72" r="2.5" fill="#2563eb"/>
  <circle cx="639.18" cy="298.72" r="2.5" fill="#2563eb"/>
  <circle cx="640.34" cy="247.36" r="2.5" fill="#2563eb"/>
  <circle cx="641.50" cy="298.68" r="2.5" fill="#2563eb"/>
  <circle cx="642.66" cy="247.36" r="2.5" fill="#2563eb"/>
  <circle cx="643.82" cy="247.36" r="2.5" fill="#2563eb"/>
  <circle cx="644.98" cy="247.36" r="2.5" fill="#2563eb"/>
  <circle cx="646.14" cy="298.68" r="2.5" fill="#2563eb"/>
  <circle cx="647.30" cy="298.68" r="2.5" fill="#2563eb"/>
  <circle cx="648.46" cy="298.68" r="2.5" fill="#2563eb"/>
  <circle cx="649.62" cy="298.68" r="2.5" fill="#2563eb"/>
  <circle cx="650.78" cy="298.68" r="2.5" fill="#2563eb"/>
  <circle cx="651.94" cy="341.67" r="2.5" fill="#2563eb"/>
  <circle cx="653.10" cy="307.01" r="2.5" fill="#2563eb"/>
  <circle cx="654.25" cy="298.68" r="2.5" fill="#2563eb"/>
  <circle cx="655.41" cy="298.68" r="2.5" fill="#2563eb"/>
  <circle cx="656.57" cy="298.68" r="2.5" fill="#2563eb"/>
  <circle cx="657.73" cy="247.36" r="2.5" fill="#2563eb"/>
  <circle cx="658.89" cy="298.64" r="2.5" fill="#2563eb"/>
  <circle cx="660.05" cy="247.36" r="2.5" fill="#2563eb"/>
  <circle cx="661.21" cy="247.28" r="2.5" fill="#2563eb"/>
  <circle cx="662.37" cy="247.20" r="2.5" fill="#2563eb"/>
  <circle cx="663.53" cy="298.60" r="2.5" fill="#2563eb"/>
  <circle cx="664.69" cy="298.60" r="2.5" fill="#2563eb"/>
  <circle cx="665.85" cy="247.03" r="2.5" fill="#2563eb"/>
  <circle cx="667.01" cy="298.51" r="2.5" fill="#2563eb"/>
  <circle cx="668.17" cy="298.51" r="2.5" fill="#2563eb"/>
  <circle cx="669.32" cy="298.51" r="2.5" fill="#2563eb"/>
  <circle cx="670.48" cy="298.51" r="2.5" fill="#2563eb"/>
  <circle cx="671.64" cy="298.51" r="2.5" fill="#2563eb"/>
  <circle cx="672.80" cy="298.51" r="2.5" fill="#2563eb"/>
  <circle cx="673.96" cy="298.51" r="2.5" fill="#2563eb"/>
  <circle cx="675.12" cy="298.51" r="2.5" fill="#2563eb"/>
  <circle cx="676.28" cy="298.51" r="2.5" fill="#2563eb"/>
  <circle cx="677.44" cy="298.51" r="2.5" fill="#2563eb"/>
  <circle cx="678.60" cy="298.51" r="2.5" fill="#2563eb"/>
  <circle cx="679.76" cy="298.51" r="2.5" fill="#2563eb"/>
  <circle cx="680.92" cy="298.51" r="2.5" fill="#2563eb"/>
  <circle cx="682.08" cy="298.51" r="2.5" fill="#2563eb"/>
  <circle cx="683.24" cy="298.51" r="2.5" fill="#2563eb"/>
  <circle cx="684.39" cy="298.51" r="2.5" fill="#2563eb"/>
  <circle cx="685.55" cy="298.51" r="2.5" fill="#2563eb"/>
  <circle cx="686.71" cy="298.51" r="2.5" fill="#2563eb"/>
  <circle cx="687.87" cy="298.51" r="2.5" fill="#2563eb"/>
  <circle cx="689.03" cy="298.51" r="2.5" fill="#2563eb"/>
  <circle cx="690.19" cy="298.51" r="2.5" fill="#2563eb"/>
  <circle cx="691.35" cy="298.51" r="2.5" fill="#2563eb"/>
  <circle cx="692.51" cy="298.51" r="2.5" fill="#2563eb"/>
  <circle cx="693.67" cy="298.51" r="2.5" fill="#2563eb"/>
  <circle cx="694.83" cy="298.51" r="2.5" fill="#2563eb"/>
  <circle cx="695.99" cy="298.51" r="2.5" fill="#2563eb"/>
  <circle cx="697.15" cy="298.47" r="2.5" fill="#2563eb"/>
  <circle cx="698.31" cy="298.51" r="2.5" fill="#2563eb"/>
  <circle cx="699.46" cy="298.51" r="2.5" fill="#2563eb"/>
  <circle cx="700.62" cy="298.47" r="2.5" fill="#2563eb"/>
  <circle cx="701.78" cy="298.51" r="2.5" fill="#2563eb"/>
  <circle cx="702.94" cy="298.47" r="2.5" fill="#2563eb"/>
  <circle cx="704.10" cy="298.51" r="2.5" fill="#2563eb"/>
  <circle cx="705.26" cy="298.43" r="2.5" fill="#2563eb"/>
  <circle cx="706.42" cy="298.56" r="2.5" fill="#2563eb"/>
  <circle cx="707.58" cy="298.43" r="2.5" fill="#2563eb"/>
  <circle cx="708.74" cy="298.43" r="2.5" fill="#2563eb"/>
  <circle cx="709.90" cy="298.43" r="2.5" fill="#2563eb"/>
  <circle cx="711.06" cy="298.43" r="2.5" fill="#2563eb"/>
  <circle cx="712.22" cy="298.43" r="2.5" fill="#2563eb"/>
  <circle cx="713.38" cy="298.43" r="2.5" fill="#2563eb"/>
  <circle cx="714.54" cy="298.43" r="2.5" fill="#2563eb"/>
  <circle cx="715.69" cy="298.43" r="2.5" fill="#2563eb"/>
  <circle cx="716.85" cy="298.43" r="2.5" fill="#2563eb"/>
  <circle cx="718.01" cy="298.43" r="2.5" fill="#2563eb"/>
  <circle cx="719.17" cy="298.43" r="2.5" fill="#2563eb"/>
  <circle cx="720.33" cy="298.43" r="2.5" fill="#2563eb"/>
  <circle cx="721.49" cy="298.43" r="2.5" fill="#2563eb"/>
  <circle cx="722.65" cy="298.43" r="2.5" fill="#2563eb"/>
  <circle cx="723.81" cy="298.43" r="2.5" fill="#2563eb"/>
  <circle cx="724.97" cy="298.43" r="2.5" fill="#2563eb"/>
  <circle cx="726.13" cy="298.43" r="2.5" fill="#2563eb"/>
  <circle cx="727.29" cy="298.43" r="2.5" fill="#2563eb"/>
  <circle cx="728.45" cy="298.43" r="2.5" fill="#2563eb"/>
  <circle cx="729.61" cy="298.43" r="2.5" fill="#2563eb"/>
  <circle cx="730.76" cy="298.43" r="2.5" fill="#2563eb"/>
  <circle cx="731.92" cy="298.43" r="2.5" fill="#2563eb"/>
  <circle cx="733.08" cy="298.43" r="2.5" fill="#2563eb"/>
  <circle cx="734.24" cy="298.43" r="2.5" fill="#2563eb"/>
  <circle cx="735.40" cy="298.43" r="2.5" fill="#2563eb"/>
  <circle cx="736.56" cy="298.43" r="2.5" fill="#2563eb"/>
  <circle cx="737.72" cy="298.43" r="2.5" fill="#2563eb"/>
  <circle cx="738.88" cy="298.43" r="2.5" fill="#2563eb"/>
  <circle cx="740.04" cy="298.43" r="2.5" fill="#2563eb"/>
  <circle cx="741.20" cy="298.43" r="2.5" fill="#2563eb"/>
  <circle cx="742.36" cy="298.43" r="2.5" fill="#2563eb"/>
  <circle cx="743.52" cy="298.43" r="2.5" fill="#2563eb"/>
  <circle cx="744.68" cy="298.43" r="2.5" fill="#2563eb"/>
  <circle cx="745.83" cy="298.43" r="2.5" fill="#2563eb"/>
  <circle cx="746.99" cy="298.39" r="2.5" fill="#2563eb"/>
  <circle cx="748.15" cy="298.39" r="2.5" fill="#2563eb"/>
  <circle cx="749.31" cy="298.43" r="2.5" fill="#2563eb"/>
  <circle cx="750.47" cy="298.43" r="2.5" fill="#2563eb"/>
  <circle cx="751.63" cy="298.39" r="2.5" fill="#2563eb"/>
  <circle cx="752.79" cy="298.39" r="2.5" fill="#2563eb"/>
  <circle cx="753.95" cy="298.39" r="2.5" fill="#2563eb"/>
  <circle cx="755.11" cy="298.43" r="2.5" fill="#2563eb"/>
  <circle cx="756.27" cy="298.43" r="2.5" fill="#2563eb"/>
  <circle cx="757.43" cy="298.43" r="2.5" fill="#2563eb"/>
  <circle cx="758.59" cy="246.82" r="2.5" fill="#2563eb"/>
  <circle cx="759.75" cy="298.43" r="2.5" fill="#2563eb"/>
  <circle cx="760.90" cy="246.78" r="2.5" fill="#2563eb"/>
  <circle cx="762.06" cy="246.78" r="2.5" fill="#2563eb"/>
  <circle cx="763.22" cy="246.78" r="2.5" fill="#2563eb"/>
  <circle cx="764.38" cy="246.70" r="2.5" fill="#2563eb"/>
  <circle cx="765.54" cy="246.78" r="2.5" fill="#2563eb"/>
  <circle cx="766.70" cy="298.39" r="2.5" fill="#2563eb"/>
  <circle cx="767.86" cy="298.39" r="2.5" fill="#2563eb"/>
  <circle cx="769.02" cy="298.39" r="2.5" fill="#2563eb"/>
  <circle cx="770.18" cy="298.39" r="2.5" fill="#2563eb"/>
  <circle cx="771.34" cy="298.39" r="2.5" fill="#2563eb"/>
  <circle cx="772.50" cy="246.78" r="2.5" fill="#2563eb"/>
  <circle cx="773.66" cy="298.39" r="2.5" fill="#2563eb"/>
  <circle cx="774.82" cy="298.39" r="2.5" fill="#2563eb"/>
  <circle cx="775.97" cy="298.39" r="2.5" fill="#2563eb"/>
  <circle cx="777.13" cy="298.39" r="2.5" fill="#2563eb"/>
  <circle cx="778.29" cy="298.39" r="2.5" fill="#2563eb"/>
  <circle cx="779.45" cy="246.78" r="2.5" fill="#2563eb"/>
  <circle cx="780.61" cy="246.78" r="2.5" fill="#2563eb"/>
  <circle cx="781.77" cy="298.39" r="2.5" fill="#2563eb"/>
  <circle cx="782.93" cy="298.39" r="2.5" fill="#2563eb"/>
  <circle cx="784.09" cy="298.39" r="2.5" fill="#2563eb"/>
  <circle cx="785.25" cy="298.39" r="2.5" fill="#2563eb"/>
  <circle cx="786.41" cy="298.39" r="2.5" fill="#2563eb"/>
  <circle cx="787.57" cy="298.39" r="2.5" fill="#2563eb"/>
  <circle cx="788.73" cy="298.39" r="2.5" fill="#2563eb"/>
  <circle cx="789.89" cy="298.39" r="2.5" fill="#2563eb"/>
  <circle cx="791.04" cy="298.39" r="2.5" fill="#2563eb"/>
  <circle cx="792.20" cy="298.39" r="2.5" fill="#2563eb"/>
  <circle cx="793.36" cy="298.39" r="2.5" fill="#2563eb"/>
  <circle cx="794.52" cy="298.39" r="2.5" fill="#2563eb"/>
  <circle cx="795.68" cy="298.39" r="2.5" fill="#2563eb"/>
  <circle cx="796.84" cy="298.39" r="2.5" fill="#2563eb"/>
  <circle cx="798.00" cy="298.35" r="2.5" fill="#2563eb"/>
  <circle cx="799.16" cy="298.39" r="2.5" fill="#2563eb"/>
  <circle cx="800.32" cy="298.39" r="2.5" fill="#2563eb"/>
  <circle cx="801.48" cy="298.35" r="2.5" fill="#2563eb"/>
  <circle cx="802.64" cy="298.35" r="2.5" fill="#2563eb"/>
  <circle cx="803.80" cy="298.35" r="2.5" fill="#2563eb"/>
  <circle cx="804.96" cy="298.35" r="2.5" fill="#2563eb"/>
  <circle cx="806.11" cy="298.35" r="2.5" fill="#2563eb"/>
  <circle cx="807.27" cy="298.35" r="2.5" fill="#2563eb"/>
  <circle cx="808.43" cy="298.35" r="2.5" fill="#2563eb"/>
  <circle cx="809.59" cy="298.35" r="2.5" fill="#2563eb"/>
  <circle cx="810.75" cy="298.35" r="2.5" fill="#2563eb"/>
  <circle cx="811.91" cy="298.35" r="2.5" fill="#2563eb"/>
  <circle cx="813.07" cy="298.35" r="2.5" fill="#2563eb"/>
  <circle cx="814.23" cy="298.35" r="2.5" fill="#2563eb"/>
  <circle cx="815.39" cy="298.35" r="2.5" fill="#2563eb"/>
  <circle cx="816.55" cy="298.35" r="2.5" fill="#2563eb"/>
  <circle cx="817.71" cy="298.35" r="2.5" fill="#2563eb"/>
  <circle cx="818.87" cy="298.35" r="2.5" fill="#2563eb"/>
  <circle cx="820.03" cy="298.35" r="2.5" fill="#2563eb"/>
  <circle cx="821.18" cy="298.35" r="2.5" fill="#2563eb"/>
  <circle cx="822.34" cy="298.35" r="2.5" fill="#2563eb"/>
  <circle cx="823.50" cy="298.35" r="2.5" fill="#2563eb"/>
  <circle cx="824.66" cy="298.35" r="2.5" fill="#2563eb"/>
  <circle cx="825.82" cy="298.35" r="2.5" fill="#2563eb"/>
  <circle cx="826.98" cy="298.35" r="2.5" fill="#2563eb"/>
  <circle cx="828.14" cy="298.35" r="2.5" fill="#2563eb"/>
  <circle cx="829.30" cy="298.35" r="2.5" fill="#2563eb"/>
  <circle cx="830.46" cy="298.35" r="2.5" fill="#2563eb"/>
  <circle cx="831.62" cy="298.35" r="2.5" fill="#2563eb"/>
  <circle cx="832.78" cy="298.35" r="2.5" fill="#2563eb"/>
  <circle cx="833.94" cy="298.35" r="2.5" fill="#2563eb"/>
  <circle cx="835.10" cy="298.35" r="2.5" fill="#2563eb"/>
  <circle cx="836.25" cy="298.35" r="2.5" fill="#2563eb"/>
  <circle cx="837.41" cy="298.35" r="2.5" fill="#2563eb"/>
  <circle cx="838.57" cy="298.35" r="2.5" fill="#2563eb"/>
  <circle cx="839.73" cy="298.35" r="2.5" fill="#2563eb"/>
  <circle cx="840.89" cy="298.35" r="2.5" fill="#2563eb"/>
  <circle cx="842.05" cy="298.35" r="2.5" fill="#2563eb"/>
  <circle cx="843.21" cy="298.35" r="2.5" fill="#2563eb"/>
  <circle cx="844.37" cy="298.35" r="2.5" fill="#2563eb"/>
  <circle cx="845.53" cy="298.35" r="2.5" fill="#2563eb"/>
  <circle cx="846.69" cy="298.35" r="2.5" fill="#2563eb"/>
  <circle cx="847.85" cy="298.35" r="2.5" fill="#2563eb"/>
  <circle cx="849.01" cy="298.35" r="2.5" fill="#2563eb"/>
  <circle cx="850.17" cy="298.35" r="2.5" fill="#2563eb"/>
  <circle cx="851.32" cy="298.35" r="2.5" fill="#2563eb"/>
  <circle cx="852.48" cy="298.35" r="2.5" fill="#2563eb"/>
  <circle cx="853.64" cy="298.35" r="2.5" fill="#2563eb"/>
  <circle cx="854.80" cy="298.35" r="2.5" fill="#2563eb"/>
  <circle cx="855.96" cy="298.35" r="2.5" fill="#2563eb"/>
  <circle cx="857.12" cy="298.35" r="2.5" fill="#2563eb"/>
  <circle cx="858.28" cy="298.35" r="2.5" fill="#2563eb"/>
  <circle cx="859.44" cy="298.35" r="2.5" fill="#2563eb"/>
  <circle cx="860.60" cy="298.35" r="2.5" fill="#2563eb"/>
  <circle cx="861.76" cy="298.39" r="2.5" fill="#2563eb"/>
  <circle cx="862.92" cy="298.39" r="2.5" fill="#2563eb"/>
  <circle cx="864.08" cy="298.39" r="2.5" fill="#2563eb"/>
  <circle cx="865.24" cy="246.78" r="2.5" fill="#2563eb"/>
  <circle cx="866.39" cy="298.39" r="2.5" fill="#2563eb"/>
  <circle cx="867.55" cy="298.39" r="2.5" fill="#2563eb"/>
  <circle cx="868.71" cy="298.39" r="2.5" fill="#2563eb"/>
  <circle cx="869.87" cy="298.39" r="2.5" fill="#2563eb"/>
  <circle cx="871.03" cy="298.39" r="2.5" fill="#2563eb"/>
  <circle cx="872.19" cy="298.39" r="2.5" fill="#2563eb"/>
  <circle cx="873.35" cy="298.39" r="2.5" fill="#2563eb"/>
  <circle cx="874.51" cy="246.78" r="2.5" fill="#2563eb"/>
  <circle cx="875.67" cy="298.39" r="2.5" fill="#2563eb"/>
  <circle cx="876.83" cy="298.39" r="2.5" fill="#2563eb"/>
  <circle cx="877.99" cy="298.39" r="2.5" fill="#2563eb"/>
  <circle cx="879.15" cy="298.39" r="2.5" fill="#2563eb"/>
  <circle cx="880.31" cy="298.39" r="2.5" fill="#2563eb"/>
  <circle cx="881.46" cy="298.39" r="2.5" fill="#2563eb"/>
  <circle cx="882.62" cy="298.39" r="2.5" fill="#2563eb"/>
  <circle cx="883.78" cy="246.78" r="2.5" fill="#2563eb"/>
  <circle cx="884.94" cy="298.39" r="2.5" fill="#2563eb"/>
  <circle cx="886.10" cy="298.39" r="2.5" fill="#2563eb"/>
  <circle cx="887.26" cy="298.39" r="2.5" fill="#2563eb"/>
  <circle cx="888.42" cy="298.39" r="2.5" fill="#2563eb"/>
  <circle cx="889.58" cy="298.39" r="2.5" fill="#2563eb"/>
  <circle cx="890.74" cy="298.39" r="2.5" fill="#2563eb"/>
  <circle cx="891.90" cy="298.39" r="2.5" fill="#2563eb"/>
  <circle cx="893.06" cy="298.39" r="2.5" fill="#2563eb"/>
  <circle cx="894.22" cy="298.39" r="2.5" fill="#2563eb"/>
  <circle cx="895.38" cy="298.39" r="2.5" fill="#2563eb"/>
  <circle cx="896.54" cy="298.39" r="2.5" fill="#2563eb"/>
  <circle cx="897.69" cy="298.35" r="2.5" fill="#2563eb"/>
  <circle cx="898.85" cy="298.39" r="2.5" fill="#2563eb"/>
  <circle cx="900.01" cy="298.39" r="2.5" fill="#2563eb"/>
  <circle cx="901.17" cy="298.39" r="2.5" fill="#2563eb"/>
  <circle cx="902.33" cy="298.35" r="2.5" fill="#2563eb"/>
  <circle cx="903.49" cy="298.35" r="2.5" fill="#2563eb"/>
  <circle cx="904.65" cy="298.35" r="2.5" fill="#2563eb"/>
  <circle cx="905.81" cy="298.35" r="2.5" fill="#2563eb"/>
  <circle cx="906.97" cy="298.35" r="2.5" fill="#2563eb"/>
  <circle cx="908.13" cy="298.35" r="2.5" fill="#2563eb"/>
  <circle cx="909.29" cy="298.35" r="2.5" fill="#2563eb"/>
  <circle cx="910.45" cy="298.35" r="2.5" fill="#2563eb"/>
  <circle cx="911.61" cy="298.35" r="2.5" fill="#2563eb"/>
  <circle cx="912.76" cy="298.35" r="2.5" fill="#2563eb"/>
  <circle cx="913.92" cy="298.35" r="2.5" fill="#2563eb"/>
  <circle cx="915.08" cy="298.35" r="2.5" fill="#2563eb"/>
  <circle cx="916.24" cy="298.35" r="2.5" fill="#2563eb"/>
  <circle cx="917.40" cy="298.35" r="2.5" fill="#2563eb"/>
  <circle cx="918.56" cy="298.35" r="2.5" fill="#2563eb"/>
  <circle cx="919.72" cy="298.35" r="2.5" fill="#2563eb"/>
  <circle cx="920.88" cy="298.39" r="2.5" fill="#2563eb"/>
  <circle cx="922.04" cy="298.39" r="2.5" fill="#2563eb"/>
  <circle cx="923.20" cy="298.39" r="2.5" fill="#2563eb"/>
  <circle cx="924.36" cy="298.39" r="2.5" fill="#2563eb"/>
  <circle cx="925.52" cy="298.39" r="2.5" fill="#2563eb"/>
  <circle cx="926.68" cy="298.39" r="2.5" fill="#2563eb"/>
  <circle cx="927.83" cy="298.35" r="2.5" fill="#2563eb"/>
  <circle cx="928.99" cy="298.39" r="2.5" fill="#2563eb"/>
  <circle cx="930.15" cy="298.39" r="2.5" fill="#2563eb"/>
  <circle cx="931.31" cy="298.39" r="2.5" fill="#2563eb"/>
  <circle cx="932.47" cy="298.39" r="2.5" fill="#2563eb"/>
  <circle cx="933.63" cy="298.39" r="2.5" fill="#2563eb"/>
  <circle cx="934.79" cy="298.39" r="2.5" fill="#2563eb"/>
  <circle cx="935.95" cy="298.39" r="2.5" fill="#2563eb"/>
  <circle cx="937.11" cy="298.39" r="2.5" fill="#2563eb"/>
  <circle cx="938.27" cy="298.39" r="2.5" fill="#2563eb"/>
  <circle cx="939.43" cy="298.35" r="2.5" fill="#2563eb"/>
  <circle cx="940.59" cy="298.39" r="2.5" fill="#2563eb"/>
  <circle cx="941.75" cy="298.39" r="2.5" fill="#2563eb"/>
  <circle cx="942.90" cy="298.39" r="2.5" fill="#2563eb"/>
  <circle cx="944.06" cy="298.39" r="2.5" fill="#2563eb"/>
  <circle cx="945.22" cy="298.39" r="2.5" fill="#2563eb"/>
  <circle cx="946.38" cy="298.39" r="2.5" fill="#2563eb"/>
  <circle cx="947.54" cy="298.39" r="2.5" fill="#2563eb"/>
  <circle cx="948.70" cy="298.39" r="2.5" fill="#2563eb"/>
  <circle cx="949.86" cy="298.39" r="2.5" fill="#2563eb"/>
  <circle cx="951.02" cy="298.39" r="2.5" fill="#2563eb"/>
  <circle cx="952.18" cy="298.39" r="2.5" fill="#2563eb"/>
  <circle cx="953.34" cy="298.39" r="2.5" fill="#2563eb"/>
  <circle cx="954.50" cy="298.39" r="2.5" fill="#2563eb"/>
  <circle cx="955.66" cy="298.39" r="2.5" fill="#2563eb"/>
  <circle cx="956.82" cy="298.39" r="2.5" fill="#2563eb"/>
  <circle cx="957.97" cy="298.39" r="2.5" fill="#2563eb"/>
  <circle cx="959.13" cy="298.35" r="2.5" fill="#2563eb"/>
  <circle cx="960.29" cy="298.35" r="2.5" fill="#2563eb"/>
  <circle cx="961.45" cy="298.39" r="2.5" fill="#2563eb"/>
  <circle cx="962.61" cy="298.39" r="2.5" fill="#2563eb"/>
  <circle cx="963.77" cy="298.39" r="2.5" fill="#2563eb"/>
  <circle cx="964.93" cy="298.39" r="2.5" fill="#2563eb"/>
  <circle cx="966.09" cy="298.39" r="2.5" fill="#2563eb"/>
  <circle cx="967.25" cy="298.39" r="2.5" fill="#2563eb"/>
  <circle cx="968.41" cy="298.39" r="2.5" fill="#2563eb"/>
  <circle cx="969.57" cy="298.39" r="2.5" fill="#2563eb"/>
  <circle cx="970.73" cy="298.39" r="2.5" fill="#2563eb"/>
  <circle cx="971.89" cy="298.39" r="2.5" fill="#2563eb"/>
  <circle cx="973.04" cy="298.35" r="2.5" fill="#2563eb"/>
  <circle cx="974.20" cy="298.35" r="2.5" fill="#2563eb"/>
  <circle cx="975.36" cy="298.39" r="2.5" fill="#2563eb"/>
  <circle cx="976.52" cy="298.39" r="2.5" fill="#2563eb"/>
  <circle cx="977.68" cy="298.39" r="2.5" fill="#2563eb"/>
  <circle cx="978.84" cy="298.39" r="2.5" fill="#2563eb"/>
  <circle cx="980.00" cy="298.39" r="2.5" fill="#2563eb"/>
</svg>
