<?xml version="1.0" encoding="UTF-8"?>
<svg xmlns="http://www.w3.org/2000/svg" width="1000" height="420" viewBox="0 0 1000 420">
  <rect width="100%" height="100%" fill="#ffffff"/>
  <text x="70" y="28" font-size="20" font-weight="600">수집 시점 기준 - 시간별 스냅샷</text>
  <text x="70" y="402" font-size="12" fill="#555">스냅샷 수</text>
  <line x1="70" y1="350.00" x2="980" y2="350.00" stroke="#e5e7eb" stroke-width="1"/>
  <text x="62" y="354.00" font-size="11" fill="#6b7280" text-anchor="end">0</text>
  <line x1="70" y1="290.00" x2="980" y2="290.00" stroke="#e5e7eb" stroke-width="1"/>
  <text x="62" y="294.00" font-size="11" fill="#6b7280" text-anchor="end">1,440</text>
  <line x1="70" y1="230.00" x2="980" y2="230.00" stroke="#e5e7eb" stroke-width="1"/>
  <text x="62" y="234.00" font-size="11" fill="#6b7280" text-anchor="end">2,880</text>
  <line x1="70" y1="170.00" x2="980" y2="170.00" stroke="#e5e7eb" stroke-width="1"/>
  <text x="62" y="174.00" font-size="11" fill="#6b7280" text-anchor="end">4,321</text>
  <line x1="70" y1="110.00" x2="980" y2="110.00" stroke="#e5e7eb" stroke-width="1"/>
  <text x="62" y="114.00" font-size="11" fill="#6b7280" text-anchor="end">5,761</text>
  <line x1="70" y1="50.00" x2="980" y2="50.00" stroke="#e5e7eb" stroke-width="1"/>
  <text x="62" y="54.00" font-size="11" fill="#6b7280" text-anchor="end">7,202</text>
  <line x1="70" y1="350" x2="980" y2="350" stroke="#111827" stroke-width="1.2"/>
  <line x1="70" y1="50" x2="70" y2="350" stroke="#111827" stroke-width="1.2"/>
  <line x1="70.00" y1="350" x2="70.00" y2="356" stroke="#9ca3af" stroke-width="1"/>
  <text x="70.00" y="372" font-size="10" fill="#6b7280" text-anchor="middle">2026-02-28 18</text>
  <line x1="145.94" y1="350" x2="145.94" y2="356" stroke="#9ca3af" stroke-width="1"/>
  <text x="145.94" y="372" font-size="10" fill="#6b7280" text-anchor="middle">2026-03-09 15</text>
  <line x1="221.88" y1="350" x2="221.88" y2="356" stroke="#9ca3af" stroke-width="1"/>
  <text x="221.88" y="372" font-size="10" fill="#6b7280" text-anchor="middle">2026-03-12 05</text>
  <line x1="297.83" y1="350" x2="297.83" y2="356" stroke="#9ca3af" stroke-width="1"/>
  <text x="297.83" y="372" font-size="10" fill="#6b7280" text-anchor="middle">2026-03-15 01</text>
  <line x1="373.77" y1="350" x2="373.77" y2="356" stroke="#9ca3af" stroke-width="1"/>
  <text x="373.77" y="372" font-size="10" fill="#6b7280" text-anchor="middle">2026-03-18 21</text>
  <line x1="449.71" y1="350" x2="449.71" y2="356" stroke="#9ca3af" stroke-width="1"/>
  <text x="449.71" y="372" font-size="10" fill="#6b7280" text-anchor="middle">2026-03-22 06</text>
  <line x1="525.65" y1="350" x2="525.65" y2="356" stroke="#9ca3af" stroke-width="1"/>
  <text x="525.65" y="372" font-size="10" fill="#6b7280" text-anchor="middle">2026-03-26 00</text>
  <line x1="601.60" y1="350" x2="601.60" y2="356" stroke="#9ca3af" stroke-width="1"/>
  <text x="601.60" y="372" font-size="10" fill="#6b7280" text-anchor="middle">2026-03-30 00</text>
  <line x1="677.54" y1="350" x2="677.54" y2="356" stroke="#9ca3af" stroke-width="1"/>
  <text x="677.54" y="372" font-size="10" fill="#6b7280" text-anchor="middle">2026-04-03 03</text>
  <line x1="753.48" y1="350" x2="753.48" y2="356" stroke="#9ca3af" stroke-width="1"/>
  <text x="753.48" y="372" font-size="10" fill="#6b7280" text-anchor="middle">2026-04-07 00</text>
  <line x1="829.42" y1="350" x2="829.42" y2="356" stroke="#9ca3af" stroke-width="1"/>
  <text x="829.42" y="372" font-size="10" fill="#6b7280" text-anchor="middle">2026-04-11 02</text>
  <line x1="905.37" y1="350" x2="905.37" y2="356" stroke="#9ca3af" stroke-width="1"/>
  <text x="905.37" y="372" font-size="10" fill="#6b7280" text-anchor="middle">2026-04-15 07</text>
  <line x1="980.00" y1="350" x2="980.00" y2="356" stroke="#9ca3af" stroke-width="1"/>
  <text x="980.00" y="372" font-size="10" fill="#6b7280" text-anchor="middle">2026-04-19 08</text>
  <polyline fill="none" stroke="#2563eb" stroke-width="2.5" points="70.00,50.00 71.31,50.12 72.62,50.17 73.93,50.46 75.24,50.00 76.55,266.90 77.86,50.12 79.17,50.08 80.47,177.46 81.78,211.58 83.09,175.34 84.40,304.14 85.71,200.46 87.02,250.94 88.33,300.01 89.64,300.06 90.95,300.01 92.26,300.01 93.57,348.00 94.88,300.01 96.19,249.99 97.50,200.00 98.81,249.99 100.12,249.99 101.42,250.03 102.73,250.03 104.04,250.03 105.35,250.40 106.66,250.90 107.97,250.90 109.28,251.32 110.59,249.94 111.90,300.01 113.21,299.93 114.52,251.03 115.83,300.68 117.14,250.03 118.45,200.00 119.76,249.99 121.06,250.03 122.37,250.03 123.68,250.03 124.99,300.01 126.30,200.04 127.61,250.03 128.92,250.03 130.23,250.03 131.54,249.90 132.85,250.03 134.16,250.03 135.47,250.94 136.78,250.44 138.09,250.03 139.40,250.03 140.71,300.47 142.01,300.01 143.32,300.43 144.63,250.03 145.94,249.99 147.25,300.43 148.56,249.90 149.87,249.99 151.18,249.99 152.49,200.04 153.80,300.01 155.11,300.01 156.42,300.01 157.73,249.90 159.04,300.01 160.35,250.03 161.65,249.99 162.96,199.96 164.27,300.01 165.58,200.00 166.89,250.36 168.20,250.03 169.51,300.01 170.82,300.01 172.13,250.44 173.44,300.01 174.75,250.03 176.06,250.03 177.37,249.99 178.68,250.49 179.99,250.03 181.29,200.04 182.60,300.01 183.91,250.03 185.22,300.01 186.53,250.11 187.84,300.01 189.15,250.03 190.46,250.03 191.77,199.92 193.08,250.03 194.39,250.03 195.70,250.03 197.01,254.36 198.32,300.01 199.63,299.97 200.94,250.36 202.24,299.97 203.55,250.03 204.86,250.03 206.17,250.03 207.48,250.03 208.79,249.99 210.10,200.00 211.41,299.93 212.72,300.01 214.03,299.97 215.34,249.94 216.65,249.99 217.96,249.82 219.27,249.94 220.58,250.28 221.88,207.00 223.19,250.03 224.50,250.32 225.81,250.40 227.12,300.93 228.43,300.01 229.74,300.10 231.05,249.94 232.36,249.99 233.67,250.07 234.98,249.99 236.29,250.03 237.60,249.94 238.91,200.00 240.22,300.39 241.53,300.01 242.83,300.01 244.14,250.44 245.45,300.39 246.76,249.86 248.07,250.11 249.38,201.46 250.69,300.01 252.00,200.83 253.31,250.03 254.62,249.99 255.93,300.26 257.24,300.01 258.55,300.01 259.86,250.03 261.17,250.03 262.47,250.03 263.78,250.03 265.09,249.99 266.40,250.03 267.71,200.00 269.02,300.26 270.33,249.99 271.64,300.01 272.95,249.94 274.26,250.03 275.57,250.03 276.88,250.03 278.19,200.04 279.50,300.01 280.81,249.90 282.12,300.01 283.42,300.01 284.73,300.06 286.04,300.01 287.35,300.01 288.66,243.95 289.97,249.94 291.28,299.97 292.59,300.01 293.90,300.01 295.21,250.03 296.52,300.01 297.83,300.01 299.14,299.97 300.45,249.99 301.76,300.01 303.06,299.93 304.37,300.01 305.68,299.93 306.99,300.01 308.30,300.01 309.61,299.89 310.92,299.97 312.23,250.03 313.54,299.93 314.85,299.89 316.16,299.97 317.47,249.94 318.78,300.01 320.09,300.01 321.40,299.97 322.71,249.99 324.01,299.97 325.32,299.97 326.63,300.06 327.94,300.06 329.25,299.93 330.56,300.01 331.87,300.01 333.18,299.93 334.49,300.01 335.80,300.01 337.11,299.97 338.42,300.01 339.73,300.01 341.04,300.01 342.35,300.01 343.65,249.86 344.96,300.01 346.27,300.10 347.58,299.93 348.89,300.01 350.20,299.93 351.51,300.01 352.82,300.01 354.13,300.01 355.44,300.01 356.75,300.01 358.06,299.97 359.37,300.01 360.68,300.01 361.99,300.01 363.29,300.01 364.60,250.03 365.91,300.01 367.22,300.01 368.53,299.97 369.84,300.01 371.15,300.01 372.46,299.97 373.77,299.97 375.08,300.01 376.39,299.97 377.70,300.01 379.01,299.93 380.32,300.01 381.63,250.03 382.94,300.01 384.24,300.01 385.55,300.01 386.86,300.01 388.17,300.01 389.48,299.89 390.79,300.01 392.10,300.01 393.41,250.07 394.72,300.01 396.03,299.93 397.34,300.01 398.65,299.97 399.96,299.97 401.27,299.97 402.58,250.03 403.88,300.01 405.19,300.01 406.50,300.01 407.81,300.01 409.12,299.97 410.43,300.01 411.74,299.97 413.05,300.01 414.36,299.97 415.67,249.90 416.98,300.01 418.29,300.01 419.60,299.89 420.91,299.97 422.22,299.97 423.53,249.99 424.83,299.97 426.14,299.89 427.45,300.01 428.76,299.97 430.07,299.97 431.38,300.01 432.69,299.97 434.00,249.99 435.31,299.97 436.62,299.97 437.93,300.06 439.24,300.06 440.55,249.94 441.86,300.01 443.17,299.93 444.47,300.01 445.78,300.01 447.09,249.99 448.40,300.01 449.71,300.01 451.02,300.01 452.33,299.93 453.64,299.93 454.95,300.01 456.26,300.01 457.57,249.94 458.88,299.97 460.19,299.97 461.50,300.01 462.81,300.01 464.12,300.01 465.42,249.99 466.73,300.01 468.04,300.01 469.35,300.01 470.66,250.03 471.97,300.01 473.28,300.01 474.59,300.01 475.90,299.97 477.21,300.01 478.52,300.01 479.83,299.97 481.14,299.97 482.45,300.01 483.76,300.01 485.06,299.97 486.37,299.93 487.68,300.01 488.99,300.06 490.30,299.97 491.61,300.01 492.92,250.03 494.23,250.03 495.54,299.93 496.85,299.97 498.16,300.01 499.47,300.01 500.78,300.06 502.09,300.01 503.40,299.93 504.71,300.01 506.01,300.01 507.32,299.97 508.63,299.97 509.94,300.01 511.25,250.03 512.56,300.01 513.87,300.01 515.18,300.01 516.49,299.97 517.80,300.01 519.11,299.97 520.42,300.01 521.73,299.97 523.04,299.97 524.35,299.93 525.65,300.01 526.96,300.01 528.27,299.89 529.58,299.97 530.89,299.97 532.20,300.06 533.51,249.90 534.82,299.89 536.13,300.01 537.44,299.97 538.75,299.97 540.06,299.97 541.37,300.01 542.68,300.01 543.99,299.97 545.29,299.97 546.60,299.97 547.91,250.03 549.22,299.93 550.53,300.01 551.84,300.01 553.15,299.93 554.46,300.01 555.77,300.01 557.08,299.97 558.39,300.01 559.70,300.01 561.01,300.06 562.32,300.01 563.63,299.97 564.94,299.89 566.24,300.01 567.55,300.01 568.86,249.94 570.17,249.94 571.48,300.01 572.79,300.01 574.10,300.01 575.41,300.01 576.72,299.97 578.03,250.03 579.34,300.01 580.65,300.01 581.96,300.01 583.27,300.01 584.58,250.03 585.88,249.99 587.19,300.01 588.50,299.97 589.81,300.01 591.12,299.97 592.43,300.01 593.74,299.97 595.05,299.97 596.36,299.97 597.67,300.06 598.98,249.99 600.29,300.01 601.60,250.03 602.91,249.94 604.22,249.99 605.53,300.01 606.83,300.06 608.14,300.01 609.45,299.97 610.76,299.97 612.07,300.01 613.38,299.93 614.69,299.89 616.00,299.89 617.31,299.89 618.62,299.89 619.93,299.85 621.24,299.85 622.55,299.89 623.86,299.81 625.17,299.81 626.47,299.81 627.78,299.76 629.09,299.76 630.40,299.76 631.71,299.72 633.02,299.68 634.33,299.60 635.64,299.60 636.95,299.60 638.26,299.56 639.57,299.47 640.88,299.43 642.19,299.43 643.50,299.39 644.81,299.47 646.12,259.82 647.42,338.96 648.73,299.31 650.04,299.31 651.35,299.26 652.66,299.68 653.97,299.68 655.28,299.68 656.59,299.64 657.90,299.14 659.21,299.14 660.52,299.10 661.83,299.10 663.14,299.10 664.45,248.07 665.76,299.06 667.06,299.06 668.37,299.06 669.68,299.06 670.99,299.06 672.30,298.97 673.61,298.97 674.92,298.93 676.23,298.97 677.54,298.93 678.85,298.89 680.16,298.89 681.47,298.89 682.78,298.89 684.09,247.78 685.40,298.89 686.71,298.89 688.01,298.85 689.32,298.85 690.63,298.81 691.94,298.81 693.25,298.81 694.56,298.81 695.87,298.81 697.18,298.81 698.49,298.81 699.80,298.81 701.11,298.81 702.42,298.72 703.73,247.45 705.04,247.45 706.35,298.72 707.65,298.72 708.96,298.72 710.27,298.72 711.58,298.72 712.89,298.72 714.20,247.36 715.51,298.68 716.82,247.36 718.13,247.36 719.44,247.36 720.75,298.68 722.06,298.68 723.37,298.68 724.68,298.68 725.99,298.68 727.29,341.67 728.60,307.01 729.91,298.68 731.22,298.68 732.53,298.68 733.84,247.36 735.15,298.64 736.46,247.36 737.77,247.28 739.08,247.20 740.39,298.60 741.70,298.60 743.01,247.03 744.32,298.51 745.63,298.51 746.94,298.51 748.24,298.51 749.55,298.51 750.86,298.51 752.17,298.51 753.48,298.51 754.79,298.51 756.10,298.51 757.41,298.51 758.72,298.51 760.03,298.51 761.34,298.51 762.65,298.51 763.96,298.51 765.27,298.51 766.58,298.51 767.88,298.51 769.19,298.51 770.50,298.51 771.81,298.51 773.12,298.51 774.43,298.51 775.74,298.51 777.05,298.51 778.36,298.47 779.67,298.51 780.98,298.51 782.29,298.47 783.60,298.51 784.91,298.47 786.22,298.51 787.53,298.43 788.83,298.56 790.14,298.43 791.45,298.43 792.76,298.43 794.07,298.43 795.38,298.43 796.69,298.43 798.00,298.43 799.31,298.43 800.62,298.43 801.93,298.43 803.24,298.43 804.55,298.43 805.86,298.43 807.17,298.43 808.47,298.43 809.78,298.43 811.09,298.43 812.40,298.43 813.71,298.43 815.02,298.43 816.33,298.43 817.64,298.43 818.95,298.43 820.26,298.43 821.57,298.43 822.88,298.43 824.19,298.43 825.50,298.43 826.81,298.43 828.12,298.43 829.42,298.43 830.73,298.43 832.04,298.43 833.35,298.43 834.66,298.39 835.97,298.39 837.28,298.43 838.59,298.43 839.90,298.39 841.21,298.39 842.52,298.39 843.83,298.43 845.14,298.43 846.45,298.43 847.76,246.82 849.06,298.43 850.37,246.78 851.68,246.78 852.99,246.78 854.30,246.70 855.61,246.78 856.92,298.39 858.23,298.39 859.54,298.39 860.85,298.39 862.16,298.39 863.47,246.78 864.78,298.39 866.09,298.39 867.40,298.39 868.71,298.39 870.01,298.39 871.32,246.78 872.63,246.78 873.94,298.39 875.25,298.39 876.56,298.39 877.87,298.39 879.18,298.39 880.49,298.39 881.80,298.39 883.11,298.39 884.42,298.39 885.73,298.39 887.04,298.39 888.35,298.39 889.65,298.39 890.96,298.39 892.27,298.35 893.58,298.39 894.89,298.39 896.20,298.35 897.51,298.35 898.82,298.35 900.13,298.35 901.44,298.35 902.75,298.35 904.06,298.35 905.37,298.35 906.68,298.35 907.99,298.35 909.29,298.35 910.60,298.35 911.91,298.35 913.22,298.35 914.53,298.35 915.84,298.35 917.15,298.35 918.46,298.35 919.77,298.35 921.08,298.35 922.39,298.35 923.70,298.35 925.01,298.35 926.32,298.35 927.63,298.35 928.94,298.35 930.24,298.35 931.55,298.35 932.86,298.35 934.17,298.35 935.48,298.35 936.79,298.35 938.10,298.35 939.41,298.35 940.72,298.35 942.03,298.35 943.34,298.35 944.65,298.35 945.96,298.35 947.27,298.35 948.58,298.35 949.88,298.35 951.19,298.35 952.50,298.35 953.81,298.35 955.12,298.35 956.43,298.35 957.74,298.35 959.05,298.35 960.36,298.35 961.67,298.35 962.98,298.35 964.29,298.39 965.60,298.39 966.91,298.39 968.22,246.78 969.53,298.39 970.83,298.39 972.14,298.39 973.45,298.39 974.76,298.39 976.07,298.39 977.38,298.39 978.69,246.78 980.00,298.39"/>
  <circle cx="70.00" cy="50.00" r="2.5" fill="#2563eb"/>
  <circle cx="71.31" cy="50.12" r="2.5" fill="#2563eb"/>
  <circle cx="72.62" cy="50.17" r="2.5" fill="#2563eb"/>
  <circle cx="73.93" cy="50.46" r="2.5" fill="#2563eb"/>
  <circle cx="75.24" cy="50.00" r="2.5" fill="#2563eb"/>
  <circle cx="76.55" cy="266.90" r="2.5" fill="#2563eb"/>
  <circle cx="77.86" cy="50.12" r="2.5" fill="#2563eb"/>
  <circle cx="79.17" cy="50.08" r="2.5" fill="#2563eb"/>
  <circle cx="80.47" cy="177.46" r="2.5" fill="#2563eb"/>
  <circle cx="81.78" cy="211.58" r="2.5" fill="#2563eb"/>
  <circle cx="83.09" cy="175.34" r="2.5" fill="#2563eb"/>
  <circle cx="84.40" cy="304.14" r="2.5" fill="#2563eb"/>
  <circle cx="85.71" cy="200.46" r="2.5" fill="#2563eb"/>
  <circle cx="87.02" cy="250.94" r="2.5" fill="#2563eb"/>
  <circle cx="88.33" cy="300.01" r="2.5" fill="#2563eb"/>
  <circle cx="89.64" cy="300.06" r="2.5" fill="#2563eb"/>
  <circle cx="90.95" cy="300.01" r="2.5" fill="#2563eb"/>
  <circle cx="92.26" cy="300.01" r="2.5" fill="#2563eb"/>
  <circle cx="93.57" cy="348.00" r="2.5" fill="#2563eb"/>
  <circle cx="94.88" cy="300.01" r="2.5" fill="#2563eb"/>
  <circle cx="96.19" cy="249.99" r="2.5" fill="#2563eb"/>
  <circle cx="97.50" cy="200.00" r="2.5" fill="#2563eb"/>
  <circle cx="98.81" cy="249.99" r="2.5" fill="#2563eb"/>
  <circle cx="100.12" cy="249.99" r="2.5" fill="#2563eb"/>
  <circle cx="101.42" cy="250.03" r="2.5" fill="#2563eb"/>
  <circle cx="102.73" cy="250.03" r="2.5" fill="#2563eb"/>
  <circle cx="104.04" cy="250.03" r="2.5" fill="#2563eb"/>
  <circle cx="105.35" cy="250.40" r="2.5" fill="#2563eb"/>
  <circle cx="106.66" cy="250.90" r="2.5" fill="#2563eb"/>
  <circle cx="107.97" cy="250.90" r="2.5" fill="#2563eb"/>
  <circle cx="109.28" cy="251.32" r="2.5" fill="#2563eb"/>
  <circle cx="110.59" cy="249.94" r="2.5" fill="#2563eb"/>
  <circle cx="111.90" cy="300.01" r="2.5" fill="#2563eb"/>
  <circle cx="113.21" cy="299.93" r="2.5" fill="#2563eb"/>
  <circle cx="114.52" cy="251.03" r="2.5" fill="#2563eb"/>
  <circle cx="115.83" cy="300.68" r="2.5" fill="#2563eb"/>
  <circle cx="117.14" cy="250.03" r="2.5" fill="#2563eb"/>
  <circle cx="118.45" cy="200.00" r="2.5" fill="#2563eb"/>
  <circle cx="119.76" cy="249.99" r="2.5" fill="#2563eb"/>
  <circle cx="121.06" cy="250.03" r="2.5" fill="#2563eb"/>
  <circle cx="122.37" cy="250.03" r="2.5" fill="#2563eb"/>
  <circle cx="123.68" cy="250.03" r="2.5" fill="#2563eb"/>
  <circle cx="124.99" cy="300.01" r="2.5" fill="#2563eb"/>
  <circle cx="126.30" cy="200.04" r="2.5" fill="#2563eb"/>
  <circle cx="127.61" cy="250.03" r="2.5" fill="#2563eb"/>
  <circle cx="128.92" cy="250.03" r="2.5" fill="#2563eb"/>
  <circle cx="130.23" cy="250.03" r="2.5" fill="#2563eb"/>
  <circle cx="131.54" cy="249.90" r="2.5" fill="#2563eb"/>
  <circle cx="132.85" cy="250.03" r="2.5" fill="#2563eb"/>
  <circle cx="134.16" cy="250.03" r="2.5" fill="#2563eb"/>
  <circle cx="135.47" cy="250.94" r="2.5" fill="#2563eb"/>
  <circle cx="136.78" cy="250.44" r="2.5" fill="#2563eb"/>
  <circle cx="138.09" cy="250.03" r="2.5" fill="#2563eb"/>
  <circle cx="139.40" cy="250.03" r="2.5" fill="#2563eb"/>
  <circle cx="140.71" cy="300.47" r="2.5" fill="#2563eb"/>
  <circle cx="142.01" cy="300.01" r="2.5" fill="#2563eb"/>
  <circle cx="143.32" cy="300.43" r="2.5" fill="#2563eb"/>
  <circle cx="144.63" cy="250.03" r="2.5" fill="#2563eb"/>
  <circle cx="145.94" cy="249.99" r="2.5" fill="#2563eb"/>
  <circle cx="147.25" cy="300.43" r="2.5" fill="#2563eb"/>
  <circle cx="148.56" cy="249.90" r="2.5" fill="#2563eb"/>
  <circle cx="149.87" cy="249.99" r="2.5" fill="#2563eb"/>
  <circle cx="151.18" cy="249.99" r="2.5" fill="#2563eb"/>
  <circle cx="152.49" cy="200.04" r="2.5" fill="#2563eb"/>
  <circle cx="153.80" cy="300.01" r="2.5" fill="#2563eb"/>
  <circle cx="155.11" cy="300.01" r="2.5" fill="#2563eb"/>
  <circle cx="156.42" cy="300.01" r="2.5" fill="#2563eb"/>
  <circle cx="157.73" cy="249.90" r="2.5" fill="#2563eb"/>
  <circle cx="159.04" cy="300.01" r="2.5" fill="#2563eb"/>
  <circle cx="160.35" cy="250.03" r="2.5" fill="#2563eb"/>
  <circle cx="161.65" cy="249.99" r="2.5" fill="#2563eb"/>
  <circle cx="162.96" cy="199.96" r="2.5" fill="#2563eb"/>
  <circle cx="164.27" cy="300.01" r="2.5" fill="#2563eb"/>
  <circle cx="165.58" cy="200.00" r="2.5" fill="#2563eb"/>
  <circle cx="166.89" cy="250.36" r="2.5" fill="#2563eb"/>
  <circle cx="168.20" cy="250.03" r="2.5" fill="#2563eb"/>
  <circle cx="169.51" cy="300.01" r="2.5" fill="#2563eb"/>
  <circle cx="170.82" cy="300.01" r="2.5" fill="#2563eb"/>
  <circle cx="172.13" cy="250.44" r="2.5" fill="#2563eb"/>
  <circle cx="173.44" cy="300.01" r="2.5" fill="#2563eb"/>
  <circle cx="174.75" cy="250.03" r="2.5" fill="#2563eb"/>
  <circle cx="176.06" cy="250.03" r="2.5" fill="#2563eb"/>
  <circle cx="177.37" cy="249.99" r="2.5" fill="#2563eb"/>
  <circle cx="178.68" cy="250.49" r="2.5" fill="#2563eb"/>
  <circle cx="179.99" cy="250.03" r="2.5" fill="#2563eb"/>
  <circle cx="181.29" cy="200.04" r="2.5" fill="#2563eb"/>
  <circle cx="182.60" cy="300.01" r="2.5" fill="#2563eb"/>
  <circle cx="183.91" cy="250.03" r="2.5" fill="#2563eb"/>
  <circle cx="185.22" cy="300.01" r="2.5" fill="#2563eb"/>
  <circle cx="186.53" cy="250.11" r="2.5" fill="#2563eb"/>
  <circle cx="187.84" cy="300.01" r="2.5" fill="#2563eb"/>
  <circle cx="189.15" cy="250.03" r="2.5" fill="#2563eb"/>
  <circle cx="190.46" cy="250.03" r="2.5" fill="#2563eb"/>
  <circle cx="191.77" cy="199.92" r="2.5" fill="#2563eb"/>
  <circle cx="193.08" cy="250.03" r="2.5" fill="#2563eb"/>
  <circle cx="194.39" cy="250.03" r="2.5" fill="#2563eb"/>
  <circle cx="195.70" cy="250.03" r="2.5" fill="#2563eb"/>
  <circle cx="197.01" cy="254.36" r="2.5" fill="#2563eb"/>
  <circle cx="198.32" cy="300.01" r="2.5" fill="#2563eb"/>
  <circle cx="199.63" cy="299.97" r="2.5" fill="#2563eb"/>
  <circle cx="200.94" cy="250.36" r="2.5" fill="#2563eb"/>
  <circle cx="202.24" cy="299.97" r="2.5" fill="#2563eb"/>
  <circle cx="203.55" cy="250.03" r="2.5" fill="#2563eb"/>
  <circle cx="204.86" cy="250.03" r="2.5" fill="#2563eb"/>
  <circle cx="206.17" cy="250.03" r="2.5" fill="#2563eb"/>
  <circle cx="207.48" cy="250.03" r="2.5" fill="#2563eb"/>
  <circle cx="208.79" cy="249.99" r="2.5" fill="#2563eb"/>
  <circle cx="210.10" cy="200.00" r="2.5" fill="#2563eb"/>
  <circle cx="211.41" cy="299.93" r="2.5" fill="#2563eb"/>
  <circle cx="212.72" cy="300.01" r="2.5" fill="#2563eb"/>
  <circle cx="214.03" cy="299.97" r="2.5" fill="#2563eb"/>
  <circle cx="215.34" cy="249.94" r="2.5" fill="#2563eb"/>
  <circle cx="216.65" cy="249.99" r="2.5" fill="#2563eb"/>
  <circle cx="217.96" cy="249.82" r="2.5" fill="#2563eb"/>
  <circle cx="219.27" cy="249.94" r="2.5" fill="#2563eb"/>
  <circle cx="220.58" cy="250.28" r="2.5" fill="#2563eb"/>
  <circle cx="221.88" cy="207.00" r="2.5" fill="#2563eb"/>
  <circle cx="223.19" cy="250.03" r="2.5" fill="#2563eb"/>
  <circle cx="224.50" cy="250.32" r="2.5" fill="#2563eb"/>
  <circle cx="225.81" cy="250.40" r="2.5" fill="#2563eb"/>
  <circle cx="227.12" cy="300.93" r="2.5" fill="#2563eb"/>
  <circle cx="228.43" cy="300.01" r="2.5" fill="#2563eb"/>
  <circle cx="229.74" cy="300.10" r="2.5" fill="#2563eb"/>
  <circle cx="231.05" cy="249.94" r="2.5" fill="#2563eb"/>
  <circle cx="232.36" cy="249.99" r="2.5" fill="#2563eb"/>
  <circle cx="233.67" cy="250.07" r="2.5" fill="#2563eb"/>
  <circle cx="234.98" cy="249.99" r="2.5" fill="#2563eb"/>
  <circle cx="236.29" cy="250.03" r="2.5" fill="#2563eb"/>
  <circle cx="237.60" cy="249.94" r="2.5" fill="#2563eb"/>
  <circle cx="238.91" cy="200.00" r="2.5" fill="#2563eb"/>
  <circle cx="240.22" cy="300.39" r="2.5" fill="#2563eb"/>
  <circle cx="241.53" cy="300.01" r="2.5" fill="#2563eb"/>
  <circle cx="242.83" cy="300.01" r="2.5" fill="#2563eb"/>
  <circle cx="244.14" cy="250.44" r="2.5" fill="#2563eb"/>
  <circle cx="245.45" cy="300.39" r="2.5" fill="#2563eb"/>
  <circle cx="246.76" cy="249.86" r="2.5" fill="#2563eb"/>
  <circle cx="248.07" cy="250.11" r="2.5" fill="#2563eb"/>
  <circle cx="249.38" cy="201.46" r="2.5" fill="#2563eb"/>
  <circle cx="250.69" cy="300.01" r="2.5" fill="#2563eb"/>
  <circle cx="252.00" cy="200.83" r="2.5" fill="#2563eb"/>
  <circle cx="253.31" cy="250.03" r="2.5" fill="#2563eb"/>
  <circle cx="254.62" cy="249.99" r="2.5" fill="#2563eb"/>
  <circle cx="255.93" cy="300.26" r="2.5" fill="#2563eb"/>
  <circle cx="257.24" cy="300.01" r="2.5" fill="#2563eb"/>
  <circle cx="258.55" cy="300.01" r="2.5" fill="#2563eb"/>
  <circle cx="259.86" cy="250.03" r="2.5" fill="#2563eb"/>
  <circle cx="261.17" cy="250.03" r="2.5" fill="#2563eb"/>
  <circle cx="262.47" cy="250.03" r="2.5" fill="#2563eb"/>
  <circle cx="263.78" cy="250.03" r="2.5" fill="#2563eb"/>
  <circle cx="265.09" cy="249.99" r="2.5" fill="#2563eb"/>
  <circle cx="266.40" cy="250.03" r="2.5" fill="#2563eb"/>
  <circle cx="267.71" cy="200.00" r="2.5" fill="#2563eb"/>
  <circle cx="269.02" cy="300.26" r="2.5" fill="#2563eb"/>
  <circle cx="270.33" cy="249.99" r="2.5" fill="#2563eb"/>
  <circle cx="271.64" cy="300.01" r="2.5" fill="#2563eb"/>
  <circle cx="272.95" cy="249.94" r="2.5" fill="#2563eb"/>
  <circle cx="274.26" cy="250.03" r="2.5" fill="#2563eb"/>
  <circle cx="275.57" cy="250.03" r="2.5" fill="#2563eb"/>
  <circle cx="276.88" cy="250.03" r="2.5" fill="#2563eb"/>
  <circle cx="278.19" cy="200.04" r="2.5" fill="#2563eb"/>
  <circle cx="279.50" cy="300.01" r="2.5" fill="#2563eb"/>
  <circle cx="280.81" cy="249.90" r="2.5" fill="#2563eb"/>
  <circle cx="282.12" cy="300.01" r="2.5" fill="#2563eb"/>
  <circle cx="283.42" cy="300.01" r="2.5" fill="#2563eb"/>
  <circle cx="284.73" cy="300.06" r="2.5" fill="#2563eb"/>
  <circle cx="286.04" cy="300.01" r="2.5" fill="#2563eb"/>
  <circle cx="287.35" cy="300.01" r="2.5" fill="#2563eb"/>
  <circle cx="288.66" cy="243.95" r="2.5" fill="#2563eb"/>
  <circle cx="289.97" cy="249.94" r="2.5" fill="#2563eb"/>
  <circle cx="291.28" cy="299.97" r="2.5" fill="#2563eb"/>
  <circle cx="292.59" cy="300.01" r="2.5" fill="#2563eb"/>
  <circle cx="293.90" cy="300.01" r="2.5" fill="#2563eb"/>
  <circle cx="295.21" cy="250.03" r="2.5" fill="#2563eb"/>
  <circle cx="296.52" cy="300.01" r="2.5" fill="#2563eb"/>
  <circle cx="297.83" cy="300.01" r="2.5" fill="#2563eb"/>
  <circle cx="299.14" cy="299.97" r="2.5" fill="#2563eb"/>
  <circle cx="300.45" cy="249.99" r="2.5" fill="#2563eb"/>
  <circle cx="301.76" cy="300.01" r="2.5" fill="#2563eb"/>
  <circle cx="303.06" cy="299.93" r="2.5" fill="#2563eb"/>
  <circle cx="304.37" cy="300.01" r="2.5" fill="#2563eb"/>
  <circle cx="305.68" cy="299.93" r="2.5" fill="#2563eb"/>
  <circle cx="306.99" cy="300.01" r="2.5" fill="#2563eb"/>
  <circle cx="308.30" cy="300.01" r="2.5" fill="#2563eb"/>
  <circle cx="309.61" cy="299.89" r="2.5" fill="#2563eb"/>
  <circle cx="310.92" cy="299.97" r="2.5" fill="#2563eb"/>
  <circle cx="312.23" cy="250.03" r="2.5" fill="#2563eb"/>
  <circle cx="313.54" cy="299.93" r="2.5" fill="#2563eb"/>
  <circle cx="314.85" cy="299.89" r="2.5" fill="#2563eb"/>
  <circle cx="316.16" cy="299.97" r="2.5" fill="#2563eb"/>
  <circle cx="317.47" cy="249.94" r="2.5" fill="#2563eb"/>
  <circle cx="318.78" cy="300.01" r="2.5" fill="#2563eb"/>
  <circle cx="320.09" cy="300.01" r="2.5" fill="#2563eb"/>
  <circle cx="321.40" cy="299.97" r="2.5" fill="#2563eb"/>
  <circle cx="322.71" cy="249.99" r="2.5" fill="#2563eb"/>
  <circle cx="324.01" cy="299.97" r="2.5" fill="#2563eb"/>
  <circle cx="325.32" cy="299.97" r="2.5" fill="#2563eb"/>
  <circle cx="326.63" cy="300.06" r="2.5" fill="#2563eb"/>
  <circle cx="327.94" cy="300.06" r="2.5" fill="#2563eb"/>
  <circle cx="329.25" cy="299.93" r="2.5" fill="#2563eb"/>
  <circle cx="330.56" cy="300.01" r="2.5" fill="#2563eb"/>
  <circle cx="331.87" cy="300.01" r="2.5" fill="#2563eb"/>
  <circle cx="333.18" cy="299.93" r="2.5" fill="#2563eb"/>
  <circle cx="334.49" cy="300.01" r="2.5" fill="#2563eb"/>
  <circle cx="335.80" cy="300.01" r="2.5" fill="#2563eb"/>
  <circle cx="337.11" cy="299.97" r="2.5" fill="#2563eb"/>
  <circle cx="338.42" cy="300.01" r="2.5" fill="#2563eb"/>
  <circle cx="339.73" cy="300.01" r="2.5" fill="#2563eb"/>
  <circle cx="341.04" cy="300.01" r="2.5" fill="#2563eb"/>
  <circle cx="342.35" cy="300.01" r="2.5" fill="#2563eb"/>
  <circle cx="343.65" cy="249.86" r="2.5" fill="#2563eb"/>
  <circle cx="344.96" cy="300.01" r="2.5" fill="#2563eb"/>
  <circle cx="346.27" cy="300.10" r="2.5" fill="#2563eb"/>
  <circle cx="347.58" cy="299.93" r="2.5" fill="#2563eb"/>
  <circle cx="348.89" cy="300.01" r="2.5" fill="#2563eb"/>
  <circle cx="350.20" cy="299.93" r="2.5" fill="#2563eb"/>
  <circle cx="351.51" cy="300.01" r="2.5" fill="#2563eb"/>
  <circle cx="352.82" cy="300.01" r="2.5" fill="#2563eb"/>
  <circle cx="354.13" cy="300.01" r="2.5" fill="#2563eb"/>
  <circle cx="355.44" cy="300.01" r="2.5" fill="#2563eb"/>
  <circle cx="356.75" cy="300.01" r="2.5" fill="#2563eb"/>
  <circle cx="358.06" cy="299.97" r="2.5" fill="#2563eb"/>
  <circle cx="359.37" cy="300.01" r="2.5" fill="#2563eb"/>
  <circle cx="360.68" cy="300.01" r="2.5" fill="#2563eb"/>
  <circle cx="361.99" cy="300.01" r="2.5" fill="#2563eb"/>
  <circle cx="363.29" cy="300.01" r="2.5" fill="#2563eb"/>
  <circle cx="364.60" cy="250.03" r="2.5" fill="#2563eb"/>
  <circle cx="365.91" cy="300.01" r="2.5" fill="#2563eb"/>
  <circle cx="367.22" cy="300.01" r="2.5" fill="#2563eb"/>
  <circle cx="368.53" cy="299.97" r="2.5" fill="#2563eb"/>
  <circle cx="369.84" cy="300.01" r="2.5" fill="#2563eb"/>
  <circle cx="371.15" cy="300.01" r="2.5" fill="#2563eb"/>
  <circle cx="372.46" cy="299.97" r="2.5" fill="#2563eb"/>
  <circle cx="373.77" cy="299.97" r="2.5" fill="#2563eb"/>
  <circle cx="375.08" cy="300.01" r="2.5" fill="#2563eb"/>
  <circle cx="376.39" cy="299.97" r="2.5" fill="#2563eb"/>
  <circle cx="377.70" cy="300.01" r="2.5" fill="#2563eb"/>
  <circle cx="379.01" cy="299.93" r="2.5" fill="#2563eb"/>
  <circle cx="380.32" cy="300.01" r="2.5" fill="#2563eb"/>
  <circle cx="381.63" cy="250.03" r="2.5" fill="#2563eb"/>
  <circle cx="382.94" cy="300.01" r="2.5" fill="#2563eb"/>
  <circle cx="384.24" cy="300.01" r="2.5" fill="#2563eb"/>
  <circle cx="385.55" cy="300.01" r="2.5" fill="#2563eb"/>
  <circle cx="386.86" cy="300.01" r="2.5" fill="#2563eb"/>
  <circle cx="388.17" cy="300.01" r="2.5" fill="#2563eb"/>
  <circle cx="389.48" cy="299.89" r="2.5" fill="#2563eb"/>
  <circle cx="390.79" cy="300.01" r="2.5" fill="#2563eb"/>
  <circle cx="392.10" cy="300.01" r="2.5" fill="#2563eb"/>
  <circle cx="393.41" cy="250.07" r="2.5" fill="#2563eb"/>
  <circle cx="394.72" cy="300.01" r="2.5" fill="#2563eb"/>
  <circle cx="396.03" cy="299.93" r="2.5" fill="#2563eb"/>
  <circle cx="397.34" cy="300.01" r="2.5" fill="#2563eb"/>
  <circle cx="398.65" cy="299.97" r="2.5" fill="#2563eb"/>
  <circle cx="399.96" cy="299.97" r="2.5" fill="#2563eb"/>
  <circle cx="401.27" cy="299.97" r="2.5" fill="#2563eb"/>
  <circle cx="402.58" cy="250.03" r="2.5" fill="#2563eb"/>
  <circle cx="403.88" cy="300.01" r="2.5" fill="#2563eb"/>
  <circle cx="405.19" cy="300.01" r="2.5" fill="#2563eb"/>
  <circle cx="406.50" cy="300.01" r="2.5" fill="#2563eb"/>
  <circle cx="407.81" cy="300.01" r="2.5" fill="#2563eb"/>
  <circle cx="409.12" cy="299.97" r="2.5" fill="#2563eb"/>
  <circle cx="410.43" cy="300.01" r="2.5" fill="#2563eb"/>
  <circle cx="411.74" cy="299.97" r="2.5" fill="#2563eb"/>
  <circle cx="413.05" cy="300.01" r="2.5" fill="#2563eb"/>
  <circle cx="414.36" cy="299.97" r="2.5" fill="#2563eb"/>
  <circle cx="415.67" cy="249.90" r="2.5" fill="#2563eb"/>
  <circle cx="416.98" cy="300.01" r="2.5" fill="#2563eb"/>
  <circle cx="418.29" cy="300.01" r="2.5" fill="#2563eb"/>
  <circle cx="419.60" cy="299.89" r="2.5" fill="#2563eb"/>
  <circle cx="420.91" cy="299.97" r="2.5" fill="#2563eb"/>
  <circle cx="422.22" cy="299.97" r="2.5" fill="#2563eb"/>
  <circle cx="423.53" cy="249.99" r="2.5" fill="#2563eb"/>
  <circle cx="424.83" cy="299.97" r="2.5" fill="#2563eb"/>
  <circle cx="426.14" cy="299.89" r="2.5" fill="#2563eb"/>
  <circle cx="427.45" cy="300.01" r="2.5" fill="#2563eb"/>
  <circle cx="428.76" cy="299.97" r="2.5" fill="#2563eb"/>
  <circle cx="430.07" cy="299.97" r="2.5" fill="#2563eb"/>
  <circle cx="431.38" cy="300.01" r="2.5" fill="#2563eb"/>
  <circle cx="432.69" cy="299.97" r="2.5" fill="#2563eb"/>
  <circle cx="434.00" cy="249.99" r="2.5" fill="#2563eb"/>
  <circle cx="435.31" cy="299.97" r="2.5" fill="#2563eb"/>
  <circle cx="436.62" cy="299.97" r="2.5" fill="#2563eb"/>
  <circle cx="437.93" cy="300.06" r="2.5" fill="#2563eb"/>
  <circle cx="439.24" cy="300.06" r="2.5" fill="#2563eb"/>
  <circle cx="440.55" cy="249.94" r="2.5" fill="#2563eb"/>
  <circle cx="441.86" cy="300.01" r="2.5" fill="#2563eb"/>
  <circle cx="443.17" cy="299.93" r="2.5" fill="#2563eb"/>
  <circle cx="444.47" cy="300.01" r="2.5" fill="#2563eb"/>
  <circle cx="445.78" cy="300.01" r="2.5" fill="#2563eb"/>
  <circle cx="447.09" cy="249.99" r="2.5" fill="#2563eb"/>
  <circle cx="448.40" cy="300.01" r="2.5" fill="#2563eb"/>
  <circle cx="449.71" cy="300.01" r="2.5" fill="#2563eb"/>
  <circle cx="451.02" cy="300.01" r="2.5" fill="#2563eb"/>
  <circle cx="452.33" cy="299.93" r="2.5" fill="#2563eb"/>
  <circle cx="453.64" cy="299.93" r="2.5" fill="#2563eb"/>
  <circle cx="454.95" cy="300.01" r="2.5" fill="#2563eb"/>
  <circle cx="456.26" cy="300.01" r="2.5" fill="#2563eb"/>
  <circle cx="457.57" cy="249.94" r="2.5" fill="#2563eb"/>
  <circle cx="458.88" cy="299.97" r="2.5" fill="#2563eb"/>
  <circle cx="460.19" cy="299.97" r="2.5" fill="#2563eb"/>
  <circle cx="461.50" cy="300.01" r="2.5" fill="#2563eb"/>
  <circle cx="462.81" cy="300.01" r="2.5" fill="#2563eb"/>
  <circle cx="464.12" cy="300.01" r="2.5" fill="#2563eb"/>
  <circle cx="465.42" cy="249.99" r="2.5" fill="#2563eb"/>
  <circle cx="466.73" cy="300.01" r="2.5" fill="#2563eb"/>
  <circle cx="468.04" cy="300.01" r="2.5" fill="#2563eb"/>
  <circle cx="469.35" cy="300.01" r="2.5" fill="#2563eb"/>
  <circle cx="470.66" cy="250.03" r="2.5" fill="#2563eb"/>
  <circle cx="471.97" cy="300.01" r="2.5" fill="#2563eb"/>
  <circle cx="473.28" cy="300.01" r="2.5" fill="#2563eb"/>
  <circle cx="474.59" cy="300.01" r="2.5" fill="#2563eb"/>
  <circle cx="475.90" cy="299.97" r="2.5" fill="#2563eb"/>
  <circle cx="477.21" cy="300.01" r="2.5" fill="#2563eb"/>
  <circle cx="478.52" cy="300.01" r="2.5" fill="#2563eb"/>
  <circle cx="479.83" cy="299.97" r="2.5" fill="#2563eb"/>
  <circle cx="481.14" cy="299.97" r="2.5" fill="#2563eb"/>
  <circle cx="482.45" cy="300.01" r="2.5" fill="#2563eb"/>
  <circle cx="483.76" cy="300.01" r="2.5" fill="#2563eb"/>
  <circle cx="485.06" cy="299.97" r="2.5" fill="#2563eb"/>
  <circle cx="486.37" cy="299.93" r="2.5" fill="#2563eb"/>
  <circle cx="487.68" cy="300.01" r="2.5" fill="#2563eb"/>
  <circle cx="488.99" cy="300.06" r="2.5" fill="#2563eb"/>
  <circle cx="490.30" cy="299.97" r="2.5" fill="#2563eb"/>
  <circle cx="491.61" cy="300.01" r="2.5" fill="#2563eb"/>
  <circle cx="492.92" cy="250.03" r="2.5" fill="#2563eb"/>
  <circle cx="494.23" cy="250.03" r="2.5" fill="#2563eb"/>
  <circle cx="495.54" cy="299.93" r="2.5" fill="#2563eb"/>
  <circle cx="496.85" cy="299.97" r="2.5" fill="#2563eb"/>
  <circle cx="498.16" cy="300.01" r="2.5" fill="#2563eb"/>
  <circle cx="499.47" cy="300.01" r="2.5" fill="#2563eb"/>
  <circle cx="500.78" cy="300.06" r="2.5" fill="#2563eb"/>
  <circle cx="502.09" cy="300.01" r="2.5" fill="#2563eb"/>
  <circle cx="503.40" cy="299.93" r="2.5" fill="#2563eb"/>
  <circle cx="504.71" cy="300.01" r="2.5" fill="#2563eb"/>
  <circle cx="506.01" cy="300.01" r="2.5" fill="#2563eb"/>
  <circle cx="507.32" cy="299.97" r="2.5" fill="#2563eb"/>
  <circle cx="508.63" cy="299.97" r="2.5" fill="#2563eb"/>
  <circle cx="509.94" cy="300.01" r="2.5" fill="#2563eb"/>
  <circle cx="511.25" cy="250.03" r="2.5" fill="#2563eb"/>
  <circle cx="512.56" cy="300.01" r="2.5" fill="#2563eb"/>
  <circle cx="513.87" cy="300.01" r="2.5" fill="#2563eb"/>
  <circle cx="515.18" cy="300.01" r="2.5" fill="#2563eb"/>
  <circle cx="516.49" cy="299.97" r="2.5" fill="#2563eb"/>
  <circle cx="517.80" cy="300.01" r="2.5" fill="#2563eb"/>
  <circle cx="519.11" cy="299.97" r="2.5" fill="#2563eb"/>
  <circle cx="520.42" cy="300.01" r="2.5" fill="#2563eb"/>
  <circle cx="521.73" cy="299.97" r="2.5" fill="#2563eb"/>
  <circle cx="523.04" cy="299.97" r="2.5" fill="#2563eb"/>
  <circle cx="524.35" cy="299.93" r="2.5" fill="#2563eb"/>
  <circle cx="525.65" cy="300.01" r="2.5" fill="#2563eb"/>
  <circle cx="526.96" cy="300.01" r="2.5" fill="#2563eb"/>
  <circle cx="528.27" cy="299.89" r="2.5" fill="#2563eb"/>
  <circle cx="529.58" cy="299.97" r="2.5" fill="#2563eb"/>
  <circle cx="530.89" cy="299.97" r="2.5" fill="#2563eb"/>
  <circle cx="532.20" cy="300.06" r="2.5" fill="#2563eb"/>
  <circle cx="533.51" cy="249.90" r="2.5" fill="#2563eb"/>
  <circle cx="534.82" cy="299.89" r="2.5" fill="#2563eb"/>
  <circle cx="536.13" cy="300.01" r="2.5" fill="#2563eb"/>
  <circle cx="537.44" cy="299.97" r="2.5" fill="#2563eb"/>
  <circle cx="538.75" cy="299.97" r="2.5" fill="#2563eb"/>
  <circle cx="540.06" cy="299.97" r="2.5" fill="#2563eb"/>
  <circle cx="541.37" cy="300.01" r="2.5" fill="#2563eb"/>
  <circle cx="542.68" cy="300.01" r="2.5" fill="#2563eb"/>
  <circle cx="543.99" cy="299.97" r="2.5" fill="#2563eb"/>
  <circle cx="545.29" cy="299.97" r="2.5" fill="#2563eb"/>
  <circle cx="546.60" cy="299.97" r="2.5" fill="#2563eb"/>
  <circle cx="547.91" cy="250.03" r="2.5" fill="#2563eb"/>
  <circle cx="549.22" cy="299.93" r="2.5" fill="#2563eb"/>
  <circle cx="550.53" cy="300.01" r="2.5" fill="#2563eb"/>
  <circle cx="551.84" cy="300.01" r="2.5" fill="#2563eb"/>
  <circle cx="553.15" cy="299.93" r="2.5" fill="#2563eb"/>
  <circle cx="554.46" cy="300.01" r="2.5" fill="#2563eb"/>
  <circle cx="555.77" cy="300.01" r="2.5" fill="#2563eb"/>
  <circle cx="557.08" cy="299.97" r="2.5" fill="#2563eb"/>
  <circle cx="558.39" cy="300.01" r="2.5" fill="#2563eb"/>
  <circle cx="559.70" cy="300.01" r="2.5" fill="#2563eb"/>
  <circle cx="561.01" cy="300.06" r="2.5" fill="#2563eb"/>
  <circle cx="562.32" cy="300.01" r="2.5" fill="#2563eb"/>
  <circle cx="563.63" cy="299.97" r="2.5" fill="#2563eb"/>
  <circle cx="564.94" cy="299.89" r="2.5" fill="#2563eb"/>
  <circle cx="566.24" cy="300.01" r="2.5" fill="#2563eb"/>
  <circle cx="567.55" cy="300.01" r="2.5" fill="#2563eb"/>
  <circle cx="568.86" cy="249.94" r="2.5" fill="#2563eb"/>
  <circle cx="570.17" cy="249.94" r="2.5" fill="#2563eb"/>
  <circle cx="571.48" cy="300.01" r="2.5" fill="#2563eb"/>
  <circle cx="572.79" cy="300.01" r="2.5" fill="#2563eb"/>
  <circle cx="574.10" cy="300.01" r="2.5" fill="#2563eb"/>
  <circle cx="575.41" cy="300.01" r="2.5" fill="#2563eb"/>
  <circle cx="576.72" cy="299.97" r="2.5" fill="#2563eb"/>
  <circle cx="578.03" cy="250.03" r="2.5" fill="#2563eb"/>
  <circle cx="579.34" cy="300.01" r="2.5" fill="#2563eb"/>
  <circle cx="580.65" cy="300.01" r="2.5" fill="#2563eb"/>
  <circle cx="581.96" cy="300.01" r="2.5" fill="#2563eb"/>
  <circle cx="583.27" cy="300.01" r="2.5" fill="#2563eb"/>
  <circle cx="584.58" cy="250.03" r="2.5" fill="#2563eb"/>
  <circle cx="585.88" cy="249.99" r="2.5" fill="#2563eb"/>
  <circle cx="587.19" cy="300.01" r="2.5" fill="#2563eb"/>
  <circle cx="588.50" cy="299.97" r="2.5" fill="#2563eb"/>
  <circle cx="589.81" cy="300.01" r="2.5" fill="#2563eb"/>
  <circle cx="591.12" cy="299.97" r="2.5" fill="#2563eb"/>
  <circle cx="592.43" cy="300.01" r="2.5" fill="#2563eb"/>
  <circle cx="593.74" cy="299.97" r="2.5" fill="#2563eb"/>
  <circle cx="595.05" cy="299.97" r="2.5" fill="#2563eb"/>
  <circle cx="596.36" cy="299.97" r="2.5" fill="#2563eb"/>
  <circle cx="597.67" cy="300.06" r="2.5" fill="#2563eb"/>
  <circle cx="598.98" cy="249.99" r="2.5" fill="#2563eb"/>
  <circle cx="600.29" cy="300.01" r="2.5" fill="#2563eb"/>
  <circle cx="601.60" cy="250.03" r="2.5" fill="#2563eb"/>
  <circle cx="602.91" cy="249.94" r="2.5" fill="#2563eb"/>
  <circle cx="604.22" cy="249.99" r="2.5" fill="#2563eb"/>
  <circle cx="605.53" cy="300.01" r="2.5" fill="#2563eb"/>
  <circle cx="606.83" cy="300.06" r="2.5" fill="#2563eb"/>
  <circle cx="608.14" cy="300.01" r="2.5" fill="#2563eb"/>
  <circle cx="609.45" cy="299.97" r="2.5" fill="#2563eb"/>
  <circle cx="610.76" cy="299.97" r="2.5" fill="#2563eb"/>
  <circle cx="612.07" cy="300.01" r="2.5" fill="#2563eb"/>
  <circle cx="613.38" cy="299.93" r="2.5" fill="#2563eb"/>
  <circle cx="614.69" cy="299.89" r="2.5" fill="#2563eb"/>
  <circle cx="616.00" cy="299.89" r="2.5" fill="#2563eb"/>
  <circle cx="617.31" cy="299.89" r="2.5" fill="#2563eb"/>
  <circle cx="618.62" cy="299.89" r="2.5" fill="#2563eb"/>
  <circle cx="619.93" cy="299.85" r="2.5" fill="#2563eb"/>
  <circle cx="621.24" cy="299.85" r="2.5" fill="#2563eb"/>
  <circle cx="622.55" cy="299.89" r="2.5" fill="#2563eb"/>
  <circle cx="623.86" cy="299.81" r="2.5" fill="#2563eb"/>
  <circle cx="625.17" cy="299.81" r="2.5" fill="#2563eb"/>
  <circle cx="626.47" cy="299.81" r="2.5" fill="#2563eb"/>
  <circle cx="627.78" cy="299.76" r="2.5" fill="#2563eb"/>
  <circle cx="629.09" cy="299.76" r="2.5" fill="#2563eb"/>
  <circle cx="630.40" cy="299.76" r="2.5" fill="#2563eb"/>
  <circle cx="631.71" cy="299.72" r="2.5" fill="#2563eb"/>
  <circle cx="633.02" cy="299.68" r="2.5" fill="#2563eb"/>
  <circle cx="634.33" cy="299.60" r="2.5" fill="#2563eb"/>
  <circle cx="635.64" cy="299.60" r="2.5" fill="#2563eb"/>
  <circle cx="636.95" cy="299.60" r="2.5" fill="#2563eb"/>
  <circle cx="638.26" cy="299.56" r="2.5" fill="#2563eb"/>
  <circle cx="639.57" cy="299.47" r="2.5" fill="#2563eb"/>
  <circle cx="640.88" cy="299.43" r="2.5" fill="#2563eb"/>
  <circle cx="642.19" cy="299.43" r="2.5" fill="#2563eb"/>
  <circle cx="643.50" cy="299.39" r="2.5" fill="#2563eb"/>
  <circle cx="644.81" cy="299.47" r="2.5" fill="#2563eb"/>
  <circle cx="646.12" cy="259.82" r="2.5" fill="#2563eb"/>
  <circle cx="647.42" cy="338.96" r="2.5" fill="#2563eb"/>
  <circle cx="648.73" cy="299.31" r="2.5" fill="#2563eb"/>
  <circle cx="650.04" cy="299.31" r="2.5" fill="#2563eb"/>
  <circle cx="651.35" cy="299.26" r="2.5" fill="#2563eb"/>
  <circle cx="652.66" cy="299.68" r="2.5" fill="#2563eb"/>
  <circle cx="653.97" cy="299.68" r="2.5" fill="#2563eb"/>
  <circle cx="655.28" cy="299.68" r="2.5" fill="#2563eb"/>
  <circle cx="656.59" cy="299.64" r="2.5" fill="#2563eb"/>
  <circle cx="657.90" cy="299.14" r="2.5" fill="#2563eb"/>
  <circle cx="659.21" cy="299.14" r="2.5" fill="#2563eb"/>
  <circle cx="660.52" cy="299.10" r="2.5" fill="#2563eb"/>
  <circle cx="661.83" cy="299.10" r="2.5" fill="#2563eb"/>
  <circle cx="663.14" cy="299.10" r="2.5" fill="#2563eb"/>
  <circle cx="664.45" cy="248.07" r="2.5" fill="#2563eb"/>
  <circle cx="665.76" cy="299.06" r="2.5" fill="#2563eb"/>
  <circle cx="667.06" cy="299.06" r="2.5" fill="#2563eb"/>
  <circle cx="668.37" cy="299.06" r="2.5" fill="#2563eb"/>
  <circle cx="669.68" cy="299.06" r="2.5" fill="#2563eb"/>
  <circle cx="670.99" cy="299.06" r="2.5" fill="#2563eb"/>
  <circle cx="672.30" cy="298.97" r="2.5" fill="#2563eb"/>
  <circle cx="673.61" cy="298.97" r="2.5" fill="#2563eb"/>
  <circle cx="674.92" cy="298.93" r="2.5" fill="#2563eb"/>
  <circle cx="676.23" cy="298.97" r="2.5" fill="#2563eb"/>
  <circle cx="677.54" cy="298.93" r="2.5" fill="#2563eb"/>
  <circle cx="678.85" cy="298.89" r="2.5" fill="#2563eb"/>
  <circle cx="680.16" cy="298.89" r="2.5" fill="#2563eb"/>
  <circle cx="681.47" cy="298.89" r="2.5" fill="#2563eb"/>
  <circle cx="682.78" cy="298.89" r="2.5" fill="#2563eb"/>
  <circle cx="684.09" cy="247.78" r="2.5" fill="#2563eb"/>
  <circle cx="685.40" cy="298.89" r="2.5" fill="#2563eb"/>
  <circle cx="686.71" cy="298.89" r="2.5" fill="#2563eb"/>
  <circle cx="688.01" cy="298.85" r="2.5" fill="#2563eb"/>
  <circle cx="689.32" cy="298.85" r="2.5" fill="#2563eb"/>
  <circle cx="690.63" cy="298.81" r="2.5" fill="#2563eb"/>
  <circle cx="691.94" cy="298.81" r="2.5" fill="#2563eb"/>
  <circle cx="693.25" cy="298.81" r="2.5" fill="#2563eb"/>
  <circle cx="694.56" cy="298.81" r="2.5" fill="#2563eb"/>
  <circle cx="695.87" cy="298.81" r="2.5" fill="#2563eb"/>
  <circle cx="697.18" cy="298.81" r="2.5" fill="#2563eb"/>
  <circle cx="698.49" cy="298.81" r="2.5" fill="#2563eb"/>
  <circle cx="699.80" cy="298.81" r="2.5" fill="#2563eb"/>
  <circle cx="701.11" cy="298.81" r="2.5" fill="#2563eb"/>
  <circle cx="702.42" cy="298.72" r="2.5" fill="#2563eb"/>
  <circle cx="703.73" cy="247.45" r="2.5" fill="#2563eb"/>
  <circle cx="705.04" cy="247.45" r="2.5" fill="#2563eb"/>
  <circle cx="706.35" cy="298.72" r="2.5" fill="#2563eb"/>
  <circle cx="707.65" cy="298.72" r="2.5" fill="#2563eb"/>
  <circle cx="708.96" cy="298.72" r="2.5" fill="#2563eb"/>
  <circle cx="710.27" cy="298.72" r="2.5" fill="#2563eb"/>
  <circle cx="711.58" cy="298.72" r="2.5" fill="#2563eb"/>
  <circle cx="712.89" cy="298.72" r="2.5" fill="#2563eb"/>
  <circle cx="714.20" cy="247.36" r="2.5" fill="#2563eb"/>
  <circle cx="715.51" cy="298.68" r="2.5" fill="#2563eb"/>
  <circle cx="716.82" cy="247.36" r="2.5" fill="#2563eb"/>
  <circle cx="718.13" cy="247.36" r="2.5" fill="#2563eb"/>
  <circle cx="719.44" cy="247.36" r="2.5" fill="#2563eb"/>
  <circle cx="720.75" cy="298.68" r="2.5" fill="#2563eb"/>
  <circle cx="722.06" cy="298.68" r="2.5" fill="#2563eb"/>
  <circle cx="723.37" cy="298.68" r="2.5" fill="#2563eb"/>
  <circle cx="724.68" cy="298.68" r="2.5" fill="#2563eb"/>
  <circle cx="725.99" cy="298.68" r="2.5" fill="#2563eb"/>
  <circle cx="727.29" cy="341.67" r="2.5" fill="#2563eb"/>
  <circle cx="728.60" cy="307.01" r="2.5" fill="#2563eb"/>
  <circle cx="729.91" cy="298.68" r="2.5" fill="#2563eb"/>
  <circle cx="731.22" cy="298.68" r="2.5" fill="#2563eb"/>
  <circle cx="732.53" cy="298.68" r="2.5" fill="#2563eb"/>
  <circle cx="733.84" cy="247.36" r="2.5" fill="#2563eb"/>
  <circle cx="735.15" cy="298.64" r="2.5" fill="#2563eb"/>
  <circle cx="736.46" cy="247.36" r="2.5" fill="#2563eb"/>
  <circle cx="737.77" cy="247.28" r="2.5" fill="#2563eb"/>
  <circle cx="739.08" cy="247.20" r="2.5" fill="#2563eb"/>
  <circle cx="740.39" cy="298.60" r="2.5" fill="#2563eb"/>
  <circle cx="741.70" cy="298.60" r="2.5" fill="#2563eb"/>
  <circle cx="743.01" cy="247.03" r="2.5" fill="#2563eb"/>
  <circle cx="744.32" cy="298.51" r="2.5" fill="#2563eb"/>
  <circle cx="745.63" cy="298.51" r="2.5" fill="#2563eb"/>
  <circle cx="746.94" cy="298.51" r="2.5" fill="#2563eb"/>
  <circle cx="748.24" cy="298.51" r="2.5" fill="#2563eb"/>
  <circle cx="749.55" cy="298.51" r="2.5" fill="#2563eb"/>
  <circle cx="750.86" cy="298.51" r="2.5" fill="#2563eb"/>
  <circle cx="752.17" cy="298.51" r="2.5" fill="#2563eb"/>
  <circle cx="753.48" cy="298.51" r="2.5" fill="#2563eb"/>
  <circle cx="754.79" cy="298.51" r="2.5" fill="#2563eb"/>
  <circle cx="756.10" cy="298.51" r="2.5" fill="#2563eb"/>
  <circle cx="757.41" cy="298.51" r="2.5" fill="#2563eb"/>
  <circle cx="758.72" cy="298.51" r="2.5" fill="#2563eb"/>
  <circle cx="760.03" cy="298.51" r="2.5" fill="#2563eb"/>
  <circle cx="761.34" cy="298.51" r="2.5" fill="#2563eb"/>
  <circle cx="762.65" cy="298.51" r="2.5" fill="#2563eb"/>
  <circle cx="763.96" cy="298.51" r="2.5" fill="#2563eb"/>
  <circle cx="765.27" cy="298.51" r="2.5" fill="#2563eb"/>
  <circle cx="766.58" cy="298.51" r="2.5" fill="#2563eb"/>
  <circle cx="767.88" cy="298.51" r="2.5" fill="#2563eb"/>
  <circle cx="769.19" cy="298.51" r="2.5" fill="#2563eb"/>
  <circle cx="770.50" cy="298.51" r="2.5" fill="#2563eb"/>
  <circle cx="771.81" cy="298.51" r="2.5" fill="#2563eb"/>
  <circle cx="773.12" cy="298.51" r="2.5" fill="#2563eb"/>
  <circle cx="774.43" cy="298.51" r="2.5" fill="#2563eb"/>
  <circle cx="775.74" cy="298.51" r="2.5" fill="#2563eb"/>
  <circle cx="777.05" cy="298.51" r="2.5" fill="#2563eb"/>
  <circle cx="778.36" cy="298.47" r="2.5" fill="#2563eb"/>
  <circle cx="779.67" cy="298.51" r="2.5" fill="#2563eb"/>
  <circle cx="780.98" cy="298.51" r="2.5" fill="#2563eb"/>
  <circle cx="782.29" cy="298.47" r="2.5" fill="#2563eb"/>
  <circle cx="783.60" cy="298.51" r="2.5" fill="#2563eb"/>
  <circle cx="784.91" cy="298.47" r="2.5" fill="#2563eb"/>
  <circle cx="786.22" cy="298.51" r="2.5" fill="#2563eb"/>
  <circle cx="787.53" cy="298.43" r="2.5" fill="#2563eb"/>
  <circle cx="788.83" cy="298.56" r="2.5" fill="#2563eb"/>
  <circle cx="790.14" cy="298.43" r="2.5" fill="#2563eb"/>
  <circle cx="791.45" cy="298.43" r="2.5" fill="#2563eb"/>
  <circle cx="792.76" cy="298.43" r="2.5" fill="#2563eb"/>
  <circle cx="794.07" cy="298.43" r="2.5" fill="#2563eb"/>
  <circle cx="795.38" cy="298.43" r="2.5" fill="#2563eb"/>
  <circle cx="796.69" cy="298.43" r="2.5" fill="#2563eb"/>
  <circle cx="798.00" cy="298.43" r="2.5" fill="#2563eb"/>
  <circle cx="799.31" cy="298.43" r="2.5" fill="#2563eb"/>
  <circle cx="800.62" cy="298.43" r="2.5" fill="#2563eb"/>
  <circle cx="801.93" cy="298.43" r="2.5" fill="#2563eb"/>
  <circle cx="803.24" cy="298.43" r="2.5" fill="#2563eb"/>
  <circle cx="804.55" cy="298.43" r="2.5" fill="#2563eb"/>
  <circle cx="805.86" cy="298.43" r="2.5" fill="#2563eb"/>
  <circle cx="807.17" cy="298.43" r="2.5" fill="#2563eb"/>
  <circle cx="808.47" cy="298.43" r="2.5" fill="#2563eb"/>
  <circle cx="809.78" cy="298.43" r="2.5" fill="#2563eb"/>
  <circle cx="811.09" cy="298.43" r="2.5" fill="#2563eb"/>
  <circle cx="812.40" cy="298.43" r="2.5" fill="#2563eb"/>
  <circle cx="813.71" cy="298.43" r="2.5" fill="#2563eb"/>
  <circle cx="815.02" cy="298.43" r="2.5" fill="#2563eb"/>
  <circle cx="816.33" cy="298.43" r="2.5" fill="#2563eb"/>
  <circle cx="817.64" cy="298.43" r="2.5" fill="#2563eb"/>
  <circle cx="818.95" cy="298.43" r="2.5" fill="#2563eb"/>
  <circle cx="820.26" cy="298.43" r="2.5" fill="#2563eb"/>
  <circle cx="821.57" cy="298.43" r="2.5" fill="#2563eb"/>
  <circle cx="822.88" cy="298.43" r="2.5" fill="#2563eb"/>
  <circle cx="824.19" cy="298.43" r="2.5" fill="#2563eb"/>
  <circle cx="825.50" cy="298.43" r="2.5" fill="#2563eb"/>
  <circle cx="826.81" cy="298.43" r="2.5" fill="#2563eb"/>
  <circle cx="828.12" cy="298.43" r="2.5" fill="#2563eb"/>
  <circle cx="829.42" cy="298.43" r="2.5" fill="#2563eb"/>
  <circle cx="830.73" cy="298.43" r="2.5" fill="#2563eb"/>
  <circle cx="832.04" cy="298.43" r="2.5" fill="#2563eb"/>
  <circle cx="833.35" cy="298.43" r="2.5" fill="#2563eb"/>
  <circle cx="834.66" cy="298.39" r="2.5" fill="#2563eb"/>
  <circle cx="835.97" cy="298.39" r="2.5" fill="#2563eb"/>
  <circle cx="837.28" cy="298.43" r="2.5" fill="#2563eb"/>
  <circle cx="838.59" cy="298.43" r="2.5" fill="#2563eb"/>
  <circle cx="839.90" cy="298.39" r="2.5" fill="#2563eb"/>
  <circle cx="841.21" cy="298.39" r="2.5" fill="#2563eb"/>
  <circle cx="842.52" cy="298.39" r="2.5" fill="#2563eb"/>
  <circle cx="843.83" cy="298.43" r="2.5" fill="#2563eb"/>
  <circle cx="845.14" cy="298.43" r="2.5" fill="#2563eb"/>
  <circle cx="846.45" cy="298.43" r="2.5" fill="#2563eb"/>
  <circle cx="847.76" cy="246.82" r="2.5" fill="#2563eb"/>
  <circle cx="849.06" cy="298.43" r="2.5" fill="#2563eb"/>
  <circle cx="850.37" cy="246.78" r="2.5" fill="#2563eb"/>
  <circle cx="851.68" cy="246.78" r="2.5" fill="#2563eb"/>
  <circle cx="852.99" cy="246.78" r="2.5" fill="#2563eb"/>
  <circle cx="854.30" cy="246.70" r="2.5" fill="#2563eb"/>
  <circle cx="855.61" cy="246.78" r="2.5" fill="#2563eb"/>
  <circle cx="856.92" cy="298.39" r="2.5" fill="#2563eb"/>
  <circle cx="858.23" cy="298.39" r="2.5" fill="#2563eb"/>
  <circle cx="859.54" cy="298.39" r="2.5" fill="#2563eb"/>
  <circle cx="860.85" cy="298.39" r="2.5" fill="#2563eb"/>
  <circle cx="862.16" cy="298.39" r="2.5" fill="#2563eb"/>
  <circle cx="863.47" cy="246.78" r="2.5" fill="#2563eb"/>
  <circle cx="864.78" cy="298.39" r="2.5" fill="#2563eb"/>
  <circle cx="866.09" cy="298.39" r="2.5" fill="#2563eb"/>
  <circle cx="867.40" cy="298.39" r="2.5" fill="#2563eb"/>
  <circle cx="868.71" cy="298.39" r="2.5" fill="#2563eb"/>
  <circle cx="870.01" cy="298.39" r="2.5" fill="#2563eb"/>
  <circle cx="871.32" cy="246.78" r="2.5" fill="#2563eb"/>
  <circle cx="872.63" cy="246.78" r="2.5" fill="#2563eb"/>
  <circle cx="873.94" cy="298.39" r="2.5" fill="#2563eb"/>
  <circle cx="875.25" cy="298.39" r="2.5" fill="#2563eb"/>
  <circle cx="876.56" cy="298.39" r="2.5" fill="#2563eb"/>
  <circle cx="877.87" cy="298.39" r="2.5" fill="#2563eb"/>
  <circle cx="879.18" cy="298.39" r="2.5" fill="#2563eb"/>
  <circle cx="880.49" cy="298.39" r="2.5" fill="#2563eb"/>
  <circle cx="881.80" cy="298.39" r="2.5" fill="#2563eb"/>
  <circle cx="883.11" cy="298.39" r="2.5" fill="#2563eb"/>
  <circle cx="884.42" cy="298.39" r="2.5" fill="#2563eb"/>
  <circle cx="885.73" cy="298.39" r="2.5" fill="#2563eb"/>
  <circle cx="887.04" cy="298.39" r="2.5" fill="#2563eb"/>
  <circle cx="888.35" cy="298.39" r="2.5" fill="#2563eb"/>
  <circle cx="889.65" cy="298.39" r="2.5" fill="#2563eb"/>
  <circle cx="890.96" cy="298.39" r="2.5" fill="#2563eb"/>
  <circle cx="892.27" cy="298.35" r="2.5" fill="#2563eb"/>
  <circle cx="893.58" cy="298.39" r="2.5" fill="#2563eb"/>
  <circle cx="894.89" cy="298.39" r="2.5" fill="#2563eb"/>
  <circle cx="896.20" cy="298.35" r="2.5" fill="#2563eb"/>
  <circle cx="897.51" cy="298.35" r="2.5" fill="#2563eb"/>
  <circle cx="898.82" cy="298.35" r="2.5" fill="#2563eb"/>
  <circle cx="900.13" cy="298.35" r="2.5" fill="#2563eb"/>
  <circle cx="901.44" cy="298.35" r="2.5" fill="#2563eb"/>
  <circle cx="902.75" cy="298.35" r="2.5" fill="#2563eb"/>
  <circle cx="904.06" cy="298.35" r="2.5" fill="#2563eb"/>
  <circle cx="905.37" cy="298.35" r="2.5" fill="#2563eb"/>
  <circle cx="906.68" cy="298.35" r="2.5" fill="#2563eb"/>
  <circle cx="907.99" cy="298.35" r="2.5" fill="#2563eb"/>
  <circle cx="909.29" cy="298.35" r="2.5" fill="#2563eb"/>
  <circle cx="910.60" cy="298.35" r="2.5" fill="#2563eb"/>
  <circle cx="911.91" cy="298.35" r="2.5" fill="#2563eb"/>
  <circle cx="913.22" cy="298.35" r="2.5" fill="#2563eb"/>
  <circle cx="914.53" cy="298.35" r="2.5" fill="#2563eb"/>
  <circle cx="915.84" cy="298.35" r="2.5" fill="#2563eb"/>
  <circle cx="917.15" cy="298.35" r="2.5" fill="#2563eb"/>
  <circle cx="918.46" cy="298.35" r="2.5" fill="#2563eb"/>
  <circle cx="919.77" cy="298.35" r="2.5" fill="#2563eb"/>
  <circle cx="921.08" cy="298.35" r="2.5" fill="#2563eb"/>
  <circle cx="922.39" cy="298.35" r="2.5" fill="#2563eb"/>
  <circle cx="923.70" cy="298.35" r="2.5" fill="#2563eb"/>
  <circle cx="925.01" cy="298.35" r="2.5" fill="#2563eb"/>
  <circle cx="926.32" cy="298.35" r="2.5" fill="#2563eb"/>
  <circle cx="927.63" cy="298.35" r="2.5" fill="#2563eb"/>
  <circle cx="928.94" cy="298.35" r="2.5" fill="#2563eb"/>
  <circle cx="930.24" cy="298.35" r="2.5" fill="#2563eb"/>
  <circle cx="931.55" cy="298.35" r="2.5" fill="#2563eb"/>
  <circle cx="932.86" cy="298.35" r="2.5" fill="#2563eb"/>
  <circle cx="934.17" cy="298.35" r="2.5" fill="#2563eb"/>
  <circle cx="935.48" cy="298.35" r="2.5" fill="#2563eb"/>
  <circle cx="936.79" cy="298.35" r="2.5" fill="#2563eb"/>
  <circle cx="938.10" cy="298.35" r="2.5" fill="#2563eb"/>
  <circle cx="939.41" cy="298.35" r="2.5" fill="#2563eb"/>
  <circle cx="940.72" cy="298.35" r="2.5" fill="#2563eb"/>
  <circle cx="942.03" cy="298.35" r="2.5" fill="#2563eb"/>
  <circle cx="943.34" cy="298.35" r="2.5" fill="#2563eb"/>
  <circle cx="944.65" cy="298.35" r="2.5" fill="#2563eb"/>
  <circle cx="945.96" cy="298.35" r="2.5" fill="#2563eb"/>
  <circle cx="947.27" cy="298.35" r="2.5" fill="#2563eb"/>
  <circle cx="948.58" cy="298.35" r="2.5" fill="#2563eb"/>
  <circle cx="949.88" cy="298.35" r="2.5" fill="#2563eb"/>
  <circle cx="951.19" cy="298.35" r="2.5" fill="#2563eb"/>
  <circle cx="952.50" cy="298.35" r="2.5" fill="#2563eb"/>
  <circle cx="953.81" cy="298.35" r="2.5" fill="#2563eb"/>
  <circle cx="955.12" cy="298.35" r="2.5" fill="#2563eb"/>
  <circle cx="956.43" cy="298.35" r="2.5" fill="#2563eb"/>
  <circle cx="957.74" cy="298.35" r="2.5" fill="#2563eb"/>
  <circle cx="959.05" cy="298.35" r="2.5" fill="#2563eb"/>
  <circle cx="960.36" cy="298.35" r="2.5" fill="#2563eb"/>
  <circle cx="961.67" cy="298.35" r="2.5" fill="#2563eb"/>
  <circle cx="962.98" cy="298.35" r="2.5" fill="#2563eb"/>
  <circle cx="964.29" cy="298.39" r="2.5" fill="#2563eb"/>
  <circle cx="965.60" cy="298.39" r="2.5" fill="#2563eb"/>
  <circle cx="966.91" cy="298.39" r="2.5" fill="#2563eb"/>
  <circle cx="968.22" cy="246.78" r="2.5" fill="#2563eb"/>
  <circle cx="969.53" cy="298.39" r="2.5" fill="#2563eb"/>
  <circle cx="970.83" cy="298.39" r="2.5" fill="#2563eb"/>
  <circle cx="972.14" cy="298.39" r="2.5" fill="#2563eb"/>
  <circle cx="973.45" cy="298.39" r="2.5" fill="#2563eb"/>
  <circle cx="974.76" cy="298.39" r="2.5" fill="#2563eb"/>
  <circle cx="976.07" cy="298.39" r="2.5" fill="#2563eb"/>
  <circle cx="977.38" cy="298.39" r="2.5" fill="#2563eb"/>
  <circle cx="978.69" cy="246.78" r="2.5" fill="#2563eb"/>
  <circle cx="980.00" cy="298.39" r="2.5" fill="#2563eb"/>
</svg>
