<?xml version="1.0" encoding="UTF-8"?>
<svg xmlns="http://www.w3.org/2000/svg" width="1000" height="420" viewBox="0 0 1000 420">
  <rect width="100%" height="100%" fill="#ffffff"/>
  <text x="70" y="28" font-size="20" font-weight="600">수집 시점 기준 - 시간별 스냅샷</text>
  <text x="70" y="402" font-size="12" fill="#555">스냅샷 수</text>
  <line x1="70" y1="350.00" x2="980" y2="350.00" stroke="#e5e7eb" stroke-width="1"/>
  <text x="62" y="354.00" font-size="11" fill="#6b7280" text-anchor="end">0</text>
  <line x1="70" y1="290.00" x2="980" y2="290.00" stroke="#e5e7eb" stroke-width="1"/>
  <text x="62" y="294.00" font-size="11" fill="#6b7280" text-anchor="end">1,440</text>
  <line x1="70" y1="230.00" x2="980" y2="230.00" stroke="#e5e7eb" stroke-width="1"/>
  <text x="62" y="234.00" font-size="11" fill="#6b7280" text-anchor="end">2,880</text>
  <line x1="70" y1="170.00" x2="980" y2="170.00" stroke="#e5e7eb" stroke-width="1"/>
  <text x="62" y="174.00" font-size="11" fill="#6b7280" text-anchor="end">4,321</text>
  <line x1="70" y1="110.00" x2="980" y2="110.00" stroke="#e5e7eb" stroke-width="1"/>
  <text x="62" y="114.00" font-size="11" fill="#6b7280" text-anchor="end">5,761</text>
  <line x1="70" y1="50.00" x2="980" y2="50.00" stroke="#e5e7eb" stroke-width="1"/>
  <text x="62" y="54.00" font-size="11" fill="#6b7280" text-anchor="end">7,202</text>
  <line x1="70" y1="350" x2="980" y2="350" stroke="#111827" stroke-width="1.2"/>
  <line x1="70" y1="50" x2="70" y2="350" stroke="#111827" stroke-width="1.2"/>
  <line x1="70.00" y1="350" x2="70.00" y2="356" stroke="#9ca3af" stroke-width="1"/>
  <text x="70.00" y="372" font-size="10" fill="#6b7280" text-anchor="middle">2026-02-28 18</text>
  <line x1="144.81" y1="350" x2="144.81" y2="356" stroke="#9ca3af" stroke-width="1"/>
  <text x="144.81" y="372" font-size="10" fill="#6b7280" text-anchor="middle">2026-03-09 12</text>
  <line x1="219.63" y1="350" x2="219.63" y2="356" stroke="#9ca3af" stroke-width="1"/>
  <text x="219.63" y="372" font-size="10" fill="#6b7280" text-anchor="middle">2026-03-11 23</text>
  <line x1="294.44" y1="350" x2="294.44" y2="356" stroke="#9ca3af" stroke-width="1"/>
  <text x="294.44" y="372" font-size="10" fill="#6b7280" text-anchor="middle">2026-03-14 13</text>
  <line x1="369.25" y1="350" x2="369.25" y2="356" stroke="#9ca3af" stroke-width="1"/>
  <text x="369.25" y="372" font-size="10" fill="#6b7280" text-anchor="middle">2026-03-18 00</text>
  <line x1="444.07" y1="350" x2="444.07" y2="356" stroke="#9ca3af" stroke-width="1"/>
  <text x="444.07" y="372" font-size="10" fill="#6b7280" text-anchor="middle">2026-03-21 12</text>
  <line x1="518.88" y1="350" x2="518.88" y2="356" stroke="#9ca3af" stroke-width="1"/>
  <text x="518.88" y="372" font-size="10" fill="#6b7280" text-anchor="middle">2026-03-24 20</text>
  <line x1="593.69" y1="350" x2="593.69" y2="356" stroke="#9ca3af" stroke-width="1"/>
  <text x="593.69" y="372" font-size="10" fill="#6b7280" text-anchor="middle">2026-03-28 15</text>
  <line x1="668.51" y1="350" x2="668.51" y2="356" stroke="#9ca3af" stroke-width="1"/>
  <text x="668.51" y="372" font-size="10" fill="#6b7280" text-anchor="middle">2026-04-01 08</text>
  <line x1="743.32" y1="350" x2="743.32" y2="356" stroke="#9ca3af" stroke-width="1"/>
  <text x="743.32" y="372" font-size="10" fill="#6b7280" text-anchor="middle">2026-04-05 02</text>
  <line x1="818.13" y1="350" x2="818.13" y2="356" stroke="#9ca3af" stroke-width="1"/>
  <text x="818.13" y="372" font-size="10" fill="#6b7280" text-anchor="middle">2026-04-08 23</text>
  <line x1="892.94" y1="350" x2="892.94" y2="356" stroke="#9ca3af" stroke-width="1"/>
  <text x="892.94" y="372" font-size="10" fill="#6b7280" text-anchor="middle">2026-04-12 19</text>
  <line x1="967.76" y1="350" x2="967.76" y2="356" stroke="#9ca3af" stroke-width="1"/>
  <text x="967.76" y="372" font-size="10" fill="#6b7280" text-anchor="middle">2026-04-17 01</text>
  <line x1="980.00" y1="350" x2="980.00" y2="356" stroke="#9ca3af" stroke-width="1"/>
  <text x="980.00" y="372" font-size="10" fill="#6b7280" text-anchor="middle">2026-04-17 17</text>
  <polyline fill="none" stroke="#2563eb" stroke-width="2.5" points="70.00,50.00 71.36,50.12 72.72,50.17 74.08,50.46 75.44,50.00 76.80,266.90 78.16,50.12 79.52,50.08 80.88,177.46 82.24,211.58 83.60,175.34 84.96,304.14 86.32,200.46 87.68,250.94 89.04,300.01 90.40,300.06 91.76,300.01 93.12,300.01 94.48,348.00 95.84,300.01 97.20,249.99 98.57,200.00 99.93,249.99 101.29,249.99 102.65,250.03 104.01,250.03 105.37,250.03 106.73,250.40 108.09,250.90 109.45,250.90 110.81,251.32 112.17,249.94 113.53,300.01 114.89,299.93 116.25,251.03 117.61,300.68 118.97,250.03 120.33,200.00 121.69,249.99 123.05,250.03 124.41,250.03 125.77,250.03 127.13,300.01 128.49,200.04 129.85,250.03 131.21,250.03 132.57,250.03 133.93,249.90 135.29,250.03 136.65,250.03 138.01,250.94 139.37,250.44 140.73,250.03 142.09,250.03 143.45,300.47 144.81,300.01 146.17,300.43 147.53,250.03 148.89,249.99 150.25,300.43 151.61,249.90 152.97,249.99 154.33,249.99 155.70,200.04 157.06,300.01 158.42,300.01 159.78,300.01 161.14,249.90 162.50,300.01 163.86,250.03 165.22,249.99 166.58,199.96 167.94,300.01 169.30,200.00 170.66,250.36 172.02,250.03 173.38,300.01 174.74,300.01 176.10,250.44 177.46,300.01 178.82,250.03 180.18,250.03 181.54,249.99 182.90,250.49 184.26,250.03 185.62,200.04 186.98,300.01 188.34,250.03 189.70,300.01 191.06,250.11 192.42,300.01 193.78,250.03 195.14,250.03 196.50,199.92 197.86,250.03 199.22,250.03 200.58,250.03 201.94,254.36 203.30,300.01 204.66,299.97 206.02,250.36 207.38,299.97 208.74,250.03 210.10,250.03 211.46,250.03 212.83,250.03 214.19,249.99 215.55,200.00 216.91,299.93 218.27,300.01 219.63,299.97 220.99,249.94 222.35,249.99 223.71,249.82 225.07,249.94 226.43,250.28 227.79,207.00 229.15,250.03 230.51,250.32 231.87,250.40 233.23,300.93 234.59,300.01 235.95,300.10 237.31,249.94 238.67,249.99 240.03,250.07 241.39,249.99 242.75,250.03 244.11,249.94 245.47,200.00 246.83,300.39 248.19,300.01 249.55,300.01 250.91,250.44 252.27,300.39 253.63,249.86 254.99,250.11 256.35,201.46 257.71,300.01 259.07,200.83 260.43,250.03 261.79,249.99 263.15,300.26 264.51,300.01 265.87,300.01 267.23,250.03 268.59,250.03 269.96,250.03 271.32,250.03 272.68,249.99 274.04,250.03 275.40,200.00 276.76,300.26 278.12,249.99 279.48,300.01 280.84,249.94 282.20,250.03 283.56,250.03 284.92,250.03 286.28,200.04 287.64,300.01 289.00,249.90 290.36,300.01 291.72,300.01 293.08,300.06 294.44,300.01 295.80,300.01 297.16,243.95 298.52,249.94 299.88,299.97 301.24,300.01 302.60,300.01 303.96,250.03 305.32,300.01 306.68,300.01 308.04,299.97 309.40,249.99 310.76,300.01 312.12,299.93 313.48,300.01 314.84,299.93 316.20,300.01 317.56,300.01 318.92,299.89 320.28,299.97 321.64,250.03 323.00,299.93 324.36,299.89 325.72,299.97 327.09,249.94 328.45,300.01 329.81,300.01 331.17,299.97 332.53,249.99 333.89,299.97 335.25,299.97 336.61,300.06 337.97,300.06 339.33,299.93 340.69,300.01 342.05,300.01 343.41,299.93 344.77,300.01 346.13,300.01 347.49,299.97 348.85,300.01 350.21,300.01 351.57,300.01 352.93,300.01 354.29,249.86 355.65,300.01 357.01,300.10 358.37,299.93 359.73,300.01 361.09,299.93 362.45,300.01 363.81,300.01 365.17,300.01 366.53,300.01 367.89,300.01 369.25,299.97 370.61,300.01 371.97,300.01 373.33,300.01 374.69,300.01 376.05,250.03 377.41,300.01 378.77,300.01 380.13,299.97 381.49,300.01 382.86,300.01 384.22,299.97 385.58,299.97 386.94,300.01 388.30,299.97 389.66,300.01 391.02,299.93 392.38,300.01 393.74,250.03 395.10,300.01 396.46,300.01 397.82,300.01 399.18,300.01 400.54,300.01 401.90,299.89 403.26,300.01 404.62,300.01 405.98,250.07 407.34,300.01 408.70,299.93 410.06,300.01 411.42,299.97 412.78,299.97 414.14,299.97 415.50,250.03 416.86,300.01 418.22,300.01 419.58,300.01 420.94,300.01 422.30,299.97 423.66,300.01 425.02,299.97 426.38,300.01 427.74,299.97 429.10,249.90 430.46,300.01 431.82,300.01 433.18,299.89 434.54,299.97 435.90,299.97 437.26,249.99 438.62,299.97 439.99,299.89 441.35,300.01 442.71,299.97 444.07,299.97 445.43,300.01 446.79,299.97 448.15,249.99 449.51,299.97 450.87,299.97 452.23,300.06 453.59,300.06 454.95,249.94 456.31,300.01 457.67,299.93 459.03,300.01 460.39,300.01 461.75,249.99 463.11,300.01 464.47,300.01 465.83,300.01 467.19,299.93 468.55,299.93 469.91,300.01 471.27,300.01 472.63,249.94 473.99,299.97 475.35,299.97 476.71,300.01 478.07,300.01 479.43,300.01 480.79,249.99 482.15,300.01 483.51,300.01 484.87,300.01 486.23,250.03 487.59,300.01 488.95,300.01 490.31,300.01 491.67,299.97 493.03,300.01 494.39,300.01 495.75,299.97 497.12,299.97 498.48,300.01 499.84,300.01 501.20,299.97 502.56,299.93 503.92,300.01 505.28,300.06 506.64,299.97 508.00,300.01 509.36,250.03 510.72,250.03 512.08,299.93 513.44,299.97 514.80,300.01 516.16,300.01 517.52,300.06 518.88,300.01 520.24,299.93 521.60,300.01 522.96,300.01 524.32,299.97 525.68,299.97 527.04,300.01 528.40,250.03 529.76,300.01 531.12,300.01 532.48,300.01 533.84,299.97 535.20,300.01 536.56,299.97 537.92,300.01 539.28,299.97 540.64,299.97 542.00,299.93 543.36,300.01 544.72,300.01 546.08,299.89 547.44,299.97 548.80,299.97 550.16,300.06 551.52,249.90 552.88,299.89 554.25,300.01 555.61,299.97 556.97,299.97 558.33,299.97 559.69,300.01 561.05,300.01 562.41,299.97 563.77,299.97 565.13,299.97 566.49,250.03 567.85,299.93 569.21,300.01 570.57,300.01 571.93,299.93 573.29,300.01 574.65,300.01 576.01,299.97 577.37,300.01 578.73,300.01 580.09,300.06 581.45,300.01 582.81,299.97 584.17,299.89 585.53,300.01 586.89,300.01 588.25,249.94 589.61,249.94 590.97,300.01 592.33,300.01 593.69,300.01 595.05,300.01 596.41,299.97 597.77,250.03 599.13,300.01 600.49,300.01 601.85,300.01 603.21,300.01 604.57,250.03 605.93,249.99 607.29,300.01 608.65,299.97 610.01,300.01 611.38,299.97 612.74,300.01 614.10,299.97 615.46,299.97 616.82,299.97 618.18,300.06 619.54,249.99 620.90,300.01 622.26,250.03 623.62,249.94 624.98,249.99 626.34,300.01 627.70,300.06 629.06,300.01 630.42,299.97 631.78,299.97 633.14,300.01 634.50,299.93 635.86,299.89 637.22,299.89 638.58,299.89 639.94,299.89 641.30,299.85 642.66,299.85 644.02,299.89 645.38,299.81 646.74,299.81 648.10,299.81 649.46,299.76 650.82,299.76 652.18,299.76 653.54,299.72 654.90,299.68 656.26,299.60 657.62,299.60 658.98,299.60 660.34,299.56 661.70,299.47 663.06,299.43 664.42,299.43 665.78,299.39 667.14,299.47 668.51,259.82 669.87,338.96 671.23,299.31 672.59,299.31 673.95,299.26 675.31,299.68 676.67,299.68 678.03,299.68 679.39,299.64 680.75,299.14 682.11,299.14 683.47,299.10 684.83,299.10 686.19,299.10 687.55,248.07 688.91,299.06 690.27,299.06 691.63,299.06 692.99,299.06 694.35,299.06 695.71,298.97 697.07,298.97 698.43,298.93 699.79,298.97 701.15,298.93 702.51,298.89 703.87,298.89 705.23,298.89 706.59,298.89 707.95,247.78 709.31,298.89 710.67,298.89 712.03,298.85 713.39,298.85 714.75,298.81 716.11,298.81 717.47,298.81 718.83,298.81 720.19,298.81 721.55,298.81 722.91,298.81 724.28,298.81 725.64,298.81 727.00,298.72 728.36,247.45 729.72,247.45 731.08,298.72 732.44,298.72 733.80,298.72 735.16,298.72 736.52,298.72 737.88,298.72 739.24,247.36 740.60,298.68 741.96,247.36 743.32,247.36 744.68,247.36 746.04,298.68 747.40,298.68 748.76,298.68 750.12,298.68 751.48,298.68 752.84,341.67 754.20,307.01 755.56,298.68 756.92,298.68 758.28,298.68 759.64,247.36 761.00,298.64 762.36,247.36 763.72,247.28 765.08,247.20 766.44,298.60 767.80,298.60 769.16,247.03 770.52,298.51 771.88,298.51 773.24,298.51 774.60,298.51 775.96,298.51 777.32,298.51 778.68,298.51 780.04,298.51 781.41,298.51 782.77,298.51 784.13,298.51 785.49,298.51 786.85,298.51 788.21,298.51 789.57,298.51 790.93,298.51 792.29,298.51 793.65,298.51 795.01,298.51 796.37,298.51 797.73,298.51 799.09,298.51 800.45,298.51 801.81,298.51 803.17,298.51 804.53,298.51 805.89,298.47 807.25,298.51 808.61,298.51 809.97,298.47 811.33,298.51 812.69,298.47 814.05,298.51 815.41,298.43 816.77,298.56 818.13,298.43 819.49,298.43 820.85,298.43 822.21,298.43 823.57,298.43 824.93,298.43 826.29,298.43 827.65,298.43 829.01,298.43 830.37,298.43 831.73,298.43 833.09,298.43 834.45,298.43 835.81,298.43 837.17,298.43 838.54,298.43 839.90,298.43 841.26,298.43 842.62,298.43 843.98,298.43 845.34,298.43 846.70,298.43 848.06,298.43 849.42,298.43 850.78,298.43 852.14,298.43 853.50,298.43 854.86,298.43 856.22,298.43 857.58,298.43 858.94,298.43 860.30,298.43 861.66,298.43 863.02,298.43 864.38,298.39 865.74,298.39 867.10,298.43 868.46,298.43 869.82,298.39 871.18,298.39 872.54,298.39 873.90,298.43 875.26,298.43 876.62,298.43 877.98,246.82 879.34,298.43 880.70,246.78 882.06,246.78 883.42,246.78 884.78,246.70 886.14,246.78 887.50,298.39 888.86,298.39 890.22,298.39 891.58,298.39 892.94,298.39 894.30,246.78 895.67,298.39 897.03,298.39 898.39,298.39 899.75,298.39 901.11,298.39 902.47,246.78 903.83,246.78 905.19,298.39 906.55,298.39 907.91,298.39 909.27,298.39 910.63,298.39 911.99,298.39 913.35,298.39 914.71,298.39 916.07,298.39 917.43,298.39 918.79,298.39 920.15,298.39 921.51,298.39 922.87,298.39 924.23,298.35 925.59,298.39 926.95,298.39 928.31,298.35 929.67,298.35 931.03,298.35 932.39,298.35 933.75,298.35 935.11,298.35 936.47,298.35 937.83,298.35 939.19,298.35 940.55,298.35 941.91,298.35 943.27,298.35 944.63,298.35 945.99,298.35 947.35,298.35 948.71,298.35 950.07,298.35 951.43,298.35 952.80,298.35 954.16,298.35 955.52,298.35 956.88,298.35 958.24,298.35 959.60,298.35 960.96,298.35 962.32,298.35 963.68,298.35 965.04,298.35 966.40,298.35 967.76,298.35 969.12,298.35 970.48,298.35 971.84,298.35 973.20,298.35 974.56,298.35 975.92,298.35 977.28,298.35 978.64,298.35 980.00,298.35"/>
  <circle cx="70.00" cy="50.00" r="2.5" fill="#2563eb"/>
  <circle cx="71.36" cy="50.12" r="2.5" fill="#2563eb"/>
  <circle cx="72.72" cy="50.17" r="2.5" fill="#2563eb"/>
  <circle cx="74.08" cy="50.46" r="2.5" fill="#2563eb"/>
  <circle cx="75.44" cy="50.00" r="2.5" fill="#2563eb"/>
  <circle cx="76.80" cy="266.90" r="2.5" fill="#2563eb"/>
  <circle cx="78.16" cy="50.12" r="2.5" fill="#2563eb"/>
  <circle cx="79.52" cy="50.08" r="2.5" fill="#2563eb"/>
  <circle cx="80.88" cy="177.46" r="2.5" fill="#2563eb"/>
  <circle cx="82.24" cy="211.58" r="2.5" fill="#2563eb"/>
  <circle cx="83.60" cy="175.34" r="2.5" fill="#2563eb"/>
  <circle cx="84.96" cy="304.14" r="2.5" fill="#2563eb"/>
  <circle cx="86.32" cy="200.46" r="2.5" fill="#2563eb"/>
  <circle cx="87.68" cy="250.94" r="2.5" fill="#2563eb"/>
  <circle cx="89.04" cy="300.01" r="2.5" fill="#2563eb"/>
  <circle cx="90.40" cy="300.06" r="2.5" fill="#2563eb"/>
  <circle cx="91.76" cy="300.01" r="2.5" fill="#2563eb"/>
  <circle cx="93.12" cy="300.01" r="2.5" fill="#2563eb"/>
  <circle cx="94.48" cy="348.00" r="2.5" fill="#2563eb"/>
  <circle cx="95.84" cy="300.01" r="2.5" fill="#2563eb"/>
  <circle cx="97.20" cy="249.99" r="2.5" fill="#2563eb"/>
  <circle cx="98.57" cy="200.00" r="2.5" fill="#2563eb"/>
  <circle cx="99.93" cy="249.99" r="2.5" fill="#2563eb"/>
  <circle cx="101.29" cy="249.99" r="2.5" fill="#2563eb"/>
  <circle cx="102.65" cy="250.03" r="2.5" fill="#2563eb"/>
  <circle cx="104.01" cy="250.03" r="2.5" fill="#2563eb"/>
  <circle cx="105.37" cy="250.03" r="2.5" fill="#2563eb"/>
  <circle cx="106.73" cy="250.40" r="2.5" fill="#2563eb"/>
  <circle cx="108.09" cy="250.90" r="2.5" fill="#2563eb"/>
  <circle cx="109.45" cy="250.90" r="2.5" fill="#2563eb"/>
  <circle cx="110.81" cy="251.32" r="2.5" fill="#2563eb"/>
  <circle cx="112.17" cy="249.94" r="2.5" fill="#2563eb"/>
  <circle cx="113.53" cy="300.01" r="2.5" fill="#2563eb"/>
  <circle cx="114.89" cy="299.93" r="2.5" fill="#2563eb"/>
  <circle cx="116.25" cy="251.03" r="2.5" fill="#2563eb"/>
  <circle cx="117.61" cy="300.68" r="2.5" fill="#2563eb"/>
  <circle cx="118.97" cy="250.03" r="2.5" fill="#2563eb"/>
  <circle cx="120.33" cy="200.00" r="2.5" fill="#2563eb"/>
  <circle cx="121.69" cy="249.99" r="2.5" fill="#2563eb"/>
  <circle cx="123.05" cy="250.03" r="2.5" fill="#2563eb"/>
  <circle cx="124.41" cy="250.03" r="2.5" fill="#2563eb"/>
  <circle cx="125.77" cy="250.03" r="2.5" fill="#2563eb"/>
  <circle cx="127.13" cy="300.01" r="2.5" fill="#2563eb"/>
  <circle cx="128.49" cy="200.04" r="2.5" fill="#2563eb"/>
  <circle cx="129.85" cy="250.03" r="2.5" fill="#2563eb"/>
  <circle cx="131.21" cy="250.03" r="2.5" fill="#2563eb"/>
  <circle cx="132.57" cy="250.03" r="2.5" fill="#2563eb"/>
  <circle cx="133.93" cy="249.90" r="2.5" fill="#2563eb"/>
  <circle cx="135.29" cy="250.03" r="2.5" fill="#2563eb"/>
  <circle cx="136.65" cy="250.03" r="2.5" fill="#2563eb"/>
  <circle cx="138.01" cy="250.94" r="2.5" fill="#2563eb"/>
  <circle cx="139.37" cy="250.44" r="2.5" fill="#2563eb"/>
  <circle cx="140.73" cy="250.03" r="2.5" fill="#2563eb"/>
  <circle cx="142.09" cy="250.03" r="2.5" fill="#2563eb"/>
  <circle cx="143.45" cy="300.47" r="2.5" fill="#2563eb"/>
  <circle cx="144.81" cy="300.01" r="2.5" fill="#2563eb"/>
  <circle cx="146.17" cy="300.43" r="2.5" fill="#2563eb"/>
  <circle cx="147.53" cy="250.03" r="2.5" fill="#2563eb"/>
  <circle cx="148.89" cy="249.99" r="2.5" fill="#2563eb"/>
  <circle cx="150.25" cy="300.43" r="2.5" fill="#2563eb"/>
  <circle cx="151.61" cy="249.90" r="2.5" fill="#2563eb"/>
  <circle cx="152.97" cy="249.99" r="2.5" fill="#2563eb"/>
  <circle cx="154.33" cy="249.99" r="2.5" fill="#2563eb"/>
  <circle cx="155.70" cy="200.04" r="2.5" fill="#2563eb"/>
  <circle cx="157.06" cy="300.01" r="2.5" fill="#2563eb"/>
  <circle cx="158.42" cy="300.01" r="2.5" fill="#2563eb"/>
  <circle cx="159.78" cy="300.01" r="2.5" fill="#2563eb"/>
  <circle cx="161.14" cy="249.90" r="2.5" fill="#2563eb"/>
  <circle cx="162.50" cy="300.01" r="2.5" fill="#2563eb"/>
  <circle cx="163.86" cy="250.03" r="2.5" fill="#2563eb"/>
  <circle cx="165.22" cy="249.99" r="2.5" fill="#2563eb"/>
  <circle cx="166.58" cy="199.96" r="2.5" fill="#2563eb"/>
  <circle cx="167.94" cy="300.01" r="2.5" fill="#2563eb"/>
  <circle cx="169.30" cy="200.00" r="2.5" fill="#2563eb"/>
  <circle cx="170.66" cy="250.36" r="2.5" fill="#2563eb"/>
  <circle cx="172.02" cy="250.03" r="2.5" fill="#2563eb"/>
  <circle cx="173.38" cy="300.01" r="2.5" fill="#2563eb"/>
  <circle cx="174.74" cy="300.01" r="2.5" fill="#2563eb"/>
  <circle cx="176.10" cy="250.44" r="2.5" fill="#2563eb"/>
  <circle cx="177.46" cy="300.01" r="2.5" fill="#2563eb"/>
  <circle cx="178.82" cy="250.03" r="2.5" fill="#2563eb"/>
  <circle cx="180.18" cy="250.03" r="2.5" fill="#2563eb"/>
  <circle cx="181.54" cy="249.99" r="2.5" fill="#2563eb"/>
  <circle cx="182.90" cy="250.49" r="2.5" fill="#2563eb"/>
  <circle cx="184.26" cy="250.03" r="2.5" fill="#2563eb"/>
  <circle cx="185.62" cy="200.04" r="2.5" fill="#2563eb"/>
  <circle cx="186.98" cy="300.01" r="2.5" fill="#2563eb"/>
  <circle cx="188.34" cy="250.03" r="2.5" fill="#2563eb"/>
  <circle cx="189.70" cy="300.01" r="2.5" fill="#2563eb"/>
  <circle cx="191.06" cy="250.11" r="2.5" fill="#2563eb"/>
  <circle cx="192.42" cy="300.01" r="2.5" fill="#2563eb"/>
  <circle cx="193.78" cy="250.03" r="2.5" fill="#2563eb"/>
  <circle cx="195.14" cy="250.03" r="2.5" fill="#2563eb"/>
  <circle cx="196.50" cy="199.92" r="2.5" fill="#2563eb"/>
  <circle cx="197.86" cy="250.03" r="2.5" fill="#2563eb"/>
  <circle cx="199.22" cy="250.03" r="2.5" fill="#2563eb"/>
  <circle cx="200.58" cy="250.03" r="2.5" fill="#2563eb"/>
  <circle cx="201.94" cy="254.36" r="2.5" fill="#2563eb"/>
  <circle cx="203.30" cy="300.01" r="2.5" fill="#2563eb"/>
  <circle cx="204.66" cy="299.97" r="2.5" fill="#2563eb"/>
  <circle cx="206.02" cy="250.36" r="2.5" fill="#2563eb"/>
  <circle cx="207.38" cy="299.97" r="2.5" fill="#2563eb"/>
  <circle cx="208.74" cy="250.03" r="2.5" fill="#2563eb"/>
  <circle cx="210.10" cy="250.03" r="2.5" fill="#2563eb"/>
  <circle cx="211.46" cy="250.03" r="2.5" fill="#2563eb"/>
  <circle cx="212.83" cy="250.03" r="2.5" fill="#2563eb"/>
  <circle cx="214.19" cy="249.99" r="2.5" fill="#2563eb"/>
  <circle cx="215.55" cy="200.00" r="2.5" fill="#2563eb"/>
  <circle cx="216.91" cy="299.93" r="2.5" fill="#2563eb"/>
  <circle cx="218.27" cy="300.01" r="2.5" fill="#2563eb"/>
  <circle cx="219.63" cy="299.97" r="2.5" fill="#2563eb"/>
  <circle cx="220.99" cy="249.94" r="2.5" fill="#2563eb"/>
  <circle cx="222.35" cy="249.99" r="2.5" fill="#2563eb"/>
  <circle cx="223.71" cy="249.82" r="2.5" fill="#2563eb"/>
  <circle cx="225.07" cy="249.94" r="2.5" fill="#2563eb"/>
  <circle cx="226.43" cy="250.28" r="2.5" fill="#2563eb"/>
  <circle cx="227.79" cy="207.00" r="2.5" fill="#2563eb"/>
  <circle cx="229.15" cy="250.03" r="2.5" fill="#2563eb"/>
  <circle cx="230.51" cy="250.32" r="2.5" fill="#2563eb"/>
  <circle cx="231.87" cy="250.40" r="2.5" fill="#2563eb"/>
  <circle cx="233.23" cy="300.93" r="2.5" fill="#2563eb"/>
  <circle cx="234.59" cy="300.01" r="2.5" fill="#2563eb"/>
  <circle cx="235.95" cy="300.10" r="2.5" fill="#2563eb"/>
  <circle cx="237.31" cy="249.94" r="2.5" fill="#2563eb"/>
  <circle cx="238.67" cy="249.99" r="2.5" fill="#2563eb"/>
  <circle cx="240.03" cy="250.07" r="2.5" fill="#2563eb"/>
  <circle cx="241.39" cy="249.99" r="2.5" fill="#2563eb"/>
  <circle cx="242.75" cy="250.03" r="2.5" fill="#2563eb"/>
  <circle cx="244.11" cy="249.94" r="2.5" fill="#2563eb"/>
  <circle cx="245.47" cy="200.00" r="2.5" fill="#2563eb"/>
  <circle cx="246.83" cy="300.39" r="2.5" fill="#2563eb"/>
  <circle cx="248.19" cy="300.01" r="2.5" fill="#2563eb"/>
  <circle cx="249.55" cy="300.01" r="2.5" fill="#2563eb"/>
  <circle cx="250.91" cy="250.44" r="2.5" fill="#2563eb"/>
  <circle cx="252.27" cy="300.39" r="2.5" fill="#2563eb"/>
  <circle cx="253.63" cy="249.86" r="2.5" fill="#2563eb"/>
  <circle cx="254.99" cy="250.11" r="2.5" fill="#2563eb"/>
  <circle cx="256.35" cy="201.46" r="2.5" fill="#2563eb"/>
  <circle cx="257.71" cy="300.01" r="2.5" fill="#2563eb"/>
  <circle cx="259.07" cy="200.83" r="2.5" fill="#2563eb"/>
  <circle cx="260.43" cy="250.03" r="2.5" fill="#2563eb"/>
  <circle cx="261.79" cy="249.99" r="2.5" fill="#2563eb"/>
  <circle cx="263.15" cy="300.26" r="2.5" fill="#2563eb"/>
  <circle cx="264.51" cy="300.01" r="2.5" fill="#2563eb"/>
  <circle cx="265.87" cy="300.01" r="2.5" fill="#2563eb"/>
  <circle cx="267.23" cy="250.03" r="2.5" fill="#2563eb"/>
  <circle cx="268.59" cy="250.03" r="2.5" fill="#2563eb"/>
  <circle cx="269.96" cy="250.03" r="2.5" fill="#2563eb"/>
  <circle cx="271.32" cy="250.03" r="2.5" fill="#2563eb"/>
  <circle cx="272.68" cy="249.99" r="2.5" fill="#2563eb"/>
  <circle cx="274.04" cy="250.03" r="2.5" fill="#2563eb"/>
  <circle cx="275.40" cy="200.00" r="2.5" fill="#2563eb"/>
  <circle cx="276.76" cy="300.26" r="2.5" fill="#2563eb"/>
  <circle cx="278.12" cy="249.99" r="2.5" fill="#2563eb"/>
  <circle cx="279.48" cy="300.01" r="2.5" fill="#2563eb"/>
  <circle cx="280.84" cy="249.94" r="2.5" fill="#2563eb"/>
  <circle cx="282.20" cy="250.03" r="2.5" fill="#2563eb"/>
  <circle cx="283.56" cy="250.03" r="2.5" fill="#2563eb"/>
  <circle cx="284.92" cy="250.03" r="2.5" fill="#2563eb"/>
  <circle cx="286.28" cy="200.04" r="2.5" fill="#2563eb"/>
  <circle cx="287.64" cy="300.01" r="2.5" fill="#2563eb"/>
  <circle cx="289.00" cy="249.90" r="2.5" fill="#2563eb"/>
  <circle cx="290.36" cy="300.01" r="2.5" fill="#2563eb"/>
  <circle cx="291.72" cy="300.01" r="2.5" fill="#2563eb"/>
  <circle cx="293.08" cy="300.06" r="2.5" fill="#2563eb"/>
  <circle cx="294.44" cy="300.01" r="2.5" fill="#2563eb"/>
  <circle cx="295.80" cy="300.01" r="2.5" fill="#2563eb"/>
  <circle cx="297.16" cy="243.95" r="2.5" fill="#2563eb"/>
  <circle cx="298.52" cy="249.94" r="2.5" fill="#2563eb"/>
  <circle cx="299.88" cy="299.97" r="2.5" fill="#2563eb"/>
  <circle cx="301.24" cy="300.01" r="2.5" fill="#2563eb"/>
  <circle cx="302.60" cy="300.01" r="2.5" fill="#2563eb"/>
  <circle cx="303.96" cy="250.03" r="2.5" fill="#2563eb"/>
  <circle cx="305.32" cy="300.01" r="2.5" fill="#2563eb"/>
  <circle cx="306.68" cy="300.01" r="2.5" fill="#2563eb"/>
  <circle cx="308.04" cy="299.97" r="2.5" fill="#2563eb"/>
  <circle cx="309.40" cy="249.99" r="2.5" fill="#2563eb"/>
  <circle cx="310.76" cy="300.01" r="2.5" fill="#2563eb"/>
  <circle cx="312.12" cy="299.93" r="2.5" fill="#2563eb"/>
  <circle cx="313.48" cy="300.01" r="2.5" fill="#2563eb"/>
  <circle cx="314.84" cy="299.93" r="2.5" fill="#2563eb"/>
  <circle cx="316.20" cy="300.01" r="2.5" fill="#2563eb"/>
  <circle cx="317.56" cy="300.01" r="2.5" fill="#2563eb"/>
  <circle cx="318.92" cy="299.89" r="2.5" fill="#2563eb"/>
  <circle cx="320.28" cy="299.97" r="2.5" fill="#2563eb"/>
  <circle cx="321.64" cy="250.03" r="2.5" fill="#2563eb"/>
  <circle cx="323.00" cy="299.93" r="2.5" fill="#2563eb"/>
  <circle cx="324.36" cy="299.89" r="2.5" fill="#2563eb"/>
  <circle cx="325.72" cy="299.97" r="2.5" fill="#2563eb"/>
  <circle cx="327.09" cy="249.94" r="2.5" fill="#2563eb"/>
  <circle cx="328.45" cy="300.01" r="2.5" fill="#2563eb"/>
  <circle cx="329.81" cy="300.01" r="2.5" fill="#2563eb"/>
  <circle cx="331.17" cy="299.97" r="2.5" fill="#2563eb"/>
  <circle cx="332.53" cy="249.99" r="2.5" fill="#2563eb"/>
  <circle cx="333.89" cy="299.97" r="2.5" fill="#2563eb"/>
  <circle cx="335.25" cy="299.97" r="2.5" fill="#2563eb"/>
  <circle cx="336.61" cy="300.06" r="2.5" fill="#2563eb"/>
  <circle cx="337.97" cy="300.06" r="2.5" fill="#2563eb"/>
  <circle cx="339.33" cy="299.93" r="2.5" fill="#2563eb"/>
  <circle cx="340.69" cy="300.01" r="2.5" fill="#2563eb"/>
  <circle cx="342.05" cy="300.01" r="2.5" fill="#2563eb"/>
  <circle cx="343.41" cy="299.93" r="2.5" fill="#2563eb"/>
  <circle cx="344.77" cy="300.01" r="2.5" fill="#2563eb"/>
  <circle cx="346.13" cy="300.01" r="2.5" fill="#2563eb"/>
  <circle cx="347.49" cy="299.97" r="2.5" fill="#2563eb"/>
  <circle cx="348.85" cy="300.01" r="2.5" fill="#2563eb"/>
  <circle cx="350.21" cy="300.01" r="2.5" fill="#2563eb"/>
  <circle cx="351.57" cy="300.01" r="2.5" fill="#2563eb"/>
  <circle cx="352.93" cy="300.01" r="2.5" fill="#2563eb"/>
  <circle cx="354.29" cy="249.86" r="2.5" fill="#2563eb"/>
  <circle cx="355.65" cy="300.01" r="2.5" fill="#2563eb"/>
  <circle cx="357.01" cy="300.10" r="2.5" fill="#2563eb"/>
  <circle cx="358.37" cy="299.93" r="2.5" fill="#2563eb"/>
  <circle cx="359.73" cy="300.01" r="2.5" fill="#2563eb"/>
  <circle cx="361.09" cy="299.93" r="2.5" fill="#2563eb"/>
  <circle cx="362.45" cy="300.01" r="2.5" fill="#2563eb"/>
  <circle cx="363.81" cy="300.01" r="2.5" fill="#2563eb"/>
  <circle cx="365.17" cy="300.01" r="2.5" fill="#2563eb"/>
  <circle cx="366.53" cy="300.01" r="2.5" fill="#2563eb"/>
  <circle cx="367.89" cy="300.01" r="2.5" fill="#2563eb"/>
  <circle cx="369.25" cy="299.97" r="2.5" fill="#2563eb"/>
  <circle cx="370.61" cy="300.01" r="2.5" fill="#2563eb"/>
  <circle cx="371.97" cy="300.01" r="2.5" fill="#2563eb"/>
  <circle cx="373.33" cy="300.01" r="2.5" fill="#2563eb"/>
  <circle cx="374.69" cy="300.01" r="2.5" fill="#2563eb"/>
  <circle cx="376.05" cy="250.03" r="2.5" fill="#2563eb"/>
  <circle cx="377.41" cy="300.01" r="2.5" fill="#2563eb"/>
  <circle cx="378.77" cy="300.01" r="2.5" fill="#2563eb"/>
  <circle cx="380.13" cy="299.97" r="2.5" fill="#2563eb"/>
  <circle cx="381.49" cy="300.01" r="2.5" fill="#2563eb"/>
  <circle cx="382.86" cy="300.01" r="2.5" fill="#2563eb"/>
  <circle cx="384.22" cy="299.97" r="2.5" fill="#2563eb"/>
  <circle cx="385.58" cy="299.97" r="2.5" fill="#2563eb"/>
  <circle cx="386.94" cy="300.01" r="2.5" fill="#2563eb"/>
  <circle cx="388.30" cy="299.97" r="2.5" fill="#2563eb"/>
  <circle cx="389.66" cy="300.01" r="2.5" fill="#2563eb"/>
  <circle cx="391.02" cy="299.93" r="2.5" fill="#2563eb"/>
  <circle cx="392.38" cy="300.01" r="2.5" fill="#2563eb"/>
  <circle cx="393.74" cy="250.03" r="2.5" fill="#2563eb"/>
  <circle cx="395.10" cy="300.01" r="2.5" fill="#2563eb"/>
  <circle cx="396.46" cy="300.01" r="2.5" fill="#2563eb"/>
  <circle cx="397.82" cy="300.01" r="2.5" fill="#2563eb"/>
  <circle cx="399.18" cy="300.01" r="2.5" fill="#2563eb"/>
  <circle cx="400.54" cy="300.01" r="2.5" fill="#2563eb"/>
  <circle cx="401.90" cy="299.89" r="2.5" fill="#2563eb"/>
  <circle cx="403.26" cy="300.01" r="2.5" fill="#2563eb"/>
  <circle cx="404.62" cy="300.01" r="2.5" fill="#2563eb"/>
  <circle cx="405.98" cy="250.07" r="2.5" fill="#2563eb"/>
  <circle cx="407.34" cy="300.01" r="2.5" fill="#2563eb"/>
  <circle cx="408.70" cy="299.93" r="2.5" fill="#2563eb"/>
  <circle cx="410.06" cy="300.01" r="2.5" fill="#2563eb"/>
  <circle cx="411.42" cy="299.97" r="2.5" fill="#2563eb"/>
  <circle cx="412.78" cy="299.97" r="2.5" fill="#2563eb"/>
  <circle cx="414.14" cy="299.97" r="2.5" fill="#2563eb"/>
  <circle cx="415.50" cy="250.03" r="2.5" fill="#2563eb"/>
  <circle cx="416.86" cy="300.01" r="2.5" fill="#2563eb"/>
  <circle cx="418.22" cy="300.01" r="2.5" fill="#2563eb"/>
  <circle cx="419.58" cy="300.01" r="2.5" fill="#2563eb"/>
  <circle cx="420.94" cy="300.01" r="2.5" fill="#2563eb"/>
  <circle cx="422.30" cy="299.97" r="2.5" fill="#2563eb"/>
  <circle cx="423.66" cy="300.01" r="2.5" fill="#2563eb"/>
  <circle cx="425.02" cy="299.97" r="2.5" fill="#2563eb"/>
  <circle cx="426.38" cy="300.01" r="2.5" fill="#2563eb"/>
  <circle cx="427.74" cy="299.97" r="2.5" fill="#2563eb"/>
  <circle cx="429.10" cy="249.90" r="2.5" fill="#2563eb"/>
  <circle cx="430.46" cy="300.01" r="2.5" fill="#2563eb"/>
  <circle cx="431.82" cy="300.01" r="2.5" fill="#2563eb"/>
  <circle cx="433.18" cy="299.89" r="2.5" fill="#2563eb"/>
  <circle cx="434.54" cy="299.97" r="2.5" fill="#2563eb"/>
  <circle cx="435.90" cy="299.97" r="2.5" fill="#2563eb"/>
  <circle cx="437.26" cy="249.99" r="2.5" fill="#2563eb"/>
  <circle cx="438.62" cy="299.97" r="2.5" fill="#2563eb"/>
  <circle cx="439.99" cy="299.89" r="2.5" fill="#2563eb"/>
  <circle cx="441.35" cy="300.01" r="2.5" fill="#2563eb"/>
  <circle cx="442.71" cy="299.97" r="2.5" fill="#2563eb"/>
  <circle cx="444.07" cy="299.97" r="2.5" fill="#2563eb"/>
  <circle cx="445.43" cy="300.01" r="2.5" fill="#2563eb"/>
  <circle cx="446.79" cy="299.97" r="2.5" fill="#2563eb"/>
  <circle cx="448.15" cy="249.99" r="2.5" fill="#2563eb"/>
  <circle cx="449.51" cy="299.97" r="2.5" fill="#2563eb"/>
  <circle cx="450.87" cy="299.97" r="2.5" fill="#2563eb"/>
  <circle cx="452.23" cy="300.06" r="2.5" fill="#2563eb"/>
  <circle cx="453.59" cy="300.06" r="2.5" fill="#2563eb"/>
  <circle cx="454.95" cy="249.94" r="2.5" fill="#2563eb"/>
  <circle cx="456.31" cy="300.01" r="2.5" fill="#2563eb"/>
  <circle cx="457.67" cy="299.93" r="2.5" fill="#2563eb"/>
  <circle cx="459.03" cy="300.01" r="2.5" fill="#2563eb"/>
  <circle cx="460.39" cy="300.01" r="2.5" fill="#2563eb"/>
  <circle cx="461.75" cy="249.99" r="2.5" fill="#2563eb"/>
  <circle cx="463.11" cy="300.01" r="2.5" fill="#2563eb"/>
  <circle cx="464.47" cy="300.01" r="2.5" fill="#2563eb"/>
  <circle cx="465.83" cy="300.01" r="2.5" fill="#2563eb"/>
  <circle cx="467.19" cy="299.93" r="2.5" fill="#2563eb"/>
  <circle cx="468.55" cy="299.93" r="2.5" fill="#2563eb"/>
  <circle cx="469.91" cy="300.01" r="2.5" fill="#2563eb"/>
  <circle cx="471.27" cy="300.01" r="2.5" fill="#2563eb"/>
  <circle cx="472.63" cy="249.94" r="2.5" fill="#2563eb"/>
  <circle cx="473.99" cy="299.97" r="2.5" fill="#2563eb"/>
  <circle cx="475.35" cy="299.97" r="2.5" fill="#2563eb"/>
  <circle cx="476.71" cy="300.01" r="2.5" fill="#2563eb"/>
  <circle cx="478.07" cy="300.01" r="2.5" fill="#2563eb"/>
  <circle cx="479.43" cy="300.01" r="2.5" fill="#2563eb"/>
  <circle cx="480.79" cy="249.99" r="2.5" fill="#2563eb"/>
  <circle cx="482.15" cy="300.01" r="2.5" fill="#2563eb"/>
  <circle cx="483.51" cy="300.01" r="2.5" fill="#2563eb"/>
  <circle cx="484.87" cy="300.01" r="2.5" fill="#2563eb"/>
  <circle cx="486.23" cy="250.03" r="2.5" fill="#2563eb"/>
  <circle cx="487.59" cy="300.01" r="2.5" fill="#2563eb"/>
  <circle cx="488.95" cy="300.01" r="2.5" fill="#2563eb"/>
  <circle cx="490.31" cy="300.01" r="2.5" fill="#2563eb"/>
  <circle cx="491.67" cy="299.97" r="2.5" fill="#2563eb"/>
  <circle cx="493.03" cy="300.01" r="2.5" fill="#2563eb"/>
  <circle cx="494.39" cy="300.01" r="2.5" fill="#2563eb"/>
  <circle cx="495.75" cy="299.97" r="2.5" fill="#2563eb"/>
  <circle cx="497.12" cy="299.97" r="2.5" fill="#2563eb"/>
  <circle cx="498.48" cy="300.01" r="2.5" fill="#2563eb"/>
  <circle cx="499.84" cy="300.01" r="2.5" fill="#2563eb"/>
  <circle cx="501.20" cy="299.97" r="2.5" fill="#2563eb"/>
  <circle cx="502.56" cy="299.93" r="2.5" fill="#2563eb"/>
  <circle cx="503.92" cy="300.01" r="2.5" fill="#2563eb"/>
  <circle cx="505.28" cy="300.06" r="2.5" fill="#2563eb"/>
  <circle cx="506.64" cy="299.97" r="2.5" fill="#2563eb"/>
  <circle cx="508.00" cy="300.01" r="2.5" fill="#2563eb"/>
  <circle cx="509.36" cy="250.03" r="2.5" fill="#2563eb"/>
  <circle cx="510.72" cy="250.03" r="2.5" fill="#2563eb"/>
  <circle cx="512.08" cy="299.93" r="2.5" fill="#2563eb"/>
  <circle cx="513.44" cy="299.97" r="2.5" fill="#2563eb"/>
  <circle cx="514.80" cy="300.01" r="2.5" fill="#2563eb"/>
  <circle cx="516.16" cy="300.01" r="2.5" fill="#2563eb"/>
  <circle cx="517.52" cy="300.06" r="2.5" fill="#2563eb"/>
  <circle cx="518.88" cy="300.01" r="2.5" fill="#2563eb"/>
  <circle cx="520.24" cy="299.93" r="2.5" fill="#2563eb"/>
  <circle cx="521.60" cy="300.01" r="2.5" fill="#2563eb"/>
  <circle cx="522.96" cy="300.01" r="2.5" fill="#2563eb"/>
  <circle cx="524.32" cy="299.97" r="2.5" fill="#2563eb"/>
  <circle cx="525.68" cy="299.97" r="2.5" fill="#2563eb"/>
  <circle cx="527.04" cy="300.01" r="2.5" fill="#2563eb"/>
  <circle cx="528.40" cy="250.03" r="2.5" fill="#2563eb"/>
  <circle cx="529.76" cy="300.01" r="2.5" fill="#2563eb"/>
  <circle cx="531.12" cy="300.01" r="2.5" fill="#2563eb"/>
  <circle cx="532.48" cy="300.01" r="2.5" fill="#2563eb"/>
  <circle cx="533.84" cy="299.97" r="2.5" fill="#2563eb"/>
  <circle cx="535.20" cy="300.01" r="2.5" fill="#2563eb"/>
  <circle cx="536.56" cy="299.97" r="2.5" fill="#2563eb"/>
  <circle cx="537.92" cy="300.01" r="2.5" fill="#2563eb"/>
  <circle cx="539.28" cy="299.97" r="2.5" fill="#2563eb"/>
  <circle cx="540.64" cy="299.97" r="2.5" fill="#2563eb"/>
  <circle cx="542.00" cy="299.93" r="2.5" fill="#2563eb"/>
  <circle cx="543.36" cy="300.01" r="2.5" fill="#2563eb"/>
  <circle cx="544.72" cy="300.01" r="2.5" fill="#2563eb"/>
  <circle cx="546.08" cy="299.89" r="2.5" fill="#2563eb"/>
  <circle cx="547.44" cy="299.97" r="2.5" fill="#2563eb"/>
  <circle cx="548.80" cy="299.97" r="2.5" fill="#2563eb"/>
  <circle cx="550.16" cy="300.06" r="2.5" fill="#2563eb"/>
  <circle cx="551.52" cy="249.90" r="2.5" fill="#2563eb"/>
  <circle cx="552.88" cy="299.89" r="2.5" fill="#2563eb"/>
  <circle cx="554.25" cy="300.01" r="2.5" fill="#2563eb"/>
  <circle cx="555.61" cy="299.97" r="2.5" fill="#2563eb"/>
  <circle cx="556.97" cy="299.97" r="2.5" fill="#2563eb"/>
  <circle cx="558.33" cy="299.97" r="2.5" fill="#2563eb"/>
  <circle cx="559.69" cy="300.01" r="2.5" fill="#2563eb"/>
  <circle cx="561.05" cy="300.01" r="2.5" fill="#2563eb"/>
  <circle cx="562.41" cy="299.97" r="2.5" fill="#2563eb"/>
  <circle cx="563.77" cy="299.97" r="2.5" fill="#2563eb"/>
  <circle cx="565.13" cy="299.97" r="2.5" fill="#2563eb"/>
  <circle cx="566.49" cy="250.03" r="2.5" fill="#2563eb"/>
  <circle cx="567.85" cy="299.93" r="2.5" fill="#2563eb"/>
  <circle cx="569.21" cy="300.01" r="2.5" fill="#2563eb"/>
  <circle cx="570.57" cy="300.01" r="2.5" fill="#2563eb"/>
  <circle cx="571.93" cy="299.93" r="2.5" fill="#2563eb"/>
  <circle cx="573.29" cy="300.01" r="2.5" fill="#2563eb"/>
  <circle cx="574.65" cy="300.01" r="2.5" fill="#2563eb"/>
  <circle cx="576.01" cy="299.97" r="2.5" fill="#2563eb"/>
  <circle cx="577.37" cy="300.01" r="2.5" fill="#2563eb"/>
  <circle cx="578.73" cy="300.01" r="2.5" fill="#2563eb"/>
  <circle cx="580.09" cy="300.06" r="2.5" fill="#2563eb"/>
  <circle cx="581.45" cy="300.01" r="2.5" fill="#2563eb"/>
  <circle cx="582.81" cy="299.97" r="2.5" fill="#2563eb"/>
  <circle cx="584.17" cy="299.89" r="2.5" fill="#2563eb"/>
  <circle cx="585.53" cy="300.01" r="2.5" fill="#2563eb"/>
  <circle cx="586.89" cy="300.01" r="2.5" fill="#2563eb"/>
  <circle cx="588.25" cy="249.94" r="2.5" fill="#2563eb"/>
  <circle cx="589.61" cy="249.94" r="2.5" fill="#2563eb"/>
  <circle cx="590.97" cy="300.01" r="2.5" fill="#2563eb"/>
  <circle cx="592.33" cy="300.01" r="2.5" fill="#2563eb"/>
  <circle cx="593.69" cy="300.01" r="2.5" fill="#2563eb"/>
  <circle cx="595.05" cy="300.01" r="2.5" fill="#2563eb"/>
  <circle cx="596.41" cy="299.97" r="2.5" fill="#2563eb"/>
  <circle cx="597.77" cy="250.03" r="2.5" fill="#2563eb"/>
  <circle cx="599.13" cy="300.01" r="2.5" fill="#2563eb"/>
  <circle cx="600.49" cy="300.01" r="2.5" fill="#2563eb"/>
  <circle cx="601.85" cy="300.01" r="2.5" fill="#2563eb"/>
  <circle cx="603.21" cy="300.01" r="2.5" fill="#2563eb"/>
  <circle cx="604.57" cy="250.03" r="2.5" fill="#2563eb"/>
  <circle cx="605.93" cy="249.99" r="2.5" fill="#2563eb"/>
  <circle cx="607.29" cy="300.01" r="2.5" fill="#2563eb"/>
  <circle cx="608.65" cy="299.97" r="2.5" fill="#2563eb"/>
  <circle cx="610.01" cy="300.01" r="2.5" fill="#2563eb"/>
  <circle cx="611.38" cy="299.97" r="2.5" fill="#2563eb"/>
  <circle cx="612.74" cy="300.01" r="2.5" fill="#2563eb"/>
  <circle cx="614.10" cy="299.97" r="2.5" fill="#2563eb"/>
  <circle cx="615.46" cy="299.97" r="2.5" fill="#2563eb"/>
  <circle cx="616.82" cy="299.97" r="2.5" fill="#2563eb"/>
  <circle cx="618.18" cy="300.06" r="2.5" fill="#2563eb"/>
  <circle cx="619.54" cy="249.99" r="2.5" fill="#2563eb"/>
  <circle cx="620.90" cy="300.01" r="2.5" fill="#2563eb"/>
  <circle cx="622.26" cy="250.03" r="2.5" fill="#2563eb"/>
  <circle cx="623.62" cy="249.94" r="2.5" fill="#2563eb"/>
  <circle cx="624.98" cy="249.99" r="2.5" fill="#2563eb"/>
  <circle cx="626.34" cy="300.01" r="2.5" fill="#2563eb"/>
  <circle cx="627.70" cy="300.06" r="2.5" fill="#2563eb"/>
  <circle cx="629.06" cy="300.01" r="2.5" fill="#2563eb"/>
  <circle cx="630.42" cy="299.97" r="2.5" fill="#2563eb"/>
  <circle cx="631.78" cy="299.97" r="2.5" fill="#2563eb"/>
  <circle cx="633.14" cy="300.01" r="2.5" fill="#2563eb"/>
  <circle cx="634.50" cy="299.93" r="2.5" fill="#2563eb"/>
  <circle cx="635.86" cy="299.89" r="2.5" fill="#2563eb"/>
  <circle cx="637.22" cy="299.89" r="2.5" fill="#2563eb"/>
  <circle cx="638.58" cy="299.89" r="2.5" fill="#2563eb"/>
  <circle cx="639.94" cy="299.89" r="2.5" fill="#2563eb"/>
  <circle cx="641.30" cy="299.85" r="2.5" fill="#2563eb"/>
  <circle cx="642.66" cy="299.85" r="2.5" fill="#2563eb"/>
  <circle cx="644.02" cy="299.89" r="2.5" fill="#2563eb"/>
  <circle cx="645.38" cy="299.81" r="2.5" fill="#2563eb"/>
  <circle cx="646.74" cy="299.81" r="2.5" fill="#2563eb"/>
  <circle cx="648.10" cy="299.81" r="2.5" fill="#2563eb"/>
  <circle cx="649.46" cy="299.76" r="2.5" fill="#2563eb"/>
  <circle cx="650.82" cy="299.76" r="2.5" fill="#2563eb"/>
  <circle cx="652.18" cy="299.76" r="2.5" fill="#2563eb"/>
  <circle cx="653.54" cy="299.72" r="2.5" fill="#2563eb"/>
  <circle cx="654.90" cy="299.68" r="2.5" fill="#2563eb"/>
  <circle cx="656.26" cy="299.60" r="2.5" fill="#2563eb"/>
  <circle cx="657.62" cy="299.60" r="2.5" fill="#2563eb"/>
  <circle cx="658.98" cy="299.60" r="2.5" fill="#2563eb"/>
  <circle cx="660.34" cy="299.56" r="2.5" fill="#2563eb"/>
  <circle cx="661.70" cy="299.47" r="2.5" fill="#2563eb"/>
  <circle cx="663.06" cy="299.43" r="2.5" fill="#2563eb"/>
  <circle cx="664.42" cy="299.43" r="2.5" fill="#2563eb"/>
  <circle cx="665.78" cy="299.39" r="2.5" fill="#2563eb"/>
  <circle cx="667.14" cy="299.47" r="2.5" fill="#2563eb"/>
  <circle cx="668.51" cy="259.82" r="2.5" fill="#2563eb"/>
  <circle cx="669.87" cy="338.96" r="2.5" fill="#2563eb"/>
  <circle cx="671.23" cy="299.31" r="2.5" fill="#2563eb"/>
  <circle cx="672.59" cy="299.31" r="2.5" fill="#2563eb"/>
  <circle cx="673.95" cy="299.26" r="2.5" fill="#2563eb"/>
  <circle cx="675.31" cy="299.68" r="2.5" fill="#2563eb"/>
  <circle cx="676.67" cy="299.68" r="2.5" fill="#2563eb"/>
  <circle cx="678.03" cy="299.68" r="2.5" fill="#2563eb"/>
  <circle cx="679.39" cy="299.64" r="2.5" fill="#2563eb"/>
  <circle cx="680.75" cy="299.14" r="2.5" fill="#2563eb"/>
  <circle cx="682.11" cy="299.14" r="2.5" fill="#2563eb"/>
  <circle cx="683.47" cy="299.10" r="2.5" fill="#2563eb"/>
  <circle cx="684.83" cy="299.10" r="2.5" fill="#2563eb"/>
  <circle cx="686.19" cy="299.10" r="2.5" fill="#2563eb"/>
  <circle cx="687.55" cy="248.07" r="2.5" fill="#2563eb"/>
  <circle cx="688.91" cy="299.06" r="2.5" fill="#2563eb"/>
  <circle cx="690.27" cy="299.06" r="2.5" fill="#2563eb"/>
  <circle cx="691.63" cy="299.06" r="2.5" fill="#2563eb"/>
  <circle cx="692.99" cy="299.06" r="2.5" fill="#2563eb"/>
  <circle cx="694.35" cy="299.06" r="2.5" fill="#2563eb"/>
  <circle cx="695.71" cy="298.97" r="2.5" fill="#2563eb"/>
  <circle cx="697.07" cy="298.97" r="2.5" fill="#2563eb"/>
  <circle cx="698.43" cy="298.93" r="2.5" fill="#2563eb"/>
  <circle cx="699.79" cy="298.97" r="2.5" fill="#2563eb"/>
  <circle cx="701.15" cy="298.93" r="2.5" fill="#2563eb"/>
  <circle cx="702.51" cy="298.89" r="2.5" fill="#2563eb"/>
  <circle cx="703.87" cy="298.89" r="2.5" fill="#2563eb"/>
  <circle cx="705.23" cy="298.89" r="2.5" fill="#2563eb"/>
  <circle cx="706.59" cy="298.89" r="2.5" fill="#2563eb"/>
  <circle cx="707.95" cy="247.78" r="2.5" fill="#2563eb"/>
  <circle cx="709.31" cy="298.89" r="2.5" fill="#2563eb"/>
  <circle cx="710.67" cy="298.89" r="2.5" fill="#2563eb"/>
  <circle cx="712.03" cy="298.85" r="2.5" fill="#2563eb"/>
  <circle cx="713.39" cy="298.85" r="2.5" fill="#2563eb"/>
  <circle cx="714.75" cy="298.81" r="2.5" fill="#2563eb"/>
  <circle cx="716.11" cy="298.81" r="2.5" fill="#2563eb"/>
  <circle cx="717.47" cy="298.81" r="2.5" fill="#2563eb"/>
  <circle cx="718.83" cy="298.81" r="2.5" fill="#2563eb"/>
  <circle cx="720.19" cy="298.81" r="2.5" fill="#2563eb"/>
  <circle cx="721.55" cy="298.81" r="2.5" fill="#2563eb"/>
  <circle cx="722.91" cy="298.81" r="2.5" fill="#2563eb"/>
  <circle cx="724.28" cy="298.81" r="2.5" fill="#2563eb"/>
  <circle cx="725.64" cy="298.81" r="2.5" fill="#2563eb"/>
  <circle cx="727.00" cy="298.72" r="2.5" fill="#2563eb"/>
  <circle cx="728.36" cy="247.45" r="2.5" fill="#2563eb"/>
  <circle cx="729.72" cy="247.45" r="2.5" fill="#2563eb"/>
  <circle cx="731.08" cy="298.72" r="2.5" fill="#2563eb"/>
  <circle cx="732.44" cy="298.72" r="2.5" fill="#2563eb"/>
  <circle cx="733.80" cy="298.72" r="2.5" fill="#2563eb"/>
  <circle cx="735.16" cy="298.72" r="2.5" fill="#2563eb"/>
  <circle cx="736.52" cy="298.72" r="2.5" fill="#2563eb"/>
  <circle cx="737.88" cy="298.72" r="2.5" fill="#2563eb"/>
  <circle cx="739.24" cy="247.36" r="2.5" fill="#2563eb"/>
  <circle cx="740.60" cy="298.68" r="2.5" fill="#2563eb"/>
  <circle cx="741.96" cy="247.36" r="2.5" fill="#2563eb"/>
  <circle cx="743.32" cy="247.36" r="2.5" fill="#2563eb"/>
  <circle cx="744.68" cy="247.36" r="2.5" fill="#2563eb"/>
  <circle cx="746.04" cy="298.68" r="2.5" fill="#2563eb"/>
  <circle cx="747.40" cy="298.68" r="2.5" fill="#2563eb"/>
  <circle cx="748.76" cy="298.68" r="2.5" fill="#2563eb"/>
  <circle cx="750.12" cy="298.68" r="2.5" fill="#2563eb"/>
  <circle cx="751.48" cy="298.68" r="2.5" fill="#2563eb"/>
  <circle cx="752.84" cy="341.67" r="2.5" fill="#2563eb"/>
  <circle cx="754.20" cy="307.01" r="2.5" fill="#2563eb"/>
  <circle cx="755.56" cy="298.68" r="2.5" fill="#2563eb"/>
  <circle cx="756.92" cy="298.68" r="2.5" fill="#2563eb"/>
  <circle cx="758.28" cy="298.68" r="2.5" fill="#2563eb"/>
  <circle cx="759.64" cy="247.36" r="2.5" fill="#2563eb"/>
  <circle cx="761.00" cy="298.64" r="2.5" fill="#2563eb"/>
  <circle cx="762.36" cy="247.36" r="2.5" fill="#2563eb"/>
  <circle cx="763.72" cy="247.28" r="2.5" fill="#2563eb"/>
  <circle cx="765.08" cy="247.20" r="2.5" fill="#2563eb"/>
  <circle cx="766.44" cy="298.60" r="2.5" fill="#2563eb"/>
  <circle cx="767.80" cy="298.60" r="2.5" fill="#2563eb"/>
  <circle cx="769.16" cy="247.03" r="2.5" fill="#2563eb"/>
  <circle cx="770.52" cy="298.51" r="2.5" fill="#2563eb"/>
  <circle cx="771.88" cy="298.51" r="2.5" fill="#2563eb"/>
  <circle cx="773.24" cy="298.51" r="2.5" fill="#2563eb"/>
  <circle cx="774.60" cy="298.51" r="2.5" fill="#2563eb"/>
  <circle cx="775.96" cy="298.51" r="2.5" fill="#2563eb"/>
  <circle cx="777.32" cy="298.51" r="2.5" fill="#2563eb"/>
  <circle cx="778.68" cy="298.51" r="2.5" fill="#2563eb"/>
  <circle cx="780.04" cy="298.51" r="2.5" fill="#2563eb"/>
  <circle cx="781.41" cy="298.51" r="2.5" fill="#2563eb"/>
  <circle cx="782.77" cy="298.51" r="2.5" fill="#2563eb"/>
  <circle cx="784.13" cy="298.51" r="2.5" fill="#2563eb"/>
  <circle cx="785.49" cy="298.51" r="2.5" fill="#2563eb"/>
  <circle cx="786.85" cy="298.51" r="2.5" fill="#2563eb"/>
  <circle cx="788.21" cy="298.51" r="2.5" fill="#2563eb"/>
  <circle cx="789.57" cy="298.51" r="2.5" fill="#2563eb"/>
  <circle cx="790.93" cy="298.51" r="2.5" fill="#2563eb"/>
  <circle cx="792.29" cy="298.51" r="2.5" fill="#2563eb"/>
  <circle cx="793.65" cy="298.51" r="2.5" fill="#2563eb"/>
  <circle cx="795.01" cy="298.51" r="2.5" fill="#2563eb"/>
  <circle cx="796.37" cy="298.51" r="2.5" fill="#2563eb"/>
  <circle cx="797.73" cy="298.51" r="2.5" fill="#2563eb"/>
  <circle cx="799.09" cy="298.51" r="2.5" fill="#2563eb"/>
  <circle cx="800.45" cy="298.51" r="2.5" fill="#2563eb"/>
  <circle cx="801.81" cy="298.51" r="2.5" fill="#2563eb"/>
  <circle cx="803.17" cy="298.51" r="2.5" fill="#2563eb"/>
  <circle cx="804.53" cy="298.51" r="2.5" fill="#2563eb"/>
  <circle cx="805.89" cy="298.47" r="2.5" fill="#2563eb"/>
  <circle cx="807.25" cy="298.51" r="2.5" fill="#2563eb"/>
  <circle cx="808.61" cy="298.51" r="2.5" fill="#2563eb"/>
  <circle cx="809.97" cy="298.47" r="2.5" fill="#2563eb"/>
  <circle cx="811.33" cy="298.51" r="2.5" fill="#2563eb"/>
  <circle cx="812.69" cy="298.47" r="2.5" fill="#2563eb"/>
  <circle cx="814.05" cy="298.51" r="2.5" fill="#2563eb"/>
  <circle cx="815.41" cy="298.43" r="2.5" fill="#2563eb"/>
  <circle cx="816.77" cy="298.56" r="2.5" fill="#2563eb"/>
  <circle cx="818.13" cy="298.43" r="2.5" fill="#2563eb"/>
  <circle cx="819.49" cy="298.43" r="2.5" fill="#2563eb"/>
  <circle cx="820.85" cy="298.43" r="2.5" fill="#2563eb"/>
  <circle cx="822.21" cy="298.43" r="2.5" fill="#2563eb"/>
  <circle cx="823.57" cy="298.43" r="2.5" fill="#2563eb"/>
  <circle cx="824.93" cy="298.43" r="2.5" fill="#2563eb"/>
  <circle cx="826.29" cy="298.43" r="2.5" fill="#2563eb"/>
  <circle cx="827.65" cy="298.43" r="2.5" fill="#2563eb"/>
  <circle cx="829.01" cy="298.43" r="2.5" fill="#2563eb"/>
  <circle cx="830.37" cy="298.43" r="2.5" fill="#2563eb"/>
  <circle cx="831.73" cy="298.43" r="2.5" fill="#2563eb"/>
  <circle cx="833.09" cy="298.43" r="2.5" fill="#2563eb"/>
  <circle cx="834.45" cy="298.43" r="2.5" fill="#2563eb"/>
  <circle cx="835.81" cy="298.43" r="2.5" fill="#2563eb"/>
  <circle cx="837.17" cy="298.43" r="2.5" fill="#2563eb"/>
  <circle cx="838.54" cy="298.43" r="2.5" fill="#2563eb"/>
  <circle cx="839.90" cy="298.43" r="2.5" fill="#2563eb"/>
  <circle cx="841.26" cy="298.43" r="2.5" fill="#2563eb"/>
  <circle cx="842.62" cy="298.43" r="2.5" fill="#2563eb"/>
  <circle cx="843.98" cy="298.43" r="2.5" fill="#2563eb"/>
  <circle cx="845.34" cy="298.43" r="2.5" fill="#2563eb"/>
  <circle cx="846.70" cy="298.43" r="2.5" fill="#2563eb"/>
  <circle cx="848.06" cy="298.43" r="2.5" fill="#2563eb"/>
  <circle cx="849.42" cy="298.43" r="2.5" fill="#2563eb"/>
  <circle cx="850.78" cy="298.43" r="2.5" fill="#2563eb"/>
  <circle cx="852.14" cy="298.43" r="2.5" fill="#2563eb"/>
  <circle cx="853.50" cy="298.43" r="2.5" fill="#2563eb"/>
  <circle cx="854.86" cy="298.43" r="2.5" fill="#2563eb"/>
  <circle cx="856.22" cy="298.43" r="2.5" fill="#2563eb"/>
  <circle cx="857.58" cy="298.43" r="2.5" fill="#2563eb"/>
  <circle cx="858.94" cy="298.43" r="2.5" fill="#2563eb"/>
  <circle cx="860.30" cy="298.43" r="2.5" fill="#2563eb"/>
  <circle cx="861.66" cy="298.43" r="2.5" fill="#2563eb"/>
  <circle cx="863.02" cy="298.43" r="2.5" fill="#2563eb"/>
  <circle cx="864.38" cy="298.39" r="2.5" fill="#2563eb"/>
  <circle cx="865.74" cy="298.39" r="2.5" fill="#2563eb"/>
  <circle cx="867.10" cy="298.43" r="2.5" fill="#2563eb"/>
  <circle cx="868.46" cy="298.43" r="2.5" fill="#2563eb"/>
  <circle cx="869.82" cy="298.39" r="2.5" fill="#2563eb"/>
  <circle cx="871.18" cy="298.39" r="2.5" fill="#2563eb"/>
  <circle cx="872.54" cy="298.39" r="2.5" fill="#2563eb"/>
  <circle cx="873.90" cy="298.43" r="2.5" fill="#2563eb"/>
  <circle cx="875.26" cy="298.43" r="2.5" fill="#2563eb"/>
  <circle cx="876.62" cy="298.43" r="2.5" fill="#2563eb"/>
  <circle cx="877.98" cy="246.82" r="2.5" fill="#2563eb"/>
  <circle cx="879.34" cy="298.43" r="2.5" fill="#2563eb"/>
  <circle cx="880.70" cy="246.78" r="2.5" fill="#2563eb"/>
  <circle cx="882.06" cy="246.78" r="2.5" fill="#2563eb"/>
  <circle cx="883.42" cy="246.78" r="2.5" fill="#2563eb"/>
  <circle cx="884.78" cy="246.70" r="2.5" fill="#2563eb"/>
  <circle cx="886.14" cy="246.78" r="2.5" fill="#2563eb"/>
  <circle cx="887.50" cy="298.39" r="2.5" fill="#2563eb"/>
  <circle cx="888.86" cy="298.39" r="2.5" fill="#2563eb"/>
  <circle cx="890.22" cy="298.39" r="2.5" fill="#2563eb"/>
  <circle cx="891.58" cy="298.39" r="2.5" fill="#2563eb"/>
  <circle cx="892.94" cy="298.39" r="2.5" fill="#2563eb"/>
  <circle cx="894.30" cy="246.78" r="2.5" fill="#2563eb"/>
  <circle cx="895.67" cy="298.39" r="2.5" fill="#2563eb"/>
  <circle cx="897.03" cy="298.39" r="2.5" fill="#2563eb"/>
  <circle cx="898.39" cy="298.39" r="2.5" fill="#2563eb"/>
  <circle cx="899.75" cy="298.39" r="2.5" fill="#2563eb"/>
  <circle cx="901.11" cy="298.39" r="2.5" fill="#2563eb"/>
  <circle cx="902.47" cy="246.78" r="2.5" fill="#2563eb"/>
  <circle cx="903.83" cy="246.78" r="2.5" fill="#2563eb"/>
  <circle cx="905.19" cy="298.39" r="2.5" fill="#2563eb"/>
  <circle cx="906.55" cy="298.39" r="2.5" fill="#2563eb"/>
  <circle cx="907.91" cy="298.39" r="2.5" fill="#2563eb"/>
  <circle cx="909.27" cy="298.39" r="2.5" fill="#2563eb"/>
  <circle cx="910.63" cy="298.39" r="2.5" fill="#2563eb"/>
  <circle cx="911.99" cy="298.39" r="2.5" fill="#2563eb"/>
  <circle cx="913.35" cy="298.39" r="2.5" fill="#2563eb"/>
  <circle cx="914.71" cy="298.39" r="2.5" fill="#2563eb"/>
  <circle cx="916.07" cy="298.39" r="2.5" fill="#2563eb"/>
  <circle cx="917.43" cy="298.39" r="2.5" fill="#2563eb"/>
  <circle cx="918.79" cy="298.39" r="2.5" fill="#2563eb"/>
  <circle cx="920.15" cy="298.39" r="2.5" fill="#2563eb"/>
  <circle cx="921.51" cy="298.39" r="2.5" fill="#2563eb"/>
  <circle cx="922.87" cy="298.39" r="2.5" fill="#2563eb"/>
  <circle cx="924.23" cy="298.35" r="2.5" fill="#2563eb"/>
  <circle cx="925.59" cy="298.39" r="2.5" fill="#2563eb"/>
  <circle cx="926.95" cy="298.39" r="2.5" fill="#2563eb"/>
  <circle cx="928.31" cy="298.35" r="2.5" fill="#2563eb"/>
  <circle cx="929.67" cy="298.35" r="2.5" fill="#2563eb"/>
  <circle cx="931.03" cy="298.35" r="2.5" fill="#2563eb"/>
  <circle cx="932.39" cy="298.35" r="2.5" fill="#2563eb"/>
  <circle cx="933.75" cy="298.35" r="2.5" fill="#2563eb"/>
  <circle cx="935.11" cy="298.35" r="2.5" fill="#2563eb"/>
  <circle cx="936.47" cy="298.35" r="2.5" fill="#2563eb"/>
  <circle cx="937.83" cy="298.35" r="2.5" fill="#2563eb"/>
  <circle cx="939.19" cy="298.35" r="2.5" fill="#2563eb"/>
  <circle cx="940.55" cy="298.35" r="2.5" fill="#2563eb"/>
  <circle cx="941.91" cy="298.35" r="2.5" fill="#2563eb"/>
  <circle cx="943.27" cy="298.35" r="2.5" fill="#2563eb"/>
  <circle cx="944.63" cy="298.35" r="2.5" fill="#2563eb"/>
  <circle cx="945.99" cy="298.35" r="2.5" fill="#2563eb"/>
  <circle cx="947.35" cy="298.35" r="2.5" fill="#2563eb"/>
  <circle cx="948.71" cy="298.35" r="2.5" fill="#2563eb"/>
  <circle cx="950.07" cy="298.35" r="2.5" fill="#2563eb"/>
  <circle cx="951.43" cy="298.35" r="2.5" fill="#2563eb"/>
  <circle cx="952.80" cy="298.35" r="2.5" fill="#2563eb"/>
  <circle cx="954.16" cy="298.35" r="2.5" fill="#2563eb"/>
  <circle cx="955.52" cy="298.35" r="2.5" fill="#2563eb"/>
  <circle cx="956.88" cy="298.35" r="2.5" fill="#2563eb"/>
  <circle cx="958.24" cy="298.35" r="2.5" fill="#2563eb"/>
  <circle cx="959.60" cy="298.35" r="2.5" fill="#2563eb"/>
  <circle cx="960.96" cy="298.35" r="2.5" fill="#2563eb"/>
  <circle cx="962.32" cy="298.35" r="2.5" fill="#2563eb"/>
  <circle cx="963.68" cy="298.35" r="2.5" fill="#2563eb"/>
  <circle cx="965.04" cy="298.35" r="2.5" fill="#2563eb"/>
  <circle cx="966.40" cy="298.35" r="2.5" fill="#2563eb"/>
  <circle cx="967.76" cy="298.35" r="2.5" fill="#2563eb"/>
  <circle cx="969.12" cy="298.35" r="2.5" fill="#2563eb"/>
  <circle cx="970.48" cy="298.35" r="2.5" fill="#2563eb"/>
  <circle cx="971.84" cy="298.35" r="2.5" fill="#2563eb"/>
  <circle cx="973.20" cy="298.35" r="2.5" fill="#2563eb"/>
  <circle cx="974.56" cy="298.35" r="2.5" fill="#2563eb"/>
  <circle cx="975.92" cy="298.35" r="2.5" fill="#2563eb"/>
  <circle cx="977.28" cy="298.35" r="2.5" fill="#2563eb"/>
  <circle cx="978.64" cy="298.35" r="2.5" fill="#2563eb"/>
  <circle cx="980.00" cy="298.35" r="2.5" fill="#2563eb"/>
</svg>
