<?xml version="1.0" encoding="UTF-8"?>
<svg xmlns="http://www.w3.org/2000/svg" width="1000" height="420" viewBox="0 0 1000 420">
  <rect width="100%" height="100%" fill="#ffffff"/>
  <text x="70" y="28" font-size="20" font-weight="600">수집 시점 기준 - 시간별 스냅샷</text>
  <text x="70" y="402" font-size="12" fill="#555">스냅샷 수</text>
  <line x1="70" y1="350.00" x2="980" y2="350.00" stroke="#e5e7eb" stroke-width="1"/>
  <text x="62" y="354.00" font-size="11" fill="#6b7280" text-anchor="end">0</text>
  <line x1="70" y1="290.00" x2="980" y2="290.00" stroke="#e5e7eb" stroke-width="1"/>
  <text x="62" y="294.00" font-size="11" fill="#6b7280" text-anchor="end">1,440</text>
  <line x1="70" y1="230.00" x2="980" y2="230.00" stroke="#e5e7eb" stroke-width="1"/>
  <text x="62" y="234.00" font-size="11" fill="#6b7280" text-anchor="end">2,880</text>
  <line x1="70" y1="170.00" x2="980" y2="170.00" stroke="#e5e7eb" stroke-width="1"/>
  <text x="62" y="174.00" font-size="11" fill="#6b7280" text-anchor="end">4,321</text>
  <line x1="70" y1="110.00" x2="980" y2="110.00" stroke="#e5e7eb" stroke-width="1"/>
  <text x="62" y="114.00" font-size="11" fill="#6b7280" text-anchor="end">5,761</text>
  <line x1="70" y1="50.00" x2="980" y2="50.00" stroke="#e5e7eb" stroke-width="1"/>
  <text x="62" y="54.00" font-size="11" fill="#6b7280" text-anchor="end">7,202</text>
  <line x1="70" y1="350" x2="980" y2="350" stroke="#111827" stroke-width="1.2"/>
  <line x1="70" y1="50" x2="70" y2="350" stroke="#111827" stroke-width="1.2"/>
  <line x1="70.00" y1="350" x2="70.00" y2="356" stroke="#9ca3af" stroke-width="1"/>
  <text x="70.00" y="372" font-size="10" fill="#6b7280" text-anchor="middle">2026-02-28 18</text>
  <line x1="144.85" y1="350" x2="144.85" y2="356" stroke="#9ca3af" stroke-width="1"/>
  <text x="144.85" y="372" font-size="10" fill="#6b7280" text-anchor="middle">2026-03-09 06</text>
  <line x1="219.71" y1="350" x2="219.71" y2="356" stroke="#9ca3af" stroke-width="1"/>
  <text x="219.71" y="372" font-size="10" fill="#6b7280" text-anchor="middle">2026-03-11 15</text>
  <line x1="294.56" y1="350" x2="294.56" y2="356" stroke="#9ca3af" stroke-width="1"/>
  <text x="294.56" y="372" font-size="10" fill="#6b7280" text-anchor="middle">2026-03-13 22</text>
  <line x1="369.42" y1="350" x2="369.42" y2="356" stroke="#9ca3af" stroke-width="1"/>
  <text x="369.42" y="372" font-size="10" fill="#6b7280" text-anchor="middle">2026-03-16 22</text>
  <line x1="444.27" y1="350" x2="444.27" y2="356" stroke="#9ca3af" stroke-width="1"/>
  <text x="444.27" y="372" font-size="10" fill="#6b7280" text-anchor="middle">2026-03-20 07</text>
  <line x1="519.13" y1="350" x2="519.13" y2="356" stroke="#9ca3af" stroke-width="1"/>
  <text x="519.13" y="372" font-size="10" fill="#6b7280" text-anchor="middle">2026-03-23 04</text>
  <line x1="593.98" y1="350" x2="593.98" y2="356" stroke="#9ca3af" stroke-width="1"/>
  <text x="593.98" y="372" font-size="10" fill="#6b7280" text-anchor="middle">2026-03-26 16</text>
  <line x1="668.84" y1="350" x2="668.84" y2="356" stroke="#9ca3af" stroke-width="1"/>
  <text x="668.84" y="372" font-size="10" fill="#6b7280" text-anchor="middle">2026-03-30 04</text>
  <line x1="743.69" y1="350" x2="743.69" y2="356" stroke="#9ca3af" stroke-width="1"/>
  <text x="743.69" y="372" font-size="10" fill="#6b7280" text-anchor="middle">2026-04-02 20</text>
  <line x1="818.55" y1="350" x2="818.55" y2="356" stroke="#9ca3af" stroke-width="1"/>
  <text x="818.55" y="372" font-size="10" fill="#6b7280" text-anchor="middle">2026-04-06 02</text>
  <line x1="893.40" y1="350" x2="893.40" y2="356" stroke="#9ca3af" stroke-width="1"/>
  <text x="893.40" y="372" font-size="10" fill="#6b7280" text-anchor="middle">2026-04-09 18</text>
  <line x1="968.26" y1="350" x2="968.26" y2="356" stroke="#9ca3af" stroke-width="1"/>
  <text x="968.26" y="372" font-size="10" fill="#6b7280" text-anchor="middle">2026-04-13 04</text>
  <line x1="980.00" y1="350" x2="980.00" y2="356" stroke="#9ca3af" stroke-width="1"/>
  <text x="980.00" y="372" font-size="10" fill="#6b7280" text-anchor="middle">2026-04-13 21</text>
  <polyline fill="none" stroke="#2563eb" stroke-width="2.5" points="70.00,50.00 71.47,50.12 72.94,50.17 74.40,50.46 75.87,50.00 77.34,266.90 78.81,50.12 80.27,50.08 81.74,177.46 83.21,211.58 84.68,175.34 86.15,304.14 87.61,200.46 89.08,250.94 90.55,300.01 92.02,300.06 93.48,300.01 94.95,300.01 96.42,348.00 97.89,300.01 99.35,249.99 100.82,200.00 102.29,249.99 103.76,249.99 105.23,250.03 106.69,250.03 108.16,250.03 109.63,250.40 111.10,250.90 112.56,250.90 114.03,251.32 115.50,249.94 116.97,300.01 118.44,299.93 119.90,251.03 121.37,300.68 122.84,250.03 124.31,200.00 125.77,249.99 127.24,250.03 128.71,250.03 130.18,250.03 131.65,300.01 133.11,200.04 134.58,250.03 136.05,250.03 137.52,250.03 138.98,249.90 140.45,250.03 141.92,250.03 143.39,250.94 144.85,250.44 146.32,250.03 147.79,250.03 149.26,300.47 150.73,300.01 152.19,300.43 153.66,250.03 155.13,249.99 156.60,300.43 158.06,249.90 159.53,249.99 161.00,249.99 162.47,200.04 163.94,300.01 165.40,300.01 166.87,300.01 168.34,249.90 169.81,300.01 171.27,250.03 172.74,249.99 174.21,199.96 175.68,300.01 177.15,200.00 178.61,250.36 180.08,250.03 181.55,300.01 183.02,300.01 184.48,250.44 185.95,300.01 187.42,250.03 188.89,250.03 190.35,249.99 191.82,250.49 193.29,250.03 194.76,200.04 196.23,300.01 197.69,250.03 199.16,300.01 200.63,250.11 202.10,300.01 203.56,250.03 205.03,250.03 206.50,199.92 207.97,250.03 209.44,250.03 210.90,250.03 212.37,254.36 213.84,300.01 215.31,299.97 216.77,250.36 218.24,299.97 219.71,250.03 221.18,250.03 222.65,250.03 224.11,250.03 225.58,249.99 227.05,200.00 228.52,299.93 229.98,300.01 231.45,299.97 232.92,249.94 234.39,249.99 235.85,249.82 237.32,249.94 238.79,250.28 240.26,207.00 241.73,250.03 243.19,250.32 244.66,250.40 246.13,300.93 247.60,300.01 249.06,300.10 250.53,249.94 252.00,249.99 253.47,250.07 254.94,249.99 256.40,250.03 257.87,249.94 259.34,200.00 260.81,300.39 262.27,300.01 263.74,300.01 265.21,250.44 266.68,300.39 268.15,249.86 269.61,250.11 271.08,201.46 272.55,300.01 274.02,200.83 275.48,250.03 276.95,249.99 278.42,300.26 279.89,300.01 281.35,300.01 282.82,250.03 284.29,250.03 285.76,250.03 287.23,250.03 288.69,249.99 290.16,250.03 291.63,200.00 293.10,300.26 294.56,249.99 296.03,300.01 297.50,249.94 298.97,250.03 300.44,250.03 301.90,250.03 303.37,200.04 304.84,300.01 306.31,249.90 307.77,300.01 309.24,300.01 310.71,300.06 312.18,300.01 313.65,300.01 315.11,243.95 316.58,249.94 318.05,299.97 319.52,300.01 320.98,300.01 322.45,250.03 323.92,300.01 325.39,300.01 326.85,299.97 328.32,249.99 329.79,300.01 331.26,299.93 332.73,300.01 334.19,299.93 335.66,300.01 337.13,300.01 338.60,299.89 340.06,299.97 341.53,250.03 343.00,299.93 344.47,299.89 345.94,299.97 347.40,249.94 348.87,300.01 350.34,300.01 351.81,299.97 353.27,249.99 354.74,299.97 356.21,299.97 357.68,300.06 359.15,300.06 360.61,299.93 362.08,300.01 363.55,300.01 365.02,299.93 366.48,300.01 367.95,300.01 369.42,299.97 370.89,300.01 372.35,300.01 373.82,300.01 375.29,300.01 376.76,249.86 378.23,300.01 379.69,300.10 381.16,299.93 382.63,300.01 384.10,299.93 385.56,300.01 387.03,300.01 388.50,300.01 389.97,300.01 391.44,300.01 392.90,299.97 394.37,300.01 395.84,300.01 397.31,300.01 398.77,300.01 400.24,250.03 401.71,300.01 403.18,300.01 404.65,299.97 406.11,300.01 407.58,300.01 409.05,299.97 410.52,299.97 411.98,300.01 413.45,299.97 414.92,300.01 416.39,299.93 417.85,300.01 419.32,250.03 420.79,300.01 422.26,300.01 423.73,300.01 425.19,300.01 426.66,300.01 428.13,299.89 429.60,300.01 431.06,300.01 432.53,250.07 434.00,300.01 435.47,299.93 436.94,300.01 438.40,299.97 439.87,299.97 441.34,299.97 442.81,250.03 444.27,300.01 445.74,300.01 447.21,300.01 448.68,300.01 450.15,299.97 451.61,300.01 453.08,299.97 454.55,300.01 456.02,299.97 457.48,249.90 458.95,300.01 460.42,300.01 461.89,299.89 463.35,299.97 464.82,299.97 466.29,249.99 467.76,299.97 469.23,299.89 470.69,300.01 472.16,299.97 473.63,299.97 475.10,300.01 476.56,299.97 478.03,249.99 479.50,299.97 480.97,299.97 482.44,300.06 483.90,300.06 485.37,249.94 486.84,300.01 488.31,299.93 489.77,300.01 491.24,300.01 492.71,249.99 494.18,300.01 495.65,300.01 497.11,300.01 498.58,299.93 500.05,299.93 501.52,300.01 502.98,300.01 504.45,249.94 505.92,299.97 507.39,299.97 508.85,300.01 510.32,300.01 511.79,300.01 513.26,249.99 514.73,300.01 516.19,300.01 517.66,300.01 519.13,250.03 520.60,300.01 522.06,300.01 523.53,300.01 525.00,299.97 526.47,300.01 527.94,300.01 529.40,299.97 530.87,299.97 532.34,300.01 533.81,300.01 535.27,299.97 536.74,299.93 538.21,300.01 539.68,300.06 541.15,299.97 542.61,300.01 544.08,250.03 545.55,250.03 547.02,299.93 548.48,299.97 549.95,300.01 551.42,300.01 552.89,300.06 554.35,300.01 555.82,299.93 557.29,300.01 558.76,300.01 560.23,299.97 561.69,299.97 563.16,300.01 564.63,250.03 566.10,300.01 567.56,300.01 569.03,300.01 570.50,299.97 571.97,300.01 573.44,299.97 574.90,300.01 576.37,299.97 577.84,299.97 579.31,299.93 580.77,300.01 582.24,300.01 583.71,299.89 585.18,299.97 586.65,299.97 588.11,300.06 589.58,249.90 591.05,299.89 592.52,300.01 593.98,299.97 595.45,299.97 596.92,299.97 598.39,300.01 599.85,300.01 601.32,299.97 602.79,299.97 604.26,299.97 605.73,250.03 607.19,299.93 608.66,300.01 610.13,300.01 611.60,299.93 613.06,300.01 614.53,300.01 616.00,299.97 617.47,300.01 618.94,300.01 620.40,300.06 621.87,300.01 623.34,299.97 624.81,299.89 626.27,300.01 627.74,300.01 629.21,249.94 630.68,249.94 632.15,300.01 633.61,300.01 635.08,300.01 636.55,300.01 638.02,299.97 639.48,250.03 640.95,300.01 642.42,300.01 643.89,300.01 645.35,300.01 646.82,250.03 648.29,249.99 649.76,300.01 651.23,299.97 652.69,300.01 654.16,299.97 655.63,300.01 657.10,299.97 658.56,299.97 660.03,299.97 661.50,300.06 662.97,249.99 664.44,300.01 665.90,250.03 667.37,249.94 668.84,249.99 670.31,300.01 671.77,300.06 673.24,300.01 674.71,299.97 676.18,299.97 677.65,300.01 679.11,299.93 680.58,299.89 682.05,299.89 683.52,299.89 684.98,299.89 686.45,299.85 687.92,299.85 689.39,299.89 690.85,299.81 692.32,299.81 693.79,299.81 695.26,299.76 696.73,299.76 698.19,299.76 699.66,299.72 701.13,299.68 702.60,299.60 704.06,299.60 705.53,299.60 707.00,299.56 708.47,299.47 709.94,299.43 711.40,299.43 712.87,299.39 714.34,299.47 715.81,259.82 717.27,338.96 718.74,299.31 720.21,299.31 721.68,299.26 723.15,299.68 724.61,299.68 726.08,299.68 727.55,299.64 729.02,299.14 730.48,299.14 731.95,299.10 733.42,299.10 734.89,299.10 736.35,248.07 737.82,299.06 739.29,299.06 740.76,299.06 742.23,299.06 743.69,299.06 745.16,298.97 746.63,298.97 748.10,298.93 749.56,298.97 751.03,298.93 752.50,298.89 753.97,298.89 755.44,298.89 756.90,298.89 758.37,247.78 759.84,298.89 761.31,298.89 762.77,298.85 764.24,298.85 765.71,298.81 767.18,298.81 768.65,298.81 770.11,298.81 771.58,298.81 773.05,298.81 774.52,298.81 775.98,298.81 777.45,298.81 778.92,298.72 780.39,247.45 781.85,247.45 783.32,298.72 784.79,298.72 786.26,298.72 787.73,298.72 789.19,298.72 790.66,298.72 792.13,247.36 793.60,298.68 795.06,247.36 796.53,247.36 798.00,247.36 799.47,298.68 800.94,298.68 802.40,298.68 803.87,298.68 805.34,298.68 806.81,341.67 808.27,307.01 809.74,298.68 811.21,298.68 812.68,298.68 814.15,247.36 815.61,298.64 817.08,247.36 818.55,247.28 820.02,247.20 821.48,298.60 822.95,298.60 824.42,247.03 825.89,298.51 827.35,298.51 828.82,298.51 830.29,298.51 831.76,298.51 833.23,298.51 834.69,298.51 836.16,298.51 837.63,298.51 839.10,298.51 840.56,298.51 842.03,298.51 843.50,298.51 844.97,298.51 846.44,298.51 847.90,298.51 849.37,298.51 850.84,298.51 852.31,298.51 853.77,298.51 855.24,298.51 856.71,298.51 858.18,298.51 859.65,298.51 861.11,298.51 862.58,298.51 864.05,298.47 865.52,298.51 866.98,298.51 868.45,298.47 869.92,298.51 871.39,298.47 872.85,298.51 874.32,298.43 875.79,298.56 877.26,298.43 878.73,298.43 880.19,298.43 881.66,298.43 883.13,298.43 884.60,298.43 886.06,298.43 887.53,298.43 889.00,298.43 890.47,298.43 891.94,298.43 893.40,298.43 894.87,298.43 896.34,298.43 897.81,298.43 899.27,298.43 900.74,298.43 902.21,298.43 903.68,298.43 905.15,298.43 906.61,298.43 908.08,298.43 909.55,298.43 911.02,298.43 912.48,298.43 913.95,298.43 915.42,298.43 916.89,298.43 918.35,298.43 919.82,298.43 921.29,298.43 922.76,298.43 924.23,298.43 925.69,298.43 927.16,298.39 928.63,298.39 930.10,298.43 931.56,298.43 933.03,298.39 934.50,298.39 935.97,298.39 937.44,298.43 938.90,298.43 940.37,298.43 941.84,246.82 943.31,298.43 944.77,246.78 946.24,246.78 947.71,246.78 949.18,246.70 950.65,246.78 952.11,298.39 953.58,298.39 955.05,298.39 956.52,298.39 957.98,298.39 959.45,246.78 960.92,298.39 962.39,298.39 963.85,298.39 965.32,298.39 966.79,298.39 968.26,246.78 969.73,246.78 971.19,298.39 972.66,298.39 974.13,298.39 975.60,298.39 977.06,298.39 978.53,298.39 980.00,298.39"/>
  <circle cx="70.00" cy="50.00" r="2.5" fill="#2563eb"/>
  <circle cx="71.47" cy="50.12" r="2.5" fill="#2563eb"/>
  <circle cx="72.94" cy="50.17" r="2.5" fill="#2563eb"/>
  <circle cx="74.40" cy="50.46" r="2.5" fill="#2563eb"/>
  <circle cx="75.87" cy="50.00" r="2.5" fill="#2563eb"/>
  <circle cx="77.34" cy="266.90" r="2.5" fill="#2563eb"/>
  <circle cx="78.81" cy="50.12" r="2.5" fill="#2563eb"/>
  <circle cx="80.27" cy="50.08" r="2.5" fill="#2563eb"/>
  <circle cx="81.74" cy="177.46" r="2.5" fill="#2563eb"/>
  <circle cx="83.21" cy="211.58" r="2.5" fill="#2563eb"/>
  <circle cx="84.68" cy="175.34" r="2.5" fill="#2563eb"/>
  <circle cx="86.15" cy="304.14" r="2.5" fill="#2563eb"/>
  <circle cx="87.61" cy="200.46" r="2.5" fill="#2563eb"/>
  <circle cx="89.08" cy="250.94" r="2.5" fill="#2563eb"/>
  <circle cx="90.55" cy="300.01" r="2.5" fill="#2563eb"/>
  <circle cx="92.02" cy="300.06" r="2.5" fill="#2563eb"/>
  <circle cx="93.48" cy="300.01" r="2.5" fill="#2563eb"/>
  <circle cx="94.95" cy="300.01" r="2.5" fill="#2563eb"/>
  <circle cx="96.42" cy="348.00" r="2.5" fill="#2563eb"/>
  <circle cx="97.89" cy="300.01" r="2.5" fill="#2563eb"/>
  <circle cx="99.35" cy="249.99" r="2.5" fill="#2563eb"/>
  <circle cx="100.82" cy="200.00" r="2.5" fill="#2563eb"/>
  <circle cx="102.29" cy="249.99" r="2.5" fill="#2563eb"/>
  <circle cx="103.76" cy="249.99" r="2.5" fill="#2563eb"/>
  <circle cx="105.23" cy="250.03" r="2.5" fill="#2563eb"/>
  <circle cx="106.69" cy="250.03" r="2.5" fill="#2563eb"/>
  <circle cx="108.16" cy="250.03" r="2.5" fill="#2563eb"/>
  <circle cx="109.63" cy="250.40" r="2.5" fill="#2563eb"/>
  <circle cx="111.10" cy="250.90" r="2.5" fill="#2563eb"/>
  <circle cx="112.56" cy="250.90" r="2.5" fill="#2563eb"/>
  <circle cx="114.03" cy="251.32" r="2.5" fill="#2563eb"/>
  <circle cx="115.50" cy="249.94" r="2.5" fill="#2563eb"/>
  <circle cx="116.97" cy="300.01" r="2.5" fill="#2563eb"/>
  <circle cx="118.44" cy="299.93" r="2.5" fill="#2563eb"/>
  <circle cx="119.90" cy="251.03" r="2.5" fill="#2563eb"/>
  <circle cx="121.37" cy="300.68" r="2.5" fill="#2563eb"/>
  <circle cx="122.84" cy="250.03" r="2.5" fill="#2563eb"/>
  <circle cx="124.31" cy="200.00" r="2.5" fill="#2563eb"/>
  <circle cx="125.77" cy="249.99" r="2.5" fill="#2563eb"/>
  <circle cx="127.24" cy="250.03" r="2.5" fill="#2563eb"/>
  <circle cx="128.71" cy="250.03" r="2.5" fill="#2563eb"/>
  <circle cx="130.18" cy="250.03" r="2.5" fill="#2563eb"/>
  <circle cx="131.65" cy="300.01" r="2.5" fill="#2563eb"/>
  <circle cx="133.11" cy="200.04" r="2.5" fill="#2563eb"/>
  <circle cx="134.58" cy="250.03" r="2.5" fill="#2563eb"/>
  <circle cx="136.05" cy="250.03" r="2.5" fill="#2563eb"/>
  <circle cx="137.52" cy="250.03" r="2.5" fill="#2563eb"/>
  <circle cx="138.98" cy="249.90" r="2.5" fill="#2563eb"/>
  <circle cx="140.45" cy="250.03" r="2.5" fill="#2563eb"/>
  <circle cx="141.92" cy="250.03" r="2.5" fill="#2563eb"/>
  <circle cx="143.39" cy="250.94" r="2.5" fill="#2563eb"/>
  <circle cx="144.85" cy="250.44" r="2.5" fill="#2563eb"/>
  <circle cx="146.32" cy="250.03" r="2.5" fill="#2563eb"/>
  <circle cx="147.79" cy="250.03" r="2.5" fill="#2563eb"/>
  <circle cx="149.26" cy="300.47" r="2.5" fill="#2563eb"/>
  <circle cx="150.73" cy="300.01" r="2.5" fill="#2563eb"/>
  <circle cx="152.19" cy="300.43" r="2.5" fill="#2563eb"/>
  <circle cx="153.66" cy="250.03" r="2.5" fill="#2563eb"/>
  <circle cx="155.13" cy="249.99" r="2.5" fill="#2563eb"/>
  <circle cx="156.60" cy="300.43" r="2.5" fill="#2563eb"/>
  <circle cx="158.06" cy="249.90" r="2.5" fill="#2563eb"/>
  <circle cx="159.53" cy="249.99" r="2.5" fill="#2563eb"/>
  <circle cx="161.00" cy="249.99" r="2.5" fill="#2563eb"/>
  <circle cx="162.47" cy="200.04" r="2.5" fill="#2563eb"/>
  <circle cx="163.94" cy="300.01" r="2.5" fill="#2563eb"/>
  <circle cx="165.40" cy="300.01" r="2.5" fill="#2563eb"/>
  <circle cx="166.87" cy="300.01" r="2.5" fill="#2563eb"/>
  <circle cx="168.34" cy="249.90" r="2.5" fill="#2563eb"/>
  <circle cx="169.81" cy="300.01" r="2.5" fill="#2563eb"/>
  <circle cx="171.27" cy="250.03" r="2.5" fill="#2563eb"/>
  <circle cx="172.74" cy="249.99" r="2.5" fill="#2563eb"/>
  <circle cx="174.21" cy="199.96" r="2.5" fill="#2563eb"/>
  <circle cx="175.68" cy="300.01" r="2.5" fill="#2563eb"/>
  <circle cx="177.15" cy="200.00" r="2.5" fill="#2563eb"/>
  <circle cx="178.61" cy="250.36" r="2.5" fill="#2563eb"/>
  <circle cx="180.08" cy="250.03" r="2.5" fill="#2563eb"/>
  <circle cx="181.55" cy="300.01" r="2.5" fill="#2563eb"/>
  <circle cx="183.02" cy="300.01" r="2.5" fill="#2563eb"/>
  <circle cx="184.48" cy="250.44" r="2.5" fill="#2563eb"/>
  <circle cx="185.95" cy="300.01" r="2.5" fill="#2563eb"/>
  <circle cx="187.42" cy="250.03" r="2.5" fill="#2563eb"/>
  <circle cx="188.89" cy="250.03" r="2.5" fill="#2563eb"/>
  <circle cx="190.35" cy="249.99" r="2.5" fill="#2563eb"/>
  <circle cx="191.82" cy="250.49" r="2.5" fill="#2563eb"/>
  <circle cx="193.29" cy="250.03" r="2.5" fill="#2563eb"/>
  <circle cx="194.76" cy="200.04" r="2.5" fill="#2563eb"/>
  <circle cx="196.23" cy="300.01" r="2.5" fill="#2563eb"/>
  <circle cx="197.69" cy="250.03" r="2.5" fill="#2563eb"/>
  <circle cx="199.16" cy="300.01" r="2.5" fill="#2563eb"/>
  <circle cx="200.63" cy="250.11" r="2.5" fill="#2563eb"/>
  <circle cx="202.10" cy="300.01" r="2.5" fill="#2563eb"/>
  <circle cx="203.56" cy="250.03" r="2.5" fill="#2563eb"/>
  <circle cx="205.03" cy="250.03" r="2.5" fill="#2563eb"/>
  <circle cx="206.50" cy="199.92" r="2.5" fill="#2563eb"/>
  <circle cx="207.97" cy="250.03" r="2.5" fill="#2563eb"/>
  <circle cx="209.44" cy="250.03" r="2.5" fill="#2563eb"/>
  <circle cx="210.90" cy="250.03" r="2.5" fill="#2563eb"/>
  <circle cx="212.37" cy="254.36" r="2.5" fill="#2563eb"/>
  <circle cx="213.84" cy="300.01" r="2.5" fill="#2563eb"/>
  <circle cx="215.31" cy="299.97" r="2.5" fill="#2563eb"/>
  <circle cx="216.77" cy="250.36" r="2.5" fill="#2563eb"/>
  <circle cx="218.24" cy="299.97" r="2.5" fill="#2563eb"/>
  <circle cx="219.71" cy="250.03" r="2.5" fill="#2563eb"/>
  <circle cx="221.18" cy="250.03" r="2.5" fill="#2563eb"/>
  <circle cx="222.65" cy="250.03" r="2.5" fill="#2563eb"/>
  <circle cx="224.11" cy="250.03" r="2.5" fill="#2563eb"/>
  <circle cx="225.58" cy="249.99" r="2.5" fill="#2563eb"/>
  <circle cx="227.05" cy="200.00" r="2.5" fill="#2563eb"/>
  <circle cx="228.52" cy="299.93" r="2.5" fill="#2563eb"/>
  <circle cx="229.98" cy="300.01" r="2.5" fill="#2563eb"/>
  <circle cx="231.45" cy="299.97" r="2.5" fill="#2563eb"/>
  <circle cx="232.92" cy="249.94" r="2.5" fill="#2563eb"/>
  <circle cx="234.39" cy="249.99" r="2.5" fill="#2563eb"/>
  <circle cx="235.85" cy="249.82" r="2.5" fill="#2563eb"/>
  <circle cx="237.32" cy="249.94" r="2.5" fill="#2563eb"/>
  <circle cx="238.79" cy="250.28" r="2.5" fill="#2563eb"/>
  <circle cx="240.26" cy="207.00" r="2.5" fill="#2563eb"/>
  <circle cx="241.73" cy="250.03" r="2.5" fill="#2563eb"/>
  <circle cx="243.19" cy="250.32" r="2.5" fill="#2563eb"/>
  <circle cx="244.66" cy="250.40" r="2.5" fill="#2563eb"/>
  <circle cx="246.13" cy="300.93" r="2.5" fill="#2563eb"/>
  <circle cx="247.60" cy="300.01" r="2.5" fill="#2563eb"/>
  <circle cx="249.06" cy="300.10" r="2.5" fill="#2563eb"/>
  <circle cx="250.53" cy="249.94" r="2.5" fill="#2563eb"/>
  <circle cx="252.00" cy="249.99" r="2.5" fill="#2563eb"/>
  <circle cx="253.47" cy="250.07" r="2.5" fill="#2563eb"/>
  <circle cx="254.94" cy="249.99" r="2.5" fill="#2563eb"/>
  <circle cx="256.40" cy="250.03" r="2.5" fill="#2563eb"/>
  <circle cx="257.87" cy="249.94" r="2.5" fill="#2563eb"/>
  <circle cx="259.34" cy="200.00" r="2.5" fill="#2563eb"/>
  <circle cx="260.81" cy="300.39" r="2.5" fill="#2563eb"/>
  <circle cx="262.27" cy="300.01" r="2.5" fill="#2563eb"/>
  <circle cx="263.74" cy="300.01" r="2.5" fill="#2563eb"/>
  <circle cx="265.21" cy="250.44" r="2.5" fill="#2563eb"/>
  <circle cx="266.68" cy="300.39" r="2.5" fill="#2563eb"/>
  <circle cx="268.15" cy="249.86" r="2.5" fill="#2563eb"/>
  <circle cx="269.61" cy="250.11" r="2.5" fill="#2563eb"/>
  <circle cx="271.08" cy="201.46" r="2.5" fill="#2563eb"/>
  <circle cx="272.55" cy="300.01" r="2.5" fill="#2563eb"/>
  <circle cx="274.02" cy="200.83" r="2.5" fill="#2563eb"/>
  <circle cx="275.48" cy="250.03" r="2.5" fill="#2563eb"/>
  <circle cx="276.95" cy="249.99" r="2.5" fill="#2563eb"/>
  <circle cx="278.42" cy="300.26" r="2.5" fill="#2563eb"/>
  <circle cx="279.89" cy="300.01" r="2.5" fill="#2563eb"/>
  <circle cx="281.35" cy="300.01" r="2.5" fill="#2563eb"/>
  <circle cx="282.82" cy="250.03" r="2.5" fill="#2563eb"/>
  <circle cx="284.29" cy="250.03" r="2.5" fill="#2563eb"/>
  <circle cx="285.76" cy="250.03" r="2.5" fill="#2563eb"/>
  <circle cx="287.23" cy="250.03" r="2.5" fill="#2563eb"/>
  <circle cx="288.69" cy="249.99" r="2.5" fill="#2563eb"/>
  <circle cx="290.16" cy="250.03" r="2.5" fill="#2563eb"/>
  <circle cx="291.63" cy="200.00" r="2.5" fill="#2563eb"/>
  <circle cx="293.10" cy="300.26" r="2.5" fill="#2563eb"/>
  <circle cx="294.56" cy="249.99" r="2.5" fill="#2563eb"/>
  <circle cx="296.03" cy="300.01" r="2.5" fill="#2563eb"/>
  <circle cx="297.50" cy="249.94" r="2.5" fill="#2563eb"/>
  <circle cx="298.97" cy="250.03" r="2.5" fill="#2563eb"/>
  <circle cx="300.44" cy="250.03" r="2.5" fill="#2563eb"/>
  <circle cx="301.90" cy="250.03" r="2.5" fill="#2563eb"/>
  <circle cx="303.37" cy="200.04" r="2.5" fill="#2563eb"/>
  <circle cx="304.84" cy="300.01" r="2.5" fill="#2563eb"/>
  <circle cx="306.31" cy="249.90" r="2.5" fill="#2563eb"/>
  <circle cx="307.77" cy="300.01" r="2.5" fill="#2563eb"/>
  <circle cx="309.24" cy="300.01" r="2.5" fill="#2563eb"/>
  <circle cx="310.71" cy="300.06" r="2.5" fill="#2563eb"/>
  <circle cx="312.18" cy="300.01" r="2.5" fill="#2563eb"/>
  <circle cx="313.65" cy="300.01" r="2.5" fill="#2563eb"/>
  <circle cx="315.11" cy="243.95" r="2.5" fill="#2563eb"/>
  <circle cx="316.58" cy="249.94" r="2.5" fill="#2563eb"/>
  <circle cx="318.05" cy="299.97" r="2.5" fill="#2563eb"/>
  <circle cx="319.52" cy="300.01" r="2.5" fill="#2563eb"/>
  <circle cx="320.98" cy="300.01" r="2.5" fill="#2563eb"/>
  <circle cx="322.45" cy="250.03" r="2.5" fill="#2563eb"/>
  <circle cx="323.92" cy="300.01" r="2.5" fill="#2563eb"/>
  <circle cx="325.39" cy="300.01" r="2.5" fill="#2563eb"/>
  <circle cx="326.85" cy="299.97" r="2.5" fill="#2563eb"/>
  <circle cx="328.32" cy="249.99" r="2.5" fill="#2563eb"/>
  <circle cx="329.79" cy="300.01" r="2.5" fill="#2563eb"/>
  <circle cx="331.26" cy="299.93" r="2.5" fill="#2563eb"/>
  <circle cx="332.73" cy="300.01" r="2.5" fill="#2563eb"/>
  <circle cx="334.19" cy="299.93" r="2.5" fill="#2563eb"/>
  <circle cx="335.66" cy="300.01" r="2.5" fill="#2563eb"/>
  <circle cx="337.13" cy="300.01" r="2.5" fill="#2563eb"/>
  <circle cx="338.60" cy="299.89" r="2.5" fill="#2563eb"/>
  <circle cx="340.06" cy="299.97" r="2.5" fill="#2563eb"/>
  <circle cx="341.53" cy="250.03" r="2.5" fill="#2563eb"/>
  <circle cx="343.00" cy="299.93" r="2.5" fill="#2563eb"/>
  <circle cx="344.47" cy="299.89" r="2.5" fill="#2563eb"/>
  <circle cx="345.94" cy="299.97" r="2.5" fill="#2563eb"/>
  <circle cx="347.40" cy="249.94" r="2.5" fill="#2563eb"/>
  <circle cx="348.87" cy="300.01" r="2.5" fill="#2563eb"/>
  <circle cx="350.34" cy="300.01" r="2.5" fill="#2563eb"/>
  <circle cx="351.81" cy="299.97" r="2.5" fill="#2563eb"/>
  <circle cx="353.27" cy="249.99" r="2.5" fill="#2563eb"/>
  <circle cx="354.74" cy="299.97" r="2.5" fill="#2563eb"/>
  <circle cx="356.21" cy="299.97" r="2.5" fill="#2563eb"/>
  <circle cx="357.68" cy="300.06" r="2.5" fill="#2563eb"/>
  <circle cx="359.15" cy="300.06" r="2.5" fill="#2563eb"/>
  <circle cx="360.61" cy="299.93" r="2.5" fill="#2563eb"/>
  <circle cx="362.08" cy="300.01" r="2.5" fill="#2563eb"/>
  <circle cx="363.55" cy="300.01" r="2.5" fill="#2563eb"/>
  <circle cx="365.02" cy="299.93" r="2.5" fill="#2563eb"/>
  <circle cx="366.48" cy="300.01" r="2.5" fill="#2563eb"/>
  <circle cx="367.95" cy="300.01" r="2.5" fill="#2563eb"/>
  <circle cx="369.42" cy="299.97" r="2.5" fill="#2563eb"/>
  <circle cx="370.89" cy="300.01" r="2.5" fill="#2563eb"/>
  <circle cx="372.35" cy="300.01" r="2.5" fill="#2563eb"/>
  <circle cx="373.82" cy="300.01" r="2.5" fill="#2563eb"/>
  <circle cx="375.29" cy="300.01" r="2.5" fill="#2563eb"/>
  <circle cx="376.76" cy="249.86" r="2.5" fill="#2563eb"/>
  <circle cx="378.23" cy="300.01" r="2.5" fill="#2563eb"/>
  <circle cx="379.69" cy="300.10" r="2.5" fill="#2563eb"/>
  <circle cx="381.16" cy="299.93" r="2.5" fill="#2563eb"/>
  <circle cx="382.63" cy="300.01" r="2.5" fill="#2563eb"/>
  <circle cx="384.10" cy="299.93" r="2.5" fill="#2563eb"/>
  <circle cx="385.56" cy="300.01" r="2.5" fill="#2563eb"/>
  <circle cx="387.03" cy="300.01" r="2.5" fill="#2563eb"/>
  <circle cx="388.50" cy="300.01" r="2.5" fill="#2563eb"/>
  <circle cx="389.97" cy="300.01" r="2.5" fill="#2563eb"/>
  <circle cx="391.44" cy="300.01" r="2.5" fill="#2563eb"/>
  <circle cx="392.90" cy="299.97" r="2.5" fill="#2563eb"/>
  <circle cx="394.37" cy="300.01" r="2.5" fill="#2563eb"/>
  <circle cx="395.84" cy="300.01" r="2.5" fill="#2563eb"/>
  <circle cx="397.31" cy="300.01" r="2.5" fill="#2563eb"/>
  <circle cx="398.77" cy="300.01" r="2.5" fill="#2563eb"/>
  <circle cx="400.24" cy="250.03" r="2.5" fill="#2563eb"/>
  <circle cx="401.71" cy="300.01" r="2.5" fill="#2563eb"/>
  <circle cx="403.18" cy="300.01" r="2.5" fill="#2563eb"/>
  <circle cx="404.65" cy="299.97" r="2.5" fill="#2563eb"/>
  <circle cx="406.11" cy="300.01" r="2.5" fill="#2563eb"/>
  <circle cx="407.58" cy="300.01" r="2.5" fill="#2563eb"/>
  <circle cx="409.05" cy="299.97" r="2.5" fill="#2563eb"/>
  <circle cx="410.52" cy="299.97" r="2.5" fill="#2563eb"/>
  <circle cx="411.98" cy="300.01" r="2.5" fill="#2563eb"/>
  <circle cx="413.45" cy="299.97" r="2.5" fill="#2563eb"/>
  <circle cx="414.92" cy="300.01" r="2.5" fill="#2563eb"/>
  <circle cx="416.39" cy="299.93" r="2.5" fill="#2563eb"/>
  <circle cx="417.85" cy="300.01" r="2.5" fill="#2563eb"/>
  <circle cx="419.32" cy="250.03" r="2.5" fill="#2563eb"/>
  <circle cx="420.79" cy="300.01" r="2.5" fill="#2563eb"/>
  <circle cx="422.26" cy="300.01" r="2.5" fill="#2563eb"/>
  <circle cx="423.73" cy="300.01" r="2.5" fill="#2563eb"/>
  <circle cx="425.19" cy="300.01" r="2.5" fill="#2563eb"/>
  <circle cx="426.66" cy="300.01" r="2.5" fill="#2563eb"/>
  <circle cx="428.13" cy="299.89" r="2.5" fill="#2563eb"/>
  <circle cx="429.60" cy="300.01" r="2.5" fill="#2563eb"/>
  <circle cx="431.06" cy="300.01" r="2.5" fill="#2563eb"/>
  <circle cx="432.53" cy="250.07" r="2.5" fill="#2563eb"/>
  <circle cx="434.00" cy="300.01" r="2.5" fill="#2563eb"/>
  <circle cx="435.47" cy="299.93" r="2.5" fill="#2563eb"/>
  <circle cx="436.94" cy="300.01" r="2.5" fill="#2563eb"/>
  <circle cx="438.40" cy="299.97" r="2.5" fill="#2563eb"/>
  <circle cx="439.87" cy="299.97" r="2.5" fill="#2563eb"/>
  <circle cx="441.34" cy="299.97" r="2.5" fill="#2563eb"/>
  <circle cx="442.81" cy="250.03" r="2.5" fill="#2563eb"/>
  <circle cx="444.27" cy="300.01" r="2.5" fill="#2563eb"/>
  <circle cx="445.74" cy="300.01" r="2.5" fill="#2563eb"/>
  <circle cx="447.21" cy="300.01" r="2.5" fill="#2563eb"/>
  <circle cx="448.68" cy="300.01" r="2.5" fill="#2563eb"/>
  <circle cx="450.15" cy="299.97" r="2.5" fill="#2563eb"/>
  <circle cx="451.61" cy="300.01" r="2.5" fill="#2563eb"/>
  <circle cx="453.08" cy="299.97" r="2.5" fill="#2563eb"/>
  <circle cx="454.55" cy="300.01" r="2.5" fill="#2563eb"/>
  <circle cx="456.02" cy="299.97" r="2.5" fill="#2563eb"/>
  <circle cx="457.48" cy="249.90" r="2.5" fill="#2563eb"/>
  <circle cx="458.95" cy="300.01" r="2.5" fill="#2563eb"/>
  <circle cx="460.42" cy="300.01" r="2.5" fill="#2563eb"/>
  <circle cx="461.89" cy="299.89" r="2.5" fill="#2563eb"/>
  <circle cx="463.35" cy="299.97" r="2.5" fill="#2563eb"/>
  <circle cx="464.82" cy="299.97" r="2.5" fill="#2563eb"/>
  <circle cx="466.29" cy="249.99" r="2.5" fill="#2563eb"/>
  <circle cx="467.76" cy="299.97" r="2.5" fill="#2563eb"/>
  <circle cx="469.23" cy="299.89" r="2.5" fill="#2563eb"/>
  <circle cx="470.69" cy="300.01" r="2.5" fill="#2563eb"/>
  <circle cx="472.16" cy="299.97" r="2.5" fill="#2563eb"/>
  <circle cx="473.63" cy="299.97" r="2.5" fill="#2563eb"/>
  <circle cx="475.10" cy="300.01" r="2.5" fill="#2563eb"/>
  <circle cx="476.56" cy="299.97" r="2.5" fill="#2563eb"/>
  <circle cx="478.03" cy="249.99" r="2.5" fill="#2563eb"/>
  <circle cx="479.50" cy="299.97" r="2.5" fill="#2563eb"/>
  <circle cx="480.97" cy="299.97" r="2.5" fill="#2563eb"/>
  <circle cx="482.44" cy="300.06" r="2.5" fill="#2563eb"/>
  <circle cx="483.90" cy="300.06" r="2.5" fill="#2563eb"/>
  <circle cx="485.37" cy="249.94" r="2.5" fill="#2563eb"/>
  <circle cx="486.84" cy="300.01" r="2.5" fill="#2563eb"/>
  <circle cx="488.31" cy="299.93" r="2.5" fill="#2563eb"/>
  <circle cx="489.77" cy="300.01" r="2.5" fill="#2563eb"/>
  <circle cx="491.24" cy="300.01" r="2.5" fill="#2563eb"/>
  <circle cx="492.71" cy="249.99" r="2.5" fill="#2563eb"/>
  <circle cx="494.18" cy="300.01" r="2.5" fill="#2563eb"/>
  <circle cx="495.65" cy="300.01" r="2.5" fill="#2563eb"/>
  <circle cx="497.11" cy="300.01" r="2.5" fill="#2563eb"/>
  <circle cx="498.58" cy="299.93" r="2.5" fill="#2563eb"/>
  <circle cx="500.05" cy="299.93" r="2.5" fill="#2563eb"/>
  <circle cx="501.52" cy="300.01" r="2.5" fill="#2563eb"/>
  <circle cx="502.98" cy="300.01" r="2.5" fill="#2563eb"/>
  <circle cx="504.45" cy="249.94" r="2.5" fill="#2563eb"/>
  <circle cx="505.92" cy="299.97" r="2.5" fill="#2563eb"/>
  <circle cx="507.39" cy="299.97" r="2.5" fill="#2563eb"/>
  <circle cx="508.85" cy="300.01" r="2.5" fill="#2563eb"/>
  <circle cx="510.32" cy="300.01" r="2.5" fill="#2563eb"/>
  <circle cx="511.79" cy="300.01" r="2.5" fill="#2563eb"/>
  <circle cx="513.26" cy="249.99" r="2.5" fill="#2563eb"/>
  <circle cx="514.73" cy="300.01" r="2.5" fill="#2563eb"/>
  <circle cx="516.19" cy="300.01" r="2.5" fill="#2563eb"/>
  <circle cx="517.66" cy="300.01" r="2.5" fill="#2563eb"/>
  <circle cx="519.13" cy="250.03" r="2.5" fill="#2563eb"/>
  <circle cx="520.60" cy="300.01" r="2.5" fill="#2563eb"/>
  <circle cx="522.06" cy="300.01" r="2.5" fill="#2563eb"/>
  <circle cx="523.53" cy="300.01" r="2.5" fill="#2563eb"/>
  <circle cx="525.00" cy="299.97" r="2.5" fill="#2563eb"/>
  <circle cx="526.47" cy="300.01" r="2.5" fill="#2563eb"/>
  <circle cx="527.94" cy="300.01" r="2.5" fill="#2563eb"/>
  <circle cx="529.40" cy="299.97" r="2.5" fill="#2563eb"/>
  <circle cx="530.87" cy="299.97" r="2.5" fill="#2563eb"/>
  <circle cx="532.34" cy="300.01" r="2.5" fill="#2563eb"/>
  <circle cx="533.81" cy="300.01" r="2.5" fill="#2563eb"/>
  <circle cx="535.27" cy="299.97" r="2.5" fill="#2563eb"/>
  <circle cx="536.74" cy="299.93" r="2.5" fill="#2563eb"/>
  <circle cx="538.21" cy="300.01" r="2.5" fill="#2563eb"/>
  <circle cx="539.68" cy="300.06" r="2.5" fill="#2563eb"/>
  <circle cx="541.15" cy="299.97" r="2.5" fill="#2563eb"/>
  <circle cx="542.61" cy="300.01" r="2.5" fill="#2563eb"/>
  <circle cx="544.08" cy="250.03" r="2.5" fill="#2563eb"/>
  <circle cx="545.55" cy="250.03" r="2.5" fill="#2563eb"/>
  <circle cx="547.02" cy="299.93" r="2.5" fill="#2563eb"/>
  <circle cx="548.48" cy="299.97" r="2.5" fill="#2563eb"/>
  <circle cx="549.95" cy="300.01" r="2.5" fill="#2563eb"/>
  <circle cx="551.42" cy="300.01" r="2.5" fill="#2563eb"/>
  <circle cx="552.89" cy="300.06" r="2.5" fill="#2563eb"/>
  <circle cx="554.35" cy="300.01" r="2.5" fill="#2563eb"/>
  <circle cx="555.82" cy="299.93" r="2.5" fill="#2563eb"/>
  <circle cx="557.29" cy="300.01" r="2.5" fill="#2563eb"/>
  <circle cx="558.76" cy="300.01" r="2.5" fill="#2563eb"/>
  <circle cx="560.23" cy="299.97" r="2.5" fill="#2563eb"/>
  <circle cx="561.69" cy="299.97" r="2.5" fill="#2563eb"/>
  <circle cx="563.16" cy="300.01" r="2.5" fill="#2563eb"/>
  <circle cx="564.63" cy="250.03" r="2.5" fill="#2563eb"/>
  <circle cx="566.10" cy="300.01" r="2.5" fill="#2563eb"/>
  <circle cx="567.56" cy="300.01" r="2.5" fill="#2563eb"/>
  <circle cx="569.03" cy="300.01" r="2.5" fill="#2563eb"/>
  <circle cx="570.50" cy="299.97" r="2.5" fill="#2563eb"/>
  <circle cx="571.97" cy="300.01" r="2.5" fill="#2563eb"/>
  <circle cx="573.44" cy="299.97" r="2.5" fill="#2563eb"/>
  <circle cx="574.90" cy="300.01" r="2.5" fill="#2563eb"/>
  <circle cx="576.37" cy="299.97" r="2.5" fill="#2563eb"/>
  <circle cx="577.84" cy="299.97" r="2.5" fill="#2563eb"/>
  <circle cx="579.31" cy="299.93" r="2.5" fill="#2563eb"/>
  <circle cx="580.77" cy="300.01" r="2.5" fill="#2563eb"/>
  <circle cx="582.24" cy="300.01" r="2.5" fill="#2563eb"/>
  <circle cx="583.71" cy="299.89" r="2.5" fill="#2563eb"/>
  <circle cx="585.18" cy="299.97" r="2.5" fill="#2563eb"/>
  <circle cx="586.65" cy="299.97" r="2.5" fill="#2563eb"/>
  <circle cx="588.11" cy="300.06" r="2.5" fill="#2563eb"/>
  <circle cx="589.58" cy="249.90" r="2.5" fill="#2563eb"/>
  <circle cx="591.05" cy="299.89" r="2.5" fill="#2563eb"/>
  <circle cx="592.52" cy="300.01" r="2.5" fill="#2563eb"/>
  <circle cx="593.98" cy="299.97" r="2.5" fill="#2563eb"/>
  <circle cx="595.45" cy="299.97" r="2.5" fill="#2563eb"/>
  <circle cx="596.92" cy="299.97" r="2.5" fill="#2563eb"/>
  <circle cx="598.39" cy="300.01" r="2.5" fill="#2563eb"/>
  <circle cx="599.85" cy="300.01" r="2.5" fill="#2563eb"/>
  <circle cx="601.32" cy="299.97" r="2.5" fill="#2563eb"/>
  <circle cx="602.79" cy="299.97" r="2.5" fill="#2563eb"/>
  <circle cx="604.26" cy="299.97" r="2.5" fill="#2563eb"/>
  <circle cx="605.73" cy="250.03" r="2.5" fill="#2563eb"/>
  <circle cx="607.19" cy="299.93" r="2.5" fill="#2563eb"/>
  <circle cx="608.66" cy="300.01" r="2.5" fill="#2563eb"/>
  <circle cx="610.13" cy="300.01" r="2.5" fill="#2563eb"/>
  <circle cx="611.60" cy="299.93" r="2.5" fill="#2563eb"/>
  <circle cx="613.06" cy="300.01" r="2.5" fill="#2563eb"/>
  <circle cx="614.53" cy="300.01" r="2.5" fill="#2563eb"/>
  <circle cx="616.00" cy="299.97" r="2.5" fill="#2563eb"/>
  <circle cx="617.47" cy="300.01" r="2.5" fill="#2563eb"/>
  <circle cx="618.94" cy="300.01" r="2.5" fill="#2563eb"/>
  <circle cx="620.40" cy="300.06" r="2.5" fill="#2563eb"/>
  <circle cx="621.87" cy="300.01" r="2.5" fill="#2563eb"/>
  <circle cx="623.34" cy="299.97" r="2.5" fill="#2563eb"/>
  <circle cx="624.81" cy="299.89" r="2.5" fill="#2563eb"/>
  <circle cx="626.27" cy="300.01" r="2.5" fill="#2563eb"/>
  <circle cx="627.74" cy="300.01" r="2.5" fill="#2563eb"/>
  <circle cx="629.21" cy="249.94" r="2.5" fill="#2563eb"/>
  <circle cx="630.68" cy="249.94" r="2.5" fill="#2563eb"/>
  <circle cx="632.15" cy="300.01" r="2.5" fill="#2563eb"/>
  <circle cx="633.61" cy="300.01" r="2.5" fill="#2563eb"/>
  <circle cx="635.08" cy="300.01" r="2.5" fill="#2563eb"/>
  <circle cx="636.55" cy="300.01" r="2.5" fill="#2563eb"/>
  <circle cx="638.02" cy="299.97" r="2.5" fill="#2563eb"/>
  <circle cx="639.48" cy="250.03" r="2.5" fill="#2563eb"/>
  <circle cx="640.95" cy="300.01" r="2.5" fill="#2563eb"/>
  <circle cx="642.42" cy="300.01" r="2.5" fill="#2563eb"/>
  <circle cx="643.89" cy="300.01" r="2.5" fill="#2563eb"/>
  <circle cx="645.35" cy="300.01" r="2.5" fill="#2563eb"/>
  <circle cx="646.82" cy="250.03" r="2.5" fill="#2563eb"/>
  <circle cx="648.29" cy="249.99" r="2.5" fill="#2563eb"/>
  <circle cx="649.76" cy="300.01" r="2.5" fill="#2563eb"/>
  <circle cx="651.23" cy="299.97" r="2.5" fill="#2563eb"/>
  <circle cx="652.69" cy="300.01" r="2.5" fill="#2563eb"/>
  <circle cx="654.16" cy="299.97" r="2.5" fill="#2563eb"/>
  <circle cx="655.63" cy="300.01" r="2.5" fill="#2563eb"/>
  <circle cx="657.10" cy="299.97" r="2.5" fill="#2563eb"/>
  <circle cx="658.56" cy="299.97" r="2.5" fill="#2563eb"/>
  <circle cx="660.03" cy="299.97" r="2.5" fill="#2563eb"/>
  <circle cx="661.50" cy="300.06" r="2.5" fill="#2563eb"/>
  <circle cx="662.97" cy="249.99" r="2.5" fill="#2563eb"/>
  <circle cx="664.44" cy="300.01" r="2.5" fill="#2563eb"/>
  <circle cx="665.90" cy="250.03" r="2.5" fill="#2563eb"/>
  <circle cx="667.37" cy="249.94" r="2.5" fill="#2563eb"/>
  <circle cx="668.84" cy="249.99" r="2.5" fill="#2563eb"/>
  <circle cx="670.31" cy="300.01" r="2.5" fill="#2563eb"/>
  <circle cx="671.77" cy="300.06" r="2.5" fill="#2563eb"/>
  <circle cx="673.24" cy="300.01" r="2.5" fill="#2563eb"/>
  <circle cx="674.71" cy="299.97" r="2.5" fill="#2563eb"/>
  <circle cx="676.18" cy="299.97" r="2.5" fill="#2563eb"/>
  <circle cx="677.65" cy="300.01" r="2.5" fill="#2563eb"/>
  <circle cx="679.11" cy="299.93" r="2.5" fill="#2563eb"/>
  <circle cx="680.58" cy="299.89" r="2.5" fill="#2563eb"/>
  <circle cx="682.05" cy="299.89" r="2.5" fill="#2563eb"/>
  <circle cx="683.52" cy="299.89" r="2.5" fill="#2563eb"/>
  <circle cx="684.98" cy="299.89" r="2.5" fill="#2563eb"/>
  <circle cx="686.45" cy="299.85" r="2.5" fill="#2563eb"/>
  <circle cx="687.92" cy="299.85" r="2.5" fill="#2563eb"/>
  <circle cx="689.39" cy="299.89" r="2.5" fill="#2563eb"/>
  <circle cx="690.85" cy="299.81" r="2.5" fill="#2563eb"/>
  <circle cx="692.32" cy="299.81" r="2.5" fill="#2563eb"/>
  <circle cx="693.79" cy="299.81" r="2.5" fill="#2563eb"/>
  <circle cx="695.26" cy="299.76" r="2.5" fill="#2563eb"/>
  <circle cx="696.73" cy="299.76" r="2.5" fill="#2563eb"/>
  <circle cx="698.19" cy="299.76" r="2.5" fill="#2563eb"/>
  <circle cx="699.66" cy="299.72" r="2.5" fill="#2563eb"/>
  <circle cx="701.13" cy="299.68" r="2.5" fill="#2563eb"/>
  <circle cx="702.60" cy="299.60" r="2.5" fill="#2563eb"/>
  <circle cx="704.06" cy="299.60" r="2.5" fill="#2563eb"/>
  <circle cx="705.53" cy="299.60" r="2.5" fill="#2563eb"/>
  <circle cx="707.00" cy="299.56" r="2.5" fill="#2563eb"/>
  <circle cx="708.47" cy="299.47" r="2.5" fill="#2563eb"/>
  <circle cx="709.94" cy="299.43" r="2.5" fill="#2563eb"/>
  <circle cx="711.40" cy="299.43" r="2.5" fill="#2563eb"/>
  <circle cx="712.87" cy="299.39" r="2.5" fill="#2563eb"/>
  <circle cx="714.34" cy="299.47" r="2.5" fill="#2563eb"/>
  <circle cx="715.81" cy="259.82" r="2.5" fill="#2563eb"/>
  <circle cx="717.27" cy="338.96" r="2.5" fill="#2563eb"/>
  <circle cx="718.74" cy="299.31" r="2.5" fill="#2563eb"/>
  <circle cx="720.21" cy="299.31" r="2.5" fill="#2563eb"/>
  <circle cx="721.68" cy="299.26" r="2.5" fill="#2563eb"/>
  <circle cx="723.15" cy="299.68" r="2.5" fill="#2563eb"/>
  <circle cx="724.61" cy="299.68" r="2.5" fill="#2563eb"/>
  <circle cx="726.08" cy="299.68" r="2.5" fill="#2563eb"/>
  <circle cx="727.55" cy="299.64" r="2.5" fill="#2563eb"/>
  <circle cx="729.02" cy="299.14" r="2.5" fill="#2563eb"/>
  <circle cx="730.48" cy="299.14" r="2.5" fill="#2563eb"/>
  <circle cx="731.95" cy="299.10" r="2.5" fill="#2563eb"/>
  <circle cx="733.42" cy="299.10" r="2.5" fill="#2563eb"/>
  <circle cx="734.89" cy="299.10" r="2.5" fill="#2563eb"/>
  <circle cx="736.35" cy="248.07" r="2.5" fill="#2563eb"/>
  <circle cx="737.82" cy="299.06" r="2.5" fill="#2563eb"/>
  <circle cx="739.29" cy="299.06" r="2.5" fill="#2563eb"/>
  <circle cx="740.76" cy="299.06" r="2.5" fill="#2563eb"/>
  <circle cx="742.23" cy="299.06" r="2.5" fill="#2563eb"/>
  <circle cx="743.69" cy="299.06" r="2.5" fill="#2563eb"/>
  <circle cx="745.16" cy="298.97" r="2.5" fill="#2563eb"/>
  <circle cx="746.63" cy="298.97" r="2.5" fill="#2563eb"/>
  <circle cx="748.10" cy="298.93" r="2.5" fill="#2563eb"/>
  <circle cx="749.56" cy="298.97" r="2.5" fill="#2563eb"/>
  <circle cx="751.03" cy="298.93" r="2.5" fill="#2563eb"/>
  <circle cx="752.50" cy="298.89" r="2.5" fill="#2563eb"/>
  <circle cx="753.97" cy="298.89" r="2.5" fill="#2563eb"/>
  <circle cx="755.44" cy="298.89" r="2.5" fill="#2563eb"/>
  <circle cx="756.90" cy="298.89" r="2.5" fill="#2563eb"/>
  <circle cx="758.37" cy="247.78" r="2.5" fill="#2563eb"/>
  <circle cx="759.84" cy="298.89" r="2.5" fill="#2563eb"/>
  <circle cx="761.31" cy="298.89" r="2.5" fill="#2563eb"/>
  <circle cx="762.77" cy="298.85" r="2.5" fill="#2563eb"/>
  <circle cx="764.24" cy="298.85" r="2.5" fill="#2563eb"/>
  <circle cx="765.71" cy="298.81" r="2.5" fill="#2563eb"/>
  <circle cx="767.18" cy="298.81" r="2.5" fill="#2563eb"/>
  <circle cx="768.65" cy="298.81" r="2.5" fill="#2563eb"/>
  <circle cx="770.11" cy="298.81" r="2.5" fill="#2563eb"/>
  <circle cx="771.58" cy="298.81" r="2.5" fill="#2563eb"/>
  <circle cx="773.05" cy="298.81" r="2.5" fill="#2563eb"/>
  <circle cx="774.52" cy="298.81" r="2.5" fill="#2563eb"/>
  <circle cx="775.98" cy="298.81" r="2.5" fill="#2563eb"/>
  <circle cx="777.45" cy="298.81" r="2.5" fill="#2563eb"/>
  <circle cx="778.92" cy="298.72" r="2.5" fill="#2563eb"/>
  <circle cx="780.39" cy="247.45" r="2.5" fill="#2563eb"/>
  <circle cx="781.85" cy="247.45" r="2.5" fill="#2563eb"/>
  <circle cx="783.32" cy="298.72" r="2.5" fill="#2563eb"/>
  <circle cx="784.79" cy="298.72" r="2.5" fill="#2563eb"/>
  <circle cx="786.26" cy="298.72" r="2.5" fill="#2563eb"/>
  <circle cx="787.73" cy="298.72" r="2.5" fill="#2563eb"/>
  <circle cx="789.19" cy="298.72" r="2.5" fill="#2563eb"/>
  <circle cx="790.66" cy="298.72" r="2.5" fill="#2563eb"/>
  <circle cx="792.13" cy="247.36" r="2.5" fill="#2563eb"/>
  <circle cx="793.60" cy="298.68" r="2.5" fill="#2563eb"/>
  <circle cx="795.06" cy="247.36" r="2.5" fill="#2563eb"/>
  <circle cx="796.53" cy="247.36" r="2.5" fill="#2563eb"/>
  <circle cx="798.00" cy="247.36" r="2.5" fill="#2563eb"/>
  <circle cx="799.47" cy="298.68" r="2.5" fill="#2563eb"/>
  <circle cx="800.94" cy="298.68" r="2.5" fill="#2563eb"/>
  <circle cx="802.40" cy="298.68" r="2.5" fill="#2563eb"/>
  <circle cx="803.87" cy="298.68" r="2.5" fill="#2563eb"/>
  <circle cx="805.34" cy="298.68" r="2.5" fill="#2563eb"/>
  <circle cx="806.81" cy="341.67" r="2.5" fill="#2563eb"/>
  <circle cx="808.27" cy="307.01" r="2.5" fill="#2563eb"/>
  <circle cx="809.74" cy="298.68" r="2.5" fill="#2563eb"/>
  <circle cx="811.21" cy="298.68" r="2.5" fill="#2563eb"/>
  <circle cx="812.68" cy="298.68" r="2.5" fill="#2563eb"/>
  <circle cx="814.15" cy="247.36" r="2.5" fill="#2563eb"/>
  <circle cx="815.61" cy="298.64" r="2.5" fill="#2563eb"/>
  <circle cx="817.08" cy="247.36" r="2.5" fill="#2563eb"/>
  <circle cx="818.55" cy="247.28" r="2.5" fill="#2563eb"/>
  <circle cx="820.02" cy="247.20" r="2.5" fill="#2563eb"/>
  <circle cx="821.48" cy="298.60" r="2.5" fill="#2563eb"/>
  <circle cx="822.95" cy="298.60" r="2.5" fill="#2563eb"/>
  <circle cx="824.42" cy="247.03" r="2.5" fill="#2563eb"/>
  <circle cx="825.89" cy="298.51" r="2.5" fill="#2563eb"/>
  <circle cx="827.35" cy="298.51" r="2.5" fill="#2563eb"/>
  <circle cx="828.82" cy="298.51" r="2.5" fill="#2563eb"/>
  <circle cx="830.29" cy="298.51" r="2.5" fill="#2563eb"/>
  <circle cx="831.76" cy="298.51" r="2.5" fill="#2563eb"/>
  <circle cx="833.23" cy="298.51" r="2.5" fill="#2563eb"/>
  <circle cx="834.69" cy="298.51" r="2.5" fill="#2563eb"/>
  <circle cx="836.16" cy="298.51" r="2.5" fill="#2563eb"/>
  <circle cx="837.63" cy="298.51" r="2.5" fill="#2563eb"/>
  <circle cx="839.10" cy="298.51" r="2.5" fill="#2563eb"/>
  <circle cx="840.56" cy="298.51" r="2.5" fill="#2563eb"/>
  <circle cx="842.03" cy="298.51" r="2.5" fill="#2563eb"/>
  <circle cx="843.50" cy="298.51" r="2.5" fill="#2563eb"/>
  <circle cx="844.97" cy="298.51" r="2.5" fill="#2563eb"/>
  <circle cx="846.44" cy="298.51" r="2.5" fill="#2563eb"/>
  <circle cx="847.90" cy="298.51" r="2.5" fill="#2563eb"/>
  <circle cx="849.37" cy="298.51" r="2.5" fill="#2563eb"/>
  <circle cx="850.84" cy="298.51" r="2.5" fill="#2563eb"/>
  <circle cx="852.31" cy="298.51" r="2.5" fill="#2563eb"/>
  <circle cx="853.77" cy="298.51" r="2.5" fill="#2563eb"/>
  <circle cx="855.24" cy="298.51" r="2.5" fill="#2563eb"/>
  <circle cx="856.71" cy="298.51" r="2.5" fill="#2563eb"/>
  <circle cx="858.18" cy="298.51" r="2.5" fill="#2563eb"/>
  <circle cx="859.65" cy="298.51" r="2.5" fill="#2563eb"/>
  <circle cx="861.11" cy="298.51" r="2.5" fill="#2563eb"/>
  <circle cx="862.58" cy="298.51" r="2.5" fill="#2563eb"/>
  <circle cx="864.05" cy="298.47" r="2.5" fill="#2563eb"/>
  <circle cx="865.52" cy="298.51" r="2.5" fill="#2563eb"/>
  <circle cx="866.98" cy="298.51" r="2.5" fill="#2563eb"/>
  <circle cx="868.45" cy="298.47" r="2.5" fill="#2563eb"/>
  <circle cx="869.92" cy="298.51" r="2.5" fill="#2563eb"/>
  <circle cx="871.39" cy="298.47" r="2.5" fill="#2563eb"/>
  <circle cx="872.85" cy="298.51" r="2.5" fill="#2563eb"/>
  <circle cx="874.32" cy="298.43" r="2.5" fill="#2563eb"/>
  <circle cx="875.79" cy="298.56" r="2.5" fill="#2563eb"/>
  <circle cx="877.26" cy="298.43" r="2.5" fill="#2563eb"/>
  <circle cx="878.73" cy="298.43" r="2.5" fill="#2563eb"/>
  <circle cx="880.19" cy="298.43" r="2.5" fill="#2563eb"/>
  <circle cx="881.66" cy="298.43" r="2.5" fill="#2563eb"/>
  <circle cx="883.13" cy="298.43" r="2.5" fill="#2563eb"/>
  <circle cx="884.60" cy="298.43" r="2.5" fill="#2563eb"/>
  <circle cx="886.06" cy="298.43" r="2.5" fill="#2563eb"/>
  <circle cx="887.53" cy="298.43" r="2.5" fill="#2563eb"/>
  <circle cx="889.00" cy="298.43" r="2.5" fill="#2563eb"/>
  <circle cx="890.47" cy="298.43" r="2.5" fill="#2563eb"/>
  <circle cx="891.94" cy="298.43" r="2.5" fill="#2563eb"/>
  <circle cx="893.40" cy="298.43" r="2.5" fill="#2563eb"/>
  <circle cx="894.87" cy="298.43" r="2.5" fill="#2563eb"/>
  <circle cx="896.34" cy="298.43" r="2.5" fill="#2563eb"/>
  <circle cx="897.81" cy="298.43" r="2.5" fill="#2563eb"/>
  <circle cx="899.27" cy="298.43" r="2.5" fill="#2563eb"/>
  <circle cx="900.74" cy="298.43" r="2.5" fill="#2563eb"/>
  <circle cx="902.21" cy="298.43" r="2.5" fill="#2563eb"/>
  <circle cx="903.68" cy="298.43" r="2.5" fill="#2563eb"/>
  <circle cx="905.15" cy="298.43" r="2.5" fill="#2563eb"/>
  <circle cx="906.61" cy="298.43" r="2.5" fill="#2563eb"/>
  <circle cx="908.08" cy="298.43" r="2.5" fill="#2563eb"/>
  <circle cx="909.55" cy="298.43" r="2.5" fill="#2563eb"/>
  <circle cx="911.02" cy="298.43" r="2.5" fill="#2563eb"/>
  <circle cx="912.48" cy="298.43" r="2.5" fill="#2563eb"/>
  <circle cx="913.95" cy="298.43" r="2.5" fill="#2563eb"/>
  <circle cx="915.42" cy="298.43" r="2.5" fill="#2563eb"/>
  <circle cx="916.89" cy="298.43" r="2.5" fill="#2563eb"/>
  <circle cx="918.35" cy="298.43" r="2.5" fill="#2563eb"/>
  <circle cx="919.82" cy="298.43" r="2.5" fill="#2563eb"/>
  <circle cx="921.29" cy="298.43" r="2.5" fill="#2563eb"/>
  <circle cx="922.76" cy="298.43" r="2.5" fill="#2563eb"/>
  <circle cx="924.23" cy="298.43" r="2.5" fill="#2563eb"/>
  <circle cx="925.69" cy="298.43" r="2.5" fill="#2563eb"/>
  <circle cx="927.16" cy="298.39" r="2.5" fill="#2563eb"/>
  <circle cx="928.63" cy="298.39" r="2.5" fill="#2563eb"/>
  <circle cx="930.10" cy="298.43" r="2.5" fill="#2563eb"/>
  <circle cx="931.56" cy="298.43" r="2.5" fill="#2563eb"/>
  <circle cx="933.03" cy="298.39" r="2.5" fill="#2563eb"/>
  <circle cx="934.50" cy="298.39" r="2.5" fill="#2563eb"/>
  <circle cx="935.97" cy="298.39" r="2.5" fill="#2563eb"/>
  <circle cx="937.44" cy="298.43" r="2.5" fill="#2563eb"/>
  <circle cx="938.90" cy="298.43" r="2.5" fill="#2563eb"/>
  <circle cx="940.37" cy="298.43" r="2.5" fill="#2563eb"/>
  <circle cx="941.84" cy="246.82" r="2.5" fill="#2563eb"/>
  <circle cx="943.31" cy="298.43" r="2.5" fill="#2563eb"/>
  <circle cx="944.77" cy="246.78" r="2.5" fill="#2563eb"/>
  <circle cx="946.24" cy="246.78" r="2.5" fill="#2563eb"/>
  <circle cx="947.71" cy="246.78" r="2.5" fill="#2563eb"/>
  <circle cx="949.18" cy="246.70" r="2.5" fill="#2563eb"/>
  <circle cx="950.65" cy="246.78" r="2.5" fill="#2563eb"/>
  <circle cx="952.11" cy="298.39" r="2.5" fill="#2563eb"/>
  <circle cx="953.58" cy="298.39" r="2.5" fill="#2563eb"/>
  <circle cx="955.05" cy="298.39" r="2.5" fill="#2563eb"/>
  <circle cx="956.52" cy="298.39" r="2.5" fill="#2563eb"/>
  <circle cx="957.98" cy="298.39" r="2.5" fill="#2563eb"/>
  <circle cx="959.45" cy="246.78" r="2.5" fill="#2563eb"/>
  <circle cx="960.92" cy="298.39" r="2.5" fill="#2563eb"/>
  <circle cx="962.39" cy="298.39" r="2.5" fill="#2563eb"/>
  <circle cx="963.85" cy="298.39" r="2.5" fill="#2563eb"/>
  <circle cx="965.32" cy="298.39" r="2.5" fill="#2563eb"/>
  <circle cx="966.79" cy="298.39" r="2.5" fill="#2563eb"/>
  <circle cx="968.26" cy="246.78" r="2.5" fill="#2563eb"/>
  <circle cx="969.73" cy="246.78" r="2.5" fill="#2563eb"/>
  <circle cx="971.19" cy="298.39" r="2.5" fill="#2563eb"/>
  <circle cx="972.66" cy="298.39" r="2.5" fill="#2563eb"/>
  <circle cx="974.13" cy="298.39" r="2.5" fill="#2563eb"/>
  <circle cx="975.60" cy="298.39" r="2.5" fill="#2563eb"/>
  <circle cx="977.06" cy="298.39" r="2.5" fill="#2563eb"/>
  <circle cx="978.53" cy="298.39" r="2.5" fill="#2563eb"/>
  <circle cx="980.00" cy="298.39" r="2.5" fill="#2563eb"/>
</svg>
