<?xml version="1.0" encoding="UTF-8"?>
<svg xmlns="http://www.w3.org/2000/svg" width="1000" height="420" viewBox="0 0 1000 420">
  <rect width="100%" height="100%" fill="#ffffff"/>
  <text x="70" y="28" font-size="20" font-weight="600">수집 시점 기준 - 시간별 스냅샷</text>
  <text x="70" y="402" font-size="12" fill="#555">스냅샷 수</text>
  <line x1="70" y1="350.00" x2="980" y2="350.00" stroke="#e5e7eb" stroke-width="1"/>
  <text x="62" y="354.00" font-size="11" fill="#6b7280" text-anchor="end">0</text>
  <line x1="70" y1="290.00" x2="980" y2="290.00" stroke="#e5e7eb" stroke-width="1"/>
  <text x="62" y="294.00" font-size="11" fill="#6b7280" text-anchor="end">1,440</text>
  <line x1="70" y1="230.00" x2="980" y2="230.00" stroke="#e5e7eb" stroke-width="1"/>
  <text x="62" y="234.00" font-size="11" fill="#6b7280" text-anchor="end">2,880</text>
  <line x1="70" y1="170.00" x2="980" y2="170.00" stroke="#e5e7eb" stroke-width="1"/>
  <text x="62" y="174.00" font-size="11" fill="#6b7280" text-anchor="end">4,321</text>
  <line x1="70" y1="110.00" x2="980" y2="110.00" stroke="#e5e7eb" stroke-width="1"/>
  <text x="62" y="114.00" font-size="11" fill="#6b7280" text-anchor="end">5,761</text>
  <line x1="70" y1="50.00" x2="980" y2="50.00" stroke="#e5e7eb" stroke-width="1"/>
  <text x="62" y="54.00" font-size="11" fill="#6b7280" text-anchor="end">7,202</text>
  <line x1="70" y1="350" x2="980" y2="350" stroke="#111827" stroke-width="1.2"/>
  <line x1="70" y1="50" x2="70" y2="350" stroke="#111827" stroke-width="1.2"/>
  <line x1="70.00" y1="350" x2="70.00" y2="356" stroke="#9ca3af" stroke-width="1"/>
  <text x="70.00" y="372" font-size="10" fill="#6b7280" text-anchor="middle">2026-02-28 18</text>
  <line x1="145.52" y1="350" x2="145.52" y2="356" stroke="#9ca3af" stroke-width="1"/>
  <text x="145.52" y="372" font-size="10" fill="#6b7280" text-anchor="middle">2026-03-09 18</text>
  <line x1="221.05" y1="350" x2="221.05" y2="356" stroke="#9ca3af" stroke-width="1"/>
  <text x="221.05" y="372" font-size="10" fill="#6b7280" text-anchor="middle">2026-03-12 13</text>
  <line x1="296.57" y1="350" x2="296.57" y2="356" stroke="#9ca3af" stroke-width="1"/>
  <text x="296.57" y="372" font-size="10" fill="#6b7280" text-anchor="middle">2026-03-15 16</text>
  <line x1="372.10" y1="350" x2="372.10" y2="356" stroke="#9ca3af" stroke-width="1"/>
  <text x="372.10" y="372" font-size="10" fill="#6b7280" text-anchor="middle">2026-03-19 17</text>
  <line x1="447.62" y1="350" x2="447.62" y2="356" stroke="#9ca3af" stroke-width="1"/>
  <text x="447.62" y="372" font-size="10" fill="#6b7280" text-anchor="middle">2026-03-23 02</text>
  <line x1="523.14" y1="350" x2="523.14" y2="356" stroke="#9ca3af" stroke-width="1"/>
  <text x="523.14" y="372" font-size="10" fill="#6b7280" text-anchor="middle">2026-03-27 07</text>
  <line x1="598.67" y1="350" x2="598.67" y2="356" stroke="#9ca3af" stroke-width="1"/>
  <text x="598.67" y="372" font-size="10" fill="#6b7280" text-anchor="middle">2026-03-31 09</text>
  <line x1="674.19" y1="350" x2="674.19" y2="356" stroke="#9ca3af" stroke-width="1"/>
  <text x="674.19" y="372" font-size="10" fill="#6b7280" text-anchor="middle">2026-04-04 15</text>
  <line x1="749.71" y1="350" x2="749.71" y2="356" stroke="#9ca3af" stroke-width="1"/>
  <text x="749.71" y="372" font-size="10" fill="#6b7280" text-anchor="middle">2026-04-08 20</text>
  <line x1="825.24" y1="350" x2="825.24" y2="356" stroke="#9ca3af" stroke-width="1"/>
  <text x="825.24" y="372" font-size="10" fill="#6b7280" text-anchor="middle">2026-04-13 02</text>
  <line x1="900.76" y1="350" x2="900.76" y2="356" stroke="#9ca3af" stroke-width="1"/>
  <text x="900.76" y="372" font-size="10" fill="#6b7280" text-anchor="middle">2026-04-17 20</text>
  <line x1="976.29" y1="350" x2="976.29" y2="356" stroke="#9ca3af" stroke-width="1"/>
  <text x="976.29" y="372" font-size="10" fill="#6b7280" text-anchor="middle">2026-04-21 23</text>
  <line x1="980.00" y1="350" x2="980.00" y2="356" stroke="#9ca3af" stroke-width="1"/>
  <text x="980.00" y="372" font-size="10" fill="#6b7280" text-anchor="middle">2026-04-22 04</text>
  <polyline fill="none" stroke="#2563eb" stroke-width="2.5" points="70.00,50.00 71.24,50.12 72.48,50.17 73.71,50.46 74.95,50.00 76.19,266.90 77.43,50.12 78.67,50.08 79.90,177.46 81.14,211.58 82.38,175.34 83.62,304.14 84.86,200.46 86.10,250.94 87.33,300.01 88.57,300.06 89.81,300.01 91.05,300.01 92.29,348.00 93.52,300.01 94.76,249.99 96.00,200.00 97.24,249.99 98.48,249.99 99.71,250.03 100.95,250.03 102.19,250.03 103.43,250.40 104.67,250.90 105.90,250.90 107.14,251.32 108.38,249.94 109.62,300.01 110.86,299.93 112.10,251.03 113.33,300.68 114.57,250.03 115.81,200.00 117.05,249.99 118.29,250.03 119.52,250.03 120.76,250.03 122.00,300.01 123.24,200.04 124.48,250.03 125.71,250.03 126.95,250.03 128.19,249.90 129.43,250.03 130.67,250.03 131.90,250.94 133.14,250.44 134.38,250.03 135.62,250.03 136.86,300.47 138.10,300.01 139.33,300.43 140.57,250.03 141.81,249.99 143.05,300.43 144.29,249.90 145.52,249.99 146.76,249.99 148.00,200.04 149.24,300.01 150.48,300.01 151.71,300.01 152.95,249.90 154.19,300.01 155.43,250.03 156.67,249.99 157.90,199.96 159.14,300.01 160.38,200.00 161.62,250.36 162.86,250.03 164.10,300.01 165.33,300.01 166.57,250.44 167.81,300.01 169.05,250.03 170.29,250.03 171.52,249.99 172.76,250.49 174.00,250.03 175.24,200.04 176.48,300.01 177.71,250.03 178.95,300.01 180.19,250.11 181.43,300.01 182.67,250.03 183.90,250.03 185.14,199.92 186.38,250.03 187.62,250.03 188.86,250.03 190.10,254.36 191.33,300.01 192.57,299.97 193.81,250.36 195.05,299.97 196.29,250.03 197.52,250.03 198.76,250.03 200.00,250.03 201.24,249.99 202.48,200.00 203.71,299.93 204.95,300.01 206.19,299.97 207.43,249.94 208.67,249.99 209.90,249.82 211.14,249.94 212.38,250.28 213.62,207.00 214.86,250.03 216.10,250.32 217.33,250.40 218.57,300.93 219.81,300.01 221.05,300.10 222.29,249.94 223.52,249.99 224.76,250.07 226.00,249.99 227.24,250.03 228.48,249.94 229.71,200.00 230.95,300.39 232.19,300.01 233.43,300.01 234.67,250.44 235.90,300.39 237.14,249.86 238.38,250.11 239.62,201.46 240.86,300.01 242.10,200.83 243.33,250.03 244.57,249.99 245.81,300.26 247.05,300.01 248.29,300.01 249.52,250.03 250.76,250.03 252.00,250.03 253.24,250.03 254.48,249.99 255.71,250.03 256.95,200.00 258.19,300.26 259.43,249.99 260.67,300.01 261.90,249.94 263.14,250.03 264.38,250.03 265.62,250.03 266.86,200.04 268.10,300.01 269.33,249.90 270.57,300.01 271.81,300.01 273.05,300.06 274.29,300.01 275.52,300.01 276.76,243.95 278.00,249.94 279.24,299.97 280.48,300.01 281.71,300.01 282.95,250.03 284.19,300.01 285.43,300.01 286.67,299.97 287.90,249.99 289.14,300.01 290.38,299.93 291.62,300.01 292.86,299.93 294.10,300.01 295.33,300.01 296.57,299.89 297.81,299.97 299.05,250.03 300.29,299.93 301.52,299.89 302.76,299.97 304.00,249.94 305.24,300.01 306.48,300.01 307.71,299.97 308.95,249.99 310.19,299.97 311.43,299.97 312.67,300.06 313.90,300.06 315.14,299.93 316.38,300.01 317.62,300.01 318.86,299.93 320.10,300.01 321.33,300.01 322.57,299.97 323.81,300.01 325.05,300.01 326.29,300.01 327.52,300.01 328.76,249.86 330.00,300.01 331.24,300.10 332.48,299.93 333.71,300.01 334.95,299.93 336.19,300.01 337.43,300.01 338.67,300.01 339.90,300.01 341.14,300.01 342.38,299.97 343.62,300.01 344.86,300.01 346.10,300.01 347.33,300.01 348.57,250.03 349.81,300.01 351.05,300.01 352.29,299.97 353.52,300.01 354.76,300.01 356.00,299.97 357.24,299.97 358.48,300.01 359.71,299.97 360.95,300.01 362.19,299.93 363.43,300.01 364.67,250.03 365.90,300.01 367.14,300.01 368.38,300.01 369.62,300.01 370.86,300.01 372.10,299.89 373.33,300.01 374.57,300.01 375.81,250.07 377.05,300.01 378.29,299.93 379.52,300.01 380.76,299.97 382.00,299.97 383.24,299.97 384.48,250.03 385.71,300.01 386.95,300.01 388.19,300.01 389.43,300.01 390.67,299.97 391.90,300.01 393.14,299.97 394.38,300.01 395.62,299.97 396.86,249.90 398.10,300.01 399.33,300.01 400.57,299.89 401.81,299.97 403.05,299.97 404.29,249.99 405.52,299.97 406.76,299.89 408.00,300.01 409.24,299.97 410.48,299.97 411.71,300.01 412.95,299.97 414.19,249.99 415.43,299.97 416.67,299.97 417.90,300.06 419.14,300.06 420.38,249.94 421.62,300.01 422.86,299.93 424.10,300.01 425.33,300.01 426.57,249.99 427.81,300.01 429.05,300.01 430.29,300.01 431.52,299.93 432.76,299.93 434.00,300.01 435.24,300.01 436.48,249.94 437.71,299.97 438.95,299.97 440.19,300.01 441.43,300.01 442.67,300.01 443.90,249.99 445.14,300.01 446.38,300.01 447.62,300.01 448.86,250.03 450.10,300.01 451.33,300.01 452.57,300.01 453.81,299.97 455.05,300.01 456.29,300.01 457.52,299.97 458.76,299.97 460.00,300.01 461.24,300.01 462.48,299.97 463.71,299.93 464.95,300.01 466.19,300.06 467.43,299.97 468.67,300.01 469.90,250.03 471.14,250.03 472.38,299.93 473.62,299.97 474.86,300.01 476.10,300.01 477.33,300.06 478.57,300.01 479.81,299.93 481.05,300.01 482.29,300.01 483.52,299.97 484.76,299.97 486.00,300.01 487.24,250.03 488.48,300.01 489.71,300.01 490.95,300.01 492.19,299.97 493.43,300.01 494.67,299.97 495.90,300.01 497.14,299.97 498.38,299.97 499.62,299.93 500.86,300.01 502.10,300.01 503.33,299.89 504.57,299.97 505.81,299.97 507.05,300.06 508.29,249.90 509.52,299.89 510.76,300.01 512.00,299.97 513.24,299.97 514.48,299.97 515.71,300.01 516.95,300.01 518.19,299.97 519.43,299.97 520.67,299.97 521.90,250.03 523.14,299.93 524.38,300.01 525.62,300.01 526.86,299.93 528.10,300.01 529.33,300.01 530.57,299.97 531.81,300.01 533.05,300.01 534.29,300.06 535.52,300.01 536.76,299.97 538.00,299.89 539.24,300.01 540.48,300.01 541.71,249.94 542.95,249.94 544.19,300.01 545.43,300.01 546.67,300.01 547.90,300.01 549.14,299.97 550.38,250.03 551.62,300.01 552.86,300.01 554.10,300.01 555.33,300.01 556.57,250.03 557.81,249.99 559.05,300.01 560.29,299.97 561.52,300.01 562.76,299.97 564.00,300.01 565.24,299.97 566.48,299.97 567.71,299.97 568.95,300.06 570.19,249.99 571.43,300.01 572.67,250.03 573.90,249.94 575.14,249.99 576.38,300.01 577.62,300.06 578.86,300.01 580.10,299.97 581.33,299.97 582.57,300.01 583.81,299.93 585.05,299.89 586.29,299.89 587.52,299.89 588.76,299.89 590.00,299.85 591.24,299.85 592.48,299.89 593.71,299.81 594.95,299.81 596.19,299.81 597.43,299.76 598.67,299.76 599.90,299.76 601.14,299.72 602.38,299.68 603.62,299.60 604.86,299.60 606.10,299.60 607.33,299.56 608.57,299.47 609.81,299.43 611.05,299.43 612.29,299.39 613.52,299.47 614.76,259.82 616.00,338.96 617.24,299.31 618.48,299.31 619.71,299.26 620.95,299.68 622.19,299.68 623.43,299.68 624.67,299.64 625.90,299.14 627.14,299.14 628.38,299.10 629.62,299.10 630.86,299.10 632.10,248.07 633.33,299.06 634.57,299.06 635.81,299.06 637.05,299.06 638.29,299.06 639.52,298.97 640.76,298.97 642.00,298.93 643.24,298.97 644.48,298.93 645.71,298.89 646.95,298.89 648.19,298.89 649.43,298.89 650.67,247.78 651.90,298.89 653.14,298.89 654.38,298.85 655.62,298.85 656.86,298.81 658.10,298.81 659.33,298.81 660.57,298.81 661.81,298.81 663.05,298.81 664.29,298.81 665.52,298.81 666.76,298.81 668.00,298.72 669.24,247.45 670.48,247.45 671.71,298.72 672.95,298.72 674.19,298.72 675.43,298.72 676.67,298.72 677.90,298.72 679.14,247.36 680.38,298.68 681.62,247.36 682.86,247.36 684.10,247.36 685.33,298.68 686.57,298.68 687.81,298.68 689.05,298.68 690.29,298.68 691.52,341.67 692.76,307.01 694.00,298.68 695.24,298.68 696.48,298.68 697.71,247.36 698.95,298.64 700.19,247.36 701.43,247.28 702.67,247.20 703.90,298.60 705.14,298.60 706.38,247.03 707.62,298.51 708.86,298.51 710.10,298.51 711.33,298.51 712.57,298.51 713.81,298.51 715.05,298.51 716.29,298.51 717.52,298.51 718.76,298.51 720.00,298.51 721.24,298.51 722.48,298.51 723.71,298.51 724.95,298.51 726.19,298.51 727.43,298.51 728.67,298.51 729.90,298.51 731.14,298.51 732.38,298.51 733.62,298.51 734.86,298.51 736.10,298.51 737.33,298.51 738.57,298.51 739.81,298.47 741.05,298.51 742.29,298.51 743.52,298.47 744.76,298.51 746.00,298.47 747.24,298.51 748.48,298.43 749.71,298.56 750.95,298.43 752.19,298.43 753.43,298.43 754.67,298.43 755.90,298.43 757.14,298.43 758.38,298.43 759.62,298.43 760.86,298.43 762.10,298.43 763.33,298.43 764.57,298.43 765.81,298.43 767.05,298.43 768.29,298.43 769.52,298.43 770.76,298.43 772.00,298.43 773.24,298.43 774.48,298.43 775.71,298.43 776.95,298.43 778.19,298.43 779.43,298.43 780.67,298.43 781.90,298.43 783.14,298.43 784.38,298.43 785.62,298.43 786.86,298.43 788.10,298.43 789.33,298.43 790.57,298.43 791.81,298.43 793.05,298.39 794.29,298.39 795.52,298.43 796.76,298.43 798.00,298.39 799.24,298.39 800.48,298.39 801.71,298.43 802.95,298.43 804.19,298.43 805.43,246.82 806.67,298.43 807.90,246.78 809.14,246.78 810.38,246.78 811.62,246.70 812.86,246.78 814.10,298.39 815.33,298.39 816.57,298.39 817.81,298.39 819.05,298.39 820.29,246.78 821.52,298.39 822.76,298.39 824.00,298.39 825.24,298.39 826.48,298.39 827.71,246.78 828.95,246.78 830.19,298.39 831.43,298.39 832.67,298.39 833.90,298.39 835.14,298.39 836.38,298.39 837.62,298.39 838.86,298.39 840.10,298.39 841.33,298.39 842.57,298.39 843.81,298.39 845.05,298.39 846.29,298.39 847.52,298.35 848.76,298.39 850.00,298.39 851.24,298.35 852.48,298.35 853.71,298.35 854.95,298.35 856.19,298.35 857.43,298.35 858.67,298.35 859.90,298.35 861.14,298.35 862.38,298.35 863.62,298.35 864.86,298.35 866.10,298.35 867.33,298.35 868.57,298.35 869.81,298.35 871.05,298.35 872.29,298.35 873.52,298.35 874.76,298.35 876.00,298.35 877.24,298.35 878.48,298.35 879.71,298.35 880.95,298.35 882.19,298.35 883.43,298.35 884.67,298.35 885.90,298.35 887.14,298.35 888.38,298.35 889.62,298.35 890.86,298.35 892.10,298.35 893.33,298.35 894.57,298.35 895.81,298.35 897.05,298.35 898.29,298.35 899.52,298.35 900.76,298.35 902.00,298.35 903.24,298.35 904.48,298.35 905.71,298.35 906.95,298.35 908.19,298.35 909.43,298.35 910.67,298.35 911.90,298.35 913.14,298.35 914.38,298.35 915.62,298.39 916.86,298.39 918.10,298.39 919.33,246.78 920.57,298.39 921.81,298.39 923.05,298.39 924.29,298.39 925.52,298.39 926.76,298.39 928.00,298.39 929.24,246.78 930.48,298.39 931.71,298.39 932.95,298.39 934.19,298.39 935.43,298.39 936.67,298.39 937.90,298.39 939.14,246.78 940.38,298.39 941.62,298.39 942.86,298.39 944.10,298.39 945.33,298.39 946.57,298.39 947.81,298.39 949.05,298.39 950.29,298.39 951.52,298.39 952.76,298.39 954.00,298.35 955.24,298.39 956.48,298.39 957.71,298.39 958.95,298.35 960.19,298.35 961.43,298.35 962.67,298.35 963.90,298.35 965.14,298.35 966.38,298.35 967.62,298.35 968.86,298.35 970.10,298.35 971.33,298.35 972.57,298.35 973.81,298.35 975.05,298.35 976.29,298.35 977.52,298.35 978.76,298.39 980.00,298.39"/>
  <circle cx="70.00" cy="50.00" r="2.5" fill="#2563eb"/>
  <circle cx="71.24" cy="50.12" r="2.5" fill="#2563eb"/>
  <circle cx="72.48" cy="50.17" r="2.5" fill="#2563eb"/>
  <circle cx="73.71" cy="50.46" r="2.5" fill="#2563eb"/>
  <circle cx="74.95" cy="50.00" r="2.5" fill="#2563eb"/>
  <circle cx="76.19" cy="266.90" r="2.5" fill="#2563eb"/>
  <circle cx="77.43" cy="50.12" r="2.5" fill="#2563eb"/>
  <circle cx="78.67" cy="50.08" r="2.5" fill="#2563eb"/>
  <circle cx="79.90" cy="177.46" r="2.5" fill="#2563eb"/>
  <circle cx="81.14" cy="211.58" r="2.5" fill="#2563eb"/>
  <circle cx="82.38" cy="175.34" r="2.5" fill="#2563eb"/>
  <circle cx="83.62" cy="304.14" r="2.5" fill="#2563eb"/>
  <circle cx="84.86" cy="200.46" r="2.5" fill="#2563eb"/>
  <circle cx="86.10" cy="250.94" r="2.5" fill="#2563eb"/>
  <circle cx="87.33" cy="300.01" r="2.5" fill="#2563eb"/>
  <circle cx="88.57" cy="300.06" r="2.5" fill="#2563eb"/>
  <circle cx="89.81" cy="300.01" r="2.5" fill="#2563eb"/>
  <circle cx="91.05" cy="300.01" r="2.5" fill="#2563eb"/>
  <circle cx="92.29" cy="348.00" r="2.5" fill="#2563eb"/>
  <circle cx="93.52" cy="300.01" r="2.5" fill="#2563eb"/>
  <circle cx="94.76" cy="249.99" r="2.5" fill="#2563eb"/>
  <circle cx="96.00" cy="200.00" r="2.5" fill="#2563eb"/>
  <circle cx="97.24" cy="249.99" r="2.5" fill="#2563eb"/>
  <circle cx="98.48" cy="249.99" r="2.5" fill="#2563eb"/>
  <circle cx="99.71" cy="250.03" r="2.5" fill="#2563eb"/>
  <circle cx="100.95" cy="250.03" r="2.5" fill="#2563eb"/>
  <circle cx="102.19" cy="250.03" r="2.5" fill="#2563eb"/>
  <circle cx="103.43" cy="250.40" r="2.5" fill="#2563eb"/>
  <circle cx="104.67" cy="250.90" r="2.5" fill="#2563eb"/>
  <circle cx="105.90" cy="250.90" r="2.5" fill="#2563eb"/>
  <circle cx="107.14" cy="251.32" r="2.5" fill="#2563eb"/>
  <circle cx="108.38" cy="249.94" r="2.5" fill="#2563eb"/>
  <circle cx="109.62" cy="300.01" r="2.5" fill="#2563eb"/>
  <circle cx="110.86" cy="299.93" r="2.5" fill="#2563eb"/>
  <circle cx="112.10" cy="251.03" r="2.5" fill="#2563eb"/>
  <circle cx="113.33" cy="300.68" r="2.5" fill="#2563eb"/>
  <circle cx="114.57" cy="250.03" r="2.5" fill="#2563eb"/>
  <circle cx="115.81" cy="200.00" r="2.5" fill="#2563eb"/>
  <circle cx="117.05" cy="249.99" r="2.5" fill="#2563eb"/>
  <circle cx="118.29" cy="250.03" r="2.5" fill="#2563eb"/>
  <circle cx="119.52" cy="250.03" r="2.5" fill="#2563eb"/>
  <circle cx="120.76" cy="250.03" r="2.5" fill="#2563eb"/>
  <circle cx="122.00" cy="300.01" r="2.5" fill="#2563eb"/>
  <circle cx="123.24" cy="200.04" r="2.5" fill="#2563eb"/>
  <circle cx="124.48" cy="250.03" r="2.5" fill="#2563eb"/>
  <circle cx="125.71" cy="250.03" r="2.5" fill="#2563eb"/>
  <circle cx="126.95" cy="250.03" r="2.5" fill="#2563eb"/>
  <circle cx="128.19" cy="249.90" r="2.5" fill="#2563eb"/>
  <circle cx="129.43" cy="250.03" r="2.5" fill="#2563eb"/>
  <circle cx="130.67" cy="250.03" r="2.5" fill="#2563eb"/>
  <circle cx="131.90" cy="250.94" r="2.5" fill="#2563eb"/>
  <circle cx="133.14" cy="250.44" r="2.5" fill="#2563eb"/>
  <circle cx="134.38" cy="250.03" r="2.5" fill="#2563eb"/>
  <circle cx="135.62" cy="250.03" r="2.5" fill="#2563eb"/>
  <circle cx="136.86" cy="300.47" r="2.5" fill="#2563eb"/>
  <circle cx="138.10" cy="300.01" r="2.5" fill="#2563eb"/>
  <circle cx="139.33" cy="300.43" r="2.5" fill="#2563eb"/>
  <circle cx="140.57" cy="250.03" r="2.5" fill="#2563eb"/>
  <circle cx="141.81" cy="249.99" r="2.5" fill="#2563eb"/>
  <circle cx="143.05" cy="300.43" r="2.5" fill="#2563eb"/>
  <circle cx="144.29" cy="249.90" r="2.5" fill="#2563eb"/>
  <circle cx="145.52" cy="249.99" r="2.5" fill="#2563eb"/>
  <circle cx="146.76" cy="249.99" r="2.5" fill="#2563eb"/>
  <circle cx="148.00" cy="200.04" r="2.5" fill="#2563eb"/>
  <circle cx="149.24" cy="300.01" r="2.5" fill="#2563eb"/>
  <circle cx="150.48" cy="300.01" r="2.5" fill="#2563eb"/>
  <circle cx="151.71" cy="300.01" r="2.5" fill="#2563eb"/>
  <circle cx="152.95" cy="249.90" r="2.5" fill="#2563eb"/>
  <circle cx="154.19" cy="300.01" r="2.5" fill="#2563eb"/>
  <circle cx="155.43" cy="250.03" r="2.5" fill="#2563eb"/>
  <circle cx="156.67" cy="249.99" r="2.5" fill="#2563eb"/>
  <circle cx="157.90" cy="199.96" r="2.5" fill="#2563eb"/>
  <circle cx="159.14" cy="300.01" r="2.5" fill="#2563eb"/>
  <circle cx="160.38" cy="200.00" r="2.5" fill="#2563eb"/>
  <circle cx="161.62" cy="250.36" r="2.5" fill="#2563eb"/>
  <circle cx="162.86" cy="250.03" r="2.5" fill="#2563eb"/>
  <circle cx="164.10" cy="300.01" r="2.5" fill="#2563eb"/>
  <circle cx="165.33" cy="300.01" r="2.5" fill="#2563eb"/>
  <circle cx="166.57" cy="250.44" r="2.5" fill="#2563eb"/>
  <circle cx="167.81" cy="300.01" r="2.5" fill="#2563eb"/>
  <circle cx="169.05" cy="250.03" r="2.5" fill="#2563eb"/>
  <circle cx="170.29" cy="250.03" r="2.5" fill="#2563eb"/>
  <circle cx="171.52" cy="249.99" r="2.5" fill="#2563eb"/>
  <circle cx="172.76" cy="250.49" r="2.5" fill="#2563eb"/>
  <circle cx="174.00" cy="250.03" r="2.5" fill="#2563eb"/>
  <circle cx="175.24" cy="200.04" r="2.5" fill="#2563eb"/>
  <circle cx="176.48" cy="300.01" r="2.5" fill="#2563eb"/>
  <circle cx="177.71" cy="250.03" r="2.5" fill="#2563eb"/>
  <circle cx="178.95" cy="300.01" r="2.5" fill="#2563eb"/>
  <circle cx="180.19" cy="250.11" r="2.5" fill="#2563eb"/>
  <circle cx="181.43" cy="300.01" r="2.5" fill="#2563eb"/>
  <circle cx="182.67" cy="250.03" r="2.5" fill="#2563eb"/>
  <circle cx="183.90" cy="250.03" r="2.5" fill="#2563eb"/>
  <circle cx="185.14" cy="199.92" r="2.5" fill="#2563eb"/>
  <circle cx="186.38" cy="250.03" r="2.5" fill="#2563eb"/>
  <circle cx="187.62" cy="250.03" r="2.5" fill="#2563eb"/>
  <circle cx="188.86" cy="250.03" r="2.5" fill="#2563eb"/>
  <circle cx="190.10" cy="254.36" r="2.5" fill="#2563eb"/>
  <circle cx="191.33" cy="300.01" r="2.5" fill="#2563eb"/>
  <circle cx="192.57" cy="299.97" r="2.5" fill="#2563eb"/>
  <circle cx="193.81" cy="250.36" r="2.5" fill="#2563eb"/>
  <circle cx="195.05" cy="299.97" r="2.5" fill="#2563eb"/>
  <circle cx="196.29" cy="250.03" r="2.5" fill="#2563eb"/>
  <circle cx="197.52" cy="250.03" r="2.5" fill="#2563eb"/>
  <circle cx="198.76" cy="250.03" r="2.5" fill="#2563eb"/>
  <circle cx="200.00" cy="250.03" r="2.5" fill="#2563eb"/>
  <circle cx="201.24" cy="249.99" r="2.5" fill="#2563eb"/>
  <circle cx="202.48" cy="200.00" r="2.5" fill="#2563eb"/>
  <circle cx="203.71" cy="299.93" r="2.5" fill="#2563eb"/>
  <circle cx="204.95" cy="300.01" r="2.5" fill="#2563eb"/>
  <circle cx="206.19" cy="299.97" r="2.5" fill="#2563eb"/>
  <circle cx="207.43" cy="249.94" r="2.5" fill="#2563eb"/>
  <circle cx="208.67" cy="249.99" r="2.5" fill="#2563eb"/>
  <circle cx="209.90" cy="249.82" r="2.5" fill="#2563eb"/>
  <circle cx="211.14" cy="249.94" r="2.5" fill="#2563eb"/>
  <circle cx="212.38" cy="250.28" r="2.5" fill="#2563eb"/>
  <circle cx="213.62" cy="207.00" r="2.5" fill="#2563eb"/>
  <circle cx="214.86" cy="250.03" r="2.5" fill="#2563eb"/>
  <circle cx="216.10" cy="250.32" r="2.5" fill="#2563eb"/>
  <circle cx="217.33" cy="250.40" r="2.5" fill="#2563eb"/>
  <circle cx="218.57" cy="300.93" r="2.5" fill="#2563eb"/>
  <circle cx="219.81" cy="300.01" r="2.5" fill="#2563eb"/>
  <circle cx="221.05" cy="300.10" r="2.5" fill="#2563eb"/>
  <circle cx="222.29" cy="249.94" r="2.5" fill="#2563eb"/>
  <circle cx="223.52" cy="249.99" r="2.5" fill="#2563eb"/>
  <circle cx="224.76" cy="250.07" r="2.5" fill="#2563eb"/>
  <circle cx="226.00" cy="249.99" r="2.5" fill="#2563eb"/>
  <circle cx="227.24" cy="250.03" r="2.5" fill="#2563eb"/>
  <circle cx="228.48" cy="249.94" r="2.5" fill="#2563eb"/>
  <circle cx="229.71" cy="200.00" r="2.5" fill="#2563eb"/>
  <circle cx="230.95" cy="300.39" r="2.5" fill="#2563eb"/>
  <circle cx="232.19" cy="300.01" r="2.5" fill="#2563eb"/>
  <circle cx="233.43" cy="300.01" r="2.5" fill="#2563eb"/>
  <circle cx="234.67" cy="250.44" r="2.5" fill="#2563eb"/>
  <circle cx="235.90" cy="300.39" r="2.5" fill="#2563eb"/>
  <circle cx="237.14" cy="249.86" r="2.5" fill="#2563eb"/>
  <circle cx="238.38" cy="250.11" r="2.5" fill="#2563eb"/>
  <circle cx="239.62" cy="201.46" r="2.5" fill="#2563eb"/>
  <circle cx="240.86" cy="300.01" r="2.5" fill="#2563eb"/>
  <circle cx="242.10" cy="200.83" r="2.5" fill="#2563eb"/>
  <circle cx="243.33" cy="250.03" r="2.5" fill="#2563eb"/>
  <circle cx="244.57" cy="249.99" r="2.5" fill="#2563eb"/>
  <circle cx="245.81" cy="300.26" r="2.5" fill="#2563eb"/>
  <circle cx="247.05" cy="300.01" r="2.5" fill="#2563eb"/>
  <circle cx="248.29" cy="300.01" r="2.5" fill="#2563eb"/>
  <circle cx="249.52" cy="250.03" r="2.5" fill="#2563eb"/>
  <circle cx="250.76" cy="250.03" r="2.5" fill="#2563eb"/>
  <circle cx="252.00" cy="250.03" r="2.5" fill="#2563eb"/>
  <circle cx="253.24" cy="250.03" r="2.5" fill="#2563eb"/>
  <circle cx="254.48" cy="249.99" r="2.5" fill="#2563eb"/>
  <circle cx="255.71" cy="250.03" r="2.5" fill="#2563eb"/>
  <circle cx="256.95" cy="200.00" r="2.5" fill="#2563eb"/>
  <circle cx="258.19" cy="300.26" r="2.5" fill="#2563eb"/>
  <circle cx="259.43" cy="249.99" r="2.5" fill="#2563eb"/>
  <circle cx="260.67" cy="300.01" r="2.5" fill="#2563eb"/>
  <circle cx="261.90" cy="249.94" r="2.5" fill="#2563eb"/>
  <circle cx="263.14" cy="250.03" r="2.5" fill="#2563eb"/>
  <circle cx="264.38" cy="250.03" r="2.5" fill="#2563eb"/>
  <circle cx="265.62" cy="250.03" r="2.5" fill="#2563eb"/>
  <circle cx="266.86" cy="200.04" r="2.5" fill="#2563eb"/>
  <circle cx="268.10" cy="300.01" r="2.5" fill="#2563eb"/>
  <circle cx="269.33" cy="249.90" r="2.5" fill="#2563eb"/>
  <circle cx="270.57" cy="300.01" r="2.5" fill="#2563eb"/>
  <circle cx="271.81" cy="300.01" r="2.5" fill="#2563eb"/>
  <circle cx="273.05" cy="300.06" r="2.5" fill="#2563eb"/>
  <circle cx="274.29" cy="300.01" r="2.5" fill="#2563eb"/>
  <circle cx="275.52" cy="300.01" r="2.5" fill="#2563eb"/>
  <circle cx="276.76" cy="243.95" r="2.5" fill="#2563eb"/>
  <circle cx="278.00" cy="249.94" r="2.5" fill="#2563eb"/>
  <circle cx="279.24" cy="299.97" r="2.5" fill="#2563eb"/>
  <circle cx="280.48" cy="300.01" r="2.5" fill="#2563eb"/>
  <circle cx="281.71" cy="300.01" r="2.5" fill="#2563eb"/>
  <circle cx="282.95" cy="250.03" r="2.5" fill="#2563eb"/>
  <circle cx="284.19" cy="300.01" r="2.5" fill="#2563eb"/>
  <circle cx="285.43" cy="300.01" r="2.5" fill="#2563eb"/>
  <circle cx="286.67" cy="299.97" r="2.5" fill="#2563eb"/>
  <circle cx="287.90" cy="249.99" r="2.5" fill="#2563eb"/>
  <circle cx="289.14" cy="300.01" r="2.5" fill="#2563eb"/>
  <circle cx="290.38" cy="299.93" r="2.5" fill="#2563eb"/>
  <circle cx="291.62" cy="300.01" r="2.5" fill="#2563eb"/>
  <circle cx="292.86" cy="299.93" r="2.5" fill="#2563eb"/>
  <circle cx="294.10" cy="300.01" r="2.5" fill="#2563eb"/>
  <circle cx="295.33" cy="300.01" r="2.5" fill="#2563eb"/>
  <circle cx="296.57" cy="299.89" r="2.5" fill="#2563eb"/>
  <circle cx="297.81" cy="299.97" r="2.5" fill="#2563eb"/>
  <circle cx="299.05" cy="250.03" r="2.5" fill="#2563eb"/>
  <circle cx="300.29" cy="299.93" r="2.5" fill="#2563eb"/>
  <circle cx="301.52" cy="299.89" r="2.5" fill="#2563eb"/>
  <circle cx="302.76" cy="299.97" r="2.5" fill="#2563eb"/>
  <circle cx="304.00" cy="249.94" r="2.5" fill="#2563eb"/>
  <circle cx="305.24" cy="300.01" r="2.5" fill="#2563eb"/>
  <circle cx="306.48" cy="300.01" r="2.5" fill="#2563eb"/>
  <circle cx="307.71" cy="299.97" r="2.5" fill="#2563eb"/>
  <circle cx="308.95" cy="249.99" r="2.5" fill="#2563eb"/>
  <circle cx="310.19" cy="299.97" r="2.5" fill="#2563eb"/>
  <circle cx="311.43" cy="299.97" r="2.5" fill="#2563eb"/>
  <circle cx="312.67" cy="300.06" r="2.5" fill="#2563eb"/>
  <circle cx="313.90" cy="300.06" r="2.5" fill="#2563eb"/>
  <circle cx="315.14" cy="299.93" r="2.5" fill="#2563eb"/>
  <circle cx="316.38" cy="300.01" r="2.5" fill="#2563eb"/>
  <circle cx="317.62" cy="300.01" r="2.5" fill="#2563eb"/>
  <circle cx="318.86" cy="299.93" r="2.5" fill="#2563eb"/>
  <circle cx="320.10" cy="300.01" r="2.5" fill="#2563eb"/>
  <circle cx="321.33" cy="300.01" r="2.5" fill="#2563eb"/>
  <circle cx="322.57" cy="299.97" r="2.5" fill="#2563eb"/>
  <circle cx="323.81" cy="300.01" r="2.5" fill="#2563eb"/>
  <circle cx="325.05" cy="300.01" r="2.5" fill="#2563eb"/>
  <circle cx="326.29" cy="300.01" r="2.5" fill="#2563eb"/>
  <circle cx="327.52" cy="300.01" r="2.5" fill="#2563eb"/>
  <circle cx="328.76" cy="249.86" r="2.5" fill="#2563eb"/>
  <circle cx="330.00" cy="300.01" r="2.5" fill="#2563eb"/>
  <circle cx="331.24" cy="300.10" r="2.5" fill="#2563eb"/>
  <circle cx="332.48" cy="299.93" r="2.5" fill="#2563eb"/>
  <circle cx="333.71" cy="300.01" r="2.5" fill="#2563eb"/>
  <circle cx="334.95" cy="299.93" r="2.5" fill="#2563eb"/>
  <circle cx="336.19" cy="300.01" r="2.5" fill="#2563eb"/>
  <circle cx="337.43" cy="300.01" r="2.5" fill="#2563eb"/>
  <circle cx="338.67" cy="300.01" r="2.5" fill="#2563eb"/>
  <circle cx="339.90" cy="300.01" r="2.5" fill="#2563eb"/>
  <circle cx="341.14" cy="300.01" r="2.5" fill="#2563eb"/>
  <circle cx="342.38" cy="299.97" r="2.5" fill="#2563eb"/>
  <circle cx="343.62" cy="300.01" r="2.5" fill="#2563eb"/>
  <circle cx="344.86" cy="300.01" r="2.5" fill="#2563eb"/>
  <circle cx="346.10" cy="300.01" r="2.5" fill="#2563eb"/>
  <circle cx="347.33" cy="300.01" r="2.5" fill="#2563eb"/>
  <circle cx="348.57" cy="250.03" r="2.5" fill="#2563eb"/>
  <circle cx="349.81" cy="300.01" r="2.5" fill="#2563eb"/>
  <circle cx="351.05" cy="300.01" r="2.5" fill="#2563eb"/>
  <circle cx="352.29" cy="299.97" r="2.5" fill="#2563eb"/>
  <circle cx="353.52" cy="300.01" r="2.5" fill="#2563eb"/>
  <circle cx="354.76" cy="300.01" r="2.5" fill="#2563eb"/>
  <circle cx="356.00" cy="299.97" r="2.5" fill="#2563eb"/>
  <circle cx="357.24" cy="299.97" r="2.5" fill="#2563eb"/>
  <circle cx="358.48" cy="300.01" r="2.5" fill="#2563eb"/>
  <circle cx="359.71" cy="299.97" r="2.5" fill="#2563eb"/>
  <circle cx="360.95" cy="300.01" r="2.5" fill="#2563eb"/>
  <circle cx="362.19" cy="299.93" r="2.5" fill="#2563eb"/>
  <circle cx="363.43" cy="300.01" r="2.5" fill="#2563eb"/>
  <circle cx="364.67" cy="250.03" r="2.5" fill="#2563eb"/>
  <circle cx="365.90" cy="300.01" r="2.5" fill="#2563eb"/>
  <circle cx="367.14" cy="300.01" r="2.5" fill="#2563eb"/>
  <circle cx="368.38" cy="300.01" r="2.5" fill="#2563eb"/>
  <circle cx="369.62" cy="300.01" r="2.5" fill="#2563eb"/>
  <circle cx="370.86" cy="300.01" r="2.5" fill="#2563eb"/>
  <circle cx="372.10" cy="299.89" r="2.5" fill="#2563eb"/>
  <circle cx="373.33" cy="300.01" r="2.5" fill="#2563eb"/>
  <circle cx="374.57" cy="300.01" r="2.5" fill="#2563eb"/>
  <circle cx="375.81" cy="250.07" r="2.5" fill="#2563eb"/>
  <circle cx="377.05" cy="300.01" r="2.5" fill="#2563eb"/>
  <circle cx="378.29" cy="299.93" r="2.5" fill="#2563eb"/>
  <circle cx="379.52" cy="300.01" r="2.5" fill="#2563eb"/>
  <circle cx="380.76" cy="299.97" r="2.5" fill="#2563eb"/>
  <circle cx="382.00" cy="299.97" r="2.5" fill="#2563eb"/>
  <circle cx="383.24" cy="299.97" r="2.5" fill="#2563eb"/>
  <circle cx="384.48" cy="250.03" r="2.5" fill="#2563eb"/>
  <circle cx="385.71" cy="300.01" r="2.5" fill="#2563eb"/>
  <circle cx="386.95" cy="300.01" r="2.5" fill="#2563eb"/>
  <circle cx="388.19" cy="300.01" r="2.5" fill="#2563eb"/>
  <circle cx="389.43" cy="300.01" r="2.5" fill="#2563eb"/>
  <circle cx="390.67" cy="299.97" r="2.5" fill="#2563eb"/>
  <circle cx="391.90" cy="300.01" r="2.5" fill="#2563eb"/>
  <circle cx="393.14" cy="299.97" r="2.5" fill="#2563eb"/>
  <circle cx="394.38" cy="300.01" r="2.5" fill="#2563eb"/>
  <circle cx="395.62" cy="299.97" r="2.5" fill="#2563eb"/>
  <circle cx="396.86" cy="249.90" r="2.5" fill="#2563eb"/>
  <circle cx="398.10" cy="300.01" r="2.5" fill="#2563eb"/>
  <circle cx="399.33" cy="300.01" r="2.5" fill="#2563eb"/>
  <circle cx="400.57" cy="299.89" r="2.5" fill="#2563eb"/>
  <circle cx="401.81" cy="299.97" r="2.5" fill="#2563eb"/>
  <circle cx="403.05" cy="299.97" r="2.5" fill="#2563eb"/>
  <circle cx="404.29" cy="249.99" r="2.5" fill="#2563eb"/>
  <circle cx="405.52" cy="299.97" r="2.5" fill="#2563eb"/>
  <circle cx="406.76" cy="299.89" r="2.5" fill="#2563eb"/>
  <circle cx="408.00" cy="300.01" r="2.5" fill="#2563eb"/>
  <circle cx="409.24" cy="299.97" r="2.5" fill="#2563eb"/>
  <circle cx="410.48" cy="299.97" r="2.5" fill="#2563eb"/>
  <circle cx="411.71" cy="300.01" r="2.5" fill="#2563eb"/>
  <circle cx="412.95" cy="299.97" r="2.5" fill="#2563eb"/>
  <circle cx="414.19" cy="249.99" r="2.5" fill="#2563eb"/>
  <circle cx="415.43" cy="299.97" r="2.5" fill="#2563eb"/>
  <circle cx="416.67" cy="299.97" r="2.5" fill="#2563eb"/>
  <circle cx="417.90" cy="300.06" r="2.5" fill="#2563eb"/>
  <circle cx="419.14" cy="300.06" r="2.5" fill="#2563eb"/>
  <circle cx="420.38" cy="249.94" r="2.5" fill="#2563eb"/>
  <circle cx="421.62" cy="300.01" r="2.5" fill="#2563eb"/>
  <circle cx="422.86" cy="299.93" r="2.5" fill="#2563eb"/>
  <circle cx="424.10" cy="300.01" r="2.5" fill="#2563eb"/>
  <circle cx="425.33" cy="300.01" r="2.5" fill="#2563eb"/>
  <circle cx="426.57" cy="249.99" r="2.5" fill="#2563eb"/>
  <circle cx="427.81" cy="300.01" r="2.5" fill="#2563eb"/>
  <circle cx="429.05" cy="300.01" r="2.5" fill="#2563eb"/>
  <circle cx="430.29" cy="300.01" r="2.5" fill="#2563eb"/>
  <circle cx="431.52" cy="299.93" r="2.5" fill="#2563eb"/>
  <circle cx="432.76" cy="299.93" r="2.5" fill="#2563eb"/>
  <circle cx="434.00" cy="300.01" r="2.5" fill="#2563eb"/>
  <circle cx="435.24" cy="300.01" r="2.5" fill="#2563eb"/>
  <circle cx="436.48" cy="249.94" r="2.5" fill="#2563eb"/>
  <circle cx="437.71" cy="299.97" r="2.5" fill="#2563eb"/>
  <circle cx="438.95" cy="299.97" r="2.5" fill="#2563eb"/>
  <circle cx="440.19" cy="300.01" r="2.5" fill="#2563eb"/>
  <circle cx="441.43" cy="300.01" r="2.5" fill="#2563eb"/>
  <circle cx="442.67" cy="300.01" r="2.5" fill="#2563eb"/>
  <circle cx="443.90" cy="249.99" r="2.5" fill="#2563eb"/>
  <circle cx="445.14" cy="300.01" r="2.5" fill="#2563eb"/>
  <circle cx="446.38" cy="300.01" r="2.5" fill="#2563eb"/>
  <circle cx="447.62" cy="300.01" r="2.5" fill="#2563eb"/>
  <circle cx="448.86" cy="250.03" r="2.5" fill="#2563eb"/>
  <circle cx="450.10" cy="300.01" r="2.5" fill="#2563eb"/>
  <circle cx="451.33" cy="300.01" r="2.5" fill="#2563eb"/>
  <circle cx="452.57" cy="300.01" r="2.5" fill="#2563eb"/>
  <circle cx="453.81" cy="299.97" r="2.5" fill="#2563eb"/>
  <circle cx="455.05" cy="300.01" r="2.5" fill="#2563eb"/>
  <circle cx="456.29" cy="300.01" r="2.5" fill="#2563eb"/>
  <circle cx="457.52" cy="299.97" r="2.5" fill="#2563eb"/>
  <circle cx="458.76" cy="299.97" r="2.5" fill="#2563eb"/>
  <circle cx="460.00" cy="300.01" r="2.5" fill="#2563eb"/>
  <circle cx="461.24" cy="300.01" r="2.5" fill="#2563eb"/>
  <circle cx="462.48" cy="299.97" r="2.5" fill="#2563eb"/>
  <circle cx="463.71" cy="299.93" r="2.5" fill="#2563eb"/>
  <circle cx="464.95" cy="300.01" r="2.5" fill="#2563eb"/>
  <circle cx="466.19" cy="300.06" r="2.5" fill="#2563eb"/>
  <circle cx="467.43" cy="299.97" r="2.5" fill="#2563eb"/>
  <circle cx="468.67" cy="300.01" r="2.5" fill="#2563eb"/>
  <circle cx="469.90" cy="250.03" r="2.5" fill="#2563eb"/>
  <circle cx="471.14" cy="250.03" r="2.5" fill="#2563eb"/>
  <circle cx="472.38" cy="299.93" r="2.5" fill="#2563eb"/>
  <circle cx="473.62" cy="299.97" r="2.5" fill="#2563eb"/>
  <circle cx="474.86" cy="300.01" r="2.5" fill="#2563eb"/>
  <circle cx="476.10" cy="300.01" r="2.5" fill="#2563eb"/>
  <circle cx="477.33" cy="300.06" r="2.5" fill="#2563eb"/>
  <circle cx="478.57" cy="300.01" r="2.5" fill="#2563eb"/>
  <circle cx="479.81" cy="299.93" r="2.5" fill="#2563eb"/>
  <circle cx="481.05" cy="300.01" r="2.5" fill="#2563eb"/>
  <circle cx="482.29" cy="300.01" r="2.5" fill="#2563eb"/>
  <circle cx="483.52" cy="299.97" r="2.5" fill="#2563eb"/>
  <circle cx="484.76" cy="299.97" r="2.5" fill="#2563eb"/>
  <circle cx="486.00" cy="300.01" r="2.5" fill="#2563eb"/>
  <circle cx="487.24" cy="250.03" r="2.5" fill="#2563eb"/>
  <circle cx="488.48" cy="300.01" r="2.5" fill="#2563eb"/>
  <circle cx="489.71" cy="300.01" r="2.5" fill="#2563eb"/>
  <circle cx="490.95" cy="300.01" r="2.5" fill="#2563eb"/>
  <circle cx="492.19" cy="299.97" r="2.5" fill="#2563eb"/>
  <circle cx="493.43" cy="300.01" r="2.5" fill="#2563eb"/>
  <circle cx="494.67" cy="299.97" r="2.5" fill="#2563eb"/>
  <circle cx="495.90" cy="300.01" r="2.5" fill="#2563eb"/>
  <circle cx="497.14" cy="299.97" r="2.5" fill="#2563eb"/>
  <circle cx="498.38" cy="299.97" r="2.5" fill="#2563eb"/>
  <circle cx="499.62" cy="299.93" r="2.5" fill="#2563eb"/>
  <circle cx="500.86" cy="300.01" r="2.5" fill="#2563eb"/>
  <circle cx="502.10" cy="300.01" r="2.5" fill="#2563eb"/>
  <circle cx="503.33" cy="299.89" r="2.5" fill="#2563eb"/>
  <circle cx="504.57" cy="299.97" r="2.5" fill="#2563eb"/>
  <circle cx="505.81" cy="299.97" r="2.5" fill="#2563eb"/>
  <circle cx="507.05" cy="300.06" r="2.5" fill="#2563eb"/>
  <circle cx="508.29" cy="249.90" r="2.5" fill="#2563eb"/>
  <circle cx="509.52" cy="299.89" r="2.5" fill="#2563eb"/>
  <circle cx="510.76" cy="300.01" r="2.5" fill="#2563eb"/>
  <circle cx="512.00" cy="299.97" r="2.5" fill="#2563eb"/>
  <circle cx="513.24" cy="299.97" r="2.5" fill="#2563eb"/>
  <circle cx="514.48" cy="299.97" r="2.5" fill="#2563eb"/>
  <circle cx="515.71" cy="300.01" r="2.5" fill="#2563eb"/>
  <circle cx="516.95" cy="300.01" r="2.5" fill="#2563eb"/>
  <circle cx="518.19" cy="299.97" r="2.5" fill="#2563eb"/>
  <circle cx="519.43" cy="299.97" r="2.5" fill="#2563eb"/>
  <circle cx="520.67" cy="299.97" r="2.5" fill="#2563eb"/>
  <circle cx="521.90" cy="250.03" r="2.5" fill="#2563eb"/>
  <circle cx="523.14" cy="299.93" r="2.5" fill="#2563eb"/>
  <circle cx="524.38" cy="300.01" r="2.5" fill="#2563eb"/>
  <circle cx="525.62" cy="300.01" r="2.5" fill="#2563eb"/>
  <circle cx="526.86" cy="299.93" r="2.5" fill="#2563eb"/>
  <circle cx="528.10" cy="300.01" r="2.5" fill="#2563eb"/>
  <circle cx="529.33" cy="300.01" r="2.5" fill="#2563eb"/>
  <circle cx="530.57" cy="299.97" r="2.5" fill="#2563eb"/>
  <circle cx="531.81" cy="300.01" r="2.5" fill="#2563eb"/>
  <circle cx="533.05" cy="300.01" r="2.5" fill="#2563eb"/>
  <circle cx="534.29" cy="300.06" r="2.5" fill="#2563eb"/>
  <circle cx="535.52" cy="300.01" r="2.5" fill="#2563eb"/>
  <circle cx="536.76" cy="299.97" r="2.5" fill="#2563eb"/>
  <circle cx="538.00" cy="299.89" r="2.5" fill="#2563eb"/>
  <circle cx="539.24" cy="300.01" r="2.5" fill="#2563eb"/>
  <circle cx="540.48" cy="300.01" r="2.5" fill="#2563eb"/>
  <circle cx="541.71" cy="249.94" r="2.5" fill="#2563eb"/>
  <circle cx="542.95" cy="249.94" r="2.5" fill="#2563eb"/>
  <circle cx="544.19" cy="300.01" r="2.5" fill="#2563eb"/>
  <circle cx="545.43" cy="300.01" r="2.5" fill="#2563eb"/>
  <circle cx="546.67" cy="300.01" r="2.5" fill="#2563eb"/>
  <circle cx="547.90" cy="300.01" r="2.5" fill="#2563eb"/>
  <circle cx="549.14" cy="299.97" r="2.5" fill="#2563eb"/>
  <circle cx="550.38" cy="250.03" r="2.5" fill="#2563eb"/>
  <circle cx="551.62" cy="300.01" r="2.5" fill="#2563eb"/>
  <circle cx="552.86" cy="300.01" r="2.5" fill="#2563eb"/>
  <circle cx="554.10" cy="300.01" r="2.5" fill="#2563eb"/>
  <circle cx="555.33" cy="300.01" r="2.5" fill="#2563eb"/>
  <circle cx="556.57" cy="250.03" r="2.5" fill="#2563eb"/>
  <circle cx="557.81" cy="249.99" r="2.5" fill="#2563eb"/>
  <circle cx="559.05" cy="300.01" r="2.5" fill="#2563eb"/>
  <circle cx="560.29" cy="299.97" r="2.5" fill="#2563eb"/>
  <circle cx="561.52" cy="300.01" r="2.5" fill="#2563eb"/>
  <circle cx="562.76" cy="299.97" r="2.5" fill="#2563eb"/>
  <circle cx="564.00" cy="300.01" r="2.5" fill="#2563eb"/>
  <circle cx="565.24" cy="299.97" r="2.5" fill="#2563eb"/>
  <circle cx="566.48" cy="299.97" r="2.5" fill="#2563eb"/>
  <circle cx="567.71" cy="299.97" r="2.5" fill="#2563eb"/>
  <circle cx="568.95" cy="300.06" r="2.5" fill="#2563eb"/>
  <circle cx="570.19" cy="249.99" r="2.5" fill="#2563eb"/>
  <circle cx="571.43" cy="300.01" r="2.5" fill="#2563eb"/>
  <circle cx="572.67" cy="250.03" r="2.5" fill="#2563eb"/>
  <circle cx="573.90" cy="249.94" r="2.5" fill="#2563eb"/>
  <circle cx="575.14" cy="249.99" r="2.5" fill="#2563eb"/>
  <circle cx="576.38" cy="300.01" r="2.5" fill="#2563eb"/>
  <circle cx="577.62" cy="300.06" r="2.5" fill="#2563eb"/>
  <circle cx="578.86" cy="300.01" r="2.5" fill="#2563eb"/>
  <circle cx="580.10" cy="299.97" r="2.5" fill="#2563eb"/>
  <circle cx="581.33" cy="299.97" r="2.5" fill="#2563eb"/>
  <circle cx="582.57" cy="300.01" r="2.5" fill="#2563eb"/>
  <circle cx="583.81" cy="299.93" r="2.5" fill="#2563eb"/>
  <circle cx="585.05" cy="299.89" r="2.5" fill="#2563eb"/>
  <circle cx="586.29" cy="299.89" r="2.5" fill="#2563eb"/>
  <circle cx="587.52" cy="299.89" r="2.5" fill="#2563eb"/>
  <circle cx="588.76" cy="299.89" r="2.5" fill="#2563eb"/>
  <circle cx="590.00" cy="299.85" r="2.5" fill="#2563eb"/>
  <circle cx="591.24" cy="299.85" r="2.5" fill="#2563eb"/>
  <circle cx="592.48" cy="299.89" r="2.5" fill="#2563eb"/>
  <circle cx="593.71" cy="299.81" r="2.5" fill="#2563eb"/>
  <circle cx="594.95" cy="299.81" r="2.5" fill="#2563eb"/>
  <circle cx="596.19" cy="299.81" r="2.5" fill="#2563eb"/>
  <circle cx="597.43" cy="299.76" r="2.5" fill="#2563eb"/>
  <circle cx="598.67" cy="299.76" r="2.5" fill="#2563eb"/>
  <circle cx="599.90" cy="299.76" r="2.5" fill="#2563eb"/>
  <circle cx="601.14" cy="299.72" r="2.5" fill="#2563eb"/>
  <circle cx="602.38" cy="299.68" r="2.5" fill="#2563eb"/>
  <circle cx="603.62" cy="299.60" r="2.5" fill="#2563eb"/>
  <circle cx="604.86" cy="299.60" r="2.5" fill="#2563eb"/>
  <circle cx="606.10" cy="299.60" r="2.5" fill="#2563eb"/>
  <circle cx="607.33" cy="299.56" r="2.5" fill="#2563eb"/>
  <circle cx="608.57" cy="299.47" r="2.5" fill="#2563eb"/>
  <circle cx="609.81" cy="299.43" r="2.5" fill="#2563eb"/>
  <circle cx="611.05" cy="299.43" r="2.5" fill="#2563eb"/>
  <circle cx="612.29" cy="299.39" r="2.5" fill="#2563eb"/>
  <circle cx="613.52" cy="299.47" r="2.5" fill="#2563eb"/>
  <circle cx="614.76" cy="259.82" r="2.5" fill="#2563eb"/>
  <circle cx="616.00" cy="338.96" r="2.5" fill="#2563eb"/>
  <circle cx="617.24" cy="299.31" r="2.5" fill="#2563eb"/>
  <circle cx="618.48" cy="299.31" r="2.5" fill="#2563eb"/>
  <circle cx="619.71" cy="299.26" r="2.5" fill="#2563eb"/>
  <circle cx="620.95" cy="299.68" r="2.5" fill="#2563eb"/>
  <circle cx="622.19" cy="299.68" r="2.5" fill="#2563eb"/>
  <circle cx="623.43" cy="299.68" r="2.5" fill="#2563eb"/>
  <circle cx="624.67" cy="299.64" r="2.5" fill="#2563eb"/>
  <circle cx="625.90" cy="299.14" r="2.5" fill="#2563eb"/>
  <circle cx="627.14" cy="299.14" r="2.5" fill="#2563eb"/>
  <circle cx="628.38" cy="299.10" r="2.5" fill="#2563eb"/>
  <circle cx="629.62" cy="299.10" r="2.5" fill="#2563eb"/>
  <circle cx="630.86" cy="299.10" r="2.5" fill="#2563eb"/>
  <circle cx="632.10" cy="248.07" r="2.5" fill="#2563eb"/>
  <circle cx="633.33" cy="299.06" r="2.5" fill="#2563eb"/>
  <circle cx="634.57" cy="299.06" r="2.5" fill="#2563eb"/>
  <circle cx="635.81" cy="299.06" r="2.5" fill="#2563eb"/>
  <circle cx="637.05" cy="299.06" r="2.5" fill="#2563eb"/>
  <circle cx="638.29" cy="299.06" r="2.5" fill="#2563eb"/>
  <circle cx="639.52" cy="298.97" r="2.5" fill="#2563eb"/>
  <circle cx="640.76" cy="298.97" r="2.5" fill="#2563eb"/>
  <circle cx="642.00" cy="298.93" r="2.5" fill="#2563eb"/>
  <circle cx="643.24" cy="298.97" r="2.5" fill="#2563eb"/>
  <circle cx="644.48" cy="298.93" r="2.5" fill="#2563eb"/>
  <circle cx="645.71" cy="298.89" r="2.5" fill="#2563eb"/>
  <circle cx="646.95" cy="298.89" r="2.5" fill="#2563eb"/>
  <circle cx="648.19" cy="298.89" r="2.5" fill="#2563eb"/>
  <circle cx="649.43" cy="298.89" r="2.5" fill="#2563eb"/>
  <circle cx="650.67" cy="247.78" r="2.5" fill="#2563eb"/>
  <circle cx="651.90" cy="298.89" r="2.5" fill="#2563eb"/>
  <circle cx="653.14" cy="298.89" r="2.5" fill="#2563eb"/>
  <circle cx="654.38" cy="298.85" r="2.5" fill="#2563eb"/>
  <circle cx="655.62" cy="298.85" r="2.5" fill="#2563eb"/>
  <circle cx="656.86" cy="298.81" r="2.5" fill="#2563eb"/>
  <circle cx="658.10" cy="298.81" r="2.5" fill="#2563eb"/>
  <circle cx="659.33" cy="298.81" r="2.5" fill="#2563eb"/>
  <circle cx="660.57" cy="298.81" r="2.5" fill="#2563eb"/>
  <circle cx="661.81" cy="298.81" r="2.5" fill="#2563eb"/>
  <circle cx="663.05" cy="298.81" r="2.5" fill="#2563eb"/>
  <circle cx="664.29" cy="298.81" r="2.5" fill="#2563eb"/>
  <circle cx="665.52" cy="298.81" r="2.5" fill="#2563eb"/>
  <circle cx="666.76" cy="298.81" r="2.5" fill="#2563eb"/>
  <circle cx="668.00" cy="298.72" r="2.5" fill="#2563eb"/>
  <circle cx="669.24" cy="247.45" r="2.5" fill="#2563eb"/>
  <circle cx="670.48" cy="247.45" r="2.5" fill="#2563eb"/>
  <circle cx="671.71" cy="298.72" r="2.5" fill="#2563eb"/>
  <circle cx="672.95" cy="298.72" r="2.5" fill="#2563eb"/>
  <circle cx="674.19" cy="298.72" r="2.5" fill="#2563eb"/>
  <circle cx="675.43" cy="298.72" r="2.5" fill="#2563eb"/>
  <circle cx="676.67" cy="298.72" r="2.5" fill="#2563eb"/>
  <circle cx="677.90" cy="298.72" r="2.5" fill="#2563eb"/>
  <circle cx="679.14" cy="247.36" r="2.5" fill="#2563eb"/>
  <circle cx="680.38" cy="298.68" r="2.5" fill="#2563eb"/>
  <circle cx="681.62" cy="247.36" r="2.5" fill="#2563eb"/>
  <circle cx="682.86" cy="247.36" r="2.5" fill="#2563eb"/>
  <circle cx="684.10" cy="247.36" r="2.5" fill="#2563eb"/>
  <circle cx="685.33" cy="298.68" r="2.5" fill="#2563eb"/>
  <circle cx="686.57" cy="298.68" r="2.5" fill="#2563eb"/>
  <circle cx="687.81" cy="298.68" r="2.5" fill="#2563eb"/>
  <circle cx="689.05" cy="298.68" r="2.5" fill="#2563eb"/>
  <circle cx="690.29" cy="298.68" r="2.5" fill="#2563eb"/>
  <circle cx="691.52" cy="341.67" r="2.5" fill="#2563eb"/>
  <circle cx="692.76" cy="307.01" r="2.5" fill="#2563eb"/>
  <circle cx="694.00" cy="298.68" r="2.5" fill="#2563eb"/>
  <circle cx="695.24" cy="298.68" r="2.5" fill="#2563eb"/>
  <circle cx="696.48" cy="298.68" r="2.5" fill="#2563eb"/>
  <circle cx="697.71" cy="247.36" r="2.5" fill="#2563eb"/>
  <circle cx="698.95" cy="298.64" r="2.5" fill="#2563eb"/>
  <circle cx="700.19" cy="247.36" r="2.5" fill="#2563eb"/>
  <circle cx="701.43" cy="247.28" r="2.5" fill="#2563eb"/>
  <circle cx="702.67" cy="247.20" r="2.5" fill="#2563eb"/>
  <circle cx="703.90" cy="298.60" r="2.5" fill="#2563eb"/>
  <circle cx="705.14" cy="298.60" r="2.5" fill="#2563eb"/>
  <circle cx="706.38" cy="247.03" r="2.5" fill="#2563eb"/>
  <circle cx="707.62" cy="298.51" r="2.5" fill="#2563eb"/>
  <circle cx="708.86" cy="298.51" r="2.5" fill="#2563eb"/>
  <circle cx="710.10" cy="298.51" r="2.5" fill="#2563eb"/>
  <circle cx="711.33" cy="298.51" r="2.5" fill="#2563eb"/>
  <circle cx="712.57" cy="298.51" r="2.5" fill="#2563eb"/>
  <circle cx="713.81" cy="298.51" r="2.5" fill="#2563eb"/>
  <circle cx="715.05" cy="298.51" r="2.5" fill="#2563eb"/>
  <circle cx="716.29" cy="298.51" r="2.5" fill="#2563eb"/>
  <circle cx="717.52" cy="298.51" r="2.5" fill="#2563eb"/>
  <circle cx="718.76" cy="298.51" r="2.5" fill="#2563eb"/>
  <circle cx="720.00" cy="298.51" r="2.5" fill="#2563eb"/>
  <circle cx="721.24" cy="298.51" r="2.5" fill="#2563eb"/>
  <circle cx="722.48" cy="298.51" r="2.5" fill="#2563eb"/>
  <circle cx="723.71" cy="298.51" r="2.5" fill="#2563eb"/>
  <circle cx="724.95" cy="298.51" r="2.5" fill="#2563eb"/>
  <circle cx="726.19" cy="298.51" r="2.5" fill="#2563eb"/>
  <circle cx="727.43" cy="298.51" r="2.5" fill="#2563eb"/>
  <circle cx="728.67" cy="298.51" r="2.5" fill="#2563eb"/>
  <circle cx="729.90" cy="298.51" r="2.5" fill="#2563eb"/>
  <circle cx="731.14" cy="298.51" r="2.5" fill="#2563eb"/>
  <circle cx="732.38" cy="298.51" r="2.5" fill="#2563eb"/>
  <circle cx="733.62" cy="298.51" r="2.5" fill="#2563eb"/>
  <circle cx="734.86" cy="298.51" r="2.5" fill="#2563eb"/>
  <circle cx="736.10" cy="298.51" r="2.5" fill="#2563eb"/>
  <circle cx="737.33" cy="298.51" r="2.5" fill="#2563eb"/>
  <circle cx="738.57" cy="298.51" r="2.5" fill="#2563eb"/>
  <circle cx="739.81" cy="298.47" r="2.5" fill="#2563eb"/>
  <circle cx="741.05" cy="298.51" r="2.5" fill="#2563eb"/>
  <circle cx="742.29" cy="298.51" r="2.5" fill="#2563eb"/>
  <circle cx="743.52" cy="298.47" r="2.5" fill="#2563eb"/>
  <circle cx="744.76" cy="298.51" r="2.5" fill="#2563eb"/>
  <circle cx="746.00" cy="298.47" r="2.5" fill="#2563eb"/>
  <circle cx="747.24" cy="298.51" r="2.5" fill="#2563eb"/>
  <circle cx="748.48" cy="298.43" r="2.5" fill="#2563eb"/>
  <circle cx="749.71" cy="298.56" r="2.5" fill="#2563eb"/>
  <circle cx="750.95" cy="298.43" r="2.5" fill="#2563eb"/>
  <circle cx="752.19" cy="298.43" r="2.5" fill="#2563eb"/>
  <circle cx="753.43" cy="298.43" r="2.5" fill="#2563eb"/>
  <circle cx="754.67" cy="298.43" r="2.5" fill="#2563eb"/>
  <circle cx="755.90" cy="298.43" r="2.5" fill="#2563eb"/>
  <circle cx="757.14" cy="298.43" r="2.5" fill="#2563eb"/>
  <circle cx="758.38" cy="298.43" r="2.5" fill="#2563eb"/>
  <circle cx="759.62" cy="298.43" r="2.5" fill="#2563eb"/>
  <circle cx="760.86" cy="298.43" r="2.5" fill="#2563eb"/>
  <circle cx="762.10" cy="298.43" r="2.5" fill="#2563eb"/>
  <circle cx="763.33" cy="298.43" r="2.5" fill="#2563eb"/>
  <circle cx="764.57" cy="298.43" r="2.5" fill="#2563eb"/>
  <circle cx="765.81" cy="298.43" r="2.5" fill="#2563eb"/>
  <circle cx="767.05" cy="298.43" r="2.5" fill="#2563eb"/>
  <circle cx="768.29" cy="298.43" r="2.5" fill="#2563eb"/>
  <circle cx="769.52" cy="298.43" r="2.5" fill="#2563eb"/>
  <circle cx="770.76" cy="298.43" r="2.5" fill="#2563eb"/>
  <circle cx="772.00" cy="298.43" r="2.5" fill="#2563eb"/>
  <circle cx="773.24" cy="298.43" r="2.5" fill="#2563eb"/>
  <circle cx="774.48" cy="298.43" r="2.5" fill="#2563eb"/>
  <circle cx="775.71" cy="298.43" r="2.5" fill="#2563eb"/>
  <circle cx="776.95" cy="298.43" r="2.5" fill="#2563eb"/>
  <circle cx="778.19" cy="298.43" r="2.5" fill="#2563eb"/>
  <circle cx="779.43" cy="298.43" r="2.5" fill="#2563eb"/>
  <circle cx="780.67" cy="298.43" r="2.5" fill="#2563eb"/>
  <circle cx="781.90" cy="298.43" r="2.5" fill="#2563eb"/>
  <circle cx="783.14" cy="298.43" r="2.5" fill="#2563eb"/>
  <circle cx="784.38" cy="298.43" r="2.5" fill="#2563eb"/>
  <circle cx="785.62" cy="298.43" r="2.5" fill="#2563eb"/>
  <circle cx="786.86" cy="298.43" r="2.5" fill="#2563eb"/>
  <circle cx="788.10" cy="298.43" r="2.5" fill="#2563eb"/>
  <circle cx="789.33" cy="298.43" r="2.5" fill="#2563eb"/>
  <circle cx="790.57" cy="298.43" r="2.5" fill="#2563eb"/>
  <circle cx="791.81" cy="298.43" r="2.5" fill="#2563eb"/>
  <circle cx="793.05" cy="298.39" r="2.5" fill="#2563eb"/>
  <circle cx="794.29" cy="298.39" r="2.5" fill="#2563eb"/>
  <circle cx="795.52" cy="298.43" r="2.5" fill="#2563eb"/>
  <circle cx="796.76" cy="298.43" r="2.5" fill="#2563eb"/>
  <circle cx="798.00" cy="298.39" r="2.5" fill="#2563eb"/>
  <circle cx="799.24" cy="298.39" r="2.5" fill="#2563eb"/>
  <circle cx="800.48" cy="298.39" r="2.5" fill="#2563eb"/>
  <circle cx="801.71" cy="298.43" r="2.5" fill="#2563eb"/>
  <circle cx="802.95" cy="298.43" r="2.5" fill="#2563eb"/>
  <circle cx="804.19" cy="298.43" r="2.5" fill="#2563eb"/>
  <circle cx="805.43" cy="246.82" r="2.5" fill="#2563eb"/>
  <circle cx="806.67" cy="298.43" r="2.5" fill="#2563eb"/>
  <circle cx="807.90" cy="246.78" r="2.5" fill="#2563eb"/>
  <circle cx="809.14" cy="246.78" r="2.5" fill="#2563eb"/>
  <circle cx="810.38" cy="246.78" r="2.5" fill="#2563eb"/>
  <circle cx="811.62" cy="246.70" r="2.5" fill="#2563eb"/>
  <circle cx="812.86" cy="246.78" r="2.5" fill="#2563eb"/>
  <circle cx="814.10" cy="298.39" r="2.5" fill="#2563eb"/>
  <circle cx="815.33" cy="298.39" r="2.5" fill="#2563eb"/>
  <circle cx="816.57" cy="298.39" r="2.5" fill="#2563eb"/>
  <circle cx="817.81" cy="298.39" r="2.5" fill="#2563eb"/>
  <circle cx="819.05" cy="298.39" r="2.5" fill="#2563eb"/>
  <circle cx="820.29" cy="246.78" r="2.5" fill="#2563eb"/>
  <circle cx="821.52" cy="298.39" r="2.5" fill="#2563eb"/>
  <circle cx="822.76" cy="298.39" r="2.5" fill="#2563eb"/>
  <circle cx="824.00" cy="298.39" r="2.5" fill="#2563eb"/>
  <circle cx="825.24" cy="298.39" r="2.5" fill="#2563eb"/>
  <circle cx="826.48" cy="298.39" r="2.5" fill="#2563eb"/>
  <circle cx="827.71" cy="246.78" r="2.5" fill="#2563eb"/>
  <circle cx="828.95" cy="246.78" r="2.5" fill="#2563eb"/>
  <circle cx="830.19" cy="298.39" r="2.5" fill="#2563eb"/>
  <circle cx="831.43" cy="298.39" r="2.5" fill="#2563eb"/>
  <circle cx="832.67" cy="298.39" r="2.5" fill="#2563eb"/>
  <circle cx="833.90" cy="298.39" r="2.5" fill="#2563eb"/>
  <circle cx="835.14" cy="298.39" r="2.5" fill="#2563eb"/>
  <circle cx="836.38" cy="298.39" r="2.5" fill="#2563eb"/>
  <circle cx="837.62" cy="298.39" r="2.5" fill="#2563eb"/>
  <circle cx="838.86" cy="298.39" r="2.5" fill="#2563eb"/>
  <circle cx="840.10" cy="298.39" r="2.5" fill="#2563eb"/>
  <circle cx="841.33" cy="298.39" r="2.5" fill="#2563eb"/>
  <circle cx="842.57" cy="298.39" r="2.5" fill="#2563eb"/>
  <circle cx="843.81" cy="298.39" r="2.5" fill="#2563eb"/>
  <circle cx="845.05" cy="298.39" r="2.5" fill="#2563eb"/>
  <circle cx="846.29" cy="298.39" r="2.5" fill="#2563eb"/>
  <circle cx="847.52" cy="298.35" r="2.5" fill="#2563eb"/>
  <circle cx="848.76" cy="298.39" r="2.5" fill="#2563eb"/>
  <circle cx="850.00" cy="298.39" r="2.5" fill="#2563eb"/>
  <circle cx="851.24" cy="298.35" r="2.5" fill="#2563eb"/>
  <circle cx="852.48" cy="298.35" r="2.5" fill="#2563eb"/>
  <circle cx="853.71" cy="298.35" r="2.5" fill="#2563eb"/>
  <circle cx="854.95" cy="298.35" r="2.5" fill="#2563eb"/>
  <circle cx="856.19" cy="298.35" r="2.5" fill="#2563eb"/>
  <circle cx="857.43" cy="298.35" r="2.5" fill="#2563eb"/>
  <circle cx="858.67" cy="298.35" r="2.5" fill="#2563eb"/>
  <circle cx="859.90" cy="298.35" r="2.5" fill="#2563eb"/>
  <circle cx="861.14" cy="298.35" r="2.5" fill="#2563eb"/>
  <circle cx="862.38" cy="298.35" r="2.5" fill="#2563eb"/>
  <circle cx="863.62" cy="298.35" r="2.5" fill="#2563eb"/>
  <circle cx="864.86" cy="298.35" r="2.5" fill="#2563eb"/>
  <circle cx="866.10" cy="298.35" r="2.5" fill="#2563eb"/>
  <circle cx="867.33" cy="298.35" r="2.5" fill="#2563eb"/>
  <circle cx="868.57" cy="298.35" r="2.5" fill="#2563eb"/>
  <circle cx="869.81" cy="298.35" r="2.5" fill="#2563eb"/>
  <circle cx="871.05" cy="298.35" r="2.5" fill="#2563eb"/>
  <circle cx="872.29" cy="298.35" r="2.5" fill="#2563eb"/>
  <circle cx="873.52" cy="298.35" r="2.5" fill="#2563eb"/>
  <circle cx="874.76" cy="298.35" r="2.5" fill="#2563eb"/>
  <circle cx="876.00" cy="298.35" r="2.5" fill="#2563eb"/>
  <circle cx="877.24" cy="298.35" r="2.5" fill="#2563eb"/>
  <circle cx="878.48" cy="298.35" r="2.5" fill="#2563eb"/>
  <circle cx="879.71" cy="298.35" r="2.5" fill="#2563eb"/>
  <circle cx="880.95" cy="298.35" r="2.5" fill="#2563eb"/>
  <circle cx="882.19" cy="298.35" r="2.5" fill="#2563eb"/>
  <circle cx="883.43" cy="298.35" r="2.5" fill="#2563eb"/>
  <circle cx="884.67" cy="298.35" r="2.5" fill="#2563eb"/>
  <circle cx="885.90" cy="298.35" r="2.5" fill="#2563eb"/>
  <circle cx="887.14" cy="298.35" r="2.5" fill="#2563eb"/>
  <circle cx="888.38" cy="298.35" r="2.5" fill="#2563eb"/>
  <circle cx="889.62" cy="298.35" r="2.5" fill="#2563eb"/>
  <circle cx="890.86" cy="298.35" r="2.5" fill="#2563eb"/>
  <circle cx="892.10" cy="298.35" r="2.5" fill="#2563eb"/>
  <circle cx="893.33" cy="298.35" r="2.5" fill="#2563eb"/>
  <circle cx="894.57" cy="298.35" r="2.5" fill="#2563eb"/>
  <circle cx="895.81" cy="298.35" r="2.5" fill="#2563eb"/>
  <circle cx="897.05" cy="298.35" r="2.5" fill="#2563eb"/>
  <circle cx="898.29" cy="298.35" r="2.5" fill="#2563eb"/>
  <circle cx="899.52" cy="298.35" r="2.5" fill="#2563eb"/>
  <circle cx="900.76" cy="298.35" r="2.5" fill="#2563eb"/>
  <circle cx="902.00" cy="298.35" r="2.5" fill="#2563eb"/>
  <circle cx="903.24" cy="298.35" r="2.5" fill="#2563eb"/>
  <circle cx="904.48" cy="298.35" r="2.5" fill="#2563eb"/>
  <circle cx="905.71" cy="298.35" r="2.5" fill="#2563eb"/>
  <circle cx="906.95" cy="298.35" r="2.5" fill="#2563eb"/>
  <circle cx="908.19" cy="298.35" r="2.5" fill="#2563eb"/>
  <circle cx="909.43" cy="298.35" r="2.5" fill="#2563eb"/>
  <circle cx="910.67" cy="298.35" r="2.5" fill="#2563eb"/>
  <circle cx="911.90" cy="298.35" r="2.5" fill="#2563eb"/>
  <circle cx="913.14" cy="298.35" r="2.5" fill="#2563eb"/>
  <circle cx="914.38" cy="298.35" r="2.5" fill="#2563eb"/>
  <circle cx="915.62" cy="298.39" r="2.5" fill="#2563eb"/>
  <circle cx="916.86" cy="298.39" r="2.5" fill="#2563eb"/>
  <circle cx="918.10" cy="298.39" r="2.5" fill="#2563eb"/>
  <circle cx="919.33" cy="246.78" r="2.5" fill="#2563eb"/>
  <circle cx="920.57" cy="298.39" r="2.5" fill="#2563eb"/>
  <circle cx="921.81" cy="298.39" r="2.5" fill="#2563eb"/>
  <circle cx="923.05" cy="298.39" r="2.5" fill="#2563eb"/>
  <circle cx="924.29" cy="298.39" r="2.5" fill="#2563eb"/>
  <circle cx="925.52" cy="298.39" r="2.5" fill="#2563eb"/>
  <circle cx="926.76" cy="298.39" r="2.5" fill="#2563eb"/>
  <circle cx="928.00" cy="298.39" r="2.5" fill="#2563eb"/>
  <circle cx="929.24" cy="246.78" r="2.5" fill="#2563eb"/>
  <circle cx="930.48" cy="298.39" r="2.5" fill="#2563eb"/>
  <circle cx="931.71" cy="298.39" r="2.5" fill="#2563eb"/>
  <circle cx="932.95" cy="298.39" r="2.5" fill="#2563eb"/>
  <circle cx="934.19" cy="298.39" r="2.5" fill="#2563eb"/>
  <circle cx="935.43" cy="298.39" r="2.5" fill="#2563eb"/>
  <circle cx="936.67" cy="298.39" r="2.5" fill="#2563eb"/>
  <circle cx="937.90" cy="298.39" r="2.5" fill="#2563eb"/>
  <circle cx="939.14" cy="246.78" r="2.5" fill="#2563eb"/>
  <circle cx="940.38" cy="298.39" r="2.5" fill="#2563eb"/>
  <circle cx="941.62" cy="298.39" r="2.5" fill="#2563eb"/>
  <circle cx="942.86" cy="298.39" r="2.5" fill="#2563eb"/>
  <circle cx="944.10" cy="298.39" r="2.5" fill="#2563eb"/>
  <circle cx="945.33" cy="298.39" r="2.5" fill="#2563eb"/>
  <circle cx="946.57" cy="298.39" r="2.5" fill="#2563eb"/>
  <circle cx="947.81" cy="298.39" r="2.5" fill="#2563eb"/>
  <circle cx="949.05" cy="298.39" r="2.5" fill="#2563eb"/>
  <circle cx="950.29" cy="298.39" r="2.5" fill="#2563eb"/>
  <circle cx="951.52" cy="298.39" r="2.5" fill="#2563eb"/>
  <circle cx="952.76" cy="298.39" r="2.5" fill="#2563eb"/>
  <circle cx="954.00" cy="298.35" r="2.5" fill="#2563eb"/>
  <circle cx="955.24" cy="298.39" r="2.5" fill="#2563eb"/>
  <circle cx="956.48" cy="298.39" r="2.5" fill="#2563eb"/>
  <circle cx="957.71" cy="298.39" r="2.5" fill="#2563eb"/>
  <circle cx="958.95" cy="298.35" r="2.5" fill="#2563eb"/>
  <circle cx="960.19" cy="298.35" r="2.5" fill="#2563eb"/>
  <circle cx="961.43" cy="298.35" r="2.5" fill="#2563eb"/>
  <circle cx="962.67" cy="298.35" r="2.5" fill="#2563eb"/>
  <circle cx="963.90" cy="298.35" r="2.5" fill="#2563eb"/>
  <circle cx="965.14" cy="298.35" r="2.5" fill="#2563eb"/>
  <circle cx="966.38" cy="298.35" r="2.5" fill="#2563eb"/>
  <circle cx="967.62" cy="298.35" r="2.5" fill="#2563eb"/>
  <circle cx="968.86" cy="298.35" r="2.5" fill="#2563eb"/>
  <circle cx="970.10" cy="298.35" r="2.5" fill="#2563eb"/>
  <circle cx="971.33" cy="298.35" r="2.5" fill="#2563eb"/>
  <circle cx="972.57" cy="298.35" r="2.5" fill="#2563eb"/>
  <circle cx="973.81" cy="298.35" r="2.5" fill="#2563eb"/>
  <circle cx="975.05" cy="298.35" r="2.5" fill="#2563eb"/>
  <circle cx="976.29" cy="298.35" r="2.5" fill="#2563eb"/>
  <circle cx="977.52" cy="298.35" r="2.5" fill="#2563eb"/>
  <circle cx="978.76" cy="298.39" r="2.5" fill="#2563eb"/>
  <circle cx="980.00" cy="298.39" r="2.5" fill="#2563eb"/>
</svg>
