<?xml version="1.0" encoding="UTF-8"?>
<svg xmlns="http://www.w3.org/2000/svg" width="1000" height="420" viewBox="0 0 1000 420">
  <rect width="100%" height="100%" fill="#ffffff"/>
  <text x="70" y="28" font-size="20" font-weight="600">수집 시점 기준 - 시간별 스냅샷</text>
  <text x="70" y="402" font-size="12" fill="#555">스냅샷 수</text>
  <line x1="70" y1="350.00" x2="980" y2="350.00" stroke="#e5e7eb" stroke-width="1"/>
  <text x="62" y="354.00" font-size="11" fill="#6b7280" text-anchor="end">0</text>
  <line x1="70" y1="290.00" x2="980" y2="290.00" stroke="#e5e7eb" stroke-width="1"/>
  <text x="62" y="294.00" font-size="11" fill="#6b7280" text-anchor="end">1,440</text>
  <line x1="70" y1="230.00" x2="980" y2="230.00" stroke="#e5e7eb" stroke-width="1"/>
  <text x="62" y="234.00" font-size="11" fill="#6b7280" text-anchor="end">2,880</text>
  <line x1="70" y1="170.00" x2="980" y2="170.00" stroke="#e5e7eb" stroke-width="1"/>
  <text x="62" y="174.00" font-size="11" fill="#6b7280" text-anchor="end">4,321</text>
  <line x1="70" y1="110.00" x2="980" y2="110.00" stroke="#e5e7eb" stroke-width="1"/>
  <text x="62" y="114.00" font-size="11" fill="#6b7280" text-anchor="end">5,761</text>
  <line x1="70" y1="50.00" x2="980" y2="50.00" stroke="#e5e7eb" stroke-width="1"/>
  <text x="62" y="54.00" font-size="11" fill="#6b7280" text-anchor="end">7,202</text>
  <line x1="70" y1="350" x2="980" y2="350" stroke="#111827" stroke-width="1.2"/>
  <line x1="70" y1="50" x2="70" y2="350" stroke="#111827" stroke-width="1.2"/>
  <line x1="70.00" y1="350" x2="70.00" y2="356" stroke="#9ca3af" stroke-width="1"/>
  <text x="70.00" y="372" font-size="10" fill="#6b7280" text-anchor="middle">2026-02-28 18</text>
  <line x1="145.07" y1="350" x2="145.07" y2="356" stroke="#9ca3af" stroke-width="1"/>
  <text x="145.07" y="372" font-size="10" fill="#6b7280" text-anchor="middle">2026-03-09 14</text>
  <line x1="220.13" y1="350" x2="220.13" y2="356" stroke="#9ca3af" stroke-width="1"/>
  <text x="220.13" y="372" font-size="10" fill="#6b7280" text-anchor="middle">2026-03-12 03</text>
  <line x1="295.20" y1="350" x2="295.20" y2="356" stroke="#9ca3af" stroke-width="1"/>
  <text x="295.20" y="372" font-size="10" fill="#6b7280" text-anchor="middle">2026-03-14 22</text>
  <line x1="370.26" y1="350" x2="370.26" y2="356" stroke="#9ca3af" stroke-width="1"/>
  <text x="370.26" y="372" font-size="10" fill="#6b7280" text-anchor="middle">2026-03-18 15</text>
  <line x1="445.33" y1="350" x2="445.33" y2="356" stroke="#9ca3af" stroke-width="1"/>
  <text x="445.33" y="372" font-size="10" fill="#6b7280" text-anchor="middle">2026-03-22 00</text>
  <line x1="520.39" y1="350" x2="520.39" y2="356" stroke="#9ca3af" stroke-width="1"/>
  <text x="520.39" y="372" font-size="10" fill="#6b7280" text-anchor="middle">2026-03-25 17</text>
  <line x1="595.46" y1="350" x2="595.46" y2="356" stroke="#9ca3af" stroke-width="1"/>
  <text x="595.46" y="372" font-size="10" fill="#6b7280" text-anchor="middle">2026-03-29 12</text>
  <line x1="670.52" y1="350" x2="670.52" y2="356" stroke="#9ca3af" stroke-width="1"/>
  <text x="670.52" y="372" font-size="10" fill="#6b7280" text-anchor="middle">2026-04-02 14</text>
  <line x1="745.59" y1="350" x2="745.59" y2="356" stroke="#9ca3af" stroke-width="1"/>
  <text x="745.59" y="372" font-size="10" fill="#6b7280" text-anchor="middle">2026-04-06 06</text>
  <line x1="820.65" y1="350" x2="820.65" y2="356" stroke="#9ca3af" stroke-width="1"/>
  <text x="820.65" y="372" font-size="10" fill="#6b7280" text-anchor="middle">2026-04-10 09</text>
  <line x1="895.72" y1="350" x2="895.72" y2="356" stroke="#9ca3af" stroke-width="1"/>
  <text x="895.72" y="372" font-size="10" fill="#6b7280" text-anchor="middle">2026-04-14 09</text>
  <line x1="970.78" y1="350" x2="970.78" y2="356" stroke="#9ca3af" stroke-width="1"/>
  <text x="970.78" y="372" font-size="10" fill="#6b7280" text-anchor="middle">2026-04-18 18</text>
  <line x1="980.00" y1="350" x2="980.00" y2="356" stroke="#9ca3af" stroke-width="1"/>
  <text x="980.00" y="372" font-size="10" fill="#6b7280" text-anchor="middle">2026-04-19 03</text>
  <polyline fill="none" stroke="#2563eb" stroke-width="2.5" points="70.00,50.00 71.32,50.12 72.63,50.17 73.95,50.46 75.27,50.00 76.58,266.90 77.90,50.12 79.22,50.08 80.54,177.46 81.85,211.58 83.17,175.34 84.49,304.14 85.80,200.46 87.12,250.94 88.44,300.01 89.75,300.06 91.07,300.01 92.39,300.01 93.70,348.00 95.02,300.01 96.34,249.99 97.66,200.00 98.97,249.99 100.29,249.99 101.61,250.03 102.92,250.03 104.24,250.03 105.56,250.40 106.87,250.90 108.19,250.90 109.51,251.32 110.82,249.94 112.14,300.01 113.46,299.93 114.78,251.03 116.09,300.68 117.41,250.03 118.73,200.00 120.04,249.99 121.36,250.03 122.68,250.03 123.99,250.03 125.31,300.01 126.63,200.04 127.95,250.03 129.26,250.03 130.58,250.03 131.90,249.90 133.21,250.03 134.53,250.03 135.85,250.94 137.16,250.44 138.48,250.03 139.80,250.03 141.11,300.47 142.43,300.01 143.75,300.43 145.07,250.03 146.38,249.99 147.70,300.43 149.02,249.90 150.33,249.99 151.65,249.99 152.97,200.04 154.28,300.01 155.60,300.01 156.92,300.01 158.23,249.90 159.55,300.01 160.87,250.03 162.19,249.99 163.50,199.96 164.82,300.01 166.14,200.00 167.45,250.36 168.77,250.03 170.09,300.01 171.40,300.01 172.72,250.44 174.04,300.01 175.35,250.03 176.67,250.03 177.99,249.99 179.31,250.49 180.62,250.03 181.94,200.04 183.26,300.01 184.57,250.03 185.89,300.01 187.21,250.11 188.52,300.01 189.84,250.03 191.16,250.03 192.47,199.92 193.79,250.03 195.11,250.03 196.43,250.03 197.74,254.36 199.06,300.01 200.38,299.97 201.69,250.36 203.01,299.97 204.33,250.03 205.64,250.03 206.96,250.03 208.28,250.03 209.59,249.99 210.91,200.00 212.23,299.93 213.55,300.01 214.86,299.97 216.18,249.94 217.50,249.99 218.81,249.82 220.13,249.94 221.45,250.28 222.76,207.00 224.08,250.03 225.40,250.32 226.71,250.40 228.03,300.93 229.35,300.01 230.67,300.10 231.98,249.94 233.30,249.99 234.62,250.07 235.93,249.99 237.25,250.03 238.57,249.94 239.88,200.00 241.20,300.39 242.52,300.01 243.84,300.01 245.15,250.44 246.47,300.39 247.79,249.86 249.10,250.11 250.42,201.46 251.74,300.01 253.05,200.83 254.37,250.03 255.69,249.99 257.00,300.26 258.32,300.01 259.64,300.01 260.96,250.03 262.27,250.03 263.59,250.03 264.91,250.03 266.22,249.99 267.54,250.03 268.86,200.00 270.17,300.26 271.49,249.99 272.81,300.01 274.12,249.94 275.44,250.03 276.76,250.03 278.08,250.03 279.39,200.04 280.71,300.01 282.03,249.90 283.34,300.01 284.66,300.01 285.98,300.06 287.29,300.01 288.61,300.01 289.93,243.95 291.24,249.94 292.56,299.97 293.88,300.01 295.20,300.01 296.51,250.03 297.83,300.01 299.15,300.01 300.46,299.97 301.78,249.99 303.10,300.01 304.41,299.93 305.73,300.01 307.05,299.93 308.36,300.01 309.68,300.01 311.00,299.89 312.32,299.97 313.63,250.03 314.95,299.93 316.27,299.89 317.58,299.97 318.90,249.94 320.22,300.01 321.53,300.01 322.85,299.97 324.17,249.99 325.48,299.97 326.80,299.97 328.12,300.06 329.44,300.06 330.75,299.93 332.07,300.01 333.39,300.01 334.70,299.93 336.02,300.01 337.34,300.01 338.65,299.97 339.97,300.01 341.29,300.01 342.60,300.01 343.92,300.01 345.24,249.86 346.56,300.01 347.87,300.10 349.19,299.93 350.51,300.01 351.82,299.93 353.14,300.01 354.46,300.01 355.77,300.01 357.09,300.01 358.41,300.01 359.73,299.97 361.04,300.01 362.36,300.01 363.68,300.01 364.99,300.01 366.31,250.03 367.63,300.01 368.94,300.01 370.26,299.97 371.58,300.01 372.89,300.01 374.21,299.97 375.53,299.97 376.85,300.01 378.16,299.97 379.48,300.01 380.80,299.93 382.11,300.01 383.43,250.03 384.75,300.01 386.06,300.01 387.38,300.01 388.70,300.01 390.01,300.01 391.33,299.89 392.65,300.01 393.97,300.01 395.28,250.07 396.60,300.01 397.92,299.93 399.23,300.01 400.55,299.97 401.87,299.97 403.18,299.97 404.50,250.03 405.82,300.01 407.13,300.01 408.45,300.01 409.77,300.01 411.09,299.97 412.40,300.01 413.72,299.97 415.04,300.01 416.35,299.97 417.67,249.90 418.99,300.01 420.30,300.01 421.62,299.89 422.94,299.97 424.25,299.97 425.57,249.99 426.89,299.97 428.21,299.89 429.52,300.01 430.84,299.97 432.16,299.97 433.47,300.01 434.79,299.97 436.11,249.99 437.42,299.97 438.74,299.97 440.06,300.06 441.37,300.06 442.69,249.94 444.01,300.01 445.33,299.93 446.64,300.01 447.96,300.01 449.28,249.99 450.59,300.01 451.91,300.01 453.23,300.01 454.54,299.93 455.86,299.93 457.18,300.01 458.49,300.01 459.81,249.94 461.13,299.97 462.45,299.97 463.76,300.01 465.08,300.01 466.40,300.01 467.71,249.99 469.03,300.01 470.35,300.01 471.66,300.01 472.98,250.03 474.30,300.01 475.62,300.01 476.93,300.01 478.25,299.97 479.57,300.01 480.88,300.01 482.20,299.97 483.52,299.97 484.83,300.01 486.15,300.01 487.47,299.97 488.78,299.93 490.10,300.01 491.42,300.06 492.74,299.97 494.05,300.01 495.37,250.03 496.69,250.03 498.00,299.93 499.32,299.97 500.64,300.01 501.95,300.01 503.27,300.06 504.59,300.01 505.90,299.93 507.22,300.01 508.54,300.01 509.86,299.97 511.17,299.97 512.49,300.01 513.81,250.03 515.12,300.01 516.44,300.01 517.76,300.01 519.07,299.97 520.39,300.01 521.71,299.97 523.02,300.01 524.34,299.97 525.66,299.97 526.98,299.93 528.29,300.01 529.61,300.01 530.93,299.89 532.24,299.97 533.56,299.97 534.88,300.06 536.19,249.90 537.51,299.89 538.83,300.01 540.14,299.97 541.46,299.97 542.78,299.97 544.10,300.01 545.41,300.01 546.73,299.97 548.05,299.97 549.36,299.97 550.68,250.03 552.00,299.93 553.31,300.01 554.63,300.01 555.95,299.93 557.26,300.01 558.58,300.01 559.90,299.97 561.22,300.01 562.53,300.01 563.85,300.06 565.17,300.01 566.48,299.97 567.80,299.89 569.12,300.01 570.43,300.01 571.75,249.94 573.07,249.94 574.38,300.01 575.70,300.01 577.02,300.01 578.34,300.01 579.65,299.97 580.97,250.03 582.29,300.01 583.60,300.01 584.92,300.01 586.24,300.01 587.55,250.03 588.87,249.99 590.19,300.01 591.51,299.97 592.82,300.01 594.14,299.97 595.46,300.01 596.77,299.97 598.09,299.97 599.41,299.97 600.72,300.06 602.04,249.99 603.36,300.01 604.67,250.03 605.99,249.94 607.31,249.99 608.63,300.01 609.94,300.06 611.26,300.01 612.58,299.97 613.89,299.97 615.21,300.01 616.53,299.93 617.84,299.89 619.16,299.89 620.48,299.89 621.79,299.89 623.11,299.85 624.43,299.85 625.75,299.89 627.06,299.81 628.38,299.81 629.70,299.81 631.01,299.76 632.33,299.76 633.65,299.76 634.96,299.72 636.28,299.68 637.60,299.60 638.91,299.60 640.23,299.60 641.55,299.56 642.87,299.47 644.18,299.43 645.50,299.43 646.82,299.39 648.13,299.47 649.45,259.82 650.77,338.96 652.08,299.31 653.40,299.31 654.72,299.26 656.03,299.68 657.35,299.68 658.67,299.68 659.99,299.64 661.30,299.14 662.62,299.14 663.94,299.10 665.25,299.10 666.57,299.10 667.89,248.07 669.20,299.06 670.52,299.06 671.84,299.06 673.15,299.06 674.47,299.06 675.79,298.97 677.11,298.97 678.42,298.93 679.74,298.97 681.06,298.93 682.37,298.89 683.69,298.89 685.01,298.89 686.32,298.89 687.64,247.78 688.96,298.89 690.27,298.89 691.59,298.85 692.91,298.85 694.23,298.81 695.54,298.81 696.86,298.81 698.18,298.81 699.49,298.81 700.81,298.81 702.13,298.81 703.44,298.81 704.76,298.81 706.08,298.72 707.40,247.45 708.71,247.45 710.03,298.72 711.35,298.72 712.66,298.72 713.98,298.72 715.30,298.72 716.61,298.72 717.93,247.36 719.25,298.68 720.56,247.36 721.88,247.36 723.20,247.36 724.52,298.68 725.83,298.68 727.15,298.68 728.47,298.68 729.78,298.68 731.10,341.67 732.42,307.01 733.73,298.68 735.05,298.68 736.37,298.68 737.68,247.36 739.00,298.64 740.32,247.36 741.64,247.28 742.95,247.20 744.27,298.60 745.59,298.60 746.90,247.03 748.22,298.51 749.54,298.51 750.85,298.51 752.17,298.51 753.49,298.51 754.80,298.51 756.12,298.51 757.44,298.51 758.76,298.51 760.07,298.51 761.39,298.51 762.71,298.51 764.02,298.51 765.34,298.51 766.66,298.51 767.97,298.51 769.29,298.51 770.61,298.51 771.92,298.51 773.24,298.51 774.56,298.51 775.88,298.51 777.19,298.51 778.51,298.51 779.83,298.51 781.14,298.51 782.46,298.47 783.78,298.51 785.09,298.51 786.41,298.47 787.73,298.51 789.04,298.47 790.36,298.51 791.68,298.43 793.00,298.56 794.31,298.43 795.63,298.43 796.95,298.43 798.26,298.43 799.58,298.43 800.90,298.43 802.21,298.43 803.53,298.43 804.85,298.43 806.16,298.43 807.48,298.43 808.80,298.43 810.12,298.43 811.43,298.43 812.75,298.43 814.07,298.43 815.38,298.43 816.70,298.43 818.02,298.43 819.33,298.43 820.65,298.43 821.97,298.43 823.29,298.43 824.60,298.43 825.92,298.43 827.24,298.43 828.55,298.43 829.87,298.43 831.19,298.43 832.50,298.43 833.82,298.43 835.14,298.43 836.45,298.43 837.77,298.43 839.09,298.39 840.41,298.39 841.72,298.43 843.04,298.43 844.36,298.39 845.67,298.39 846.99,298.39 848.31,298.43 849.62,298.43 850.94,298.43 852.26,246.82 853.57,298.43 854.89,246.78 856.21,246.78 857.53,246.78 858.84,246.70 860.16,246.78 861.48,298.39 862.79,298.39 864.11,298.39 865.43,298.39 866.74,298.39 868.06,246.78 869.38,298.39 870.69,298.39 872.01,298.39 873.33,298.39 874.65,298.39 875.96,246.78 877.28,246.78 878.60,298.39 879.91,298.39 881.23,298.39 882.55,298.39 883.86,298.39 885.18,298.39 886.50,298.39 887.81,298.39 889.13,298.39 890.45,298.39 891.77,298.39 893.08,298.39 894.40,298.39 895.72,298.39 897.03,298.35 898.35,298.39 899.67,298.39 900.98,298.35 902.30,298.35 903.62,298.35 904.93,298.35 906.25,298.35 907.57,298.35 908.89,298.35 910.20,298.35 911.52,298.35 912.84,298.35 914.15,298.35 915.47,298.35 916.79,298.35 918.10,298.35 919.42,298.35 920.74,298.35 922.05,298.35 923.37,298.35 924.69,298.35 926.01,298.35 927.32,298.35 928.64,298.35 929.96,298.35 931.27,298.35 932.59,298.35 933.91,298.35 935.22,298.35 936.54,298.35 937.86,298.35 939.18,298.35 940.49,298.35 941.81,298.35 943.13,298.35 944.44,298.35 945.76,298.35 947.08,298.35 948.39,298.35 949.71,298.35 951.03,298.35 952.34,298.35 953.66,298.35 954.98,298.35 956.30,298.35 957.61,298.35 958.93,298.35 960.25,298.35 961.56,298.35 962.88,298.35 964.20,298.35 965.51,298.35 966.83,298.35 968.15,298.35 969.46,298.39 970.78,298.39 972.10,298.39 973.42,246.78 974.73,298.39 976.05,298.39 977.37,298.39 978.68,298.39 980.00,298.39"/>
  <circle cx="70.00" cy="50.00" r="2.5" fill="#2563eb"/>
  <circle cx="71.32" cy="50.12" r="2.5" fill="#2563eb"/>
  <circle cx="72.63" cy="50.17" r="2.5" fill="#2563eb"/>
  <circle cx="73.95" cy="50.46" r="2.5" fill="#2563eb"/>
  <circle cx="75.27" cy="50.00" r="2.5" fill="#2563eb"/>
  <circle cx="76.58" cy="266.90" r="2.5" fill="#2563eb"/>
  <circle cx="77.90" cy="50.12" r="2.5" fill="#2563eb"/>
  <circle cx="79.22" cy="50.08" r="2.5" fill="#2563eb"/>
  <circle cx="80.54" cy="177.46" r="2.5" fill="#2563eb"/>
  <circle cx="81.85" cy="211.58" r="2.5" fill="#2563eb"/>
  <circle cx="83.17" cy="175.34" r="2.5" fill="#2563eb"/>
  <circle cx="84.49" cy="304.14" r="2.5" fill="#2563eb"/>
  <circle cx="85.80" cy="200.46" r="2.5" fill="#2563eb"/>
  <circle cx="87.12" cy="250.94" r="2.5" fill="#2563eb"/>
  <circle cx="88.44" cy="300.01" r="2.5" fill="#2563eb"/>
  <circle cx="89.75" cy="300.06" r="2.5" fill="#2563eb"/>
  <circle cx="91.07" cy="300.01" r="2.5" fill="#2563eb"/>
  <circle cx="92.39" cy="300.01" r="2.5" fill="#2563eb"/>
  <circle cx="93.70" cy="348.00" r="2.5" fill="#2563eb"/>
  <circle cx="95.02" cy="300.01" r="2.5" fill="#2563eb"/>
  <circle cx="96.34" cy="249.99" r="2.5" fill="#2563eb"/>
  <circle cx="97.66" cy="200.00" r="2.5" fill="#2563eb"/>
  <circle cx="98.97" cy="249.99" r="2.5" fill="#2563eb"/>
  <circle cx="100.29" cy="249.99" r="2.5" fill="#2563eb"/>
  <circle cx="101.61" cy="250.03" r="2.5" fill="#2563eb"/>
  <circle cx="102.92" cy="250.03" r="2.5" fill="#2563eb"/>
  <circle cx="104.24" cy="250.03" r="2.5" fill="#2563eb"/>
  <circle cx="105.56" cy="250.40" r="2.5" fill="#2563eb"/>
  <circle cx="106.87" cy="250.90" r="2.5" fill="#2563eb"/>
  <circle cx="108.19" cy="250.90" r="2.5" fill="#2563eb"/>
  <circle cx="109.51" cy="251.32" r="2.5" fill="#2563eb"/>
  <circle cx="110.82" cy="249.94" r="2.5" fill="#2563eb"/>
  <circle cx="112.14" cy="300.01" r="2.5" fill="#2563eb"/>
  <circle cx="113.46" cy="299.93" r="2.5" fill="#2563eb"/>
  <circle cx="114.78" cy="251.03" r="2.5" fill="#2563eb"/>
  <circle cx="116.09" cy="300.68" r="2.5" fill="#2563eb"/>
  <circle cx="117.41" cy="250.03" r="2.5" fill="#2563eb"/>
  <circle cx="118.73" cy="200.00" r="2.5" fill="#2563eb"/>
  <circle cx="120.04" cy="249.99" r="2.5" fill="#2563eb"/>
  <circle cx="121.36" cy="250.03" r="2.5" fill="#2563eb"/>
  <circle cx="122.68" cy="250.03" r="2.5" fill="#2563eb"/>
  <circle cx="123.99" cy="250.03" r="2.5" fill="#2563eb"/>
  <circle cx="125.31" cy="300.01" r="2.5" fill="#2563eb"/>
  <circle cx="126.63" cy="200.04" r="2.5" fill="#2563eb"/>
  <circle cx="127.95" cy="250.03" r="2.5" fill="#2563eb"/>
  <circle cx="129.26" cy="250.03" r="2.5" fill="#2563eb"/>
  <circle cx="130.58" cy="250.03" r="2.5" fill="#2563eb"/>
  <circle cx="131.90" cy="249.90" r="2.5" fill="#2563eb"/>
  <circle cx="133.21" cy="250.03" r="2.5" fill="#2563eb"/>
  <circle cx="134.53" cy="250.03" r="2.5" fill="#2563eb"/>
  <circle cx="135.85" cy="250.94" r="2.5" fill="#2563eb"/>
  <circle cx="137.16" cy="250.44" r="2.5" fill="#2563eb"/>
  <circle cx="138.48" cy="250.03" r="2.5" fill="#2563eb"/>
  <circle cx="139.80" cy="250.03" r="2.5" fill="#2563eb"/>
  <circle cx="141.11" cy="300.47" r="2.5" fill="#2563eb"/>
  <circle cx="142.43" cy="300.01" r="2.5" fill="#2563eb"/>
  <circle cx="143.75" cy="300.43" r="2.5" fill="#2563eb"/>
  <circle cx="145.07" cy="250.03" r="2.5" fill="#2563eb"/>
  <circle cx="146.38" cy="249.99" r="2.5" fill="#2563eb"/>
  <circle cx="147.70" cy="300.43" r="2.5" fill="#2563eb"/>
  <circle cx="149.02" cy="249.90" r="2.5" fill="#2563eb"/>
  <circle cx="150.33" cy="249.99" r="2.5" fill="#2563eb"/>
  <circle cx="151.65" cy="249.99" r="2.5" fill="#2563eb"/>
  <circle cx="152.97" cy="200.04" r="2.5" fill="#2563eb"/>
  <circle cx="154.28" cy="300.01" r="2.5" fill="#2563eb"/>
  <circle cx="155.60" cy="300.01" r="2.5" fill="#2563eb"/>
  <circle cx="156.92" cy="300.01" r="2.5" fill="#2563eb"/>
  <circle cx="158.23" cy="249.90" r="2.5" fill="#2563eb"/>
  <circle cx="159.55" cy="300.01" r="2.5" fill="#2563eb"/>
  <circle cx="160.87" cy="250.03" r="2.5" fill="#2563eb"/>
  <circle cx="162.19" cy="249.99" r="2.5" fill="#2563eb"/>
  <circle cx="163.50" cy="199.96" r="2.5" fill="#2563eb"/>
  <circle cx="164.82" cy="300.01" r="2.5" fill="#2563eb"/>
  <circle cx="166.14" cy="200.00" r="2.5" fill="#2563eb"/>
  <circle cx="167.45" cy="250.36" r="2.5" fill="#2563eb"/>
  <circle cx="168.77" cy="250.03" r="2.5" fill="#2563eb"/>
  <circle cx="170.09" cy="300.01" r="2.5" fill="#2563eb"/>
  <circle cx="171.40" cy="300.01" r="2.5" fill="#2563eb"/>
  <circle cx="172.72" cy="250.44" r="2.5" fill="#2563eb"/>
  <circle cx="174.04" cy="300.01" r="2.5" fill="#2563eb"/>
  <circle cx="175.35" cy="250.03" r="2.5" fill="#2563eb"/>
  <circle cx="176.67" cy="250.03" r="2.5" fill="#2563eb"/>
  <circle cx="177.99" cy="249.99" r="2.5" fill="#2563eb"/>
  <circle cx="179.31" cy="250.49" r="2.5" fill="#2563eb"/>
  <circle cx="180.62" cy="250.03" r="2.5" fill="#2563eb"/>
  <circle cx="181.94" cy="200.04" r="2.5" fill="#2563eb"/>
  <circle cx="183.26" cy="300.01" r="2.5" fill="#2563eb"/>
  <circle cx="184.57" cy="250.03" r="2.5" fill="#2563eb"/>
  <circle cx="185.89" cy="300.01" r="2.5" fill="#2563eb"/>
  <circle cx="187.21" cy="250.11" r="2.5" fill="#2563eb"/>
  <circle cx="188.52" cy="300.01" r="2.5" fill="#2563eb"/>
  <circle cx="189.84" cy="250.03" r="2.5" fill="#2563eb"/>
  <circle cx="191.16" cy="250.03" r="2.5" fill="#2563eb"/>
  <circle cx="192.47" cy="199.92" r="2.5" fill="#2563eb"/>
  <circle cx="193.79" cy="250.03" r="2.5" fill="#2563eb"/>
  <circle cx="195.11" cy="250.03" r="2.5" fill="#2563eb"/>
  <circle cx="196.43" cy="250.03" r="2.5" fill="#2563eb"/>
  <circle cx="197.74" cy="254.36" r="2.5" fill="#2563eb"/>
  <circle cx="199.06" cy="300.01" r="2.5" fill="#2563eb"/>
  <circle cx="200.38" cy="299.97" r="2.5" fill="#2563eb"/>
  <circle cx="201.69" cy="250.36" r="2.5" fill="#2563eb"/>
  <circle cx="203.01" cy="299.97" r="2.5" fill="#2563eb"/>
  <circle cx="204.33" cy="250.03" r="2.5" fill="#2563eb"/>
  <circle cx="205.64" cy="250.03" r="2.5" fill="#2563eb"/>
  <circle cx="206.96" cy="250.03" r="2.5" fill="#2563eb"/>
  <circle cx="208.28" cy="250.03" r="2.5" fill="#2563eb"/>
  <circle cx="209.59" cy="249.99" r="2.5" fill="#2563eb"/>
  <circle cx="210.91" cy="200.00" r="2.5" fill="#2563eb"/>
  <circle cx="212.23" cy="299.93" r="2.5" fill="#2563eb"/>
  <circle cx="213.55" cy="300.01" r="2.5" fill="#2563eb"/>
  <circle cx="214.86" cy="299.97" r="2.5" fill="#2563eb"/>
  <circle cx="216.18" cy="249.94" r="2.5" fill="#2563eb"/>
  <circle cx="217.50" cy="249.99" r="2.5" fill="#2563eb"/>
  <circle cx="218.81" cy="249.82" r="2.5" fill="#2563eb"/>
  <circle cx="220.13" cy="249.94" r="2.5" fill="#2563eb"/>
  <circle cx="221.45" cy="250.28" r="2.5" fill="#2563eb"/>
  <circle cx="222.76" cy="207.00" r="2.5" fill="#2563eb"/>
  <circle cx="224.08" cy="250.03" r="2.5" fill="#2563eb"/>
  <circle cx="225.40" cy="250.32" r="2.5" fill="#2563eb"/>
  <circle cx="226.71" cy="250.40" r="2.5" fill="#2563eb"/>
  <circle cx="228.03" cy="300.93" r="2.5" fill="#2563eb"/>
  <circle cx="229.35" cy="300.01" r="2.5" fill="#2563eb"/>
  <circle cx="230.67" cy="300.10" r="2.5" fill="#2563eb"/>
  <circle cx="231.98" cy="249.94" r="2.5" fill="#2563eb"/>
  <circle cx="233.30" cy="249.99" r="2.5" fill="#2563eb"/>
  <circle cx="234.62" cy="250.07" r="2.5" fill="#2563eb"/>
  <circle cx="235.93" cy="249.99" r="2.5" fill="#2563eb"/>
  <circle cx="237.25" cy="250.03" r="2.5" fill="#2563eb"/>
  <circle cx="238.57" cy="249.94" r="2.5" fill="#2563eb"/>
  <circle cx="239.88" cy="200.00" r="2.5" fill="#2563eb"/>
  <circle cx="241.20" cy="300.39" r="2.5" fill="#2563eb"/>
  <circle cx="242.52" cy="300.01" r="2.5" fill="#2563eb"/>
  <circle cx="243.84" cy="300.01" r="2.5" fill="#2563eb"/>
  <circle cx="245.15" cy="250.44" r="2.5" fill="#2563eb"/>
  <circle cx="246.47" cy="300.39" r="2.5" fill="#2563eb"/>
  <circle cx="247.79" cy="249.86" r="2.5" fill="#2563eb"/>
  <circle cx="249.10" cy="250.11" r="2.5" fill="#2563eb"/>
  <circle cx="250.42" cy="201.46" r="2.5" fill="#2563eb"/>
  <circle cx="251.74" cy="300.01" r="2.5" fill="#2563eb"/>
  <circle cx="253.05" cy="200.83" r="2.5" fill="#2563eb"/>
  <circle cx="254.37" cy="250.03" r="2.5" fill="#2563eb"/>
  <circle cx="255.69" cy="249.99" r="2.5" fill="#2563eb"/>
  <circle cx="257.00" cy="300.26" r="2.5" fill="#2563eb"/>
  <circle cx="258.32" cy="300.01" r="2.5" fill="#2563eb"/>
  <circle cx="259.64" cy="300.01" r="2.5" fill="#2563eb"/>
  <circle cx="260.96" cy="250.03" r="2.5" fill="#2563eb"/>
  <circle cx="262.27" cy="250.03" r="2.5" fill="#2563eb"/>
  <circle cx="263.59" cy="250.03" r="2.5" fill="#2563eb"/>
  <circle cx="264.91" cy="250.03" r="2.5" fill="#2563eb"/>
  <circle cx="266.22" cy="249.99" r="2.5" fill="#2563eb"/>
  <circle cx="267.54" cy="250.03" r="2.5" fill="#2563eb"/>
  <circle cx="268.86" cy="200.00" r="2.5" fill="#2563eb"/>
  <circle cx="270.17" cy="300.26" r="2.5" fill="#2563eb"/>
  <circle cx="271.49" cy="249.99" r="2.5" fill="#2563eb"/>
  <circle cx="272.81" cy="300.01" r="2.5" fill="#2563eb"/>
  <circle cx="274.12" cy="249.94" r="2.5" fill="#2563eb"/>
  <circle cx="275.44" cy="250.03" r="2.5" fill="#2563eb"/>
  <circle cx="276.76" cy="250.03" r="2.5" fill="#2563eb"/>
  <circle cx="278.08" cy="250.03" r="2.5" fill="#2563eb"/>
  <circle cx="279.39" cy="200.04" r="2.5" fill="#2563eb"/>
  <circle cx="280.71" cy="300.01" r="2.5" fill="#2563eb"/>
  <circle cx="282.03" cy="249.90" r="2.5" fill="#2563eb"/>
  <circle cx="283.34" cy="300.01" r="2.5" fill="#2563eb"/>
  <circle cx="284.66" cy="300.01" r="2.5" fill="#2563eb"/>
  <circle cx="285.98" cy="300.06" r="2.5" fill="#2563eb"/>
  <circle cx="287.29" cy="300.01" r="2.5" fill="#2563eb"/>
  <circle cx="288.61" cy="300.01" r="2.5" fill="#2563eb"/>
  <circle cx="289.93" cy="243.95" r="2.5" fill="#2563eb"/>
  <circle cx="291.24" cy="249.94" r="2.5" fill="#2563eb"/>
  <circle cx="292.56" cy="299.97" r="2.5" fill="#2563eb"/>
  <circle cx="293.88" cy="300.01" r="2.5" fill="#2563eb"/>
  <circle cx="295.20" cy="300.01" r="2.5" fill="#2563eb"/>
  <circle cx="296.51" cy="250.03" r="2.5" fill="#2563eb"/>
  <circle cx="297.83" cy="300.01" r="2.5" fill="#2563eb"/>
  <circle cx="299.15" cy="300.01" r="2.5" fill="#2563eb"/>
  <circle cx="300.46" cy="299.97" r="2.5" fill="#2563eb"/>
  <circle cx="301.78" cy="249.99" r="2.5" fill="#2563eb"/>
  <circle cx="303.10" cy="300.01" r="2.5" fill="#2563eb"/>
  <circle cx="304.41" cy="299.93" r="2.5" fill="#2563eb"/>
  <circle cx="305.73" cy="300.01" r="2.5" fill="#2563eb"/>
  <circle cx="307.05" cy="299.93" r="2.5" fill="#2563eb"/>
  <circle cx="308.36" cy="300.01" r="2.5" fill="#2563eb"/>
  <circle cx="309.68" cy="300.01" r="2.5" fill="#2563eb"/>
  <circle cx="311.00" cy="299.89" r="2.5" fill="#2563eb"/>
  <circle cx="312.32" cy="299.97" r="2.5" fill="#2563eb"/>
  <circle cx="313.63" cy="250.03" r="2.5" fill="#2563eb"/>
  <circle cx="314.95" cy="299.93" r="2.5" fill="#2563eb"/>
  <circle cx="316.27" cy="299.89" r="2.5" fill="#2563eb"/>
  <circle cx="317.58" cy="299.97" r="2.5" fill="#2563eb"/>
  <circle cx="318.90" cy="249.94" r="2.5" fill="#2563eb"/>
  <circle cx="320.22" cy="300.01" r="2.5" fill="#2563eb"/>
  <circle cx="321.53" cy="300.01" r="2.5" fill="#2563eb"/>
  <circle cx="322.85" cy="299.97" r="2.5" fill="#2563eb"/>
  <circle cx="324.17" cy="249.99" r="2.5" fill="#2563eb"/>
  <circle cx="325.48" cy="299.97" r="2.5" fill="#2563eb"/>
  <circle cx="326.80" cy="299.97" r="2.5" fill="#2563eb"/>
  <circle cx="328.12" cy="300.06" r="2.5" fill="#2563eb"/>
  <circle cx="329.44" cy="300.06" r="2.5" fill="#2563eb"/>
  <circle cx="330.75" cy="299.93" r="2.5" fill="#2563eb"/>
  <circle cx="332.07" cy="300.01" r="2.5" fill="#2563eb"/>
  <circle cx="333.39" cy="300.01" r="2.5" fill="#2563eb"/>
  <circle cx="334.70" cy="299.93" r="2.5" fill="#2563eb"/>
  <circle cx="336.02" cy="300.01" r="2.5" fill="#2563eb"/>
  <circle cx="337.34" cy="300.01" r="2.5" fill="#2563eb"/>
  <circle cx="338.65" cy="299.97" r="2.5" fill="#2563eb"/>
  <circle cx="339.97" cy="300.01" r="2.5" fill="#2563eb"/>
  <circle cx="341.29" cy="300.01" r="2.5" fill="#2563eb"/>
  <circle cx="342.60" cy="300.01" r="2.5" fill="#2563eb"/>
  <circle cx="343.92" cy="300.01" r="2.5" fill="#2563eb"/>
  <circle cx="345.24" cy="249.86" r="2.5" fill="#2563eb"/>
  <circle cx="346.56" cy="300.01" r="2.5" fill="#2563eb"/>
  <circle cx="347.87" cy="300.10" r="2.5" fill="#2563eb"/>
  <circle cx="349.19" cy="299.93" r="2.5" fill="#2563eb"/>
  <circle cx="350.51" cy="300.01" r="2.5" fill="#2563eb"/>
  <circle cx="351.82" cy="299.93" r="2.5" fill="#2563eb"/>
  <circle cx="353.14" cy="300.01" r="2.5" fill="#2563eb"/>
  <circle cx="354.46" cy="300.01" r="2.5" fill="#2563eb"/>
  <circle cx="355.77" cy="300.01" r="2.5" fill="#2563eb"/>
  <circle cx="357.09" cy="300.01" r="2.5" fill="#2563eb"/>
  <circle cx="358.41" cy="300.01" r="2.5" fill="#2563eb"/>
  <circle cx="359.73" cy="299.97" r="2.5" fill="#2563eb"/>
  <circle cx="361.04" cy="300.01" r="2.5" fill="#2563eb"/>
  <circle cx="362.36" cy="300.01" r="2.5" fill="#2563eb"/>
  <circle cx="363.68" cy="300.01" r="2.5" fill="#2563eb"/>
  <circle cx="364.99" cy="300.01" r="2.5" fill="#2563eb"/>
  <circle cx="366.31" cy="250.03" r="2.5" fill="#2563eb"/>
  <circle cx="367.63" cy="300.01" r="2.5" fill="#2563eb"/>
  <circle cx="368.94" cy="300.01" r="2.5" fill="#2563eb"/>
  <circle cx="370.26" cy="299.97" r="2.5" fill="#2563eb"/>
  <circle cx="371.58" cy="300.01" r="2.5" fill="#2563eb"/>
  <circle cx="372.89" cy="300.01" r="2.5" fill="#2563eb"/>
  <circle cx="374.21" cy="299.97" r="2.5" fill="#2563eb"/>
  <circle cx="375.53" cy="299.97" r="2.5" fill="#2563eb"/>
  <circle cx="376.85" cy="300.01" r="2.5" fill="#2563eb"/>
  <circle cx="378.16" cy="299.97" r="2.5" fill="#2563eb"/>
  <circle cx="379.48" cy="300.01" r="2.5" fill="#2563eb"/>
  <circle cx="380.80" cy="299.93" r="2.5" fill="#2563eb"/>
  <circle cx="382.11" cy="300.01" r="2.5" fill="#2563eb"/>
  <circle cx="383.43" cy="250.03" r="2.5" fill="#2563eb"/>
  <circle cx="384.75" cy="300.01" r="2.5" fill="#2563eb"/>
  <circle cx="386.06" cy="300.01" r="2.5" fill="#2563eb"/>
  <circle cx="387.38" cy="300.01" r="2.5" fill="#2563eb"/>
  <circle cx="388.70" cy="300.01" r="2.5" fill="#2563eb"/>
  <circle cx="390.01" cy="300.01" r="2.5" fill="#2563eb"/>
  <circle cx="391.33" cy="299.89" r="2.5" fill="#2563eb"/>
  <circle cx="392.65" cy="300.01" r="2.5" fill="#2563eb"/>
  <circle cx="393.97" cy="300.01" r="2.5" fill="#2563eb"/>
  <circle cx="395.28" cy="250.07" r="2.5" fill="#2563eb"/>
  <circle cx="396.60" cy="300.01" r="2.5" fill="#2563eb"/>
  <circle cx="397.92" cy="299.93" r="2.5" fill="#2563eb"/>
  <circle cx="399.23" cy="300.01" r="2.5" fill="#2563eb"/>
  <circle cx="400.55" cy="299.97" r="2.5" fill="#2563eb"/>
  <circle cx="401.87" cy="299.97" r="2.5" fill="#2563eb"/>
  <circle cx="403.18" cy="299.97" r="2.5" fill="#2563eb"/>
  <circle cx="404.50" cy="250.03" r="2.5" fill="#2563eb"/>
  <circle cx="405.82" cy="300.01" r="2.5" fill="#2563eb"/>
  <circle cx="407.13" cy="300.01" r="2.5" fill="#2563eb"/>
  <circle cx="408.45" cy="300.01" r="2.5" fill="#2563eb"/>
  <circle cx="409.77" cy="300.01" r="2.5" fill="#2563eb"/>
  <circle cx="411.09" cy="299.97" r="2.5" fill="#2563eb"/>
  <circle cx="412.40" cy="300.01" r="2.5" fill="#2563eb"/>
  <circle cx="413.72" cy="299.97" r="2.5" fill="#2563eb"/>
  <circle cx="415.04" cy="300.01" r="2.5" fill="#2563eb"/>
  <circle cx="416.35" cy="299.97" r="2.5" fill="#2563eb"/>
  <circle cx="417.67" cy="249.90" r="2.5" fill="#2563eb"/>
  <circle cx="418.99" cy="300.01" r="2.5" fill="#2563eb"/>
  <circle cx="420.30" cy="300.01" r="2.5" fill="#2563eb"/>
  <circle cx="421.62" cy="299.89" r="2.5" fill="#2563eb"/>
  <circle cx="422.94" cy="299.97" r="2.5" fill="#2563eb"/>
  <circle cx="424.25" cy="299.97" r="2.5" fill="#2563eb"/>
  <circle cx="425.57" cy="249.99" r="2.5" fill="#2563eb"/>
  <circle cx="426.89" cy="299.97" r="2.5" fill="#2563eb"/>
  <circle cx="428.21" cy="299.89" r="2.5" fill="#2563eb"/>
  <circle cx="429.52" cy="300.01" r="2.5" fill="#2563eb"/>
  <circle cx="430.84" cy="299.97" r="2.5" fill="#2563eb"/>
  <circle cx="432.16" cy="299.97" r="2.5" fill="#2563eb"/>
  <circle cx="433.47" cy="300.01" r="2.5" fill="#2563eb"/>
  <circle cx="434.79" cy="299.97" r="2.5" fill="#2563eb"/>
  <circle cx="436.11" cy="249.99" r="2.5" fill="#2563eb"/>
  <circle cx="437.42" cy="299.97" r="2.5" fill="#2563eb"/>
  <circle cx="438.74" cy="299.97" r="2.5" fill="#2563eb"/>
  <circle cx="440.06" cy="300.06" r="2.5" fill="#2563eb"/>
  <circle cx="441.37" cy="300.06" r="2.5" fill="#2563eb"/>
  <circle cx="442.69" cy="249.94" r="2.5" fill="#2563eb"/>
  <circle cx="444.01" cy="300.01" r="2.5" fill="#2563eb"/>
  <circle cx="445.33" cy="299.93" r="2.5" fill="#2563eb"/>
  <circle cx="446.64" cy="300.01" r="2.5" fill="#2563eb"/>
  <circle cx="447.96" cy="300.01" r="2.5" fill="#2563eb"/>
  <circle cx="449.28" cy="249.99" r="2.5" fill="#2563eb"/>
  <circle cx="450.59" cy="300.01" r="2.5" fill="#2563eb"/>
  <circle cx="451.91" cy="300.01" r="2.5" fill="#2563eb"/>
  <circle cx="453.23" cy="300.01" r="2.5" fill="#2563eb"/>
  <circle cx="454.54" cy="299.93" r="2.5" fill="#2563eb"/>
  <circle cx="455.86" cy="299.93" r="2.5" fill="#2563eb"/>
  <circle cx="457.18" cy="300.01" r="2.5" fill="#2563eb"/>
  <circle cx="458.49" cy="300.01" r="2.5" fill="#2563eb"/>
  <circle cx="459.81" cy="249.94" r="2.5" fill="#2563eb"/>
  <circle cx="461.13" cy="299.97" r="2.5" fill="#2563eb"/>
  <circle cx="462.45" cy="299.97" r="2.5" fill="#2563eb"/>
  <circle cx="463.76" cy="300.01" r="2.5" fill="#2563eb"/>
  <circle cx="465.08" cy="300.01" r="2.5" fill="#2563eb"/>
  <circle cx="466.40" cy="300.01" r="2.5" fill="#2563eb"/>
  <circle cx="467.71" cy="249.99" r="2.5" fill="#2563eb"/>
  <circle cx="469.03" cy="300.01" r="2.5" fill="#2563eb"/>
  <circle cx="470.35" cy="300.01" r="2.5" fill="#2563eb"/>
  <circle cx="471.66" cy="300.01" r="2.5" fill="#2563eb"/>
  <circle cx="472.98" cy="250.03" r="2.5" fill="#2563eb"/>
  <circle cx="474.30" cy="300.01" r="2.5" fill="#2563eb"/>
  <circle cx="475.62" cy="300.01" r="2.5" fill="#2563eb"/>
  <circle cx="476.93" cy="300.01" r="2.5" fill="#2563eb"/>
  <circle cx="478.25" cy="299.97" r="2.5" fill="#2563eb"/>
  <circle cx="479.57" cy="300.01" r="2.5" fill="#2563eb"/>
  <circle cx="480.88" cy="300.01" r="2.5" fill="#2563eb"/>
  <circle cx="482.20" cy="299.97" r="2.5" fill="#2563eb"/>
  <circle cx="483.52" cy="299.97" r="2.5" fill="#2563eb"/>
  <circle cx="484.83" cy="300.01" r="2.5" fill="#2563eb"/>
  <circle cx="486.15" cy="300.01" r="2.5" fill="#2563eb"/>
  <circle cx="487.47" cy="299.97" r="2.5" fill="#2563eb"/>
  <circle cx="488.78" cy="299.93" r="2.5" fill="#2563eb"/>
  <circle cx="490.10" cy="300.01" r="2.5" fill="#2563eb"/>
  <circle cx="491.42" cy="300.06" r="2.5" fill="#2563eb"/>
  <circle cx="492.74" cy="299.97" r="2.5" fill="#2563eb"/>
  <circle cx="494.05" cy="300.01" r="2.5" fill="#2563eb"/>
  <circle cx="495.37" cy="250.03" r="2.5" fill="#2563eb"/>
  <circle cx="496.69" cy="250.03" r="2.5" fill="#2563eb"/>
  <circle cx="498.00" cy="299.93" r="2.5" fill="#2563eb"/>
  <circle cx="499.32" cy="299.97" r="2.5" fill="#2563eb"/>
  <circle cx="500.64" cy="300.01" r="2.5" fill="#2563eb"/>
  <circle cx="501.95" cy="300.01" r="2.5" fill="#2563eb"/>
  <circle cx="503.27" cy="300.06" r="2.5" fill="#2563eb"/>
  <circle cx="504.59" cy="300.01" r="2.5" fill="#2563eb"/>
  <circle cx="505.90" cy="299.93" r="2.5" fill="#2563eb"/>
  <circle cx="507.22" cy="300.01" r="2.5" fill="#2563eb"/>
  <circle cx="508.54" cy="300.01" r="2.5" fill="#2563eb"/>
  <circle cx="509.86" cy="299.97" r="2.5" fill="#2563eb"/>
  <circle cx="511.17" cy="299.97" r="2.5" fill="#2563eb"/>
  <circle cx="512.49" cy="300.01" r="2.5" fill="#2563eb"/>
  <circle cx="513.81" cy="250.03" r="2.5" fill="#2563eb"/>
  <circle cx="515.12" cy="300.01" r="2.5" fill="#2563eb"/>
  <circle cx="516.44" cy="300.01" r="2.5" fill="#2563eb"/>
  <circle cx="517.76" cy="300.01" r="2.5" fill="#2563eb"/>
  <circle cx="519.07" cy="299.97" r="2.5" fill="#2563eb"/>
  <circle cx="520.39" cy="300.01" r="2.5" fill="#2563eb"/>
  <circle cx="521.71" cy="299.97" r="2.5" fill="#2563eb"/>
  <circle cx="523.02" cy="300.01" r="2.5" fill="#2563eb"/>
  <circle cx="524.34" cy="299.97" r="2.5" fill="#2563eb"/>
  <circle cx="525.66" cy="299.97" r="2.5" fill="#2563eb"/>
  <circle cx="526.98" cy="299.93" r="2.5" fill="#2563eb"/>
  <circle cx="528.29" cy="300.01" r="2.5" fill="#2563eb"/>
  <circle cx="529.61" cy="300.01" r="2.5" fill="#2563eb"/>
  <circle cx="530.93" cy="299.89" r="2.5" fill="#2563eb"/>
  <circle cx="532.24" cy="299.97" r="2.5" fill="#2563eb"/>
  <circle cx="533.56" cy="299.97" r="2.5" fill="#2563eb"/>
  <circle cx="534.88" cy="300.06" r="2.5" fill="#2563eb"/>
  <circle cx="536.19" cy="249.90" r="2.5" fill="#2563eb"/>
  <circle cx="537.51" cy="299.89" r="2.5" fill="#2563eb"/>
  <circle cx="538.83" cy="300.01" r="2.5" fill="#2563eb"/>
  <circle cx="540.14" cy="299.97" r="2.5" fill="#2563eb"/>
  <circle cx="541.46" cy="299.97" r="2.5" fill="#2563eb"/>
  <circle cx="542.78" cy="299.97" r="2.5" fill="#2563eb"/>
  <circle cx="544.10" cy="300.01" r="2.5" fill="#2563eb"/>
  <circle cx="545.41" cy="300.01" r="2.5" fill="#2563eb"/>
  <circle cx="546.73" cy="299.97" r="2.5" fill="#2563eb"/>
  <circle cx="548.05" cy="299.97" r="2.5" fill="#2563eb"/>
  <circle cx="549.36" cy="299.97" r="2.5" fill="#2563eb"/>
  <circle cx="550.68" cy="250.03" r="2.5" fill="#2563eb"/>
  <circle cx="552.00" cy="299.93" r="2.5" fill="#2563eb"/>
  <circle cx="553.31" cy="300.01" r="2.5" fill="#2563eb"/>
  <circle cx="554.63" cy="300.01" r="2.5" fill="#2563eb"/>
  <circle cx="555.95" cy="299.93" r="2.5" fill="#2563eb"/>
  <circle cx="557.26" cy="300.01" r="2.5" fill="#2563eb"/>
  <circle cx="558.58" cy="300.01" r="2.5" fill="#2563eb"/>
  <circle cx="559.90" cy="299.97" r="2.5" fill="#2563eb"/>
  <circle cx="561.22" cy="300.01" r="2.5" fill="#2563eb"/>
  <circle cx="562.53" cy="300.01" r="2.5" fill="#2563eb"/>
  <circle cx="563.85" cy="300.06" r="2.5" fill="#2563eb"/>
  <circle cx="565.17" cy="300.01" r="2.5" fill="#2563eb"/>
  <circle cx="566.48" cy="299.97" r="2.5" fill="#2563eb"/>
  <circle cx="567.80" cy="299.89" r="2.5" fill="#2563eb"/>
  <circle cx="569.12" cy="300.01" r="2.5" fill="#2563eb"/>
  <circle cx="570.43" cy="300.01" r="2.5" fill="#2563eb"/>
  <circle cx="571.75" cy="249.94" r="2.5" fill="#2563eb"/>
  <circle cx="573.07" cy="249.94" r="2.5" fill="#2563eb"/>
  <circle cx="574.38" cy="300.01" r="2.5" fill="#2563eb"/>
  <circle cx="575.70" cy="300.01" r="2.5" fill="#2563eb"/>
  <circle cx="577.02" cy="300.01" r="2.5" fill="#2563eb"/>
  <circle cx="578.34" cy="300.01" r="2.5" fill="#2563eb"/>
  <circle cx="579.65" cy="299.97" r="2.5" fill="#2563eb"/>
  <circle cx="580.97" cy="250.03" r="2.5" fill="#2563eb"/>
  <circle cx="582.29" cy="300.01" r="2.5" fill="#2563eb"/>
  <circle cx="583.60" cy="300.01" r="2.5" fill="#2563eb"/>
  <circle cx="584.92" cy="300.01" r="2.5" fill="#2563eb"/>
  <circle cx="586.24" cy="300.01" r="2.5" fill="#2563eb"/>
  <circle cx="587.55" cy="250.03" r="2.5" fill="#2563eb"/>
  <circle cx="588.87" cy="249.99" r="2.5" fill="#2563eb"/>
  <circle cx="590.19" cy="300.01" r="2.5" fill="#2563eb"/>
  <circle cx="591.51" cy="299.97" r="2.5" fill="#2563eb"/>
  <circle cx="592.82" cy="300.01" r="2.5" fill="#2563eb"/>
  <circle cx="594.14" cy="299.97" r="2.5" fill="#2563eb"/>
  <circle cx="595.46" cy="300.01" r="2.5" fill="#2563eb"/>
  <circle cx="596.77" cy="299.97" r="2.5" fill="#2563eb"/>
  <circle cx="598.09" cy="299.97" r="2.5" fill="#2563eb"/>
  <circle cx="599.41" cy="299.97" r="2.5" fill="#2563eb"/>
  <circle cx="600.72" cy="300.06" r="2.5" fill="#2563eb"/>
  <circle cx="602.04" cy="249.99" r="2.5" fill="#2563eb"/>
  <circle cx="603.36" cy="300.01" r="2.5" fill="#2563eb"/>
  <circle cx="604.67" cy="250.03" r="2.5" fill="#2563eb"/>
  <circle cx="605.99" cy="249.94" r="2.5" fill="#2563eb"/>
  <circle cx="607.31" cy="249.99" r="2.5" fill="#2563eb"/>
  <circle cx="608.63" cy="300.01" r="2.5" fill="#2563eb"/>
  <circle cx="609.94" cy="300.06" r="2.5" fill="#2563eb"/>
  <circle cx="611.26" cy="300.01" r="2.5" fill="#2563eb"/>
  <circle cx="612.58" cy="299.97" r="2.5" fill="#2563eb"/>
  <circle cx="613.89" cy="299.97" r="2.5" fill="#2563eb"/>
  <circle cx="615.21" cy="300.01" r="2.5" fill="#2563eb"/>
  <circle cx="616.53" cy="299.93" r="2.5" fill="#2563eb"/>
  <circle cx="617.84" cy="299.89" r="2.5" fill="#2563eb"/>
  <circle cx="619.16" cy="299.89" r="2.5" fill="#2563eb"/>
  <circle cx="620.48" cy="299.89" r="2.5" fill="#2563eb"/>
  <circle cx="621.79" cy="299.89" r="2.5" fill="#2563eb"/>
  <circle cx="623.11" cy="299.85" r="2.5" fill="#2563eb"/>
  <circle cx="624.43" cy="299.85" r="2.5" fill="#2563eb"/>
  <circle cx="625.75" cy="299.89" r="2.5" fill="#2563eb"/>
  <circle cx="627.06" cy="299.81" r="2.5" fill="#2563eb"/>
  <circle cx="628.38" cy="299.81" r="2.5" fill="#2563eb"/>
  <circle cx="629.70" cy="299.81" r="2.5" fill="#2563eb"/>
  <circle cx="631.01" cy="299.76" r="2.5" fill="#2563eb"/>
  <circle cx="632.33" cy="299.76" r="2.5" fill="#2563eb"/>
  <circle cx="633.65" cy="299.76" r="2.5" fill="#2563eb"/>
  <circle cx="634.96" cy="299.72" r="2.5" fill="#2563eb"/>
  <circle cx="636.28" cy="299.68" r="2.5" fill="#2563eb"/>
  <circle cx="637.60" cy="299.60" r="2.5" fill="#2563eb"/>
  <circle cx="638.91" cy="299.60" r="2.5" fill="#2563eb"/>
  <circle cx="640.23" cy="299.60" r="2.5" fill="#2563eb"/>
  <circle cx="641.55" cy="299.56" r="2.5" fill="#2563eb"/>
  <circle cx="642.87" cy="299.47" r="2.5" fill="#2563eb"/>
  <circle cx="644.18" cy="299.43" r="2.5" fill="#2563eb"/>
  <circle cx="645.50" cy="299.43" r="2.5" fill="#2563eb"/>
  <circle cx="646.82" cy="299.39" r="2.5" fill="#2563eb"/>
  <circle cx="648.13" cy="299.47" r="2.5" fill="#2563eb"/>
  <circle cx="649.45" cy="259.82" r="2.5" fill="#2563eb"/>
  <circle cx="650.77" cy="338.96" r="2.5" fill="#2563eb"/>
  <circle cx="652.08" cy="299.31" r="2.5" fill="#2563eb"/>
  <circle cx="653.40" cy="299.31" r="2.5" fill="#2563eb"/>
  <circle cx="654.72" cy="299.26" r="2.5" fill="#2563eb"/>
  <circle cx="656.03" cy="299.68" r="2.5" fill="#2563eb"/>
  <circle cx="657.35" cy="299.68" r="2.5" fill="#2563eb"/>
  <circle cx="658.67" cy="299.68" r="2.5" fill="#2563eb"/>
  <circle cx="659.99" cy="299.64" r="2.5" fill="#2563eb"/>
  <circle cx="661.30" cy="299.14" r="2.5" fill="#2563eb"/>
  <circle cx="662.62" cy="299.14" r="2.5" fill="#2563eb"/>
  <circle cx="663.94" cy="299.10" r="2.5" fill="#2563eb"/>
  <circle cx="665.25" cy="299.10" r="2.5" fill="#2563eb"/>
  <circle cx="666.57" cy="299.10" r="2.5" fill="#2563eb"/>
  <circle cx="667.89" cy="248.07" r="2.5" fill="#2563eb"/>
  <circle cx="669.20" cy="299.06" r="2.5" fill="#2563eb"/>
  <circle cx="670.52" cy="299.06" r="2.5" fill="#2563eb"/>
  <circle cx="671.84" cy="299.06" r="2.5" fill="#2563eb"/>
  <circle cx="673.15" cy="299.06" r="2.5" fill="#2563eb"/>
  <circle cx="674.47" cy="299.06" r="2.5" fill="#2563eb"/>
  <circle cx="675.79" cy="298.97" r="2.5" fill="#2563eb"/>
  <circle cx="677.11" cy="298.97" r="2.5" fill="#2563eb"/>
  <circle cx="678.42" cy="298.93" r="2.5" fill="#2563eb"/>
  <circle cx="679.74" cy="298.97" r="2.5" fill="#2563eb"/>
  <circle cx="681.06" cy="298.93" r="2.5" fill="#2563eb"/>
  <circle cx="682.37" cy="298.89" r="2.5" fill="#2563eb"/>
  <circle cx="683.69" cy="298.89" r="2.5" fill="#2563eb"/>
  <circle cx="685.01" cy="298.89" r="2.5" fill="#2563eb"/>
  <circle cx="686.32" cy="298.89" r="2.5" fill="#2563eb"/>
  <circle cx="687.64" cy="247.78" r="2.5" fill="#2563eb"/>
  <circle cx="688.96" cy="298.89" r="2.5" fill="#2563eb"/>
  <circle cx="690.27" cy="298.89" r="2.5" fill="#2563eb"/>
  <circle cx="691.59" cy="298.85" r="2.5" fill="#2563eb"/>
  <circle cx="692.91" cy="298.85" r="2.5" fill="#2563eb"/>
  <circle cx="694.23" cy="298.81" r="2.5" fill="#2563eb"/>
  <circle cx="695.54" cy="298.81" r="2.5" fill="#2563eb"/>
  <circle cx="696.86" cy="298.81" r="2.5" fill="#2563eb"/>
  <circle cx="698.18" cy="298.81" r="2.5" fill="#2563eb"/>
  <circle cx="699.49" cy="298.81" r="2.5" fill="#2563eb"/>
  <circle cx="700.81" cy="298.81" r="2.5" fill="#2563eb"/>
  <circle cx="702.13" cy="298.81" r="2.5" fill="#2563eb"/>
  <circle cx="703.44" cy="298.81" r="2.5" fill="#2563eb"/>
  <circle cx="704.76" cy="298.81" r="2.5" fill="#2563eb"/>
  <circle cx="706.08" cy="298.72" r="2.5" fill="#2563eb"/>
  <circle cx="707.40" cy="247.45" r="2.5" fill="#2563eb"/>
  <circle cx="708.71" cy="247.45" r="2.5" fill="#2563eb"/>
  <circle cx="710.03" cy="298.72" r="2.5" fill="#2563eb"/>
  <circle cx="711.35" cy="298.72" r="2.5" fill="#2563eb"/>
  <circle cx="712.66" cy="298.72" r="2.5" fill="#2563eb"/>
  <circle cx="713.98" cy="298.72" r="2.5" fill="#2563eb"/>
  <circle cx="715.30" cy="298.72" r="2.5" fill="#2563eb"/>
  <circle cx="716.61" cy="298.72" r="2.5" fill="#2563eb"/>
  <circle cx="717.93" cy="247.36" r="2.5" fill="#2563eb"/>
  <circle cx="719.25" cy="298.68" r="2.5" fill="#2563eb"/>
  <circle cx="720.56" cy="247.36" r="2.5" fill="#2563eb"/>
  <circle cx="721.88" cy="247.36" r="2.5" fill="#2563eb"/>
  <circle cx="723.20" cy="247.36" r="2.5" fill="#2563eb"/>
  <circle cx="724.52" cy="298.68" r="2.5" fill="#2563eb"/>
  <circle cx="725.83" cy="298.68" r="2.5" fill="#2563eb"/>
  <circle cx="727.15" cy="298.68" r="2.5" fill="#2563eb"/>
  <circle cx="728.47" cy="298.68" r="2.5" fill="#2563eb"/>
  <circle cx="729.78" cy="298.68" r="2.5" fill="#2563eb"/>
  <circle cx="731.10" cy="341.67" r="2.5" fill="#2563eb"/>
  <circle cx="732.42" cy="307.01" r="2.5" fill="#2563eb"/>
  <circle cx="733.73" cy="298.68" r="2.5" fill="#2563eb"/>
  <circle cx="735.05" cy="298.68" r="2.5" fill="#2563eb"/>
  <circle cx="736.37" cy="298.68" r="2.5" fill="#2563eb"/>
  <circle cx="737.68" cy="247.36" r="2.5" fill="#2563eb"/>
  <circle cx="739.00" cy="298.64" r="2.5" fill="#2563eb"/>
  <circle cx="740.32" cy="247.36" r="2.5" fill="#2563eb"/>
  <circle cx="741.64" cy="247.28" r="2.5" fill="#2563eb"/>
  <circle cx="742.95" cy="247.20" r="2.5" fill="#2563eb"/>
  <circle cx="744.27" cy="298.60" r="2.5" fill="#2563eb"/>
  <circle cx="745.59" cy="298.60" r="2.5" fill="#2563eb"/>
  <circle cx="746.90" cy="247.03" r="2.5" fill="#2563eb"/>
  <circle cx="748.22" cy="298.51" r="2.5" fill="#2563eb"/>
  <circle cx="749.54" cy="298.51" r="2.5" fill="#2563eb"/>
  <circle cx="750.85" cy="298.51" r="2.5" fill="#2563eb"/>
  <circle cx="752.17" cy="298.51" r="2.5" fill="#2563eb"/>
  <circle cx="753.49" cy="298.51" r="2.5" fill="#2563eb"/>
  <circle cx="754.80" cy="298.51" r="2.5" fill="#2563eb"/>
  <circle cx="756.12" cy="298.51" r="2.5" fill="#2563eb"/>
  <circle cx="757.44" cy="298.51" r="2.5" fill="#2563eb"/>
  <circle cx="758.76" cy="298.51" r="2.5" fill="#2563eb"/>
  <circle cx="760.07" cy="298.51" r="2.5" fill="#2563eb"/>
  <circle cx="761.39" cy="298.51" r="2.5" fill="#2563eb"/>
  <circle cx="762.71" cy="298.51" r="2.5" fill="#2563eb"/>
  <circle cx="764.02" cy="298.51" r="2.5" fill="#2563eb"/>
  <circle cx="765.34" cy="298.51" r="2.5" fill="#2563eb"/>
  <circle cx="766.66" cy="298.51" r="2.5" fill="#2563eb"/>
  <circle cx="767.97" cy="298.51" r="2.5" fill="#2563eb"/>
  <circle cx="769.29" cy="298.51" r="2.5" fill="#2563eb"/>
  <circle cx="770.61" cy="298.51" r="2.5" fill="#2563eb"/>
  <circle cx="771.92" cy="298.51" r="2.5" fill="#2563eb"/>
  <circle cx="773.24" cy="298.51" r="2.5" fill="#2563eb"/>
  <circle cx="774.56" cy="298.51" r="2.5" fill="#2563eb"/>
  <circle cx="775.88" cy="298.51" r="2.5" fill="#2563eb"/>
  <circle cx="777.19" cy="298.51" r="2.5" fill="#2563eb"/>
  <circle cx="778.51" cy="298.51" r="2.5" fill="#2563eb"/>
  <circle cx="779.83" cy="298.51" r="2.5" fill="#2563eb"/>
  <circle cx="781.14" cy="298.51" r="2.5" fill="#2563eb"/>
  <circle cx="782.46" cy="298.47" r="2.5" fill="#2563eb"/>
  <circle cx="783.78" cy="298.51" r="2.5" fill="#2563eb"/>
  <circle cx="785.09" cy="298.51" r="2.5" fill="#2563eb"/>
  <circle cx="786.41" cy="298.47" r="2.5" fill="#2563eb"/>
  <circle cx="787.73" cy="298.51" r="2.5" fill="#2563eb"/>
  <circle cx="789.04" cy="298.47" r="2.5" fill="#2563eb"/>
  <circle cx="790.36" cy="298.51" r="2.5" fill="#2563eb"/>
  <circle cx="791.68" cy="298.43" r="2.5" fill="#2563eb"/>
  <circle cx="793.00" cy="298.56" r="2.5" fill="#2563eb"/>
  <circle cx="794.31" cy="298.43" r="2.5" fill="#2563eb"/>
  <circle cx="795.63" cy="298.43" r="2.5" fill="#2563eb"/>
  <circle cx="796.95" cy="298.43" r="2.5" fill="#2563eb"/>
  <circle cx="798.26" cy="298.43" r="2.5" fill="#2563eb"/>
  <circle cx="799.58" cy="298.43" r="2.5" fill="#2563eb"/>
  <circle cx="800.90" cy="298.43" r="2.5" fill="#2563eb"/>
  <circle cx="802.21" cy="298.43" r="2.5" fill="#2563eb"/>
  <circle cx="803.53" cy="298.43" r="2.5" fill="#2563eb"/>
  <circle cx="804.85" cy="298.43" r="2.5" fill="#2563eb"/>
  <circle cx="806.16" cy="298.43" r="2.5" fill="#2563eb"/>
  <circle cx="807.48" cy="298.43" r="2.5" fill="#2563eb"/>
  <circle cx="808.80" cy="298.43" r="2.5" fill="#2563eb"/>
  <circle cx="810.12" cy="298.43" r="2.5" fill="#2563eb"/>
  <circle cx="811.43" cy="298.43" r="2.5" fill="#2563eb"/>
  <circle cx="812.75" cy="298.43" r="2.5" fill="#2563eb"/>
  <circle cx="814.07" cy="298.43" r="2.5" fill="#2563eb"/>
  <circle cx="815.38" cy="298.43" r="2.5" fill="#2563eb"/>
  <circle cx="816.70" cy="298.43" r="2.5" fill="#2563eb"/>
  <circle cx="818.02" cy="298.43" r="2.5" fill="#2563eb"/>
  <circle cx="819.33" cy="298.43" r="2.5" fill="#2563eb"/>
  <circle cx="820.65" cy="298.43" r="2.5" fill="#2563eb"/>
  <circle cx="821.97" cy="298.43" r="2.5" fill="#2563eb"/>
  <circle cx="823.29" cy="298.43" r="2.5" fill="#2563eb"/>
  <circle cx="824.60" cy="298.43" r="2.5" fill="#2563eb"/>
  <circle cx="825.92" cy="298.43" r="2.5" fill="#2563eb"/>
  <circle cx="827.24" cy="298.43" r="2.5" fill="#2563eb"/>
  <circle cx="828.55" cy="298.43" r="2.5" fill="#2563eb"/>
  <circle cx="829.87" cy="298.43" r="2.5" fill="#2563eb"/>
  <circle cx="831.19" cy="298.43" r="2.5" fill="#2563eb"/>
  <circle cx="832.50" cy="298.43" r="2.5" fill="#2563eb"/>
  <circle cx="833.82" cy="298.43" r="2.5" fill="#2563eb"/>
  <circle cx="835.14" cy="298.43" r="2.5" fill="#2563eb"/>
  <circle cx="836.45" cy="298.43" r="2.5" fill="#2563eb"/>
  <circle cx="837.77" cy="298.43" r="2.5" fill="#2563eb"/>
  <circle cx="839.09" cy="298.39" r="2.5" fill="#2563eb"/>
  <circle cx="840.41" cy="298.39" r="2.5" fill="#2563eb"/>
  <circle cx="841.72" cy="298.43" r="2.5" fill="#2563eb"/>
  <circle cx="843.04" cy="298.43" r="2.5" fill="#2563eb"/>
  <circle cx="844.36" cy="298.39" r="2.5" fill="#2563eb"/>
  <circle cx="845.67" cy="298.39" r="2.5" fill="#2563eb"/>
  <circle cx="846.99" cy="298.39" r="2.5" fill="#2563eb"/>
  <circle cx="848.31" cy="298.43" r="2.5" fill="#2563eb"/>
  <circle cx="849.62" cy="298.43" r="2.5" fill="#2563eb"/>
  <circle cx="850.94" cy="298.43" r="2.5" fill="#2563eb"/>
  <circle cx="852.26" cy="246.82" r="2.5" fill="#2563eb"/>
  <circle cx="853.57" cy="298.43" r="2.5" fill="#2563eb"/>
  <circle cx="854.89" cy="246.78" r="2.5" fill="#2563eb"/>
  <circle cx="856.21" cy="246.78" r="2.5" fill="#2563eb"/>
  <circle cx="857.53" cy="246.78" r="2.5" fill="#2563eb"/>
  <circle cx="858.84" cy="246.70" r="2.5" fill="#2563eb"/>
  <circle cx="860.16" cy="246.78" r="2.5" fill="#2563eb"/>
  <circle cx="861.48" cy="298.39" r="2.5" fill="#2563eb"/>
  <circle cx="862.79" cy="298.39" r="2.5" fill="#2563eb"/>
  <circle cx="864.11" cy="298.39" r="2.5" fill="#2563eb"/>
  <circle cx="865.43" cy="298.39" r="2.5" fill="#2563eb"/>
  <circle cx="866.74" cy="298.39" r="2.5" fill="#2563eb"/>
  <circle cx="868.06" cy="246.78" r="2.5" fill="#2563eb"/>
  <circle cx="869.38" cy="298.39" r="2.5" fill="#2563eb"/>
  <circle cx="870.69" cy="298.39" r="2.5" fill="#2563eb"/>
  <circle cx="872.01" cy="298.39" r="2.5" fill="#2563eb"/>
  <circle cx="873.33" cy="298.39" r="2.5" fill="#2563eb"/>
  <circle cx="874.65" cy="298.39" r="2.5" fill="#2563eb"/>
  <circle cx="875.96" cy="246.78" r="2.5" fill="#2563eb"/>
  <circle cx="877.28" cy="246.78" r="2.5" fill="#2563eb"/>
  <circle cx="878.60" cy="298.39" r="2.5" fill="#2563eb"/>
  <circle cx="879.91" cy="298.39" r="2.5" fill="#2563eb"/>
  <circle cx="881.23" cy="298.39" r="2.5" fill="#2563eb"/>
  <circle cx="882.55" cy="298.39" r="2.5" fill="#2563eb"/>
  <circle cx="883.86" cy="298.39" r="2.5" fill="#2563eb"/>
  <circle cx="885.18" cy="298.39" r="2.5" fill="#2563eb"/>
  <circle cx="886.50" cy="298.39" r="2.5" fill="#2563eb"/>
  <circle cx="887.81" cy="298.39" r="2.5" fill="#2563eb"/>
  <circle cx="889.13" cy="298.39" r="2.5" fill="#2563eb"/>
  <circle cx="890.45" cy="298.39" r="2.5" fill="#2563eb"/>
  <circle cx="891.77" cy="298.39" r="2.5" fill="#2563eb"/>
  <circle cx="893.08" cy="298.39" r="2.5" fill="#2563eb"/>
  <circle cx="894.40" cy="298.39" r="2.5" fill="#2563eb"/>
  <circle cx="895.72" cy="298.39" r="2.5" fill="#2563eb"/>
  <circle cx="897.03" cy="298.35" r="2.5" fill="#2563eb"/>
  <circle cx="898.35" cy="298.39" r="2.5" fill="#2563eb"/>
  <circle cx="899.67" cy="298.39" r="2.5" fill="#2563eb"/>
  <circle cx="900.98" cy="298.35" r="2.5" fill="#2563eb"/>
  <circle cx="902.30" cy="298.35" r="2.5" fill="#2563eb"/>
  <circle cx="903.62" cy="298.35" r="2.5" fill="#2563eb"/>
  <circle cx="904.93" cy="298.35" r="2.5" fill="#2563eb"/>
  <circle cx="906.25" cy="298.35" r="2.5" fill="#2563eb"/>
  <circle cx="907.57" cy="298.35" r="2.5" fill="#2563eb"/>
  <circle cx="908.89" cy="298.35" r="2.5" fill="#2563eb"/>
  <circle cx="910.20" cy="298.35" r="2.5" fill="#2563eb"/>
  <circle cx="911.52" cy="298.35" r="2.5" fill="#2563eb"/>
  <circle cx="912.84" cy="298.35" r="2.5" fill="#2563eb"/>
  <circle cx="914.15" cy="298.35" r="2.5" fill="#2563eb"/>
  <circle cx="915.47" cy="298.35" r="2.5" fill="#2563eb"/>
  <circle cx="916.79" cy="298.35" r="2.5" fill="#2563eb"/>
  <circle cx="918.10" cy="298.35" r="2.5" fill="#2563eb"/>
  <circle cx="919.42" cy="298.35" r="2.5" fill="#2563eb"/>
  <circle cx="920.74" cy="298.35" r="2.5" fill="#2563eb"/>
  <circle cx="922.05" cy="298.35" r="2.5" fill="#2563eb"/>
  <circle cx="923.37" cy="298.35" r="2.5" fill="#2563eb"/>
  <circle cx="924.69" cy="298.35" r="2.5" fill="#2563eb"/>
  <circle cx="926.01" cy="298.35" r="2.5" fill="#2563eb"/>
  <circle cx="927.32" cy="298.35" r="2.5" fill="#2563eb"/>
  <circle cx="928.64" cy="298.35" r="2.5" fill="#2563eb"/>
  <circle cx="929.96" cy="298.35" r="2.5" fill="#2563eb"/>
  <circle cx="931.27" cy="298.35" r="2.5" fill="#2563eb"/>
  <circle cx="932.59" cy="298.35" r="2.5" fill="#2563eb"/>
  <circle cx="933.91" cy="298.35" r="2.5" fill="#2563eb"/>
  <circle cx="935.22" cy="298.35" r="2.5" fill="#2563eb"/>
  <circle cx="936.54" cy="298.35" r="2.5" fill="#2563eb"/>
  <circle cx="937.86" cy="298.35" r="2.5" fill="#2563eb"/>
  <circle cx="939.18" cy="298.35" r="2.5" fill="#2563eb"/>
  <circle cx="940.49" cy="298.35" r="2.5" fill="#2563eb"/>
  <circle cx="941.81" cy="298.35" r="2.5" fill="#2563eb"/>
  <circle cx="943.13" cy="298.35" r="2.5" fill="#2563eb"/>
  <circle cx="944.44" cy="298.35" r="2.5" fill="#2563eb"/>
  <circle cx="945.76" cy="298.35" r="2.5" fill="#2563eb"/>
  <circle cx="947.08" cy="298.35" r="2.5" fill="#2563eb"/>
  <circle cx="948.39" cy="298.35" r="2.5" fill="#2563eb"/>
  <circle cx="949.71" cy="298.35" r="2.5" fill="#2563eb"/>
  <circle cx="951.03" cy="298.35" r="2.5" fill="#2563eb"/>
  <circle cx="952.34" cy="298.35" r="2.5" fill="#2563eb"/>
  <circle cx="953.66" cy="298.35" r="2.5" fill="#2563eb"/>
  <circle cx="954.98" cy="298.35" r="2.5" fill="#2563eb"/>
  <circle cx="956.30" cy="298.35" r="2.5" fill="#2563eb"/>
  <circle cx="957.61" cy="298.35" r="2.5" fill="#2563eb"/>
  <circle cx="958.93" cy="298.35" r="2.5" fill="#2563eb"/>
  <circle cx="960.25" cy="298.35" r="2.5" fill="#2563eb"/>
  <circle cx="961.56" cy="298.35" r="2.5" fill="#2563eb"/>
  <circle cx="962.88" cy="298.35" r="2.5" fill="#2563eb"/>
  <circle cx="964.20" cy="298.35" r="2.5" fill="#2563eb"/>
  <circle cx="965.51" cy="298.35" r="2.5" fill="#2563eb"/>
  <circle cx="966.83" cy="298.35" r="2.5" fill="#2563eb"/>
  <circle cx="968.15" cy="298.35" r="2.5" fill="#2563eb"/>
  <circle cx="969.46" cy="298.39" r="2.5" fill="#2563eb"/>
  <circle cx="970.78" cy="298.39" r="2.5" fill="#2563eb"/>
  <circle cx="972.10" cy="298.39" r="2.5" fill="#2563eb"/>
  <circle cx="973.42" cy="246.78" r="2.5" fill="#2563eb"/>
  <circle cx="974.73" cy="298.39" r="2.5" fill="#2563eb"/>
  <circle cx="976.05" cy="298.39" r="2.5" fill="#2563eb"/>
  <circle cx="977.37" cy="298.39" r="2.5" fill="#2563eb"/>
  <circle cx="978.68" cy="298.39" r="2.5" fill="#2563eb"/>
  <circle cx="980.00" cy="298.39" r="2.5" fill="#2563eb"/>
</svg>
