<?xml version="1.0" encoding="UTF-8"?>
<svg xmlns="http://www.w3.org/2000/svg" width="1000" height="420" viewBox="0 0 1000 420">
  <rect width="100%" height="100%" fill="#ffffff"/>
  <text x="70" y="28" font-size="20" font-weight="600">수집 시점 기준 - 시간별 스냅샷</text>
  <text x="70" y="402" font-size="12" fill="#555">스냅샷 수</text>
  <line x1="70" y1="350.00" x2="980" y2="350.00" stroke="#e5e7eb" stroke-width="1"/>
  <text x="62" y="354.00" font-size="11" fill="#6b7280" text-anchor="end">0</text>
  <line x1="70" y1="290.00" x2="980" y2="290.00" stroke="#e5e7eb" stroke-width="1"/>
  <text x="62" y="294.00" font-size="11" fill="#6b7280" text-anchor="end">1,440</text>
  <line x1="70" y1="230.00" x2="980" y2="230.00" stroke="#e5e7eb" stroke-width="1"/>
  <text x="62" y="234.00" font-size="11" fill="#6b7280" text-anchor="end">2,880</text>
  <line x1="70" y1="170.00" x2="980" y2="170.00" stroke="#e5e7eb" stroke-width="1"/>
  <text x="62" y="174.00" font-size="11" fill="#6b7280" text-anchor="end">4,321</text>
  <line x1="70" y1="110.00" x2="980" y2="110.00" stroke="#e5e7eb" stroke-width="1"/>
  <text x="62" y="114.00" font-size="11" fill="#6b7280" text-anchor="end">5,761</text>
  <line x1="70" y1="50.00" x2="980" y2="50.00" stroke="#e5e7eb" stroke-width="1"/>
  <text x="62" y="54.00" font-size="11" fill="#6b7280" text-anchor="end">7,202</text>
  <line x1="70" y1="350" x2="980" y2="350" stroke="#111827" stroke-width="1.2"/>
  <line x1="70" y1="50" x2="70" y2="350" stroke="#111827" stroke-width="1.2"/>
  <line x1="70.00" y1="350" x2="70.00" y2="356" stroke="#9ca3af" stroke-width="1"/>
  <text x="70.00" y="372" font-size="10" fill="#6b7280" text-anchor="middle">2026-02-28 18</text>
  <line x1="145.83" y1="350" x2="145.83" y2="356" stroke="#9ca3af" stroke-width="1"/>
  <text x="145.83" y="372" font-size="10" fill="#6b7280" text-anchor="middle">2026-03-09 05</text>
  <line x1="221.67" y1="350" x2="221.67" y2="356" stroke="#9ca3af" stroke-width="1"/>
  <text x="221.67" y="372" font-size="10" fill="#6b7280" text-anchor="middle">2026-03-11 13</text>
  <line x1="297.50" y1="350" x2="297.50" y2="356" stroke="#9ca3af" stroke-width="1"/>
  <text x="297.50" y="372" font-size="10" fill="#6b7280" text-anchor="middle">2026-03-13 19</text>
  <line x1="373.33" y1="350" x2="373.33" y2="356" stroke="#9ca3af" stroke-width="1"/>
  <text x="373.33" y="372" font-size="10" fill="#6b7280" text-anchor="middle">2026-03-16 16</text>
  <line x1="449.17" y1="350" x2="449.17" y2="356" stroke="#9ca3af" stroke-width="1"/>
  <text x="449.17" y="372" font-size="10" fill="#6b7280" text-anchor="middle">2026-03-20 01</text>
  <line x1="525.00" y1="350" x2="525.00" y2="356" stroke="#9ca3af" stroke-width="1"/>
  <text x="525.00" y="372" font-size="10" fill="#6b7280" text-anchor="middle">2026-03-22 20</text>
  <line x1="600.83" y1="350" x2="600.83" y2="356" stroke="#9ca3af" stroke-width="1"/>
  <text x="600.83" y="372" font-size="10" fill="#6b7280" text-anchor="middle">2026-03-26 04</text>
  <line x1="676.67" y1="350" x2="676.67" y2="356" stroke="#9ca3af" stroke-width="1"/>
  <text x="676.67" y="372" font-size="10" fill="#6b7280" text-anchor="middle">2026-03-29 14</text>
  <line x1="752.50" y1="350" x2="752.50" y2="356" stroke="#9ca3af" stroke-width="1"/>
  <text x="752.50" y="372" font-size="10" fill="#6b7280" text-anchor="middle">2026-04-02 03</text>
  <line x1="828.33" y1="350" x2="828.33" y2="356" stroke="#9ca3af" stroke-width="1"/>
  <text x="828.33" y="372" font-size="10" fill="#6b7280" text-anchor="middle">2026-04-05 08</text>
  <line x1="904.17" y1="350" x2="904.17" y2="356" stroke="#9ca3af" stroke-width="1"/>
  <text x="904.17" y="372" font-size="10" fill="#6b7280" text-anchor="middle">2026-04-08 23</text>
  <line x1="980.00" y1="350" x2="980.00" y2="356" stroke="#9ca3af" stroke-width="1"/>
  <text x="980.00" y="372" font-size="10" fill="#6b7280" text-anchor="middle">2026-04-12 08</text>
  <polyline fill="none" stroke="#2563eb" stroke-width="2.5" points="70.00,50.00 71.52,50.12 73.03,50.17 74.55,50.46 76.07,50.00 77.58,266.90 79.10,50.12 80.62,50.08 82.13,177.46 83.65,211.58 85.17,175.34 86.68,304.14 88.20,200.46 89.72,250.94 91.23,300.01 92.75,300.06 94.27,300.01 95.78,300.01 97.30,348.00 98.82,300.01 100.33,249.99 101.85,200.00 103.37,249.99 104.88,249.99 106.40,250.03 107.92,250.03 109.43,250.03 110.95,250.40 112.47,250.90 113.98,250.90 115.50,251.32 117.02,249.94 118.53,300.01 120.05,299.93 121.57,251.03 123.08,300.68 124.60,250.03 126.12,200.00 127.63,249.99 129.15,250.03 130.67,250.03 132.18,250.03 133.70,300.01 135.22,200.04 136.73,250.03 138.25,250.03 139.77,250.03 141.28,249.90 142.80,250.03 144.32,250.03 145.83,250.94 147.35,250.44 148.87,250.03 150.38,250.03 151.90,300.47 153.42,300.01 154.93,300.43 156.45,250.03 157.97,249.99 159.48,300.43 161.00,249.90 162.52,249.99 164.03,249.99 165.55,200.04 167.07,300.01 168.58,300.01 170.10,300.01 171.62,249.90 173.13,300.01 174.65,250.03 176.17,249.99 177.68,199.96 179.20,300.01 180.72,200.00 182.23,250.36 183.75,250.03 185.27,300.01 186.78,300.01 188.30,250.44 189.82,300.01 191.33,250.03 192.85,250.03 194.37,249.99 195.88,250.49 197.40,250.03 198.92,200.04 200.43,300.01 201.95,250.03 203.47,300.01 204.98,250.11 206.50,300.01 208.02,250.03 209.53,250.03 211.05,199.92 212.57,250.03 214.08,250.03 215.60,250.03 217.12,254.36 218.63,300.01 220.15,299.97 221.67,250.36 223.18,299.97 224.70,250.03 226.22,250.03 227.73,250.03 229.25,250.03 230.77,249.99 232.28,200.00 233.80,299.93 235.32,300.01 236.83,299.97 238.35,249.94 239.87,249.99 241.38,249.82 242.90,249.94 244.42,250.28 245.93,207.00 247.45,250.03 248.97,250.32 250.48,250.40 252.00,300.93 253.52,300.01 255.03,300.10 256.55,249.94 258.07,249.99 259.58,250.07 261.10,249.99 262.62,250.03 264.13,249.94 265.65,200.00 267.17,300.39 268.68,300.01 270.20,300.01 271.72,250.44 273.23,300.39 274.75,249.86 276.27,250.11 277.78,201.46 279.30,300.01 280.82,200.83 282.33,250.03 283.85,249.99 285.37,300.26 286.88,300.01 288.40,300.01 289.92,250.03 291.43,250.03 292.95,250.03 294.47,250.03 295.98,249.99 297.50,250.03 299.02,200.00 300.53,300.26 302.05,249.99 303.57,300.01 305.08,249.94 306.60,250.03 308.12,250.03 309.63,250.03 311.15,200.04 312.67,300.01 314.18,249.90 315.70,300.01 317.22,300.01 318.73,300.06 320.25,300.01 321.77,300.01 323.28,243.95 324.80,249.94 326.32,299.97 327.83,300.01 329.35,300.01 330.87,250.03 332.38,300.01 333.90,300.01 335.42,299.97 336.93,249.99 338.45,300.01 339.97,299.93 341.48,300.01 343.00,299.93 344.52,300.01 346.03,300.01 347.55,299.89 349.07,299.97 350.58,250.03 352.10,299.93 353.62,299.89 355.13,299.97 356.65,249.94 358.17,300.01 359.68,300.01 361.20,299.97 362.72,249.99 364.23,299.97 365.75,299.97 367.27,300.06 368.78,300.06 370.30,299.93 371.82,300.01 373.33,300.01 374.85,299.93 376.37,300.01 377.88,300.01 379.40,299.97 380.92,300.01 382.43,300.01 383.95,300.01 385.47,300.01 386.98,249.86 388.50,300.01 390.02,300.10 391.53,299.93 393.05,300.01 394.57,299.93 396.08,300.01 397.60,300.01 399.12,300.01 400.63,300.01 402.15,300.01 403.67,299.97 405.18,300.01 406.70,300.01 408.22,300.01 409.73,300.01 411.25,250.03 412.77,300.01 414.28,300.01 415.80,299.97 417.32,300.01 418.83,300.01 420.35,299.97 421.87,299.97 423.38,300.01 424.90,299.97 426.42,300.01 427.93,299.93 429.45,300.01 430.97,250.03 432.48,300.01 434.00,300.01 435.52,300.01 437.03,300.01 438.55,300.01 440.07,299.89 441.58,300.01 443.10,300.01 444.62,250.07 446.13,300.01 447.65,299.93 449.17,300.01 450.68,299.97 452.20,299.97 453.72,299.97 455.23,250.03 456.75,300.01 458.27,300.01 459.78,300.01 461.30,300.01 462.82,299.97 464.33,300.01 465.85,299.97 467.37,300.01 468.88,299.97 470.40,249.90 471.92,300.01 473.43,300.01 474.95,299.89 476.47,299.97 477.98,299.97 479.50,249.99 481.02,299.97 482.53,299.89 484.05,300.01 485.57,299.97 487.08,299.97 488.60,300.01 490.12,299.97 491.63,249.99 493.15,299.97 494.67,299.97 496.18,300.06 497.70,300.06 499.22,249.94 500.73,300.01 502.25,299.93 503.77,300.01 505.28,300.01 506.80,249.99 508.32,300.01 509.83,300.01 511.35,300.01 512.87,299.93 514.38,299.93 515.90,300.01 517.42,300.01 518.93,249.94 520.45,299.97 521.97,299.97 523.48,300.01 525.00,300.01 526.52,300.01 528.03,249.99 529.55,300.01 531.07,300.01 532.58,300.01 534.10,250.03 535.62,300.01 537.13,300.01 538.65,300.01 540.17,299.97 541.68,300.01 543.20,300.01 544.72,299.97 546.23,299.97 547.75,300.01 549.27,300.01 550.78,299.97 552.30,299.93 553.82,300.01 555.33,300.06 556.85,299.97 558.37,300.01 559.88,250.03 561.40,250.03 562.92,299.93 564.43,299.97 565.95,300.01 567.47,300.01 568.98,300.06 570.50,300.01 572.02,299.93 573.53,300.01 575.05,300.01 576.57,299.97 578.08,299.97 579.60,300.01 581.12,250.03 582.63,300.01 584.15,300.01 585.67,300.01 587.18,299.97 588.70,300.01 590.22,299.97 591.73,300.01 593.25,299.97 594.77,299.97 596.28,299.93 597.80,300.01 599.32,300.01 600.83,299.89 602.35,299.97 603.87,299.97 605.38,300.06 606.90,249.90 608.42,299.89 609.93,300.01 611.45,299.97 612.97,299.97 614.48,299.97 616.00,300.01 617.52,300.01 619.03,299.97 620.55,299.97 622.07,299.97 623.58,250.03 625.10,299.93 626.62,300.01 628.13,300.01 629.65,299.93 631.17,300.01 632.68,300.01 634.20,299.97 635.72,300.01 637.23,300.01 638.75,300.06 640.27,300.01 641.78,299.97 643.30,299.89 644.82,300.01 646.33,300.01 647.85,249.94 649.37,249.94 650.88,300.01 652.40,300.01 653.92,300.01 655.43,300.01 656.95,299.97 658.47,250.03 659.98,300.01 661.50,300.01 663.02,300.01 664.53,300.01 666.05,250.03 667.57,249.99 669.08,300.01 670.60,299.97 672.12,300.01 673.63,299.97 675.15,300.01 676.67,299.97 678.18,299.97 679.70,299.97 681.22,300.06 682.73,249.99 684.25,300.01 685.77,250.03 687.28,249.94 688.80,249.99 690.32,300.01 691.83,300.06 693.35,300.01 694.87,299.97 696.38,299.97 697.90,300.01 699.42,299.93 700.93,299.89 702.45,299.89 703.97,299.89 705.48,299.89 707.00,299.85 708.52,299.85 710.03,299.89 711.55,299.81 713.07,299.81 714.58,299.81 716.10,299.76 717.62,299.76 719.13,299.76 720.65,299.72 722.17,299.68 723.68,299.60 725.20,299.60 726.72,299.60 728.23,299.56 729.75,299.47 731.27,299.43 732.78,299.43 734.30,299.39 735.82,299.47 737.33,259.82 738.85,338.96 740.37,299.31 741.88,299.31 743.40,299.26 744.92,299.68 746.43,299.68 747.95,299.68 749.47,299.64 750.98,299.14 752.50,299.14 754.02,299.10 755.53,299.10 757.05,299.10 758.57,248.07 760.08,299.06 761.60,299.06 763.12,299.06 764.63,299.06 766.15,299.06 767.67,298.97 769.18,298.97 770.70,298.93 772.22,298.97 773.73,298.93 775.25,298.89 776.77,298.89 778.28,298.89 779.80,298.89 781.32,247.78 782.83,298.89 784.35,298.89 785.87,298.85 787.38,298.85 788.90,298.81 790.42,298.81 791.93,298.81 793.45,298.81 794.97,298.81 796.48,298.81 798.00,298.81 799.52,298.81 801.03,298.81 802.55,298.72 804.07,247.45 805.58,247.45 807.10,298.72 808.62,298.72 810.13,298.72 811.65,298.72 813.17,298.72 814.68,298.72 816.20,247.36 817.72,298.68 819.23,247.36 820.75,247.36 822.27,247.36 823.78,298.68 825.30,298.68 826.82,298.68 828.33,298.68 829.85,298.68 831.37,341.67 832.88,307.01 834.40,298.68 835.92,298.68 837.43,298.68 838.95,247.36 840.47,298.64 841.98,247.36 843.50,247.28 845.02,247.20 846.53,298.60 848.05,298.60 849.57,247.03 851.08,298.51 852.60,298.51 854.12,298.51 855.63,298.51 857.15,298.51 858.67,298.51 860.18,298.51 861.70,298.51 863.22,298.51 864.73,298.51 866.25,298.51 867.77,298.51 869.28,298.51 870.80,298.51 872.32,298.51 873.83,298.51 875.35,298.51 876.87,298.51 878.38,298.51 879.90,298.51 881.42,298.51 882.93,298.51 884.45,298.51 885.97,298.51 887.48,298.51 889.00,298.51 890.52,298.47 892.03,298.51 893.55,298.51 895.07,298.47 896.58,298.51 898.10,298.47 899.62,298.51 901.13,298.43 902.65,298.56 904.17,298.43 905.68,298.43 907.20,298.43 908.72,298.43 910.23,298.43 911.75,298.43 913.27,298.43 914.78,298.43 916.30,298.43 917.82,298.43 919.33,298.43 920.85,298.43 922.37,298.43 923.88,298.43 925.40,298.43 926.92,298.43 928.43,298.43 929.95,298.43 931.47,298.43 932.98,298.43 934.50,298.43 936.02,298.43 937.53,298.43 939.05,298.43 940.57,298.43 942.08,298.43 943.60,298.43 945.12,298.43 946.63,298.43 948.15,298.43 949.67,298.43 951.18,298.43 952.70,298.43 954.22,298.43 955.73,298.39 957.25,298.39 958.77,298.43 960.28,298.43 961.80,298.39 963.32,298.39 964.83,298.39 966.35,298.43 967.87,298.43 969.38,298.43 970.90,246.82 972.42,298.43 973.93,246.78 975.45,246.78 976.97,246.78 978.48,246.70 980.00,246.78"/>
  <circle cx="70.00" cy="50.00" r="2.5" fill="#2563eb"/>
  <circle cx="71.52" cy="50.12" r="2.5" fill="#2563eb"/>
  <circle cx="73.03" cy="50.17" r="2.5" fill="#2563eb"/>
  <circle cx="74.55" cy="50.46" r="2.5" fill="#2563eb"/>
  <circle cx="76.07" cy="50.00" r="2.5" fill="#2563eb"/>
  <circle cx="77.58" cy="266.90" r="2.5" fill="#2563eb"/>
  <circle cx="79.10" cy="50.12" r="2.5" fill="#2563eb"/>
  <circle cx="80.62" cy="50.08" r="2.5" fill="#2563eb"/>
  <circle cx="82.13" cy="177.46" r="2.5" fill="#2563eb"/>
  <circle cx="83.65" cy="211.58" r="2.5" fill="#2563eb"/>
  <circle cx="85.17" cy="175.34" r="2.5" fill="#2563eb"/>
  <circle cx="86.68" cy="304.14" r="2.5" fill="#2563eb"/>
  <circle cx="88.20" cy="200.46" r="2.5" fill="#2563eb"/>
  <circle cx="89.72" cy="250.94" r="2.5" fill="#2563eb"/>
  <circle cx="91.23" cy="300.01" r="2.5" fill="#2563eb"/>
  <circle cx="92.75" cy="300.06" r="2.5" fill="#2563eb"/>
  <circle cx="94.27" cy="300.01" r="2.5" fill="#2563eb"/>
  <circle cx="95.78" cy="300.01" r="2.5" fill="#2563eb"/>
  <circle cx="97.30" cy="348.00" r="2.5" fill="#2563eb"/>
  <circle cx="98.82" cy="300.01" r="2.5" fill="#2563eb"/>
  <circle cx="100.33" cy="249.99" r="2.5" fill="#2563eb"/>
  <circle cx="101.85" cy="200.00" r="2.5" fill="#2563eb"/>
  <circle cx="103.37" cy="249.99" r="2.5" fill="#2563eb"/>
  <circle cx="104.88" cy="249.99" r="2.5" fill="#2563eb"/>
  <circle cx="106.40" cy="250.03" r="2.5" fill="#2563eb"/>
  <circle cx="107.92" cy="250.03" r="2.5" fill="#2563eb"/>
  <circle cx="109.43" cy="250.03" r="2.5" fill="#2563eb"/>
  <circle cx="110.95" cy="250.40" r="2.5" fill="#2563eb"/>
  <circle cx="112.47" cy="250.90" r="2.5" fill="#2563eb"/>
  <circle cx="113.98" cy="250.90" r="2.5" fill="#2563eb"/>
  <circle cx="115.50" cy="251.32" r="2.5" fill="#2563eb"/>
  <circle cx="117.02" cy="249.94" r="2.5" fill="#2563eb"/>
  <circle cx="118.53" cy="300.01" r="2.5" fill="#2563eb"/>
  <circle cx="120.05" cy="299.93" r="2.5" fill="#2563eb"/>
  <circle cx="121.57" cy="251.03" r="2.5" fill="#2563eb"/>
  <circle cx="123.08" cy="300.68" r="2.5" fill="#2563eb"/>
  <circle cx="124.60" cy="250.03" r="2.5" fill="#2563eb"/>
  <circle cx="126.12" cy="200.00" r="2.5" fill="#2563eb"/>
  <circle cx="127.63" cy="249.99" r="2.5" fill="#2563eb"/>
  <circle cx="129.15" cy="250.03" r="2.5" fill="#2563eb"/>
  <circle cx="130.67" cy="250.03" r="2.5" fill="#2563eb"/>
  <circle cx="132.18" cy="250.03" r="2.5" fill="#2563eb"/>
  <circle cx="133.70" cy="300.01" r="2.5" fill="#2563eb"/>
  <circle cx="135.22" cy="200.04" r="2.5" fill="#2563eb"/>
  <circle cx="136.73" cy="250.03" r="2.5" fill="#2563eb"/>
  <circle cx="138.25" cy="250.03" r="2.5" fill="#2563eb"/>
  <circle cx="139.77" cy="250.03" r="2.5" fill="#2563eb"/>
  <circle cx="141.28" cy="249.90" r="2.5" fill="#2563eb"/>
  <circle cx="142.80" cy="250.03" r="2.5" fill="#2563eb"/>
  <circle cx="144.32" cy="250.03" r="2.5" fill="#2563eb"/>
  <circle cx="145.83" cy="250.94" r="2.5" fill="#2563eb"/>
  <circle cx="147.35" cy="250.44" r="2.5" fill="#2563eb"/>
  <circle cx="148.87" cy="250.03" r="2.5" fill="#2563eb"/>
  <circle cx="150.38" cy="250.03" r="2.5" fill="#2563eb"/>
  <circle cx="151.90" cy="300.47" r="2.5" fill="#2563eb"/>
  <circle cx="153.42" cy="300.01" r="2.5" fill="#2563eb"/>
  <circle cx="154.93" cy="300.43" r="2.5" fill="#2563eb"/>
  <circle cx="156.45" cy="250.03" r="2.5" fill="#2563eb"/>
  <circle cx="157.97" cy="249.99" r="2.5" fill="#2563eb"/>
  <circle cx="159.48" cy="300.43" r="2.5" fill="#2563eb"/>
  <circle cx="161.00" cy="249.90" r="2.5" fill="#2563eb"/>
  <circle cx="162.52" cy="249.99" r="2.5" fill="#2563eb"/>
  <circle cx="164.03" cy="249.99" r="2.5" fill="#2563eb"/>
  <circle cx="165.55" cy="200.04" r="2.5" fill="#2563eb"/>
  <circle cx="167.07" cy="300.01" r="2.5" fill="#2563eb"/>
  <circle cx="168.58" cy="300.01" r="2.5" fill="#2563eb"/>
  <circle cx="170.10" cy="300.01" r="2.5" fill="#2563eb"/>
  <circle cx="171.62" cy="249.90" r="2.5" fill="#2563eb"/>
  <circle cx="173.13" cy="300.01" r="2.5" fill="#2563eb"/>
  <circle cx="174.65" cy="250.03" r="2.5" fill="#2563eb"/>
  <circle cx="176.17" cy="249.99" r="2.5" fill="#2563eb"/>
  <circle cx="177.68" cy="199.96" r="2.5" fill="#2563eb"/>
  <circle cx="179.20" cy="300.01" r="2.5" fill="#2563eb"/>
  <circle cx="180.72" cy="200.00" r="2.5" fill="#2563eb"/>
  <circle cx="182.23" cy="250.36" r="2.5" fill="#2563eb"/>
  <circle cx="183.75" cy="250.03" r="2.5" fill="#2563eb"/>
  <circle cx="185.27" cy="300.01" r="2.5" fill="#2563eb"/>
  <circle cx="186.78" cy="300.01" r="2.5" fill="#2563eb"/>
  <circle cx="188.30" cy="250.44" r="2.5" fill="#2563eb"/>
  <circle cx="189.82" cy="300.01" r="2.5" fill="#2563eb"/>
  <circle cx="191.33" cy="250.03" r="2.5" fill="#2563eb"/>
  <circle cx="192.85" cy="250.03" r="2.5" fill="#2563eb"/>
  <circle cx="194.37" cy="249.99" r="2.5" fill="#2563eb"/>
  <circle cx="195.88" cy="250.49" r="2.5" fill="#2563eb"/>
  <circle cx="197.40" cy="250.03" r="2.5" fill="#2563eb"/>
  <circle cx="198.92" cy="200.04" r="2.5" fill="#2563eb"/>
  <circle cx="200.43" cy="300.01" r="2.5" fill="#2563eb"/>
  <circle cx="201.95" cy="250.03" r="2.5" fill="#2563eb"/>
  <circle cx="203.47" cy="300.01" r="2.5" fill="#2563eb"/>
  <circle cx="204.98" cy="250.11" r="2.5" fill="#2563eb"/>
  <circle cx="206.50" cy="300.01" r="2.5" fill="#2563eb"/>
  <circle cx="208.02" cy="250.03" r="2.5" fill="#2563eb"/>
  <circle cx="209.53" cy="250.03" r="2.5" fill="#2563eb"/>
  <circle cx="211.05" cy="199.92" r="2.5" fill="#2563eb"/>
  <circle cx="212.57" cy="250.03" r="2.5" fill="#2563eb"/>
  <circle cx="214.08" cy="250.03" r="2.5" fill="#2563eb"/>
  <circle cx="215.60" cy="250.03" r="2.5" fill="#2563eb"/>
  <circle cx="217.12" cy="254.36" r="2.5" fill="#2563eb"/>
  <circle cx="218.63" cy="300.01" r="2.5" fill="#2563eb"/>
  <circle cx="220.15" cy="299.97" r="2.5" fill="#2563eb"/>
  <circle cx="221.67" cy="250.36" r="2.5" fill="#2563eb"/>
  <circle cx="223.18" cy="299.97" r="2.5" fill="#2563eb"/>
  <circle cx="224.70" cy="250.03" r="2.5" fill="#2563eb"/>
  <circle cx="226.22" cy="250.03" r="2.5" fill="#2563eb"/>
  <circle cx="227.73" cy="250.03" r="2.5" fill="#2563eb"/>
  <circle cx="229.25" cy="250.03" r="2.5" fill="#2563eb"/>
  <circle cx="230.77" cy="249.99" r="2.5" fill="#2563eb"/>
  <circle cx="232.28" cy="200.00" r="2.5" fill="#2563eb"/>
  <circle cx="233.80" cy="299.93" r="2.5" fill="#2563eb"/>
  <circle cx="235.32" cy="300.01" r="2.5" fill="#2563eb"/>
  <circle cx="236.83" cy="299.97" r="2.5" fill="#2563eb"/>
  <circle cx="238.35" cy="249.94" r="2.5" fill="#2563eb"/>
  <circle cx="239.87" cy="249.99" r="2.5" fill="#2563eb"/>
  <circle cx="241.38" cy="249.82" r="2.5" fill="#2563eb"/>
  <circle cx="242.90" cy="249.94" r="2.5" fill="#2563eb"/>
  <circle cx="244.42" cy="250.28" r="2.5" fill="#2563eb"/>
  <circle cx="245.93" cy="207.00" r="2.5" fill="#2563eb"/>
  <circle cx="247.45" cy="250.03" r="2.5" fill="#2563eb"/>
  <circle cx="248.97" cy="250.32" r="2.5" fill="#2563eb"/>
  <circle cx="250.48" cy="250.40" r="2.5" fill="#2563eb"/>
  <circle cx="252.00" cy="300.93" r="2.5" fill="#2563eb"/>
  <circle cx="253.52" cy="300.01" r="2.5" fill="#2563eb"/>
  <circle cx="255.03" cy="300.10" r="2.5" fill="#2563eb"/>
  <circle cx="256.55" cy="249.94" r="2.5" fill="#2563eb"/>
  <circle cx="258.07" cy="249.99" r="2.5" fill="#2563eb"/>
  <circle cx="259.58" cy="250.07" r="2.5" fill="#2563eb"/>
  <circle cx="261.10" cy="249.99" r="2.5" fill="#2563eb"/>
  <circle cx="262.62" cy="250.03" r="2.5" fill="#2563eb"/>
  <circle cx="264.13" cy="249.94" r="2.5" fill="#2563eb"/>
  <circle cx="265.65" cy="200.00" r="2.5" fill="#2563eb"/>
  <circle cx="267.17" cy="300.39" r="2.5" fill="#2563eb"/>
  <circle cx="268.68" cy="300.01" r="2.5" fill="#2563eb"/>
  <circle cx="270.20" cy="300.01" r="2.5" fill="#2563eb"/>
  <circle cx="271.72" cy="250.44" r="2.5" fill="#2563eb"/>
  <circle cx="273.23" cy="300.39" r="2.5" fill="#2563eb"/>
  <circle cx="274.75" cy="249.86" r="2.5" fill="#2563eb"/>
  <circle cx="276.27" cy="250.11" r="2.5" fill="#2563eb"/>
  <circle cx="277.78" cy="201.46" r="2.5" fill="#2563eb"/>
  <circle cx="279.30" cy="300.01" r="2.5" fill="#2563eb"/>
  <circle cx="280.82" cy="200.83" r="2.5" fill="#2563eb"/>
  <circle cx="282.33" cy="250.03" r="2.5" fill="#2563eb"/>
  <circle cx="283.85" cy="249.99" r="2.5" fill="#2563eb"/>
  <circle cx="285.37" cy="300.26" r="2.5" fill="#2563eb"/>
  <circle cx="286.88" cy="300.01" r="2.5" fill="#2563eb"/>
  <circle cx="288.40" cy="300.01" r="2.5" fill="#2563eb"/>
  <circle cx="289.92" cy="250.03" r="2.5" fill="#2563eb"/>
  <circle cx="291.43" cy="250.03" r="2.5" fill="#2563eb"/>
  <circle cx="292.95" cy="250.03" r="2.5" fill="#2563eb"/>
  <circle cx="294.47" cy="250.03" r="2.5" fill="#2563eb"/>
  <circle cx="295.98" cy="249.99" r="2.5" fill="#2563eb"/>
  <circle cx="297.50" cy="250.03" r="2.5" fill="#2563eb"/>
  <circle cx="299.02" cy="200.00" r="2.5" fill="#2563eb"/>
  <circle cx="300.53" cy="300.26" r="2.5" fill="#2563eb"/>
  <circle cx="302.05" cy="249.99" r="2.5" fill="#2563eb"/>
  <circle cx="303.57" cy="300.01" r="2.5" fill="#2563eb"/>
  <circle cx="305.08" cy="249.94" r="2.5" fill="#2563eb"/>
  <circle cx="306.60" cy="250.03" r="2.5" fill="#2563eb"/>
  <circle cx="308.12" cy="250.03" r="2.5" fill="#2563eb"/>
  <circle cx="309.63" cy="250.03" r="2.5" fill="#2563eb"/>
  <circle cx="311.15" cy="200.04" r="2.5" fill="#2563eb"/>
  <circle cx="312.67" cy="300.01" r="2.5" fill="#2563eb"/>
  <circle cx="314.18" cy="249.90" r="2.5" fill="#2563eb"/>
  <circle cx="315.70" cy="300.01" r="2.5" fill="#2563eb"/>
  <circle cx="317.22" cy="300.01" r="2.5" fill="#2563eb"/>
  <circle cx="318.73" cy="300.06" r="2.5" fill="#2563eb"/>
  <circle cx="320.25" cy="300.01" r="2.5" fill="#2563eb"/>
  <circle cx="321.77" cy="300.01" r="2.5" fill="#2563eb"/>
  <circle cx="323.28" cy="243.95" r="2.5" fill="#2563eb"/>
  <circle cx="324.80" cy="249.94" r="2.5" fill="#2563eb"/>
  <circle cx="326.32" cy="299.97" r="2.5" fill="#2563eb"/>
  <circle cx="327.83" cy="300.01" r="2.5" fill="#2563eb"/>
  <circle cx="329.35" cy="300.01" r="2.5" fill="#2563eb"/>
  <circle cx="330.87" cy="250.03" r="2.5" fill="#2563eb"/>
  <circle cx="332.38" cy="300.01" r="2.5" fill="#2563eb"/>
  <circle cx="333.90" cy="300.01" r="2.5" fill="#2563eb"/>
  <circle cx="335.42" cy="299.97" r="2.5" fill="#2563eb"/>
  <circle cx="336.93" cy="249.99" r="2.5" fill="#2563eb"/>
  <circle cx="338.45" cy="300.01" r="2.5" fill="#2563eb"/>
  <circle cx="339.97" cy="299.93" r="2.5" fill="#2563eb"/>
  <circle cx="341.48" cy="300.01" r="2.5" fill="#2563eb"/>
  <circle cx="343.00" cy="299.93" r="2.5" fill="#2563eb"/>
  <circle cx="344.52" cy="300.01" r="2.5" fill="#2563eb"/>
  <circle cx="346.03" cy="300.01" r="2.5" fill="#2563eb"/>
  <circle cx="347.55" cy="299.89" r="2.5" fill="#2563eb"/>
  <circle cx="349.07" cy="299.97" r="2.5" fill="#2563eb"/>
  <circle cx="350.58" cy="250.03" r="2.5" fill="#2563eb"/>
  <circle cx="352.10" cy="299.93" r="2.5" fill="#2563eb"/>
  <circle cx="353.62" cy="299.89" r="2.5" fill="#2563eb"/>
  <circle cx="355.13" cy="299.97" r="2.5" fill="#2563eb"/>
  <circle cx="356.65" cy="249.94" r="2.5" fill="#2563eb"/>
  <circle cx="358.17" cy="300.01" r="2.5" fill="#2563eb"/>
  <circle cx="359.68" cy="300.01" r="2.5" fill="#2563eb"/>
  <circle cx="361.20" cy="299.97" r="2.5" fill="#2563eb"/>
  <circle cx="362.72" cy="249.99" r="2.5" fill="#2563eb"/>
  <circle cx="364.23" cy="299.97" r="2.5" fill="#2563eb"/>
  <circle cx="365.75" cy="299.97" r="2.5" fill="#2563eb"/>
  <circle cx="367.27" cy="300.06" r="2.5" fill="#2563eb"/>
  <circle cx="368.78" cy="300.06" r="2.5" fill="#2563eb"/>
  <circle cx="370.30" cy="299.93" r="2.5" fill="#2563eb"/>
  <circle cx="371.82" cy="300.01" r="2.5" fill="#2563eb"/>
  <circle cx="373.33" cy="300.01" r="2.5" fill="#2563eb"/>
  <circle cx="374.85" cy="299.93" r="2.5" fill="#2563eb"/>
  <circle cx="376.37" cy="300.01" r="2.5" fill="#2563eb"/>
  <circle cx="377.88" cy="300.01" r="2.5" fill="#2563eb"/>
  <circle cx="379.40" cy="299.97" r="2.5" fill="#2563eb"/>
  <circle cx="380.92" cy="300.01" r="2.5" fill="#2563eb"/>
  <circle cx="382.43" cy="300.01" r="2.5" fill="#2563eb"/>
  <circle cx="383.95" cy="300.01" r="2.5" fill="#2563eb"/>
  <circle cx="385.47" cy="300.01" r="2.5" fill="#2563eb"/>
  <circle cx="386.98" cy="249.86" r="2.5" fill="#2563eb"/>
  <circle cx="388.50" cy="300.01" r="2.5" fill="#2563eb"/>
  <circle cx="390.02" cy="300.10" r="2.5" fill="#2563eb"/>
  <circle cx="391.53" cy="299.93" r="2.5" fill="#2563eb"/>
  <circle cx="393.05" cy="300.01" r="2.5" fill="#2563eb"/>
  <circle cx="394.57" cy="299.93" r="2.5" fill="#2563eb"/>
  <circle cx="396.08" cy="300.01" r="2.5" fill="#2563eb"/>
  <circle cx="397.60" cy="300.01" r="2.5" fill="#2563eb"/>
  <circle cx="399.12" cy="300.01" r="2.5" fill="#2563eb"/>
  <circle cx="400.63" cy="300.01" r="2.5" fill="#2563eb"/>
  <circle cx="402.15" cy="300.01" r="2.5" fill="#2563eb"/>
  <circle cx="403.67" cy="299.97" r="2.5" fill="#2563eb"/>
  <circle cx="405.18" cy="300.01" r="2.5" fill="#2563eb"/>
  <circle cx="406.70" cy="300.01" r="2.5" fill="#2563eb"/>
  <circle cx="408.22" cy="300.01" r="2.5" fill="#2563eb"/>
  <circle cx="409.73" cy="300.01" r="2.5" fill="#2563eb"/>
  <circle cx="411.25" cy="250.03" r="2.5" fill="#2563eb"/>
  <circle cx="412.77" cy="300.01" r="2.5" fill="#2563eb"/>
  <circle cx="414.28" cy="300.01" r="2.5" fill="#2563eb"/>
  <circle cx="415.80" cy="299.97" r="2.5" fill="#2563eb"/>
  <circle cx="417.32" cy="300.01" r="2.5" fill="#2563eb"/>
  <circle cx="418.83" cy="300.01" r="2.5" fill="#2563eb"/>
  <circle cx="420.35" cy="299.97" r="2.5" fill="#2563eb"/>
  <circle cx="421.87" cy="299.97" r="2.5" fill="#2563eb"/>
  <circle cx="423.38" cy="300.01" r="2.5" fill="#2563eb"/>
  <circle cx="424.90" cy="299.97" r="2.5" fill="#2563eb"/>
  <circle cx="426.42" cy="300.01" r="2.5" fill="#2563eb"/>
  <circle cx="427.93" cy="299.93" r="2.5" fill="#2563eb"/>
  <circle cx="429.45" cy="300.01" r="2.5" fill="#2563eb"/>
  <circle cx="430.97" cy="250.03" r="2.5" fill="#2563eb"/>
  <circle cx="432.48" cy="300.01" r="2.5" fill="#2563eb"/>
  <circle cx="434.00" cy="300.01" r="2.5" fill="#2563eb"/>
  <circle cx="435.52" cy="300.01" r="2.5" fill="#2563eb"/>
  <circle cx="437.03" cy="300.01" r="2.5" fill="#2563eb"/>
  <circle cx="438.55" cy="300.01" r="2.5" fill="#2563eb"/>
  <circle cx="440.07" cy="299.89" r="2.5" fill="#2563eb"/>
  <circle cx="441.58" cy="300.01" r="2.5" fill="#2563eb"/>
  <circle cx="443.10" cy="300.01" r="2.5" fill="#2563eb"/>
  <circle cx="444.62" cy="250.07" r="2.5" fill="#2563eb"/>
  <circle cx="446.13" cy="300.01" r="2.5" fill="#2563eb"/>
  <circle cx="447.65" cy="299.93" r="2.5" fill="#2563eb"/>
  <circle cx="449.17" cy="300.01" r="2.5" fill="#2563eb"/>
  <circle cx="450.68" cy="299.97" r="2.5" fill="#2563eb"/>
  <circle cx="452.20" cy="299.97" r="2.5" fill="#2563eb"/>
  <circle cx="453.72" cy="299.97" r="2.5" fill="#2563eb"/>
  <circle cx="455.23" cy="250.03" r="2.5" fill="#2563eb"/>
  <circle cx="456.75" cy="300.01" r="2.5" fill="#2563eb"/>
  <circle cx="458.27" cy="300.01" r="2.5" fill="#2563eb"/>
  <circle cx="459.78" cy="300.01" r="2.5" fill="#2563eb"/>
  <circle cx="461.30" cy="300.01" r="2.5" fill="#2563eb"/>
  <circle cx="462.82" cy="299.97" r="2.5" fill="#2563eb"/>
  <circle cx="464.33" cy="300.01" r="2.5" fill="#2563eb"/>
  <circle cx="465.85" cy="299.97" r="2.5" fill="#2563eb"/>
  <circle cx="467.37" cy="300.01" r="2.5" fill="#2563eb"/>
  <circle cx="468.88" cy="299.97" r="2.5" fill="#2563eb"/>
  <circle cx="470.40" cy="249.90" r="2.5" fill="#2563eb"/>
  <circle cx="471.92" cy="300.01" r="2.5" fill="#2563eb"/>
  <circle cx="473.43" cy="300.01" r="2.5" fill="#2563eb"/>
  <circle cx="474.95" cy="299.89" r="2.5" fill="#2563eb"/>
  <circle cx="476.47" cy="299.97" r="2.5" fill="#2563eb"/>
  <circle cx="477.98" cy="299.97" r="2.5" fill="#2563eb"/>
  <circle cx="479.50" cy="249.99" r="2.5" fill="#2563eb"/>
  <circle cx="481.02" cy="299.97" r="2.5" fill="#2563eb"/>
  <circle cx="482.53" cy="299.89" r="2.5" fill="#2563eb"/>
  <circle cx="484.05" cy="300.01" r="2.5" fill="#2563eb"/>
  <circle cx="485.57" cy="299.97" r="2.5" fill="#2563eb"/>
  <circle cx="487.08" cy="299.97" r="2.5" fill="#2563eb"/>
  <circle cx="488.60" cy="300.01" r="2.5" fill="#2563eb"/>
  <circle cx="490.12" cy="299.97" r="2.5" fill="#2563eb"/>
  <circle cx="491.63" cy="249.99" r="2.5" fill="#2563eb"/>
  <circle cx="493.15" cy="299.97" r="2.5" fill="#2563eb"/>
  <circle cx="494.67" cy="299.97" r="2.5" fill="#2563eb"/>
  <circle cx="496.18" cy="300.06" r="2.5" fill="#2563eb"/>
  <circle cx="497.70" cy="300.06" r="2.5" fill="#2563eb"/>
  <circle cx="499.22" cy="249.94" r="2.5" fill="#2563eb"/>
  <circle cx="500.73" cy="300.01" r="2.5" fill="#2563eb"/>
  <circle cx="502.25" cy="299.93" r="2.5" fill="#2563eb"/>
  <circle cx="503.77" cy="300.01" r="2.5" fill="#2563eb"/>
  <circle cx="505.28" cy="300.01" r="2.5" fill="#2563eb"/>
  <circle cx="506.80" cy="249.99" r="2.5" fill="#2563eb"/>
  <circle cx="508.32" cy="300.01" r="2.5" fill="#2563eb"/>
  <circle cx="509.83" cy="300.01" r="2.5" fill="#2563eb"/>
  <circle cx="511.35" cy="300.01" r="2.5" fill="#2563eb"/>
  <circle cx="512.87" cy="299.93" r="2.5" fill="#2563eb"/>
  <circle cx="514.38" cy="299.93" r="2.5" fill="#2563eb"/>
  <circle cx="515.90" cy="300.01" r="2.5" fill="#2563eb"/>
  <circle cx="517.42" cy="300.01" r="2.5" fill="#2563eb"/>
  <circle cx="518.93" cy="249.94" r="2.5" fill="#2563eb"/>
  <circle cx="520.45" cy="299.97" r="2.5" fill="#2563eb"/>
  <circle cx="521.97" cy="299.97" r="2.5" fill="#2563eb"/>
  <circle cx="523.48" cy="300.01" r="2.5" fill="#2563eb"/>
  <circle cx="525.00" cy="300.01" r="2.5" fill="#2563eb"/>
  <circle cx="526.52" cy="300.01" r="2.5" fill="#2563eb"/>
  <circle cx="528.03" cy="249.99" r="2.5" fill="#2563eb"/>
  <circle cx="529.55" cy="300.01" r="2.5" fill="#2563eb"/>
  <circle cx="531.07" cy="300.01" r="2.5" fill="#2563eb"/>
  <circle cx="532.58" cy="300.01" r="2.5" fill="#2563eb"/>
  <circle cx="534.10" cy="250.03" r="2.5" fill="#2563eb"/>
  <circle cx="535.62" cy="300.01" r="2.5" fill="#2563eb"/>
  <circle cx="537.13" cy="300.01" r="2.5" fill="#2563eb"/>
  <circle cx="538.65" cy="300.01" r="2.5" fill="#2563eb"/>
  <circle cx="540.17" cy="299.97" r="2.5" fill="#2563eb"/>
  <circle cx="541.68" cy="300.01" r="2.5" fill="#2563eb"/>
  <circle cx="543.20" cy="300.01" r="2.5" fill="#2563eb"/>
  <circle cx="544.72" cy="299.97" r="2.5" fill="#2563eb"/>
  <circle cx="546.23" cy="299.97" r="2.5" fill="#2563eb"/>
  <circle cx="547.75" cy="300.01" r="2.5" fill="#2563eb"/>
  <circle cx="549.27" cy="300.01" r="2.5" fill="#2563eb"/>
  <circle cx="550.78" cy="299.97" r="2.5" fill="#2563eb"/>
  <circle cx="552.30" cy="299.93" r="2.5" fill="#2563eb"/>
  <circle cx="553.82" cy="300.01" r="2.5" fill="#2563eb"/>
  <circle cx="555.33" cy="300.06" r="2.5" fill="#2563eb"/>
  <circle cx="556.85" cy="299.97" r="2.5" fill="#2563eb"/>
  <circle cx="558.37" cy="300.01" r="2.5" fill="#2563eb"/>
  <circle cx="559.88" cy="250.03" r="2.5" fill="#2563eb"/>
  <circle cx="561.40" cy="250.03" r="2.5" fill="#2563eb"/>
  <circle cx="562.92" cy="299.93" r="2.5" fill="#2563eb"/>
  <circle cx="564.43" cy="299.97" r="2.5" fill="#2563eb"/>
  <circle cx="565.95" cy="300.01" r="2.5" fill="#2563eb"/>
  <circle cx="567.47" cy="300.01" r="2.5" fill="#2563eb"/>
  <circle cx="568.98" cy="300.06" r="2.5" fill="#2563eb"/>
  <circle cx="570.50" cy="300.01" r="2.5" fill="#2563eb"/>
  <circle cx="572.02" cy="299.93" r="2.5" fill="#2563eb"/>
  <circle cx="573.53" cy="300.01" r="2.5" fill="#2563eb"/>
  <circle cx="575.05" cy="300.01" r="2.5" fill="#2563eb"/>
  <circle cx="576.57" cy="299.97" r="2.5" fill="#2563eb"/>
  <circle cx="578.08" cy="299.97" r="2.5" fill="#2563eb"/>
  <circle cx="579.60" cy="300.01" r="2.5" fill="#2563eb"/>
  <circle cx="581.12" cy="250.03" r="2.5" fill="#2563eb"/>
  <circle cx="582.63" cy="300.01" r="2.5" fill="#2563eb"/>
  <circle cx="584.15" cy="300.01" r="2.5" fill="#2563eb"/>
  <circle cx="585.67" cy="300.01" r="2.5" fill="#2563eb"/>
  <circle cx="587.18" cy="299.97" r="2.5" fill="#2563eb"/>
  <circle cx="588.70" cy="300.01" r="2.5" fill="#2563eb"/>
  <circle cx="590.22" cy="299.97" r="2.5" fill="#2563eb"/>
  <circle cx="591.73" cy="300.01" r="2.5" fill="#2563eb"/>
  <circle cx="593.25" cy="299.97" r="2.5" fill="#2563eb"/>
  <circle cx="594.77" cy="299.97" r="2.5" fill="#2563eb"/>
  <circle cx="596.28" cy="299.93" r="2.5" fill="#2563eb"/>
  <circle cx="597.80" cy="300.01" r="2.5" fill="#2563eb"/>
  <circle cx="599.32" cy="300.01" r="2.5" fill="#2563eb"/>
  <circle cx="600.83" cy="299.89" r="2.5" fill="#2563eb"/>
  <circle cx="602.35" cy="299.97" r="2.5" fill="#2563eb"/>
  <circle cx="603.87" cy="299.97" r="2.5" fill="#2563eb"/>
  <circle cx="605.38" cy="300.06" r="2.5" fill="#2563eb"/>
  <circle cx="606.90" cy="249.90" r="2.5" fill="#2563eb"/>
  <circle cx="608.42" cy="299.89" r="2.5" fill="#2563eb"/>
  <circle cx="609.93" cy="300.01" r="2.5" fill="#2563eb"/>
  <circle cx="611.45" cy="299.97" r="2.5" fill="#2563eb"/>
  <circle cx="612.97" cy="299.97" r="2.5" fill="#2563eb"/>
  <circle cx="614.48" cy="299.97" r="2.5" fill="#2563eb"/>
  <circle cx="616.00" cy="300.01" r="2.5" fill="#2563eb"/>
  <circle cx="617.52" cy="300.01" r="2.5" fill="#2563eb"/>
  <circle cx="619.03" cy="299.97" r="2.5" fill="#2563eb"/>
  <circle cx="620.55" cy="299.97" r="2.5" fill="#2563eb"/>
  <circle cx="622.07" cy="299.97" r="2.5" fill="#2563eb"/>
  <circle cx="623.58" cy="250.03" r="2.5" fill="#2563eb"/>
  <circle cx="625.10" cy="299.93" r="2.5" fill="#2563eb"/>
  <circle cx="626.62" cy="300.01" r="2.5" fill="#2563eb"/>
  <circle cx="628.13" cy="300.01" r="2.5" fill="#2563eb"/>
  <circle cx="629.65" cy="299.93" r="2.5" fill="#2563eb"/>
  <circle cx="631.17" cy="300.01" r="2.5" fill="#2563eb"/>
  <circle cx="632.68" cy="300.01" r="2.5" fill="#2563eb"/>
  <circle cx="634.20" cy="299.97" r="2.5" fill="#2563eb"/>
  <circle cx="635.72" cy="300.01" r="2.5" fill="#2563eb"/>
  <circle cx="637.23" cy="300.01" r="2.5" fill="#2563eb"/>
  <circle cx="638.75" cy="300.06" r="2.5" fill="#2563eb"/>
  <circle cx="640.27" cy="300.01" r="2.5" fill="#2563eb"/>
  <circle cx="641.78" cy="299.97" r="2.5" fill="#2563eb"/>
  <circle cx="643.30" cy="299.89" r="2.5" fill="#2563eb"/>
  <circle cx="644.82" cy="300.01" r="2.5" fill="#2563eb"/>
  <circle cx="646.33" cy="300.01" r="2.5" fill="#2563eb"/>
  <circle cx="647.85" cy="249.94" r="2.5" fill="#2563eb"/>
  <circle cx="649.37" cy="249.94" r="2.5" fill="#2563eb"/>
  <circle cx="650.88" cy="300.01" r="2.5" fill="#2563eb"/>
  <circle cx="652.40" cy="300.01" r="2.5" fill="#2563eb"/>
  <circle cx="653.92" cy="300.01" r="2.5" fill="#2563eb"/>
  <circle cx="655.43" cy="300.01" r="2.5" fill="#2563eb"/>
  <circle cx="656.95" cy="299.97" r="2.5" fill="#2563eb"/>
  <circle cx="658.47" cy="250.03" r="2.5" fill="#2563eb"/>
  <circle cx="659.98" cy="300.01" r="2.5" fill="#2563eb"/>
  <circle cx="661.50" cy="300.01" r="2.5" fill="#2563eb"/>
  <circle cx="663.02" cy="300.01" r="2.5" fill="#2563eb"/>
  <circle cx="664.53" cy="300.01" r="2.5" fill="#2563eb"/>
  <circle cx="666.05" cy="250.03" r="2.5" fill="#2563eb"/>
  <circle cx="667.57" cy="249.99" r="2.5" fill="#2563eb"/>
  <circle cx="669.08" cy="300.01" r="2.5" fill="#2563eb"/>
  <circle cx="670.60" cy="299.97" r="2.5" fill="#2563eb"/>
  <circle cx="672.12" cy="300.01" r="2.5" fill="#2563eb"/>
  <circle cx="673.63" cy="299.97" r="2.5" fill="#2563eb"/>
  <circle cx="675.15" cy="300.01" r="2.5" fill="#2563eb"/>
  <circle cx="676.67" cy="299.97" r="2.5" fill="#2563eb"/>
  <circle cx="678.18" cy="299.97" r="2.5" fill="#2563eb"/>
  <circle cx="679.70" cy="299.97" r="2.5" fill="#2563eb"/>
  <circle cx="681.22" cy="300.06" r="2.5" fill="#2563eb"/>
  <circle cx="682.73" cy="249.99" r="2.5" fill="#2563eb"/>
  <circle cx="684.25" cy="300.01" r="2.5" fill="#2563eb"/>
  <circle cx="685.77" cy="250.03" r="2.5" fill="#2563eb"/>
  <circle cx="687.28" cy="249.94" r="2.5" fill="#2563eb"/>
  <circle cx="688.80" cy="249.99" r="2.5" fill="#2563eb"/>
  <circle cx="690.32" cy="300.01" r="2.5" fill="#2563eb"/>
  <circle cx="691.83" cy="300.06" r="2.5" fill="#2563eb"/>
  <circle cx="693.35" cy="300.01" r="2.5" fill="#2563eb"/>
  <circle cx="694.87" cy="299.97" r="2.5" fill="#2563eb"/>
  <circle cx="696.38" cy="299.97" r="2.5" fill="#2563eb"/>
  <circle cx="697.90" cy="300.01" r="2.5" fill="#2563eb"/>
  <circle cx="699.42" cy="299.93" r="2.5" fill="#2563eb"/>
  <circle cx="700.93" cy="299.89" r="2.5" fill="#2563eb"/>
  <circle cx="702.45" cy="299.89" r="2.5" fill="#2563eb"/>
  <circle cx="703.97" cy="299.89" r="2.5" fill="#2563eb"/>
  <circle cx="705.48" cy="299.89" r="2.5" fill="#2563eb"/>
  <circle cx="707.00" cy="299.85" r="2.5" fill="#2563eb"/>
  <circle cx="708.52" cy="299.85" r="2.5" fill="#2563eb"/>
  <circle cx="710.03" cy="299.89" r="2.5" fill="#2563eb"/>
  <circle cx="711.55" cy="299.81" r="2.5" fill="#2563eb"/>
  <circle cx="713.07" cy="299.81" r="2.5" fill="#2563eb"/>
  <circle cx="714.58" cy="299.81" r="2.5" fill="#2563eb"/>
  <circle cx="716.10" cy="299.76" r="2.5" fill="#2563eb"/>
  <circle cx="717.62" cy="299.76" r="2.5" fill="#2563eb"/>
  <circle cx="719.13" cy="299.76" r="2.5" fill="#2563eb"/>
  <circle cx="720.65" cy="299.72" r="2.5" fill="#2563eb"/>
  <circle cx="722.17" cy="299.68" r="2.5" fill="#2563eb"/>
  <circle cx="723.68" cy="299.60" r="2.5" fill="#2563eb"/>
  <circle cx="725.20" cy="299.60" r="2.5" fill="#2563eb"/>
  <circle cx="726.72" cy="299.60" r="2.5" fill="#2563eb"/>
  <circle cx="728.23" cy="299.56" r="2.5" fill="#2563eb"/>
  <circle cx="729.75" cy="299.47" r="2.5" fill="#2563eb"/>
  <circle cx="731.27" cy="299.43" r="2.5" fill="#2563eb"/>
  <circle cx="732.78" cy="299.43" r="2.5" fill="#2563eb"/>
  <circle cx="734.30" cy="299.39" r="2.5" fill="#2563eb"/>
  <circle cx="735.82" cy="299.47" r="2.5" fill="#2563eb"/>
  <circle cx="737.33" cy="259.82" r="2.5" fill="#2563eb"/>
  <circle cx="738.85" cy="338.96" r="2.5" fill="#2563eb"/>
  <circle cx="740.37" cy="299.31" r="2.5" fill="#2563eb"/>
  <circle cx="741.88" cy="299.31" r="2.5" fill="#2563eb"/>
  <circle cx="743.40" cy="299.26" r="2.5" fill="#2563eb"/>
  <circle cx="744.92" cy="299.68" r="2.5" fill="#2563eb"/>
  <circle cx="746.43" cy="299.68" r="2.5" fill="#2563eb"/>
  <circle cx="747.95" cy="299.68" r="2.5" fill="#2563eb"/>
  <circle cx="749.47" cy="299.64" r="2.5" fill="#2563eb"/>
  <circle cx="750.98" cy="299.14" r="2.5" fill="#2563eb"/>
  <circle cx="752.50" cy="299.14" r="2.5" fill="#2563eb"/>
  <circle cx="754.02" cy="299.10" r="2.5" fill="#2563eb"/>
  <circle cx="755.53" cy="299.10" r="2.5" fill="#2563eb"/>
  <circle cx="757.05" cy="299.10" r="2.5" fill="#2563eb"/>
  <circle cx="758.57" cy="248.07" r="2.5" fill="#2563eb"/>
  <circle cx="760.08" cy="299.06" r="2.5" fill="#2563eb"/>
  <circle cx="761.60" cy="299.06" r="2.5" fill="#2563eb"/>
  <circle cx="763.12" cy="299.06" r="2.5" fill="#2563eb"/>
  <circle cx="764.63" cy="299.06" r="2.5" fill="#2563eb"/>
  <circle cx="766.15" cy="299.06" r="2.5" fill="#2563eb"/>
  <circle cx="767.67" cy="298.97" r="2.5" fill="#2563eb"/>
  <circle cx="769.18" cy="298.97" r="2.5" fill="#2563eb"/>
  <circle cx="770.70" cy="298.93" r="2.5" fill="#2563eb"/>
  <circle cx="772.22" cy="298.97" r="2.5" fill="#2563eb"/>
  <circle cx="773.73" cy="298.93" r="2.5" fill="#2563eb"/>
  <circle cx="775.25" cy="298.89" r="2.5" fill="#2563eb"/>
  <circle cx="776.77" cy="298.89" r="2.5" fill="#2563eb"/>
  <circle cx="778.28" cy="298.89" r="2.5" fill="#2563eb"/>
  <circle cx="779.80" cy="298.89" r="2.5" fill="#2563eb"/>
  <circle cx="781.32" cy="247.78" r="2.5" fill="#2563eb"/>
  <circle cx="782.83" cy="298.89" r="2.5" fill="#2563eb"/>
  <circle cx="784.35" cy="298.89" r="2.5" fill="#2563eb"/>
  <circle cx="785.87" cy="298.85" r="2.5" fill="#2563eb"/>
  <circle cx="787.38" cy="298.85" r="2.5" fill="#2563eb"/>
  <circle cx="788.90" cy="298.81" r="2.5" fill="#2563eb"/>
  <circle cx="790.42" cy="298.81" r="2.5" fill="#2563eb"/>
  <circle cx="791.93" cy="298.81" r="2.5" fill="#2563eb"/>
  <circle cx="793.45" cy="298.81" r="2.5" fill="#2563eb"/>
  <circle cx="794.97" cy="298.81" r="2.5" fill="#2563eb"/>
  <circle cx="796.48" cy="298.81" r="2.5" fill="#2563eb"/>
  <circle cx="798.00" cy="298.81" r="2.5" fill="#2563eb"/>
  <circle cx="799.52" cy="298.81" r="2.5" fill="#2563eb"/>
  <circle cx="801.03" cy="298.81" r="2.5" fill="#2563eb"/>
  <circle cx="802.55" cy="298.72" r="2.5" fill="#2563eb"/>
  <circle cx="804.07" cy="247.45" r="2.5" fill="#2563eb"/>
  <circle cx="805.58" cy="247.45" r="2.5" fill="#2563eb"/>
  <circle cx="807.10" cy="298.72" r="2.5" fill="#2563eb"/>
  <circle cx="808.62" cy="298.72" r="2.5" fill="#2563eb"/>
  <circle cx="810.13" cy="298.72" r="2.5" fill="#2563eb"/>
  <circle cx="811.65" cy="298.72" r="2.5" fill="#2563eb"/>
  <circle cx="813.17" cy="298.72" r="2.5" fill="#2563eb"/>
  <circle cx="814.68" cy="298.72" r="2.5" fill="#2563eb"/>
  <circle cx="816.20" cy="247.36" r="2.5" fill="#2563eb"/>
  <circle cx="817.72" cy="298.68" r="2.5" fill="#2563eb"/>
  <circle cx="819.23" cy="247.36" r="2.5" fill="#2563eb"/>
  <circle cx="820.75" cy="247.36" r="2.5" fill="#2563eb"/>
  <circle cx="822.27" cy="247.36" r="2.5" fill="#2563eb"/>
  <circle cx="823.78" cy="298.68" r="2.5" fill="#2563eb"/>
  <circle cx="825.30" cy="298.68" r="2.5" fill="#2563eb"/>
  <circle cx="826.82" cy="298.68" r="2.5" fill="#2563eb"/>
  <circle cx="828.33" cy="298.68" r="2.5" fill="#2563eb"/>
  <circle cx="829.85" cy="298.68" r="2.5" fill="#2563eb"/>
  <circle cx="831.37" cy="341.67" r="2.5" fill="#2563eb"/>
  <circle cx="832.88" cy="307.01" r="2.5" fill="#2563eb"/>
  <circle cx="834.40" cy="298.68" r="2.5" fill="#2563eb"/>
  <circle cx="835.92" cy="298.68" r="2.5" fill="#2563eb"/>
  <circle cx="837.43" cy="298.68" r="2.5" fill="#2563eb"/>
  <circle cx="838.95" cy="247.36" r="2.5" fill="#2563eb"/>
  <circle cx="840.47" cy="298.64" r="2.5" fill="#2563eb"/>
  <circle cx="841.98" cy="247.36" r="2.5" fill="#2563eb"/>
  <circle cx="843.50" cy="247.28" r="2.5" fill="#2563eb"/>
  <circle cx="845.02" cy="247.20" r="2.5" fill="#2563eb"/>
  <circle cx="846.53" cy="298.60" r="2.5" fill="#2563eb"/>
  <circle cx="848.05" cy="298.60" r="2.5" fill="#2563eb"/>
  <circle cx="849.57" cy="247.03" r="2.5" fill="#2563eb"/>
  <circle cx="851.08" cy="298.51" r="2.5" fill="#2563eb"/>
  <circle cx="852.60" cy="298.51" r="2.5" fill="#2563eb"/>
  <circle cx="854.12" cy="298.51" r="2.5" fill="#2563eb"/>
  <circle cx="855.63" cy="298.51" r="2.5" fill="#2563eb"/>
  <circle cx="857.15" cy="298.51" r="2.5" fill="#2563eb"/>
  <circle cx="858.67" cy="298.51" r="2.5" fill="#2563eb"/>
  <circle cx="860.18" cy="298.51" r="2.5" fill="#2563eb"/>
  <circle cx="861.70" cy="298.51" r="2.5" fill="#2563eb"/>
  <circle cx="863.22" cy="298.51" r="2.5" fill="#2563eb"/>
  <circle cx="864.73" cy="298.51" r="2.5" fill="#2563eb"/>
  <circle cx="866.25" cy="298.51" r="2.5" fill="#2563eb"/>
  <circle cx="867.77" cy="298.51" r="2.5" fill="#2563eb"/>
  <circle cx="869.28" cy="298.51" r="2.5" fill="#2563eb"/>
  <circle cx="870.80" cy="298.51" r="2.5" fill="#2563eb"/>
  <circle cx="872.32" cy="298.51" r="2.5" fill="#2563eb"/>
  <circle cx="873.83" cy="298.51" r="2.5" fill="#2563eb"/>
  <circle cx="875.35" cy="298.51" r="2.5" fill="#2563eb"/>
  <circle cx="876.87" cy="298.51" r="2.5" fill="#2563eb"/>
  <circle cx="878.38" cy="298.51" r="2.5" fill="#2563eb"/>
  <circle cx="879.90" cy="298.51" r="2.5" fill="#2563eb"/>
  <circle cx="881.42" cy="298.51" r="2.5" fill="#2563eb"/>
  <circle cx="882.93" cy="298.51" r="2.5" fill="#2563eb"/>
  <circle cx="884.45" cy="298.51" r="2.5" fill="#2563eb"/>
  <circle cx="885.97" cy="298.51" r="2.5" fill="#2563eb"/>
  <circle cx="887.48" cy="298.51" r="2.5" fill="#2563eb"/>
  <circle cx="889.00" cy="298.51" r="2.5" fill="#2563eb"/>
  <circle cx="890.52" cy="298.47" r="2.5" fill="#2563eb"/>
  <circle cx="892.03" cy="298.51" r="2.5" fill="#2563eb"/>
  <circle cx="893.55" cy="298.51" r="2.5" fill="#2563eb"/>
  <circle cx="895.07" cy="298.47" r="2.5" fill="#2563eb"/>
  <circle cx="896.58" cy="298.51" r="2.5" fill="#2563eb"/>
  <circle cx="898.10" cy="298.47" r="2.5" fill="#2563eb"/>
  <circle cx="899.62" cy="298.51" r="2.5" fill="#2563eb"/>
  <circle cx="901.13" cy="298.43" r="2.5" fill="#2563eb"/>
  <circle cx="902.65" cy="298.56" r="2.5" fill="#2563eb"/>
  <circle cx="904.17" cy="298.43" r="2.5" fill="#2563eb"/>
  <circle cx="905.68" cy="298.43" r="2.5" fill="#2563eb"/>
  <circle cx="907.20" cy="298.43" r="2.5" fill="#2563eb"/>
  <circle cx="908.72" cy="298.43" r="2.5" fill="#2563eb"/>
  <circle cx="910.23" cy="298.43" r="2.5" fill="#2563eb"/>
  <circle cx="911.75" cy="298.43" r="2.5" fill="#2563eb"/>
  <circle cx="913.27" cy="298.43" r="2.5" fill="#2563eb"/>
  <circle cx="914.78" cy="298.43" r="2.5" fill="#2563eb"/>
  <circle cx="916.30" cy="298.43" r="2.5" fill="#2563eb"/>
  <circle cx="917.82" cy="298.43" r="2.5" fill="#2563eb"/>
  <circle cx="919.33" cy="298.43" r="2.5" fill="#2563eb"/>
  <circle cx="920.85" cy="298.43" r="2.5" fill="#2563eb"/>
  <circle cx="922.37" cy="298.43" r="2.5" fill="#2563eb"/>
  <circle cx="923.88" cy="298.43" r="2.5" fill="#2563eb"/>
  <circle cx="925.40" cy="298.43" r="2.5" fill="#2563eb"/>
  <circle cx="926.92" cy="298.43" r="2.5" fill="#2563eb"/>
  <circle cx="928.43" cy="298.43" r="2.5" fill="#2563eb"/>
  <circle cx="929.95" cy="298.43" r="2.5" fill="#2563eb"/>
  <circle cx="931.47" cy="298.43" r="2.5" fill="#2563eb"/>
  <circle cx="932.98" cy="298.43" r="2.5" fill="#2563eb"/>
  <circle cx="934.50" cy="298.43" r="2.5" fill="#2563eb"/>
  <circle cx="936.02" cy="298.43" r="2.5" fill="#2563eb"/>
  <circle cx="937.53" cy="298.43" r="2.5" fill="#2563eb"/>
  <circle cx="939.05" cy="298.43" r="2.5" fill="#2563eb"/>
  <circle cx="940.57" cy="298.43" r="2.5" fill="#2563eb"/>
  <circle cx="942.08" cy="298.43" r="2.5" fill="#2563eb"/>
  <circle cx="943.60" cy="298.43" r="2.5" fill="#2563eb"/>
  <circle cx="945.12" cy="298.43" r="2.5" fill="#2563eb"/>
  <circle cx="946.63" cy="298.43" r="2.5" fill="#2563eb"/>
  <circle cx="948.15" cy="298.43" r="2.5" fill="#2563eb"/>
  <circle cx="949.67" cy="298.43" r="2.5" fill="#2563eb"/>
  <circle cx="951.18" cy="298.43" r="2.5" fill="#2563eb"/>
  <circle cx="952.70" cy="298.43" r="2.5" fill="#2563eb"/>
  <circle cx="954.22" cy="298.43" r="2.5" fill="#2563eb"/>
  <circle cx="955.73" cy="298.39" r="2.5" fill="#2563eb"/>
  <circle cx="957.25" cy="298.39" r="2.5" fill="#2563eb"/>
  <circle cx="958.77" cy="298.43" r="2.5" fill="#2563eb"/>
  <circle cx="960.28" cy="298.43" r="2.5" fill="#2563eb"/>
  <circle cx="961.80" cy="298.39" r="2.5" fill="#2563eb"/>
  <circle cx="963.32" cy="298.39" r="2.5" fill="#2563eb"/>
  <circle cx="964.83" cy="298.39" r="2.5" fill="#2563eb"/>
  <circle cx="966.35" cy="298.43" r="2.5" fill="#2563eb"/>
  <circle cx="967.87" cy="298.43" r="2.5" fill="#2563eb"/>
  <circle cx="969.38" cy="298.43" r="2.5" fill="#2563eb"/>
  <circle cx="970.90" cy="246.82" r="2.5" fill="#2563eb"/>
  <circle cx="972.42" cy="298.43" r="2.5" fill="#2563eb"/>
  <circle cx="973.93" cy="246.78" r="2.5" fill="#2563eb"/>
  <circle cx="975.45" cy="246.78" r="2.5" fill="#2563eb"/>
  <circle cx="976.97" cy="246.78" r="2.5" fill="#2563eb"/>
  <circle cx="978.48" cy="246.70" r="2.5" fill="#2563eb"/>
  <circle cx="980.00" cy="246.78" r="2.5" fill="#2563eb"/>
</svg>
