<?xml version="1.0" encoding="UTF-8"?>
<svg xmlns="http://www.w3.org/2000/svg" width="1000" height="420" viewBox="0 0 1000 420">
  <rect width="100%" height="100%" fill="#ffffff"/>
  <text x="70" y="28" font-size="20" font-weight="600">수집 시점 기준 - 시간별 스냅샷</text>
  <text x="70" y="402" font-size="12" fill="#555">스냅샷 수</text>
  <line x1="70" y1="350.00" x2="980" y2="350.00" stroke="#e5e7eb" stroke-width="1"/>
  <text x="62" y="354.00" font-size="11" fill="#6b7280" text-anchor="end">0</text>
  <line x1="70" y1="290.00" x2="980" y2="290.00" stroke="#e5e7eb" stroke-width="1"/>
  <text x="62" y="294.00" font-size="11" fill="#6b7280" text-anchor="end">1,440</text>
  <line x1="70" y1="230.00" x2="980" y2="230.00" stroke="#e5e7eb" stroke-width="1"/>
  <text x="62" y="234.00" font-size="11" fill="#6b7280" text-anchor="end">2,880</text>
  <line x1="70" y1="170.00" x2="980" y2="170.00" stroke="#e5e7eb" stroke-width="1"/>
  <text x="62" y="174.00" font-size="11" fill="#6b7280" text-anchor="end">4,321</text>
  <line x1="70" y1="110.00" x2="980" y2="110.00" stroke="#e5e7eb" stroke-width="1"/>
  <text x="62" y="114.00" font-size="11" fill="#6b7280" text-anchor="end">5,761</text>
  <line x1="70" y1="50.00" x2="980" y2="50.00" stroke="#e5e7eb" stroke-width="1"/>
  <text x="62" y="54.00" font-size="11" fill="#6b7280" text-anchor="end">7,202</text>
  <line x1="70" y1="350" x2="980" y2="350" stroke="#111827" stroke-width="1.2"/>
  <line x1="70" y1="50" x2="70" y2="350" stroke="#111827" stroke-width="1.2"/>
  <line x1="70.00" y1="350" x2="70.00" y2="356" stroke="#9ca3af" stroke-width="1"/>
  <text x="70.00" y="372" font-size="10" fill="#6b7280" text-anchor="middle">2026-02-28 18</text>
  <line x1="145.04" y1="350" x2="145.04" y2="356" stroke="#9ca3af" stroke-width="1"/>
  <text x="145.04" y="372" font-size="10" fill="#6b7280" text-anchor="middle">2026-03-09 12</text>
  <line x1="220.07" y1="350" x2="220.07" y2="356" stroke="#9ca3af" stroke-width="1"/>
  <text x="220.07" y="372" font-size="10" fill="#6b7280" text-anchor="middle">2026-03-11 23</text>
  <line x1="295.11" y1="350" x2="295.11" y2="356" stroke="#9ca3af" stroke-width="1"/>
  <text x="295.11" y="372" font-size="10" fill="#6b7280" text-anchor="middle">2026-03-14 13</text>
  <line x1="370.15" y1="350" x2="370.15" y2="356" stroke="#9ca3af" stroke-width="1"/>
  <text x="370.15" y="372" font-size="10" fill="#6b7280" text-anchor="middle">2026-03-18 00</text>
  <line x1="445.19" y1="350" x2="445.19" y2="356" stroke="#9ca3af" stroke-width="1"/>
  <text x="445.19" y="372" font-size="10" fill="#6b7280" text-anchor="middle">2026-03-21 12</text>
  <line x1="520.22" y1="350" x2="520.22" y2="356" stroke="#9ca3af" stroke-width="1"/>
  <text x="520.22" y="372" font-size="10" fill="#6b7280" text-anchor="middle">2026-03-24 20</text>
  <line x1="595.26" y1="350" x2="595.26" y2="356" stroke="#9ca3af" stroke-width="1"/>
  <text x="595.26" y="372" font-size="10" fill="#6b7280" text-anchor="middle">2026-03-28 15</text>
  <line x1="670.30" y1="350" x2="670.30" y2="356" stroke="#9ca3af" stroke-width="1"/>
  <text x="670.30" y="372" font-size="10" fill="#6b7280" text-anchor="middle">2026-04-01 08</text>
  <line x1="745.34" y1="350" x2="745.34" y2="356" stroke="#9ca3af" stroke-width="1"/>
  <text x="745.34" y="372" font-size="10" fill="#6b7280" text-anchor="middle">2026-04-05 02</text>
  <line x1="820.37" y1="350" x2="820.37" y2="356" stroke="#9ca3af" stroke-width="1"/>
  <text x="820.37" y="372" font-size="10" fill="#6b7280" text-anchor="middle">2026-04-08 23</text>
  <line x1="895.41" y1="350" x2="895.41" y2="356" stroke="#9ca3af" stroke-width="1"/>
  <text x="895.41" y="372" font-size="10" fill="#6b7280" text-anchor="middle">2026-04-12 19</text>
  <line x1="970.45" y1="350" x2="970.45" y2="356" stroke="#9ca3af" stroke-width="1"/>
  <text x="970.45" y="372" font-size="10" fill="#6b7280" text-anchor="middle">2026-04-17 01</text>
  <line x1="980.00" y1="350" x2="980.00" y2="356" stroke="#9ca3af" stroke-width="1"/>
  <text x="980.00" y="372" font-size="10" fill="#6b7280" text-anchor="middle">2026-04-17 12</text>
  <polyline fill="none" stroke="#2563eb" stroke-width="2.5" points="70.00,50.00 71.36,50.12 72.73,50.17 74.09,50.46 75.46,50.00 76.82,266.90 78.19,50.12 79.55,50.08 80.91,177.46 82.28,211.58 83.64,175.34 85.01,304.14 86.37,200.46 87.74,250.94 89.10,300.01 90.46,300.06 91.83,300.01 93.19,300.01 94.56,348.00 95.92,300.01 97.29,249.99 98.65,200.00 100.01,249.99 101.38,249.99 102.74,250.03 104.11,250.03 105.47,250.03 106.84,250.40 108.20,250.90 109.57,250.90 110.93,251.32 112.29,249.94 113.66,300.01 115.02,299.93 116.39,251.03 117.75,300.68 119.12,250.03 120.48,200.00 121.84,249.99 123.21,250.03 124.57,250.03 125.94,250.03 127.30,300.01 128.67,200.04 130.03,250.03 131.39,250.03 132.76,250.03 134.12,249.90 135.49,250.03 136.85,250.03 138.22,250.94 139.58,250.44 140.94,250.03 142.31,250.03 143.67,300.47 145.04,300.01 146.40,300.43 147.77,250.03 149.13,249.99 150.49,300.43 151.86,249.90 153.22,249.99 154.59,249.99 155.95,200.04 157.32,300.01 158.68,300.01 160.04,300.01 161.41,249.90 162.77,300.01 164.14,250.03 165.50,249.99 166.87,199.96 168.23,300.01 169.60,200.00 170.96,250.36 172.32,250.03 173.69,300.01 175.05,300.01 176.42,250.44 177.78,300.01 179.15,250.03 180.51,250.03 181.87,249.99 183.24,250.49 184.60,250.03 185.97,200.04 187.33,300.01 188.70,250.03 190.06,300.01 191.42,250.11 192.79,300.01 194.15,250.03 195.52,250.03 196.88,199.92 198.25,250.03 199.61,250.03 200.97,250.03 202.34,254.36 203.70,300.01 205.07,299.97 206.43,250.36 207.80,299.97 209.16,250.03 210.52,250.03 211.89,250.03 213.25,250.03 214.62,249.99 215.98,200.00 217.35,299.93 218.71,300.01 220.07,299.97 221.44,249.94 222.80,249.99 224.17,249.82 225.53,249.94 226.90,250.28 228.26,207.00 229.63,250.03 230.99,250.32 232.35,250.40 233.72,300.93 235.08,300.01 236.45,300.10 237.81,249.94 239.18,249.99 240.54,250.07 241.90,249.99 243.27,250.03 244.63,249.94 246.00,200.00 247.36,300.39 248.73,300.01 250.09,300.01 251.45,250.44 252.82,300.39 254.18,249.86 255.55,250.11 256.91,201.46 258.28,300.01 259.64,200.83 261.00,250.03 262.37,249.99 263.73,300.26 265.10,300.01 266.46,300.01 267.83,250.03 269.19,250.03 270.55,250.03 271.92,250.03 273.28,249.99 274.65,250.03 276.01,200.00 277.38,300.26 278.74,249.99 280.10,300.01 281.47,249.94 282.83,250.03 284.20,250.03 285.56,250.03 286.93,200.04 288.29,300.01 289.66,249.90 291.02,300.01 292.38,300.01 293.75,300.06 295.11,300.01 296.48,300.01 297.84,243.95 299.21,249.94 300.57,299.97 301.93,300.01 303.30,300.01 304.66,250.03 306.03,300.01 307.39,300.01 308.76,299.97 310.12,249.99 311.48,300.01 312.85,299.93 314.21,300.01 315.58,299.93 316.94,300.01 318.31,300.01 319.67,299.89 321.03,299.97 322.40,250.03 323.76,299.93 325.13,299.89 326.49,299.97 327.86,249.94 329.22,300.01 330.58,300.01 331.95,299.97 333.31,249.99 334.68,299.97 336.04,299.97 337.41,300.06 338.77,300.06 340.13,299.93 341.50,300.01 342.86,300.01 344.23,299.93 345.59,300.01 346.96,300.01 348.32,299.97 349.69,300.01 351.05,300.01 352.41,300.01 353.78,300.01 355.14,249.86 356.51,300.01 357.87,300.10 359.24,299.93 360.60,300.01 361.96,299.93 363.33,300.01 364.69,300.01 366.06,300.01 367.42,300.01 368.79,300.01 370.15,299.97 371.51,300.01 372.88,300.01 374.24,300.01 375.61,300.01 376.97,250.03 378.34,300.01 379.70,300.01 381.06,299.97 382.43,300.01 383.79,300.01 385.16,299.97 386.52,299.97 387.89,300.01 389.25,299.97 390.61,300.01 391.98,299.93 393.34,300.01 394.71,250.03 396.07,300.01 397.44,300.01 398.80,300.01 400.16,300.01 401.53,300.01 402.89,299.89 404.26,300.01 405.62,300.01 406.99,250.07 408.35,300.01 409.72,299.93 411.08,300.01 412.44,299.97 413.81,299.97 415.17,299.97 416.54,250.03 417.90,300.01 419.27,300.01 420.63,300.01 421.99,300.01 423.36,299.97 424.72,300.01 426.09,299.97 427.45,300.01 428.82,299.97 430.18,249.90 431.54,300.01 432.91,300.01 434.27,299.89 435.64,299.97 437.00,299.97 438.37,249.99 439.73,299.97 441.09,299.89 442.46,300.01 443.82,299.97 445.19,299.97 446.55,300.01 447.92,299.97 449.28,249.99 450.64,299.97 452.01,299.97 453.37,300.06 454.74,300.06 456.10,249.94 457.47,300.01 458.83,299.93 460.19,300.01 461.56,300.01 462.92,249.99 464.29,300.01 465.65,300.01 467.02,300.01 468.38,299.93 469.75,299.93 471.11,300.01 472.47,300.01 473.84,249.94 475.20,299.97 476.57,299.97 477.93,300.01 479.30,300.01 480.66,300.01 482.02,249.99 483.39,300.01 484.75,300.01 486.12,300.01 487.48,250.03 488.85,300.01 490.21,300.01 491.57,300.01 492.94,299.97 494.30,300.01 495.67,300.01 497.03,299.97 498.40,299.97 499.76,300.01 501.12,300.01 502.49,299.97 503.85,299.93 505.22,300.01 506.58,300.06 507.95,299.97 509.31,300.01 510.67,250.03 512.04,250.03 513.40,299.93 514.77,299.97 516.13,300.01 517.50,300.01 518.86,300.06 520.22,300.01 521.59,299.93 522.95,300.01 524.32,300.01 525.68,299.97 527.05,299.97 528.41,300.01 529.78,250.03 531.14,300.01 532.50,300.01 533.87,300.01 535.23,299.97 536.60,300.01 537.96,299.97 539.33,300.01 540.69,299.97 542.05,299.97 543.42,299.93 544.78,300.01 546.15,300.01 547.51,299.89 548.88,299.97 550.24,299.97 551.60,300.06 552.97,249.90 554.33,299.89 555.70,300.01 557.06,299.97 558.43,299.97 559.79,299.97 561.15,300.01 562.52,300.01 563.88,299.97 565.25,299.97 566.61,299.97 567.98,250.03 569.34,299.93 570.70,300.01 572.07,300.01 573.43,299.93 574.80,300.01 576.16,300.01 577.53,299.97 578.89,300.01 580.25,300.01 581.62,300.06 582.98,300.01 584.35,299.97 585.71,299.89 587.08,300.01 588.44,300.01 589.81,249.94 591.17,249.94 592.53,300.01 593.90,300.01 595.26,300.01 596.63,300.01 597.99,299.97 599.36,250.03 600.72,300.01 602.08,300.01 603.45,300.01 604.81,300.01 606.18,250.03 607.54,249.99 608.91,300.01 610.27,299.97 611.63,300.01 613.00,299.97 614.36,300.01 615.73,299.97 617.09,299.97 618.46,299.97 619.82,300.06 621.18,249.99 622.55,300.01 623.91,250.03 625.28,249.94 626.64,249.99 628.01,300.01 629.37,300.06 630.73,300.01 632.10,299.97 633.46,299.97 634.83,300.01 636.19,299.93 637.56,299.89 638.92,299.89 640.28,299.89 641.65,299.89 643.01,299.85 644.38,299.85 645.74,299.89 647.11,299.81 648.47,299.81 649.84,299.81 651.20,299.76 652.56,299.76 653.93,299.76 655.29,299.72 656.66,299.68 658.02,299.60 659.39,299.60 660.75,299.60 662.11,299.56 663.48,299.47 664.84,299.43 666.21,299.43 667.57,299.39 668.94,299.47 670.30,259.82 671.66,338.96 673.03,299.31 674.39,299.31 675.76,299.26 677.12,299.68 678.49,299.68 679.85,299.68 681.21,299.64 682.58,299.14 683.94,299.14 685.31,299.10 686.67,299.10 688.04,299.10 689.40,248.07 690.76,299.06 692.13,299.06 693.49,299.06 694.86,299.06 696.22,299.06 697.59,298.97 698.95,298.97 700.31,298.93 701.68,298.97 703.04,298.93 704.41,298.89 705.77,298.89 707.14,298.89 708.50,298.89 709.87,247.78 711.23,298.89 712.59,298.89 713.96,298.85 715.32,298.85 716.69,298.81 718.05,298.81 719.42,298.81 720.78,298.81 722.14,298.81 723.51,298.81 724.87,298.81 726.24,298.81 727.60,298.81 728.97,298.72 730.33,247.45 731.69,247.45 733.06,298.72 734.42,298.72 735.79,298.72 737.15,298.72 738.52,298.72 739.88,298.72 741.24,247.36 742.61,298.68 743.97,247.36 745.34,247.36 746.70,247.36 748.07,298.68 749.43,298.68 750.79,298.68 752.16,298.68 753.52,298.68 754.89,341.67 756.25,307.01 757.62,298.68 758.98,298.68 760.34,298.68 761.71,247.36 763.07,298.64 764.44,247.36 765.80,247.28 767.17,247.20 768.53,298.60 769.90,298.60 771.26,247.03 772.62,298.51 773.99,298.51 775.35,298.51 776.72,298.51 778.08,298.51 779.45,298.51 780.81,298.51 782.17,298.51 783.54,298.51 784.90,298.51 786.27,298.51 787.63,298.51 789.00,298.51 790.36,298.51 791.72,298.51 793.09,298.51 794.45,298.51 795.82,298.51 797.18,298.51 798.55,298.51 799.91,298.51 801.27,298.51 802.64,298.51 804.00,298.51 805.37,298.51 806.73,298.51 808.10,298.47 809.46,298.51 810.82,298.51 812.19,298.47 813.55,298.51 814.92,298.47 816.28,298.51 817.65,298.43 819.01,298.56 820.37,298.43 821.74,298.43 823.10,298.43 824.47,298.43 825.83,298.43 827.20,298.43 828.56,298.43 829.93,298.43 831.29,298.43 832.65,298.43 834.02,298.43 835.38,298.43 836.75,298.43 838.11,298.43 839.48,298.43 840.84,298.43 842.20,298.43 843.57,298.43 844.93,298.43 846.30,298.43 847.66,298.43 849.03,298.43 850.39,298.43 851.75,298.43 853.12,298.43 854.48,298.43 855.85,298.43 857.21,298.43 858.58,298.43 859.94,298.43 861.30,298.43 862.67,298.43 864.03,298.43 865.40,298.43 866.76,298.39 868.13,298.39 869.49,298.43 870.85,298.43 872.22,298.39 873.58,298.39 874.95,298.39 876.31,298.43 877.68,298.43 879.04,298.43 880.40,246.82 881.77,298.43 883.13,246.78 884.50,246.78 885.86,246.78 887.23,246.70 888.59,246.78 889.96,298.39 891.32,298.39 892.68,298.39 894.05,298.39 895.41,298.39 896.78,246.78 898.14,298.39 899.51,298.39 900.87,298.39 902.23,298.39 903.60,298.39 904.96,246.78 906.33,246.78 907.69,298.39 909.06,298.39 910.42,298.39 911.78,298.39 913.15,298.39 914.51,298.39 915.88,298.39 917.24,298.39 918.61,298.39 919.97,298.39 921.33,298.39 922.70,298.39 924.06,298.39 925.43,298.39 926.79,298.35 928.16,298.39 929.52,298.39 930.88,298.35 932.25,298.35 933.61,298.35 934.98,298.35 936.34,298.35 937.71,298.35 939.07,298.35 940.43,298.35 941.80,298.35 943.16,298.35 944.53,298.35 945.89,298.35 947.26,298.35 948.62,298.35 949.99,298.35 951.35,298.35 952.71,298.35 954.08,298.35 955.44,298.35 956.81,298.35 958.17,298.35 959.54,298.35 960.90,298.35 962.26,298.35 963.63,298.35 964.99,298.35 966.36,298.35 967.72,298.35 969.09,298.35 970.45,298.35 971.81,298.35 973.18,298.35 974.54,298.35 975.91,298.35 977.27,298.35 978.64,298.35 980.00,298.35"/>
  <circle cx="70.00" cy="50.00" r="2.5" fill="#2563eb"/>
  <circle cx="71.36" cy="50.12" r="2.5" fill="#2563eb"/>
  <circle cx="72.73" cy="50.17" r="2.5" fill="#2563eb"/>
  <circle cx="74.09" cy="50.46" r="2.5" fill="#2563eb"/>
  <circle cx="75.46" cy="50.00" r="2.5" fill="#2563eb"/>
  <circle cx="76.82" cy="266.90" r="2.5" fill="#2563eb"/>
  <circle cx="78.19" cy="50.12" r="2.5" fill="#2563eb"/>
  <circle cx="79.55" cy="50.08" r="2.5" fill="#2563eb"/>
  <circle cx="80.91" cy="177.46" r="2.5" fill="#2563eb"/>
  <circle cx="82.28" cy="211.58" r="2.5" fill="#2563eb"/>
  <circle cx="83.64" cy="175.34" r="2.5" fill="#2563eb"/>
  <circle cx="85.01" cy="304.14" r="2.5" fill="#2563eb"/>
  <circle cx="86.37" cy="200.46" r="2.5" fill="#2563eb"/>
  <circle cx="87.74" cy="250.94" r="2.5" fill="#2563eb"/>
  <circle cx="89.10" cy="300.01" r="2.5" fill="#2563eb"/>
  <circle cx="90.46" cy="300.06" r="2.5" fill="#2563eb"/>
  <circle cx="91.83" cy="300.01" r="2.5" fill="#2563eb"/>
  <circle cx="93.19" cy="300.01" r="2.5" fill="#2563eb"/>
  <circle cx="94.56" cy="348.00" r="2.5" fill="#2563eb"/>
  <circle cx="95.92" cy="300.01" r="2.5" fill="#2563eb"/>
  <circle cx="97.29" cy="249.99" r="2.5" fill="#2563eb"/>
  <circle cx="98.65" cy="200.00" r="2.5" fill="#2563eb"/>
  <circle cx="100.01" cy="249.99" r="2.5" fill="#2563eb"/>
  <circle cx="101.38" cy="249.99" r="2.5" fill="#2563eb"/>
  <circle cx="102.74" cy="250.03" r="2.5" fill="#2563eb"/>
  <circle cx="104.11" cy="250.03" r="2.5" fill="#2563eb"/>
  <circle cx="105.47" cy="250.03" r="2.5" fill="#2563eb"/>
  <circle cx="106.84" cy="250.40" r="2.5" fill="#2563eb"/>
  <circle cx="108.20" cy="250.90" r="2.5" fill="#2563eb"/>
  <circle cx="109.57" cy="250.90" r="2.5" fill="#2563eb"/>
  <circle cx="110.93" cy="251.32" r="2.5" fill="#2563eb"/>
  <circle cx="112.29" cy="249.94" r="2.5" fill="#2563eb"/>
  <circle cx="113.66" cy="300.01" r="2.5" fill="#2563eb"/>
  <circle cx="115.02" cy="299.93" r="2.5" fill="#2563eb"/>
  <circle cx="116.39" cy="251.03" r="2.5" fill="#2563eb"/>
  <circle cx="117.75" cy="300.68" r="2.5" fill="#2563eb"/>
  <circle cx="119.12" cy="250.03" r="2.5" fill="#2563eb"/>
  <circle cx="120.48" cy="200.00" r="2.5" fill="#2563eb"/>
  <circle cx="121.84" cy="249.99" r="2.5" fill="#2563eb"/>
  <circle cx="123.21" cy="250.03" r="2.5" fill="#2563eb"/>
  <circle cx="124.57" cy="250.03" r="2.5" fill="#2563eb"/>
  <circle cx="125.94" cy="250.03" r="2.5" fill="#2563eb"/>
  <circle cx="127.30" cy="300.01" r="2.5" fill="#2563eb"/>
  <circle cx="128.67" cy="200.04" r="2.5" fill="#2563eb"/>
  <circle cx="130.03" cy="250.03" r="2.5" fill="#2563eb"/>
  <circle cx="131.39" cy="250.03" r="2.5" fill="#2563eb"/>
  <circle cx="132.76" cy="250.03" r="2.5" fill="#2563eb"/>
  <circle cx="134.12" cy="249.90" r="2.5" fill="#2563eb"/>
  <circle cx="135.49" cy="250.03" r="2.5" fill="#2563eb"/>
  <circle cx="136.85" cy="250.03" r="2.5" fill="#2563eb"/>
  <circle cx="138.22" cy="250.94" r="2.5" fill="#2563eb"/>
  <circle cx="139.58" cy="250.44" r="2.5" fill="#2563eb"/>
  <circle cx="140.94" cy="250.03" r="2.5" fill="#2563eb"/>
  <circle cx="142.31" cy="250.03" r="2.5" fill="#2563eb"/>
  <circle cx="143.67" cy="300.47" r="2.5" fill="#2563eb"/>
  <circle cx="145.04" cy="300.01" r="2.5" fill="#2563eb"/>
  <circle cx="146.40" cy="300.43" r="2.5" fill="#2563eb"/>
  <circle cx="147.77" cy="250.03" r="2.5" fill="#2563eb"/>
  <circle cx="149.13" cy="249.99" r="2.5" fill="#2563eb"/>
  <circle cx="150.49" cy="300.43" r="2.5" fill="#2563eb"/>
  <circle cx="151.86" cy="249.90" r="2.5" fill="#2563eb"/>
  <circle cx="153.22" cy="249.99" r="2.5" fill="#2563eb"/>
  <circle cx="154.59" cy="249.99" r="2.5" fill="#2563eb"/>
  <circle cx="155.95" cy="200.04" r="2.5" fill="#2563eb"/>
  <circle cx="157.32" cy="300.01" r="2.5" fill="#2563eb"/>
  <circle cx="158.68" cy="300.01" r="2.5" fill="#2563eb"/>
  <circle cx="160.04" cy="300.01" r="2.5" fill="#2563eb"/>
  <circle cx="161.41" cy="249.90" r="2.5" fill="#2563eb"/>
  <circle cx="162.77" cy="300.01" r="2.5" fill="#2563eb"/>
  <circle cx="164.14" cy="250.03" r="2.5" fill="#2563eb"/>
  <circle cx="165.50" cy="249.99" r="2.5" fill="#2563eb"/>
  <circle cx="166.87" cy="199.96" r="2.5" fill="#2563eb"/>
  <circle cx="168.23" cy="300.01" r="2.5" fill="#2563eb"/>
  <circle cx="169.60" cy="200.00" r="2.5" fill="#2563eb"/>
  <circle cx="170.96" cy="250.36" r="2.5" fill="#2563eb"/>
  <circle cx="172.32" cy="250.03" r="2.5" fill="#2563eb"/>
  <circle cx="173.69" cy="300.01" r="2.5" fill="#2563eb"/>
  <circle cx="175.05" cy="300.01" r="2.5" fill="#2563eb"/>
  <circle cx="176.42" cy="250.44" r="2.5" fill="#2563eb"/>
  <circle cx="177.78" cy="300.01" r="2.5" fill="#2563eb"/>
  <circle cx="179.15" cy="250.03" r="2.5" fill="#2563eb"/>
  <circle cx="180.51" cy="250.03" r="2.5" fill="#2563eb"/>
  <circle cx="181.87" cy="249.99" r="2.5" fill="#2563eb"/>
  <circle cx="183.24" cy="250.49" r="2.5" fill="#2563eb"/>
  <circle cx="184.60" cy="250.03" r="2.5" fill="#2563eb"/>
  <circle cx="185.97" cy="200.04" r="2.5" fill="#2563eb"/>
  <circle cx="187.33" cy="300.01" r="2.5" fill="#2563eb"/>
  <circle cx="188.70" cy="250.03" r="2.5" fill="#2563eb"/>
  <circle cx="190.06" cy="300.01" r="2.5" fill="#2563eb"/>
  <circle cx="191.42" cy="250.11" r="2.5" fill="#2563eb"/>
  <circle cx="192.79" cy="300.01" r="2.5" fill="#2563eb"/>
  <circle cx="194.15" cy="250.03" r="2.5" fill="#2563eb"/>
  <circle cx="195.52" cy="250.03" r="2.5" fill="#2563eb"/>
  <circle cx="196.88" cy="199.92" r="2.5" fill="#2563eb"/>
  <circle cx="198.25" cy="250.03" r="2.5" fill="#2563eb"/>
  <circle cx="199.61" cy="250.03" r="2.5" fill="#2563eb"/>
  <circle cx="200.97" cy="250.03" r="2.5" fill="#2563eb"/>
  <circle cx="202.34" cy="254.36" r="2.5" fill="#2563eb"/>
  <circle cx="203.70" cy="300.01" r="2.5" fill="#2563eb"/>
  <circle cx="205.07" cy="299.97" r="2.5" fill="#2563eb"/>
  <circle cx="206.43" cy="250.36" r="2.5" fill="#2563eb"/>
  <circle cx="207.80" cy="299.97" r="2.5" fill="#2563eb"/>
  <circle cx="209.16" cy="250.03" r="2.5" fill="#2563eb"/>
  <circle cx="210.52" cy="250.03" r="2.5" fill="#2563eb"/>
  <circle cx="211.89" cy="250.03" r="2.5" fill="#2563eb"/>
  <circle cx="213.25" cy="250.03" r="2.5" fill="#2563eb"/>
  <circle cx="214.62" cy="249.99" r="2.5" fill="#2563eb"/>
  <circle cx="215.98" cy="200.00" r="2.5" fill="#2563eb"/>
  <circle cx="217.35" cy="299.93" r="2.5" fill="#2563eb"/>
  <circle cx="218.71" cy="300.01" r="2.5" fill="#2563eb"/>
  <circle cx="220.07" cy="299.97" r="2.5" fill="#2563eb"/>
  <circle cx="221.44" cy="249.94" r="2.5" fill="#2563eb"/>
  <circle cx="222.80" cy="249.99" r="2.5" fill="#2563eb"/>
  <circle cx="224.17" cy="249.82" r="2.5" fill="#2563eb"/>
  <circle cx="225.53" cy="249.94" r="2.5" fill="#2563eb"/>
  <circle cx="226.90" cy="250.28" r="2.5" fill="#2563eb"/>
  <circle cx="228.26" cy="207.00" r="2.5" fill="#2563eb"/>
  <circle cx="229.63" cy="250.03" r="2.5" fill="#2563eb"/>
  <circle cx="230.99" cy="250.32" r="2.5" fill="#2563eb"/>
  <circle cx="232.35" cy="250.40" r="2.5" fill="#2563eb"/>
  <circle cx="233.72" cy="300.93" r="2.5" fill="#2563eb"/>
  <circle cx="235.08" cy="300.01" r="2.5" fill="#2563eb"/>
  <circle cx="236.45" cy="300.10" r="2.5" fill="#2563eb"/>
  <circle cx="237.81" cy="249.94" r="2.5" fill="#2563eb"/>
  <circle cx="239.18" cy="249.99" r="2.5" fill="#2563eb"/>
  <circle cx="240.54" cy="250.07" r="2.5" fill="#2563eb"/>
  <circle cx="241.90" cy="249.99" r="2.5" fill="#2563eb"/>
  <circle cx="243.27" cy="250.03" r="2.5" fill="#2563eb"/>
  <circle cx="244.63" cy="249.94" r="2.5" fill="#2563eb"/>
  <circle cx="246.00" cy="200.00" r="2.5" fill="#2563eb"/>
  <circle cx="247.36" cy="300.39" r="2.5" fill="#2563eb"/>
  <circle cx="248.73" cy="300.01" r="2.5" fill="#2563eb"/>
  <circle cx="250.09" cy="300.01" r="2.5" fill="#2563eb"/>
  <circle cx="251.45" cy="250.44" r="2.5" fill="#2563eb"/>
  <circle cx="252.82" cy="300.39" r="2.5" fill="#2563eb"/>
  <circle cx="254.18" cy="249.86" r="2.5" fill="#2563eb"/>
  <circle cx="255.55" cy="250.11" r="2.5" fill="#2563eb"/>
  <circle cx="256.91" cy="201.46" r="2.5" fill="#2563eb"/>
  <circle cx="258.28" cy="300.01" r="2.5" fill="#2563eb"/>
  <circle cx="259.64" cy="200.83" r="2.5" fill="#2563eb"/>
  <circle cx="261.00" cy="250.03" r="2.5" fill="#2563eb"/>
  <circle cx="262.37" cy="249.99" r="2.5" fill="#2563eb"/>
  <circle cx="263.73" cy="300.26" r="2.5" fill="#2563eb"/>
  <circle cx="265.10" cy="300.01" r="2.5" fill="#2563eb"/>
  <circle cx="266.46" cy="300.01" r="2.5" fill="#2563eb"/>
  <circle cx="267.83" cy="250.03" r="2.5" fill="#2563eb"/>
  <circle cx="269.19" cy="250.03" r="2.5" fill="#2563eb"/>
  <circle cx="270.55" cy="250.03" r="2.5" fill="#2563eb"/>
  <circle cx="271.92" cy="250.03" r="2.5" fill="#2563eb"/>
  <circle cx="273.28" cy="249.99" r="2.5" fill="#2563eb"/>
  <circle cx="274.65" cy="250.03" r="2.5" fill="#2563eb"/>
  <circle cx="276.01" cy="200.00" r="2.5" fill="#2563eb"/>
  <circle cx="277.38" cy="300.26" r="2.5" fill="#2563eb"/>
  <circle cx="278.74" cy="249.99" r="2.5" fill="#2563eb"/>
  <circle cx="280.10" cy="300.01" r="2.5" fill="#2563eb"/>
  <circle cx="281.47" cy="249.94" r="2.5" fill="#2563eb"/>
  <circle cx="282.83" cy="250.03" r="2.5" fill="#2563eb"/>
  <circle cx="284.20" cy="250.03" r="2.5" fill="#2563eb"/>
  <circle cx="285.56" cy="250.03" r="2.5" fill="#2563eb"/>
  <circle cx="286.93" cy="200.04" r="2.5" fill="#2563eb"/>
  <circle cx="288.29" cy="300.01" r="2.5" fill="#2563eb"/>
  <circle cx="289.66" cy="249.90" r="2.5" fill="#2563eb"/>
  <circle cx="291.02" cy="300.01" r="2.5" fill="#2563eb"/>
  <circle cx="292.38" cy="300.01" r="2.5" fill="#2563eb"/>
  <circle cx="293.75" cy="300.06" r="2.5" fill="#2563eb"/>
  <circle cx="295.11" cy="300.01" r="2.5" fill="#2563eb"/>
  <circle cx="296.48" cy="300.01" r="2.5" fill="#2563eb"/>
  <circle cx="297.84" cy="243.95" r="2.5" fill="#2563eb"/>
  <circle cx="299.21" cy="249.94" r="2.5" fill="#2563eb"/>
  <circle cx="300.57" cy="299.97" r="2.5" fill="#2563eb"/>
  <circle cx="301.93" cy="300.01" r="2.5" fill="#2563eb"/>
  <circle cx="303.30" cy="300.01" r="2.5" fill="#2563eb"/>
  <circle cx="304.66" cy="250.03" r="2.5" fill="#2563eb"/>
  <circle cx="306.03" cy="300.01" r="2.5" fill="#2563eb"/>
  <circle cx="307.39" cy="300.01" r="2.5" fill="#2563eb"/>
  <circle cx="308.76" cy="299.97" r="2.5" fill="#2563eb"/>
  <circle cx="310.12" cy="249.99" r="2.5" fill="#2563eb"/>
  <circle cx="311.48" cy="300.01" r="2.5" fill="#2563eb"/>
  <circle cx="312.85" cy="299.93" r="2.5" fill="#2563eb"/>
  <circle cx="314.21" cy="300.01" r="2.5" fill="#2563eb"/>
  <circle cx="315.58" cy="299.93" r="2.5" fill="#2563eb"/>
  <circle cx="316.94" cy="300.01" r="2.5" fill="#2563eb"/>
  <circle cx="318.31" cy="300.01" r="2.5" fill="#2563eb"/>
  <circle cx="319.67" cy="299.89" r="2.5" fill="#2563eb"/>
  <circle cx="321.03" cy="299.97" r="2.5" fill="#2563eb"/>
  <circle cx="322.40" cy="250.03" r="2.5" fill="#2563eb"/>
  <circle cx="323.76" cy="299.93" r="2.5" fill="#2563eb"/>
  <circle cx="325.13" cy="299.89" r="2.5" fill="#2563eb"/>
  <circle cx="326.49" cy="299.97" r="2.5" fill="#2563eb"/>
  <circle cx="327.86" cy="249.94" r="2.5" fill="#2563eb"/>
  <circle cx="329.22" cy="300.01" r="2.5" fill="#2563eb"/>
  <circle cx="330.58" cy="300.01" r="2.5" fill="#2563eb"/>
  <circle cx="331.95" cy="299.97" r="2.5" fill="#2563eb"/>
  <circle cx="333.31" cy="249.99" r="2.5" fill="#2563eb"/>
  <circle cx="334.68" cy="299.97" r="2.5" fill="#2563eb"/>
  <circle cx="336.04" cy="299.97" r="2.5" fill="#2563eb"/>
  <circle cx="337.41" cy="300.06" r="2.5" fill="#2563eb"/>
  <circle cx="338.77" cy="300.06" r="2.5" fill="#2563eb"/>
  <circle cx="340.13" cy="299.93" r="2.5" fill="#2563eb"/>
  <circle cx="341.50" cy="300.01" r="2.5" fill="#2563eb"/>
  <circle cx="342.86" cy="300.01" r="2.5" fill="#2563eb"/>
  <circle cx="344.23" cy="299.93" r="2.5" fill="#2563eb"/>
  <circle cx="345.59" cy="300.01" r="2.5" fill="#2563eb"/>
  <circle cx="346.96" cy="300.01" r="2.5" fill="#2563eb"/>
  <circle cx="348.32" cy="299.97" r="2.5" fill="#2563eb"/>
  <circle cx="349.69" cy="300.01" r="2.5" fill="#2563eb"/>
  <circle cx="351.05" cy="300.01" r="2.5" fill="#2563eb"/>
  <circle cx="352.41" cy="300.01" r="2.5" fill="#2563eb"/>
  <circle cx="353.78" cy="300.01" r="2.5" fill="#2563eb"/>
  <circle cx="355.14" cy="249.86" r="2.5" fill="#2563eb"/>
  <circle cx="356.51" cy="300.01" r="2.5" fill="#2563eb"/>
  <circle cx="357.87" cy="300.10" r="2.5" fill="#2563eb"/>
  <circle cx="359.24" cy="299.93" r="2.5" fill="#2563eb"/>
  <circle cx="360.60" cy="300.01" r="2.5" fill="#2563eb"/>
  <circle cx="361.96" cy="299.93" r="2.5" fill="#2563eb"/>
  <circle cx="363.33" cy="300.01" r="2.5" fill="#2563eb"/>
  <circle cx="364.69" cy="300.01" r="2.5" fill="#2563eb"/>
  <circle cx="366.06" cy="300.01" r="2.5" fill="#2563eb"/>
  <circle cx="367.42" cy="300.01" r="2.5" fill="#2563eb"/>
  <circle cx="368.79" cy="300.01" r="2.5" fill="#2563eb"/>
  <circle cx="370.15" cy="299.97" r="2.5" fill="#2563eb"/>
  <circle cx="371.51" cy="300.01" r="2.5" fill="#2563eb"/>
  <circle cx="372.88" cy="300.01" r="2.5" fill="#2563eb"/>
  <circle cx="374.24" cy="300.01" r="2.5" fill="#2563eb"/>
  <circle cx="375.61" cy="300.01" r="2.5" fill="#2563eb"/>
  <circle cx="376.97" cy="250.03" r="2.5" fill="#2563eb"/>
  <circle cx="378.34" cy="300.01" r="2.5" fill="#2563eb"/>
  <circle cx="379.70" cy="300.01" r="2.5" fill="#2563eb"/>
  <circle cx="381.06" cy="299.97" r="2.5" fill="#2563eb"/>
  <circle cx="382.43" cy="300.01" r="2.5" fill="#2563eb"/>
  <circle cx="383.79" cy="300.01" r="2.5" fill="#2563eb"/>
  <circle cx="385.16" cy="299.97" r="2.5" fill="#2563eb"/>
  <circle cx="386.52" cy="299.97" r="2.5" fill="#2563eb"/>
  <circle cx="387.89" cy="300.01" r="2.5" fill="#2563eb"/>
  <circle cx="389.25" cy="299.97" r="2.5" fill="#2563eb"/>
  <circle cx="390.61" cy="300.01" r="2.5" fill="#2563eb"/>
  <circle cx="391.98" cy="299.93" r="2.5" fill="#2563eb"/>
  <circle cx="393.34" cy="300.01" r="2.5" fill="#2563eb"/>
  <circle cx="394.71" cy="250.03" r="2.5" fill="#2563eb"/>
  <circle cx="396.07" cy="300.01" r="2.5" fill="#2563eb"/>
  <circle cx="397.44" cy="300.01" r="2.5" fill="#2563eb"/>
  <circle cx="398.80" cy="300.01" r="2.5" fill="#2563eb"/>
  <circle cx="400.16" cy="300.01" r="2.5" fill="#2563eb"/>
  <circle cx="401.53" cy="300.01" r="2.5" fill="#2563eb"/>
  <circle cx="402.89" cy="299.89" r="2.5" fill="#2563eb"/>
  <circle cx="404.26" cy="300.01" r="2.5" fill="#2563eb"/>
  <circle cx="405.62" cy="300.01" r="2.5" fill="#2563eb"/>
  <circle cx="406.99" cy="250.07" r="2.5" fill="#2563eb"/>
  <circle cx="408.35" cy="300.01" r="2.5" fill="#2563eb"/>
  <circle cx="409.72" cy="299.93" r="2.5" fill="#2563eb"/>
  <circle cx="411.08" cy="300.01" r="2.5" fill="#2563eb"/>
  <circle cx="412.44" cy="299.97" r="2.5" fill="#2563eb"/>
  <circle cx="413.81" cy="299.97" r="2.5" fill="#2563eb"/>
  <circle cx="415.17" cy="299.97" r="2.5" fill="#2563eb"/>
  <circle cx="416.54" cy="250.03" r="2.5" fill="#2563eb"/>
  <circle cx="417.90" cy="300.01" r="2.5" fill="#2563eb"/>
  <circle cx="419.27" cy="300.01" r="2.5" fill="#2563eb"/>
  <circle cx="420.63" cy="300.01" r="2.5" fill="#2563eb"/>
  <circle cx="421.99" cy="300.01" r="2.5" fill="#2563eb"/>
  <circle cx="423.36" cy="299.97" r="2.5" fill="#2563eb"/>
  <circle cx="424.72" cy="300.01" r="2.5" fill="#2563eb"/>
  <circle cx="426.09" cy="299.97" r="2.5" fill="#2563eb"/>
  <circle cx="427.45" cy="300.01" r="2.5" fill="#2563eb"/>
  <circle cx="428.82" cy="299.97" r="2.5" fill="#2563eb"/>
  <circle cx="430.18" cy="249.90" r="2.5" fill="#2563eb"/>
  <circle cx="431.54" cy="300.01" r="2.5" fill="#2563eb"/>
  <circle cx="432.91" cy="300.01" r="2.5" fill="#2563eb"/>
  <circle cx="434.27" cy="299.89" r="2.5" fill="#2563eb"/>
  <circle cx="435.64" cy="299.97" r="2.5" fill="#2563eb"/>
  <circle cx="437.00" cy="299.97" r="2.5" fill="#2563eb"/>
  <circle cx="438.37" cy="249.99" r="2.5" fill="#2563eb"/>
  <circle cx="439.73" cy="299.97" r="2.5" fill="#2563eb"/>
  <circle cx="441.09" cy="299.89" r="2.5" fill="#2563eb"/>
  <circle cx="442.46" cy="300.01" r="2.5" fill="#2563eb"/>
  <circle cx="443.82" cy="299.97" r="2.5" fill="#2563eb"/>
  <circle cx="445.19" cy="299.97" r="2.5" fill="#2563eb"/>
  <circle cx="446.55" cy="300.01" r="2.5" fill="#2563eb"/>
  <circle cx="447.92" cy="299.97" r="2.5" fill="#2563eb"/>
  <circle cx="449.28" cy="249.99" r="2.5" fill="#2563eb"/>
  <circle cx="450.64" cy="299.97" r="2.5" fill="#2563eb"/>
  <circle cx="452.01" cy="299.97" r="2.5" fill="#2563eb"/>
  <circle cx="453.37" cy="300.06" r="2.5" fill="#2563eb"/>
  <circle cx="454.74" cy="300.06" r="2.5" fill="#2563eb"/>
  <circle cx="456.10" cy="249.94" r="2.5" fill="#2563eb"/>
  <circle cx="457.47" cy="300.01" r="2.5" fill="#2563eb"/>
  <circle cx="458.83" cy="299.93" r="2.5" fill="#2563eb"/>
  <circle cx="460.19" cy="300.01" r="2.5" fill="#2563eb"/>
  <circle cx="461.56" cy="300.01" r="2.5" fill="#2563eb"/>
  <circle cx="462.92" cy="249.99" r="2.5" fill="#2563eb"/>
  <circle cx="464.29" cy="300.01" r="2.5" fill="#2563eb"/>
  <circle cx="465.65" cy="300.01" r="2.5" fill="#2563eb"/>
  <circle cx="467.02" cy="300.01" r="2.5" fill="#2563eb"/>
  <circle cx="468.38" cy="299.93" r="2.5" fill="#2563eb"/>
  <circle cx="469.75" cy="299.93" r="2.5" fill="#2563eb"/>
  <circle cx="471.11" cy="300.01" r="2.5" fill="#2563eb"/>
  <circle cx="472.47" cy="300.01" r="2.5" fill="#2563eb"/>
  <circle cx="473.84" cy="249.94" r="2.5" fill="#2563eb"/>
  <circle cx="475.20" cy="299.97" r="2.5" fill="#2563eb"/>
  <circle cx="476.57" cy="299.97" r="2.5" fill="#2563eb"/>
  <circle cx="477.93" cy="300.01" r="2.5" fill="#2563eb"/>
  <circle cx="479.30" cy="300.01" r="2.5" fill="#2563eb"/>
  <circle cx="480.66" cy="300.01" r="2.5" fill="#2563eb"/>
  <circle cx="482.02" cy="249.99" r="2.5" fill="#2563eb"/>
  <circle cx="483.39" cy="300.01" r="2.5" fill="#2563eb"/>
  <circle cx="484.75" cy="300.01" r="2.5" fill="#2563eb"/>
  <circle cx="486.12" cy="300.01" r="2.5" fill="#2563eb"/>
  <circle cx="487.48" cy="250.03" r="2.5" fill="#2563eb"/>
  <circle cx="488.85" cy="300.01" r="2.5" fill="#2563eb"/>
  <circle cx="490.21" cy="300.01" r="2.5" fill="#2563eb"/>
  <circle cx="491.57" cy="300.01" r="2.5" fill="#2563eb"/>
  <circle cx="492.94" cy="299.97" r="2.5" fill="#2563eb"/>
  <circle cx="494.30" cy="300.01" r="2.5" fill="#2563eb"/>
  <circle cx="495.67" cy="300.01" r="2.5" fill="#2563eb"/>
  <circle cx="497.03" cy="299.97" r="2.5" fill="#2563eb"/>
  <circle cx="498.40" cy="299.97" r="2.5" fill="#2563eb"/>
  <circle cx="499.76" cy="300.01" r="2.5" fill="#2563eb"/>
  <circle cx="501.12" cy="300.01" r="2.5" fill="#2563eb"/>
  <circle cx="502.49" cy="299.97" r="2.5" fill="#2563eb"/>
  <circle cx="503.85" cy="299.93" r="2.5" fill="#2563eb"/>
  <circle cx="505.22" cy="300.01" r="2.5" fill="#2563eb"/>
  <circle cx="506.58" cy="300.06" r="2.5" fill="#2563eb"/>
  <circle cx="507.95" cy="299.97" r="2.5" fill="#2563eb"/>
  <circle cx="509.31" cy="300.01" r="2.5" fill="#2563eb"/>
  <circle cx="510.67" cy="250.03" r="2.5" fill="#2563eb"/>
  <circle cx="512.04" cy="250.03" r="2.5" fill="#2563eb"/>
  <circle cx="513.40" cy="299.93" r="2.5" fill="#2563eb"/>
  <circle cx="514.77" cy="299.97" r="2.5" fill="#2563eb"/>
  <circle cx="516.13" cy="300.01" r="2.5" fill="#2563eb"/>
  <circle cx="517.50" cy="300.01" r="2.5" fill="#2563eb"/>
  <circle cx="518.86" cy="300.06" r="2.5" fill="#2563eb"/>
  <circle cx="520.22" cy="300.01" r="2.5" fill="#2563eb"/>
  <circle cx="521.59" cy="299.93" r="2.5" fill="#2563eb"/>
  <circle cx="522.95" cy="300.01" r="2.5" fill="#2563eb"/>
  <circle cx="524.32" cy="300.01" r="2.5" fill="#2563eb"/>
  <circle cx="525.68" cy="299.97" r="2.5" fill="#2563eb"/>
  <circle cx="527.05" cy="299.97" r="2.5" fill="#2563eb"/>
  <circle cx="528.41" cy="300.01" r="2.5" fill="#2563eb"/>
  <circle cx="529.78" cy="250.03" r="2.5" fill="#2563eb"/>
  <circle cx="531.14" cy="300.01" r="2.5" fill="#2563eb"/>
  <circle cx="532.50" cy="300.01" r="2.5" fill="#2563eb"/>
  <circle cx="533.87" cy="300.01" r="2.5" fill="#2563eb"/>
  <circle cx="535.23" cy="299.97" r="2.5" fill="#2563eb"/>
  <circle cx="536.60" cy="300.01" r="2.5" fill="#2563eb"/>
  <circle cx="537.96" cy="299.97" r="2.5" fill="#2563eb"/>
  <circle cx="539.33" cy="300.01" r="2.5" fill="#2563eb"/>
  <circle cx="540.69" cy="299.97" r="2.5" fill="#2563eb"/>
  <circle cx="542.05" cy="299.97" r="2.5" fill="#2563eb"/>
  <circle cx="543.42" cy="299.93" r="2.5" fill="#2563eb"/>
  <circle cx="544.78" cy="300.01" r="2.5" fill="#2563eb"/>
  <circle cx="546.15" cy="300.01" r="2.5" fill="#2563eb"/>
  <circle cx="547.51" cy="299.89" r="2.5" fill="#2563eb"/>
  <circle cx="548.88" cy="299.97" r="2.5" fill="#2563eb"/>
  <circle cx="550.24" cy="299.97" r="2.5" fill="#2563eb"/>
  <circle cx="551.60" cy="300.06" r="2.5" fill="#2563eb"/>
  <circle cx="552.97" cy="249.90" r="2.5" fill="#2563eb"/>
  <circle cx="554.33" cy="299.89" r="2.5" fill="#2563eb"/>
  <circle cx="555.70" cy="300.01" r="2.5" fill="#2563eb"/>
  <circle cx="557.06" cy="299.97" r="2.5" fill="#2563eb"/>
  <circle cx="558.43" cy="299.97" r="2.5" fill="#2563eb"/>
  <circle cx="559.79" cy="299.97" r="2.5" fill="#2563eb"/>
  <circle cx="561.15" cy="300.01" r="2.5" fill="#2563eb"/>
  <circle cx="562.52" cy="300.01" r="2.5" fill="#2563eb"/>
  <circle cx="563.88" cy="299.97" r="2.5" fill="#2563eb"/>
  <circle cx="565.25" cy="299.97" r="2.5" fill="#2563eb"/>
  <circle cx="566.61" cy="299.97" r="2.5" fill="#2563eb"/>
  <circle cx="567.98" cy="250.03" r="2.5" fill="#2563eb"/>
  <circle cx="569.34" cy="299.93" r="2.5" fill="#2563eb"/>
  <circle cx="570.70" cy="300.01" r="2.5" fill="#2563eb"/>
  <circle cx="572.07" cy="300.01" r="2.5" fill="#2563eb"/>
  <circle cx="573.43" cy="299.93" r="2.5" fill="#2563eb"/>
  <circle cx="574.80" cy="300.01" r="2.5" fill="#2563eb"/>
  <circle cx="576.16" cy="300.01" r="2.5" fill="#2563eb"/>
  <circle cx="577.53" cy="299.97" r="2.5" fill="#2563eb"/>
  <circle cx="578.89" cy="300.01" r="2.5" fill="#2563eb"/>
  <circle cx="580.25" cy="300.01" r="2.5" fill="#2563eb"/>
  <circle cx="581.62" cy="300.06" r="2.5" fill="#2563eb"/>
  <circle cx="582.98" cy="300.01" r="2.5" fill="#2563eb"/>
  <circle cx="584.35" cy="299.97" r="2.5" fill="#2563eb"/>
  <circle cx="585.71" cy="299.89" r="2.5" fill="#2563eb"/>
  <circle cx="587.08" cy="300.01" r="2.5" fill="#2563eb"/>
  <circle cx="588.44" cy="300.01" r="2.5" fill="#2563eb"/>
  <circle cx="589.81" cy="249.94" r="2.5" fill="#2563eb"/>
  <circle cx="591.17" cy="249.94" r="2.5" fill="#2563eb"/>
  <circle cx="592.53" cy="300.01" r="2.5" fill="#2563eb"/>
  <circle cx="593.90" cy="300.01" r="2.5" fill="#2563eb"/>
  <circle cx="595.26" cy="300.01" r="2.5" fill="#2563eb"/>
  <circle cx="596.63" cy="300.01" r="2.5" fill="#2563eb"/>
  <circle cx="597.99" cy="299.97" r="2.5" fill="#2563eb"/>
  <circle cx="599.36" cy="250.03" r="2.5" fill="#2563eb"/>
  <circle cx="600.72" cy="300.01" r="2.5" fill="#2563eb"/>
  <circle cx="602.08" cy="300.01" r="2.5" fill="#2563eb"/>
  <circle cx="603.45" cy="300.01" r="2.5" fill="#2563eb"/>
  <circle cx="604.81" cy="300.01" r="2.5" fill="#2563eb"/>
  <circle cx="606.18" cy="250.03" r="2.5" fill="#2563eb"/>
  <circle cx="607.54" cy="249.99" r="2.5" fill="#2563eb"/>
  <circle cx="608.91" cy="300.01" r="2.5" fill="#2563eb"/>
  <circle cx="610.27" cy="299.97" r="2.5" fill="#2563eb"/>
  <circle cx="611.63" cy="300.01" r="2.5" fill="#2563eb"/>
  <circle cx="613.00" cy="299.97" r="2.5" fill="#2563eb"/>
  <circle cx="614.36" cy="300.01" r="2.5" fill="#2563eb"/>
  <circle cx="615.73" cy="299.97" r="2.5" fill="#2563eb"/>
  <circle cx="617.09" cy="299.97" r="2.5" fill="#2563eb"/>
  <circle cx="618.46" cy="299.97" r="2.5" fill="#2563eb"/>
  <circle cx="619.82" cy="300.06" r="2.5" fill="#2563eb"/>
  <circle cx="621.18" cy="249.99" r="2.5" fill="#2563eb"/>
  <circle cx="622.55" cy="300.01" r="2.5" fill="#2563eb"/>
  <circle cx="623.91" cy="250.03" r="2.5" fill="#2563eb"/>
  <circle cx="625.28" cy="249.94" r="2.5" fill="#2563eb"/>
  <circle cx="626.64" cy="249.99" r="2.5" fill="#2563eb"/>
  <circle cx="628.01" cy="300.01" r="2.5" fill="#2563eb"/>
  <circle cx="629.37" cy="300.06" r="2.5" fill="#2563eb"/>
  <circle cx="630.73" cy="300.01" r="2.5" fill="#2563eb"/>
  <circle cx="632.10" cy="299.97" r="2.5" fill="#2563eb"/>
  <circle cx="633.46" cy="299.97" r="2.5" fill="#2563eb"/>
  <circle cx="634.83" cy="300.01" r="2.5" fill="#2563eb"/>
  <circle cx="636.19" cy="299.93" r="2.5" fill="#2563eb"/>
  <circle cx="637.56" cy="299.89" r="2.5" fill="#2563eb"/>
  <circle cx="638.92" cy="299.89" r="2.5" fill="#2563eb"/>
  <circle cx="640.28" cy="299.89" r="2.5" fill="#2563eb"/>
  <circle cx="641.65" cy="299.89" r="2.5" fill="#2563eb"/>
  <circle cx="643.01" cy="299.85" r="2.5" fill="#2563eb"/>
  <circle cx="644.38" cy="299.85" r="2.5" fill="#2563eb"/>
  <circle cx="645.74" cy="299.89" r="2.5" fill="#2563eb"/>
  <circle cx="647.11" cy="299.81" r="2.5" fill="#2563eb"/>
  <circle cx="648.47" cy="299.81" r="2.5" fill="#2563eb"/>
  <circle cx="649.84" cy="299.81" r="2.5" fill="#2563eb"/>
  <circle cx="651.20" cy="299.76" r="2.5" fill="#2563eb"/>
  <circle cx="652.56" cy="299.76" r="2.5" fill="#2563eb"/>
  <circle cx="653.93" cy="299.76" r="2.5" fill="#2563eb"/>
  <circle cx="655.29" cy="299.72" r="2.5" fill="#2563eb"/>
  <circle cx="656.66" cy="299.68" r="2.5" fill="#2563eb"/>
  <circle cx="658.02" cy="299.60" r="2.5" fill="#2563eb"/>
  <circle cx="659.39" cy="299.60" r="2.5" fill="#2563eb"/>
  <circle cx="660.75" cy="299.60" r="2.5" fill="#2563eb"/>
  <circle cx="662.11" cy="299.56" r="2.5" fill="#2563eb"/>
  <circle cx="663.48" cy="299.47" r="2.5" fill="#2563eb"/>
  <circle cx="664.84" cy="299.43" r="2.5" fill="#2563eb"/>
  <circle cx="666.21" cy="299.43" r="2.5" fill="#2563eb"/>
  <circle cx="667.57" cy="299.39" r="2.5" fill="#2563eb"/>
  <circle cx="668.94" cy="299.47" r="2.5" fill="#2563eb"/>
  <circle cx="670.30" cy="259.82" r="2.5" fill="#2563eb"/>
  <circle cx="671.66" cy="338.96" r="2.5" fill="#2563eb"/>
  <circle cx="673.03" cy="299.31" r="2.5" fill="#2563eb"/>
  <circle cx="674.39" cy="299.31" r="2.5" fill="#2563eb"/>
  <circle cx="675.76" cy="299.26" r="2.5" fill="#2563eb"/>
  <circle cx="677.12" cy="299.68" r="2.5" fill="#2563eb"/>
  <circle cx="678.49" cy="299.68" r="2.5" fill="#2563eb"/>
  <circle cx="679.85" cy="299.68" r="2.5" fill="#2563eb"/>
  <circle cx="681.21" cy="299.64" r="2.5" fill="#2563eb"/>
  <circle cx="682.58" cy="299.14" r="2.5" fill="#2563eb"/>
  <circle cx="683.94" cy="299.14" r="2.5" fill="#2563eb"/>
  <circle cx="685.31" cy="299.10" r="2.5" fill="#2563eb"/>
  <circle cx="686.67" cy="299.10" r="2.5" fill="#2563eb"/>
  <circle cx="688.04" cy="299.10" r="2.5" fill="#2563eb"/>
  <circle cx="689.40" cy="248.07" r="2.5" fill="#2563eb"/>
  <circle cx="690.76" cy="299.06" r="2.5" fill="#2563eb"/>
  <circle cx="692.13" cy="299.06" r="2.5" fill="#2563eb"/>
  <circle cx="693.49" cy="299.06" r="2.5" fill="#2563eb"/>
  <circle cx="694.86" cy="299.06" r="2.5" fill="#2563eb"/>
  <circle cx="696.22" cy="299.06" r="2.5" fill="#2563eb"/>
  <circle cx="697.59" cy="298.97" r="2.5" fill="#2563eb"/>
  <circle cx="698.95" cy="298.97" r="2.5" fill="#2563eb"/>
  <circle cx="700.31" cy="298.93" r="2.5" fill="#2563eb"/>
  <circle cx="701.68" cy="298.97" r="2.5" fill="#2563eb"/>
  <circle cx="703.04" cy="298.93" r="2.5" fill="#2563eb"/>
  <circle cx="704.41" cy="298.89" r="2.5" fill="#2563eb"/>
  <circle cx="705.77" cy="298.89" r="2.5" fill="#2563eb"/>
  <circle cx="707.14" cy="298.89" r="2.5" fill="#2563eb"/>
  <circle cx="708.50" cy="298.89" r="2.5" fill="#2563eb"/>
  <circle cx="709.87" cy="247.78" r="2.5" fill="#2563eb"/>
  <circle cx="711.23" cy="298.89" r="2.5" fill="#2563eb"/>
  <circle cx="712.59" cy="298.89" r="2.5" fill="#2563eb"/>
  <circle cx="713.96" cy="298.85" r="2.5" fill="#2563eb"/>
  <circle cx="715.32" cy="298.85" r="2.5" fill="#2563eb"/>
  <circle cx="716.69" cy="298.81" r="2.5" fill="#2563eb"/>
  <circle cx="718.05" cy="298.81" r="2.5" fill="#2563eb"/>
  <circle cx="719.42" cy="298.81" r="2.5" fill="#2563eb"/>
  <circle cx="720.78" cy="298.81" r="2.5" fill="#2563eb"/>
  <circle cx="722.14" cy="298.81" r="2.5" fill="#2563eb"/>
  <circle cx="723.51" cy="298.81" r="2.5" fill="#2563eb"/>
  <circle cx="724.87" cy="298.81" r="2.5" fill="#2563eb"/>
  <circle cx="726.24" cy="298.81" r="2.5" fill="#2563eb"/>
  <circle cx="727.60" cy="298.81" r="2.5" fill="#2563eb"/>
  <circle cx="728.97" cy="298.72" r="2.5" fill="#2563eb"/>
  <circle cx="730.33" cy="247.45" r="2.5" fill="#2563eb"/>
  <circle cx="731.69" cy="247.45" r="2.5" fill="#2563eb"/>
  <circle cx="733.06" cy="298.72" r="2.5" fill="#2563eb"/>
  <circle cx="734.42" cy="298.72" r="2.5" fill="#2563eb"/>
  <circle cx="735.79" cy="298.72" r="2.5" fill="#2563eb"/>
  <circle cx="737.15" cy="298.72" r="2.5" fill="#2563eb"/>
  <circle cx="738.52" cy="298.72" r="2.5" fill="#2563eb"/>
  <circle cx="739.88" cy="298.72" r="2.5" fill="#2563eb"/>
  <circle cx="741.24" cy="247.36" r="2.5" fill="#2563eb"/>
  <circle cx="742.61" cy="298.68" r="2.5" fill="#2563eb"/>
  <circle cx="743.97" cy="247.36" r="2.5" fill="#2563eb"/>
  <circle cx="745.34" cy="247.36" r="2.5" fill="#2563eb"/>
  <circle cx="746.70" cy="247.36" r="2.5" fill="#2563eb"/>
  <circle cx="748.07" cy="298.68" r="2.5" fill="#2563eb"/>
  <circle cx="749.43" cy="298.68" r="2.5" fill="#2563eb"/>
  <circle cx="750.79" cy="298.68" r="2.5" fill="#2563eb"/>
  <circle cx="752.16" cy="298.68" r="2.5" fill="#2563eb"/>
  <circle cx="753.52" cy="298.68" r="2.5" fill="#2563eb"/>
  <circle cx="754.89" cy="341.67" r="2.5" fill="#2563eb"/>
  <circle cx="756.25" cy="307.01" r="2.5" fill="#2563eb"/>
  <circle cx="757.62" cy="298.68" r="2.5" fill="#2563eb"/>
  <circle cx="758.98" cy="298.68" r="2.5" fill="#2563eb"/>
  <circle cx="760.34" cy="298.68" r="2.5" fill="#2563eb"/>
  <circle cx="761.71" cy="247.36" r="2.5" fill="#2563eb"/>
  <circle cx="763.07" cy="298.64" r="2.5" fill="#2563eb"/>
  <circle cx="764.44" cy="247.36" r="2.5" fill="#2563eb"/>
  <circle cx="765.80" cy="247.28" r="2.5" fill="#2563eb"/>
  <circle cx="767.17" cy="247.20" r="2.5" fill="#2563eb"/>
  <circle cx="768.53" cy="298.60" r="2.5" fill="#2563eb"/>
  <circle cx="769.90" cy="298.60" r="2.5" fill="#2563eb"/>
  <circle cx="771.26" cy="247.03" r="2.5" fill="#2563eb"/>
  <circle cx="772.62" cy="298.51" r="2.5" fill="#2563eb"/>
  <circle cx="773.99" cy="298.51" r="2.5" fill="#2563eb"/>
  <circle cx="775.35" cy="298.51" r="2.5" fill="#2563eb"/>
  <circle cx="776.72" cy="298.51" r="2.5" fill="#2563eb"/>
  <circle cx="778.08" cy="298.51" r="2.5" fill="#2563eb"/>
  <circle cx="779.45" cy="298.51" r="2.5" fill="#2563eb"/>
  <circle cx="780.81" cy="298.51" r="2.5" fill="#2563eb"/>
  <circle cx="782.17" cy="298.51" r="2.5" fill="#2563eb"/>
  <circle cx="783.54" cy="298.51" r="2.5" fill="#2563eb"/>
  <circle cx="784.90" cy="298.51" r="2.5" fill="#2563eb"/>
  <circle cx="786.27" cy="298.51" r="2.5" fill="#2563eb"/>
  <circle cx="787.63" cy="298.51" r="2.5" fill="#2563eb"/>
  <circle cx="789.00" cy="298.51" r="2.5" fill="#2563eb"/>
  <circle cx="790.36" cy="298.51" r="2.5" fill="#2563eb"/>
  <circle cx="791.72" cy="298.51" r="2.5" fill="#2563eb"/>
  <circle cx="793.09" cy="298.51" r="2.5" fill="#2563eb"/>
  <circle cx="794.45" cy="298.51" r="2.5" fill="#2563eb"/>
  <circle cx="795.82" cy="298.51" r="2.5" fill="#2563eb"/>
  <circle cx="797.18" cy="298.51" r="2.5" fill="#2563eb"/>
  <circle cx="798.55" cy="298.51" r="2.5" fill="#2563eb"/>
  <circle cx="799.91" cy="298.51" r="2.5" fill="#2563eb"/>
  <circle cx="801.27" cy="298.51" r="2.5" fill="#2563eb"/>
  <circle cx="802.64" cy="298.51" r="2.5" fill="#2563eb"/>
  <circle cx="804.00" cy="298.51" r="2.5" fill="#2563eb"/>
  <circle cx="805.37" cy="298.51" r="2.5" fill="#2563eb"/>
  <circle cx="806.73" cy="298.51" r="2.5" fill="#2563eb"/>
  <circle cx="808.10" cy="298.47" r="2.5" fill="#2563eb"/>
  <circle cx="809.46" cy="298.51" r="2.5" fill="#2563eb"/>
  <circle cx="810.82" cy="298.51" r="2.5" fill="#2563eb"/>
  <circle cx="812.19" cy="298.47" r="2.5" fill="#2563eb"/>
  <circle cx="813.55" cy="298.51" r="2.5" fill="#2563eb"/>
  <circle cx="814.92" cy="298.47" r="2.5" fill="#2563eb"/>
  <circle cx="816.28" cy="298.51" r="2.5" fill="#2563eb"/>
  <circle cx="817.65" cy="298.43" r="2.5" fill="#2563eb"/>
  <circle cx="819.01" cy="298.56" r="2.5" fill="#2563eb"/>
  <circle cx="820.37" cy="298.43" r="2.5" fill="#2563eb"/>
  <circle cx="821.74" cy="298.43" r="2.5" fill="#2563eb"/>
  <circle cx="823.10" cy="298.43" r="2.5" fill="#2563eb"/>
  <circle cx="824.47" cy="298.43" r="2.5" fill="#2563eb"/>
  <circle cx="825.83" cy="298.43" r="2.5" fill="#2563eb"/>
  <circle cx="827.20" cy="298.43" r="2.5" fill="#2563eb"/>
  <circle cx="828.56" cy="298.43" r="2.5" fill="#2563eb"/>
  <circle cx="829.93" cy="298.43" r="2.5" fill="#2563eb"/>
  <circle cx="831.29" cy="298.43" r="2.5" fill="#2563eb"/>
  <circle cx="832.65" cy="298.43" r="2.5" fill="#2563eb"/>
  <circle cx="834.02" cy="298.43" r="2.5" fill="#2563eb"/>
  <circle cx="835.38" cy="298.43" r="2.5" fill="#2563eb"/>
  <circle cx="836.75" cy="298.43" r="2.5" fill="#2563eb"/>
  <circle cx="838.11" cy="298.43" r="2.5" fill="#2563eb"/>
  <circle cx="839.48" cy="298.43" r="2.5" fill="#2563eb"/>
  <circle cx="840.84" cy="298.43" r="2.5" fill="#2563eb"/>
  <circle cx="842.20" cy="298.43" r="2.5" fill="#2563eb"/>
  <circle cx="843.57" cy="298.43" r="2.5" fill="#2563eb"/>
  <circle cx="844.93" cy="298.43" r="2.5" fill="#2563eb"/>
  <circle cx="846.30" cy="298.43" r="2.5" fill="#2563eb"/>
  <circle cx="847.66" cy="298.43" r="2.5" fill="#2563eb"/>
  <circle cx="849.03" cy="298.43" r="2.5" fill="#2563eb"/>
  <circle cx="850.39" cy="298.43" r="2.5" fill="#2563eb"/>
  <circle cx="851.75" cy="298.43" r="2.5" fill="#2563eb"/>
  <circle cx="853.12" cy="298.43" r="2.5" fill="#2563eb"/>
  <circle cx="854.48" cy="298.43" r="2.5" fill="#2563eb"/>
  <circle cx="855.85" cy="298.43" r="2.5" fill="#2563eb"/>
  <circle cx="857.21" cy="298.43" r="2.5" fill="#2563eb"/>
  <circle cx="858.58" cy="298.43" r="2.5" fill="#2563eb"/>
  <circle cx="859.94" cy="298.43" r="2.5" fill="#2563eb"/>
  <circle cx="861.30" cy="298.43" r="2.5" fill="#2563eb"/>
  <circle cx="862.67" cy="298.43" r="2.5" fill="#2563eb"/>
  <circle cx="864.03" cy="298.43" r="2.5" fill="#2563eb"/>
  <circle cx="865.40" cy="298.43" r="2.5" fill="#2563eb"/>
  <circle cx="866.76" cy="298.39" r="2.5" fill="#2563eb"/>
  <circle cx="868.13" cy="298.39" r="2.5" fill="#2563eb"/>
  <circle cx="869.49" cy="298.43" r="2.5" fill="#2563eb"/>
  <circle cx="870.85" cy="298.43" r="2.5" fill="#2563eb"/>
  <circle cx="872.22" cy="298.39" r="2.5" fill="#2563eb"/>
  <circle cx="873.58" cy="298.39" r="2.5" fill="#2563eb"/>
  <circle cx="874.95" cy="298.39" r="2.5" fill="#2563eb"/>
  <circle cx="876.31" cy="298.43" r="2.5" fill="#2563eb"/>
  <circle cx="877.68" cy="298.43" r="2.5" fill="#2563eb"/>
  <circle cx="879.04" cy="298.43" r="2.5" fill="#2563eb"/>
  <circle cx="880.40" cy="246.82" r="2.5" fill="#2563eb"/>
  <circle cx="881.77" cy="298.43" r="2.5" fill="#2563eb"/>
  <circle cx="883.13" cy="246.78" r="2.5" fill="#2563eb"/>
  <circle cx="884.50" cy="246.78" r="2.5" fill="#2563eb"/>
  <circle cx="885.86" cy="246.78" r="2.5" fill="#2563eb"/>
  <circle cx="887.23" cy="246.70" r="2.5" fill="#2563eb"/>
  <circle cx="888.59" cy="246.78" r="2.5" fill="#2563eb"/>
  <circle cx="889.96" cy="298.39" r="2.5" fill="#2563eb"/>
  <circle cx="891.32" cy="298.39" r="2.5" fill="#2563eb"/>
  <circle cx="892.68" cy="298.39" r="2.5" fill="#2563eb"/>
  <circle cx="894.05" cy="298.39" r="2.5" fill="#2563eb"/>
  <circle cx="895.41" cy="298.39" r="2.5" fill="#2563eb"/>
  <circle cx="896.78" cy="246.78" r="2.5" fill="#2563eb"/>
  <circle cx="898.14" cy="298.39" r="2.5" fill="#2563eb"/>
  <circle cx="899.51" cy="298.39" r="2.5" fill="#2563eb"/>
  <circle cx="900.87" cy="298.39" r="2.5" fill="#2563eb"/>
  <circle cx="902.23" cy="298.39" r="2.5" fill="#2563eb"/>
  <circle cx="903.60" cy="298.39" r="2.5" fill="#2563eb"/>
  <circle cx="904.96" cy="246.78" r="2.5" fill="#2563eb"/>
  <circle cx="906.33" cy="246.78" r="2.5" fill="#2563eb"/>
  <circle cx="907.69" cy="298.39" r="2.5" fill="#2563eb"/>
  <circle cx="909.06" cy="298.39" r="2.5" fill="#2563eb"/>
  <circle cx="910.42" cy="298.39" r="2.5" fill="#2563eb"/>
  <circle cx="911.78" cy="298.39" r="2.5" fill="#2563eb"/>
  <circle cx="913.15" cy="298.39" r="2.5" fill="#2563eb"/>
  <circle cx="914.51" cy="298.39" r="2.5" fill="#2563eb"/>
  <circle cx="915.88" cy="298.39" r="2.5" fill="#2563eb"/>
  <circle cx="917.24" cy="298.39" r="2.5" fill="#2563eb"/>
  <circle cx="918.61" cy="298.39" r="2.5" fill="#2563eb"/>
  <circle cx="919.97" cy="298.39" r="2.5" fill="#2563eb"/>
  <circle cx="921.33" cy="298.39" r="2.5" fill="#2563eb"/>
  <circle cx="922.70" cy="298.39" r="2.5" fill="#2563eb"/>
  <circle cx="924.06" cy="298.39" r="2.5" fill="#2563eb"/>
  <circle cx="925.43" cy="298.39" r="2.5" fill="#2563eb"/>
  <circle cx="926.79" cy="298.35" r="2.5" fill="#2563eb"/>
  <circle cx="928.16" cy="298.39" r="2.5" fill="#2563eb"/>
  <circle cx="929.52" cy="298.39" r="2.5" fill="#2563eb"/>
  <circle cx="930.88" cy="298.35" r="2.5" fill="#2563eb"/>
  <circle cx="932.25" cy="298.35" r="2.5" fill="#2563eb"/>
  <circle cx="933.61" cy="298.35" r="2.5" fill="#2563eb"/>
  <circle cx="934.98" cy="298.35" r="2.5" fill="#2563eb"/>
  <circle cx="936.34" cy="298.35" r="2.5" fill="#2563eb"/>
  <circle cx="937.71" cy="298.35" r="2.5" fill="#2563eb"/>
  <circle cx="939.07" cy="298.35" r="2.5" fill="#2563eb"/>
  <circle cx="940.43" cy="298.35" r="2.5" fill="#2563eb"/>
  <circle cx="941.80" cy="298.35" r="2.5" fill="#2563eb"/>
  <circle cx="943.16" cy="298.35" r="2.5" fill="#2563eb"/>
  <circle cx="944.53" cy="298.35" r="2.5" fill="#2563eb"/>
  <circle cx="945.89" cy="298.35" r="2.5" fill="#2563eb"/>
  <circle cx="947.26" cy="298.35" r="2.5" fill="#2563eb"/>
  <circle cx="948.62" cy="298.35" r="2.5" fill="#2563eb"/>
  <circle cx="949.99" cy="298.35" r="2.5" fill="#2563eb"/>
  <circle cx="951.35" cy="298.35" r="2.5" fill="#2563eb"/>
  <circle cx="952.71" cy="298.35" r="2.5" fill="#2563eb"/>
  <circle cx="954.08" cy="298.35" r="2.5" fill="#2563eb"/>
  <circle cx="955.44" cy="298.35" r="2.5" fill="#2563eb"/>
  <circle cx="956.81" cy="298.35" r="2.5" fill="#2563eb"/>
  <circle cx="958.17" cy="298.35" r="2.5" fill="#2563eb"/>
  <circle cx="959.54" cy="298.35" r="2.5" fill="#2563eb"/>
  <circle cx="960.90" cy="298.35" r="2.5" fill="#2563eb"/>
  <circle cx="962.26" cy="298.35" r="2.5" fill="#2563eb"/>
  <circle cx="963.63" cy="298.35" r="2.5" fill="#2563eb"/>
  <circle cx="964.99" cy="298.35" r="2.5" fill="#2563eb"/>
  <circle cx="966.36" cy="298.35" r="2.5" fill="#2563eb"/>
  <circle cx="967.72" cy="298.35" r="2.5" fill="#2563eb"/>
  <circle cx="969.09" cy="298.35" r="2.5" fill="#2563eb"/>
  <circle cx="970.45" cy="298.35" r="2.5" fill="#2563eb"/>
  <circle cx="971.81" cy="298.35" r="2.5" fill="#2563eb"/>
  <circle cx="973.18" cy="298.35" r="2.5" fill="#2563eb"/>
  <circle cx="974.54" cy="298.35" r="2.5" fill="#2563eb"/>
  <circle cx="975.91" cy="298.35" r="2.5" fill="#2563eb"/>
  <circle cx="977.27" cy="298.35" r="2.5" fill="#2563eb"/>
  <circle cx="978.64" cy="298.35" r="2.5" fill="#2563eb"/>
  <circle cx="980.00" cy="298.35" r="2.5" fill="#2563eb"/>
</svg>
