<?xml version="1.0" encoding="UTF-8"?>
<svg xmlns="http://www.w3.org/2000/svg" width="1000" height="420" viewBox="0 0 1000 420">
  <rect width="100%" height="100%" fill="#ffffff"/>
  <text x="70" y="28" font-size="20" font-weight="600">수집 시점 기준 - 시간별 스냅샷</text>
  <text x="70" y="402" font-size="12" fill="#555">스냅샷 수</text>
  <line x1="70" y1="350.00" x2="980" y2="350.00" stroke="#e5e7eb" stroke-width="1"/>
  <text x="62" y="354.00" font-size="11" fill="#6b7280" text-anchor="end">0</text>
  <line x1="70" y1="290.00" x2="980" y2="290.00" stroke="#e5e7eb" stroke-width="1"/>
  <text x="62" y="294.00" font-size="11" fill="#6b7280" text-anchor="end">1,440</text>
  <line x1="70" y1="230.00" x2="980" y2="230.00" stroke="#e5e7eb" stroke-width="1"/>
  <text x="62" y="234.00" font-size="11" fill="#6b7280" text-anchor="end">2,880</text>
  <line x1="70" y1="170.00" x2="980" y2="170.00" stroke="#e5e7eb" stroke-width="1"/>
  <text x="62" y="174.00" font-size="11" fill="#6b7280" text-anchor="end">4,321</text>
  <line x1="70" y1="110.00" x2="980" y2="110.00" stroke="#e5e7eb" stroke-width="1"/>
  <text x="62" y="114.00" font-size="11" fill="#6b7280" text-anchor="end">5,761</text>
  <line x1="70" y1="50.00" x2="980" y2="50.00" stroke="#e5e7eb" stroke-width="1"/>
  <text x="62" y="54.00" font-size="11" fill="#6b7280" text-anchor="end">7,202</text>
  <line x1="70" y1="350" x2="980" y2="350" stroke="#111827" stroke-width="1.2"/>
  <line x1="70" y1="50" x2="70" y2="350" stroke="#111827" stroke-width="1.2"/>
  <line x1="70.00" y1="350" x2="70.00" y2="356" stroke="#9ca3af" stroke-width="1"/>
  <text x="70.00" y="372" font-size="10" fill="#6b7280" text-anchor="middle">2026-02-28 18</text>
  <line x1="145.26" y1="350" x2="145.26" y2="356" stroke="#9ca3af" stroke-width="1"/>
  <text x="145.26" y="372" font-size="10" fill="#6b7280" text-anchor="middle">2026-03-08 23</text>
  <line x1="220.53" y1="350" x2="220.53" y2="356" stroke="#9ca3af" stroke-width="1"/>
  <text x="220.53" y="372" font-size="10" fill="#6b7280" text-anchor="middle">2026-03-10 23</text>
  <line x1="295.79" y1="350" x2="295.79" y2="356" stroke="#9ca3af" stroke-width="1"/>
  <text x="295.79" y="372" font-size="10" fill="#6b7280" text-anchor="middle">2026-03-12 23</text>
  <line x1="371.05" y1="350" x2="371.05" y2="356" stroke="#9ca3af" stroke-width="1"/>
  <text x="371.05" y="372" font-size="10" fill="#6b7280" text-anchor="middle">2026-03-15 04</text>
  <line x1="446.32" y1="350" x2="446.32" y2="356" stroke="#9ca3af" stroke-width="1"/>
  <text x="446.32" y="372" font-size="10" fill="#6b7280" text-anchor="middle">2026-03-18 00</text>
  <line x1="521.58" y1="350" x2="521.58" y2="356" stroke="#9ca3af" stroke-width="1"/>
  <text x="521.58" y="372" font-size="10" fill="#6b7280" text-anchor="middle">2026-03-20 20</text>
  <line x1="596.84" y1="350" x2="596.84" y2="356" stroke="#9ca3af" stroke-width="1"/>
  <text x="596.84" y="372" font-size="10" fill="#6b7280" text-anchor="middle">2026-03-23 06</text>
  <line x1="672.11" y1="350" x2="672.11" y2="356" stroke="#9ca3af" stroke-width="1"/>
  <text x="672.11" y="372" font-size="10" fill="#6b7280" text-anchor="middle">2026-03-26 06</text>
  <line x1="747.37" y1="350" x2="747.37" y2="356" stroke="#9ca3af" stroke-width="1"/>
  <text x="747.37" y="372" font-size="10" fill="#6b7280" text-anchor="middle">2026-03-29 06</text>
  <line x1="822.63" y1="350" x2="822.63" y2="356" stroke="#9ca3af" stroke-width="1"/>
  <text x="822.63" y="372" font-size="10" fill="#6b7280" text-anchor="middle">2026-04-01 08</text>
  <line x1="897.89" y1="350" x2="897.89" y2="356" stroke="#9ca3af" stroke-width="1"/>
  <text x="897.89" y="372" font-size="10" fill="#6b7280" text-anchor="middle">2026-04-04 06</text>
  <line x1="973.16" y1="350" x2="973.16" y2="356" stroke="#9ca3af" stroke-width="1"/>
  <text x="973.16" y="372" font-size="10" fill="#6b7280" text-anchor="middle">2026-04-07 07</text>
  <line x1="980.00" y1="350" x2="980.00" y2="356" stroke="#9ca3af" stroke-width="1"/>
  <text x="980.00" y="372" font-size="10" fill="#6b7280" text-anchor="middle">2026-04-07 15</text>
  <polyline fill="none" stroke="#2563eb" stroke-width="2.5" points="70.00,50.00 71.71,50.12 73.42,50.17 75.13,50.46 76.84,50.00 78.55,266.90 80.26,50.12 81.97,50.08 83.68,177.46 85.39,211.58 87.11,175.34 88.82,304.14 90.53,200.46 92.24,250.94 93.95,300.01 95.66,300.06 97.37,300.01 99.08,300.01 100.79,348.00 102.50,300.01 104.21,249.99 105.92,200.00 107.63,249.99 109.34,249.99 111.05,250.03 112.76,250.03 114.47,250.03 116.18,250.40 117.89,250.90 119.61,250.90 121.32,251.32 123.03,249.94 124.74,300.01 126.45,299.93 128.16,251.03 129.87,300.68 131.58,250.03 133.29,200.00 135.00,249.99 136.71,250.03 138.42,250.03 140.13,250.03 141.84,300.01 143.55,200.04 145.26,250.03 146.97,250.03 148.68,250.03 150.39,249.90 152.11,250.03 153.82,250.03 155.53,250.94 157.24,250.44 158.95,250.03 160.66,250.03 162.37,300.47 164.08,300.01 165.79,300.43 167.50,250.03 169.21,249.99 170.92,300.43 172.63,249.90 174.34,249.99 176.05,249.99 177.76,200.04 179.47,300.01 181.18,300.01 182.89,300.01 184.61,249.90 186.32,300.01 188.03,250.03 189.74,249.99 191.45,199.96 193.16,300.01 194.87,200.00 196.58,250.36 198.29,250.03 200.00,300.01 201.71,300.01 203.42,250.44 205.13,300.01 206.84,250.03 208.55,250.03 210.26,249.99 211.97,250.49 213.68,250.03 215.39,200.04 217.11,300.01 218.82,250.03 220.53,300.01 222.24,250.11 223.95,300.01 225.66,250.03 227.37,250.03 229.08,199.92 230.79,250.03 232.50,250.03 234.21,250.03 235.92,254.36 237.63,300.01 239.34,299.97 241.05,250.36 242.76,299.97 244.47,250.03 246.18,250.03 247.89,250.03 249.61,250.03 251.32,249.99 253.03,200.00 254.74,299.93 256.45,300.01 258.16,299.97 259.87,249.94 261.58,249.99 263.29,249.82 265.00,249.94 266.71,250.28 268.42,207.00 270.13,250.03 271.84,250.32 273.55,250.40 275.26,300.93 276.97,300.01 278.68,300.10 280.39,249.94 282.11,249.99 283.82,250.07 285.53,249.99 287.24,250.03 288.95,249.94 290.66,200.00 292.37,300.39 294.08,300.01 295.79,300.01 297.50,250.44 299.21,300.39 300.92,249.86 302.63,250.11 304.34,201.46 306.05,300.01 307.76,200.83 309.47,250.03 311.18,249.99 312.89,300.26 314.61,300.01 316.32,300.01 318.03,250.03 319.74,250.03 321.45,250.03 323.16,250.03 324.87,249.99 326.58,250.03 328.29,200.00 330.00,300.26 331.71,249.99 333.42,300.01 335.13,249.94 336.84,250.03 338.55,250.03 340.26,250.03 341.97,200.04 343.68,300.01 345.39,249.90 347.11,300.01 348.82,300.01 350.53,300.06 352.24,300.01 353.95,300.01 355.66,243.95 357.37,249.94 359.08,299.97 360.79,300.01 362.50,300.01 364.21,250.03 365.92,300.01 367.63,300.01 369.34,299.97 371.05,249.99 372.76,300.01 374.47,299.93 376.18,300.01 377.89,299.93 379.61,300.01 381.32,300.01 383.03,299.89 384.74,299.97 386.45,250.03 388.16,299.93 389.87,299.89 391.58,299.97 393.29,249.94 395.00,300.01 396.71,300.01 398.42,299.97 400.13,249.99 401.84,299.97 403.55,299.97 405.26,300.06 406.97,300.06 408.68,299.93 410.39,300.01 412.11,300.01 413.82,299.93 415.53,300.01 417.24,300.01 418.95,299.97 420.66,300.01 422.37,300.01 424.08,300.01 425.79,300.01 427.50,249.86 429.21,300.01 430.92,300.10 432.63,299.93 434.34,300.01 436.05,299.93 437.76,300.01 439.47,300.01 441.18,300.01 442.89,300.01 444.61,300.01 446.32,299.97 448.03,300.01 449.74,300.01 451.45,300.01 453.16,300.01 454.87,250.03 456.58,300.01 458.29,300.01 460.00,299.97 461.71,300.01 463.42,300.01 465.13,299.97 466.84,299.97 468.55,300.01 470.26,299.97 471.97,300.01 473.68,299.93 475.39,300.01 477.11,250.03 478.82,300.01 480.53,300.01 482.24,300.01 483.95,300.01 485.66,300.01 487.37,299.89 489.08,300.01 490.79,300.01 492.50,250.07 494.21,300.01 495.92,299.93 497.63,300.01 499.34,299.97 501.05,299.97 502.76,299.97 504.47,250.03 506.18,300.01 507.89,300.01 509.61,300.01 511.32,300.01 513.03,299.97 514.74,300.01 516.45,299.97 518.16,300.01 519.87,299.97 521.58,249.90 523.29,300.01 525.00,300.01 526.71,299.89 528.42,299.97 530.13,299.97 531.84,249.99 533.55,299.97 535.26,299.89 536.97,300.01 538.68,299.97 540.39,299.97 542.11,300.01 543.82,299.97 545.53,249.99 547.24,299.97 548.95,299.97 550.66,300.06 552.37,300.06 554.08,249.94 555.79,300.01 557.50,299.93 559.21,300.01 560.92,300.01 562.63,249.99 564.34,300.01 566.05,300.01 567.76,300.01 569.47,299.93 571.18,299.93 572.89,300.01 574.61,300.01 576.32,249.94 578.03,299.97 579.74,299.97 581.45,300.01 583.16,300.01 584.87,300.01 586.58,249.99 588.29,300.01 590.00,300.01 591.71,300.01 593.42,250.03 595.13,300.01 596.84,300.01 598.55,300.01 600.26,299.97 601.97,300.01 603.68,300.01 605.39,299.97 607.11,299.97 608.82,300.01 610.53,300.01 612.24,299.97 613.95,299.93 615.66,300.01 617.37,300.06 619.08,299.97 620.79,300.01 622.50,250.03 624.21,250.03 625.92,299.93 627.63,299.97 629.34,300.01 631.05,300.01 632.76,300.06 634.47,300.01 636.18,299.93 637.89,300.01 639.61,300.01 641.32,299.97 643.03,299.97 644.74,300.01 646.45,250.03 648.16,300.01 649.87,300.01 651.58,300.01 653.29,299.97 655.00,300.01 656.71,299.97 658.42,300.01 660.13,299.97 661.84,299.97 663.55,299.93 665.26,300.01 666.97,300.01 668.68,299.89 670.39,299.97 672.11,299.97 673.82,300.06 675.53,249.90 677.24,299.89 678.95,300.01 680.66,299.97 682.37,299.97 684.08,299.97 685.79,300.01 687.50,300.01 689.21,299.97 690.92,299.97 692.63,299.97 694.34,250.03 696.05,299.93 697.76,300.01 699.47,300.01 701.18,299.93 702.89,300.01 704.61,300.01 706.32,299.97 708.03,300.01 709.74,300.01 711.45,300.06 713.16,300.01 714.87,299.97 716.58,299.89 718.29,300.01 720.00,300.01 721.71,249.94 723.42,249.94 725.13,300.01 726.84,300.01 728.55,300.01 730.26,300.01 731.97,299.97 733.68,250.03 735.39,300.01 737.11,300.01 738.82,300.01 740.53,300.01 742.24,250.03 743.95,249.99 745.66,300.01 747.37,299.97 749.08,300.01 750.79,299.97 752.50,300.01 754.21,299.97 755.92,299.97 757.63,299.97 759.34,300.06 761.05,249.99 762.76,300.01 764.47,250.03 766.18,249.94 767.89,249.99 769.61,300.01 771.32,300.06 773.03,300.01 774.74,299.97 776.45,299.97 778.16,300.01 779.87,299.93 781.58,299.89 783.29,299.89 785.00,299.89 786.71,299.89 788.42,299.85 790.13,299.85 791.84,299.89 793.55,299.81 795.26,299.81 796.97,299.81 798.68,299.76 800.39,299.76 802.11,299.76 803.82,299.72 805.53,299.68 807.24,299.60 808.95,299.60 810.66,299.60 812.37,299.56 814.08,299.47 815.79,299.43 817.50,299.43 819.21,299.39 820.92,299.47 822.63,259.82 824.34,338.96 826.05,299.31 827.76,299.31 829.47,299.26 831.18,299.68 832.89,299.68 834.61,299.68 836.32,299.64 838.03,299.14 839.74,299.14 841.45,299.10 843.16,299.10 844.87,299.10 846.58,248.07 848.29,299.06 850.00,299.06 851.71,299.06 853.42,299.06 855.13,299.06 856.84,298.97 858.55,298.97 860.26,298.93 861.97,298.97 863.68,298.93 865.39,298.89 867.11,298.89 868.82,298.89 870.53,298.89 872.24,247.78 873.95,298.89 875.66,298.89 877.37,298.85 879.08,298.85 880.79,298.81 882.50,298.81 884.21,298.81 885.92,298.81 887.63,298.81 889.34,298.81 891.05,298.81 892.76,298.81 894.47,298.81 896.18,298.72 897.89,247.45 899.61,247.45 901.32,298.72 903.03,298.72 904.74,298.72 906.45,298.72 908.16,298.72 909.87,298.72 911.58,247.36 913.29,298.68 915.00,247.36 916.71,247.36 918.42,247.36 920.13,298.68 921.84,298.68 923.55,298.68 925.26,298.68 926.97,298.68 928.68,341.67 930.39,307.01 932.11,298.68 933.82,298.68 935.53,298.68 937.24,247.36 938.95,298.64 940.66,247.36 942.37,247.28 944.08,247.20 945.79,298.60 947.50,298.60 949.21,247.03 950.92,298.51 952.63,298.51 954.34,298.51 956.05,298.51 957.76,298.51 959.47,298.51 961.18,298.51 962.89,298.51 964.61,298.51 966.32,298.51 968.03,298.51 969.74,298.51 971.45,298.51 973.16,298.51 974.87,298.51 976.58,298.51 978.29,298.51 980.00,298.51"/>
  <circle cx="70.00" cy="50.00" r="2.5" fill="#2563eb"/>
  <circle cx="71.71" cy="50.12" r="2.5" fill="#2563eb"/>
  <circle cx="73.42" cy="50.17" r="2.5" fill="#2563eb"/>
  <circle cx="75.13" cy="50.46" r="2.5" fill="#2563eb"/>
  <circle cx="76.84" cy="50.00" r="2.5" fill="#2563eb"/>
  <circle cx="78.55" cy="266.90" r="2.5" fill="#2563eb"/>
  <circle cx="80.26" cy="50.12" r="2.5" fill="#2563eb"/>
  <circle cx="81.97" cy="50.08" r="2.5" fill="#2563eb"/>
  <circle cx="83.68" cy="177.46" r="2.5" fill="#2563eb"/>
  <circle cx="85.39" cy="211.58" r="2.5" fill="#2563eb"/>
  <circle cx="87.11" cy="175.34" r="2.5" fill="#2563eb"/>
  <circle cx="88.82" cy="304.14" r="2.5" fill="#2563eb"/>
  <circle cx="90.53" cy="200.46" r="2.5" fill="#2563eb"/>
  <circle cx="92.24" cy="250.94" r="2.5" fill="#2563eb"/>
  <circle cx="93.95" cy="300.01" r="2.5" fill="#2563eb"/>
  <circle cx="95.66" cy="300.06" r="2.5" fill="#2563eb"/>
  <circle cx="97.37" cy="300.01" r="2.5" fill="#2563eb"/>
  <circle cx="99.08" cy="300.01" r="2.5" fill="#2563eb"/>
  <circle cx="100.79" cy="348.00" r="2.5" fill="#2563eb"/>
  <circle cx="102.50" cy="300.01" r="2.5" fill="#2563eb"/>
  <circle cx="104.21" cy="249.99" r="2.5" fill="#2563eb"/>
  <circle cx="105.92" cy="200.00" r="2.5" fill="#2563eb"/>
  <circle cx="107.63" cy="249.99" r="2.5" fill="#2563eb"/>
  <circle cx="109.34" cy="249.99" r="2.5" fill="#2563eb"/>
  <circle cx="111.05" cy="250.03" r="2.5" fill="#2563eb"/>
  <circle cx="112.76" cy="250.03" r="2.5" fill="#2563eb"/>
  <circle cx="114.47" cy="250.03" r="2.5" fill="#2563eb"/>
  <circle cx="116.18" cy="250.40" r="2.5" fill="#2563eb"/>
  <circle cx="117.89" cy="250.90" r="2.5" fill="#2563eb"/>
  <circle cx="119.61" cy="250.90" r="2.5" fill="#2563eb"/>
  <circle cx="121.32" cy="251.32" r="2.5" fill="#2563eb"/>
  <circle cx="123.03" cy="249.94" r="2.5" fill="#2563eb"/>
  <circle cx="124.74" cy="300.01" r="2.5" fill="#2563eb"/>
  <circle cx="126.45" cy="299.93" r="2.5" fill="#2563eb"/>
  <circle cx="128.16" cy="251.03" r="2.5" fill="#2563eb"/>
  <circle cx="129.87" cy="300.68" r="2.5" fill="#2563eb"/>
  <circle cx="131.58" cy="250.03" r="2.5" fill="#2563eb"/>
  <circle cx="133.29" cy="200.00" r="2.5" fill="#2563eb"/>
  <circle cx="135.00" cy="249.99" r="2.5" fill="#2563eb"/>
  <circle cx="136.71" cy="250.03" r="2.5" fill="#2563eb"/>
  <circle cx="138.42" cy="250.03" r="2.5" fill="#2563eb"/>
  <circle cx="140.13" cy="250.03" r="2.5" fill="#2563eb"/>
  <circle cx="141.84" cy="300.01" r="2.5" fill="#2563eb"/>
  <circle cx="143.55" cy="200.04" r="2.5" fill="#2563eb"/>
  <circle cx="145.26" cy="250.03" r="2.5" fill="#2563eb"/>
  <circle cx="146.97" cy="250.03" r="2.5" fill="#2563eb"/>
  <circle cx="148.68" cy="250.03" r="2.5" fill="#2563eb"/>
  <circle cx="150.39" cy="249.90" r="2.5" fill="#2563eb"/>
  <circle cx="152.11" cy="250.03" r="2.5" fill="#2563eb"/>
  <circle cx="153.82" cy="250.03" r="2.5" fill="#2563eb"/>
  <circle cx="155.53" cy="250.94" r="2.5" fill="#2563eb"/>
  <circle cx="157.24" cy="250.44" r="2.5" fill="#2563eb"/>
  <circle cx="158.95" cy="250.03" r="2.5" fill="#2563eb"/>
  <circle cx="160.66" cy="250.03" r="2.5" fill="#2563eb"/>
  <circle cx="162.37" cy="300.47" r="2.5" fill="#2563eb"/>
  <circle cx="164.08" cy="300.01" r="2.5" fill="#2563eb"/>
  <circle cx="165.79" cy="300.43" r="2.5" fill="#2563eb"/>
  <circle cx="167.50" cy="250.03" r="2.5" fill="#2563eb"/>
  <circle cx="169.21" cy="249.99" r="2.5" fill="#2563eb"/>
  <circle cx="170.92" cy="300.43" r="2.5" fill="#2563eb"/>
  <circle cx="172.63" cy="249.90" r="2.5" fill="#2563eb"/>
  <circle cx="174.34" cy="249.99" r="2.5" fill="#2563eb"/>
  <circle cx="176.05" cy="249.99" r="2.5" fill="#2563eb"/>
  <circle cx="177.76" cy="200.04" r="2.5" fill="#2563eb"/>
  <circle cx="179.47" cy="300.01" r="2.5" fill="#2563eb"/>
  <circle cx="181.18" cy="300.01" r="2.5" fill="#2563eb"/>
  <circle cx="182.89" cy="300.01" r="2.5" fill="#2563eb"/>
  <circle cx="184.61" cy="249.90" r="2.5" fill="#2563eb"/>
  <circle cx="186.32" cy="300.01" r="2.5" fill="#2563eb"/>
  <circle cx="188.03" cy="250.03" r="2.5" fill="#2563eb"/>
  <circle cx="189.74" cy="249.99" r="2.5" fill="#2563eb"/>
  <circle cx="191.45" cy="199.96" r="2.5" fill="#2563eb"/>
  <circle cx="193.16" cy="300.01" r="2.5" fill="#2563eb"/>
  <circle cx="194.87" cy="200.00" r="2.5" fill="#2563eb"/>
  <circle cx="196.58" cy="250.36" r="2.5" fill="#2563eb"/>
  <circle cx="198.29" cy="250.03" r="2.5" fill="#2563eb"/>
  <circle cx="200.00" cy="300.01" r="2.5" fill="#2563eb"/>
  <circle cx="201.71" cy="300.01" r="2.5" fill="#2563eb"/>
  <circle cx="203.42" cy="250.44" r="2.5" fill="#2563eb"/>
  <circle cx="205.13" cy="300.01" r="2.5" fill="#2563eb"/>
  <circle cx="206.84" cy="250.03" r="2.5" fill="#2563eb"/>
  <circle cx="208.55" cy="250.03" r="2.5" fill="#2563eb"/>
  <circle cx="210.26" cy="249.99" r="2.5" fill="#2563eb"/>
  <circle cx="211.97" cy="250.49" r="2.5" fill="#2563eb"/>
  <circle cx="213.68" cy="250.03" r="2.5" fill="#2563eb"/>
  <circle cx="215.39" cy="200.04" r="2.5" fill="#2563eb"/>
  <circle cx="217.11" cy="300.01" r="2.5" fill="#2563eb"/>
  <circle cx="218.82" cy="250.03" r="2.5" fill="#2563eb"/>
  <circle cx="220.53" cy="300.01" r="2.5" fill="#2563eb"/>
  <circle cx="222.24" cy="250.11" r="2.5" fill="#2563eb"/>
  <circle cx="223.95" cy="300.01" r="2.5" fill="#2563eb"/>
  <circle cx="225.66" cy="250.03" r="2.5" fill="#2563eb"/>
  <circle cx="227.37" cy="250.03" r="2.5" fill="#2563eb"/>
  <circle cx="229.08" cy="199.92" r="2.5" fill="#2563eb"/>
  <circle cx="230.79" cy="250.03" r="2.5" fill="#2563eb"/>
  <circle cx="232.50" cy="250.03" r="2.5" fill="#2563eb"/>
  <circle cx="234.21" cy="250.03" r="2.5" fill="#2563eb"/>
  <circle cx="235.92" cy="254.36" r="2.5" fill="#2563eb"/>
  <circle cx="237.63" cy="300.01" r="2.5" fill="#2563eb"/>
  <circle cx="239.34" cy="299.97" r="2.5" fill="#2563eb"/>
  <circle cx="241.05" cy="250.36" r="2.5" fill="#2563eb"/>
  <circle cx="242.76" cy="299.97" r="2.5" fill="#2563eb"/>
  <circle cx="244.47" cy="250.03" r="2.5" fill="#2563eb"/>
  <circle cx="246.18" cy="250.03" r="2.5" fill="#2563eb"/>
  <circle cx="247.89" cy="250.03" r="2.5" fill="#2563eb"/>
  <circle cx="249.61" cy="250.03" r="2.5" fill="#2563eb"/>
  <circle cx="251.32" cy="249.99" r="2.5" fill="#2563eb"/>
  <circle cx="253.03" cy="200.00" r="2.5" fill="#2563eb"/>
  <circle cx="254.74" cy="299.93" r="2.5" fill="#2563eb"/>
  <circle cx="256.45" cy="300.01" r="2.5" fill="#2563eb"/>
  <circle cx="258.16" cy="299.97" r="2.5" fill="#2563eb"/>
  <circle cx="259.87" cy="249.94" r="2.5" fill="#2563eb"/>
  <circle cx="261.58" cy="249.99" r="2.5" fill="#2563eb"/>
  <circle cx="263.29" cy="249.82" r="2.5" fill="#2563eb"/>
  <circle cx="265.00" cy="249.94" r="2.5" fill="#2563eb"/>
  <circle cx="266.71" cy="250.28" r="2.5" fill="#2563eb"/>
  <circle cx="268.42" cy="207.00" r="2.5" fill="#2563eb"/>
  <circle cx="270.13" cy="250.03" r="2.5" fill="#2563eb"/>
  <circle cx="271.84" cy="250.32" r="2.5" fill="#2563eb"/>
  <circle cx="273.55" cy="250.40" r="2.5" fill="#2563eb"/>
  <circle cx="275.26" cy="300.93" r="2.5" fill="#2563eb"/>
  <circle cx="276.97" cy="300.01" r="2.5" fill="#2563eb"/>
  <circle cx="278.68" cy="300.10" r="2.5" fill="#2563eb"/>
  <circle cx="280.39" cy="249.94" r="2.5" fill="#2563eb"/>
  <circle cx="282.11" cy="249.99" r="2.5" fill="#2563eb"/>
  <circle cx="283.82" cy="250.07" r="2.5" fill="#2563eb"/>
  <circle cx="285.53" cy="249.99" r="2.5" fill="#2563eb"/>
  <circle cx="287.24" cy="250.03" r="2.5" fill="#2563eb"/>
  <circle cx="288.95" cy="249.94" r="2.5" fill="#2563eb"/>
  <circle cx="290.66" cy="200.00" r="2.5" fill="#2563eb"/>
  <circle cx="292.37" cy="300.39" r="2.5" fill="#2563eb"/>
  <circle cx="294.08" cy="300.01" r="2.5" fill="#2563eb"/>
  <circle cx="295.79" cy="300.01" r="2.5" fill="#2563eb"/>
  <circle cx="297.50" cy="250.44" r="2.5" fill="#2563eb"/>
  <circle cx="299.21" cy="300.39" r="2.5" fill="#2563eb"/>
  <circle cx="300.92" cy="249.86" r="2.5" fill="#2563eb"/>
  <circle cx="302.63" cy="250.11" r="2.5" fill="#2563eb"/>
  <circle cx="304.34" cy="201.46" r="2.5" fill="#2563eb"/>
  <circle cx="306.05" cy="300.01" r="2.5" fill="#2563eb"/>
  <circle cx="307.76" cy="200.83" r="2.5" fill="#2563eb"/>
  <circle cx="309.47" cy="250.03" r="2.5" fill="#2563eb"/>
  <circle cx="311.18" cy="249.99" r="2.5" fill="#2563eb"/>
  <circle cx="312.89" cy="300.26" r="2.5" fill="#2563eb"/>
  <circle cx="314.61" cy="300.01" r="2.5" fill="#2563eb"/>
  <circle cx="316.32" cy="300.01" r="2.5" fill="#2563eb"/>
  <circle cx="318.03" cy="250.03" r="2.5" fill="#2563eb"/>
  <circle cx="319.74" cy="250.03" r="2.5" fill="#2563eb"/>
  <circle cx="321.45" cy="250.03" r="2.5" fill="#2563eb"/>
  <circle cx="323.16" cy="250.03" r="2.5" fill="#2563eb"/>
  <circle cx="324.87" cy="249.99" r="2.5" fill="#2563eb"/>
  <circle cx="326.58" cy="250.03" r="2.5" fill="#2563eb"/>
  <circle cx="328.29" cy="200.00" r="2.5" fill="#2563eb"/>
  <circle cx="330.00" cy="300.26" r="2.5" fill="#2563eb"/>
  <circle cx="331.71" cy="249.99" r="2.5" fill="#2563eb"/>
  <circle cx="333.42" cy="300.01" r="2.5" fill="#2563eb"/>
  <circle cx="335.13" cy="249.94" r="2.5" fill="#2563eb"/>
  <circle cx="336.84" cy="250.03" r="2.5" fill="#2563eb"/>
  <circle cx="338.55" cy="250.03" r="2.5" fill="#2563eb"/>
  <circle cx="340.26" cy="250.03" r="2.5" fill="#2563eb"/>
  <circle cx="341.97" cy="200.04" r="2.5" fill="#2563eb"/>
  <circle cx="343.68" cy="300.01" r="2.5" fill="#2563eb"/>
  <circle cx="345.39" cy="249.90" r="2.5" fill="#2563eb"/>
  <circle cx="347.11" cy="300.01" r="2.5" fill="#2563eb"/>
  <circle cx="348.82" cy="300.01" r="2.5" fill="#2563eb"/>
  <circle cx="350.53" cy="300.06" r="2.5" fill="#2563eb"/>
  <circle cx="352.24" cy="300.01" r="2.5" fill="#2563eb"/>
  <circle cx="353.95" cy="300.01" r="2.5" fill="#2563eb"/>
  <circle cx="355.66" cy="243.95" r="2.5" fill="#2563eb"/>
  <circle cx="357.37" cy="249.94" r="2.5" fill="#2563eb"/>
  <circle cx="359.08" cy="299.97" r="2.5" fill="#2563eb"/>
  <circle cx="360.79" cy="300.01" r="2.5" fill="#2563eb"/>
  <circle cx="362.50" cy="300.01" r="2.5" fill="#2563eb"/>
  <circle cx="364.21" cy="250.03" r="2.5" fill="#2563eb"/>
  <circle cx="365.92" cy="300.01" r="2.5" fill="#2563eb"/>
  <circle cx="367.63" cy="300.01" r="2.5" fill="#2563eb"/>
  <circle cx="369.34" cy="299.97" r="2.5" fill="#2563eb"/>
  <circle cx="371.05" cy="249.99" r="2.5" fill="#2563eb"/>
  <circle cx="372.76" cy="300.01" r="2.5" fill="#2563eb"/>
  <circle cx="374.47" cy="299.93" r="2.5" fill="#2563eb"/>
  <circle cx="376.18" cy="300.01" r="2.5" fill="#2563eb"/>
  <circle cx="377.89" cy="299.93" r="2.5" fill="#2563eb"/>
  <circle cx="379.61" cy="300.01" r="2.5" fill="#2563eb"/>
  <circle cx="381.32" cy="300.01" r="2.5" fill="#2563eb"/>
  <circle cx="383.03" cy="299.89" r="2.5" fill="#2563eb"/>
  <circle cx="384.74" cy="299.97" r="2.5" fill="#2563eb"/>
  <circle cx="386.45" cy="250.03" r="2.5" fill="#2563eb"/>
  <circle cx="388.16" cy="299.93" r="2.5" fill="#2563eb"/>
  <circle cx="389.87" cy="299.89" r="2.5" fill="#2563eb"/>
  <circle cx="391.58" cy="299.97" r="2.5" fill="#2563eb"/>
  <circle cx="393.29" cy="249.94" r="2.5" fill="#2563eb"/>
  <circle cx="395.00" cy="300.01" r="2.5" fill="#2563eb"/>
  <circle cx="396.71" cy="300.01" r="2.5" fill="#2563eb"/>
  <circle cx="398.42" cy="299.97" r="2.5" fill="#2563eb"/>
  <circle cx="400.13" cy="249.99" r="2.5" fill="#2563eb"/>
  <circle cx="401.84" cy="299.97" r="2.5" fill="#2563eb"/>
  <circle cx="403.55" cy="299.97" r="2.5" fill="#2563eb"/>
  <circle cx="405.26" cy="300.06" r="2.5" fill="#2563eb"/>
  <circle cx="406.97" cy="300.06" r="2.5" fill="#2563eb"/>
  <circle cx="408.68" cy="299.93" r="2.5" fill="#2563eb"/>
  <circle cx="410.39" cy="300.01" r="2.5" fill="#2563eb"/>
  <circle cx="412.11" cy="300.01" r="2.5" fill="#2563eb"/>
  <circle cx="413.82" cy="299.93" r="2.5" fill="#2563eb"/>
  <circle cx="415.53" cy="300.01" r="2.5" fill="#2563eb"/>
  <circle cx="417.24" cy="300.01" r="2.5" fill="#2563eb"/>
  <circle cx="418.95" cy="299.97" r="2.5" fill="#2563eb"/>
  <circle cx="420.66" cy="300.01" r="2.5" fill="#2563eb"/>
  <circle cx="422.37" cy="300.01" r="2.5" fill="#2563eb"/>
  <circle cx="424.08" cy="300.01" r="2.5" fill="#2563eb"/>
  <circle cx="425.79" cy="300.01" r="2.5" fill="#2563eb"/>
  <circle cx="427.50" cy="249.86" r="2.5" fill="#2563eb"/>
  <circle cx="429.21" cy="300.01" r="2.5" fill="#2563eb"/>
  <circle cx="430.92" cy="300.10" r="2.5" fill="#2563eb"/>
  <circle cx="432.63" cy="299.93" r="2.5" fill="#2563eb"/>
  <circle cx="434.34" cy="300.01" r="2.5" fill="#2563eb"/>
  <circle cx="436.05" cy="299.93" r="2.5" fill="#2563eb"/>
  <circle cx="437.76" cy="300.01" r="2.5" fill="#2563eb"/>
  <circle cx="439.47" cy="300.01" r="2.5" fill="#2563eb"/>
  <circle cx="441.18" cy="300.01" r="2.5" fill="#2563eb"/>
  <circle cx="442.89" cy="300.01" r="2.5" fill="#2563eb"/>
  <circle cx="444.61" cy="300.01" r="2.5" fill="#2563eb"/>
  <circle cx="446.32" cy="299.97" r="2.5" fill="#2563eb"/>
  <circle cx="448.03" cy="300.01" r="2.5" fill="#2563eb"/>
  <circle cx="449.74" cy="300.01" r="2.5" fill="#2563eb"/>
  <circle cx="451.45" cy="300.01" r="2.5" fill="#2563eb"/>
  <circle cx="453.16" cy="300.01" r="2.5" fill="#2563eb"/>
  <circle cx="454.87" cy="250.03" r="2.5" fill="#2563eb"/>
  <circle cx="456.58" cy="300.01" r="2.5" fill="#2563eb"/>
  <circle cx="458.29" cy="300.01" r="2.5" fill="#2563eb"/>
  <circle cx="460.00" cy="299.97" r="2.5" fill="#2563eb"/>
  <circle cx="461.71" cy="300.01" r="2.5" fill="#2563eb"/>
  <circle cx="463.42" cy="300.01" r="2.5" fill="#2563eb"/>
  <circle cx="465.13" cy="299.97" r="2.5" fill="#2563eb"/>
  <circle cx="466.84" cy="299.97" r="2.5" fill="#2563eb"/>
  <circle cx="468.55" cy="300.01" r="2.5" fill="#2563eb"/>
  <circle cx="470.26" cy="299.97" r="2.5" fill="#2563eb"/>
  <circle cx="471.97" cy="300.01" r="2.5" fill="#2563eb"/>
  <circle cx="473.68" cy="299.93" r="2.5" fill="#2563eb"/>
  <circle cx="475.39" cy="300.01" r="2.5" fill="#2563eb"/>
  <circle cx="477.11" cy="250.03" r="2.5" fill="#2563eb"/>
  <circle cx="478.82" cy="300.01" r="2.5" fill="#2563eb"/>
  <circle cx="480.53" cy="300.01" r="2.5" fill="#2563eb"/>
  <circle cx="482.24" cy="300.01" r="2.5" fill="#2563eb"/>
  <circle cx="483.95" cy="300.01" r="2.5" fill="#2563eb"/>
  <circle cx="485.66" cy="300.01" r="2.5" fill="#2563eb"/>
  <circle cx="487.37" cy="299.89" r="2.5" fill="#2563eb"/>
  <circle cx="489.08" cy="300.01" r="2.5" fill="#2563eb"/>
  <circle cx="490.79" cy="300.01" r="2.5" fill="#2563eb"/>
  <circle cx="492.50" cy="250.07" r="2.5" fill="#2563eb"/>
  <circle cx="494.21" cy="300.01" r="2.5" fill="#2563eb"/>
  <circle cx="495.92" cy="299.93" r="2.5" fill="#2563eb"/>
  <circle cx="497.63" cy="300.01" r="2.5" fill="#2563eb"/>
  <circle cx="499.34" cy="299.97" r="2.5" fill="#2563eb"/>
  <circle cx="501.05" cy="299.97" r="2.5" fill="#2563eb"/>
  <circle cx="502.76" cy="299.97" r="2.5" fill="#2563eb"/>
  <circle cx="504.47" cy="250.03" r="2.5" fill="#2563eb"/>
  <circle cx="506.18" cy="300.01" r="2.5" fill="#2563eb"/>
  <circle cx="507.89" cy="300.01" r="2.5" fill="#2563eb"/>
  <circle cx="509.61" cy="300.01" r="2.5" fill="#2563eb"/>
  <circle cx="511.32" cy="300.01" r="2.5" fill="#2563eb"/>
  <circle cx="513.03" cy="299.97" r="2.5" fill="#2563eb"/>
  <circle cx="514.74" cy="300.01" r="2.5" fill="#2563eb"/>
  <circle cx="516.45" cy="299.97" r="2.5" fill="#2563eb"/>
  <circle cx="518.16" cy="300.01" r="2.5" fill="#2563eb"/>
  <circle cx="519.87" cy="299.97" r="2.5" fill="#2563eb"/>
  <circle cx="521.58" cy="249.90" r="2.5" fill="#2563eb"/>
  <circle cx="523.29" cy="300.01" r="2.5" fill="#2563eb"/>
  <circle cx="525.00" cy="300.01" r="2.5" fill="#2563eb"/>
  <circle cx="526.71" cy="299.89" r="2.5" fill="#2563eb"/>
  <circle cx="528.42" cy="299.97" r="2.5" fill="#2563eb"/>
  <circle cx="530.13" cy="299.97" r="2.5" fill="#2563eb"/>
  <circle cx="531.84" cy="249.99" r="2.5" fill="#2563eb"/>
  <circle cx="533.55" cy="299.97" r="2.5" fill="#2563eb"/>
  <circle cx="535.26" cy="299.89" r="2.5" fill="#2563eb"/>
  <circle cx="536.97" cy="300.01" r="2.5" fill="#2563eb"/>
  <circle cx="538.68" cy="299.97" r="2.5" fill="#2563eb"/>
  <circle cx="540.39" cy="299.97" r="2.5" fill="#2563eb"/>
  <circle cx="542.11" cy="300.01" r="2.5" fill="#2563eb"/>
  <circle cx="543.82" cy="299.97" r="2.5" fill="#2563eb"/>
  <circle cx="545.53" cy="249.99" r="2.5" fill="#2563eb"/>
  <circle cx="547.24" cy="299.97" r="2.5" fill="#2563eb"/>
  <circle cx="548.95" cy="299.97" r="2.5" fill="#2563eb"/>
  <circle cx="550.66" cy="300.06" r="2.5" fill="#2563eb"/>
  <circle cx="552.37" cy="300.06" r="2.5" fill="#2563eb"/>
  <circle cx="554.08" cy="249.94" r="2.5" fill="#2563eb"/>
  <circle cx="555.79" cy="300.01" r="2.5" fill="#2563eb"/>
  <circle cx="557.50" cy="299.93" r="2.5" fill="#2563eb"/>
  <circle cx="559.21" cy="300.01" r="2.5" fill="#2563eb"/>
  <circle cx="560.92" cy="300.01" r="2.5" fill="#2563eb"/>
  <circle cx="562.63" cy="249.99" r="2.5" fill="#2563eb"/>
  <circle cx="564.34" cy="300.01" r="2.5" fill="#2563eb"/>
  <circle cx="566.05" cy="300.01" r="2.5" fill="#2563eb"/>
  <circle cx="567.76" cy="300.01" r="2.5" fill="#2563eb"/>
  <circle cx="569.47" cy="299.93" r="2.5" fill="#2563eb"/>
  <circle cx="571.18" cy="299.93" r="2.5" fill="#2563eb"/>
  <circle cx="572.89" cy="300.01" r="2.5" fill="#2563eb"/>
  <circle cx="574.61" cy="300.01" r="2.5" fill="#2563eb"/>
  <circle cx="576.32" cy="249.94" r="2.5" fill="#2563eb"/>
  <circle cx="578.03" cy="299.97" r="2.5" fill="#2563eb"/>
  <circle cx="579.74" cy="299.97" r="2.5" fill="#2563eb"/>
  <circle cx="581.45" cy="300.01" r="2.5" fill="#2563eb"/>
  <circle cx="583.16" cy="300.01" r="2.5" fill="#2563eb"/>
  <circle cx="584.87" cy="300.01" r="2.5" fill="#2563eb"/>
  <circle cx="586.58" cy="249.99" r="2.5" fill="#2563eb"/>
  <circle cx="588.29" cy="300.01" r="2.5" fill="#2563eb"/>
  <circle cx="590.00" cy="300.01" r="2.5" fill="#2563eb"/>
  <circle cx="591.71" cy="300.01" r="2.5" fill="#2563eb"/>
  <circle cx="593.42" cy="250.03" r="2.5" fill="#2563eb"/>
  <circle cx="595.13" cy="300.01" r="2.5" fill="#2563eb"/>
  <circle cx="596.84" cy="300.01" r="2.5" fill="#2563eb"/>
  <circle cx="598.55" cy="300.01" r="2.5" fill="#2563eb"/>
  <circle cx="600.26" cy="299.97" r="2.5" fill="#2563eb"/>
  <circle cx="601.97" cy="300.01" r="2.5" fill="#2563eb"/>
  <circle cx="603.68" cy="300.01" r="2.5" fill="#2563eb"/>
  <circle cx="605.39" cy="299.97" r="2.5" fill="#2563eb"/>
  <circle cx="607.11" cy="299.97" r="2.5" fill="#2563eb"/>
  <circle cx="608.82" cy="300.01" r="2.5" fill="#2563eb"/>
  <circle cx="610.53" cy="300.01" r="2.5" fill="#2563eb"/>
  <circle cx="612.24" cy="299.97" r="2.5" fill="#2563eb"/>
  <circle cx="613.95" cy="299.93" r="2.5" fill="#2563eb"/>
  <circle cx="615.66" cy="300.01" r="2.5" fill="#2563eb"/>
  <circle cx="617.37" cy="300.06" r="2.5" fill="#2563eb"/>
  <circle cx="619.08" cy="299.97" r="2.5" fill="#2563eb"/>
  <circle cx="620.79" cy="300.01" r="2.5" fill="#2563eb"/>
  <circle cx="622.50" cy="250.03" r="2.5" fill="#2563eb"/>
  <circle cx="624.21" cy="250.03" r="2.5" fill="#2563eb"/>
  <circle cx="625.92" cy="299.93" r="2.5" fill="#2563eb"/>
  <circle cx="627.63" cy="299.97" r="2.5" fill="#2563eb"/>
  <circle cx="629.34" cy="300.01" r="2.5" fill="#2563eb"/>
  <circle cx="631.05" cy="300.01" r="2.5" fill="#2563eb"/>
  <circle cx="632.76" cy="300.06" r="2.5" fill="#2563eb"/>
  <circle cx="634.47" cy="300.01" r="2.5" fill="#2563eb"/>
  <circle cx="636.18" cy="299.93" r="2.5" fill="#2563eb"/>
  <circle cx="637.89" cy="300.01" r="2.5" fill="#2563eb"/>
  <circle cx="639.61" cy="300.01" r="2.5" fill="#2563eb"/>
  <circle cx="641.32" cy="299.97" r="2.5" fill="#2563eb"/>
  <circle cx="643.03" cy="299.97" r="2.5" fill="#2563eb"/>
  <circle cx="644.74" cy="300.01" r="2.5" fill="#2563eb"/>
  <circle cx="646.45" cy="250.03" r="2.5" fill="#2563eb"/>
  <circle cx="648.16" cy="300.01" r="2.5" fill="#2563eb"/>
  <circle cx="649.87" cy="300.01" r="2.5" fill="#2563eb"/>
  <circle cx="651.58" cy="300.01" r="2.5" fill="#2563eb"/>
  <circle cx="653.29" cy="299.97" r="2.5" fill="#2563eb"/>
  <circle cx="655.00" cy="300.01" r="2.5" fill="#2563eb"/>
  <circle cx="656.71" cy="299.97" r="2.5" fill="#2563eb"/>
  <circle cx="658.42" cy="300.01" r="2.5" fill="#2563eb"/>
  <circle cx="660.13" cy="299.97" r="2.5" fill="#2563eb"/>
  <circle cx="661.84" cy="299.97" r="2.5" fill="#2563eb"/>
  <circle cx="663.55" cy="299.93" r="2.5" fill="#2563eb"/>
  <circle cx="665.26" cy="300.01" r="2.5" fill="#2563eb"/>
  <circle cx="666.97" cy="300.01" r="2.5" fill="#2563eb"/>
  <circle cx="668.68" cy="299.89" r="2.5" fill="#2563eb"/>
  <circle cx="670.39" cy="299.97" r="2.5" fill="#2563eb"/>
  <circle cx="672.11" cy="299.97" r="2.5" fill="#2563eb"/>
  <circle cx="673.82" cy="300.06" r="2.5" fill="#2563eb"/>
  <circle cx="675.53" cy="249.90" r="2.5" fill="#2563eb"/>
  <circle cx="677.24" cy="299.89" r="2.5" fill="#2563eb"/>
  <circle cx="678.95" cy="300.01" r="2.5" fill="#2563eb"/>
  <circle cx="680.66" cy="299.97" r="2.5" fill="#2563eb"/>
  <circle cx="682.37" cy="299.97" r="2.5" fill="#2563eb"/>
  <circle cx="684.08" cy="299.97" r="2.5" fill="#2563eb"/>
  <circle cx="685.79" cy="300.01" r="2.5" fill="#2563eb"/>
  <circle cx="687.50" cy="300.01" r="2.5" fill="#2563eb"/>
  <circle cx="689.21" cy="299.97" r="2.5" fill="#2563eb"/>
  <circle cx="690.92" cy="299.97" r="2.5" fill="#2563eb"/>
  <circle cx="692.63" cy="299.97" r="2.5" fill="#2563eb"/>
  <circle cx="694.34" cy="250.03" r="2.5" fill="#2563eb"/>
  <circle cx="696.05" cy="299.93" r="2.5" fill="#2563eb"/>
  <circle cx="697.76" cy="300.01" r="2.5" fill="#2563eb"/>
  <circle cx="699.47" cy="300.01" r="2.5" fill="#2563eb"/>
  <circle cx="701.18" cy="299.93" r="2.5" fill="#2563eb"/>
  <circle cx="702.89" cy="300.01" r="2.5" fill="#2563eb"/>
  <circle cx="704.61" cy="300.01" r="2.5" fill="#2563eb"/>
  <circle cx="706.32" cy="299.97" r="2.5" fill="#2563eb"/>
  <circle cx="708.03" cy="300.01" r="2.5" fill="#2563eb"/>
  <circle cx="709.74" cy="300.01" r="2.5" fill="#2563eb"/>
  <circle cx="711.45" cy="300.06" r="2.5" fill="#2563eb"/>
  <circle cx="713.16" cy="300.01" r="2.5" fill="#2563eb"/>
  <circle cx="714.87" cy="299.97" r="2.5" fill="#2563eb"/>
  <circle cx="716.58" cy="299.89" r="2.5" fill="#2563eb"/>
  <circle cx="718.29" cy="300.01" r="2.5" fill="#2563eb"/>
  <circle cx="720.00" cy="300.01" r="2.5" fill="#2563eb"/>
  <circle cx="721.71" cy="249.94" r="2.5" fill="#2563eb"/>
  <circle cx="723.42" cy="249.94" r="2.5" fill="#2563eb"/>
  <circle cx="725.13" cy="300.01" r="2.5" fill="#2563eb"/>
  <circle cx="726.84" cy="300.01" r="2.5" fill="#2563eb"/>
  <circle cx="728.55" cy="300.01" r="2.5" fill="#2563eb"/>
  <circle cx="730.26" cy="300.01" r="2.5" fill="#2563eb"/>
  <circle cx="731.97" cy="299.97" r="2.5" fill="#2563eb"/>
  <circle cx="733.68" cy="250.03" r="2.5" fill="#2563eb"/>
  <circle cx="735.39" cy="300.01" r="2.5" fill="#2563eb"/>
  <circle cx="737.11" cy="300.01" r="2.5" fill="#2563eb"/>
  <circle cx="738.82" cy="300.01" r="2.5" fill="#2563eb"/>
  <circle cx="740.53" cy="300.01" r="2.5" fill="#2563eb"/>
  <circle cx="742.24" cy="250.03" r="2.5" fill="#2563eb"/>
  <circle cx="743.95" cy="249.99" r="2.5" fill="#2563eb"/>
  <circle cx="745.66" cy="300.01" r="2.5" fill="#2563eb"/>
  <circle cx="747.37" cy="299.97" r="2.5" fill="#2563eb"/>
  <circle cx="749.08" cy="300.01" r="2.5" fill="#2563eb"/>
  <circle cx="750.79" cy="299.97" r="2.5" fill="#2563eb"/>
  <circle cx="752.50" cy="300.01" r="2.5" fill="#2563eb"/>
  <circle cx="754.21" cy="299.97" r="2.5" fill="#2563eb"/>
  <circle cx="755.92" cy="299.97" r="2.5" fill="#2563eb"/>
  <circle cx="757.63" cy="299.97" r="2.5" fill="#2563eb"/>
  <circle cx="759.34" cy="300.06" r="2.5" fill="#2563eb"/>
  <circle cx="761.05" cy="249.99" r="2.5" fill="#2563eb"/>
  <circle cx="762.76" cy="300.01" r="2.5" fill="#2563eb"/>
  <circle cx="764.47" cy="250.03" r="2.5" fill="#2563eb"/>
  <circle cx="766.18" cy="249.94" r="2.5" fill="#2563eb"/>
  <circle cx="767.89" cy="249.99" r="2.5" fill="#2563eb"/>
  <circle cx="769.61" cy="300.01" r="2.5" fill="#2563eb"/>
  <circle cx="771.32" cy="300.06" r="2.5" fill="#2563eb"/>
  <circle cx="773.03" cy="300.01" r="2.5" fill="#2563eb"/>
  <circle cx="774.74" cy="299.97" r="2.5" fill="#2563eb"/>
  <circle cx="776.45" cy="299.97" r="2.5" fill="#2563eb"/>
  <circle cx="778.16" cy="300.01" r="2.5" fill="#2563eb"/>
  <circle cx="779.87" cy="299.93" r="2.5" fill="#2563eb"/>
  <circle cx="781.58" cy="299.89" r="2.5" fill="#2563eb"/>
  <circle cx="783.29" cy="299.89" r="2.5" fill="#2563eb"/>
  <circle cx="785.00" cy="299.89" r="2.5" fill="#2563eb"/>
  <circle cx="786.71" cy="299.89" r="2.5" fill="#2563eb"/>
  <circle cx="788.42" cy="299.85" r="2.5" fill="#2563eb"/>
  <circle cx="790.13" cy="299.85" r="2.5" fill="#2563eb"/>
  <circle cx="791.84" cy="299.89" r="2.5" fill="#2563eb"/>
  <circle cx="793.55" cy="299.81" r="2.5" fill="#2563eb"/>
  <circle cx="795.26" cy="299.81" r="2.5" fill="#2563eb"/>
  <circle cx="796.97" cy="299.81" r="2.5" fill="#2563eb"/>
  <circle cx="798.68" cy="299.76" r="2.5" fill="#2563eb"/>
  <circle cx="800.39" cy="299.76" r="2.5" fill="#2563eb"/>
  <circle cx="802.11" cy="299.76" r="2.5" fill="#2563eb"/>
  <circle cx="803.82" cy="299.72" r="2.5" fill="#2563eb"/>
  <circle cx="805.53" cy="299.68" r="2.5" fill="#2563eb"/>
  <circle cx="807.24" cy="299.60" r="2.5" fill="#2563eb"/>
  <circle cx="808.95" cy="299.60" r="2.5" fill="#2563eb"/>
  <circle cx="810.66" cy="299.60" r="2.5" fill="#2563eb"/>
  <circle cx="812.37" cy="299.56" r="2.5" fill="#2563eb"/>
  <circle cx="814.08" cy="299.47" r="2.5" fill="#2563eb"/>
  <circle cx="815.79" cy="299.43" r="2.5" fill="#2563eb"/>
  <circle cx="817.50" cy="299.43" r="2.5" fill="#2563eb"/>
  <circle cx="819.21" cy="299.39" r="2.5" fill="#2563eb"/>
  <circle cx="820.92" cy="299.47" r="2.5" fill="#2563eb"/>
  <circle cx="822.63" cy="259.82" r="2.5" fill="#2563eb"/>
  <circle cx="824.34" cy="338.96" r="2.5" fill="#2563eb"/>
  <circle cx="826.05" cy="299.31" r="2.5" fill="#2563eb"/>
  <circle cx="827.76" cy="299.31" r="2.5" fill="#2563eb"/>
  <circle cx="829.47" cy="299.26" r="2.5" fill="#2563eb"/>
  <circle cx="831.18" cy="299.68" r="2.5" fill="#2563eb"/>
  <circle cx="832.89" cy="299.68" r="2.5" fill="#2563eb"/>
  <circle cx="834.61" cy="299.68" r="2.5" fill="#2563eb"/>
  <circle cx="836.32" cy="299.64" r="2.5" fill="#2563eb"/>
  <circle cx="838.03" cy="299.14" r="2.5" fill="#2563eb"/>
  <circle cx="839.74" cy="299.14" r="2.5" fill="#2563eb"/>
  <circle cx="841.45" cy="299.10" r="2.5" fill="#2563eb"/>
  <circle cx="843.16" cy="299.10" r="2.5" fill="#2563eb"/>
  <circle cx="844.87" cy="299.10" r="2.5" fill="#2563eb"/>
  <circle cx="846.58" cy="248.07" r="2.5" fill="#2563eb"/>
  <circle cx="848.29" cy="299.06" r="2.5" fill="#2563eb"/>
  <circle cx="850.00" cy="299.06" r="2.5" fill="#2563eb"/>
  <circle cx="851.71" cy="299.06" r="2.5" fill="#2563eb"/>
  <circle cx="853.42" cy="299.06" r="2.5" fill="#2563eb"/>
  <circle cx="855.13" cy="299.06" r="2.5" fill="#2563eb"/>
  <circle cx="856.84" cy="298.97" r="2.5" fill="#2563eb"/>
  <circle cx="858.55" cy="298.97" r="2.5" fill="#2563eb"/>
  <circle cx="860.26" cy="298.93" r="2.5" fill="#2563eb"/>
  <circle cx="861.97" cy="298.97" r="2.5" fill="#2563eb"/>
  <circle cx="863.68" cy="298.93" r="2.5" fill="#2563eb"/>
  <circle cx="865.39" cy="298.89" r="2.5" fill="#2563eb"/>
  <circle cx="867.11" cy="298.89" r="2.5" fill="#2563eb"/>
  <circle cx="868.82" cy="298.89" r="2.5" fill="#2563eb"/>
  <circle cx="870.53" cy="298.89" r="2.5" fill="#2563eb"/>
  <circle cx="872.24" cy="247.78" r="2.5" fill="#2563eb"/>
  <circle cx="873.95" cy="298.89" r="2.5" fill="#2563eb"/>
  <circle cx="875.66" cy="298.89" r="2.5" fill="#2563eb"/>
  <circle cx="877.37" cy="298.85" r="2.5" fill="#2563eb"/>
  <circle cx="879.08" cy="298.85" r="2.5" fill="#2563eb"/>
  <circle cx="880.79" cy="298.81" r="2.5" fill="#2563eb"/>
  <circle cx="882.50" cy="298.81" r="2.5" fill="#2563eb"/>
  <circle cx="884.21" cy="298.81" r="2.5" fill="#2563eb"/>
  <circle cx="885.92" cy="298.81" r="2.5" fill="#2563eb"/>
  <circle cx="887.63" cy="298.81" r="2.5" fill="#2563eb"/>
  <circle cx="889.34" cy="298.81" r="2.5" fill="#2563eb"/>
  <circle cx="891.05" cy="298.81" r="2.5" fill="#2563eb"/>
  <circle cx="892.76" cy="298.81" r="2.5" fill="#2563eb"/>
  <circle cx="894.47" cy="298.81" r="2.5" fill="#2563eb"/>
  <circle cx="896.18" cy="298.72" r="2.5" fill="#2563eb"/>
  <circle cx="897.89" cy="247.45" r="2.5" fill="#2563eb"/>
  <circle cx="899.61" cy="247.45" r="2.5" fill="#2563eb"/>
  <circle cx="901.32" cy="298.72" r="2.5" fill="#2563eb"/>
  <circle cx="903.03" cy="298.72" r="2.5" fill="#2563eb"/>
  <circle cx="904.74" cy="298.72" r="2.5" fill="#2563eb"/>
  <circle cx="906.45" cy="298.72" r="2.5" fill="#2563eb"/>
  <circle cx="908.16" cy="298.72" r="2.5" fill="#2563eb"/>
  <circle cx="909.87" cy="298.72" r="2.5" fill="#2563eb"/>
  <circle cx="911.58" cy="247.36" r="2.5" fill="#2563eb"/>
  <circle cx="913.29" cy="298.68" r="2.5" fill="#2563eb"/>
  <circle cx="915.00" cy="247.36" r="2.5" fill="#2563eb"/>
  <circle cx="916.71" cy="247.36" r="2.5" fill="#2563eb"/>
  <circle cx="918.42" cy="247.36" r="2.5" fill="#2563eb"/>
  <circle cx="920.13" cy="298.68" r="2.5" fill="#2563eb"/>
  <circle cx="921.84" cy="298.68" r="2.5" fill="#2563eb"/>
  <circle cx="923.55" cy="298.68" r="2.5" fill="#2563eb"/>
  <circle cx="925.26" cy="298.68" r="2.5" fill="#2563eb"/>
  <circle cx="926.97" cy="298.68" r="2.5" fill="#2563eb"/>
  <circle cx="928.68" cy="341.67" r="2.5" fill="#2563eb"/>
  <circle cx="930.39" cy="307.01" r="2.5" fill="#2563eb"/>
  <circle cx="932.11" cy="298.68" r="2.5" fill="#2563eb"/>
  <circle cx="933.82" cy="298.68" r="2.5" fill="#2563eb"/>
  <circle cx="935.53" cy="298.68" r="2.5" fill="#2563eb"/>
  <circle cx="937.24" cy="247.36" r="2.5" fill="#2563eb"/>
  <circle cx="938.95" cy="298.64" r="2.5" fill="#2563eb"/>
  <circle cx="940.66" cy="247.36" r="2.5" fill="#2563eb"/>
  <circle cx="942.37" cy="247.28" r="2.5" fill="#2563eb"/>
  <circle cx="944.08" cy="247.20" r="2.5" fill="#2563eb"/>
  <circle cx="945.79" cy="298.60" r="2.5" fill="#2563eb"/>
  <circle cx="947.50" cy="298.60" r="2.5" fill="#2563eb"/>
  <circle cx="949.21" cy="247.03" r="2.5" fill="#2563eb"/>
  <circle cx="950.92" cy="298.51" r="2.5" fill="#2563eb"/>
  <circle cx="952.63" cy="298.51" r="2.5" fill="#2563eb"/>
  <circle cx="954.34" cy="298.51" r="2.5" fill="#2563eb"/>
  <circle cx="956.05" cy="298.51" r="2.5" fill="#2563eb"/>
  <circle cx="957.76" cy="298.51" r="2.5" fill="#2563eb"/>
  <circle cx="959.47" cy="298.51" r="2.5" fill="#2563eb"/>
  <circle cx="961.18" cy="298.51" r="2.5" fill="#2563eb"/>
  <circle cx="962.89" cy="298.51" r="2.5" fill="#2563eb"/>
  <circle cx="964.61" cy="298.51" r="2.5" fill="#2563eb"/>
  <circle cx="966.32" cy="298.51" r="2.5" fill="#2563eb"/>
  <circle cx="968.03" cy="298.51" r="2.5" fill="#2563eb"/>
  <circle cx="969.74" cy="298.51" r="2.5" fill="#2563eb"/>
  <circle cx="971.45" cy="298.51" r="2.5" fill="#2563eb"/>
  <circle cx="973.16" cy="298.51" r="2.5" fill="#2563eb"/>
  <circle cx="974.87" cy="298.51" r="2.5" fill="#2563eb"/>
  <circle cx="976.58" cy="298.51" r="2.5" fill="#2563eb"/>
  <circle cx="978.29" cy="298.51" r="2.5" fill="#2563eb"/>
  <circle cx="980.00" cy="298.51" r="2.5" fill="#2563eb"/>
</svg>
