<?xml version="1.0" encoding="UTF-8"?>
<svg xmlns="http://www.w3.org/2000/svg" width="1000" height="420" viewBox="0 0 1000 420">
  <rect width="100%" height="100%" fill="#ffffff"/>
  <text x="70" y="28" font-size="20" font-weight="600">수집 시점 기준 - 시간별 스냅샷</text>
  <text x="70" y="402" font-size="12" fill="#555">스냅샷 수</text>
  <line x1="70" y1="350.00" x2="980" y2="350.00" stroke="#e5e7eb" stroke-width="1"/>
  <text x="62" y="354.00" font-size="11" fill="#6b7280" text-anchor="end">0</text>
  <line x1="70" y1="290.00" x2="980" y2="290.00" stroke="#e5e7eb" stroke-width="1"/>
  <text x="62" y="294.00" font-size="11" fill="#6b7280" text-anchor="end">1,440</text>
  <line x1="70" y1="230.00" x2="980" y2="230.00" stroke="#e5e7eb" stroke-width="1"/>
  <text x="62" y="234.00" font-size="11" fill="#6b7280" text-anchor="end">2,880</text>
  <line x1="70" y1="170.00" x2="980" y2="170.00" stroke="#e5e7eb" stroke-width="1"/>
  <text x="62" y="174.00" font-size="11" fill="#6b7280" text-anchor="end">4,321</text>
  <line x1="70" y1="110.00" x2="980" y2="110.00" stroke="#e5e7eb" stroke-width="1"/>
  <text x="62" y="114.00" font-size="11" fill="#6b7280" text-anchor="end">5,761</text>
  <line x1="70" y1="50.00" x2="980" y2="50.00" stroke="#e5e7eb" stroke-width="1"/>
  <text x="62" y="54.00" font-size="11" fill="#6b7280" text-anchor="end">7,202</text>
  <line x1="70" y1="350" x2="980" y2="350" stroke="#111827" stroke-width="1.2"/>
  <line x1="70" y1="50" x2="70" y2="350" stroke="#111827" stroke-width="1.2"/>
  <line x1="70.00" y1="350" x2="70.00" y2="356" stroke="#9ca3af" stroke-width="1"/>
  <text x="70.00" y="372" font-size="10" fill="#6b7280" text-anchor="middle">2026-02-28 18</text>
  <line x1="145.32" y1="350" x2="145.32" y2="356" stroke="#9ca3af" stroke-width="1"/>
  <text x="145.32" y="372" font-size="10" fill="#6b7280" text-anchor="middle">2026-03-08 16</text>
  <line x1="220.65" y1="350" x2="220.65" y2="356" stroke="#9ca3af" stroke-width="1"/>
  <text x="220.65" y="372" font-size="10" fill="#6b7280" text-anchor="middle">2026-03-10 07</text>
  <line x1="295.97" y1="350" x2="295.97" y2="356" stroke="#9ca3af" stroke-width="1"/>
  <text x="295.97" y="372" font-size="10" fill="#6b7280" text-anchor="middle">2026-03-12 00</text>
  <line x1="371.30" y1="350" x2="371.30" y2="356" stroke="#9ca3af" stroke-width="1"/>
  <text x="371.30" y="372" font-size="10" fill="#6b7280" text-anchor="middle">2026-03-13 17</text>
  <line x1="446.62" y1="350" x2="446.62" y2="356" stroke="#9ca3af" stroke-width="1"/>
  <text x="446.62" y="372" font-size="10" fill="#6b7280" text-anchor="middle">2026-03-15 18</text>
  <line x1="521.95" y1="350" x2="521.95" y2="356" stroke="#9ca3af" stroke-width="1"/>
  <text x="521.95" y="372" font-size="10" fill="#6b7280" text-anchor="middle">2026-03-18 04</text>
  <line x1="597.27" y1="350" x2="597.27" y2="356" stroke="#9ca3af" stroke-width="1"/>
  <text x="597.27" y="372" font-size="10" fill="#6b7280" text-anchor="middle">2026-03-20 15</text>
  <line x1="672.60" y1="350" x2="672.60" y2="356" stroke="#9ca3af" stroke-width="1"/>
  <text x="672.60" y="372" font-size="10" fill="#6b7280" text-anchor="middle">2026-03-22 16</text>
  <line x1="747.92" y1="350" x2="747.92" y2="356" stroke="#9ca3af" stroke-width="1"/>
  <text x="747.92" y="372" font-size="10" fill="#6b7280" text-anchor="middle">2026-03-25 00</text>
  <line x1="823.24" y1="350" x2="823.24" y2="356" stroke="#9ca3af" stroke-width="1"/>
  <text x="823.24" y="372" font-size="10" fill="#6b7280" text-anchor="middle">2026-03-27 16</text>
  <line x1="898.57" y1="350" x2="898.57" y2="356" stroke="#9ca3af" stroke-width="1"/>
  <text x="898.57" y="372" font-size="10" fill="#6b7280" text-anchor="middle">2026-03-30 02</text>
  <line x1="973.89" y1="350" x2="973.89" y2="356" stroke="#9ca3af" stroke-width="1"/>
  <text x="973.89" y="372" font-size="10" fill="#6b7280" text-anchor="middle">2026-04-01 17</text>
  <line x1="980.00" y1="350" x2="980.00" y2="356" stroke="#9ca3af" stroke-width="1"/>
  <text x="980.00" y="372" font-size="10" fill="#6b7280" text-anchor="middle">2026-04-01 23</text>
  <polyline fill="none" stroke="#2563eb" stroke-width="2.5" points="70.00,50.00 72.04,50.12 74.07,50.17 76.11,50.46 78.14,50.00 80.18,266.90 82.21,50.12 84.25,50.08 86.29,177.46 88.32,211.58 90.36,175.34 92.39,304.14 94.43,200.46 96.47,250.94 98.50,300.01 100.54,300.06 102.57,300.01 104.61,300.01 106.64,348.00 108.68,300.01 110.72,249.99 112.75,200.00 114.79,249.99 116.82,249.99 118.86,250.03 120.89,250.03 122.93,250.03 124.97,250.40 127.00,250.90 129.04,250.90 131.07,251.32 133.11,249.94 135.15,300.01 137.18,299.93 139.22,251.03 141.25,300.68 143.29,250.03 145.32,200.00 147.36,249.99 149.40,250.03 151.43,250.03 153.47,250.03 155.50,300.01 157.54,200.04 159.57,250.03 161.61,250.03 163.65,250.03 165.68,249.90 167.72,250.03 169.75,250.03 171.79,250.94 173.83,250.44 175.86,250.03 177.90,250.03 179.93,300.47 181.97,300.01 184.00,300.43 186.04,250.03 188.08,249.99 190.11,300.43 192.15,249.90 194.18,249.99 196.22,249.99 198.26,200.04 200.29,300.01 202.33,300.01 204.36,300.01 206.40,249.90 208.43,300.01 210.47,250.03 212.51,249.99 214.54,199.96 216.58,300.01 218.61,200.00 220.65,250.36 222.68,250.03 224.72,300.01 226.76,300.01 228.79,250.44 230.83,300.01 232.86,250.03 234.90,250.03 236.94,249.99 238.97,250.49 241.01,250.03 243.04,200.04 245.08,300.01 247.11,250.03 249.15,300.01 251.19,250.11 253.22,300.01 255.26,250.03 257.29,250.03 259.33,199.92 261.36,250.03 263.40,250.03 265.44,250.03 267.47,254.36 269.51,300.01 271.54,299.97 273.58,250.36 275.62,299.97 277.65,250.03 279.69,250.03 281.72,250.03 283.76,250.03 285.79,249.99 287.83,200.00 289.87,299.93 291.90,300.01 293.94,299.97 295.97,249.94 298.01,249.99 300.04,249.82 302.08,249.94 304.12,250.28 306.15,207.00 308.19,250.03 310.22,250.32 312.26,250.40 314.30,300.93 316.33,300.01 318.37,300.10 320.40,249.94 322.44,249.99 324.47,250.07 326.51,249.99 328.55,250.03 330.58,249.94 332.62,200.00 334.65,300.39 336.69,300.01 338.72,300.01 340.76,250.44 342.80,300.39 344.83,249.86 346.87,250.11 348.90,201.46 350.94,300.01 352.98,200.83 355.01,250.03 357.05,249.99 359.08,300.26 361.12,300.01 363.15,300.01 365.19,250.03 367.23,250.03 369.26,250.03 371.30,250.03 373.33,249.99 375.37,250.03 377.40,200.00 379.44,300.26 381.48,249.99 383.51,300.01 385.55,249.94 387.58,250.03 389.62,250.03 391.66,250.03 393.69,200.04 395.73,300.01 397.76,249.90 399.80,300.01 401.83,300.01 403.87,300.06 405.91,300.01 407.94,300.01 409.98,243.95 412.01,249.94 414.05,299.97 416.09,300.01 418.12,300.01 420.16,250.03 422.19,300.01 424.23,300.01 426.26,299.97 428.30,249.99 430.34,300.01 432.37,299.93 434.41,300.01 436.44,299.93 438.48,300.01 440.51,300.01 442.55,299.89 444.59,299.97 446.62,250.03 448.66,299.93 450.69,299.89 452.73,299.97 454.77,249.94 456.80,300.01 458.84,300.01 460.87,299.97 462.91,249.99 464.94,299.97 466.98,299.97 469.02,300.06 471.05,300.06 473.09,299.93 475.12,300.01 477.16,300.01 479.19,299.93 481.23,300.01 483.27,300.01 485.30,299.97 487.34,300.01 489.37,300.01 491.41,300.01 493.45,300.01 495.48,249.86 497.52,300.01 499.55,300.10 501.59,299.93 503.62,300.01 505.66,299.93 507.70,300.01 509.73,300.01 511.77,300.01 513.80,300.01 515.84,300.01 517.87,299.97 519.91,300.01 521.95,300.01 523.98,300.01 526.02,300.01 528.05,250.03 530.09,300.01 532.13,300.01 534.16,299.97 536.20,300.01 538.23,300.01 540.27,299.97 542.30,299.97 544.34,300.01 546.38,299.97 548.41,300.01 550.45,299.93 552.48,300.01 554.52,250.03 556.55,300.01 558.59,300.01 560.63,300.01 562.66,300.01 564.70,300.01 566.73,299.89 568.77,300.01 570.81,300.01 572.84,250.07 574.88,300.01 576.91,299.93 578.95,300.01 580.98,299.97 583.02,299.97 585.06,299.97 587.09,250.03 589.13,300.01 591.16,300.01 593.20,300.01 595.23,300.01 597.27,299.97 599.31,300.01 601.34,299.97 603.38,300.01 605.41,299.97 607.45,249.90 609.49,300.01 611.52,300.01 613.56,299.89 615.59,299.97 617.63,299.97 619.66,249.99 621.70,299.97 623.74,299.89 625.77,300.01 627.81,299.97 629.84,299.97 631.88,300.01 633.91,299.97 635.95,249.99 637.99,299.97 640.02,299.97 642.06,300.06 644.09,300.06 646.13,249.94 648.17,300.01 650.20,299.93 652.24,300.01 654.27,300.01 656.31,249.99 658.34,300.01 660.38,300.01 662.42,300.01 664.45,299.93 666.49,299.93 668.52,300.01 670.56,300.01 672.60,249.94 674.63,299.97 676.67,299.97 678.70,300.01 680.74,300.01 682.77,300.01 684.81,249.99 686.85,300.01 688.88,300.01 690.92,300.01 692.95,250.03 694.99,300.01 697.02,300.01 699.06,300.01 701.10,299.97 703.13,300.01 705.17,300.01 707.20,299.97 709.24,299.97 711.28,300.01 713.31,300.01 715.35,299.97 717.38,299.93 719.42,300.01 721.45,300.06 723.49,299.97 725.53,300.01 727.56,250.03 729.60,250.03 731.63,299.93 733.67,299.97 735.70,300.01 737.74,300.01 739.78,300.06 741.81,300.01 743.85,299.93 745.88,300.01 747.92,300.01 749.96,299.97 751.99,299.97 754.03,300.01 756.06,250.03 758.10,300.01 760.13,300.01 762.17,300.01 764.21,299.97 766.24,300.01 768.28,299.97 770.31,300.01 772.35,299.97 774.38,299.97 776.42,299.93 778.46,300.01 780.49,300.01 782.53,299.89 784.56,299.97 786.60,299.97 788.64,300.06 790.67,249.90 792.71,299.89 794.74,300.01 796.78,299.97 798.81,299.97 800.85,299.97 802.89,300.01 804.92,300.01 806.96,299.97 808.99,299.97 811.03,299.97 813.06,250.03 815.10,299.93 817.14,300.01 819.17,300.01 821.21,299.93 823.24,300.01 825.28,300.01 827.32,299.97 829.35,300.01 831.39,300.01 833.42,300.06 835.46,300.01 837.49,299.97 839.53,299.89 841.57,300.01 843.60,300.01 845.64,249.94 847.67,249.94 849.71,300.01 851.74,300.01 853.78,300.01 855.82,300.01 857.85,299.97 859.89,250.03 861.92,300.01 863.96,300.01 866.00,300.01 868.03,300.01 870.07,250.03 872.10,249.99 874.14,300.01 876.17,299.97 878.21,300.01 880.25,299.97 882.28,300.01 884.32,299.97 886.35,299.97 888.39,299.97 890.43,300.06 892.46,249.99 894.50,300.01 896.53,250.03 898.57,249.94 900.60,249.99 902.64,300.01 904.68,300.06 906.71,300.01 908.75,299.97 910.78,299.97 912.82,300.01 914.85,299.93 916.89,299.89 918.93,299.89 920.96,299.89 923.00,299.89 925.03,299.85 927.07,299.85 929.11,299.89 931.14,299.81 933.18,299.81 935.21,299.81 937.25,299.76 939.28,299.76 941.32,299.76 943.36,299.72 945.39,299.68 947.43,299.60 949.46,299.60 951.50,299.60 953.53,299.56 955.57,299.47 957.61,299.43 959.64,299.43 961.68,299.39 963.71,299.47 965.75,259.82 967.79,338.96 969.82,299.31 971.86,299.31 973.89,299.26 975.93,299.68 977.96,299.68 980.00,299.68"/>
  <circle cx="70.00" cy="50.00" r="2.5" fill="#2563eb"/>
  <circle cx="72.04" cy="50.12" r="2.5" fill="#2563eb"/>
  <circle cx="74.07" cy="50.17" r="2.5" fill="#2563eb"/>
  <circle cx="76.11" cy="50.46" r="2.5" fill="#2563eb"/>
  <circle cx="78.14" cy="50.00" r="2.5" fill="#2563eb"/>
  <circle cx="80.18" cy="266.90" r="2.5" fill="#2563eb"/>
  <circle cx="82.21" cy="50.12" r="2.5" fill="#2563eb"/>
  <circle cx="84.25" cy="50.08" r="2.5" fill="#2563eb"/>
  <circle cx="86.29" cy="177.46" r="2.5" fill="#2563eb"/>
  <circle cx="88.32" cy="211.58" r="2.5" fill="#2563eb"/>
  <circle cx="90.36" cy="175.34" r="2.5" fill="#2563eb"/>
  <circle cx="92.39" cy="304.14" r="2.5" fill="#2563eb"/>
  <circle cx="94.43" cy="200.46" r="2.5" fill="#2563eb"/>
  <circle cx="96.47" cy="250.94" r="2.5" fill="#2563eb"/>
  <circle cx="98.50" cy="300.01" r="2.5" fill="#2563eb"/>
  <circle cx="100.54" cy="300.06" r="2.5" fill="#2563eb"/>
  <circle cx="102.57" cy="300.01" r="2.5" fill="#2563eb"/>
  <circle cx="104.61" cy="300.01" r="2.5" fill="#2563eb"/>
  <circle cx="106.64" cy="348.00" r="2.5" fill="#2563eb"/>
  <circle cx="108.68" cy="300.01" r="2.5" fill="#2563eb"/>
  <circle cx="110.72" cy="249.99" r="2.5" fill="#2563eb"/>
  <circle cx="112.75" cy="200.00" r="2.5" fill="#2563eb"/>
  <circle cx="114.79" cy="249.99" r="2.5" fill="#2563eb"/>
  <circle cx="116.82" cy="249.99" r="2.5" fill="#2563eb"/>
  <circle cx="118.86" cy="250.03" r="2.5" fill="#2563eb"/>
  <circle cx="120.89" cy="250.03" r="2.5" fill="#2563eb"/>
  <circle cx="122.93" cy="250.03" r="2.5" fill="#2563eb"/>
  <circle cx="124.97" cy="250.40" r="2.5" fill="#2563eb"/>
  <circle cx="127.00" cy="250.90" r="2.5" fill="#2563eb"/>
  <circle cx="129.04" cy="250.90" r="2.5" fill="#2563eb"/>
  <circle cx="131.07" cy="251.32" r="2.5" fill="#2563eb"/>
  <circle cx="133.11" cy="249.94" r="2.5" fill="#2563eb"/>
  <circle cx="135.15" cy="300.01" r="2.5" fill="#2563eb"/>
  <circle cx="137.18" cy="299.93" r="2.5" fill="#2563eb"/>
  <circle cx="139.22" cy="251.03" r="2.5" fill="#2563eb"/>
  <circle cx="141.25" cy="300.68" r="2.5" fill="#2563eb"/>
  <circle cx="143.29" cy="250.03" r="2.5" fill="#2563eb"/>
  <circle cx="145.32" cy="200.00" r="2.5" fill="#2563eb"/>
  <circle cx="147.36" cy="249.99" r="2.5" fill="#2563eb"/>
  <circle cx="149.40" cy="250.03" r="2.5" fill="#2563eb"/>
  <circle cx="151.43" cy="250.03" r="2.5" fill="#2563eb"/>
  <circle cx="153.47" cy="250.03" r="2.5" fill="#2563eb"/>
  <circle cx="155.50" cy="300.01" r="2.5" fill="#2563eb"/>
  <circle cx="157.54" cy="200.04" r="2.5" fill="#2563eb"/>
  <circle cx="159.57" cy="250.03" r="2.5" fill="#2563eb"/>
  <circle cx="161.61" cy="250.03" r="2.5" fill="#2563eb"/>
  <circle cx="163.65" cy="250.03" r="2.5" fill="#2563eb"/>
  <circle cx="165.68" cy="249.90" r="2.5" fill="#2563eb"/>
  <circle cx="167.72" cy="250.03" r="2.5" fill="#2563eb"/>
  <circle cx="169.75" cy="250.03" r="2.5" fill="#2563eb"/>
  <circle cx="171.79" cy="250.94" r="2.5" fill="#2563eb"/>
  <circle cx="173.83" cy="250.44" r="2.5" fill="#2563eb"/>
  <circle cx="175.86" cy="250.03" r="2.5" fill="#2563eb"/>
  <circle cx="177.90" cy="250.03" r="2.5" fill="#2563eb"/>
  <circle cx="179.93" cy="300.47" r="2.5" fill="#2563eb"/>
  <circle cx="181.97" cy="300.01" r="2.5" fill="#2563eb"/>
  <circle cx="184.00" cy="300.43" r="2.5" fill="#2563eb"/>
  <circle cx="186.04" cy="250.03" r="2.5" fill="#2563eb"/>
  <circle cx="188.08" cy="249.99" r="2.5" fill="#2563eb"/>
  <circle cx="190.11" cy="300.43" r="2.5" fill="#2563eb"/>
  <circle cx="192.15" cy="249.90" r="2.5" fill="#2563eb"/>
  <circle cx="194.18" cy="249.99" r="2.5" fill="#2563eb"/>
  <circle cx="196.22" cy="249.99" r="2.5" fill="#2563eb"/>
  <circle cx="198.26" cy="200.04" r="2.5" fill="#2563eb"/>
  <circle cx="200.29" cy="300.01" r="2.5" fill="#2563eb"/>
  <circle cx="202.33" cy="300.01" r="2.5" fill="#2563eb"/>
  <circle cx="204.36" cy="300.01" r="2.5" fill="#2563eb"/>
  <circle cx="206.40" cy="249.90" r="2.5" fill="#2563eb"/>
  <circle cx="208.43" cy="300.01" r="2.5" fill="#2563eb"/>
  <circle cx="210.47" cy="250.03" r="2.5" fill="#2563eb"/>
  <circle cx="212.51" cy="249.99" r="2.5" fill="#2563eb"/>
  <circle cx="214.54" cy="199.96" r="2.5" fill="#2563eb"/>
  <circle cx="216.58" cy="300.01" r="2.5" fill="#2563eb"/>
  <circle cx="218.61" cy="200.00" r="2.5" fill="#2563eb"/>
  <circle cx="220.65" cy="250.36" r="2.5" fill="#2563eb"/>
  <circle cx="222.68" cy="250.03" r="2.5" fill="#2563eb"/>
  <circle cx="224.72" cy="300.01" r="2.5" fill="#2563eb"/>
  <circle cx="226.76" cy="300.01" r="2.5" fill="#2563eb"/>
  <circle cx="228.79" cy="250.44" r="2.5" fill="#2563eb"/>
  <circle cx="230.83" cy="300.01" r="2.5" fill="#2563eb"/>
  <circle cx="232.86" cy="250.03" r="2.5" fill="#2563eb"/>
  <circle cx="234.90" cy="250.03" r="2.5" fill="#2563eb"/>
  <circle cx="236.94" cy="249.99" r="2.5" fill="#2563eb"/>
  <circle cx="238.97" cy="250.49" r="2.5" fill="#2563eb"/>
  <circle cx="241.01" cy="250.03" r="2.5" fill="#2563eb"/>
  <circle cx="243.04" cy="200.04" r="2.5" fill="#2563eb"/>
  <circle cx="245.08" cy="300.01" r="2.5" fill="#2563eb"/>
  <circle cx="247.11" cy="250.03" r="2.5" fill="#2563eb"/>
  <circle cx="249.15" cy="300.01" r="2.5" fill="#2563eb"/>
  <circle cx="251.19" cy="250.11" r="2.5" fill="#2563eb"/>
  <circle cx="253.22" cy="300.01" r="2.5" fill="#2563eb"/>
  <circle cx="255.26" cy="250.03" r="2.5" fill="#2563eb"/>
  <circle cx="257.29" cy="250.03" r="2.5" fill="#2563eb"/>
  <circle cx="259.33" cy="199.92" r="2.5" fill="#2563eb"/>
  <circle cx="261.36" cy="250.03" r="2.5" fill="#2563eb"/>
  <circle cx="263.40" cy="250.03" r="2.5" fill="#2563eb"/>
  <circle cx="265.44" cy="250.03" r="2.5" fill="#2563eb"/>
  <circle cx="267.47" cy="254.36" r="2.5" fill="#2563eb"/>
  <circle cx="269.51" cy="300.01" r="2.5" fill="#2563eb"/>
  <circle cx="271.54" cy="299.97" r="2.5" fill="#2563eb"/>
  <circle cx="273.58" cy="250.36" r="2.5" fill="#2563eb"/>
  <circle cx="275.62" cy="299.97" r="2.5" fill="#2563eb"/>
  <circle cx="277.65" cy="250.03" r="2.5" fill="#2563eb"/>
  <circle cx="279.69" cy="250.03" r="2.5" fill="#2563eb"/>
  <circle cx="281.72" cy="250.03" r="2.5" fill="#2563eb"/>
  <circle cx="283.76" cy="250.03" r="2.5" fill="#2563eb"/>
  <circle cx="285.79" cy="249.99" r="2.5" fill="#2563eb"/>
  <circle cx="287.83" cy="200.00" r="2.5" fill="#2563eb"/>
  <circle cx="289.87" cy="299.93" r="2.5" fill="#2563eb"/>
  <circle cx="291.90" cy="300.01" r="2.5" fill="#2563eb"/>
  <circle cx="293.94" cy="299.97" r="2.5" fill="#2563eb"/>
  <circle cx="295.97" cy="249.94" r="2.5" fill="#2563eb"/>
  <circle cx="298.01" cy="249.99" r="2.5" fill="#2563eb"/>
  <circle cx="300.04" cy="249.82" r="2.5" fill="#2563eb"/>
  <circle cx="302.08" cy="249.94" r="2.5" fill="#2563eb"/>
  <circle cx="304.12" cy="250.28" r="2.5" fill="#2563eb"/>
  <circle cx="306.15" cy="207.00" r="2.5" fill="#2563eb"/>
  <circle cx="308.19" cy="250.03" r="2.5" fill="#2563eb"/>
  <circle cx="310.22" cy="250.32" r="2.5" fill="#2563eb"/>
  <circle cx="312.26" cy="250.40" r="2.5" fill="#2563eb"/>
  <circle cx="314.30" cy="300.93" r="2.5" fill="#2563eb"/>
  <circle cx="316.33" cy="300.01" r="2.5" fill="#2563eb"/>
  <circle cx="318.37" cy="300.10" r="2.5" fill="#2563eb"/>
  <circle cx="320.40" cy="249.94" r="2.5" fill="#2563eb"/>
  <circle cx="322.44" cy="249.99" r="2.5" fill="#2563eb"/>
  <circle cx="324.47" cy="250.07" r="2.5" fill="#2563eb"/>
  <circle cx="326.51" cy="249.99" r="2.5" fill="#2563eb"/>
  <circle cx="328.55" cy="250.03" r="2.5" fill="#2563eb"/>
  <circle cx="330.58" cy="249.94" r="2.5" fill="#2563eb"/>
  <circle cx="332.62" cy="200.00" r="2.5" fill="#2563eb"/>
  <circle cx="334.65" cy="300.39" r="2.5" fill="#2563eb"/>
  <circle cx="336.69" cy="300.01" r="2.5" fill="#2563eb"/>
  <circle cx="338.72" cy="300.01" r="2.5" fill="#2563eb"/>
  <circle cx="340.76" cy="250.44" r="2.5" fill="#2563eb"/>
  <circle cx="342.80" cy="300.39" r="2.5" fill="#2563eb"/>
  <circle cx="344.83" cy="249.86" r="2.5" fill="#2563eb"/>
  <circle cx="346.87" cy="250.11" r="2.5" fill="#2563eb"/>
  <circle cx="348.90" cy="201.46" r="2.5" fill="#2563eb"/>
  <circle cx="350.94" cy="300.01" r="2.5" fill="#2563eb"/>
  <circle cx="352.98" cy="200.83" r="2.5" fill="#2563eb"/>
  <circle cx="355.01" cy="250.03" r="2.5" fill="#2563eb"/>
  <circle cx="357.05" cy="249.99" r="2.5" fill="#2563eb"/>
  <circle cx="359.08" cy="300.26" r="2.5" fill="#2563eb"/>
  <circle cx="361.12" cy="300.01" r="2.5" fill="#2563eb"/>
  <circle cx="363.15" cy="300.01" r="2.5" fill="#2563eb"/>
  <circle cx="365.19" cy="250.03" r="2.5" fill="#2563eb"/>
  <circle cx="367.23" cy="250.03" r="2.5" fill="#2563eb"/>
  <circle cx="369.26" cy="250.03" r="2.5" fill="#2563eb"/>
  <circle cx="371.30" cy="250.03" r="2.5" fill="#2563eb"/>
  <circle cx="373.33" cy="249.99" r="2.5" fill="#2563eb"/>
  <circle cx="375.37" cy="250.03" r="2.5" fill="#2563eb"/>
  <circle cx="377.40" cy="200.00" r="2.5" fill="#2563eb"/>
  <circle cx="379.44" cy="300.26" r="2.5" fill="#2563eb"/>
  <circle cx="381.48" cy="249.99" r="2.5" fill="#2563eb"/>
  <circle cx="383.51" cy="300.01" r="2.5" fill="#2563eb"/>
  <circle cx="385.55" cy="249.94" r="2.5" fill="#2563eb"/>
  <circle cx="387.58" cy="250.03" r="2.5" fill="#2563eb"/>
  <circle cx="389.62" cy="250.03" r="2.5" fill="#2563eb"/>
  <circle cx="391.66" cy="250.03" r="2.5" fill="#2563eb"/>
  <circle cx="393.69" cy="200.04" r="2.5" fill="#2563eb"/>
  <circle cx="395.73" cy="300.01" r="2.5" fill="#2563eb"/>
  <circle cx="397.76" cy="249.90" r="2.5" fill="#2563eb"/>
  <circle cx="399.80" cy="300.01" r="2.5" fill="#2563eb"/>
  <circle cx="401.83" cy="300.01" r="2.5" fill="#2563eb"/>
  <circle cx="403.87" cy="300.06" r="2.5" fill="#2563eb"/>
  <circle cx="405.91" cy="300.01" r="2.5" fill="#2563eb"/>
  <circle cx="407.94" cy="300.01" r="2.5" fill="#2563eb"/>
  <circle cx="409.98" cy="243.95" r="2.5" fill="#2563eb"/>
  <circle cx="412.01" cy="249.94" r="2.5" fill="#2563eb"/>
  <circle cx="414.05" cy="299.97" r="2.5" fill="#2563eb"/>
  <circle cx="416.09" cy="300.01" r="2.5" fill="#2563eb"/>
  <circle cx="418.12" cy="300.01" r="2.5" fill="#2563eb"/>
  <circle cx="420.16" cy="250.03" r="2.5" fill="#2563eb"/>
  <circle cx="422.19" cy="300.01" r="2.5" fill="#2563eb"/>
  <circle cx="424.23" cy="300.01" r="2.5" fill="#2563eb"/>
  <circle cx="426.26" cy="299.97" r="2.5" fill="#2563eb"/>
  <circle cx="428.30" cy="249.99" r="2.5" fill="#2563eb"/>
  <circle cx="430.34" cy="300.01" r="2.5" fill="#2563eb"/>
  <circle cx="432.37" cy="299.93" r="2.5" fill="#2563eb"/>
  <circle cx="434.41" cy="300.01" r="2.5" fill="#2563eb"/>
  <circle cx="436.44" cy="299.93" r="2.5" fill="#2563eb"/>
  <circle cx="438.48" cy="300.01" r="2.5" fill="#2563eb"/>
  <circle cx="440.51" cy="300.01" r="2.5" fill="#2563eb"/>
  <circle cx="442.55" cy="299.89" r="2.5" fill="#2563eb"/>
  <circle cx="444.59" cy="299.97" r="2.5" fill="#2563eb"/>
  <circle cx="446.62" cy="250.03" r="2.5" fill="#2563eb"/>
  <circle cx="448.66" cy="299.93" r="2.5" fill="#2563eb"/>
  <circle cx="450.69" cy="299.89" r="2.5" fill="#2563eb"/>
  <circle cx="452.73" cy="299.97" r="2.5" fill="#2563eb"/>
  <circle cx="454.77" cy="249.94" r="2.5" fill="#2563eb"/>
  <circle cx="456.80" cy="300.01" r="2.5" fill="#2563eb"/>
  <circle cx="458.84" cy="300.01" r="2.5" fill="#2563eb"/>
  <circle cx="460.87" cy="299.97" r="2.5" fill="#2563eb"/>
  <circle cx="462.91" cy="249.99" r="2.5" fill="#2563eb"/>
  <circle cx="464.94" cy="299.97" r="2.5" fill="#2563eb"/>
  <circle cx="466.98" cy="299.97" r="2.5" fill="#2563eb"/>
  <circle cx="469.02" cy="300.06" r="2.5" fill="#2563eb"/>
  <circle cx="471.05" cy="300.06" r="2.5" fill="#2563eb"/>
  <circle cx="473.09" cy="299.93" r="2.5" fill="#2563eb"/>
  <circle cx="475.12" cy="300.01" r="2.5" fill="#2563eb"/>
  <circle cx="477.16" cy="300.01" r="2.5" fill="#2563eb"/>
  <circle cx="479.19" cy="299.93" r="2.5" fill="#2563eb"/>
  <circle cx="481.23" cy="300.01" r="2.5" fill="#2563eb"/>
  <circle cx="483.27" cy="300.01" r="2.5" fill="#2563eb"/>
  <circle cx="485.30" cy="299.97" r="2.5" fill="#2563eb"/>
  <circle cx="487.34" cy="300.01" r="2.5" fill="#2563eb"/>
  <circle cx="489.37" cy="300.01" r="2.5" fill="#2563eb"/>
  <circle cx="491.41" cy="300.01" r="2.5" fill="#2563eb"/>
  <circle cx="493.45" cy="300.01" r="2.5" fill="#2563eb"/>
  <circle cx="495.48" cy="249.86" r="2.5" fill="#2563eb"/>
  <circle cx="497.52" cy="300.01" r="2.5" fill="#2563eb"/>
  <circle cx="499.55" cy="300.10" r="2.5" fill="#2563eb"/>
  <circle cx="501.59" cy="299.93" r="2.5" fill="#2563eb"/>
  <circle cx="503.62" cy="300.01" r="2.5" fill="#2563eb"/>
  <circle cx="505.66" cy="299.93" r="2.5" fill="#2563eb"/>
  <circle cx="507.70" cy="300.01" r="2.5" fill="#2563eb"/>
  <circle cx="509.73" cy="300.01" r="2.5" fill="#2563eb"/>
  <circle cx="511.77" cy="300.01" r="2.5" fill="#2563eb"/>
  <circle cx="513.80" cy="300.01" r="2.5" fill="#2563eb"/>
  <circle cx="515.84" cy="300.01" r="2.5" fill="#2563eb"/>
  <circle cx="517.87" cy="299.97" r="2.5" fill="#2563eb"/>
  <circle cx="519.91" cy="300.01" r="2.5" fill="#2563eb"/>
  <circle cx="521.95" cy="300.01" r="2.5" fill="#2563eb"/>
  <circle cx="523.98" cy="300.01" r="2.5" fill="#2563eb"/>
  <circle cx="526.02" cy="300.01" r="2.5" fill="#2563eb"/>
  <circle cx="528.05" cy="250.03" r="2.5" fill="#2563eb"/>
  <circle cx="530.09" cy="300.01" r="2.5" fill="#2563eb"/>
  <circle cx="532.13" cy="300.01" r="2.5" fill="#2563eb"/>
  <circle cx="534.16" cy="299.97" r="2.5" fill="#2563eb"/>
  <circle cx="536.20" cy="300.01" r="2.5" fill="#2563eb"/>
  <circle cx="538.23" cy="300.01" r="2.5" fill="#2563eb"/>
  <circle cx="540.27" cy="299.97" r="2.5" fill="#2563eb"/>
  <circle cx="542.30" cy="299.97" r="2.5" fill="#2563eb"/>
  <circle cx="544.34" cy="300.01" r="2.5" fill="#2563eb"/>
  <circle cx="546.38" cy="299.97" r="2.5" fill="#2563eb"/>
  <circle cx="548.41" cy="300.01" r="2.5" fill="#2563eb"/>
  <circle cx="550.45" cy="299.93" r="2.5" fill="#2563eb"/>
  <circle cx="552.48" cy="300.01" r="2.5" fill="#2563eb"/>
  <circle cx="554.52" cy="250.03" r="2.5" fill="#2563eb"/>
  <circle cx="556.55" cy="300.01" r="2.5" fill="#2563eb"/>
  <circle cx="558.59" cy="300.01" r="2.5" fill="#2563eb"/>
  <circle cx="560.63" cy="300.01" r="2.5" fill="#2563eb"/>
  <circle cx="562.66" cy="300.01" r="2.5" fill="#2563eb"/>
  <circle cx="564.70" cy="300.01" r="2.5" fill="#2563eb"/>
  <circle cx="566.73" cy="299.89" r="2.5" fill="#2563eb"/>
  <circle cx="568.77" cy="300.01" r="2.5" fill="#2563eb"/>
  <circle cx="570.81" cy="300.01" r="2.5" fill="#2563eb"/>
  <circle cx="572.84" cy="250.07" r="2.5" fill="#2563eb"/>
  <circle cx="574.88" cy="300.01" r="2.5" fill="#2563eb"/>
  <circle cx="576.91" cy="299.93" r="2.5" fill="#2563eb"/>
  <circle cx="578.95" cy="300.01" r="2.5" fill="#2563eb"/>
  <circle cx="580.98" cy="299.97" r="2.5" fill="#2563eb"/>
  <circle cx="583.02" cy="299.97" r="2.5" fill="#2563eb"/>
  <circle cx="585.06" cy="299.97" r="2.5" fill="#2563eb"/>
  <circle cx="587.09" cy="250.03" r="2.5" fill="#2563eb"/>
  <circle cx="589.13" cy="300.01" r="2.5" fill="#2563eb"/>
  <circle cx="591.16" cy="300.01" r="2.5" fill="#2563eb"/>
  <circle cx="593.20" cy="300.01" r="2.5" fill="#2563eb"/>
  <circle cx="595.23" cy="300.01" r="2.5" fill="#2563eb"/>
  <circle cx="597.27" cy="299.97" r="2.5" fill="#2563eb"/>
  <circle cx="599.31" cy="300.01" r="2.5" fill="#2563eb"/>
  <circle cx="601.34" cy="299.97" r="2.5" fill="#2563eb"/>
  <circle cx="603.38" cy="300.01" r="2.5" fill="#2563eb"/>
  <circle cx="605.41" cy="299.97" r="2.5" fill="#2563eb"/>
  <circle cx="607.45" cy="249.90" r="2.5" fill="#2563eb"/>
  <circle cx="609.49" cy="300.01" r="2.5" fill="#2563eb"/>
  <circle cx="611.52" cy="300.01" r="2.5" fill="#2563eb"/>
  <circle cx="613.56" cy="299.89" r="2.5" fill="#2563eb"/>
  <circle cx="615.59" cy="299.97" r="2.5" fill="#2563eb"/>
  <circle cx="617.63" cy="299.97" r="2.5" fill="#2563eb"/>
  <circle cx="619.66" cy="249.99" r="2.5" fill="#2563eb"/>
  <circle cx="621.70" cy="299.97" r="2.5" fill="#2563eb"/>
  <circle cx="623.74" cy="299.89" r="2.5" fill="#2563eb"/>
  <circle cx="625.77" cy="300.01" r="2.5" fill="#2563eb"/>
  <circle cx="627.81" cy="299.97" r="2.5" fill="#2563eb"/>
  <circle cx="629.84" cy="299.97" r="2.5" fill="#2563eb"/>
  <circle cx="631.88" cy="300.01" r="2.5" fill="#2563eb"/>
  <circle cx="633.91" cy="299.97" r="2.5" fill="#2563eb"/>
  <circle cx="635.95" cy="249.99" r="2.5" fill="#2563eb"/>
  <circle cx="637.99" cy="299.97" r="2.5" fill="#2563eb"/>
  <circle cx="640.02" cy="299.97" r="2.5" fill="#2563eb"/>
  <circle cx="642.06" cy="300.06" r="2.5" fill="#2563eb"/>
  <circle cx="644.09" cy="300.06" r="2.5" fill="#2563eb"/>
  <circle cx="646.13" cy="249.94" r="2.5" fill="#2563eb"/>
  <circle cx="648.17" cy="300.01" r="2.5" fill="#2563eb"/>
  <circle cx="650.20" cy="299.93" r="2.5" fill="#2563eb"/>
  <circle cx="652.24" cy="300.01" r="2.5" fill="#2563eb"/>
  <circle cx="654.27" cy="300.01" r="2.5" fill="#2563eb"/>
  <circle cx="656.31" cy="249.99" r="2.5" fill="#2563eb"/>
  <circle cx="658.34" cy="300.01" r="2.5" fill="#2563eb"/>
  <circle cx="660.38" cy="300.01" r="2.5" fill="#2563eb"/>
  <circle cx="662.42" cy="300.01" r="2.5" fill="#2563eb"/>
  <circle cx="664.45" cy="299.93" r="2.5" fill="#2563eb"/>
  <circle cx="666.49" cy="299.93" r="2.5" fill="#2563eb"/>
  <circle cx="668.52" cy="300.01" r="2.5" fill="#2563eb"/>
  <circle cx="670.56" cy="300.01" r="2.5" fill="#2563eb"/>
  <circle cx="672.60" cy="249.94" r="2.5" fill="#2563eb"/>
  <circle cx="674.63" cy="299.97" r="2.5" fill="#2563eb"/>
  <circle cx="676.67" cy="299.97" r="2.5" fill="#2563eb"/>
  <circle cx="678.70" cy="300.01" r="2.5" fill="#2563eb"/>
  <circle cx="680.74" cy="300.01" r="2.5" fill="#2563eb"/>
  <circle cx="682.77" cy="300.01" r="2.5" fill="#2563eb"/>
  <circle cx="684.81" cy="249.99" r="2.5" fill="#2563eb"/>
  <circle cx="686.85" cy="300.01" r="2.5" fill="#2563eb"/>
  <circle cx="688.88" cy="300.01" r="2.5" fill="#2563eb"/>
  <circle cx="690.92" cy="300.01" r="2.5" fill="#2563eb"/>
  <circle cx="692.95" cy="250.03" r="2.5" fill="#2563eb"/>
  <circle cx="694.99" cy="300.01" r="2.5" fill="#2563eb"/>
  <circle cx="697.02" cy="300.01" r="2.5" fill="#2563eb"/>
  <circle cx="699.06" cy="300.01" r="2.5" fill="#2563eb"/>
  <circle cx="701.10" cy="299.97" r="2.5" fill="#2563eb"/>
  <circle cx="703.13" cy="300.01" r="2.5" fill="#2563eb"/>
  <circle cx="705.17" cy="300.01" r="2.5" fill="#2563eb"/>
  <circle cx="707.20" cy="299.97" r="2.5" fill="#2563eb"/>
  <circle cx="709.24" cy="299.97" r="2.5" fill="#2563eb"/>
  <circle cx="711.28" cy="300.01" r="2.5" fill="#2563eb"/>
  <circle cx="713.31" cy="300.01" r="2.5" fill="#2563eb"/>
  <circle cx="715.35" cy="299.97" r="2.5" fill="#2563eb"/>
  <circle cx="717.38" cy="299.93" r="2.5" fill="#2563eb"/>
  <circle cx="719.42" cy="300.01" r="2.5" fill="#2563eb"/>
  <circle cx="721.45" cy="300.06" r="2.5" fill="#2563eb"/>
  <circle cx="723.49" cy="299.97" r="2.5" fill="#2563eb"/>
  <circle cx="725.53" cy="300.01" r="2.5" fill="#2563eb"/>
  <circle cx="727.56" cy="250.03" r="2.5" fill="#2563eb"/>
  <circle cx="729.60" cy="250.03" r="2.5" fill="#2563eb"/>
  <circle cx="731.63" cy="299.93" r="2.5" fill="#2563eb"/>
  <circle cx="733.67" cy="299.97" r="2.5" fill="#2563eb"/>
  <circle cx="735.70" cy="300.01" r="2.5" fill="#2563eb"/>
  <circle cx="737.74" cy="300.01" r="2.5" fill="#2563eb"/>
  <circle cx="739.78" cy="300.06" r="2.5" fill="#2563eb"/>
  <circle cx="741.81" cy="300.01" r="2.5" fill="#2563eb"/>
  <circle cx="743.85" cy="299.93" r="2.5" fill="#2563eb"/>
  <circle cx="745.88" cy="300.01" r="2.5" fill="#2563eb"/>
  <circle cx="747.92" cy="300.01" r="2.5" fill="#2563eb"/>
  <circle cx="749.96" cy="299.97" r="2.5" fill="#2563eb"/>
  <circle cx="751.99" cy="299.97" r="2.5" fill="#2563eb"/>
  <circle cx="754.03" cy="300.01" r="2.5" fill="#2563eb"/>
  <circle cx="756.06" cy="250.03" r="2.5" fill="#2563eb"/>
  <circle cx="758.10" cy="300.01" r="2.5" fill="#2563eb"/>
  <circle cx="760.13" cy="300.01" r="2.5" fill="#2563eb"/>
  <circle cx="762.17" cy="300.01" r="2.5" fill="#2563eb"/>
  <circle cx="764.21" cy="299.97" r="2.5" fill="#2563eb"/>
  <circle cx="766.24" cy="300.01" r="2.5" fill="#2563eb"/>
  <circle cx="768.28" cy="299.97" r="2.5" fill="#2563eb"/>
  <circle cx="770.31" cy="300.01" r="2.5" fill="#2563eb"/>
  <circle cx="772.35" cy="299.97" r="2.5" fill="#2563eb"/>
  <circle cx="774.38" cy="299.97" r="2.5" fill="#2563eb"/>
  <circle cx="776.42" cy="299.93" r="2.5" fill="#2563eb"/>
  <circle cx="778.46" cy="300.01" r="2.5" fill="#2563eb"/>
  <circle cx="780.49" cy="300.01" r="2.5" fill="#2563eb"/>
  <circle cx="782.53" cy="299.89" r="2.5" fill="#2563eb"/>
  <circle cx="784.56" cy="299.97" r="2.5" fill="#2563eb"/>
  <circle cx="786.60" cy="299.97" r="2.5" fill="#2563eb"/>
  <circle cx="788.64" cy="300.06" r="2.5" fill="#2563eb"/>
  <circle cx="790.67" cy="249.90" r="2.5" fill="#2563eb"/>
  <circle cx="792.71" cy="299.89" r="2.5" fill="#2563eb"/>
  <circle cx="794.74" cy="300.01" r="2.5" fill="#2563eb"/>
  <circle cx="796.78" cy="299.97" r="2.5" fill="#2563eb"/>
  <circle cx="798.81" cy="299.97" r="2.5" fill="#2563eb"/>
  <circle cx="800.85" cy="299.97" r="2.5" fill="#2563eb"/>
  <circle cx="802.89" cy="300.01" r="2.5" fill="#2563eb"/>
  <circle cx="804.92" cy="300.01" r="2.5" fill="#2563eb"/>
  <circle cx="806.96" cy="299.97" r="2.5" fill="#2563eb"/>
  <circle cx="808.99" cy="299.97" r="2.5" fill="#2563eb"/>
  <circle cx="811.03" cy="299.97" r="2.5" fill="#2563eb"/>
  <circle cx="813.06" cy="250.03" r="2.5" fill="#2563eb"/>
  <circle cx="815.10" cy="299.93" r="2.5" fill="#2563eb"/>
  <circle cx="817.14" cy="300.01" r="2.5" fill="#2563eb"/>
  <circle cx="819.17" cy="300.01" r="2.5" fill="#2563eb"/>
  <circle cx="821.21" cy="299.93" r="2.5" fill="#2563eb"/>
  <circle cx="823.24" cy="300.01" r="2.5" fill="#2563eb"/>
  <circle cx="825.28" cy="300.01" r="2.5" fill="#2563eb"/>
  <circle cx="827.32" cy="299.97" r="2.5" fill="#2563eb"/>
  <circle cx="829.35" cy="300.01" r="2.5" fill="#2563eb"/>
  <circle cx="831.39" cy="300.01" r="2.5" fill="#2563eb"/>
  <circle cx="833.42" cy="300.06" r="2.5" fill="#2563eb"/>
  <circle cx="835.46" cy="300.01" r="2.5" fill="#2563eb"/>
  <circle cx="837.49" cy="299.97" r="2.5" fill="#2563eb"/>
  <circle cx="839.53" cy="299.89" r="2.5" fill="#2563eb"/>
  <circle cx="841.57" cy="300.01" r="2.5" fill="#2563eb"/>
  <circle cx="843.60" cy="300.01" r="2.5" fill="#2563eb"/>
  <circle cx="845.64" cy="249.94" r="2.5" fill="#2563eb"/>
  <circle cx="847.67" cy="249.94" r="2.5" fill="#2563eb"/>
  <circle cx="849.71" cy="300.01" r="2.5" fill="#2563eb"/>
  <circle cx="851.74" cy="300.01" r="2.5" fill="#2563eb"/>
  <circle cx="853.78" cy="300.01" r="2.5" fill="#2563eb"/>
  <circle cx="855.82" cy="300.01" r="2.5" fill="#2563eb"/>
  <circle cx="857.85" cy="299.97" r="2.5" fill="#2563eb"/>
  <circle cx="859.89" cy="250.03" r="2.5" fill="#2563eb"/>
  <circle cx="861.92" cy="300.01" r="2.5" fill="#2563eb"/>
  <circle cx="863.96" cy="300.01" r="2.5" fill="#2563eb"/>
  <circle cx="866.00" cy="300.01" r="2.5" fill="#2563eb"/>
  <circle cx="868.03" cy="300.01" r="2.5" fill="#2563eb"/>
  <circle cx="870.07" cy="250.03" r="2.5" fill="#2563eb"/>
  <circle cx="872.10" cy="249.99" r="2.5" fill="#2563eb"/>
  <circle cx="874.14" cy="300.01" r="2.5" fill="#2563eb"/>
  <circle cx="876.17" cy="299.97" r="2.5" fill="#2563eb"/>
  <circle cx="878.21" cy="300.01" r="2.5" fill="#2563eb"/>
  <circle cx="880.25" cy="299.97" r="2.5" fill="#2563eb"/>
  <circle cx="882.28" cy="300.01" r="2.5" fill="#2563eb"/>
  <circle cx="884.32" cy="299.97" r="2.5" fill="#2563eb"/>
  <circle cx="886.35" cy="299.97" r="2.5" fill="#2563eb"/>
  <circle cx="888.39" cy="299.97" r="2.5" fill="#2563eb"/>
  <circle cx="890.43" cy="300.06" r="2.5" fill="#2563eb"/>
  <circle cx="892.46" cy="249.99" r="2.5" fill="#2563eb"/>
  <circle cx="894.50" cy="300.01" r="2.5" fill="#2563eb"/>
  <circle cx="896.53" cy="250.03" r="2.5" fill="#2563eb"/>
  <circle cx="898.57" cy="249.94" r="2.5" fill="#2563eb"/>
  <circle cx="900.60" cy="249.99" r="2.5" fill="#2563eb"/>
  <circle cx="902.64" cy="300.01" r="2.5" fill="#2563eb"/>
  <circle cx="904.68" cy="300.06" r="2.5" fill="#2563eb"/>
  <circle cx="906.71" cy="300.01" r="2.5" fill="#2563eb"/>
  <circle cx="908.75" cy="299.97" r="2.5" fill="#2563eb"/>
  <circle cx="910.78" cy="299.97" r="2.5" fill="#2563eb"/>
  <circle cx="912.82" cy="300.01" r="2.5" fill="#2563eb"/>
  <circle cx="914.85" cy="299.93" r="2.5" fill="#2563eb"/>
  <circle cx="916.89" cy="299.89" r="2.5" fill="#2563eb"/>
  <circle cx="918.93" cy="299.89" r="2.5" fill="#2563eb"/>
  <circle cx="920.96" cy="299.89" r="2.5" fill="#2563eb"/>
  <circle cx="923.00" cy="299.89" r="2.5" fill="#2563eb"/>
  <circle cx="925.03" cy="299.85" r="2.5" fill="#2563eb"/>
  <circle cx="927.07" cy="299.85" r="2.5" fill="#2563eb"/>
  <circle cx="929.11" cy="299.89" r="2.5" fill="#2563eb"/>
  <circle cx="931.14" cy="299.81" r="2.5" fill="#2563eb"/>
  <circle cx="933.18" cy="299.81" r="2.5" fill="#2563eb"/>
  <circle cx="935.21" cy="299.81" r="2.5" fill="#2563eb"/>
  <circle cx="937.25" cy="299.76" r="2.5" fill="#2563eb"/>
  <circle cx="939.28" cy="299.76" r="2.5" fill="#2563eb"/>
  <circle cx="941.32" cy="299.76" r="2.5" fill="#2563eb"/>
  <circle cx="943.36" cy="299.72" r="2.5" fill="#2563eb"/>
  <circle cx="945.39" cy="299.68" r="2.5" fill="#2563eb"/>
  <circle cx="947.43" cy="299.60" r="2.5" fill="#2563eb"/>
  <circle cx="949.46" cy="299.60" r="2.5" fill="#2563eb"/>
  <circle cx="951.50" cy="299.60" r="2.5" fill="#2563eb"/>
  <circle cx="953.53" cy="299.56" r="2.5" fill="#2563eb"/>
  <circle cx="955.57" cy="299.47" r="2.5" fill="#2563eb"/>
  <circle cx="957.61" cy="299.43" r="2.5" fill="#2563eb"/>
  <circle cx="959.64" cy="299.43" r="2.5" fill="#2563eb"/>
  <circle cx="961.68" cy="299.39" r="2.5" fill="#2563eb"/>
  <circle cx="963.71" cy="299.47" r="2.5" fill="#2563eb"/>
  <circle cx="965.75" cy="259.82" r="2.5" fill="#2563eb"/>
  <circle cx="967.79" cy="338.96" r="2.5" fill="#2563eb"/>
  <circle cx="969.82" cy="299.31" r="2.5" fill="#2563eb"/>
  <circle cx="971.86" cy="299.31" r="2.5" fill="#2563eb"/>
  <circle cx="973.89" cy="299.26" r="2.5" fill="#2563eb"/>
  <circle cx="975.93" cy="299.68" r="2.5" fill="#2563eb"/>
  <circle cx="977.96" cy="299.68" r="2.5" fill="#2563eb"/>
  <circle cx="980.00" cy="299.68" r="2.5" fill="#2563eb"/>
</svg>
