<?xml version="1.0" encoding="UTF-8"?>
<svg xmlns="http://www.w3.org/2000/svg" width="1000" height="420" viewBox="0 0 1000 420">
  <rect width="100%" height="100%" fill="#ffffff"/>
  <text x="70" y="28" font-size="20" font-weight="600">수집 시점 기준 - 시간별 스냅샷</text>
  <text x="70" y="402" font-size="12" fill="#555">스냅샷 수</text>
  <line x1="70" y1="350.00" x2="980" y2="350.00" stroke="#e5e7eb" stroke-width="1"/>
  <text x="62" y="354.00" font-size="11" fill="#6b7280" text-anchor="end">0</text>
  <line x1="70" y1="290.00" x2="980" y2="290.00" stroke="#e5e7eb" stroke-width="1"/>
  <text x="62" y="294.00" font-size="11" fill="#6b7280" text-anchor="end">1,440</text>
  <line x1="70" y1="230.00" x2="980" y2="230.00" stroke="#e5e7eb" stroke-width="1"/>
  <text x="62" y="234.00" font-size="11" fill="#6b7280" text-anchor="end">2,880</text>
  <line x1="70" y1="170.00" x2="980" y2="170.00" stroke="#e5e7eb" stroke-width="1"/>
  <text x="62" y="174.00" font-size="11" fill="#6b7280" text-anchor="end">4,321</text>
  <line x1="70" y1="110.00" x2="980" y2="110.00" stroke="#e5e7eb" stroke-width="1"/>
  <text x="62" y="114.00" font-size="11" fill="#6b7280" text-anchor="end">5,761</text>
  <line x1="70" y1="50.00" x2="980" y2="50.00" stroke="#e5e7eb" stroke-width="1"/>
  <text x="62" y="54.00" font-size="11" fill="#6b7280" text-anchor="end">7,202</text>
  <line x1="70" y1="350" x2="980" y2="350" stroke="#111827" stroke-width="1.2"/>
  <line x1="70" y1="50" x2="70" y2="350" stroke="#111827" stroke-width="1.2"/>
  <line x1="70.00" y1="350" x2="70.00" y2="356" stroke="#9ca3af" stroke-width="1"/>
  <text x="70.00" y="372" font-size="10" fill="#6b7280" text-anchor="middle">2026-02-28 18</text>
  <line x1="145.28" y1="350" x2="145.28" y2="356" stroke="#9ca3af" stroke-width="1"/>
  <text x="145.28" y="372" font-size="10" fill="#6b7280" text-anchor="middle">2026-03-09 14</text>
  <line x1="220.57" y1="350" x2="220.57" y2="356" stroke="#9ca3af" stroke-width="1"/>
  <text x="220.57" y="372" font-size="10" fill="#6b7280" text-anchor="middle">2026-03-12 03</text>
  <line x1="295.85" y1="350" x2="295.85" y2="356" stroke="#9ca3af" stroke-width="1"/>
  <text x="295.85" y="372" font-size="10" fill="#6b7280" text-anchor="middle">2026-03-14 22</text>
  <line x1="371.13" y1="350" x2="371.13" y2="356" stroke="#9ca3af" stroke-width="1"/>
  <text x="371.13" y="372" font-size="10" fill="#6b7280" text-anchor="middle">2026-03-18 15</text>
  <line x1="446.42" y1="350" x2="446.42" y2="356" stroke="#9ca3af" stroke-width="1"/>
  <text x="446.42" y="372" font-size="10" fill="#6b7280" text-anchor="middle">2026-03-22 00</text>
  <line x1="521.70" y1="350" x2="521.70" y2="356" stroke="#9ca3af" stroke-width="1"/>
  <text x="521.70" y="372" font-size="10" fill="#6b7280" text-anchor="middle">2026-03-25 17</text>
  <line x1="596.98" y1="350" x2="596.98" y2="356" stroke="#9ca3af" stroke-width="1"/>
  <text x="596.98" y="372" font-size="10" fill="#6b7280" text-anchor="middle">2026-03-29 12</text>
  <line x1="672.26" y1="350" x2="672.26" y2="356" stroke="#9ca3af" stroke-width="1"/>
  <text x="672.26" y="372" font-size="10" fill="#6b7280" text-anchor="middle">2026-04-02 14</text>
  <line x1="747.55" y1="350" x2="747.55" y2="356" stroke="#9ca3af" stroke-width="1"/>
  <text x="747.55" y="372" font-size="10" fill="#6b7280" text-anchor="middle">2026-04-06 06</text>
  <line x1="822.83" y1="350" x2="822.83" y2="356" stroke="#9ca3af" stroke-width="1"/>
  <text x="822.83" y="372" font-size="10" fill="#6b7280" text-anchor="middle">2026-04-10 09</text>
  <line x1="898.11" y1="350" x2="898.11" y2="356" stroke="#9ca3af" stroke-width="1"/>
  <text x="898.11" y="372" font-size="10" fill="#6b7280" text-anchor="middle">2026-04-14 09</text>
  <line x1="973.40" y1="350" x2="973.40" y2="356" stroke="#9ca3af" stroke-width="1"/>
  <text x="973.40" y="372" font-size="10" fill="#6b7280" text-anchor="middle">2026-04-18 18</text>
  <line x1="980.00" y1="350" x2="980.00" y2="356" stroke="#9ca3af" stroke-width="1"/>
  <text x="980.00" y="372" font-size="10" fill="#6b7280" text-anchor="middle">2026-04-19 01</text>
  <polyline fill="none" stroke="#2563eb" stroke-width="2.5" points="70.00,50.00 71.32,50.12 72.64,50.17 73.96,50.46 75.28,50.00 76.60,266.90 77.92,50.12 79.25,50.08 80.57,177.46 81.89,211.58 83.21,175.34 84.53,304.14 85.85,200.46 87.17,250.94 88.49,300.01 89.81,300.06 91.13,300.01 92.45,300.01 93.77,348.00 95.09,300.01 96.42,249.99 97.74,200.00 99.06,249.99 100.38,249.99 101.70,250.03 103.02,250.03 104.34,250.03 105.66,250.40 106.98,250.90 108.30,250.90 109.62,251.32 110.94,249.94 112.26,300.01 113.58,299.93 114.91,251.03 116.23,300.68 117.55,250.03 118.87,200.00 120.19,249.99 121.51,250.03 122.83,250.03 124.15,250.03 125.47,300.01 126.79,200.04 128.11,250.03 129.43,250.03 130.75,250.03 132.08,249.90 133.40,250.03 134.72,250.03 136.04,250.94 137.36,250.44 138.68,250.03 140.00,250.03 141.32,300.47 142.64,300.01 143.96,300.43 145.28,250.03 146.60,249.99 147.92,300.43 149.25,249.90 150.57,249.99 151.89,249.99 153.21,200.04 154.53,300.01 155.85,300.01 157.17,300.01 158.49,249.90 159.81,300.01 161.13,250.03 162.45,249.99 163.77,199.96 165.09,300.01 166.42,200.00 167.74,250.36 169.06,250.03 170.38,300.01 171.70,300.01 173.02,250.44 174.34,300.01 175.66,250.03 176.98,250.03 178.30,249.99 179.62,250.49 180.94,250.03 182.26,200.04 183.58,300.01 184.91,250.03 186.23,300.01 187.55,250.11 188.87,300.01 190.19,250.03 191.51,250.03 192.83,199.92 194.15,250.03 195.47,250.03 196.79,250.03 198.11,254.36 199.43,300.01 200.75,299.97 202.08,250.36 203.40,299.97 204.72,250.03 206.04,250.03 207.36,250.03 208.68,250.03 210.00,249.99 211.32,200.00 212.64,299.93 213.96,300.01 215.28,299.97 216.60,249.94 217.92,249.99 219.25,249.82 220.57,249.94 221.89,250.28 223.21,207.00 224.53,250.03 225.85,250.32 227.17,250.40 228.49,300.93 229.81,300.01 231.13,300.10 232.45,249.94 233.77,249.99 235.09,250.07 236.42,249.99 237.74,250.03 239.06,249.94 240.38,200.00 241.70,300.39 243.02,300.01 244.34,300.01 245.66,250.44 246.98,300.39 248.30,249.86 249.62,250.11 250.94,201.46 252.26,300.01 253.58,200.83 254.91,250.03 256.23,249.99 257.55,300.26 258.87,300.01 260.19,300.01 261.51,250.03 262.83,250.03 264.15,250.03 265.47,250.03 266.79,249.99 268.11,250.03 269.43,200.00 270.75,300.26 272.08,249.99 273.40,300.01 274.72,249.94 276.04,250.03 277.36,250.03 278.68,250.03 280.00,200.04 281.32,300.01 282.64,249.90 283.96,300.01 285.28,300.01 286.60,300.06 287.92,300.01 289.25,300.01 290.57,243.95 291.89,249.94 293.21,299.97 294.53,300.01 295.85,300.01 297.17,250.03 298.49,300.01 299.81,300.01 301.13,299.97 302.45,249.99 303.77,300.01 305.09,299.93 306.42,300.01 307.74,299.93 309.06,300.01 310.38,300.01 311.70,299.89 313.02,299.97 314.34,250.03 315.66,299.93 316.98,299.89 318.30,299.97 319.62,249.94 320.94,300.01 322.26,300.01 323.58,299.97 324.91,249.99 326.23,299.97 327.55,299.97 328.87,300.06 330.19,300.06 331.51,299.93 332.83,300.01 334.15,300.01 335.47,299.93 336.79,300.01 338.11,300.01 339.43,299.97 340.75,300.01 342.08,300.01 343.40,300.01 344.72,300.01 346.04,249.86 347.36,300.01 348.68,300.10 350.00,299.93 351.32,300.01 352.64,299.93 353.96,300.01 355.28,300.01 356.60,300.01 357.92,300.01 359.25,300.01 360.57,299.97 361.89,300.01 363.21,300.01 364.53,300.01 365.85,300.01 367.17,250.03 368.49,300.01 369.81,300.01 371.13,299.97 372.45,300.01 373.77,300.01 375.09,299.97 376.42,299.97 377.74,300.01 379.06,299.97 380.38,300.01 381.70,299.93 383.02,300.01 384.34,250.03 385.66,300.01 386.98,300.01 388.30,300.01 389.62,300.01 390.94,300.01 392.26,299.89 393.58,300.01 394.91,300.01 396.23,250.07 397.55,300.01 398.87,299.93 400.19,300.01 401.51,299.97 402.83,299.97 404.15,299.97 405.47,250.03 406.79,300.01 408.11,300.01 409.43,300.01 410.75,300.01 412.08,299.97 413.40,300.01 414.72,299.97 416.04,300.01 417.36,299.97 418.68,249.90 420.00,300.01 421.32,300.01 422.64,299.89 423.96,299.97 425.28,299.97 426.60,249.99 427.92,299.97 429.25,299.89 430.57,300.01 431.89,299.97 433.21,299.97 434.53,300.01 435.85,299.97 437.17,249.99 438.49,299.97 439.81,299.97 441.13,300.06 442.45,300.06 443.77,249.94 445.09,300.01 446.42,299.93 447.74,300.01 449.06,300.01 450.38,249.99 451.70,300.01 453.02,300.01 454.34,300.01 455.66,299.93 456.98,299.93 458.30,300.01 459.62,300.01 460.94,249.94 462.26,299.97 463.58,299.97 464.91,300.01 466.23,300.01 467.55,300.01 468.87,249.99 470.19,300.01 471.51,300.01 472.83,300.01 474.15,250.03 475.47,300.01 476.79,300.01 478.11,300.01 479.43,299.97 480.75,300.01 482.08,300.01 483.40,299.97 484.72,299.97 486.04,300.01 487.36,300.01 488.68,299.97 490.00,299.93 491.32,300.01 492.64,300.06 493.96,299.97 495.28,300.01 496.60,250.03 497.92,250.03 499.25,299.93 500.57,299.97 501.89,300.01 503.21,300.01 504.53,300.06 505.85,300.01 507.17,299.93 508.49,300.01 509.81,300.01 511.13,299.97 512.45,299.97 513.77,300.01 515.09,250.03 516.42,300.01 517.74,300.01 519.06,300.01 520.38,299.97 521.70,300.01 523.02,299.97 524.34,300.01 525.66,299.97 526.98,299.97 528.30,299.93 529.62,300.01 530.94,300.01 532.26,299.89 533.58,299.97 534.91,299.97 536.23,300.06 537.55,249.90 538.87,299.89 540.19,300.01 541.51,299.97 542.83,299.97 544.15,299.97 545.47,300.01 546.79,300.01 548.11,299.97 549.43,299.97 550.75,299.97 552.08,250.03 553.40,299.93 554.72,300.01 556.04,300.01 557.36,299.93 558.68,300.01 560.00,300.01 561.32,299.97 562.64,300.01 563.96,300.01 565.28,300.06 566.60,300.01 567.92,299.97 569.25,299.89 570.57,300.01 571.89,300.01 573.21,249.94 574.53,249.94 575.85,300.01 577.17,300.01 578.49,300.01 579.81,300.01 581.13,299.97 582.45,250.03 583.77,300.01 585.09,300.01 586.42,300.01 587.74,300.01 589.06,250.03 590.38,249.99 591.70,300.01 593.02,299.97 594.34,300.01 595.66,299.97 596.98,300.01 598.30,299.97 599.62,299.97 600.94,299.97 602.26,300.06 603.58,249.99 604.91,300.01 606.23,250.03 607.55,249.94 608.87,249.99 610.19,300.01 611.51,300.06 612.83,300.01 614.15,299.97 615.47,299.97 616.79,300.01 618.11,299.93 619.43,299.89 620.75,299.89 622.08,299.89 623.40,299.89 624.72,299.85 626.04,299.85 627.36,299.89 628.68,299.81 630.00,299.81 631.32,299.81 632.64,299.76 633.96,299.76 635.28,299.76 636.60,299.72 637.92,299.68 639.25,299.60 640.57,299.60 641.89,299.60 643.21,299.56 644.53,299.47 645.85,299.43 647.17,299.43 648.49,299.39 649.81,299.47 651.13,259.82 652.45,338.96 653.77,299.31 655.09,299.31 656.42,299.26 657.74,299.68 659.06,299.68 660.38,299.68 661.70,299.64 663.02,299.14 664.34,299.14 665.66,299.10 666.98,299.10 668.30,299.10 669.62,248.07 670.94,299.06 672.26,299.06 673.58,299.06 674.91,299.06 676.23,299.06 677.55,298.97 678.87,298.97 680.19,298.93 681.51,298.97 682.83,298.93 684.15,298.89 685.47,298.89 686.79,298.89 688.11,298.89 689.43,247.78 690.75,298.89 692.08,298.89 693.40,298.85 694.72,298.85 696.04,298.81 697.36,298.81 698.68,298.81 700.00,298.81 701.32,298.81 702.64,298.81 703.96,298.81 705.28,298.81 706.60,298.81 707.92,298.72 709.25,247.45 710.57,247.45 711.89,298.72 713.21,298.72 714.53,298.72 715.85,298.72 717.17,298.72 718.49,298.72 719.81,247.36 721.13,298.68 722.45,247.36 723.77,247.36 725.09,247.36 726.42,298.68 727.74,298.68 729.06,298.68 730.38,298.68 731.70,298.68 733.02,341.67 734.34,307.01 735.66,298.68 736.98,298.68 738.30,298.68 739.62,247.36 740.94,298.64 742.26,247.36 743.58,247.28 744.91,247.20 746.23,298.60 747.55,298.60 748.87,247.03 750.19,298.51 751.51,298.51 752.83,298.51 754.15,298.51 755.47,298.51 756.79,298.51 758.11,298.51 759.43,298.51 760.75,298.51 762.08,298.51 763.40,298.51 764.72,298.51 766.04,298.51 767.36,298.51 768.68,298.51 770.00,298.51 771.32,298.51 772.64,298.51 773.96,298.51 775.28,298.51 776.60,298.51 777.92,298.51 779.25,298.51 780.57,298.51 781.89,298.51 783.21,298.51 784.53,298.47 785.85,298.51 787.17,298.51 788.49,298.47 789.81,298.51 791.13,298.47 792.45,298.51 793.77,298.43 795.09,298.56 796.42,298.43 797.74,298.43 799.06,298.43 800.38,298.43 801.70,298.43 803.02,298.43 804.34,298.43 805.66,298.43 806.98,298.43 808.30,298.43 809.62,298.43 810.94,298.43 812.26,298.43 813.58,298.43 814.91,298.43 816.23,298.43 817.55,298.43 818.87,298.43 820.19,298.43 821.51,298.43 822.83,298.43 824.15,298.43 825.47,298.43 826.79,298.43 828.11,298.43 829.43,298.43 830.75,298.43 832.08,298.43 833.40,298.43 834.72,298.43 836.04,298.43 837.36,298.43 838.68,298.43 840.00,298.43 841.32,298.39 842.64,298.39 843.96,298.43 845.28,298.43 846.60,298.39 847.92,298.39 849.25,298.39 850.57,298.43 851.89,298.43 853.21,298.43 854.53,246.82 855.85,298.43 857.17,246.78 858.49,246.78 859.81,246.78 861.13,246.70 862.45,246.78 863.77,298.39 865.09,298.39 866.42,298.39 867.74,298.39 869.06,298.39 870.38,246.78 871.70,298.39 873.02,298.39 874.34,298.39 875.66,298.39 876.98,298.39 878.30,246.78 879.62,246.78 880.94,298.39 882.26,298.39 883.58,298.39 884.91,298.39 886.23,298.39 887.55,298.39 888.87,298.39 890.19,298.39 891.51,298.39 892.83,298.39 894.15,298.39 895.47,298.39 896.79,298.39 898.11,298.39 899.43,298.35 900.75,298.39 902.08,298.39 903.40,298.35 904.72,298.35 906.04,298.35 907.36,298.35 908.68,298.35 910.00,298.35 911.32,298.35 912.64,298.35 913.96,298.35 915.28,298.35 916.60,298.35 917.92,298.35 919.25,298.35 920.57,298.35 921.89,298.35 923.21,298.35 924.53,298.35 925.85,298.35 927.17,298.35 928.49,298.35 929.81,298.35 931.13,298.35 932.45,298.35 933.77,298.35 935.09,298.35 936.42,298.35 937.74,298.35 939.06,298.35 940.38,298.35 941.70,298.35 943.02,298.35 944.34,298.35 945.66,298.35 946.98,298.35 948.30,298.35 949.62,298.35 950.94,298.35 952.26,298.35 953.58,298.35 954.91,298.35 956.23,298.35 957.55,298.35 958.87,298.35 960.19,298.35 961.51,298.35 962.83,298.35 964.15,298.35 965.47,298.35 966.79,298.35 968.11,298.35 969.43,298.35 970.75,298.35 972.08,298.39 973.40,298.39 974.72,298.39 976.04,246.78 977.36,298.39 978.68,298.39 980.00,298.39"/>
  <circle cx="70.00" cy="50.00" r="2.5" fill="#2563eb"/>
  <circle cx="71.32" cy="50.12" r="2.5" fill="#2563eb"/>
  <circle cx="72.64" cy="50.17" r="2.5" fill="#2563eb"/>
  <circle cx="73.96" cy="50.46" r="2.5" fill="#2563eb"/>
  <circle cx="75.28" cy="50.00" r="2.5" fill="#2563eb"/>
  <circle cx="76.60" cy="266.90" r="2.5" fill="#2563eb"/>
  <circle cx="77.92" cy="50.12" r="2.5" fill="#2563eb"/>
  <circle cx="79.25" cy="50.08" r="2.5" fill="#2563eb"/>
  <circle cx="80.57" cy="177.46" r="2.5" fill="#2563eb"/>
  <circle cx="81.89" cy="211.58" r="2.5" fill="#2563eb"/>
  <circle cx="83.21" cy="175.34" r="2.5" fill="#2563eb"/>
  <circle cx="84.53" cy="304.14" r="2.5" fill="#2563eb"/>
  <circle cx="85.85" cy="200.46" r="2.5" fill="#2563eb"/>
  <circle cx="87.17" cy="250.94" r="2.5" fill="#2563eb"/>
  <circle cx="88.49" cy="300.01" r="2.5" fill="#2563eb"/>
  <circle cx="89.81" cy="300.06" r="2.5" fill="#2563eb"/>
  <circle cx="91.13" cy="300.01" r="2.5" fill="#2563eb"/>
  <circle cx="92.45" cy="300.01" r="2.5" fill="#2563eb"/>
  <circle cx="93.77" cy="348.00" r="2.5" fill="#2563eb"/>
  <circle cx="95.09" cy="300.01" r="2.5" fill="#2563eb"/>
  <circle cx="96.42" cy="249.99" r="2.5" fill="#2563eb"/>
  <circle cx="97.74" cy="200.00" r="2.5" fill="#2563eb"/>
  <circle cx="99.06" cy="249.99" r="2.5" fill="#2563eb"/>
  <circle cx="100.38" cy="249.99" r="2.5" fill="#2563eb"/>
  <circle cx="101.70" cy="250.03" r="2.5" fill="#2563eb"/>
  <circle cx="103.02" cy="250.03" r="2.5" fill="#2563eb"/>
  <circle cx="104.34" cy="250.03" r="2.5" fill="#2563eb"/>
  <circle cx="105.66" cy="250.40" r="2.5" fill="#2563eb"/>
  <circle cx="106.98" cy="250.90" r="2.5" fill="#2563eb"/>
  <circle cx="108.30" cy="250.90" r="2.5" fill="#2563eb"/>
  <circle cx="109.62" cy="251.32" r="2.5" fill="#2563eb"/>
  <circle cx="110.94" cy="249.94" r="2.5" fill="#2563eb"/>
  <circle cx="112.26" cy="300.01" r="2.5" fill="#2563eb"/>
  <circle cx="113.58" cy="299.93" r="2.5" fill="#2563eb"/>
  <circle cx="114.91" cy="251.03" r="2.5" fill="#2563eb"/>
  <circle cx="116.23" cy="300.68" r="2.5" fill="#2563eb"/>
  <circle cx="117.55" cy="250.03" r="2.5" fill="#2563eb"/>
  <circle cx="118.87" cy="200.00" r="2.5" fill="#2563eb"/>
  <circle cx="120.19" cy="249.99" r="2.5" fill="#2563eb"/>
  <circle cx="121.51" cy="250.03" r="2.5" fill="#2563eb"/>
  <circle cx="122.83" cy="250.03" r="2.5" fill="#2563eb"/>
  <circle cx="124.15" cy="250.03" r="2.5" fill="#2563eb"/>
  <circle cx="125.47" cy="300.01" r="2.5" fill="#2563eb"/>
  <circle cx="126.79" cy="200.04" r="2.5" fill="#2563eb"/>
  <circle cx="128.11" cy="250.03" r="2.5" fill="#2563eb"/>
  <circle cx="129.43" cy="250.03" r="2.5" fill="#2563eb"/>
  <circle cx="130.75" cy="250.03" r="2.5" fill="#2563eb"/>
  <circle cx="132.08" cy="249.90" r="2.5" fill="#2563eb"/>
  <circle cx="133.40" cy="250.03" r="2.5" fill="#2563eb"/>
  <circle cx="134.72" cy="250.03" r="2.5" fill="#2563eb"/>
  <circle cx="136.04" cy="250.94" r="2.5" fill="#2563eb"/>
  <circle cx="137.36" cy="250.44" r="2.5" fill="#2563eb"/>
  <circle cx="138.68" cy="250.03" r="2.5" fill="#2563eb"/>
  <circle cx="140.00" cy="250.03" r="2.5" fill="#2563eb"/>
  <circle cx="141.32" cy="300.47" r="2.5" fill="#2563eb"/>
  <circle cx="142.64" cy="300.01" r="2.5" fill="#2563eb"/>
  <circle cx="143.96" cy="300.43" r="2.5" fill="#2563eb"/>
  <circle cx="145.28" cy="250.03" r="2.5" fill="#2563eb"/>
  <circle cx="146.60" cy="249.99" r="2.5" fill="#2563eb"/>
  <circle cx="147.92" cy="300.43" r="2.5" fill="#2563eb"/>
  <circle cx="149.25" cy="249.90" r="2.5" fill="#2563eb"/>
  <circle cx="150.57" cy="249.99" r="2.5" fill="#2563eb"/>
  <circle cx="151.89" cy="249.99" r="2.5" fill="#2563eb"/>
  <circle cx="153.21" cy="200.04" r="2.5" fill="#2563eb"/>
  <circle cx="154.53" cy="300.01" r="2.5" fill="#2563eb"/>
  <circle cx="155.85" cy="300.01" r="2.5" fill="#2563eb"/>
  <circle cx="157.17" cy="300.01" r="2.5" fill="#2563eb"/>
  <circle cx="158.49" cy="249.90" r="2.5" fill="#2563eb"/>
  <circle cx="159.81" cy="300.01" r="2.5" fill="#2563eb"/>
  <circle cx="161.13" cy="250.03" r="2.5" fill="#2563eb"/>
  <circle cx="162.45" cy="249.99" r="2.5" fill="#2563eb"/>
  <circle cx="163.77" cy="199.96" r="2.5" fill="#2563eb"/>
  <circle cx="165.09" cy="300.01" r="2.5" fill="#2563eb"/>
  <circle cx="166.42" cy="200.00" r="2.5" fill="#2563eb"/>
  <circle cx="167.74" cy="250.36" r="2.5" fill="#2563eb"/>
  <circle cx="169.06" cy="250.03" r="2.5" fill="#2563eb"/>
  <circle cx="170.38" cy="300.01" r="2.5" fill="#2563eb"/>
  <circle cx="171.70" cy="300.01" r="2.5" fill="#2563eb"/>
  <circle cx="173.02" cy="250.44" r="2.5" fill="#2563eb"/>
  <circle cx="174.34" cy="300.01" r="2.5" fill="#2563eb"/>
  <circle cx="175.66" cy="250.03" r="2.5" fill="#2563eb"/>
  <circle cx="176.98" cy="250.03" r="2.5" fill="#2563eb"/>
  <circle cx="178.30" cy="249.99" r="2.5" fill="#2563eb"/>
  <circle cx="179.62" cy="250.49" r="2.5" fill="#2563eb"/>
  <circle cx="180.94" cy="250.03" r="2.5" fill="#2563eb"/>
  <circle cx="182.26" cy="200.04" r="2.5" fill="#2563eb"/>
  <circle cx="183.58" cy="300.01" r="2.5" fill="#2563eb"/>
  <circle cx="184.91" cy="250.03" r="2.5" fill="#2563eb"/>
  <circle cx="186.23" cy="300.01" r="2.5" fill="#2563eb"/>
  <circle cx="187.55" cy="250.11" r="2.5" fill="#2563eb"/>
  <circle cx="188.87" cy="300.01" r="2.5" fill="#2563eb"/>
  <circle cx="190.19" cy="250.03" r="2.5" fill="#2563eb"/>
  <circle cx="191.51" cy="250.03" r="2.5" fill="#2563eb"/>
  <circle cx="192.83" cy="199.92" r="2.5" fill="#2563eb"/>
  <circle cx="194.15" cy="250.03" r="2.5" fill="#2563eb"/>
  <circle cx="195.47" cy="250.03" r="2.5" fill="#2563eb"/>
  <circle cx="196.79" cy="250.03" r="2.5" fill="#2563eb"/>
  <circle cx="198.11" cy="254.36" r="2.5" fill="#2563eb"/>
  <circle cx="199.43" cy="300.01" r="2.5" fill="#2563eb"/>
  <circle cx="200.75" cy="299.97" r="2.5" fill="#2563eb"/>
  <circle cx="202.08" cy="250.36" r="2.5" fill="#2563eb"/>
  <circle cx="203.40" cy="299.97" r="2.5" fill="#2563eb"/>
  <circle cx="204.72" cy="250.03" r="2.5" fill="#2563eb"/>
  <circle cx="206.04" cy="250.03" r="2.5" fill="#2563eb"/>
  <circle cx="207.36" cy="250.03" r="2.5" fill="#2563eb"/>
  <circle cx="208.68" cy="250.03" r="2.5" fill="#2563eb"/>
  <circle cx="210.00" cy="249.99" r="2.5" fill="#2563eb"/>
  <circle cx="211.32" cy="200.00" r="2.5" fill="#2563eb"/>
  <circle cx="212.64" cy="299.93" r="2.5" fill="#2563eb"/>
  <circle cx="213.96" cy="300.01" r="2.5" fill="#2563eb"/>
  <circle cx="215.28" cy="299.97" r="2.5" fill="#2563eb"/>
  <circle cx="216.60" cy="249.94" r="2.5" fill="#2563eb"/>
  <circle cx="217.92" cy="249.99" r="2.5" fill="#2563eb"/>
  <circle cx="219.25" cy="249.82" r="2.5" fill="#2563eb"/>
  <circle cx="220.57" cy="249.94" r="2.5" fill="#2563eb"/>
  <circle cx="221.89" cy="250.28" r="2.5" fill="#2563eb"/>
  <circle cx="223.21" cy="207.00" r="2.5" fill="#2563eb"/>
  <circle cx="224.53" cy="250.03" r="2.5" fill="#2563eb"/>
  <circle cx="225.85" cy="250.32" r="2.5" fill="#2563eb"/>
  <circle cx="227.17" cy="250.40" r="2.5" fill="#2563eb"/>
  <circle cx="228.49" cy="300.93" r="2.5" fill="#2563eb"/>
  <circle cx="229.81" cy="300.01" r="2.5" fill="#2563eb"/>
  <circle cx="231.13" cy="300.10" r="2.5" fill="#2563eb"/>
  <circle cx="232.45" cy="249.94" r="2.5" fill="#2563eb"/>
  <circle cx="233.77" cy="249.99" r="2.5" fill="#2563eb"/>
  <circle cx="235.09" cy="250.07" r="2.5" fill="#2563eb"/>
  <circle cx="236.42" cy="249.99" r="2.5" fill="#2563eb"/>
  <circle cx="237.74" cy="250.03" r="2.5" fill="#2563eb"/>
  <circle cx="239.06" cy="249.94" r="2.5" fill="#2563eb"/>
  <circle cx="240.38" cy="200.00" r="2.5" fill="#2563eb"/>
  <circle cx="241.70" cy="300.39" r="2.5" fill="#2563eb"/>
  <circle cx="243.02" cy="300.01" r="2.5" fill="#2563eb"/>
  <circle cx="244.34" cy="300.01" r="2.5" fill="#2563eb"/>
  <circle cx="245.66" cy="250.44" r="2.5" fill="#2563eb"/>
  <circle cx="246.98" cy="300.39" r="2.5" fill="#2563eb"/>
  <circle cx="248.30" cy="249.86" r="2.5" fill="#2563eb"/>
  <circle cx="249.62" cy="250.11" r="2.5" fill="#2563eb"/>
  <circle cx="250.94" cy="201.46" r="2.5" fill="#2563eb"/>
  <circle cx="252.26" cy="300.01" r="2.5" fill="#2563eb"/>
  <circle cx="253.58" cy="200.83" r="2.5" fill="#2563eb"/>
  <circle cx="254.91" cy="250.03" r="2.5" fill="#2563eb"/>
  <circle cx="256.23" cy="249.99" r="2.5" fill="#2563eb"/>
  <circle cx="257.55" cy="300.26" r="2.5" fill="#2563eb"/>
  <circle cx="258.87" cy="300.01" r="2.5" fill="#2563eb"/>
  <circle cx="260.19" cy="300.01" r="2.5" fill="#2563eb"/>
  <circle cx="261.51" cy="250.03" r="2.5" fill="#2563eb"/>
  <circle cx="262.83" cy="250.03" r="2.5" fill="#2563eb"/>
  <circle cx="264.15" cy="250.03" r="2.5" fill="#2563eb"/>
  <circle cx="265.47" cy="250.03" r="2.5" fill="#2563eb"/>
  <circle cx="266.79" cy="249.99" r="2.5" fill="#2563eb"/>
  <circle cx="268.11" cy="250.03" r="2.5" fill="#2563eb"/>
  <circle cx="269.43" cy="200.00" r="2.5" fill="#2563eb"/>
  <circle cx="270.75" cy="300.26" r="2.5" fill="#2563eb"/>
  <circle cx="272.08" cy="249.99" r="2.5" fill="#2563eb"/>
  <circle cx="273.40" cy="300.01" r="2.5" fill="#2563eb"/>
  <circle cx="274.72" cy="249.94" r="2.5" fill="#2563eb"/>
  <circle cx="276.04" cy="250.03" r="2.5" fill="#2563eb"/>
  <circle cx="277.36" cy="250.03" r="2.5" fill="#2563eb"/>
  <circle cx="278.68" cy="250.03" r="2.5" fill="#2563eb"/>
  <circle cx="280.00" cy="200.04" r="2.5" fill="#2563eb"/>
  <circle cx="281.32" cy="300.01" r="2.5" fill="#2563eb"/>
  <circle cx="282.64" cy="249.90" r="2.5" fill="#2563eb"/>
  <circle cx="283.96" cy="300.01" r="2.5" fill="#2563eb"/>
  <circle cx="285.28" cy="300.01" r="2.5" fill="#2563eb"/>
  <circle cx="286.60" cy="300.06" r="2.5" fill="#2563eb"/>
  <circle cx="287.92" cy="300.01" r="2.5" fill="#2563eb"/>
  <circle cx="289.25" cy="300.01" r="2.5" fill="#2563eb"/>
  <circle cx="290.57" cy="243.95" r="2.5" fill="#2563eb"/>
  <circle cx="291.89" cy="249.94" r="2.5" fill="#2563eb"/>
  <circle cx="293.21" cy="299.97" r="2.5" fill="#2563eb"/>
  <circle cx="294.53" cy="300.01" r="2.5" fill="#2563eb"/>
  <circle cx="295.85" cy="300.01" r="2.5" fill="#2563eb"/>
  <circle cx="297.17" cy="250.03" r="2.5" fill="#2563eb"/>
  <circle cx="298.49" cy="300.01" r="2.5" fill="#2563eb"/>
  <circle cx="299.81" cy="300.01" r="2.5" fill="#2563eb"/>
  <circle cx="301.13" cy="299.97" r="2.5" fill="#2563eb"/>
  <circle cx="302.45" cy="249.99" r="2.5" fill="#2563eb"/>
  <circle cx="303.77" cy="300.01" r="2.5" fill="#2563eb"/>
  <circle cx="305.09" cy="299.93" r="2.5" fill="#2563eb"/>
  <circle cx="306.42" cy="300.01" r="2.5" fill="#2563eb"/>
  <circle cx="307.74" cy="299.93" r="2.5" fill="#2563eb"/>
  <circle cx="309.06" cy="300.01" r="2.5" fill="#2563eb"/>
  <circle cx="310.38" cy="300.01" r="2.5" fill="#2563eb"/>
  <circle cx="311.70" cy="299.89" r="2.5" fill="#2563eb"/>
  <circle cx="313.02" cy="299.97" r="2.5" fill="#2563eb"/>
  <circle cx="314.34" cy="250.03" r="2.5" fill="#2563eb"/>
  <circle cx="315.66" cy="299.93" r="2.5" fill="#2563eb"/>
  <circle cx="316.98" cy="299.89" r="2.5" fill="#2563eb"/>
  <circle cx="318.30" cy="299.97" r="2.5" fill="#2563eb"/>
  <circle cx="319.62" cy="249.94" r="2.5" fill="#2563eb"/>
  <circle cx="320.94" cy="300.01" r="2.5" fill="#2563eb"/>
  <circle cx="322.26" cy="300.01" r="2.5" fill="#2563eb"/>
  <circle cx="323.58" cy="299.97" r="2.5" fill="#2563eb"/>
  <circle cx="324.91" cy="249.99" r="2.5" fill="#2563eb"/>
  <circle cx="326.23" cy="299.97" r="2.5" fill="#2563eb"/>
  <circle cx="327.55" cy="299.97" r="2.5" fill="#2563eb"/>
  <circle cx="328.87" cy="300.06" r="2.5" fill="#2563eb"/>
  <circle cx="330.19" cy="300.06" r="2.5" fill="#2563eb"/>
  <circle cx="331.51" cy="299.93" r="2.5" fill="#2563eb"/>
  <circle cx="332.83" cy="300.01" r="2.5" fill="#2563eb"/>
  <circle cx="334.15" cy="300.01" r="2.5" fill="#2563eb"/>
  <circle cx="335.47" cy="299.93" r="2.5" fill="#2563eb"/>
  <circle cx="336.79" cy="300.01" r="2.5" fill="#2563eb"/>
  <circle cx="338.11" cy="300.01" r="2.5" fill="#2563eb"/>
  <circle cx="339.43" cy="299.97" r="2.5" fill="#2563eb"/>
  <circle cx="340.75" cy="300.01" r="2.5" fill="#2563eb"/>
  <circle cx="342.08" cy="300.01" r="2.5" fill="#2563eb"/>
  <circle cx="343.40" cy="300.01" r="2.5" fill="#2563eb"/>
  <circle cx="344.72" cy="300.01" r="2.5" fill="#2563eb"/>
  <circle cx="346.04" cy="249.86" r="2.5" fill="#2563eb"/>
  <circle cx="347.36" cy="300.01" r="2.5" fill="#2563eb"/>
  <circle cx="348.68" cy="300.10" r="2.5" fill="#2563eb"/>
  <circle cx="350.00" cy="299.93" r="2.5" fill="#2563eb"/>
  <circle cx="351.32" cy="300.01" r="2.5" fill="#2563eb"/>
  <circle cx="352.64" cy="299.93" r="2.5" fill="#2563eb"/>
  <circle cx="353.96" cy="300.01" r="2.5" fill="#2563eb"/>
  <circle cx="355.28" cy="300.01" r="2.5" fill="#2563eb"/>
  <circle cx="356.60" cy="300.01" r="2.5" fill="#2563eb"/>
  <circle cx="357.92" cy="300.01" r="2.5" fill="#2563eb"/>
  <circle cx="359.25" cy="300.01" r="2.5" fill="#2563eb"/>
  <circle cx="360.57" cy="299.97" r="2.5" fill="#2563eb"/>
  <circle cx="361.89" cy="300.01" r="2.5" fill="#2563eb"/>
  <circle cx="363.21" cy="300.01" r="2.5" fill="#2563eb"/>
  <circle cx="364.53" cy="300.01" r="2.5" fill="#2563eb"/>
  <circle cx="365.85" cy="300.01" r="2.5" fill="#2563eb"/>
  <circle cx="367.17" cy="250.03" r="2.5" fill="#2563eb"/>
  <circle cx="368.49" cy="300.01" r="2.5" fill="#2563eb"/>
  <circle cx="369.81" cy="300.01" r="2.5" fill="#2563eb"/>
  <circle cx="371.13" cy="299.97" r="2.5" fill="#2563eb"/>
  <circle cx="372.45" cy="300.01" r="2.5" fill="#2563eb"/>
  <circle cx="373.77" cy="300.01" r="2.5" fill="#2563eb"/>
  <circle cx="375.09" cy="299.97" r="2.5" fill="#2563eb"/>
  <circle cx="376.42" cy="299.97" r="2.5" fill="#2563eb"/>
  <circle cx="377.74" cy="300.01" r="2.5" fill="#2563eb"/>
  <circle cx="379.06" cy="299.97" r="2.5" fill="#2563eb"/>
  <circle cx="380.38" cy="300.01" r="2.5" fill="#2563eb"/>
  <circle cx="381.70" cy="299.93" r="2.5" fill="#2563eb"/>
  <circle cx="383.02" cy="300.01" r="2.5" fill="#2563eb"/>
  <circle cx="384.34" cy="250.03" r="2.5" fill="#2563eb"/>
  <circle cx="385.66" cy="300.01" r="2.5" fill="#2563eb"/>
  <circle cx="386.98" cy="300.01" r="2.5" fill="#2563eb"/>
  <circle cx="388.30" cy="300.01" r="2.5" fill="#2563eb"/>
  <circle cx="389.62" cy="300.01" r="2.5" fill="#2563eb"/>
  <circle cx="390.94" cy="300.01" r="2.5" fill="#2563eb"/>
  <circle cx="392.26" cy="299.89" r="2.5" fill="#2563eb"/>
  <circle cx="393.58" cy="300.01" r="2.5" fill="#2563eb"/>
  <circle cx="394.91" cy="300.01" r="2.5" fill="#2563eb"/>
  <circle cx="396.23" cy="250.07" r="2.5" fill="#2563eb"/>
  <circle cx="397.55" cy="300.01" r="2.5" fill="#2563eb"/>
  <circle cx="398.87" cy="299.93" r="2.5" fill="#2563eb"/>
  <circle cx="400.19" cy="300.01" r="2.5" fill="#2563eb"/>
  <circle cx="401.51" cy="299.97" r="2.5" fill="#2563eb"/>
  <circle cx="402.83" cy="299.97" r="2.5" fill="#2563eb"/>
  <circle cx="404.15" cy="299.97" r="2.5" fill="#2563eb"/>
  <circle cx="405.47" cy="250.03" r="2.5" fill="#2563eb"/>
  <circle cx="406.79" cy="300.01" r="2.5" fill="#2563eb"/>
  <circle cx="408.11" cy="300.01" r="2.5" fill="#2563eb"/>
  <circle cx="409.43" cy="300.01" r="2.5" fill="#2563eb"/>
  <circle cx="410.75" cy="300.01" r="2.5" fill="#2563eb"/>
  <circle cx="412.08" cy="299.97" r="2.5" fill="#2563eb"/>
  <circle cx="413.40" cy="300.01" r="2.5" fill="#2563eb"/>
  <circle cx="414.72" cy="299.97" r="2.5" fill="#2563eb"/>
  <circle cx="416.04" cy="300.01" r="2.5" fill="#2563eb"/>
  <circle cx="417.36" cy="299.97" r="2.5" fill="#2563eb"/>
  <circle cx="418.68" cy="249.90" r="2.5" fill="#2563eb"/>
  <circle cx="420.00" cy="300.01" r="2.5" fill="#2563eb"/>
  <circle cx="421.32" cy="300.01" r="2.5" fill="#2563eb"/>
  <circle cx="422.64" cy="299.89" r="2.5" fill="#2563eb"/>
  <circle cx="423.96" cy="299.97" r="2.5" fill="#2563eb"/>
  <circle cx="425.28" cy="299.97" r="2.5" fill="#2563eb"/>
  <circle cx="426.60" cy="249.99" r="2.5" fill="#2563eb"/>
  <circle cx="427.92" cy="299.97" r="2.5" fill="#2563eb"/>
  <circle cx="429.25" cy="299.89" r="2.5" fill="#2563eb"/>
  <circle cx="430.57" cy="300.01" r="2.5" fill="#2563eb"/>
  <circle cx="431.89" cy="299.97" r="2.5" fill="#2563eb"/>
  <circle cx="433.21" cy="299.97" r="2.5" fill="#2563eb"/>
  <circle cx="434.53" cy="300.01" r="2.5" fill="#2563eb"/>
  <circle cx="435.85" cy="299.97" r="2.5" fill="#2563eb"/>
  <circle cx="437.17" cy="249.99" r="2.5" fill="#2563eb"/>
  <circle cx="438.49" cy="299.97" r="2.5" fill="#2563eb"/>
  <circle cx="439.81" cy="299.97" r="2.5" fill="#2563eb"/>
  <circle cx="441.13" cy="300.06" r="2.5" fill="#2563eb"/>
  <circle cx="442.45" cy="300.06" r="2.5" fill="#2563eb"/>
  <circle cx="443.77" cy="249.94" r="2.5" fill="#2563eb"/>
  <circle cx="445.09" cy="300.01" r="2.5" fill="#2563eb"/>
  <circle cx="446.42" cy="299.93" r="2.5" fill="#2563eb"/>
  <circle cx="447.74" cy="300.01" r="2.5" fill="#2563eb"/>
  <circle cx="449.06" cy="300.01" r="2.5" fill="#2563eb"/>
  <circle cx="450.38" cy="249.99" r="2.5" fill="#2563eb"/>
  <circle cx="451.70" cy="300.01" r="2.5" fill="#2563eb"/>
  <circle cx="453.02" cy="300.01" r="2.5" fill="#2563eb"/>
  <circle cx="454.34" cy="300.01" r="2.5" fill="#2563eb"/>
  <circle cx="455.66" cy="299.93" r="2.5" fill="#2563eb"/>
  <circle cx="456.98" cy="299.93" r="2.5" fill="#2563eb"/>
  <circle cx="458.30" cy="300.01" r="2.5" fill="#2563eb"/>
  <circle cx="459.62" cy="300.01" r="2.5" fill="#2563eb"/>
  <circle cx="460.94" cy="249.94" r="2.5" fill="#2563eb"/>
  <circle cx="462.26" cy="299.97" r="2.5" fill="#2563eb"/>
  <circle cx="463.58" cy="299.97" r="2.5" fill="#2563eb"/>
  <circle cx="464.91" cy="300.01" r="2.5" fill="#2563eb"/>
  <circle cx="466.23" cy="300.01" r="2.5" fill="#2563eb"/>
  <circle cx="467.55" cy="300.01" r="2.5" fill="#2563eb"/>
  <circle cx="468.87" cy="249.99" r="2.5" fill="#2563eb"/>
  <circle cx="470.19" cy="300.01" r="2.5" fill="#2563eb"/>
  <circle cx="471.51" cy="300.01" r="2.5" fill="#2563eb"/>
  <circle cx="472.83" cy="300.01" r="2.5" fill="#2563eb"/>
  <circle cx="474.15" cy="250.03" r="2.5" fill="#2563eb"/>
  <circle cx="475.47" cy="300.01" r="2.5" fill="#2563eb"/>
  <circle cx="476.79" cy="300.01" r="2.5" fill="#2563eb"/>
  <circle cx="478.11" cy="300.01" r="2.5" fill="#2563eb"/>
  <circle cx="479.43" cy="299.97" r="2.5" fill="#2563eb"/>
  <circle cx="480.75" cy="300.01" r="2.5" fill="#2563eb"/>
  <circle cx="482.08" cy="300.01" r="2.5" fill="#2563eb"/>
  <circle cx="483.40" cy="299.97" r="2.5" fill="#2563eb"/>
  <circle cx="484.72" cy="299.97" r="2.5" fill="#2563eb"/>
  <circle cx="486.04" cy="300.01" r="2.5" fill="#2563eb"/>
  <circle cx="487.36" cy="300.01" r="2.5" fill="#2563eb"/>
  <circle cx="488.68" cy="299.97" r="2.5" fill="#2563eb"/>
  <circle cx="490.00" cy="299.93" r="2.5" fill="#2563eb"/>
  <circle cx="491.32" cy="300.01" r="2.5" fill="#2563eb"/>
  <circle cx="492.64" cy="300.06" r="2.5" fill="#2563eb"/>
  <circle cx="493.96" cy="299.97" r="2.5" fill="#2563eb"/>
  <circle cx="495.28" cy="300.01" r="2.5" fill="#2563eb"/>
  <circle cx="496.60" cy="250.03" r="2.5" fill="#2563eb"/>
  <circle cx="497.92" cy="250.03" r="2.5" fill="#2563eb"/>
  <circle cx="499.25" cy="299.93" r="2.5" fill="#2563eb"/>
  <circle cx="500.57" cy="299.97" r="2.5" fill="#2563eb"/>
  <circle cx="501.89" cy="300.01" r="2.5" fill="#2563eb"/>
  <circle cx="503.21" cy="300.01" r="2.5" fill="#2563eb"/>
  <circle cx="504.53" cy="300.06" r="2.5" fill="#2563eb"/>
  <circle cx="505.85" cy="300.01" r="2.5" fill="#2563eb"/>
  <circle cx="507.17" cy="299.93" r="2.5" fill="#2563eb"/>
  <circle cx="508.49" cy="300.01" r="2.5" fill="#2563eb"/>
  <circle cx="509.81" cy="300.01" r="2.5" fill="#2563eb"/>
  <circle cx="511.13" cy="299.97" r="2.5" fill="#2563eb"/>
  <circle cx="512.45" cy="299.97" r="2.5" fill="#2563eb"/>
  <circle cx="513.77" cy="300.01" r="2.5" fill="#2563eb"/>
  <circle cx="515.09" cy="250.03" r="2.5" fill="#2563eb"/>
  <circle cx="516.42" cy="300.01" r="2.5" fill="#2563eb"/>
  <circle cx="517.74" cy="300.01" r="2.5" fill="#2563eb"/>
  <circle cx="519.06" cy="300.01" r="2.5" fill="#2563eb"/>
  <circle cx="520.38" cy="299.97" r="2.5" fill="#2563eb"/>
  <circle cx="521.70" cy="300.01" r="2.5" fill="#2563eb"/>
  <circle cx="523.02" cy="299.97" r="2.5" fill="#2563eb"/>
  <circle cx="524.34" cy="300.01" r="2.5" fill="#2563eb"/>
  <circle cx="525.66" cy="299.97" r="2.5" fill="#2563eb"/>
  <circle cx="526.98" cy="299.97" r="2.5" fill="#2563eb"/>
  <circle cx="528.30" cy="299.93" r="2.5" fill="#2563eb"/>
  <circle cx="529.62" cy="300.01" r="2.5" fill="#2563eb"/>
  <circle cx="530.94" cy="300.01" r="2.5" fill="#2563eb"/>
  <circle cx="532.26" cy="299.89" r="2.5" fill="#2563eb"/>
  <circle cx="533.58" cy="299.97" r="2.5" fill="#2563eb"/>
  <circle cx="534.91" cy="299.97" r="2.5" fill="#2563eb"/>
  <circle cx="536.23" cy="300.06" r="2.5" fill="#2563eb"/>
  <circle cx="537.55" cy="249.90" r="2.5" fill="#2563eb"/>
  <circle cx="538.87" cy="299.89" r="2.5" fill="#2563eb"/>
  <circle cx="540.19" cy="300.01" r="2.5" fill="#2563eb"/>
  <circle cx="541.51" cy="299.97" r="2.5" fill="#2563eb"/>
  <circle cx="542.83" cy="299.97" r="2.5" fill="#2563eb"/>
  <circle cx="544.15" cy="299.97" r="2.5" fill="#2563eb"/>
  <circle cx="545.47" cy="300.01" r="2.5" fill="#2563eb"/>
  <circle cx="546.79" cy="300.01" r="2.5" fill="#2563eb"/>
  <circle cx="548.11" cy="299.97" r="2.5" fill="#2563eb"/>
  <circle cx="549.43" cy="299.97" r="2.5" fill="#2563eb"/>
  <circle cx="550.75" cy="299.97" r="2.5" fill="#2563eb"/>
  <circle cx="552.08" cy="250.03" r="2.5" fill="#2563eb"/>
  <circle cx="553.40" cy="299.93" r="2.5" fill="#2563eb"/>
  <circle cx="554.72" cy="300.01" r="2.5" fill="#2563eb"/>
  <circle cx="556.04" cy="300.01" r="2.5" fill="#2563eb"/>
  <circle cx="557.36" cy="299.93" r="2.5" fill="#2563eb"/>
  <circle cx="558.68" cy="300.01" r="2.5" fill="#2563eb"/>
  <circle cx="560.00" cy="300.01" r="2.5" fill="#2563eb"/>
  <circle cx="561.32" cy="299.97" r="2.5" fill="#2563eb"/>
  <circle cx="562.64" cy="300.01" r="2.5" fill="#2563eb"/>
  <circle cx="563.96" cy="300.01" r="2.5" fill="#2563eb"/>
  <circle cx="565.28" cy="300.06" r="2.5" fill="#2563eb"/>
  <circle cx="566.60" cy="300.01" r="2.5" fill="#2563eb"/>
  <circle cx="567.92" cy="299.97" r="2.5" fill="#2563eb"/>
  <circle cx="569.25" cy="299.89" r="2.5" fill="#2563eb"/>
  <circle cx="570.57" cy="300.01" r="2.5" fill="#2563eb"/>
  <circle cx="571.89" cy="300.01" r="2.5" fill="#2563eb"/>
  <circle cx="573.21" cy="249.94" r="2.5" fill="#2563eb"/>
  <circle cx="574.53" cy="249.94" r="2.5" fill="#2563eb"/>
  <circle cx="575.85" cy="300.01" r="2.5" fill="#2563eb"/>
  <circle cx="577.17" cy="300.01" r="2.5" fill="#2563eb"/>
  <circle cx="578.49" cy="300.01" r="2.5" fill="#2563eb"/>
  <circle cx="579.81" cy="300.01" r="2.5" fill="#2563eb"/>
  <circle cx="581.13" cy="299.97" r="2.5" fill="#2563eb"/>
  <circle cx="582.45" cy="250.03" r="2.5" fill="#2563eb"/>
  <circle cx="583.77" cy="300.01" r="2.5" fill="#2563eb"/>
  <circle cx="585.09" cy="300.01" r="2.5" fill="#2563eb"/>
  <circle cx="586.42" cy="300.01" r="2.5" fill="#2563eb"/>
  <circle cx="587.74" cy="300.01" r="2.5" fill="#2563eb"/>
  <circle cx="589.06" cy="250.03" r="2.5" fill="#2563eb"/>
  <circle cx="590.38" cy="249.99" r="2.5" fill="#2563eb"/>
  <circle cx="591.70" cy="300.01" r="2.5" fill="#2563eb"/>
  <circle cx="593.02" cy="299.97" r="2.5" fill="#2563eb"/>
  <circle cx="594.34" cy="300.01" r="2.5" fill="#2563eb"/>
  <circle cx="595.66" cy="299.97" r="2.5" fill="#2563eb"/>
  <circle cx="596.98" cy="300.01" r="2.5" fill="#2563eb"/>
  <circle cx="598.30" cy="299.97" r="2.5" fill="#2563eb"/>
  <circle cx="599.62" cy="299.97" r="2.5" fill="#2563eb"/>
  <circle cx="600.94" cy="299.97" r="2.5" fill="#2563eb"/>
  <circle cx="602.26" cy="300.06" r="2.5" fill="#2563eb"/>
  <circle cx="603.58" cy="249.99" r="2.5" fill="#2563eb"/>
  <circle cx="604.91" cy="300.01" r="2.5" fill="#2563eb"/>
  <circle cx="606.23" cy="250.03" r="2.5" fill="#2563eb"/>
  <circle cx="607.55" cy="249.94" r="2.5" fill="#2563eb"/>
  <circle cx="608.87" cy="249.99" r="2.5" fill="#2563eb"/>
  <circle cx="610.19" cy="300.01" r="2.5" fill="#2563eb"/>
  <circle cx="611.51" cy="300.06" r="2.5" fill="#2563eb"/>
  <circle cx="612.83" cy="300.01" r="2.5" fill="#2563eb"/>
  <circle cx="614.15" cy="299.97" r="2.5" fill="#2563eb"/>
  <circle cx="615.47" cy="299.97" r="2.5" fill="#2563eb"/>
  <circle cx="616.79" cy="300.01" r="2.5" fill="#2563eb"/>
  <circle cx="618.11" cy="299.93" r="2.5" fill="#2563eb"/>
  <circle cx="619.43" cy="299.89" r="2.5" fill="#2563eb"/>
  <circle cx="620.75" cy="299.89" r="2.5" fill="#2563eb"/>
  <circle cx="622.08" cy="299.89" r="2.5" fill="#2563eb"/>
  <circle cx="623.40" cy="299.89" r="2.5" fill="#2563eb"/>
  <circle cx="624.72" cy="299.85" r="2.5" fill="#2563eb"/>
  <circle cx="626.04" cy="299.85" r="2.5" fill="#2563eb"/>
  <circle cx="627.36" cy="299.89" r="2.5" fill="#2563eb"/>
  <circle cx="628.68" cy="299.81" r="2.5" fill="#2563eb"/>
  <circle cx="630.00" cy="299.81" r="2.5" fill="#2563eb"/>
  <circle cx="631.32" cy="299.81" r="2.5" fill="#2563eb"/>
  <circle cx="632.64" cy="299.76" r="2.5" fill="#2563eb"/>
  <circle cx="633.96" cy="299.76" r="2.5" fill="#2563eb"/>
  <circle cx="635.28" cy="299.76" r="2.5" fill="#2563eb"/>
  <circle cx="636.60" cy="299.72" r="2.5" fill="#2563eb"/>
  <circle cx="637.92" cy="299.68" r="2.5" fill="#2563eb"/>
  <circle cx="639.25" cy="299.60" r="2.5" fill="#2563eb"/>
  <circle cx="640.57" cy="299.60" r="2.5" fill="#2563eb"/>
  <circle cx="641.89" cy="299.60" r="2.5" fill="#2563eb"/>
  <circle cx="643.21" cy="299.56" r="2.5" fill="#2563eb"/>
  <circle cx="644.53" cy="299.47" r="2.5" fill="#2563eb"/>
  <circle cx="645.85" cy="299.43" r="2.5" fill="#2563eb"/>
  <circle cx="647.17" cy="299.43" r="2.5" fill="#2563eb"/>
  <circle cx="648.49" cy="299.39" r="2.5" fill="#2563eb"/>
  <circle cx="649.81" cy="299.47" r="2.5" fill="#2563eb"/>
  <circle cx="651.13" cy="259.82" r="2.5" fill="#2563eb"/>
  <circle cx="652.45" cy="338.96" r="2.5" fill="#2563eb"/>
  <circle cx="653.77" cy="299.31" r="2.5" fill="#2563eb"/>
  <circle cx="655.09" cy="299.31" r="2.5" fill="#2563eb"/>
  <circle cx="656.42" cy="299.26" r="2.5" fill="#2563eb"/>
  <circle cx="657.74" cy="299.68" r="2.5" fill="#2563eb"/>
  <circle cx="659.06" cy="299.68" r="2.5" fill="#2563eb"/>
  <circle cx="660.38" cy="299.68" r="2.5" fill="#2563eb"/>
  <circle cx="661.70" cy="299.64" r="2.5" fill="#2563eb"/>
  <circle cx="663.02" cy="299.14" r="2.5" fill="#2563eb"/>
  <circle cx="664.34" cy="299.14" r="2.5" fill="#2563eb"/>
  <circle cx="665.66" cy="299.10" r="2.5" fill="#2563eb"/>
  <circle cx="666.98" cy="299.10" r="2.5" fill="#2563eb"/>
  <circle cx="668.30" cy="299.10" r="2.5" fill="#2563eb"/>
  <circle cx="669.62" cy="248.07" r="2.5" fill="#2563eb"/>
  <circle cx="670.94" cy="299.06" r="2.5" fill="#2563eb"/>
  <circle cx="672.26" cy="299.06" r="2.5" fill="#2563eb"/>
  <circle cx="673.58" cy="299.06" r="2.5" fill="#2563eb"/>
  <circle cx="674.91" cy="299.06" r="2.5" fill="#2563eb"/>
  <circle cx="676.23" cy="299.06" r="2.5" fill="#2563eb"/>
  <circle cx="677.55" cy="298.97" r="2.5" fill="#2563eb"/>
  <circle cx="678.87" cy="298.97" r="2.5" fill="#2563eb"/>
  <circle cx="680.19" cy="298.93" r="2.5" fill="#2563eb"/>
  <circle cx="681.51" cy="298.97" r="2.5" fill="#2563eb"/>
  <circle cx="682.83" cy="298.93" r="2.5" fill="#2563eb"/>
  <circle cx="684.15" cy="298.89" r="2.5" fill="#2563eb"/>
  <circle cx="685.47" cy="298.89" r="2.5" fill="#2563eb"/>
  <circle cx="686.79" cy="298.89" r="2.5" fill="#2563eb"/>
  <circle cx="688.11" cy="298.89" r="2.5" fill="#2563eb"/>
  <circle cx="689.43" cy="247.78" r="2.5" fill="#2563eb"/>
  <circle cx="690.75" cy="298.89" r="2.5" fill="#2563eb"/>
  <circle cx="692.08" cy="298.89" r="2.5" fill="#2563eb"/>
  <circle cx="693.40" cy="298.85" r="2.5" fill="#2563eb"/>
  <circle cx="694.72" cy="298.85" r="2.5" fill="#2563eb"/>
  <circle cx="696.04" cy="298.81" r="2.5" fill="#2563eb"/>
  <circle cx="697.36" cy="298.81" r="2.5" fill="#2563eb"/>
  <circle cx="698.68" cy="298.81" r="2.5" fill="#2563eb"/>
  <circle cx="700.00" cy="298.81" r="2.5" fill="#2563eb"/>
  <circle cx="701.32" cy="298.81" r="2.5" fill="#2563eb"/>
  <circle cx="702.64" cy="298.81" r="2.5" fill="#2563eb"/>
  <circle cx="703.96" cy="298.81" r="2.5" fill="#2563eb"/>
  <circle cx="705.28" cy="298.81" r="2.5" fill="#2563eb"/>
  <circle cx="706.60" cy="298.81" r="2.5" fill="#2563eb"/>
  <circle cx="707.92" cy="298.72" r="2.5" fill="#2563eb"/>
  <circle cx="709.25" cy="247.45" r="2.5" fill="#2563eb"/>
  <circle cx="710.57" cy="247.45" r="2.5" fill="#2563eb"/>
  <circle cx="711.89" cy="298.72" r="2.5" fill="#2563eb"/>
  <circle cx="713.21" cy="298.72" r="2.5" fill="#2563eb"/>
  <circle cx="714.53" cy="298.72" r="2.5" fill="#2563eb"/>
  <circle cx="715.85" cy="298.72" r="2.5" fill="#2563eb"/>
  <circle cx="717.17" cy="298.72" r="2.5" fill="#2563eb"/>
  <circle cx="718.49" cy="298.72" r="2.5" fill="#2563eb"/>
  <circle cx="719.81" cy="247.36" r="2.5" fill="#2563eb"/>
  <circle cx="721.13" cy="298.68" r="2.5" fill="#2563eb"/>
  <circle cx="722.45" cy="247.36" r="2.5" fill="#2563eb"/>
  <circle cx="723.77" cy="247.36" r="2.5" fill="#2563eb"/>
  <circle cx="725.09" cy="247.36" r="2.5" fill="#2563eb"/>
  <circle cx="726.42" cy="298.68" r="2.5" fill="#2563eb"/>
  <circle cx="727.74" cy="298.68" r="2.5" fill="#2563eb"/>
  <circle cx="729.06" cy="298.68" r="2.5" fill="#2563eb"/>
  <circle cx="730.38" cy="298.68" r="2.5" fill="#2563eb"/>
  <circle cx="731.70" cy="298.68" r="2.5" fill="#2563eb"/>
  <circle cx="733.02" cy="341.67" r="2.5" fill="#2563eb"/>
  <circle cx="734.34" cy="307.01" r="2.5" fill="#2563eb"/>
  <circle cx="735.66" cy="298.68" r="2.5" fill="#2563eb"/>
  <circle cx="736.98" cy="298.68" r="2.5" fill="#2563eb"/>
  <circle cx="738.30" cy="298.68" r="2.5" fill="#2563eb"/>
  <circle cx="739.62" cy="247.36" r="2.5" fill="#2563eb"/>
  <circle cx="740.94" cy="298.64" r="2.5" fill="#2563eb"/>
  <circle cx="742.26" cy="247.36" r="2.5" fill="#2563eb"/>
  <circle cx="743.58" cy="247.28" r="2.5" fill="#2563eb"/>
  <circle cx="744.91" cy="247.20" r="2.5" fill="#2563eb"/>
  <circle cx="746.23" cy="298.60" r="2.5" fill="#2563eb"/>
  <circle cx="747.55" cy="298.60" r="2.5" fill="#2563eb"/>
  <circle cx="748.87" cy="247.03" r="2.5" fill="#2563eb"/>
  <circle cx="750.19" cy="298.51" r="2.5" fill="#2563eb"/>
  <circle cx="751.51" cy="298.51" r="2.5" fill="#2563eb"/>
  <circle cx="752.83" cy="298.51" r="2.5" fill="#2563eb"/>
  <circle cx="754.15" cy="298.51" r="2.5" fill="#2563eb"/>
  <circle cx="755.47" cy="298.51" r="2.5" fill="#2563eb"/>
  <circle cx="756.79" cy="298.51" r="2.5" fill="#2563eb"/>
  <circle cx="758.11" cy="298.51" r="2.5" fill="#2563eb"/>
  <circle cx="759.43" cy="298.51" r="2.5" fill="#2563eb"/>
  <circle cx="760.75" cy="298.51" r="2.5" fill="#2563eb"/>
  <circle cx="762.08" cy="298.51" r="2.5" fill="#2563eb"/>
  <circle cx="763.40" cy="298.51" r="2.5" fill="#2563eb"/>
  <circle cx="764.72" cy="298.51" r="2.5" fill="#2563eb"/>
  <circle cx="766.04" cy="298.51" r="2.5" fill="#2563eb"/>
  <circle cx="767.36" cy="298.51" r="2.5" fill="#2563eb"/>
  <circle cx="768.68" cy="298.51" r="2.5" fill="#2563eb"/>
  <circle cx="770.00" cy="298.51" r="2.5" fill="#2563eb"/>
  <circle cx="771.32" cy="298.51" r="2.5" fill="#2563eb"/>
  <circle cx="772.64" cy="298.51" r="2.5" fill="#2563eb"/>
  <circle cx="773.96" cy="298.51" r="2.5" fill="#2563eb"/>
  <circle cx="775.28" cy="298.51" r="2.5" fill="#2563eb"/>
  <circle cx="776.60" cy="298.51" r="2.5" fill="#2563eb"/>
  <circle cx="777.92" cy="298.51" r="2.5" fill="#2563eb"/>
  <circle cx="779.25" cy="298.51" r="2.5" fill="#2563eb"/>
  <circle cx="780.57" cy="298.51" r="2.5" fill="#2563eb"/>
  <circle cx="781.89" cy="298.51" r="2.5" fill="#2563eb"/>
  <circle cx="783.21" cy="298.51" r="2.5" fill="#2563eb"/>
  <circle cx="784.53" cy="298.47" r="2.5" fill="#2563eb"/>
  <circle cx="785.85" cy="298.51" r="2.5" fill="#2563eb"/>
  <circle cx="787.17" cy="298.51" r="2.5" fill="#2563eb"/>
  <circle cx="788.49" cy="298.47" r="2.5" fill="#2563eb"/>
  <circle cx="789.81" cy="298.51" r="2.5" fill="#2563eb"/>
  <circle cx="791.13" cy="298.47" r="2.5" fill="#2563eb"/>
  <circle cx="792.45" cy="298.51" r="2.5" fill="#2563eb"/>
  <circle cx="793.77" cy="298.43" r="2.5" fill="#2563eb"/>
  <circle cx="795.09" cy="298.56" r="2.5" fill="#2563eb"/>
  <circle cx="796.42" cy="298.43" r="2.5" fill="#2563eb"/>
  <circle cx="797.74" cy="298.43" r="2.5" fill="#2563eb"/>
  <circle cx="799.06" cy="298.43" r="2.5" fill="#2563eb"/>
  <circle cx="800.38" cy="298.43" r="2.5" fill="#2563eb"/>
  <circle cx="801.70" cy="298.43" r="2.5" fill="#2563eb"/>
  <circle cx="803.02" cy="298.43" r="2.5" fill="#2563eb"/>
  <circle cx="804.34" cy="298.43" r="2.5" fill="#2563eb"/>
  <circle cx="805.66" cy="298.43" r="2.5" fill="#2563eb"/>
  <circle cx="806.98" cy="298.43" r="2.5" fill="#2563eb"/>
  <circle cx="808.30" cy="298.43" r="2.5" fill="#2563eb"/>
  <circle cx="809.62" cy="298.43" r="2.5" fill="#2563eb"/>
  <circle cx="810.94" cy="298.43" r="2.5" fill="#2563eb"/>
  <circle cx="812.26" cy="298.43" r="2.5" fill="#2563eb"/>
  <circle cx="813.58" cy="298.43" r="2.5" fill="#2563eb"/>
  <circle cx="814.91" cy="298.43" r="2.5" fill="#2563eb"/>
  <circle cx="816.23" cy="298.43" r="2.5" fill="#2563eb"/>
  <circle cx="817.55" cy="298.43" r="2.5" fill="#2563eb"/>
  <circle cx="818.87" cy="298.43" r="2.5" fill="#2563eb"/>
  <circle cx="820.19" cy="298.43" r="2.5" fill="#2563eb"/>
  <circle cx="821.51" cy="298.43" r="2.5" fill="#2563eb"/>
  <circle cx="822.83" cy="298.43" r="2.5" fill="#2563eb"/>
  <circle cx="824.15" cy="298.43" r="2.5" fill="#2563eb"/>
  <circle cx="825.47" cy="298.43" r="2.5" fill="#2563eb"/>
  <circle cx="826.79" cy="298.43" r="2.5" fill="#2563eb"/>
  <circle cx="828.11" cy="298.43" r="2.5" fill="#2563eb"/>
  <circle cx="829.43" cy="298.43" r="2.5" fill="#2563eb"/>
  <circle cx="830.75" cy="298.43" r="2.5" fill="#2563eb"/>
  <circle cx="832.08" cy="298.43" r="2.5" fill="#2563eb"/>
  <circle cx="833.40" cy="298.43" r="2.5" fill="#2563eb"/>
  <circle cx="834.72" cy="298.43" r="2.5" fill="#2563eb"/>
  <circle cx="836.04" cy="298.43" r="2.5" fill="#2563eb"/>
  <circle cx="837.36" cy="298.43" r="2.5" fill="#2563eb"/>
  <circle cx="838.68" cy="298.43" r="2.5" fill="#2563eb"/>
  <circle cx="840.00" cy="298.43" r="2.5" fill="#2563eb"/>
  <circle cx="841.32" cy="298.39" r="2.5" fill="#2563eb"/>
  <circle cx="842.64" cy="298.39" r="2.5" fill="#2563eb"/>
  <circle cx="843.96" cy="298.43" r="2.5" fill="#2563eb"/>
  <circle cx="845.28" cy="298.43" r="2.5" fill="#2563eb"/>
  <circle cx="846.60" cy="298.39" r="2.5" fill="#2563eb"/>
  <circle cx="847.92" cy="298.39" r="2.5" fill="#2563eb"/>
  <circle cx="849.25" cy="298.39" r="2.5" fill="#2563eb"/>
  <circle cx="850.57" cy="298.43" r="2.5" fill="#2563eb"/>
  <circle cx="851.89" cy="298.43" r="2.5" fill="#2563eb"/>
  <circle cx="853.21" cy="298.43" r="2.5" fill="#2563eb"/>
  <circle cx="854.53" cy="246.82" r="2.5" fill="#2563eb"/>
  <circle cx="855.85" cy="298.43" r="2.5" fill="#2563eb"/>
  <circle cx="857.17" cy="246.78" r="2.5" fill="#2563eb"/>
  <circle cx="858.49" cy="246.78" r="2.5" fill="#2563eb"/>
  <circle cx="859.81" cy="246.78" r="2.5" fill="#2563eb"/>
  <circle cx="861.13" cy="246.70" r="2.5" fill="#2563eb"/>
  <circle cx="862.45" cy="246.78" r="2.5" fill="#2563eb"/>
  <circle cx="863.77" cy="298.39" r="2.5" fill="#2563eb"/>
  <circle cx="865.09" cy="298.39" r="2.5" fill="#2563eb"/>
  <circle cx="866.42" cy="298.39" r="2.5" fill="#2563eb"/>
  <circle cx="867.74" cy="298.39" r="2.5" fill="#2563eb"/>
  <circle cx="869.06" cy="298.39" r="2.5" fill="#2563eb"/>
  <circle cx="870.38" cy="246.78" r="2.5" fill="#2563eb"/>
  <circle cx="871.70" cy="298.39" r="2.5" fill="#2563eb"/>
  <circle cx="873.02" cy="298.39" r="2.5" fill="#2563eb"/>
  <circle cx="874.34" cy="298.39" r="2.5" fill="#2563eb"/>
  <circle cx="875.66" cy="298.39" r="2.5" fill="#2563eb"/>
  <circle cx="876.98" cy="298.39" r="2.5" fill="#2563eb"/>
  <circle cx="878.30" cy="246.78" r="2.5" fill="#2563eb"/>
  <circle cx="879.62" cy="246.78" r="2.5" fill="#2563eb"/>
  <circle cx="880.94" cy="298.39" r="2.5" fill="#2563eb"/>
  <circle cx="882.26" cy="298.39" r="2.5" fill="#2563eb"/>
  <circle cx="883.58" cy="298.39" r="2.5" fill="#2563eb"/>
  <circle cx="884.91" cy="298.39" r="2.5" fill="#2563eb"/>
  <circle cx="886.23" cy="298.39" r="2.5" fill="#2563eb"/>
  <circle cx="887.55" cy="298.39" r="2.5" fill="#2563eb"/>
  <circle cx="888.87" cy="298.39" r="2.5" fill="#2563eb"/>
  <circle cx="890.19" cy="298.39" r="2.5" fill="#2563eb"/>
  <circle cx="891.51" cy="298.39" r="2.5" fill="#2563eb"/>
  <circle cx="892.83" cy="298.39" r="2.5" fill="#2563eb"/>
  <circle cx="894.15" cy="298.39" r="2.5" fill="#2563eb"/>
  <circle cx="895.47" cy="298.39" r="2.5" fill="#2563eb"/>
  <circle cx="896.79" cy="298.39" r="2.5" fill="#2563eb"/>
  <circle cx="898.11" cy="298.39" r="2.5" fill="#2563eb"/>
  <circle cx="899.43" cy="298.35" r="2.5" fill="#2563eb"/>
  <circle cx="900.75" cy="298.39" r="2.5" fill="#2563eb"/>
  <circle cx="902.08" cy="298.39" r="2.5" fill="#2563eb"/>
  <circle cx="903.40" cy="298.35" r="2.5" fill="#2563eb"/>
  <circle cx="904.72" cy="298.35" r="2.5" fill="#2563eb"/>
  <circle cx="906.04" cy="298.35" r="2.5" fill="#2563eb"/>
  <circle cx="907.36" cy="298.35" r="2.5" fill="#2563eb"/>
  <circle cx="908.68" cy="298.35" r="2.5" fill="#2563eb"/>
  <circle cx="910.00" cy="298.35" r="2.5" fill="#2563eb"/>
  <circle cx="911.32" cy="298.35" r="2.5" fill="#2563eb"/>
  <circle cx="912.64" cy="298.35" r="2.5" fill="#2563eb"/>
  <circle cx="913.96" cy="298.35" r="2.5" fill="#2563eb"/>
  <circle cx="915.28" cy="298.35" r="2.5" fill="#2563eb"/>
  <circle cx="916.60" cy="298.35" r="2.5" fill="#2563eb"/>
  <circle cx="917.92" cy="298.35" r="2.5" fill="#2563eb"/>
  <circle cx="919.25" cy="298.35" r="2.5" fill="#2563eb"/>
  <circle cx="920.57" cy="298.35" r="2.5" fill="#2563eb"/>
  <circle cx="921.89" cy="298.35" r="2.5" fill="#2563eb"/>
  <circle cx="923.21" cy="298.35" r="2.5" fill="#2563eb"/>
  <circle cx="924.53" cy="298.35" r="2.5" fill="#2563eb"/>
  <circle cx="925.85" cy="298.35" r="2.5" fill="#2563eb"/>
  <circle cx="927.17" cy="298.35" r="2.5" fill="#2563eb"/>
  <circle cx="928.49" cy="298.35" r="2.5" fill="#2563eb"/>
  <circle cx="929.81" cy="298.35" r="2.5" fill="#2563eb"/>
  <circle cx="931.13" cy="298.35" r="2.5" fill="#2563eb"/>
  <circle cx="932.45" cy="298.35" r="2.5" fill="#2563eb"/>
  <circle cx="933.77" cy="298.35" r="2.5" fill="#2563eb"/>
  <circle cx="935.09" cy="298.35" r="2.5" fill="#2563eb"/>
  <circle cx="936.42" cy="298.35" r="2.5" fill="#2563eb"/>
  <circle cx="937.74" cy="298.35" r="2.5" fill="#2563eb"/>
  <circle cx="939.06" cy="298.35" r="2.5" fill="#2563eb"/>
  <circle cx="940.38" cy="298.35" r="2.5" fill="#2563eb"/>
  <circle cx="941.70" cy="298.35" r="2.5" fill="#2563eb"/>
  <circle cx="943.02" cy="298.35" r="2.5" fill="#2563eb"/>
  <circle cx="944.34" cy="298.35" r="2.5" fill="#2563eb"/>
  <circle cx="945.66" cy="298.35" r="2.5" fill="#2563eb"/>
  <circle cx="946.98" cy="298.35" r="2.5" fill="#2563eb"/>
  <circle cx="948.30" cy="298.35" r="2.5" fill="#2563eb"/>
  <circle cx="949.62" cy="298.35" r="2.5" fill="#2563eb"/>
  <circle cx="950.94" cy="298.35" r="2.5" fill="#2563eb"/>
  <circle cx="952.26" cy="298.35" r="2.5" fill="#2563eb"/>
  <circle cx="953.58" cy="298.35" r="2.5" fill="#2563eb"/>
  <circle cx="954.91" cy="298.35" r="2.5" fill="#2563eb"/>
  <circle cx="956.23" cy="298.35" r="2.5" fill="#2563eb"/>
  <circle cx="957.55" cy="298.35" r="2.5" fill="#2563eb"/>
  <circle cx="958.87" cy="298.35" r="2.5" fill="#2563eb"/>
  <circle cx="960.19" cy="298.35" r="2.5" fill="#2563eb"/>
  <circle cx="961.51" cy="298.35" r="2.5" fill="#2563eb"/>
  <circle cx="962.83" cy="298.35" r="2.5" fill="#2563eb"/>
  <circle cx="964.15" cy="298.35" r="2.5" fill="#2563eb"/>
  <circle cx="965.47" cy="298.35" r="2.5" fill="#2563eb"/>
  <circle cx="966.79" cy="298.35" r="2.5" fill="#2563eb"/>
  <circle cx="968.11" cy="298.35" r="2.5" fill="#2563eb"/>
  <circle cx="969.43" cy="298.35" r="2.5" fill="#2563eb"/>
  <circle cx="970.75" cy="298.35" r="2.5" fill="#2563eb"/>
  <circle cx="972.08" cy="298.39" r="2.5" fill="#2563eb"/>
  <circle cx="973.40" cy="298.39" r="2.5" fill="#2563eb"/>
  <circle cx="974.72" cy="298.39" r="2.5" fill="#2563eb"/>
  <circle cx="976.04" cy="246.78" r="2.5" fill="#2563eb"/>
  <circle cx="977.36" cy="298.39" r="2.5" fill="#2563eb"/>
  <circle cx="978.68" cy="298.39" r="2.5" fill="#2563eb"/>
  <circle cx="980.00" cy="298.39" r="2.5" fill="#2563eb"/>
</svg>
