<?xml version="1.0" encoding="UTF-8"?>
<svg xmlns="http://www.w3.org/2000/svg" width="1000" height="420" viewBox="0 0 1000 420">
  <rect width="100%" height="100%" fill="#ffffff"/>
  <text x="70" y="28" font-size="20" font-weight="600">수집 시점 기준 - 시간별 스냅샷</text>
  <text x="70" y="402" font-size="12" fill="#555">스냅샷 수</text>
  <line x1="70" y1="350.00" x2="980" y2="350.00" stroke="#e5e7eb" stroke-width="1"/>
  <text x="62" y="354.00" font-size="11" fill="#6b7280" text-anchor="end">0</text>
  <line x1="70" y1="290.00" x2="980" y2="290.00" stroke="#e5e7eb" stroke-width="1"/>
  <text x="62" y="294.00" font-size="11" fill="#6b7280" text-anchor="end">1,440</text>
  <line x1="70" y1="230.00" x2="980" y2="230.00" stroke="#e5e7eb" stroke-width="1"/>
  <text x="62" y="234.00" font-size="11" fill="#6b7280" text-anchor="end">2,880</text>
  <line x1="70" y1="170.00" x2="980" y2="170.00" stroke="#e5e7eb" stroke-width="1"/>
  <text x="62" y="174.00" font-size="11" fill="#6b7280" text-anchor="end">4,321</text>
  <line x1="70" y1="110.00" x2="980" y2="110.00" stroke="#e5e7eb" stroke-width="1"/>
  <text x="62" y="114.00" font-size="11" fill="#6b7280" text-anchor="end">5,761</text>
  <line x1="70" y1="50.00" x2="980" y2="50.00" stroke="#e5e7eb" stroke-width="1"/>
  <text x="62" y="54.00" font-size="11" fill="#6b7280" text-anchor="end">7,202</text>
  <line x1="70" y1="350" x2="980" y2="350" stroke="#111827" stroke-width="1.2"/>
  <line x1="70" y1="50" x2="70" y2="350" stroke="#111827" stroke-width="1.2"/>
  <line x1="70.00" y1="350" x2="70.00" y2="356" stroke="#9ca3af" stroke-width="1"/>
  <text x="70.00" y="372" font-size="10" fill="#6b7280" text-anchor="middle">2026-02-28 18</text>
  <line x1="145.83" y1="350" x2="145.83" y2="356" stroke="#9ca3af" stroke-width="1"/>
  <text x="145.83" y="372" font-size="10" fill="#6b7280" text-anchor="middle">2026-03-09 21</text>
  <line x1="221.67" y1="350" x2="221.67" y2="356" stroke="#9ca3af" stroke-width="1"/>
  <text x="221.67" y="372" font-size="10" fill="#6b7280" text-anchor="middle">2026-03-12 19</text>
  <line x1="297.50" y1="350" x2="297.50" y2="356" stroke="#9ca3af" stroke-width="1"/>
  <text x="297.50" y="372" font-size="10" fill="#6b7280" text-anchor="middle">2026-03-16 02</text>
  <line x1="373.33" y1="350" x2="373.33" y2="356" stroke="#9ca3af" stroke-width="1"/>
  <text x="373.33" y="372" font-size="10" fill="#6b7280" text-anchor="middle">2026-03-20 08</text>
  <line x1="449.17" y1="350" x2="449.17" y2="356" stroke="#9ca3af" stroke-width="1"/>
  <text x="449.17" y="372" font-size="10" fill="#6b7280" text-anchor="middle">2026-03-24 03</text>
  <line x1="525.00" y1="350" x2="525.00" y2="356" stroke="#9ca3af" stroke-width="1"/>
  <text x="525.00" y="372" font-size="10" fill="#6b7280" text-anchor="middle">2026-03-28 14</text>
  <line x1="600.83" y1="350" x2="600.83" y2="356" stroke="#9ca3af" stroke-width="1"/>
  <text x="600.83" y="372" font-size="10" fill="#6b7280" text-anchor="middle">2026-04-02 00</text>
  <line x1="676.67" y1="350" x2="676.67" y2="356" stroke="#9ca3af" stroke-width="1"/>
  <text x="676.67" y="372" font-size="10" fill="#6b7280" text-anchor="middle">2026-04-06 05</text>
  <line x1="752.50" y1="350" x2="752.50" y2="356" stroke="#9ca3af" stroke-width="1"/>
  <text x="752.50" y="372" font-size="10" fill="#6b7280" text-anchor="middle">2026-04-10 21</text>
  <line x1="828.33" y1="350" x2="828.33" y2="356" stroke="#9ca3af" stroke-width="1"/>
  <text x="828.33" y="372" font-size="10" fill="#6b7280" text-anchor="middle">2026-04-15 09</text>
  <line x1="904.17" y1="350" x2="904.17" y2="356" stroke="#9ca3af" stroke-width="1"/>
  <text x="904.17" y="372" font-size="10" fill="#6b7280" text-anchor="middle">2026-04-20 00</text>
  <line x1="980.00" y1="350" x2="980.00" y2="356" stroke="#9ca3af" stroke-width="1"/>
  <text x="980.00" y="372" font-size="10" fill="#6b7280" text-anchor="middle">2026-04-24 17</text>
  <polyline fill="none" stroke="#2563eb" stroke-width="2.5" points="70.00,50.00 71.18,50.12 72.37,50.17 73.55,50.46 74.74,50.00 75.92,266.90 77.11,50.12 78.29,50.08 79.48,177.46 80.66,211.58 81.85,175.34 83.03,304.14 84.22,200.46 85.40,250.94 86.59,300.01 87.77,300.06 88.96,300.01 90.14,300.01 91.33,348.00 92.51,300.01 93.70,249.99 94.88,200.00 96.07,249.99 97.25,249.99 98.44,250.03 99.62,250.03 100.81,250.03 101.99,250.40 103.18,250.90 104.36,250.90 105.55,251.32 106.73,249.94 107.92,300.01 109.10,299.93 110.29,251.03 111.47,300.68 112.66,250.03 113.84,200.00 115.03,249.99 116.21,250.03 117.40,250.03 118.58,250.03 119.77,300.01 120.95,200.04 122.14,250.03 123.32,250.03 124.51,250.03 125.69,249.90 126.88,250.03 128.06,250.03 129.24,250.94 130.43,250.44 131.61,250.03 132.80,250.03 133.98,300.47 135.17,300.01 136.35,300.43 137.54,250.03 138.72,249.99 139.91,300.43 141.09,249.90 142.28,249.99 143.46,249.99 144.65,200.04 145.83,300.01 147.02,300.01 148.20,300.01 149.39,249.90 150.57,300.01 151.76,250.03 152.94,249.99 154.13,199.96 155.31,300.01 156.50,200.00 157.68,250.36 158.87,250.03 160.05,300.01 161.24,300.01 162.42,250.44 163.61,300.01 164.79,250.03 165.98,250.03 167.16,249.99 168.35,250.49 169.53,250.03 170.72,200.04 171.90,300.01 173.09,250.03 174.27,300.01 175.46,250.11 176.64,300.01 177.83,250.03 179.01,250.03 180.20,199.92 181.38,250.03 182.57,250.03 183.75,250.03 184.93,254.36 186.12,300.01 187.30,299.97 188.49,250.36 189.67,299.97 190.86,250.03 192.04,250.03 193.23,250.03 194.41,250.03 195.60,249.99 196.78,200.00 197.97,299.93 199.15,300.01 200.34,299.97 201.52,249.94 202.71,249.99 203.89,249.82 205.08,249.94 206.26,250.28 207.45,207.00 208.63,250.03 209.82,250.32 211.00,250.40 212.19,300.93 213.37,300.01 214.56,300.10 215.74,249.94 216.93,249.99 218.11,250.07 219.30,249.99 220.48,250.03 221.67,249.94 222.85,200.00 224.04,300.39 225.22,300.01 226.41,300.01 227.59,250.44 228.78,300.39 229.96,249.86 231.15,250.11 232.33,201.46 233.52,300.01 234.70,200.83 235.89,250.03 237.07,249.99 238.26,300.26 239.44,300.01 240.62,300.01 241.81,250.03 242.99,250.03 244.18,250.03 245.36,250.03 246.55,249.99 247.73,250.03 248.92,200.00 250.10,300.26 251.29,249.99 252.47,300.01 253.66,249.94 254.84,250.03 256.03,250.03 257.21,250.03 258.40,200.04 259.58,300.01 260.77,249.90 261.95,300.01 263.14,300.01 264.32,300.06 265.51,300.01 266.69,300.01 267.88,243.95 269.06,249.94 270.25,299.97 271.43,300.01 272.62,300.01 273.80,250.03 274.99,300.01 276.17,300.01 277.36,299.97 278.54,249.99 279.73,300.01 280.91,299.93 282.10,300.01 283.28,299.93 284.47,300.01 285.65,300.01 286.84,299.89 288.02,299.97 289.21,250.03 290.39,299.93 291.58,299.89 292.76,299.97 293.95,249.94 295.13,300.01 296.32,300.01 297.50,299.97 298.68,249.99 299.87,299.97 301.05,299.97 302.24,300.06 303.42,300.06 304.61,299.93 305.79,300.01 306.98,300.01 308.16,299.93 309.35,300.01 310.53,300.01 311.72,299.97 312.90,300.01 314.09,300.01 315.27,300.01 316.46,300.01 317.64,249.86 318.83,300.01 320.01,300.10 321.20,299.93 322.38,300.01 323.57,299.93 324.75,300.01 325.94,300.01 327.12,300.01 328.31,300.01 329.49,300.01 330.68,299.97 331.86,300.01 333.05,300.01 334.23,300.01 335.42,300.01 336.60,250.03 337.79,300.01 338.97,300.01 340.16,299.97 341.34,300.01 342.53,300.01 343.71,299.97 344.90,299.97 346.08,300.01 347.27,299.97 348.45,300.01 349.64,299.93 350.82,300.01 352.01,250.03 353.19,300.01 354.38,300.01 355.56,300.01 356.74,300.01 357.93,300.01 359.11,299.89 360.30,300.01 361.48,300.01 362.67,250.07 363.85,300.01 365.04,299.93 366.22,300.01 367.41,299.97 368.59,299.97 369.78,299.97 370.96,250.03 372.15,300.01 373.33,300.01 374.52,300.01 375.70,300.01 376.89,299.97 378.07,300.01 379.26,299.97 380.44,300.01 381.63,299.97 382.81,249.90 384.00,300.01 385.18,300.01 386.37,299.89 387.55,299.97 388.74,299.97 389.92,249.99 391.11,299.97 392.29,299.89 393.48,300.01 394.66,299.97 395.85,299.97 397.03,300.01 398.22,299.97 399.40,249.99 400.59,299.97 401.77,299.97 402.96,300.06 404.14,300.06 405.33,249.94 406.51,300.01 407.70,299.93 408.88,300.01 410.07,300.01 411.25,249.99 412.43,300.01 413.62,300.01 414.80,300.01 415.99,299.93 417.17,299.93 418.36,300.01 419.54,300.01 420.73,249.94 421.91,299.97 423.10,299.97 424.28,300.01 425.47,300.01 426.65,300.01 427.84,249.99 429.02,300.01 430.21,300.01 431.39,300.01 432.58,250.03 433.76,300.01 434.95,300.01 436.13,300.01 437.32,299.97 438.50,300.01 439.69,300.01 440.87,299.97 442.06,299.97 443.24,300.01 444.43,300.01 445.61,299.97 446.80,299.93 447.98,300.01 449.17,300.06 450.35,299.97 451.54,300.01 452.72,250.03 453.91,250.03 455.09,299.93 456.28,299.97 457.46,300.01 458.65,300.01 459.83,300.06 461.02,300.01 462.20,299.93 463.39,300.01 464.57,300.01 465.76,299.97 466.94,299.97 468.12,300.01 469.31,250.03 470.49,300.01 471.68,300.01 472.86,300.01 474.05,299.97 475.23,300.01 476.42,299.97 477.60,300.01 478.79,299.97 479.97,299.97 481.16,299.93 482.34,300.01 483.53,300.01 484.71,299.89 485.90,299.97 487.08,299.97 488.27,300.06 489.45,249.90 490.64,299.89 491.82,300.01 493.01,299.97 494.19,299.97 495.38,299.97 496.56,300.01 497.75,300.01 498.93,299.97 500.12,299.97 501.30,299.97 502.49,250.03 503.67,299.93 504.86,300.01 506.04,300.01 507.23,299.93 508.41,300.01 509.60,300.01 510.78,299.97 511.97,300.01 513.15,300.01 514.34,300.06 515.52,300.01 516.71,299.97 517.89,299.89 519.08,300.01 520.26,300.01 521.45,249.94 522.63,249.94 523.82,300.01 525.00,300.01 526.18,300.01 527.37,300.01 528.55,299.97 529.74,250.03 530.92,300.01 532.11,300.01 533.29,300.01 534.48,300.01 535.66,250.03 536.85,249.99 538.03,300.01 539.22,299.97 540.40,300.01 541.59,299.97 542.77,300.01 543.96,299.97 545.14,299.97 546.33,299.97 547.51,300.06 548.70,249.99 549.88,300.01 551.07,250.03 552.25,249.94 553.44,249.99 554.62,300.01 555.81,300.06 556.99,300.01 558.18,299.97 559.36,299.97 560.55,300.01 561.73,299.93 562.92,299.89 564.10,299.89 565.29,299.89 566.47,299.89 567.66,299.85 568.84,299.85 570.03,299.89 571.21,299.81 572.40,299.81 573.58,299.81 574.77,299.76 575.95,299.76 577.14,299.76 578.32,299.72 579.51,299.68 580.69,299.60 581.88,299.60 583.06,299.60 584.24,299.56 585.43,299.47 586.61,299.43 587.80,299.43 588.98,299.39 590.17,299.47 591.35,259.82 592.54,338.96 593.72,299.31 594.91,299.31 596.09,299.26 597.28,299.68 598.46,299.68 599.65,299.68 600.83,299.64 602.02,299.14 603.20,299.14 604.39,299.10 605.57,299.10 606.76,299.10 607.94,248.07 609.13,299.06 610.31,299.06 611.50,299.06 612.68,299.06 613.87,299.06 615.05,298.97 616.24,298.97 617.42,298.93 618.61,298.97 619.79,298.93 620.98,298.89 622.16,298.89 623.35,298.89 624.53,298.89 625.72,247.78 626.90,298.89 628.09,298.89 629.27,298.85 630.46,298.85 631.64,298.81 632.83,298.81 634.01,298.81 635.20,298.81 636.38,298.81 637.57,298.81 638.75,298.81 639.93,298.81 641.12,298.81 642.30,298.72 643.49,247.45 644.67,247.45 645.86,298.72 647.04,298.72 648.23,298.72 649.41,298.72 650.60,298.72 651.78,298.72 652.97,247.36 654.15,298.68 655.34,247.36 656.52,247.36 657.71,247.36 658.89,298.68 660.08,298.68 661.26,298.68 662.45,298.68 663.63,298.68 664.82,341.67 666.00,307.01 667.19,298.68 668.37,298.68 669.56,298.68 670.74,247.36 671.93,298.64 673.11,247.36 674.30,247.28 675.48,247.20 676.67,298.60 677.85,298.60 679.04,247.03 680.22,298.51 681.41,298.51 682.59,298.51 683.78,298.51 684.96,298.51 686.15,298.51 687.33,298.51 688.52,298.51 689.70,298.51 690.89,298.51 692.07,298.51 693.26,298.51 694.44,298.51 695.62,298.51 696.81,298.51 697.99,298.51 699.18,298.51 700.36,298.51 701.55,298.51 702.73,298.51 703.92,298.51 705.10,298.51 706.29,298.51 707.47,298.51 708.66,298.51 709.84,298.51 711.03,298.47 712.21,298.51 713.40,298.51 714.58,298.47 715.77,298.51 716.95,298.47 718.14,298.51 719.32,298.43 720.51,298.56 721.69,298.43 722.88,298.43 724.06,298.43 725.25,298.43 726.43,298.43 727.62,298.43 728.80,298.43 729.99,298.43 731.17,298.43 732.36,298.43 733.54,298.43 734.73,298.43 735.91,298.43 737.10,298.43 738.28,298.43 739.47,298.43 740.65,298.43 741.84,298.43 743.02,298.43 744.21,298.43 745.39,298.43 746.58,298.43 747.76,298.43 748.95,298.43 750.13,298.43 751.32,298.43 752.50,298.43 753.68,298.43 754.87,298.43 756.05,298.43 757.24,298.43 758.42,298.43 759.61,298.43 760.79,298.43 761.98,298.39 763.16,298.39 764.35,298.43 765.53,298.43 766.72,298.39 767.90,298.39 769.09,298.39 770.27,298.43 771.46,298.43 772.64,298.43 773.83,246.82 775.01,298.43 776.20,246.78 777.38,246.78 778.57,246.78 779.75,246.70 780.94,246.78 782.12,298.39 783.31,298.39 784.49,298.39 785.68,298.39 786.86,298.39 788.05,246.78 789.23,298.39 790.42,298.39 791.60,298.39 792.79,298.39 793.97,298.39 795.16,246.78 796.34,246.78 797.53,298.39 798.71,298.39 799.90,298.39 801.08,298.39 802.27,298.39 803.45,298.39 804.64,298.39 805.82,298.39 807.01,298.39 808.19,298.39 809.38,298.39 810.56,298.39 811.74,298.39 812.93,298.39 814.11,298.35 815.30,298.39 816.48,298.39 817.67,298.35 818.85,298.35 820.04,298.35 821.22,298.35 822.41,298.35 823.59,298.35 824.78,298.35 825.96,298.35 827.15,298.35 828.33,298.35 829.52,298.35 830.70,298.35 831.89,298.35 833.07,298.35 834.26,298.35 835.44,298.35 836.63,298.35 837.81,298.35 839.00,298.35 840.18,298.35 841.37,298.35 842.55,298.35 843.74,298.35 844.92,298.35 846.11,298.35 847.29,298.35 848.48,298.35 849.66,298.35 850.85,298.35 852.03,298.35 853.22,298.35 854.40,298.35 855.59,298.35 856.77,298.35 857.96,298.35 859.14,298.35 860.33,298.35 861.51,298.35 862.70,298.35 863.88,298.35 865.07,298.35 866.25,298.35 867.43,298.35 868.62,298.35 869.80,298.35 870.99,298.35 872.17,298.35 873.36,298.35 874.54,298.35 875.73,298.35 876.91,298.35 878.10,298.35 879.28,298.39 880.47,298.39 881.65,298.39 882.84,246.78 884.02,298.39 885.21,298.39 886.39,298.39 887.58,298.39 888.76,298.39 889.95,298.39 891.13,298.39 892.32,246.78 893.50,298.39 894.69,298.39 895.87,298.39 897.06,298.39 898.24,298.39 899.43,298.39 900.61,298.39 901.80,246.78 902.98,298.39 904.17,298.39 905.35,298.39 906.54,298.39 907.72,298.39 908.91,298.39 910.09,298.39 911.28,298.39 912.46,298.39 913.65,298.39 914.83,298.39 916.02,298.35 917.20,298.39 918.39,298.39 919.57,298.39 920.76,298.35 921.94,298.35 923.12,298.35 924.31,298.35 925.49,298.35 926.68,298.35 927.86,298.35 929.05,298.35 930.23,298.35 931.42,298.35 932.60,298.35 933.79,298.35 934.97,298.35 936.16,298.35 937.34,298.35 938.53,298.35 939.71,298.39 940.90,298.39 942.08,298.39 943.27,298.39 944.45,298.39 945.64,298.39 946.82,298.35 948.01,298.39 949.19,298.39 950.38,298.39 951.56,298.39 952.75,298.39 953.93,298.39 955.12,298.39 956.30,298.39 957.49,298.39 958.67,298.35 959.86,298.39 961.04,298.39 962.23,298.39 963.41,298.39 964.60,298.39 965.78,298.39 966.97,298.39 968.15,298.39 969.34,298.39 970.52,298.39 971.71,298.39 972.89,298.39 974.08,298.39 975.26,298.39 976.45,298.39 977.63,298.39 978.82,298.35 980.00,298.35"/>
  <circle cx="70.00" cy="50.00" r="2.5" fill="#2563eb"/>
  <circle cx="71.18" cy="50.12" r="2.5" fill="#2563eb"/>
  <circle cx="72.37" cy="50.17" r="2.5" fill="#2563eb"/>
  <circle cx="73.55" cy="50.46" r="2.5" fill="#2563eb"/>
  <circle cx="74.74" cy="50.00" r="2.5" fill="#2563eb"/>
  <circle cx="75.92" cy="266.90" r="2.5" fill="#2563eb"/>
  <circle cx="77.11" cy="50.12" r="2.5" fill="#2563eb"/>
  <circle cx="78.29" cy="50.08" r="2.5" fill="#2563eb"/>
  <circle cx="79.48" cy="177.46" r="2.5" fill="#2563eb"/>
  <circle cx="80.66" cy="211.58" r="2.5" fill="#2563eb"/>
  <circle cx="81.85" cy="175.34" r="2.5" fill="#2563eb"/>
  <circle cx="83.03" cy="304.14" r="2.5" fill="#2563eb"/>
  <circle cx="84.22" cy="200.46" r="2.5" fill="#2563eb"/>
  <circle cx="85.40" cy="250.94" r="2.5" fill="#2563eb"/>
  <circle cx="86.59" cy="300.01" r="2.5" fill="#2563eb"/>
  <circle cx="87.77" cy="300.06" r="2.5" fill="#2563eb"/>
  <circle cx="88.96" cy="300.01" r="2.5" fill="#2563eb"/>
  <circle cx="90.14" cy="300.01" r="2.5" fill="#2563eb"/>
  <circle cx="91.33" cy="348.00" r="2.5" fill="#2563eb"/>
  <circle cx="92.51" cy="300.01" r="2.5" fill="#2563eb"/>
  <circle cx="93.70" cy="249.99" r="2.5" fill="#2563eb"/>
  <circle cx="94.88" cy="200.00" r="2.5" fill="#2563eb"/>
  <circle cx="96.07" cy="249.99" r="2.5" fill="#2563eb"/>
  <circle cx="97.25" cy="249.99" r="2.5" fill="#2563eb"/>
  <circle cx="98.44" cy="250.03" r="2.5" fill="#2563eb"/>
  <circle cx="99.62" cy="250.03" r="2.5" fill="#2563eb"/>
  <circle cx="100.81" cy="250.03" r="2.5" fill="#2563eb"/>
  <circle cx="101.99" cy="250.40" r="2.5" fill="#2563eb"/>
  <circle cx="103.18" cy="250.90" r="2.5" fill="#2563eb"/>
  <circle cx="104.36" cy="250.90" r="2.5" fill="#2563eb"/>
  <circle cx="105.55" cy="251.32" r="2.5" fill="#2563eb"/>
  <circle cx="106.73" cy="249.94" r="2.5" fill="#2563eb"/>
  <circle cx="107.92" cy="300.01" r="2.5" fill="#2563eb"/>
  <circle cx="109.10" cy="299.93" r="2.5" fill="#2563eb"/>
  <circle cx="110.29" cy="251.03" r="2.5" fill="#2563eb"/>
  <circle cx="111.47" cy="300.68" r="2.5" fill="#2563eb"/>
  <circle cx="112.66" cy="250.03" r="2.5" fill="#2563eb"/>
  <circle cx="113.84" cy="200.00" r="2.5" fill="#2563eb"/>
  <circle cx="115.03" cy="249.99" r="2.5" fill="#2563eb"/>
  <circle cx="116.21" cy="250.03" r="2.5" fill="#2563eb"/>
  <circle cx="117.40" cy="250.03" r="2.5" fill="#2563eb"/>
  <circle cx="118.58" cy="250.03" r="2.5" fill="#2563eb"/>
  <circle cx="119.77" cy="300.01" r="2.5" fill="#2563eb"/>
  <circle cx="120.95" cy="200.04" r="2.5" fill="#2563eb"/>
  <circle cx="122.14" cy="250.03" r="2.5" fill="#2563eb"/>
  <circle cx="123.32" cy="250.03" r="2.5" fill="#2563eb"/>
  <circle cx="124.51" cy="250.03" r="2.5" fill="#2563eb"/>
  <circle cx="125.69" cy="249.90" r="2.5" fill="#2563eb"/>
  <circle cx="126.88" cy="250.03" r="2.5" fill="#2563eb"/>
  <circle cx="128.06" cy="250.03" r="2.5" fill="#2563eb"/>
  <circle cx="129.24" cy="250.94" r="2.5" fill="#2563eb"/>
  <circle cx="130.43" cy="250.44" r="2.5" fill="#2563eb"/>
  <circle cx="131.61" cy="250.03" r="2.5" fill="#2563eb"/>
  <circle cx="132.80" cy="250.03" r="2.5" fill="#2563eb"/>
  <circle cx="133.98" cy="300.47" r="2.5" fill="#2563eb"/>
  <circle cx="135.17" cy="300.01" r="2.5" fill="#2563eb"/>
  <circle cx="136.35" cy="300.43" r="2.5" fill="#2563eb"/>
  <circle cx="137.54" cy="250.03" r="2.5" fill="#2563eb"/>
  <circle cx="138.72" cy="249.99" r="2.5" fill="#2563eb"/>
  <circle cx="139.91" cy="300.43" r="2.5" fill="#2563eb"/>
  <circle cx="141.09" cy="249.90" r="2.5" fill="#2563eb"/>
  <circle cx="142.28" cy="249.99" r="2.5" fill="#2563eb"/>
  <circle cx="143.46" cy="249.99" r="2.5" fill="#2563eb"/>
  <circle cx="144.65" cy="200.04" r="2.5" fill="#2563eb"/>
  <circle cx="145.83" cy="300.01" r="2.5" fill="#2563eb"/>
  <circle cx="147.02" cy="300.01" r="2.5" fill="#2563eb"/>
  <circle cx="148.20" cy="300.01" r="2.5" fill="#2563eb"/>
  <circle cx="149.39" cy="249.90" r="2.5" fill="#2563eb"/>
  <circle cx="150.57" cy="300.01" r="2.5" fill="#2563eb"/>
  <circle cx="151.76" cy="250.03" r="2.5" fill="#2563eb"/>
  <circle cx="152.94" cy="249.99" r="2.5" fill="#2563eb"/>
  <circle cx="154.13" cy="199.96" r="2.5" fill="#2563eb"/>
  <circle cx="155.31" cy="300.01" r="2.5" fill="#2563eb"/>
  <circle cx="156.50" cy="200.00" r="2.5" fill="#2563eb"/>
  <circle cx="157.68" cy="250.36" r="2.5" fill="#2563eb"/>
  <circle cx="158.87" cy="250.03" r="2.5" fill="#2563eb"/>
  <circle cx="160.05" cy="300.01" r="2.5" fill="#2563eb"/>
  <circle cx="161.24" cy="300.01" r="2.5" fill="#2563eb"/>
  <circle cx="162.42" cy="250.44" r="2.5" fill="#2563eb"/>
  <circle cx="163.61" cy="300.01" r="2.5" fill="#2563eb"/>
  <circle cx="164.79" cy="250.03" r="2.5" fill="#2563eb"/>
  <circle cx="165.98" cy="250.03" r="2.5" fill="#2563eb"/>
  <circle cx="167.16" cy="249.99" r="2.5" fill="#2563eb"/>
  <circle cx="168.35" cy="250.49" r="2.5" fill="#2563eb"/>
  <circle cx="169.53" cy="250.03" r="2.5" fill="#2563eb"/>
  <circle cx="170.72" cy="200.04" r="2.5" fill="#2563eb"/>
  <circle cx="171.90" cy="300.01" r="2.5" fill="#2563eb"/>
  <circle cx="173.09" cy="250.03" r="2.5" fill="#2563eb"/>
  <circle cx="174.27" cy="300.01" r="2.5" fill="#2563eb"/>
  <circle cx="175.46" cy="250.11" r="2.5" fill="#2563eb"/>
  <circle cx="176.64" cy="300.01" r="2.5" fill="#2563eb"/>
  <circle cx="177.83" cy="250.03" r="2.5" fill="#2563eb"/>
  <circle cx="179.01" cy="250.03" r="2.5" fill="#2563eb"/>
  <circle cx="180.20" cy="199.92" r="2.5" fill="#2563eb"/>
  <circle cx="181.38" cy="250.03" r="2.5" fill="#2563eb"/>
  <circle cx="182.57" cy="250.03" r="2.5" fill="#2563eb"/>
  <circle cx="183.75" cy="250.03" r="2.5" fill="#2563eb"/>
  <circle cx="184.93" cy="254.36" r="2.5" fill="#2563eb"/>
  <circle cx="186.12" cy="300.01" r="2.5" fill="#2563eb"/>
  <circle cx="187.30" cy="299.97" r="2.5" fill="#2563eb"/>
  <circle cx="188.49" cy="250.36" r="2.5" fill="#2563eb"/>
  <circle cx="189.67" cy="299.97" r="2.5" fill="#2563eb"/>
  <circle cx="190.86" cy="250.03" r="2.5" fill="#2563eb"/>
  <circle cx="192.04" cy="250.03" r="2.5" fill="#2563eb"/>
  <circle cx="193.23" cy="250.03" r="2.5" fill="#2563eb"/>
  <circle cx="194.41" cy="250.03" r="2.5" fill="#2563eb"/>
  <circle cx="195.60" cy="249.99" r="2.5" fill="#2563eb"/>
  <circle cx="196.78" cy="200.00" r="2.5" fill="#2563eb"/>
  <circle cx="197.97" cy="299.93" r="2.5" fill="#2563eb"/>
  <circle cx="199.15" cy="300.01" r="2.5" fill="#2563eb"/>
  <circle cx="200.34" cy="299.97" r="2.5" fill="#2563eb"/>
  <circle cx="201.52" cy="249.94" r="2.5" fill="#2563eb"/>
  <circle cx="202.71" cy="249.99" r="2.5" fill="#2563eb"/>
  <circle cx="203.89" cy="249.82" r="2.5" fill="#2563eb"/>
  <circle cx="205.08" cy="249.94" r="2.5" fill="#2563eb"/>
  <circle cx="206.26" cy="250.28" r="2.5" fill="#2563eb"/>
  <circle cx="207.45" cy="207.00" r="2.5" fill="#2563eb"/>
  <circle cx="208.63" cy="250.03" r="2.5" fill="#2563eb"/>
  <circle cx="209.82" cy="250.32" r="2.5" fill="#2563eb"/>
  <circle cx="211.00" cy="250.40" r="2.5" fill="#2563eb"/>
  <circle cx="212.19" cy="300.93" r="2.5" fill="#2563eb"/>
  <circle cx="213.37" cy="300.01" r="2.5" fill="#2563eb"/>
  <circle cx="214.56" cy="300.10" r="2.5" fill="#2563eb"/>
  <circle cx="215.74" cy="249.94" r="2.5" fill="#2563eb"/>
  <circle cx="216.93" cy="249.99" r="2.5" fill="#2563eb"/>
  <circle cx="218.11" cy="250.07" r="2.5" fill="#2563eb"/>
  <circle cx="219.30" cy="249.99" r="2.5" fill="#2563eb"/>
  <circle cx="220.48" cy="250.03" r="2.5" fill="#2563eb"/>
  <circle cx="221.67" cy="249.94" r="2.5" fill="#2563eb"/>
  <circle cx="222.85" cy="200.00" r="2.5" fill="#2563eb"/>
  <circle cx="224.04" cy="300.39" r="2.5" fill="#2563eb"/>
  <circle cx="225.22" cy="300.01" r="2.5" fill="#2563eb"/>
  <circle cx="226.41" cy="300.01" r="2.5" fill="#2563eb"/>
  <circle cx="227.59" cy="250.44" r="2.5" fill="#2563eb"/>
  <circle cx="228.78" cy="300.39" r="2.5" fill="#2563eb"/>
  <circle cx="229.96" cy="249.86" r="2.5" fill="#2563eb"/>
  <circle cx="231.15" cy="250.11" r="2.5" fill="#2563eb"/>
  <circle cx="232.33" cy="201.46" r="2.5" fill="#2563eb"/>
  <circle cx="233.52" cy="300.01" r="2.5" fill="#2563eb"/>
  <circle cx="234.70" cy="200.83" r="2.5" fill="#2563eb"/>
  <circle cx="235.89" cy="250.03" r="2.5" fill="#2563eb"/>
  <circle cx="237.07" cy="249.99" r="2.5" fill="#2563eb"/>
  <circle cx="238.26" cy="300.26" r="2.5" fill="#2563eb"/>
  <circle cx="239.44" cy="300.01" r="2.5" fill="#2563eb"/>
  <circle cx="240.62" cy="300.01" r="2.5" fill="#2563eb"/>
  <circle cx="241.81" cy="250.03" r="2.5" fill="#2563eb"/>
  <circle cx="242.99" cy="250.03" r="2.5" fill="#2563eb"/>
  <circle cx="244.18" cy="250.03" r="2.5" fill="#2563eb"/>
  <circle cx="245.36" cy="250.03" r="2.5" fill="#2563eb"/>
  <circle cx="246.55" cy="249.99" r="2.5" fill="#2563eb"/>
  <circle cx="247.73" cy="250.03" r="2.5" fill="#2563eb"/>
  <circle cx="248.92" cy="200.00" r="2.5" fill="#2563eb"/>
  <circle cx="250.10" cy="300.26" r="2.5" fill="#2563eb"/>
  <circle cx="251.29" cy="249.99" r="2.5" fill="#2563eb"/>
  <circle cx="252.47" cy="300.01" r="2.5" fill="#2563eb"/>
  <circle cx="253.66" cy="249.94" r="2.5" fill="#2563eb"/>
  <circle cx="254.84" cy="250.03" r="2.5" fill="#2563eb"/>
  <circle cx="256.03" cy="250.03" r="2.5" fill="#2563eb"/>
  <circle cx="257.21" cy="250.03" r="2.5" fill="#2563eb"/>
  <circle cx="258.40" cy="200.04" r="2.5" fill="#2563eb"/>
  <circle cx="259.58" cy="300.01" r="2.5" fill="#2563eb"/>
  <circle cx="260.77" cy="249.90" r="2.5" fill="#2563eb"/>
  <circle cx="261.95" cy="300.01" r="2.5" fill="#2563eb"/>
  <circle cx="263.14" cy="300.01" r="2.5" fill="#2563eb"/>
  <circle cx="264.32" cy="300.06" r="2.5" fill="#2563eb"/>
  <circle cx="265.51" cy="300.01" r="2.5" fill="#2563eb"/>
  <circle cx="266.69" cy="300.01" r="2.5" fill="#2563eb"/>
  <circle cx="267.88" cy="243.95" r="2.5" fill="#2563eb"/>
  <circle cx="269.06" cy="249.94" r="2.5" fill="#2563eb"/>
  <circle cx="270.25" cy="299.97" r="2.5" fill="#2563eb"/>
  <circle cx="271.43" cy="300.01" r="2.5" fill="#2563eb"/>
  <circle cx="272.62" cy="300.01" r="2.5" fill="#2563eb"/>
  <circle cx="273.80" cy="250.03" r="2.5" fill="#2563eb"/>
  <circle cx="274.99" cy="300.01" r="2.5" fill="#2563eb"/>
  <circle cx="276.17" cy="300.01" r="2.5" fill="#2563eb"/>
  <circle cx="277.36" cy="299.97" r="2.5" fill="#2563eb"/>
  <circle cx="278.54" cy="249.99" r="2.5" fill="#2563eb"/>
  <circle cx="279.73" cy="300.01" r="2.5" fill="#2563eb"/>
  <circle cx="280.91" cy="299.93" r="2.5" fill="#2563eb"/>
  <circle cx="282.10" cy="300.01" r="2.5" fill="#2563eb"/>
  <circle cx="283.28" cy="299.93" r="2.5" fill="#2563eb"/>
  <circle cx="284.47" cy="300.01" r="2.5" fill="#2563eb"/>
  <circle cx="285.65" cy="300.01" r="2.5" fill="#2563eb"/>
  <circle cx="286.84" cy="299.89" r="2.5" fill="#2563eb"/>
  <circle cx="288.02" cy="299.97" r="2.5" fill="#2563eb"/>
  <circle cx="289.21" cy="250.03" r="2.5" fill="#2563eb"/>
  <circle cx="290.39" cy="299.93" r="2.5" fill="#2563eb"/>
  <circle cx="291.58" cy="299.89" r="2.5" fill="#2563eb"/>
  <circle cx="292.76" cy="299.97" r="2.5" fill="#2563eb"/>
  <circle cx="293.95" cy="249.94" r="2.5" fill="#2563eb"/>
  <circle cx="295.13" cy="300.01" r="2.5" fill="#2563eb"/>
  <circle cx="296.32" cy="300.01" r="2.5" fill="#2563eb"/>
  <circle cx="297.50" cy="299.97" r="2.5" fill="#2563eb"/>
  <circle cx="298.68" cy="249.99" r="2.5" fill="#2563eb"/>
  <circle cx="299.87" cy="299.97" r="2.5" fill="#2563eb"/>
  <circle cx="301.05" cy="299.97" r="2.5" fill="#2563eb"/>
  <circle cx="302.24" cy="300.06" r="2.5" fill="#2563eb"/>
  <circle cx="303.42" cy="300.06" r="2.5" fill="#2563eb"/>
  <circle cx="304.61" cy="299.93" r="2.5" fill="#2563eb"/>
  <circle cx="305.79" cy="300.01" r="2.5" fill="#2563eb"/>
  <circle cx="306.98" cy="300.01" r="2.5" fill="#2563eb"/>
  <circle cx="308.16" cy="299.93" r="2.5" fill="#2563eb"/>
  <circle cx="309.35" cy="300.01" r="2.5" fill="#2563eb"/>
  <circle cx="310.53" cy="300.01" r="2.5" fill="#2563eb"/>
  <circle cx="311.72" cy="299.97" r="2.5" fill="#2563eb"/>
  <circle cx="312.90" cy="300.01" r="2.5" fill="#2563eb"/>
  <circle cx="314.09" cy="300.01" r="2.5" fill="#2563eb"/>
  <circle cx="315.27" cy="300.01" r="2.5" fill="#2563eb"/>
  <circle cx="316.46" cy="300.01" r="2.5" fill="#2563eb"/>
  <circle cx="317.64" cy="249.86" r="2.5" fill="#2563eb"/>
  <circle cx="318.83" cy="300.01" r="2.5" fill="#2563eb"/>
  <circle cx="320.01" cy="300.10" r="2.5" fill="#2563eb"/>
  <circle cx="321.20" cy="299.93" r="2.5" fill="#2563eb"/>
  <circle cx="322.38" cy="300.01" r="2.5" fill="#2563eb"/>
  <circle cx="323.57" cy="299.93" r="2.5" fill="#2563eb"/>
  <circle cx="324.75" cy="300.01" r="2.5" fill="#2563eb"/>
  <circle cx="325.94" cy="300.01" r="2.5" fill="#2563eb"/>
  <circle cx="327.12" cy="300.01" r="2.5" fill="#2563eb"/>
  <circle cx="328.31" cy="300.01" r="2.5" fill="#2563eb"/>
  <circle cx="329.49" cy="300.01" r="2.5" fill="#2563eb"/>
  <circle cx="330.68" cy="299.97" r="2.5" fill="#2563eb"/>
  <circle cx="331.86" cy="300.01" r="2.5" fill="#2563eb"/>
  <circle cx="333.05" cy="300.01" r="2.5" fill="#2563eb"/>
  <circle cx="334.23" cy="300.01" r="2.5" fill="#2563eb"/>
  <circle cx="335.42" cy="300.01" r="2.5" fill="#2563eb"/>
  <circle cx="336.60" cy="250.03" r="2.5" fill="#2563eb"/>
  <circle cx="337.79" cy="300.01" r="2.5" fill="#2563eb"/>
  <circle cx="338.97" cy="300.01" r="2.5" fill="#2563eb"/>
  <circle cx="340.16" cy="299.97" r="2.5" fill="#2563eb"/>
  <circle cx="341.34" cy="300.01" r="2.5" fill="#2563eb"/>
  <circle cx="342.53" cy="300.01" r="2.5" fill="#2563eb"/>
  <circle cx="343.71" cy="299.97" r="2.5" fill="#2563eb"/>
  <circle cx="344.90" cy="299.97" r="2.5" fill="#2563eb"/>
  <circle cx="346.08" cy="300.01" r="2.5" fill="#2563eb"/>
  <circle cx="347.27" cy="299.97" r="2.5" fill="#2563eb"/>
  <circle cx="348.45" cy="300.01" r="2.5" fill="#2563eb"/>
  <circle cx="349.64" cy="299.93" r="2.5" fill="#2563eb"/>
  <circle cx="350.82" cy="300.01" r="2.5" fill="#2563eb"/>
  <circle cx="352.01" cy="250.03" r="2.5" fill="#2563eb"/>
  <circle cx="353.19" cy="300.01" r="2.5" fill="#2563eb"/>
  <circle cx="354.38" cy="300.01" r="2.5" fill="#2563eb"/>
  <circle cx="355.56" cy="300.01" r="2.5" fill="#2563eb"/>
  <circle cx="356.74" cy="300.01" r="2.5" fill="#2563eb"/>
  <circle cx="357.93" cy="300.01" r="2.5" fill="#2563eb"/>
  <circle cx="359.11" cy="299.89" r="2.5" fill="#2563eb"/>
  <circle cx="360.30" cy="300.01" r="2.5" fill="#2563eb"/>
  <circle cx="361.48" cy="300.01" r="2.5" fill="#2563eb"/>
  <circle cx="362.67" cy="250.07" r="2.5" fill="#2563eb"/>
  <circle cx="363.85" cy="300.01" r="2.5" fill="#2563eb"/>
  <circle cx="365.04" cy="299.93" r="2.5" fill="#2563eb"/>
  <circle cx="366.22" cy="300.01" r="2.5" fill="#2563eb"/>
  <circle cx="367.41" cy="299.97" r="2.5" fill="#2563eb"/>
  <circle cx="368.59" cy="299.97" r="2.5" fill="#2563eb"/>
  <circle cx="369.78" cy="299.97" r="2.5" fill="#2563eb"/>
  <circle cx="370.96" cy="250.03" r="2.5" fill="#2563eb"/>
  <circle cx="372.15" cy="300.01" r="2.5" fill="#2563eb"/>
  <circle cx="373.33" cy="300.01" r="2.5" fill="#2563eb"/>
  <circle cx="374.52" cy="300.01" r="2.5" fill="#2563eb"/>
  <circle cx="375.70" cy="300.01" r="2.5" fill="#2563eb"/>
  <circle cx="376.89" cy="299.97" r="2.5" fill="#2563eb"/>
  <circle cx="378.07" cy="300.01" r="2.5" fill="#2563eb"/>
  <circle cx="379.26" cy="299.97" r="2.5" fill="#2563eb"/>
  <circle cx="380.44" cy="300.01" r="2.5" fill="#2563eb"/>
  <circle cx="381.63" cy="299.97" r="2.5" fill="#2563eb"/>
  <circle cx="382.81" cy="249.90" r="2.5" fill="#2563eb"/>
  <circle cx="384.00" cy="300.01" r="2.5" fill="#2563eb"/>
  <circle cx="385.18" cy="300.01" r="2.5" fill="#2563eb"/>
  <circle cx="386.37" cy="299.89" r="2.5" fill="#2563eb"/>
  <circle cx="387.55" cy="299.97" r="2.5" fill="#2563eb"/>
  <circle cx="388.74" cy="299.97" r="2.5" fill="#2563eb"/>
  <circle cx="389.92" cy="249.99" r="2.5" fill="#2563eb"/>
  <circle cx="391.11" cy="299.97" r="2.5" fill="#2563eb"/>
  <circle cx="392.29" cy="299.89" r="2.5" fill="#2563eb"/>
  <circle cx="393.48" cy="300.01" r="2.5" fill="#2563eb"/>
  <circle cx="394.66" cy="299.97" r="2.5" fill="#2563eb"/>
  <circle cx="395.85" cy="299.97" r="2.5" fill="#2563eb"/>
  <circle cx="397.03" cy="300.01" r="2.5" fill="#2563eb"/>
  <circle cx="398.22" cy="299.97" r="2.5" fill="#2563eb"/>
  <circle cx="399.40" cy="249.99" r="2.5" fill="#2563eb"/>
  <circle cx="400.59" cy="299.97" r="2.5" fill="#2563eb"/>
  <circle cx="401.77" cy="299.97" r="2.5" fill="#2563eb"/>
  <circle cx="402.96" cy="300.06" r="2.5" fill="#2563eb"/>
  <circle cx="404.14" cy="300.06" r="2.5" fill="#2563eb"/>
  <circle cx="405.33" cy="249.94" r="2.5" fill="#2563eb"/>
  <circle cx="406.51" cy="300.01" r="2.5" fill="#2563eb"/>
  <circle cx="407.70" cy="299.93" r="2.5" fill="#2563eb"/>
  <circle cx="408.88" cy="300.01" r="2.5" fill="#2563eb"/>
  <circle cx="410.07" cy="300.01" r="2.5" fill="#2563eb"/>
  <circle cx="411.25" cy="249.99" r="2.5" fill="#2563eb"/>
  <circle cx="412.43" cy="300.01" r="2.5" fill="#2563eb"/>
  <circle cx="413.62" cy="300.01" r="2.5" fill="#2563eb"/>
  <circle cx="414.80" cy="300.01" r="2.5" fill="#2563eb"/>
  <circle cx="415.99" cy="299.93" r="2.5" fill="#2563eb"/>
  <circle cx="417.17" cy="299.93" r="2.5" fill="#2563eb"/>
  <circle cx="418.36" cy="300.01" r="2.5" fill="#2563eb"/>
  <circle cx="419.54" cy="300.01" r="2.5" fill="#2563eb"/>
  <circle cx="420.73" cy="249.94" r="2.5" fill="#2563eb"/>
  <circle cx="421.91" cy="299.97" r="2.5" fill="#2563eb"/>
  <circle cx="423.10" cy="299.97" r="2.5" fill="#2563eb"/>
  <circle cx="424.28" cy="300.01" r="2.5" fill="#2563eb"/>
  <circle cx="425.47" cy="300.01" r="2.5" fill="#2563eb"/>
  <circle cx="426.65" cy="300.01" r="2.5" fill="#2563eb"/>
  <circle cx="427.84" cy="249.99" r="2.5" fill="#2563eb"/>
  <circle cx="429.02" cy="300.01" r="2.5" fill="#2563eb"/>
  <circle cx="430.21" cy="300.01" r="2.5" fill="#2563eb"/>
  <circle cx="431.39" cy="300.01" r="2.5" fill="#2563eb"/>
  <circle cx="432.58" cy="250.03" r="2.5" fill="#2563eb"/>
  <circle cx="433.76" cy="300.01" r="2.5" fill="#2563eb"/>
  <circle cx="434.95" cy="300.01" r="2.5" fill="#2563eb"/>
  <circle cx="436.13" cy="300.01" r="2.5" fill="#2563eb"/>
  <circle cx="437.32" cy="299.97" r="2.5" fill="#2563eb"/>
  <circle cx="438.50" cy="300.01" r="2.5" fill="#2563eb"/>
  <circle cx="439.69" cy="300.01" r="2.5" fill="#2563eb"/>
  <circle cx="440.87" cy="299.97" r="2.5" fill="#2563eb"/>
  <circle cx="442.06" cy="299.97" r="2.5" fill="#2563eb"/>
  <circle cx="443.24" cy="300.01" r="2.5" fill="#2563eb"/>
  <circle cx="444.43" cy="300.01" r="2.5" fill="#2563eb"/>
  <circle cx="445.61" cy="299.97" r="2.5" fill="#2563eb"/>
  <circle cx="446.80" cy="299.93" r="2.5" fill="#2563eb"/>
  <circle cx="447.98" cy="300.01" r="2.5" fill="#2563eb"/>
  <circle cx="449.17" cy="300.06" r="2.5" fill="#2563eb"/>
  <circle cx="450.35" cy="299.97" r="2.5" fill="#2563eb"/>
  <circle cx="451.54" cy="300.01" r="2.5" fill="#2563eb"/>
  <circle cx="452.72" cy="250.03" r="2.5" fill="#2563eb"/>
  <circle cx="453.91" cy="250.03" r="2.5" fill="#2563eb"/>
  <circle cx="455.09" cy="299.93" r="2.5" fill="#2563eb"/>
  <circle cx="456.28" cy="299.97" r="2.5" fill="#2563eb"/>
  <circle cx="457.46" cy="300.01" r="2.5" fill="#2563eb"/>
  <circle cx="458.65" cy="300.01" r="2.5" fill="#2563eb"/>
  <circle cx="459.83" cy="300.06" r="2.5" fill="#2563eb"/>
  <circle cx="461.02" cy="300.01" r="2.5" fill="#2563eb"/>
  <circle cx="462.20" cy="299.93" r="2.5" fill="#2563eb"/>
  <circle cx="463.39" cy="300.01" r="2.5" fill="#2563eb"/>
  <circle cx="464.57" cy="300.01" r="2.5" fill="#2563eb"/>
  <circle cx="465.76" cy="299.97" r="2.5" fill="#2563eb"/>
  <circle cx="466.94" cy="299.97" r="2.5" fill="#2563eb"/>
  <circle cx="468.12" cy="300.01" r="2.5" fill="#2563eb"/>
  <circle cx="469.31" cy="250.03" r="2.5" fill="#2563eb"/>
  <circle cx="470.49" cy="300.01" r="2.5" fill="#2563eb"/>
  <circle cx="471.68" cy="300.01" r="2.5" fill="#2563eb"/>
  <circle cx="472.86" cy="300.01" r="2.5" fill="#2563eb"/>
  <circle cx="474.05" cy="299.97" r="2.5" fill="#2563eb"/>
  <circle cx="475.23" cy="300.01" r="2.5" fill="#2563eb"/>
  <circle cx="476.42" cy="299.97" r="2.5" fill="#2563eb"/>
  <circle cx="477.60" cy="300.01" r="2.5" fill="#2563eb"/>
  <circle cx="478.79" cy="299.97" r="2.5" fill="#2563eb"/>
  <circle cx="479.97" cy="299.97" r="2.5" fill="#2563eb"/>
  <circle cx="481.16" cy="299.93" r="2.5" fill="#2563eb"/>
  <circle cx="482.34" cy="300.01" r="2.5" fill="#2563eb"/>
  <circle cx="483.53" cy="300.01" r="2.5" fill="#2563eb"/>
  <circle cx="484.71" cy="299.89" r="2.5" fill="#2563eb"/>
  <circle cx="485.90" cy="299.97" r="2.5" fill="#2563eb"/>
  <circle cx="487.08" cy="299.97" r="2.5" fill="#2563eb"/>
  <circle cx="488.27" cy="300.06" r="2.5" fill="#2563eb"/>
  <circle cx="489.45" cy="249.90" r="2.5" fill="#2563eb"/>
  <circle cx="490.64" cy="299.89" r="2.5" fill="#2563eb"/>
  <circle cx="491.82" cy="300.01" r="2.5" fill="#2563eb"/>
  <circle cx="493.01" cy="299.97" r="2.5" fill="#2563eb"/>
  <circle cx="494.19" cy="299.97" r="2.5" fill="#2563eb"/>
  <circle cx="495.38" cy="299.97" r="2.5" fill="#2563eb"/>
  <circle cx="496.56" cy="300.01" r="2.5" fill="#2563eb"/>
  <circle cx="497.75" cy="300.01" r="2.5" fill="#2563eb"/>
  <circle cx="498.93" cy="299.97" r="2.5" fill="#2563eb"/>
  <circle cx="500.12" cy="299.97" r="2.5" fill="#2563eb"/>
  <circle cx="501.30" cy="299.97" r="2.5" fill="#2563eb"/>
  <circle cx="502.49" cy="250.03" r="2.5" fill="#2563eb"/>
  <circle cx="503.67" cy="299.93" r="2.5" fill="#2563eb"/>
  <circle cx="504.86" cy="300.01" r="2.5" fill="#2563eb"/>
  <circle cx="506.04" cy="300.01" r="2.5" fill="#2563eb"/>
  <circle cx="507.23" cy="299.93" r="2.5" fill="#2563eb"/>
  <circle cx="508.41" cy="300.01" r="2.5" fill="#2563eb"/>
  <circle cx="509.60" cy="300.01" r="2.5" fill="#2563eb"/>
  <circle cx="510.78" cy="299.97" r="2.5" fill="#2563eb"/>
  <circle cx="511.97" cy="300.01" r="2.5" fill="#2563eb"/>
  <circle cx="513.15" cy="300.01" r="2.5" fill="#2563eb"/>
  <circle cx="514.34" cy="300.06" r="2.5" fill="#2563eb"/>
  <circle cx="515.52" cy="300.01" r="2.5" fill="#2563eb"/>
  <circle cx="516.71" cy="299.97" r="2.5" fill="#2563eb"/>
  <circle cx="517.89" cy="299.89" r="2.5" fill="#2563eb"/>
  <circle cx="519.08" cy="300.01" r="2.5" fill="#2563eb"/>
  <circle cx="520.26" cy="300.01" r="2.5" fill="#2563eb"/>
  <circle cx="521.45" cy="249.94" r="2.5" fill="#2563eb"/>
  <circle cx="522.63" cy="249.94" r="2.5" fill="#2563eb"/>
  <circle cx="523.82" cy="300.01" r="2.5" fill="#2563eb"/>
  <circle cx="525.00" cy="300.01" r="2.5" fill="#2563eb"/>
  <circle cx="526.18" cy="300.01" r="2.5" fill="#2563eb"/>
  <circle cx="527.37" cy="300.01" r="2.5" fill="#2563eb"/>
  <circle cx="528.55" cy="299.97" r="2.5" fill="#2563eb"/>
  <circle cx="529.74" cy="250.03" r="2.5" fill="#2563eb"/>
  <circle cx="530.92" cy="300.01" r="2.5" fill="#2563eb"/>
  <circle cx="532.11" cy="300.01" r="2.5" fill="#2563eb"/>
  <circle cx="533.29" cy="300.01" r="2.5" fill="#2563eb"/>
  <circle cx="534.48" cy="300.01" r="2.5" fill="#2563eb"/>
  <circle cx="535.66" cy="250.03" r="2.5" fill="#2563eb"/>
  <circle cx="536.85" cy="249.99" r="2.5" fill="#2563eb"/>
  <circle cx="538.03" cy="300.01" r="2.5" fill="#2563eb"/>
  <circle cx="539.22" cy="299.97" r="2.5" fill="#2563eb"/>
  <circle cx="540.40" cy="300.01" r="2.5" fill="#2563eb"/>
  <circle cx="541.59" cy="299.97" r="2.5" fill="#2563eb"/>
  <circle cx="542.77" cy="300.01" r="2.5" fill="#2563eb"/>
  <circle cx="543.96" cy="299.97" r="2.5" fill="#2563eb"/>
  <circle cx="545.14" cy="299.97" r="2.5" fill="#2563eb"/>
  <circle cx="546.33" cy="299.97" r="2.5" fill="#2563eb"/>
  <circle cx="547.51" cy="300.06" r="2.5" fill="#2563eb"/>
  <circle cx="548.70" cy="249.99" r="2.5" fill="#2563eb"/>
  <circle cx="549.88" cy="300.01" r="2.5" fill="#2563eb"/>
  <circle cx="551.07" cy="250.03" r="2.5" fill="#2563eb"/>
  <circle cx="552.25" cy="249.94" r="2.5" fill="#2563eb"/>
  <circle cx="553.44" cy="249.99" r="2.5" fill="#2563eb"/>
  <circle cx="554.62" cy="300.01" r="2.5" fill="#2563eb"/>
  <circle cx="555.81" cy="300.06" r="2.5" fill="#2563eb"/>
  <circle cx="556.99" cy="300.01" r="2.5" fill="#2563eb"/>
  <circle cx="558.18" cy="299.97" r="2.5" fill="#2563eb"/>
  <circle cx="559.36" cy="299.97" r="2.5" fill="#2563eb"/>
  <circle cx="560.55" cy="300.01" r="2.5" fill="#2563eb"/>
  <circle cx="561.73" cy="299.93" r="2.5" fill="#2563eb"/>
  <circle cx="562.92" cy="299.89" r="2.5" fill="#2563eb"/>
  <circle cx="564.10" cy="299.89" r="2.5" fill="#2563eb"/>
  <circle cx="565.29" cy="299.89" r="2.5" fill="#2563eb"/>
  <circle cx="566.47" cy="299.89" r="2.5" fill="#2563eb"/>
  <circle cx="567.66" cy="299.85" r="2.5" fill="#2563eb"/>
  <circle cx="568.84" cy="299.85" r="2.5" fill="#2563eb"/>
  <circle cx="570.03" cy="299.89" r="2.5" fill="#2563eb"/>
  <circle cx="571.21" cy="299.81" r="2.5" fill="#2563eb"/>
  <circle cx="572.40" cy="299.81" r="2.5" fill="#2563eb"/>
  <circle cx="573.58" cy="299.81" r="2.5" fill="#2563eb"/>
  <circle cx="574.77" cy="299.76" r="2.5" fill="#2563eb"/>
  <circle cx="575.95" cy="299.76" r="2.5" fill="#2563eb"/>
  <circle cx="577.14" cy="299.76" r="2.5" fill="#2563eb"/>
  <circle cx="578.32" cy="299.72" r="2.5" fill="#2563eb"/>
  <circle cx="579.51" cy="299.68" r="2.5" fill="#2563eb"/>
  <circle cx="580.69" cy="299.60" r="2.5" fill="#2563eb"/>
  <circle cx="581.88" cy="299.60" r="2.5" fill="#2563eb"/>
  <circle cx="583.06" cy="299.60" r="2.5" fill="#2563eb"/>
  <circle cx="584.24" cy="299.56" r="2.5" fill="#2563eb"/>
  <circle cx="585.43" cy="299.47" r="2.5" fill="#2563eb"/>
  <circle cx="586.61" cy="299.43" r="2.5" fill="#2563eb"/>
  <circle cx="587.80" cy="299.43" r="2.5" fill="#2563eb"/>
  <circle cx="588.98" cy="299.39" r="2.5" fill="#2563eb"/>
  <circle cx="590.17" cy="299.47" r="2.5" fill="#2563eb"/>
  <circle cx="591.35" cy="259.82" r="2.5" fill="#2563eb"/>
  <circle cx="592.54" cy="338.96" r="2.5" fill="#2563eb"/>
  <circle cx="593.72" cy="299.31" r="2.5" fill="#2563eb"/>
  <circle cx="594.91" cy="299.31" r="2.5" fill="#2563eb"/>
  <circle cx="596.09" cy="299.26" r="2.5" fill="#2563eb"/>
  <circle cx="597.28" cy="299.68" r="2.5" fill="#2563eb"/>
  <circle cx="598.46" cy="299.68" r="2.5" fill="#2563eb"/>
  <circle cx="599.65" cy="299.68" r="2.5" fill="#2563eb"/>
  <circle cx="600.83" cy="299.64" r="2.5" fill="#2563eb"/>
  <circle cx="602.02" cy="299.14" r="2.5" fill="#2563eb"/>
  <circle cx="603.20" cy="299.14" r="2.5" fill="#2563eb"/>
  <circle cx="604.39" cy="299.10" r="2.5" fill="#2563eb"/>
  <circle cx="605.57" cy="299.10" r="2.5" fill="#2563eb"/>
  <circle cx="606.76" cy="299.10" r="2.5" fill="#2563eb"/>
  <circle cx="607.94" cy="248.07" r="2.5" fill="#2563eb"/>
  <circle cx="609.13" cy="299.06" r="2.5" fill="#2563eb"/>
  <circle cx="610.31" cy="299.06" r="2.5" fill="#2563eb"/>
  <circle cx="611.50" cy="299.06" r="2.5" fill="#2563eb"/>
  <circle cx="612.68" cy="299.06" r="2.5" fill="#2563eb"/>
  <circle cx="613.87" cy="299.06" r="2.5" fill="#2563eb"/>
  <circle cx="615.05" cy="298.97" r="2.5" fill="#2563eb"/>
  <circle cx="616.24" cy="298.97" r="2.5" fill="#2563eb"/>
  <circle cx="617.42" cy="298.93" r="2.5" fill="#2563eb"/>
  <circle cx="618.61" cy="298.97" r="2.5" fill="#2563eb"/>
  <circle cx="619.79" cy="298.93" r="2.5" fill="#2563eb"/>
  <circle cx="620.98" cy="298.89" r="2.5" fill="#2563eb"/>
  <circle cx="622.16" cy="298.89" r="2.5" fill="#2563eb"/>
  <circle cx="623.35" cy="298.89" r="2.5" fill="#2563eb"/>
  <circle cx="624.53" cy="298.89" r="2.5" fill="#2563eb"/>
  <circle cx="625.72" cy="247.78" r="2.5" fill="#2563eb"/>
  <circle cx="626.90" cy="298.89" r="2.5" fill="#2563eb"/>
  <circle cx="628.09" cy="298.89" r="2.5" fill="#2563eb"/>
  <circle cx="629.27" cy="298.85" r="2.5" fill="#2563eb"/>
  <circle cx="630.46" cy="298.85" r="2.5" fill="#2563eb"/>
  <circle cx="631.64" cy="298.81" r="2.5" fill="#2563eb"/>
  <circle cx="632.83" cy="298.81" r="2.5" fill="#2563eb"/>
  <circle cx="634.01" cy="298.81" r="2.5" fill="#2563eb"/>
  <circle cx="635.20" cy="298.81" r="2.5" fill="#2563eb"/>
  <circle cx="636.38" cy="298.81" r="2.5" fill="#2563eb"/>
  <circle cx="637.57" cy="298.81" r="2.5" fill="#2563eb"/>
  <circle cx="638.75" cy="298.81" r="2.5" fill="#2563eb"/>
  <circle cx="639.93" cy="298.81" r="2.5" fill="#2563eb"/>
  <circle cx="641.12" cy="298.81" r="2.5" fill="#2563eb"/>
  <circle cx="642.30" cy="298.72" r="2.5" fill="#2563eb"/>
  <circle cx="643.49" cy="247.45" r="2.5" fill="#2563eb"/>
  <circle cx="644.67" cy="247.45" r="2.5" fill="#2563eb"/>
  <circle cx="645.86" cy="298.72" r="2.5" fill="#2563eb"/>
  <circle cx="647.04" cy="298.72" r="2.5" fill="#2563eb"/>
  <circle cx="648.23" cy="298.72" r="2.5" fill="#2563eb"/>
  <circle cx="649.41" cy="298.72" r="2.5" fill="#2563eb"/>
  <circle cx="650.60" cy="298.72" r="2.5" fill="#2563eb"/>
  <circle cx="651.78" cy="298.72" r="2.5" fill="#2563eb"/>
  <circle cx="652.97" cy="247.36" r="2.5" fill="#2563eb"/>
  <circle cx="654.15" cy="298.68" r="2.5" fill="#2563eb"/>
  <circle cx="655.34" cy="247.36" r="2.5" fill="#2563eb"/>
  <circle cx="656.52" cy="247.36" r="2.5" fill="#2563eb"/>
  <circle cx="657.71" cy="247.36" r="2.5" fill="#2563eb"/>
  <circle cx="658.89" cy="298.68" r="2.5" fill="#2563eb"/>
  <circle cx="660.08" cy="298.68" r="2.5" fill="#2563eb"/>
  <circle cx="661.26" cy="298.68" r="2.5" fill="#2563eb"/>
  <circle cx="662.45" cy="298.68" r="2.5" fill="#2563eb"/>
  <circle cx="663.63" cy="298.68" r="2.5" fill="#2563eb"/>
  <circle cx="664.82" cy="341.67" r="2.5" fill="#2563eb"/>
  <circle cx="666.00" cy="307.01" r="2.5" fill="#2563eb"/>
  <circle cx="667.19" cy="298.68" r="2.5" fill="#2563eb"/>
  <circle cx="668.37" cy="298.68" r="2.5" fill="#2563eb"/>
  <circle cx="669.56" cy="298.68" r="2.5" fill="#2563eb"/>
  <circle cx="670.74" cy="247.36" r="2.5" fill="#2563eb"/>
  <circle cx="671.93" cy="298.64" r="2.5" fill="#2563eb"/>
  <circle cx="673.11" cy="247.36" r="2.5" fill="#2563eb"/>
  <circle cx="674.30" cy="247.28" r="2.5" fill="#2563eb"/>
  <circle cx="675.48" cy="247.20" r="2.5" fill="#2563eb"/>
  <circle cx="676.67" cy="298.60" r="2.5" fill="#2563eb"/>
  <circle cx="677.85" cy="298.60" r="2.5" fill="#2563eb"/>
  <circle cx="679.04" cy="247.03" r="2.5" fill="#2563eb"/>
  <circle cx="680.22" cy="298.51" r="2.5" fill="#2563eb"/>
  <circle cx="681.41" cy="298.51" r="2.5" fill="#2563eb"/>
  <circle cx="682.59" cy="298.51" r="2.5" fill="#2563eb"/>
  <circle cx="683.78" cy="298.51" r="2.5" fill="#2563eb"/>
  <circle cx="684.96" cy="298.51" r="2.5" fill="#2563eb"/>
  <circle cx="686.15" cy="298.51" r="2.5" fill="#2563eb"/>
  <circle cx="687.33" cy="298.51" r="2.5" fill="#2563eb"/>
  <circle cx="688.52" cy="298.51" r="2.5" fill="#2563eb"/>
  <circle cx="689.70" cy="298.51" r="2.5" fill="#2563eb"/>
  <circle cx="690.89" cy="298.51" r="2.5" fill="#2563eb"/>
  <circle cx="692.07" cy="298.51" r="2.5" fill="#2563eb"/>
  <circle cx="693.26" cy="298.51" r="2.5" fill="#2563eb"/>
  <circle cx="694.44" cy="298.51" r="2.5" fill="#2563eb"/>
  <circle cx="695.62" cy="298.51" r="2.5" fill="#2563eb"/>
  <circle cx="696.81" cy="298.51" r="2.5" fill="#2563eb"/>
  <circle cx="697.99" cy="298.51" r="2.5" fill="#2563eb"/>
  <circle cx="699.18" cy="298.51" r="2.5" fill="#2563eb"/>
  <circle cx="700.36" cy="298.51" r="2.5" fill="#2563eb"/>
  <circle cx="701.55" cy="298.51" r="2.5" fill="#2563eb"/>
  <circle cx="702.73" cy="298.51" r="2.5" fill="#2563eb"/>
  <circle cx="703.92" cy="298.51" r="2.5" fill="#2563eb"/>
  <circle cx="705.10" cy="298.51" r="2.5" fill="#2563eb"/>
  <circle cx="706.29" cy="298.51" r="2.5" fill="#2563eb"/>
  <circle cx="707.47" cy="298.51" r="2.5" fill="#2563eb"/>
  <circle cx="708.66" cy="298.51" r="2.5" fill="#2563eb"/>
  <circle cx="709.84" cy="298.51" r="2.5" fill="#2563eb"/>
  <circle cx="711.03" cy="298.47" r="2.5" fill="#2563eb"/>
  <circle cx="712.21" cy="298.51" r="2.5" fill="#2563eb"/>
  <circle cx="713.40" cy="298.51" r="2.5" fill="#2563eb"/>
  <circle cx="714.58" cy="298.47" r="2.5" fill="#2563eb"/>
  <circle cx="715.77" cy="298.51" r="2.5" fill="#2563eb"/>
  <circle cx="716.95" cy="298.47" r="2.5" fill="#2563eb"/>
  <circle cx="718.14" cy="298.51" r="2.5" fill="#2563eb"/>
  <circle cx="719.32" cy="298.43" r="2.5" fill="#2563eb"/>
  <circle cx="720.51" cy="298.56" r="2.5" fill="#2563eb"/>
  <circle cx="721.69" cy="298.43" r="2.5" fill="#2563eb"/>
  <circle cx="722.88" cy="298.43" r="2.5" fill="#2563eb"/>
  <circle cx="724.06" cy="298.43" r="2.5" fill="#2563eb"/>
  <circle cx="725.25" cy="298.43" r="2.5" fill="#2563eb"/>
  <circle cx="726.43" cy="298.43" r="2.5" fill="#2563eb"/>
  <circle cx="727.62" cy="298.43" r="2.5" fill="#2563eb"/>
  <circle cx="728.80" cy="298.43" r="2.5" fill="#2563eb"/>
  <circle cx="729.99" cy="298.43" r="2.5" fill="#2563eb"/>
  <circle cx="731.17" cy="298.43" r="2.5" fill="#2563eb"/>
  <circle cx="732.36" cy="298.43" r="2.5" fill="#2563eb"/>
  <circle cx="733.54" cy="298.43" r="2.5" fill="#2563eb"/>
  <circle cx="734.73" cy="298.43" r="2.5" fill="#2563eb"/>
  <circle cx="735.91" cy="298.43" r="2.5" fill="#2563eb"/>
  <circle cx="737.10" cy="298.43" r="2.5" fill="#2563eb"/>
  <circle cx="738.28" cy="298.43" r="2.5" fill="#2563eb"/>
  <circle cx="739.47" cy="298.43" r="2.5" fill="#2563eb"/>
  <circle cx="740.65" cy="298.43" r="2.5" fill="#2563eb"/>
  <circle cx="741.84" cy="298.43" r="2.5" fill="#2563eb"/>
  <circle cx="743.02" cy="298.43" r="2.5" fill="#2563eb"/>
  <circle cx="744.21" cy="298.43" r="2.5" fill="#2563eb"/>
  <circle cx="745.39" cy="298.43" r="2.5" fill="#2563eb"/>
  <circle cx="746.58" cy="298.43" r="2.5" fill="#2563eb"/>
  <circle cx="747.76" cy="298.43" r="2.5" fill="#2563eb"/>
  <circle cx="748.95" cy="298.43" r="2.5" fill="#2563eb"/>
  <circle cx="750.13" cy="298.43" r="2.5" fill="#2563eb"/>
  <circle cx="751.32" cy="298.43" r="2.5" fill="#2563eb"/>
  <circle cx="752.50" cy="298.43" r="2.5" fill="#2563eb"/>
  <circle cx="753.68" cy="298.43" r="2.5" fill="#2563eb"/>
  <circle cx="754.87" cy="298.43" r="2.5" fill="#2563eb"/>
  <circle cx="756.05" cy="298.43" r="2.5" fill="#2563eb"/>
  <circle cx="757.24" cy="298.43" r="2.5" fill="#2563eb"/>
  <circle cx="758.42" cy="298.43" r="2.5" fill="#2563eb"/>
  <circle cx="759.61" cy="298.43" r="2.5" fill="#2563eb"/>
  <circle cx="760.79" cy="298.43" r="2.5" fill="#2563eb"/>
  <circle cx="761.98" cy="298.39" r="2.5" fill="#2563eb"/>
  <circle cx="763.16" cy="298.39" r="2.5" fill="#2563eb"/>
  <circle cx="764.35" cy="298.43" r="2.5" fill="#2563eb"/>
  <circle cx="765.53" cy="298.43" r="2.5" fill="#2563eb"/>
  <circle cx="766.72" cy="298.39" r="2.5" fill="#2563eb"/>
  <circle cx="767.90" cy="298.39" r="2.5" fill="#2563eb"/>
  <circle cx="769.09" cy="298.39" r="2.5" fill="#2563eb"/>
  <circle cx="770.27" cy="298.43" r="2.5" fill="#2563eb"/>
  <circle cx="771.46" cy="298.43" r="2.5" fill="#2563eb"/>
  <circle cx="772.64" cy="298.43" r="2.5" fill="#2563eb"/>
  <circle cx="773.83" cy="246.82" r="2.5" fill="#2563eb"/>
  <circle cx="775.01" cy="298.43" r="2.5" fill="#2563eb"/>
  <circle cx="776.20" cy="246.78" r="2.5" fill="#2563eb"/>
  <circle cx="777.38" cy="246.78" r="2.5" fill="#2563eb"/>
  <circle cx="778.57" cy="246.78" r="2.5" fill="#2563eb"/>
  <circle cx="779.75" cy="246.70" r="2.5" fill="#2563eb"/>
  <circle cx="780.94" cy="246.78" r="2.5" fill="#2563eb"/>
  <circle cx="782.12" cy="298.39" r="2.5" fill="#2563eb"/>
  <circle cx="783.31" cy="298.39" r="2.5" fill="#2563eb"/>
  <circle cx="784.49" cy="298.39" r="2.5" fill="#2563eb"/>
  <circle cx="785.68" cy="298.39" r="2.5" fill="#2563eb"/>
  <circle cx="786.86" cy="298.39" r="2.5" fill="#2563eb"/>
  <circle cx="788.05" cy="246.78" r="2.5" fill="#2563eb"/>
  <circle cx="789.23" cy="298.39" r="2.5" fill="#2563eb"/>
  <circle cx="790.42" cy="298.39" r="2.5" fill="#2563eb"/>
  <circle cx="791.60" cy="298.39" r="2.5" fill="#2563eb"/>
  <circle cx="792.79" cy="298.39" r="2.5" fill="#2563eb"/>
  <circle cx="793.97" cy="298.39" r="2.5" fill="#2563eb"/>
  <circle cx="795.16" cy="246.78" r="2.5" fill="#2563eb"/>
  <circle cx="796.34" cy="246.78" r="2.5" fill="#2563eb"/>
  <circle cx="797.53" cy="298.39" r="2.5" fill="#2563eb"/>
  <circle cx="798.71" cy="298.39" r="2.5" fill="#2563eb"/>
  <circle cx="799.90" cy="298.39" r="2.5" fill="#2563eb"/>
  <circle cx="801.08" cy="298.39" r="2.5" fill="#2563eb"/>
  <circle cx="802.27" cy="298.39" r="2.5" fill="#2563eb"/>
  <circle cx="803.45" cy="298.39" r="2.5" fill="#2563eb"/>
  <circle cx="804.64" cy="298.39" r="2.5" fill="#2563eb"/>
  <circle cx="805.82" cy="298.39" r="2.5" fill="#2563eb"/>
  <circle cx="807.01" cy="298.39" r="2.5" fill="#2563eb"/>
  <circle cx="808.19" cy="298.39" r="2.5" fill="#2563eb"/>
  <circle cx="809.38" cy="298.39" r="2.5" fill="#2563eb"/>
  <circle cx="810.56" cy="298.39" r="2.5" fill="#2563eb"/>
  <circle cx="811.74" cy="298.39" r="2.5" fill="#2563eb"/>
  <circle cx="812.93" cy="298.39" r="2.5" fill="#2563eb"/>
  <circle cx="814.11" cy="298.35" r="2.5" fill="#2563eb"/>
  <circle cx="815.30" cy="298.39" r="2.5" fill="#2563eb"/>
  <circle cx="816.48" cy="298.39" r="2.5" fill="#2563eb"/>
  <circle cx="817.67" cy="298.35" r="2.5" fill="#2563eb"/>
  <circle cx="818.85" cy="298.35" r="2.5" fill="#2563eb"/>
  <circle cx="820.04" cy="298.35" r="2.5" fill="#2563eb"/>
  <circle cx="821.22" cy="298.35" r="2.5" fill="#2563eb"/>
  <circle cx="822.41" cy="298.35" r="2.5" fill="#2563eb"/>
  <circle cx="823.59" cy="298.35" r="2.5" fill="#2563eb"/>
  <circle cx="824.78" cy="298.35" r="2.5" fill="#2563eb"/>
  <circle cx="825.96" cy="298.35" r="2.5" fill="#2563eb"/>
  <circle cx="827.15" cy="298.35" r="2.5" fill="#2563eb"/>
  <circle cx="828.33" cy="298.35" r="2.5" fill="#2563eb"/>
  <circle cx="829.52" cy="298.35" r="2.5" fill="#2563eb"/>
  <circle cx="830.70" cy="298.35" r="2.5" fill="#2563eb"/>
  <circle cx="831.89" cy="298.35" r="2.5" fill="#2563eb"/>
  <circle cx="833.07" cy="298.35" r="2.5" fill="#2563eb"/>
  <circle cx="834.26" cy="298.35" r="2.5" fill="#2563eb"/>
  <circle cx="835.44" cy="298.35" r="2.5" fill="#2563eb"/>
  <circle cx="836.63" cy="298.35" r="2.5" fill="#2563eb"/>
  <circle cx="837.81" cy="298.35" r="2.5" fill="#2563eb"/>
  <circle cx="839.00" cy="298.35" r="2.5" fill="#2563eb"/>
  <circle cx="840.18" cy="298.35" r="2.5" fill="#2563eb"/>
  <circle cx="841.37" cy="298.35" r="2.5" fill="#2563eb"/>
  <circle cx="842.55" cy="298.35" r="2.5" fill="#2563eb"/>
  <circle cx="843.74" cy="298.35" r="2.5" fill="#2563eb"/>
  <circle cx="844.92" cy="298.35" r="2.5" fill="#2563eb"/>
  <circle cx="846.11" cy="298.35" r="2.5" fill="#2563eb"/>
  <circle cx="847.29" cy="298.35" r="2.5" fill="#2563eb"/>
  <circle cx="848.48" cy="298.35" r="2.5" fill="#2563eb"/>
  <circle cx="849.66" cy="298.35" r="2.5" fill="#2563eb"/>
  <circle cx="850.85" cy="298.35" r="2.5" fill="#2563eb"/>
  <circle cx="852.03" cy="298.35" r="2.5" fill="#2563eb"/>
  <circle cx="853.22" cy="298.35" r="2.5" fill="#2563eb"/>
  <circle cx="854.40" cy="298.35" r="2.5" fill="#2563eb"/>
  <circle cx="855.59" cy="298.35" r="2.5" fill="#2563eb"/>
  <circle cx="856.77" cy="298.35" r="2.5" fill="#2563eb"/>
  <circle cx="857.96" cy="298.35" r="2.5" fill="#2563eb"/>
  <circle cx="859.14" cy="298.35" r="2.5" fill="#2563eb"/>
  <circle cx="860.33" cy="298.35" r="2.5" fill="#2563eb"/>
  <circle cx="861.51" cy="298.35" r="2.5" fill="#2563eb"/>
  <circle cx="862.70" cy="298.35" r="2.5" fill="#2563eb"/>
  <circle cx="863.88" cy="298.35" r="2.5" fill="#2563eb"/>
  <circle cx="865.07" cy="298.35" r="2.5" fill="#2563eb"/>
  <circle cx="866.25" cy="298.35" r="2.5" fill="#2563eb"/>
  <circle cx="867.43" cy="298.35" r="2.5" fill="#2563eb"/>
  <circle cx="868.62" cy="298.35" r="2.5" fill="#2563eb"/>
  <circle cx="869.80" cy="298.35" r="2.5" fill="#2563eb"/>
  <circle cx="870.99" cy="298.35" r="2.5" fill="#2563eb"/>
  <circle cx="872.17" cy="298.35" r="2.5" fill="#2563eb"/>
  <circle cx="873.36" cy="298.35" r="2.5" fill="#2563eb"/>
  <circle cx="874.54" cy="298.35" r="2.5" fill="#2563eb"/>
  <circle cx="875.73" cy="298.35" r="2.5" fill="#2563eb"/>
  <circle cx="876.91" cy="298.35" r="2.5" fill="#2563eb"/>
  <circle cx="878.10" cy="298.35" r="2.5" fill="#2563eb"/>
  <circle cx="879.28" cy="298.39" r="2.5" fill="#2563eb"/>
  <circle cx="880.47" cy="298.39" r="2.5" fill="#2563eb"/>
  <circle cx="881.65" cy="298.39" r="2.5" fill="#2563eb"/>
  <circle cx="882.84" cy="246.78" r="2.5" fill="#2563eb"/>
  <circle cx="884.02" cy="298.39" r="2.5" fill="#2563eb"/>
  <circle cx="885.21" cy="298.39" r="2.5" fill="#2563eb"/>
  <circle cx="886.39" cy="298.39" r="2.5" fill="#2563eb"/>
  <circle cx="887.58" cy="298.39" r="2.5" fill="#2563eb"/>
  <circle cx="888.76" cy="298.39" r="2.5" fill="#2563eb"/>
  <circle cx="889.95" cy="298.39" r="2.5" fill="#2563eb"/>
  <circle cx="891.13" cy="298.39" r="2.5" fill="#2563eb"/>
  <circle cx="892.32" cy="246.78" r="2.5" fill="#2563eb"/>
  <circle cx="893.50" cy="298.39" r="2.5" fill="#2563eb"/>
  <circle cx="894.69" cy="298.39" r="2.5" fill="#2563eb"/>
  <circle cx="895.87" cy="298.39" r="2.5" fill="#2563eb"/>
  <circle cx="897.06" cy="298.39" r="2.5" fill="#2563eb"/>
  <circle cx="898.24" cy="298.39" r="2.5" fill="#2563eb"/>
  <circle cx="899.43" cy="298.39" r="2.5" fill="#2563eb"/>
  <circle cx="900.61" cy="298.39" r="2.5" fill="#2563eb"/>
  <circle cx="901.80" cy="246.78" r="2.5" fill="#2563eb"/>
  <circle cx="902.98" cy="298.39" r="2.5" fill="#2563eb"/>
  <circle cx="904.17" cy="298.39" r="2.5" fill="#2563eb"/>
  <circle cx="905.35" cy="298.39" r="2.5" fill="#2563eb"/>
  <circle cx="906.54" cy="298.39" r="2.5" fill="#2563eb"/>
  <circle cx="907.72" cy="298.39" r="2.5" fill="#2563eb"/>
  <circle cx="908.91" cy="298.39" r="2.5" fill="#2563eb"/>
  <circle cx="910.09" cy="298.39" r="2.5" fill="#2563eb"/>
  <circle cx="911.28" cy="298.39" r="2.5" fill="#2563eb"/>
  <circle cx="912.46" cy="298.39" r="2.5" fill="#2563eb"/>
  <circle cx="913.65" cy="298.39" r="2.5" fill="#2563eb"/>
  <circle cx="914.83" cy="298.39" r="2.5" fill="#2563eb"/>
  <circle cx="916.02" cy="298.35" r="2.5" fill="#2563eb"/>
  <circle cx="917.20" cy="298.39" r="2.5" fill="#2563eb"/>
  <circle cx="918.39" cy="298.39" r="2.5" fill="#2563eb"/>
  <circle cx="919.57" cy="298.39" r="2.5" fill="#2563eb"/>
  <circle cx="920.76" cy="298.35" r="2.5" fill="#2563eb"/>
  <circle cx="921.94" cy="298.35" r="2.5" fill="#2563eb"/>
  <circle cx="923.12" cy="298.35" r="2.5" fill="#2563eb"/>
  <circle cx="924.31" cy="298.35" r="2.5" fill="#2563eb"/>
  <circle cx="925.49" cy="298.35" r="2.5" fill="#2563eb"/>
  <circle cx="926.68" cy="298.35" r="2.5" fill="#2563eb"/>
  <circle cx="927.86" cy="298.35" r="2.5" fill="#2563eb"/>
  <circle cx="929.05" cy="298.35" r="2.5" fill="#2563eb"/>
  <circle cx="930.23" cy="298.35" r="2.5" fill="#2563eb"/>
  <circle cx="931.42" cy="298.35" r="2.5" fill="#2563eb"/>
  <circle cx="932.60" cy="298.35" r="2.5" fill="#2563eb"/>
  <circle cx="933.79" cy="298.35" r="2.5" fill="#2563eb"/>
  <circle cx="934.97" cy="298.35" r="2.5" fill="#2563eb"/>
  <circle cx="936.16" cy="298.35" r="2.5" fill="#2563eb"/>
  <circle cx="937.34" cy="298.35" r="2.5" fill="#2563eb"/>
  <circle cx="938.53" cy="298.35" r="2.5" fill="#2563eb"/>
  <circle cx="939.71" cy="298.39" r="2.5" fill="#2563eb"/>
  <circle cx="940.90" cy="298.39" r="2.5" fill="#2563eb"/>
  <circle cx="942.08" cy="298.39" r="2.5" fill="#2563eb"/>
  <circle cx="943.27" cy="298.39" r="2.5" fill="#2563eb"/>
  <circle cx="944.45" cy="298.39" r="2.5" fill="#2563eb"/>
  <circle cx="945.64" cy="298.39" r="2.5" fill="#2563eb"/>
  <circle cx="946.82" cy="298.35" r="2.5" fill="#2563eb"/>
  <circle cx="948.01" cy="298.39" r="2.5" fill="#2563eb"/>
  <circle cx="949.19" cy="298.39" r="2.5" fill="#2563eb"/>
  <circle cx="950.38" cy="298.39" r="2.5" fill="#2563eb"/>
  <circle cx="951.56" cy="298.39" r="2.5" fill="#2563eb"/>
  <circle cx="952.75" cy="298.39" r="2.5" fill="#2563eb"/>
  <circle cx="953.93" cy="298.39" r="2.5" fill="#2563eb"/>
  <circle cx="955.12" cy="298.39" r="2.5" fill="#2563eb"/>
  <circle cx="956.30" cy="298.39" r="2.5" fill="#2563eb"/>
  <circle cx="957.49" cy="298.39" r="2.5" fill="#2563eb"/>
  <circle cx="958.67" cy="298.35" r="2.5" fill="#2563eb"/>
  <circle cx="959.86" cy="298.39" r="2.5" fill="#2563eb"/>
  <circle cx="961.04" cy="298.39" r="2.5" fill="#2563eb"/>
  <circle cx="962.23" cy="298.39" r="2.5" fill="#2563eb"/>
  <circle cx="963.41" cy="298.39" r="2.5" fill="#2563eb"/>
  <circle cx="964.60" cy="298.39" r="2.5" fill="#2563eb"/>
  <circle cx="965.78" cy="298.39" r="2.5" fill="#2563eb"/>
  <circle cx="966.97" cy="298.39" r="2.5" fill="#2563eb"/>
  <circle cx="968.15" cy="298.39" r="2.5" fill="#2563eb"/>
  <circle cx="969.34" cy="298.39" r="2.5" fill="#2563eb"/>
  <circle cx="970.52" cy="298.39" r="2.5" fill="#2563eb"/>
  <circle cx="971.71" cy="298.39" r="2.5" fill="#2563eb"/>
  <circle cx="972.89" cy="298.39" r="2.5" fill="#2563eb"/>
  <circle cx="974.08" cy="298.39" r="2.5" fill="#2563eb"/>
  <circle cx="975.26" cy="298.39" r="2.5" fill="#2563eb"/>
  <circle cx="976.45" cy="298.39" r="2.5" fill="#2563eb"/>
  <circle cx="977.63" cy="298.39" r="2.5" fill="#2563eb"/>
  <circle cx="978.82" cy="298.35" r="2.5" fill="#2563eb"/>
  <circle cx="980.00" cy="298.35" r="2.5" fill="#2563eb"/>
</svg>
