<?xml version="1.0" encoding="UTF-8"?>
<svg xmlns="http://www.w3.org/2000/svg" width="1000" height="420" viewBox="0 0 1000 420">
  <rect width="100%" height="100%" fill="#ffffff"/>
  <text x="70" y="28" font-size="20" font-weight="600">수집 시점 기준 - 시간별 스냅샷</text>
  <text x="70" y="402" font-size="12" fill="#555">스냅샷 수</text>
  <line x1="70" y1="350.00" x2="980" y2="350.00" stroke="#e5e7eb" stroke-width="1"/>
  <text x="62" y="354.00" font-size="11" fill="#6b7280" text-anchor="end">0</text>
  <line x1="70" y1="290.00" x2="980" y2="290.00" stroke="#e5e7eb" stroke-width="1"/>
  <text x="62" y="294.00" font-size="11" fill="#6b7280" text-anchor="end">1,440</text>
  <line x1="70" y1="230.00" x2="980" y2="230.00" stroke="#e5e7eb" stroke-width="1"/>
  <text x="62" y="234.00" font-size="11" fill="#6b7280" text-anchor="end">2,880</text>
  <line x1="70" y1="170.00" x2="980" y2="170.00" stroke="#e5e7eb" stroke-width="1"/>
  <text x="62" y="174.00" font-size="11" fill="#6b7280" text-anchor="end">4,321</text>
  <line x1="70" y1="110.00" x2="980" y2="110.00" stroke="#e5e7eb" stroke-width="1"/>
  <text x="62" y="114.00" font-size="11" fill="#6b7280" text-anchor="end">5,761</text>
  <line x1="70" y1="50.00" x2="980" y2="50.00" stroke="#e5e7eb" stroke-width="1"/>
  <text x="62" y="54.00" font-size="11" fill="#6b7280" text-anchor="end">7,202</text>
  <line x1="70" y1="350" x2="980" y2="350" stroke="#111827" stroke-width="1.2"/>
  <line x1="70" y1="50" x2="70" y2="350" stroke="#111827" stroke-width="1.2"/>
  <line x1="70.00" y1="350" x2="70.00" y2="356" stroke="#9ca3af" stroke-width="1"/>
  <text x="70.00" y="372" font-size="10" fill="#6b7280" text-anchor="middle">2026-02-28 18</text>
  <line x1="144.74" y1="350" x2="144.74" y2="356" stroke="#9ca3af" stroke-width="1"/>
  <text x="144.74" y="372" font-size="10" fill="#6b7280" text-anchor="middle">2026-03-08 19</text>
  <line x1="219.49" y1="350" x2="219.49" y2="356" stroke="#9ca3af" stroke-width="1"/>
  <text x="219.49" y="372" font-size="10" fill="#6b7280" text-anchor="middle">2026-03-10 15</text>
  <line x1="294.23" y1="350" x2="294.23" y2="356" stroke="#9ca3af" stroke-width="1"/>
  <text x="294.23" y="372" font-size="10" fill="#6b7280" text-anchor="middle">2026-03-12 10</text>
  <line x1="368.97" y1="350" x2="368.97" y2="356" stroke="#9ca3af" stroke-width="1"/>
  <text x="368.97" y="372" font-size="10" fill="#6b7280" text-anchor="middle">2026-03-14 05</text>
  <line x1="443.72" y1="350" x2="443.72" y2="356" stroke="#9ca3af" stroke-width="1"/>
  <text x="443.72" y="372" font-size="10" fill="#6b7280" text-anchor="middle">2026-03-16 16</text>
  <line x1="518.46" y1="350" x2="518.46" y2="356" stroke="#9ca3af" stroke-width="1"/>
  <text x="518.46" y="372" font-size="10" fill="#6b7280" text-anchor="middle">2026-03-19 08</text>
  <line x1="593.20" y1="350" x2="593.20" y2="356" stroke="#9ca3af" stroke-width="1"/>
  <text x="593.20" y="372" font-size="10" fill="#6b7280" text-anchor="middle">2026-03-21 18</text>
  <line x1="667.95" y1="350" x2="667.95" y2="356" stroke="#9ca3af" stroke-width="1"/>
  <text x="667.95" y="372" font-size="10" fill="#6b7280" text-anchor="middle">2026-03-24 03</text>
  <line x1="742.69" y1="350" x2="742.69" y2="356" stroke="#9ca3af" stroke-width="1"/>
  <text x="742.69" y="372" font-size="10" fill="#6b7280" text-anchor="middle">2026-03-26 21</text>
  <line x1="817.43" y1="350" x2="817.43" y2="356" stroke="#9ca3af" stroke-width="1"/>
  <text x="817.43" y="372" font-size="10" fill="#6b7280" text-anchor="middle">2026-03-29 14</text>
  <line x1="892.18" y1="350" x2="892.18" y2="356" stroke="#9ca3af" stroke-width="1"/>
  <text x="892.18" y="372" font-size="10" fill="#6b7280" text-anchor="middle">2026-04-01 08</text>
  <line x1="966.92" y1="350" x2="966.92" y2="356" stroke="#9ca3af" stroke-width="1"/>
  <text x="966.92" y="372" font-size="10" fill="#6b7280" text-anchor="middle">2026-04-04 02</text>
  <line x1="980.00" y1="350" x2="980.00" y2="356" stroke="#9ca3af" stroke-width="1"/>
  <text x="980.00" y="372" font-size="10" fill="#6b7280" text-anchor="middle">2026-04-04 14</text>
  <polyline fill="none" stroke="#2563eb" stroke-width="2.5" points="70.00,50.00 71.87,50.12 73.74,50.17 75.61,50.46 77.47,50.00 79.34,266.90 81.21,50.12 83.08,50.08 84.95,177.46 86.82,211.58 88.69,175.34 90.55,304.14 92.42,200.46 94.29,250.94 96.16,300.01 98.03,300.06 99.90,300.01 101.77,300.01 103.63,348.00 105.50,300.01 107.37,249.99 109.24,200.00 111.11,249.99 112.98,249.99 114.85,250.03 116.71,250.03 118.58,250.03 120.45,250.40 122.32,250.90 124.19,250.90 126.06,251.32 127.93,249.94 129.79,300.01 131.66,299.93 133.53,251.03 135.40,300.68 137.27,250.03 139.14,200.00 141.01,249.99 142.87,250.03 144.74,250.03 146.61,250.03 148.48,300.01 150.35,200.04 152.22,250.03 154.09,250.03 155.95,250.03 157.82,249.90 159.69,250.03 161.56,250.03 163.43,250.94 165.30,250.44 167.17,250.03 169.03,250.03 170.90,300.47 172.77,300.01 174.64,300.43 176.51,250.03 178.38,249.99 180.25,300.43 182.11,249.90 183.98,249.99 185.85,249.99 187.72,200.04 189.59,300.01 191.46,300.01 193.33,300.01 195.20,249.90 197.06,300.01 198.93,250.03 200.80,249.99 202.67,199.96 204.54,300.01 206.41,200.00 208.28,250.36 210.14,250.03 212.01,300.01 213.88,300.01 215.75,250.44 217.62,300.01 219.49,250.03 221.36,250.03 223.22,249.99 225.09,250.49 226.96,250.03 228.83,200.04 230.70,300.01 232.57,250.03 234.44,300.01 236.30,250.11 238.17,300.01 240.04,250.03 241.91,250.03 243.78,199.92 245.65,250.03 247.52,250.03 249.38,250.03 251.25,254.36 253.12,300.01 254.99,299.97 256.86,250.36 258.73,299.97 260.60,250.03 262.46,250.03 264.33,250.03 266.20,250.03 268.07,249.99 269.94,200.00 271.81,299.93 273.68,300.01 275.54,299.97 277.41,249.94 279.28,249.99 281.15,249.82 283.02,249.94 284.89,250.28 286.76,207.00 288.62,250.03 290.49,250.32 292.36,250.40 294.23,300.93 296.10,300.01 297.97,300.10 299.84,249.94 301.70,249.99 303.57,250.07 305.44,249.99 307.31,250.03 309.18,249.94 311.05,200.00 312.92,300.39 314.78,300.01 316.65,300.01 318.52,250.44 320.39,300.39 322.26,249.86 324.13,250.11 326.00,201.46 327.86,300.01 329.73,200.83 331.60,250.03 333.47,249.99 335.34,300.26 337.21,300.01 339.08,300.01 340.94,250.03 342.81,250.03 344.68,250.03 346.55,250.03 348.42,249.99 350.29,250.03 352.16,200.00 354.02,300.26 355.89,249.99 357.76,300.01 359.63,249.94 361.50,250.03 363.37,250.03 365.24,250.03 367.10,200.04 368.97,300.01 370.84,249.90 372.71,300.01 374.58,300.01 376.45,300.06 378.32,300.01 380.18,300.01 382.05,243.95 383.92,249.94 385.79,299.97 387.66,300.01 389.53,300.01 391.40,250.03 393.26,300.01 395.13,300.01 397.00,299.97 398.87,249.99 400.74,300.01 402.61,299.93 404.48,300.01 406.34,299.93 408.21,300.01 410.08,300.01 411.95,299.89 413.82,299.97 415.69,250.03 417.56,299.93 419.43,299.89 421.29,299.97 423.16,249.94 425.03,300.01 426.90,300.01 428.77,299.97 430.64,249.99 432.51,299.97 434.37,299.97 436.24,300.06 438.11,300.06 439.98,299.93 441.85,300.01 443.72,300.01 445.59,299.93 447.45,300.01 449.32,300.01 451.19,299.97 453.06,300.01 454.93,300.01 456.80,300.01 458.67,300.01 460.53,249.86 462.40,300.01 464.27,300.10 466.14,299.93 468.01,300.01 469.88,299.93 471.75,300.01 473.61,300.01 475.48,300.01 477.35,300.01 479.22,300.01 481.09,299.97 482.96,300.01 484.83,300.01 486.69,300.01 488.56,300.01 490.43,250.03 492.30,300.01 494.17,300.01 496.04,299.97 497.91,300.01 499.77,300.01 501.64,299.97 503.51,299.97 505.38,300.01 507.25,299.97 509.12,300.01 510.99,299.93 512.85,300.01 514.72,250.03 516.59,300.01 518.46,300.01 520.33,300.01 522.20,300.01 524.07,300.01 525.93,299.89 527.80,300.01 529.67,300.01 531.54,250.07 533.41,300.01 535.28,299.93 537.15,300.01 539.01,299.97 540.88,299.97 542.75,299.97 544.62,250.03 546.49,300.01 548.36,300.01 550.23,300.01 552.09,300.01 553.96,299.97 555.83,300.01 557.70,299.97 559.57,300.01 561.44,299.97 563.31,249.90 565.17,300.01 567.04,300.01 568.91,299.89 570.78,299.97 572.65,299.97 574.52,249.99 576.39,299.97 578.25,299.89 580.12,300.01 581.99,299.97 583.86,299.97 585.73,300.01 587.60,299.97 589.47,249.99 591.33,299.97 593.20,299.97 595.07,300.06 596.94,300.06 598.81,249.94 600.68,300.01 602.55,299.93 604.41,300.01 606.28,300.01 608.15,249.99 610.02,300.01 611.89,300.01 613.76,300.01 615.63,299.93 617.49,299.93 619.36,300.01 621.23,300.01 623.10,249.94 624.97,299.97 626.84,299.97 628.71,300.01 630.57,300.01 632.44,300.01 634.31,249.99 636.18,300.01 638.05,300.01 639.92,300.01 641.79,250.03 643.66,300.01 645.52,300.01 647.39,300.01 649.26,299.97 651.13,300.01 653.00,300.01 654.87,299.97 656.74,299.97 658.60,300.01 660.47,300.01 662.34,299.97 664.21,299.93 666.08,300.01 667.95,300.06 669.82,299.97 671.68,300.01 673.55,250.03 675.42,250.03 677.29,299.93 679.16,299.97 681.03,300.01 682.90,300.01 684.76,300.06 686.63,300.01 688.50,299.93 690.37,300.01 692.24,300.01 694.11,299.97 695.98,299.97 697.84,300.01 699.71,250.03 701.58,300.01 703.45,300.01 705.32,300.01 707.19,299.97 709.06,300.01 710.92,299.97 712.79,300.01 714.66,299.97 716.53,299.97 718.40,299.93 720.27,300.01 722.14,300.01 724.00,299.89 725.87,299.97 727.74,299.97 729.61,300.06 731.48,249.90 733.35,299.89 735.22,300.01 737.08,299.97 738.95,299.97 740.82,299.97 742.69,300.01 744.56,300.01 746.43,299.97 748.30,299.97 750.16,299.97 752.03,250.03 753.90,299.93 755.77,300.01 757.64,300.01 759.51,299.93 761.38,300.01 763.24,300.01 765.11,299.97 766.98,300.01 768.85,300.01 770.72,300.06 772.59,300.01 774.46,299.97 776.32,299.89 778.19,300.01 780.06,300.01 781.93,249.94 783.80,249.94 785.67,300.01 787.54,300.01 789.40,300.01 791.27,300.01 793.14,299.97 795.01,250.03 796.88,300.01 798.75,300.01 800.62,300.01 802.48,300.01 804.35,250.03 806.22,249.99 808.09,300.01 809.96,299.97 811.83,300.01 813.70,299.97 815.56,300.01 817.43,299.97 819.30,299.97 821.17,299.97 823.04,300.06 824.91,249.99 826.78,300.01 828.64,250.03 830.51,249.94 832.38,249.99 834.25,300.01 836.12,300.06 837.99,300.01 839.86,299.97 841.72,299.97 843.59,300.01 845.46,299.93 847.33,299.89 849.20,299.89 851.07,299.89 852.94,299.89 854.80,299.85 856.67,299.85 858.54,299.89 860.41,299.81 862.28,299.81 864.15,299.81 866.02,299.76 867.89,299.76 869.75,299.76 871.62,299.72 873.49,299.68 875.36,299.60 877.23,299.60 879.10,299.60 880.97,299.56 882.83,299.47 884.70,299.43 886.57,299.43 888.44,299.39 890.31,299.47 892.18,259.82 894.05,338.96 895.91,299.31 897.78,299.31 899.65,299.26 901.52,299.68 903.39,299.68 905.26,299.68 907.13,299.64 908.99,299.14 910.86,299.14 912.73,299.10 914.60,299.10 916.47,299.10 918.34,248.07 920.21,299.06 922.07,299.06 923.94,299.06 925.81,299.06 927.68,299.06 929.55,298.97 931.42,298.97 933.29,298.93 935.15,298.97 937.02,298.93 938.89,298.89 940.76,298.89 942.63,298.89 944.50,298.89 946.37,247.78 948.23,298.89 950.10,298.89 951.97,298.85 953.84,298.85 955.71,298.81 957.58,298.81 959.45,298.81 961.31,298.81 963.18,298.81 965.05,298.81 966.92,298.81 968.79,298.81 970.66,298.81 972.53,298.72 974.39,247.45 976.26,247.45 978.13,298.72 980.00,298.72"/>
  <circle cx="70.00" cy="50.00" r="2.5" fill="#2563eb"/>
  <circle cx="71.87" cy="50.12" r="2.5" fill="#2563eb"/>
  <circle cx="73.74" cy="50.17" r="2.5" fill="#2563eb"/>
  <circle cx="75.61" cy="50.46" r="2.5" fill="#2563eb"/>
  <circle cx="77.47" cy="50.00" r="2.5" fill="#2563eb"/>
  <circle cx="79.34" cy="266.90" r="2.5" fill="#2563eb"/>
  <circle cx="81.21" cy="50.12" r="2.5" fill="#2563eb"/>
  <circle cx="83.08" cy="50.08" r="2.5" fill="#2563eb"/>
  <circle cx="84.95" cy="177.46" r="2.5" fill="#2563eb"/>
  <circle cx="86.82" cy="211.58" r="2.5" fill="#2563eb"/>
  <circle cx="88.69" cy="175.34" r="2.5" fill="#2563eb"/>
  <circle cx="90.55" cy="304.14" r="2.5" fill="#2563eb"/>
  <circle cx="92.42" cy="200.46" r="2.5" fill="#2563eb"/>
  <circle cx="94.29" cy="250.94" r="2.5" fill="#2563eb"/>
  <circle cx="96.16" cy="300.01" r="2.5" fill="#2563eb"/>
  <circle cx="98.03" cy="300.06" r="2.5" fill="#2563eb"/>
  <circle cx="99.90" cy="300.01" r="2.5" fill="#2563eb"/>
  <circle cx="101.77" cy="300.01" r="2.5" fill="#2563eb"/>
  <circle cx="103.63" cy="348.00" r="2.5" fill="#2563eb"/>
  <circle cx="105.50" cy="300.01" r="2.5" fill="#2563eb"/>
  <circle cx="107.37" cy="249.99" r="2.5" fill="#2563eb"/>
  <circle cx="109.24" cy="200.00" r="2.5" fill="#2563eb"/>
  <circle cx="111.11" cy="249.99" r="2.5" fill="#2563eb"/>
  <circle cx="112.98" cy="249.99" r="2.5" fill="#2563eb"/>
  <circle cx="114.85" cy="250.03" r="2.5" fill="#2563eb"/>
  <circle cx="116.71" cy="250.03" r="2.5" fill="#2563eb"/>
  <circle cx="118.58" cy="250.03" r="2.5" fill="#2563eb"/>
  <circle cx="120.45" cy="250.40" r="2.5" fill="#2563eb"/>
  <circle cx="122.32" cy="250.90" r="2.5" fill="#2563eb"/>
  <circle cx="124.19" cy="250.90" r="2.5" fill="#2563eb"/>
  <circle cx="126.06" cy="251.32" r="2.5" fill="#2563eb"/>
  <circle cx="127.93" cy="249.94" r="2.5" fill="#2563eb"/>
  <circle cx="129.79" cy="300.01" r="2.5" fill="#2563eb"/>
  <circle cx="131.66" cy="299.93" r="2.5" fill="#2563eb"/>
  <circle cx="133.53" cy="251.03" r="2.5" fill="#2563eb"/>
  <circle cx="135.40" cy="300.68" r="2.5" fill="#2563eb"/>
  <circle cx="137.27" cy="250.03" r="2.5" fill="#2563eb"/>
  <circle cx="139.14" cy="200.00" r="2.5" fill="#2563eb"/>
  <circle cx="141.01" cy="249.99" r="2.5" fill="#2563eb"/>
  <circle cx="142.87" cy="250.03" r="2.5" fill="#2563eb"/>
  <circle cx="144.74" cy="250.03" r="2.5" fill="#2563eb"/>
  <circle cx="146.61" cy="250.03" r="2.5" fill="#2563eb"/>
  <circle cx="148.48" cy="300.01" r="2.5" fill="#2563eb"/>
  <circle cx="150.35" cy="200.04" r="2.5" fill="#2563eb"/>
  <circle cx="152.22" cy="250.03" r="2.5" fill="#2563eb"/>
  <circle cx="154.09" cy="250.03" r="2.5" fill="#2563eb"/>
  <circle cx="155.95" cy="250.03" r="2.5" fill="#2563eb"/>
  <circle cx="157.82" cy="249.90" r="2.5" fill="#2563eb"/>
  <circle cx="159.69" cy="250.03" r="2.5" fill="#2563eb"/>
  <circle cx="161.56" cy="250.03" r="2.5" fill="#2563eb"/>
  <circle cx="163.43" cy="250.94" r="2.5" fill="#2563eb"/>
  <circle cx="165.30" cy="250.44" r="2.5" fill="#2563eb"/>
  <circle cx="167.17" cy="250.03" r="2.5" fill="#2563eb"/>
  <circle cx="169.03" cy="250.03" r="2.5" fill="#2563eb"/>
  <circle cx="170.90" cy="300.47" r="2.5" fill="#2563eb"/>
  <circle cx="172.77" cy="300.01" r="2.5" fill="#2563eb"/>
  <circle cx="174.64" cy="300.43" r="2.5" fill="#2563eb"/>
  <circle cx="176.51" cy="250.03" r="2.5" fill="#2563eb"/>
  <circle cx="178.38" cy="249.99" r="2.5" fill="#2563eb"/>
  <circle cx="180.25" cy="300.43" r="2.5" fill="#2563eb"/>
  <circle cx="182.11" cy="249.90" r="2.5" fill="#2563eb"/>
  <circle cx="183.98" cy="249.99" r="2.5" fill="#2563eb"/>
  <circle cx="185.85" cy="249.99" r="2.5" fill="#2563eb"/>
  <circle cx="187.72" cy="200.04" r="2.5" fill="#2563eb"/>
  <circle cx="189.59" cy="300.01" r="2.5" fill="#2563eb"/>
  <circle cx="191.46" cy="300.01" r="2.5" fill="#2563eb"/>
  <circle cx="193.33" cy="300.01" r="2.5" fill="#2563eb"/>
  <circle cx="195.20" cy="249.90" r="2.5" fill="#2563eb"/>
  <circle cx="197.06" cy="300.01" r="2.5" fill="#2563eb"/>
  <circle cx="198.93" cy="250.03" r="2.5" fill="#2563eb"/>
  <circle cx="200.80" cy="249.99" r="2.5" fill="#2563eb"/>
  <circle cx="202.67" cy="199.96" r="2.5" fill="#2563eb"/>
  <circle cx="204.54" cy="300.01" r="2.5" fill="#2563eb"/>
  <circle cx="206.41" cy="200.00" r="2.5" fill="#2563eb"/>
  <circle cx="208.28" cy="250.36" r="2.5" fill="#2563eb"/>
  <circle cx="210.14" cy="250.03" r="2.5" fill="#2563eb"/>
  <circle cx="212.01" cy="300.01" r="2.5" fill="#2563eb"/>
  <circle cx="213.88" cy="300.01" r="2.5" fill="#2563eb"/>
  <circle cx="215.75" cy="250.44" r="2.5" fill="#2563eb"/>
  <circle cx="217.62" cy="300.01" r="2.5" fill="#2563eb"/>
  <circle cx="219.49" cy="250.03" r="2.5" fill="#2563eb"/>
  <circle cx="221.36" cy="250.03" r="2.5" fill="#2563eb"/>
  <circle cx="223.22" cy="249.99" r="2.5" fill="#2563eb"/>
  <circle cx="225.09" cy="250.49" r="2.5" fill="#2563eb"/>
  <circle cx="226.96" cy="250.03" r="2.5" fill="#2563eb"/>
  <circle cx="228.83" cy="200.04" r="2.5" fill="#2563eb"/>
  <circle cx="230.70" cy="300.01" r="2.5" fill="#2563eb"/>
  <circle cx="232.57" cy="250.03" r="2.5" fill="#2563eb"/>
  <circle cx="234.44" cy="300.01" r="2.5" fill="#2563eb"/>
  <circle cx="236.30" cy="250.11" r="2.5" fill="#2563eb"/>
  <circle cx="238.17" cy="300.01" r="2.5" fill="#2563eb"/>
  <circle cx="240.04" cy="250.03" r="2.5" fill="#2563eb"/>
  <circle cx="241.91" cy="250.03" r="2.5" fill="#2563eb"/>
  <circle cx="243.78" cy="199.92" r="2.5" fill="#2563eb"/>
  <circle cx="245.65" cy="250.03" r="2.5" fill="#2563eb"/>
  <circle cx="247.52" cy="250.03" r="2.5" fill="#2563eb"/>
  <circle cx="249.38" cy="250.03" r="2.5" fill="#2563eb"/>
  <circle cx="251.25" cy="254.36" r="2.5" fill="#2563eb"/>
  <circle cx="253.12" cy="300.01" r="2.5" fill="#2563eb"/>
  <circle cx="254.99" cy="299.97" r="2.5" fill="#2563eb"/>
  <circle cx="256.86" cy="250.36" r="2.5" fill="#2563eb"/>
  <circle cx="258.73" cy="299.97" r="2.5" fill="#2563eb"/>
  <circle cx="260.60" cy="250.03" r="2.5" fill="#2563eb"/>
  <circle cx="262.46" cy="250.03" r="2.5" fill="#2563eb"/>
  <circle cx="264.33" cy="250.03" r="2.5" fill="#2563eb"/>
  <circle cx="266.20" cy="250.03" r="2.5" fill="#2563eb"/>
  <circle cx="268.07" cy="249.99" r="2.5" fill="#2563eb"/>
  <circle cx="269.94" cy="200.00" r="2.5" fill="#2563eb"/>
  <circle cx="271.81" cy="299.93" r="2.5" fill="#2563eb"/>
  <circle cx="273.68" cy="300.01" r="2.5" fill="#2563eb"/>
  <circle cx="275.54" cy="299.97" r="2.5" fill="#2563eb"/>
  <circle cx="277.41" cy="249.94" r="2.5" fill="#2563eb"/>
  <circle cx="279.28" cy="249.99" r="2.5" fill="#2563eb"/>
  <circle cx="281.15" cy="249.82" r="2.5" fill="#2563eb"/>
  <circle cx="283.02" cy="249.94" r="2.5" fill="#2563eb"/>
  <circle cx="284.89" cy="250.28" r="2.5" fill="#2563eb"/>
  <circle cx="286.76" cy="207.00" r="2.5" fill="#2563eb"/>
  <circle cx="288.62" cy="250.03" r="2.5" fill="#2563eb"/>
  <circle cx="290.49" cy="250.32" r="2.5" fill="#2563eb"/>
  <circle cx="292.36" cy="250.40" r="2.5" fill="#2563eb"/>
  <circle cx="294.23" cy="300.93" r="2.5" fill="#2563eb"/>
  <circle cx="296.10" cy="300.01" r="2.5" fill="#2563eb"/>
  <circle cx="297.97" cy="300.10" r="2.5" fill="#2563eb"/>
  <circle cx="299.84" cy="249.94" r="2.5" fill="#2563eb"/>
  <circle cx="301.70" cy="249.99" r="2.5" fill="#2563eb"/>
  <circle cx="303.57" cy="250.07" r="2.5" fill="#2563eb"/>
  <circle cx="305.44" cy="249.99" r="2.5" fill="#2563eb"/>
  <circle cx="307.31" cy="250.03" r="2.5" fill="#2563eb"/>
  <circle cx="309.18" cy="249.94" r="2.5" fill="#2563eb"/>
  <circle cx="311.05" cy="200.00" r="2.5" fill="#2563eb"/>
  <circle cx="312.92" cy="300.39" r="2.5" fill="#2563eb"/>
  <circle cx="314.78" cy="300.01" r="2.5" fill="#2563eb"/>
  <circle cx="316.65" cy="300.01" r="2.5" fill="#2563eb"/>
  <circle cx="318.52" cy="250.44" r="2.5" fill="#2563eb"/>
  <circle cx="320.39" cy="300.39" r="2.5" fill="#2563eb"/>
  <circle cx="322.26" cy="249.86" r="2.5" fill="#2563eb"/>
  <circle cx="324.13" cy="250.11" r="2.5" fill="#2563eb"/>
  <circle cx="326.00" cy="201.46" r="2.5" fill="#2563eb"/>
  <circle cx="327.86" cy="300.01" r="2.5" fill="#2563eb"/>
  <circle cx="329.73" cy="200.83" r="2.5" fill="#2563eb"/>
  <circle cx="331.60" cy="250.03" r="2.5" fill="#2563eb"/>
  <circle cx="333.47" cy="249.99" r="2.5" fill="#2563eb"/>
  <circle cx="335.34" cy="300.26" r="2.5" fill="#2563eb"/>
  <circle cx="337.21" cy="300.01" r="2.5" fill="#2563eb"/>
  <circle cx="339.08" cy="300.01" r="2.5" fill="#2563eb"/>
  <circle cx="340.94" cy="250.03" r="2.5" fill="#2563eb"/>
  <circle cx="342.81" cy="250.03" r="2.5" fill="#2563eb"/>
  <circle cx="344.68" cy="250.03" r="2.5" fill="#2563eb"/>
  <circle cx="346.55" cy="250.03" r="2.5" fill="#2563eb"/>
  <circle cx="348.42" cy="249.99" r="2.5" fill="#2563eb"/>
  <circle cx="350.29" cy="250.03" r="2.5" fill="#2563eb"/>
  <circle cx="352.16" cy="200.00" r="2.5" fill="#2563eb"/>
  <circle cx="354.02" cy="300.26" r="2.5" fill="#2563eb"/>
  <circle cx="355.89" cy="249.99" r="2.5" fill="#2563eb"/>
  <circle cx="357.76" cy="300.01" r="2.5" fill="#2563eb"/>
  <circle cx="359.63" cy="249.94" r="2.5" fill="#2563eb"/>
  <circle cx="361.50" cy="250.03" r="2.5" fill="#2563eb"/>
  <circle cx="363.37" cy="250.03" r="2.5" fill="#2563eb"/>
  <circle cx="365.24" cy="250.03" r="2.5" fill="#2563eb"/>
  <circle cx="367.10" cy="200.04" r="2.5" fill="#2563eb"/>
  <circle cx="368.97" cy="300.01" r="2.5" fill="#2563eb"/>
  <circle cx="370.84" cy="249.90" r="2.5" fill="#2563eb"/>
  <circle cx="372.71" cy="300.01" r="2.5" fill="#2563eb"/>
  <circle cx="374.58" cy="300.01" r="2.5" fill="#2563eb"/>
  <circle cx="376.45" cy="300.06" r="2.5" fill="#2563eb"/>
  <circle cx="378.32" cy="300.01" r="2.5" fill="#2563eb"/>
  <circle cx="380.18" cy="300.01" r="2.5" fill="#2563eb"/>
  <circle cx="382.05" cy="243.95" r="2.5" fill="#2563eb"/>
  <circle cx="383.92" cy="249.94" r="2.5" fill="#2563eb"/>
  <circle cx="385.79" cy="299.97" r="2.5" fill="#2563eb"/>
  <circle cx="387.66" cy="300.01" r="2.5" fill="#2563eb"/>
  <circle cx="389.53" cy="300.01" r="2.5" fill="#2563eb"/>
  <circle cx="391.40" cy="250.03" r="2.5" fill="#2563eb"/>
  <circle cx="393.26" cy="300.01" r="2.5" fill="#2563eb"/>
  <circle cx="395.13" cy="300.01" r="2.5" fill="#2563eb"/>
  <circle cx="397.00" cy="299.97" r="2.5" fill="#2563eb"/>
  <circle cx="398.87" cy="249.99" r="2.5" fill="#2563eb"/>
  <circle cx="400.74" cy="300.01" r="2.5" fill="#2563eb"/>
  <circle cx="402.61" cy="299.93" r="2.5" fill="#2563eb"/>
  <circle cx="404.48" cy="300.01" r="2.5" fill="#2563eb"/>
  <circle cx="406.34" cy="299.93" r="2.5" fill="#2563eb"/>
  <circle cx="408.21" cy="300.01" r="2.5" fill="#2563eb"/>
  <circle cx="410.08" cy="300.01" r="2.5" fill="#2563eb"/>
  <circle cx="411.95" cy="299.89" r="2.5" fill="#2563eb"/>
  <circle cx="413.82" cy="299.97" r="2.5" fill="#2563eb"/>
  <circle cx="415.69" cy="250.03" r="2.5" fill="#2563eb"/>
  <circle cx="417.56" cy="299.93" r="2.5" fill="#2563eb"/>
  <circle cx="419.43" cy="299.89" r="2.5" fill="#2563eb"/>
  <circle cx="421.29" cy="299.97" r="2.5" fill="#2563eb"/>
  <circle cx="423.16" cy="249.94" r="2.5" fill="#2563eb"/>
  <circle cx="425.03" cy="300.01" r="2.5" fill="#2563eb"/>
  <circle cx="426.90" cy="300.01" r="2.5" fill="#2563eb"/>
  <circle cx="428.77" cy="299.97" r="2.5" fill="#2563eb"/>
  <circle cx="430.64" cy="249.99" r="2.5" fill="#2563eb"/>
  <circle cx="432.51" cy="299.97" r="2.5" fill="#2563eb"/>
  <circle cx="434.37" cy="299.97" r="2.5" fill="#2563eb"/>
  <circle cx="436.24" cy="300.06" r="2.5" fill="#2563eb"/>
  <circle cx="438.11" cy="300.06" r="2.5" fill="#2563eb"/>
  <circle cx="439.98" cy="299.93" r="2.5" fill="#2563eb"/>
  <circle cx="441.85" cy="300.01" r="2.5" fill="#2563eb"/>
  <circle cx="443.72" cy="300.01" r="2.5" fill="#2563eb"/>
  <circle cx="445.59" cy="299.93" r="2.5" fill="#2563eb"/>
  <circle cx="447.45" cy="300.01" r="2.5" fill="#2563eb"/>
  <circle cx="449.32" cy="300.01" r="2.5" fill="#2563eb"/>
  <circle cx="451.19" cy="299.97" r="2.5" fill="#2563eb"/>
  <circle cx="453.06" cy="300.01" r="2.5" fill="#2563eb"/>
  <circle cx="454.93" cy="300.01" r="2.5" fill="#2563eb"/>
  <circle cx="456.80" cy="300.01" r="2.5" fill="#2563eb"/>
  <circle cx="458.67" cy="300.01" r="2.5" fill="#2563eb"/>
  <circle cx="460.53" cy="249.86" r="2.5" fill="#2563eb"/>
  <circle cx="462.40" cy="300.01" r="2.5" fill="#2563eb"/>
  <circle cx="464.27" cy="300.10" r="2.5" fill="#2563eb"/>
  <circle cx="466.14" cy="299.93" r="2.5" fill="#2563eb"/>
  <circle cx="468.01" cy="300.01" r="2.5" fill="#2563eb"/>
  <circle cx="469.88" cy="299.93" r="2.5" fill="#2563eb"/>
  <circle cx="471.75" cy="300.01" r="2.5" fill="#2563eb"/>
  <circle cx="473.61" cy="300.01" r="2.5" fill="#2563eb"/>
  <circle cx="475.48" cy="300.01" r="2.5" fill="#2563eb"/>
  <circle cx="477.35" cy="300.01" r="2.5" fill="#2563eb"/>
  <circle cx="479.22" cy="300.01" r="2.5" fill="#2563eb"/>
  <circle cx="481.09" cy="299.97" r="2.5" fill="#2563eb"/>
  <circle cx="482.96" cy="300.01" r="2.5" fill="#2563eb"/>
  <circle cx="484.83" cy="300.01" r="2.5" fill="#2563eb"/>
  <circle cx="486.69" cy="300.01" r="2.5" fill="#2563eb"/>
  <circle cx="488.56" cy="300.01" r="2.5" fill="#2563eb"/>
  <circle cx="490.43" cy="250.03" r="2.5" fill="#2563eb"/>
  <circle cx="492.30" cy="300.01" r="2.5" fill="#2563eb"/>
  <circle cx="494.17" cy="300.01" r="2.5" fill="#2563eb"/>
  <circle cx="496.04" cy="299.97" r="2.5" fill="#2563eb"/>
  <circle cx="497.91" cy="300.01" r="2.5" fill="#2563eb"/>
  <circle cx="499.77" cy="300.01" r="2.5" fill="#2563eb"/>
  <circle cx="501.64" cy="299.97" r="2.5" fill="#2563eb"/>
  <circle cx="503.51" cy="299.97" r="2.5" fill="#2563eb"/>
  <circle cx="505.38" cy="300.01" r="2.5" fill="#2563eb"/>
  <circle cx="507.25" cy="299.97" r="2.5" fill="#2563eb"/>
  <circle cx="509.12" cy="300.01" r="2.5" fill="#2563eb"/>
  <circle cx="510.99" cy="299.93" r="2.5" fill="#2563eb"/>
  <circle cx="512.85" cy="300.01" r="2.5" fill="#2563eb"/>
  <circle cx="514.72" cy="250.03" r="2.5" fill="#2563eb"/>
  <circle cx="516.59" cy="300.01" r="2.5" fill="#2563eb"/>
  <circle cx="518.46" cy="300.01" r="2.5" fill="#2563eb"/>
  <circle cx="520.33" cy="300.01" r="2.5" fill="#2563eb"/>
  <circle cx="522.20" cy="300.01" r="2.5" fill="#2563eb"/>
  <circle cx="524.07" cy="300.01" r="2.5" fill="#2563eb"/>
  <circle cx="525.93" cy="299.89" r="2.5" fill="#2563eb"/>
  <circle cx="527.80" cy="300.01" r="2.5" fill="#2563eb"/>
  <circle cx="529.67" cy="300.01" r="2.5" fill="#2563eb"/>
  <circle cx="531.54" cy="250.07" r="2.5" fill="#2563eb"/>
  <circle cx="533.41" cy="300.01" r="2.5" fill="#2563eb"/>
  <circle cx="535.28" cy="299.93" r="2.5" fill="#2563eb"/>
  <circle cx="537.15" cy="300.01" r="2.5" fill="#2563eb"/>
  <circle cx="539.01" cy="299.97" r="2.5" fill="#2563eb"/>
  <circle cx="540.88" cy="299.97" r="2.5" fill="#2563eb"/>
  <circle cx="542.75" cy="299.97" r="2.5" fill="#2563eb"/>
  <circle cx="544.62" cy="250.03" r="2.5" fill="#2563eb"/>
  <circle cx="546.49" cy="300.01" r="2.5" fill="#2563eb"/>
  <circle cx="548.36" cy="300.01" r="2.5" fill="#2563eb"/>
  <circle cx="550.23" cy="300.01" r="2.5" fill="#2563eb"/>
  <circle cx="552.09" cy="300.01" r="2.5" fill="#2563eb"/>
  <circle cx="553.96" cy="299.97" r="2.5" fill="#2563eb"/>
  <circle cx="555.83" cy="300.01" r="2.5" fill="#2563eb"/>
  <circle cx="557.70" cy="299.97" r="2.5" fill="#2563eb"/>
  <circle cx="559.57" cy="300.01" r="2.5" fill="#2563eb"/>
  <circle cx="561.44" cy="299.97" r="2.5" fill="#2563eb"/>
  <circle cx="563.31" cy="249.90" r="2.5" fill="#2563eb"/>
  <circle cx="565.17" cy="300.01" r="2.5" fill="#2563eb"/>
  <circle cx="567.04" cy="300.01" r="2.5" fill="#2563eb"/>
  <circle cx="568.91" cy="299.89" r="2.5" fill="#2563eb"/>
  <circle cx="570.78" cy="299.97" r="2.5" fill="#2563eb"/>
  <circle cx="572.65" cy="299.97" r="2.5" fill="#2563eb"/>
  <circle cx="574.52" cy="249.99" r="2.5" fill="#2563eb"/>
  <circle cx="576.39" cy="299.97" r="2.5" fill="#2563eb"/>
  <circle cx="578.25" cy="299.89" r="2.5" fill="#2563eb"/>
  <circle cx="580.12" cy="300.01" r="2.5" fill="#2563eb"/>
  <circle cx="581.99" cy="299.97" r="2.5" fill="#2563eb"/>
  <circle cx="583.86" cy="299.97" r="2.5" fill="#2563eb"/>
  <circle cx="585.73" cy="300.01" r="2.5" fill="#2563eb"/>
  <circle cx="587.60" cy="299.97" r="2.5" fill="#2563eb"/>
  <circle cx="589.47" cy="249.99" r="2.5" fill="#2563eb"/>
  <circle cx="591.33" cy="299.97" r="2.5" fill="#2563eb"/>
  <circle cx="593.20" cy="299.97" r="2.5" fill="#2563eb"/>
  <circle cx="595.07" cy="300.06" r="2.5" fill="#2563eb"/>
  <circle cx="596.94" cy="300.06" r="2.5" fill="#2563eb"/>
  <circle cx="598.81" cy="249.94" r="2.5" fill="#2563eb"/>
  <circle cx="600.68" cy="300.01" r="2.5" fill="#2563eb"/>
  <circle cx="602.55" cy="299.93" r="2.5" fill="#2563eb"/>
  <circle cx="604.41" cy="300.01" r="2.5" fill="#2563eb"/>
  <circle cx="606.28" cy="300.01" r="2.5" fill="#2563eb"/>
  <circle cx="608.15" cy="249.99" r="2.5" fill="#2563eb"/>
  <circle cx="610.02" cy="300.01" r="2.5" fill="#2563eb"/>
  <circle cx="611.89" cy="300.01" r="2.5" fill="#2563eb"/>
  <circle cx="613.76" cy="300.01" r="2.5" fill="#2563eb"/>
  <circle cx="615.63" cy="299.93" r="2.5" fill="#2563eb"/>
  <circle cx="617.49" cy="299.93" r="2.5" fill="#2563eb"/>
  <circle cx="619.36" cy="300.01" r="2.5" fill="#2563eb"/>
  <circle cx="621.23" cy="300.01" r="2.5" fill="#2563eb"/>
  <circle cx="623.10" cy="249.94" r="2.5" fill="#2563eb"/>
  <circle cx="624.97" cy="299.97" r="2.5" fill="#2563eb"/>
  <circle cx="626.84" cy="299.97" r="2.5" fill="#2563eb"/>
  <circle cx="628.71" cy="300.01" r="2.5" fill="#2563eb"/>
  <circle cx="630.57" cy="300.01" r="2.5" fill="#2563eb"/>
  <circle cx="632.44" cy="300.01" r="2.5" fill="#2563eb"/>
  <circle cx="634.31" cy="249.99" r="2.5" fill="#2563eb"/>
  <circle cx="636.18" cy="300.01" r="2.5" fill="#2563eb"/>
  <circle cx="638.05" cy="300.01" r="2.5" fill="#2563eb"/>
  <circle cx="639.92" cy="300.01" r="2.5" fill="#2563eb"/>
  <circle cx="641.79" cy="250.03" r="2.5" fill="#2563eb"/>
  <circle cx="643.66" cy="300.01" r="2.5" fill="#2563eb"/>
  <circle cx="645.52" cy="300.01" r="2.5" fill="#2563eb"/>
  <circle cx="647.39" cy="300.01" r="2.5" fill="#2563eb"/>
  <circle cx="649.26" cy="299.97" r="2.5" fill="#2563eb"/>
  <circle cx="651.13" cy="300.01" r="2.5" fill="#2563eb"/>
  <circle cx="653.00" cy="300.01" r="2.5" fill="#2563eb"/>
  <circle cx="654.87" cy="299.97" r="2.5" fill="#2563eb"/>
  <circle cx="656.74" cy="299.97" r="2.5" fill="#2563eb"/>
  <circle cx="658.60" cy="300.01" r="2.5" fill="#2563eb"/>
  <circle cx="660.47" cy="300.01" r="2.5" fill="#2563eb"/>
  <circle cx="662.34" cy="299.97" r="2.5" fill="#2563eb"/>
  <circle cx="664.21" cy="299.93" r="2.5" fill="#2563eb"/>
  <circle cx="666.08" cy="300.01" r="2.5" fill="#2563eb"/>
  <circle cx="667.95" cy="300.06" r="2.5" fill="#2563eb"/>
  <circle cx="669.82" cy="299.97" r="2.5" fill="#2563eb"/>
  <circle cx="671.68" cy="300.01" r="2.5" fill="#2563eb"/>
  <circle cx="673.55" cy="250.03" r="2.5" fill="#2563eb"/>
  <circle cx="675.42" cy="250.03" r="2.5" fill="#2563eb"/>
  <circle cx="677.29" cy="299.93" r="2.5" fill="#2563eb"/>
  <circle cx="679.16" cy="299.97" r="2.5" fill="#2563eb"/>
  <circle cx="681.03" cy="300.01" r="2.5" fill="#2563eb"/>
  <circle cx="682.90" cy="300.01" r="2.5" fill="#2563eb"/>
  <circle cx="684.76" cy="300.06" r="2.5" fill="#2563eb"/>
  <circle cx="686.63" cy="300.01" r="2.5" fill="#2563eb"/>
  <circle cx="688.50" cy="299.93" r="2.5" fill="#2563eb"/>
  <circle cx="690.37" cy="300.01" r="2.5" fill="#2563eb"/>
  <circle cx="692.24" cy="300.01" r="2.5" fill="#2563eb"/>
  <circle cx="694.11" cy="299.97" r="2.5" fill="#2563eb"/>
  <circle cx="695.98" cy="299.97" r="2.5" fill="#2563eb"/>
  <circle cx="697.84" cy="300.01" r="2.5" fill="#2563eb"/>
  <circle cx="699.71" cy="250.03" r="2.5" fill="#2563eb"/>
  <circle cx="701.58" cy="300.01" r="2.5" fill="#2563eb"/>
  <circle cx="703.45" cy="300.01" r="2.5" fill="#2563eb"/>
  <circle cx="705.32" cy="300.01" r="2.5" fill="#2563eb"/>
  <circle cx="707.19" cy="299.97" r="2.5" fill="#2563eb"/>
  <circle cx="709.06" cy="300.01" r="2.5" fill="#2563eb"/>
  <circle cx="710.92" cy="299.97" r="2.5" fill="#2563eb"/>
  <circle cx="712.79" cy="300.01" r="2.5" fill="#2563eb"/>
  <circle cx="714.66" cy="299.97" r="2.5" fill="#2563eb"/>
  <circle cx="716.53" cy="299.97" r="2.5" fill="#2563eb"/>
  <circle cx="718.40" cy="299.93" r="2.5" fill="#2563eb"/>
  <circle cx="720.27" cy="300.01" r="2.5" fill="#2563eb"/>
  <circle cx="722.14" cy="300.01" r="2.5" fill="#2563eb"/>
  <circle cx="724.00" cy="299.89" r="2.5" fill="#2563eb"/>
  <circle cx="725.87" cy="299.97" r="2.5" fill="#2563eb"/>
  <circle cx="727.74" cy="299.97" r="2.5" fill="#2563eb"/>
  <circle cx="729.61" cy="300.06" r="2.5" fill="#2563eb"/>
  <circle cx="731.48" cy="249.90" r="2.5" fill="#2563eb"/>
  <circle cx="733.35" cy="299.89" r="2.5" fill="#2563eb"/>
  <circle cx="735.22" cy="300.01" r="2.5" fill="#2563eb"/>
  <circle cx="737.08" cy="299.97" r="2.5" fill="#2563eb"/>
  <circle cx="738.95" cy="299.97" r="2.5" fill="#2563eb"/>
  <circle cx="740.82" cy="299.97" r="2.5" fill="#2563eb"/>
  <circle cx="742.69" cy="300.01" r="2.5" fill="#2563eb"/>
  <circle cx="744.56" cy="300.01" r="2.5" fill="#2563eb"/>
  <circle cx="746.43" cy="299.97" r="2.5" fill="#2563eb"/>
  <circle cx="748.30" cy="299.97" r="2.5" fill="#2563eb"/>
  <circle cx="750.16" cy="299.97" r="2.5" fill="#2563eb"/>
  <circle cx="752.03" cy="250.03" r="2.5" fill="#2563eb"/>
  <circle cx="753.90" cy="299.93" r="2.5" fill="#2563eb"/>
  <circle cx="755.77" cy="300.01" r="2.5" fill="#2563eb"/>
  <circle cx="757.64" cy="300.01" r="2.5" fill="#2563eb"/>
  <circle cx="759.51" cy="299.93" r="2.5" fill="#2563eb"/>
  <circle cx="761.38" cy="300.01" r="2.5" fill="#2563eb"/>
  <circle cx="763.24" cy="300.01" r="2.5" fill="#2563eb"/>
  <circle cx="765.11" cy="299.97" r="2.5" fill="#2563eb"/>
  <circle cx="766.98" cy="300.01" r="2.5" fill="#2563eb"/>
  <circle cx="768.85" cy="300.01" r="2.5" fill="#2563eb"/>
  <circle cx="770.72" cy="300.06" r="2.5" fill="#2563eb"/>
  <circle cx="772.59" cy="300.01" r="2.5" fill="#2563eb"/>
  <circle cx="774.46" cy="299.97" r="2.5" fill="#2563eb"/>
  <circle cx="776.32" cy="299.89" r="2.5" fill="#2563eb"/>
  <circle cx="778.19" cy="300.01" r="2.5" fill="#2563eb"/>
  <circle cx="780.06" cy="300.01" r="2.5" fill="#2563eb"/>
  <circle cx="781.93" cy="249.94" r="2.5" fill="#2563eb"/>
  <circle cx="783.80" cy="249.94" r="2.5" fill="#2563eb"/>
  <circle cx="785.67" cy="300.01" r="2.5" fill="#2563eb"/>
  <circle cx="787.54" cy="300.01" r="2.5" fill="#2563eb"/>
  <circle cx="789.40" cy="300.01" r="2.5" fill="#2563eb"/>
  <circle cx="791.27" cy="300.01" r="2.5" fill="#2563eb"/>
  <circle cx="793.14" cy="299.97" r="2.5" fill="#2563eb"/>
  <circle cx="795.01" cy="250.03" r="2.5" fill="#2563eb"/>
  <circle cx="796.88" cy="300.01" r="2.5" fill="#2563eb"/>
  <circle cx="798.75" cy="300.01" r="2.5" fill="#2563eb"/>
  <circle cx="800.62" cy="300.01" r="2.5" fill="#2563eb"/>
  <circle cx="802.48" cy="300.01" r="2.5" fill="#2563eb"/>
  <circle cx="804.35" cy="250.03" r="2.5" fill="#2563eb"/>
  <circle cx="806.22" cy="249.99" r="2.5" fill="#2563eb"/>
  <circle cx="808.09" cy="300.01" r="2.5" fill="#2563eb"/>
  <circle cx="809.96" cy="299.97" r="2.5" fill="#2563eb"/>
  <circle cx="811.83" cy="300.01" r="2.5" fill="#2563eb"/>
  <circle cx="813.70" cy="299.97" r="2.5" fill="#2563eb"/>
  <circle cx="815.56" cy="300.01" r="2.5" fill="#2563eb"/>
  <circle cx="817.43" cy="299.97" r="2.5" fill="#2563eb"/>
  <circle cx="819.30" cy="299.97" r="2.5" fill="#2563eb"/>
  <circle cx="821.17" cy="299.97" r="2.5" fill="#2563eb"/>
  <circle cx="823.04" cy="300.06" r="2.5" fill="#2563eb"/>
  <circle cx="824.91" cy="249.99" r="2.5" fill="#2563eb"/>
  <circle cx="826.78" cy="300.01" r="2.5" fill="#2563eb"/>
  <circle cx="828.64" cy="250.03" r="2.5" fill="#2563eb"/>
  <circle cx="830.51" cy="249.94" r="2.5" fill="#2563eb"/>
  <circle cx="832.38" cy="249.99" r="2.5" fill="#2563eb"/>
  <circle cx="834.25" cy="300.01" r="2.5" fill="#2563eb"/>
  <circle cx="836.12" cy="300.06" r="2.5" fill="#2563eb"/>
  <circle cx="837.99" cy="300.01" r="2.5" fill="#2563eb"/>
  <circle cx="839.86" cy="299.97" r="2.5" fill="#2563eb"/>
  <circle cx="841.72" cy="299.97" r="2.5" fill="#2563eb"/>
  <circle cx="843.59" cy="300.01" r="2.5" fill="#2563eb"/>
  <circle cx="845.46" cy="299.93" r="2.5" fill="#2563eb"/>
  <circle cx="847.33" cy="299.89" r="2.5" fill="#2563eb"/>
  <circle cx="849.20" cy="299.89" r="2.5" fill="#2563eb"/>
  <circle cx="851.07" cy="299.89" r="2.5" fill="#2563eb"/>
  <circle cx="852.94" cy="299.89" r="2.5" fill="#2563eb"/>
  <circle cx="854.80" cy="299.85" r="2.5" fill="#2563eb"/>
  <circle cx="856.67" cy="299.85" r="2.5" fill="#2563eb"/>
  <circle cx="858.54" cy="299.89" r="2.5" fill="#2563eb"/>
  <circle cx="860.41" cy="299.81" r="2.5" fill="#2563eb"/>
  <circle cx="862.28" cy="299.81" r="2.5" fill="#2563eb"/>
  <circle cx="864.15" cy="299.81" r="2.5" fill="#2563eb"/>
  <circle cx="866.02" cy="299.76" r="2.5" fill="#2563eb"/>
  <circle cx="867.89" cy="299.76" r="2.5" fill="#2563eb"/>
  <circle cx="869.75" cy="299.76" r="2.5" fill="#2563eb"/>
  <circle cx="871.62" cy="299.72" r="2.5" fill="#2563eb"/>
  <circle cx="873.49" cy="299.68" r="2.5" fill="#2563eb"/>
  <circle cx="875.36" cy="299.60" r="2.5" fill="#2563eb"/>
  <circle cx="877.23" cy="299.60" r="2.5" fill="#2563eb"/>
  <circle cx="879.10" cy="299.60" r="2.5" fill="#2563eb"/>
  <circle cx="880.97" cy="299.56" r="2.5" fill="#2563eb"/>
  <circle cx="882.83" cy="299.47" r="2.5" fill="#2563eb"/>
  <circle cx="884.70" cy="299.43" r="2.5" fill="#2563eb"/>
  <circle cx="886.57" cy="299.43" r="2.5" fill="#2563eb"/>
  <circle cx="888.44" cy="299.39" r="2.5" fill="#2563eb"/>
  <circle cx="890.31" cy="299.47" r="2.5" fill="#2563eb"/>
  <circle cx="892.18" cy="259.82" r="2.5" fill="#2563eb"/>
  <circle cx="894.05" cy="338.96" r="2.5" fill="#2563eb"/>
  <circle cx="895.91" cy="299.31" r="2.5" fill="#2563eb"/>
  <circle cx="897.78" cy="299.31" r="2.5" fill="#2563eb"/>
  <circle cx="899.65" cy="299.26" r="2.5" fill="#2563eb"/>
  <circle cx="901.52" cy="299.68" r="2.5" fill="#2563eb"/>
  <circle cx="903.39" cy="299.68" r="2.5" fill="#2563eb"/>
  <circle cx="905.26" cy="299.68" r="2.5" fill="#2563eb"/>
  <circle cx="907.13" cy="299.64" r="2.5" fill="#2563eb"/>
  <circle cx="908.99" cy="299.14" r="2.5" fill="#2563eb"/>
  <circle cx="910.86" cy="299.14" r="2.5" fill="#2563eb"/>
  <circle cx="912.73" cy="299.10" r="2.5" fill="#2563eb"/>
  <circle cx="914.60" cy="299.10" r="2.5" fill="#2563eb"/>
  <circle cx="916.47" cy="299.10" r="2.5" fill="#2563eb"/>
  <circle cx="918.34" cy="248.07" r="2.5" fill="#2563eb"/>
  <circle cx="920.21" cy="299.06" r="2.5" fill="#2563eb"/>
  <circle cx="922.07" cy="299.06" r="2.5" fill="#2563eb"/>
  <circle cx="923.94" cy="299.06" r="2.5" fill="#2563eb"/>
  <circle cx="925.81" cy="299.06" r="2.5" fill="#2563eb"/>
  <circle cx="927.68" cy="299.06" r="2.5" fill="#2563eb"/>
  <circle cx="929.55" cy="298.97" r="2.5" fill="#2563eb"/>
  <circle cx="931.42" cy="298.97" r="2.5" fill="#2563eb"/>
  <circle cx="933.29" cy="298.93" r="2.5" fill="#2563eb"/>
  <circle cx="935.15" cy="298.97" r="2.5" fill="#2563eb"/>
  <circle cx="937.02" cy="298.93" r="2.5" fill="#2563eb"/>
  <circle cx="938.89" cy="298.89" r="2.5" fill="#2563eb"/>
  <circle cx="940.76" cy="298.89" r="2.5" fill="#2563eb"/>
  <circle cx="942.63" cy="298.89" r="2.5" fill="#2563eb"/>
  <circle cx="944.50" cy="298.89" r="2.5" fill="#2563eb"/>
  <circle cx="946.37" cy="247.78" r="2.5" fill="#2563eb"/>
  <circle cx="948.23" cy="298.89" r="2.5" fill="#2563eb"/>
  <circle cx="950.10" cy="298.89" r="2.5" fill="#2563eb"/>
  <circle cx="951.97" cy="298.85" r="2.5" fill="#2563eb"/>
  <circle cx="953.84" cy="298.85" r="2.5" fill="#2563eb"/>
  <circle cx="955.71" cy="298.81" r="2.5" fill="#2563eb"/>
  <circle cx="957.58" cy="298.81" r="2.5" fill="#2563eb"/>
  <circle cx="959.45" cy="298.81" r="2.5" fill="#2563eb"/>
  <circle cx="961.31" cy="298.81" r="2.5" fill="#2563eb"/>
  <circle cx="963.18" cy="298.81" r="2.5" fill="#2563eb"/>
  <circle cx="965.05" cy="298.81" r="2.5" fill="#2563eb"/>
  <circle cx="966.92" cy="298.81" r="2.5" fill="#2563eb"/>
  <circle cx="968.79" cy="298.81" r="2.5" fill="#2563eb"/>
  <circle cx="970.66" cy="298.81" r="2.5" fill="#2563eb"/>
  <circle cx="972.53" cy="298.72" r="2.5" fill="#2563eb"/>
  <circle cx="974.39" cy="247.45" r="2.5" fill="#2563eb"/>
  <circle cx="976.26" cy="247.45" r="2.5" fill="#2563eb"/>
  <circle cx="978.13" cy="298.72" r="2.5" fill="#2563eb"/>
  <circle cx="980.00" cy="298.72" r="2.5" fill="#2563eb"/>
</svg>
