<?xml version="1.0" encoding="UTF-8"?>
<svg xmlns="http://www.w3.org/2000/svg" width="1000" height="420" viewBox="0 0 1000 420">
  <rect width="100%" height="100%" fill="#ffffff"/>
  <text x="70" y="28" font-size="20" font-weight="600">수집 시점 기준 - 시간별 스냅샷</text>
  <text x="70" y="402" font-size="12" fill="#555">스냅샷 수</text>
  <line x1="70" y1="350.00" x2="980" y2="350.00" stroke="#e5e7eb" stroke-width="1"/>
  <text x="62" y="354.00" font-size="11" fill="#6b7280" text-anchor="end">0</text>
  <line x1="70" y1="290.00" x2="980" y2="290.00" stroke="#e5e7eb" stroke-width="1"/>
  <text x="62" y="294.00" font-size="11" fill="#6b7280" text-anchor="end">1,440</text>
  <line x1="70" y1="230.00" x2="980" y2="230.00" stroke="#e5e7eb" stroke-width="1"/>
  <text x="62" y="234.00" font-size="11" fill="#6b7280" text-anchor="end">2,880</text>
  <line x1="70" y1="170.00" x2="980" y2="170.00" stroke="#e5e7eb" stroke-width="1"/>
  <text x="62" y="174.00" font-size="11" fill="#6b7280" text-anchor="end">4,321</text>
  <line x1="70" y1="110.00" x2="980" y2="110.00" stroke="#e5e7eb" stroke-width="1"/>
  <text x="62" y="114.00" font-size="11" fill="#6b7280" text-anchor="end">5,761</text>
  <line x1="70" y1="50.00" x2="980" y2="50.00" stroke="#e5e7eb" stroke-width="1"/>
  <text x="62" y="54.00" font-size="11" fill="#6b7280" text-anchor="end">7,202</text>
  <line x1="70" y1="350" x2="980" y2="350" stroke="#111827" stroke-width="1.2"/>
  <line x1="70" y1="50" x2="70" y2="350" stroke="#111827" stroke-width="1.2"/>
  <line x1="70.00" y1="350" x2="70.00" y2="356" stroke="#9ca3af" stroke-width="1"/>
  <text x="70.00" y="372" font-size="10" fill="#6b7280" text-anchor="middle">2026-02-28 18</text>
  <line x1="145.09" y1="350" x2="145.09" y2="356" stroke="#9ca3af" stroke-width="1"/>
  <text x="145.09" y="372" font-size="10" fill="#6b7280" text-anchor="middle">2026-03-08 21</text>
  <line x1="220.18" y1="350" x2="220.18" y2="356" stroke="#9ca3af" stroke-width="1"/>
  <text x="220.18" y="372" font-size="10" fill="#6b7280" text-anchor="middle">2026-03-10 19</text>
  <line x1="295.27" y1="350" x2="295.27" y2="356" stroke="#9ca3af" stroke-width="1"/>
  <text x="295.27" y="372" font-size="10" fill="#6b7280" text-anchor="middle">2026-03-12 17</text>
  <line x1="370.35" y1="350" x2="370.35" y2="356" stroke="#9ca3af" stroke-width="1"/>
  <text x="370.35" y="372" font-size="10" fill="#6b7280" text-anchor="middle">2026-03-14 18</text>
  <line x1="445.44" y1="350" x2="445.44" y2="356" stroke="#9ca3af" stroke-width="1"/>
  <text x="445.44" y="372" font-size="10" fill="#6b7280" text-anchor="middle">2026-03-17 08</text>
  <line x1="520.53" y1="350" x2="520.53" y2="356" stroke="#9ca3af" stroke-width="1"/>
  <text x="520.53" y="372" font-size="10" fill="#6b7280" text-anchor="middle">2026-03-20 04</text>
  <line x1="595.62" y1="350" x2="595.62" y2="356" stroke="#9ca3af" stroke-width="1"/>
  <text x="595.62" y="372" font-size="10" fill="#6b7280" text-anchor="middle">2026-03-22 14</text>
  <line x1="670.71" y1="350" x2="670.71" y2="356" stroke="#9ca3af" stroke-width="1"/>
  <text x="670.71" y="372" font-size="10" fill="#6b7280" text-anchor="middle">2026-03-25 06</text>
  <line x1="745.80" y1="350" x2="745.80" y2="356" stroke="#9ca3af" stroke-width="1"/>
  <text x="745.80" y="372" font-size="10" fill="#6b7280" text-anchor="middle">2026-03-28 02</text>
  <line x1="820.88" y1="350" x2="820.88" y2="356" stroke="#9ca3af" stroke-width="1"/>
  <text x="820.88" y="372" font-size="10" fill="#6b7280" text-anchor="middle">2026-03-31 00</text>
  <line x1="895.97" y1="350" x2="895.97" y2="356" stroke="#9ca3af" stroke-width="1"/>
  <text x="895.97" y="372" font-size="10" fill="#6b7280" text-anchor="middle">2026-04-03 00</text>
  <line x1="971.06" y1="350" x2="971.06" y2="356" stroke="#9ca3af" stroke-width="1"/>
  <text x="971.06" y="372" font-size="10" fill="#6b7280" text-anchor="middle">2026-04-05 16</text>
  <line x1="980.00" y1="350" x2="980.00" y2="356" stroke="#9ca3af" stroke-width="1"/>
  <text x="980.00" y="372" font-size="10" fill="#6b7280" text-anchor="middle">2026-04-06 00</text>
  <polyline fill="none" stroke="#2563eb" stroke-width="2.5" points="70.00,50.00 71.79,50.12 73.58,50.17 75.36,50.46 77.15,50.00 78.94,266.90 80.73,50.12 82.51,50.08 84.30,177.46 86.09,211.58 87.88,175.34 89.67,304.14 91.45,200.46 93.24,250.94 95.03,300.01 96.82,300.06 98.61,300.01 100.39,300.01 102.18,348.00 103.97,300.01 105.76,249.99 107.54,200.00 109.33,249.99 111.12,249.99 112.91,250.03 114.70,250.03 116.48,250.03 118.27,250.40 120.06,250.90 121.85,250.90 123.63,251.32 125.42,249.94 127.21,300.01 129.00,299.93 130.79,251.03 132.57,300.68 134.36,250.03 136.15,200.00 137.94,249.99 139.72,250.03 141.51,250.03 143.30,250.03 145.09,300.01 146.88,200.04 148.66,250.03 150.45,250.03 152.24,250.03 154.03,249.90 155.82,250.03 157.60,250.03 159.39,250.94 161.18,250.44 162.97,250.03 164.75,250.03 166.54,300.47 168.33,300.01 170.12,300.43 171.91,250.03 173.69,249.99 175.48,300.43 177.27,249.90 179.06,249.99 180.84,249.99 182.63,200.04 184.42,300.01 186.21,300.01 188.00,300.01 189.78,249.90 191.57,300.01 193.36,250.03 195.15,249.99 196.94,199.96 198.72,300.01 200.51,200.00 202.30,250.36 204.09,250.03 205.87,300.01 207.66,300.01 209.45,250.44 211.24,300.01 213.03,250.03 214.81,250.03 216.60,249.99 218.39,250.49 220.18,250.03 221.96,200.04 223.75,300.01 225.54,250.03 227.33,300.01 229.12,250.11 230.90,300.01 232.69,250.03 234.48,250.03 236.27,199.92 238.06,250.03 239.84,250.03 241.63,250.03 243.42,254.36 245.21,300.01 246.99,299.97 248.78,250.36 250.57,299.97 252.36,250.03 254.15,250.03 255.93,250.03 257.72,250.03 259.51,249.99 261.30,200.00 263.08,299.93 264.87,300.01 266.66,299.97 268.45,249.94 270.24,249.99 272.02,249.82 273.81,249.94 275.60,250.28 277.39,207.00 279.17,250.03 280.96,250.32 282.75,250.40 284.54,300.93 286.33,300.01 288.11,300.10 289.90,249.94 291.69,249.99 293.48,250.07 295.27,249.99 297.05,250.03 298.84,249.94 300.63,200.00 302.42,300.39 304.20,300.01 305.99,300.01 307.78,250.44 309.57,300.39 311.36,249.86 313.14,250.11 314.93,201.46 316.72,300.01 318.51,200.83 320.29,250.03 322.08,249.99 323.87,300.26 325.66,300.01 327.45,300.01 329.23,250.03 331.02,250.03 332.81,250.03 334.60,250.03 336.39,249.99 338.17,250.03 339.96,200.00 341.75,300.26 343.54,249.99 345.32,300.01 347.11,249.94 348.90,250.03 350.69,250.03 352.48,250.03 354.26,200.04 356.05,300.01 357.84,249.90 359.63,300.01 361.41,300.01 363.20,300.06 364.99,300.01 366.78,300.01 368.57,243.95 370.35,249.94 372.14,299.97 373.93,300.01 375.72,300.01 377.50,250.03 379.29,300.01 381.08,300.01 382.87,299.97 384.66,249.99 386.44,300.01 388.23,299.93 390.02,300.01 391.81,299.93 393.60,300.01 395.38,300.01 397.17,299.89 398.96,299.97 400.75,250.03 402.53,299.93 404.32,299.89 406.11,299.97 407.90,249.94 409.69,300.01 411.47,300.01 413.26,299.97 415.05,249.99 416.84,299.97 418.62,299.97 420.41,300.06 422.20,300.06 423.99,299.93 425.78,300.01 427.56,300.01 429.35,299.93 431.14,300.01 432.93,300.01 434.72,299.97 436.50,300.01 438.29,300.01 440.08,300.01 441.87,300.01 443.65,249.86 445.44,300.01 447.23,300.10 449.02,299.93 450.81,300.01 452.59,299.93 454.38,300.01 456.17,300.01 457.96,300.01 459.74,300.01 461.53,300.01 463.32,299.97 465.11,300.01 466.90,300.01 468.68,300.01 470.47,300.01 472.26,250.03 474.05,300.01 475.83,300.01 477.62,299.97 479.41,300.01 481.20,300.01 482.99,299.97 484.77,299.97 486.56,300.01 488.35,299.97 490.14,300.01 491.93,299.93 493.71,300.01 495.50,250.03 497.29,300.01 499.08,300.01 500.86,300.01 502.65,300.01 504.44,300.01 506.23,299.89 508.02,300.01 509.80,300.01 511.59,250.07 513.38,300.01 515.17,299.93 516.95,300.01 518.74,299.97 520.53,299.97 522.32,299.97 524.11,250.03 525.89,300.01 527.68,300.01 529.47,300.01 531.26,300.01 533.05,299.97 534.83,300.01 536.62,299.97 538.41,300.01 540.20,299.97 541.98,249.90 543.77,300.01 545.56,300.01 547.35,299.89 549.14,299.97 550.92,299.97 552.71,249.99 554.50,299.97 556.29,299.89 558.07,300.01 559.86,299.97 561.65,299.97 563.44,300.01 565.23,299.97 567.01,249.99 568.80,299.97 570.59,299.97 572.38,300.06 574.17,300.06 575.95,249.94 577.74,300.01 579.53,299.93 581.32,300.01 583.10,300.01 584.89,249.99 586.68,300.01 588.47,300.01 590.26,300.01 592.04,299.93 593.83,299.93 595.62,300.01 597.41,300.01 599.19,249.94 600.98,299.97 602.77,299.97 604.56,300.01 606.35,300.01 608.13,300.01 609.92,249.99 611.71,300.01 613.50,300.01 615.28,300.01 617.07,250.03 618.86,300.01 620.65,300.01 622.44,300.01 624.22,299.97 626.01,300.01 627.80,300.01 629.59,299.97 631.38,299.97 633.16,300.01 634.95,300.01 636.74,299.97 638.53,299.93 640.31,300.01 642.10,300.06 643.89,299.97 645.68,300.01 647.47,250.03 649.25,250.03 651.04,299.93 652.83,299.97 654.62,300.01 656.40,300.01 658.19,300.06 659.98,300.01 661.77,299.93 663.56,300.01 665.34,300.01 667.13,299.97 668.92,299.97 670.71,300.01 672.50,250.03 674.28,300.01 676.07,300.01 677.86,300.01 679.65,299.97 681.43,300.01 683.22,299.97 685.01,300.01 686.80,299.97 688.59,299.97 690.37,299.93 692.16,300.01 693.95,300.01 695.74,299.89 697.52,299.97 699.31,299.97 701.10,300.06 702.89,249.90 704.68,299.89 706.46,300.01 708.25,299.97 710.04,299.97 711.83,299.97 713.61,300.01 715.40,300.01 717.19,299.97 718.98,299.97 720.77,299.97 722.55,250.03 724.34,299.93 726.13,300.01 727.92,300.01 729.71,299.93 731.49,300.01 733.28,300.01 735.07,299.97 736.86,300.01 738.64,300.01 740.43,300.06 742.22,300.01 744.01,299.97 745.80,299.89 747.58,300.01 749.37,300.01 751.16,249.94 752.95,249.94 754.73,300.01 756.52,300.01 758.31,300.01 760.10,300.01 761.89,299.97 763.67,250.03 765.46,300.01 767.25,300.01 769.04,300.01 770.83,300.01 772.61,250.03 774.40,249.99 776.19,300.01 777.98,299.97 779.76,300.01 781.55,299.97 783.34,300.01 785.13,299.97 786.92,299.97 788.70,299.97 790.49,300.06 792.28,249.99 794.07,300.01 795.85,250.03 797.64,249.94 799.43,249.99 801.22,300.01 803.01,300.06 804.79,300.01 806.58,299.97 808.37,299.97 810.16,300.01 811.94,299.93 813.73,299.89 815.52,299.89 817.31,299.89 819.10,299.89 820.88,299.85 822.67,299.85 824.46,299.89 826.25,299.81 828.04,299.81 829.82,299.81 831.61,299.76 833.40,299.76 835.19,299.76 836.97,299.72 838.76,299.68 840.55,299.60 842.34,299.60 844.13,299.60 845.91,299.56 847.70,299.47 849.49,299.43 851.28,299.43 853.06,299.39 854.85,299.47 856.64,259.82 858.43,338.96 860.22,299.31 862.00,299.31 863.79,299.26 865.58,299.68 867.37,299.68 869.16,299.68 870.94,299.64 872.73,299.14 874.52,299.14 876.31,299.10 878.09,299.10 879.88,299.10 881.67,248.07 883.46,299.06 885.25,299.06 887.03,299.06 888.82,299.06 890.61,299.06 892.40,298.97 894.18,298.97 895.97,298.93 897.76,298.97 899.55,298.93 901.34,298.89 903.12,298.89 904.91,298.89 906.70,298.89 908.49,247.78 910.28,298.89 912.06,298.89 913.85,298.85 915.64,298.85 917.43,298.81 919.21,298.81 921.00,298.81 922.79,298.81 924.58,298.81 926.37,298.81 928.15,298.81 929.94,298.81 931.73,298.81 933.52,298.72 935.30,247.45 937.09,247.45 938.88,298.72 940.67,298.72 942.46,298.72 944.24,298.72 946.03,298.72 947.82,298.72 949.61,247.36 951.39,298.68 953.18,247.36 954.97,247.36 956.76,247.36 958.55,298.68 960.33,298.68 962.12,298.68 963.91,298.68 965.70,298.68 967.49,341.67 969.27,307.01 971.06,298.68 972.85,298.68 974.64,298.68 976.42,247.36 978.21,298.64 980.00,247.36"/>
  <circle cx="70.00" cy="50.00" r="2.5" fill="#2563eb"/>
  <circle cx="71.79" cy="50.12" r="2.5" fill="#2563eb"/>
  <circle cx="73.58" cy="50.17" r="2.5" fill="#2563eb"/>
  <circle cx="75.36" cy="50.46" r="2.5" fill="#2563eb"/>
  <circle cx="77.15" cy="50.00" r="2.5" fill="#2563eb"/>
  <circle cx="78.94" cy="266.90" r="2.5" fill="#2563eb"/>
  <circle cx="80.73" cy="50.12" r="2.5" fill="#2563eb"/>
  <circle cx="82.51" cy="50.08" r="2.5" fill="#2563eb"/>
  <circle cx="84.30" cy="177.46" r="2.5" fill="#2563eb"/>
  <circle cx="86.09" cy="211.58" r="2.5" fill="#2563eb"/>
  <circle cx="87.88" cy="175.34" r="2.5" fill="#2563eb"/>
  <circle cx="89.67" cy="304.14" r="2.5" fill="#2563eb"/>
  <circle cx="91.45" cy="200.46" r="2.5" fill="#2563eb"/>
  <circle cx="93.24" cy="250.94" r="2.5" fill="#2563eb"/>
  <circle cx="95.03" cy="300.01" r="2.5" fill="#2563eb"/>
  <circle cx="96.82" cy="300.06" r="2.5" fill="#2563eb"/>
  <circle cx="98.61" cy="300.01" r="2.5" fill="#2563eb"/>
  <circle cx="100.39" cy="300.01" r="2.5" fill="#2563eb"/>
  <circle cx="102.18" cy="348.00" r="2.5" fill="#2563eb"/>
  <circle cx="103.97" cy="300.01" r="2.5" fill="#2563eb"/>
  <circle cx="105.76" cy="249.99" r="2.5" fill="#2563eb"/>
  <circle cx="107.54" cy="200.00" r="2.5" fill="#2563eb"/>
  <circle cx="109.33" cy="249.99" r="2.5" fill="#2563eb"/>
  <circle cx="111.12" cy="249.99" r="2.5" fill="#2563eb"/>
  <circle cx="112.91" cy="250.03" r="2.5" fill="#2563eb"/>
  <circle cx="114.70" cy="250.03" r="2.5" fill="#2563eb"/>
  <circle cx="116.48" cy="250.03" r="2.5" fill="#2563eb"/>
  <circle cx="118.27" cy="250.40" r="2.5" fill="#2563eb"/>
  <circle cx="120.06" cy="250.90" r="2.5" fill="#2563eb"/>
  <circle cx="121.85" cy="250.90" r="2.5" fill="#2563eb"/>
  <circle cx="123.63" cy="251.32" r="2.5" fill="#2563eb"/>
  <circle cx="125.42" cy="249.94" r="2.5" fill="#2563eb"/>
  <circle cx="127.21" cy="300.01" r="2.5" fill="#2563eb"/>
  <circle cx="129.00" cy="299.93" r="2.5" fill="#2563eb"/>
  <circle cx="130.79" cy="251.03" r="2.5" fill="#2563eb"/>
  <circle cx="132.57" cy="300.68" r="2.5" fill="#2563eb"/>
  <circle cx="134.36" cy="250.03" r="2.5" fill="#2563eb"/>
  <circle cx="136.15" cy="200.00" r="2.5" fill="#2563eb"/>
  <circle cx="137.94" cy="249.99" r="2.5" fill="#2563eb"/>
  <circle cx="139.72" cy="250.03" r="2.5" fill="#2563eb"/>
  <circle cx="141.51" cy="250.03" r="2.5" fill="#2563eb"/>
  <circle cx="143.30" cy="250.03" r="2.5" fill="#2563eb"/>
  <circle cx="145.09" cy="300.01" r="2.5" fill="#2563eb"/>
  <circle cx="146.88" cy="200.04" r="2.5" fill="#2563eb"/>
  <circle cx="148.66" cy="250.03" r="2.5" fill="#2563eb"/>
  <circle cx="150.45" cy="250.03" r="2.5" fill="#2563eb"/>
  <circle cx="152.24" cy="250.03" r="2.5" fill="#2563eb"/>
  <circle cx="154.03" cy="249.90" r="2.5" fill="#2563eb"/>
  <circle cx="155.82" cy="250.03" r="2.5" fill="#2563eb"/>
  <circle cx="157.60" cy="250.03" r="2.5" fill="#2563eb"/>
  <circle cx="159.39" cy="250.94" r="2.5" fill="#2563eb"/>
  <circle cx="161.18" cy="250.44" r="2.5" fill="#2563eb"/>
  <circle cx="162.97" cy="250.03" r="2.5" fill="#2563eb"/>
  <circle cx="164.75" cy="250.03" r="2.5" fill="#2563eb"/>
  <circle cx="166.54" cy="300.47" r="2.5" fill="#2563eb"/>
  <circle cx="168.33" cy="300.01" r="2.5" fill="#2563eb"/>
  <circle cx="170.12" cy="300.43" r="2.5" fill="#2563eb"/>
  <circle cx="171.91" cy="250.03" r="2.5" fill="#2563eb"/>
  <circle cx="173.69" cy="249.99" r="2.5" fill="#2563eb"/>
  <circle cx="175.48" cy="300.43" r="2.5" fill="#2563eb"/>
  <circle cx="177.27" cy="249.90" r="2.5" fill="#2563eb"/>
  <circle cx="179.06" cy="249.99" r="2.5" fill="#2563eb"/>
  <circle cx="180.84" cy="249.99" r="2.5" fill="#2563eb"/>
  <circle cx="182.63" cy="200.04" r="2.5" fill="#2563eb"/>
  <circle cx="184.42" cy="300.01" r="2.5" fill="#2563eb"/>
  <circle cx="186.21" cy="300.01" r="2.5" fill="#2563eb"/>
  <circle cx="188.00" cy="300.01" r="2.5" fill="#2563eb"/>
  <circle cx="189.78" cy="249.90" r="2.5" fill="#2563eb"/>
  <circle cx="191.57" cy="300.01" r="2.5" fill="#2563eb"/>
  <circle cx="193.36" cy="250.03" r="2.5" fill="#2563eb"/>
  <circle cx="195.15" cy="249.99" r="2.5" fill="#2563eb"/>
  <circle cx="196.94" cy="199.96" r="2.5" fill="#2563eb"/>
  <circle cx="198.72" cy="300.01" r="2.5" fill="#2563eb"/>
  <circle cx="200.51" cy="200.00" r="2.5" fill="#2563eb"/>
  <circle cx="202.30" cy="250.36" r="2.5" fill="#2563eb"/>
  <circle cx="204.09" cy="250.03" r="2.5" fill="#2563eb"/>
  <circle cx="205.87" cy="300.01" r="2.5" fill="#2563eb"/>
  <circle cx="207.66" cy="300.01" r="2.5" fill="#2563eb"/>
  <circle cx="209.45" cy="250.44" r="2.5" fill="#2563eb"/>
  <circle cx="211.24" cy="300.01" r="2.5" fill="#2563eb"/>
  <circle cx="213.03" cy="250.03" r="2.5" fill="#2563eb"/>
  <circle cx="214.81" cy="250.03" r="2.5" fill="#2563eb"/>
  <circle cx="216.60" cy="249.99" r="2.5" fill="#2563eb"/>
  <circle cx="218.39" cy="250.49" r="2.5" fill="#2563eb"/>
  <circle cx="220.18" cy="250.03" r="2.5" fill="#2563eb"/>
  <circle cx="221.96" cy="200.04" r="2.5" fill="#2563eb"/>
  <circle cx="223.75" cy="300.01" r="2.5" fill="#2563eb"/>
  <circle cx="225.54" cy="250.03" r="2.5" fill="#2563eb"/>
  <circle cx="227.33" cy="300.01" r="2.5" fill="#2563eb"/>
  <circle cx="229.12" cy="250.11" r="2.5" fill="#2563eb"/>
  <circle cx="230.90" cy="300.01" r="2.5" fill="#2563eb"/>
  <circle cx="232.69" cy="250.03" r="2.5" fill="#2563eb"/>
  <circle cx="234.48" cy="250.03" r="2.5" fill="#2563eb"/>
  <circle cx="236.27" cy="199.92" r="2.5" fill="#2563eb"/>
  <circle cx="238.06" cy="250.03" r="2.5" fill="#2563eb"/>
  <circle cx="239.84" cy="250.03" r="2.5" fill="#2563eb"/>
  <circle cx="241.63" cy="250.03" r="2.5" fill="#2563eb"/>
  <circle cx="243.42" cy="254.36" r="2.5" fill="#2563eb"/>
  <circle cx="245.21" cy="300.01" r="2.5" fill="#2563eb"/>
  <circle cx="246.99" cy="299.97" r="2.5" fill="#2563eb"/>
  <circle cx="248.78" cy="250.36" r="2.5" fill="#2563eb"/>
  <circle cx="250.57" cy="299.97" r="2.5" fill="#2563eb"/>
  <circle cx="252.36" cy="250.03" r="2.5" fill="#2563eb"/>
  <circle cx="254.15" cy="250.03" r="2.5" fill="#2563eb"/>
  <circle cx="255.93" cy="250.03" r="2.5" fill="#2563eb"/>
  <circle cx="257.72" cy="250.03" r="2.5" fill="#2563eb"/>
  <circle cx="259.51" cy="249.99" r="2.5" fill="#2563eb"/>
  <circle cx="261.30" cy="200.00" r="2.5" fill="#2563eb"/>
  <circle cx="263.08" cy="299.93" r="2.5" fill="#2563eb"/>
  <circle cx="264.87" cy="300.01" r="2.5" fill="#2563eb"/>
  <circle cx="266.66" cy="299.97" r="2.5" fill="#2563eb"/>
  <circle cx="268.45" cy="249.94" r="2.5" fill="#2563eb"/>
  <circle cx="270.24" cy="249.99" r="2.5" fill="#2563eb"/>
  <circle cx="272.02" cy="249.82" r="2.5" fill="#2563eb"/>
  <circle cx="273.81" cy="249.94" r="2.5" fill="#2563eb"/>
  <circle cx="275.60" cy="250.28" r="2.5" fill="#2563eb"/>
  <circle cx="277.39" cy="207.00" r="2.5" fill="#2563eb"/>
  <circle cx="279.17" cy="250.03" r="2.5" fill="#2563eb"/>
  <circle cx="280.96" cy="250.32" r="2.5" fill="#2563eb"/>
  <circle cx="282.75" cy="250.40" r="2.5" fill="#2563eb"/>
  <circle cx="284.54" cy="300.93" r="2.5" fill="#2563eb"/>
  <circle cx="286.33" cy="300.01" r="2.5" fill="#2563eb"/>
  <circle cx="288.11" cy="300.10" r="2.5" fill="#2563eb"/>
  <circle cx="289.90" cy="249.94" r="2.5" fill="#2563eb"/>
  <circle cx="291.69" cy="249.99" r="2.5" fill="#2563eb"/>
  <circle cx="293.48" cy="250.07" r="2.5" fill="#2563eb"/>
  <circle cx="295.27" cy="249.99" r="2.5" fill="#2563eb"/>
  <circle cx="297.05" cy="250.03" r="2.5" fill="#2563eb"/>
  <circle cx="298.84" cy="249.94" r="2.5" fill="#2563eb"/>
  <circle cx="300.63" cy="200.00" r="2.5" fill="#2563eb"/>
  <circle cx="302.42" cy="300.39" r="2.5" fill="#2563eb"/>
  <circle cx="304.20" cy="300.01" r="2.5" fill="#2563eb"/>
  <circle cx="305.99" cy="300.01" r="2.5" fill="#2563eb"/>
  <circle cx="307.78" cy="250.44" r="2.5" fill="#2563eb"/>
  <circle cx="309.57" cy="300.39" r="2.5" fill="#2563eb"/>
  <circle cx="311.36" cy="249.86" r="2.5" fill="#2563eb"/>
  <circle cx="313.14" cy="250.11" r="2.5" fill="#2563eb"/>
  <circle cx="314.93" cy="201.46" r="2.5" fill="#2563eb"/>
  <circle cx="316.72" cy="300.01" r="2.5" fill="#2563eb"/>
  <circle cx="318.51" cy="200.83" r="2.5" fill="#2563eb"/>
  <circle cx="320.29" cy="250.03" r="2.5" fill="#2563eb"/>
  <circle cx="322.08" cy="249.99" r="2.5" fill="#2563eb"/>
  <circle cx="323.87" cy="300.26" r="2.5" fill="#2563eb"/>
  <circle cx="325.66" cy="300.01" r="2.5" fill="#2563eb"/>
  <circle cx="327.45" cy="300.01" r="2.5" fill="#2563eb"/>
  <circle cx="329.23" cy="250.03" r="2.5" fill="#2563eb"/>
  <circle cx="331.02" cy="250.03" r="2.5" fill="#2563eb"/>
  <circle cx="332.81" cy="250.03" r="2.5" fill="#2563eb"/>
  <circle cx="334.60" cy="250.03" r="2.5" fill="#2563eb"/>
  <circle cx="336.39" cy="249.99" r="2.5" fill="#2563eb"/>
  <circle cx="338.17" cy="250.03" r="2.5" fill="#2563eb"/>
  <circle cx="339.96" cy="200.00" r="2.5" fill="#2563eb"/>
  <circle cx="341.75" cy="300.26" r="2.5" fill="#2563eb"/>
  <circle cx="343.54" cy="249.99" r="2.5" fill="#2563eb"/>
  <circle cx="345.32" cy="300.01" r="2.5" fill="#2563eb"/>
  <circle cx="347.11" cy="249.94" r="2.5" fill="#2563eb"/>
  <circle cx="348.90" cy="250.03" r="2.5" fill="#2563eb"/>
  <circle cx="350.69" cy="250.03" r="2.5" fill="#2563eb"/>
  <circle cx="352.48" cy="250.03" r="2.5" fill="#2563eb"/>
  <circle cx="354.26" cy="200.04" r="2.5" fill="#2563eb"/>
  <circle cx="356.05" cy="300.01" r="2.5" fill="#2563eb"/>
  <circle cx="357.84" cy="249.90" r="2.5" fill="#2563eb"/>
  <circle cx="359.63" cy="300.01" r="2.5" fill="#2563eb"/>
  <circle cx="361.41" cy="300.01" r="2.5" fill="#2563eb"/>
  <circle cx="363.20" cy="300.06" r="2.5" fill="#2563eb"/>
  <circle cx="364.99" cy="300.01" r="2.5" fill="#2563eb"/>
  <circle cx="366.78" cy="300.01" r="2.5" fill="#2563eb"/>
  <circle cx="368.57" cy="243.95" r="2.5" fill="#2563eb"/>
  <circle cx="370.35" cy="249.94" r="2.5" fill="#2563eb"/>
  <circle cx="372.14" cy="299.97" r="2.5" fill="#2563eb"/>
  <circle cx="373.93" cy="300.01" r="2.5" fill="#2563eb"/>
  <circle cx="375.72" cy="300.01" r="2.5" fill="#2563eb"/>
  <circle cx="377.50" cy="250.03" r="2.5" fill="#2563eb"/>
  <circle cx="379.29" cy="300.01" r="2.5" fill="#2563eb"/>
  <circle cx="381.08" cy="300.01" r="2.5" fill="#2563eb"/>
  <circle cx="382.87" cy="299.97" r="2.5" fill="#2563eb"/>
  <circle cx="384.66" cy="249.99" r="2.5" fill="#2563eb"/>
  <circle cx="386.44" cy="300.01" r="2.5" fill="#2563eb"/>
  <circle cx="388.23" cy="299.93" r="2.5" fill="#2563eb"/>
  <circle cx="390.02" cy="300.01" r="2.5" fill="#2563eb"/>
  <circle cx="391.81" cy="299.93" r="2.5" fill="#2563eb"/>
  <circle cx="393.60" cy="300.01" r="2.5" fill="#2563eb"/>
  <circle cx="395.38" cy="300.01" r="2.5" fill="#2563eb"/>
  <circle cx="397.17" cy="299.89" r="2.5" fill="#2563eb"/>
  <circle cx="398.96" cy="299.97" r="2.5" fill="#2563eb"/>
  <circle cx="400.75" cy="250.03" r="2.5" fill="#2563eb"/>
  <circle cx="402.53" cy="299.93" r="2.5" fill="#2563eb"/>
  <circle cx="404.32" cy="299.89" r="2.5" fill="#2563eb"/>
  <circle cx="406.11" cy="299.97" r="2.5" fill="#2563eb"/>
  <circle cx="407.90" cy="249.94" r="2.5" fill="#2563eb"/>
  <circle cx="409.69" cy="300.01" r="2.5" fill="#2563eb"/>
  <circle cx="411.47" cy="300.01" r="2.5" fill="#2563eb"/>
  <circle cx="413.26" cy="299.97" r="2.5" fill="#2563eb"/>
  <circle cx="415.05" cy="249.99" r="2.5" fill="#2563eb"/>
  <circle cx="416.84" cy="299.97" r="2.5" fill="#2563eb"/>
  <circle cx="418.62" cy="299.97" r="2.5" fill="#2563eb"/>
  <circle cx="420.41" cy="300.06" r="2.5" fill="#2563eb"/>
  <circle cx="422.20" cy="300.06" r="2.5" fill="#2563eb"/>
  <circle cx="423.99" cy="299.93" r="2.5" fill="#2563eb"/>
  <circle cx="425.78" cy="300.01" r="2.5" fill="#2563eb"/>
  <circle cx="427.56" cy="300.01" r="2.5" fill="#2563eb"/>
  <circle cx="429.35" cy="299.93" r="2.5" fill="#2563eb"/>
  <circle cx="431.14" cy="300.01" r="2.5" fill="#2563eb"/>
  <circle cx="432.93" cy="300.01" r="2.5" fill="#2563eb"/>
  <circle cx="434.72" cy="299.97" r="2.5" fill="#2563eb"/>
  <circle cx="436.50" cy="300.01" r="2.5" fill="#2563eb"/>
  <circle cx="438.29" cy="300.01" r="2.5" fill="#2563eb"/>
  <circle cx="440.08" cy="300.01" r="2.5" fill="#2563eb"/>
  <circle cx="441.87" cy="300.01" r="2.5" fill="#2563eb"/>
  <circle cx="443.65" cy="249.86" r="2.5" fill="#2563eb"/>
  <circle cx="445.44" cy="300.01" r="2.5" fill="#2563eb"/>
  <circle cx="447.23" cy="300.10" r="2.5" fill="#2563eb"/>
  <circle cx="449.02" cy="299.93" r="2.5" fill="#2563eb"/>
  <circle cx="450.81" cy="300.01" r="2.5" fill="#2563eb"/>
  <circle cx="452.59" cy="299.93" r="2.5" fill="#2563eb"/>
  <circle cx="454.38" cy="300.01" r="2.5" fill="#2563eb"/>
  <circle cx="456.17" cy="300.01" r="2.5" fill="#2563eb"/>
  <circle cx="457.96" cy="300.01" r="2.5" fill="#2563eb"/>
  <circle cx="459.74" cy="300.01" r="2.5" fill="#2563eb"/>
  <circle cx="461.53" cy="300.01" r="2.5" fill="#2563eb"/>
  <circle cx="463.32" cy="299.97" r="2.5" fill="#2563eb"/>
  <circle cx="465.11" cy="300.01" r="2.5" fill="#2563eb"/>
  <circle cx="466.90" cy="300.01" r="2.5" fill="#2563eb"/>
  <circle cx="468.68" cy="300.01" r="2.5" fill="#2563eb"/>
  <circle cx="470.47" cy="300.01" r="2.5" fill="#2563eb"/>
  <circle cx="472.26" cy="250.03" r="2.5" fill="#2563eb"/>
  <circle cx="474.05" cy="300.01" r="2.5" fill="#2563eb"/>
  <circle cx="475.83" cy="300.01" r="2.5" fill="#2563eb"/>
  <circle cx="477.62" cy="299.97" r="2.5" fill="#2563eb"/>
  <circle cx="479.41" cy="300.01" r="2.5" fill="#2563eb"/>
  <circle cx="481.20" cy="300.01" r="2.5" fill="#2563eb"/>
  <circle cx="482.99" cy="299.97" r="2.5" fill="#2563eb"/>
  <circle cx="484.77" cy="299.97" r="2.5" fill="#2563eb"/>
  <circle cx="486.56" cy="300.01" r="2.5" fill="#2563eb"/>
  <circle cx="488.35" cy="299.97" r="2.5" fill="#2563eb"/>
  <circle cx="490.14" cy="300.01" r="2.5" fill="#2563eb"/>
  <circle cx="491.93" cy="299.93" r="2.5" fill="#2563eb"/>
  <circle cx="493.71" cy="300.01" r="2.5" fill="#2563eb"/>
  <circle cx="495.50" cy="250.03" r="2.5" fill="#2563eb"/>
  <circle cx="497.29" cy="300.01" r="2.5" fill="#2563eb"/>
  <circle cx="499.08" cy="300.01" r="2.5" fill="#2563eb"/>
  <circle cx="500.86" cy="300.01" r="2.5" fill="#2563eb"/>
  <circle cx="502.65" cy="300.01" r="2.5" fill="#2563eb"/>
  <circle cx="504.44" cy="300.01" r="2.5" fill="#2563eb"/>
  <circle cx="506.23" cy="299.89" r="2.5" fill="#2563eb"/>
  <circle cx="508.02" cy="300.01" r="2.5" fill="#2563eb"/>
  <circle cx="509.80" cy="300.01" r="2.5" fill="#2563eb"/>
  <circle cx="511.59" cy="250.07" r="2.5" fill="#2563eb"/>
  <circle cx="513.38" cy="300.01" r="2.5" fill="#2563eb"/>
  <circle cx="515.17" cy="299.93" r="2.5" fill="#2563eb"/>
  <circle cx="516.95" cy="300.01" r="2.5" fill="#2563eb"/>
  <circle cx="518.74" cy="299.97" r="2.5" fill="#2563eb"/>
  <circle cx="520.53" cy="299.97" r="2.5" fill="#2563eb"/>
  <circle cx="522.32" cy="299.97" r="2.5" fill="#2563eb"/>
  <circle cx="524.11" cy="250.03" r="2.5" fill="#2563eb"/>
  <circle cx="525.89" cy="300.01" r="2.5" fill="#2563eb"/>
  <circle cx="527.68" cy="300.01" r="2.5" fill="#2563eb"/>
  <circle cx="529.47" cy="300.01" r="2.5" fill="#2563eb"/>
  <circle cx="531.26" cy="300.01" r="2.5" fill="#2563eb"/>
  <circle cx="533.05" cy="299.97" r="2.5" fill="#2563eb"/>
  <circle cx="534.83" cy="300.01" r="2.5" fill="#2563eb"/>
  <circle cx="536.62" cy="299.97" r="2.5" fill="#2563eb"/>
  <circle cx="538.41" cy="300.01" r="2.5" fill="#2563eb"/>
  <circle cx="540.20" cy="299.97" r="2.5" fill="#2563eb"/>
  <circle cx="541.98" cy="249.90" r="2.5" fill="#2563eb"/>
  <circle cx="543.77" cy="300.01" r="2.5" fill="#2563eb"/>
  <circle cx="545.56" cy="300.01" r="2.5" fill="#2563eb"/>
  <circle cx="547.35" cy="299.89" r="2.5" fill="#2563eb"/>
  <circle cx="549.14" cy="299.97" r="2.5" fill="#2563eb"/>
  <circle cx="550.92" cy="299.97" r="2.5" fill="#2563eb"/>
  <circle cx="552.71" cy="249.99" r="2.5" fill="#2563eb"/>
  <circle cx="554.50" cy="299.97" r="2.5" fill="#2563eb"/>
  <circle cx="556.29" cy="299.89" r="2.5" fill="#2563eb"/>
  <circle cx="558.07" cy="300.01" r="2.5" fill="#2563eb"/>
  <circle cx="559.86" cy="299.97" r="2.5" fill="#2563eb"/>
  <circle cx="561.65" cy="299.97" r="2.5" fill="#2563eb"/>
  <circle cx="563.44" cy="300.01" r="2.5" fill="#2563eb"/>
  <circle cx="565.23" cy="299.97" r="2.5" fill="#2563eb"/>
  <circle cx="567.01" cy="249.99" r="2.5" fill="#2563eb"/>
  <circle cx="568.80" cy="299.97" r="2.5" fill="#2563eb"/>
  <circle cx="570.59" cy="299.97" r="2.5" fill="#2563eb"/>
  <circle cx="572.38" cy="300.06" r="2.5" fill="#2563eb"/>
  <circle cx="574.17" cy="300.06" r="2.5" fill="#2563eb"/>
  <circle cx="575.95" cy="249.94" r="2.5" fill="#2563eb"/>
  <circle cx="577.74" cy="300.01" r="2.5" fill="#2563eb"/>
  <circle cx="579.53" cy="299.93" r="2.5" fill="#2563eb"/>
  <circle cx="581.32" cy="300.01" r="2.5" fill="#2563eb"/>
  <circle cx="583.10" cy="300.01" r="2.5" fill="#2563eb"/>
  <circle cx="584.89" cy="249.99" r="2.5" fill="#2563eb"/>
  <circle cx="586.68" cy="300.01" r="2.5" fill="#2563eb"/>
  <circle cx="588.47" cy="300.01" r="2.5" fill="#2563eb"/>
  <circle cx="590.26" cy="300.01" r="2.5" fill="#2563eb"/>
  <circle cx="592.04" cy="299.93" r="2.5" fill="#2563eb"/>
  <circle cx="593.83" cy="299.93" r="2.5" fill="#2563eb"/>
  <circle cx="595.62" cy="300.01" r="2.5" fill="#2563eb"/>
  <circle cx="597.41" cy="300.01" r="2.5" fill="#2563eb"/>
  <circle cx="599.19" cy="249.94" r="2.5" fill="#2563eb"/>
  <circle cx="600.98" cy="299.97" r="2.5" fill="#2563eb"/>
  <circle cx="602.77" cy="299.97" r="2.5" fill="#2563eb"/>
  <circle cx="604.56" cy="300.01" r="2.5" fill="#2563eb"/>
  <circle cx="606.35" cy="300.01" r="2.5" fill="#2563eb"/>
  <circle cx="608.13" cy="300.01" r="2.5" fill="#2563eb"/>
  <circle cx="609.92" cy="249.99" r="2.5" fill="#2563eb"/>
  <circle cx="611.71" cy="300.01" r="2.5" fill="#2563eb"/>
  <circle cx="613.50" cy="300.01" r="2.5" fill="#2563eb"/>
  <circle cx="615.28" cy="300.01" r="2.5" fill="#2563eb"/>
  <circle cx="617.07" cy="250.03" r="2.5" fill="#2563eb"/>
  <circle cx="618.86" cy="300.01" r="2.5" fill="#2563eb"/>
  <circle cx="620.65" cy="300.01" r="2.5" fill="#2563eb"/>
  <circle cx="622.44" cy="300.01" r="2.5" fill="#2563eb"/>
  <circle cx="624.22" cy="299.97" r="2.5" fill="#2563eb"/>
  <circle cx="626.01" cy="300.01" r="2.5" fill="#2563eb"/>
  <circle cx="627.80" cy="300.01" r="2.5" fill="#2563eb"/>
  <circle cx="629.59" cy="299.97" r="2.5" fill="#2563eb"/>
  <circle cx="631.38" cy="299.97" r="2.5" fill="#2563eb"/>
  <circle cx="633.16" cy="300.01" r="2.5" fill="#2563eb"/>
  <circle cx="634.95" cy="300.01" r="2.5" fill="#2563eb"/>
  <circle cx="636.74" cy="299.97" r="2.5" fill="#2563eb"/>
  <circle cx="638.53" cy="299.93" r="2.5" fill="#2563eb"/>
  <circle cx="640.31" cy="300.01" r="2.5" fill="#2563eb"/>
  <circle cx="642.10" cy="300.06" r="2.5" fill="#2563eb"/>
  <circle cx="643.89" cy="299.97" r="2.5" fill="#2563eb"/>
  <circle cx="645.68" cy="300.01" r="2.5" fill="#2563eb"/>
  <circle cx="647.47" cy="250.03" r="2.5" fill="#2563eb"/>
  <circle cx="649.25" cy="250.03" r="2.5" fill="#2563eb"/>
  <circle cx="651.04" cy="299.93" r="2.5" fill="#2563eb"/>
  <circle cx="652.83" cy="299.97" r="2.5" fill="#2563eb"/>
  <circle cx="654.62" cy="300.01" r="2.5" fill="#2563eb"/>
  <circle cx="656.40" cy="300.01" r="2.5" fill="#2563eb"/>
  <circle cx="658.19" cy="300.06" r="2.5" fill="#2563eb"/>
  <circle cx="659.98" cy="300.01" r="2.5" fill="#2563eb"/>
  <circle cx="661.77" cy="299.93" r="2.5" fill="#2563eb"/>
  <circle cx="663.56" cy="300.01" r="2.5" fill="#2563eb"/>
  <circle cx="665.34" cy="300.01" r="2.5" fill="#2563eb"/>
  <circle cx="667.13" cy="299.97" r="2.5" fill="#2563eb"/>
  <circle cx="668.92" cy="299.97" r="2.5" fill="#2563eb"/>
  <circle cx="670.71" cy="300.01" r="2.5" fill="#2563eb"/>
  <circle cx="672.50" cy="250.03" r="2.5" fill="#2563eb"/>
  <circle cx="674.28" cy="300.01" r="2.5" fill="#2563eb"/>
  <circle cx="676.07" cy="300.01" r="2.5" fill="#2563eb"/>
  <circle cx="677.86" cy="300.01" r="2.5" fill="#2563eb"/>
  <circle cx="679.65" cy="299.97" r="2.5" fill="#2563eb"/>
  <circle cx="681.43" cy="300.01" r="2.5" fill="#2563eb"/>
  <circle cx="683.22" cy="299.97" r="2.5" fill="#2563eb"/>
  <circle cx="685.01" cy="300.01" r="2.5" fill="#2563eb"/>
  <circle cx="686.80" cy="299.97" r="2.5" fill="#2563eb"/>
  <circle cx="688.59" cy="299.97" r="2.5" fill="#2563eb"/>
  <circle cx="690.37" cy="299.93" r="2.5" fill="#2563eb"/>
  <circle cx="692.16" cy="300.01" r="2.5" fill="#2563eb"/>
  <circle cx="693.95" cy="300.01" r="2.5" fill="#2563eb"/>
  <circle cx="695.74" cy="299.89" r="2.5" fill="#2563eb"/>
  <circle cx="697.52" cy="299.97" r="2.5" fill="#2563eb"/>
  <circle cx="699.31" cy="299.97" r="2.5" fill="#2563eb"/>
  <circle cx="701.10" cy="300.06" r="2.5" fill="#2563eb"/>
  <circle cx="702.89" cy="249.90" r="2.5" fill="#2563eb"/>
  <circle cx="704.68" cy="299.89" r="2.5" fill="#2563eb"/>
  <circle cx="706.46" cy="300.01" r="2.5" fill="#2563eb"/>
  <circle cx="708.25" cy="299.97" r="2.5" fill="#2563eb"/>
  <circle cx="710.04" cy="299.97" r="2.5" fill="#2563eb"/>
  <circle cx="711.83" cy="299.97" r="2.5" fill="#2563eb"/>
  <circle cx="713.61" cy="300.01" r="2.5" fill="#2563eb"/>
  <circle cx="715.40" cy="300.01" r="2.5" fill="#2563eb"/>
  <circle cx="717.19" cy="299.97" r="2.5" fill="#2563eb"/>
  <circle cx="718.98" cy="299.97" r="2.5" fill="#2563eb"/>
  <circle cx="720.77" cy="299.97" r="2.5" fill="#2563eb"/>
  <circle cx="722.55" cy="250.03" r="2.5" fill="#2563eb"/>
  <circle cx="724.34" cy="299.93" r="2.5" fill="#2563eb"/>
  <circle cx="726.13" cy="300.01" r="2.5" fill="#2563eb"/>
  <circle cx="727.92" cy="300.01" r="2.5" fill="#2563eb"/>
  <circle cx="729.71" cy="299.93" r="2.5" fill="#2563eb"/>
  <circle cx="731.49" cy="300.01" r="2.5" fill="#2563eb"/>
  <circle cx="733.28" cy="300.01" r="2.5" fill="#2563eb"/>
  <circle cx="735.07" cy="299.97" r="2.5" fill="#2563eb"/>
  <circle cx="736.86" cy="300.01" r="2.5" fill="#2563eb"/>
  <circle cx="738.64" cy="300.01" r="2.5" fill="#2563eb"/>
  <circle cx="740.43" cy="300.06" r="2.5" fill="#2563eb"/>
  <circle cx="742.22" cy="300.01" r="2.5" fill="#2563eb"/>
  <circle cx="744.01" cy="299.97" r="2.5" fill="#2563eb"/>
  <circle cx="745.80" cy="299.89" r="2.5" fill="#2563eb"/>
  <circle cx="747.58" cy="300.01" r="2.5" fill="#2563eb"/>
  <circle cx="749.37" cy="300.01" r="2.5" fill="#2563eb"/>
  <circle cx="751.16" cy="249.94" r="2.5" fill="#2563eb"/>
  <circle cx="752.95" cy="249.94" r="2.5" fill="#2563eb"/>
  <circle cx="754.73" cy="300.01" r="2.5" fill="#2563eb"/>
  <circle cx="756.52" cy="300.01" r="2.5" fill="#2563eb"/>
  <circle cx="758.31" cy="300.01" r="2.5" fill="#2563eb"/>
  <circle cx="760.10" cy="300.01" r="2.5" fill="#2563eb"/>
  <circle cx="761.89" cy="299.97" r="2.5" fill="#2563eb"/>
  <circle cx="763.67" cy="250.03" r="2.5" fill="#2563eb"/>
  <circle cx="765.46" cy="300.01" r="2.5" fill="#2563eb"/>
  <circle cx="767.25" cy="300.01" r="2.5" fill="#2563eb"/>
  <circle cx="769.04" cy="300.01" r="2.5" fill="#2563eb"/>
  <circle cx="770.83" cy="300.01" r="2.5" fill="#2563eb"/>
  <circle cx="772.61" cy="250.03" r="2.5" fill="#2563eb"/>
  <circle cx="774.40" cy="249.99" r="2.5" fill="#2563eb"/>
  <circle cx="776.19" cy="300.01" r="2.5" fill="#2563eb"/>
  <circle cx="777.98" cy="299.97" r="2.5" fill="#2563eb"/>
  <circle cx="779.76" cy="300.01" r="2.5" fill="#2563eb"/>
  <circle cx="781.55" cy="299.97" r="2.5" fill="#2563eb"/>
  <circle cx="783.34" cy="300.01" r="2.5" fill="#2563eb"/>
  <circle cx="785.13" cy="299.97" r="2.5" fill="#2563eb"/>
  <circle cx="786.92" cy="299.97" r="2.5" fill="#2563eb"/>
  <circle cx="788.70" cy="299.97" r="2.5" fill="#2563eb"/>
  <circle cx="790.49" cy="300.06" r="2.5" fill="#2563eb"/>
  <circle cx="792.28" cy="249.99" r="2.5" fill="#2563eb"/>
  <circle cx="794.07" cy="300.01" r="2.5" fill="#2563eb"/>
  <circle cx="795.85" cy="250.03" r="2.5" fill="#2563eb"/>
  <circle cx="797.64" cy="249.94" r="2.5" fill="#2563eb"/>
  <circle cx="799.43" cy="249.99" r="2.5" fill="#2563eb"/>
  <circle cx="801.22" cy="300.01" r="2.5" fill="#2563eb"/>
  <circle cx="803.01" cy="300.06" r="2.5" fill="#2563eb"/>
  <circle cx="804.79" cy="300.01" r="2.5" fill="#2563eb"/>
  <circle cx="806.58" cy="299.97" r="2.5" fill="#2563eb"/>
  <circle cx="808.37" cy="299.97" r="2.5" fill="#2563eb"/>
  <circle cx="810.16" cy="300.01" r="2.5" fill="#2563eb"/>
  <circle cx="811.94" cy="299.93" r="2.5" fill="#2563eb"/>
  <circle cx="813.73" cy="299.89" r="2.5" fill="#2563eb"/>
  <circle cx="815.52" cy="299.89" r="2.5" fill="#2563eb"/>
  <circle cx="817.31" cy="299.89" r="2.5" fill="#2563eb"/>
  <circle cx="819.10" cy="299.89" r="2.5" fill="#2563eb"/>
  <circle cx="820.88" cy="299.85" r="2.5" fill="#2563eb"/>
  <circle cx="822.67" cy="299.85" r="2.5" fill="#2563eb"/>
  <circle cx="824.46" cy="299.89" r="2.5" fill="#2563eb"/>
  <circle cx="826.25" cy="299.81" r="2.5" fill="#2563eb"/>
  <circle cx="828.04" cy="299.81" r="2.5" fill="#2563eb"/>
  <circle cx="829.82" cy="299.81" r="2.5" fill="#2563eb"/>
  <circle cx="831.61" cy="299.76" r="2.5" fill="#2563eb"/>
  <circle cx="833.40" cy="299.76" r="2.5" fill="#2563eb"/>
  <circle cx="835.19" cy="299.76" r="2.5" fill="#2563eb"/>
  <circle cx="836.97" cy="299.72" r="2.5" fill="#2563eb"/>
  <circle cx="838.76" cy="299.68" r="2.5" fill="#2563eb"/>
  <circle cx="840.55" cy="299.60" r="2.5" fill="#2563eb"/>
  <circle cx="842.34" cy="299.60" r="2.5" fill="#2563eb"/>
  <circle cx="844.13" cy="299.60" r="2.5" fill="#2563eb"/>
  <circle cx="845.91" cy="299.56" r="2.5" fill="#2563eb"/>
  <circle cx="847.70" cy="299.47" r="2.5" fill="#2563eb"/>
  <circle cx="849.49" cy="299.43" r="2.5" fill="#2563eb"/>
  <circle cx="851.28" cy="299.43" r="2.5" fill="#2563eb"/>
  <circle cx="853.06" cy="299.39" r="2.5" fill="#2563eb"/>
  <circle cx="854.85" cy="299.47" r="2.5" fill="#2563eb"/>
  <circle cx="856.64" cy="259.82" r="2.5" fill="#2563eb"/>
  <circle cx="858.43" cy="338.96" r="2.5" fill="#2563eb"/>
  <circle cx="860.22" cy="299.31" r="2.5" fill="#2563eb"/>
  <circle cx="862.00" cy="299.31" r="2.5" fill="#2563eb"/>
  <circle cx="863.79" cy="299.26" r="2.5" fill="#2563eb"/>
  <circle cx="865.58" cy="299.68" r="2.5" fill="#2563eb"/>
  <circle cx="867.37" cy="299.68" r="2.5" fill="#2563eb"/>
  <circle cx="869.16" cy="299.68" r="2.5" fill="#2563eb"/>
  <circle cx="870.94" cy="299.64" r="2.5" fill="#2563eb"/>
  <circle cx="872.73" cy="299.14" r="2.5" fill="#2563eb"/>
  <circle cx="874.52" cy="299.14" r="2.5" fill="#2563eb"/>
  <circle cx="876.31" cy="299.10" r="2.5" fill="#2563eb"/>
  <circle cx="878.09" cy="299.10" r="2.5" fill="#2563eb"/>
  <circle cx="879.88" cy="299.10" r="2.5" fill="#2563eb"/>
  <circle cx="881.67" cy="248.07" r="2.5" fill="#2563eb"/>
  <circle cx="883.46" cy="299.06" r="2.5" fill="#2563eb"/>
  <circle cx="885.25" cy="299.06" r="2.5" fill="#2563eb"/>
  <circle cx="887.03" cy="299.06" r="2.5" fill="#2563eb"/>
  <circle cx="888.82" cy="299.06" r="2.5" fill="#2563eb"/>
  <circle cx="890.61" cy="299.06" r="2.5" fill="#2563eb"/>
  <circle cx="892.40" cy="298.97" r="2.5" fill="#2563eb"/>
  <circle cx="894.18" cy="298.97" r="2.5" fill="#2563eb"/>
  <circle cx="895.97" cy="298.93" r="2.5" fill="#2563eb"/>
  <circle cx="897.76" cy="298.97" r="2.5" fill="#2563eb"/>
  <circle cx="899.55" cy="298.93" r="2.5" fill="#2563eb"/>
  <circle cx="901.34" cy="298.89" r="2.5" fill="#2563eb"/>
  <circle cx="903.12" cy="298.89" r="2.5" fill="#2563eb"/>
  <circle cx="904.91" cy="298.89" r="2.5" fill="#2563eb"/>
  <circle cx="906.70" cy="298.89" r="2.5" fill="#2563eb"/>
  <circle cx="908.49" cy="247.78" r="2.5" fill="#2563eb"/>
  <circle cx="910.28" cy="298.89" r="2.5" fill="#2563eb"/>
  <circle cx="912.06" cy="298.89" r="2.5" fill="#2563eb"/>
  <circle cx="913.85" cy="298.85" r="2.5" fill="#2563eb"/>
  <circle cx="915.64" cy="298.85" r="2.5" fill="#2563eb"/>
  <circle cx="917.43" cy="298.81" r="2.5" fill="#2563eb"/>
  <circle cx="919.21" cy="298.81" r="2.5" fill="#2563eb"/>
  <circle cx="921.00" cy="298.81" r="2.5" fill="#2563eb"/>
  <circle cx="922.79" cy="298.81" r="2.5" fill="#2563eb"/>
  <circle cx="924.58" cy="298.81" r="2.5" fill="#2563eb"/>
  <circle cx="926.37" cy="298.81" r="2.5" fill="#2563eb"/>
  <circle cx="928.15" cy="298.81" r="2.5" fill="#2563eb"/>
  <circle cx="929.94" cy="298.81" r="2.5" fill="#2563eb"/>
  <circle cx="931.73" cy="298.81" r="2.5" fill="#2563eb"/>
  <circle cx="933.52" cy="298.72" r="2.5" fill="#2563eb"/>
  <circle cx="935.30" cy="247.45" r="2.5" fill="#2563eb"/>
  <circle cx="937.09" cy="247.45" r="2.5" fill="#2563eb"/>
  <circle cx="938.88" cy="298.72" r="2.5" fill="#2563eb"/>
  <circle cx="940.67" cy="298.72" r="2.5" fill="#2563eb"/>
  <circle cx="942.46" cy="298.72" r="2.5" fill="#2563eb"/>
  <circle cx="944.24" cy="298.72" r="2.5" fill="#2563eb"/>
  <circle cx="946.03" cy="298.72" r="2.5" fill="#2563eb"/>
  <circle cx="947.82" cy="298.72" r="2.5" fill="#2563eb"/>
  <circle cx="949.61" cy="247.36" r="2.5" fill="#2563eb"/>
  <circle cx="951.39" cy="298.68" r="2.5" fill="#2563eb"/>
  <circle cx="953.18" cy="247.36" r="2.5" fill="#2563eb"/>
  <circle cx="954.97" cy="247.36" r="2.5" fill="#2563eb"/>
  <circle cx="956.76" cy="247.36" r="2.5" fill="#2563eb"/>
  <circle cx="958.55" cy="298.68" r="2.5" fill="#2563eb"/>
  <circle cx="960.33" cy="298.68" r="2.5" fill="#2563eb"/>
  <circle cx="962.12" cy="298.68" r="2.5" fill="#2563eb"/>
  <circle cx="963.91" cy="298.68" r="2.5" fill="#2563eb"/>
  <circle cx="965.70" cy="298.68" r="2.5" fill="#2563eb"/>
  <circle cx="967.49" cy="341.67" r="2.5" fill="#2563eb"/>
  <circle cx="969.27" cy="307.01" r="2.5" fill="#2563eb"/>
  <circle cx="971.06" cy="298.68" r="2.5" fill="#2563eb"/>
  <circle cx="972.85" cy="298.68" r="2.5" fill="#2563eb"/>
  <circle cx="974.64" cy="298.68" r="2.5" fill="#2563eb"/>
  <circle cx="976.42" cy="247.36" r="2.5" fill="#2563eb"/>
  <circle cx="978.21" cy="298.64" r="2.5" fill="#2563eb"/>
  <circle cx="980.00" cy="247.36" r="2.5" fill="#2563eb"/>
</svg>
