<?xml version="1.0" encoding="UTF-8"?>
<svg xmlns="http://www.w3.org/2000/svg" width="1000" height="420" viewBox="0 0 1000 420">
  <rect width="100%" height="100%" fill="#ffffff"/>
  <text x="70" y="28" font-size="20" font-weight="600">수집 시점 기준 - 시간별 스냅샷</text>
  <text x="70" y="402" font-size="12" fill="#555">스냅샷 수</text>
  <line x1="70" y1="350.00" x2="980" y2="350.00" stroke="#e5e7eb" stroke-width="1"/>
  <text x="62" y="354.00" font-size="11" fill="#6b7280" text-anchor="end">0</text>
  <line x1="70" y1="290.00" x2="980" y2="290.00" stroke="#e5e7eb" stroke-width="1"/>
  <text x="62" y="294.00" font-size="11" fill="#6b7280" text-anchor="end">1,440</text>
  <line x1="70" y1="230.00" x2="980" y2="230.00" stroke="#e5e7eb" stroke-width="1"/>
  <text x="62" y="234.00" font-size="11" fill="#6b7280" text-anchor="end">2,880</text>
  <line x1="70" y1="170.00" x2="980" y2="170.00" stroke="#e5e7eb" stroke-width="1"/>
  <text x="62" y="174.00" font-size="11" fill="#6b7280" text-anchor="end">4,321</text>
  <line x1="70" y1="110.00" x2="980" y2="110.00" stroke="#e5e7eb" stroke-width="1"/>
  <text x="62" y="114.00" font-size="11" fill="#6b7280" text-anchor="end">5,761</text>
  <line x1="70" y1="50.00" x2="980" y2="50.00" stroke="#e5e7eb" stroke-width="1"/>
  <text x="62" y="54.00" font-size="11" fill="#6b7280" text-anchor="end">7,202</text>
  <line x1="70" y1="350" x2="980" y2="350" stroke="#111827" stroke-width="1.2"/>
  <line x1="70" y1="50" x2="70" y2="350" stroke="#111827" stroke-width="1.2"/>
  <line x1="70.00" y1="350" x2="70.00" y2="356" stroke="#9ca3af" stroke-width="1"/>
  <text x="70.00" y="372" font-size="10" fill="#6b7280" text-anchor="middle">2026-02-28 18</text>
  <line x1="144.25" y1="350" x2="144.25" y2="356" stroke="#9ca3af" stroke-width="1"/>
  <text x="144.25" y="372" font-size="10" fill="#6b7280" text-anchor="middle">2026-03-08 18</text>
  <line x1="218.49" y1="350" x2="218.49" y2="356" stroke="#9ca3af" stroke-width="1"/>
  <text x="218.49" y="372" font-size="10" fill="#6b7280" text-anchor="middle">2026-03-10 13</text>
  <line x1="292.74" y1="350" x2="292.74" y2="356" stroke="#9ca3af" stroke-width="1"/>
  <text x="292.74" y="372" font-size="10" fill="#6b7280" text-anchor="middle">2026-03-12 06</text>
  <line x1="366.99" y1="350" x2="366.99" y2="356" stroke="#9ca3af" stroke-width="1"/>
  <text x="366.99" y="372" font-size="10" fill="#6b7280" text-anchor="middle">2026-03-14 01</text>
  <line x1="441.23" y1="350" x2="441.23" y2="356" stroke="#9ca3af" stroke-width="1"/>
  <text x="441.23" y="372" font-size="10" fill="#6b7280" text-anchor="middle">2026-03-16 06</text>
  <line x1="515.48" y1="350" x2="515.48" y2="356" stroke="#9ca3af" stroke-width="1"/>
  <text x="515.48" y="372" font-size="10" fill="#6b7280" text-anchor="middle">2026-03-19 00</text>
  <line x1="589.73" y1="350" x2="589.73" y2="356" stroke="#9ca3af" stroke-width="1"/>
  <text x="589.73" y="372" font-size="10" fill="#6b7280" text-anchor="middle">2026-03-21 07</text>
  <line x1="663.97" y1="350" x2="663.97" y2="356" stroke="#9ca3af" stroke-width="1"/>
  <text x="663.97" y="372" font-size="10" fill="#6b7280" text-anchor="middle">2026-03-23 14</text>
  <line x1="738.22" y1="350" x2="738.22" y2="356" stroke="#9ca3af" stroke-width="1"/>
  <text x="738.22" y="372" font-size="10" fill="#6b7280" text-anchor="middle">2026-03-26 05</text>
  <line x1="812.47" y1="350" x2="812.47" y2="356" stroke="#9ca3af" stroke-width="1"/>
  <text x="812.47" y="372" font-size="10" fill="#6b7280" text-anchor="middle">2026-03-28 22</text>
  <line x1="886.72" y1="350" x2="886.72" y2="356" stroke="#9ca3af" stroke-width="1"/>
  <text x="886.72" y="372" font-size="10" fill="#6b7280" text-anchor="middle">2026-03-31 15</text>
  <line x1="960.96" y1="350" x2="960.96" y2="356" stroke="#9ca3af" stroke-width="1"/>
  <text x="960.96" y="372" font-size="10" fill="#6b7280" text-anchor="middle">2026-04-03 07</text>
  <line x1="980.00" y1="350" x2="980.00" y2="356" stroke="#9ca3af" stroke-width="1"/>
  <text x="980.00" y="372" font-size="10" fill="#6b7280" text-anchor="middle">2026-04-04 00</text>
  <polyline fill="none" stroke="#2563eb" stroke-width="2.5" points="70.00,50.00 71.90,50.12 73.81,50.17 75.71,50.46 77.62,50.00 79.52,266.90 81.42,50.12 83.33,50.08 85.23,177.46 87.13,211.58 89.04,175.34 90.94,304.14 92.85,200.46 94.75,250.94 96.65,300.01 98.56,300.06 100.46,300.01 102.36,300.01 104.27,348.00 106.17,300.01 108.08,249.99 109.98,200.00 111.88,249.99 113.79,249.99 115.69,250.03 117.59,250.03 119.50,250.03 121.40,250.40 123.31,250.90 125.21,250.90 127.11,251.32 129.02,249.94 130.92,300.01 132.82,299.93 134.73,251.03 136.63,300.68 138.54,250.03 140.44,200.00 142.34,249.99 144.25,250.03 146.15,250.03 148.05,250.03 149.96,300.01 151.86,200.04 153.77,250.03 155.67,250.03 157.57,250.03 159.48,249.90 161.38,250.03 163.28,250.03 165.19,250.94 167.09,250.44 169.00,250.03 170.90,250.03 172.80,300.47 174.71,300.01 176.61,300.43 178.51,250.03 180.42,249.99 182.32,300.43 184.23,249.90 186.13,249.99 188.03,249.99 189.94,200.04 191.84,300.01 193.74,300.01 195.65,300.01 197.55,249.90 199.46,300.01 201.36,250.03 203.26,249.99 205.17,199.96 207.07,300.01 208.97,200.00 210.88,250.36 212.78,250.03 214.69,300.01 216.59,300.01 218.49,250.44 220.40,300.01 222.30,250.03 224.21,250.03 226.11,249.99 228.01,250.49 229.92,250.03 231.82,200.04 233.72,300.01 235.63,250.03 237.53,300.01 239.44,250.11 241.34,300.01 243.24,250.03 245.15,250.03 247.05,199.92 248.95,250.03 250.86,250.03 252.76,250.03 254.67,254.36 256.57,300.01 258.47,299.97 260.38,250.36 262.28,299.97 264.18,250.03 266.09,250.03 267.99,250.03 269.90,250.03 271.80,249.99 273.70,200.00 275.61,299.93 277.51,300.01 279.41,299.97 281.32,249.94 283.22,249.99 285.13,249.82 287.03,249.94 288.93,250.28 290.84,207.00 292.74,250.03 294.64,250.32 296.55,250.40 298.45,300.93 300.36,300.01 302.26,300.10 304.16,249.94 306.07,249.99 307.97,250.07 309.87,249.99 311.78,250.03 313.68,249.94 315.59,200.00 317.49,300.39 319.39,300.01 321.30,300.01 323.20,250.44 325.10,300.39 327.01,249.86 328.91,250.11 330.82,201.46 332.72,300.01 334.62,200.83 336.53,250.03 338.43,249.99 340.33,300.26 342.24,300.01 344.14,300.01 346.05,250.03 347.95,250.03 349.85,250.03 351.76,250.03 353.66,249.99 355.56,250.03 357.47,200.00 359.37,300.26 361.28,249.99 363.18,300.01 365.08,249.94 366.99,250.03 368.89,250.03 370.79,250.03 372.70,200.04 374.60,300.01 376.51,249.90 378.41,300.01 380.31,300.01 382.22,300.06 384.12,300.01 386.03,300.01 387.93,243.95 389.83,249.94 391.74,299.97 393.64,300.01 395.54,300.01 397.45,250.03 399.35,300.01 401.26,300.01 403.16,299.97 405.06,249.99 406.97,300.01 408.87,299.93 410.77,300.01 412.68,299.93 414.58,300.01 416.49,300.01 418.39,299.89 420.29,299.97 422.20,250.03 424.10,299.93 426.00,299.89 427.91,299.97 429.81,249.94 431.72,300.01 433.62,300.01 435.52,299.97 437.43,249.99 439.33,299.97 441.23,299.97 443.14,300.06 445.04,300.06 446.95,299.93 448.85,300.01 450.75,300.01 452.66,299.93 454.56,300.01 456.46,300.01 458.37,299.97 460.27,300.01 462.18,300.01 464.08,300.01 465.98,300.01 467.89,249.86 469.79,300.01 471.69,300.10 473.60,299.93 475.50,300.01 477.41,299.93 479.31,300.01 481.21,300.01 483.12,300.01 485.02,300.01 486.92,300.01 488.83,299.97 490.73,300.01 492.64,300.01 494.54,300.01 496.44,300.01 498.35,250.03 500.25,300.01 502.15,300.01 504.06,299.97 505.96,300.01 507.87,300.01 509.77,299.97 511.67,299.97 513.58,300.01 515.48,299.97 517.38,300.01 519.29,299.93 521.19,300.01 523.10,250.03 525.00,300.01 526.90,300.01 528.81,300.01 530.71,300.01 532.62,300.01 534.52,299.89 536.42,300.01 538.33,300.01 540.23,250.07 542.13,300.01 544.04,299.93 545.94,300.01 547.85,299.97 549.75,299.97 551.65,299.97 553.56,250.03 555.46,300.01 557.36,300.01 559.27,300.01 561.17,300.01 563.08,299.97 564.98,300.01 566.88,299.97 568.79,300.01 570.69,299.97 572.59,249.90 574.50,300.01 576.40,300.01 578.31,299.89 580.21,299.97 582.11,299.97 584.02,249.99 585.92,299.97 587.82,299.89 589.73,300.01 591.63,299.97 593.54,299.97 595.44,300.01 597.34,299.97 599.25,249.99 601.15,299.97 603.05,299.97 604.96,300.06 606.86,300.06 608.77,249.94 610.67,300.01 612.57,299.93 614.48,300.01 616.38,300.01 618.28,249.99 620.19,300.01 622.09,300.01 624.00,300.01 625.90,299.93 627.80,299.93 629.71,300.01 631.61,300.01 633.51,249.94 635.42,299.97 637.32,299.97 639.23,300.01 641.13,300.01 643.03,300.01 644.94,249.99 646.84,300.01 648.74,300.01 650.65,300.01 652.55,250.03 654.46,300.01 656.36,300.01 658.26,300.01 660.17,299.97 662.07,300.01 663.97,300.01 665.88,299.97 667.78,299.97 669.69,300.01 671.59,300.01 673.49,299.97 675.40,299.93 677.30,300.01 679.21,300.06 681.11,299.97 683.01,300.01 684.92,250.03 686.82,250.03 688.72,299.93 690.63,299.97 692.53,300.01 694.44,300.01 696.34,300.06 698.24,300.01 700.15,299.93 702.05,300.01 703.95,300.01 705.86,299.97 707.76,299.97 709.67,300.01 711.57,250.03 713.47,300.01 715.38,300.01 717.28,300.01 719.18,299.97 721.09,300.01 722.99,299.97 724.90,300.01 726.80,299.97 728.70,299.97 730.61,299.93 732.51,300.01 734.41,300.01 736.32,299.89 738.22,299.97 740.13,299.97 742.03,300.06 743.93,249.90 745.84,299.89 747.74,300.01 749.64,299.97 751.55,299.97 753.45,299.97 755.36,300.01 757.26,300.01 759.16,299.97 761.07,299.97 762.97,299.97 764.87,250.03 766.78,299.93 768.68,300.01 770.59,300.01 772.49,299.93 774.39,300.01 776.30,300.01 778.20,299.97 780.10,300.01 782.01,300.01 783.91,300.06 785.82,300.01 787.72,299.97 789.62,299.89 791.53,300.01 793.43,300.01 795.33,249.94 797.24,249.94 799.14,300.01 801.05,300.01 802.95,300.01 804.85,300.01 806.76,299.97 808.66,250.03 810.56,300.01 812.47,300.01 814.37,300.01 816.28,300.01 818.18,250.03 820.08,249.99 821.99,300.01 823.89,299.97 825.79,300.01 827.70,299.97 829.60,300.01 831.51,299.97 833.41,299.97 835.31,299.97 837.22,300.06 839.12,249.99 841.03,300.01 842.93,250.03 844.83,249.94 846.74,249.99 848.64,300.01 850.54,300.06 852.45,300.01 854.35,299.97 856.26,299.97 858.16,300.01 860.06,299.93 861.97,299.89 863.87,299.89 865.77,299.89 867.68,299.89 869.58,299.85 871.49,299.85 873.39,299.89 875.29,299.81 877.20,299.81 879.10,299.81 881.00,299.76 882.91,299.76 884.81,299.76 886.72,299.72 888.62,299.68 890.52,299.60 892.43,299.60 894.33,299.60 896.23,299.56 898.14,299.47 900.04,299.43 901.95,299.43 903.85,299.39 905.75,299.47 907.66,259.82 909.56,338.96 911.46,299.31 913.37,299.31 915.27,299.26 917.18,299.68 919.08,299.68 920.98,299.68 922.89,299.64 924.79,299.14 926.69,299.14 928.60,299.10 930.50,299.10 932.41,299.10 934.31,248.07 936.21,299.06 938.12,299.06 940.02,299.06 941.92,299.06 943.83,299.06 945.73,298.97 947.64,298.97 949.54,298.93 951.44,298.97 953.35,298.93 955.25,298.89 957.15,298.89 959.06,298.89 960.96,298.89 962.87,247.78 964.77,298.89 966.67,298.89 968.58,298.85 970.48,298.85 972.38,298.81 974.29,298.81 976.19,298.81 978.10,298.81 980.00,298.81"/>
  <circle cx="70.00" cy="50.00" r="2.5" fill="#2563eb"/>
  <circle cx="71.90" cy="50.12" r="2.5" fill="#2563eb"/>
  <circle cx="73.81" cy="50.17" r="2.5" fill="#2563eb"/>
  <circle cx="75.71" cy="50.46" r="2.5" fill="#2563eb"/>
  <circle cx="77.62" cy="50.00" r="2.5" fill="#2563eb"/>
  <circle cx="79.52" cy="266.90" r="2.5" fill="#2563eb"/>
  <circle cx="81.42" cy="50.12" r="2.5" fill="#2563eb"/>
  <circle cx="83.33" cy="50.08" r="2.5" fill="#2563eb"/>
  <circle cx="85.23" cy="177.46" r="2.5" fill="#2563eb"/>
  <circle cx="87.13" cy="211.58" r="2.5" fill="#2563eb"/>
  <circle cx="89.04" cy="175.34" r="2.5" fill="#2563eb"/>
  <circle cx="90.94" cy="304.14" r="2.5" fill="#2563eb"/>
  <circle cx="92.85" cy="200.46" r="2.5" fill="#2563eb"/>
  <circle cx="94.75" cy="250.94" r="2.5" fill="#2563eb"/>
  <circle cx="96.65" cy="300.01" r="2.5" fill="#2563eb"/>
  <circle cx="98.56" cy="300.06" r="2.5" fill="#2563eb"/>
  <circle cx="100.46" cy="300.01" r="2.5" fill="#2563eb"/>
  <circle cx="102.36" cy="300.01" r="2.5" fill="#2563eb"/>
  <circle cx="104.27" cy="348.00" r="2.5" fill="#2563eb"/>
  <circle cx="106.17" cy="300.01" r="2.5" fill="#2563eb"/>
  <circle cx="108.08" cy="249.99" r="2.5" fill="#2563eb"/>
  <circle cx="109.98" cy="200.00" r="2.5" fill="#2563eb"/>
  <circle cx="111.88" cy="249.99" r="2.5" fill="#2563eb"/>
  <circle cx="113.79" cy="249.99" r="2.5" fill="#2563eb"/>
  <circle cx="115.69" cy="250.03" r="2.5" fill="#2563eb"/>
  <circle cx="117.59" cy="250.03" r="2.5" fill="#2563eb"/>
  <circle cx="119.50" cy="250.03" r="2.5" fill="#2563eb"/>
  <circle cx="121.40" cy="250.40" r="2.5" fill="#2563eb"/>
  <circle cx="123.31" cy="250.90" r="2.5" fill="#2563eb"/>
  <circle cx="125.21" cy="250.90" r="2.5" fill="#2563eb"/>
  <circle cx="127.11" cy="251.32" r="2.5" fill="#2563eb"/>
  <circle cx="129.02" cy="249.94" r="2.5" fill="#2563eb"/>
  <circle cx="130.92" cy="300.01" r="2.5" fill="#2563eb"/>
  <circle cx="132.82" cy="299.93" r="2.5" fill="#2563eb"/>
  <circle cx="134.73" cy="251.03" r="2.5" fill="#2563eb"/>
  <circle cx="136.63" cy="300.68" r="2.5" fill="#2563eb"/>
  <circle cx="138.54" cy="250.03" r="2.5" fill="#2563eb"/>
  <circle cx="140.44" cy="200.00" r="2.5" fill="#2563eb"/>
  <circle cx="142.34" cy="249.99" r="2.5" fill="#2563eb"/>
  <circle cx="144.25" cy="250.03" r="2.5" fill="#2563eb"/>
  <circle cx="146.15" cy="250.03" r="2.5" fill="#2563eb"/>
  <circle cx="148.05" cy="250.03" r="2.5" fill="#2563eb"/>
  <circle cx="149.96" cy="300.01" r="2.5" fill="#2563eb"/>
  <circle cx="151.86" cy="200.04" r="2.5" fill="#2563eb"/>
  <circle cx="153.77" cy="250.03" r="2.5" fill="#2563eb"/>
  <circle cx="155.67" cy="250.03" r="2.5" fill="#2563eb"/>
  <circle cx="157.57" cy="250.03" r="2.5" fill="#2563eb"/>
  <circle cx="159.48" cy="249.90" r="2.5" fill="#2563eb"/>
  <circle cx="161.38" cy="250.03" r="2.5" fill="#2563eb"/>
  <circle cx="163.28" cy="250.03" r="2.5" fill="#2563eb"/>
  <circle cx="165.19" cy="250.94" r="2.5" fill="#2563eb"/>
  <circle cx="167.09" cy="250.44" r="2.5" fill="#2563eb"/>
  <circle cx="169.00" cy="250.03" r="2.5" fill="#2563eb"/>
  <circle cx="170.90" cy="250.03" r="2.5" fill="#2563eb"/>
  <circle cx="172.80" cy="300.47" r="2.5" fill="#2563eb"/>
  <circle cx="174.71" cy="300.01" r="2.5" fill="#2563eb"/>
  <circle cx="176.61" cy="300.43" r="2.5" fill="#2563eb"/>
  <circle cx="178.51" cy="250.03" r="2.5" fill="#2563eb"/>
  <circle cx="180.42" cy="249.99" r="2.5" fill="#2563eb"/>
  <circle cx="182.32" cy="300.43" r="2.5" fill="#2563eb"/>
  <circle cx="184.23" cy="249.90" r="2.5" fill="#2563eb"/>
  <circle cx="186.13" cy="249.99" r="2.5" fill="#2563eb"/>
  <circle cx="188.03" cy="249.99" r="2.5" fill="#2563eb"/>
  <circle cx="189.94" cy="200.04" r="2.5" fill="#2563eb"/>
  <circle cx="191.84" cy="300.01" r="2.5" fill="#2563eb"/>
  <circle cx="193.74" cy="300.01" r="2.5" fill="#2563eb"/>
  <circle cx="195.65" cy="300.01" r="2.5" fill="#2563eb"/>
  <circle cx="197.55" cy="249.90" r="2.5" fill="#2563eb"/>
  <circle cx="199.46" cy="300.01" r="2.5" fill="#2563eb"/>
  <circle cx="201.36" cy="250.03" r="2.5" fill="#2563eb"/>
  <circle cx="203.26" cy="249.99" r="2.5" fill="#2563eb"/>
  <circle cx="205.17" cy="199.96" r="2.5" fill="#2563eb"/>
  <circle cx="207.07" cy="300.01" r="2.5" fill="#2563eb"/>
  <circle cx="208.97" cy="200.00" r="2.5" fill="#2563eb"/>
  <circle cx="210.88" cy="250.36" r="2.5" fill="#2563eb"/>
  <circle cx="212.78" cy="250.03" r="2.5" fill="#2563eb"/>
  <circle cx="214.69" cy="300.01" r="2.5" fill="#2563eb"/>
  <circle cx="216.59" cy="300.01" r="2.5" fill="#2563eb"/>
  <circle cx="218.49" cy="250.44" r="2.5" fill="#2563eb"/>
  <circle cx="220.40" cy="300.01" r="2.5" fill="#2563eb"/>
  <circle cx="222.30" cy="250.03" r="2.5" fill="#2563eb"/>
  <circle cx="224.21" cy="250.03" r="2.5" fill="#2563eb"/>
  <circle cx="226.11" cy="249.99" r="2.5" fill="#2563eb"/>
  <circle cx="228.01" cy="250.49" r="2.5" fill="#2563eb"/>
  <circle cx="229.92" cy="250.03" r="2.5" fill="#2563eb"/>
  <circle cx="231.82" cy="200.04" r="2.5" fill="#2563eb"/>
  <circle cx="233.72" cy="300.01" r="2.5" fill="#2563eb"/>
  <circle cx="235.63" cy="250.03" r="2.5" fill="#2563eb"/>
  <circle cx="237.53" cy="300.01" r="2.5" fill="#2563eb"/>
  <circle cx="239.44" cy="250.11" r="2.5" fill="#2563eb"/>
  <circle cx="241.34" cy="300.01" r="2.5" fill="#2563eb"/>
  <circle cx="243.24" cy="250.03" r="2.5" fill="#2563eb"/>
  <circle cx="245.15" cy="250.03" r="2.5" fill="#2563eb"/>
  <circle cx="247.05" cy="199.92" r="2.5" fill="#2563eb"/>
  <circle cx="248.95" cy="250.03" r="2.5" fill="#2563eb"/>
  <circle cx="250.86" cy="250.03" r="2.5" fill="#2563eb"/>
  <circle cx="252.76" cy="250.03" r="2.5" fill="#2563eb"/>
  <circle cx="254.67" cy="254.36" r="2.5" fill="#2563eb"/>
  <circle cx="256.57" cy="300.01" r="2.5" fill="#2563eb"/>
  <circle cx="258.47" cy="299.97" r="2.5" fill="#2563eb"/>
  <circle cx="260.38" cy="250.36" r="2.5" fill="#2563eb"/>
  <circle cx="262.28" cy="299.97" r="2.5" fill="#2563eb"/>
  <circle cx="264.18" cy="250.03" r="2.5" fill="#2563eb"/>
  <circle cx="266.09" cy="250.03" r="2.5" fill="#2563eb"/>
  <circle cx="267.99" cy="250.03" r="2.5" fill="#2563eb"/>
  <circle cx="269.90" cy="250.03" r="2.5" fill="#2563eb"/>
  <circle cx="271.80" cy="249.99" r="2.5" fill="#2563eb"/>
  <circle cx="273.70" cy="200.00" r="2.5" fill="#2563eb"/>
  <circle cx="275.61" cy="299.93" r="2.5" fill="#2563eb"/>
  <circle cx="277.51" cy="300.01" r="2.5" fill="#2563eb"/>
  <circle cx="279.41" cy="299.97" r="2.5" fill="#2563eb"/>
  <circle cx="281.32" cy="249.94" r="2.5" fill="#2563eb"/>
  <circle cx="283.22" cy="249.99" r="2.5" fill="#2563eb"/>
  <circle cx="285.13" cy="249.82" r="2.5" fill="#2563eb"/>
  <circle cx="287.03" cy="249.94" r="2.5" fill="#2563eb"/>
  <circle cx="288.93" cy="250.28" r="2.5" fill="#2563eb"/>
  <circle cx="290.84" cy="207.00" r="2.5" fill="#2563eb"/>
  <circle cx="292.74" cy="250.03" r="2.5" fill="#2563eb"/>
  <circle cx="294.64" cy="250.32" r="2.5" fill="#2563eb"/>
  <circle cx="296.55" cy="250.40" r="2.5" fill="#2563eb"/>
  <circle cx="298.45" cy="300.93" r="2.5" fill="#2563eb"/>
  <circle cx="300.36" cy="300.01" r="2.5" fill="#2563eb"/>
  <circle cx="302.26" cy="300.10" r="2.5" fill="#2563eb"/>
  <circle cx="304.16" cy="249.94" r="2.5" fill="#2563eb"/>
  <circle cx="306.07" cy="249.99" r="2.5" fill="#2563eb"/>
  <circle cx="307.97" cy="250.07" r="2.5" fill="#2563eb"/>
  <circle cx="309.87" cy="249.99" r="2.5" fill="#2563eb"/>
  <circle cx="311.78" cy="250.03" r="2.5" fill="#2563eb"/>
  <circle cx="313.68" cy="249.94" r="2.5" fill="#2563eb"/>
  <circle cx="315.59" cy="200.00" r="2.5" fill="#2563eb"/>
  <circle cx="317.49" cy="300.39" r="2.5" fill="#2563eb"/>
  <circle cx="319.39" cy="300.01" r="2.5" fill="#2563eb"/>
  <circle cx="321.30" cy="300.01" r="2.5" fill="#2563eb"/>
  <circle cx="323.20" cy="250.44" r="2.5" fill="#2563eb"/>
  <circle cx="325.10" cy="300.39" r="2.5" fill="#2563eb"/>
  <circle cx="327.01" cy="249.86" r="2.5" fill="#2563eb"/>
  <circle cx="328.91" cy="250.11" r="2.5" fill="#2563eb"/>
  <circle cx="330.82" cy="201.46" r="2.5" fill="#2563eb"/>
  <circle cx="332.72" cy="300.01" r="2.5" fill="#2563eb"/>
  <circle cx="334.62" cy="200.83" r="2.5" fill="#2563eb"/>
  <circle cx="336.53" cy="250.03" r="2.5" fill="#2563eb"/>
  <circle cx="338.43" cy="249.99" r="2.5" fill="#2563eb"/>
  <circle cx="340.33" cy="300.26" r="2.5" fill="#2563eb"/>
  <circle cx="342.24" cy="300.01" r="2.5" fill="#2563eb"/>
  <circle cx="344.14" cy="300.01" r="2.5" fill="#2563eb"/>
  <circle cx="346.05" cy="250.03" r="2.5" fill="#2563eb"/>
  <circle cx="347.95" cy="250.03" r="2.5" fill="#2563eb"/>
  <circle cx="349.85" cy="250.03" r="2.5" fill="#2563eb"/>
  <circle cx="351.76" cy="250.03" r="2.5" fill="#2563eb"/>
  <circle cx="353.66" cy="249.99" r="2.5" fill="#2563eb"/>
  <circle cx="355.56" cy="250.03" r="2.5" fill="#2563eb"/>
  <circle cx="357.47" cy="200.00" r="2.5" fill="#2563eb"/>
  <circle cx="359.37" cy="300.26" r="2.5" fill="#2563eb"/>
  <circle cx="361.28" cy="249.99" r="2.5" fill="#2563eb"/>
  <circle cx="363.18" cy="300.01" r="2.5" fill="#2563eb"/>
  <circle cx="365.08" cy="249.94" r="2.5" fill="#2563eb"/>
  <circle cx="366.99" cy="250.03" r="2.5" fill="#2563eb"/>
  <circle cx="368.89" cy="250.03" r="2.5" fill="#2563eb"/>
  <circle cx="370.79" cy="250.03" r="2.5" fill="#2563eb"/>
  <circle cx="372.70" cy="200.04" r="2.5" fill="#2563eb"/>
  <circle cx="374.60" cy="300.01" r="2.5" fill="#2563eb"/>
  <circle cx="376.51" cy="249.90" r="2.5" fill="#2563eb"/>
  <circle cx="378.41" cy="300.01" r="2.5" fill="#2563eb"/>
  <circle cx="380.31" cy="300.01" r="2.5" fill="#2563eb"/>
  <circle cx="382.22" cy="300.06" r="2.5" fill="#2563eb"/>
  <circle cx="384.12" cy="300.01" r="2.5" fill="#2563eb"/>
  <circle cx="386.03" cy="300.01" r="2.5" fill="#2563eb"/>
  <circle cx="387.93" cy="243.95" r="2.5" fill="#2563eb"/>
  <circle cx="389.83" cy="249.94" r="2.5" fill="#2563eb"/>
  <circle cx="391.74" cy="299.97" r="2.5" fill="#2563eb"/>
  <circle cx="393.64" cy="300.01" r="2.5" fill="#2563eb"/>
  <circle cx="395.54" cy="300.01" r="2.5" fill="#2563eb"/>
  <circle cx="397.45" cy="250.03" r="2.5" fill="#2563eb"/>
  <circle cx="399.35" cy="300.01" r="2.5" fill="#2563eb"/>
  <circle cx="401.26" cy="300.01" r="2.5" fill="#2563eb"/>
  <circle cx="403.16" cy="299.97" r="2.5" fill="#2563eb"/>
  <circle cx="405.06" cy="249.99" r="2.5" fill="#2563eb"/>
  <circle cx="406.97" cy="300.01" r="2.5" fill="#2563eb"/>
  <circle cx="408.87" cy="299.93" r="2.5" fill="#2563eb"/>
  <circle cx="410.77" cy="300.01" r="2.5" fill="#2563eb"/>
  <circle cx="412.68" cy="299.93" r="2.5" fill="#2563eb"/>
  <circle cx="414.58" cy="300.01" r="2.5" fill="#2563eb"/>
  <circle cx="416.49" cy="300.01" r="2.5" fill="#2563eb"/>
  <circle cx="418.39" cy="299.89" r="2.5" fill="#2563eb"/>
  <circle cx="420.29" cy="299.97" r="2.5" fill="#2563eb"/>
  <circle cx="422.20" cy="250.03" r="2.5" fill="#2563eb"/>
  <circle cx="424.10" cy="299.93" r="2.5" fill="#2563eb"/>
  <circle cx="426.00" cy="299.89" r="2.5" fill="#2563eb"/>
  <circle cx="427.91" cy="299.97" r="2.5" fill="#2563eb"/>
  <circle cx="429.81" cy="249.94" r="2.5" fill="#2563eb"/>
  <circle cx="431.72" cy="300.01" r="2.5" fill="#2563eb"/>
  <circle cx="433.62" cy="300.01" r="2.5" fill="#2563eb"/>
  <circle cx="435.52" cy="299.97" r="2.5" fill="#2563eb"/>
  <circle cx="437.43" cy="249.99" r="2.5" fill="#2563eb"/>
  <circle cx="439.33" cy="299.97" r="2.5" fill="#2563eb"/>
  <circle cx="441.23" cy="299.97" r="2.5" fill="#2563eb"/>
  <circle cx="443.14" cy="300.06" r="2.5" fill="#2563eb"/>
  <circle cx="445.04" cy="300.06" r="2.5" fill="#2563eb"/>
  <circle cx="446.95" cy="299.93" r="2.5" fill="#2563eb"/>
  <circle cx="448.85" cy="300.01" r="2.5" fill="#2563eb"/>
  <circle cx="450.75" cy="300.01" r="2.5" fill="#2563eb"/>
  <circle cx="452.66" cy="299.93" r="2.5" fill="#2563eb"/>
  <circle cx="454.56" cy="300.01" r="2.5" fill="#2563eb"/>
  <circle cx="456.46" cy="300.01" r="2.5" fill="#2563eb"/>
  <circle cx="458.37" cy="299.97" r="2.5" fill="#2563eb"/>
  <circle cx="460.27" cy="300.01" r="2.5" fill="#2563eb"/>
  <circle cx="462.18" cy="300.01" r="2.5" fill="#2563eb"/>
  <circle cx="464.08" cy="300.01" r="2.5" fill="#2563eb"/>
  <circle cx="465.98" cy="300.01" r="2.5" fill="#2563eb"/>
  <circle cx="467.89" cy="249.86" r="2.5" fill="#2563eb"/>
  <circle cx="469.79" cy="300.01" r="2.5" fill="#2563eb"/>
  <circle cx="471.69" cy="300.10" r="2.5" fill="#2563eb"/>
  <circle cx="473.60" cy="299.93" r="2.5" fill="#2563eb"/>
  <circle cx="475.50" cy="300.01" r="2.5" fill="#2563eb"/>
  <circle cx="477.41" cy="299.93" r="2.5" fill="#2563eb"/>
  <circle cx="479.31" cy="300.01" r="2.5" fill="#2563eb"/>
  <circle cx="481.21" cy="300.01" r="2.5" fill="#2563eb"/>
  <circle cx="483.12" cy="300.01" r="2.5" fill="#2563eb"/>
  <circle cx="485.02" cy="300.01" r="2.5" fill="#2563eb"/>
  <circle cx="486.92" cy="300.01" r="2.5" fill="#2563eb"/>
  <circle cx="488.83" cy="299.97" r="2.5" fill="#2563eb"/>
  <circle cx="490.73" cy="300.01" r="2.5" fill="#2563eb"/>
  <circle cx="492.64" cy="300.01" r="2.5" fill="#2563eb"/>
  <circle cx="494.54" cy="300.01" r="2.5" fill="#2563eb"/>
  <circle cx="496.44" cy="300.01" r="2.5" fill="#2563eb"/>
  <circle cx="498.35" cy="250.03" r="2.5" fill="#2563eb"/>
  <circle cx="500.25" cy="300.01" r="2.5" fill="#2563eb"/>
  <circle cx="502.15" cy="300.01" r="2.5" fill="#2563eb"/>
  <circle cx="504.06" cy="299.97" r="2.5" fill="#2563eb"/>
  <circle cx="505.96" cy="300.01" r="2.5" fill="#2563eb"/>
  <circle cx="507.87" cy="300.01" r="2.5" fill="#2563eb"/>
  <circle cx="509.77" cy="299.97" r="2.5" fill="#2563eb"/>
  <circle cx="511.67" cy="299.97" r="2.5" fill="#2563eb"/>
  <circle cx="513.58" cy="300.01" r="2.5" fill="#2563eb"/>
  <circle cx="515.48" cy="299.97" r="2.5" fill="#2563eb"/>
  <circle cx="517.38" cy="300.01" r="2.5" fill="#2563eb"/>
  <circle cx="519.29" cy="299.93" r="2.5" fill="#2563eb"/>
  <circle cx="521.19" cy="300.01" r="2.5" fill="#2563eb"/>
  <circle cx="523.10" cy="250.03" r="2.5" fill="#2563eb"/>
  <circle cx="525.00" cy="300.01" r="2.5" fill="#2563eb"/>
  <circle cx="526.90" cy="300.01" r="2.5" fill="#2563eb"/>
  <circle cx="528.81" cy="300.01" r="2.5" fill="#2563eb"/>
  <circle cx="530.71" cy="300.01" r="2.5" fill="#2563eb"/>
  <circle cx="532.62" cy="300.01" r="2.5" fill="#2563eb"/>
  <circle cx="534.52" cy="299.89" r="2.5" fill="#2563eb"/>
  <circle cx="536.42" cy="300.01" r="2.5" fill="#2563eb"/>
  <circle cx="538.33" cy="300.01" r="2.5" fill="#2563eb"/>
  <circle cx="540.23" cy="250.07" r="2.5" fill="#2563eb"/>
  <circle cx="542.13" cy="300.01" r="2.5" fill="#2563eb"/>
  <circle cx="544.04" cy="299.93" r="2.5" fill="#2563eb"/>
  <circle cx="545.94" cy="300.01" r="2.5" fill="#2563eb"/>
  <circle cx="547.85" cy="299.97" r="2.5" fill="#2563eb"/>
  <circle cx="549.75" cy="299.97" r="2.5" fill="#2563eb"/>
  <circle cx="551.65" cy="299.97" r="2.5" fill="#2563eb"/>
  <circle cx="553.56" cy="250.03" r="2.5" fill="#2563eb"/>
  <circle cx="555.46" cy="300.01" r="2.5" fill="#2563eb"/>
  <circle cx="557.36" cy="300.01" r="2.5" fill="#2563eb"/>
  <circle cx="559.27" cy="300.01" r="2.5" fill="#2563eb"/>
  <circle cx="561.17" cy="300.01" r="2.5" fill="#2563eb"/>
  <circle cx="563.08" cy="299.97" r="2.5" fill="#2563eb"/>
  <circle cx="564.98" cy="300.01" r="2.5" fill="#2563eb"/>
  <circle cx="566.88" cy="299.97" r="2.5" fill="#2563eb"/>
  <circle cx="568.79" cy="300.01" r="2.5" fill="#2563eb"/>
  <circle cx="570.69" cy="299.97" r="2.5" fill="#2563eb"/>
  <circle cx="572.59" cy="249.90" r="2.5" fill="#2563eb"/>
  <circle cx="574.50" cy="300.01" r="2.5" fill="#2563eb"/>
  <circle cx="576.40" cy="300.01" r="2.5" fill="#2563eb"/>
  <circle cx="578.31" cy="299.89" r="2.5" fill="#2563eb"/>
  <circle cx="580.21" cy="299.97" r="2.5" fill="#2563eb"/>
  <circle cx="582.11" cy="299.97" r="2.5" fill="#2563eb"/>
  <circle cx="584.02" cy="249.99" r="2.5" fill="#2563eb"/>
  <circle cx="585.92" cy="299.97" r="2.5" fill="#2563eb"/>
  <circle cx="587.82" cy="299.89" r="2.5" fill="#2563eb"/>
  <circle cx="589.73" cy="300.01" r="2.5" fill="#2563eb"/>
  <circle cx="591.63" cy="299.97" r="2.5" fill="#2563eb"/>
  <circle cx="593.54" cy="299.97" r="2.5" fill="#2563eb"/>
  <circle cx="595.44" cy="300.01" r="2.5" fill="#2563eb"/>
  <circle cx="597.34" cy="299.97" r="2.5" fill="#2563eb"/>
  <circle cx="599.25" cy="249.99" r="2.5" fill="#2563eb"/>
  <circle cx="601.15" cy="299.97" r="2.5" fill="#2563eb"/>
  <circle cx="603.05" cy="299.97" r="2.5" fill="#2563eb"/>
  <circle cx="604.96" cy="300.06" r="2.5" fill="#2563eb"/>
  <circle cx="606.86" cy="300.06" r="2.5" fill="#2563eb"/>
  <circle cx="608.77" cy="249.94" r="2.5" fill="#2563eb"/>
  <circle cx="610.67" cy="300.01" r="2.5" fill="#2563eb"/>
  <circle cx="612.57" cy="299.93" r="2.5" fill="#2563eb"/>
  <circle cx="614.48" cy="300.01" r="2.5" fill="#2563eb"/>
  <circle cx="616.38" cy="300.01" r="2.5" fill="#2563eb"/>
  <circle cx="618.28" cy="249.99" r="2.5" fill="#2563eb"/>
  <circle cx="620.19" cy="300.01" r="2.5" fill="#2563eb"/>
  <circle cx="622.09" cy="300.01" r="2.5" fill="#2563eb"/>
  <circle cx="624.00" cy="300.01" r="2.5" fill="#2563eb"/>
  <circle cx="625.90" cy="299.93" r="2.5" fill="#2563eb"/>
  <circle cx="627.80" cy="299.93" r="2.5" fill="#2563eb"/>
  <circle cx="629.71" cy="300.01" r="2.5" fill="#2563eb"/>
  <circle cx="631.61" cy="300.01" r="2.5" fill="#2563eb"/>
  <circle cx="633.51" cy="249.94" r="2.5" fill="#2563eb"/>
  <circle cx="635.42" cy="299.97" r="2.5" fill="#2563eb"/>
  <circle cx="637.32" cy="299.97" r="2.5" fill="#2563eb"/>
  <circle cx="639.23" cy="300.01" r="2.5" fill="#2563eb"/>
  <circle cx="641.13" cy="300.01" r="2.5" fill="#2563eb"/>
  <circle cx="643.03" cy="300.01" r="2.5" fill="#2563eb"/>
  <circle cx="644.94" cy="249.99" r="2.5" fill="#2563eb"/>
  <circle cx="646.84" cy="300.01" r="2.5" fill="#2563eb"/>
  <circle cx="648.74" cy="300.01" r="2.5" fill="#2563eb"/>
  <circle cx="650.65" cy="300.01" r="2.5" fill="#2563eb"/>
  <circle cx="652.55" cy="250.03" r="2.5" fill="#2563eb"/>
  <circle cx="654.46" cy="300.01" r="2.5" fill="#2563eb"/>
  <circle cx="656.36" cy="300.01" r="2.5" fill="#2563eb"/>
  <circle cx="658.26" cy="300.01" r="2.5" fill="#2563eb"/>
  <circle cx="660.17" cy="299.97" r="2.5" fill="#2563eb"/>
  <circle cx="662.07" cy="300.01" r="2.5" fill="#2563eb"/>
  <circle cx="663.97" cy="300.01" r="2.5" fill="#2563eb"/>
  <circle cx="665.88" cy="299.97" r="2.5" fill="#2563eb"/>
  <circle cx="667.78" cy="299.97" r="2.5" fill="#2563eb"/>
  <circle cx="669.69" cy="300.01" r="2.5" fill="#2563eb"/>
  <circle cx="671.59" cy="300.01" r="2.5" fill="#2563eb"/>
  <circle cx="673.49" cy="299.97" r="2.5" fill="#2563eb"/>
  <circle cx="675.40" cy="299.93" r="2.5" fill="#2563eb"/>
  <circle cx="677.30" cy="300.01" r="2.5" fill="#2563eb"/>
  <circle cx="679.21" cy="300.06" r="2.5" fill="#2563eb"/>
  <circle cx="681.11" cy="299.97" r="2.5" fill="#2563eb"/>
  <circle cx="683.01" cy="300.01" r="2.5" fill="#2563eb"/>
  <circle cx="684.92" cy="250.03" r="2.5" fill="#2563eb"/>
  <circle cx="686.82" cy="250.03" r="2.5" fill="#2563eb"/>
  <circle cx="688.72" cy="299.93" r="2.5" fill="#2563eb"/>
  <circle cx="690.63" cy="299.97" r="2.5" fill="#2563eb"/>
  <circle cx="692.53" cy="300.01" r="2.5" fill="#2563eb"/>
  <circle cx="694.44" cy="300.01" r="2.5" fill="#2563eb"/>
  <circle cx="696.34" cy="300.06" r="2.5" fill="#2563eb"/>
  <circle cx="698.24" cy="300.01" r="2.5" fill="#2563eb"/>
  <circle cx="700.15" cy="299.93" r="2.5" fill="#2563eb"/>
  <circle cx="702.05" cy="300.01" r="2.5" fill="#2563eb"/>
  <circle cx="703.95" cy="300.01" r="2.5" fill="#2563eb"/>
  <circle cx="705.86" cy="299.97" r="2.5" fill="#2563eb"/>
  <circle cx="707.76" cy="299.97" r="2.5" fill="#2563eb"/>
  <circle cx="709.67" cy="300.01" r="2.5" fill="#2563eb"/>
  <circle cx="711.57" cy="250.03" r="2.5" fill="#2563eb"/>
  <circle cx="713.47" cy="300.01" r="2.5" fill="#2563eb"/>
  <circle cx="715.38" cy="300.01" r="2.5" fill="#2563eb"/>
  <circle cx="717.28" cy="300.01" r="2.5" fill="#2563eb"/>
  <circle cx="719.18" cy="299.97" r="2.5" fill="#2563eb"/>
  <circle cx="721.09" cy="300.01" r="2.5" fill="#2563eb"/>
  <circle cx="722.99" cy="299.97" r="2.5" fill="#2563eb"/>
  <circle cx="724.90" cy="300.01" r="2.5" fill="#2563eb"/>
  <circle cx="726.80" cy="299.97" r="2.5" fill="#2563eb"/>
  <circle cx="728.70" cy="299.97" r="2.5" fill="#2563eb"/>
  <circle cx="730.61" cy="299.93" r="2.5" fill="#2563eb"/>
  <circle cx="732.51" cy="300.01" r="2.5" fill="#2563eb"/>
  <circle cx="734.41" cy="300.01" r="2.5" fill="#2563eb"/>
  <circle cx="736.32" cy="299.89" r="2.5" fill="#2563eb"/>
  <circle cx="738.22" cy="299.97" r="2.5" fill="#2563eb"/>
  <circle cx="740.13" cy="299.97" r="2.5" fill="#2563eb"/>
  <circle cx="742.03" cy="300.06" r="2.5" fill="#2563eb"/>
  <circle cx="743.93" cy="249.90" r="2.5" fill="#2563eb"/>
  <circle cx="745.84" cy="299.89" r="2.5" fill="#2563eb"/>
  <circle cx="747.74" cy="300.01" r="2.5" fill="#2563eb"/>
  <circle cx="749.64" cy="299.97" r="2.5" fill="#2563eb"/>
  <circle cx="751.55" cy="299.97" r="2.5" fill="#2563eb"/>
  <circle cx="753.45" cy="299.97" r="2.5" fill="#2563eb"/>
  <circle cx="755.36" cy="300.01" r="2.5" fill="#2563eb"/>
  <circle cx="757.26" cy="300.01" r="2.5" fill="#2563eb"/>
  <circle cx="759.16" cy="299.97" r="2.5" fill="#2563eb"/>
  <circle cx="761.07" cy="299.97" r="2.5" fill="#2563eb"/>
  <circle cx="762.97" cy="299.97" r="2.5" fill="#2563eb"/>
  <circle cx="764.87" cy="250.03" r="2.5" fill="#2563eb"/>
  <circle cx="766.78" cy="299.93" r="2.5" fill="#2563eb"/>
  <circle cx="768.68" cy="300.01" r="2.5" fill="#2563eb"/>
  <circle cx="770.59" cy="300.01" r="2.5" fill="#2563eb"/>
  <circle cx="772.49" cy="299.93" r="2.5" fill="#2563eb"/>
  <circle cx="774.39" cy="300.01" r="2.5" fill="#2563eb"/>
  <circle cx="776.30" cy="300.01" r="2.5" fill="#2563eb"/>
  <circle cx="778.20" cy="299.97" r="2.5" fill="#2563eb"/>
  <circle cx="780.10" cy="300.01" r="2.5" fill="#2563eb"/>
  <circle cx="782.01" cy="300.01" r="2.5" fill="#2563eb"/>
  <circle cx="783.91" cy="300.06" r="2.5" fill="#2563eb"/>
  <circle cx="785.82" cy="300.01" r="2.5" fill="#2563eb"/>
  <circle cx="787.72" cy="299.97" r="2.5" fill="#2563eb"/>
  <circle cx="789.62" cy="299.89" r="2.5" fill="#2563eb"/>
  <circle cx="791.53" cy="300.01" r="2.5" fill="#2563eb"/>
  <circle cx="793.43" cy="300.01" r="2.5" fill="#2563eb"/>
  <circle cx="795.33" cy="249.94" r="2.5" fill="#2563eb"/>
  <circle cx="797.24" cy="249.94" r="2.5" fill="#2563eb"/>
  <circle cx="799.14" cy="300.01" r="2.5" fill="#2563eb"/>
  <circle cx="801.05" cy="300.01" r="2.5" fill="#2563eb"/>
  <circle cx="802.95" cy="300.01" r="2.5" fill="#2563eb"/>
  <circle cx="804.85" cy="300.01" r="2.5" fill="#2563eb"/>
  <circle cx="806.76" cy="299.97" r="2.5" fill="#2563eb"/>
  <circle cx="808.66" cy="250.03" r="2.5" fill="#2563eb"/>
  <circle cx="810.56" cy="300.01" r="2.5" fill="#2563eb"/>
  <circle cx="812.47" cy="300.01" r="2.5" fill="#2563eb"/>
  <circle cx="814.37" cy="300.01" r="2.5" fill="#2563eb"/>
  <circle cx="816.28" cy="300.01" r="2.5" fill="#2563eb"/>
  <circle cx="818.18" cy="250.03" r="2.5" fill="#2563eb"/>
  <circle cx="820.08" cy="249.99" r="2.5" fill="#2563eb"/>
  <circle cx="821.99" cy="300.01" r="2.5" fill="#2563eb"/>
  <circle cx="823.89" cy="299.97" r="2.5" fill="#2563eb"/>
  <circle cx="825.79" cy="300.01" r="2.5" fill="#2563eb"/>
  <circle cx="827.70" cy="299.97" r="2.5" fill="#2563eb"/>
  <circle cx="829.60" cy="300.01" r="2.5" fill="#2563eb"/>
  <circle cx="831.51" cy="299.97" r="2.5" fill="#2563eb"/>
  <circle cx="833.41" cy="299.97" r="2.5" fill="#2563eb"/>
  <circle cx="835.31" cy="299.97" r="2.5" fill="#2563eb"/>
  <circle cx="837.22" cy="300.06" r="2.5" fill="#2563eb"/>
  <circle cx="839.12" cy="249.99" r="2.5" fill="#2563eb"/>
  <circle cx="841.03" cy="300.01" r="2.5" fill="#2563eb"/>
  <circle cx="842.93" cy="250.03" r="2.5" fill="#2563eb"/>
  <circle cx="844.83" cy="249.94" r="2.5" fill="#2563eb"/>
  <circle cx="846.74" cy="249.99" r="2.5" fill="#2563eb"/>
  <circle cx="848.64" cy="300.01" r="2.5" fill="#2563eb"/>
  <circle cx="850.54" cy="300.06" r="2.5" fill="#2563eb"/>
  <circle cx="852.45" cy="300.01" r="2.5" fill="#2563eb"/>
  <circle cx="854.35" cy="299.97" r="2.5" fill="#2563eb"/>
  <circle cx="856.26" cy="299.97" r="2.5" fill="#2563eb"/>
  <circle cx="858.16" cy="300.01" r="2.5" fill="#2563eb"/>
  <circle cx="860.06" cy="299.93" r="2.5" fill="#2563eb"/>
  <circle cx="861.97" cy="299.89" r="2.5" fill="#2563eb"/>
  <circle cx="863.87" cy="299.89" r="2.5" fill="#2563eb"/>
  <circle cx="865.77" cy="299.89" r="2.5" fill="#2563eb"/>
  <circle cx="867.68" cy="299.89" r="2.5" fill="#2563eb"/>
  <circle cx="869.58" cy="299.85" r="2.5" fill="#2563eb"/>
  <circle cx="871.49" cy="299.85" r="2.5" fill="#2563eb"/>
  <circle cx="873.39" cy="299.89" r="2.5" fill="#2563eb"/>
  <circle cx="875.29" cy="299.81" r="2.5" fill="#2563eb"/>
  <circle cx="877.20" cy="299.81" r="2.5" fill="#2563eb"/>
  <circle cx="879.10" cy="299.81" r="2.5" fill="#2563eb"/>
  <circle cx="881.00" cy="299.76" r="2.5" fill="#2563eb"/>
  <circle cx="882.91" cy="299.76" r="2.5" fill="#2563eb"/>
  <circle cx="884.81" cy="299.76" r="2.5" fill="#2563eb"/>
  <circle cx="886.72" cy="299.72" r="2.5" fill="#2563eb"/>
  <circle cx="888.62" cy="299.68" r="2.5" fill="#2563eb"/>
  <circle cx="890.52" cy="299.60" r="2.5" fill="#2563eb"/>
  <circle cx="892.43" cy="299.60" r="2.5" fill="#2563eb"/>
  <circle cx="894.33" cy="299.60" r="2.5" fill="#2563eb"/>
  <circle cx="896.23" cy="299.56" r="2.5" fill="#2563eb"/>
  <circle cx="898.14" cy="299.47" r="2.5" fill="#2563eb"/>
  <circle cx="900.04" cy="299.43" r="2.5" fill="#2563eb"/>
  <circle cx="901.95" cy="299.43" r="2.5" fill="#2563eb"/>
  <circle cx="903.85" cy="299.39" r="2.5" fill="#2563eb"/>
  <circle cx="905.75" cy="299.47" r="2.5" fill="#2563eb"/>
  <circle cx="907.66" cy="259.82" r="2.5" fill="#2563eb"/>
  <circle cx="909.56" cy="338.96" r="2.5" fill="#2563eb"/>
  <circle cx="911.46" cy="299.31" r="2.5" fill="#2563eb"/>
  <circle cx="913.37" cy="299.31" r="2.5" fill="#2563eb"/>
  <circle cx="915.27" cy="299.26" r="2.5" fill="#2563eb"/>
  <circle cx="917.18" cy="299.68" r="2.5" fill="#2563eb"/>
  <circle cx="919.08" cy="299.68" r="2.5" fill="#2563eb"/>
  <circle cx="920.98" cy="299.68" r="2.5" fill="#2563eb"/>
  <circle cx="922.89" cy="299.64" r="2.5" fill="#2563eb"/>
  <circle cx="924.79" cy="299.14" r="2.5" fill="#2563eb"/>
  <circle cx="926.69" cy="299.14" r="2.5" fill="#2563eb"/>
  <circle cx="928.60" cy="299.10" r="2.5" fill="#2563eb"/>
  <circle cx="930.50" cy="299.10" r="2.5" fill="#2563eb"/>
  <circle cx="932.41" cy="299.10" r="2.5" fill="#2563eb"/>
  <circle cx="934.31" cy="248.07" r="2.5" fill="#2563eb"/>
  <circle cx="936.21" cy="299.06" r="2.5" fill="#2563eb"/>
  <circle cx="938.12" cy="299.06" r="2.5" fill="#2563eb"/>
  <circle cx="940.02" cy="299.06" r="2.5" fill="#2563eb"/>
  <circle cx="941.92" cy="299.06" r="2.5" fill="#2563eb"/>
  <circle cx="943.83" cy="299.06" r="2.5" fill="#2563eb"/>
  <circle cx="945.73" cy="298.97" r="2.5" fill="#2563eb"/>
  <circle cx="947.64" cy="298.97" r="2.5" fill="#2563eb"/>
  <circle cx="949.54" cy="298.93" r="2.5" fill="#2563eb"/>
  <circle cx="951.44" cy="298.97" r="2.5" fill="#2563eb"/>
  <circle cx="953.35" cy="298.93" r="2.5" fill="#2563eb"/>
  <circle cx="955.25" cy="298.89" r="2.5" fill="#2563eb"/>
  <circle cx="957.15" cy="298.89" r="2.5" fill="#2563eb"/>
  <circle cx="959.06" cy="298.89" r="2.5" fill="#2563eb"/>
  <circle cx="960.96" cy="298.89" r="2.5" fill="#2563eb"/>
  <circle cx="962.87" cy="247.78" r="2.5" fill="#2563eb"/>
  <circle cx="964.77" cy="298.89" r="2.5" fill="#2563eb"/>
  <circle cx="966.67" cy="298.89" r="2.5" fill="#2563eb"/>
  <circle cx="968.58" cy="298.85" r="2.5" fill="#2563eb"/>
  <circle cx="970.48" cy="298.85" r="2.5" fill="#2563eb"/>
  <circle cx="972.38" cy="298.81" r="2.5" fill="#2563eb"/>
  <circle cx="974.29" cy="298.81" r="2.5" fill="#2563eb"/>
  <circle cx="976.19" cy="298.81" r="2.5" fill="#2563eb"/>
  <circle cx="978.10" cy="298.81" r="2.5" fill="#2563eb"/>
  <circle cx="980.00" cy="298.81" r="2.5" fill="#2563eb"/>
</svg>
