<?xml version="1.0" encoding="UTF-8"?>
<svg xmlns="http://www.w3.org/2000/svg" width="1000" height="420" viewBox="0 0 1000 420">
  <rect width="100%" height="100%" fill="#ffffff"/>
  <text x="70" y="28" font-size="20" font-weight="600">수집 시점 기준 - 일별 스냅샷</text>
  <text x="70" y="402" font-size="12" fill="#555">스냅샷 수</text>
  <line x1="70" y1="350.00" x2="980" y2="350.00" stroke="#e5e7eb" stroke-width="1"/>
  <text x="62" y="354.00" font-size="11" fill="#6b7280" text-anchor="end">0</text>
  <line x1="70" y1="290.00" x2="980" y2="290.00" stroke="#e5e7eb" stroke-width="1"/>
  <text x="62" y="294.00" font-size="11" fill="#6b7280" text-anchor="end">10,057</text>
  <line x1="70" y1="230.00" x2="980" y2="230.00" stroke="#e5e7eb" stroke-width="1"/>
  <text x="62" y="234.00" font-size="11" fill="#6b7280" text-anchor="end">20,114</text>
  <line x1="70" y1="170.00" x2="980" y2="170.00" stroke="#e5e7eb" stroke-width="1"/>
  <text x="62" y="174.00" font-size="11" fill="#6b7280" text-anchor="end">30,171</text>
  <line x1="70" y1="110.00" x2="980" y2="110.00" stroke="#e5e7eb" stroke-width="1"/>
  <text x="62" y="114.00" font-size="11" fill="#6b7280" text-anchor="end">40,228</text>
  <line x1="70" y1="50.00" x2="980" y2="50.00" stroke="#e5e7eb" stroke-width="1"/>
  <text x="62" y="54.00" font-size="11" fill="#6b7280" text-anchor="end">50,285</text>
  <line x1="70" y1="350" x2="980" y2="350" stroke="#111827" stroke-width="1.2"/>
  <line x1="70" y1="50" x2="70" y2="350" stroke="#111827" stroke-width="1.2"/>
  <line x1="70.00" y1="350" x2="70.00" y2="356" stroke="#9ca3af" stroke-width="1"/>
  <text x="70.00" y="372" font-size="10" fill="#6b7280" text-anchor="middle">2026-02-28</text>
  <line x1="145.83" y1="350" x2="145.83" y2="356" stroke="#9ca3af" stroke-width="1"/>
  <text x="145.83" y="372" font-size="10" fill="#6b7280" text-anchor="middle">2026-03-08</text>
  <line x1="221.67" y1="350" x2="221.67" y2="356" stroke="#9ca3af" stroke-width="1"/>
  <text x="221.67" y="372" font-size="10" fill="#6b7280" text-anchor="middle">2026-03-12</text>
  <line x1="297.50" y1="350" x2="297.50" y2="356" stroke="#9ca3af" stroke-width="1"/>
  <text x="297.50" y="372" font-size="10" fill="#6b7280" text-anchor="middle">2026-03-16</text>
  <line x1="373.33" y1="350" x2="373.33" y2="356" stroke="#9ca3af" stroke-width="1"/>
  <text x="373.33" y="372" font-size="10" fill="#6b7280" text-anchor="middle">2026-03-20</text>
  <line x1="449.17" y1="350" x2="449.17" y2="356" stroke="#9ca3af" stroke-width="1"/>
  <text x="449.17" y="372" font-size="10" fill="#6b7280" text-anchor="middle">2026-03-24</text>
  <line x1="525.00" y1="350" x2="525.00" y2="356" stroke="#9ca3af" stroke-width="1"/>
  <text x="525.00" y="372" font-size="10" fill="#6b7280" text-anchor="middle">2026-03-28</text>
  <line x1="600.83" y1="350" x2="600.83" y2="356" stroke="#9ca3af" stroke-width="1"/>
  <text x="600.83" y="372" font-size="10" fill="#6b7280" text-anchor="middle">2026-04-01</text>
  <line x1="676.67" y1="350" x2="676.67" y2="356" stroke="#9ca3af" stroke-width="1"/>
  <text x="676.67" y="372" font-size="10" fill="#6b7280" text-anchor="middle">2026-04-05</text>
  <line x1="752.50" y1="350" x2="752.50" y2="356" stroke="#9ca3af" stroke-width="1"/>
  <text x="752.50" y="372" font-size="10" fill="#6b7280" text-anchor="middle">2026-04-09</text>
  <line x1="828.33" y1="350" x2="828.33" y2="356" stroke="#9ca3af" stroke-width="1"/>
  <text x="828.33" y="372" font-size="10" fill="#6b7280" text-anchor="middle">2026-04-13</text>
  <line x1="904.17" y1="350" x2="904.17" y2="356" stroke="#9ca3af" stroke-width="1"/>
  <text x="904.17" y="372" font-size="10" fill="#6b7280" text-anchor="middle">2026-04-17</text>
  <line x1="980.00" y1="350" x2="980.00" y2="356" stroke="#9ca3af" stroke-width="1"/>
  <text x="980.00" y="372" font-size="10" fill="#6b7280" text-anchor="middle">2026-04-21</text>
  <polyline fill="none" stroke="#2563eb" stroke-width="2.5" points="70.00,264.08 88.96,78.85 107.92,253.89 126.88,292.71 145.83,50.00 164.79,78.27 183.75,63.76 202.71,71.41 221.67,64.86 240.62,64.10 259.58,148.63 278.54,206.71 297.50,235.41 316.46,235.42 335.42,242.59 354.38,228.26 373.33,213.91 392.29,192.40 411.25,199.59 430.21,235.43 449.17,228.26 468.12,235.41 487.08,242.53 506.04,242.57 525.00,213.92 543.96,228.26 562.92,228.19 581.88,242.02 600.83,255.89 619.79,240.65 638.75,225.52 657.71,210.50 676.67,217.69 695.62,224.77 714.58,232.02 733.54,254.10 752.50,253.98 771.46,246.60 790.42,209.63 809.38,216.93 828.33,239.12 847.29,253.88 866.25,253.83 885.21,253.83 904.17,253.83 923.12,231.67 942.08,216.95 961.04,239.11 980.00,283.42"/>
  <circle cx="70.00" cy="264.08" r="2.5" fill="#2563eb"/>
  <circle cx="88.96" cy="78.85" r="2.5" fill="#2563eb"/>
  <circle cx="107.92" cy="253.89" r="2.5" fill="#2563eb"/>
  <circle cx="126.88" cy="292.71" r="2.5" fill="#2563eb"/>
  <circle cx="145.83" cy="50.00" r="2.5" fill="#2563eb"/>
  <circle cx="164.79" cy="78.27" r="2.5" fill="#2563eb"/>
  <circle cx="183.75" cy="63.76" r="2.5" fill="#2563eb"/>
  <circle cx="202.71" cy="71.41" r="2.5" fill="#2563eb"/>
  <circle cx="221.67" cy="64.86" r="2.5" fill="#2563eb"/>
  <circle cx="240.62" cy="64.10" r="2.5" fill="#2563eb"/>
  <circle cx="259.58" cy="148.63" r="2.5" fill="#2563eb"/>
  <circle cx="278.54" cy="206.71" r="2.5" fill="#2563eb"/>
  <circle cx="297.50" cy="235.41" r="2.5" fill="#2563eb"/>
  <circle cx="316.46" cy="235.42" r="2.5" fill="#2563eb"/>
  <circle cx="335.42" cy="242.59" r="2.5" fill="#2563eb"/>
  <circle cx="354.38" cy="228.26" r="2.5" fill="#2563eb"/>
  <circle cx="373.33" cy="213.91" r="2.5" fill="#2563eb"/>
  <circle cx="392.29" cy="192.40" r="2.5" fill="#2563eb"/>
  <circle cx="411.25" cy="199.59" r="2.5" fill="#2563eb"/>
  <circle cx="430.21" cy="235.43" r="2.5" fill="#2563eb"/>
  <circle cx="449.17" cy="228.26" r="2.5" fill="#2563eb"/>
  <circle cx="468.12" cy="235.41" r="2.5" fill="#2563eb"/>
  <circle cx="487.08" cy="242.53" r="2.5" fill="#2563eb"/>
  <circle cx="506.04" cy="242.57" r="2.5" fill="#2563eb"/>
  <circle cx="525.00" cy="213.92" r="2.5" fill="#2563eb"/>
  <circle cx="543.96" cy="228.26" r="2.5" fill="#2563eb"/>
  <circle cx="562.92" cy="228.19" r="2.5" fill="#2563eb"/>
  <circle cx="581.88" cy="242.02" r="2.5" fill="#2563eb"/>
  <circle cx="600.83" cy="255.89" r="2.5" fill="#2563eb"/>
  <circle cx="619.79" cy="240.65" r="2.5" fill="#2563eb"/>
  <circle cx="638.75" cy="225.52" r="2.5" fill="#2563eb"/>
  <circle cx="657.71" cy="210.50" r="2.5" fill="#2563eb"/>
  <circle cx="676.67" cy="217.69" r="2.5" fill="#2563eb"/>
  <circle cx="695.62" cy="224.77" r="2.5" fill="#2563eb"/>
  <circle cx="714.58" cy="232.02" r="2.5" fill="#2563eb"/>
  <circle cx="733.54" cy="254.10" r="2.5" fill="#2563eb"/>
  <circle cx="752.50" cy="253.98" r="2.5" fill="#2563eb"/>
  <circle cx="771.46" cy="246.60" r="2.5" fill="#2563eb"/>
  <circle cx="790.42" cy="209.63" r="2.5" fill="#2563eb"/>
  <circle cx="809.38" cy="216.93" r="2.5" fill="#2563eb"/>
  <circle cx="828.33" cy="239.12" r="2.5" fill="#2563eb"/>
  <circle cx="847.29" cy="253.88" r="2.5" fill="#2563eb"/>
  <circle cx="866.25" cy="253.83" r="2.5" fill="#2563eb"/>
  <circle cx="885.21" cy="253.83" r="2.5" fill="#2563eb"/>
  <circle cx="904.17" cy="253.83" r="2.5" fill="#2563eb"/>
  <circle cx="923.12" cy="231.67" r="2.5" fill="#2563eb"/>
  <circle cx="942.08" cy="216.95" r="2.5" fill="#2563eb"/>
  <circle cx="961.04" cy="239.11" r="2.5" fill="#2563eb"/>
  <circle cx="980.00" cy="283.42" r="2.5" fill="#2563eb"/>
</svg>
