<?xml version="1.0" encoding="UTF-8"?>
<svg xmlns="http://www.w3.org/2000/svg" width="1000" height="420" viewBox="0 0 1000 420">
  <rect width="100%" height="100%" fill="#ffffff"/>
  <text x="70" y="28" font-size="20" font-weight="600">수집 시점 기준 - 시간별 스냅샷</text>
  <text x="70" y="402" font-size="12" fill="#555">스냅샷 수</text>
  <line x1="70" y1="350.00" x2="980" y2="350.00" stroke="#e5e7eb" stroke-width="1"/>
  <text x="62" y="354.00" font-size="11" fill="#6b7280" text-anchor="end">0</text>
  <line x1="70" y1="290.00" x2="980" y2="290.00" stroke="#e5e7eb" stroke-width="1"/>
  <text x="62" y="294.00" font-size="11" fill="#6b7280" text-anchor="end">1,440</text>
  <line x1="70" y1="230.00" x2="980" y2="230.00" stroke="#e5e7eb" stroke-width="1"/>
  <text x="62" y="234.00" font-size="11" fill="#6b7280" text-anchor="end">2,880</text>
  <line x1="70" y1="170.00" x2="980" y2="170.00" stroke="#e5e7eb" stroke-width="1"/>
  <text x="62" y="174.00" font-size="11" fill="#6b7280" text-anchor="end">4,321</text>
  <line x1="70" y1="110.00" x2="980" y2="110.00" stroke="#e5e7eb" stroke-width="1"/>
  <text x="62" y="114.00" font-size="11" fill="#6b7280" text-anchor="end">5,761</text>
  <line x1="70" y1="50.00" x2="980" y2="50.00" stroke="#e5e7eb" stroke-width="1"/>
  <text x="62" y="54.00" font-size="11" fill="#6b7280" text-anchor="end">7,202</text>
  <line x1="70" y1="350" x2="980" y2="350" stroke="#111827" stroke-width="1.2"/>
  <line x1="70" y1="50" x2="70" y2="350" stroke="#111827" stroke-width="1.2"/>
  <line x1="70.00" y1="350" x2="70.00" y2="356" stroke="#9ca3af" stroke-width="1"/>
  <text x="70.00" y="372" font-size="10" fill="#6b7280" text-anchor="middle">2026-02-28 18</text>
  <line x1="146.00" y1="350" x2="146.00" y2="356" stroke="#9ca3af" stroke-width="1"/>
  <text x="146.00" y="372" font-size="10" fill="#6b7280" text-anchor="middle">2026-03-08 18</text>
  <line x1="221.99" y1="350" x2="221.99" y2="356" stroke="#9ca3af" stroke-width="1"/>
  <text x="221.99" y="372" font-size="10" fill="#6b7280" text-anchor="middle">2026-03-10 13</text>
  <line x1="297.99" y1="350" x2="297.99" y2="356" stroke="#9ca3af" stroke-width="1"/>
  <text x="297.99" y="372" font-size="10" fill="#6b7280" text-anchor="middle">2026-03-12 06</text>
  <line x1="373.98" y1="350" x2="373.98" y2="356" stroke="#9ca3af" stroke-width="1"/>
  <text x="373.98" y="372" font-size="10" fill="#6b7280" text-anchor="middle">2026-03-14 01</text>
  <line x1="449.98" y1="350" x2="449.98" y2="356" stroke="#9ca3af" stroke-width="1"/>
  <text x="449.98" y="372" font-size="10" fill="#6b7280" text-anchor="middle">2026-03-16 06</text>
  <line x1="525.97" y1="350" x2="525.97" y2="356" stroke="#9ca3af" stroke-width="1"/>
  <text x="525.97" y="372" font-size="10" fill="#6b7280" text-anchor="middle">2026-03-19 00</text>
  <line x1="601.97" y1="350" x2="601.97" y2="356" stroke="#9ca3af" stroke-width="1"/>
  <text x="601.97" y="372" font-size="10" fill="#6b7280" text-anchor="middle">2026-03-21 07</text>
  <line x1="677.97" y1="350" x2="677.97" y2="356" stroke="#9ca3af" stroke-width="1"/>
  <text x="677.97" y="372" font-size="10" fill="#6b7280" text-anchor="middle">2026-03-23 14</text>
  <line x1="753.96" y1="350" x2="753.96" y2="356" stroke="#9ca3af" stroke-width="1"/>
  <text x="753.96" y="372" font-size="10" fill="#6b7280" text-anchor="middle">2026-03-26 05</text>
  <line x1="829.96" y1="350" x2="829.96" y2="356" stroke="#9ca3af" stroke-width="1"/>
  <text x="829.96" y="372" font-size="10" fill="#6b7280" text-anchor="middle">2026-03-28 22</text>
  <line x1="905.95" y1="350" x2="905.95" y2="356" stroke="#9ca3af" stroke-width="1"/>
  <text x="905.95" y="372" font-size="10" fill="#6b7280" text-anchor="middle">2026-03-31 15</text>
  <line x1="980.00" y1="350" x2="980.00" y2="356" stroke="#9ca3af" stroke-width="1"/>
  <text x="980.00" y="372" font-size="10" fill="#6b7280" text-anchor="middle">2026-04-03 06</text>
  <polyline fill="none" stroke="#2563eb" stroke-width="2.5" points="70.00,50.00 71.95,50.12 73.90,50.17 75.85,50.46 77.79,50.00 79.74,266.90 81.69,50.12 83.64,50.08 85.59,177.46 87.54,211.58 89.49,175.34 91.43,304.14 93.38,200.46 95.33,250.94 97.28,300.01 99.23,300.06 101.18,300.01 103.13,300.01 105.07,348.00 107.02,300.01 108.97,249.99 110.92,200.00 112.87,249.99 114.82,249.99 116.77,250.03 118.72,250.03 120.66,250.03 122.61,250.40 124.56,250.90 126.51,250.90 128.46,251.32 130.41,249.94 132.36,300.01 134.30,299.93 136.25,251.03 138.20,300.68 140.15,250.03 142.10,200.00 144.05,249.99 146.00,250.03 147.94,250.03 149.89,250.03 151.84,300.01 153.79,200.04 155.74,250.03 157.69,250.03 159.64,250.03 161.58,249.90 163.53,250.03 165.48,250.03 167.43,250.94 169.38,250.44 171.33,250.03 173.28,250.03 175.22,300.47 177.17,300.01 179.12,300.43 181.07,250.03 183.02,249.99 184.97,300.43 186.92,249.90 188.87,249.99 190.81,249.99 192.76,200.04 194.71,300.01 196.66,300.01 198.61,300.01 200.56,249.90 202.51,300.01 204.45,250.03 206.40,249.99 208.35,199.96 210.30,300.01 212.25,200.00 214.20,250.36 216.15,250.03 218.09,300.01 220.04,300.01 221.99,250.44 223.94,300.01 225.89,250.03 227.84,250.03 229.79,249.99 231.73,250.49 233.68,250.03 235.63,200.04 237.58,300.01 239.53,250.03 241.48,300.01 243.43,250.11 245.37,300.01 247.32,250.03 249.27,250.03 251.22,199.92 253.17,250.03 255.12,250.03 257.07,250.03 259.01,254.36 260.96,300.01 262.91,299.97 264.86,250.36 266.81,299.97 268.76,250.03 270.71,250.03 272.66,250.03 274.60,250.03 276.55,249.99 278.50,200.00 280.45,299.93 282.40,300.01 284.35,299.97 286.30,249.94 288.24,249.99 290.19,249.82 292.14,249.94 294.09,250.28 296.04,207.00 297.99,250.03 299.94,250.32 301.88,250.40 303.83,300.93 305.78,300.01 307.73,300.10 309.68,249.94 311.63,249.99 313.58,250.07 315.52,249.99 317.47,250.03 319.42,249.94 321.37,200.00 323.32,300.39 325.27,300.01 327.22,300.01 329.16,250.44 331.11,300.39 333.06,249.86 335.01,250.11 336.96,201.46 338.91,300.01 340.86,200.83 342.81,250.03 344.75,249.99 346.70,300.26 348.65,300.01 350.60,300.01 352.55,250.03 354.50,250.03 356.45,250.03 358.39,250.03 360.34,249.99 362.29,250.03 364.24,200.00 366.19,300.26 368.14,249.99 370.09,300.01 372.03,249.94 373.98,250.03 375.93,250.03 377.88,250.03 379.83,200.04 381.78,300.01 383.73,249.90 385.67,300.01 387.62,300.01 389.57,300.06 391.52,300.01 393.47,300.01 395.42,243.95 397.37,249.94 399.31,299.97 401.26,300.01 403.21,300.01 405.16,250.03 407.11,300.01 409.06,300.01 411.01,299.97 412.96,249.99 414.90,300.01 416.85,299.93 418.80,300.01 420.75,299.93 422.70,300.01 424.65,300.01 426.60,299.89 428.54,299.97 430.49,250.03 432.44,299.93 434.39,299.89 436.34,299.97 438.29,249.94 440.24,300.01 442.18,300.01 444.13,299.97 446.08,249.99 448.03,299.97 449.98,299.97 451.93,300.06 453.88,300.06 455.82,299.93 457.77,300.01 459.72,300.01 461.67,299.93 463.62,300.01 465.57,300.01 467.52,299.97 469.46,300.01 471.41,300.01 473.36,300.01 475.31,300.01 477.26,249.86 479.21,300.01 481.16,300.10 483.10,299.93 485.05,300.01 487.00,299.93 488.95,300.01 490.90,300.01 492.85,300.01 494.80,300.01 496.75,300.01 498.69,299.97 500.64,300.01 502.59,300.01 504.54,300.01 506.49,300.01 508.44,250.03 510.39,300.01 512.33,300.01 514.28,299.97 516.23,300.01 518.18,300.01 520.13,299.97 522.08,299.97 524.03,300.01 525.97,299.97 527.92,300.01 529.87,299.93 531.82,300.01 533.77,250.03 535.72,300.01 537.67,300.01 539.61,300.01 541.56,300.01 543.51,300.01 545.46,299.89 547.41,300.01 549.36,300.01 551.31,250.07 553.25,300.01 555.20,299.93 557.15,300.01 559.10,299.97 561.05,299.97 563.00,299.97 564.95,250.03 566.90,300.01 568.84,300.01 570.79,300.01 572.74,300.01 574.69,299.97 576.64,300.01 578.59,299.97 580.54,300.01 582.48,299.97 584.43,249.90 586.38,300.01 588.33,300.01 590.28,299.89 592.23,299.97 594.18,299.97 596.12,249.99 598.07,299.97 600.02,299.89 601.97,300.01 603.92,299.97 605.87,299.97 607.82,300.01 609.76,299.97 611.71,249.99 613.66,299.97 615.61,299.97 617.56,300.06 619.51,300.06 621.46,249.94 623.40,300.01 625.35,299.93 627.30,300.01 629.25,300.01 631.20,249.99 633.15,300.01 635.10,300.01 637.04,300.01 638.99,299.93 640.94,299.93 642.89,300.01 644.84,300.01 646.79,249.94 648.74,299.97 650.69,299.97 652.63,300.01 654.58,300.01 656.53,300.01 658.48,249.99 660.43,300.01 662.38,300.01 664.33,300.01 666.27,250.03 668.22,300.01 670.17,300.01 672.12,300.01 674.07,299.97 676.02,300.01 677.97,300.01 679.91,299.97 681.86,299.97 683.81,300.01 685.76,300.01 687.71,299.97 689.66,299.93 691.61,300.01 693.55,300.06 695.50,299.97 697.45,300.01 699.40,250.03 701.35,250.03 703.30,299.93 705.25,299.97 707.19,300.01 709.14,300.01 711.09,300.06 713.04,300.01 714.99,299.93 716.94,300.01 718.89,300.01 720.84,299.97 722.78,299.97 724.73,300.01 726.68,250.03 728.63,300.01 730.58,300.01 732.53,300.01 734.48,299.97 736.42,300.01 738.37,299.97 740.32,300.01 742.27,299.97 744.22,299.97 746.17,299.93 748.12,300.01 750.06,300.01 752.01,299.89 753.96,299.97 755.91,299.97 757.86,300.06 759.81,249.90 761.76,299.89 763.70,300.01 765.65,299.97 767.60,299.97 769.55,299.97 771.50,300.01 773.45,300.01 775.40,299.97 777.34,299.97 779.29,299.97 781.24,250.03 783.19,299.93 785.14,300.01 787.09,300.01 789.04,299.93 790.99,300.01 792.93,300.01 794.88,299.97 796.83,300.01 798.78,300.01 800.73,300.06 802.68,300.01 804.63,299.97 806.57,299.89 808.52,300.01 810.47,300.01 812.42,249.94 814.37,249.94 816.32,300.01 818.27,300.01 820.21,300.01 822.16,300.01 824.11,299.97 826.06,250.03 828.01,300.01 829.96,300.01 831.91,300.01 833.85,300.01 835.80,250.03 837.75,249.99 839.70,300.01 841.65,299.97 843.60,300.01 845.55,299.97 847.49,300.01 849.44,299.97 851.39,299.97 853.34,299.97 855.29,300.06 857.24,249.99 859.19,300.01 861.13,250.03 863.08,249.94 865.03,249.99 866.98,300.01 868.93,300.06 870.88,300.01 872.83,299.97 874.78,299.97 876.72,300.01 878.67,299.93 880.62,299.89 882.57,299.89 884.52,299.89 886.47,299.89 888.42,299.85 890.36,299.85 892.31,299.89 894.26,299.81 896.21,299.81 898.16,299.81 900.11,299.76 902.06,299.76 904.00,299.76 905.95,299.72 907.90,299.68 909.85,299.60 911.80,299.60 913.75,299.60 915.70,299.56 917.64,299.47 919.59,299.43 921.54,299.43 923.49,299.39 925.44,299.47 927.39,259.82 929.34,338.96 931.28,299.31 933.23,299.31 935.18,299.26 937.13,299.68 939.08,299.68 941.03,299.68 942.98,299.64 944.93,299.14 946.87,299.14 948.82,299.10 950.77,299.10 952.72,299.10 954.67,248.07 956.62,299.06 958.57,299.06 960.51,299.06 962.46,299.06 964.41,299.06 966.36,298.97 968.31,298.97 970.26,298.93 972.21,298.97 974.15,298.93 976.10,298.89 978.05,298.89 980.00,298.89"/>
  <circle cx="70.00" cy="50.00" r="2.5" fill="#2563eb"/>
  <circle cx="71.95" cy="50.12" r="2.5" fill="#2563eb"/>
  <circle cx="73.90" cy="50.17" r="2.5" fill="#2563eb"/>
  <circle cx="75.85" cy="50.46" r="2.5" fill="#2563eb"/>
  <circle cx="77.79" cy="50.00" r="2.5" fill="#2563eb"/>
  <circle cx="79.74" cy="266.90" r="2.5" fill="#2563eb"/>
  <circle cx="81.69" cy="50.12" r="2.5" fill="#2563eb"/>
  <circle cx="83.64" cy="50.08" r="2.5" fill="#2563eb"/>
  <circle cx="85.59" cy="177.46" r="2.5" fill="#2563eb"/>
  <circle cx="87.54" cy="211.58" r="2.5" fill="#2563eb"/>
  <circle cx="89.49" cy="175.34" r="2.5" fill="#2563eb"/>
  <circle cx="91.43" cy="304.14" r="2.5" fill="#2563eb"/>
  <circle cx="93.38" cy="200.46" r="2.5" fill="#2563eb"/>
  <circle cx="95.33" cy="250.94" r="2.5" fill="#2563eb"/>
  <circle cx="97.28" cy="300.01" r="2.5" fill="#2563eb"/>
  <circle cx="99.23" cy="300.06" r="2.5" fill="#2563eb"/>
  <circle cx="101.18" cy="300.01" r="2.5" fill="#2563eb"/>
  <circle cx="103.13" cy="300.01" r="2.5" fill="#2563eb"/>
  <circle cx="105.07" cy="348.00" r="2.5" fill="#2563eb"/>
  <circle cx="107.02" cy="300.01" r="2.5" fill="#2563eb"/>
  <circle cx="108.97" cy="249.99" r="2.5" fill="#2563eb"/>
  <circle cx="110.92" cy="200.00" r="2.5" fill="#2563eb"/>
  <circle cx="112.87" cy="249.99" r="2.5" fill="#2563eb"/>
  <circle cx="114.82" cy="249.99" r="2.5" fill="#2563eb"/>
  <circle cx="116.77" cy="250.03" r="2.5" fill="#2563eb"/>
  <circle cx="118.72" cy="250.03" r="2.5" fill="#2563eb"/>
  <circle cx="120.66" cy="250.03" r="2.5" fill="#2563eb"/>
  <circle cx="122.61" cy="250.40" r="2.5" fill="#2563eb"/>
  <circle cx="124.56" cy="250.90" r="2.5" fill="#2563eb"/>
  <circle cx="126.51" cy="250.90" r="2.5" fill="#2563eb"/>
  <circle cx="128.46" cy="251.32" r="2.5" fill="#2563eb"/>
  <circle cx="130.41" cy="249.94" r="2.5" fill="#2563eb"/>
  <circle cx="132.36" cy="300.01" r="2.5" fill="#2563eb"/>
  <circle cx="134.30" cy="299.93" r="2.5" fill="#2563eb"/>
  <circle cx="136.25" cy="251.03" r="2.5" fill="#2563eb"/>
  <circle cx="138.20" cy="300.68" r="2.5" fill="#2563eb"/>
  <circle cx="140.15" cy="250.03" r="2.5" fill="#2563eb"/>
  <circle cx="142.10" cy="200.00" r="2.5" fill="#2563eb"/>
  <circle cx="144.05" cy="249.99" r="2.5" fill="#2563eb"/>
  <circle cx="146.00" cy="250.03" r="2.5" fill="#2563eb"/>
  <circle cx="147.94" cy="250.03" r="2.5" fill="#2563eb"/>
  <circle cx="149.89" cy="250.03" r="2.5" fill="#2563eb"/>
  <circle cx="151.84" cy="300.01" r="2.5" fill="#2563eb"/>
  <circle cx="153.79" cy="200.04" r="2.5" fill="#2563eb"/>
  <circle cx="155.74" cy="250.03" r="2.5" fill="#2563eb"/>
  <circle cx="157.69" cy="250.03" r="2.5" fill="#2563eb"/>
  <circle cx="159.64" cy="250.03" r="2.5" fill="#2563eb"/>
  <circle cx="161.58" cy="249.90" r="2.5" fill="#2563eb"/>
  <circle cx="163.53" cy="250.03" r="2.5" fill="#2563eb"/>
  <circle cx="165.48" cy="250.03" r="2.5" fill="#2563eb"/>
  <circle cx="167.43" cy="250.94" r="2.5" fill="#2563eb"/>
  <circle cx="169.38" cy="250.44" r="2.5" fill="#2563eb"/>
  <circle cx="171.33" cy="250.03" r="2.5" fill="#2563eb"/>
  <circle cx="173.28" cy="250.03" r="2.5" fill="#2563eb"/>
  <circle cx="175.22" cy="300.47" r="2.5" fill="#2563eb"/>
  <circle cx="177.17" cy="300.01" r="2.5" fill="#2563eb"/>
  <circle cx="179.12" cy="300.43" r="2.5" fill="#2563eb"/>
  <circle cx="181.07" cy="250.03" r="2.5" fill="#2563eb"/>
  <circle cx="183.02" cy="249.99" r="2.5" fill="#2563eb"/>
  <circle cx="184.97" cy="300.43" r="2.5" fill="#2563eb"/>
  <circle cx="186.92" cy="249.90" r="2.5" fill="#2563eb"/>
  <circle cx="188.87" cy="249.99" r="2.5" fill="#2563eb"/>
  <circle cx="190.81" cy="249.99" r="2.5" fill="#2563eb"/>
  <circle cx="192.76" cy="200.04" r="2.5" fill="#2563eb"/>
  <circle cx="194.71" cy="300.01" r="2.5" fill="#2563eb"/>
  <circle cx="196.66" cy="300.01" r="2.5" fill="#2563eb"/>
  <circle cx="198.61" cy="300.01" r="2.5" fill="#2563eb"/>
  <circle cx="200.56" cy="249.90" r="2.5" fill="#2563eb"/>
  <circle cx="202.51" cy="300.01" r="2.5" fill="#2563eb"/>
  <circle cx="204.45" cy="250.03" r="2.5" fill="#2563eb"/>
  <circle cx="206.40" cy="249.99" r="2.5" fill="#2563eb"/>
  <circle cx="208.35" cy="199.96" r="2.5" fill="#2563eb"/>
  <circle cx="210.30" cy="300.01" r="2.5" fill="#2563eb"/>
  <circle cx="212.25" cy="200.00" r="2.5" fill="#2563eb"/>
  <circle cx="214.20" cy="250.36" r="2.5" fill="#2563eb"/>
  <circle cx="216.15" cy="250.03" r="2.5" fill="#2563eb"/>
  <circle cx="218.09" cy="300.01" r="2.5" fill="#2563eb"/>
  <circle cx="220.04" cy="300.01" r="2.5" fill="#2563eb"/>
  <circle cx="221.99" cy="250.44" r="2.5" fill="#2563eb"/>
  <circle cx="223.94" cy="300.01" r="2.5" fill="#2563eb"/>
  <circle cx="225.89" cy="250.03" r="2.5" fill="#2563eb"/>
  <circle cx="227.84" cy="250.03" r="2.5" fill="#2563eb"/>
  <circle cx="229.79" cy="249.99" r="2.5" fill="#2563eb"/>
  <circle cx="231.73" cy="250.49" r="2.5" fill="#2563eb"/>
  <circle cx="233.68" cy="250.03" r="2.5" fill="#2563eb"/>
  <circle cx="235.63" cy="200.04" r="2.5" fill="#2563eb"/>
  <circle cx="237.58" cy="300.01" r="2.5" fill="#2563eb"/>
  <circle cx="239.53" cy="250.03" r="2.5" fill="#2563eb"/>
  <circle cx="241.48" cy="300.01" r="2.5" fill="#2563eb"/>
  <circle cx="243.43" cy="250.11" r="2.5" fill="#2563eb"/>
  <circle cx="245.37" cy="300.01" r="2.5" fill="#2563eb"/>
  <circle cx="247.32" cy="250.03" r="2.5" fill="#2563eb"/>
  <circle cx="249.27" cy="250.03" r="2.5" fill="#2563eb"/>
  <circle cx="251.22" cy="199.92" r="2.5" fill="#2563eb"/>
  <circle cx="253.17" cy="250.03" r="2.5" fill="#2563eb"/>
  <circle cx="255.12" cy="250.03" r="2.5" fill="#2563eb"/>
  <circle cx="257.07" cy="250.03" r="2.5" fill="#2563eb"/>
  <circle cx="259.01" cy="254.36" r="2.5" fill="#2563eb"/>
  <circle cx="260.96" cy="300.01" r="2.5" fill="#2563eb"/>
  <circle cx="262.91" cy="299.97" r="2.5" fill="#2563eb"/>
  <circle cx="264.86" cy="250.36" r="2.5" fill="#2563eb"/>
  <circle cx="266.81" cy="299.97" r="2.5" fill="#2563eb"/>
  <circle cx="268.76" cy="250.03" r="2.5" fill="#2563eb"/>
  <circle cx="270.71" cy="250.03" r="2.5" fill="#2563eb"/>
  <circle cx="272.66" cy="250.03" r="2.5" fill="#2563eb"/>
  <circle cx="274.60" cy="250.03" r="2.5" fill="#2563eb"/>
  <circle cx="276.55" cy="249.99" r="2.5" fill="#2563eb"/>
  <circle cx="278.50" cy="200.00" r="2.5" fill="#2563eb"/>
  <circle cx="280.45" cy="299.93" r="2.5" fill="#2563eb"/>
  <circle cx="282.40" cy="300.01" r="2.5" fill="#2563eb"/>
  <circle cx="284.35" cy="299.97" r="2.5" fill="#2563eb"/>
  <circle cx="286.30" cy="249.94" r="2.5" fill="#2563eb"/>
  <circle cx="288.24" cy="249.99" r="2.5" fill="#2563eb"/>
  <circle cx="290.19" cy="249.82" r="2.5" fill="#2563eb"/>
  <circle cx="292.14" cy="249.94" r="2.5" fill="#2563eb"/>
  <circle cx="294.09" cy="250.28" r="2.5" fill="#2563eb"/>
  <circle cx="296.04" cy="207.00" r="2.5" fill="#2563eb"/>
  <circle cx="297.99" cy="250.03" r="2.5" fill="#2563eb"/>
  <circle cx="299.94" cy="250.32" r="2.5" fill="#2563eb"/>
  <circle cx="301.88" cy="250.40" r="2.5" fill="#2563eb"/>
  <circle cx="303.83" cy="300.93" r="2.5" fill="#2563eb"/>
  <circle cx="305.78" cy="300.01" r="2.5" fill="#2563eb"/>
  <circle cx="307.73" cy="300.10" r="2.5" fill="#2563eb"/>
  <circle cx="309.68" cy="249.94" r="2.5" fill="#2563eb"/>
  <circle cx="311.63" cy="249.99" r="2.5" fill="#2563eb"/>
  <circle cx="313.58" cy="250.07" r="2.5" fill="#2563eb"/>
  <circle cx="315.52" cy="249.99" r="2.5" fill="#2563eb"/>
  <circle cx="317.47" cy="250.03" r="2.5" fill="#2563eb"/>
  <circle cx="319.42" cy="249.94" r="2.5" fill="#2563eb"/>
  <circle cx="321.37" cy="200.00" r="2.5" fill="#2563eb"/>
  <circle cx="323.32" cy="300.39" r="2.5" fill="#2563eb"/>
  <circle cx="325.27" cy="300.01" r="2.5" fill="#2563eb"/>
  <circle cx="327.22" cy="300.01" r="2.5" fill="#2563eb"/>
  <circle cx="329.16" cy="250.44" r="2.5" fill="#2563eb"/>
  <circle cx="331.11" cy="300.39" r="2.5" fill="#2563eb"/>
  <circle cx="333.06" cy="249.86" r="2.5" fill="#2563eb"/>
  <circle cx="335.01" cy="250.11" r="2.5" fill="#2563eb"/>
  <circle cx="336.96" cy="201.46" r="2.5" fill="#2563eb"/>
  <circle cx="338.91" cy="300.01" r="2.5" fill="#2563eb"/>
  <circle cx="340.86" cy="200.83" r="2.5" fill="#2563eb"/>
  <circle cx="342.81" cy="250.03" r="2.5" fill="#2563eb"/>
  <circle cx="344.75" cy="249.99" r="2.5" fill="#2563eb"/>
  <circle cx="346.70" cy="300.26" r="2.5" fill="#2563eb"/>
  <circle cx="348.65" cy="300.01" r="2.5" fill="#2563eb"/>
  <circle cx="350.60" cy="300.01" r="2.5" fill="#2563eb"/>
  <circle cx="352.55" cy="250.03" r="2.5" fill="#2563eb"/>
  <circle cx="354.50" cy="250.03" r="2.5" fill="#2563eb"/>
  <circle cx="356.45" cy="250.03" r="2.5" fill="#2563eb"/>
  <circle cx="358.39" cy="250.03" r="2.5" fill="#2563eb"/>
  <circle cx="360.34" cy="249.99" r="2.5" fill="#2563eb"/>
  <circle cx="362.29" cy="250.03" r="2.5" fill="#2563eb"/>
  <circle cx="364.24" cy="200.00" r="2.5" fill="#2563eb"/>
  <circle cx="366.19" cy="300.26" r="2.5" fill="#2563eb"/>
  <circle cx="368.14" cy="249.99" r="2.5" fill="#2563eb"/>
  <circle cx="370.09" cy="300.01" r="2.5" fill="#2563eb"/>
  <circle cx="372.03" cy="249.94" r="2.5" fill="#2563eb"/>
  <circle cx="373.98" cy="250.03" r="2.5" fill="#2563eb"/>
  <circle cx="375.93" cy="250.03" r="2.5" fill="#2563eb"/>
  <circle cx="377.88" cy="250.03" r="2.5" fill="#2563eb"/>
  <circle cx="379.83" cy="200.04" r="2.5" fill="#2563eb"/>
  <circle cx="381.78" cy="300.01" r="2.5" fill="#2563eb"/>
  <circle cx="383.73" cy="249.90" r="2.5" fill="#2563eb"/>
  <circle cx="385.67" cy="300.01" r="2.5" fill="#2563eb"/>
  <circle cx="387.62" cy="300.01" r="2.5" fill="#2563eb"/>
  <circle cx="389.57" cy="300.06" r="2.5" fill="#2563eb"/>
  <circle cx="391.52" cy="300.01" r="2.5" fill="#2563eb"/>
  <circle cx="393.47" cy="300.01" r="2.5" fill="#2563eb"/>
  <circle cx="395.42" cy="243.95" r="2.5" fill="#2563eb"/>
  <circle cx="397.37" cy="249.94" r="2.5" fill="#2563eb"/>
  <circle cx="399.31" cy="299.97" r="2.5" fill="#2563eb"/>
  <circle cx="401.26" cy="300.01" r="2.5" fill="#2563eb"/>
  <circle cx="403.21" cy="300.01" r="2.5" fill="#2563eb"/>
  <circle cx="405.16" cy="250.03" r="2.5" fill="#2563eb"/>
  <circle cx="407.11" cy="300.01" r="2.5" fill="#2563eb"/>
  <circle cx="409.06" cy="300.01" r="2.5" fill="#2563eb"/>
  <circle cx="411.01" cy="299.97" r="2.5" fill="#2563eb"/>
  <circle cx="412.96" cy="249.99" r="2.5" fill="#2563eb"/>
  <circle cx="414.90" cy="300.01" r="2.5" fill="#2563eb"/>
  <circle cx="416.85" cy="299.93" r="2.5" fill="#2563eb"/>
  <circle cx="418.80" cy="300.01" r="2.5" fill="#2563eb"/>
  <circle cx="420.75" cy="299.93" r="2.5" fill="#2563eb"/>
  <circle cx="422.70" cy="300.01" r="2.5" fill="#2563eb"/>
  <circle cx="424.65" cy="300.01" r="2.5" fill="#2563eb"/>
  <circle cx="426.60" cy="299.89" r="2.5" fill="#2563eb"/>
  <circle cx="428.54" cy="299.97" r="2.5" fill="#2563eb"/>
  <circle cx="430.49" cy="250.03" r="2.5" fill="#2563eb"/>
  <circle cx="432.44" cy="299.93" r="2.5" fill="#2563eb"/>
  <circle cx="434.39" cy="299.89" r="2.5" fill="#2563eb"/>
  <circle cx="436.34" cy="299.97" r="2.5" fill="#2563eb"/>
  <circle cx="438.29" cy="249.94" r="2.5" fill="#2563eb"/>
  <circle cx="440.24" cy="300.01" r="2.5" fill="#2563eb"/>
  <circle cx="442.18" cy="300.01" r="2.5" fill="#2563eb"/>
  <circle cx="444.13" cy="299.97" r="2.5" fill="#2563eb"/>
  <circle cx="446.08" cy="249.99" r="2.5" fill="#2563eb"/>
  <circle cx="448.03" cy="299.97" r="2.5" fill="#2563eb"/>
  <circle cx="449.98" cy="299.97" r="2.5" fill="#2563eb"/>
  <circle cx="451.93" cy="300.06" r="2.5" fill="#2563eb"/>
  <circle cx="453.88" cy="300.06" r="2.5" fill="#2563eb"/>
  <circle cx="455.82" cy="299.93" r="2.5" fill="#2563eb"/>
  <circle cx="457.77" cy="300.01" r="2.5" fill="#2563eb"/>
  <circle cx="459.72" cy="300.01" r="2.5" fill="#2563eb"/>
  <circle cx="461.67" cy="299.93" r="2.5" fill="#2563eb"/>
  <circle cx="463.62" cy="300.01" r="2.5" fill="#2563eb"/>
  <circle cx="465.57" cy="300.01" r="2.5" fill="#2563eb"/>
  <circle cx="467.52" cy="299.97" r="2.5" fill="#2563eb"/>
  <circle cx="469.46" cy="300.01" r="2.5" fill="#2563eb"/>
  <circle cx="471.41" cy="300.01" r="2.5" fill="#2563eb"/>
  <circle cx="473.36" cy="300.01" r="2.5" fill="#2563eb"/>
  <circle cx="475.31" cy="300.01" r="2.5" fill="#2563eb"/>
  <circle cx="477.26" cy="249.86" r="2.5" fill="#2563eb"/>
  <circle cx="479.21" cy="300.01" r="2.5" fill="#2563eb"/>
  <circle cx="481.16" cy="300.10" r="2.5" fill="#2563eb"/>
  <circle cx="483.10" cy="299.93" r="2.5" fill="#2563eb"/>
  <circle cx="485.05" cy="300.01" r="2.5" fill="#2563eb"/>
  <circle cx="487.00" cy="299.93" r="2.5" fill="#2563eb"/>
  <circle cx="488.95" cy="300.01" r="2.5" fill="#2563eb"/>
  <circle cx="490.90" cy="300.01" r="2.5" fill="#2563eb"/>
  <circle cx="492.85" cy="300.01" r="2.5" fill="#2563eb"/>
  <circle cx="494.80" cy="300.01" r="2.5" fill="#2563eb"/>
  <circle cx="496.75" cy="300.01" r="2.5" fill="#2563eb"/>
  <circle cx="498.69" cy="299.97" r="2.5" fill="#2563eb"/>
  <circle cx="500.64" cy="300.01" r="2.5" fill="#2563eb"/>
  <circle cx="502.59" cy="300.01" r="2.5" fill="#2563eb"/>
  <circle cx="504.54" cy="300.01" r="2.5" fill="#2563eb"/>
  <circle cx="506.49" cy="300.01" r="2.5" fill="#2563eb"/>
  <circle cx="508.44" cy="250.03" r="2.5" fill="#2563eb"/>
  <circle cx="510.39" cy="300.01" r="2.5" fill="#2563eb"/>
  <circle cx="512.33" cy="300.01" r="2.5" fill="#2563eb"/>
  <circle cx="514.28" cy="299.97" r="2.5" fill="#2563eb"/>
  <circle cx="516.23" cy="300.01" r="2.5" fill="#2563eb"/>
  <circle cx="518.18" cy="300.01" r="2.5" fill="#2563eb"/>
  <circle cx="520.13" cy="299.97" r="2.5" fill="#2563eb"/>
  <circle cx="522.08" cy="299.97" r="2.5" fill="#2563eb"/>
  <circle cx="524.03" cy="300.01" r="2.5" fill="#2563eb"/>
  <circle cx="525.97" cy="299.97" r="2.5" fill="#2563eb"/>
  <circle cx="527.92" cy="300.01" r="2.5" fill="#2563eb"/>
  <circle cx="529.87" cy="299.93" r="2.5" fill="#2563eb"/>
  <circle cx="531.82" cy="300.01" r="2.5" fill="#2563eb"/>
  <circle cx="533.77" cy="250.03" r="2.5" fill="#2563eb"/>
  <circle cx="535.72" cy="300.01" r="2.5" fill="#2563eb"/>
  <circle cx="537.67" cy="300.01" r="2.5" fill="#2563eb"/>
  <circle cx="539.61" cy="300.01" r="2.5" fill="#2563eb"/>
  <circle cx="541.56" cy="300.01" r="2.5" fill="#2563eb"/>
  <circle cx="543.51" cy="300.01" r="2.5" fill="#2563eb"/>
  <circle cx="545.46" cy="299.89" r="2.5" fill="#2563eb"/>
  <circle cx="547.41" cy="300.01" r="2.5" fill="#2563eb"/>
  <circle cx="549.36" cy="300.01" r="2.5" fill="#2563eb"/>
  <circle cx="551.31" cy="250.07" r="2.5" fill="#2563eb"/>
  <circle cx="553.25" cy="300.01" r="2.5" fill="#2563eb"/>
  <circle cx="555.20" cy="299.93" r="2.5" fill="#2563eb"/>
  <circle cx="557.15" cy="300.01" r="2.5" fill="#2563eb"/>
  <circle cx="559.10" cy="299.97" r="2.5" fill="#2563eb"/>
  <circle cx="561.05" cy="299.97" r="2.5" fill="#2563eb"/>
  <circle cx="563.00" cy="299.97" r="2.5" fill="#2563eb"/>
  <circle cx="564.95" cy="250.03" r="2.5" fill="#2563eb"/>
  <circle cx="566.90" cy="300.01" r="2.5" fill="#2563eb"/>
  <circle cx="568.84" cy="300.01" r="2.5" fill="#2563eb"/>
  <circle cx="570.79" cy="300.01" r="2.5" fill="#2563eb"/>
  <circle cx="572.74" cy="300.01" r="2.5" fill="#2563eb"/>
  <circle cx="574.69" cy="299.97" r="2.5" fill="#2563eb"/>
  <circle cx="576.64" cy="300.01" r="2.5" fill="#2563eb"/>
  <circle cx="578.59" cy="299.97" r="2.5" fill="#2563eb"/>
  <circle cx="580.54" cy="300.01" r="2.5" fill="#2563eb"/>
  <circle cx="582.48" cy="299.97" r="2.5" fill="#2563eb"/>
  <circle cx="584.43" cy="249.90" r="2.5" fill="#2563eb"/>
  <circle cx="586.38" cy="300.01" r="2.5" fill="#2563eb"/>
  <circle cx="588.33" cy="300.01" r="2.5" fill="#2563eb"/>
  <circle cx="590.28" cy="299.89" r="2.5" fill="#2563eb"/>
  <circle cx="592.23" cy="299.97" r="2.5" fill="#2563eb"/>
  <circle cx="594.18" cy="299.97" r="2.5" fill="#2563eb"/>
  <circle cx="596.12" cy="249.99" r="2.5" fill="#2563eb"/>
  <circle cx="598.07" cy="299.97" r="2.5" fill="#2563eb"/>
  <circle cx="600.02" cy="299.89" r="2.5" fill="#2563eb"/>
  <circle cx="601.97" cy="300.01" r="2.5" fill="#2563eb"/>
  <circle cx="603.92" cy="299.97" r="2.5" fill="#2563eb"/>
  <circle cx="605.87" cy="299.97" r="2.5" fill="#2563eb"/>
  <circle cx="607.82" cy="300.01" r="2.5" fill="#2563eb"/>
  <circle cx="609.76" cy="299.97" r="2.5" fill="#2563eb"/>
  <circle cx="611.71" cy="249.99" r="2.5" fill="#2563eb"/>
  <circle cx="613.66" cy="299.97" r="2.5" fill="#2563eb"/>
  <circle cx="615.61" cy="299.97" r="2.5" fill="#2563eb"/>
  <circle cx="617.56" cy="300.06" r="2.5" fill="#2563eb"/>
  <circle cx="619.51" cy="300.06" r="2.5" fill="#2563eb"/>
  <circle cx="621.46" cy="249.94" r="2.5" fill="#2563eb"/>
  <circle cx="623.40" cy="300.01" r="2.5" fill="#2563eb"/>
  <circle cx="625.35" cy="299.93" r="2.5" fill="#2563eb"/>
  <circle cx="627.30" cy="300.01" r="2.5" fill="#2563eb"/>
  <circle cx="629.25" cy="300.01" r="2.5" fill="#2563eb"/>
  <circle cx="631.20" cy="249.99" r="2.5" fill="#2563eb"/>
  <circle cx="633.15" cy="300.01" r="2.5" fill="#2563eb"/>
  <circle cx="635.10" cy="300.01" r="2.5" fill="#2563eb"/>
  <circle cx="637.04" cy="300.01" r="2.5" fill="#2563eb"/>
  <circle cx="638.99" cy="299.93" r="2.5" fill="#2563eb"/>
  <circle cx="640.94" cy="299.93" r="2.5" fill="#2563eb"/>
  <circle cx="642.89" cy="300.01" r="2.5" fill="#2563eb"/>
  <circle cx="644.84" cy="300.01" r="2.5" fill="#2563eb"/>
  <circle cx="646.79" cy="249.94" r="2.5" fill="#2563eb"/>
  <circle cx="648.74" cy="299.97" r="2.5" fill="#2563eb"/>
  <circle cx="650.69" cy="299.97" r="2.5" fill="#2563eb"/>
  <circle cx="652.63" cy="300.01" r="2.5" fill="#2563eb"/>
  <circle cx="654.58" cy="300.01" r="2.5" fill="#2563eb"/>
  <circle cx="656.53" cy="300.01" r="2.5" fill="#2563eb"/>
  <circle cx="658.48" cy="249.99" r="2.5" fill="#2563eb"/>
  <circle cx="660.43" cy="300.01" r="2.5" fill="#2563eb"/>
  <circle cx="662.38" cy="300.01" r="2.5" fill="#2563eb"/>
  <circle cx="664.33" cy="300.01" r="2.5" fill="#2563eb"/>
  <circle cx="666.27" cy="250.03" r="2.5" fill="#2563eb"/>
  <circle cx="668.22" cy="300.01" r="2.5" fill="#2563eb"/>
  <circle cx="670.17" cy="300.01" r="2.5" fill="#2563eb"/>
  <circle cx="672.12" cy="300.01" r="2.5" fill="#2563eb"/>
  <circle cx="674.07" cy="299.97" r="2.5" fill="#2563eb"/>
  <circle cx="676.02" cy="300.01" r="2.5" fill="#2563eb"/>
  <circle cx="677.97" cy="300.01" r="2.5" fill="#2563eb"/>
  <circle cx="679.91" cy="299.97" r="2.5" fill="#2563eb"/>
  <circle cx="681.86" cy="299.97" r="2.5" fill="#2563eb"/>
  <circle cx="683.81" cy="300.01" r="2.5" fill="#2563eb"/>
  <circle cx="685.76" cy="300.01" r="2.5" fill="#2563eb"/>
  <circle cx="687.71" cy="299.97" r="2.5" fill="#2563eb"/>
  <circle cx="689.66" cy="299.93" r="2.5" fill="#2563eb"/>
  <circle cx="691.61" cy="300.01" r="2.5" fill="#2563eb"/>
  <circle cx="693.55" cy="300.06" r="2.5" fill="#2563eb"/>
  <circle cx="695.50" cy="299.97" r="2.5" fill="#2563eb"/>
  <circle cx="697.45" cy="300.01" r="2.5" fill="#2563eb"/>
  <circle cx="699.40" cy="250.03" r="2.5" fill="#2563eb"/>
  <circle cx="701.35" cy="250.03" r="2.5" fill="#2563eb"/>
  <circle cx="703.30" cy="299.93" r="2.5" fill="#2563eb"/>
  <circle cx="705.25" cy="299.97" r="2.5" fill="#2563eb"/>
  <circle cx="707.19" cy="300.01" r="2.5" fill="#2563eb"/>
  <circle cx="709.14" cy="300.01" r="2.5" fill="#2563eb"/>
  <circle cx="711.09" cy="300.06" r="2.5" fill="#2563eb"/>
  <circle cx="713.04" cy="300.01" r="2.5" fill="#2563eb"/>
  <circle cx="714.99" cy="299.93" r="2.5" fill="#2563eb"/>
  <circle cx="716.94" cy="300.01" r="2.5" fill="#2563eb"/>
  <circle cx="718.89" cy="300.01" r="2.5" fill="#2563eb"/>
  <circle cx="720.84" cy="299.97" r="2.5" fill="#2563eb"/>
  <circle cx="722.78" cy="299.97" r="2.5" fill="#2563eb"/>
  <circle cx="724.73" cy="300.01" r="2.5" fill="#2563eb"/>
  <circle cx="726.68" cy="250.03" r="2.5" fill="#2563eb"/>
  <circle cx="728.63" cy="300.01" r="2.5" fill="#2563eb"/>
  <circle cx="730.58" cy="300.01" r="2.5" fill="#2563eb"/>
  <circle cx="732.53" cy="300.01" r="2.5" fill="#2563eb"/>
  <circle cx="734.48" cy="299.97" r="2.5" fill="#2563eb"/>
  <circle cx="736.42" cy="300.01" r="2.5" fill="#2563eb"/>
  <circle cx="738.37" cy="299.97" r="2.5" fill="#2563eb"/>
  <circle cx="740.32" cy="300.01" r="2.5" fill="#2563eb"/>
  <circle cx="742.27" cy="299.97" r="2.5" fill="#2563eb"/>
  <circle cx="744.22" cy="299.97" r="2.5" fill="#2563eb"/>
  <circle cx="746.17" cy="299.93" r="2.5" fill="#2563eb"/>
  <circle cx="748.12" cy="300.01" r="2.5" fill="#2563eb"/>
  <circle cx="750.06" cy="300.01" r="2.5" fill="#2563eb"/>
  <circle cx="752.01" cy="299.89" r="2.5" fill="#2563eb"/>
  <circle cx="753.96" cy="299.97" r="2.5" fill="#2563eb"/>
  <circle cx="755.91" cy="299.97" r="2.5" fill="#2563eb"/>
  <circle cx="757.86" cy="300.06" r="2.5" fill="#2563eb"/>
  <circle cx="759.81" cy="249.90" r="2.5" fill="#2563eb"/>
  <circle cx="761.76" cy="299.89" r="2.5" fill="#2563eb"/>
  <circle cx="763.70" cy="300.01" r="2.5" fill="#2563eb"/>
  <circle cx="765.65" cy="299.97" r="2.5" fill="#2563eb"/>
  <circle cx="767.60" cy="299.97" r="2.5" fill="#2563eb"/>
  <circle cx="769.55" cy="299.97" r="2.5" fill="#2563eb"/>
  <circle cx="771.50" cy="300.01" r="2.5" fill="#2563eb"/>
  <circle cx="773.45" cy="300.01" r="2.5" fill="#2563eb"/>
  <circle cx="775.40" cy="299.97" r="2.5" fill="#2563eb"/>
  <circle cx="777.34" cy="299.97" r="2.5" fill="#2563eb"/>
  <circle cx="779.29" cy="299.97" r="2.5" fill="#2563eb"/>
  <circle cx="781.24" cy="250.03" r="2.5" fill="#2563eb"/>
  <circle cx="783.19" cy="299.93" r="2.5" fill="#2563eb"/>
  <circle cx="785.14" cy="300.01" r="2.5" fill="#2563eb"/>
  <circle cx="787.09" cy="300.01" r="2.5" fill="#2563eb"/>
  <circle cx="789.04" cy="299.93" r="2.5" fill="#2563eb"/>
  <circle cx="790.99" cy="300.01" r="2.5" fill="#2563eb"/>
  <circle cx="792.93" cy="300.01" r="2.5" fill="#2563eb"/>
  <circle cx="794.88" cy="299.97" r="2.5" fill="#2563eb"/>
  <circle cx="796.83" cy="300.01" r="2.5" fill="#2563eb"/>
  <circle cx="798.78" cy="300.01" r="2.5" fill="#2563eb"/>
  <circle cx="800.73" cy="300.06" r="2.5" fill="#2563eb"/>
  <circle cx="802.68" cy="300.01" r="2.5" fill="#2563eb"/>
  <circle cx="804.63" cy="299.97" r="2.5" fill="#2563eb"/>
  <circle cx="806.57" cy="299.89" r="2.5" fill="#2563eb"/>
  <circle cx="808.52" cy="300.01" r="2.5" fill="#2563eb"/>
  <circle cx="810.47" cy="300.01" r="2.5" fill="#2563eb"/>
  <circle cx="812.42" cy="249.94" r="2.5" fill="#2563eb"/>
  <circle cx="814.37" cy="249.94" r="2.5" fill="#2563eb"/>
  <circle cx="816.32" cy="300.01" r="2.5" fill="#2563eb"/>
  <circle cx="818.27" cy="300.01" r="2.5" fill="#2563eb"/>
  <circle cx="820.21" cy="300.01" r="2.5" fill="#2563eb"/>
  <circle cx="822.16" cy="300.01" r="2.5" fill="#2563eb"/>
  <circle cx="824.11" cy="299.97" r="2.5" fill="#2563eb"/>
  <circle cx="826.06" cy="250.03" r="2.5" fill="#2563eb"/>
  <circle cx="828.01" cy="300.01" r="2.5" fill="#2563eb"/>
  <circle cx="829.96" cy="300.01" r="2.5" fill="#2563eb"/>
  <circle cx="831.91" cy="300.01" r="2.5" fill="#2563eb"/>
  <circle cx="833.85" cy="300.01" r="2.5" fill="#2563eb"/>
  <circle cx="835.80" cy="250.03" r="2.5" fill="#2563eb"/>
  <circle cx="837.75" cy="249.99" r="2.5" fill="#2563eb"/>
  <circle cx="839.70" cy="300.01" r="2.5" fill="#2563eb"/>
  <circle cx="841.65" cy="299.97" r="2.5" fill="#2563eb"/>
  <circle cx="843.60" cy="300.01" r="2.5" fill="#2563eb"/>
  <circle cx="845.55" cy="299.97" r="2.5" fill="#2563eb"/>
  <circle cx="847.49" cy="300.01" r="2.5" fill="#2563eb"/>
  <circle cx="849.44" cy="299.97" r="2.5" fill="#2563eb"/>
  <circle cx="851.39" cy="299.97" r="2.5" fill="#2563eb"/>
  <circle cx="853.34" cy="299.97" r="2.5" fill="#2563eb"/>
  <circle cx="855.29" cy="300.06" r="2.5" fill="#2563eb"/>
  <circle cx="857.24" cy="249.99" r="2.5" fill="#2563eb"/>
  <circle cx="859.19" cy="300.01" r="2.5" fill="#2563eb"/>
  <circle cx="861.13" cy="250.03" r="2.5" fill="#2563eb"/>
  <circle cx="863.08" cy="249.94" r="2.5" fill="#2563eb"/>
  <circle cx="865.03" cy="249.99" r="2.5" fill="#2563eb"/>
  <circle cx="866.98" cy="300.01" r="2.5" fill="#2563eb"/>
  <circle cx="868.93" cy="300.06" r="2.5" fill="#2563eb"/>
  <circle cx="870.88" cy="300.01" r="2.5" fill="#2563eb"/>
  <circle cx="872.83" cy="299.97" r="2.5" fill="#2563eb"/>
  <circle cx="874.78" cy="299.97" r="2.5" fill="#2563eb"/>
  <circle cx="876.72" cy="300.01" r="2.5" fill="#2563eb"/>
  <circle cx="878.67" cy="299.93" r="2.5" fill="#2563eb"/>
  <circle cx="880.62" cy="299.89" r="2.5" fill="#2563eb"/>
  <circle cx="882.57" cy="299.89" r="2.5" fill="#2563eb"/>
  <circle cx="884.52" cy="299.89" r="2.5" fill="#2563eb"/>
  <circle cx="886.47" cy="299.89" r="2.5" fill="#2563eb"/>
  <circle cx="888.42" cy="299.85" r="2.5" fill="#2563eb"/>
  <circle cx="890.36" cy="299.85" r="2.5" fill="#2563eb"/>
  <circle cx="892.31" cy="299.89" r="2.5" fill="#2563eb"/>
  <circle cx="894.26" cy="299.81" r="2.5" fill="#2563eb"/>
  <circle cx="896.21" cy="299.81" r="2.5" fill="#2563eb"/>
  <circle cx="898.16" cy="299.81" r="2.5" fill="#2563eb"/>
  <circle cx="900.11" cy="299.76" r="2.5" fill="#2563eb"/>
  <circle cx="902.06" cy="299.76" r="2.5" fill="#2563eb"/>
  <circle cx="904.00" cy="299.76" r="2.5" fill="#2563eb"/>
  <circle cx="905.95" cy="299.72" r="2.5" fill="#2563eb"/>
  <circle cx="907.90" cy="299.68" r="2.5" fill="#2563eb"/>
  <circle cx="909.85" cy="299.60" r="2.5" fill="#2563eb"/>
  <circle cx="911.80" cy="299.60" r="2.5" fill="#2563eb"/>
  <circle cx="913.75" cy="299.60" r="2.5" fill="#2563eb"/>
  <circle cx="915.70" cy="299.56" r="2.5" fill="#2563eb"/>
  <circle cx="917.64" cy="299.47" r="2.5" fill="#2563eb"/>
  <circle cx="919.59" cy="299.43" r="2.5" fill="#2563eb"/>
  <circle cx="921.54" cy="299.43" r="2.5" fill="#2563eb"/>
  <circle cx="923.49" cy="299.39" r="2.5" fill="#2563eb"/>
  <circle cx="925.44" cy="299.47" r="2.5" fill="#2563eb"/>
  <circle cx="927.39" cy="259.82" r="2.5" fill="#2563eb"/>
  <circle cx="929.34" cy="338.96" r="2.5" fill="#2563eb"/>
  <circle cx="931.28" cy="299.31" r="2.5" fill="#2563eb"/>
  <circle cx="933.23" cy="299.31" r="2.5" fill="#2563eb"/>
  <circle cx="935.18" cy="299.26" r="2.5" fill="#2563eb"/>
  <circle cx="937.13" cy="299.68" r="2.5" fill="#2563eb"/>
  <circle cx="939.08" cy="299.68" r="2.5" fill="#2563eb"/>
  <circle cx="941.03" cy="299.68" r="2.5" fill="#2563eb"/>
  <circle cx="942.98" cy="299.64" r="2.5" fill="#2563eb"/>
  <circle cx="944.93" cy="299.14" r="2.5" fill="#2563eb"/>
  <circle cx="946.87" cy="299.14" r="2.5" fill="#2563eb"/>
  <circle cx="948.82" cy="299.10" r="2.5" fill="#2563eb"/>
  <circle cx="950.77" cy="299.10" r="2.5" fill="#2563eb"/>
  <circle cx="952.72" cy="299.10" r="2.5" fill="#2563eb"/>
  <circle cx="954.67" cy="248.07" r="2.5" fill="#2563eb"/>
  <circle cx="956.62" cy="299.06" r="2.5" fill="#2563eb"/>
  <circle cx="958.57" cy="299.06" r="2.5" fill="#2563eb"/>
  <circle cx="960.51" cy="299.06" r="2.5" fill="#2563eb"/>
  <circle cx="962.46" cy="299.06" r="2.5" fill="#2563eb"/>
  <circle cx="964.41" cy="299.06" r="2.5" fill="#2563eb"/>
  <circle cx="966.36" cy="298.97" r="2.5" fill="#2563eb"/>
  <circle cx="968.31" cy="298.97" r="2.5" fill="#2563eb"/>
  <circle cx="970.26" cy="298.93" r="2.5" fill="#2563eb"/>
  <circle cx="972.21" cy="298.97" r="2.5" fill="#2563eb"/>
  <circle cx="974.15" cy="298.93" r="2.5" fill="#2563eb"/>
  <circle cx="976.10" cy="298.89" r="2.5" fill="#2563eb"/>
  <circle cx="978.05" cy="298.89" r="2.5" fill="#2563eb"/>
  <circle cx="980.00" cy="298.89" r="2.5" fill="#2563eb"/>
</svg>
