<?xml version="1.0" encoding="UTF-8"?>
<svg xmlns="http://www.w3.org/2000/svg" width="1000" height="420" viewBox="0 0 1000 420">
  <rect width="100%" height="100%" fill="#ffffff"/>
  <text x="70" y="28" font-size="20" font-weight="600">수집 시점 기준 - 시간별 스냅샷</text>
  <text x="70" y="402" font-size="12" fill="#555">스냅샷 수</text>
  <line x1="70" y1="350.00" x2="980" y2="350.00" stroke="#e5e7eb" stroke-width="1"/>
  <text x="62" y="354.00" font-size="11" fill="#6b7280" text-anchor="end">0</text>
  <line x1="70" y1="290.00" x2="980" y2="290.00" stroke="#e5e7eb" stroke-width="1"/>
  <text x="62" y="294.00" font-size="11" fill="#6b7280" text-anchor="end">1,440</text>
  <line x1="70" y1="230.00" x2="980" y2="230.00" stroke="#e5e7eb" stroke-width="1"/>
  <text x="62" y="234.00" font-size="11" fill="#6b7280" text-anchor="end">2,880</text>
  <line x1="70" y1="170.00" x2="980" y2="170.00" stroke="#e5e7eb" stroke-width="1"/>
  <text x="62" y="174.00" font-size="11" fill="#6b7280" text-anchor="end">4,321</text>
  <line x1="70" y1="110.00" x2="980" y2="110.00" stroke="#e5e7eb" stroke-width="1"/>
  <text x="62" y="114.00" font-size="11" fill="#6b7280" text-anchor="end">5,761</text>
  <line x1="70" y1="50.00" x2="980" y2="50.00" stroke="#e5e7eb" stroke-width="1"/>
  <text x="62" y="54.00" font-size="11" fill="#6b7280" text-anchor="end">7,202</text>
  <line x1="70" y1="350" x2="980" y2="350" stroke="#111827" stroke-width="1.2"/>
  <line x1="70" y1="50" x2="70" y2="350" stroke="#111827" stroke-width="1.2"/>
  <line x1="70.00" y1="350" x2="70.00" y2="356" stroke="#9ca3af" stroke-width="1"/>
  <text x="70.00" y="372" font-size="10" fill="#6b7280" text-anchor="middle">2026-02-28 18</text>
  <line x1="144.59" y1="350" x2="144.59" y2="356" stroke="#9ca3af" stroke-width="1"/>
  <text x="144.59" y="372" font-size="10" fill="#6b7280" text-anchor="middle">2026-03-09 00</text>
  <line x1="219.18" y1="350" x2="219.18" y2="356" stroke="#9ca3af" stroke-width="1"/>
  <text x="219.18" y="372" font-size="10" fill="#6b7280" text-anchor="middle">2026-03-11 01</text>
  <line x1="293.77" y1="350" x2="293.77" y2="356" stroke="#9ca3af" stroke-width="1"/>
  <text x="293.77" y="372" font-size="10" fill="#6b7280" text-anchor="middle">2026-03-13 02</text>
  <line x1="368.36" y1="350" x2="368.36" y2="356" stroke="#9ca3af" stroke-width="1"/>
  <text x="368.36" y="372" font-size="10" fill="#6b7280" text-anchor="middle">2026-03-15 08</text>
  <line x1="442.95" y1="350" x2="442.95" y2="356" stroke="#9ca3af" stroke-width="1"/>
  <text x="442.95" y="372" font-size="10" fill="#6b7280" text-anchor="middle">2026-03-18 08</text>
  <line x1="517.54" y1="350" x2="517.54" y2="356" stroke="#9ca3af" stroke-width="1"/>
  <text x="517.54" y="372" font-size="10" fill="#6b7280" text-anchor="middle">2026-03-21 04</text>
  <line x1="592.13" y1="350" x2="592.13" y2="356" stroke="#9ca3af" stroke-width="1"/>
  <text x="592.13" y="372" font-size="10" fill="#6b7280" text-anchor="middle">2026-03-23 20</text>
  <line x1="666.72" y1="350" x2="666.72" y2="356" stroke="#9ca3af" stroke-width="1"/>
  <text x="666.72" y="372" font-size="10" fill="#6b7280" text-anchor="middle">2026-03-26 21</text>
  <line x1="741.31" y1="350" x2="741.31" y2="356" stroke="#9ca3af" stroke-width="1"/>
  <text x="741.31" y="372" font-size="10" fill="#6b7280" text-anchor="middle">2026-03-29 22</text>
  <line x1="815.90" y1="350" x2="815.90" y2="356" stroke="#9ca3af" stroke-width="1"/>
  <text x="815.90" y="372" font-size="10" fill="#6b7280" text-anchor="middle">2026-04-02 03</text>
  <line x1="890.49" y1="350" x2="890.49" y2="356" stroke="#9ca3af" stroke-width="1"/>
  <text x="890.49" y="372" font-size="10" fill="#6b7280" text-anchor="middle">2026-04-05 02</text>
  <line x1="965.08" y1="350" x2="965.08" y2="356" stroke="#9ca3af" stroke-width="1"/>
  <text x="965.08" y="372" font-size="10" fill="#6b7280" text-anchor="middle">2026-04-08 05</text>
  <line x1="980.00" y1="350" x2="980.00" y2="356" stroke="#9ca3af" stroke-width="1"/>
  <text x="980.00" y="372" font-size="10" fill="#6b7280" text-anchor="middle">2026-04-08 20</text>
  <polyline fill="none" stroke="#2563eb" stroke-width="2.5" points="70.00,50.00 71.66,50.12 73.32,50.17 74.97,50.46 76.63,50.00 78.29,266.90 79.95,50.12 81.60,50.08 83.26,177.46 84.92,211.58 86.58,175.34 88.23,304.14 89.89,200.46 91.55,250.94 93.21,300.01 94.86,300.06 96.52,300.01 98.18,300.01 99.84,348.00 101.49,300.01 103.15,249.99 104.81,200.00 106.47,249.99 108.12,249.99 109.78,250.03 111.44,250.03 113.10,250.03 114.75,250.40 116.41,250.90 118.07,250.90 119.73,251.32 121.38,249.94 123.04,300.01 124.70,299.93 126.36,251.03 128.01,300.68 129.67,250.03 131.33,200.00 132.99,249.99 134.64,250.03 136.30,250.03 137.96,250.03 139.62,300.01 141.28,200.04 142.93,250.03 144.59,250.03 146.25,250.03 147.91,249.90 149.56,250.03 151.22,250.03 152.88,250.94 154.54,250.44 156.19,250.03 157.85,250.03 159.51,300.47 161.17,300.01 162.82,300.43 164.48,250.03 166.14,249.99 167.80,300.43 169.45,249.90 171.11,249.99 172.77,249.99 174.43,200.04 176.08,300.01 177.74,300.01 179.40,300.01 181.06,249.90 182.71,300.01 184.37,250.03 186.03,249.99 187.69,199.96 189.34,300.01 191.00,200.00 192.66,250.36 194.32,250.03 195.97,300.01 197.63,300.01 199.29,250.44 200.95,300.01 202.60,250.03 204.26,250.03 205.92,249.99 207.58,250.49 209.23,250.03 210.89,200.04 212.55,300.01 214.21,250.03 215.87,300.01 217.52,250.11 219.18,300.01 220.84,250.03 222.50,250.03 224.15,199.92 225.81,250.03 227.47,250.03 229.13,250.03 230.78,254.36 232.44,300.01 234.10,299.97 235.76,250.36 237.41,299.97 239.07,250.03 240.73,250.03 242.39,250.03 244.04,250.03 245.70,249.99 247.36,200.00 249.02,299.93 250.67,300.01 252.33,299.97 253.99,249.94 255.65,249.99 257.30,249.82 258.96,249.94 260.62,250.28 262.28,207.00 263.93,250.03 265.59,250.32 267.25,250.40 268.91,300.93 270.56,300.01 272.22,300.10 273.88,249.94 275.54,249.99 277.19,250.07 278.85,249.99 280.51,250.03 282.17,249.94 283.83,200.00 285.48,300.39 287.14,300.01 288.80,300.01 290.46,250.44 292.11,300.39 293.77,249.86 295.43,250.11 297.09,201.46 298.74,300.01 300.40,200.83 302.06,250.03 303.72,249.99 305.37,300.26 307.03,300.01 308.69,300.01 310.35,250.03 312.00,250.03 313.66,250.03 315.32,250.03 316.98,249.99 318.63,250.03 320.29,200.00 321.95,300.26 323.61,249.99 325.26,300.01 326.92,249.94 328.58,250.03 330.24,250.03 331.89,250.03 333.55,200.04 335.21,300.01 336.87,249.90 338.52,300.01 340.18,300.01 341.84,300.06 343.50,300.01 345.15,300.01 346.81,243.95 348.47,249.94 350.13,299.97 351.79,300.01 353.44,300.01 355.10,250.03 356.76,300.01 358.42,300.01 360.07,299.97 361.73,249.99 363.39,300.01 365.05,299.93 366.70,300.01 368.36,299.93 370.02,300.01 371.68,300.01 373.33,299.89 374.99,299.97 376.65,250.03 378.31,299.93 379.96,299.89 381.62,299.97 383.28,249.94 384.94,300.01 386.59,300.01 388.25,299.97 389.91,249.99 391.57,299.97 393.22,299.97 394.88,300.06 396.54,300.06 398.20,299.93 399.85,300.01 401.51,300.01 403.17,299.93 404.83,300.01 406.48,300.01 408.14,299.97 409.80,300.01 411.46,300.01 413.11,300.01 414.77,300.01 416.43,249.86 418.09,300.01 419.74,300.10 421.40,299.93 423.06,300.01 424.72,299.93 426.38,300.01 428.03,300.01 429.69,300.01 431.35,300.01 433.01,300.01 434.66,299.97 436.32,300.01 437.98,300.01 439.64,300.01 441.29,300.01 442.95,250.03 444.61,300.01 446.27,300.01 447.92,299.97 449.58,300.01 451.24,300.01 452.90,299.97 454.55,299.97 456.21,300.01 457.87,299.97 459.53,300.01 461.18,299.93 462.84,300.01 464.50,250.03 466.16,300.01 467.81,300.01 469.47,300.01 471.13,300.01 472.79,300.01 474.44,299.89 476.10,300.01 477.76,300.01 479.42,250.07 481.07,300.01 482.73,299.93 484.39,300.01 486.05,299.97 487.70,299.97 489.36,299.97 491.02,250.03 492.68,300.01 494.34,300.01 495.99,300.01 497.65,300.01 499.31,299.97 500.97,300.01 502.62,299.97 504.28,300.01 505.94,299.97 507.60,249.90 509.25,300.01 510.91,300.01 512.57,299.89 514.23,299.97 515.88,299.97 517.54,249.99 519.20,299.97 520.86,299.89 522.51,300.01 524.17,299.97 525.83,299.97 527.49,300.01 529.14,299.97 530.80,249.99 532.46,299.97 534.12,299.97 535.77,300.06 537.43,300.06 539.09,249.94 540.75,300.01 542.40,299.93 544.06,300.01 545.72,300.01 547.38,249.99 549.03,300.01 550.69,300.01 552.35,300.01 554.01,299.93 555.66,299.93 557.32,300.01 558.98,300.01 560.64,249.94 562.30,299.97 563.95,299.97 565.61,300.01 567.27,300.01 568.93,300.01 570.58,249.99 572.24,300.01 573.90,300.01 575.56,300.01 577.21,250.03 578.87,300.01 580.53,300.01 582.19,300.01 583.84,299.97 585.50,300.01 587.16,300.01 588.82,299.97 590.47,299.97 592.13,300.01 593.79,300.01 595.45,299.97 597.10,299.93 598.76,300.01 600.42,300.06 602.08,299.97 603.73,300.01 605.39,250.03 607.05,250.03 608.71,299.93 610.36,299.97 612.02,300.01 613.68,300.01 615.34,300.06 616.99,300.01 618.65,299.93 620.31,300.01 621.97,300.01 623.62,299.97 625.28,299.97 626.94,300.01 628.60,250.03 630.26,300.01 631.91,300.01 633.57,300.01 635.23,299.97 636.89,300.01 638.54,299.97 640.20,300.01 641.86,299.97 643.52,299.97 645.17,299.93 646.83,300.01 648.49,300.01 650.15,299.89 651.80,299.97 653.46,299.97 655.12,300.06 656.78,249.90 658.43,299.89 660.09,300.01 661.75,299.97 663.41,299.97 665.06,299.97 666.72,300.01 668.38,300.01 670.04,299.97 671.69,299.97 673.35,299.97 675.01,250.03 676.67,299.93 678.32,300.01 679.98,300.01 681.64,299.93 683.30,300.01 684.95,300.01 686.61,299.97 688.27,300.01 689.93,300.01 691.58,300.06 693.24,300.01 694.90,299.97 696.56,299.89 698.21,300.01 699.87,300.01 701.53,249.94 703.19,249.94 704.85,300.01 706.50,300.01 708.16,300.01 709.82,300.01 711.48,299.97 713.13,250.03 714.79,300.01 716.45,300.01 718.11,300.01 719.76,300.01 721.42,250.03 723.08,249.99 724.74,300.01 726.39,299.97 728.05,300.01 729.71,299.97 731.37,300.01 733.02,299.97 734.68,299.97 736.34,299.97 738.00,300.06 739.65,249.99 741.31,300.01 742.97,250.03 744.63,249.94 746.28,249.99 747.94,300.01 749.60,300.06 751.26,300.01 752.91,299.97 754.57,299.97 756.23,300.01 757.89,299.93 759.54,299.89 761.20,299.89 762.86,299.89 764.52,299.89 766.17,299.85 767.83,299.85 769.49,299.89 771.15,299.81 772.81,299.81 774.46,299.81 776.12,299.76 777.78,299.76 779.44,299.76 781.09,299.72 782.75,299.68 784.41,299.60 786.07,299.60 787.72,299.60 789.38,299.56 791.04,299.47 792.70,299.43 794.35,299.43 796.01,299.39 797.67,299.47 799.33,259.82 800.98,338.96 802.64,299.31 804.30,299.31 805.96,299.26 807.61,299.68 809.27,299.68 810.93,299.68 812.59,299.64 814.24,299.14 815.90,299.14 817.56,299.10 819.22,299.10 820.87,299.10 822.53,248.07 824.19,299.06 825.85,299.06 827.50,299.06 829.16,299.06 830.82,299.06 832.48,298.97 834.13,298.97 835.79,298.93 837.45,298.97 839.11,298.93 840.77,298.89 842.42,298.89 844.08,298.89 845.74,298.89 847.40,247.78 849.05,298.89 850.71,298.89 852.37,298.85 854.03,298.85 855.68,298.81 857.34,298.81 859.00,298.81 860.66,298.81 862.31,298.81 863.97,298.81 865.63,298.81 867.29,298.81 868.94,298.81 870.60,298.72 872.26,247.45 873.92,247.45 875.57,298.72 877.23,298.72 878.89,298.72 880.55,298.72 882.20,298.72 883.86,298.72 885.52,247.36 887.18,298.68 888.83,247.36 890.49,247.36 892.15,247.36 893.81,298.68 895.46,298.68 897.12,298.68 898.78,298.68 900.44,298.68 902.09,341.67 903.75,307.01 905.41,298.68 907.07,298.68 908.72,298.68 910.38,247.36 912.04,298.64 913.70,247.36 915.36,247.28 917.01,247.20 918.67,298.60 920.33,298.60 921.99,247.03 923.64,298.51 925.30,298.51 926.96,298.51 928.62,298.51 930.27,298.51 931.93,298.51 933.59,298.51 935.25,298.51 936.90,298.51 938.56,298.51 940.22,298.51 941.88,298.51 943.53,298.51 945.19,298.51 946.85,298.51 948.51,298.51 950.16,298.51 951.82,298.51 953.48,298.51 955.14,298.51 956.79,298.51 958.45,298.51 960.11,298.51 961.77,298.51 963.42,298.51 965.08,298.51 966.74,298.47 968.40,298.51 970.05,298.51 971.71,298.47 973.37,298.51 975.03,298.47 976.68,298.51 978.34,298.43 980.00,298.56"/>
  <circle cx="70.00" cy="50.00" r="2.5" fill="#2563eb"/>
  <circle cx="71.66" cy="50.12" r="2.5" fill="#2563eb"/>
  <circle cx="73.32" cy="50.17" r="2.5" fill="#2563eb"/>
  <circle cx="74.97" cy="50.46" r="2.5" fill="#2563eb"/>
  <circle cx="76.63" cy="50.00" r="2.5" fill="#2563eb"/>
  <circle cx="78.29" cy="266.90" r="2.5" fill="#2563eb"/>
  <circle cx="79.95" cy="50.12" r="2.5" fill="#2563eb"/>
  <circle cx="81.60" cy="50.08" r="2.5" fill="#2563eb"/>
  <circle cx="83.26" cy="177.46" r="2.5" fill="#2563eb"/>
  <circle cx="84.92" cy="211.58" r="2.5" fill="#2563eb"/>
  <circle cx="86.58" cy="175.34" r="2.5" fill="#2563eb"/>
  <circle cx="88.23" cy="304.14" r="2.5" fill="#2563eb"/>
  <circle cx="89.89" cy="200.46" r="2.5" fill="#2563eb"/>
  <circle cx="91.55" cy="250.94" r="2.5" fill="#2563eb"/>
  <circle cx="93.21" cy="300.01" r="2.5" fill="#2563eb"/>
  <circle cx="94.86" cy="300.06" r="2.5" fill="#2563eb"/>
  <circle cx="96.52" cy="300.01" r="2.5" fill="#2563eb"/>
  <circle cx="98.18" cy="300.01" r="2.5" fill="#2563eb"/>
  <circle cx="99.84" cy="348.00" r="2.5" fill="#2563eb"/>
  <circle cx="101.49" cy="300.01" r="2.5" fill="#2563eb"/>
  <circle cx="103.15" cy="249.99" r="2.5" fill="#2563eb"/>
  <circle cx="104.81" cy="200.00" r="2.5" fill="#2563eb"/>
  <circle cx="106.47" cy="249.99" r="2.5" fill="#2563eb"/>
  <circle cx="108.12" cy="249.99" r="2.5" fill="#2563eb"/>
  <circle cx="109.78" cy="250.03" r="2.5" fill="#2563eb"/>
  <circle cx="111.44" cy="250.03" r="2.5" fill="#2563eb"/>
  <circle cx="113.10" cy="250.03" r="2.5" fill="#2563eb"/>
  <circle cx="114.75" cy="250.40" r="2.5" fill="#2563eb"/>
  <circle cx="116.41" cy="250.90" r="2.5" fill="#2563eb"/>
  <circle cx="118.07" cy="250.90" r="2.5" fill="#2563eb"/>
  <circle cx="119.73" cy="251.32" r="2.5" fill="#2563eb"/>
  <circle cx="121.38" cy="249.94" r="2.5" fill="#2563eb"/>
  <circle cx="123.04" cy="300.01" r="2.5" fill="#2563eb"/>
  <circle cx="124.70" cy="299.93" r="2.5" fill="#2563eb"/>
  <circle cx="126.36" cy="251.03" r="2.5" fill="#2563eb"/>
  <circle cx="128.01" cy="300.68" r="2.5" fill="#2563eb"/>
  <circle cx="129.67" cy="250.03" r="2.5" fill="#2563eb"/>
  <circle cx="131.33" cy="200.00" r="2.5" fill="#2563eb"/>
  <circle cx="132.99" cy="249.99" r="2.5" fill="#2563eb"/>
  <circle cx="134.64" cy="250.03" r="2.5" fill="#2563eb"/>
  <circle cx="136.30" cy="250.03" r="2.5" fill="#2563eb"/>
  <circle cx="137.96" cy="250.03" r="2.5" fill="#2563eb"/>
  <circle cx="139.62" cy="300.01" r="2.5" fill="#2563eb"/>
  <circle cx="141.28" cy="200.04" r="2.5" fill="#2563eb"/>
  <circle cx="142.93" cy="250.03" r="2.5" fill="#2563eb"/>
  <circle cx="144.59" cy="250.03" r="2.5" fill="#2563eb"/>
  <circle cx="146.25" cy="250.03" r="2.5" fill="#2563eb"/>
  <circle cx="147.91" cy="249.90" r="2.5" fill="#2563eb"/>
  <circle cx="149.56" cy="250.03" r="2.5" fill="#2563eb"/>
  <circle cx="151.22" cy="250.03" r="2.5" fill="#2563eb"/>
  <circle cx="152.88" cy="250.94" r="2.5" fill="#2563eb"/>
  <circle cx="154.54" cy="250.44" r="2.5" fill="#2563eb"/>
  <circle cx="156.19" cy="250.03" r="2.5" fill="#2563eb"/>
  <circle cx="157.85" cy="250.03" r="2.5" fill="#2563eb"/>
  <circle cx="159.51" cy="300.47" r="2.5" fill="#2563eb"/>
  <circle cx="161.17" cy="300.01" r="2.5" fill="#2563eb"/>
  <circle cx="162.82" cy="300.43" r="2.5" fill="#2563eb"/>
  <circle cx="164.48" cy="250.03" r="2.5" fill="#2563eb"/>
  <circle cx="166.14" cy="249.99" r="2.5" fill="#2563eb"/>
  <circle cx="167.80" cy="300.43" r="2.5" fill="#2563eb"/>
  <circle cx="169.45" cy="249.90" r="2.5" fill="#2563eb"/>
  <circle cx="171.11" cy="249.99" r="2.5" fill="#2563eb"/>
  <circle cx="172.77" cy="249.99" r="2.5" fill="#2563eb"/>
  <circle cx="174.43" cy="200.04" r="2.5" fill="#2563eb"/>
  <circle cx="176.08" cy="300.01" r="2.5" fill="#2563eb"/>
  <circle cx="177.74" cy="300.01" r="2.5" fill="#2563eb"/>
  <circle cx="179.40" cy="300.01" r="2.5" fill="#2563eb"/>
  <circle cx="181.06" cy="249.90" r="2.5" fill="#2563eb"/>
  <circle cx="182.71" cy="300.01" r="2.5" fill="#2563eb"/>
  <circle cx="184.37" cy="250.03" r="2.5" fill="#2563eb"/>
  <circle cx="186.03" cy="249.99" r="2.5" fill="#2563eb"/>
  <circle cx="187.69" cy="199.96" r="2.5" fill="#2563eb"/>
  <circle cx="189.34" cy="300.01" r="2.5" fill="#2563eb"/>
  <circle cx="191.00" cy="200.00" r="2.5" fill="#2563eb"/>
  <circle cx="192.66" cy="250.36" r="2.5" fill="#2563eb"/>
  <circle cx="194.32" cy="250.03" r="2.5" fill="#2563eb"/>
  <circle cx="195.97" cy="300.01" r="2.5" fill="#2563eb"/>
  <circle cx="197.63" cy="300.01" r="2.5" fill="#2563eb"/>
  <circle cx="199.29" cy="250.44" r="2.5" fill="#2563eb"/>
  <circle cx="200.95" cy="300.01" r="2.5" fill="#2563eb"/>
  <circle cx="202.60" cy="250.03" r="2.5" fill="#2563eb"/>
  <circle cx="204.26" cy="250.03" r="2.5" fill="#2563eb"/>
  <circle cx="205.92" cy="249.99" r="2.5" fill="#2563eb"/>
  <circle cx="207.58" cy="250.49" r="2.5" fill="#2563eb"/>
  <circle cx="209.23" cy="250.03" r="2.5" fill="#2563eb"/>
  <circle cx="210.89" cy="200.04" r="2.5" fill="#2563eb"/>
  <circle cx="212.55" cy="300.01" r="2.5" fill="#2563eb"/>
  <circle cx="214.21" cy="250.03" r="2.5" fill="#2563eb"/>
  <circle cx="215.87" cy="300.01" r="2.5" fill="#2563eb"/>
  <circle cx="217.52" cy="250.11" r="2.5" fill="#2563eb"/>
  <circle cx="219.18" cy="300.01" r="2.5" fill="#2563eb"/>
  <circle cx="220.84" cy="250.03" r="2.5" fill="#2563eb"/>
  <circle cx="222.50" cy="250.03" r="2.5" fill="#2563eb"/>
  <circle cx="224.15" cy="199.92" r="2.5" fill="#2563eb"/>
  <circle cx="225.81" cy="250.03" r="2.5" fill="#2563eb"/>
  <circle cx="227.47" cy="250.03" r="2.5" fill="#2563eb"/>
  <circle cx="229.13" cy="250.03" r="2.5" fill="#2563eb"/>
  <circle cx="230.78" cy="254.36" r="2.5" fill="#2563eb"/>
  <circle cx="232.44" cy="300.01" r="2.5" fill="#2563eb"/>
  <circle cx="234.10" cy="299.97" r="2.5" fill="#2563eb"/>
  <circle cx="235.76" cy="250.36" r="2.5" fill="#2563eb"/>
  <circle cx="237.41" cy="299.97" r="2.5" fill="#2563eb"/>
  <circle cx="239.07" cy="250.03" r="2.5" fill="#2563eb"/>
  <circle cx="240.73" cy="250.03" r="2.5" fill="#2563eb"/>
  <circle cx="242.39" cy="250.03" r="2.5" fill="#2563eb"/>
  <circle cx="244.04" cy="250.03" r="2.5" fill="#2563eb"/>
  <circle cx="245.70" cy="249.99" r="2.5" fill="#2563eb"/>
  <circle cx="247.36" cy="200.00" r="2.5" fill="#2563eb"/>
  <circle cx="249.02" cy="299.93" r="2.5" fill="#2563eb"/>
  <circle cx="250.67" cy="300.01" r="2.5" fill="#2563eb"/>
  <circle cx="252.33" cy="299.97" r="2.5" fill="#2563eb"/>
  <circle cx="253.99" cy="249.94" r="2.5" fill="#2563eb"/>
  <circle cx="255.65" cy="249.99" r="2.5" fill="#2563eb"/>
  <circle cx="257.30" cy="249.82" r="2.5" fill="#2563eb"/>
  <circle cx="258.96" cy="249.94" r="2.5" fill="#2563eb"/>
  <circle cx="260.62" cy="250.28" r="2.5" fill="#2563eb"/>
  <circle cx="262.28" cy="207.00" r="2.5" fill="#2563eb"/>
  <circle cx="263.93" cy="250.03" r="2.5" fill="#2563eb"/>
  <circle cx="265.59" cy="250.32" r="2.5" fill="#2563eb"/>
  <circle cx="267.25" cy="250.40" r="2.5" fill="#2563eb"/>
  <circle cx="268.91" cy="300.93" r="2.5" fill="#2563eb"/>
  <circle cx="270.56" cy="300.01" r="2.5" fill="#2563eb"/>
  <circle cx="272.22" cy="300.10" r="2.5" fill="#2563eb"/>
  <circle cx="273.88" cy="249.94" r="2.5" fill="#2563eb"/>
  <circle cx="275.54" cy="249.99" r="2.5" fill="#2563eb"/>
  <circle cx="277.19" cy="250.07" r="2.5" fill="#2563eb"/>
  <circle cx="278.85" cy="249.99" r="2.5" fill="#2563eb"/>
  <circle cx="280.51" cy="250.03" r="2.5" fill="#2563eb"/>
  <circle cx="282.17" cy="249.94" r="2.5" fill="#2563eb"/>
  <circle cx="283.83" cy="200.00" r="2.5" fill="#2563eb"/>
  <circle cx="285.48" cy="300.39" r="2.5" fill="#2563eb"/>
  <circle cx="287.14" cy="300.01" r="2.5" fill="#2563eb"/>
  <circle cx="288.80" cy="300.01" r="2.5" fill="#2563eb"/>
  <circle cx="290.46" cy="250.44" r="2.5" fill="#2563eb"/>
  <circle cx="292.11" cy="300.39" r="2.5" fill="#2563eb"/>
  <circle cx="293.77" cy="249.86" r="2.5" fill="#2563eb"/>
  <circle cx="295.43" cy="250.11" r="2.5" fill="#2563eb"/>
  <circle cx="297.09" cy="201.46" r="2.5" fill="#2563eb"/>
  <circle cx="298.74" cy="300.01" r="2.5" fill="#2563eb"/>
  <circle cx="300.40" cy="200.83" r="2.5" fill="#2563eb"/>
  <circle cx="302.06" cy="250.03" r="2.5" fill="#2563eb"/>
  <circle cx="303.72" cy="249.99" r="2.5" fill="#2563eb"/>
  <circle cx="305.37" cy="300.26" r="2.5" fill="#2563eb"/>
  <circle cx="307.03" cy="300.01" r="2.5" fill="#2563eb"/>
  <circle cx="308.69" cy="300.01" r="2.5" fill="#2563eb"/>
  <circle cx="310.35" cy="250.03" r="2.5" fill="#2563eb"/>
  <circle cx="312.00" cy="250.03" r="2.5" fill="#2563eb"/>
  <circle cx="313.66" cy="250.03" r="2.5" fill="#2563eb"/>
  <circle cx="315.32" cy="250.03" r="2.5" fill="#2563eb"/>
  <circle cx="316.98" cy="249.99" r="2.5" fill="#2563eb"/>
  <circle cx="318.63" cy="250.03" r="2.5" fill="#2563eb"/>
  <circle cx="320.29" cy="200.00" r="2.5" fill="#2563eb"/>
  <circle cx="321.95" cy="300.26" r="2.5" fill="#2563eb"/>
  <circle cx="323.61" cy="249.99" r="2.5" fill="#2563eb"/>
  <circle cx="325.26" cy="300.01" r="2.5" fill="#2563eb"/>
  <circle cx="326.92" cy="249.94" r="2.5" fill="#2563eb"/>
  <circle cx="328.58" cy="250.03" r="2.5" fill="#2563eb"/>
  <circle cx="330.24" cy="250.03" r="2.5" fill="#2563eb"/>
  <circle cx="331.89" cy="250.03" r="2.5" fill="#2563eb"/>
  <circle cx="333.55" cy="200.04" r="2.5" fill="#2563eb"/>
  <circle cx="335.21" cy="300.01" r="2.5" fill="#2563eb"/>
  <circle cx="336.87" cy="249.90" r="2.5" fill="#2563eb"/>
  <circle cx="338.52" cy="300.01" r="2.5" fill="#2563eb"/>
  <circle cx="340.18" cy="300.01" r="2.5" fill="#2563eb"/>
  <circle cx="341.84" cy="300.06" r="2.5" fill="#2563eb"/>
  <circle cx="343.50" cy="300.01" r="2.5" fill="#2563eb"/>
  <circle cx="345.15" cy="300.01" r="2.5" fill="#2563eb"/>
  <circle cx="346.81" cy="243.95" r="2.5" fill="#2563eb"/>
  <circle cx="348.47" cy="249.94" r="2.5" fill="#2563eb"/>
  <circle cx="350.13" cy="299.97" r="2.5" fill="#2563eb"/>
  <circle cx="351.79" cy="300.01" r="2.5" fill="#2563eb"/>
  <circle cx="353.44" cy="300.01" r="2.5" fill="#2563eb"/>
  <circle cx="355.10" cy="250.03" r="2.5" fill="#2563eb"/>
  <circle cx="356.76" cy="300.01" r="2.5" fill="#2563eb"/>
  <circle cx="358.42" cy="300.01" r="2.5" fill="#2563eb"/>
  <circle cx="360.07" cy="299.97" r="2.5" fill="#2563eb"/>
  <circle cx="361.73" cy="249.99" r="2.5" fill="#2563eb"/>
  <circle cx="363.39" cy="300.01" r="2.5" fill="#2563eb"/>
  <circle cx="365.05" cy="299.93" r="2.5" fill="#2563eb"/>
  <circle cx="366.70" cy="300.01" r="2.5" fill="#2563eb"/>
  <circle cx="368.36" cy="299.93" r="2.5" fill="#2563eb"/>
  <circle cx="370.02" cy="300.01" r="2.5" fill="#2563eb"/>
  <circle cx="371.68" cy="300.01" r="2.5" fill="#2563eb"/>
  <circle cx="373.33" cy="299.89" r="2.5" fill="#2563eb"/>
  <circle cx="374.99" cy="299.97" r="2.5" fill="#2563eb"/>
  <circle cx="376.65" cy="250.03" r="2.5" fill="#2563eb"/>
  <circle cx="378.31" cy="299.93" r="2.5" fill="#2563eb"/>
  <circle cx="379.96" cy="299.89" r="2.5" fill="#2563eb"/>
  <circle cx="381.62" cy="299.97" r="2.5" fill="#2563eb"/>
  <circle cx="383.28" cy="249.94" r="2.5" fill="#2563eb"/>
  <circle cx="384.94" cy="300.01" r="2.5" fill="#2563eb"/>
  <circle cx="386.59" cy="300.01" r="2.5" fill="#2563eb"/>
  <circle cx="388.25" cy="299.97" r="2.5" fill="#2563eb"/>
  <circle cx="389.91" cy="249.99" r="2.5" fill="#2563eb"/>
  <circle cx="391.57" cy="299.97" r="2.5" fill="#2563eb"/>
  <circle cx="393.22" cy="299.97" r="2.5" fill="#2563eb"/>
  <circle cx="394.88" cy="300.06" r="2.5" fill="#2563eb"/>
  <circle cx="396.54" cy="300.06" r="2.5" fill="#2563eb"/>
  <circle cx="398.20" cy="299.93" r="2.5" fill="#2563eb"/>
  <circle cx="399.85" cy="300.01" r="2.5" fill="#2563eb"/>
  <circle cx="401.51" cy="300.01" r="2.5" fill="#2563eb"/>
  <circle cx="403.17" cy="299.93" r="2.5" fill="#2563eb"/>
  <circle cx="404.83" cy="300.01" r="2.5" fill="#2563eb"/>
  <circle cx="406.48" cy="300.01" r="2.5" fill="#2563eb"/>
  <circle cx="408.14" cy="299.97" r="2.5" fill="#2563eb"/>
  <circle cx="409.80" cy="300.01" r="2.5" fill="#2563eb"/>
  <circle cx="411.46" cy="300.01" r="2.5" fill="#2563eb"/>
  <circle cx="413.11" cy="300.01" r="2.5" fill="#2563eb"/>
  <circle cx="414.77" cy="300.01" r="2.5" fill="#2563eb"/>
  <circle cx="416.43" cy="249.86" r="2.5" fill="#2563eb"/>
  <circle cx="418.09" cy="300.01" r="2.5" fill="#2563eb"/>
  <circle cx="419.74" cy="300.10" r="2.5" fill="#2563eb"/>
  <circle cx="421.40" cy="299.93" r="2.5" fill="#2563eb"/>
  <circle cx="423.06" cy="300.01" r="2.5" fill="#2563eb"/>
  <circle cx="424.72" cy="299.93" r="2.5" fill="#2563eb"/>
  <circle cx="426.38" cy="300.01" r="2.5" fill="#2563eb"/>
  <circle cx="428.03" cy="300.01" r="2.5" fill="#2563eb"/>
  <circle cx="429.69" cy="300.01" r="2.5" fill="#2563eb"/>
  <circle cx="431.35" cy="300.01" r="2.5" fill="#2563eb"/>
  <circle cx="433.01" cy="300.01" r="2.5" fill="#2563eb"/>
  <circle cx="434.66" cy="299.97" r="2.5" fill="#2563eb"/>
  <circle cx="436.32" cy="300.01" r="2.5" fill="#2563eb"/>
  <circle cx="437.98" cy="300.01" r="2.5" fill="#2563eb"/>
  <circle cx="439.64" cy="300.01" r="2.5" fill="#2563eb"/>
  <circle cx="441.29" cy="300.01" r="2.5" fill="#2563eb"/>
  <circle cx="442.95" cy="250.03" r="2.5" fill="#2563eb"/>
  <circle cx="444.61" cy="300.01" r="2.5" fill="#2563eb"/>
  <circle cx="446.27" cy="300.01" r="2.5" fill="#2563eb"/>
  <circle cx="447.92" cy="299.97" r="2.5" fill="#2563eb"/>
  <circle cx="449.58" cy="300.01" r="2.5" fill="#2563eb"/>
  <circle cx="451.24" cy="300.01" r="2.5" fill="#2563eb"/>
  <circle cx="452.90" cy="299.97" r="2.5" fill="#2563eb"/>
  <circle cx="454.55" cy="299.97" r="2.5" fill="#2563eb"/>
  <circle cx="456.21" cy="300.01" r="2.5" fill="#2563eb"/>
  <circle cx="457.87" cy="299.97" r="2.5" fill="#2563eb"/>
  <circle cx="459.53" cy="300.01" r="2.5" fill="#2563eb"/>
  <circle cx="461.18" cy="299.93" r="2.5" fill="#2563eb"/>
  <circle cx="462.84" cy="300.01" r="2.5" fill="#2563eb"/>
  <circle cx="464.50" cy="250.03" r="2.5" fill="#2563eb"/>
  <circle cx="466.16" cy="300.01" r="2.5" fill="#2563eb"/>
  <circle cx="467.81" cy="300.01" r="2.5" fill="#2563eb"/>
  <circle cx="469.47" cy="300.01" r="2.5" fill="#2563eb"/>
  <circle cx="471.13" cy="300.01" r="2.5" fill="#2563eb"/>
  <circle cx="472.79" cy="300.01" r="2.5" fill="#2563eb"/>
  <circle cx="474.44" cy="299.89" r="2.5" fill="#2563eb"/>
  <circle cx="476.10" cy="300.01" r="2.5" fill="#2563eb"/>
  <circle cx="477.76" cy="300.01" r="2.5" fill="#2563eb"/>
  <circle cx="479.42" cy="250.07" r="2.5" fill="#2563eb"/>
  <circle cx="481.07" cy="300.01" r="2.5" fill="#2563eb"/>
  <circle cx="482.73" cy="299.93" r="2.5" fill="#2563eb"/>
  <circle cx="484.39" cy="300.01" r="2.5" fill="#2563eb"/>
  <circle cx="486.05" cy="299.97" r="2.5" fill="#2563eb"/>
  <circle cx="487.70" cy="299.97" r="2.5" fill="#2563eb"/>
  <circle cx="489.36" cy="299.97" r="2.5" fill="#2563eb"/>
  <circle cx="491.02" cy="250.03" r="2.5" fill="#2563eb"/>
  <circle cx="492.68" cy="300.01" r="2.5" fill="#2563eb"/>
  <circle cx="494.34" cy="300.01" r="2.5" fill="#2563eb"/>
  <circle cx="495.99" cy="300.01" r="2.5" fill="#2563eb"/>
  <circle cx="497.65" cy="300.01" r="2.5" fill="#2563eb"/>
  <circle cx="499.31" cy="299.97" r="2.5" fill="#2563eb"/>
  <circle cx="500.97" cy="300.01" r="2.5" fill="#2563eb"/>
  <circle cx="502.62" cy="299.97" r="2.5" fill="#2563eb"/>
  <circle cx="504.28" cy="300.01" r="2.5" fill="#2563eb"/>
  <circle cx="505.94" cy="299.97" r="2.5" fill="#2563eb"/>
  <circle cx="507.60" cy="249.90" r="2.5" fill="#2563eb"/>
  <circle cx="509.25" cy="300.01" r="2.5" fill="#2563eb"/>
  <circle cx="510.91" cy="300.01" r="2.5" fill="#2563eb"/>
  <circle cx="512.57" cy="299.89" r="2.5" fill="#2563eb"/>
  <circle cx="514.23" cy="299.97" r="2.5" fill="#2563eb"/>
  <circle cx="515.88" cy="299.97" r="2.5" fill="#2563eb"/>
  <circle cx="517.54" cy="249.99" r="2.5" fill="#2563eb"/>
  <circle cx="519.20" cy="299.97" r="2.5" fill="#2563eb"/>
  <circle cx="520.86" cy="299.89" r="2.5" fill="#2563eb"/>
  <circle cx="522.51" cy="300.01" r="2.5" fill="#2563eb"/>
  <circle cx="524.17" cy="299.97" r="2.5" fill="#2563eb"/>
  <circle cx="525.83" cy="299.97" r="2.5" fill="#2563eb"/>
  <circle cx="527.49" cy="300.01" r="2.5" fill="#2563eb"/>
  <circle cx="529.14" cy="299.97" r="2.5" fill="#2563eb"/>
  <circle cx="530.80" cy="249.99" r="2.5" fill="#2563eb"/>
  <circle cx="532.46" cy="299.97" r="2.5" fill="#2563eb"/>
  <circle cx="534.12" cy="299.97" r="2.5" fill="#2563eb"/>
  <circle cx="535.77" cy="300.06" r="2.5" fill="#2563eb"/>
  <circle cx="537.43" cy="300.06" r="2.5" fill="#2563eb"/>
  <circle cx="539.09" cy="249.94" r="2.5" fill="#2563eb"/>
  <circle cx="540.75" cy="300.01" r="2.5" fill="#2563eb"/>
  <circle cx="542.40" cy="299.93" r="2.5" fill="#2563eb"/>
  <circle cx="544.06" cy="300.01" r="2.5" fill="#2563eb"/>
  <circle cx="545.72" cy="300.01" r="2.5" fill="#2563eb"/>
  <circle cx="547.38" cy="249.99" r="2.5" fill="#2563eb"/>
  <circle cx="549.03" cy="300.01" r="2.5" fill="#2563eb"/>
  <circle cx="550.69" cy="300.01" r="2.5" fill="#2563eb"/>
  <circle cx="552.35" cy="300.01" r="2.5" fill="#2563eb"/>
  <circle cx="554.01" cy="299.93" r="2.5" fill="#2563eb"/>
  <circle cx="555.66" cy="299.93" r="2.5" fill="#2563eb"/>
  <circle cx="557.32" cy="300.01" r="2.5" fill="#2563eb"/>
  <circle cx="558.98" cy="300.01" r="2.5" fill="#2563eb"/>
  <circle cx="560.64" cy="249.94" r="2.5" fill="#2563eb"/>
  <circle cx="562.30" cy="299.97" r="2.5" fill="#2563eb"/>
  <circle cx="563.95" cy="299.97" r="2.5" fill="#2563eb"/>
  <circle cx="565.61" cy="300.01" r="2.5" fill="#2563eb"/>
  <circle cx="567.27" cy="300.01" r="2.5" fill="#2563eb"/>
  <circle cx="568.93" cy="300.01" r="2.5" fill="#2563eb"/>
  <circle cx="570.58" cy="249.99" r="2.5" fill="#2563eb"/>
  <circle cx="572.24" cy="300.01" r="2.5" fill="#2563eb"/>
  <circle cx="573.90" cy="300.01" r="2.5" fill="#2563eb"/>
  <circle cx="575.56" cy="300.01" r="2.5" fill="#2563eb"/>
  <circle cx="577.21" cy="250.03" r="2.5" fill="#2563eb"/>
  <circle cx="578.87" cy="300.01" r="2.5" fill="#2563eb"/>
  <circle cx="580.53" cy="300.01" r="2.5" fill="#2563eb"/>
  <circle cx="582.19" cy="300.01" r="2.5" fill="#2563eb"/>
  <circle cx="583.84" cy="299.97" r="2.5" fill="#2563eb"/>
  <circle cx="585.50" cy="300.01" r="2.5" fill="#2563eb"/>
  <circle cx="587.16" cy="300.01" r="2.5" fill="#2563eb"/>
  <circle cx="588.82" cy="299.97" r="2.5" fill="#2563eb"/>
  <circle cx="590.47" cy="299.97" r="2.5" fill="#2563eb"/>
  <circle cx="592.13" cy="300.01" r="2.5" fill="#2563eb"/>
  <circle cx="593.79" cy="300.01" r="2.5" fill="#2563eb"/>
  <circle cx="595.45" cy="299.97" r="2.5" fill="#2563eb"/>
  <circle cx="597.10" cy="299.93" r="2.5" fill="#2563eb"/>
  <circle cx="598.76" cy="300.01" r="2.5" fill="#2563eb"/>
  <circle cx="600.42" cy="300.06" r="2.5" fill="#2563eb"/>
  <circle cx="602.08" cy="299.97" r="2.5" fill="#2563eb"/>
  <circle cx="603.73" cy="300.01" r="2.5" fill="#2563eb"/>
  <circle cx="605.39" cy="250.03" r="2.5" fill="#2563eb"/>
  <circle cx="607.05" cy="250.03" r="2.5" fill="#2563eb"/>
  <circle cx="608.71" cy="299.93" r="2.5" fill="#2563eb"/>
  <circle cx="610.36" cy="299.97" r="2.5" fill="#2563eb"/>
  <circle cx="612.02" cy="300.01" r="2.5" fill="#2563eb"/>
  <circle cx="613.68" cy="300.01" r="2.5" fill="#2563eb"/>
  <circle cx="615.34" cy="300.06" r="2.5" fill="#2563eb"/>
  <circle cx="616.99" cy="300.01" r="2.5" fill="#2563eb"/>
  <circle cx="618.65" cy="299.93" r="2.5" fill="#2563eb"/>
  <circle cx="620.31" cy="300.01" r="2.5" fill="#2563eb"/>
  <circle cx="621.97" cy="300.01" r="2.5" fill="#2563eb"/>
  <circle cx="623.62" cy="299.97" r="2.5" fill="#2563eb"/>
  <circle cx="625.28" cy="299.97" r="2.5" fill="#2563eb"/>
  <circle cx="626.94" cy="300.01" r="2.5" fill="#2563eb"/>
  <circle cx="628.60" cy="250.03" r="2.5" fill="#2563eb"/>
  <circle cx="630.26" cy="300.01" r="2.5" fill="#2563eb"/>
  <circle cx="631.91" cy="300.01" r="2.5" fill="#2563eb"/>
  <circle cx="633.57" cy="300.01" r="2.5" fill="#2563eb"/>
  <circle cx="635.23" cy="299.97" r="2.5" fill="#2563eb"/>
  <circle cx="636.89" cy="300.01" r="2.5" fill="#2563eb"/>
  <circle cx="638.54" cy="299.97" r="2.5" fill="#2563eb"/>
  <circle cx="640.20" cy="300.01" r="2.5" fill="#2563eb"/>
  <circle cx="641.86" cy="299.97" r="2.5" fill="#2563eb"/>
  <circle cx="643.52" cy="299.97" r="2.5" fill="#2563eb"/>
  <circle cx="645.17" cy="299.93" r="2.5" fill="#2563eb"/>
  <circle cx="646.83" cy="300.01" r="2.5" fill="#2563eb"/>
  <circle cx="648.49" cy="300.01" r="2.5" fill="#2563eb"/>
  <circle cx="650.15" cy="299.89" r="2.5" fill="#2563eb"/>
  <circle cx="651.80" cy="299.97" r="2.5" fill="#2563eb"/>
  <circle cx="653.46" cy="299.97" r="2.5" fill="#2563eb"/>
  <circle cx="655.12" cy="300.06" r="2.5" fill="#2563eb"/>
  <circle cx="656.78" cy="249.90" r="2.5" fill="#2563eb"/>
  <circle cx="658.43" cy="299.89" r="2.5" fill="#2563eb"/>
  <circle cx="660.09" cy="300.01" r="2.5" fill="#2563eb"/>
  <circle cx="661.75" cy="299.97" r="2.5" fill="#2563eb"/>
  <circle cx="663.41" cy="299.97" r="2.5" fill="#2563eb"/>
  <circle cx="665.06" cy="299.97" r="2.5" fill="#2563eb"/>
  <circle cx="666.72" cy="300.01" r="2.5" fill="#2563eb"/>
  <circle cx="668.38" cy="300.01" r="2.5" fill="#2563eb"/>
  <circle cx="670.04" cy="299.97" r="2.5" fill="#2563eb"/>
  <circle cx="671.69" cy="299.97" r="2.5" fill="#2563eb"/>
  <circle cx="673.35" cy="299.97" r="2.5" fill="#2563eb"/>
  <circle cx="675.01" cy="250.03" r="2.5" fill="#2563eb"/>
  <circle cx="676.67" cy="299.93" r="2.5" fill="#2563eb"/>
  <circle cx="678.32" cy="300.01" r="2.5" fill="#2563eb"/>
  <circle cx="679.98" cy="300.01" r="2.5" fill="#2563eb"/>
  <circle cx="681.64" cy="299.93" r="2.5" fill="#2563eb"/>
  <circle cx="683.30" cy="300.01" r="2.5" fill="#2563eb"/>
  <circle cx="684.95" cy="300.01" r="2.5" fill="#2563eb"/>
  <circle cx="686.61" cy="299.97" r="2.5" fill="#2563eb"/>
  <circle cx="688.27" cy="300.01" r="2.5" fill="#2563eb"/>
  <circle cx="689.93" cy="300.01" r="2.5" fill="#2563eb"/>
  <circle cx="691.58" cy="300.06" r="2.5" fill="#2563eb"/>
  <circle cx="693.24" cy="300.01" r="2.5" fill="#2563eb"/>
  <circle cx="694.90" cy="299.97" r="2.5" fill="#2563eb"/>
  <circle cx="696.56" cy="299.89" r="2.5" fill="#2563eb"/>
  <circle cx="698.21" cy="300.01" r="2.5" fill="#2563eb"/>
  <circle cx="699.87" cy="300.01" r="2.5" fill="#2563eb"/>
  <circle cx="701.53" cy="249.94" r="2.5" fill="#2563eb"/>
  <circle cx="703.19" cy="249.94" r="2.5" fill="#2563eb"/>
  <circle cx="704.85" cy="300.01" r="2.5" fill="#2563eb"/>
  <circle cx="706.50" cy="300.01" r="2.5" fill="#2563eb"/>
  <circle cx="708.16" cy="300.01" r="2.5" fill="#2563eb"/>
  <circle cx="709.82" cy="300.01" r="2.5" fill="#2563eb"/>
  <circle cx="711.48" cy="299.97" r="2.5" fill="#2563eb"/>
  <circle cx="713.13" cy="250.03" r="2.5" fill="#2563eb"/>
  <circle cx="714.79" cy="300.01" r="2.5" fill="#2563eb"/>
  <circle cx="716.45" cy="300.01" r="2.5" fill="#2563eb"/>
  <circle cx="718.11" cy="300.01" r="2.5" fill="#2563eb"/>
  <circle cx="719.76" cy="300.01" r="2.5" fill="#2563eb"/>
  <circle cx="721.42" cy="250.03" r="2.5" fill="#2563eb"/>
  <circle cx="723.08" cy="249.99" r="2.5" fill="#2563eb"/>
  <circle cx="724.74" cy="300.01" r="2.5" fill="#2563eb"/>
  <circle cx="726.39" cy="299.97" r="2.5" fill="#2563eb"/>
  <circle cx="728.05" cy="300.01" r="2.5" fill="#2563eb"/>
  <circle cx="729.71" cy="299.97" r="2.5" fill="#2563eb"/>
  <circle cx="731.37" cy="300.01" r="2.5" fill="#2563eb"/>
  <circle cx="733.02" cy="299.97" r="2.5" fill="#2563eb"/>
  <circle cx="734.68" cy="299.97" r="2.5" fill="#2563eb"/>
  <circle cx="736.34" cy="299.97" r="2.5" fill="#2563eb"/>
  <circle cx="738.00" cy="300.06" r="2.5" fill="#2563eb"/>
  <circle cx="739.65" cy="249.99" r="2.5" fill="#2563eb"/>
  <circle cx="741.31" cy="300.01" r="2.5" fill="#2563eb"/>
  <circle cx="742.97" cy="250.03" r="2.5" fill="#2563eb"/>
  <circle cx="744.63" cy="249.94" r="2.5" fill="#2563eb"/>
  <circle cx="746.28" cy="249.99" r="2.5" fill="#2563eb"/>
  <circle cx="747.94" cy="300.01" r="2.5" fill="#2563eb"/>
  <circle cx="749.60" cy="300.06" r="2.5" fill="#2563eb"/>
  <circle cx="751.26" cy="300.01" r="2.5" fill="#2563eb"/>
  <circle cx="752.91" cy="299.97" r="2.5" fill="#2563eb"/>
  <circle cx="754.57" cy="299.97" r="2.5" fill="#2563eb"/>
  <circle cx="756.23" cy="300.01" r="2.5" fill="#2563eb"/>
  <circle cx="757.89" cy="299.93" r="2.5" fill="#2563eb"/>
  <circle cx="759.54" cy="299.89" r="2.5" fill="#2563eb"/>
  <circle cx="761.20" cy="299.89" r="2.5" fill="#2563eb"/>
  <circle cx="762.86" cy="299.89" r="2.5" fill="#2563eb"/>
  <circle cx="764.52" cy="299.89" r="2.5" fill="#2563eb"/>
  <circle cx="766.17" cy="299.85" r="2.5" fill="#2563eb"/>
  <circle cx="767.83" cy="299.85" r="2.5" fill="#2563eb"/>
  <circle cx="769.49" cy="299.89" r="2.5" fill="#2563eb"/>
  <circle cx="771.15" cy="299.81" r="2.5" fill="#2563eb"/>
  <circle cx="772.81" cy="299.81" r="2.5" fill="#2563eb"/>
  <circle cx="774.46" cy="299.81" r="2.5" fill="#2563eb"/>
  <circle cx="776.12" cy="299.76" r="2.5" fill="#2563eb"/>
  <circle cx="777.78" cy="299.76" r="2.5" fill="#2563eb"/>
  <circle cx="779.44" cy="299.76" r="2.5" fill="#2563eb"/>
  <circle cx="781.09" cy="299.72" r="2.5" fill="#2563eb"/>
  <circle cx="782.75" cy="299.68" r="2.5" fill="#2563eb"/>
  <circle cx="784.41" cy="299.60" r="2.5" fill="#2563eb"/>
  <circle cx="786.07" cy="299.60" r="2.5" fill="#2563eb"/>
  <circle cx="787.72" cy="299.60" r="2.5" fill="#2563eb"/>
  <circle cx="789.38" cy="299.56" r="2.5" fill="#2563eb"/>
  <circle cx="791.04" cy="299.47" r="2.5" fill="#2563eb"/>
  <circle cx="792.70" cy="299.43" r="2.5" fill="#2563eb"/>
  <circle cx="794.35" cy="299.43" r="2.5" fill="#2563eb"/>
  <circle cx="796.01" cy="299.39" r="2.5" fill="#2563eb"/>
  <circle cx="797.67" cy="299.47" r="2.5" fill="#2563eb"/>
  <circle cx="799.33" cy="259.82" r="2.5" fill="#2563eb"/>
  <circle cx="800.98" cy="338.96" r="2.5" fill="#2563eb"/>
  <circle cx="802.64" cy="299.31" r="2.5" fill="#2563eb"/>
  <circle cx="804.30" cy="299.31" r="2.5" fill="#2563eb"/>
  <circle cx="805.96" cy="299.26" r="2.5" fill="#2563eb"/>
  <circle cx="807.61" cy="299.68" r="2.5" fill="#2563eb"/>
  <circle cx="809.27" cy="299.68" r="2.5" fill="#2563eb"/>
  <circle cx="810.93" cy="299.68" r="2.5" fill="#2563eb"/>
  <circle cx="812.59" cy="299.64" r="2.5" fill="#2563eb"/>
  <circle cx="814.24" cy="299.14" r="2.5" fill="#2563eb"/>
  <circle cx="815.90" cy="299.14" r="2.5" fill="#2563eb"/>
  <circle cx="817.56" cy="299.10" r="2.5" fill="#2563eb"/>
  <circle cx="819.22" cy="299.10" r="2.5" fill="#2563eb"/>
  <circle cx="820.87" cy="299.10" r="2.5" fill="#2563eb"/>
  <circle cx="822.53" cy="248.07" r="2.5" fill="#2563eb"/>
  <circle cx="824.19" cy="299.06" r="2.5" fill="#2563eb"/>
  <circle cx="825.85" cy="299.06" r="2.5" fill="#2563eb"/>
  <circle cx="827.50" cy="299.06" r="2.5" fill="#2563eb"/>
  <circle cx="829.16" cy="299.06" r="2.5" fill="#2563eb"/>
  <circle cx="830.82" cy="299.06" r="2.5" fill="#2563eb"/>
  <circle cx="832.48" cy="298.97" r="2.5" fill="#2563eb"/>
  <circle cx="834.13" cy="298.97" r="2.5" fill="#2563eb"/>
  <circle cx="835.79" cy="298.93" r="2.5" fill="#2563eb"/>
  <circle cx="837.45" cy="298.97" r="2.5" fill="#2563eb"/>
  <circle cx="839.11" cy="298.93" r="2.5" fill="#2563eb"/>
  <circle cx="840.77" cy="298.89" r="2.5" fill="#2563eb"/>
  <circle cx="842.42" cy="298.89" r="2.5" fill="#2563eb"/>
  <circle cx="844.08" cy="298.89" r="2.5" fill="#2563eb"/>
  <circle cx="845.74" cy="298.89" r="2.5" fill="#2563eb"/>
  <circle cx="847.40" cy="247.78" r="2.5" fill="#2563eb"/>
  <circle cx="849.05" cy="298.89" r="2.5" fill="#2563eb"/>
  <circle cx="850.71" cy="298.89" r="2.5" fill="#2563eb"/>
  <circle cx="852.37" cy="298.85" r="2.5" fill="#2563eb"/>
  <circle cx="854.03" cy="298.85" r="2.5" fill="#2563eb"/>
  <circle cx="855.68" cy="298.81" r="2.5" fill="#2563eb"/>
  <circle cx="857.34" cy="298.81" r="2.5" fill="#2563eb"/>
  <circle cx="859.00" cy="298.81" r="2.5" fill="#2563eb"/>
  <circle cx="860.66" cy="298.81" r="2.5" fill="#2563eb"/>
  <circle cx="862.31" cy="298.81" r="2.5" fill="#2563eb"/>
  <circle cx="863.97" cy="298.81" r="2.5" fill="#2563eb"/>
  <circle cx="865.63" cy="298.81" r="2.5" fill="#2563eb"/>
  <circle cx="867.29" cy="298.81" r="2.5" fill="#2563eb"/>
  <circle cx="868.94" cy="298.81" r="2.5" fill="#2563eb"/>
  <circle cx="870.60" cy="298.72" r="2.5" fill="#2563eb"/>
  <circle cx="872.26" cy="247.45" r="2.5" fill="#2563eb"/>
  <circle cx="873.92" cy="247.45" r="2.5" fill="#2563eb"/>
  <circle cx="875.57" cy="298.72" r="2.5" fill="#2563eb"/>
  <circle cx="877.23" cy="298.72" r="2.5" fill="#2563eb"/>
  <circle cx="878.89" cy="298.72" r="2.5" fill="#2563eb"/>
  <circle cx="880.55" cy="298.72" r="2.5" fill="#2563eb"/>
  <circle cx="882.20" cy="298.72" r="2.5" fill="#2563eb"/>
  <circle cx="883.86" cy="298.72" r="2.5" fill="#2563eb"/>
  <circle cx="885.52" cy="247.36" r="2.5" fill="#2563eb"/>
  <circle cx="887.18" cy="298.68" r="2.5" fill="#2563eb"/>
  <circle cx="888.83" cy="247.36" r="2.5" fill="#2563eb"/>
  <circle cx="890.49" cy="247.36" r="2.5" fill="#2563eb"/>
  <circle cx="892.15" cy="247.36" r="2.5" fill="#2563eb"/>
  <circle cx="893.81" cy="298.68" r="2.5" fill="#2563eb"/>
  <circle cx="895.46" cy="298.68" r="2.5" fill="#2563eb"/>
  <circle cx="897.12" cy="298.68" r="2.5" fill="#2563eb"/>
  <circle cx="898.78" cy="298.68" r="2.5" fill="#2563eb"/>
  <circle cx="900.44" cy="298.68" r="2.5" fill="#2563eb"/>
  <circle cx="902.09" cy="341.67" r="2.5" fill="#2563eb"/>
  <circle cx="903.75" cy="307.01" r="2.5" fill="#2563eb"/>
  <circle cx="905.41" cy="298.68" r="2.5" fill="#2563eb"/>
  <circle cx="907.07" cy="298.68" r="2.5" fill="#2563eb"/>
  <circle cx="908.72" cy="298.68" r="2.5" fill="#2563eb"/>
  <circle cx="910.38" cy="247.36" r="2.5" fill="#2563eb"/>
  <circle cx="912.04" cy="298.64" r="2.5" fill="#2563eb"/>
  <circle cx="913.70" cy="247.36" r="2.5" fill="#2563eb"/>
  <circle cx="915.36" cy="247.28" r="2.5" fill="#2563eb"/>
  <circle cx="917.01" cy="247.20" r="2.5" fill="#2563eb"/>
  <circle cx="918.67" cy="298.60" r="2.5" fill="#2563eb"/>
  <circle cx="920.33" cy="298.60" r="2.5" fill="#2563eb"/>
  <circle cx="921.99" cy="247.03" r="2.5" fill="#2563eb"/>
  <circle cx="923.64" cy="298.51" r="2.5" fill="#2563eb"/>
  <circle cx="925.30" cy="298.51" r="2.5" fill="#2563eb"/>
  <circle cx="926.96" cy="298.51" r="2.5" fill="#2563eb"/>
  <circle cx="928.62" cy="298.51" r="2.5" fill="#2563eb"/>
  <circle cx="930.27" cy="298.51" r="2.5" fill="#2563eb"/>
  <circle cx="931.93" cy="298.51" r="2.5" fill="#2563eb"/>
  <circle cx="933.59" cy="298.51" r="2.5" fill="#2563eb"/>
  <circle cx="935.25" cy="298.51" r="2.5" fill="#2563eb"/>
  <circle cx="936.90" cy="298.51" r="2.5" fill="#2563eb"/>
  <circle cx="938.56" cy="298.51" r="2.5" fill="#2563eb"/>
  <circle cx="940.22" cy="298.51" r="2.5" fill="#2563eb"/>
  <circle cx="941.88" cy="298.51" r="2.5" fill="#2563eb"/>
  <circle cx="943.53" cy="298.51" r="2.5" fill="#2563eb"/>
  <circle cx="945.19" cy="298.51" r="2.5" fill="#2563eb"/>
  <circle cx="946.85" cy="298.51" r="2.5" fill="#2563eb"/>
  <circle cx="948.51" cy="298.51" r="2.5" fill="#2563eb"/>
  <circle cx="950.16" cy="298.51" r="2.5" fill="#2563eb"/>
  <circle cx="951.82" cy="298.51" r="2.5" fill="#2563eb"/>
  <circle cx="953.48" cy="298.51" r="2.5" fill="#2563eb"/>
  <circle cx="955.14" cy="298.51" r="2.5" fill="#2563eb"/>
  <circle cx="956.79" cy="298.51" r="2.5" fill="#2563eb"/>
  <circle cx="958.45" cy="298.51" r="2.5" fill="#2563eb"/>
  <circle cx="960.11" cy="298.51" r="2.5" fill="#2563eb"/>
  <circle cx="961.77" cy="298.51" r="2.5" fill="#2563eb"/>
  <circle cx="963.42" cy="298.51" r="2.5" fill="#2563eb"/>
  <circle cx="965.08" cy="298.51" r="2.5" fill="#2563eb"/>
  <circle cx="966.74" cy="298.47" r="2.5" fill="#2563eb"/>
  <circle cx="968.40" cy="298.51" r="2.5" fill="#2563eb"/>
  <circle cx="970.05" cy="298.51" r="2.5" fill="#2563eb"/>
  <circle cx="971.71" cy="298.47" r="2.5" fill="#2563eb"/>
  <circle cx="973.37" cy="298.51" r="2.5" fill="#2563eb"/>
  <circle cx="975.03" cy="298.47" r="2.5" fill="#2563eb"/>
  <circle cx="976.68" cy="298.51" r="2.5" fill="#2563eb"/>
  <circle cx="978.34" cy="298.43" r="2.5" fill="#2563eb"/>
  <circle cx="980.00" cy="298.56" r="2.5" fill="#2563eb"/>
</svg>
