<?xml version="1.0" encoding="UTF-8"?>
<svg xmlns="http://www.w3.org/2000/svg" width="1000" height="420" viewBox="0 0 1000 420">
  <rect width="100%" height="100%" fill="#ffffff"/>
  <text x="70" y="28" font-size="20" font-weight="600">수집 시점 기준 - 시간별 스냅샷</text>
  <text x="70" y="402" font-size="12" fill="#555">스냅샷 수</text>
  <line x1="70" y1="350.00" x2="980" y2="350.00" stroke="#e5e7eb" stroke-width="1"/>
  <text x="62" y="354.00" font-size="11" fill="#6b7280" text-anchor="end">0</text>
  <line x1="70" y1="290.00" x2="980" y2="290.00" stroke="#e5e7eb" stroke-width="1"/>
  <text x="62" y="294.00" font-size="11" fill="#6b7280" text-anchor="end">1,440</text>
  <line x1="70" y1="230.00" x2="980" y2="230.00" stroke="#e5e7eb" stroke-width="1"/>
  <text x="62" y="234.00" font-size="11" fill="#6b7280" text-anchor="end">2,880</text>
  <line x1="70" y1="170.00" x2="980" y2="170.00" stroke="#e5e7eb" stroke-width="1"/>
  <text x="62" y="174.00" font-size="11" fill="#6b7280" text-anchor="end">4,321</text>
  <line x1="70" y1="110.00" x2="980" y2="110.00" stroke="#e5e7eb" stroke-width="1"/>
  <text x="62" y="114.00" font-size="11" fill="#6b7280" text-anchor="end">5,761</text>
  <line x1="70" y1="50.00" x2="980" y2="50.00" stroke="#e5e7eb" stroke-width="1"/>
  <text x="62" y="54.00" font-size="11" fill="#6b7280" text-anchor="end">7,202</text>
  <line x1="70" y1="350" x2="980" y2="350" stroke="#111827" stroke-width="1.2"/>
  <line x1="70" y1="50" x2="70" y2="350" stroke="#111827" stroke-width="1.2"/>
  <line x1="70.00" y1="350" x2="70.00" y2="356" stroke="#9ca3af" stroke-width="1"/>
  <text x="70.00" y="372" font-size="10" fill="#6b7280" text-anchor="middle">2026-02-28 18</text>
  <line x1="144.82" y1="350" x2="144.82" y2="356" stroke="#9ca3af" stroke-width="1"/>
  <text x="144.82" y="372" font-size="10" fill="#6b7280" text-anchor="middle">2026-03-08 22</text>
  <line x1="219.64" y1="350" x2="219.64" y2="356" stroke="#9ca3af" stroke-width="1"/>
  <text x="219.64" y="372" font-size="10" fill="#6b7280" text-anchor="middle">2026-03-10 21</text>
  <line x1="294.46" y1="350" x2="294.46" y2="356" stroke="#9ca3af" stroke-width="1"/>
  <text x="294.46" y="372" font-size="10" fill="#6b7280" text-anchor="middle">2026-03-12 20</text>
  <line x1="369.27" y1="350" x2="369.27" y2="356" stroke="#9ca3af" stroke-width="1"/>
  <text x="369.27" y="372" font-size="10" fill="#6b7280" text-anchor="middle">2026-03-14 23</text>
  <line x1="444.09" y1="350" x2="444.09" y2="356" stroke="#9ca3af" stroke-width="1"/>
  <text x="444.09" y="372" font-size="10" fill="#6b7280" text-anchor="middle">2026-03-17 18</text>
  <line x1="518.91" y1="350" x2="518.91" y2="356" stroke="#9ca3af" stroke-width="1"/>
  <text x="518.91" y="372" font-size="10" fill="#6b7280" text-anchor="middle">2026-03-20 14</text>
  <line x1="593.73" y1="350" x2="593.73" y2="356" stroke="#9ca3af" stroke-width="1"/>
  <text x="593.73" y="372" font-size="10" fill="#6b7280" text-anchor="middle">2026-03-22 22</text>
  <line x1="668.55" y1="350" x2="668.55" y2="356" stroke="#9ca3af" stroke-width="1"/>
  <text x="668.55" y="372" font-size="10" fill="#6b7280" text-anchor="middle">2026-03-25 19</text>
  <line x1="743.37" y1="350" x2="743.37" y2="356" stroke="#9ca3af" stroke-width="1"/>
  <text x="743.37" y="372" font-size="10" fill="#6b7280" text-anchor="middle">2026-03-28 18</text>
  <line x1="818.18" y1="350" x2="818.18" y2="356" stroke="#9ca3af" stroke-width="1"/>
  <text x="818.18" y="372" font-size="10" fill="#6b7280" text-anchor="middle">2026-03-31 16</text>
  <line x1="893.00" y1="350" x2="893.00" y2="356" stroke="#9ca3af" stroke-width="1"/>
  <text x="893.00" y="372" font-size="10" fill="#6b7280" text-anchor="middle">2026-04-03 18</text>
  <line x1="967.82" y1="350" x2="967.82" y2="356" stroke="#9ca3af" stroke-width="1"/>
  <text x="967.82" y="372" font-size="10" fill="#6b7280" text-anchor="middle">2026-04-06 15</text>
  <line x1="980.00" y1="350" x2="980.00" y2="356" stroke="#9ca3af" stroke-width="1"/>
  <text x="980.00" y="372" font-size="10" fill="#6b7280" text-anchor="middle">2026-04-07 01</text>
  <polyline fill="none" stroke="#2563eb" stroke-width="2.5" points="70.00,50.00 71.74,50.12 73.48,50.17 75.22,50.46 76.96,50.00 78.70,266.90 80.44,50.12 82.18,50.08 83.92,177.46 85.66,211.58 87.40,175.34 89.14,304.14 90.88,200.46 92.62,250.94 94.36,300.01 96.10,300.06 97.84,300.01 99.58,300.01 101.32,348.00 103.06,300.01 104.80,249.99 106.54,200.00 108.28,249.99 110.02,249.99 111.76,250.03 113.50,250.03 115.24,250.03 116.98,250.40 118.72,250.90 120.46,250.90 122.20,251.32 123.94,249.94 125.68,300.01 127.42,299.93 129.16,251.03 130.90,300.68 132.64,250.03 134.38,200.00 136.12,249.99 137.86,250.03 139.60,250.03 141.34,250.03 143.08,300.01 144.82,200.04 146.56,250.03 148.30,250.03 150.04,250.03 151.78,249.90 153.52,250.03 155.26,250.03 157.00,250.94 158.74,250.44 160.48,250.03 162.22,250.03 163.96,300.47 165.70,300.01 167.44,300.43 169.18,250.03 170.92,249.99 172.66,300.43 174.40,249.90 176.14,249.99 177.88,249.99 179.62,200.04 181.36,300.01 183.10,300.01 184.84,300.01 186.58,249.90 188.32,300.01 190.06,250.03 191.80,249.99 193.54,199.96 195.28,300.01 197.02,200.00 198.76,250.36 200.50,250.03 202.24,300.01 203.98,300.01 205.72,250.44 207.46,300.01 209.20,250.03 210.94,250.03 212.68,249.99 214.42,250.49 216.16,250.03 217.90,200.04 219.64,300.01 221.38,250.03 223.12,300.01 224.86,250.11 226.60,300.01 228.34,250.03 230.08,250.03 231.82,199.92 233.56,250.03 235.30,250.03 237.04,250.03 238.78,254.36 240.52,300.01 242.26,299.97 244.00,250.36 245.74,299.97 247.48,250.03 249.22,250.03 250.96,250.03 252.70,250.03 254.44,249.99 256.18,200.00 257.92,299.93 259.66,300.01 261.40,299.97 263.14,249.94 264.88,249.99 266.62,249.82 268.36,249.94 270.10,250.28 271.84,207.00 273.58,250.03 275.32,250.32 277.06,250.40 278.80,300.93 280.54,300.01 282.28,300.10 284.02,249.94 285.76,249.99 287.50,250.07 289.24,249.99 290.98,250.03 292.72,249.94 294.46,200.00 296.20,300.39 297.93,300.01 299.67,300.01 301.41,250.44 303.15,300.39 304.89,249.86 306.63,250.11 308.37,201.46 310.11,300.01 311.85,200.83 313.59,250.03 315.33,249.99 317.07,300.26 318.81,300.01 320.55,300.01 322.29,250.03 324.03,250.03 325.77,250.03 327.51,250.03 329.25,249.99 330.99,250.03 332.73,200.00 334.47,300.26 336.21,249.99 337.95,300.01 339.69,249.94 341.43,250.03 343.17,250.03 344.91,250.03 346.65,200.04 348.39,300.01 350.13,249.90 351.87,300.01 353.61,300.01 355.35,300.06 357.09,300.01 358.83,300.01 360.57,243.95 362.31,249.94 364.05,299.97 365.79,300.01 367.53,300.01 369.27,250.03 371.01,300.01 372.75,300.01 374.49,299.97 376.23,249.99 377.97,300.01 379.71,299.93 381.45,300.01 383.19,299.93 384.93,300.01 386.67,300.01 388.41,299.89 390.15,299.97 391.89,250.03 393.63,299.93 395.37,299.89 397.11,299.97 398.85,249.94 400.59,300.01 402.33,300.01 404.07,299.97 405.81,249.99 407.55,299.97 409.29,299.97 411.03,300.06 412.77,300.06 414.51,299.93 416.25,300.01 417.99,300.01 419.73,299.93 421.47,300.01 423.21,300.01 424.95,299.97 426.69,300.01 428.43,300.01 430.17,300.01 431.91,300.01 433.65,249.86 435.39,300.01 437.13,300.10 438.87,299.93 440.61,300.01 442.35,299.93 444.09,300.01 445.83,300.01 447.57,300.01 449.31,300.01 451.05,300.01 452.79,299.97 454.53,300.01 456.27,300.01 458.01,300.01 459.75,300.01 461.49,250.03 463.23,300.01 464.97,300.01 466.71,299.97 468.45,300.01 470.19,300.01 471.93,299.97 473.67,299.97 475.41,300.01 477.15,299.97 478.89,300.01 480.63,299.93 482.37,300.01 484.11,250.03 485.85,300.01 487.59,300.01 489.33,300.01 491.07,300.01 492.81,300.01 494.55,299.89 496.29,300.01 498.03,300.01 499.77,250.07 501.51,300.01 503.25,299.93 504.99,300.01 506.73,299.97 508.47,299.97 510.21,299.97 511.95,250.03 513.69,300.01 515.43,300.01 517.17,300.01 518.91,300.01 520.65,299.97 522.39,300.01 524.13,299.97 525.87,300.01 527.61,299.97 529.35,249.90 531.09,300.01 532.83,300.01 534.57,299.89 536.31,299.97 538.05,299.97 539.79,249.99 541.53,299.97 543.27,299.89 545.01,300.01 546.75,299.97 548.49,299.97 550.23,300.01 551.97,299.97 553.71,249.99 555.45,299.97 557.19,299.97 558.93,300.06 560.67,300.06 562.41,249.94 564.15,300.01 565.89,299.93 567.63,300.01 569.37,300.01 571.11,249.99 572.85,300.01 574.59,300.01 576.33,300.01 578.07,299.93 579.81,299.93 581.55,300.01 583.29,300.01 585.03,249.94 586.77,299.97 588.51,299.97 590.25,300.01 591.99,300.01 593.73,300.01 595.47,249.99 597.21,300.01 598.95,300.01 600.69,300.01 602.43,250.03 604.17,300.01 605.91,300.01 607.65,300.01 609.39,299.97 611.13,300.01 612.87,300.01 614.61,299.97 616.35,299.97 618.09,300.01 619.83,300.01 621.57,299.97 623.31,299.93 625.05,300.01 626.79,300.06 628.53,299.97 630.27,300.01 632.01,250.03 633.75,250.03 635.49,299.93 637.23,299.97 638.97,300.01 640.71,300.01 642.45,300.06 644.19,300.01 645.93,299.93 647.67,300.01 649.41,300.01 651.15,299.97 652.89,299.97 654.63,300.01 656.37,250.03 658.11,300.01 659.85,300.01 661.59,300.01 663.33,299.97 665.07,300.01 666.81,299.97 668.55,300.01 670.29,299.97 672.03,299.97 673.77,299.93 675.51,300.01 677.25,300.01 678.99,299.89 680.73,299.97 682.47,299.97 684.21,300.06 685.95,249.90 687.69,299.89 689.43,300.01 691.17,299.97 692.91,299.97 694.65,299.97 696.39,300.01 698.13,300.01 699.87,299.97 701.61,299.97 703.35,299.97 705.09,250.03 706.83,299.93 708.57,300.01 710.31,300.01 712.05,299.93 713.79,300.01 715.53,300.01 717.27,299.97 719.01,300.01 720.75,300.01 722.49,300.06 724.23,300.01 725.97,299.97 727.71,299.89 729.45,300.01 731.19,300.01 732.93,249.94 734.67,249.94 736.41,300.01 738.15,300.01 739.89,300.01 741.63,300.01 743.37,299.97 745.11,250.03 746.85,300.01 748.59,300.01 750.33,300.01 752.07,300.01 753.80,250.03 755.54,249.99 757.28,300.01 759.02,299.97 760.76,300.01 762.50,299.97 764.24,300.01 765.98,299.97 767.72,299.97 769.46,299.97 771.20,300.06 772.94,249.99 774.68,300.01 776.42,250.03 778.16,249.94 779.90,249.99 781.64,300.01 783.38,300.06 785.12,300.01 786.86,299.97 788.60,299.97 790.34,300.01 792.08,299.93 793.82,299.89 795.56,299.89 797.30,299.89 799.04,299.89 800.78,299.85 802.52,299.85 804.26,299.89 806.00,299.81 807.74,299.81 809.48,299.81 811.22,299.76 812.96,299.76 814.70,299.76 816.44,299.72 818.18,299.68 819.92,299.60 821.66,299.60 823.40,299.60 825.14,299.56 826.88,299.47 828.62,299.43 830.36,299.43 832.10,299.39 833.84,299.47 835.58,259.82 837.32,338.96 839.06,299.31 840.80,299.31 842.54,299.26 844.28,299.68 846.02,299.68 847.76,299.68 849.50,299.64 851.24,299.14 852.98,299.14 854.72,299.10 856.46,299.10 858.20,299.10 859.94,248.07 861.68,299.06 863.42,299.06 865.16,299.06 866.90,299.06 868.64,299.06 870.38,298.97 872.12,298.97 873.86,298.93 875.60,298.97 877.34,298.93 879.08,298.89 880.82,298.89 882.56,298.89 884.30,298.89 886.04,247.78 887.78,298.89 889.52,298.89 891.26,298.85 893.00,298.85 894.74,298.81 896.48,298.81 898.22,298.81 899.96,298.81 901.70,298.81 903.44,298.81 905.18,298.81 906.92,298.81 908.66,298.81 910.40,298.72 912.14,247.45 913.88,247.45 915.62,298.72 917.36,298.72 919.10,298.72 920.84,298.72 922.58,298.72 924.32,298.72 926.06,247.36 927.80,298.68 929.54,247.36 931.28,247.36 933.02,247.36 934.76,298.68 936.50,298.68 938.24,298.68 939.98,298.68 941.72,298.68 943.46,341.67 945.20,307.01 946.94,298.68 948.68,298.68 950.42,298.68 952.16,247.36 953.90,298.64 955.64,247.36 957.38,247.28 959.12,247.20 960.86,298.60 962.60,298.60 964.34,247.03 966.08,298.51 967.82,298.51 969.56,298.51 971.30,298.51 973.04,298.51 974.78,298.51 976.52,298.51 978.26,298.51 980.00,298.51"/>
  <circle cx="70.00" cy="50.00" r="2.5" fill="#2563eb"/>
  <circle cx="71.74" cy="50.12" r="2.5" fill="#2563eb"/>
  <circle cx="73.48" cy="50.17" r="2.5" fill="#2563eb"/>
  <circle cx="75.22" cy="50.46" r="2.5" fill="#2563eb"/>
  <circle cx="76.96" cy="50.00" r="2.5" fill="#2563eb"/>
  <circle cx="78.70" cy="266.90" r="2.5" fill="#2563eb"/>
  <circle cx="80.44" cy="50.12" r="2.5" fill="#2563eb"/>
  <circle cx="82.18" cy="50.08" r="2.5" fill="#2563eb"/>
  <circle cx="83.92" cy="177.46" r="2.5" fill="#2563eb"/>
  <circle cx="85.66" cy="211.58" r="2.5" fill="#2563eb"/>
  <circle cx="87.40" cy="175.34" r="2.5" fill="#2563eb"/>
  <circle cx="89.14" cy="304.14" r="2.5" fill="#2563eb"/>
  <circle cx="90.88" cy="200.46" r="2.5" fill="#2563eb"/>
  <circle cx="92.62" cy="250.94" r="2.5" fill="#2563eb"/>
  <circle cx="94.36" cy="300.01" r="2.5" fill="#2563eb"/>
  <circle cx="96.10" cy="300.06" r="2.5" fill="#2563eb"/>
  <circle cx="97.84" cy="300.01" r="2.5" fill="#2563eb"/>
  <circle cx="99.58" cy="300.01" r="2.5" fill="#2563eb"/>
  <circle cx="101.32" cy="348.00" r="2.5" fill="#2563eb"/>
  <circle cx="103.06" cy="300.01" r="2.5" fill="#2563eb"/>
  <circle cx="104.80" cy="249.99" r="2.5" fill="#2563eb"/>
  <circle cx="106.54" cy="200.00" r="2.5" fill="#2563eb"/>
  <circle cx="108.28" cy="249.99" r="2.5" fill="#2563eb"/>
  <circle cx="110.02" cy="249.99" r="2.5" fill="#2563eb"/>
  <circle cx="111.76" cy="250.03" r="2.5" fill="#2563eb"/>
  <circle cx="113.50" cy="250.03" r="2.5" fill="#2563eb"/>
  <circle cx="115.24" cy="250.03" r="2.5" fill="#2563eb"/>
  <circle cx="116.98" cy="250.40" r="2.5" fill="#2563eb"/>
  <circle cx="118.72" cy="250.90" r="2.5" fill="#2563eb"/>
  <circle cx="120.46" cy="250.90" r="2.5" fill="#2563eb"/>
  <circle cx="122.20" cy="251.32" r="2.5" fill="#2563eb"/>
  <circle cx="123.94" cy="249.94" r="2.5" fill="#2563eb"/>
  <circle cx="125.68" cy="300.01" r="2.5" fill="#2563eb"/>
  <circle cx="127.42" cy="299.93" r="2.5" fill="#2563eb"/>
  <circle cx="129.16" cy="251.03" r="2.5" fill="#2563eb"/>
  <circle cx="130.90" cy="300.68" r="2.5" fill="#2563eb"/>
  <circle cx="132.64" cy="250.03" r="2.5" fill="#2563eb"/>
  <circle cx="134.38" cy="200.00" r="2.5" fill="#2563eb"/>
  <circle cx="136.12" cy="249.99" r="2.5" fill="#2563eb"/>
  <circle cx="137.86" cy="250.03" r="2.5" fill="#2563eb"/>
  <circle cx="139.60" cy="250.03" r="2.5" fill="#2563eb"/>
  <circle cx="141.34" cy="250.03" r="2.5" fill="#2563eb"/>
  <circle cx="143.08" cy="300.01" r="2.5" fill="#2563eb"/>
  <circle cx="144.82" cy="200.04" r="2.5" fill="#2563eb"/>
  <circle cx="146.56" cy="250.03" r="2.5" fill="#2563eb"/>
  <circle cx="148.30" cy="250.03" r="2.5" fill="#2563eb"/>
  <circle cx="150.04" cy="250.03" r="2.5" fill="#2563eb"/>
  <circle cx="151.78" cy="249.90" r="2.5" fill="#2563eb"/>
  <circle cx="153.52" cy="250.03" r="2.5" fill="#2563eb"/>
  <circle cx="155.26" cy="250.03" r="2.5" fill="#2563eb"/>
  <circle cx="157.00" cy="250.94" r="2.5" fill="#2563eb"/>
  <circle cx="158.74" cy="250.44" r="2.5" fill="#2563eb"/>
  <circle cx="160.48" cy="250.03" r="2.5" fill="#2563eb"/>
  <circle cx="162.22" cy="250.03" r="2.5" fill="#2563eb"/>
  <circle cx="163.96" cy="300.47" r="2.5" fill="#2563eb"/>
  <circle cx="165.70" cy="300.01" r="2.5" fill="#2563eb"/>
  <circle cx="167.44" cy="300.43" r="2.5" fill="#2563eb"/>
  <circle cx="169.18" cy="250.03" r="2.5" fill="#2563eb"/>
  <circle cx="170.92" cy="249.99" r="2.5" fill="#2563eb"/>
  <circle cx="172.66" cy="300.43" r="2.5" fill="#2563eb"/>
  <circle cx="174.40" cy="249.90" r="2.5" fill="#2563eb"/>
  <circle cx="176.14" cy="249.99" r="2.5" fill="#2563eb"/>
  <circle cx="177.88" cy="249.99" r="2.5" fill="#2563eb"/>
  <circle cx="179.62" cy="200.04" r="2.5" fill="#2563eb"/>
  <circle cx="181.36" cy="300.01" r="2.5" fill="#2563eb"/>
  <circle cx="183.10" cy="300.01" r="2.5" fill="#2563eb"/>
  <circle cx="184.84" cy="300.01" r="2.5" fill="#2563eb"/>
  <circle cx="186.58" cy="249.90" r="2.5" fill="#2563eb"/>
  <circle cx="188.32" cy="300.01" r="2.5" fill="#2563eb"/>
  <circle cx="190.06" cy="250.03" r="2.5" fill="#2563eb"/>
  <circle cx="191.80" cy="249.99" r="2.5" fill="#2563eb"/>
  <circle cx="193.54" cy="199.96" r="2.5" fill="#2563eb"/>
  <circle cx="195.28" cy="300.01" r="2.5" fill="#2563eb"/>
  <circle cx="197.02" cy="200.00" r="2.5" fill="#2563eb"/>
  <circle cx="198.76" cy="250.36" r="2.5" fill="#2563eb"/>
  <circle cx="200.50" cy="250.03" r="2.5" fill="#2563eb"/>
  <circle cx="202.24" cy="300.01" r="2.5" fill="#2563eb"/>
  <circle cx="203.98" cy="300.01" r="2.5" fill="#2563eb"/>
  <circle cx="205.72" cy="250.44" r="2.5" fill="#2563eb"/>
  <circle cx="207.46" cy="300.01" r="2.5" fill="#2563eb"/>
  <circle cx="209.20" cy="250.03" r="2.5" fill="#2563eb"/>
  <circle cx="210.94" cy="250.03" r="2.5" fill="#2563eb"/>
  <circle cx="212.68" cy="249.99" r="2.5" fill="#2563eb"/>
  <circle cx="214.42" cy="250.49" r="2.5" fill="#2563eb"/>
  <circle cx="216.16" cy="250.03" r="2.5" fill="#2563eb"/>
  <circle cx="217.90" cy="200.04" r="2.5" fill="#2563eb"/>
  <circle cx="219.64" cy="300.01" r="2.5" fill="#2563eb"/>
  <circle cx="221.38" cy="250.03" r="2.5" fill="#2563eb"/>
  <circle cx="223.12" cy="300.01" r="2.5" fill="#2563eb"/>
  <circle cx="224.86" cy="250.11" r="2.5" fill="#2563eb"/>
  <circle cx="226.60" cy="300.01" r="2.5" fill="#2563eb"/>
  <circle cx="228.34" cy="250.03" r="2.5" fill="#2563eb"/>
  <circle cx="230.08" cy="250.03" r="2.5" fill="#2563eb"/>
  <circle cx="231.82" cy="199.92" r="2.5" fill="#2563eb"/>
  <circle cx="233.56" cy="250.03" r="2.5" fill="#2563eb"/>
  <circle cx="235.30" cy="250.03" r="2.5" fill="#2563eb"/>
  <circle cx="237.04" cy="250.03" r="2.5" fill="#2563eb"/>
  <circle cx="238.78" cy="254.36" r="2.5" fill="#2563eb"/>
  <circle cx="240.52" cy="300.01" r="2.5" fill="#2563eb"/>
  <circle cx="242.26" cy="299.97" r="2.5" fill="#2563eb"/>
  <circle cx="244.00" cy="250.36" r="2.5" fill="#2563eb"/>
  <circle cx="245.74" cy="299.97" r="2.5" fill="#2563eb"/>
  <circle cx="247.48" cy="250.03" r="2.5" fill="#2563eb"/>
  <circle cx="249.22" cy="250.03" r="2.5" fill="#2563eb"/>
  <circle cx="250.96" cy="250.03" r="2.5" fill="#2563eb"/>
  <circle cx="252.70" cy="250.03" r="2.5" fill="#2563eb"/>
  <circle cx="254.44" cy="249.99" r="2.5" fill="#2563eb"/>
  <circle cx="256.18" cy="200.00" r="2.5" fill="#2563eb"/>
  <circle cx="257.92" cy="299.93" r="2.5" fill="#2563eb"/>
  <circle cx="259.66" cy="300.01" r="2.5" fill="#2563eb"/>
  <circle cx="261.40" cy="299.97" r="2.5" fill="#2563eb"/>
  <circle cx="263.14" cy="249.94" r="2.5" fill="#2563eb"/>
  <circle cx="264.88" cy="249.99" r="2.5" fill="#2563eb"/>
  <circle cx="266.62" cy="249.82" r="2.5" fill="#2563eb"/>
  <circle cx="268.36" cy="249.94" r="2.5" fill="#2563eb"/>
  <circle cx="270.10" cy="250.28" r="2.5" fill="#2563eb"/>
  <circle cx="271.84" cy="207.00" r="2.5" fill="#2563eb"/>
  <circle cx="273.58" cy="250.03" r="2.5" fill="#2563eb"/>
  <circle cx="275.32" cy="250.32" r="2.5" fill="#2563eb"/>
  <circle cx="277.06" cy="250.40" r="2.5" fill="#2563eb"/>
  <circle cx="278.80" cy="300.93" r="2.5" fill="#2563eb"/>
  <circle cx="280.54" cy="300.01" r="2.5" fill="#2563eb"/>
  <circle cx="282.28" cy="300.10" r="2.5" fill="#2563eb"/>
  <circle cx="284.02" cy="249.94" r="2.5" fill="#2563eb"/>
  <circle cx="285.76" cy="249.99" r="2.5" fill="#2563eb"/>
  <circle cx="287.50" cy="250.07" r="2.5" fill="#2563eb"/>
  <circle cx="289.24" cy="249.99" r="2.5" fill="#2563eb"/>
  <circle cx="290.98" cy="250.03" r="2.5" fill="#2563eb"/>
  <circle cx="292.72" cy="249.94" r="2.5" fill="#2563eb"/>
  <circle cx="294.46" cy="200.00" r="2.5" fill="#2563eb"/>
  <circle cx="296.20" cy="300.39" r="2.5" fill="#2563eb"/>
  <circle cx="297.93" cy="300.01" r="2.5" fill="#2563eb"/>
  <circle cx="299.67" cy="300.01" r="2.5" fill="#2563eb"/>
  <circle cx="301.41" cy="250.44" r="2.5" fill="#2563eb"/>
  <circle cx="303.15" cy="300.39" r="2.5" fill="#2563eb"/>
  <circle cx="304.89" cy="249.86" r="2.5" fill="#2563eb"/>
  <circle cx="306.63" cy="250.11" r="2.5" fill="#2563eb"/>
  <circle cx="308.37" cy="201.46" r="2.5" fill="#2563eb"/>
  <circle cx="310.11" cy="300.01" r="2.5" fill="#2563eb"/>
  <circle cx="311.85" cy="200.83" r="2.5" fill="#2563eb"/>
  <circle cx="313.59" cy="250.03" r="2.5" fill="#2563eb"/>
  <circle cx="315.33" cy="249.99" r="2.5" fill="#2563eb"/>
  <circle cx="317.07" cy="300.26" r="2.5" fill="#2563eb"/>
  <circle cx="318.81" cy="300.01" r="2.5" fill="#2563eb"/>
  <circle cx="320.55" cy="300.01" r="2.5" fill="#2563eb"/>
  <circle cx="322.29" cy="250.03" r="2.5" fill="#2563eb"/>
  <circle cx="324.03" cy="250.03" r="2.5" fill="#2563eb"/>
  <circle cx="325.77" cy="250.03" r="2.5" fill="#2563eb"/>
  <circle cx="327.51" cy="250.03" r="2.5" fill="#2563eb"/>
  <circle cx="329.25" cy="249.99" r="2.5" fill="#2563eb"/>
  <circle cx="330.99" cy="250.03" r="2.5" fill="#2563eb"/>
  <circle cx="332.73" cy="200.00" r="2.5" fill="#2563eb"/>
  <circle cx="334.47" cy="300.26" r="2.5" fill="#2563eb"/>
  <circle cx="336.21" cy="249.99" r="2.5" fill="#2563eb"/>
  <circle cx="337.95" cy="300.01" r="2.5" fill="#2563eb"/>
  <circle cx="339.69" cy="249.94" r="2.5" fill="#2563eb"/>
  <circle cx="341.43" cy="250.03" r="2.5" fill="#2563eb"/>
  <circle cx="343.17" cy="250.03" r="2.5" fill="#2563eb"/>
  <circle cx="344.91" cy="250.03" r="2.5" fill="#2563eb"/>
  <circle cx="346.65" cy="200.04" r="2.5" fill="#2563eb"/>
  <circle cx="348.39" cy="300.01" r="2.5" fill="#2563eb"/>
  <circle cx="350.13" cy="249.90" r="2.5" fill="#2563eb"/>
  <circle cx="351.87" cy="300.01" r="2.5" fill="#2563eb"/>
  <circle cx="353.61" cy="300.01" r="2.5" fill="#2563eb"/>
  <circle cx="355.35" cy="300.06" r="2.5" fill="#2563eb"/>
  <circle cx="357.09" cy="300.01" r="2.5" fill="#2563eb"/>
  <circle cx="358.83" cy="300.01" r="2.5" fill="#2563eb"/>
  <circle cx="360.57" cy="243.95" r="2.5" fill="#2563eb"/>
  <circle cx="362.31" cy="249.94" r="2.5" fill="#2563eb"/>
  <circle cx="364.05" cy="299.97" r="2.5" fill="#2563eb"/>
  <circle cx="365.79" cy="300.01" r="2.5" fill="#2563eb"/>
  <circle cx="367.53" cy="300.01" r="2.5" fill="#2563eb"/>
  <circle cx="369.27" cy="250.03" r="2.5" fill="#2563eb"/>
  <circle cx="371.01" cy="300.01" r="2.5" fill="#2563eb"/>
  <circle cx="372.75" cy="300.01" r="2.5" fill="#2563eb"/>
  <circle cx="374.49" cy="299.97" r="2.5" fill="#2563eb"/>
  <circle cx="376.23" cy="249.99" r="2.5" fill="#2563eb"/>
  <circle cx="377.97" cy="300.01" r="2.5" fill="#2563eb"/>
  <circle cx="379.71" cy="299.93" r="2.5" fill="#2563eb"/>
  <circle cx="381.45" cy="300.01" r="2.5" fill="#2563eb"/>
  <circle cx="383.19" cy="299.93" r="2.5" fill="#2563eb"/>
  <circle cx="384.93" cy="300.01" r="2.5" fill="#2563eb"/>
  <circle cx="386.67" cy="300.01" r="2.5" fill="#2563eb"/>
  <circle cx="388.41" cy="299.89" r="2.5" fill="#2563eb"/>
  <circle cx="390.15" cy="299.97" r="2.5" fill="#2563eb"/>
  <circle cx="391.89" cy="250.03" r="2.5" fill="#2563eb"/>
  <circle cx="393.63" cy="299.93" r="2.5" fill="#2563eb"/>
  <circle cx="395.37" cy="299.89" r="2.5" fill="#2563eb"/>
  <circle cx="397.11" cy="299.97" r="2.5" fill="#2563eb"/>
  <circle cx="398.85" cy="249.94" r="2.5" fill="#2563eb"/>
  <circle cx="400.59" cy="300.01" r="2.5" fill="#2563eb"/>
  <circle cx="402.33" cy="300.01" r="2.5" fill="#2563eb"/>
  <circle cx="404.07" cy="299.97" r="2.5" fill="#2563eb"/>
  <circle cx="405.81" cy="249.99" r="2.5" fill="#2563eb"/>
  <circle cx="407.55" cy="299.97" r="2.5" fill="#2563eb"/>
  <circle cx="409.29" cy="299.97" r="2.5" fill="#2563eb"/>
  <circle cx="411.03" cy="300.06" r="2.5" fill="#2563eb"/>
  <circle cx="412.77" cy="300.06" r="2.5" fill="#2563eb"/>
  <circle cx="414.51" cy="299.93" r="2.5" fill="#2563eb"/>
  <circle cx="416.25" cy="300.01" r="2.5" fill="#2563eb"/>
  <circle cx="417.99" cy="300.01" r="2.5" fill="#2563eb"/>
  <circle cx="419.73" cy="299.93" r="2.5" fill="#2563eb"/>
  <circle cx="421.47" cy="300.01" r="2.5" fill="#2563eb"/>
  <circle cx="423.21" cy="300.01" r="2.5" fill="#2563eb"/>
  <circle cx="424.95" cy="299.97" r="2.5" fill="#2563eb"/>
  <circle cx="426.69" cy="300.01" r="2.5" fill="#2563eb"/>
  <circle cx="428.43" cy="300.01" r="2.5" fill="#2563eb"/>
  <circle cx="430.17" cy="300.01" r="2.5" fill="#2563eb"/>
  <circle cx="431.91" cy="300.01" r="2.5" fill="#2563eb"/>
  <circle cx="433.65" cy="249.86" r="2.5" fill="#2563eb"/>
  <circle cx="435.39" cy="300.01" r="2.5" fill="#2563eb"/>
  <circle cx="437.13" cy="300.10" r="2.5" fill="#2563eb"/>
  <circle cx="438.87" cy="299.93" r="2.5" fill="#2563eb"/>
  <circle cx="440.61" cy="300.01" r="2.5" fill="#2563eb"/>
  <circle cx="442.35" cy="299.93" r="2.5" fill="#2563eb"/>
  <circle cx="444.09" cy="300.01" r="2.5" fill="#2563eb"/>
  <circle cx="445.83" cy="300.01" r="2.5" fill="#2563eb"/>
  <circle cx="447.57" cy="300.01" r="2.5" fill="#2563eb"/>
  <circle cx="449.31" cy="300.01" r="2.5" fill="#2563eb"/>
  <circle cx="451.05" cy="300.01" r="2.5" fill="#2563eb"/>
  <circle cx="452.79" cy="299.97" r="2.5" fill="#2563eb"/>
  <circle cx="454.53" cy="300.01" r="2.5" fill="#2563eb"/>
  <circle cx="456.27" cy="300.01" r="2.5" fill="#2563eb"/>
  <circle cx="458.01" cy="300.01" r="2.5" fill="#2563eb"/>
  <circle cx="459.75" cy="300.01" r="2.5" fill="#2563eb"/>
  <circle cx="461.49" cy="250.03" r="2.5" fill="#2563eb"/>
  <circle cx="463.23" cy="300.01" r="2.5" fill="#2563eb"/>
  <circle cx="464.97" cy="300.01" r="2.5" fill="#2563eb"/>
  <circle cx="466.71" cy="299.97" r="2.5" fill="#2563eb"/>
  <circle cx="468.45" cy="300.01" r="2.5" fill="#2563eb"/>
  <circle cx="470.19" cy="300.01" r="2.5" fill="#2563eb"/>
  <circle cx="471.93" cy="299.97" r="2.5" fill="#2563eb"/>
  <circle cx="473.67" cy="299.97" r="2.5" fill="#2563eb"/>
  <circle cx="475.41" cy="300.01" r="2.5" fill="#2563eb"/>
  <circle cx="477.15" cy="299.97" r="2.5" fill="#2563eb"/>
  <circle cx="478.89" cy="300.01" r="2.5" fill="#2563eb"/>
  <circle cx="480.63" cy="299.93" r="2.5" fill="#2563eb"/>
  <circle cx="482.37" cy="300.01" r="2.5" fill="#2563eb"/>
  <circle cx="484.11" cy="250.03" r="2.5" fill="#2563eb"/>
  <circle cx="485.85" cy="300.01" r="2.5" fill="#2563eb"/>
  <circle cx="487.59" cy="300.01" r="2.5" fill="#2563eb"/>
  <circle cx="489.33" cy="300.01" r="2.5" fill="#2563eb"/>
  <circle cx="491.07" cy="300.01" r="2.5" fill="#2563eb"/>
  <circle cx="492.81" cy="300.01" r="2.5" fill="#2563eb"/>
  <circle cx="494.55" cy="299.89" r="2.5" fill="#2563eb"/>
  <circle cx="496.29" cy="300.01" r="2.5" fill="#2563eb"/>
  <circle cx="498.03" cy="300.01" r="2.5" fill="#2563eb"/>
  <circle cx="499.77" cy="250.07" r="2.5" fill="#2563eb"/>
  <circle cx="501.51" cy="300.01" r="2.5" fill="#2563eb"/>
  <circle cx="503.25" cy="299.93" r="2.5" fill="#2563eb"/>
  <circle cx="504.99" cy="300.01" r="2.5" fill="#2563eb"/>
  <circle cx="506.73" cy="299.97" r="2.5" fill="#2563eb"/>
  <circle cx="508.47" cy="299.97" r="2.5" fill="#2563eb"/>
  <circle cx="510.21" cy="299.97" r="2.5" fill="#2563eb"/>
  <circle cx="511.95" cy="250.03" r="2.5" fill="#2563eb"/>
  <circle cx="513.69" cy="300.01" r="2.5" fill="#2563eb"/>
  <circle cx="515.43" cy="300.01" r="2.5" fill="#2563eb"/>
  <circle cx="517.17" cy="300.01" r="2.5" fill="#2563eb"/>
  <circle cx="518.91" cy="300.01" r="2.5" fill="#2563eb"/>
  <circle cx="520.65" cy="299.97" r="2.5" fill="#2563eb"/>
  <circle cx="522.39" cy="300.01" r="2.5" fill="#2563eb"/>
  <circle cx="524.13" cy="299.97" r="2.5" fill="#2563eb"/>
  <circle cx="525.87" cy="300.01" r="2.5" fill="#2563eb"/>
  <circle cx="527.61" cy="299.97" r="2.5" fill="#2563eb"/>
  <circle cx="529.35" cy="249.90" r="2.5" fill="#2563eb"/>
  <circle cx="531.09" cy="300.01" r="2.5" fill="#2563eb"/>
  <circle cx="532.83" cy="300.01" r="2.5" fill="#2563eb"/>
  <circle cx="534.57" cy="299.89" r="2.5" fill="#2563eb"/>
  <circle cx="536.31" cy="299.97" r="2.5" fill="#2563eb"/>
  <circle cx="538.05" cy="299.97" r="2.5" fill="#2563eb"/>
  <circle cx="539.79" cy="249.99" r="2.5" fill="#2563eb"/>
  <circle cx="541.53" cy="299.97" r="2.5" fill="#2563eb"/>
  <circle cx="543.27" cy="299.89" r="2.5" fill="#2563eb"/>
  <circle cx="545.01" cy="300.01" r="2.5" fill="#2563eb"/>
  <circle cx="546.75" cy="299.97" r="2.5" fill="#2563eb"/>
  <circle cx="548.49" cy="299.97" r="2.5" fill="#2563eb"/>
  <circle cx="550.23" cy="300.01" r="2.5" fill="#2563eb"/>
  <circle cx="551.97" cy="299.97" r="2.5" fill="#2563eb"/>
  <circle cx="553.71" cy="249.99" r="2.5" fill="#2563eb"/>
  <circle cx="555.45" cy="299.97" r="2.5" fill="#2563eb"/>
  <circle cx="557.19" cy="299.97" r="2.5" fill="#2563eb"/>
  <circle cx="558.93" cy="300.06" r="2.5" fill="#2563eb"/>
  <circle cx="560.67" cy="300.06" r="2.5" fill="#2563eb"/>
  <circle cx="562.41" cy="249.94" r="2.5" fill="#2563eb"/>
  <circle cx="564.15" cy="300.01" r="2.5" fill="#2563eb"/>
  <circle cx="565.89" cy="299.93" r="2.5" fill="#2563eb"/>
  <circle cx="567.63" cy="300.01" r="2.5" fill="#2563eb"/>
  <circle cx="569.37" cy="300.01" r="2.5" fill="#2563eb"/>
  <circle cx="571.11" cy="249.99" r="2.5" fill="#2563eb"/>
  <circle cx="572.85" cy="300.01" r="2.5" fill="#2563eb"/>
  <circle cx="574.59" cy="300.01" r="2.5" fill="#2563eb"/>
  <circle cx="576.33" cy="300.01" r="2.5" fill="#2563eb"/>
  <circle cx="578.07" cy="299.93" r="2.5" fill="#2563eb"/>
  <circle cx="579.81" cy="299.93" r="2.5" fill="#2563eb"/>
  <circle cx="581.55" cy="300.01" r="2.5" fill="#2563eb"/>
  <circle cx="583.29" cy="300.01" r="2.5" fill="#2563eb"/>
  <circle cx="585.03" cy="249.94" r="2.5" fill="#2563eb"/>
  <circle cx="586.77" cy="299.97" r="2.5" fill="#2563eb"/>
  <circle cx="588.51" cy="299.97" r="2.5" fill="#2563eb"/>
  <circle cx="590.25" cy="300.01" r="2.5" fill="#2563eb"/>
  <circle cx="591.99" cy="300.01" r="2.5" fill="#2563eb"/>
  <circle cx="593.73" cy="300.01" r="2.5" fill="#2563eb"/>
  <circle cx="595.47" cy="249.99" r="2.5" fill="#2563eb"/>
  <circle cx="597.21" cy="300.01" r="2.5" fill="#2563eb"/>
  <circle cx="598.95" cy="300.01" r="2.5" fill="#2563eb"/>
  <circle cx="600.69" cy="300.01" r="2.5" fill="#2563eb"/>
  <circle cx="602.43" cy="250.03" r="2.5" fill="#2563eb"/>
  <circle cx="604.17" cy="300.01" r="2.5" fill="#2563eb"/>
  <circle cx="605.91" cy="300.01" r="2.5" fill="#2563eb"/>
  <circle cx="607.65" cy="300.01" r="2.5" fill="#2563eb"/>
  <circle cx="609.39" cy="299.97" r="2.5" fill="#2563eb"/>
  <circle cx="611.13" cy="300.01" r="2.5" fill="#2563eb"/>
  <circle cx="612.87" cy="300.01" r="2.5" fill="#2563eb"/>
  <circle cx="614.61" cy="299.97" r="2.5" fill="#2563eb"/>
  <circle cx="616.35" cy="299.97" r="2.5" fill="#2563eb"/>
  <circle cx="618.09" cy="300.01" r="2.5" fill="#2563eb"/>
  <circle cx="619.83" cy="300.01" r="2.5" fill="#2563eb"/>
  <circle cx="621.57" cy="299.97" r="2.5" fill="#2563eb"/>
  <circle cx="623.31" cy="299.93" r="2.5" fill="#2563eb"/>
  <circle cx="625.05" cy="300.01" r="2.5" fill="#2563eb"/>
  <circle cx="626.79" cy="300.06" r="2.5" fill="#2563eb"/>
  <circle cx="628.53" cy="299.97" r="2.5" fill="#2563eb"/>
  <circle cx="630.27" cy="300.01" r="2.5" fill="#2563eb"/>
  <circle cx="632.01" cy="250.03" r="2.5" fill="#2563eb"/>
  <circle cx="633.75" cy="250.03" r="2.5" fill="#2563eb"/>
  <circle cx="635.49" cy="299.93" r="2.5" fill="#2563eb"/>
  <circle cx="637.23" cy="299.97" r="2.5" fill="#2563eb"/>
  <circle cx="638.97" cy="300.01" r="2.5" fill="#2563eb"/>
  <circle cx="640.71" cy="300.01" r="2.5" fill="#2563eb"/>
  <circle cx="642.45" cy="300.06" r="2.5" fill="#2563eb"/>
  <circle cx="644.19" cy="300.01" r="2.5" fill="#2563eb"/>
  <circle cx="645.93" cy="299.93" r="2.5" fill="#2563eb"/>
  <circle cx="647.67" cy="300.01" r="2.5" fill="#2563eb"/>
  <circle cx="649.41" cy="300.01" r="2.5" fill="#2563eb"/>
  <circle cx="651.15" cy="299.97" r="2.5" fill="#2563eb"/>
  <circle cx="652.89" cy="299.97" r="2.5" fill="#2563eb"/>
  <circle cx="654.63" cy="300.01" r="2.5" fill="#2563eb"/>
  <circle cx="656.37" cy="250.03" r="2.5" fill="#2563eb"/>
  <circle cx="658.11" cy="300.01" r="2.5" fill="#2563eb"/>
  <circle cx="659.85" cy="300.01" r="2.5" fill="#2563eb"/>
  <circle cx="661.59" cy="300.01" r="2.5" fill="#2563eb"/>
  <circle cx="663.33" cy="299.97" r="2.5" fill="#2563eb"/>
  <circle cx="665.07" cy="300.01" r="2.5" fill="#2563eb"/>
  <circle cx="666.81" cy="299.97" r="2.5" fill="#2563eb"/>
  <circle cx="668.55" cy="300.01" r="2.5" fill="#2563eb"/>
  <circle cx="670.29" cy="299.97" r="2.5" fill="#2563eb"/>
  <circle cx="672.03" cy="299.97" r="2.5" fill="#2563eb"/>
  <circle cx="673.77" cy="299.93" r="2.5" fill="#2563eb"/>
  <circle cx="675.51" cy="300.01" r="2.5" fill="#2563eb"/>
  <circle cx="677.25" cy="300.01" r="2.5" fill="#2563eb"/>
  <circle cx="678.99" cy="299.89" r="2.5" fill="#2563eb"/>
  <circle cx="680.73" cy="299.97" r="2.5" fill="#2563eb"/>
  <circle cx="682.47" cy="299.97" r="2.5" fill="#2563eb"/>
  <circle cx="684.21" cy="300.06" r="2.5" fill="#2563eb"/>
  <circle cx="685.95" cy="249.90" r="2.5" fill="#2563eb"/>
  <circle cx="687.69" cy="299.89" r="2.5" fill="#2563eb"/>
  <circle cx="689.43" cy="300.01" r="2.5" fill="#2563eb"/>
  <circle cx="691.17" cy="299.97" r="2.5" fill="#2563eb"/>
  <circle cx="692.91" cy="299.97" r="2.5" fill="#2563eb"/>
  <circle cx="694.65" cy="299.97" r="2.5" fill="#2563eb"/>
  <circle cx="696.39" cy="300.01" r="2.5" fill="#2563eb"/>
  <circle cx="698.13" cy="300.01" r="2.5" fill="#2563eb"/>
  <circle cx="699.87" cy="299.97" r="2.5" fill="#2563eb"/>
  <circle cx="701.61" cy="299.97" r="2.5" fill="#2563eb"/>
  <circle cx="703.35" cy="299.97" r="2.5" fill="#2563eb"/>
  <circle cx="705.09" cy="250.03" r="2.5" fill="#2563eb"/>
  <circle cx="706.83" cy="299.93" r="2.5" fill="#2563eb"/>
  <circle cx="708.57" cy="300.01" r="2.5" fill="#2563eb"/>
  <circle cx="710.31" cy="300.01" r="2.5" fill="#2563eb"/>
  <circle cx="712.05" cy="299.93" r="2.5" fill="#2563eb"/>
  <circle cx="713.79" cy="300.01" r="2.5" fill="#2563eb"/>
  <circle cx="715.53" cy="300.01" r="2.5" fill="#2563eb"/>
  <circle cx="717.27" cy="299.97" r="2.5" fill="#2563eb"/>
  <circle cx="719.01" cy="300.01" r="2.5" fill="#2563eb"/>
  <circle cx="720.75" cy="300.01" r="2.5" fill="#2563eb"/>
  <circle cx="722.49" cy="300.06" r="2.5" fill="#2563eb"/>
  <circle cx="724.23" cy="300.01" r="2.5" fill="#2563eb"/>
  <circle cx="725.97" cy="299.97" r="2.5" fill="#2563eb"/>
  <circle cx="727.71" cy="299.89" r="2.5" fill="#2563eb"/>
  <circle cx="729.45" cy="300.01" r="2.5" fill="#2563eb"/>
  <circle cx="731.19" cy="300.01" r="2.5" fill="#2563eb"/>
  <circle cx="732.93" cy="249.94" r="2.5" fill="#2563eb"/>
  <circle cx="734.67" cy="249.94" r="2.5" fill="#2563eb"/>
  <circle cx="736.41" cy="300.01" r="2.5" fill="#2563eb"/>
  <circle cx="738.15" cy="300.01" r="2.5" fill="#2563eb"/>
  <circle cx="739.89" cy="300.01" r="2.5" fill="#2563eb"/>
  <circle cx="741.63" cy="300.01" r="2.5" fill="#2563eb"/>
  <circle cx="743.37" cy="299.97" r="2.5" fill="#2563eb"/>
  <circle cx="745.11" cy="250.03" r="2.5" fill="#2563eb"/>
  <circle cx="746.85" cy="300.01" r="2.5" fill="#2563eb"/>
  <circle cx="748.59" cy="300.01" r="2.5" fill="#2563eb"/>
  <circle cx="750.33" cy="300.01" r="2.5" fill="#2563eb"/>
  <circle cx="752.07" cy="300.01" r="2.5" fill="#2563eb"/>
  <circle cx="753.80" cy="250.03" r="2.5" fill="#2563eb"/>
  <circle cx="755.54" cy="249.99" r="2.5" fill="#2563eb"/>
  <circle cx="757.28" cy="300.01" r="2.5" fill="#2563eb"/>
  <circle cx="759.02" cy="299.97" r="2.5" fill="#2563eb"/>
  <circle cx="760.76" cy="300.01" r="2.5" fill="#2563eb"/>
  <circle cx="762.50" cy="299.97" r="2.5" fill="#2563eb"/>
  <circle cx="764.24" cy="300.01" r="2.5" fill="#2563eb"/>
  <circle cx="765.98" cy="299.97" r="2.5" fill="#2563eb"/>
  <circle cx="767.72" cy="299.97" r="2.5" fill="#2563eb"/>
  <circle cx="769.46" cy="299.97" r="2.5" fill="#2563eb"/>
  <circle cx="771.20" cy="300.06" r="2.5" fill="#2563eb"/>
  <circle cx="772.94" cy="249.99" r="2.5" fill="#2563eb"/>
  <circle cx="774.68" cy="300.01" r="2.5" fill="#2563eb"/>
  <circle cx="776.42" cy="250.03" r="2.5" fill="#2563eb"/>
  <circle cx="778.16" cy="249.94" r="2.5" fill="#2563eb"/>
  <circle cx="779.90" cy="249.99" r="2.5" fill="#2563eb"/>
  <circle cx="781.64" cy="300.01" r="2.5" fill="#2563eb"/>
  <circle cx="783.38" cy="300.06" r="2.5" fill="#2563eb"/>
  <circle cx="785.12" cy="300.01" r="2.5" fill="#2563eb"/>
  <circle cx="786.86" cy="299.97" r="2.5" fill="#2563eb"/>
  <circle cx="788.60" cy="299.97" r="2.5" fill="#2563eb"/>
  <circle cx="790.34" cy="300.01" r="2.5" fill="#2563eb"/>
  <circle cx="792.08" cy="299.93" r="2.5" fill="#2563eb"/>
  <circle cx="793.82" cy="299.89" r="2.5" fill="#2563eb"/>
  <circle cx="795.56" cy="299.89" r="2.5" fill="#2563eb"/>
  <circle cx="797.30" cy="299.89" r="2.5" fill="#2563eb"/>
  <circle cx="799.04" cy="299.89" r="2.5" fill="#2563eb"/>
  <circle cx="800.78" cy="299.85" r="2.5" fill="#2563eb"/>
  <circle cx="802.52" cy="299.85" r="2.5" fill="#2563eb"/>
  <circle cx="804.26" cy="299.89" r="2.5" fill="#2563eb"/>
  <circle cx="806.00" cy="299.81" r="2.5" fill="#2563eb"/>
  <circle cx="807.74" cy="299.81" r="2.5" fill="#2563eb"/>
  <circle cx="809.48" cy="299.81" r="2.5" fill="#2563eb"/>
  <circle cx="811.22" cy="299.76" r="2.5" fill="#2563eb"/>
  <circle cx="812.96" cy="299.76" r="2.5" fill="#2563eb"/>
  <circle cx="814.70" cy="299.76" r="2.5" fill="#2563eb"/>
  <circle cx="816.44" cy="299.72" r="2.5" fill="#2563eb"/>
  <circle cx="818.18" cy="299.68" r="2.5" fill="#2563eb"/>
  <circle cx="819.92" cy="299.60" r="2.5" fill="#2563eb"/>
  <circle cx="821.66" cy="299.60" r="2.5" fill="#2563eb"/>
  <circle cx="823.40" cy="299.60" r="2.5" fill="#2563eb"/>
  <circle cx="825.14" cy="299.56" r="2.5" fill="#2563eb"/>
  <circle cx="826.88" cy="299.47" r="2.5" fill="#2563eb"/>
  <circle cx="828.62" cy="299.43" r="2.5" fill="#2563eb"/>
  <circle cx="830.36" cy="299.43" r="2.5" fill="#2563eb"/>
  <circle cx="832.10" cy="299.39" r="2.5" fill="#2563eb"/>
  <circle cx="833.84" cy="299.47" r="2.5" fill="#2563eb"/>
  <circle cx="835.58" cy="259.82" r="2.5" fill="#2563eb"/>
  <circle cx="837.32" cy="338.96" r="2.5" fill="#2563eb"/>
  <circle cx="839.06" cy="299.31" r="2.5" fill="#2563eb"/>
  <circle cx="840.80" cy="299.31" r="2.5" fill="#2563eb"/>
  <circle cx="842.54" cy="299.26" r="2.5" fill="#2563eb"/>
  <circle cx="844.28" cy="299.68" r="2.5" fill="#2563eb"/>
  <circle cx="846.02" cy="299.68" r="2.5" fill="#2563eb"/>
  <circle cx="847.76" cy="299.68" r="2.5" fill="#2563eb"/>
  <circle cx="849.50" cy="299.64" r="2.5" fill="#2563eb"/>
  <circle cx="851.24" cy="299.14" r="2.5" fill="#2563eb"/>
  <circle cx="852.98" cy="299.14" r="2.5" fill="#2563eb"/>
  <circle cx="854.72" cy="299.10" r="2.5" fill="#2563eb"/>
  <circle cx="856.46" cy="299.10" r="2.5" fill="#2563eb"/>
  <circle cx="858.20" cy="299.10" r="2.5" fill="#2563eb"/>
  <circle cx="859.94" cy="248.07" r="2.5" fill="#2563eb"/>
  <circle cx="861.68" cy="299.06" r="2.5" fill="#2563eb"/>
  <circle cx="863.42" cy="299.06" r="2.5" fill="#2563eb"/>
  <circle cx="865.16" cy="299.06" r="2.5" fill="#2563eb"/>
  <circle cx="866.90" cy="299.06" r="2.5" fill="#2563eb"/>
  <circle cx="868.64" cy="299.06" r="2.5" fill="#2563eb"/>
  <circle cx="870.38" cy="298.97" r="2.5" fill="#2563eb"/>
  <circle cx="872.12" cy="298.97" r="2.5" fill="#2563eb"/>
  <circle cx="873.86" cy="298.93" r="2.5" fill="#2563eb"/>
  <circle cx="875.60" cy="298.97" r="2.5" fill="#2563eb"/>
  <circle cx="877.34" cy="298.93" r="2.5" fill="#2563eb"/>
  <circle cx="879.08" cy="298.89" r="2.5" fill="#2563eb"/>
  <circle cx="880.82" cy="298.89" r="2.5" fill="#2563eb"/>
  <circle cx="882.56" cy="298.89" r="2.5" fill="#2563eb"/>
  <circle cx="884.30" cy="298.89" r="2.5" fill="#2563eb"/>
  <circle cx="886.04" cy="247.78" r="2.5" fill="#2563eb"/>
  <circle cx="887.78" cy="298.89" r="2.5" fill="#2563eb"/>
  <circle cx="889.52" cy="298.89" r="2.5" fill="#2563eb"/>
  <circle cx="891.26" cy="298.85" r="2.5" fill="#2563eb"/>
  <circle cx="893.00" cy="298.85" r="2.5" fill="#2563eb"/>
  <circle cx="894.74" cy="298.81" r="2.5" fill="#2563eb"/>
  <circle cx="896.48" cy="298.81" r="2.5" fill="#2563eb"/>
  <circle cx="898.22" cy="298.81" r="2.5" fill="#2563eb"/>
  <circle cx="899.96" cy="298.81" r="2.5" fill="#2563eb"/>
  <circle cx="901.70" cy="298.81" r="2.5" fill="#2563eb"/>
  <circle cx="903.44" cy="298.81" r="2.5" fill="#2563eb"/>
  <circle cx="905.18" cy="298.81" r="2.5" fill="#2563eb"/>
  <circle cx="906.92" cy="298.81" r="2.5" fill="#2563eb"/>
  <circle cx="908.66" cy="298.81" r="2.5" fill="#2563eb"/>
  <circle cx="910.40" cy="298.72" r="2.5" fill="#2563eb"/>
  <circle cx="912.14" cy="247.45" r="2.5" fill="#2563eb"/>
  <circle cx="913.88" cy="247.45" r="2.5" fill="#2563eb"/>
  <circle cx="915.62" cy="298.72" r="2.5" fill="#2563eb"/>
  <circle cx="917.36" cy="298.72" r="2.5" fill="#2563eb"/>
  <circle cx="919.10" cy="298.72" r="2.5" fill="#2563eb"/>
  <circle cx="920.84" cy="298.72" r="2.5" fill="#2563eb"/>
  <circle cx="922.58" cy="298.72" r="2.5" fill="#2563eb"/>
  <circle cx="924.32" cy="298.72" r="2.5" fill="#2563eb"/>
  <circle cx="926.06" cy="247.36" r="2.5" fill="#2563eb"/>
  <circle cx="927.80" cy="298.68" r="2.5" fill="#2563eb"/>
  <circle cx="929.54" cy="247.36" r="2.5" fill="#2563eb"/>
  <circle cx="931.28" cy="247.36" r="2.5" fill="#2563eb"/>
  <circle cx="933.02" cy="247.36" r="2.5" fill="#2563eb"/>
  <circle cx="934.76" cy="298.68" r="2.5" fill="#2563eb"/>
  <circle cx="936.50" cy="298.68" r="2.5" fill="#2563eb"/>
  <circle cx="938.24" cy="298.68" r="2.5" fill="#2563eb"/>
  <circle cx="939.98" cy="298.68" r="2.5" fill="#2563eb"/>
  <circle cx="941.72" cy="298.68" r="2.5" fill="#2563eb"/>
  <circle cx="943.46" cy="341.67" r="2.5" fill="#2563eb"/>
  <circle cx="945.20" cy="307.01" r="2.5" fill="#2563eb"/>
  <circle cx="946.94" cy="298.68" r="2.5" fill="#2563eb"/>
  <circle cx="948.68" cy="298.68" r="2.5" fill="#2563eb"/>
  <circle cx="950.42" cy="298.68" r="2.5" fill="#2563eb"/>
  <circle cx="952.16" cy="247.36" r="2.5" fill="#2563eb"/>
  <circle cx="953.90" cy="298.64" r="2.5" fill="#2563eb"/>
  <circle cx="955.64" cy="247.36" r="2.5" fill="#2563eb"/>
  <circle cx="957.38" cy="247.28" r="2.5" fill="#2563eb"/>
  <circle cx="959.12" cy="247.20" r="2.5" fill="#2563eb"/>
  <circle cx="960.86" cy="298.60" r="2.5" fill="#2563eb"/>
  <circle cx="962.60" cy="298.60" r="2.5" fill="#2563eb"/>
  <circle cx="964.34" cy="247.03" r="2.5" fill="#2563eb"/>
  <circle cx="966.08" cy="298.51" r="2.5" fill="#2563eb"/>
  <circle cx="967.82" cy="298.51" r="2.5" fill="#2563eb"/>
  <circle cx="969.56" cy="298.51" r="2.5" fill="#2563eb"/>
  <circle cx="971.30" cy="298.51" r="2.5" fill="#2563eb"/>
  <circle cx="973.04" cy="298.51" r="2.5" fill="#2563eb"/>
  <circle cx="974.78" cy="298.51" r="2.5" fill="#2563eb"/>
  <circle cx="976.52" cy="298.51" r="2.5" fill="#2563eb"/>
  <circle cx="978.26" cy="298.51" r="2.5" fill="#2563eb"/>
  <circle cx="980.00" cy="298.51" r="2.5" fill="#2563eb"/>
</svg>
