<?xml version="1.0" encoding="UTF-8"?>
<svg xmlns="http://www.w3.org/2000/svg" width="1000" height="420" viewBox="0 0 1000 420">
  <rect width="100%" height="100%" fill="#ffffff"/>
  <text x="70" y="28" font-size="20" font-weight="600">수집 시점 기준 - 시간별 스냅샷</text>
  <text x="70" y="402" font-size="12" fill="#555">스냅샷 수</text>
  <line x1="70" y1="350.00" x2="980" y2="350.00" stroke="#e5e7eb" stroke-width="1"/>
  <text x="62" y="354.00" font-size="11" fill="#6b7280" text-anchor="end">0</text>
  <line x1="70" y1="290.00" x2="980" y2="290.00" stroke="#e5e7eb" stroke-width="1"/>
  <text x="62" y="294.00" font-size="11" fill="#6b7280" text-anchor="end">1,440</text>
  <line x1="70" y1="230.00" x2="980" y2="230.00" stroke="#e5e7eb" stroke-width="1"/>
  <text x="62" y="234.00" font-size="11" fill="#6b7280" text-anchor="end">2,880</text>
  <line x1="70" y1="170.00" x2="980" y2="170.00" stroke="#e5e7eb" stroke-width="1"/>
  <text x="62" y="174.00" font-size="11" fill="#6b7280" text-anchor="end">4,321</text>
  <line x1="70" y1="110.00" x2="980" y2="110.00" stroke="#e5e7eb" stroke-width="1"/>
  <text x="62" y="114.00" font-size="11" fill="#6b7280" text-anchor="end">5,761</text>
  <line x1="70" y1="50.00" x2="980" y2="50.00" stroke="#e5e7eb" stroke-width="1"/>
  <text x="62" y="54.00" font-size="11" fill="#6b7280" text-anchor="end">7,202</text>
  <line x1="70" y1="350" x2="980" y2="350" stroke="#111827" stroke-width="1.2"/>
  <line x1="70" y1="50" x2="70" y2="350" stroke="#111827" stroke-width="1.2"/>
  <line x1="70.00" y1="350" x2="70.00" y2="356" stroke="#9ca3af" stroke-width="1"/>
  <text x="70.00" y="372" font-size="10" fill="#6b7280" text-anchor="middle">2026-02-28 18</text>
  <line x1="145.07" y1="350" x2="145.07" y2="356" stroke="#9ca3af" stroke-width="1"/>
  <text x="145.07" y="372" font-size="10" fill="#6b7280" text-anchor="middle">2026-03-08 20</text>
  <line x1="220.14" y1="350" x2="220.14" y2="356" stroke="#9ca3af" stroke-width="1"/>
  <text x="220.14" y="372" font-size="10" fill="#6b7280" text-anchor="middle">2026-03-10 17</text>
  <line x1="295.21" y1="350" x2="295.21" y2="356" stroke="#9ca3af" stroke-width="1"/>
  <text x="295.21" y="372" font-size="10" fill="#6b7280" text-anchor="middle">2026-03-12 14</text>
  <line x1="370.28" y1="350" x2="370.28" y2="356" stroke="#9ca3af" stroke-width="1"/>
  <text x="370.28" y="372" font-size="10" fill="#6b7280" text-anchor="middle">2026-03-14 12</text>
  <line x1="445.35" y1="350" x2="445.35" y2="356" stroke="#9ca3af" stroke-width="1"/>
  <text x="445.35" y="372" font-size="10" fill="#6b7280" text-anchor="middle">2026-03-17 00</text>
  <line x1="520.42" y1="350" x2="520.42" y2="356" stroke="#9ca3af" stroke-width="1"/>
  <text x="520.42" y="372" font-size="10" fill="#6b7280" text-anchor="middle">2026-03-19 19</text>
  <line x1="595.49" y1="350" x2="595.49" y2="356" stroke="#9ca3af" stroke-width="1"/>
  <text x="595.49" y="372" font-size="10" fill="#6b7280" text-anchor="middle">2026-03-22 02</text>
  <line x1="670.56" y1="350" x2="670.56" y2="356" stroke="#9ca3af" stroke-width="1"/>
  <text x="670.56" y="372" font-size="10" fill="#6b7280" text-anchor="middle">2026-03-24 17</text>
  <line x1="745.63" y1="350" x2="745.63" y2="356" stroke="#9ca3af" stroke-width="1"/>
  <text x="745.63" y="372" font-size="10" fill="#6b7280" text-anchor="middle">2026-03-27 14</text>
  <line x1="820.70" y1="350" x2="820.70" y2="356" stroke="#9ca3af" stroke-width="1"/>
  <text x="820.70" y="372" font-size="10" fill="#6b7280" text-anchor="middle">2026-03-30 06</text>
  <line x1="895.77" y1="350" x2="895.77" y2="356" stroke="#9ca3af" stroke-width="1"/>
  <text x="895.77" y="372" font-size="10" fill="#6b7280" text-anchor="middle">2026-04-02 05</text>
  <line x1="970.85" y1="350" x2="970.85" y2="356" stroke="#9ca3af" stroke-width="1"/>
  <text x="970.85" y="372" font-size="10" fill="#6b7280" text-anchor="middle">2026-04-04 20</text>
  <line x1="980.00" y1="350" x2="980.00" y2="356" stroke="#9ca3af" stroke-width="1"/>
  <text x="980.00" y="372" font-size="10" fill="#6b7280" text-anchor="middle">2026-04-05 05</text>
  <polyline fill="none" stroke="#2563eb" stroke-width="2.5" points="70.00,50.00 71.83,50.12 73.66,50.17 75.49,50.46 77.32,50.00 79.15,266.90 80.99,50.12 82.82,50.08 84.65,177.46 86.48,211.58 88.31,175.34 90.14,304.14 91.97,200.46 93.80,250.94 95.63,300.01 97.46,300.06 99.30,300.01 101.13,300.01 102.96,348.00 104.79,300.01 106.62,249.99 108.45,200.00 110.28,249.99 112.11,249.99 113.94,250.03 115.77,250.03 117.61,250.03 119.44,250.40 121.27,250.90 123.10,250.90 124.93,251.32 126.76,249.94 128.59,300.01 130.42,299.93 132.25,251.03 134.08,300.68 135.92,250.03 137.75,200.00 139.58,249.99 141.41,250.03 143.24,250.03 145.07,250.03 146.90,300.01 148.73,200.04 150.56,250.03 152.39,250.03 154.23,250.03 156.06,249.90 157.89,250.03 159.72,250.03 161.55,250.94 163.38,250.44 165.21,250.03 167.04,250.03 168.87,300.47 170.70,300.01 172.54,300.43 174.37,250.03 176.20,249.99 178.03,300.43 179.86,249.90 181.69,249.99 183.52,249.99 185.35,200.04 187.18,300.01 189.01,300.01 190.85,300.01 192.68,249.90 194.51,300.01 196.34,250.03 198.17,249.99 200.00,199.96 201.83,300.01 203.66,200.00 205.49,250.36 207.32,250.03 209.15,300.01 210.99,300.01 212.82,250.44 214.65,300.01 216.48,250.03 218.31,250.03 220.14,249.99 221.97,250.49 223.80,250.03 225.63,200.04 227.46,300.01 229.30,250.03 231.13,300.01 232.96,250.11 234.79,300.01 236.62,250.03 238.45,250.03 240.28,199.92 242.11,250.03 243.94,250.03 245.77,250.03 247.61,254.36 249.44,300.01 251.27,299.97 253.10,250.36 254.93,299.97 256.76,250.03 258.59,250.03 260.42,250.03 262.25,250.03 264.08,249.99 265.92,200.00 267.75,299.93 269.58,300.01 271.41,299.97 273.24,249.94 275.07,249.99 276.90,249.82 278.73,249.94 280.56,250.28 282.39,207.00 284.23,250.03 286.06,250.32 287.89,250.40 289.72,300.93 291.55,300.01 293.38,300.10 295.21,249.94 297.04,249.99 298.87,250.07 300.70,249.99 302.54,250.03 304.37,249.94 306.20,200.00 308.03,300.39 309.86,300.01 311.69,300.01 313.52,250.44 315.35,300.39 317.18,249.86 319.01,250.11 320.85,201.46 322.68,300.01 324.51,200.83 326.34,250.03 328.17,249.99 330.00,300.26 331.83,300.01 333.66,300.01 335.49,250.03 337.32,250.03 339.15,250.03 340.99,250.03 342.82,249.99 344.65,250.03 346.48,200.00 348.31,300.26 350.14,249.99 351.97,300.01 353.80,249.94 355.63,250.03 357.46,250.03 359.30,250.03 361.13,200.04 362.96,300.01 364.79,249.90 366.62,300.01 368.45,300.01 370.28,300.06 372.11,300.01 373.94,300.01 375.77,243.95 377.61,249.94 379.44,299.97 381.27,300.01 383.10,300.01 384.93,250.03 386.76,300.01 388.59,300.01 390.42,299.97 392.25,249.99 394.08,300.01 395.92,299.93 397.75,300.01 399.58,299.93 401.41,300.01 403.24,300.01 405.07,299.89 406.90,299.97 408.73,250.03 410.56,299.93 412.39,299.89 414.23,299.97 416.06,249.94 417.89,300.01 419.72,300.01 421.55,299.97 423.38,249.99 425.21,299.97 427.04,299.97 428.87,300.06 430.70,300.06 432.54,299.93 434.37,300.01 436.20,300.01 438.03,299.93 439.86,300.01 441.69,300.01 443.52,299.97 445.35,300.01 447.18,300.01 449.01,300.01 450.85,300.01 452.68,249.86 454.51,300.01 456.34,300.10 458.17,299.93 460.00,300.01 461.83,299.93 463.66,300.01 465.49,300.01 467.32,300.01 469.15,300.01 470.99,300.01 472.82,299.97 474.65,300.01 476.48,300.01 478.31,300.01 480.14,300.01 481.97,250.03 483.80,300.01 485.63,300.01 487.46,299.97 489.30,300.01 491.13,300.01 492.96,299.97 494.79,299.97 496.62,300.01 498.45,299.97 500.28,300.01 502.11,299.93 503.94,300.01 505.77,250.03 507.61,300.01 509.44,300.01 511.27,300.01 513.10,300.01 514.93,300.01 516.76,299.89 518.59,300.01 520.42,300.01 522.25,250.07 524.08,300.01 525.92,299.93 527.75,300.01 529.58,299.97 531.41,299.97 533.24,299.97 535.07,250.03 536.90,300.01 538.73,300.01 540.56,300.01 542.39,300.01 544.23,299.97 546.06,300.01 547.89,299.97 549.72,300.01 551.55,299.97 553.38,249.90 555.21,300.01 557.04,300.01 558.87,299.89 560.70,299.97 562.54,299.97 564.37,249.99 566.20,299.97 568.03,299.89 569.86,300.01 571.69,299.97 573.52,299.97 575.35,300.01 577.18,299.97 579.01,249.99 580.85,299.97 582.68,299.97 584.51,300.06 586.34,300.06 588.17,249.94 590.00,300.01 591.83,299.93 593.66,300.01 595.49,300.01 597.32,249.99 599.15,300.01 600.99,300.01 602.82,300.01 604.65,299.93 606.48,299.93 608.31,300.01 610.14,300.01 611.97,249.94 613.80,299.97 615.63,299.97 617.46,300.01 619.30,300.01 621.13,300.01 622.96,249.99 624.79,300.01 626.62,300.01 628.45,300.01 630.28,250.03 632.11,300.01 633.94,300.01 635.77,300.01 637.61,299.97 639.44,300.01 641.27,300.01 643.10,299.97 644.93,299.97 646.76,300.01 648.59,300.01 650.42,299.97 652.25,299.93 654.08,300.01 655.92,300.06 657.75,299.97 659.58,300.01 661.41,250.03 663.24,250.03 665.07,299.93 666.90,299.97 668.73,300.01 670.56,300.01 672.39,300.06 674.23,300.01 676.06,299.93 677.89,300.01 679.72,300.01 681.55,299.97 683.38,299.97 685.21,300.01 687.04,250.03 688.87,300.01 690.70,300.01 692.54,300.01 694.37,299.97 696.20,300.01 698.03,299.97 699.86,300.01 701.69,299.97 703.52,299.97 705.35,299.93 707.18,300.01 709.01,300.01 710.85,299.89 712.68,299.97 714.51,299.97 716.34,300.06 718.17,249.90 720.00,299.89 721.83,300.01 723.66,299.97 725.49,299.97 727.32,299.97 729.15,300.01 730.99,300.01 732.82,299.97 734.65,299.97 736.48,299.97 738.31,250.03 740.14,299.93 741.97,300.01 743.80,300.01 745.63,299.93 747.46,300.01 749.30,300.01 751.13,299.97 752.96,300.01 754.79,300.01 756.62,300.06 758.45,300.01 760.28,299.97 762.11,299.89 763.94,300.01 765.77,300.01 767.61,249.94 769.44,249.94 771.27,300.01 773.10,300.01 774.93,300.01 776.76,300.01 778.59,299.97 780.42,250.03 782.25,300.01 784.08,300.01 785.92,300.01 787.75,300.01 789.58,250.03 791.41,249.99 793.24,300.01 795.07,299.97 796.90,300.01 798.73,299.97 800.56,300.01 802.39,299.97 804.23,299.97 806.06,299.97 807.89,300.06 809.72,249.99 811.55,300.01 813.38,250.03 815.21,249.94 817.04,249.99 818.87,300.01 820.70,300.06 822.54,300.01 824.37,299.97 826.20,299.97 828.03,300.01 829.86,299.93 831.69,299.89 833.52,299.89 835.35,299.89 837.18,299.89 839.01,299.85 840.85,299.85 842.68,299.89 844.51,299.81 846.34,299.81 848.17,299.81 850.00,299.76 851.83,299.76 853.66,299.76 855.49,299.72 857.32,299.68 859.15,299.60 860.99,299.60 862.82,299.60 864.65,299.56 866.48,299.47 868.31,299.43 870.14,299.43 871.97,299.39 873.80,299.47 875.63,259.82 877.46,338.96 879.30,299.31 881.13,299.31 882.96,299.26 884.79,299.68 886.62,299.68 888.45,299.68 890.28,299.64 892.11,299.14 893.94,299.14 895.77,299.10 897.61,299.10 899.44,299.10 901.27,248.07 903.10,299.06 904.93,299.06 906.76,299.06 908.59,299.06 910.42,299.06 912.25,298.97 914.08,298.97 915.92,298.93 917.75,298.97 919.58,298.93 921.41,298.89 923.24,298.89 925.07,298.89 926.90,298.89 928.73,247.78 930.56,298.89 932.39,298.89 934.23,298.85 936.06,298.85 937.89,298.81 939.72,298.81 941.55,298.81 943.38,298.81 945.21,298.81 947.04,298.81 948.87,298.81 950.70,298.81 952.54,298.81 954.37,298.72 956.20,247.45 958.03,247.45 959.86,298.72 961.69,298.72 963.52,298.72 965.35,298.72 967.18,298.72 969.01,298.72 970.85,247.36 972.68,298.68 974.51,247.36 976.34,247.36 978.17,247.36 980.00,298.68"/>
  <circle cx="70.00" cy="50.00" r="2.5" fill="#2563eb"/>
  <circle cx="71.83" cy="50.12" r="2.5" fill="#2563eb"/>
  <circle cx="73.66" cy="50.17" r="2.5" fill="#2563eb"/>
  <circle cx="75.49" cy="50.46" r="2.5" fill="#2563eb"/>
  <circle cx="77.32" cy="50.00" r="2.5" fill="#2563eb"/>
  <circle cx="79.15" cy="266.90" r="2.5" fill="#2563eb"/>
  <circle cx="80.99" cy="50.12" r="2.5" fill="#2563eb"/>
  <circle cx="82.82" cy="50.08" r="2.5" fill="#2563eb"/>
  <circle cx="84.65" cy="177.46" r="2.5" fill="#2563eb"/>
  <circle cx="86.48" cy="211.58" r="2.5" fill="#2563eb"/>
  <circle cx="88.31" cy="175.34" r="2.5" fill="#2563eb"/>
  <circle cx="90.14" cy="304.14" r="2.5" fill="#2563eb"/>
  <circle cx="91.97" cy="200.46" r="2.5" fill="#2563eb"/>
  <circle cx="93.80" cy="250.94" r="2.5" fill="#2563eb"/>
  <circle cx="95.63" cy="300.01" r="2.5" fill="#2563eb"/>
  <circle cx="97.46" cy="300.06" r="2.5" fill="#2563eb"/>
  <circle cx="99.30" cy="300.01" r="2.5" fill="#2563eb"/>
  <circle cx="101.13" cy="300.01" r="2.5" fill="#2563eb"/>
  <circle cx="102.96" cy="348.00" r="2.5" fill="#2563eb"/>
  <circle cx="104.79" cy="300.01" r="2.5" fill="#2563eb"/>
  <circle cx="106.62" cy="249.99" r="2.5" fill="#2563eb"/>
  <circle cx="108.45" cy="200.00" r="2.5" fill="#2563eb"/>
  <circle cx="110.28" cy="249.99" r="2.5" fill="#2563eb"/>
  <circle cx="112.11" cy="249.99" r="2.5" fill="#2563eb"/>
  <circle cx="113.94" cy="250.03" r="2.5" fill="#2563eb"/>
  <circle cx="115.77" cy="250.03" r="2.5" fill="#2563eb"/>
  <circle cx="117.61" cy="250.03" r="2.5" fill="#2563eb"/>
  <circle cx="119.44" cy="250.40" r="2.5" fill="#2563eb"/>
  <circle cx="121.27" cy="250.90" r="2.5" fill="#2563eb"/>
  <circle cx="123.10" cy="250.90" r="2.5" fill="#2563eb"/>
  <circle cx="124.93" cy="251.32" r="2.5" fill="#2563eb"/>
  <circle cx="126.76" cy="249.94" r="2.5" fill="#2563eb"/>
  <circle cx="128.59" cy="300.01" r="2.5" fill="#2563eb"/>
  <circle cx="130.42" cy="299.93" r="2.5" fill="#2563eb"/>
  <circle cx="132.25" cy="251.03" r="2.5" fill="#2563eb"/>
  <circle cx="134.08" cy="300.68" r="2.5" fill="#2563eb"/>
  <circle cx="135.92" cy="250.03" r="2.5" fill="#2563eb"/>
  <circle cx="137.75" cy="200.00" r="2.5" fill="#2563eb"/>
  <circle cx="139.58" cy="249.99" r="2.5" fill="#2563eb"/>
  <circle cx="141.41" cy="250.03" r="2.5" fill="#2563eb"/>
  <circle cx="143.24" cy="250.03" r="2.5" fill="#2563eb"/>
  <circle cx="145.07" cy="250.03" r="2.5" fill="#2563eb"/>
  <circle cx="146.90" cy="300.01" r="2.5" fill="#2563eb"/>
  <circle cx="148.73" cy="200.04" r="2.5" fill="#2563eb"/>
  <circle cx="150.56" cy="250.03" r="2.5" fill="#2563eb"/>
  <circle cx="152.39" cy="250.03" r="2.5" fill="#2563eb"/>
  <circle cx="154.23" cy="250.03" r="2.5" fill="#2563eb"/>
  <circle cx="156.06" cy="249.90" r="2.5" fill="#2563eb"/>
  <circle cx="157.89" cy="250.03" r="2.5" fill="#2563eb"/>
  <circle cx="159.72" cy="250.03" r="2.5" fill="#2563eb"/>
  <circle cx="161.55" cy="250.94" r="2.5" fill="#2563eb"/>
  <circle cx="163.38" cy="250.44" r="2.5" fill="#2563eb"/>
  <circle cx="165.21" cy="250.03" r="2.5" fill="#2563eb"/>
  <circle cx="167.04" cy="250.03" r="2.5" fill="#2563eb"/>
  <circle cx="168.87" cy="300.47" r="2.5" fill="#2563eb"/>
  <circle cx="170.70" cy="300.01" r="2.5" fill="#2563eb"/>
  <circle cx="172.54" cy="300.43" r="2.5" fill="#2563eb"/>
  <circle cx="174.37" cy="250.03" r="2.5" fill="#2563eb"/>
  <circle cx="176.20" cy="249.99" r="2.5" fill="#2563eb"/>
  <circle cx="178.03" cy="300.43" r="2.5" fill="#2563eb"/>
  <circle cx="179.86" cy="249.90" r="2.5" fill="#2563eb"/>
  <circle cx="181.69" cy="249.99" r="2.5" fill="#2563eb"/>
  <circle cx="183.52" cy="249.99" r="2.5" fill="#2563eb"/>
  <circle cx="185.35" cy="200.04" r="2.5" fill="#2563eb"/>
  <circle cx="187.18" cy="300.01" r="2.5" fill="#2563eb"/>
  <circle cx="189.01" cy="300.01" r="2.5" fill="#2563eb"/>
  <circle cx="190.85" cy="300.01" r="2.5" fill="#2563eb"/>
  <circle cx="192.68" cy="249.90" r="2.5" fill="#2563eb"/>
  <circle cx="194.51" cy="300.01" r="2.5" fill="#2563eb"/>
  <circle cx="196.34" cy="250.03" r="2.5" fill="#2563eb"/>
  <circle cx="198.17" cy="249.99" r="2.5" fill="#2563eb"/>
  <circle cx="200.00" cy="199.96" r="2.5" fill="#2563eb"/>
  <circle cx="201.83" cy="300.01" r="2.5" fill="#2563eb"/>
  <circle cx="203.66" cy="200.00" r="2.5" fill="#2563eb"/>
  <circle cx="205.49" cy="250.36" r="2.5" fill="#2563eb"/>
  <circle cx="207.32" cy="250.03" r="2.5" fill="#2563eb"/>
  <circle cx="209.15" cy="300.01" r="2.5" fill="#2563eb"/>
  <circle cx="210.99" cy="300.01" r="2.5" fill="#2563eb"/>
  <circle cx="212.82" cy="250.44" r="2.5" fill="#2563eb"/>
  <circle cx="214.65" cy="300.01" r="2.5" fill="#2563eb"/>
  <circle cx="216.48" cy="250.03" r="2.5" fill="#2563eb"/>
  <circle cx="218.31" cy="250.03" r="2.5" fill="#2563eb"/>
  <circle cx="220.14" cy="249.99" r="2.5" fill="#2563eb"/>
  <circle cx="221.97" cy="250.49" r="2.5" fill="#2563eb"/>
  <circle cx="223.80" cy="250.03" r="2.5" fill="#2563eb"/>
  <circle cx="225.63" cy="200.04" r="2.5" fill="#2563eb"/>
  <circle cx="227.46" cy="300.01" r="2.5" fill="#2563eb"/>
  <circle cx="229.30" cy="250.03" r="2.5" fill="#2563eb"/>
  <circle cx="231.13" cy="300.01" r="2.5" fill="#2563eb"/>
  <circle cx="232.96" cy="250.11" r="2.5" fill="#2563eb"/>
  <circle cx="234.79" cy="300.01" r="2.5" fill="#2563eb"/>
  <circle cx="236.62" cy="250.03" r="2.5" fill="#2563eb"/>
  <circle cx="238.45" cy="250.03" r="2.5" fill="#2563eb"/>
  <circle cx="240.28" cy="199.92" r="2.5" fill="#2563eb"/>
  <circle cx="242.11" cy="250.03" r="2.5" fill="#2563eb"/>
  <circle cx="243.94" cy="250.03" r="2.5" fill="#2563eb"/>
  <circle cx="245.77" cy="250.03" r="2.5" fill="#2563eb"/>
  <circle cx="247.61" cy="254.36" r="2.5" fill="#2563eb"/>
  <circle cx="249.44" cy="300.01" r="2.5" fill="#2563eb"/>
  <circle cx="251.27" cy="299.97" r="2.5" fill="#2563eb"/>
  <circle cx="253.10" cy="250.36" r="2.5" fill="#2563eb"/>
  <circle cx="254.93" cy="299.97" r="2.5" fill="#2563eb"/>
  <circle cx="256.76" cy="250.03" r="2.5" fill="#2563eb"/>
  <circle cx="258.59" cy="250.03" r="2.5" fill="#2563eb"/>
  <circle cx="260.42" cy="250.03" r="2.5" fill="#2563eb"/>
  <circle cx="262.25" cy="250.03" r="2.5" fill="#2563eb"/>
  <circle cx="264.08" cy="249.99" r="2.5" fill="#2563eb"/>
  <circle cx="265.92" cy="200.00" r="2.5" fill="#2563eb"/>
  <circle cx="267.75" cy="299.93" r="2.5" fill="#2563eb"/>
  <circle cx="269.58" cy="300.01" r="2.5" fill="#2563eb"/>
  <circle cx="271.41" cy="299.97" r="2.5" fill="#2563eb"/>
  <circle cx="273.24" cy="249.94" r="2.5" fill="#2563eb"/>
  <circle cx="275.07" cy="249.99" r="2.5" fill="#2563eb"/>
  <circle cx="276.90" cy="249.82" r="2.5" fill="#2563eb"/>
  <circle cx="278.73" cy="249.94" r="2.5" fill="#2563eb"/>
  <circle cx="280.56" cy="250.28" r="2.5" fill="#2563eb"/>
  <circle cx="282.39" cy="207.00" r="2.5" fill="#2563eb"/>
  <circle cx="284.23" cy="250.03" r="2.5" fill="#2563eb"/>
  <circle cx="286.06" cy="250.32" r="2.5" fill="#2563eb"/>
  <circle cx="287.89" cy="250.40" r="2.5" fill="#2563eb"/>
  <circle cx="289.72" cy="300.93" r="2.5" fill="#2563eb"/>
  <circle cx="291.55" cy="300.01" r="2.5" fill="#2563eb"/>
  <circle cx="293.38" cy="300.10" r="2.5" fill="#2563eb"/>
  <circle cx="295.21" cy="249.94" r="2.5" fill="#2563eb"/>
  <circle cx="297.04" cy="249.99" r="2.5" fill="#2563eb"/>
  <circle cx="298.87" cy="250.07" r="2.5" fill="#2563eb"/>
  <circle cx="300.70" cy="249.99" r="2.5" fill="#2563eb"/>
  <circle cx="302.54" cy="250.03" r="2.5" fill="#2563eb"/>
  <circle cx="304.37" cy="249.94" r="2.5" fill="#2563eb"/>
  <circle cx="306.20" cy="200.00" r="2.5" fill="#2563eb"/>
  <circle cx="308.03" cy="300.39" r="2.5" fill="#2563eb"/>
  <circle cx="309.86" cy="300.01" r="2.5" fill="#2563eb"/>
  <circle cx="311.69" cy="300.01" r="2.5" fill="#2563eb"/>
  <circle cx="313.52" cy="250.44" r="2.5" fill="#2563eb"/>
  <circle cx="315.35" cy="300.39" r="2.5" fill="#2563eb"/>
  <circle cx="317.18" cy="249.86" r="2.5" fill="#2563eb"/>
  <circle cx="319.01" cy="250.11" r="2.5" fill="#2563eb"/>
  <circle cx="320.85" cy="201.46" r="2.5" fill="#2563eb"/>
  <circle cx="322.68" cy="300.01" r="2.5" fill="#2563eb"/>
  <circle cx="324.51" cy="200.83" r="2.5" fill="#2563eb"/>
  <circle cx="326.34" cy="250.03" r="2.5" fill="#2563eb"/>
  <circle cx="328.17" cy="249.99" r="2.5" fill="#2563eb"/>
  <circle cx="330.00" cy="300.26" r="2.5" fill="#2563eb"/>
  <circle cx="331.83" cy="300.01" r="2.5" fill="#2563eb"/>
  <circle cx="333.66" cy="300.01" r="2.5" fill="#2563eb"/>
  <circle cx="335.49" cy="250.03" r="2.5" fill="#2563eb"/>
  <circle cx="337.32" cy="250.03" r="2.5" fill="#2563eb"/>
  <circle cx="339.15" cy="250.03" r="2.5" fill="#2563eb"/>
  <circle cx="340.99" cy="250.03" r="2.5" fill="#2563eb"/>
  <circle cx="342.82" cy="249.99" r="2.5" fill="#2563eb"/>
  <circle cx="344.65" cy="250.03" r="2.5" fill="#2563eb"/>
  <circle cx="346.48" cy="200.00" r="2.5" fill="#2563eb"/>
  <circle cx="348.31" cy="300.26" r="2.5" fill="#2563eb"/>
  <circle cx="350.14" cy="249.99" r="2.5" fill="#2563eb"/>
  <circle cx="351.97" cy="300.01" r="2.5" fill="#2563eb"/>
  <circle cx="353.80" cy="249.94" r="2.5" fill="#2563eb"/>
  <circle cx="355.63" cy="250.03" r="2.5" fill="#2563eb"/>
  <circle cx="357.46" cy="250.03" r="2.5" fill="#2563eb"/>
  <circle cx="359.30" cy="250.03" r="2.5" fill="#2563eb"/>
  <circle cx="361.13" cy="200.04" r="2.5" fill="#2563eb"/>
  <circle cx="362.96" cy="300.01" r="2.5" fill="#2563eb"/>
  <circle cx="364.79" cy="249.90" r="2.5" fill="#2563eb"/>
  <circle cx="366.62" cy="300.01" r="2.5" fill="#2563eb"/>
  <circle cx="368.45" cy="300.01" r="2.5" fill="#2563eb"/>
  <circle cx="370.28" cy="300.06" r="2.5" fill="#2563eb"/>
  <circle cx="372.11" cy="300.01" r="2.5" fill="#2563eb"/>
  <circle cx="373.94" cy="300.01" r="2.5" fill="#2563eb"/>
  <circle cx="375.77" cy="243.95" r="2.5" fill="#2563eb"/>
  <circle cx="377.61" cy="249.94" r="2.5" fill="#2563eb"/>
  <circle cx="379.44" cy="299.97" r="2.5" fill="#2563eb"/>
  <circle cx="381.27" cy="300.01" r="2.5" fill="#2563eb"/>
  <circle cx="383.10" cy="300.01" r="2.5" fill="#2563eb"/>
  <circle cx="384.93" cy="250.03" r="2.5" fill="#2563eb"/>
  <circle cx="386.76" cy="300.01" r="2.5" fill="#2563eb"/>
  <circle cx="388.59" cy="300.01" r="2.5" fill="#2563eb"/>
  <circle cx="390.42" cy="299.97" r="2.5" fill="#2563eb"/>
  <circle cx="392.25" cy="249.99" r="2.5" fill="#2563eb"/>
  <circle cx="394.08" cy="300.01" r="2.5" fill="#2563eb"/>
  <circle cx="395.92" cy="299.93" r="2.5" fill="#2563eb"/>
  <circle cx="397.75" cy="300.01" r="2.5" fill="#2563eb"/>
  <circle cx="399.58" cy="299.93" r="2.5" fill="#2563eb"/>
  <circle cx="401.41" cy="300.01" r="2.5" fill="#2563eb"/>
  <circle cx="403.24" cy="300.01" r="2.5" fill="#2563eb"/>
  <circle cx="405.07" cy="299.89" r="2.5" fill="#2563eb"/>
  <circle cx="406.90" cy="299.97" r="2.5" fill="#2563eb"/>
  <circle cx="408.73" cy="250.03" r="2.5" fill="#2563eb"/>
  <circle cx="410.56" cy="299.93" r="2.5" fill="#2563eb"/>
  <circle cx="412.39" cy="299.89" r="2.5" fill="#2563eb"/>
  <circle cx="414.23" cy="299.97" r="2.5" fill="#2563eb"/>
  <circle cx="416.06" cy="249.94" r="2.5" fill="#2563eb"/>
  <circle cx="417.89" cy="300.01" r="2.5" fill="#2563eb"/>
  <circle cx="419.72" cy="300.01" r="2.5" fill="#2563eb"/>
  <circle cx="421.55" cy="299.97" r="2.5" fill="#2563eb"/>
  <circle cx="423.38" cy="249.99" r="2.5" fill="#2563eb"/>
  <circle cx="425.21" cy="299.97" r="2.5" fill="#2563eb"/>
  <circle cx="427.04" cy="299.97" r="2.5" fill="#2563eb"/>
  <circle cx="428.87" cy="300.06" r="2.5" fill="#2563eb"/>
  <circle cx="430.70" cy="300.06" r="2.5" fill="#2563eb"/>
  <circle cx="432.54" cy="299.93" r="2.5" fill="#2563eb"/>
  <circle cx="434.37" cy="300.01" r="2.5" fill="#2563eb"/>
  <circle cx="436.20" cy="300.01" r="2.5" fill="#2563eb"/>
  <circle cx="438.03" cy="299.93" r="2.5" fill="#2563eb"/>
  <circle cx="439.86" cy="300.01" r="2.5" fill="#2563eb"/>
  <circle cx="441.69" cy="300.01" r="2.5" fill="#2563eb"/>
  <circle cx="443.52" cy="299.97" r="2.5" fill="#2563eb"/>
  <circle cx="445.35" cy="300.01" r="2.5" fill="#2563eb"/>
  <circle cx="447.18" cy="300.01" r="2.5" fill="#2563eb"/>
  <circle cx="449.01" cy="300.01" r="2.5" fill="#2563eb"/>
  <circle cx="450.85" cy="300.01" r="2.5" fill="#2563eb"/>
  <circle cx="452.68" cy="249.86" r="2.5" fill="#2563eb"/>
  <circle cx="454.51" cy="300.01" r="2.5" fill="#2563eb"/>
  <circle cx="456.34" cy="300.10" r="2.5" fill="#2563eb"/>
  <circle cx="458.17" cy="299.93" r="2.5" fill="#2563eb"/>
  <circle cx="460.00" cy="300.01" r="2.5" fill="#2563eb"/>
  <circle cx="461.83" cy="299.93" r="2.5" fill="#2563eb"/>
  <circle cx="463.66" cy="300.01" r="2.5" fill="#2563eb"/>
  <circle cx="465.49" cy="300.01" r="2.5" fill="#2563eb"/>
  <circle cx="467.32" cy="300.01" r="2.5" fill="#2563eb"/>
  <circle cx="469.15" cy="300.01" r="2.5" fill="#2563eb"/>
  <circle cx="470.99" cy="300.01" r="2.5" fill="#2563eb"/>
  <circle cx="472.82" cy="299.97" r="2.5" fill="#2563eb"/>
  <circle cx="474.65" cy="300.01" r="2.5" fill="#2563eb"/>
  <circle cx="476.48" cy="300.01" r="2.5" fill="#2563eb"/>
  <circle cx="478.31" cy="300.01" r="2.5" fill="#2563eb"/>
  <circle cx="480.14" cy="300.01" r="2.5" fill="#2563eb"/>
  <circle cx="481.97" cy="250.03" r="2.5" fill="#2563eb"/>
  <circle cx="483.80" cy="300.01" r="2.5" fill="#2563eb"/>
  <circle cx="485.63" cy="300.01" r="2.5" fill="#2563eb"/>
  <circle cx="487.46" cy="299.97" r="2.5" fill="#2563eb"/>
  <circle cx="489.30" cy="300.01" r="2.5" fill="#2563eb"/>
  <circle cx="491.13" cy="300.01" r="2.5" fill="#2563eb"/>
  <circle cx="492.96" cy="299.97" r="2.5" fill="#2563eb"/>
  <circle cx="494.79" cy="299.97" r="2.5" fill="#2563eb"/>
  <circle cx="496.62" cy="300.01" r="2.5" fill="#2563eb"/>
  <circle cx="498.45" cy="299.97" r="2.5" fill="#2563eb"/>
  <circle cx="500.28" cy="300.01" r="2.5" fill="#2563eb"/>
  <circle cx="502.11" cy="299.93" r="2.5" fill="#2563eb"/>
  <circle cx="503.94" cy="300.01" r="2.5" fill="#2563eb"/>
  <circle cx="505.77" cy="250.03" r="2.5" fill="#2563eb"/>
  <circle cx="507.61" cy="300.01" r="2.5" fill="#2563eb"/>
  <circle cx="509.44" cy="300.01" r="2.5" fill="#2563eb"/>
  <circle cx="511.27" cy="300.01" r="2.5" fill="#2563eb"/>
  <circle cx="513.10" cy="300.01" r="2.5" fill="#2563eb"/>
  <circle cx="514.93" cy="300.01" r="2.5" fill="#2563eb"/>
  <circle cx="516.76" cy="299.89" r="2.5" fill="#2563eb"/>
  <circle cx="518.59" cy="300.01" r="2.5" fill="#2563eb"/>
  <circle cx="520.42" cy="300.01" r="2.5" fill="#2563eb"/>
  <circle cx="522.25" cy="250.07" r="2.5" fill="#2563eb"/>
  <circle cx="524.08" cy="300.01" r="2.5" fill="#2563eb"/>
  <circle cx="525.92" cy="299.93" r="2.5" fill="#2563eb"/>
  <circle cx="527.75" cy="300.01" r="2.5" fill="#2563eb"/>
  <circle cx="529.58" cy="299.97" r="2.5" fill="#2563eb"/>
  <circle cx="531.41" cy="299.97" r="2.5" fill="#2563eb"/>
  <circle cx="533.24" cy="299.97" r="2.5" fill="#2563eb"/>
  <circle cx="535.07" cy="250.03" r="2.5" fill="#2563eb"/>
  <circle cx="536.90" cy="300.01" r="2.5" fill="#2563eb"/>
  <circle cx="538.73" cy="300.01" r="2.5" fill="#2563eb"/>
  <circle cx="540.56" cy="300.01" r="2.5" fill="#2563eb"/>
  <circle cx="542.39" cy="300.01" r="2.5" fill="#2563eb"/>
  <circle cx="544.23" cy="299.97" r="2.5" fill="#2563eb"/>
  <circle cx="546.06" cy="300.01" r="2.5" fill="#2563eb"/>
  <circle cx="547.89" cy="299.97" r="2.5" fill="#2563eb"/>
  <circle cx="549.72" cy="300.01" r="2.5" fill="#2563eb"/>
  <circle cx="551.55" cy="299.97" r="2.5" fill="#2563eb"/>
  <circle cx="553.38" cy="249.90" r="2.5" fill="#2563eb"/>
  <circle cx="555.21" cy="300.01" r="2.5" fill="#2563eb"/>
  <circle cx="557.04" cy="300.01" r="2.5" fill="#2563eb"/>
  <circle cx="558.87" cy="299.89" r="2.5" fill="#2563eb"/>
  <circle cx="560.70" cy="299.97" r="2.5" fill="#2563eb"/>
  <circle cx="562.54" cy="299.97" r="2.5" fill="#2563eb"/>
  <circle cx="564.37" cy="249.99" r="2.5" fill="#2563eb"/>
  <circle cx="566.20" cy="299.97" r="2.5" fill="#2563eb"/>
  <circle cx="568.03" cy="299.89" r="2.5" fill="#2563eb"/>
  <circle cx="569.86" cy="300.01" r="2.5" fill="#2563eb"/>
  <circle cx="571.69" cy="299.97" r="2.5" fill="#2563eb"/>
  <circle cx="573.52" cy="299.97" r="2.5" fill="#2563eb"/>
  <circle cx="575.35" cy="300.01" r="2.5" fill="#2563eb"/>
  <circle cx="577.18" cy="299.97" r="2.5" fill="#2563eb"/>
  <circle cx="579.01" cy="249.99" r="2.5" fill="#2563eb"/>
  <circle cx="580.85" cy="299.97" r="2.5" fill="#2563eb"/>
  <circle cx="582.68" cy="299.97" r="2.5" fill="#2563eb"/>
  <circle cx="584.51" cy="300.06" r="2.5" fill="#2563eb"/>
  <circle cx="586.34" cy="300.06" r="2.5" fill="#2563eb"/>
  <circle cx="588.17" cy="249.94" r="2.5" fill="#2563eb"/>
  <circle cx="590.00" cy="300.01" r="2.5" fill="#2563eb"/>
  <circle cx="591.83" cy="299.93" r="2.5" fill="#2563eb"/>
  <circle cx="593.66" cy="300.01" r="2.5" fill="#2563eb"/>
  <circle cx="595.49" cy="300.01" r="2.5" fill="#2563eb"/>
  <circle cx="597.32" cy="249.99" r="2.5" fill="#2563eb"/>
  <circle cx="599.15" cy="300.01" r="2.5" fill="#2563eb"/>
  <circle cx="600.99" cy="300.01" r="2.5" fill="#2563eb"/>
  <circle cx="602.82" cy="300.01" r="2.5" fill="#2563eb"/>
  <circle cx="604.65" cy="299.93" r="2.5" fill="#2563eb"/>
  <circle cx="606.48" cy="299.93" r="2.5" fill="#2563eb"/>
  <circle cx="608.31" cy="300.01" r="2.5" fill="#2563eb"/>
  <circle cx="610.14" cy="300.01" r="2.5" fill="#2563eb"/>
  <circle cx="611.97" cy="249.94" r="2.5" fill="#2563eb"/>
  <circle cx="613.80" cy="299.97" r="2.5" fill="#2563eb"/>
  <circle cx="615.63" cy="299.97" r="2.5" fill="#2563eb"/>
  <circle cx="617.46" cy="300.01" r="2.5" fill="#2563eb"/>
  <circle cx="619.30" cy="300.01" r="2.5" fill="#2563eb"/>
  <circle cx="621.13" cy="300.01" r="2.5" fill="#2563eb"/>
  <circle cx="622.96" cy="249.99" r="2.5" fill="#2563eb"/>
  <circle cx="624.79" cy="300.01" r="2.5" fill="#2563eb"/>
  <circle cx="626.62" cy="300.01" r="2.5" fill="#2563eb"/>
  <circle cx="628.45" cy="300.01" r="2.5" fill="#2563eb"/>
  <circle cx="630.28" cy="250.03" r="2.5" fill="#2563eb"/>
  <circle cx="632.11" cy="300.01" r="2.5" fill="#2563eb"/>
  <circle cx="633.94" cy="300.01" r="2.5" fill="#2563eb"/>
  <circle cx="635.77" cy="300.01" r="2.5" fill="#2563eb"/>
  <circle cx="637.61" cy="299.97" r="2.5" fill="#2563eb"/>
  <circle cx="639.44" cy="300.01" r="2.5" fill="#2563eb"/>
  <circle cx="641.27" cy="300.01" r="2.5" fill="#2563eb"/>
  <circle cx="643.10" cy="299.97" r="2.5" fill="#2563eb"/>
  <circle cx="644.93" cy="299.97" r="2.5" fill="#2563eb"/>
  <circle cx="646.76" cy="300.01" r="2.5" fill="#2563eb"/>
  <circle cx="648.59" cy="300.01" r="2.5" fill="#2563eb"/>
  <circle cx="650.42" cy="299.97" r="2.5" fill="#2563eb"/>
  <circle cx="652.25" cy="299.93" r="2.5" fill="#2563eb"/>
  <circle cx="654.08" cy="300.01" r="2.5" fill="#2563eb"/>
  <circle cx="655.92" cy="300.06" r="2.5" fill="#2563eb"/>
  <circle cx="657.75" cy="299.97" r="2.5" fill="#2563eb"/>
  <circle cx="659.58" cy="300.01" r="2.5" fill="#2563eb"/>
  <circle cx="661.41" cy="250.03" r="2.5" fill="#2563eb"/>
  <circle cx="663.24" cy="250.03" r="2.5" fill="#2563eb"/>
  <circle cx="665.07" cy="299.93" r="2.5" fill="#2563eb"/>
  <circle cx="666.90" cy="299.97" r="2.5" fill="#2563eb"/>
  <circle cx="668.73" cy="300.01" r="2.5" fill="#2563eb"/>
  <circle cx="670.56" cy="300.01" r="2.5" fill="#2563eb"/>
  <circle cx="672.39" cy="300.06" r="2.5" fill="#2563eb"/>
  <circle cx="674.23" cy="300.01" r="2.5" fill="#2563eb"/>
  <circle cx="676.06" cy="299.93" r="2.5" fill="#2563eb"/>
  <circle cx="677.89" cy="300.01" r="2.5" fill="#2563eb"/>
  <circle cx="679.72" cy="300.01" r="2.5" fill="#2563eb"/>
  <circle cx="681.55" cy="299.97" r="2.5" fill="#2563eb"/>
  <circle cx="683.38" cy="299.97" r="2.5" fill="#2563eb"/>
  <circle cx="685.21" cy="300.01" r="2.5" fill="#2563eb"/>
  <circle cx="687.04" cy="250.03" r="2.5" fill="#2563eb"/>
  <circle cx="688.87" cy="300.01" r="2.5" fill="#2563eb"/>
  <circle cx="690.70" cy="300.01" r="2.5" fill="#2563eb"/>
  <circle cx="692.54" cy="300.01" r="2.5" fill="#2563eb"/>
  <circle cx="694.37" cy="299.97" r="2.5" fill="#2563eb"/>
  <circle cx="696.20" cy="300.01" r="2.5" fill="#2563eb"/>
  <circle cx="698.03" cy="299.97" r="2.5" fill="#2563eb"/>
  <circle cx="699.86" cy="300.01" r="2.5" fill="#2563eb"/>
  <circle cx="701.69" cy="299.97" r="2.5" fill="#2563eb"/>
  <circle cx="703.52" cy="299.97" r="2.5" fill="#2563eb"/>
  <circle cx="705.35" cy="299.93" r="2.5" fill="#2563eb"/>
  <circle cx="707.18" cy="300.01" r="2.5" fill="#2563eb"/>
  <circle cx="709.01" cy="300.01" r="2.5" fill="#2563eb"/>
  <circle cx="710.85" cy="299.89" r="2.5" fill="#2563eb"/>
  <circle cx="712.68" cy="299.97" r="2.5" fill="#2563eb"/>
  <circle cx="714.51" cy="299.97" r="2.5" fill="#2563eb"/>
  <circle cx="716.34" cy="300.06" r="2.5" fill="#2563eb"/>
  <circle cx="718.17" cy="249.90" r="2.5" fill="#2563eb"/>
  <circle cx="720.00" cy="299.89" r="2.5" fill="#2563eb"/>
  <circle cx="721.83" cy="300.01" r="2.5" fill="#2563eb"/>
  <circle cx="723.66" cy="299.97" r="2.5" fill="#2563eb"/>
  <circle cx="725.49" cy="299.97" r="2.5" fill="#2563eb"/>
  <circle cx="727.32" cy="299.97" r="2.5" fill="#2563eb"/>
  <circle cx="729.15" cy="300.01" r="2.5" fill="#2563eb"/>
  <circle cx="730.99" cy="300.01" r="2.5" fill="#2563eb"/>
  <circle cx="732.82" cy="299.97" r="2.5" fill="#2563eb"/>
  <circle cx="734.65" cy="299.97" r="2.5" fill="#2563eb"/>
  <circle cx="736.48" cy="299.97" r="2.5" fill="#2563eb"/>
  <circle cx="738.31" cy="250.03" r="2.5" fill="#2563eb"/>
  <circle cx="740.14" cy="299.93" r="2.5" fill="#2563eb"/>
  <circle cx="741.97" cy="300.01" r="2.5" fill="#2563eb"/>
  <circle cx="743.80" cy="300.01" r="2.5" fill="#2563eb"/>
  <circle cx="745.63" cy="299.93" r="2.5" fill="#2563eb"/>
  <circle cx="747.46" cy="300.01" r="2.5" fill="#2563eb"/>
  <circle cx="749.30" cy="300.01" r="2.5" fill="#2563eb"/>
  <circle cx="751.13" cy="299.97" r="2.5" fill="#2563eb"/>
  <circle cx="752.96" cy="300.01" r="2.5" fill="#2563eb"/>
  <circle cx="754.79" cy="300.01" r="2.5" fill="#2563eb"/>
  <circle cx="756.62" cy="300.06" r="2.5" fill="#2563eb"/>
  <circle cx="758.45" cy="300.01" r="2.5" fill="#2563eb"/>
  <circle cx="760.28" cy="299.97" r="2.5" fill="#2563eb"/>
  <circle cx="762.11" cy="299.89" r="2.5" fill="#2563eb"/>
  <circle cx="763.94" cy="300.01" r="2.5" fill="#2563eb"/>
  <circle cx="765.77" cy="300.01" r="2.5" fill="#2563eb"/>
  <circle cx="767.61" cy="249.94" r="2.5" fill="#2563eb"/>
  <circle cx="769.44" cy="249.94" r="2.5" fill="#2563eb"/>
  <circle cx="771.27" cy="300.01" r="2.5" fill="#2563eb"/>
  <circle cx="773.10" cy="300.01" r="2.5" fill="#2563eb"/>
  <circle cx="774.93" cy="300.01" r="2.5" fill="#2563eb"/>
  <circle cx="776.76" cy="300.01" r="2.5" fill="#2563eb"/>
  <circle cx="778.59" cy="299.97" r="2.5" fill="#2563eb"/>
  <circle cx="780.42" cy="250.03" r="2.5" fill="#2563eb"/>
  <circle cx="782.25" cy="300.01" r="2.5" fill="#2563eb"/>
  <circle cx="784.08" cy="300.01" r="2.5" fill="#2563eb"/>
  <circle cx="785.92" cy="300.01" r="2.5" fill="#2563eb"/>
  <circle cx="787.75" cy="300.01" r="2.5" fill="#2563eb"/>
  <circle cx="789.58" cy="250.03" r="2.5" fill="#2563eb"/>
  <circle cx="791.41" cy="249.99" r="2.5" fill="#2563eb"/>
  <circle cx="793.24" cy="300.01" r="2.5" fill="#2563eb"/>
  <circle cx="795.07" cy="299.97" r="2.5" fill="#2563eb"/>
  <circle cx="796.90" cy="300.01" r="2.5" fill="#2563eb"/>
  <circle cx="798.73" cy="299.97" r="2.5" fill="#2563eb"/>
  <circle cx="800.56" cy="300.01" r="2.5" fill="#2563eb"/>
  <circle cx="802.39" cy="299.97" r="2.5" fill="#2563eb"/>
  <circle cx="804.23" cy="299.97" r="2.5" fill="#2563eb"/>
  <circle cx="806.06" cy="299.97" r="2.5" fill="#2563eb"/>
  <circle cx="807.89" cy="300.06" r="2.5" fill="#2563eb"/>
  <circle cx="809.72" cy="249.99" r="2.5" fill="#2563eb"/>
  <circle cx="811.55" cy="300.01" r="2.5" fill="#2563eb"/>
  <circle cx="813.38" cy="250.03" r="2.5" fill="#2563eb"/>
  <circle cx="815.21" cy="249.94" r="2.5" fill="#2563eb"/>
  <circle cx="817.04" cy="249.99" r="2.5" fill="#2563eb"/>
  <circle cx="818.87" cy="300.01" r="2.5" fill="#2563eb"/>
  <circle cx="820.70" cy="300.06" r="2.5" fill="#2563eb"/>
  <circle cx="822.54" cy="300.01" r="2.5" fill="#2563eb"/>
  <circle cx="824.37" cy="299.97" r="2.5" fill="#2563eb"/>
  <circle cx="826.20" cy="299.97" r="2.5" fill="#2563eb"/>
  <circle cx="828.03" cy="300.01" r="2.5" fill="#2563eb"/>
  <circle cx="829.86" cy="299.93" r="2.5" fill="#2563eb"/>
  <circle cx="831.69" cy="299.89" r="2.5" fill="#2563eb"/>
  <circle cx="833.52" cy="299.89" r="2.5" fill="#2563eb"/>
  <circle cx="835.35" cy="299.89" r="2.5" fill="#2563eb"/>
  <circle cx="837.18" cy="299.89" r="2.5" fill="#2563eb"/>
  <circle cx="839.01" cy="299.85" r="2.5" fill="#2563eb"/>
  <circle cx="840.85" cy="299.85" r="2.5" fill="#2563eb"/>
  <circle cx="842.68" cy="299.89" r="2.5" fill="#2563eb"/>
  <circle cx="844.51" cy="299.81" r="2.5" fill="#2563eb"/>
  <circle cx="846.34" cy="299.81" r="2.5" fill="#2563eb"/>
  <circle cx="848.17" cy="299.81" r="2.5" fill="#2563eb"/>
  <circle cx="850.00" cy="299.76" r="2.5" fill="#2563eb"/>
  <circle cx="851.83" cy="299.76" r="2.5" fill="#2563eb"/>
  <circle cx="853.66" cy="299.76" r="2.5" fill="#2563eb"/>
  <circle cx="855.49" cy="299.72" r="2.5" fill="#2563eb"/>
  <circle cx="857.32" cy="299.68" r="2.5" fill="#2563eb"/>
  <circle cx="859.15" cy="299.60" r="2.5" fill="#2563eb"/>
  <circle cx="860.99" cy="299.60" r="2.5" fill="#2563eb"/>
  <circle cx="862.82" cy="299.60" r="2.5" fill="#2563eb"/>
  <circle cx="864.65" cy="299.56" r="2.5" fill="#2563eb"/>
  <circle cx="866.48" cy="299.47" r="2.5" fill="#2563eb"/>
  <circle cx="868.31" cy="299.43" r="2.5" fill="#2563eb"/>
  <circle cx="870.14" cy="299.43" r="2.5" fill="#2563eb"/>
  <circle cx="871.97" cy="299.39" r="2.5" fill="#2563eb"/>
  <circle cx="873.80" cy="299.47" r="2.5" fill="#2563eb"/>
  <circle cx="875.63" cy="259.82" r="2.5" fill="#2563eb"/>
  <circle cx="877.46" cy="338.96" r="2.5" fill="#2563eb"/>
  <circle cx="879.30" cy="299.31" r="2.5" fill="#2563eb"/>
  <circle cx="881.13" cy="299.31" r="2.5" fill="#2563eb"/>
  <circle cx="882.96" cy="299.26" r="2.5" fill="#2563eb"/>
  <circle cx="884.79" cy="299.68" r="2.5" fill="#2563eb"/>
  <circle cx="886.62" cy="299.68" r="2.5" fill="#2563eb"/>
  <circle cx="888.45" cy="299.68" r="2.5" fill="#2563eb"/>
  <circle cx="890.28" cy="299.64" r="2.5" fill="#2563eb"/>
  <circle cx="892.11" cy="299.14" r="2.5" fill="#2563eb"/>
  <circle cx="893.94" cy="299.14" r="2.5" fill="#2563eb"/>
  <circle cx="895.77" cy="299.10" r="2.5" fill="#2563eb"/>
  <circle cx="897.61" cy="299.10" r="2.5" fill="#2563eb"/>
  <circle cx="899.44" cy="299.10" r="2.5" fill="#2563eb"/>
  <circle cx="901.27" cy="248.07" r="2.5" fill="#2563eb"/>
  <circle cx="903.10" cy="299.06" r="2.5" fill="#2563eb"/>
  <circle cx="904.93" cy="299.06" r="2.5" fill="#2563eb"/>
  <circle cx="906.76" cy="299.06" r="2.5" fill="#2563eb"/>
  <circle cx="908.59" cy="299.06" r="2.5" fill="#2563eb"/>
  <circle cx="910.42" cy="299.06" r="2.5" fill="#2563eb"/>
  <circle cx="912.25" cy="298.97" r="2.5" fill="#2563eb"/>
  <circle cx="914.08" cy="298.97" r="2.5" fill="#2563eb"/>
  <circle cx="915.92" cy="298.93" r="2.5" fill="#2563eb"/>
  <circle cx="917.75" cy="298.97" r="2.5" fill="#2563eb"/>
  <circle cx="919.58" cy="298.93" r="2.5" fill="#2563eb"/>
  <circle cx="921.41" cy="298.89" r="2.5" fill="#2563eb"/>
  <circle cx="923.24" cy="298.89" r="2.5" fill="#2563eb"/>
  <circle cx="925.07" cy="298.89" r="2.5" fill="#2563eb"/>
  <circle cx="926.90" cy="298.89" r="2.5" fill="#2563eb"/>
  <circle cx="928.73" cy="247.78" r="2.5" fill="#2563eb"/>
  <circle cx="930.56" cy="298.89" r="2.5" fill="#2563eb"/>
  <circle cx="932.39" cy="298.89" r="2.5" fill="#2563eb"/>
  <circle cx="934.23" cy="298.85" r="2.5" fill="#2563eb"/>
  <circle cx="936.06" cy="298.85" r="2.5" fill="#2563eb"/>
  <circle cx="937.89" cy="298.81" r="2.5" fill="#2563eb"/>
  <circle cx="939.72" cy="298.81" r="2.5" fill="#2563eb"/>
  <circle cx="941.55" cy="298.81" r="2.5" fill="#2563eb"/>
  <circle cx="943.38" cy="298.81" r="2.5" fill="#2563eb"/>
  <circle cx="945.21" cy="298.81" r="2.5" fill="#2563eb"/>
  <circle cx="947.04" cy="298.81" r="2.5" fill="#2563eb"/>
  <circle cx="948.87" cy="298.81" r="2.5" fill="#2563eb"/>
  <circle cx="950.70" cy="298.81" r="2.5" fill="#2563eb"/>
  <circle cx="952.54" cy="298.81" r="2.5" fill="#2563eb"/>
  <circle cx="954.37" cy="298.72" r="2.5" fill="#2563eb"/>
  <circle cx="956.20" cy="247.45" r="2.5" fill="#2563eb"/>
  <circle cx="958.03" cy="247.45" r="2.5" fill="#2563eb"/>
  <circle cx="959.86" cy="298.72" r="2.5" fill="#2563eb"/>
  <circle cx="961.69" cy="298.72" r="2.5" fill="#2563eb"/>
  <circle cx="963.52" cy="298.72" r="2.5" fill="#2563eb"/>
  <circle cx="965.35" cy="298.72" r="2.5" fill="#2563eb"/>
  <circle cx="967.18" cy="298.72" r="2.5" fill="#2563eb"/>
  <circle cx="969.01" cy="298.72" r="2.5" fill="#2563eb"/>
  <circle cx="970.85" cy="247.36" r="2.5" fill="#2563eb"/>
  <circle cx="972.68" cy="298.68" r="2.5" fill="#2563eb"/>
  <circle cx="974.51" cy="247.36" r="2.5" fill="#2563eb"/>
  <circle cx="976.34" cy="247.36" r="2.5" fill="#2563eb"/>
  <circle cx="978.17" cy="247.36" r="2.5" fill="#2563eb"/>
  <circle cx="980.00" cy="298.68" r="2.5" fill="#2563eb"/>
</svg>
