<?xml version="1.0" encoding="UTF-8"?>
<svg xmlns="http://www.w3.org/2000/svg" width="1000" height="420" viewBox="0 0 1000 420">
  <rect width="100%" height="100%" fill="#ffffff"/>
  <text x="70" y="28" font-size="20" font-weight="600">수집 시점 기준 - 시간별 스냅샷</text>
  <text x="70" y="402" font-size="12" fill="#555">스냅샷 수</text>
  <line x1="70" y1="350.00" x2="980" y2="350.00" stroke="#e5e7eb" stroke-width="1"/>
  <text x="62" y="354.00" font-size="11" fill="#6b7280" text-anchor="end">0</text>
  <line x1="70" y1="290.00" x2="980" y2="290.00" stroke="#e5e7eb" stroke-width="1"/>
  <text x="62" y="294.00" font-size="11" fill="#6b7280" text-anchor="end">1,440</text>
  <line x1="70" y1="230.00" x2="980" y2="230.00" stroke="#e5e7eb" stroke-width="1"/>
  <text x="62" y="234.00" font-size="11" fill="#6b7280" text-anchor="end">2,880</text>
  <line x1="70" y1="170.00" x2="980" y2="170.00" stroke="#e5e7eb" stroke-width="1"/>
  <text x="62" y="174.00" font-size="11" fill="#6b7280" text-anchor="end">4,321</text>
  <line x1="70" y1="110.00" x2="980" y2="110.00" stroke="#e5e7eb" stroke-width="1"/>
  <text x="62" y="114.00" font-size="11" fill="#6b7280" text-anchor="end">5,761</text>
  <line x1="70" y1="50.00" x2="980" y2="50.00" stroke="#e5e7eb" stroke-width="1"/>
  <text x="62" y="54.00" font-size="11" fill="#6b7280" text-anchor="end">7,202</text>
  <line x1="70" y1="350" x2="980" y2="350" stroke="#111827" stroke-width="1.2"/>
  <line x1="70" y1="50" x2="70" y2="350" stroke="#111827" stroke-width="1.2"/>
  <line x1="70.00" y1="350" x2="70.00" y2="356" stroke="#9ca3af" stroke-width="1"/>
  <text x="70.00" y="372" font-size="10" fill="#6b7280" text-anchor="middle">2026-02-28 18</text>
  <line x1="144.39" y1="350" x2="144.39" y2="356" stroke="#9ca3af" stroke-width="1"/>
  <text x="144.39" y="372" font-size="10" fill="#6b7280" text-anchor="middle">2026-03-08 22</text>
  <line x1="218.78" y1="350" x2="218.78" y2="356" stroke="#9ca3af" stroke-width="1"/>
  <text x="218.78" y="372" font-size="10" fill="#6b7280" text-anchor="middle">2026-03-10 21</text>
  <line x1="293.17" y1="350" x2="293.17" y2="356" stroke="#9ca3af" stroke-width="1"/>
  <text x="293.17" y="372" font-size="10" fill="#6b7280" text-anchor="middle">2026-03-12 20</text>
  <line x1="367.57" y1="350" x2="367.57" y2="356" stroke="#9ca3af" stroke-width="1"/>
  <text x="367.57" y="372" font-size="10" fill="#6b7280" text-anchor="middle">2026-03-14 23</text>
  <line x1="441.96" y1="350" x2="441.96" y2="356" stroke="#9ca3af" stroke-width="1"/>
  <text x="441.96" y="372" font-size="10" fill="#6b7280" text-anchor="middle">2026-03-17 18</text>
  <line x1="516.35" y1="350" x2="516.35" y2="356" stroke="#9ca3af" stroke-width="1"/>
  <text x="516.35" y="372" font-size="10" fill="#6b7280" text-anchor="middle">2026-03-20 14</text>
  <line x1="590.74" y1="350" x2="590.74" y2="356" stroke="#9ca3af" stroke-width="1"/>
  <text x="590.74" y="372" font-size="10" fill="#6b7280" text-anchor="middle">2026-03-22 22</text>
  <line x1="665.13" y1="350" x2="665.13" y2="356" stroke="#9ca3af" stroke-width="1"/>
  <text x="665.13" y="372" font-size="10" fill="#6b7280" text-anchor="middle">2026-03-25 19</text>
  <line x1="739.52" y1="350" x2="739.52" y2="356" stroke="#9ca3af" stroke-width="1"/>
  <text x="739.52" y="372" font-size="10" fill="#6b7280" text-anchor="middle">2026-03-28 18</text>
  <line x1="813.92" y1="350" x2="813.92" y2="356" stroke="#9ca3af" stroke-width="1"/>
  <text x="813.92" y="372" font-size="10" fill="#6b7280" text-anchor="middle">2026-03-31 16</text>
  <line x1="888.31" y1="350" x2="888.31" y2="356" stroke="#9ca3af" stroke-width="1"/>
  <text x="888.31" y="372" font-size="10" fill="#6b7280" text-anchor="middle">2026-04-03 18</text>
  <line x1="962.70" y1="350" x2="962.70" y2="356" stroke="#9ca3af" stroke-width="1"/>
  <text x="962.70" y="372" font-size="10" fill="#6b7280" text-anchor="middle">2026-04-06 15</text>
  <line x1="980.00" y1="350" x2="980.00" y2="356" stroke="#9ca3af" stroke-width="1"/>
  <text x="980.00" y="372" font-size="10" fill="#6b7280" text-anchor="middle">2026-04-07 04</text>
  <polyline fill="none" stroke="#2563eb" stroke-width="2.5" points="70.00,50.00 71.73,50.12 73.46,50.17 75.19,50.46 76.92,50.00 78.65,266.90 80.38,50.12 82.11,50.08 83.84,177.46 85.57,211.58 87.30,175.34 89.03,304.14 90.76,200.46 92.49,250.94 94.22,300.01 95.95,300.06 97.68,300.01 99.41,300.01 101.14,348.00 102.87,300.01 104.60,249.99 106.33,200.00 108.06,249.99 109.79,249.99 111.52,250.03 113.25,250.03 114.98,250.03 116.71,250.40 118.44,250.90 120.17,250.90 121.90,251.32 123.63,249.94 125.36,300.01 127.09,299.93 128.82,251.03 130.55,300.68 132.28,250.03 134.01,200.00 135.74,249.99 137.47,250.03 139.20,250.03 140.93,250.03 142.66,300.01 144.39,200.04 146.12,250.03 147.85,250.03 149.58,250.03 151.31,249.90 153.04,250.03 154.77,250.03 156.50,250.94 158.23,250.44 159.96,250.03 161.69,250.03 163.42,300.47 165.15,300.01 166.88,300.43 168.61,250.03 170.34,249.99 172.07,300.43 173.80,249.90 175.53,249.99 177.26,249.99 178.99,200.04 180.72,300.01 182.45,300.01 184.18,300.01 185.91,249.90 187.64,300.01 189.37,250.03 191.10,249.99 192.83,199.96 194.56,300.01 196.29,200.00 198.02,250.36 199.75,250.03 201.48,300.01 203.21,300.01 204.94,250.44 206.67,300.01 208.40,250.03 210.13,250.03 211.86,249.99 213.59,250.49 215.32,250.03 217.05,200.04 218.78,300.01 220.51,250.03 222.24,300.01 223.97,250.11 225.70,300.01 227.43,250.03 229.16,250.03 230.89,199.92 232.62,250.03 234.35,250.03 236.08,250.03 237.81,254.36 239.54,300.01 241.27,299.97 243.00,250.36 244.73,299.97 246.46,250.03 248.19,250.03 249.92,250.03 251.65,250.03 253.38,249.99 255.11,200.00 256.84,299.93 258.57,300.01 260.30,299.97 262.03,249.94 263.76,249.99 265.49,249.82 267.22,249.94 268.95,250.28 270.68,207.00 272.41,250.03 274.14,250.32 275.87,250.40 277.60,300.93 279.33,300.01 281.06,300.10 282.79,249.94 284.52,249.99 286.25,250.07 287.98,249.99 289.71,250.03 291.44,249.94 293.17,200.00 294.90,300.39 296.63,300.01 298.37,300.01 300.10,250.44 301.83,300.39 303.56,249.86 305.29,250.11 307.02,201.46 308.75,300.01 310.48,200.83 312.21,250.03 313.94,249.99 315.67,300.26 317.40,300.01 319.13,300.01 320.86,250.03 322.59,250.03 324.32,250.03 326.05,250.03 327.78,249.99 329.51,250.03 331.24,200.00 332.97,300.26 334.70,249.99 336.43,300.01 338.16,249.94 339.89,250.03 341.62,250.03 343.35,250.03 345.08,200.04 346.81,300.01 348.54,249.90 350.27,300.01 352.00,300.01 353.73,300.06 355.46,300.01 357.19,300.01 358.92,243.95 360.65,249.94 362.38,299.97 364.11,300.01 365.84,300.01 367.57,250.03 369.30,300.01 371.03,300.01 372.76,299.97 374.49,249.99 376.22,300.01 377.95,299.93 379.68,300.01 381.41,299.93 383.14,300.01 384.87,300.01 386.60,299.89 388.33,299.97 390.06,250.03 391.79,299.93 393.52,299.89 395.25,299.97 396.98,249.94 398.71,300.01 400.44,300.01 402.17,299.97 403.90,249.99 405.63,299.97 407.36,299.97 409.09,300.06 410.82,300.06 412.55,299.93 414.28,300.01 416.01,300.01 417.74,299.93 419.47,300.01 421.20,300.01 422.93,299.97 424.66,300.01 426.39,300.01 428.12,300.01 429.85,300.01 431.58,249.86 433.31,300.01 435.04,300.10 436.77,299.93 438.50,300.01 440.23,299.93 441.96,300.01 443.69,300.01 445.42,300.01 447.15,300.01 448.88,300.01 450.61,299.97 452.34,300.01 454.07,300.01 455.80,300.01 457.53,300.01 459.26,250.03 460.99,300.01 462.72,300.01 464.45,299.97 466.18,300.01 467.91,300.01 469.64,299.97 471.37,299.97 473.10,300.01 474.83,299.97 476.56,300.01 478.29,299.93 480.02,300.01 481.75,250.03 483.48,300.01 485.21,300.01 486.94,300.01 488.67,300.01 490.40,300.01 492.13,299.89 493.86,300.01 495.59,300.01 497.32,250.07 499.05,300.01 500.78,299.93 502.51,300.01 504.24,299.97 505.97,299.97 507.70,299.97 509.43,250.03 511.16,300.01 512.89,300.01 514.62,300.01 516.35,300.01 518.08,299.97 519.81,300.01 521.54,299.97 523.27,300.01 525.00,299.97 526.73,249.90 528.46,300.01 530.19,300.01 531.92,299.89 533.65,299.97 535.38,299.97 537.11,249.99 538.84,299.97 540.57,299.89 542.30,300.01 544.03,299.97 545.76,299.97 547.49,300.01 549.22,299.97 550.95,249.99 552.68,299.97 554.41,299.97 556.14,300.06 557.87,300.06 559.60,249.94 561.33,300.01 563.06,299.93 564.79,300.01 566.52,300.01 568.25,249.99 569.98,300.01 571.71,300.01 573.44,300.01 575.17,299.93 576.90,299.93 578.63,300.01 580.36,300.01 582.09,249.94 583.82,299.97 585.55,299.97 587.28,300.01 589.01,300.01 590.74,300.01 592.47,249.99 594.20,300.01 595.93,300.01 597.66,300.01 599.39,250.03 601.12,300.01 602.85,300.01 604.58,300.01 606.31,299.97 608.04,300.01 609.77,300.01 611.50,299.97 613.23,299.97 614.96,300.01 616.69,300.01 618.42,299.97 620.15,299.93 621.88,300.01 623.61,300.06 625.34,299.97 627.07,300.01 628.80,250.03 630.53,250.03 632.26,299.93 633.99,299.97 635.72,300.01 637.45,300.01 639.18,300.06 640.91,300.01 642.64,299.93 644.37,300.01 646.10,300.01 647.83,299.97 649.56,299.97 651.29,300.01 653.02,250.03 654.75,300.01 656.48,300.01 658.21,300.01 659.94,299.97 661.67,300.01 663.40,299.97 665.13,300.01 666.86,299.97 668.59,299.97 670.32,299.93 672.05,300.01 673.78,300.01 675.51,299.89 677.24,299.97 678.97,299.97 680.70,300.06 682.43,249.90 684.16,299.89 685.89,300.01 687.62,299.97 689.35,299.97 691.08,299.97 692.81,300.01 694.54,300.01 696.27,299.97 698.00,299.97 699.73,299.97 701.46,250.03 703.19,299.93 704.92,300.01 706.65,300.01 708.38,299.93 710.11,300.01 711.84,300.01 713.57,299.97 715.30,300.01 717.03,300.01 718.76,300.06 720.49,300.01 722.22,299.97 723.95,299.89 725.68,300.01 727.41,300.01 729.14,249.94 730.87,249.94 732.60,300.01 734.33,300.01 736.06,300.01 737.79,300.01 739.52,299.97 741.25,250.03 742.98,300.01 744.71,300.01 746.44,300.01 748.17,300.01 749.90,250.03 751.63,249.99 753.37,300.01 755.10,299.97 756.83,300.01 758.56,299.97 760.29,300.01 762.02,299.97 763.75,299.97 765.48,299.97 767.21,300.06 768.94,249.99 770.67,300.01 772.40,250.03 774.13,249.94 775.86,249.99 777.59,300.01 779.32,300.06 781.05,300.01 782.78,299.97 784.51,299.97 786.24,300.01 787.97,299.93 789.70,299.89 791.43,299.89 793.16,299.89 794.89,299.89 796.62,299.85 798.35,299.85 800.08,299.89 801.81,299.81 803.54,299.81 805.27,299.81 807.00,299.76 808.73,299.76 810.46,299.76 812.19,299.72 813.92,299.68 815.65,299.60 817.38,299.60 819.11,299.60 820.84,299.56 822.57,299.47 824.30,299.43 826.03,299.43 827.76,299.39 829.49,299.47 831.22,259.82 832.95,338.96 834.68,299.31 836.41,299.31 838.14,299.26 839.87,299.68 841.60,299.68 843.33,299.68 845.06,299.64 846.79,299.14 848.52,299.14 850.25,299.10 851.98,299.10 853.71,299.10 855.44,248.07 857.17,299.06 858.90,299.06 860.63,299.06 862.36,299.06 864.09,299.06 865.82,298.97 867.55,298.97 869.28,298.93 871.01,298.97 872.74,298.93 874.47,298.89 876.20,298.89 877.93,298.89 879.66,298.89 881.39,247.78 883.12,298.89 884.85,298.89 886.58,298.85 888.31,298.85 890.04,298.81 891.77,298.81 893.50,298.81 895.23,298.81 896.96,298.81 898.69,298.81 900.42,298.81 902.15,298.81 903.88,298.81 905.61,298.72 907.34,247.45 909.07,247.45 910.80,298.72 912.53,298.72 914.26,298.72 915.99,298.72 917.72,298.72 919.45,298.72 921.18,247.36 922.91,298.68 924.64,247.36 926.37,247.36 928.10,247.36 929.83,298.68 931.56,298.68 933.29,298.68 935.02,298.68 936.75,298.68 938.48,341.67 940.21,307.01 941.94,298.68 943.67,298.68 945.40,298.68 947.13,247.36 948.86,298.64 950.59,247.36 952.32,247.28 954.05,247.20 955.78,298.60 957.51,298.60 959.24,247.03 960.97,298.51 962.70,298.51 964.43,298.51 966.16,298.51 967.89,298.51 969.62,298.51 971.35,298.51 973.08,298.51 974.81,298.51 976.54,298.51 978.27,298.51 980.00,298.51"/>
  <circle cx="70.00" cy="50.00" r="2.5" fill="#2563eb"/>
  <circle cx="71.73" cy="50.12" r="2.5" fill="#2563eb"/>
  <circle cx="73.46" cy="50.17" r="2.5" fill="#2563eb"/>
  <circle cx="75.19" cy="50.46" r="2.5" fill="#2563eb"/>
  <circle cx="76.92" cy="50.00" r="2.5" fill="#2563eb"/>
  <circle cx="78.65" cy="266.90" r="2.5" fill="#2563eb"/>
  <circle cx="80.38" cy="50.12" r="2.5" fill="#2563eb"/>
  <circle cx="82.11" cy="50.08" r="2.5" fill="#2563eb"/>
  <circle cx="83.84" cy="177.46" r="2.5" fill="#2563eb"/>
  <circle cx="85.57" cy="211.58" r="2.5" fill="#2563eb"/>
  <circle cx="87.30" cy="175.34" r="2.5" fill="#2563eb"/>
  <circle cx="89.03" cy="304.14" r="2.5" fill="#2563eb"/>
  <circle cx="90.76" cy="200.46" r="2.5" fill="#2563eb"/>
  <circle cx="92.49" cy="250.94" r="2.5" fill="#2563eb"/>
  <circle cx="94.22" cy="300.01" r="2.5" fill="#2563eb"/>
  <circle cx="95.95" cy="300.06" r="2.5" fill="#2563eb"/>
  <circle cx="97.68" cy="300.01" r="2.5" fill="#2563eb"/>
  <circle cx="99.41" cy="300.01" r="2.5" fill="#2563eb"/>
  <circle cx="101.14" cy="348.00" r="2.5" fill="#2563eb"/>
  <circle cx="102.87" cy="300.01" r="2.5" fill="#2563eb"/>
  <circle cx="104.60" cy="249.99" r="2.5" fill="#2563eb"/>
  <circle cx="106.33" cy="200.00" r="2.5" fill="#2563eb"/>
  <circle cx="108.06" cy="249.99" r="2.5" fill="#2563eb"/>
  <circle cx="109.79" cy="249.99" r="2.5" fill="#2563eb"/>
  <circle cx="111.52" cy="250.03" r="2.5" fill="#2563eb"/>
  <circle cx="113.25" cy="250.03" r="2.5" fill="#2563eb"/>
  <circle cx="114.98" cy="250.03" r="2.5" fill="#2563eb"/>
  <circle cx="116.71" cy="250.40" r="2.5" fill="#2563eb"/>
  <circle cx="118.44" cy="250.90" r="2.5" fill="#2563eb"/>
  <circle cx="120.17" cy="250.90" r="2.5" fill="#2563eb"/>
  <circle cx="121.90" cy="251.32" r="2.5" fill="#2563eb"/>
  <circle cx="123.63" cy="249.94" r="2.5" fill="#2563eb"/>
  <circle cx="125.36" cy="300.01" r="2.5" fill="#2563eb"/>
  <circle cx="127.09" cy="299.93" r="2.5" fill="#2563eb"/>
  <circle cx="128.82" cy="251.03" r="2.5" fill="#2563eb"/>
  <circle cx="130.55" cy="300.68" r="2.5" fill="#2563eb"/>
  <circle cx="132.28" cy="250.03" r="2.5" fill="#2563eb"/>
  <circle cx="134.01" cy="200.00" r="2.5" fill="#2563eb"/>
  <circle cx="135.74" cy="249.99" r="2.5" fill="#2563eb"/>
  <circle cx="137.47" cy="250.03" r="2.5" fill="#2563eb"/>
  <circle cx="139.20" cy="250.03" r="2.5" fill="#2563eb"/>
  <circle cx="140.93" cy="250.03" r="2.5" fill="#2563eb"/>
  <circle cx="142.66" cy="300.01" r="2.5" fill="#2563eb"/>
  <circle cx="144.39" cy="200.04" r="2.5" fill="#2563eb"/>
  <circle cx="146.12" cy="250.03" r="2.5" fill="#2563eb"/>
  <circle cx="147.85" cy="250.03" r="2.5" fill="#2563eb"/>
  <circle cx="149.58" cy="250.03" r="2.5" fill="#2563eb"/>
  <circle cx="151.31" cy="249.90" r="2.5" fill="#2563eb"/>
  <circle cx="153.04" cy="250.03" r="2.5" fill="#2563eb"/>
  <circle cx="154.77" cy="250.03" r="2.5" fill="#2563eb"/>
  <circle cx="156.50" cy="250.94" r="2.5" fill="#2563eb"/>
  <circle cx="158.23" cy="250.44" r="2.5" fill="#2563eb"/>
  <circle cx="159.96" cy="250.03" r="2.5" fill="#2563eb"/>
  <circle cx="161.69" cy="250.03" r="2.5" fill="#2563eb"/>
  <circle cx="163.42" cy="300.47" r="2.5" fill="#2563eb"/>
  <circle cx="165.15" cy="300.01" r="2.5" fill="#2563eb"/>
  <circle cx="166.88" cy="300.43" r="2.5" fill="#2563eb"/>
  <circle cx="168.61" cy="250.03" r="2.5" fill="#2563eb"/>
  <circle cx="170.34" cy="249.99" r="2.5" fill="#2563eb"/>
  <circle cx="172.07" cy="300.43" r="2.5" fill="#2563eb"/>
  <circle cx="173.80" cy="249.90" r="2.5" fill="#2563eb"/>
  <circle cx="175.53" cy="249.99" r="2.5" fill="#2563eb"/>
  <circle cx="177.26" cy="249.99" r="2.5" fill="#2563eb"/>
  <circle cx="178.99" cy="200.04" r="2.5" fill="#2563eb"/>
  <circle cx="180.72" cy="300.01" r="2.5" fill="#2563eb"/>
  <circle cx="182.45" cy="300.01" r="2.5" fill="#2563eb"/>
  <circle cx="184.18" cy="300.01" r="2.5" fill="#2563eb"/>
  <circle cx="185.91" cy="249.90" r="2.5" fill="#2563eb"/>
  <circle cx="187.64" cy="300.01" r="2.5" fill="#2563eb"/>
  <circle cx="189.37" cy="250.03" r="2.5" fill="#2563eb"/>
  <circle cx="191.10" cy="249.99" r="2.5" fill="#2563eb"/>
  <circle cx="192.83" cy="199.96" r="2.5" fill="#2563eb"/>
  <circle cx="194.56" cy="300.01" r="2.5" fill="#2563eb"/>
  <circle cx="196.29" cy="200.00" r="2.5" fill="#2563eb"/>
  <circle cx="198.02" cy="250.36" r="2.5" fill="#2563eb"/>
  <circle cx="199.75" cy="250.03" r="2.5" fill="#2563eb"/>
  <circle cx="201.48" cy="300.01" r="2.5" fill="#2563eb"/>
  <circle cx="203.21" cy="300.01" r="2.5" fill="#2563eb"/>
  <circle cx="204.94" cy="250.44" r="2.5" fill="#2563eb"/>
  <circle cx="206.67" cy="300.01" r="2.5" fill="#2563eb"/>
  <circle cx="208.40" cy="250.03" r="2.5" fill="#2563eb"/>
  <circle cx="210.13" cy="250.03" r="2.5" fill="#2563eb"/>
  <circle cx="211.86" cy="249.99" r="2.5" fill="#2563eb"/>
  <circle cx="213.59" cy="250.49" r="2.5" fill="#2563eb"/>
  <circle cx="215.32" cy="250.03" r="2.5" fill="#2563eb"/>
  <circle cx="217.05" cy="200.04" r="2.5" fill="#2563eb"/>
  <circle cx="218.78" cy="300.01" r="2.5" fill="#2563eb"/>
  <circle cx="220.51" cy="250.03" r="2.5" fill="#2563eb"/>
  <circle cx="222.24" cy="300.01" r="2.5" fill="#2563eb"/>
  <circle cx="223.97" cy="250.11" r="2.5" fill="#2563eb"/>
  <circle cx="225.70" cy="300.01" r="2.5" fill="#2563eb"/>
  <circle cx="227.43" cy="250.03" r="2.5" fill="#2563eb"/>
  <circle cx="229.16" cy="250.03" r="2.5" fill="#2563eb"/>
  <circle cx="230.89" cy="199.92" r="2.5" fill="#2563eb"/>
  <circle cx="232.62" cy="250.03" r="2.5" fill="#2563eb"/>
  <circle cx="234.35" cy="250.03" r="2.5" fill="#2563eb"/>
  <circle cx="236.08" cy="250.03" r="2.5" fill="#2563eb"/>
  <circle cx="237.81" cy="254.36" r="2.5" fill="#2563eb"/>
  <circle cx="239.54" cy="300.01" r="2.5" fill="#2563eb"/>
  <circle cx="241.27" cy="299.97" r="2.5" fill="#2563eb"/>
  <circle cx="243.00" cy="250.36" r="2.5" fill="#2563eb"/>
  <circle cx="244.73" cy="299.97" r="2.5" fill="#2563eb"/>
  <circle cx="246.46" cy="250.03" r="2.5" fill="#2563eb"/>
  <circle cx="248.19" cy="250.03" r="2.5" fill="#2563eb"/>
  <circle cx="249.92" cy="250.03" r="2.5" fill="#2563eb"/>
  <circle cx="251.65" cy="250.03" r="2.5" fill="#2563eb"/>
  <circle cx="253.38" cy="249.99" r="2.5" fill="#2563eb"/>
  <circle cx="255.11" cy="200.00" r="2.5" fill="#2563eb"/>
  <circle cx="256.84" cy="299.93" r="2.5" fill="#2563eb"/>
  <circle cx="258.57" cy="300.01" r="2.5" fill="#2563eb"/>
  <circle cx="260.30" cy="299.97" r="2.5" fill="#2563eb"/>
  <circle cx="262.03" cy="249.94" r="2.5" fill="#2563eb"/>
  <circle cx="263.76" cy="249.99" r="2.5" fill="#2563eb"/>
  <circle cx="265.49" cy="249.82" r="2.5" fill="#2563eb"/>
  <circle cx="267.22" cy="249.94" r="2.5" fill="#2563eb"/>
  <circle cx="268.95" cy="250.28" r="2.5" fill="#2563eb"/>
  <circle cx="270.68" cy="207.00" r="2.5" fill="#2563eb"/>
  <circle cx="272.41" cy="250.03" r="2.5" fill="#2563eb"/>
  <circle cx="274.14" cy="250.32" r="2.5" fill="#2563eb"/>
  <circle cx="275.87" cy="250.40" r="2.5" fill="#2563eb"/>
  <circle cx="277.60" cy="300.93" r="2.5" fill="#2563eb"/>
  <circle cx="279.33" cy="300.01" r="2.5" fill="#2563eb"/>
  <circle cx="281.06" cy="300.10" r="2.5" fill="#2563eb"/>
  <circle cx="282.79" cy="249.94" r="2.5" fill="#2563eb"/>
  <circle cx="284.52" cy="249.99" r="2.5" fill="#2563eb"/>
  <circle cx="286.25" cy="250.07" r="2.5" fill="#2563eb"/>
  <circle cx="287.98" cy="249.99" r="2.5" fill="#2563eb"/>
  <circle cx="289.71" cy="250.03" r="2.5" fill="#2563eb"/>
  <circle cx="291.44" cy="249.94" r="2.5" fill="#2563eb"/>
  <circle cx="293.17" cy="200.00" r="2.5" fill="#2563eb"/>
  <circle cx="294.90" cy="300.39" r="2.5" fill="#2563eb"/>
  <circle cx="296.63" cy="300.01" r="2.5" fill="#2563eb"/>
  <circle cx="298.37" cy="300.01" r="2.5" fill="#2563eb"/>
  <circle cx="300.10" cy="250.44" r="2.5" fill="#2563eb"/>
  <circle cx="301.83" cy="300.39" r="2.5" fill="#2563eb"/>
  <circle cx="303.56" cy="249.86" r="2.5" fill="#2563eb"/>
  <circle cx="305.29" cy="250.11" r="2.5" fill="#2563eb"/>
  <circle cx="307.02" cy="201.46" r="2.5" fill="#2563eb"/>
  <circle cx="308.75" cy="300.01" r="2.5" fill="#2563eb"/>
  <circle cx="310.48" cy="200.83" r="2.5" fill="#2563eb"/>
  <circle cx="312.21" cy="250.03" r="2.5" fill="#2563eb"/>
  <circle cx="313.94" cy="249.99" r="2.5" fill="#2563eb"/>
  <circle cx="315.67" cy="300.26" r="2.5" fill="#2563eb"/>
  <circle cx="317.40" cy="300.01" r="2.5" fill="#2563eb"/>
  <circle cx="319.13" cy="300.01" r="2.5" fill="#2563eb"/>
  <circle cx="320.86" cy="250.03" r="2.5" fill="#2563eb"/>
  <circle cx="322.59" cy="250.03" r="2.5" fill="#2563eb"/>
  <circle cx="324.32" cy="250.03" r="2.5" fill="#2563eb"/>
  <circle cx="326.05" cy="250.03" r="2.5" fill="#2563eb"/>
  <circle cx="327.78" cy="249.99" r="2.5" fill="#2563eb"/>
  <circle cx="329.51" cy="250.03" r="2.5" fill="#2563eb"/>
  <circle cx="331.24" cy="200.00" r="2.5" fill="#2563eb"/>
  <circle cx="332.97" cy="300.26" r="2.5" fill="#2563eb"/>
  <circle cx="334.70" cy="249.99" r="2.5" fill="#2563eb"/>
  <circle cx="336.43" cy="300.01" r="2.5" fill="#2563eb"/>
  <circle cx="338.16" cy="249.94" r="2.5" fill="#2563eb"/>
  <circle cx="339.89" cy="250.03" r="2.5" fill="#2563eb"/>
  <circle cx="341.62" cy="250.03" r="2.5" fill="#2563eb"/>
  <circle cx="343.35" cy="250.03" r="2.5" fill="#2563eb"/>
  <circle cx="345.08" cy="200.04" r="2.5" fill="#2563eb"/>
  <circle cx="346.81" cy="300.01" r="2.5" fill="#2563eb"/>
  <circle cx="348.54" cy="249.90" r="2.5" fill="#2563eb"/>
  <circle cx="350.27" cy="300.01" r="2.5" fill="#2563eb"/>
  <circle cx="352.00" cy="300.01" r="2.5" fill="#2563eb"/>
  <circle cx="353.73" cy="300.06" r="2.5" fill="#2563eb"/>
  <circle cx="355.46" cy="300.01" r="2.5" fill="#2563eb"/>
  <circle cx="357.19" cy="300.01" r="2.5" fill="#2563eb"/>
  <circle cx="358.92" cy="243.95" r="2.5" fill="#2563eb"/>
  <circle cx="360.65" cy="249.94" r="2.5" fill="#2563eb"/>
  <circle cx="362.38" cy="299.97" r="2.5" fill="#2563eb"/>
  <circle cx="364.11" cy="300.01" r="2.5" fill="#2563eb"/>
  <circle cx="365.84" cy="300.01" r="2.5" fill="#2563eb"/>
  <circle cx="367.57" cy="250.03" r="2.5" fill="#2563eb"/>
  <circle cx="369.30" cy="300.01" r="2.5" fill="#2563eb"/>
  <circle cx="371.03" cy="300.01" r="2.5" fill="#2563eb"/>
  <circle cx="372.76" cy="299.97" r="2.5" fill="#2563eb"/>
  <circle cx="374.49" cy="249.99" r="2.5" fill="#2563eb"/>
  <circle cx="376.22" cy="300.01" r="2.5" fill="#2563eb"/>
  <circle cx="377.95" cy="299.93" r="2.5" fill="#2563eb"/>
  <circle cx="379.68" cy="300.01" r="2.5" fill="#2563eb"/>
  <circle cx="381.41" cy="299.93" r="2.5" fill="#2563eb"/>
  <circle cx="383.14" cy="300.01" r="2.5" fill="#2563eb"/>
  <circle cx="384.87" cy="300.01" r="2.5" fill="#2563eb"/>
  <circle cx="386.60" cy="299.89" r="2.5" fill="#2563eb"/>
  <circle cx="388.33" cy="299.97" r="2.5" fill="#2563eb"/>
  <circle cx="390.06" cy="250.03" r="2.5" fill="#2563eb"/>
  <circle cx="391.79" cy="299.93" r="2.5" fill="#2563eb"/>
  <circle cx="393.52" cy="299.89" r="2.5" fill="#2563eb"/>
  <circle cx="395.25" cy="299.97" r="2.5" fill="#2563eb"/>
  <circle cx="396.98" cy="249.94" r="2.5" fill="#2563eb"/>
  <circle cx="398.71" cy="300.01" r="2.5" fill="#2563eb"/>
  <circle cx="400.44" cy="300.01" r="2.5" fill="#2563eb"/>
  <circle cx="402.17" cy="299.97" r="2.5" fill="#2563eb"/>
  <circle cx="403.90" cy="249.99" r="2.5" fill="#2563eb"/>
  <circle cx="405.63" cy="299.97" r="2.5" fill="#2563eb"/>
  <circle cx="407.36" cy="299.97" r="2.5" fill="#2563eb"/>
  <circle cx="409.09" cy="300.06" r="2.5" fill="#2563eb"/>
  <circle cx="410.82" cy="300.06" r="2.5" fill="#2563eb"/>
  <circle cx="412.55" cy="299.93" r="2.5" fill="#2563eb"/>
  <circle cx="414.28" cy="300.01" r="2.5" fill="#2563eb"/>
  <circle cx="416.01" cy="300.01" r="2.5" fill="#2563eb"/>
  <circle cx="417.74" cy="299.93" r="2.5" fill="#2563eb"/>
  <circle cx="419.47" cy="300.01" r="2.5" fill="#2563eb"/>
  <circle cx="421.20" cy="300.01" r="2.5" fill="#2563eb"/>
  <circle cx="422.93" cy="299.97" r="2.5" fill="#2563eb"/>
  <circle cx="424.66" cy="300.01" r="2.5" fill="#2563eb"/>
  <circle cx="426.39" cy="300.01" r="2.5" fill="#2563eb"/>
  <circle cx="428.12" cy="300.01" r="2.5" fill="#2563eb"/>
  <circle cx="429.85" cy="300.01" r="2.5" fill="#2563eb"/>
  <circle cx="431.58" cy="249.86" r="2.5" fill="#2563eb"/>
  <circle cx="433.31" cy="300.01" r="2.5" fill="#2563eb"/>
  <circle cx="435.04" cy="300.10" r="2.5" fill="#2563eb"/>
  <circle cx="436.77" cy="299.93" r="2.5" fill="#2563eb"/>
  <circle cx="438.50" cy="300.01" r="2.5" fill="#2563eb"/>
  <circle cx="440.23" cy="299.93" r="2.5" fill="#2563eb"/>
  <circle cx="441.96" cy="300.01" r="2.5" fill="#2563eb"/>
  <circle cx="443.69" cy="300.01" r="2.5" fill="#2563eb"/>
  <circle cx="445.42" cy="300.01" r="2.5" fill="#2563eb"/>
  <circle cx="447.15" cy="300.01" r="2.5" fill="#2563eb"/>
  <circle cx="448.88" cy="300.01" r="2.5" fill="#2563eb"/>
  <circle cx="450.61" cy="299.97" r="2.5" fill="#2563eb"/>
  <circle cx="452.34" cy="300.01" r="2.5" fill="#2563eb"/>
  <circle cx="454.07" cy="300.01" r="2.5" fill="#2563eb"/>
  <circle cx="455.80" cy="300.01" r="2.5" fill="#2563eb"/>
  <circle cx="457.53" cy="300.01" r="2.5" fill="#2563eb"/>
  <circle cx="459.26" cy="250.03" r="2.5" fill="#2563eb"/>
  <circle cx="460.99" cy="300.01" r="2.5" fill="#2563eb"/>
  <circle cx="462.72" cy="300.01" r="2.5" fill="#2563eb"/>
  <circle cx="464.45" cy="299.97" r="2.5" fill="#2563eb"/>
  <circle cx="466.18" cy="300.01" r="2.5" fill="#2563eb"/>
  <circle cx="467.91" cy="300.01" r="2.5" fill="#2563eb"/>
  <circle cx="469.64" cy="299.97" r="2.5" fill="#2563eb"/>
  <circle cx="471.37" cy="299.97" r="2.5" fill="#2563eb"/>
  <circle cx="473.10" cy="300.01" r="2.5" fill="#2563eb"/>
  <circle cx="474.83" cy="299.97" r="2.5" fill="#2563eb"/>
  <circle cx="476.56" cy="300.01" r="2.5" fill="#2563eb"/>
  <circle cx="478.29" cy="299.93" r="2.5" fill="#2563eb"/>
  <circle cx="480.02" cy="300.01" r="2.5" fill="#2563eb"/>
  <circle cx="481.75" cy="250.03" r="2.5" fill="#2563eb"/>
  <circle cx="483.48" cy="300.01" r="2.5" fill="#2563eb"/>
  <circle cx="485.21" cy="300.01" r="2.5" fill="#2563eb"/>
  <circle cx="486.94" cy="300.01" r="2.5" fill="#2563eb"/>
  <circle cx="488.67" cy="300.01" r="2.5" fill="#2563eb"/>
  <circle cx="490.40" cy="300.01" r="2.5" fill="#2563eb"/>
  <circle cx="492.13" cy="299.89" r="2.5" fill="#2563eb"/>
  <circle cx="493.86" cy="300.01" r="2.5" fill="#2563eb"/>
  <circle cx="495.59" cy="300.01" r="2.5" fill="#2563eb"/>
  <circle cx="497.32" cy="250.07" r="2.5" fill="#2563eb"/>
  <circle cx="499.05" cy="300.01" r="2.5" fill="#2563eb"/>
  <circle cx="500.78" cy="299.93" r="2.5" fill="#2563eb"/>
  <circle cx="502.51" cy="300.01" r="2.5" fill="#2563eb"/>
  <circle cx="504.24" cy="299.97" r="2.5" fill="#2563eb"/>
  <circle cx="505.97" cy="299.97" r="2.5" fill="#2563eb"/>
  <circle cx="507.70" cy="299.97" r="2.5" fill="#2563eb"/>
  <circle cx="509.43" cy="250.03" r="2.5" fill="#2563eb"/>
  <circle cx="511.16" cy="300.01" r="2.5" fill="#2563eb"/>
  <circle cx="512.89" cy="300.01" r="2.5" fill="#2563eb"/>
  <circle cx="514.62" cy="300.01" r="2.5" fill="#2563eb"/>
  <circle cx="516.35" cy="300.01" r="2.5" fill="#2563eb"/>
  <circle cx="518.08" cy="299.97" r="2.5" fill="#2563eb"/>
  <circle cx="519.81" cy="300.01" r="2.5" fill="#2563eb"/>
  <circle cx="521.54" cy="299.97" r="2.5" fill="#2563eb"/>
  <circle cx="523.27" cy="300.01" r="2.5" fill="#2563eb"/>
  <circle cx="525.00" cy="299.97" r="2.5" fill="#2563eb"/>
  <circle cx="526.73" cy="249.90" r="2.5" fill="#2563eb"/>
  <circle cx="528.46" cy="300.01" r="2.5" fill="#2563eb"/>
  <circle cx="530.19" cy="300.01" r="2.5" fill="#2563eb"/>
  <circle cx="531.92" cy="299.89" r="2.5" fill="#2563eb"/>
  <circle cx="533.65" cy="299.97" r="2.5" fill="#2563eb"/>
  <circle cx="535.38" cy="299.97" r="2.5" fill="#2563eb"/>
  <circle cx="537.11" cy="249.99" r="2.5" fill="#2563eb"/>
  <circle cx="538.84" cy="299.97" r="2.5" fill="#2563eb"/>
  <circle cx="540.57" cy="299.89" r="2.5" fill="#2563eb"/>
  <circle cx="542.30" cy="300.01" r="2.5" fill="#2563eb"/>
  <circle cx="544.03" cy="299.97" r="2.5" fill="#2563eb"/>
  <circle cx="545.76" cy="299.97" r="2.5" fill="#2563eb"/>
  <circle cx="547.49" cy="300.01" r="2.5" fill="#2563eb"/>
  <circle cx="549.22" cy="299.97" r="2.5" fill="#2563eb"/>
  <circle cx="550.95" cy="249.99" r="2.5" fill="#2563eb"/>
  <circle cx="552.68" cy="299.97" r="2.5" fill="#2563eb"/>
  <circle cx="554.41" cy="299.97" r="2.5" fill="#2563eb"/>
  <circle cx="556.14" cy="300.06" r="2.5" fill="#2563eb"/>
  <circle cx="557.87" cy="300.06" r="2.5" fill="#2563eb"/>
  <circle cx="559.60" cy="249.94" r="2.5" fill="#2563eb"/>
  <circle cx="561.33" cy="300.01" r="2.5" fill="#2563eb"/>
  <circle cx="563.06" cy="299.93" r="2.5" fill="#2563eb"/>
  <circle cx="564.79" cy="300.01" r="2.5" fill="#2563eb"/>
  <circle cx="566.52" cy="300.01" r="2.5" fill="#2563eb"/>
  <circle cx="568.25" cy="249.99" r="2.5" fill="#2563eb"/>
  <circle cx="569.98" cy="300.01" r="2.5" fill="#2563eb"/>
  <circle cx="571.71" cy="300.01" r="2.5" fill="#2563eb"/>
  <circle cx="573.44" cy="300.01" r="2.5" fill="#2563eb"/>
  <circle cx="575.17" cy="299.93" r="2.5" fill="#2563eb"/>
  <circle cx="576.90" cy="299.93" r="2.5" fill="#2563eb"/>
  <circle cx="578.63" cy="300.01" r="2.5" fill="#2563eb"/>
  <circle cx="580.36" cy="300.01" r="2.5" fill="#2563eb"/>
  <circle cx="582.09" cy="249.94" r="2.5" fill="#2563eb"/>
  <circle cx="583.82" cy="299.97" r="2.5" fill="#2563eb"/>
  <circle cx="585.55" cy="299.97" r="2.5" fill="#2563eb"/>
  <circle cx="587.28" cy="300.01" r="2.5" fill="#2563eb"/>
  <circle cx="589.01" cy="300.01" r="2.5" fill="#2563eb"/>
  <circle cx="590.74" cy="300.01" r="2.5" fill="#2563eb"/>
  <circle cx="592.47" cy="249.99" r="2.5" fill="#2563eb"/>
  <circle cx="594.20" cy="300.01" r="2.5" fill="#2563eb"/>
  <circle cx="595.93" cy="300.01" r="2.5" fill="#2563eb"/>
  <circle cx="597.66" cy="300.01" r="2.5" fill="#2563eb"/>
  <circle cx="599.39" cy="250.03" r="2.5" fill="#2563eb"/>
  <circle cx="601.12" cy="300.01" r="2.5" fill="#2563eb"/>
  <circle cx="602.85" cy="300.01" r="2.5" fill="#2563eb"/>
  <circle cx="604.58" cy="300.01" r="2.5" fill="#2563eb"/>
  <circle cx="606.31" cy="299.97" r="2.5" fill="#2563eb"/>
  <circle cx="608.04" cy="300.01" r="2.5" fill="#2563eb"/>
  <circle cx="609.77" cy="300.01" r="2.5" fill="#2563eb"/>
  <circle cx="611.50" cy="299.97" r="2.5" fill="#2563eb"/>
  <circle cx="613.23" cy="299.97" r="2.5" fill="#2563eb"/>
  <circle cx="614.96" cy="300.01" r="2.5" fill="#2563eb"/>
  <circle cx="616.69" cy="300.01" r="2.5" fill="#2563eb"/>
  <circle cx="618.42" cy="299.97" r="2.5" fill="#2563eb"/>
  <circle cx="620.15" cy="299.93" r="2.5" fill="#2563eb"/>
  <circle cx="621.88" cy="300.01" r="2.5" fill="#2563eb"/>
  <circle cx="623.61" cy="300.06" r="2.5" fill="#2563eb"/>
  <circle cx="625.34" cy="299.97" r="2.5" fill="#2563eb"/>
  <circle cx="627.07" cy="300.01" r="2.5" fill="#2563eb"/>
  <circle cx="628.80" cy="250.03" r="2.5" fill="#2563eb"/>
  <circle cx="630.53" cy="250.03" r="2.5" fill="#2563eb"/>
  <circle cx="632.26" cy="299.93" r="2.5" fill="#2563eb"/>
  <circle cx="633.99" cy="299.97" r="2.5" fill="#2563eb"/>
  <circle cx="635.72" cy="300.01" r="2.5" fill="#2563eb"/>
  <circle cx="637.45" cy="300.01" r="2.5" fill="#2563eb"/>
  <circle cx="639.18" cy="300.06" r="2.5" fill="#2563eb"/>
  <circle cx="640.91" cy="300.01" r="2.5" fill="#2563eb"/>
  <circle cx="642.64" cy="299.93" r="2.5" fill="#2563eb"/>
  <circle cx="644.37" cy="300.01" r="2.5" fill="#2563eb"/>
  <circle cx="646.10" cy="300.01" r="2.5" fill="#2563eb"/>
  <circle cx="647.83" cy="299.97" r="2.5" fill="#2563eb"/>
  <circle cx="649.56" cy="299.97" r="2.5" fill="#2563eb"/>
  <circle cx="651.29" cy="300.01" r="2.5" fill="#2563eb"/>
  <circle cx="653.02" cy="250.03" r="2.5" fill="#2563eb"/>
  <circle cx="654.75" cy="300.01" r="2.5" fill="#2563eb"/>
  <circle cx="656.48" cy="300.01" r="2.5" fill="#2563eb"/>
  <circle cx="658.21" cy="300.01" r="2.5" fill="#2563eb"/>
  <circle cx="659.94" cy="299.97" r="2.5" fill="#2563eb"/>
  <circle cx="661.67" cy="300.01" r="2.5" fill="#2563eb"/>
  <circle cx="663.40" cy="299.97" r="2.5" fill="#2563eb"/>
  <circle cx="665.13" cy="300.01" r="2.5" fill="#2563eb"/>
  <circle cx="666.86" cy="299.97" r="2.5" fill="#2563eb"/>
  <circle cx="668.59" cy="299.97" r="2.5" fill="#2563eb"/>
  <circle cx="670.32" cy="299.93" r="2.5" fill="#2563eb"/>
  <circle cx="672.05" cy="300.01" r="2.5" fill="#2563eb"/>
  <circle cx="673.78" cy="300.01" r="2.5" fill="#2563eb"/>
  <circle cx="675.51" cy="299.89" r="2.5" fill="#2563eb"/>
  <circle cx="677.24" cy="299.97" r="2.5" fill="#2563eb"/>
  <circle cx="678.97" cy="299.97" r="2.5" fill="#2563eb"/>
  <circle cx="680.70" cy="300.06" r="2.5" fill="#2563eb"/>
  <circle cx="682.43" cy="249.90" r="2.5" fill="#2563eb"/>
  <circle cx="684.16" cy="299.89" r="2.5" fill="#2563eb"/>
  <circle cx="685.89" cy="300.01" r="2.5" fill="#2563eb"/>
  <circle cx="687.62" cy="299.97" r="2.5" fill="#2563eb"/>
  <circle cx="689.35" cy="299.97" r="2.5" fill="#2563eb"/>
  <circle cx="691.08" cy="299.97" r="2.5" fill="#2563eb"/>
  <circle cx="692.81" cy="300.01" r="2.5" fill="#2563eb"/>
  <circle cx="694.54" cy="300.01" r="2.5" fill="#2563eb"/>
  <circle cx="696.27" cy="299.97" r="2.5" fill="#2563eb"/>
  <circle cx="698.00" cy="299.97" r="2.5" fill="#2563eb"/>
  <circle cx="699.73" cy="299.97" r="2.5" fill="#2563eb"/>
  <circle cx="701.46" cy="250.03" r="2.5" fill="#2563eb"/>
  <circle cx="703.19" cy="299.93" r="2.5" fill="#2563eb"/>
  <circle cx="704.92" cy="300.01" r="2.5" fill="#2563eb"/>
  <circle cx="706.65" cy="300.01" r="2.5" fill="#2563eb"/>
  <circle cx="708.38" cy="299.93" r="2.5" fill="#2563eb"/>
  <circle cx="710.11" cy="300.01" r="2.5" fill="#2563eb"/>
  <circle cx="711.84" cy="300.01" r="2.5" fill="#2563eb"/>
  <circle cx="713.57" cy="299.97" r="2.5" fill="#2563eb"/>
  <circle cx="715.30" cy="300.01" r="2.5" fill="#2563eb"/>
  <circle cx="717.03" cy="300.01" r="2.5" fill="#2563eb"/>
  <circle cx="718.76" cy="300.06" r="2.5" fill="#2563eb"/>
  <circle cx="720.49" cy="300.01" r="2.5" fill="#2563eb"/>
  <circle cx="722.22" cy="299.97" r="2.5" fill="#2563eb"/>
  <circle cx="723.95" cy="299.89" r="2.5" fill="#2563eb"/>
  <circle cx="725.68" cy="300.01" r="2.5" fill="#2563eb"/>
  <circle cx="727.41" cy="300.01" r="2.5" fill="#2563eb"/>
  <circle cx="729.14" cy="249.94" r="2.5" fill="#2563eb"/>
  <circle cx="730.87" cy="249.94" r="2.5" fill="#2563eb"/>
  <circle cx="732.60" cy="300.01" r="2.5" fill="#2563eb"/>
  <circle cx="734.33" cy="300.01" r="2.5" fill="#2563eb"/>
  <circle cx="736.06" cy="300.01" r="2.5" fill="#2563eb"/>
  <circle cx="737.79" cy="300.01" r="2.5" fill="#2563eb"/>
  <circle cx="739.52" cy="299.97" r="2.5" fill="#2563eb"/>
  <circle cx="741.25" cy="250.03" r="2.5" fill="#2563eb"/>
  <circle cx="742.98" cy="300.01" r="2.5" fill="#2563eb"/>
  <circle cx="744.71" cy="300.01" r="2.5" fill="#2563eb"/>
  <circle cx="746.44" cy="300.01" r="2.5" fill="#2563eb"/>
  <circle cx="748.17" cy="300.01" r="2.5" fill="#2563eb"/>
  <circle cx="749.90" cy="250.03" r="2.5" fill="#2563eb"/>
  <circle cx="751.63" cy="249.99" r="2.5" fill="#2563eb"/>
  <circle cx="753.37" cy="300.01" r="2.5" fill="#2563eb"/>
  <circle cx="755.10" cy="299.97" r="2.5" fill="#2563eb"/>
  <circle cx="756.83" cy="300.01" r="2.5" fill="#2563eb"/>
  <circle cx="758.56" cy="299.97" r="2.5" fill="#2563eb"/>
  <circle cx="760.29" cy="300.01" r="2.5" fill="#2563eb"/>
  <circle cx="762.02" cy="299.97" r="2.5" fill="#2563eb"/>
  <circle cx="763.75" cy="299.97" r="2.5" fill="#2563eb"/>
  <circle cx="765.48" cy="299.97" r="2.5" fill="#2563eb"/>
  <circle cx="767.21" cy="300.06" r="2.5" fill="#2563eb"/>
  <circle cx="768.94" cy="249.99" r="2.5" fill="#2563eb"/>
  <circle cx="770.67" cy="300.01" r="2.5" fill="#2563eb"/>
  <circle cx="772.40" cy="250.03" r="2.5" fill="#2563eb"/>
  <circle cx="774.13" cy="249.94" r="2.5" fill="#2563eb"/>
  <circle cx="775.86" cy="249.99" r="2.5" fill="#2563eb"/>
  <circle cx="777.59" cy="300.01" r="2.5" fill="#2563eb"/>
  <circle cx="779.32" cy="300.06" r="2.5" fill="#2563eb"/>
  <circle cx="781.05" cy="300.01" r="2.5" fill="#2563eb"/>
  <circle cx="782.78" cy="299.97" r="2.5" fill="#2563eb"/>
  <circle cx="784.51" cy="299.97" r="2.5" fill="#2563eb"/>
  <circle cx="786.24" cy="300.01" r="2.5" fill="#2563eb"/>
  <circle cx="787.97" cy="299.93" r="2.5" fill="#2563eb"/>
  <circle cx="789.70" cy="299.89" r="2.5" fill="#2563eb"/>
  <circle cx="791.43" cy="299.89" r="2.5" fill="#2563eb"/>
  <circle cx="793.16" cy="299.89" r="2.5" fill="#2563eb"/>
  <circle cx="794.89" cy="299.89" r="2.5" fill="#2563eb"/>
  <circle cx="796.62" cy="299.85" r="2.5" fill="#2563eb"/>
  <circle cx="798.35" cy="299.85" r="2.5" fill="#2563eb"/>
  <circle cx="800.08" cy="299.89" r="2.5" fill="#2563eb"/>
  <circle cx="801.81" cy="299.81" r="2.5" fill="#2563eb"/>
  <circle cx="803.54" cy="299.81" r="2.5" fill="#2563eb"/>
  <circle cx="805.27" cy="299.81" r="2.5" fill="#2563eb"/>
  <circle cx="807.00" cy="299.76" r="2.5" fill="#2563eb"/>
  <circle cx="808.73" cy="299.76" r="2.5" fill="#2563eb"/>
  <circle cx="810.46" cy="299.76" r="2.5" fill="#2563eb"/>
  <circle cx="812.19" cy="299.72" r="2.5" fill="#2563eb"/>
  <circle cx="813.92" cy="299.68" r="2.5" fill="#2563eb"/>
  <circle cx="815.65" cy="299.60" r="2.5" fill="#2563eb"/>
  <circle cx="817.38" cy="299.60" r="2.5" fill="#2563eb"/>
  <circle cx="819.11" cy="299.60" r="2.5" fill="#2563eb"/>
  <circle cx="820.84" cy="299.56" r="2.5" fill="#2563eb"/>
  <circle cx="822.57" cy="299.47" r="2.5" fill="#2563eb"/>
  <circle cx="824.30" cy="299.43" r="2.5" fill="#2563eb"/>
  <circle cx="826.03" cy="299.43" r="2.5" fill="#2563eb"/>
  <circle cx="827.76" cy="299.39" r="2.5" fill="#2563eb"/>
  <circle cx="829.49" cy="299.47" r="2.5" fill="#2563eb"/>
  <circle cx="831.22" cy="259.82" r="2.5" fill="#2563eb"/>
  <circle cx="832.95" cy="338.96" r="2.5" fill="#2563eb"/>
  <circle cx="834.68" cy="299.31" r="2.5" fill="#2563eb"/>
  <circle cx="836.41" cy="299.31" r="2.5" fill="#2563eb"/>
  <circle cx="838.14" cy="299.26" r="2.5" fill="#2563eb"/>
  <circle cx="839.87" cy="299.68" r="2.5" fill="#2563eb"/>
  <circle cx="841.60" cy="299.68" r="2.5" fill="#2563eb"/>
  <circle cx="843.33" cy="299.68" r="2.5" fill="#2563eb"/>
  <circle cx="845.06" cy="299.64" r="2.5" fill="#2563eb"/>
  <circle cx="846.79" cy="299.14" r="2.5" fill="#2563eb"/>
  <circle cx="848.52" cy="299.14" r="2.5" fill="#2563eb"/>
  <circle cx="850.25" cy="299.10" r="2.5" fill="#2563eb"/>
  <circle cx="851.98" cy="299.10" r="2.5" fill="#2563eb"/>
  <circle cx="853.71" cy="299.10" r="2.5" fill="#2563eb"/>
  <circle cx="855.44" cy="248.07" r="2.5" fill="#2563eb"/>
  <circle cx="857.17" cy="299.06" r="2.5" fill="#2563eb"/>
  <circle cx="858.90" cy="299.06" r="2.5" fill="#2563eb"/>
  <circle cx="860.63" cy="299.06" r="2.5" fill="#2563eb"/>
  <circle cx="862.36" cy="299.06" r="2.5" fill="#2563eb"/>
  <circle cx="864.09" cy="299.06" r="2.5" fill="#2563eb"/>
  <circle cx="865.82" cy="298.97" r="2.5" fill="#2563eb"/>
  <circle cx="867.55" cy="298.97" r="2.5" fill="#2563eb"/>
  <circle cx="869.28" cy="298.93" r="2.5" fill="#2563eb"/>
  <circle cx="871.01" cy="298.97" r="2.5" fill="#2563eb"/>
  <circle cx="872.74" cy="298.93" r="2.5" fill="#2563eb"/>
  <circle cx="874.47" cy="298.89" r="2.5" fill="#2563eb"/>
  <circle cx="876.20" cy="298.89" r="2.5" fill="#2563eb"/>
  <circle cx="877.93" cy="298.89" r="2.5" fill="#2563eb"/>
  <circle cx="879.66" cy="298.89" r="2.5" fill="#2563eb"/>
  <circle cx="881.39" cy="247.78" r="2.5" fill="#2563eb"/>
  <circle cx="883.12" cy="298.89" r="2.5" fill="#2563eb"/>
  <circle cx="884.85" cy="298.89" r="2.5" fill="#2563eb"/>
  <circle cx="886.58" cy="298.85" r="2.5" fill="#2563eb"/>
  <circle cx="888.31" cy="298.85" r="2.5" fill="#2563eb"/>
  <circle cx="890.04" cy="298.81" r="2.5" fill="#2563eb"/>
  <circle cx="891.77" cy="298.81" r="2.5" fill="#2563eb"/>
  <circle cx="893.50" cy="298.81" r="2.5" fill="#2563eb"/>
  <circle cx="895.23" cy="298.81" r="2.5" fill="#2563eb"/>
  <circle cx="896.96" cy="298.81" r="2.5" fill="#2563eb"/>
  <circle cx="898.69" cy="298.81" r="2.5" fill="#2563eb"/>
  <circle cx="900.42" cy="298.81" r="2.5" fill="#2563eb"/>
  <circle cx="902.15" cy="298.81" r="2.5" fill="#2563eb"/>
  <circle cx="903.88" cy="298.81" r="2.5" fill="#2563eb"/>
  <circle cx="905.61" cy="298.72" r="2.5" fill="#2563eb"/>
  <circle cx="907.34" cy="247.45" r="2.5" fill="#2563eb"/>
  <circle cx="909.07" cy="247.45" r="2.5" fill="#2563eb"/>
  <circle cx="910.80" cy="298.72" r="2.5" fill="#2563eb"/>
  <circle cx="912.53" cy="298.72" r="2.5" fill="#2563eb"/>
  <circle cx="914.26" cy="298.72" r="2.5" fill="#2563eb"/>
  <circle cx="915.99" cy="298.72" r="2.5" fill="#2563eb"/>
  <circle cx="917.72" cy="298.72" r="2.5" fill="#2563eb"/>
  <circle cx="919.45" cy="298.72" r="2.5" fill="#2563eb"/>
  <circle cx="921.18" cy="247.36" r="2.5" fill="#2563eb"/>
  <circle cx="922.91" cy="298.68" r="2.5" fill="#2563eb"/>
  <circle cx="924.64" cy="247.36" r="2.5" fill="#2563eb"/>
  <circle cx="926.37" cy="247.36" r="2.5" fill="#2563eb"/>
  <circle cx="928.10" cy="247.36" r="2.5" fill="#2563eb"/>
  <circle cx="929.83" cy="298.68" r="2.5" fill="#2563eb"/>
  <circle cx="931.56" cy="298.68" r="2.5" fill="#2563eb"/>
  <circle cx="933.29" cy="298.68" r="2.5" fill="#2563eb"/>
  <circle cx="935.02" cy="298.68" r="2.5" fill="#2563eb"/>
  <circle cx="936.75" cy="298.68" r="2.5" fill="#2563eb"/>
  <circle cx="938.48" cy="341.67" r="2.5" fill="#2563eb"/>
  <circle cx="940.21" cy="307.01" r="2.5" fill="#2563eb"/>
  <circle cx="941.94" cy="298.68" r="2.5" fill="#2563eb"/>
  <circle cx="943.67" cy="298.68" r="2.5" fill="#2563eb"/>
  <circle cx="945.40" cy="298.68" r="2.5" fill="#2563eb"/>
  <circle cx="947.13" cy="247.36" r="2.5" fill="#2563eb"/>
  <circle cx="948.86" cy="298.64" r="2.5" fill="#2563eb"/>
  <circle cx="950.59" cy="247.36" r="2.5" fill="#2563eb"/>
  <circle cx="952.32" cy="247.28" r="2.5" fill="#2563eb"/>
  <circle cx="954.05" cy="247.20" r="2.5" fill="#2563eb"/>
  <circle cx="955.78" cy="298.60" r="2.5" fill="#2563eb"/>
  <circle cx="957.51" cy="298.60" r="2.5" fill="#2563eb"/>
  <circle cx="959.24" cy="247.03" r="2.5" fill="#2563eb"/>
  <circle cx="960.97" cy="298.51" r="2.5" fill="#2563eb"/>
  <circle cx="962.70" cy="298.51" r="2.5" fill="#2563eb"/>
  <circle cx="964.43" cy="298.51" r="2.5" fill="#2563eb"/>
  <circle cx="966.16" cy="298.51" r="2.5" fill="#2563eb"/>
  <circle cx="967.89" cy="298.51" r="2.5" fill="#2563eb"/>
  <circle cx="969.62" cy="298.51" r="2.5" fill="#2563eb"/>
  <circle cx="971.35" cy="298.51" r="2.5" fill="#2563eb"/>
  <circle cx="973.08" cy="298.51" r="2.5" fill="#2563eb"/>
  <circle cx="974.81" cy="298.51" r="2.5" fill="#2563eb"/>
  <circle cx="976.54" cy="298.51" r="2.5" fill="#2563eb"/>
  <circle cx="978.27" cy="298.51" r="2.5" fill="#2563eb"/>
  <circle cx="980.00" cy="298.51" r="2.5" fill="#2563eb"/>
</svg>
