<?xml version="1.0" encoding="UTF-8"?>
<svg xmlns="http://www.w3.org/2000/svg" width="1000" height="420" viewBox="0 0 1000 420">
  <rect width="100%" height="100%" fill="#ffffff"/>
  <text x="70" y="28" font-size="20" font-weight="600">수집 시점 기준 - 일별 스냅샷</text>
  <text x="70" y="402" font-size="12" fill="#555">스냅샷 수</text>
  <line x1="70" y1="350.00" x2="980" y2="350.00" stroke="#e5e7eb" stroke-width="1"/>
  <text x="62" y="354.00" font-size="11" fill="#6b7280" text-anchor="end">0</text>
  <line x1="70" y1="290.00" x2="980" y2="290.00" stroke="#e5e7eb" stroke-width="1"/>
  <text x="62" y="294.00" font-size="11" fill="#6b7280" text-anchor="end">10,057</text>
  <line x1="70" y1="230.00" x2="980" y2="230.00" stroke="#e5e7eb" stroke-width="1"/>
  <text x="62" y="234.00" font-size="11" fill="#6b7280" text-anchor="end">20,114</text>
  <line x1="70" y1="170.00" x2="980" y2="170.00" stroke="#e5e7eb" stroke-width="1"/>
  <text x="62" y="174.00" font-size="11" fill="#6b7280" text-anchor="end">30,171</text>
  <line x1="70" y1="110.00" x2="980" y2="110.00" stroke="#e5e7eb" stroke-width="1"/>
  <text x="62" y="114.00" font-size="11" fill="#6b7280" text-anchor="end">40,228</text>
  <line x1="70" y1="50.00" x2="980" y2="50.00" stroke="#e5e7eb" stroke-width="1"/>
  <text x="62" y="54.00" font-size="11" fill="#6b7280" text-anchor="end">50,285</text>
  <line x1="70" y1="350" x2="980" y2="350" stroke="#111827" stroke-width="1.2"/>
  <line x1="70" y1="50" x2="70" y2="350" stroke="#111827" stroke-width="1.2"/>
  <line x1="70.00" y1="350" x2="70.00" y2="356" stroke="#9ca3af" stroke-width="1"/>
  <text x="70.00" y="372" font-size="10" fill="#6b7280" text-anchor="middle">2026-02-28</text>
  <line x1="137.41" y1="350" x2="137.41" y2="356" stroke="#9ca3af" stroke-width="1"/>
  <text x="137.41" y="372" font-size="10" fill="#6b7280" text-anchor="middle">2026-03-02</text>
  <line x1="204.81" y1="350" x2="204.81" y2="356" stroke="#9ca3af" stroke-width="1"/>
  <text x="204.81" y="372" font-size="10" fill="#6b7280" text-anchor="middle">2026-03-08</text>
  <line x1="272.22" y1="350" x2="272.22" y2="356" stroke="#9ca3af" stroke-width="1"/>
  <text x="272.22" y="372" font-size="10" fill="#6b7280" text-anchor="middle">2026-03-10</text>
  <line x1="339.63" y1="350" x2="339.63" y2="356" stroke="#9ca3af" stroke-width="1"/>
  <text x="339.63" y="372" font-size="10" fill="#6b7280" text-anchor="middle">2026-03-12</text>
  <line x1="407.04" y1="350" x2="407.04" y2="356" stroke="#9ca3af" stroke-width="1"/>
  <text x="407.04" y="372" font-size="10" fill="#6b7280" text-anchor="middle">2026-03-14</text>
  <line x1="474.44" y1="350" x2="474.44" y2="356" stroke="#9ca3af" stroke-width="1"/>
  <text x="474.44" y="372" font-size="10" fill="#6b7280" text-anchor="middle">2026-03-16</text>
  <line x1="541.85" y1="350" x2="541.85" y2="356" stroke="#9ca3af" stroke-width="1"/>
  <text x="541.85" y="372" font-size="10" fill="#6b7280" text-anchor="middle">2026-03-18</text>
  <line x1="609.26" y1="350" x2="609.26" y2="356" stroke="#9ca3af" stroke-width="1"/>
  <text x="609.26" y="372" font-size="10" fill="#6b7280" text-anchor="middle">2026-03-20</text>
  <line x1="676.67" y1="350" x2="676.67" y2="356" stroke="#9ca3af" stroke-width="1"/>
  <text x="676.67" y="372" font-size="10" fill="#6b7280" text-anchor="middle">2026-03-22</text>
  <line x1="744.07" y1="350" x2="744.07" y2="356" stroke="#9ca3af" stroke-width="1"/>
  <text x="744.07" y="372" font-size="10" fill="#6b7280" text-anchor="middle">2026-03-24</text>
  <line x1="811.48" y1="350" x2="811.48" y2="356" stroke="#9ca3af" stroke-width="1"/>
  <text x="811.48" y="372" font-size="10" fill="#6b7280" text-anchor="middle">2026-03-26</text>
  <line x1="878.89" y1="350" x2="878.89" y2="356" stroke="#9ca3af" stroke-width="1"/>
  <text x="878.89" y="372" font-size="10" fill="#6b7280" text-anchor="middle">2026-03-28</text>
  <line x1="946.30" y1="350" x2="946.30" y2="356" stroke="#9ca3af" stroke-width="1"/>
  <text x="946.30" y="372" font-size="10" fill="#6b7280" text-anchor="middle">2026-03-30</text>
  <line x1="980.00" y1="350" x2="980.00" y2="356" stroke="#9ca3af" stroke-width="1"/>
  <text x="980.00" y="372" font-size="10" fill="#6b7280" text-anchor="middle">2026-03-31</text>
  <polyline fill="none" stroke="#2563eb" stroke-width="2.5" points="70.00,264.08 103.70,78.85 137.41,253.89 171.11,292.71 204.81,50.00 238.52,78.27 272.22,63.76 305.93,71.41 339.63,64.86 373.33,64.10 407.04,148.63 440.74,206.71 474.44,235.41 508.15,235.42 541.85,242.59 575.56,228.26 609.26,213.91 642.96,192.40 676.67,199.59 710.37,235.43 744.07,228.26 777.78,235.41 811.48,242.53 845.19,242.57 878.89,213.92 912.59,228.26 946.30,228.19 980.00,306.89"/>
  <circle cx="70.00" cy="264.08" r="2.5" fill="#2563eb"/>
  <circle cx="103.70" cy="78.85" r="2.5" fill="#2563eb"/>
  <circle cx="137.41" cy="253.89" r="2.5" fill="#2563eb"/>
  <circle cx="171.11" cy="292.71" r="2.5" fill="#2563eb"/>
  <circle cx="204.81" cy="50.00" r="2.5" fill="#2563eb"/>
  <circle cx="238.52" cy="78.27" r="2.5" fill="#2563eb"/>
  <circle cx="272.22" cy="63.76" r="2.5" fill="#2563eb"/>
  <circle cx="305.93" cy="71.41" r="2.5" fill="#2563eb"/>
  <circle cx="339.63" cy="64.86" r="2.5" fill="#2563eb"/>
  <circle cx="373.33" cy="64.10" r="2.5" fill="#2563eb"/>
  <circle cx="407.04" cy="148.63" r="2.5" fill="#2563eb"/>
  <circle cx="440.74" cy="206.71" r="2.5" fill="#2563eb"/>
  <circle cx="474.44" cy="235.41" r="2.5" fill="#2563eb"/>
  <circle cx="508.15" cy="235.42" r="2.5" fill="#2563eb"/>
  <circle cx="541.85" cy="242.59" r="2.5" fill="#2563eb"/>
  <circle cx="575.56" cy="228.26" r="2.5" fill="#2563eb"/>
  <circle cx="609.26" cy="213.91" r="2.5" fill="#2563eb"/>
  <circle cx="642.96" cy="192.40" r="2.5" fill="#2563eb"/>
  <circle cx="676.67" cy="199.59" r="2.5" fill="#2563eb"/>
  <circle cx="710.37" cy="235.43" r="2.5" fill="#2563eb"/>
  <circle cx="744.07" cy="228.26" r="2.5" fill="#2563eb"/>
  <circle cx="777.78" cy="235.41" r="2.5" fill="#2563eb"/>
  <circle cx="811.48" cy="242.53" r="2.5" fill="#2563eb"/>
  <circle cx="845.19" cy="242.57" r="2.5" fill="#2563eb"/>
  <circle cx="878.89" cy="213.92" r="2.5" fill="#2563eb"/>
  <circle cx="912.59" cy="228.26" r="2.5" fill="#2563eb"/>
  <circle cx="946.30" cy="228.19" r="2.5" fill="#2563eb"/>
  <circle cx="980.00" cy="306.89" r="2.5" fill="#2563eb"/>
</svg>
