<?xml version="1.0" encoding="UTF-8"?>
<svg xmlns="http://www.w3.org/2000/svg" width="1000" height="420" viewBox="0 0 1000 420">
  <rect width="100%" height="100%" fill="#ffffff"/>
  <text x="70" y="28" font-size="20" font-weight="600">수집 시점 기준 - 시간별 스냅샷</text>
  <text x="70" y="402" font-size="12" fill="#555">스냅샷 수</text>
  <line x1="70" y1="350.00" x2="980" y2="350.00" stroke="#e5e7eb" stroke-width="1"/>
  <text x="62" y="354.00" font-size="11" fill="#6b7280" text-anchor="end">0</text>
  <line x1="70" y1="290.00" x2="980" y2="290.00" stroke="#e5e7eb" stroke-width="1"/>
  <text x="62" y="294.00" font-size="11" fill="#6b7280" text-anchor="end">1,440</text>
  <line x1="70" y1="230.00" x2="980" y2="230.00" stroke="#e5e7eb" stroke-width="1"/>
  <text x="62" y="234.00" font-size="11" fill="#6b7280" text-anchor="end">2,880</text>
  <line x1="70" y1="170.00" x2="980" y2="170.00" stroke="#e5e7eb" stroke-width="1"/>
  <text x="62" y="174.00" font-size="11" fill="#6b7280" text-anchor="end">4,321</text>
  <line x1="70" y1="110.00" x2="980" y2="110.00" stroke="#e5e7eb" stroke-width="1"/>
  <text x="62" y="114.00" font-size="11" fill="#6b7280" text-anchor="end">5,761</text>
  <line x1="70" y1="50.00" x2="980" y2="50.00" stroke="#e5e7eb" stroke-width="1"/>
  <text x="62" y="54.00" font-size="11" fill="#6b7280" text-anchor="end">7,202</text>
  <line x1="70" y1="350" x2="980" y2="350" stroke="#111827" stroke-width="1.2"/>
  <line x1="70" y1="50" x2="70" y2="350" stroke="#111827" stroke-width="1.2"/>
  <line x1="70.00" y1="350" x2="70.00" y2="356" stroke="#9ca3af" stroke-width="1"/>
  <text x="70.00" y="372" font-size="10" fill="#6b7280" text-anchor="middle">2026-02-28 18</text>
  <line x1="145.63" y1="350" x2="145.63" y2="356" stroke="#9ca3af" stroke-width="1"/>
  <text x="145.63" y="372" font-size="10" fill="#6b7280" text-anchor="middle">2026-03-09 20</text>
  <line x1="221.27" y1="350" x2="221.27" y2="356" stroke="#9ca3af" stroke-width="1"/>
  <text x="221.27" y="372" font-size="10" fill="#6b7280" text-anchor="middle">2026-03-12 17</text>
  <line x1="296.90" y1="350" x2="296.90" y2="356" stroke="#9ca3af" stroke-width="1"/>
  <text x="296.90" y="372" font-size="10" fill="#6b7280" text-anchor="middle">2026-03-15 23</text>
  <line x1="372.53" y1="350" x2="372.53" y2="356" stroke="#9ca3af" stroke-width="1"/>
  <text x="372.53" y="372" font-size="10" fill="#6b7280" text-anchor="middle">2026-03-20 04</text>
  <line x1="448.17" y1="350" x2="448.17" y2="356" stroke="#9ca3af" stroke-width="1"/>
  <text x="448.17" y="372" font-size="10" fill="#6b7280" text-anchor="middle">2026-03-23 20</text>
  <line x1="523.80" y1="350" x2="523.80" y2="356" stroke="#9ca3af" stroke-width="1"/>
  <text x="523.80" y="372" font-size="10" fill="#6b7280" text-anchor="middle">2026-03-28 02</text>
  <line x1="599.43" y1="350" x2="599.43" y2="356" stroke="#9ca3af" stroke-width="1"/>
  <text x="599.43" y="372" font-size="10" fill="#6b7280" text-anchor="middle">2026-04-01 09</text>
  <line x1="675.07" y1="350" x2="675.07" y2="356" stroke="#9ca3af" stroke-width="1"/>
  <text x="675.07" y="372" font-size="10" fill="#6b7280" text-anchor="middle">2026-04-05 16</text>
  <line x1="750.70" y1="350" x2="750.70" y2="356" stroke="#9ca3af" stroke-width="1"/>
  <text x="750.70" y="372" font-size="10" fill="#6b7280" text-anchor="middle">2026-04-10 06</text>
  <line x1="826.33" y1="350" x2="826.33" y2="356" stroke="#9ca3af" stroke-width="1"/>
  <text x="826.33" y="372" font-size="10" fill="#6b7280" text-anchor="middle">2026-04-14 17</text>
  <line x1="901.97" y1="350" x2="901.97" y2="356" stroke="#9ca3af" stroke-width="1"/>
  <text x="901.97" y="372" font-size="10" fill="#6b7280" text-anchor="middle">2026-04-19 05</text>
  <line x1="977.60" y1="350" x2="977.60" y2="356" stroke="#9ca3af" stroke-width="1"/>
  <text x="977.60" y="372" font-size="10" fill="#6b7280" text-anchor="middle">2026-04-23 19</text>
  <line x1="980.00" y1="350" x2="980.00" y2="356" stroke="#9ca3af" stroke-width="1"/>
  <text x="980.00" y="372" font-size="10" fill="#6b7280" text-anchor="middle">2026-04-23 23</text>
  <polyline fill="none" stroke="#2563eb" stroke-width="2.5" points="70.00,50.00 71.20,50.12 72.40,50.17 73.60,50.46 74.80,50.00 76.00,266.90 77.20,50.12 78.40,50.08 79.60,177.46 80.80,211.58 82.01,175.34 83.21,304.14 84.41,200.46 85.61,250.94 86.81,300.01 88.01,300.06 89.21,300.01 90.41,300.01 91.61,348.00 92.81,300.01 94.01,249.99 95.21,200.00 96.41,249.99 97.61,249.99 98.81,250.03 100.01,250.03 101.21,250.03 102.41,250.40 103.61,250.90 104.82,250.90 106.02,251.32 107.22,249.94 108.42,300.01 109.62,299.93 110.82,251.03 112.02,300.68 113.22,250.03 114.42,200.00 115.62,249.99 116.82,250.03 118.02,250.03 119.22,250.03 120.42,300.01 121.62,200.04 122.82,250.03 124.02,250.03 125.22,250.03 126.42,249.90 127.63,250.03 128.83,250.03 130.03,250.94 131.23,250.44 132.43,250.03 133.63,250.03 134.83,300.47 136.03,300.01 137.23,300.43 138.43,250.03 139.63,249.99 140.83,300.43 142.03,249.90 143.23,249.99 144.43,249.99 145.63,200.04 146.83,300.01 148.03,300.01 149.23,300.01 150.44,249.90 151.64,300.01 152.84,250.03 154.04,249.99 155.24,199.96 156.44,300.01 157.64,200.00 158.84,250.36 160.04,250.03 161.24,300.01 162.44,300.01 163.64,250.44 164.84,300.01 166.04,250.03 167.24,250.03 168.44,249.99 169.64,250.49 170.84,250.03 172.04,200.04 173.25,300.01 174.45,250.03 175.65,300.01 176.85,250.11 178.05,300.01 179.25,250.03 180.45,250.03 181.65,199.92 182.85,250.03 184.05,250.03 185.25,250.03 186.45,254.36 187.65,300.01 188.85,299.97 190.05,250.36 191.25,299.97 192.45,250.03 193.65,250.03 194.85,250.03 196.06,250.03 197.26,249.99 198.46,200.00 199.66,299.93 200.86,300.01 202.06,299.97 203.26,249.94 204.46,249.99 205.66,249.82 206.86,249.94 208.06,250.28 209.26,207.00 210.46,250.03 211.66,250.32 212.86,250.40 214.06,300.93 215.26,300.01 216.46,300.10 217.66,249.94 218.87,249.99 220.07,250.07 221.27,249.99 222.47,250.03 223.67,249.94 224.87,200.00 226.07,300.39 227.27,300.01 228.47,300.01 229.67,250.44 230.87,300.39 232.07,249.86 233.27,250.11 234.47,201.46 235.67,300.01 236.87,200.83 238.07,250.03 239.27,249.99 240.47,300.26 241.68,300.01 242.88,300.01 244.08,250.03 245.28,250.03 246.48,250.03 247.68,250.03 248.88,249.99 250.08,250.03 251.28,200.00 252.48,300.26 253.68,249.99 254.88,300.01 256.08,249.94 257.28,250.03 258.48,250.03 259.68,250.03 260.88,200.04 262.08,300.01 263.28,249.90 264.49,300.01 265.69,300.01 266.89,300.06 268.09,300.01 269.29,300.01 270.49,243.95 271.69,249.94 272.89,299.97 274.09,300.01 275.29,300.01 276.49,250.03 277.69,300.01 278.89,300.01 280.09,299.97 281.29,249.99 282.49,300.01 283.69,299.93 284.89,300.01 286.09,299.93 287.30,300.01 288.50,300.01 289.70,299.89 290.90,299.97 292.10,250.03 293.30,299.93 294.50,299.89 295.70,299.97 296.90,249.94 298.10,300.01 299.30,300.01 300.50,299.97 301.70,249.99 302.90,299.97 304.10,299.97 305.30,300.06 306.50,300.06 307.70,299.93 308.91,300.01 310.11,300.01 311.31,299.93 312.51,300.01 313.71,300.01 314.91,299.97 316.11,300.01 317.31,300.01 318.51,300.01 319.71,300.01 320.91,249.86 322.11,300.01 323.31,300.10 324.51,299.93 325.71,300.01 326.91,299.93 328.11,300.01 329.31,300.01 330.51,300.01 331.72,300.01 332.92,300.01 334.12,299.97 335.32,300.01 336.52,300.01 337.72,300.01 338.92,300.01 340.12,250.03 341.32,300.01 342.52,300.01 343.72,299.97 344.92,300.01 346.12,300.01 347.32,299.97 348.52,299.97 349.72,300.01 350.92,299.97 352.12,300.01 353.32,299.93 354.53,300.01 355.73,250.03 356.93,300.01 358.13,300.01 359.33,300.01 360.53,300.01 361.73,300.01 362.93,299.89 364.13,300.01 365.33,300.01 366.53,250.07 367.73,300.01 368.93,299.93 370.13,300.01 371.33,299.97 372.53,299.97 373.73,299.97 374.93,250.03 376.13,300.01 377.34,300.01 378.54,300.01 379.74,300.01 380.94,299.97 382.14,300.01 383.34,299.97 384.54,300.01 385.74,299.97 386.94,249.90 388.14,300.01 389.34,300.01 390.54,299.89 391.74,299.97 392.94,299.97 394.14,249.99 395.34,299.97 396.54,299.89 397.74,300.01 398.94,299.97 400.15,299.97 401.35,300.01 402.55,299.97 403.75,249.99 404.95,299.97 406.15,299.97 407.35,300.06 408.55,300.06 409.75,249.94 410.95,300.01 412.15,299.93 413.35,300.01 414.55,300.01 415.75,249.99 416.95,300.01 418.15,300.01 419.35,300.01 420.55,299.93 421.75,299.93 422.96,300.01 424.16,300.01 425.36,249.94 426.56,299.97 427.76,299.97 428.96,300.01 430.16,300.01 431.36,300.01 432.56,249.99 433.76,300.01 434.96,300.01 436.16,300.01 437.36,250.03 438.56,300.01 439.76,300.01 440.96,300.01 442.16,299.97 443.36,300.01 444.56,300.01 445.77,299.97 446.97,299.97 448.17,300.01 449.37,300.01 450.57,299.97 451.77,299.93 452.97,300.01 454.17,300.06 455.37,299.97 456.57,300.01 457.77,250.03 458.97,250.03 460.17,299.93 461.37,299.97 462.57,300.01 463.77,300.01 464.97,300.06 466.17,300.01 467.37,299.93 468.58,300.01 469.78,300.01 470.98,299.97 472.18,299.97 473.38,300.01 474.58,250.03 475.78,300.01 476.98,300.01 478.18,300.01 479.38,299.97 480.58,300.01 481.78,299.97 482.98,300.01 484.18,299.97 485.38,299.97 486.58,299.93 487.78,300.01 488.98,300.01 490.18,299.89 491.39,299.97 492.59,299.97 493.79,300.06 494.99,249.90 496.19,299.89 497.39,300.01 498.59,299.97 499.79,299.97 500.99,299.97 502.19,300.01 503.39,300.01 504.59,299.97 505.79,299.97 506.99,299.97 508.19,250.03 509.39,299.93 510.59,300.01 511.79,300.01 512.99,299.93 514.20,300.01 515.40,300.01 516.60,299.97 517.80,300.01 519.00,300.01 520.20,300.06 521.40,300.01 522.60,299.97 523.80,299.89 525.00,300.01 526.20,300.01 527.40,249.94 528.60,249.94 529.80,300.01 531.00,300.01 532.20,300.01 533.40,300.01 534.60,299.97 535.80,250.03 537.01,300.01 538.21,300.01 539.41,300.01 540.61,300.01 541.81,250.03 543.01,249.99 544.21,300.01 545.41,299.97 546.61,300.01 547.81,299.97 549.01,300.01 550.21,299.97 551.41,299.97 552.61,299.97 553.81,300.06 555.01,249.99 556.21,300.01 557.41,250.03 558.61,249.94 559.82,249.99 561.02,300.01 562.22,300.06 563.42,300.01 564.62,299.97 565.82,299.97 567.02,300.01 568.22,299.93 569.42,299.89 570.62,299.89 571.82,299.89 573.02,299.89 574.22,299.85 575.42,299.85 576.62,299.89 577.82,299.81 579.02,299.81 580.22,299.81 581.42,299.76 582.63,299.76 583.83,299.76 585.03,299.72 586.23,299.68 587.43,299.60 588.63,299.60 589.83,299.60 591.03,299.56 592.23,299.47 593.43,299.43 594.63,299.43 595.83,299.39 597.03,299.47 598.23,259.82 599.43,338.96 600.63,299.31 601.83,299.31 603.03,299.26 604.23,299.68 605.44,299.68 606.64,299.68 607.84,299.64 609.04,299.14 610.24,299.14 611.44,299.10 612.64,299.10 613.84,299.10 615.04,248.07 616.24,299.06 617.44,299.06 618.64,299.06 619.84,299.06 621.04,299.06 622.24,298.97 623.44,298.97 624.64,298.93 625.84,298.97 627.04,298.93 628.25,298.89 629.45,298.89 630.65,298.89 631.85,298.89 633.05,247.78 634.25,298.89 635.45,298.89 636.65,298.85 637.85,298.85 639.05,298.81 640.25,298.81 641.45,298.81 642.65,298.81 643.85,298.81 645.05,298.81 646.25,298.81 647.45,298.81 648.65,298.81 649.85,298.72 651.06,247.45 652.26,247.45 653.46,298.72 654.66,298.72 655.86,298.72 657.06,298.72 658.26,298.72 659.46,298.72 660.66,247.36 661.86,298.68 663.06,247.36 664.26,247.36 665.46,247.36 666.66,298.68 667.86,298.68 669.06,298.68 670.26,298.68 671.46,298.68 672.66,341.67 673.87,307.01 675.07,298.68 676.27,298.68 677.47,298.68 678.67,247.36 679.87,298.64 681.07,247.36 682.27,247.28 683.47,247.20 684.67,298.60 685.87,298.60 687.07,247.03 688.27,298.51 689.47,298.51 690.67,298.51 691.87,298.51 693.07,298.51 694.27,298.51 695.47,298.51 696.68,298.51 697.88,298.51 699.08,298.51 700.28,298.51 701.48,298.51 702.68,298.51 703.88,298.51 705.08,298.51 706.28,298.51 707.48,298.51 708.68,298.51 709.88,298.51 711.08,298.51 712.28,298.51 713.48,298.51 714.68,298.51 715.88,298.51 717.08,298.51 718.28,298.51 719.49,298.47 720.69,298.51 721.89,298.51 723.09,298.47 724.29,298.51 725.49,298.47 726.69,298.51 727.89,298.43 729.09,298.56 730.29,298.43 731.49,298.43 732.69,298.43 733.89,298.43 735.09,298.43 736.29,298.43 737.49,298.43 738.69,298.43 739.89,298.43 741.09,298.43 742.30,298.43 743.50,298.43 744.70,298.43 745.90,298.43 747.10,298.43 748.30,298.43 749.50,298.43 750.70,298.43 751.90,298.43 753.10,298.43 754.30,298.43 755.50,298.43 756.70,298.43 757.90,298.43 759.10,298.43 760.30,298.43 761.50,298.43 762.70,298.43 763.91,298.43 765.11,298.43 766.31,298.43 767.51,298.43 768.71,298.43 769.91,298.43 771.11,298.39 772.31,298.39 773.51,298.43 774.71,298.43 775.91,298.39 777.11,298.39 778.31,298.39 779.51,298.43 780.71,298.43 781.91,298.43 783.11,246.82 784.31,298.43 785.51,246.78 786.72,246.78 787.92,246.78 789.12,246.70 790.32,246.78 791.52,298.39 792.72,298.39 793.92,298.39 795.12,298.39 796.32,298.39 797.52,246.78 798.72,298.39 799.92,298.39 801.12,298.39 802.32,298.39 803.52,298.39 804.72,246.78 805.92,246.78 807.12,298.39 808.32,298.39 809.53,298.39 810.73,298.39 811.93,298.39 813.13,298.39 814.33,298.39 815.53,298.39 816.73,298.39 817.93,298.39 819.13,298.39 820.33,298.39 821.53,298.39 822.73,298.39 823.93,298.35 825.13,298.39 826.33,298.39 827.53,298.35 828.73,298.35 829.93,298.35 831.13,298.35 832.34,298.35 833.54,298.35 834.74,298.35 835.94,298.35 837.14,298.35 838.34,298.35 839.54,298.35 840.74,298.35 841.94,298.35 843.14,298.35 844.34,298.35 845.54,298.35 846.74,298.35 847.94,298.35 849.14,298.35 850.34,298.35 851.54,298.35 852.74,298.35 853.94,298.35 855.15,298.35 856.35,298.35 857.55,298.35 858.75,298.35 859.95,298.35 861.15,298.35 862.35,298.35 863.55,298.35 864.75,298.35 865.95,298.35 867.15,298.35 868.35,298.35 869.55,298.35 870.75,298.35 871.95,298.35 873.15,298.35 874.35,298.35 875.55,298.35 876.75,298.35 877.96,298.35 879.16,298.35 880.36,298.35 881.56,298.35 882.76,298.35 883.96,298.35 885.16,298.35 886.36,298.35 887.56,298.35 888.76,298.35 889.96,298.39 891.16,298.39 892.36,298.39 893.56,246.78 894.76,298.39 895.96,298.39 897.16,298.39 898.36,298.39 899.56,298.39 900.77,298.39 901.97,298.39 903.17,246.78 904.37,298.39 905.57,298.39 906.77,298.39 907.97,298.39 909.17,298.39 910.37,298.39 911.57,298.39 912.77,246.78 913.97,298.39 915.17,298.39 916.37,298.39 917.57,298.39 918.77,298.39 919.97,298.39 921.17,298.39 922.37,298.39 923.58,298.39 924.78,298.39 925.98,298.39 927.18,298.35 928.38,298.39 929.58,298.39 930.78,298.39 931.98,298.35 933.18,298.35 934.38,298.35 935.58,298.35 936.78,298.35 937.98,298.35 939.18,298.35 940.38,298.35 941.58,298.35 942.78,298.35 943.98,298.35 945.18,298.35 946.39,298.35 947.59,298.35 948.79,298.35 949.99,298.35 951.19,298.39 952.39,298.39 953.59,298.39 954.79,298.39 955.99,298.39 957.19,298.39 958.39,298.35 959.59,298.39 960.79,298.39 961.99,298.39 963.19,298.39 964.39,298.39 965.59,298.39 966.79,298.39 967.99,298.39 969.20,298.39 970.40,298.35 971.60,298.39 972.80,298.39 974.00,298.39 975.20,298.39 976.40,298.39 977.60,298.39 978.80,298.39 980.00,298.39"/>
  <circle cx="70.00" cy="50.00" r="2.5" fill="#2563eb"/>
  <circle cx="71.20" cy="50.12" r="2.5" fill="#2563eb"/>
  <circle cx="72.40" cy="50.17" r="2.5" fill="#2563eb"/>
  <circle cx="73.60" cy="50.46" r="2.5" fill="#2563eb"/>
  <circle cx="74.80" cy="50.00" r="2.5" fill="#2563eb"/>
  <circle cx="76.00" cy="266.90" r="2.5" fill="#2563eb"/>
  <circle cx="77.20" cy="50.12" r="2.5" fill="#2563eb"/>
  <circle cx="78.40" cy="50.08" r="2.5" fill="#2563eb"/>
  <circle cx="79.60" cy="177.46" r="2.5" fill="#2563eb"/>
  <circle cx="80.80" cy="211.58" r="2.5" fill="#2563eb"/>
  <circle cx="82.01" cy="175.34" r="2.5" fill="#2563eb"/>
  <circle cx="83.21" cy="304.14" r="2.5" fill="#2563eb"/>
  <circle cx="84.41" cy="200.46" r="2.5" fill="#2563eb"/>
  <circle cx="85.61" cy="250.94" r="2.5" fill="#2563eb"/>
  <circle cx="86.81" cy="300.01" r="2.5" fill="#2563eb"/>
  <circle cx="88.01" cy="300.06" r="2.5" fill="#2563eb"/>
  <circle cx="89.21" cy="300.01" r="2.5" fill="#2563eb"/>
  <circle cx="90.41" cy="300.01" r="2.5" fill="#2563eb"/>
  <circle cx="91.61" cy="348.00" r="2.5" fill="#2563eb"/>
  <circle cx="92.81" cy="300.01" r="2.5" fill="#2563eb"/>
  <circle cx="94.01" cy="249.99" r="2.5" fill="#2563eb"/>
  <circle cx="95.21" cy="200.00" r="2.5" fill="#2563eb"/>
  <circle cx="96.41" cy="249.99" r="2.5" fill="#2563eb"/>
  <circle cx="97.61" cy="249.99" r="2.5" fill="#2563eb"/>
  <circle cx="98.81" cy="250.03" r="2.5" fill="#2563eb"/>
  <circle cx="100.01" cy="250.03" r="2.5" fill="#2563eb"/>
  <circle cx="101.21" cy="250.03" r="2.5" fill="#2563eb"/>
  <circle cx="102.41" cy="250.40" r="2.5" fill="#2563eb"/>
  <circle cx="103.61" cy="250.90" r="2.5" fill="#2563eb"/>
  <circle cx="104.82" cy="250.90" r="2.5" fill="#2563eb"/>
  <circle cx="106.02" cy="251.32" r="2.5" fill="#2563eb"/>
  <circle cx="107.22" cy="249.94" r="2.5" fill="#2563eb"/>
  <circle cx="108.42" cy="300.01" r="2.5" fill="#2563eb"/>
  <circle cx="109.62" cy="299.93" r="2.5" fill="#2563eb"/>
  <circle cx="110.82" cy="251.03" r="2.5" fill="#2563eb"/>
  <circle cx="112.02" cy="300.68" r="2.5" fill="#2563eb"/>
  <circle cx="113.22" cy="250.03" r="2.5" fill="#2563eb"/>
  <circle cx="114.42" cy="200.00" r="2.5" fill="#2563eb"/>
  <circle cx="115.62" cy="249.99" r="2.5" fill="#2563eb"/>
  <circle cx="116.82" cy="250.03" r="2.5" fill="#2563eb"/>
  <circle cx="118.02" cy="250.03" r="2.5" fill="#2563eb"/>
  <circle cx="119.22" cy="250.03" r="2.5" fill="#2563eb"/>
  <circle cx="120.42" cy="300.01" r="2.5" fill="#2563eb"/>
  <circle cx="121.62" cy="200.04" r="2.5" fill="#2563eb"/>
  <circle cx="122.82" cy="250.03" r="2.5" fill="#2563eb"/>
  <circle cx="124.02" cy="250.03" r="2.5" fill="#2563eb"/>
  <circle cx="125.22" cy="250.03" r="2.5" fill="#2563eb"/>
  <circle cx="126.42" cy="249.90" r="2.5" fill="#2563eb"/>
  <circle cx="127.63" cy="250.03" r="2.5" fill="#2563eb"/>
  <circle cx="128.83" cy="250.03" r="2.5" fill="#2563eb"/>
  <circle cx="130.03" cy="250.94" r="2.5" fill="#2563eb"/>
  <circle cx="131.23" cy="250.44" r="2.5" fill="#2563eb"/>
  <circle cx="132.43" cy="250.03" r="2.5" fill="#2563eb"/>
  <circle cx="133.63" cy="250.03" r="2.5" fill="#2563eb"/>
  <circle cx="134.83" cy="300.47" r="2.5" fill="#2563eb"/>
  <circle cx="136.03" cy="300.01" r="2.5" fill="#2563eb"/>
  <circle cx="137.23" cy="300.43" r="2.5" fill="#2563eb"/>
  <circle cx="138.43" cy="250.03" r="2.5" fill="#2563eb"/>
  <circle cx="139.63" cy="249.99" r="2.5" fill="#2563eb"/>
  <circle cx="140.83" cy="300.43" r="2.5" fill="#2563eb"/>
  <circle cx="142.03" cy="249.90" r="2.5" fill="#2563eb"/>
  <circle cx="143.23" cy="249.99" r="2.5" fill="#2563eb"/>
  <circle cx="144.43" cy="249.99" r="2.5" fill="#2563eb"/>
  <circle cx="145.63" cy="200.04" r="2.5" fill="#2563eb"/>
  <circle cx="146.83" cy="300.01" r="2.5" fill="#2563eb"/>
  <circle cx="148.03" cy="300.01" r="2.5" fill="#2563eb"/>
  <circle cx="149.23" cy="300.01" r="2.5" fill="#2563eb"/>
  <circle cx="150.44" cy="249.90" r="2.5" fill="#2563eb"/>
  <circle cx="151.64" cy="300.01" r="2.5" fill="#2563eb"/>
  <circle cx="152.84" cy="250.03" r="2.5" fill="#2563eb"/>
  <circle cx="154.04" cy="249.99" r="2.5" fill="#2563eb"/>
  <circle cx="155.24" cy="199.96" r="2.5" fill="#2563eb"/>
  <circle cx="156.44" cy="300.01" r="2.5" fill="#2563eb"/>
  <circle cx="157.64" cy="200.00" r="2.5" fill="#2563eb"/>
  <circle cx="158.84" cy="250.36" r="2.5" fill="#2563eb"/>
  <circle cx="160.04" cy="250.03" r="2.5" fill="#2563eb"/>
  <circle cx="161.24" cy="300.01" r="2.5" fill="#2563eb"/>
  <circle cx="162.44" cy="300.01" r="2.5" fill="#2563eb"/>
  <circle cx="163.64" cy="250.44" r="2.5" fill="#2563eb"/>
  <circle cx="164.84" cy="300.01" r="2.5" fill="#2563eb"/>
  <circle cx="166.04" cy="250.03" r="2.5" fill="#2563eb"/>
  <circle cx="167.24" cy="250.03" r="2.5" fill="#2563eb"/>
  <circle cx="168.44" cy="249.99" r="2.5" fill="#2563eb"/>
  <circle cx="169.64" cy="250.49" r="2.5" fill="#2563eb"/>
  <circle cx="170.84" cy="250.03" r="2.5" fill="#2563eb"/>
  <circle cx="172.04" cy="200.04" r="2.5" fill="#2563eb"/>
  <circle cx="173.25" cy="300.01" r="2.5" fill="#2563eb"/>
  <circle cx="174.45" cy="250.03" r="2.5" fill="#2563eb"/>
  <circle cx="175.65" cy="300.01" r="2.5" fill="#2563eb"/>
  <circle cx="176.85" cy="250.11" r="2.5" fill="#2563eb"/>
  <circle cx="178.05" cy="300.01" r="2.5" fill="#2563eb"/>
  <circle cx="179.25" cy="250.03" r="2.5" fill="#2563eb"/>
  <circle cx="180.45" cy="250.03" r="2.5" fill="#2563eb"/>
  <circle cx="181.65" cy="199.92" r="2.5" fill="#2563eb"/>
  <circle cx="182.85" cy="250.03" r="2.5" fill="#2563eb"/>
  <circle cx="184.05" cy="250.03" r="2.5" fill="#2563eb"/>
  <circle cx="185.25" cy="250.03" r="2.5" fill="#2563eb"/>
  <circle cx="186.45" cy="254.36" r="2.5" fill="#2563eb"/>
  <circle cx="187.65" cy="300.01" r="2.5" fill="#2563eb"/>
  <circle cx="188.85" cy="299.97" r="2.5" fill="#2563eb"/>
  <circle cx="190.05" cy="250.36" r="2.5" fill="#2563eb"/>
  <circle cx="191.25" cy="299.97" r="2.5" fill="#2563eb"/>
  <circle cx="192.45" cy="250.03" r="2.5" fill="#2563eb"/>
  <circle cx="193.65" cy="250.03" r="2.5" fill="#2563eb"/>
  <circle cx="194.85" cy="250.03" r="2.5" fill="#2563eb"/>
  <circle cx="196.06" cy="250.03" r="2.5" fill="#2563eb"/>
  <circle cx="197.26" cy="249.99" r="2.5" fill="#2563eb"/>
  <circle cx="198.46" cy="200.00" r="2.5" fill="#2563eb"/>
  <circle cx="199.66" cy="299.93" r="2.5" fill="#2563eb"/>
  <circle cx="200.86" cy="300.01" r="2.5" fill="#2563eb"/>
  <circle cx="202.06" cy="299.97" r="2.5" fill="#2563eb"/>
  <circle cx="203.26" cy="249.94" r="2.5" fill="#2563eb"/>
  <circle cx="204.46" cy="249.99" r="2.5" fill="#2563eb"/>
  <circle cx="205.66" cy="249.82" r="2.5" fill="#2563eb"/>
  <circle cx="206.86" cy="249.94" r="2.5" fill="#2563eb"/>
  <circle cx="208.06" cy="250.28" r="2.5" fill="#2563eb"/>
  <circle cx="209.26" cy="207.00" r="2.5" fill="#2563eb"/>
  <circle cx="210.46" cy="250.03" r="2.5" fill="#2563eb"/>
  <circle cx="211.66" cy="250.32" r="2.5" fill="#2563eb"/>
  <circle cx="212.86" cy="250.40" r="2.5" fill="#2563eb"/>
  <circle cx="214.06" cy="300.93" r="2.5" fill="#2563eb"/>
  <circle cx="215.26" cy="300.01" r="2.5" fill="#2563eb"/>
  <circle cx="216.46" cy="300.10" r="2.5" fill="#2563eb"/>
  <circle cx="217.66" cy="249.94" r="2.5" fill="#2563eb"/>
  <circle cx="218.87" cy="249.99" r="2.5" fill="#2563eb"/>
  <circle cx="220.07" cy="250.07" r="2.5" fill="#2563eb"/>
  <circle cx="221.27" cy="249.99" r="2.5" fill="#2563eb"/>
  <circle cx="222.47" cy="250.03" r="2.5" fill="#2563eb"/>
  <circle cx="223.67" cy="249.94" r="2.5" fill="#2563eb"/>
  <circle cx="224.87" cy="200.00" r="2.5" fill="#2563eb"/>
  <circle cx="226.07" cy="300.39" r="2.5" fill="#2563eb"/>
  <circle cx="227.27" cy="300.01" r="2.5" fill="#2563eb"/>
  <circle cx="228.47" cy="300.01" r="2.5" fill="#2563eb"/>
  <circle cx="229.67" cy="250.44" r="2.5" fill="#2563eb"/>
  <circle cx="230.87" cy="300.39" r="2.5" fill="#2563eb"/>
  <circle cx="232.07" cy="249.86" r="2.5" fill="#2563eb"/>
  <circle cx="233.27" cy="250.11" r="2.5" fill="#2563eb"/>
  <circle cx="234.47" cy="201.46" r="2.5" fill="#2563eb"/>
  <circle cx="235.67" cy="300.01" r="2.5" fill="#2563eb"/>
  <circle cx="236.87" cy="200.83" r="2.5" fill="#2563eb"/>
  <circle cx="238.07" cy="250.03" r="2.5" fill="#2563eb"/>
  <circle cx="239.27" cy="249.99" r="2.5" fill="#2563eb"/>
  <circle cx="240.47" cy="300.26" r="2.5" fill="#2563eb"/>
  <circle cx="241.68" cy="300.01" r="2.5" fill="#2563eb"/>
  <circle cx="242.88" cy="300.01" r="2.5" fill="#2563eb"/>
  <circle cx="244.08" cy="250.03" r="2.5" fill="#2563eb"/>
  <circle cx="245.28" cy="250.03" r="2.5" fill="#2563eb"/>
  <circle cx="246.48" cy="250.03" r="2.5" fill="#2563eb"/>
  <circle cx="247.68" cy="250.03" r="2.5" fill="#2563eb"/>
  <circle cx="248.88" cy="249.99" r="2.5" fill="#2563eb"/>
  <circle cx="250.08" cy="250.03" r="2.5" fill="#2563eb"/>
  <circle cx="251.28" cy="200.00" r="2.5" fill="#2563eb"/>
  <circle cx="252.48" cy="300.26" r="2.5" fill="#2563eb"/>
  <circle cx="253.68" cy="249.99" r="2.5" fill="#2563eb"/>
  <circle cx="254.88" cy="300.01" r="2.5" fill="#2563eb"/>
  <circle cx="256.08" cy="249.94" r="2.5" fill="#2563eb"/>
  <circle cx="257.28" cy="250.03" r="2.5" fill="#2563eb"/>
  <circle cx="258.48" cy="250.03" r="2.5" fill="#2563eb"/>
  <circle cx="259.68" cy="250.03" r="2.5" fill="#2563eb"/>
  <circle cx="260.88" cy="200.04" r="2.5" fill="#2563eb"/>
  <circle cx="262.08" cy="300.01" r="2.5" fill="#2563eb"/>
  <circle cx="263.28" cy="249.90" r="2.5" fill="#2563eb"/>
  <circle cx="264.49" cy="300.01" r="2.5" fill="#2563eb"/>
  <circle cx="265.69" cy="300.01" r="2.5" fill="#2563eb"/>
  <circle cx="266.89" cy="300.06" r="2.5" fill="#2563eb"/>
  <circle cx="268.09" cy="300.01" r="2.5" fill="#2563eb"/>
  <circle cx="269.29" cy="300.01" r="2.5" fill="#2563eb"/>
  <circle cx="270.49" cy="243.95" r="2.5" fill="#2563eb"/>
  <circle cx="271.69" cy="249.94" r="2.5" fill="#2563eb"/>
  <circle cx="272.89" cy="299.97" r="2.5" fill="#2563eb"/>
  <circle cx="274.09" cy="300.01" r="2.5" fill="#2563eb"/>
  <circle cx="275.29" cy="300.01" r="2.5" fill="#2563eb"/>
  <circle cx="276.49" cy="250.03" r="2.5" fill="#2563eb"/>
  <circle cx="277.69" cy="300.01" r="2.5" fill="#2563eb"/>
  <circle cx="278.89" cy="300.01" r="2.5" fill="#2563eb"/>
  <circle cx="280.09" cy="299.97" r="2.5" fill="#2563eb"/>
  <circle cx="281.29" cy="249.99" r="2.5" fill="#2563eb"/>
  <circle cx="282.49" cy="300.01" r="2.5" fill="#2563eb"/>
  <circle cx="283.69" cy="299.93" r="2.5" fill="#2563eb"/>
  <circle cx="284.89" cy="300.01" r="2.5" fill="#2563eb"/>
  <circle cx="286.09" cy="299.93" r="2.5" fill="#2563eb"/>
  <circle cx="287.30" cy="300.01" r="2.5" fill="#2563eb"/>
  <circle cx="288.50" cy="300.01" r="2.5" fill="#2563eb"/>
  <circle cx="289.70" cy="299.89" r="2.5" fill="#2563eb"/>
  <circle cx="290.90" cy="299.97" r="2.5" fill="#2563eb"/>
  <circle cx="292.10" cy="250.03" r="2.5" fill="#2563eb"/>
  <circle cx="293.30" cy="299.93" r="2.5" fill="#2563eb"/>
  <circle cx="294.50" cy="299.89" r="2.5" fill="#2563eb"/>
  <circle cx="295.70" cy="299.97" r="2.5" fill="#2563eb"/>
  <circle cx="296.90" cy="249.94" r="2.5" fill="#2563eb"/>
  <circle cx="298.10" cy="300.01" r="2.5" fill="#2563eb"/>
  <circle cx="299.30" cy="300.01" r="2.5" fill="#2563eb"/>
  <circle cx="300.50" cy="299.97" r="2.5" fill="#2563eb"/>
  <circle cx="301.70" cy="249.99" r="2.5" fill="#2563eb"/>
  <circle cx="302.90" cy="299.97" r="2.5" fill="#2563eb"/>
  <circle cx="304.10" cy="299.97" r="2.5" fill="#2563eb"/>
  <circle cx="305.30" cy="300.06" r="2.5" fill="#2563eb"/>
  <circle cx="306.50" cy="300.06" r="2.5" fill="#2563eb"/>
  <circle cx="307.70" cy="299.93" r="2.5" fill="#2563eb"/>
  <circle cx="308.91" cy="300.01" r="2.5" fill="#2563eb"/>
  <circle cx="310.11" cy="300.01" r="2.5" fill="#2563eb"/>
  <circle cx="311.31" cy="299.93" r="2.5" fill="#2563eb"/>
  <circle cx="312.51" cy="300.01" r="2.5" fill="#2563eb"/>
  <circle cx="313.71" cy="300.01" r="2.5" fill="#2563eb"/>
  <circle cx="314.91" cy="299.97" r="2.5" fill="#2563eb"/>
  <circle cx="316.11" cy="300.01" r="2.5" fill="#2563eb"/>
  <circle cx="317.31" cy="300.01" r="2.5" fill="#2563eb"/>
  <circle cx="318.51" cy="300.01" r="2.5" fill="#2563eb"/>
  <circle cx="319.71" cy="300.01" r="2.5" fill="#2563eb"/>
  <circle cx="320.91" cy="249.86" r="2.5" fill="#2563eb"/>
  <circle cx="322.11" cy="300.01" r="2.5" fill="#2563eb"/>
  <circle cx="323.31" cy="300.10" r="2.5" fill="#2563eb"/>
  <circle cx="324.51" cy="299.93" r="2.5" fill="#2563eb"/>
  <circle cx="325.71" cy="300.01" r="2.5" fill="#2563eb"/>
  <circle cx="326.91" cy="299.93" r="2.5" fill="#2563eb"/>
  <circle cx="328.11" cy="300.01" r="2.5" fill="#2563eb"/>
  <circle cx="329.31" cy="300.01" r="2.5" fill="#2563eb"/>
  <circle cx="330.51" cy="300.01" r="2.5" fill="#2563eb"/>
  <circle cx="331.72" cy="300.01" r="2.5" fill="#2563eb"/>
  <circle cx="332.92" cy="300.01" r="2.5" fill="#2563eb"/>
  <circle cx="334.12" cy="299.97" r="2.5" fill="#2563eb"/>
  <circle cx="335.32" cy="300.01" r="2.5" fill="#2563eb"/>
  <circle cx="336.52" cy="300.01" r="2.5" fill="#2563eb"/>
  <circle cx="337.72" cy="300.01" r="2.5" fill="#2563eb"/>
  <circle cx="338.92" cy="300.01" r="2.5" fill="#2563eb"/>
  <circle cx="340.12" cy="250.03" r="2.5" fill="#2563eb"/>
  <circle cx="341.32" cy="300.01" r="2.5" fill="#2563eb"/>
  <circle cx="342.52" cy="300.01" r="2.5" fill="#2563eb"/>
  <circle cx="343.72" cy="299.97" r="2.5" fill="#2563eb"/>
  <circle cx="344.92" cy="300.01" r="2.5" fill="#2563eb"/>
  <circle cx="346.12" cy="300.01" r="2.5" fill="#2563eb"/>
  <circle cx="347.32" cy="299.97" r="2.5" fill="#2563eb"/>
  <circle cx="348.52" cy="299.97" r="2.5" fill="#2563eb"/>
  <circle cx="349.72" cy="300.01" r="2.5" fill="#2563eb"/>
  <circle cx="350.92" cy="299.97" r="2.5" fill="#2563eb"/>
  <circle cx="352.12" cy="300.01" r="2.5" fill="#2563eb"/>
  <circle cx="353.32" cy="299.93" r="2.5" fill="#2563eb"/>
  <circle cx="354.53" cy="300.01" r="2.5" fill="#2563eb"/>
  <circle cx="355.73" cy="250.03" r="2.5" fill="#2563eb"/>
  <circle cx="356.93" cy="300.01" r="2.5" fill="#2563eb"/>
  <circle cx="358.13" cy="300.01" r="2.5" fill="#2563eb"/>
  <circle cx="359.33" cy="300.01" r="2.5" fill="#2563eb"/>
  <circle cx="360.53" cy="300.01" r="2.5" fill="#2563eb"/>
  <circle cx="361.73" cy="300.01" r="2.5" fill="#2563eb"/>
  <circle cx="362.93" cy="299.89" r="2.5" fill="#2563eb"/>
  <circle cx="364.13" cy="300.01" r="2.5" fill="#2563eb"/>
  <circle cx="365.33" cy="300.01" r="2.5" fill="#2563eb"/>
  <circle cx="366.53" cy="250.07" r="2.5" fill="#2563eb"/>
  <circle cx="367.73" cy="300.01" r="2.5" fill="#2563eb"/>
  <circle cx="368.93" cy="299.93" r="2.5" fill="#2563eb"/>
  <circle cx="370.13" cy="300.01" r="2.5" fill="#2563eb"/>
  <circle cx="371.33" cy="299.97" r="2.5" fill="#2563eb"/>
  <circle cx="372.53" cy="299.97" r="2.5" fill="#2563eb"/>
  <circle cx="373.73" cy="299.97" r="2.5" fill="#2563eb"/>
  <circle cx="374.93" cy="250.03" r="2.5" fill="#2563eb"/>
  <circle cx="376.13" cy="300.01" r="2.5" fill="#2563eb"/>
  <circle cx="377.34" cy="300.01" r="2.5" fill="#2563eb"/>
  <circle cx="378.54" cy="300.01" r="2.5" fill="#2563eb"/>
  <circle cx="379.74" cy="300.01" r="2.5" fill="#2563eb"/>
  <circle cx="380.94" cy="299.97" r="2.5" fill="#2563eb"/>
  <circle cx="382.14" cy="300.01" r="2.5" fill="#2563eb"/>
  <circle cx="383.34" cy="299.97" r="2.5" fill="#2563eb"/>
  <circle cx="384.54" cy="300.01" r="2.5" fill="#2563eb"/>
  <circle cx="385.74" cy="299.97" r="2.5" fill="#2563eb"/>
  <circle cx="386.94" cy="249.90" r="2.5" fill="#2563eb"/>
  <circle cx="388.14" cy="300.01" r="2.5" fill="#2563eb"/>
  <circle cx="389.34" cy="300.01" r="2.5" fill="#2563eb"/>
  <circle cx="390.54" cy="299.89" r="2.5" fill="#2563eb"/>
  <circle cx="391.74" cy="299.97" r="2.5" fill="#2563eb"/>
  <circle cx="392.94" cy="299.97" r="2.5" fill="#2563eb"/>
  <circle cx="394.14" cy="249.99" r="2.5" fill="#2563eb"/>
  <circle cx="395.34" cy="299.97" r="2.5" fill="#2563eb"/>
  <circle cx="396.54" cy="299.89" r="2.5" fill="#2563eb"/>
  <circle cx="397.74" cy="300.01" r="2.5" fill="#2563eb"/>
  <circle cx="398.94" cy="299.97" r="2.5" fill="#2563eb"/>
  <circle cx="400.15" cy="299.97" r="2.5" fill="#2563eb"/>
  <circle cx="401.35" cy="300.01" r="2.5" fill="#2563eb"/>
  <circle cx="402.55" cy="299.97" r="2.5" fill="#2563eb"/>
  <circle cx="403.75" cy="249.99" r="2.5" fill="#2563eb"/>
  <circle cx="404.95" cy="299.97" r="2.5" fill="#2563eb"/>
  <circle cx="406.15" cy="299.97" r="2.5" fill="#2563eb"/>
  <circle cx="407.35" cy="300.06" r="2.5" fill="#2563eb"/>
  <circle cx="408.55" cy="300.06" r="2.5" fill="#2563eb"/>
  <circle cx="409.75" cy="249.94" r="2.5" fill="#2563eb"/>
  <circle cx="410.95" cy="300.01" r="2.5" fill="#2563eb"/>
  <circle cx="412.15" cy="299.93" r="2.5" fill="#2563eb"/>
  <circle cx="413.35" cy="300.01" r="2.5" fill="#2563eb"/>
  <circle cx="414.55" cy="300.01" r="2.5" fill="#2563eb"/>
  <circle cx="415.75" cy="249.99" r="2.5" fill="#2563eb"/>
  <circle cx="416.95" cy="300.01" r="2.5" fill="#2563eb"/>
  <circle cx="418.15" cy="300.01" r="2.5" fill="#2563eb"/>
  <circle cx="419.35" cy="300.01" r="2.5" fill="#2563eb"/>
  <circle cx="420.55" cy="299.93" r="2.5" fill="#2563eb"/>
  <circle cx="421.75" cy="299.93" r="2.5" fill="#2563eb"/>
  <circle cx="422.96" cy="300.01" r="2.5" fill="#2563eb"/>
  <circle cx="424.16" cy="300.01" r="2.5" fill="#2563eb"/>
  <circle cx="425.36" cy="249.94" r="2.5" fill="#2563eb"/>
  <circle cx="426.56" cy="299.97" r="2.5" fill="#2563eb"/>
  <circle cx="427.76" cy="299.97" r="2.5" fill="#2563eb"/>
  <circle cx="428.96" cy="300.01" r="2.5" fill="#2563eb"/>
  <circle cx="430.16" cy="300.01" r="2.5" fill="#2563eb"/>
  <circle cx="431.36" cy="300.01" r="2.5" fill="#2563eb"/>
  <circle cx="432.56" cy="249.99" r="2.5" fill="#2563eb"/>
  <circle cx="433.76" cy="300.01" r="2.5" fill="#2563eb"/>
  <circle cx="434.96" cy="300.01" r="2.5" fill="#2563eb"/>
  <circle cx="436.16" cy="300.01" r="2.5" fill="#2563eb"/>
  <circle cx="437.36" cy="250.03" r="2.5" fill="#2563eb"/>
  <circle cx="438.56" cy="300.01" r="2.5" fill="#2563eb"/>
  <circle cx="439.76" cy="300.01" r="2.5" fill="#2563eb"/>
  <circle cx="440.96" cy="300.01" r="2.5" fill="#2563eb"/>
  <circle cx="442.16" cy="299.97" r="2.5" fill="#2563eb"/>
  <circle cx="443.36" cy="300.01" r="2.5" fill="#2563eb"/>
  <circle cx="444.56" cy="300.01" r="2.5" fill="#2563eb"/>
  <circle cx="445.77" cy="299.97" r="2.5" fill="#2563eb"/>
  <circle cx="446.97" cy="299.97" r="2.5" fill="#2563eb"/>
  <circle cx="448.17" cy="300.01" r="2.5" fill="#2563eb"/>
  <circle cx="449.37" cy="300.01" r="2.5" fill="#2563eb"/>
  <circle cx="450.57" cy="299.97" r="2.5" fill="#2563eb"/>
  <circle cx="451.77" cy="299.93" r="2.5" fill="#2563eb"/>
  <circle cx="452.97" cy="300.01" r="2.5" fill="#2563eb"/>
  <circle cx="454.17" cy="300.06" r="2.5" fill="#2563eb"/>
  <circle cx="455.37" cy="299.97" r="2.5" fill="#2563eb"/>
  <circle cx="456.57" cy="300.01" r="2.5" fill="#2563eb"/>
  <circle cx="457.77" cy="250.03" r="2.5" fill="#2563eb"/>
  <circle cx="458.97" cy="250.03" r="2.5" fill="#2563eb"/>
  <circle cx="460.17" cy="299.93" r="2.5" fill="#2563eb"/>
  <circle cx="461.37" cy="299.97" r="2.5" fill="#2563eb"/>
  <circle cx="462.57" cy="300.01" r="2.5" fill="#2563eb"/>
  <circle cx="463.77" cy="300.01" r="2.5" fill="#2563eb"/>
  <circle cx="464.97" cy="300.06" r="2.5" fill="#2563eb"/>
  <circle cx="466.17" cy="300.01" r="2.5" fill="#2563eb"/>
  <circle cx="467.37" cy="299.93" r="2.5" fill="#2563eb"/>
  <circle cx="468.58" cy="300.01" r="2.5" fill="#2563eb"/>
  <circle cx="469.78" cy="300.01" r="2.5" fill="#2563eb"/>
  <circle cx="470.98" cy="299.97" r="2.5" fill="#2563eb"/>
  <circle cx="472.18" cy="299.97" r="2.5" fill="#2563eb"/>
  <circle cx="473.38" cy="300.01" r="2.5" fill="#2563eb"/>
  <circle cx="474.58" cy="250.03" r="2.5" fill="#2563eb"/>
  <circle cx="475.78" cy="300.01" r="2.5" fill="#2563eb"/>
  <circle cx="476.98" cy="300.01" r="2.5" fill="#2563eb"/>
  <circle cx="478.18" cy="300.01" r="2.5" fill="#2563eb"/>
  <circle cx="479.38" cy="299.97" r="2.5" fill="#2563eb"/>
  <circle cx="480.58" cy="300.01" r="2.5" fill="#2563eb"/>
  <circle cx="481.78" cy="299.97" r="2.5" fill="#2563eb"/>
  <circle cx="482.98" cy="300.01" r="2.5" fill="#2563eb"/>
  <circle cx="484.18" cy="299.97" r="2.5" fill="#2563eb"/>
  <circle cx="485.38" cy="299.97" r="2.5" fill="#2563eb"/>
  <circle cx="486.58" cy="299.93" r="2.5" fill="#2563eb"/>
  <circle cx="487.78" cy="300.01" r="2.5" fill="#2563eb"/>
  <circle cx="488.98" cy="300.01" r="2.5" fill="#2563eb"/>
  <circle cx="490.18" cy="299.89" r="2.5" fill="#2563eb"/>
  <circle cx="491.39" cy="299.97" r="2.5" fill="#2563eb"/>
  <circle cx="492.59" cy="299.97" r="2.5" fill="#2563eb"/>
  <circle cx="493.79" cy="300.06" r="2.5" fill="#2563eb"/>
  <circle cx="494.99" cy="249.90" r="2.5" fill="#2563eb"/>
  <circle cx="496.19" cy="299.89" r="2.5" fill="#2563eb"/>
  <circle cx="497.39" cy="300.01" r="2.5" fill="#2563eb"/>
  <circle cx="498.59" cy="299.97" r="2.5" fill="#2563eb"/>
  <circle cx="499.79" cy="299.97" r="2.5" fill="#2563eb"/>
  <circle cx="500.99" cy="299.97" r="2.5" fill="#2563eb"/>
  <circle cx="502.19" cy="300.01" r="2.5" fill="#2563eb"/>
  <circle cx="503.39" cy="300.01" r="2.5" fill="#2563eb"/>
  <circle cx="504.59" cy="299.97" r="2.5" fill="#2563eb"/>
  <circle cx="505.79" cy="299.97" r="2.5" fill="#2563eb"/>
  <circle cx="506.99" cy="299.97" r="2.5" fill="#2563eb"/>
  <circle cx="508.19" cy="250.03" r="2.5" fill="#2563eb"/>
  <circle cx="509.39" cy="299.93" r="2.5" fill="#2563eb"/>
  <circle cx="510.59" cy="300.01" r="2.5" fill="#2563eb"/>
  <circle cx="511.79" cy="300.01" r="2.5" fill="#2563eb"/>
  <circle cx="512.99" cy="299.93" r="2.5" fill="#2563eb"/>
  <circle cx="514.20" cy="300.01" r="2.5" fill="#2563eb"/>
  <circle cx="515.40" cy="300.01" r="2.5" fill="#2563eb"/>
  <circle cx="516.60" cy="299.97" r="2.5" fill="#2563eb"/>
  <circle cx="517.80" cy="300.01" r="2.5" fill="#2563eb"/>
  <circle cx="519.00" cy="300.01" r="2.5" fill="#2563eb"/>
  <circle cx="520.20" cy="300.06" r="2.5" fill="#2563eb"/>
  <circle cx="521.40" cy="300.01" r="2.5" fill="#2563eb"/>
  <circle cx="522.60" cy="299.97" r="2.5" fill="#2563eb"/>
  <circle cx="523.80" cy="299.89" r="2.5" fill="#2563eb"/>
  <circle cx="525.00" cy="300.01" r="2.5" fill="#2563eb"/>
  <circle cx="526.20" cy="300.01" r="2.5" fill="#2563eb"/>
  <circle cx="527.40" cy="249.94" r="2.5" fill="#2563eb"/>
  <circle cx="528.60" cy="249.94" r="2.5" fill="#2563eb"/>
  <circle cx="529.80" cy="300.01" r="2.5" fill="#2563eb"/>
  <circle cx="531.00" cy="300.01" r="2.5" fill="#2563eb"/>
  <circle cx="532.20" cy="300.01" r="2.5" fill="#2563eb"/>
  <circle cx="533.40" cy="300.01" r="2.5" fill="#2563eb"/>
  <circle cx="534.60" cy="299.97" r="2.5" fill="#2563eb"/>
  <circle cx="535.80" cy="250.03" r="2.5" fill="#2563eb"/>
  <circle cx="537.01" cy="300.01" r="2.5" fill="#2563eb"/>
  <circle cx="538.21" cy="300.01" r="2.5" fill="#2563eb"/>
  <circle cx="539.41" cy="300.01" r="2.5" fill="#2563eb"/>
  <circle cx="540.61" cy="300.01" r="2.5" fill="#2563eb"/>
  <circle cx="541.81" cy="250.03" r="2.5" fill="#2563eb"/>
  <circle cx="543.01" cy="249.99" r="2.5" fill="#2563eb"/>
  <circle cx="544.21" cy="300.01" r="2.5" fill="#2563eb"/>
  <circle cx="545.41" cy="299.97" r="2.5" fill="#2563eb"/>
  <circle cx="546.61" cy="300.01" r="2.5" fill="#2563eb"/>
  <circle cx="547.81" cy="299.97" r="2.5" fill="#2563eb"/>
  <circle cx="549.01" cy="300.01" r="2.5" fill="#2563eb"/>
  <circle cx="550.21" cy="299.97" r="2.5" fill="#2563eb"/>
  <circle cx="551.41" cy="299.97" r="2.5" fill="#2563eb"/>
  <circle cx="552.61" cy="299.97" r="2.5" fill="#2563eb"/>
  <circle cx="553.81" cy="300.06" r="2.5" fill="#2563eb"/>
  <circle cx="555.01" cy="249.99" r="2.5" fill="#2563eb"/>
  <circle cx="556.21" cy="300.01" r="2.5" fill="#2563eb"/>
  <circle cx="557.41" cy="250.03" r="2.5" fill="#2563eb"/>
  <circle cx="558.61" cy="249.94" r="2.5" fill="#2563eb"/>
  <circle cx="559.82" cy="249.99" r="2.5" fill="#2563eb"/>
  <circle cx="561.02" cy="300.01" r="2.5" fill="#2563eb"/>
  <circle cx="562.22" cy="300.06" r="2.5" fill="#2563eb"/>
  <circle cx="563.42" cy="300.01" r="2.5" fill="#2563eb"/>
  <circle cx="564.62" cy="299.97" r="2.5" fill="#2563eb"/>
  <circle cx="565.82" cy="299.97" r="2.5" fill="#2563eb"/>
  <circle cx="567.02" cy="300.01" r="2.5" fill="#2563eb"/>
  <circle cx="568.22" cy="299.93" r="2.5" fill="#2563eb"/>
  <circle cx="569.42" cy="299.89" r="2.5" fill="#2563eb"/>
  <circle cx="570.62" cy="299.89" r="2.5" fill="#2563eb"/>
  <circle cx="571.82" cy="299.89" r="2.5" fill="#2563eb"/>
  <circle cx="573.02" cy="299.89" r="2.5" fill="#2563eb"/>
  <circle cx="574.22" cy="299.85" r="2.5" fill="#2563eb"/>
  <circle cx="575.42" cy="299.85" r="2.5" fill="#2563eb"/>
  <circle cx="576.62" cy="299.89" r="2.5" fill="#2563eb"/>
  <circle cx="577.82" cy="299.81" r="2.5" fill="#2563eb"/>
  <circle cx="579.02" cy="299.81" r="2.5" fill="#2563eb"/>
  <circle cx="580.22" cy="299.81" r="2.5" fill="#2563eb"/>
  <circle cx="581.42" cy="299.76" r="2.5" fill="#2563eb"/>
  <circle cx="582.63" cy="299.76" r="2.5" fill="#2563eb"/>
  <circle cx="583.83" cy="299.76" r="2.5" fill="#2563eb"/>
  <circle cx="585.03" cy="299.72" r="2.5" fill="#2563eb"/>
  <circle cx="586.23" cy="299.68" r="2.5" fill="#2563eb"/>
  <circle cx="587.43" cy="299.60" r="2.5" fill="#2563eb"/>
  <circle cx="588.63" cy="299.60" r="2.5" fill="#2563eb"/>
  <circle cx="589.83" cy="299.60" r="2.5" fill="#2563eb"/>
  <circle cx="591.03" cy="299.56" r="2.5" fill="#2563eb"/>
  <circle cx="592.23" cy="299.47" r="2.5" fill="#2563eb"/>
  <circle cx="593.43" cy="299.43" r="2.5" fill="#2563eb"/>
  <circle cx="594.63" cy="299.43" r="2.5" fill="#2563eb"/>
  <circle cx="595.83" cy="299.39" r="2.5" fill="#2563eb"/>
  <circle cx="597.03" cy="299.47" r="2.5" fill="#2563eb"/>
  <circle cx="598.23" cy="259.82" r="2.5" fill="#2563eb"/>
  <circle cx="599.43" cy="338.96" r="2.5" fill="#2563eb"/>
  <circle cx="600.63" cy="299.31" r="2.5" fill="#2563eb"/>
  <circle cx="601.83" cy="299.31" r="2.5" fill="#2563eb"/>
  <circle cx="603.03" cy="299.26" r="2.5" fill="#2563eb"/>
  <circle cx="604.23" cy="299.68" r="2.5" fill="#2563eb"/>
  <circle cx="605.44" cy="299.68" r="2.5" fill="#2563eb"/>
  <circle cx="606.64" cy="299.68" r="2.5" fill="#2563eb"/>
  <circle cx="607.84" cy="299.64" r="2.5" fill="#2563eb"/>
  <circle cx="609.04" cy="299.14" r="2.5" fill="#2563eb"/>
  <circle cx="610.24" cy="299.14" r="2.5" fill="#2563eb"/>
  <circle cx="611.44" cy="299.10" r="2.5" fill="#2563eb"/>
  <circle cx="612.64" cy="299.10" r="2.5" fill="#2563eb"/>
  <circle cx="613.84" cy="299.10" r="2.5" fill="#2563eb"/>
  <circle cx="615.04" cy="248.07" r="2.5" fill="#2563eb"/>
  <circle cx="616.24" cy="299.06" r="2.5" fill="#2563eb"/>
  <circle cx="617.44" cy="299.06" r="2.5" fill="#2563eb"/>
  <circle cx="618.64" cy="299.06" r="2.5" fill="#2563eb"/>
  <circle cx="619.84" cy="299.06" r="2.5" fill="#2563eb"/>
  <circle cx="621.04" cy="299.06" r="2.5" fill="#2563eb"/>
  <circle cx="622.24" cy="298.97" r="2.5" fill="#2563eb"/>
  <circle cx="623.44" cy="298.97" r="2.5" fill="#2563eb"/>
  <circle cx="624.64" cy="298.93" r="2.5" fill="#2563eb"/>
  <circle cx="625.84" cy="298.97" r="2.5" fill="#2563eb"/>
  <circle cx="627.04" cy="298.93" r="2.5" fill="#2563eb"/>
  <circle cx="628.25" cy="298.89" r="2.5" fill="#2563eb"/>
  <circle cx="629.45" cy="298.89" r="2.5" fill="#2563eb"/>
  <circle cx="630.65" cy="298.89" r="2.5" fill="#2563eb"/>
  <circle cx="631.85" cy="298.89" r="2.5" fill="#2563eb"/>
  <circle cx="633.05" cy="247.78" r="2.5" fill="#2563eb"/>
  <circle cx="634.25" cy="298.89" r="2.5" fill="#2563eb"/>
  <circle cx="635.45" cy="298.89" r="2.5" fill="#2563eb"/>
  <circle cx="636.65" cy="298.85" r="2.5" fill="#2563eb"/>
  <circle cx="637.85" cy="298.85" r="2.5" fill="#2563eb"/>
  <circle cx="639.05" cy="298.81" r="2.5" fill="#2563eb"/>
  <circle cx="640.25" cy="298.81" r="2.5" fill="#2563eb"/>
  <circle cx="641.45" cy="298.81" r="2.5" fill="#2563eb"/>
  <circle cx="642.65" cy="298.81" r="2.5" fill="#2563eb"/>
  <circle cx="643.85" cy="298.81" r="2.5" fill="#2563eb"/>
  <circle cx="645.05" cy="298.81" r="2.5" fill="#2563eb"/>
  <circle cx="646.25" cy="298.81" r="2.5" fill="#2563eb"/>
  <circle cx="647.45" cy="298.81" r="2.5" fill="#2563eb"/>
  <circle cx="648.65" cy="298.81" r="2.5" fill="#2563eb"/>
  <circle cx="649.85" cy="298.72" r="2.5" fill="#2563eb"/>
  <circle cx="651.06" cy="247.45" r="2.5" fill="#2563eb"/>
  <circle cx="652.26" cy="247.45" r="2.5" fill="#2563eb"/>
  <circle cx="653.46" cy="298.72" r="2.5" fill="#2563eb"/>
  <circle cx="654.66" cy="298.72" r="2.5" fill="#2563eb"/>
  <circle cx="655.86" cy="298.72" r="2.5" fill="#2563eb"/>
  <circle cx="657.06" cy="298.72" r="2.5" fill="#2563eb"/>
  <circle cx="658.26" cy="298.72" r="2.5" fill="#2563eb"/>
  <circle cx="659.46" cy="298.72" r="2.5" fill="#2563eb"/>
  <circle cx="660.66" cy="247.36" r="2.5" fill="#2563eb"/>
  <circle cx="661.86" cy="298.68" r="2.5" fill="#2563eb"/>
  <circle cx="663.06" cy="247.36" r="2.5" fill="#2563eb"/>
  <circle cx="664.26" cy="247.36" r="2.5" fill="#2563eb"/>
  <circle cx="665.46" cy="247.36" r="2.5" fill="#2563eb"/>
  <circle cx="666.66" cy="298.68" r="2.5" fill="#2563eb"/>
  <circle cx="667.86" cy="298.68" r="2.5" fill="#2563eb"/>
  <circle cx="669.06" cy="298.68" r="2.5" fill="#2563eb"/>
  <circle cx="670.26" cy="298.68" r="2.5" fill="#2563eb"/>
  <circle cx="671.46" cy="298.68" r="2.5" fill="#2563eb"/>
  <circle cx="672.66" cy="341.67" r="2.5" fill="#2563eb"/>
  <circle cx="673.87" cy="307.01" r="2.5" fill="#2563eb"/>
  <circle cx="675.07" cy="298.68" r="2.5" fill="#2563eb"/>
  <circle cx="676.27" cy="298.68" r="2.5" fill="#2563eb"/>
  <circle cx="677.47" cy="298.68" r="2.5" fill="#2563eb"/>
  <circle cx="678.67" cy="247.36" r="2.5" fill="#2563eb"/>
  <circle cx="679.87" cy="298.64" r="2.5" fill="#2563eb"/>
  <circle cx="681.07" cy="247.36" r="2.5" fill="#2563eb"/>
  <circle cx="682.27" cy="247.28" r="2.5" fill="#2563eb"/>
  <circle cx="683.47" cy="247.20" r="2.5" fill="#2563eb"/>
  <circle cx="684.67" cy="298.60" r="2.5" fill="#2563eb"/>
  <circle cx="685.87" cy="298.60" r="2.5" fill="#2563eb"/>
  <circle cx="687.07" cy="247.03" r="2.5" fill="#2563eb"/>
  <circle cx="688.27" cy="298.51" r="2.5" fill="#2563eb"/>
  <circle cx="689.47" cy="298.51" r="2.5" fill="#2563eb"/>
  <circle cx="690.67" cy="298.51" r="2.5" fill="#2563eb"/>
  <circle cx="691.87" cy="298.51" r="2.5" fill="#2563eb"/>
  <circle cx="693.07" cy="298.51" r="2.5" fill="#2563eb"/>
  <circle cx="694.27" cy="298.51" r="2.5" fill="#2563eb"/>
  <circle cx="695.47" cy="298.51" r="2.5" fill="#2563eb"/>
  <circle cx="696.68" cy="298.51" r="2.5" fill="#2563eb"/>
  <circle cx="697.88" cy="298.51" r="2.5" fill="#2563eb"/>
  <circle cx="699.08" cy="298.51" r="2.5" fill="#2563eb"/>
  <circle cx="700.28" cy="298.51" r="2.5" fill="#2563eb"/>
  <circle cx="701.48" cy="298.51" r="2.5" fill="#2563eb"/>
  <circle cx="702.68" cy="298.51" r="2.5" fill="#2563eb"/>
  <circle cx="703.88" cy="298.51" r="2.5" fill="#2563eb"/>
  <circle cx="705.08" cy="298.51" r="2.5" fill="#2563eb"/>
  <circle cx="706.28" cy="298.51" r="2.5" fill="#2563eb"/>
  <circle cx="707.48" cy="298.51" r="2.5" fill="#2563eb"/>
  <circle cx="708.68" cy="298.51" r="2.5" fill="#2563eb"/>
  <circle cx="709.88" cy="298.51" r="2.5" fill="#2563eb"/>
  <circle cx="711.08" cy="298.51" r="2.5" fill="#2563eb"/>
  <circle cx="712.28" cy="298.51" r="2.5" fill="#2563eb"/>
  <circle cx="713.48" cy="298.51" r="2.5" fill="#2563eb"/>
  <circle cx="714.68" cy="298.51" r="2.5" fill="#2563eb"/>
  <circle cx="715.88" cy="298.51" r="2.5" fill="#2563eb"/>
  <circle cx="717.08" cy="298.51" r="2.5" fill="#2563eb"/>
  <circle cx="718.28" cy="298.51" r="2.5" fill="#2563eb"/>
  <circle cx="719.49" cy="298.47" r="2.5" fill="#2563eb"/>
  <circle cx="720.69" cy="298.51" r="2.5" fill="#2563eb"/>
  <circle cx="721.89" cy="298.51" r="2.5" fill="#2563eb"/>
  <circle cx="723.09" cy="298.47" r="2.5" fill="#2563eb"/>
  <circle cx="724.29" cy="298.51" r="2.5" fill="#2563eb"/>
  <circle cx="725.49" cy="298.47" r="2.5" fill="#2563eb"/>
  <circle cx="726.69" cy="298.51" r="2.5" fill="#2563eb"/>
  <circle cx="727.89" cy="298.43" r="2.5" fill="#2563eb"/>
  <circle cx="729.09" cy="298.56" r="2.5" fill="#2563eb"/>
  <circle cx="730.29" cy="298.43" r="2.5" fill="#2563eb"/>
  <circle cx="731.49" cy="298.43" r="2.5" fill="#2563eb"/>
  <circle cx="732.69" cy="298.43" r="2.5" fill="#2563eb"/>
  <circle cx="733.89" cy="298.43" r="2.5" fill="#2563eb"/>
  <circle cx="735.09" cy="298.43" r="2.5" fill="#2563eb"/>
  <circle cx="736.29" cy="298.43" r="2.5" fill="#2563eb"/>
  <circle cx="737.49" cy="298.43" r="2.5" fill="#2563eb"/>
  <circle cx="738.69" cy="298.43" r="2.5" fill="#2563eb"/>
  <circle cx="739.89" cy="298.43" r="2.5" fill="#2563eb"/>
  <circle cx="741.09" cy="298.43" r="2.5" fill="#2563eb"/>
  <circle cx="742.30" cy="298.43" r="2.5" fill="#2563eb"/>
  <circle cx="743.50" cy="298.43" r="2.5" fill="#2563eb"/>
  <circle cx="744.70" cy="298.43" r="2.5" fill="#2563eb"/>
  <circle cx="745.90" cy="298.43" r="2.5" fill="#2563eb"/>
  <circle cx="747.10" cy="298.43" r="2.5" fill="#2563eb"/>
  <circle cx="748.30" cy="298.43" r="2.5" fill="#2563eb"/>
  <circle cx="749.50" cy="298.43" r="2.5" fill="#2563eb"/>
  <circle cx="750.70" cy="298.43" r="2.5" fill="#2563eb"/>
  <circle cx="751.90" cy="298.43" r="2.5" fill="#2563eb"/>
  <circle cx="753.10" cy="298.43" r="2.5" fill="#2563eb"/>
  <circle cx="754.30" cy="298.43" r="2.5" fill="#2563eb"/>
  <circle cx="755.50" cy="298.43" r="2.5" fill="#2563eb"/>
  <circle cx="756.70" cy="298.43" r="2.5" fill="#2563eb"/>
  <circle cx="757.90" cy="298.43" r="2.5" fill="#2563eb"/>
  <circle cx="759.10" cy="298.43" r="2.5" fill="#2563eb"/>
  <circle cx="760.30" cy="298.43" r="2.5" fill="#2563eb"/>
  <circle cx="761.50" cy="298.43" r="2.5" fill="#2563eb"/>
  <circle cx="762.70" cy="298.43" r="2.5" fill="#2563eb"/>
  <circle cx="763.91" cy="298.43" r="2.5" fill="#2563eb"/>
  <circle cx="765.11" cy="298.43" r="2.5" fill="#2563eb"/>
  <circle cx="766.31" cy="298.43" r="2.5" fill="#2563eb"/>
  <circle cx="767.51" cy="298.43" r="2.5" fill="#2563eb"/>
  <circle cx="768.71" cy="298.43" r="2.5" fill="#2563eb"/>
  <circle cx="769.91" cy="298.43" r="2.5" fill="#2563eb"/>
  <circle cx="771.11" cy="298.39" r="2.5" fill="#2563eb"/>
  <circle cx="772.31" cy="298.39" r="2.5" fill="#2563eb"/>
  <circle cx="773.51" cy="298.43" r="2.5" fill="#2563eb"/>
  <circle cx="774.71" cy="298.43" r="2.5" fill="#2563eb"/>
  <circle cx="775.91" cy="298.39" r="2.5" fill="#2563eb"/>
  <circle cx="777.11" cy="298.39" r="2.5" fill="#2563eb"/>
  <circle cx="778.31" cy="298.39" r="2.5" fill="#2563eb"/>
  <circle cx="779.51" cy="298.43" r="2.5" fill="#2563eb"/>
  <circle cx="780.71" cy="298.43" r="2.5" fill="#2563eb"/>
  <circle cx="781.91" cy="298.43" r="2.5" fill="#2563eb"/>
  <circle cx="783.11" cy="246.82" r="2.5" fill="#2563eb"/>
  <circle cx="784.31" cy="298.43" r="2.5" fill="#2563eb"/>
  <circle cx="785.51" cy="246.78" r="2.5" fill="#2563eb"/>
  <circle cx="786.72" cy="246.78" r="2.5" fill="#2563eb"/>
  <circle cx="787.92" cy="246.78" r="2.5" fill="#2563eb"/>
  <circle cx="789.12" cy="246.70" r="2.5" fill="#2563eb"/>
  <circle cx="790.32" cy="246.78" r="2.5" fill="#2563eb"/>
  <circle cx="791.52" cy="298.39" r="2.5" fill="#2563eb"/>
  <circle cx="792.72" cy="298.39" r="2.5" fill="#2563eb"/>
  <circle cx="793.92" cy="298.39" r="2.5" fill="#2563eb"/>
  <circle cx="795.12" cy="298.39" r="2.5" fill="#2563eb"/>
  <circle cx="796.32" cy="298.39" r="2.5" fill="#2563eb"/>
  <circle cx="797.52" cy="246.78" r="2.5" fill="#2563eb"/>
  <circle cx="798.72" cy="298.39" r="2.5" fill="#2563eb"/>
  <circle cx="799.92" cy="298.39" r="2.5" fill="#2563eb"/>
  <circle cx="801.12" cy="298.39" r="2.5" fill="#2563eb"/>
  <circle cx="802.32" cy="298.39" r="2.5" fill="#2563eb"/>
  <circle cx="803.52" cy="298.39" r="2.5" fill="#2563eb"/>
  <circle cx="804.72" cy="246.78" r="2.5" fill="#2563eb"/>
  <circle cx="805.92" cy="246.78" r="2.5" fill="#2563eb"/>
  <circle cx="807.12" cy="298.39" r="2.5" fill="#2563eb"/>
  <circle cx="808.32" cy="298.39" r="2.5" fill="#2563eb"/>
  <circle cx="809.53" cy="298.39" r="2.5" fill="#2563eb"/>
  <circle cx="810.73" cy="298.39" r="2.5" fill="#2563eb"/>
  <circle cx="811.93" cy="298.39" r="2.5" fill="#2563eb"/>
  <circle cx="813.13" cy="298.39" r="2.5" fill="#2563eb"/>
  <circle cx="814.33" cy="298.39" r="2.5" fill="#2563eb"/>
  <circle cx="815.53" cy="298.39" r="2.5" fill="#2563eb"/>
  <circle cx="816.73" cy="298.39" r="2.5" fill="#2563eb"/>
  <circle cx="817.93" cy="298.39" r="2.5" fill="#2563eb"/>
  <circle cx="819.13" cy="298.39" r="2.5" fill="#2563eb"/>
  <circle cx="820.33" cy="298.39" r="2.5" fill="#2563eb"/>
  <circle cx="821.53" cy="298.39" r="2.5" fill="#2563eb"/>
  <circle cx="822.73" cy="298.39" r="2.5" fill="#2563eb"/>
  <circle cx="823.93" cy="298.35" r="2.5" fill="#2563eb"/>
  <circle cx="825.13" cy="298.39" r="2.5" fill="#2563eb"/>
  <circle cx="826.33" cy="298.39" r="2.5" fill="#2563eb"/>
  <circle cx="827.53" cy="298.35" r="2.5" fill="#2563eb"/>
  <circle cx="828.73" cy="298.35" r="2.5" fill="#2563eb"/>
  <circle cx="829.93" cy="298.35" r="2.5" fill="#2563eb"/>
  <circle cx="831.13" cy="298.35" r="2.5" fill="#2563eb"/>
  <circle cx="832.34" cy="298.35" r="2.5" fill="#2563eb"/>
  <circle cx="833.54" cy="298.35" r="2.5" fill="#2563eb"/>
  <circle cx="834.74" cy="298.35" r="2.5" fill="#2563eb"/>
  <circle cx="835.94" cy="298.35" r="2.5" fill="#2563eb"/>
  <circle cx="837.14" cy="298.35" r="2.5" fill="#2563eb"/>
  <circle cx="838.34" cy="298.35" r="2.5" fill="#2563eb"/>
  <circle cx="839.54" cy="298.35" r="2.5" fill="#2563eb"/>
  <circle cx="840.74" cy="298.35" r="2.5" fill="#2563eb"/>
  <circle cx="841.94" cy="298.35" r="2.5" fill="#2563eb"/>
  <circle cx="843.14" cy="298.35" r="2.5" fill="#2563eb"/>
  <circle cx="844.34" cy="298.35" r="2.5" fill="#2563eb"/>
  <circle cx="845.54" cy="298.35" r="2.5" fill="#2563eb"/>
  <circle cx="846.74" cy="298.35" r="2.5" fill="#2563eb"/>
  <circle cx="847.94" cy="298.35" r="2.5" fill="#2563eb"/>
  <circle cx="849.14" cy="298.35" r="2.5" fill="#2563eb"/>
  <circle cx="850.34" cy="298.35" r="2.5" fill="#2563eb"/>
  <circle cx="851.54" cy="298.35" r="2.5" fill="#2563eb"/>
  <circle cx="852.74" cy="298.35" r="2.5" fill="#2563eb"/>
  <circle cx="853.94" cy="298.35" r="2.5" fill="#2563eb"/>
  <circle cx="855.15" cy="298.35" r="2.5" fill="#2563eb"/>
  <circle cx="856.35" cy="298.35" r="2.5" fill="#2563eb"/>
  <circle cx="857.55" cy="298.35" r="2.5" fill="#2563eb"/>
  <circle cx="858.75" cy="298.35" r="2.5" fill="#2563eb"/>
  <circle cx="859.95" cy="298.35" r="2.5" fill="#2563eb"/>
  <circle cx="861.15" cy="298.35" r="2.5" fill="#2563eb"/>
  <circle cx="862.35" cy="298.35" r="2.5" fill="#2563eb"/>
  <circle cx="863.55" cy="298.35" r="2.5" fill="#2563eb"/>
  <circle cx="864.75" cy="298.35" r="2.5" fill="#2563eb"/>
  <circle cx="865.95" cy="298.35" r="2.5" fill="#2563eb"/>
  <circle cx="867.15" cy="298.35" r="2.5" fill="#2563eb"/>
  <circle cx="868.35" cy="298.35" r="2.5" fill="#2563eb"/>
  <circle cx="869.55" cy="298.35" r="2.5" fill="#2563eb"/>
  <circle cx="870.75" cy="298.35" r="2.5" fill="#2563eb"/>
  <circle cx="871.95" cy="298.35" r="2.5" fill="#2563eb"/>
  <circle cx="873.15" cy="298.35" r="2.5" fill="#2563eb"/>
  <circle cx="874.35" cy="298.35" r="2.5" fill="#2563eb"/>
  <circle cx="875.55" cy="298.35" r="2.5" fill="#2563eb"/>
  <circle cx="876.75" cy="298.35" r="2.5" fill="#2563eb"/>
  <circle cx="877.96" cy="298.35" r="2.5" fill="#2563eb"/>
  <circle cx="879.16" cy="298.35" r="2.5" fill="#2563eb"/>
  <circle cx="880.36" cy="298.35" r="2.5" fill="#2563eb"/>
  <circle cx="881.56" cy="298.35" r="2.5" fill="#2563eb"/>
  <circle cx="882.76" cy="298.35" r="2.5" fill="#2563eb"/>
  <circle cx="883.96" cy="298.35" r="2.5" fill="#2563eb"/>
  <circle cx="885.16" cy="298.35" r="2.5" fill="#2563eb"/>
  <circle cx="886.36" cy="298.35" r="2.5" fill="#2563eb"/>
  <circle cx="887.56" cy="298.35" r="2.5" fill="#2563eb"/>
  <circle cx="888.76" cy="298.35" r="2.5" fill="#2563eb"/>
  <circle cx="889.96" cy="298.39" r="2.5" fill="#2563eb"/>
  <circle cx="891.16" cy="298.39" r="2.5" fill="#2563eb"/>
  <circle cx="892.36" cy="298.39" r="2.5" fill="#2563eb"/>
  <circle cx="893.56" cy="246.78" r="2.5" fill="#2563eb"/>
  <circle cx="894.76" cy="298.39" r="2.5" fill="#2563eb"/>
  <circle cx="895.96" cy="298.39" r="2.5" fill="#2563eb"/>
  <circle cx="897.16" cy="298.39" r="2.5" fill="#2563eb"/>
  <circle cx="898.36" cy="298.39" r="2.5" fill="#2563eb"/>
  <circle cx="899.56" cy="298.39" r="2.5" fill="#2563eb"/>
  <circle cx="900.77" cy="298.39" r="2.5" fill="#2563eb"/>
  <circle cx="901.97" cy="298.39" r="2.5" fill="#2563eb"/>
  <circle cx="903.17" cy="246.78" r="2.5" fill="#2563eb"/>
  <circle cx="904.37" cy="298.39" r="2.5" fill="#2563eb"/>
  <circle cx="905.57" cy="298.39" r="2.5" fill="#2563eb"/>
  <circle cx="906.77" cy="298.39" r="2.5" fill="#2563eb"/>
  <circle cx="907.97" cy="298.39" r="2.5" fill="#2563eb"/>
  <circle cx="909.17" cy="298.39" r="2.5" fill="#2563eb"/>
  <circle cx="910.37" cy="298.39" r="2.5" fill="#2563eb"/>
  <circle cx="911.57" cy="298.39" r="2.5" fill="#2563eb"/>
  <circle cx="912.77" cy="246.78" r="2.5" fill="#2563eb"/>
  <circle cx="913.97" cy="298.39" r="2.5" fill="#2563eb"/>
  <circle cx="915.17" cy="298.39" r="2.5" fill="#2563eb"/>
  <circle cx="916.37" cy="298.39" r="2.5" fill="#2563eb"/>
  <circle cx="917.57" cy="298.39" r="2.5" fill="#2563eb"/>
  <circle cx="918.77" cy="298.39" r="2.5" fill="#2563eb"/>
  <circle cx="919.97" cy="298.39" r="2.5" fill="#2563eb"/>
  <circle cx="921.17" cy="298.39" r="2.5" fill="#2563eb"/>
  <circle cx="922.37" cy="298.39" r="2.5" fill="#2563eb"/>
  <circle cx="923.58" cy="298.39" r="2.5" fill="#2563eb"/>
  <circle cx="924.78" cy="298.39" r="2.5" fill="#2563eb"/>
  <circle cx="925.98" cy="298.39" r="2.5" fill="#2563eb"/>
  <circle cx="927.18" cy="298.35" r="2.5" fill="#2563eb"/>
  <circle cx="928.38" cy="298.39" r="2.5" fill="#2563eb"/>
  <circle cx="929.58" cy="298.39" r="2.5" fill="#2563eb"/>
  <circle cx="930.78" cy="298.39" r="2.5" fill="#2563eb"/>
  <circle cx="931.98" cy="298.35" r="2.5" fill="#2563eb"/>
  <circle cx="933.18" cy="298.35" r="2.5" fill="#2563eb"/>
  <circle cx="934.38" cy="298.35" r="2.5" fill="#2563eb"/>
  <circle cx="935.58" cy="298.35" r="2.5" fill="#2563eb"/>
  <circle cx="936.78" cy="298.35" r="2.5" fill="#2563eb"/>
  <circle cx="937.98" cy="298.35" r="2.5" fill="#2563eb"/>
  <circle cx="939.18" cy="298.35" r="2.5" fill="#2563eb"/>
  <circle cx="940.38" cy="298.35" r="2.5" fill="#2563eb"/>
  <circle cx="941.58" cy="298.35" r="2.5" fill="#2563eb"/>
  <circle cx="942.78" cy="298.35" r="2.5" fill="#2563eb"/>
  <circle cx="943.98" cy="298.35" r="2.5" fill="#2563eb"/>
  <circle cx="945.18" cy="298.35" r="2.5" fill="#2563eb"/>
  <circle cx="946.39" cy="298.35" r="2.5" fill="#2563eb"/>
  <circle cx="947.59" cy="298.35" r="2.5" fill="#2563eb"/>
  <circle cx="948.79" cy="298.35" r="2.5" fill="#2563eb"/>
  <circle cx="949.99" cy="298.35" r="2.5" fill="#2563eb"/>
  <circle cx="951.19" cy="298.39" r="2.5" fill="#2563eb"/>
  <circle cx="952.39" cy="298.39" r="2.5" fill="#2563eb"/>
  <circle cx="953.59" cy="298.39" r="2.5" fill="#2563eb"/>
  <circle cx="954.79" cy="298.39" r="2.5" fill="#2563eb"/>
  <circle cx="955.99" cy="298.39" r="2.5" fill="#2563eb"/>
  <circle cx="957.19" cy="298.39" r="2.5" fill="#2563eb"/>
  <circle cx="958.39" cy="298.35" r="2.5" fill="#2563eb"/>
  <circle cx="959.59" cy="298.39" r="2.5" fill="#2563eb"/>
  <circle cx="960.79" cy="298.39" r="2.5" fill="#2563eb"/>
  <circle cx="961.99" cy="298.39" r="2.5" fill="#2563eb"/>
  <circle cx="963.19" cy="298.39" r="2.5" fill="#2563eb"/>
  <circle cx="964.39" cy="298.39" r="2.5" fill="#2563eb"/>
  <circle cx="965.59" cy="298.39" r="2.5" fill="#2563eb"/>
  <circle cx="966.79" cy="298.39" r="2.5" fill="#2563eb"/>
  <circle cx="967.99" cy="298.39" r="2.5" fill="#2563eb"/>
  <circle cx="969.20" cy="298.39" r="2.5" fill="#2563eb"/>
  <circle cx="970.40" cy="298.35" r="2.5" fill="#2563eb"/>
  <circle cx="971.60" cy="298.39" r="2.5" fill="#2563eb"/>
  <circle cx="972.80" cy="298.39" r="2.5" fill="#2563eb"/>
  <circle cx="974.00" cy="298.39" r="2.5" fill="#2563eb"/>
  <circle cx="975.20" cy="298.39" r="2.5" fill="#2563eb"/>
  <circle cx="976.40" cy="298.39" r="2.5" fill="#2563eb"/>
  <circle cx="977.60" cy="298.39" r="2.5" fill="#2563eb"/>
  <circle cx="978.80" cy="298.39" r="2.5" fill="#2563eb"/>
  <circle cx="980.00" cy="298.39" r="2.5" fill="#2563eb"/>
</svg>
