<?xml version="1.0" encoding="UTF-8"?>
<svg xmlns="http://www.w3.org/2000/svg" width="1000" height="420" viewBox="0 0 1000 420">
  <rect width="100%" height="100%" fill="#ffffff"/>
  <text x="70" y="28" font-size="20" font-weight="600">수집 시점 기준 - 시간별 스냅샷</text>
  <text x="70" y="402" font-size="12" fill="#555">스냅샷 수</text>
  <line x1="70" y1="350.00" x2="980" y2="350.00" stroke="#e5e7eb" stroke-width="1"/>
  <text x="62" y="354.00" font-size="11" fill="#6b7280" text-anchor="end">0</text>
  <line x1="70" y1="290.00" x2="980" y2="290.00" stroke="#e5e7eb" stroke-width="1"/>
  <text x="62" y="294.00" font-size="11" fill="#6b7280" text-anchor="end">1,440</text>
  <line x1="70" y1="230.00" x2="980" y2="230.00" stroke="#e5e7eb" stroke-width="1"/>
  <text x="62" y="234.00" font-size="11" fill="#6b7280" text-anchor="end">2,880</text>
  <line x1="70" y1="170.00" x2="980" y2="170.00" stroke="#e5e7eb" stroke-width="1"/>
  <text x="62" y="174.00" font-size="11" fill="#6b7280" text-anchor="end">4,321</text>
  <line x1="70" y1="110.00" x2="980" y2="110.00" stroke="#e5e7eb" stroke-width="1"/>
  <text x="62" y="114.00" font-size="11" fill="#6b7280" text-anchor="end">5,761</text>
  <line x1="70" y1="50.00" x2="980" y2="50.00" stroke="#e5e7eb" stroke-width="1"/>
  <text x="62" y="54.00" font-size="11" fill="#6b7280" text-anchor="end">7,202</text>
  <line x1="70" y1="350" x2="980" y2="350" stroke="#111827" stroke-width="1.2"/>
  <line x1="70" y1="50" x2="70" y2="350" stroke="#111827" stroke-width="1.2"/>
  <line x1="70.00" y1="350" x2="70.00" y2="356" stroke="#9ca3af" stroke-width="1"/>
  <text x="70.00" y="372" font-size="10" fill="#6b7280" text-anchor="middle">2026-02-28 18</text>
  <line x1="145.70" y1="350" x2="145.70" y2="356" stroke="#9ca3af" stroke-width="1"/>
  <text x="145.70" y="372" font-size="10" fill="#6b7280" text-anchor="middle">2026-03-09 04</text>
  <line x1="221.41" y1="350" x2="221.41" y2="356" stroke="#9ca3af" stroke-width="1"/>
  <text x="221.41" y="372" font-size="10" fill="#6b7280" text-anchor="middle">2026-03-11 10</text>
  <line x1="297.11" y1="350" x2="297.11" y2="356" stroke="#9ca3af" stroke-width="1"/>
  <text x="297.11" y="372" font-size="10" fill="#6b7280" text-anchor="middle">2026-03-13 16</text>
  <line x1="372.82" y1="350" x2="372.82" y2="356" stroke="#9ca3af" stroke-width="1"/>
  <text x="372.82" y="372" font-size="10" fill="#6b7280" text-anchor="middle">2026-03-16 07</text>
  <line x1="448.52" y1="350" x2="448.52" y2="356" stroke="#9ca3af" stroke-width="1"/>
  <text x="448.52" y="372" font-size="10" fill="#6b7280" text-anchor="middle">2026-03-19 18</text>
  <line x1="524.23" y1="350" x2="524.23" y2="356" stroke="#9ca3af" stroke-width="1"/>
  <text x="524.23" y="372" font-size="10" fill="#6b7280" text-anchor="middle">2026-03-22 14</text>
  <line x1="599.93" y1="350" x2="599.93" y2="356" stroke="#9ca3af" stroke-width="1"/>
  <text x="599.93" y="372" font-size="10" fill="#6b7280" text-anchor="middle">2026-03-25 18</text>
  <line x1="675.64" y1="350" x2="675.64" y2="356" stroke="#9ca3af" stroke-width="1"/>
  <text x="675.64" y="372" font-size="10" fill="#6b7280" text-anchor="middle">2026-03-29 00</text>
  <line x1="751.34" y1="350" x2="751.34" y2="356" stroke="#9ca3af" stroke-width="1"/>
  <text x="751.34" y="372" font-size="10" fill="#6b7280" text-anchor="middle">2026-04-01 09</text>
  <line x1="827.05" y1="350" x2="827.05" y2="356" stroke="#9ca3af" stroke-width="1"/>
  <text x="827.05" y="372" font-size="10" fill="#6b7280" text-anchor="middle">2026-04-04 18</text>
  <line x1="902.75" y1="350" x2="902.75" y2="356" stroke="#9ca3af" stroke-width="1"/>
  <text x="902.75" y="372" font-size="10" fill="#6b7280" text-anchor="middle">2026-04-08 03</text>
  <line x1="978.46" y1="350" x2="978.46" y2="356" stroke="#9ca3af" stroke-width="1"/>
  <text x="978.46" y="372" font-size="10" fill="#6b7280" text-anchor="middle">2026-04-11 12</text>
  <line x1="980.00" y1="350" x2="980.00" y2="356" stroke="#9ca3af" stroke-width="1"/>
  <text x="980.00" y="372" font-size="10" fill="#6b7280" text-anchor="middle">2026-04-11 14</text>
  <polyline fill="none" stroke="#2563eb" stroke-width="2.5" points="70.00,50.00 71.54,50.12 73.09,50.17 74.63,50.46 76.18,50.00 77.72,266.90 79.27,50.12 80.81,50.08 82.36,177.46 83.90,211.58 85.45,175.34 86.99,304.14 88.54,200.46 90.08,250.94 91.63,300.01 93.17,300.06 94.72,300.01 96.26,300.01 97.81,348.00 99.35,300.01 100.90,249.99 102.44,200.00 103.99,249.99 105.53,249.99 107.08,250.03 108.62,250.03 110.17,250.03 111.71,250.40 113.26,250.90 114.80,250.90 116.35,251.32 117.89,249.94 119.44,300.01 120.98,299.93 122.53,251.03 124.07,300.68 125.62,250.03 127.16,200.00 128.71,249.99 130.25,250.03 131.80,250.03 133.34,250.03 134.89,300.01 136.43,200.04 137.98,250.03 139.52,250.03 141.07,250.03 142.61,249.90 144.16,250.03 145.70,250.03 147.25,250.94 148.79,250.44 150.34,250.03 151.88,250.03 153.43,300.47 154.97,300.01 156.52,300.43 158.06,250.03 159.61,249.99 161.15,300.43 162.70,249.90 164.24,249.99 165.79,249.99 167.33,200.04 168.88,300.01 170.42,300.01 171.97,300.01 173.51,249.90 175.06,300.01 176.60,250.03 178.15,249.99 179.69,199.96 181.24,300.01 182.78,200.00 184.33,250.36 185.87,250.03 187.42,300.01 188.96,300.01 190.51,250.44 192.05,300.01 193.60,250.03 195.14,250.03 196.69,249.99 198.23,250.49 199.78,250.03 201.32,200.04 202.87,300.01 204.41,250.03 205.96,300.01 207.50,250.11 209.05,300.01 210.59,250.03 212.14,250.03 213.68,199.92 215.23,250.03 216.77,250.03 218.32,250.03 219.86,254.36 221.41,300.01 222.95,299.97 224.50,250.36 226.04,299.97 227.59,250.03 229.13,250.03 230.68,250.03 232.22,250.03 233.77,249.99 235.31,200.00 236.86,299.93 238.40,300.01 239.95,299.97 241.49,249.94 243.04,249.99 244.58,249.82 246.13,249.94 247.67,250.28 249.22,207.00 250.76,250.03 252.31,250.32 253.85,250.40 255.40,300.93 256.94,300.01 258.49,300.10 260.03,249.94 261.58,249.99 263.12,250.07 264.67,249.99 266.21,250.03 267.76,249.94 269.30,200.00 270.85,300.39 272.39,300.01 273.94,300.01 275.48,250.44 277.03,300.39 278.57,249.86 280.12,250.11 281.66,201.46 283.21,300.01 284.75,200.83 286.30,250.03 287.84,249.99 289.39,300.26 290.93,300.01 292.48,300.01 294.02,250.03 295.57,250.03 297.11,250.03 298.66,250.03 300.20,249.99 301.75,250.03 303.29,200.00 304.84,300.26 306.38,249.99 307.93,300.01 309.47,249.94 311.02,250.03 312.56,250.03 314.11,250.03 315.65,200.04 317.20,300.01 318.74,249.90 320.29,300.01 321.83,300.01 323.38,300.06 324.92,300.01 326.47,300.01 328.01,243.95 329.56,249.94 331.10,299.97 332.65,300.01 334.19,300.01 335.74,250.03 337.28,300.01 338.83,300.01 340.37,299.97 341.92,249.99 343.46,300.01 345.01,299.93 346.55,300.01 348.10,299.93 349.64,300.01 351.19,300.01 352.73,299.89 354.28,299.97 355.82,250.03 357.37,299.93 358.91,299.89 360.46,299.97 362.00,249.94 363.55,300.01 365.09,300.01 366.64,299.97 368.18,249.99 369.73,299.97 371.27,299.97 372.82,300.06 374.36,300.06 375.91,299.93 377.45,300.01 379.00,300.01 380.54,299.93 382.09,300.01 383.63,300.01 385.18,299.97 386.72,300.01 388.27,300.01 389.81,300.01 391.36,300.01 392.90,249.86 394.45,300.01 395.99,300.10 397.54,299.93 399.08,300.01 400.63,299.93 402.17,300.01 403.72,300.01 405.26,300.01 406.81,300.01 408.35,300.01 409.90,299.97 411.44,300.01 412.99,300.01 414.53,300.01 416.08,300.01 417.62,250.03 419.17,300.01 420.71,300.01 422.26,299.97 423.80,300.01 425.35,300.01 426.89,299.97 428.44,299.97 429.98,300.01 431.53,299.97 433.07,300.01 434.62,299.93 436.16,300.01 437.71,250.03 439.25,300.01 440.80,300.01 442.34,300.01 443.89,300.01 445.43,300.01 446.98,299.89 448.52,300.01 450.07,300.01 451.61,250.07 453.16,300.01 454.70,299.93 456.25,300.01 457.79,299.97 459.34,299.97 460.88,299.97 462.43,250.03 463.97,300.01 465.52,300.01 467.06,300.01 468.61,300.01 470.15,299.97 471.70,300.01 473.24,299.97 474.79,300.01 476.33,299.97 477.88,249.90 479.42,300.01 480.97,300.01 482.51,299.89 484.06,299.97 485.60,299.97 487.15,249.99 488.69,299.97 490.24,299.89 491.78,300.01 493.33,299.97 494.87,299.97 496.42,300.01 497.96,299.97 499.51,249.99 501.05,299.97 502.60,299.97 504.14,300.06 505.69,300.06 507.23,249.94 508.78,300.01 510.32,299.93 511.87,300.01 513.41,300.01 514.96,249.99 516.50,300.01 518.05,300.01 519.59,300.01 521.14,299.93 522.68,299.93 524.23,300.01 525.77,300.01 527.32,249.94 528.86,299.97 530.41,299.97 531.95,300.01 533.50,300.01 535.04,300.01 536.59,249.99 538.13,300.01 539.68,300.01 541.22,300.01 542.77,250.03 544.31,300.01 545.86,300.01 547.40,300.01 548.95,299.97 550.49,300.01 552.04,300.01 553.58,299.97 555.13,299.97 556.67,300.01 558.22,300.01 559.76,299.97 561.31,299.93 562.85,300.01 564.40,300.06 565.94,299.97 567.49,300.01 569.03,250.03 570.58,250.03 572.12,299.93 573.67,299.97 575.21,300.01 576.76,300.01 578.30,300.06 579.85,300.01 581.39,299.93 582.94,300.01 584.48,300.01 586.03,299.97 587.57,299.97 589.12,300.01 590.66,250.03 592.21,300.01 593.75,300.01 595.30,300.01 596.84,299.97 598.39,300.01 599.93,299.97 601.48,300.01 603.02,299.97 604.57,299.97 606.11,299.93 607.66,300.01 609.20,300.01 610.75,299.89 612.29,299.97 613.84,299.97 615.38,300.06 616.93,249.90 618.47,299.89 620.02,300.01 621.56,299.97 623.11,299.97 624.65,299.97 626.20,300.01 627.74,300.01 629.29,299.97 630.83,299.97 632.38,299.97 633.92,250.03 635.47,299.93 637.01,300.01 638.56,300.01 640.10,299.93 641.65,300.01 643.19,300.01 644.74,299.97 646.28,300.01 647.83,300.01 649.37,300.06 650.92,300.01 652.46,299.97 654.01,299.89 655.55,300.01 657.10,300.01 658.64,249.94 660.19,249.94 661.73,300.01 663.28,300.01 664.82,300.01 666.37,300.01 667.91,299.97 669.46,250.03 671.00,300.01 672.55,300.01 674.09,300.01 675.64,300.01 677.18,250.03 678.73,249.99 680.27,300.01 681.82,299.97 683.36,300.01 684.91,299.97 686.45,300.01 688.00,299.97 689.54,299.97 691.09,299.97 692.63,300.06 694.18,249.99 695.72,300.01 697.27,250.03 698.81,249.94 700.36,249.99 701.90,300.01 703.45,300.06 704.99,300.01 706.54,299.97 708.08,299.97 709.63,300.01 711.17,299.93 712.72,299.89 714.26,299.89 715.81,299.89 717.35,299.89 718.90,299.85 720.44,299.85 721.99,299.89 723.53,299.81 725.08,299.81 726.62,299.81 728.17,299.76 729.71,299.76 731.26,299.76 732.80,299.72 734.35,299.68 735.89,299.60 737.44,299.60 738.98,299.60 740.53,299.56 742.07,299.47 743.62,299.43 745.16,299.43 746.71,299.39 748.25,299.47 749.80,259.82 751.34,338.96 752.89,299.31 754.43,299.31 755.98,299.26 757.52,299.68 759.07,299.68 760.61,299.68 762.16,299.64 763.70,299.14 765.25,299.14 766.79,299.10 768.34,299.10 769.88,299.10 771.43,248.07 772.97,299.06 774.52,299.06 776.06,299.06 777.61,299.06 779.15,299.06 780.70,298.97 782.24,298.97 783.79,298.93 785.33,298.97 786.88,298.93 788.42,298.89 789.97,298.89 791.51,298.89 793.06,298.89 794.60,247.78 796.15,298.89 797.69,298.89 799.24,298.85 800.78,298.85 802.33,298.81 803.87,298.81 805.42,298.81 806.96,298.81 808.51,298.81 810.05,298.81 811.60,298.81 813.14,298.81 814.69,298.81 816.23,298.72 817.78,247.45 819.32,247.45 820.87,298.72 822.41,298.72 823.96,298.72 825.50,298.72 827.05,298.72 828.59,298.72 830.14,247.36 831.68,298.68 833.23,247.36 834.77,247.36 836.32,247.36 837.86,298.68 839.41,298.68 840.95,298.68 842.50,298.68 844.04,298.68 845.59,341.67 847.13,307.01 848.68,298.68 850.22,298.68 851.77,298.68 853.31,247.36 854.86,298.64 856.40,247.36 857.95,247.28 859.49,247.20 861.04,298.60 862.58,298.60 864.13,247.03 865.67,298.51 867.22,298.51 868.76,298.51 870.31,298.51 871.85,298.51 873.40,298.51 874.94,298.51 876.49,298.51 878.03,298.51 879.58,298.51 881.12,298.51 882.67,298.51 884.21,298.51 885.76,298.51 887.30,298.51 888.85,298.51 890.39,298.51 891.94,298.51 893.48,298.51 895.03,298.51 896.57,298.51 898.12,298.51 899.66,298.51 901.21,298.51 902.75,298.51 904.30,298.51 905.84,298.47 907.39,298.51 908.93,298.51 910.48,298.47 912.02,298.51 913.57,298.47 915.11,298.51 916.66,298.43 918.20,298.56 919.75,298.43 921.29,298.43 922.84,298.43 924.38,298.43 925.93,298.43 927.47,298.43 929.02,298.43 930.56,298.43 932.11,298.43 933.65,298.43 935.20,298.43 936.74,298.43 938.29,298.43 939.83,298.43 941.38,298.43 942.92,298.43 944.47,298.43 946.01,298.43 947.56,298.43 949.10,298.43 950.65,298.43 952.19,298.43 953.74,298.43 955.28,298.43 956.83,298.43 958.37,298.43 959.92,298.43 961.46,298.43 963.01,298.43 964.55,298.43 966.10,298.43 967.64,298.43 969.19,298.43 970.73,298.43 972.28,298.39 973.82,298.39 975.37,298.43 976.91,298.43 978.46,298.39 980.00,298.39"/>
  <circle cx="70.00" cy="50.00" r="2.5" fill="#2563eb"/>
  <circle cx="71.54" cy="50.12" r="2.5" fill="#2563eb"/>
  <circle cx="73.09" cy="50.17" r="2.5" fill="#2563eb"/>
  <circle cx="74.63" cy="50.46" r="2.5" fill="#2563eb"/>
  <circle cx="76.18" cy="50.00" r="2.5" fill="#2563eb"/>
  <circle cx="77.72" cy="266.90" r="2.5" fill="#2563eb"/>
  <circle cx="79.27" cy="50.12" r="2.5" fill="#2563eb"/>
  <circle cx="80.81" cy="50.08" r="2.5" fill="#2563eb"/>
  <circle cx="82.36" cy="177.46" r="2.5" fill="#2563eb"/>
  <circle cx="83.90" cy="211.58" r="2.5" fill="#2563eb"/>
  <circle cx="85.45" cy="175.34" r="2.5" fill="#2563eb"/>
  <circle cx="86.99" cy="304.14" r="2.5" fill="#2563eb"/>
  <circle cx="88.54" cy="200.46" r="2.5" fill="#2563eb"/>
  <circle cx="90.08" cy="250.94" r="2.5" fill="#2563eb"/>
  <circle cx="91.63" cy="300.01" r="2.5" fill="#2563eb"/>
  <circle cx="93.17" cy="300.06" r="2.5" fill="#2563eb"/>
  <circle cx="94.72" cy="300.01" r="2.5" fill="#2563eb"/>
  <circle cx="96.26" cy="300.01" r="2.5" fill="#2563eb"/>
  <circle cx="97.81" cy="348.00" r="2.5" fill="#2563eb"/>
  <circle cx="99.35" cy="300.01" r="2.5" fill="#2563eb"/>
  <circle cx="100.90" cy="249.99" r="2.5" fill="#2563eb"/>
  <circle cx="102.44" cy="200.00" r="2.5" fill="#2563eb"/>
  <circle cx="103.99" cy="249.99" r="2.5" fill="#2563eb"/>
  <circle cx="105.53" cy="249.99" r="2.5" fill="#2563eb"/>
  <circle cx="107.08" cy="250.03" r="2.5" fill="#2563eb"/>
  <circle cx="108.62" cy="250.03" r="2.5" fill="#2563eb"/>
  <circle cx="110.17" cy="250.03" r="2.5" fill="#2563eb"/>
  <circle cx="111.71" cy="250.40" r="2.5" fill="#2563eb"/>
  <circle cx="113.26" cy="250.90" r="2.5" fill="#2563eb"/>
  <circle cx="114.80" cy="250.90" r="2.5" fill="#2563eb"/>
  <circle cx="116.35" cy="251.32" r="2.5" fill="#2563eb"/>
  <circle cx="117.89" cy="249.94" r="2.5" fill="#2563eb"/>
  <circle cx="119.44" cy="300.01" r="2.5" fill="#2563eb"/>
  <circle cx="120.98" cy="299.93" r="2.5" fill="#2563eb"/>
  <circle cx="122.53" cy="251.03" r="2.5" fill="#2563eb"/>
  <circle cx="124.07" cy="300.68" r="2.5" fill="#2563eb"/>
  <circle cx="125.62" cy="250.03" r="2.5" fill="#2563eb"/>
  <circle cx="127.16" cy="200.00" r="2.5" fill="#2563eb"/>
  <circle cx="128.71" cy="249.99" r="2.5" fill="#2563eb"/>
  <circle cx="130.25" cy="250.03" r="2.5" fill="#2563eb"/>
  <circle cx="131.80" cy="250.03" r="2.5" fill="#2563eb"/>
  <circle cx="133.34" cy="250.03" r="2.5" fill="#2563eb"/>
  <circle cx="134.89" cy="300.01" r="2.5" fill="#2563eb"/>
  <circle cx="136.43" cy="200.04" r="2.5" fill="#2563eb"/>
  <circle cx="137.98" cy="250.03" r="2.5" fill="#2563eb"/>
  <circle cx="139.52" cy="250.03" r="2.5" fill="#2563eb"/>
  <circle cx="141.07" cy="250.03" r="2.5" fill="#2563eb"/>
  <circle cx="142.61" cy="249.90" r="2.5" fill="#2563eb"/>
  <circle cx="144.16" cy="250.03" r="2.5" fill="#2563eb"/>
  <circle cx="145.70" cy="250.03" r="2.5" fill="#2563eb"/>
  <circle cx="147.25" cy="250.94" r="2.5" fill="#2563eb"/>
  <circle cx="148.79" cy="250.44" r="2.5" fill="#2563eb"/>
  <circle cx="150.34" cy="250.03" r="2.5" fill="#2563eb"/>
  <circle cx="151.88" cy="250.03" r="2.5" fill="#2563eb"/>
  <circle cx="153.43" cy="300.47" r="2.5" fill="#2563eb"/>
  <circle cx="154.97" cy="300.01" r="2.5" fill="#2563eb"/>
  <circle cx="156.52" cy="300.43" r="2.5" fill="#2563eb"/>
  <circle cx="158.06" cy="250.03" r="2.5" fill="#2563eb"/>
  <circle cx="159.61" cy="249.99" r="2.5" fill="#2563eb"/>
  <circle cx="161.15" cy="300.43" r="2.5" fill="#2563eb"/>
  <circle cx="162.70" cy="249.90" r="2.5" fill="#2563eb"/>
  <circle cx="164.24" cy="249.99" r="2.5" fill="#2563eb"/>
  <circle cx="165.79" cy="249.99" r="2.5" fill="#2563eb"/>
  <circle cx="167.33" cy="200.04" r="2.5" fill="#2563eb"/>
  <circle cx="168.88" cy="300.01" r="2.5" fill="#2563eb"/>
  <circle cx="170.42" cy="300.01" r="2.5" fill="#2563eb"/>
  <circle cx="171.97" cy="300.01" r="2.5" fill="#2563eb"/>
  <circle cx="173.51" cy="249.90" r="2.5" fill="#2563eb"/>
  <circle cx="175.06" cy="300.01" r="2.5" fill="#2563eb"/>
  <circle cx="176.60" cy="250.03" r="2.5" fill="#2563eb"/>
  <circle cx="178.15" cy="249.99" r="2.5" fill="#2563eb"/>
  <circle cx="179.69" cy="199.96" r="2.5" fill="#2563eb"/>
  <circle cx="181.24" cy="300.01" r="2.5" fill="#2563eb"/>
  <circle cx="182.78" cy="200.00" r="2.5" fill="#2563eb"/>
  <circle cx="184.33" cy="250.36" r="2.5" fill="#2563eb"/>
  <circle cx="185.87" cy="250.03" r="2.5" fill="#2563eb"/>
  <circle cx="187.42" cy="300.01" r="2.5" fill="#2563eb"/>
  <circle cx="188.96" cy="300.01" r="2.5" fill="#2563eb"/>
  <circle cx="190.51" cy="250.44" r="2.5" fill="#2563eb"/>
  <circle cx="192.05" cy="300.01" r="2.5" fill="#2563eb"/>
  <circle cx="193.60" cy="250.03" r="2.5" fill="#2563eb"/>
  <circle cx="195.14" cy="250.03" r="2.5" fill="#2563eb"/>
  <circle cx="196.69" cy="249.99" r="2.5" fill="#2563eb"/>
  <circle cx="198.23" cy="250.49" r="2.5" fill="#2563eb"/>
  <circle cx="199.78" cy="250.03" r="2.5" fill="#2563eb"/>
  <circle cx="201.32" cy="200.04" r="2.5" fill="#2563eb"/>
  <circle cx="202.87" cy="300.01" r="2.5" fill="#2563eb"/>
  <circle cx="204.41" cy="250.03" r="2.5" fill="#2563eb"/>
  <circle cx="205.96" cy="300.01" r="2.5" fill="#2563eb"/>
  <circle cx="207.50" cy="250.11" r="2.5" fill="#2563eb"/>
  <circle cx="209.05" cy="300.01" r="2.5" fill="#2563eb"/>
  <circle cx="210.59" cy="250.03" r="2.5" fill="#2563eb"/>
  <circle cx="212.14" cy="250.03" r="2.5" fill="#2563eb"/>
  <circle cx="213.68" cy="199.92" r="2.5" fill="#2563eb"/>
  <circle cx="215.23" cy="250.03" r="2.5" fill="#2563eb"/>
  <circle cx="216.77" cy="250.03" r="2.5" fill="#2563eb"/>
  <circle cx="218.32" cy="250.03" r="2.5" fill="#2563eb"/>
  <circle cx="219.86" cy="254.36" r="2.5" fill="#2563eb"/>
  <circle cx="221.41" cy="300.01" r="2.5" fill="#2563eb"/>
  <circle cx="222.95" cy="299.97" r="2.5" fill="#2563eb"/>
  <circle cx="224.50" cy="250.36" r="2.5" fill="#2563eb"/>
  <circle cx="226.04" cy="299.97" r="2.5" fill="#2563eb"/>
  <circle cx="227.59" cy="250.03" r="2.5" fill="#2563eb"/>
  <circle cx="229.13" cy="250.03" r="2.5" fill="#2563eb"/>
  <circle cx="230.68" cy="250.03" r="2.5" fill="#2563eb"/>
  <circle cx="232.22" cy="250.03" r="2.5" fill="#2563eb"/>
  <circle cx="233.77" cy="249.99" r="2.5" fill="#2563eb"/>
  <circle cx="235.31" cy="200.00" r="2.5" fill="#2563eb"/>
  <circle cx="236.86" cy="299.93" r="2.5" fill="#2563eb"/>
  <circle cx="238.40" cy="300.01" r="2.5" fill="#2563eb"/>
  <circle cx="239.95" cy="299.97" r="2.5" fill="#2563eb"/>
  <circle cx="241.49" cy="249.94" r="2.5" fill="#2563eb"/>
  <circle cx="243.04" cy="249.99" r="2.5" fill="#2563eb"/>
  <circle cx="244.58" cy="249.82" r="2.5" fill="#2563eb"/>
  <circle cx="246.13" cy="249.94" r="2.5" fill="#2563eb"/>
  <circle cx="247.67" cy="250.28" r="2.5" fill="#2563eb"/>
  <circle cx="249.22" cy="207.00" r="2.5" fill="#2563eb"/>
  <circle cx="250.76" cy="250.03" r="2.5" fill="#2563eb"/>
  <circle cx="252.31" cy="250.32" r="2.5" fill="#2563eb"/>
  <circle cx="253.85" cy="250.40" r="2.5" fill="#2563eb"/>
  <circle cx="255.40" cy="300.93" r="2.5" fill="#2563eb"/>
  <circle cx="256.94" cy="300.01" r="2.5" fill="#2563eb"/>
  <circle cx="258.49" cy="300.10" r="2.5" fill="#2563eb"/>
  <circle cx="260.03" cy="249.94" r="2.5" fill="#2563eb"/>
  <circle cx="261.58" cy="249.99" r="2.5" fill="#2563eb"/>
  <circle cx="263.12" cy="250.07" r="2.5" fill="#2563eb"/>
  <circle cx="264.67" cy="249.99" r="2.5" fill="#2563eb"/>
  <circle cx="266.21" cy="250.03" r="2.5" fill="#2563eb"/>
  <circle cx="267.76" cy="249.94" r="2.5" fill="#2563eb"/>
  <circle cx="269.30" cy="200.00" r="2.5" fill="#2563eb"/>
  <circle cx="270.85" cy="300.39" r="2.5" fill="#2563eb"/>
  <circle cx="272.39" cy="300.01" r="2.5" fill="#2563eb"/>
  <circle cx="273.94" cy="300.01" r="2.5" fill="#2563eb"/>
  <circle cx="275.48" cy="250.44" r="2.5" fill="#2563eb"/>
  <circle cx="277.03" cy="300.39" r="2.5" fill="#2563eb"/>
  <circle cx="278.57" cy="249.86" r="2.5" fill="#2563eb"/>
  <circle cx="280.12" cy="250.11" r="2.5" fill="#2563eb"/>
  <circle cx="281.66" cy="201.46" r="2.5" fill="#2563eb"/>
  <circle cx="283.21" cy="300.01" r="2.5" fill="#2563eb"/>
  <circle cx="284.75" cy="200.83" r="2.5" fill="#2563eb"/>
  <circle cx="286.30" cy="250.03" r="2.5" fill="#2563eb"/>
  <circle cx="287.84" cy="249.99" r="2.5" fill="#2563eb"/>
  <circle cx="289.39" cy="300.26" r="2.5" fill="#2563eb"/>
  <circle cx="290.93" cy="300.01" r="2.5" fill="#2563eb"/>
  <circle cx="292.48" cy="300.01" r="2.5" fill="#2563eb"/>
  <circle cx="294.02" cy="250.03" r="2.5" fill="#2563eb"/>
  <circle cx="295.57" cy="250.03" r="2.5" fill="#2563eb"/>
  <circle cx="297.11" cy="250.03" r="2.5" fill="#2563eb"/>
  <circle cx="298.66" cy="250.03" r="2.5" fill="#2563eb"/>
  <circle cx="300.20" cy="249.99" r="2.5" fill="#2563eb"/>
  <circle cx="301.75" cy="250.03" r="2.5" fill="#2563eb"/>
  <circle cx="303.29" cy="200.00" r="2.5" fill="#2563eb"/>
  <circle cx="304.84" cy="300.26" r="2.5" fill="#2563eb"/>
  <circle cx="306.38" cy="249.99" r="2.5" fill="#2563eb"/>
  <circle cx="307.93" cy="300.01" r="2.5" fill="#2563eb"/>
  <circle cx="309.47" cy="249.94" r="2.5" fill="#2563eb"/>
  <circle cx="311.02" cy="250.03" r="2.5" fill="#2563eb"/>
  <circle cx="312.56" cy="250.03" r="2.5" fill="#2563eb"/>
  <circle cx="314.11" cy="250.03" r="2.5" fill="#2563eb"/>
  <circle cx="315.65" cy="200.04" r="2.5" fill="#2563eb"/>
  <circle cx="317.20" cy="300.01" r="2.5" fill="#2563eb"/>
  <circle cx="318.74" cy="249.90" r="2.5" fill="#2563eb"/>
  <circle cx="320.29" cy="300.01" r="2.5" fill="#2563eb"/>
  <circle cx="321.83" cy="300.01" r="2.5" fill="#2563eb"/>
  <circle cx="323.38" cy="300.06" r="2.5" fill="#2563eb"/>
  <circle cx="324.92" cy="300.01" r="2.5" fill="#2563eb"/>
  <circle cx="326.47" cy="300.01" r="2.5" fill="#2563eb"/>
  <circle cx="328.01" cy="243.95" r="2.5" fill="#2563eb"/>
  <circle cx="329.56" cy="249.94" r="2.5" fill="#2563eb"/>
  <circle cx="331.10" cy="299.97" r="2.5" fill="#2563eb"/>
  <circle cx="332.65" cy="300.01" r="2.5" fill="#2563eb"/>
  <circle cx="334.19" cy="300.01" r="2.5" fill="#2563eb"/>
  <circle cx="335.74" cy="250.03" r="2.5" fill="#2563eb"/>
  <circle cx="337.28" cy="300.01" r="2.5" fill="#2563eb"/>
  <circle cx="338.83" cy="300.01" r="2.5" fill="#2563eb"/>
  <circle cx="340.37" cy="299.97" r="2.5" fill="#2563eb"/>
  <circle cx="341.92" cy="249.99" r="2.5" fill="#2563eb"/>
  <circle cx="343.46" cy="300.01" r="2.5" fill="#2563eb"/>
  <circle cx="345.01" cy="299.93" r="2.5" fill="#2563eb"/>
  <circle cx="346.55" cy="300.01" r="2.5" fill="#2563eb"/>
  <circle cx="348.10" cy="299.93" r="2.5" fill="#2563eb"/>
  <circle cx="349.64" cy="300.01" r="2.5" fill="#2563eb"/>
  <circle cx="351.19" cy="300.01" r="2.5" fill="#2563eb"/>
  <circle cx="352.73" cy="299.89" r="2.5" fill="#2563eb"/>
  <circle cx="354.28" cy="299.97" r="2.5" fill="#2563eb"/>
  <circle cx="355.82" cy="250.03" r="2.5" fill="#2563eb"/>
  <circle cx="357.37" cy="299.93" r="2.5" fill="#2563eb"/>
  <circle cx="358.91" cy="299.89" r="2.5" fill="#2563eb"/>
  <circle cx="360.46" cy="299.97" r="2.5" fill="#2563eb"/>
  <circle cx="362.00" cy="249.94" r="2.5" fill="#2563eb"/>
  <circle cx="363.55" cy="300.01" r="2.5" fill="#2563eb"/>
  <circle cx="365.09" cy="300.01" r="2.5" fill="#2563eb"/>
  <circle cx="366.64" cy="299.97" r="2.5" fill="#2563eb"/>
  <circle cx="368.18" cy="249.99" r="2.5" fill="#2563eb"/>
  <circle cx="369.73" cy="299.97" r="2.5" fill="#2563eb"/>
  <circle cx="371.27" cy="299.97" r="2.5" fill="#2563eb"/>
  <circle cx="372.82" cy="300.06" r="2.5" fill="#2563eb"/>
  <circle cx="374.36" cy="300.06" r="2.5" fill="#2563eb"/>
  <circle cx="375.91" cy="299.93" r="2.5" fill="#2563eb"/>
  <circle cx="377.45" cy="300.01" r="2.5" fill="#2563eb"/>
  <circle cx="379.00" cy="300.01" r="2.5" fill="#2563eb"/>
  <circle cx="380.54" cy="299.93" r="2.5" fill="#2563eb"/>
  <circle cx="382.09" cy="300.01" r="2.5" fill="#2563eb"/>
  <circle cx="383.63" cy="300.01" r="2.5" fill="#2563eb"/>
  <circle cx="385.18" cy="299.97" r="2.5" fill="#2563eb"/>
  <circle cx="386.72" cy="300.01" r="2.5" fill="#2563eb"/>
  <circle cx="388.27" cy="300.01" r="2.5" fill="#2563eb"/>
  <circle cx="389.81" cy="300.01" r="2.5" fill="#2563eb"/>
  <circle cx="391.36" cy="300.01" r="2.5" fill="#2563eb"/>
  <circle cx="392.90" cy="249.86" r="2.5" fill="#2563eb"/>
  <circle cx="394.45" cy="300.01" r="2.5" fill="#2563eb"/>
  <circle cx="395.99" cy="300.10" r="2.5" fill="#2563eb"/>
  <circle cx="397.54" cy="299.93" r="2.5" fill="#2563eb"/>
  <circle cx="399.08" cy="300.01" r="2.5" fill="#2563eb"/>
  <circle cx="400.63" cy="299.93" r="2.5" fill="#2563eb"/>
  <circle cx="402.17" cy="300.01" r="2.5" fill="#2563eb"/>
  <circle cx="403.72" cy="300.01" r="2.5" fill="#2563eb"/>
  <circle cx="405.26" cy="300.01" r="2.5" fill="#2563eb"/>
  <circle cx="406.81" cy="300.01" r="2.5" fill="#2563eb"/>
  <circle cx="408.35" cy="300.01" r="2.5" fill="#2563eb"/>
  <circle cx="409.90" cy="299.97" r="2.5" fill="#2563eb"/>
  <circle cx="411.44" cy="300.01" r="2.5" fill="#2563eb"/>
  <circle cx="412.99" cy="300.01" r="2.5" fill="#2563eb"/>
  <circle cx="414.53" cy="300.01" r="2.5" fill="#2563eb"/>
  <circle cx="416.08" cy="300.01" r="2.5" fill="#2563eb"/>
  <circle cx="417.62" cy="250.03" r="2.5" fill="#2563eb"/>
  <circle cx="419.17" cy="300.01" r="2.5" fill="#2563eb"/>
  <circle cx="420.71" cy="300.01" r="2.5" fill="#2563eb"/>
  <circle cx="422.26" cy="299.97" r="2.5" fill="#2563eb"/>
  <circle cx="423.80" cy="300.01" r="2.5" fill="#2563eb"/>
  <circle cx="425.35" cy="300.01" r="2.5" fill="#2563eb"/>
  <circle cx="426.89" cy="299.97" r="2.5" fill="#2563eb"/>
  <circle cx="428.44" cy="299.97" r="2.5" fill="#2563eb"/>
  <circle cx="429.98" cy="300.01" r="2.5" fill="#2563eb"/>
  <circle cx="431.53" cy="299.97" r="2.5" fill="#2563eb"/>
  <circle cx="433.07" cy="300.01" r="2.5" fill="#2563eb"/>
  <circle cx="434.62" cy="299.93" r="2.5" fill="#2563eb"/>
  <circle cx="436.16" cy="300.01" r="2.5" fill="#2563eb"/>
  <circle cx="437.71" cy="250.03" r="2.5" fill="#2563eb"/>
  <circle cx="439.25" cy="300.01" r="2.5" fill="#2563eb"/>
  <circle cx="440.80" cy="300.01" r="2.5" fill="#2563eb"/>
  <circle cx="442.34" cy="300.01" r="2.5" fill="#2563eb"/>
  <circle cx="443.89" cy="300.01" r="2.5" fill="#2563eb"/>
  <circle cx="445.43" cy="300.01" r="2.5" fill="#2563eb"/>
  <circle cx="446.98" cy="299.89" r="2.5" fill="#2563eb"/>
  <circle cx="448.52" cy="300.01" r="2.5" fill="#2563eb"/>
  <circle cx="450.07" cy="300.01" r="2.5" fill="#2563eb"/>
  <circle cx="451.61" cy="250.07" r="2.5" fill="#2563eb"/>
  <circle cx="453.16" cy="300.01" r="2.5" fill="#2563eb"/>
  <circle cx="454.70" cy="299.93" r="2.5" fill="#2563eb"/>
  <circle cx="456.25" cy="300.01" r="2.5" fill="#2563eb"/>
  <circle cx="457.79" cy="299.97" r="2.5" fill="#2563eb"/>
  <circle cx="459.34" cy="299.97" r="2.5" fill="#2563eb"/>
  <circle cx="460.88" cy="299.97" r="2.5" fill="#2563eb"/>
  <circle cx="462.43" cy="250.03" r="2.5" fill="#2563eb"/>
  <circle cx="463.97" cy="300.01" r="2.5" fill="#2563eb"/>
  <circle cx="465.52" cy="300.01" r="2.5" fill="#2563eb"/>
  <circle cx="467.06" cy="300.01" r="2.5" fill="#2563eb"/>
  <circle cx="468.61" cy="300.01" r="2.5" fill="#2563eb"/>
  <circle cx="470.15" cy="299.97" r="2.5" fill="#2563eb"/>
  <circle cx="471.70" cy="300.01" r="2.5" fill="#2563eb"/>
  <circle cx="473.24" cy="299.97" r="2.5" fill="#2563eb"/>
  <circle cx="474.79" cy="300.01" r="2.5" fill="#2563eb"/>
  <circle cx="476.33" cy="299.97" r="2.5" fill="#2563eb"/>
  <circle cx="477.88" cy="249.90" r="2.5" fill="#2563eb"/>
  <circle cx="479.42" cy="300.01" r="2.5" fill="#2563eb"/>
  <circle cx="480.97" cy="300.01" r="2.5" fill="#2563eb"/>
  <circle cx="482.51" cy="299.89" r="2.5" fill="#2563eb"/>
  <circle cx="484.06" cy="299.97" r="2.5" fill="#2563eb"/>
  <circle cx="485.60" cy="299.97" r="2.5" fill="#2563eb"/>
  <circle cx="487.15" cy="249.99" r="2.5" fill="#2563eb"/>
  <circle cx="488.69" cy="299.97" r="2.5" fill="#2563eb"/>
  <circle cx="490.24" cy="299.89" r="2.5" fill="#2563eb"/>
  <circle cx="491.78" cy="300.01" r="2.5" fill="#2563eb"/>
  <circle cx="493.33" cy="299.97" r="2.5" fill="#2563eb"/>
  <circle cx="494.87" cy="299.97" r="2.5" fill="#2563eb"/>
  <circle cx="496.42" cy="300.01" r="2.5" fill="#2563eb"/>
  <circle cx="497.96" cy="299.97" r="2.5" fill="#2563eb"/>
  <circle cx="499.51" cy="249.99" r="2.5" fill="#2563eb"/>
  <circle cx="501.05" cy="299.97" r="2.5" fill="#2563eb"/>
  <circle cx="502.60" cy="299.97" r="2.5" fill="#2563eb"/>
  <circle cx="504.14" cy="300.06" r="2.5" fill="#2563eb"/>
  <circle cx="505.69" cy="300.06" r="2.5" fill="#2563eb"/>
  <circle cx="507.23" cy="249.94" r="2.5" fill="#2563eb"/>
  <circle cx="508.78" cy="300.01" r="2.5" fill="#2563eb"/>
  <circle cx="510.32" cy="299.93" r="2.5" fill="#2563eb"/>
  <circle cx="511.87" cy="300.01" r="2.5" fill="#2563eb"/>
  <circle cx="513.41" cy="300.01" r="2.5" fill="#2563eb"/>
  <circle cx="514.96" cy="249.99" r="2.5" fill="#2563eb"/>
  <circle cx="516.50" cy="300.01" r="2.5" fill="#2563eb"/>
  <circle cx="518.05" cy="300.01" r="2.5" fill="#2563eb"/>
  <circle cx="519.59" cy="300.01" r="2.5" fill="#2563eb"/>
  <circle cx="521.14" cy="299.93" r="2.5" fill="#2563eb"/>
  <circle cx="522.68" cy="299.93" r="2.5" fill="#2563eb"/>
  <circle cx="524.23" cy="300.01" r="2.5" fill="#2563eb"/>
  <circle cx="525.77" cy="300.01" r="2.5" fill="#2563eb"/>
  <circle cx="527.32" cy="249.94" r="2.5" fill="#2563eb"/>
  <circle cx="528.86" cy="299.97" r="2.5" fill="#2563eb"/>
  <circle cx="530.41" cy="299.97" r="2.5" fill="#2563eb"/>
  <circle cx="531.95" cy="300.01" r="2.5" fill="#2563eb"/>
  <circle cx="533.50" cy="300.01" r="2.5" fill="#2563eb"/>
  <circle cx="535.04" cy="300.01" r="2.5" fill="#2563eb"/>
  <circle cx="536.59" cy="249.99" r="2.5" fill="#2563eb"/>
  <circle cx="538.13" cy="300.01" r="2.5" fill="#2563eb"/>
  <circle cx="539.68" cy="300.01" r="2.5" fill="#2563eb"/>
  <circle cx="541.22" cy="300.01" r="2.5" fill="#2563eb"/>
  <circle cx="542.77" cy="250.03" r="2.5" fill="#2563eb"/>
  <circle cx="544.31" cy="300.01" r="2.5" fill="#2563eb"/>
  <circle cx="545.86" cy="300.01" r="2.5" fill="#2563eb"/>
  <circle cx="547.40" cy="300.01" r="2.5" fill="#2563eb"/>
  <circle cx="548.95" cy="299.97" r="2.5" fill="#2563eb"/>
  <circle cx="550.49" cy="300.01" r="2.5" fill="#2563eb"/>
  <circle cx="552.04" cy="300.01" r="2.5" fill="#2563eb"/>
  <circle cx="553.58" cy="299.97" r="2.5" fill="#2563eb"/>
  <circle cx="555.13" cy="299.97" r="2.5" fill="#2563eb"/>
  <circle cx="556.67" cy="300.01" r="2.5" fill="#2563eb"/>
  <circle cx="558.22" cy="300.01" r="2.5" fill="#2563eb"/>
  <circle cx="559.76" cy="299.97" r="2.5" fill="#2563eb"/>
  <circle cx="561.31" cy="299.93" r="2.5" fill="#2563eb"/>
  <circle cx="562.85" cy="300.01" r="2.5" fill="#2563eb"/>
  <circle cx="564.40" cy="300.06" r="2.5" fill="#2563eb"/>
  <circle cx="565.94" cy="299.97" r="2.5" fill="#2563eb"/>
  <circle cx="567.49" cy="300.01" r="2.5" fill="#2563eb"/>
  <circle cx="569.03" cy="250.03" r="2.5" fill="#2563eb"/>
  <circle cx="570.58" cy="250.03" r="2.5" fill="#2563eb"/>
  <circle cx="572.12" cy="299.93" r="2.5" fill="#2563eb"/>
  <circle cx="573.67" cy="299.97" r="2.5" fill="#2563eb"/>
  <circle cx="575.21" cy="300.01" r="2.5" fill="#2563eb"/>
  <circle cx="576.76" cy="300.01" r="2.5" fill="#2563eb"/>
  <circle cx="578.30" cy="300.06" r="2.5" fill="#2563eb"/>
  <circle cx="579.85" cy="300.01" r="2.5" fill="#2563eb"/>
  <circle cx="581.39" cy="299.93" r="2.5" fill="#2563eb"/>
  <circle cx="582.94" cy="300.01" r="2.5" fill="#2563eb"/>
  <circle cx="584.48" cy="300.01" r="2.5" fill="#2563eb"/>
  <circle cx="586.03" cy="299.97" r="2.5" fill="#2563eb"/>
  <circle cx="587.57" cy="299.97" r="2.5" fill="#2563eb"/>
  <circle cx="589.12" cy="300.01" r="2.5" fill="#2563eb"/>
  <circle cx="590.66" cy="250.03" r="2.5" fill="#2563eb"/>
  <circle cx="592.21" cy="300.01" r="2.5" fill="#2563eb"/>
  <circle cx="593.75" cy="300.01" r="2.5" fill="#2563eb"/>
  <circle cx="595.30" cy="300.01" r="2.5" fill="#2563eb"/>
  <circle cx="596.84" cy="299.97" r="2.5" fill="#2563eb"/>
  <circle cx="598.39" cy="300.01" r="2.5" fill="#2563eb"/>
  <circle cx="599.93" cy="299.97" r="2.5" fill="#2563eb"/>
  <circle cx="601.48" cy="300.01" r="2.5" fill="#2563eb"/>
  <circle cx="603.02" cy="299.97" r="2.5" fill="#2563eb"/>
  <circle cx="604.57" cy="299.97" r="2.5" fill="#2563eb"/>
  <circle cx="606.11" cy="299.93" r="2.5" fill="#2563eb"/>
  <circle cx="607.66" cy="300.01" r="2.5" fill="#2563eb"/>
  <circle cx="609.20" cy="300.01" r="2.5" fill="#2563eb"/>
  <circle cx="610.75" cy="299.89" r="2.5" fill="#2563eb"/>
  <circle cx="612.29" cy="299.97" r="2.5" fill="#2563eb"/>
  <circle cx="613.84" cy="299.97" r="2.5" fill="#2563eb"/>
  <circle cx="615.38" cy="300.06" r="2.5" fill="#2563eb"/>
  <circle cx="616.93" cy="249.90" r="2.5" fill="#2563eb"/>
  <circle cx="618.47" cy="299.89" r="2.5" fill="#2563eb"/>
  <circle cx="620.02" cy="300.01" r="2.5" fill="#2563eb"/>
  <circle cx="621.56" cy="299.97" r="2.5" fill="#2563eb"/>
  <circle cx="623.11" cy="299.97" r="2.5" fill="#2563eb"/>
  <circle cx="624.65" cy="299.97" r="2.5" fill="#2563eb"/>
  <circle cx="626.20" cy="300.01" r="2.5" fill="#2563eb"/>
  <circle cx="627.74" cy="300.01" r="2.5" fill="#2563eb"/>
  <circle cx="629.29" cy="299.97" r="2.5" fill="#2563eb"/>
  <circle cx="630.83" cy="299.97" r="2.5" fill="#2563eb"/>
  <circle cx="632.38" cy="299.97" r="2.5" fill="#2563eb"/>
  <circle cx="633.92" cy="250.03" r="2.5" fill="#2563eb"/>
  <circle cx="635.47" cy="299.93" r="2.5" fill="#2563eb"/>
  <circle cx="637.01" cy="300.01" r="2.5" fill="#2563eb"/>
  <circle cx="638.56" cy="300.01" r="2.5" fill="#2563eb"/>
  <circle cx="640.10" cy="299.93" r="2.5" fill="#2563eb"/>
  <circle cx="641.65" cy="300.01" r="2.5" fill="#2563eb"/>
  <circle cx="643.19" cy="300.01" r="2.5" fill="#2563eb"/>
  <circle cx="644.74" cy="299.97" r="2.5" fill="#2563eb"/>
  <circle cx="646.28" cy="300.01" r="2.5" fill="#2563eb"/>
  <circle cx="647.83" cy="300.01" r="2.5" fill="#2563eb"/>
  <circle cx="649.37" cy="300.06" r="2.5" fill="#2563eb"/>
  <circle cx="650.92" cy="300.01" r="2.5" fill="#2563eb"/>
  <circle cx="652.46" cy="299.97" r="2.5" fill="#2563eb"/>
  <circle cx="654.01" cy="299.89" r="2.5" fill="#2563eb"/>
  <circle cx="655.55" cy="300.01" r="2.5" fill="#2563eb"/>
  <circle cx="657.10" cy="300.01" r="2.5" fill="#2563eb"/>
  <circle cx="658.64" cy="249.94" r="2.5" fill="#2563eb"/>
  <circle cx="660.19" cy="249.94" r="2.5" fill="#2563eb"/>
  <circle cx="661.73" cy="300.01" r="2.5" fill="#2563eb"/>
  <circle cx="663.28" cy="300.01" r="2.5" fill="#2563eb"/>
  <circle cx="664.82" cy="300.01" r="2.5" fill="#2563eb"/>
  <circle cx="666.37" cy="300.01" r="2.5" fill="#2563eb"/>
  <circle cx="667.91" cy="299.97" r="2.5" fill="#2563eb"/>
  <circle cx="669.46" cy="250.03" r="2.5" fill="#2563eb"/>
  <circle cx="671.00" cy="300.01" r="2.5" fill="#2563eb"/>
  <circle cx="672.55" cy="300.01" r="2.5" fill="#2563eb"/>
  <circle cx="674.09" cy="300.01" r="2.5" fill="#2563eb"/>
  <circle cx="675.64" cy="300.01" r="2.5" fill="#2563eb"/>
  <circle cx="677.18" cy="250.03" r="2.5" fill="#2563eb"/>
  <circle cx="678.73" cy="249.99" r="2.5" fill="#2563eb"/>
  <circle cx="680.27" cy="300.01" r="2.5" fill="#2563eb"/>
  <circle cx="681.82" cy="299.97" r="2.5" fill="#2563eb"/>
  <circle cx="683.36" cy="300.01" r="2.5" fill="#2563eb"/>
  <circle cx="684.91" cy="299.97" r="2.5" fill="#2563eb"/>
  <circle cx="686.45" cy="300.01" r="2.5" fill="#2563eb"/>
  <circle cx="688.00" cy="299.97" r="2.5" fill="#2563eb"/>
  <circle cx="689.54" cy="299.97" r="2.5" fill="#2563eb"/>
  <circle cx="691.09" cy="299.97" r="2.5" fill="#2563eb"/>
  <circle cx="692.63" cy="300.06" r="2.5" fill="#2563eb"/>
  <circle cx="694.18" cy="249.99" r="2.5" fill="#2563eb"/>
  <circle cx="695.72" cy="300.01" r="2.5" fill="#2563eb"/>
  <circle cx="697.27" cy="250.03" r="2.5" fill="#2563eb"/>
  <circle cx="698.81" cy="249.94" r="2.5" fill="#2563eb"/>
  <circle cx="700.36" cy="249.99" r="2.5" fill="#2563eb"/>
  <circle cx="701.90" cy="300.01" r="2.5" fill="#2563eb"/>
  <circle cx="703.45" cy="300.06" r="2.5" fill="#2563eb"/>
  <circle cx="704.99" cy="300.01" r="2.5" fill="#2563eb"/>
  <circle cx="706.54" cy="299.97" r="2.5" fill="#2563eb"/>
  <circle cx="708.08" cy="299.97" r="2.5" fill="#2563eb"/>
  <circle cx="709.63" cy="300.01" r="2.5" fill="#2563eb"/>
  <circle cx="711.17" cy="299.93" r="2.5" fill="#2563eb"/>
  <circle cx="712.72" cy="299.89" r="2.5" fill="#2563eb"/>
  <circle cx="714.26" cy="299.89" r="2.5" fill="#2563eb"/>
  <circle cx="715.81" cy="299.89" r="2.5" fill="#2563eb"/>
  <circle cx="717.35" cy="299.89" r="2.5" fill="#2563eb"/>
  <circle cx="718.90" cy="299.85" r="2.5" fill="#2563eb"/>
  <circle cx="720.44" cy="299.85" r="2.5" fill="#2563eb"/>
  <circle cx="721.99" cy="299.89" r="2.5" fill="#2563eb"/>
  <circle cx="723.53" cy="299.81" r="2.5" fill="#2563eb"/>
  <circle cx="725.08" cy="299.81" r="2.5" fill="#2563eb"/>
  <circle cx="726.62" cy="299.81" r="2.5" fill="#2563eb"/>
  <circle cx="728.17" cy="299.76" r="2.5" fill="#2563eb"/>
  <circle cx="729.71" cy="299.76" r="2.5" fill="#2563eb"/>
  <circle cx="731.26" cy="299.76" r="2.5" fill="#2563eb"/>
  <circle cx="732.80" cy="299.72" r="2.5" fill="#2563eb"/>
  <circle cx="734.35" cy="299.68" r="2.5" fill="#2563eb"/>
  <circle cx="735.89" cy="299.60" r="2.5" fill="#2563eb"/>
  <circle cx="737.44" cy="299.60" r="2.5" fill="#2563eb"/>
  <circle cx="738.98" cy="299.60" r="2.5" fill="#2563eb"/>
  <circle cx="740.53" cy="299.56" r="2.5" fill="#2563eb"/>
  <circle cx="742.07" cy="299.47" r="2.5" fill="#2563eb"/>
  <circle cx="743.62" cy="299.43" r="2.5" fill="#2563eb"/>
  <circle cx="745.16" cy="299.43" r="2.5" fill="#2563eb"/>
  <circle cx="746.71" cy="299.39" r="2.5" fill="#2563eb"/>
  <circle cx="748.25" cy="299.47" r="2.5" fill="#2563eb"/>
  <circle cx="749.80" cy="259.82" r="2.5" fill="#2563eb"/>
  <circle cx="751.34" cy="338.96" r="2.5" fill="#2563eb"/>
  <circle cx="752.89" cy="299.31" r="2.5" fill="#2563eb"/>
  <circle cx="754.43" cy="299.31" r="2.5" fill="#2563eb"/>
  <circle cx="755.98" cy="299.26" r="2.5" fill="#2563eb"/>
  <circle cx="757.52" cy="299.68" r="2.5" fill="#2563eb"/>
  <circle cx="759.07" cy="299.68" r="2.5" fill="#2563eb"/>
  <circle cx="760.61" cy="299.68" r="2.5" fill="#2563eb"/>
  <circle cx="762.16" cy="299.64" r="2.5" fill="#2563eb"/>
  <circle cx="763.70" cy="299.14" r="2.5" fill="#2563eb"/>
  <circle cx="765.25" cy="299.14" r="2.5" fill="#2563eb"/>
  <circle cx="766.79" cy="299.10" r="2.5" fill="#2563eb"/>
  <circle cx="768.34" cy="299.10" r="2.5" fill="#2563eb"/>
  <circle cx="769.88" cy="299.10" r="2.5" fill="#2563eb"/>
  <circle cx="771.43" cy="248.07" r="2.5" fill="#2563eb"/>
  <circle cx="772.97" cy="299.06" r="2.5" fill="#2563eb"/>
  <circle cx="774.52" cy="299.06" r="2.5" fill="#2563eb"/>
  <circle cx="776.06" cy="299.06" r="2.5" fill="#2563eb"/>
  <circle cx="777.61" cy="299.06" r="2.5" fill="#2563eb"/>
  <circle cx="779.15" cy="299.06" r="2.5" fill="#2563eb"/>
  <circle cx="780.70" cy="298.97" r="2.5" fill="#2563eb"/>
  <circle cx="782.24" cy="298.97" r="2.5" fill="#2563eb"/>
  <circle cx="783.79" cy="298.93" r="2.5" fill="#2563eb"/>
  <circle cx="785.33" cy="298.97" r="2.5" fill="#2563eb"/>
  <circle cx="786.88" cy="298.93" r="2.5" fill="#2563eb"/>
  <circle cx="788.42" cy="298.89" r="2.5" fill="#2563eb"/>
  <circle cx="789.97" cy="298.89" r="2.5" fill="#2563eb"/>
  <circle cx="791.51" cy="298.89" r="2.5" fill="#2563eb"/>
  <circle cx="793.06" cy="298.89" r="2.5" fill="#2563eb"/>
  <circle cx="794.60" cy="247.78" r="2.5" fill="#2563eb"/>
  <circle cx="796.15" cy="298.89" r="2.5" fill="#2563eb"/>
  <circle cx="797.69" cy="298.89" r="2.5" fill="#2563eb"/>
  <circle cx="799.24" cy="298.85" r="2.5" fill="#2563eb"/>
  <circle cx="800.78" cy="298.85" r="2.5" fill="#2563eb"/>
  <circle cx="802.33" cy="298.81" r="2.5" fill="#2563eb"/>
  <circle cx="803.87" cy="298.81" r="2.5" fill="#2563eb"/>
  <circle cx="805.42" cy="298.81" r="2.5" fill="#2563eb"/>
  <circle cx="806.96" cy="298.81" r="2.5" fill="#2563eb"/>
  <circle cx="808.51" cy="298.81" r="2.5" fill="#2563eb"/>
  <circle cx="810.05" cy="298.81" r="2.5" fill="#2563eb"/>
  <circle cx="811.60" cy="298.81" r="2.5" fill="#2563eb"/>
  <circle cx="813.14" cy="298.81" r="2.5" fill="#2563eb"/>
  <circle cx="814.69" cy="298.81" r="2.5" fill="#2563eb"/>
  <circle cx="816.23" cy="298.72" r="2.5" fill="#2563eb"/>
  <circle cx="817.78" cy="247.45" r="2.5" fill="#2563eb"/>
  <circle cx="819.32" cy="247.45" r="2.5" fill="#2563eb"/>
  <circle cx="820.87" cy="298.72" r="2.5" fill="#2563eb"/>
  <circle cx="822.41" cy="298.72" r="2.5" fill="#2563eb"/>
  <circle cx="823.96" cy="298.72" r="2.5" fill="#2563eb"/>
  <circle cx="825.50" cy="298.72" r="2.5" fill="#2563eb"/>
  <circle cx="827.05" cy="298.72" r="2.5" fill="#2563eb"/>
  <circle cx="828.59" cy="298.72" r="2.5" fill="#2563eb"/>
  <circle cx="830.14" cy="247.36" r="2.5" fill="#2563eb"/>
  <circle cx="831.68" cy="298.68" r="2.5" fill="#2563eb"/>
  <circle cx="833.23" cy="247.36" r="2.5" fill="#2563eb"/>
  <circle cx="834.77" cy="247.36" r="2.5" fill="#2563eb"/>
  <circle cx="836.32" cy="247.36" r="2.5" fill="#2563eb"/>
  <circle cx="837.86" cy="298.68" r="2.5" fill="#2563eb"/>
  <circle cx="839.41" cy="298.68" r="2.5" fill="#2563eb"/>
  <circle cx="840.95" cy="298.68" r="2.5" fill="#2563eb"/>
  <circle cx="842.50" cy="298.68" r="2.5" fill="#2563eb"/>
  <circle cx="844.04" cy="298.68" r="2.5" fill="#2563eb"/>
  <circle cx="845.59" cy="341.67" r="2.5" fill="#2563eb"/>
  <circle cx="847.13" cy="307.01" r="2.5" fill="#2563eb"/>
  <circle cx="848.68" cy="298.68" r="2.5" fill="#2563eb"/>
  <circle cx="850.22" cy="298.68" r="2.5" fill="#2563eb"/>
  <circle cx="851.77" cy="298.68" r="2.5" fill="#2563eb"/>
  <circle cx="853.31" cy="247.36" r="2.5" fill="#2563eb"/>
  <circle cx="854.86" cy="298.64" r="2.5" fill="#2563eb"/>
  <circle cx="856.40" cy="247.36" r="2.5" fill="#2563eb"/>
  <circle cx="857.95" cy="247.28" r="2.5" fill="#2563eb"/>
  <circle cx="859.49" cy="247.20" r="2.5" fill="#2563eb"/>
  <circle cx="861.04" cy="298.60" r="2.5" fill="#2563eb"/>
  <circle cx="862.58" cy="298.60" r="2.5" fill="#2563eb"/>
  <circle cx="864.13" cy="247.03" r="2.5" fill="#2563eb"/>
  <circle cx="865.67" cy="298.51" r="2.5" fill="#2563eb"/>
  <circle cx="867.22" cy="298.51" r="2.5" fill="#2563eb"/>
  <circle cx="868.76" cy="298.51" r="2.5" fill="#2563eb"/>
  <circle cx="870.31" cy="298.51" r="2.5" fill="#2563eb"/>
  <circle cx="871.85" cy="298.51" r="2.5" fill="#2563eb"/>
  <circle cx="873.40" cy="298.51" r="2.5" fill="#2563eb"/>
  <circle cx="874.94" cy="298.51" r="2.5" fill="#2563eb"/>
  <circle cx="876.49" cy="298.51" r="2.5" fill="#2563eb"/>
  <circle cx="878.03" cy="298.51" r="2.5" fill="#2563eb"/>
  <circle cx="879.58" cy="298.51" r="2.5" fill="#2563eb"/>
  <circle cx="881.12" cy="298.51" r="2.5" fill="#2563eb"/>
  <circle cx="882.67" cy="298.51" r="2.5" fill="#2563eb"/>
  <circle cx="884.21" cy="298.51" r="2.5" fill="#2563eb"/>
  <circle cx="885.76" cy="298.51" r="2.5" fill="#2563eb"/>
  <circle cx="887.30" cy="298.51" r="2.5" fill="#2563eb"/>
  <circle cx="888.85" cy="298.51" r="2.5" fill="#2563eb"/>
  <circle cx="890.39" cy="298.51" r="2.5" fill="#2563eb"/>
  <circle cx="891.94" cy="298.51" r="2.5" fill="#2563eb"/>
  <circle cx="893.48" cy="298.51" r="2.5" fill="#2563eb"/>
  <circle cx="895.03" cy="298.51" r="2.5" fill="#2563eb"/>
  <circle cx="896.57" cy="298.51" r="2.5" fill="#2563eb"/>
  <circle cx="898.12" cy="298.51" r="2.5" fill="#2563eb"/>
  <circle cx="899.66" cy="298.51" r="2.5" fill="#2563eb"/>
  <circle cx="901.21" cy="298.51" r="2.5" fill="#2563eb"/>
  <circle cx="902.75" cy="298.51" r="2.5" fill="#2563eb"/>
  <circle cx="904.30" cy="298.51" r="2.5" fill="#2563eb"/>
  <circle cx="905.84" cy="298.47" r="2.5" fill="#2563eb"/>
  <circle cx="907.39" cy="298.51" r="2.5" fill="#2563eb"/>
  <circle cx="908.93" cy="298.51" r="2.5" fill="#2563eb"/>
  <circle cx="910.48" cy="298.47" r="2.5" fill="#2563eb"/>
  <circle cx="912.02" cy="298.51" r="2.5" fill="#2563eb"/>
  <circle cx="913.57" cy="298.47" r="2.5" fill="#2563eb"/>
  <circle cx="915.11" cy="298.51" r="2.5" fill="#2563eb"/>
  <circle cx="916.66" cy="298.43" r="2.5" fill="#2563eb"/>
  <circle cx="918.20" cy="298.56" r="2.5" fill="#2563eb"/>
  <circle cx="919.75" cy="298.43" r="2.5" fill="#2563eb"/>
  <circle cx="921.29" cy="298.43" r="2.5" fill="#2563eb"/>
  <circle cx="922.84" cy="298.43" r="2.5" fill="#2563eb"/>
  <circle cx="924.38" cy="298.43" r="2.5" fill="#2563eb"/>
  <circle cx="925.93" cy="298.43" r="2.5" fill="#2563eb"/>
  <circle cx="927.47" cy="298.43" r="2.5" fill="#2563eb"/>
  <circle cx="929.02" cy="298.43" r="2.5" fill="#2563eb"/>
  <circle cx="930.56" cy="298.43" r="2.5" fill="#2563eb"/>
  <circle cx="932.11" cy="298.43" r="2.5" fill="#2563eb"/>
  <circle cx="933.65" cy="298.43" r="2.5" fill="#2563eb"/>
  <circle cx="935.20" cy="298.43" r="2.5" fill="#2563eb"/>
  <circle cx="936.74" cy="298.43" r="2.5" fill="#2563eb"/>
  <circle cx="938.29" cy="298.43" r="2.5" fill="#2563eb"/>
  <circle cx="939.83" cy="298.43" r="2.5" fill="#2563eb"/>
  <circle cx="941.38" cy="298.43" r="2.5" fill="#2563eb"/>
  <circle cx="942.92" cy="298.43" r="2.5" fill="#2563eb"/>
  <circle cx="944.47" cy="298.43" r="2.5" fill="#2563eb"/>
  <circle cx="946.01" cy="298.43" r="2.5" fill="#2563eb"/>
  <circle cx="947.56" cy="298.43" r="2.5" fill="#2563eb"/>
  <circle cx="949.10" cy="298.43" r="2.5" fill="#2563eb"/>
  <circle cx="950.65" cy="298.43" r="2.5" fill="#2563eb"/>
  <circle cx="952.19" cy="298.43" r="2.5" fill="#2563eb"/>
  <circle cx="953.74" cy="298.43" r="2.5" fill="#2563eb"/>
  <circle cx="955.28" cy="298.43" r="2.5" fill="#2563eb"/>
  <circle cx="956.83" cy="298.43" r="2.5" fill="#2563eb"/>
  <circle cx="958.37" cy="298.43" r="2.5" fill="#2563eb"/>
  <circle cx="959.92" cy="298.43" r="2.5" fill="#2563eb"/>
  <circle cx="961.46" cy="298.43" r="2.5" fill="#2563eb"/>
  <circle cx="963.01" cy="298.43" r="2.5" fill="#2563eb"/>
  <circle cx="964.55" cy="298.43" r="2.5" fill="#2563eb"/>
  <circle cx="966.10" cy="298.43" r="2.5" fill="#2563eb"/>
  <circle cx="967.64" cy="298.43" r="2.5" fill="#2563eb"/>
  <circle cx="969.19" cy="298.43" r="2.5" fill="#2563eb"/>
  <circle cx="970.73" cy="298.43" r="2.5" fill="#2563eb"/>
  <circle cx="972.28" cy="298.39" r="2.5" fill="#2563eb"/>
  <circle cx="973.82" cy="298.39" r="2.5" fill="#2563eb"/>
  <circle cx="975.37" cy="298.43" r="2.5" fill="#2563eb"/>
  <circle cx="976.91" cy="298.43" r="2.5" fill="#2563eb"/>
  <circle cx="978.46" cy="298.39" r="2.5" fill="#2563eb"/>
  <circle cx="980.00" cy="298.39" r="2.5" fill="#2563eb"/>
</svg>
