<?xml version="1.0" encoding="UTF-8"?>
<svg xmlns="http://www.w3.org/2000/svg" width="1000" height="420" viewBox="0 0 1000 420">
  <rect width="100%" height="100%" fill="#ffffff"/>
  <text x="70" y="28" font-size="20" font-weight="600">수집 시점 기준 - 시간별 스냅샷</text>
  <text x="70" y="402" font-size="12" fill="#555">스냅샷 수</text>
  <line x1="70" y1="350.00" x2="980" y2="350.00" stroke="#e5e7eb" stroke-width="1"/>
  <text x="62" y="354.00" font-size="11" fill="#6b7280" text-anchor="end">0</text>
  <line x1="70" y1="290.00" x2="980" y2="290.00" stroke="#e5e7eb" stroke-width="1"/>
  <text x="62" y="294.00" font-size="11" fill="#6b7280" text-anchor="end">1,440</text>
  <line x1="70" y1="230.00" x2="980" y2="230.00" stroke="#e5e7eb" stroke-width="1"/>
  <text x="62" y="234.00" font-size="11" fill="#6b7280" text-anchor="end">2,880</text>
  <line x1="70" y1="170.00" x2="980" y2="170.00" stroke="#e5e7eb" stroke-width="1"/>
  <text x="62" y="174.00" font-size="11" fill="#6b7280" text-anchor="end">4,321</text>
  <line x1="70" y1="110.00" x2="980" y2="110.00" stroke="#e5e7eb" stroke-width="1"/>
  <text x="62" y="114.00" font-size="11" fill="#6b7280" text-anchor="end">5,761</text>
  <line x1="70" y1="50.00" x2="980" y2="50.00" stroke="#e5e7eb" stroke-width="1"/>
  <text x="62" y="54.00" font-size="11" fill="#6b7280" text-anchor="end">7,202</text>
  <line x1="70" y1="350" x2="980" y2="350" stroke="#111827" stroke-width="1.2"/>
  <line x1="70" y1="50" x2="70" y2="350" stroke="#111827" stroke-width="1.2"/>
  <line x1="70.00" y1="350" x2="70.00" y2="356" stroke="#9ca3af" stroke-width="1"/>
  <text x="70.00" y="372" font-size="10" fill="#6b7280" text-anchor="middle">2026-02-28 18</text>
  <line x1="145.46" y1="350" x2="145.46" y2="356" stroke="#9ca3af" stroke-width="1"/>
  <text x="145.46" y="372" font-size="10" fill="#6b7280" text-anchor="middle">2026-03-10 01</text>
  <line x1="220.93" y1="350" x2="220.93" y2="356" stroke="#9ca3af" stroke-width="1"/>
  <text x="220.93" y="372" font-size="10" fill="#6b7280" text-anchor="middle">2026-03-13 03</text>
  <line x1="296.39" y1="350" x2="296.39" y2="356" stroke="#9ca3af" stroke-width="1"/>
  <text x="296.39" y="372" font-size="10" fill="#6b7280" text-anchor="middle">2026-03-16 22</text>
  <line x1="371.85" y1="350" x2="371.85" y2="356" stroke="#9ca3af" stroke-width="1"/>
  <text x="371.85" y="372" font-size="10" fill="#6b7280" text-anchor="middle">2026-03-21 06</text>
  <line x1="447.32" y1="350" x2="447.32" y2="356" stroke="#9ca3af" stroke-width="1"/>
  <text x="447.32" y="372" font-size="10" fill="#6b7280" text-anchor="middle">2026-03-25 14</text>
  <line x1="522.78" y1="350" x2="522.78" y2="356" stroke="#9ca3af" stroke-width="1"/>
  <text x="522.78" y="372" font-size="10" fill="#6b7280" text-anchor="middle">2026-03-30 04</text>
  <line x1="598.24" y1="350" x2="598.24" y2="356" stroke="#9ca3af" stroke-width="1"/>
  <text x="598.24" y="372" font-size="10" fill="#6b7280" text-anchor="middle">2026-04-03 21</text>
  <line x1="673.71" y1="350" x2="673.71" y2="356" stroke="#9ca3af" stroke-width="1"/>
  <text x="673.71" y="372" font-size="10" fill="#6b7280" text-anchor="middle">2026-04-08 09</text>
  <line x1="749.17" y1="350" x2="749.17" y2="356" stroke="#9ca3af" stroke-width="1"/>
  <text x="749.17" y="372" font-size="10" fill="#6b7280" text-anchor="middle">2026-04-13 04</text>
  <line x1="824.63" y1="350" x2="824.63" y2="356" stroke="#9ca3af" stroke-width="1"/>
  <text x="824.63" y="372" font-size="10" fill="#6b7280" text-anchor="middle">2026-04-18 09</text>
  <line x1="900.10" y1="350" x2="900.10" y2="356" stroke="#9ca3af" stroke-width="1"/>
  <text x="900.10" y="372" font-size="10" fill="#6b7280" text-anchor="middle">2026-04-23 04</text>
  <line x1="975.56" y1="350" x2="975.56" y2="356" stroke="#9ca3af" stroke-width="1"/>
  <text x="975.56" y="372" font-size="10" fill="#6b7280" text-anchor="middle">2026-04-27 18</text>
  <line x1="980.00" y1="350" x2="980.00" y2="356" stroke="#9ca3af" stroke-width="1"/>
  <text x="980.00" y="372" font-size="10" fill="#6b7280" text-anchor="middle">2026-04-28 03</text>
  <polyline fill="none" stroke="#2563eb" stroke-width="2.5" points="70.00,50.00 71.11,50.12 72.22,50.17 73.33,50.46 74.44,50.00 75.55,266.90 76.66,50.12 77.77,50.08 78.88,177.46 79.99,211.58 81.10,175.34 82.21,304.14 83.32,200.46 84.43,250.94 85.54,300.01 86.65,300.06 87.76,300.01 88.87,300.01 89.98,348.00 91.09,300.01 92.20,249.99 93.30,200.00 94.41,249.99 95.52,249.99 96.63,250.03 97.74,250.03 98.85,250.03 99.96,250.40 101.07,250.90 102.18,250.90 103.29,251.32 104.40,249.94 105.51,300.01 106.62,299.93 107.73,251.03 108.84,300.68 109.95,250.03 111.06,200.00 112.17,249.99 113.28,250.03 114.39,250.03 115.50,250.03 116.61,300.01 117.72,200.04 118.83,250.03 119.94,250.03 121.05,250.03 122.16,249.90 123.27,250.03 124.38,250.03 125.49,250.94 126.60,250.44 127.71,250.03 128.82,250.03 129.93,300.47 131.04,300.01 132.15,300.43 133.26,250.03 134.37,249.99 135.48,300.43 136.59,249.90 137.70,249.99 138.80,249.99 139.91,200.04 141.02,300.01 142.13,300.01 143.24,300.01 144.35,249.90 145.46,300.01 146.57,250.03 147.68,249.99 148.79,199.96 149.90,300.01 151.01,200.00 152.12,250.36 153.23,250.03 154.34,300.01 155.45,300.01 156.56,250.44 157.67,300.01 158.78,250.03 159.89,250.03 161.00,249.99 162.11,250.49 163.22,250.03 164.33,200.04 165.44,300.01 166.55,250.03 167.66,300.01 168.77,250.11 169.88,300.01 170.99,250.03 172.10,250.03 173.21,199.92 174.32,250.03 175.43,250.03 176.54,250.03 177.65,254.36 178.76,300.01 179.87,299.97 180.98,250.36 182.09,299.97 183.20,250.03 184.30,250.03 185.41,250.03 186.52,250.03 187.63,249.99 188.74,200.00 189.85,299.93 190.96,300.01 192.07,299.97 193.18,249.94 194.29,249.99 195.40,249.82 196.51,249.94 197.62,250.28 198.73,207.00 199.84,250.03 200.95,250.32 202.06,250.40 203.17,300.93 204.28,300.01 205.39,300.10 206.50,249.94 207.61,249.99 208.72,250.07 209.83,249.99 210.94,250.03 212.05,249.94 213.16,200.00 214.27,300.39 215.38,300.01 216.49,300.01 217.60,250.44 218.71,300.39 219.82,249.86 220.93,250.11 222.04,201.46 223.15,300.01 224.26,200.83 225.37,250.03 226.48,249.99 227.59,300.26 228.70,300.01 229.80,300.01 230.91,250.03 232.02,250.03 233.13,250.03 234.24,250.03 235.35,249.99 236.46,250.03 237.57,200.00 238.68,300.26 239.79,249.99 240.90,300.01 242.01,249.94 243.12,250.03 244.23,250.03 245.34,250.03 246.45,200.04 247.56,300.01 248.67,249.90 249.78,300.01 250.89,300.01 252.00,300.06 253.11,300.01 254.22,300.01 255.33,243.95 256.44,249.94 257.55,299.97 258.66,300.01 259.77,300.01 260.88,250.03 261.99,300.01 263.10,300.01 264.21,299.97 265.32,249.99 266.43,300.01 267.54,299.93 268.65,300.01 269.76,299.93 270.87,300.01 271.98,300.01 273.09,299.89 274.20,299.97 275.30,250.03 276.41,299.93 277.52,299.89 278.63,299.97 279.74,249.94 280.85,300.01 281.96,300.01 283.07,299.97 284.18,249.99 285.29,299.97 286.40,299.97 287.51,300.06 288.62,300.06 289.73,299.93 290.84,300.01 291.95,300.01 293.06,299.93 294.17,300.01 295.28,300.01 296.39,299.97 297.50,300.01 298.61,300.01 299.72,300.01 300.83,300.01 301.94,249.86 303.05,300.01 304.16,300.10 305.27,299.93 306.38,300.01 307.49,299.93 308.60,300.01 309.71,300.01 310.82,300.01 311.93,300.01 313.04,300.01 314.15,299.97 315.26,300.01 316.37,300.01 317.48,300.01 318.59,300.01 319.70,250.03 320.80,300.01 321.91,300.01 323.02,299.97 324.13,300.01 325.24,300.01 326.35,299.97 327.46,299.97 328.57,300.01 329.68,299.97 330.79,300.01 331.90,299.93 333.01,300.01 334.12,250.03 335.23,300.01 336.34,300.01 337.45,300.01 338.56,300.01 339.67,300.01 340.78,299.89 341.89,300.01 343.00,300.01 344.11,250.07 345.22,300.01 346.33,299.93 347.44,300.01 348.55,299.97 349.66,299.97 350.77,299.97 351.88,250.03 352.99,300.01 354.10,300.01 355.21,300.01 356.32,300.01 357.43,299.97 358.54,300.01 359.65,299.97 360.76,300.01 361.87,299.97 362.98,249.90 364.09,300.01 365.20,300.01 366.30,299.89 367.41,299.97 368.52,299.97 369.63,249.99 370.74,299.97 371.85,299.89 372.96,300.01 374.07,299.97 375.18,299.97 376.29,300.01 377.40,299.97 378.51,249.99 379.62,299.97 380.73,299.97 381.84,300.06 382.95,300.06 384.06,249.94 385.17,300.01 386.28,299.93 387.39,300.01 388.50,300.01 389.61,249.99 390.72,300.01 391.83,300.01 392.94,300.01 394.05,299.93 395.16,299.93 396.27,300.01 397.38,300.01 398.49,249.94 399.60,299.97 400.71,299.97 401.82,300.01 402.93,300.01 404.04,300.01 405.15,249.99 406.26,300.01 407.37,300.01 408.48,300.01 409.59,250.03 410.70,300.01 411.80,300.01 412.91,300.01 414.02,299.97 415.13,300.01 416.24,300.01 417.35,299.97 418.46,299.97 419.57,300.01 420.68,300.01 421.79,299.97 422.90,299.93 424.01,300.01 425.12,300.06 426.23,299.97 427.34,300.01 428.45,250.03 429.56,250.03 430.67,299.93 431.78,299.97 432.89,300.01 434.00,300.01 435.11,300.06 436.22,300.01 437.33,299.93 438.44,300.01 439.55,300.01 440.66,299.97 441.77,299.97 442.88,300.01 443.99,250.03 445.10,300.01 446.21,300.01 447.32,300.01 448.43,299.97 449.54,300.01 450.65,299.97 451.76,300.01 452.87,299.97 453.98,299.97 455.09,299.93 456.20,300.01 457.30,300.01 458.41,299.89 459.52,299.97 460.63,299.97 461.74,300.06 462.85,249.90 463.96,299.89 465.07,300.01 466.18,299.97 467.29,299.97 468.40,299.97 469.51,300.01 470.62,300.01 471.73,299.97 472.84,299.97 473.95,299.97 475.06,250.03 476.17,299.93 477.28,300.01 478.39,300.01 479.50,299.93 480.61,300.01 481.72,300.01 482.83,299.97 483.94,300.01 485.05,300.01 486.16,300.06 487.27,300.01 488.38,299.97 489.49,299.89 490.60,300.01 491.71,300.01 492.82,249.94 493.93,249.94 495.04,300.01 496.15,300.01 497.26,300.01 498.37,300.01 499.48,299.97 500.59,250.03 501.70,300.01 502.80,300.01 503.91,300.01 505.02,300.01 506.13,250.03 507.24,249.99 508.35,300.01 509.46,299.97 510.57,300.01 511.68,299.97 512.79,300.01 513.90,299.97 515.01,299.97 516.12,299.97 517.23,300.06 518.34,249.99 519.45,300.01 520.56,250.03 521.67,249.94 522.78,249.99 523.89,300.01 525.00,300.06 526.11,300.01 527.22,299.97 528.33,299.97 529.44,300.01 530.55,299.93 531.66,299.89 532.77,299.89 533.88,299.89 534.99,299.89 536.10,299.85 537.21,299.85 538.32,299.89 539.43,299.81 540.54,299.81 541.65,299.81 542.76,299.76 543.87,299.76 544.98,299.76 546.09,299.72 547.20,299.68 548.30,299.60 549.41,299.60 550.52,299.60 551.63,299.56 552.74,299.47 553.85,299.43 554.96,299.43 556.07,299.39 557.18,299.47 558.29,259.82 559.40,338.96 560.51,299.31 561.62,299.31 562.73,299.26 563.84,299.68 564.95,299.68 566.06,299.68 567.17,299.64 568.28,299.14 569.39,299.14 570.50,299.10 571.61,299.10 572.72,299.10 573.83,248.07 574.94,299.06 576.05,299.06 577.16,299.06 578.27,299.06 579.38,299.06 580.49,298.97 581.60,298.97 582.71,298.93 583.82,298.97 584.93,298.93 586.04,298.89 587.15,298.89 588.26,298.89 589.37,298.89 590.48,247.78 591.59,298.89 592.70,298.89 593.80,298.85 594.91,298.85 596.02,298.81 597.13,298.81 598.24,298.81 599.35,298.81 600.46,298.81 601.57,298.81 602.68,298.81 603.79,298.81 604.90,298.81 606.01,298.72 607.12,247.45 608.23,247.45 609.34,298.72 610.45,298.72 611.56,298.72 612.67,298.72 613.78,298.72 614.89,298.72 616.00,247.36 617.11,298.68 618.22,247.36 619.33,247.36 620.44,247.36 621.55,298.68 622.66,298.68 623.77,298.68 624.88,298.68 625.99,298.68 627.10,341.67 628.21,307.01 629.32,298.68 630.43,298.68 631.54,298.68 632.65,247.36 633.76,298.64 634.87,247.36 635.98,247.28 637.09,247.20 638.20,298.60 639.30,298.60 640.41,247.03 641.52,298.51 642.63,298.51 643.74,298.51 644.85,298.51 645.96,298.51 647.07,298.51 648.18,298.51 649.29,298.51 650.40,298.51 651.51,298.51 652.62,298.51 653.73,298.51 654.84,298.51 655.95,298.51 657.06,298.51 658.17,298.51 659.28,298.51 660.39,298.51 661.50,298.51 662.61,298.51 663.72,298.51 664.83,298.51 665.94,298.51 667.05,298.51 668.16,298.51 669.27,298.51 670.38,298.47 671.49,298.51 672.60,298.51 673.71,298.47 674.82,298.51 675.93,298.47 677.04,298.51 678.15,298.43 679.26,298.56 680.37,298.43 681.48,298.43 682.59,298.43 683.70,298.43 684.80,298.43 685.91,298.43 687.02,298.43 688.13,298.43 689.24,298.43 690.35,298.43 691.46,298.43 692.57,298.43 693.68,298.43 694.79,298.43 695.90,298.43 697.01,298.43 698.12,298.43 699.23,298.43 700.34,298.43 701.45,298.43 702.56,298.43 703.67,298.43 704.78,298.43 705.89,298.43 707.00,298.43 708.11,298.43 709.22,298.43 710.33,298.43 711.44,298.43 712.55,298.43 713.66,298.43 714.77,298.43 715.88,298.43 716.99,298.43 718.10,298.39 719.21,298.39 720.32,298.43 721.43,298.43 722.54,298.39 723.65,298.39 724.76,298.39 725.87,298.43 726.98,298.43 728.09,298.43 729.20,246.82 730.30,298.43 731.41,246.78 732.52,246.78 733.63,246.78 734.74,246.70 735.85,246.78 736.96,298.39 738.07,298.39 739.18,298.39 740.29,298.39 741.40,298.39 742.51,246.78 743.62,298.39 744.73,298.39 745.84,298.39 746.95,298.39 748.06,298.39 749.17,246.78 750.28,246.78 751.39,298.39 752.50,298.39 753.61,298.39 754.72,298.39 755.83,298.39 756.94,298.39 758.05,298.39 759.16,298.39 760.27,298.39 761.38,298.39 762.49,298.39 763.60,298.39 764.71,298.39 765.82,298.39 766.93,298.35 768.04,298.39 769.15,298.39 770.26,298.35 771.37,298.35 772.48,298.35 773.59,298.35 774.70,298.35 775.80,298.35 776.91,298.35 778.02,298.35 779.13,298.35 780.24,298.35 781.35,298.35 782.46,298.35 783.57,298.35 784.68,298.35 785.79,298.35 786.90,298.35 788.01,298.35 789.12,298.35 790.23,298.35 791.34,298.35 792.45,298.35 793.56,298.35 794.67,298.35 795.78,298.35 796.89,298.35 798.00,298.35 799.11,298.35 800.22,298.35 801.33,298.35 802.44,298.35 803.55,298.35 804.66,298.35 805.77,298.35 806.88,298.35 807.99,298.35 809.10,298.35 810.21,298.35 811.32,298.35 812.43,298.35 813.54,298.35 814.65,298.35 815.76,298.35 816.87,298.35 817.98,298.35 819.09,298.35 820.20,298.35 821.30,298.35 822.41,298.35 823.52,298.35 824.63,298.35 825.74,298.35 826.85,298.35 827.96,298.39 829.07,298.39 830.18,298.39 831.29,246.78 832.40,298.39 833.51,298.39 834.62,298.39 835.73,298.39 836.84,298.39 837.95,298.39 839.06,298.39 840.17,246.78 841.28,298.39 842.39,298.39 843.50,298.39 844.61,298.39 845.72,298.39 846.83,298.39 847.94,298.39 849.05,246.78 850.16,298.39 851.27,298.39 852.38,298.39 853.49,298.39 854.60,298.39 855.71,298.39 856.82,298.39 857.93,298.39 859.04,298.39 860.15,298.39 861.26,298.39 862.37,298.35 863.48,298.39 864.59,298.39 865.70,298.39 866.80,298.35 867.91,298.35 869.02,298.35 870.13,298.35 871.24,298.35 872.35,298.35 873.46,298.35 874.57,298.35 875.68,298.35 876.79,298.35 877.90,298.35 879.01,298.35 880.12,298.35 881.23,298.35 882.34,298.35 883.45,298.35 884.56,298.39 885.67,298.39 886.78,298.39 887.89,298.39 889.00,298.39 890.11,298.39 891.22,298.35 892.33,298.39 893.44,298.39 894.55,298.39 895.66,298.39 896.77,298.39 897.88,298.39 898.99,298.39 900.10,298.39 901.21,298.39 902.32,298.35 903.43,298.39 904.54,298.39 905.65,298.39 906.76,298.39 907.87,298.39 908.98,298.39 910.09,298.39 911.20,298.39 912.30,298.39 913.41,298.39 914.52,298.39 915.63,298.39 916.74,298.39 917.85,298.39 918.96,298.39 920.07,298.39 921.18,298.35 922.29,298.35 923.40,298.39 924.51,298.39 925.62,298.39 926.73,298.39 927.84,298.39 928.95,298.39 930.06,298.39 931.17,298.39 932.28,298.39 933.39,298.39 934.50,298.35 935.61,298.35 936.72,298.39 937.83,298.39 938.94,298.39 940.05,298.39 941.16,298.39 942.27,298.39 943.38,298.39 944.49,298.39 945.60,298.39 946.71,298.39 947.82,298.39 948.93,298.39 950.04,298.39 951.15,298.39 952.26,298.35 953.37,298.39 954.48,298.39 955.59,298.39 956.70,298.39 957.80,298.39 958.91,298.39 960.02,298.39 961.13,298.39 962.24,298.35 963.35,298.35 964.46,298.39 965.57,298.35 966.68,298.39 967.79,298.39 968.90,298.39 970.01,298.39 971.12,298.39 972.23,298.35 973.34,298.39 974.45,298.39 975.56,298.35 976.67,298.39 977.78,298.35 978.89,298.39 980.00,298.39"/>
  <circle cx="70.00" cy="50.00" r="2.5" fill="#2563eb"/>
  <circle cx="71.11" cy="50.12" r="2.5" fill="#2563eb"/>
  <circle cx="72.22" cy="50.17" r="2.5" fill="#2563eb"/>
  <circle cx="73.33" cy="50.46" r="2.5" fill="#2563eb"/>
  <circle cx="74.44" cy="50.00" r="2.5" fill="#2563eb"/>
  <circle cx="75.55" cy="266.90" r="2.5" fill="#2563eb"/>
  <circle cx="76.66" cy="50.12" r="2.5" fill="#2563eb"/>
  <circle cx="77.77" cy="50.08" r="2.5" fill="#2563eb"/>
  <circle cx="78.88" cy="177.46" r="2.5" fill="#2563eb"/>
  <circle cx="79.99" cy="211.58" r="2.5" fill="#2563eb"/>
  <circle cx="81.10" cy="175.34" r="2.5" fill="#2563eb"/>
  <circle cx="82.21" cy="304.14" r="2.5" fill="#2563eb"/>
  <circle cx="83.32" cy="200.46" r="2.5" fill="#2563eb"/>
  <circle cx="84.43" cy="250.94" r="2.5" fill="#2563eb"/>
  <circle cx="85.54" cy="300.01" r="2.5" fill="#2563eb"/>
  <circle cx="86.65" cy="300.06" r="2.5" fill="#2563eb"/>
  <circle cx="87.76" cy="300.01" r="2.5" fill="#2563eb"/>
  <circle cx="88.87" cy="300.01" r="2.5" fill="#2563eb"/>
  <circle cx="89.98" cy="348.00" r="2.5" fill="#2563eb"/>
  <circle cx="91.09" cy="300.01" r="2.5" fill="#2563eb"/>
  <circle cx="92.20" cy="249.99" r="2.5" fill="#2563eb"/>
  <circle cx="93.30" cy="200.00" r="2.5" fill="#2563eb"/>
  <circle cx="94.41" cy="249.99" r="2.5" fill="#2563eb"/>
  <circle cx="95.52" cy="249.99" r="2.5" fill="#2563eb"/>
  <circle cx="96.63" cy="250.03" r="2.5" fill="#2563eb"/>
  <circle cx="97.74" cy="250.03" r="2.5" fill="#2563eb"/>
  <circle cx="98.85" cy="250.03" r="2.5" fill="#2563eb"/>
  <circle cx="99.96" cy="250.40" r="2.5" fill="#2563eb"/>
  <circle cx="101.07" cy="250.90" r="2.5" fill="#2563eb"/>
  <circle cx="102.18" cy="250.90" r="2.5" fill="#2563eb"/>
  <circle cx="103.29" cy="251.32" r="2.5" fill="#2563eb"/>
  <circle cx="104.40" cy="249.94" r="2.5" fill="#2563eb"/>
  <circle cx="105.51" cy="300.01" r="2.5" fill="#2563eb"/>
  <circle cx="106.62" cy="299.93" r="2.5" fill="#2563eb"/>
  <circle cx="107.73" cy="251.03" r="2.5" fill="#2563eb"/>
  <circle cx="108.84" cy="300.68" r="2.5" fill="#2563eb"/>
  <circle cx="109.95" cy="250.03" r="2.5" fill="#2563eb"/>
  <circle cx="111.06" cy="200.00" r="2.5" fill="#2563eb"/>
  <circle cx="112.17" cy="249.99" r="2.5" fill="#2563eb"/>
  <circle cx="113.28" cy="250.03" r="2.5" fill="#2563eb"/>
  <circle cx="114.39" cy="250.03" r="2.5" fill="#2563eb"/>
  <circle cx="115.50" cy="250.03" r="2.5" fill="#2563eb"/>
  <circle cx="116.61" cy="300.01" r="2.5" fill="#2563eb"/>
  <circle cx="117.72" cy="200.04" r="2.5" fill="#2563eb"/>
  <circle cx="118.83" cy="250.03" r="2.5" fill="#2563eb"/>
  <circle cx="119.94" cy="250.03" r="2.5" fill="#2563eb"/>
  <circle cx="121.05" cy="250.03" r="2.5" fill="#2563eb"/>
  <circle cx="122.16" cy="249.90" r="2.5" fill="#2563eb"/>
  <circle cx="123.27" cy="250.03" r="2.5" fill="#2563eb"/>
  <circle cx="124.38" cy="250.03" r="2.5" fill="#2563eb"/>
  <circle cx="125.49" cy="250.94" r="2.5" fill="#2563eb"/>
  <circle cx="126.60" cy="250.44" r="2.5" fill="#2563eb"/>
  <circle cx="127.71" cy="250.03" r="2.5" fill="#2563eb"/>
  <circle cx="128.82" cy="250.03" r="2.5" fill="#2563eb"/>
  <circle cx="129.93" cy="300.47" r="2.5" fill="#2563eb"/>
  <circle cx="131.04" cy="300.01" r="2.5" fill="#2563eb"/>
  <circle cx="132.15" cy="300.43" r="2.5" fill="#2563eb"/>
  <circle cx="133.26" cy="250.03" r="2.5" fill="#2563eb"/>
  <circle cx="134.37" cy="249.99" r="2.5" fill="#2563eb"/>
  <circle cx="135.48" cy="300.43" r="2.5" fill="#2563eb"/>
  <circle cx="136.59" cy="249.90" r="2.5" fill="#2563eb"/>
  <circle cx="137.70" cy="249.99" r="2.5" fill="#2563eb"/>
  <circle cx="138.80" cy="249.99" r="2.5" fill="#2563eb"/>
  <circle cx="139.91" cy="200.04" r="2.5" fill="#2563eb"/>
  <circle cx="141.02" cy="300.01" r="2.5" fill="#2563eb"/>
  <circle cx="142.13" cy="300.01" r="2.5" fill="#2563eb"/>
  <circle cx="143.24" cy="300.01" r="2.5" fill="#2563eb"/>
  <circle cx="144.35" cy="249.90" r="2.5" fill="#2563eb"/>
  <circle cx="145.46" cy="300.01" r="2.5" fill="#2563eb"/>
  <circle cx="146.57" cy="250.03" r="2.5" fill="#2563eb"/>
  <circle cx="147.68" cy="249.99" r="2.5" fill="#2563eb"/>
  <circle cx="148.79" cy="199.96" r="2.5" fill="#2563eb"/>
  <circle cx="149.90" cy="300.01" r="2.5" fill="#2563eb"/>
  <circle cx="151.01" cy="200.00" r="2.5" fill="#2563eb"/>
  <circle cx="152.12" cy="250.36" r="2.5" fill="#2563eb"/>
  <circle cx="153.23" cy="250.03" r="2.5" fill="#2563eb"/>
  <circle cx="154.34" cy="300.01" r="2.5" fill="#2563eb"/>
  <circle cx="155.45" cy="300.01" r="2.5" fill="#2563eb"/>
  <circle cx="156.56" cy="250.44" r="2.5" fill="#2563eb"/>
  <circle cx="157.67" cy="300.01" r="2.5" fill="#2563eb"/>
  <circle cx="158.78" cy="250.03" r="2.5" fill="#2563eb"/>
  <circle cx="159.89" cy="250.03" r="2.5" fill="#2563eb"/>
  <circle cx="161.00" cy="249.99" r="2.5" fill="#2563eb"/>
  <circle cx="162.11" cy="250.49" r="2.5" fill="#2563eb"/>
  <circle cx="163.22" cy="250.03" r="2.5" fill="#2563eb"/>
  <circle cx="164.33" cy="200.04" r="2.5" fill="#2563eb"/>
  <circle cx="165.44" cy="300.01" r="2.5" fill="#2563eb"/>
  <circle cx="166.55" cy="250.03" r="2.5" fill="#2563eb"/>
  <circle cx="167.66" cy="300.01" r="2.5" fill="#2563eb"/>
  <circle cx="168.77" cy="250.11" r="2.5" fill="#2563eb"/>
  <circle cx="169.88" cy="300.01" r="2.5" fill="#2563eb"/>
  <circle cx="170.99" cy="250.03" r="2.5" fill="#2563eb"/>
  <circle cx="172.10" cy="250.03" r="2.5" fill="#2563eb"/>
  <circle cx="173.21" cy="199.92" r="2.5" fill="#2563eb"/>
  <circle cx="174.32" cy="250.03" r="2.5" fill="#2563eb"/>
  <circle cx="175.43" cy="250.03" r="2.5" fill="#2563eb"/>
  <circle cx="176.54" cy="250.03" r="2.5" fill="#2563eb"/>
  <circle cx="177.65" cy="254.36" r="2.5" fill="#2563eb"/>
  <circle cx="178.76" cy="300.01" r="2.5" fill="#2563eb"/>
  <circle cx="179.87" cy="299.97" r="2.5" fill="#2563eb"/>
  <circle cx="180.98" cy="250.36" r="2.5" fill="#2563eb"/>
  <circle cx="182.09" cy="299.97" r="2.5" fill="#2563eb"/>
  <circle cx="183.20" cy="250.03" r="2.5" fill="#2563eb"/>
  <circle cx="184.30" cy="250.03" r="2.5" fill="#2563eb"/>
  <circle cx="185.41" cy="250.03" r="2.5" fill="#2563eb"/>
  <circle cx="186.52" cy="250.03" r="2.5" fill="#2563eb"/>
  <circle cx="187.63" cy="249.99" r="2.5" fill="#2563eb"/>
  <circle cx="188.74" cy="200.00" r="2.5" fill="#2563eb"/>
  <circle cx="189.85" cy="299.93" r="2.5" fill="#2563eb"/>
  <circle cx="190.96" cy="300.01" r="2.5" fill="#2563eb"/>
  <circle cx="192.07" cy="299.97" r="2.5" fill="#2563eb"/>
  <circle cx="193.18" cy="249.94" r="2.5" fill="#2563eb"/>
  <circle cx="194.29" cy="249.99" r="2.5" fill="#2563eb"/>
  <circle cx="195.40" cy="249.82" r="2.5" fill="#2563eb"/>
  <circle cx="196.51" cy="249.94" r="2.5" fill="#2563eb"/>
  <circle cx="197.62" cy="250.28" r="2.5" fill="#2563eb"/>
  <circle cx="198.73" cy="207.00" r="2.5" fill="#2563eb"/>
  <circle cx="199.84" cy="250.03" r="2.5" fill="#2563eb"/>
  <circle cx="200.95" cy="250.32" r="2.5" fill="#2563eb"/>
  <circle cx="202.06" cy="250.40" r="2.5" fill="#2563eb"/>
  <circle cx="203.17" cy="300.93" r="2.5" fill="#2563eb"/>
  <circle cx="204.28" cy="300.01" r="2.5" fill="#2563eb"/>
  <circle cx="205.39" cy="300.10" r="2.5" fill="#2563eb"/>
  <circle cx="206.50" cy="249.94" r="2.5" fill="#2563eb"/>
  <circle cx="207.61" cy="249.99" r="2.5" fill="#2563eb"/>
  <circle cx="208.72" cy="250.07" r="2.5" fill="#2563eb"/>
  <circle cx="209.83" cy="249.99" r="2.5" fill="#2563eb"/>
  <circle cx="210.94" cy="250.03" r="2.5" fill="#2563eb"/>
  <circle cx="212.05" cy="249.94" r="2.5" fill="#2563eb"/>
  <circle cx="213.16" cy="200.00" r="2.5" fill="#2563eb"/>
  <circle cx="214.27" cy="300.39" r="2.5" fill="#2563eb"/>
  <circle cx="215.38" cy="300.01" r="2.5" fill="#2563eb"/>
  <circle cx="216.49" cy="300.01" r="2.5" fill="#2563eb"/>
  <circle cx="217.60" cy="250.44" r="2.5" fill="#2563eb"/>
  <circle cx="218.71" cy="300.39" r="2.5" fill="#2563eb"/>
  <circle cx="219.82" cy="249.86" r="2.5" fill="#2563eb"/>
  <circle cx="220.93" cy="250.11" r="2.5" fill="#2563eb"/>
  <circle cx="222.04" cy="201.46" r="2.5" fill="#2563eb"/>
  <circle cx="223.15" cy="300.01" r="2.5" fill="#2563eb"/>
  <circle cx="224.26" cy="200.83" r="2.5" fill="#2563eb"/>
  <circle cx="225.37" cy="250.03" r="2.5" fill="#2563eb"/>
  <circle cx="226.48" cy="249.99" r="2.5" fill="#2563eb"/>
  <circle cx="227.59" cy="300.26" r="2.5" fill="#2563eb"/>
  <circle cx="228.70" cy="300.01" r="2.5" fill="#2563eb"/>
  <circle cx="229.80" cy="300.01" r="2.5" fill="#2563eb"/>
  <circle cx="230.91" cy="250.03" r="2.5" fill="#2563eb"/>
  <circle cx="232.02" cy="250.03" r="2.5" fill="#2563eb"/>
  <circle cx="233.13" cy="250.03" r="2.5" fill="#2563eb"/>
  <circle cx="234.24" cy="250.03" r="2.5" fill="#2563eb"/>
  <circle cx="235.35" cy="249.99" r="2.5" fill="#2563eb"/>
  <circle cx="236.46" cy="250.03" r="2.5" fill="#2563eb"/>
  <circle cx="237.57" cy="200.00" r="2.5" fill="#2563eb"/>
  <circle cx="238.68" cy="300.26" r="2.5" fill="#2563eb"/>
  <circle cx="239.79" cy="249.99" r="2.5" fill="#2563eb"/>
  <circle cx="240.90" cy="300.01" r="2.5" fill="#2563eb"/>
  <circle cx="242.01" cy="249.94" r="2.5" fill="#2563eb"/>
  <circle cx="243.12" cy="250.03" r="2.5" fill="#2563eb"/>
  <circle cx="244.23" cy="250.03" r="2.5" fill="#2563eb"/>
  <circle cx="245.34" cy="250.03" r="2.5" fill="#2563eb"/>
  <circle cx="246.45" cy="200.04" r="2.5" fill="#2563eb"/>
  <circle cx="247.56" cy="300.01" r="2.5" fill="#2563eb"/>
  <circle cx="248.67" cy="249.90" r="2.5" fill="#2563eb"/>
  <circle cx="249.78" cy="300.01" r="2.5" fill="#2563eb"/>
  <circle cx="250.89" cy="300.01" r="2.5" fill="#2563eb"/>
  <circle cx="252.00" cy="300.06" r="2.5" fill="#2563eb"/>
  <circle cx="253.11" cy="300.01" r="2.5" fill="#2563eb"/>
  <circle cx="254.22" cy="300.01" r="2.5" fill="#2563eb"/>
  <circle cx="255.33" cy="243.95" r="2.5" fill="#2563eb"/>
  <circle cx="256.44" cy="249.94" r="2.5" fill="#2563eb"/>
  <circle cx="257.55" cy="299.97" r="2.5" fill="#2563eb"/>
  <circle cx="258.66" cy="300.01" r="2.5" fill="#2563eb"/>
  <circle cx="259.77" cy="300.01" r="2.5" fill="#2563eb"/>
  <circle cx="260.88" cy="250.03" r="2.5" fill="#2563eb"/>
  <circle cx="261.99" cy="300.01" r="2.5" fill="#2563eb"/>
  <circle cx="263.10" cy="300.01" r="2.5" fill="#2563eb"/>
  <circle cx="264.21" cy="299.97" r="2.5" fill="#2563eb"/>
  <circle cx="265.32" cy="249.99" r="2.5" fill="#2563eb"/>
  <circle cx="266.43" cy="300.01" r="2.5" fill="#2563eb"/>
  <circle cx="267.54" cy="299.93" r="2.5" fill="#2563eb"/>
  <circle cx="268.65" cy="300.01" r="2.5" fill="#2563eb"/>
  <circle cx="269.76" cy="299.93" r="2.5" fill="#2563eb"/>
  <circle cx="270.87" cy="300.01" r="2.5" fill="#2563eb"/>
  <circle cx="271.98" cy="300.01" r="2.5" fill="#2563eb"/>
  <circle cx="273.09" cy="299.89" r="2.5" fill="#2563eb"/>
  <circle cx="274.20" cy="299.97" r="2.5" fill="#2563eb"/>
  <circle cx="275.30" cy="250.03" r="2.5" fill="#2563eb"/>
  <circle cx="276.41" cy="299.93" r="2.5" fill="#2563eb"/>
  <circle cx="277.52" cy="299.89" r="2.5" fill="#2563eb"/>
  <circle cx="278.63" cy="299.97" r="2.5" fill="#2563eb"/>
  <circle cx="279.74" cy="249.94" r="2.5" fill="#2563eb"/>
  <circle cx="280.85" cy="300.01" r="2.5" fill="#2563eb"/>
  <circle cx="281.96" cy="300.01" r="2.5" fill="#2563eb"/>
  <circle cx="283.07" cy="299.97" r="2.5" fill="#2563eb"/>
  <circle cx="284.18" cy="249.99" r="2.5" fill="#2563eb"/>
  <circle cx="285.29" cy="299.97" r="2.5" fill="#2563eb"/>
  <circle cx="286.40" cy="299.97" r="2.5" fill="#2563eb"/>
  <circle cx="287.51" cy="300.06" r="2.5" fill="#2563eb"/>
  <circle cx="288.62" cy="300.06" r="2.5" fill="#2563eb"/>
  <circle cx="289.73" cy="299.93" r="2.5" fill="#2563eb"/>
  <circle cx="290.84" cy="300.01" r="2.5" fill="#2563eb"/>
  <circle cx="291.95" cy="300.01" r="2.5" fill="#2563eb"/>
  <circle cx="293.06" cy="299.93" r="2.5" fill="#2563eb"/>
  <circle cx="294.17" cy="300.01" r="2.5" fill="#2563eb"/>
  <circle cx="295.28" cy="300.01" r="2.5" fill="#2563eb"/>
  <circle cx="296.39" cy="299.97" r="2.5" fill="#2563eb"/>
  <circle cx="297.50" cy="300.01" r="2.5" fill="#2563eb"/>
  <circle cx="298.61" cy="300.01" r="2.5" fill="#2563eb"/>
  <circle cx="299.72" cy="300.01" r="2.5" fill="#2563eb"/>
  <circle cx="300.83" cy="300.01" r="2.5" fill="#2563eb"/>
  <circle cx="301.94" cy="249.86" r="2.5" fill="#2563eb"/>
  <circle cx="303.05" cy="300.01" r="2.5" fill="#2563eb"/>
  <circle cx="304.16" cy="300.10" r="2.5" fill="#2563eb"/>
  <circle cx="305.27" cy="299.93" r="2.5" fill="#2563eb"/>
  <circle cx="306.38" cy="300.01" r="2.5" fill="#2563eb"/>
  <circle cx="307.49" cy="299.93" r="2.5" fill="#2563eb"/>
  <circle cx="308.60" cy="300.01" r="2.5" fill="#2563eb"/>
  <circle cx="309.71" cy="300.01" r="2.5" fill="#2563eb"/>
  <circle cx="310.82" cy="300.01" r="2.5" fill="#2563eb"/>
  <circle cx="311.93" cy="300.01" r="2.5" fill="#2563eb"/>
  <circle cx="313.04" cy="300.01" r="2.5" fill="#2563eb"/>
  <circle cx="314.15" cy="299.97" r="2.5" fill="#2563eb"/>
  <circle cx="315.26" cy="300.01" r="2.5" fill="#2563eb"/>
  <circle cx="316.37" cy="300.01" r="2.5" fill="#2563eb"/>
  <circle cx="317.48" cy="300.01" r="2.5" fill="#2563eb"/>
  <circle cx="318.59" cy="300.01" r="2.5" fill="#2563eb"/>
  <circle cx="319.70" cy="250.03" r="2.5" fill="#2563eb"/>
  <circle cx="320.80" cy="300.01" r="2.5" fill="#2563eb"/>
  <circle cx="321.91" cy="300.01" r="2.5" fill="#2563eb"/>
  <circle cx="323.02" cy="299.97" r="2.5" fill="#2563eb"/>
  <circle cx="324.13" cy="300.01" r="2.5" fill="#2563eb"/>
  <circle cx="325.24" cy="300.01" r="2.5" fill="#2563eb"/>
  <circle cx="326.35" cy="299.97" r="2.5" fill="#2563eb"/>
  <circle cx="327.46" cy="299.97" r="2.5" fill="#2563eb"/>
  <circle cx="328.57" cy="300.01" r="2.5" fill="#2563eb"/>
  <circle cx="329.68" cy="299.97" r="2.5" fill="#2563eb"/>
  <circle cx="330.79" cy="300.01" r="2.5" fill="#2563eb"/>
  <circle cx="331.90" cy="299.93" r="2.5" fill="#2563eb"/>
  <circle cx="333.01" cy="300.01" r="2.5" fill="#2563eb"/>
  <circle cx="334.12" cy="250.03" r="2.5" fill="#2563eb"/>
  <circle cx="335.23" cy="300.01" r="2.5" fill="#2563eb"/>
  <circle cx="336.34" cy="300.01" r="2.5" fill="#2563eb"/>
  <circle cx="337.45" cy="300.01" r="2.5" fill="#2563eb"/>
  <circle cx="338.56" cy="300.01" r="2.5" fill="#2563eb"/>
  <circle cx="339.67" cy="300.01" r="2.5" fill="#2563eb"/>
  <circle cx="340.78" cy="299.89" r="2.5" fill="#2563eb"/>
  <circle cx="341.89" cy="300.01" r="2.5" fill="#2563eb"/>
  <circle cx="343.00" cy="300.01" r="2.5" fill="#2563eb"/>
  <circle cx="344.11" cy="250.07" r="2.5" fill="#2563eb"/>
  <circle cx="345.22" cy="300.01" r="2.5" fill="#2563eb"/>
  <circle cx="346.33" cy="299.93" r="2.5" fill="#2563eb"/>
  <circle cx="347.44" cy="300.01" r="2.5" fill="#2563eb"/>
  <circle cx="348.55" cy="299.97" r="2.5" fill="#2563eb"/>
  <circle cx="349.66" cy="299.97" r="2.5" fill="#2563eb"/>
  <circle cx="350.77" cy="299.97" r="2.5" fill="#2563eb"/>
  <circle cx="351.88" cy="250.03" r="2.5" fill="#2563eb"/>
  <circle cx="352.99" cy="300.01" r="2.5" fill="#2563eb"/>
  <circle cx="354.10" cy="300.01" r="2.5" fill="#2563eb"/>
  <circle cx="355.21" cy="300.01" r="2.5" fill="#2563eb"/>
  <circle cx="356.32" cy="300.01" r="2.5" fill="#2563eb"/>
  <circle cx="357.43" cy="299.97" r="2.5" fill="#2563eb"/>
  <circle cx="358.54" cy="300.01" r="2.5" fill="#2563eb"/>
  <circle cx="359.65" cy="299.97" r="2.5" fill="#2563eb"/>
  <circle cx="360.76" cy="300.01" r="2.5" fill="#2563eb"/>
  <circle cx="361.87" cy="299.97" r="2.5" fill="#2563eb"/>
  <circle cx="362.98" cy="249.90" r="2.5" fill="#2563eb"/>
  <circle cx="364.09" cy="300.01" r="2.5" fill="#2563eb"/>
  <circle cx="365.20" cy="300.01" r="2.5" fill="#2563eb"/>
  <circle cx="366.30" cy="299.89" r="2.5" fill="#2563eb"/>
  <circle cx="367.41" cy="299.97" r="2.5" fill="#2563eb"/>
  <circle cx="368.52" cy="299.97" r="2.5" fill="#2563eb"/>
  <circle cx="369.63" cy="249.99" r="2.5" fill="#2563eb"/>
  <circle cx="370.74" cy="299.97" r="2.5" fill="#2563eb"/>
  <circle cx="371.85" cy="299.89" r="2.5" fill="#2563eb"/>
  <circle cx="372.96" cy="300.01" r="2.5" fill="#2563eb"/>
  <circle cx="374.07" cy="299.97" r="2.5" fill="#2563eb"/>
  <circle cx="375.18" cy="299.97" r="2.5" fill="#2563eb"/>
  <circle cx="376.29" cy="300.01" r="2.5" fill="#2563eb"/>
  <circle cx="377.40" cy="299.97" r="2.5" fill="#2563eb"/>
  <circle cx="378.51" cy="249.99" r="2.5" fill="#2563eb"/>
  <circle cx="379.62" cy="299.97" r="2.5" fill="#2563eb"/>
  <circle cx="380.73" cy="299.97" r="2.5" fill="#2563eb"/>
  <circle cx="381.84" cy="300.06" r="2.5" fill="#2563eb"/>
  <circle cx="382.95" cy="300.06" r="2.5" fill="#2563eb"/>
  <circle cx="384.06" cy="249.94" r="2.5" fill="#2563eb"/>
  <circle cx="385.17" cy="300.01" r="2.5" fill="#2563eb"/>
  <circle cx="386.28" cy="299.93" r="2.5" fill="#2563eb"/>
  <circle cx="387.39" cy="300.01" r="2.5" fill="#2563eb"/>
  <circle cx="388.50" cy="300.01" r="2.5" fill="#2563eb"/>
  <circle cx="389.61" cy="249.99" r="2.5" fill="#2563eb"/>
  <circle cx="390.72" cy="300.01" r="2.5" fill="#2563eb"/>
  <circle cx="391.83" cy="300.01" r="2.5" fill="#2563eb"/>
  <circle cx="392.94" cy="300.01" r="2.5" fill="#2563eb"/>
  <circle cx="394.05" cy="299.93" r="2.5" fill="#2563eb"/>
  <circle cx="395.16" cy="299.93" r="2.5" fill="#2563eb"/>
  <circle cx="396.27" cy="300.01" r="2.5" fill="#2563eb"/>
  <circle cx="397.38" cy="300.01" r="2.5" fill="#2563eb"/>
  <circle cx="398.49" cy="249.94" r="2.5" fill="#2563eb"/>
  <circle cx="399.60" cy="299.97" r="2.5" fill="#2563eb"/>
  <circle cx="400.71" cy="299.97" r="2.5" fill="#2563eb"/>
  <circle cx="401.82" cy="300.01" r="2.5" fill="#2563eb"/>
  <circle cx="402.93" cy="300.01" r="2.5" fill="#2563eb"/>
  <circle cx="404.04" cy="300.01" r="2.5" fill="#2563eb"/>
  <circle cx="405.15" cy="249.99" r="2.5" fill="#2563eb"/>
  <circle cx="406.26" cy="300.01" r="2.5" fill="#2563eb"/>
  <circle cx="407.37" cy="300.01" r="2.5" fill="#2563eb"/>
  <circle cx="408.48" cy="300.01" r="2.5" fill="#2563eb"/>
  <circle cx="409.59" cy="250.03" r="2.5" fill="#2563eb"/>
  <circle cx="410.70" cy="300.01" r="2.5" fill="#2563eb"/>
  <circle cx="411.80" cy="300.01" r="2.5" fill="#2563eb"/>
  <circle cx="412.91" cy="300.01" r="2.5" fill="#2563eb"/>
  <circle cx="414.02" cy="299.97" r="2.5" fill="#2563eb"/>
  <circle cx="415.13" cy="300.01" r="2.5" fill="#2563eb"/>
  <circle cx="416.24" cy="300.01" r="2.5" fill="#2563eb"/>
  <circle cx="417.35" cy="299.97" r="2.5" fill="#2563eb"/>
  <circle cx="418.46" cy="299.97" r="2.5" fill="#2563eb"/>
  <circle cx="419.57" cy="300.01" r="2.5" fill="#2563eb"/>
  <circle cx="420.68" cy="300.01" r="2.5" fill="#2563eb"/>
  <circle cx="421.79" cy="299.97" r="2.5" fill="#2563eb"/>
  <circle cx="422.90" cy="299.93" r="2.5" fill="#2563eb"/>
  <circle cx="424.01" cy="300.01" r="2.5" fill="#2563eb"/>
  <circle cx="425.12" cy="300.06" r="2.5" fill="#2563eb"/>
  <circle cx="426.23" cy="299.97" r="2.5" fill="#2563eb"/>
  <circle cx="427.34" cy="300.01" r="2.5" fill="#2563eb"/>
  <circle cx="428.45" cy="250.03" r="2.5" fill="#2563eb"/>
  <circle cx="429.56" cy="250.03" r="2.5" fill="#2563eb"/>
  <circle cx="430.67" cy="299.93" r="2.5" fill="#2563eb"/>
  <circle cx="431.78" cy="299.97" r="2.5" fill="#2563eb"/>
  <circle cx="432.89" cy="300.01" r="2.5" fill="#2563eb"/>
  <circle cx="434.00" cy="300.01" r="2.5" fill="#2563eb"/>
  <circle cx="435.11" cy="300.06" r="2.5" fill="#2563eb"/>
  <circle cx="436.22" cy="300.01" r="2.5" fill="#2563eb"/>
  <circle cx="437.33" cy="299.93" r="2.5" fill="#2563eb"/>
  <circle cx="438.44" cy="300.01" r="2.5" fill="#2563eb"/>
  <circle cx="439.55" cy="300.01" r="2.5" fill="#2563eb"/>
  <circle cx="440.66" cy="299.97" r="2.5" fill="#2563eb"/>
  <circle cx="441.77" cy="299.97" r="2.5" fill="#2563eb"/>
  <circle cx="442.88" cy="300.01" r="2.5" fill="#2563eb"/>
  <circle cx="443.99" cy="250.03" r="2.5" fill="#2563eb"/>
  <circle cx="445.10" cy="300.01" r="2.5" fill="#2563eb"/>
  <circle cx="446.21" cy="300.01" r="2.5" fill="#2563eb"/>
  <circle cx="447.32" cy="300.01" r="2.5" fill="#2563eb"/>
  <circle cx="448.43" cy="299.97" r="2.5" fill="#2563eb"/>
  <circle cx="449.54" cy="300.01" r="2.5" fill="#2563eb"/>
  <circle cx="450.65" cy="299.97" r="2.5" fill="#2563eb"/>
  <circle cx="451.76" cy="300.01" r="2.5" fill="#2563eb"/>
  <circle cx="452.87" cy="299.97" r="2.5" fill="#2563eb"/>
  <circle cx="453.98" cy="299.97" r="2.5" fill="#2563eb"/>
  <circle cx="455.09" cy="299.93" r="2.5" fill="#2563eb"/>
  <circle cx="456.20" cy="300.01" r="2.5" fill="#2563eb"/>
  <circle cx="457.30" cy="300.01" r="2.5" fill="#2563eb"/>
  <circle cx="458.41" cy="299.89" r="2.5" fill="#2563eb"/>
  <circle cx="459.52" cy="299.97" r="2.5" fill="#2563eb"/>
  <circle cx="460.63" cy="299.97" r="2.5" fill="#2563eb"/>
  <circle cx="461.74" cy="300.06" r="2.5" fill="#2563eb"/>
  <circle cx="462.85" cy="249.90" r="2.5" fill="#2563eb"/>
  <circle cx="463.96" cy="299.89" r="2.5" fill="#2563eb"/>
  <circle cx="465.07" cy="300.01" r="2.5" fill="#2563eb"/>
  <circle cx="466.18" cy="299.97" r="2.5" fill="#2563eb"/>
  <circle cx="467.29" cy="299.97" r="2.5" fill="#2563eb"/>
  <circle cx="468.40" cy="299.97" r="2.5" fill="#2563eb"/>
  <circle cx="469.51" cy="300.01" r="2.5" fill="#2563eb"/>
  <circle cx="470.62" cy="300.01" r="2.5" fill="#2563eb"/>
  <circle cx="471.73" cy="299.97" r="2.5" fill="#2563eb"/>
  <circle cx="472.84" cy="299.97" r="2.5" fill="#2563eb"/>
  <circle cx="473.95" cy="299.97" r="2.5" fill="#2563eb"/>
  <circle cx="475.06" cy="250.03" r="2.5" fill="#2563eb"/>
  <circle cx="476.17" cy="299.93" r="2.5" fill="#2563eb"/>
  <circle cx="477.28" cy="300.01" r="2.5" fill="#2563eb"/>
  <circle cx="478.39" cy="300.01" r="2.5" fill="#2563eb"/>
  <circle cx="479.50" cy="299.93" r="2.5" fill="#2563eb"/>
  <circle cx="480.61" cy="300.01" r="2.5" fill="#2563eb"/>
  <circle cx="481.72" cy="300.01" r="2.5" fill="#2563eb"/>
  <circle cx="482.83" cy="299.97" r="2.5" fill="#2563eb"/>
  <circle cx="483.94" cy="300.01" r="2.5" fill="#2563eb"/>
  <circle cx="485.05" cy="300.01" r="2.5" fill="#2563eb"/>
  <circle cx="486.16" cy="300.06" r="2.5" fill="#2563eb"/>
  <circle cx="487.27" cy="300.01" r="2.5" fill="#2563eb"/>
  <circle cx="488.38" cy="299.97" r="2.5" fill="#2563eb"/>
  <circle cx="489.49" cy="299.89" r="2.5" fill="#2563eb"/>
  <circle cx="490.60" cy="300.01" r="2.5" fill="#2563eb"/>
  <circle cx="491.71" cy="300.01" r="2.5" fill="#2563eb"/>
  <circle cx="492.82" cy="249.94" r="2.5" fill="#2563eb"/>
  <circle cx="493.93" cy="249.94" r="2.5" fill="#2563eb"/>
  <circle cx="495.04" cy="300.01" r="2.5" fill="#2563eb"/>
  <circle cx="496.15" cy="300.01" r="2.5" fill="#2563eb"/>
  <circle cx="497.26" cy="300.01" r="2.5" fill="#2563eb"/>
  <circle cx="498.37" cy="300.01" r="2.5" fill="#2563eb"/>
  <circle cx="499.48" cy="299.97" r="2.5" fill="#2563eb"/>
  <circle cx="500.59" cy="250.03" r="2.5" fill="#2563eb"/>
  <circle cx="501.70" cy="300.01" r="2.5" fill="#2563eb"/>
  <circle cx="502.80" cy="300.01" r="2.5" fill="#2563eb"/>
  <circle cx="503.91" cy="300.01" r="2.5" fill="#2563eb"/>
  <circle cx="505.02" cy="300.01" r="2.5" fill="#2563eb"/>
  <circle cx="506.13" cy="250.03" r="2.5" fill="#2563eb"/>
  <circle cx="507.24" cy="249.99" r="2.5" fill="#2563eb"/>
  <circle cx="508.35" cy="300.01" r="2.5" fill="#2563eb"/>
  <circle cx="509.46" cy="299.97" r="2.5" fill="#2563eb"/>
  <circle cx="510.57" cy="300.01" r="2.5" fill="#2563eb"/>
  <circle cx="511.68" cy="299.97" r="2.5" fill="#2563eb"/>
  <circle cx="512.79" cy="300.01" r="2.5" fill="#2563eb"/>
  <circle cx="513.90" cy="299.97" r="2.5" fill="#2563eb"/>
  <circle cx="515.01" cy="299.97" r="2.5" fill="#2563eb"/>
  <circle cx="516.12" cy="299.97" r="2.5" fill="#2563eb"/>
  <circle cx="517.23" cy="300.06" r="2.5" fill="#2563eb"/>
  <circle cx="518.34" cy="249.99" r="2.5" fill="#2563eb"/>
  <circle cx="519.45" cy="300.01" r="2.5" fill="#2563eb"/>
  <circle cx="520.56" cy="250.03" r="2.5" fill="#2563eb"/>
  <circle cx="521.67" cy="249.94" r="2.5" fill="#2563eb"/>
  <circle cx="522.78" cy="249.99" r="2.5" fill="#2563eb"/>
  <circle cx="523.89" cy="300.01" r="2.5" fill="#2563eb"/>
  <circle cx="525.00" cy="300.06" r="2.5" fill="#2563eb"/>
  <circle cx="526.11" cy="300.01" r="2.5" fill="#2563eb"/>
  <circle cx="527.22" cy="299.97" r="2.5" fill="#2563eb"/>
  <circle cx="528.33" cy="299.97" r="2.5" fill="#2563eb"/>
  <circle cx="529.44" cy="300.01" r="2.5" fill="#2563eb"/>
  <circle cx="530.55" cy="299.93" r="2.5" fill="#2563eb"/>
  <circle cx="531.66" cy="299.89" r="2.5" fill="#2563eb"/>
  <circle cx="532.77" cy="299.89" r="2.5" fill="#2563eb"/>
  <circle cx="533.88" cy="299.89" r="2.5" fill="#2563eb"/>
  <circle cx="534.99" cy="299.89" r="2.5" fill="#2563eb"/>
  <circle cx="536.10" cy="299.85" r="2.5" fill="#2563eb"/>
  <circle cx="537.21" cy="299.85" r="2.5" fill="#2563eb"/>
  <circle cx="538.32" cy="299.89" r="2.5" fill="#2563eb"/>
  <circle cx="539.43" cy="299.81" r="2.5" fill="#2563eb"/>
  <circle cx="540.54" cy="299.81" r="2.5" fill="#2563eb"/>
  <circle cx="541.65" cy="299.81" r="2.5" fill="#2563eb"/>
  <circle cx="542.76" cy="299.76" r="2.5" fill="#2563eb"/>
  <circle cx="543.87" cy="299.76" r="2.5" fill="#2563eb"/>
  <circle cx="544.98" cy="299.76" r="2.5" fill="#2563eb"/>
  <circle cx="546.09" cy="299.72" r="2.5" fill="#2563eb"/>
  <circle cx="547.20" cy="299.68" r="2.5" fill="#2563eb"/>
  <circle cx="548.30" cy="299.60" r="2.5" fill="#2563eb"/>
  <circle cx="549.41" cy="299.60" r="2.5" fill="#2563eb"/>
  <circle cx="550.52" cy="299.60" r="2.5" fill="#2563eb"/>
  <circle cx="551.63" cy="299.56" r="2.5" fill="#2563eb"/>
  <circle cx="552.74" cy="299.47" r="2.5" fill="#2563eb"/>
  <circle cx="553.85" cy="299.43" r="2.5" fill="#2563eb"/>
  <circle cx="554.96" cy="299.43" r="2.5" fill="#2563eb"/>
  <circle cx="556.07" cy="299.39" r="2.5" fill="#2563eb"/>
  <circle cx="557.18" cy="299.47" r="2.5" fill="#2563eb"/>
  <circle cx="558.29" cy="259.82" r="2.5" fill="#2563eb"/>
  <circle cx="559.40" cy="338.96" r="2.5" fill="#2563eb"/>
  <circle cx="560.51" cy="299.31" r="2.5" fill="#2563eb"/>
  <circle cx="561.62" cy="299.31" r="2.5" fill="#2563eb"/>
  <circle cx="562.73" cy="299.26" r="2.5" fill="#2563eb"/>
  <circle cx="563.84" cy="299.68" r="2.5" fill="#2563eb"/>
  <circle cx="564.95" cy="299.68" r="2.5" fill="#2563eb"/>
  <circle cx="566.06" cy="299.68" r="2.5" fill="#2563eb"/>
  <circle cx="567.17" cy="299.64" r="2.5" fill="#2563eb"/>
  <circle cx="568.28" cy="299.14" r="2.5" fill="#2563eb"/>
  <circle cx="569.39" cy="299.14" r="2.5" fill="#2563eb"/>
  <circle cx="570.50" cy="299.10" r="2.5" fill="#2563eb"/>
  <circle cx="571.61" cy="299.10" r="2.5" fill="#2563eb"/>
  <circle cx="572.72" cy="299.10" r="2.5" fill="#2563eb"/>
  <circle cx="573.83" cy="248.07" r="2.5" fill="#2563eb"/>
  <circle cx="574.94" cy="299.06" r="2.5" fill="#2563eb"/>
  <circle cx="576.05" cy="299.06" r="2.5" fill="#2563eb"/>
  <circle cx="577.16" cy="299.06" r="2.5" fill="#2563eb"/>
  <circle cx="578.27" cy="299.06" r="2.5" fill="#2563eb"/>
  <circle cx="579.38" cy="299.06" r="2.5" fill="#2563eb"/>
  <circle cx="580.49" cy="298.97" r="2.5" fill="#2563eb"/>
  <circle cx="581.60" cy="298.97" r="2.5" fill="#2563eb"/>
  <circle cx="582.71" cy="298.93" r="2.5" fill="#2563eb"/>
  <circle cx="583.82" cy="298.97" r="2.5" fill="#2563eb"/>
  <circle cx="584.93" cy="298.93" r="2.5" fill="#2563eb"/>
  <circle cx="586.04" cy="298.89" r="2.5" fill="#2563eb"/>
  <circle cx="587.15" cy="298.89" r="2.5" fill="#2563eb"/>
  <circle cx="588.26" cy="298.89" r="2.5" fill="#2563eb"/>
  <circle cx="589.37" cy="298.89" r="2.5" fill="#2563eb"/>
  <circle cx="590.48" cy="247.78" r="2.5" fill="#2563eb"/>
  <circle cx="591.59" cy="298.89" r="2.5" fill="#2563eb"/>
  <circle cx="592.70" cy="298.89" r="2.5" fill="#2563eb"/>
  <circle cx="593.80" cy="298.85" r="2.5" fill="#2563eb"/>
  <circle cx="594.91" cy="298.85" r="2.5" fill="#2563eb"/>
  <circle cx="596.02" cy="298.81" r="2.5" fill="#2563eb"/>
  <circle cx="597.13" cy="298.81" r="2.5" fill="#2563eb"/>
  <circle cx="598.24" cy="298.81" r="2.5" fill="#2563eb"/>
  <circle cx="599.35" cy="298.81" r="2.5" fill="#2563eb"/>
  <circle cx="600.46" cy="298.81" r="2.5" fill="#2563eb"/>
  <circle cx="601.57" cy="298.81" r="2.5" fill="#2563eb"/>
  <circle cx="602.68" cy="298.81" r="2.5" fill="#2563eb"/>
  <circle cx="603.79" cy="298.81" r="2.5" fill="#2563eb"/>
  <circle cx="604.90" cy="298.81" r="2.5" fill="#2563eb"/>
  <circle cx="606.01" cy="298.72" r="2.5" fill="#2563eb"/>
  <circle cx="607.12" cy="247.45" r="2.5" fill="#2563eb"/>
  <circle cx="608.23" cy="247.45" r="2.5" fill="#2563eb"/>
  <circle cx="609.34" cy="298.72" r="2.5" fill="#2563eb"/>
  <circle cx="610.45" cy="298.72" r="2.5" fill="#2563eb"/>
  <circle cx="611.56" cy="298.72" r="2.5" fill="#2563eb"/>
  <circle cx="612.67" cy="298.72" r="2.5" fill="#2563eb"/>
  <circle cx="613.78" cy="298.72" r="2.5" fill="#2563eb"/>
  <circle cx="614.89" cy="298.72" r="2.5" fill="#2563eb"/>
  <circle cx="616.00" cy="247.36" r="2.5" fill="#2563eb"/>
  <circle cx="617.11" cy="298.68" r="2.5" fill="#2563eb"/>
  <circle cx="618.22" cy="247.36" r="2.5" fill="#2563eb"/>
  <circle cx="619.33" cy="247.36" r="2.5" fill="#2563eb"/>
  <circle cx="620.44" cy="247.36" r="2.5" fill="#2563eb"/>
  <circle cx="621.55" cy="298.68" r="2.5" fill="#2563eb"/>
  <circle cx="622.66" cy="298.68" r="2.5" fill="#2563eb"/>
  <circle cx="623.77" cy="298.68" r="2.5" fill="#2563eb"/>
  <circle cx="624.88" cy="298.68" r="2.5" fill="#2563eb"/>
  <circle cx="625.99" cy="298.68" r="2.5" fill="#2563eb"/>
  <circle cx="627.10" cy="341.67" r="2.5" fill="#2563eb"/>
  <circle cx="628.21" cy="307.01" r="2.5" fill="#2563eb"/>
  <circle cx="629.32" cy="298.68" r="2.5" fill="#2563eb"/>
  <circle cx="630.43" cy="298.68" r="2.5" fill="#2563eb"/>
  <circle cx="631.54" cy="298.68" r="2.5" fill="#2563eb"/>
  <circle cx="632.65" cy="247.36" r="2.5" fill="#2563eb"/>
  <circle cx="633.76" cy="298.64" r="2.5" fill="#2563eb"/>
  <circle cx="634.87" cy="247.36" r="2.5" fill="#2563eb"/>
  <circle cx="635.98" cy="247.28" r="2.5" fill="#2563eb"/>
  <circle cx="637.09" cy="247.20" r="2.5" fill="#2563eb"/>
  <circle cx="638.20" cy="298.60" r="2.5" fill="#2563eb"/>
  <circle cx="639.30" cy="298.60" r="2.5" fill="#2563eb"/>
  <circle cx="640.41" cy="247.03" r="2.5" fill="#2563eb"/>
  <circle cx="641.52" cy="298.51" r="2.5" fill="#2563eb"/>
  <circle cx="642.63" cy="298.51" r="2.5" fill="#2563eb"/>
  <circle cx="643.74" cy="298.51" r="2.5" fill="#2563eb"/>
  <circle cx="644.85" cy="298.51" r="2.5" fill="#2563eb"/>
  <circle cx="645.96" cy="298.51" r="2.5" fill="#2563eb"/>
  <circle cx="647.07" cy="298.51" r="2.5" fill="#2563eb"/>
  <circle cx="648.18" cy="298.51" r="2.5" fill="#2563eb"/>
  <circle cx="649.29" cy="298.51" r="2.5" fill="#2563eb"/>
  <circle cx="650.40" cy="298.51" r="2.5" fill="#2563eb"/>
  <circle cx="651.51" cy="298.51" r="2.5" fill="#2563eb"/>
  <circle cx="652.62" cy="298.51" r="2.5" fill="#2563eb"/>
  <circle cx="653.73" cy="298.51" r="2.5" fill="#2563eb"/>
  <circle cx="654.84" cy="298.51" r="2.5" fill="#2563eb"/>
  <circle cx="655.95" cy="298.51" r="2.5" fill="#2563eb"/>
  <circle cx="657.06" cy="298.51" r="2.5" fill="#2563eb"/>
  <circle cx="658.17" cy="298.51" r="2.5" fill="#2563eb"/>
  <circle cx="659.28" cy="298.51" r="2.5" fill="#2563eb"/>
  <circle cx="660.39" cy="298.51" r="2.5" fill="#2563eb"/>
  <circle cx="661.50" cy="298.51" r="2.5" fill="#2563eb"/>
  <circle cx="662.61" cy="298.51" r="2.5" fill="#2563eb"/>
  <circle cx="663.72" cy="298.51" r="2.5" fill="#2563eb"/>
  <circle cx="664.83" cy="298.51" r="2.5" fill="#2563eb"/>
  <circle cx="665.94" cy="298.51" r="2.5" fill="#2563eb"/>
  <circle cx="667.05" cy="298.51" r="2.5" fill="#2563eb"/>
  <circle cx="668.16" cy="298.51" r="2.5" fill="#2563eb"/>
  <circle cx="669.27" cy="298.51" r="2.5" fill="#2563eb"/>
  <circle cx="670.38" cy="298.47" r="2.5" fill="#2563eb"/>
  <circle cx="671.49" cy="298.51" r="2.5" fill="#2563eb"/>
  <circle cx="672.60" cy="298.51" r="2.5" fill="#2563eb"/>
  <circle cx="673.71" cy="298.47" r="2.5" fill="#2563eb"/>
  <circle cx="674.82" cy="298.51" r="2.5" fill="#2563eb"/>
  <circle cx="675.93" cy="298.47" r="2.5" fill="#2563eb"/>
  <circle cx="677.04" cy="298.51" r="2.5" fill="#2563eb"/>
  <circle cx="678.15" cy="298.43" r="2.5" fill="#2563eb"/>
  <circle cx="679.26" cy="298.56" r="2.5" fill="#2563eb"/>
  <circle cx="680.37" cy="298.43" r="2.5" fill="#2563eb"/>
  <circle cx="681.48" cy="298.43" r="2.5" fill="#2563eb"/>
  <circle cx="682.59" cy="298.43" r="2.5" fill="#2563eb"/>
  <circle cx="683.70" cy="298.43" r="2.5" fill="#2563eb"/>
  <circle cx="684.80" cy="298.43" r="2.5" fill="#2563eb"/>
  <circle cx="685.91" cy="298.43" r="2.5" fill="#2563eb"/>
  <circle cx="687.02" cy="298.43" r="2.5" fill="#2563eb"/>
  <circle cx="688.13" cy="298.43" r="2.5" fill="#2563eb"/>
  <circle cx="689.24" cy="298.43" r="2.5" fill="#2563eb"/>
  <circle cx="690.35" cy="298.43" r="2.5" fill="#2563eb"/>
  <circle cx="691.46" cy="298.43" r="2.5" fill="#2563eb"/>
  <circle cx="692.57" cy="298.43" r="2.5" fill="#2563eb"/>
  <circle cx="693.68" cy="298.43" r="2.5" fill="#2563eb"/>
  <circle cx="694.79" cy="298.43" r="2.5" fill="#2563eb"/>
  <circle cx="695.90" cy="298.43" r="2.5" fill="#2563eb"/>
  <circle cx="697.01" cy="298.43" r="2.5" fill="#2563eb"/>
  <circle cx="698.12" cy="298.43" r="2.5" fill="#2563eb"/>
  <circle cx="699.23" cy="298.43" r="2.5" fill="#2563eb"/>
  <circle cx="700.34" cy="298.43" r="2.5" fill="#2563eb"/>
  <circle cx="701.45" cy="298.43" r="2.5" fill="#2563eb"/>
  <circle cx="702.56" cy="298.43" r="2.5" fill="#2563eb"/>
  <circle cx="703.67" cy="298.43" r="2.5" fill="#2563eb"/>
  <circle cx="704.78" cy="298.43" r="2.5" fill="#2563eb"/>
  <circle cx="705.89" cy="298.43" r="2.5" fill="#2563eb"/>
  <circle cx="707.00" cy="298.43" r="2.5" fill="#2563eb"/>
  <circle cx="708.11" cy="298.43" r="2.5" fill="#2563eb"/>
  <circle cx="709.22" cy="298.43" r="2.5" fill="#2563eb"/>
  <circle cx="710.33" cy="298.43" r="2.5" fill="#2563eb"/>
  <circle cx="711.44" cy="298.43" r="2.5" fill="#2563eb"/>
  <circle cx="712.55" cy="298.43" r="2.5" fill="#2563eb"/>
  <circle cx="713.66" cy="298.43" r="2.5" fill="#2563eb"/>
  <circle cx="714.77" cy="298.43" r="2.5" fill="#2563eb"/>
  <circle cx="715.88" cy="298.43" r="2.5" fill="#2563eb"/>
  <circle cx="716.99" cy="298.43" r="2.5" fill="#2563eb"/>
  <circle cx="718.10" cy="298.39" r="2.5" fill="#2563eb"/>
  <circle cx="719.21" cy="298.39" r="2.5" fill="#2563eb"/>
  <circle cx="720.32" cy="298.43" r="2.5" fill="#2563eb"/>
  <circle cx="721.43" cy="298.43" r="2.5" fill="#2563eb"/>
  <circle cx="722.54" cy="298.39" r="2.5" fill="#2563eb"/>
  <circle cx="723.65" cy="298.39" r="2.5" fill="#2563eb"/>
  <circle cx="724.76" cy="298.39" r="2.5" fill="#2563eb"/>
  <circle cx="725.87" cy="298.43" r="2.5" fill="#2563eb"/>
  <circle cx="726.98" cy="298.43" r="2.5" fill="#2563eb"/>
  <circle cx="728.09" cy="298.43" r="2.5" fill="#2563eb"/>
  <circle cx="729.20" cy="246.82" r="2.5" fill="#2563eb"/>
  <circle cx="730.30" cy="298.43" r="2.5" fill="#2563eb"/>
  <circle cx="731.41" cy="246.78" r="2.5" fill="#2563eb"/>
  <circle cx="732.52" cy="246.78" r="2.5" fill="#2563eb"/>
  <circle cx="733.63" cy="246.78" r="2.5" fill="#2563eb"/>
  <circle cx="734.74" cy="246.70" r="2.5" fill="#2563eb"/>
  <circle cx="735.85" cy="246.78" r="2.5" fill="#2563eb"/>
  <circle cx="736.96" cy="298.39" r="2.5" fill="#2563eb"/>
  <circle cx="738.07" cy="298.39" r="2.5" fill="#2563eb"/>
  <circle cx="739.18" cy="298.39" r="2.5" fill="#2563eb"/>
  <circle cx="740.29" cy="298.39" r="2.5" fill="#2563eb"/>
  <circle cx="741.40" cy="298.39" r="2.5" fill="#2563eb"/>
  <circle cx="742.51" cy="246.78" r="2.5" fill="#2563eb"/>
  <circle cx="743.62" cy="298.39" r="2.5" fill="#2563eb"/>
  <circle cx="744.73" cy="298.39" r="2.5" fill="#2563eb"/>
  <circle cx="745.84" cy="298.39" r="2.5" fill="#2563eb"/>
  <circle cx="746.95" cy="298.39" r="2.5" fill="#2563eb"/>
  <circle cx="748.06" cy="298.39" r="2.5" fill="#2563eb"/>
  <circle cx="749.17" cy="246.78" r="2.5" fill="#2563eb"/>
  <circle cx="750.28" cy="246.78" r="2.5" fill="#2563eb"/>
  <circle cx="751.39" cy="298.39" r="2.5" fill="#2563eb"/>
  <circle cx="752.50" cy="298.39" r="2.5" fill="#2563eb"/>
  <circle cx="753.61" cy="298.39" r="2.5" fill="#2563eb"/>
  <circle cx="754.72" cy="298.39" r="2.5" fill="#2563eb"/>
  <circle cx="755.83" cy="298.39" r="2.5" fill="#2563eb"/>
  <circle cx="756.94" cy="298.39" r="2.5" fill="#2563eb"/>
  <circle cx="758.05" cy="298.39" r="2.5" fill="#2563eb"/>
  <circle cx="759.16" cy="298.39" r="2.5" fill="#2563eb"/>
  <circle cx="760.27" cy="298.39" r="2.5" fill="#2563eb"/>
  <circle cx="761.38" cy="298.39" r="2.5" fill="#2563eb"/>
  <circle cx="762.49" cy="298.39" r="2.5" fill="#2563eb"/>
  <circle cx="763.60" cy="298.39" r="2.5" fill="#2563eb"/>
  <circle cx="764.71" cy="298.39" r="2.5" fill="#2563eb"/>
  <circle cx="765.82" cy="298.39" r="2.5" fill="#2563eb"/>
  <circle cx="766.93" cy="298.35" r="2.5" fill="#2563eb"/>
  <circle cx="768.04" cy="298.39" r="2.5" fill="#2563eb"/>
  <circle cx="769.15" cy="298.39" r="2.5" fill="#2563eb"/>
  <circle cx="770.26" cy="298.35" r="2.5" fill="#2563eb"/>
  <circle cx="771.37" cy="298.35" r="2.5" fill="#2563eb"/>
  <circle cx="772.48" cy="298.35" r="2.5" fill="#2563eb"/>
  <circle cx="773.59" cy="298.35" r="2.5" fill="#2563eb"/>
  <circle cx="774.70" cy="298.35" r="2.5" fill="#2563eb"/>
  <circle cx="775.80" cy="298.35" r="2.5" fill="#2563eb"/>
  <circle cx="776.91" cy="298.35" r="2.5" fill="#2563eb"/>
  <circle cx="778.02" cy="298.35" r="2.5" fill="#2563eb"/>
  <circle cx="779.13" cy="298.35" r="2.5" fill="#2563eb"/>
  <circle cx="780.24" cy="298.35" r="2.5" fill="#2563eb"/>
  <circle cx="781.35" cy="298.35" r="2.5" fill="#2563eb"/>
  <circle cx="782.46" cy="298.35" r="2.5" fill="#2563eb"/>
  <circle cx="783.57" cy="298.35" r="2.5" fill="#2563eb"/>
  <circle cx="784.68" cy="298.35" r="2.5" fill="#2563eb"/>
  <circle cx="785.79" cy="298.35" r="2.5" fill="#2563eb"/>
  <circle cx="786.90" cy="298.35" r="2.5" fill="#2563eb"/>
  <circle cx="788.01" cy="298.35" r="2.5" fill="#2563eb"/>
  <circle cx="789.12" cy="298.35" r="2.5" fill="#2563eb"/>
  <circle cx="790.23" cy="298.35" r="2.5" fill="#2563eb"/>
  <circle cx="791.34" cy="298.35" r="2.5" fill="#2563eb"/>
  <circle cx="792.45" cy="298.35" r="2.5" fill="#2563eb"/>
  <circle cx="793.56" cy="298.35" r="2.5" fill="#2563eb"/>
  <circle cx="794.67" cy="298.35" r="2.5" fill="#2563eb"/>
  <circle cx="795.78" cy="298.35" r="2.5" fill="#2563eb"/>
  <circle cx="796.89" cy="298.35" r="2.5" fill="#2563eb"/>
  <circle cx="798.00" cy="298.35" r="2.5" fill="#2563eb"/>
  <circle cx="799.11" cy="298.35" r="2.5" fill="#2563eb"/>
  <circle cx="800.22" cy="298.35" r="2.5" fill="#2563eb"/>
  <circle cx="801.33" cy="298.35" r="2.5" fill="#2563eb"/>
  <circle cx="802.44" cy="298.35" r="2.5" fill="#2563eb"/>
  <circle cx="803.55" cy="298.35" r="2.5" fill="#2563eb"/>
  <circle cx="804.66" cy="298.35" r="2.5" fill="#2563eb"/>
  <circle cx="805.77" cy="298.35" r="2.5" fill="#2563eb"/>
  <circle cx="806.88" cy="298.35" r="2.5" fill="#2563eb"/>
  <circle cx="807.99" cy="298.35" r="2.5" fill="#2563eb"/>
  <circle cx="809.10" cy="298.35" r="2.5" fill="#2563eb"/>
  <circle cx="810.21" cy="298.35" r="2.5" fill="#2563eb"/>
  <circle cx="811.32" cy="298.35" r="2.5" fill="#2563eb"/>
  <circle cx="812.43" cy="298.35" r="2.5" fill="#2563eb"/>
  <circle cx="813.54" cy="298.35" r="2.5" fill="#2563eb"/>
  <circle cx="814.65" cy="298.35" r="2.5" fill="#2563eb"/>
  <circle cx="815.76" cy="298.35" r="2.5" fill="#2563eb"/>
  <circle cx="816.87" cy="298.35" r="2.5" fill="#2563eb"/>
  <circle cx="817.98" cy="298.35" r="2.5" fill="#2563eb"/>
  <circle cx="819.09" cy="298.35" r="2.5" fill="#2563eb"/>
  <circle cx="820.20" cy="298.35" r="2.5" fill="#2563eb"/>
  <circle cx="821.30" cy="298.35" r="2.5" fill="#2563eb"/>
  <circle cx="822.41" cy="298.35" r="2.5" fill="#2563eb"/>
  <circle cx="823.52" cy="298.35" r="2.5" fill="#2563eb"/>
  <circle cx="824.63" cy="298.35" r="2.5" fill="#2563eb"/>
  <circle cx="825.74" cy="298.35" r="2.5" fill="#2563eb"/>
  <circle cx="826.85" cy="298.35" r="2.5" fill="#2563eb"/>
  <circle cx="827.96" cy="298.39" r="2.5" fill="#2563eb"/>
  <circle cx="829.07" cy="298.39" r="2.5" fill="#2563eb"/>
  <circle cx="830.18" cy="298.39" r="2.5" fill="#2563eb"/>
  <circle cx="831.29" cy="246.78" r="2.5" fill="#2563eb"/>
  <circle cx="832.40" cy="298.39" r="2.5" fill="#2563eb"/>
  <circle cx="833.51" cy="298.39" r="2.5" fill="#2563eb"/>
  <circle cx="834.62" cy="298.39" r="2.5" fill="#2563eb"/>
  <circle cx="835.73" cy="298.39" r="2.5" fill="#2563eb"/>
  <circle cx="836.84" cy="298.39" r="2.5" fill="#2563eb"/>
  <circle cx="837.95" cy="298.39" r="2.5" fill="#2563eb"/>
  <circle cx="839.06" cy="298.39" r="2.5" fill="#2563eb"/>
  <circle cx="840.17" cy="246.78" r="2.5" fill="#2563eb"/>
  <circle cx="841.28" cy="298.39" r="2.5" fill="#2563eb"/>
  <circle cx="842.39" cy="298.39" r="2.5" fill="#2563eb"/>
  <circle cx="843.50" cy="298.39" r="2.5" fill="#2563eb"/>
  <circle cx="844.61" cy="298.39" r="2.5" fill="#2563eb"/>
  <circle cx="845.72" cy="298.39" r="2.5" fill="#2563eb"/>
  <circle cx="846.83" cy="298.39" r="2.5" fill="#2563eb"/>
  <circle cx="847.94" cy="298.39" r="2.5" fill="#2563eb"/>
  <circle cx="849.05" cy="246.78" r="2.5" fill="#2563eb"/>
  <circle cx="850.16" cy="298.39" r="2.5" fill="#2563eb"/>
  <circle cx="851.27" cy="298.39" r="2.5" fill="#2563eb"/>
  <circle cx="852.38" cy="298.39" r="2.5" fill="#2563eb"/>
  <circle cx="853.49" cy="298.39" r="2.5" fill="#2563eb"/>
  <circle cx="854.60" cy="298.39" r="2.5" fill="#2563eb"/>
  <circle cx="855.71" cy="298.39" r="2.5" fill="#2563eb"/>
  <circle cx="856.82" cy="298.39" r="2.5" fill="#2563eb"/>
  <circle cx="857.93" cy="298.39" r="2.5" fill="#2563eb"/>
  <circle cx="859.04" cy="298.39" r="2.5" fill="#2563eb"/>
  <circle cx="860.15" cy="298.39" r="2.5" fill="#2563eb"/>
  <circle cx="861.26" cy="298.39" r="2.5" fill="#2563eb"/>
  <circle cx="862.37" cy="298.35" r="2.5" fill="#2563eb"/>
  <circle cx="863.48" cy="298.39" r="2.5" fill="#2563eb"/>
  <circle cx="864.59" cy="298.39" r="2.5" fill="#2563eb"/>
  <circle cx="865.70" cy="298.39" r="2.5" fill="#2563eb"/>
  <circle cx="866.80" cy="298.35" r="2.5" fill="#2563eb"/>
  <circle cx="867.91" cy="298.35" r="2.5" fill="#2563eb"/>
  <circle cx="869.02" cy="298.35" r="2.5" fill="#2563eb"/>
  <circle cx="870.13" cy="298.35" r="2.5" fill="#2563eb"/>
  <circle cx="871.24" cy="298.35" r="2.5" fill="#2563eb"/>
  <circle cx="872.35" cy="298.35" r="2.5" fill="#2563eb"/>
  <circle cx="873.46" cy="298.35" r="2.5" fill="#2563eb"/>
  <circle cx="874.57" cy="298.35" r="2.5" fill="#2563eb"/>
  <circle cx="875.68" cy="298.35" r="2.5" fill="#2563eb"/>
  <circle cx="876.79" cy="298.35" r="2.5" fill="#2563eb"/>
  <circle cx="877.90" cy="298.35" r="2.5" fill="#2563eb"/>
  <circle cx="879.01" cy="298.35" r="2.5" fill="#2563eb"/>
  <circle cx="880.12" cy="298.35" r="2.5" fill="#2563eb"/>
  <circle cx="881.23" cy="298.35" r="2.5" fill="#2563eb"/>
  <circle cx="882.34" cy="298.35" r="2.5" fill="#2563eb"/>
  <circle cx="883.45" cy="298.35" r="2.5" fill="#2563eb"/>
  <circle cx="884.56" cy="298.39" r="2.5" fill="#2563eb"/>
  <circle cx="885.67" cy="298.39" r="2.5" fill="#2563eb"/>
  <circle cx="886.78" cy="298.39" r="2.5" fill="#2563eb"/>
  <circle cx="887.89" cy="298.39" r="2.5" fill="#2563eb"/>
  <circle cx="889.00" cy="298.39" r="2.5" fill="#2563eb"/>
  <circle cx="890.11" cy="298.39" r="2.5" fill="#2563eb"/>
  <circle cx="891.22" cy="298.35" r="2.5" fill="#2563eb"/>
  <circle cx="892.33" cy="298.39" r="2.5" fill="#2563eb"/>
  <circle cx="893.44" cy="298.39" r="2.5" fill="#2563eb"/>
  <circle cx="894.55" cy="298.39" r="2.5" fill="#2563eb"/>
  <circle cx="895.66" cy="298.39" r="2.5" fill="#2563eb"/>
  <circle cx="896.77" cy="298.39" r="2.5" fill="#2563eb"/>
  <circle cx="897.88" cy="298.39" r="2.5" fill="#2563eb"/>
  <circle cx="898.99" cy="298.39" r="2.5" fill="#2563eb"/>
  <circle cx="900.10" cy="298.39" r="2.5" fill="#2563eb"/>
  <circle cx="901.21" cy="298.39" r="2.5" fill="#2563eb"/>
  <circle cx="902.32" cy="298.35" r="2.5" fill="#2563eb"/>
  <circle cx="903.43" cy="298.39" r="2.5" fill="#2563eb"/>
  <circle cx="904.54" cy="298.39" r="2.5" fill="#2563eb"/>
  <circle cx="905.65" cy="298.39" r="2.5" fill="#2563eb"/>
  <circle cx="906.76" cy="298.39" r="2.5" fill="#2563eb"/>
  <circle cx="907.87" cy="298.39" r="2.5" fill="#2563eb"/>
  <circle cx="908.98" cy="298.39" r="2.5" fill="#2563eb"/>
  <circle cx="910.09" cy="298.39" r="2.5" fill="#2563eb"/>
  <circle cx="911.20" cy="298.39" r="2.5" fill="#2563eb"/>
  <circle cx="912.30" cy="298.39" r="2.5" fill="#2563eb"/>
  <circle cx="913.41" cy="298.39" r="2.5" fill="#2563eb"/>
  <circle cx="914.52" cy="298.39" r="2.5" fill="#2563eb"/>
  <circle cx="915.63" cy="298.39" r="2.5" fill="#2563eb"/>
  <circle cx="916.74" cy="298.39" r="2.5" fill="#2563eb"/>
  <circle cx="917.85" cy="298.39" r="2.5" fill="#2563eb"/>
  <circle cx="918.96" cy="298.39" r="2.5" fill="#2563eb"/>
  <circle cx="920.07" cy="298.39" r="2.5" fill="#2563eb"/>
  <circle cx="921.18" cy="298.35" r="2.5" fill="#2563eb"/>
  <circle cx="922.29" cy="298.35" r="2.5" fill="#2563eb"/>
  <circle cx="923.40" cy="298.39" r="2.5" fill="#2563eb"/>
  <circle cx="924.51" cy="298.39" r="2.5" fill="#2563eb"/>
  <circle cx="925.62" cy="298.39" r="2.5" fill="#2563eb"/>
  <circle cx="926.73" cy="298.39" r="2.5" fill="#2563eb"/>
  <circle cx="927.84" cy="298.39" r="2.5" fill="#2563eb"/>
  <circle cx="928.95" cy="298.39" r="2.5" fill="#2563eb"/>
  <circle cx="930.06" cy="298.39" r="2.5" fill="#2563eb"/>
  <circle cx="931.17" cy="298.39" r="2.5" fill="#2563eb"/>
  <circle cx="932.28" cy="298.39" r="2.5" fill="#2563eb"/>
  <circle cx="933.39" cy="298.39" r="2.5" fill="#2563eb"/>
  <circle cx="934.50" cy="298.35" r="2.5" fill="#2563eb"/>
  <circle cx="935.61" cy="298.35" r="2.5" fill="#2563eb"/>
  <circle cx="936.72" cy="298.39" r="2.5" fill="#2563eb"/>
  <circle cx="937.83" cy="298.39" r="2.5" fill="#2563eb"/>
  <circle cx="938.94" cy="298.39" r="2.5" fill="#2563eb"/>
  <circle cx="940.05" cy="298.39" r="2.5" fill="#2563eb"/>
  <circle cx="941.16" cy="298.39" r="2.5" fill="#2563eb"/>
  <circle cx="942.27" cy="298.39" r="2.5" fill="#2563eb"/>
  <circle cx="943.38" cy="298.39" r="2.5" fill="#2563eb"/>
  <circle cx="944.49" cy="298.39" r="2.5" fill="#2563eb"/>
  <circle cx="945.60" cy="298.39" r="2.5" fill="#2563eb"/>
  <circle cx="946.71" cy="298.39" r="2.5" fill="#2563eb"/>
  <circle cx="947.82" cy="298.39" r="2.5" fill="#2563eb"/>
  <circle cx="948.93" cy="298.39" r="2.5" fill="#2563eb"/>
  <circle cx="950.04" cy="298.39" r="2.5" fill="#2563eb"/>
  <circle cx="951.15" cy="298.39" r="2.5" fill="#2563eb"/>
  <circle cx="952.26" cy="298.35" r="2.5" fill="#2563eb"/>
  <circle cx="953.37" cy="298.39" r="2.5" fill="#2563eb"/>
  <circle cx="954.48" cy="298.39" r="2.5" fill="#2563eb"/>
  <circle cx="955.59" cy="298.39" r="2.5" fill="#2563eb"/>
  <circle cx="956.70" cy="298.39" r="2.5" fill="#2563eb"/>
  <circle cx="957.80" cy="298.39" r="2.5" fill="#2563eb"/>
  <circle cx="958.91" cy="298.39" r="2.5" fill="#2563eb"/>
  <circle cx="960.02" cy="298.39" r="2.5" fill="#2563eb"/>
  <circle cx="961.13" cy="298.39" r="2.5" fill="#2563eb"/>
  <circle cx="962.24" cy="298.35" r="2.5" fill="#2563eb"/>
  <circle cx="963.35" cy="298.35" r="2.5" fill="#2563eb"/>
  <circle cx="964.46" cy="298.39" r="2.5" fill="#2563eb"/>
  <circle cx="965.57" cy="298.35" r="2.5" fill="#2563eb"/>
  <circle cx="966.68" cy="298.39" r="2.5" fill="#2563eb"/>
  <circle cx="967.79" cy="298.39" r="2.5" fill="#2563eb"/>
  <circle cx="968.90" cy="298.39" r="2.5" fill="#2563eb"/>
  <circle cx="970.01" cy="298.39" r="2.5" fill="#2563eb"/>
  <circle cx="971.12" cy="298.39" r="2.5" fill="#2563eb"/>
  <circle cx="972.23" cy="298.35" r="2.5" fill="#2563eb"/>
  <circle cx="973.34" cy="298.39" r="2.5" fill="#2563eb"/>
  <circle cx="974.45" cy="298.39" r="2.5" fill="#2563eb"/>
  <circle cx="975.56" cy="298.35" r="2.5" fill="#2563eb"/>
  <circle cx="976.67" cy="298.39" r="2.5" fill="#2563eb"/>
  <circle cx="977.78" cy="298.35" r="2.5" fill="#2563eb"/>
  <circle cx="978.89" cy="298.39" r="2.5" fill="#2563eb"/>
  <circle cx="980.00" cy="298.39" r="2.5" fill="#2563eb"/>
</svg>
