<?xml version="1.0" encoding="UTF-8"?>
<svg xmlns="http://www.w3.org/2000/svg" width="1000" height="420" viewBox="0 0 1000 420">
  <rect width="100%" height="100%" fill="#ffffff"/>
  <text x="70" y="28" font-size="20" font-weight="600">수집 시점 기준 - 시간별 스냅샷</text>
  <text x="70" y="402" font-size="12" fill="#555">스냅샷 수</text>
  <line x1="70" y1="350.00" x2="980" y2="350.00" stroke="#e5e7eb" stroke-width="1"/>
  <text x="62" y="354.00" font-size="11" fill="#6b7280" text-anchor="end">0</text>
  <line x1="70" y1="290.00" x2="980" y2="290.00" stroke="#e5e7eb" stroke-width="1"/>
  <text x="62" y="294.00" font-size="11" fill="#6b7280" text-anchor="end">1,440</text>
  <line x1="70" y1="230.00" x2="980" y2="230.00" stroke="#e5e7eb" stroke-width="1"/>
  <text x="62" y="234.00" font-size="11" fill="#6b7280" text-anchor="end">2,880</text>
  <line x1="70" y1="170.00" x2="980" y2="170.00" stroke="#e5e7eb" stroke-width="1"/>
  <text x="62" y="174.00" font-size="11" fill="#6b7280" text-anchor="end">4,321</text>
  <line x1="70" y1="110.00" x2="980" y2="110.00" stroke="#e5e7eb" stroke-width="1"/>
  <text x="62" y="114.00" font-size="11" fill="#6b7280" text-anchor="end">5,761</text>
  <line x1="70" y1="50.00" x2="980" y2="50.00" stroke="#e5e7eb" stroke-width="1"/>
  <text x="62" y="54.00" font-size="11" fill="#6b7280" text-anchor="end">7,202</text>
  <line x1="70" y1="350" x2="980" y2="350" stroke="#111827" stroke-width="1.2"/>
  <line x1="70" y1="50" x2="70" y2="350" stroke="#111827" stroke-width="1.2"/>
  <line x1="70.00" y1="350" x2="70.00" y2="356" stroke="#9ca3af" stroke-width="1"/>
  <text x="70.00" y="372" font-size="10" fill="#6b7280" text-anchor="middle">2026-02-28 18</text>
  <line x1="145.97" y1="350" x2="145.97" y2="356" stroke="#9ca3af" stroke-width="1"/>
  <text x="145.97" y="372" font-size="10" fill="#6b7280" text-anchor="middle">2026-03-09 03</text>
  <line x1="221.93" y1="350" x2="221.93" y2="356" stroke="#9ca3af" stroke-width="1"/>
  <text x="221.93" y="372" font-size="10" fill="#6b7280" text-anchor="middle">2026-03-11 07</text>
  <line x1="297.90" y1="350" x2="297.90" y2="356" stroke="#9ca3af" stroke-width="1"/>
  <text x="297.90" y="372" font-size="10" fill="#6b7280" text-anchor="middle">2026-03-13 13</text>
  <line x1="373.86" y1="350" x2="373.86" y2="356" stroke="#9ca3af" stroke-width="1"/>
  <text x="373.86" y="372" font-size="10" fill="#6b7280" text-anchor="middle">2026-03-16 02</text>
  <line x1="449.83" y1="350" x2="449.83" y2="356" stroke="#9ca3af" stroke-width="1"/>
  <text x="449.83" y="372" font-size="10" fill="#6b7280" text-anchor="middle">2026-03-19 08</text>
  <line x1="525.79" y1="350" x2="525.79" y2="356" stroke="#9ca3af" stroke-width="1"/>
  <text x="525.79" y="372" font-size="10" fill="#6b7280" text-anchor="middle">2026-03-22 04</text>
  <line x1="601.76" y1="350" x2="601.76" y2="356" stroke="#9ca3af" stroke-width="1"/>
  <text x="601.76" y="372" font-size="10" fill="#6b7280" text-anchor="middle">2026-03-25 06</text>
  <line x1="677.72" y1="350" x2="677.72" y2="356" stroke="#9ca3af" stroke-width="1"/>
  <text x="677.72" y="372" font-size="10" fill="#6b7280" text-anchor="middle">2026-03-28 14</text>
  <line x1="753.69" y1="350" x2="753.69" y2="356" stroke="#9ca3af" stroke-width="1"/>
  <text x="753.69" y="372" font-size="10" fill="#6b7280" text-anchor="middle">2026-03-31 20</text>
  <line x1="829.65" y1="350" x2="829.65" y2="356" stroke="#9ca3af" stroke-width="1"/>
  <text x="829.65" y="372" font-size="10" fill="#6b7280" text-anchor="middle">2026-04-04 02</text>
  <line x1="905.62" y1="350" x2="905.62" y2="356" stroke="#9ca3af" stroke-width="1"/>
  <text x="905.62" y="372" font-size="10" fill="#6b7280" text-anchor="middle">2026-04-07 07</text>
  <line x1="980.00" y1="350" x2="980.00" y2="356" stroke="#9ca3af" stroke-width="1"/>
  <text x="980.00" y="372" font-size="10" fill="#6b7280" text-anchor="middle">2026-04-10 20</text>
  <polyline fill="none" stroke="#2563eb" stroke-width="2.5" points="70.00,50.00 71.58,50.12 73.17,50.17 74.75,50.46 76.33,50.00 77.91,266.90 79.50,50.12 81.08,50.08 82.66,177.46 84.24,211.58 85.83,175.34 87.41,304.14 88.99,200.46 90.57,250.94 92.16,300.01 93.74,300.06 95.32,300.01 96.90,300.01 98.49,348.00 100.07,300.01 101.65,249.99 103.23,200.00 104.82,249.99 106.40,249.99 107.98,250.03 109.57,250.03 111.15,250.03 112.73,250.40 114.31,250.90 115.90,250.90 117.48,251.32 119.06,249.94 120.64,300.01 122.23,299.93 123.81,251.03 125.39,300.68 126.97,250.03 128.56,200.00 130.14,249.99 131.72,250.03 133.30,250.03 134.89,250.03 136.47,300.01 138.05,200.04 139.63,250.03 141.22,250.03 142.80,250.03 144.38,249.90 145.97,250.03 147.55,250.03 149.13,250.94 150.71,250.44 152.30,250.03 153.88,250.03 155.46,300.47 157.04,300.01 158.63,300.43 160.21,250.03 161.79,249.99 163.37,300.43 164.96,249.90 166.54,249.99 168.12,249.99 169.70,200.04 171.29,300.01 172.87,300.01 174.45,300.01 176.03,249.90 177.62,300.01 179.20,250.03 180.78,249.99 182.37,199.96 183.95,300.01 185.53,200.00 187.11,250.36 188.70,250.03 190.28,300.01 191.86,300.01 193.44,250.44 195.03,300.01 196.61,250.03 198.19,250.03 199.77,249.99 201.36,250.49 202.94,250.03 204.52,200.04 206.10,300.01 207.69,250.03 209.27,300.01 210.85,250.11 212.43,300.01 214.02,250.03 215.60,250.03 217.18,199.92 218.77,250.03 220.35,250.03 221.93,250.03 223.51,254.36 225.10,300.01 226.68,299.97 228.26,250.36 229.84,299.97 231.43,250.03 233.01,250.03 234.59,250.03 236.17,250.03 237.76,249.99 239.34,200.00 240.92,299.93 242.50,300.01 244.09,299.97 245.67,249.94 247.25,249.99 248.83,249.82 250.42,249.94 252.00,250.28 253.58,207.00 255.17,250.03 256.75,250.32 258.33,250.40 259.91,300.93 261.50,300.01 263.08,300.10 264.66,249.94 266.24,249.99 267.83,250.07 269.41,249.99 270.99,250.03 272.57,249.94 274.16,200.00 275.74,300.39 277.32,300.01 278.90,300.01 280.49,250.44 282.07,300.39 283.65,249.86 285.23,250.11 286.82,201.46 288.40,300.01 289.98,200.83 291.57,250.03 293.15,249.99 294.73,300.26 296.31,300.01 297.90,300.01 299.48,250.03 301.06,250.03 302.64,250.03 304.23,250.03 305.81,249.99 307.39,250.03 308.97,200.00 310.56,300.26 312.14,249.99 313.72,300.01 315.30,249.94 316.89,250.03 318.47,250.03 320.05,250.03 321.63,200.04 323.22,300.01 324.80,249.90 326.38,300.01 327.97,300.01 329.55,300.06 331.13,300.01 332.71,300.01 334.30,243.95 335.88,249.94 337.46,299.97 339.04,300.01 340.63,300.01 342.21,250.03 343.79,300.01 345.37,300.01 346.96,299.97 348.54,249.99 350.12,300.01 351.70,299.93 353.29,300.01 354.87,299.93 356.45,300.01 358.03,300.01 359.62,299.89 361.20,299.97 362.78,250.03 364.37,299.93 365.95,299.89 367.53,299.97 369.11,249.94 370.70,300.01 372.28,300.01 373.86,299.97 375.44,249.99 377.03,299.97 378.61,299.97 380.19,300.06 381.77,300.06 383.36,299.93 384.94,300.01 386.52,300.01 388.10,299.93 389.69,300.01 391.27,300.01 392.85,299.97 394.43,300.01 396.02,300.01 397.60,300.01 399.18,300.01 400.77,249.86 402.35,300.01 403.93,300.10 405.51,299.93 407.10,300.01 408.68,299.93 410.26,300.01 411.84,300.01 413.43,300.01 415.01,300.01 416.59,300.01 418.17,299.97 419.76,300.01 421.34,300.01 422.92,300.01 424.50,300.01 426.09,250.03 427.67,300.01 429.25,300.01 430.83,299.97 432.42,300.01 434.00,300.01 435.58,299.97 437.17,299.97 438.75,300.01 440.33,299.97 441.91,300.01 443.50,299.93 445.08,300.01 446.66,250.03 448.24,300.01 449.83,300.01 451.41,300.01 452.99,300.01 454.57,300.01 456.16,299.89 457.74,300.01 459.32,300.01 460.90,250.07 462.49,300.01 464.07,299.93 465.65,300.01 467.23,299.97 468.82,299.97 470.40,299.97 471.98,250.03 473.57,300.01 475.15,300.01 476.73,300.01 478.31,300.01 479.90,299.97 481.48,300.01 483.06,299.97 484.64,300.01 486.23,299.97 487.81,249.90 489.39,300.01 490.97,300.01 492.56,299.89 494.14,299.97 495.72,299.97 497.30,249.99 498.89,299.97 500.47,299.89 502.05,300.01 503.63,299.97 505.22,299.97 506.80,300.01 508.38,299.97 509.97,249.99 511.55,299.97 513.13,299.97 514.71,300.06 516.30,300.06 517.88,249.94 519.46,300.01 521.04,299.93 522.63,300.01 524.21,300.01 525.79,249.99 527.37,300.01 528.96,300.01 530.54,300.01 532.12,299.93 533.70,299.93 535.29,300.01 536.87,300.01 538.45,249.94 540.03,299.97 541.62,299.97 543.20,300.01 544.78,300.01 546.37,300.01 547.95,249.99 549.53,300.01 551.11,300.01 552.70,300.01 554.28,250.03 555.86,300.01 557.44,300.01 559.03,300.01 560.61,299.97 562.19,300.01 563.77,300.01 565.36,299.97 566.94,299.97 568.52,300.01 570.10,300.01 571.69,299.97 573.27,299.93 574.85,300.01 576.43,300.06 578.02,299.97 579.60,300.01 581.18,250.03 582.77,250.03 584.35,299.93 585.93,299.97 587.51,300.01 589.10,300.01 590.68,300.06 592.26,300.01 593.84,299.93 595.43,300.01 597.01,300.01 598.59,299.97 600.17,299.97 601.76,300.01 603.34,250.03 604.92,300.01 606.50,300.01 608.09,300.01 609.67,299.97 611.25,300.01 612.83,299.97 614.42,300.01 616.00,299.97 617.58,299.97 619.17,299.93 620.75,300.01 622.33,300.01 623.91,299.89 625.50,299.97 627.08,299.97 628.66,300.06 630.24,249.90 631.83,299.89 633.41,300.01 634.99,299.97 636.57,299.97 638.16,299.97 639.74,300.01 641.32,300.01 642.90,299.97 644.49,299.97 646.07,299.97 647.65,250.03 649.23,299.93 650.82,300.01 652.40,300.01 653.98,299.93 655.57,300.01 657.15,300.01 658.73,299.97 660.31,300.01 661.90,300.01 663.48,300.06 665.06,300.01 666.64,299.97 668.23,299.89 669.81,300.01 671.39,300.01 672.97,249.94 674.56,249.94 676.14,300.01 677.72,300.01 679.30,300.01 680.89,300.01 682.47,299.97 684.05,250.03 685.63,300.01 687.22,300.01 688.80,300.01 690.38,300.01 691.97,250.03 693.55,249.99 695.13,300.01 696.71,299.97 698.30,300.01 699.88,299.97 701.46,300.01 703.04,299.97 704.63,299.97 706.21,299.97 707.79,300.06 709.37,249.99 710.96,300.01 712.54,250.03 714.12,249.94 715.70,249.99 717.29,300.01 718.87,300.06 720.45,300.01 722.03,299.97 723.62,299.97 725.20,300.01 726.78,299.93 728.37,299.89 729.95,299.89 731.53,299.89 733.11,299.89 734.70,299.85 736.28,299.85 737.86,299.89 739.44,299.81 741.03,299.81 742.61,299.81 744.19,299.76 745.77,299.76 747.36,299.76 748.94,299.72 750.52,299.68 752.10,299.60 753.69,299.60 755.27,299.60 756.85,299.56 758.43,299.47 760.02,299.43 761.60,299.43 763.18,299.39 764.77,299.47 766.35,259.82 767.93,338.96 769.51,299.31 771.10,299.31 772.68,299.26 774.26,299.68 775.84,299.68 777.43,299.68 779.01,299.64 780.59,299.14 782.17,299.14 783.76,299.10 785.34,299.10 786.92,299.10 788.50,248.07 790.09,299.06 791.67,299.06 793.25,299.06 794.83,299.06 796.42,299.06 798.00,298.97 799.58,298.97 801.17,298.93 802.75,298.97 804.33,298.93 805.91,298.89 807.50,298.89 809.08,298.89 810.66,298.89 812.24,247.78 813.83,298.89 815.41,298.89 816.99,298.85 818.57,298.85 820.16,298.81 821.74,298.81 823.32,298.81 824.90,298.81 826.49,298.81 828.07,298.81 829.65,298.81 831.23,298.81 832.82,298.81 834.40,298.72 835.98,247.45 837.57,247.45 839.15,298.72 840.73,298.72 842.31,298.72 843.90,298.72 845.48,298.72 847.06,298.72 848.64,247.36 850.23,298.68 851.81,247.36 853.39,247.36 854.97,247.36 856.56,298.68 858.14,298.68 859.72,298.68 861.30,298.68 862.89,298.68 864.47,341.67 866.05,307.01 867.63,298.68 869.22,298.68 870.80,298.68 872.38,247.36 873.97,298.64 875.55,247.36 877.13,247.28 878.71,247.20 880.30,298.60 881.88,298.60 883.46,247.03 885.04,298.51 886.63,298.51 888.21,298.51 889.79,298.51 891.37,298.51 892.96,298.51 894.54,298.51 896.12,298.51 897.70,298.51 899.29,298.51 900.87,298.51 902.45,298.51 904.03,298.51 905.62,298.51 907.20,298.51 908.78,298.51 910.37,298.51 911.95,298.51 913.53,298.51 915.11,298.51 916.70,298.51 918.28,298.51 919.86,298.51 921.44,298.51 923.03,298.51 924.61,298.51 926.19,298.47 927.77,298.51 929.36,298.51 930.94,298.47 932.52,298.51 934.10,298.47 935.69,298.51 937.27,298.43 938.85,298.56 940.43,298.43 942.02,298.43 943.60,298.43 945.18,298.43 946.77,298.43 948.35,298.43 949.93,298.43 951.51,298.43 953.10,298.43 954.68,298.43 956.26,298.43 957.84,298.43 959.43,298.43 961.01,298.43 962.59,298.43 964.17,298.43 965.76,298.43 967.34,298.43 968.92,298.43 970.50,298.43 972.09,298.43 973.67,298.43 975.25,298.43 976.83,298.43 978.42,298.43 980.00,298.43"/>
  <circle cx="70.00" cy="50.00" r="2.5" fill="#2563eb"/>
  <circle cx="71.58" cy="50.12" r="2.5" fill="#2563eb"/>
  <circle cx="73.17" cy="50.17" r="2.5" fill="#2563eb"/>
  <circle cx="74.75" cy="50.46" r="2.5" fill="#2563eb"/>
  <circle cx="76.33" cy="50.00" r="2.5" fill="#2563eb"/>
  <circle cx="77.91" cy="266.90" r="2.5" fill="#2563eb"/>
  <circle cx="79.50" cy="50.12" r="2.5" fill="#2563eb"/>
  <circle cx="81.08" cy="50.08" r="2.5" fill="#2563eb"/>
  <circle cx="82.66" cy="177.46" r="2.5" fill="#2563eb"/>
  <circle cx="84.24" cy="211.58" r="2.5" fill="#2563eb"/>
  <circle cx="85.83" cy="175.34" r="2.5" fill="#2563eb"/>
  <circle cx="87.41" cy="304.14" r="2.5" fill="#2563eb"/>
  <circle cx="88.99" cy="200.46" r="2.5" fill="#2563eb"/>
  <circle cx="90.57" cy="250.94" r="2.5" fill="#2563eb"/>
  <circle cx="92.16" cy="300.01" r="2.5" fill="#2563eb"/>
  <circle cx="93.74" cy="300.06" r="2.5" fill="#2563eb"/>
  <circle cx="95.32" cy="300.01" r="2.5" fill="#2563eb"/>
  <circle cx="96.90" cy="300.01" r="2.5" fill="#2563eb"/>
  <circle cx="98.49" cy="348.00" r="2.5" fill="#2563eb"/>
  <circle cx="100.07" cy="300.01" r="2.5" fill="#2563eb"/>
  <circle cx="101.65" cy="249.99" r="2.5" fill="#2563eb"/>
  <circle cx="103.23" cy="200.00" r="2.5" fill="#2563eb"/>
  <circle cx="104.82" cy="249.99" r="2.5" fill="#2563eb"/>
  <circle cx="106.40" cy="249.99" r="2.5" fill="#2563eb"/>
  <circle cx="107.98" cy="250.03" r="2.5" fill="#2563eb"/>
  <circle cx="109.57" cy="250.03" r="2.5" fill="#2563eb"/>
  <circle cx="111.15" cy="250.03" r="2.5" fill="#2563eb"/>
  <circle cx="112.73" cy="250.40" r="2.5" fill="#2563eb"/>
  <circle cx="114.31" cy="250.90" r="2.5" fill="#2563eb"/>
  <circle cx="115.90" cy="250.90" r="2.5" fill="#2563eb"/>
  <circle cx="117.48" cy="251.32" r="2.5" fill="#2563eb"/>
  <circle cx="119.06" cy="249.94" r="2.5" fill="#2563eb"/>
  <circle cx="120.64" cy="300.01" r="2.5" fill="#2563eb"/>
  <circle cx="122.23" cy="299.93" r="2.5" fill="#2563eb"/>
  <circle cx="123.81" cy="251.03" r="2.5" fill="#2563eb"/>
  <circle cx="125.39" cy="300.68" r="2.5" fill="#2563eb"/>
  <circle cx="126.97" cy="250.03" r="2.5" fill="#2563eb"/>
  <circle cx="128.56" cy="200.00" r="2.5" fill="#2563eb"/>
  <circle cx="130.14" cy="249.99" r="2.5" fill="#2563eb"/>
  <circle cx="131.72" cy="250.03" r="2.5" fill="#2563eb"/>
  <circle cx="133.30" cy="250.03" r="2.5" fill="#2563eb"/>
  <circle cx="134.89" cy="250.03" r="2.5" fill="#2563eb"/>
  <circle cx="136.47" cy="300.01" r="2.5" fill="#2563eb"/>
  <circle cx="138.05" cy="200.04" r="2.5" fill="#2563eb"/>
  <circle cx="139.63" cy="250.03" r="2.5" fill="#2563eb"/>
  <circle cx="141.22" cy="250.03" r="2.5" fill="#2563eb"/>
  <circle cx="142.80" cy="250.03" r="2.5" fill="#2563eb"/>
  <circle cx="144.38" cy="249.90" r="2.5" fill="#2563eb"/>
  <circle cx="145.97" cy="250.03" r="2.5" fill="#2563eb"/>
  <circle cx="147.55" cy="250.03" r="2.5" fill="#2563eb"/>
  <circle cx="149.13" cy="250.94" r="2.5" fill="#2563eb"/>
  <circle cx="150.71" cy="250.44" r="2.5" fill="#2563eb"/>
  <circle cx="152.30" cy="250.03" r="2.5" fill="#2563eb"/>
  <circle cx="153.88" cy="250.03" r="2.5" fill="#2563eb"/>
  <circle cx="155.46" cy="300.47" r="2.5" fill="#2563eb"/>
  <circle cx="157.04" cy="300.01" r="2.5" fill="#2563eb"/>
  <circle cx="158.63" cy="300.43" r="2.5" fill="#2563eb"/>
  <circle cx="160.21" cy="250.03" r="2.5" fill="#2563eb"/>
  <circle cx="161.79" cy="249.99" r="2.5" fill="#2563eb"/>
  <circle cx="163.37" cy="300.43" r="2.5" fill="#2563eb"/>
  <circle cx="164.96" cy="249.90" r="2.5" fill="#2563eb"/>
  <circle cx="166.54" cy="249.99" r="2.5" fill="#2563eb"/>
  <circle cx="168.12" cy="249.99" r="2.5" fill="#2563eb"/>
  <circle cx="169.70" cy="200.04" r="2.5" fill="#2563eb"/>
  <circle cx="171.29" cy="300.01" r="2.5" fill="#2563eb"/>
  <circle cx="172.87" cy="300.01" r="2.5" fill="#2563eb"/>
  <circle cx="174.45" cy="300.01" r="2.5" fill="#2563eb"/>
  <circle cx="176.03" cy="249.90" r="2.5" fill="#2563eb"/>
  <circle cx="177.62" cy="300.01" r="2.5" fill="#2563eb"/>
  <circle cx="179.20" cy="250.03" r="2.5" fill="#2563eb"/>
  <circle cx="180.78" cy="249.99" r="2.5" fill="#2563eb"/>
  <circle cx="182.37" cy="199.96" r="2.5" fill="#2563eb"/>
  <circle cx="183.95" cy="300.01" r="2.5" fill="#2563eb"/>
  <circle cx="185.53" cy="200.00" r="2.5" fill="#2563eb"/>
  <circle cx="187.11" cy="250.36" r="2.5" fill="#2563eb"/>
  <circle cx="188.70" cy="250.03" r="2.5" fill="#2563eb"/>
  <circle cx="190.28" cy="300.01" r="2.5" fill="#2563eb"/>
  <circle cx="191.86" cy="300.01" r="2.5" fill="#2563eb"/>
  <circle cx="193.44" cy="250.44" r="2.5" fill="#2563eb"/>
  <circle cx="195.03" cy="300.01" r="2.5" fill="#2563eb"/>
  <circle cx="196.61" cy="250.03" r="2.5" fill="#2563eb"/>
  <circle cx="198.19" cy="250.03" r="2.5" fill="#2563eb"/>
  <circle cx="199.77" cy="249.99" r="2.5" fill="#2563eb"/>
  <circle cx="201.36" cy="250.49" r="2.5" fill="#2563eb"/>
  <circle cx="202.94" cy="250.03" r="2.5" fill="#2563eb"/>
  <circle cx="204.52" cy="200.04" r="2.5" fill="#2563eb"/>
  <circle cx="206.10" cy="300.01" r="2.5" fill="#2563eb"/>
  <circle cx="207.69" cy="250.03" r="2.5" fill="#2563eb"/>
  <circle cx="209.27" cy="300.01" r="2.5" fill="#2563eb"/>
  <circle cx="210.85" cy="250.11" r="2.5" fill="#2563eb"/>
  <circle cx="212.43" cy="300.01" r="2.5" fill="#2563eb"/>
  <circle cx="214.02" cy="250.03" r="2.5" fill="#2563eb"/>
  <circle cx="215.60" cy="250.03" r="2.5" fill="#2563eb"/>
  <circle cx="217.18" cy="199.92" r="2.5" fill="#2563eb"/>
  <circle cx="218.77" cy="250.03" r="2.5" fill="#2563eb"/>
  <circle cx="220.35" cy="250.03" r="2.5" fill="#2563eb"/>
  <circle cx="221.93" cy="250.03" r="2.5" fill="#2563eb"/>
  <circle cx="223.51" cy="254.36" r="2.5" fill="#2563eb"/>
  <circle cx="225.10" cy="300.01" r="2.5" fill="#2563eb"/>
  <circle cx="226.68" cy="299.97" r="2.5" fill="#2563eb"/>
  <circle cx="228.26" cy="250.36" r="2.5" fill="#2563eb"/>
  <circle cx="229.84" cy="299.97" r="2.5" fill="#2563eb"/>
  <circle cx="231.43" cy="250.03" r="2.5" fill="#2563eb"/>
  <circle cx="233.01" cy="250.03" r="2.5" fill="#2563eb"/>
  <circle cx="234.59" cy="250.03" r="2.5" fill="#2563eb"/>
  <circle cx="236.17" cy="250.03" r="2.5" fill="#2563eb"/>
  <circle cx="237.76" cy="249.99" r="2.5" fill="#2563eb"/>
  <circle cx="239.34" cy="200.00" r="2.5" fill="#2563eb"/>
  <circle cx="240.92" cy="299.93" r="2.5" fill="#2563eb"/>
  <circle cx="242.50" cy="300.01" r="2.5" fill="#2563eb"/>
  <circle cx="244.09" cy="299.97" r="2.5" fill="#2563eb"/>
  <circle cx="245.67" cy="249.94" r="2.5" fill="#2563eb"/>
  <circle cx="247.25" cy="249.99" r="2.5" fill="#2563eb"/>
  <circle cx="248.83" cy="249.82" r="2.5" fill="#2563eb"/>
  <circle cx="250.42" cy="249.94" r="2.5" fill="#2563eb"/>
  <circle cx="252.00" cy="250.28" r="2.5" fill="#2563eb"/>
  <circle cx="253.58" cy="207.00" r="2.5" fill="#2563eb"/>
  <circle cx="255.17" cy="250.03" r="2.5" fill="#2563eb"/>
  <circle cx="256.75" cy="250.32" r="2.5" fill="#2563eb"/>
  <circle cx="258.33" cy="250.40" r="2.5" fill="#2563eb"/>
  <circle cx="259.91" cy="300.93" r="2.5" fill="#2563eb"/>
  <circle cx="261.50" cy="300.01" r="2.5" fill="#2563eb"/>
  <circle cx="263.08" cy="300.10" r="2.5" fill="#2563eb"/>
  <circle cx="264.66" cy="249.94" r="2.5" fill="#2563eb"/>
  <circle cx="266.24" cy="249.99" r="2.5" fill="#2563eb"/>
  <circle cx="267.83" cy="250.07" r="2.5" fill="#2563eb"/>
  <circle cx="269.41" cy="249.99" r="2.5" fill="#2563eb"/>
  <circle cx="270.99" cy="250.03" r="2.5" fill="#2563eb"/>
  <circle cx="272.57" cy="249.94" r="2.5" fill="#2563eb"/>
  <circle cx="274.16" cy="200.00" r="2.5" fill="#2563eb"/>
  <circle cx="275.74" cy="300.39" r="2.5" fill="#2563eb"/>
  <circle cx="277.32" cy="300.01" r="2.5" fill="#2563eb"/>
  <circle cx="278.90" cy="300.01" r="2.5" fill="#2563eb"/>
  <circle cx="280.49" cy="250.44" r="2.5" fill="#2563eb"/>
  <circle cx="282.07" cy="300.39" r="2.5" fill="#2563eb"/>
  <circle cx="283.65" cy="249.86" r="2.5" fill="#2563eb"/>
  <circle cx="285.23" cy="250.11" r="2.5" fill="#2563eb"/>
  <circle cx="286.82" cy="201.46" r="2.5" fill="#2563eb"/>
  <circle cx="288.40" cy="300.01" r="2.5" fill="#2563eb"/>
  <circle cx="289.98" cy="200.83" r="2.5" fill="#2563eb"/>
  <circle cx="291.57" cy="250.03" r="2.5" fill="#2563eb"/>
  <circle cx="293.15" cy="249.99" r="2.5" fill="#2563eb"/>
  <circle cx="294.73" cy="300.26" r="2.5" fill="#2563eb"/>
  <circle cx="296.31" cy="300.01" r="2.5" fill="#2563eb"/>
  <circle cx="297.90" cy="300.01" r="2.5" fill="#2563eb"/>
  <circle cx="299.48" cy="250.03" r="2.5" fill="#2563eb"/>
  <circle cx="301.06" cy="250.03" r="2.5" fill="#2563eb"/>
  <circle cx="302.64" cy="250.03" r="2.5" fill="#2563eb"/>
  <circle cx="304.23" cy="250.03" r="2.5" fill="#2563eb"/>
  <circle cx="305.81" cy="249.99" r="2.5" fill="#2563eb"/>
  <circle cx="307.39" cy="250.03" r="2.5" fill="#2563eb"/>
  <circle cx="308.97" cy="200.00" r="2.5" fill="#2563eb"/>
  <circle cx="310.56" cy="300.26" r="2.5" fill="#2563eb"/>
  <circle cx="312.14" cy="249.99" r="2.5" fill="#2563eb"/>
  <circle cx="313.72" cy="300.01" r="2.5" fill="#2563eb"/>
  <circle cx="315.30" cy="249.94" r="2.5" fill="#2563eb"/>
  <circle cx="316.89" cy="250.03" r="2.5" fill="#2563eb"/>
  <circle cx="318.47" cy="250.03" r="2.5" fill="#2563eb"/>
  <circle cx="320.05" cy="250.03" r="2.5" fill="#2563eb"/>
  <circle cx="321.63" cy="200.04" r="2.5" fill="#2563eb"/>
  <circle cx="323.22" cy="300.01" r="2.5" fill="#2563eb"/>
  <circle cx="324.80" cy="249.90" r="2.5" fill="#2563eb"/>
  <circle cx="326.38" cy="300.01" r="2.5" fill="#2563eb"/>
  <circle cx="327.97" cy="300.01" r="2.5" fill="#2563eb"/>
  <circle cx="329.55" cy="300.06" r="2.5" fill="#2563eb"/>
  <circle cx="331.13" cy="300.01" r="2.5" fill="#2563eb"/>
  <circle cx="332.71" cy="300.01" r="2.5" fill="#2563eb"/>
  <circle cx="334.30" cy="243.95" r="2.5" fill="#2563eb"/>
  <circle cx="335.88" cy="249.94" r="2.5" fill="#2563eb"/>
  <circle cx="337.46" cy="299.97" r="2.5" fill="#2563eb"/>
  <circle cx="339.04" cy="300.01" r="2.5" fill="#2563eb"/>
  <circle cx="340.63" cy="300.01" r="2.5" fill="#2563eb"/>
  <circle cx="342.21" cy="250.03" r="2.5" fill="#2563eb"/>
  <circle cx="343.79" cy="300.01" r="2.5" fill="#2563eb"/>
  <circle cx="345.37" cy="300.01" r="2.5" fill="#2563eb"/>
  <circle cx="346.96" cy="299.97" r="2.5" fill="#2563eb"/>
  <circle cx="348.54" cy="249.99" r="2.5" fill="#2563eb"/>
  <circle cx="350.12" cy="300.01" r="2.5" fill="#2563eb"/>
  <circle cx="351.70" cy="299.93" r="2.5" fill="#2563eb"/>
  <circle cx="353.29" cy="300.01" r="2.5" fill="#2563eb"/>
  <circle cx="354.87" cy="299.93" r="2.5" fill="#2563eb"/>
  <circle cx="356.45" cy="300.01" r="2.5" fill="#2563eb"/>
  <circle cx="358.03" cy="300.01" r="2.5" fill="#2563eb"/>
  <circle cx="359.62" cy="299.89" r="2.5" fill="#2563eb"/>
  <circle cx="361.20" cy="299.97" r="2.5" fill="#2563eb"/>
  <circle cx="362.78" cy="250.03" r="2.5" fill="#2563eb"/>
  <circle cx="364.37" cy="299.93" r="2.5" fill="#2563eb"/>
  <circle cx="365.95" cy="299.89" r="2.5" fill="#2563eb"/>
  <circle cx="367.53" cy="299.97" r="2.5" fill="#2563eb"/>
  <circle cx="369.11" cy="249.94" r="2.5" fill="#2563eb"/>
  <circle cx="370.70" cy="300.01" r="2.5" fill="#2563eb"/>
  <circle cx="372.28" cy="300.01" r="2.5" fill="#2563eb"/>
  <circle cx="373.86" cy="299.97" r="2.5" fill="#2563eb"/>
  <circle cx="375.44" cy="249.99" r="2.5" fill="#2563eb"/>
  <circle cx="377.03" cy="299.97" r="2.5" fill="#2563eb"/>
  <circle cx="378.61" cy="299.97" r="2.5" fill="#2563eb"/>
  <circle cx="380.19" cy="300.06" r="2.5" fill="#2563eb"/>
  <circle cx="381.77" cy="300.06" r="2.5" fill="#2563eb"/>
  <circle cx="383.36" cy="299.93" r="2.5" fill="#2563eb"/>
  <circle cx="384.94" cy="300.01" r="2.5" fill="#2563eb"/>
  <circle cx="386.52" cy="300.01" r="2.5" fill="#2563eb"/>
  <circle cx="388.10" cy="299.93" r="2.5" fill="#2563eb"/>
  <circle cx="389.69" cy="300.01" r="2.5" fill="#2563eb"/>
  <circle cx="391.27" cy="300.01" r="2.5" fill="#2563eb"/>
  <circle cx="392.85" cy="299.97" r="2.5" fill="#2563eb"/>
  <circle cx="394.43" cy="300.01" r="2.5" fill="#2563eb"/>
  <circle cx="396.02" cy="300.01" r="2.5" fill="#2563eb"/>
  <circle cx="397.60" cy="300.01" r="2.5" fill="#2563eb"/>
  <circle cx="399.18" cy="300.01" r="2.5" fill="#2563eb"/>
  <circle cx="400.77" cy="249.86" r="2.5" fill="#2563eb"/>
  <circle cx="402.35" cy="300.01" r="2.5" fill="#2563eb"/>
  <circle cx="403.93" cy="300.10" r="2.5" fill="#2563eb"/>
  <circle cx="405.51" cy="299.93" r="2.5" fill="#2563eb"/>
  <circle cx="407.10" cy="300.01" r="2.5" fill="#2563eb"/>
  <circle cx="408.68" cy="299.93" r="2.5" fill="#2563eb"/>
  <circle cx="410.26" cy="300.01" r="2.5" fill="#2563eb"/>
  <circle cx="411.84" cy="300.01" r="2.5" fill="#2563eb"/>
  <circle cx="413.43" cy="300.01" r="2.5" fill="#2563eb"/>
  <circle cx="415.01" cy="300.01" r="2.5" fill="#2563eb"/>
  <circle cx="416.59" cy="300.01" r="2.5" fill="#2563eb"/>
  <circle cx="418.17" cy="299.97" r="2.5" fill="#2563eb"/>
  <circle cx="419.76" cy="300.01" r="2.5" fill="#2563eb"/>
  <circle cx="421.34" cy="300.01" r="2.5" fill="#2563eb"/>
  <circle cx="422.92" cy="300.01" r="2.5" fill="#2563eb"/>
  <circle cx="424.50" cy="300.01" r="2.5" fill="#2563eb"/>
  <circle cx="426.09" cy="250.03" r="2.5" fill="#2563eb"/>
  <circle cx="427.67" cy="300.01" r="2.5" fill="#2563eb"/>
  <circle cx="429.25" cy="300.01" r="2.5" fill="#2563eb"/>
  <circle cx="430.83" cy="299.97" r="2.5" fill="#2563eb"/>
  <circle cx="432.42" cy="300.01" r="2.5" fill="#2563eb"/>
  <circle cx="434.00" cy="300.01" r="2.5" fill="#2563eb"/>
  <circle cx="435.58" cy="299.97" r="2.5" fill="#2563eb"/>
  <circle cx="437.17" cy="299.97" r="2.5" fill="#2563eb"/>
  <circle cx="438.75" cy="300.01" r="2.5" fill="#2563eb"/>
  <circle cx="440.33" cy="299.97" r="2.5" fill="#2563eb"/>
  <circle cx="441.91" cy="300.01" r="2.5" fill="#2563eb"/>
  <circle cx="443.50" cy="299.93" r="2.5" fill="#2563eb"/>
  <circle cx="445.08" cy="300.01" r="2.5" fill="#2563eb"/>
  <circle cx="446.66" cy="250.03" r="2.5" fill="#2563eb"/>
  <circle cx="448.24" cy="300.01" r="2.5" fill="#2563eb"/>
  <circle cx="449.83" cy="300.01" r="2.5" fill="#2563eb"/>
  <circle cx="451.41" cy="300.01" r="2.5" fill="#2563eb"/>
  <circle cx="452.99" cy="300.01" r="2.5" fill="#2563eb"/>
  <circle cx="454.57" cy="300.01" r="2.5" fill="#2563eb"/>
  <circle cx="456.16" cy="299.89" r="2.5" fill="#2563eb"/>
  <circle cx="457.74" cy="300.01" r="2.5" fill="#2563eb"/>
  <circle cx="459.32" cy="300.01" r="2.5" fill="#2563eb"/>
  <circle cx="460.90" cy="250.07" r="2.5" fill="#2563eb"/>
  <circle cx="462.49" cy="300.01" r="2.5" fill="#2563eb"/>
  <circle cx="464.07" cy="299.93" r="2.5" fill="#2563eb"/>
  <circle cx="465.65" cy="300.01" r="2.5" fill="#2563eb"/>
  <circle cx="467.23" cy="299.97" r="2.5" fill="#2563eb"/>
  <circle cx="468.82" cy="299.97" r="2.5" fill="#2563eb"/>
  <circle cx="470.40" cy="299.97" r="2.5" fill="#2563eb"/>
  <circle cx="471.98" cy="250.03" r="2.5" fill="#2563eb"/>
  <circle cx="473.57" cy="300.01" r="2.5" fill="#2563eb"/>
  <circle cx="475.15" cy="300.01" r="2.5" fill="#2563eb"/>
  <circle cx="476.73" cy="300.01" r="2.5" fill="#2563eb"/>
  <circle cx="478.31" cy="300.01" r="2.5" fill="#2563eb"/>
  <circle cx="479.90" cy="299.97" r="2.5" fill="#2563eb"/>
  <circle cx="481.48" cy="300.01" r="2.5" fill="#2563eb"/>
  <circle cx="483.06" cy="299.97" r="2.5" fill="#2563eb"/>
  <circle cx="484.64" cy="300.01" r="2.5" fill="#2563eb"/>
  <circle cx="486.23" cy="299.97" r="2.5" fill="#2563eb"/>
  <circle cx="487.81" cy="249.90" r="2.5" fill="#2563eb"/>
  <circle cx="489.39" cy="300.01" r="2.5" fill="#2563eb"/>
  <circle cx="490.97" cy="300.01" r="2.5" fill="#2563eb"/>
  <circle cx="492.56" cy="299.89" r="2.5" fill="#2563eb"/>
  <circle cx="494.14" cy="299.97" r="2.5" fill="#2563eb"/>
  <circle cx="495.72" cy="299.97" r="2.5" fill="#2563eb"/>
  <circle cx="497.30" cy="249.99" r="2.5" fill="#2563eb"/>
  <circle cx="498.89" cy="299.97" r="2.5" fill="#2563eb"/>
  <circle cx="500.47" cy="299.89" r="2.5" fill="#2563eb"/>
  <circle cx="502.05" cy="300.01" r="2.5" fill="#2563eb"/>
  <circle cx="503.63" cy="299.97" r="2.5" fill="#2563eb"/>
  <circle cx="505.22" cy="299.97" r="2.5" fill="#2563eb"/>
  <circle cx="506.80" cy="300.01" r="2.5" fill="#2563eb"/>
  <circle cx="508.38" cy="299.97" r="2.5" fill="#2563eb"/>
  <circle cx="509.97" cy="249.99" r="2.5" fill="#2563eb"/>
  <circle cx="511.55" cy="299.97" r="2.5" fill="#2563eb"/>
  <circle cx="513.13" cy="299.97" r="2.5" fill="#2563eb"/>
  <circle cx="514.71" cy="300.06" r="2.5" fill="#2563eb"/>
  <circle cx="516.30" cy="300.06" r="2.5" fill="#2563eb"/>
  <circle cx="517.88" cy="249.94" r="2.5" fill="#2563eb"/>
  <circle cx="519.46" cy="300.01" r="2.5" fill="#2563eb"/>
  <circle cx="521.04" cy="299.93" r="2.5" fill="#2563eb"/>
  <circle cx="522.63" cy="300.01" r="2.5" fill="#2563eb"/>
  <circle cx="524.21" cy="300.01" r="2.5" fill="#2563eb"/>
  <circle cx="525.79" cy="249.99" r="2.5" fill="#2563eb"/>
  <circle cx="527.37" cy="300.01" r="2.5" fill="#2563eb"/>
  <circle cx="528.96" cy="300.01" r="2.5" fill="#2563eb"/>
  <circle cx="530.54" cy="300.01" r="2.5" fill="#2563eb"/>
  <circle cx="532.12" cy="299.93" r="2.5" fill="#2563eb"/>
  <circle cx="533.70" cy="299.93" r="2.5" fill="#2563eb"/>
  <circle cx="535.29" cy="300.01" r="2.5" fill="#2563eb"/>
  <circle cx="536.87" cy="300.01" r="2.5" fill="#2563eb"/>
  <circle cx="538.45" cy="249.94" r="2.5" fill="#2563eb"/>
  <circle cx="540.03" cy="299.97" r="2.5" fill="#2563eb"/>
  <circle cx="541.62" cy="299.97" r="2.5" fill="#2563eb"/>
  <circle cx="543.20" cy="300.01" r="2.5" fill="#2563eb"/>
  <circle cx="544.78" cy="300.01" r="2.5" fill="#2563eb"/>
  <circle cx="546.37" cy="300.01" r="2.5" fill="#2563eb"/>
  <circle cx="547.95" cy="249.99" r="2.5" fill="#2563eb"/>
  <circle cx="549.53" cy="300.01" r="2.5" fill="#2563eb"/>
  <circle cx="551.11" cy="300.01" r="2.5" fill="#2563eb"/>
  <circle cx="552.70" cy="300.01" r="2.5" fill="#2563eb"/>
  <circle cx="554.28" cy="250.03" r="2.5" fill="#2563eb"/>
  <circle cx="555.86" cy="300.01" r="2.5" fill="#2563eb"/>
  <circle cx="557.44" cy="300.01" r="2.5" fill="#2563eb"/>
  <circle cx="559.03" cy="300.01" r="2.5" fill="#2563eb"/>
  <circle cx="560.61" cy="299.97" r="2.5" fill="#2563eb"/>
  <circle cx="562.19" cy="300.01" r="2.5" fill="#2563eb"/>
  <circle cx="563.77" cy="300.01" r="2.5" fill="#2563eb"/>
  <circle cx="565.36" cy="299.97" r="2.5" fill="#2563eb"/>
  <circle cx="566.94" cy="299.97" r="2.5" fill="#2563eb"/>
  <circle cx="568.52" cy="300.01" r="2.5" fill="#2563eb"/>
  <circle cx="570.10" cy="300.01" r="2.5" fill="#2563eb"/>
  <circle cx="571.69" cy="299.97" r="2.5" fill="#2563eb"/>
  <circle cx="573.27" cy="299.93" r="2.5" fill="#2563eb"/>
  <circle cx="574.85" cy="300.01" r="2.5" fill="#2563eb"/>
  <circle cx="576.43" cy="300.06" r="2.5" fill="#2563eb"/>
  <circle cx="578.02" cy="299.97" r="2.5" fill="#2563eb"/>
  <circle cx="579.60" cy="300.01" r="2.5" fill="#2563eb"/>
  <circle cx="581.18" cy="250.03" r="2.5" fill="#2563eb"/>
  <circle cx="582.77" cy="250.03" r="2.5" fill="#2563eb"/>
  <circle cx="584.35" cy="299.93" r="2.5" fill="#2563eb"/>
  <circle cx="585.93" cy="299.97" r="2.5" fill="#2563eb"/>
  <circle cx="587.51" cy="300.01" r="2.5" fill="#2563eb"/>
  <circle cx="589.10" cy="300.01" r="2.5" fill="#2563eb"/>
  <circle cx="590.68" cy="300.06" r="2.5" fill="#2563eb"/>
  <circle cx="592.26" cy="300.01" r="2.5" fill="#2563eb"/>
  <circle cx="593.84" cy="299.93" r="2.5" fill="#2563eb"/>
  <circle cx="595.43" cy="300.01" r="2.5" fill="#2563eb"/>
  <circle cx="597.01" cy="300.01" r="2.5" fill="#2563eb"/>
  <circle cx="598.59" cy="299.97" r="2.5" fill="#2563eb"/>
  <circle cx="600.17" cy="299.97" r="2.5" fill="#2563eb"/>
  <circle cx="601.76" cy="300.01" r="2.5" fill="#2563eb"/>
  <circle cx="603.34" cy="250.03" r="2.5" fill="#2563eb"/>
  <circle cx="604.92" cy="300.01" r="2.5" fill="#2563eb"/>
  <circle cx="606.50" cy="300.01" r="2.5" fill="#2563eb"/>
  <circle cx="608.09" cy="300.01" r="2.5" fill="#2563eb"/>
  <circle cx="609.67" cy="299.97" r="2.5" fill="#2563eb"/>
  <circle cx="611.25" cy="300.01" r="2.5" fill="#2563eb"/>
  <circle cx="612.83" cy="299.97" r="2.5" fill="#2563eb"/>
  <circle cx="614.42" cy="300.01" r="2.5" fill="#2563eb"/>
  <circle cx="616.00" cy="299.97" r="2.5" fill="#2563eb"/>
  <circle cx="617.58" cy="299.97" r="2.5" fill="#2563eb"/>
  <circle cx="619.17" cy="299.93" r="2.5" fill="#2563eb"/>
  <circle cx="620.75" cy="300.01" r="2.5" fill="#2563eb"/>
  <circle cx="622.33" cy="300.01" r="2.5" fill="#2563eb"/>
  <circle cx="623.91" cy="299.89" r="2.5" fill="#2563eb"/>
  <circle cx="625.50" cy="299.97" r="2.5" fill="#2563eb"/>
  <circle cx="627.08" cy="299.97" r="2.5" fill="#2563eb"/>
  <circle cx="628.66" cy="300.06" r="2.5" fill="#2563eb"/>
  <circle cx="630.24" cy="249.90" r="2.5" fill="#2563eb"/>
  <circle cx="631.83" cy="299.89" r="2.5" fill="#2563eb"/>
  <circle cx="633.41" cy="300.01" r="2.5" fill="#2563eb"/>
  <circle cx="634.99" cy="299.97" r="2.5" fill="#2563eb"/>
  <circle cx="636.57" cy="299.97" r="2.5" fill="#2563eb"/>
  <circle cx="638.16" cy="299.97" r="2.5" fill="#2563eb"/>
  <circle cx="639.74" cy="300.01" r="2.5" fill="#2563eb"/>
  <circle cx="641.32" cy="300.01" r="2.5" fill="#2563eb"/>
  <circle cx="642.90" cy="299.97" r="2.5" fill="#2563eb"/>
  <circle cx="644.49" cy="299.97" r="2.5" fill="#2563eb"/>
  <circle cx="646.07" cy="299.97" r="2.5" fill="#2563eb"/>
  <circle cx="647.65" cy="250.03" r="2.5" fill="#2563eb"/>
  <circle cx="649.23" cy="299.93" r="2.5" fill="#2563eb"/>
  <circle cx="650.82" cy="300.01" r="2.5" fill="#2563eb"/>
  <circle cx="652.40" cy="300.01" r="2.5" fill="#2563eb"/>
  <circle cx="653.98" cy="299.93" r="2.5" fill="#2563eb"/>
  <circle cx="655.57" cy="300.01" r="2.5" fill="#2563eb"/>
  <circle cx="657.15" cy="300.01" r="2.5" fill="#2563eb"/>
  <circle cx="658.73" cy="299.97" r="2.5" fill="#2563eb"/>
  <circle cx="660.31" cy="300.01" r="2.5" fill="#2563eb"/>
  <circle cx="661.90" cy="300.01" r="2.5" fill="#2563eb"/>
  <circle cx="663.48" cy="300.06" r="2.5" fill="#2563eb"/>
  <circle cx="665.06" cy="300.01" r="2.5" fill="#2563eb"/>
  <circle cx="666.64" cy="299.97" r="2.5" fill="#2563eb"/>
  <circle cx="668.23" cy="299.89" r="2.5" fill="#2563eb"/>
  <circle cx="669.81" cy="300.01" r="2.5" fill="#2563eb"/>
  <circle cx="671.39" cy="300.01" r="2.5" fill="#2563eb"/>
  <circle cx="672.97" cy="249.94" r="2.5" fill="#2563eb"/>
  <circle cx="674.56" cy="249.94" r="2.5" fill="#2563eb"/>
  <circle cx="676.14" cy="300.01" r="2.5" fill="#2563eb"/>
  <circle cx="677.72" cy="300.01" r="2.5" fill="#2563eb"/>
  <circle cx="679.30" cy="300.01" r="2.5" fill="#2563eb"/>
  <circle cx="680.89" cy="300.01" r="2.5" fill="#2563eb"/>
  <circle cx="682.47" cy="299.97" r="2.5" fill="#2563eb"/>
  <circle cx="684.05" cy="250.03" r="2.5" fill="#2563eb"/>
  <circle cx="685.63" cy="300.01" r="2.5" fill="#2563eb"/>
  <circle cx="687.22" cy="300.01" r="2.5" fill="#2563eb"/>
  <circle cx="688.80" cy="300.01" r="2.5" fill="#2563eb"/>
  <circle cx="690.38" cy="300.01" r="2.5" fill="#2563eb"/>
  <circle cx="691.97" cy="250.03" r="2.5" fill="#2563eb"/>
  <circle cx="693.55" cy="249.99" r="2.5" fill="#2563eb"/>
  <circle cx="695.13" cy="300.01" r="2.5" fill="#2563eb"/>
  <circle cx="696.71" cy="299.97" r="2.5" fill="#2563eb"/>
  <circle cx="698.30" cy="300.01" r="2.5" fill="#2563eb"/>
  <circle cx="699.88" cy="299.97" r="2.5" fill="#2563eb"/>
  <circle cx="701.46" cy="300.01" r="2.5" fill="#2563eb"/>
  <circle cx="703.04" cy="299.97" r="2.5" fill="#2563eb"/>
  <circle cx="704.63" cy="299.97" r="2.5" fill="#2563eb"/>
  <circle cx="706.21" cy="299.97" r="2.5" fill="#2563eb"/>
  <circle cx="707.79" cy="300.06" r="2.5" fill="#2563eb"/>
  <circle cx="709.37" cy="249.99" r="2.5" fill="#2563eb"/>
  <circle cx="710.96" cy="300.01" r="2.5" fill="#2563eb"/>
  <circle cx="712.54" cy="250.03" r="2.5" fill="#2563eb"/>
  <circle cx="714.12" cy="249.94" r="2.5" fill="#2563eb"/>
  <circle cx="715.70" cy="249.99" r="2.5" fill="#2563eb"/>
  <circle cx="717.29" cy="300.01" r="2.5" fill="#2563eb"/>
  <circle cx="718.87" cy="300.06" r="2.5" fill="#2563eb"/>
  <circle cx="720.45" cy="300.01" r="2.5" fill="#2563eb"/>
  <circle cx="722.03" cy="299.97" r="2.5" fill="#2563eb"/>
  <circle cx="723.62" cy="299.97" r="2.5" fill="#2563eb"/>
  <circle cx="725.20" cy="300.01" r="2.5" fill="#2563eb"/>
  <circle cx="726.78" cy="299.93" r="2.5" fill="#2563eb"/>
  <circle cx="728.37" cy="299.89" r="2.5" fill="#2563eb"/>
  <circle cx="729.95" cy="299.89" r="2.5" fill="#2563eb"/>
  <circle cx="731.53" cy="299.89" r="2.5" fill="#2563eb"/>
  <circle cx="733.11" cy="299.89" r="2.5" fill="#2563eb"/>
  <circle cx="734.70" cy="299.85" r="2.5" fill="#2563eb"/>
  <circle cx="736.28" cy="299.85" r="2.5" fill="#2563eb"/>
  <circle cx="737.86" cy="299.89" r="2.5" fill="#2563eb"/>
  <circle cx="739.44" cy="299.81" r="2.5" fill="#2563eb"/>
  <circle cx="741.03" cy="299.81" r="2.5" fill="#2563eb"/>
  <circle cx="742.61" cy="299.81" r="2.5" fill="#2563eb"/>
  <circle cx="744.19" cy="299.76" r="2.5" fill="#2563eb"/>
  <circle cx="745.77" cy="299.76" r="2.5" fill="#2563eb"/>
  <circle cx="747.36" cy="299.76" r="2.5" fill="#2563eb"/>
  <circle cx="748.94" cy="299.72" r="2.5" fill="#2563eb"/>
  <circle cx="750.52" cy="299.68" r="2.5" fill="#2563eb"/>
  <circle cx="752.10" cy="299.60" r="2.5" fill="#2563eb"/>
  <circle cx="753.69" cy="299.60" r="2.5" fill="#2563eb"/>
  <circle cx="755.27" cy="299.60" r="2.5" fill="#2563eb"/>
  <circle cx="756.85" cy="299.56" r="2.5" fill="#2563eb"/>
  <circle cx="758.43" cy="299.47" r="2.5" fill="#2563eb"/>
  <circle cx="760.02" cy="299.43" r="2.5" fill="#2563eb"/>
  <circle cx="761.60" cy="299.43" r="2.5" fill="#2563eb"/>
  <circle cx="763.18" cy="299.39" r="2.5" fill="#2563eb"/>
  <circle cx="764.77" cy="299.47" r="2.5" fill="#2563eb"/>
  <circle cx="766.35" cy="259.82" r="2.5" fill="#2563eb"/>
  <circle cx="767.93" cy="338.96" r="2.5" fill="#2563eb"/>
  <circle cx="769.51" cy="299.31" r="2.5" fill="#2563eb"/>
  <circle cx="771.10" cy="299.31" r="2.5" fill="#2563eb"/>
  <circle cx="772.68" cy="299.26" r="2.5" fill="#2563eb"/>
  <circle cx="774.26" cy="299.68" r="2.5" fill="#2563eb"/>
  <circle cx="775.84" cy="299.68" r="2.5" fill="#2563eb"/>
  <circle cx="777.43" cy="299.68" r="2.5" fill="#2563eb"/>
  <circle cx="779.01" cy="299.64" r="2.5" fill="#2563eb"/>
  <circle cx="780.59" cy="299.14" r="2.5" fill="#2563eb"/>
  <circle cx="782.17" cy="299.14" r="2.5" fill="#2563eb"/>
  <circle cx="783.76" cy="299.10" r="2.5" fill="#2563eb"/>
  <circle cx="785.34" cy="299.10" r="2.5" fill="#2563eb"/>
  <circle cx="786.92" cy="299.10" r="2.5" fill="#2563eb"/>
  <circle cx="788.50" cy="248.07" r="2.5" fill="#2563eb"/>
  <circle cx="790.09" cy="299.06" r="2.5" fill="#2563eb"/>
  <circle cx="791.67" cy="299.06" r="2.5" fill="#2563eb"/>
  <circle cx="793.25" cy="299.06" r="2.5" fill="#2563eb"/>
  <circle cx="794.83" cy="299.06" r="2.5" fill="#2563eb"/>
  <circle cx="796.42" cy="299.06" r="2.5" fill="#2563eb"/>
  <circle cx="798.00" cy="298.97" r="2.5" fill="#2563eb"/>
  <circle cx="799.58" cy="298.97" r="2.5" fill="#2563eb"/>
  <circle cx="801.17" cy="298.93" r="2.5" fill="#2563eb"/>
  <circle cx="802.75" cy="298.97" r="2.5" fill="#2563eb"/>
  <circle cx="804.33" cy="298.93" r="2.5" fill="#2563eb"/>
  <circle cx="805.91" cy="298.89" r="2.5" fill="#2563eb"/>
  <circle cx="807.50" cy="298.89" r="2.5" fill="#2563eb"/>
  <circle cx="809.08" cy="298.89" r="2.5" fill="#2563eb"/>
  <circle cx="810.66" cy="298.89" r="2.5" fill="#2563eb"/>
  <circle cx="812.24" cy="247.78" r="2.5" fill="#2563eb"/>
  <circle cx="813.83" cy="298.89" r="2.5" fill="#2563eb"/>
  <circle cx="815.41" cy="298.89" r="2.5" fill="#2563eb"/>
  <circle cx="816.99" cy="298.85" r="2.5" fill="#2563eb"/>
  <circle cx="818.57" cy="298.85" r="2.5" fill="#2563eb"/>
  <circle cx="820.16" cy="298.81" r="2.5" fill="#2563eb"/>
  <circle cx="821.74" cy="298.81" r="2.5" fill="#2563eb"/>
  <circle cx="823.32" cy="298.81" r="2.5" fill="#2563eb"/>
  <circle cx="824.90" cy="298.81" r="2.5" fill="#2563eb"/>
  <circle cx="826.49" cy="298.81" r="2.5" fill="#2563eb"/>
  <circle cx="828.07" cy="298.81" r="2.5" fill="#2563eb"/>
  <circle cx="829.65" cy="298.81" r="2.5" fill="#2563eb"/>
  <circle cx="831.23" cy="298.81" r="2.5" fill="#2563eb"/>
  <circle cx="832.82" cy="298.81" r="2.5" fill="#2563eb"/>
  <circle cx="834.40" cy="298.72" r="2.5" fill="#2563eb"/>
  <circle cx="835.98" cy="247.45" r="2.5" fill="#2563eb"/>
  <circle cx="837.57" cy="247.45" r="2.5" fill="#2563eb"/>
  <circle cx="839.15" cy="298.72" r="2.5" fill="#2563eb"/>
  <circle cx="840.73" cy="298.72" r="2.5" fill="#2563eb"/>
  <circle cx="842.31" cy="298.72" r="2.5" fill="#2563eb"/>
  <circle cx="843.90" cy="298.72" r="2.5" fill="#2563eb"/>
  <circle cx="845.48" cy="298.72" r="2.5" fill="#2563eb"/>
  <circle cx="847.06" cy="298.72" r="2.5" fill="#2563eb"/>
  <circle cx="848.64" cy="247.36" r="2.5" fill="#2563eb"/>
  <circle cx="850.23" cy="298.68" r="2.5" fill="#2563eb"/>
  <circle cx="851.81" cy="247.36" r="2.5" fill="#2563eb"/>
  <circle cx="853.39" cy="247.36" r="2.5" fill="#2563eb"/>
  <circle cx="854.97" cy="247.36" r="2.5" fill="#2563eb"/>
  <circle cx="856.56" cy="298.68" r="2.5" fill="#2563eb"/>
  <circle cx="858.14" cy="298.68" r="2.5" fill="#2563eb"/>
  <circle cx="859.72" cy="298.68" r="2.5" fill="#2563eb"/>
  <circle cx="861.30" cy="298.68" r="2.5" fill="#2563eb"/>
  <circle cx="862.89" cy="298.68" r="2.5" fill="#2563eb"/>
  <circle cx="864.47" cy="341.67" r="2.5" fill="#2563eb"/>
  <circle cx="866.05" cy="307.01" r="2.5" fill="#2563eb"/>
  <circle cx="867.63" cy="298.68" r="2.5" fill="#2563eb"/>
  <circle cx="869.22" cy="298.68" r="2.5" fill="#2563eb"/>
  <circle cx="870.80" cy="298.68" r="2.5" fill="#2563eb"/>
  <circle cx="872.38" cy="247.36" r="2.5" fill="#2563eb"/>
  <circle cx="873.97" cy="298.64" r="2.5" fill="#2563eb"/>
  <circle cx="875.55" cy="247.36" r="2.5" fill="#2563eb"/>
  <circle cx="877.13" cy="247.28" r="2.5" fill="#2563eb"/>
  <circle cx="878.71" cy="247.20" r="2.5" fill="#2563eb"/>
  <circle cx="880.30" cy="298.60" r="2.5" fill="#2563eb"/>
  <circle cx="881.88" cy="298.60" r="2.5" fill="#2563eb"/>
  <circle cx="883.46" cy="247.03" r="2.5" fill="#2563eb"/>
  <circle cx="885.04" cy="298.51" r="2.5" fill="#2563eb"/>
  <circle cx="886.63" cy="298.51" r="2.5" fill="#2563eb"/>
  <circle cx="888.21" cy="298.51" r="2.5" fill="#2563eb"/>
  <circle cx="889.79" cy="298.51" r="2.5" fill="#2563eb"/>
  <circle cx="891.37" cy="298.51" r="2.5" fill="#2563eb"/>
  <circle cx="892.96" cy="298.51" r="2.5" fill="#2563eb"/>
  <circle cx="894.54" cy="298.51" r="2.5" fill="#2563eb"/>
  <circle cx="896.12" cy="298.51" r="2.5" fill="#2563eb"/>
  <circle cx="897.70" cy="298.51" r="2.5" fill="#2563eb"/>
  <circle cx="899.29" cy="298.51" r="2.5" fill="#2563eb"/>
  <circle cx="900.87" cy="298.51" r="2.5" fill="#2563eb"/>
  <circle cx="902.45" cy="298.51" r="2.5" fill="#2563eb"/>
  <circle cx="904.03" cy="298.51" r="2.5" fill="#2563eb"/>
  <circle cx="905.62" cy="298.51" r="2.5" fill="#2563eb"/>
  <circle cx="907.20" cy="298.51" r="2.5" fill="#2563eb"/>
  <circle cx="908.78" cy="298.51" r="2.5" fill="#2563eb"/>
  <circle cx="910.37" cy="298.51" r="2.5" fill="#2563eb"/>
  <circle cx="911.95" cy="298.51" r="2.5" fill="#2563eb"/>
  <circle cx="913.53" cy="298.51" r="2.5" fill="#2563eb"/>
  <circle cx="915.11" cy="298.51" r="2.5" fill="#2563eb"/>
  <circle cx="916.70" cy="298.51" r="2.5" fill="#2563eb"/>
  <circle cx="918.28" cy="298.51" r="2.5" fill="#2563eb"/>
  <circle cx="919.86" cy="298.51" r="2.5" fill="#2563eb"/>
  <circle cx="921.44" cy="298.51" r="2.5" fill="#2563eb"/>
  <circle cx="923.03" cy="298.51" r="2.5" fill="#2563eb"/>
  <circle cx="924.61" cy="298.51" r="2.5" fill="#2563eb"/>
  <circle cx="926.19" cy="298.47" r="2.5" fill="#2563eb"/>
  <circle cx="927.77" cy="298.51" r="2.5" fill="#2563eb"/>
  <circle cx="929.36" cy="298.51" r="2.5" fill="#2563eb"/>
  <circle cx="930.94" cy="298.47" r="2.5" fill="#2563eb"/>
  <circle cx="932.52" cy="298.51" r="2.5" fill="#2563eb"/>
  <circle cx="934.10" cy="298.47" r="2.5" fill="#2563eb"/>
  <circle cx="935.69" cy="298.51" r="2.5" fill="#2563eb"/>
  <circle cx="937.27" cy="298.43" r="2.5" fill="#2563eb"/>
  <circle cx="938.85" cy="298.56" r="2.5" fill="#2563eb"/>
  <circle cx="940.43" cy="298.43" r="2.5" fill="#2563eb"/>
  <circle cx="942.02" cy="298.43" r="2.5" fill="#2563eb"/>
  <circle cx="943.60" cy="298.43" r="2.5" fill="#2563eb"/>
  <circle cx="945.18" cy="298.43" r="2.5" fill="#2563eb"/>
  <circle cx="946.77" cy="298.43" r="2.5" fill="#2563eb"/>
  <circle cx="948.35" cy="298.43" r="2.5" fill="#2563eb"/>
  <circle cx="949.93" cy="298.43" r="2.5" fill="#2563eb"/>
  <circle cx="951.51" cy="298.43" r="2.5" fill="#2563eb"/>
  <circle cx="953.10" cy="298.43" r="2.5" fill="#2563eb"/>
  <circle cx="954.68" cy="298.43" r="2.5" fill="#2563eb"/>
  <circle cx="956.26" cy="298.43" r="2.5" fill="#2563eb"/>
  <circle cx="957.84" cy="298.43" r="2.5" fill="#2563eb"/>
  <circle cx="959.43" cy="298.43" r="2.5" fill="#2563eb"/>
  <circle cx="961.01" cy="298.43" r="2.5" fill="#2563eb"/>
  <circle cx="962.59" cy="298.43" r="2.5" fill="#2563eb"/>
  <circle cx="964.17" cy="298.43" r="2.5" fill="#2563eb"/>
  <circle cx="965.76" cy="298.43" r="2.5" fill="#2563eb"/>
  <circle cx="967.34" cy="298.43" r="2.5" fill="#2563eb"/>
  <circle cx="968.92" cy="298.43" r="2.5" fill="#2563eb"/>
  <circle cx="970.50" cy="298.43" r="2.5" fill="#2563eb"/>
  <circle cx="972.09" cy="298.43" r="2.5" fill="#2563eb"/>
  <circle cx="973.67" cy="298.43" r="2.5" fill="#2563eb"/>
  <circle cx="975.25" cy="298.43" r="2.5" fill="#2563eb"/>
  <circle cx="976.83" cy="298.43" r="2.5" fill="#2563eb"/>
  <circle cx="978.42" cy="298.43" r="2.5" fill="#2563eb"/>
  <circle cx="980.00" cy="298.43" r="2.5" fill="#2563eb"/>
</svg>
