<?xml version="1.0" encoding="UTF-8"?>
<svg xmlns="http://www.w3.org/2000/svg" width="1000" height="420" viewBox="0 0 1000 420">
  <rect width="100%" height="100%" fill="#ffffff"/>
  <text x="70" y="28" font-size="20" font-weight="600">수집 시점 기준 - 시간별 스냅샷</text>
  <text x="70" y="402" font-size="12" fill="#555">스냅샷 수</text>
  <line x1="70" y1="350.00" x2="980" y2="350.00" stroke="#e5e7eb" stroke-width="1"/>
  <text x="62" y="354.00" font-size="11" fill="#6b7280" text-anchor="end">0</text>
  <line x1="70" y1="290.00" x2="980" y2="290.00" stroke="#e5e7eb" stroke-width="1"/>
  <text x="62" y="294.00" font-size="11" fill="#6b7280" text-anchor="end">1,440</text>
  <line x1="70" y1="230.00" x2="980" y2="230.00" stroke="#e5e7eb" stroke-width="1"/>
  <text x="62" y="234.00" font-size="11" fill="#6b7280" text-anchor="end">2,880</text>
  <line x1="70" y1="170.00" x2="980" y2="170.00" stroke="#e5e7eb" stroke-width="1"/>
  <text x="62" y="174.00" font-size="11" fill="#6b7280" text-anchor="end">4,321</text>
  <line x1="70" y1="110.00" x2="980" y2="110.00" stroke="#e5e7eb" stroke-width="1"/>
  <text x="62" y="114.00" font-size="11" fill="#6b7280" text-anchor="end">5,761</text>
  <line x1="70" y1="50.00" x2="980" y2="50.00" stroke="#e5e7eb" stroke-width="1"/>
  <text x="62" y="54.00" font-size="11" fill="#6b7280" text-anchor="end">7,202</text>
  <line x1="70" y1="350" x2="980" y2="350" stroke="#111827" stroke-width="1.2"/>
  <line x1="70" y1="50" x2="70" y2="350" stroke="#111827" stroke-width="1.2"/>
  <line x1="70.00" y1="350" x2="70.00" y2="356" stroke="#9ca3af" stroke-width="1"/>
  <text x="70.00" y="372" font-size="10" fill="#6b7280" text-anchor="middle">2026-02-28 18</text>
  <line x1="145.67" y1="350" x2="145.67" y2="356" stroke="#9ca3af" stroke-width="1"/>
  <text x="145.67" y="372" font-size="10" fill="#6b7280" text-anchor="middle">2026-03-08 17</text>
  <line x1="221.33" y1="350" x2="221.33" y2="356" stroke="#9ca3af" stroke-width="1"/>
  <text x="221.33" y="372" font-size="10" fill="#6b7280" text-anchor="middle">2026-03-10 10</text>
  <line x1="297.00" y1="350" x2="297.00" y2="356" stroke="#9ca3af" stroke-width="1"/>
  <text x="297.00" y="372" font-size="10" fill="#6b7280" text-anchor="middle">2026-03-12 03</text>
  <line x1="372.67" y1="350" x2="372.67" y2="356" stroke="#9ca3af" stroke-width="1"/>
  <text x="372.67" y="372" font-size="10" fill="#6b7280" text-anchor="middle">2026-03-13 21</text>
  <line x1="448.34" y1="350" x2="448.34" y2="356" stroke="#9ca3af" stroke-width="1"/>
  <text x="448.34" y="372" font-size="10" fill="#6b7280" text-anchor="middle">2026-03-16 00</text>
  <line x1="524.00" y1="350" x2="524.00" y2="356" stroke="#9ca3af" stroke-width="1"/>
  <text x="524.00" y="372" font-size="10" fill="#6b7280" text-anchor="middle">2026-03-18 15</text>
  <line x1="599.67" y1="350" x2="599.67" y2="356" stroke="#9ca3af" stroke-width="1"/>
  <text x="599.67" y="372" font-size="10" fill="#6b7280" text-anchor="middle">2026-03-21 00</text>
  <line x1="675.34" y1="350" x2="675.34" y2="356" stroke="#9ca3af" stroke-width="1"/>
  <text x="675.34" y="372" font-size="10" fill="#6b7280" text-anchor="middle">2026-03-23 01</text>
  <line x1="751.01" y1="350" x2="751.01" y2="356" stroke="#9ca3af" stroke-width="1"/>
  <text x="751.01" y="372" font-size="10" fill="#6b7280" text-anchor="middle">2026-03-25 17</text>
  <line x1="826.67" y1="350" x2="826.67" y2="356" stroke="#9ca3af" stroke-width="1"/>
  <text x="826.67" y="372" font-size="10" fill="#6b7280" text-anchor="middle">2026-03-28 04</text>
  <line x1="902.34" y1="350" x2="902.34" y2="356" stroke="#9ca3af" stroke-width="1"/>
  <text x="902.34" y="372" font-size="10" fill="#6b7280" text-anchor="middle">2026-03-30 20</text>
  <line x1="978.01" y1="350" x2="978.01" y2="356" stroke="#9ca3af" stroke-width="1"/>
  <text x="978.01" y="372" font-size="10" fill="#6b7280" text-anchor="middle">2026-04-02 14</text>
  <line x1="980.00" y1="350" x2="980.00" y2="356" stroke="#9ca3af" stroke-width="1"/>
  <text x="980.00" y="372" font-size="10" fill="#6b7280" text-anchor="middle">2026-04-02 16</text>
  <polyline fill="none" stroke="#2563eb" stroke-width="2.5" points="70.00,50.00 71.99,50.12 73.98,50.17 75.97,50.46 77.96,50.00 79.96,266.90 81.95,50.12 83.94,50.08 85.93,177.46 87.92,211.58 89.91,175.34 91.90,304.14 93.89,200.46 95.89,250.94 97.88,300.01 99.87,300.06 101.86,300.01 103.85,300.01 105.84,348.00 107.83,300.01 109.82,249.99 111.82,200.00 113.81,249.99 115.80,249.99 117.79,250.03 119.78,250.03 121.77,250.03 123.76,250.40 125.75,250.90 127.75,250.90 129.74,251.32 131.73,249.94 133.72,300.01 135.71,299.93 137.70,251.03 139.69,300.68 141.68,250.03 143.68,200.00 145.67,249.99 147.66,250.03 149.65,250.03 151.64,250.03 153.63,300.01 155.62,200.04 157.61,250.03 159.61,250.03 161.60,250.03 163.59,249.90 165.58,250.03 167.57,250.03 169.56,250.94 171.55,250.44 173.54,250.03 175.54,250.03 177.53,300.47 179.52,300.01 181.51,300.43 183.50,250.03 185.49,249.99 187.48,300.43 189.47,249.90 191.47,249.99 193.46,249.99 195.45,200.04 197.44,300.01 199.43,300.01 201.42,300.01 203.41,249.90 205.40,300.01 207.40,250.03 209.39,249.99 211.38,199.96 213.37,300.01 215.36,200.00 217.35,250.36 219.34,250.03 221.33,300.01 223.33,300.01 225.32,250.44 227.31,300.01 229.30,250.03 231.29,250.03 233.28,249.99 235.27,250.49 237.26,250.03 239.26,200.04 241.25,300.01 243.24,250.03 245.23,300.01 247.22,250.11 249.21,300.01 251.20,250.03 253.19,250.03 255.19,199.92 257.18,250.03 259.17,250.03 261.16,250.03 263.15,254.36 265.14,300.01 267.13,299.97 269.12,250.36 271.12,299.97 273.11,250.03 275.10,250.03 277.09,250.03 279.08,250.03 281.07,249.99 283.06,200.00 285.05,299.93 287.05,300.01 289.04,299.97 291.03,249.94 293.02,249.99 295.01,249.82 297.00,249.94 298.99,250.28 300.98,207.00 302.98,250.03 304.97,250.32 306.96,250.40 308.95,300.93 310.94,300.01 312.93,300.10 314.92,249.94 316.91,249.99 318.91,250.07 320.90,249.99 322.89,250.03 324.88,249.94 326.87,200.00 328.86,300.39 330.85,300.01 332.84,300.01 334.84,250.44 336.83,300.39 338.82,249.86 340.81,250.11 342.80,201.46 344.79,300.01 346.78,200.83 348.77,250.03 350.77,249.99 352.76,300.26 354.75,300.01 356.74,300.01 358.73,250.03 360.72,250.03 362.71,250.03 364.70,250.03 366.70,249.99 368.69,250.03 370.68,200.00 372.67,300.26 374.66,249.99 376.65,300.01 378.64,249.94 380.63,250.03 382.63,250.03 384.62,250.03 386.61,200.04 388.60,300.01 390.59,249.90 392.58,300.01 394.57,300.01 396.56,300.06 398.56,300.01 400.55,300.01 402.54,243.95 404.53,249.94 406.52,299.97 408.51,300.01 410.50,300.01 412.49,250.03 414.49,300.01 416.48,300.01 418.47,299.97 420.46,249.99 422.45,300.01 424.44,299.93 426.43,300.01 428.42,299.93 430.42,300.01 432.41,300.01 434.40,299.89 436.39,299.97 438.38,250.03 440.37,299.93 442.36,299.89 444.35,299.97 446.35,249.94 448.34,300.01 450.33,300.01 452.32,299.97 454.31,249.99 456.30,299.97 458.29,299.97 460.28,300.06 462.28,300.06 464.27,299.93 466.26,300.01 468.25,300.01 470.24,299.93 472.23,300.01 474.22,300.01 476.21,299.97 478.21,300.01 480.20,300.01 482.19,300.01 484.18,300.01 486.17,249.86 488.16,300.01 490.15,300.10 492.14,299.93 494.14,300.01 496.13,299.93 498.12,300.01 500.11,300.01 502.10,300.01 504.09,300.01 506.08,300.01 508.07,299.97 510.07,300.01 512.06,300.01 514.05,300.01 516.04,300.01 518.03,250.03 520.02,300.01 522.01,300.01 524.00,299.97 526.00,300.01 527.99,300.01 529.98,299.97 531.97,299.97 533.96,300.01 535.95,299.97 537.94,300.01 539.93,299.93 541.93,300.01 543.92,250.03 545.91,300.01 547.90,300.01 549.89,300.01 551.88,300.01 553.87,300.01 555.86,299.89 557.86,300.01 559.85,300.01 561.84,250.07 563.83,300.01 565.82,299.93 567.81,300.01 569.80,299.97 571.79,299.97 573.79,299.97 575.78,250.03 577.77,300.01 579.76,300.01 581.75,300.01 583.74,300.01 585.73,299.97 587.72,300.01 589.72,299.97 591.71,300.01 593.70,299.97 595.69,249.90 597.68,300.01 599.67,300.01 601.66,299.89 603.65,299.97 605.65,299.97 607.64,249.99 609.63,299.97 611.62,299.89 613.61,300.01 615.60,299.97 617.59,299.97 619.58,300.01 621.58,299.97 623.57,249.99 625.56,299.97 627.55,299.97 629.54,300.06 631.53,300.06 633.52,249.94 635.51,300.01 637.51,299.93 639.50,300.01 641.49,300.01 643.48,249.99 645.47,300.01 647.46,300.01 649.45,300.01 651.44,299.93 653.44,299.93 655.43,300.01 657.42,300.01 659.41,249.94 661.40,299.97 663.39,299.97 665.38,300.01 667.37,300.01 669.37,300.01 671.36,249.99 673.35,300.01 675.34,300.01 677.33,300.01 679.32,250.03 681.31,300.01 683.30,300.01 685.30,300.01 687.29,299.97 689.28,300.01 691.27,300.01 693.26,299.97 695.25,299.97 697.24,300.01 699.23,300.01 701.23,299.97 703.22,299.93 705.21,300.01 707.20,300.06 709.19,299.97 711.18,300.01 713.17,250.03 715.16,250.03 717.16,299.93 719.15,299.97 721.14,300.01 723.13,300.01 725.12,300.06 727.11,300.01 729.10,299.93 731.09,300.01 733.09,300.01 735.08,299.97 737.07,299.97 739.06,300.01 741.05,250.03 743.04,300.01 745.03,300.01 747.02,300.01 749.02,299.97 751.01,300.01 753.00,299.97 754.99,300.01 756.98,299.97 758.97,299.97 760.96,299.93 762.95,300.01 764.95,300.01 766.94,299.89 768.93,299.97 770.92,299.97 772.91,300.06 774.90,249.90 776.89,299.89 778.88,300.01 780.88,299.97 782.87,299.97 784.86,299.97 786.85,300.01 788.84,300.01 790.83,299.97 792.82,299.97 794.81,299.97 796.81,250.03 798.80,299.93 800.79,300.01 802.78,300.01 804.77,299.93 806.76,300.01 808.75,300.01 810.74,299.97 812.74,300.01 814.73,300.01 816.72,300.06 818.71,300.01 820.70,299.97 822.69,299.89 824.68,300.01 826.67,300.01 828.67,249.94 830.66,249.94 832.65,300.01 834.64,300.01 836.63,300.01 838.62,300.01 840.61,299.97 842.60,250.03 844.60,300.01 846.59,300.01 848.58,300.01 850.57,300.01 852.56,250.03 854.55,249.99 856.54,300.01 858.53,299.97 860.53,300.01 862.52,299.97 864.51,300.01 866.50,299.97 868.49,299.97 870.48,299.97 872.47,300.06 874.46,249.99 876.46,300.01 878.45,250.03 880.44,249.94 882.43,249.99 884.42,300.01 886.41,300.06 888.40,300.01 890.39,299.97 892.39,299.97 894.38,300.01 896.37,299.93 898.36,299.89 900.35,299.89 902.34,299.89 904.33,299.89 906.32,299.85 908.32,299.85 910.31,299.89 912.30,299.81 914.29,299.81 916.28,299.81 918.27,299.76 920.26,299.76 922.25,299.76 924.25,299.72 926.24,299.68 928.23,299.60 930.22,299.60 932.21,299.60 934.20,299.56 936.19,299.47 938.18,299.43 940.18,299.43 942.17,299.39 944.16,299.47 946.15,259.82 948.14,338.96 950.13,299.31 952.12,299.31 954.11,299.26 956.11,299.68 958.10,299.68 960.09,299.68 962.08,299.64 964.07,299.14 966.06,299.14 968.05,299.10 970.04,299.10 972.04,299.10 974.03,248.07 976.02,299.06 978.01,299.06 980.00,299.06"/>
  <circle cx="70.00" cy="50.00" r="2.5" fill="#2563eb"/>
  <circle cx="71.99" cy="50.12" r="2.5" fill="#2563eb"/>
  <circle cx="73.98" cy="50.17" r="2.5" fill="#2563eb"/>
  <circle cx="75.97" cy="50.46" r="2.5" fill="#2563eb"/>
  <circle cx="77.96" cy="50.00" r="2.5" fill="#2563eb"/>
  <circle cx="79.96" cy="266.90" r="2.5" fill="#2563eb"/>
  <circle cx="81.95" cy="50.12" r="2.5" fill="#2563eb"/>
  <circle cx="83.94" cy="50.08" r="2.5" fill="#2563eb"/>
  <circle cx="85.93" cy="177.46" r="2.5" fill="#2563eb"/>
  <circle cx="87.92" cy="211.58" r="2.5" fill="#2563eb"/>
  <circle cx="89.91" cy="175.34" r="2.5" fill="#2563eb"/>
  <circle cx="91.90" cy="304.14" r="2.5" fill="#2563eb"/>
  <circle cx="93.89" cy="200.46" r="2.5" fill="#2563eb"/>
  <circle cx="95.89" cy="250.94" r="2.5" fill="#2563eb"/>
  <circle cx="97.88" cy="300.01" r="2.5" fill="#2563eb"/>
  <circle cx="99.87" cy="300.06" r="2.5" fill="#2563eb"/>
  <circle cx="101.86" cy="300.01" r="2.5" fill="#2563eb"/>
  <circle cx="103.85" cy="300.01" r="2.5" fill="#2563eb"/>
  <circle cx="105.84" cy="348.00" r="2.5" fill="#2563eb"/>
  <circle cx="107.83" cy="300.01" r="2.5" fill="#2563eb"/>
  <circle cx="109.82" cy="249.99" r="2.5" fill="#2563eb"/>
  <circle cx="111.82" cy="200.00" r="2.5" fill="#2563eb"/>
  <circle cx="113.81" cy="249.99" r="2.5" fill="#2563eb"/>
  <circle cx="115.80" cy="249.99" r="2.5" fill="#2563eb"/>
  <circle cx="117.79" cy="250.03" r="2.5" fill="#2563eb"/>
  <circle cx="119.78" cy="250.03" r="2.5" fill="#2563eb"/>
  <circle cx="121.77" cy="250.03" r="2.5" fill="#2563eb"/>
  <circle cx="123.76" cy="250.40" r="2.5" fill="#2563eb"/>
  <circle cx="125.75" cy="250.90" r="2.5" fill="#2563eb"/>
  <circle cx="127.75" cy="250.90" r="2.5" fill="#2563eb"/>
  <circle cx="129.74" cy="251.32" r="2.5" fill="#2563eb"/>
  <circle cx="131.73" cy="249.94" r="2.5" fill="#2563eb"/>
  <circle cx="133.72" cy="300.01" r="2.5" fill="#2563eb"/>
  <circle cx="135.71" cy="299.93" r="2.5" fill="#2563eb"/>
  <circle cx="137.70" cy="251.03" r="2.5" fill="#2563eb"/>
  <circle cx="139.69" cy="300.68" r="2.5" fill="#2563eb"/>
  <circle cx="141.68" cy="250.03" r="2.5" fill="#2563eb"/>
  <circle cx="143.68" cy="200.00" r="2.5" fill="#2563eb"/>
  <circle cx="145.67" cy="249.99" r="2.5" fill="#2563eb"/>
  <circle cx="147.66" cy="250.03" r="2.5" fill="#2563eb"/>
  <circle cx="149.65" cy="250.03" r="2.5" fill="#2563eb"/>
  <circle cx="151.64" cy="250.03" r="2.5" fill="#2563eb"/>
  <circle cx="153.63" cy="300.01" r="2.5" fill="#2563eb"/>
  <circle cx="155.62" cy="200.04" r="2.5" fill="#2563eb"/>
  <circle cx="157.61" cy="250.03" r="2.5" fill="#2563eb"/>
  <circle cx="159.61" cy="250.03" r="2.5" fill="#2563eb"/>
  <circle cx="161.60" cy="250.03" r="2.5" fill="#2563eb"/>
  <circle cx="163.59" cy="249.90" r="2.5" fill="#2563eb"/>
  <circle cx="165.58" cy="250.03" r="2.5" fill="#2563eb"/>
  <circle cx="167.57" cy="250.03" r="2.5" fill="#2563eb"/>
  <circle cx="169.56" cy="250.94" r="2.5" fill="#2563eb"/>
  <circle cx="171.55" cy="250.44" r="2.5" fill="#2563eb"/>
  <circle cx="173.54" cy="250.03" r="2.5" fill="#2563eb"/>
  <circle cx="175.54" cy="250.03" r="2.5" fill="#2563eb"/>
  <circle cx="177.53" cy="300.47" r="2.5" fill="#2563eb"/>
  <circle cx="179.52" cy="300.01" r="2.5" fill="#2563eb"/>
  <circle cx="181.51" cy="300.43" r="2.5" fill="#2563eb"/>
  <circle cx="183.50" cy="250.03" r="2.5" fill="#2563eb"/>
  <circle cx="185.49" cy="249.99" r="2.5" fill="#2563eb"/>
  <circle cx="187.48" cy="300.43" r="2.5" fill="#2563eb"/>
  <circle cx="189.47" cy="249.90" r="2.5" fill="#2563eb"/>
  <circle cx="191.47" cy="249.99" r="2.5" fill="#2563eb"/>
  <circle cx="193.46" cy="249.99" r="2.5" fill="#2563eb"/>
  <circle cx="195.45" cy="200.04" r="2.5" fill="#2563eb"/>
  <circle cx="197.44" cy="300.01" r="2.5" fill="#2563eb"/>
  <circle cx="199.43" cy="300.01" r="2.5" fill="#2563eb"/>
  <circle cx="201.42" cy="300.01" r="2.5" fill="#2563eb"/>
  <circle cx="203.41" cy="249.90" r="2.5" fill="#2563eb"/>
  <circle cx="205.40" cy="300.01" r="2.5" fill="#2563eb"/>
  <circle cx="207.40" cy="250.03" r="2.5" fill="#2563eb"/>
  <circle cx="209.39" cy="249.99" r="2.5" fill="#2563eb"/>
  <circle cx="211.38" cy="199.96" r="2.5" fill="#2563eb"/>
  <circle cx="213.37" cy="300.01" r="2.5" fill="#2563eb"/>
  <circle cx="215.36" cy="200.00" r="2.5" fill="#2563eb"/>
  <circle cx="217.35" cy="250.36" r="2.5" fill="#2563eb"/>
  <circle cx="219.34" cy="250.03" r="2.5" fill="#2563eb"/>
  <circle cx="221.33" cy="300.01" r="2.5" fill="#2563eb"/>
  <circle cx="223.33" cy="300.01" r="2.5" fill="#2563eb"/>
  <circle cx="225.32" cy="250.44" r="2.5" fill="#2563eb"/>
  <circle cx="227.31" cy="300.01" r="2.5" fill="#2563eb"/>
  <circle cx="229.30" cy="250.03" r="2.5" fill="#2563eb"/>
  <circle cx="231.29" cy="250.03" r="2.5" fill="#2563eb"/>
  <circle cx="233.28" cy="249.99" r="2.5" fill="#2563eb"/>
  <circle cx="235.27" cy="250.49" r="2.5" fill="#2563eb"/>
  <circle cx="237.26" cy="250.03" r="2.5" fill="#2563eb"/>
  <circle cx="239.26" cy="200.04" r="2.5" fill="#2563eb"/>
  <circle cx="241.25" cy="300.01" r="2.5" fill="#2563eb"/>
  <circle cx="243.24" cy="250.03" r="2.5" fill="#2563eb"/>
  <circle cx="245.23" cy="300.01" r="2.5" fill="#2563eb"/>
  <circle cx="247.22" cy="250.11" r="2.5" fill="#2563eb"/>
  <circle cx="249.21" cy="300.01" r="2.5" fill="#2563eb"/>
  <circle cx="251.20" cy="250.03" r="2.5" fill="#2563eb"/>
  <circle cx="253.19" cy="250.03" r="2.5" fill="#2563eb"/>
  <circle cx="255.19" cy="199.92" r="2.5" fill="#2563eb"/>
  <circle cx="257.18" cy="250.03" r="2.5" fill="#2563eb"/>
  <circle cx="259.17" cy="250.03" r="2.5" fill="#2563eb"/>
  <circle cx="261.16" cy="250.03" r="2.5" fill="#2563eb"/>
  <circle cx="263.15" cy="254.36" r="2.5" fill="#2563eb"/>
  <circle cx="265.14" cy="300.01" r="2.5" fill="#2563eb"/>
  <circle cx="267.13" cy="299.97" r="2.5" fill="#2563eb"/>
  <circle cx="269.12" cy="250.36" r="2.5" fill="#2563eb"/>
  <circle cx="271.12" cy="299.97" r="2.5" fill="#2563eb"/>
  <circle cx="273.11" cy="250.03" r="2.5" fill="#2563eb"/>
  <circle cx="275.10" cy="250.03" r="2.5" fill="#2563eb"/>
  <circle cx="277.09" cy="250.03" r="2.5" fill="#2563eb"/>
  <circle cx="279.08" cy="250.03" r="2.5" fill="#2563eb"/>
  <circle cx="281.07" cy="249.99" r="2.5" fill="#2563eb"/>
  <circle cx="283.06" cy="200.00" r="2.5" fill="#2563eb"/>
  <circle cx="285.05" cy="299.93" r="2.5" fill="#2563eb"/>
  <circle cx="287.05" cy="300.01" r="2.5" fill="#2563eb"/>
  <circle cx="289.04" cy="299.97" r="2.5" fill="#2563eb"/>
  <circle cx="291.03" cy="249.94" r="2.5" fill="#2563eb"/>
  <circle cx="293.02" cy="249.99" r="2.5" fill="#2563eb"/>
  <circle cx="295.01" cy="249.82" r="2.5" fill="#2563eb"/>
  <circle cx="297.00" cy="249.94" r="2.5" fill="#2563eb"/>
  <circle cx="298.99" cy="250.28" r="2.5" fill="#2563eb"/>
  <circle cx="300.98" cy="207.00" r="2.5" fill="#2563eb"/>
  <circle cx="302.98" cy="250.03" r="2.5" fill="#2563eb"/>
  <circle cx="304.97" cy="250.32" r="2.5" fill="#2563eb"/>
  <circle cx="306.96" cy="250.40" r="2.5" fill="#2563eb"/>
  <circle cx="308.95" cy="300.93" r="2.5" fill="#2563eb"/>
  <circle cx="310.94" cy="300.01" r="2.5" fill="#2563eb"/>
  <circle cx="312.93" cy="300.10" r="2.5" fill="#2563eb"/>
  <circle cx="314.92" cy="249.94" r="2.5" fill="#2563eb"/>
  <circle cx="316.91" cy="249.99" r="2.5" fill="#2563eb"/>
  <circle cx="318.91" cy="250.07" r="2.5" fill="#2563eb"/>
  <circle cx="320.90" cy="249.99" r="2.5" fill="#2563eb"/>
  <circle cx="322.89" cy="250.03" r="2.5" fill="#2563eb"/>
  <circle cx="324.88" cy="249.94" r="2.5" fill="#2563eb"/>
  <circle cx="326.87" cy="200.00" r="2.5" fill="#2563eb"/>
  <circle cx="328.86" cy="300.39" r="2.5" fill="#2563eb"/>
  <circle cx="330.85" cy="300.01" r="2.5" fill="#2563eb"/>
  <circle cx="332.84" cy="300.01" r="2.5" fill="#2563eb"/>
  <circle cx="334.84" cy="250.44" r="2.5" fill="#2563eb"/>
  <circle cx="336.83" cy="300.39" r="2.5" fill="#2563eb"/>
  <circle cx="338.82" cy="249.86" r="2.5" fill="#2563eb"/>
  <circle cx="340.81" cy="250.11" r="2.5" fill="#2563eb"/>
  <circle cx="342.80" cy="201.46" r="2.5" fill="#2563eb"/>
  <circle cx="344.79" cy="300.01" r="2.5" fill="#2563eb"/>
  <circle cx="346.78" cy="200.83" r="2.5" fill="#2563eb"/>
  <circle cx="348.77" cy="250.03" r="2.5" fill="#2563eb"/>
  <circle cx="350.77" cy="249.99" r="2.5" fill="#2563eb"/>
  <circle cx="352.76" cy="300.26" r="2.5" fill="#2563eb"/>
  <circle cx="354.75" cy="300.01" r="2.5" fill="#2563eb"/>
  <circle cx="356.74" cy="300.01" r="2.5" fill="#2563eb"/>
  <circle cx="358.73" cy="250.03" r="2.5" fill="#2563eb"/>
  <circle cx="360.72" cy="250.03" r="2.5" fill="#2563eb"/>
  <circle cx="362.71" cy="250.03" r="2.5" fill="#2563eb"/>
  <circle cx="364.70" cy="250.03" r="2.5" fill="#2563eb"/>
  <circle cx="366.70" cy="249.99" r="2.5" fill="#2563eb"/>
  <circle cx="368.69" cy="250.03" r="2.5" fill="#2563eb"/>
  <circle cx="370.68" cy="200.00" r="2.5" fill="#2563eb"/>
  <circle cx="372.67" cy="300.26" r="2.5" fill="#2563eb"/>
  <circle cx="374.66" cy="249.99" r="2.5" fill="#2563eb"/>
  <circle cx="376.65" cy="300.01" r="2.5" fill="#2563eb"/>
  <circle cx="378.64" cy="249.94" r="2.5" fill="#2563eb"/>
  <circle cx="380.63" cy="250.03" r="2.5" fill="#2563eb"/>
  <circle cx="382.63" cy="250.03" r="2.5" fill="#2563eb"/>
  <circle cx="384.62" cy="250.03" r="2.5" fill="#2563eb"/>
  <circle cx="386.61" cy="200.04" r="2.5" fill="#2563eb"/>
  <circle cx="388.60" cy="300.01" r="2.5" fill="#2563eb"/>
  <circle cx="390.59" cy="249.90" r="2.5" fill="#2563eb"/>
  <circle cx="392.58" cy="300.01" r="2.5" fill="#2563eb"/>
  <circle cx="394.57" cy="300.01" r="2.5" fill="#2563eb"/>
  <circle cx="396.56" cy="300.06" r="2.5" fill="#2563eb"/>
  <circle cx="398.56" cy="300.01" r="2.5" fill="#2563eb"/>
  <circle cx="400.55" cy="300.01" r="2.5" fill="#2563eb"/>
  <circle cx="402.54" cy="243.95" r="2.5" fill="#2563eb"/>
  <circle cx="404.53" cy="249.94" r="2.5" fill="#2563eb"/>
  <circle cx="406.52" cy="299.97" r="2.5" fill="#2563eb"/>
  <circle cx="408.51" cy="300.01" r="2.5" fill="#2563eb"/>
  <circle cx="410.50" cy="300.01" r="2.5" fill="#2563eb"/>
  <circle cx="412.49" cy="250.03" r="2.5" fill="#2563eb"/>
  <circle cx="414.49" cy="300.01" r="2.5" fill="#2563eb"/>
  <circle cx="416.48" cy="300.01" r="2.5" fill="#2563eb"/>
  <circle cx="418.47" cy="299.97" r="2.5" fill="#2563eb"/>
  <circle cx="420.46" cy="249.99" r="2.5" fill="#2563eb"/>
  <circle cx="422.45" cy="300.01" r="2.5" fill="#2563eb"/>
  <circle cx="424.44" cy="299.93" r="2.5" fill="#2563eb"/>
  <circle cx="426.43" cy="300.01" r="2.5" fill="#2563eb"/>
  <circle cx="428.42" cy="299.93" r="2.5" fill="#2563eb"/>
  <circle cx="430.42" cy="300.01" r="2.5" fill="#2563eb"/>
  <circle cx="432.41" cy="300.01" r="2.5" fill="#2563eb"/>
  <circle cx="434.40" cy="299.89" r="2.5" fill="#2563eb"/>
  <circle cx="436.39" cy="299.97" r="2.5" fill="#2563eb"/>
  <circle cx="438.38" cy="250.03" r="2.5" fill="#2563eb"/>
  <circle cx="440.37" cy="299.93" r="2.5" fill="#2563eb"/>
  <circle cx="442.36" cy="299.89" r="2.5" fill="#2563eb"/>
  <circle cx="444.35" cy="299.97" r="2.5" fill="#2563eb"/>
  <circle cx="446.35" cy="249.94" r="2.5" fill="#2563eb"/>
  <circle cx="448.34" cy="300.01" r="2.5" fill="#2563eb"/>
  <circle cx="450.33" cy="300.01" r="2.5" fill="#2563eb"/>
  <circle cx="452.32" cy="299.97" r="2.5" fill="#2563eb"/>
  <circle cx="454.31" cy="249.99" r="2.5" fill="#2563eb"/>
  <circle cx="456.30" cy="299.97" r="2.5" fill="#2563eb"/>
  <circle cx="458.29" cy="299.97" r="2.5" fill="#2563eb"/>
  <circle cx="460.28" cy="300.06" r="2.5" fill="#2563eb"/>
  <circle cx="462.28" cy="300.06" r="2.5" fill="#2563eb"/>
  <circle cx="464.27" cy="299.93" r="2.5" fill="#2563eb"/>
  <circle cx="466.26" cy="300.01" r="2.5" fill="#2563eb"/>
  <circle cx="468.25" cy="300.01" r="2.5" fill="#2563eb"/>
  <circle cx="470.24" cy="299.93" r="2.5" fill="#2563eb"/>
  <circle cx="472.23" cy="300.01" r="2.5" fill="#2563eb"/>
  <circle cx="474.22" cy="300.01" r="2.5" fill="#2563eb"/>
  <circle cx="476.21" cy="299.97" r="2.5" fill="#2563eb"/>
  <circle cx="478.21" cy="300.01" r="2.5" fill="#2563eb"/>
  <circle cx="480.20" cy="300.01" r="2.5" fill="#2563eb"/>
  <circle cx="482.19" cy="300.01" r="2.5" fill="#2563eb"/>
  <circle cx="484.18" cy="300.01" r="2.5" fill="#2563eb"/>
  <circle cx="486.17" cy="249.86" r="2.5" fill="#2563eb"/>
  <circle cx="488.16" cy="300.01" r="2.5" fill="#2563eb"/>
  <circle cx="490.15" cy="300.10" r="2.5" fill="#2563eb"/>
  <circle cx="492.14" cy="299.93" r="2.5" fill="#2563eb"/>
  <circle cx="494.14" cy="300.01" r="2.5" fill="#2563eb"/>
  <circle cx="496.13" cy="299.93" r="2.5" fill="#2563eb"/>
  <circle cx="498.12" cy="300.01" r="2.5" fill="#2563eb"/>
  <circle cx="500.11" cy="300.01" r="2.5" fill="#2563eb"/>
  <circle cx="502.10" cy="300.01" r="2.5" fill="#2563eb"/>
  <circle cx="504.09" cy="300.01" r="2.5" fill="#2563eb"/>
  <circle cx="506.08" cy="300.01" r="2.5" fill="#2563eb"/>
  <circle cx="508.07" cy="299.97" r="2.5" fill="#2563eb"/>
  <circle cx="510.07" cy="300.01" r="2.5" fill="#2563eb"/>
  <circle cx="512.06" cy="300.01" r="2.5" fill="#2563eb"/>
  <circle cx="514.05" cy="300.01" r="2.5" fill="#2563eb"/>
  <circle cx="516.04" cy="300.01" r="2.5" fill="#2563eb"/>
  <circle cx="518.03" cy="250.03" r="2.5" fill="#2563eb"/>
  <circle cx="520.02" cy="300.01" r="2.5" fill="#2563eb"/>
  <circle cx="522.01" cy="300.01" r="2.5" fill="#2563eb"/>
  <circle cx="524.00" cy="299.97" r="2.5" fill="#2563eb"/>
  <circle cx="526.00" cy="300.01" r="2.5" fill="#2563eb"/>
  <circle cx="527.99" cy="300.01" r="2.5" fill="#2563eb"/>
  <circle cx="529.98" cy="299.97" r="2.5" fill="#2563eb"/>
  <circle cx="531.97" cy="299.97" r="2.5" fill="#2563eb"/>
  <circle cx="533.96" cy="300.01" r="2.5" fill="#2563eb"/>
  <circle cx="535.95" cy="299.97" r="2.5" fill="#2563eb"/>
  <circle cx="537.94" cy="300.01" r="2.5" fill="#2563eb"/>
  <circle cx="539.93" cy="299.93" r="2.5" fill="#2563eb"/>
  <circle cx="541.93" cy="300.01" r="2.5" fill="#2563eb"/>
  <circle cx="543.92" cy="250.03" r="2.5" fill="#2563eb"/>
  <circle cx="545.91" cy="300.01" r="2.5" fill="#2563eb"/>
  <circle cx="547.90" cy="300.01" r="2.5" fill="#2563eb"/>
  <circle cx="549.89" cy="300.01" r="2.5" fill="#2563eb"/>
  <circle cx="551.88" cy="300.01" r="2.5" fill="#2563eb"/>
  <circle cx="553.87" cy="300.01" r="2.5" fill="#2563eb"/>
  <circle cx="555.86" cy="299.89" r="2.5" fill="#2563eb"/>
  <circle cx="557.86" cy="300.01" r="2.5" fill="#2563eb"/>
  <circle cx="559.85" cy="300.01" r="2.5" fill="#2563eb"/>
  <circle cx="561.84" cy="250.07" r="2.5" fill="#2563eb"/>
  <circle cx="563.83" cy="300.01" r="2.5" fill="#2563eb"/>
  <circle cx="565.82" cy="299.93" r="2.5" fill="#2563eb"/>
  <circle cx="567.81" cy="300.01" r="2.5" fill="#2563eb"/>
  <circle cx="569.80" cy="299.97" r="2.5" fill="#2563eb"/>
  <circle cx="571.79" cy="299.97" r="2.5" fill="#2563eb"/>
  <circle cx="573.79" cy="299.97" r="2.5" fill="#2563eb"/>
  <circle cx="575.78" cy="250.03" r="2.5" fill="#2563eb"/>
  <circle cx="577.77" cy="300.01" r="2.5" fill="#2563eb"/>
  <circle cx="579.76" cy="300.01" r="2.5" fill="#2563eb"/>
  <circle cx="581.75" cy="300.01" r="2.5" fill="#2563eb"/>
  <circle cx="583.74" cy="300.01" r="2.5" fill="#2563eb"/>
  <circle cx="585.73" cy="299.97" r="2.5" fill="#2563eb"/>
  <circle cx="587.72" cy="300.01" r="2.5" fill="#2563eb"/>
  <circle cx="589.72" cy="299.97" r="2.5" fill="#2563eb"/>
  <circle cx="591.71" cy="300.01" r="2.5" fill="#2563eb"/>
  <circle cx="593.70" cy="299.97" r="2.5" fill="#2563eb"/>
  <circle cx="595.69" cy="249.90" r="2.5" fill="#2563eb"/>
  <circle cx="597.68" cy="300.01" r="2.5" fill="#2563eb"/>
  <circle cx="599.67" cy="300.01" r="2.5" fill="#2563eb"/>
  <circle cx="601.66" cy="299.89" r="2.5" fill="#2563eb"/>
  <circle cx="603.65" cy="299.97" r="2.5" fill="#2563eb"/>
  <circle cx="605.65" cy="299.97" r="2.5" fill="#2563eb"/>
  <circle cx="607.64" cy="249.99" r="2.5" fill="#2563eb"/>
  <circle cx="609.63" cy="299.97" r="2.5" fill="#2563eb"/>
  <circle cx="611.62" cy="299.89" r="2.5" fill="#2563eb"/>
  <circle cx="613.61" cy="300.01" r="2.5" fill="#2563eb"/>
  <circle cx="615.60" cy="299.97" r="2.5" fill="#2563eb"/>
  <circle cx="617.59" cy="299.97" r="2.5" fill="#2563eb"/>
  <circle cx="619.58" cy="300.01" r="2.5" fill="#2563eb"/>
  <circle cx="621.58" cy="299.97" r="2.5" fill="#2563eb"/>
  <circle cx="623.57" cy="249.99" r="2.5" fill="#2563eb"/>
  <circle cx="625.56" cy="299.97" r="2.5" fill="#2563eb"/>
  <circle cx="627.55" cy="299.97" r="2.5" fill="#2563eb"/>
  <circle cx="629.54" cy="300.06" r="2.5" fill="#2563eb"/>
  <circle cx="631.53" cy="300.06" r="2.5" fill="#2563eb"/>
  <circle cx="633.52" cy="249.94" r="2.5" fill="#2563eb"/>
  <circle cx="635.51" cy="300.01" r="2.5" fill="#2563eb"/>
  <circle cx="637.51" cy="299.93" r="2.5" fill="#2563eb"/>
  <circle cx="639.50" cy="300.01" r="2.5" fill="#2563eb"/>
  <circle cx="641.49" cy="300.01" r="2.5" fill="#2563eb"/>
  <circle cx="643.48" cy="249.99" r="2.5" fill="#2563eb"/>
  <circle cx="645.47" cy="300.01" r="2.5" fill="#2563eb"/>
  <circle cx="647.46" cy="300.01" r="2.5" fill="#2563eb"/>
  <circle cx="649.45" cy="300.01" r="2.5" fill="#2563eb"/>
  <circle cx="651.44" cy="299.93" r="2.5" fill="#2563eb"/>
  <circle cx="653.44" cy="299.93" r="2.5" fill="#2563eb"/>
  <circle cx="655.43" cy="300.01" r="2.5" fill="#2563eb"/>
  <circle cx="657.42" cy="300.01" r="2.5" fill="#2563eb"/>
  <circle cx="659.41" cy="249.94" r="2.5" fill="#2563eb"/>
  <circle cx="661.40" cy="299.97" r="2.5" fill="#2563eb"/>
  <circle cx="663.39" cy="299.97" r="2.5" fill="#2563eb"/>
  <circle cx="665.38" cy="300.01" r="2.5" fill="#2563eb"/>
  <circle cx="667.37" cy="300.01" r="2.5" fill="#2563eb"/>
  <circle cx="669.37" cy="300.01" r="2.5" fill="#2563eb"/>
  <circle cx="671.36" cy="249.99" r="2.5" fill="#2563eb"/>
  <circle cx="673.35" cy="300.01" r="2.5" fill="#2563eb"/>
  <circle cx="675.34" cy="300.01" r="2.5" fill="#2563eb"/>
  <circle cx="677.33" cy="300.01" r="2.5" fill="#2563eb"/>
  <circle cx="679.32" cy="250.03" r="2.5" fill="#2563eb"/>
  <circle cx="681.31" cy="300.01" r="2.5" fill="#2563eb"/>
  <circle cx="683.30" cy="300.01" r="2.5" fill="#2563eb"/>
  <circle cx="685.30" cy="300.01" r="2.5" fill="#2563eb"/>
  <circle cx="687.29" cy="299.97" r="2.5" fill="#2563eb"/>
  <circle cx="689.28" cy="300.01" r="2.5" fill="#2563eb"/>
  <circle cx="691.27" cy="300.01" r="2.5" fill="#2563eb"/>
  <circle cx="693.26" cy="299.97" r="2.5" fill="#2563eb"/>
  <circle cx="695.25" cy="299.97" r="2.5" fill="#2563eb"/>
  <circle cx="697.24" cy="300.01" r="2.5" fill="#2563eb"/>
  <circle cx="699.23" cy="300.01" r="2.5" fill="#2563eb"/>
  <circle cx="701.23" cy="299.97" r="2.5" fill="#2563eb"/>
  <circle cx="703.22" cy="299.93" r="2.5" fill="#2563eb"/>
  <circle cx="705.21" cy="300.01" r="2.5" fill="#2563eb"/>
  <circle cx="707.20" cy="300.06" r="2.5" fill="#2563eb"/>
  <circle cx="709.19" cy="299.97" r="2.5" fill="#2563eb"/>
  <circle cx="711.18" cy="300.01" r="2.5" fill="#2563eb"/>
  <circle cx="713.17" cy="250.03" r="2.5" fill="#2563eb"/>
  <circle cx="715.16" cy="250.03" r="2.5" fill="#2563eb"/>
  <circle cx="717.16" cy="299.93" r="2.5" fill="#2563eb"/>
  <circle cx="719.15" cy="299.97" r="2.5" fill="#2563eb"/>
  <circle cx="721.14" cy="300.01" r="2.5" fill="#2563eb"/>
  <circle cx="723.13" cy="300.01" r="2.5" fill="#2563eb"/>
  <circle cx="725.12" cy="300.06" r="2.5" fill="#2563eb"/>
  <circle cx="727.11" cy="300.01" r="2.5" fill="#2563eb"/>
  <circle cx="729.10" cy="299.93" r="2.5" fill="#2563eb"/>
  <circle cx="731.09" cy="300.01" r="2.5" fill="#2563eb"/>
  <circle cx="733.09" cy="300.01" r="2.5" fill="#2563eb"/>
  <circle cx="735.08" cy="299.97" r="2.5" fill="#2563eb"/>
  <circle cx="737.07" cy="299.97" r="2.5" fill="#2563eb"/>
  <circle cx="739.06" cy="300.01" r="2.5" fill="#2563eb"/>
  <circle cx="741.05" cy="250.03" r="2.5" fill="#2563eb"/>
  <circle cx="743.04" cy="300.01" r="2.5" fill="#2563eb"/>
  <circle cx="745.03" cy="300.01" r="2.5" fill="#2563eb"/>
  <circle cx="747.02" cy="300.01" r="2.5" fill="#2563eb"/>
  <circle cx="749.02" cy="299.97" r="2.5" fill="#2563eb"/>
  <circle cx="751.01" cy="300.01" r="2.5" fill="#2563eb"/>
  <circle cx="753.00" cy="299.97" r="2.5" fill="#2563eb"/>
  <circle cx="754.99" cy="300.01" r="2.5" fill="#2563eb"/>
  <circle cx="756.98" cy="299.97" r="2.5" fill="#2563eb"/>
  <circle cx="758.97" cy="299.97" r="2.5" fill="#2563eb"/>
  <circle cx="760.96" cy="299.93" r="2.5" fill="#2563eb"/>
  <circle cx="762.95" cy="300.01" r="2.5" fill="#2563eb"/>
  <circle cx="764.95" cy="300.01" r="2.5" fill="#2563eb"/>
  <circle cx="766.94" cy="299.89" r="2.5" fill="#2563eb"/>
  <circle cx="768.93" cy="299.97" r="2.5" fill="#2563eb"/>
  <circle cx="770.92" cy="299.97" r="2.5" fill="#2563eb"/>
  <circle cx="772.91" cy="300.06" r="2.5" fill="#2563eb"/>
  <circle cx="774.90" cy="249.90" r="2.5" fill="#2563eb"/>
  <circle cx="776.89" cy="299.89" r="2.5" fill="#2563eb"/>
  <circle cx="778.88" cy="300.01" r="2.5" fill="#2563eb"/>
  <circle cx="780.88" cy="299.97" r="2.5" fill="#2563eb"/>
  <circle cx="782.87" cy="299.97" r="2.5" fill="#2563eb"/>
  <circle cx="784.86" cy="299.97" r="2.5" fill="#2563eb"/>
  <circle cx="786.85" cy="300.01" r="2.5" fill="#2563eb"/>
  <circle cx="788.84" cy="300.01" r="2.5" fill="#2563eb"/>
  <circle cx="790.83" cy="299.97" r="2.5" fill="#2563eb"/>
  <circle cx="792.82" cy="299.97" r="2.5" fill="#2563eb"/>
  <circle cx="794.81" cy="299.97" r="2.5" fill="#2563eb"/>
  <circle cx="796.81" cy="250.03" r="2.5" fill="#2563eb"/>
  <circle cx="798.80" cy="299.93" r="2.5" fill="#2563eb"/>
  <circle cx="800.79" cy="300.01" r="2.5" fill="#2563eb"/>
  <circle cx="802.78" cy="300.01" r="2.5" fill="#2563eb"/>
  <circle cx="804.77" cy="299.93" r="2.5" fill="#2563eb"/>
  <circle cx="806.76" cy="300.01" r="2.5" fill="#2563eb"/>
  <circle cx="808.75" cy="300.01" r="2.5" fill="#2563eb"/>
  <circle cx="810.74" cy="299.97" r="2.5" fill="#2563eb"/>
  <circle cx="812.74" cy="300.01" r="2.5" fill="#2563eb"/>
  <circle cx="814.73" cy="300.01" r="2.5" fill="#2563eb"/>
  <circle cx="816.72" cy="300.06" r="2.5" fill="#2563eb"/>
  <circle cx="818.71" cy="300.01" r="2.5" fill="#2563eb"/>
  <circle cx="820.70" cy="299.97" r="2.5" fill="#2563eb"/>
  <circle cx="822.69" cy="299.89" r="2.5" fill="#2563eb"/>
  <circle cx="824.68" cy="300.01" r="2.5" fill="#2563eb"/>
  <circle cx="826.67" cy="300.01" r="2.5" fill="#2563eb"/>
  <circle cx="828.67" cy="249.94" r="2.5" fill="#2563eb"/>
  <circle cx="830.66" cy="249.94" r="2.5" fill="#2563eb"/>
  <circle cx="832.65" cy="300.01" r="2.5" fill="#2563eb"/>
  <circle cx="834.64" cy="300.01" r="2.5" fill="#2563eb"/>
  <circle cx="836.63" cy="300.01" r="2.5" fill="#2563eb"/>
  <circle cx="838.62" cy="300.01" r="2.5" fill="#2563eb"/>
  <circle cx="840.61" cy="299.97" r="2.5" fill="#2563eb"/>
  <circle cx="842.60" cy="250.03" r="2.5" fill="#2563eb"/>
  <circle cx="844.60" cy="300.01" r="2.5" fill="#2563eb"/>
  <circle cx="846.59" cy="300.01" r="2.5" fill="#2563eb"/>
  <circle cx="848.58" cy="300.01" r="2.5" fill="#2563eb"/>
  <circle cx="850.57" cy="300.01" r="2.5" fill="#2563eb"/>
  <circle cx="852.56" cy="250.03" r="2.5" fill="#2563eb"/>
  <circle cx="854.55" cy="249.99" r="2.5" fill="#2563eb"/>
  <circle cx="856.54" cy="300.01" r="2.5" fill="#2563eb"/>
  <circle cx="858.53" cy="299.97" r="2.5" fill="#2563eb"/>
  <circle cx="860.53" cy="300.01" r="2.5" fill="#2563eb"/>
  <circle cx="862.52" cy="299.97" r="2.5" fill="#2563eb"/>
  <circle cx="864.51" cy="300.01" r="2.5" fill="#2563eb"/>
  <circle cx="866.50" cy="299.97" r="2.5" fill="#2563eb"/>
  <circle cx="868.49" cy="299.97" r="2.5" fill="#2563eb"/>
  <circle cx="870.48" cy="299.97" r="2.5" fill="#2563eb"/>
  <circle cx="872.47" cy="300.06" r="2.5" fill="#2563eb"/>
  <circle cx="874.46" cy="249.99" r="2.5" fill="#2563eb"/>
  <circle cx="876.46" cy="300.01" r="2.5" fill="#2563eb"/>
  <circle cx="878.45" cy="250.03" r="2.5" fill="#2563eb"/>
  <circle cx="880.44" cy="249.94" r="2.5" fill="#2563eb"/>
  <circle cx="882.43" cy="249.99" r="2.5" fill="#2563eb"/>
  <circle cx="884.42" cy="300.01" r="2.5" fill="#2563eb"/>
  <circle cx="886.41" cy="300.06" r="2.5" fill="#2563eb"/>
  <circle cx="888.40" cy="300.01" r="2.5" fill="#2563eb"/>
  <circle cx="890.39" cy="299.97" r="2.5" fill="#2563eb"/>
  <circle cx="892.39" cy="299.97" r="2.5" fill="#2563eb"/>
  <circle cx="894.38" cy="300.01" r="2.5" fill="#2563eb"/>
  <circle cx="896.37" cy="299.93" r="2.5" fill="#2563eb"/>
  <circle cx="898.36" cy="299.89" r="2.5" fill="#2563eb"/>
  <circle cx="900.35" cy="299.89" r="2.5" fill="#2563eb"/>
  <circle cx="902.34" cy="299.89" r="2.5" fill="#2563eb"/>
  <circle cx="904.33" cy="299.89" r="2.5" fill="#2563eb"/>
  <circle cx="906.32" cy="299.85" r="2.5" fill="#2563eb"/>
  <circle cx="908.32" cy="299.85" r="2.5" fill="#2563eb"/>
  <circle cx="910.31" cy="299.89" r="2.5" fill="#2563eb"/>
  <circle cx="912.30" cy="299.81" r="2.5" fill="#2563eb"/>
  <circle cx="914.29" cy="299.81" r="2.5" fill="#2563eb"/>
  <circle cx="916.28" cy="299.81" r="2.5" fill="#2563eb"/>
  <circle cx="918.27" cy="299.76" r="2.5" fill="#2563eb"/>
  <circle cx="920.26" cy="299.76" r="2.5" fill="#2563eb"/>
  <circle cx="922.25" cy="299.76" r="2.5" fill="#2563eb"/>
  <circle cx="924.25" cy="299.72" r="2.5" fill="#2563eb"/>
  <circle cx="926.24" cy="299.68" r="2.5" fill="#2563eb"/>
  <circle cx="928.23" cy="299.60" r="2.5" fill="#2563eb"/>
  <circle cx="930.22" cy="299.60" r="2.5" fill="#2563eb"/>
  <circle cx="932.21" cy="299.60" r="2.5" fill="#2563eb"/>
  <circle cx="934.20" cy="299.56" r="2.5" fill="#2563eb"/>
  <circle cx="936.19" cy="299.47" r="2.5" fill="#2563eb"/>
  <circle cx="938.18" cy="299.43" r="2.5" fill="#2563eb"/>
  <circle cx="940.18" cy="299.43" r="2.5" fill="#2563eb"/>
  <circle cx="942.17" cy="299.39" r="2.5" fill="#2563eb"/>
  <circle cx="944.16" cy="299.47" r="2.5" fill="#2563eb"/>
  <circle cx="946.15" cy="259.82" r="2.5" fill="#2563eb"/>
  <circle cx="948.14" cy="338.96" r="2.5" fill="#2563eb"/>
  <circle cx="950.13" cy="299.31" r="2.5" fill="#2563eb"/>
  <circle cx="952.12" cy="299.31" r="2.5" fill="#2563eb"/>
  <circle cx="954.11" cy="299.26" r="2.5" fill="#2563eb"/>
  <circle cx="956.11" cy="299.68" r="2.5" fill="#2563eb"/>
  <circle cx="958.10" cy="299.68" r="2.5" fill="#2563eb"/>
  <circle cx="960.09" cy="299.68" r="2.5" fill="#2563eb"/>
  <circle cx="962.08" cy="299.64" r="2.5" fill="#2563eb"/>
  <circle cx="964.07" cy="299.14" r="2.5" fill="#2563eb"/>
  <circle cx="966.06" cy="299.14" r="2.5" fill="#2563eb"/>
  <circle cx="968.05" cy="299.10" r="2.5" fill="#2563eb"/>
  <circle cx="970.04" cy="299.10" r="2.5" fill="#2563eb"/>
  <circle cx="972.04" cy="299.10" r="2.5" fill="#2563eb"/>
  <circle cx="974.03" cy="248.07" r="2.5" fill="#2563eb"/>
  <circle cx="976.02" cy="299.06" r="2.5" fill="#2563eb"/>
  <circle cx="978.01" cy="299.06" r="2.5" fill="#2563eb"/>
  <circle cx="980.00" cy="299.06" r="2.5" fill="#2563eb"/>
</svg>
