<?xml version="1.0" encoding="UTF-8"?>
<svg xmlns="http://www.w3.org/2000/svg" width="1000" height="420" viewBox="0 0 1000 420">
  <rect width="100%" height="100%" fill="#ffffff"/>
  <text x="70" y="28" font-size="20" font-weight="600">수집 시점 기준 - 시간별 스냅샷</text>
  <text x="70" y="402" font-size="12" fill="#555">스냅샷 수</text>
  <line x1="70" y1="350.00" x2="980" y2="350.00" stroke="#e5e7eb" stroke-width="1"/>
  <text x="62" y="354.00" font-size="11" fill="#6b7280" text-anchor="end">0</text>
  <line x1="70" y1="290.00" x2="980" y2="290.00" stroke="#e5e7eb" stroke-width="1"/>
  <text x="62" y="294.00" font-size="11" fill="#6b7280" text-anchor="end">1,440</text>
  <line x1="70" y1="230.00" x2="980" y2="230.00" stroke="#e5e7eb" stroke-width="1"/>
  <text x="62" y="234.00" font-size="11" fill="#6b7280" text-anchor="end">2,880</text>
  <line x1="70" y1="170.00" x2="980" y2="170.00" stroke="#e5e7eb" stroke-width="1"/>
  <text x="62" y="174.00" font-size="11" fill="#6b7280" text-anchor="end">4,321</text>
  <line x1="70" y1="110.00" x2="980" y2="110.00" stroke="#e5e7eb" stroke-width="1"/>
  <text x="62" y="114.00" font-size="11" fill="#6b7280" text-anchor="end">5,761</text>
  <line x1="70" y1="50.00" x2="980" y2="50.00" stroke="#e5e7eb" stroke-width="1"/>
  <text x="62" y="54.00" font-size="11" fill="#6b7280" text-anchor="end">7,202</text>
  <line x1="70" y1="350" x2="980" y2="350" stroke="#111827" stroke-width="1.2"/>
  <line x1="70" y1="50" x2="70" y2="350" stroke="#111827" stroke-width="1.2"/>
  <line x1="70.00" y1="350" x2="70.00" y2="356" stroke="#9ca3af" stroke-width="1"/>
  <text x="70.00" y="372" font-size="10" fill="#6b7280" text-anchor="middle">2026-02-28 18</text>
  <line x1="145.38" y1="350" x2="145.38" y2="356" stroke="#9ca3af" stroke-width="1"/>
  <text x="145.38" y="372" font-size="10" fill="#6b7280" text-anchor="middle">2026-03-10 02</text>
  <line x1="220.76" y1="350" x2="220.76" y2="356" stroke="#9ca3af" stroke-width="1"/>
  <text x="220.76" y="372" font-size="10" fill="#6b7280" text-anchor="middle">2026-03-13 05</text>
  <line x1="296.13" y1="350" x2="296.13" y2="356" stroke="#9ca3af" stroke-width="1"/>
  <text x="296.13" y="372" font-size="10" fill="#6b7280" text-anchor="middle">2026-03-17 04</text>
  <line x1="371.51" y1="350" x2="371.51" y2="356" stroke="#9ca3af" stroke-width="1"/>
  <text x="371.51" y="372" font-size="10" fill="#6b7280" text-anchor="middle">2026-03-21 13</text>
  <line x1="446.89" y1="350" x2="446.89" y2="356" stroke="#9ca3af" stroke-width="1"/>
  <text x="446.89" y="372" font-size="10" fill="#6b7280" text-anchor="middle">2026-03-25 20</text>
  <line x1="522.27" y1="350" x2="522.27" y2="356" stroke="#9ca3af" stroke-width="1"/>
  <text x="522.27" y="372" font-size="10" fill="#6b7280" text-anchor="middle">2026-03-30 14</text>
  <line x1="597.65" y1="350" x2="597.65" y2="356" stroke="#9ca3af" stroke-width="1"/>
  <text x="597.65" y="372" font-size="10" fill="#6b7280" text-anchor="middle">2026-04-04 05</text>
  <line x1="673.03" y1="350" x2="673.03" y2="356" stroke="#9ca3af" stroke-width="1"/>
  <text x="673.03" y="372" font-size="10" fill="#6b7280" text-anchor="middle">2026-04-09 02</text>
  <line x1="748.40" y1="350" x2="748.40" y2="356" stroke="#9ca3af" stroke-width="1"/>
  <text x="748.40" y="372" font-size="10" fill="#6b7280" text-anchor="middle">2026-04-14 00</text>
  <line x1="823.78" y1="350" x2="823.78" y2="356" stroke="#9ca3af" stroke-width="1"/>
  <text x="823.78" y="372" font-size="10" fill="#6b7280" text-anchor="middle">2026-04-19 02</text>
  <line x1="899.16" y1="350" x2="899.16" y2="356" stroke="#9ca3af" stroke-width="1"/>
  <text x="899.16" y="372" font-size="10" fill="#6b7280" text-anchor="middle">2026-04-24 01</text>
  <line x1="974.54" y1="350" x2="974.54" y2="356" stroke="#9ca3af" stroke-width="1"/>
  <text x="974.54" y="372" font-size="10" fill="#6b7280" text-anchor="middle">2026-04-28 22</text>
  <line x1="980.00" y1="350" x2="980.00" y2="356" stroke="#9ca3af" stroke-width="1"/>
  <text x="980.00" y="372" font-size="10" fill="#6b7280" text-anchor="middle">2026-04-29 08</text>
  <polyline fill="none" stroke="#2563eb" stroke-width="2.5" points="70.00,50.00 71.09,50.12 72.18,50.17 73.28,50.46 74.37,50.00 75.46,266.90 76.55,50.12 77.65,50.08 78.74,177.46 79.83,211.58 80.92,175.34 82.02,304.14 83.11,200.46 84.20,250.94 85.29,300.01 86.39,300.06 87.48,300.01 88.57,300.01 89.66,348.00 90.76,300.01 91.85,249.99 92.94,200.00 94.03,249.99 95.13,249.99 96.22,250.03 97.31,250.03 98.40,250.03 99.50,250.40 100.59,250.90 101.68,250.90 102.77,251.32 103.87,249.94 104.96,300.01 106.05,299.93 107.14,251.03 108.24,300.68 109.33,250.03 110.42,200.00 111.51,249.99 112.61,250.03 113.70,250.03 114.79,250.03 115.88,300.01 116.97,200.04 118.07,250.03 119.16,250.03 120.25,250.03 121.34,249.90 122.44,250.03 123.53,250.03 124.62,250.94 125.71,250.44 126.81,250.03 127.90,250.03 128.99,300.47 130.08,300.01 131.18,300.43 132.27,250.03 133.36,249.99 134.45,300.43 135.55,249.90 136.64,249.99 137.73,249.99 138.82,200.04 139.92,300.01 141.01,300.01 142.10,300.01 143.19,249.90 144.29,300.01 145.38,250.03 146.47,249.99 147.56,199.96 148.66,300.01 149.75,200.00 150.84,250.36 151.93,250.03 153.03,300.01 154.12,300.01 155.21,250.44 156.30,300.01 157.39,250.03 158.49,250.03 159.58,249.99 160.67,250.49 161.76,250.03 162.86,200.04 163.95,300.01 165.04,250.03 166.13,300.01 167.23,250.11 168.32,300.01 169.41,250.03 170.50,250.03 171.60,199.92 172.69,250.03 173.78,250.03 174.87,250.03 175.97,254.36 177.06,300.01 178.15,299.97 179.24,250.36 180.34,299.97 181.43,250.03 182.52,250.03 183.61,250.03 184.71,250.03 185.80,249.99 186.89,200.00 187.98,299.93 189.08,300.01 190.17,299.97 191.26,249.94 192.35,249.99 193.45,249.82 194.54,249.94 195.63,250.28 196.72,207.00 197.82,250.03 198.91,250.32 200.00,250.40 201.09,300.93 202.18,300.01 203.28,300.10 204.37,249.94 205.46,249.99 206.55,250.07 207.65,249.99 208.74,250.03 209.83,249.94 210.92,200.00 212.02,300.39 213.11,300.01 214.20,300.01 215.29,250.44 216.39,300.39 217.48,249.86 218.57,250.11 219.66,201.46 220.76,300.01 221.85,200.83 222.94,250.03 224.03,249.99 225.13,300.26 226.22,300.01 227.31,300.01 228.40,250.03 229.50,250.03 230.59,250.03 231.68,250.03 232.77,249.99 233.87,250.03 234.96,200.00 236.05,300.26 237.14,249.99 238.24,300.01 239.33,249.94 240.42,250.03 241.51,250.03 242.61,250.03 243.70,200.04 244.79,300.01 245.88,249.90 246.97,300.01 248.07,300.01 249.16,300.06 250.25,300.01 251.34,300.01 252.44,243.95 253.53,249.94 254.62,299.97 255.71,300.01 256.81,300.01 257.90,250.03 258.99,300.01 260.08,300.01 261.18,299.97 262.27,249.99 263.36,300.01 264.45,299.93 265.55,300.01 266.64,299.93 267.73,300.01 268.82,300.01 269.92,299.89 271.01,299.97 272.10,250.03 273.19,299.93 274.29,299.89 275.38,299.97 276.47,249.94 277.56,300.01 278.66,300.01 279.75,299.97 280.84,249.99 281.93,299.97 283.03,299.97 284.12,300.06 285.21,300.06 286.30,299.93 287.39,300.01 288.49,300.01 289.58,299.93 290.67,300.01 291.76,300.01 292.86,299.97 293.95,300.01 295.04,300.01 296.13,300.01 297.23,300.01 298.32,249.86 299.41,300.01 300.50,300.10 301.60,299.93 302.69,300.01 303.78,299.93 304.87,300.01 305.97,300.01 307.06,300.01 308.15,300.01 309.24,300.01 310.34,299.97 311.43,300.01 312.52,300.01 313.61,300.01 314.71,300.01 315.80,250.03 316.89,300.01 317.98,300.01 319.08,299.97 320.17,300.01 321.26,300.01 322.35,299.97 323.45,299.97 324.54,300.01 325.63,299.97 326.72,300.01 327.82,299.93 328.91,300.01 330.00,250.03 331.09,300.01 332.18,300.01 333.28,300.01 334.37,300.01 335.46,300.01 336.55,299.89 337.65,300.01 338.74,300.01 339.83,250.07 340.92,300.01 342.02,299.93 343.11,300.01 344.20,299.97 345.29,299.97 346.39,299.97 347.48,250.03 348.57,300.01 349.66,300.01 350.76,300.01 351.85,300.01 352.94,299.97 354.03,300.01 355.13,299.97 356.22,300.01 357.31,299.97 358.40,249.90 359.50,300.01 360.59,300.01 361.68,299.89 362.77,299.97 363.87,299.97 364.96,249.99 366.05,299.97 367.14,299.89 368.24,300.01 369.33,299.97 370.42,299.97 371.51,300.01 372.61,299.97 373.70,249.99 374.79,299.97 375.88,299.97 376.97,300.06 378.07,300.06 379.16,249.94 380.25,300.01 381.34,299.93 382.44,300.01 383.53,300.01 384.62,249.99 385.71,300.01 386.81,300.01 387.90,300.01 388.99,299.93 390.08,299.93 391.18,300.01 392.27,300.01 393.36,249.94 394.45,299.97 395.55,299.97 396.64,300.01 397.73,300.01 398.82,300.01 399.92,249.99 401.01,300.01 402.10,300.01 403.19,300.01 404.29,250.03 405.38,300.01 406.47,300.01 407.56,300.01 408.66,299.97 409.75,300.01 410.84,300.01 411.93,299.97 413.03,299.97 414.12,300.01 415.21,300.01 416.30,299.97 417.39,299.93 418.49,300.01 419.58,300.06 420.67,299.97 421.76,300.01 422.86,250.03 423.95,250.03 425.04,299.93 426.13,299.97 427.23,300.01 428.32,300.01 429.41,300.06 430.50,300.01 431.60,299.93 432.69,300.01 433.78,300.01 434.87,299.97 435.97,299.97 437.06,300.01 438.15,250.03 439.24,300.01 440.34,300.01 441.43,300.01 442.52,299.97 443.61,300.01 444.71,299.97 445.80,300.01 446.89,299.97 447.98,299.97 449.08,299.93 450.17,300.01 451.26,300.01 452.35,299.89 453.45,299.97 454.54,299.97 455.63,300.06 456.72,249.90 457.82,299.89 458.91,300.01 460.00,299.97 461.09,299.97 462.18,299.97 463.28,300.01 464.37,300.01 465.46,299.97 466.55,299.97 467.65,299.97 468.74,250.03 469.83,299.93 470.92,300.01 472.02,300.01 473.11,299.93 474.20,300.01 475.29,300.01 476.39,299.97 477.48,300.01 478.57,300.01 479.66,300.06 480.76,300.01 481.85,299.97 482.94,299.89 484.03,300.01 485.13,300.01 486.22,249.94 487.31,249.94 488.40,300.01 489.50,300.01 490.59,300.01 491.68,300.01 492.77,299.97 493.87,250.03 494.96,300.01 496.05,300.01 497.14,300.01 498.24,300.01 499.33,250.03 500.42,249.99 501.51,300.01 502.61,299.97 503.70,300.01 504.79,299.97 505.88,300.01 506.97,299.97 508.07,299.97 509.16,299.97 510.25,300.06 511.34,249.99 512.44,300.01 513.53,250.03 514.62,249.94 515.71,249.99 516.81,300.01 517.90,300.06 518.99,300.01 520.08,299.97 521.18,299.97 522.27,300.01 523.36,299.93 524.45,299.89 525.55,299.89 526.64,299.89 527.73,299.89 528.82,299.85 529.92,299.85 531.01,299.89 532.10,299.81 533.19,299.81 534.29,299.81 535.38,299.76 536.47,299.76 537.56,299.76 538.66,299.72 539.75,299.68 540.84,299.60 541.93,299.60 543.03,299.60 544.12,299.56 545.21,299.47 546.30,299.43 547.39,299.43 548.49,299.39 549.58,299.47 550.67,259.82 551.76,338.96 552.86,299.31 553.95,299.31 555.04,299.26 556.13,299.68 557.23,299.68 558.32,299.68 559.41,299.64 560.50,299.14 561.60,299.14 562.69,299.10 563.78,299.10 564.87,299.10 565.97,248.07 567.06,299.06 568.15,299.06 569.24,299.06 570.34,299.06 571.43,299.06 572.52,298.97 573.61,298.97 574.71,298.93 575.80,298.97 576.89,298.93 577.98,298.89 579.08,298.89 580.17,298.89 581.26,298.89 582.35,247.78 583.45,298.89 584.54,298.89 585.63,298.85 586.72,298.85 587.82,298.81 588.91,298.81 590.00,298.81 591.09,298.81 592.18,298.81 593.28,298.81 594.37,298.81 595.46,298.81 596.55,298.81 597.65,298.72 598.74,247.45 599.83,247.45 600.92,298.72 602.02,298.72 603.11,298.72 604.20,298.72 605.29,298.72 606.39,298.72 607.48,247.36 608.57,298.68 609.66,247.36 610.76,247.36 611.85,247.36 612.94,298.68 614.03,298.68 615.13,298.68 616.22,298.68 617.31,298.68 618.40,341.67 619.50,307.01 620.59,298.68 621.68,298.68 622.77,298.68 623.87,247.36 624.96,298.64 626.05,247.36 627.14,247.28 628.24,247.20 629.33,298.60 630.42,298.60 631.51,247.03 632.61,298.51 633.70,298.51 634.79,298.51 635.88,298.51 636.97,298.51 638.07,298.51 639.16,298.51 640.25,298.51 641.34,298.51 642.44,298.51 643.53,298.51 644.62,298.51 645.71,298.51 646.81,298.51 647.90,298.51 648.99,298.51 650.08,298.51 651.18,298.51 652.27,298.51 653.36,298.51 654.45,298.51 655.55,298.51 656.64,298.51 657.73,298.51 658.82,298.51 659.92,298.51 661.01,298.47 662.10,298.51 663.19,298.51 664.29,298.47 665.38,298.51 666.47,298.47 667.56,298.51 668.66,298.43 669.75,298.56 670.84,298.43 671.93,298.43 673.03,298.43 674.12,298.43 675.21,298.43 676.30,298.43 677.39,298.43 678.49,298.43 679.58,298.43 680.67,298.43 681.76,298.43 682.86,298.43 683.95,298.43 685.04,298.43 686.13,298.43 687.23,298.43 688.32,298.43 689.41,298.43 690.50,298.43 691.60,298.43 692.69,298.43 693.78,298.43 694.87,298.43 695.97,298.43 697.06,298.43 698.15,298.43 699.24,298.43 700.34,298.43 701.43,298.43 702.52,298.43 703.61,298.43 704.71,298.43 705.80,298.43 706.89,298.43 707.98,298.39 709.08,298.39 710.17,298.43 711.26,298.43 712.35,298.39 713.45,298.39 714.54,298.39 715.63,298.43 716.72,298.43 717.82,298.43 718.91,246.82 720.00,298.43 721.09,246.78 722.18,246.78 723.28,246.78 724.37,246.70 725.46,246.78 726.55,298.39 727.65,298.39 728.74,298.39 729.83,298.39 730.92,298.39 732.02,246.78 733.11,298.39 734.20,298.39 735.29,298.39 736.39,298.39 737.48,298.39 738.57,246.78 739.66,246.78 740.76,298.39 741.85,298.39 742.94,298.39 744.03,298.39 745.13,298.39 746.22,298.39 747.31,298.39 748.40,298.39 749.50,298.39 750.59,298.39 751.68,298.39 752.77,298.39 753.87,298.39 754.96,298.39 756.05,298.35 757.14,298.39 758.24,298.39 759.33,298.35 760.42,298.35 761.51,298.35 762.61,298.35 763.70,298.35 764.79,298.35 765.88,298.35 766.97,298.35 768.07,298.35 769.16,298.35 770.25,298.35 771.34,298.35 772.44,298.35 773.53,298.35 774.62,298.35 775.71,298.35 776.81,298.35 777.90,298.35 778.99,298.35 780.08,298.35 781.18,298.35 782.27,298.35 783.36,298.35 784.45,298.35 785.55,298.35 786.64,298.35 787.73,298.35 788.82,298.35 789.92,298.35 791.01,298.35 792.10,298.35 793.19,298.35 794.29,298.35 795.38,298.35 796.47,298.35 797.56,298.35 798.66,298.35 799.75,298.35 800.84,298.35 801.93,298.35 803.03,298.35 804.12,298.35 805.21,298.35 806.30,298.35 807.39,298.35 808.49,298.35 809.58,298.35 810.67,298.35 811.76,298.35 812.86,298.35 813.95,298.35 815.04,298.35 816.13,298.39 817.23,298.39 818.32,298.39 819.41,246.78 820.50,298.39 821.60,298.39 822.69,298.39 823.78,298.39 824.87,298.39 825.97,298.39 827.06,298.39 828.15,246.78 829.24,298.39 830.34,298.39 831.43,298.39 832.52,298.39 833.61,298.39 834.71,298.39 835.80,298.39 836.89,246.78 837.98,298.39 839.08,298.39 840.17,298.39 841.26,298.39 842.35,298.39 843.45,298.39 844.54,298.39 845.63,298.39 846.72,298.39 847.82,298.39 848.91,298.39 850.00,298.35 851.09,298.39 852.18,298.39 853.28,298.39 854.37,298.35 855.46,298.35 856.55,298.35 857.65,298.35 858.74,298.35 859.83,298.35 860.92,298.35 862.02,298.35 863.11,298.35 864.20,298.35 865.29,298.35 866.39,298.35 867.48,298.35 868.57,298.35 869.66,298.35 870.76,298.35 871.85,298.39 872.94,298.39 874.03,298.39 875.13,298.39 876.22,298.39 877.31,298.39 878.40,298.35 879.50,298.39 880.59,298.39 881.68,298.39 882.77,298.39 883.87,298.39 884.96,298.39 886.05,298.39 887.14,298.39 888.24,298.39 889.33,298.35 890.42,298.39 891.51,298.39 892.61,298.39 893.70,298.39 894.79,298.39 895.88,298.39 896.97,298.39 898.07,298.39 899.16,298.39 900.25,298.39 901.34,298.39 902.44,298.39 903.53,298.39 904.62,298.39 905.71,298.39 906.81,298.39 907.90,298.35 908.99,298.35 910.08,298.39 911.18,298.39 912.27,298.39 913.36,298.39 914.45,298.39 915.55,298.39 916.64,298.39 917.73,298.39 918.82,298.39 919.92,298.39 921.01,298.35 922.10,298.35 923.19,298.39 924.29,298.39 925.38,298.39 926.47,298.39 927.56,298.39 928.66,298.39 929.75,298.39 930.84,298.39 931.93,298.39 933.03,298.39 934.12,298.39 935.21,298.39 936.30,298.39 937.39,298.39 938.49,298.35 939.58,298.39 940.67,298.39 941.76,298.39 942.86,298.39 943.95,298.39 945.04,298.39 946.13,298.39 947.23,298.39 948.32,298.35 949.41,298.35 950.50,298.39 951.60,298.35 952.69,298.39 953.78,298.39 954.87,298.39 955.97,298.39 957.06,298.39 958.15,298.35 959.24,298.39 960.34,298.39 961.43,298.35 962.52,298.39 963.61,298.35 964.71,298.39 965.80,298.39 966.89,298.35 967.98,298.39 969.08,298.35 970.17,298.39 971.26,298.39 972.35,298.35 973.45,298.39 974.54,298.39 975.63,298.39 976.72,298.39 977.82,298.35 978.91,298.39 980.00,298.39"/>
  <circle cx="70.00" cy="50.00" r="2.5" fill="#2563eb"/>
  <circle cx="71.09" cy="50.12" r="2.5" fill="#2563eb"/>
  <circle cx="72.18" cy="50.17" r="2.5" fill="#2563eb"/>
  <circle cx="73.28" cy="50.46" r="2.5" fill="#2563eb"/>
  <circle cx="74.37" cy="50.00" r="2.5" fill="#2563eb"/>
  <circle cx="75.46" cy="266.90" r="2.5" fill="#2563eb"/>
  <circle cx="76.55" cy="50.12" r="2.5" fill="#2563eb"/>
  <circle cx="77.65" cy="50.08" r="2.5" fill="#2563eb"/>
  <circle cx="78.74" cy="177.46" r="2.5" fill="#2563eb"/>
  <circle cx="79.83" cy="211.58" r="2.5" fill="#2563eb"/>
  <circle cx="80.92" cy="175.34" r="2.5" fill="#2563eb"/>
  <circle cx="82.02" cy="304.14" r="2.5" fill="#2563eb"/>
  <circle cx="83.11" cy="200.46" r="2.5" fill="#2563eb"/>
  <circle cx="84.20" cy="250.94" r="2.5" fill="#2563eb"/>
  <circle cx="85.29" cy="300.01" r="2.5" fill="#2563eb"/>
  <circle cx="86.39" cy="300.06" r="2.5" fill="#2563eb"/>
  <circle cx="87.48" cy="300.01" r="2.5" fill="#2563eb"/>
  <circle cx="88.57" cy="300.01" r="2.5" fill="#2563eb"/>
  <circle cx="89.66" cy="348.00" r="2.5" fill="#2563eb"/>
  <circle cx="90.76" cy="300.01" r="2.5" fill="#2563eb"/>
  <circle cx="91.85" cy="249.99" r="2.5" fill="#2563eb"/>
  <circle cx="92.94" cy="200.00" r="2.5" fill="#2563eb"/>
  <circle cx="94.03" cy="249.99" r="2.5" fill="#2563eb"/>
  <circle cx="95.13" cy="249.99" r="2.5" fill="#2563eb"/>
  <circle cx="96.22" cy="250.03" r="2.5" fill="#2563eb"/>
  <circle cx="97.31" cy="250.03" r="2.5" fill="#2563eb"/>
  <circle cx="98.40" cy="250.03" r="2.5" fill="#2563eb"/>
  <circle cx="99.50" cy="250.40" r="2.5" fill="#2563eb"/>
  <circle cx="100.59" cy="250.90" r="2.5" fill="#2563eb"/>
  <circle cx="101.68" cy="250.90" r="2.5" fill="#2563eb"/>
  <circle cx="102.77" cy="251.32" r="2.5" fill="#2563eb"/>
  <circle cx="103.87" cy="249.94" r="2.5" fill="#2563eb"/>
  <circle cx="104.96" cy="300.01" r="2.5" fill="#2563eb"/>
  <circle cx="106.05" cy="299.93" r="2.5" fill="#2563eb"/>
  <circle cx="107.14" cy="251.03" r="2.5" fill="#2563eb"/>
  <circle cx="108.24" cy="300.68" r="2.5" fill="#2563eb"/>
  <circle cx="109.33" cy="250.03" r="2.5" fill="#2563eb"/>
  <circle cx="110.42" cy="200.00" r="2.5" fill="#2563eb"/>
  <circle cx="111.51" cy="249.99" r="2.5" fill="#2563eb"/>
  <circle cx="112.61" cy="250.03" r="2.5" fill="#2563eb"/>
  <circle cx="113.70" cy="250.03" r="2.5" fill="#2563eb"/>
  <circle cx="114.79" cy="250.03" r="2.5" fill="#2563eb"/>
  <circle cx="115.88" cy="300.01" r="2.5" fill="#2563eb"/>
  <circle cx="116.97" cy="200.04" r="2.5" fill="#2563eb"/>
  <circle cx="118.07" cy="250.03" r="2.5" fill="#2563eb"/>
  <circle cx="119.16" cy="250.03" r="2.5" fill="#2563eb"/>
  <circle cx="120.25" cy="250.03" r="2.5" fill="#2563eb"/>
  <circle cx="121.34" cy="249.90" r="2.5" fill="#2563eb"/>
  <circle cx="122.44" cy="250.03" r="2.5" fill="#2563eb"/>
  <circle cx="123.53" cy="250.03" r="2.5" fill="#2563eb"/>
  <circle cx="124.62" cy="250.94" r="2.5" fill="#2563eb"/>
  <circle cx="125.71" cy="250.44" r="2.5" fill="#2563eb"/>
  <circle cx="126.81" cy="250.03" r="2.5" fill="#2563eb"/>
  <circle cx="127.90" cy="250.03" r="2.5" fill="#2563eb"/>
  <circle cx="128.99" cy="300.47" r="2.5" fill="#2563eb"/>
  <circle cx="130.08" cy="300.01" r="2.5" fill="#2563eb"/>
  <circle cx="131.18" cy="300.43" r="2.5" fill="#2563eb"/>
  <circle cx="132.27" cy="250.03" r="2.5" fill="#2563eb"/>
  <circle cx="133.36" cy="249.99" r="2.5" fill="#2563eb"/>
  <circle cx="134.45" cy="300.43" r="2.5" fill="#2563eb"/>
  <circle cx="135.55" cy="249.90" r="2.5" fill="#2563eb"/>
  <circle cx="136.64" cy="249.99" r="2.5" fill="#2563eb"/>
  <circle cx="137.73" cy="249.99" r="2.5" fill="#2563eb"/>
  <circle cx="138.82" cy="200.04" r="2.5" fill="#2563eb"/>
  <circle cx="139.92" cy="300.01" r="2.5" fill="#2563eb"/>
  <circle cx="141.01" cy="300.01" r="2.5" fill="#2563eb"/>
  <circle cx="142.10" cy="300.01" r="2.5" fill="#2563eb"/>
  <circle cx="143.19" cy="249.90" r="2.5" fill="#2563eb"/>
  <circle cx="144.29" cy="300.01" r="2.5" fill="#2563eb"/>
  <circle cx="145.38" cy="250.03" r="2.5" fill="#2563eb"/>
  <circle cx="146.47" cy="249.99" r="2.5" fill="#2563eb"/>
  <circle cx="147.56" cy="199.96" r="2.5" fill="#2563eb"/>
  <circle cx="148.66" cy="300.01" r="2.5" fill="#2563eb"/>
  <circle cx="149.75" cy="200.00" r="2.5" fill="#2563eb"/>
  <circle cx="150.84" cy="250.36" r="2.5" fill="#2563eb"/>
  <circle cx="151.93" cy="250.03" r="2.5" fill="#2563eb"/>
  <circle cx="153.03" cy="300.01" r="2.5" fill="#2563eb"/>
  <circle cx="154.12" cy="300.01" r="2.5" fill="#2563eb"/>
  <circle cx="155.21" cy="250.44" r="2.5" fill="#2563eb"/>
  <circle cx="156.30" cy="300.01" r="2.5" fill="#2563eb"/>
  <circle cx="157.39" cy="250.03" r="2.5" fill="#2563eb"/>
  <circle cx="158.49" cy="250.03" r="2.5" fill="#2563eb"/>
  <circle cx="159.58" cy="249.99" r="2.5" fill="#2563eb"/>
  <circle cx="160.67" cy="250.49" r="2.5" fill="#2563eb"/>
  <circle cx="161.76" cy="250.03" r="2.5" fill="#2563eb"/>
  <circle cx="162.86" cy="200.04" r="2.5" fill="#2563eb"/>
  <circle cx="163.95" cy="300.01" r="2.5" fill="#2563eb"/>
  <circle cx="165.04" cy="250.03" r="2.5" fill="#2563eb"/>
  <circle cx="166.13" cy="300.01" r="2.5" fill="#2563eb"/>
  <circle cx="167.23" cy="250.11" r="2.5" fill="#2563eb"/>
  <circle cx="168.32" cy="300.01" r="2.5" fill="#2563eb"/>
  <circle cx="169.41" cy="250.03" r="2.5" fill="#2563eb"/>
  <circle cx="170.50" cy="250.03" r="2.5" fill="#2563eb"/>
  <circle cx="171.60" cy="199.92" r="2.5" fill="#2563eb"/>
  <circle cx="172.69" cy="250.03" r="2.5" fill="#2563eb"/>
  <circle cx="173.78" cy="250.03" r="2.5" fill="#2563eb"/>
  <circle cx="174.87" cy="250.03" r="2.5" fill="#2563eb"/>
  <circle cx="175.97" cy="254.36" r="2.5" fill="#2563eb"/>
  <circle cx="177.06" cy="300.01" r="2.5" fill="#2563eb"/>
  <circle cx="178.15" cy="299.97" r="2.5" fill="#2563eb"/>
  <circle cx="179.24" cy="250.36" r="2.5" fill="#2563eb"/>
  <circle cx="180.34" cy="299.97" r="2.5" fill="#2563eb"/>
  <circle cx="181.43" cy="250.03" r="2.5" fill="#2563eb"/>
  <circle cx="182.52" cy="250.03" r="2.5" fill="#2563eb"/>
  <circle cx="183.61" cy="250.03" r="2.5" fill="#2563eb"/>
  <circle cx="184.71" cy="250.03" r="2.5" fill="#2563eb"/>
  <circle cx="185.80" cy="249.99" r="2.5" fill="#2563eb"/>
  <circle cx="186.89" cy="200.00" r="2.5" fill="#2563eb"/>
  <circle cx="187.98" cy="299.93" r="2.5" fill="#2563eb"/>
  <circle cx="189.08" cy="300.01" r="2.5" fill="#2563eb"/>
  <circle cx="190.17" cy="299.97" r="2.5" fill="#2563eb"/>
  <circle cx="191.26" cy="249.94" r="2.5" fill="#2563eb"/>
  <circle cx="192.35" cy="249.99" r="2.5" fill="#2563eb"/>
  <circle cx="193.45" cy="249.82" r="2.5" fill="#2563eb"/>
  <circle cx="194.54" cy="249.94" r="2.5" fill="#2563eb"/>
  <circle cx="195.63" cy="250.28" r="2.5" fill="#2563eb"/>
  <circle cx="196.72" cy="207.00" r="2.5" fill="#2563eb"/>
  <circle cx="197.82" cy="250.03" r="2.5" fill="#2563eb"/>
  <circle cx="198.91" cy="250.32" r="2.5" fill="#2563eb"/>
  <circle cx="200.00" cy="250.40" r="2.5" fill="#2563eb"/>
  <circle cx="201.09" cy="300.93" r="2.5" fill="#2563eb"/>
  <circle cx="202.18" cy="300.01" r="2.5" fill="#2563eb"/>
  <circle cx="203.28" cy="300.10" r="2.5" fill="#2563eb"/>
  <circle cx="204.37" cy="249.94" r="2.5" fill="#2563eb"/>
  <circle cx="205.46" cy="249.99" r="2.5" fill="#2563eb"/>
  <circle cx="206.55" cy="250.07" r="2.5" fill="#2563eb"/>
  <circle cx="207.65" cy="249.99" r="2.5" fill="#2563eb"/>
  <circle cx="208.74" cy="250.03" r="2.5" fill="#2563eb"/>
  <circle cx="209.83" cy="249.94" r="2.5" fill="#2563eb"/>
  <circle cx="210.92" cy="200.00" r="2.5" fill="#2563eb"/>
  <circle cx="212.02" cy="300.39" r="2.5" fill="#2563eb"/>
  <circle cx="213.11" cy="300.01" r="2.5" fill="#2563eb"/>
  <circle cx="214.20" cy="300.01" r="2.5" fill="#2563eb"/>
  <circle cx="215.29" cy="250.44" r="2.5" fill="#2563eb"/>
  <circle cx="216.39" cy="300.39" r="2.5" fill="#2563eb"/>
  <circle cx="217.48" cy="249.86" r="2.5" fill="#2563eb"/>
  <circle cx="218.57" cy="250.11" r="2.5" fill="#2563eb"/>
  <circle cx="219.66" cy="201.46" r="2.5" fill="#2563eb"/>
  <circle cx="220.76" cy="300.01" r="2.5" fill="#2563eb"/>
  <circle cx="221.85" cy="200.83" r="2.5" fill="#2563eb"/>
  <circle cx="222.94" cy="250.03" r="2.5" fill="#2563eb"/>
  <circle cx="224.03" cy="249.99" r="2.5" fill="#2563eb"/>
  <circle cx="225.13" cy="300.26" r="2.5" fill="#2563eb"/>
  <circle cx="226.22" cy="300.01" r="2.5" fill="#2563eb"/>
  <circle cx="227.31" cy="300.01" r="2.5" fill="#2563eb"/>
  <circle cx="228.40" cy="250.03" r="2.5" fill="#2563eb"/>
  <circle cx="229.50" cy="250.03" r="2.5" fill="#2563eb"/>
  <circle cx="230.59" cy="250.03" r="2.5" fill="#2563eb"/>
  <circle cx="231.68" cy="250.03" r="2.5" fill="#2563eb"/>
  <circle cx="232.77" cy="249.99" r="2.5" fill="#2563eb"/>
  <circle cx="233.87" cy="250.03" r="2.5" fill="#2563eb"/>
  <circle cx="234.96" cy="200.00" r="2.5" fill="#2563eb"/>
  <circle cx="236.05" cy="300.26" r="2.5" fill="#2563eb"/>
  <circle cx="237.14" cy="249.99" r="2.5" fill="#2563eb"/>
  <circle cx="238.24" cy="300.01" r="2.5" fill="#2563eb"/>
  <circle cx="239.33" cy="249.94" r="2.5" fill="#2563eb"/>
  <circle cx="240.42" cy="250.03" r="2.5" fill="#2563eb"/>
  <circle cx="241.51" cy="250.03" r="2.5" fill="#2563eb"/>
  <circle cx="242.61" cy="250.03" r="2.5" fill="#2563eb"/>
  <circle cx="243.70" cy="200.04" r="2.5" fill="#2563eb"/>
  <circle cx="244.79" cy="300.01" r="2.5" fill="#2563eb"/>
  <circle cx="245.88" cy="249.90" r="2.5" fill="#2563eb"/>
  <circle cx="246.97" cy="300.01" r="2.5" fill="#2563eb"/>
  <circle cx="248.07" cy="300.01" r="2.5" fill="#2563eb"/>
  <circle cx="249.16" cy="300.06" r="2.5" fill="#2563eb"/>
  <circle cx="250.25" cy="300.01" r="2.5" fill="#2563eb"/>
  <circle cx="251.34" cy="300.01" r="2.5" fill="#2563eb"/>
  <circle cx="252.44" cy="243.95" r="2.5" fill="#2563eb"/>
  <circle cx="253.53" cy="249.94" r="2.5" fill="#2563eb"/>
  <circle cx="254.62" cy="299.97" r="2.5" fill="#2563eb"/>
  <circle cx="255.71" cy="300.01" r="2.5" fill="#2563eb"/>
  <circle cx="256.81" cy="300.01" r="2.5" fill="#2563eb"/>
  <circle cx="257.90" cy="250.03" r="2.5" fill="#2563eb"/>
  <circle cx="258.99" cy="300.01" r="2.5" fill="#2563eb"/>
  <circle cx="260.08" cy="300.01" r="2.5" fill="#2563eb"/>
  <circle cx="261.18" cy="299.97" r="2.5" fill="#2563eb"/>
  <circle cx="262.27" cy="249.99" r="2.5" fill="#2563eb"/>
  <circle cx="263.36" cy="300.01" r="2.5" fill="#2563eb"/>
  <circle cx="264.45" cy="299.93" r="2.5" fill="#2563eb"/>
  <circle cx="265.55" cy="300.01" r="2.5" fill="#2563eb"/>
  <circle cx="266.64" cy="299.93" r="2.5" fill="#2563eb"/>
  <circle cx="267.73" cy="300.01" r="2.5" fill="#2563eb"/>
  <circle cx="268.82" cy="300.01" r="2.5" fill="#2563eb"/>
  <circle cx="269.92" cy="299.89" r="2.5" fill="#2563eb"/>
  <circle cx="271.01" cy="299.97" r="2.5" fill="#2563eb"/>
  <circle cx="272.10" cy="250.03" r="2.5" fill="#2563eb"/>
  <circle cx="273.19" cy="299.93" r="2.5" fill="#2563eb"/>
  <circle cx="274.29" cy="299.89" r="2.5" fill="#2563eb"/>
  <circle cx="275.38" cy="299.97" r="2.5" fill="#2563eb"/>
  <circle cx="276.47" cy="249.94" r="2.5" fill="#2563eb"/>
  <circle cx="277.56" cy="300.01" r="2.5" fill="#2563eb"/>
  <circle cx="278.66" cy="300.01" r="2.5" fill="#2563eb"/>
  <circle cx="279.75" cy="299.97" r="2.5" fill="#2563eb"/>
  <circle cx="280.84" cy="249.99" r="2.5" fill="#2563eb"/>
  <circle cx="281.93" cy="299.97" r="2.5" fill="#2563eb"/>
  <circle cx="283.03" cy="299.97" r="2.5" fill="#2563eb"/>
  <circle cx="284.12" cy="300.06" r="2.5" fill="#2563eb"/>
  <circle cx="285.21" cy="300.06" r="2.5" fill="#2563eb"/>
  <circle cx="286.30" cy="299.93" r="2.5" fill="#2563eb"/>
  <circle cx="287.39" cy="300.01" r="2.5" fill="#2563eb"/>
  <circle cx="288.49" cy="300.01" r="2.5" fill="#2563eb"/>
  <circle cx="289.58" cy="299.93" r="2.5" fill="#2563eb"/>
  <circle cx="290.67" cy="300.01" r="2.5" fill="#2563eb"/>
  <circle cx="291.76" cy="300.01" r="2.5" fill="#2563eb"/>
  <circle cx="292.86" cy="299.97" r="2.5" fill="#2563eb"/>
  <circle cx="293.95" cy="300.01" r="2.5" fill="#2563eb"/>
  <circle cx="295.04" cy="300.01" r="2.5" fill="#2563eb"/>
  <circle cx="296.13" cy="300.01" r="2.5" fill="#2563eb"/>
  <circle cx="297.23" cy="300.01" r="2.5" fill="#2563eb"/>
  <circle cx="298.32" cy="249.86" r="2.5" fill="#2563eb"/>
  <circle cx="299.41" cy="300.01" r="2.5" fill="#2563eb"/>
  <circle cx="300.50" cy="300.10" r="2.5" fill="#2563eb"/>
  <circle cx="301.60" cy="299.93" r="2.5" fill="#2563eb"/>
  <circle cx="302.69" cy="300.01" r="2.5" fill="#2563eb"/>
  <circle cx="303.78" cy="299.93" r="2.5" fill="#2563eb"/>
  <circle cx="304.87" cy="300.01" r="2.5" fill="#2563eb"/>
  <circle cx="305.97" cy="300.01" r="2.5" fill="#2563eb"/>
  <circle cx="307.06" cy="300.01" r="2.5" fill="#2563eb"/>
  <circle cx="308.15" cy="300.01" r="2.5" fill="#2563eb"/>
  <circle cx="309.24" cy="300.01" r="2.5" fill="#2563eb"/>
  <circle cx="310.34" cy="299.97" r="2.5" fill="#2563eb"/>
  <circle cx="311.43" cy="300.01" r="2.5" fill="#2563eb"/>
  <circle cx="312.52" cy="300.01" r="2.5" fill="#2563eb"/>
  <circle cx="313.61" cy="300.01" r="2.5" fill="#2563eb"/>
  <circle cx="314.71" cy="300.01" r="2.5" fill="#2563eb"/>
  <circle cx="315.80" cy="250.03" r="2.5" fill="#2563eb"/>
  <circle cx="316.89" cy="300.01" r="2.5" fill="#2563eb"/>
  <circle cx="317.98" cy="300.01" r="2.5" fill="#2563eb"/>
  <circle cx="319.08" cy="299.97" r="2.5" fill="#2563eb"/>
  <circle cx="320.17" cy="300.01" r="2.5" fill="#2563eb"/>
  <circle cx="321.26" cy="300.01" r="2.5" fill="#2563eb"/>
  <circle cx="322.35" cy="299.97" r="2.5" fill="#2563eb"/>
  <circle cx="323.45" cy="299.97" r="2.5" fill="#2563eb"/>
  <circle cx="324.54" cy="300.01" r="2.5" fill="#2563eb"/>
  <circle cx="325.63" cy="299.97" r="2.5" fill="#2563eb"/>
  <circle cx="326.72" cy="300.01" r="2.5" fill="#2563eb"/>
  <circle cx="327.82" cy="299.93" r="2.5" fill="#2563eb"/>
  <circle cx="328.91" cy="300.01" r="2.5" fill="#2563eb"/>
  <circle cx="330.00" cy="250.03" r="2.5" fill="#2563eb"/>
  <circle cx="331.09" cy="300.01" r="2.5" fill="#2563eb"/>
  <circle cx="332.18" cy="300.01" r="2.5" fill="#2563eb"/>
  <circle cx="333.28" cy="300.01" r="2.5" fill="#2563eb"/>
  <circle cx="334.37" cy="300.01" r="2.5" fill="#2563eb"/>
  <circle cx="335.46" cy="300.01" r="2.5" fill="#2563eb"/>
  <circle cx="336.55" cy="299.89" r="2.5" fill="#2563eb"/>
  <circle cx="337.65" cy="300.01" r="2.5" fill="#2563eb"/>
  <circle cx="338.74" cy="300.01" r="2.5" fill="#2563eb"/>
  <circle cx="339.83" cy="250.07" r="2.5" fill="#2563eb"/>
  <circle cx="340.92" cy="300.01" r="2.5" fill="#2563eb"/>
  <circle cx="342.02" cy="299.93" r="2.5" fill="#2563eb"/>
  <circle cx="343.11" cy="300.01" r="2.5" fill="#2563eb"/>
  <circle cx="344.20" cy="299.97" r="2.5" fill="#2563eb"/>
  <circle cx="345.29" cy="299.97" r="2.5" fill="#2563eb"/>
  <circle cx="346.39" cy="299.97" r="2.5" fill="#2563eb"/>
  <circle cx="347.48" cy="250.03" r="2.5" fill="#2563eb"/>
  <circle cx="348.57" cy="300.01" r="2.5" fill="#2563eb"/>
  <circle cx="349.66" cy="300.01" r="2.5" fill="#2563eb"/>
  <circle cx="350.76" cy="300.01" r="2.5" fill="#2563eb"/>
  <circle cx="351.85" cy="300.01" r="2.5" fill="#2563eb"/>
  <circle cx="352.94" cy="299.97" r="2.5" fill="#2563eb"/>
  <circle cx="354.03" cy="300.01" r="2.5" fill="#2563eb"/>
  <circle cx="355.13" cy="299.97" r="2.5" fill="#2563eb"/>
  <circle cx="356.22" cy="300.01" r="2.5" fill="#2563eb"/>
  <circle cx="357.31" cy="299.97" r="2.5" fill="#2563eb"/>
  <circle cx="358.40" cy="249.90" r="2.5" fill="#2563eb"/>
  <circle cx="359.50" cy="300.01" r="2.5" fill="#2563eb"/>
  <circle cx="360.59" cy="300.01" r="2.5" fill="#2563eb"/>
  <circle cx="361.68" cy="299.89" r="2.5" fill="#2563eb"/>
  <circle cx="362.77" cy="299.97" r="2.5" fill="#2563eb"/>
  <circle cx="363.87" cy="299.97" r="2.5" fill="#2563eb"/>
  <circle cx="364.96" cy="249.99" r="2.5" fill="#2563eb"/>
  <circle cx="366.05" cy="299.97" r="2.5" fill="#2563eb"/>
  <circle cx="367.14" cy="299.89" r="2.5" fill="#2563eb"/>
  <circle cx="368.24" cy="300.01" r="2.5" fill="#2563eb"/>
  <circle cx="369.33" cy="299.97" r="2.5" fill="#2563eb"/>
  <circle cx="370.42" cy="299.97" r="2.5" fill="#2563eb"/>
  <circle cx="371.51" cy="300.01" r="2.5" fill="#2563eb"/>
  <circle cx="372.61" cy="299.97" r="2.5" fill="#2563eb"/>
  <circle cx="373.70" cy="249.99" r="2.5" fill="#2563eb"/>
  <circle cx="374.79" cy="299.97" r="2.5" fill="#2563eb"/>
  <circle cx="375.88" cy="299.97" r="2.5" fill="#2563eb"/>
  <circle cx="376.97" cy="300.06" r="2.5" fill="#2563eb"/>
  <circle cx="378.07" cy="300.06" r="2.5" fill="#2563eb"/>
  <circle cx="379.16" cy="249.94" r="2.5" fill="#2563eb"/>
  <circle cx="380.25" cy="300.01" r="2.5" fill="#2563eb"/>
  <circle cx="381.34" cy="299.93" r="2.5" fill="#2563eb"/>
  <circle cx="382.44" cy="300.01" r="2.5" fill="#2563eb"/>
  <circle cx="383.53" cy="300.01" r="2.5" fill="#2563eb"/>
  <circle cx="384.62" cy="249.99" r="2.5" fill="#2563eb"/>
  <circle cx="385.71" cy="300.01" r="2.5" fill="#2563eb"/>
  <circle cx="386.81" cy="300.01" r="2.5" fill="#2563eb"/>
  <circle cx="387.90" cy="300.01" r="2.5" fill="#2563eb"/>
  <circle cx="388.99" cy="299.93" r="2.5" fill="#2563eb"/>
  <circle cx="390.08" cy="299.93" r="2.5" fill="#2563eb"/>
  <circle cx="391.18" cy="300.01" r="2.5" fill="#2563eb"/>
  <circle cx="392.27" cy="300.01" r="2.5" fill="#2563eb"/>
  <circle cx="393.36" cy="249.94" r="2.5" fill="#2563eb"/>
  <circle cx="394.45" cy="299.97" r="2.5" fill="#2563eb"/>
  <circle cx="395.55" cy="299.97" r="2.5" fill="#2563eb"/>
  <circle cx="396.64" cy="300.01" r="2.5" fill="#2563eb"/>
  <circle cx="397.73" cy="300.01" r="2.5" fill="#2563eb"/>
  <circle cx="398.82" cy="300.01" r="2.5" fill="#2563eb"/>
  <circle cx="399.92" cy="249.99" r="2.5" fill="#2563eb"/>
  <circle cx="401.01" cy="300.01" r="2.5" fill="#2563eb"/>
  <circle cx="402.10" cy="300.01" r="2.5" fill="#2563eb"/>
  <circle cx="403.19" cy="300.01" r="2.5" fill="#2563eb"/>
  <circle cx="404.29" cy="250.03" r="2.5" fill="#2563eb"/>
  <circle cx="405.38" cy="300.01" r="2.5" fill="#2563eb"/>
  <circle cx="406.47" cy="300.01" r="2.5" fill="#2563eb"/>
  <circle cx="407.56" cy="300.01" r="2.5" fill="#2563eb"/>
  <circle cx="408.66" cy="299.97" r="2.5" fill="#2563eb"/>
  <circle cx="409.75" cy="300.01" r="2.5" fill="#2563eb"/>
  <circle cx="410.84" cy="300.01" r="2.5" fill="#2563eb"/>
  <circle cx="411.93" cy="299.97" r="2.5" fill="#2563eb"/>
  <circle cx="413.03" cy="299.97" r="2.5" fill="#2563eb"/>
  <circle cx="414.12" cy="300.01" r="2.5" fill="#2563eb"/>
  <circle cx="415.21" cy="300.01" r="2.5" fill="#2563eb"/>
  <circle cx="416.30" cy="299.97" r="2.5" fill="#2563eb"/>
  <circle cx="417.39" cy="299.93" r="2.5" fill="#2563eb"/>
  <circle cx="418.49" cy="300.01" r="2.5" fill="#2563eb"/>
  <circle cx="419.58" cy="300.06" r="2.5" fill="#2563eb"/>
  <circle cx="420.67" cy="299.97" r="2.5" fill="#2563eb"/>
  <circle cx="421.76" cy="300.01" r="2.5" fill="#2563eb"/>
  <circle cx="422.86" cy="250.03" r="2.5" fill="#2563eb"/>
  <circle cx="423.95" cy="250.03" r="2.5" fill="#2563eb"/>
  <circle cx="425.04" cy="299.93" r="2.5" fill="#2563eb"/>
  <circle cx="426.13" cy="299.97" r="2.5" fill="#2563eb"/>
  <circle cx="427.23" cy="300.01" r="2.5" fill="#2563eb"/>
  <circle cx="428.32" cy="300.01" r="2.5" fill="#2563eb"/>
  <circle cx="429.41" cy="300.06" r="2.5" fill="#2563eb"/>
  <circle cx="430.50" cy="300.01" r="2.5" fill="#2563eb"/>
  <circle cx="431.60" cy="299.93" r="2.5" fill="#2563eb"/>
  <circle cx="432.69" cy="300.01" r="2.5" fill="#2563eb"/>
  <circle cx="433.78" cy="300.01" r="2.5" fill="#2563eb"/>
  <circle cx="434.87" cy="299.97" r="2.5" fill="#2563eb"/>
  <circle cx="435.97" cy="299.97" r="2.5" fill="#2563eb"/>
  <circle cx="437.06" cy="300.01" r="2.5" fill="#2563eb"/>
  <circle cx="438.15" cy="250.03" r="2.5" fill="#2563eb"/>
  <circle cx="439.24" cy="300.01" r="2.5" fill="#2563eb"/>
  <circle cx="440.34" cy="300.01" r="2.5" fill="#2563eb"/>
  <circle cx="441.43" cy="300.01" r="2.5" fill="#2563eb"/>
  <circle cx="442.52" cy="299.97" r="2.5" fill="#2563eb"/>
  <circle cx="443.61" cy="300.01" r="2.5" fill="#2563eb"/>
  <circle cx="444.71" cy="299.97" r="2.5" fill="#2563eb"/>
  <circle cx="445.80" cy="300.01" r="2.5" fill="#2563eb"/>
  <circle cx="446.89" cy="299.97" r="2.5" fill="#2563eb"/>
  <circle cx="447.98" cy="299.97" r="2.5" fill="#2563eb"/>
  <circle cx="449.08" cy="299.93" r="2.5" fill="#2563eb"/>
  <circle cx="450.17" cy="300.01" r="2.5" fill="#2563eb"/>
  <circle cx="451.26" cy="300.01" r="2.5" fill="#2563eb"/>
  <circle cx="452.35" cy="299.89" r="2.5" fill="#2563eb"/>
  <circle cx="453.45" cy="299.97" r="2.5" fill="#2563eb"/>
  <circle cx="454.54" cy="299.97" r="2.5" fill="#2563eb"/>
  <circle cx="455.63" cy="300.06" r="2.5" fill="#2563eb"/>
  <circle cx="456.72" cy="249.90" r="2.5" fill="#2563eb"/>
  <circle cx="457.82" cy="299.89" r="2.5" fill="#2563eb"/>
  <circle cx="458.91" cy="300.01" r="2.5" fill="#2563eb"/>
  <circle cx="460.00" cy="299.97" r="2.5" fill="#2563eb"/>
  <circle cx="461.09" cy="299.97" r="2.5" fill="#2563eb"/>
  <circle cx="462.18" cy="299.97" r="2.5" fill="#2563eb"/>
  <circle cx="463.28" cy="300.01" r="2.5" fill="#2563eb"/>
  <circle cx="464.37" cy="300.01" r="2.5" fill="#2563eb"/>
  <circle cx="465.46" cy="299.97" r="2.5" fill="#2563eb"/>
  <circle cx="466.55" cy="299.97" r="2.5" fill="#2563eb"/>
  <circle cx="467.65" cy="299.97" r="2.5" fill="#2563eb"/>
  <circle cx="468.74" cy="250.03" r="2.5" fill="#2563eb"/>
  <circle cx="469.83" cy="299.93" r="2.5" fill="#2563eb"/>
  <circle cx="470.92" cy="300.01" r="2.5" fill="#2563eb"/>
  <circle cx="472.02" cy="300.01" r="2.5" fill="#2563eb"/>
  <circle cx="473.11" cy="299.93" r="2.5" fill="#2563eb"/>
  <circle cx="474.20" cy="300.01" r="2.5" fill="#2563eb"/>
  <circle cx="475.29" cy="300.01" r="2.5" fill="#2563eb"/>
  <circle cx="476.39" cy="299.97" r="2.5" fill="#2563eb"/>
  <circle cx="477.48" cy="300.01" r="2.5" fill="#2563eb"/>
  <circle cx="478.57" cy="300.01" r="2.5" fill="#2563eb"/>
  <circle cx="479.66" cy="300.06" r="2.5" fill="#2563eb"/>
  <circle cx="480.76" cy="300.01" r="2.5" fill="#2563eb"/>
  <circle cx="481.85" cy="299.97" r="2.5" fill="#2563eb"/>
  <circle cx="482.94" cy="299.89" r="2.5" fill="#2563eb"/>
  <circle cx="484.03" cy="300.01" r="2.5" fill="#2563eb"/>
  <circle cx="485.13" cy="300.01" r="2.5" fill="#2563eb"/>
  <circle cx="486.22" cy="249.94" r="2.5" fill="#2563eb"/>
  <circle cx="487.31" cy="249.94" r="2.5" fill="#2563eb"/>
  <circle cx="488.40" cy="300.01" r="2.5" fill="#2563eb"/>
  <circle cx="489.50" cy="300.01" r="2.5" fill="#2563eb"/>
  <circle cx="490.59" cy="300.01" r="2.5" fill="#2563eb"/>
  <circle cx="491.68" cy="300.01" r="2.5" fill="#2563eb"/>
  <circle cx="492.77" cy="299.97" r="2.5" fill="#2563eb"/>
  <circle cx="493.87" cy="250.03" r="2.5" fill="#2563eb"/>
  <circle cx="494.96" cy="300.01" r="2.5" fill="#2563eb"/>
  <circle cx="496.05" cy="300.01" r="2.5" fill="#2563eb"/>
  <circle cx="497.14" cy="300.01" r="2.5" fill="#2563eb"/>
  <circle cx="498.24" cy="300.01" r="2.5" fill="#2563eb"/>
  <circle cx="499.33" cy="250.03" r="2.5" fill="#2563eb"/>
  <circle cx="500.42" cy="249.99" r="2.5" fill="#2563eb"/>
  <circle cx="501.51" cy="300.01" r="2.5" fill="#2563eb"/>
  <circle cx="502.61" cy="299.97" r="2.5" fill="#2563eb"/>
  <circle cx="503.70" cy="300.01" r="2.5" fill="#2563eb"/>
  <circle cx="504.79" cy="299.97" r="2.5" fill="#2563eb"/>
  <circle cx="505.88" cy="300.01" r="2.5" fill="#2563eb"/>
  <circle cx="506.97" cy="299.97" r="2.5" fill="#2563eb"/>
  <circle cx="508.07" cy="299.97" r="2.5" fill="#2563eb"/>
  <circle cx="509.16" cy="299.97" r="2.5" fill="#2563eb"/>
  <circle cx="510.25" cy="300.06" r="2.5" fill="#2563eb"/>
  <circle cx="511.34" cy="249.99" r="2.5" fill="#2563eb"/>
  <circle cx="512.44" cy="300.01" r="2.5" fill="#2563eb"/>
  <circle cx="513.53" cy="250.03" r="2.5" fill="#2563eb"/>
  <circle cx="514.62" cy="249.94" r="2.5" fill="#2563eb"/>
  <circle cx="515.71" cy="249.99" r="2.5" fill="#2563eb"/>
  <circle cx="516.81" cy="300.01" r="2.5" fill="#2563eb"/>
  <circle cx="517.90" cy="300.06" r="2.5" fill="#2563eb"/>
  <circle cx="518.99" cy="300.01" r="2.5" fill="#2563eb"/>
  <circle cx="520.08" cy="299.97" r="2.5" fill="#2563eb"/>
  <circle cx="521.18" cy="299.97" r="2.5" fill="#2563eb"/>
  <circle cx="522.27" cy="300.01" r="2.5" fill="#2563eb"/>
  <circle cx="523.36" cy="299.93" r="2.5" fill="#2563eb"/>
  <circle cx="524.45" cy="299.89" r="2.5" fill="#2563eb"/>
  <circle cx="525.55" cy="299.89" r="2.5" fill="#2563eb"/>
  <circle cx="526.64" cy="299.89" r="2.5" fill="#2563eb"/>
  <circle cx="527.73" cy="299.89" r="2.5" fill="#2563eb"/>
  <circle cx="528.82" cy="299.85" r="2.5" fill="#2563eb"/>
  <circle cx="529.92" cy="299.85" r="2.5" fill="#2563eb"/>
  <circle cx="531.01" cy="299.89" r="2.5" fill="#2563eb"/>
  <circle cx="532.10" cy="299.81" r="2.5" fill="#2563eb"/>
  <circle cx="533.19" cy="299.81" r="2.5" fill="#2563eb"/>
  <circle cx="534.29" cy="299.81" r="2.5" fill="#2563eb"/>
  <circle cx="535.38" cy="299.76" r="2.5" fill="#2563eb"/>
  <circle cx="536.47" cy="299.76" r="2.5" fill="#2563eb"/>
  <circle cx="537.56" cy="299.76" r="2.5" fill="#2563eb"/>
  <circle cx="538.66" cy="299.72" r="2.5" fill="#2563eb"/>
  <circle cx="539.75" cy="299.68" r="2.5" fill="#2563eb"/>
  <circle cx="540.84" cy="299.60" r="2.5" fill="#2563eb"/>
  <circle cx="541.93" cy="299.60" r="2.5" fill="#2563eb"/>
  <circle cx="543.03" cy="299.60" r="2.5" fill="#2563eb"/>
  <circle cx="544.12" cy="299.56" r="2.5" fill="#2563eb"/>
  <circle cx="545.21" cy="299.47" r="2.5" fill="#2563eb"/>
  <circle cx="546.30" cy="299.43" r="2.5" fill="#2563eb"/>
  <circle cx="547.39" cy="299.43" r="2.5" fill="#2563eb"/>
  <circle cx="548.49" cy="299.39" r="2.5" fill="#2563eb"/>
  <circle cx="549.58" cy="299.47" r="2.5" fill="#2563eb"/>
  <circle cx="550.67" cy="259.82" r="2.5" fill="#2563eb"/>
  <circle cx="551.76" cy="338.96" r="2.5" fill="#2563eb"/>
  <circle cx="552.86" cy="299.31" r="2.5" fill="#2563eb"/>
  <circle cx="553.95" cy="299.31" r="2.5" fill="#2563eb"/>
  <circle cx="555.04" cy="299.26" r="2.5" fill="#2563eb"/>
  <circle cx="556.13" cy="299.68" r="2.5" fill="#2563eb"/>
  <circle cx="557.23" cy="299.68" r="2.5" fill="#2563eb"/>
  <circle cx="558.32" cy="299.68" r="2.5" fill="#2563eb"/>
  <circle cx="559.41" cy="299.64" r="2.5" fill="#2563eb"/>
  <circle cx="560.50" cy="299.14" r="2.5" fill="#2563eb"/>
  <circle cx="561.60" cy="299.14" r="2.5" fill="#2563eb"/>
  <circle cx="562.69" cy="299.10" r="2.5" fill="#2563eb"/>
  <circle cx="563.78" cy="299.10" r="2.5" fill="#2563eb"/>
  <circle cx="564.87" cy="299.10" r="2.5" fill="#2563eb"/>
  <circle cx="565.97" cy="248.07" r="2.5" fill="#2563eb"/>
  <circle cx="567.06" cy="299.06" r="2.5" fill="#2563eb"/>
  <circle cx="568.15" cy="299.06" r="2.5" fill="#2563eb"/>
  <circle cx="569.24" cy="299.06" r="2.5" fill="#2563eb"/>
  <circle cx="570.34" cy="299.06" r="2.5" fill="#2563eb"/>
  <circle cx="571.43" cy="299.06" r="2.5" fill="#2563eb"/>
  <circle cx="572.52" cy="298.97" r="2.5" fill="#2563eb"/>
  <circle cx="573.61" cy="298.97" r="2.5" fill="#2563eb"/>
  <circle cx="574.71" cy="298.93" r="2.5" fill="#2563eb"/>
  <circle cx="575.80" cy="298.97" r="2.5" fill="#2563eb"/>
  <circle cx="576.89" cy="298.93" r="2.5" fill="#2563eb"/>
  <circle cx="577.98" cy="298.89" r="2.5" fill="#2563eb"/>
  <circle cx="579.08" cy="298.89" r="2.5" fill="#2563eb"/>
  <circle cx="580.17" cy="298.89" r="2.5" fill="#2563eb"/>
  <circle cx="581.26" cy="298.89" r="2.5" fill="#2563eb"/>
  <circle cx="582.35" cy="247.78" r="2.5" fill="#2563eb"/>
  <circle cx="583.45" cy="298.89" r="2.5" fill="#2563eb"/>
  <circle cx="584.54" cy="298.89" r="2.5" fill="#2563eb"/>
  <circle cx="585.63" cy="298.85" r="2.5" fill="#2563eb"/>
  <circle cx="586.72" cy="298.85" r="2.5" fill="#2563eb"/>
  <circle cx="587.82" cy="298.81" r="2.5" fill="#2563eb"/>
  <circle cx="588.91" cy="298.81" r="2.5" fill="#2563eb"/>
  <circle cx="590.00" cy="298.81" r="2.5" fill="#2563eb"/>
  <circle cx="591.09" cy="298.81" r="2.5" fill="#2563eb"/>
  <circle cx="592.18" cy="298.81" r="2.5" fill="#2563eb"/>
  <circle cx="593.28" cy="298.81" r="2.5" fill="#2563eb"/>
  <circle cx="594.37" cy="298.81" r="2.5" fill="#2563eb"/>
  <circle cx="595.46" cy="298.81" r="2.5" fill="#2563eb"/>
  <circle cx="596.55" cy="298.81" r="2.5" fill="#2563eb"/>
  <circle cx="597.65" cy="298.72" r="2.5" fill="#2563eb"/>
  <circle cx="598.74" cy="247.45" r="2.5" fill="#2563eb"/>
  <circle cx="599.83" cy="247.45" r="2.5" fill="#2563eb"/>
  <circle cx="600.92" cy="298.72" r="2.5" fill="#2563eb"/>
  <circle cx="602.02" cy="298.72" r="2.5" fill="#2563eb"/>
  <circle cx="603.11" cy="298.72" r="2.5" fill="#2563eb"/>
  <circle cx="604.20" cy="298.72" r="2.5" fill="#2563eb"/>
  <circle cx="605.29" cy="298.72" r="2.5" fill="#2563eb"/>
  <circle cx="606.39" cy="298.72" r="2.5" fill="#2563eb"/>
  <circle cx="607.48" cy="247.36" r="2.5" fill="#2563eb"/>
  <circle cx="608.57" cy="298.68" r="2.5" fill="#2563eb"/>
  <circle cx="609.66" cy="247.36" r="2.5" fill="#2563eb"/>
  <circle cx="610.76" cy="247.36" r="2.5" fill="#2563eb"/>
  <circle cx="611.85" cy="247.36" r="2.5" fill="#2563eb"/>
  <circle cx="612.94" cy="298.68" r="2.5" fill="#2563eb"/>
  <circle cx="614.03" cy="298.68" r="2.5" fill="#2563eb"/>
  <circle cx="615.13" cy="298.68" r="2.5" fill="#2563eb"/>
  <circle cx="616.22" cy="298.68" r="2.5" fill="#2563eb"/>
  <circle cx="617.31" cy="298.68" r="2.5" fill="#2563eb"/>
  <circle cx="618.40" cy="341.67" r="2.5" fill="#2563eb"/>
  <circle cx="619.50" cy="307.01" r="2.5" fill="#2563eb"/>
  <circle cx="620.59" cy="298.68" r="2.5" fill="#2563eb"/>
  <circle cx="621.68" cy="298.68" r="2.5" fill="#2563eb"/>
  <circle cx="622.77" cy="298.68" r="2.5" fill="#2563eb"/>
  <circle cx="623.87" cy="247.36" r="2.5" fill="#2563eb"/>
  <circle cx="624.96" cy="298.64" r="2.5" fill="#2563eb"/>
  <circle cx="626.05" cy="247.36" r="2.5" fill="#2563eb"/>
  <circle cx="627.14" cy="247.28" r="2.5" fill="#2563eb"/>
  <circle cx="628.24" cy="247.20" r="2.5" fill="#2563eb"/>
  <circle cx="629.33" cy="298.60" r="2.5" fill="#2563eb"/>
  <circle cx="630.42" cy="298.60" r="2.5" fill="#2563eb"/>
  <circle cx="631.51" cy="247.03" r="2.5" fill="#2563eb"/>
  <circle cx="632.61" cy="298.51" r="2.5" fill="#2563eb"/>
  <circle cx="633.70" cy="298.51" r="2.5" fill="#2563eb"/>
  <circle cx="634.79" cy="298.51" r="2.5" fill="#2563eb"/>
  <circle cx="635.88" cy="298.51" r="2.5" fill="#2563eb"/>
  <circle cx="636.97" cy="298.51" r="2.5" fill="#2563eb"/>
  <circle cx="638.07" cy="298.51" r="2.5" fill="#2563eb"/>
  <circle cx="639.16" cy="298.51" r="2.5" fill="#2563eb"/>
  <circle cx="640.25" cy="298.51" r="2.5" fill="#2563eb"/>
  <circle cx="641.34" cy="298.51" r="2.5" fill="#2563eb"/>
  <circle cx="642.44" cy="298.51" r="2.5" fill="#2563eb"/>
  <circle cx="643.53" cy="298.51" r="2.5" fill="#2563eb"/>
  <circle cx="644.62" cy="298.51" r="2.5" fill="#2563eb"/>
  <circle cx="645.71" cy="298.51" r="2.5" fill="#2563eb"/>
  <circle cx="646.81" cy="298.51" r="2.5" fill="#2563eb"/>
  <circle cx="647.90" cy="298.51" r="2.5" fill="#2563eb"/>
  <circle cx="648.99" cy="298.51" r="2.5" fill="#2563eb"/>
  <circle cx="650.08" cy="298.51" r="2.5" fill="#2563eb"/>
  <circle cx="651.18" cy="298.51" r="2.5" fill="#2563eb"/>
  <circle cx="652.27" cy="298.51" r="2.5" fill="#2563eb"/>
  <circle cx="653.36" cy="298.51" r="2.5" fill="#2563eb"/>
  <circle cx="654.45" cy="298.51" r="2.5" fill="#2563eb"/>
  <circle cx="655.55" cy="298.51" r="2.5" fill="#2563eb"/>
  <circle cx="656.64" cy="298.51" r="2.5" fill="#2563eb"/>
  <circle cx="657.73" cy="298.51" r="2.5" fill="#2563eb"/>
  <circle cx="658.82" cy="298.51" r="2.5" fill="#2563eb"/>
  <circle cx="659.92" cy="298.51" r="2.5" fill="#2563eb"/>
  <circle cx="661.01" cy="298.47" r="2.5" fill="#2563eb"/>
  <circle cx="662.10" cy="298.51" r="2.5" fill="#2563eb"/>
  <circle cx="663.19" cy="298.51" r="2.5" fill="#2563eb"/>
  <circle cx="664.29" cy="298.47" r="2.5" fill="#2563eb"/>
  <circle cx="665.38" cy="298.51" r="2.5" fill="#2563eb"/>
  <circle cx="666.47" cy="298.47" r="2.5" fill="#2563eb"/>
  <circle cx="667.56" cy="298.51" r="2.5" fill="#2563eb"/>
  <circle cx="668.66" cy="298.43" r="2.5" fill="#2563eb"/>
  <circle cx="669.75" cy="298.56" r="2.5" fill="#2563eb"/>
  <circle cx="670.84" cy="298.43" r="2.5" fill="#2563eb"/>
  <circle cx="671.93" cy="298.43" r="2.5" fill="#2563eb"/>
  <circle cx="673.03" cy="298.43" r="2.5" fill="#2563eb"/>
  <circle cx="674.12" cy="298.43" r="2.5" fill="#2563eb"/>
  <circle cx="675.21" cy="298.43" r="2.5" fill="#2563eb"/>
  <circle cx="676.30" cy="298.43" r="2.5" fill="#2563eb"/>
  <circle cx="677.39" cy="298.43" r="2.5" fill="#2563eb"/>
  <circle cx="678.49" cy="298.43" r="2.5" fill="#2563eb"/>
  <circle cx="679.58" cy="298.43" r="2.5" fill="#2563eb"/>
  <circle cx="680.67" cy="298.43" r="2.5" fill="#2563eb"/>
  <circle cx="681.76" cy="298.43" r="2.5" fill="#2563eb"/>
  <circle cx="682.86" cy="298.43" r="2.5" fill="#2563eb"/>
  <circle cx="683.95" cy="298.43" r="2.5" fill="#2563eb"/>
  <circle cx="685.04" cy="298.43" r="2.5" fill="#2563eb"/>
  <circle cx="686.13" cy="298.43" r="2.5" fill="#2563eb"/>
  <circle cx="687.23" cy="298.43" r="2.5" fill="#2563eb"/>
  <circle cx="688.32" cy="298.43" r="2.5" fill="#2563eb"/>
  <circle cx="689.41" cy="298.43" r="2.5" fill="#2563eb"/>
  <circle cx="690.50" cy="298.43" r="2.5" fill="#2563eb"/>
  <circle cx="691.60" cy="298.43" r="2.5" fill="#2563eb"/>
  <circle cx="692.69" cy="298.43" r="2.5" fill="#2563eb"/>
  <circle cx="693.78" cy="298.43" r="2.5" fill="#2563eb"/>
  <circle cx="694.87" cy="298.43" r="2.5" fill="#2563eb"/>
  <circle cx="695.97" cy="298.43" r="2.5" fill="#2563eb"/>
  <circle cx="697.06" cy="298.43" r="2.5" fill="#2563eb"/>
  <circle cx="698.15" cy="298.43" r="2.5" fill="#2563eb"/>
  <circle cx="699.24" cy="298.43" r="2.5" fill="#2563eb"/>
  <circle cx="700.34" cy="298.43" r="2.5" fill="#2563eb"/>
  <circle cx="701.43" cy="298.43" r="2.5" fill="#2563eb"/>
  <circle cx="702.52" cy="298.43" r="2.5" fill="#2563eb"/>
  <circle cx="703.61" cy="298.43" r="2.5" fill="#2563eb"/>
  <circle cx="704.71" cy="298.43" r="2.5" fill="#2563eb"/>
  <circle cx="705.80" cy="298.43" r="2.5" fill="#2563eb"/>
  <circle cx="706.89" cy="298.43" r="2.5" fill="#2563eb"/>
  <circle cx="707.98" cy="298.39" r="2.5" fill="#2563eb"/>
  <circle cx="709.08" cy="298.39" r="2.5" fill="#2563eb"/>
  <circle cx="710.17" cy="298.43" r="2.5" fill="#2563eb"/>
  <circle cx="711.26" cy="298.43" r="2.5" fill="#2563eb"/>
  <circle cx="712.35" cy="298.39" r="2.5" fill="#2563eb"/>
  <circle cx="713.45" cy="298.39" r="2.5" fill="#2563eb"/>
  <circle cx="714.54" cy="298.39" r="2.5" fill="#2563eb"/>
  <circle cx="715.63" cy="298.43" r="2.5" fill="#2563eb"/>
  <circle cx="716.72" cy="298.43" r="2.5" fill="#2563eb"/>
  <circle cx="717.82" cy="298.43" r="2.5" fill="#2563eb"/>
  <circle cx="718.91" cy="246.82" r="2.5" fill="#2563eb"/>
  <circle cx="720.00" cy="298.43" r="2.5" fill="#2563eb"/>
  <circle cx="721.09" cy="246.78" r="2.5" fill="#2563eb"/>
  <circle cx="722.18" cy="246.78" r="2.5" fill="#2563eb"/>
  <circle cx="723.28" cy="246.78" r="2.5" fill="#2563eb"/>
  <circle cx="724.37" cy="246.70" r="2.5" fill="#2563eb"/>
  <circle cx="725.46" cy="246.78" r="2.5" fill="#2563eb"/>
  <circle cx="726.55" cy="298.39" r="2.5" fill="#2563eb"/>
  <circle cx="727.65" cy="298.39" r="2.5" fill="#2563eb"/>
  <circle cx="728.74" cy="298.39" r="2.5" fill="#2563eb"/>
  <circle cx="729.83" cy="298.39" r="2.5" fill="#2563eb"/>
  <circle cx="730.92" cy="298.39" r="2.5" fill="#2563eb"/>
  <circle cx="732.02" cy="246.78" r="2.5" fill="#2563eb"/>
  <circle cx="733.11" cy="298.39" r="2.5" fill="#2563eb"/>
  <circle cx="734.20" cy="298.39" r="2.5" fill="#2563eb"/>
  <circle cx="735.29" cy="298.39" r="2.5" fill="#2563eb"/>
  <circle cx="736.39" cy="298.39" r="2.5" fill="#2563eb"/>
  <circle cx="737.48" cy="298.39" r="2.5" fill="#2563eb"/>
  <circle cx="738.57" cy="246.78" r="2.5" fill="#2563eb"/>
  <circle cx="739.66" cy="246.78" r="2.5" fill="#2563eb"/>
  <circle cx="740.76" cy="298.39" r="2.5" fill="#2563eb"/>
  <circle cx="741.85" cy="298.39" r="2.5" fill="#2563eb"/>
  <circle cx="742.94" cy="298.39" r="2.5" fill="#2563eb"/>
  <circle cx="744.03" cy="298.39" r="2.5" fill="#2563eb"/>
  <circle cx="745.13" cy="298.39" r="2.5" fill="#2563eb"/>
  <circle cx="746.22" cy="298.39" r="2.5" fill="#2563eb"/>
  <circle cx="747.31" cy="298.39" r="2.5" fill="#2563eb"/>
  <circle cx="748.40" cy="298.39" r="2.5" fill="#2563eb"/>
  <circle cx="749.50" cy="298.39" r="2.5" fill="#2563eb"/>
  <circle cx="750.59" cy="298.39" r="2.5" fill="#2563eb"/>
  <circle cx="751.68" cy="298.39" r="2.5" fill="#2563eb"/>
  <circle cx="752.77" cy="298.39" r="2.5" fill="#2563eb"/>
  <circle cx="753.87" cy="298.39" r="2.5" fill="#2563eb"/>
  <circle cx="754.96" cy="298.39" r="2.5" fill="#2563eb"/>
  <circle cx="756.05" cy="298.35" r="2.5" fill="#2563eb"/>
  <circle cx="757.14" cy="298.39" r="2.5" fill="#2563eb"/>
  <circle cx="758.24" cy="298.39" r="2.5" fill="#2563eb"/>
  <circle cx="759.33" cy="298.35" r="2.5" fill="#2563eb"/>
  <circle cx="760.42" cy="298.35" r="2.5" fill="#2563eb"/>
  <circle cx="761.51" cy="298.35" r="2.5" fill="#2563eb"/>
  <circle cx="762.61" cy="298.35" r="2.5" fill="#2563eb"/>
  <circle cx="763.70" cy="298.35" r="2.5" fill="#2563eb"/>
  <circle cx="764.79" cy="298.35" r="2.5" fill="#2563eb"/>
  <circle cx="765.88" cy="298.35" r="2.5" fill="#2563eb"/>
  <circle cx="766.97" cy="298.35" r="2.5" fill="#2563eb"/>
  <circle cx="768.07" cy="298.35" r="2.5" fill="#2563eb"/>
  <circle cx="769.16" cy="298.35" r="2.5" fill="#2563eb"/>
  <circle cx="770.25" cy="298.35" r="2.5" fill="#2563eb"/>
  <circle cx="771.34" cy="298.35" r="2.5" fill="#2563eb"/>
  <circle cx="772.44" cy="298.35" r="2.5" fill="#2563eb"/>
  <circle cx="773.53" cy="298.35" r="2.5" fill="#2563eb"/>
  <circle cx="774.62" cy="298.35" r="2.5" fill="#2563eb"/>
  <circle cx="775.71" cy="298.35" r="2.5" fill="#2563eb"/>
  <circle cx="776.81" cy="298.35" r="2.5" fill="#2563eb"/>
  <circle cx="777.90" cy="298.35" r="2.5" fill="#2563eb"/>
  <circle cx="778.99" cy="298.35" r="2.5" fill="#2563eb"/>
  <circle cx="780.08" cy="298.35" r="2.5" fill="#2563eb"/>
  <circle cx="781.18" cy="298.35" r="2.5" fill="#2563eb"/>
  <circle cx="782.27" cy="298.35" r="2.5" fill="#2563eb"/>
  <circle cx="783.36" cy="298.35" r="2.5" fill="#2563eb"/>
  <circle cx="784.45" cy="298.35" r="2.5" fill="#2563eb"/>
  <circle cx="785.55" cy="298.35" r="2.5" fill="#2563eb"/>
  <circle cx="786.64" cy="298.35" r="2.5" fill="#2563eb"/>
  <circle cx="787.73" cy="298.35" r="2.5" fill="#2563eb"/>
  <circle cx="788.82" cy="298.35" r="2.5" fill="#2563eb"/>
  <circle cx="789.92" cy="298.35" r="2.5" fill="#2563eb"/>
  <circle cx="791.01" cy="298.35" r="2.5" fill="#2563eb"/>
  <circle cx="792.10" cy="298.35" r="2.5" fill="#2563eb"/>
  <circle cx="793.19" cy="298.35" r="2.5" fill="#2563eb"/>
  <circle cx="794.29" cy="298.35" r="2.5" fill="#2563eb"/>
  <circle cx="795.38" cy="298.35" r="2.5" fill="#2563eb"/>
  <circle cx="796.47" cy="298.35" r="2.5" fill="#2563eb"/>
  <circle cx="797.56" cy="298.35" r="2.5" fill="#2563eb"/>
  <circle cx="798.66" cy="298.35" r="2.5" fill="#2563eb"/>
  <circle cx="799.75" cy="298.35" r="2.5" fill="#2563eb"/>
  <circle cx="800.84" cy="298.35" r="2.5" fill="#2563eb"/>
  <circle cx="801.93" cy="298.35" r="2.5" fill="#2563eb"/>
  <circle cx="803.03" cy="298.35" r="2.5" fill="#2563eb"/>
  <circle cx="804.12" cy="298.35" r="2.5" fill="#2563eb"/>
  <circle cx="805.21" cy="298.35" r="2.5" fill="#2563eb"/>
  <circle cx="806.30" cy="298.35" r="2.5" fill="#2563eb"/>
  <circle cx="807.39" cy="298.35" r="2.5" fill="#2563eb"/>
  <circle cx="808.49" cy="298.35" r="2.5" fill="#2563eb"/>
  <circle cx="809.58" cy="298.35" r="2.5" fill="#2563eb"/>
  <circle cx="810.67" cy="298.35" r="2.5" fill="#2563eb"/>
  <circle cx="811.76" cy="298.35" r="2.5" fill="#2563eb"/>
  <circle cx="812.86" cy="298.35" r="2.5" fill="#2563eb"/>
  <circle cx="813.95" cy="298.35" r="2.5" fill="#2563eb"/>
  <circle cx="815.04" cy="298.35" r="2.5" fill="#2563eb"/>
  <circle cx="816.13" cy="298.39" r="2.5" fill="#2563eb"/>
  <circle cx="817.23" cy="298.39" r="2.5" fill="#2563eb"/>
  <circle cx="818.32" cy="298.39" r="2.5" fill="#2563eb"/>
  <circle cx="819.41" cy="246.78" r="2.5" fill="#2563eb"/>
  <circle cx="820.50" cy="298.39" r="2.5" fill="#2563eb"/>
  <circle cx="821.60" cy="298.39" r="2.5" fill="#2563eb"/>
  <circle cx="822.69" cy="298.39" r="2.5" fill="#2563eb"/>
  <circle cx="823.78" cy="298.39" r="2.5" fill="#2563eb"/>
  <circle cx="824.87" cy="298.39" r="2.5" fill="#2563eb"/>
  <circle cx="825.97" cy="298.39" r="2.5" fill="#2563eb"/>
  <circle cx="827.06" cy="298.39" r="2.5" fill="#2563eb"/>
  <circle cx="828.15" cy="246.78" r="2.5" fill="#2563eb"/>
  <circle cx="829.24" cy="298.39" r="2.5" fill="#2563eb"/>
  <circle cx="830.34" cy="298.39" r="2.5" fill="#2563eb"/>
  <circle cx="831.43" cy="298.39" r="2.5" fill="#2563eb"/>
  <circle cx="832.52" cy="298.39" r="2.5" fill="#2563eb"/>
  <circle cx="833.61" cy="298.39" r="2.5" fill="#2563eb"/>
  <circle cx="834.71" cy="298.39" r="2.5" fill="#2563eb"/>
  <circle cx="835.80" cy="298.39" r="2.5" fill="#2563eb"/>
  <circle cx="836.89" cy="246.78" r="2.5" fill="#2563eb"/>
  <circle cx="837.98" cy="298.39" r="2.5" fill="#2563eb"/>
  <circle cx="839.08" cy="298.39" r="2.5" fill="#2563eb"/>
  <circle cx="840.17" cy="298.39" r="2.5" fill="#2563eb"/>
  <circle cx="841.26" cy="298.39" r="2.5" fill="#2563eb"/>
  <circle cx="842.35" cy="298.39" r="2.5" fill="#2563eb"/>
  <circle cx="843.45" cy="298.39" r="2.5" fill="#2563eb"/>
  <circle cx="844.54" cy="298.39" r="2.5" fill="#2563eb"/>
  <circle cx="845.63" cy="298.39" r="2.5" fill="#2563eb"/>
  <circle cx="846.72" cy="298.39" r="2.5" fill="#2563eb"/>
  <circle cx="847.82" cy="298.39" r="2.5" fill="#2563eb"/>
  <circle cx="848.91" cy="298.39" r="2.5" fill="#2563eb"/>
  <circle cx="850.00" cy="298.35" r="2.5" fill="#2563eb"/>
  <circle cx="851.09" cy="298.39" r="2.5" fill="#2563eb"/>
  <circle cx="852.18" cy="298.39" r="2.5" fill="#2563eb"/>
  <circle cx="853.28" cy="298.39" r="2.5" fill="#2563eb"/>
  <circle cx="854.37" cy="298.35" r="2.5" fill="#2563eb"/>
  <circle cx="855.46" cy="298.35" r="2.5" fill="#2563eb"/>
  <circle cx="856.55" cy="298.35" r="2.5" fill="#2563eb"/>
  <circle cx="857.65" cy="298.35" r="2.5" fill="#2563eb"/>
  <circle cx="858.74" cy="298.35" r="2.5" fill="#2563eb"/>
  <circle cx="859.83" cy="298.35" r="2.5" fill="#2563eb"/>
  <circle cx="860.92" cy="298.35" r="2.5" fill="#2563eb"/>
  <circle cx="862.02" cy="298.35" r="2.5" fill="#2563eb"/>
  <circle cx="863.11" cy="298.35" r="2.5" fill="#2563eb"/>
  <circle cx="864.20" cy="298.35" r="2.5" fill="#2563eb"/>
  <circle cx="865.29" cy="298.35" r="2.5" fill="#2563eb"/>
  <circle cx="866.39" cy="298.35" r="2.5" fill="#2563eb"/>
  <circle cx="867.48" cy="298.35" r="2.5" fill="#2563eb"/>
  <circle cx="868.57" cy="298.35" r="2.5" fill="#2563eb"/>
  <circle cx="869.66" cy="298.35" r="2.5" fill="#2563eb"/>
  <circle cx="870.76" cy="298.35" r="2.5" fill="#2563eb"/>
  <circle cx="871.85" cy="298.39" r="2.5" fill="#2563eb"/>
  <circle cx="872.94" cy="298.39" r="2.5" fill="#2563eb"/>
  <circle cx="874.03" cy="298.39" r="2.5" fill="#2563eb"/>
  <circle cx="875.13" cy="298.39" r="2.5" fill="#2563eb"/>
  <circle cx="876.22" cy="298.39" r="2.5" fill="#2563eb"/>
  <circle cx="877.31" cy="298.39" r="2.5" fill="#2563eb"/>
  <circle cx="878.40" cy="298.35" r="2.5" fill="#2563eb"/>
  <circle cx="879.50" cy="298.39" r="2.5" fill="#2563eb"/>
  <circle cx="880.59" cy="298.39" r="2.5" fill="#2563eb"/>
  <circle cx="881.68" cy="298.39" r="2.5" fill="#2563eb"/>
  <circle cx="882.77" cy="298.39" r="2.5" fill="#2563eb"/>
  <circle cx="883.87" cy="298.39" r="2.5" fill="#2563eb"/>
  <circle cx="884.96" cy="298.39" r="2.5" fill="#2563eb"/>
  <circle cx="886.05" cy="298.39" r="2.5" fill="#2563eb"/>
  <circle cx="887.14" cy="298.39" r="2.5" fill="#2563eb"/>
  <circle cx="888.24" cy="298.39" r="2.5" fill="#2563eb"/>
  <circle cx="889.33" cy="298.35" r="2.5" fill="#2563eb"/>
  <circle cx="890.42" cy="298.39" r="2.5" fill="#2563eb"/>
  <circle cx="891.51" cy="298.39" r="2.5" fill="#2563eb"/>
  <circle cx="892.61" cy="298.39" r="2.5" fill="#2563eb"/>
  <circle cx="893.70" cy="298.39" r="2.5" fill="#2563eb"/>
  <circle cx="894.79" cy="298.39" r="2.5" fill="#2563eb"/>
  <circle cx="895.88" cy="298.39" r="2.5" fill="#2563eb"/>
  <circle cx="896.97" cy="298.39" r="2.5" fill="#2563eb"/>
  <circle cx="898.07" cy="298.39" r="2.5" fill="#2563eb"/>
  <circle cx="899.16" cy="298.39" r="2.5" fill="#2563eb"/>
  <circle cx="900.25" cy="298.39" r="2.5" fill="#2563eb"/>
  <circle cx="901.34" cy="298.39" r="2.5" fill="#2563eb"/>
  <circle cx="902.44" cy="298.39" r="2.5" fill="#2563eb"/>
  <circle cx="903.53" cy="298.39" r="2.5" fill="#2563eb"/>
  <circle cx="904.62" cy="298.39" r="2.5" fill="#2563eb"/>
  <circle cx="905.71" cy="298.39" r="2.5" fill="#2563eb"/>
  <circle cx="906.81" cy="298.39" r="2.5" fill="#2563eb"/>
  <circle cx="907.90" cy="298.35" r="2.5" fill="#2563eb"/>
  <circle cx="908.99" cy="298.35" r="2.5" fill="#2563eb"/>
  <circle cx="910.08" cy="298.39" r="2.5" fill="#2563eb"/>
  <circle cx="911.18" cy="298.39" r="2.5" fill="#2563eb"/>
  <circle cx="912.27" cy="298.39" r="2.5" fill="#2563eb"/>
  <circle cx="913.36" cy="298.39" r="2.5" fill="#2563eb"/>
  <circle cx="914.45" cy="298.39" r="2.5" fill="#2563eb"/>
  <circle cx="915.55" cy="298.39" r="2.5" fill="#2563eb"/>
  <circle cx="916.64" cy="298.39" r="2.5" fill="#2563eb"/>
  <circle cx="917.73" cy="298.39" r="2.5" fill="#2563eb"/>
  <circle cx="918.82" cy="298.39" r="2.5" fill="#2563eb"/>
  <circle cx="919.92" cy="298.39" r="2.5" fill="#2563eb"/>
  <circle cx="921.01" cy="298.35" r="2.5" fill="#2563eb"/>
  <circle cx="922.10" cy="298.35" r="2.5" fill="#2563eb"/>
  <circle cx="923.19" cy="298.39" r="2.5" fill="#2563eb"/>
  <circle cx="924.29" cy="298.39" r="2.5" fill="#2563eb"/>
  <circle cx="925.38" cy="298.39" r="2.5" fill="#2563eb"/>
  <circle cx="926.47" cy="298.39" r="2.5" fill="#2563eb"/>
  <circle cx="927.56" cy="298.39" r="2.5" fill="#2563eb"/>
  <circle cx="928.66" cy="298.39" r="2.5" fill="#2563eb"/>
  <circle cx="929.75" cy="298.39" r="2.5" fill="#2563eb"/>
  <circle cx="930.84" cy="298.39" r="2.5" fill="#2563eb"/>
  <circle cx="931.93" cy="298.39" r="2.5" fill="#2563eb"/>
  <circle cx="933.03" cy="298.39" r="2.5" fill="#2563eb"/>
  <circle cx="934.12" cy="298.39" r="2.5" fill="#2563eb"/>
  <circle cx="935.21" cy="298.39" r="2.5" fill="#2563eb"/>
  <circle cx="936.30" cy="298.39" r="2.5" fill="#2563eb"/>
  <circle cx="937.39" cy="298.39" r="2.5" fill="#2563eb"/>
  <circle cx="938.49" cy="298.35" r="2.5" fill="#2563eb"/>
  <circle cx="939.58" cy="298.39" r="2.5" fill="#2563eb"/>
  <circle cx="940.67" cy="298.39" r="2.5" fill="#2563eb"/>
  <circle cx="941.76" cy="298.39" r="2.5" fill="#2563eb"/>
  <circle cx="942.86" cy="298.39" r="2.5" fill="#2563eb"/>
  <circle cx="943.95" cy="298.39" r="2.5" fill="#2563eb"/>
  <circle cx="945.04" cy="298.39" r="2.5" fill="#2563eb"/>
  <circle cx="946.13" cy="298.39" r="2.5" fill="#2563eb"/>
  <circle cx="947.23" cy="298.39" r="2.5" fill="#2563eb"/>
  <circle cx="948.32" cy="298.35" r="2.5" fill="#2563eb"/>
  <circle cx="949.41" cy="298.35" r="2.5" fill="#2563eb"/>
  <circle cx="950.50" cy="298.39" r="2.5" fill="#2563eb"/>
  <circle cx="951.60" cy="298.35" r="2.5" fill="#2563eb"/>
  <circle cx="952.69" cy="298.39" r="2.5" fill="#2563eb"/>
  <circle cx="953.78" cy="298.39" r="2.5" fill="#2563eb"/>
  <circle cx="954.87" cy="298.39" r="2.5" fill="#2563eb"/>
  <circle cx="955.97" cy="298.39" r="2.5" fill="#2563eb"/>
  <circle cx="957.06" cy="298.39" r="2.5" fill="#2563eb"/>
  <circle cx="958.15" cy="298.35" r="2.5" fill="#2563eb"/>
  <circle cx="959.24" cy="298.39" r="2.5" fill="#2563eb"/>
  <circle cx="960.34" cy="298.39" r="2.5" fill="#2563eb"/>
  <circle cx="961.43" cy="298.35" r="2.5" fill="#2563eb"/>
  <circle cx="962.52" cy="298.39" r="2.5" fill="#2563eb"/>
  <circle cx="963.61" cy="298.35" r="2.5" fill="#2563eb"/>
  <circle cx="964.71" cy="298.39" r="2.5" fill="#2563eb"/>
  <circle cx="965.80" cy="298.39" r="2.5" fill="#2563eb"/>
  <circle cx="966.89" cy="298.35" r="2.5" fill="#2563eb"/>
  <circle cx="967.98" cy="298.39" r="2.5" fill="#2563eb"/>
  <circle cx="969.08" cy="298.35" r="2.5" fill="#2563eb"/>
  <circle cx="970.17" cy="298.39" r="2.5" fill="#2563eb"/>
  <circle cx="971.26" cy="298.39" r="2.5" fill="#2563eb"/>
  <circle cx="972.35" cy="298.35" r="2.5" fill="#2563eb"/>
  <circle cx="973.45" cy="298.39" r="2.5" fill="#2563eb"/>
  <circle cx="974.54" cy="298.39" r="2.5" fill="#2563eb"/>
  <circle cx="975.63" cy="298.39" r="2.5" fill="#2563eb"/>
  <circle cx="976.72" cy="298.39" r="2.5" fill="#2563eb"/>
  <circle cx="977.82" cy="298.35" r="2.5" fill="#2563eb"/>
  <circle cx="978.91" cy="298.39" r="2.5" fill="#2563eb"/>
  <circle cx="980.00" cy="298.39" r="2.5" fill="#2563eb"/>
</svg>
